  0
SECTION
  2
HEADER
  9
$ACADVER
  1
AC1014
  9
$HANDSEED
  5
FFFF
  9
$MEASUREMENT
 70
     1
  0
ENDSEC
  0
SECTION
  2
TABLES
  0
TABLE
  2
VPORT
  5
8
330
0
100
AcDbSymbolTable
 70
     4
  0
VPORT
  5
2E
330
8
100
AcDbSymbolTableRecord
100
AcDbViewportTableRecord
  2
*ACTIVE
 70
     0
 10
0.0
 20
0.0
 11
1.0
 21
1.0
 12
210.0
 22
148.5
 13
0.0
 23
0.0
 14
10.0
 24
10.0
 15
10.0
 25
10.0
 16
0.0
 26
0.0
 36
1.0
 17
0.0
 27
0.0
 37
0.0
 40
341.0
 41
1.24
 42
50.0
 43
0.0
 44
0.0
 50
0.0
 51
0.0
 71
     0
 72
   100
 73
     1
 74
     3
 75
     0
 76
     0
 77
     0
 78
     0
  0
ENDTAB
  0
TABLE
  2
LTYPE
  5
5
330
0
100
AcDbSymbolTable
 70
     1
  0
LTYPE
  5
14
330
5
100
AcDbSymbolTableRecord
100
AcDbLinetypeTableRecord
  2
BYBLOCK
 70
     0
  3

 72
    65
 73
     0
 40
0.0
  0
LTYPE
  5
15
330
5
100
AcDbSymbolTableRecord
100
AcDbLinetypeTableRecord
  2
BYLAYER
 70
     0
  3

 72
    65
 73
     0
 40
0.0
  0
LTYPE
  5
16
330
5
100
AcDbSymbolTableRecord
100
AcDbLinetypeTableRecord
  2
CONTINUOUS
 70
     0
  3
Solid line
 72
    65
 73
     0
 40
0.0
  0
ENDTAB
  0
TABLE
  2
LAYER
  5
2
100
AcDbSymbolTable
 70
2
  0
LAYER
  5
50
100
AcDbSymbolTableRecord
100
AcDbLayerTableRecord
  2
0
 70
0
  6
CONTINUOUS
  0
LAYER
  5
51
100
AcDbSymbolTableRecord
100
AcDbLayerTableRecord
  2
Layer_1
 70
0
  6
CONTINUOUS
  0
ENDTAB
  0
TABLE
  2
STYLE
  5
3
330
0
100
AcDbSymbolTable
 70
     1
  0
STYLE
  5
11
330
3
100
AcDbSymbolTableRecord
100
AcDbTextStyleTableRecord
  2
STANDARD
 70
     0
 40
0.0
 41
1.0
 50
0.0
 71
     0
 42
2.5
  3
txt
  4

  0
ENDTAB
  0
TABLE
  2
VIEW
  5
6
330
0
100
AcDbSymbolTable
 70
     0
  0
ENDTAB
  0
TABLE
  2
UCS
  5
7
330
0
100
AcDbSymbolTable
 70
     0
  0
ENDTAB
  0
TABLE
  2
APPID
  5
9
330
0
100
AcDbSymbolTable
 70
     2
  0
APPID
  5
12
330
9
100
AcDbSymbolTableRecord
100
AcDbRegAppTableRecord
  2
ACAD
 70
     0
  0
ENDTAB
  0
TABLE
  2
DIMSTYLE
  5
A
330
0
100
AcDbSymbolTable
 70
     1
  0
DIMSTYLE
105
27
330
A
100
AcDbSymbolTableRecord
100
AcDbDimStyleTableRecord
  2
ISO-25
 70
     0
  3

  4

  5

  6

  7

 40
1.0
 41
2.5
 42
0.625
 43
3.75
 44
1.25
 45
0.0
 46
0.0
 47
0.0
 48
0.0
140
2.5
141
2.5
142
0.0
143
0.03937007874016
144
1.0
145
0.0
146
1.0
147
0.625
 71
     0
 72
     0
 73
     0
 74
     0
 75
     0
 76
     0
 77
     1
 78
     8
170
     0
171
     3
172
     1
173
     0
174
     0
175
     0
176
     0
177
     0
178
     0
270
     2
271
     2
272
     2
273
     2
274
     3
340
11
275
     0
280
     0
281
     0
282
     0
283
     0
284
     8
285
     0
286
     0
287
     3
288
     0
  0
ENDTAB
  0
TABLE
  2
BLOCK_RECORD
  5
1
330
0
100
AcDbSymbolTable
 70
     1
  0
BLOCK_RECORD
  5
1F
330
1
100
AcDbSymbolTableRecord
100
AcDbBlockTableRecord
  2
*MODEL_SPACE
  0
BLOCK_RECORD
  5
1B
330
1
100
AcDbSymbolTableRecord
100
AcDbBlockTableRecord
  2
*PAPER_SPACE
  0
ENDTAB
  0
ENDSEC
  0
SECTION
  2
BLOCKS
  0
BLOCK
  5
20
330
1F
100
AcDbEntity
  8
0
100
AcDbBlockBegin
  2
*MODEL_SPACE
 70
     0
 10
0.0
 20
0.0
 30
0.0
  3
*MODEL_SPACE
  1

  0
ENDBLK
  5
21
330
1F
100
AcDbEntity
  8
0
100
AcDbBlockEnd
  0
BLOCK
  5
1C
330
1B
100
AcDbEntity
 67
     1
  8
0
100
AcDbBlockBegin
  2
*PAPER_SPACE
  1

  0
ENDBLK
  5
1D
330
1B
100
AcDbEntity
 67
     1
  8
0
100
AcDbBlockEnd
  0
ENDSEC
  0
SECTION
  2
ENTITIES
  0
SPLINE
  5
100
100
AcDbEntity
  8
Layer_1
 62
7
100
AcDbSpline
 70
8
 71
3
 72
8
 73
4
 74
0
 40
0
 40
0
 40
0
 40
0
 40
1
 40
1
 40
1
 40
1
 10
3.000000
 20
4.000012
 30
0.0
 10
1.000000
 20
4.000012
 30
0.0
 10
0.000000
 20
5.000010
 30
0.0
 10
0.000001
 20
7.000006
 30
0.0
  0
LINE
  5
101
100
AcDbEntity
  8
Layer_1
 62
7
100
AcDbLine
 10
0.000001
 20
7.000006
 30
0.0
 11
0.000000
 21
38.999998
 31
0.0
  0
SPLINE
  5
102
100
AcDbEntity
  8
Layer_1
 62
7
100
AcDbSpline
 70
8
 71
3
 72
8
 73
4
 74
0
 40
0
 40
0
 40
0
 40
0
 40
1
 40
1
 40
1
 40
1
 10
0.000000
 20
38.999998
 30
0.0
 10
0.000000
 20
41.000000
 30
0.0
 10
1.000000
 20
42.000001
 30
0.0
 10
3.000000
 20
41.999998
 30
0.0
  0
LINE
  5
103
100
AcDbEntity
  8
Layer_1
 62
7
100
AcDbLine
 10
3.000000
 20
41.999998
 30
0.0
 11
7.000000
 21
42.000001
 31
0.0
  0
LINE
  5
104
100
AcDbEntity
  8
Layer_1
 62
7
100
AcDbLine
 10
7.000000
 20
42.000001
 30
0.0
 11
-4.000000
 21
42.000001
 31
0.0
  0
LINE
  5
105
100
AcDbEntity
  8
Layer_1
 62
7
100
AcDbLine
 10
-4.000000
 20
42.000001
 30
0.0
 11
-4.000000
 21
46.000001
 31
0.0
  0
LINE
  5
106
100
AcDbEntity
  8
Layer_1
 62
7
100
AcDbLine
 10
-4.000000
 20
46.000001
 30
0.0
 11
11.000000
 21
46.000001
 31
0.0
  0
LINE
  5
107
100
AcDbEntity
  8
Layer_1
 62
7
100
AcDbLine
 10
11.000000
 20
46.000001
 30
0.0
 11
11.000000
 21
49.999999
 31
0.0
  0
LINE
  5
108
100
AcDbEntity
  8
Layer_1
 62
7
100
AcDbLine
 10
11.000000
 20
49.999999
 30
0.0
 11
15.000000
 21
49.999999
 31
0.0
  0
LINE
  5
109
100
AcDbEntity
  8
Layer_1
 62
7
100
AcDbLine
 10
15.000000
 20
49.999999
 30
0.0
 11
15.000000
 21
46.000001
 31
0.0
  0
LINE
  5
10a
100
AcDbEntity
  8
Layer_1
 62
7
100
AcDbLine
 10
15.000000
 20
46.000001
 30
0.0
 11
32.999999
 21
45.999998
 31
0.0
  0
LINE
  5
10b
100
AcDbEntity
  8
Layer_1
 62
7
100
AcDbLine
 10
32.999999
 20
45.999998
 30
0.0
 11
32.999999
 21
49.999999
 31
0.0
  0
LINE
  5
10c
100
AcDbEntity
  8
Layer_1
 62
7
100
AcDbLine
 10
32.999999
 20
49.999999
 30
0.0
 11
36.999999
 21
49.999999
 31
0.0
  0
LINE
  5
10d
100
AcDbEntity
  8
Layer_1
 62
7
100
AcDbLine
 10
36.999999
 20
49.999999
 30
0.0
 11
36.999999
 21
45.999998
 31
0.0
  0
LINE
  5
10e
100
AcDbEntity
  8
Layer_1
 62
7
100
AcDbLine
 10
36.999999
 20
45.999998
 30
0.0
 11
52.000000
 21
46.000001
 31
0.0
  0
LINE
  5
10f
100
AcDbEntity
  8
Layer_1
 62
7
100
AcDbLine
 10
52.000000
 20
46.000001
 30
0.0
 11
52.000000
 21
42.000001
 31
0.0
  0
LINE
  5
110
100
AcDbEntity
  8
Layer_1
 62
7
100
AcDbLine
 10
52.000000
 20
42.000001
 30
0.0
 11
41.000000
 21
42.000001
 31
0.0
  0
LINE
  5
111
100
AcDbEntity
  8
Layer_1
 62
7
100
AcDbLine
 10
41.000000
 20
42.000001
 30
0.0
 11
45.000000
 21
42.000001
 31
0.0
  0
SPLINE
  5
112
100
AcDbEntity
  8
Layer_1
 62
7
100
AcDbSpline
 70
8
 71
3
 72
8
 73
4
 74
0
 40
0
 40
0
 40
0
 40
0
 40
1
 40
1
 40
1
 40
1
 10
45.000000
 20
42.000001
 30
0.0
 10
46.999999
 20
42.000001
 30
0.0
 10
48.000000
 20
41.000000
 30
0.0
 10
48.000000
 20
38.999998
 30
0.0
  0
LINE
  5
113
100
AcDbEntity
  8
Layer_1
 62
7
100
AcDbLine
 10
48.000000
 20
38.999998
 30
0.0
 11
48.000000
 21
7.000006
 31
0.0
  0
SPLINE
  5
114
100
AcDbEntity
  8
Layer_1
 62
7
100
AcDbSpline
 70
8
 71
3
 72
8
 73
4
 74
0
 40
0
 40
0
 40
0
 40
0
 40
1
 40
1
 40
1
 40
1
 10
48.000000
 20
7.000006
 30
0.0
 10
48.000000
 20
5.000010
 30
0.0
 10
46.999999
 20
4.000012
 30
0.0
 10
45.000000
 20
4.000012
 30
0.0
  0
LINE
  5
115
100
AcDbEntity
  8
Layer_1
 62
7
100
AcDbLine
 10
45.000000
 20
4.000012
 30
0.0
 11
41.000000
 21
4.000012
 31
0.0
  0
LINE
  5
116
100
AcDbEntity
  8
Layer_1
 62
7
100
AcDbLine
 10
41.000000
 20
4.000012
 30
0.0
 11
52.000000
 21
4.000012
 31
0.0
  0
LINE
  5
117
100
AcDbEntity
  8
Layer_1
 62
7
100
AcDbLine
 10
52.000000
 20
4.000012
 30
0.0
 11
52.000000
 21
-0.000008
 31
0.0
  0
LINE
  5
118
100
AcDbEntity
  8
Layer_1
 62
7
100
AcDbLine
 10
52.000000
 20
-0.000008
 30
0.0
 11
36.999999
 21
-0.000008
 31
0.0
  0
LINE
  5
119
100
AcDbEntity
  8
Layer_1
 62
7
100
AcDbLine
 10
36.999999
 20
-0.000008
 30
0.0
 11
36.999999
 21
-4.000000
 31
0.0
  0
LINE
  5
11a
100
AcDbEntity
  8
Layer_1
 62
7
100
AcDbLine
 10
36.999999
 20
-4.000000
 30
0.0
 11
32.999999
 21
-4.000000
 31
0.0
  0
LINE
  5
11b
100
AcDbEntity
  8
Layer_1
 62
7
100
AcDbLine
 10
32.999999
 20
-4.000000
 30
0.0
 11
32.999999
 21
-0.000008
 31
0.0
  0
LINE
  5
11c
100
AcDbEntity
  8
Layer_1
 62
7
100
AcDbLine
 10
32.999999
 20
-0.000008
 30
0.0
 11
15.000000
 21
-0.000008
 31
0.0
  0
LINE
  5
11d
100
AcDbEntity
  8
Layer_1
 62
7
100
AcDbLine
 10
15.000000
 20
-0.000008
 30
0.0
 11
15.000000
 21
-4.000000
 31
0.0
  0
LINE
  5
11e
100
AcDbEntity
  8
Layer_1
 62
7
100
AcDbLine
 10
15.000000
 20
-4.000000
 30
0.0
 11
11.000000
 21
-4.000000
 31
0.0
  0
LINE
  5
11f
100
AcDbEntity
  8
Layer_1
 62
7
100
AcDbLine
 10
11.000000
 20
-4.000000
 30
0.0
 11
11.000000
 21
-0.000008
 31
0.0
  0
LINE
  5
120
100
AcDbEntity
  8
Layer_1
 62
7
100
AcDbLine
 10
11.000000
 20
-0.000008
 30
0.0
 11
-4.000000
 21
-0.000008
 31
0.0
  0
LINE
  5
121
100
AcDbEntity
  8
Layer_1
 62
7
100
AcDbLine
 10
-4.000000
 20
-0.000008
 30
0.0
 11
-4.000000
 21
4.000012
 31
0.0
  0
LINE
  5
122
100
AcDbEntity
  8
Layer_1
 62
7
100
AcDbLine
 10
-4.000000
 20
4.000012
 30
0.0
 11
7.000000
 21
4.000012
 31
0.0
  0
LINE
  5
123
100
AcDbEntity
  8
Layer_1
 62
7
100
AcDbLine
 10
7.000000
 20
4.000012
 30
0.0
 11
3.000000
 21
4.000012
 31
0.0
  0
SPLINE
  5
124
100
AcDbEntity
  8
Layer_1
 62
7
100
AcDbSpline
 70
8
 71
3
 72
8
 73
4
 74
0
 40
0
 40
0
 40
0
 40
0
 40
1
 40
1
 40
1
 40
1
 10
6.000000
 20
38.000000
 30
0.0
 10
6.000120
 20
37.285389
 30
0.0
 10
5.618949
 20
36.625010
 30
0.0
 10
5.000097
 20
36.267669
 30
0.0
  0
SPLINE
  5
125
100
AcDbEntity
  8
Layer_1
 62
7
100
AcDbSpline
 70
8
 71
3
 72
8
 73
4
 74
0
 40
0
 40
0
 40
0
 40
0
 40
1
 40
1
 40
1
 40
1
 10
5.000097
 20
36.267669
 30
0.0
 10
4.381246
 20
35.910329
 30
0.0
 10
3.618755
 20
35.910329
 30
0.0
 10
2.999903
 20
36.267669
 30
0.0
  0
SPLINE
  5
126
100
AcDbEntity
  8
Layer_1
 62
7
100
AcDbSpline
 70
8
 71
3
 72
8
 73
4
 74
0
 40
0
 40
0
 40
0
 40
0
 40
1
 40
1
 40
1
 40
1
 10
2.999903
 20
36.267669
 30
0.0
 10
2.381052
 20
36.625010
 30
0.0
 10
1.999880
 20
37.285389
 30
0.0
 10
2.000000
 20
38.000000
 30
0.0
  0
SPLINE
  5
127
100
AcDbEntity
  8
Layer_1
 62
7
100
AcDbSpline
 70
8
 71
3
 72
8
 73
4
 74
0
 40
0
 40
0
 40
0
 40
0
 40
1
 40
1
 40
1
 40
1
 10
2.000000
 20
38.000000
 30
0.0
 10
1.999880
 20
38.714611
 30
0.0
 10
2.381052
 20
39.374991
 30
0.0
 10
2.999903
 20
39.732331
 30
0.0
  0
SPLINE
  5
128
100
AcDbEntity
  8
Layer_1
 62
7
100
AcDbSpline
 70
8
 71
3
 72
8
 73
4
 74
0
 40
0
 40
0
 40
0
 40
0
 40
1
 40
1
 40
1
 40
1
 10
2.999903
 20
39.732331
 30
0.0
 10
3.618755
 20
40.089671
 30
0.0
 10
4.381246
 20
40.089671
 30
0.0
 10
5.000097
 20
39.732331
 30
0.0
  0
SPLINE
  5
129
100
AcDbEntity
  8
Layer_1
 62
7
100
AcDbSpline
 70
8
 71
3
 72
8
 73
4
 74
0
 40
0
 40
0
 40
0
 40
0
 40
1
 40
1
 40
1
 40
1
 10
5.000097
 20
39.732331
 30
0.0
 10
5.618949
 20
39.374991
 30
0.0
 10
6.000120
 20
38.714611
 30
0.0
 10
6.000000
 20
38.000000
 30
0.0
  0
LINE
  5
12a
100
AcDbEntity
  8
Layer_1
 62
7
100
AcDbLine
 10
6.000000
 20
38.000000
 30
0.0
 11
6.000000
 21
38.000000
 31
0.0
  0
SPLINE
  5
12b
100
AcDbEntity
  8
Layer_1
 62
7
100
AcDbSpline
 70
8
 71
3
 72
8
 73
4
 74
0
 40
0
 40
0
 40
0
 40
0
 40
1
 40
1
 40
1
 40
1
 10
6.000000
 20
28.000000
 30
0.0
 10
6.000120
 20
27.285389
 30
0.0
 10
5.618949
 20
26.625010
 30
0.0
 10
5.000097
 20
26.267670
 30
0.0
  0
SPLINE
  5
12c
100
AcDbEntity
  8
Layer_1
 62
7
100
AcDbSpline
 70
8
 71
3
 72
8
 73
4
 74
0
 40
0
 40
0
 40
0
 40
0
 40
1
 40
1
 40
1
 40
1
 10
5.000097
 20
26.267670
 30
0.0
 10
4.381246
 20
25.910329
 30
0.0
 10
3.618755
 20
25.910329
 30
0.0
 10
2.999903
 20
26.267670
 30
0.0
  0
SPLINE
  5
12d
100
AcDbEntity
  8
Layer_1
 62
7
100
AcDbSpline
 70
8
 71
3
 72
8
 73
4
 74
0
 40
0
 40
0
 40
0
 40
0
 40
1
 40
1
 40
1
 40
1
 10
2.999903
 20
26.267670
 30
0.0
 10
2.381052
 20
26.625010
 30
0.0
 10
1.999880
 20
27.285389
 30
0.0
 10
2.000000
 20
28.000000
 30
0.0
  0
SPLINE
  5
12e
100
AcDbEntity
  8
Layer_1
 62
7
100
AcDbSpline
 70
8
 71
3
 72
8
 73
4
 74
0
 40
0
 40
0
 40
0
 40
0
 40
1
 40
1
 40
1
 40
1
 10
2.000000
 20
28.000000
 30
0.0
 10
1.999880
 20
28.714612
 30
0.0
 10
2.381052
 20
29.374991
 30
0.0
 10
2.999903
 20
29.732331
 30
0.0
  0
SPLINE
  5
12f
100
AcDbEntity
  8
Layer_1
 62
7
100
AcDbSpline
 70
8
 71
3
 72
8
 73
4
 74
0
 40
0
 40
0
 40
0
 40
0
 40
1
 40
1
 40
1
 40
1
 10
2.999903
 20
29.732331
 30
0.0
 10
3.618755
 20
30.089671
 30
0.0
 10
4.381246
 20
30.089671
 30
0.0
 10
5.000097
 20
29.732331
 30
0.0
  0
SPLINE
  5
130
100
AcDbEntity
  8
Layer_1
 62
7
100
AcDbSpline
 70
8
 71
3
 72
8
 73
4
 74
0
 40
0
 40
0
 40
0
 40
0
 40
1
 40
1
 40
1
 40
1
 10
5.000097
 20
29.732331
 30
0.0
 10
5.618949
 20
29.374991
 30
0.0
 10
6.000120
 20
28.714612
 30
0.0
 10
6.000000
 20
28.000000
 30
0.0
  0
LINE
  5
131
100
AcDbEntity
  8
Layer_1
 62
7
100
AcDbLine
 10
6.000000
 20
28.000000
 30
0.0
 11
6.000000
 21
28.000000
 31
0.0
  0
SPLINE
  5
132
100
AcDbEntity
  8
Layer_1
 62
7
100
AcDbSpline
 70
8
 71
3
 72
8
 73
4
 74
0
 40
0
 40
0
 40
0
 40
0
 40
1
 40
1
 40
1
 40
1
 10
6.000000
 20
18.000001
 30
0.0
 10
6.000120
 20
17.285390
 30
0.0
 10
5.618948
 20
16.625010
 30
0.0
 10
5.000097
 20
16.267670
 30
0.0
  0
SPLINE
  5
133
100
AcDbEntity
  8
Layer_1
 62
7
100
AcDbSpline
 70
8
 71
3
 72
8
 73
4
 74
0
 40
0
 40
0
 40
0
 40
0
 40
1
 40
1
 40
1
 40
1
 10
5.000097
 20
16.267670
 30
0.0
 10
4.381245
 20
15.910330
 30
0.0
 10
3.618754
 20
15.910330
 30
0.0
 10
2.999903
 20
16.267670
 30
0.0
  0
SPLINE
  5
134
100
AcDbEntity
  8
Layer_1
 62
7
100
AcDbSpline
 70
8
 71
3
 72
8
 73
4
 74
0
 40
0
 40
0
 40
0
 40
0
 40
1
 40
1
 40
1
 40
1
 10
2.999903
 20
16.267670
 30
0.0
 10
2.381051
 20
16.625010
 30
0.0
 10
1.999880
 20
17.285390
 30
0.0
 10
2.000000
 20
18.000001
 30
0.0
  0
SPLINE
  5
135
100
AcDbEntity
  8
Layer_1
 62
7
100
AcDbSpline
 70
8
 71
3
 72
8
 73
4
 74
0
 40
0
 40
0
 40
0
 40
0
 40
1
 40
1
 40
1
 40
1
 10
2.000000
 20
18.000001
 30
0.0
 10
1.999880
 20
18.714612
 30
0.0
 10
2.381051
 20
19.374991
 30
0.0
 10
2.999903
 20
19.732331
 30
0.0
  0
SPLINE
  5
136
100
AcDbEntity
  8
Layer_1
 62
7
100
AcDbSpline
 70
8
 71
3
 72
8
 73
4
 74
0
 40
0
 40
0
 40
0
 40
0
 40
1
 40
1
 40
1
 40
1
 10
2.999903
 20
19.732331
 30
0.0
 10
3.618754
 20
20.089672
 30
0.0
 10
4.381245
 20
20.089672
 30
0.0
 10
5.000097
 20
19.732331
 30
0.0
  0
SPLINE
  5
137
100
AcDbEntity
  8
Layer_1
 62
7
100
AcDbSpline
 70
8
 71
3
 72
8
 73
4
 74
0
 40
0
 40
0
 40
0
 40
0
 40
1
 40
1
 40
1
 40
1
 10
5.000097
 20
19.732331
 30
0.0
 10
5.618948
 20
19.374991
 30
0.0
 10
6.000120
 20
18.714612
 30
0.0
 10
6.000000
 20
18.000001
 30
0.0
  0
LINE
  5
138
100
AcDbEntity
  8
Layer_1
 62
7
100
AcDbLine
 10
6.000000
 20
18.000001
 30
0.0
 11
6.000000
 21
18.000001
 31
0.0
  0
SPLINE
  5
139
100
AcDbEntity
  8
Layer_1
 62
7
100
AcDbSpline
 70
8
 71
3
 72
8
 73
4
 74
0
 40
0
 40
0
 40
0
 40
0
 40
1
 40
1
 40
1
 40
1
 10
6.000000
 20
8.000001
 30
0.0
 10
6.000120
 20
7.285390
 30
0.0
 10
5.618948
 20
6.625010
 30
0.0
 10
5.000097
 20
6.267670
 30
0.0
  0
SPLINE
  5
13a
100
AcDbEntity
  8
Layer_1
 62
7
100
AcDbSpline
 70
8
 71
3
 72
8
 73
4
 74
0
 40
0
 40
0
 40
0
 40
0
 40
1
 40
1
 40
1
 40
1
 10
5.000097
 20
6.267670
 30
0.0
 10
4.381245
 20
5.910330
 30
0.0
 10
3.618754
 20
5.910330
 30
0.0
 10
2.999903
 20
6.267670
 30
0.0
  0
SPLINE
  5
13b
100
AcDbEntity
  8
Layer_1
 62
7
100
AcDbSpline
 70
8
 71
3
 72
8
 73
4
 74
0
 40
0
 40
0
 40
0
 40
0
 40
1
 40
1
 40
1
 40
1
 10
2.999903
 20
6.267670
 30
0.0
 10
2.381051
 20
6.625010
 30
0.0
 10
1.999880
 20
7.285390
 30
0.0
 10
2.000000
 20
8.000001
 30
0.0
  0
SPLINE
  5
13c
100
AcDbEntity
  8
Layer_1
 62
7
100
AcDbSpline
 70
8
 71
3
 72
8
 73
4
 74
0
 40
0
 40
0
 40
0
 40
0
 40
1
 40
1
 40
1
 40
1
 10
2.000000
 20
8.000001
 30
0.0
 10
1.999880
 20
8.714612
 30
0.0
 10
2.381051
 20
9.374991
 30
0.0
 10
2.999903
 20
9.732332
 30
0.0
  0
SPLINE
  5
13d
100
AcDbEntity
  8
Layer_1
 62
7
100
AcDbSpline
 70
8
 71
3
 72
8
 73
4
 74
0
 40
0
 40
0
 40
0
 40
0
 40
1
 40
1
 40
1
 40
1
 10
2.999903
 20
9.732332
 30
0.0
 10
3.618754
 20
10.089672
 30
0.0
 10
4.381245
 20
10.089672
 30
0.0
 10
5.000097
 20
9.732332
 30
0.0
  0
SPLINE
  5
13e
100
AcDbEntity
  8
Layer_1
 62
7
100
AcDbSpline
 70
8
 71
3
 72
8
 73
4
 74
0
 40
0
 40
0
 40
0
 40
0
 40
1
 40
1
 40
1
 40
1
 10
5.000097
 20
9.732332
 30
0.0
 10
5.618948
 20
9.374991
 30
0.0
 10
6.000120
 20
8.714612
 30
0.0
 10
6.000000
 20
8.000001
 30
0.0
  0
LINE
  5
13f
100
AcDbEntity
  8
Layer_1
 62
7
100
AcDbLine
 10
6.000000
 20
8.000001
 30
0.0
 11
6.000000
 21
8.000001
 31
0.0
  0
SPLINE
  5
140
100
AcDbEntity
  8
Layer_1
 62
7
100
AcDbSpline
 70
8
 71
3
 72
8
 73
4
 74
0
 40
0
 40
0
 40
0
 40
0
 40
1
 40
1
 40
1
 40
1
 10
16.000000
 20
8.000001
 30
0.0
 10
16.000120
 20
7.285390
 30
0.0
 10
15.618948
 20
6.625010
 30
0.0
 10
15.000097
 20
6.267670
 30
0.0
  0
SPLINE
  5
141
100
AcDbEntity
  8
Layer_1
 62
7
100
AcDbSpline
 70
8
 71
3
 72
8
 73
4
 74
0
 40
0
 40
0
 40
0
 40
0
 40
1
 40
1
 40
1
 40
1
 10
15.000097
 20
6.267670
 30
0.0
 10
14.381245
 20
5.910330
 30
0.0
 10
13.618754
 20
5.910330
 30
0.0
 10
12.999903
 20
6.267670
 30
0.0
  0
SPLINE
  5
142
100
AcDbEntity
  8
Layer_1
 62
7
100
AcDbSpline
 70
8
 71
3
 72
8
 73
4
 74
0
 40
0
 40
0
 40
0
 40
0
 40
1
 40
1
 40
1
 40
1
 10
12.999903
 20
6.267670
 30
0.0
 10
12.381052
 20
6.625010
 30
0.0
 10
11.999880
 20
7.285390
 30
0.0
 10
12.000000
 20
8.000001
 30
0.0
  0
SPLINE
  5
143
100
AcDbEntity
  8
Layer_1
 62
7
100
AcDbSpline
 70
8
 71
3
 72
8
 73
4
 74
0
 40
0
 40
0
 40
0
 40
0
 40
1
 40
1
 40
1
 40
1
 10
12.000000
 20
8.000001
 30
0.0
 10
11.999880
 20
8.714612
 30
0.0
 10
12.381052
 20
9.374991
 30
0.0
 10
12.999903
 20
9.732332
 30
0.0
  0
SPLINE
  5
144
100
AcDbEntity
  8
Layer_1
 62
7
100
AcDbSpline
 70
8
 71
3
 72
8
 73
4
 74
0
 40
0
 40
0
 40
0
 40
0
 40
1
 40
1
 40
1
 40
1
 10
12.999903
 20
9.732332
 30
0.0
 10
13.618754
 20
10.089672
 30
0.0
 10
14.381245
 20
10.089672
 30
0.0
 10
15.000097
 20
9.732332
 30
0.0
  0
SPLINE
  5
145
100
AcDbEntity
  8
Layer_1
 62
7
100
AcDbSpline
 70
8
 71
3
 72
8
 73
4
 74
0
 40
0
 40
0
 40
0
 40
0
 40
1
 40
1
 40
1
 40
1
 10
15.000097
 20
9.732332
 30
0.0
 10
15.618948
 20
9.374991
 30
0.0
 10
16.000120
 20
8.714612
 30
0.0
 10
16.000000
 20
8.000001
 30
0.0
  0
LINE
  5
146
100
AcDbEntity
  8
Layer_1
 62
7
100
AcDbLine
 10
16.000000
 20
8.000001
 30
0.0
 11
16.000000
 21
8.000001
 31
0.0
  0
SPLINE
  5
147
100
AcDbEntity
  8
Layer_1
 62
7
100
AcDbSpline
 70
8
 71
3
 72
8
 73
4
 74
0
 40
0
 40
0
 40
0
 40
0
 40
1
 40
1
 40
1
 40
1
 10
16.000000
 20
38.000000
 30
0.0
 10
16.000120
 20
37.285389
 30
0.0
 10
15.618948
 20
36.625010
 30
0.0
 10
15.000097
 20
36.267669
 30
0.0
  0
SPLINE
  5
148
100
AcDbEntity
  8
Layer_1
 62
7
100
AcDbSpline
 70
8
 71
3
 72
8
 73
4
 74
0
 40
0
 40
0
 40
0
 40
0
 40
1
 40
1
 40
1
 40
1
 10
15.000097
 20
36.267669
 30
0.0
 10
14.381245
 20
35.910329
 30
0.0
 10
13.618754
 20
35.910329
 30
0.0
 10
12.999903
 20
36.267669
 30
0.0
  0
SPLINE
  5
149
100
AcDbEntity
  8
Layer_1
 62
7
100
AcDbSpline
 70
8
 71
3
 72
8
 73
4
 74
0
 40
0
 40
0
 40
0
 40
0
 40
1
 40
1
 40
1
 40
1
 10
12.999903
 20
36.267669
 30
0.0
 10
12.381052
 20
36.625010
 30
0.0
 10
11.999880
 20
37.285389
 30
0.0
 10
12.000000
 20
38.000000
 30
0.0
  0
SPLINE
  5
14a
100
AcDbEntity
  8
Layer_1
 62
7
100
AcDbSpline
 70
8
 71
3
 72
8
 73
4
 74
0
 40
0
 40
0
 40
0
 40
0
 40
1
 40
1
 40
1
 40
1
 10
12.000000
 20
38.000000
 30
0.0
 10
11.999880
 20
38.714611
 30
0.0
 10
12.381052
 20
39.374991
 30
0.0
 10
12.999903
 20
39.732331
 30
0.0
  0
SPLINE
  5
14b
100
AcDbEntity
  8
Layer_1
 62
7
100
AcDbSpline
 70
8
 71
3
 72
8
 73
4
 74
0
 40
0
 40
0
 40
0
 40
0
 40
1
 40
1
 40
1
 40
1
 10
12.999903
 20
39.732331
 30
0.0
 10
13.618754
 20
40.089671
 30
0.0
 10
14.381245
 20
40.089671
 30
0.0
 10
15.000097
 20
39.732331
 30
0.0
  0
SPLINE
  5
14c
100
AcDbEntity
  8
Layer_1
 62
7
100
AcDbSpline
 70
8
 71
3
 72
8
 73
4
 74
0
 40
0
 40
0
 40
0
 40
0
 40
1
 40
1
 40
1
 40
1
 10
15.000097
 20
39.732331
 30
0.0
 10
15.618948
 20
39.374991
 30
0.0
 10
16.000120
 20
38.714611
 30
0.0
 10
16.000000
 20
38.000000
 30
0.0
  0
LINE
  5
14d
100
AcDbEntity
  8
Layer_1
 62
7
100
AcDbLine
 10
16.000000
 20
38.000000
 30
0.0
 11
16.000000
 21
38.000000
 31
0.0
  0
SPLINE
  5
14e
100
AcDbEntity
  8
Layer_1
 62
7
100
AcDbSpline
 70
8
 71
3
 72
8
 73
4
 74
0
 40
0
 40
0
 40
0
 40
0
 40
1
 40
1
 40
1
 40
1
 10
26.000000
 20
8.000001
 30
0.0
 10
26.000120
 20
7.285390
 30
0.0
 10
25.618948
 20
6.625010
 30
0.0
 10
25.000097
 20
6.267670
 30
0.0
  0
SPLINE
  5
14f
100
AcDbEntity
  8
Layer_1
 62
7
100
AcDbSpline
 70
8
 71
3
 72
8
 73
4
 74
0
 40
0
 40
0
 40
0
 40
0
 40
1
 40
1
 40
1
 40
1
 10
25.000097
 20
6.267670
 30
0.0
 10
24.381246
 20
5.910330
 30
0.0
 10
23.618754
 20
5.910330
 30
0.0
 10
22.999903
 20
6.267670
 30
0.0
  0
SPLINE
  5
150
100
AcDbEntity
  8
Layer_1
 62
7
100
AcDbSpline
 70
8
 71
3
 72
8
 73
4
 74
0
 40
0
 40
0
 40
0
 40
0
 40
1
 40
1
 40
1
 40
1
 10
22.999903
 20
6.267670
 30
0.0
 10
22.381052
 20
6.625010
 30
0.0
 10
21.999880
 20
7.285390
 30
0.0
 10
22.000000
 20
8.000001
 30
0.0
  0
SPLINE
  5
151
100
AcDbEntity
  8
Layer_1
 62
7
100
AcDbSpline
 70
8
 71
3
 72
8
 73
4
 74
0
 40
0
 40
0
 40
0
 40
0
 40
1
 40
1
 40
1
 40
1
 10
22.000000
 20
8.000001
 30
0.0
 10
21.999880
 20
8.714612
 30
0.0
 10
22.381052
 20
9.374991
 30
0.0
 10
22.999903
 20
9.732332
 30
0.0
  0
SPLINE
  5
152
100
AcDbEntity
  8
Layer_1
 62
7
100
AcDbSpline
 70
8
 71
3
 72
8
 73
4
 74
0
 40
0
 40
0
 40
0
 40
0
 40
1
 40
1
 40
1
 40
1
 10
22.999903
 20
9.732332
 30
0.0
 10
23.618754
 20
10.089672
 30
0.0
 10
24.381246
 20
10.089672
 30
0.0
 10
25.000097
 20
9.732332
 30
0.0
  0
SPLINE
  5
153
100
AcDbEntity
  8
Layer_1
 62
7
100
AcDbSpline
 70
8
 71
3
 72
8
 73
4
 74
0
 40
0
 40
0
 40
0
 40
0
 40
1
 40
1
 40
1
 40
1
 10
25.000097
 20
9.732332
 30
0.0
 10
25.618948
 20
9.374991
 30
0.0
 10
26.000120
 20
8.714612
 30
0.0
 10
26.000000
 20
8.000001
 30
0.0
  0
LINE
  5
154
100
AcDbEntity
  8
Layer_1
 62
7
100
AcDbLine
 10
26.000000
 20
8.000001
 30
0.0
 11
26.000000
 21
8.000001
 31
0.0
  0
SPLINE
  5
155
100
AcDbEntity
  8
Layer_1
 62
7
100
AcDbSpline
 70
8
 71
3
 72
8
 73
4
 74
0
 40
0
 40
0
 40
0
 40
0
 40
1
 40
1
 40
1
 40
1
 10
36.000000
 20
8.000001
 30
0.0
 10
36.000120
 20
7.285390
 30
0.0
 10
35.618948
 20
6.625010
 30
0.0
 10
35.000097
 20
6.267670
 30
0.0
  0
SPLINE
  5
156
100
AcDbEntity
  8
Layer_1
 62
7
100
AcDbSpline
 70
8
 71
3
 72
8
 73
4
 74
0
 40
0
 40
0
 40
0
 40
0
 40
1
 40
1
 40
1
 40
1
 10
35.000097
 20
6.267670
 30
0.0
 10
34.381246
 20
5.910330
 30
0.0
 10
33.618754
 20
5.910330
 30
0.0
 10
32.999903
 20
6.267670
 30
0.0
  0
SPLINE
  5
157
100
AcDbEntity
  8
Layer_1
 62
7
100
AcDbSpline
 70
8
 71
3
 72
8
 73
4
 74
0
 40
0
 40
0
 40
0
 40
0
 40
1
 40
1
 40
1
 40
1
 10
32.999903
 20
6.267670
 30
0.0
 10
32.381052
 20
6.625010
 30
0.0
 10
31.999880
 20
7.285390
 30
0.0
 10
32.000000
 20
8.000001
 30
0.0
  0
SPLINE
  5
158
100
AcDbEntity
  8
Layer_1
 62
7
100
AcDbSpline
 70
8
 71
3
 72
8
 73
4
 74
0
 40
0
 40
0
 40
0
 40
0
 40
1
 40
1
 40
1
 40
1
 10
32.000000
 20
8.000001
 30
0.0
 10
31.999880
 20
8.714612
 30
0.0
 10
32.381052
 20
9.374991
 30
0.0
 10
32.999903
 20
9.732332
 30
0.0
  0
SPLINE
  5
159
100
AcDbEntity
  8
Layer_1
 62
7
100
AcDbSpline
 70
8
 71
3
 72
8
 73
4
 74
0
 40
0
 40
0
 40
0
 40
0
 40
1
 40
1
 40
1
 40
1
 10
32.999903
 20
9.732332
 30
0.0
 10
33.618754
 20
10.089672
 30
0.0
 10
34.381246
 20
10.089672
 30
0.0
 10
35.000097
 20
9.732332
 30
0.0
  0
SPLINE
  5
15a
100
AcDbEntity
  8
Layer_1
 62
7
100
AcDbSpline
 70
8
 71
3
 72
8
 73
4
 74
0
 40
0
 40
0
 40
0
 40
0
 40
1
 40
1
 40
1
 40
1
 10
35.000097
 20
9.732332
 30
0.0
 10
35.618948
 20
9.374991
 30
0.0
 10
36.000120
 20
8.714612
 30
0.0
 10
36.000000
 20
8.000001
 30
0.0
  0
LINE
  5
15b
100
AcDbEntity
  8
Layer_1
 62
7
100
AcDbLine
 10
36.000000
 20
8.000001
 30
0.0
 11
36.000000
 21
8.000001
 31
0.0
  0
SPLINE
  5
15c
100
AcDbEntity
  8
Layer_1
 62
7
100
AcDbSpline
 70
8
 71
3
 72
8
 73
4
 74
0
 40
0
 40
0
 40
0
 40
0
 40
1
 40
1
 40
1
 40
1
 10
45.999999
 20
8.000001
 30
0.0
 10
46.000119
 20
7.285390
 30
0.0
 10
45.618948
 20
6.625010
 30
0.0
 10
45.000096
 20
6.267670
 30
0.0
  0
SPLINE
  5
15d
100
AcDbEntity
  8
Layer_1
 62
7
100
AcDbSpline
 70
8
 71
3
 72
8
 73
4
 74
0
 40
0
 40
0
 40
0
 40
0
 40
1
 40
1
 40
1
 40
1
 10
45.000096
 20
6.267670
 30
0.0
 10
44.381245
 20
5.910330
 30
0.0
 10
43.618754
 20
5.910330
 30
0.0
 10
42.999903
 20
6.267670
 30
0.0
  0
SPLINE
  5
15e
100
AcDbEntity
  8
Layer_1
 62
7
100
AcDbSpline
 70
8
 71
3
 72
8
 73
4
 74
0
 40
0
 40
0
 40
0
 40
0
 40
1
 40
1
 40
1
 40
1
 10
42.999903
 20
6.267670
 30
0.0
 10
42.381051
 20
6.625010
 30
0.0
 10
41.999879
 20
7.285390
 30
0.0
 10
42.000000
 20
8.000001
 30
0.0
  0
SPLINE
  5
15f
100
AcDbEntity
  8
Layer_1
 62
7
100
AcDbSpline
 70
8
 71
3
 72
8
 73
4
 74
0
 40
0
 40
0
 40
0
 40
0
 40
1
 40
1
 40
1
 40
1
 10
42.000000
 20
8.000001
 30
0.0
 10
41.999879
 20
8.714612
 30
0.0
 10
42.381051
 20
9.374991
 30
0.0
 10
42.999903
 20
9.732332
 30
0.0
  0
SPLINE
  5
160
100
AcDbEntity
  8
Layer_1
 62
7
100
AcDbSpline
 70
8
 71
3
 72
8
 73
4
 74
0
 40
0
 40
0
 40
0
 40
0
 40
1
 40
1
 40
1
 40
1
 10
42.999903
 20
9.732332
 30
0.0
 10
43.618754
 20
10.089672
 30
0.0
 10
44.381245
 20
10.089672
 30
0.0
 10
45.000096
 20
9.732332
 30
0.0
  0
SPLINE
  5
161
100
AcDbEntity
  8
Layer_1
 62
7
100
AcDbSpline
 70
8
 71
3
 72
8
 73
4
 74
0
 40
0
 40
0
 40
0
 40
0
 40
1
 40
1
 40
1
 40
1
 10
45.000096
 20
9.732332
 30
0.0
 10
45.618948
 20
9.374991
 30
0.0
 10
46.000119
 20
8.714612
 30
0.0
 10
45.999999
 20
8.000001
 30
0.0
  0
LINE
  5
162
100
AcDbEntity
  8
Layer_1
 62
7
100
AcDbLine
 10
45.999999
 20
8.000001
 30
0.0
 11
45.999999
 21
8.000001
 31
0.0
  0
SPLINE
  5
163
100
AcDbEntity
  8
Layer_1
 62
7
100
AcDbSpline
 70
8
 71
3
 72
8
 73
4
 74
0
 40
0
 40
0
 40
0
 40
0
 40
1
 40
1
 40
1
 40
1
 10
46.000000
 20
18.000001
 30
0.0
 10
46.000120
 20
17.285390
 30
0.0
 10
45.618948
 20
16.625010
 30
0.0
 10
45.000097
 20
16.267670
 30
0.0
  0
SPLINE
  5
164
100
AcDbEntity
  8
Layer_1
 62
7
100
AcDbSpline
 70
8
 71
3
 72
8
 73
4
 74
0
 40
0
 40
0
 40
0
 40
0
 40
1
 40
1
 40
1
 40
1
 10
45.000097
 20
16.267670
 30
0.0
 10
44.381246
 20
15.910330
 30
0.0
 10
43.618755
 20
15.910330
 30
0.0
 10
42.999903
 20
16.267670
 30
0.0
  0
SPLINE
  5
165
100
AcDbEntity
  8
Layer_1
 62
7
100
AcDbSpline
 70
8
 71
3
 72
8
 73
4
 74
0
 40
0
 40
0
 40
0
 40
0
 40
1
 40
1
 40
1
 40
1
 10
42.999903
 20
16.267670
 30
0.0
 10
42.381052
 20
16.625010
 30
0.0
 10
41.999880
 20
17.285390
 30
0.0
 10
42.000000
 20
18.000001
 30
0.0
  0
SPLINE
  5
166
100
AcDbEntity
  8
Layer_1
 62
7
100
AcDbSpline
 70
8
 71
3
 72
8
 73
4
 74
0
 40
0
 40
0
 40
0
 40
0
 40
1
 40
1
 40
1
 40
1
 10
42.000000
 20
18.000001
 30
0.0
 10
41.999880
 20
18.714612
 30
0.0
 10
42.381052
 20
19.374991
 30
0.0
 10
42.999903
 20
19.732331
 30
0.0
  0
SPLINE
  5
167
100
AcDbEntity
  8
Layer_1
 62
7
100
AcDbSpline
 70
8
 71
3
 72
8
 73
4
 74
0
 40
0
 40
0
 40
0
 40
0
 40
1
 40
1
 40
1
 40
1
 10
42.999903
 20
19.732331
 30
0.0
 10
43.618755
 20
20.089672
 30
0.0
 10
44.381246
 20
20.089672
 30
0.0
 10
45.000097
 20
19.732331
 30
0.0
  0
SPLINE
  5
168
100
AcDbEntity
  8
Layer_1
 62
7
100
AcDbSpline
 70
8
 71
3
 72
8
 73
4
 74
0
 40
0
 40
0
 40
0
 40
0
 40
1
 40
1
 40
1
 40
1
 10
45.000097
 20
19.732331
 30
0.0
 10
45.618948
 20
19.374991
 30
0.0
 10
46.000120
 20
18.714612
 30
0.0
 10
46.000000
 20
18.000001
 30
0.0
  0
LINE
  5
169
100
AcDbEntity
  8
Layer_1
 62
7
100
AcDbLine
 10
46.000000
 20
18.000001
 30
0.0
 11
46.000000
 21
18.000001
 31
0.0
  0
SPLINE
  5
16a
100
AcDbEntity
  8
Layer_1
 62
7
100
AcDbSpline
 70
8
 71
3
 72
8
 73
4
 74
0
 40
0
 40
0
 40
0
 40
0
 40
1
 40
1
 40
1
 40
1
 10
45.999999
 20
28.000000
 30
0.0
 10
46.000119
 20
27.285389
 30
0.0
 10
45.618948
 20
26.625010
 30
0.0
 10
45.000096
 20
26.267670
 30
0.0
  0
SPLINE
  5
16b
100
AcDbEntity
  8
Layer_1
 62
7
100
AcDbSpline
 70
8
 71
3
 72
8
 73
4
 74
0
 40
0
 40
0
 40
0
 40
0
 40
1
 40
1
 40
1
 40
1
 10
45.000096
 20
26.267670
 30
0.0
 10
44.381245
 20
25.910329
 30
0.0
 10
43.618754
 20
25.910329
 30
0.0
 10
42.999903
 20
26.267670
 30
0.0
  0
SPLINE
  5
16c
100
AcDbEntity
  8
Layer_1
 62
7
100
AcDbSpline
 70
8
 71
3
 72
8
 73
4
 74
0
 40
0
 40
0
 40
0
 40
0
 40
1
 40
1
 40
1
 40
1
 10
42.999903
 20
26.267670
 30
0.0
 10
42.381051
 20
26.625010
 30
0.0
 10
41.999879
 20
27.285389
 30
0.0
 10
42.000000
 20
28.000000
 30
0.0
  0
SPLINE
  5
16d
100
AcDbEntity
  8
Layer_1
 62
7
100
AcDbSpline
 70
8
 71
3
 72
8
 73
4
 74
0
 40
0
 40
0
 40
0
 40
0
 40
1
 40
1
 40
1
 40
1
 10
42.000000
 20
28.000000
 30
0.0
 10
41.999879
 20
28.714612
 30
0.0
 10
42.381051
 20
29.374991
 30
0.0
 10
42.999903
 20
29.732331
 30
0.0
  0
SPLINE
  5
16e
100
AcDbEntity
  8
Layer_1
 62
7
100
AcDbSpline
 70
8
 71
3
 72
8
 73
4
 74
0
 40
0
 40
0
 40
0
 40
0
 40
1
 40
1
 40
1
 40
1
 10
42.999903
 20
29.732331
 30
0.0
 10
43.618754
 20
30.089671
 30
0.0
 10
44.381245
 20
30.089671
 30
0.0
 10
45.000096
 20
29.732331
 30
0.0
  0
SPLINE
  5
16f
100
AcDbEntity
  8
Layer_1
 62
7
100
AcDbSpline
 70
8
 71
3
 72
8
 73
4
 74
0
 40
0
 40
0
 40
0
 40
0
 40
1
 40
1
 40
1
 40
1
 10
45.000096
 20
29.732331
 30
0.0
 10
45.618948
 20
29.374991
 30
0.0
 10
46.000119
 20
28.714612
 30
0.0
 10
45.999999
 20
28.000000
 30
0.0
  0
LINE
  5
170
100
AcDbEntity
  8
Layer_1
 62
7
100
AcDbLine
 10
45.999999
 20
28.000000
 30
0.0
 11
45.999999
 21
28.000000
 31
0.0
  0
SPLINE
  5
171
100
AcDbEntity
  8
Layer_1
 62
7
100
AcDbSpline
 70
8
 71
3
 72
8
 73
4
 74
0
 40
0
 40
0
 40
0
 40
0
 40
1
 40
1
 40
1
 40
1
 10
46.000000
 20
38.000000
 30
0.0
 10
46.000120
 20
37.285389
 30
0.0
 10
45.618948
 20
36.625010
 30
0.0
 10
45.000097
 20
36.267669
 30
0.0
  0
SPLINE
  5
172
100
AcDbEntity
  8
Layer_1
 62
7
100
AcDbSpline
 70
8
 71
3
 72
8
 73
4
 74
0
 40
0
 40
0
 40
0
 40
0
 40
1
 40
1
 40
1
 40
1
 10
45.000097
 20
36.267669
 30
0.0
 10
44.381246
 20
35.910329
 30
0.0
 10
43.618755
 20
35.910329
 30
0.0
 10
42.999903
 20
36.267669
 30
0.0
  0
SPLINE
  5
173
100
AcDbEntity
  8
Layer_1
 62
7
100
AcDbSpline
 70
8
 71
3
 72
8
 73
4
 74
0
 40
0
 40
0
 40
0
 40
0
 40
1
 40
1
 40
1
 40
1
 10
42.999903
 20
36.267669
 30
0.0
 10
42.381052
 20
36.625010
 30
0.0
 10
41.999880
 20
37.285389
 30
0.0
 10
42.000000
 20
38.000000
 30
0.0
  0
SPLINE
  5
174
100
AcDbEntity
  8
Layer_1
 62
7
100
AcDbSpline
 70
8
 71
3
 72
8
 73
4
 74
0
 40
0
 40
0
 40
0
 40
0
 40
1
 40
1
 40
1
 40
1
 10
42.000000
 20
38.000000
 30
0.0
 10
41.999880
 20
38.714611
 30
0.0
 10
42.381052
 20
39.374991
 30
0.0
 10
42.999903
 20
39.732331
 30
0.0
  0
SPLINE
  5
175
100
AcDbEntity
  8
Layer_1
 62
7
100
AcDbSpline
 70
8
 71
3
 72
8
 73
4
 74
0
 40
0
 40
0
 40
0
 40
0
 40
1
 40
1
 40
1
 40
1
 10
42.999903
 20
39.732331
 30
0.0
 10
43.618755
 20
40.089671
 30
0.0
 10
44.381246
 20
40.089671
 30
0.0
 10
45.000097
 20
39.732331
 30
0.0
  0
SPLINE
  5
176
100
AcDbEntity
  8
Layer_1
 62
7
100
AcDbSpline
 70
8
 71
3
 72
8
 73
4
 74
0
 40
0
 40
0
 40
0
 40
0
 40
1
 40
1
 40
1
 40
1
 10
45.000097
 20
39.732331
 30
0.0
 10
45.618948
 20
39.374991
 30
0.0
 10
46.000120
 20
38.714611
 30
0.0
 10
46.000000
 20
38.000000
 30
0.0
  0
LINE
  5
177
100
AcDbEntity
  8
Layer_1
 62
7
100
AcDbLine
 10
46.000000
 20
38.000000
 30
0.0
 11
46.000000
 21
38.000000
 31
0.0
  0
SPLINE
  5
178
100
AcDbEntity
  8
Layer_1
 62
7
100
AcDbSpline
 70
8
 71
3
 72
8
 73
4
 74
0
 40
0
 40
0
 40
0
 40
0
 40
1
 40
1
 40
1
 40
1
 10
36.000000
 20
38.000000
 30
0.0
 10
36.000120
 20
37.285389
 30
0.0
 10
35.618948
 20
36.625010
 30
0.0
 10
35.000097
 20
36.267669
 30
0.0
  0
SPLINE
  5
179
100
AcDbEntity
  8
Layer_1
 62
7
100
AcDbSpline
 70
8
 71
3
 72
8
 73
4
 74
0
 40
0
 40
0
 40
0
 40
0
 40
1
 40
1
 40
1
 40
1
 10
35.000097
 20
36.267669
 30
0.0
 10
34.381246
 20
35.910329
 30
0.0
 10
33.618754
 20
35.910329
 30
0.0
 10
32.999903
 20
36.267669
 30
0.0
  0
SPLINE
  5
17a
100
AcDbEntity
  8
Layer_1
 62
7
100
AcDbSpline
 70
8
 71
3
 72
8
 73
4
 74
0
 40
0
 40
0
 40
0
 40
0
 40
1
 40
1
 40
1
 40
1
 10
32.999903
 20
36.267669
 30
0.0
 10
32.381052
 20
36.625010
 30
0.0
 10
31.999880
 20
37.285389
 30
0.0
 10
32.000000
 20
38.000000
 30
0.0
  0
SPLINE
  5
17b
100
AcDbEntity
  8
Layer_1
 62
7
100
AcDbSpline
 70
8
 71
3
 72
8
 73
4
 74
0
 40
0
 40
0
 40
0
 40
0
 40
1
 40
1
 40
1
 40
1
 10
32.000000
 20
38.000000
 30
0.0
 10
31.999880
 20
38.714611
 30
0.0
 10
32.381052
 20
39.374991
 30
0.0
 10
32.999903
 20
39.732331
 30
0.0
  0
SPLINE
  5
17c
100
AcDbEntity
  8
Layer_1
 62
7
100
AcDbSpline
 70
8
 71
3
 72
8
 73
4
 74
0
 40
0
 40
0
 40
0
 40
0
 40
1
 40
1
 40
1
 40
1
 10
32.999903
 20
39.732331
 30
0.0
 10
33.618754
 20
40.089671
 30
0.0
 10
34.381246
 20
40.089671
 30
0.0
 10
35.000097
 20
39.732331
 30
0.0
  0
SPLINE
  5
17d
100
AcDbEntity
  8
Layer_1
 62
7
100
AcDbSpline
 70
8
 71
3
 72
8
 73
4
 74
0
 40
0
 40
0
 40
0
 40
0
 40
1
 40
1
 40
1
 40
1
 10
35.000097
 20
39.732331
 30
0.0
 10
35.618948
 20
39.374991
 30
0.0
 10
36.000120
 20
38.714611
 30
0.0
 10
36.000000
 20
38.000000
 30
0.0
  0
LINE
  5
17e
100
AcDbEntity
  8
Layer_1
 62
7
100
AcDbLine
 10
36.000000
 20
38.000000
 30
0.0
 11
36.000000
 21
38.000000
 31
0.0
  0
SPLINE
  5
17f
100
AcDbEntity
  8
Layer_1
 62
7
100
AcDbSpline
 70
8
 71
3
 72
8
 73
4
 74
0
 40
0
 40
0
 40
0
 40
0
 40
1
 40
1
 40
1
 40
1
 10
26.000000
 20
38.000000
 30
0.0
 10
26.000120
 20
37.285389
 30
0.0
 10
25.618948
 20
36.625010
 30
0.0
 10
25.000097
 20
36.267669
 30
0.0
  0
SPLINE
  5
180
100
AcDbEntity
  8
Layer_1
 62
7
100
AcDbSpline
 70
8
 71
3
 72
8
 73
4
 74
0
 40
0
 40
0
 40
0
 40
0
 40
1
 40
1
 40
1
 40
1
 10
25.000097
 20
36.267669
 30
0.0
 10
24.381246
 20
35.910329
 30
0.0
 10
23.618754
 20
35.910329
 30
0.0
 10
22.999903
 20
36.267669
 30
0.0
  0
SPLINE
  5
181
100
AcDbEntity
  8
Layer_1
 62
7
100
AcDbSpline
 70
8
 71
3
 72
8
 73
4
 74
0
 40
0
 40
0
 40
0
 40
0
 40
1
 40
1
 40
1
 40
1
 10
22.999903
 20
36.267669
 30
0.0
 10
22.381052
 20
36.625010
 30
0.0
 10
21.999880
 20
37.285389
 30
0.0
 10
22.000000
 20
38.000000
 30
0.0
  0
SPLINE
  5
182
100
AcDbEntity
  8
Layer_1
 62
7
100
AcDbSpline
 70
8
 71
3
 72
8
 73
4
 74
0
 40
0
 40
0
 40
0
 40
0
 40
1
 40
1
 40
1
 40
1
 10
22.000000
 20
38.000000
 30
0.0
 10
21.999880
 20
38.714611
 30
0.0
 10
22.381052
 20
39.374991
 30
0.0
 10
22.999903
 20
39.732331
 30
0.0
  0
SPLINE
  5
183
100
AcDbEntity
  8
Layer_1
 62
7
100
AcDbSpline
 70
8
 71
3
 72
8
 73
4
 74
0
 40
0
 40
0
 40
0
 40
0
 40
1
 40
1
 40
1
 40
1
 10
22.999903
 20
39.732331
 30
0.0
 10
23.618754
 20
40.089671
 30
0.0
 10
24.381246
 20
40.089671
 30
0.0
 10
25.000097
 20
39.732331
 30
0.0
  0
SPLINE
  5
184
100
AcDbEntity
  8
Layer_1
 62
7
100
AcDbSpline
 70
8
 71
3
 72
8
 73
4
 74
0
 40
0
 40
0
 40
0
 40
0
 40
1
 40
1
 40
1
 40
1
 10
25.000097
 20
39.732331
 30
0.0
 10
25.618948
 20
39.374991
 30
0.0
 10
26.000120
 20
38.714611
 30
0.0
 10
26.000000
 20
38.000000
 30
0.0
  0
LINE
  5
185
100
AcDbEntity
  8
Layer_1
 62
7
100
AcDbLine
 10
26.000000
 20
38.000000
 30
0.0
 11
26.000000
 21
38.000000
 31
0.0
  0
ENDSEC
  0
SECTION
  2
OBJECTS
  0
DICTIONARY
  5
C
330
0
100
AcDbDictionary
  3
ACAD_GROUP
350
D
  3
ACAD_MLINESTYLE
350
17
  0
DICTIONARY
  5
D
330
C
100
AcDbDictionary
  0
DICTIONARY
  5
1A
330
C
100
AcDbDictionary
  0
DICTIONARY
  5
17
330
C
100
AcDbDictionary
  3
STANDARD
350
18
  0
DICTIONARY
  5
19
330
C
100
AcDbDictionary
  0
ENDSEC
  0
EOF
