  0
SECTION
  2
HEADER
  9
$ACADVER
  1
AC1014
  9
$HANDSEED
  5
FFFF
  9
$MEASUREMENT
 70
     1
  0
ENDSEC
  0
SECTION
  2
TABLES
  0
TABLE
  2
VPORT
  5
8
330
0
100
AcDbSymbolTable
 70
     4
  0
VPORT
  5
2E
330
8
100
AcDbSymbolTableRecord
100
AcDbViewportTableRecord
  2
*ACTIVE
 70
     0
 10
0.0
 20
0.0
 11
1.0
 21
1.0
 12
210.0
 22
148.5
 13
0.0
 23
0.0
 14
10.0
 24
10.0
 15
10.0
 25
10.0
 16
0.0
 26
0.0
 36
1.0
 17
0.0
 27
0.0
 37
0.0
 40
341.0
 41
1.24
 42
50.0
 43
0.0
 44
0.0
 50
0.0
 51
0.0
 71
     0
 72
   100
 73
     1
 74
     3
 75
     0
 76
     0
 77
     0
 78
     0
  0
ENDTAB
  0
TABLE
  2
LTYPE
  5
5
330
0
100
AcDbSymbolTable
 70
     1
  0
LTYPE
  5
14
330
5
100
AcDbSymbolTableRecord
100
AcDbLinetypeTableRecord
  2
BYBLOCK
 70
     0
  3

 72
    65
 73
     0
 40
0.0
  0
LTYPE
  5
15
330
5
100
AcDbSymbolTableRecord
100
AcDbLinetypeTableRecord
  2
BYLAYER
 70
     0
  3

 72
    65
 73
     0
 40
0.0
  0
LTYPE
  5
16
330
5
100
AcDbSymbolTableRecord
100
AcDbLinetypeTableRecord
  2
CONTINUOUS
 70
     0
  3
Solid line
 72
    65
 73
     0
 40
0.0
  0
ENDTAB
  0
TABLE
  2
LAYER
  5
2
100
AcDbSymbolTable
 70
2
  0
LAYER
  5
50
100
AcDbSymbolTableRecord
100
AcDbLayerTableRecord
  2
0
 70
0
  6
CONTINUOUS
  0
LAYER
  5
51
100
AcDbSymbolTableRecord
100
AcDbLayerTableRecord
  2
Layer_1
 70
0
  6
CONTINUOUS
  0
ENDTAB
  0
TABLE
  2
STYLE
  5
3
330
0
100
AcDbSymbolTable
 70
     1
  0
STYLE
  5
11
330
3
100
AcDbSymbolTableRecord
100
AcDbTextStyleTableRecord
  2
STANDARD
 70
     0
 40
0.0
 41
1.0
 50
0.0
 71
     0
 42
2.5
  3
txt
  4

  0
ENDTAB
  0
TABLE
  2
VIEW
  5
6
330
0
100
AcDbSymbolTable
 70
     0
  0
ENDTAB
  0
TABLE
  2
UCS
  5
7
330
0
100
AcDbSymbolTable
 70
     0
  0
ENDTAB
  0
TABLE
  2
APPID
  5
9
330
0
100
AcDbSymbolTable
 70
     2
  0
APPID
  5
12
330
9
100
AcDbSymbolTableRecord
100
AcDbRegAppTableRecord
  2
ACAD
 70
     0
  0
ENDTAB
  0
TABLE
  2
DIMSTYLE
  5
A
330
0
100
AcDbSymbolTable
 70
     1
  0
DIMSTYLE
105
27
330
A
100
AcDbSymbolTableRecord
100
AcDbDimStyleTableRecord
  2
ISO-25
 70
     0
  3

  4

  5

  6

  7

 40
1.0
 41
2.5
 42
0.625
 43
3.75
 44
1.25
 45
0.0
 46
0.0
 47
0.0
 48
0.0
140
2.5
141
2.5
142
0.0
143
0.03937007874016
144
1.0
145
0.0
146
1.0
147
0.625
 71
     0
 72
     0
 73
     0
 74
     0
 75
     0
 76
     0
 77
     1
 78
     8
170
     0
171
     3
172
     1
173
     0
174
     0
175
     0
176
     0
177
     0
178
     0
270
     2
271
     2
272
     2
273
     2
274
     3
340
11
275
     0
280
     0
281
     0
282
     0
283
     0
284
     8
285
     0
286
     0
287
     3
288
     0
  0
ENDTAB
  0
TABLE
  2
BLOCK_RECORD
  5
1
330
0
100
AcDbSymbolTable
 70
     1
  0
BLOCK_RECORD
  5
1F
330
1
100
AcDbSymbolTableRecord
100
AcDbBlockTableRecord
  2
*MODEL_SPACE
  0
BLOCK_RECORD
  5
1B
330
1
100
AcDbSymbolTableRecord
100
AcDbBlockTableRecord
  2
*PAPER_SPACE
  0
ENDTAB
  0
ENDSEC
  0
SECTION
  2
BLOCKS
  0
BLOCK
  5
20
330
1F
100
AcDbEntity
  8
0
100
AcDbBlockBegin
  2
*MODEL_SPACE
 70
     0
 10
0.0
 20
0.0
 30
0.0
  3
*MODEL_SPACE
  1

  0
ENDBLK
  5
21
330
1F
100
AcDbEntity
  8
0
100
AcDbBlockEnd
  0
BLOCK
  5
1C
330
1B
100
AcDbEntity
 67
     1
  8
0
100
AcDbBlockBegin
  2
*PAPER_SPACE
  1

  0
ENDBLK
  5
1D
330
1B
100
AcDbEntity
 67
     1
  8
0
100
AcDbBlockEnd
  0
ENDSEC
  0
SECTION
  2
ENTITIES
  0
LINE
  5
100
100
AcDbEntity
  8
Layer_1
 62
7
100
AcDbLine
 10
114.112102
 20
164.000002
 30
0.0
 11
195.887899
 21
164.000002
 31
0.0
  0
SPLINE
  5
101
100
AcDbEntity
  8
Layer_1
 62
7
100
AcDbSpline
 70
8
 71
3
 72
8
 73
4
 74
0
 40
0
 40
0
 40
0
 40
0
 40
1
 40
1
 40
1
 40
1
 10
195.887899
 20
164.000002
 30
0.0
 10
198.166002
 20
164.000002
 30
0.0
 10
199.999998
 20
162.166009
 30
0.0
 10
199.999998
 20
159.887906
 30
0.0
  0
LINE
  5
102
100
AcDbEntity
  8
Layer_1
 62
7
100
AcDbLine
 10
199.999998
 20
159.887906
 30
0.0
 11
199.999998
 21
94.094139
 31
0.0
  0
SPLINE
  5
103
100
AcDbEntity
  8
Layer_1
 62
7
100
AcDbSpline
 70
8
 71
3
 72
8
 73
4
 74
0
 40
0
 40
0
 40
0
 40
0
 40
1
 40
1
 40
1
 40
1
 10
199.999998
 20
94.094139
 30
0.0
 10
199.999998
 20
91.816036
 30
0.0
 10
198.166002
 20
89.982040
 30
0.0
 10
195.887899
 20
89.982040
 30
0.0
  0
LINE
  5
104
100
AcDbEntity
  8
Layer_1
 62
7
100
AcDbLine
 10
195.887899
 20
89.982040
 30
0.0
 11
114.112102
 21
89.982040
 31
0.0
  0
SPLINE
  5
105
100
AcDbEntity
  8
Layer_1
 62
7
100
AcDbSpline
 70
8
 71
3
 72
8
 73
4
 74
0
 40
0
 40
0
 40
0
 40
0
 40
1
 40
1
 40
1
 40
1
 10
114.112102
 20
89.982040
 30
0.0
 10
111.833999
 20
89.982040
 30
0.0
 10
110.000003
 20
91.816036
 30
0.0
 10
110.000003
 20
94.094139
 30
0.0
  0
LINE
  5
106
100
AcDbEntity
  8
Layer_1
 62
7
100
AcDbLine
 10
110.000003
 20
94.094139
 30
0.0
 11
110.000003
 21
159.887906
 31
0.0
  0
SPLINE
  5
107
100
AcDbEntity
  8
Layer_1
 62
7
100
AcDbSpline
 70
8
 71
3
 72
8
 73
4
 74
0
 40
0
 40
0
 40
0
 40
0
 40
1
 40
1
 40
1
 40
1
 10
110.000003
 20
159.887906
 30
0.0
 10
110.000003
 20
162.166009
 30
0.0
 10
111.833999
 20
164.000002
 30
0.0
 10
114.112102
 20
164.000002
 30
0.0
  0
LINE
  5
108
100
AcDbEntity
  8
Layer_1
 62
7
100
AcDbLine
 10
114.112102
 20
164.000002
 30
0.0
 11
114.112102
 21
164.000002
 31
0.0
  0
SPLINE
  5
109
100
AcDbEntity
  8
Layer_1
 62
1
100
AcDbSpline
 70
8
 71
3
 72
8
 73
4
 74
0
 40
0
 40
0
 40
0
 40
0
 40
1
 40
1
 40
1
 40
1
 10
114.000000
 20
145.999997
 30
0.0
 10
114.000000
 20
145.171572
 30
0.0
 10
113.328428
 20
144.500000
 30
0.0
 10
112.500000
 20
144.500000
 30
0.0
  0
SPLINE
  5
10a
100
AcDbEntity
  8
Layer_1
 62
1
100
AcDbSpline
 70
8
 71
3
 72
8
 73
4
 74
0
 40
0
 40
0
 40
0
 40
0
 40
1
 40
1
 40
1
 40
1
 10
112.500000
 20
144.500000
 30
0.0
 10
111.671573
 20
144.500000
 30
0.0
 10
111.000000
 20
145.171572
 30
0.0
 10
111.000000
 20
145.999997
 30
0.0
  0
SPLINE
  5
10b
100
AcDbEntity
  8
Layer_1
 62
1
100
AcDbSpline
 70
8
 71
3
 72
8
 73
4
 74
0
 40
0
 40
0
 40
0
 40
0
 40
1
 40
1
 40
1
 40
1
 10
111.000000
 20
145.999997
 30
0.0
 10
111.000000
 20
146.828427
 30
0.0
 10
111.671573
 20
147.499999
 30
0.0
 10
112.500000
 20
147.499999
 30
0.0
  0
SPLINE
  5
10c
100
AcDbEntity
  8
Layer_1
 62
1
100
AcDbSpline
 70
8
 71
3
 72
8
 73
4
 74
0
 40
0
 40
0
 40
0
 40
0
 40
1
 40
1
 40
1
 40
1
 10
112.500000
 20
147.499999
 30
0.0
 10
113.328428
 20
147.499999
 30
0.0
 10
114.000000
 20
146.828427
 30
0.0
 10
114.000000
 20
145.999997
 30
0.0
  0
LINE
  5
10d
100
AcDbEntity
  8
Layer_1
 62
1
100
AcDbLine
 10
114.000000
 20
145.999997
 30
0.0
 11
114.000000
 21
145.999997
 31
0.0
  0
SPLINE
  5
10e
100
AcDbEntity
  8
Layer_1
 62
1
100
AcDbSpline
 70
8
 71
3
 72
8
 73
4
 74
0
 40
0
 40
0
 40
0
 40
0
 40
1
 40
1
 40
1
 40
1
 10
114.000000
 20
117.999997
 30
0.0
 10
114.000000
 20
117.171572
 30
0.0
 10
113.328428
 20
116.500000
 30
0.0
 10
112.500000
 20
116.500000
 30
0.0
  0
SPLINE
  5
10f
100
AcDbEntity
  8
Layer_1
 62
1
100
AcDbSpline
 70
8
 71
3
 72
8
 73
4
 74
0
 40
0
 40
0
 40
0
 40
0
 40
1
 40
1
 40
1
 40
1
 10
112.500000
 20
116.500000
 30
0.0
 10
111.671573
 20
116.500000
 30
0.0
 10
111.000000
 20
117.171572
 30
0.0
 10
111.000000
 20
117.999997
 30
0.0
  0
SPLINE
  5
110
100
AcDbEntity
  8
Layer_1
 62
1
100
AcDbSpline
 70
8
 71
3
 72
8
 73
4
 74
0
 40
0
 40
0
 40
0
 40
0
 40
1
 40
1
 40
1
 40
1
 10
111.000000
 20
117.999997
 30
0.0
 10
111.000000
 20
118.828426
 30
0.0
 10
111.671573
 20
119.499998
 30
0.0
 10
112.500000
 20
119.499998
 30
0.0
  0
SPLINE
  5
111
100
AcDbEntity
  8
Layer_1
 62
1
100
AcDbSpline
 70
8
 71
3
 72
8
 73
4
 74
0
 40
0
 40
0
 40
0
 40
0
 40
1
 40
1
 40
1
 40
1
 10
112.500000
 20
119.499998
 30
0.0
 10
113.328428
 20
119.499998
 30
0.0
 10
114.000000
 20
118.828426
 30
0.0
 10
114.000000
 20
117.999997
 30
0.0
  0
LINE
  5
112
100
AcDbEntity
  8
Layer_1
 62
1
100
AcDbLine
 10
114.000000
 20
117.999997
 30
0.0
 11
114.000000
 21
117.999997
 31
0.0
  0
SPLINE
  5
113
100
AcDbEntity
  8
Layer_1
 62
1
100
AcDbSpline
 70
8
 71
3
 72
8
 73
4
 74
0
 40
0
 40
0
 40
0
 40
0
 40
1
 40
1
 40
1
 40
1
 10
165.000000
 20
151.499998
 30
0.0
 10
165.000000
 20
150.671572
 30
0.0
 10
164.328427
 20
150.000001
 30
0.0
 10
163.500000
 20
150.000001
 30
0.0
  0
SPLINE
  5
114
100
AcDbEntity
  8
Layer_1
 62
1
100
AcDbSpline
 70
8
 71
3
 72
8
 73
4
 74
0
 40
0
 40
0
 40
0
 40
0
 40
1
 40
1
 40
1
 40
1
 10
163.500000
 20
150.000001
 30
0.0
 10
162.671573
 20
150.000001
 30
0.0
 10
162.000000
 20
150.671572
 30
0.0
 10
162.000000
 20
151.499998
 30
0.0
  0
SPLINE
  5
115
100
AcDbEntity
  8
Layer_1
 62
1
100
AcDbSpline
 70
8
 71
3
 72
8
 73
4
 74
0
 40
0
 40
0
 40
0
 40
0
 40
1
 40
1
 40
1
 40
1
 10
162.000000
 20
151.499998
 30
0.0
 10
162.000000
 20
152.328427
 30
0.0
 10
162.671573
 20
152.999999
 30
0.0
 10
163.500000
 20
152.999999
 30
0.0
  0
SPLINE
  5
116
100
AcDbEntity
  8
Layer_1
 62
1
100
AcDbSpline
 70
8
 71
3
 72
8
 73
4
 74
0
 40
0
 40
0
 40
0
 40
0
 40
1
 40
1
 40
1
 40
1
 10
163.500000
 20
152.999999
 30
0.0
 10
164.328427
 20
152.999999
 30
0.0
 10
165.000000
 20
152.328427
 30
0.0
 10
165.000000
 20
151.499998
 30
0.0
  0
LINE
  5
117
100
AcDbEntity
  8
Layer_1
 62
1
100
AcDbLine
 10
165.000000
 20
151.499998
 30
0.0
 11
165.000000
 21
151.499998
 31
0.0
  0
SPLINE
  5
118
100
AcDbEntity
  8
Layer_1
 62
1
100
AcDbSpline
 70
8
 71
3
 72
8
 73
4
 74
0
 40
0
 40
0
 40
0
 40
0
 40
1
 40
1
 40
1
 40
1
 10
165.000000
 20
102.500000
 30
0.0
 10
165.000000
 20
101.671574
 30
0.0
 10
164.328427
 20
101.000003
 30
0.0
 10
163.500000
 20
101.000003
 30
0.0
  0
SPLINE
  5
119
100
AcDbEntity
  8
Layer_1
 62
1
100
AcDbSpline
 70
8
 71
3
 72
8
 73
4
 74
0
 40
0
 40
0
 40
0
 40
0
 40
1
 40
1
 40
1
 40
1
 10
163.500000
 20
101.000003
 30
0.0
 10
162.671573
 20
101.000003
 30
0.0
 10
162.000000
 20
101.671574
 30
0.0
 10
162.000000
 20
102.500000
 30
0.0
  0
SPLINE
  5
11a
100
AcDbEntity
  8
Layer_1
 62
1
100
AcDbSpline
 70
8
 71
3
 72
8
 73
4
 74
0
 40
0
 40
0
 40
0
 40
0
 40
1
 40
1
 40
1
 40
1
 10
162.000000
 20
102.500000
 30
0.0
 10
162.000000
 20
103.328429
 30
0.0
 10
162.671573
 20
104.000001
 30
0.0
 10
163.500000
 20
104.000001
 30
0.0
  0
SPLINE
  5
11b
100
AcDbEntity
  8
Layer_1
 62
1
100
AcDbSpline
 70
8
 71
3
 72
8
 73
4
 74
0
 40
0
 40
0
 40
0
 40
0
 40
1
 40
1
 40
1
 40
1
 10
163.500000
 20
104.000001
 30
0.0
 10
164.328427
 20
104.000001
 30
0.0
 10
165.000000
 20
103.328429
 30
0.0
 10
165.000000
 20
102.500000
 30
0.0
  0
LINE
  5
11c
100
AcDbEntity
  8
Layer_1
 62
1
100
AcDbLine
 10
165.000000
 20
102.500000
 30
0.0
 11
165.000000
 21
102.500000
 31
0.0
  0
SPLINE
  5
11d
100
AcDbEntity
  8
Layer_1
 62
7
100
AcDbSpline
 70
8
 71
3
 72
8
 73
4
 74
0
 40
0
 40
0
 40
0
 40
0
 40
1
 40
1
 40
1
 40
1
 10
154.999998
 20
156.976249
 30
0.0
 10
153.885687
 20
156.976249
 30
0.0
 10
152.982360
 20
157.882313
 30
0.0
 10
152.982360
 20
159.000000
 30
0.0
  0
SPLINE
  5
11e
100
AcDbEntity
  8
Layer_1
 62
7
100
AcDbSpline
 70
8
 71
3
 72
8
 73
4
 74
0
 40
0
 40
0
 40
0
 40
0
 40
1
 40
1
 40
1
 40
1
 10
152.982360
 20
159.000000
 30
0.0
 10
152.982360
 20
160.117686
 30
0.0
 10
153.885687
 20
161.023750
 30
0.0
 10
154.999998
 20
161.023750
 30
0.0
  0
SPLINE
  5
11f
100
AcDbEntity
  8
Layer_1
 62
7
100
AcDbSpline
 70
8
 71
3
 72
8
 73
4
 74
0
 40
0
 40
0
 40
0
 40
0
 40
1
 40
1
 40
1
 40
1
 10
154.999998
 20
161.023750
 30
0.0
 10
156.114309
 20
161.023750
 30
0.0
 10
157.017635
 20
160.117686
 30
0.0
 10
157.017635
 20
159.000000
 30
0.0
  0
SPLINE
  5
120
100
AcDbEntity
  8
Layer_1
 62
7
100
AcDbSpline
 70
8
 71
3
 72
8
 73
4
 74
0
 40
0
 40
0
 40
0
 40
0
 40
1
 40
1
 40
1
 40
1
 10
157.017635
 20
159.000000
 30
0.0
 10
157.017635
 20
157.882313
 30
0.0
 10
156.114309
 20
156.976249
 30
0.0
 10
154.999998
 20
156.976249
 30
0.0
  0
LINE
  5
121
100
AcDbEntity
  8
Layer_1
 62
7
100
AcDbLine
 10
154.999998
 20
156.976249
 30
0.0
 11
154.999998
 21
156.976249
 31
0.0
  0
SPLINE
  5
122
100
AcDbEntity
  8
Layer_1
 62
7
100
AcDbSpline
 70
8
 71
3
 72
8
 73
4
 74
0
 40
0
 40
0
 40
0
 40
0
 40
1
 40
1
 40
1
 40
1
 10
144.961782
 20
156.936114
 30
0.0
 10
143.847471
 20
156.936114
 30
0.0
 10
142.944144
 20
157.842178
 30
0.0
 10
142.944144
 20
158.959865
 30
0.0
  0
SPLINE
  5
123
100
AcDbEntity
  8
Layer_1
 62
7
100
AcDbSpline
 70
8
 71
3
 72
8
 73
4
 74
0
 40
0
 40
0
 40
0
 40
0
 40
1
 40
1
 40
1
 40
1
 10
142.944144
 20
158.959865
 30
0.0
 10
142.944144
 20
160.077551
 30
0.0
 10
143.847471
 20
160.983615
 30
0.0
 10
144.961782
 20
160.983615
 30
0.0
  0
SPLINE
  5
124
100
AcDbEntity
  8
Layer_1
 62
7
100
AcDbSpline
 70
8
 71
3
 72
8
 73
4
 74
0
 40
0
 40
0
 40
0
 40
0
 40
1
 40
1
 40
1
 40
1
 10
144.961782
 20
160.983615
 30
0.0
 10
146.076093
 20
160.983615
 30
0.0
 10
146.979420
 20
160.077551
 30
0.0
 10
146.979420
 20
158.959865
 30
0.0
  0
SPLINE
  5
125
100
AcDbEntity
  8
Layer_1
 62
7
100
AcDbSpline
 70
8
 71
3
 72
8
 73
4
 74
0
 40
0
 40
0
 40
0
 40
0
 40
1
 40
1
 40
1
 40
1
 10
146.979420
 20
158.959865
 30
0.0
 10
146.979420
 20
157.842178
 30
0.0
 10
146.076093
 20
156.936114
 30
0.0
 10
144.961782
 20
156.936114
 30
0.0
  0
LINE
  5
126
100
AcDbEntity
  8
Layer_1
 62
7
100
AcDbLine
 10
144.961782
 20
156.936114
 30
0.0
 11
144.961782
 21
156.936114
 31
0.0
  0
SPLINE
  5
127
100
AcDbEntity
  8
Layer_1
 62
7
100
AcDbSpline
 70
8
 71
3
 72
8
 73
4
 74
0
 40
0
 40
0
 40
0
 40
0
 40
1
 40
1
 40
1
 40
1
 10
114.999999
 20
156.976249
 30
0.0
 10
113.885688
 20
156.976249
 30
0.0
 10
112.982361
 20
157.882313
 30
0.0
 10
112.982361
 20
159.000000
 30
0.0
  0
SPLINE
  5
128
100
AcDbEntity
  8
Layer_1
 62
7
100
AcDbSpline
 70
8
 71
3
 72
8
 73
4
 74
0
 40
0
 40
0
 40
0
 40
0
 40
1
 40
1
 40
1
 40
1
 10
112.982361
 20
159.000000
 30
0.0
 10
112.982361
 20
160.117686
 30
0.0
 10
113.885688
 20
161.023750
 30
0.0
 10
114.999999
 20
161.023750
 30
0.0
  0
SPLINE
  5
129
100
AcDbEntity
  8
Layer_1
 62
7
100
AcDbSpline
 70
8
 71
3
 72
8
 73
4
 74
0
 40
0
 40
0
 40
0
 40
0
 40
1
 40
1
 40
1
 40
1
 10
114.999999
 20
161.023750
 30
0.0
 10
116.114309
 20
161.023750
 30
0.0
 10
117.017636
 20
160.117686
 30
0.0
 10
117.017636
 20
159.000000
 30
0.0
  0
SPLINE
  5
12a
100
AcDbEntity
  8
Layer_1
 62
7
100
AcDbSpline
 70
8
 71
3
 72
8
 73
4
 74
0
 40
0
 40
0
 40
0
 40
0
 40
1
 40
1
 40
1
 40
1
 10
117.017636
 20
159.000000
 30
0.0
 10
117.017636
 20
157.882313
 30
0.0
 10
116.114309
 20
156.976249
 30
0.0
 10
114.999999
 20
156.976249
 30
0.0
  0
LINE
  5
12b
100
AcDbEntity
  8
Layer_1
 62
7
100
AcDbLine
 10
114.999999
 20
156.976249
 30
0.0
 11
114.999999
 21
156.976249
 31
0.0
  0
SPLINE
  5
12c
100
AcDbEntity
  8
Layer_1
 62
7
100
AcDbSpline
 70
8
 71
3
 72
8
 73
4
 74
0
 40
0
 40
0
 40
0
 40
0
 40
1
 40
1
 40
1
 40
1
 10
134.999998
 20
156.976249
 30
0.0
 10
133.885687
 20
156.976249
 30
0.0
 10
132.982360
 20
157.882313
 30
0.0
 10
132.982360
 20
159.000000
 30
0.0
  0
SPLINE
  5
12d
100
AcDbEntity
  8
Layer_1
 62
7
100
AcDbSpline
 70
8
 71
3
 72
8
 73
4
 74
0
 40
0
 40
0
 40
0
 40
0
 40
1
 40
1
 40
1
 40
1
 10
132.982360
 20
159.000000
 30
0.0
 10
132.982360
 20
160.117686
 30
0.0
 10
133.885687
 20
161.023750
 30
0.0
 10
134.999998
 20
161.023750
 30
0.0
  0
SPLINE
  5
12e
100
AcDbEntity
  8
Layer_1
 62
7
100
AcDbSpline
 70
8
 71
3
 72
8
 73
4
 74
0
 40
0
 40
0
 40
0
 40
0
 40
1
 40
1
 40
1
 40
1
 10
134.999998
 20
161.023750
 30
0.0
 10
136.114309
 20
161.023750
 30
0.0
 10
137.017636
 20
160.117686
 30
0.0
 10
137.017636
 20
159.000000
 30
0.0
  0
SPLINE
  5
12f
100
AcDbEntity
  8
Layer_1
 62
7
100
AcDbSpline
 70
8
 71
3
 72
8
 73
4
 74
0
 40
0
 40
0
 40
0
 40
0
 40
1
 40
1
 40
1
 40
1
 10
137.017636
 20
159.000000
 30
0.0
 10
137.017636
 20
157.882313
 30
0.0
 10
136.114309
 20
156.976249
 30
0.0
 10
134.999998
 20
156.976249
 30
0.0
  0
LINE
  5
130
100
AcDbEntity
  8
Layer_1
 62
7
100
AcDbLine
 10
134.999998
 20
156.976249
 30
0.0
 11
134.999998
 21
156.976249
 31
0.0
  0
SPLINE
  5
131
100
AcDbEntity
  8
Layer_1
 62
7
100
AcDbSpline
 70
8
 71
3
 72
8
 73
4
 74
0
 40
0
 40
0
 40
0
 40
0
 40
1
 40
1
 40
1
 40
1
 10
124.999998
 20
156.976249
 30
0.0
 10
123.885687
 20
156.976249
 30
0.0
 10
122.982361
 20
157.882313
 30
0.0
 10
122.982361
 20
159.000000
 30
0.0
  0
SPLINE
  5
132
100
AcDbEntity
  8
Layer_1
 62
7
100
AcDbSpline
 70
8
 71
3
 72
8
 73
4
 74
0
 40
0
 40
0
 40
0
 40
0
 40
1
 40
1
 40
1
 40
1
 10
122.982361
 20
159.000000
 30
0.0
 10
122.982361
 20
160.117686
 30
0.0
 10
123.885687
 20
161.023750
 30
0.0
 10
124.999998
 20
161.023750
 30
0.0
  0
SPLINE
  5
133
100
AcDbEntity
  8
Layer_1
 62
7
100
AcDbSpline
 70
8
 71
3
 72
8
 73
4
 74
0
 40
0
 40
0
 40
0
 40
0
 40
1
 40
1
 40
1
 40
1
 10
124.999998
 20
161.023750
 30
0.0
 10
126.114309
 20
161.023750
 30
0.0
 10
127.017636
 20
160.117686
 30
0.0
 10
127.017636
 20
159.000000
 30
0.0
  0
SPLINE
  5
134
100
AcDbEntity
  8
Layer_1
 62
7
100
AcDbSpline
 70
8
 71
3
 72
8
 73
4
 74
0
 40
0
 40
0
 40
0
 40
0
 40
1
 40
1
 40
1
 40
1
 10
127.017636
 20
159.000000
 30
0.0
 10
127.017636
 20
157.882313
 30
0.0
 10
126.114309
 20
156.976249
 30
0.0
 10
124.999998
 20
156.976249
 30
0.0
  0
LINE
  5
135
100
AcDbEntity
  8
Layer_1
 62
7
100
AcDbLine
 10
124.999998
 20
156.976249
 30
0.0
 11
124.999998
 21
156.976249
 31
0.0
  0
SPLINE
  5
136
100
AcDbEntity
  8
Layer_1
 62
7
100
AcDbSpline
 70
8
 71
3
 72
8
 73
4
 74
0
 40
0
 40
0
 40
0
 40
0
 40
1
 40
1
 40
1
 40
1
 10
175.038216
 20
157.016384
 30
0.0
 10
173.923905
 20
157.016384
 30
0.0
 10
173.020578
 20
157.922448
 30
0.0
 10
173.020578
 20
159.040134
 30
0.0
  0
SPLINE
  5
137
100
AcDbEntity
  8
Layer_1
 62
7
100
AcDbSpline
 70
8
 71
3
 72
8
 73
4
 74
0
 40
0
 40
0
 40
0
 40
0
 40
1
 40
1
 40
1
 40
1
 10
173.020578
 20
159.040134
 30
0.0
 10
173.020578
 20
160.157821
 30
0.0
 10
173.923905
 20
161.063885
 30
0.0
 10
175.038216
 20
161.063885
 30
0.0
  0
SPLINE
  5
138
100
AcDbEntity
  8
Layer_1
 62
7
100
AcDbSpline
 70
8
 71
3
 72
8
 73
4
 74
0
 40
0
 40
0
 40
0
 40
0
 40
1
 40
1
 40
1
 40
1
 10
175.038216
 20
161.063885
 30
0.0
 10
176.152527
 20
161.063885
 30
0.0
 10
177.055853
 20
160.157821
 30
0.0
 10
177.055853
 20
159.040134
 30
0.0
  0
SPLINE
  5
139
100
AcDbEntity
  8
Layer_1
 62
7
100
AcDbSpline
 70
8
 71
3
 72
8
 73
4
 74
0
 40
0
 40
0
 40
0
 40
0
 40
1
 40
1
 40
1
 40
1
 10
177.055853
 20
159.040134
 30
0.0
 10
177.055853
 20
157.922448
 30
0.0
 10
176.152527
 20
157.016384
 30
0.0
 10
175.038216
 20
157.016384
 30
0.0
  0
LINE
  5
13a
100
AcDbEntity
  8
Layer_1
 62
7
100
AcDbLine
 10
175.038216
 20
157.016384
 30
0.0
 11
175.038216
 21
157.016384
 31
0.0
  0
SPLINE
  5
13b
100
AcDbEntity
  8
Layer_1
 62
7
100
AcDbSpline
 70
8
 71
3
 72
8
 73
4
 74
0
 40
0
 40
0
 40
0
 40
0
 40
1
 40
1
 40
1
 40
1
 10
165.000000
 20
156.976249
 30
0.0
 10
163.885689
 20
156.976249
 30
0.0
 10
162.982362
 20
157.882313
 30
0.0
 10
162.982362
 20
159.000000
 30
0.0
  0
SPLINE
  5
13c
100
AcDbEntity
  8
Layer_1
 62
7
100
AcDbSpline
 70
8
 71
3
 72
8
 73
4
 74
0
 40
0
 40
0
 40
0
 40
0
 40
1
 40
1
 40
1
 40
1
 10
162.982362
 20
159.000000
 30
0.0
 10
162.982362
 20
160.117686
 30
0.0
 10
163.885689
 20
161.023750
 30
0.0
 10
165.000000
 20
161.023750
 30
0.0
  0
SPLINE
  5
13d
100
AcDbEntity
  8
Layer_1
 62
7
100
AcDbSpline
 70
8
 71
3
 72
8
 73
4
 74
0
 40
0
 40
0
 40
0
 40
0
 40
1
 40
1
 40
1
 40
1
 10
165.000000
 20
161.023750
 30
0.0
 10
166.114311
 20
161.023750
 30
0.0
 10
167.017638
 20
160.117686
 30
0.0
 10
167.017638
 20
159.000000
 30
0.0
  0
SPLINE
  5
13e
100
AcDbEntity
  8
Layer_1
 62
7
100
AcDbSpline
 70
8
 71
3
 72
8
 73
4
 74
0
 40
0
 40
0
 40
0
 40
0
 40
1
 40
1
 40
1
 40
1
 10
167.017638
 20
159.000000
 30
0.0
 10
167.017638
 20
157.882313
 30
0.0
 10
166.114311
 20
156.976249
 30
0.0
 10
165.000000
 20
156.976249
 30
0.0
  0
LINE
  5
13f
100
AcDbEntity
  8
Layer_1
 62
7
100
AcDbLine
 10
165.000000
 20
156.976249
 30
0.0
 11
165.000000
 21
156.976249
 31
0.0
  0
SPLINE
  5
140
100
AcDbEntity
  8
Layer_1
 62
7
100
AcDbSpline
 70
8
 71
3
 72
8
 73
4
 74
0
 40
0
 40
0
 40
0
 40
0
 40
1
 40
1
 40
1
 40
1
 10
195.038215
 20
157.016384
 30
0.0
 10
193.923904
 20
157.016384
 30
0.0
 10
193.020577
 20
157.922448
 30
0.0
 10
193.020577
 20
159.040134
 30
0.0
  0
SPLINE
  5
141
100
AcDbEntity
  8
Layer_1
 62
7
100
AcDbSpline
 70
8
 71
3
 72
8
 73
4
 74
0
 40
0
 40
0
 40
0
 40
0
 40
1
 40
1
 40
1
 40
1
 10
193.020577
 20
159.040134
 30
0.0
 10
193.020577
 20
160.157821
 30
0.0
 10
193.923904
 20
161.063885
 30
0.0
 10
195.038215
 20
161.063885
 30
0.0
  0
SPLINE
  5
142
100
AcDbEntity
  8
Layer_1
 62
7
100
AcDbSpline
 70
8
 71
3
 72
8
 73
4
 74
0
 40
0
 40
0
 40
0
 40
0
 40
1
 40
1
 40
1
 40
1
 10
195.038215
 20
161.063885
 30
0.0
 10
196.152526
 20
161.063885
 30
0.0
 10
197.055853
 20
160.157821
 30
0.0
 10
197.055853
 20
159.040134
 30
0.0
  0
SPLINE
  5
143
100
AcDbEntity
  8
Layer_1
 62
7
100
AcDbSpline
 70
8
 71
3
 72
8
 73
4
 74
0
 40
0
 40
0
 40
0
 40
0
 40
1
 40
1
 40
1
 40
1
 10
197.055853
 20
159.040134
 30
0.0
 10
197.055853
 20
157.922448
 30
0.0
 10
196.152526
 20
157.016384
 30
0.0
 10
195.038215
 20
157.016384
 30
0.0
  0
LINE
  5
144
100
AcDbEntity
  8
Layer_1
 62
7
100
AcDbLine
 10
195.038215
 20
157.016384
 30
0.0
 11
195.038215
 21
157.016384
 31
0.0
  0
SPLINE
  5
145
100
AcDbEntity
  8
Layer_1
 62
7
100
AcDbSpline
 70
8
 71
3
 72
8
 73
4
 74
0
 40
0
 40
0
 40
0
 40
0
 40
1
 40
1
 40
1
 40
1
 10
185.000000
 20
156.976249
 30
0.0
 10
183.885689
 20
156.976249
 30
0.0
 10
182.982362
 20
157.882313
 30
0.0
 10
182.982362
 20
159.000000
 30
0.0
  0
SPLINE
  5
146
100
AcDbEntity
  8
Layer_1
 62
7
100
AcDbSpline
 70
8
 71
3
 72
8
 73
4
 74
0
 40
0
 40
0
 40
0
 40
0
 40
1
 40
1
 40
1
 40
1
 10
182.982362
 20
159.000000
 30
0.0
 10
182.982362
 20
160.117686
 30
0.0
 10
183.885689
 20
161.023750
 30
0.0
 10
185.000000
 20
161.023750
 30
0.0
  0
SPLINE
  5
147
100
AcDbEntity
  8
Layer_1
 62
7
100
AcDbSpline
 70
8
 71
3
 72
8
 73
4
 74
0
 40
0
 40
0
 40
0
 40
0
 40
1
 40
1
 40
1
 40
1
 10
185.000000
 20
161.023750
 30
0.0
 10
186.114311
 20
161.023750
 30
0.0
 10
187.017637
 20
160.117686
 30
0.0
 10
187.017637
 20
159.000000
 30
0.0
  0
SPLINE
  5
148
100
AcDbEntity
  8
Layer_1
 62
7
100
AcDbSpline
 70
8
 71
3
 72
8
 73
4
 74
0
 40
0
 40
0
 40
0
 40
0
 40
1
 40
1
 40
1
 40
1
 10
187.017637
 20
159.000000
 30
0.0
 10
187.017637
 20
157.882313
 30
0.0
 10
186.114311
 20
156.976249
 30
0.0
 10
185.000000
 20
156.976249
 30
0.0
  0
LINE
  5
149
100
AcDbEntity
  8
Layer_1
 62
7
100
AcDbLine
 10
185.000000
 20
156.976249
 30
0.0
 11
185.000000
 21
156.976249
 31
0.0
  0
SPLINE
  5
14a
100
AcDbEntity
  8
Layer_1
 62
7
100
AcDbSpline
 70
8
 71
3
 72
8
 73
4
 74
0
 40
0
 40
0
 40
0
 40
0
 40
1
 40
1
 40
1
 40
1
 10
154.999998
 20
92.976250
 30
0.0
 10
153.885687
 20
92.976250
 30
0.0
 10
152.982360
 20
93.882314
 30
0.0
 10
152.982360
 20
95.000001
 30
0.0
  0
SPLINE
  5
14b
100
AcDbEntity
  8
Layer_1
 62
7
100
AcDbSpline
 70
8
 71
3
 72
8
 73
4
 74
0
 40
0
 40
0
 40
0
 40
0
 40
1
 40
1
 40
1
 40
1
 10
152.982360
 20
95.000001
 30
0.0
 10
152.982360
 20
96.117687
 30
0.0
 10
153.885687
 20
97.023751
 30
0.0
 10
154.999998
 20
97.023751
 30
0.0
  0
SPLINE
  5
14c
100
AcDbEntity
  8
Layer_1
 62
7
100
AcDbSpline
 70
8
 71
3
 72
8
 73
4
 74
0
 40
0
 40
0
 40
0
 40
0
 40
1
 40
1
 40
1
 40
1
 10
154.999998
 20
97.023751
 30
0.0
 10
156.114309
 20
97.023751
 30
0.0
 10
157.017635
 20
96.117687
 30
0.0
 10
157.017635
 20
95.000001
 30
0.0
  0
SPLINE
  5
14d
100
AcDbEntity
  8
Layer_1
 62
7
100
AcDbSpline
 70
8
 71
3
 72
8
 73
4
 74
0
 40
0
 40
0
 40
0
 40
0
 40
1
 40
1
 40
1
 40
1
 10
157.017635
 20
95.000001
 30
0.0
 10
157.017635
 20
93.882314
 30
0.0
 10
156.114309
 20
92.976250
 30
0.0
 10
154.999998
 20
92.976250
 30
0.0
  0
LINE
  5
14e
100
AcDbEntity
  8
Layer_1
 62
7
100
AcDbLine
 10
154.999998
 20
92.976250
 30
0.0
 11
154.999998
 21
92.976250
 31
0.0
  0
SPLINE
  5
14f
100
AcDbEntity
  8
Layer_1
 62
7
100
AcDbSpline
 70
8
 71
3
 72
8
 73
4
 74
0
 40
0
 40
0
 40
0
 40
0
 40
1
 40
1
 40
1
 40
1
 10
144.961782
 20
92.936115
 30
0.0
 10
143.847471
 20
92.936115
 30
0.0
 10
142.944144
 20
93.842179
 30
0.0
 10
142.944144
 20
94.959866
 30
0.0
  0
SPLINE
  5
150
100
AcDbEntity
  8
Layer_1
 62
7
100
AcDbSpline
 70
8
 71
3
 72
8
 73
4
 74
0
 40
0
 40
0
 40
0
 40
0
 40
1
 40
1
 40
1
 40
1
 10
142.944144
 20
94.959866
 30
0.0
 10
142.944144
 20
96.077552
 30
0.0
 10
143.847471
 20
96.983616
 30
0.0
 10
144.961782
 20
96.983616
 30
0.0
  0
SPLINE
  5
151
100
AcDbEntity
  8
Layer_1
 62
7
100
AcDbSpline
 70
8
 71
3
 72
8
 73
4
 74
0
 40
0
 40
0
 40
0
 40
0
 40
1
 40
1
 40
1
 40
1
 10
144.961782
 20
96.983616
 30
0.0
 10
146.076093
 20
96.983616
 30
0.0
 10
146.979420
 20
96.077552
 30
0.0
 10
146.979420
 20
94.959866
 30
0.0
  0
SPLINE
  5
152
100
AcDbEntity
  8
Layer_1
 62
7
100
AcDbSpline
 70
8
 71
3
 72
8
 73
4
 74
0
 40
0
 40
0
 40
0
 40
0
 40
1
 40
1
 40
1
 40
1
 10
146.979420
 20
94.959866
 30
0.0
 10
146.979420
 20
93.842179
 30
0.0
 10
146.076093
 20
92.936115
 30
0.0
 10
144.961782
 20
92.936115
 30
0.0
  0
LINE
  5
153
100
AcDbEntity
  8
Layer_1
 62
7
100
AcDbLine
 10
144.961782
 20
92.936115
 30
0.0
 11
144.961782
 21
92.936115
 31
0.0
  0
SPLINE
  5
154
100
AcDbEntity
  8
Layer_1
 62
7
100
AcDbSpline
 70
8
 71
3
 72
8
 73
4
 74
0
 40
0
 40
0
 40
0
 40
0
 40
1
 40
1
 40
1
 40
1
 10
114.999999
 20
92.976250
 30
0.0
 10
113.885688
 20
92.976250
 30
0.0
 10
112.982361
 20
93.882314
 30
0.0
 10
112.982361
 20
95.000001
 30
0.0
  0
SPLINE
  5
155
100
AcDbEntity
  8
Layer_1
 62
7
100
AcDbSpline
 70
8
 71
3
 72
8
 73
4
 74
0
 40
0
 40
0
 40
0
 40
0
 40
1
 40
1
 40
1
 40
1
 10
112.982361
 20
95.000001
 30
0.0
 10
112.982361
 20
96.117687
 30
0.0
 10
113.885688
 20
97.023751
 30
0.0
 10
114.999999
 20
97.023751
 30
0.0
  0
SPLINE
  5
156
100
AcDbEntity
  8
Layer_1
 62
7
100
AcDbSpline
 70
8
 71
3
 72
8
 73
4
 74
0
 40
0
 40
0
 40
0
 40
0
 40
1
 40
1
 40
1
 40
1
 10
114.999999
 20
97.023751
 30
0.0
 10
116.114309
 20
97.023751
 30
0.0
 10
117.017636
 20
96.117687
 30
0.0
 10
117.017636
 20
95.000001
 30
0.0
  0
SPLINE
  5
157
100
AcDbEntity
  8
Layer_1
 62
7
100
AcDbSpline
 70
8
 71
3
 72
8
 73
4
 74
0
 40
0
 40
0
 40
0
 40
0
 40
1
 40
1
 40
1
 40
1
 10
117.017636
 20
95.000001
 30
0.0
 10
117.017636
 20
93.882314
 30
0.0
 10
116.114309
 20
92.976250
 30
0.0
 10
114.999999
 20
92.976250
 30
0.0
  0
LINE
  5
158
100
AcDbEntity
  8
Layer_1
 62
7
100
AcDbLine
 10
114.999999
 20
92.976250
 30
0.0
 11
114.999999
 21
92.976250
 31
0.0
  0
SPLINE
  5
159
100
AcDbEntity
  8
Layer_1
 62
7
100
AcDbSpline
 70
8
 71
3
 72
8
 73
4
 74
0
 40
0
 40
0
 40
0
 40
0
 40
1
 40
1
 40
1
 40
1
 10
134.999998
 20
92.976250
 30
0.0
 10
133.885687
 20
92.976250
 30
0.0
 10
132.982360
 20
93.882314
 30
0.0
 10
132.982360
 20
95.000001
 30
0.0
  0
SPLINE
  5
15a
100
AcDbEntity
  8
Layer_1
 62
7
100
AcDbSpline
 70
8
 71
3
 72
8
 73
4
 74
0
 40
0
 40
0
 40
0
 40
0
 40
1
 40
1
 40
1
 40
1
 10
132.982360
 20
95.000001
 30
0.0
 10
132.982360
 20
96.117687
 30
0.0
 10
133.885687
 20
97.023751
 30
0.0
 10
134.999998
 20
97.023751
 30
0.0
  0
SPLINE
  5
15b
100
AcDbEntity
  8
Layer_1
 62
7
100
AcDbSpline
 70
8
 71
3
 72
8
 73
4
 74
0
 40
0
 40
0
 40
0
 40
0
 40
1
 40
1
 40
1
 40
1
 10
134.999998
 20
97.023751
 30
0.0
 10
136.114309
 20
97.023751
 30
0.0
 10
137.017636
 20
96.117687
 30
0.0
 10
137.017636
 20
95.000001
 30
0.0
  0
SPLINE
  5
15c
100
AcDbEntity
  8
Layer_1
 62
7
100
AcDbSpline
 70
8
 71
3
 72
8
 73
4
 74
0
 40
0
 40
0
 40
0
 40
0
 40
1
 40
1
 40
1
 40
1
 10
137.017636
 20
95.000001
 30
0.0
 10
137.017636
 20
93.882314
 30
0.0
 10
136.114309
 20
92.976250
 30
0.0
 10
134.999998
 20
92.976250
 30
0.0
  0
LINE
  5
15d
100
AcDbEntity
  8
Layer_1
 62
7
100
AcDbLine
 10
134.999998
 20
92.976250
 30
0.0
 11
134.999998
 21
92.976250
 31
0.0
  0
SPLINE
  5
15e
100
AcDbEntity
  8
Layer_1
 62
7
100
AcDbSpline
 70
8
 71
3
 72
8
 73
4
 74
0
 40
0
 40
0
 40
0
 40
0
 40
1
 40
1
 40
1
 40
1
 10
124.999998
 20
92.976250
 30
0.0
 10
123.885687
 20
92.976250
 30
0.0
 10
122.982361
 20
93.882314
 30
0.0
 10
122.982361
 20
95.000001
 30
0.0
  0
SPLINE
  5
15f
100
AcDbEntity
  8
Layer_1
 62
7
100
AcDbSpline
 70
8
 71
3
 72
8
 73
4
 74
0
 40
0
 40
0
 40
0
 40
0
 40
1
 40
1
 40
1
 40
1
 10
122.982361
 20
95.000001
 30
0.0
 10
122.982361
 20
96.117687
 30
0.0
 10
123.885687
 20
97.023751
 30
0.0
 10
124.999998
 20
97.023751
 30
0.0
  0
SPLINE
  5
160
100
AcDbEntity
  8
Layer_1
 62
7
100
AcDbSpline
 70
8
 71
3
 72
8
 73
4
 74
0
 40
0
 40
0
 40
0
 40
0
 40
1
 40
1
 40
1
 40
1
 10
124.999998
 20
97.023751
 30
0.0
 10
126.114309
 20
97.023751
 30
0.0
 10
127.017636
 20
96.117687
 30
0.0
 10
127.017636
 20
95.000001
 30
0.0
  0
SPLINE
  5
161
100
AcDbEntity
  8
Layer_1
 62
7
100
AcDbSpline
 70
8
 71
3
 72
8
 73
4
 74
0
 40
0
 40
0
 40
0
 40
0
 40
1
 40
1
 40
1
 40
1
 10
127.017636
 20
95.000001
 30
0.0
 10
127.017636
 20
93.882314
 30
0.0
 10
126.114309
 20
92.976250
 30
0.0
 10
124.999998
 20
92.976250
 30
0.0
  0
LINE
  5
162
100
AcDbEntity
  8
Layer_1
 62
7
100
AcDbLine
 10
124.999998
 20
92.976250
 30
0.0
 11
124.999998
 21
92.976250
 31
0.0
  0
SPLINE
  5
163
100
AcDbEntity
  8
Layer_1
 62
7
100
AcDbSpline
 70
8
 71
3
 72
8
 73
4
 74
0
 40
0
 40
0
 40
0
 40
0
 40
1
 40
1
 40
1
 40
1
 10
175.038216
 20
93.016385
 30
0.0
 10
173.923905
 20
93.016385
 30
0.0
 10
173.020578
 20
93.922449
 30
0.0
 10
173.020578
 20
95.040135
 30
0.0
  0
SPLINE
  5
164
100
AcDbEntity
  8
Layer_1
 62
7
100
AcDbSpline
 70
8
 71
3
 72
8
 73
4
 74
0
 40
0
 40
0
 40
0
 40
0
 40
1
 40
1
 40
1
 40
1
 10
173.020578
 20
95.040135
 30
0.0
 10
173.020578
 20
96.157822
 30
0.0
 10
173.923905
 20
97.063886
 30
0.0
 10
175.038216
 20
97.063886
 30
0.0
  0
SPLINE
  5
165
100
AcDbEntity
  8
Layer_1
 62
7
100
AcDbSpline
 70
8
 71
3
 72
8
 73
4
 74
0
 40
0
 40
0
 40
0
 40
0
 40
1
 40
1
 40
1
 40
1
 10
175.038216
 20
97.063886
 30
0.0
 10
176.152527
 20
97.063886
 30
0.0
 10
177.055853
 20
96.157822
 30
0.0
 10
177.055853
 20
95.040135
 30
0.0
  0
SPLINE
  5
166
100
AcDbEntity
  8
Layer_1
 62
7
100
AcDbSpline
 70
8
 71
3
 72
8
 73
4
 74
0
 40
0
 40
0
 40
0
 40
0
 40
1
 40
1
 40
1
 40
1
 10
177.055853
 20
95.040135
 30
0.0
 10
177.055853
 20
93.922449
 30
0.0
 10
176.152527
 20
93.016385
 30
0.0
 10
175.038216
 20
93.016385
 30
0.0
  0
LINE
  5
167
100
AcDbEntity
  8
Layer_1
 62
7
100
AcDbLine
 10
175.038216
 20
93.016385
 30
0.0
 11
175.038216
 21
93.016385
 31
0.0
  0
SPLINE
  5
168
100
AcDbEntity
  8
Layer_1
 62
7
100
AcDbSpline
 70
8
 71
3
 72
8
 73
4
 74
0
 40
0
 40
0
 40
0
 40
0
 40
1
 40
1
 40
1
 40
1
 10
165.000000
 20
92.976250
 30
0.0
 10
163.885689
 20
92.976250
 30
0.0
 10
162.982362
 20
93.882314
 30
0.0
 10
162.982362
 20
95.000001
 30
0.0
  0
SPLINE
  5
169
100
AcDbEntity
  8
Layer_1
 62
7
100
AcDbSpline
 70
8
 71
3
 72
8
 73
4
 74
0
 40
0
 40
0
 40
0
 40
0
 40
1
 40
1
 40
1
 40
1
 10
162.982362
 20
95.000001
 30
0.0
 10
162.982362
 20
96.117687
 30
0.0
 10
163.885689
 20
97.023751
 30
0.0
 10
165.000000
 20
97.023751
 30
0.0
  0
SPLINE
  5
16a
100
AcDbEntity
  8
Layer_1
 62
7
100
AcDbSpline
 70
8
 71
3
 72
8
 73
4
 74
0
 40
0
 40
0
 40
0
 40
0
 40
1
 40
1
 40
1
 40
1
 10
165.000000
 20
97.023751
 30
0.0
 10
166.114311
 20
97.023751
 30
0.0
 10
167.017638
 20
96.117687
 30
0.0
 10
167.017638
 20
95.000001
 30
0.0
  0
SPLINE
  5
16b
100
AcDbEntity
  8
Layer_1
 62
7
100
AcDbSpline
 70
8
 71
3
 72
8
 73
4
 74
0
 40
0
 40
0
 40
0
 40
0
 40
1
 40
1
 40
1
 40
1
 10
167.017638
 20
95.000001
 30
0.0
 10
167.017638
 20
93.882314
 30
0.0
 10
166.114311
 20
92.976250
 30
0.0
 10
165.000000
 20
92.976250
 30
0.0
  0
LINE
  5
16c
100
AcDbEntity
  8
Layer_1
 62
7
100
AcDbLine
 10
165.000000
 20
92.976250
 30
0.0
 11
165.000000
 21
92.976250
 31
0.0
  0
SPLINE
  5
16d
100
AcDbEntity
  8
Layer_1
 62
7
100
AcDbSpline
 70
8
 71
3
 72
8
 73
4
 74
0
 40
0
 40
0
 40
0
 40
0
 40
1
 40
1
 40
1
 40
1
 10
195.038215
 20
93.016385
 30
0.0
 10
193.923904
 20
93.016385
 30
0.0
 10
193.020577
 20
93.922449
 30
0.0
 10
193.020577
 20
95.040135
 30
0.0
  0
SPLINE
  5
16e
100
AcDbEntity
  8
Layer_1
 62
7
100
AcDbSpline
 70
8
 71
3
 72
8
 73
4
 74
0
 40
0
 40
0
 40
0
 40
0
 40
1
 40
1
 40
1
 40
1
 10
193.020577
 20
95.040135
 30
0.0
 10
193.020577
 20
96.157822
 30
0.0
 10
193.923904
 20
97.063886
 30
0.0
 10
195.038215
 20
97.063886
 30
0.0
  0
SPLINE
  5
16f
100
AcDbEntity
  8
Layer_1
 62
7
100
AcDbSpline
 70
8
 71
3
 72
8
 73
4
 74
0
 40
0
 40
0
 40
0
 40
0
 40
1
 40
1
 40
1
 40
1
 10
195.038215
 20
97.063886
 30
0.0
 10
196.152526
 20
97.063886
 30
0.0
 10
197.055853
 20
96.157822
 30
0.0
 10
197.055853
 20
95.040135
 30
0.0
  0
SPLINE
  5
170
100
AcDbEntity
  8
Layer_1
 62
7
100
AcDbSpline
 70
8
 71
3
 72
8
 73
4
 74
0
 40
0
 40
0
 40
0
 40
0
 40
1
 40
1
 40
1
 40
1
 10
197.055853
 20
95.040135
 30
0.0
 10
197.055853
 20
93.922449
 30
0.0
 10
196.152526
 20
93.016385
 30
0.0
 10
195.038215
 20
93.016385
 30
0.0
  0
LINE
  5
171
100
AcDbEntity
  8
Layer_1
 62
7
100
AcDbLine
 10
195.038215
 20
93.016385
 30
0.0
 11
195.038215
 21
93.016385
 31
0.0
  0
SPLINE
  5
172
100
AcDbEntity
  8
Layer_1
 62
7
100
AcDbSpline
 70
8
 71
3
 72
8
 73
4
 74
0
 40
0
 40
0
 40
0
 40
0
 40
1
 40
1
 40
1
 40
1
 10
185.000000
 20
92.976250
 30
0.0
 10
183.885689
 20
92.976250
 30
0.0
 10
182.982362
 20
93.882314
 30
0.0
 10
182.982362
 20
95.000001
 30
0.0
  0
SPLINE
  5
173
100
AcDbEntity
  8
Layer_1
 62
7
100
AcDbSpline
 70
8
 71
3
 72
8
 73
4
 74
0
 40
0
 40
0
 40
0
 40
0
 40
1
 40
1
 40
1
 40
1
 10
182.982362
 20
95.000001
 30
0.0
 10
182.982362
 20
96.117687
 30
0.0
 10
183.885689
 20
97.023751
 30
0.0
 10
185.000000
 20
97.023751
 30
0.0
  0
SPLINE
  5
174
100
AcDbEntity
  8
Layer_1
 62
7
100
AcDbSpline
 70
8
 71
3
 72
8
 73
4
 74
0
 40
0
 40
0
 40
0
 40
0
 40
1
 40
1
 40
1
 40
1
 10
185.000000
 20
97.023751
 30
0.0
 10
186.114311
 20
97.023751
 30
0.0
 10
187.017637
 20
96.117687
 30
0.0
 10
187.017637
 20
95.000001
 30
0.0
  0
SPLINE
  5
175
100
AcDbEntity
  8
Layer_1
 62
7
100
AcDbSpline
 70
8
 71
3
 72
8
 73
4
 74
0
 40
0
 40
0
 40
0
 40
0
 40
1
 40
1
 40
1
 40
1
 10
187.017637
 20
95.000001
 30
0.0
 10
187.017637
 20
93.882314
 30
0.0
 10
186.114311
 20
92.976250
 30
0.0
 10
185.000000
 20
92.976250
 30
0.0
  0
LINE
  5
176
100
AcDbEntity
  8
Layer_1
 62
7
100
AcDbLine
 10
185.000000
 20
92.976250
 30
0.0
 11
185.000000
 21
92.976250
 31
0.0
  0
ENDSEC
  0
SECTION
  2
OBJECTS
  0
DICTIONARY
  5
C
330
0
100
AcDbDictionary
  3
ACAD_GROUP
350
D
  3
ACAD_MLINESTYLE
350
17
  0
DICTIONARY
  5
D
330
C
100
AcDbDictionary
  0
DICTIONARY
  5
1A
330
C
100
AcDbDictionary
  0
DICTIONARY
  5
17
330
C
100
AcDbDictionary
  3
STANDARD
350
18
  0
DICTIONARY
  5
19
330
C
100
AcDbDictionary
  0
ENDSEC
  0
EOF
