  0
SECTION
  2
HEADER
  9
$ACADVER
  1
AC1014
  9
$HANDSEED
  5
FFFF
  9
$MEASUREMENT
 70
     1
  0
ENDSEC
  0
SECTION
  2
TABLES
  0
TABLE
  2
VPORT
  5
8
330
0
100
AcDbSymbolTable
 70
     4
  0
VPORT
  5
2E
330
8
100
AcDbSymbolTableRecord
100
AcDbViewportTableRecord
  2
*ACTIVE
 70
     0
 10
0.0
 20
0.0
 11
1.0
 21
1.0
 12
210.0
 22
148.5
 13
0.0
 23
0.0
 14
10.0
 24
10.0
 15
10.0
 25
10.0
 16
0.0
 26
0.0
 36
1.0
 17
0.0
 27
0.0
 37
0.0
 40
341.0
 41
1.24
 42
50.0
 43
0.0
 44
0.0
 50
0.0
 51
0.0
 71
     0
 72
   100
 73
     1
 74
     3
 75
     0
 76
     0
 77
     0
 78
     0
  0
ENDTAB
  0
TABLE
  2
LTYPE
  5
5
330
0
100
AcDbSymbolTable
 70
     1
  0
LTYPE
  5
14
330
5
100
AcDbSymbolTableRecord
100
AcDbLinetypeTableRecord
  2
BYBLOCK
 70
     0
  3

 72
    65
 73
     0
 40
0.0
  0
LTYPE
  5
15
330
5
100
AcDbSymbolTableRecord
100
AcDbLinetypeTableRecord
  2
BYLAYER
 70
     0
  3

 72
    65
 73
     0
 40
0.0
  0
LTYPE
  5
16
330
5
100
AcDbSymbolTableRecord
100
AcDbLinetypeTableRecord
  2
CONTINUOUS
 70
     0
  3
Solid line
 72
    65
 73
     0
 40
0.0
  0
ENDTAB
  0
TABLE
  2
LAYER
  5
2
100
AcDbSymbolTable
 70
2
  0
LAYER
  5
50
100
AcDbSymbolTableRecord
100
AcDbLayerTableRecord
  2
0
 70
0
  6
CONTINUOUS
  0
LAYER
  5
51
100
AcDbSymbolTableRecord
100
AcDbLayerTableRecord
  2
Layer_1
 70
0
  6
CONTINUOUS
  0
ENDTAB
  0
TABLE
  2
STYLE
  5
3
330
0
100
AcDbSymbolTable
 70
     1
  0
STYLE
  5
11
330
3
100
AcDbSymbolTableRecord
100
AcDbTextStyleTableRecord
  2
STANDARD
 70
     0
 40
0.0
 41
1.0
 50
0.0
 71
     0
 42
2.5
  3
txt
  4

  0
ENDTAB
  0
TABLE
  2
VIEW
  5
6
330
0
100
AcDbSymbolTable
 70
     0
  0
ENDTAB
  0
TABLE
  2
UCS
  5
7
330
0
100
AcDbSymbolTable
 70
     0
  0
ENDTAB
  0
TABLE
  2
APPID
  5
9
330
0
100
AcDbSymbolTable
 70
     2
  0
APPID
  5
12
330
9
100
AcDbSymbolTableRecord
100
AcDbRegAppTableRecord
  2
ACAD
 70
     0
  0
ENDTAB
  0
TABLE
  2
DIMSTYLE
  5
A
330
0
100
AcDbSymbolTable
 70
     1
  0
DIMSTYLE
105
27
330
A
100
AcDbSymbolTableRecord
100
AcDbDimStyleTableRecord
  2
ISO-25
 70
     0
  3

  4

  5

  6

  7

 40
1.0
 41
2.5
 42
0.625
 43
3.75
 44
1.25
 45
0.0
 46
0.0
 47
0.0
 48
0.0
140
2.5
141
2.5
142
0.0
143
0.03937007874016
144
1.0
145
0.0
146
1.0
147
0.625
 71
     0
 72
     0
 73
     0
 74
     0
 75
     0
 76
     0
 77
     1
 78
     8
170
     0
171
     3
172
     1
173
     0
174
     0
175
     0
176
     0
177
     0
178
     0
270
     2
271
     2
272
     2
273
     2
274
     3
340
11
275
     0
280
     0
281
     0
282
     0
283
     0
284
     8
285
     0
286
     0
287
     3
288
     0
  0
ENDTAB
  0
TABLE
  2
BLOCK_RECORD
  5
1
330
0
100
AcDbSymbolTable
 70
     1
  0
BLOCK_RECORD
  5
1F
330
1
100
AcDbSymbolTableRecord
100
AcDbBlockTableRecord
  2
*MODEL_SPACE
  0
BLOCK_RECORD
  5
1B
330
1
100
AcDbSymbolTableRecord
100
AcDbBlockTableRecord
  2
*PAPER_SPACE
  0
ENDTAB
  0
ENDSEC
  0
SECTION
  2
BLOCKS
  0
BLOCK
  5
20
330
1F
100
AcDbEntity
  8
0
100
AcDbBlockBegin
  2
*MODEL_SPACE
 70
     0
 10
0.0
 20
0.0
 30
0.0
  3
*MODEL_SPACE
  1

  0
ENDBLK
  5
21
330
1F
100
AcDbEntity
  8
0
100
AcDbBlockEnd
  0
BLOCK
  5
1C
330
1B
100
AcDbEntity
 67
     1
  8
0
100
AcDbBlockBegin
  2
*PAPER_SPACE
  1

  0
ENDBLK
  5
1D
330
1B
100
AcDbEntity
 67
     1
  8
0
100
AcDbBlockEnd
  0
ENDSEC
  0
SECTION
  2
ENTITIES
  0
LINE
  5
100
100
AcDbEntity
  8
Layer_1
 62
7
100
AcDbLine
 10
13.000000
 20
14.999998
 30
0.0
 11
-4.000001
 21
14.999998
 31
0.0
  0
LINE
  5
101
100
AcDbEntity
  8
Layer_1
 62
7
100
AcDbLine
 10
-4.000001
 20
14.999998
 30
0.0
 11
-4.000000
 21
36.999999
 31
0.0
  0
LINE
  5
102
100
AcDbEntity
  8
Layer_1
 62
7
100
AcDbLine
 10
-4.000000
 20
36.999999
 30
0.0
 11
13.000001
 21
36.999999
 31
0.0
  0
LINE
  5
103
100
AcDbEntity
  8
Layer_1
 62
7
100
AcDbLine
 10
13.000001
 20
36.999999
 30
0.0
 11
13.000000
 21
39.999999
 31
0.0
  0
LINE
  5
104
100
AcDbEntity
  8
Layer_1
 62
7
100
AcDbLine
 10
13.000000
 20
39.999999
 30
0.0
 11
13.000000
 21
57.000002
 31
0.0
  0
LINE
  5
105
100
AcDbEntity
  8
Layer_1
 62
7
100
AcDbLine
 10
13.000000
 20
57.000002
 30
0.0
 11
21.999999
 21
57.000005
 31
0.0
  0
LINE
  5
106
100
AcDbEntity
  8
Layer_1
 62
7
100
AcDbLine
 10
21.999999
 20
57.000005
 30
0.0
 11
22.000000
 21
39.999999
 31
0.0
  0
LINE
  5
107
100
AcDbEntity
  8
Layer_1
 62
7
100
AcDbLine
 10
22.000000
 20
39.999999
 30
0.0
 11
53.999999
 21
39.999996
 31
0.0
  0
LINE
  5
108
100
AcDbEntity
  8
Layer_1
 62
7
100
AcDbLine
 10
53.999999
 20
39.999996
 30
0.0
 11
53.999999
 21
57.000002
 31
0.0
  0
LINE
  5
109
100
AcDbEntity
  8
Layer_1
 62
7
100
AcDbLine
 10
53.999999
 20
57.000002
 30
0.0
 11
63.000001
 21
56.999999
 31
0.0
  0
LINE
  5
10a
100
AcDbEntity
  8
Layer_1
 62
7
100
AcDbLine
 10
63.000001
 20
56.999999
 30
0.0
 11
63.000001
 21
39.999996
 31
0.0
  0
LINE
  5
10b
100
AcDbEntity
  8
Layer_1
 62
7
100
AcDbLine
 10
63.000001
 20
39.999996
 30
0.0
 11
63.000001
 21
36.999988
 31
0.0
  0
LINE
  5
10c
100
AcDbEntity
  8
Layer_1
 62
7
100
AcDbLine
 10
63.000001
 20
36.999988
 30
0.0
 11
80.000001
 21
36.999999
 31
0.0
  0
LINE
  5
10d
100
AcDbEntity
  8
Layer_1
 62
7
100
AcDbLine
 10
80.000001
 20
36.999999
 30
0.0
 11
80.000001
 21
14.999998
 31
0.0
  0
LINE
  5
10e
100
AcDbEntity
  8
Layer_1
 62
7
100
AcDbLine
 10
80.000001
 20
14.999998
 30
0.0
 11
63.000001
 21
14.999995
 31
0.0
  0
LINE
  5
10f
100
AcDbEntity
  8
Layer_1
 62
7
100
AcDbLine
 10
63.000001
 20
14.999995
 30
0.0
 11
63.000001
 21
12.999994
 31
0.0
  0
LINE
  5
110
100
AcDbEntity
  8
Layer_1
 62
7
100
AcDbLine
 10
63.000001
 20
12.999994
 30
0.0
 11
63.000001
 21
-4.000000
 31
0.0
  0
LINE
  5
111
100
AcDbEntity
  8
Layer_1
 62
7
100
AcDbLine
 10
63.000001
 20
-4.000000
 30
0.0
 11
13.000000
 21
-4.000000
 31
0.0
  0
LINE
  5
112
100
AcDbEntity
  8
Layer_1
 62
7
100
AcDbLine
 10
13.000000
 20
-4.000000
 30
0.0
 11
13.000000
 21
12.999994
 31
0.0
  0
LINE
  5
113
100
AcDbEntity
  8
Layer_1
 62
7
100
AcDbLine
 10
13.000000
 20
12.999994
 30
0.0
 11
13.000000
 21
14.999998
 31
0.0
  0
SPLINE
  5
114
100
AcDbEntity
  8
Layer_1
 62
1
100
AcDbSpline
 70
8
 71
3
 72
8
 73
4
 74
0
 40
0
 40
0
 40
0
 40
0
 40
1
 40
1
 40
1
 40
1
 10
21.000000
 20
44.000003
 30
0.0
 10
21.000000
 20
42.895430
 30
0.0
 10
20.104570
 20
42.000001
 30
0.0
 10
19.000000
 20
42.000001
 30
0.0
  0
SPLINE
  5
115
100
AcDbEntity
  8
Layer_1
 62
1
100
AcDbSpline
 70
8
 71
3
 72
8
 73
4
 74
0
 40
0
 40
0
 40
0
 40
0
 40
1
 40
1
 40
1
 40
1
 10
19.000000
 20
42.000001
 30
0.0
 10
17.895431
 20
42.000001
 30
0.0
 10
17.000000
 20
42.895430
 30
0.0
 10
17.000000
 20
44.000003
 30
0.0
  0
SPLINE
  5
116
100
AcDbEntity
  8
Layer_1
 62
1
100
AcDbSpline
 70
8
 71
3
 72
8
 73
4
 74
0
 40
0
 40
0
 40
0
 40
0
 40
1
 40
1
 40
1
 40
1
 10
17.000000
 20
44.000003
 30
0.0
 10
17.000000
 20
45.104569
 30
0.0
 10
17.895431
 20
45.999998
 30
0.0
 10
19.000000
 20
45.999998
 30
0.0
  0
SPLINE
  5
117
100
AcDbEntity
  8
Layer_1
 62
1
100
AcDbSpline
 70
8
 71
3
 72
8
 73
4
 74
0
 40
0
 40
0
 40
0
 40
0
 40
1
 40
1
 40
1
 40
1
 10
19.000000
 20
45.999998
 30
0.0
 10
20.104570
 20
45.999998
 30
0.0
 10
21.000000
 20
45.104569
 30
0.0
 10
21.000000
 20
44.000003
 30
0.0
  0
LINE
  5
118
100
AcDbEntity
  8
Layer_1
 62
1
100
AcDbLine
 10
21.000000
 20
44.000003
 30
0.0
 11
21.000000
 21
44.000003
 31
0.0
  0
SPLINE
  5
119
100
AcDbEntity
  8
Layer_1
 62
7
100
AcDbSpline
 70
8
 71
3
 72
8
 73
4
 74
0
 40
0
 40
0
 40
0
 40
0
 40
1
 40
1
 40
1
 40
1
 10
6.023750
 20
20.964725
 30
0.0
 10
6.023750
 20
19.850414
 30
0.0
 10
5.117686
 20
18.947088
 30
0.0
 10
4.000000
 20
18.947088
 30
0.0
  0
SPLINE
  5
11a
100
AcDbEntity
  8
Layer_1
 62
7
100
AcDbSpline
 70
8
 71
3
 72
8
 73
4
 74
0
 40
0
 40
0
 40
0
 40
0
 40
1
 40
1
 40
1
 40
1
 10
4.000000
 20
18.947088
 30
0.0
 10
2.882314
 20
18.947088
 30
0.0
 10
1.976250
 20
19.850414
 30
0.0
 10
1.976250
 20
20.964725
 30
0.0
  0
SPLINE
  5
11b
100
AcDbEntity
  8
Layer_1
 62
7
100
AcDbSpline
 70
8
 71
3
 72
8
 73
4
 74
0
 40
0
 40
0
 40
0
 40
0
 40
1
 40
1
 40
1
 40
1
 10
1.976250
 20
20.964725
 30
0.0
 10
1.976250
 20
22.079036
 30
0.0
 10
2.882314
 20
22.982363
 30
0.0
 10
4.000000
 20
22.982363
 30
0.0
  0
SPLINE
  5
11c
100
AcDbEntity
  8
Layer_1
 62
7
100
AcDbSpline
 70
8
 71
3
 72
8
 73
4
 74
0
 40
0
 40
0
 40
0
 40
0
 40
1
 40
1
 40
1
 40
1
 10
4.000000
 20
22.982363
 30
0.0
 10
5.117686
 20
22.982363
 30
0.0
 10
6.023750
 20
22.079036
 30
0.0
 10
6.023750
 20
20.964725
 30
0.0
  0
LINE
  5
11d
100
AcDbEntity
  8
Layer_1
 62
7
100
AcDbLine
 10
6.023750
 20
20.964725
 30
0.0
 11
6.023750
 21
20.964725
 31
0.0
  0
SPLINE
  5
11e
100
AcDbEntity
  8
Layer_1
 62
7
100
AcDbSpline
 70
8
 71
3
 72
8
 73
4
 74
0
 40
0
 40
0
 40
0
 40
0
 40
1
 40
1
 40
1
 40
1
 10
74.023752
 20
20.982361
 30
0.0
 10
74.023752
 20
19.868051
 30
0.0
 10
73.117688
 20
18.964724
 30
0.0
 10
72.000001
 20
18.964724
 30
0.0
  0
SPLINE
  5
11f
100
AcDbEntity
  8
Layer_1
 62
7
100
AcDbSpline
 70
8
 71
3
 72
8
 73
4
 74
0
 40
0
 40
0
 40
0
 40
0
 40
1
 40
1
 40
1
 40
1
 10
72.000001
 20
18.964724
 30
0.0
 10
70.882315
 20
18.964724
 30
0.0
 10
69.976251
 20
19.868051
 30
0.0
 10
69.976251
 20
20.982361
 30
0.0
  0
SPLINE
  5
120
100
AcDbEntity
  8
Layer_1
 62
7
100
AcDbSpline
 70
8
 71
3
 72
8
 73
4
 74
0
 40
0
 40
0
 40
0
 40
0
 40
1
 40
1
 40
1
 40
1
 10
69.976251
 20
20.982361
 30
0.0
 10
69.976251
 20
22.096672
 30
0.0
 10
70.882315
 20
22.999999
 30
0.0
 10
72.000001
 20
22.999999
 30
0.0
  0
SPLINE
  5
121
100
AcDbEntity
  8
Layer_1
 62
7
100
AcDbSpline
 70
8
 71
3
 72
8
 73
4
 74
0
 40
0
 40
0
 40
0
 40
0
 40
1
 40
1
 40
1
 40
1
 10
72.000001
 20
22.999999
 30
0.0
 10
73.117688
 20
22.999999
 30
0.0
 10
74.023752
 20
22.096672
 30
0.0
 10
74.023752
 20
20.982361
 30
0.0
  0
LINE
  5
122
100
AcDbEntity
  8
Layer_1
 62
7
100
AcDbLine
 10
74.023752
 20
20.982361
 30
0.0
 11
74.023752
 21
20.982361
 31
0.0
  0
SPLINE
  5
123
100
AcDbEntity
  8
Layer_1
 62
7
100
AcDbSpline
 70
8
 71
3
 72
8
 73
4
 74
0
 40
0
 40
0
 40
0
 40
0
 40
1
 40
1
 40
1
 40
1
 10
28.038216
 20
2.016392
 30
0.0
 10
26.923905
 20
2.016392
 30
0.0
 10
26.020578
 20
2.922456
 30
0.0
 10
26.020578
 20
4.040142
 30
0.0
  0
SPLINE
  5
124
100
AcDbEntity
  8
Layer_1
 62
7
100
AcDbSpline
 70
8
 71
3
 72
8
 73
4
 74
0
 40
0
 40
0
 40
0
 40
0
 40
1
 40
1
 40
1
 40
1
 10
26.020578
 20
4.040142
 30
0.0
 10
26.020578
 20
5.157829
 30
0.0
 10
26.923905
 20
6.063893
 30
0.0
 10
28.038216
 20
6.063893
 30
0.0
  0
SPLINE
  5
125
100
AcDbEntity
  8
Layer_1
 62
7
100
AcDbSpline
 70
8
 71
3
 72
8
 73
4
 74
0
 40
0
 40
0
 40
0
 40
0
 40
1
 40
1
 40
1
 40
1
 10
28.038216
 20
6.063893
 30
0.0
 10
29.152527
 20
6.063893
 30
0.0
 10
30.055854
 20
5.157829
 30
0.0
 10
30.055854
 20
4.040142
 30
0.0
  0
SPLINE
  5
126
100
AcDbEntity
  8
Layer_1
 62
7
100
AcDbSpline
 70
8
 71
3
 72
8
 73
4
 74
0
 40
0
 40
0
 40
0
 40
0
 40
1
 40
1
 40
1
 40
1
 10
30.055854
 20
4.040142
 30
0.0
 10
30.055854
 20
2.922456
 30
0.0
 10
29.152527
 20
2.016392
 30
0.0
 10
28.038216
 20
2.016392
 30
0.0
  0
LINE
  5
127
100
AcDbEntity
  8
Layer_1
 62
7
100
AcDbLine
 10
28.038216
 20
2.016392
 30
0.0
 11
28.038216
 21
2.016392
 31
0.0
  0
SPLINE
  5
128
100
AcDbEntity
  8
Layer_1
 62
7
100
AcDbSpline
 70
8
 71
3
 72
8
 73
4
 74
0
 40
0
 40
0
 40
0
 40
0
 40
1
 40
1
 40
1
 40
1
 10
18.000001
 20
1.976260
 30
0.0
 10
16.885690
 20
1.976260
 30
0.0
 10
15.982363
 20
2.882324
 30
0.0
 10
15.982363
 20
4.000010
 30
0.0
  0
SPLINE
  5
129
100
AcDbEntity
  8
Layer_1
 62
7
100
AcDbSpline
 70
8
 71
3
 72
8
 73
4
 74
0
 40
0
 40
0
 40
0
 40
0
 40
1
 40
1
 40
1
 40
1
 10
15.982363
 20
4.000010
 30
0.0
 10
15.982363
 20
5.117697
 30
0.0
 10
16.885690
 20
6.023761
 30
0.0
 10
18.000001
 20
6.023761
 30
0.0
  0
SPLINE
  5
12a
100
AcDbEntity
  8
Layer_1
 62
7
100
AcDbSpline
 70
8
 71
3
 72
8
 73
4
 74
0
 40
0
 40
0
 40
0
 40
0
 40
1
 40
1
 40
1
 40
1
 10
18.000001
 20
6.023761
 30
0.0
 10
19.114312
 20
6.023761
 30
0.0
 10
20.017638
 20
5.117697
 30
0.0
 10
20.017638
 20
4.000010
 30
0.0
  0
SPLINE
  5
12b
100
AcDbEntity
  8
Layer_1
 62
7
100
AcDbSpline
 70
8
 71
3
 72
8
 73
4
 74
0
 40
0
 40
0
 40
0
 40
0
 40
1
 40
1
 40
1
 40
1
 10
20.017638
 20
4.000010
 30
0.0
 10
20.017638
 20
2.882324
 30
0.0
 10
19.114312
 20
1.976260
 30
0.0
 10
18.000001
 20
1.976260
 30
0.0
  0
LINE
  5
12c
100
AcDbEntity
  8
Layer_1
 62
7
100
AcDbLine
 10
18.000001
 20
1.976260
 30
0.0
 11
18.000001
 21
1.976260
 31
0.0
  0
SPLINE
  5
12d
100
AcDbEntity
  8
Layer_1
 62
7
100
AcDbSpline
 70
8
 71
3
 72
8
 73
4
 74
0
 40
0
 40
0
 40
0
 40
0
 40
1
 40
1
 40
1
 40
1
 10
38.047549
 20
2.036966
 30
0.0
 10
36.933238
 20
2.036966
 30
0.0
 10
36.029911
 20
2.943030
 30
0.0
 10
36.029911
 20
4.060716
 30
0.0
  0
SPLINE
  5
12e
100
AcDbEntity
  8
Layer_1
 62
7
100
AcDbSpline
 70
8
 71
3
 72
8
 73
4
 74
0
 40
0
 40
0
 40
0
 40
0
 40
1
 40
1
 40
1
 40
1
 10
36.029911
 20
4.060716
 30
0.0
 10
36.029911
 20
5.178403
 30
0.0
 10
36.933238
 20
6.084467
 30
0.0
 10
38.047549
 20
6.084467
 30
0.0
  0
SPLINE
  5
12f
100
AcDbEntity
  8
Layer_1
 62
7
100
AcDbSpline
 70
8
 71
3
 72
8
 73
4
 74
0
 40
0
 40
0
 40
0
 40
0
 40
1
 40
1
 40
1
 40
1
 10
38.047549
 20
6.084467
 30
0.0
 10
39.161860
 20
6.084467
 30
0.0
 10
40.065187
 20
5.178403
 30
0.0
 10
40.065187
 20
4.060716
 30
0.0
  0
SPLINE
  5
130
100
AcDbEntity
  8
Layer_1
 62
7
100
AcDbSpline
 70
8
 71
3
 72
8
 73
4
 74
0
 40
0
 40
0
 40
0
 40
0
 40
1
 40
1
 40
1
 40
1
 10
40.065187
 20
4.060716
 30
0.0
 10
40.065187
 20
2.943030
 30
0.0
 10
39.161860
 20
2.036966
 30
0.0
 10
38.047549
 20
2.036966
 30
0.0
  0
LINE
  5
131
100
AcDbEntity
  8
Layer_1
 62
7
100
AcDbLine
 10
38.047549
 20
2.036966
 30
0.0
 11
38.047549
 21
2.036966
 31
0.0
  0
SPLINE
  5
132
100
AcDbEntity
  8
Layer_1
 62
7
100
AcDbSpline
 70
8
 71
3
 72
8
 73
4
 74
0
 40
0
 40
0
 40
0
 40
0
 40
1
 40
1
 40
1
 40
1
 10
20.023750
 20
21.000000
 30
0.0
 10
20.023750
 20
19.885689
 30
0.0
 10
19.117686
 20
18.982363
 30
0.0
 10
18.000000
 20
18.982363
 30
0.0
  0
SPLINE
  5
133
100
AcDbEntity
  8
Layer_1
 62
7
100
AcDbSpline
 70
8
 71
3
 72
8
 73
4
 74
0
 40
0
 40
0
 40
0
 40
0
 40
1
 40
1
 40
1
 40
1
 10
18.000000
 20
18.982363
 30
0.0
 10
16.882314
 20
18.982363
 30
0.0
 10
15.976250
 20
19.885689
 30
0.0
 10
15.976250
 20
21.000000
 30
0.0
  0
SPLINE
  5
134
100
AcDbEntity
  8
Layer_1
 62
7
100
AcDbSpline
 70
8
 71
3
 72
8
 73
4
 74
0
 40
0
 40
0
 40
0
 40
0
 40
1
 40
1
 40
1
 40
1
 10
15.976250
 20
21.000000
 30
0.0
 10
15.976250
 20
22.114311
 30
0.0
 10
16.882314
 20
23.017638
 30
0.0
 10
18.000000
 20
23.017638
 30
0.0
  0
SPLINE
  5
135
100
AcDbEntity
  8
Layer_1
 62
7
100
AcDbSpline
 70
8
 71
3
 72
8
 73
4
 74
0
 40
0
 40
0
 40
0
 40
0
 40
1
 40
1
 40
1
 40
1
 10
18.000000
 20
23.017638
 30
0.0
 10
19.117686
 20
23.017638
 30
0.0
 10
20.023750
 20
22.114311
 30
0.0
 10
20.023750
 20
21.000000
 30
0.0
  0
LINE
  5
136
100
AcDbEntity
  8
Layer_1
 62
7
100
AcDbLine
 10
20.023750
 20
21.000000
 30
0.0
 11
20.023750
 21
21.000000
 31
0.0
  0
SPLINE
  5
137
100
AcDbEntity
  8
Layer_1
 62
7
100
AcDbSpline
 70
8
 71
3
 72
8
 73
4
 74
0
 40
0
 40
0
 40
0
 40
0
 40
1
 40
1
 40
1
 40
1
 10
60.023751
 20
20.982361
 30
0.0
 10
60.023751
 20
19.868051
 30
0.0
 10
59.117687
 20
18.964724
 30
0.0
 10
58.000001
 20
18.964724
 30
0.0
  0
SPLINE
  5
138
100
AcDbEntity
  8
Layer_1
 62
7
100
AcDbSpline
 70
8
 71
3
 72
8
 73
4
 74
0
 40
0
 40
0
 40
0
 40
0
 40
1
 40
1
 40
1
 40
1
 10
58.000001
 20
18.964724
 30
0.0
 10
56.882315
 20
18.964724
 30
0.0
 10
55.976251
 20
19.868051
 30
0.0
 10
55.976251
 20
20.982361
 30
0.0
  0
SPLINE
  5
139
100
AcDbEntity
  8
Layer_1
 62
7
100
AcDbSpline
 70
8
 71
3
 72
8
 73
4
 74
0
 40
0
 40
0
 40
0
 40
0
 40
1
 40
1
 40
1
 40
1
 10
55.976251
 20
20.982361
 30
0.0
 10
55.976251
 20
22.096672
 30
0.0
 10
56.882315
 20
22.999999
 30
0.0
 10
58.000001
 20
22.999999
 30
0.0
  0
SPLINE
  5
13a
100
AcDbEntity
  8
Layer_1
 62
7
100
AcDbSpline
 70
8
 71
3
 72
8
 73
4
 74
0
 40
0
 40
0
 40
0
 40
0
 40
1
 40
1
 40
1
 40
1
 10
58.000001
 20
22.999999
 30
0.0
 10
59.117687
 20
22.999999
 30
0.0
 10
60.023751
 20
22.096672
 30
0.0
 10
60.023751
 20
20.982361
 30
0.0
  0
LINE
  5
13b
100
AcDbEntity
  8
Layer_1
 62
7
100
AcDbLine
 10
60.023751
 20
20.982361
 30
0.0
 11
60.023751
 21
20.982361
 31
0.0
  0
SPLINE
  5
13c
100
AcDbEntity
  8
Layer_1
 62
7
100
AcDbSpline
 70
8
 71
3
 72
8
 73
4
 74
0
 40
0
 40
0
 40
0
 40
0
 40
1
 40
1
 40
1
 40
1
 10
48.038216
 20
2.016392
 30
0.0
 10
46.923905
 20
2.016392
 30
0.0
 10
46.020578
 20
2.922456
 30
0.0
 10
46.020578
 20
4.040142
 30
0.0
  0
SPLINE
  5
13d
100
AcDbEntity
  8
Layer_1
 62
7
100
AcDbSpline
 70
8
 71
3
 72
8
 73
4
 74
0
 40
0
 40
0
 40
0
 40
0
 40
1
 40
1
 40
1
 40
1
 10
46.020578
 20
4.040142
 30
0.0
 10
46.020578
 20
5.157829
 30
0.0
 10
46.923905
 20
6.063893
 30
0.0
 10
48.038216
 20
6.063893
 30
0.0
  0
SPLINE
  5
13e
100
AcDbEntity
  8
Layer_1
 62
7
100
AcDbSpline
 70
8
 71
3
 72
8
 73
4
 74
0
 40
0
 40
0
 40
0
 40
0
 40
1
 40
1
 40
1
 40
1
 10
48.038216
 20
6.063893
 30
0.0
 10
49.152527
 20
6.063893
 30
0.0
 10
50.055853
 20
5.157829
 30
0.0
 10
50.055853
 20
4.040142
 30
0.0
  0
SPLINE
  5
13f
100
AcDbEntity
  8
Layer_1
 62
7
100
AcDbSpline
 70
8
 71
3
 72
8
 73
4
 74
0
 40
0
 40
0
 40
0
 40
0
 40
1
 40
1
 40
1
 40
1
 10
50.055853
 20
4.040142
 30
0.0
 10
50.055853
 20
2.922456
 30
0.0
 10
49.152527
 20
2.016392
 30
0.0
 10
48.038216
 20
2.016392
 30
0.0
  0
LINE
  5
140
100
AcDbEntity
  8
Layer_1
 62
7
100
AcDbLine
 10
48.038216
 20
2.016392
 30
0.0
 11
48.038216
 21
2.016392
 31
0.0
  0
SPLINE
  5
141
100
AcDbEntity
  8
Layer_1
 62
7
100
AcDbSpline
 70
8
 71
3
 72
8
 73
4
 74
0
 40
0
 40
0
 40
0
 40
0
 40
1
 40
1
 40
1
 40
1
 10
58.038215
 20
2.016392
 30
0.0
 10
56.923904
 20
2.016392
 30
0.0
 10
56.020578
 20
2.922456
 30
0.0
 10
56.020578
 20
4.040142
 30
0.0
  0
SPLINE
  5
142
100
AcDbEntity
  8
Layer_1
 62
7
100
AcDbSpline
 70
8
 71
3
 72
8
 73
4
 74
0
 40
0
 40
0
 40
0
 40
0
 40
1
 40
1
 40
1
 40
1
 10
56.020578
 20
4.040142
 30
0.0
 10
56.020578
 20
5.157829
 30
0.0
 10
56.923904
 20
6.063893
 30
0.0
 10
58.038215
 20
6.063893
 30
0.0
  0
SPLINE
  5
143
100
AcDbEntity
  8
Layer_1
 62
7
100
AcDbSpline
 70
8
 71
3
 72
8
 73
4
 74
0
 40
0
 40
0
 40
0
 40
0
 40
1
 40
1
 40
1
 40
1
 10
58.038215
 20
6.063893
 30
0.0
 10
59.152526
 20
6.063893
 30
0.0
 10
60.055853
 20
5.157829
 30
0.0
 10
60.055853
 20
4.040142
 30
0.0
  0
SPLINE
  5
144
100
AcDbEntity
  8
Layer_1
 62
7
100
AcDbSpline
 70
8
 71
3
 72
8
 73
4
 74
0
 40
0
 40
0
 40
0
 40
0
 40
1
 40
1
 40
1
 40
1
 10
60.055853
 20
4.040142
 30
0.0
 10
60.055853
 20
2.922456
 30
0.0
 10
59.152526
 20
2.016392
 30
0.0
 10
58.038215
 20
2.016392
 30
0.0
  0
LINE
  5
145
100
AcDbEntity
  8
Layer_1
 62
7
100
AcDbLine
 10
58.038215
 20
2.016392
 30
0.0
 11
58.038215
 21
2.016392
 31
0.0
  0
SPLINE
  5
146
100
AcDbEntity
  8
Layer_1
 62
7
100
AcDbSpline
 70
8
 71
3
 72
8
 73
4
 74
0
 40
0
 40
0
 40
0
 40
0
 40
1
 40
1
 40
1
 40
1
 10
6.023750
 20
30.982361
 30
0.0
 10
6.023750
 20
29.868050
 30
0.0
 10
5.117686
 20
28.964723
 30
0.0
 10
4.000000
 20
28.964723
 30
0.0
  0
SPLINE
  5
147
100
AcDbEntity
  8
Layer_1
 62
7
100
AcDbSpline
 70
8
 71
3
 72
8
 73
4
 74
0
 40
0
 40
0
 40
0
 40
0
 40
1
 40
1
 40
1
 40
1
 10
4.000000
 20
28.964723
 30
0.0
 10
2.882314
 20
28.964723
 30
0.0
 10
1.976250
 20
29.868050
 30
0.0
 10
1.976250
 20
30.982361
 30
0.0
  0
SPLINE
  5
148
100
AcDbEntity
  8
Layer_1
 62
7
100
AcDbSpline
 70
8
 71
3
 72
8
 73
4
 74
0
 40
0
 40
0
 40
0
 40
0
 40
1
 40
1
 40
1
 40
1
 10
1.976250
 20
30.982361
 30
0.0
 10
1.976250
 20
32.096672
 30
0.0
 10
2.882314
 20
32.999999
 30
0.0
 10
4.000000
 20
32.999999
 30
0.0
  0
SPLINE
  5
149
100
AcDbEntity
  8
Layer_1
 62
7
100
AcDbSpline
 70
8
 71
3
 72
8
 73
4
 74
0
 40
0
 40
0
 40
0
 40
0
 40
1
 40
1
 40
1
 40
1
 10
4.000000
 20
32.999999
 30
0.0
 10
5.117686
 20
32.999999
 30
0.0
 10
6.023750
 20
32.096672
 30
0.0
 10
6.023750
 20
30.982361
 30
0.0
  0
LINE
  5
14a
100
AcDbEntity
  8
Layer_1
 62
7
100
AcDbLine
 10
6.023750
 20
30.982361
 30
0.0
 11
6.023750
 21
30.982361
 31
0.0
  0
SPLINE
  5
14b
100
AcDbEntity
  8
Layer_1
 62
7
100
AcDbSpline
 70
8
 71
3
 72
8
 73
4
 74
0
 40
0
 40
0
 40
0
 40
0
 40
1
 40
1
 40
1
 40
1
 10
74.023752
 20
31.000000
 30
0.0
 10
74.023752
 20
29.885689
 30
0.0
 10
73.117688
 20
28.982362
 30
0.0
 10
72.000001
 20
28.982362
 30
0.0
  0
SPLINE
  5
14c
100
AcDbEntity
  8
Layer_1
 62
7
100
AcDbSpline
 70
8
 71
3
 72
8
 73
4
 74
0
 40
0
 40
0
 40
0
 40
0
 40
1
 40
1
 40
1
 40
1
 10
72.000001
 20
28.982362
 30
0.0
 10
70.882315
 20
28.982362
 30
0.0
 10
69.976251
 20
29.885689
 30
0.0
 10
69.976251
 20
31.000000
 30
0.0
  0
SPLINE
  5
14d
100
AcDbEntity
  8
Layer_1
 62
7
100
AcDbSpline
 70
8
 71
3
 72
8
 73
4
 74
0
 40
0
 40
0
 40
0
 40
0
 40
1
 40
1
 40
1
 40
1
 10
69.976251
 20
31.000000
 30
0.0
 10
69.976251
 20
32.114311
 30
0.0
 10
70.882315
 20
33.017638
 30
0.0
 10
72.000001
 20
33.017638
 30
0.0
  0
SPLINE
  5
14e
100
AcDbEntity
  8
Layer_1
 62
7
100
AcDbSpline
 70
8
 71
3
 72
8
 73
4
 74
0
 40
0
 40
0
 40
0
 40
0
 40
1
 40
1
 40
1
 40
1
 10
72.000001
 20
33.017638
 30
0.0
 10
73.117688
 20
33.017638
 30
0.0
 10
74.023752
 20
32.114311
 30
0.0
 10
74.023752
 20
31.000000
 30
0.0
  0
LINE
  5
14f
100
AcDbEntity
  8
Layer_1
 62
7
100
AcDbLine
 10
74.023752
 20
31.000000
 30
0.0
 11
74.023752
 21
31.000000
 31
0.0
  0
SPLINE
  5
150
100
AcDbEntity
  8
Layer_1
 62
7
100
AcDbSpline
 70
8
 71
3
 72
8
 73
4
 74
0
 40
0
 40
0
 40
0
 40
0
 40
1
 40
1
 40
1
 40
1
 10
20.023749
 20
31.017639
 30
0.0
 10
20.023749
 20
29.903328
 30
0.0
 10
19.117685
 20
29.000001
 30
0.0
 10
17.999998
 20
29.000001
 30
0.0
  0
SPLINE
  5
151
100
AcDbEntity
  8
Layer_1
 62
7
100
AcDbSpline
 70
8
 71
3
 72
8
 73
4
 74
0
 40
0
 40
0
 40
0
 40
0
 40
1
 40
1
 40
1
 40
1
 10
17.999998
 20
29.000001
 30
0.0
 10
16.882312
 20
29.000001
 30
0.0
 10
15.976248
 20
29.903328
 30
0.0
 10
15.976248
 20
31.017639
 30
0.0
  0
SPLINE
  5
152
100
AcDbEntity
  8
Layer_1
 62
7
100
AcDbSpline
 70
8
 71
3
 72
8
 73
4
 74
0
 40
0
 40
0
 40
0
 40
0
 40
1
 40
1
 40
1
 40
1
 10
15.976248
 20
31.017639
 30
0.0
 10
15.976248
 20
32.131950
 30
0.0
 10
16.882312
 20
33.035277
 30
0.0
 10
17.999998
 20
33.035277
 30
0.0
  0
SPLINE
  5
153
100
AcDbEntity
  8
Layer_1
 62
7
100
AcDbSpline
 70
8
 71
3
 72
8
 73
4
 74
0
 40
0
 40
0
 40
0
 40
0
 40
1
 40
1
 40
1
 40
1
 10
17.999998
 20
33.035277
 30
0.0
 10
19.117685
 20
33.035277
 30
0.0
 10
20.023749
 20
32.131950
 30
0.0
 10
20.023749
 20
31.017639
 30
0.0
  0
LINE
  5
154
100
AcDbEntity
  8
Layer_1
 62
7
100
AcDbLine
 10
20.023749
 20
31.017639
 30
0.0
 11
20.023749
 21
31.017639
 31
0.0
  0
SPLINE
  5
155
100
AcDbEntity
  8
Layer_1
 62
7
100
AcDbSpline
 70
8
 71
3
 72
8
 73
4
 74
0
 40
0
 40
0
 40
0
 40
0
 40
1
 40
1
 40
1
 40
1
 10
60.023751
 20
31.000000
 30
0.0
 10
60.023751
 20
29.885689
 30
0.0
 10
59.117687
 20
28.982362
 30
0.0
 10
58.000001
 20
28.982362
 30
0.0
  0
SPLINE
  5
156
100
AcDbEntity
  8
Layer_1
 62
7
100
AcDbSpline
 70
8
 71
3
 72
8
 73
4
 74
0
 40
0
 40
0
 40
0
 40
0
 40
1
 40
1
 40
1
 40
1
 10
58.000001
 20
28.982362
 30
0.0
 10
56.882315
 20
28.982362
 30
0.0
 10
55.976251
 20
29.885689
 30
0.0
 10
55.976251
 20
31.000000
 30
0.0
  0
SPLINE
  5
157
100
AcDbEntity
  8
Layer_1
 62
7
100
AcDbSpline
 70
8
 71
3
 72
8
 73
4
 74
0
 40
0
 40
0
 40
0
 40
0
 40
1
 40
1
 40
1
 40
1
 10
55.976251
 20
31.000000
 30
0.0
 10
55.976251
 20
32.114311
 30
0.0
 10
56.882315
 20
33.017638
 30
0.0
 10
58.000001
 20
33.017638
 30
0.0
  0
SPLINE
  5
158
100
AcDbEntity
  8
Layer_1
 62
7
100
AcDbSpline
 70
8
 71
3
 72
8
 73
4
 74
0
 40
0
 40
0
 40
0
 40
0
 40
1
 40
1
 40
1
 40
1
 10
58.000001
 20
33.017638
 30
0.0
 10
59.117687
 20
33.017638
 30
0.0
 10
60.023751
 20
32.114311
 30
0.0
 10
60.023751
 20
31.000000
 30
0.0
  0
LINE
  5
159
100
AcDbEntity
  8
Layer_1
 62
7
100
AcDbLine
 10
60.023751
 20
31.000000
 30
0.0
 11
60.023751
 21
31.000000
 31
0.0
  0
SPLINE
  5
15a
100
AcDbEntity
  8
Layer_1
 62
1
100
AcDbSpline
 70
8
 71
3
 72
8
 73
4
 74
0
 40
0
 40
0
 40
0
 40
0
 40
1
 40
1
 40
1
 40
1
 10
21.000000
 20
52.000003
 30
0.0
 10
21.000000
 20
50.895431
 30
0.0
 10
20.104570
 20
50.000002
 30
0.0
 10
19.000000
 20
50.000002
 30
0.0
  0
SPLINE
  5
15b
100
AcDbEntity
  8
Layer_1
 62
1
100
AcDbSpline
 70
8
 71
3
 72
8
 73
4
 74
0
 40
0
 40
0
 40
0
 40
0
 40
1
 40
1
 40
1
 40
1
 10
19.000000
 20
50.000002
 30
0.0
 10
17.895431
 20
50.000002
 30
0.0
 10
17.000000
 20
50.895431
 30
0.0
 10
17.000000
 20
52.000003
 30
0.0
  0
SPLINE
  5
15c
100
AcDbEntity
  8
Layer_1
 62
1
100
AcDbSpline
 70
8
 71
3
 72
8
 73
4
 74
0
 40
0
 40
0
 40
0
 40
0
 40
1
 40
1
 40
1
 40
1
 10
17.000000
 20
52.000003
 30
0.0
 10
17.000000
 20
53.104570
 30
0.0
 10
17.895431
 20
53.999999
 30
0.0
 10
19.000000
 20
53.999999
 30
0.0
  0
SPLINE
  5
15d
100
AcDbEntity
  8
Layer_1
 62
1
100
AcDbSpline
 70
8
 71
3
 72
8
 73
4
 74
0
 40
0
 40
0
 40
0
 40
0
 40
1
 40
1
 40
1
 40
1
 10
19.000000
 20
53.999999
 30
0.0
 10
20.104570
 20
53.999999
 30
0.0
 10
21.000000
 20
53.104570
 30
0.0
 10
21.000000
 20
52.000003
 30
0.0
  0
LINE
  5
15e
100
AcDbEntity
  8
Layer_1
 62
1
100
AcDbLine
 10
21.000000
 20
52.000003
 30
0.0
 11
21.000000
 21
52.000003
 31
0.0
  0
SPLINE
  5
15f
100
AcDbEntity
  8
Layer_1
 62
1
100
AcDbSpline
 70
8
 71
3
 72
8
 73
4
 74
0
 40
0
 40
0
 40
0
 40
0
 40
1
 40
1
 40
1
 40
1
 10
59.000001
 20
44.000003
 30
0.0
 10
59.000001
 20
42.895430
 30
0.0
 10
58.104571
 20
42.000001
 30
0.0
 10
57.000001
 20
42.000001
 30
0.0
  0
SPLINE
  5
160
100
AcDbEntity
  8
Layer_1
 62
1
100
AcDbSpline
 70
8
 71
3
 72
8
 73
4
 74
0
 40
0
 40
0
 40
0
 40
0
 40
1
 40
1
 40
1
 40
1
 10
57.000001
 20
42.000001
 30
0.0
 10
55.895432
 20
42.000001
 30
0.0
 10
55.000001
 20
42.895430
 30
0.0
 10
55.000001
 20
44.000003
 30
0.0
  0
SPLINE
  5
161
100
AcDbEntity
  8
Layer_1
 62
1
100
AcDbSpline
 70
8
 71
3
 72
8
 73
4
 74
0
 40
0
 40
0
 40
0
 40
0
 40
1
 40
1
 40
1
 40
1
 10
55.000001
 20
44.000003
 30
0.0
 10
55.000001
 20
45.104569
 30
0.0
 10
55.895432
 20
45.999998
 30
0.0
 10
57.000001
 20
45.999998
 30
0.0
  0
SPLINE
  5
162
100
AcDbEntity
  8
Layer_1
 62
1
100
AcDbSpline
 70
8
 71
3
 72
8
 73
4
 74
0
 40
0
 40
0
 40
0
 40
0
 40
1
 40
1
 40
1
 40
1
 10
57.000001
 20
45.999998
 30
0.0
 10
58.104571
 20
45.999998
 30
0.0
 10
59.000001
 20
45.104569
 30
0.0
 10
59.000001
 20
44.000003
 30
0.0
  0
LINE
  5
163
100
AcDbEntity
  8
Layer_1
 62
1
100
AcDbLine
 10
59.000001
 20
44.000003
 30
0.0
 11
59.000001
 21
44.000003
 31
0.0
  0
SPLINE
  5
164
100
AcDbEntity
  8
Layer_1
 62
1
100
AcDbSpline
 70
8
 71
3
 72
8
 73
4
 74
0
 40
0
 40
0
 40
0
 40
0
 40
1
 40
1
 40
1
 40
1
 10
59.000001
 20
52.000003
 30
0.0
 10
59.000001
 20
50.895431
 30
0.0
 10
58.104571
 20
50.000002
 30
0.0
 10
57.000001
 20
50.000002
 30
0.0
  0
SPLINE
  5
165
100
AcDbEntity
  8
Layer_1
 62
1
100
AcDbSpline
 70
8
 71
3
 72
8
 73
4
 74
0
 40
0
 40
0
 40
0
 40
0
 40
1
 40
1
 40
1
 40
1
 10
57.000001
 20
50.000002
 30
0.0
 10
55.895432
 20
50.000002
 30
0.0
 10
55.000001
 20
50.895431
 30
0.0
 10
55.000001
 20
52.000003
 30
0.0
  0
SPLINE
  5
166
100
AcDbEntity
  8
Layer_1
 62
1
100
AcDbSpline
 70
8
 71
3
 72
8
 73
4
 74
0
 40
0
 40
0
 40
0
 40
0
 40
1
 40
1
 40
1
 40
1
 10
55.000001
 20
52.000003
 30
0.0
 10
55.000001
 20
53.104570
 30
0.0
 10
55.895432
 20
53.999999
 30
0.0
 10
57.000001
 20
53.999999
 30
0.0
  0
SPLINE
  5
167
100
AcDbEntity
  8
Layer_1
 62
1
100
AcDbSpline
 70
8
 71
3
 72
8
 73
4
 74
0
 40
0
 40
0
 40
0
 40
0
 40
1
 40
1
 40
1
 40
1
 10
57.000001
 20
53.999999
 30
0.0
 10
58.104571
 20
53.999999
 30
0.0
 10
59.000001
 20
53.104570
 30
0.0
 10
59.000001
 20
52.000003
 30
0.0
  0
LINE
  5
168
100
AcDbEntity
  8
Layer_1
 62
1
100
AcDbLine
 10
59.000001
 20
52.000003
 30
0.0
 11
59.000001
 21
52.000003
 31
0.0
  0
ENDSEC
  0
SECTION
  2
OBJECTS
  0
DICTIONARY
  5
C
330
0
100
AcDbDictionary
  3
ACAD_GROUP
350
D
  3
ACAD_MLINESTYLE
350
17
  0
DICTIONARY
  5
D
330
C
100
AcDbDictionary
  0
DICTIONARY
  5
1A
330
C
100
AcDbDictionary
  0
DICTIONARY
  5
17
330
C
100
AcDbDictionary
  3
STANDARD
350
18
  0
DICTIONARY
  5
19
330
C
100
AcDbDictionary
  0
ENDSEC
  0
EOF
