  0
SECTION
  2
HEADER
  9
$ACADVER
  1
AC1014
  9
$HANDSEED
  5
FFFF
  9
$MEASUREMENT
 70
     1
  0
ENDSEC
  0
SECTION
  2
TABLES
  0
TABLE
  2
VPORT
  5
8
330
0
100
AcDbSymbolTable
 70
     4
  0
VPORT
  5
2E
330
8
100
AcDbSymbolTableRecord
100
AcDbViewportTableRecord
  2
*ACTIVE
 70
     0
 10
0.0
 20
0.0
 11
1.0
 21
1.0
 12
210.0
 22
148.5
 13
0.0
 23
0.0
 14
10.0
 24
10.0
 15
10.0
 25
10.0
 16
0.0
 26
0.0
 36
1.0
 17
0.0
 27
0.0
 37
0.0
 40
341.0
 41
1.24
 42
50.0
 43
0.0
 44
0.0
 50
0.0
 51
0.0
 71
     0
 72
   100
 73
     1
 74
     3
 75
     0
 76
     0
 77
     0
 78
     0
  0
ENDTAB
  0
TABLE
  2
LTYPE
  5
5
330
0
100
AcDbSymbolTable
 70
     1
  0
LTYPE
  5
14
330
5
100
AcDbSymbolTableRecord
100
AcDbLinetypeTableRecord
  2
BYBLOCK
 70
     0
  3

 72
    65
 73
     0
 40
0.0
  0
LTYPE
  5
15
330
5
100
AcDbSymbolTableRecord
100
AcDbLinetypeTableRecord
  2
BYLAYER
 70
     0
  3

 72
    65
 73
     0
 40
0.0
  0
LTYPE
  5
16
330
5
100
AcDbSymbolTableRecord
100
AcDbLinetypeTableRecord
  2
CONTINUOUS
 70
     0
  3
Solid line
 72
    65
 73
     0
 40
0.0
  0
ENDTAB
  0
TABLE
  2
LAYER
  5
2
100
AcDbSymbolTable
 70
2
  0
LAYER
  5
50
100
AcDbSymbolTableRecord
100
AcDbLayerTableRecord
  2
0
 70
0
  6
CONTINUOUS
  0
LAYER
  5
51
100
AcDbSymbolTableRecord
100
AcDbLayerTableRecord
  2
Layer_1
 70
0
  6
CONTINUOUS
  0
ENDTAB
  0
TABLE
  2
STYLE
  5
3
330
0
100
AcDbSymbolTable
 70
     1
  0
STYLE
  5
11
330
3
100
AcDbSymbolTableRecord
100
AcDbTextStyleTableRecord
  2
STANDARD
 70
     0
 40
0.0
 41
1.0
 50
0.0
 71
     0
 42
2.5
  3
txt
  4

  0
ENDTAB
  0
TABLE
  2
VIEW
  5
6
330
0
100
AcDbSymbolTable
 70
     0
  0
ENDTAB
  0
TABLE
  2
UCS
  5
7
330
0
100
AcDbSymbolTable
 70
     0
  0
ENDTAB
  0
TABLE
  2
APPID
  5
9
330
0
100
AcDbSymbolTable
 70
     2
  0
APPID
  5
12
330
9
100
AcDbSymbolTableRecord
100
AcDbRegAppTableRecord
  2
ACAD
 70
     0
  0
ENDTAB
  0
TABLE
  2
DIMSTYLE
  5
A
330
0
100
AcDbSymbolTable
 70
     1
  0
DIMSTYLE
105
27
330
A
100
AcDbSymbolTableRecord
100
AcDbDimStyleTableRecord
  2
ISO-25
 70
     0
  3

  4

  5

  6

  7

 40
1.0
 41
2.5
 42
0.625
 43
3.75
 44
1.25
 45
0.0
 46
0.0
 47
0.0
 48
0.0
140
2.5
141
2.5
142
0.0
143
0.03937007874016
144
1.0
145
0.0
146
1.0
147
0.625
 71
     0
 72
     0
 73
     0
 74
     0
 75
     0
 76
     0
 77
     1
 78
     8
170
     0
171
     3
172
     1
173
     0
174
     0
175
     0
176
     0
177
     0
178
     0
270
     2
271
     2
272
     2
273
     2
274
     3
340
11
275
     0
280
     0
281
     0
282
     0
283
     0
284
     8
285
     0
286
     0
287
     3
288
     0
  0
ENDTAB
  0
TABLE
  2
BLOCK_RECORD
  5
1
330
0
100
AcDbSymbolTable
 70
     1
  0
BLOCK_RECORD
  5
1F
330
1
100
AcDbSymbolTableRecord
100
AcDbBlockTableRecord
  2
*MODEL_SPACE
  0
BLOCK_RECORD
  5
1B
330
1
100
AcDbSymbolTableRecord
100
AcDbBlockTableRecord
  2
*PAPER_SPACE
  0
ENDTAB
  0
ENDSEC
  0
SECTION
  2
BLOCKS
  0
BLOCK
  5
20
330
1F
100
AcDbEntity
  8
0
100
AcDbBlockBegin
  2
*MODEL_SPACE
 70
     0
 10
0.0
 20
0.0
 30
0.0
  3
*MODEL_SPACE
  1

  0
ENDBLK
  5
21
330
1F
100
AcDbEntity
  8
0
100
AcDbBlockEnd
  0
BLOCK
  5
1C
330
1B
100
AcDbEntity
 67
     1
  8
0
100
AcDbBlockBegin
  2
*PAPER_SPACE
  1

  0
ENDBLK
  5
1D
330
1B
100
AcDbEntity
 67
     1
  8
0
100
AcDbBlockEnd
  0
ENDSEC
  0
SECTION
  2
ENTITIES
  0
SPLINE
  5
100
100
AcDbEntity
  8
Layer_1
 62
7
100
AcDbSpline
 70
8
 71
3
 72
8
 73
4
 74
0
 40
0
 40
0
 40
0
 40
0
 40
1
 40
1
 40
1
 40
1
 10
12.000000
 20
22.999999
 30
0.0
 10
10.000000
 20
22.999999
 30
0.0
 10
9.000000
 20
24.000000
 30
0.0
 10
9.000000
 20
25.999999
 30
0.0
  0
LINE
  5
101
100
AcDbEntity
  8
Layer_1
 62
7
100
AcDbLine
 10
9.000000
 20
25.999999
 30
0.0
 11
9.000000
 21
39.999999
 31
0.0
  0
SPLINE
  5
102
100
AcDbEntity
  8
Layer_1
 62
7
100
AcDbSpline
 70
8
 71
3
 72
8
 73
4
 74
0
 40
0
 40
0
 40
0
 40
0
 40
1
 40
1
 40
1
 40
1
 10
9.000000
 20
39.999999
 30
0.0
 10
9.000000
 20
42.000001
 30
0.0
 10
10.000000
 20
42.999999
 30
0.0
 10
12.000000
 20
42.999999
 30
0.0
  0
LINE
  5
103
100
AcDbEntity
  8
Layer_1
 62
7
100
AcDbLine
 10
12.000000
 20
42.999999
 30
0.0
 11
21.500000
 21
42.999999
 31
0.0
  0
LINE
  5
104
100
AcDbEntity
  8
Layer_1
 62
7
100
AcDbLine
 10
21.500000
 20
42.999999
 30
0.0
 11
21.500000
 21
31.000000
 31
0.0
  0
LINE
  5
105
100
AcDbEntity
  8
Layer_1
 62
7
100
AcDbLine
 10
21.500000
 20
31.000000
 30
0.0
 11
44.500001
 21
31.000000
 31
0.0
  0
LINE
  5
106
100
AcDbEntity
  8
Layer_1
 62
7
100
AcDbLine
 10
44.500001
 20
31.000000
 30
0.0
 11
44.500001
 21
42.999999
 31
0.0
  0
LINE
  5
107
100
AcDbEntity
  8
Layer_1
 62
7
100
AcDbLine
 10
44.500001
 20
42.999999
 30
0.0
 11
53.999999
 21
42.999999
 31
0.0
  0
SPLINE
  5
108
100
AcDbEntity
  8
Layer_1
 62
7
100
AcDbSpline
 70
8
 71
3
 72
8
 73
4
 74
0
 40
0
 40
0
 40
0
 40
0
 40
1
 40
1
 40
1
 40
1
 10
53.999999
 20
42.999999
 30
0.0
 10
56.000001
 20
42.999999
 30
0.0
 10
56.999999
 20
42.000001
 30
0.0
 10
56.999999
 20
39.999999
 30
0.0
  0
LINE
  5
109
100
AcDbEntity
  8
Layer_1
 62
7
100
AcDbLine
 10
56.999999
 20
39.999999
 30
0.0
 11
56.999999
 21
25.999999
 31
0.0
  0
SPLINE
  5
10a
100
AcDbEntity
  8
Layer_1
 62
7
100
AcDbSpline
 70
8
 71
3
 72
8
 73
4
 74
0
 40
0
 40
0
 40
0
 40
0
 40
1
 40
1
 40
1
 40
1
 10
56.999999
 20
25.999999
 30
0.0
 10
56.999999
 20
24.000000
 30
0.0
 10
56.000001
 20
22.999999
 30
0.0
 10
53.999999
 20
22.999999
 30
0.0
  0
LINE
  5
10b
100
AcDbEntity
  8
Layer_1
 62
7
100
AcDbLine
 10
53.999999
 20
22.999999
 30
0.0
 11
12.000000
 21
22.999999
 31
0.0
  0
SPLINE
  5
10c
100
AcDbEntity
  8
Layer_1
 62
1
100
AcDbSpline
 70
8
 71
3
 72
8
 73
4
 74
0
 40
0
 40
0
 40
0
 40
0
 40
1
 40
1
 40
1
 40
1
 10
21.000000
 20
36.999999
 30
0.0
 10
21.000000
 20
36.447713
 30
0.0
 10
20.552285
 20
35.999999
 30
0.0
 10
20.000000
 20
35.999999
 30
0.0
  0
SPLINE
  5
10d
100
AcDbEntity
  8
Layer_1
 62
1
100
AcDbSpline
 70
8
 71
3
 72
8
 73
4
 74
0
 40
0
 40
0
 40
0
 40
0
 40
1
 40
1
 40
1
 40
1
 10
20.000000
 20
35.999999
 30
0.0
 10
19.447715
 20
35.999999
 30
0.0
 10
19.000000
 20
36.447713
 30
0.0
 10
19.000000
 20
36.999999
 30
0.0
  0
SPLINE
  5
10e
100
AcDbEntity
  8
Layer_1
 62
1
100
AcDbSpline
 70
8
 71
3
 72
8
 73
4
 74
0
 40
0
 40
0
 40
0
 40
0
 40
1
 40
1
 40
1
 40
1
 10
19.000000
 20
36.999999
 30
0.0
 10
19.000000
 20
37.552283
 30
0.0
 10
19.447715
 20
37.999997
 30
0.0
 10
20.000000
 20
37.999997
 30
0.0
  0
SPLINE
  5
10f
100
AcDbEntity
  8
Layer_1
 62
1
100
AcDbSpline
 70
8
 71
3
 72
8
 73
4
 74
0
 40
0
 40
0
 40
0
 40
0
 40
1
 40
1
 40
1
 40
1
 10
20.000000
 20
37.999997
 30
0.0
 10
20.552285
 20
37.999997
 30
0.0
 10
21.000000
 20
37.552283
 30
0.0
 10
21.000000
 20
36.999999
 30
0.0
  0
LINE
  5
110
100
AcDbEntity
  8
Layer_1
 62
1
100
AcDbLine
 10
21.000000
 20
36.999999
 30
0.0
 11
21.000000
 21
36.999999
 31
0.0
  0
SPLINE
  5
111
100
AcDbEntity
  8
Layer_1
 62
1
100
AcDbSpline
 70
8
 71
3
 72
8
 73
4
 74
0
 40
0
 40
0
 40
0
 40
0
 40
1
 40
1
 40
1
 40
1
 10
46.999999
 20
36.999999
 30
0.0
 10
46.999999
 20
36.447713
 30
0.0
 10
46.552285
 20
35.999999
 30
0.0
 10
46.000001
 20
35.999999
 30
0.0
  0
SPLINE
  5
112
100
AcDbEntity
  8
Layer_1
 62
1
100
AcDbSpline
 70
8
 71
3
 72
8
 73
4
 74
0
 40
0
 40
0
 40
0
 40
0
 40
1
 40
1
 40
1
 40
1
 10
46.000001
 20
35.999999
 30
0.0
 10
45.447715
 20
35.999999
 30
0.0
 10
45.000000
 20
36.447713
 30
0.0
 10
45.000000
 20
36.999999
 30
0.0
  0
SPLINE
  5
113
100
AcDbEntity
  8
Layer_1
 62
1
100
AcDbSpline
 70
8
 71
3
 72
8
 73
4
 74
0
 40
0
 40
0
 40
0
 40
0
 40
1
 40
1
 40
1
 40
1
 10
45.000000
 20
36.999999
 30
0.0
 10
45.000000
 20
37.552283
 30
0.0
 10
45.447715
 20
37.999997
 30
0.0
 10
46.000001
 20
37.999997
 30
0.0
  0
SPLINE
  5
114
100
AcDbEntity
  8
Layer_1
 62
1
100
AcDbSpline
 70
8
 71
3
 72
8
 73
4
 74
0
 40
0
 40
0
 40
0
 40
0
 40
1
 40
1
 40
1
 40
1
 10
46.000001
 20
37.999997
 30
0.0
 10
46.552285
 20
37.999997
 30
0.0
 10
46.999999
 20
37.552283
 30
0.0
 10
46.999999
 20
36.999999
 30
0.0
  0
LINE
  5
115
100
AcDbEntity
  8
Layer_1
 62
1
100
AcDbLine
 10
46.999999
 20
36.999999
 30
0.0
 11
46.999999
 21
36.999999
 31
0.0
  0
SPLINE
  5
116
100
AcDbEntity
  8
Layer_1
 62
7
100
AcDbSpline
 70
8
 71
3
 72
8
 73
4
 74
0
 40
0
 40
0
 40
0
 40
0
 40
1
 40
1
 40
1
 40
1
 10
15.000000
 20
36.999997
 30
0.0
 10
15.000000
 20
35.895427
 30
0.0
 10
14.104569
 20
34.999998
 30
0.0
 10
13.000000
 20
34.999998
 30
0.0
  0
SPLINE
  5
117
100
AcDbEntity
  8
Layer_1
 62
7
100
AcDbSpline
 70
8
 71
3
 72
8
 73
4
 74
0
 40
0
 40
0
 40
0
 40
0
 40
1
 40
1
 40
1
 40
1
 10
13.000000
 20
34.999998
 30
0.0
 10
11.895431
 20
34.999998
 30
0.0
 10
11.000000
 20
35.895427
 30
0.0
 10
11.000000
 20
36.999997
 30
0.0
  0
SPLINE
  5
118
100
AcDbEntity
  8
Layer_1
 62
7
100
AcDbSpline
 70
8
 71
3
 72
8
 73
4
 74
0
 40
0
 40
0
 40
0
 40
0
 40
1
 40
1
 40
1
 40
1
 10
11.000000
 20
36.999997
 30
0.0
 10
11.000000
 20
38.104566
 30
0.0
 10
11.895431
 20
38.999998
 30
0.0
 10
13.000000
 20
38.999998
 30
0.0
  0
SPLINE
  5
119
100
AcDbEntity
  8
Layer_1
 62
7
100
AcDbSpline
 70
8
 71
3
 72
8
 73
4
 74
0
 40
0
 40
0
 40
0
 40
0
 40
1
 40
1
 40
1
 40
1
 10
13.000000
 20
38.999998
 30
0.0
 10
14.104569
 20
38.999998
 30
0.0
 10
15.000000
 20
38.104566
 30
0.0
 10
15.000000
 20
36.999997
 30
0.0
  0
LINE
  5
11a
100
AcDbEntity
  8
Layer_1
 62
7
100
AcDbLine
 10
15.000000
 20
36.999997
 30
0.0
 11
15.000000
 21
36.999997
 31
0.0
  0
SPLINE
  5
11b
100
AcDbEntity
  8
Layer_1
 62
7
100
AcDbSpline
 70
8
 71
3
 72
8
 73
4
 74
0
 40
0
 40
0
 40
0
 40
0
 40
1
 40
1
 40
1
 40
1
 10
15.000000
 20
27.000000
 30
0.0
 10
15.000000
 20
25.895430
 30
0.0
 10
14.104569
 20
25.000001
 30
0.0
 10
13.000000
 20
25.000001
 30
0.0
  0
SPLINE
  5
11c
100
AcDbEntity
  8
Layer_1
 62
7
100
AcDbSpline
 70
8
 71
3
 72
8
 73
4
 74
0
 40
0
 40
0
 40
0
 40
0
 40
1
 40
1
 40
1
 40
1
 10
13.000000
 20
25.000001
 30
0.0
 10
11.895431
 20
25.000001
 30
0.0
 10
11.000000
 20
25.895430
 30
0.0
 10
11.000000
 20
27.000000
 30
0.0
  0
SPLINE
  5
11d
100
AcDbEntity
  8
Layer_1
 62
7
100
AcDbSpline
 70
8
 71
3
 72
8
 73
4
 74
0
 40
0
 40
0
 40
0
 40
0
 40
1
 40
1
 40
1
 40
1
 10
11.000000
 20
27.000000
 30
0.0
 10
11.000000
 20
28.104569
 30
0.0
 10
11.895431
 20
29.000001
 30
0.0
 10
13.000000
 20
29.000001
 30
0.0
  0
SPLINE
  5
11e
100
AcDbEntity
  8
Layer_1
 62
7
100
AcDbSpline
 70
8
 71
3
 72
8
 73
4
 74
0
 40
0
 40
0
 40
0
 40
0
 40
1
 40
1
 40
1
 40
1
 10
13.000000
 20
29.000001
 30
0.0
 10
14.104569
 20
29.000001
 30
0.0
 10
15.000000
 20
28.104569
 30
0.0
 10
15.000000
 20
27.000000
 30
0.0
  0
LINE
  5
11f
100
AcDbEntity
  8
Layer_1
 62
7
100
AcDbLine
 10
15.000000
 20
27.000000
 30
0.0
 11
15.000000
 21
27.000000
 31
0.0
  0
SPLINE
  5
120
100
AcDbEntity
  8
Layer_1
 62
7
100
AcDbSpline
 70
8
 71
3
 72
8
 73
4
 74
0
 40
0
 40
0
 40
0
 40
0
 40
1
 40
1
 40
1
 40
1
 10
25.000000
 20
27.000000
 30
0.0
 10
25.000000
 20
25.895430
 30
0.0
 10
24.104569
 20
25.000001
 30
0.0
 10
23.000000
 20
25.000001
 30
0.0
  0
SPLINE
  5
121
100
AcDbEntity
  8
Layer_1
 62
7
100
AcDbSpline
 70
8
 71
3
 72
8
 73
4
 74
0
 40
0
 40
0
 40
0
 40
0
 40
1
 40
1
 40
1
 40
1
 10
23.000000
 20
25.000001
 30
0.0
 10
21.895430
 20
25.000001
 30
0.0
 10
21.000000
 20
25.895430
 30
0.0
 10
21.000000
 20
27.000000
 30
0.0
  0
SPLINE
  5
122
100
AcDbEntity
  8
Layer_1
 62
7
100
AcDbSpline
 70
8
 71
3
 72
8
 73
4
 74
0
 40
0
 40
0
 40
0
 40
0
 40
1
 40
1
 40
1
 40
1
 10
21.000000
 20
27.000000
 30
0.0
 10
21.000000
 20
28.104569
 30
0.0
 10
21.895430
 20
29.000001
 30
0.0
 10
23.000000
 20
29.000001
 30
0.0
  0
SPLINE
  5
123
100
AcDbEntity
  8
Layer_1
 62
7
100
AcDbSpline
 70
8
 71
3
 72
8
 73
4
 74
0
 40
0
 40
0
 40
0
 40
0
 40
1
 40
1
 40
1
 40
1
 10
23.000000
 20
29.000001
 30
0.0
 10
24.104569
 20
29.000001
 30
0.0
 10
25.000000
 20
28.104569
 30
0.0
 10
25.000000
 20
27.000000
 30
0.0
  0
LINE
  5
124
100
AcDbEntity
  8
Layer_1
 62
7
100
AcDbLine
 10
25.000000
 20
27.000000
 30
0.0
 11
25.000000
 21
27.000000
 31
0.0
  0
SPLINE
  5
125
100
AcDbEntity
  8
Layer_1
 62
7
100
AcDbSpline
 70
8
 71
3
 72
8
 73
4
 74
0
 40
0
 40
0
 40
0
 40
0
 40
1
 40
1
 40
1
 40
1
 10
34.999999
 20
27.000000
 30
0.0
 10
34.999999
 20
25.895430
 30
0.0
 10
34.104568
 20
25.000001
 30
0.0
 10
32.999999
 20
25.000001
 30
0.0
  0
SPLINE
  5
126
100
AcDbEntity
  8
Layer_1
 62
7
100
AcDbSpline
 70
8
 71
3
 72
8
 73
4
 74
0
 40
0
 40
0
 40
0
 40
0
 40
1
 40
1
 40
1
 40
1
 10
32.999999
 20
25.000001
 30
0.0
 10
31.895429
 20
25.000001
 30
0.0
 10
30.999999
 20
25.895430
 30
0.0
 10
30.999999
 20
27.000000
 30
0.0
  0
SPLINE
  5
127
100
AcDbEntity
  8
Layer_1
 62
7
100
AcDbSpline
 70
8
 71
3
 72
8
 73
4
 74
0
 40
0
 40
0
 40
0
 40
0
 40
1
 40
1
 40
1
 40
1
 10
30.999999
 20
27.000000
 30
0.0
 10
30.999999
 20
28.104569
 30
0.0
 10
31.895429
 20
29.000001
 30
0.0
 10
32.999999
 20
29.000001
 30
0.0
  0
SPLINE
  5
128
100
AcDbEntity
  8
Layer_1
 62
7
100
AcDbSpline
 70
8
 71
3
 72
8
 73
4
 74
0
 40
0
 40
0
 40
0
 40
0
 40
1
 40
1
 40
1
 40
1
 10
32.999999
 20
29.000001
 30
0.0
 10
34.104568
 20
29.000001
 30
0.0
 10
34.999999
 20
28.104569
 30
0.0
 10
34.999999
 20
27.000000
 30
0.0
  0
LINE
  5
129
100
AcDbEntity
  8
Layer_1
 62
7
100
AcDbLine
 10
34.999999
 20
27.000000
 30
0.0
 11
34.999999
 21
27.000000
 31
0.0
  0
SPLINE
  5
12a
100
AcDbEntity
  8
Layer_1
 62
7
100
AcDbSpline
 70
8
 71
3
 72
8
 73
4
 74
0
 40
0
 40
0
 40
0
 40
0
 40
1
 40
1
 40
1
 40
1
 10
45.000001
 20
27.000000
 30
0.0
 10
45.000001
 20
25.895430
 30
0.0
 10
44.104570
 20
25.000001
 30
0.0
 10
43.000001
 20
25.000001
 30
0.0
  0
SPLINE
  5
12b
100
AcDbEntity
  8
Layer_1
 62
7
100
AcDbSpline
 70
8
 71
3
 72
8
 73
4
 74
0
 40
0
 40
0
 40
0
 40
0
 40
1
 40
1
 40
1
 40
1
 10
43.000001
 20
25.000001
 30
0.0
 10
41.895431
 20
25.000001
 30
0.0
 10
41.000000
 20
25.895430
 30
0.0
 10
41.000000
 20
27.000000
 30
0.0
  0
SPLINE
  5
12c
100
AcDbEntity
  8
Layer_1
 62
7
100
AcDbSpline
 70
8
 71
3
 72
8
 73
4
 74
0
 40
0
 40
0
 40
0
 40
0
 40
1
 40
1
 40
1
 40
1
 10
41.000000
 20
27.000000
 30
0.0
 10
41.000000
 20
28.104569
 30
0.0
 10
41.895431
 20
29.000001
 30
0.0
 10
43.000001
 20
29.000001
 30
0.0
  0
SPLINE
  5
12d
100
AcDbEntity
  8
Layer_1
 62
7
100
AcDbSpline
 70
8
 71
3
 72
8
 73
4
 74
0
 40
0
 40
0
 40
0
 40
0
 40
1
 40
1
 40
1
 40
1
 10
43.000001
 20
29.000001
 30
0.0
 10
44.104570
 20
29.000001
 30
0.0
 10
45.000001
 20
28.104569
 30
0.0
 10
45.000001
 20
27.000000
 30
0.0
  0
LINE
  5
12e
100
AcDbEntity
  8
Layer_1
 62
7
100
AcDbLine
 10
45.000001
 20
27.000000
 30
0.0
 11
45.000001
 21
27.000000
 31
0.0
  0
SPLINE
  5
12f
100
AcDbEntity
  8
Layer_1
 62
7
100
AcDbSpline
 70
8
 71
3
 72
8
 73
4
 74
0
 40
0
 40
0
 40
0
 40
0
 40
1
 40
1
 40
1
 40
1
 10
55.000000
 20
27.000000
 30
0.0
 10
55.000000
 20
25.895430
 30
0.0
 10
54.104570
 20
25.000001
 30
0.0
 10
53.000000
 20
25.000001
 30
0.0
  0
SPLINE
  5
130
100
AcDbEntity
  8
Layer_1
 62
7
100
AcDbSpline
 70
8
 71
3
 72
8
 73
4
 74
0
 40
0
 40
0
 40
0
 40
0
 40
1
 40
1
 40
1
 40
1
 10
53.000000
 20
25.000001
 30
0.0
 10
51.895431
 20
25.000001
 30
0.0
 10
51.000000
 20
25.895430
 30
0.0
 10
51.000000
 20
27.000000
 30
0.0
  0
SPLINE
  5
131
100
AcDbEntity
  8
Layer_1
 62
7
100
AcDbSpline
 70
8
 71
3
 72
8
 73
4
 74
0
 40
0
 40
0
 40
0
 40
0
 40
1
 40
1
 40
1
 40
1
 10
51.000000
 20
27.000000
 30
0.0
 10
51.000000
 20
28.104569
 30
0.0
 10
51.895431
 20
29.000001
 30
0.0
 10
53.000000
 20
29.000001
 30
0.0
  0
SPLINE
  5
132
100
AcDbEntity
  8
Layer_1
 62
7
100
AcDbSpline
 70
8
 71
3
 72
8
 73
4
 74
0
 40
0
 40
0
 40
0
 40
0
 40
1
 40
1
 40
1
 40
1
 10
53.000000
 20
29.000001
 30
0.0
 10
54.104570
 20
29.000001
 30
0.0
 10
55.000000
 20
28.104569
 30
0.0
 10
55.000000
 20
27.000000
 30
0.0
  0
LINE
  5
133
100
AcDbEntity
  8
Layer_1
 62
7
100
AcDbLine
 10
55.000000
 20
27.000000
 30
0.0
 11
55.000000
 21
27.000000
 31
0.0
  0
SPLINE
  5
134
100
AcDbEntity
  8
Layer_1
 62
7
100
AcDbSpline
 70
8
 71
3
 72
8
 73
4
 74
0
 40
0
 40
0
 40
0
 40
0
 40
1
 40
1
 40
1
 40
1
 10
55.000000
 20
36.999997
 30
0.0
 10
55.000000
 20
35.895427
 30
0.0
 10
54.104570
 20
34.999998
 30
0.0
 10
53.000000
 20
34.999998
 30
0.0
  0
SPLINE
  5
135
100
AcDbEntity
  8
Layer_1
 62
7
100
AcDbSpline
 70
8
 71
3
 72
8
 73
4
 74
0
 40
0
 40
0
 40
0
 40
0
 40
1
 40
1
 40
1
 40
1
 10
53.000000
 20
34.999998
 30
0.0
 10
51.895431
 20
34.999998
 30
0.0
 10
51.000000
 20
35.895427
 30
0.0
 10
51.000000
 20
36.999997
 30
0.0
  0
SPLINE
  5
136
100
AcDbEntity
  8
Layer_1
 62
7
100
AcDbSpline
 70
8
 71
3
 72
8
 73
4
 74
0
 40
0
 40
0
 40
0
 40
0
 40
1
 40
1
 40
1
 40
1
 10
51.000000
 20
36.999997
 30
0.0
 10
51.000000
 20
38.104566
 30
0.0
 10
51.895431
 20
38.999998
 30
0.0
 10
53.000000
 20
38.999998
 30
0.0
  0
SPLINE
  5
137
100
AcDbEntity
  8
Layer_1
 62
7
100
AcDbSpline
 70
8
 71
3
 72
8
 73
4
 74
0
 40
0
 40
0
 40
0
 40
0
 40
1
 40
1
 40
1
 40
1
 10
53.000000
 20
38.999998
 30
0.0
 10
54.104570
 20
38.999998
 30
0.0
 10
55.000000
 20
38.104566
 30
0.0
 10
55.000000
 20
36.999997
 30
0.0
  0
LINE
  5
138
100
AcDbEntity
  8
Layer_1
 62
7
100
AcDbLine
 10
55.000000
 20
36.999997
 30
0.0
 11
55.000000
 21
36.999997
 31
0.0
  0
ENDSEC
  0
SECTION
  2
OBJECTS
  0
DICTIONARY
  5
C
330
0
100
AcDbDictionary
  3
ACAD_GROUP
350
D
  3
ACAD_MLINESTYLE
350
17
  0
DICTIONARY
  5
D
330
C
100
AcDbDictionary
  0
DICTIONARY
  5
1A
330
C
100
AcDbDictionary
  0
DICTIONARY
  5
17
330
C
100
AcDbDictionary
  3
STANDARD
350
18
  0
DICTIONARY
  5
19
330
C
100
AcDbDictionary
  0
ENDSEC
  0
EOF
