<?xml version="1.0" encoding="UTF-8" standalone="no"?>
<!-- Created with Inkscape (http://www.inkscape.org/) -->

<svg
   xmlns:dc="http://purl.org/dc/elements/1.1/"
   xmlns:cc="http://creativecommons.org/ns#"
   xmlns:rdf="http://www.w3.org/1999/02/22-rdf-syntax-ns#"
   xmlns:svg="http://www.w3.org/2000/svg"
   xmlns="http://www.w3.org/2000/svg"
   xmlns:sodipodi="http://sodipodi.sourceforge.net/DTD/sodipodi-0.dtd"
   xmlns:inkscape="http://www.inkscape.org/namespaces/inkscape"
   width="744.09448"
   height="1052.3622"
   id="svg2"
   version="1.1"
   inkscape:version="0.48.4 r9939"
   sodipodi:docname="крепление-оси.svg">
  <defs
     id="defs4" />
  <sodipodi:namedview
     id="base"
     pagecolor="#ffffff"
     bordercolor="#666666"
     borderopacity="1.0"
     inkscape:pageopacity="0.0"
     inkscape:pageshadow="2"
     inkscape:zoom="1.5839192"
     inkscape:cx="250.28223"
     inkscape:cy="5.9418319"
     inkscape:document-units="mm"
     inkscape:current-layer="layer1"
     showgrid="true"
     inkscape:window-width="1366"
     inkscape:window-height="705"
     inkscape:window-x="-8"
     inkscape:window-y="-8"
     inkscape:window-maximized="1"
     units="mm"
     showguides="true"
     inkscape:guide-bbox="true"
     inkscape:snap-bbox="true">
    <sodipodi:guide
       orientation="1,0"
       position="0,283.46457"
       id="guide2990" />
    <sodipodi:guide
       orientation="1,0"
       position="389.76378,235.62992"
       id="guide2992" />
    <sodipodi:guide
       orientation="0,1"
       position="386.22047,70.866142"
       id="guide2996" />
    <sodipodi:guide
       orientation="0,1"
       position="-53.149606,0"
       id="guide3044" />
    <inkscape:grid
       type="xygrid"
       id="grid3046"
       empspacing="5"
       visible="true"
       enabled="true"
       snapvisiblegridlinesonly="true"
       units="mm"
       spacingx="0.5mm"
       spacingy="0.5mm"
       color="#ec00ae"
       opacity="0.1254902"
       empcolor="#ef000d"
       empopacity="0.25098039" />
    <sodipodi:guide
       orientation="1,0"
       position="194.88189,99.212598"
       id="guide7652" />
  </sodipodi:namedview>
  <metadata
     id="metadata7">
    <rdf:RDF>
      <cc:Work
         rdf:about="">
        <dc:format>image/svg+xml</dc:format>
        <dc:type
           rdf:resource="http://purl.org/dc/dcmitype/StillImage" />
        <dc:title></dc:title>
      </cc:Work>
    </rdf:RDF>
  </metadata>
  <g
     inkscape:label="Layer 1"
     inkscape:groupmode="layer"
     id="layer1"
     transform="translate(0,-2.5390623e-6)">
    <path
       style="fill:#ffe680;fill-opacity:1;stroke:none"
       d="m 70.866147,1016.929 0,-8.8582 0,-8.85825 -5.177664,-12.53884 -12.538876,-5.17768 -17.71656,-2e-5 -17.71656,-2e-5 -12.5388514,5.17768 -5.1776382823271,12.53888 -2.5e-6,17.71655 -2.5e-6,17.7165 5.1776387823271,12.5389 12.5388519,5.1777 17.716562,0 17.716562,-10e-5 12.538876,-5.1777 5.177664,-12.5389 0,-8.8582 0,-8.8583"
       id="rect2987-2"
       inkscape:connector-curvature="0"
       sodipodi:nodetypes="ccccccccccccccccccc" />
    <path
       transform="matrix(0.5330837,0,0,0.46937589,42.760774,729.78343)"
       style="fill:#0044aa;fill-opacity:1;stroke:none"
       d="m 32.781814,574.01575 -3.893613,10.67586 -9.400011,4.42209 -9.400012,-4.42209 -3.8936122,-10.67586 3.8936122,-10.67586 9.400012,-4.42209 9.400011,4.42209 z"
       id="path3790-61-1-2"
       inkscape:connector-curvature="0"
       sodipodi:nodetypes="ccccccccc" />
    <path
       transform="matrix(0.5330837,0,0,0.46937589,7.3277012,729.78343)"
       style="fill:#0044aa;fill-opacity:1;stroke:none"
       d="m 32.781814,574.01575 -3.893613,10.67586 -9.400011,4.42209 -9.400012,-4.42209 -3.8936122,-10.67586 3.8936122,-10.67586 9.400012,-4.42209 9.400011,4.42209 z"
       id="path3790-61-3-2-1"
       inkscape:connector-curvature="0"
       sodipodi:nodetypes="ccccccccc" />
    <path
       transform="matrix(0.5330837,0,0,0.46937589,42.760771,765.2165)"
       style="fill:#0044aa;fill-opacity:1;stroke:none"
       d="m 32.781814,574.01575 -3.893613,10.67586 -9.400011,4.42209 -9.400012,-4.42209 -3.8936122,-10.67586 3.8936122,-10.67586 9.400012,-4.42209 9.400011,4.42209 z"
       id="path3790-5-1-7-9"
       inkscape:connector-curvature="0"
       sodipodi:nodetypes="ccccccccc" />
    <path
       transform="matrix(0.5330837,0,0,0.46937589,7.3276992,765.2165)"
       style="fill:#0044aa;fill-opacity:1;stroke:none"
       d="m 32.781814,574.01575 -3.893613,10.67586 -9.400011,4.42209 -9.400012,-4.42209 -3.8936122,-10.67586 3.8936122,-10.67586 9.400012,-4.42209 9.400011,4.42209 z"
       id="path3790-5-4-5-22-5"
       inkscape:connector-curvature="0"
       sodipodi:nodetypes="ccccccccc" />
  </g>
</svg>
