  0
SECTION
  2
HEADER
  9
$ACADVER
  1
AC1014
  9
$HANDSEED
  5
FFFF
  9
$MEASUREMENT
 70
     1
  0
ENDSEC
  0
SECTION
  2
TABLES
  0
TABLE
  2
VPORT
  5
8
330
0
100
AcDbSymbolTable
 70
     4
  0
VPORT
  5
2E
330
8
100
AcDbSymbolTableRecord
100
AcDbViewportTableRecord
  2
*ACTIVE
 70
     0
 10
0.0
 20
0.0
 11
1.0
 21
1.0
 12
210.0
 22
148.5
 13
0.0
 23
0.0
 14
10.0
 24
10.0
 15
10.0
 25
10.0
 16
0.0
 26
0.0
 36
1.0
 17
0.0
 27
0.0
 37
0.0
 40
341.0
 41
1.24
 42
50.0
 43
0.0
 44
0.0
 50
0.0
 51
0.0
 71
     0
 72
   100
 73
     1
 74
     3
 75
     0
 76
     0
 77
     0
 78
     0
  0
ENDTAB
  0
TABLE
  2
LTYPE
  5
5
330
0
100
AcDbSymbolTable
 70
     1
  0
LTYPE
  5
14
330
5
100
AcDbSymbolTableRecord
100
AcDbLinetypeTableRecord
  2
BYBLOCK
 70
     0
  3

 72
    65
 73
     0
 40
0.0
  0
LTYPE
  5
15
330
5
100
AcDbSymbolTableRecord
100
AcDbLinetypeTableRecord
  2
BYLAYER
 70
     0
  3

 72
    65
 73
     0
 40
0.0
  0
LTYPE
  5
16
330
5
100
AcDbSymbolTableRecord
100
AcDbLinetypeTableRecord
  2
CONTINUOUS
 70
     0
  3
Solid line
 72
    65
 73
     0
 40
0.0
  0
ENDTAB
  0
TABLE
  2
LAYER
  5
2
100
AcDbSymbolTable
 70
2
  0
LAYER
  5
50
100
AcDbSymbolTableRecord
100
AcDbLayerTableRecord
  2
0
 70
0
  6
CONTINUOUS
  0
LAYER
  5
51
100
AcDbSymbolTableRecord
100
AcDbLayerTableRecord
  2
Layer_1
 70
0
  6
CONTINUOUS
  0
ENDTAB
  0
TABLE
  2
STYLE
  5
3
330
0
100
AcDbSymbolTable
 70
     1
  0
STYLE
  5
11
330
3
100
AcDbSymbolTableRecord
100
AcDbTextStyleTableRecord
  2
STANDARD
 70
     0
 40
0.0
 41
1.0
 50
0.0
 71
     0
 42
2.5
  3
txt
  4

  0
ENDTAB
  0
TABLE
  2
VIEW
  5
6
330
0
100
AcDbSymbolTable
 70
     0
  0
ENDTAB
  0
TABLE
  2
UCS
  5
7
330
0
100
AcDbSymbolTable
 70
     0
  0
ENDTAB
  0
TABLE
  2
APPID
  5
9
330
0
100
AcDbSymbolTable
 70
     2
  0
APPID
  5
12
330
9
100
AcDbSymbolTableRecord
100
AcDbRegAppTableRecord
  2
ACAD
 70
     0
  0
ENDTAB
  0
TABLE
  2
DIMSTYLE
  5
A
330
0
100
AcDbSymbolTable
 70
     1
  0
DIMSTYLE
105
27
330
A
100
AcDbSymbolTableRecord
100
AcDbDimStyleTableRecord
  2
ISO-25
 70
     0
  3

  4

  5

  6

  7

 40
1.0
 41
2.5
 42
0.625
 43
3.75
 44
1.25
 45
0.0
 46
0.0
 47
0.0
 48
0.0
140
2.5
141
2.5
142
0.0
143
0.03937007874016
144
1.0
145
0.0
146
1.0
147
0.625
 71
     0
 72
     0
 73
     0
 74
     0
 75
     0
 76
     0
 77
     1
 78
     8
170
     0
171
     3
172
     1
173
     0
174
     0
175
     0
176
     0
177
     0
178
     0
270
     2
271
     2
272
     2
273
     2
274
     3
340
11
275
     0
280
     0
281
     0
282
     0
283
     0
284
     8
285
     0
286
     0
287
     3
288
     0
  0
ENDTAB
  0
TABLE
  2
BLOCK_RECORD
  5
1
330
0
100
AcDbSymbolTable
 70
     1
  0
BLOCK_RECORD
  5
1F
330
1
100
AcDbSymbolTableRecord
100
AcDbBlockTableRecord
  2
*MODEL_SPACE
  0
BLOCK_RECORD
  5
1B
330
1
100
AcDbSymbolTableRecord
100
AcDbBlockTableRecord
  2
*PAPER_SPACE
  0
ENDTAB
  0
ENDSEC
  0
SECTION
  2
BLOCKS
  0
BLOCK
  5
20
330
1F
100
AcDbEntity
  8
0
100
AcDbBlockBegin
  2
*MODEL_SPACE
 70
     0
 10
0.0
 20
0.0
 30
0.0
  3
*MODEL_SPACE
  1

  0
ENDBLK
  5
21
330
1F
100
AcDbEntity
  8
0
100
AcDbBlockEnd
  0
BLOCK
  5
1C
330
1B
100
AcDbEntity
 67
     1
  8
0
100
AcDbBlockBegin
  2
*PAPER_SPACE
  1

  0
ENDBLK
  5
1D
330
1B
100
AcDbEntity
 67
     1
  8
0
100
AcDbBlockEnd
  0
ENDSEC
  0
SECTION
  2
ENTITIES
  0
LWPOLYLINE
  5
100
100
AcDbEntity
  8
Layer_1
 62
7
100
AcDbPolyline
 90
65
 70
0
 10
4.999987
 20
0.000001
 30
0.0
 10
54.999992
 20
0.000001
 30
0.0
 10
104.999999
 20
0.000001
 30
0.0
 10
108.538749
 20
1.461263
 30
0.0
 10
110.000000
 20
5.000019
 30
0.0
 10
110.000000
 20
7.500028
 30
0.0
 10
110.000000
 20
10.000037
 30
0.0
 10
108.249999
 20
10.000037
 30
0.0
 10
106.499999
 20
10.000037
 30
0.0
 10
106.499999
 20
8.750018
 30
0.0
 10
106.499999
 20
7.500028
 30
0.0
 10
103.000000
 20
7.500028
 30
0.0
 10
99.500001
 20
7.500028
 30
0.0
 10
99.500001
 20
8.750018
 30
0.0
 10
99.500001
 20
10.000037
 30
0.0
 10
97.750001
 20
10.000037
 30
0.0
 10
96.000000
 20
10.000037
 30
0.0
 10
96.000000
 20
20.000028
 30
0.0
 10
96.000000
 20
30.000028
 30
0.0
 10
97.750001
 20
30.000028
 30
0.0
 10
99.500001
 20
30.000028
 30
0.0
 10
99.500001
 20
31.250027
 30
0.0
 10
99.500001
 20
32.500029
 30
0.0
 10
103.000000
 20
32.500029
 30
0.0
 10
106.499999
 20
32.500029
 30
0.0
 10
106.499999
 20
31.250027
 30
0.0
 10
106.499999
 20
30.000025
 30
0.0
 10
108.249999
 20
30.000025
 30
0.0
 10
110.000000
 20
30.000028
 30
0.0
 10
110.000000
 20
32.500026
 30
0.0
 10
110.000000
 20
35.000027
 30
0.0
 10
108.538749
 20
38.538769
 30
0.0
 10
104.999999
 20
40.000025
 30
0.0
 10
54.999992
 20
40.000031
 30
0.0
 10
4.999987
 20
40.000039
 30
0.0
 10
1.461245
 20
38.538786
 30
0.0
 10
0.000000
 20
35.000041
 30
0.0
 10
0.000000
 20
32.500034
 30
0.0
 10
0.000000
 20
30.000028
 30
0.0
 10
1.750000
 20
30.000028
 30
0.0
 10
3.500000
 20
30.000025
 30
0.0
 10
3.500000
 20
31.250024
 30
0.0
 10
3.500000
 20
32.500026
 30
0.0
 10
7.000000
 20
32.500026
 30
0.0
 10
10.500000
 20
32.500029
 30
0.0
 10
10.500000
 20
31.250027
 30
0.0
 10
10.500000
 20
30.000025
 30
0.0
 10
12.250000
 20
30.000025
 30
0.0
 10
14.000000
 20
30.000025
 30
0.0
 10
14.000000
 20
20.000037
 30
0.0
 10
14.000000
 20
10.000065
 30
0.0
 10
12.250000
 20
10.000037
 30
0.0
 10
10.500000
 20
10.000037
 30
0.0
 10
10.500000
 20
8.750018
 30
0.0
 10
10.500000
 20
7.500028
 30
0.0
 10
7.000000
 20
7.500028
 30
0.0
 10
3.500000
 20
7.500028
 30
0.0
 10
3.500000
 20
8.750018
 30
0.0
 10
3.500000
 20
10.000037
 30
0.0
 10
1.750000
 20
10.000037
 30
0.0
 10
0.000000
 20
10.000037
 30
0.0
 10
0.000000
 20
7.500028
 30
0.0
 10
0.000000
 20
5.000019
 30
0.0
 10
1.461245
 20
1.461263
 30
0.0
 10
4.999987
 20
0.000001
 30
0.0
  0
LWPOLYLINE
  5
101
100
AcDbEntity
  8
Layer_1
 62
7
100
AcDbPolyline
 90
9
 70
0
 10
37.000002
 20
25.000027
 30
0.0
 10
36.414216
 20
23.585814
 30
0.0
 10
35.000003
 20
23.000028
 30
0.0
 10
33.585788
 20
23.585814
 30
0.0
 10
33.000002
 20
25.000027
 30
0.0
 10
33.585788
 20
26.414240
 30
0.0
 10
35.000003
 20
27.000029
 30
0.0
 10
36.414216
 20
26.414240
 30
0.0
 10
37.000002
 20
25.000027
 30
0.0
  0
LWPOLYLINE
  5
102
100
AcDbEntity
  8
Layer_1
 62
7
100
AcDbPolyline
 90
9
 70
0
 10
37.000002
 20
35.000027
 30
0.0
 10
36.414216
 20
33.585814
 30
0.0
 10
35.000003
 20
33.000028
 30
0.0
 10
33.585788
 20
33.585814
 30
0.0
 10
33.000002
 20
35.000027
 30
0.0
 10
33.585788
 20
36.414239
 30
0.0
 10
35.000003
 20
37.000028
 30
0.0
 10
36.414216
 20
36.414239
 30
0.0
 10
37.000002
 20
35.000027
 30
0.0
  0
LWPOLYLINE
  5
103
100
AcDbEntity
  8
Layer_1
 62
7
100
AcDbPolyline
 90
9
 70
0
 10
27.000005
 20
25.000027
 30
0.0
 10
26.414218
 20
23.585814
 30
0.0
 10
25.000005
 20
23.000028
 30
0.0
 10
23.585791
 20
23.585814
 30
0.0
 10
23.000005
 20
25.000027
 30
0.0
 10
23.585791
 20
26.414240
 30
0.0
 10
25.000005
 20
27.000029
 30
0.0
 10
26.414218
 20
26.414240
 30
0.0
 10
27.000005
 20
25.000027
 30
0.0
  0
LWPOLYLINE
  5
104
100
AcDbEntity
  8
Layer_1
 62
7
100
AcDbPolyline
 90
9
 70
0
 10
27.000005
 20
35.000027
 30
0.0
 10
26.414218
 20
33.585814
 30
0.0
 10
25.000005
 20
33.000028
 30
0.0
 10
23.585791
 20
33.585814
 30
0.0
 10
23.000005
 20
35.000027
 30
0.0
 10
23.585791
 20
36.414239
 30
0.0
 10
25.000005
 20
37.000028
 30
0.0
 10
26.414218
 20
36.414239
 30
0.0
 10
27.000005
 20
35.000027
 30
0.0
  0
LWPOLYLINE
  5
105
100
AcDbEntity
  8
Layer_1
 62
7
100
AcDbPolyline
 90
9
 70
0
 10
57.000002
 20
25.000027
 30
0.0
 10
56.414216
 20
23.585814
 30
0.0
 10
55.000003
 20
23.000028
 30
0.0
 10
53.585787
 20
23.585814
 30
0.0
 10
53.000001
 20
25.000027
 30
0.0
 10
53.585787
 20
26.414240
 30
0.0
 10
55.000003
 20
27.000029
 30
0.0
 10
56.414216
 20
26.414240
 30
0.0
 10
57.000002
 20
25.000027
 30
0.0
  0
LWPOLYLINE
  5
106
100
AcDbEntity
  8
Layer_1
 62
7
100
AcDbPolyline
 90
9
 70
0
 10
57.000002
 20
35.000027
 30
0.0
 10
56.414216
 20
33.585814
 30
0.0
 10
55.000003
 20
33.000028
 30
0.0
 10
53.585787
 20
33.585814
 30
0.0
 10
53.000001
 20
35.000027
 30
0.0
 10
53.585787
 20
36.414239
 30
0.0
 10
55.000003
 20
37.000028
 30
0.0
 10
56.414216
 20
36.414239
 30
0.0
 10
57.000002
 20
35.000027
 30
0.0
  0
LWPOLYLINE
  5
107
100
AcDbEntity
  8
Layer_1
 62
7
100
AcDbPolyline
 90
9
 70
0
 10
47.000002
 20
25.000027
 30
0.0
 10
46.414216
 20
23.585814
 30
0.0
 10
45.000003
 20
23.000028
 30
0.0
 10
43.585788
 20
23.585814
 30
0.0
 10
43.000001
 20
25.000027
 30
0.0
 10
43.585788
 20
26.414240
 30
0.0
 10
45.000003
 20
27.000029
 30
0.0
 10
46.414216
 20
26.414240
 30
0.0
 10
47.000002
 20
25.000027
 30
0.0
  0
LWPOLYLINE
  5
108
100
AcDbEntity
  8
Layer_1
 62
7
100
AcDbPolyline
 90
9
 70
0
 10
47.000002
 20
35.000027
 30
0.0
 10
46.414216
 20
33.585814
 30
0.0
 10
45.000003
 20
33.000028
 30
0.0
 10
43.585788
 20
33.585814
 30
0.0
 10
43.000001
 20
35.000027
 30
0.0
 10
43.585788
 20
36.414239
 30
0.0
 10
45.000003
 20
37.000028
 30
0.0
 10
46.414216
 20
36.414239
 30
0.0
 10
47.000002
 20
35.000027
 30
0.0
  0
LWPOLYLINE
  5
109
100
AcDbEntity
  8
Layer_1
 62
7
100
AcDbPolyline
 90
9
 70
0
 10
77.000001
 20
25.000027
 30
0.0
 10
76.414215
 20
23.585814
 30
0.0
 10
75.000002
 20
23.000028
 30
0.0
 10
73.585787
 20
23.585814
 30
0.0
 10
73.000001
 20
25.000027
 30
0.0
 10
73.585787
 20
26.414240
 30
0.0
 10
75.000002
 20
27.000029
 30
0.0
 10
76.414215
 20
26.414240
 30
0.0
 10
77.000001
 20
25.000027
 30
0.0
  0
LWPOLYLINE
  5
10a
100
AcDbEntity
  8
Layer_1
 62
7
100
AcDbPolyline
 90
9
 70
0
 10
77.000001
 20
35.000027
 30
0.0
 10
76.414215
 20
33.585814
 30
0.0
 10
75.000002
 20
33.000028
 30
0.0
 10
73.585787
 20
33.585814
 30
0.0
 10
73.000001
 20
35.000027
 30
0.0
 10
73.585787
 20
36.414239
 30
0.0
 10
75.000002
 20
37.000028
 30
0.0
 10
76.414215
 20
36.414239
 30
0.0
 10
77.000001
 20
35.000027
 30
0.0
  0
LWPOLYLINE
  5
10b
100
AcDbEntity
  8
Layer_1
 62
7
100
AcDbPolyline
 90
9
 70
0
 10
67.000001
 20
25.000027
 30
0.0
 10
66.414215
 20
23.585814
 30
0.0
 10
65.000003
 20
23.000028
 30
0.0
 10
63.585787
 20
23.585814
 30
0.0
 10
63.000001
 20
25.000027
 30
0.0
 10
63.585787
 20
26.414240
 30
0.0
 10
65.000003
 20
27.000029
 30
0.0
 10
66.414215
 20
26.414240
 30
0.0
 10
67.000001
 20
25.000027
 30
0.0
  0
LWPOLYLINE
  5
10c
100
AcDbEntity
  8
Layer_1
 62
7
100
AcDbPolyline
 90
9
 70
0
 10
67.000001
 20
35.000027
 30
0.0
 10
66.414215
 20
33.585814
 30
0.0
 10
65.000003
 20
33.000028
 30
0.0
 10
63.585787
 20
33.585814
 30
0.0
 10
63.000001
 20
35.000027
 30
0.0
 10
63.585787
 20
36.414239
 30
0.0
 10
65.000003
 20
37.000028
 30
0.0
 10
66.414215
 20
36.414239
 30
0.0
 10
67.000001
 20
35.000027
 30
0.0
  0
LWPOLYLINE
  5
10d
100
AcDbEntity
  8
Layer_1
 62
7
100
AcDbPolyline
 90
9
 70
0
 10
87.000004
 20
25.000027
 30
0.0
 10
86.414218
 20
23.585814
 30
0.0
 10
85.000005
 20
23.000028
 30
0.0
 10
83.585789
 20
23.585814
 30
0.0
 10
83.000003
 20
25.000027
 30
0.0
 10
83.585789
 20
26.414240
 30
0.0
 10
85.000005
 20
27.000029
 30
0.0
 10
86.414218
 20
26.414240
 30
0.0
 10
87.000004
 20
25.000027
 30
0.0
  0
LWPOLYLINE
  5
10e
100
AcDbEntity
  8
Layer_1
 62
7
100
AcDbPolyline
 90
9
 70
0
 10
87.000004
 20
35.000027
 30
0.0
 10
86.414218
 20
33.585814
 30
0.0
 10
85.000005
 20
33.000028
 30
0.0
 10
83.585789
 20
33.585814
 30
0.0
 10
83.000003
 20
35.000027
 30
0.0
 10
83.585789
 20
36.414239
 30
0.0
 10
85.000005
 20
37.000028
 30
0.0
 10
86.414218
 20
36.414239
 30
0.0
 10
87.000004
 20
35.000027
 30
0.0
  0
LWPOLYLINE
  5
10f
100
AcDbEntity
  8
Layer_1
 62
7
100
AcDbPolyline
 90
9
 70
0
 10
36.999999
 20
5.000019
 30
0.0
 10
36.414213
 20
3.585803
 30
0.0
 10
35.000001
 20
3.000023
 30
0.0
 10
33.585785
 20
3.585803
 30
0.0
 10
32.999999
 20
5.000019
 30
0.0
 10
33.585785
 20
6.414234
 30
0.0
 10
35.000001
 20
7.000015
 30
0.0
 10
36.414213
 20
6.414234
 30
0.0
 10
36.999999
 20
5.000019
 30
0.0
  0
LWPOLYLINE
  5
110
100
AcDbEntity
  8
Layer_1
 62
7
100
AcDbPolyline
 90
9
 70
0
 10
36.999999
 20
15.000027
 30
0.0
 10
36.414213
 20
13.585812
 30
0.0
 10
35.000001
 20
13.000031
 30
0.0
 10
33.585785
 20
13.585812
 30
0.0
 10
32.999999
 20
15.000027
 30
0.0
 10
33.585785
 20
16.414240
 30
0.0
 10
35.000001
 20
17.000029
 30
0.0
 10
36.414213
 20
16.414240
 30
0.0
 10
36.999999
 20
15.000027
 30
0.0
  0
LWPOLYLINE
  5
111
100
AcDbEntity
  8
Layer_1
 62
7
100
AcDbPolyline
 90
9
 70
0
 10
27.000004
 20
5.000019
 30
0.0
 10
26.414217
 20
3.585803
 30
0.0
 10
25.000004
 20
3.000023
 30
0.0
 10
23.585790
 20
3.585803
 30
0.0
 10
23.000004
 20
5.000019
 30
0.0
 10
23.585790
 20
6.414234
 30
0.0
 10
25.000004
 20
7.000015
 30
0.0
 10
26.414217
 20
6.414234
 30
0.0
 10
27.000004
 20
5.000019
 30
0.0
  0
LWPOLYLINE
  5
112
100
AcDbEntity
  8
Layer_1
 62
7
100
AcDbPolyline
 90
9
 70
0
 10
27.000004
 20
15.000027
 30
0.0
 10
26.414217
 20
13.585812
 30
0.0
 10
25.000004
 20
13.000031
 30
0.0
 10
23.585790
 20
13.585812
 30
0.0
 10
23.000004
 20
15.000027
 30
0.0
 10
23.585790
 20
16.414240
 30
0.0
 10
25.000004
 20
17.000029
 30
0.0
 10
26.414217
 20
16.414240
 30
0.0
 10
27.000004
 20
15.000027
 30
0.0
  0
LWPOLYLINE
  5
113
100
AcDbEntity
  8
Layer_1
 62
7
100
AcDbPolyline
 90
9
 70
0
 10
56.999999
 20
5.000019
 30
0.0
 10
56.414213
 20
3.585803
 30
0.0
 10
55.000000
 20
3.000023
 30
0.0
 10
53.585785
 20
3.585803
 30
0.0
 10
52.999998
 20
5.000019
 30
0.0
 10
53.585785
 20
6.414234
 30
0.0
 10
55.000000
 20
7.000015
 30
0.0
 10
56.414213
 20
6.414234
 30
0.0
 10
56.999999
 20
5.000019
 30
0.0
  0
LWPOLYLINE
  5
114
100
AcDbEntity
  8
Layer_1
 62
7
100
AcDbPolyline
 90
9
 70
0
 10
56.999999
 20
15.000027
 30
0.0
 10
56.414213
 20
13.585812
 30
0.0
 10
55.000000
 20
13.000031
 30
0.0
 10
53.585785
 20
13.585812
 30
0.0
 10
52.999998
 20
15.000027
 30
0.0
 10
53.585785
 20
16.414240
 30
0.0
 10
55.000000
 20
17.000029
 30
0.0
 10
56.414213
 20
16.414240
 30
0.0
 10
56.999999
 20
15.000027
 30
0.0
  0
LWPOLYLINE
  5
115
100
AcDbEntity
  8
Layer_1
 62
7
100
AcDbPolyline
 90
9
 70
0
 10
46.999999
 20
5.000019
 30
0.0
 10
46.414213
 20
3.585803
 30
0.0
 10
45.000000
 20
3.000023
 30
0.0
 10
43.585785
 20
3.585803
 30
0.0
 10
42.999999
 20
5.000019
 30
0.0
 10
43.585785
 20
6.414234
 30
0.0
 10
45.000000
 20
7.000015
 30
0.0
 10
46.414213
 20
6.414234
 30
0.0
 10
46.999999
 20
5.000019
 30
0.0
  0
LWPOLYLINE
  5
116
100
AcDbEntity
  8
Layer_1
 62
7
100
AcDbPolyline
 90
9
 70
0
 10
46.999999
 20
15.000027
 30
0.0
 10
46.414213
 20
13.585812
 30
0.0
 10
45.000000
 20
13.000031
 30
0.0
 10
43.585785
 20
13.585812
 30
0.0
 10
42.999999
 20
15.000027
 30
0.0
 10
43.585785
 20
16.414240
 30
0.0
 10
45.000000
 20
17.000029
 30
0.0
 10
46.414213
 20
16.414240
 30
0.0
 10
46.999999
 20
15.000027
 30
0.0
  0
LWPOLYLINE
  5
117
100
AcDbEntity
  8
Layer_1
 62
7
100
AcDbPolyline
 90
9
 70
0
 10
76.999998
 20
5.000019
 30
0.0
 10
76.414212
 20
3.585803
 30
0.0
 10
75.000000
 20
3.000023
 30
0.0
 10
73.585784
 20
3.585803
 30
0.0
 10
72.999998
 20
5.000019
 30
0.0
 10
73.585784
 20
6.414234
 30
0.0
 10
75.000000
 20
7.000015
 30
0.0
 10
76.414212
 20
6.414234
 30
0.0
 10
76.999998
 20
5.000019
 30
0.0
  0
LWPOLYLINE
  5
118
100
AcDbEntity
  8
Layer_1
 62
7
100
AcDbPolyline
 90
9
 70
0
 10
76.999998
 20
15.000027
 30
0.0
 10
76.414212
 20
13.585812
 30
0.0
 10
75.000000
 20
13.000031
 30
0.0
 10
73.585784
 20
13.585812
 30
0.0
 10
72.999998
 20
15.000027
 30
0.0
 10
73.585784
 20
16.414240
 30
0.0
 10
75.000000
 20
17.000029
 30
0.0
 10
76.414212
 20
16.414240
 30
0.0
 10
76.999998
 20
15.000027
 30
0.0
  0
LWPOLYLINE
  5
119
100
AcDbEntity
  8
Layer_1
 62
7
100
AcDbPolyline
 90
9
 70
0
 10
66.999999
 20
5.000019
 30
0.0
 10
66.414213
 20
3.585803
 30
0.0
 10
65.000000
 20
3.000023
 30
0.0
 10
63.585784
 20
3.585803
 30
0.0
 10
62.999998
 20
5.000019
 30
0.0
 10
63.585784
 20
6.414234
 30
0.0
 10
65.000000
 20
7.000015
 30
0.0
 10
66.414213
 20
6.414234
 30
0.0
 10
66.999999
 20
5.000019
 30
0.0
  0
LWPOLYLINE
  5
11a
100
AcDbEntity
  8
Layer_1
 62
7
100
AcDbPolyline
 90
9
 70
0
 10
66.999999
 20
15.000027
 30
0.0
 10
66.414213
 20
13.585812
 30
0.0
 10
65.000000
 20
13.000031
 30
0.0
 10
63.585784
 20
13.585812
 30
0.0
 10
62.999998
 20
15.000027
 30
0.0
 10
63.585784
 20
16.414240
 30
0.0
 10
65.000000
 20
17.000029
 30
0.0
 10
66.414213
 20
16.414240
 30
0.0
 10
66.999999
 20
15.000027
 30
0.0
  0
LWPOLYLINE
  5
11b
100
AcDbEntity
  8
Layer_1
 62
7
100
AcDbPolyline
 90
9
 70
0
 10
87.000001
 20
5.000019
 30
0.0
 10
86.414215
 20
3.585803
 30
0.0
 10
85.000002
 20
3.000023
 30
0.0
 10
83.585787
 20
3.585803
 30
0.0
 10
83.000001
 20
5.000019
 30
0.0
 10
83.585787
 20
6.414234
 30
0.0
 10
85.000002
 20
7.000015
 30
0.0
 10
86.414215
 20
6.414234
 30
0.0
 10
87.000001
 20
5.000019
 30
0.0
  0
LWPOLYLINE
  5
11c
100
AcDbEntity
  8
Layer_1
 62
7
100
AcDbPolyline
 90
9
 70
0
 10
87.000001
 20
15.000027
 30
0.0
 10
86.414215
 20
13.585812
 30
0.0
 10
85.000002
 20
13.000031
 30
0.0
 10
83.585787
 20
13.585812
 30
0.0
 10
83.000001
 20
15.000027
 30
0.0
 10
83.585787
 20
16.414240
 30
0.0
 10
85.000002
 20
17.000029
 30
0.0
 10
86.414215
 20
16.414240
 30
0.0
 10
87.000001
 20
15.000027
 30
0.0
  0
ENDSEC
  0
SECTION
  2
OBJECTS
  0
DICTIONARY
  5
C
330
0
100
AcDbDictionary
  3
ACAD_GROUP
350
D
  3
ACAD_MLINESTYLE
350
17
  0
DICTIONARY
  5
D
330
C
100
AcDbDictionary
  0
DICTIONARY
  5
1A
330
C
100
AcDbDictionary
  0
DICTIONARY
  5
17
330
C
100
AcDbDictionary
  3
STANDARD
350
18
  0
DICTIONARY
  5
19
330
C
100
AcDbDictionary
  0
ENDSEC
  0
EOF
