<?xml version="1.0" encoding="UTF-8" standalone="no"?>
<!-- Created with Inkscape (http://www.inkscape.org/) -->

<svg
   xmlns:dc="http://purl.org/dc/elements/1.1/"
   xmlns:cc="http://creativecommons.org/ns#"
   xmlns:rdf="http://www.w3.org/1999/02/22-rdf-syntax-ns#"
   xmlns:svg="http://www.w3.org/2000/svg"
   xmlns="http://www.w3.org/2000/svg"
   xmlns:sodipodi="http://sodipodi.sourceforge.net/DTD/sodipodi-0.dtd"
   xmlns:inkscape="http://www.inkscape.org/namespaces/inkscape"
   width="297mm"
   height="210mm"
   viewBox="0 0 1052.3622 744.09448"
   id="svg2"
   version="1.1"
   inkscape:version="0.91 r13725"
   sodipodi:docname="gear-cp1.5-t9.svg">
  <sodipodi:namedview
     id="base"
     pagecolor="#ffffff"
     bordercolor="#666666"
     borderopacity="1.0"
     inkscape:pageopacity="0.0"
     inkscape:pageshadow="2"
     inkscape:zoom="50.685416"
     inkscape:cx="3.0943963"
     inkscape:cy="2.2380595"
     inkscape:document-units="mm"
     inkscape:current-layer="layer1"
     showgrid="true"
     inkscape:window-width="1366"
     inkscape:window-height="705"
     inkscape:window-x="-8"
     inkscape:window-y="-8"
     inkscape:window-maximized="1"
     showguides="true"
     inkscape:guide-bbox="true"
     inkscape:snap-bbox="true"
     inkscape:bbox-nodes="true"
     inkscape:snap-bbox-edge-midpoints="true"
     inkscape:snap-bbox-midpoints="false"
     inkscape:snap-object-midpoints="false"
     inkscape:snap-global="true"
     inkscape:snap-grids="true"
     inkscape:object-nodes="true"
     inkscape:snap-smooth-nodes="true"
     inkscape:snap-center="true">
    <inkscape:grid
       spacingy="17.716535"
       spacingx="17.716536"
       units="mm"
       id="grid3333"
       type="xygrid"
       color="#e80007"
       opacity="0.96078431"
       empcolor="#ed0000"
       empopacity="0.25098039" />
    <inkscape:grid
       type="xygrid"
       id="grid4730"
       units="mm"
       spacingx="0.35433071"
       spacingy="0.35433071"
       empspacing="10" />
    <sodipodi:guide
       id="guide3393"
       orientation="744.0945,0"
       position="526.1811,0" />
    <sodipodi:guide
       id="guide3395"
       orientation="0,1052.3622"
       position="0,248.0315" />
    <sodipodi:guide
       id="guide3397"
       orientation="0,1052.3622"
       position="0,496.063" />
    <sodipodi:guide
       position="3.5433071,0"
       orientation="0,1"
       id="guide4140" />
    <sodipodi:guide
       position="0,0"
       orientation="1,0"
       id="guide4142" />
  </sodipodi:namedview>
  <defs
     id="defs4" />
  <metadata
     id="metadata7">
    <rdf:RDF>
      <cc:Work
         rdf:about="">
        <dc:format>image/svg+xml</dc:format>
        <dc:type
           rdf:resource="http://purl.org/dc/dcmitype/StillImage" />
        <dc:title />
      </cc:Work>
    </rdf:RDF>
  </metadata>
  <g
     transform="translate(0,-308.26772)"
     id="layer1"
     inkscape:groupmode="layer"
     inkscape:label="Layer 1"
     style="display:inline">
    <path
       inkscape:connector-curvature="0"
       style="fill:#d4aa00;stroke:none;stroke-width:1"
       d="m 2.8639246,1057.359 0.5950209,1.0795 0.320589,0.3466 1.7954323,0.8422 0.737064,-0.6122 -0.498687,-1.9195 -0.281913,-0.3787 -0.952122,-0.7829 0.949259,-1.6255 1.149735,0.4445 0.468369,0.059 1.916755,-0.5089 0.171063,-0.9428 -1.615808,-1.1498 -0.459393,-0.1089 -1.232617,0.012 -0.31769,-1.8554 1.166477,-0.3986 0.396986,-0.2555 1.141211,-1.6219 -0.474984,-0.8322 -1.976879,0.1578 -0.421907,0.2119 -0.936352,0.8017 -1.4360041,-1.2171 0.6374089,-1.0551 0.1398615,-0.4509 -0.1683249,-1.976 -0.8987831,-0.3322 -1.4129383,1.3916 -0.1870147,0.4335 -0.2019596,1.216 -1.8823796,-0.01 -0.1899062,-1.218 -0.1827201,-0.4353 -1.3990945,-1.4055 -0.9020273,0.3232 -0.1878803,1.9743 0.1353917,0.4523 0.6269343,1.0613 -1.4479737,1.2029 -0.9283749,-0.811 -0.4197866,-0.216 -1.9752188,-0.1774 -0.4832091,0.8275 1.1250994,1.6331 0.3944393,0.2594 1.1624732,0.4101 -0.3360417,1.8521 -1.2324297,-0.024 -0.4604505,0.1043 -1.6271142,1.1338 0.1617196,0.9444 1.9116317,0.5279 0.4689275,-0.055 1.1540817,-0.4331 0.9331205,1.6348 -0.9598287,0.7735 -0.2856493,0.3759 -0.5176605,1.9144 0.7309645,0.6195 1.8036887,-0.8244 0.3240009,-0.3434 0.6056755,-1.0736 1.765679,0.6526 -0.2381096,1.2095 0.022801,0.4715 0.8340072,1.7993 0.9581936,0 0.8517794,-1.7909 0.027468,-0.4713 -0.226121,-1.2118 z"
       id="path3474-9-7" />
  </g>
</svg>
