  0
SECTION
  2
HEADER
  9
$ACADVER
  1
AC1014
  9
$HANDSEED
  5
FFFF
  9
$MEASUREMENT
 70
     1
  0
ENDSEC
  0
SECTION
  2
TABLES
  0
TABLE
  2
VPORT
  5
8
330
0
100
AcDbSymbolTable
 70
     4
  0
VPORT
  5
2E
330
8
100
AcDbSymbolTableRecord
100
AcDbViewportTableRecord
  2
*ACTIVE
 70
     0
 10
0.0
 20
0.0
 11
1.0
 21
1.0
 12
210.0
 22
148.5
 13
0.0
 23
0.0
 14
10.0
 24
10.0
 15
10.0
 25
10.0
 16
0.0
 26
0.0
 36
1.0
 17
0.0
 27
0.0
 37
0.0
 40
341.0
 41
1.24
 42
50.0
 43
0.0
 44
0.0
 50
0.0
 51
0.0
 71
     0
 72
   100
 73
     1
 74
     3
 75
     0
 76
     0
 77
     0
 78
     0
  0
ENDTAB
  0
TABLE
  2
LTYPE
  5
5
330
0
100
AcDbSymbolTable
 70
     1
  0
LTYPE
  5
14
330
5
100
AcDbSymbolTableRecord
100
AcDbLinetypeTableRecord
  2
BYBLOCK
 70
     0
  3

 72
    65
 73
     0
 40
0.0
  0
LTYPE
  5
15
330
5
100
AcDbSymbolTableRecord
100
AcDbLinetypeTableRecord
  2
BYLAYER
 70
     0
  3

 72
    65
 73
     0
 40
0.0
  0
LTYPE
  5
16
330
5
100
AcDbSymbolTableRecord
100
AcDbLinetypeTableRecord
  2
CONTINUOUS
 70
     0
  3
Solid line
 72
    65
 73
     0
 40
0.0
  0
ENDTAB
  0
TABLE
  2
LAYER
  5
2
100
AcDbSymbolTable
 70
2
  0
LAYER
  5
50
100
AcDbSymbolTableRecord
100
AcDbLayerTableRecord
  2
0
 70
0
  6
CONTINUOUS
  0
LAYER
  5
51
100
AcDbSymbolTableRecord
100
AcDbLayerTableRecord
  2
Layer_1
 70
0
  6
CONTINUOUS
  0
ENDTAB
  0
TABLE
  2
STYLE
  5
3
330
0
100
AcDbSymbolTable
 70
     1
  0
STYLE
  5
11
330
3
100
AcDbSymbolTableRecord
100
AcDbTextStyleTableRecord
  2
STANDARD
 70
     0
 40
0.0
 41
1.0
 50
0.0
 71
     0
 42
2.5
  3
txt
  4

  0
ENDTAB
  0
TABLE
  2
VIEW
  5
6
330
0
100
AcDbSymbolTable
 70
     0
  0
ENDTAB
  0
TABLE
  2
UCS
  5
7
330
0
100
AcDbSymbolTable
 70
     0
  0
ENDTAB
  0
TABLE
  2
APPID
  5
9
330
0
100
AcDbSymbolTable
 70
     2
  0
APPID
  5
12
330
9
100
AcDbSymbolTableRecord
100
AcDbRegAppTableRecord
  2
ACAD
 70
     0
  0
ENDTAB
  0
TABLE
  2
DIMSTYLE
  5
A
330
0
100
AcDbSymbolTable
 70
     1
  0
DIMSTYLE
105
27
330
A
100
AcDbSymbolTableRecord
100
AcDbDimStyleTableRecord
  2
ISO-25
 70
     0
  3

  4

  5

  6

  7

 40
1.0
 41
2.5
 42
0.625
 43
3.75
 44
1.25
 45
0.0
 46
0.0
 47
0.0
 48
0.0
140
2.5
141
2.5
142
0.0
143
0.03937007874016
144
1.0
145
0.0
146
1.0
147
0.625
 71
     0
 72
     0
 73
     0
 74
     0
 75
     0
 76
     0
 77
     1
 78
     8
170
     0
171
     3
172
     1
173
     0
174
     0
175
     0
176
     0
177
     0
178
     0
270
     2
271
     2
272
     2
273
     2
274
     3
340
11
275
     0
280
     0
281
     0
282
     0
283
     0
284
     8
285
     0
286
     0
287
     3
288
     0
  0
ENDTAB
  0
TABLE
  2
BLOCK_RECORD
  5
1
330
0
100
AcDbSymbolTable
 70
     1
  0
BLOCK_RECORD
  5
1F
330
1
100
AcDbSymbolTableRecord
100
AcDbBlockTableRecord
  2
*MODEL_SPACE
  0
BLOCK_RECORD
  5
1B
330
1
100
AcDbSymbolTableRecord
100
AcDbBlockTableRecord
  2
*PAPER_SPACE
  0
ENDTAB
  0
ENDSEC
  0
SECTION
  2
BLOCKS
  0
BLOCK
  5
20
330
1F
100
AcDbEntity
  8
0
100
AcDbBlockBegin
  2
*MODEL_SPACE
 70
     0
 10
0.0
 20
0.0
 30
0.0
  3
*MODEL_SPACE
  1

  0
ENDBLK
  5
21
330
1F
100
AcDbEntity
  8
0
100
AcDbBlockEnd
  0
BLOCK
  5
1C
330
1B
100
AcDbEntity
 67
     1
  8
0
100
AcDbBlockBegin
  2
*PAPER_SPACE
  1

  0
ENDBLK
  5
1D
330
1B
100
AcDbEntity
 67
     1
  8
0
100
AcDbBlockEnd
  0
ENDSEC
  0
SECTION
  2
ENTITIES
  0
LINE
  5
100
100
AcDbEntity
  8
Layer_1
 62
7
100
AcDbLine
 10
11.103605
 20
2.771904
 30
0.0
 11
11.761629
 21
2.754971
 31
0.0
  0
LINE
  5
101
100
AcDbEntity
  8
Layer_1
 62
7
100
AcDbLine
 10
11.761629
 20
2.754971
 30
0.0
 11
12.442670
 21
2.617726
 31
0.0
  0
LINE
  5
102
100
AcDbEntity
  8
Layer_1
 62
7
100
AcDbLine
 10
12.442670
 20
2.617726
 30
0.0
 11
12.530390
 21
2.143960
 31
0.0
  0
LINE
  5
103
100
AcDbEntity
  8
Layer_1
 62
7
100
AcDbLine
 10
12.530390
 20
2.143960
 30
0.0
 11
11.943636
 21
1.771963
 31
0.0
  0
LINE
  5
104
100
AcDbEntity
  8
Layer_1
 62
7
100
AcDbLine
 10
11.943636
 20
1.771963
 30
0.0
 11
11.335257
 21
1.520672
 31
0.0
  0
LINE
  5
105
100
AcDbEntity
  8
Layer_1
 62
7
100
AcDbLine
 10
11.335257
 20
1.520672
 30
0.0
 11
11.397567
 21
0.902182
 31
0.0
  0
LINE
  5
106
100
AcDbEntity
  8
Layer_1
 62
7
100
AcDbLine
 10
11.397567
 20
0.902182
 30
0.0
 11
12.043847
 21
0.777299
 31
0.0
  0
LINE
  5
107
100
AcDbEntity
  8
Layer_1
 62
7
100
AcDbLine
 10
12.043847
 20
0.777299
 30
0.0
 11
12.693008
 21
0.529818
 31
0.0
  0
LINE
  5
108
100
AcDbEntity
  8
Layer_1
 62
7
100
AcDbLine
 10
12.693008
 20
0.529818
 30
0.0
 11
12.701553
 21
0.048065
 31
0.0
  0
LINE
  5
109
100
AcDbEntity
  8
Layer_1
 62
7
100
AcDbLine
 10
12.701553
 20
0.048065
 30
0.0
 11
12.061573
 21
-0.222276
 31
0.0
  0
LINE
  5
10a
100
AcDbEntity
  8
Layer_1
 62
7
100
AcDbLine
 10
12.061573
 20
-0.222276
 30
0.0
 11
11.420131
 21
-0.370019
 31
0.0
  0
LINE
  5
10b
100
AcDbEntity
  8
Layer_1
 62
7
100
AcDbLine
 10
11.420131
 20
-0.370019
 30
0.0
 11
11.379791
 21
-0.990315
 31
0.0
  0
LINE
  5
10c
100
AcDbEntity
  8
Layer_1
 62
7
100
AcDbLine
 10
11.379791
 20
-0.990315
 30
0.0
 11
11.996697
 21
-1.219875
 31
0.0
  0
LINE
  5
10d
100
AcDbEntity
  8
Layer_1
 62
7
100
AcDbLine
 10
11.996697
 20
-1.219875
 30
0.0
 11
12.596273
 21
-1.570818
 31
0.0
  0
LINE
  5
10e
100
AcDbEntity
  8
Layer_1
 62
7
100
AcDbLine
 10
12.596273
 20
-1.570818
 30
0.0
 11
12.525410
 21
-2.047407
 31
0.0
  0
LINE
  5
10f
100
AcDbEntity
  8
Layer_1
 62
7
100
AcDbLine
 10
12.525410
 20
-2.047407
 30
0.0
 11
11.849662
 21
-2.208725
 31
0.0
  0
LINE
  5
110
100
AcDbEntity
  8
Layer_1
 62
7
100
AcDbLine
 10
11.849662
 20
-2.208725
 30
0.0
 11
11.192649
 21
-2.248857
 31
0.0
  0
LINE
  5
111
100
AcDbEntity
  8
Layer_1
 62
7
100
AcDbLine
 10
11.192649
 20
-2.248857
 30
0.0
 11
11.050762
 21
-2.854055
 31
0.0
  0
LINE
  5
112
100
AcDbEntity
  8
Layer_1
 62
7
100
AcDbLine
 10
11.050762
 20
-2.854055
 30
0.0
 11
11.621468
 21
-3.182053
 31
0.0
  0
LINE
  5
113
100
AcDbEntity
  8
Layer_1
 62
7
100
AcDbLine
 10
11.621468
 20
-3.182053
 30
0.0
 11
12.155101
 21
-3.626892
 31
0.0
  0
LINE
  5
114
100
AcDbEntity
  8
Layer_1
 62
7
100
AcDbLine
 10
12.155101
 20
-3.626892
 30
0.0
 11
12.006761
 21
-4.085305
 31
0.0
  0
LINE
  5
115
100
AcDbEntity
  8
Layer_1
 62
7
100
AcDbLine
 10
12.006761
 20
-4.085305
 30
0.0
 11
11.313678
 21
-4.133227
 31
0.0
  0
LINE
  5
116
100
AcDbEntity
  8
Layer_1
 62
7
100
AcDbLine
 10
11.313678
 20
-4.133227
 30
0.0
 11
10.659021
 21
-4.064675
 31
0.0
  0
LINE
  5
117
100
AcDbEntity
  8
Layer_1
 62
7
100
AcDbLine
 10
10.659021
 20
-4.064675
 30
0.0
 11
10.419459
 21
-4.638263
 31
0.0
  0
LINE
  5
118
100
AcDbEntity
  8
Layer_1
 62
7
100
AcDbLine
 10
10.419459
 20
-4.638263
 30
0.0
 11
10.928395
 21
-5.055698
 31
0.0
  0
LINE
  5
119
100
AcDbEntity
  8
Layer_1
 62
7
100
AcDbLine
 10
10.928395
 20
-5.055698
 30
0.0
 11
11.381533
 21
-5.582325
 31
0.0
  0
LINE
  5
11a
100
AcDbEntity
  8
Layer_1
 62
7
100
AcDbLine
 10
11.381533
 20
-5.582325
 30
0.0
 11
11.159761
 21
-6.010061
 31
0.0
  0
LINE
  5
11b
100
AcDbEntity
  8
Layer_1
 62
7
100
AcDbLine
 10
11.159761
 20
-6.010061
 30
0.0
 11
10.468250
 21
-5.943231
 31
0.0
  0
LINE
  5
11c
100
AcDbEntity
  8
Layer_1
 62
7
100
AcDbLine
 10
10.468250
 20
-5.943231
 30
0.0
 11
9.833799
 21
-5.767858
 31
0.0
  0
LINE
  5
11d
100
AcDbEntity
  8
Layer_1
 62
7
100
AcDbLine
 10
9.833799
 20
-5.767858
 30
0.0
 11
9.503096
 21
-6.294202
 31
0.0
  0
LINE
  5
11e
100
AcDbEntity
  8
Layer_1
 62
7
100
AcDbLine
 10
9.503096
 20
-6.294202
 30
0.0
 11
9.936381
 21
-6.789728
 31
0.0
  0
LINE
  5
11f
100
AcDbEntity
  8
Layer_1
 62
7
100
AcDbLine
 10
9.936381
 20
-6.789728
 30
0.0
 11
10.296661
 21
-7.383749
 31
0.0
  0
LINE
  5
120
100
AcDbEntity
  8
Layer_1
 62
7
100
AcDbLine
 10
10.296661
 20
-7.383749
 30
0.0
 11
10.007510
 21
-7.769152
 31
0.0
  0
LINE
  5
121
100
AcDbEntity
  8
Layer_1
 62
7
100
AcDbLine
 10
10.007510
 20
-7.769152
 30
0.0
 11
9.336431
 21
-7.589405
 31
0.0
  0
LINE
  5
122
100
AcDbEntity
  8
Layer_1
 62
7
100
AcDbLine
 10
9.336431
 20
-7.589405
 30
0.0
 11
8.739499
 21
-7.312009
 31
0.0
  0
LINE
  5
123
100
AcDbEntity
  8
Layer_1
 62
7
100
AcDbLine
 10
8.739499
 20
-7.312009
 30
0.0
 11
8.326673
 21
-7.776716
 31
0.0
  0
LINE
  5
124
100
AcDbEntity
  8
Layer_1
 62
7
100
AcDbLine
 10
8.326673
 20
-7.776716
 30
0.0
 11
8.672490
 21
-8.336814
 31
0.0
  0
LINE
  5
125
100
AcDbEntity
  8
Layer_1
 62
7
100
AcDbLine
 10
8.672490
 20
-8.336814
 30
0.0
 11
8.930082
 21
-8.982030
 31
0.0
  0
LINE
  5
126
100
AcDbEntity
  8
Layer_1
 62
7
100
AcDbLine
 10
8.930082
 20
-8.982030
 30
0.0
 11
8.581438
 21
-9.314573
 31
0.0
  0
LINE
  5
127
100
AcDbEntity
  8
Layer_1
 62
7
100
AcDbLine
 10
8.581438
 20
-9.314573
 30
0.0
 11
7.949098
 21
-9.026819
 31
0.0
  0
LINE
  5
128
100
AcDbEntity
  8
Layer_1
 62
7
100
AcDbLine
 10
7.949098
 20
-9.026819
 30
0.0
 11
7.405962
 21
-8.654963
 31
0.0
  0
LINE
  5
129
100
AcDbEntity
  8
Layer_1
 62
7
100
AcDbLine
 10
7.405962
 20
-8.654963
 30
0.0
 11
6.922280
 21
-9.045389
 31
0.0
  0
LINE
  5
12a
100
AcDbEntity
  8
Layer_1
 62
7
100
AcDbLine
 10
6.922280
 20
-9.045389
 30
0.0
 11
7.171194
 21
-9.654763
 31
0.0
  0
LINE
  5
12b
100
AcDbEntity
  8
Layer_1
 62
7
100
AcDbLine
 10
7.171194
 20
-9.654763
 30
0.0
 11
7.319075
 21
-10.333564
 31
0.0
  0
LINE
  5
12c
100
AcDbEntity
  8
Layer_1
 62
7
100
AcDbLine
 10
7.319075
 20
-10.333564
 30
0.0
 11
6.920448
 21
-10.604215
 31
0.0
  0
LINE
  5
12d
100
AcDbEntity
  8
Layer_1
 62
7
100
AcDbLine
 10
6.920448
 20
-10.604215
 30
0.0
 11
6.344094
 21
-10.216301
 31
0.0
  0
LINE
  5
12e
100
AcDbEntity
  8
Layer_1
 62
7
100
AcDbLine
 10
6.344094
 20
-10.216301
 30
0.0
 11
5.869574
 21
-9.760117
 31
0.0
  0
LINE
  5
12f
100
AcDbEntity
  8
Layer_1
 62
7
100
AcDbLine
 10
5.869574
 20
-9.760117
 30
0.0
 11
5.328222
 21
-10.065623
 31
0.0
  0
LINE
  5
130
100
AcDbEntity
  8
Layer_1
 62
7
100
AcDbLine
 10
5.328222
 20
-10.065623
 30
0.0
 11
5.473446
 21
-10.707622
 31
0.0
  0
LINE
  5
131
100
AcDbEntity
  8
Layer_1
 62
7
100
AcDbLine
 10
5.473446
 20
-10.707622
 30
0.0
 11
5.507580
 21
-11.401521
 31
0.0
  0
LINE
  5
132
100
AcDbEntity
  8
Layer_1
 62
7
100
AcDbLine
 10
5.507580
 20
-11.401521
 30
0.0
 11
5.069841
 21
-11.602859
 31
0.0
  0
LINE
  5
133
100
AcDbEntity
  8
Layer_1
 62
7
100
AcDbLine
 10
5.069841
 20
-11.602859
 30
0.0
 11
4.565193
 21
-11.125367
 31
0.0
  0
LINE
  5
134
100
AcDbEntity
  8
Layer_1
 62
7
100
AcDbLine
 10
4.565193
 20
-11.125367
 30
0.0
 11
4.172232
 21
-10.597301
 31
0.0
  0
LINE
  5
135
100
AcDbEntity
  8
Layer_1
 62
7
100
AcDbLine
 10
4.172232
 20
-10.597301
 30
0.0
 11
3.587981
 21
-10.809532
 31
0.0
  0
LINE
  5
136
100
AcDbEntity
  8
Layer_1
 62
7
100
AcDbLine
 10
3.587981
 20
-10.809532
 30
0.0
 11
3.625552
 21
-11.466687
 31
0.0
  0
LINE
  5
137
100
AcDbEntity
  8
Layer_1
 62
7
100
AcDbLine
 10
3.625552
 20
-11.466687
 30
0.0
 11
3.545007
 21
-12.156748
 31
0.0
  0
LINE
  5
138
100
AcDbEntity
  8
Layer_1
 62
7
100
AcDbLine
 10
3.545007
 20
-12.156748
 30
0.0
 11
3.080103
 21
-12.283297
 31
0.0
  0
LINE
  5
139
100
AcDbEntity
  8
Layer_1
 62
7
100
AcDbLine
 10
3.080103
 20
-12.283297
 30
0.0
 11
2.660931
 21
-11.729266
 31
0.0
  0
LINE
  5
13a
100
AcDbEntity
  8
Layer_1
 62
7
100
AcDbLine
 10
2.660931
 20
-11.729266
 30
0.0
 11
2.360244
 21
-11.143711
 31
0.0
  0
LINE
  5
13b
100
AcDbEntity
  8
Layer_1
 62
7
100
AcDbLine
 10
2.360244
 20
-11.143711
 30
0.0
 11
1.749033
 21
-11.256883
 31
0.0
  0
LINE
  5
13c
100
AcDbEntity
  8
Layer_1
 62
7
100
AcDbLine
 10
1.749033
 20
-11.256883
 30
0.0
 11
1.677923
 21
-11.911271
 31
0.0
  0
LINE
  5
13d
100
AcDbEntity
  8
Layer_1
 62
7
100
AcDbLine
 10
1.677923
 20
-11.911271
 30
0.0
 11
1.484900
 21
-12.578642
 31
0.0
  0
LINE
  5
13e
100
AcDbEntity
  8
Layer_1
 62
7
100
AcDbLine
 10
1.484900
 20
-12.578642
 30
0.0
 11
1.005509
 21
-12.626930
 31
0.0
  0
LINE
  5
13f
100
AcDbEntity
  8
Layer_1
 62
7
100
AcDbLine
 10
1.005509
 20
-12.626930
 30
0.0
 11
0.683243
 21
-12.011460
 31
0.0
  0
LINE
  5
140
100
AcDbEntity
  8
Layer_1
 62
7
100
AcDbLine
 10
0.683243
 20
-12.011460
 30
0.0
 11
0.483037
 21
-11.384419
 31
0.0
  0
LINE
  5
141
100
AcDbEntity
  8
Layer_1
 62
7
100
AcDbLine
 10
0.483037
 20
-11.384419
 30
0.0
 11
-0.138468
 21
-11.395425
 31
0.0
  0
LINE
  5
142
100
AcDbEntity
  8
Layer_1
 62
7
100
AcDbLine
 10
-0.138468
 20
-11.395425
 30
0.0
 11
-0.316314
 21
-12.029155
 31
0.0
  0
LINE
  5
143
100
AcDbEntity
  8
Layer_1
 62
7
100
AcDbLine
 10
-0.316314
 20
-12.029155
 30
0.0
 11
-0.616554
 21
-12.655689
 31
0.0
  0
LINE
  5
144
100
AcDbEntity
  8
Layer_1
 62
7
100
AcDbLine
 10
-0.616554
 20
-12.655689
 30
0.0
 11
-1.097357
 21
-12.624419
 31
0.0
  0
LINE
  5
145
100
AcDbEntity
  8
Layer_1
 62
7
100
AcDbLine
 10
-1.097357
 20
-12.624419
 30
0.0
 11
-1.313923
 21
-11.964301
 31
0.0
  0
LINE
  5
146
100
AcDbEntity
  8
Layer_1
 62
7
100
AcDbLine
 10
-1.313923
 20
-11.964301
 30
0.0
 11
-1.408190
 21
-11.312847
 31
0.0
  0
LINE
  5
147
100
AcDbEntity
  8
Layer_1
 62
7
100
AcDbLine
 10
-1.408190
 20
-11.312847
 30
0.0
 11
-2.023033
 21
-11.221407
 31
0.0
  0
LINE
  5
148
100
AcDbEntity
  8
Layer_1
 62
7
100
AcDbLine
 10
-2.023033
 20
-11.221407
 30
0.0
 11
-2.302767
 21
-11.817263
 31
0.0
  0
LINE
  5
149
100
AcDbEntity
  8
Layer_1
 62
7
100
AcDbLine
 10
-2.302767
 20
-11.817263
 30
0.0
 11
-2.702029
 21
-12.385800
 31
0.0
  0
LINE
  5
14a
100
AcDbEntity
  8
Layer_1
 62
7
100
AcDbLine
 10
-2.702029
 20
-12.385800
 30
0.0
 11
-3.171129
 21
-12.275818
 31
0.0
  0
LINE
  5
14b
100
AcDbEntity
  8
Layer_1
 62
7
100
AcDbLine
 10
-3.171129
 20
-12.275818
 30
0.0
 11
-3.276090
 21
-11.589058
 31
0.0
  0
LINE
  5
14c
100
AcDbEntity
  8
Layer_1
 62
7
100
AcDbLine
 10
-3.276090
 20
-11.589058
 30
0.0
 11
-3.261846
 21
-10.930972
 31
0.0
  0
LINE
  5
14d
100
AcDbEntity
  8
Layer_1
 62
7
100
AcDbLine
 10
-3.261846
 20
-10.930972
 30
0.0
 11
-3.853254
 21
-10.739597
 31
0.0
  0
LINE
  5
14e
100
AcDbEntity
  8
Layer_1
 62
7
100
AcDbLine
 10
-3.853254
 20
-10.739597
 30
0.0
 11
-4.227246
 21
-11.281267
 31
0.0
  0
LINE
  5
14f
100
AcDbEntity
  8
Layer_1
 62
7
100
AcDbLine
 10
-4.227246
 20
-11.281267
 30
0.0
 11
-4.714642
 21
-11.776341
 31
0.0
  0
LINE
  5
150
100
AcDbEntity
  8
Layer_1
 62
7
100
AcDbLine
 10
-4.714642
 20
-11.776341
 30
0.0
 11
-5.159242
 21
-11.590667
 31
0.0
  0
LINE
  5
151
100
AcDbEntity
  8
Layer_1
 62
7
100
AcDbLine
 10
-5.159242
 20
-11.590667
 30
0.0
 11
-5.149734
 21
-10.895977
 31
0.0
  0
LINE
  5
152
100
AcDbEntity
  8
Layer_1
 62
7
100
AcDbLine
 10
-5.149734
 20
-10.895977
 30
0.0
 11
-5.027367
 21
-10.249236
 31
0.0
  0
LINE
  5
153
100
AcDbEntity
  8
Layer_1
 62
7
100
AcDbLine
 10
-5.027367
 20
-10.249236
 30
0.0
 11
-5.579211
 21
-9.963119
 31
0.0
  0
LINE
  5
154
100
AcDbEntity
  8
Layer_1
 62
7
100
AcDbLine
 10
-5.579211
 20
-9.963119
 30
0.0
 11
-6.037256
 21
-10.435842
 31
0.0
  0
LINE
  5
155
100
AcDbEntity
  8
Layer_1
 62
7
100
AcDbLine
 10
-6.037256
 20
-10.435842
 30
0.0
 11
-6.599494
 21
-10.843935
 31
0.0
  0
LINE
  5
156
100
AcDbEntity
  8
Layer_1
 62
7
100
AcDbLine
 10
-6.599494
 20
-10.843935
 30
0.0
 11
-7.007465
 21
-10.587593
 31
0.0
  0
LINE
  5
157
100
AcDbEntity
  8
Layer_1
 62
7
100
AcDbLine
 10
-7.007465
 20
-10.587593
 30
0.0
 11
-6.883747
 21
-9.903966
 31
0.0
  0
LINE
  5
158
100
AcDbEntity
  8
Layer_1
 62
7
100
AcDbLine
 10
-6.883747
 20
-9.903966
 30
0.0
 11
-6.656597
 21
-9.286181
 31
0.0
  0
LINE
  5
159
100
AcDbEntity
  8
Layer_1
 62
7
100
AcDbLine
 10
-6.656597
 20
-9.286181
 30
0.0
 11
-7.153821
 21
-8.913140
 31
0.0
  0
LINE
  5
15a
100
AcDbEntity
  8
Layer_1
 62
7
100
AcDbLine
 10
-7.153821
 20
-8.913140
 30
0.0
 11
-7.683429
 21
-9.304018
 31
0.0
  0
LINE
  5
15b
100
AcDbEntity
  8
Layer_1
 62
7
100
AcDbLine
 10
-7.683429
 20
-9.304018
 30
0.0
 11
-8.305168
 21
-9.614011
 31
0.0
  0
LINE
  5
15c
100
AcDbEntity
  8
Layer_1
 62
7
100
AcDbLine
 10
-8.305168
 20
-9.614011
 30
0.0
 11
-8.665386
 21
-9.294027
 31
0.0
  0
LINE
  5
15d
100
AcDbEntity
  8
Layer_1
 62
7
100
AcDbLine
 10
-8.665386
 20
-9.294027
 30
0.0
 11
-8.430832
 21
-8.640090
 31
0.0
  0
LINE
  5
15e
100
AcDbEntity
  8
Layer_1
 62
7
100
AcDbLine
 10
-8.430832
 20
-8.640090
 30
0.0
 11
-8.105093
 21
-8.068082
 31
0.0
  0
LINE
  5
15f
100
AcDbEntity
  8
Layer_1
 62
7
100
AcDbLine
 10
-8.105093
 20
-8.068082
 30
0.0
 11
-8.534136
 21
-7.618304
 31
0.0
  0
LINE
  5
160
100
AcDbEntity
  8
Layer_1
 62
7
100
AcDbLine
 10
-8.534136
 20
-7.618304
 30
0.0
 11
-9.120856
 21
-7.916698
 31
0.0
  0
LINE
  5
161
100
AcDbEntity
  8
Layer_1
 62
7
100
AcDbLine
 10
-9.120856
 20
-7.916698
 30
0.0
 11
-9.785140
 21
-8.120124
 31
0.0
  0
LINE
  5
162
100
AcDbEntity
  8
Layer_1
 62
7
100
AcDbLine
 10
-9.785140
 20
-8.120124
 30
0.0
 11
-10.087775
 21
-7.745191
 31
0.0
  0
LINE
  5
163
100
AcDbEntity
  8
Layer_1
 62
7
100
AcDbLine
 10
-10.087775
 20
-7.745191
 30
0.0
 11
-9.748787
 21
-7.138781
 31
0.0
  0
LINE
  5
164
100
AcDbEntity
  8
Layer_1
 62
7
100
AcDbLine
 10
-9.748787
 20
-7.138781
 30
0.0
 11
-9.333343
 21
-6.628212
 31
0.0
  0
LINE
  5
165
100
AcDbEntity
  8
Layer_1
 62
7
100
AcDbLine
 10
-9.333343
 20
-6.628212
 30
0.0
 11
-9.682502
 21
-6.113947
 31
0.0
  0
LINE
  5
166
100
AcDbEntity
  8
Layer_1
 62
7
100
AcDbLine
 10
-9.682502
 20
-6.113947
 30
0.0
 11
-10.310335
 21
-6.311700
 31
0.0
  0
LINE
  5
167
100
AcDbEntity
  8
Layer_1
 62
7
100
AcDbLine
 10
-10.310335
 20
-6.311700
 30
0.0
 11
-10.999043
 21
-6.402999
 31
0.0
  0
LINE
  5
168
100
AcDbEntity
  8
Layer_1
 62
7
100
AcDbLine
 10
-10.999043
 20
-6.402999
 30
0.0
 11
-11.235840
 21
-5.983391
 31
0.0
  0
LINE
  5
169
100
AcDbEntity
  8
Layer_1
 62
7
100
AcDbLine
 10
-11.235840
 20
-5.983391
 30
0.0
 11
-10.801662
 21
-5.441045
 31
0.0
  0
LINE
  5
16a
100
AcDbEntity
  8
Layer_1
 62
7
100
AcDbLine
 10
-10.801662
 20
-5.441045
 30
0.0
 11
-10.307846
 21
-5.005801
 31
0.0
  0
LINE
  5
16b
100
AcDbEntity
  8
Layer_1
 62
7
100
AcDbLine
 10
-10.307846
 20
-5.005801
 30
0.0
 11
-10.567596
 21
-4.441075
 31
0.0
  0
LINE
  5
16c
100
AcDbEntity
  8
Layer_1
 62
7
100
AcDbLine
 10
-10.567596
 20
-4.441075
 30
0.0
 11
-11.219413
 21
-4.532797
 31
0.0
  0
LINE
  5
16d
100
AcDbEntity
  8
Layer_1
 62
7
100
AcDbLine
 10
-11.219413
 20
-4.532797
 30
0.0
 11
-11.913758
 21
-4.509655
 31
0.0
  0
LINE
  5
16e
100
AcDbEntity
  8
Layer_1
 62
7
100
AcDbLine
 10
-11.913758
 20
-4.509655
 30
0.0
 11
-12.078260
 21
-4.056773
 31
0.0
  0
LINE
  5
16f
100
AcDbEntity
  8
Layer_1
 62
7
100
AcDbLine
 10
-12.078260
 20
-4.056773
 30
0.0
 11
-11.560737
 21
-3.593279
 31
0.0
  0
LINE
  5
170
100
AcDbEntity
  8
Layer_1
 62
7
100
AcDbLine
 10
-11.560737
 20
-3.593279
 30
0.0
 11
-11.002020
 21
-3.245271
 31
0.0
  0
LINE
  5
171
100
AcDbEntity
  8
Layer_1
 62
7
100
AcDbLine
 10
-11.002020
 20
-3.245271
 30
0.0
 11
-11.165275
 21
-2.645492
 31
0.0
  0
LINE
  5
172
100
AcDbEntity
  8
Layer_1
 62
7
100
AcDbLine
 10
-11.165275
 20
-2.645492
 30
0.0
 11
-11.823298
 21
-2.628559
 31
0.0
  0
LINE
  5
173
100
AcDbEntity
  8
Layer_1
 62
7
100
AcDbLine
 10
-11.823298
 20
-2.628559
 30
0.0
 11
-12.504340
 21
-2.491314
 31
0.0
  0
LINE
  5
174
100
AcDbEntity
  8
Layer_1
 62
7
100
AcDbLine
 10
-12.504340
 20
-2.491314
 30
0.0
 11
-12.592059
 21
-2.017520
 31
0.0
  0
LINE
  5
175
100
AcDbEntity
  8
Layer_1
 62
7
100
AcDbLine
 10
-12.592059
 20
-2.017520
 30
0.0
 11
-12.005305
 21
-1.645551
 31
0.0
  0
LINE
  5
176
100
AcDbEntity
  8
Layer_1
 62
7
100
AcDbLine
 10
-12.005305
 20
-1.645551
 30
0.0
 11
-11.396927
 21
-1.394232
 31
0.0
  0
LINE
  5
177
100
AcDbEntity
  8
Layer_1
 62
7
100
AcDbLine
 10
-11.396927
 20
-1.394232
 30
0.0
 11
-11.459237
 21
-0.775770
 31
0.0
  0
LINE
  5
178
100
AcDbEntity
  8
Layer_1
 62
7
100
AcDbLine
 10
-11.459237
 20
-0.775770
 30
0.0
 11
-12.105517
 21
-0.650859
 31
0.0
  0
LINE
  5
179
100
AcDbEntity
  8
Layer_1
 62
7
100
AcDbLine
 10
-12.105517
 20
-0.650859
 30
0.0
 11
-12.754678
 21
-0.403378
 31
0.0
  0
LINE
  5
17a
100
AcDbEntity
  8
Layer_1
 62
7
100
AcDbLine
 10
-12.754678
 20
-0.403378
 30
0.0
 11
-12.763221
 21
0.078347
 31
0.0
  0
LINE
  5
17b
100
AcDbEntity
  8
Layer_1
 62
7
100
AcDbLine
 10
-12.763221
 20
0.078347
 30
0.0
 11
-12.123240
 21
0.348688
 31
0.0
  0
LINE
  5
17c
100
AcDbEntity
  8
Layer_1
 62
7
100
AcDbLine
 10
-12.123240
 20
0.348688
 30
0.0
 11
-11.481798
 21
0.496431
 31
0.0
  0
LINE
  5
17d
100
AcDbEntity
  8
Layer_1
 62
7
100
AcDbLine
 10
-11.481798
 20
0.496431
 30
0.0
 11
-11.441459
 21
1.116727
 31
0.0
  0
LINE
  5
17e
100
AcDbEntity
  8
Layer_1
 62
7
100
AcDbLine
 10
-11.441459
 20
1.116727
 30
0.0
 11
-12.058365
 21
1.346315
 31
0.0
  0
LINE
  5
17f
100
AcDbEntity
  8
Layer_1
 62
7
100
AcDbLine
 10
-12.058365
 20
1.346315
 30
0.0
 11
-12.657940
 21
1.697259
 31
0.0
  0
LINE
  5
180
100
AcDbEntity
  8
Layer_1
 62
7
100
AcDbLine
 10
-12.657940
 20
1.697259
 30
0.0
 11
-12.587077
 21
2.173819
 31
0.0
  0
LINE
  5
181
100
AcDbEntity
  8
Layer_1
 62
7
100
AcDbLine
 10
-12.587077
 20
2.173819
 30
0.0
 11
-11.911329
 21
2.335137
 31
0.0
  0
LINE
  5
182
100
AcDbEntity
  8
Layer_1
 62
7
100
AcDbLine
 10
-11.911329
 20
2.335137
 30
0.0
 11
-11.254316
 21
2.375297
 31
0.0
  0
LINE
  5
183
100
AcDbEntity
  8
Layer_1
 62
7
100
AcDbLine
 10
-11.254316
 20
2.375297
 30
0.0
 11
-11.112429
 21
2.980495
 31
0.0
  0
LINE
  5
184
100
AcDbEntity
  8
Layer_1
 62
7
100
AcDbLine
 10
-11.112429
 20
2.980495
 30
0.0
 11
-11.683135
 21
3.308465
 31
0.0
  0
LINE
  5
185
100
AcDbEntity
  8
Layer_1
 62
7
100
AcDbLine
 10
-11.683135
 20
3.308465
 30
0.0
 11
-12.216769
 21
3.753332
 31
0.0
  0
LINE
  5
186
100
AcDbEntity
  8
Layer_1
 62
7
100
AcDbLine
 10
-12.216769
 20
3.753332
 30
0.0
 11
-12.068429
 21
4.211746
 31
0.0
  0
LINE
  5
187
100
AcDbEntity
  8
Layer_1
 62
7
100
AcDbLine
 10
-12.068429
 20
4.211746
 30
0.0
 11
-11.375346
 21
4.259639
 31
0.0
  0
LINE
  5
188
100
AcDbEntity
  8
Layer_1
 62
7
100
AcDbLine
 10
-11.375346
 20
4.259639
 30
0.0
 11
-10.720688
 21
4.191087
 31
0.0
  0
LINE
  5
189
100
AcDbEntity
  8
Layer_1
 62
7
100
AcDbLine
 10
-10.720688
 20
4.191087
 30
0.0
 11
-10.481126
 21
4.764675
 31
0.0
  0
LINE
  5
18a
100
AcDbEntity
  8
Layer_1
 62
7
100
AcDbLine
 10
-10.481126
 20
4.764675
 30
0.0
 11
-10.990062
 21
5.182139
 31
0.0
  0
LINE
  5
18b
100
AcDbEntity
  8
Layer_1
 62
7
100
AcDbLine
 10
-10.990062
 20
5.182139
 30
0.0
 11
-11.443201
 21
5.708737
 31
0.0
  0
LINE
  5
18c
100
AcDbEntity
  8
Layer_1
 62
7
100
AcDbLine
 10
-11.443201
 20
5.708737
 30
0.0
 11
-11.221428
 21
6.136501
 31
0.0
  0
LINE
  5
18d
100
AcDbEntity
  8
Layer_1
 62
7
100
AcDbLine
 10
-11.221428
 20
6.136501
 30
0.0
 11
-10.529917
 21
6.069643
 31
0.0
  0
LINE
  5
18e
100
AcDbEntity
  8
Layer_1
 62
7
100
AcDbLine
 10
-10.529917
 20
6.069643
 30
0.0
 11
-9.895467
 21
5.894298
 31
0.0
  0
LINE
  5
18f
100
AcDbEntity
  8
Layer_1
 62
7
100
AcDbLine
 10
-9.895467
 20
5.894298
 30
0.0
 11
-9.564764
 21
6.420614
 31
0.0
  0
LINE
  5
190
100
AcDbEntity
  8
Layer_1
 62
7
100
AcDbLine
 10
-9.564764
 20
6.420614
 30
0.0
 11
-9.998048
 21
6.916140
 31
0.0
  0
LINE
  5
191
100
AcDbEntity
  8
Layer_1
 62
7
100
AcDbLine
 10
-9.998048
 20
6.916140
 30
0.0
 11
-10.358328
 21
7.510161
 31
0.0
  0
LINE
  5
192
100
AcDbEntity
  8
Layer_1
 62
7
100
AcDbLine
 10
-10.358328
 20
7.510161
 30
0.0
 11
-10.069178
 21
7.895564
 31
0.0
  0
LINE
  5
193
100
AcDbEntity
  8
Layer_1
 62
7
100
AcDbLine
 10
-10.069178
 20
7.895564
 30
0.0
 11
-9.398098
 21
7.715817
 31
0.0
  0
LINE
  5
194
100
AcDbEntity
  8
Layer_1
 62
7
100
AcDbLine
 10
-9.398098
 20
7.715817
 30
0.0
 11
-8.801166
 21
7.438421
 31
0.0
  0
LINE
  5
195
100
AcDbEntity
  8
Layer_1
 62
7
100
AcDbLine
 10
-8.801166
 20
7.438421
 30
0.0
 11
-8.388340
 21
7.903156
 31
0.0
  0
LINE
  5
196
100
AcDbEntity
  8
Layer_1
 62
7
100
AcDbLine
 10
-8.388340
 20
7.903156
 30
0.0
 11
-8.734158
 21
8.463226
 31
0.0
  0
LINE
  5
197
100
AcDbEntity
  8
Layer_1
 62
7
100
AcDbLine
 10
-8.734158
 20
8.463226
 30
0.0
 11
-8.991749
 21
9.108442
 31
0.0
  0
LINE
  5
198
100
AcDbEntity
  8
Layer_1
 62
7
100
AcDbLine
 10
-8.991749
 20
9.108442
 30
0.0
 11
-8.643105
 21
9.441013
 31
0.0
  0
LINE
  5
199
100
AcDbEntity
  8
Layer_1
 62
7
100
AcDbLine
 10
-8.643105
 20
9.441013
 30
0.0
 11
-8.010766
 21
9.153259
 31
0.0
  0
LINE
  5
19a
100
AcDbEntity
  8
Layer_1
 62
7
100
AcDbLine
 10
-8.010766
 20
9.153259
 30
0.0
 11
-7.467630
 21
8.781375
 31
0.0
  0
LINE
  5
19b
100
AcDbEntity
  8
Layer_1
 62
7
100
AcDbLine
 10
-7.467630
 20
8.781375
 30
0.0
 11
-6.983947
 21
9.171829
 31
0.0
  0
LINE
  5
19c
100
AcDbEntity
  8
Layer_1
 62
7
100
AcDbLine
 10
-6.983947
 20
9.171829
 30
0.0
 11
-7.232862
 21
9.781175
 31
0.0
  0
LINE
  5
19d
100
AcDbEntity
  8
Layer_1
 62
7
100
AcDbLine
 10
-7.232862
 20
9.781175
 30
0.0
 11
-7.380742
 21
10.460005
 31
0.0
  0
LINE
  5
19e
100
AcDbEntity
  8
Layer_1
 62
7
100
AcDbLine
 10
-7.380742
 20
10.460005
 30
0.0
 11
-6.982115
 21
10.730627
 31
0.0
  0
LINE
  5
19f
100
AcDbEntity
  8
Layer_1
 62
7
100
AcDbLine
 10
-6.982115
 20
10.730627
 30
0.0
 11
-6.405762
 21
10.342741
 31
0.0
  0
LINE
  5
1a0
100
AcDbEntity
  8
Layer_1
 62
7
100
AcDbLine
 10
-6.405762
 20
10.342741
 30
0.0
 11
-5.931241
 21
9.886529
 31
0.0
  0
LINE
  5
1a1
100
AcDbEntity
  8
Layer_1
 62
7
100
AcDbLine
 10
-5.931241
 20
9.886529
 30
0.0
 11
-5.389890
 21
10.192035
 31
0.0
  0
LINE
  5
1a2
100
AcDbEntity
  8
Layer_1
 62
7
100
AcDbLine
 10
-5.389890
 20
10.192035
 30
0.0
 11
-5.535113
 21
10.834062
 31
0.0
  0
LINE
  5
1a3
100
AcDbEntity
  8
Layer_1
 62
7
100
AcDbLine
 10
-5.535113
 20
10.834062
 30
0.0
 11
-5.569247
 21
11.527962
 31
0.0
  0
LINE
  5
1a4
100
AcDbEntity
  8
Layer_1
 62
7
100
AcDbLine
 10
-5.569247
 20
11.527962
 30
0.0
 11
-5.131511
 21
11.729299
 31
0.0
  0
LINE
  5
1a5
100
AcDbEntity
  8
Layer_1
 62
7
100
AcDbLine
 10
-5.131511
 20
11.729299
 30
0.0
 11
-4.626863
 21
11.251807
 31
0.0
  0
LINE
  5
1a6
100
AcDbEntity
  8
Layer_1
 62
7
100
AcDbLine
 10
-4.626863
 20
11.251807
 30
0.0
 11
-4.233902
 21
10.723741
 31
0.0
  0
LINE
  5
1a7
100
AcDbEntity
  8
Layer_1
 62
7
100
AcDbLine
 10
-4.233902
 20
10.723741
 30
0.0
 11
-3.649650
 21
10.935972
 31
0.0
  0
LINE
  5
1a8
100
AcDbEntity
  8
Layer_1
 62
7
100
AcDbLine
 10
-3.649650
 20
10.935972
 30
0.0
 11
-3.687222
 21
11.593127
 31
0.0
  0
LINE
  5
1a9
100
AcDbEntity
  8
Layer_1
 62
7
100
AcDbLine
 10
-3.687222
 20
11.593127
 30
0.0
 11
-3.606678
 21
12.283188
 31
0.0
  0
LINE
  5
1aa
100
AcDbEntity
  8
Layer_1
 62
7
100
AcDbLine
 10
-3.606678
 20
12.283188
 30
0.0
 11
-3.141773
 21
12.409737
 31
0.0
  0
LINE
  5
1ab
100
AcDbEntity
  8
Layer_1
 62
7
100
AcDbLine
 10
-3.141773
 20
12.409737
 30
0.0
 11
-2.722602
 21
11.855678
 31
0.0
  0
LINE
  5
1ac
100
AcDbEntity
  8
Layer_1
 62
7
100
AcDbLine
 10
-2.722602
 20
11.855678
 30
0.0
 11
-2.421915
 21
11.270152
 31
0.0
  0
LINE
  5
1ad
100
AcDbEntity
  8
Layer_1
 62
7
100
AcDbLine
 10
-2.421915
 20
11.270152
 30
0.0
 11
-1.810703
 21
11.383323
 31
0.0
  0
LINE
  5
1ae
100
AcDbEntity
  8
Layer_1
 62
7
100
AcDbLine
 10
-1.810703
 20
11.383323
 30
0.0
 11
-1.739594
 21
12.037711
 31
0.0
  0
LINE
  5
1af
100
AcDbEntity
  8
Layer_1
 62
7
100
AcDbLine
 10
-1.739594
 20
12.037711
 30
0.0
 11
-1.546571
 21
12.705082
 31
0.0
  0
LINE
  5
1b0
100
AcDbEntity
  8
Layer_1
 62
7
100
AcDbLine
 10
-1.546571
 20
12.705082
 30
0.0
 11
-1.067180
 21
12.753371
 31
0.0
  0
LINE
  5
1b1
100
AcDbEntity
  8
Layer_1
 62
7
100
AcDbLine
 10
-1.067180
 20
12.753371
 30
0.0
 11
-0.744914
 21
12.137900
 31
0.0
  0
LINE
  5
1b2
100
AcDbEntity
  8
Layer_1
 62
7
100
AcDbLine
 10
-0.744914
 20
12.137900
 30
0.0
 11
-0.544708
 21
11.510859
 31
0.0
  0
LINE
  5
1b3
100
AcDbEntity
  8
Layer_1
 62
7
100
AcDbLine
 10
-0.544708
 20
11.510859
 30
0.0
 11
0.076797
 21
11.521866
 31
0.0
  0
LINE
  5
1b4
100
AcDbEntity
  8
Layer_1
 62
7
100
AcDbLine
 10
0.076797
 20
11.521866
 30
0.0
 11
0.254643
 21
12.155596
 31
0.0
  0
LINE
  5
1b5
100
AcDbEntity
  8
Layer_1
 62
7
100
AcDbLine
 10
0.254643
 20
12.155596
 30
0.0
 11
0.554883
 21
12.782129
 31
0.0
  0
LINE
  5
1b6
100
AcDbEntity
  8
Layer_1
 62
7
100
AcDbLine
 10
0.554883
 20
12.782129
 30
0.0
 11
1.035686
 21
12.750859
 31
0.0
  0
LINE
  5
1b7
100
AcDbEntity
  8
Layer_1
 62
7
100
AcDbLine
 10
1.035686
 20
12.750859
 30
0.0
 11
1.252252
 21
12.090741
 31
0.0
  0
LINE
  5
1b8
100
AcDbEntity
  8
Layer_1
 62
7
100
AcDbLine
 10
1.252252
 20
12.090741
 30
0.0
 11
1.346520
 21
11.439287
 31
0.0
  0
LINE
  5
1b9
100
AcDbEntity
  8
Layer_1
 62
7
100
AcDbLine
 10
1.346520
 20
11.439287
 30
0.0
 11
1.961362
 21
11.347847
 31
0.0
  0
LINE
  5
1ba
100
AcDbEntity
  8
Layer_1
 62
7
100
AcDbLine
 10
1.961362
 20
11.347847
 30
0.0
 11
2.241097
 21
11.943703
 31
0.0
  0
LINE
  5
1bb
100
AcDbEntity
  8
Layer_1
 62
7
100
AcDbLine
 10
2.241097
 20
11.943703
 30
0.0
 11
2.640359
 21
12.512240
 31
0.0
  0
LINE
  5
1bc
100
AcDbEntity
  8
Layer_1
 62
7
100
AcDbLine
 10
2.640359
 20
12.512240
 30
0.0
 11
3.109458
 21
12.402258
 31
0.0
  0
LINE
  5
1bd
100
AcDbEntity
  8
Layer_1
 62
7
100
AcDbLine
 10
3.109458
 20
12.402258
 30
0.0
 11
3.214420
 21
11.715498
 31
0.0
  0
LINE
  5
1be
100
AcDbEntity
  8
Layer_1
 62
7
100
AcDbLine
 10
3.214420
 20
11.715498
 30
0.0
 11
3.200176
 21
11.057413
 31
0.0
  0
LINE
  5
1bf
100
AcDbEntity
  8
Layer_1
 62
7
100
AcDbLine
 10
3.200176
 20
11.057413
 30
0.0
 11
3.791583
 21
10.866038
 31
0.0
  0
LINE
  5
1c0
100
AcDbEntity
  8
Layer_1
 62
7
100
AcDbLine
 10
3.791583
 20
10.866038
 30
0.0
 11
4.165576
 21
11.407707
 31
0.0
  0
LINE
  5
1c1
100
AcDbEntity
  8
Layer_1
 62
7
100
AcDbLine
 10
4.165576
 20
11.407707
 30
0.0
 11
4.652971
 21
11.902781
 31
0.0
  0
LINE
  5
1c2
100
AcDbEntity
  8
Layer_1
 62
7
100
AcDbLine
 10
4.652971
 20
11.902781
 30
0.0
 11
5.097572
 21
11.717107
 31
0.0
  0
LINE
  5
1c3
100
AcDbEntity
  8
Layer_1
 62
7
100
AcDbLine
 10
5.097572
 20
11.717107
 30
0.0
 11
5.088064
 21
11.022417
 31
0.0
  0
LINE
  5
1c4
100
AcDbEntity
  8
Layer_1
 62
7
100
AcDbLine
 10
5.088064
 20
11.022417
 30
0.0
 11
4.965696
 21
10.375677
 31
0.0
  0
LINE
  5
1c5
100
AcDbEntity
  8
Layer_1
 62
7
100
AcDbLine
 10
4.965696
 20
10.375677
 30
0.0
 11
5.517541
 21
10.089560
 31
0.0
  0
LINE
  5
1c6
100
AcDbEntity
  8
Layer_1
 62
7
100
AcDbLine
 10
5.517541
 20
10.089560
 30
0.0
 11
5.975586
 21
10.562282
 31
0.0
  0
LINE
  5
1c7
100
AcDbEntity
  8
Layer_1
 62
7
100
AcDbLine
 10
5.975586
 20
10.562282
 30
0.0
 11
6.537824
 21
10.970375
 31
0.0
  0
LINE
  5
1c8
100
AcDbEntity
  8
Layer_1
 62
7
100
AcDbLine
 10
6.537824
 20
10.970375
 30
0.0
 11
6.945795
 21
10.714061
 31
0.0
  0
LINE
  5
1c9
100
AcDbEntity
  8
Layer_1
 62
7
100
AcDbLine
 10
6.945795
 20
10.714061
 30
0.0
 11
6.822077
 21
10.030406
 31
0.0
  0
LINE
  5
1ca
100
AcDbEntity
  8
Layer_1
 62
7
100
AcDbLine
 10
6.822077
 20
10.030406
 30
0.0
 11
6.594927
 21
9.412621
 31
0.0
  0
LINE
  5
1cb
100
AcDbEntity
  8
Layer_1
 62
7
100
AcDbLine
 10
6.594927
 20
9.412621
 30
0.0
 11
7.092150
 21
9.039580
 31
0.0
  0
LINE
  5
1cc
100
AcDbEntity
  8
Layer_1
 62
7
100
AcDbLine
 10
7.092150
 20
9.039580
 30
0.0
 11
7.621759
 21
9.430458
 31
0.0
  0
LINE
  5
1cd
100
AcDbEntity
  8
Layer_1
 62
7
100
AcDbLine
 10
7.621759
 20
9.430458
 30
0.0
 11
8.243498
 21
9.740451
 31
0.0
  0
LINE
  5
1ce
100
AcDbEntity
  8
Layer_1
 62
7
100
AcDbLine
 10
8.243498
 20
9.740451
 30
0.0
 11
8.603716
 21
9.420467
 31
0.0
  0
LINE
  5
1cf
100
AcDbEntity
  8
Layer_1
 62
7
100
AcDbLine
 10
8.603716
 20
9.420467
 30
0.0
 11
8.369162
 21
8.766530
 31
0.0
  0
LINE
  5
1d0
100
AcDbEntity
  8
Layer_1
 62
7
100
AcDbLine
 10
8.369162
 20
8.766530
 30
0.0
 11
8.043422
 21
8.194550
 31
0.0
  0
LINE
  5
1d1
100
AcDbEntity
  8
Layer_1
 62
7
100
AcDbLine
 10
8.043422
 20
8.194550
 30
0.0
 11
8.472466
 21
7.744745
 31
0.0
  0
LINE
  5
1d2
100
AcDbEntity
  8
Layer_1
 62
7
100
AcDbLine
 10
8.472466
 20
7.744745
 30
0.0
 11
9.059185
 21
8.043138
 31
0.0
  0
LINE
  5
1d3
100
AcDbEntity
  8
Layer_1
 62
7
100
AcDbLine
 10
9.059185
 20
8.043138
 30
0.0
 11
9.723470
 21
8.246564
 31
0.0
  0
LINE
  5
1d4
100
AcDbEntity
  8
Layer_1
 62
7
100
AcDbLine
 10
9.723470
 20
8.246564
 30
0.0
 11
10.026104
 21
7.871660
 31
0.0
  0
LINE
  5
1d5
100
AcDbEntity
  8
Layer_1
 62
7
100
AcDbLine
 10
10.026104
 20
7.871660
 30
0.0
 11
9.687116
 21
7.265221
 31
0.0
  0
LINE
  5
1d6
100
AcDbEntity
  8
Layer_1
 62
7
100
AcDbLine
 10
9.687116
 20
7.265221
 30
0.0
 11
9.271672
 21
6.754653
 31
0.0
  0
LINE
  5
1d7
100
AcDbEntity
  8
Layer_1
 62
7
100
AcDbLine
 10
9.271672
 20
6.754653
 30
0.0
 11
9.620832
 21
6.240387
 31
0.0
  0
LINE
  5
1d8
100
AcDbEntity
  8
Layer_1
 62
7
100
AcDbLine
 10
9.620832
 20
6.240387
 30
0.0
 11
10.248664
 21
6.438140
 31
0.0
  0
LINE
  5
1d9
100
AcDbEntity
  8
Layer_1
 62
7
100
AcDbLine
 10
10.248664
 20
6.438140
 30
0.0
 11
10.937373
 21
6.529439
 31
0.0
  0
LINE
  5
1da
100
AcDbEntity
  8
Layer_1
 62
7
100
AcDbLine
 10
10.937373
 20
6.529439
 30
0.0
 11
11.174169
 21
6.109831
 31
0.0
  0
LINE
  5
1db
100
AcDbEntity
  8
Layer_1
 62
7
100
AcDbLine
 10
11.174169
 20
6.109831
 30
0.0
 11
10.739992
 21
5.567485
 31
0.0
  0
LINE
  5
1dc
100
AcDbEntity
  8
Layer_1
 62
7
100
AcDbLine
 10
10.739992
 20
5.567485
 30
0.0
 11
10.246176
 21
5.132242
 31
0.0
  0
LINE
  5
1dd
100
AcDbEntity
  8
Layer_1
 62
7
100
AcDbLine
 10
10.246176
 20
5.132242
 30
0.0
 11
10.505925
 21
4.567515
 31
0.0
  0
LINE
  5
1de
100
AcDbEntity
  8
Layer_1
 62
7
100
AcDbLine
 10
10.505925
 20
4.567515
 30
0.0
 11
11.157743
 21
4.659237
 31
0.0
  0
LINE
  5
1df
100
AcDbEntity
  8
Layer_1
 62
7
100
AcDbLine
 10
11.157743
 20
4.659237
 30
0.0
 11
11.852088
 21
4.636095
 31
0.0
  0
LINE
  5
1e0
100
AcDbEntity
  8
Layer_1
 62
7
100
AcDbLine
 10
11.852088
 20
4.636095
 30
0.0
 11
12.016590
 21
4.183213
 31
0.0
  0
LINE
  5
1e1
100
AcDbEntity
  8
Layer_1
 62
7
100
AcDbLine
 10
12.016590
 20
4.183213
 30
0.0
 11
11.499067
 21
3.719719
 31
0.0
  0
LINE
  5
1e2
100
AcDbEntity
  8
Layer_1
 62
7
100
AcDbLine
 10
11.499067
 20
3.719719
 30
0.0
 11
10.940350
 21
3.371711
 31
0.0
  0
LINE
  5
1e3
100
AcDbEntity
  8
Layer_1
 62
7
100
AcDbLine
 10
10.940350
 20
3.371711
 30
0.0
 11
11.103605
 21
2.771904
 31
0.0
  0
ENDSEC
  0
SECTION
  2
OBJECTS
  0
DICTIONARY
  5
C
330
0
100
AcDbDictionary
  3
ACAD_GROUP
350
D
  3
ACAD_MLINESTYLE
350
17
  0
DICTIONARY
  5
D
330
C
100
AcDbDictionary
  0
DICTIONARY
  5
1A
330
C
100
AcDbDictionary
  0
DICTIONARY
  5
17
330
C
100
AcDbDictionary
  3
STANDARD
350
18
  0
DICTIONARY
  5
19
330
C
100
AcDbDictionary
  0
ENDSEC
  0
EOF
