<?xml version="1.0" encoding="UTF-8" standalone="no"?>
<!-- Created with Inkscape (http://www.inkscape.org/) -->

<svg
   xmlns:dc="http://purl.org/dc/elements/1.1/"
   xmlns:cc="http://creativecommons.org/ns#"
   xmlns:rdf="http://www.w3.org/1999/02/22-rdf-syntax-ns#"
   xmlns:svg="http://www.w3.org/2000/svg"
   xmlns="http://www.w3.org/2000/svg"
   xmlns:sodipodi="http://sodipodi.sourceforge.net/DTD/sodipodi-0.dtd"
   xmlns:inkscape="http://www.inkscape.org/namespaces/inkscape"
   width="297mm"
   height="210mm"
   viewBox="0 0 1052.3622 744.09448"
   id="svg2"
   version="1.1"
   inkscape:version="0.91 r13725"
   sodipodi:docname="gear-cp1.5-t61.svg">
  <sodipodi:namedview
     id="base"
     pagecolor="#ffffff"
     bordercolor="#666666"
     borderopacity="1.0"
     inkscape:pageopacity="0.0"
     inkscape:pageshadow="2"
     inkscape:zoom="4"
     inkscape:cx="-19.679597"
     inkscape:cy="2.6343209"
     inkscape:document-units="mm"
     inkscape:current-layer="layer1"
     showgrid="true"
     inkscape:window-width="1366"
     inkscape:window-height="705"
     inkscape:window-x="-8"
     inkscape:window-y="-8"
     inkscape:window-maximized="1"
     showguides="true"
     inkscape:guide-bbox="true"
     inkscape:snap-bbox="true"
     inkscape:bbox-nodes="true"
     inkscape:snap-bbox-edge-midpoints="true"
     inkscape:snap-bbox-midpoints="false"
     inkscape:snap-object-midpoints="false"
     inkscape:snap-global="true"
     inkscape:snap-grids="true"
     inkscape:object-nodes="true"
     inkscape:snap-smooth-nodes="true"
     inkscape:snap-center="true">
    <inkscape:grid
       spacingy="17.716535"
       spacingx="17.716536"
       units="mm"
       id="grid3333"
       type="xygrid"
       color="#e80007"
       opacity="0.96078431"
       empcolor="#ed0000"
       empopacity="0.25098039" />
    <inkscape:grid
       type="xygrid"
       id="grid4730"
       units="mm"
       spacingx="0.35433071"
       spacingy="0.35433071"
       empspacing="10" />
    <sodipodi:guide
       id="guide3393"
       orientation="744.0945,0"
       position="526.1811,0" />
    <sodipodi:guide
       id="guide3395"
       orientation="0,1052.3622"
       position="0,248.0315" />
    <sodipodi:guide
       id="guide3397"
       orientation="0,1052.3622"
       position="0,496.063" />
    <sodipodi:guide
       position="24.80315,0"
       orientation="0,1"
       id="guide4154" />
    <sodipodi:guide
       position="0,21.259843"
       orientation="1,0"
       id="guide4156" />
  </sodipodi:namedview>
  <defs
     id="defs4" />
  <metadata
     id="metadata7">
    <rdf:RDF>
      <cc:Work
         rdf:about="">
        <dc:format>image/svg+xml</dc:format>
        <dc:type
           rdf:resource="http://purl.org/dc/dcmitype/StillImage" />
        <dc:title></dc:title>
      </cc:Work>
    </rdf:RDF>
  </metadata>
  <g
     transform="translate(0,-308.26772)"
     id="layer1"
     inkscape:groupmode="layer"
     inkscape:label="Layer 1"
     style="display:inline">
    <path
       id="path5032-7-3-7"
       d="m 49.217797,1060.6351 1.753318,-0.2411 1.776596,-0.4357 0.173203,-1.3193 -1.603916,-0.8796 -1.631673,-0.6855 0.122243,-1.5433 1.71923,-0.4201 1.722372,-0.6161 0.03664,-1.3301 -1.685847,-0.71 -1.693511,-0.514 -0.03709,-1.5477 1.666925,-0.5947 1.649904,-0.7899 -0.100324,-1.3268 -1.749914,-0.5329 -1.737396,-0.3372 -0.196038,-1.5357 1.59696,-0.7629 1.559935,-0.9554 -0.236218,-1.3095 -1.79543,-0.3501 -1.762858,-0.1568 -0.352897,-1.5074 1.510048,-0.923 1.453429,-1.1107 -0.369598,-1.2783 -1.821918,-0.1636 -1.769637,0.025 -0.506013,-1.4632 1.407137,-1.0734 1.331517,-1.2543 -0.499068,-1.2334 -1.829086,0.024 -1.757654,0.2071 -0.653782,-1.4033 1.289317,-1.2124 1.195486,-1.3845 -0.623245,-1.1756 -1.816866,0.2124 -1.727045,0.3868 -0.794608,-1.3287 1.157817,-1.3385 1.046796,-1.5002 -0.740817,-1.1053 -1.7854,0.3982 -1.678127,0.5623 -0.927005,-1.24 1.014047,-1.4505 0.887013,-1.5998 -0.850551,-1.0232 -1.73499,0.5796 -1.611412,0.7318 -1.049593,-1.138 0.859535,-1.5471 0.71781,-1.6825 -0.951245,-0.9304 -1.666198,0.7549 -1.527631,0.8937 -1.161043,-1.0241 0.695908,-1.6273 0.541013,-1.7474 -1.04187,-0.8277 -1.579742,0.9223 -1.42765,1.046 -1.260183,-0.8993 0.524906,-1.6902 0.358465,-1.7938 -1.121443,-0.7161 -1.476541,1.0798 -1.312536,1.1872 -1.34597,-0.7649 0.348332,-1.7352 0.17213,-1.8212 -1.189132,-0.597 -1.357688,1.2259 -1.183506,1.3159 -1.417491,-0.6225 0.168074,-1.7618 -0.01603,-1.8292 -1.24422,-0.4716 -1.224448,1.359 -1.041936,1.4306 -1.473981,-0.4734 -0.01396,-1.7698 -0.204028,-1.8178 -1.286115,-0.3412 -1.078215,1.4777 -0.889314,1.5302 -1.5148546,-0.3194 -0.195857,-1.7589 -0.389865,-1.78728 -1.314374,-0.20712 -0.920564,1.5807 -0.727273,1.6135 -1.539662,-0.1619 -0.375681,-1.7295 -0.571553,-1.73766 -1.328708,-0.0709 -0.753152,1.66706 -0.55750998,1.6797 -1.5481522,0 -0.55151902,-1.6817 -0.747195,-1.66971 -1.328954,0.0661 -0.577749,1.73561 -0.381858,1.7281 -1.540227,0.1565 -0.721506,-1.6161 -0.914915,-1.58402 -1.315108,0.20242 -0.396241,1.7858 -0.202136,1.7583 -1.5159792,0.3139 -0.883849,-1.5333 -1.072937,-1.4815 -1.287323,0.3365 -0.210521,1.8171 -0.02028,1.7697 -1.475668,0.4682 -1.036817,-1.4343 -1.219578,-1.3634 -1.245898,0.4672 -0.02257,1.8291 0.161786,1.7624 -1.41971,0.6174 -1.178792,-1.3201 -1.353309,-1.2307 -1.191257,0.5928 0.165625,1.8217 0.342142,1.7364 -1.3487,0.7602 -1.308283,-1.1919 -1.472676,-1.0851 -1.123999,0.7121 0.352065,1.795 0.518862,1.6921 -1.263391,0.8948 -1.423899,-1.0511 -1.576438,-0.9279 -1.044828,0.8239 0.534769,1.7494 0.690092,1.6297 -1.164694,1.0199 -1.524428,-0.899 -1.663487,-0.761 -0.954567,0.927 0.711791,1.6851 0.854006,1.5502 -1.053644,1.1342 -1.608797,-0.7375 -1.732913,-0.5859 -0.85418,1.0203 0.88128,1.6029 1.008871,1.4541 -0.931431,1.2366 -1.67611,-0.5682 -1.78396,-0.4045 -0.74477,1.1026 1.04144,1.5038 1.15303,1.3427 -0.79935,1.3259 -1.72565,-0.3929 -1.8161,-0.219 -0.62745,1.1734 1.19055,1.3888 1.28497,1.217 -0.65879,1.4009 -1.7569,-0.2133 -1.82899,-0.031 -0.50348,1.2317 1.32704,1.259 1.4033,1.0784 -0.51125,1.4613 -1.76953,-0.032 -1.82249,0.1572 -0.37416,1.2769 1.44945,1.1159 1.50675,0.9284 -0.35828,1.5061 -1.76341,0.1505 -1.79667,0.3437 -0.24088,1.3086 1.5565,0.961 1.59422,0.7686 -0.20152,1.535 -1.73858,0.331 -1.75181,0.5266 -0.10506,1.3264 1.64707,0.7959 1.6648,0.6006 -0.0426,1.5475 -1.69534,0.5081 -1.68837,0.7039 0.0319,1.3302 1.72017,0.6223 1.71772,0.4262 0.11673,1.5437 -1.63411,0.6797 -1.60705,0.8738 0.16849,1.3199 1.77503,0.4421 1.75244,0.2473 0.27484,1.5236 -1.55557,0.8441 -1.50867,1.0344 0.3033,1.2956 1.81108,0.2572 1.76859,0.066 0.43003,1.4872 -1.46053,0.9995 -1.39433,1.1841 0.43491,1.2575 1.82793,0.07 1.76599,-0.1164 0.58067,1.4351 -1.35002,1.1445 -1.26518,1.3211 0.5619,1.2062 1.82539,-0.1187 1.74467,-0.2973 0.72515,1.3678 -1.22519,1.2772 -1.12263,1.4442 0.68294,1.142 1.80353,-0.3058 1.70484,-0.4751 0.86195,1.286 -1.08737,1.3964 -0.9682,1.552 0.79675,1.0657 1.76253,-0.4895 1.646951,-0.6479 0.989615,1.1905 -0.938036,1.5008 -0.803478,1.6434 0.902094,0.9781 1.702854,-0.6682 1.571605,-0.8138 1.106788,1.0825 -0.77876,1.5893 -0.630245,1.7172 0.997878,0.8802 1.625133,-0.8397 1.479595,-0.9711 1.212225,0.9629 -0.611221,1.661 -0.450335,1.7729 1.083096,0.7729 1.530166,-1.0023 1.371912,-1.1181 1.304813,0.8332 -0.437206,1.715 -0.265648,1.8098 1.156823,0.6575 1.418999,-1.1544 1.249682,-1.2532 1.38356,0.6946 -0.258552,1.7508 -0.07815,1.8276 1.218293,0.535 1.292781,-1.2941 1.1142,-1.3751 1.447654,0.5487 -0.07715,1.7681 0.110168,1.826 1.266851,0.4069 1.15286,-1.4203 0.966911,-1.4823 1.496402,0.3969 0.105045,1.7667 0.297334,1.805 1.301977,0.2745 1.0007152,-1.5313 0.80937,-1.5739 1.529283,0.241 0.28615,1.7465 0.481345,1.7648 1.323293,0.1392 0.837978,-1.6261 0.643243,-1.6487 1.54596,0.082 0.46421,1.7079 0.66024702,1.7059 1.330591,0 0.66634318,-1.7036 0.470303,-1.7062 1.546241,-0.077 0.637354,1.6511 0.832163,1.629 1.323784,-0.1345 0.487644,-1.763 0.292389,-1.7455 1.530134,-0.2355 0.803741,1.5767 0.9952406,1.5349 1.302943,-0.2699 0.30378,-1.8038 0.111366,-1.7663 1.497807,-0.3916 0.961608,1.4857 1.14778,1.4244 1.26829,-0.4024 0.116699,-1.8255 -0.07084,-1.7684 1.449605,-0.5435 1.10928,1.379 1.288148,1.2988 1.220198,-0.5307 -0.07163,-1.8278 -0.252295,-1.7518 1.386041,-0.6897 1.245195,1.2577 1.414862,1.1594 1.159165,-0.6533 -0.259186,-1.8108 -0.43107,-1.7165 1.307778,-0.8285 1.367902,1.1229 1.526582,1.0079 1.085852,-0.7691 -0.444006,-1.7745 -0.605277,-1.6631 1.215648,-0.9586 1.476126,0.9763 1.62212,0.8455 1.001015,-0.8766 -0.624105,-1.7195 -0.773074,-1.592 1.110643,-1.0785 1.568694,0.8194 1.700451,0.6742 0.905576,-0.9749 -0.797592,-1.6462 -0.932675,-1.5041 0.993859,-1.187 1.644631,0.6538 1.760768,0.4958 0.80054,-1.0628 -0.962636,-1.5555 -1.08238,-1.4002 0.866529,-1.283 1.703142,0.4813 1.802421,0.3121 0.687015,-1.1395 -1.11747,-1.4483 -1.22062,-1.2815 0.730031,-1.3652 1.743593,0.3035 1.824962,0.1252 0.566216,-1.2041 -1.260463,-1.3257 -1.345926,-1.1492 0.585793,-1.433 1.765564,0.1226 1.828162,-0.063 0.439404,-1.256 -1.390089,-1.189 -1.456949,-1.0048 0.435335,-1.4856 1.768818,-0.06 1.811978,-0.2507 0.307931,-1.2945 -1.504973,-1.0398 -1.552534,-0.8497 z"
       style="fill:#004455;stroke:none;stroke-width:1"
       inkscape:connector-curvature="0" />
  </g>
</svg>
