  0
SECTION
  2
HEADER
  9
$ACADVER
  1
AC1014
  9
$HANDSEED
  5
FFFF
  9
$MEASUREMENT
 70
     1
  0
ENDSEC
  0
SECTION
  2
TABLES
  0
TABLE
  2
VPORT
  5
8
330
0
100
AcDbSymbolTable
 70
     4
  0
VPORT
  5
2E
330
8
100
AcDbSymbolTableRecord
100
AcDbViewportTableRecord
  2
*ACTIVE
 70
     0
 10
0.0
 20
0.0
 11
1.0
 21
1.0
 12
210.0
 22
148.5
 13
0.0
 23
0.0
 14
10.0
 24
10.0
 15
10.0
 25
10.0
 16
0.0
 26
0.0
 36
1.0
 17
0.0
 27
0.0
 37
0.0
 40
341.0
 41
1.24
 42
50.0
 43
0.0
 44
0.0
 50
0.0
 51
0.0
 71
     0
 72
   100
 73
     1
 74
     3
 75
     0
 76
     0
 77
     0
 78
     0
  0
ENDTAB
  0
TABLE
  2
LTYPE
  5
5
330
0
100
AcDbSymbolTable
 70
     1
  0
LTYPE
  5
14
330
5
100
AcDbSymbolTableRecord
100
AcDbLinetypeTableRecord
  2
BYBLOCK
 70
     0
  3

 72
    65
 73
     0
 40
0.0
  0
LTYPE
  5
15
330
5
100
AcDbSymbolTableRecord
100
AcDbLinetypeTableRecord
  2
BYLAYER
 70
     0
  3

 72
    65
 73
     0
 40
0.0
  0
LTYPE
  5
16
330
5
100
AcDbSymbolTableRecord
100
AcDbLinetypeTableRecord
  2
CONTINUOUS
 70
     0
  3
Solid line
 72
    65
 73
     0
 40
0.0
  0
ENDTAB
  0
TABLE
  2
LAYER
  5
2
100
AcDbSymbolTable
 70
2
  0
LAYER
  5
50
100
AcDbSymbolTableRecord
100
AcDbLayerTableRecord
  2
0
 70
0
  6
CONTINUOUS
  0
LAYER
  5
51
100
AcDbSymbolTableRecord
100
AcDbLayerTableRecord
  2
Layer_1
 70
0
  6
CONTINUOUS
  0
ENDTAB
  0
TABLE
  2
STYLE
  5
3
330
0
100
AcDbSymbolTable
 70
     1
  0
STYLE
  5
11
330
3
100
AcDbSymbolTableRecord
100
AcDbTextStyleTableRecord
  2
STANDARD
 70
     0
 40
0.0
 41
1.0
 50
0.0
 71
     0
 42
2.5
  3
txt
  4

  0
ENDTAB
  0
TABLE
  2
VIEW
  5
6
330
0
100
AcDbSymbolTable
 70
     0
  0
ENDTAB
  0
TABLE
  2
UCS
  5
7
330
0
100
AcDbSymbolTable
 70
     0
  0
ENDTAB
  0
TABLE
  2
APPID
  5
9
330
0
100
AcDbSymbolTable
 70
     2
  0
APPID
  5
12
330
9
100
AcDbSymbolTableRecord
100
AcDbRegAppTableRecord
  2
ACAD
 70
     0
  0
ENDTAB
  0
TABLE
  2
DIMSTYLE
  5
A
330
0
100
AcDbSymbolTable
 70
     1
  0
DIMSTYLE
105
27
330
A
100
AcDbSymbolTableRecord
100
AcDbDimStyleTableRecord
  2
ISO-25
 70
     0
  3

  4

  5

  6

  7

 40
1.0
 41
2.5
 42
0.625
 43
3.75
 44
1.25
 45
0.0
 46
0.0
 47
0.0
 48
0.0
140
2.5
141
2.5
142
0.0
143
0.03937007874016
144
1.0
145
0.0
146
1.0
147
0.625
 71
     0
 72
     0
 73
     0
 74
     0
 75
     0
 76
     0
 77
     1
 78
     8
170
     0
171
     3
172
     1
173
     0
174
     0
175
     0
176
     0
177
     0
178
     0
270
     2
271
     2
272
     2
273
     2
274
     3
340
11
275
     0
280
     0
281
     0
282
     0
283
     0
284
     8
285
     0
286
     0
287
     3
288
     0
  0
ENDTAB
  0
TABLE
  2
BLOCK_RECORD
  5
1
330
0
100
AcDbSymbolTable
 70
     1
  0
BLOCK_RECORD
  5
1F
330
1
100
AcDbSymbolTableRecord
100
AcDbBlockTableRecord
  2
*MODEL_SPACE
  0
BLOCK_RECORD
  5
1B
330
1
100
AcDbSymbolTableRecord
100
AcDbBlockTableRecord
  2
*PAPER_SPACE
  0
ENDTAB
  0
ENDSEC
  0
SECTION
  2
BLOCKS
  0
BLOCK
  5
20
330
1F
100
AcDbEntity
  8
0
100
AcDbBlockBegin
  2
*MODEL_SPACE
 70
     0
 10
0.0
 20
0.0
 30
0.0
  3
*MODEL_SPACE
  1

  0
ENDBLK
  5
21
330
1F
100
AcDbEntity
  8
0
100
AcDbBlockEnd
  0
BLOCK
  5
1C
330
1B
100
AcDbEntity
 67
     1
  8
0
100
AcDbBlockBegin
  2
*PAPER_SPACE
  1

  0
ENDBLK
  5
1D
330
1B
100
AcDbEntity
 67
     1
  8
0
100
AcDbBlockEnd
  0
ENDSEC
  0
SECTION
  2
ENTITIES
  0
LINE
  5
100
100
AcDbEntity
  8
Layer_1
 62
7
100
AcDbLine
 10
4.102138
 20
0.543788
 30
0.0
 11
4.447788
 21
0.589621
 31
0.0
  0
LINE
  5
101
100
AcDbEntity
  8
Layer_1
 62
7
100
AcDbLine
 10
4.447788
 20
0.589621
 30
0.0
 11
4.742064
 21
0.556855
 31
0.0
  0
LINE
  5
102
100
AcDbEntity
  8
Layer_1
 62
7
100
AcDbLine
 10
4.742064
 20
0.556855
 30
0.0
 11
5.404289
 21
0.274689
 31
0.0
  0
LINE
  5
103
100
AcDbEntity
  8
Layer_1
 62
7
100
AcDbLine
 10
5.404289
 20
0.274689
 30
0.0
 11
5.409375
 21
-0.143056
 31
0.0
  0
LINE
  5
104
100
AcDbEntity
  8
Layer_1
 62
7
100
AcDbLine
 10
5.409375
 20
-0.143056
 30
0.0
 11
4.754217
 21
-0.441252
 31
0.0
  0
LINE
  5
105
100
AcDbEntity
  8
Layer_1
 62
7
100
AcDbLine
 10
4.754217
 20
-0.441252
 30
0.0
 11
4.460826
 21
-0.481187
 31
0.0
  0
LINE
  5
106
100
AcDbEntity
  8
Layer_1
 62
7
100
AcDbLine
 10
4.460826
 20
-0.481187
 30
0.0
 11
4.114163
 21
-0.443792
 31
0.0
  0
LINE
  5
107
100
AcDbEntity
  8
Layer_1
 62
7
100
AcDbLine
 10
4.114163
 20
-0.443792
 30
0.0
 11
3.968679
 21
-1.171700
 31
0.0
  0
LINE
  5
108
100
AcDbEntity
  8
Layer_1
 62
7
100
AcDbLine
 10
3.968679
 20
-1.171700
 30
0.0
 11
4.303083
 21
-1.270449
 31
0.0
  0
LINE
  5
109
100
AcDbEntity
  8
Layer_1
 62
7
100
AcDbLine
 10
4.303083
 20
-1.270449
 30
0.0
 11
4.558588
 21
-1.420055
 31
0.0
  0
LINE
  5
10a
100
AcDbEntity
  8
Layer_1
 62
7
100
AcDbLine
 10
4.558588
 20
-1.420055
 30
0.0
 11
5.048797
 21
-1.947190
 31
0.0
  0
LINE
  5
10b
100
AcDbEntity
  8
Layer_1
 62
7
100
AcDbLine
 10
5.048797
 20
-1.947190
 30
0.0
 11
4.883536
 21
-2.330871
 31
0.0
  0
LINE
  5
10c
100
AcDbEntity
  8
Layer_1
 62
7
100
AcDbLine
 10
4.883536
 20
-2.330871
 30
0.0
 11
4.163727
 21
-2.336798
 31
0.0
  0
LINE
  5
10d
100
AcDbEntity
  8
Layer_1
 62
7
100
AcDbLine
 10
4.163727
 20
-2.336798
 30
0.0
 11
3.879462
 21
-2.253937
 31
0.0
  0
LINE
  5
10e
100
AcDbEntity
  8
Layer_1
 62
7
100
AcDbLine
 10
3.879462
 20
-2.253937
 30
0.0
 11
3.577979
 21
-2.078762
 31
0.0
  0
LINE
  5
10f
100
AcDbEntity
  8
Layer_1
 62
7
100
AcDbLine
 10
3.577979
 20
-2.078762
 30
0.0
 11
3.149000
 21
-2.684580
 31
0.0
  0
LINE
  5
110
100
AcDbEntity
  8
Layer_1
 62
7
100
AcDbLine
 10
3.149000
 20
-2.684580
 30
0.0
 11
3.414336
 21
-2.910809
 31
0.0
  0
LINE
  5
111
100
AcDbEntity
  8
Layer_1
 62
7
100
AcDbLine
 10
3.414336
 20
-2.910809
 30
0.0
 11
3.586891
 21
-3.151404
 31
0.0
  0
LINE
  5
112
100
AcDbEntity
  8
Layer_1
 62
7
100
AcDbLine
 10
3.586891
 20
-3.151404
 30
0.0
 11
3.820323
 21
-3.832350
 31
0.0
  0
LINE
  5
113
100
AcDbEntity
  8
Layer_1
 62
7
100
AcDbLine
 10
3.820323
 20
-3.832350
 30
0.0
 11
3.513285
 21
-4.115644
 31
0.0
  0
LINE
  5
114
100
AcDbEntity
  8
Layer_1
 62
7
100
AcDbLine
 10
3.513285
 20
-4.115644
 30
0.0
 11
2.853292
 21
-3.828314
 31
0.0
  0
LINE
  5
115
100
AcDbEntity
  8
Layer_1
 62
7
100
AcDbLine
 10
2.853292
 20
-3.828314
 30
0.0
 11
2.627304
 21
-3.636995
 31
0.0
  0
LINE
  5
116
100
AcDbEntity
  8
Layer_1
 62
7
100
AcDbLine
 10
2.627304
 20
-3.636995
 30
0.0
 11
2.423128
 21
-3.354350
 31
0.0
  0
LINE
  5
117
100
AcDbEntity
  8
Layer_1
 62
7
100
AcDbLine
 10
2.423128
 20
-3.354350
 30
0.0
 11
1.784829
 21
-3.733318
 31
0.0
  0
LINE
  5
118
100
AcDbEntity
  8
Layer_1
 62
7
100
AcDbLine
 10
1.784829
 20
-3.733318
 30
0.0
 11
1.935220
 21
-4.047883
 31
0.0
  0
LINE
  5
119
100
AcDbEntity
  8
Layer_1
 62
7
100
AcDbLine
 10
1.935220
 20
-4.047883
 30
0.0
 11
1.994988
 21
-4.337866
 31
0.0
  0
LINE
  5
11a
100
AcDbEntity
  8
Layer_1
 62
7
100
AcDbLine
 10
1.994988
 20
-4.337866
 30
0.0
 11
1.931278
 21
-5.054880
 31
0.0
  0
LINE
  5
11b
100
AcDbEntity
  8
Layer_1
 62
7
100
AcDbLine
 10
1.931278
 20
-5.054880
 30
0.0
 11
1.535556
 21
-5.188823
 31
0.0
  0
LINE
  5
11c
100
AcDbEntity
  8
Layer_1
 62
7
100
AcDbLine
 10
1.535556
 20
-5.188823
 30
0.0
 11
1.049495
 21
-4.657878
 31
0.0
  0
LINE
  5
11d
100
AcDbEntity
  8
Layer_1
 62
7
100
AcDbLine
 10
1.049495
 20
-4.657878
 30
0.0
 11
0.920858
 21
-4.391178
 31
0.0
  0
LINE
  5
11e
100
AcDbEntity
  8
Layer_1
 62
7
100
AcDbLine
 10
0.920858
 20
-4.391178
 30
0.0
 11
0.849298
 21
-4.049915
 31
0.0
  0
LINE
  5
11f
100
AcDbEntity
  8
Layer_1
 62
7
100
AcDbLine
 10
0.849298
 20
-4.049915
 30
0.0
 11
0.112043
 21
-4.136501
 31
0.0
  0
LINE
  5
120
100
AcDbEntity
  8
Layer_1
 62
7
100
AcDbLine
 10
0.112043
 20
-4.136501
 30
0.0
 11
0.121486
 21
-4.485045
 31
0.0
  0
LINE
  5
121
100
AcDbEntity
  8
Layer_1
 62
7
100
AcDbLine
 10
0.121486
 20
-4.485045
 30
0.0
 11
0.058134
 21
-4.774295
 31
0.0
  0
LINE
  5
122
100
AcDbEntity
  8
Layer_1
 62
7
100
AcDbLine
 10
0.058134
 20
-4.774295
 30
0.0
 11
-0.291704
 21
-5.403396
 31
0.0
  0
LINE
  5
123
100
AcDbEntity
  8
Layer_1
 62
7
100
AcDbLine
 10
-0.291704
 20
-5.403396
 30
0.0
 11
-0.707684
 21
-5.364788
 31
0.0
  0
LINE
  5
124
100
AcDbEntity
  8
Layer_1
 62
7
100
AcDbLine
 10
-0.707684
 20
-5.364788
 30
0.0
 11
-0.935769
 21
-4.682036
 31
0.0
  0
LINE
  5
125
100
AcDbEntity
  8
Layer_1
 62
7
100
AcDbLine
 10
-0.935769
 20
-4.682036
 30
0.0
 11
-0.944808
 21
-4.386098
 31
0.0
  0
LINE
  5
126
100
AcDbEntity
  8
Layer_1
 62
7
100
AcDbLine
 10
-0.944808
 20
-4.386098
 30
0.0
 11
-0.871387
 21
-4.045230
 31
0.0
  0
LINE
  5
127
100
AcDbEntity
  8
Layer_1
 62
7
100
AcDbLine
 10
-0.871387
 20
-4.045230
 30
0.0
 11
-1.580112
 21
-3.824447
 31
0.0
  0
LINE
  5
128
100
AcDbEntity
  8
Layer_1
 62
7
100
AcDbLine
 10
-1.580112
 20
-3.824447
 30
0.0
 11
-1.713254
 21
-4.146717
 31
0.0
  0
LINE
  5
129
100
AcDbEntity
  8
Layer_1
 62
7
100
AcDbLine
 10
-1.713254
 20
-4.146717
 30
0.0
 11
-1.888773
 21
-4.385167
 31
0.0
  0
LINE
  5
12a
100
AcDbEntity
  8
Layer_1
 62
7
100
AcDbLine
 10
-1.888773
 20
-4.385167
 30
0.0
 11
-2.464246
 21
-4.817587
 31
0.0
  0
LINE
  5
12b
100
AcDbEntity
  8
Layer_1
 62
7
100
AcDbLine
 10
-2.464246
 20
-4.817587
 30
0.0
 11
-2.828560
 21
-4.613146
 31
0.0
  0
LINE
  5
12c
100
AcDbEntity
  8
Layer_1
 62
7
100
AcDbLine
 10
-2.828560
 20
-4.613146
 30
0.0
 11
-2.759230
 21
-3.896640
 31
0.0
  0
LINE
  5
12d
100
AcDbEntity
  8
Layer_1
 62
7
100
AcDbLine
 10
-2.759230
 20
-3.896640
 30
0.0
 11
-2.647112
 21
-3.622602
 31
0.0
  0
LINE
  5
12e
100
AcDbEntity
  8
Layer_1
 62
7
100
AcDbLine
 10
-2.647112
 20
-3.622602
 30
0.0
 11
-2.441398
 21
-3.341085
 31
0.0
  0
LINE
  5
12f
100
AcDbEntity
  8
Layer_1
 62
7
100
AcDbLine
 10
-2.441398
 20
-3.341085
 30
0.0
 11
-2.999053
 21
-2.851119
 31
0.0
  0
LINE
  5
130
100
AcDbEntity
  8
Layer_1
 62
7
100
AcDbLine
 10
-2.999053
 20
-2.851119
 30
0.0
 11
-3.251759
 21
-3.091375
 31
0.0
  0
LINE
  5
131
100
AcDbEntity
  8
Layer_1
 62
7
100
AcDbLine
 10
-3.251759
 20
-3.091375
 30
0.0
 11
-3.509094
 21
-3.237820
 31
0.0
  0
LINE
  5
132
100
AcDbEntity
  8
Layer_1
 62
7
100
AcDbLine
 10
-3.509094
 20
-3.237820
 30
0.0
 11
-4.210696
 21
-3.398800
 31
0.0
  0
LINE
  5
133
100
AcDbEntity
  8
Layer_1
 62
7
100
AcDbLine
 10
-4.210696
 20
-3.398800
 30
0.0
 11
-4.460351
 21
-3.063830
 31
0.0
  0
LINE
  5
134
100
AcDbEntity
  8
Layer_1
 62
7
100
AcDbLine
 10
-4.460351
 20
-3.063830
 30
0.0
 11
-4.105595
 21
-2.437495
 31
0.0
  0
LINE
  5
135
100
AcDbEntity
  8
Layer_1
 62
7
100
AcDbLine
 10
-4.105595
 20
-2.437495
 30
0.0
 11
-3.891706
 21
-2.232742
 31
0.0
  0
LINE
  5
136
100
AcDbEntity
  8
Layer_1
 62
7
100
AcDbLine
 10
-3.891706
 20
-2.232742
 30
0.0
 11
-3.589270
 21
-2.059232
 31
0.0
  0
LINE
  5
137
100
AcDbEntity
  8
Layer_1
 62
7
100
AcDbLine
 10
-3.589270
 20
-2.059232
 30
0.0
 11
-3.899432
 21
-1.384806
 31
0.0
  0
LINE
  5
138
100
AcDbEntity
  8
Layer_1
 62
7
100
AcDbLine
 10
-3.899432
 20
-1.384806
 30
0.0
 11
-4.228001
 21
-1.501476
 31
0.0
  0
LINE
  5
139
100
AcDbEntity
  8
Layer_1
 62
7
100
AcDbLine
 10
-4.228001
 20
-1.501476
 30
0.0
 11
-4.522661
 21
-1.530630
 31
0.0
  0
LINE
  5
13a
100
AcDbEntity
  8
Layer_1
 62
7
100
AcDbLine
 10
-4.522661
 20
-1.530630
 30
0.0
 11
-5.229081
 21
-1.392313
 31
0.0
  0
LINE
  5
13b
100
AcDbEntity
  8
Layer_1
 62
7
100
AcDbLine
 10
-5.229081
 20
-1.392313
 30
0.0
 11
-5.320909
 21
-0.984756
 31
0.0
  0
LINE
  5
13c
100
AcDbEntity
  8
Layer_1
 62
7
100
AcDbLine
 10
-5.320909
 20
-0.984756
 30
0.0
 11
-4.742066
 21
-0.556850
 31
0.0
  0
LINE
  5
13d
100
AcDbEntity
  8
Layer_1
 62
7
100
AcDbLine
 10
-4.742066
 20
-0.556850
 30
0.0
 11
-4.463386
 21
-0.456803
 31
0.0
  0
LINE
  5
13e
100
AcDbEntity
  8
Layer_1
 62
7
100
AcDbLine
 10
-4.463386
 20
-0.456803
 30
0.0
 11
-4.116527
 21
-0.421299
 31
0.0
  0
LINE
  5
13f
100
AcDbEntity
  8
Layer_1
 62
7
100
AcDbLine
 10
-4.116527
 20
-0.421299
 30
0.0
 11
-4.125564
 21
0.320945
 31
0.0
  0
LINE
  5
140
100
AcDbEntity
  8
Layer_1
 62
7
100
AcDbLine
 10
-4.125564
 20
0.320945
 30
0.0
 11
-4.473185
 21
0.348039
 31
0.0
  0
LINE
  5
141
100
AcDbEntity
  8
Layer_1
 62
7
100
AcDbLine
 10
-4.473185
 20
0.348039
 30
0.0
 11
-4.754218
 21
0.441257
 31
0.0
  0
LINE
  5
142
100
AcDbEntity
  8
Layer_1
 62
7
100
AcDbLine
 10
-4.754218
 20
0.441257
 30
0.0
 11
-5.343309
 21
0.854938
 31
0.0
  0
LINE
  5
143
100
AcDbEntity
  8
Layer_1
 62
7
100
AcDbLine
 10
-5.343309
 20
0.854938
 30
0.0
 11
-5.261432
 21
1.264612
 31
0.0
  0
LINE
  5
144
100
AcDbEntity
  8
Layer_1
 62
7
100
AcDbLine
 10
-5.261432
 20
1.264612
 30
0.0
 11
-4.558589
 21
1.420088
 31
0.0
  0
LINE
  5
145
100
AcDbEntity
  8
Layer_1
 62
7
100
AcDbLine
 10
-4.558589
 20
1.420088
 30
0.0
 11
-4.263307
 21
1.398075
 31
0.0
  0
LINE
  5
146
100
AcDbEntity
  8
Layer_1
 62
7
100
AcDbLine
 10
-4.263307
 20
1.398075
 30
0.0
 11
-3.931994
 21
1.289419
 31
0.0
  0
LINE
  5
147
100
AcDbEntity
  8
Layer_1
 62
7
100
AcDbLine
 10
-3.931994
 20
1.289419
 30
0.0
 11
-3.638346
 21
1.971183
 31
0.0
  0
LINE
  5
148
100
AcDbEntity
  8
Layer_1
 62
7
100
AcDbLine
 10
-3.638346
 20
1.971183
 30
0.0
 11
-3.944917
 21
2.137299
 31
0.0
  0
LINE
  5
149
100
AcDbEntity
  8
Layer_1
 62
7
100
AcDbLine
 10
-3.944917
 20
2.137299
 30
0.0
 11
-4.163728
 21
2.336774
 31
0.0
  0
LINE
  5
14a
100
AcDbEntity
  8
Layer_1
 62
7
100
AcDbLine
 10
-4.163728
 20
2.336774
 30
0.0
 11
-4.533631
 21
2.954305
 31
0.0
  0
LINE
  5
14b
100
AcDbEntity
  8
Layer_1
 62
7
100
AcDbLine
 10
-4.533631
 20
2.954305
 30
0.0
 11
-4.292205
 21
3.295229
 31
0.0
  0
LINE
  5
14c
100
AcDbEntity
  8
Layer_1
 62
7
100
AcDbLine
 10
-4.292205
 20
3.295229
 30
0.0
 11
-3.586892
 21
3.151409
 31
0.0
  0
LINE
  5
14d
100
AcDbEntity
  8
Layer_1
 62
7
100
AcDbLine
 10
-3.586892
 20
3.151409
 30
0.0
 11
-3.326067
 21
3.011257
 31
0.0
  0
LINE
  5
14e
100
AcDbEntity
  8
Layer_1
 62
7
100
AcDbLine
 10
-3.326067
 20
3.011257
 30
0.0
 11
-3.067587
 21
2.777238
 31
0.0
  0
LINE
  5
14f
100
AcDbEntity
  8
Layer_1
 62
7
100
AcDbLine
 10
-3.067587
 20
2.777238
 30
0.0
 11
-2.522027
 21
3.280638
 31
0.0
  0
LINE
  5
150
100
AcDbEntity
  8
Layer_1
 62
7
100
AcDbLine
 10
-2.522027
 20
3.280638
 30
0.0
 11
-2.734535
 21
3.557047
 31
0.0
  0
LINE
  5
151
100
AcDbEntity
  8
Layer_1
 62
7
100
AcDbLine
 10
-2.734535
 20
3.557047
 30
0.0
 11
-2.853292
 21
3.828290
 31
0.0
  0
LINE
  5
152
100
AcDbEntity
  8
Layer_1
 62
7
100
AcDbLine
 10
-2.853292
 20
3.828290
 30
0.0
 11
-2.940048
 21
4.542877
 31
0.0
  0
LINE
  5
153
100
AcDbEntity
  8
Layer_1
 62
7
100
AcDbLine
 10
-2.940048
 20
4.542877
 30
0.0
 11
-2.580821
 21
4.756152
 31
0.0
  0
LINE
  5
154
100
AcDbEntity
  8
Layer_1
 62
7
100
AcDbLine
 10
-2.580821
 20
4.756152
 30
0.0
 11
-1.994989
 21
4.337871
 31
0.0
  0
LINE
  5
155
100
AcDbEntity
  8
Layer_1
 62
7
100
AcDbLine
 10
-1.994989
 20
4.337871
 30
0.0
 11
-1.813716
 21
4.103739
 31
0.0
  0
LINE
  5
156
100
AcDbEntity
  8
Layer_1
 62
7
100
AcDbLine
 10
-1.813716
 20
4.103739
 30
0.0
 11
-1.672767
 21
3.784828
 31
0.0
  0
LINE
  5
157
100
AcDbEntity
  8
Layer_1
 62
7
100
AcDbLine
 10
-1.672767
 20
3.784828
 30
0.0
 11
-0.969628
 21
4.022798
 31
0.0
  0
LINE
  5
158
100
AcDbEntity
  8
Layer_1
 62
7
100
AcDbLine
 10
-0.969628
 20
4.022798
 30
0.0
 11
-1.051327
 21
4.361775
 31
0.0
  0
LINE
  5
159
100
AcDbEntity
  8
Layer_1
 62
7
100
AcDbLine
 10
-1.051327
 20
4.361775
 30
0.0
 11
-1.049495
 21
4.657854
 31
0.0
  0
LINE
  5
15a
100
AcDbEntity
  8
Layer_1
 62
7
100
AcDbLine
 10
-1.049495
 20
4.657854
 30
0.0
 11
-0.838102
 21
5.345940
 31
0.0
  0
LINE
  5
15b
100
AcDbEntity
  8
Layer_1
 62
7
100
AcDbLine
 10
-0.838102
 20
5.345940
 30
0.0
 11
-0.423186
 21
5.394680
 31
0.0
  0
LINE
  5
15c
100
AcDbEntity
  8
Layer_1
 62
7
100
AcDbLine
 10
-0.423186
 20
5.394680
 30
0.0
 11
-0.058134
 21
4.774271
 31
0.0
  0
LINE
  5
15d
100
AcDbEntity
  8
Layer_1
 62
7
100
AcDbLine
 10
-0.058134
 20
4.774271
 30
0.0
 11
0.012243
 21
4.486658
 31
0.0
  0
LINE
  5
15e
100
AcDbEntity
  8
Layer_1
 62
7
100
AcDbLine
 10
0.012243
 20
4.486658
 30
0.0
 11
0.011290
 21
4.138001
 31
0.0
  0
LINE
  5
15f
100
AcDbEntity
  8
Layer_1
 62
7
100
AcDbLine
 10
0.011290
 20
4.138001
 30
0.0
 11
0.750434
 21
4.069393
 31
0.0
  0
LINE
  5
160
100
AcDbEntity
  8
Layer_1
 62
7
100
AcDbLine
 10
0.750434
 20
4.069393
 30
0.0
 11
0.813664
 21
4.412293
 31
0.0
  0
LINE
  5
161
100
AcDbEntity
  8
Layer_1
 62
7
100
AcDbLine
 10
0.813664
 20
4.412293
 30
0.0
 11
0.935768
 21
4.682041
 31
0.0
  0
LINE
  5
162
100
AcDbEntity
  8
Layer_1
 62
7
100
AcDbLine
 10
0.935768
 20
4.682041
 30
0.0
 11
1.408757
 21
5.224641
 31
0.0
  0
LINE
  5
163
100
AcDbEntity
  8
Layer_1
 62
7
100
AcDbLine
 10
1.408757
 20
5.224641
 30
0.0
 11
1.807623
 21
5.100407
 31
0.0
  0
LINE
  5
164
100
AcDbEntity
  8
Layer_1
 62
7
100
AcDbLine
 10
1.807623
 20
5.100407
 30
0.0
 11
1.888773
 21
4.385143
 31
0.0
  0
LINE
  5
165
100
AcDbEntity
  8
Layer_1
 62
7
100
AcDbLine
 10
1.888773
 20
4.385143
 30
0.0
 11
1.836084
 21
4.093777
 31
0.0
  0
LINE
  5
166
100
AcDbEntity
  8
Layer_1
 62
7
100
AcDbLine
 10
1.836084
 20
4.093777
 30
0.0
 11
1.693397
 21
3.775656
 31
0.0
  0
LINE
  5
167
100
AcDbEntity
  8
Layer_1
 62
7
100
AcDbLine
 10
1.693397
 20
3.775656
 30
0.0
 11
2.340734
 21
3.412351
 31
0.0
  0
LINE
  5
168
100
AcDbEntity
  8
Layer_1
 62
7
100
AcDbLine
 10
2.340734
 20
3.412351
 30
0.0
 11
2.537967
 21
3.699879
 31
0.0
  0
LINE
  5
169
100
AcDbEntity
  8
Layer_1
 62
7
100
AcDbLine
 10
2.537967
 20
3.699879
 30
0.0
 11
2.759229
 21
3.896645
 31
0.0
  0
LINE
  5
16a
100
AcDbEntity
  8
Layer_1
 62
7
100
AcDbLine
 10
2.759229
 20
3.896645
 30
0.0
 11
3.412031
 21
4.199949
 31
0.0
  0
LINE
  5
16b
100
AcDbEntity
  8
Layer_1
 62
7
100
AcDbLine
 10
3.412031
 20
4.199949
 30
0.0
 11
3.725875
 21
3.924218
 31
0.0
  0
LINE
  5
16c
100
AcDbEntity
  8
Layer_1
 62
7
100
AcDbLine
 10
3.725875
 20
3.924218
 30
0.0
 11
3.509094
 21
3.237797
 31
0.0
  0
LINE
  5
16d
100
AcDbEntity
  8
Layer_1
 62
7
100
AcDbLine
 10
3.509094
 20
3.237797
 30
0.0
 11
3.342449
 21
2.993054
 31
0.0
  0
LINE
  5
16e
100
AcDbEntity
  8
Layer_1
 62
7
100
AcDbLine
 10
3.342449
 20
2.993054
 30
0.0
 11
3.082699
 21
2.760446
 31
0.0
  0
LINE
  5
16f
100
AcDbEntity
  8
Layer_1
 62
7
100
AcDbLine
 10
3.082699
 20
2.760446
 30
0.0
 11
3.526303
 21
2.165268
 31
0.0
  0
LINE
  5
170
100
AcDbEntity
  8
Layer_1
 62
7
100
AcDbLine
 10
3.526303
 20
2.165268
 30
0.0
 11
3.823431
 21
2.347724
 31
0.0
  0
LINE
  5
171
100
AcDbEntity
  8
Layer_1
 62
7
100
AcDbLine
 10
3.823431
 20
2.347724
 30
0.0
 11
4.105595
 21
2.437471
 31
0.0
  0
LINE
  5
172
100
AcDbEntity
  8
Layer_1
 62
7
100
AcDbLine
 10
4.105595
 20
2.437471
 30
0.0
 11
4.825335
 21
2.449042
 31
0.0
  0
LINE
  5
173
100
AcDbEntity
  8
Layer_1
 62
7
100
AcDbLine
 10
4.825335
 20
2.449042
 30
0.0
 11
4.999889
 21
2.069510
 31
0.0
  0
LINE
  5
174
100
AcDbEntity
  8
Layer_1
 62
7
100
AcDbLine
 10
4.999889
 20
2.069510
 30
0.0
 11
4.522661
 21
1.530606
 31
0.0
  0
LINE
  5
175
100
AcDbEntity
  8
Layer_1
 62
7
100
AcDbLine
 10
4.522661
 20
1.530606
 30
0.0
 11
4.270875
 21
1.374791
 31
0.0
  0
LINE
  5
176
100
AcDbEntity
  8
Layer_1
 62
7
100
AcDbLine
 10
4.270875
 20
1.374791
 30
0.0
 11
3.938974
 21
1.267942
 31
0.0
  0
LINE
  5
177
100
AcDbEntity
  8
Layer_1
 62
7
100
AcDbLine
 10
3.938974
 20
1.267942
 30
0.0
 11
4.102138
 21
0.543788
 31
0.0
  0
ENDSEC
  0
SECTION
  2
OBJECTS
  0
DICTIONARY
  5
C
330
0
100
AcDbDictionary
  3
ACAD_GROUP
350
D
  3
ACAD_MLINESTYLE
350
17
  0
DICTIONARY
  5
D
330
C
100
AcDbDictionary
  0
DICTIONARY
  5
1A
330
C
100
AcDbDictionary
  0
DICTIONARY
  5
17
330
C
100
AcDbDictionary
  3
STANDARD
350
18
  0
DICTIONARY
  5
19
330
C
100
AcDbDictionary
  0
ENDSEC
  0
EOF
