<?xml version="1.0" encoding="UTF-8" standalone="no"?>
<!-- Created with Inkscape (http://www.inkscape.org/) -->

<svg
   xmlns:dc="http://purl.org/dc/elements/1.1/"
   xmlns:cc="http://creativecommons.org/ns#"
   xmlns:rdf="http://www.w3.org/1999/02/22-rdf-syntax-ns#"
   xmlns:svg="http://www.w3.org/2000/svg"
   xmlns="http://www.w3.org/2000/svg"
   xmlns:sodipodi="http://sodipodi.sourceforge.net/DTD/sodipodi-0.dtd"
   xmlns:inkscape="http://www.inkscape.org/namespaces/inkscape"
   width="297mm"
   height="210mm"
   viewBox="0 0 1052.3622 744.09448"
   id="svg2"
   version="1.1"
   inkscape:version="0.91 r13725"
   sodipodi:docname="gear-pa20-cp2-t38.svg">
  <sodipodi:namedview
     id="base"
     pagecolor="#ffffff"
     bordercolor="#666666"
     borderopacity="1.0"
     inkscape:pageopacity="0.0"
     inkscape:pageshadow="2"
     inkscape:zoom="5.6568542"
     inkscape:cx="4.8646753"
     inkscape:cy="-10.940165"
     inkscape:document-units="mm"
     inkscape:current-layer="layer1"
     showgrid="true"
     inkscape:window-width="1366"
     inkscape:window-height="705"
     inkscape:window-x="-8"
     inkscape:window-y="-8"
     inkscape:window-maximized="1"
     showguides="true"
     inkscape:guide-bbox="true"
     inkscape:snap-bbox="false"
     inkscape:bbox-nodes="true"
     inkscape:snap-bbox-edge-midpoints="true"
     inkscape:snap-bbox-midpoints="false"
     inkscape:snap-object-midpoints="true"
     inkscape:snap-global="true"
     inkscape:snap-grids="true"
     inkscape:object-nodes="true"
     inkscape:snap-smooth-nodes="true"
     inkscape:snap-center="true"
     inkscape:snap-intersection-paths="true"
     inkscape:snap-nodes="true">
    <inkscape:grid
       empopacity="0.25098039"
       empcolor="#ed0000"
       opacity="0.96078431"
       color="#e80007"
       type="xygrid"
       id="grid3333"
       units="mm"
       spacingx="17.716536"
       spacingy="17.716535" />
    <inkscape:grid
       empspacing="10"
       spacingy="0.35433071"
       spacingx="0.35433071"
       units="mm"
       id="grid4730"
       type="xygrid" />
    <sodipodi:guide
       position="526.1811,0"
       orientation="744.0945,0"
       id="guide3393" />
    <sodipodi:guide
       position="0,248.0315"
       orientation="0,1052.3622"
       id="guide3395" />
    <sodipodi:guide
       position="0,496.063"
       orientation="0,1052.3622"
       id="guide3397" />
    <sodipodi:guide
       id="guide4140"
       orientation="0,1"
       position="3.5433071,0" />
    <sodipodi:guide
       id="guide4142"
       orientation="1,0"
       position="0,7.0866142" />
  </sodipodi:namedview>
  <defs
     id="defs4" />
  <metadata
     id="metadata7">
    <rdf:RDF>
      <cc:Work
         rdf:about="">
        <dc:format>image/svg+xml</dc:format>
        <dc:type
           rdf:resource="http://purl.org/dc/dcmitype/StillImage" />
        <dc:title />
      </cc:Work>
    </rdf:RDF>
  </metadata>
  <g
     style="display:inline"
     inkscape:label="Layer 1"
     inkscape:groupmode="layer"
     id="layer1"
     transform="translate(0,-308.26772)">
    <path
       id="path6288-3-0"
       d="m 39.343482,1042.5405 2.33158,0.06 2.41314,0.4863 0.310818,1.6787 -2.07905,1.3181 -2.155673,0.8904 0.220784,2.1915 2.289966,0.4425 2.300177,0.8769 0.03028,1.707 -2.267647,0.9579 -2.272826,0.5235 -0.142936,2.1979 2.185888,0.8134 2.124479,1.2435 -0.251089,1.6887 -2.394383,0.5716 -2.327998,0.1422 -0.502748,2.1444 2.022185,1.1622 1.890828,1.5762 -0.525614,1.6243 -2.455806,0.1698 -2.319652,-0.2429 -0.848842,2.0324 1.803317,1.4791 1.605608,1.866 -0.785807,1.5156 -2.450238,-0.2368 -2.248052,-0.6214 -1.171783,1.865 1.535262,1.7558 1.276582,2.1048 -1.02455,1.3656 -2.377841,-0.6369 -2.115114,-0.9829 -1.462768,1.6466 1.225338,1.9846 0.912727,2.2862 -1.235354,1.1783 -2.240573,-1.0196 -1.924498,-1.3176 -1.713836,1.3834 0.881981,2.1592 0.523985,2.4052 -1.412457,0.959 -2.042197,-1.3745 -1.681372,-1.6164 -1.918175,1.0825 0.514571,2.2748 0.120947,2.4587 -1.551041,0.7134 -1.788123,-1.6919 -1.392382,-1.8711 -2.070182,0.752 0.133125,2.3285 -0.285394,2.4451 -1.647299,0.4484 -1.4852528,-1.9631 -1.0654268,-2.0748 -2.1657107,0.401 -0.2519625,2.3187 -0.6839388,2.3647 -1.6986323,0.1711 -1.1418866,-2.1808 -0.7093913,-2.2218 -2.20218268,0.039 -0.63016272,2.2455 -1.063843,2.22 -1.7036321,-0.1108 -0.7673609,-2.339 -0.3340179,-2.3083 -2.1785757,-0.324 -0.9911839,2.1113 -1.4147084,2.0145 -1.6621649,-0.3897 -0.371909,-2.4334 0.05047,-2.3318 -2.095538,-0.6781 -1.325169,1.9193 -1.726993,1.7542 -1.575356,-0.6579 0.03369,-2.4615 0.433585,-2.2916 -1.955354,-1.0138 -1.622994,1.675 -1.992183,1.446 -1.445566,-0.9083 0.43837,-2.4223 0.804865,-2.189 -1.761818,-1.3218 -1.876563,1.385 -2.203015,1.0984 -1.276362,-1.1338 0.831096,-2.3171 1.154196,-2.0268 -1.520234,-1.5937 -2.078926,1.0573 -2.353765,0.7208 -1.072327,-1.3285 1.201139,-2.1487 1.472046,-1.8091 -1.23718,-1.8222 -2.224603,0.7007 -2.440306,0.3235 -0.839042,-1.4868 1.538425,-1.9217 1.749741,-1.5422 -0.920374,-2.001 -2.309588,0.325 -2.460276,-0.082 -0.582882,-1.6047 1.833742,-1.6423 1.979705,-1.2331 -0.57846,-2.1252 -2.331579,-0.06 -2.41314,-0.4863 -0.310817,-1.6788 2.079049,-1.318 2.155671,-0.8905 -0.220784,-2.1914 -2.289966,-0.4426 -2.300177,-0.8769 -0.03027,-1.7069 2.267647,-0.9579 2.272827,-0.5235 0.142935,-2.1979 -2.185888,-0.8135 -2.124479,-1.2435 0.251089,-1.6886 2.394384,-0.5716 2.327998,-0.1423 0.502747,-2.1444 -2.022184,-1.1621 -1.890829,-1.5763 0.525614,-1.6243 2.455806,-0.1697 2.319653,0.2429 0.848841,-2.0324 -1.803316,-1.4792 -1.605609,-1.8659 0.785807,-1.5157 2.450239,0.2369 2.248051,0.6213 1.171782,-1.8649 -1.535261,-1.7558 -1.276582,-2.1048 1.02455,-1.3656 2.377841,0.6369 2.115114,0.9829 1.462769,-1.6467 -1.225339,-1.9845 -0.912726,-2.2862 1.235353,-1.1784 2.240573,1.0196 1.924497,1.3177 1.713837,-1.3835 -0.881981,-2.1591 -0.523984,-2.4053 1.412457,-0.9589 2.042196,1.3744 1.681373,1.6165 1.918174,-1.0825 -0.51457,-2.2749 -0.120947,-2.4587 1.551031,-0.7134 1.788124,1.6919 1.392381,1.8711 2.070183,-0.752 -0.133129,-2.3285 0.285394,-2.4451 1.647299,-0.4484 1.4852526,1.9632 1.0654267,2.0747 2.1657107,-0.401 0.2519624,-2.3187 0.6839388,-2.3647 1.6986319,-0.1711 1.1418866,2.1808 0.7093913,2.2218 2.20218271,-0.039 0.63016289,-2.2455 1.0638429,-2.22 1.703632,0.1108 0.7673609,2.339 0.3340181,2.3083 2.1785766,0.324 0.9911843,-2.1113 1.4147085,-2.0145 1.6621641,0.3897 0.37191,2.4334 -0.05047,2.3318 2.095538,0.6781 1.32517,-1.9193 1.726992,-1.7542 1.575356,0.6579 -0.03369,2.4615 -0.433585,2.2916 1.955354,1.0138 1.622994,-1.675 1.992182,-1.446 1.445568,0.9082 -0.438371,2.4224 -0.804864,2.189 1.761817,1.3218 1.876564,-1.385 2.203013,-1.0984 1.276364,1.1338 -0.831097,2.3171 -1.154197,2.0267 1.520235,1.5938 2.078927,-1.0573 2.353765,-0.7208 1.072325,1.3284 -1.201138,2.1488 -1.472046,1.8091 1.23718,1.8222 2.224603,-0.7007 2.440307,-0.3235 0.839041,1.4868 -1.538425,1.9217 -1.749741,1.5422 0.920373,2.001 2.30959,-0.325 2.460276,0.082 0.582881,1.6047 -1.833742,1.6423 -1.979705,1.2331 z"
       style="fill:#0088aa;stroke:none;stroke-width:1"
       inkscape:connector-curvature="0" />
  </g>
</svg>
