solid OpenSCAD_Model
  facet normal -0.98599 -0.166803 0
    outer loop
      vertex -2.606 -0.256 0
      vertex -2.561 -0.522 0
      vertex -2.606 -0.256 3
    endloop
  endfacet
  facet normal -0.98599 -0.166803 0
    outer loop
      vertex -2.606 -0.256 3
      vertex -2.561 -0.522 0
      vertex -2.561 -0.522 3
    endloop
  endfacet
  facet normal 0 0 -1
    outer loop
      vertex -2.606 -0.256 0
      vertex -2.147 0.064 0
      vertex -2.561 -0.522 0
    endloop
  endfacet
  facet normal 0 0 -1
    outer loop
      vertex -2.561 -0.522 0
      vertex -2.147 0.064 0
      vertex -2.017 0.094 0
    endloop
  endfacet
  facet normal 0 0 -1
    outer loop
      vertex -2.561 -0.522 0
      vertex -2.017 0.094 0
      vertex -1.669 0.087 0
    endloop
  endfacet
  facet normal 0 0 -1
    outer loop
      vertex -1.574 0.61 0
      vertex -1.902 0.725 0
      vertex -2.014 0.799 0
    endloop
  endfacet
  facet normal 0 0 -1
    outer loop
      vertex -1.574 0.61 0
      vertex -2.014 0.799 0
      vertex -2.331 1.259 0
    endloop
  endfacet
  facet normal 0 0 -1
    outer loop
      vertex -1.574 0.61 0
      vertex -2.331 1.259 0
      vertex -2.195 1.493 0
    endloop
  endfacet
  facet normal 0 0 -1
    outer loop
      vertex -1.574 0.61 0
      vertex -2.195 1.493 0
      vertex -1.637 1.443 0
    endloop
  endfacet
  facet normal 0 0 -1
    outer loop
      vertex -1.574 0.61 0
      vertex -1.637 1.443 0
      vertex -1.519 1.382 0
    endloop
  endfacet
  facet normal 0 0 -1
    outer loop
      vertex -1.574 0.61 0
      vertex -1.519 1.382 0
      vertex -1.257 1.153 0
    endloop
  endfacet
  facet normal 0 0 -1
    outer loop
      vertex -1.574 0.61 0
      vertex -1.257 1.153 0
      vertex -1.669 0.087 0
    endloop
  endfacet
  facet normal 0 0 -1
    outer loop
      vertex -1.669 0.087 0
      vertex -1.257 1.153 0
      vertex -0.848 1.493 0
    endloop
  endfacet
  facet normal 0 0 -1
    outer loop
      vertex -0.848 1.493 0
      vertex -1.025 1.792 0
      vertex -1.063 1.92 0
    endloop
  endfacet
  facet normal 0 0 -1
    outer loop
      vertex -0.848 1.493 0
      vertex -1.063 1.92 0
      vertex -1.01 2.477 0
    endloop
  endfacet
  facet normal 0 0 -1
    outer loop
      vertex -0.848 1.493 0
      vertex -1.01 2.477 0
      vertex -0.756 2.568 0
    endloop
  endfacet
  facet normal 0 0 -1
    outer loop
      vertex -0.848 1.493 0
      vertex -0.756 2.568 0
      vertex -0.361 2.172 0
    endloop
  endfacet
  facet normal 0 0 -1
    outer loop
      vertex -0.848 1.493 0
      vertex -0.361 2.172 0
      vertex -1.669 0.087 0
    endloop
  endfacet
  facet normal 0 0 -1
    outer loop
      vertex -1.669 0.087 0
      vertex -0.361 2.172 0
      vertex -0.309 2.049 0
    endloop
  endfacet
  facet normal 0 0 -1
    outer loop
      vertex -1.669 0.087 0
      vertex -0.309 2.049 0
      vertex -0.256 1.705 0
    endloop
  endfacet
  facet normal 0 0 -1
    outer loop
      vertex -0.705342 0.97082 0
      vertex -0.256 1.705 0
      vertex 0.275 1.702 0
    endloop
  endfacet
  facet normal 0 0 -1
    outer loop
      vertex 0.275 1.702 0
      vertex 0.332 2.045 0
      vertex 0.385 2.168 0
    endloop
  endfacet
  facet normal 0 0 -1
    outer loop
      vertex 0.275 1.702 0
      vertex 0.385 2.168 0
      vertex 0.784 2.56 0
    endloop
  endfacet
  facet normal 0 0 -1
    outer loop
      vertex 0.275 1.702 0
      vertex 0.784 2.56 0
      vertex 1.038 2.467 0
    endloop
  endfacet
  facet normal 0 0 -1
    outer loop
      vertex 0.275 1.702 0
      vertex 1.038 2.467 0
      vertex 1.085 1.909 0
    endloop
  endfacet
  facet normal 0 0 -1
    outer loop
      vertex -0.705342 0.97082 0
      vertex 0.275 1.702 0
      vertex -0.37082 1.14127 0
    endloop
  endfacet
  facet normal 0 0 -1
    outer loop
      vertex 0.705342 0.97082 0
      vertex 0.866 1.484 0
      vertex 1.271 1.14 0
    endloop
  endfacet
  facet normal 0 0 -1
    outer loop
      vertex 1.271 1.14 0
      vertex 1.535 1.367 0
      vertex 1.654 1.426 0
    endloop
  endfacet
  facet normal 0 0 -1
    outer loop
      vertex 1.271 1.14 0
      vertex 1.654 1.426 0
      vertex 2.212 1.471 0
    endloop
  endfacet
  facet normal 0 0 -1
    outer loop
      vertex -1.14127 0.37082 0
      vertex -2.561 -0.522 0
      vertex -1.669 0.087 0
    endloop
  endfacet
  facet normal 0 0 -1
    outer loop
      vertex 0.97082 0.705342 0
      vertex 2.346 1.236 0
      vertex 2.024 0.778 0
    endloop
  endfacet
  facet normal 0 0 -1
    outer loop
      vertex 1.14127 0.37082 0
      vertex 1.583 0.594 0
      vertex 1.673 0.07 0
    endloop
  endfacet
  facet normal 0 0 -1
    outer loop
      vertex 0.97082 0.705342 0
      vertex 1.583 0.594 0
      vertex 1.14127 0.37082 0
    endloop
  endfacet
  facet normal 0 0 -1
    outer loop
      vertex -0.97082 -0.705342 0
      vertex -1.563 -0.533 0
      vertex -1.14127 -0.37082 0
    endloop
  endfacet
  facet normal 0 0 -1
    outer loop
      vertex 1.14127 -0.37082 0
      vertex 2.606 -0.282 0
      vertex 2.558 -0.548 0
    endloop
  endfacet
  facet normal 0 0 -1
    outer loop
      vertex 1.885 -0.675 0
      vertex 2.558 -0.548 0
      vertex 2.017 -0.691 0
    endloop
  endfacet
  facet normal 0 0 -1
    outer loop
      vertex 1.56 -0.549 0
      vertex 2.558 -0.548 0
      vertex 1.885 -0.675 0
    endloop
  endfacet
  facet normal 0 0 -1
    outer loop
      vertex -1.563 -0.533 0
      vertex -0.97082 -0.705342 0
      vertex -0.705342 -0.97082 0
    endloop
  endfacet
  facet normal 0 0 -1
    outer loop
      vertex 0.808 -1.41 0
      vertex 1.781 -1.878 0
      vertex 0.976 -1.715 0
    endloop
  endfacet
  facet normal 0 0 -1
    outer loop
      vertex 0 1.2 0
      vertex 0.866 1.484 0
      vertex 0.37082 1.14127 0
    endloop
  endfacet
  facet normal 0 0 -1
    outer loop
      vertex 0 1.2 0
      vertex 1.046 1.782 0
      vertex 0.866 1.484 0
    endloop
  endfacet
  facet normal 0 0 -1
    outer loop
      vertex 0.808 -1.41 0
      vertex 1.641 -1.336 0
      vertex 1.781 -1.878 0
    endloop
  endfacet
  facet normal 0 0 -1
    outer loop
      vertex 1.067 -1.813 0
      vertex 1.781 -1.878 0
      vertex 1.573 -2.05 0
    endloop
  endfacet
  facet normal 0 0 -1
    outer loop
      vertex 0.976 -1.715 0
      vertex 1.781 -1.878 0
      vertex 1.067 -1.813 0
    endloop
  endfacet
  facet normal 0 0 -1
    outer loop
      vertex 0.37082 -1.14127 0
      vertex 1.641 -1.336 0
      vertex 0.808 -1.41 0
    endloop
  endfacet
  facet normal 0 0 -1
    outer loop
      vertex -0.382 -2.06 0
      vertex 0.124 -2.568 0
      vertex -0.147 -2.568 0
    endloop
  endfacet
  facet normal 0 0 -1
    outer loop
      vertex -0.321 -1.586 0
      vertex 0.308 -1.588 0
      vertex 0.372 -1.93 0
    endloop
  endfacet
  facet normal 0 0 -1
    outer loop
      vertex -0.99 -1.705 0
      vertex -1.571 -1.213 0
      vertex -0.82 -1.402 0
    endloop
  endfacet
  facet normal 0 0 -1
    outer loop
      vertex -0.382 -2.06 0
      vertex 0.364 -2.063 0
      vertex 0.124 -2.568 0
    endloop
  endfacet
  facet normal 0 0 -1
    outer loop
      vertex -0.388 -1.927 0
      vertex 0.364 -2.063 0
      vertex -0.382 -2.06 0
    endloop
  endfacet
  facet normal 0 0 -1
    outer loop
      vertex -0.321 -1.586 0
      vertex 0.372 -1.93 0
      vertex 0.364 -2.063 0
    endloop
  endfacet
  facet normal 0 0 -1
    outer loop
      vertex -1.3 -0.995 0
      vertex 0.308 -1.588 0
      vertex -0.321 -1.586 0
    endloop
  endfacet
  facet normal 0 0 -1
    outer loop
      vertex -1.3 -0.995 0
      vertex -0.321 -1.586 0
      vertex -0.82 -1.402 0
    endloop
  endfacet
  facet normal 0 0 -1
    outer loop
      vertex 0.97082 -0.705342 0
      vertex 1.292 -1.008 0
      vertex 0.705342 -0.97082 0
    endloop
  endfacet
  facet normal 0 0 -1
    outer loop
      vertex -1.3 -0.995 0
      vertex -0.82 -1.402 0
      vertex -1.571 -1.213 0
    endloop
  endfacet
  facet normal 0 0 -1
    outer loop
      vertex -0.321 -1.586 0
      vertex 0.364 -2.063 0
      vertex -0.388 -1.927 0
    endloop
  endfacet
  facet normal 0 0 -1
    outer loop
      vertex -1.651 -1.319 0
      vertex -1.591 -2.034 0
      vertex -1.797 -1.86 0
    endloop
  endfacet
  facet normal 0 0 -1
    outer loop
      vertex -1.651 -1.319 0
      vertex -1.082 -1.802 0
      vertex -1.591 -2.034 0
    endloop
  endfacet
  facet normal 0 0 -1
    outer loop
      vertex -1.571 -1.213 0
      vertex -1.082 -1.802 0
      vertex -1.651 -1.319 0
    endloop
  endfacet
  facet normal 0 0 -1
    outer loop
      vertex -1.571 -1.213 0
      vertex -0.99 -1.705 0
      vertex -1.082 -1.802 0
    endloop
  endfacet
  facet normal 0 0 -1
    outer loop
      vertex 0.37082 -1.14127 0
      vertex 0.808 -1.41 0
      vertex 0 -1.2 0
    endloop
  endfacet
  facet normal 0 0 -1
    outer loop
      vertex 0.97082 0.705342 0
      vertex 2.024 0.778 0
      vertex 1.912 0.706 0
    endloop
  endfacet
  facet normal 0 0 -1
    outer loop
      vertex 1.14127 0.37082 0
      vertex 1.673 0.07 0
      vertex 1.2 0 0
    endloop
  endfacet
  facet normal 0 0 -1
    outer loop
      vertex 0.308 -1.588 0
      vertex -0.37082 -1.14127 0
      vertex 0.808 -1.41 0
    endloop
  endfacet
  facet normal 0 0 -1
    outer loop
      vertex -1.14127 -0.37082 0
      vertex -2.561 -0.522 0
      vertex -1.2 0 0
    endloop
  endfacet
  facet normal 0 0 -1
    outer loop
      vertex -1.563 -0.533 0
      vertex -2.561 -0.522 0
      vertex -1.14127 -0.37082 0
    endloop
  endfacet
  facet normal 0 0 -1
    outer loop
      vertex 0.97082 0.705342 0
      vertex 1.912 0.706 0
      vertex 1.583 0.594 0
    endloop
  endfacet
  facet normal 0 0 -1
    outer loop
      vertex 1.2 0 0
      vertex 2.021 0.074 0
      vertex 2.15 0.043 0
    endloop
  endfacet
  facet normal 0 0 -1
    outer loop
      vertex 0 -1.2 0
      vertex 0.808 -1.41 0
      vertex -0.37082 -1.14127 0
    endloop
  endfacet
  facet normal 0 0 -1
    outer loop
      vertex 0.705342 -0.97082 0
      vertex 1.561 -1.229 0
      vertex 1.641 -1.336 0
    endloop
  endfacet
  facet normal 0 0 -1
    outer loop
      vertex 1.292 -1.008 0
      vertex 1.561 -1.229 0
      vertex 0.705342 -0.97082 0
    endloop
  endfacet
  facet normal 0 0 -1
    outer loop
      vertex 0 1.2 0
      vertex 1.085 1.909 0
      vertex 1.046 1.782 0
    endloop
  endfacet
  facet normal 0 0 -1
    outer loop
      vertex 1.14127 -0.37082 0
      vertex 1.56 -0.549 0
      vertex 0.97082 -0.705342 0
    endloop
  endfacet
  facet normal 0 0 -1
    outer loop
      vertex 1.14127 -0.37082 0
      vertex 2.558 -0.548 0
      vertex 1.56 -0.549 0
    endloop
  endfacet
  facet normal 0 0 -1
    outer loop
      vertex 1.673 0.07 0
      vertex 2.021 0.074 0
      vertex 1.2 0 0
    endloop
  endfacet
  facet normal 0 0 -1
    outer loop
      vertex 1.2 0 0
      vertex 2.15 0.043 0
      vertex 2.606 -0.282 0
    endloop
  endfacet
  facet normal 0 0 -1
    outer loop
      vertex 1.2 0 0
      vertex 2.606 -0.282 0
      vertex 1.14127 -0.37082 0
    endloop
  endfacet
  facet normal 0 0 -1
    outer loop
      vertex 0.37082 1.14127 0
      vertex 0.866 1.484 0
      vertex 0.705342 0.97082 0
    endloop
  endfacet
  facet normal 0 0 -1
    outer loop
      vertex 1.271 1.14 0
      vertex 2.212 1.471 0
      vertex 2.346 1.236 0
    endloop
  endfacet
  facet normal 0 0 -1
    outer loop
      vertex 0.705342 0.97082 0
      vertex 2.346 1.236 0
      vertex 0.97082 0.705342 0
    endloop
  endfacet
  facet normal 0 0 -1
    outer loop
      vertex 0.705342 0.97082 0
      vertex 1.271 1.14 0
      vertex 2.346 1.236 0
    endloop
  endfacet
  facet normal 0 0 -1
    outer loop
      vertex 0.275 1.702 0
      vertex 1.085 1.909 0
      vertex 0 1.2 0
    endloop
  endfacet
  facet normal 0 0 -1
    outer loop
      vertex 0.275 1.702 0
      vertex 0 1.2 0
      vertex -0.37082 1.14127 0
    endloop
  endfacet
  facet normal 0 0 -1
    outer loop
      vertex -1.669 0.087 0
      vertex -0.256 1.705 0
      vertex -0.705342 0.97082 0
    endloop
  endfacet
  facet normal 0 0 -1
    outer loop
      vertex -1.14127 0.37082 0
      vertex -1.669 0.087 0
      vertex -0.97082 0.705342 0
    endloop
  endfacet
  facet normal 0 0 -1
    outer loop
      vertex -1.669 0.087 0
      vertex -0.705342 0.97082 0
      vertex -0.97082 0.705342 0
    endloop
  endfacet
  facet normal 0 0 -1
    outer loop
      vertex -1.2 0 0
      vertex -2.561 -0.522 0
      vertex -1.14127 0.37082 0
    endloop
  endfacet
  facet normal 0 0 -1
    outer loop
      vertex 1.292 -1.008 0
      vertex 0.97082 -0.705342 0
      vertex 1.56 -0.549 0
    endloop
  endfacet
  facet normal 0 0 -1
    outer loop
      vertex 0.705342 -0.97082 0
      vertex 1.641 -1.336 0
      vertex 0.37082 -1.14127 0
    endloop
  endfacet
  facet normal 0 0 -1
    outer loop
      vertex -0.705342 -0.97082 0
      vertex -0.37082 -1.14127 0
      vertex 0.308 -1.588 0
    endloop
  endfacet
  facet normal 0 0 -1
    outer loop
      vertex -1.563 -0.533 0
      vertex -0.705342 -0.97082 0
      vertex 0.308 -1.588 0
    endloop
  endfacet
  facet normal 0 0 -1
    outer loop
      vertex -1.563 -0.533 0
      vertex 0.308 -1.588 0
      vertex -1.3 -0.995 0
    endloop
  endfacet
  facet normal 0 0 -1
    outer loop
      vertex -2.021 -0.671 0
      vertex -2.561 -0.522 0
      vertex -1.889 -0.656 0
    endloop
  endfacet
  facet normal 0 0 -1
    outer loop
      vertex -1.889 -0.656 0
      vertex -2.561 -0.522 0
      vertex -1.563 -0.533 0
    endloop
  endfacet
  facet normal -0.571902 0.820322 0
    outer loop
      vertex -2.606 -0.256 0
      vertex -2.606 -0.256 3
      vertex -2.147 0.064 0
    endloop
  endfacet
  facet normal -0.571902 0.820322 0
    outer loop
      vertex -2.147 0.064 0
      vertex -2.606 -0.256 3
      vertex -2.147 0.064 3
    endloop
  endfacet
  facet normal 0 0 1
    outer loop
      vertex -2.147 0.064 3
      vertex -2.606 -0.256 3
      vertex -2.561 -0.522 3
    endloop
  endfacet
  facet normal 0 0 1
    outer loop
      vertex -1.889 -0.656 3
      vertex -2.147 0.064 3
      vertex -2.021 -0.671 3
    endloop
  endfacet
  facet normal 0 0 1
    outer loop
      vertex -2.021 -0.671 3
      vertex -2.147 0.064 3
      vertex -2.561 -0.522 3
    endloop
  endfacet
  facet normal 0 0 1
    outer loop
      vertex -1.563 -0.533 3
      vertex -2.147 0.064 3
      vertex -1.889 -0.656 3
    endloop
  endfacet
  facet normal 0 0 1
    outer loop
      vertex -0.321 -1.586 3
      vertex -2.147 0.064 3
      vertex -1.563 -0.533 3
    endloop
  endfacet
  facet normal 0 0 1
    outer loop
      vertex -0.82 -1.402 3
      vertex -1.563 -0.533 3
      vertex -1.3 -0.995 3
    endloop
  endfacet
  facet normal 0 0 1
    outer loop
      vertex -1.651 -1.319 3
      vertex -1.3 -0.995 3
      vertex -1.571 -1.213 3
    endloop
  endfacet
  facet normal 0 0 1
    outer loop
      vertex -1.797 -1.86 3
      vertex -1.3 -0.995 3
      vertex -1.651 -1.319 3
    endloop
  endfacet
  facet normal 0 0 1
    outer loop
      vertex -1.591 -2.034 3
      vertex -1.3 -0.995 3
      vertex -1.797 -1.86 3
    endloop
  endfacet
  facet normal 0 0 1
    outer loop
      vertex -1.082 -1.802 3
      vertex -1.3 -0.995 3
      vertex -1.591 -2.034 3
    endloop
  endfacet
  facet normal 0 0 1
    outer loop
      vertex -0.99 -1.705 3
      vertex -1.3 -0.995 3
      vertex -1.082 -1.802 3
    endloop
  endfacet
  facet normal 0 0 1
    outer loop
      vertex -0.82 -1.402 3
      vertex -1.3 -0.995 3
      vertex -0.99 -1.705 3
    endloop
  endfacet
  facet normal 0 0 1
    outer loop
      vertex -0.321 -1.586 3
      vertex -1.563 -0.533 3
      vertex -0.82 -1.402 3
    endloop
  endfacet
  facet normal 0 0 1
    outer loop
      vertex 0.364 -2.063 3
      vertex -2.147 0.064 3
      vertex -0.321 -1.586 3
    endloop
  endfacet
  facet normal 0 0 1
    outer loop
      vertex -0.382 -2.06 3
      vertex -0.321 -1.586 3
      vertex -0.388 -1.927 3
    endloop
  endfacet
  facet normal 0 0 1
    outer loop
      vertex -0.147 -2.568 3
      vertex -0.321 -1.586 3
      vertex -0.382 -2.06 3
    endloop
  endfacet
  facet normal 0 0 1
    outer loop
      vertex 0.124 -2.568 3
      vertex -0.321 -1.586 3
      vertex -0.147 -2.568 3
    endloop
  endfacet
  facet normal 0 0 1
    outer loop
      vertex 0.364 -2.063 3
      vertex -0.321 -1.586 3
      vertex 0.124 -2.568 3
    endloop
  endfacet
  facet normal 0 0 1
    outer loop
      vertex 0.372 -1.93 3
      vertex -2.147 0.064 3
      vertex 0.364 -2.063 3
    endloop
  endfacet
  facet normal 0 0 1
    outer loop
      vertex -0.705342 -0.97082 3
      vertex -2.147 0.064 3
      vertex 0.372 -1.93 3
    endloop
  endfacet
  facet normal 0 0 1
    outer loop
      vertex -0.705342 -0.97082 3
      vertex -0.97082 -0.705342 3
      vertex -2.147 0.064 3
    endloop
  endfacet
  facet normal 0 0 1
    outer loop
      vertex 1.067 -1.813 3
      vertex 0.808 -1.41 3
      vertex 0.976 -1.715 3
    endloop
  endfacet
  facet normal 0 0 1
    outer loop
      vertex 1.573 -2.05 3
      vertex 0.808 -1.41 3
      vertex 1.067 -1.813 3
    endloop
  endfacet
  facet normal 0 0 1
    outer loop
      vertex 1.781 -1.878 3
      vertex 0.808 -1.41 3
      vertex 1.573 -2.05 3
    endloop
  endfacet
  facet normal 0 0 1
    outer loop
      vertex 1.14127 -0.37082 3
      vertex 0.97082 -0.705342 3
      vertex 1.56 -0.549 3
    endloop
  endfacet
  facet normal 0 0 1
    outer loop
      vertex -1.2 0 3
      vertex -1.14127 0.37082 3
      vertex -1.669 0.087 3
    endloop
  endfacet
  facet normal 0 0 1
    outer loop
      vertex 1.2 0 3
      vertex 1.14127 -0.37082 3
      vertex 2.558 -0.548 3
    endloop
  endfacet
  facet normal 0 0 1
    outer loop
      vertex 2.017 -0.691 3
      vertex 1.56 -0.549 3
      vertex 1.885 -0.675 3
    endloop
  endfacet
  facet normal 0 0 1
    outer loop
      vertex 2.558 -0.548 3
      vertex 1.56 -0.549 3
      vertex 2.017 -0.691 3
    endloop
  endfacet
  facet normal 0 0 1
    outer loop
      vertex 1.535 1.367 3
      vertex 1.271 1.14 3
      vertex 2.212 1.471 3
    endloop
  endfacet
  facet normal 0 0 1
    outer loop
      vertex 2.021 0.074 3
      vertex 1.673 0.07 3
      vertex 2.15 0.043 3
    endloop
  endfacet
  facet normal 0 0 1
    outer loop
      vertex 1.271 1.14 3
      vertex 0.37082 1.14127 3
      vertex 0.705342 0.97082 3
    endloop
  endfacet
  facet normal 0 0 1
    outer loop
      vertex -0.97082 -0.705342 3
      vertex -1.14127 -0.37082 3
      vertex -2.147 0.064 3
    endloop
  endfacet
  facet normal 0 0 1
    outer loop
      vertex 0.37082 -1.14127 3
      vertex 0.808 -1.41 3
      vertex 1.781 -1.878 3
    endloop
  endfacet
  facet normal 0 0 1
    outer loop
      vertex -1.025 1.792 3
      vertex -0.848 1.493 3
      vertex -0.309 2.049 3
    endloop
  endfacet
  facet normal 0 0 1
    outer loop
      vertex 1.654 1.426 3
      vertex 1.535 1.367 3
      vertex 2.212 1.471 3
    endloop
  endfacet
  facet normal 0 0 1
    outer loop
      vertex 0.332 2.045 3
      vertex 0.275 1.702 3
      vertex 1.038 2.467 3
    endloop
  endfacet
  facet normal 0 0 1
    outer loop
      vertex 2.212 1.471 3
      vertex 1.271 1.14 3
      vertex 2.346 1.236 3
    endloop
  endfacet
  facet normal 0 0 1
    outer loop
      vertex -1.14127 -0.37082 3
      vertex -1.2 0 3
      vertex -2.147 0.064 3
    endloop
  endfacet
  facet normal 0 0 1
    outer loop
      vertex -2.331 1.259 3
      vertex -2.014 0.799 3
      vertex -2.195 1.493 3
    endloop
  endfacet
  facet normal 0 0 1
    outer loop
      vertex 0.784 2.56 3
      vertex 0.385 2.168 3
      vertex 1.038 2.467 3
    endloop
  endfacet
  facet normal 0 0 1
    outer loop
      vertex 0.385 2.168 3
      vertex 0.332 2.045 3
      vertex 1.038 2.467 3
    endloop
  endfacet
  facet normal 0 0 1
    outer loop
      vertex -1.01 2.477 3
      vertex -1.063 1.92 3
      vertex -0.756 2.568 3
    endloop
  endfacet
  facet normal 0 0 1
    outer loop
      vertex 1.038 2.467 3
      vertex 0.275 1.702 3
      vertex 1.085 1.909 3
    endloop
  endfacet
  facet normal 0 0 1
    outer loop
      vertex -1.257 1.153 3
      vertex -1.519 1.382 3
      vertex -1.902 0.725 3
    endloop
  endfacet
  facet normal 0 0 1
    outer loop
      vertex -0.756 2.568 3
      vertex -1.063 1.92 3
      vertex -0.361 2.172 3
    endloop
  endfacet
  facet normal 0 0 1
    outer loop
      vertex -1.063 1.92 3
      vertex -1.025 1.792 3
      vertex -0.361 2.172 3
    endloop
  endfacet
  facet normal 0 0 1
    outer loop
      vertex -0.309 2.049 3
      vertex -0.848 1.493 3
      vertex -0.256 1.705 3
    endloop
  endfacet
  facet normal 0 0 1
    outer loop
      vertex -1.574 0.61 3
      vertex 0.275 1.702 3
      vertex -0.256 1.705 3
    endloop
  endfacet
  facet normal 0 0 1
    outer loop
      vertex -1.902 0.725 3
      vertex -1.574 0.61 3
      vertex -1.257 1.153 3
    endloop
  endfacet
  facet normal 0 0 1
    outer loop
      vertex -2.014 0.799 3
      vertex -1.519 1.382 3
      vertex -1.637 1.443 3
    endloop
  endfacet
  facet normal 0 0 1
    outer loop
      vertex -2.195 1.493 3
      vertex -2.014 0.799 3
      vertex -1.637 1.443 3
    endloop
  endfacet
  facet normal 0 0 1
    outer loop
      vertex -2.014 0.799 3
      vertex -1.902 0.725 3
      vertex -1.519 1.382 3
    endloop
  endfacet
  facet normal 0 0 1
    outer loop
      vertex -1.257 1.153 3
      vertex -1.574 0.61 3
      vertex -0.848 1.493 3
    endloop
  endfacet
  facet normal 0 0 1
    outer loop
      vertex -0.848 1.493 3
      vertex -1.574 0.61 3
      vertex -0.256 1.705 3
    endloop
  endfacet
  facet normal 0 0 1
    outer loop
      vertex -1.669 0.087 3
      vertex -2.017 0.094 3
      vertex -2.147 0.064 3
    endloop
  endfacet
  facet normal 0 0 1
    outer loop
      vertex 0.37082 -1.14127 3
      vertex 0 -1.2 3
      vertex 0.808 -1.41 3
    endloop
  endfacet
  facet normal 0 0 1
    outer loop
      vertex 0 -1.2 3
      vertex -0.37082 -1.14127 3
      vertex 0.308 -1.588 3
    endloop
  endfacet
  facet normal 0 0 1
    outer loop
      vertex 0.97082 -0.705342 3
      vertex 0.705342 -0.97082 3
      vertex 1.292 -1.008 3
    endloop
  endfacet
  facet normal 0 0 1
    outer loop
      vertex 0.97082 0.705342 3
      vertex 1.912 0.706 3
      vertex 2.024 0.778 3
    endloop
  endfacet
  facet normal 0 0 1
    outer loop
      vertex 0 1.2 3
      vertex 0.37082 1.14127 3
      vertex 0.866 1.484 3
    endloop
  endfacet
  facet normal 0 0 1
    outer loop
      vertex 0.275 1.702 3
      vertex -0.705342 0.97082 3
      vertex 1.085 1.909 3
    endloop
  endfacet
  facet normal 0 0 1
    outer loop
      vertex -0.705342 0.97082 3
      vertex -0.37082 1.14127 3
      vertex 1.085 1.909 3
    endloop
  endfacet
  facet normal 0 0 1
    outer loop
      vertex 1.046 1.782 3
      vertex 0 1.2 3
      vertex 0.866 1.484 3
    endloop
  endfacet
  facet normal 0 0 1
    outer loop
      vertex -1.025 1.792 3
      vertex -0.309 2.049 3
      vertex -0.361 2.172 3
    endloop
  endfacet
  facet normal 0 0 1
    outer loop
      vertex 2.346 1.236 3
      vertex 0.97082 0.705342 3
      vertex 2.024 0.778 3
    endloop
  endfacet
  facet normal 0 0 1
    outer loop
      vertex 0.705342 -0.97082 3
      vertex 0.37082 -1.14127 3
      vertex 1.641 -1.336 3
    endloop
  endfacet
  facet normal 0 0 1
    outer loop
      vertex -0.37082 1.14127 3
      vertex 1.046 1.782 3
      vertex 1.085 1.909 3
    endloop
  endfacet
  facet normal 0 0 1
    outer loop
      vertex 2.15 0.043 3
      vertex 1.2 0 3
      vertex 2.606 -0.282 3
    endloop
  endfacet
  facet normal 0 0 1
    outer loop
      vertex 2.558 -0.548 3
      vertex 1.14127 -0.37082 3
      vertex 1.56 -0.549 3
    endloop
  endfacet
  facet normal 0 0 1
    outer loop
      vertex 1.2 0 3
      vertex 2.558 -0.548 3
      vertex 2.606 -0.282 3
    endloop
  endfacet
  facet normal 0 0 1
    outer loop
      vertex 1.56 -0.549 3
      vertex 0.97082 -0.705342 3
      vertex 1.292 -1.008 3
    endloop
  endfacet
  facet normal 0 0 1
    outer loop
      vertex -1.2 0 3
      vertex -1.669 0.087 3
      vertex -2.147 0.064 3
    endloop
  endfacet
  facet normal 0 0 1
    outer loop
      vertex 1.561 -1.229 3
      vertex 0.705342 -0.97082 3
      vertex 1.641 -1.336 3
    endloop
  endfacet
  facet normal 0 0 1
    outer loop
      vertex 1.641 -1.336 3
      vertex 0.37082 -1.14127 3
      vertex 1.781 -1.878 3
    endloop
  endfacet
  facet normal 0 0 1
    outer loop
      vertex 0.808 -1.41 3
      vertex 0 -1.2 3
      vertex 0.308 -1.588 3
    endloop
  endfacet
  facet normal 0 0 1
    outer loop
      vertex 1.292 -1.008 3
      vertex 0.705342 -0.97082 3
      vertex 1.561 -1.229 3
    endloop
  endfacet
  facet normal 0 0 1
    outer loop
      vertex 0.308 -1.588 3
      vertex -0.37082 -1.14127 3
      vertex 0.372 -1.93 3
    endloop
  endfacet
  facet normal 0 0 1
    outer loop
      vertex -0.37082 -1.14127 3
      vertex -0.705342 -0.97082 3
      vertex 0.372 -1.93 3
    endloop
  endfacet
  facet normal 0 0 1
    outer loop
      vertex 0.97082 0.705342 3
      vertex 1.14127 0.37082 3
      vertex 1.583 0.594 3
    endloop
  endfacet
  facet normal 0 0 1
    outer loop
      vertex -0.37082 1.14127 3
      vertex 0 1.2 3
      vertex 1.046 1.782 3
    endloop
  endfacet
  facet normal 0 0 1
    outer loop
      vertex 1.673 0.07 3
      vertex 1.583 0.594 3
      vertex 1.14127 0.37082 3
    endloop
  endfacet
  facet normal 0 0 1
    outer loop
      vertex 1.271 1.14 3
      vertex 0.866 1.484 3
      vertex 0.37082 1.14127 3
    endloop
  endfacet
  facet normal 0 0 1
    outer loop
      vertex -1.574 0.61 3
      vertex -0.705342 0.97082 3
      vertex 0.275 1.702 3
    endloop
  endfacet
  facet normal 0 0 1
    outer loop
      vertex 0.705342 0.97082 3
      vertex 0.97082 0.705342 3
      vertex 2.346 1.236 3
    endloop
  endfacet
  facet normal 0 0 1
    outer loop
      vertex -1.574 0.61 3
      vertex -0.97082 0.705342 3
      vertex -0.705342 0.97082 3
    endloop
  endfacet
  facet normal 0 0 1
    outer loop
      vertex 0.705342 0.97082 3
      vertex 2.346 1.236 3
      vertex 1.271 1.14 3
    endloop
  endfacet
  facet normal 0 0 1
    outer loop
      vertex 0.97082 0.705342 3
      vertex 1.583 0.594 3
      vertex 1.912 0.706 3
    endloop
  endfacet
  facet normal 0 0 1
    outer loop
      vertex -1.574 0.61 3
      vertex -1.14127 0.37082 3
      vertex -0.97082 0.705342 3
    endloop
  endfacet
  facet normal 0 0 1
    outer loop
      vertex 1.14127 0.37082 3
      vertex 1.2 0 3
      vertex 1.673 0.07 3
    endloop
  endfacet
  facet normal 0 0 1
    outer loop
      vertex 1.673 0.07 3
      vertex 1.2 0 3
      vertex 2.15 0.043 3
    endloop
  endfacet
  facet normal 0 0 1
    outer loop
      vertex -1.574 0.61 3
      vertex -1.669 0.087 3
      vertex -1.14127 0.37082 3
    endloop
  endfacet
  facet normal -0.265986 -0.963977 0
    outer loop
      vertex -2.561 -0.522 3
      vertex -2.561 -0.522 0
      vertex -2.021 -0.671 0
    endloop
  endfacet
  facet normal -0.265986 -0.963977 0
    outer loop
      vertex -2.021 -0.671 3
      vertex -2.561 -0.522 3
      vertex -2.021 -0.671 0
    endloop
  endfacet
  facet normal 0.11291 -0.993605 0
    outer loop
      vertex -2.021 -0.671 3
      vertex -2.021 -0.671 0
      vertex -1.889 -0.656 0
    endloop
  endfacet
  facet normal 0.11291 -0.993605 0
    outer loop
      vertex -1.889 -0.656 3
      vertex -2.021 -0.671 3
      vertex -1.889 -0.656 0
    endloop
  endfacet
  facet normal 0.35301 -0.93562 0
    outer loop
      vertex -1.889 -0.656 3
      vertex -1.889 -0.656 0
      vertex -1.563 -0.533 0
    endloop
  endfacet
  facet normal 0.35301 -0.93562 0
    outer loop
      vertex -1.563 -0.533 3
      vertex -1.889 -0.656 3
      vertex -1.563 -0.533 0
    endloop
  endfacet
  facet normal -0.869052 -0.49472 0
    outer loop
      vertex -1.563 -0.533 0
      vertex -1.3 -0.995 0
      vertex -1.563 -0.533 3
    endloop
  endfacet
  facet normal -0.869052 -0.49472 0
    outer loop
      vertex -1.563 -0.533 3
      vertex -1.3 -0.995 0
      vertex -1.3 -0.995 3
    endloop
  endfacet
  facet normal -0.626797 0.779183 0
    outer loop
      vertex -1.571 -1.213 0
      vertex -1.571 -1.213 3
      vertex -1.3 -0.995 0
    endloop
  endfacet
  facet normal -0.626797 0.779183 0
    outer loop
      vertex -1.3 -0.995 0
      vertex -1.571 -1.213 3
      vertex -1.3 -0.995 3
    endloop
  endfacet
  facet normal -0.798189 0.602407 0
    outer loop
      vertex -1.651 -1.319 0
      vertex -1.651 -1.319 3
      vertex -1.571 -1.213 0
    endloop
  endfacet
  facet normal -0.798189 0.602407 0
    outer loop
      vertex -1.571 -1.213 0
      vertex -1.651 -1.319 3
      vertex -1.571 -1.213 3
    endloop
  endfacet
  facet normal -0.965461 0.260549 0
    outer loop
      vertex -1.797 -1.86 0
      vertex -1.797 -1.86 3
      vertex -1.651 -1.319 0
    endloop
  endfacet
  facet normal -0.965461 0.260549 0
    outer loop
      vertex -1.651 -1.319 0
      vertex -1.797 -1.86 3
      vertex -1.651 -1.319 3
    endloop
  endfacet
  facet normal -0.645277 -0.763949 0
    outer loop
      vertex -1.797 -1.86 3
      vertex -1.797 -1.86 0
      vertex -1.591 -2.034 0
    endloop
  endfacet
  facet normal -0.645277 -0.763949 0
    outer loop
      vertex -1.591 -2.034 3
      vertex -1.797 -1.86 3
      vertex -1.591 -2.034 0
    endloop
  endfacet
  facet normal 0.414746 -0.909937 0
    outer loop
      vertex -1.591 -2.034 3
      vertex -1.591 -2.034 0
      vertex -1.082 -1.802 0
    endloop
  endfacet
  facet normal 0.414746 -0.909937 0
    outer loop
      vertex -1.082 -1.802 3
      vertex -1.591 -2.034 3
      vertex -1.082 -1.802 0
    endloop
  endfacet
  facet normal 0.725559 -0.688159 0
    outer loop
      vertex -1.082 -1.802 3
      vertex -1.082 -1.802 0
      vertex -0.99 -1.705 0
    endloop
  endfacet
  facet normal 0.725559 -0.688159 0
    outer loop
      vertex -0.99 -1.705 3
      vertex -1.082 -1.802 3
      vertex -0.99 -1.705 0
    endloop
  endfacet
  facet normal 0.872113 -0.489304 0
    outer loop
      vertex -0.99 -1.705 3
      vertex -0.99 -1.705 0
      vertex -0.82 -1.402 0
    endloop
  endfacet
  facet normal 0.872113 -0.489304 0
    outer loop
      vertex -0.82 -1.402 3
      vertex -0.99 -1.705 3
      vertex -0.82 -1.402 0
    endloop
  endfacet
  facet normal -0.345967 -0.938247 0
    outer loop
      vertex -0.82 -1.402 3
      vertex -0.82 -1.402 0
      vertex -0.321 -1.586 0
    endloop
  endfacet
  facet normal -0.345967 -0.938247 0
    outer loop
      vertex -0.321 -1.586 3
      vertex -0.82 -1.402 3
      vertex -0.321 -1.586 0
    endloop
  endfacet
  facet normal -0.981239 0.192795 0
    outer loop
      vertex -0.388 -1.927 0
      vertex -0.388 -1.927 3
      vertex -0.321 -1.586 0
    endloop
  endfacet
  facet normal -0.981239 0.192795 0
    outer loop
      vertex -0.321 -1.586 0
      vertex -0.388 -1.927 3
      vertex -0.321 -1.586 3
    endloop
  endfacet
  facet normal -0.998984 -0.0450669 0
    outer loop
      vertex -0.388 -1.927 0
      vertex -0.382 -2.06 0
      vertex -0.388 -1.927 3
    endloop
  endfacet
  facet normal -0.998984 -0.0450669 0
    outer loop
      vertex -0.388 -1.927 3
      vertex -0.382 -2.06 0
      vertex -0.382 -2.06 3
    endloop
  endfacet
  facet normal -0.907593 -0.419851 0
    outer loop
      vertex -0.382 -2.06 0
      vertex -0.147 -2.568 0
      vertex -0.382 -2.06 3
    endloop
  endfacet
  facet normal -0.907593 -0.419851 0
    outer loop
      vertex -0.382 -2.06 3
      vertex -0.147 -2.568 0
      vertex -0.147 -2.568 3
    endloop
  endfacet
  facet normal 0 -1 0
    outer loop
      vertex -0.147 -2.568 3
      vertex -0.147 -2.568 0
      vertex 0.124 -2.568 0
    endloop
  endfacet
  facet normal 0 -1 0
    outer loop
      vertex 0.124 -2.568 3
      vertex -0.147 -2.568 3
      vertex 0.124 -2.568 0
    endloop
  endfacet
  facet normal 0.903191 -0.429239 0
    outer loop
      vertex 0.124 -2.568 3
      vertex 0.124 -2.568 0
      vertex 0.364 -2.063 0
    endloop
  endfacet
  facet normal 0.903191 -0.429239 0
    outer loop
      vertex 0.364 -2.063 3
      vertex 0.124 -2.568 3
      vertex 0.364 -2.063 0
    endloop
  endfacet
  facet normal 0.998196 -0.0600419 0
    outer loop
      vertex 0.364 -2.063 3
      vertex 0.364 -2.063 0
      vertex 0.372 -1.93 0
    endloop
  endfacet
  facet normal 0.998196 -0.0600419 0
    outer loop
      vertex 0.372 -1.93 3
      vertex 0.364 -2.063 3
      vertex 0.372 -1.93 0
    endloop
  endfacet
  facet normal 0.982937 0.183941 0
    outer loop
      vertex 0.372 -1.93 0
      vertex 0.308 -1.588 0
      vertex 0.308 -1.588 3
    endloop
  endfacet
  facet normal 0.982937 0.183941 0
    outer loop
      vertex 0.372 -1.93 3
      vertex 0.372 -1.93 0
      vertex 0.308 -1.588 3
    endloop
  endfacet
  facet normal 0.335381 -0.942082 0
    outer loop
      vertex 0.308 -1.588 3
      vertex 0.308 -1.588 0
      vertex 0.808 -1.41 0
    endloop
  endfacet
  facet normal 0.335381 -0.942082 0
    outer loop
      vertex 0.808 -1.41 3
      vertex 0.308 -1.588 3
      vertex 0.808 -1.41 0
    endloop
  endfacet
  facet normal -0.875913 -0.48247 0
    outer loop
      vertex 0.808 -1.41 0
      vertex 0.976 -1.715 0
      vertex 0.808 -1.41 3
    endloop
  endfacet
  facet normal -0.875913 -0.48247 0
    outer loop
      vertex 0.808 -1.41 3
      vertex 0.976 -1.715 0
      vertex 0.976 -1.715 3
    endloop
  endfacet
  facet normal -0.732793 -0.680451 0
    outer loop
      vertex 0.976 -1.715 0
      vertex 1.067 -1.813 0
      vertex 0.976 -1.715 3
    endloop
  endfacet
  facet normal -0.732793 -0.680451 0
    outer loop
      vertex 0.976 -1.715 3
      vertex 1.067 -1.813 0
      vertex 1.067 -1.813 3
    endloop
  endfacet
  facet normal -0.424159 -0.905588 0
    outer loop
      vertex 1.067 -1.813 3
      vertex 1.067 -1.813 0
      vertex 1.573 -2.05 0
    endloop
  endfacet
  facet normal -0.424159 -0.905588 0
    outer loop
      vertex 1.573 -2.05 3
      vertex 1.067 -1.813 3
      vertex 1.573 -2.05 0
    endloop
  endfacet
  facet normal 0.637264 -0.770645 0
    outer loop
      vertex 1.573 -2.05 3
      vertex 1.573 -2.05 0
      vertex 1.781 -1.878 0
    endloop
  endfacet
  facet normal 0.637264 -0.770645 0
    outer loop
      vertex 1.781 -1.878 3
      vertex 1.573 -2.05 3
      vertex 1.781 -1.878 0
    endloop
  endfacet
  facet normal 0.968222 0.250094 0
    outer loop
      vertex 1.781 -1.878 0
      vertex 1.641 -1.336 0
      vertex 1.641 -1.336 3
    endloop
  endfacet
  facet normal 0.968222 0.250094 0
    outer loop
      vertex 1.781 -1.878 3
      vertex 1.781 -1.878 0
      vertex 1.641 -1.336 3
    endloop
  endfacet
  facet normal 0.800897 0.598802 0
    outer loop
      vertex 1.641 -1.336 0
      vertex 1.561 -1.229 0
      vertex 1.561 -1.229 3
    endloop
  endfacet
  facet normal 0.800897 0.598802 0
    outer loop
      vertex 1.641 -1.336 3
      vertex 1.641 -1.336 0
      vertex 1.561 -1.229 3
    endloop
  endfacet
  facet normal 0.634801 0.772676 0
    outer loop
      vertex 1.292 -1.008 0
      vertex 1.292 -1.008 3
      vertex 1.561 -1.229 0
    endloop
  endfacet
  facet normal 0.634801 0.772676 0
    outer loop
      vertex 1.561 -1.229 0
      vertex 1.292 -1.008 3
      vertex 1.561 -1.229 3
    endloop
  endfacet
  facet normal 0.863574 -0.504222 0
    outer loop
      vertex 1.292 -1.008 3
      vertex 1.292 -1.008 0
      vertex 1.56 -0.549 0
    endloop
  endfacet
  facet normal 0.863574 -0.504222 0
    outer loop
      vertex 1.56 -0.549 3
      vertex 1.292 -1.008 3
      vertex 1.56 -0.549 0
    endloop
  endfacet
  facet normal -0.361477 -0.932381 0
    outer loop
      vertex 1.56 -0.549 3
      vertex 1.56 -0.549 0
      vertex 1.885 -0.675 0
    endloop
  endfacet
  facet normal -0.361477 -0.932381 0
    outer loop
      vertex 1.885 -0.675 3
      vertex 1.56 -0.549 3
      vertex 1.885 -0.675 0
    endloop
  endfacet
  facet normal -0.120331 -0.992734 0
    outer loop
      vertex 1.885 -0.675 3
      vertex 1.885 -0.675 0
      vertex 2.017 -0.691 0
    endloop
  endfacet
  facet normal -0.120331 -0.992734 0
    outer loop
      vertex 2.017 -0.691 3
      vertex 1.885 -0.675 3
      vertex 2.017 -0.691 0
    endloop
  endfacet
  facet normal 0.255549 -0.966796 0
    outer loop
      vertex 2.017 -0.691 3
      vertex 2.017 -0.691 0
      vertex 2.558 -0.548 0
    endloop
  endfacet
  facet normal 0.255549 -0.966796 0
    outer loop
      vertex 2.558 -0.548 3
      vertex 2.017 -0.691 3
      vertex 2.558 -0.548 0
    endloop
  endfacet
  facet normal 0.984106 -0.177583 0
    outer loop
      vertex 2.558 -0.548 3
      vertex 2.558 -0.548 0
      vertex 2.606 -0.282 0
    endloop
  endfacet
  facet normal 0.984106 -0.177583 0
    outer loop
      vertex 2.606 -0.282 3
      vertex 2.558 -0.548 3
      vertex 2.606 -0.282 0
    endloop
  endfacet
  facet normal 0.580393 0.814336 0
    outer loop
      vertex 2.15 0.043 0
      vertex 2.15 0.043 3
      vertex 2.606 -0.282 0
    endloop
  endfacet
  facet normal 0.580393 0.814336 0
    outer loop
      vertex 2.606 -0.282 0
      vertex 2.15 0.043 3
      vertex 2.606 -0.282 3
    endloop
  endfacet
  facet normal 0.233658 0.972319 0
    outer loop
      vertex 2.021 0.074 0
      vertex 2.021 0.074 3
      vertex 2.15 0.043 0
    endloop
  endfacet
  facet normal 0.233658 0.972319 0
    outer loop
      vertex 2.15 0.043 0
      vertex 2.021 0.074 3
      vertex 2.15 0.043 3
    endloop
  endfacet
  facet normal -0.0114935 0.999934 0
    outer loop
      vertex 1.673 0.07 0
      vertex 1.673 0.07 3
      vertex 2.021 0.074 0
    endloop
  endfacet
  facet normal -0.0114935 0.999934 0
    outer loop
      vertex 2.021 0.074 0
      vertex 1.673 0.07 3
      vertex 2.021 0.074 3
    endloop
  endfacet
  facet normal 0.985569 0.169277 0
    outer loop
      vertex 1.673 0.07 0
      vertex 1.583 0.594 0
      vertex 1.583 0.594 3
    endloop
  endfacet
  facet normal 0.985569 0.169277 0
    outer loop
      vertex 1.673 0.07 3
      vertex 1.673 0.07 0
      vertex 1.583 0.594 3
    endloop
  endfacet
  facet normal 0.322264 -0.94665 0
    outer loop
      vertex 1.583 0.594 3
      vertex 1.583 0.594 0
      vertex 1.912 0.706 0
    endloop
  endfacet
  facet normal 0.322264 -0.94665 0
    outer loop
      vertex 1.912 0.706 3
      vertex 1.583 0.594 3
      vertex 1.912 0.706 0
    endloop
  endfacet
  facet normal 0.540758 -0.841178 0
    outer loop
      vertex 1.912 0.706 3
      vertex 1.912 0.706 0
      vertex 2.024 0.778 0
    endloop
  endfacet
  facet normal 0.540758 -0.841178 0
    outer loop
      vertex 2.024 0.778 3
      vertex 1.912 0.706 3
      vertex 2.024 0.778 0
    endloop
  endfacet
  facet normal 0.818055 -0.575139 0
    outer loop
      vertex 2.024 0.778 3
      vertex 2.024 0.778 0
      vertex 2.346 1.236 0
    endloop
  endfacet
  facet normal 0.818055 -0.575139 0
    outer loop
      vertex 2.346 1.236 3
      vertex 2.024 0.778 3
      vertex 2.346 1.236 0
    endloop
  endfacet
  facet normal 0.868698 0.495343 0
    outer loop
      vertex 2.346 1.236 0
      vertex 2.212 1.471 0
      vertex 2.212 1.471 3
    endloop
  endfacet
  facet normal 0.868698 0.495343 0
    outer loop
      vertex 2.346 1.236 3
      vertex 2.346 1.236 0
      vertex 2.212 1.471 3
    endloop
  endfacet
  facet normal -0.0803842 0.996764 0
    outer loop
      vertex 1.654 1.426 0
      vertex 1.654 1.426 3
      vertex 2.212 1.471 0
    endloop
  endfacet
  facet normal -0.0803842 0.996764 0
    outer loop
      vertex 2.212 1.471 0
      vertex 1.654 1.426 3
      vertex 2.212 1.471 3
    endloop
  endfacet
  facet normal -0.4442 0.895928 0
    outer loop
      vertex 1.535 1.367 0
      vertex 1.535 1.367 3
      vertex 1.654 1.426 0
    endloop
  endfacet
  facet normal -0.4442 0.895928 0
    outer loop
      vertex 1.654 1.426 0
      vertex 1.535 1.367 3
      vertex 1.654 1.426 3
    endloop
  endfacet
  facet normal -0.651973 0.758242 0
    outer loop
      vertex 1.271 1.14 0
      vertex 1.271 1.14 3
      vertex 1.535 1.367 0
    endloop
  endfacet
  facet normal -0.651973 0.758242 0
    outer loop
      vertex 1.535 1.367 0
      vertex 1.271 1.14 3
      vertex 1.535 1.367 3
    endloop
  endfacet
  facet normal 0.647375 0.762171 0
    outer loop
      vertex 0.866 1.484 0
      vertex 0.866 1.484 3
      vertex 1.271 1.14 0
    endloop
  endfacet
  facet normal 0.647375 0.762171 0
    outer loop
      vertex 1.271 1.14 0
      vertex 0.866 1.484 3
      vertex 1.271 1.14 3
    endloop
  endfacet
  facet normal 0.855969 -0.517028 0
    outer loop
      vertex 0.866 1.484 3
      vertex 0.866 1.484 0
      vertex 1.046 1.782 0
    endloop
  endfacet
  facet normal 0.855969 -0.517028 0
    outer loop
      vertex 1.046 1.782 3
      vertex 0.866 1.484 3
      vertex 1.046 1.782 0
    endloop
  endfacet
  facet normal 0.955942 -0.293557 0
    outer loop
      vertex 1.046 1.782 3
      vertex 1.046 1.782 0
      vertex 1.085 1.909 0
    endloop
  endfacet
  facet normal 0.955942 -0.293557 0
    outer loop
      vertex 1.085 1.909 3
      vertex 1.046 1.782 3
      vertex 1.085 1.909 0
    endloop
  endfacet
  facet normal 0.996471 0.0839322 0
    outer loop
      vertex 1.085 1.909 0
      vertex 1.038 2.467 0
      vertex 1.038 2.467 3
    endloop
  endfacet
  facet normal 0.996471 0.0839322 0
    outer loop
      vertex 1.085 1.909 3
      vertex 1.085 1.909 0
      vertex 1.038 2.467 3
    endloop
  endfacet
  facet normal 0.34382 0.939036 0
    outer loop
      vertex 0.784 2.56 0
      vertex 0.784 2.56 3
      vertex 1.038 2.467 0
    endloop
  endfacet
  facet normal 0.34382 0.939036 0
    outer loop
      vertex 1.038 2.467 0
      vertex 0.784 2.56 3
      vertex 1.038 2.467 3
    endloop
  endfacet
  facet normal -0.700822 0.713336 0
    outer loop
      vertex 0.385 2.168 0
      vertex 0.385 2.168 3
      vertex 0.784 2.56 0
    endloop
  endfacet
  facet normal -0.700822 0.713336 0
    outer loop
      vertex 0.784 2.56 0
      vertex 0.385 2.168 3
      vertex 0.784 2.56 3
    endloop
  endfacet
  facet normal -0.918371 0.395721 0
    outer loop
      vertex 0.332 2.045 0
      vertex 0.332 2.045 3
      vertex 0.385 2.168 0
    endloop
  endfacet
  facet normal -0.918371 0.395721 0
    outer loop
      vertex 0.385 2.168 0
      vertex 0.332 2.045 3
      vertex 0.385 2.168 3
    endloop
  endfacet
  facet normal -0.986472 0.163933 0
    outer loop
      vertex 0.275 1.702 0
      vertex 0.275 1.702 3
      vertex 0.332 2.045 0
    endloop
  endfacet
  facet normal -0.986472 0.163933 0
    outer loop
      vertex 0.332 2.045 0
      vertex 0.275 1.702 3
      vertex 0.332 2.045 3
    endloop
  endfacet
  facet normal 0.00564963 0.999984 0
    outer loop
      vertex -0.256 1.705 0
      vertex -0.256 1.705 3
      vertex 0.275 1.702 0
    endloop
  endfacet
  facet normal 0.00564963 0.999984 0
    outer loop
      vertex 0.275 1.702 0
      vertex -0.256 1.705 3
      vertex 0.275 1.702 3
    endloop
  endfacet
  facet normal 0.988338 0.152273 0
    outer loop
      vertex -0.256 1.705 0
      vertex -0.309 2.049 0
      vertex -0.309 2.049 3
    endloop
  endfacet
  facet normal 0.988338 0.152273 0
    outer loop
      vertex -0.256 1.705 3
      vertex -0.256 1.705 0
      vertex -0.309 2.049 3
    endloop
  endfacet
  facet normal 0.921071 0.389396 0
    outer loop
      vertex -0.309 2.049 0
      vertex -0.361 2.172 0
      vertex -0.361 2.172 3
    endloop
  endfacet
  facet normal 0.921071 0.389396 0
    outer loop
      vertex -0.309 2.049 3
      vertex -0.309 2.049 0
      vertex -0.361 2.172 3
    endloop
  endfacet
  facet normal 0.708 0.706212 0
    outer loop
      vertex -0.361 2.172 0
      vertex -0.756 2.568 0
      vertex -0.756 2.568 3
    endloop
  endfacet
  facet normal 0.708 0.706212 0
    outer loop
      vertex -0.361 2.172 3
      vertex -0.361 2.172 0
      vertex -0.756 2.568 3
    endloop
  endfacet
  facet normal -0.337275 0.941406 0
    outer loop
      vertex -1.01 2.477 0
      vertex -1.01 2.477 3
      vertex -0.756 2.568 0
    endloop
  endfacet
  facet normal -0.337275 0.941406 0
    outer loop
      vertex -0.756 2.568 0
      vertex -1.01 2.477 3
      vertex -0.756 2.568 3
    endloop
  endfacet
  facet normal -0.995504 0.0947247 0
    outer loop
      vertex -1.063 1.92 0
      vertex -1.063 1.92 3
      vertex -1.01 2.477 0
    endloop
  endfacet
  facet normal -0.995504 0.0947247 0
    outer loop
      vertex -1.01 2.477 0
      vertex -1.063 1.92 3
      vertex -1.01 2.477 3
    endloop
  endfacet
  facet normal -0.958647 -0.284598 0
    outer loop
      vertex -1.063 1.92 0
      vertex -1.025 1.792 0
      vertex -1.063 1.92 3
    endloop
  endfacet
  facet normal -0.958647 -0.284598 0
    outer loop
      vertex -1.063 1.92 3
      vertex -1.025 1.792 0
      vertex -1.025 1.792 3
    endloop
  endfacet
  facet normal -0.860525 -0.509408 0
    outer loop
      vertex -1.025 1.792 0
      vertex -0.848 1.493 0
      vertex -1.025 1.792 3
    endloop
  endfacet
  facet normal -0.860525 -0.509408 0
    outer loop
      vertex -1.025 1.792 3
      vertex -0.848 1.493 0
      vertex -0.848 1.493 3
    endloop
  endfacet
  facet normal -0.639259 0.768991 0
    outer loop
      vertex -1.257 1.153 0
      vertex -1.257 1.153 3
      vertex -0.848 1.493 0
    endloop
  endfacet
  facet normal -0.639259 0.768991 0
    outer loop
      vertex -0.848 1.493 0
      vertex -1.257 1.153 3
      vertex -0.848 1.493 3
    endloop
  endfacet
  facet normal 0.658098 0.752933 0
    outer loop
      vertex -1.519 1.382 0
      vertex -1.519 1.382 3
      vertex -1.257 1.153 0
    endloop
  endfacet
  facet normal 0.658098 0.752933 0
    outer loop
      vertex -1.257 1.153 0
      vertex -1.519 1.382 3
      vertex -1.257 1.153 3
    endloop
  endfacet
  facet normal 0.459218 0.888324 0
    outer loop
      vertex -1.637 1.443 0
      vertex -1.637 1.443 3
      vertex -1.519 1.382 0
    endloop
  endfacet
  facet normal 0.459218 0.888324 0
    outer loop
      vertex -1.519 1.382 0
      vertex -1.637 1.443 3
      vertex -1.519 1.382 3
    endloop
  endfacet
  facet normal 0.0892482 0.996009 0
    outer loop
      vertex -2.195 1.493 0
      vertex -2.195 1.493 3
      vertex -1.637 1.443 0
    endloop
  endfacet
  facet normal 0.0892482 0.996009 0
    outer loop
      vertex -1.637 1.443 0
      vertex -2.195 1.493 3
      vertex -1.637 1.443 3
    endloop
  endfacet
  facet normal -0.864582 0.502492 0
    outer loop
      vertex -2.331 1.259 0
      vertex -2.331 1.259 3
      vertex -2.195 1.493 0
    endloop
  endfacet
  facet normal -0.864582 0.502492 0
    outer loop
      vertex -2.195 1.493 0
      vertex -2.331 1.259 3
      vertex -2.195 1.493 3
    endloop
  endfacet
  facet normal -0.823415 -0.56744 0
    outer loop
      vertex -2.331 1.259 0
      vertex -2.014 0.799 0
      vertex -2.331 1.259 3
    endloop
  endfacet
  facet normal -0.823415 -0.56744 0
    outer loop
      vertex -2.331 1.259 3
      vertex -2.014 0.799 0
      vertex -2.014 0.799 3
    endloop
  endfacet
  facet normal -0.551257 -0.834335 0
    outer loop
      vertex -2.014 0.799 3
      vertex -2.014 0.799 0
      vertex -1.902 0.725 0
    endloop
  endfacet
  facet normal -0.551257 -0.834335 0
    outer loop
      vertex -1.902 0.725 3
      vertex -2.014 0.799 3
      vertex -1.902 0.725 0
    endloop
  endfacet
  facet normal -0.330863 -0.943679 0
    outer loop
      vertex -1.902 0.725 3
      vertex -1.902 0.725 0
      vertex -1.574 0.61 0
    endloop
  endfacet
  facet normal -0.330863 -0.943679 0
    outer loop
      vertex -1.574 0.61 3
      vertex -1.902 0.725 3
      vertex -1.574 0.61 0
    endloop
  endfacet
  facet normal -0.9839 0.17872 0
    outer loop
      vertex -1.669 0.087 0
      vertex -1.669 0.087 3
      vertex -1.574 0.61 0
    endloop
  endfacet
  facet normal -0.9839 0.17872 0
    outer loop
      vertex -1.574 0.61 0
      vertex -1.669 0.087 3
      vertex -1.574 0.61 3
    endloop
  endfacet
  facet normal 0.0201109 0.999798 0
    outer loop
      vertex -2.017 0.094 0
      vertex -2.017 0.094 3
      vertex -1.669 0.087 0
    endloop
  endfacet
  facet normal 0.0201109 0.999798 0
    outer loop
      vertex -1.669 0.087 0
      vertex -2.017 0.094 3
      vertex -1.669 0.087 3
    endloop
  endfacet
  facet normal -0.22486 0.974391 0
    outer loop
      vertex -2.147 0.064 0
      vertex -2.147 0.064 3
      vertex -2.017 0.094 0
    endloop
  endfacet
  facet normal -0.22486 0.974391 0
    outer loop
      vertex -2.017 0.094 0
      vertex -2.147 0.064 3
      vertex -2.017 0.094 3
    endloop
  endfacet
  facet normal 0.987688 -0.156434 0
    outer loop
      vertex -1.14127 0.37082 0
      vertex -1.14127 0.37082 3
      vertex -1.2 0 3
    endloop
  endfacet
  facet normal 0.987688 -0.156434 0
    outer loop
      vertex -1.2 0 0
      vertex -1.14127 0.37082 0
      vertex -1.2 0 3
    endloop
  endfacet
  facet normal 0.987688 0.156434 0
    outer loop
      vertex -1.2 0 3
      vertex -1.14127 -0.37082 3
      vertex -1.14127 -0.37082 0
    endloop
  endfacet
  facet normal 0.987688 0.156434 0
    outer loop
      vertex -1.2 0 0
      vertex -1.2 0 3
      vertex -1.14127 -0.37082 0
    endloop
  endfacet
  facet normal 0.891006 -0.453992 0
    outer loop
      vertex -0.97082 0.705342 0
      vertex -0.97082 0.705342 3
      vertex -1.14127 0.37082 3
    endloop
  endfacet
  facet normal 0.891006 -0.453992 0
    outer loop
      vertex -1.14127 0.37082 0
      vertex -0.97082 0.705342 0
      vertex -1.14127 0.37082 3
    endloop
  endfacet
  facet normal 0.707107 -0.707107 0
    outer loop
      vertex -0.705342 0.97082 0
      vertex -0.705342 0.97082 3
      vertex -0.97082 0.705342 3
    endloop
  endfacet
  facet normal 0.707107 -0.707107 0
    outer loop
      vertex -0.97082 0.705342 0
      vertex -0.705342 0.97082 0
      vertex -0.97082 0.705342 3
    endloop
  endfacet
  facet normal 0.453992 -0.891006 0
    outer loop
      vertex -0.37082 1.14127 0
      vertex -0.37082 1.14127 3
      vertex -0.705342 0.97082 3
    endloop
  endfacet
  facet normal 0.453992 -0.891006 0
    outer loop
      vertex -0.705342 0.97082 0
      vertex -0.37082 1.14127 0
      vertex -0.705342 0.97082 3
    endloop
  endfacet
  facet normal 0.156434 -0.987688 0
    outer loop
      vertex 0 1.2 0
      vertex 0 1.2 3
      vertex -0.37082 1.14127 3
    endloop
  endfacet
  facet normal 0.156434 -0.987688 0
    outer loop
      vertex -0.37082 1.14127 0
      vertex 0 1.2 0
      vertex -0.37082 1.14127 3
    endloop
  endfacet
  facet normal -0.156434 -0.987688 0
    outer loop
      vertex 0.37082 1.14127 0
      vertex 0.37082 1.14127 3
      vertex 0 1.2 3
    endloop
  endfacet
  facet normal -0.156434 -0.987688 0
    outer loop
      vertex 0 1.2 0
      vertex 0.37082 1.14127 0
      vertex 0 1.2 3
    endloop
  endfacet
  facet normal -0.453992 -0.891006 0
    outer loop
      vertex 0.705342 0.97082 0
      vertex 0.705342 0.97082 3
      vertex 0.37082 1.14127 3
    endloop
  endfacet
  facet normal -0.453992 -0.891006 0
    outer loop
      vertex 0.37082 1.14127 0
      vertex 0.705342 0.97082 0
      vertex 0.37082 1.14127 3
    endloop
  endfacet
  facet normal -0.707107 -0.707107 0
    outer loop
      vertex 0.97082 0.705342 0
      vertex 0.97082 0.705342 3
      vertex 0.705342 0.97082 3
    endloop
  endfacet
  facet normal -0.707107 -0.707107 0
    outer loop
      vertex 0.705342 0.97082 0
      vertex 0.97082 0.705342 0
      vertex 0.705342 0.97082 3
    endloop
  endfacet
  facet normal -0.891006 -0.453992 0
    outer loop
      vertex 1.14127 0.37082 3
      vertex 0.97082 0.705342 3
      vertex 1.14127 0.37082 0
    endloop
  endfacet
  facet normal -0.891006 -0.453992 0
    outer loop
      vertex 1.14127 0.37082 0
      vertex 0.97082 0.705342 3
      vertex 0.97082 0.705342 0
    endloop
  endfacet
  facet normal -0.987688 -0.156434 0
    outer loop
      vertex 1.2 0 3
      vertex 1.14127 0.37082 3
      vertex 1.2 0 0
    endloop
  endfacet
  facet normal -0.987688 -0.156434 0
    outer loop
      vertex 1.2 0 0
      vertex 1.14127 0.37082 3
      vertex 1.14127 0.37082 0
    endloop
  endfacet
  facet normal -0.987688 0.156434 0
    outer loop
      vertex 1.2 0 3
      vertex 1.2 0 0
      vertex 1.14127 -0.37082 3
    endloop
  endfacet
  facet normal -0.987688 0.156434 0
    outer loop
      vertex 1.14127 -0.37082 3
      vertex 1.2 0 0
      vertex 1.14127 -0.37082 0
    endloop
  endfacet
  facet normal -0.891006 0.453992 0
    outer loop
      vertex 1.14127 -0.37082 3
      vertex 1.14127 -0.37082 0
      vertex 0.97082 -0.705342 3
    endloop
  endfacet
  facet normal -0.891006 0.453992 0
    outer loop
      vertex 0.97082 -0.705342 3
      vertex 1.14127 -0.37082 0
      vertex 0.97082 -0.705342 0
    endloop
  endfacet
  facet normal -0.707107 0.707107 0
    outer loop
      vertex 0.97082 -0.705342 3
      vertex 0.97082 -0.705342 0
      vertex 0.705342 -0.97082 3
    endloop
  endfacet
  facet normal -0.707107 0.707107 0
    outer loop
      vertex 0.705342 -0.97082 3
      vertex 0.97082 -0.705342 0
      vertex 0.705342 -0.97082 0
    endloop
  endfacet
  facet normal -0.453992 0.891006 0
    outer loop
      vertex 0.705342 -0.97082 3
      vertex 0.705342 -0.97082 0
      vertex 0.37082 -1.14127 3
    endloop
  endfacet
  facet normal -0.453992 0.891006 0
    outer loop
      vertex 0.37082 -1.14127 3
      vertex 0.705342 -0.97082 0
      vertex 0.37082 -1.14127 0
    endloop
  endfacet
  facet normal -0.156434 0.987688 0
    outer loop
      vertex 0.37082 -1.14127 3
      vertex 0.37082 -1.14127 0
      vertex 0 -1.2 3
    endloop
  endfacet
  facet normal -0.156434 0.987688 0
    outer loop
      vertex 0 -1.2 3
      vertex 0.37082 -1.14127 0
      vertex 0 -1.2 0
    endloop
  endfacet
  facet normal 0.156434 0.987688 0
    outer loop
      vertex 0 -1.2 3
      vertex 0 -1.2 0
      vertex -0.37082 -1.14127 3
    endloop
  endfacet
  facet normal 0.156434 0.987688 0
    outer loop
      vertex -0.37082 -1.14127 3
      vertex 0 -1.2 0
      vertex -0.37082 -1.14127 0
    endloop
  endfacet
  facet normal 0.453992 0.891006 0
    outer loop
      vertex -0.37082 -1.14127 3
      vertex -0.37082 -1.14127 0
      vertex -0.705342 -0.97082 3
    endloop
  endfacet
  facet normal 0.453992 0.891006 0
    outer loop
      vertex -0.705342 -0.97082 3
      vertex -0.37082 -1.14127 0
      vertex -0.705342 -0.97082 0
    endloop
  endfacet
  facet normal 0.707107 0.707107 0
    outer loop
      vertex -0.705342 -0.97082 3
      vertex -0.705342 -0.97082 0
      vertex -0.97082 -0.705342 3
    endloop
  endfacet
  facet normal 0.707107 0.707107 0
    outer loop
      vertex -0.97082 -0.705342 3
      vertex -0.705342 -0.97082 0
      vertex -0.97082 -0.705342 0
    endloop
  endfacet
  facet normal 0.891006 0.453992 0
    outer loop
      vertex -1.14127 -0.37082 3
      vertex -0.97082 -0.705342 3
      vertex -0.97082 -0.705342 0
    endloop
  endfacet
  facet normal 0.891006 0.453992 0
    outer loop
      vertex -1.14127 -0.37082 0
      vertex -1.14127 -0.37082 3
      vertex -0.97082 -0.705342 0
    endloop
  endfacet
endsolid OpenSCAD_Model
