<?xml version="1.0" encoding="UTF-8" standalone="no"?>
<!-- Created with Inkscape (http://www.inkscape.org/) -->

<svg
   xmlns:dc="http://purl.org/dc/elements/1.1/"
   xmlns:cc="http://creativecommons.org/ns#"
   xmlns:rdf="http://www.w3.org/1999/02/22-rdf-syntax-ns#"
   xmlns:svg="http://www.w3.org/2000/svg"
   xmlns="http://www.w3.org/2000/svg"
   xmlns:sodipodi="http://sodipodi.sourceforge.net/DTD/sodipodi-0.dtd"
   xmlns:inkscape="http://www.inkscape.org/namespaces/inkscape"
   width="210mm"
   height="297mm"
   viewBox="0 0 744.09448819 1052.3622047"
   id="svg2"
   version="1.1"
   inkscape:version="0.91 r"
   sodipodi:docname="brbrd-2contact-d1.1mm.svg">
  <defs
     id="defs4" />
  <sodipodi:namedview
     id="base"
     pagecolor="#ffffff"
     bordercolor="#666666"
     borderopacity="1.0"
     inkscape:pageopacity="0.0"
     inkscape:pageshadow="2"
     inkscape:zoom="1.5839192"
     inkscape:cx="197.40362"
     inkscape:cy="27.542427"
     inkscape:document-units="mm"
     inkscape:current-layer="layer1"
     showgrid="true"
     inkscape:window-width="1301"
     inkscape:window-height="744"
     inkscape:window-x="65"
     inkscape:window-y="24"
     inkscape:window-maximized="1"
     inkscape:snap-bbox="true"
     inkscape:bbox-nodes="true"
     inkscape:object-nodes="true"
     showguides="true"
     inkscape:guide-bbox="true"
     inkscape:snap-smooth-nodes="false"
     inkscape:snap-midpoints="false"
     inkscape:snap-global="true">
    <inkscape:grid
       type="xygrid"
       id="grid3336"
       units="mm"
       spacingx="1.7716536"
       spacingy="1.7716536"
       dotted="true"
       empspacing="10" />
    <inkscape:grid
       type="xygrid"
       id="grid5100"
       units="mm"
       spacingx="3.5433071"
       spacingy="3.5433072" />
  </sodipodi:namedview>
  <metadata
     id="metadata7">
    <rdf:RDF>
      <cc:Work
         rdf:about="">
        <dc:format>image/svg+xml</dc:format>
        <dc:type
           rdf:resource="http://purl.org/dc/dcmitype/StillImage" />
        <dc:title />
      </cc:Work>
    </rdf:RDF>
  </metadata>
  <g
     inkscape:label="Layer 1"
     inkscape:groupmode="layer"
     id="layer1">
    <path
       inkscape:connector-curvature="0"
       style="fill:#ff7f2a;fill-opacity:1;stroke:#000000;stroke-width:3.89763784;stroke-linejoin:round;stroke-miterlimit:4;stroke-dasharray:none;stroke-opacity:1"
       d="m 3.89804,1050.4134 a 1.9490138,1.9490138 0 0 1 -1.94922,-1.9511 l 0.008,-12.4317 c 0.002,-4.387 2.06523,-8.3466 5.3125,-11.0097 L 7.25762,919.13216 a 1.9490138,1.9490138 0 0 1 1.94921,-1.9492 l 14.187499,0 a 1.9490138,1.9490138 0 0 1 1.94922,1.9492 l 0.0117,105.83404 c 0.11133,0.09 0.22307,0.1797 0.33203,0.2734 l 15.23828,0 0,-38.76952 a 1.9490138,1.9490138 0 0 1 1.94922,-1.94922 l 42.531255,0 a 1.9490138,1.9490138 0 0 1 1.94922,1.94922 l 0,5.19331 12.20313,-0.057 a 1.9490138,1.9490138 0 0 1 1.958976,1.9493 l 0,7.08791 a 1.9490138,1.9490138 0 0 1 -1.931816,1.9491 l -12.23047,0.1133 0,4.8457 1.58203,0 a 1.9490138,1.9490138 0 0 1 1.94922,1.9492 l 0,12.375 a 1.9490138,1.9490138 0 0 1 -1.94922,1.9493 l -1.58203,0 0,21.082 a 1.9490138,1.9490138 0 0 1 -1.94922,1.9492 l -42.531255,0 a 1.9490138,1.9490138 0 0 1 -1.94922,-1.9492 l 0,-5.1133 -10.25976,0 -0.008,8.6719 a 1.9490138,1.9490138 0 0 1 -1.94922,1.9472 l -7.09375,0 a 1.9490138,1.9490138 0 0 1 -1.94922,-1.9511 l 0.01,-12.4317 c -0.002,-1.8735 -1.43954,-3.3326 -3.36132,-3.33 -1.92608,0 -3.3646,1.4657 -3.36524,3.332 l -0.008,12.4316 a 1.9490138,1.9490138 0 0 1 -1.94922,1.9473 l -7.093749,0 z"
       id="path3522-2-1" />
  </g>
</svg>
