<?xml version="1.0" encoding="UTF-8" standalone="no"?>
<!-- Created with Inkscape (http://www.inkscape.org/) -->

<svg
   xmlns:dc="http://purl.org/dc/elements/1.1/"
   xmlns:cc="http://creativecommons.org/ns#"
   xmlns:rdf="http://www.w3.org/1999/02/22-rdf-syntax-ns#"
   xmlns:svg="http://www.w3.org/2000/svg"
   xmlns="http://www.w3.org/2000/svg"
   xmlns:sodipodi="http://sodipodi.sourceforge.net/DTD/sodipodi-0.dtd"
   xmlns:inkscape="http://www.inkscape.org/namespaces/inkscape"
   width="210mm"
   height="297mm"
   viewBox="0 0 744.09448819 1052.3622047"
   id="svg2"
   version="1.1"
   inkscape:version="0.91 r"
   sodipodi:docname="brbrd-2contact-d0.6mm.svg">
  <defs
     id="defs4" />
  <sodipodi:namedview
     id="base"
     pagecolor="#ffffff"
     bordercolor="#666666"
     borderopacity="1.0"
     inkscape:pageopacity="0.0"
     inkscape:pageshadow="2"
     inkscape:zoom="1.5839192"
     inkscape:cx="197.40362"
     inkscape:cy="27.542427"
     inkscape:document-units="mm"
     inkscape:current-layer="layer1"
     showgrid="true"
     inkscape:window-width="1301"
     inkscape:window-height="744"
     inkscape:window-x="65"
     inkscape:window-y="24"
     inkscape:window-maximized="1"
     inkscape:snap-bbox="true"
     inkscape:bbox-nodes="true"
     inkscape:object-nodes="true"
     showguides="true"
     inkscape:guide-bbox="true"
     inkscape:snap-smooth-nodes="false"
     inkscape:snap-midpoints="false"
     inkscape:snap-global="true">
    <inkscape:grid
       type="xygrid"
       id="grid3336"
       units="mm"
       spacingx="1.7716536"
       spacingy="1.7716536"
       dotted="true"
       empspacing="10" />
    <inkscape:grid
       type="xygrid"
       id="grid5100"
       units="mm"
       spacingx="3.5433071"
       spacingy="3.5433072" />
  </sodipodi:namedview>
  <metadata
     id="metadata7">
    <rdf:RDF>
      <cc:Work
         rdf:about="">
        <dc:format>image/svg+xml</dc:format>
        <dc:type
           rdf:resource="http://purl.org/dc/dcmitype/StillImage" />
        <dc:title />
      </cc:Work>
    </rdf:RDF>
  </metadata>
  <g
     inkscape:label="Layer 1"
     inkscape:groupmode="layer"
     id="layer1">
    <path
       inkscape:connector-curvature="0"
       style="fill:#ff7f2a;fill-opacity:1;stroke:#000000;stroke-width:2.12598419;stroke-linejoin:round;stroke-miterlimit:4;stroke-dasharray:none;stroke-opacity:1"
       d="m 2.1254921,1051.2992 a 1.0630985,1.0630985 0 0 1 -1.0625,-1.0625 l 0.008,-12.4316 c 10e-4,-4.2731 2.06117,-8.1308 5.3125,-10.6231 l -0.0117,-106.27733 a 1.0630985,1.0630985 0 0 1 1.0625,-1.0625 l 14.1874999,0 a 1.0630985,1.0630985 0 0 1 1.0625,1.0625 l 0.0117,106.24613 c 0.31161,0.2362 0.61535,0.4838 0.90625,0.748 l 16.4375,0 0,-39.65623 a 1.0630985,1.0630985 0 0 1 1.0625,-1.0625 l 42.53125,0 a 1.0630985,1.0630985 0 0 1 1.0625,1.0625 l 0,6.08404 13.09375,-0.061 a 1.0630985,1.0630985 0 0 1 1.06836,1.0625 l 0,7.08779 a 1.0630985,1.0630985 0 0 1 -1.05273,1.0625 l -13.10938,0.1211 0,6.6114 2.46875,0 a 1.0630985,1.0630985 0 0 1 1.0625,1.0625 l 0,12.375 a 1.0630985,1.0630985 0 0 1 -1.0625,1.0625 l -2.46875,0 0,21.9687 a 1.0630985,1.0630985 0 0 1 -1.0625,1.0625 l -42.53125,0 a 1.0630985,1.0630985 0 0 1 -1.0625,-1.0625 l 0,-6 -12.03125,0 -0.01,9.5567 a 1.0630985,1.0630985 0 0 1 -1.0625,1.0625 l -7.09375,0 a 1.0630985,1.0630985 0 0 1 -1.0625,-1.0625 l 0.01,-12.4317 c -8e-4,-2.3496 -1.85326,-4.222 -4.24804,-4.2187 -2.39675,0 -4.25115,1.8764 -4.25196,4.2187 l -0.008,12.4317 a 1.0630985,1.0630985 0 0 1 -1.0624999,1.0625 l -7.09375,0 z"
       id="path3522-0-4-7" />
  </g>
</svg>
