<?xml version="1.0" encoding="UTF-8" standalone="no"?>
<!-- Created with Inkscape (http://www.inkscape.org/) -->

<svg
   xmlns:dc="http://purl.org/dc/elements/1.1/"
   xmlns:cc="http://creativecommons.org/ns#"
   xmlns:rdf="http://www.w3.org/1999/02/22-rdf-syntax-ns#"
   xmlns:svg="http://www.w3.org/2000/svg"
   xmlns="http://www.w3.org/2000/svg"
   xmlns:sodipodi="http://sodipodi.sourceforge.net/DTD/sodipodi-0.dtd"
   xmlns:inkscape="http://www.inkscape.org/namespaces/inkscape"
   width="210mm"
   height="297mm"
   viewBox="0 0 744.09448819 1052.3622047"
   id="svg2"
   version="1.1"
   inkscape:version="0.91 r"
   sodipodi:docname="brbrd-2contact-d1.1mm.svg">
  <defs
     id="defs4" />
  <sodipodi:namedview
     id="base"
     pagecolor="#ffffff"
     bordercolor="#666666"
     borderopacity="1.0"
     inkscape:pageopacity="0.0"
     inkscape:pageshadow="2"
     inkscape:zoom="1.5839192"
     inkscape:cx="197.40362"
     inkscape:cy="27.542427"
     inkscape:document-units="mm"
     inkscape:current-layer="layer1"
     showgrid="true"
     inkscape:window-width="1301"
     inkscape:window-height="744"
     inkscape:window-x="65"
     inkscape:window-y="24"
     inkscape:window-maximized="1"
     inkscape:snap-bbox="true"
     inkscape:bbox-nodes="true"
     inkscape:object-nodes="true"
     showguides="true"
     inkscape:guide-bbox="true"
     inkscape:snap-smooth-nodes="false"
     inkscape:snap-midpoints="false"
     inkscape:snap-global="true">
    <inkscape:grid
       type="xygrid"
       id="grid3336"
       units="mm"
       spacingx="1.7716536"
       spacingy="1.7716536"
       dotted="true"
       empspacing="10" />
    <inkscape:grid
       type="xygrid"
       id="grid5100"
       units="mm"
       spacingx="3.5433071"
       spacingy="3.5433072" />
  </sodipodi:namedview>
  <metadata
     id="metadata7">
    <rdf:RDF>
      <cc:Work
         rdf:about="">
        <dc:format>image/svg+xml</dc:format>
        <dc:type
           rdf:resource="http://purl.org/dc/dcmitype/StillImage" />
        <dc:title />
      </cc:Work>
    </rdf:RDF>
  </metadata>
  <g
     inkscape:label="Layer 1"
     inkscape:groupmode="layer"
     id="layer1">
    <path
       style="fill:#ff7f2a;fill-opacity:1;stroke:none;stroke-width:3.89763784;stroke-linejoin:round;stroke-miterlimit:4;stroke-dasharray:none;stroke-opacity:1"
       d="m 1.9492012,1052.3622 c -1.07729996,10e-5 -1.95039996,-0.8739 -1.9491999645094,-1.9512 L 0.01000124,1037.9813 c 0,-4.3871 2.06519996,-8.3466 5.31249996,-11.0098 l 0,-11.9882 -0.012,-93.90043 c -10e-5,-1.0766 0.8727,-1.9493 1.9492,-1.9492 l 14.1874998,0 c 1.0766,-1e-4 1.9494,0.8726 1.9492,1.9492 l 0.012,102.74413 0,3.0899 c 0.1114,0.09 0.2231,0.1797 0.3321,0.2734 l 15.2383,0 0,-1.4141 0,-37.35545 c -2e-4,-1.07657 0.8726,-1.94933 1.9492,-1.94922 l 42.5312,0 c 1.0766,-1.1e-4 1.9494,0.87265 1.9492,1.94922 l 0,21.08205 5.315,0 c 1.0766,-10e-5 1.9493,0.8726 1.9492,1.9492 l 0,12.375 c 1e-4,1.0766 -0.8726,1.9493 -1.9492,1.9492 l -5.315,0 0,21.082 c 2e-4,1.0766 -0.8726,1.9494 -1.9492,1.9493 l -42.5312,0 c -1.0766,1e-4 -1.9494,-0.8727 -1.9492,-1.9493 l 0,-5.1132 -10.2598,0 -0.01,8.6699 c -0.001,1.0758 -0.8734,1.9474 -1.9492,1.9473 l -7.0938,0 c -1.0773,10e-5 -1.9504,-0.8739 -1.9492,-1.9512 l 0.01,-12.4297 c 0,-1.8736 -1.4396,-3.3327 -3.3613,-3.3301 -1.9261,0 -3.3646,1.4658 -3.3653,3.332 l 0,0 -0.01,12.4297 c -9e-4,1.0758 -0.8734,1.9474 -1.9491998,1.9473 l -7.0937,0 z"
       id="path4197-9-3-2"
       inkscape:connector-curvature="0"
       sodipodi:nodetypes="cccccccccccccccccccccccccccccccccccccccccc" />
  </g>
</svg>
