<?xml version="1.0" encoding="UTF-8" standalone="no"?>
<!-- Created with Inkscape (http://www.inkscape.org/) -->

<svg
   xmlns:dc="http://purl.org/dc/elements/1.1/"
   xmlns:cc="http://creativecommons.org/ns#"
   xmlns:rdf="http://www.w3.org/1999/02/22-rdf-syntax-ns#"
   xmlns:svg="http://www.w3.org/2000/svg"
   xmlns="http://www.w3.org/2000/svg"
   xmlns:sodipodi="http://sodipodi.sourceforge.net/DTD/sodipodi-0.dtd"
   xmlns:inkscape="http://www.inkscape.org/namespaces/inkscape"
   width="210mm"
   height="297mm"
   viewBox="0 0 744.09448819 1052.3622047"
   id="svg2"
   version="1.1"
   inkscape:version="0.91 r"
   sodipodi:docname="brbrd-2contact-d2mm.svg">
  <defs
     id="defs4" />
  <sodipodi:namedview
     id="base"
     pagecolor="#ffffff"
     bordercolor="#666666"
     borderopacity="1.0"
     inkscape:pageopacity="0.0"
     inkscape:pageshadow="2"
     inkscape:zoom="1.5839192"
     inkscape:cx="197.40362"
     inkscape:cy="27.542427"
     inkscape:document-units="mm"
     inkscape:current-layer="layer1"
     showgrid="true"
     inkscape:window-width="1301"
     inkscape:window-height="744"
     inkscape:window-x="65"
     inkscape:window-y="24"
     inkscape:window-maximized="1"
     inkscape:snap-bbox="true"
     inkscape:bbox-nodes="true"
     inkscape:object-nodes="true"
     showguides="true"
     inkscape:guide-bbox="true"
     inkscape:snap-smooth-nodes="false"
     inkscape:snap-midpoints="false"
     inkscape:snap-global="true">
    <inkscape:grid
       type="xygrid"
       id="grid3336"
       units="mm"
       spacingx="1.7716536"
       spacingy="1.7716536"
       dotted="true"
       empspacing="10" />
    <inkscape:grid
       type="xygrid"
       id="grid5100"
       units="mm"
       spacingx="3.5433071"
       spacingy="3.5433072" />
  </sodipodi:namedview>
  <metadata
     id="metadata7">
    <rdf:RDF>
      <cc:Work
         rdf:about="">
        <dc:format>image/svg+xml</dc:format>
        <dc:type
           rdf:resource="http://purl.org/dc/dcmitype/StillImage" />
        <dc:title />
      </cc:Work>
    </rdf:RDF>
  </metadata>
  <g
     inkscape:label="Layer 1"
     inkscape:groupmode="layer"
     id="layer1">
    <path
       style="fill:#ff7f2a;fill-opacity:1;stroke:none;stroke-width:7.08661413;stroke-linejoin:round;stroke-miterlimit:4;stroke-dasharray:none;stroke-opacity:1"
       d="m 3.5429602,1052.3619 c -1.95733,-4e-4 -3.54365996842,-1.5876 -3.5429599684223,-3.545 L 0.00800023,1036.3873 c 0.002,-4.5945 2.06009997,-8.7586 5.31249997,-11.709 l 0,-11.2891 -0.0117,-93.90041 c 3.8e-4,-1.9566 1.5864,-3.5426 3.54297,-3.543 l 14.1874998,0 c 1.95657,4e-4 3.54259,1.5864 3.54297,3.543 l 0.0117,102.74421 c -0.57983,2.6519 12.69261,2.8647 12.38282,0.027 l 0,-35.43321 c 3.8e-4,-1.95657 1.5864,-3.54259 3.54297,-3.54297 l 42.53125,0 c 1.95657,3.9e-4 3.54258,1.5864 3.54296,3.54297 l 0,19.48831 7.07574,0 0,19.4882 -7.07574,-0.027 0,19.4882 c -3.8e-4,1.9566 -1.58639,3.5426 -3.54296,3.543 l -42.53125,0 c -1.95657,-4e-4 -3.54259,-1.5864 -3.54297,-3.543 l 0,-3.5195 -7.07227,0 -0.008,7.0781 c -0.003,1.9551 -1.58793,3.5387 -3.54297,3.5391 l -7.09375,0 c -1.95733,-4e-4 -3.54367,-1.5876 -3.54297,-3.5449 l 0.01,-12.4258 c -3.5e-4,-1.0193 -0.69332,-1.7417 -1.76563,-1.7402 -1.07887,0 -1.77309,0.731 -1.77343,1.7402 l -0.008,12.4297 c -0.001,1.9558 -1.58716,3.5406 -3.54297,3.541 l -7.0937498,0 z"
       id="path4197-0-2"
       inkscape:connector-curvature="0"
       sodipodi:nodetypes="cccccccccccccccccccccccccccccccccccc" />
  </g>
</svg>
