<?xml version="1.0" encoding="UTF-8" standalone="no"?>
<!-- Created with Inkscape (http://www.inkscape.org/) -->

<svg
   xmlns:dc="http://purl.org/dc/elements/1.1/"
   xmlns:cc="http://creativecommons.org/ns#"
   xmlns:rdf="http://www.w3.org/1999/02/22-rdf-syntax-ns#"
   xmlns:svg="http://www.w3.org/2000/svg"
   xmlns="http://www.w3.org/2000/svg"
   xmlns:sodipodi="http://sodipodi.sourceforge.net/DTD/sodipodi-0.dtd"
   xmlns:inkscape="http://www.inkscape.org/namespaces/inkscape"
   width="210mm"
   height="297mm"
   viewBox="0 0 744.09448819 1052.3622047"
   id="svg2"
   version="1.1"
   inkscape:version="0.91 r"
   sodipodi:docname="brbrd-2contact-d1.08mm.svg">
  <defs
     id="defs4" />
  <sodipodi:namedview
     id="base"
     pagecolor="#ffffff"
     bordercolor="#666666"
     borderopacity="1.0"
     inkscape:pageopacity="0.0"
     inkscape:pageshadow="2"
     inkscape:zoom="1.5839192"
     inkscape:cx="197.40362"
     inkscape:cy="27.542427"
     inkscape:document-units="mm"
     inkscape:current-layer="layer1"
     showgrid="true"
     inkscape:window-width="1301"
     inkscape:window-height="744"
     inkscape:window-x="65"
     inkscape:window-y="24"
     inkscape:window-maximized="1"
     inkscape:snap-bbox="true"
     inkscape:bbox-nodes="true"
     inkscape:object-nodes="true"
     showguides="true"
     inkscape:guide-bbox="true"
     inkscape:snap-smooth-nodes="false"
     inkscape:snap-midpoints="false"
     inkscape:snap-global="true">
    <inkscape:grid
       type="xygrid"
       id="grid3336"
       units="mm"
       spacingx="1.7716536"
       spacingy="1.7716536"
       dotted="true"
       empspacing="10" />
    <inkscape:grid
       type="xygrid"
       id="grid5100"
       units="mm"
       spacingx="3.5433071"
       spacingy="3.5433072" />
  </sodipodi:namedview>
  <metadata
     id="metadata7">
    <rdf:RDF>
      <cc:Work
         rdf:about="">
        <dc:format>image/svg+xml</dc:format>
        <dc:type
           rdf:resource="http://purl.org/dc/dcmitype/StillImage" />
        <dc:title />
      </cc:Work>
    </rdf:RDF>
  </metadata>
  <g
     inkscape:label="Layer 1"
     inkscape:groupmode="layer"
     id="layer1">
    <path
       style="fill:#ff7f2a;fill-opacity:1;stroke:#000000;stroke-width:3.82677174;stroke-linejoin:round;stroke-miterlimit:4;stroke-dasharray:none;stroke-opacity:1"
       d="m 3.8274874,1050.4488 a 1.9135772,1.9135772 0 0 1 -1.9141,-1.916 l 0.01,-12.4317 c 0,-4.3824 2.0652,-8.3376 5.3125,-10.9941 l -0.012,-105.90431 a 1.9135772,1.9135772 0 0 1 1.9141,-1.914 l 14.1874996,0 a 1.9135772,1.9135772 0 0 1 1.914,1.914 l 0.012,105.84961 c 0.119,0.096 0.2373,0.1928 0.3535,0.293 l 15.2871,0 0,-38.80468 a 1.9135772,1.9135772 0 0 1 1.9141,-1.914 l 42.5313,0 a 1.9135772,1.9135772 0 0 1 1.914,1.914 l 0,5.2285 12.2383,-0.057 a 1.9135772,1.9135772 0 0 1 1.923803,1.9141 l 0,7.08788 a 1.9135772,1.9135772 0 0 1 -1.896603,1.914 l -12.2657,0.1133 0,4.916 1.6172,0 a 1.9135772,1.9135772 0 0 1 1.9141,1.914 l 0,12.375 a 1.9135772,1.9135772 0 0 1 -1.9141,1.9141 l -1.6172,0 0,21.1172 a 1.9135772,1.9135772 0 0 1 -1.914,1.914 l -42.5313,0 a 1.9135772,1.9135772 0 0 1 -1.914,-1.914 l 0,-5.1485 -10.3301,0 -0.01,8.7071 a 1.9135772,1.9135772 0 0 1 -1.9141,1.9121 l -7.0937,0 a 1.9135772,1.9135772 0 0 1 -1.9141,-1.916 l 0.01,-12.4317 c 0,-1.8925 -1.4558,-3.3678 -3.3965,-3.3652 -1.9449,0 -3.3997,1.4819 -3.4004,3.3672 l -0.01,12.4316 a 1.9135772,1.9135772 0 0 1 -1.914,1.9121 l -7.0937996,0 z"
       id="path3522-0-6-0"
       inkscape:connector-curvature="0" />
  </g>
</svg>
