<?xml version="1.0" encoding="UTF-8" standalone="no"?>
<!-- Created with Inkscape (http://www.inkscape.org/) -->

<svg
   xmlns:dc="http://purl.org/dc/elements/1.1/"
   xmlns:cc="http://creativecommons.org/ns#"
   xmlns:rdf="http://www.w3.org/1999/02/22-rdf-syntax-ns#"
   xmlns:svg="http://www.w3.org/2000/svg"
   xmlns="http://www.w3.org/2000/svg"
   xmlns:sodipodi="http://sodipodi.sourceforge.net/DTD/sodipodi-0.dtd"
   xmlns:inkscape="http://www.inkscape.org/namespaces/inkscape"
   width="210mm"
   height="297mm"
   viewBox="0 0 744.09448819 1052.3622047"
   id="svg2"
   version="1.1"
   inkscape:version="0.91 r"
   sodipodi:docname="brbrd-2contact-d2mm.svg">
  <defs
     id="defs4" />
  <sodipodi:namedview
     id="base"
     pagecolor="#ffffff"
     bordercolor="#666666"
     borderopacity="1.0"
     inkscape:pageopacity="0.0"
     inkscape:pageshadow="2"
     inkscape:zoom="1.5839192"
     inkscape:cx="197.40362"
     inkscape:cy="27.542427"
     inkscape:document-units="mm"
     inkscape:current-layer="layer1"
     showgrid="true"
     inkscape:window-width="1301"
     inkscape:window-height="744"
     inkscape:window-x="65"
     inkscape:window-y="24"
     inkscape:window-maximized="1"
     inkscape:snap-bbox="true"
     inkscape:bbox-nodes="true"
     inkscape:object-nodes="true"
     showguides="true"
     inkscape:guide-bbox="true"
     inkscape:snap-smooth-nodes="false"
     inkscape:snap-midpoints="false"
     inkscape:snap-global="true">
    <inkscape:grid
       type="xygrid"
       id="grid3336"
       units="mm"
       spacingx="1.7716536"
       spacingy="1.7716536"
       dotted="true"
       empspacing="10" />
    <inkscape:grid
       type="xygrid"
       id="grid5100"
       units="mm"
       spacingx="3.5433071"
       spacingy="3.5433072" />
  </sodipodi:namedview>
  <metadata
     id="metadata7">
    <rdf:RDF>
      <cc:Work
         rdf:about="">
        <dc:format>image/svg+xml</dc:format>
        <dc:type
           rdf:resource="http://purl.org/dc/dcmitype/StillImage" />
        <dc:title />
      </cc:Work>
    </rdf:RDF>
  </metadata>
  <g
     inkscape:label="Layer 1"
     inkscape:groupmode="layer"
     id="layer1">
    <path
       inkscape:connector-curvature="0"
       style="fill:#ff7f2a;fill-opacity:1;stroke:#000000;stroke-width:7.08661413;stroke-linejoin:round;stroke-miterlimit:4;stroke-dasharray:none;stroke-opacity:1"
       d="m 7.0862773,1048.8189 a 3.5436614,3.5436614 0 0 1 -3.54297,-3.5449 l 0.01,-12.4297 c 0.002,-4.5944 2.06008,-8.7586 5.3125,-11.709 l -0.0117,-105.18944 a 3.5436614,3.5436614 0 0 1 3.5429697,-3.543 l 14.1875,0 a 3.5436614,3.5436614 0 0 1 3.54297,3.543 l 0.0117,104.51364 12.38281,0 0,-37.1757 a 3.5436614,3.5436614 0 0 1 3.54297,-3.543 l 42.531253,0 a 3.5436614,3.5436614 0 0 1 3.54297,3.543 l 0,19.4882 a 3.5436614,3.5436614 0 0 1 3.53125,3.543 l 0,12.375 a 3.5436614,3.5436614 0 0 1 -3.53125,3.543 l 0,19.4882 a 3.5436614,3.5436614 0 0 1 -3.54297,3.543 l -42.531253,0 a 3.5436614,3.5436614 0 0 1 -3.54297,-3.543 l 0,-3.5195 -7.07227,0 -0.008,7.0781 a 3.5436614,3.5436614 0 0 1 -3.54297,3.5391 l -7.09375,0 a 3.5436614,3.5436614 0 0 1 -3.54297,-3.5449 l 0.01,-12.4258 c -3.5e-4,-1.0193 -0.69325,-1.7417 -1.76563,-1.7402 -1.07878,10e-4 -1.77309,0.731 -1.77343,1.7402 l -0.01,12.4297 a 3.5436614,3.5436614 0 0 1 -3.54297,3.541 l -7.0937497,0 z"
       id="path4348-3-9" />
  </g>
</svg>
