<?xml version="1.0" encoding="UTF-8" standalone="no"?>
<!-- Created with Inkscape (http://www.inkscape.org/) -->

<svg
   xmlns:dc="http://purl.org/dc/elements/1.1/"
   xmlns:cc="http://creativecommons.org/ns#"
   xmlns:rdf="http://www.w3.org/1999/02/22-rdf-syntax-ns#"
   xmlns:svg="http://www.w3.org/2000/svg"
   xmlns="http://www.w3.org/2000/svg"
   xmlns:sodipodi="http://sodipodi.sourceforge.net/DTD/sodipodi-0.dtd"
   xmlns:inkscape="http://www.inkscape.org/namespaces/inkscape"
   width="210mm"
   height="297mm"
   viewBox="0 0 744.09448819 1052.3622047"
   id="svg2"
   version="1.1"
   inkscape:version="0.91 r"
   sodipodi:docname="brbrd-2contact-d1mm.svg">
  <defs
     id="defs4" />
  <sodipodi:namedview
     id="base"
     pagecolor="#ffffff"
     bordercolor="#666666"
     borderopacity="1.0"
     inkscape:pageopacity="0.0"
     inkscape:pageshadow="2"
     inkscape:zoom="1.5839192"
     inkscape:cx="197.40362"
     inkscape:cy="27.542427"
     inkscape:document-units="mm"
     inkscape:current-layer="layer1"
     showgrid="true"
     inkscape:window-width="1301"
     inkscape:window-height="744"
     inkscape:window-x="65"
     inkscape:window-y="24"
     inkscape:window-maximized="1"
     inkscape:snap-bbox="true"
     inkscape:bbox-nodes="true"
     inkscape:object-nodes="true"
     showguides="true"
     inkscape:guide-bbox="true"
     inkscape:snap-smooth-nodes="false"
     inkscape:snap-midpoints="false"
     inkscape:snap-global="true">
    <inkscape:grid
       type="xygrid"
       id="grid3336"
       units="mm"
       spacingx="1.7716536"
       spacingy="1.7716536"
       dotted="true"
       empspacing="10" />
    <inkscape:grid
       type="xygrid"
       id="grid5100"
       units="mm"
       spacingx="3.5433071"
       spacingy="3.5433072" />
  </sodipodi:namedview>
  <metadata
     id="metadata7">
    <rdf:RDF>
      <cc:Work
         rdf:about="">
        <dc:format>image/svg+xml</dc:format>
        <dc:type
           rdf:resource="http://purl.org/dc/dcmitype/StillImage" />
        <dc:title />
      </cc:Work>
    </rdf:RDF>
  </metadata>
  <g
     inkscape:label="Layer 1"
     inkscape:groupmode="layer"
     id="layer1">
    <path
       inkscape:connector-curvature="0"
       style="fill:#ff7f2a;fill-opacity:1;stroke:#000000;stroke-width:3.54330707;stroke-linejoin:round;stroke-miterlimit:4;stroke-dasharray:none;stroke-opacity:1"
       d="m 3.5431342,1050.5906 a 1.7718307,1.7718307 0 0 1 -1.77148,-1.7734 l 0.008,-12.4317 c 0.002,-4.3642 2.06473,-8.302 5.3125,-10.9316 l -0.0117,-105.96687 a 1.7718307,1.7718307 0 0 1 1.77148,-1.7715 l 14.1874988,0 a 1.7718307,1.7718307 0 0 1 1.77149,1.7715 l 0.0117,105.91807 c 0.15046,0.1201 0.30122,0.2402 0.44726,0.3671 l 15.47852,0 0,-38.94725 a 1.7718307,1.7718307 0 0 1 1.77148,-1.7715 l 42.531251,0 a 1.7718307,1.7718307 0 0 1 1.77149,1.7715 l 0,5.373 12.38281,-0.059 a 1.7718307,1.7718307 0 0 1 1.779296,1.7715 l 0,7.08795 a 1.7718307,1.7718307 0 0 1 -1.755856,1.7715 l -12.40625,0.1152 0,5.1993 1.75976,0 a 1.7718307,1.7718307 0 0 1 1.77149,1.7714 l 0,12.375 a 1.7718307,1.7718307 0 0 1 -1.77149,1.7715 l -1.75976,0 0,21.2598 a 1.7718307,1.7718307 0 0 1 -1.77149,1.7715 l -42.531251,0 a 1.7718307,1.7718307 0 0 1 -1.77148,-1.7715 l 0,-5.291 -10.61524,0 -0.008,8.8496 a 1.7718307,1.7718307 0 0 1 -1.77148,1.7695 l -7.09375,0 a 1.7718307,1.7718307 0 0 1 -1.77149,-1.7734 l 0.01,-12.4317 c -0.002,-1.9686 -1.52282,-3.5105 -3.53906,-3.5078 -2.02021,0 -3.5423,1.5483 -3.54297,3.5098 l -0.008,12.4316 a 1.7718307,1.7718307 0 0 1 -1.77148,1.7696 l -7.0937488,0 z"
       id="path3522-0-7" />
  </g>
</svg>
