<?xml version="1.0" encoding="UTF-8" standalone="no"?>
<!-- Created with Inkscape (http://www.inkscape.org/) -->

<svg
   xmlns:dc="http://purl.org/dc/elements/1.1/"
   xmlns:cc="http://creativecommons.org/ns#"
   xmlns:rdf="http://www.w3.org/1999/02/22-rdf-syntax-ns#"
   xmlns:svg="http://www.w3.org/2000/svg"
   xmlns="http://www.w3.org/2000/svg"
   xmlns:sodipodi="http://sodipodi.sourceforge.net/DTD/sodipodi-0.dtd"
   xmlns:inkscape="http://www.inkscape.org/namespaces/inkscape"
   width="210mm"
   height="297mm"
   viewBox="0 0 744.09448819 1052.3622047"
   id="svg2"
   version="1.1"
   inkscape:version="0.91 r"
   sodipodi:docname="wire-plate1-d2mm.svg">
  <sodipodi:namedview
     id="base"
     pagecolor="#ffffff"
     bordercolor="#666666"
     borderopacity="1.0"
     inkscape:pageopacity="0.0"
     inkscape:pageshadow="2"
     inkscape:zoom="6.335677"
     inkscape:cx="63.421999"
     inkscape:cy="6.5363267"
     inkscape:document-units="mm"
     inkscape:current-layer="layer1"
     showgrid="true"
     inkscape:window-width="1301"
     inkscape:window-height="744"
     inkscape:window-x="65"
     inkscape:window-y="24"
     inkscape:window-maximized="1"
     inkscape:snap-bbox="true"
     inkscape:bbox-nodes="true"
     inkscape:object-nodes="true"
     showguides="true"
     inkscape:guide-bbox="true"
     inkscape:snap-smooth-nodes="false"
     inkscape:snap-midpoints="false"
     inkscape:snap-global="true">
    <inkscape:grid
       empspacing="10"
       dotted="true"
       spacingy="1.7716536"
       spacingx="1.7716536"
       units="mm"
       id="grid3336"
       type="xygrid" />
    <inkscape:grid
       spacingy="3.5433072"
       spacingx="3.5433071"
       units="mm"
       id="grid5100"
       type="xygrid" />
    <sodipodi:guide
       id="guide4201"
       orientation="1052.3622,0"
       position="372.0472,0" />
    <sodipodi:guide
       id="guide4203"
       orientation="0,744.0945"
       position="0,350.7874" />
    <sodipodi:guide
       id="guide4205"
       orientation="0,744.0945"
       position="0,701.5748" />
  </sodipodi:namedview>
  <defs
     id="defs4" />
  <metadata
     id="metadata7">
    <rdf:RDF>
      <cc:Work
         rdf:about="">
        <dc:format>image/svg+xml</dc:format>
        <dc:type
           rdf:resource="http://purl.org/dc/dcmitype/StillImage" />
        <dc:title />
      </cc:Work>
    </rdf:RDF>
  </metadata>
  <g
     id="layer1"
     inkscape:groupmode="layer"
     inkscape:label="Layer 1">
    <path
       inkscape:connector-curvature="0"
       style="fill:#ffcc00;fill-opacity:1;stroke:none;stroke-width:7.08661413;stroke-linejoin:round;stroke-miterlimit:4;stroke-dasharray:none;stroke-opacity:1"
       d="m 15.94336,1013.3876 -12.40039,0 C 1.5864,1013.388 3.8e-4,1014.974 0,1016.9306 l 0,31.8886 c 3.9e-4,1.9566 1.5864,3.5427 3.54297,3.543 l 35.43359,0 c 1.95657,-3e-4 3.54258,-1.5864 3.54297,-3.543 l 0,-31.8886 c -3.8e-4,-1.9566 -1.5864,-3.5426 -3.54297,-3.543 l -12.40234,0 c -1.95657,4e-4 -3.54259,1.5864 -3.54297,3.543 l -3.54492,0 c -3.8e-4,-1.9566 -1.5864,-3.5426 -3.54297,-3.543 z m 5.3164,19.4903 a 1.7716535,1.7716535 0 0 1 1.77149,1.7715 1.7716535,1.7716535 0 0 1 -1.77149,1.7715 1.7716535,1.7716535 0 0 1 -1.77148,-1.7715 1.7716535,1.7716535 0 0 1 1.77148,-1.7715 z"
       id="path4277-2-7-0" />
  </g>
</svg>
