<?xml version="1.0" encoding="UTF-8" standalone="no"?>
<!-- Created with Inkscape (http://www.inkscape.org/) -->

<svg
   xmlns:dc="http://purl.org/dc/elements/1.1/"
   xmlns:cc="http://creativecommons.org/ns#"
   xmlns:rdf="http://www.w3.org/1999/02/22-rdf-syntax-ns#"
   xmlns:svg="http://www.w3.org/2000/svg"
   xmlns="http://www.w3.org/2000/svg"
   xmlns:sodipodi="http://sodipodi.sourceforge.net/DTD/sodipodi-0.dtd"
   xmlns:inkscape="http://www.inkscape.org/namespaces/inkscape"
   width="210mm"
   height="297mm"
   viewBox="0 0 744.09448819 1052.3622047"
   id="svg2"
   version="1.1"
   inkscape:version="0.91 r"
   sodipodi:docname="wire-plate1-d0.6mm.svg">
  <sodipodi:namedview
     id="base"
     pagecolor="#ffffff"
     bordercolor="#666666"
     borderopacity="1.0"
     inkscape:pageopacity="0.0"
     inkscape:pageshadow="2"
     inkscape:zoom="4.4800002"
     inkscape:cx="60.599064"
     inkscape:cy="-3.7664498"
     inkscape:document-units="mm"
     inkscape:current-layer="layer1"
     showgrid="true"
     inkscape:window-width="1301"
     inkscape:window-height="744"
     inkscape:window-x="65"
     inkscape:window-y="24"
     inkscape:window-maximized="1"
     inkscape:snap-bbox="true"
     inkscape:bbox-nodes="true"
     inkscape:object-nodes="true"
     showguides="true"
     inkscape:guide-bbox="true"
     inkscape:snap-smooth-nodes="false"
     inkscape:snap-midpoints="false"
     inkscape:snap-global="true">
    <inkscape:grid
       empspacing="10"
       dotted="true"
       spacingy="1.7716536"
       spacingx="1.7716536"
       units="mm"
       id="grid3336"
       type="xygrid" />
    <inkscape:grid
       spacingy="3.5433072"
       spacingx="3.5433071"
       units="mm"
       id="grid5100"
       type="xygrid" />
    <sodipodi:guide
       id="guide4201"
       orientation="1052.3622,0"
       position="372.0472,0" />
    <sodipodi:guide
       id="guide4203"
       orientation="0,744.0945"
       position="0,350.7874" />
    <sodipodi:guide
       id="guide4205"
       orientation="0,744.0945"
       position="0,701.5748" />
  </sodipodi:namedview>
  <defs
     id="defs4" />
  <metadata
     id="metadata7">
    <rdf:RDF>
      <cc:Work
         rdf:about="">
        <dc:format>image/svg+xml</dc:format>
        <dc:type
           rdf:resource="http://purl.org/dc/dcmitype/StillImage" />
        <dc:title />
      </cc:Work>
    </rdf:RDF>
  </metadata>
  <g
     id="layer1"
     inkscape:groupmode="layer"
     inkscape:label="Layer 1">
    <path
       inkscape:connector-curvature="0"
       style="fill:#ffcc00;fill-opacity:1;stroke:#000000;stroke-width:2.12598419;stroke-miterlimit:4;stroke-dasharray:none;stroke-opacity:1"
       d="m 14.525892,1017.2837 -12.4003999,0 a 1.0630985,1.0630985 0 0 0 -1.0625,1.0625 l 0,31.8906 a 1.0630985,1.0630985 0 0 0 1.0625,1.0624 l 35.4335999,0 a 1.0630985,1.0630985 0 0 0 1.0625,-1.0624 l 0,-31.8906 a 1.0630985,1.0630985 0 0 0 -1.0625,-1.0625 l -12.4023,0 a 1.0630985,1.0630985 0 0 0 -1.0625,1.0625 l 0,2.4805 -8.5059,0 0,-2.4805 a 1.0630985,1.0630985 0 0 0 -1.0625,-1.0625 z"
       id="path4723-4-5" />
    <path
       inkscape:connector-curvature="0"
       style="opacity:1;fill:#ff6600;fill-opacity:1;stroke:#000000;stroke-width:2.12598419;stroke-linejoin:round;stroke-miterlimit:4;stroke-dasharray:none;stroke-dashoffset:24.16535187;stroke-opacity:1"
       d="m 19.842292,1031.8111 c -1.1132,1e-4 -2.2188,0.4587 -3.0058,1.246 -0.7871,0.7874 -1.2464,1.8946 -1.2461,3.0079 10e-5,1.113 0.4591,2.2188 1.2461,3.0058 0.787,0.787 1.8928,1.246 3.0058,1.2461 1.1131,-10e-5 2.2189,-0.4591 3.0059,-1.2461 0.787,-0.787 1.246,-1.8928 1.2461,-3.0058 3e-4,-1.1133 -0.459,-2.2205 -1.2461,-3.0079 -0.7871,-0.7873 -1.8926,-1.2459 -3.0059,-1.246 z"
       id="path4725-4-9" />
  </g>
</svg>
