<?xml version="1.0" encoding="UTF-8" standalone="no"?>
<!-- Created with Inkscape (http://www.inkscape.org/) -->

<svg
   xmlns:dc="http://purl.org/dc/elements/1.1/"
   xmlns:cc="http://creativecommons.org/ns#"
   xmlns:rdf="http://www.w3.org/1999/02/22-rdf-syntax-ns#"
   xmlns:svg="http://www.w3.org/2000/svg"
   xmlns="http://www.w3.org/2000/svg"
   xmlns:sodipodi="http://sodipodi.sourceforge.net/DTD/sodipodi-0.dtd"
   xmlns:inkscape="http://www.inkscape.org/namespaces/inkscape"
   sodipodi:docname="коробка-набор-2мм.svg"
   inkscape:version="0.91 r13725"
   version="1.1"
   id="svg3764"
   viewBox="0 0 7086.614 3543.307"
   height="1000mm"
   width="2000mm">
  <sodipodi:namedview
     inkscape:snap-global="false"
     inkscape:object-nodes="true"
     inkscape:bbox-nodes="true"
     inkscape:snap-bbox-edge-midpoints="true"
     inkscape:bbox-paths="true"
     inkscape:snap-bbox="true"
     inkscape:guide-bbox="true"
     showguides="true"
     inkscape:window-maximized="1"
     inkscape:window-y="-8"
     inkscape:window-x="-8"
     inkscape:window-height="705"
     inkscape:window-width="1366"
     showgrid="false"
     inkscape:current-layer="layer1"
     inkscape:document-units="mm"
     inkscape:cy="1053.9869"
     inkscape:cx="721.99503"
     inkscape:zoom="0.28"
     inkscape:pageshadow="2"
     inkscape:pageopacity="0.0"
     borderopacity="1.0"
     bordercolor="#666666"
     pagecolor="#ffffff"
     id="base" />
  <defs
     id="defs3766" />
  <metadata
     id="metadata3769">
    <rdf:RDF>
      <cc:Work
         rdf:about="">
        <dc:format>image/svg+xml</dc:format>
        <dc:type
           rdf:resource="http://purl.org/dc/dcmitype/StillImage" />
        <dc:title />
      </cc:Work>
    </rdf:RDF>
  </metadata>
  <g
     transform="translate(0,2490.9447)"
     id="layer1"
     inkscape:groupmode="layer"
     inkscape:label="Layer 1">
    <g
       id="g4261"
       transform="matrix(1,0,0,-1,624.83071,1051.862)"
       inkscape:label="RobotBox">
      <path
         id="path4263"
         d="m 0,0 -356.10236,0 0,283.46457 356.10236,0 0,7.08661 -12.755906,0 -290.551184,0 -19.84252,0 -287.00787,0 0,145.27559 -14.17323,7.08662 0,131.10236 14.17323,7.08661 0,145.27559 -14.17323,7.08662 0,131.10236 14.17323,7.08661 0,145.27556 287.00787,0 19.84252,0 290.551184,0 12.755906,0 0,7.0866 -356.10236,0 0,283.4646 356.10236,0 14.173228,0 0,7.0866 -188.976378,88.8189 0,548.7402 188.976378,88.8189 0,14.1732 -21.2598422,0 c -141.7322858,0 -311.8110258,0 -248.0314958,124.0158 35.43307,70.8661 106.29921,159.4488 248.0314958,159.4488 l 1381.8897142,0 c 141.7323,0 212.5985,-88.5827 248.0315,-159.4488 63.7796,-124.0158 -106.2992,-124.0158 -248.0315,-124.0158 l -21.2598,0 0,-14.1732 188.9764,-88.8189 0,-548.7402 -188.9764,-88.8189 0,-7.0866 14.1732,0 356.1024,0 0,-283.4646 -356.1024,0 0,-7.0866 12.7559,0 290.5512,0 19.8425,0 287.0079,0 0,-145.27556 14.1732,-7.08661 0,-131.10236 -14.1732,-7.08662 0,-145.27559 14.1732,-7.08661 0,-131.10236 -14.1732,-7.08662 0,-145.27559 -287.0079,0 -19.8425,0 -290.5512,0 -12.7559,0 0,-7.08661 356.1024,0 0,-283.46457 -356.1024,0 z"
         style="fill:none;stroke:#000000"
         inkscape:connector-curvature="0" />
      <path
         id="path4265"
         d="m 3.5433071,435.82677 7.0866139,0 0,145.27559 -7.0866139,0 z"
         style="fill:none;stroke:#000000"
         inkscape:connector-curvature="0" />
      <path
         id="path4267"
         d="m 3.5433071,726.37795 7.0866139,0 0,145.27559 -7.0866139,0 z"
         style="fill:none;stroke:#000000"
         inkscape:connector-curvature="0" />
      <path
         id="path4269"
         d="m 1364.1732,871.65354 -7.0866,0 0,-145.27559 7.0866,0 z"
         style="fill:none;stroke:#000000"
         inkscape:connector-curvature="0" />
      <path
         id="path4271"
         d="m 1364.1732,581.10236 -7.0866,0 0,-145.27559 7.0866,0 z"
         style="fill:none;stroke:#000000"
         inkscape:connector-curvature="0" />
      <path
         id="path4273"
         d="M 0,0 0,283.46457"
         style="fill:none;stroke:#44aaff;stroke-dasharray:17.71653543, 17.71653543;stroke-dashoffset:17.71653557"
         inkscape:connector-curvature="0" />
      <path
         id="path4275"
         d="m -12.755906,290.55118 0,726.37792"
         style="fill:none;stroke:#44aaff;stroke-dasharray:17.71653543, 17.71653543;stroke-dashoffset:17.71653557"
         inkscape:connector-curvature="0" />
      <path
         id="path4277"
         d="m 0,1024.0157 0,283.4646"
         style="fill:none;stroke:#44aaff;stroke-dasharray:17.71653543, 17.71653543;stroke-dashoffset:17.71653557"
         inkscape:connector-curvature="0" />
      <path
         id="path4279"
         d="m 14.173228,1314.5669 0,726.378"
         style="fill:none;stroke:#44aaff;stroke-dasharray:17.71653543, 17.71653543;stroke-dashoffset:17.71653557"
         inkscape:connector-curvature="0" />
      <path
         id="path4281"
         d="m -7.0866142,2055.1181 0,283.4646"
         style="fill:none;stroke:#44aaff;stroke-dasharray:17.71653543, 17.71653543;stroke-dashoffset:17.71653557"
         inkscape:connector-curvature="0" />
      <path
         id="path4283"
         d="m -303.30709,290.55118 0,726.37792"
         style="fill:none;stroke:#44aaff;stroke-dasharray:17.71653543, 17.71653543;stroke-dashoffset:17.71653557"
         inkscape:connector-curvature="0" />
      <path
         id="path4285"
         d="m -323.14961,290.55118 0,726.37792"
         style="fill:none;stroke:#44aaff;stroke-dasharray:17.71653543, 17.71653543;stroke-dashoffset:17.71653557"
         inkscape:connector-curvature="0" />
      <path
         id="path4287"
         d="m 1367.7165,0 0,283.46457"
         style="fill:none;stroke:#44aaff;stroke-dasharray:17.71653543, 17.71653543;stroke-dashoffset:17.71653557"
         inkscape:connector-curvature="0" />
      <path
         id="path4289"
         d="m 1380.4724,290.55118 0,726.37792"
         style="fill:none;stroke:#44aaff;stroke-dasharray:17.71653543, 17.71653543;stroke-dashoffset:17.71653557"
         inkscape:connector-curvature="0" />
      <path
         id="path4291"
         d="m 1367.7165,1024.0157 0,283.4646"
         style="fill:none;stroke:#44aaff;stroke-dasharray:17.71653543, 17.71653543;stroke-dashoffset:17.71653557"
         inkscape:connector-curvature="0" />
      <path
         id="path4293"
         d="m 1353.5433,1314.5669 0,726.378"
         style="fill:none;stroke:#44aaff;stroke-dasharray:17.71653543, 17.71653543;stroke-dashoffset:17.71653557"
         inkscape:connector-curvature="0" />
      <path
         id="path4295"
         d="m 1374.8031,2055.1181 0,283.4646"
         style="fill:none;stroke:#44aaff;stroke-dasharray:17.71653543, 17.71653543;stroke-dashoffset:17.71653557"
         inkscape:connector-curvature="0" />
      <path
         id="path4297"
         d="m 1671.0236,290.55118 0,726.37792"
         style="fill:none;stroke:#44aaff;stroke-dasharray:17.71653543, 17.71653543;stroke-dashoffset:17.71653557"
         inkscape:connector-curvature="0" />
      <path
         id="path4299"
         d="m 1690.8661,290.55118 0,726.37792"
         style="fill:none;stroke:#44aaff;stroke-dasharray:17.71653543, 17.71653543;stroke-dashoffset:17.71653557"
         inkscape:connector-curvature="0" />
      <path
         id="path4301"
         d="m 0,287.00787 1367.7165,0"
         style="fill:none;stroke:#44aaff;stroke-dasharray:17.71653543, 17.71653543;stroke-dashoffset:17.71653557"
         inkscape:connector-curvature="0" />
      <path
         id="path4303"
         d="m 0,1020.4724 1367.7165,0"
         style="fill:none;stroke:#44aaff;stroke-dasharray:17.71653543, 17.71653543;stroke-dashoffset:17.71653557"
         inkscape:connector-curvature="0" />
      <path
         id="path4305"
         d="m 14.173228,1311.0236 1339.370072,0"
         style="fill:none;stroke:#44aaff;stroke-dasharray:17.71653543, 17.71653543;stroke-dashoffset:17.71653557"
         inkscape:connector-curvature="0" />
      <path
         id="path4307"
         d="m 14.173228,2051.5748 1339.370072,0"
         style="fill:none;stroke:#44aaff;stroke-dasharray:17.71653543, 17.71653543;stroke-dashoffset:17.71653557"
         inkscape:connector-curvature="0" />
    </g>
  </g>
</svg>
