<?xml version="1.0" encoding="UTF-8" standalone="no"?>
<!-- Created with Inkscape (http://www.inkscape.org/) -->

<svg
   xmlns:dc="http://purl.org/dc/elements/1.1/"
   xmlns:cc="http://creativecommons.org/ns#"
   xmlns:rdf="http://www.w3.org/1999/02/22-rdf-syntax-ns#"
   xmlns:svg="http://www.w3.org/2000/svg"
   xmlns="http://www.w3.org/2000/svg"
   xmlns:sodipodi="http://sodipodi.sourceforge.net/DTD/sodipodi-0.dtd"
   xmlns:inkscape="http://www.inkscape.org/namespaces/inkscape"
   sodipodi:docname="коробка-набор-2мм.svg"
   inkscape:version="0.91 r13725"
   version="1.1"
   id="svg3764"
   viewBox="0 0 7086.614 3543.307"
   height="1000mm"
   width="2000mm">
  <sodipodi:namedview
     inkscape:snap-global="false"
     inkscape:object-nodes="true"
     inkscape:bbox-nodes="true"
     inkscape:snap-bbox-edge-midpoints="true"
     inkscape:bbox-paths="true"
     inkscape:snap-bbox="true"
     inkscape:guide-bbox="true"
     showguides="true"
     inkscape:window-maximized="1"
     inkscape:window-y="-8"
     inkscape:window-x="-8"
     inkscape:window-height="705"
     inkscape:window-width="1366"
     showgrid="false"
     inkscape:current-layer="layer1"
     inkscape:document-units="mm"
     inkscape:cy="1254.222"
     inkscape:cx="2608.6545"
     inkscape:zoom="0.14"
     inkscape:pageshadow="2"
     inkscape:pageopacity="0.0"
     borderopacity="1.0"
     bordercolor="#666666"
     pagecolor="#ffffff"
     id="base" />
  <defs
     id="defs3766" />
  <metadata
     id="metadata3769">
    <rdf:RDF>
      <cc:Work
         rdf:about="">
        <dc:format>image/svg+xml</dc:format>
        <dc:type
           rdf:resource="http://purl.org/dc/dcmitype/StillImage" />
        <dc:title></dc:title>
      </cc:Work>
    </rdf:RDF>
  </metadata>
  <g
     inkscape:label="Layer 1"
     inkscape:groupmode="layer"
     id="layer1"
     transform="translate(0,2490.9447)">
    <g
       id="g4848"
       transform="matrix(1,0,0,-1,617.03543,1051.8624)"
       inkscape:label="RobotBox">
      <path
         id="path4850"
         d="m 0,0 -357.87402,0 0,269.29134 357.87402,0 0,14.17323 -14.173228,0 -283.464572,0 -28.34645,0 -276.37795,0 0,145.98425 -14.17323,7.08661 0,131.81103 14.17323,7.08661 0,145.98425 -14.17323,7.08662 0,131.81102 14.17323,7.08661 0,145.98423 276.37795,0 28.34645,0 283.464572,0 14.173228,0 0,14.1733 -357.87402,0 0,269.2913 372.047248,0 0,14.1732 -188.976378,88.8189 0,552.2835 188.976378,88.8189 0,21.2598 -21.2598422,0 c -134.6456658,0 -296.2204758,0 -235.6299258,117.815 33.66142,67.3228 100.98426,151.4764 235.6299258,151.4764 l 1388.9764142,0 c 134.6456,0 201.9685,-84.1536 235.6299,-151.4764 60.5905,-117.815 -100.9843,-117.815 -235.6299,-117.815 l -21.2599,0 0,-21.2598 188.9764,-88.8189 0,-552.2835 -188.9764,-88.8189 0,-14.1732 372.0473,0 0,-269.2913 -357.8741,0 0,-14.1733 14.1733,0 283.4645,0 28.3465,0 276.378,0 0,-145.98423 14.1732,-7.08661 0,-131.81102 -14.1732,-7.08662 0,-145.98425 14.1732,-7.08661 0,-131.81103 -14.1732,-7.08661 0,-145.98425 -276.378,0 -28.3465,0 -283.4645,0 -14.1733,0 0,-14.17323 357.8741,0 0,-269.29134 -357.8741,0 z"
         style="fill:none;stroke:#000000"
         inkscape:connector-curvature="0" />
      <path
         id="path4852"
         d="m 7.0866142,429.44882 7.0866138,0 0,145.98425 -7.0866138,0 z"
         style="fill:none;stroke:#000000"
         inkscape:connector-curvature="0" />
      <path
         id="path4854"
         d="m 7.0866142,721.41732 7.0866138,0 0,145.98425 -7.0866138,0 z"
         style="fill:none;stroke:#000000"
         inkscape:connector-curvature="0" />
      <path
         id="path4856"
         d="m 1367.7165,867.40157 -7.0866,0 0,-145.98425 7.0866,0 z"
         style="fill:none;stroke:#000000"
         inkscape:connector-curvature="0" />
      <path
         id="path4858"
         d="m 1367.7165,575.43307 -7.0866,0 0,-145.98425 7.0866,0 z"
         style="fill:none;stroke:#000000"
         inkscape:connector-curvature="0" />
      <path
         id="path4860"
         d="M 0,0 0,269.29134"
         style="fill:none;stroke:#44aaff;stroke-dasharray:17.71653543, 17.71653543;stroke-dashoffset:17.71653557"
         inkscape:connector-curvature="0" />
      <path
         id="path4862"
         d="m -14.173228,283.46457 0,729.92123"
         style="fill:none;stroke:#44aaff;stroke-dasharray:17.71653543, 17.71653543;stroke-dashoffset:17.71653557"
         inkscape:connector-curvature="0" />
      <path
         id="path4864"
         d="m 0,1027.5591 0,269.2913"
         style="fill:none;stroke:#44aaff;stroke-dasharray:17.71653543, 17.71653543;stroke-dashoffset:17.71653557"
         inkscape:connector-curvature="0" />
      <path
         id="path4866"
         d="m 14.173228,1311.0236 0,729.9213"
         style="fill:none;stroke:#44aaff;stroke-dasharray:17.71653543, 17.71653543;stroke-dashoffset:17.71653557"
         inkscape:connector-curvature="0" />
      <path
         id="path4868"
         d="m -7.0866142,2062.2047 0,269.2914"
         style="fill:none;stroke:#44aaff;stroke-dasharray:17.71653543, 17.71653543;stroke-dashoffset:17.71653557"
         inkscape:connector-curvature="0" />
      <path
         id="path4870"
         d="m -297.6378,283.46457 0,729.92123"
         style="fill:none;stroke:#44aaff;stroke-dasharray:17.71653543, 17.71653543;stroke-dashoffset:17.71653557"
         inkscape:connector-curvature="0" />
      <path
         id="path4872"
         d="m -325.98425,283.46457 0,729.92123"
         style="fill:none;stroke:#44aaff;stroke-dasharray:17.71653543, 17.71653543;stroke-dashoffset:17.71653557"
         inkscape:connector-curvature="0" />
      <path
         id="path4874"
         d="m 1374.8031,0 0,269.29134"
         style="fill:none;stroke:#44aaff;stroke-dasharray:17.71653543, 17.71653543;stroke-dashoffset:17.71653557"
         inkscape:connector-curvature="0" />
      <path
         id="path4876"
         d="m 1388.9764,283.46457 0,729.92123"
         style="fill:none;stroke:#44aaff;stroke-dasharray:17.71653543, 17.71653543;stroke-dashoffset:17.71653557"
         inkscape:connector-curvature="0" />
      <path
         id="path4878"
         d="m 1374.8031,1027.5591 0,269.2913"
         style="fill:none;stroke:#44aaff;stroke-dasharray:17.71653543, 17.71653543;stroke-dashoffset:17.71653557"
         inkscape:connector-curvature="0" />
      <path
         id="path4880"
         d="m 1360.6299,1311.0236 0,729.9213"
         style="fill:none;stroke:#44aaff;stroke-dasharray:17.71653543, 17.71653543;stroke-dashoffset:17.71653557"
         inkscape:connector-curvature="0" />
      <path
         id="path4882"
         d="m 1381.8898,2062.2047 0,269.2914"
         style="fill:none;stroke:#44aaff;stroke-dasharray:17.71653543, 17.71653543;stroke-dashoffset:17.71653557"
         inkscape:connector-curvature="0" />
      <path
         id="path4884"
         d="m 1672.4409,283.46457 0,729.92123"
         style="fill:none;stroke:#44aaff;stroke-dasharray:17.71653543, 17.71653543;stroke-dashoffset:17.71653557"
         inkscape:connector-curvature="0" />
      <path
         id="path4886"
         d="m 1700.7874,283.46457 0,729.92123"
         style="fill:none;stroke:#44aaff;stroke-dasharray:17.71653543, 17.71653543;stroke-dashoffset:17.71653557"
         inkscape:connector-curvature="0" />
      <path
         id="path4888"
         d="m 0,276.37795 1374.8031,0"
         style="fill:none;stroke:#44aaff;stroke-dasharray:17.71653543, 17.71653543;stroke-dashoffset:17.71653557"
         inkscape:connector-curvature="0" />
      <path
         id="path4890"
         d="m 0,1020.4724 1374.8031,0"
         style="fill:none;stroke:#44aaff;stroke-dasharray:17.71653543, 17.71653543;stroke-dashoffset:17.71653557"
         inkscape:connector-curvature="0" />
      <path
         id="path4892"
         d="m 14.173228,1303.937 1346.456672,0"
         style="fill:none;stroke:#44aaff;stroke-dasharray:17.71653543, 17.71653543;stroke-dashoffset:17.71653557"
         inkscape:connector-curvature="0" />
      <path
         id="path4894"
         d="m 14.173228,2055.1181 1346.456672,0"
         style="fill:none;stroke:#44aaff;stroke-dasharray:17.71653543, 17.71653543;stroke-dashoffset:17.71653557"
         inkscape:connector-curvature="0" />
    </g>
  </g>
</svg>
