<?xml version="1.0" encoding="UTF-8" standalone="no"?>
<!-- Created with Inkscape (http://www.inkscape.org/) -->

<svg
   xmlns:dc="http://purl.org/dc/elements/1.1/"
   xmlns:cc="http://creativecommons.org/ns#"
   xmlns:rdf="http://www.w3.org/1999/02/22-rdf-syntax-ns#"
   xmlns:svg="http://www.w3.org/2000/svg"
   xmlns="http://www.w3.org/2000/svg"
   xmlns:sodipodi="http://sodipodi.sourceforge.net/DTD/sodipodi-0.dtd"
   xmlns:inkscape="http://www.inkscape.org/namespaces/inkscape"
   sodipodi:docname="коробка-набор.svg"
   inkscape:version="0.91 r13725"
   version="1.1"
   id="svg3764"
   viewBox="0 0 4212.992 2979.9212"
   height="841mm"
   width="1189mm">
  <sodipodi:namedview
     inkscape:snap-global="false"
     inkscape:object-nodes="true"
     inkscape:bbox-nodes="true"
     inkscape:snap-bbox-edge-midpoints="true"
     inkscape:bbox-paths="true"
     inkscape:snap-bbox="true"
     inkscape:guide-bbox="true"
     showguides="true"
     inkscape:window-maximized="1"
     inkscape:window-y="-8"
     inkscape:window-x="-8"
     inkscape:window-height="705"
     inkscape:window-width="1366"
     showgrid="false"
     inkscape:current-layer="layer1"
     inkscape:document-units="mm"
     inkscape:cy="1113.2049"
     inkscape:cx="641.06952"
     inkscape:zoom="0.175"
     inkscape:pageshadow="2"
     inkscape:pageopacity="0.0"
     borderopacity="1.0"
     bordercolor="#666666"
     pagecolor="#ffffff"
     id="base" />
  <defs
     id="defs3766" />
  <metadata
     id="metadata3769">
    <rdf:RDF>
      <cc:Work
         rdf:about="">
        <dc:format>image/svg+xml</dc:format>
        <dc:type
           rdf:resource="http://purl.org/dc/dcmitype/StillImage" />
        <dc:title />
      </cc:Work>
    </rdf:RDF>
  </metadata>
  <g
     transform="translate(0,1927.5589)"
     id="layer1"
     inkscape:groupmode="layer"
     inkscape:label="Layer 1">
    <path
       id="path4837"
       d="m 617.03543,1051.8624 -357.87402,0 0,-269.29134 357.87402,0 0,-14.17323 -14.17323,0 -283.46457,0 -28.34645,0 -276.37795,0 0,-145.98425 L 0.5,615.32697 l 0,-131.81103 14.17323,-7.08661 0,-145.98425 L 0.5,323.35846 l 0,-131.81102 14.17323,-7.08661 0,-145.98423 276.37795,0 28.34645,0 283.46457,0 14.17323,0 0,-14.1733 -357.87402,0 0,-269.2913 372.04725,0 0,-14.1732 -188.97638,-88.8189 0,-552.2835 188.97638,-88.8189 0,-21.2598 -21.25984,0 c -134.64567,0 -296.22048,0 -235.62993,-117.815 33.66142,-67.3228 100.98426,-151.4764 235.62993,-151.4764 l 1388.97638,0 c 134.6456,0 201.9685,84.1536 235.6299,151.4764 60.5905,117.815 -100.9843,117.815 -235.6299,117.815 l -21.2599,0 0,21.2598 188.9764,88.8189 0,552.2835 -188.9764,88.8189 0,14.1732 372.0473,0 0,269.2913 -357.8741,0 0,14.1733 14.1733,0 283.4645,0 28.3465,0 276.378,0 0,145.98423 14.1732,7.08661 0,131.81102 -14.1732,7.08662 0,145.98425 14.1732,7.08661 0,131.81103 -14.1732,7.08661 0,145.98425 -276.378,0 -28.3465,0 -283.4645,0 -14.1733,0 0,14.17323 357.8741,0 0,269.29134 -357.8741,0 z"
       style="fill:none;stroke:#000000"
       inkscape:connector-curvature="0" />
    <path
       id="path4839"
       d="m 624.12204,622.41358 7.08662,0 0,-145.98425 -7.08662,0 z"
       style="fill:none;stroke:#000000"
       inkscape:connector-curvature="0" />
    <path
       id="path4841"
       d="m 624.12204,330.44508 7.08662,0 0,-145.98425 -7.08662,0 z"
       style="fill:none;stroke:#000000"
       inkscape:connector-curvature="0" />
    <path
       id="path4843"
       d="m 1984.7519,184.46083 -7.0866,0 0,145.98425 7.0866,0 z"
       style="fill:none;stroke:#000000"
       inkscape:connector-curvature="0" />
    <path
       id="path4845"
       d="m 1984.7519,476.42933 -7.0866,0 0,145.98425 7.0866,0 z"
       style="fill:none;stroke:#000000"
       inkscape:connector-curvature="0" />
    <path
       id="path4847"
       d="M617.03543 1051.8624C617.03543 1051.8624 617.03543 1045.26927204 617.03543 1034.14628609M617.03543 1016.42948762C617.03543 1010.97722483 617.03543 1005.03734077 617.03543 998.712904356M617.03543 980.997072481C617.03543 975.272110065 617.03543 969.347094385 617.03543 963.280210993M617.03543 945.563111473C617.03543 939.716983852 617.03543 933.796176475 617.03543 927.847522427M617.03543 910.130954393C617.03543 904.191515538 617.03543 898.270513299 617.03543 892.414347615M617.03543 874.697495825C617.03543 868.645616177 617.03543 862.721444833 617.03543 856.981254054M617.03543 839.265473186C617.03543 832.982722336 617.03543 827.045369428 617.03543 821.548096147M617.03543 803.830520059C617.03543 795.787113661 617.03543 789.67602135 617.03543 786.114607103M617.03543 782.57106"
       style="stroke:#44aaff;fill:none"
       inkscape:connector-curvature="0" />
    <path
       id="path4849"
       d="M602.8622 768.39783C602.8622 768.39783 602.8622 762.102540462 602.8622 750.681233419M602.8622 732.964947378C602.8622 727.587808678 602.8622 721.666215853 602.8622 715.247511908M602.8622 697.530954916C602.8622 691.894598475 602.8622 685.981916029 602.8622 679.815224542M602.8622 662.099388109C602.8622 656.364398794 602.8622 650.454072375 602.8622 644.382939747M602.8622 626.665680245C602.8622 620.877916782 602.8622 614.968539779 602.8622 608.948482572M602.8622 591.231604769C602.8622 585.410765731 602.8622 579.502325859 602.8622 573.515231206M602.8622 555.798627919C602.8622 549.954305981 602.8622 544.046451721 602.8622 538.082810705M602.8622 520.366515725C602.8622 514.503717862 602.8622 508.595906218 602.8622 502.65007478M602.8622 484.933635907C602.8622 479.055433837 602.8622 473.147507715 602.8622 467.216388069M602.8622 449.500373918C602.8622 443.608954249 602.8622 437.701261403 602.8622 431.783569159M602.8622 414.066091963C602.8622 408.162117192 602.8622 402.254430444 602.8622 396.3492189M602.8622 378.632629137C602.8622 372.716412352 602.8622 366.808928339 602.8622 360.916434317M602.8622 343.199410768C602.8622 337.270178652 602.8622 331.362761351 602.8622 325.483653658M602.8622 307.766593333C602.8622 301.82263375 602.8622 295.915102092 602.8622 290.050933805M602.8622 272.334377948C602.8622 266.372344283 602.8622 260.46414376 602.8622 254.617431617M602.8622 236.901690783C602.8622 230.917417648 602.8622 225.009187615 602.8622 219.185798507M602.8622 201.46843484C602.8622 195.452530481 602.8622 189.543493032 602.8622 183.752003528M602.8622 166.036092812C602.8622 159.97103253 602.8622 154.060490867 602.8622 148.318522093M602.8622 130.601178908C602.8622 124.447383377 602.8622 118.534769201 602.8622 112.884512293M602.8622 95.1674924327C602.8622 88.7915227532 602.8622 82.8718316296 602.8622 77.4511526319M602.8622 59.7352239528C602.8622 51.5358594619 602.8622 45.5183965813 602.8622 42.018866234M602.8622 38.4766"
       style="stroke:#44aaff;fill:none"
       inkscape:connector-curvature="0" />
    <path
       id="path4851"
       d="M617.03543 24.3033C617.03543 24.3033 617.03543 17.7101730143 617.03543 6.5871887169M617.03543 -11.1296071138C617.03543 -16.5818690954 617.03543 -22.5217522718 617.03543 -28.8461877498M617.03543 -46.562016993C617.03543 -52.2869785586 617.03543 -58.211993358 617.03543 -64.2788758492M617.03543 -81.995972737C617.03543 -87.8420994904 617.03543 -93.7629059873 617.03543 -99.7115591516M617.03543 -117.428124554C617.03543 -123.367562527 617.03543 -129.288563887 617.03543 -135.144728701M617.03543 -152.86157786C617.03543 -158.913456609 617.03543 -164.837627072 617.03543 -170.577816999M617.03543 -188.293595235C617.03543 -194.576345152 617.03543 -200.513697178 617.03543 -206.010969643M617.03543 -223.728543099C617.03543 -231.771948302 617.03543 -237.883039705 617.03543 -241.444453424M617.03543 -244.988"
       style="stroke:#44aaff;fill:none"
       inkscape:connector-curvature="0" />
    <path
       id="path4853"
       d="M631.20866 -259.1612C631.20866 -259.1612 631.20866 -265.456490141 631.20866 -276.87779828M631.20866 -294.59408602C631.20866 -299.971225236 631.20866 -305.892818629 631.20866 -312.311523189M631.20866 -330.02808188C631.20866 -335.664438861 631.20866 -341.577121874 631.20866 -347.743813953M631.20866 -365.459652085C631.20866 -371.19464195 631.20866 -377.104968936 631.20866 -383.176102147M631.20866 -400.893363347C631.20866 -406.681127365 631.20866 -412.590504935 631.20866 -418.610562719M631.20866 -436.327442221C631.20866 -442.148281818 631.20866 -448.056722256 631.20866 -454.043817483M631.20866 -471.76042247C631.20866 -477.604744968 631.20866 -483.512599795 631.20866 -489.476241382M631.20866 -507.192538061C631.20866 -513.055336487 631.20866 -518.963148697 631.20866 -524.908980705M631.20866 -542.625421278C631.20866 -548.503623911 631.20866 -554.4115506 631.20866 -560.342670814M631.20866 -578.058686665C631.20866 -583.950106898 631.20866 -589.857800311 631.20866 -595.775493123M631.20866 -613.492972018C631.20866 -619.396947355 631.20866 -625.304634669 631.20866 -631.209846779M631.20866 -648.926438241C631.20866 -654.842655594 631.20866 -660.750140174 631.20866 -666.642634761M631.20866 -684.359660009C631.20866 -690.288892694 631.20866 -696.196310561 631.20866 -702.075418818M631.20866 -719.792480842C631.20866 -725.736440995 631.20866 -731.643973219 631.20866 -737.508142068M631.20866 -755.224699625C631.20866 -761.186733861 631.20866 -767.094934951 631.20866 -772.941647655M631.20866 -790.657390188C631.20866 -796.641663897 631.20866 -802.549894496 631.20866 -808.373284163M631.20866 -826.090649529C631.20866 -832.106554465 631.20866 -838.01559248 631.20866 -843.80708254M631.20866 -861.522994955C631.20866 -867.588055818 631.20866 -873.498598049 631.20866 -879.240567373M631.20866 -896.957912257C631.20866 -903.111708379 631.20866 -909.024323122 631.20866 -914.674580571M631.20866 -932.391602131C631.20866 -938.767572422 631.20866 -944.687264113 631.20866 -950.10794363M631.20866 -967.823874008C631.20866 -976.023239286 631.20866 -982.040702743 631.20866 -985.540233426M631.20866 -989.0825"
       style="stroke:#44aaff;fill:none"
       inkscape:connector-curvature="0" />
    <path
       id="path4855"
       d="M609.94882 -1010.3423C609.94882 -1010.3423 609.94882 -1016.93542943 609.94882 -1028.05841786M609.94882 -1045.77522027C609.94882 -1051.22748428 609.94882 -1057.16736966 609.94882 -1063.49180749M609.94882 -1081.20764331C609.94882 -1086.932607 609.94882 -1092.857624 609.94882 -1098.92450874M609.94882 -1116.64161221C609.94882 -1122.48774114 609.94882 -1128.40854983 609.94882 -1134.3572052M609.94882 -1152.07377719C609.94882 -1158.01321736 609.94882 -1163.93422092 609.94882 -1169.79038791M609.94882 -1187.50724365C609.94882 -1193.55912465 609.94882 -1199.48329731 609.94882 -1205.22348937M609.94882 -1222.93927418C609.94882 -1229.22202643 609.94882 -1235.15938066 609.94882 -1240.65665517M609.94882 -1258.3742352C609.94882 -1266.41764339 609.94882 -1272.52873707 609.94882 -1276.09015211M609.94882 -1279.6337"
       style="stroke:#44aaff;fill:none"
       inkscape:connector-curvature="0" />
    <path
       id="path4857"
       d="M319.39763 768.39783C319.39763 768.39783 319.39763 762.102540462 319.39763 750.681233419M319.39763 732.964947378C319.39763 727.587808678 319.39763 721.666215853 319.39763 715.247511908M319.39763 697.530954916C319.39763 691.894598475 319.39763 685.981916029 319.39763 679.815224542M319.39763 662.099388109C319.39763 656.364398794 319.39763 650.454072375 319.39763 644.382939747M319.39763 626.665680245C319.39763 620.877916782 319.39763 614.968539779 319.39763 608.948482572M319.39763 591.231604769C319.39763 585.410765731 319.39763 579.502325859 319.39763 573.515231206M319.39763 555.798627919C319.39763 549.954305981 319.39763 544.046451721 319.39763 538.082810705M319.39763 520.366515725C319.39763 514.503717862 319.39763 508.595906218 319.39763 502.65007478M319.39763 484.933635907C319.39763 479.055433837 319.39763 473.147507715 319.39763 467.216388069M319.39763 449.500373918C319.39763 443.608954249 319.39763 437.701261403 319.39763 431.783569159M319.39763 414.066091963C319.39763 408.162117192 319.39763 402.254430444 319.39763 396.3492189M319.39763 378.632629137C319.39763 372.716412352 319.39763 366.808928339 319.39763 360.916434317M319.39763 343.199410768C319.39763 337.270178652 319.39763 331.362761351 319.39763 325.483653658M319.39763 307.766593333C319.39763 301.82263375 319.39763 295.915102092 319.39763 290.050933805M319.39763 272.334377948C319.39763 266.372344283 319.39763 260.46414376 319.39763 254.617431617M319.39763 236.901690783C319.39763 230.917417648 319.39763 225.009187615 319.39763 219.185798507M319.39763 201.46843484C319.39763 195.452530481 319.39763 189.543493032 319.39763 183.752003528M319.39763 166.036092812C319.39763 159.97103253 319.39763 154.060490867 319.39763 148.318522093M319.39763 130.601178908C319.39763 124.447383377 319.39763 118.534769201 319.39763 112.884512293M319.39763 95.1674924327C319.39763 88.7915227532 319.39763 82.8718316296 319.39763 77.4511526319M319.39763 59.7352239528C319.39763 51.5358594619 319.39763 45.5183965813 319.39763 42.018866234M319.39763 38.4766"
       style="stroke:#44aaff;fill:none"
       inkscape:connector-curvature="0" />
    <path
       id="path4859"
       d="M291.05118 768.39783C291.05118 768.39783 291.05118 762.102540462 291.05118 750.681233419M291.05118 732.964947378C291.05118 727.587808678 291.05118 721.666215853 291.05118 715.247511908M291.05118 697.530954916C291.05118 691.894598475 291.05118 685.981916029 291.05118 679.815224542M291.05118 662.099388109C291.05118 656.364398794 291.05118 650.454072375 291.05118 644.382939747M291.05118 626.665680245C291.05118 620.877916782 291.05118 614.968539779 291.05118 608.948482572M291.05118 591.231604769C291.05118 585.410765731 291.05118 579.502325859 291.05118 573.515231206M291.05118 555.798627919C291.05118 549.954305981 291.05118 544.046451721 291.05118 538.082810705M291.05118 520.366515725C291.05118 514.503717862 291.05118 508.595906218 291.05118 502.65007478M291.05118 484.933635907C291.05118 479.055433837 291.05118 473.147507715 291.05118 467.216388069M291.05118 449.500373918C291.05118 443.608954249 291.05118 437.701261403 291.05118 431.783569159M291.05118 414.066091963C291.05118 408.162117192 291.05118 402.254430444 291.05118 396.3492189M291.05118 378.632629137C291.05118 372.716412352 291.05118 366.808928339 291.05118 360.916434317M291.05118 343.199410768C291.05118 337.270178652 291.05118 331.362761351 291.05118 325.483653658M291.05118 307.766593333C291.05118 301.82263375 291.05118 295.915102092 291.05118 290.050933805M291.05118 272.334377948C291.05118 266.372344283 291.05118 260.46414376 291.05118 254.617431617M291.05118 236.901690783C291.05118 230.917417648 291.05118 225.009187615 291.05118 219.185798507M291.05118 201.46843484C291.05118 195.452530481 291.05118 189.543493032 291.05118 183.752003528M291.05118 166.036092812C291.05118 159.97103253 291.05118 154.060490867 291.05118 148.318522093M291.05118 130.601178908C291.05118 124.447383377 291.05118 118.534769201 291.05118 112.884512293M291.05118 95.1674924327C291.05118 88.7915227532 291.05118 82.8718316296 291.05118 77.4511526319M291.05118 59.7352239528C291.05118 51.5358594619 291.05118 45.5183965813 291.05118 42.018866234M291.05118 38.4766"
       style="stroke:#44aaff;fill:none"
       inkscape:connector-curvature="0" />
    <path
       id="path4861"
       d="M1991.8385 1051.8624C1991.8385 1051.8624 1991.8385 1045.26927204 1991.8385 1034.14628609M1991.8385 1016.42948762C1991.8385 1010.97722483 1991.8385 1005.03734077 1991.8385 998.712904356M1991.8385 980.997072481C1991.8385 975.272110065 1991.8385 969.347094385 1991.8385 963.280210993M1991.8385 945.563111473C1991.8385 939.716983852 1991.8385 933.796176475 1991.8385 927.847522427M1991.8385 910.130954393C1991.8385 904.191515538 1991.8385 898.270513299 1991.8385 892.414347615M1991.8385 874.697495825C1991.8385 868.645616177 1991.8385 862.721444833 1991.8385 856.981254054M1991.8385 839.265473186C1991.8385 832.982722336 1991.8385 827.045369428 1991.8385 821.548096147M1991.8385 803.830520059C1991.8385 795.787113661 1991.8385 789.67602135 1991.8385 786.114607103M1991.8385 782.57106"
       style="stroke:#44aaff;fill:none"
       inkscape:connector-curvature="0" />
    <path
       id="path4863"
       d="M2006.0118 768.39783C2006.0118 768.39783 2006.0118 762.102540462 2006.0118 750.681233419M2006.0118 732.964947378C2006.0118 727.587808678 2006.0118 721.666215853 2006.0118 715.247511908M2006.0118 697.530954916C2006.0118 691.894598475 2006.0118 685.981916029 2006.0118 679.815224542M2006.0118 662.099388109C2006.0118 656.364398794 2006.0118 650.454072375 2006.0118 644.382939747M2006.0118 626.665680245C2006.0118 620.877916782 2006.0118 614.968539779 2006.0118 608.948482572M2006.0118 591.231604769C2006.0118 585.410765731 2006.0118 579.502325859 2006.0118 573.515231206M2006.0118 555.798627919C2006.0118 549.954305981 2006.0118 544.046451721 2006.0118 538.082810705M2006.0118 520.366515725C2006.0118 514.503717862 2006.0118 508.595906218 2006.0118 502.65007478M2006.0118 484.933635907C2006.0118 479.055433837 2006.0118 473.147507715 2006.0118 467.216388069M2006.0118 449.500373918C2006.0118 443.608954249 2006.0118 437.701261403 2006.0118 431.783569159M2006.0118 414.066091963C2006.0118 408.162117192 2006.0118 402.254430444 2006.0118 396.3492189M2006.0118 378.632629137C2006.0118 372.716412352 2006.0118 366.808928339 2006.0118 360.916434317M2006.0118 343.199410768C2006.0118 337.270178652 2006.0118 331.362761351 2006.0118 325.483653658M2006.0118 307.766593333C2006.0118 301.82263375 2006.0118 295.915102092 2006.0118 290.050933805M2006.0118 272.334377948C2006.0118 266.372344283 2006.0118 260.46414376 2006.0118 254.617431617M2006.0118 236.901690783C2006.0118 230.917417648 2006.0118 225.009187615 2006.0118 219.185798507M2006.0118 201.46843484C2006.0118 195.452530481 2006.0118 189.543493032 2006.0118 183.752003528M2006.0118 166.036092812C2006.0118 159.97103253 2006.0118 154.060490867 2006.0118 148.318522093M2006.0118 130.601178908C2006.0118 124.447383377 2006.0118 118.534769201 2006.0118 112.884512293M2006.0118 95.1674924327C2006.0118 88.7915227532 2006.0118 82.8718316296 2006.0118 77.4511526319M2006.0118 59.7352239528C2006.0118 51.5358594619 2006.0118 45.5183965813 2006.0118 42.018866234M2006.0118 38.4766"
       style="stroke:#44aaff;fill:none"
       inkscape:connector-curvature="0" />
    <path
       id="path4865"
       d="M1991.8385 24.3033C1991.8385 24.3033 1991.8385 17.7101730143 1991.8385 6.5871887169M1991.8385 -11.1296071138C1991.8385 -16.5818690954 1991.8385 -22.5217522718 1991.8385 -28.8461877498M1991.8385 -46.562016993C1991.8385 -52.2869785586 1991.8385 -58.211993358 1991.8385 -64.2788758492M1991.8385 -81.995972737C1991.8385 -87.8420994904 1991.8385 -93.7629059873 1991.8385 -99.7115591516M1991.8385 -117.428124554C1991.8385 -123.367562527 1991.8385 -129.288563887 1991.8385 -135.144728701M1991.8385 -152.86157786C1991.8385 -158.913456609 1991.8385 -164.837627072 1991.8385 -170.577816999M1991.8385 -188.293595235C1991.8385 -194.576345152 1991.8385 -200.513697178 1991.8385 -206.010969643M1991.8385 -223.728543099C1991.8385 -231.771948302 1991.8385 -237.883039705 1991.8385 -241.444453424M1991.8385 -244.988"
       style="stroke:#44aaff;fill:none"
       inkscape:connector-curvature="0" />
    <path
       id="path4867"
       d="M1977.6653 -259.1612C1977.6653 -259.1612 1977.6653 -265.456490141 1977.6653 -276.87779828M1977.6653 -294.59408602C1977.6653 -299.971225236 1977.6653 -305.892818629 1977.6653 -312.311523189M1977.6653 -330.02808188C1977.6653 -335.664438861 1977.6653 -341.577121874 1977.6653 -347.743813953M1977.6653 -365.459652085C1977.6653 -371.19464195 1977.6653 -377.104968936 1977.6653 -383.176102147M1977.6653 -400.893363347C1977.6653 -406.681127365 1977.6653 -412.590504935 1977.6653 -418.610562719M1977.6653 -436.327442221C1977.6653 -442.148281818 1977.6653 -448.056722256 1977.6653 -454.043817483M1977.6653 -471.76042247C1977.6653 -477.604744968 1977.6653 -483.512599795 1977.6653 -489.476241382M1977.6653 -507.192538061C1977.6653 -513.055336487 1977.6653 -518.963148697 1977.6653 -524.908980705M1977.6653 -542.625421278C1977.6653 -548.503623911 1977.6653 -554.4115506 1977.6653 -560.342670814M1977.6653 -578.058686665C1977.6653 -583.950106898 1977.6653 -589.857800311 1977.6653 -595.775493123M1977.6653 -613.492972018C1977.6653 -619.396947355 1977.6653 -625.304634669 1977.6653 -631.209846779M1977.6653 -648.926438241C1977.6653 -654.842655594 1977.6653 -660.750140174 1977.6653 -666.642634761M1977.6653 -684.359660009C1977.6653 -690.288892694 1977.6653 -696.196310561 1977.6653 -702.075418818M1977.6653 -719.792480842C1977.6653 -725.736440995 1977.6653 -731.643973219 1977.6653 -737.508142068M1977.6653 -755.224699625C1977.6653 -761.186733861 1977.6653 -767.094934951 1977.6653 -772.941647655M1977.6653 -790.657390188C1977.6653 -796.641663897 1977.6653 -802.549894496 1977.6653 -808.373284163M1977.6653 -826.090649529C1977.6653 -832.106554465 1977.6653 -838.01559248 1977.6653 -843.80708254M1977.6653 -861.522994955C1977.6653 -867.588055818 1977.6653 -873.498598049 1977.6653 -879.240567373M1977.6653 -896.957912257C1977.6653 -903.111708379 1977.6653 -909.024323122 1977.6653 -914.674580571M1977.6653 -932.391602131C1977.6653 -938.767572422 1977.6653 -944.687264113 1977.6653 -950.10794363M1977.6653 -967.823874008C1977.6653 -976.023239286 1977.6653 -982.040702743 1977.6653 -985.540233426M1977.6653 -989.0825"
       style="stroke:#44aaff;fill:none"
       inkscape:connector-curvature="0" />
    <path
       id="path4869"
       d="M1998.9252 -1010.3423C1998.9252 -1010.3423 1998.9252 -1016.93542943 1998.9252 -1028.05841786M1998.9252 -1045.77522027C1998.9252 -1051.22748428 1998.9252 -1057.16736966 1998.9252 -1063.49180749M1998.9252 -1081.20764331C1998.9252 -1086.932607 1998.9252 -1092.857624 1998.9252 -1098.92450874M1998.9252 -1116.64161221C1998.9252 -1122.48774114 1998.9252 -1128.40854983 1998.9252 -1134.3572052M1998.9252 -1152.07377719C1998.9252 -1158.01321736 1998.9252 -1163.93422092 1998.9252 -1169.79038791M1998.9252 -1187.50724365C1998.9252 -1193.55912465 1998.9252 -1199.48329731 1998.9252 -1205.22348937M1998.9252 -1222.93927418C1998.9252 -1229.22202643 1998.9252 -1235.15938066 1998.9252 -1240.65665517M1998.9252 -1258.3742352C1998.9252 -1266.41764339 1998.9252 -1272.52873707 1998.9252 -1276.09015211M1998.9252 -1279.6337"
       style="stroke:#44aaff;fill:none"
       inkscape:connector-curvature="0" />
    <path
       id="path4871"
       d="M2289.4763 768.39783C2289.4763 768.39783 2289.4763 762.102540462 2289.4763 750.681233419M2289.4763 732.964947378C2289.4763 727.587808678 2289.4763 721.666215853 2289.4763 715.247511908M2289.4763 697.530954916C2289.4763 691.894598475 2289.4763 685.981916029 2289.4763 679.815224542M2289.4763 662.099388109C2289.4763 656.364398794 2289.4763 650.454072375 2289.4763 644.382939747M2289.4763 626.665680245C2289.4763 620.877916782 2289.4763 614.968539779 2289.4763 608.948482572M2289.4763 591.231604769C2289.4763 585.410765731 2289.4763 579.502325859 2289.4763 573.515231206M2289.4763 555.798627919C2289.4763 549.954305981 2289.4763 544.046451721 2289.4763 538.082810705M2289.4763 520.366515725C2289.4763 514.503717862 2289.4763 508.595906218 2289.4763 502.65007478M2289.4763 484.933635907C2289.4763 479.055433837 2289.4763 473.147507715 2289.4763 467.216388069M2289.4763 449.500373918C2289.4763 443.608954249 2289.4763 437.701261403 2289.4763 431.783569159M2289.4763 414.066091963C2289.4763 408.162117192 2289.4763 402.254430444 2289.4763 396.3492189M2289.4763 378.632629137C2289.4763 372.716412352 2289.4763 366.808928339 2289.4763 360.916434317M2289.4763 343.199410768C2289.4763 337.270178652 2289.4763 331.362761351 2289.4763 325.483653658M2289.4763 307.766593333C2289.4763 301.82263375 2289.4763 295.915102092 2289.4763 290.050933805M2289.4763 272.334377948C2289.4763 266.372344283 2289.4763 260.46414376 2289.4763 254.617431617M2289.4763 236.901690783C2289.4763 230.917417648 2289.4763 225.009187615 2289.4763 219.185798507M2289.4763 201.46843484C2289.4763 195.452530481 2289.4763 189.543493032 2289.4763 183.752003528M2289.4763 166.036092812C2289.4763 159.97103253 2289.4763 154.060490867 2289.4763 148.318522093M2289.4763 130.601178908C2289.4763 124.447383377 2289.4763 118.534769201 2289.4763 112.884512293M2289.4763 95.1674924327C2289.4763 88.7915227532 2289.4763 82.8718316296 2289.4763 77.4511526319M2289.4763 59.7352239528C2289.4763 51.5358594619 2289.4763 45.5183965813 2289.4763 42.018866234M2289.4763 38.4766"
       style="stroke:#44aaff;fill:none"
       inkscape:connector-curvature="0" />
    <path
       id="path4873"
       d="M2317.8228 768.39783C2317.8228 768.39783 2317.8228 762.102540462 2317.8228 750.681233419M2317.8228 732.964947378C2317.8228 727.587808678 2317.8228 721.666215853 2317.8228 715.247511908M2317.8228 697.530954916C2317.8228 691.894598475 2317.8228 685.981916029 2317.8228 679.815224542M2317.8228 662.099388109C2317.8228 656.364398794 2317.8228 650.454072375 2317.8228 644.382939747M2317.8228 626.665680245C2317.8228 620.877916782 2317.8228 614.968539779 2317.8228 608.948482572M2317.8228 591.231604769C2317.8228 585.410765731 2317.8228 579.502325859 2317.8228 573.515231206M2317.8228 555.798627919C2317.8228 549.954305981 2317.8228 544.046451721 2317.8228 538.082810705M2317.8228 520.366515725C2317.8228 514.503717862 2317.8228 508.595906218 2317.8228 502.65007478M2317.8228 484.933635907C2317.8228 479.055433837 2317.8228 473.147507715 2317.8228 467.216388069M2317.8228 449.500373918C2317.8228 443.608954249 2317.8228 437.701261403 2317.8228 431.783569159M2317.8228 414.066091963C2317.8228 408.162117192 2317.8228 402.254430444 2317.8228 396.3492189M2317.8228 378.632629137C2317.8228 372.716412352 2317.8228 366.808928339 2317.8228 360.916434317M2317.8228 343.199410768C2317.8228 337.270178652 2317.8228 331.362761351 2317.8228 325.483653658M2317.8228 307.766593333C2317.8228 301.82263375 2317.8228 295.915102092 2317.8228 290.050933805M2317.8228 272.334377948C2317.8228 266.372344283 2317.8228 260.46414376 2317.8228 254.617431617M2317.8228 236.901690783C2317.8228 230.917417648 2317.8228 225.009187615 2317.8228 219.185798507M2317.8228 201.46843484C2317.8228 195.452530481 2317.8228 189.543493032 2317.8228 183.752003528M2317.8228 166.036092812C2317.8228 159.97103253 2317.8228 154.060490867 2317.8228 148.318522093M2317.8228 130.601178908C2317.8228 124.447383377 2317.8228 118.534769201 2317.8228 112.884512293M2317.8228 95.1674924327C2317.8228 88.7915227532 2317.8228 82.8718316296 2317.8228 77.4511526319M2317.8228 59.7352239528C2317.8228 51.5358594619 2317.8228 45.5183965813 2317.8228 42.018866234M2317.8228 38.4766"
       style="stroke:#44aaff;fill:none"
       inkscape:connector-curvature="0" />
    <path
       id="path4875"
       d="M617.03543 775.48445C617.03543 775.48445 623.217011075 775.48445 634.751164496 775.48445M652.467736866 775.48445C657.821922876 775.48445 663.737784094 775.48445 670.184081854 775.48445M687.900312646 775.48445C693.51517532 775.48445 699.425400206 775.48445 705.616959146 775.48445M723.334058074 775.48445C729.047231617 775.48445 734.95589451 775.48445 741.051330776 775.48445M758.768672099 775.48445C764.533419095 775.48445 770.44126296 775.48445 776.485950855 775.48445M794.20240347 775.48445C799.998963997 775.48445 805.906281343 775.48445 811.919486859 775.48445M829.635300557 775.48445C835.453265743 775.48445 841.359952493 775.48445 847.351363445 775.48445M865.067334979 775.48445C870.901609438 775.48445 876.808576876 775.48445 882.784828525 775.48445M900.500669504 775.48445C906.346675989 775.48445 912.253090858 775.48445 918.216926038 775.48445M935.932825218 775.48445C941.788309142 775.48445 947.694438066 775.48445 953.648534456 775.48445M971.364496744 775.48445C977.228136558 775.48445 983.134416513 775.48445 989.080894022 775.48445M1006.79721848 775.48445C1012.66776855 775.48445 1018.57421247 775.48445 1024.51428895 775.48445M1042.23160321 775.48445C1048.10780188 775.48445 1054.01407093 775.48445 1059.94829083 775.48445M1077.66524736 775.48445C1083.54675917 775.48445 1089.45321477 775.48445 1095.3826052 775.48445M1113.09960043 775.48445C1118.9852425 775.48445 1124.89121833 775.48445 1130.81560578 775.48445M1148.53225321 775.48445C1154.42225288 775.48445 1160.32837342 775.48445 1166.24875877 775.48445M1183.96522871 775.48445C1189.85939213 775.48445 1195.76575376 775.48445 1201.68250652 775.48445M1219.39987055 775.48445C1225.29773739 775.48445 1231.20408551 775.48445 1237.11714212 775.48445M1254.83349906 775.48445C1260.73450641 775.48445 1266.64041418 775.48445 1272.54947074 775.48445M1290.26672101 775.48445C1296.17161196 775.48445 1302.0778977 775.48445 1307.98383434 775.48445M1325.70034683 775.48445C1331.60841943 775.48445 1337.51439565 775.48445 1343.41652751 775.48445M1361.13315283 775.48445C1367.04479649 775.48445 1372.95080945 775.48445 1378.84942682 775.48445M1396.56656057 775.48445C1402.48217691 775.48445 1408.38852324 775.48445 1414.28380426 775.48445M1432.00014184 775.48445C1437.91959947 775.48445 1443.82597769 775.48445 1449.71743659 775.48445M1467.4331964 775.48445C1473.35669298 775.48445 1479.26305352 775.48445 1485.15037732 775.48445M1502.86693451 775.48445C1508.79467962 775.48445 1514.70089291 775.48445 1520.58359391 775.48445M1538.30001754 775.48445C1544.23282244 775.48445 1550.13924082 775.48445 1556.01718908 775.48445M1573.73375311 775.48445C1579.6715985 775.48445 1585.57760092 775.48445 1591.44954572 775.48445M1609.16571637 775.48445C1615.11009161 775.48445 1621.01634898 775.48445 1626.88210523 775.48445M1644.59845042 775.48445C1650.55032716 775.48445 1656.45671418 775.48445 1662.31501083 775.48445M1680.0304587 775.48445C1685.99128589 775.48445 1691.89773834 775.48445 1697.74693052 775.48445M1715.46423959 775.48445C1721.43607596 775.48445 1727.34250541 775.48445 1733.18026035 775.48445M1750.89697869 775.48445C1756.88325689 775.48445 1762.78992101 775.48445 1768.61317332 775.48445M1786.32922337 775.48445C1792.33493577 775.48445 1798.24189715 775.48445 1804.04554031 775.48445M1821.76182931 775.48445C1827.79554733 775.48445 1833.70312601 775.48445 1839.47880481 775.48445M1857.19531152 775.48445C1863.272382 775.48445 1869.18061701 775.48445 1874.91221573 775.48445M1892.62790947 775.48445C1898.78233307 775.48445 1904.69165812 775.48445 1910.34398405 775.48445M1928.05947278 775.48445C1934.39375768 775.48445 1940.30679334 775.48445 1945.77540088 775.48445M1963.49117092 775.48445C1970.72661174 775.48445 1976.66716807 775.48445 1981.20759082 775.48445M1991.8385 775.48445"
       style="stroke:#44aaff;fill:none"
       inkscape:connector-curvature="0" />
    <path
       id="path4877"
       d="M617.03543 31.39C617.03543 31.39 623.217011075 31.39 634.751164496 31.39M652.467736866 31.39C657.821922876 31.39 663.737784094 31.39 670.184081854 31.39M687.900312646 31.39C693.51517532 31.39 699.425400206 31.39 705.616959146 31.39M723.334058074 31.39C729.047231617 31.39 734.95589451 31.39 741.051330776 31.39M758.768672099 31.39C764.533419095 31.39 770.44126296 31.39 776.485950855 31.39M794.20240347 31.39C799.998963997 31.39 805.906281343 31.39 811.919486859 31.39M829.635300557 31.39C835.453265743 31.39 841.359952493 31.39 847.351363445 31.39M865.067334979 31.39C870.901609438 31.39 876.808576876 31.39 882.784828525 31.39M900.500669504 31.39C906.346675989 31.39 912.253090858 31.39 918.216926038 31.39M935.932825218 31.39C941.788309142 31.39 947.694438066 31.39 953.648534456 31.39M971.364496744 31.39C977.228136558 31.39 983.134416513 31.39 989.080894022 31.39M1006.79721848 31.39C1012.66776855 31.39 1018.57421247 31.39 1024.51428895 31.39M1042.23160321 31.39C1048.10780188 31.39 1054.01407093 31.39 1059.94829083 31.39M1077.66524736 31.39C1083.54675917 31.39 1089.45321477 31.39 1095.3826052 31.39M1113.09960043 31.39C1118.9852425 31.39 1124.89121833 31.39 1130.81560578 31.39M1148.53225321 31.39C1154.42225288 31.39 1160.32837342 31.39 1166.24875877 31.39M1183.96522871 31.39C1189.85939213 31.39 1195.76575376 31.39 1201.68250652 31.39M1219.39987055 31.39C1225.29773739 31.39 1231.20408551 31.39 1237.11714212 31.39M1254.83349906 31.39C1260.73450641 31.39 1266.64041418 31.39 1272.54947074 31.39M1290.26672101 31.39C1296.17161196 31.39 1302.0778977 31.39 1307.98383434 31.39M1325.70034683 31.39C1331.60841943 31.39 1337.51439565 31.39 1343.41652751 31.39M1361.13315283 31.39C1367.04479649 31.39 1372.95080945 31.39 1378.84942682 31.39M1396.56656057 31.39C1402.48217691 31.39 1408.38852324 31.39 1414.28380426 31.39M1432.00014184 31.39C1437.91959947 31.39 1443.82597769 31.39 1449.71743659 31.39M1467.4331964 31.39C1473.35669298 31.39 1479.26305352 31.39 1485.15037732 31.39M1502.86693451 31.39C1508.79467962 31.39 1514.70089291 31.39 1520.58359391 31.39M1538.30001754 31.39C1544.23282244 31.39 1550.13924082 31.39 1556.01718908 31.39M1573.73375311 31.39C1579.6715985 31.39 1585.57760092 31.39 1591.44954572 31.39M1609.16571637 31.39C1615.11009161 31.39 1621.01634898 31.39 1626.88210523 31.39M1644.59845042 31.39C1650.55032716 31.39 1656.45671418 31.39 1662.31501083 31.39M1680.0304587 31.39C1685.99128589 31.39 1691.89773834 31.39 1697.74693052 31.39M1715.46423959 31.39C1721.43607596 31.39 1727.34250541 31.39 1733.18026035 31.39M1750.89697869 31.39C1756.88325689 31.39 1762.78992101 31.39 1768.61317332 31.39M1786.32922337 31.39C1792.33493577 31.39 1798.24189715 31.39 1804.04554031 31.39M1821.76182931 31.39C1827.79554733 31.39 1833.70312601 31.39 1839.47880481 31.39M1857.19531152 31.39C1863.272382 31.39 1869.18061701 31.39 1874.91221573 31.39M1892.62790947 31.39C1898.78233307 31.39 1904.69165812 31.39 1910.34398405 31.39M1928.05947278 31.39C1934.39375768 31.39 1940.30679334 31.39 1945.77540088 31.39M1963.49117092 31.39C1970.72661174 31.39 1976.66716807 31.39 1981.20759082 31.39M1991.8385 31.39"
       style="stroke:#44aaff;fill:none"
       inkscape:connector-curvature="0" />
    <path
       id="path4879"
       d="M631.20866 -252.0746C631.20866 -252.0746 637.393674657 -252.0746 648.92531625 -252.0746M666.641811704 -252.0746C671.996482903 -252.0746 677.912347451 -252.0746 684.3577581 -252.0746M702.074521406 -252.0746C707.689948194 -252.0746 713.600264392 -252.0746 719.791239627 -252.0746M737.507659061 -252.0746C743.220958041 -252.0746 749.12923868 -252.0746 755.223651182 -252.0746M772.940573952 -252.0746C778.70542604 -252.0746 784.612864089 -252.0746 790.656532188 -252.0746M808.372428969 -252.0746C814.169216729 -252.0746 820.076243742 -252.0746 826.088555259 -252.0746M843.805305079 -252.0746C849.623741551 -252.0746 855.530369536 -252.0746 861.521115895 -252.0746M879.237042157 -252.0746C885.07168959 -252.0746 890.978471564 -252.0746 896.953910833 -252.0746M914.670160531 -252.0746C920.517007011 -252.0746 926.423683283 -252.0746 932.387136833 -252.0746M950.103389605 -252.0746C955.960038291 -252.0746 961.866722667 -252.0746 967.820703541 -252.0746M985.536498355 -252.0746C991.400703858 -252.0746 997.306889714 -252.0746 1003.25255452 -252.0746M1020.96995485 -252.0746C1026.8410312 -252.0746 1032.74729571 -252.0746 1038.68642941 -252.0746M1056.40300852 -252.0746C1062.27980402 -252.0746 1068.18591391 -252.0746 1074.1191612 -252.0746M1091.83489564 -252.0746C1097.71668165 -252.0746 1103.62259459 -252.0746 1109.55056804 -252.0746M1127.26671149 -252.0746C1133.15363769 -252.0746 1139.06002197 -252.0746 1144.98388273 -252.0746M1162.70033679 -252.0746C1168.59114823 -252.0746 1174.49712538 -252.0746 1180.41635161 -252.0746M1198.13293886 -252.0746C1204.02794866 -252.0746 1209.93411434 -252.0746 1215.84956601 -252.0746M1233.56621766 -252.0746C1239.46516744 -252.0746 1245.37145642 -252.0746 1251.28324591 -252.0746M1269.00020811 -252.0746C1274.90303352 -252.0746 1280.80950176 -252.0746 1286.71779092 -252.0746M1304.43366511 -252.0746C1310.33981558 -252.0746 1316.2459664 -252.0746 1322.15029933 -252.0746M1339.86682684 -252.0746C1345.77643572 -252.0746 1351.68239412 -252.0746 1357.58287387 -252.0746M1375.30014721 -252.0746C1381.21364924 -252.0746 1387.11977661 -252.0746 1393.01667697 -252.0746M1410.73391982 -252.0746C1416.6514964 -252.0746 1422.55783232 -252.0746 1428.45103614 -252.0746M1446.16816558 -252.0746C1452.08953909 -252.0746 1457.99558977 -252.0746 1463.88437104 -252.0746M1481.60054225 -252.0746C1487.52648497 -252.0746 1493.4327117 -252.0746 1499.31720119 -252.0746M1517.03404468 -252.0746C1522.96490774 -252.0746 1528.87124028 -252.0746 1534.75092377 -252.0746M1552.46716363 -252.0746C1558.40328644 -252.0746 1564.30950061 -252.0746 1570.18356258 -252.0746M1587.89994916 -252.0746C1593.84240052 -252.0746 1599.74880369 -252.0746 1605.61675411 -252.0746M1623.33243116 -252.0746C1629.28209443 -252.0746 1635.18854599 -252.0746 1641.0491735 -252.0746M1658.76593679 -252.0746C1664.72440327 -252.0746 1670.63108042 -252.0746 1676.48308372 -252.0746M1694.19930576 -252.0746C1700.16800627 -252.0746 1706.07435864 -252.0746 1711.91511556 -252.0746M1729.63155731 -252.0746C1735.61403638 -252.0746 1741.52068154 -252.0746 1747.34774457 -252.0746M1765.06493019 -252.0746C1771.0659089 -252.0746 1776.97307775 -252.0746 1782.78196818 -252.0746M1800.49895743 -252.0746C1806.52557986 -252.0746 1812.43305019 -252.0746 1818.21580076 -252.0746M1835.93189206 -252.0746C1841.99753429 -252.0746 1847.90532505 -252.0746 1853.64786082 -252.0746M1871.36407069 -252.0746C1877.49805258 -252.0746 1883.40728713 -252.0746 1889.08082247 -252.0746M1906.79741165 -252.0746C1913.07859205 -252.0746 1918.99082657 -252.0746 1924.51420042 -252.0746M1942.23202939 -252.0746C1949.07665284 -252.0746 1955.00432875 -252.0746 1959.94895974 -252.0746M1977.6653 -252.0746"
       style="stroke:#44aaff;fill:none"
       inkscape:connector-curvature="0" />
    <path
       id="path4881"
       d="M631.20866 -1003.2557C631.20866 -1003.2557 637.393674657 -1003.2557 648.92531625 -1003.2557M666.641811704 -1003.2557C671.996482903 -1003.2557 677.912347451 -1003.2557 684.3577581 -1003.2557M702.074521406 -1003.2557C707.689948194 -1003.2557 713.600264392 -1003.2557 719.791239627 -1003.2557M737.507659061 -1003.2557C743.220958041 -1003.2557 749.12923868 -1003.2557 755.223651182 -1003.2557M772.940573952 -1003.2557C778.70542604 -1003.2557 784.612864089 -1003.2557 790.656532188 -1003.2557M808.372428969 -1003.2557C814.169216729 -1003.2557 820.076243742 -1003.2557 826.088555259 -1003.2557M843.805305079 -1003.2557C849.623741551 -1003.2557 855.530369536 -1003.2557 861.521115895 -1003.2557M879.237042157 -1003.2557C885.07168959 -1003.2557 890.978471564 -1003.2557 896.953910833 -1003.2557M914.670160531 -1003.2557C920.517007011 -1003.2557 926.423683283 -1003.2557 932.387136833 -1003.2557M950.103389605 -1003.2557C955.960038291 -1003.2557 961.866722667 -1003.2557 967.820703541 -1003.2557M985.536498355 -1003.2557C991.400703858 -1003.2557 997.306889714 -1003.2557 1003.25255452 -1003.2557M1020.96995485 -1003.2557C1026.8410312 -1003.2557 1032.74729571 -1003.2557 1038.68642941 -1003.2557M1056.40300852 -1003.2557C1062.27980402 -1003.2557 1068.18591391 -1003.2557 1074.1191612 -1003.2557M1091.83489564 -1003.2557C1097.71668165 -1003.2557 1103.62259459 -1003.2557 1109.55056804 -1003.2557M1127.26671149 -1003.2557C1133.15363769 -1003.2557 1139.06002197 -1003.2557 1144.98388273 -1003.2557M1162.70033679 -1003.2557C1168.59114823 -1003.2557 1174.49712538 -1003.2557 1180.41635161 -1003.2557M1198.13293886 -1003.2557C1204.02794866 -1003.2557 1209.93411434 -1003.2557 1215.84956601 -1003.2557M1233.56621766 -1003.2557C1239.46516744 -1003.2557 1245.37145642 -1003.2557 1251.28324591 -1003.2557M1269.00020811 -1003.2557C1274.90303352 -1003.2557 1280.80950176 -1003.2557 1286.71779092 -1003.2557M1304.43366511 -1003.2557C1310.33981558 -1003.2557 1316.2459664 -1003.2557 1322.15029933 -1003.2557M1339.86682684 -1003.2557C1345.77643572 -1003.2557 1351.68239412 -1003.2557 1357.58287387 -1003.2557M1375.30014721 -1003.2557C1381.21364924 -1003.2557 1387.11977661 -1003.2557 1393.01667697 -1003.2557M1410.73391982 -1003.2557C1416.6514964 -1003.2557 1422.55783232 -1003.2557 1428.45103614 -1003.2557M1446.16816558 -1003.2557C1452.08953909 -1003.2557 1457.99558977 -1003.2557 1463.88437104 -1003.2557M1481.60054225 -1003.2557C1487.52648497 -1003.2557 1493.4327117 -1003.2557 1499.31720119 -1003.2557M1517.03404468 -1003.2557C1522.96490774 -1003.2557 1528.87124028 -1003.2557 1534.75092377 -1003.2557M1552.46716363 -1003.2557C1558.40328644 -1003.2557 1564.30950061 -1003.2557 1570.18356258 -1003.2557M1587.89994916 -1003.2557C1593.84240052 -1003.2557 1599.74880369 -1003.2557 1605.61675411 -1003.2557M1623.33243116 -1003.2557C1629.28209443 -1003.2557 1635.18854599 -1003.2557 1641.0491735 -1003.2557M1658.76593679 -1003.2557C1664.72440327 -1003.2557 1670.63108042 -1003.2557 1676.48308372 -1003.2557M1694.19930576 -1003.2557C1700.16800627 -1003.2557 1706.07435864 -1003.2557 1711.91511556 -1003.2557M1729.63155731 -1003.2557C1735.61403638 -1003.2557 1741.52068154 -1003.2557 1747.34774457 -1003.2557M1765.06493019 -1003.2557C1771.0659089 -1003.2557 1776.97307775 -1003.2557 1782.78196818 -1003.2557M1800.49895743 -1003.2557C1806.52557986 -1003.2557 1812.43305019 -1003.2557 1818.21580076 -1003.2557M1835.93189206 -1003.2557C1841.99753429 -1003.2557 1847.90532505 -1003.2557 1853.64786082 -1003.2557M1871.36407069 -1003.2557C1877.49805258 -1003.2557 1883.40728713 -1003.2557 1889.08082247 -1003.2557M1906.79741165 -1003.2557C1913.07859205 -1003.2557 1918.99082657 -1003.2557 1924.51420042 -1003.2557M1942.23202939 -1003.2557C1949.07665284 -1003.2557 1955.00432875 -1003.2557 1959.94895974 -1003.2557M1977.6653 -1003.2557"
       style="stroke:#44aaff;fill:none"
       inkscape:connector-curvature="0" />
  </g>
</svg>
