<?xml version="1.0" encoding="UTF-8" standalone="no"?>
<!-- Created with Inkscape (http://www.inkscape.org/) -->

<svg
   xmlns:dc="http://purl.org/dc/elements/1.1/"
   xmlns:cc="http://creativecommons.org/ns#"
   xmlns:rdf="http://www.w3.org/1999/02/22-rdf-syntax-ns#"
   xmlns:svg="http://www.w3.org/2000/svg"
   xmlns="http://www.w3.org/2000/svg"
   xmlns:sodipodi="http://sodipodi.sourceforge.net/DTD/sodipodi-0.dtd"
   xmlns:inkscape="http://www.inkscape.org/namespaces/inkscape"
   sodipodi:docname="коробка-набор-2мм.svg"
   inkscape:version="0.91 r"
   version="1.1"
   id="svg3764"
   viewBox="0 0 4212.992 2979.9212"
   height="841mm"
   width="1189mm">
  <sodipodi:namedview
     inkscape:snap-global="false"
     inkscape:object-nodes="true"
     inkscape:bbox-nodes="true"
     inkscape:snap-bbox-edge-midpoints="true"
     inkscape:bbox-paths="true"
     inkscape:snap-bbox="true"
     inkscape:guide-bbox="true"
     showguides="true"
     inkscape:window-maximized="1"
     inkscape:window-y="24"
     inkscape:window-x="65"
     inkscape:window-height="744"
     inkscape:window-width="1301"
     showgrid="false"
     inkscape:current-layer="layer1"
     inkscape:document-units="mm"
     inkscape:cy="2657.5326"
     inkscape:cx="-155.54831"
     inkscape:zoom="1.12"
     inkscape:pageshadow="2"
     inkscape:pageopacity="0.0"
     borderopacity="1.0"
     bordercolor="#666666"
     pagecolor="#ffffff"
     id="base" />
  <defs
     id="defs3766" />
  <metadata
     id="metadata3769">
    <rdf:RDF>
      <cc:Work
         rdf:about="">
        <dc:format>image/svg+xml</dc:format>
        <dc:type
           rdf:resource="http://purl.org/dc/dcmitype/StillImage" />
        <dc:title />
      </cc:Work>
    </rdf:RDF>
  </metadata>
  <g
     transform="translate(0,1927.5589)"
     id="layer1"
     inkscape:groupmode="layer"
     inkscape:label="Layer 1">
    <text
       xml:space="preserve"
       style="font-style:normal;font-weight:normal;font-size:56.42049408px;line-height:125%;font-family:Sans;letter-spacing:0px;word-spacing:0px;fill:#000000;fill-opacity:1;stroke:none"
       x="-17.712059"
       y="-1879.3464"
       id="text3006"
       sodipodi:linespacing="125%"><tspan
         style="text-align:end;text-anchor:end"
         sodipodi:role="line"
         id="tspan3008"
         x="-17.712025"
         y="-1879.3464">Расширения &gt; Отрисовка &gt; Box for robot</tspan><tspan
         style="text-align:end;text-anchor:end"
         sodipodi:role="line"
         x="-17.712019"
         y="-1808.8208"
         id="tspan3664">ширина (width): 390мм</tspan><tspan
         style="text-align:end;text-anchor:end"
         id="tspan3208"
         sodipodi:role="line"
         x="-17.712044"
         y="-1738.2952">высота (height): 220мм</tspan><tspan
         style="text-align:end;text-anchor:end"
         id="tspan3210"
         sodipodi:role="line"
         x="-17.712051"
         y="-1667.7695">глубина (depth): 80мм</tspan><tspan
         style="text-align:end;text-anchor:end"
         id="tspan3206"
         sodipodi:role="line"
         x="-17.71212"
         y="-1597.244">толщина бумаги (paper thickness): 2мм</tspan><tspan
         style="text-align:end;text-anchor:end"
         id="tspan4326"
         sodipodi:role="line"
         x="-17.71209"
         y="-1526.7184">уши для защелок (cramp ear height): 4мм</tspan><tspan
         style="text-align:end;text-anchor:end"
         id="tspan4328"
         sodipodi:role="line"
         x="-17.712154"
         y="-1456.1927">длина пунктира (bend line dash width): 5мм</tspan><tspan
         style="text-align:end;text-anchor:end"
         id="tspan4330"
         sodipodi:role="line"
         x="-17.712029"
         y="-1385.6671">шаг пунктира (bend line dash step): 5мм</tspan><tspan
         style="text-align:end;text-anchor:end"
         sodipodi:role="line"
         x="-17.712059"
         y="-1315.1415"
         id="tspan3010">линия сгиба: middle</tspan><tspan
         style="text-align:end;text-anchor:end"
         sodipodi:role="line"
         x="-17.712059"
         y="-1244.6158"
         id="tspan3012" /></text>
    <g
       id="g3555"
       inkscape:label="RobotBox"
       transform="matrix(1,0,0,-1,624.83071,1051.862)">
      <path
         id="path3557"
         style="fill:none;stroke:#000000"
         d="m 0,0 -382.67717,0 0,283.46457 382.67717,0 0,7.08661 -12.755906,0 -290.551184,0 -19.84252,0 -287.00787,0 0,155.90551 -14.17323,7.08662 0,141.73228 14.17323,7.08661 0,155.90552 -14.17323,7.08661 0,141.73228 14.17323,7.08662 0,155.90547 287.00787,0 19.84252,0 290.551184,0 12.755906,0 0,7.0867 -382.67717,0 0,283.4645 382.67717,0 14.173228,0 0,7.0866 -188.976378,88.8189 0,601.8898 188.976378,88.8189 0,14.1732 -21.2598422,0 c -141.7322858,0 -311.8110258,0 -248.0314958,124.0158 35.43307,70.8661 106.29921,159.4488 248.0314958,159.4488 l 1417.3228142,0 c 141.7323,0 212.5984,-88.5827 248.0315,-159.4488 63.7795,-124.0158 -106.2992,-124.0158 -248.0315,-124.0158 l -21.2598,0 0,-14.1732 188.9764,-88.8189 0,-601.8898 -188.9764,-88.8189 0,-7.0866 14.1732,0 382.6772,0 0,-283.4645 -382.6772,0 0,-7.0867 12.7559,0 290.5512,0 19.8425,0 287.0079,0 0,-155.90547 14.1732,-7.08662 0,-141.73228 -14.1732,-7.08661 0,-155.90552 14.1732,-7.08661 0,-141.73228 -14.1732,-7.08662 0,-155.90551 -287.0079,0 -19.8425,0 -290.5512,0 -12.7559,0 0,-7.08661 382.6772,0 0,-283.46457 -382.6772,0 z"
         inkscape:connector-curvature="0" />
      <path
         id="path3559"
         style="fill:none;stroke:#000000"
         d="m 3.5433071,446.45669 7.0866139,0 0,155.90551 -7.0866139,0 z"
         inkscape:connector-curvature="0" />
      <path
         id="path3561"
         style="fill:none;stroke:#000000"
         d="m 3.5433071,758.26772 7.0866139,0 0,155.90551 -7.0866139,0 z"
         inkscape:connector-curvature="0" />
      <path
         id="path3563"
         style="fill:none;stroke:#000000"
         d="m 1399.6063,914.17323 -7.0866,0 0,-155.90551 7.0866,0 z"
         inkscape:connector-curvature="0" />
      <path
         id="path3565"
         style="fill:none;stroke:#000000"
         d="m 1399.6063,602.3622 -7.0866,0 0,-155.90551 7.0866,0 z"
         inkscape:connector-curvature="0" />
      <path
         id="path3567"
         style="fill:none;stroke:#44aaff;stroke-dasharray:17.71653543, 17.71653543;stroke-dashoffset:17.71653557"
         d="M 0,0 0,283.46457"
         inkscape:connector-curvature="0" />
      <path
         id="path3569"
         style="fill:none;stroke:#44aaff;stroke-dasharray:17.71653543, 17.71653543;stroke-dashoffset:17.71653557"
         d="m -12.755906,290.55118 0,779.52752"
         inkscape:connector-curvature="0" />
      <path
         id="path3571"
         style="fill:none;stroke:#44aaff;stroke-dasharray:17.71653543, 17.71653543;stroke-dashoffset:17.71653557"
         d="m 0,1077.1654 0,283.4645"
         inkscape:connector-curvature="0" />
      <path
         id="path3573"
         style="fill:none;stroke:#44aaff;stroke-dasharray:17.71653543, 17.71653543;stroke-dashoffset:17.71653557"
         d="m 14.173228,1367.7165 0,779.5276"
         inkscape:connector-curvature="0" />
      <path
         id="path3575"
         style="fill:none;stroke:#44aaff;stroke-dasharray:17.71653543, 17.71653543;stroke-dashoffset:17.71653557"
         d="m -7.0866142,2161.4173 0,283.4646"
         inkscape:connector-curvature="0" />
      <path
         id="path3577"
         style="fill:none;stroke:#44aaff;stroke-dasharray:17.71653543, 17.71653543;stroke-dashoffset:17.71653557"
         d="m -303.30709,290.55118 0,779.52752"
         inkscape:connector-curvature="0" />
      <path
         id="path3579"
         style="fill:none;stroke:#44aaff;stroke-dasharray:17.71653543, 17.71653543;stroke-dashoffset:17.71653557"
         d="m -323.14961,290.55118 0,779.52752"
         inkscape:connector-curvature="0" />
      <path
         id="path3581"
         style="fill:none;stroke:#44aaff;stroke-dasharray:17.71653543, 17.71653543;stroke-dashoffset:17.71653557"
         d="m 1403.1496,0 0,283.46457"
         inkscape:connector-curvature="0" />
      <path
         id="path3583"
         style="fill:none;stroke:#44aaff;stroke-dasharray:17.71653543, 17.71653543;stroke-dashoffset:17.71653557"
         d="m 1415.9055,290.55118 0,779.52752"
         inkscape:connector-curvature="0" />
      <path
         id="path3585"
         style="fill:none;stroke:#44aaff;stroke-dasharray:17.71653543, 17.71653543;stroke-dashoffset:17.71653557"
         d="m 1403.1496,1077.1654 0,283.4645"
         inkscape:connector-curvature="0" />
      <path
         id="path3587"
         style="fill:none;stroke:#44aaff;stroke-dasharray:17.71653543, 17.71653543;stroke-dashoffset:17.71653557"
         d="m 1388.9764,1367.7165 0,779.5276"
         inkscape:connector-curvature="0" />
      <path
         id="path3589"
         style="fill:none;stroke:#44aaff;stroke-dasharray:17.71653543, 17.71653543;stroke-dashoffset:17.71653557"
         d="m 1410.2362,2161.4173 0,283.4646"
         inkscape:connector-curvature="0" />
      <path
         id="path3591"
         style="fill:none;stroke:#44aaff;stroke-dasharray:17.71653543, 17.71653543;stroke-dashoffset:17.71653557"
         d="m 1706.4567,290.55118 0,779.52752"
         inkscape:connector-curvature="0" />
      <path
         id="path3593"
         style="fill:none;stroke:#44aaff;stroke-dasharray:17.71653543, 17.71653543;stroke-dashoffset:17.71653557"
         d="m 1726.2992,290.55118 0,779.52752"
         inkscape:connector-curvature="0" />
      <path
         id="path3595"
         style="fill:none;stroke:#44aaff;stroke-dasharray:17.71653543, 17.71653543;stroke-dashoffset:17.71653557"
         d="m 0,287.00787 1403.1496,0"
         inkscape:connector-curvature="0" />
      <path
         id="path3597"
         style="fill:none;stroke:#44aaff;stroke-dasharray:17.71653543, 17.71653543;stroke-dashoffset:17.71653557"
         d="m 0,1073.622 1403.1496,0"
         inkscape:connector-curvature="0" />
      <path
         id="path3599"
         style="fill:none;stroke:#44aaff;stroke-dasharray:17.71653543, 17.71653543;stroke-dashoffset:17.71653557"
         d="m 14.173228,1364.1732 1374.803172,0"
         inkscape:connector-curvature="0" />
      <path
         id="path3601"
         style="fill:none;stroke:#44aaff;stroke-dasharray:17.71653543, 17.71653543;stroke-dashoffset:17.71653557"
         d="m 14.173228,2157.874 1374.803172,0"
         inkscape:connector-curvature="0" />
    </g>
  </g>
</svg>
