<?xml version="1.0" encoding="UTF-8" standalone="no"?>
<!-- Created with Inkscape (http://www.inkscape.org/) -->

<svg
   xmlns:dc="http://purl.org/dc/elements/1.1/"
   xmlns:cc="http://creativecommons.org/ns#"
   xmlns:rdf="http://www.w3.org/1999/02/22-rdf-syntax-ns#"
   xmlns:svg="http://www.w3.org/2000/svg"
   xmlns="http://www.w3.org/2000/svg"
   xmlns:sodipodi="http://sodipodi.sourceforge.net/DTD/sodipodi-0.dtd"
   xmlns:inkscape="http://www.inkscape.org/namespaces/inkscape"
   width="1381.8898"
   height="744.09448"
   id="svg2"
   version="1.1"
   inkscape:version="0.48.4 r9939"
   sodipodi:docname="ложемент-набор.svg">
  <defs
     id="defs4" />
  <sodipodi:namedview
     id="base"
     pagecolor="#ffffff"
     bordercolor="#666666"
     borderopacity="1.0"
     inkscape:pageopacity="0.0"
     inkscape:pageshadow="2"
     inkscape:zoom="0.79195959"
     inkscape:cx="680.1333"
     inkscape:cy="246.788"
     inkscape:document-units="mm"
     inkscape:current-layer="layer1"
     showgrid="true"
     inkscape:window-width="1301"
     inkscape:window-height="744"
     inkscape:window-x="65"
     inkscape:window-y="24"
     inkscape:window-maximized="1"
     units="mm"
     inkscape:snap-bbox="true">
    <inkscape:grid
       type="xygrid"
       id="grid2985"
       empspacing="5"
       visible="true"
       enabled="true"
       snapvisiblegridlinesonly="true"
       units="mm"
       spacingx="5mm"
       spacingy="5mm" />
  </sodipodi:namedview>
  <metadata
     id="metadata7">
    <rdf:RDF>
      <cc:Work
         rdf:about="">
        <dc:format>image/svg+xml</dc:format>
        <dc:type
           rdf:resource="http://purl.org/dc/dcmitype/StillImage" />
        <dc:title />
      </cc:Work>
    </rdf:RDF>
  </metadata>
  <g
     inkscape:label="Layer 1"
     inkscape:groupmode="layer"
     id="layer1"
     transform="translate(0,-308.26769)">
    <rect
       style="fill:#afc6e9;fill-opacity:1;stroke:none"
       id="rect2997"
       width="1346.4567"
       height="726.37793"
       x="0"
       y="325.98419" />
    <rect
       style="fill:#5d0b26;fill-opacity:1;stroke:none"
       id="rect2987"
       width="407.48032"
       height="407.48035"
       x="35.433071"
       y="609.44873"
       ry="0" />
    <rect
       style="fill:#004455;fill-opacity:1;stroke:none"
       id="rect2987-1"
       width="248.03148"
       height="301.18109"
       x="496.06302"
       y="715.74799"
       ry="0" />
    <rect
       style="fill:#a02c89;fill-opacity:1;stroke:none"
       id="rect2987-1-7"
       width="549.21259"
       height="106.29924"
       x="496.06302"
       y="574.01569"
       ry="0" />
    <rect
       style="fill:#00aa00;fill-opacity:1;stroke:none"
       id="rect2987-1-4"
       width="177.16536"
       height="124.01575"
       x="850.39368"
       y="715.74799"
       ry="0" />
    <rect
       style="fill:#aa8800;fill-opacity:1;stroke:none"
       id="rect2987-1-48"
       width="212.59842"
       height="318.89764"
       x="1098.4252"
       y="361.4173"
       ry="0" />
    <rect
       style="fill:#220055;fill-opacity:1;stroke:none"
       id="rect2987-1-8"
       width="248.03149"
       height="283.46457"
       x="1062.9921"
       y="733.46454"
       ry="0" />
    <circle
       style="fill:#aa0000;fill-opacity:1;stroke:none"
       id="path3060"
       cx="123.87514"
       cy="459.73633"
       r="88.58268"
       d="m 212.45782,459.73633 c 0,48.92286 -39.65982,88.58268 -88.58268,88.58268 -48.922866,0 -88.582682,-39.65982 -88.582682,-88.58268 0,-48.92286 39.659816,-88.58268 88.582682,-88.58268 48.92286,0 88.58268,39.65982 88.58268,88.58268 z"
       sodipodi:cx="123.87514"
       sodipodi:cy="459.73633"
       sodipodi:rx="88.58268"
       sodipodi:ry="88.58268"
       transform="translate(0.14061329,-9.7363578)" />
    <circle
       style="fill:#aa0000;fill-opacity:1;stroke:none"
       id="path3060-1"
       cx="371.90662"
       cy="459.73633"
       r="88.58268"
       d="m 460.4893,459.73633 c 0,48.92286 -39.65982,88.58268 -88.58268,88.58268 -48.92287,0 -88.58268,-39.65982 -88.58268,-88.58268 0,-48.92286 39.65981,-88.58268 88.58268,-88.58268 48.92286,0 88.58268,39.65982 88.58268,88.58268 z"
       sodipodi:cx="371.90662"
       sodipodi:cy="459.73633"
       sodipodi:rx="88.58268"
       sodipodi:ry="88.58268"
       transform="translate(0.14061329,-9.7363578)" />
    <circle
       style="fill:#aa0000;fill-opacity:1;stroke:none"
       id="path3060-7"
       cx="619.93811"
       cy="459.73633"
       r="88.58268"
       d="m 708.52079,459.73633 c 0,48.92286 -39.65982,88.58268 -88.58268,88.58268 -48.92286,0 -88.58268,-39.65982 -88.58268,-88.58268 0,-48.92286 39.65982,-88.58268 88.58268,-88.58268 48.92286,0 88.58268,39.65982 88.58268,88.58268 z"
       sodipodi:cx="619.93811"
       sodipodi:cy="459.73633"
       sodipodi:rx="88.58268"
       sodipodi:ry="88.58268"
       transform="translate(0.14061329,-9.7363578)" />
    <circle
       style="fill:#aa0000;fill-opacity:1;stroke:none"
       id="path3060-11"
       cx="867.9696"
       cy="459.73633"
       r="88.58268"
       d="m 956.55228,459.73633 c 0,48.92286 -39.65981,88.58268 -88.58268,88.58268 -48.92286,0 -88.58268,-39.65982 -88.58268,-88.58268 0,-48.92286 39.65982,-88.58268 88.58268,-88.58268 48.92287,0 88.58268,39.65982 88.58268,88.58268 z"
       sodipodi:cx="867.9696"
       sodipodi:cy="459.73633"
       sodipodi:rx="88.58268"
       sodipodi:ry="88.58268"
       transform="translate(0.14061329,-9.7363578)" />
    <rect
       style="fill:#ffcc00;fill-opacity:1;stroke:none"
       id="rect2987-1-0-52"
       width="248.03146"
       height="141.73228"
       x="779.52759"
       y="875.19684"
       ry="0" />
    <rect
       style="fill:#afc6e9;fill-opacity:1;stroke:none"
       id="rect2997-1"
       width="1346.4567"
       height="726.37793"
       x="-6.7282849e-006"
       y="-435.82681" />
  </g>
</svg>
