<?xml version="1.0" encoding="UTF-8" standalone="no"?>
<!-- Created with Inkscape (http://www.inkscape.org/) -->

<svg
   xmlns:dc="http://purl.org/dc/elements/1.1/"
   xmlns:cc="http://creativecommons.org/ns#"
   xmlns:rdf="http://www.w3.org/1999/02/22-rdf-syntax-ns#"
   xmlns:svg="http://www.w3.org/2000/svg"
   xmlns="http://www.w3.org/2000/svg"
   xmlns:sodipodi="http://sodipodi.sourceforge.net/DTD/sodipodi-0.dtd"
   xmlns:inkscape="http://www.inkscape.org/namespaces/inkscape"
   width="280mm"
   height="180mm"
   viewBox="0 0 992.12596 637.79527"
   id="svg2"
   version="1.1"
   inkscape:version="0.91 r"
   sodipodi:docname="holder-contacts-d1mm.svg">
  <defs
     id="defs4" />
  <sodipodi:namedview
     id="base"
     pagecolor="#ffffff"
     bordercolor="#666666"
     borderopacity="1.0"
     inkscape:pageopacity="0.0"
     inkscape:pageshadow="2"
     inkscape:zoom="0.56"
     inkscape:cx="73.134797"
     inkscape:cy="369.35749"
     inkscape:document-units="mm"
     inkscape:current-layer="layer2"
     showgrid="true"
     inkscape:window-width="1301"
     inkscape:window-height="744"
     inkscape:window-x="65"
     inkscape:window-y="24"
     inkscape:window-maximized="1"
     inkscape:snap-bbox="true"
     inkscape:bbox-nodes="true"
     inkscape:object-nodes="false"
     showguides="true"
     inkscape:guide-bbox="true"
     inkscape:snap-smooth-nodes="false"
     inkscape:snap-midpoints="false"
     inkscape:snap-global="true"
     inkscape:bbox-paths="false">
    <inkscape:grid
       type="xygrid"
       id="grid3336"
       units="mm"
       spacingx="3.5433072"
       spacingy="3.5433069"
       dotted="true"
       empspacing="10" />
    <inkscape:grid
       type="xygrid"
       id="grid5100"
       units="mm"
       spacingx="3.5433071"
       spacingy="3.5433072" />
  </sodipodi:namedview>
  <metadata
     id="metadata7">
    <rdf:RDF>
      <cc:Work
         rdf:about="">
        <dc:format>image/svg+xml</dc:format>
        <dc:type
           rdf:resource="http://purl.org/dc/dcmitype/StillImage" />
        <dc:title></dc:title>
      </cc:Work>
    </rdf:RDF>
  </metadata>
  <g
     inkscape:label="contacts"
     inkscape:groupmode="layer"
     id="layer1"
     transform="translate(0,-414.56693)">
    <path
       inkscape:connector-curvature="0"
       style="fill:#ff7f2a;fill-opacity:1;stroke:#000000;stroke-width:3.54330707;stroke-linejoin:round;stroke-miterlimit:4;stroke-dasharray:none;stroke-opacity:1"
       d="m 53.14968,1047.0593 -8.87398,0 0,1.7597 c -2e-4,0.9783 -0.7932,1.7714 -1.7715,1.7715 l -12.375,0 c -0.9783,-10e-5 -1.7713,-0.7932 -1.7715,-1.7715 l 0,-1.7597 -10.6411,0 m -7.0866,0 -3.5321,0 c -0.9783,-10e-5 -1.7713,-0.7932 -1.7715,-1.7715 l 0,-42.5313 c 2e-4,-0.9783 0.7932,-1.7713 1.7715,-1.7715 l 5.291,0 0,-10.61516 -8.8476,-0.01 c -0.9776,-0.001 -1.7694,-0.79394 -1.7696,-1.7715 l 0,-7.0937 c 2e-4,-0.97907 0.7944,-1.77242 1.7735,-1.7715 l 12.4297,0.01 c 1.9686,0 3.5105,-1.5227 3.5078,-3.539 0,-2.0202 -1.5483,-3.5423 -3.5098,-3.543 l -12.4297,-0.01 c -0.9775,-0.001 -1.7693,-0.79398 -1.7695,-1.7715 l 0,-7.0938 0,0.002 c 2e-4,-0.97907 0.7944,-1.77242 1.7735,-1.7715 l 3.5415,0.003 m 7.0866,0.006 1.8016,0.002 c 4.3642,0 8.3019,2.0647 10.9316,5.3125 l 93.56601,-0.0106 m 7.08662,-7.7e-4 5.31418,-6.3e-4 c 0.9783,1.9e-4 1.77132,0.79321 1.7715,1.7715 l 0,14.1875 c -1.8e-4,0.9783 -0.7932,1.77132 -1.7715,1.7715 l -105.91801,0.012 c -0.1201,0.1504 -0.2403,0.3012 -0.3672,0.4472 l 0,15.47846 38.94745,0 c 0.97826,3e-4 1.77122,0.7933 1.7714,1.7715 l 0,42.5313 c -1.8e-4,0.9783 -0.79314,1.7713 -1.7714,1.7715 l -5.29926,0"
       id="path4325-3"
       sodipodi:nodetypes="ccccccccccccccccccccccccccccccccccccccccccccc" />
    <path
       inkscape:connector-curvature="0"
       style="fill:#ff7f2a;fill-opacity:1;stroke:#000000;stroke-width:3.54330707;stroke-linejoin:round;stroke-miterlimit:4;stroke-dasharray:none;stroke-opacity:1"
       d="m 173.62211,965.53754 8.87398,0 0,-1.7597 c 2e-4,-0.9783 0.7932,-1.77132 1.7715,-1.7715 l 12.375,0 c 0.9783,1.8e-4 1.7713,0.7932 1.7715,1.7715 l 0,1.7597 10.6411,0 m 7.0866,0 3.5321,0 c 0.9783,1.8e-4 1.7713,0.7932 1.7715,1.7715 l 0,42.53126 c -2e-4,0.9783 -0.7932,1.7714 -1.7715,1.7715 l -5.291,0 0,10.6152 8.8476,0.01 c 0.9776,0 1.7694,0.794 1.7696,1.7715 l 0,7.0937 c -2e-4,0.9791 -0.7944,1.7725 -1.7735,1.7715 l -12.4297,-0.01 c -1.9686,0 -3.5105,1.5227 -3.5078,3.539 0,2.0202 1.5483,3.5423 3.5098,3.543 l 12.4297,0.01 c 0.9775,0 1.7693,0.794 1.7695,1.7715 l 0,7.0938 0,-0 c -2e-4,0.9791 -0.7944,1.7725 -1.7735,1.7715 l -3.5415,-0 m -7.0866,-0.01 -1.8016,-0 c -4.3642,0 -8.3019,-2.0647 -10.9316,-5.3125 l -93.56601,0.011 m -7.08662,8e-4 -5.31418,6e-4 c -0.9783,-10e-5 -1.77132,-0.7932 -1.7715,-1.7715 l 0,-14.1875 c 1.8e-4,-0.9783 0.7932,-1.7713 1.7715,-1.7715 l 105.91801,-0.012 c 0.1201,-0.1504 0.2403,-0.3012 0.3672,-0.4472 l 0,-15.4785 -38.94745,0 c -0.97826,-2e-4 -1.77122,-0.7932 -1.7714,-1.7715 l 0,-42.53126 c 1.8e-4,-0.97826 0.79314,-1.77127 1.7714,-1.7715 l 5.29926,0"
       id="path4325-3-6"
       sodipodi:nodetypes="ccccccccccccccccccccccccccccccccccccccccccccc" />
    <path
       inkscape:connector-curvature="0"
       style="fill:#ff7f2a;fill-opacity:1;stroke:#000000;stroke-width:3.54330707;stroke-linejoin:round;stroke-miterlimit:4;stroke-dasharray:none;stroke-opacity:1"
       d="m 53.149635,940.76014 -8.873981,0 0,1.7597 c -2e-4,0.9783 -0.7932,1.7714 -1.7715,1.7715 l -12.375,0 c -0.9783,-10e-5 -1.7713,-0.7932 -1.7715,-1.7715 l 0,-1.7597 -10.641099,0 m -7.0866,0 -3.5321015,0 c -0.9783,-10e-5 -1.7713,-0.7932 -1.7715,-1.7715 l 0,-42.5313 c 2e-4,-0.9783 0.7932,-1.7713 1.7715,-1.7715 l 5.2910015,0 0,-10.61516 -8.8476015,-0.01 c -0.9776,-0.001 -1.7694,-0.79394 -1.7696,-1.7715 l 0,-7.0937 c 2e-4,-0.97907 0.7944,-1.77242 1.7735,-1.7715 l 12.4297015,0.01 c 1.9686,0 3.5105,-1.5227 3.5078,-3.539 0,-2.0202 -1.5483,-3.5423 -3.5098,-3.543 l -12.4297015,-0.01 c -0.9775,-0.001 -1.7693,-0.79398 -1.7695,-1.7715 l 0,-7.0938 0,0.002 c 2e-4,-0.97907 0.7944,-1.77242 1.7735,-1.7715 l 3.5415,0.003 m 7.0866015,0.006 1.8016,0.002 c 4.3642,0 8.3019,2.0647 10.931599,5.3125 l 93.566006,-0.0106 m 7.08662,-7.7e-4 5.31418,-6.3e-4 c 0.9783,1.9e-4 1.77132,0.79321 1.7715,1.7715 l 0,14.1875 c -1.8e-4,0.9783 -0.7932,1.77132 -1.7715,1.7715 l -105.918006,0.012 c -0.1201,0.1504 -0.2403,0.3012 -0.3672,0.4472 l 0,15.47846 38.947451,0 c 0.97826,3e-4 1.77122,0.7933 1.7714,1.7715 l 0,42.5313 c -1.8e-4,0.9783 -0.79314,1.7713 -1.7714,1.7715 l -5.29926,0"
       id="path4325-3-9"
       sodipodi:nodetypes="ccccccccccccccccccccccccccccccccccccccccccccc" />
    <path
       inkscape:connector-curvature="0"
       style="fill:#ff7f2a;fill-opacity:1;stroke:#000000;stroke-width:3.54330707;stroke-linejoin:round;stroke-miterlimit:4;stroke-dasharray:none;stroke-opacity:1"
       d="m 173.62206,859.23838 8.87398,0 0,-1.7597 c 2e-4,-0.9783 0.7932,-1.77132 1.7715,-1.7715 l 12.375,0 c 0.9783,1.8e-4 1.7713,0.7932 1.7715,1.7715 l 0,1.7597 10.6411,0 m 7.0866,0 3.5321,0 c 0.9783,1.8e-4 1.7713,0.7932 1.7715,1.7715 l 0,42.53126 c -2e-4,0.9783 -0.7932,1.7714 -1.7715,1.7715 l -5.291,0 0,10.6152 8.8476,0.01 c 0.9776,0 1.7694,0.794 1.7696,1.7715 l 0,7.0937 c -2e-4,0.9791 -0.7944,1.7725 -1.7735,1.7715 l -12.4297,-0.01 c -1.9686,0 -3.5105,1.5227 -3.5078,3.539 0,2.0202 1.5483,3.5423 3.5098,3.543 l 12.4297,0.01 c 0.9775,0 1.7693,0.794 1.7695,1.7715 l 0,7.0938 0,0 c -2e-4,0.9791 -0.7944,1.7725 -1.7735,1.7715 l -3.5415,0 m -7.0866,-0.01 -1.8016,0 c -4.3642,0 -8.3019,-2.0647 -10.9316,-5.3125 l -93.56601,0.011 m -7.086615,8e-4 -5.31418,6e-4 c -0.9783,-10e-5 -1.77132,-0.7932 -1.7715,-1.7715 l 0,-14.1875 c 1.8e-4,-0.9783 0.7932,-1.7713 1.7715,-1.7715 l 105.918005,-0.012 c 0.1201,-0.1504 0.2403,-0.3012 0.3672,-0.4472 l 0,-15.4785 -38.94745,0 c -0.97826,-2e-4 -1.77122,-0.7932 -1.7714,-1.7715 l 0,-42.53126 c 1.8e-4,-0.97826 0.79314,-1.77127 1.7714,-1.7715 l 5.29926,0"
       id="path4325-3-6-6"
       sodipodi:nodetypes="ccccccccccccccccccccccccccccccccccccccccccccc" />
    <path
       inkscape:connector-curvature="0"
       style="fill:#ff7f2a;fill-opacity:1;stroke:#000000;stroke-width:3.54330707;stroke-linejoin:round;stroke-miterlimit:4;stroke-dasharray:none;stroke-opacity:1"
       d="m 53.149635,834.46093 -8.873981,0 0,1.7597 c -2e-4,0.9783 -0.7932,1.7714 -1.7715,1.7715 l -12.375,0 c -0.9783,-10e-5 -1.7713,-0.7932 -1.7715,-1.7715 l 0,-1.7597 -10.641099,0 m -7.0866,0 -3.5321015,0 c -0.9783,-10e-5 -1.7713,-0.7932 -1.7715,-1.7715 l 0,-42.5313 c 2e-4,-0.9783 0.7932,-1.7713 1.7715,-1.7715 l 5.2910015,0 0,-10.61516 -8.8476015,-0.01 c -0.9776,-10e-4 -1.7694,-0.79394 -1.7696,-1.7715 l 0,-7.0937 c 2e-4,-0.97907 0.7944,-1.77242 1.7735,-1.7715 l 12.4297015,0.01 c 1.9686,0 3.5105,-1.5227 3.5078,-3.539 0,-2.0202 -1.5483,-3.5423 -3.5098,-3.543 l -12.4297015,-0.01 c -0.9775,-10e-4 -1.7693,-0.79398 -1.7695,-1.7715 l 0,-7.0938 0,0.002 c 2e-4,-0.97907 0.7944,-1.77242 1.7735,-1.7715 l 3.5415,0.003 m 7.0866015,0.006 1.8016,0.002 c 4.3642,0 8.3019,2.0647 10.931599,5.3125 l 93.566006,-0.0106 m 7.08662,-7.7e-4 5.31418,-6.3e-4 c 0.9783,1.9e-4 1.77132,0.79321 1.7715,1.7715 l 0,14.1875 c -1.8e-4,0.9783 -0.7932,1.77132 -1.7715,1.7715 l -105.918006,0.012 c -0.1201,0.1504 -0.2403,0.3012 -0.3672,0.4472 l 0,15.47846 38.947451,0 c 0.97826,3e-4 1.77122,0.7933 1.7714,1.7715 l 0,42.5313 c -1.8e-4,0.9783 -0.79314,1.7713 -1.7714,1.7715 l -5.29926,0"
       id="path4325-3-9-7"
       sodipodi:nodetypes="ccccccccccccccccccccccccccccccccccccccccccccc" />
    <path
       inkscape:connector-curvature="0"
       style="fill:#ff7f2a;fill-opacity:1;stroke:#000000;stroke-width:3.54330707;stroke-linejoin:round;stroke-miterlimit:4;stroke-dasharray:none;stroke-opacity:1"
       d="m 173.62206,752.93917 8.87398,0 0,-1.7597 c 2e-4,-0.9783 0.7932,-1.77132 1.7715,-1.7715 l 12.375,0 c 0.9783,1.8e-4 1.7713,0.7932 1.7715,1.7715 l 0,1.7597 10.6411,0 m 7.0866,0 3.5321,0 c 0.9783,1.8e-4 1.7713,0.7932 1.7715,1.7715 l 0,42.53126 c -2e-4,0.9783 -0.7932,1.7714 -1.7715,1.7715 l -5.291,0 0,10.6152 8.8476,0.01 c 0.9776,0 1.7694,0.794 1.7696,1.7715 l 0,7.0937 c -2e-4,0.9791 -0.7944,1.7725 -1.7735,1.7715 l -12.4297,-0.01 c -1.9686,0 -3.5105,1.5227 -3.5078,3.539 0,2.0202 1.5483,3.5423 3.5098,3.543 l 12.4297,0.01 c 0.9775,0 1.7693,0.794 1.7695,1.7715 l 0,7.0938 0,0 c -2e-4,0.9791 -0.7944,1.7725 -1.7735,1.7715 l -3.5415,0 m -7.0866,-0.01 -1.8016,0 c -4.3642,0 -8.3019,-2.0647 -10.9316,-5.3125 l -93.56601,0.011 m -7.086615,8e-4 -5.31418,6e-4 c -0.9783,-10e-5 -1.77132,-0.7932 -1.7715,-1.7715 l 0,-14.1875 c 1.8e-4,-0.9783 0.7932,-1.7713 1.7715,-1.7715 l 105.918005,-0.012 c 0.1201,-0.1504 0.2403,-0.3012 0.3672,-0.4472 l 0,-15.4785 -38.94745,0 c -0.97826,-2e-4 -1.77122,-0.7932 -1.7714,-1.7715 l 0,-42.53126 c 1.8e-4,-0.97826 0.79314,-1.77127 1.7714,-1.7715 l 5.29926,0"
       id="path4325-3-6-6-9"
       sodipodi:nodetypes="ccccccccccccccccccccccccccccccccccccccccccccc" />
    <path
       inkscape:connector-curvature="0"
       style="fill:#ff7f2a;fill-opacity:1;stroke:#000000;stroke-width:3.54330707;stroke-linejoin:round;stroke-miterlimit:4;stroke-dasharray:none;stroke-opacity:1"
       d="m 53.149634,728.16171 -8.87398,0 0,1.7597 c -2e-4,0.9783 -0.7932,1.7714 -1.7715,1.7715 l -12.375,0 c -0.9783,-10e-5 -1.7713,-0.7932 -1.7715,-1.7715 l 0,-1.7597 -10.6411,0 m -7.0866,0 -3.5321005,0 c -0.9783,-10e-5 -1.7713,-0.7932 -1.7715,-1.7715 l 0,-42.5313 c 2e-4,-0.9783 0.7932,-1.7713 1.7715,-1.7715 l 5.2910005,0 0,-10.61516 -8.8476005,-0.01 c -0.9776,-0.001 -1.7694,-0.79394 -1.7696,-1.7715 l 0,-7.0937 c 2e-4,-0.97907 0.7944,-1.77242 1.7735,-1.7715 l 12.4297005,0.01 c 1.9686,0 3.5105,-1.5227 3.5078,-3.539 0,-2.0202 -1.5483,-3.5423 -3.5098,-3.543 l -12.4297005,-0.01 c -0.9775,-10e-4 -1.7693,-0.79398 -1.7695,-1.7715 l 0,-7.0938 0,0.002 c 2e-4,-0.97907 0.7944,-1.77242 1.7735,-1.7715 l 3.5415,0.003 m 7.0866005,0.006 1.8016,0.002 c 4.3642,0 8.3019,2.0647 10.9316,5.3125 l 93.566006,-0.0106 m 7.08662,-7.7e-4 5.31418,-6.3e-4 c 0.9783,1.9e-4 1.77132,0.79321 1.7715,1.7715 l 0,14.1875 c -1.8e-4,0.9783 -0.7932,1.77132 -1.7715,1.7715 l -105.918006,0.012 c -0.1201,0.1504 -0.2403,0.3012 -0.3672,0.4472 l 0,15.47846 38.94745,0 c 0.97826,3e-4 1.77122,0.7933 1.7714,1.7715 l 0,42.5313 c -1.8e-4,0.9783 -0.79314,1.7713 -1.7714,1.7715 l -5.29926,0"
       id="path4325-3-0"
       sodipodi:nodetypes="ccccccccccccccccccccccccccccccccccccccccccccc" />
    <path
       inkscape:connector-curvature="0"
       style="fill:#ff7f2a;fill-opacity:1;stroke:#000000;stroke-width:3.54330707;stroke-linejoin:round;stroke-miterlimit:4;stroke-dasharray:none;stroke-opacity:1"
       d="m 173.62206,646.63995 8.87398,0 0,-1.7597 c 2e-4,-0.9783 0.7932,-1.77132 1.7715,-1.7715 l 12.375,0 c 0.9783,1.8e-4 1.7713,0.7932 1.7715,1.7715 l 0,1.7597 10.6411,0 m 7.0866,0 3.5321,0 c 0.9783,1.8e-4 1.7713,0.7932 1.7715,1.7715 l 0,42.53126 c -2e-4,0.9783 -0.7932,1.7714 -1.7715,1.7715 l -5.291,0 0,10.6152 8.8476,0.01 c 0.9776,0 1.7694,0.794 1.7696,1.7715 l 0,7.0937 c -2e-4,0.9791 -0.7944,1.7725 -1.7735,1.7715 l -12.4297,-0.01 c -1.9686,0 -3.5105,1.5227 -3.5078,3.539 0,2.0202 1.5483,3.5423 3.5098,3.543 l 12.4297,0.01 c 0.9775,0 1.7693,0.794 1.7695,1.7715 l 0,7.0938 0,0 c -2e-4,0.9791 -0.7944,1.7725 -1.7735,1.7715 l -3.5415,0 m -7.0866,-0.01 -1.8016,0 c -4.3642,0 -8.3019,-2.0647 -10.9316,-5.3125 l -93.56601,0.011 m -7.086616,8e-4 -5.31418,6e-4 c -0.9783,-10e-5 -1.77132,-0.7932 -1.7715,-1.7715 l 0,-14.1875 c 1.8e-4,-0.9783 0.7932,-1.7713 1.7715,-1.7715 l 105.918006,-0.012 c 0.1201,-0.1504 0.2403,-0.3012 0.3672,-0.4472 l 0,-15.4785 -38.94745,0 c -0.97826,-2e-4 -1.77122,-0.7932 -1.7714,-1.7715 l 0,-42.53126 c 1.8e-4,-0.97826 0.79314,-1.77127 1.7714,-1.7715 l 5.29926,0"
       id="path4325-3-6-1"
       sodipodi:nodetypes="ccccccccccccccccccccccccccccccccccccccccccccc" />
    <path
       inkscape:connector-curvature="0"
       style="fill:#ff7f2a;fill-opacity:1;stroke:#000000;stroke-width:3.54330707;stroke-linejoin:round;stroke-miterlimit:4;stroke-dasharray:none;stroke-opacity:1"
       d="m 53.149589,621.86255 -8.873981,0 0,1.7597 c -2e-4,0.9783 -0.7932,1.7714 -1.7715,1.7715 l -12.375,0 c -0.9783,-10e-5 -1.7713,-0.7932 -1.7715,-1.7715 l 0,-1.7597 -10.641099,0 m -7.0866,0 -3.532102,0 c -0.9783,-1e-4 -1.7713,-0.7932 -1.7715,-1.7715 l 0,-42.5313 c 2e-4,-0.9783 0.7932,-1.7713 1.7715,-1.7715 l 5.291002,0 0,-10.61516 -8.847602,-0.01 c -0.9776,-10e-4 -1.7694,-0.79394 -1.7696,-1.7715 l 0,-7.0937 c 2e-4,-0.97907 0.7944,-1.77242 1.7735,-1.7715 l 12.429702,0.01 c 1.9686,0 3.5105,-1.5227 3.5078,-3.539 0,-2.0202 -1.5483,-3.5423 -3.5098,-3.543 l -12.429702,-0.01 c -0.9775,-10e-4 -1.7693,-0.79398 -1.7695,-1.7715 l 0,-7.0938 0,0.002 c 2e-4,-0.97907 0.7944,-1.77242 1.7735,-1.7715 l 3.5415,0.003 m 7.086602,0.006 1.8016,0.002 c 4.3642,0 8.3019,2.0647 10.931599,5.3125 l 93.566002,-0.0106 m 7.08662,-7.7e-4 5.31418,-6.3e-4 c 0.9783,1.9e-4 1.77132,0.79321 1.7715,1.7715 l 0,14.1875 c -1.8e-4,0.9783 -0.7932,1.77132 -1.7715,1.7715 l -105.918002,0.012 c -0.1201,0.1504 -0.2403,0.3012 -0.3672,0.4472 l 0,15.47846 38.947451,0 c 0.97826,3e-4 1.77122,0.7933 1.7714,1.7715 l 0,42.5313 c -1.8e-4,0.9783 -0.79314,1.7713 -1.7714,1.7715 l -5.29926,0"
       id="path4325-3-9-9"
       sodipodi:nodetypes="ccccccccccccccccccccccccccccccccccccccccccccc" />
    <path
       inkscape:connector-curvature="0"
       style="fill:#ff7f2a;fill-opacity:1;stroke:#000000;stroke-width:3.54330707;stroke-linejoin:round;stroke-miterlimit:4;stroke-dasharray:none;stroke-opacity:1"
       d="m 173.62201,540.34079 8.87398,0 0,-1.7597 c 2e-4,-0.9783 0.7932,-1.77132 1.7715,-1.7715 l 12.375,0 c 0.9783,1.8e-4 1.7713,0.7932 1.7715,1.7715 l 0,1.7597 10.6411,0 m 7.0866,0 3.5321,0 c 0.9783,1.8e-4 1.7713,0.7932 1.7715,1.7715 l 0,42.53126 c -2e-4,0.9783 -0.7932,1.7714 -1.7715,1.7715 l -5.291,0 0,10.6152 8.8476,0.01 c 0.9776,0 1.7694,0.794 1.7696,1.7715 l 0,7.0937 c -2e-4,0.9791 -0.7944,1.7725 -1.7735,1.7715 l -12.4297,-0.01 c -1.9686,0 -3.5105,1.5227 -3.5078,3.539 0,2.0202 1.5483,3.5423 3.5098,3.543 l 12.4297,0.01 c 0.9775,0 1.7693,0.794 1.7695,1.7715 l 0,7.0938 0,0 c -2e-4,0.9791 -0.7944,1.7725 -1.7735,1.7715 l -3.5415,0 m -7.0866,-0.01 -1.8016,0 c -4.3642,0 -8.3019,-2.0647 -10.9316,-5.3125 l -93.56601,0.011 m -7.086611,8e-4 -5.31418,6e-4 c -0.9783,-10e-5 -1.77132,-0.7932 -1.7715,-1.7715 l 0,-14.1875 c 1.8e-4,-0.9783 0.7932,-1.7713 1.7715,-1.7715 l 105.918001,-0.012 c 0.1201,-0.1504 0.2403,-0.3012 0.3672,-0.4472 l 0,-15.4785 -38.94745,0 c -0.97826,-2e-4 -1.77122,-0.7932 -1.7714,-1.7715 l 0,-42.53126 c 1.8e-4,-0.97826 0.79314,-1.77127 1.7714,-1.7715 l 5.29926,0"
       id="path4325-3-6-6-0"
       sodipodi:nodetypes="ccccccccccccccccccccccccccccccccccccccccccccc" />
    <path
       inkscape:connector-curvature="0"
       style="fill:#ff7f2a;fill-opacity:1;stroke:#000000;stroke-width:3.54330707;stroke-linejoin:round;stroke-miterlimit:4;stroke-dasharray:none;stroke-opacity:1"
       d="m 53.149589,515.56334 -8.873981,0 0,1.7597 c -2e-4,0.9783 -0.7932,1.7714 -1.7715,1.7715 l -12.375,0 c -0.9783,-1e-4 -1.7713,-0.7932 -1.7715,-1.7715 l 0,-1.7597 -10.641099,0 m -7.0866,0 -3.532102,0 c -0.9783,-1e-4 -1.7713,-0.7932 -1.7715,-1.7715 l 0,-42.5313 c 2e-4,-0.9783 0.7932,-1.7713 1.7715,-1.7715 l 5.291002,0 0,-10.61516 -8.847602,-0.01 c -0.9776,-10e-4 -1.7694,-0.79394 -1.7696,-1.7715 l 0,-7.0937 c 2e-4,-0.97907 0.7944,-1.77242 1.7735,-1.7715 l 12.429702,0.01 c 1.9686,0 3.5105,-1.5227 3.5078,-3.539 0,-2.0202 -1.5483,-3.5423 -3.5098,-3.543 l -12.429702,-0.01 c -0.9775,-10e-4 -1.7693,-0.79398 -1.7695,-1.7715 l 0,-7.0938 0,0.002 c 2e-4,-0.97907 0.7944,-1.77242 1.7735,-1.7715 l 3.5415,0.003 m 7.086602,0.006 1.8016,0.002 c 4.3642,0 8.3019,2.0647 10.931599,5.3125 l 93.566002,-0.0106 m 7.08662,-7.7e-4 5.31418,-6.3e-4 c 0.9783,1.9e-4 1.77132,0.79321 1.7715,1.7715 l 0,14.1875 c -1.8e-4,0.9783 -0.7932,1.77132 -1.7715,1.7715 l -105.918002,0.012 c -0.1201,0.1504 -0.2403,0.3012 -0.3672,0.4472 l 0,15.47846 38.947451,0 c 0.97826,3e-4 1.77122,0.7933 1.7714,1.7715 l 0,42.5313 c -1.8e-4,0.9783 -0.79314,1.7713 -1.7714,1.7715 l -5.29926,0"
       id="path4325-3-9-7-0"
       sodipodi:nodetypes="ccccccccccccccccccccccccccccccccccccccccccccc" />
    <path
       inkscape:connector-curvature="0"
       style="fill:#ff7f2a;fill-opacity:1;stroke:#000000;stroke-width:3.54330707;stroke-linejoin:round;stroke-miterlimit:4;stroke-dasharray:none;stroke-opacity:1"
       d="m 173.62201,434.04158 8.87398,0 0,-1.7597 c 2e-4,-0.9783 0.7932,-1.77132 1.7715,-1.7715 l 12.375,0 c 0.9783,1.8e-4 1.7713,0.7932 1.7715,1.7715 l 0,1.7597 10.6411,0 m 7.0866,0 3.5321,0 c 0.9783,1.8e-4 1.7713,0.7932 1.7715,1.7715 l 0,42.53126 c -2e-4,0.9783 -0.7932,1.7714 -1.7715,1.7715 l -5.291,0 0,10.6152 8.8476,0.01 c 0.9776,0 1.7694,0.794 1.7696,1.7715 l 0,7.0937 c -2e-4,0.9791 -0.7944,1.7725 -1.7735,1.7715 l -12.4297,-0.01 c -1.9686,0 -3.5105,1.5227 -3.5078,3.539 0,2.0202 1.5483,3.5423 3.5098,3.543 l 12.4297,0.01 c 0.9775,0 1.7693,0.794 1.7695,1.7715 l 0,7.0938 0,0 c -2e-4,0.9791 -0.7944,1.7725 -1.7735,1.7715 l -3.5415,0 m -7.0866,-0.01 -1.8016,0 c -4.3642,0 -8.3019,-2.0647 -10.9316,-5.3125 l -93.56601,0.011 m -7.086611,8e-4 -5.31418,6e-4 c -0.9783,-10e-5 -1.77132,-0.7932 -1.7715,-1.7715 l 0,-14.1875 c 1.8e-4,-0.9783 0.7932,-1.7713 1.7715,-1.7715 l 105.918001,-0.012 c 0.1201,-0.1504 0.2403,-0.3012 0.3672,-0.4472 l 0,-15.4785 -38.94745,0 c -0.97826,-2e-4 -1.77122,-0.7932 -1.7714,-1.7715 l 0,-42.53126 c 1.8e-4,-0.97826 0.79314,-1.77127 1.7714,-1.7715 l 5.29926,0"
       id="path4325-3-6-6-9-7"
       sodipodi:nodetypes="ccccccccccccccccccccccccccccccccccccccccccccc" />
    <path
       inkscape:connector-curvature="0"
       style="fill:#aad400;fill-opacity:1;stroke:#000000;stroke-width:3.54330707;stroke-linejoin:round;stroke-miterlimit:4;stroke-dasharray:none;stroke-opacity:1"
       d="m 249.80315,1016.9301 0,31.889 c 2e-4,0.9783 0.7932,1.7713 1.7715,1.7715 l 56.6931,0 m 7.08662,0 7.08758,0 c 0.97828,-2e-4 1.77129,-0.7932 1.77148,-1.7715 l 0,-14.1719 c -1.9e-4,-0.9783 -0.7932,-1.7713 -1.77148,-1.7715 l -40.7501,0 0,-35.43166 40.7501,0 c 0.97828,-1.9e-4 1.77129,-0.7932 1.77148,-1.77148 l 0,-14.17383 0,4e-5 c -1.9e-4,-0.97828 -0.7932,-1.77129 -1.77148,-1.77147 l -7.08758,0 m -7.08662,0 -56.6931,0 c -0.9783,1.8e-4 -1.7713,0.79318 -1.7715,1.77147 l 0,28.34673"
       id="path4284-7-93-20-7"
       sodipodi:nodetypes="ccccccccccccccccccccc" />
    <path
       inkscape:connector-curvature="0"
       style="fill:#aad400;fill-opacity:1;stroke:#000000;stroke-width:3.54330707;stroke-linejoin:round;stroke-miterlimit:4;stroke-dasharray:none;stroke-opacity:1"
       d="m 249.80315,928.34735 0,31.88903 c 2e-4,0.97829 0.7932,1.77131 1.7715,1.77149 l 56.6931,0 m 7.08662,0 7.08758,0 c 0.97828,-1.9e-4 1.77129,-0.79321 1.77148,-1.77149 l 0,-14.17187 c -1.9e-4,-0.97828 -0.7932,-1.7713 -1.77148,-1.77149 l -40.7501,-0.002 0,-35.43164 40.7501,0 c 0.97828,-1.8e-4 1.77129,-0.7932 1.77148,-1.77148 l 0,-14.17383 0,5e-5 c -1.9e-4,-0.97829 -0.7932,-1.77129 -1.77148,-1.77149 l -7.08758,0 m -7.08662,0 -56.6931,0 c -0.9783,1.8e-4 -1.7713,0.7932 -1.7715,1.77149 l 0,28.34663"
       id="path4284-7-93-20-7-9"
       sodipodi:nodetypes="ccccccccccccccccccccc" />
    <path
       inkscape:connector-curvature="0"
       style="fill:#aad400;fill-opacity:1;stroke:#000000;stroke-width:3.54330707;stroke-linejoin:round;stroke-miterlimit:4;stroke-dasharray:none;stroke-opacity:1"
       d="m 249.80315,839.76468 0,31.88903 c 2e-4,0.97829 0.7932,1.77131 1.7715,1.77149 l 56.6931,0 m 7.08662,0 7.08758,0 c 0.97828,-1.9e-4 1.77129,-0.79321 1.77148,-1.77149 l 0,-14.17187 c -1.9e-4,-0.97828 -0.7932,-1.7713 -1.77148,-1.77149 l -40.7501,-0.002 0,-35.43164 40.7501,0 c 0.97828,-1.9e-4 1.77129,-0.7932 1.77148,-1.77148 l 0,-14.17383 0,5e-5 c -1.9e-4,-0.97829 -0.7932,-1.77129 -1.77148,-1.77149 l -7.08758,0 m -7.08662,0 -56.6931,0 c -0.9783,1.8e-4 -1.7713,0.7932 -1.7715,1.77149 l 0,28.34663"
       id="path4284-7-93-20-7-98"
       sodipodi:nodetypes="ccccccccccccccccccccc" />
    <path
       inkscape:connector-curvature="0"
       style="fill:#aad400;fill-opacity:1;stroke:#000000;stroke-width:3.54330707;stroke-linejoin:round;stroke-miterlimit:4;stroke-dasharray:none;stroke-opacity:1"
       d="m 249.80315,751.18201 0,31.88903 c 2e-4,0.97829 0.7932,1.7713 1.7715,1.77148 l 56.69309,0 m 7.08663,0 7.08758,0 c 0.97828,-1.9e-4 1.77129,-0.7932 1.77148,-1.77148 l 0,-14.17188 c -1.9e-4,-0.97828 -0.7932,-1.77129 -1.77148,-1.77148 l -40.7501,-0.002 0,-35.43164 40.7501,0 c 0.97828,-1.9e-4 1.77129,-0.7932 1.77148,-1.77148 l 0,-14.17383 0,4e-5 c -1.9e-4,-0.97828 -0.7932,-1.77129 -1.77148,-1.77148 l -7.08758,0 m -7.08663,0 -56.69309,0 c -0.9783,1.8e-4 -1.7713,0.79319 -1.7715,1.77148 l 0,28.34663"
       id="path4284-7-93-20-7-9-6"
       sodipodi:nodetypes="ccccccccccccccccccccc" />
    <path
       inkscape:connector-curvature="0"
       style="fill:#aad400;fill-opacity:1;stroke:#000000;stroke-width:3.54330707;stroke-linejoin:round;stroke-miterlimit:4;stroke-dasharray:none;stroke-opacity:1"
       d="m 249.80315,662.59934 0,31.88902 c 2e-4,0.97829 0.7932,1.77131 1.7715,1.77149 l 56.6931,0 m 7.08662,0 7.08758,0 c 0.97828,-1.9e-4 1.77129,-0.79321 1.77148,-1.77149 l 0,-14.17187 c -1.9e-4,-0.97828 -0.7932,-1.7713 -1.77148,-1.77149 l -40.7501,-0.002 0,-35.43164 40.7501,0 c 0.97828,-1.9e-4 1.77129,-0.79321 1.77148,-1.77148 l 0,-14.17384 0,5e-5 c -1.9e-4,-0.97828 -0.7932,-1.77129 -1.77148,-1.77149 l -7.08758,0 m -7.08662,0 -56.6931,0 c -0.9783,1.8e-4 -1.7713,0.7932 -1.7715,1.77149 l 0,28.34663"
       id="path4284-7-93-20-7-4"
       sodipodi:nodetypes="ccccccccccccccccccccc" />
    <path
       inkscape:connector-curvature="0"
       style="fill:#aad400;fill-opacity:1;stroke:#000000;stroke-width:3.54330707;stroke-linejoin:round;stroke-miterlimit:4;stroke-dasharray:none;stroke-opacity:1"
       d="m 249.80315,574.01665 0,31.88903 c 2e-4,0.97829 0.7932,1.7713 1.7715,1.77148 l 56.6931,0 m 7.08662,0 7.08758,0 c 0.97828,-1.8e-4 1.77129,-0.7932 1.77148,-1.77148 l 0,-14.17187 c -1.9e-4,-0.97829 -0.7932,-1.7713 -1.77148,-1.77149 l -40.7501,-0.002 0,-35.43164 40.7501,0 c 0.97828,-1.9e-4 1.77129,-0.7932 1.77148,-1.77148 l 0,-14.17383 0,4e-5 c -1.9e-4,-0.97828 -0.7932,-1.77129 -1.77148,-1.77148 l -7.08758,0 m -7.08662,0 -56.6931,0 c -0.9783,1.8e-4 -1.7713,0.79319 -1.7715,1.77148 l 0,28.34663"
       id="path4284-7-93-20-7-9-1"
       sodipodi:nodetypes="ccccccccccccccccccccc" />
    <path
       inkscape:connector-curvature="0"
       style="fill:#aad400;fill-opacity:1;stroke:#000000;stroke-width:3.54330707;stroke-linejoin:round;stroke-miterlimit:4;stroke-dasharray:none;stroke-opacity:1"
       d="m 249.80315,485.43397 0,31.88903 c 2e-4,0.9783 0.7932,1.7713 1.7715,1.77148 l 56.6931,0 m 7.08662,0 7.08758,0 c 0.97828,-1.9e-4 1.77129,-0.7932 1.77148,-1.77148 l 0,-14.17188 c -1.9e-4,-0.97828 -0.7932,-1.77129 -1.77148,-1.77148 l -40.7501,-0.002 0,-35.43164 40.7501,0 c 0.97828,-1.9e-4 1.77129,-0.7932 1.77148,-1.77148 l 0,-14.17383 0,4e-5 c -1.9e-4,-0.97828 -0.7932,-1.77129 -1.77148,-1.77148 l -7.08758,0 m -7.08662,0 -56.6931,0 c -0.9783,1.8e-4 -1.7713,0.79319 -1.7715,1.77148 l 0,28.34663"
       id="path4284-7-93-20-7-7"
       sodipodi:nodetypes="ccccccccccccccccccccc" />
    <path
       inkscape:connector-curvature="0"
       style="fill:#aad400;fill-opacity:1;stroke:#000000;stroke-width:3.54330707;stroke-linejoin:round;stroke-miterlimit:4;stroke-dasharray:none;stroke-opacity:1"
       d="m 338.3858,1016.93 0,31.8891 c 2e-4,0.9783 0.7932,1.7713 1.7715,1.7714 l 56.69315,0 m 7.0866,0 7.0876,0 c 0.9783,-10e-5 1.7713,-0.7932 1.7715,-1.7714 l 0,-14.1719 c -2e-4,-0.9783 -0.7932,-1.7713 -1.7715,-1.7715 l -40.75015,0 0,-35.43169 40.75015,0 c 0.9783,-1.9e-4 1.7713,-0.7932 1.7715,-1.77148 l 0,-14.17383 0,4e-5 c -2e-4,-0.97828 -0.7932,-1.77129 -1.7715,-1.77148 l -7.0876,0 m -7.0866,0 -56.69315,0 c -0.9783,1.8e-4 -1.7713,0.79319 -1.7715,1.77148 l 0,28.34666"
       id="path4284-7-93-20-7-1"
       sodipodi:nodetypes="ccccccccccccccccccccc" />
    <path
       inkscape:connector-curvature="0"
       style="fill:#aad400;fill-opacity:1;stroke:#000000;stroke-width:3.54330707;stroke-linejoin:round;stroke-miterlimit:4;stroke-dasharray:none;stroke-opacity:1"
       d="m 338.38586,928.34726 0,31.88903 c 2e-4,0.97829 0.7932,1.7713 1.7715,1.77148 l 56.69305,0 m 7.08662,0 7.08758,0 c 0.97828,-1.9e-4 1.77129,-0.7932 1.77148,-1.77148 l 0,-14.17188 c -1.9e-4,-0.97828 -0.7932,-1.77129 -1.77148,-1.77148 l -40.75005,-0.002 0,-35.43164 40.75005,0 c 0.97828,-1.9e-4 1.77129,-0.7932 1.77148,-1.77148 l 0,-14.17383 0,4e-5 c -1.9e-4,-0.97828 -0.7932,-1.77129 -1.77148,-1.77148 l -7.08758,0 m -7.08662,0 -56.69305,0 c -0.9783,1.8e-4 -1.7713,0.79319 -1.7715,1.77148 l 0,28.34663"
       id="path4284-7-93-20-7-9-9"
       sodipodi:nodetypes="ccccccccccccccccccccc" />
    <path
       inkscape:connector-curvature="0"
       style="fill:#aad400;fill-opacity:1;stroke:#000000;stroke-width:3.54330707;stroke-linejoin:round;stroke-miterlimit:4;stroke-dasharray:none;stroke-opacity:1"
       d="m 338.38583,839.76461 0,31.88903 c 2e-4,0.97829 0.7932,1.7713 1.7715,1.77148 l 56.6931,0 m 7.08662,0 7.08758,0 c 0.97828,-1.8e-4 1.77129,-0.7932 1.77148,-1.77148 l 0,-14.17188 c -1.9e-4,-0.97828 -0.7932,-1.77129 -1.77148,-1.77148 l -40.7501,-0.002 0,-35.43164 40.7501,0 c 0.97828,-1.9e-4 1.77129,-0.7932 1.77148,-1.77148 l 0,-14.17383 0,4e-5 c -1.9e-4,-0.97828 -0.7932,-1.77129 -1.77148,-1.77148 l -7.08758,0 m -7.08662,0 -56.6931,0 c -0.9783,1.8e-4 -1.7713,0.79319 -1.7715,1.77148 l 0,28.34663"
       id="path4284-7-93-20-7-98-5"
       sodipodi:nodetypes="ccccccccccccccccccccc" />
    <path
       inkscape:connector-curvature="0"
       style="fill:#aad400;fill-opacity:1;stroke:#000000;stroke-width:3.54330707;stroke-linejoin:round;stroke-miterlimit:4;stroke-dasharray:none;stroke-opacity:1"
       d="m 338.38583,751.18194 0,31.88903 c 2e-4,0.97829 0.7932,1.7713 1.7715,1.77148 l 56.69309,0 m 7.08663,0 7.08758,0 c 0.97828,-1.9e-4 1.77129,-0.7932 1.77148,-1.77148 l 0,-14.17188 c -1.9e-4,-0.97828 -0.7932,-1.77129 -1.77148,-1.77148 l -40.7501,-0.002 0,-35.43164 40.7501,0 c 0.97828,-1.9e-4 1.77129,-0.79321 1.77148,-1.77148 l 0,-14.17384 0,5e-5 c -1.9e-4,-0.97828 -0.7932,-1.7713 -1.77148,-1.77148 l -7.08758,0 m -7.08663,0 -56.69309,0 c -0.9783,1.8e-4 -1.7713,0.79319 -1.7715,1.77148 l 0,28.34663"
       id="path4284-7-93-20-7-9-6-5"
       sodipodi:nodetypes="ccccccccccccccccccccc" />
    <path
       inkscape:connector-curvature="0"
       style="fill:#aad400;fill-opacity:1;stroke:#000000;stroke-width:3.54330707;stroke-linejoin:round;stroke-miterlimit:4;stroke-dasharray:none;stroke-opacity:1"
       d="m 338.38583,662.59926 0,31.88903 c 2e-4,0.97829 0.7932,1.77131 1.7715,1.77149 l 56.6931,0 m 7.08662,0 7.08758,0 c 0.97828,-1.9e-4 1.77129,-0.79321 1.77148,-1.77149 l 0,-14.17187 c -1.9e-4,-0.97829 -0.7932,-1.7713 -1.77148,-1.77149 l -40.7501,-0.002 0,-35.43164 40.7501,0 c 0.97828,-1.9e-4 1.77129,-0.7932 1.77148,-1.77148 l 0,-14.17383 0,5e-5 c -1.9e-4,-0.97829 -0.7932,-1.7713 -1.77148,-1.77149 l -7.08758,0 m -7.08662,0 -56.6931,0 c -0.9783,1.8e-4 -1.7713,0.7932 -1.7715,1.77149 l 0,28.34663"
       id="path4284-7-93-20-7-4-6"
       sodipodi:nodetypes="ccccccccccccccccccccc" />
    <path
       inkscape:connector-curvature="0"
       style="fill:#aad400;fill-opacity:1;stroke:#000000;stroke-width:3.54330707;stroke-linejoin:round;stroke-miterlimit:4;stroke-dasharray:none;stroke-opacity:1"
       d="m 338.38584,574.01659 0,31.88903 c 2e-4,0.97829 0.7932,1.7713 1.7715,1.77148 l 56.69309,0 m 7.08663,0 7.08758,0 c 0.97828,-1.9e-4 1.77129,-0.7932 1.77148,-1.77148 l 0,-14.17188 c -1.9e-4,-0.97828 -0.7932,-1.77129 -1.77148,-1.77148 l -40.7501,-0.002 0,-35.43164 40.7501,0 c 0.97828,-1.9e-4 1.77129,-0.7932 1.77148,-1.77148 l 0,-14.17383 0,4e-5 c -1.9e-4,-0.97828 -0.7932,-1.77129 -1.77148,-1.77148 l -7.08758,0 m -7.08663,0 -56.69309,0 c -0.9783,1.8e-4 -1.7713,0.79319 -1.7715,1.77148 l 0,28.34663"
       id="path4284-7-93-20-7-9-1-6"
       sodipodi:nodetypes="ccccccccccccccccccccc" />
    <path
       inkscape:connector-curvature="0"
       style="fill:#aad400;fill-opacity:1;stroke:#000000;stroke-width:3.54330707;stroke-linejoin:round;stroke-miterlimit:4;stroke-dasharray:none;stroke-opacity:1"
       d="m 338.38584,485.43391 0,31.88903 c 2e-4,0.97829 0.7932,1.7713 1.7715,1.77148 l 56.6931,0 m 7.08662,0 7.08758,0 c 0.97827,-1.9e-4 1.77129,-0.7932 1.77148,-1.77148 l 0,-14.17188 c -1.9e-4,-0.97828 -0.79321,-1.77129 -1.77148,-1.77148 l -40.7501,-0.002 0,-35.43164 40.7501,0 c 0.97827,-1.9e-4 1.77129,-0.7932 1.77148,-1.77148 l 0,-14.17383 0,4e-5 c -1.9e-4,-0.97828 -0.79321,-1.77129 -1.77148,-1.77148 l -7.08758,0 m -7.08662,0 -56.6931,0 c -0.9783,1.8e-4 -1.7713,0.79319 -1.7715,1.77148 l 0,28.34663"
       id="path4284-7-93-20-7-7-5"
       sodipodi:nodetypes="ccccccccccccccccccccc" />
    <path
       inkscape:connector-curvature="0"
       style="fill:#ffcc00;fill-opacity:1;stroke:#000000;stroke-width:3.54330707;stroke-miterlimit:4;stroke-dasharray:none;stroke-opacity:1"
       d="m 469.48831,1020.4725 0,-3.544 c -1.8e-4,-0.9783 -0.7932,-1.7713 -1.7715,-1.7715 l -12.4023,0 c -0.9783,2e-4 -1.77132,0.7932 -1.7715,1.7715 l 0,1.7715 -7.0879,0 0,-1.7715 c -1.8e-4,-0.9783 -0.7932,-1.7713 -1.7715,-1.7715 l -12.4004,0 c -0.97826,2e-4 -1.77122,0.7932 -1.7714,1.7715 l 0,3.544 m 0,7.0866 0,21.26 c 1.8e-4,0.9783 0.79314,1.7713 1.7714,1.7715 l 14.17348,0 m 7.08662,0 14.1735,0 c 0.9783,-2e-4 1.77132,-0.7932 1.7715,-1.7715 l 0,-21.26"
       id="path4723-7"
       sodipodi:nodetypes="cccccccccccccccccccc" />
    <path
       inkscape:connector-curvature="0"
       style="fill:#ffcc00;fill-opacity:1;stroke:#000000;stroke-width:3.54330707;stroke-miterlimit:4;stroke-dasharray:none;stroke-opacity:1"
       d="m 469.48831,970.86611 0,-3.544 c -1.8e-4,-0.9783 -0.7932,-1.7713 -1.7715,-1.7715 l -12.4023,0 c -0.9783,2e-4 -1.77132,0.7932 -1.7715,1.7715 l 0,1.7715 -7.0879,0 0,-1.7715 c -1.8e-4,-0.9783 -0.7932,-1.7713 -1.7715,-1.7715 l -12.4004,0 c -0.97826,2e-4 -1.77122,0.7932 -1.7714,1.7715 l 0,3.544 m 0,7.0866 0,21.26004 c 1.8e-4,0.97835 0.79314,1.77135 1.7714,1.77155 l 14.17348,0 m 7.08662,0 14.1735,0 c 0.9783,-2e-4 1.77132,-0.7932 1.7715,-1.77155 l 0,-21.26004"
       id="path4723-7-2"
       sodipodi:nodetypes="cccccccccccccccccccc" />
    <path
       inkscape:connector-curvature="0"
       style="fill:#ffcc00;fill-opacity:1;stroke:#000000;stroke-width:3.54330707;stroke-miterlimit:4;stroke-dasharray:none;stroke-opacity:1"
       d="m 469.48831,921.25985 0,-3.544 c -1.8e-4,-0.9783 -0.7932,-1.7713 -1.7715,-1.7715 l -12.4023,0 c -0.9783,2e-4 -1.77132,0.7932 -1.7715,1.7715 l 0,1.7715 -7.0879,0 0,-1.7715 c -1.8e-4,-0.9783 -0.7932,-1.7713 -1.7715,-1.7715 l -12.4004,0 c -0.97826,2e-4 -1.77122,0.7932 -1.7714,1.7715 l 0,3.544 m 0,7.0866 0,21.26 c 1.8e-4,0.9783 0.79314,1.7713 1.7714,1.7715 l 14.17348,0 m 7.08662,0 14.1735,0 c 0.9783,-2e-4 1.77132,-0.7932 1.7715,-1.7715 l 0,-21.26"
       id="path4723-7-9"
       sodipodi:nodetypes="cccccccccccccccccccc" />
    <path
       inkscape:connector-curvature="0"
       style="fill:#ffcc00;fill-opacity:1;stroke:#000000;stroke-width:3.54330707;stroke-miterlimit:4;stroke-dasharray:none;stroke-opacity:1"
       d="m 469.48831,871.65346 0,-3.544 c -1.8e-4,-0.9783 -0.7932,-1.7713 -1.7715,-1.7715 l -12.4023,0 c -0.9783,2e-4 -1.77132,0.7932 -1.7715,1.7715 l 0,1.7715 -7.0879,0 0,-1.7715 c -1.8e-4,-0.9783 -0.7932,-1.7713 -1.7715,-1.7715 l -12.4004,0 c -0.97826,2e-4 -1.77122,0.7932 -1.7714,1.7715 l 0,3.544 m 0,7.0866 0,21.26004 c 1.8e-4,0.97835 0.79314,1.77135 1.7714,1.77155 l 14.17348,0 m 7.08662,0 14.1735,0 c 0.9783,-2e-4 1.77132,-0.7932 1.7715,-1.77155 l 0,-21.26004"
       id="path4723-7-2-5"
       sodipodi:nodetypes="cccccccccccccccccccc" />
    <path
       inkscape:connector-curvature="0"
       style="fill:#ffcc00;fill-opacity:1;stroke:#000000;stroke-width:3.54330707;stroke-miterlimit:4;stroke-dasharray:none;stroke-opacity:1"
       d="m 469.48831,822.04725 0,-3.544 c -1.8e-4,-0.9783 -0.7932,-1.7713 -1.7715,-1.7715 l -12.4023,0 c -0.9783,2e-4 -1.77132,0.7932 -1.7715,1.7715 l 0,1.7715 -7.0879,0 0,-1.7715 c -1.8e-4,-0.9783 -0.7932,-1.7713 -1.7715,-1.7715 l -12.4004,0 c -0.97826,2e-4 -1.77122,0.7932 -1.7714,1.7715 l 0,3.544 m 0,7.0866 0,21.26 c 1.8e-4,0.9783 0.79314,1.7713 1.7714,1.7715 l 14.17348,0 m 7.08662,0 14.1735,0 c 0.9783,-2e-4 1.77132,-0.7932 1.7715,-1.7715 l 0,-21.26"
       id="path4723-7-3"
       sodipodi:nodetypes="cccccccccccccccccccc" />
    <path
       inkscape:connector-curvature="0"
       style="fill:#ffcc00;fill-opacity:1;stroke:#000000;stroke-width:3.54330707;stroke-miterlimit:4;stroke-dasharray:none;stroke-opacity:1"
       d="m 469.48831,772.44086 0,-3.544 c -1.8e-4,-0.9783 -0.7932,-1.7713 -1.7715,-1.7715 l -12.4023,0 c -0.9783,2e-4 -1.77132,0.7932 -1.7715,1.7715 l 0,1.7715 -7.0879,0 0,-1.7715 c -1.8e-4,-0.9783 -0.7932,-1.7713 -1.7715,-1.7715 l -12.4004,0 c -0.97826,2e-4 -1.77122,0.7932 -1.7714,1.7715 l 0,3.544 m 0,7.0866 0,21.26004 c 1.8e-4,0.97835 0.79314,1.77135 1.7714,1.77155 l 14.17348,0 m 7.08662,0 14.1735,0 c 0.9783,-2e-4 1.77132,-0.7932 1.7715,-1.77155 l 0,-21.26004"
       id="path4723-7-2-8"
       sodipodi:nodetypes="cccccccccccccccccccc" />
    <path
       inkscape:connector-curvature="0"
       style="fill:#ffcc00;fill-opacity:1;stroke:#000000;stroke-width:3.54330707;stroke-miterlimit:4;stroke-dasharray:none;stroke-opacity:1"
       d="m 469.48831,722.83466 0,-3.544 c -1.8e-4,-0.9783 -0.7932,-1.7713 -1.7715,-1.7715 l -12.4023,0 c -0.9783,2e-4 -1.77132,0.7932 -1.7715,1.7715 l 0,1.7715 -7.0879,0 0,-1.7715 c -1.8e-4,-0.9783 -0.7932,-1.7713 -1.7715,-1.7715 l -12.4004,0 c -0.97826,2e-4 -1.77122,0.7932 -1.7714,1.7715 l 0,3.544 m 0,7.0866 0,21.26 c 1.8e-4,0.9783 0.79314,1.7713 1.7714,1.7715 l 14.17348,0 m 7.08662,0 14.1735,0 c 0.9783,-2e-4 1.77132,-0.7932 1.7715,-1.7715 l 0,-21.26"
       id="path4723-7-6"
       sodipodi:nodetypes="cccccccccccccccccccc" />
    <path
       inkscape:connector-curvature="0"
       style="fill:#ffcc00;fill-opacity:1;stroke:#000000;stroke-width:3.54330707;stroke-miterlimit:4;stroke-dasharray:none;stroke-opacity:1"
       d="m 469.48831,673.22827 0,-3.544 c -1.8e-4,-0.9783 -0.7932,-1.7713 -1.7715,-1.7715 l -12.4023,0 c -0.9783,2e-4 -1.77132,0.7932 -1.7715,1.7715 l 0,1.7715 -7.0879,0 0,-1.7715 c -1.8e-4,-0.9783 -0.7932,-1.7713 -1.7715,-1.7715 l -12.4004,0 c -0.97826,2e-4 -1.77122,0.7932 -1.7714,1.7715 l 0,3.544 m 0,7.0866 0,21.26004 c 1.8e-4,0.97835 0.79314,1.77135 1.7714,1.77155 l 14.17348,0 m 7.08662,0 14.1735,0 c 0.9783,-2e-4 1.77132,-0.7932 1.7715,-1.77155 l 0,-21.26004"
       id="path4723-7-2-7"
       sodipodi:nodetypes="cccccccccccccccccccc" />
    <path
       inkscape:connector-curvature="0"
       style="fill:#ffcc00;fill-opacity:1;stroke:#000000;stroke-width:3.54330707;stroke-miterlimit:4;stroke-dasharray:none;stroke-opacity:1"
       d="m 469.48831,623.62205 0,-3.544 c -1.8e-4,-0.9783 -0.7932,-1.7713 -1.7715,-1.7715 l -12.4023,0 c -0.9783,2e-4 -1.77132,0.7932 -1.7715,1.7715 l 0,1.7715 -7.0879,0 0,-1.7715 c -1.8e-4,-0.9783 -0.7932,-1.7713 -1.7715,-1.7715 l -12.4004,0 c -0.97826,2e-4 -1.77122,0.7932 -1.7714,1.7715 l 0,3.544 m 0,7.0866 0,21.26 c 1.8e-4,0.9783 0.79314,1.7713 1.7714,1.7715 l 14.17348,0 m 7.08662,0 14.1735,0 c 0.9783,-2e-4 1.77132,-0.7932 1.7715,-1.7715 l 0,-21.26"
       id="path4723-7-8"
       sodipodi:nodetypes="cccccccccccccccccccc" />
    <path
       inkscape:connector-curvature="0"
       style="fill:#ffcc00;fill-opacity:1;stroke:#000000;stroke-width:3.54330707;stroke-miterlimit:4;stroke-dasharray:none;stroke-opacity:1"
       d="m 469.48831,574.01566 0,-3.544 c -1.8e-4,-0.9783 -0.7932,-1.7713 -1.7715,-1.7715 l -12.4023,0 c -0.9783,2e-4 -1.77132,0.7932 -1.7715,1.7715 l 0,1.7715 -7.0879,0 0,-1.7715 c -1.8e-4,-0.9783 -0.7932,-1.7713 -1.7715,-1.7715 l -12.4004,0 c -0.97826,2e-4 -1.77122,0.7932 -1.7714,1.7715 l 0,3.544 m 0,7.0866 0,21.26004 c 1.8e-4,0.97835 0.79314,1.77135 1.7714,1.77155 l 14.17348,0 m 7.08662,0 14.1735,0 c 0.9783,-2e-4 1.77132,-0.7932 1.7715,-1.77155 l 0,-21.26004"
       id="path4723-7-2-84"
       sodipodi:nodetypes="cccccccccccccccccccc" />
    <path
       inkscape:connector-curvature="0"
       style="fill:#ffcc00;fill-opacity:1;stroke:#000000;stroke-width:3.54330707;stroke-miterlimit:4;stroke-dasharray:none;stroke-opacity:1"
       d="m 469.48831,524.40947 0,-3.544 c -1.8e-4,-0.9783 -0.7932,-1.7713 -1.7715,-1.7715 l -12.4023,0 c -0.9783,2e-4 -1.77132,0.7932 -1.7715,1.7715 l 0,1.7715 -7.0879,0 0,-1.7715 c -1.8e-4,-0.9783 -0.7932,-1.7713 -1.7715,-1.7715 l -12.4004,0 c -0.97826,2e-4 -1.77122,0.7932 -1.7714,1.7715 l 0,3.544 m 0,7.0866 0,21.26 c 1.8e-4,0.9783 0.79314,1.7713 1.7714,1.7715 l 14.17348,0 m 7.08662,0 14.1735,0 c 0.9783,-2e-4 1.77132,-0.7932 1.7715,-1.7715 l 0,-21.26"
       id="path4723-7-0"
       sodipodi:nodetypes="cccccccccccccccccccc" />
    <path
       inkscape:connector-curvature="0"
       style="fill:#ffcc00;fill-opacity:1;stroke:#000000;stroke-width:3.54330707;stroke-miterlimit:4;stroke-dasharray:none;stroke-opacity:1"
       d="m 469.48831,474.80308 0,-3.544 c -1.8e-4,-0.9783 -0.7932,-1.7713 -1.7715,-1.7715 l -12.4023,0 c -0.9783,2e-4 -1.77132,0.7932 -1.7715,1.7715 l 0,1.7715 -7.0879,0 0,-1.7715 c -1.8e-4,-0.9783 -0.7932,-1.7713 -1.7715,-1.7715 l -12.4004,0 c -0.97826,2e-4 -1.77122,0.7932 -1.7714,1.7715 l 0,3.544 m 0,7.0866 0,21.26004 c 1.8e-4,0.97835 0.79314,1.77135 1.7714,1.77155 l 14.17348,0 m 7.08662,0 14.1735,0 c 0.9783,-2e-4 1.77132,-0.7932 1.7715,-1.77155 l 0,-21.26004"
       id="path4723-7-2-9"
       sodipodi:nodetypes="cccccccccccccccccccc" />
    <path
       inkscape:connector-curvature="0"
       style="fill:#ffcc00;fill-opacity:1;stroke:#000000;stroke-width:3.54330707;stroke-miterlimit:4;stroke-dasharray:none;stroke-opacity:1"
       d="m 469.48832,425.19685 0,-3.544 c -1.8e-4,-0.9783 -0.7932,-1.7713 -1.7715,-1.7715 l -12.4023,0 c -0.9783,2e-4 -1.77132,0.7932 -1.7715,1.7715 l 0,1.7715 -7.0879,0 0,-1.7715 c -1.8e-4,-0.9783 -0.7932,-1.7713 -1.7715,-1.7715 l -12.40041,0 c -0.97826,2e-4 -1.77122,0.7932 -1.7714,1.7715 l 0,3.544 m 0,7.0866 0,21.26 c 1.8e-4,0.9783 0.79314,1.7713 1.7714,1.7715 l 14.17349,0 m 7.08662,0 14.1735,0 c 0.9783,-2e-4 1.77132,-0.7932 1.7715,-1.7715 l 0,-21.26"
       id="path4723-7-4"
       sodipodi:nodetypes="cccccccccccccccccccc" />
  </g>
  <g
     inkscape:groupmode="layer"
     id="layer2"
     inkscape:label="holes"
     style="display:inline">
    <path
       transform="translate(0,-414.56693)"
       inkscape:connector-curvature="0"
       style="opacity:1;fill:#ff6600;fill-opacity:1;stroke:#000000;stroke-width:3.54330707;stroke-linejoin:round;stroke-miterlimit:4;stroke-dasharray:none;stroke-dashoffset:24.16535187;stroke-opacity:1"
       d="m 450.00001,1031.1023 c -1.8554,2e-4 -3.5434,1.6895 -3.5429,3.5449 2e-4,1.8551 1.6879,3.5428 3.5429,3.543 1.8551,-2e-4 3.5428,-1.6879 3.543,-3.543 5e-4,-1.8555 -1.6875,-3.5447 -3.543,-3.5449 z"
       id="path4725-5" />
    <path
       transform="translate(0,-414.56693)"
       inkscape:connector-curvature="0"
       style="opacity:1;fill:#ff6600;fill-opacity:1;stroke:#000000;stroke-width:3.54330707;stroke-linejoin:round;stroke-miterlimit:4;stroke-dasharray:none;stroke-dashoffset:24.16535187;stroke-opacity:1"
       d="m 450.00001,981.49591 c -1.8554,2e-4 -3.5434,1.6895 -3.5429,3.5449 2e-4,1.8551 1.6879,3.5428 3.5429,3.543 1.8551,-2e-4 3.5428,-1.6879 3.543,-3.543 5e-4,-1.8555 -1.6875,-3.5447 -3.543,-3.5449 z"
       id="path4725-5-8" />
    <path
       transform="translate(0,-414.56693)"
       inkscape:connector-curvature="0"
       style="opacity:1;fill:#ff6600;fill-opacity:1;stroke:#000000;stroke-width:3.54330707;stroke-linejoin:round;stroke-miterlimit:4;stroke-dasharray:none;stroke-dashoffset:24.16535187;stroke-opacity:1"
       d="m 450.00001,931.88965 c -1.8554,2e-4 -3.5434,1.6895 -3.5429,3.5449 2e-4,1.8551 1.6879,3.5428 3.5429,3.543 1.8551,-2e-4 3.5428,-1.6879 3.543,-3.543 5e-4,-1.8555 -1.6875,-3.5447 -3.543,-3.5449 z"
       id="path4725-5-6" />
    <path
       transform="translate(0,-414.56693)"
       inkscape:connector-curvature="0"
       style="opacity:1;fill:#ff6600;fill-opacity:1;stroke:#000000;stroke-width:3.54330707;stroke-linejoin:round;stroke-miterlimit:4;stroke-dasharray:none;stroke-dashoffset:24.16535187;stroke-opacity:1"
       d="m 450.00001,882.28326 c -1.8554,2e-4 -3.5434,1.6895 -3.5429,3.5449 2e-4,1.8551 1.6879,3.5428 3.5429,3.543 1.8551,-2e-4 3.5428,-1.6879 3.543,-3.543 5e-4,-1.8555 -1.6875,-3.5447 -3.543,-3.5449 z"
       id="path4725-5-8-8" />
    <path
       transform="translate(0,-414.56693)"
       inkscape:connector-curvature="0"
       style="opacity:1;fill:#ff6600;fill-opacity:1;stroke:#000000;stroke-width:3.54330707;stroke-linejoin:round;stroke-miterlimit:4;stroke-dasharray:none;stroke-dashoffset:24.16535187;stroke-opacity:1"
       d="m 450.00001,832.67705 c -1.8554,2e-4 -3.5434,1.6895 -3.5429,3.5449 2e-4,1.8551 1.6879,3.5428 3.5429,3.543 1.8551,-2e-4 3.5428,-1.6879 3.543,-3.543 5e-4,-1.8555 -1.6875,-3.5447 -3.543,-3.5449 z"
       id="path4725-5-2" />
    <path
       transform="translate(0,-414.56693)"
       inkscape:connector-curvature="0"
       style="opacity:1;fill:#ff6600;fill-opacity:1;stroke:#000000;stroke-width:3.54330707;stroke-linejoin:round;stroke-miterlimit:4;stroke-dasharray:none;stroke-dashoffset:24.16535187;stroke-opacity:1"
       d="m 450.00001,783.07066 c -1.8554,2e-4 -3.5434,1.6895 -3.5429,3.5449 2e-4,1.8551 1.6879,3.5428 3.5429,3.543 1.8551,-2e-4 3.5428,-1.6879 3.543,-3.543 5e-4,-1.8555 -1.6875,-3.5447 -3.543,-3.5449 z"
       id="path4725-5-8-5" />
    <path
       transform="translate(0,-414.56693)"
       inkscape:connector-curvature="0"
       style="opacity:1;fill:#ff6600;fill-opacity:1;stroke:#000000;stroke-width:3.54330707;stroke-linejoin:round;stroke-miterlimit:4;stroke-dasharray:none;stroke-dashoffset:24.16535187;stroke-opacity:1"
       d="m 450.00001,733.46446 c -1.8554,2e-4 -3.5434,1.6895 -3.5429,3.5449 2e-4,1.8551 1.6879,3.5428 3.5429,3.543 1.8551,-2e-4 3.5428,-1.6879 3.543,-3.543 5e-4,-1.8555 -1.6875,-3.5447 -3.543,-3.5449 z"
       id="path4725-5-9" />
    <path
       transform="translate(0,-414.56693)"
       inkscape:connector-curvature="0"
       style="opacity:1;fill:#ff6600;fill-opacity:1;stroke:#000000;stroke-width:3.54330707;stroke-linejoin:round;stroke-miterlimit:4;stroke-dasharray:none;stroke-dashoffset:24.16535187;stroke-opacity:1"
       d="m 450.00001,683.85807 c -1.8554,2e-4 -3.5434,1.6895 -3.5429,3.5449 2e-4,1.8551 1.6879,3.5428 3.5429,3.543 1.8551,-2e-4 3.5428,-1.6879 3.543,-3.543 5e-4,-1.8555 -1.6875,-3.5447 -3.543,-3.5449 z"
       id="path4725-5-8-88" />
    <path
       transform="translate(0,-414.56693)"
       inkscape:connector-curvature="0"
       style="opacity:1;fill:#ff6600;fill-opacity:1;stroke:#000000;stroke-width:3.54330707;stroke-linejoin:round;stroke-miterlimit:4;stroke-dasharray:none;stroke-dashoffset:24.16535187;stroke-opacity:1"
       d="m 450.00001,634.25185 c -1.8554,2e-4 -3.5434,1.6895 -3.5429,3.5449 2e-4,1.8551 1.6879,3.5428 3.5429,3.543 1.8551,-2e-4 3.5428,-1.6879 3.543,-3.543 5e-4,-1.8555 -1.6875,-3.5447 -3.543,-3.5449 z"
       id="path4725-5-7" />
    <path
       transform="translate(0,-414.56693)"
       inkscape:connector-curvature="0"
       style="opacity:1;fill:#ff6600;fill-opacity:1;stroke:#000000;stroke-width:3.54330707;stroke-linejoin:round;stroke-miterlimit:4;stroke-dasharray:none;stroke-dashoffset:24.16535187;stroke-opacity:1"
       d="m 450.00001,584.64546 c -1.8554,2e-4 -3.5434,1.6895 -3.5429,3.5449 2e-4,1.8551 1.6879,3.5428 3.5429,3.543 1.8551,-2e-4 3.5428,-1.6879 3.543,-3.543 5e-4,-1.8555 -1.6875,-3.5447 -3.543,-3.5449 z"
       id="path4725-5-8-3" />
    <path
       transform="translate(0,-414.56693)"
       inkscape:connector-curvature="0"
       style="opacity:1;fill:#ff6600;fill-opacity:1;stroke:#000000;stroke-width:3.54330707;stroke-linejoin:round;stroke-miterlimit:4;stroke-dasharray:none;stroke-dashoffset:24.16535187;stroke-opacity:1"
       d="m 450.00001,535.03927 c -1.8554,2e-4 -3.5434,1.6895 -3.5429,3.5449 2e-4,1.8551 1.6879,3.5428 3.5429,3.543 1.8551,-2e-4 3.5428,-1.6879 3.543,-3.543 5e-4,-1.8555 -1.6875,-3.5447 -3.543,-3.5449 z"
       id="path4725-5-3" />
    <path
       transform="translate(0,-414.56693)"
       inkscape:connector-curvature="0"
       style="opacity:1;fill:#ff6600;fill-opacity:1;stroke:#000000;stroke-width:3.54330707;stroke-linejoin:round;stroke-miterlimit:4;stroke-dasharray:none;stroke-dashoffset:24.16535187;stroke-opacity:1"
       d="m 450.00001,485.43288 c -1.8554,2e-4 -3.5434,1.6895 -3.5429,3.5449 2e-4,1.8551 1.6879,3.5428 3.5429,3.543 1.8551,-2e-4 3.5428,-1.6879 3.543,-3.543 5e-4,-1.8555 -1.6875,-3.5447 -3.543,-3.5449 z"
       id="path4725-5-8-2" />
    <path
       transform="translate(0,-414.56693)"
       inkscape:connector-curvature="0"
       style="opacity:1;fill:#ff6600;fill-opacity:1;stroke:#000000;stroke-width:3.54330707;stroke-linejoin:round;stroke-miterlimit:4;stroke-dasharray:none;stroke-dashoffset:24.16535187;stroke-opacity:1"
       d="m 450.00002,435.82665 c -1.8554,2e-4 -3.5434,1.6895 -3.5429,3.5449 2e-4,1.8551 1.6879,3.5428 3.5429,3.543 1.8551,-2e-4 3.5428,-1.6879 3.543,-3.543 5e-4,-1.8555 -1.6875,-3.5447 -3.543,-3.5449 z"
       id="path4725-5-1" />
  </g>
</svg>
