<?xml version="1.0" encoding="UTF-8" standalone="no"?>
<!-- Created with Inkscape (http://www.inkscape.org/) -->

<svg
   xmlns:dc="http://purl.org/dc/elements/1.1/"
   xmlns:cc="http://creativecommons.org/ns#"
   xmlns:rdf="http://www.w3.org/1999/02/22-rdf-syntax-ns#"
   xmlns:svg="http://www.w3.org/2000/svg"
   xmlns="http://www.w3.org/2000/svg"
   xmlns:sodipodi="http://sodipodi.sourceforge.net/DTD/sodipodi-0.dtd"
   xmlns:inkscape="http://www.inkscape.org/namespaces/inkscape"
   width="280mm"
   height="180mm"
   viewBox="0 0 992.12596 637.79527"
   id="svg2"
   version="1.1"
   inkscape:version="0.91 r"
   sodipodi:docname="holder-contacts-1-d2mm.svg">
  <defs
     id="defs4" />
  <sodipodi:namedview
     id="base"
     pagecolor="#ffffff"
     bordercolor="#666666"
     borderopacity="1.0"
     inkscape:pageopacity="0.0"
     inkscape:pageshadow="2"
     inkscape:zoom="0.56"
     inkscape:cx="847.00054"
     inkscape:cy="371.09282"
     inkscape:document-units="mm"
     inkscape:current-layer="layer2"
     showgrid="true"
     inkscape:window-width="1301"
     inkscape:window-height="744"
     inkscape:window-x="65"
     inkscape:window-y="24"
     inkscape:window-maximized="1"
     inkscape:snap-bbox="true"
     inkscape:bbox-nodes="true"
     inkscape:object-nodes="false"
     showguides="true"
     inkscape:guide-bbox="true"
     inkscape:snap-smooth-nodes="false"
     inkscape:snap-midpoints="false"
     inkscape:snap-global="true"
     inkscape:bbox-paths="false">
    <inkscape:grid
       type="xygrid"
       id="grid3336"
       units="mm"
       spacingx="3.5433072"
       spacingy="3.5433069"
       dotted="true"
       empspacing="10" />
    <inkscape:grid
       type="xygrid"
       id="grid5100"
       units="mm"
       spacingx="3.5433071"
       spacingy="3.5433072" />
  </sodipodi:namedview>
  <metadata
     id="metadata7">
    <rdf:RDF>
      <cc:Work
         rdf:about="">
        <dc:format>image/svg+xml</dc:format>
        <dc:type
           rdf:resource="http://purl.org/dc/dcmitype/StillImage" />
        <dc:title />
      </cc:Work>
    </rdf:RDF>
  </metadata>
  <g
     inkscape:label="contacts"
     inkscape:groupmode="layer"
     id="layer1"
     transform="translate(0,-414.56693)" />
  <g
     inkscape:groupmode="layer"
     id="layer2"
     inkscape:label="holes"
     style="display:inline">
    <rect
       style="opacity:1;fill:#ffaaaa;fill-opacity:1;stroke:none;stroke-width:3.54330707;stroke-linejoin:round;stroke-miterlimit:4;stroke-dasharray:none;stroke-dashoffset:24.16535187;stroke-opacity:1"
       id="rect3350"
       width="531.49609"
       height="637.79529"
       x="-637.79529"
       y="0"
       transform="matrix(0,-1,1,0,0,0)" />
    <path
       inkscape:connector-curvature="0"
       style="fill:#ff7f2a;fill-opacity:1;stroke:#000000;stroke-width:7.08661413;stroke-linejoin:round;stroke-miterlimit:4;stroke-dasharray:none;stroke-opacity:1"
       d="m 15.064617,545.65533 -4.42365,0 c -1.9565699,3.8e-4 -3.5425899,1.5864 -3.5429699,3.54297 l 0,42.53125 c 3.8e-4,1.95657 1.5864,3.54259 3.5429699,3.54297 l 3.51953,0 0,7.07227 -7.0781199,0.008 c -1.95505,0.003 -3.53869,1.58792 -3.53907,3.54297 l 0,7.09375 c 3.8e-4,1.95734 1.58759,3.54367 3.54493,3.54297 l 12.4257799,-0.01 c 1.01933,3.5e-4 1.74168,0.69325 1.74023,1.76563 -10e-4,1.07878 -0.73106,1.77309 -1.74023,1.77343 l -12.4296899,0.01 c -1.95581,10e-4 -3.54064,1.58716 -3.54102,3.54297 l 0,7.09375 0,7.4e-4 c 3.8e-4,1.95734 1.58759,3.54367 3.54493,3.54297 l 12.4296799,-0.01 c 4.59442,-0.002 8.75854,-2.06008 11.70899,-5.3125 l 83.050313,0.008 m 10.62992,0.002 11.50923,10e-4 c 1.95657,-3.8e-4 3.54259,-1.5864 3.54297,-3.54297 l 0,-14.1875 c -3.8e-4,-1.95657 -1.5864,-3.54259 -3.54297,-3.54297 l -104.513683,-0.0117 0,-12.38281 37.17578,0 c 1.95657,-3.8e-4 3.54259,-1.5864 3.54297,-3.54297 l 0,-42.53125 c -3.8e-4,-1.95657 -1.5864,-3.54259 -3.54297,-3.54297 l -4.40755,0 m -10.62992,-1.6e-4 -4.45081,1.6e-4 c -0.007,-1.95199 -1.59097,-3.53088 -3.54297,-3.53125 l -12.375,0 c -1.952,3.7e-4 -3.53613,1.57926 -3.54297,3.53125 l -4.43471,0"
       id="path4348-3"
       sodipodi:nodetypes="cccccccccccccccccccccccccccccccccccccccc" />
    <path
       inkscape:connector-curvature="0"
       style="display:inline;fill:#ff7f2a;fill-opacity:1;stroke:#000000;stroke-width:7.08661413;stroke-linejoin:round;stroke-miterlimit:4;stroke-dasharray:none;stroke-opacity:1"
       d="m 215.25035,630.72072 4.42365,0 c 1.95657,-3.8e-4 3.54259,-1.5864 3.54297,-3.54297 l 0,-42.53125 c -3.8e-4,-1.95657 -1.5864,-3.54259 -3.54297,-3.54297 l -3.51953,0 0,-7.07227 7.07812,-0.008 c 1.95505,-0.003 3.53869,-1.58792 3.53907,-3.54297 l 0,-7.09375 c -3.8e-4,-1.95734 -1.58759,-3.54367 -3.54493,-3.54297 l -12.42578,0.01 c -1.01933,-3.5e-4 -1.74168,-0.69325 -1.74023,-1.76563 0.001,-1.07878 0.73106,-1.77309 1.74023,-1.77343 l 12.42969,-0.01 c 1.95581,-0.001 3.54064,-1.58716 3.54102,-3.54297 l 0,-7.09375 0,-7.4e-4 c -3.8e-4,-1.95734 -1.58759,-3.54367 -3.54493,-3.54297 l -12.42968,0.01 c -4.59442,0.002 -8.75854,2.06008 -11.70899,5.3125 l -83.05031,-0.008 m -10.62992,-0.002 -11.509235,-0.001 c -1.95657,3.8e-4 -3.54259,1.5864 -3.54297,3.54297 l 0,14.1875 c 3.8e-4,1.95657 1.5864,3.54259 3.54297,3.54297 l 104.513685,0.0117 0,12.38281 -37.17578,0 c -1.95657,3.8e-4 -3.54259,1.5864 -3.54297,3.54297 l 0,42.53125 c 3.8e-4,1.95657 1.5864,3.54259 3.54297,3.54297 l 4.40755,0 m 10.62992,1.6e-4 4.45081,-1.6e-4 c 0.007,1.95199 1.59097,3.53088 3.54297,3.53125 l 12.375,0 c 1.952,-3.7e-4 3.53613,-1.57926 3.54297,-3.53125 l 4.43471,0"
       id="path4348-3-1"
       sodipodi:nodetypes="cccccccccccccccccccccccccccccccccccccccc" />
    <path
       inkscape:connector-curvature="0"
       style="display:inline;fill:#ff7f2a;fill-opacity:1;stroke:#000000;stroke-width:7.08661413;stroke-linejoin:round;stroke-miterlimit:4;stroke-dasharray:none;stroke-opacity:1"
       d="m 15.064617,439.35611 -4.42365,0 c -1.9565699,3.8e-4 -3.5425899,1.5864 -3.5429699,3.54297 l 0,42.53125 c 3.8e-4,1.95657 1.5864,3.54259 3.5429699,3.54297 l 3.51953,0 0,7.07227 -7.0781199,0.008 c -1.95505,0.003 -3.53869,1.58792 -3.53907,3.54297 l 0,7.09375 c 3.8e-4,1.95734 1.58759,3.54367 3.54493,3.54297 l 12.4257799,-0.01 c 1.01933,3.5e-4 1.74168,0.69325 1.74023,1.76563 -10e-4,1.07878 -0.73106,1.77309 -1.74023,1.77343 l -12.4296899,0.01 c -1.95581,10e-4 -3.54064,1.58716 -3.54102,3.54297 l 0,7.09375 0,7.4e-4 c 3.8e-4,1.95734 1.58759,3.54367 3.54493,3.54297 l 12.4296799,-0.01 c 4.59442,-0.002 8.75854,-2.06008 11.70899,-5.3125 l 83.050313,0.008 m 10.62992,0.002 11.50923,10e-4 c 1.95657,-3.8e-4 3.54259,-1.5864 3.54297,-3.54297 l 0,-14.1875 c -3.8e-4,-1.95657 -1.5864,-3.54259 -3.54297,-3.54297 l -104.513683,-0.0117 0,-12.38281 37.17578,0 c 1.95657,-3.8e-4 3.54259,-1.5864 3.54297,-3.54297 l 0,-42.53125 c -3.8e-4,-1.95657 -1.5864,-3.54259 -3.54297,-3.54297 l -4.40755,0 m -10.62992,-1.6e-4 -4.45081,1.6e-4 c -0.007,-1.95199 -1.59097,-3.53088 -3.54297,-3.53125 l -12.375,0 c -1.952,3.7e-4 -3.53613,1.57926 -3.54297,3.53125 l -4.43471,0"
       id="path4348-3-9"
       sodipodi:nodetypes="cccccccccccccccccccccccccccccccccccccccc" />
    <path
       inkscape:connector-curvature="0"
       style="display:inline;fill:#ff7f2a;fill-opacity:1;stroke:#000000;stroke-width:7.08661413;stroke-linejoin:round;stroke-miterlimit:4;stroke-dasharray:none;stroke-opacity:1"
       d="m 215.25035,524.4215 4.42365,0 c 1.95657,-3.8e-4 3.54259,-1.5864 3.54297,-3.54297 l 0,-42.53125 c -3.8e-4,-1.95657 -1.5864,-3.54259 -3.54297,-3.54297 l -3.51953,0 0,-7.07227 7.07812,-0.008 c 1.95505,-0.003 3.53869,-1.58792 3.53907,-3.54297 l 0,-7.09375 c -3.8e-4,-1.95734 -1.58759,-3.54367 -3.54493,-3.54297 l -12.42578,0.01 c -1.01933,-3.5e-4 -1.74168,-0.69325 -1.74023,-1.76563 0.001,-1.07878 0.73106,-1.77309 1.74023,-1.77343 l 12.42969,-0.01 c 1.95581,-10e-4 3.54064,-1.58716 3.54102,-3.54297 l 0,-7.09375 0,-7.4e-4 c -3.8e-4,-1.95734 -1.58759,-3.54367 -3.54493,-3.54297 l -12.42968,0.01 c -4.59442,0.002 -8.75854,2.06008 -11.70899,5.3125 l -83.05031,-0.008 m -10.62992,-0.002 -11.509235,-10e-4 c -1.95657,3.8e-4 -3.54259,1.5864 -3.54297,3.54297 l 0,14.1875 c 3.8e-4,1.95657 1.5864,3.54259 3.54297,3.54297 l 104.513685,0.0117 0,12.38281 -37.17578,0 c -1.95657,3.8e-4 -3.54259,1.5864 -3.54297,3.54297 l 0,42.53125 c 3.8e-4,1.95657 1.5864,3.54259 3.54297,3.54297 l 4.40755,0 m 10.62992,1.6e-4 4.45081,-1.6e-4 c 0.007,1.95199 1.59097,3.53088 3.54297,3.53125 l 12.375,0 c 1.952,-3.7e-4 3.53613,-1.57926 3.54297,-3.53125 l 4.43471,0"
       id="path4348-3-1-9"
       sodipodi:nodetypes="cccccccccccccccccccccccccccccccccccccccc" />
    <path
       inkscape:connector-curvature="0"
       style="display:inline;fill:#ff7f2a;fill-opacity:1;stroke:#000000;stroke-width:7.08661413;stroke-linejoin:round;stroke-miterlimit:4;stroke-dasharray:none;stroke-opacity:1"
       d="m 15.064617,333.05689 -4.42365,0 c -1.9565699,3.8e-4 -3.5425899,1.5864 -3.5429699,3.54297 l 0,42.53125 c 3.8e-4,1.95657 1.5864,3.54259 3.5429699,3.54297 l 3.51953,0 0,7.07227 -7.0781199,0.008 c -1.95505,0.003 -3.53869,1.58792 -3.53907,3.54297 l 0,7.09375 c 3.8e-4,1.95734 1.58759,3.54367 3.54493,3.54297 l 12.4257799,-0.01 c 1.01933,3.5e-4 1.74168,0.69325 1.74023,1.76563 -10e-4,1.07878 -0.73106,1.77309 -1.74023,1.77343 l -12.4296899,0.01 c -1.95581,0.001 -3.54064,1.58716 -3.54102,3.54297 l 0,7.09375 0,7.4e-4 c 3.8e-4,1.95734 1.58759,3.54367 3.54493,3.54297 l 12.4296799,-0.01 c 4.59442,-0.002 8.75854,-2.06008 11.70899,-5.3125 l 83.050313,0.008 m 10.62992,0.002 11.50923,0.001 c 1.95657,-3.8e-4 3.54259,-1.5864 3.54297,-3.54297 l 0,-14.1875 c -3.8e-4,-1.95657 -1.5864,-3.54259 -3.54297,-3.54297 l -104.513683,-0.0117 0,-12.38281 37.17578,0 c 1.95657,-3.8e-4 3.54259,-1.5864 3.54297,-3.54297 l 0,-42.53125 c -3.8e-4,-1.95657 -1.5864,-3.54259 -3.54297,-3.54297 l -4.40755,0 m -10.62992,-1.6e-4 -4.45081,1.6e-4 c -0.007,-1.95199 -1.59097,-3.53088 -3.54297,-3.53125 l -12.375,0 c -1.952,3.7e-4 -3.53613,1.57926 -3.54297,3.53125 l -4.43471,0"
       id="path4348-3-0"
       sodipodi:nodetypes="cccccccccccccccccccccccccccccccccccccccc" />
    <path
       inkscape:connector-curvature="0"
       style="display:inline;fill:#ff7f2a;fill-opacity:1;stroke:#000000;stroke-width:7.08661413;stroke-linejoin:round;stroke-miterlimit:4;stroke-dasharray:none;stroke-opacity:1"
       d="m 215.25035,418.12228 4.42365,0 c 1.95657,-3.8e-4 3.54259,-1.5864 3.54297,-3.54297 l 0,-42.53125 c -3.8e-4,-1.95657 -1.5864,-3.54259 -3.54297,-3.54297 l -3.51953,0 0,-7.07227 7.07812,-0.008 c 1.95505,-0.003 3.53869,-1.58792 3.53907,-3.54297 l 0,-7.09375 c -3.8e-4,-1.95734 -1.58759,-3.54367 -3.54493,-3.54297 l -12.42578,0.01 c -1.01933,-3.5e-4 -1.74168,-0.69325 -1.74023,-1.76563 0.001,-1.07878 0.73106,-1.77309 1.74023,-1.77343 l 12.42969,-0.01 c 1.95581,-0.001 3.54064,-1.58716 3.54102,-3.54297 l 0,-7.09375 0,-7.4e-4 c -3.8e-4,-1.95734 -1.58759,-3.54367 -3.54493,-3.54297 l -12.42968,0.01 c -4.59442,0.002 -8.75854,2.06008 -11.70899,5.3125 l -83.05031,-0.008 m -10.62992,-0.002 -11.509235,-0.001 c -1.95657,3.8e-4 -3.54259,1.5864 -3.54297,3.54297 l 0,14.1875 c 3.8e-4,1.95657 1.5864,3.54259 3.54297,3.54297 l 104.513685,0.0117 0,12.38281 -37.17578,0 c -1.95657,3.8e-4 -3.54259,1.5864 -3.54297,3.54297 l 0,42.53125 c 3.8e-4,1.95657 1.5864,3.54259 3.54297,3.54297 l 4.40755,0 m 10.62992,1.6e-4 4.45081,-1.6e-4 c 0.007,1.95199 1.59097,3.53088 3.54297,3.53125 l 12.375,0 c 1.952,-3.7e-4 3.53613,-1.57926 3.54297,-3.53125 l 4.43471,0"
       id="path4348-3-1-4"
       sodipodi:nodetypes="cccccccccccccccccccccccccccccccccccccccc" />
    <path
       inkscape:connector-curvature="0"
       style="display:inline;fill:#ff7f2a;fill-opacity:1;stroke:#000000;stroke-width:7.08661413;stroke-linejoin:round;stroke-miterlimit:4;stroke-dasharray:none;stroke-opacity:1"
       d="m 15.064617,226.75767 -4.42365,0 c -1.9565699,3.8e-4 -3.5425899,1.5864 -3.5429699,3.54297 l 0,42.53125 c 3.8e-4,1.95657 1.5864,3.54259 3.5429699,3.54297 l 3.51953,0 0,7.07227 -7.0781199,0.008 c -1.95505,0.003 -3.53869,1.58792 -3.53907,3.54297 l 0,7.09375 c 3.8e-4,1.95734 1.58759,3.54367 3.54493,3.54297 l 12.4257799,-0.01 c 1.01933,3.5e-4 1.74168,0.69325 1.74023,1.76563 -10e-4,1.07878 -0.73106,1.77309 -1.74023,1.77343 l -12.4296899,0.01 c -1.95581,10e-4 -3.54064,1.58716 -3.54102,3.54297 l 0,7.09375 0,7.4e-4 c 3.8e-4,1.95734 1.58759,3.54367 3.54493,3.54297 l 12.4296799,-0.01 c 4.59442,-0.002 8.75854,-2.06008 11.70899,-5.3125 l 83.050313,0.008 m 10.62992,0.002 11.50923,10e-4 c 1.95657,-3.8e-4 3.54259,-1.5864 3.54297,-3.54297 l 0,-14.1875 c -3.8e-4,-1.95657 -1.5864,-3.54259 -3.54297,-3.54297 l -104.513683,-0.0117 0,-12.38281 37.17578,0 c 1.95657,-3.8e-4 3.54259,-1.5864 3.54297,-3.54297 l 0,-42.53125 c -3.8e-4,-1.95657 -1.5864,-3.54259 -3.54297,-3.54297 l -4.40755,0 m -10.62992,-1.6e-4 -4.45081,1.6e-4 c -0.007,-1.95199 -1.59097,-3.53088 -3.54297,-3.53125 l -12.375,0 c -1.952,3.7e-4 -3.53613,1.57926 -3.54297,3.53125 l -4.43471,0"
       id="path4348-3-5"
       sodipodi:nodetypes="cccccccccccccccccccccccccccccccccccccccc" />
    <path
       inkscape:connector-curvature="0"
       style="display:inline;fill:#ff7f2a;fill-opacity:1;stroke:#000000;stroke-width:7.08661413;stroke-linejoin:round;stroke-miterlimit:4;stroke-dasharray:none;stroke-opacity:1"
       d="m 215.25035,311.82306 4.42365,0 c 1.95657,-3.8e-4 3.54259,-1.5864 3.54297,-3.54297 l 0,-42.53125 c -3.8e-4,-1.95657 -1.5864,-3.54259 -3.54297,-3.54297 l -3.51953,0 0,-7.07227 7.07812,-0.008 c 1.95505,-0.003 3.53869,-1.58792 3.53907,-3.54297 l 0,-7.09375 c -3.8e-4,-1.95734 -1.58759,-3.54367 -3.54493,-3.54297 l -12.42578,0.01 c -1.01933,-3.5e-4 -1.74168,-0.69325 -1.74023,-1.76563 0.001,-1.07878 0.73106,-1.77309 1.74023,-1.77343 l 12.42969,-0.01 c 1.95581,-0.001 3.54064,-1.58716 3.54102,-3.54297 l 0,-7.09375 0,-7.4e-4 c -3.8e-4,-1.95734 -1.58759,-3.54367 -3.54493,-3.54297 l -12.42968,0.01 c -4.59442,0.002 -8.75854,2.06008 -11.70899,5.3125 l -83.05031,-0.008 m -10.62992,-0.002 -11.509235,-10e-4 c -1.95657,3.8e-4 -3.54259,1.5864 -3.54297,3.54297 l 0,14.1875 c 3.8e-4,1.95657 1.5864,3.54259 3.54297,3.54297 l 104.513685,0.0117 0,12.38281 -37.17578,0 c -1.95657,3.8e-4 -3.54259,1.5864 -3.54297,3.54297 l 0,42.53125 c 3.8e-4,1.95657 1.5864,3.54259 3.54297,3.54297 l 4.40755,0 m 10.62992,1.6e-4 4.45081,-1.6e-4 c 0.007,1.95199 1.59097,3.53088 3.54297,3.53125 l 12.375,0 c 1.952,-3.7e-4 3.53613,-1.57926 3.54297,-3.53125 l 4.43471,0"
       id="path4348-3-1-7"
       sodipodi:nodetypes="cccccccccccccccccccccccccccccccccccccccc" />
  </g>
</svg>
