<?xml version="1.0" encoding="UTF-8" standalone="no"?>
<!-- Created with Inkscape (http://www.inkscape.org/) -->

<svg
   xmlns:dc="http://purl.org/dc/elements/1.1/"
   xmlns:cc="http://creativecommons.org/ns#"
   xmlns:rdf="http://www.w3.org/1999/02/22-rdf-syntax-ns#"
   xmlns:svg="http://www.w3.org/2000/svg"
   xmlns="http://www.w3.org/2000/svg"
   xmlns:sodipodi="http://sodipodi.sourceforge.net/DTD/sodipodi-0.dtd"
   xmlns:inkscape="http://www.inkscape.org/namespaces/inkscape"
   width="280mm"
   height="180mm"
   viewBox="0 0 992.12596 637.79527"
   id="svg2"
   version="1.1"
   inkscape:version="0.48.3.1 r9886"
   sodipodi:docname="holder-contacts-2-d2mm.svg">
  <sodipodi:namedview
     id="base"
     pagecolor="#ffffff"
     bordercolor="#666666"
     borderopacity="1.0"
     inkscape:pageopacity="0.0"
     inkscape:pageshadow="2"
     inkscape:zoom="0.56"
     inkscape:cx="262.65346"
     inkscape:cy="269.35308"
     inkscape:document-units="mm"
     inkscape:current-layer="layer2"
     showgrid="true"
     inkscape:window-width="1024"
     inkscape:window-height="674"
     inkscape:window-x="0"
     inkscape:window-y="31"
     inkscape:window-maximized="1"
     inkscape:snap-bbox="true"
     inkscape:bbox-nodes="true"
     inkscape:object-nodes="false"
     showguides="true"
     inkscape:guide-bbox="true"
     inkscape:snap-smooth-nodes="false"
     inkscape:snap-midpoints="false"
     inkscape:snap-global="true"
     inkscape:bbox-paths="false">
    <inkscape:grid
       type="xygrid"
       id="grid3336"
       units="mm"
       spacingx="3.5433072"
       spacingy="3.5433069"
       dotted="true"
       empspacing="10" />
    <inkscape:grid
       type="xygrid"
       id="grid5100"
       units="mm"
       spacingx="3.5433071"
       spacingy="3.5433072" />
  </sodipodi:namedview>
  <defs
     id="defs4" />
  <metadata
     id="metadata7">
    <rdf:RDF>
      <cc:Work
         rdf:about="">
        <dc:format>image/svg+xml</dc:format>
        <dc:type
           rdf:resource="http://purl.org/dc/dcmitype/StillImage" />
        <dc:title></dc:title>
      </cc:Work>
    </rdf:RDF>
  </metadata>
  <g
     inkscape:groupmode="layer"
     id="layer2"
     inkscape:label="holes"
     style="display:inline">
    <path
       inkscape:connector-curvature="0"
       style="fill:#ff7f2a;fill-opacity:1;stroke:#000000;stroke-width:7.08661413;stroke-linejoin:round;stroke-miterlimit:4;stroke-opacity:1;stroke-dasharray:none;display:inline"
       d="m 593.50729,517.32284 0.003,-12.40258 c -3.8e-4,-1.95657 -1.5864,-3.54259 -3.54297,-3.54297 l -14.1875,0 c -1.95657,3.8e-4 -3.54259,1.5864 -3.54297,3.54297 l -0.0117,104.51368 -12.38281,0 0,-37.17578 c -3.8e-4,-1.95657 -1.5864,-3.54259 -3.54297,-3.54297 l -24.80312,0 m -10.62992,0 -7.09821,0 c -1.95657,3.8e-4 -3.54259,1.5864 -3.54297,3.54297 l 0,3.5918 -10.60156,-0.0488 c -1.96343,-0.009 -3.56019,1.57952 -3.56055,3.54297 l 0,7.08789 c 2.9e-4,1.94368 1.56618,3.52438 3.50977,3.54297 l 10.65234,0.0976 0,1.67383 c -1.95199,0.007 -3.53088,1.59097 -3.53125,3.54297 l 0,12.375 c 3.7e-4,1.952 1.57926,3.53613 3.53125,3.54297 l 0,19.48828 c 3.8e-4,1.95657 1.5864,3.54259 3.54297,3.54297 l 7.09821,0 m 10.62992,0 24.80312,0 c 1.95657,-3.8e-4 3.54259,-1.5864 3.54297,-3.54297 l 0,-3.51953 7.07226,0 0.008,7.08008 c 0.003,1.95504 1.58793,3.53868 3.54297,3.53906 l 7.09375,0 c 1.95733,-3.8e-4 3.54367,-1.58759 3.54297,-3.54492 l -0.01,-12.42774 c 3.5e-4,-1.0193 0.69331,-1.74168 1.76562,-1.74023 1.07887,10e-4 1.77309,0.73102 1.77344,1.74023 l 0.008,12.43165 c 10e-4,1.9558 1.58716,3.54063 3.54297,3.54101 l 7.09375,0 5e-5,2e-5 c 1.95733,-3.8e-4 3.54367,-1.58759 3.54297,-3.54492 l -10e-4,-1.77004 m -0.005,-8.85827 -10e-4,-1.80333 c -0.002,-4.59444 -2.06011,-8.75855 -5.3125,-11.70899 l 0.008,-82.15696"
       id="path3522-1-3-7-0"
       sodipodi:nodetypes="cccccccccccccccccccccccccccccccccccccccccccccccc" />
    <path
       inkscape:connector-curvature="0"
       style="fill:#ff7f2a;fill-opacity:1;stroke:#000000;stroke-width:7.08661413;stroke-linejoin:round;stroke-miterlimit:4;stroke-opacity:1;stroke-dasharray:none;display:inline"
       d="m 501.37483,535.03935 -0.003,12.40257 c 3.8e-4,1.95657 1.58641,3.54259 3.54298,3.54297 l 14.1875,0 c 1.95657,-3.8e-4 3.54259,-1.5864 3.54297,-3.54297 l 0.0117,-104.51367 12.38281,0 0,37.17578 c 3.8e-4,1.95657 1.5864,3.54259 3.54297,3.54297 l 24.80312,0 m 10.62992,0 7.09821,0 c 1.95657,-3.8e-4 3.54259,-1.5864 3.54297,-3.54297 l 0,-3.5918 10.60156,0.0488 c 1.96343,0.009 3.56019,-1.57952 3.56055,-3.54297 l 0,-7.08789 c -2.9e-4,-1.94368 -1.56618,-3.52438 -3.50977,-3.54297 l -10.65234,-0.0976 0,-1.67383 c 1.95199,-0.007 3.53088,-1.59097 3.53125,-3.54297 l 0,-12.375 c -3.7e-4,-1.952 -1.57926,-3.53613 -3.53125,-3.54297 l 0,-19.48828 c -3.8e-4,-1.95657 -1.5864,-3.54259 -3.54297,-3.54297 l -7.09821,0 m -10.62992,0 -24.80312,0 c -1.95657,3.8e-4 -3.54259,1.5864 -3.54297,3.54297 l 0,3.51953 -7.07226,0 -0.008,-7.08008 c -0.003,-1.95504 -1.58793,-3.53868 -3.54297,-3.53906 l -7.09375,0 c -1.95733,3.8e-4 -3.54367,1.58759 -3.54297,3.54492 l 0.01,12.42774 c -3.5e-4,1.0193 -0.69331,1.74168 -1.76562,1.74023 -1.07887,-10e-4 -1.77309,-0.73102 -1.77344,-1.74023 l -0.008,-12.43165 c -10e-4,-1.9558 -1.58716,-3.54063 -3.54297,-3.54101 l -7.09376,0 -5e-5,-2e-5 c -1.95733,3.8e-4 -3.54367,1.58759 -3.54297,3.54492 l 10e-4,1.77004 m 0.005,8.85827 10e-4,1.80333 c 0.002,4.59444 2.06011,8.75855 5.3125,11.70899 l -0.008,82.15696"
       id="path3522-1-3-7-0-8"
       sodipodi:nodetypes="cccccccccccccccccccccccccccccccccccccccccccccccc" />
    <path
       inkscape:connector-curvature="0"
       style="fill:#ff7f2a;fill-opacity:1;stroke:#000000;stroke-width:7.08661413;stroke-linejoin:round;stroke-miterlimit:4;stroke-opacity:1;stroke-dasharray:none;display:inline"
       d="m 469.49153,517.32284 0.003,-12.40258 c -3.8e-4,-1.95657 -1.58641,-3.54259 -3.54298,-3.54297 l -14.1875,0 c -1.95657,3.8e-4 -3.54259,1.5864 -3.54297,3.54297 l -0.0117,104.51368 -12.38281,0 0,-37.17578 c -3.8e-4,-1.95657 -1.5864,-3.54259 -3.54297,-3.54297 l -24.80312,0 m -10.62992,0 -7.09821,0 c -1.95657,3.8e-4 -3.54259,1.5864 -3.54297,3.54297 l 0,3.5918 -10.60156,-0.0488 c -1.96343,-0.009 -3.56019,1.57952 -3.56055,3.54297 l 0,7.08789 c 2.9e-4,1.94368 1.56618,3.52438 3.50977,3.54297 l 10.65234,0.0976 0,1.67383 c -1.95199,0.007 -3.53088,1.59097 -3.53125,3.54297 l 0,12.375 c 3.7e-4,1.952 1.57926,3.53613 3.53125,3.54297 l 0,19.48828 c 3.8e-4,1.95657 1.5864,3.54259 3.54297,3.54297 l 7.09821,0 m 10.62992,0 24.80312,0 c 1.95657,-3.8e-4 3.54259,-1.5864 3.54297,-3.54297 l 0,-3.51953 7.07226,0 0.008,7.08008 c 0.003,1.95504 1.58793,3.53868 3.54297,3.53906 l 7.09375,0 c 1.95733,-3.8e-4 3.54367,-1.58759 3.54297,-3.54492 l -0.01,-12.42774 c 3.5e-4,-1.0193 0.69331,-1.74168 1.76562,-1.74023 1.07887,10e-4 1.77309,0.73102 1.77344,1.74023 l 0.008,12.43165 c 10e-4,1.9558 1.58716,3.54063 3.54297,3.54101 l 7.09376,0 5e-5,2e-5 c 1.95733,-3.8e-4 3.54367,-1.58759 3.54297,-3.54492 l -0.001,-1.77004 m -0.005,-8.85827 -10e-4,-1.80333 c -0.002,-4.59444 -2.06011,-8.75855 -5.3125,-11.70899 l 0.008,-82.15696"
       id="path3522-1-3-7-0-2"
       sodipodi:nodetypes="cccccccccccccccccccccccccccccccccccccccccccccccc" />
    <path
       inkscape:connector-curvature="0"
       style="fill:#ff7f2a;fill-opacity:1;stroke:#000000;stroke-width:7.08661413;stroke-linejoin:round;stroke-miterlimit:4;stroke-opacity:1;stroke-dasharray:none;display:inline"
       d="m 377.35906,535.03935 -0.003,12.40257 c 3.8e-4,1.95657 1.58641,3.54259 3.54298,3.54297 l 14.1875,0 c 1.95657,-3.8e-4 3.54259,-1.5864 3.54297,-3.54297 l 0.0117,-104.51367 12.38281,0 0,37.17578 c 3.8e-4,1.95657 1.5864,3.54259 3.54297,3.54297 l 24.80312,0 m 10.62992,0 7.09821,0 c 1.95657,-3.8e-4 3.54259,-1.5864 3.54297,-3.54297 l 0,-3.5918 10.60157,0.0488 c 1.96343,0.009 3.56019,-1.57952 3.56055,-3.54297 l 0,-7.08789 c -2.9e-4,-1.94368 -1.56618,-3.52438 -3.50977,-3.54297 l -10.65235,-0.0976 0,-1.67383 c 1.95199,-0.007 3.53088,-1.59097 3.53125,-3.54297 l 0,-12.375 c -3.7e-4,-1.952 -1.57926,-3.53613 -3.53125,-3.54297 l 0,-19.48828 c -3.8e-4,-1.95657 -1.5864,-3.54259 -3.54297,-3.54297 l -7.09821,0 m -10.62992,0 -24.80312,0 c -1.95657,3.8e-4 -3.54259,1.5864 -3.54297,3.54297 l 0,3.51953 -7.07226,0 -0.008,-7.08008 c -0.003,-1.95504 -1.58793,-3.53868 -3.54297,-3.53906 l -7.09375,0 c -1.95733,3.8e-4 -3.54367,1.58759 -3.54297,3.54492 l 0.01,12.42774 c -3.5e-4,1.0193 -0.69331,1.74168 -1.76562,1.74023 -1.07887,-10e-4 -1.77309,-0.73102 -1.77344,-1.74023 l -0.008,-12.43165 c -0.001,-1.9558 -1.58716,-3.54063 -3.54297,-3.54101 l -7.09376,0 -5e-5,-2e-5 c -1.95733,3.8e-4 -3.54367,1.58759 -3.54297,3.54492 l 0.001,1.77004 m 0.005,8.85827 10e-4,1.80333 c 0.002,4.59444 2.06011,8.75855 5.3125,11.70899 l -0.008,82.15696"
       id="path3522-1-3-7-0-8-5"
       sodipodi:nodetypes="cccccccccccccccccccccccccccccccccccccccccccccccc" />
    <path
       inkscape:connector-curvature="0"
       style="fill:#ff7f2a;fill-opacity:1;stroke:#000000;stroke-width:7.08661413;stroke-linejoin:round;stroke-miterlimit:4;stroke-opacity:1;stroke-dasharray:none;display:inline"
       d="m 345.47578,517.32284 0.003,-12.40258 c -3.8e-4,-1.95657 -1.5864,-3.54259 -3.54297,-3.54297 l -14.1875,0 c -1.95657,3.8e-4 -3.54259,1.5864 -3.54297,3.54297 l -0.0117,104.51368 -12.38281,0 0,-37.17578 c -3.8e-4,-1.95657 -1.5864,-3.54259 -3.54297,-3.54297 l -24.80312,0 m -10.62992,0 -7.09821,0 c -1.95657,3.8e-4 -3.54259,1.5864 -3.54297,3.54297 l 0,3.5918 -10.60156,-0.0488 c -1.96343,-0.009 -3.56019,1.57952 -3.56055,3.54297 l 0,7.08789 c 2.9e-4,1.94368 1.56618,3.52438 3.50977,3.54297 l 10.65234,0.0976 0,1.67383 c -1.95199,0.007 -3.53088,1.59097 -3.53125,3.54297 l 0,12.375 c 3.7e-4,1.952 1.57926,3.53613 3.53125,3.54297 l 0,19.48828 c 3.8e-4,1.95657 1.5864,3.54259 3.54297,3.54297 l 7.09821,0 m 10.62992,0 24.80312,0 c 1.95657,-3.8e-4 3.54259,-1.5864 3.54297,-3.54297 l 0,-3.51953 7.07226,0 0.008,7.08008 c 0.003,1.95504 1.58793,3.53868 3.54297,3.53906 l 7.09375,0 c 1.95733,-3.8e-4 3.54367,-1.58759 3.54297,-3.54492 l -0.01,-12.42774 c 3.5e-4,-1.0193 0.69331,-1.74168 1.76562,-1.74023 1.07887,10e-4 1.77309,0.73102 1.77344,1.74023 l 0.008,12.43165 c 10e-4,1.9558 1.58716,3.54063 3.54297,3.54101 l 7.09375,0 5e-5,2e-5 c 1.95733,-3.8e-4 3.54367,-1.58759 3.54297,-3.54492 l -10e-4,-1.77004 m -0.005,-8.85827 -0.001,-1.80333 c -0.002,-4.59444 -2.06011,-8.75855 -5.3125,-11.70899 l 0.008,-82.15696"
       id="path3522-1-3-7-0-4"
       sodipodi:nodetypes="cccccccccccccccccccccccccccccccccccccccccccccccc" />
    <path
       inkscape:connector-curvature="0"
       style="fill:#ff7f2a;fill-opacity:1;stroke:#000000;stroke-width:7.08661413;stroke-linejoin:round;stroke-miterlimit:4;stroke-opacity:1;stroke-dasharray:none;display:inline"
       d="m 253.34332,535.03935 -0.003,12.40257 c 3.8e-4,1.95658 1.58641,3.54259 3.54298,3.54297 l 14.1875,0 c 1.95657,-3.8e-4 3.54259,-1.58639 3.54297,-3.54297 l 0.0117,-104.51367 12.38281,0 0,37.17578 c 3.8e-4,1.95657 1.5864,3.54259 3.54297,3.54297 l 24.80312,0 m 10.62992,0 7.09821,0 c 1.95657,-3.8e-4 3.54259,-1.5864 3.54297,-3.54297 l 0,-3.5918 10.60156,0.0488 c 1.96343,0.009 3.56019,-1.57952 3.56055,-3.54297 l 0,-7.08789 c -2.9e-4,-1.94368 -1.56618,-3.52438 -3.50977,-3.54297 l -10.65234,-0.0976 0,-1.67383 c 1.95199,-0.007 3.53088,-1.59097 3.53125,-3.54297 l 0,-12.375 c -3.7e-4,-1.952 -1.57926,-3.53613 -3.53125,-3.54297 l 0,-19.48828 c -3.8e-4,-1.95657 -1.5864,-3.54259 -3.54297,-3.54297 l -7.09821,0 m -10.62992,0 -24.80312,0 c -1.95657,3.8e-4 -3.54259,1.5864 -3.54297,3.54297 l 0,3.51953 -7.07226,0 -0.008,-7.08008 c -0.003,-1.95504 -1.58793,-3.53868 -3.54297,-3.53906 l -7.09375,0 c -1.95733,3.8e-4 -3.54367,1.58759 -3.54297,3.54492 l 0.01,12.42774 c -3.5e-4,1.0193 -0.69331,1.74168 -1.76562,1.74023 -1.07887,-10e-4 -1.77309,-0.73102 -1.77344,-1.74023 l -0.008,-12.43165 c -0.001,-1.9558 -1.58716,-3.54063 -3.54297,-3.54101 l -7.09376,0 -5e-5,-2e-5 c -1.95733,3.8e-4 -3.54367,1.58759 -3.54297,3.54492 l 0.001,1.77004 m 0.005,8.85827 0.001,1.80333 c 0.002,4.59444 2.06011,8.75855 5.3125,11.70899 l -0.008,82.15696"
       id="path3522-1-3-7-0-8-7"
       sodipodi:nodetypes="cccccccccccccccccccccccccccccccccccccccccccccccc" />
    <path
       inkscape:connector-curvature="0"
       style="fill:#ff7f2a;fill-opacity:1;stroke:#000000;stroke-width:7.08661413;stroke-linejoin:round;stroke-miterlimit:4;stroke-opacity:1;stroke-dasharray:none;display:inline"
       d="m 221.46002,517.32284 0.003,-12.40258 c -3.8e-4,-1.95657 -1.5864,-3.54259 -3.54297,-3.54297 l -14.1875,0 c -1.95657,3.8e-4 -3.54259,1.5864 -3.54297,3.54297 l -0.0117,104.51368 -12.38281,0 0,-37.17578 c -3.8e-4,-1.95657 -1.5864,-3.54259 -3.54297,-3.54297 l -24.80312,0 m -10.62992,0 -7.09821,0 c -1.95657,3.8e-4 -3.54259,1.5864 -3.54297,3.54297 l 0,3.5918 -10.60156,-0.0488 c -1.96343,-0.009 -3.56019,1.57952 -3.56055,3.54297 l 0,7.08789 c 2.9e-4,1.94368 1.56618,3.52438 3.50977,3.54297 l 10.65234,0.0976 0,1.67383 c -1.95199,0.007 -3.53088,1.59097 -3.53125,3.54297 l 0,12.375 c 3.7e-4,1.952 1.57926,3.53613 3.53125,3.54297 l 0,19.48828 c 3.8e-4,1.95657 1.5864,3.54259 3.54297,3.54297 l 7.09821,0 m 10.62992,0 24.80312,0 c 1.95657,-3.8e-4 3.54259,-1.5864 3.54297,-3.54297 l 0,-3.51953 7.07226,0 0.008,7.08008 c 0.003,1.95504 1.58793,3.53868 3.54297,3.53906 l 7.09375,0 c 1.95733,-3.8e-4 3.54367,-1.58759 3.54297,-3.54492 l -0.01,-12.42774 c 3.5e-4,-1.0193 0.69331,-1.74168 1.76562,-1.74023 1.07887,10e-4 1.77309,0.73102 1.77344,1.74023 l 0.008,12.43165 c 10e-4,1.9558 1.58716,3.54063 3.54297,3.54101 l 7.09375,0 5e-5,2e-5 c 1.95733,-3.8e-4 3.54367,-1.58759 3.54297,-3.54492 l -0.001,-1.77004 m -0.005,-8.85827 -0.001,-1.80333 c -0.002,-4.59444 -2.06011,-8.75855 -5.3125,-11.70899 l 0.008,-82.15696"
       id="path3522-1-3-7-0-27"
       sodipodi:nodetypes="cccccccccccccccccccccccccccccccccccccccccccccccc" />
    <path
       inkscape:connector-curvature="0"
       style="fill:#ff7f2a;fill-opacity:1;stroke:#000000;stroke-width:7.08661413;stroke-linejoin:round;stroke-miterlimit:4;stroke-opacity:1;stroke-dasharray:none;display:inline"
       d="m 129.32756,535.03935 -0.003,12.40257 c 3.8e-4,1.95658 1.58641,3.54259 3.54298,3.54297 l 14.1875,0 c 1.95657,-3.8e-4 3.54259,-1.58639 3.54297,-3.54297 l 0.0117,-104.51367 12.38281,0 0,37.17578 c 3.8e-4,1.95657 1.5864,3.54259 3.54297,3.54297 l 24.80312,0 m 10.62992,0 7.09821,0 c 1.95657,-3.8e-4 3.54259,-1.5864 3.54297,-3.54297 l 0,-3.5918 10.60156,0.0488 c 1.96343,0.009 3.56019,-1.57952 3.56055,-3.54297 l 0,-7.08789 c -2.9e-4,-1.94368 -1.56618,-3.52438 -3.50977,-3.54297 l -10.65234,-0.0976 0,-1.67383 c 1.95199,-0.007 3.53088,-1.59097 3.53125,-3.54297 l 0,-12.375 c -3.7e-4,-1.952 -1.57926,-3.53613 -3.53125,-3.54297 l 0,-19.48828 c -3.8e-4,-1.95657 -1.5864,-3.54259 -3.54297,-3.54297 l -7.09821,0 m -10.62992,0 -24.80312,0 c -1.95657,3.8e-4 -3.54259,1.5864 -3.54297,3.54297 l 0,3.51953 -7.07226,0 -0.008,-7.08008 c -0.003,-1.95504 -1.58793,-3.53868 -3.54297,-3.53906 l -7.09375,0 c -1.95733,3.8e-4 -3.54367,1.58759 -3.54297,3.54492 l 0.01,12.42774 c -3.5e-4,1.0193 -0.69331,1.74168 -1.76562,1.74023 -1.07887,-10e-4 -1.77309,-0.73102 -1.77344,-1.74023 l -0.008,-12.43165 c -0.001,-1.9558 -1.58716,-3.54063 -3.54297,-3.54101 l -7.09376,0 -5e-5,-2e-5 c -1.95733,3.8e-4 -3.54367,1.58759 -3.54297,3.54492 l 0.001,1.77004 m 0.005,8.85827 0.001,1.80333 c 0.002,4.59444 2.06011,8.75855 5.3125,11.70899 l -0.008,82.15696"
       id="path3522-1-3-7-0-8-9"
       sodipodi:nodetypes="cccccccccccccccccccccccccccccccccccccccccccccccc" />
    <path
       inkscape:connector-curvature="0"
       style="fill:#ff7f2a;fill-opacity:1;stroke:#000000;stroke-width:7.08661413;stroke-linejoin:round;stroke-miterlimit:4;stroke-opacity:1;stroke-dasharray:none;display:inline"
       d="m 97.44427,517.32284 0.003,-12.40258 c -3.8e-4,-1.95657 -1.58641,-3.54259 -3.54298,-3.54297 l -14.1875,0 c -1.95657,3.8e-4 -3.54259,1.5864 -3.54297,3.54297 l -0.0117,104.51368 -12.38281,0 0,-37.17578 c -3.8e-4,-1.95657 -1.5864,-3.54259 -3.54297,-3.54297 l -24.80312,0 m -10.62992,0 -7.09821,0 c -1.95657,3.8e-4 -3.54259,1.5864 -3.54297,3.54297 l 0,3.5918 -10.60156,-0.0488 c -1.96343,-0.009 -3.56019,1.57952 -3.56055,3.54297 l 0,7.08789 c 2.9e-4,1.94368 1.56618,3.52438 3.50977,3.54297 l 10.65234,0.0976 0,1.67383 c -1.95199,0.007 -3.53088,1.59097 -3.53125,3.54297 l 0,12.375 c 3.7e-4,1.952 1.57926,3.53613 3.53125,3.54297 l 0,19.48828 c 3.8e-4,1.95657 1.5864,3.54259 3.54297,3.54297 l 7.09821,0 m 10.62992,0 24.80312,0 c 1.95657,-3.8e-4 3.54259,-1.5864 3.54297,-3.54297 l 0,-3.51953 7.07226,0 0.008,7.08008 c 0.003,1.95504 1.58793,3.53868 3.54297,3.53906 l 7.09375,0 c 1.95733,-3.8e-4 3.54367,-1.58759 3.54297,-3.54492 l -0.01,-12.42774 c 3.5e-4,-1.0193 0.69331,-1.74168 1.76562,-1.74023 1.07887,10e-4 1.77309,0.73102 1.77344,1.74023 l 0.008,12.43165 c 0.001,1.9558 1.58716,3.54063 3.54297,3.54101 l 7.09376,0 5e-5,2e-5 c 1.95733,-3.8e-4 3.54367,-1.58759 3.54297,-3.54492 l -10e-4,-1.77004 m -0.005,-8.85827 -10e-4,-1.80333 c -0.002,-4.59444 -2.06011,-8.75855 -5.3125,-11.70899 l 0.008,-82.15696"
       id="path3522-1-3-7-0-80"
       sodipodi:nodetypes="cccccccccccccccccccccccccccccccccccccccccccccccc" />
    <path
       inkscape:connector-curvature="0"
       style="fill:#ff7f2a;fill-opacity:1;stroke:#000000;stroke-width:7.08661413;stroke-linejoin:round;stroke-miterlimit:4;stroke-opacity:1;stroke-dasharray:none;display:inline"
       d="m 5.3118,535.03935 -0.003,12.40257 c 3.8e-4,1.95657 1.58641,3.54259 3.54298,3.54297 l 14.1875,0 c 1.95657,-3.8e-4 3.54259,-1.5864 3.54297,-3.54297 l 0.0117,-104.51367 12.38281,0 0,37.17578 c 3.8e-4,1.95657 1.5864,3.54259 3.54297,3.54297 l 24.80312,0 m 10.62992,0 7.09821,0 c 1.95657,-3.8e-4 3.54259,-1.5864 3.54297,-3.54297 l 0,-3.5918 10.60157,0.0488 c 1.96343,0.009 3.56019,-1.57952 3.56055,-3.54297 l 0,-7.08789 c -2.9e-4,-1.94368 -1.56618,-3.52438 -3.50977,-3.54297 l -10.65235,-0.0976 0,-1.67383 c 1.95199,-0.007 3.53088,-1.59097 3.53125,-3.54297 l 0,-12.375 c -3.7e-4,-1.952 -1.57926,-3.53613 -3.53125,-3.54297 l 0,-19.48828 c -3.8e-4,-1.95657 -1.5864,-3.54259 -3.54297,-3.54297 l -7.09821,0 m -10.62992,0 -24.80312,0 c -1.95657,3.8e-4 -3.54259,1.5864 -3.54297,3.54297 l 0,3.51953 -7.07226,0 -0.008,-7.08008 c -0.003,-1.95504 -1.58793,-3.53868 -3.54297,-3.53906 l -7.09375,0 c -1.95733,3.8e-4 -3.54367,1.58759 -3.54297,3.54492 l 0.01,12.42774 c -3.5e-4,1.0193 -0.69331,1.74168 -1.76562,1.74023 -1.07887,-10e-4 -1.77309,-0.73102 -1.77344,-1.74023 l -0.008,-12.43165 c -10e-4,-1.9558 -1.58716,-3.54063 -3.54297,-3.54101 l -7.09376,0 -5e-5,-2e-5 C 1.58564,414.5673 -7e-4,416.15451 0,418.11184 l 0.001,1.77004 m 0.005,8.85827 0.001,1.80333 c 0.002,4.59444 2.06011,8.75855 5.3125,11.70899 l -0.008,82.15696"
       id="path3522-1-3-7-0-8-8"
       sodipodi:nodetypes="cccccccccccccccccccccccccccccccccccccccccccccccc" />
    <g
       transform="matrix(0,-1,1,0,-35.43288,641.33858)"
       id="g3447" />
    <path
       inkscape:connector-curvature="0"
       style="fill:#ff7f2a;fill-opacity:1;stroke:#000000;stroke-width:7.08661413;stroke-linejoin:round;stroke-miterlimit:4;stroke-opacity:1;stroke-dasharray:none;display:inline"
       d="m 593.50743,272.83465 0.003,-12.40258 c -3.8e-4,-1.95657 -1.5864,-3.54259 -3.54297,-3.54297 l -14.1875,0 c -1.95657,3.8e-4 -3.54259,1.5864 -3.54297,3.54297 l -0.0117,104.51368 -12.38281,0 0,-37.17578 c -3.8e-4,-1.95657 -1.5864,-3.54259 -3.54297,-3.54297 l -24.80312,0 m -10.62992,0 -7.09821,0 c -1.95657,3.8e-4 -3.54259,1.5864 -3.54297,3.54297 l 0,3.5918 -10.60156,-0.0488 c -1.96343,-0.009 -3.56019,1.57952 -3.56055,3.54297 l 0,7.08789 c 2.9e-4,1.94368 1.56618,3.52438 3.50977,3.54297 l 10.65234,0.0976 0,1.67383 c -1.95199,0.007 -3.53088,1.59097 -3.53125,3.54297 l 0,12.375 c 3.7e-4,1.952 1.57926,3.53613 3.53125,3.54297 l 0,19.48828 c 3.8e-4,1.95657 1.5864,3.54259 3.54297,3.54297 l 7.09821,0 m 10.62992,0 24.80312,0 c 1.95657,-3.8e-4 3.54259,-1.5864 3.54297,-3.54297 l 0,-3.51953 7.07226,0 0.008,7.08008 c 0.003,1.95504 1.58793,3.53868 3.54297,3.53906 l 7.09375,0 c 1.95733,-3.8e-4 3.54367,-1.58759 3.54297,-3.54492 l -0.01,-12.42774 c 3.5e-4,-1.0193 0.69331,-1.74168 1.76562,-1.74023 1.07887,10e-4 1.77309,0.73102 1.77344,1.74023 l 0.008,12.43165 c 10e-4,1.9558 1.58716,3.54063 3.54297,3.54101 l 7.09375,0 5e-5,2e-5 c 1.95733,-3.8e-4 3.54367,-1.58759 3.54297,-3.54492 l -10e-4,-1.77004 m -0.005,-8.85827 -10e-4,-1.80333 c -0.002,-4.59444 -2.06011,-8.75855 -5.3125,-11.70899 l 0.008,-82.15696"
       id="path3522-1-3-7-0-83"
       sodipodi:nodetypes="cccccccccccccccccccccccccccccccccccccccccccccccc" />
    <path
       inkscape:connector-curvature="0"
       style="fill:#ff7f2a;fill-opacity:1;stroke:#000000;stroke-width:7.08661413;stroke-linejoin:round;stroke-miterlimit:4;stroke-opacity:1;stroke-dasharray:none;display:inline"
       d="m 501.37497,290.55116 -0.003,12.40258 c 3.8e-4,1.95657 1.58641,3.54259 3.54298,3.54297 l 14.1875,0 c 1.95657,-3.8e-4 3.54259,-1.5864 3.54297,-3.54297 l 0.0117,-104.51368 12.38281,0 0,37.17578 c 3.8e-4,1.95657 1.5864,3.54259 3.54297,3.54297 l 24.80312,0 m 10.62992,0 7.09821,0 c 1.95657,-3.8e-4 3.54259,-1.5864 3.54297,-3.54297 l 0,-3.5918 10.60156,0.0488 c 1.96343,0.009 3.56019,-1.57952 3.56055,-3.54297 l 0,-7.08789 c -2.9e-4,-1.94368 -1.56618,-3.52438 -3.50977,-3.54297 l -10.65234,-0.0976 0,-1.67383 c 1.95199,-0.007 3.53088,-1.59097 3.53125,-3.54297 l 0,-12.375 c -3.7e-4,-1.952 -1.57926,-3.53613 -3.53125,-3.54297 l 0,-19.48828 c -3.8e-4,-1.95657 -1.5864,-3.54259 -3.54297,-3.54297 l -7.09821,0 m -10.62992,0 -24.80312,0 c -1.95657,3.8e-4 -3.54259,1.5864 -3.54297,3.54297 l 0,3.51953 -7.07226,0 -0.008,-7.08008 c -0.003,-1.95504 -1.58793,-3.53868 -3.54297,-3.53906 l -7.09375,0 c -1.95733,3.8e-4 -3.54367,1.58759 -3.54297,3.54492 l 0.01,12.42774 c -3.5e-4,1.0193 -0.69331,1.74168 -1.76562,1.74023 -1.07887,-0.001 -1.77309,-0.73102 -1.77344,-1.74023 l -0.008,-12.43165 c -0.001,-1.9558 -1.58716,-3.54063 -3.54297,-3.54101 l -7.09376,0 -5e-5,-2e-5 c -1.95733,3.8e-4 -3.54367,1.58759 -3.54297,3.54492 l 10e-4,1.77004 m 0.005,8.85827 0.001,1.80333 c 0.002,4.59444 2.06011,8.75855 5.3125,11.70899 l -0.008,82.15696"
       id="path3522-1-3-7-0-8-1"
       sodipodi:nodetypes="cccccccccccccccccccccccccccccccccccccccccccccccc" />
    <path
       inkscape:connector-curvature="0"
       style="fill:#ff7f2a;fill-opacity:1;stroke:#000000;stroke-width:7.08661413;stroke-linejoin:round;stroke-miterlimit:4;stroke-opacity:1;stroke-dasharray:none;display:inline"
       d="m 469.49167,272.83465 0.003,-12.40258 c -3.8e-4,-1.95657 -1.58641,-3.54259 -3.54298,-3.54297 l -14.1875,0 c -1.95657,3.8e-4 -3.54259,1.5864 -3.54297,3.54297 l -0.0117,104.51368 -12.38281,0 0,-37.17578 c -3.8e-4,-1.95657 -1.5864,-3.54259 -3.54297,-3.54297 l -24.80312,0 m -10.62992,0 -7.09821,0 c -1.95657,3.8e-4 -3.54259,1.5864 -3.54297,3.54297 l 0,3.5918 -10.60156,-0.0488 c -1.96343,-0.009 -3.56019,1.57952 -3.56055,3.54297 l 0,7.08789 c 2.9e-4,1.94368 1.56618,3.52438 3.50977,3.54297 l 10.65234,0.0976 0,1.67383 c -1.95199,0.007 -3.53088,1.59097 -3.53125,3.54297 l 0,12.375 c 3.7e-4,1.952 1.57926,3.53613 3.53125,3.54297 l 0,19.48828 c 3.8e-4,1.95657 1.5864,3.54259 3.54297,3.54297 l 7.09821,0 m 10.62992,0 24.80312,0 c 1.95657,-3.8e-4 3.54259,-1.5864 3.54297,-3.54297 l 0,-3.51953 7.07226,0 0.008,7.08008 c 0.003,1.95504 1.58793,3.53868 3.54297,3.53906 l 7.09375,0 c 1.95733,-3.8e-4 3.54367,-1.58759 3.54297,-3.54492 l -0.01,-12.42774 c 3.5e-4,-1.0193 0.69331,-1.74168 1.76562,-1.74023 1.07887,10e-4 1.77309,0.73102 1.77344,1.74023 l 0.008,12.43165 c 0.001,1.9558 1.58716,3.54063 3.54297,3.54101 l 7.09376,0 5e-5,2e-5 c 1.95733,-3.8e-4 3.54367,-1.58759 3.54297,-3.54492 l -10e-4,-1.77004 m -0.005,-8.85827 -10e-4,-1.80333 c -0.002,-4.59444 -2.06011,-8.75855 -5.3125,-11.70899 l 0.008,-82.15696"
       id="path3522-1-3-7-0-2-3"
       sodipodi:nodetypes="cccccccccccccccccccccccccccccccccccccccccccccccc" />
    <path
       inkscape:connector-curvature="0"
       style="fill:#ff7f2a;fill-opacity:1;stroke:#000000;stroke-width:7.08661413;stroke-linejoin:round;stroke-miterlimit:4;stroke-opacity:1;stroke-dasharray:none;display:inline"
       d="m 377.3592,290.55116 -0.003,12.40258 c 3.8e-4,1.95657 1.58641,3.54259 3.54298,3.54297 l 14.1875,0 c 1.95657,-3.8e-4 3.54259,-1.5864 3.54297,-3.54297 l 0.0117,-104.51368 12.38281,0 0,37.17578 c 3.8e-4,1.95657 1.5864,3.54259 3.54297,3.54297 l 24.80312,0 m 10.62992,0 7.09821,0 c 1.95657,-3.8e-4 3.54259,-1.5864 3.54297,-3.54297 l 0,-3.5918 10.60157,0.0488 c 1.96343,0.009 3.56019,-1.57952 3.56055,-3.54297 l 0,-7.08789 c -2.9e-4,-1.94368 -1.56618,-3.52438 -3.50977,-3.54297 l -10.65235,-0.0976 0,-1.67383 c 1.95199,-0.007 3.53088,-1.59097 3.53125,-3.54297 l 0,-12.375 c -3.7e-4,-1.952 -1.57926,-3.53613 -3.53125,-3.54297 l 0,-19.48828 c -3.8e-4,-1.95657 -1.5864,-3.54259 -3.54297,-3.54297 l -7.09821,0 m -10.62992,0 -24.80312,0 c -1.95657,3.8e-4 -3.54259,1.5864 -3.54297,3.54297 l 0,3.51953 -7.07226,0 -0.008,-7.08008 c -0.003,-1.95504 -1.58793,-3.53868 -3.54297,-3.53906 l -7.09375,0 c -1.95733,3.8e-4 -3.54367,1.58759 -3.54297,3.54492 l 0.01,12.42774 c -3.5e-4,1.0193 -0.69331,1.74168 -1.76562,1.74023 -1.07887,-0.001 -1.77309,-0.73102 -1.77344,-1.74023 l -0.008,-12.43165 c -10e-4,-1.9558 -1.58716,-3.54063 -3.54297,-3.54101 l -7.09376,0 -5e-5,-2e-5 c -1.95733,3.8e-4 -3.54367,1.58759 -3.54297,3.54492 l 0.001,1.77004 m 0.005,8.85827 10e-4,1.80333 c 0.002,4.59444 2.06011,8.75855 5.3125,11.70899 l -0.008,82.15696"
       id="path3522-1-3-7-0-8-5-1"
       sodipodi:nodetypes="cccccccccccccccccccccccccccccccccccccccccccccccc" />
    <path
       inkscape:connector-curvature="0"
       style="fill:#ff7f2a;fill-opacity:1;stroke:#000000;stroke-width:7.08661413;stroke-linejoin:round;stroke-miterlimit:4;stroke-opacity:1;stroke-dasharray:none;display:inline"
       d="m 345.47592,272.83465 0.003,-12.40258 c -3.8e-4,-1.95657 -1.5864,-3.54259 -3.54297,-3.54297 l -14.1875,0 c -1.95657,3.8e-4 -3.54259,1.5864 -3.54297,3.54297 l -0.0117,104.51368 -12.38281,0 0,-37.17578 c -3.8e-4,-1.95657 -1.5864,-3.54259 -3.54297,-3.54297 l -24.80312,0 m -10.62992,0 -7.09821,0 c -1.95657,3.8e-4 -3.54259,1.5864 -3.54297,3.54297 l 0,3.5918 -10.60156,-0.0488 c -1.96343,-0.009 -3.56019,1.57952 -3.56055,3.54297 l 0,7.08789 c 2.9e-4,1.94368 1.56618,3.52438 3.50977,3.54297 l 10.65234,0.0976 0,1.67383 c -1.95199,0.007 -3.53088,1.59097 -3.53125,3.54297 l 0,12.375 c 3.7e-4,1.952 1.57926,3.53613 3.53125,3.54297 l 0,19.48828 c 3.8e-4,1.95657 1.5864,3.54259 3.54297,3.54297 l 7.09821,0 m 10.62992,0 24.80312,0 c 1.95657,-3.8e-4 3.54259,-1.5864 3.54297,-3.54297 l 0,-3.51953 7.07226,0 0.008,7.08008 c 0.003,1.95504 1.58793,3.53868 3.54297,3.53906 l 7.09375,0 c 1.95733,-3.8e-4 3.54367,-1.58759 3.54297,-3.54492 l -0.01,-12.42774 c 3.5e-4,-1.0193 0.69331,-1.74168 1.76562,-1.74023 1.07887,10e-4 1.77309,0.73102 1.77344,1.74023 l 0.008,12.43165 c 10e-4,1.9558 1.58716,3.54063 3.54297,3.54101 l 7.09375,0 5e-5,2e-5 c 1.95733,-3.8e-4 3.54367,-1.58759 3.54297,-3.54492 l -10e-4,-1.77004 m -0.005,-8.85827 -0.001,-1.80333 c -0.002,-4.59444 -2.06011,-8.75855 -5.3125,-11.70899 l 0.008,-82.15696"
       id="path3522-1-3-7-0-4-7"
       sodipodi:nodetypes="cccccccccccccccccccccccccccccccccccccccccccccccc" />
    <path
       inkscape:connector-curvature="0"
       style="fill:#ff7f2a;fill-opacity:1;stroke:#000000;stroke-width:7.08661413;stroke-linejoin:round;stroke-miterlimit:4;stroke-opacity:1;stroke-dasharray:none;display:inline"
       d="m 253.34346,290.55116 -0.003,12.40258 c 3.8e-4,1.95657 1.58641,3.54259 3.54298,3.54297 l 14.1875,0 c 1.95657,-3.8e-4 3.54259,-1.5864 3.54297,-3.54297 l 0.0117,-104.51368 12.38281,0 0,37.17578 c 3.8e-4,1.95657 1.5864,3.54259 3.54297,3.54297 l 24.80312,0 m 10.62992,0 7.09821,0 c 1.95657,-3.8e-4 3.54259,-1.5864 3.54297,-3.54297 l 0,-3.5918 10.60156,0.0488 c 1.96343,0.009 3.56019,-1.57952 3.56055,-3.54297 l 0,-7.08789 c -2.9e-4,-1.94368 -1.56618,-3.52438 -3.50977,-3.54297 l -10.65234,-0.0976 0,-1.67383 c 1.95199,-0.007 3.53088,-1.59097 3.53125,-3.54297 l 0,-12.375 c -3.7e-4,-1.952 -1.57926,-3.53613 -3.53125,-3.54297 l 0,-19.48828 c -3.8e-4,-1.95657 -1.5864,-3.54259 -3.54297,-3.54297 l -7.09821,0 m -10.62992,0 -24.80312,0 c -1.95657,3.8e-4 -3.54259,1.5864 -3.54297,3.54297 l 0,3.51953 -7.07226,0 -0.008,-7.08008 c -0.003,-1.95504 -1.58793,-3.53868 -3.54297,-3.53906 l -7.09375,0 c -1.95733,3.8e-4 -3.54367,1.58759 -3.54297,3.54492 l 0.01,12.42774 c -3.5e-4,1.0193 -0.69331,1.74168 -1.76562,1.74023 -1.07887,-0.001 -1.77309,-0.73102 -1.77344,-1.74023 l -0.008,-12.43165 c -10e-4,-1.9558 -1.58716,-3.54063 -3.54297,-3.54101 l -7.09376,0 -5e-5,-2e-5 c -1.95733,3.8e-4 -3.54367,1.58759 -3.54297,3.54492 l 0.001,1.77004 m 0.005,8.85827 0.001,1.80333 c 0.002,4.59444 2.06011,8.75855 5.3125,11.70899 l -0.008,82.15696"
       id="path3522-1-3-7-0-8-7-3"
       sodipodi:nodetypes="cccccccccccccccccccccccccccccccccccccccccccccccc" />
    <path
       inkscape:connector-curvature="0"
       style="fill:#ff7f2a;fill-opacity:1;stroke:#000000;stroke-width:7.08661413;stroke-linejoin:round;stroke-miterlimit:4;stroke-opacity:1;stroke-dasharray:none;display:inline"
       d="m 221.46016,272.83465 0.003,-12.40258 c -3.8e-4,-1.95657 -1.5864,-3.54259 -3.54297,-3.54297 l -14.1875,0 c -1.95657,3.8e-4 -3.54259,1.5864 -3.54297,3.54297 l -0.0117,104.51368 -12.38281,0 0,-37.17578 c -3.8e-4,-1.95657 -1.5864,-3.54259 -3.54297,-3.54297 l -24.80312,0 m -10.62992,0 -7.09821,0 c -1.95657,3.8e-4 -3.54259,1.5864 -3.54297,3.54297 l 0,3.5918 -10.60156,-0.0488 c -1.96343,-0.009 -3.56019,1.57952 -3.56055,3.54297 l 0,7.08789 c 2.9e-4,1.94368 1.56618,3.52438 3.50977,3.54297 l 10.65234,0.0976 0,1.67383 c -1.95199,0.007 -3.53088,1.59097 -3.53125,3.54297 l 0,12.375 c 3.7e-4,1.952 1.57926,3.53613 3.53125,3.54297 l 0,19.48828 c 3.8e-4,1.95657 1.5864,3.54259 3.54297,3.54297 l 7.09821,0 m 10.62992,0 24.80312,0 c 1.95657,-3.8e-4 3.54259,-1.5864 3.54297,-3.54297 l 0,-3.51953 7.07226,0 0.008,7.08008 c 0.003,1.95504 1.58793,3.53868 3.54297,3.53906 l 7.09375,0 c 1.95733,-3.8e-4 3.54367,-1.58759 3.54297,-3.54492 l -0.01,-12.42774 c 3.5e-4,-1.0193 0.69331,-1.74168 1.76562,-1.74023 1.07887,10e-4 1.77309,0.73102 1.77344,1.74023 l 0.008,12.43165 c 0.001,1.9558 1.58716,3.54063 3.54297,3.54101 l 7.09375,0 5e-5,2e-5 c 1.95733,-3.8e-4 3.54367,-1.58759 3.54297,-3.54492 l -0.001,-1.77004 m -0.005,-8.85827 -0.001,-1.80333 c -0.002,-4.59444 -2.06011,-8.75855 -5.3125,-11.70899 l 0.008,-82.15696"
       id="path3522-1-3-7-0-27-9"
       sodipodi:nodetypes="cccccccccccccccccccccccccccccccccccccccccccccccc" />
    <path
       inkscape:connector-curvature="0"
       style="fill:#ff7f2a;fill-opacity:1;stroke:#000000;stroke-width:7.08661413;stroke-linejoin:round;stroke-miterlimit:4;stroke-opacity:1;stroke-dasharray:none;display:inline"
       d="m 129.3277,290.55116 -0.003,12.40258 c 3.8e-4,1.95657 1.58641,3.54259 3.54298,3.54297 l 14.1875,0 c 1.95657,-3.8e-4 3.54259,-1.5864 3.54297,-3.54297 l 0.0117,-104.51368 12.38281,0 0,37.17578 c 3.8e-4,1.95657 1.5864,3.54259 3.54297,3.54297 l 24.80312,0 m 10.62992,0 7.09821,0 c 1.95657,-3.8e-4 3.54259,-1.5864 3.54297,-3.54297 l 0,-3.5918 10.60156,0.0488 c 1.96343,0.009 3.56019,-1.57952 3.56055,-3.54297 l 0,-7.08789 c -2.9e-4,-1.94368 -1.56618,-3.52438 -3.50977,-3.54297 l -10.65234,-0.0976 0,-1.67383 c 1.95199,-0.007 3.53088,-1.59097 3.53125,-3.54297 l 0,-12.375 c -3.7e-4,-1.952 -1.57926,-3.53613 -3.53125,-3.54297 l 0,-19.48828 c -3.8e-4,-1.95657 -1.5864,-3.54259 -3.54297,-3.54297 l -7.09821,0 m -10.62992,0 -24.80312,0 c -1.95657,3.8e-4 -3.54259,1.5864 -3.54297,3.54297 l 0,3.51953 -7.07226,0 -0.008,-7.08008 c -0.003,-1.95504 -1.58793,-3.53868 -3.54297,-3.53906 l -7.09375,0 c -1.95733,3.8e-4 -3.54367,1.58759 -3.54297,3.54492 l 0.01,12.42774 c -3.5e-4,1.0193 -0.69331,1.74168 -1.76562,1.74023 -1.07887,-0.001 -1.77309,-0.73102 -1.77344,-1.74023 l -0.008,-12.43165 c -0.001,-1.9558 -1.58716,-3.54063 -3.54297,-3.54101 l -7.09376,0 -5e-5,-2e-5 c -1.95733,3.8e-4 -3.54367,1.58759 -3.54297,3.54492 l 0.001,1.77004 m 0.005,8.85827 0.001,1.80333 c 0.002,4.59444 2.06011,8.75855 5.3125,11.70899 l -0.008,82.15696"
       id="path3522-1-3-7-0-8-9-7"
       sodipodi:nodetypes="cccccccccccccccccccccccccccccccccccccccccccccccc" />
    <path
       inkscape:connector-curvature="0"
       style="fill:#ff7f2a;fill-opacity:1;stroke:#000000;stroke-width:7.08661413;stroke-linejoin:round;stroke-miterlimit:4;stroke-opacity:1;stroke-dasharray:none;display:inline"
       d="m 97.44441,272.83465 0.003,-12.40258 c -3.8e-4,-1.95657 -1.58641,-3.54259 -3.54298,-3.54297 l -14.1875,0 c -1.95657,3.8e-4 -3.54259,1.5864 -3.54297,3.54297 l -0.0117,104.51368 -12.382811,0 0,-37.17578 c -3.8e-4,-1.95657 -1.5864,-3.54259 -3.54297,-3.54297 l -24.80312,0 m -10.62992,0 -7.09821,0 c -1.95657,3.8e-4 -3.54259,1.5864 -3.54297,3.54297 l 0,3.5918 -10.60156,-0.0488 c -1.96343,-0.009 -3.56019,1.57952 -3.56055,3.54297 l 0,7.08789 c 2.9e-4,1.94368 1.56618,3.52438 3.50977,3.54297 l 10.65234,0.0976 0,1.67383 c -1.95199,0.007 -3.53088,1.59097 -3.53125,3.54297 l 0,12.375 c 3.7e-4,1.952 1.57926,3.53613 3.53125,3.54297 l 0,19.48828 c 3.8e-4,1.95657 1.5864,3.54259 3.54297,3.54297 l 7.09821,0 m 10.62992,0 24.80312,0 c 1.95657,-3.8e-4 3.54259,-1.5864 3.54297,-3.54297 l 0,-3.51953 7.072261,0 0.008,7.08008 c 0.003,1.95504 1.58793,3.53868 3.54297,3.53906 l 7.09375,0 c 1.95733,-3.8e-4 3.54367,-1.58759 3.54297,-3.54492 l -0.01,-12.42774 c 3.5e-4,-1.0193 0.69331,-1.74168 1.76562,-1.74023 1.07887,10e-4 1.77309,0.73102 1.77344,1.74023 l 0.008,12.43165 c 0.001,1.9558 1.58716,3.54063 3.54297,3.54101 l 7.09376,0 5e-5,2e-5 c 1.95733,-3.8e-4 3.54367,-1.58759 3.54297,-3.54492 l -10e-4,-1.77004 m -0.005,-8.85827 -10e-4,-1.80333 c -0.002,-4.59444 -2.06011,-8.75855 -5.3125,-11.70899 l 0.008,-82.15696"
       id="path3522-1-3-7-0-80-9"
       sodipodi:nodetypes="cccccccccccccccccccccccccccccccccccccccccccccccc" />
    <path
       inkscape:connector-curvature="0"
       style="fill:#ff7f2a;fill-opacity:1;stroke:#000000;stroke-width:7.08661413;stroke-linejoin:round;stroke-miterlimit:4;stroke-opacity:1;stroke-dasharray:none;display:inline"
       d="m 5.311939,290.55116 -0.003,12.40258 c 3.8e-4,1.95657 1.58641,3.54259 3.54298,3.54297 l 14.1875,0 c 1.95657,-3.8e-4 3.54259,-1.5864 3.54297,-3.54297 l 0.0117,-104.51368 12.38281,0 0,37.17578 c 3.8e-4,1.95657 1.5864,3.54259 3.54297,3.54297 l 24.803121,0 m 10.62992,0 7.09821,0 c 1.95657,-3.8e-4 3.54259,-1.5864 3.54297,-3.54297 l 0,-3.5918 10.60157,0.0488 c 1.96343,0.009 3.56019,-1.57952 3.56055,-3.54297 l 0,-7.08789 c -2.9e-4,-1.94368 -1.56618,-3.52438 -3.50977,-3.54297 l -10.65235,-0.0976 0,-1.67383 c 1.95199,-0.007 3.53088,-1.59097 3.53125,-3.54297 l 0,-12.375 c -3.7e-4,-1.952 -1.57926,-3.53613 -3.53125,-3.54297 l 0,-19.48828 c -3.8e-4,-1.95657 -1.5864,-3.54259 -3.54297,-3.54297 l -7.09821,0 m -10.62992,0 -24.803121,0 c -1.95657,3.8e-4 -3.54259,1.5864 -3.54297,3.54297 l 0,3.51953 -7.07226,0 -0.008,-7.08008 c -0.003,-1.95504 -1.58793,-3.53868 -3.54297,-3.53906 l -7.09375,0 c -1.95733,3.8e-4 -3.54367,1.58759 -3.54297,3.54492 l 0.01,12.42774 c -3.5e-4,1.0193 -0.69331,1.74168 -1.76562,1.74023 -1.07887,-0.001 -1.77309,-0.73102 -1.77344,-1.74023 l -0.008,-12.43165 c -10e-4,-1.9558 -1.58716,-3.54063 -3.54297,-3.54101 l -7.09376,0 -5e-5,-2e-5 c -1.95733,3.8e-4 -3.54367,1.58759 -3.54297,3.54492 l 0.001,1.77004 m 0.005,8.85827 0.001,1.80333 c 0.002,4.59444 2.06011,8.75855 5.3125,11.70899 l -0.008,82.15696"
       id="path3522-1-3-7-0-8-8-7"
       sodipodi:nodetypes="cccccccccccccccccccccccccccccccccccccccccccccccc" />
    <g
       id="g4379" />
    <path
       inkscape:connector-curvature="0"
       style="fill:#ffcc00;fill-opacity:1;stroke:#000000;stroke-width:7.08661413;stroke-miterlimit:4;stroke-opacity:1;stroke-dasharray:none"
       d="m 636.02361,637.79527 12.40208,0 c 1.85497,-3.6e-4 3.54257,-1.68793 3.54297,-3.5429 l 0,-17.71826 m 0,-10.6286 0,-3.54184 c -4e-4,-1.85497 -1.688,-3.54254 -3.54297,-3.5429 l -12.40234,0 c -1.85497,3.7e-4 -3.54256,1.68793 -3.54296,3.5429 l -3.54492,0 c -4e-4,-1.85497 -1.688,-3.54254 -3.54297,-3.5429 l -12.40039,0 c -1.85497,3.6e-4 -3.54257,1.68793 -3.54297,3.5429 l 0,3.54184 m 0,10.62992 0,17.71694 c 4e-4,1.85497 1.688,3.54254 3.54297,3.5429 l 12.40157,0"
       id="path4569-2"
       sodipodi:nodetypes="cccccccccccccccccc" />
    <path
       inkscape:connector-curvature="0"
       style="fill:#ff6600;fill-opacity:1;stroke:#000000;stroke-width:7.08661413;stroke-linejoin:round;stroke-miterlimit:4;stroke-opacity:1;stroke-dasharray:none;stroke-dashoffset:24.16535187"
       d="m 630.70891,618.30897 c -0.92774,-2e-4 -1.77335,0.8438 -1.77344,1.7715 -2.6e-4,0.928 0.84548,1.7737 1.77344,1.7735 0.92774,-10e-5 1.77173,-0.8457 1.77148,-1.7735 -9e-5,-0.9275 -0.84396,-1.7714 -1.77148,-1.7715 z"
       id="path4571-0" />
    <path
       inkscape:connector-curvature="0"
       style="fill:#ffcc00;fill-opacity:1;stroke:#000000;stroke-width:7.08661413;stroke-miterlimit:4;stroke-opacity:1;stroke-dasharray:none;display:inline"
       d="m 636.02361,584.64566 12.40208,0 c 1.85497,-3.6e-4 3.54257,-1.68793 3.54297,-3.5429 l 0,-17.71826 m 0,-10.6286 0,-3.54184 c -4e-4,-1.85497 -1.688,-3.54254 -3.54297,-3.5429 l -12.40234,0 c -1.85497,3.7e-4 -3.54256,1.68793 -3.54296,3.5429 l -3.54492,0 c -4e-4,-1.85497 -1.688,-3.54254 -3.54297,-3.5429 l -12.40039,0 c -1.85497,3.6e-4 -3.54257,1.68793 -3.54297,3.5429 l 0,3.54184 m 0,10.62992 0,17.71694 c 4e-4,1.85497 1.688,3.54254 3.54297,3.5429 l 12.40157,0"
       id="path4569-2-4"
       sodipodi:nodetypes="cccccccccccccccccc" />
    <path
       inkscape:connector-curvature="0"
       style="fill:#ff6600;fill-opacity:1;stroke:#000000;stroke-width:7.08661413;stroke-linejoin:round;stroke-miterlimit:4;stroke-opacity:1;stroke-dasharray:none;stroke-dashoffset:24.16535187;display:inline"
       d="m 630.70891,565.15936 c -0.92774,-2e-4 -1.77335,0.8438 -1.77344,1.7715 -2.6e-4,0.928 0.84548,1.7737 1.77344,1.7735 0.92774,-10e-5 1.77173,-0.8457 1.77148,-1.7735 -9e-5,-0.9275 -0.84396,-1.7714 -1.77148,-1.7715 z"
       id="path4571-0-8" />
    <path
       inkscape:connector-curvature="0"
       style="fill:#ffcc00;fill-opacity:1;stroke:#000000;stroke-width:7.08661413;stroke-miterlimit:4;stroke-opacity:1;stroke-dasharray:none;display:inline"
       d="m 636.02361,531.49606 12.40208,0 c 1.85497,-3.6e-4 3.54257,-1.68793 3.54297,-3.5429 l 0,-17.71826 m 0,-10.6286 0,-3.54183 c -4e-4,-1.85497 -1.688,-3.54254 -3.54297,-3.5429 l -12.40234,0 c -1.85497,3.7e-4 -3.54256,1.68793 -3.54296,3.5429 l -3.54492,0 c -4e-4,-1.85497 -1.688,-3.54254 -3.54297,-3.5429 l -12.40039,0 c -1.85497,3.6e-4 -3.54257,1.68793 -3.54297,3.5429 l 0,3.54183 m 0,10.62992 0,17.71694 c 4e-4,1.85497 1.688,3.54254 3.54297,3.5429 l 12.40157,0"
       id="path4569-2-6"
       sodipodi:nodetypes="cccccccccccccccccc" />
    <path
       inkscape:connector-curvature="0"
       style="fill:#ff6600;fill-opacity:1;stroke:#000000;stroke-width:7.08661413;stroke-linejoin:round;stroke-miterlimit:4;stroke-opacity:1;stroke-dasharray:none;stroke-dashoffset:24.16535187;display:inline"
       d="m 630.70891,512.00976 c -0.92774,-2e-4 -1.77335,0.8438 -1.77344,1.7715 -2.6e-4,0.928 0.84548,1.7737 1.77344,1.7735 0.92774,-10e-5 1.77173,-0.8457 1.77148,-1.7735 -9e-5,-0.9275 -0.84396,-1.7714 -1.77148,-1.7715 z"
       id="path4571-0-5" />
    <path
       inkscape:connector-curvature="0"
       style="fill:#ffcc00;fill-opacity:1;stroke:#000000;stroke-width:7.08661413;stroke-miterlimit:4;stroke-opacity:1;stroke-dasharray:none;display:inline"
       d="m 636.02363,478.34647 12.40208,0 c 1.85497,-3.6e-4 3.54257,-1.68793 3.54297,-3.5429 l 0,-17.71826 m 0,-10.6286 0,-3.54184 c -4e-4,-1.85497 -1.688,-3.54254 -3.54297,-3.5429 l -12.40234,0 c -1.85497,3.7e-4 -3.54256,1.68793 -3.54296,3.5429 l -3.54492,0 c -4e-4,-1.85497 -1.688,-3.54254 -3.54297,-3.5429 l -12.40039,0 c -1.85497,3.6e-4 -3.54257,1.68793 -3.54297,3.5429 l 0,3.54184 m 0,10.62992 0,17.71694 c 4e-4,1.85497 1.688,3.54254 3.54297,3.5429 l 12.40157,0"
       id="path4569-2-2"
       sodipodi:nodetypes="cccccccccccccccccc" />
    <path
       inkscape:connector-curvature="0"
       style="fill:#ff6600;fill-opacity:1;stroke:#000000;stroke-width:7.08661413;stroke-linejoin:round;stroke-miterlimit:4;stroke-opacity:1;stroke-dasharray:none;stroke-dashoffset:24.16535187;display:inline"
       d="m 630.70893,458.86017 c -0.92774,-2e-4 -1.77335,0.8438 -1.77344,1.7715 -2.6e-4,0.928 0.84548,1.7737 1.77344,1.7735 0.92774,-10e-5 1.77173,-0.8457 1.77148,-1.7735 -9e-5,-0.9275 -0.84396,-1.7714 -1.77148,-1.7715 z"
       id="path4571-0-6" />
    <path
       inkscape:connector-curvature="0"
       style="fill:#ffcc00;fill-opacity:1;stroke:#000000;stroke-width:7.08661413;stroke-miterlimit:4;stroke-opacity:1;stroke-dasharray:none;display:inline"
       d="m 636.02363,425.19686 12.40208,0 c 1.85497,-3.6e-4 3.54257,-1.68793 3.54297,-3.5429 l 0,-17.71826 m 0,-10.6286 0,-3.54184 c -4e-4,-1.85497 -1.688,-3.54254 -3.54297,-3.5429 l -12.40234,0 c -1.85497,3.7e-4 -3.54256,1.68793 -3.54296,3.5429 l -3.54492,0 c -4e-4,-1.85497 -1.688,-3.54254 -3.54297,-3.5429 l -12.40039,0 c -1.85497,3.6e-4 -3.54257,1.68793 -3.54297,3.5429 l 0,3.54184 m 0,10.62992 0,17.71694 c 4e-4,1.85497 1.688,3.54254 3.54297,3.5429 l 12.40157,0"
       id="path4569-2-4-6"
       sodipodi:nodetypes="cccccccccccccccccc" />
    <path
       inkscape:connector-curvature="0"
       style="fill:#ff6600;fill-opacity:1;stroke:#000000;stroke-width:7.08661413;stroke-linejoin:round;stroke-miterlimit:4;stroke-opacity:1;stroke-dasharray:none;stroke-dashoffset:24.16535187;display:inline"
       d="m 630.70893,405.71056 c -0.92774,-2e-4 -1.77335,0.8438 -1.77344,1.7715 -2.6e-4,0.928 0.84548,1.7737 1.77344,1.7735 0.92774,-10e-5 1.77173,-0.8457 1.77148,-1.7735 -9e-5,-0.9275 -0.84396,-1.7714 -1.77148,-1.7715 z"
       id="path4571-0-8-0" />
    <path
       inkscape:connector-curvature="0"
       style="fill:#ffcc00;fill-opacity:1;stroke:#000000;stroke-width:7.08661413;stroke-miterlimit:4;stroke-opacity:1;stroke-dasharray:none;display:inline"
       d="m 636.02363,372.04726 12.40208,0 c 1.85497,-3.6e-4 3.54257,-1.68793 3.54297,-3.5429 l 0,-17.71826 m 0,-10.6286 0,-3.54183 c -4e-4,-1.85497 -1.688,-3.54254 -3.54297,-3.5429 l -12.40234,0 c -1.85497,3.7e-4 -3.54256,1.68793 -3.54296,3.5429 l -3.54492,0 c -4e-4,-1.85497 -1.688,-3.54254 -3.54297,-3.5429 l -12.40039,0 c -1.85497,3.6e-4 -3.54257,1.68793 -3.54297,3.5429 l 0,3.54183 m 0,10.62992 0,17.71694 c 4e-4,1.85497 1.688,3.54254 3.54297,3.5429 l 12.40157,0"
       id="path4569-2-6-1"
       sodipodi:nodetypes="cccccccccccccccccc" />
    <path
       inkscape:connector-curvature="0"
       style="fill:#ff6600;fill-opacity:1;stroke:#000000;stroke-width:7.08661413;stroke-linejoin:round;stroke-miterlimit:4;stroke-opacity:1;stroke-dasharray:none;stroke-dashoffset:24.16535187;display:inline"
       d="m 630.70893,352.56096 c -0.92774,-2e-4 -1.77335,0.8438 -1.77344,1.7715 -2.6e-4,0.928 0.84548,1.7737 1.77344,1.7735 0.92774,-10e-5 1.77173,-0.8457 1.77148,-1.7735 -9e-5,-0.9275 -0.84396,-1.7714 -1.77148,-1.7715 z"
       id="path4571-0-5-6" />
    <path
       inkscape:connector-curvature="0"
       style="fill:#ffcc00;fill-opacity:1;stroke:#000000;stroke-width:7.08661413;stroke-miterlimit:4;stroke-opacity:1;stroke-dasharray:none;display:inline"
       d="m 636.02328,318.89725 12.40208,0 c 1.85497,-3.6e-4 3.54257,-1.68793 3.54297,-3.5429 l 0,-17.71826 m 0,-10.6286 0,-3.54184 c -4e-4,-1.85497 -1.688,-3.54254 -3.54297,-3.5429 l -12.40234,0 c -1.85497,3.7e-4 -3.54256,1.68793 -3.54296,3.5429 l -3.54492,0 c -4e-4,-1.85497 -1.688,-3.54254 -3.54297,-3.5429 l -12.40039,0 c -1.85497,3.6e-4 -3.54257,1.68793 -3.54297,3.5429 l 0,3.54184 m 0,10.62992 0,17.71694 c 4e-4,1.85497 1.688,3.54254 3.54297,3.5429 l 12.40157,0"
       id="path4569-2-3"
       sodipodi:nodetypes="cccccccccccccccccc" />
    <path
       inkscape:connector-curvature="0"
       style="fill:#ff6600;fill-opacity:1;stroke:#000000;stroke-width:7.08661413;stroke-linejoin:round;stroke-miterlimit:4;stroke-opacity:1;stroke-dasharray:none;stroke-dashoffset:24.16535187;display:inline"
       d="m 630.70858,299.41095 c -0.92774,-2e-4 -1.77335,0.8438 -1.77344,1.7715 -2.6e-4,0.928 0.84548,1.7737 1.77344,1.7735 0.92774,-10e-5 1.77173,-0.8457 1.77148,-1.7735 -9e-5,-0.9275 -0.84396,-1.7714 -1.77148,-1.7715 z"
       id="path4571-0-7" />
    <path
       inkscape:connector-curvature="0"
       style="fill:#ffcc00;fill-opacity:1;stroke:#000000;stroke-width:7.08661413;stroke-miterlimit:4;stroke-opacity:1;stroke-dasharray:none;display:inline"
       d="m 636.02328,265.74764 12.40208,0 c 1.85497,-3.6e-4 3.54257,-1.68793 3.54297,-3.5429 l 0,-17.71826 m 0,-10.6286 0,-3.54184 c -4e-4,-1.85497 -1.688,-3.54254 -3.54297,-3.5429 l -12.40234,0 c -1.85497,3.7e-4 -3.54256,1.68793 -3.54296,3.5429 l -3.54492,0 c -4e-4,-1.85497 -1.688,-3.54254 -3.54297,-3.5429 l -12.40039,0 c -1.85497,3.6e-4 -3.54257,1.68793 -3.54297,3.5429 l 0,3.54184 m 0,10.62992 0,17.71694 c 4e-4,1.85497 1.688,3.54254 3.54297,3.5429 l 12.40157,0"
       id="path4569-2-4-2"
       sodipodi:nodetypes="cccccccccccccccccc" />
    <path
       inkscape:connector-curvature="0"
       style="fill:#ff6600;fill-opacity:1;stroke:#000000;stroke-width:7.08661413;stroke-linejoin:round;stroke-miterlimit:4;stroke-opacity:1;stroke-dasharray:none;stroke-dashoffset:24.16535187;display:inline"
       d="m 630.70858,246.26134 c -0.92774,-2e-4 -1.77335,0.8438 -1.77344,1.7715 -2.6e-4,0.928 0.84548,1.7737 1.77344,1.7735 0.92774,-1e-4 1.77173,-0.8457 1.77148,-1.7735 -9e-5,-0.9275 -0.84396,-1.7714 -1.77148,-1.7715 z"
       id="path4571-0-8-9" />
    <path
       inkscape:connector-curvature="0"
       style="fill:#ffcc00;fill-opacity:1;stroke:#000000;stroke-width:7.08661413;stroke-miterlimit:4;stroke-opacity:1;stroke-dasharray:none;display:inline"
       d="m 636.02328,212.59804 12.40208,0 c 1.85497,-3.6e-4 3.54257,-1.68793 3.54297,-3.5429 l 0,-17.71826 m 0,-10.6286 0,-3.54183 c -4e-4,-1.85497 -1.688,-3.54254 -3.54297,-3.5429 l -12.40234,0 c -1.85497,3.7e-4 -3.54256,1.68793 -3.54296,3.5429 l -3.54492,0 c -4e-4,-1.85497 -1.688,-3.54254 -3.54297,-3.5429 l -12.40039,0 c -1.85497,3.6e-4 -3.54257,1.68793 -3.54297,3.5429 l 0,3.54183 m 0,10.62992 0,17.71694 c 4e-4,1.85497 1.688,3.54254 3.54297,3.5429 l 12.40157,0"
       id="path4569-2-6-9"
       sodipodi:nodetypes="cccccccccccccccccc" />
    <path
       inkscape:connector-curvature="0"
       style="fill:#ff6600;fill-opacity:1;stroke:#000000;stroke-width:7.08661413;stroke-linejoin:round;stroke-miterlimit:4;stroke-opacity:1;stroke-dasharray:none;stroke-dashoffset:24.16535187;display:inline"
       d="m 630.70858,193.11174 c -0.92774,-2e-4 -1.77335,0.8438 -1.77344,1.7715 -2.6e-4,0.928 0.84548,1.7737 1.77344,1.7735 0.92774,-1e-4 1.77173,-0.8457 1.77148,-1.7735 -9e-5,-0.9275 -0.84396,-1.7714 -1.77148,-1.7715 z"
       id="path4571-0-5-60" />
  </g>
  <defs
     id="defs4788">
    <marker
       refY="-1.687441"
       refX="-4"
       style="overflow:visible"
       id="CheckToolsAndOPMarker"
       orient="auto">
      <path
         style="fill:#000044; fill-rule:evenodd;stroke:none;"
         d=" m -4.588864,-1.687441 0.0,0.0 L -9.177728,0.0 c 0.73311,-0.996261 0.728882,-2.359329 0.0,-3.374882"
         id="path4791" />
    </marker>
  </defs>
  <defs
     id="defs4793">
    <marker
       refY="-1.687441"
       refX="-4"
       style="overflow:visible"
       id="DrawCurveMarker"
       orient="auto">
      <path
         style="fill:#000044; fill-rule:evenodd;stroke:none;"
         d="m -4.588864,-1.687441 0.0,0.0 L -9.177728,0.0 c 0.73311,-0.996261 0.728882,-2.359329 0.0,-3.374882"
         id="path6945" />
    </marker>
  </defs>
  <defs
     id="defs4798">
    <marker
       refY="-1.687441"
       refX="4"
       style="overflow:visible"
       id="DrawCurveMarker_r"
       orient="auto">
      <path
         style="fill:#000044; fill-rule:evenodd;stroke:none;"
         d="m 4.588864,-1.687441 0.0,0.0 L 9.177728,0.0 c -0.73311,-0.996261 -0.728882,-2.359329 0.0,-3.374882"
         id="path4801" />
    </marker>
  </defs>
  <defs
     id="defs4803">
    <marker
       refY="-1.687441"
       refX="-4"
       style="overflow:visible"
       id="InOutPathMarker"
       orient="auto">
      <path
         style="fill:#0072a7; fill-rule:evenodd;stroke:none;"
         d="m -4.588864,-1.687441 0.0,0.0 L -9.177728,0.0 c 0.73311,-0.996261 0.728882,-2.359329 0.0,-3.374882"
         id="path6952" />
    </marker>
  </defs>
</svg>
