<?xml version="1.0" encoding="UTF-8" standalone="no"?>
<!-- Created with Inkscape (http://www.inkscape.org/) -->

<svg
   xmlns:dc="http://purl.org/dc/elements/1.1/"
   xmlns:cc="http://creativecommons.org/ns#"
   xmlns:rdf="http://www.w3.org/1999/02/22-rdf-syntax-ns#"
   xmlns:svg="http://www.w3.org/2000/svg"
   xmlns="http://www.w3.org/2000/svg"
   xmlns:sodipodi="http://sodipodi.sourceforge.net/DTD/sodipodi-0.dtd"
   xmlns:inkscape="http://www.inkscape.org/namespaces/inkscape"
   width="280mm"
   height="180mm"
   viewBox="0 0 992.12596 637.79527"
   id="svg2"
   version="1.1"
   inkscape:version="0.91 r"
   sodipodi:docname="holder-contacts-d2mm.svg">
  <defs
     id="defs4" />
  <sodipodi:namedview
     id="base"
     pagecolor="#ffffff"
     bordercolor="#666666"
     borderopacity="1.0"
     inkscape:pageopacity="0.0"
     inkscape:pageshadow="2"
     inkscape:zoom="0.56"
     inkscape:cx="376.67504"
     inkscape:cy="373.69949"
     inkscape:document-units="mm"
     inkscape:current-layer="layer2"
     showgrid="true"
     inkscape:window-width="1301"
     inkscape:window-height="744"
     inkscape:window-x="65"
     inkscape:window-y="24"
     inkscape:window-maximized="1"
     inkscape:snap-bbox="true"
     inkscape:bbox-nodes="true"
     inkscape:object-nodes="false"
     showguides="true"
     inkscape:guide-bbox="true"
     inkscape:snap-smooth-nodes="false"
     inkscape:snap-midpoints="false"
     inkscape:snap-global="true"
     inkscape:bbox-paths="false">
    <inkscape:grid
       type="xygrid"
       id="grid3336"
       units="mm"
       spacingx="3.5433072"
       spacingy="3.5433069"
       dotted="true"
       empspacing="10" />
    <inkscape:grid
       type="xygrid"
       id="grid5100"
       units="mm"
       spacingx="3.5433071"
       spacingy="3.5433072" />
  </sodipodi:namedview>
  <metadata
     id="metadata7">
    <rdf:RDF>
      <cc:Work
         rdf:about="">
        <dc:format>image/svg+xml</dc:format>
        <dc:type
           rdf:resource="http://purl.org/dc/dcmitype/StillImage" />
        <dc:title />
      </cc:Work>
    </rdf:RDF>
  </metadata>
  <g
     inkscape:label="contacts"
     inkscape:groupmode="layer"
     id="layer1"
     transform="translate(0,-414.56693)" />
  <g
     inkscape:groupmode="layer"
     id="layer2"
     inkscape:label="holes"
     style="display:inline">
    <path
       inkscape:connector-curvature="0"
       style="display:inline;fill:#ff7f2a;fill-opacity:1;stroke:#000000;stroke-width:7.08661413;stroke-linejoin:round;stroke-miterlimit:4;stroke-dasharray:none;stroke-opacity:1"
       d="m 124.01574,628.94017 12.40258,0.003 c 1.95657,-3.8e-4 3.54259,-1.5864 3.54297,-3.54297 l 0,-14.1875 c -3.8e-4,-1.95657 -1.5864,-3.54259 -3.54297,-3.54297 l -104.513678,-0.0117 0,-12.38281 37.17578,0 c 1.95657,-3.8e-4 3.54259,-1.5864 3.54297,-3.54297 l 0,-24.80312 m 0,-10.62992 0,-7.09821 c -3.8e-4,-1.95657 -1.5864,-3.54259 -3.54297,-3.54297 l -3.5918,0 0.0488,-10.60156 c 0.009,-1.96343 -1.57952,-3.56019 -3.54297,-3.56055 l -7.08789,0 c -1.94368,2.9e-4 -3.52438,1.56618 -3.54297,3.50977 l -0.0976,10.65234 -1.67383,0 c -0.007,-1.95199 -1.59097,-3.53088 -3.54297,-3.53125 l -12.375,0 c -1.952,3.7e-4 -3.53613,1.57926 -3.54297,3.53125 l -19.488285,0 c -1.9565699,3.8e-4 -3.5425899,1.5864 -3.5429699,3.54297 l 0,7.09821 m 0,10.62992 0,24.80312 c 3.8e-4,1.95657 1.5864,3.54259 3.5429699,3.54297 l 3.519535,0 0,7.07226 -7.0800849,0.008 c -1.95504,0.003 -3.53868,1.58793 -3.53906,3.54297 l 0,7.09375 c 3.8e-4,1.95733 1.58759,3.54367 3.54492,3.54297 l 12.4277449,-0.01 c 1.0193,3.5e-4 1.74168,0.69331 1.74023,1.76562 -0.001,1.07887 -0.73102,1.77309 -1.74023,1.77344 l -12.4316549,0.008 c -1.9558,10e-4 -3.54063,1.58716 -3.54101,3.54297 l 0,7.09375 -2e-5,5e-5 c 3.8e-4,1.95733 1.58759,3.54367 3.54492,3.54297 l 1.77004,-10e-4 m 8.8582749,-0.005 1.80333,-0.001 c 4.59444,-0.002 8.75855,-2.06011 11.70899,-5.3125 l 82.156958,0.008"
       id="path3522-1-3-7-0"
       sodipodi:nodetypes="cccccccccccccccccccccccccccccccccccccccccccccccc" />
    <path
       inkscape:connector-curvature="0"
       style="display:inline;fill:#ff7f2a;fill-opacity:1;stroke:#000000;stroke-width:7.08661413;stroke-linejoin:round;stroke-miterlimit:4;stroke-dasharray:none;stroke-opacity:1"
       d="m 106.29923,536.80771 -12.402574,-0.003 c -1.95657,3.8e-4 -3.54259,1.58641 -3.54297,3.54298 l 0,14.1875 c 3.8e-4,1.95657 1.5864,3.54259 3.54297,3.54297 l 104.513674,0.0117 0,12.38281 -37.17578,0 c -1.95657,3.8e-4 -3.54259,1.5864 -3.54297,3.54297 l 0,24.80312 m 0,10.62992 0,7.09821 c 3.8e-4,1.95657 1.5864,3.54259 3.54297,3.54297 l 3.5918,0 -0.0488,10.60156 c -0.009,1.96343 1.57952,3.56019 3.54297,3.56055 l 7.08789,0 c 1.94368,-2.9e-4 3.52438,-1.56618 3.54297,-3.50977 l 0.0976,-10.65234 1.67383,0 c 0.007,1.95199 1.59097,3.53088 3.54297,3.53125 l 12.375,0 c 1.952,-3.7e-4 3.53613,-1.57926 3.54297,-3.53125 l 19.48828,0 c 1.95657,-3.8e-4 3.54259,-1.5864 3.54297,-3.54297 l 0,-7.09821 m 0,-10.62992 0,-24.80312 c -3.8e-4,-1.95657 -1.5864,-3.54259 -3.54297,-3.54297 l -3.51953,0 0,-7.07226 7.08008,-0.008 c 1.95504,-0.003 3.53868,-1.58793 3.53906,-3.54297 l 0,-7.09375 c -3.8e-4,-1.95733 -1.58759,-3.54367 -3.54492,-3.54297 l -12.42774,0.01 c -1.0193,-3.5e-4 -1.74168,-0.69331 -1.74023,-1.76562 0.001,-1.07887 0.73102,-1.77309 1.74023,-1.77344 l 12.43165,-0.008 c 1.9558,-10e-4 3.54063,-1.58716 3.54101,-3.54297 l 0,-7.09376 2e-5,-5e-5 c -3.8e-4,-1.95733 -1.58759,-3.54367 -3.54492,-3.54297 l -1.77004,10e-4 m -8.85827,0.005 -1.80333,0.001 c -4.59444,0.002 -8.75855,2.06011 -11.70899,5.3125 l -82.15696,-0.008"
       id="path3522-1-3-7-0-8"
       sodipodi:nodetypes="cccccccccccccccccccccccccccccccccccccccccccccccc" />
    <path
       inkscape:connector-curvature="0"
       style="display:inline;fill:#ff7f2a;fill-opacity:1;stroke:#000000;stroke-width:7.08661413;stroke-linejoin:round;stroke-miterlimit:4;stroke-dasharray:none;stroke-opacity:1"
       d="m 124.01574,504.92441 12.40258,0.003 c 1.95657,-3.8e-4 3.54259,-1.58641 3.54297,-3.54298 l 0,-14.1875 c -3.8e-4,-1.95657 -1.5864,-3.54259 -3.54297,-3.54297 l -104.513678,-0.0117 0,-12.38281 37.17578,0 c 1.95657,-3.8e-4 3.54259,-1.5864 3.54297,-3.54297 l 0,-24.80312 m 0,-10.62992 0,-7.09821 c -3.8e-4,-1.95657 -1.5864,-3.54259 -3.54297,-3.54297 l -3.5918,0 0.0488,-10.60156 c 0.009,-1.96343 -1.57952,-3.56019 -3.54297,-3.56055 l -7.08789,0 c -1.94368,2.9e-4 -3.52438,1.56618 -3.54297,3.50977 l -0.0976,10.65234 -1.67383,0 c -0.007,-1.95199 -1.59097,-3.53088 -3.54297,-3.53125 l -12.375,0 c -1.952,3.7e-4 -3.53613,1.57926 -3.54297,3.53125 l -19.488285,0 c -1.9565696,3.8e-4 -3.5425899,1.5864 -3.5429699,3.54297 l 0,7.09821 m 0,10.62992 0,24.80312 c 3.8e-4,1.95657 1.5864003,3.54259 3.5429699,3.54297 l 3.519535,0 0,7.07226 -7.0800849,0.008 c -1.95504,0.003 -3.53868,1.58793 -3.53906,3.54297 l 0,7.09375 c 3.8e-4,1.95733 1.58759,3.54367 3.54492,3.54297 l 12.4277449,-0.01 c 1.0193,3.5e-4 1.74168,0.69331 1.74023,1.76562 -0.001,1.07887 -0.73102,1.77309 -1.74023,1.77344 l -12.4316549,0.008 c -1.9558,10e-4 -3.54063,1.58716 -3.54101,3.54297 l 0,7.09376 -2e-5,5e-5 c 3.8e-4,1.95733 1.58759,3.54367 3.54492,3.54297 l 1.7700403,-0.001 m 8.8582746,-0.005 1.80333,-10e-4 c 4.59444,-0.002 8.75855,-2.06011 11.70899,-5.3125 l 82.156958,0.008"
       id="path3522-1-3-7-0-2"
       sodipodi:nodetypes="cccccccccccccccccccccccccccccccccccccccccccccccc" />
    <path
       inkscape:connector-curvature="0"
       style="display:inline;fill:#ff7f2a;fill-opacity:1;stroke:#000000;stroke-width:7.08661413;stroke-linejoin:round;stroke-miterlimit:4;stroke-dasharray:none;stroke-opacity:1"
       d="m 106.29923,412.79194 -12.402574,-0.003 c -1.95657,3.8e-4 -3.54259,1.58641 -3.54297,3.54298 l 0,14.1875 c 3.8e-4,1.95657 1.5864,3.54259 3.54297,3.54297 l 104.513674,0.0117 0,12.38281 -37.17578,0 c -1.95657,3.8e-4 -3.54259,1.5864 -3.54297,3.54297 l 0,24.80312 m 0,10.62992 0,7.09821 c 3.8e-4,1.95657 1.5864,3.54259 3.54297,3.54297 l 3.5918,0 -0.0488,10.60157 c -0.009,1.96343 1.57952,3.56019 3.54297,3.56055 l 7.08789,0 c 1.94368,-2.9e-4 3.52438,-1.56618 3.54297,-3.50977 l 0.0976,-10.65235 1.67383,0 c 0.007,1.95199 1.59097,3.53088 3.54297,3.53125 l 12.375,0 c 1.952,-3.7e-4 3.53613,-1.57926 3.54297,-3.53125 l 19.48828,0 c 1.95657,-3.8e-4 3.54259,-1.5864 3.54297,-3.54297 l 0,-7.09821 m 0,-10.62992 0,-24.80312 c -3.8e-4,-1.95657 -1.5864,-3.54259 -3.54297,-3.54297 l -3.51953,0 0,-7.07226 7.08008,-0.008 c 1.95504,-0.003 3.53868,-1.58793 3.53906,-3.54297 l 0,-7.09375 c -3.8e-4,-1.95733 -1.58759,-3.54367 -3.54492,-3.54297 l -12.42774,0.01 c -1.0193,-3.5e-4 -1.74168,-0.69331 -1.74023,-1.76562 0.001,-1.07887 0.73102,-1.77309 1.74023,-1.77344 l 12.43165,-0.008 c 1.9558,-0.001 3.54063,-1.58716 3.54101,-3.54297 l 0,-7.09376 2e-5,-5e-5 c -3.8e-4,-1.95733 -1.58759,-3.54367 -3.54492,-3.54297 l -1.77004,10e-4 m -8.85827,0.005 -1.80333,0.001 c -4.59444,0.002 -8.75855,2.06011 -11.70899,5.3125 l -82.15696,-0.008"
       id="path3522-1-3-7-0-8-5"
       sodipodi:nodetypes="cccccccccccccccccccccccccccccccccccccccccccccccc" />
    <path
       inkscape:connector-curvature="0"
       style="display:inline;fill:#ff7f2a;fill-opacity:1;stroke:#000000;stroke-width:7.08661413;stroke-linejoin:round;stroke-miterlimit:4;stroke-dasharray:none;stroke-opacity:1"
       d="m 124.01574,380.90866 12.40258,0.003 c 1.95657,-3.8e-4 3.54259,-1.5864 3.54297,-3.54297 l 0,-14.1875 c -3.8e-4,-1.95657 -1.5864,-3.54259 -3.54297,-3.54297 l -104.513679,-0.0117 0,-12.38281 37.17578,0 c 1.95657,-3.8e-4 3.54259,-1.5864 3.54297,-3.54297 l 0,-24.80312 m 0,-10.62992 0,-7.09821 c -3.8e-4,-1.95657 -1.5864,-3.54259 -3.54297,-3.54297 l -3.5918,0 0.0488,-10.60156 c 0.009,-1.96343 -1.57952,-3.56019 -3.54297,-3.56055 l -7.08789,0 c -1.94368,2.9e-4 -3.52438,1.56618 -3.54297,3.50977 l -0.0976,10.65234 -1.67383,0 c -0.007,-1.95199 -1.59097,-3.53088 -3.54297,-3.53125 l -12.375,0 c -1.952,3.7e-4 -3.53613,1.57926 -3.54297,3.53125 l -19.488285,0 c -1.9565689,3.8e-4 -3.5425889,1.5864 -3.5429689,3.54297 l 0,7.09821 m 0,10.62992 0,24.80312 c 3.8e-4,1.95657 1.5864,3.54259 3.5429689,3.54297 l 3.519535,0 0,7.07226 -7.0800839,0.008 c -1.95504,0.003 -3.53868,1.58793 -3.53906,3.54297 l 0,7.09375 c 3.8e-4,1.95733 1.58759,3.54367 3.54492,3.54297 l 12.4277439,-0.01 c 1.0193,3.5e-4 1.74168,0.69331 1.74023,1.76562 -0.001,1.07887 -0.73102,1.77309 -1.74023,1.77344 l -12.4316539,0.008 c -1.9558,10e-4 -3.54063,1.58716 -3.54101,3.54297 l 0,7.09375 -2e-5,5e-5 c 3.8e-4,1.95733 1.58759,3.54367 3.54492,3.54297 l 1.77004,-10e-4 m 8.8582739,-0.005 1.80333,-10e-4 c 4.59444,-0.002 8.75855,-2.06011 11.70899,-5.3125 l 82.156959,0.008"
       id="path3522-1-3-7-0-4"
       sodipodi:nodetypes="cccccccccccccccccccccccccccccccccccccccccccccccc" />
    <path
       inkscape:connector-curvature="0"
       style="display:inline;fill:#ff7f2a;fill-opacity:1;stroke:#000000;stroke-width:7.08661413;stroke-linejoin:round;stroke-miterlimit:4;stroke-dasharray:none;stroke-opacity:1"
       d="m 106.29923,288.7762 -12.402575,-0.003 c -1.95657,3.8e-4 -3.54259,1.58641 -3.54297,3.54298 l 0,14.1875 c 3.8e-4,1.95657 1.5864,3.54259 3.54297,3.54297 l 104.513675,0.0117 0,12.38281 -37.17578,0 c -1.95657,3.8e-4 -3.54259,1.5864 -3.54297,3.54297 l 0,24.80312 m 0,10.62992 0,7.09821 c 3.8e-4,1.95657 1.5864,3.54259 3.54297,3.54297 l 3.5918,0 -0.0488,10.60156 c -0.009,1.96343 1.57952,3.56019 3.54297,3.56055 l 7.08789,0 c 1.94368,-2.9e-4 3.52438,-1.56618 3.54297,-3.50977 l 0.0976,-10.65234 1.67383,0 c 0.007,1.95199 1.59097,3.53088 3.54297,3.53125 l 12.375,0 c 1.952,-3.7e-4 3.53613,-1.57926 3.54297,-3.53125 l 19.48828,0 c 1.95657,-3.8e-4 3.54259,-1.5864 3.54297,-3.54297 l 0,-7.09821 m 0,-10.62992 0,-24.80312 c -3.8e-4,-1.95657 -1.5864,-3.54259 -3.54297,-3.54297 l -3.51953,0 0,-7.07226 7.08008,-0.008 c 1.95504,-0.003 3.53868,-1.58793 3.53906,-3.54297 l 0,-7.09375 c -3.8e-4,-1.95733 -1.58759,-3.54367 -3.54492,-3.54297 l -12.42774,0.01 c -1.0193,-3.5e-4 -1.74168,-0.69331 -1.74023,-1.76562 0.001,-1.07887 0.73102,-1.77309 1.74023,-1.77344 l 12.43165,-0.008 c 1.9558,-0.001 3.54063,-1.58716 3.54101,-3.54297 l 0,-7.09376 2e-5,-5e-5 c -3.8e-4,-1.95733 -1.58759,-3.54367 -3.54492,-3.54297 l -1.77004,10e-4 m -8.85827,0.005 -1.80333,0.001 c -4.59444,0.002 -8.75855,2.06011 -11.70899,5.3125 l -82.15696,-0.008"
       id="path3522-1-3-7-0-8-7"
       sodipodi:nodetypes="cccccccccccccccccccccccccccccccccccccccccccccccc" />
    <path
       inkscape:connector-curvature="0"
       style="display:inline;fill:#ff7f2a;fill-opacity:1;stroke:#000000;stroke-width:7.08661413;stroke-linejoin:round;stroke-miterlimit:4;stroke-dasharray:none;stroke-opacity:1"
       d="m 124.01574,256.8929 12.40258,0.003 c 1.95657,-3.8e-4 3.54259,-1.5864 3.54297,-3.54297 l 0,-14.1875 c -3.8e-4,-1.95657 -1.5864,-3.54259 -3.54297,-3.54297 l -104.513679,-0.0117 0,-12.38281 37.17578,0 c 1.95657,-3.8e-4 3.54259,-1.5864 3.54297,-3.54297 l 0,-24.80312 m 0,-10.62992 0,-7.09821 c -3.8e-4,-1.95657 -1.5864,-3.54259 -3.54297,-3.54297 l -3.5918,0 0.0488,-10.60156 c 0.009,-1.96343 -1.57952,-3.56019 -3.54297,-3.56055 l -7.08789,0 c -1.94368,2.9e-4 -3.52438,1.56618 -3.54297,3.50977 l -0.0976,10.65234 -1.67383,0 c -0.007,-1.95199 -1.59097,-3.53088 -3.54297,-3.53125 l -12.375,0 c -1.952,3.7e-4 -3.53613,1.57926 -3.54297,3.53125 l -19.488285,0 c -1.9565689,3.8e-4 -3.5425889,1.5864 -3.5429689,3.54297 l 0,7.09821 m 0,10.62992 0,24.80312 c 3.8e-4,1.95657 1.5864,3.54259 3.5429689,3.54297 l 3.519535,0 0,7.07226 -7.0800839,0.008 c -1.95504,0.003 -3.53868,1.58793 -3.53906,3.54297 l 0,7.09375 c 3.8e-4,1.95733 1.58759,3.54367 3.54492,3.54297 l 12.4277439,-0.01 c 1.0193,3.5e-4 1.74168,0.69331 1.74023,1.76562 -0.001,1.07887 -0.73102,1.77309 -1.74023,1.77344 l -12.4316539,0.008 c -1.9558,0.001 -3.54063,1.58716 -3.54101,3.54297 l 0,7.09375 -2e-5,5e-5 c 3.8e-4,1.95733 1.58759,3.54367 3.54492,3.54297 l 1.77004,-10e-4 m 8.8582739,-0.005 1.80333,-10e-4 c 4.59444,-0.002 8.75855,-2.06011 11.70899,-5.3125 l 82.156959,0.008"
       id="path3522-1-3-7-0-27"
       sodipodi:nodetypes="cccccccccccccccccccccccccccccccccccccccccccccccc" />
    <path
       inkscape:connector-curvature="0"
       style="display:inline;fill:#ff7f2a;fill-opacity:1;stroke:#000000;stroke-width:7.08661413;stroke-linejoin:round;stroke-miterlimit:4;stroke-dasharray:none;stroke-opacity:1"
       d="m 106.29923,164.76044 -12.402575,-0.003 c -1.95657,3.8e-4 -3.54259,1.58641 -3.54297,3.54298 l 0,14.1875 c 3.8e-4,1.95657 1.5864,3.54259 3.54297,3.54297 l 104.513675,0.0117 0,12.38281 -37.17578,0 c -1.95657,3.8e-4 -3.54259,1.5864 -3.54297,3.54297 l 0,24.80312 m 0,10.62992 0,7.09821 c 3.8e-4,1.95657 1.5864,3.54259 3.54297,3.54297 l 3.5918,0 -0.0488,10.60156 c -0.009,1.96343 1.57952,3.56019 3.54297,3.56055 l 7.08789,0 c 1.94368,-2.9e-4 3.52438,-1.56618 3.54297,-3.50977 l 0.0976,-10.65234 1.67383,0 c 0.007,1.95199 1.59097,3.53088 3.54297,3.53125 l 12.375,0 c 1.952,-3.7e-4 3.53613,-1.57926 3.54297,-3.53125 l 19.48828,0 c 1.95657,-3.8e-4 3.54259,-1.5864 3.54297,-3.54297 l 0,-7.09821 m 0,-10.62992 0,-24.80312 c -3.8e-4,-1.95657 -1.5864,-3.54259 -3.54297,-3.54297 l -3.51953,0 0,-7.07226 7.08008,-0.008 c 1.95504,-0.003 3.53868,-1.58793 3.53906,-3.54297 l 0,-7.09375 c -3.8e-4,-1.95733 -1.58759,-3.54367 -3.54492,-3.54297 l -12.42774,0.01 c -1.0193,-3.5e-4 -1.74168,-0.69331 -1.74023,-1.76562 0.001,-1.07887 0.73102,-1.77309 1.74023,-1.77344 l 12.43165,-0.008 c 1.9558,-0.001 3.54063,-1.58716 3.54101,-3.54297 l 0,-7.09376 2e-5,-5e-5 c -3.8e-4,-1.95733 -1.58759,-3.54367 -3.54492,-3.54297 l -1.77004,10e-4 m -8.85827,0.005 -1.80333,10e-4 c -4.59444,0.002 -8.75855,2.06011 -11.70899,5.3125 l -82.15696,-0.008"
       id="path3522-1-3-7-0-8-9"
       sodipodi:nodetypes="cccccccccccccccccccccccccccccccccccccccccccccccc" />
    <path
       inkscape:connector-curvature="0"
       style="display:inline;fill:#ff7f2a;fill-opacity:1;stroke:#000000;stroke-width:7.08661413;stroke-linejoin:round;stroke-miterlimit:4;stroke-dasharray:none;stroke-opacity:1"
       d="m 124.01574,132.87715 12.40258,0.003 c 1.95657,-3.8e-4 3.54259,-1.58641 3.54297,-3.54298 l 0,-14.1875 c -3.8e-4,-1.95657 -1.5864,-3.54259 -3.54297,-3.54297 l -104.513678,-0.0117 0,-12.38281 37.17578,0 c 1.95657,-3.8e-4 3.54259,-1.5864 3.54297,-3.54297 l 0,-24.80312 m 0,-10.62992 0,-7.09821 c -3.8e-4,-1.95657 -1.5864,-3.54259 -3.54297,-3.54297 l -3.5918,0 0.0488,-10.60156 c 0.009,-1.96343 -1.57952,-3.56019 -3.54297,-3.56055 l -7.08789,0 c -1.94368,2.9e-4 -3.52438,1.56618 -3.54297,3.50977 l -0.0976,10.65234 -1.67383,0 c -0.007,-1.95199 -1.59097,-3.53088 -3.54297,-3.53125 l -12.375,0 c -1.952,3.7e-4 -3.53613,1.57926 -3.54297,3.53125 l -19.488285,0 c -1.9565696,3.8e-4 -3.5425899,1.5864 -3.5429699,3.54297 l 0,7.09821 m 0,10.62992 0,24.80312 c 3.8e-4,1.95657 1.5864003,3.54259 3.5429699,3.54297 l 3.519535,0 0,7.07226 -7.0800849,0.008 c -1.95504,0.003 -3.53868,1.58793 -3.53906,3.54297 l 0,7.09375 c 3.8e-4,1.95733 1.58759,3.54367 3.54492,3.54297 l 12.4277449,-0.01 c 1.0193,3.5e-4 1.74168,0.69331 1.74023,1.76562 -0.001,1.07887 -0.73102,1.77309 -1.74023,1.77344 l -12.4316549,0.008 c -1.9558,10e-4 -3.54063,1.58716 -3.54101,3.54297 l 0,7.09376 -2e-5,5e-5 c 3.8e-4,1.95733 1.58759,3.54367 3.54492,3.54297 l 1.7700403,-0.001 m 8.8582746,-0.005 1.80333,-0.001 c 4.59444,-0.002 8.75855,-2.06011 11.70899,-5.3125 l 82.156958,0.008"
       id="path3522-1-3-7-0-80"
       sodipodi:nodetypes="cccccccccccccccccccccccccccccccccccccccccccccccc" />
    <path
       inkscape:connector-curvature="0"
       style="display:inline;fill:#ff7f2a;fill-opacity:1;stroke:#000000;stroke-width:7.08661413;stroke-linejoin:round;stroke-miterlimit:4;stroke-dasharray:none;stroke-opacity:1"
       d="m 106.29923,40.74468 -12.402574,-0.003 c -1.95657,3.8e-4 -3.54259,1.58641 -3.54297,3.54298 l 0,14.1875 c 3.8e-4,1.95657 1.5864,3.54259 3.54297,3.54297 l 104.513674,0.0117 0,12.38281 -37.17578,0 c -1.95657,3.8e-4 -3.54259,1.5864 -3.54297,3.54297 l 0,24.80312 m 0,10.62992 0,7.09821 c 3.8e-4,1.95657 1.5864,3.54259 3.54297,3.54297 l 3.5918,0 -0.0488,10.60157 c -0.009,1.96343 1.57952,3.56019 3.54297,3.56055 l 7.08789,0 c 1.94368,-2.9e-4 3.52438,-1.56618 3.54297,-3.50977 l 0.0976,-10.65235 1.67383,0 c 0.007,1.95199 1.59097,3.53088 3.54297,3.53125 l 12.375,0 c 1.952,-3.7e-4 3.53613,-1.57926 3.54297,-3.53125 l 19.48828,0 c 1.95657,-3.8e-4 3.54259,-1.5864 3.54297,-3.54297 l 0,-7.09821 m 0,-10.62992 0,-24.80312 c -3.8e-4,-1.95657 -1.5864,-3.54259 -3.54297,-3.54297 l -3.51953,0 0,-7.07226 7.08008,-0.008 c 1.95504,-0.003 3.53868,-1.58793 3.53906,-3.54297 l 0,-7.09375 c -3.8e-4,-1.95733 -1.58759,-3.54367 -3.54492,-3.54297 l -12.42774,0.01 c -1.0193,-3.5e-4 -1.74168,-0.69331 -1.74023,-1.76562 0.001,-1.07887 0.73102,-1.77309 1.74023,-1.77344 l 12.43165,-0.008 c 1.9558,-0.001 3.54063,-1.58716 3.54101,-3.54297 l 0,-7.09376 2e-5,-5e-5 c -3.8e-4,-1.95733 -1.58759,-3.54367 -3.54492,-3.54297 l -1.77004,0.001 m -8.85827,0.005 -1.80333,0.001 c -4.59444,0.002 -8.75855,2.06011 -11.70899,5.3125 l -82.15696,-0.008"
       id="path3522-1-3-7-0-8-8"
       sodipodi:nodetypes="cccccccccccccccccccccccccccccccccccccccccccccccc" />
  </g>
</svg>
