  0
SECTION
  2
HEADER
  9
$ACADVER
  1
AC1014
  9
$HANDSEED
  5
FFFF
  9
$MEASUREMENT
 70
     1
  0
ENDSEC
  0
SECTION
  2
TABLES
  0
TABLE
  2
VPORT
  5
8
330
0
100
AcDbSymbolTable
 70
     4
  0
VPORT
  5
2E
330
8
100
AcDbSymbolTableRecord
100
AcDbViewportTableRecord
  2
*ACTIVE
 70
     0
 10
0.0
 20
0.0
 11
1.0
 21
1.0
 12
210.0
 22
148.5
 13
0.0
 23
0.0
 14
10.0
 24
10.0
 15
10.0
 25
10.0
 16
0.0
 26
0.0
 36
1.0
 17
0.0
 27
0.0
 37
0.0
 40
341.0
 41
1.24
 42
50.0
 43
0.0
 44
0.0
 50
0.0
 51
0.0
 71
     0
 72
   100
 73
     1
 74
     3
 75
     0
 76
     0
 77
     0
 78
     0
  0
ENDTAB
  0
TABLE
  2
LTYPE
  5
5
330
0
100
AcDbSymbolTable
 70
     1
  0
LTYPE
  5
14
330
5
100
AcDbSymbolTableRecord
100
AcDbLinetypeTableRecord
  2
BYBLOCK
 70
     0
  3

 72
    65
 73
     0
 40
0.0
  0
LTYPE
  5
15
330
5
100
AcDbSymbolTableRecord
100
AcDbLinetypeTableRecord
  2
BYLAYER
 70
     0
  3

 72
    65
 73
     0
 40
0.0
  0
LTYPE
  5
16
330
5
100
AcDbSymbolTableRecord
100
AcDbLinetypeTableRecord
  2
CONTINUOUS
 70
     0
  3
Solid line
 72
    65
 73
     0
 40
0.0
  0
ENDTAB
  0
TABLE
  2
LAYER
  5
2
100
AcDbSymbolTable
 70
2
  0
LAYER
  5
50
100
AcDbSymbolTableRecord
100
AcDbLayerTableRecord
  2
0
 70
0
  6
CONTINUOUS
  0
LAYER
  5
51
100
AcDbSymbolTableRecord
100
AcDbLayerTableRecord
  2
Layer_1
 70
0
  6
CONTINUOUS
  0
ENDTAB
  0
TABLE
  2
STYLE
  5
3
330
0
100
AcDbSymbolTable
 70
     1
  0
STYLE
  5
11
330
3
100
AcDbSymbolTableRecord
100
AcDbTextStyleTableRecord
  2
STANDARD
 70
     0
 40
0.0
 41
1.0
 50
0.0
 71
     0
 42
2.5
  3
txt
  4

  0
ENDTAB
  0
TABLE
  2
VIEW
  5
6
330
0
100
AcDbSymbolTable
 70
     0
  0
ENDTAB
  0
TABLE
  2
UCS
  5
7
330
0
100
AcDbSymbolTable
 70
     0
  0
ENDTAB
  0
TABLE
  2
APPID
  5
9
330
0
100
AcDbSymbolTable
 70
     2
  0
APPID
  5
12
330
9
100
AcDbSymbolTableRecord
100
AcDbRegAppTableRecord
  2
ACAD
 70
     0
  0
ENDTAB
  0
TABLE
  2
DIMSTYLE
  5
A
330
0
100
AcDbSymbolTable
 70
     1
  0
DIMSTYLE
105
27
330
A
100
AcDbSymbolTableRecord
100
AcDbDimStyleTableRecord
  2
ISO-25
 70
     0
  3

  4

  5

  6

  7

 40
1.0
 41
2.5
 42
0.625
 43
3.75
 44
1.25
 45
0.0
 46
0.0
 47
0.0
 48
0.0
140
2.5
141
2.5
142
0.0
143
0.03937007874016
144
1.0
145
0.0
146
1.0
147
0.625
 71
     0
 72
     0
 73
     0
 74
     0
 75
     0
 76
     0
 77
     1
 78
     8
170
     0
171
     3
172
     1
173
     0
174
     0
175
     0
176
     0
177
     0
178
     0
270
     2
271
     2
272
     2
273
     2
274
     3
340
11
275
     0
280
     0
281
     0
282
     0
283
     0
284
     8
285
     0
286
     0
287
     3
288
     0
  0
ENDTAB
  0
TABLE
  2
BLOCK_RECORD
  5
1
330
0
100
AcDbSymbolTable
 70
     1
  0
BLOCK_RECORD
  5
1F
330
1
100
AcDbSymbolTableRecord
100
AcDbBlockTableRecord
  2
*MODEL_SPACE
  0
BLOCK_RECORD
  5
1B
330
1
100
AcDbSymbolTableRecord
100
AcDbBlockTableRecord
  2
*PAPER_SPACE
  0
ENDTAB
  0
ENDSEC
  0
SECTION
  2
BLOCKS
  0
BLOCK
  5
20
330
1F
100
AcDbEntity
  8
0
100
AcDbBlockBegin
  2
*MODEL_SPACE
 70
     0
 10
0.0
 20
0.0
 30
0.0
  3
*MODEL_SPACE
  1

  0
ENDBLK
  5
21
330
1F
100
AcDbEntity
  8
0
100
AcDbBlockEnd
  0
BLOCK
  5
1C
330
1B
100
AcDbEntity
 67
     1
  8
0
100
AcDbBlockBegin
  2
*PAPER_SPACE
  1

  0
ENDBLK
  5
1D
330
1B
100
AcDbEntity
 67
     1
  8
0
100
AcDbBlockEnd
  0
ENDSEC
  0
SECTION
  2
ENTITIES
  0
SPLINE
  5
100
100
AcDbEntity
  8
Layer_1
 62
7
100
AcDbSpline
 70
8
 71
3
 72
8
 73
4
 74
0
 40
0
 40
0
 40
0
 40
0
 40
1
 40
1
 40
1
 40
1
 10
7.002639
 20
13.881750
 30
0.0
 10
6.722549
 20
13.880890
 30
0.0
 10
6.442764
 20
13.863219
 30
0.0
 10
6.164792
 20
13.828834
 30
0.0
  0
SPLINE
  5
101
100
AcDbEntity
  8
Layer_1
 62
7
100
AcDbSpline
 70
8
 71
3
 72
8
 73
4
 74
0
 40
0
 40
0
 40
0
 40
0
 40
1
 40
1
 40
1
 40
1
 10
6.164792
 20
13.828834
 30
0.0
 10
6.020134
 20
13.812748
 30
0.0
 10
5.876013
 20
13.792155
 30
0.0
 10
5.732639
 20
13.767084
 30
0.0
  0
SPLINE
  5
102
100
AcDbEntity
  8
Layer_1
 62
7
100
AcDbSpline
 70
8
 71
3
 72
8
 73
4
 74
0
 40
0
 40
0
 40
0
 40
0
 40
1
 40
1
 40
1
 40
1
 10
5.732639
 20
13.767084
 30
0.0
 10
5.732639
 20
13.767084
 30
0.0
 10
5.732639
 20
13.758335
 30
0.0
 10
5.732639
 20
13.758335
 30
0.0
  0
SPLINE
  5
103
100
AcDbEntity
  8
Layer_1
 62
7
100
AcDbSpline
 70
8
 71
3
 72
8
 73
4
 74
0
 40
0
 40
0
 40
0
 40
0
 40
1
 40
1
 40
1
 40
1
 10
5.732639
 20
13.758335
 30
0.0
 10
4.152149
 20
13.468031
 30
0.0
 10
2.719661
 20
12.642789
 30
0.0
 10
1.675695
 20
11.421168
 30
0.0
  0
SPLINE
  5
104
100
AcDbEntity
  8
Layer_1
 62
7
100
AcDbSpline
 70
8
 71
3
 72
8
 73
4
 74
0
 40
0
 40
0
 40
0
 40
0
 40
1
 40
1
 40
1
 40
1
 10
1.675695
 20
11.421168
 30
0.0
 10
1.675695
 20
11.421168
 30
0.0
 10
3.025069
 20
10.671529
 30
0.0
 10
3.025069
 20
10.671529
 30
0.0
  0
SPLINE
  5
105
100
AcDbEntity
  8
Layer_1
 62
7
100
AcDbSpline
 70
8
 71
3
 72
8
 73
4
 74
0
 40
0
 40
0
 40
0
 40
0
 40
1
 40
1
 40
1
 40
1
 10
3.025069
 20
10.671529
 30
0.0
 10
3.751579
 20
11.435149
 30
0.0
 10
4.682207
 20
11.973933
 30
0.0
 10
5.706181
 20
12.223751
 30
0.0
  0
LINE
  5
106
100
AcDbEntity
  8
Layer_1
 62
7
100
AcDbLine
 10
5.706181
 20
12.223751
 30
0.0
 11
5.635625
 21
7.672918
 31
0.0
  0
SPLINE
  5
107
100
AcDbEntity
  8
Layer_1
 62
7
100
AcDbSpline
 70
8
 71
3
 72
8
 73
4
 74
0
 40
0
 40
0
 40
0
 40
0
 40
1
 40
1
 40
1
 40
1
 10
5.635625
 20
7.672918
 30
0.0
 10
5.635625
 20
7.672918
 30
0.0
 10
1.728611
 20
5.335751
 30
0.0
 10
1.728611
 20
5.335751
 30
0.0
  0
SPLINE
  5
108
100
AcDbEntity
  8
Layer_1
 62
7
100
AcDbSpline
 70
8
 71
3
 72
8
 73
4
 74
0
 40
0
 40
0
 40
0
 40
0
 40
1
 40
1
 40
1
 40
1
 10
1.728611
 20
5.335751
 30
0.0
 10
1.578385
 20
5.839541
 30
0.0
 10
1.501164
 20
6.362266
 30
0.0
 10
1.499306
 20
6.887973
 30
0.0
  0
SPLINE
  5
109
100
AcDbEntity
  8
Layer_1
 62
7
100
AcDbSpline
 70
8
 71
3
 72
8
 73
4
 74
0
 40
0
 40
0
 40
0
 40
0
 40
1
 40
1
 40
1
 40
1
 10
1.499306
 20
6.887973
 30
0.0
 10
1.501164
 20
7.413681
 30
0.0
 10
1.578385
 20
7.936406
 30
0.0
 10
1.728611
 20
8.440196
 30
0.0
  0
SPLINE
  5
10a
100
AcDbEntity
  8
Layer_1
 62
7
100
AcDbSpline
 70
8
 71
3
 72
8
 73
4
 74
0
 40
0
 40
0
 40
0
 40
0
 40
1
 40
1
 40
1
 40
1
 10
1.728611
 20
8.440196
 30
0.0
 10
1.728611
 20
8.440196
 30
0.0
 10
0.414514
 20
9.233946
 30
0.0
 10
0.414514
 20
9.233946
 30
0.0
  0
SPLINE
  5
10b
100
AcDbEntity
  8
Layer_1
 62
7
100
AcDbSpline
 70
8
 71
3
 72
8
 73
4
 74
0
 40
0
 40
0
 40
0
 40
0
 40
1
 40
1
 40
1
 40
1
 10
0.414514
 20
9.233946
 30
0.0
 10
0.143313
 20
8.481384
 30
0.0
 10
0.003111
 20
7.687904
 30
0.0
 10
-0.000000
 20
6.887973
 30
0.0
  0
SPLINE
  5
10c
100
AcDbEntity
  8
Layer_1
 62
7
100
AcDbSpline
 70
8
 71
3
 72
8
 73
4
 74
0
 40
0
 40
0
 40
0
 40
0
 40
1
 40
1
 40
1
 40
1
 10
-0.000000
 20
6.887973
 30
0.0
 10
0.004118
 20
6.091011
 30
0.0
 10
0.144305
 20
5.300604
 30
0.0
 10
0.414514
 20
4.550835
 30
0.0
  0
SPLINE
  5
10d
100
AcDbEntity
  8
Layer_1
 62
7
100
AcDbSpline
 70
8
 71
3
 72
8
 73
4
 74
0
 40
0
 40
0
 40
0
 40
0
 40
1
 40
1
 40
1
 40
1
 10
0.414514
 20
4.550835
 30
0.0
 10
0.414514
 20
4.550835
 30
0.0
 10
0.405694
 20
4.542086
 30
0.0
 10
0.405694
 20
4.542086
 30
0.0
  0
SPLINE
  5
10e
100
AcDbEntity
  8
Layer_1
 62
7
100
AcDbSpline
 70
8
 71
3
 72
8
 73
4
 74
0
 40
0
 40
0
 40
0
 40
0
 40
1
 40
1
 40
1
 40
1
 10
0.405694
 20
4.542086
 30
0.0
 10
0.414439
 20
4.524410
 30
0.0
 10
0.423259
 20
4.506771
 30
0.0
 10
0.432153
 20
4.489169
 30
0.0
  0
SPLINE
  5
10f
100
AcDbEntity
  8
Layer_1
 62
7
100
AcDbSpline
 70
8
 71
3
 72
8
 73
4
 74
0
 40
0
 40
0
 40
0
 40
0
 40
1
 40
1
 40
1
 40
1
 10
0.432153
 20
4.489169
 30
0.0
 10
0.500597
 20
4.300758
 30
0.0
 10
0.577103
 20
4.115374
 30
0.0
 10
0.661458
 20
3.933530
 30
0.0
  0
SPLINE
  5
110
100
AcDbEntity
  8
Layer_1
 62
7
100
AcDbSpline
 70
8
 71
3
 72
8
 73
4
 74
0
 40
0
 40
0
 40
0
 40
0
 40
1
 40
1
 40
1
 40
1
 10
0.661458
 20
3.933530
 30
0.0
 10
0.673053
 20
3.907004
 30
0.0
 10
0.684813
 20
3.880550
 30
0.0
 10
0.696736
 20
3.854169
 30
0.0
  0
SPLINE
  5
111
100
AcDbEntity
  8
Layer_1
 62
7
100
AcDbSpline
 70
8
 71
3
 72
8
 73
4
 74
0
 40
0
 40
0
 40
0
 40
0
 40
1
 40
1
 40
1
 40
1
 10
0.696736
 20
3.854169
 30
0.0
 10
0.785634
 20
3.667695
 30
0.0
 10
0.882743
 20
3.485248
 30
0.0
 10
0.987778
 20
3.307364
 30
0.0
  0
SPLINE
  5
112
100
AcDbEntity
  8
Layer_1
 62
7
100
AcDbSpline
 70
8
 71
3
 72
8
 73
4
 74
0
 40
0
 40
0
 40
0
 40
0
 40
1
 40
1
 40
1
 40
1
 10
0.987778
 20
3.307364
 30
0.0
 10
1.002365
 20
3.286701
 30
0.0
 10
1.017064
 20
3.266117
 30
0.0
 10
1.031875
 20
3.245613
 30
0.0
  0
SPLINE
  5
113
100
AcDbEntity
  8
Layer_1
 62
7
100
AcDbSpline
 70
8
 71
3
 72
8
 73
4
 74
0
 40
0
 40
0
 40
0
 40
0
 40
1
 40
1
 40
1
 40
1
 10
1.031875
 20
3.245613
 30
0.0
 10
1.138961
 20
3.070136
 30
0.0
 10
1.253725
 20
2.899462
 30
0.0
 10
1.375833
 20
2.734086
 30
0.0
  0
SPLINE
  5
114
100
AcDbEntity
  8
Layer_1
 62
7
100
AcDbSpline
 70
8
 71
3
 72
8
 73
4
 74
0
 40
0
 40
0
 40
0
 40
0
 40
1
 40
1
 40
1
 40
1
 10
1.375833
 20
2.734086
 30
0.0
 10
1.401958
 20
2.698559
 30
0.0
 10
1.428417
 20
2.663279
 30
0.0
 10
1.455208
 20
2.628252
 30
0.0
  0
SPLINE
  5
115
100
AcDbEntity
  8
Layer_1
 62
7
100
AcDbSpline
 70
8
 71
3
 72
8
 73
4
 74
0
 40
0
 40
0
 40
0
 40
0
 40
1
 40
1
 40
1
 40
1
 10
1.455208
 20
2.628252
 30
0.0
 10
2.507015
 20
1.253445
 30
0.0
 10
4.030914
 20
0.317112
 30
0.0
 10
5.732639
 20
0.000058
 30
0.0
  0
SPLINE
  5
116
100
AcDbEntity
  8
Layer_1
 62
7
100
AcDbSpline
 70
8
 71
3
 72
8
 73
4
 74
0
 40
0
 40
0
 40
0
 40
0
 40
1
 40
1
 40
1
 40
1
 10
5.732639
 20
0.000058
 30
0.0
 10
5.732639
 20
0.000058
 30
0.0
 10
5.706181
 20
1.543446
 30
0.0
 10
5.706181
 20
1.543446
 30
0.0
  0
SPLINE
  5
117
100
AcDbEntity
  8
Layer_1
 62
7
100
AcDbSpline
 70
8
 71
3
 72
8
 73
4
 74
0
 40
0
 40
0
 40
0
 40
0
 40
1
 40
1
 40
1
 40
1
 10
5.706181
 20
1.543446
 30
0.0
 10
4.681192
 20
1.795733
 30
0.0
 10
3.750454
 20
2.337647
 30
0.0
 10
3.025069
 20
3.104502
 30
0.0
  0
LINE
  5
118
100
AcDbEntity
  8
Layer_1
 62
7
100
AcDbLine
 10
3.025069
 20
3.104502
 30
0.0
 11
6.993819
 21
5.309363
 31
0.0
  0
SPLINE
  5
119
100
AcDbEntity
  8
Layer_1
 62
7
100
AcDbSpline
 70
8
 71
3
 72
8
 73
4
 74
0
 40
0
 40
0
 40
0
 40
0
 40
1
 40
1
 40
1
 40
1
 10
6.993819
 20
5.309363
 30
0.0
 10
6.993819
 20
5.309363
 30
0.0
 10
10.971389
 20
3.095669
 30
0.0
 10
10.971389
 20
3.095669
 30
0.0
  0
SPLINE
  5
11a
100
AcDbEntity
  8
Layer_1
 62
7
100
AcDbSpline
 70
8
 71
3
 72
8
 73
4
 74
0
 40
0
 40
0
 40
0
 40
0
 40
1
 40
1
 40
1
 40
1
 10
10.971389
 20
3.095669
 30
0.0
 10
10.244879
 20
2.332049
 30
0.0
 10
9.314252
 20
1.793264
 30
0.0
 10
8.290278
 20
1.543446
 30
0.0
  0
SPLINE
  5
11b
100
AcDbEntity
  8
Layer_1
 62
7
100
AcDbSpline
 70
8
 71
3
 72
8
 73
4
 74
0
 40
0
 40
0
 40
0
 40
0
 40
1
 40
1
 40
1
 40
1
 10
8.290278
 20
1.543446
 30
0.0
 10
8.290278
 20
1.543446
 30
0.0
 10
8.263834
 20
0.008863
 30
0.0
 10
8.263834
 20
0.008863
 30
0.0
  0
SPLINE
  5
11c
100
AcDbEntity
  8
Layer_1
 62
7
100
AcDbSpline
 70
8
 71
3
 72
8
 73
4
 74
0
 40
0
 40
0
 40
0
 40
0
 40
1
 40
1
 40
1
 40
1
 10
8.263834
 20
0.008863
 30
0.0
 10
9.844324
 20
0.299166
 30
0.0
 10
11.276811
 20
1.124409
 30
0.0
 10
12.320778
 20
2.346030
 30
0.0
  0
SPLINE
  5
11d
100
AcDbEntity
  8
Layer_1
 62
7
100
AcDbSpline
 70
8
 71
3
 72
8
 73
4
 74
0
 40
0
 40
0
 40
0
 40
0
 40
1
 40
1
 40
1
 40
1
 10
12.320778
 20
2.346030
 30
0.0
 10
12.335564
 20
2.363596
 30
0.0
 10
12.350263
 20
2.381236
 30
0.0
 10
12.364875
 20
2.398947
 30
0.0
  0
SPLINE
  5
11e
100
AcDbEntity
  8
Layer_1
 62
7
100
AcDbSpline
 70
8
 71
3
 72
8
 73
4
 74
0
 40
0
 40
0
 40
0
 40
0
 40
1
 40
1
 40
1
 40
1
 10
12.364875
 20
2.398947
 30
0.0
 10
12.443992
 20
2.496821
 30
0.0
 10
12.520455
 20
2.596811
 30
0.0
 10
12.594181
 20
2.698808
 30
0.0
  0
SPLINE
  5
11f
100
AcDbEntity
  8
Layer_1
 62
7
100
AcDbSpline
 70
8
 71
3
 72
8
 73
4
 74
0
 40
0
 40
0
 40
0
 40
0
 40
1
 40
1
 40
1
 40
1
 10
12.594181
 20
2.698808
 30
0.0
 10
12.654651
 20
2.776925
 30
0.0
 10
12.713460
 20
2.856313
 30
0.0
 10
12.770570
 20
2.936919
 30
0.0
  0
SPLINE
  5
120
100
AcDbEntity
  8
Layer_1
 62
7
100
AcDbSpline
 70
8
 71
3
 72
8
 73
4
 74
0
 40
0
 40
0
 40
0
 40
0
 40
1
 40
1
 40
1
 40
1
 10
12.770570
 20
2.936919
 30
0.0
 10
12.877278
 20
3.097351
 30
0.0
 10
12.977317
 20
3.262121
 30
0.0
 10
13.070431
 20
3.430808
 30
0.0
  0
SPLINE
  5
121
100
AcDbEntity
  8
Layer_1
 62
7
100
AcDbSpline
 70
8
 71
3
 72
8
 73
4
 74
0
 40
0
 40
0
 40
0
 40
0
 40
1
 40
1
 40
1
 40
1
 10
13.070431
 20
3.430808
 30
0.0
 10
13.088250
 20
3.457150
 30
0.0
 10
13.105889
 20
3.483614
 30
0.0
 10
13.123347
 20
3.510197
 30
0.0
  0
SPLINE
  5
122
100
AcDbEntity
  8
Layer_1
 62
7
100
AcDbSpline
 70
8
 71
3
 72
8
 73
4
 74
0
 40
0
 40
0
 40
0
 40
0
 40
1
 40
1
 40
1
 40
1
 10
13.123347
 20
3.510197
 30
0.0
 10
13.294776
 20
3.821902
 30
0.0
 10
13.442193
 20
4.146221
 30
0.0
 10
13.564320
 20
4.480336
 30
0.0
  0
SPLINE
  5
123
100
AcDbEntity
  8
Layer_1
 62
7
100
AcDbSpline
 70
8
 71
3
 72
8
 73
4
 74
0
 40
0
 40
0
 40
0
 40
0
 40
1
 40
1
 40
1
 40
1
 10
13.564320
 20
4.480336
 30
0.0
 10
13.570294
 20
4.500882
 30
0.0
 10
13.576173
 20
4.521457
 30
0.0
 10
13.581959
 20
4.542058
 30
0.0
  0
SPLINE
  5
124
100
AcDbEntity
  8
Layer_1
 62
7
100
AcDbSpline
 70
8
 71
3
 72
8
 73
4
 74
0
 40
0
 40
0
 40
0
 40
0
 40
1
 40
1
 40
1
 40
1
 10
13.581959
 20
4.542058
 30
0.0
 10
13.853160
 20
5.294619
 30
0.0
 10
13.993361
 20
6.088099
 30
0.0
 10
13.996472
 20
6.888030
 30
0.0
  0
SPLINE
  5
125
100
AcDbEntity
  8
Layer_1
 62
7
100
AcDbSpline
 70
8
 71
3
 72
8
 73
4
 74
0
 40
0
 40
0
 40
0
 40
0
 40
1
 40
1
 40
1
 40
1
 10
13.996472
 20
6.888030
 30
0.0
 10
13.995188
 20
7.684492
 30
0.0
 10
13.857987
 20
8.474894
 30
0.0
 10
13.590778
 20
9.225197
 30
0.0
  0
SPLINE
  5
126
100
AcDbEntity
  8
Layer_1
 62
7
100
AcDbSpline
 70
8
 71
3
 72
8
 73
4
 74
0
 40
0
 40
0
 40
0
 40
0
 40
1
 40
1
 40
1
 40
1
 10
13.590778
 20
9.225197
 30
0.0
 10
13.590778
 20
9.225197
 30
0.0
 10
12.267861
 20
8.431447
 30
0.0
 10
12.267861
 20
8.431447
 30
0.0
  0
SPLINE
  5
127
100
AcDbEntity
  8
Layer_1
 62
7
100
AcDbSpline
 70
8
 71
3
 72
8
 73
4
 74
0
 40
0
 40
0
 40
0
 40
0
 40
1
 40
1
 40
1
 40
1
 10
12.267861
 20
8.431447
 30
0.0
 10
12.417257
 20
7.930486
 30
0.0
 10
12.494469
 20
7.410785
 30
0.0
 10
12.497167
 20
6.888030
 30
0.0
  0
SPLINE
  5
128
100
AcDbEntity
  8
Layer_1
 62
7
100
AcDbSpline
 70
8
 71
3
 72
8
 73
4
 74
0
 40
0
 40
0
 40
0
 40
0
 40
1
 40
1
 40
1
 40
1
 10
12.497167
 20
6.888030
 30
0.0
 10
12.496152
 20
6.359371
 30
0.0
 10
12.418922
 20
5.833620
 30
0.0
 10
12.267861
 20
5.327002
 30
0.0
  0
LINE
  5
129
100
AcDbEntity
  8
Layer_1
 62
7
100
AcDbLine
 10
12.267861
 20
5.327002
 30
0.0
 11
8.369653
 21
7.672974
 31
0.0
  0
SPLINE
  5
12a
100
AcDbEntity
  8
Layer_1
 62
7
100
AcDbSpline
 70
8
 71
3
 72
8
 73
4
 74
0
 40
0
 40
0
 40
0
 40
0
 40
1
 40
1
 40
1
 40
1
 10
8.369653
 20
7.672974
 30
0.0
 10
8.369653
 20
7.672974
 30
0.0
 10
8.290278
 20
12.223808
 30
0.0
 10
8.290278
 20
12.223808
 30
0.0
  0
SPLINE
  5
12b
100
AcDbEntity
  8
Layer_1
 62
7
100
AcDbSpline
 70
8
 71
3
 72
8
 73
4
 74
0
 40
0
 40
0
 40
0
 40
0
 40
1
 40
1
 40
1
 40
1
 10
8.290278
 20
12.223808
 30
0.0
 10
9.317418
 20
11.975552
 30
0.0
 10
10.251297
 20
11.436658
 30
0.0
 10
10.980208
 20
10.671586
 30
0.0
  0
SPLINE
  5
12c
100
AcDbEntity
  8
Layer_1
 62
7
100
AcDbSpline
 70
8
 71
3
 72
8
 73
4
 74
0
 40
0
 40
0
 40
0
 40
0
 40
1
 40
1
 40
1
 40
1
 10
10.980208
 20
10.671586
 30
0.0
 10
10.980208
 20
10.671586
 30
0.0
 10
12.329583
 20
11.421224
 30
0.0
 10
12.329583
 20
11.421224
 30
0.0
  0
SPLINE
  5
12d
100
AcDbEntity
  8
Layer_1
 62
7
100
AcDbSpline
 70
8
 71
3
 72
8
 73
4
 74
0
 40
0
 40
0
 40
0
 40
0
 40
1
 40
1
 40
1
 40
1
 10
12.329583
 20
11.421224
 30
0.0
 10
11.284729
 20
12.647853
 30
0.0
 10
9.848688
 20
13.476458
 30
0.0
 10
8.263819
 20
13.767196
 30
0.0
  0
SPLINE
  5
12e
100
AcDbEntity
  8
Layer_1
 62
7
100
AcDbSpline
 70
8
 71
3
 72
8
 73
4
 74
0
 40
0
 40
0
 40
0
 40
0
 40
1
 40
1
 40
1
 40
1
 10
8.263819
 20
13.767196
 30
0.0
 10
8.082548
 20
13.797887
 30
0.0
 10
7.900138
 20
13.821423
 30
0.0
 10
7.717014
 20
13.837752
 30
0.0
  0
SPLINE
  5
12f
100
AcDbEntity
  8
Layer_1
 62
7
100
AcDbSpline
 70
8
 71
3
 72
8
 73
4
 74
0
 40
0
 40
0
 40
0
 40
0
 40
1
 40
1
 40
1
 40
1
 10
7.717014
 20
13.837752
 30
0.0
 10
7.655399
 20
13.847420
 30
0.0
 10
7.593657
 20
13.856263
 30
0.0
 10
7.531806
 20
13.864281
 30
0.0
  0
SPLINE
  5
130
100
AcDbEntity
  8
Layer_1
 62
7
100
AcDbSpline
 70
8
 71
3
 72
8
 73
4
 74
0
 40
0
 40
0
 40
0
 40
0
 40
1
 40
1
 40
1
 40
1
 10
7.531806
 20
13.864281
 30
0.0
 10
7.355700
 20
13.876785
 30
0.0
 10
7.179185
 20
13.882621
 30
0.0
 10
7.002639
 20
13.881779
 30
0.0
  0
LINE
  5
131
100
AcDbEntity
  8
Layer_1
 62
7
100
AcDbLine
 10
7.002639
 20
13.881779
 30
0.0
 11
7.002639
 21
13.881750
 31
0.0
  0
SPLINE
  5
132
100
AcDbEntity
  8
Layer_1
 62
7
100
AcDbSpline
 70
8
 71
3
 72
8
 73
4
 74
0
 40
0
 40
0
 40
0
 40
0
 40
1
 40
1
 40
1
 40
1
 10
7.002639
 20
7.946250
 30
0.0
 10
7.554924
 20
7.946250
 30
0.0
 10
7.999236
 20
7.493114
 30
0.0
 10
7.999236
 20
6.940834
 30
0.0
  0
SPLINE
  5
133
100
AcDbEntity
  8
Layer_1
 62
7
100
AcDbSpline
 70
8
 71
3
 72
8
 73
4
 74
0
 40
0
 40
0
 40
0
 40
0
 40
1
 40
1
 40
1
 40
1
 10
7.999236
 20
6.940834
 30
0.0
 10
7.999236
 20
6.388553
 30
0.0
 10
7.554924
 20
5.944250
 30
0.0
 10
7.002639
 20
5.944250
 30
0.0
  0
SPLINE
  5
134
100
AcDbEntity
  8
Layer_1
 62
7
100
AcDbSpline
 70
8
 71
3
 72
8
 73
4
 74
0
 40
0
 40
0
 40
0
 40
0
 40
1
 40
1
 40
1
 40
1
 10
7.002639
 20
5.944250
 30
0.0
 10
6.450354
 20
5.944250
 30
0.0
 10
5.997222
 20
6.388553
 30
0.0
 10
5.997222
 20
6.940834
 30
0.0
  0
SPLINE
  5
135
100
AcDbEntity
  8
Layer_1
 62
7
100
AcDbSpline
 70
8
 71
3
 72
8
 73
4
 74
0
 40
0
 40
0
 40
0
 40
0
 40
1
 40
1
 40
1
 40
1
 10
5.997222
 20
6.940834
 30
0.0
 10
5.997222
 20
7.493114
 30
0.0
 10
6.450354
 20
7.946250
 30
0.0
 10
7.002639
 20
7.946250
 30
0.0
  0
LINE
  5
136
100
AcDbEntity
  8
Layer_1
 62
7
100
AcDbLine
 10
7.002639
 20
7.946250
 30
0.0
 11
7.002639
 21
7.946250
 31
0.0
  0
ENDSEC
  0
SECTION
  2
OBJECTS
  0
DICTIONARY
  5
C
330
0
100
AcDbDictionary
  3
ACAD_GROUP
350
D
  3
ACAD_MLINESTYLE
350
17
  0
DICTIONARY
  5
D
330
C
100
AcDbDictionary
  0
DICTIONARY
  5
1A
330
C
100
AcDbDictionary
  0
DICTIONARY
  5
17
330
C
100
AcDbDictionary
  3
STANDARD
350
18
  0
DICTIONARY
  5
19
330
C
100
AcDbDictionary
  0
ENDSEC
  0
EOF
