<?xml version="1.0" encoding="UTF-8" standalone="no"?>
<!-- Created with Inkscape (http://www.inkscape.org/) -->

<svg
   xmlns:dc="http://purl.org/dc/elements/1.1/"
   xmlns:cc="http://creativecommons.org/ns#"
   xmlns:rdf="http://www.w3.org/1999/02/22-rdf-syntax-ns#"
   xmlns:svg="http://www.w3.org/2000/svg"
   xmlns="http://www.w3.org/2000/svg"
   xmlns:sodipodi="http://sodipodi.sourceforge.net/DTD/sodipodi-0.dtd"
   xmlns:inkscape="http://www.inkscape.org/namespaces/inkscape"
   width="1052.3622"
   height="744.09448"
   id="svg2"
   version="1.1"
   inkscape:version="0.48.4 r9939"
   sodipodi:docname="breadboard_mount.svg">
  <defs
     id="defs4" />
  <sodipodi:namedview
     id="base"
     pagecolor="#ffffff"
     bordercolor="#666666"
     borderopacity="1.0"
     inkscape:pageopacity="0.0"
     inkscape:pageshadow="2"
     inkscape:zoom="2.24"
     inkscape:cx="150.1548"
     inkscape:cy="74.087395"
     inkscape:document-units="mm"
     inkscape:current-layer="layer1"
     showgrid="true"
     inkscape:window-width="1366"
     inkscape:window-height="705"
     inkscape:window-x="-8"
     inkscape:window-y="-8"
     inkscape:window-maximized="1"
     units="mm"
     inkscape:snap-bbox="true"
     inkscape:bbox-paths="true"
     inkscape:bbox-nodes="true"
     showguides="true"
     inkscape:guide-bbox="true"
     inkscape:snap-bbox-midpoints="true"
     inkscape:snap-bbox-edge-midpoints="true">
    <inkscape:grid
       type="xygrid"
       id="grid3231"
       empspacing="5"
       visible="true"
       enabled="true"
       snapvisiblegridlinesonly="true"
       units="mm"
       spacingx="1mm"
       spacingy="1mm"
       color="#e200ff"
       opacity="0.1254902"
       empcolor="#920092"
       empopacity="0.25098039" />
    <sodipodi:guide
       orientation="0,1"
       position="209.05512,0"
       id="guide3203" />
    <sodipodi:guide
       orientation="1,0"
       position="0,53.149606"
       id="guide3775" />
    <sodipodi:guide
       orientation="1,0"
       position="24.80315,92.125984"
       id="guide3787" />
    <sodipodi:guide
       orientation="0,1"
       position="-14.173228,162.99213"
       id="guide3789" />
    <sodipodi:guide
       orientation="1,0"
       position="145.27559,92.125984"
       id="guide3890" />
    <sodipodi:guide
       orientation="0,1"
       position="152.3622,148.8189"
       id="guide3925" />
    <sodipodi:guide
       orientation="0,1"
       position="162.99213,14.173228"
       id="guide3927" />
    <sodipodi:guide
       orientation="0,1"
       position="38.976378,-14.173228"
       id="guide3929" />
    <sodipodi:guide
       orientation="1,0"
       position="38.976378,-10.629921"
       id="guide3931" />
    <sodipodi:guide
       orientation="1,0"
       position="131.10236,-31.889764"
       id="guide3933" />
    <sodipodi:guide
       orientation="1,0"
       position="53.149606,-24.80315"
       id="guide3935" />
    <sodipodi:guide
       orientation="1,0"
       position="116.92913,-21.259843"
       id="guide3937" />
    <sodipodi:guide
       orientation="0,1"
       position="141.73228,177.16535"
       id="guide3939" />
    <sodipodi:guide
       orientation="1,0"
       position="10.629921,187.79528"
       id="guide3945" />
    <sodipodi:guide
       orientation="1,0"
       position="159.44882,187.79528"
       id="guide3947" />
    <sodipodi:guide
       orientation="1,0"
       position="-14.173228,148.8189"
       id="guide3949" />
    <sodipodi:guide
       orientation="1,0"
       position="184.25197,120.47244"
       id="guide3951" />
    <sodipodi:guide
       orientation="1,0"
       position="155.90551,63.779528"
       id="guide3017" />
    <sodipodi:guide
       orientation="0,1"
       position="184.25197,134.64567"
       id="guide3019" />
    <sodipodi:guide
       orientation="1,0"
       position="14.173228,74.409449"
       id="guide3021" />
    <sodipodi:guide
       orientation="0,1"
       position="60.23622,28.346457"
       id="guide3023" />
  </sodipodi:namedview>
  <metadata
     id="metadata7">
    <rdf:RDF>
      <cc:Work
         rdf:about="">
        <dc:format>image/svg+xml</dc:format>
        <dc:type
           rdf:resource="http://purl.org/dc/dcmitype/StillImage" />
        <dc:title />
      </cc:Work>
    </rdf:RDF>
  </metadata>
  <g
     inkscape:label="Layer 1"
     inkscape:groupmode="layer"
     id="layer1"
     transform="translate(0,-308.26769)">
    <path
       style="fill:#917c6f;fill-opacity:1;stroke:#000000;stroke-width:0;stroke-linecap:butt;stroke-linejoin:miter;stroke-miterlimit:4;stroke-opacity:1;stroke-dasharray:none"
       d="M 10.629923,1038.1889 C 3.5433071,1038.1889 0,1034.6456 2.2362205e-6,1027.559 L 1.5748034e-7,914.1732 C 0,907.08658 3.5433071,903.54327 10.629921,903.54328 l 14.173229,-10e-6 -38.976378,0 0,-14.17323 53.149606,0 0,-14.17322 14.173228,0 0,14.17322 63.779524,10e-6 0,-14.17323 14.17323,0 0,14.17323 53.14961,-10e-6 0,14.17323 -38.97638,0 14.17323,0 c 7.08661,0 10.62992,3.54331 10.62992,10.62993 l 0,113.3858 c 0,7.0866 -3.54331,10.6299 -10.62992,10.6299 l -14.17323,0 38.97638,0 0,14.1733 -53.14961,0 0,14.1732 -14.17323,0 0,-14.1732 -63.779524,0 0,14.1732 -14.173228,0 0,-14.1732 -53.149606,0 0,-14.1733 38.976378,0 z"
       id="path3236"
       inkscape:connector-curvature="0"
       sodipodi:nodetypes="ccccccccccccccccccccccccccccccccccccc" />
    <path
       sodipodi:type="arc"
       style="fill:#803300;fill-opacity:1;stroke:none"
       id="path3025"
       sodipodi:cx="63.779526"
       sodipodi:cy="680.31494"
       sodipodi:rx="7.0866141"
       sodipodi:ry="7.0866141"
       d="m 70.86614,680.31494 a 7.0866141,7.0866141 0 1 1 -14.173228,0 7.0866141,7.0866141 0 1 1 14.173228,0 z"
       transform="translate(-49.606297,237.40156)" />
    <path
       sodipodi:type="arc"
       style="fill:#803300;fill-opacity:1;stroke:none"
       id="path3025-1"
       sodipodi:cx="63.779526"
       sodipodi:cy="680.31494"
       sodipodi:rx="7.0866141"
       sodipodi:ry="7.0866141"
       d="m 70.86614,680.31494 a 7.0866141,7.0866141 0 1 1 -14.173228,0 7.0866141,7.0866141 0 1 1 14.173228,0 z"
       transform="translate(-49.606297,272.83463)" />
    <path
       sodipodi:type="arc"
       style="fill:#803300;fill-opacity:1;stroke:none"
       id="path3025-7"
       sodipodi:cx="63.779526"
       sodipodi:cy="680.31494"
       sodipodi:rx="7.0866141"
       sodipodi:ry="7.0866141"
       d="m 70.86614,680.31494 a 7.0866141,7.0866141 0 1 1 -14.173228,0 7.0866141,7.0866141 0 1 1 14.173228,0 z"
       transform="translate(-49.606298,308.2677)" />
    <path
       sodipodi:type="arc"
       style="fill:#803300;fill-opacity:1;stroke:none"
       id="path3025-4"
       sodipodi:cx="63.779526"
       sodipodi:cy="680.31494"
       sodipodi:rx="7.0866141"
       sodipodi:ry="7.0866141"
       d="m 70.86614,680.31494 a 7.0866141,7.0866141 0 1 1 -14.173228,0 7.0866141,7.0866141 0 1 1 14.173228,0 z"
       transform="translate(-49.606298,343.70077)" />
    <path
       sodipodi:type="arc"
       style="fill:#803300;fill-opacity:1;stroke:none"
       id="path3025-0"
       sodipodi:cx="63.779526"
       sodipodi:cy="680.31494"
       sodipodi:rx="7.0866141"
       sodipodi:ry="7.0866141"
       d="m 70.86614,680.31494 a 7.0866141,7.0866141 0 1 1 -14.173228,0 7.0866141,7.0866141 0 1 1 14.173228,0 z"
       transform="translate(-14.173227,343.70077)" />
    <path
       sodipodi:type="arc"
       style="fill:#803300;fill-opacity:1;stroke:none"
       id="path3025-9"
       sodipodi:cx="63.779526"
       sodipodi:cy="680.31494"
       sodipodi:rx="7.0866141"
       sodipodi:ry="7.0866141"
       d="m 70.86614,680.31494 a 7.0866141,7.0866141 0 1 1 -14.173228,0 7.0866141,7.0866141 0 1 1 14.173228,0 z"
       transform="translate(-14.173227,237.40156)" />
    <path
       sodipodi:type="arc"
       style="fill:#803300;fill-opacity:1;stroke:none"
       id="path3025-48"
       sodipodi:cx="63.779526"
       sodipodi:cy="680.31494"
       sodipodi:rx="7.0866141"
       sodipodi:ry="7.0866141"
       d="m 70.86614,680.31494 a 7.0866141,7.0866141 0 1 1 -14.173228,0 7.0866141,7.0866141 0 1 1 14.173228,0 z"
       transform="translate(21.259844,343.70077)" />
    <path
       sodipodi:type="arc"
       style="fill:#803300;fill-opacity:1;stroke:none"
       id="path3025-8"
       sodipodi:cx="63.779526"
       sodipodi:cy="680.31494"
       sodipodi:rx="7.0866141"
       sodipodi:ry="7.0866141"
       d="m 70.86614,680.31494 a 7.0866141,7.0866141 0 1 1 -14.173228,0 7.0866141,7.0866141 0 1 1 14.173228,0 z"
       transform="translate(56.692915,343.70077)" />
    <path
       sodipodi:type="arc"
       style="fill:#803300;fill-opacity:1;stroke:none"
       id="path3025-2"
       sodipodi:cx="63.779526"
       sodipodi:cy="680.31494"
       sodipodi:rx="7.0866141"
       sodipodi:ry="7.0866141"
       d="m 70.86614,680.31494 a 7.0866141,7.0866141 0 1 1 -14.173228,0 7.0866141,7.0866141 0 1 1 14.173228,0 z"
       transform="translate(92.125984,343.70077)" />
    <path
       sodipodi:type="arc"
       style="fill:#803300;fill-opacity:1;stroke:none"
       id="path3025-45"
       sodipodi:cx="63.779526"
       sodipodi:cy="680.31494"
       sodipodi:rx="7.0866141"
       sodipodi:ry="7.0866141"
       d="m 70.86614,680.31494 a 7.0866141,7.0866141 0 1 1 -14.173228,0 7.0866141,7.0866141 0 1 1 14.173228,0 z"
       transform="translate(92.125986,308.2677)" />
    <path
       sodipodi:type="arc"
       style="fill:#803300;fill-opacity:1;stroke:none"
       id="path3025-5"
       sodipodi:cx="63.779526"
       sodipodi:cy="680.31494"
       sodipodi:rx="7.0866141"
       sodipodi:ry="7.0866141"
       d="m 70.86614,680.31494 a 7.0866141,7.0866141 0 1 1 -14.173228,0 7.0866141,7.0866141 0 1 1 14.173228,0 z"
       transform="translate(92.125984,272.83463)" />
    <path
       sodipodi:type="arc"
       style="fill:#803300;fill-opacity:1;stroke:none"
       id="path3025-17"
       sodipodi:cx="63.779526"
       sodipodi:cy="680.31494"
       sodipodi:rx="7.0866141"
       sodipodi:ry="7.0866141"
       d="m 70.86614,680.31494 a 7.0866141,7.0866141 0 1 1 -14.173228,0 7.0866141,7.0866141 0 1 1 14.173228,0 z"
       transform="translate(92.125986,237.40156)" />
    <path
       sodipodi:type="arc"
       style="fill:#803300;fill-opacity:1;stroke:none"
       id="path3025-11"
       sodipodi:cx="63.779526"
       sodipodi:cy="680.31494"
       sodipodi:rx="7.0866141"
       sodipodi:ry="7.0866141"
       d="m 70.86614,680.31494 a 7.0866141,7.0866141 0 1 1 -14.173228,0 7.0866141,7.0866141 0 1 1 14.173228,0 z"
       transform="translate(56.692915,237.40156)" />
    <path
       sodipodi:type="arc"
       style="fill:#803300;fill-opacity:1;stroke:none"
       id="path3025-52"
       sodipodi:cx="63.779526"
       sodipodi:cy="680.31494"
       sodipodi:rx="7.0866141"
       sodipodi:ry="7.0866141"
       d="m 70.86614,680.31494 a 7.0866141,7.0866141 0 1 1 -14.173228,0 7.0866141,7.0866141 0 1 1 14.173228,0 z"
       transform="translate(21.259844,237.40156)" />
  </g>
</svg>
