<?xml version="1.0" encoding="UTF-8" standalone="no"?>
<!-- Created with Inkscape (http://www.inkscape.org/) -->

<svg
   xmlns:dc="http://purl.org/dc/elements/1.1/"
   xmlns:cc="http://creativecommons.org/ns#"
   xmlns:rdf="http://www.w3.org/1999/02/22-rdf-syntax-ns#"
   xmlns:svg="http://www.w3.org/2000/svg"
   xmlns="http://www.w3.org/2000/svg"
   xmlns:sodipodi="http://sodipodi.sourceforge.net/DTD/sodipodi-0.dtd"
   xmlns:inkscape="http://www.inkscape.org/namespaces/inkscape"
   width="1052.3622"
   height="744.09448"
   id="svg2"
   version="1.1"
   inkscape:version="0.48.4 r9939"
   sodipodi:docname="servo_ds329hv_rib.svg">
  <defs
     id="defs4" />
  <sodipodi:namedview
     id="base"
     pagecolor="#ffffff"
     bordercolor="#666666"
     borderopacity="1.0"
     inkscape:pageopacity="0.0"
     inkscape:pageshadow="2"
     inkscape:zoom="3.1678384"
     inkscape:cx="171.61793"
     inkscape:cy="138.07178"
     inkscape:document-units="mm"
     inkscape:current-layer="layer1"
     showgrid="true"
     inkscape:window-width="1366"
     inkscape:window-height="705"
     inkscape:window-x="-8"
     inkscape:window-y="-8"
     inkscape:window-maximized="1"
     units="mm"
     inkscape:snap-bbox="true"
     inkscape:bbox-paths="true"
     inkscape:bbox-nodes="true"
     showguides="true"
     inkscape:guide-bbox="true"
     inkscape:snap-bbox-midpoints="true"
     inkscape:snap-bbox-edge-midpoints="true">
    <inkscape:grid
       type="xygrid"
       id="grid3231"
       empspacing="5"
       visible="true"
       enabled="true"
       snapvisiblegridlinesonly="true"
       units="mm"
       spacingx="1mm"
       spacingy="1mm"
       color="#e200ff"
       opacity="0.1254902"
       empcolor="#920092"
       empopacity="0.25098039" />
    <sodipodi:guide
       orientation="1,0"
       position="46.062992,56.692913"
       id="guide3769" />
    <sodipodi:guide
       orientation="1,0"
       position="237.40157,120.47244"
       id="guide3771" />
    <sodipodi:guide
       orientation="1,0"
       position="77.952756,49.606299"
       id="guide3773" />
    <sodipodi:guide
       orientation="1,0"
       position="191.33858,77.952756"
       id="guide3775" />
    <sodipodi:guide
       orientation="0,1"
       position="70.866142,109.84252"
       id="guide3781" />
    <sodipodi:guide
       orientation="1,0"
       position="31.889764,162.99213"
       id="guide3789" />
    <sodipodi:guide
       orientation="0,1"
       position="248.0315,124.01575"
       id="guide3791" />
    <sodipodi:guide
       orientation="1,0"
       position="67.322835,120.47244"
       id="guide3799" />
    <sodipodi:guide
       orientation="0,1"
       position="53.149606,81.496063"
       id="guide3203" />
    <sodipodi:guide
       orientation="0,1"
       position="99.212598,95.669291"
       id="guide3207" />
    <sodipodi:guide
       orientation="1,0"
       position="116.92913,77.952756"
       id="guide3211" />
    <sodipodi:guide
       orientation="1,0"
       position="152.3622,70.866142"
       id="guide3007" />
    <sodipodi:guide
       orientation="1,0"
       position="223.22835,67.322835"
       id="guide3009" />
    <sodipodi:guide
       orientation="1,0"
       position="201.9685,102.75591"
       id="guide3029" />
    <sodipodi:guide
       orientation="0,1"
       position="191.33858,166.53543"
       id="guide3031" />
    <sodipodi:guide
       orientation="0,1"
       position="187.79528,152.3622"
       id="guide3051" />
  </sodipodi:namedview>
  <metadata
     id="metadata7">
    <rdf:RDF>
      <cc:Work
         rdf:about="">
        <dc:format>image/svg+xml</dc:format>
        <dc:type
           rdf:resource="http://purl.org/dc/dcmitype/StillImage" />
        <dc:title />
      </cc:Work>
    </rdf:RDF>
  </metadata>
  <g
     inkscape:label="Layer 1"
     inkscape:groupmode="layer"
     id="layer1"
     transform="translate(0,-308.26769)">
    <path
       style="fill:#441650;fill-opacity:1;stroke:#000000;stroke-width:0;stroke-linecap:butt;stroke-linejoin:miter;stroke-miterlimit:4;stroke-opacity:1;stroke-dasharray:none"
       d="m 42.519685,970.86611 c -7.086614,0 -10.629921,-3.54331 -10.629921,-10.62992 l 0,-63.77953 c 0,-7.08661 3.543307,-10.62992 10.629921,-10.62992 l 35.433067,-10e-6 4e-6,56.69292 113.385824,1e-5 0,-56.69292 35.43307,10e-6 c 7.08662,-10e-6 10.62992,3.5433 10.62992,10.62992 l 0,63.77953 c 0,7.0866 -3.5433,10.62991 -10.62992,10.62992 z"
       id="path3236"
       inkscape:connector-curvature="0"
       sodipodi:nodetypes="ccccccccccccc" />
    <path
       sodipodi:type="arc"
       style="fill:#39b7b7;fill-opacity:1;stroke:#502d16;stroke-width:0;stroke-linecap:round;stroke-linejoin:round;stroke-miterlimit:4;stroke-opacity:1;stroke-dasharray:none"
       id="path3255"
       sodipodi:cx="131.10236"
       sodipodi:cy="177.16534"
       sodipodi:rx="3.5433071"
       sodipodi:ry="3.5433071"
       d="m 134.64566,177.16534 c 0,1.95692 -1.58639,3.54331 -3.5433,3.54331 -1.95692,0 -3.54331,-1.58639 -3.54331,-3.54331 0,-1.95691 1.58639,-3.5433 3.54331,-3.5433 1.95691,0 3.5433,1.58639 3.5433,3.5433 z"
       transform="matrix(2,0,0,1.9999994,-60.236208,574.01584)" />
    <path
       sodipodi:type="arc"
       style="fill:#39b7b7;fill-opacity:1;stroke:#502d16;stroke-width:0;stroke-linecap:round;stroke-linejoin:round;stroke-miterlimit:4;stroke-opacity:1;stroke-dasharray:none"
       id="path3255-7"
       sodipodi:cx="131.10236"
       sodipodi:cy="177.16534"
       sodipodi:rx="3.5433071"
       sodipodi:ry="3.5433071"
       d="m 134.64566,177.16534 c 0,1.95692 -1.58639,3.54331 -3.5433,3.54331 -1.95692,0 -3.54331,-1.58639 -3.54331,-3.54331 0,-1.95691 1.58639,-3.5433 3.54331,-3.5433 1.95691,0 3.5433,1.58639 3.5433,3.5433 z"
       transform="matrix(2,0,0,1.9999994,-194.88188,574.01584)" />
    <path
       sodipodi:type="arc"
       style="fill:#39b7b7;fill-opacity:1;stroke:#502d16;stroke-width:0;stroke-linecap:round;stroke-linejoin:round;stroke-miterlimit:4;stroke-opacity:1;stroke-dasharray:none"
       id="path3255-4"
       sodipodi:cx="131.10236"
       sodipodi:cy="177.16534"
       sodipodi:rx="3.5433071"
       sodipodi:ry="3.5433071"
       d="m 134.64566,177.16534 c 0,1.95692 -1.58639,3.54331 -3.5433,3.54331 -1.95692,0 -3.54331,-1.58639 -3.54331,-3.54331 0,-1.95691 1.58639,-3.5433 3.54331,-3.5433 1.95691,0 3.5433,1.58639 3.5433,3.5433 z"
       transform="matrix(2,0,0,1.9999994,-60.236212,545.66939)" />
    <path
       sodipodi:type="arc"
       style="fill:#39b7b7;fill-opacity:1;stroke:#502d16;stroke-width:0;stroke-linecap:round;stroke-linejoin:round;stroke-miterlimit:4;stroke-opacity:1;stroke-dasharray:none"
       id="path3255-0"
       sodipodi:cx="131.10236"
       sodipodi:cy="177.16534"
       sodipodi:rx="3.5433071"
       sodipodi:ry="3.5433071"
       d="m 134.64566,177.16534 c 0,1.95692 -1.58639,3.54331 -3.5433,3.54331 -1.95692,0 -3.54331,-1.58639 -3.54331,-3.54331 0,-1.95691 1.58639,-3.5433 3.54331,-3.5433 1.95691,0 3.5433,1.58639 3.5433,3.5433 z"
       transform="matrix(2,0,0,1.9999994,-194.88188,545.66939)" />
    <path
       sodipodi:type="arc"
       style="fill:#44aa00;fill-opacity:1;stroke:#502d16;stroke-width:0;stroke-linecap:round;stroke-linejoin:round;stroke-miterlimit:4;stroke-opacity:1;stroke-dasharray:none"
       id="path3255-1"
       sodipodi:cx="131.10236"
       sodipodi:cy="177.16534"
       sodipodi:rx="3.5433071"
       sodipodi:ry="3.5433071"
       d="m 134.64566,177.16534 a 3.5433071,3.5433071 0 1 1 -7.08661,0 3.5433071,3.5433071 0 1 1 7.08661,0 z"
       transform="matrix(2,0,0,1.9999994,-38.976362,566.92923)" />
    <path
       sodipodi:type="arc"
       style="fill:#44aa00;fill-opacity:1;stroke:#502d16;stroke-width:0;stroke-linecap:round;stroke-linejoin:round;stroke-miterlimit:4;stroke-opacity:1;stroke-dasharray:none"
       id="path3255-74"
       sodipodi:cx="131.10236"
       sodipodi:cy="177.16534"
       sodipodi:rx="3.5433071"
       sodipodi:ry="3.5433071"
       d="m 134.64566,177.16534 a 3.5433071,3.5433071 0 1 1 -7.08661,0 3.5433071,3.5433071 0 1 1 7.08661,0 z"
       transform="matrix(2,0,0,1.9999994,-38.976365,602.3623)" />
    <path
       sodipodi:type="arc"
       style="fill:#44aa00;fill-opacity:1;stroke:#502d16;stroke-width:0;stroke-linecap:round;stroke-linejoin:round;stroke-miterlimit:4;stroke-opacity:1;stroke-dasharray:none"
       id="path3255-74-0"
       sodipodi:cx="131.10236"
       sodipodi:cy="177.16534"
       sodipodi:rx="3.5433071"
       sodipodi:ry="3.5433071"
       d="m 134.64566,177.16534 a 3.5433071,3.5433071 0 1 1 -7.08661,0 3.5433071,3.5433071 0 1 1 7.08661,0 z"
       transform="matrix(2,0,0,1.9999994,-74.409436,602.3623)" />
    <path
       sodipodi:type="arc"
       style="fill:#44aa00;fill-opacity:1;stroke:#502d16;stroke-width:0;stroke-linecap:round;stroke-linejoin:round;stroke-miterlimit:4;stroke-opacity:1;stroke-dasharray:none"
       id="path3255-74-9"
       sodipodi:cx="131.10236"
       sodipodi:cy="177.16534"
       sodipodi:rx="3.5433071"
       sodipodi:ry="3.5433071"
       d="m 134.64566,177.16534 a 3.5433071,3.5433071 0 1 1 -7.08661,0 3.5433071,3.5433071 0 1 1 7.08661,0 z"
       transform="matrix(2,0,0,1.9999994,-109.84251,602.3623)" />
    <path
       sodipodi:type="arc"
       style="fill:#44aa00;fill-opacity:1;stroke:#502d16;stroke-width:0;stroke-linecap:round;stroke-linejoin:round;stroke-miterlimit:4;stroke-opacity:1;stroke-dasharray:none"
       id="path3255-74-4"
       sodipodi:cx="131.10236"
       sodipodi:cy="177.16534"
       sodipodi:rx="3.5433071"
       sodipodi:ry="3.5433071"
       d="m 134.64566,177.16534 a 3.5433071,3.5433071 0 1 1 -7.08661,0 3.5433071,3.5433071 0 1 1 7.08661,0 z"
       transform="matrix(2,0,0,1.9999994,-145.27558,602.3623)" />
    <path
       sodipodi:type="arc"
       style="fill:#44aa00;fill-opacity:1;stroke:#502d16;stroke-width:0;stroke-linecap:round;stroke-linejoin:round;stroke-miterlimit:4;stroke-opacity:1;stroke-dasharray:none"
       id="path3255-74-8"
       sodipodi:cx="131.10236"
       sodipodi:cy="177.16534"
       sodipodi:rx="3.5433071"
       sodipodi:ry="3.5433071"
       d="m 134.64566,177.16534 a 3.5433071,3.5433071 0 1 1 -7.08661,0 3.5433071,3.5433071 0 1 1 7.08661,0 z"
       transform="matrix(2,0,0,1.9999994,-180.70865,602.3623)" />
    <path
       sodipodi:type="arc"
       style="fill:#44aa00;fill-opacity:1;stroke:#502d16;stroke-width:0;stroke-linecap:round;stroke-linejoin:round;stroke-miterlimit:4;stroke-opacity:1;stroke-dasharray:none"
       id="path3255-74-82"
       sodipodi:cx="131.10236"
       sodipodi:cy="177.16534"
       sodipodi:rx="3.5433071"
       sodipodi:ry="3.5433071"
       d="m 134.64566,177.16534 a 3.5433071,3.5433071 0 1 1 -7.08661,0 3.5433071,3.5433071 0 1 1 7.08661,0 z"
       transform="matrix(2,0,0,1.9999994,-216.14172,602.3623)" />
    <path
       sodipodi:type="arc"
       style="fill:#44aa00;fill-opacity:1;stroke:#502d16;stroke-width:0;stroke-linecap:round;stroke-linejoin:round;stroke-miterlimit:4;stroke-opacity:1;stroke-dasharray:none"
       id="path3255-74-45"
       sodipodi:cx="131.10236"
       sodipodi:cy="177.16534"
       sodipodi:rx="3.5433071"
       sodipodi:ry="3.5433071"
       d="m 134.64566,177.16534 a 3.5433071,3.5433071 0 1 1 -7.08661,0 3.5433071,3.5433071 0 1 1 7.08661,0 z"
       transform="matrix(2,0,0,1.9999994,-216.14172,566.92923)" />
  </g>
</svg>
