<?xml version="1.0" encoding="UTF-8" standalone="no"?>
<!-- Created with Inkscape (http://www.inkscape.org/) -->

<svg
   xmlns:dc="http://purl.org/dc/elements/1.1/"
   xmlns:cc="http://creativecommons.org/ns#"
   xmlns:rdf="http://www.w3.org/1999/02/22-rdf-syntax-ns#"
   xmlns:svg="http://www.w3.org/2000/svg"
   xmlns="http://www.w3.org/2000/svg"
   xmlns:sodipodi="http://sodipodi.sourceforge.net/DTD/sodipodi-0.dtd"
   xmlns:inkscape="http://www.inkscape.org/namespaces/inkscape"
   width="1052.3622"
   height="744.09448"
   id="svg2"
   version="1.1"
   inkscape:version="0.48.4 r9939"
   sodipodi:docname="servo_rib.svg">
  <defs
     id="defs4" />
  <sodipodi:namedview
     id="base"
     pagecolor="#ffffff"
     bordercolor="#666666"
     borderopacity="1.0"
     inkscape:pageopacity="0.0"
     inkscape:pageshadow="2"
     inkscape:zoom="6.3356768"
     inkscape:cx="139.86204"
     inkscape:cy="132.1271"
     inkscape:document-units="mm"
     inkscape:current-layer="layer1"
     showgrid="true"
     inkscape:window-width="1366"
     inkscape:window-height="705"
     inkscape:window-x="-8"
     inkscape:window-y="-8"
     inkscape:window-maximized="1"
     units="mm"
     inkscape:snap-bbox="true"
     inkscape:bbox-paths="true"
     inkscape:bbox-nodes="true"
     showguides="true"
     inkscape:guide-bbox="true"
     inkscape:snap-bbox-midpoints="true"
     inkscape:snap-bbox-edge-midpoints="true">
    <inkscape:grid
       type="xygrid"
       id="grid3231"
       empspacing="5"
       visible="true"
       enabled="true"
       snapvisiblegridlinesonly="true"
       units="mm"
       spacingx="1mm"
       spacingy="1mm"
       color="#e200ff"
       opacity="0.1254902"
       empcolor="#920092"
       empopacity="0.7254902" />
    <sodipodi:guide
       orientation="1,0"
       position="46.062992,56.692913"
       id="guide3769" />
    <sodipodi:guide
       orientation="1,0"
       position="187.79528,113.38583"
       id="guide3771" />
    <sodipodi:guide
       orientation="1,0"
       position="76.181102,116.92913"
       id="guide3773" />
    <sodipodi:guide
       orientation="1,0"
       position="157.67717,116.92913"
       id="guide3775" />
    <sodipodi:guide
       orientation="0,1"
       position="70.866142,109.84252"
       id="guide3781" />
    <sodipodi:guide
       orientation="0,1"
       position="92.125984,152.3622"
       id="guide3783" />
    <sodipodi:guide
       orientation="1,0"
       position="31.889764,162.99213"
       id="guide3789" />
    <sodipodi:guide
       orientation="0,1"
       position="127.55906,131.10236"
       id="guide3791" />
    <sodipodi:guide
       orientation="1,0"
       position="201.9685,162.99213"
       id="guide3795" />
    <sodipodi:guide
       orientation="1,0"
       position="63.779528,116.92913"
       id="guide3799" />
    <sodipodi:guide
       orientation="1,0"
       position="170.07874,120.47244"
       id="guide3801" />
    <sodipodi:guide
       orientation="0,1"
       position="53.149606,81.496063"
       id="guide3203" />
    <sodipodi:guide
       orientation="0,1"
       position="99.212598,95.669291"
       id="guide3207" />
    <sodipodi:guide
       orientation="1,0"
       position="116.92913,77.952756"
       id="guide3211" />
    <inkscape:grid
       type="xygrid"
       id="grid3223"
       empspacing="10"
       visible="true"
       enabled="true"
       snapvisiblegridlinesonly="true"
       units="mm"
       spacingx="0.5mm"
       spacingy="0.5mm"
       color="#c90d0d"
       opacity="0.16470588"
       empcolor="#d00013"
       empopacity="0.34901961"
       dotted="false" />
  </sodipodi:namedview>
  <metadata
     id="metadata7">
    <rdf:RDF>
      <cc:Work
         rdf:about="">
        <dc:format>image/svg+xml</dc:format>
        <dc:type
           rdf:resource="http://purl.org/dc/dcmitype/StillImage" />
        <dc:title></dc:title>
      </cc:Work>
    </rdf:RDF>
  </metadata>
  <g
     inkscape:label="Layer 1"
     inkscape:groupmode="layer"
     id="layer1"
     transform="translate(0,-308.26769)">
    <path
       style="fill:#bcd35f;fill-opacity:1;stroke:#000000;stroke-width:0;stroke-linecap:butt;stroke-linejoin:miter;stroke-miterlimit:4;stroke-opacity:1;stroke-dasharray:none"
       d="m 42.519685,970.86611 c -7.086614,0 -10.629921,-3.54331 -10.629921,-10.62992 l 0,-49.6063 c 0,-7.08662 3.543307,-10.62992 10.629921,-10.62992 l 33.661417,0 0,42.51968 81.496068,0 0,-42.51968 33.66141,0 c 7.08662,0 10.62992,3.5433 10.62992,10.62992 l 0,49.6063 c 0,7.08661 -3.5433,10.62992 -10.62992,10.62992 z"
       id="path3236"
       inkscape:connector-curvature="0"
       sodipodi:nodetypes="ccccccccccccc" />
    <path
       sodipodi:type="arc"
       style="fill:#39b7b7;fill-opacity:1;stroke:#502d16;stroke-width:0;stroke-linecap:round;stroke-linejoin:round;stroke-miterlimit:4;stroke-opacity:1;stroke-dasharray:none"
       id="path3253"
       sodipodi:cx="46.062992"
       sodipodi:cy="177.16534"
       sodipodi:rx="3.5433071"
       sodipodi:ry="3.5433071"
       d="m 49.606299,177.16534 c 0,1.95692 -1.586392,3.54331 -3.543307,3.54331 -1.956914,0 -3.543307,-1.58639 -3.543307,-3.54331 0,-1.95691 1.586393,-3.5433 3.543307,-3.5433 1.956915,0 3.543307,1.58639 3.543307,3.5433 z"
       transform="translate(24.80315,744.09447)" />
    <path
       sodipodi:type="arc"
       style="fill:#39b7b7;fill-opacity:1;stroke:#502d16;stroke-width:0;stroke-linecap:round;stroke-linejoin:round;stroke-miterlimit:4;stroke-opacity:1;stroke-dasharray:none"
       id="path3255"
       sodipodi:cx="131.10236"
       sodipodi:cy="177.16534"
       sodipodi:rx="3.5433071"
       sodipodi:ry="3.5433071"
       d="m 134.64566,177.16534 c 0,1.95692 -1.58639,3.54331 -3.5433,3.54331 -1.95692,0 -3.54331,-1.58639 -3.54331,-3.54331 0,-1.95691 1.58639,-3.5433 3.54331,-3.5433 1.95691,0 3.5433,1.58639 3.5433,3.5433 z"
       transform="translate(31.88977,744.09447)" />
    <path
       sodipodi:type="arc"
       style="fill:#803300;fill-opacity:1;stroke:none"
       id="path3007"
       sodipodi:cx="28.346457"
       sodipodi:cy="612.99213"
       sodipodi:rx="7.0866141"
       sodipodi:ry="7.0866141"
       d="m 35.433071,612.99213 c 0,3.91383 -3.172786,7.08661 -7.086614,7.08661 -3.913829,0 -7.086615,-3.17278 -7.086615,-7.08661 0,-3.91383 3.172786,-7.08662 7.086615,-7.08662 3.913828,0 7.086614,3.17279 7.086614,7.08662 z"
       transform="translate(17.716536,308.26769)" />
    <path
       transform="translate(17.716536,343.70075)"
       sodipodi:type="arc"
       style="fill:#803300;fill-opacity:1;stroke:none"
       id="path3007-1"
       sodipodi:cx="28.346457"
       sodipodi:cy="612.99213"
       sodipodi:rx="7.0866141"
       sodipodi:ry="7.0866141"
       d="m 35.433071,612.99213 c 0,3.91383 -3.172786,7.08661 -7.086614,7.08661 -3.913829,0 -7.086615,-3.17278 -7.086615,-7.08661 0,-3.91383 3.172786,-7.08662 7.086615,-7.08662 3.913828,0 7.086614,3.17279 7.086614,7.08662 z" />
    <path
       transform="translate(53.149606,343.70075)"
       sodipodi:type="arc"
       style="fill:#803300;fill-opacity:1;stroke:none"
       id="path3007-7"
       sodipodi:cx="28.346457"
       sodipodi:cy="612.99213"
       sodipodi:rx="7.0866141"
       sodipodi:ry="7.0866141"
       d="m 35.433071,612.99213 c 0,3.91383 -3.172786,7.08661 -7.086614,7.08661 -3.913829,0 -7.086615,-3.17278 -7.086615,-7.08661 0,-3.91383 3.172786,-7.08662 7.086615,-7.08662 3.913828,0 7.086614,3.17279 7.086614,7.08662 z" />
    <path
       transform="translate(88.582673,343.70075)"
       sodipodi:type="arc"
       style="fill:#803300;fill-opacity:1;stroke:none"
       id="path3007-4"
       sodipodi:cx="28.346457"
       sodipodi:cy="612.99213"
       sodipodi:rx="7.0866141"
       sodipodi:ry="7.0866141"
       d="m 35.433071,612.99213 c 0,3.91383 -3.172786,7.08661 -7.086614,7.08661 -3.913829,0 -7.086615,-3.17278 -7.086615,-7.08661 0,-3.91383 3.172786,-7.08662 7.086615,-7.08662 3.913828,0 7.086614,3.17279 7.086614,7.08662 z" />
    <path
       transform="translate(124.01575,343.70075)"
       sodipodi:type="arc"
       style="fill:#803300;fill-opacity:1;stroke:none"
       id="path3007-0"
       sodipodi:cx="28.346457"
       sodipodi:cy="612.99213"
       sodipodi:rx="7.0866141"
       sodipodi:ry="7.0866141"
       d="m 35.433071,612.99213 c 0,3.91383 -3.172786,7.08661 -7.086614,7.08661 -3.913829,0 -7.086615,-3.17278 -7.086615,-7.08661 0,-3.91383 3.172786,-7.08662 7.086615,-7.08662 3.913828,0 7.086614,3.17279 7.086614,7.08662 z" />
    <path
       transform="translate(159.44882,343.70075)"
       sodipodi:type="arc"
       style="fill:#803300;fill-opacity:1;stroke:none"
       id="path3007-9"
       sodipodi:cx="28.346457"
       sodipodi:cy="612.99213"
       sodipodi:rx="7.0866141"
       sodipodi:ry="7.0866141"
       d="m 35.433071,612.99213 c 0,3.91383 -3.172786,7.08661 -7.086614,7.08661 -3.913829,0 -7.086615,-3.17278 -7.086615,-7.08661 0,-3.91383 3.172786,-7.08662 7.086615,-7.08662 3.913828,0 7.086614,3.17279 7.086614,7.08662 z" />
    <path
       transform="translate(159.44882,308.26769)"
       sodipodi:type="arc"
       style="fill:#803300;fill-opacity:1;stroke:none"
       id="path3007-48"
       sodipodi:cx="28.346457"
       sodipodi:cy="612.99213"
       sodipodi:rx="7.0866141"
       sodipodi:ry="7.0866141"
       d="m 35.433071,612.99213 c 0,3.91383 -3.172786,7.08661 -7.086614,7.08661 -3.913829,0 -7.086615,-3.17278 -7.086615,-7.08661 0,-3.91383 3.172786,-7.08662 7.086615,-7.08662 3.913828,0 7.086614,3.17279 7.086614,7.08662 z" />
  </g>
</svg>
