<?xml version="1.0" encoding="UTF-8" standalone="no"?>
<!-- Created with Inkscape (http://www.inkscape.org/) -->

<svg
   xmlns:dc="http://purl.org/dc/elements/1.1/"
   xmlns:cc="http://creativecommons.org/ns#"
   xmlns:rdf="http://www.w3.org/1999/02/22-rdf-syntax-ns#"
   xmlns:svg="http://www.w3.org/2000/svg"
   xmlns="http://www.w3.org/2000/svg"
   xmlns:sodipodi="http://sodipodi.sourceforge.net/DTD/sodipodi-0.dtd"
   xmlns:inkscape="http://www.inkscape.org/namespaces/inkscape"
   width="1052.3622"
   height="744.09448"
   id="svg2"
   version="1.1"
   inkscape:version="0.48.4 r9939"
   sodipodi:docname="servo_mount.svg">
  <defs
     id="defs4" />
  <sodipodi:namedview
     id="base"
     pagecolor="#ffffff"
     bordercolor="#666666"
     borderopacity="1.0"
     inkscape:pageopacity="0.0"
     inkscape:pageshadow="2"
     inkscape:zoom="4.4800001"
     inkscape:cx="-11.039879"
     inkscape:cy="588.70708"
     inkscape:document-units="mm"
     inkscape:current-layer="layer1"
     showgrid="true"
     inkscape:window-width="1366"
     inkscape:window-height="705"
     inkscape:window-x="-8"
     inkscape:window-y="-8"
     inkscape:window-maximized="1"
     units="mm"
     showguides="true"
     inkscape:guide-bbox="true"
     inkscape:snap-bbox="true"
     inkscape:bbox-paths="true"
     inkscape:bbox-nodes="true"
     inkscape:snap-bbox-edge-midpoints="true"
     inkscape:snap-bbox-midpoints="true">
    <inkscape:grid
       type="xygrid"
       id="grid3231"
       empspacing="5"
       visible="true"
       enabled="true"
       snapvisiblegridlinesonly="true"
       units="mm"
       spacingx="0.5mm"
       spacingy="0.5mm"
       color="#ef00ff"
       opacity="0.1254902"
       empcolor="#c60020"
       empopacity="0.25098039" />
    <sodipodi:guide
       orientation="0,1"
       position="265.74803,460.62992"
       id="guide4240" />
    <sodipodi:guide
       orientation="0,1"
       position="248.0315,301.1811"
       id="guide4242" />
    <sodipodi:guide
       orientation="0,1"
       position="21.259843,593.50394"
       id="guide3876" />
    <sodipodi:guide
       orientation="1,0"
       position="24.80315,577.55906"
       id="guide3878" />
    <sodipodi:guide
       orientation="1,0"
       position="12.401575,598.8189"
       id="guide3880" />
    <sodipodi:guide
       orientation="1,0"
       position="30.11811,584.64567"
       id="guide3900" />
    <sodipodi:guide
       orientation="1,0"
       position="37.204724,581.10236"
       id="guide3913" />
    <sodipodi:guide
       orientation="1,0"
       position="44.291339,566.92913"
       id="guide3922" />
    <sodipodi:guide
       orientation="1,0"
       position="51.377953,582.87402"
       id="guide3924" />
    <sodipodi:guide
       orientation="1,0"
       position="58.464567,579.33071"
       id="guide3926" />
    <sodipodi:guide
       orientation="1,0"
       position="65.551181,565.15748"
       id="guide3928" />
    <sodipodi:guide
       orientation="1,0"
       position="-12.401575,597.04724"
       id="guide4173" />
    <sodipodi:guide
       orientation="0,1"
       position="1.7716535,529.72441"
       id="guide4175" />
    <sodipodi:guide
       orientation="0,1"
       position="-31.889764,565.15748"
       id="guide4177" />
    <sodipodi:guide
       orientation="1,0"
       position="-51.377953,558.07087"
       id="guide4179" />
    <sodipodi:guide
       orientation="0,1"
       position="-28.346457,621.85039"
       id="guide4181" />
    <sodipodi:guide
       orientation="1,0"
       position="76.181102,630.70866"
       id="guide4185" />
    <sodipodi:guide
       orientation="1,0"
       position="-5.3149606,581.10236"
       id="guide3016" />
    <sodipodi:guide
       orientation="1,0"
       position="-40.748031,588.18898"
       id="guide3034" />
  </sodipodi:namedview>
  <metadata
     id="metadata7">
    <rdf:RDF>
      <cc:Work
         rdf:about="">
        <dc:format>image/svg+xml</dc:format>
        <dc:type
           rdf:resource="http://purl.org/dc/dcmitype/StillImage" />
        <dc:title />
      </cc:Work>
    </rdf:RDF>
  </metadata>
  <g
     inkscape:label="Layer 1"
     inkscape:groupmode="layer"
     id="layer1"
     transform="translate(0,-308.26769)">
    <path
       style="fill:#ff7f2a;stroke:none"
       d="m 70.866142,487.20469 -116.929134,0 c -3.543307,0 -5.314961,-1.77165 -5.314961,-5.31496 l 0,-46.06299 c 0,-3.54331 1.771654,-5.31496 5.314961,-5.31496 l 116.929134,0 c 3.543307,0 5.31496,1.77165 5.314961,5.31496 l 0,46.06299 c -10e-7,3.54331 -1.771654,5.31496 -5.314961,5.31496 z"
       id="path4187"
       inkscape:connector-curvature="0"
       sodipodi:nodetypes="ccccccccc" />
    <path
       sodipodi:type="arc"
       style="fill:#00ffff;fill-opacity:1;stroke:#502d16;stroke-width:0;stroke-linecap:round;stroke-linejoin:round;stroke-miterlimit:4;stroke-opacity:1;stroke-dasharray:none"
       id="path4289"
       sodipodi:cx="194.8819"
       sodipodi:cy="141.73228"
       sodipodi:rx="17.716536"
       sodipodi:ry="17.716536"
       d="m 212.59843,141.73228 c 0,9.78458 -7.93196,17.71654 -17.71653,17.71654 -9.78458,0 -17.71654,-7.93196 -17.71654,-17.71654 0,-9.78457 7.93196,-17.71653 17.71654,-17.71653 9.78457,0 17.71653,7.93196 17.71653,17.71653 z"
       transform="matrix(0.74999999,0,0,0.74999999,-133.75985,352.55902)" />
    <path
       sodipodi:type="arc"
       style="fill:#00ffff;fill-opacity:1;stroke:#502d16;stroke-width:0;stroke-linecap:round;stroke-linejoin:round;stroke-miterlimit:4;stroke-opacity:1;stroke-dasharray:none"
       id="path4289-4"
       sodipodi:cx="194.8819"
       sodipodi:cy="141.73228"
       sodipodi:rx="17.716536"
       sodipodi:ry="17.716536"
       d="m 212.59843,141.73228 c 0,9.78458 -7.93196,17.71654 -17.71653,17.71654 -9.78458,0 -17.71654,-7.93196 -17.71654,-17.71654 0,-9.78457 7.93196,-17.71653 17.71654,-17.71653 9.78457,0 17.71653,7.93196 17.71653,17.71653 z"
       transform="matrix(0.1,0,0,0.1,10.629921,444.685)" />
    <path
       sodipodi:type="arc"
       style="fill:#00ffff;fill-opacity:1;stroke:#502d16;stroke-width:0;stroke-linecap:round;stroke-linejoin:round;stroke-miterlimit:4;stroke-opacity:1;stroke-dasharray:none"
       id="path4289-4-0"
       sodipodi:cx="194.8819"
       sodipodi:cy="141.73228"
       sodipodi:rx="17.716536"
       sodipodi:ry="17.716536"
       d="m 212.59843,141.73228 c 0,9.78458 -7.93196,17.71654 -17.71653,17.71654 -9.78458,0 -17.71654,-7.93196 -17.71654,-17.71654 0,-9.78457 7.93196,-17.71653 17.71654,-17.71653 9.78457,0 17.71653,7.93196 17.71653,17.71653 z"
       transform="matrix(0.1,0,0,0.1,17.716535,444.685)" />
    <path
       sodipodi:type="arc"
       style="fill:#00ffff;fill-opacity:1;stroke:#502d16;stroke-width:0;stroke-linecap:round;stroke-linejoin:round;stroke-miterlimit:4;stroke-opacity:1;stroke-dasharray:none"
       id="path4289-4-9"
       sodipodi:cx="194.8819"
       sodipodi:cy="141.73228"
       sodipodi:rx="17.716536"
       sodipodi:ry="17.716536"
       d="m 212.59843,141.73228 c 0,9.78458 -7.93196,17.71654 -17.71653,17.71654 -9.78458,0 -17.71654,-7.93196 -17.71654,-17.71654 0,-9.78457 7.93196,-17.71653 17.71654,-17.71653 9.78457,0 17.71653,7.93196 17.71653,17.71653 z"
       transform="matrix(0.1,0,0,0.1,24.803149,444.685)" />
    <path
       sodipodi:type="arc"
       style="fill:#00ffff;fill-opacity:1;stroke:#502d16;stroke-width:0;stroke-linecap:round;stroke-linejoin:round;stroke-miterlimit:4;stroke-opacity:1;stroke-dasharray:none"
       id="path4289-4-4"
       sodipodi:cx="194.8819"
       sodipodi:cy="141.73228"
       sodipodi:rx="17.716536"
       sodipodi:ry="17.716536"
       d="m 212.59843,141.73228 c 0,9.78458 -7.93196,17.71654 -17.71653,17.71654 -9.78458,0 -17.71654,-7.93196 -17.71654,-17.71654 0,-9.78457 7.93196,-17.71653 17.71654,-17.71653 9.78457,0 17.71653,7.93196 17.71653,17.71653 z"
       transform="matrix(0.1,0,0,0.1,31.889763,444.685)" />
    <path
       sodipodi:type="arc"
       style="fill:#00ffff;fill-opacity:1;stroke:#502d16;stroke-width:0;stroke-linecap:round;stroke-linejoin:round;stroke-miterlimit:4;stroke-opacity:1;stroke-dasharray:none"
       id="path4289-4-8"
       sodipodi:cx="194.8819"
       sodipodi:cy="141.73228"
       sodipodi:rx="17.716536"
       sodipodi:ry="17.716536"
       d="m 212.59843,141.73228 c 0,9.78458 -7.93196,17.71654 -17.71653,17.71654 -9.78458,0 -17.71654,-7.93196 -17.71654,-17.71654 0,-9.78457 7.93196,-17.71653 17.71654,-17.71653 9.78457,0 17.71653,7.93196 17.71653,17.71653 z"
       transform="matrix(0.1,0,0,0.1,38.976378,444.685)" />
    <path
       sodipodi:type="arc"
       style="fill:#00ffff;fill-opacity:1;stroke:#502d16;stroke-width:0;stroke-linecap:round;stroke-linejoin:round;stroke-miterlimit:4;stroke-opacity:1;stroke-dasharray:none"
       id="path4289-4-82"
       sodipodi:cx="194.8819"
       sodipodi:cy="141.73228"
       sodipodi:rx="17.716536"
       sodipodi:ry="17.716536"
       d="m 212.59843,141.73228 c 0,9.78458 -7.93196,17.71654 -17.71653,17.71654 -9.78458,0 -17.71654,-7.93196 -17.71654,-17.71654 0,-9.78457 7.93196,-17.71653 17.71654,-17.71653 9.78457,0 17.71653,7.93196 17.71653,17.71653 z"
       transform="matrix(0.1,0,0,0.1,46.062992,444.685)" />
    <path
       sodipodi:type="arc"
       style="fill:#3771c8;fill-opacity:1;stroke:none"
       id="path3790-5"
       sodipodi:cx="19.48819"
       sodipodi:cy="574.01575"
       sodipodi:rx="13.293624"
       sodipodi:ry="15.097951"
       d="m 32.781814,574.01575 a 13.293624,15.097951 0 1 1 -26.5872482,0 13.293624,15.097951 0 1 1 26.5872482,0 z"
       transform="matrix(0.5330837,0,0,0.46937589,-15.703797,207.14562)" />
    <path
       sodipodi:type="arc"
       style="fill:#3771c8;fill-opacity:1;stroke:none"
       id="path3790-61"
       sodipodi:cx="19.48819"
       sodipodi:cy="574.01575"
       sodipodi:rx="13.293624"
       sodipodi:ry="15.097951"
       d="m 32.781814,574.01575 a 13.293624,15.097951 0 1 1 -26.5872482,0 13.293624,15.097951 0 1 1 26.5872482,0 z"
       transform="matrix(0.5330837,0,0,0.46937589,-15.703797,171.71255)" />
    <path
       sodipodi:type="arc"
       style="fill:#3771c8;fill-opacity:1;stroke:none"
       id="path3790-5-6"
       sodipodi:cx="19.48819"
       sodipodi:cy="574.01575"
       sodipodi:rx="13.293624"
       sodipodi:ry="15.097951"
       d="m 32.781814,574.01575 a 13.293624,15.097951 0 1 1 -26.5872482,0 13.293624,15.097951 0 1 1 26.5872482,0 z"
       transform="matrix(0.5330837,0,0,0.46937589,19.729274,207.14562)" />
    <path
       sodipodi:type="arc"
       style="fill:#3771c8;fill-opacity:1;stroke:none"
       id="path3790-61-1"
       sodipodi:cx="19.48819"
       sodipodi:cy="574.01575"
       sodipodi:rx="13.293624"
       sodipodi:ry="15.097951"
       d="m 32.781814,574.01575 a 13.293624,15.097951 0 1 1 -26.5872482,0 13.293624,15.097951 0 1 1 26.5872482,0 z"
       transform="matrix(0.5330837,0,0,0.46937589,19.729274,171.71255)" />
    <path
       sodipodi:type="arc"
       style="fill:#3771c8;fill-opacity:1;stroke:none"
       id="path3790-5-2"
       sodipodi:cx="19.48819"
       sodipodi:cy="574.01575"
       sodipodi:rx="13.293624"
       sodipodi:ry="15.097951"
       d="m 32.781814,574.01575 a 13.293624,15.097951 0 1 1 -26.5872482,0 13.293624,15.097951 0 1 1 26.5872482,0 z"
       transform="matrix(0.5330837,0,0,0.46937589,55.162345,207.14562)" />
    <path
       sodipodi:type="arc"
       style="fill:#3771c8;fill-opacity:1;stroke:none"
       id="path3790-61-7"
       sodipodi:cx="19.48819"
       sodipodi:cy="574.01575"
       sodipodi:rx="13.293624"
       sodipodi:ry="15.097951"
       d="m 32.781814,574.01575 a 13.293624,15.097951 0 1 1 -26.5872482,0 13.293624,15.097951 0 1 1 26.5872482,0 z"
       transform="matrix(0.5330837,0,0,0.46937589,55.162345,171.71255)" />
    <path
       sodipodi:type="arc"
       style="fill:#3771c8;fill-opacity:1;stroke:none"
       id="path3790-5-4"
       sodipodi:cx="19.48819"
       sodipodi:cy="574.01575"
       sodipodi:rx="13.293624"
       sodipodi:ry="15.097951"
       d="m 32.781814,574.01575 a 13.293624,15.097951 0 1 1 -26.5872482,0 13.293624,15.097951 0 1 1 26.5872482,0 z"
       transform="matrix(0.5330837,0,0,0.46937589,-51.136868,207.14562)" />
    <path
       sodipodi:type="arc"
       style="fill:#3771c8;fill-opacity:1;stroke:none"
       id="path3790-61-3"
       sodipodi:cx="19.48819"
       sodipodi:cy="574.01575"
       sodipodi:rx="13.293624"
       sodipodi:ry="15.097951"
       d="m 32.781814,574.01575 a 13.293624,15.097951 0 1 1 -26.5872482,0 13.293624,15.097951 0 1 1 26.5872482,0 z"
       transform="matrix(0.5330837,0,0,0.46937589,-51.136868,171.71255)" />
    <path
       sodipodi:type="arc"
       style="fill:#00ffff;fill-opacity:1;stroke:#502d16;stroke-width:0;stroke-linecap:round;stroke-linejoin:round;stroke-miterlimit:4;stroke-opacity:1;stroke-dasharray:none"
       id="path4289-4-1"
       sodipodi:cx="194.8819"
       sodipodi:cy="141.73228"
       sodipodi:rx="17.716536"
       sodipodi:ry="17.716536"
       d="m 212.59843,141.73228 c 0,9.78458 -7.93196,17.71654 -17.71653,17.71654 -9.78458,0 -17.71654,-7.93196 -17.71654,-17.71654 0,-9.78457 7.93196,-17.71653 17.71654,-17.71653 9.78457,0 17.71653,7.93196 17.71653,17.71653 z"
       transform="matrix(0.1,0,0,0.1,-60.236221,444.68501)" />
    <path
       sodipodi:type="arc"
       style="fill:#00ffff;fill-opacity:1;stroke:#502d16;stroke-width:0;stroke-linecap:round;stroke-linejoin:round;stroke-miterlimit:4;stroke-opacity:1;stroke-dasharray:none"
       id="path4289-4-0-7"
       sodipodi:cx="194.8819"
       sodipodi:cy="141.73228"
       sodipodi:rx="17.716536"
       sodipodi:ry="17.716536"
       d="m 212.59843,141.73228 c 0,9.78458 -7.93196,17.71654 -17.71653,17.71654 -9.78458,0 -17.71654,-7.93196 -17.71654,-17.71654 0,-9.78457 7.93196,-17.71653 17.71654,-17.71653 9.78457,0 17.71653,7.93196 17.71653,17.71653 z"
       transform="matrix(0.1,0,0,0.1,-53.149607,444.68501)" />
    <path
       sodipodi:type="arc"
       style="fill:#00ffff;fill-opacity:1;stroke:#502d16;stroke-width:0;stroke-linecap:round;stroke-linejoin:round;stroke-miterlimit:4;stroke-opacity:1;stroke-dasharray:none"
       id="path4289-4-9-4"
       sodipodi:cx="194.8819"
       sodipodi:cy="141.73228"
       sodipodi:rx="17.716536"
       sodipodi:ry="17.716536"
       d="m 212.59843,141.73228 c 0,9.78458 -7.93196,17.71654 -17.71653,17.71654 -9.78458,0 -17.71654,-7.93196 -17.71654,-17.71654 0,-9.78457 7.93196,-17.71653 17.71654,-17.71653 9.78457,0 17.71653,7.93196 17.71653,17.71653 z"
       transform="matrix(0.1,0,0,0.1,-46.062993,444.68501)" />
    <path
       sodipodi:type="arc"
       style="fill:#00ffff;fill-opacity:1;stroke:#502d16;stroke-width:0;stroke-linecap:round;stroke-linejoin:round;stroke-miterlimit:4;stroke-opacity:1;stroke-dasharray:none"
       id="path4289-4-4-0"
       sodipodi:cx="194.8819"
       sodipodi:cy="141.73228"
       sodipodi:rx="17.716536"
       sodipodi:ry="17.716536"
       d="m 212.59843,141.73228 c 0,9.78458 -7.93196,17.71654 -17.71653,17.71654 -9.78458,0 -17.71654,-7.93196 -17.71654,-17.71654 0,-9.78457 7.93196,-17.71653 17.71654,-17.71653 9.78457,0 17.71653,7.93196 17.71653,17.71653 z"
       transform="matrix(0.1,0,0,0.1,-38.976379,444.68501)" />
    <path
       sodipodi:type="arc"
       style="fill:#00ffff;fill-opacity:1;stroke:#502d16;stroke-width:0;stroke-linecap:round;stroke-linejoin:round;stroke-miterlimit:4;stroke-opacity:1;stroke-dasharray:none"
       id="path4289-4-8-9"
       sodipodi:cx="194.8819"
       sodipodi:cy="141.73228"
       sodipodi:rx="17.716536"
       sodipodi:ry="17.716536"
       d="m 212.59843,141.73228 c 0,9.78458 -7.93196,17.71654 -17.71653,17.71654 -9.78458,0 -17.71654,-7.93196 -17.71654,-17.71654 0,-9.78457 7.93196,-17.71653 17.71654,-17.71653 9.78457,0 17.71653,7.93196 17.71653,17.71653 z"
       transform="matrix(0.1,0,0,0.1,-31.889764,444.68501)" />
    <path
       sodipodi:type="arc"
       style="fill:#00ffff;fill-opacity:1;stroke:#502d16;stroke-width:0;stroke-linecap:round;stroke-linejoin:round;stroke-miterlimit:4;stroke-opacity:1;stroke-dasharray:none"
       id="path4289-4-82-4"
       sodipodi:cx="194.8819"
       sodipodi:cy="141.73228"
       sodipodi:rx="17.716536"
       sodipodi:ry="17.716536"
       d="m 212.59843,141.73228 c 0,9.78458 -7.93196,17.71654 -17.71653,17.71654 -9.78458,0 -17.71654,-7.93196 -17.71654,-17.71654 0,-9.78457 7.93196,-17.71653 17.71654,-17.71653 9.78457,0 17.71653,7.93196 17.71653,17.71653 z"
       transform="matrix(0.1,0,0,0.1,-24.80315,444.68501)" />
  </g>
</svg>
