<?xml version="1.0" encoding="UTF-8" standalone="no"?>
<!-- Created with Inkscape (http://www.inkscape.org/) -->

<svg
   xmlns:dc="http://purl.org/dc/elements/1.1/"
   xmlns:cc="http://creativecommons.org/ns#"
   xmlns:rdf="http://www.w3.org/1999/02/22-rdf-syntax-ns#"
   xmlns:svg="http://www.w3.org/2000/svg"
   xmlns="http://www.w3.org/2000/svg"
   xmlns:sodipodi="http://sodipodi.sourceforge.net/DTD/sodipodi-0.dtd"
   xmlns:inkscape="http://www.inkscape.org/namespaces/inkscape"
   width="1052.3622"
   height="744.09448"
   id="svg2"
   version="1.1"
   inkscape:version="0.48.4 r9939"
   sodipodi:docname="servo_ds329hv_box.svg">
  <defs
     id="defs4" />
  <sodipodi:namedview
     id="base"
     pagecolor="#ffffff"
     bordercolor="#666666"
     borderopacity="1.0"
     inkscape:pageopacity="0.0"
     inkscape:pageshadow="2"
     inkscape:zoom="2.2415285"
     inkscape:cx="166.36069"
     inkscape:cy="93.381061"
     inkscape:document-units="mm"
     inkscape:current-layer="layer1"
     showgrid="true"
     inkscape:window-width="1366"
     inkscape:window-height="705"
     inkscape:window-x="-8"
     inkscape:window-y="-8"
     inkscape:window-maximized="1"
     units="mm"
     inkscape:snap-bbox="true"
     inkscape:bbox-paths="true"
     inkscape:bbox-nodes="true"
     showguides="true"
     inkscape:guide-bbox="true"
     inkscape:snap-bbox-midpoints="true"
     inkscape:snap-bbox-edge-midpoints="true">
    <inkscape:grid
       type="xygrid"
       id="grid3231"
       empspacing="5"
       visible="true"
       enabled="true"
       snapvisiblegridlinesonly="true"
       units="mm"
       spacingx="0.5mm"
       spacingy="0.5mm"
       color="#e200ff"
       opacity="0.1254902"
       empcolor="#920092"
       empopacity="0.25098039" />
    <sodipodi:guide
       orientation="0,1"
       position="92.125984,46.062992"
       id="guide3767" />
    <sodipodi:guide
       orientation="1,0"
       position="46.062992,56.692913"
       id="guide3769" />
    <sodipodi:guide
       orientation="1,0"
       position="76.181102,207.28346"
       id="guide3773" />
    <sodipodi:guide
       orientation="1,0"
       position="193.11024,138.18898"
       id="guide3775" />
    <sodipodi:guide
       orientation="0,1"
       position="-7.0866142,141.73228"
       id="guide3781" />
    <sodipodi:guide
       orientation="0,1"
       position="28.346457,109.84252"
       id="guide3785" />
    <sodipodi:guide
       orientation="0,1"
       position="226.77165,53.149606"
       id="guide3787" />
    <sodipodi:guide
       orientation="1,0"
       position="14.173228,134.64567"
       id="guide3789" />
    <sodipodi:guide
       orientation="0,1"
       position="42.519685,74.409449"
       id="guide3793" />
    <sodipodi:guide
       orientation="0,1"
       position="219.68504,14.173228"
       id="guide3797" />
    <sodipodi:guide
       orientation="1,0"
       position="63.779528,38.976378"
       id="guide3799" />
    <sodipodi:guide
       orientation="1,0"
       position="205.51181,24.80315"
       id="guide3012" />
    <sodipodi:guide
       orientation="0,1"
       position="-24.80315,201.9685"
       id="guide3032" />
    <sodipodi:guide
       orientation="1,0"
       position="223.22835,131.10236"
       id="guide3034" />
    <sodipodi:guide
       orientation="1,0"
       position="283.46457,134.64567"
       id="guide3036" />
    <sodipodi:guide
       orientation="1,0"
       position="-14.173228,106.29921"
       id="guide3038" />
    <sodipodi:guide
       orientation="0,1"
       position="88.582677,131.10236"
       id="guide3040" />
    <sodipodi:guide
       orientation="1,0"
       position="255.11811,124.01575"
       id="guide3069" />
    <sodipodi:guide
       orientation="0,1"
       position="28.346457,-14.173228"
       id="guide3071" />
    <sodipodi:guide
       orientation="0,1"
       position="113.38583,155.90551"
       id="guide3073" />
    <sodipodi:guide
       orientation="1,0"
       position="67.322835,145.27559"
       id="guide3075" />
    <sodipodi:guide
       orientation="0,1"
       position="99.212598,184.25197"
       id="guide3077" />
    <sodipodi:guide
       orientation="1,0"
       position="201.9685,173.62205"
       id="guide3097" />
  </sodipodi:namedview>
  <metadata
     id="metadata7">
    <rdf:RDF>
      <cc:Work
         rdf:about="">
        <dc:format>image/svg+xml</dc:format>
        <dc:type
           rdf:resource="http://purl.org/dc/dcmitype/StillImage" />
        <dc:title />
      </cc:Work>
    </rdf:RDF>
  </metadata>
  <g
     inkscape:label="Layer 1"
     inkscape:groupmode="layer"
     id="layer1"
     transform="translate(0,-308.26769)">
    <path
       style="fill:#8dd35f;fill-opacity:1;stroke:#000000;stroke-width:0;stroke-linecap:butt;stroke-linejoin:miter;stroke-miterlimit:4;stroke-opacity:1;stroke-dasharray:none"
       d="m 46.062992,999.21257 -60.236224,0 4e-6,-77.95276 60.236224,0 -4e-6,-10.62992 0,-60.23623 30.11811,1e-5 0,60.23622 116.929138,0 0,-60.23622 30.11811,0 0,60.23623 0,10.62995 60.23622,-4e-5 0,77.95276 -60.23622,10e-6 0,7.08662 0,60.2362 -177.165358,0 0,-60.2362 z"
       id="path3236"
       inkscape:connector-curvature="0"
       sodipodi:nodetypes="ccccccccccccccccccccc" />
    <path
       sodipodi:type="arc"
       style="fill:#39b7b7;fill-opacity:1;stroke:#502d16;stroke-width:0;stroke-linecap:round;stroke-linejoin:round;stroke-miterlimit:4;stroke-opacity:1;stroke-dasharray:none"
       id="path3253"
       sodipodi:cx="46.062992"
       sodipodi:cy="177.16534"
       sodipodi:rx="3.5433071"
       sodipodi:ry="3.5433071"
       d="m 49.606299,177.16534 c 0,1.95692 -1.586392,3.54331 -3.543307,3.54331 -1.956914,0 -3.543307,-1.58639 -3.543307,-3.54331 0,-1.95691 1.586393,-3.5433 3.543307,-3.5433 1.956915,0 3.543307,1.58639 3.543307,3.5433 z"
       transform="matrix(2.0000001,0,0,1.9999996,-24.803154,542.12604)" />
    <path
       sodipodi:type="arc"
       style="fill:#333333;fill-opacity:1;stroke:none"
       id="path3790-17"
       sodipodi:cx="19.48819"
       sodipodi:cy="574.01575"
       sodipodi:rx="13.293624"
       sodipodi:ry="15.097951"
       d="m 32.781814,574.01575 c 0,8.33837 -5.951759,15.09795 -13.293624,15.09795 -7.341866,0 -13.2936242,-6.75958 -13.2936242,-15.09795 0,-8.33837 5.9517582,-15.09795 13.2936242,-15.09795 7.341865,0 13.293624,6.75958 13.293624,15.09795 z"
       transform="matrix(0.53941412,0,0,0.4735153,3.6610237,706.27247)" />
    <path
       sodipodi:type="arc"
       style="fill:#333333;fill-opacity:1;stroke:none"
       id="path3790-1-4"
       sodipodi:cx="19.48819"
       sodipodi:cy="574.01575"
       sodipodi:rx="13.293624"
       sodipodi:ry="15.097951"
       d="m 32.781814,574.01575 c 0,8.33837 -5.951759,15.09795 -13.293624,15.09795 -7.341866,0 -13.2936242,-6.75958 -13.2936242,-15.09795 0,-8.33837 5.9517582,-15.09795 13.2936242,-15.09795 7.341865,0 13.293624,6.75958 13.293624,15.09795 z"
       transform="matrix(0.53941412,0,0,0.4735153,244.60591,706.20998)" />
    <path
       sodipodi:type="arc"
       style="fill:#333333;fill-opacity:1;stroke:none"
       id="path3790-0"
       sodipodi:cx="19.48819"
       sodipodi:cy="574.01575"
       sodipodi:rx="13.293624"
       sodipodi:ry="15.097951"
       d="m 32.781814,574.01575 c 0,8.33837 -5.951759,15.09795 -13.293624,15.09795 -7.341866,0 -13.2936242,-6.75958 -13.2936242,-15.09795 0,-8.33837 5.9517582,-15.09795 13.2936242,-15.09795 7.341865,0 13.293624,6.75958 13.293624,15.09795 z"
       transform="matrix(0,0.53941412,-0.4735153,0,371.15325,1027.5345)" />
    <path
       sodipodi:type="arc"
       style="fill:#333333;fill-opacity:1;stroke:none"
       id="path3790-1-9"
       sodipodi:cx="19.48819"
       sodipodi:cy="574.01575"
       sodipodi:rx="13.293624"
       sodipodi:ry="15.097951"
       d="m 32.781814,574.01575 c 0,8.33837 -5.951759,15.09795 -13.293624,15.09795 -7.341866,0 -13.2936242,-6.75958 -13.2936242,-15.09795 0,-8.33837 5.9517582,-15.09795 13.2936242,-15.09795 7.341865,0 13.293624,6.75958 13.293624,15.09795 z"
       transform="matrix(0,0.53941412,-0.4735153,0,335.58477,1027.6767)" />
    <path
       sodipodi:type="arc"
       style="fill:#333333;fill-opacity:1;stroke:none"
       id="path3790-0-4"
       sodipodi:cx="19.48819"
       sodipodi:cy="574.01575"
       sodipodi:rx="13.293624"
       sodipodi:ry="15.097951"
       d="m 32.781814,574.01575 c 0,8.33837 -5.951759,15.09795 -13.293624,15.09795 -7.341866,0 -13.2936242,-6.75958 -13.2936242,-15.09795 0,-8.33837 5.9517582,-15.09795 13.2936242,-15.09795 7.341865,0 13.293624,6.75958 13.293624,15.09795 z"
       transform="matrix(0,0.53941412,-0.4735153,0,406.61939,1027.4616)" />
    <path
       sodipodi:type="arc"
       style="fill:#333333;fill-opacity:1;stroke:none;stroke-width:1.41732287000000000;stroke-linecap:round;stroke-linejoin:round;stroke-miterlimit:4;stroke-opacity:1;stroke-dasharray:none"
       id="path3790-5"
       sodipodi:cx="19.48819"
       sodipodi:cy="574.01575"
       sodipodi:rx="13.293624"
       sodipodi:ry="15.097951"
       d="m 32.781814,574.01575 c 0,8.33837 -5.951759,15.09795 -13.293624,15.09795 -7.341866,0 -13.2936242,-6.75958 -13.2936242,-15.09795 0,-8.33837 5.9517582,-15.09795 13.2936242,-15.09795 7.341865,0 13.293624,6.75958 13.293624,15.09795 z"
       transform="matrix(0.53941412,0,0,0.4735153,53.267323,706.14748)" />
    <path
       sodipodi:type="arc"
       style="fill:#333333;fill-opacity:1;stroke:none"
       id="path3790-5-7"
       sodipodi:cx="19.48819"
       sodipodi:cy="574.01575"
       sodipodi:rx="13.293624"
       sodipodi:ry="15.097951"
       d="m 32.781814,574.01575 c 0,8.33837 -5.951759,15.09795 -13.293624,15.09795 -7.341866,0 -13.2936242,-6.75958 -13.2936242,-15.09795 0,-8.33837 5.9517582,-15.09795 13.2936242,-15.09795 7.341865,0 13.293624,6.75958 13.293624,15.09795 z"
       transform="matrix(0.53941412,0,0,0.4735153,194.99961,706.20998)" />
    <path
       sodipodi:type="arc"
       style="fill:#333333;fill-opacity:1;stroke:none"
       id="path3790-0-8-1"
       sodipodi:cx="19.48819"
       sodipodi:cy="574.01575"
       sodipodi:rx="13.293624"
       sodipodi:ry="15.097951"
       d="m 32.781814,574.01575 c 0,8.33837 -5.951759,15.09795 -13.293624,15.09795 -7.341866,0 -13.2936242,-6.75958 -13.2936242,-15.09795 0,-8.33837 5.9517582,-15.09795 13.2936242,-15.09795 7.341865,0 13.293624,6.75958 13.293624,15.09795 z"
       transform="matrix(0,0.53941412,-0.4735153,0,442.01939,1027.5345)" />
    <path
       sodipodi:type="arc"
       style="fill:#333333;fill-opacity:1;stroke:none"
       id="path3790-0-8-1-1"
       sodipodi:cx="19.48819"
       sodipodi:cy="574.01575"
       sodipodi:rx="13.293624"
       sodipodi:ry="15.097951"
       d="m 32.781814,574.01575 c 0,8.33837 -5.951759,15.09795 -13.293624,15.09795 -7.341866,0 -13.2936242,-6.75958 -13.2936242,-15.09795 0,-8.33837 5.9517582,-15.09795 13.2936242,-15.09795 7.341865,0 13.293624,6.75958 13.293624,15.09795 z"
       transform="matrix(0,0.53941412,-0.4735153,0,477.45246,1027.5345)" />
    <path
       sodipodi:type="arc"
       style="fill:#333333;fill-opacity:1;stroke:none"
       id="path3790-17-7"
       sodipodi:cx="19.48819"
       sodipodi:cy="574.01575"
       sodipodi:rx="13.293624"
       sodipodi:ry="15.097951"
       d="m 32.781814,574.01575 c 0,8.33837 -5.951759,15.09795 -13.293624,15.09795 -7.341866,0 -13.2936242,-6.75958 -13.2936242,-15.09795 0,-8.33837 5.9517582,-15.09795 13.2936242,-15.09795 7.341865,0 13.293624,6.75958 13.293624,15.09795 z"
       transform="matrix(0.53941412,0,0,0.4735153,3.6610237,670.77691)" />
    <path
       sodipodi:type="arc"
       style="fill:#333333;fill-opacity:1;stroke:none"
       id="path3790-1-4-4"
       sodipodi:cx="19.48819"
       sodipodi:cy="574.01575"
       sodipodi:rx="13.293624"
       sodipodi:ry="15.097951"
       d="m 32.781814,574.01575 c 0,8.33837 -5.951759,15.09795 -13.293624,15.09795 -7.341866,0 -13.2936242,-6.75958 -13.2936242,-15.09795 0,-8.33837 5.9517582,-15.09795 13.2936242,-15.09795 7.341865,0 13.293624,6.75958 13.293624,15.09795 z"
       transform="matrix(0.53941412,0,0,0.4735153,244.60591,670.71441)" />
    <path
       sodipodi:type="arc"
       style="fill:#333333;fill-opacity:1;stroke:none"
       id="path3790-5-0"
       sodipodi:cx="19.48819"
       sodipodi:cy="574.01575"
       sodipodi:rx="13.293624"
       sodipodi:ry="15.097951"
       d="m 32.781814,574.01575 c 0,8.33837 -5.951759,15.09795 -13.293624,15.09795 -7.341866,0 -13.2936242,-6.75958 -13.2936242,-15.09795 0,-8.33837 5.9517582,-15.09795 13.2936242,-15.09795 7.341865,0 13.293624,6.75958 13.293624,15.09795 z"
       transform="matrix(0.53941412,0,0,0.4735153,53.267317,670.65191)" />
    <path
       sodipodi:type="arc"
       style="fill:#333333;fill-opacity:1;stroke:none"
       id="path3790-5-7-9"
       sodipodi:cx="19.48819"
       sodipodi:cy="574.01575"
       sodipodi:rx="13.293624"
       sodipodi:ry="15.097951"
       d="m 32.781814,574.01575 c 0,8.33837 -5.951759,15.09795 -13.293624,15.09795 -7.341866,0 -13.2936242,-6.75958 -13.2936242,-15.09795 0,-8.33837 5.9517582,-15.09795 13.2936242,-15.09795 7.341865,0 13.293624,6.75958 13.293624,15.09795 z"
       transform="matrix(0.53941412,0,0,0.4735153,194.99961,670.71441)" />
    <path
       sodipodi:type="arc"
       style="fill:#39b7b7;fill-opacity:1;stroke:#502d16;stroke-width:0;stroke-linecap:round;stroke-linejoin:round;stroke-miterlimit:4;stroke-opacity:1;stroke-dasharray:none"
       id="path3253-4"
       sodipodi:cx="46.062992"
       sodipodi:cy="177.16534"
       sodipodi:rx="3.5433071"
       sodipodi:ry="3.5433071"
       d="m 49.606299,177.16534 c 0,1.95692 -1.586392,3.54331 -3.543307,3.54331 -1.956914,0 -3.543307,-1.58639 -3.543307,-3.54331 0,-1.95691 1.586393,-3.5433 3.543307,-3.5433 1.956915,0 3.543307,1.58639 3.543307,3.5433 z"
       transform="matrix(2.0000001,0,0,1.9999996,-24.803154,513.77958)" />
    <path
       sodipodi:type="arc"
       style="fill:#39b7b7;fill-opacity:1;stroke:#502d16;stroke-width:0;stroke-linecap:round;stroke-linejoin:round;stroke-miterlimit:4;stroke-opacity:1;stroke-dasharray:none"
       id="path3253-8"
       sodipodi:cx="46.062992"
       sodipodi:cy="177.16534"
       sodipodi:rx="3.5433071"
       sodipodi:ry="3.5433071"
       d="m 49.606299,177.16534 c 0,1.95692 -1.586392,3.54331 -3.543307,3.54331 -1.956914,0 -3.543307,-1.58639 -3.543307,-3.54331 0,-1.95691 1.586393,-3.5433 3.543307,-3.5433 1.956915,0 3.543307,1.58639 3.543307,3.5433 z"
       transform="matrix(2.0000001,0,0,1.9999996,109.84252,542.12604)" />
    <path
       sodipodi:type="arc"
       style="fill:#39b7b7;fill-opacity:1;stroke:#502d16;stroke-width:0;stroke-linecap:round;stroke-linejoin:round;stroke-miterlimit:4;stroke-opacity:1;stroke-dasharray:none"
       id="path3253-4-8"
       sodipodi:cx="46.062992"
       sodipodi:cy="177.16534"
       sodipodi:rx="3.5433071"
       sodipodi:ry="3.5433071"
       d="m 49.606299,177.16534 c 0,1.95692 -1.586392,3.54331 -3.543307,3.54331 -1.956914,0 -3.543307,-1.58639 -3.543307,-3.54331 0,-1.95691 1.586393,-3.5433 3.543307,-3.5433 1.956915,0 3.543307,1.58639 3.543307,3.5433 z"
       transform="matrix(2.0000001,0,0,1.9999996,109.84252,513.77958)" />
  </g>
</svg>
