<?xml version="1.0" encoding="UTF-8" standalone="no"?>
<!-- Created with Inkscape (http://www.inkscape.org/) -->

<svg
   xmlns:dc="http://purl.org/dc/elements/1.1/"
   xmlns:cc="http://creativecommons.org/ns#"
   xmlns:rdf="http://www.w3.org/1999/02/22-rdf-syntax-ns#"
   xmlns:svg="http://www.w3.org/2000/svg"
   xmlns="http://www.w3.org/2000/svg"
   xmlns:sodipodi="http://sodipodi.sourceforge.net/DTD/sodipodi-0.dtd"
   xmlns:inkscape="http://www.inkscape.org/namespaces/inkscape"
   width="1052.3622"
   height="744.09448"
   id="svg2"
   version="1.1"
   inkscape:version="0.48.4 r9939"
   sodipodi:docname="servo_rib.svg">
  <defs
     id="defs4" />
  <sodipodi:namedview
     id="base"
     pagecolor="#ffffff"
     bordercolor="#666666"
     borderopacity="1.0"
     inkscape:pageopacity="0.0"
     inkscape:pageshadow="2"
     inkscape:zoom="2.24"
     inkscape:cx="105.75937"
     inkscape:cy="162.72476"
     inkscape:document-units="mm"
     inkscape:current-layer="layer1"
     showgrid="true"
     inkscape:window-width="1366"
     inkscape:window-height="705"
     inkscape:window-x="-8"
     inkscape:window-y="-8"
     inkscape:window-maximized="1"
     units="mm"
     inkscape:snap-bbox="true"
     inkscape:bbox-paths="true"
     inkscape:bbox-nodes="true"
     showguides="true"
     inkscape:guide-bbox="true"
     inkscape:snap-bbox-midpoints="true"
     inkscape:snap-bbox-edge-midpoints="true">
    <inkscape:grid
       type="xygrid"
       id="grid3231"
       empspacing="5"
       visible="true"
       enabled="true"
       snapvisiblegridlinesonly="true"
       units="mm"
       spacingx="1mm"
       spacingy="1mm"
       color="#e200ff"
       opacity="0.1254902"
       empcolor="#920092"
       empopacity="0.25098039" />
    <sodipodi:guide
       orientation="1,0"
       position="46.062992,56.692913"
       id="guide3769" />
    <sodipodi:guide
       orientation="1,0"
       position="187.79528,113.38583"
       id="guide3771" />
    <sodipodi:guide
       orientation="1,0"
       position="77.952756,49.606299"
       id="guide3773" />
    <sodipodi:guide
       orientation="1,0"
       position="155.90551,38.976378"
       id="guide3775" />
    <sodipodi:guide
       orientation="0,1"
       position="70.866142,109.84252"
       id="guide3781" />
    <sodipodi:guide
       orientation="0,1"
       position="92.125984,152.3622"
       id="guide3783" />
    <sodipodi:guide
       orientation="1,0"
       position="31.889764,162.99213"
       id="guide3789" />
    <sodipodi:guide
       orientation="0,1"
       position="127.55906,131.10236"
       id="guide3791" />
    <sodipodi:guide
       orientation="1,0"
       position="201.9685,162.99213"
       id="guide3795" />
    <sodipodi:guide
       orientation="1,0"
       position="63.779528,116.92913"
       id="guide3799" />
    <sodipodi:guide
       orientation="1,0"
       position="170.07874,120.47244"
       id="guide3801" />
    <sodipodi:guide
       orientation="0,1"
       position="53.149606,81.496063"
       id="guide3203" />
    <sodipodi:guide
       orientation="0,1"
       position="99.212598,95.669291"
       id="guide3207" />
    <sodipodi:guide
       orientation="1,0"
       position="116.92913,77.952756"
       id="guide3211" />
  </sodipodi:namedview>
  <metadata
     id="metadata7">
    <rdf:RDF>
      <cc:Work
         rdf:about="">
        <dc:format>image/svg+xml</dc:format>
        <dc:type
           rdf:resource="http://purl.org/dc/dcmitype/StillImage" />
        <dc:title />
      </cc:Work>
    </rdf:RDF>
  </metadata>
  <g
     inkscape:label="Layer 1"
     inkscape:groupmode="layer"
     id="layer1"
     transform="translate(0,-308.26769)">
    <path
       style="fill:#bcd35f;fill-opacity:1;stroke:#000000;stroke-width:0;stroke-linecap:butt;stroke-linejoin:miter;stroke-miterlimit:4;stroke-opacity:1;stroke-dasharray:none"
       d="m 42.519685,970.86611 -4.734234,-1.16526 -3.256593,-2.11847 -1.918659,-3.13409 -0.720435,-4.2121 0,-49.6063 0.727338,-5.11402 2.137499,-3.31928 3.36256,-1.7601 4.402524,-0.43652 35.433067,-10e-6 4e-6,42.51969 77.952754,0 0,-42.51969 35.43307,10e-6 4.69554,0.61942 3.5122,1.80276 2.06582,3.24914 0.35636,4.9586 0,49.6063 -0.42469,4.25233 -1.77074,3.29087 -3.3305,2.17675 -5.10399,0.90997 z"
       id="path3236"
       inkscape:connector-curvature="0"
       sodipodi:nodetypes="ccccccccccccccccccccccccc" />
    <path
       sodipodi:type="arc"
       style="fill:#39b7b7;fill-opacity:1;stroke:#502d16;stroke-width:0;stroke-linecap:round;stroke-linejoin:round;stroke-miterlimit:4;stroke-opacity:1;stroke-dasharray:none"
       id="path3253"
       sodipodi:cx="46.062992"
       sodipodi:cy="177.16534"
       sodipodi:rx="3.5433071"
       sodipodi:ry="3.5433071"
       d="m 49.606299,177.16534 c 0,1.95692 -1.586392,3.54331 -3.543307,3.54331 -1.956914,0 -3.543307,-1.58639 -3.543307,-3.54331 0,-1.95691 1.586393,-3.5433 3.543307,-3.5433 1.956915,0 3.543307,1.58639 3.543307,3.5433 z"
       transform="translate(24.80315,744.09447)" />
    <path
       sodipodi:type="arc"
       style="fill:#39b7b7;fill-opacity:1;stroke:#502d16;stroke-width:0;stroke-linecap:round;stroke-linejoin:round;stroke-miterlimit:4;stroke-opacity:1;stroke-dasharray:none"
       id="path3255"
       sodipodi:cx="131.10236"
       sodipodi:cy="177.16534"
       sodipodi:rx="3.5433071"
       sodipodi:ry="3.5433071"
       d="m 134.64566,177.16534 c 0,1.95692 -1.58639,3.54331 -3.5433,3.54331 -1.95692,0 -3.54331,-1.58639 -3.54331,-3.54331 0,-1.95691 1.58639,-3.5433 3.54331,-3.5433 1.95691,0 3.5433,1.58639 3.5433,3.5433 z"
       transform="translate(31.88977,744.09447)" />
    <path
       style="fill:#803300;fill-opacity:1;stroke:none;stroke-width:0.71630329000000004;stroke-linecap:round;stroke-linejoin:round;stroke-miterlimit:4;stroke-opacity:1"
       d="m 46.063042,928.43058 c -0.4936,0 -0.9755,-0.0502 -1.4408,-0.14569 -0.4654,-0.0955 -0.9144,-0.2364 -1.342,-0.41783 -0.4277,-0.18143 -0.834,-0.40341 -1.2144,-0.66114 -0.3803,-0.25773 -0.7346,-0.5512 -1.058,-0.87561 -0.3235,-0.32442 -0.6161,-0.67977 -0.873,-1.06126 -0.257,-0.38149 -0.4783,-0.78911 -0.6591,-1.21806 -0.1809,-0.42895 -0.3214,-0.87922 -0.4166,-1.34602 -0.095,-0.4668 -0.1453,-0.95012 -0.1453,-1.44516 0,-0.49504 0.05,-0.97836 0.1453,-1.44516 0.095,-0.4668 0.2357,-0.91708 0.4166,-1.34603 0.1808,-0.42895 0.4021,-0.83657 0.6591,-1.21806 0.2569,-0.38149 0.5495,-0.73684 0.873,-1.06125 0.3234,-0.32442 0.6777,-0.61789 1.058,-0.87562 0.3804,-0.25772 0.7867,-0.47971 1.2144,-0.66114 0.4276,-0.18143 0.8766,-0.32231 1.342,-0.41783 0.4653,-0.0955 0.9472,-0.14568 1.4408,-0.14568 0.4935,0 0.9754,0.0502 1.4407,0.14568 0.4654,0.0955 0.9144,0.2364 1.342,0.41783 0.4277,0.18143 0.8341,0.40342 1.2144,0.66114 0.3803,0.25773 0.7346,0.5512 1.058,0.87562 0.3235,0.32441 0.6161,0.67976 0.873,1.06125 0.257,0.38149 0.4783,0.78911 0.6592,1.21806 0.1808,0.42895 0.3213,0.87923 0.4165,1.34603 0.095,0.4668 0.1453,0.95012 0.1453,1.44516 0,0.49504 -0.05,0.97836 -0.1453,1.44516 -0.095,0.4668 -0.2357,0.91707 -0.4165,1.34602 -0.1809,0.42895 -0.4022,0.83657 -0.6592,1.21806 -0.2569,0.38149 -0.5495,0.73684 -0.873,1.06126 -0.3234,0.32441 -0.6777,0.61788 -1.058,0.87561 -0.3803,0.25773 -0.7867,0.47971 -1.2144,0.66114 -0.4276,0.18143 -0.8766,0.32231 -1.342,0.41783 -0.4653,0.0955 -0.9472,0.14569 -1.4407,0.14569 z"
       id="path3790-5-1"
       inkscape:connector-curvature="0"
       sodipodi:nodetypes="sssssssssssssssssssssssssssssssss" />
    <path
       style="fill:#803300;fill-opacity:1;stroke:none;stroke-width:0.71630329000000004;stroke-linecap:round;stroke-linejoin:round;stroke-miterlimit:4;stroke-opacity:1"
       d="m 46.063042,963.86369 c -0.4936,0 -0.9755,-0.05 -1.4408,-0.1457 -0.4654,-0.096 -0.9144,-0.2364 -1.342,-0.4179 -0.4277,-0.1814 -0.834,-0.4034 -1.2144,-0.6611 -0.3803,-0.2577 -0.7346,-0.5512 -1.058,-0.8756 -0.3235,-0.3244 -0.6161,-0.6798 -0.873,-1.0613 -0.257,-0.3815 -0.4783,-0.7891 -0.6591,-1.218 -0.1809,-0.429 -0.3214,-0.8792 -0.4166,-1.3461 -0.095,-0.4668 -0.1453,-0.9501 -0.1453,-1.4451 0,-0.4951 0.05,-0.9784 0.1453,-1.4452 0.095,-0.4668 0.2357,-0.9171 0.4166,-1.346 0.1808,-0.4289 0.4021,-0.8366 0.6591,-1.2181 0.2569,-0.3814 0.5495,-0.7368 0.873,-1.0612 0.3234,-0.3244 0.6777,-0.6179 1.058,-0.8756 0.3804,-0.2578 0.7867,-0.4797 1.2144,-0.6612 0.4276,-0.1814 0.8766,-0.3223 1.342,-0.4178 0.4653,-0.095 0.9472,-0.1457 1.4408,-0.1457 0.4935,0 0.9754,0.05 1.4407,0.1457 0.4654,0.096 0.9144,0.2364 1.342,0.4178 0.4277,0.1815 0.8341,0.4034 1.2144,0.6612 0.3803,0.2577 0.7346,0.5512 1.058,0.8756 0.3235,0.3244 0.6161,0.6798 0.873,1.0612 0.257,0.3815 0.4783,0.7892 0.6592,1.2181 0.1808,0.4289 0.3213,0.8792 0.4165,1.346 0.095,0.4668 0.1453,0.9502 0.1453,1.4452 0,0.495 -0.05,0.9783 -0.1453,1.4451 -0.095,0.4668 -0.2357,0.9171 -0.4165,1.3461 -0.1809,0.4289 -0.4022,0.8365 -0.6592,1.218 -0.2569,0.3815 -0.5495,0.7369 -0.873,1.0613 -0.3234,0.3244 -0.6777,0.6179 -1.058,0.8756 -0.3803,0.2577 -0.7867,0.4797 -1.2144,0.6611 -0.4276,0.1815 -0.8766,0.3223 -1.342,0.4179 -0.4653,0.096 -0.9472,0.1457 -1.4407,0.1457 z"
       id="path3790-5-6"
       inkscape:connector-curvature="0"
       sodipodi:nodetypes="sssssssssssssssssssssssssssssssss" />
    <path
       style="fill:#803300;fill-opacity:1;stroke:none;stroke-width:0.71630329000000004;stroke-linecap:round;stroke-linejoin:round;stroke-miterlimit:4;stroke-opacity:1"
       d="m 81.49604,963.86363 c -0.4935,0 -0.9754,-0.05 -1.4408,-0.1457 -0.4654,-0.095 -0.9143,-0.2364 -1.3419,-0.4178 -0.4277,-0.1814 -0.8341,-0.4034 -1.2144,-0.6611 -0.3803,-0.2578 -0.7346,-0.5512 -1.0581,-0.8756 -0.3234,-0.3245 -0.616,-0.6798 -0.8729,-1.0613 -0.257,-0.3815 -0.4783,-0.7891 -0.6592,-1.2181 -0.1809,-0.4289 -0.3213,-0.8792 -0.4165,-1.346 -0.095,-0.4668 -0.1453,-0.9501 -0.1453,-1.4451 0,-0.4951 0.05,-0.9784 0.1453,-1.4452 0.095,-0.4668 0.2356,-0.9171 0.4165,-1.346 0.1809,-0.429 0.4022,-0.8366 0.6592,-1.2181 0.2569,-0.3815 0.5495,-0.7368 0.8729,-1.0612 0.3235,-0.3244 0.6778,-0.6179 1.0581,-0.8757 0.3803,-0.2577 0.7867,-0.4797 1.2144,-0.6611 0.4276,-0.1814 0.8765,-0.3223 1.3419,-0.4178 0.4654,-0.096 0.9473,-0.1457 1.4408,-0.1457 0.4936,0 0.975401,0.05 1.440801,0.1457 0.4654,0.095 0.9143,0.2364 1.342,0.4178 0.4276,0.1814 0.834,0.4034 1.2144,0.6611 0.3803,0.2578 0.7346,0.5513 1.058,0.8757 0.3234,0.3244 0.616,0.6797 0.873,1.0612 0.2569,0.3815 0.4782,0.7891 0.6591,1.2181 0.1809,0.4289 0.3214,0.8792 0.4166,1.346 0.095,0.4668 0.1452,0.9501 0.1452,1.4452 0,0.495 -0.05,0.9783 -0.1452,1.4451 -0.095,0.4668 -0.2357,0.9171 -0.4166,1.346 -0.1809,0.429 -0.4022,0.8366 -0.6591,1.2181 -0.257,0.3815 -0.5496,0.7368 -0.873,1.0613 -0.3234,0.3244 -0.6777,0.6178 -1.058,0.8756 -0.3804,0.2577 -0.7868,0.4797 -1.2144,0.6611 -0.4277,0.1814 -0.8766,0.3223 -1.342,0.4178 -0.4654,0.096 -0.947201,0.1457 -1.440801,0.1457 z"
       id="path3790-61-7"
       inkscape:connector-curvature="0"
       sodipodi:nodetypes="sssssssssssssssssssssssssssssssss" />
    <path
       style="fill:#803300;fill-opacity:1;stroke:none;stroke-width:0.71630329000000004;stroke-linecap:round;stroke-linejoin:round;stroke-miterlimit:4;stroke-opacity:1"
       d="m 116.92913,963.86363 c -0.4936,0 -0.9754,-0.05 -1.4408,-0.1457 -0.4654,-0.095 -0.9143,-0.2364 -1.342,-0.4178 -0.4276,-0.1814 -0.834,-0.4034 -1.2144,-0.6611 -0.3803,-0.2578 -0.7346,-0.5512 -1.058,-0.8756 -0.3234,-0.3245 -0.616,-0.6798 -0.873,-1.0613 -0.2569,-0.3815 -0.4782,-0.7891 -0.6591,-1.2181 -0.1809,-0.4289 -0.3214,-0.8792 -0.4166,-1.346 -0.095,-0.4668 -0.1452,-0.9501 -0.1452,-1.4451 0,-0.4951 0.05,-0.9784 0.1452,-1.4452 0.095,-0.4668 0.2357,-0.9171 0.4166,-1.346 0.1809,-0.429 0.4022,-0.8366 0.6591,-1.2181 0.257,-0.3815 0.5496,-0.7368 0.873,-1.0612 0.3234,-0.3244 0.6777,-0.6179 1.058,-0.8757 0.3804,-0.2577 0.7868,-0.4797 1.2144,-0.6611 0.4277,-0.1814 0.8766,-0.3223 1.342,-0.4178 0.4654,-0.096 0.9472,-0.1457 1.4408,-0.1457 0.4935,0 0.9754,0.05 1.4408,0.1457 0.4654,0.095 0.9143,0.2364 1.3419,0.4178 0.4277,0.1814 0.8341,0.4034 1.2144,0.6611 0.3804,0.2578 0.7346,0.5513 1.0581,0.8757 0.3234,0.3244 0.616,0.6797 0.8729,1.0612 0.257,0.3815 0.4783,0.7891 0.6592,1.2181 0.1809,0.4289 0.3213,0.8792 0.4165,1.346 0.095,0.4668 0.1453,0.9501 0.1453,1.4452 0,0.495 -0.05,0.9783 -0.1453,1.4451 -0.095,0.4668 -0.2356,0.9171 -0.4165,1.346 -0.1809,0.429 -0.4022,0.8366 -0.6592,1.2181 -0.2569,0.3815 -0.5495,0.7368 -0.8729,1.0613 -0.3235,0.3244 -0.6777,0.6178 -1.0581,0.8756 -0.3803,0.2577 -0.7867,0.4797 -1.2144,0.6611 -0.4276,0.1814 -0.8765,0.3223 -1.3419,0.4178 -0.4654,0.096 -0.9473,0.1457 -1.4408,0.1457 z"
       id="path3790-2-9"
       inkscape:connector-curvature="0"
       sodipodi:nodetypes="sssssssssssssssssssssssssssssssss" />
    <path
       style="fill:#803300;fill-opacity:1;stroke:none;stroke-width:0.71630329000000004;stroke-linecap:round;stroke-linejoin:round;stroke-miterlimit:4;stroke-opacity:1"
       d="m 187.79528,928.43058 c -0.4935,0 -0.9754,-0.0502 -1.4408,-0.14569 -0.4654,-0.0955 -0.9143,-0.2364 -1.3419,-0.41783 -0.4277,-0.18143 -0.8341,-0.40341 -1.2144,-0.66114 -0.3803,-0.25773 -0.7346,-0.5512 -1.0581,-0.87561 -0.3234,-0.32442 -0.616,-0.67977 -0.8729,-1.06126 -0.257,-0.38149 -0.4783,-0.78911 -0.6592,-1.21806 -0.1809,-0.42895 -0.3213,-0.87922 -0.4165,-1.34602 -0.095,-0.4668 -0.1453,-0.95012 -0.1453,-1.44516 0,-0.49504 0.05,-0.97836 0.1453,-1.44516 0.095,-0.4668 0.2356,-0.91708 0.4165,-1.34603 0.1809,-0.42895 0.4022,-0.83657 0.6592,-1.21806 0.2569,-0.38149 0.5495,-0.73684 0.8729,-1.06125 0.3235,-0.32442 0.6778,-0.61789 1.0581,-0.87562 0.3803,-0.25772 0.7867,-0.47971 1.2144,-0.66114 0.4276,-0.18143 0.8765,-0.32231 1.3419,-0.41783 0.4654,-0.0955 0.9473,-0.14568 1.4408,-0.14568 0.4936,0 0.9754,0.0502 1.4408,0.14568 0.4654,0.0955 0.9143,0.2364 1.342,0.41783 0.4276,0.18143 0.834,0.40342 1.2144,0.66114 0.3803,0.25773 0.7346,0.5512 1.058,0.87562 0.3234,0.32441 0.616,0.67976 0.873,1.06125 0.2569,0.38149 0.4782,0.78911 0.6591,1.21806 0.1809,0.42895 0.3214,0.87923 0.4166,1.34603 0.095,0.4668 0.1452,0.95012 0.1452,1.44516 0,0.49504 -0.05,0.97836 -0.1452,1.44516 -0.095,0.4668 -0.2357,0.91707 -0.4166,1.34602 -0.1809,0.42895 -0.4022,0.83657 -0.6591,1.21806 -0.257,0.38149 -0.5496,0.73684 -0.873,1.06126 -0.3234,0.32441 -0.6777,0.61788 -1.058,0.87561 -0.3804,0.25773 -0.7868,0.47971 -1.2144,0.66114 -0.4277,0.18143 -0.8766,0.32231 -1.342,0.41783 -0.4654,0.0955 -0.9472,0.14569 -1.4408,0.14569 z"
       id="path3790-61-8"
       inkscape:connector-curvature="0"
       sodipodi:nodetypes="sssssssssssssssssssssssssssssssss" />
    <path
       style="fill:#803300;fill-opacity:1;stroke:none;stroke-width:0.71630329000000004;stroke-linecap:round;stroke-linejoin:round;stroke-miterlimit:4;stroke-opacity:1"
       d="m 187.79528,963.86369 c -0.4935,0 -0.9754,-0.05 -1.4408,-0.1457 -0.4654,-0.096 -0.9143,-0.2364 -1.3419,-0.4179 -0.4277,-0.1814 -0.8341,-0.4034 -1.2144,-0.6611 -0.3803,-0.2577 -0.7346,-0.5512 -1.0581,-0.8756 -0.3234,-0.3244 -0.616,-0.6798 -0.8729,-1.0613 -0.257,-0.3815 -0.4783,-0.7891 -0.6592,-1.218 -0.1809,-0.429 -0.3213,-0.8792 -0.4165,-1.346 -0.095,-0.4668 -0.1453,-0.9502 -0.1453,-1.4452 0,-0.495 0.05,-0.9784 0.1453,-1.4452 0.095,-0.4668 0.2356,-0.917 0.4165,-1.346 0.1809,-0.4289 0.4022,-0.8366 0.6592,-1.2181 0.2569,-0.3814 0.5495,-0.7368 0.8729,-1.0612 0.3235,-0.3244 0.6778,-0.6179 1.0581,-0.8756 0.3803,-0.2578 0.7867,-0.4797 1.2144,-0.6612 0.4276,-0.1814 0.8765,-0.3223 1.3419,-0.4178 0.4654,-0.096 0.9473,-0.1457 1.4408,-0.1457 0.4936,0 0.9754,0.05 1.4408,0.1457 0.4654,0.096 0.9143,0.2364 1.342,0.4178 0.4276,0.1815 0.834,0.4034 1.2144,0.6612 0.3803,0.2577 0.7346,0.5512 1.058,0.8756 0.3234,0.3244 0.616,0.6798 0.873,1.0612 0.2569,0.3815 0.4782,0.7892 0.6591,1.2181 0.1809,0.429 0.3214,0.8792 0.4166,1.346 0.095,0.4668 0.1452,0.9502 0.1452,1.4452 0,0.495 -0.05,0.9784 -0.1452,1.4452 -0.095,0.4668 -0.2357,0.917 -0.4166,1.346 -0.1809,0.4289 -0.4022,0.8365 -0.6591,1.218 -0.257,0.3815 -0.5496,0.7369 -0.873,1.0613 -0.3234,0.3244 -0.6777,0.6179 -1.058,0.8756 -0.3804,0.2577 -0.7868,0.4797 -1.2144,0.6611 -0.4277,0.1815 -0.8766,0.3224 -1.342,0.4179 -0.4654,0.096 -0.9472,0.1457 -1.4408,0.1457 z"
       id="path3790-61-1-5"
       inkscape:connector-curvature="0"
       sodipodi:nodetypes="sssssssssssssssssssssssssssssssss" />
    <path
       style="fill:#803300;fill-opacity:1;stroke:none;stroke-width:0.71630329000000004;stroke-linecap:round;stroke-linejoin:round;stroke-miterlimit:4;stroke-opacity:1"
       d="m 152.49768,963.72143 c -0.4936,0 -0.9755,-0.05 -1.4408,-0.1457 -0.4654,-0.095 -0.9144,-0.2364 -1.342,-0.4178 -0.4277,-0.1814 -0.834,-0.4034 -1.2144,-0.6611 -0.3803,-0.2578 -0.7346,-0.5512 -1.058,-0.8756 -0.3235,-0.3245 -0.6161,-0.6798 -0.873,-1.0613 -0.257,-0.3815 -0.4783,-0.7891 -0.6591,-1.218 -0.1809,-0.429 -0.3214,-0.8793 -0.4166,-1.3461 -0.095,-0.4668 -0.1453,-0.9501 -0.1453,-1.4451 0,-0.4951 0.05,-0.9784 0.1453,-1.4452 0.095,-0.4668 0.2357,-0.9171 0.4166,-1.346 0.1808,-0.429 0.4021,-0.8366 0.6591,-1.2181 0.2569,-0.3815 0.5495,-0.7368 0.873,-1.0612 0.3234,-0.3244 0.6777,-0.6179 1.058,-0.8757 0.3804,-0.2577 0.7867,-0.4797 1.2144,-0.6611 0.4276,-0.1814 0.8766,-0.3223 1.342,-0.4178 0.4653,-0.095 0.9472,-0.1457 1.4408,-0.1457 0.4935,0 0.9754,0.05 1.4407,0.1457 0.4654,0.095 0.9144,0.2364 1.342,0.4178 0.4277,0.1814 0.8341,0.4034 1.2144,0.6611 0.3803,0.2578 0.7346,0.5513 1.058,0.8757 0.3235,0.3244 0.6161,0.6797 0.873,1.0612 0.257,0.3815 0.4783,0.7891 0.6592,1.2181 0.1808,0.4289 0.3213,0.8792 0.4165,1.346 0.095,0.4668 0.1453,0.9501 0.1453,1.4452 0,0.495 -0.05,0.9783 -0.1453,1.4451 -0.095,0.4668 -0.2357,0.9171 -0.4165,1.3461 -0.1809,0.4289 -0.4022,0.8365 -0.6592,1.218 -0.2569,0.3815 -0.5495,0.7368 -0.873,1.0613 -0.3234,0.3244 -0.6777,0.6178 -1.058,0.8756 -0.3803,0.2577 -0.7867,0.4797 -1.2144,0.6611 -0.4276,0.1814 -0.8766,0.3223 -1.342,0.4178 -0.4653,0.096 -0.9472,0.1457 -1.4407,0.1457 z"
       id="path3790-5-2-1"
       inkscape:connector-curvature="0"
       sodipodi:nodetypes="sssssssssssssssssssssssssssssssss" />
  </g>
</svg>
