<?xml version="1.0" encoding="UTF-8" standalone="no"?>
<!-- Created with Inkscape (http://www.inkscape.org/) -->

<svg
   xmlns:dc="http://purl.org/dc/elements/1.1/"
   xmlns:cc="http://creativecommons.org/ns#"
   xmlns:rdf="http://www.w3.org/1999/02/22-rdf-syntax-ns#"
   xmlns:svg="http://www.w3.org/2000/svg"
   xmlns="http://www.w3.org/2000/svg"
   xmlns:sodipodi="http://sodipodi.sourceforge.net/DTD/sodipodi-0.dtd"
   xmlns:inkscape="http://www.inkscape.org/namespaces/inkscape"
   width="1052.3622"
   height="744.09448"
   id="svg2"
   version="1.1"
   inkscape:version="0.48.4 r9939"
   sodipodi:docname="wheel_suspension.svg">
  <defs
     id="defs4" />
  <sodipodi:namedview
     id="base"
     pagecolor="#ffffff"
     bordercolor="#666666"
     borderopacity="1.0"
     inkscape:pageopacity="0.0"
     inkscape:pageshadow="2"
     inkscape:zoom="6.3356768"
     inkscape:cx="32.618814"
     inkscape:cy="-13.837662"
     inkscape:document-units="mm"
     inkscape:current-layer="layer1"
     showgrid="true"
     inkscape:window-width="1366"
     inkscape:window-height="705"
     inkscape:window-x="-8"
     inkscape:window-y="-8"
     inkscape:window-maximized="1"
     units="mm"
     showguides="true"
     inkscape:guide-bbox="true"
     inkscape:snap-bbox="true"
     inkscape:bbox-paths="true"
     inkscape:bbox-nodes="true"
     inkscape:snap-bbox-edge-midpoints="true"
     inkscape:snap-bbox-midpoints="true">
    <inkscape:grid
       type="xygrid"
       id="grid3231"
       empspacing="5"
       visible="true"
       enabled="true"
       snapvisiblegridlinesonly="true"
       units="mm"
       spacingx="0.5mm"
       spacingy="0.5mm"
       color="#ef00ff"
       opacity="0.1254902"
       empcolor="#c60020"
       empopacity="0.25098039" />
    <sodipodi:guide
       orientation="1,0"
       position="0,637.79528"
       id="guide4179" />
    <sodipodi:guide
       orientation="0,1"
       position="76.181102,0"
       id="guide3784" />
    <sodipodi:guide
       orientation="0,1"
       position="63.779528,-14.173228"
       id="guide3786" />
    <sodipodi:guide
       orientation="0,1"
       position="63.779528,14.173228"
       id="guide3788" />
    <sodipodi:guide
       orientation="1,0"
       position="-17.716535,-8.8582677"
       id="guide3790" />
    <sodipodi:guide
       orientation="1,0"
       position="17.716535,5.3149606"
       id="guide3792" />
    <sodipodi:guide
       orientation="1,0"
       position="106.29921,-26.574803"
       id="guide3794" />
    <sodipodi:guide
       orientation="1,0"
       position="-106.29921,-8.8582677"
       id="guide3796" />
    <sodipodi:guide
       orientation="1,0"
       position="-92.125984,14.173228"
       id="guide3798" />
    <sodipodi:guide
       orientation="1,0"
       position="92.125984,-7.0866142"
       id="guide3800" />
    <sodipodi:guide
       orientation="1,0"
       position="77.952756,-7.0866142"
       id="guide3802" />
    <sodipodi:guide
       orientation="1,0"
       position="63.779528,-10.629921"
       id="guide3806" />
    <sodipodi:guide
       orientation="1,0"
       position="49.606299,-12.401575"
       id="guide3808" />
    <sodipodi:guide
       orientation="1,0"
       position="35.433071,-12.401575"
       id="guide3830" />
    <sodipodi:guide
       orientation="1,0"
       position="-77.952756,-14.173228"
       id="guide3839" />
    <sodipodi:guide
       orientation="1,0"
       position="-63.779528,-14.173228"
       id="guide3841" />
    <sodipodi:guide
       orientation="1,0"
       position="-49.606299,7.0866142"
       id="guide3843" />
    <sodipodi:guide
       orientation="1,0"
       position="-35.433071,1.7716535"
       id="guide3845" />
  </sodipodi:namedview>
  <metadata
     id="metadata7">
    <rdf:RDF>
      <cc:Work
         rdf:about="">
        <dc:format>image/svg+xml</dc:format>
        <dc:type
           rdf:resource="http://purl.org/dc/dcmitype/StillImage" />
        <dc:title></dc:title>
      </cc:Work>
    </rdf:RDF>
  </metadata>
  <g
     inkscape:label="Layer 1"
     inkscape:groupmode="layer"
     id="layer1"
     transform="translate(0,-308.26769)">
    <path
       style="fill:#ff8080;stroke:none"
       d="m 100.98425,1066.5354 -201.9685,0 -2.26465,-0.6424 -1.57336,-1.1494 -0.98309,-1.5822 -0.49386,-1.941 0,-17.7165 0.38636,-2.3506 1.33803,-1.6909 1.80457,-0.9989 1.786,-0.2745 201.9685,0 2.49768,0.2828 1.65715,1.0349 0.90847,1.7048 0.25166,2.2924 0,17.7165 -0.35967,2.4914 -1.12441,1.5742 -1.71112,0.8702 z"
       id="path4187"
       inkscape:connector-curvature="0"
       sodipodi:nodetypes="ccccccccccccccccccccc" />
    <path
       sodipodi:type="arc"
       style="fill:#00ffff;fill-opacity:1;stroke:#502d16;stroke-width:0;stroke-linecap:round;stroke-linejoin:round;stroke-miterlimit:4;stroke-opacity:1;stroke-dasharray:none"
       id="path4289-4"
       sodipodi:cx="194.8819"
       sodipodi:cy="141.73228"
       sodipodi:rx="17.716536"
       sodipodi:ry="17.716536"
       d="m 212.59843,141.73228 a 17.716536,17.716536 0 1 1 -35.43307,0 17.716536,17.716536 0 1 1 35.43307,0 z"
       transform="matrix(0.1,0,0,0.1,44.291338,1038.1889)" />
    <path
       sodipodi:type="arc"
       style="fill:#00ffff;fill-opacity:1;stroke:#502d16;stroke-width:0;stroke-linecap:round;stroke-linejoin:round;stroke-miterlimit:4;stroke-opacity:1;stroke-dasharray:none"
       id="path4289-4-0"
       sodipodi:cx="194.8819"
       sodipodi:cy="141.73228"
       sodipodi:rx="17.716536"
       sodipodi:ry="17.716536"
       d="m 212.59843,141.73228 a 17.716536,17.716536 0 1 1 -35.43307,0 17.716536,17.716536 0 1 1 35.43307,0 z"
       transform="matrix(0.1,0,0,0.1,58.464566,1038.1889)" />
    <path
       sodipodi:type="arc"
       style="fill:#00ffff;fill-opacity:1;stroke:#502d16;stroke-width:0;stroke-linecap:round;stroke-linejoin:round;stroke-miterlimit:4;stroke-opacity:1;stroke-dasharray:none"
       id="path4289-4-9"
       sodipodi:cx="194.8819"
       sodipodi:cy="141.73228"
       sodipodi:rx="17.716536"
       sodipodi:ry="17.716536"
       d="m 212.59843,141.73228 a 17.716536,17.716536 0 1 1 -35.43307,0 17.716536,17.716536 0 1 1 35.43307,0 z"
       transform="matrix(0.1,0,0,0.1,72.637795,1038.1889)" />
    <path
       sodipodi:type="arc"
       style="fill:#00ffff;fill-opacity:1;stroke:#502d16;stroke-width:0;stroke-linecap:round;stroke-linejoin:round;stroke-miterlimit:4;stroke-opacity:1;stroke-dasharray:none"
       id="path4289-4-4"
       sodipodi:cx="194.8819"
       sodipodi:cy="141.73228"
       sodipodi:rx="17.716536"
       sodipodi:ry="17.716536"
       d="m 212.59843,141.73228 a 17.716536,17.716536 0 1 1 -35.43307,0 17.716536,17.716536 0 1 1 35.43307,0 z"
       transform="matrix(0.1,0,0,0.1,-111.61417,1038.1889)" />
    <path
       sodipodi:type="arc"
       style="fill:#00ffff;fill-opacity:1;stroke:#502d16;stroke-width:0;stroke-linecap:round;stroke-linejoin:round;stroke-miterlimit:4;stroke-opacity:1;stroke-dasharray:none"
       id="path4289-4-8"
       sodipodi:cx="194.8819"
       sodipodi:cy="141.73228"
       sodipodi:rx="17.716536"
       sodipodi:ry="17.716536"
       d="m 212.59843,141.73228 a 17.716536,17.716536 0 1 1 -35.43307,0 17.716536,17.716536 0 1 1 35.43307,0 z"
       transform="matrix(0.1,0,0,0.1,-97.440946,1038.1889)" />
    <path
       sodipodi:type="arc"
       style="fill:#00ffff;fill-opacity:1;stroke:#502d16;stroke-width:0;stroke-linecap:round;stroke-linejoin:round;stroke-miterlimit:4;stroke-opacity:1;stroke-dasharray:none"
       id="path4289-4-82"
       sodipodi:cx="194.8819"
       sodipodi:cy="141.73228"
       sodipodi:rx="17.716536"
       sodipodi:ry="17.716536"
       d="m 212.59843,141.73228 a 17.716536,17.716536 0 1 1 -35.43307,0 17.716536,17.716536 0 1 1 35.43307,0 z"
       transform="matrix(0.1,0,0,0.1,-83.267718,1038.1889)" />
    <path
       sodipodi:type="arc"
       style="fill:#a02c2c;fill-opacity:1;stroke:none"
       id="path3790-5-4"
       sodipodi:cx="19.48819"
       sodipodi:cy="574.01575"
       sodipodi:rx="13.293624"
       sodipodi:ry="15.097951"
       d="m 32.781814,574.01575 a 13.293624,15.097951 0 1 1 -26.5872482,0 13.293624,15.097951 0 1 1 26.5872482,0 z"
       transform="matrix(0.53941412,0,0,0.4735153,-10.512205,780.55693)" />
    <path
       sodipodi:type="arc"
       style="fill:#00ffff;fill-opacity:1;stroke:#502d16;stroke-width:0;stroke-linecap:round;stroke-linejoin:round;stroke-miterlimit:4;stroke-opacity:1;stroke-dasharray:none"
       id="path4289-4-1"
       sodipodi:cx="194.8819"
       sodipodi:cy="141.73228"
       sodipodi:rx="17.716536"
       sodipodi:ry="17.716536"
       d="m 212.59843,141.73228 a 17.716536,17.716536 0 1 1 -35.43307,0 17.716536,17.716536 0 1 1 35.43307,0 z"
       transform="matrix(0.1,0,0,0.1,30.11811,1038.1889)" />
    <path
       sodipodi:type="arc"
       style="fill:#00ffff;fill-opacity:1;stroke:#502d16;stroke-width:0;stroke-linecap:round;stroke-linejoin:round;stroke-miterlimit:4;stroke-opacity:1;stroke-dasharray:none"
       id="path4289-4-7"
       sodipodi:cx="194.8819"
       sodipodi:cy="141.73228"
       sodipodi:rx="17.716536"
       sodipodi:ry="17.716536"
       d="m 212.59843,141.73228 a 17.716536,17.716536 0 1 1 -35.43307,0 17.716536,17.716536 0 1 1 35.43307,0 z"
       transform="matrix(0.1,0,0,0.1,15.944881,1038.1889)" />
    <path
       sodipodi:type="arc"
       style="fill:#00ffff;fill-opacity:1;stroke:#502d16;stroke-width:0;stroke-linecap:round;stroke-linejoin:round;stroke-miterlimit:4;stroke-opacity:1;stroke-dasharray:none"
       id="path4289-4-82-4"
       sodipodi:cx="194.8819"
       sodipodi:cy="141.73228"
       sodipodi:rx="17.716536"
       sodipodi:ry="17.716536"
       d="m 212.59843,141.73228 a 17.716536,17.716536 0 1 1 -35.43307,0 17.716536,17.716536 0 1 1 35.43307,0 z"
       transform="matrix(0.1,0,0,0.1,-69.09449,1038.1889)" />
    <path
       sodipodi:type="arc"
       style="fill:#00ffff;fill-opacity:1;stroke:#502d16;stroke-width:0;stroke-linecap:round;stroke-linejoin:round;stroke-miterlimit:4;stroke-opacity:1;stroke-dasharray:none"
       id="path4289-4-82-0"
       sodipodi:cx="194.8819"
       sodipodi:cy="141.73228"
       sodipodi:rx="17.716536"
       sodipodi:ry="17.716536"
       d="m 212.59843,141.73228 a 17.716536,17.716536 0 1 1 -35.43307,0 17.716536,17.716536 0 1 1 35.43307,0 z"
       transform="matrix(0.1,0,0,0.1,-54.921261,1038.1889)" />
  </g>
</svg>
