<?xml version="1.0" encoding="UTF-8" standalone="no"?>
<!-- Created with Inkscape (http://www.inkscape.org/) -->

<svg
   xmlns:dc="http://purl.org/dc/elements/1.1/"
   xmlns:cc="http://creativecommons.org/ns#"
   xmlns:rdf="http://www.w3.org/1999/02/22-rdf-syntax-ns#"
   xmlns:svg="http://www.w3.org/2000/svg"
   xmlns="http://www.w3.org/2000/svg"
   xmlns:sodipodi="http://sodipodi.sourceforge.net/DTD/sodipodi-0.dtd"
   xmlns:inkscape="http://www.inkscape.org/namespaces/inkscape"
   width="1052.3622"
   height="744.09448"
   id="svg2"
   version="1.1"
   inkscape:version="0.48.4 r9939"
   sodipodi:docname="wheel_suspension.svg">
  <defs
     id="defs4" />
  <sodipodi:namedview
     id="base"
     pagecolor="#ffffff"
     bordercolor="#666666"
     borderopacity="1.0"
     inkscape:pageopacity="0.0"
     inkscape:pageshadow="2"
     inkscape:zoom="3.1678384"
     inkscape:cx="13.96612"
     inkscape:cy="6.2530207"
     inkscape:document-units="mm"
     inkscape:current-layer="layer1"
     showgrid="true"
     inkscape:window-width="1366"
     inkscape:window-height="705"
     inkscape:window-x="-8"
     inkscape:window-y="-8"
     inkscape:window-maximized="1"
     units="mm"
     showguides="true"
     inkscape:guide-bbox="true"
     inkscape:snap-bbox="true"
     inkscape:bbox-paths="true"
     inkscape:bbox-nodes="true"
     inkscape:snap-bbox-edge-midpoints="true"
     inkscape:snap-bbox-midpoints="true">
    <inkscape:grid
       type="xygrid"
       id="grid3231"
       empspacing="5"
       visible="true"
       enabled="true"
       snapvisiblegridlinesonly="true"
       units="mm"
       spacingx="0.5mm"
       spacingy="0.5mm"
       color="#ef00ff"
       opacity="0.1254902"
       empcolor="#c60020"
       empopacity="0.25098039" />
    <sodipodi:guide
       orientation="1,0"
       position="0,637.79528"
       id="guide4179" />
    <sodipodi:guide
       orientation="0,1"
       position="76.181102,0"
       id="guide3784" />
    <sodipodi:guide
       orientation="0,1"
       position="63.779528,-14.173228"
       id="guide3786" />
    <sodipodi:guide
       orientation="0,1"
       position="63.779528,14.173228"
       id="guide3788" />
    <sodipodi:guide
       orientation="1,0"
       position="-17.716535,-8.8582677"
       id="guide3790" />
    <sodipodi:guide
       orientation="1,0"
       position="17.716535,5.3149606"
       id="guide3792" />
    <sodipodi:guide
       orientation="1,0"
       position="106.29921,-26.574803"
       id="guide3794" />
    <sodipodi:guide
       orientation="1,0"
       position="-106.29921,-8.8582677"
       id="guide3796" />
    <sodipodi:guide
       orientation="1,0"
       position="-92.125984,14.173228"
       id="guide3798" />
    <sodipodi:guide
       orientation="1,0"
       position="92.125984,-7.0866142"
       id="guide3800" />
    <sodipodi:guide
       orientation="1,0"
       position="77.952756,-7.0866142"
       id="guide3802" />
    <sodipodi:guide
       orientation="1,0"
       position="63.779528,-10.629921"
       id="guide3806" />
    <sodipodi:guide
       orientation="1,0"
       position="49.606299,-12.401575"
       id="guide3808" />
    <sodipodi:guide
       orientation="1,0"
       position="35.433071,-12.401575"
       id="guide3830" />
    <sodipodi:guide
       orientation="1,0"
       position="-77.952756,-14.173228"
       id="guide3839" />
    <sodipodi:guide
       orientation="1,0"
       position="-63.779528,-14.173228"
       id="guide3841" />
    <sodipodi:guide
       orientation="1,0"
       position="-49.606299,7.0866142"
       id="guide3843" />
    <sodipodi:guide
       orientation="1,0"
       position="-35.433071,1.7716535"
       id="guide3845" />
  </sodipodi:namedview>
  <metadata
     id="metadata7">
    <rdf:RDF>
      <cc:Work
         rdf:about="">
        <dc:format>image/svg+xml</dc:format>
        <dc:type
           rdf:resource="http://purl.org/dc/dcmitype/StillImage" />
        <dc:title />
      </cc:Work>
    </rdf:RDF>
  </metadata>
  <g
     inkscape:label="Layer 1"
     inkscape:groupmode="layer"
     id="layer1"
     transform="translate(0,-308.26769)">
    <path
       style="fill:#ff8080;stroke:none"
       d="m 100.98425,1066.5354 -201.9685,0 c -3.54331,0 -5.31496,-1.7717 -5.31496,-5.315 l 0,-17.7165 c 0,-3.5433 1.77165,-5.315 5.31496,-5.3149 l 201.9685,0 c 3.54331,-10e-5 5.31496,1.7716 5.31496,5.3149 l 0,17.7165 c 0,3.5433 -1.77165,5.315 -5.31496,5.315 z"
       id="path4187"
       inkscape:connector-curvature="0"
       sodipodi:nodetypes="ccccccccc" />
    <path
       sodipodi:type="arc"
       style="fill:#00ffff;fill-opacity:1;stroke:#502d16;stroke-width:0;stroke-linecap:round;stroke-linejoin:round;stroke-miterlimit:4;stroke-opacity:1;stroke-dasharray:none"
       id="path4289-4"
       sodipodi:cx="194.8819"
       sodipodi:cy="141.73228"
       sodipodi:rx="17.716536"
       sodipodi:ry="17.716536"
       d="m 212.59843,141.73228 c 0,9.78458 -7.93196,17.71654 -17.71653,17.71654 -9.78458,0 -17.71654,-7.93196 -17.71654,-17.71654 0,-9.78457 7.93196,-17.71653 17.71654,-17.71653 9.78457,0 17.71653,7.93196 17.71653,17.71653 z"
       transform="matrix(0.1,0,0,0.1,44.291338,1038.1889)" />
    <path
       sodipodi:type="arc"
       style="fill:#00ffff;fill-opacity:1;stroke:#502d16;stroke-width:0;stroke-linecap:round;stroke-linejoin:round;stroke-miterlimit:4;stroke-opacity:1;stroke-dasharray:none"
       id="path4289-4-0"
       sodipodi:cx="194.8819"
       sodipodi:cy="141.73228"
       sodipodi:rx="17.716536"
       sodipodi:ry="17.716536"
       d="m 212.59843,141.73228 c 0,9.78458 -7.93196,17.71654 -17.71653,17.71654 -9.78458,0 -17.71654,-7.93196 -17.71654,-17.71654 0,-9.78457 7.93196,-17.71653 17.71654,-17.71653 9.78457,0 17.71653,7.93196 17.71653,17.71653 z"
       transform="matrix(0.1,0,0,0.1,58.464566,1038.1889)" />
    <path
       sodipodi:type="arc"
       style="fill:#00ffff;fill-opacity:1;stroke:#502d16;stroke-width:0;stroke-linecap:round;stroke-linejoin:round;stroke-miterlimit:4;stroke-opacity:1;stroke-dasharray:none"
       id="path4289-4-9"
       sodipodi:cx="194.8819"
       sodipodi:cy="141.73228"
       sodipodi:rx="17.716536"
       sodipodi:ry="17.716536"
       d="m 212.59843,141.73228 c 0,9.78458 -7.93196,17.71654 -17.71653,17.71654 -9.78458,0 -17.71654,-7.93196 -17.71654,-17.71654 0,-9.78457 7.93196,-17.71653 17.71654,-17.71653 9.78457,0 17.71653,7.93196 17.71653,17.71653 z"
       transform="matrix(0.1,0,0,0.1,72.637795,1038.1889)" />
    <path
       sodipodi:type="arc"
       style="fill:#00ffff;fill-opacity:1;stroke:#502d16;stroke-width:0;stroke-linecap:round;stroke-linejoin:round;stroke-miterlimit:4;stroke-opacity:1;stroke-dasharray:none"
       id="path4289-4-4"
       sodipodi:cx="194.8819"
       sodipodi:cy="141.73228"
       sodipodi:rx="17.716536"
       sodipodi:ry="17.716536"
       d="m 212.59843,141.73228 c 0,9.78458 -7.93196,17.71654 -17.71653,17.71654 -9.78458,0 -17.71654,-7.93196 -17.71654,-17.71654 0,-9.78457 7.93196,-17.71653 17.71654,-17.71653 9.78457,0 17.71653,7.93196 17.71653,17.71653 z"
       transform="matrix(0.1,0,0,0.1,-111.61417,1038.1889)" />
    <path
       sodipodi:type="arc"
       style="fill:#00ffff;fill-opacity:1;stroke:#502d16;stroke-width:0;stroke-linecap:round;stroke-linejoin:round;stroke-miterlimit:4;stroke-opacity:1;stroke-dasharray:none"
       id="path4289-4-8"
       sodipodi:cx="194.8819"
       sodipodi:cy="141.73228"
       sodipodi:rx="17.716536"
       sodipodi:ry="17.716536"
       d="m 212.59843,141.73228 c 0,9.78458 -7.93196,17.71654 -17.71653,17.71654 -9.78458,0 -17.71654,-7.93196 -17.71654,-17.71654 0,-9.78457 7.93196,-17.71653 17.71654,-17.71653 9.78457,0 17.71653,7.93196 17.71653,17.71653 z"
       transform="matrix(0.1,0,0,0.1,-97.440946,1038.1889)" />
    <path
       sodipodi:type="arc"
       style="fill:#00ffff;fill-opacity:1;stroke:#502d16;stroke-width:0;stroke-linecap:round;stroke-linejoin:round;stroke-miterlimit:4;stroke-opacity:1;stroke-dasharray:none"
       id="path4289-4-82"
       sodipodi:cx="194.8819"
       sodipodi:cy="141.73228"
       sodipodi:rx="17.716536"
       sodipodi:ry="17.716536"
       d="m 212.59843,141.73228 c 0,9.78458 -7.93196,17.71654 -17.71653,17.71654 -9.78458,0 -17.71654,-7.93196 -17.71654,-17.71654 0,-9.78457 7.93196,-17.71653 17.71654,-17.71653 9.78457,0 17.71653,7.93196 17.71653,17.71653 z"
       transform="matrix(0.1,0,0,0.1,-83.267718,1038.1889)" />
    <path
       sodipodi:type="arc"
       style="fill:#a02c2c;fill-opacity:1;stroke:none"
       id="path3790-5-4"
       sodipodi:cx="19.48819"
       sodipodi:cy="574.01575"
       sodipodi:rx="13.293624"
       sodipodi:ry="15.097951"
       d="m 32.781814,574.01575 c 0,8.33837 -5.951759,15.09795 -13.293624,15.09795 -7.341866,0 -13.2936242,-6.75958 -13.2936242,-15.09795 0,-8.33837 5.9517582,-15.09795 13.2936242,-15.09795 7.341865,0 13.293624,6.75958 13.293624,15.09795 z"
       transform="matrix(0.53941412,0,0,0.4735153,-10.512205,780.55693)" />
    <path
       sodipodi:type="arc"
       style="fill:#00ffff;fill-opacity:1;stroke:#502d16;stroke-width:0;stroke-linecap:round;stroke-linejoin:round;stroke-miterlimit:4;stroke-opacity:1;stroke-dasharray:none"
       id="path4289-4-1"
       sodipodi:cx="194.8819"
       sodipodi:cy="141.73228"
       sodipodi:rx="17.716536"
       sodipodi:ry="17.716536"
       d="m 212.59843,141.73228 c 0,9.78458 -7.93196,17.71654 -17.71653,17.71654 -9.78458,0 -17.71654,-7.93196 -17.71654,-17.71654 0,-9.78457 7.93196,-17.71653 17.71654,-17.71653 9.78457,0 17.71653,7.93196 17.71653,17.71653 z"
       transform="matrix(0.1,0,0,0.1,30.11811,1038.1889)" />
    <path
       sodipodi:type="arc"
       style="fill:#00ffff;fill-opacity:1;stroke:#502d16;stroke-width:0;stroke-linecap:round;stroke-linejoin:round;stroke-miterlimit:4;stroke-opacity:1;stroke-dasharray:none"
       id="path4289-4-7"
       sodipodi:cx="194.8819"
       sodipodi:cy="141.73228"
       sodipodi:rx="17.716536"
       sodipodi:ry="17.716536"
       d="m 212.59843,141.73228 c 0,9.78458 -7.93196,17.71654 -17.71653,17.71654 -9.78458,0 -17.71654,-7.93196 -17.71654,-17.71654 0,-9.78457 7.93196,-17.71653 17.71654,-17.71653 9.78457,0 17.71653,7.93196 17.71653,17.71653 z"
       transform="matrix(0.1,0,0,0.1,15.944881,1038.1889)" />
    <path
       sodipodi:type="arc"
       style="fill:#00ffff;fill-opacity:1;stroke:#502d16;stroke-width:0;stroke-linecap:round;stroke-linejoin:round;stroke-miterlimit:4;stroke-opacity:1;stroke-dasharray:none"
       id="path4289-4-82-4"
       sodipodi:cx="194.8819"
       sodipodi:cy="141.73228"
       sodipodi:rx="17.716536"
       sodipodi:ry="17.716536"
       d="m 212.59843,141.73228 c 0,9.78458 -7.93196,17.71654 -17.71653,17.71654 -9.78458,0 -17.71654,-7.93196 -17.71654,-17.71654 0,-9.78457 7.93196,-17.71653 17.71654,-17.71653 9.78457,0 17.71653,7.93196 17.71653,17.71653 z"
       transform="matrix(0.1,0,0,0.1,-69.09449,1038.1889)" />
    <path
       sodipodi:type="arc"
       style="fill:#00ffff;fill-opacity:1;stroke:#502d16;stroke-width:0;stroke-linecap:round;stroke-linejoin:round;stroke-miterlimit:4;stroke-opacity:1;stroke-dasharray:none"
       id="path4289-4-82-0"
       sodipodi:cx="194.8819"
       sodipodi:cy="141.73228"
       sodipodi:rx="17.716536"
       sodipodi:ry="17.716536"
       d="m 212.59843,141.73228 c 0,9.78458 -7.93196,17.71654 -17.71653,17.71654 -9.78458,0 -17.71654,-7.93196 -17.71654,-17.71654 0,-9.78457 7.93196,-17.71653 17.71654,-17.71653 9.78457,0 17.71653,7.93196 17.71653,17.71653 z"
       transform="matrix(0.1,0,0,0.1,-54.921261,1038.1889)" />
  </g>
</svg>
