  0
SECTION
  2
HEADER
  9
$ACADVER
  1
AC1014
  9
$HANDSEED
  5
FFFF
  9
$MEASUREMENT
 70
     1
  0
ENDSEC
  0
SECTION
  2
TABLES
  0
TABLE
  2
VPORT
  5
8
330
0
100
AcDbSymbolTable
 70
     4
  0
VPORT
  5
2E
330
8
100
AcDbSymbolTableRecord
100
AcDbViewportTableRecord
  2
*ACTIVE
 70
     0
 10
0.0
 20
0.0
 11
1.0
 21
1.0
 12
210.0
 22
148.5
 13
0.0
 23
0.0
 14
10.0
 24
10.0
 15
10.0
 25
10.0
 16
0.0
 26
0.0
 36
1.0
 17
0.0
 27
0.0
 37
0.0
 40
341.0
 41
1.24
 42
50.0
 43
0.0
 44
0.0
 50
0.0
 51
0.0
 71
     0
 72
   100
 73
     1
 74
     3
 75
     0
 76
     0
 77
     0
 78
     0
  0
ENDTAB
  0
TABLE
  2
LTYPE
  5
5
330
0
100
AcDbSymbolTable
 70
     1
  0
LTYPE
  5
14
330
5
100
AcDbSymbolTableRecord
100
AcDbLinetypeTableRecord
  2
BYBLOCK
 70
     0
  3

 72
    65
 73
     0
 40
0.0
  0
LTYPE
  5
15
330
5
100
AcDbSymbolTableRecord
100
AcDbLinetypeTableRecord
  2
BYLAYER
 70
     0
  3

 72
    65
 73
     0
 40
0.0
  0
LTYPE
  5
16
330
5
100
AcDbSymbolTableRecord
100
AcDbLinetypeTableRecord
  2
CONTINUOUS
 70
     0
  3
Solid line
 72
    65
 73
     0
 40
0.0
  0
ENDTAB
  0
TABLE
  2
LAYER
  5
2
100
AcDbSymbolTable
 70
2
  0
LAYER
  5
50
100
AcDbSymbolTableRecord
100
AcDbLayerTableRecord
  2
0
 70
0
  6
CONTINUOUS
  0
LAYER
  5
51
100
AcDbSymbolTableRecord
100
AcDbLayerTableRecord
  2
Layer_1
 70
0
  6
CONTINUOUS
  0
ENDTAB
  0
TABLE
  2
STYLE
  5
3
330
0
100
AcDbSymbolTable
 70
     1
  0
STYLE
  5
11
330
3
100
AcDbSymbolTableRecord
100
AcDbTextStyleTableRecord
  2
STANDARD
 70
     0
 40
0.0
 41
1.0
 50
0.0
 71
     0
 42
2.5
  3
txt
  4

  0
ENDTAB
  0
TABLE
  2
VIEW
  5
6
330
0
100
AcDbSymbolTable
 70
     0
  0
ENDTAB
  0
TABLE
  2
UCS
  5
7
330
0
100
AcDbSymbolTable
 70
     0
  0
ENDTAB
  0
TABLE
  2
APPID
  5
9
330
0
100
AcDbSymbolTable
 70
     2
  0
APPID
  5
12
330
9
100
AcDbSymbolTableRecord
100
AcDbRegAppTableRecord
  2
ACAD
 70
     0
  0
ENDTAB
  0
TABLE
  2
DIMSTYLE
  5
A
330
0
100
AcDbSymbolTable
 70
     1
  0
DIMSTYLE
105
27
330
A
100
AcDbSymbolTableRecord
100
AcDbDimStyleTableRecord
  2
ISO-25
 70
     0
  3

  4

  5

  6

  7

 40
1.0
 41
2.5
 42
0.625
 43
3.75
 44
1.25
 45
0.0
 46
0.0
 47
0.0
 48
0.0
140
2.5
141
2.5
142
0.0
143
0.03937007874016
144
1.0
145
0.0
146
1.0
147
0.625
 71
     0
 72
     0
 73
     0
 74
     0
 75
     0
 76
     0
 77
     1
 78
     8
170
     0
171
     3
172
     1
173
     0
174
     0
175
     0
176
     0
177
     0
178
     0
270
     2
271
     2
272
     2
273
     2
274
     3
340
11
275
     0
280
     0
281
     0
282
     0
283
     0
284
     8
285
     0
286
     0
287
     3
288
     0
  0
ENDTAB
  0
TABLE
  2
BLOCK_RECORD
  5
1
330
0
100
AcDbSymbolTable
 70
     1
  0
BLOCK_RECORD
  5
1F
330
1
100
AcDbSymbolTableRecord
100
AcDbBlockTableRecord
  2
*MODEL_SPACE
  0
BLOCK_RECORD
  5
1B
330
1
100
AcDbSymbolTableRecord
100
AcDbBlockTableRecord
  2
*PAPER_SPACE
  0
ENDTAB
  0
ENDSEC
  0
SECTION
  2
BLOCKS
  0
BLOCK
  5
20
330
1F
100
AcDbEntity
  8
0
100
AcDbBlockBegin
  2
*MODEL_SPACE
 70
     0
 10
0.0
 20
0.0
 30
0.0
  3
*MODEL_SPACE
  1

  0
ENDBLK
  5
21
330
1F
100
AcDbEntity
  8
0
100
AcDbBlockEnd
  0
BLOCK
  5
1C
330
1B
100
AcDbEntity
 67
     1
  8
0
100
AcDbBlockBegin
  2
*PAPER_SPACE
  1

  0
ENDBLK
  5
1D
330
1B
100
AcDbEntity
 67
     1
  8
0
100
AcDbBlockEnd
  0
ENDSEC
  0
SECTION
  2
ENTITIES
  0
SPLINE
  5
100
100
AcDbEntity
  8
Layer_1
 62
7
100
AcDbSpline
 70
8
 71
3
 72
8
 73
4
 74
0
 40
0
 40
0
 40
0
 40
0
 40
1
 40
1
 40
1
 40
1
 10
15.320476
 20
30.264045
 30
0.0
 10
11.020756
 20
30.257790
 30
0.0
 10
6.921559
 20
28.445011
 30
0.0
 10
4.023871
 20
25.268373
 30
0.0
  0
SPLINE
  5
101
100
AcDbEntity
  8
Layer_1
 62
7
100
AcDbSpline
 70
8
 71
3
 72
8
 73
4
 74
0
 40
0
 40
0
 40
0
 40
0
 40
1
 40
1
 40
1
 40
1
 10
4.023871
 20
25.268373
 30
0.0
 10
4.023871
 20
25.268373
 30
0.0
 10
6.502685
 20
23.938288
 30
0.0
 10
6.502685
 20
23.938288
 30
0.0
  0
SPLINE
  5
102
100
AcDbEntity
  8
Layer_1
 62
7
100
AcDbSpline
 70
8
 71
3
 72
8
 73
4
 74
0
 40
0
 40
0
 40
0
 40
0
 40
1
 40
1
 40
1
 40
1
 10
6.502685
 20
23.938288
 30
0.0
 10
8.414447
 20
25.806685
 30
0.0
 10
10.870925
 20
27.018609
 30
0.0
 10
13.516901
 20
27.398812
 30
0.0
  0
LINE
  5
103
100
AcDbEntity
  8
Layer_1
 62
7
100
AcDbLine
 10
13.516901
 20
27.398812
 30
0.0
 11
13.314053
 21
15.988116
 31
0.0
  0
SPLINE
  5
104
100
AcDbEntity
  8
Layer_1
 62
7
100
AcDbSpline
 70
8
 71
3
 72
8
 73
4
 74
0
 40
0
 40
0
 40
0
 40
0
 40
1
 40
1
 40
1
 40
1
 10
13.314053
 20
15.988116
 30
0.0
 10
13.314053
 20
15.988116
 30
0.0
 10
3.657312
 20
10.209729
 30
0.0
 10
3.657312
 20
10.209729
 30
0.0
  0
SPLINE
  5
105
100
AcDbEntity
  8
Layer_1
 62
7
100
AcDbSpline
 70
8
 71
3
 72
8
 73
4
 74
0
 40
0
 40
0
 40
0
 40
0
 40
1
 40
1
 40
1
 40
1
 10
3.657312
 20
10.209729
 30
0.0
 10
3.043241
 20
11.712630
 30
0.0
 10
2.725425
 20
13.320048
 30
0.0
 10
2.721348
 20
14.943555
 30
0.0
  0
SPLINE
  5
106
100
AcDbEntity
  8
Layer_1
 62
7
100
AcDbSpline
 70
8
 71
3
 72
8
 73
4
 74
0
 40
0
 40
0
 40
0
 40
0
 40
1
 40
1
 40
1
 40
1
 10
2.721348
 20
14.943555
 30
0.0
 10
2.726558
 20
15.964903
 30
0.0
 10
2.855941
 20
16.981828
 30
0.0
 10
3.106649
 20
17.971941
 30
0.0
  0
SPLINE
  5
107
100
AcDbEntity
  8
Layer_1
 62
7
100
AcDbSpline
 70
8
 71
3
 72
8
 73
4
 74
0
 40
0
 40
0
 40
0
 40
0
 40
1
 40
1
 40
1
 40
1
 10
3.106649
 20
17.971941
 30
0.0
 10
3.106649
 20
17.971941
 30
0.0
 10
0.701144
 20
19.470146
 30
0.0
 10
0.701144
 20
19.470146
 30
0.0
  0
SPLINE
  5
108
100
AcDbEntity
  8
Layer_1
 62
7
100
AcDbSpline
 70
8
 71
3
 72
8
 73
4
 74
0
 40
0
 40
0
 40
0
 40
0
 40
1
 40
1
 40
1
 40
1
 10
0.701144
 20
19.470146
 30
0.0
 10
0.241915
 20
18.004943
 30
0.0
 10
0.005559
 20
16.479029
 30
0.0
 10
0.000000
 20
14.943555
 30
0.0
  0
SPLINE
  5
109
100
AcDbEntity
  8
Layer_1
 62
7
100
AcDbSpline
 70
8
 71
3
 72
8
 73
4
 74
0
 40
0
 40
0
 40
0
 40
0
 40
1
 40
1
 40
1
 40
1
 10
0.000000
 20
14.943555
 30
0.0
 10
0.006336
 20
12.310262
 30
0.0
 10
0.691296
 20
9.723052
 30
0.0
 10
1.988783
 20
7.431590
 30
0.0
  0
SPLINE
  5
10a
100
AcDbEntity
  8
Layer_1
 62
7
100
AcDbSpline
 70
8
 71
3
 72
8
 73
4
 74
0
 40
0
 40
0
 40
0
 40
0
 40
1
 40
1
 40
1
 40
1
 10
1.988783
 20
7.431590
 30
0.0
 10
2.234019
 20
6.996419
 30
0.0
 10
2.500391
 20
6.573503
 30
0.0
 10
2.786944
 20
6.164356
 30
0.0
  0
SPLINE
  5
10b
100
AcDbEntity
  8
Layer_1
 62
7
100
AcDbSpline
 70
8
 71
3
 72
8
 73
4
 74
0
 40
0
 40
0
 40
0
 40
0
 40
1
 40
1
 40
1
 40
1
 10
2.786944
 20
6.164356
 30
0.0
 10
2.866953
 20
6.049138
 30
0.0
 10
2.948540
 20
5.935025
 30
0.0
 10
3.031682
 20
5.822048
 30
0.0
  0
SPLINE
  5
10c
100
AcDbEntity
  8
Layer_1
 62
7
100
AcDbSpline
 70
8
 71
3
 72
8
 73
4
 74
0
 40
0
 40
0
 40
0
 40
0
 40
1
 40
1
 40
1
 40
1
 10
3.031682
 20
5.822048
 30
0.0
 10
3.031682
 20
5.822048
 30
0.0
 10
3.043253
 20
5.828539
 30
0.0
 10
3.043253
 20
5.828539
 30
0.0
  0
SPLINE
  5
10d
100
AcDbEntity
  8
Layer_1
 62
7
100
AcDbSpline
 70
8
 71
3
 72
8
 73
4
 74
0
 40
0
 40
0
 40
0
 40
0
 40
1
 40
1
 40
1
 40
1
 10
3.043253
 20
5.828539
 30
0.0
 10
5.239218
 20
2.868301
 30
0.0
 10
8.428772
 20
0.798950
 30
0.0
 10
12.026959
 20
0.000001
 30
0.0
  0
SPLINE
  5
10e
100
AcDbEntity
  8
Layer_1
 62
7
100
AcDbSpline
 70
8
 71
3
 72
8
 73
4
 74
0
 40
0
 40
0
 40
0
 40
0
 40
1
 40
1
 40
1
 40
1
 10
12.026959
 20
0.000001
 30
0.0
 10
12.026959
 20
0.000001
 30
0.0
 10
11.939318
 20
2.820022
 30
0.0
 10
11.939318
 20
2.820022
 30
0.0
  0
SPLINE
  5
10f
100
AcDbEntity
  8
Layer_1
 62
7
100
AcDbSpline
 70
8
 71
3
 72
8
 73
4
 74
0
 40
0
 40
0
 40
0
 40
0
 40
1
 40
1
 40
1
 40
1
 10
11.939318
 20
2.820022
 30
0.0
 10
9.368935
 20
3.541069
 30
0.0
 10
7.094017
 20
5.059929
 30
0.0
 10
5.442692
 20
7.157524
 30
0.0
  0
LINE
  5
110
100
AcDbEntity
  8
Layer_1
 62
7
100
AcDbLine
 10
5.442692
 20
7.157524
 30
0.0
 11
15.419138
 21
12.683463
 31
0.0
  0
SPLINE
  5
111
100
AcDbEntity
  8
Layer_1
 62
7
100
AcDbSpline
 70
8
 71
3
 72
8
 73
4
 74
0
 40
0
 40
0
 40
0
 40
0
 40
1
 40
1
 40
1
 40
1
 10
15.419138
 20
12.683463
 30
0.0
 10
15.419138
 20
12.683463
 30
0.0
 10
25.245653
 20
7.213206
 30
0.0
 10
25.245653
 20
7.213206
 30
0.0
  0
SPLINE
  5
112
100
AcDbEntity
  8
Layer_1
 62
7
100
AcDbSpline
 70
8
 71
3
 72
8
 73
4
 74
0
 40
0
 40
0
 40
0
 40
0
 40
1
 40
1
 40
1
 40
1
 10
25.245653
 20
7.213206
 30
0.0
 10
23.613810
 20
5.112531
 30
0.0
 10
21.358971
 20
3.582230
 30
0.0
 10
18.804151
 20
2.841528
 30
0.0
  0
SPLINE
  5
113
100
AcDbEntity
  8
Layer_1
 62
7
100
AcDbSpline
 70
8
 71
3
 72
8
 73
4
 74
0
 40
0
 40
0
 40
0
 40
0
 40
1
 40
1
 40
1
 40
1
 10
18.804151
 20
2.841528
 30
0.0
 10
18.804151
 20
2.841528
 30
0.0
 10
18.709891
 20
0.016003
 30
0.0
 10
18.709891
 20
0.016003
 30
0.0
  0
SPLINE
  5
114
100
AcDbEntity
  8
Layer_1
 62
7
100
AcDbSpline
 70
8
 71
3
 72
8
 73
4
 74
0
 40
0
 40
0
 40
0
 40
0
 40
1
 40
1
 40
1
 40
1
 10
18.709891
 20
0.016003
 30
0.0
 10
22.296228
 20
0.832998
 30
0.0
 10
25.468935
 20
2.912977
 30
0.0
 10
27.648400
 20
5.875953
 30
0.0
  0
SPLINE
  5
115
100
AcDbEntity
  8
Layer_1
 62
7
100
AcDbSpline
 70
8
 71
3
 72
8
 73
4
 74
0
 40
0
 40
0
 40
0
 40
0
 40
1
 40
1
 40
1
 40
1
 10
27.648400
 20
5.875953
 30
0.0
 10
27.944884
 20
6.277628
 30
0.0
 10
28.221558
 20
6.693555
 30
0.0
 10
28.477430
 20
7.122246
 30
0.0
  0
SPLINE
  5
116
100
AcDbEntity
  8
Layer_1
 62
7
100
AcDbSpline
 70
8
 71
3
 72
8
 73
4
 74
0
 40
0
 40
0
 40
0
 40
0
 40
1
 40
1
 40
1
 40
1
 10
28.477430
 20
7.122246
 30
0.0
 10
28.530256
 20
7.217056
 30
0.0
 10
28.582073
 20
7.312424
 30
0.0
 10
28.632872
 20
7.408335
 30
0.0
  0
SPLINE
  5
117
100
AcDbEntity
  8
Layer_1
 62
7
100
AcDbSpline
 70
8
 71
3
 72
8
 73
4
 74
0
 40
0
 40
0
 40
0
 40
0
 40
1
 40
1
 40
1
 40
1
 10
28.632872
 20
7.408335
 30
0.0
 10
28.827965
 20
7.744686
 30
0.0
 10
29.010182
 20
8.088343
 30
0.0
 10
29.179128
 20
8.438559
 30
0.0
  0
SPLINE
  5
118
100
AcDbEntity
  8
Layer_1
 62
7
100
AcDbSpline
 70
8
 71
3
 72
8
 73
4
 74
0
 40
0
 40
0
 40
0
 40
0
 40
1
 40
1
 40
1
 40
1
 10
29.179128
 20
8.438559
 30
0.0
 10
29.245894
 20
8.576855
 30
0.0
 10
29.310577
 20
8.716147
 30
0.0
 10
29.373155
 20
8.856389
 30
0.0
  0
SPLINE
  5
119
100
AcDbEntity
  8
Layer_1
 62
7
100
AcDbSpline
 70
8
 71
3
 72
8
 73
4
 74
0
 40
0
 40
0
 40
0
 40
0
 40
1
 40
1
 40
1
 40
1
 10
29.373155
 20
8.856389
 30
0.0
 10
29.373155
 20
8.856389
 30
0.0
 10
29.358282
 20
8.865138
 30
0.0
 10
29.358282
 20
8.865138
 30
0.0
  0
SPLINE
  5
11a
100
AcDbEntity
  8
Layer_1
 62
7
100
AcDbSpline
 70
8
 71
3
 72
8
 73
4
 74
0
 40
0
 40
0
 40
0
 40
0
 40
1
 40
1
 40
1
 40
1
 10
29.358282
 20
8.865138
 30
0.0
 10
30.196427
 20
10.782371
 30
0.0
 10
30.632958
 20
12.850970
 30
0.0
 10
30.640960
 20
14.943386
 30
0.0
  0
SPLINE
  5
11b
100
AcDbEntity
  8
Layer_1
 62
7
100
AcDbSpline
 70
8
 71
3
 72
8
 73
4
 74
0
 40
0
 40
0
 40
0
 40
0
 40
1
 40
1
 40
1
 40
1
 10
30.640960
 20
14.943386
 30
0.0
 10
30.639321
 20
16.513488
 30
0.0
 10
30.396338
 20
18.074008
 30
0.0
 10
29.920523
 20
19.570278
 30
0.0
  0
SPLINE
  5
11c
100
AcDbEntity
  8
Layer_1
 62
7
100
AcDbSpline
 70
8
 71
3
 72
8
 73
4
 74
0
 40
0
 40
0
 40
0
 40
0
 40
1
 40
1
 40
1
 40
1
 10
29.920523
 20
19.570278
 30
0.0
 10
29.920523
 20
19.570278
 30
0.0
 10
27.513362
 20
18.078141
 30
0.0
 10
27.513362
 20
18.078141
 30
0.0
  0
SPLINE
  5
11d
100
AcDbEntity
  8
Layer_1
 62
7
100
AcDbSpline
 70
8
 71
3
 72
8
 73
4
 74
0
 40
0
 40
0
 40
0
 40
0
 40
1
 40
1
 40
1
 40
1
 10
27.513362
 20
18.078141
 30
0.0
 10
27.779838
 20
17.054420
 30
0.0
 10
27.916328
 20
16.001215
 30
0.0
 10
27.919609
 20
14.943386
 30
0.0
  0
SPLINE
  5
11e
100
AcDbEntity
  8
Layer_1
 62
7
100
AcDbSpline
 70
8
 71
3
 72
8
 73
4
 74
0
 40
0
 40
0
 40
0
 40
0
 40
1
 40
1
 40
1
 40
1
 10
27.919609
 20
14.943386
 30
0.0
 10
27.915272
 20
13.344418
 30
0.0
 10
27.606610
 20
11.760891
 30
0.0
 10
27.010103
 20
10.277349
 30
0.0
  0
LINE
  5
11f
100
AcDbEntity
  8
Layer_1
 62
7
100
AcDbLine
 10
27.010103
 20
10.277349
 30
0.0
 11
17.228236
 21
16.158268
 31
0.0
  0
SPLINE
  5
120
100
AcDbEntity
  8
Layer_1
 62
7
100
AcDbSpline
 70
8
 71
3
 72
8
 73
4
 74
0
 40
0
 40
0
 40
0
 40
0
 40
1
 40
1
 40
1
 40
1
 10
17.228236
 20
16.158268
 30
0.0
 10
17.228236
 20
16.158268
 30
0.0
 10
17.051847
 20
27.405247
 30
0.0
 10
17.051847
 20
27.405247
 30
0.0
  0
SPLINE
  5
121
100
AcDbEntity
  8
Layer_1
 62
7
100
AcDbSpline
 70
8
 71
3
 72
8
 73
4
 74
0
 40
0
 40
0
 40
0
 40
0
 40
1
 40
1
 40
1
 40
1
 10
17.051847
 20
27.405247
 30
0.0
 10
19.684982
 20
27.039477
 30
0.0
 10
22.134948
 20
25.850194
 30
0.0
 10
24.051178
 20
24.007573
 30
0.0
  0
SPLINE
  5
122
100
AcDbEntity
  8
Layer_1
 62
7
100
AcDbSpline
 70
8
 71
3
 72
8
 73
4
 74
0
 40
0
 40
0
 40
0
 40
0
 40
1
 40
1
 40
1
 40
1
 10
24.051178
 20
24.007573
 30
0.0
 10
24.051178
 20
24.007573
 30
0.0
 10
26.548184
 20
25.339295
 30
0.0
 10
26.548184
 20
25.339295
 30
0.0
  0
SPLINE
  5
123
100
AcDbEntity
  8
Layer_1
 62
7
100
AcDbSpline
 70
8
 71
3
 72
8
 73
4
 74
0
 40
0
 40
0
 40
0
 40
0
 40
1
 40
1
 40
1
 40
1
 10
26.548184
 20
25.339295
 30
0.0
 10
24.050058
 20
28.038907
 30
0.0
 10
20.664097
 20
29.749698
 30
0.0
 10
17.008842
 20
30.159143
 30
0.0
  0
SPLINE
  5
124
100
AcDbEntity
  8
Layer_1
 62
7
100
AcDbSpline
 70
8
 71
3
 72
8
 73
4
 74
0
 40
0
 40
0
 40
0
 40
0
 40
1
 40
1
 40
1
 40
1
 10
17.008842
 20
30.159143
 30
0.0
 10
17.008842
 20
30.159143
 30
0.0
 10
17.008842
 20
30.163094
 30
0.0
 10
17.008842
 20
30.163094
 30
0.0
  0
SPLINE
  5
125
100
AcDbEntity
  8
Layer_1
 62
7
100
AcDbSpline
 70
8
 71
3
 72
8
 73
4
 74
0
 40
0
 40
0
 40
0
 40
0
 40
1
 40
1
 40
1
 40
1
 10
17.008842
 20
30.163094
 30
0.0
 10
16.875567
 20
30.173494
 30
0.0
 10
16.742161
 20
30.182150
 30
0.0
 10
16.608659
 20
30.189058
 30
0.0
  0
SPLINE
  5
126
100
AcDbEntity
  8
Layer_1
 62
7
100
AcDbSpline
 70
8
 71
3
 72
8
 73
4
 74
0
 40
0
 40
0
 40
0
 40
0
 40
1
 40
1
 40
1
 40
1
 10
16.608659
 20
30.189058
 30
0.0
 10
16.237599
 20
30.226890
 30
0.0
 10
15.865282
 20
30.251158
 30
0.0
 10
15.492451
 20
30.261815
 30
0.0
  0
SPLINE
  5
127
100
AcDbEntity
  8
Layer_1
 62
7
100
AcDbSpline
 70
8
 71
3
 72
8
 73
4
 74
0
 40
0
 40
0
 40
0
 40
0
 40
1
 40
1
 40
1
 40
1
 10
15.492451
 20
30.261815
 30
0.0
 10
15.435129
 20
30.263078
 30
0.0
 10
15.377802
 20
30.264019
 30
0.0
 10
15.320470
 20
30.264638
 30
0.0
  0
LINE
  5
128
100
AcDbEntity
  8
Layer_1
 62
7
100
AcDbLine
 10
15.320470
 20
30.264638
 30
0.0
 11
15.320476
 21
30.264045
 31
0.0
  0
SPLINE
  5
129
100
AcDbEntity
  8
Layer_1
 62
7
100
AcDbSpline
 70
8
 71
3
 72
8
 73
4
 74
0
 40
0
 40
0
 40
0
 40
0
 40
1
 40
1
 40
1
 40
1
 10
15.320476
 20
16.093385
 30
0.0
 10
15.955472
 20
16.093294
 30
0.0
 10
16.470217
 20
15.578552
 30
0.0
 10
16.470311
 20
14.943555
 30
0.0
  0
SPLINE
  5
12a
100
AcDbEntity
  8
Layer_1
 62
7
100
AcDbSpline
 70
8
 71
3
 72
8
 73
4
 74
0
 40
0
 40
0
 40
0
 40
0
 40
1
 40
1
 40
1
 40
1
 10
16.470311
 20
14.943555
 30
0.0
 10
16.470408
 20
14.638521
 30
0.0
 10
16.349313
 20
14.345945
 30
0.0
 10
16.133671
 20
14.130204
 30
0.0
  0
SPLINE
  5
12b
100
AcDbEntity
  8
Layer_1
 62
7
100
AcDbSpline
 70
8
 71
3
 72
8
 73
4
 74
0
 40
0
 40
0
 40
0
 40
0
 40
1
 40
1
 40
1
 40
1
 10
16.133671
 20
14.130204
 30
0.0
 10
15.918030
 20
13.914463
 30
0.0
 10
15.625510
 20
13.793233
 30
0.0
 10
15.320476
 20
13.793189
 30
0.0
  0
SPLINE
  5
12c
100
AcDbEntity
  8
Layer_1
 62
7
100
AcDbSpline
 70
8
 71
3
 72
8
 73
4
 74
0
 40
0
 40
0
 40
0
 40
0
 40
1
 40
1
 40
1
 40
1
 10
15.320476
 20
13.793189
 30
0.0
 10
15.015442
 20
13.793233
 30
0.0
 10
14.722922
 20
13.914463
 30
0.0
 10
14.507280
 20
14.130204
 30
0.0
  0
SPLINE
  5
12d
100
AcDbEntity
  8
Layer_1
 62
7
100
AcDbSpline
 70
8
 71
3
 72
8
 73
4
 74
0
 40
0
 40
0
 40
0
 40
0
 40
1
 40
1
 40
1
 40
1
 10
14.507280
 20
14.130204
 30
0.0
 10
14.291638
 20
14.345945
 30
0.0
 10
14.170543
 20
14.638521
 30
0.0
 10
14.170640
 20
14.943555
 30
0.0
  0
SPLINE
  5
12e
100
AcDbEntity
  8
Layer_1
 62
7
100
AcDbSpline
 70
8
 71
3
 72
8
 73
4
 74
0
 40
0
 40
0
 40
0
 40
0
 40
1
 40
1
 40
1
 40
1
 10
14.170640
 20
14.943555
 30
0.0
 10
14.170734
 20
15.578552
 30
0.0
 10
14.685479
 20
16.093294
 30
0.0
 10
15.320476
 20
16.093385
 30
0.0
  0
LINE
  5
12f
100
AcDbEntity
  8
Layer_1
 62
7
100
AcDbLine
 10
15.320476
 20
16.093385
 30
0.0
 11
15.320476
 21
16.093385
 31
0.0
  0
ENDSEC
  0
SECTION
  2
OBJECTS
  0
DICTIONARY
  5
C
330
0
100
AcDbDictionary
  3
ACAD_GROUP
350
D
  3
ACAD_MLINESTYLE
350
17
  0
DICTIONARY
  5
D
330
C
100
AcDbDictionary
  0
DICTIONARY
  5
1A
330
C
100
AcDbDictionary
  0
DICTIONARY
  5
17
330
C
100
AcDbDictionary
  3
STANDARD
350
18
  0
DICTIONARY
  5
19
330
C
100
AcDbDictionary
  0
ENDSEC
  0
EOF
