solid OpenSCAD_Model
  facet normal -0.430893 -0.902403 0
    outer loop
      vertex -2.384 -0.129 3
      vertex -2.384 -0.129 0
      vertex -1.873 -0.373 0
    endloop
  endfacet
  facet normal -0.430893 -0.902403 0
    outer loop
      vertex -1.873 -0.373 3
      vertex -2.384 -0.129 3
      vertex -1.873 -0.373 0
    endloop
  endfacet
  facet normal 0 0 -1
    outer loop
      vertex -2.384 -0.129 0
      vertex -2.384 0.129 0
      vertex -1.873 -0.373 0
    endloop
  endfacet
  facet normal 0 0 -1
    outer loop
      vertex -1.873 -0.373 0
      vertex -2.384 0.129 0
      vertex -1.873 0.373 0
    endloop
  endfacet
  facet normal 0 0 -1
    outer loop
      vertex -1.873 -0.373 0
      vertex -1.873 0.373 0
      vertex -1.755 0.376 0
    endloop
  endfacet
  facet normal 0 0 -1
    outer loop
      vertex -1.873 -0.373 0
      vertex -1.755 0.376 0
      vertex -1.401 0.3 0
    endloop
  endfacet
  facet normal 0 0 -1
    outer loop
      vertex -1.203 0.778 0
      vertex -1.507 0.975 0
      vertex -1.588 1.061 0
    endloop
  endfacet
  facet normal 0 0 -1
    outer loop
      vertex -1.203 0.778 0
      vertex -1.588 1.061 0
      vertex -1.777 1.594 0
    endloop
  endfacet
  facet normal 0 0 -1
    outer loop
      vertex -1.203 0.778 0
      vertex -1.777 1.594 0
      vertex -1.594 1.777 0
    endloop
  endfacet
  facet normal 0 0 -1
    outer loop
      vertex -1.203 0.778 0
      vertex -1.594 1.777 0
      vertex -1.061 1.588 0
    endloop
  endfacet
  facet normal 0 0 -1
    outer loop
      vertex -1.203 0.778 0
      vertex -1.061 1.588 0
      vertex -0.975 1.507 0
    endloop
  endfacet
  facet normal 0 0 -1
    outer loop
      vertex -1.203 0.778 0
      vertex -0.975 1.507 0
      vertex -0.778 1.203 0
    endloop
  endfacet
  facet normal 0 0 -1
    outer loop
      vertex -1.203 0.778 0
      vertex -0.778 1.203 0
      vertex -1.401 0.3 0
    endloop
  endfacet
  facet normal 0 0 -1
    outer loop
      vertex -1.401 0.3 0
      vertex -0.778 1.203 0
      vertex -0.3 1.401 0
    endloop
  endfacet
  facet normal 0 0 -1
    outer loop
      vertex -1.14127 0.37082 0
      vertex -1.873 -0.373 0
      vertex -0.97082 0.705342 0
    endloop
  endfacet
  facet normal 0 0 -1
    outer loop
      vertex -0.3 1.401 0
      vertex -0.376 1.755 0
      vertex -0.373 1.873 0
    endloop
  endfacet
  facet normal 0 0 -1
    outer loop
      vertex -0.3 1.401 0
      vertex -0.373 1.873 0
      vertex -0.129 2.384 0
    endloop
  endfacet
  facet normal 0 0 -1
    outer loop
      vertex -0.3 1.401 0
      vertex -0.129 2.384 0
      vertex 0.129 2.384 0
    endloop
  endfacet
  facet normal 0 0 -1
    outer loop
      vertex -0.3 1.401 0
      vertex 0.129 2.384 0
      vertex 0.373 1.873 0
    endloop
  endfacet
  facet normal 0 0 -1
    outer loop
      vertex 0.705342 0.97082 0
      vertex 1.588 1.061 0
      vertex 1.507 0.975 0
    endloop
  endfacet
  facet normal 0 0 -1
    outer loop
      vertex 0 1.2 0
      vertex 0.376 1.755 0
      vertex 0.3 1.401 0
    endloop
  endfacet
  facet normal 0 0 -1
    outer loop
      vertex 0.37082 1.14127 0
      vertex 0.3 1.401 0
      vertex 0.778 1.203 0
    endloop
  endfacet
  facet normal 0 0 -1
    outer loop
      vertex 0.778 1.203 0
      vertex 0.975 1.507 0
      vertex 1.061 1.588 0
    endloop
  endfacet
  facet normal 0 0 -1
    outer loop
      vertex 0.778 1.203 0
      vertex 1.061 1.588 0
      vertex 1.594 1.777 0
    endloop
  endfacet
  facet normal 0 0 -1
    outer loop
      vertex 0.778 1.203 0
      vertex 1.594 1.777 0
      vertex 1.777 1.594 0
    endloop
  endfacet
  facet normal 0 0 -1
    outer loop
      vertex 0.705342 0.97082 0
      vertex 1.777 1.594 0
      vertex 1.588 1.061 0
    endloop
  endfacet
  facet normal 0 0 -1
    outer loop
      vertex 0.97082 0.705342 0
      vertex 1.507 0.975 0
      vertex 1.203 0.778 0
    endloop
  endfacet
  facet normal 0 0 -1
    outer loop
      vertex 1.14127 0.37082 0
      vertex 1.203 0.778 0
      vertex 1.401 0.3 0
    endloop
  endfacet
  facet normal 0 0 -1
    outer loop
      vertex 1.401 0.3 0
      vertex 1.755 0.376 0
      vertex 1.873 0.373 0
    endloop
  endfacet
  facet normal 0 0 -1
    outer loop
      vertex 1.2 0 0
      vertex 1.873 0.373 0
      vertex 2.384 0.129 0
    endloop
  endfacet
  facet normal 0 0 -1
    outer loop
      vertex -0.705342 0.97082 0
      vertex -0.3 1.401 0
      vertex -0.37082 1.14127 0
    endloop
  endfacet
  facet normal 0 0 -1
    outer loop
      vertex 1.401 -0.3 0
      vertex 2.384 -0.129 0
      vertex 1.873 -0.373 0
    endloop
  endfacet
  facet normal 0 0 -1
    outer loop
      vertex 1.203 -0.778 0
      vertex 0.97082 -0.705342 0
      vertex 1.14127 -0.37082 0
    endloop
  endfacet
  facet normal 0 0 -1
    outer loop
      vertex -0.37082 1.14127 0
      vertex 0.373 1.873 0
      vertex 0.376 1.755 0
    endloop
  endfacet
  facet normal 0 0 -1
    outer loop
      vertex 0.975 -1.507 0
      vertex 1.594 -1.777 0
      vertex 1.061 -1.588 0
    endloop
  endfacet
  facet normal 0 0 -1
    outer loop
      vertex 0.97082 0.705342 0
      vertex 1.203 0.778 0
      vertex 1.14127 0.37082 0
    endloop
  endfacet
  facet normal 0 0 -1
    outer loop
      vertex 1.401 0.3 0
      vertex 1.873 0.373 0
      vertex 1.2 0 0
    endloop
  endfacet
  facet normal 0 0 -1
    outer loop
      vertex 0.778 -1.203 0
      vertex 1.588 -1.061 0
      vertex 1.777 -1.594 0
    endloop
  endfacet
  facet normal 0 0 -1
    outer loop
      vertex 0.975 -1.507 0
      vertex 1.777 -1.594 0
      vertex 1.594 -1.777 0
    endloop
  endfacet
  facet normal 0 0 -1
    outer loop
      vertex 0.3 -1.401 0
      vertex 0.37082 -1.14127 0
      vertex 0.778 -1.203 0
    endloop
  endfacet
  facet normal 0 0 -1
    outer loop
      vertex 0.778 -1.203 0
      vertex 1.777 -1.594 0
      vertex 0.975 -1.507 0
    endloop
  endfacet
  facet normal 0 0 -1
    outer loop
      vertex 0.705342 -0.97082 0
      vertex 1.588 -1.061 0
      vertex 0.778 -1.203 0
    endloop
  endfacet
  facet normal 0 0 -1
    outer loop
      vertex -0.373 -1.873 0
      vertex 0.129 -2.384 0
      vertex -0.129 -2.384 0
    endloop
  endfacet
  facet normal 0 0 -1
    outer loop
      vertex 0.97082 -0.705342 0
      vertex 1.203 -0.778 0
      vertex 1.507 -0.975 0
    endloop
  endfacet
  facet normal 0 0 -1
    outer loop
      vertex 0.97082 -0.705342 0
      vertex 1.507 -0.975 0
      vertex 1.588 -1.061 0
    endloop
  endfacet
  facet normal 0 0 -1
    outer loop
      vertex 1.2 0 0
      vertex 1.401 -0.3 0
      vertex 1.14127 -0.37082 0
    endloop
  endfacet
  facet normal 0 0 -1
    outer loop
      vertex -0.3 -1.401 0
      vertex 0.373 -1.873 0
      vertex -0.376 -1.755 0
    endloop
  endfacet
  facet normal 0 0 -1
    outer loop
      vertex 0.373 -1.873 0
      vertex 0.129 -2.384 0
      vertex -0.373 -1.873 0
    endloop
  endfacet
  facet normal 0 0 -1
    outer loop
      vertex 0.373 -1.873 0
      vertex -0.373 -1.873 0
      vertex -0.376 -1.755 0
    endloop
  endfacet
  facet normal 0 0 -1
    outer loop
      vertex 0.376 -1.755 0
      vertex 0.373 -1.873 0
      vertex -0.3 -1.401 0
    endloop
  endfacet
  facet normal 0 0 -1
    outer loop
      vertex -0.97082 -0.705342 0
      vertex -1.401 -0.3 0
      vertex -1.14127 -0.37082 0
    endloop
  endfacet
  facet normal 0 0 -1
    outer loop
      vertex -0.975 -1.507 0
      vertex -1.507 -0.975 0
      vertex -0.778 -1.203 0
    endloop
  endfacet
  facet normal 0 0 -1
    outer loop
      vertex -1.203 -0.778 0
      vertex 0.376 -1.755 0
      vertex -0.3 -1.401 0
    endloop
  endfacet
  facet normal 0 0 -1
    outer loop
      vertex -1.588 -1.061 0
      vertex -1.594 -1.777 0
      vertex -1.777 -1.594 0
    endloop
  endfacet
  facet normal 0 0 -1
    outer loop
      vertex -1.507 -0.975 0
      vertex -0.975 -1.507 0
      vertex -1.061 -1.588 0
    endloop
  endfacet
  facet normal 0 0 -1
    outer loop
      vertex -1.507 -0.975 0
      vertex -1.061 -1.588 0
      vertex -1.588 -1.061 0
    endloop
  endfacet
  facet normal 0 0 -1
    outer loop
      vertex -1.061 -1.588 0
      vertex -1.594 -1.777 0
      vertex -1.588 -1.061 0
    endloop
  endfacet
  facet normal 0 0 -1
    outer loop
      vertex -1.203 -0.778 0
      vertex -0.778 -1.203 0
      vertex -1.507 -0.975 0
    endloop
  endfacet
  facet normal 0 0 -1
    outer loop
      vertex 1.2 0 0
      vertex 2.384 -0.129 0
      vertex 1.401 -0.3 0
    endloop
  endfacet
  facet normal 0 0 -1
    outer loop
      vertex -0.37082 -1.14127 0
      vertex 0.376 -1.755 0
      vertex -1.203 -0.778 0
    endloop
  endfacet
  facet normal 0 0 -1
    outer loop
      vertex -1.2 0 0
      vertex -1.873 -0.373 0
      vertex -1.14127 0.37082 0
    endloop
  endfacet
  facet normal 0 0 -1
    outer loop
      vertex 1.14127 0.37082 0
      vertex 1.401 0.3 0
      vertex 1.2 0 0
    endloop
  endfacet
  facet normal 0 0 -1
    outer loop
      vertex -1.401 -0.3 0
      vertex -1.873 -0.373 0
      vertex -1.2 0 0
    endloop
  endfacet
  facet normal 0 0 -1
    outer loop
      vertex 0.3 -1.401 0
      vertex 0.376 -1.755 0
      vertex -0.37082 -1.14127 0
    endloop
  endfacet
  facet normal 0 0 -1
    outer loop
      vertex 0 -1.2 0
      vertex 0.3 -1.401 0
      vertex -0.37082 -1.14127 0
    endloop
  endfacet
  facet normal 0 0 -1
    outer loop
      vertex 0.3 -1.401 0
      vertex 0 -1.2 0
      vertex 0.37082 -1.14127 0
    endloop
  endfacet
  facet normal 0 0 -1
    outer loop
      vertex 1.2 0 0
      vertex 2.384 0.129 0
      vertex 2.384 -0.129 0
    endloop
  endfacet
  facet normal 0 0 -1
    outer loop
      vertex -1.203 -0.778 0
      vertex -0.3 -1.401 0
      vertex -0.778 -1.203 0
    endloop
  endfacet
  facet normal 0 0 -1
    outer loop
      vertex 0 1.2 0
      vertex 0.3 1.401 0
      vertex 0.37082 1.14127 0
    endloop
  endfacet
  facet normal 0 0 -1
    outer loop
      vertex -0.37082 1.14127 0
      vertex 0.376 1.755 0
      vertex 0 1.2 0
    endloop
  endfacet
  facet normal 0 0 -1
    outer loop
      vertex -1.14127 -0.37082 0
      vertex -1.401 -0.3 0
      vertex -1.2 0 0
    endloop
  endfacet
  facet normal 0 0 -1
    outer loop
      vertex 0.37082 1.14127 0
      vertex 0.778 1.203 0
      vertex 0.705342 0.97082 0
    endloop
  endfacet
  facet normal 0 0 -1
    outer loop
      vertex 0.778 1.203 0
      vertex 1.777 1.594 0
      vertex 0.705342 0.97082 0
    endloop
  endfacet
  facet normal 0 0 -1
    outer loop
      vertex -0.3 1.401 0
      vertex 0.373 1.873 0
      vertex -0.37082 1.14127 0
    endloop
  endfacet
  facet normal 0 0 -1
    outer loop
      vertex 0.705342 0.97082 0
      vertex 1.507 0.975 0
      vertex 0.97082 0.705342 0
    endloop
  endfacet
  facet normal 0 0 -1
    outer loop
      vertex -1.401 0.3 0
      vertex -0.3 1.401 0
      vertex -0.705342 0.97082 0
    endloop
  endfacet
  facet normal 0 0 -1
    outer loop
      vertex -1.401 0.3 0
      vertex -0.705342 0.97082 0
      vertex -0.97082 0.705342 0
    endloop
  endfacet
  facet normal 0 0 -1
    outer loop
      vertex -1.401 0.3 0
      vertex -0.97082 0.705342 0
      vertex -1.873 -0.373 0
    endloop
  endfacet
  facet normal 0 0 -1
    outer loop
      vertex 1.401 -0.3 0
      vertex 1.873 -0.373 0
      vertex 1.755 -0.376 0
    endloop
  endfacet
  facet normal 0 0 -1
    outer loop
      vertex 1.203 -0.778 0
      vertex 1.14127 -0.37082 0
      vertex 1.401 -0.3 0
    endloop
  endfacet
  facet normal 0 0 -1
    outer loop
      vertex 0.97082 -0.705342 0
      vertex 1.588 -1.061 0
      vertex 0.705342 -0.97082 0
    endloop
  endfacet
  facet normal 0 0 -1
    outer loop
      vertex -0.37082 -1.14127 0
      vertex -1.203 -0.778 0
      vertex -0.705342 -0.97082 0
    endloop
  endfacet
  facet normal 0 0 -1
    outer loop
      vertex 0.705342 -0.97082 0
      vertex 0.778 -1.203 0
      vertex 0.37082 -1.14127 0
    endloop
  endfacet
  facet normal 0 0 -1
    outer loop
      vertex -1.401 -0.3 0
      vertex -0.97082 -0.705342 0
      vertex -0.705342 -0.97082 0
    endloop
  endfacet
  facet normal 0 0 -1
    outer loop
      vertex -1.401 -0.3 0
      vertex -0.705342 -0.97082 0
      vertex -1.203 -0.778 0
    endloop
  endfacet
  facet normal 0 0 -1
    outer loop
      vertex -1.755 -0.376 0
      vertex -1.873 -0.373 0
      vertex -1.401 -0.3 0
    endloop
  endfacet
  facet normal -1 0 0
    outer loop
      vertex -2.384 -0.129 0
      vertex -2.384 -0.129 3
      vertex -2.384 0.129 0
    endloop
  endfacet
  facet normal -1 0 0
    outer loop
      vertex -2.384 0.129 0
      vertex -2.384 -0.129 3
      vertex -2.384 0.129 3
    endloop
  endfacet
  facet normal 0 0 1
    outer loop
      vertex -1.507 -0.975 3
      vertex -1.588 -1.061 3
      vertex -1.203 -0.778 3
    endloop
  endfacet
  facet normal 0 0 1
    outer loop
      vertex -2.384 0.129 3
      vertex -2.384 -0.129 3
      vertex -1.873 -0.373 3
    endloop
  endfacet
  facet normal 0 0 1
    outer loop
      vertex -1.401 -0.3 3
      vertex -2.384 0.129 3
      vertex -1.755 -0.376 3
    endloop
  endfacet
  facet normal 0 0 1
    outer loop
      vertex -1.755 -0.376 3
      vertex -2.384 0.129 3
      vertex -1.873 -0.373 3
    endloop
  endfacet
  facet normal 0 0 1
    outer loop
      vertex 0.97082 -0.705342 3
      vertex 1.507 -0.975 3
      vertex 1.203 -0.778 3
    endloop
  endfacet
  facet normal 0 0 1
    outer loop
      vertex -0.778 -1.203 3
      vertex -1.401 -0.3 3
      vertex -1.203 -0.778 3
    endloop
  endfacet
  facet normal 0 0 1
    outer loop
      vertex -1.588 -1.061 3
      vertex -1.777 -1.594 3
      vertex -1.203 -0.778 3
    endloop
  endfacet
  facet normal 0 0 1
    outer loop
      vertex -1.777 -1.594 3
      vertex -1.594 -1.777 3
      vertex -1.203 -0.778 3
    endloop
  endfacet
  facet normal 0 0 1
    outer loop
      vertex -1.594 -1.777 3
      vertex -1.061 -1.588 3
      vertex -1.203 -0.778 3
    endloop
  endfacet
  facet normal 0 0 1
    outer loop
      vertex -0.376 -1.755 3
      vertex -0.373 -1.873 3
      vertex -0.3 -1.401 3
    endloop
  endfacet
  facet normal 0 0 1
    outer loop
      vertex -1.061 -1.588 3
      vertex -0.975 -1.507 3
      vertex -1.203 -0.778 3
    endloop
  endfacet
  facet normal 0 0 1
    outer loop
      vertex -0.975 -1.507 3
      vertex -0.778 -1.203 3
      vertex -1.203 -0.778 3
    endloop
  endfacet
  facet normal 0 0 1
    outer loop
      vertex -0.778 -1.203 3
      vertex -0.3 -1.401 3
      vertex -1.401 -0.3 3
    endloop
  endfacet
  facet normal 0 0 1
    outer loop
      vertex -0.373 -1.873 3
      vertex -0.129 -2.384 3
      vertex -0.3 -1.401 3
    endloop
  endfacet
  facet normal 0 0 1
    outer loop
      vertex -0.129 -2.384 3
      vertex 0.129 -2.384 3
      vertex -0.3 -1.401 3
    endloop
  endfacet
  facet normal 0 0 1
    outer loop
      vertex 0.129 -2.384 3
      vertex 0.373 -1.873 3
      vertex -0.3 -1.401 3
    endloop
  endfacet
  facet normal 0 0 1
    outer loop
      vertex 0.975 -1.507 3
      vertex 1.061 -1.588 3
      vertex 0.778 -1.203 3
    endloop
  endfacet
  facet normal 0 0 1
    outer loop
      vertex -1.2 0 3
      vertex -1.14127 0.37082 3
      vertex -1.401 0.3 3
    endloop
  endfacet
  facet normal 0 0 1
    outer loop
      vertex -1.14127 -0.37082 3
      vertex -1.2 0 3
      vertex -2.384 0.129 3
    endloop
  endfacet
  facet normal 0 0 1
    outer loop
      vertex 1.061 -1.588 3
      vertex 1.594 -1.777 3
      vertex 0.778 -1.203 3
    endloop
  endfacet
  facet normal 0 0 1
    outer loop
      vertex 1.594 -1.777 3
      vertex 1.777 -1.594 3
      vertex 0.778 -1.203 3
    endloop
  endfacet
  facet normal 0 0 1
    outer loop
      vertex 1.755 -0.376 3
      vertex 1.873 -0.373 3
      vertex 1.401 -0.3 3
    endloop
  endfacet
  facet normal 0 0 1
    outer loop
      vertex 0.97082 -0.705342 3
      vertex 1.588 -1.061 3
      vertex 1.507 -0.975 3
    endloop
  endfacet
  facet normal 0 0 1
    outer loop
      vertex -0.37082 -1.14127 3
      vertex -0.705342 -0.97082 3
      vertex 0.373 -1.873 3
    endloop
  endfacet
  facet normal 0 0 1
    outer loop
      vertex 1.873 -0.373 3
      vertex 2.384 -0.129 3
      vertex 1.401 -0.3 3
    endloop
  endfacet
  facet normal 0 0 1
    outer loop
      vertex 0.705342 0.97082 3
      vertex 0.97082 0.705342 3
      vertex 1.203 0.778 3
    endloop
  endfacet
  facet normal 0 0 1
    outer loop
      vertex 2.384 0.129 3
      vertex 1.873 0.373 3
      vertex 1.401 0.3 3
    endloop
  endfacet
  facet normal 0 0 1
    outer loop
      vertex 0 -1.2 3
      vertex -0.37082 -1.14127 3
      vertex 0.3 -1.401 3
    endloop
  endfacet
  facet normal 0 0 1
    outer loop
      vertex -1.401 0.3 3
      vertex -1.755 0.376 3
      vertex -2.384 0.129 3
    endloop
  endfacet
  facet normal 0 0 1
    outer loop
      vertex -0.129 2.384 3
      vertex -0.373 1.873 3
      vertex 0.129 2.384 3
    endloop
  endfacet
  facet normal 0 0 1
    outer loop
      vertex 1.777 1.594 3
      vertex 1.594 1.777 3
      vertex 0.975 1.507 3
    endloop
  endfacet
  facet normal 0 0 1
    outer loop
      vertex -0.37082 -1.14127 3
      vertex 0.373 -1.873 3
      vertex 0.376 -1.755 3
    endloop
  endfacet
  facet normal 0 0 1
    outer loop
      vertex 1.588 1.061 3
      vertex 1.777 1.594 3
      vertex 0.778 1.203 3
    endloop
  endfacet
  facet normal 0 0 1
    outer loop
      vertex -1.777 1.594 3
      vertex -1.588 1.061 3
      vertex -1.594 1.777 3
    endloop
  endfacet
  facet normal 0 0 1
    outer loop
      vertex -1.588 1.061 3
      vertex -1.507 0.975 3
      vertex -0.975 1.507 3
    endloop
  endfacet
  facet normal 0 0 1
    outer loop
      vertex 0.373 1.873 3
      vertex 0.129 2.384 3
      vertex -0.373 1.873 3
    endloop
  endfacet
  facet normal 0 0 1
    outer loop
      vertex -1.507 0.975 3
      vertex -1.203 0.778 3
      vertex -0.778 1.203 3
    endloop
  endfacet
  facet normal 0 0 1
    outer loop
      vertex 0.373 1.873 3
      vertex -0.373 1.873 3
      vertex -0.376 1.755 3
    endloop
  endfacet
  facet normal 0 0 1
    outer loop
      vertex -1.755 0.376 3
      vertex -1.873 0.373 3
      vertex -2.384 0.129 3
    endloop
  endfacet
  facet normal 0 0 1
    outer loop
      vertex 0.376 1.755 3
      vertex 0.373 1.873 3
      vertex -0.3 1.401 3
    endloop
  endfacet
  facet normal 0 0 1
    outer loop
      vertex -0.778 1.203 3
      vertex -0.975 1.507 3
      vertex -1.507 0.975 3
    endloop
  endfacet
  facet normal 0 0 1
    outer loop
      vertex -1.588 1.061 3
      vertex -0.975 1.507 3
      vertex -1.061 1.588 3
    endloop
  endfacet
  facet normal 0 0 1
    outer loop
      vertex -0.778 1.203 3
      vertex -1.203 0.778 3
      vertex -0.3 1.401 3
    endloop
  endfacet
  facet normal 0 0 1
    outer loop
      vertex -1.061 1.588 3
      vertex -1.594 1.777 3
      vertex -1.588 1.061 3
    endloop
  endfacet
  facet normal 0 0 1
    outer loop
      vertex -0.376 1.755 3
      vertex -0.3 1.401 3
      vertex 0.373 1.873 3
    endloop
  endfacet
  facet normal 0 0 1
    outer loop
      vertex -0.37082 1.14127 3
      vertex 0.376 1.755 3
      vertex -1.203 0.778 3
    endloop
  endfacet
  facet normal 0 0 1
    outer loop
      vertex 0.975 1.507 3
      vertex 0.778 1.203 3
      vertex 1.777 1.594 3
    endloop
  endfacet
  facet normal 0 0 1
    outer loop
      vertex -0.97082 0.705342 3
      vertex -0.705342 0.97082 3
      vertex -1.203 0.778 3
    endloop
  endfacet
  facet normal 0 0 1
    outer loop
      vertex 0.37082 1.14127 3
      vertex 0.705342 0.97082 3
      vertex 0.778 1.203 3
    endloop
  endfacet
  facet normal 0 0 1
    outer loop
      vertex 1.401 0.3 3
      vertex 1.2 0 3
      vertex 2.384 0.129 3
    endloop
  endfacet
  facet normal 0 0 1
    outer loop
      vertex -0.97082 -0.705342 3
      vertex -1.14127 -0.37082 3
      vertex -1.401 -0.3 3
    endloop
  endfacet
  facet normal 0 0 1
    outer loop
      vertex -0.37082 1.14127 3
      vertex 0 1.2 3
      vertex 0.3 1.401 3
    endloop
  endfacet
  facet normal 0 0 1
    outer loop
      vertex 0.3 1.401 3
      vertex 0.376 1.755 3
      vertex -0.37082 1.14127 3
    endloop
  endfacet
  facet normal 0 0 1
    outer loop
      vertex -0.3 1.401 3
      vertex -1.203 0.778 3
      vertex 0.376 1.755 3
    endloop
  endfacet
  facet normal 0 0 1
    outer loop
      vertex -1.401 -0.3 3
      vertex -1.14127 -0.37082 3
      vertex -2.384 0.129 3
    endloop
  endfacet
  facet normal 0 0 1
    outer loop
      vertex 1.588 1.061 3
      vertex 0.778 1.203 3
      vertex 0.705342 0.97082 3
    endloop
  endfacet
  facet normal 0 0 1
    outer loop
      vertex 0.705342 0.97082 3
      vertex 1.507 0.975 3
      vertex 1.588 1.061 3
    endloop
  endfacet
  facet normal 0 0 1
    outer loop
      vertex -0.705342 0.97082 3
      vertex -0.37082 1.14127 3
      vertex -1.203 0.778 3
    endloop
  endfacet
  facet normal 0 0 1
    outer loop
      vertex 1.061 1.588 3
      vertex 0.975 1.507 3
      vertex 1.594 1.777 3
    endloop
  endfacet
  facet normal 0 0 1
    outer loop
      vertex 2.384 -0.129 3
      vertex 2.384 0.129 3
      vertex 1.2 0 3
    endloop
  endfacet
  facet normal 0 0 1
    outer loop
      vertex 1.2 0 3
      vertex 1.14127 -0.37082 3
      vertex 1.401 -0.3 3
    endloop
  endfacet
  facet normal 0 0 1
    outer loop
      vertex 1.203 -0.778 3
      vertex 1.401 -0.3 3
      vertex 1.14127 -0.37082 3
    endloop
  endfacet
  facet normal 0 0 1
    outer loop
      vertex 1.2 0 3
      vertex 1.401 -0.3 3
      vertex 2.384 -0.129 3
    endloop
  endfacet
  facet normal 0 0 1
    outer loop
      vertex 1.203 -0.778 3
      vertex 1.14127 -0.37082 3
      vertex 0.97082 -0.705342 3
    endloop
  endfacet
  facet normal 0 0 1
    outer loop
      vertex 1.777 -1.594 3
      vertex 1.588 -1.061 3
      vertex 0.705342 -0.97082 3
    endloop
  endfacet
  facet normal 0 0 1
    outer loop
      vertex 0.705342 -0.97082 3
      vertex 0.37082 -1.14127 3
      vertex 0.778 -1.203 3
    endloop
  endfacet
  facet normal 0 0 1
    outer loop
      vertex 0.3 -1.401 3
      vertex 0.778 -1.203 3
      vertex 0.37082 -1.14127 3
    endloop
  endfacet
  facet normal 0 0 1
    outer loop
      vertex 0.705342 -0.97082 3
      vertex 0.778 -1.203 3
      vertex 1.777 -1.594 3
    endloop
  endfacet
  facet normal 0 0 1
    outer loop
      vertex 0.3 -1.401 3
      vertex 0.37082 -1.14127 3
      vertex 0 -1.2 3
    endloop
  endfacet
  facet normal 0 0 1
    outer loop
      vertex -1.2 0 3
      vertex -1.401 0.3 3
      vertex -2.384 0.129 3
    endloop
  endfacet
  facet normal 0 0 1
    outer loop
      vertex 0.376 -1.755 3
      vertex 0.3 -1.401 3
      vertex -0.37082 -1.14127 3
    endloop
  endfacet
  facet normal 0 0 1
    outer loop
      vertex -0.3 -1.401 3
      vertex -0.705342 -0.97082 3
      vertex -1.401 -0.3 3
    endloop
  endfacet
  facet normal 0 0 1
    outer loop
      vertex -0.3 -1.401 3
      vertex 0.373 -1.873 3
      vertex -0.705342 -0.97082 3
    endloop
  endfacet
  facet normal 0 0 1
    outer loop
      vertex -0.705342 -0.97082 3
      vertex -0.97082 -0.705342 3
      vertex -1.401 -0.3 3
    endloop
  endfacet
  facet normal 0 0 1
    outer loop
      vertex 1.755 0.376 3
      vertex 1.401 0.3 3
      vertex 1.873 0.373 3
    endloop
  endfacet
  facet normal 0 0 1
    outer loop
      vertex 0.705342 0.97082 3
      vertex 1.203 0.778 3
      vertex 1.507 0.975 3
    endloop
  endfacet
  facet normal 0 0 1
    outer loop
      vertex 1.401 0.3 3
      vertex 0.97082 0.705342 3
      vertex 1.14127 0.37082 3
    endloop
  endfacet
  facet normal 0 0 1
    outer loop
      vertex 1.401 0.3 3
      vertex 1.203 0.778 3
      vertex 0.97082 0.705342 3
    endloop
  endfacet
  facet normal 0 0 1
    outer loop
      vertex 0.778 1.203 3
      vertex 0 1.2 3
      vertex 0.37082 1.14127 3
    endloop
  endfacet
  facet normal 0 0 1
    outer loop
      vertex 0.778 1.203 3
      vertex 0.3 1.401 3
      vertex 0 1.2 3
    endloop
  endfacet
  facet normal 0 0 1
    outer loop
      vertex 0.97082 -0.705342 3
      vertex 0.705342 -0.97082 3
      vertex 1.588 -1.061 3
    endloop
  endfacet
  facet normal 0 0 1
    outer loop
      vertex 1.14127 0.37082 3
      vertex 1.2 0 3
      vertex 1.401 0.3 3
    endloop
  endfacet
  facet normal 0 0 1
    outer loop
      vertex -1.203 0.778 3
      vertex -1.14127 0.37082 3
      vertex -0.97082 0.705342 3
    endloop
  endfacet
  facet normal 0 0 1
    outer loop
      vertex -1.203 0.778 3
      vertex -1.401 0.3 3
      vertex -1.14127 0.37082 3
    endloop
  endfacet
  facet normal -0.0254155 -0.999677 0
    outer loop
      vertex -1.873 -0.373 3
      vertex -1.873 -0.373 0
      vertex -1.755 -0.376 0
    endloop
  endfacet
  facet normal -0.0254155 -0.999677 0
    outer loop
      vertex -1.755 -0.376 3
      vertex -1.873 -0.373 3
      vertex -1.755 -0.376 0
    endloop
  endfacet
  facet normal 0.209906 -0.977722 0
    outer loop
      vertex -1.755 -0.376 3
      vertex -1.755 -0.376 0
      vertex -1.401 -0.3 0
    endloop
  endfacet
  facet normal 0.209906 -0.977722 0
    outer loop
      vertex -1.401 -0.3 3
      vertex -1.755 -0.376 3
      vertex -1.401 -0.3 0
    endloop
  endfacet
  facet normal -0.923875 -0.382693 0
    outer loop
      vertex -1.401 -0.3 0
      vertex -1.203 -0.778 0
      vertex -1.401 -0.3 3
    endloop
  endfacet
  facet normal -0.923875 -0.382693 0
    outer loop
      vertex -1.401 -0.3 3
      vertex -1.203 -0.778 0
      vertex -1.203 -0.778 3
    endloop
  endfacet
  facet normal -0.543823 0.8392 0
    outer loop
      vertex -1.507 -0.975 0
      vertex -1.507 -0.975 3
      vertex -1.203 -0.778 0
    endloop
  endfacet
  facet normal -0.543823 0.8392 0
    outer loop
      vertex -1.203 -0.778 0
      vertex -1.507 -0.975 3
      vertex -1.203 -0.778 3
    endloop
  endfacet
  facet normal -0.727951 0.685629 0
    outer loop
      vertex -1.588 -1.061 0
      vertex -1.588 -1.061 3
      vertex -1.507 -0.975 0
    endloop
  endfacet
  facet normal -0.727951 0.685629 0
    outer loop
      vertex -1.507 -0.975 0
      vertex -1.588 -1.061 3
      vertex -1.507 -0.975 3
    endloop
  endfacet
  facet normal -0.9425 0.334207 0
    outer loop
      vertex -1.777 -1.594 0
      vertex -1.777 -1.594 3
      vertex -1.588 -1.061 0
    endloop
  endfacet
  facet normal -0.9425 0.334207 0
    outer loop
      vertex -1.588 -1.061 0
      vertex -1.777 -1.594 3
      vertex -1.588 -1.061 3
    endloop
  endfacet
  facet normal -0.707107 -0.707107 0
    outer loop
      vertex -1.777 -1.594 3
      vertex -1.777 -1.594 0
      vertex -1.594 -1.777 0
    endloop
  endfacet
  facet normal -0.707107 -0.707107 0
    outer loop
      vertex -1.594 -1.777 3
      vertex -1.777 -1.594 3
      vertex -1.594 -1.777 0
    endloop
  endfacet
  facet normal 0.334207 -0.9425 0
    outer loop
      vertex -1.594 -1.777 3
      vertex -1.594 -1.777 0
      vertex -1.061 -1.588 0
    endloop
  endfacet
  facet normal 0.334207 -0.9425 0
    outer loop
      vertex -1.061 -1.588 3
      vertex -1.594 -1.777 3
      vertex -1.061 -1.588 0
    endloop
  endfacet
  facet normal 0.685629 -0.727951 0
    outer loop
      vertex -1.061 -1.588 3
      vertex -1.061 -1.588 0
      vertex -0.975 -1.507 0
    endloop
  endfacet
  facet normal 0.685629 -0.727951 0
    outer loop
      vertex -0.975 -1.507 3
      vertex -1.061 -1.588 3
      vertex -0.975 -1.507 0
    endloop
  endfacet
  facet normal 0.8392 -0.543823 0
    outer loop
      vertex -0.975 -1.507 3
      vertex -0.975 -1.507 0
      vertex -0.778 -1.203 0
    endloop
  endfacet
  facet normal 0.8392 -0.543823 0
    outer loop
      vertex -0.778 -1.203 3
      vertex -0.975 -1.507 3
      vertex -0.778 -1.203 0
    endloop
  endfacet
  facet normal -0.382693 -0.923875 0
    outer loop
      vertex -0.778 -1.203 3
      vertex -0.778 -1.203 0
      vertex -0.3 -1.401 0
    endloop
  endfacet
  facet normal -0.382693 -0.923875 0
    outer loop
      vertex -0.3 -1.401 3
      vertex -0.778 -1.203 3
      vertex -0.3 -1.401 0
    endloop
  endfacet
  facet normal -0.977722 0.209906 0
    outer loop
      vertex -0.376 -1.755 0
      vertex -0.376 -1.755 3
      vertex -0.3 -1.401 0
    endloop
  endfacet
  facet normal -0.977722 0.209906 0
    outer loop
      vertex -0.3 -1.401 0
      vertex -0.376 -1.755 3
      vertex -0.3 -1.401 3
    endloop
  endfacet
  facet normal -0.999677 -0.0254155 0
    outer loop
      vertex -0.376 -1.755 0
      vertex -0.373 -1.873 0
      vertex -0.376 -1.755 3
    endloop
  endfacet
  facet normal -0.999677 -0.0254155 0
    outer loop
      vertex -0.376 -1.755 3
      vertex -0.373 -1.873 0
      vertex -0.373 -1.873 3
    endloop
  endfacet
  facet normal -0.902403 -0.430893 0
    outer loop
      vertex -0.373 -1.873 0
      vertex -0.129 -2.384 0
      vertex -0.373 -1.873 3
    endloop
  endfacet
  facet normal -0.902403 -0.430893 0
    outer loop
      vertex -0.373 -1.873 3
      vertex -0.129 -2.384 0
      vertex -0.129 -2.384 3
    endloop
  endfacet
  facet normal 0 -1 0
    outer loop
      vertex -0.129 -2.384 3
      vertex -0.129 -2.384 0
      vertex 0.129 -2.384 0
    endloop
  endfacet
  facet normal 0 -1 0
    outer loop
      vertex 0.129 -2.384 3
      vertex -0.129 -2.384 3
      vertex 0.129 -2.384 0
    endloop
  endfacet
  facet normal 0.902403 -0.430893 0
    outer loop
      vertex 0.129 -2.384 3
      vertex 0.129 -2.384 0
      vertex 0.373 -1.873 0
    endloop
  endfacet
  facet normal 0.902403 -0.430893 0
    outer loop
      vertex 0.373 -1.873 3
      vertex 0.129 -2.384 3
      vertex 0.373 -1.873 0
    endloop
  endfacet
  facet normal 0.999677 -0.0254155 0
    outer loop
      vertex 0.373 -1.873 3
      vertex 0.373 -1.873 0
      vertex 0.376 -1.755 0
    endloop
  endfacet
  facet normal 0.999677 -0.0254155 0
    outer loop
      vertex 0.376 -1.755 3
      vertex 0.373 -1.873 3
      vertex 0.376 -1.755 0
    endloop
  endfacet
  facet normal 0.977722 0.209906 0
    outer loop
      vertex 0.376 -1.755 0
      vertex 0.3 -1.401 0
      vertex 0.3 -1.401 3
    endloop
  endfacet
  facet normal 0.977722 0.209906 0
    outer loop
      vertex 0.376 -1.755 3
      vertex 0.376 -1.755 0
      vertex 0.3 -1.401 3
    endloop
  endfacet
  facet normal 0.382693 -0.923875 0
    outer loop
      vertex 0.3 -1.401 3
      vertex 0.3 -1.401 0
      vertex 0.778 -1.203 0
    endloop
  endfacet
  facet normal 0.382693 -0.923875 0
    outer loop
      vertex 0.778 -1.203 3
      vertex 0.3 -1.401 3
      vertex 0.778 -1.203 0
    endloop
  endfacet
  facet normal -0.8392 -0.543823 0
    outer loop
      vertex 0.778 -1.203 0
      vertex 0.975 -1.507 0
      vertex 0.778 -1.203 3
    endloop
  endfacet
  facet normal -0.8392 -0.543823 0
    outer loop
      vertex 0.778 -1.203 3
      vertex 0.975 -1.507 0
      vertex 0.975 -1.507 3
    endloop
  endfacet
  facet normal -0.685629 -0.727951 0
    outer loop
      vertex 0.975 -1.507 3
      vertex 0.975 -1.507 0
      vertex 1.061 -1.588 0
    endloop
  endfacet
  facet normal -0.685629 -0.727951 0
    outer loop
      vertex 1.061 -1.588 3
      vertex 0.975 -1.507 3
      vertex 1.061 -1.588 0
    endloop
  endfacet
  facet normal -0.334207 -0.9425 0
    outer loop
      vertex 1.061 -1.588 3
      vertex 1.061 -1.588 0
      vertex 1.594 -1.777 0
    endloop
  endfacet
  facet normal -0.334207 -0.9425 0
    outer loop
      vertex 1.594 -1.777 3
      vertex 1.061 -1.588 3
      vertex 1.594 -1.777 0
    endloop
  endfacet
  facet normal 0.707107 -0.707107 0
    outer loop
      vertex 1.594 -1.777 3
      vertex 1.594 -1.777 0
      vertex 1.777 -1.594 0
    endloop
  endfacet
  facet normal 0.707107 -0.707107 0
    outer loop
      vertex 1.777 -1.594 3
      vertex 1.594 -1.777 3
      vertex 1.777 -1.594 0
    endloop
  endfacet
  facet normal 0.9425 0.334207 0
    outer loop
      vertex 1.777 -1.594 0
      vertex 1.588 -1.061 0
      vertex 1.588 -1.061 3
    endloop
  endfacet
  facet normal 0.9425 0.334207 0
    outer loop
      vertex 1.777 -1.594 3
      vertex 1.777 -1.594 0
      vertex 1.588 -1.061 3
    endloop
  endfacet
  facet normal 0.727951 0.685629 0
    outer loop
      vertex 1.588 -1.061 0
      vertex 1.507 -0.975 0
      vertex 1.507 -0.975 3
    endloop
  endfacet
  facet normal 0.727951 0.685629 0
    outer loop
      vertex 1.588 -1.061 3
      vertex 1.588 -1.061 0
      vertex 1.507 -0.975 3
    endloop
  endfacet
  facet normal 0.543823 0.8392 0
    outer loop
      vertex 1.203 -0.778 0
      vertex 1.203 -0.778 3
      vertex 1.507 -0.975 0
    endloop
  endfacet
  facet normal 0.543823 0.8392 0
    outer loop
      vertex 1.507 -0.975 0
      vertex 1.203 -0.778 3
      vertex 1.507 -0.975 3
    endloop
  endfacet
  facet normal 0.923875 -0.382693 0
    outer loop
      vertex 1.203 -0.778 3
      vertex 1.203 -0.778 0
      vertex 1.401 -0.3 0
    endloop
  endfacet
  facet normal 0.923875 -0.382693 0
    outer loop
      vertex 1.401 -0.3 3
      vertex 1.203 -0.778 3
      vertex 1.401 -0.3 0
    endloop
  endfacet
  facet normal -0.209906 -0.977722 0
    outer loop
      vertex 1.401 -0.3 3
      vertex 1.401 -0.3 0
      vertex 1.755 -0.376 0
    endloop
  endfacet
  facet normal -0.209906 -0.977722 0
    outer loop
      vertex 1.755 -0.376 3
      vertex 1.401 -0.3 3
      vertex 1.755 -0.376 0
    endloop
  endfacet
  facet normal 0.0254155 -0.999677 0
    outer loop
      vertex 1.755 -0.376 3
      vertex 1.755 -0.376 0
      vertex 1.873 -0.373 0
    endloop
  endfacet
  facet normal 0.0254155 -0.999677 0
    outer loop
      vertex 1.873 -0.373 3
      vertex 1.755 -0.376 3
      vertex 1.873 -0.373 0
    endloop
  endfacet
  facet normal 0.430893 -0.902403 0
    outer loop
      vertex 1.873 -0.373 3
      vertex 1.873 -0.373 0
      vertex 2.384 -0.129 0
    endloop
  endfacet
  facet normal 0.430893 -0.902403 0
    outer loop
      vertex 2.384 -0.129 3
      vertex 1.873 -0.373 3
      vertex 2.384 -0.129 0
    endloop
  endfacet
  facet normal 1 0 0
    outer loop
      vertex 2.384 -0.129 3
      vertex 2.384 -0.129 0
      vertex 2.384 0.129 0
    endloop
  endfacet
  facet normal 1 0 0
    outer loop
      vertex 2.384 0.129 3
      vertex 2.384 -0.129 3
      vertex 2.384 0.129 0
    endloop
  endfacet
  facet normal 0.430893 0.902403 0
    outer loop
      vertex 1.873 0.373 0
      vertex 1.873 0.373 3
      vertex 2.384 0.129 0
    endloop
  endfacet
  facet normal 0.430893 0.902403 0
    outer loop
      vertex 2.384 0.129 0
      vertex 1.873 0.373 3
      vertex 2.384 0.129 3
    endloop
  endfacet
  facet normal 0.0254155 0.999677 0
    outer loop
      vertex 1.755 0.376 0
      vertex 1.755 0.376 3
      vertex 1.873 0.373 0
    endloop
  endfacet
  facet normal 0.0254155 0.999677 0
    outer loop
      vertex 1.873 0.373 0
      vertex 1.755 0.376 3
      vertex 1.873 0.373 3
    endloop
  endfacet
  facet normal -0.209906 0.977722 0
    outer loop
      vertex 1.401 0.3 0
      vertex 1.401 0.3 3
      vertex 1.755 0.376 0
    endloop
  endfacet
  facet normal -0.209906 0.977722 0
    outer loop
      vertex 1.755 0.376 0
      vertex 1.401 0.3 3
      vertex 1.755 0.376 3
    endloop
  endfacet
  facet normal 0.923875 0.382693 0
    outer loop
      vertex 1.401 0.3 0
      vertex 1.203 0.778 0
      vertex 1.203 0.778 3
    endloop
  endfacet
  facet normal 0.923875 0.382693 0
    outer loop
      vertex 1.401 0.3 3
      vertex 1.401 0.3 0
      vertex 1.203 0.778 3
    endloop
  endfacet
  facet normal 0.543823 -0.8392 0
    outer loop
      vertex 1.203 0.778 3
      vertex 1.203 0.778 0
      vertex 1.507 0.975 0
    endloop
  endfacet
  facet normal 0.543823 -0.8392 0
    outer loop
      vertex 1.507 0.975 3
      vertex 1.203 0.778 3
      vertex 1.507 0.975 0
    endloop
  endfacet
  facet normal 0.727951 -0.685629 0
    outer loop
      vertex 1.507 0.975 3
      vertex 1.507 0.975 0
      vertex 1.588 1.061 0
    endloop
  endfacet
  facet normal 0.727951 -0.685629 0
    outer loop
      vertex 1.588 1.061 3
      vertex 1.507 0.975 3
      vertex 1.588 1.061 0
    endloop
  endfacet
  facet normal 0.9425 -0.334207 0
    outer loop
      vertex 1.588 1.061 3
      vertex 1.588 1.061 0
      vertex 1.777 1.594 0
    endloop
  endfacet
  facet normal 0.9425 -0.334207 0
    outer loop
      vertex 1.777 1.594 3
      vertex 1.588 1.061 3
      vertex 1.777 1.594 0
    endloop
  endfacet
  facet normal 0.707107 0.707107 0
    outer loop
      vertex 1.594 1.777 0
      vertex 1.594 1.777 3
      vertex 1.777 1.594 0
    endloop
  endfacet
  facet normal 0.707107 0.707107 0
    outer loop
      vertex 1.777 1.594 0
      vertex 1.594 1.777 3
      vertex 1.777 1.594 3
    endloop
  endfacet
  facet normal -0.334207 0.9425 0
    outer loop
      vertex 1.061 1.588 0
      vertex 1.061 1.588 3
      vertex 1.594 1.777 0
    endloop
  endfacet
  facet normal -0.334207 0.9425 0
    outer loop
      vertex 1.594 1.777 0
      vertex 1.061 1.588 3
      vertex 1.594 1.777 3
    endloop
  endfacet
  facet normal -0.685629 0.727951 0
    outer loop
      vertex 0.975 1.507 0
      vertex 0.975 1.507 3
      vertex 1.061 1.588 0
    endloop
  endfacet
  facet normal -0.685629 0.727951 0
    outer loop
      vertex 1.061 1.588 0
      vertex 0.975 1.507 3
      vertex 1.061 1.588 3
    endloop
  endfacet
  facet normal -0.8392 0.543823 0
    outer loop
      vertex 0.778 1.203 0
      vertex 0.778 1.203 3
      vertex 0.975 1.507 0
    endloop
  endfacet
  facet normal -0.8392 0.543823 0
    outer loop
      vertex 0.975 1.507 0
      vertex 0.778 1.203 3
      vertex 0.975 1.507 3
    endloop
  endfacet
  facet normal 0.382693 0.923875 0
    outer loop
      vertex 0.3 1.401 0
      vertex 0.3 1.401 3
      vertex 0.778 1.203 0
    endloop
  endfacet
  facet normal 0.382693 0.923875 0
    outer loop
      vertex 0.778 1.203 0
      vertex 0.3 1.401 3
      vertex 0.778 1.203 3
    endloop
  endfacet
  facet normal 0.977722 -0.209906 0
    outer loop
      vertex 0.3 1.401 3
      vertex 0.3 1.401 0
      vertex 0.376 1.755 0
    endloop
  endfacet
  facet normal 0.977722 -0.209906 0
    outer loop
      vertex 0.376 1.755 3
      vertex 0.3 1.401 3
      vertex 0.376 1.755 0
    endloop
  endfacet
  facet normal 0.999677 0.0254155 0
    outer loop
      vertex 0.376 1.755 0
      vertex 0.373 1.873 0
      vertex 0.373 1.873 3
    endloop
  endfacet
  facet normal 0.999677 0.0254155 0
    outer loop
      vertex 0.376 1.755 3
      vertex 0.376 1.755 0
      vertex 0.373 1.873 3
    endloop
  endfacet
  facet normal 0.902403 0.430893 0
    outer loop
      vertex 0.373 1.873 0
      vertex 0.129 2.384 0
      vertex 0.129 2.384 3
    endloop
  endfacet
  facet normal 0.902403 0.430893 0
    outer loop
      vertex 0.373 1.873 3
      vertex 0.373 1.873 0
      vertex 0.129 2.384 3
    endloop
  endfacet
  facet normal 0 1 0
    outer loop
      vertex -0.129 2.384 0
      vertex -0.129 2.384 3
      vertex 0.129 2.384 0
    endloop
  endfacet
  facet normal 0 1 0
    outer loop
      vertex 0.129 2.384 0
      vertex -0.129 2.384 3
      vertex 0.129 2.384 3
    endloop
  endfacet
  facet normal -0.902403 0.430893 0
    outer loop
      vertex -0.373 1.873 0
      vertex -0.373 1.873 3
      vertex -0.129 2.384 0
    endloop
  endfacet
  facet normal -0.902403 0.430893 0
    outer loop
      vertex -0.129 2.384 0
      vertex -0.373 1.873 3
      vertex -0.129 2.384 3
    endloop
  endfacet
  facet normal -0.999677 0.0254155 0
    outer loop
      vertex -0.376 1.755 0
      vertex -0.376 1.755 3
      vertex -0.373 1.873 0
    endloop
  endfacet
  facet normal -0.999677 0.0254155 0
    outer loop
      vertex -0.373 1.873 0
      vertex -0.376 1.755 3
      vertex -0.373 1.873 3
    endloop
  endfacet
  facet normal -0.977722 -0.209906 0
    outer loop
      vertex -0.376 1.755 0
      vertex -0.3 1.401 0
      vertex -0.376 1.755 3
    endloop
  endfacet
  facet normal -0.977722 -0.209906 0
    outer loop
      vertex -0.376 1.755 3
      vertex -0.3 1.401 0
      vertex -0.3 1.401 3
    endloop
  endfacet
  facet normal -0.382693 0.923875 0
    outer loop
      vertex -0.778 1.203 0
      vertex -0.778 1.203 3
      vertex -0.3 1.401 0
    endloop
  endfacet
  facet normal -0.382693 0.923875 0
    outer loop
      vertex -0.3 1.401 0
      vertex -0.778 1.203 3
      vertex -0.3 1.401 3
    endloop
  endfacet
  facet normal 0.8392 0.543823 0
    outer loop
      vertex -0.778 1.203 0
      vertex -0.975 1.507 0
      vertex -0.975 1.507 3
    endloop
  endfacet
  facet normal 0.8392 0.543823 0
    outer loop
      vertex -0.778 1.203 3
      vertex -0.778 1.203 0
      vertex -0.975 1.507 3
    endloop
  endfacet
  facet normal 0.685629 0.727951 0
    outer loop
      vertex -1.061 1.588 0
      vertex -1.061 1.588 3
      vertex -0.975 1.507 0
    endloop
  endfacet
  facet normal 0.685629 0.727951 0
    outer loop
      vertex -0.975 1.507 0
      vertex -1.061 1.588 3
      vertex -0.975 1.507 3
    endloop
  endfacet
  facet normal 0.334207 0.9425 0
    outer loop
      vertex -1.594 1.777 0
      vertex -1.594 1.777 3
      vertex -1.061 1.588 0
    endloop
  endfacet
  facet normal 0.334207 0.9425 0
    outer loop
      vertex -1.061 1.588 0
      vertex -1.594 1.777 3
      vertex -1.061 1.588 3
    endloop
  endfacet
  facet normal -0.707107 0.707107 0
    outer loop
      vertex -1.777 1.594 0
      vertex -1.777 1.594 3
      vertex -1.594 1.777 0
    endloop
  endfacet
  facet normal -0.707107 0.707107 0
    outer loop
      vertex -1.594 1.777 0
      vertex -1.777 1.594 3
      vertex -1.594 1.777 3
    endloop
  endfacet
  facet normal -0.9425 -0.334207 0
    outer loop
      vertex -1.777 1.594 0
      vertex -1.588 1.061 0
      vertex -1.777 1.594 3
    endloop
  endfacet
  facet normal -0.9425 -0.334207 0
    outer loop
      vertex -1.777 1.594 3
      vertex -1.588 1.061 0
      vertex -1.588 1.061 3
    endloop
  endfacet
  facet normal -0.727951 -0.685629 0
    outer loop
      vertex -1.588 1.061 0
      vertex -1.507 0.975 0
      vertex -1.588 1.061 3
    endloop
  endfacet
  facet normal -0.727951 -0.685629 0
    outer loop
      vertex -1.588 1.061 3
      vertex -1.507 0.975 0
      vertex -1.507 0.975 3
    endloop
  endfacet
  facet normal -0.543823 -0.8392 0
    outer loop
      vertex -1.507 0.975 3
      vertex -1.507 0.975 0
      vertex -1.203 0.778 0
    endloop
  endfacet
  facet normal -0.543823 -0.8392 0
    outer loop
      vertex -1.203 0.778 3
      vertex -1.507 0.975 3
      vertex -1.203 0.778 0
    endloop
  endfacet
  facet normal -0.923875 0.382693 0
    outer loop
      vertex -1.401 0.3 0
      vertex -1.401 0.3 3
      vertex -1.203 0.778 0
    endloop
  endfacet
  facet normal -0.923875 0.382693 0
    outer loop
      vertex -1.203 0.778 0
      vertex -1.401 0.3 3
      vertex -1.203 0.778 3
    endloop
  endfacet
  facet normal 0.209906 0.977722 0
    outer loop
      vertex -1.755 0.376 0
      vertex -1.755 0.376 3
      vertex -1.401 0.3 0
    endloop
  endfacet
  facet normal 0.209906 0.977722 0
    outer loop
      vertex -1.401 0.3 0
      vertex -1.755 0.376 3
      vertex -1.401 0.3 3
    endloop
  endfacet
  facet normal -0.0254155 0.999677 0
    outer loop
      vertex -1.873 0.373 0
      vertex -1.873 0.373 3
      vertex -1.755 0.376 0
    endloop
  endfacet
  facet normal -0.0254155 0.999677 0
    outer loop
      vertex -1.755 0.376 0
      vertex -1.873 0.373 3
      vertex -1.755 0.376 3
    endloop
  endfacet
  facet normal -0.430893 0.902403 0
    outer loop
      vertex -2.384 0.129 0
      vertex -2.384 0.129 3
      vertex -1.873 0.373 0
    endloop
  endfacet
  facet normal -0.430893 0.902403 0
    outer loop
      vertex -1.873 0.373 0
      vertex -2.384 0.129 3
      vertex -1.873 0.373 3
    endloop
  endfacet
  facet normal 0.987688 0.156434 0
    outer loop
      vertex -1.2 0 3
      vertex -1.14127 -0.37082 3
      vertex -1.14127 -0.37082 0
    endloop
  endfacet
  facet normal 0.987688 0.156434 0
    outer loop
      vertex -1.2 0 0
      vertex -1.2 0 3
      vertex -1.14127 -0.37082 0
    endloop
  endfacet
  facet normal 0.987688 -0.156434 0
    outer loop
      vertex -1.14127 0.37082 0
      vertex -1.14127 0.37082 3
      vertex -1.2 0 3
    endloop
  endfacet
  facet normal 0.987688 -0.156434 0
    outer loop
      vertex -1.2 0 0
      vertex -1.14127 0.37082 0
      vertex -1.2 0 3
    endloop
  endfacet
  facet normal 0.891006 -0.453992 0
    outer loop
      vertex -0.97082 0.705342 0
      vertex -0.97082 0.705342 3
      vertex -1.14127 0.37082 3
    endloop
  endfacet
  facet normal 0.891006 -0.453992 0
    outer loop
      vertex -1.14127 0.37082 0
      vertex -0.97082 0.705342 0
      vertex -1.14127 0.37082 3
    endloop
  endfacet
  facet normal 0.707107 -0.707107 0
    outer loop
      vertex -0.705342 0.97082 0
      vertex -0.705342 0.97082 3
      vertex -0.97082 0.705342 3
    endloop
  endfacet
  facet normal 0.707107 -0.707107 0
    outer loop
      vertex -0.97082 0.705342 0
      vertex -0.705342 0.97082 0
      vertex -0.97082 0.705342 3
    endloop
  endfacet
  facet normal 0.453992 -0.891006 0
    outer loop
      vertex -0.37082 1.14127 0
      vertex -0.37082 1.14127 3
      vertex -0.705342 0.97082 3
    endloop
  endfacet
  facet normal 0.453992 -0.891006 0
    outer loop
      vertex -0.705342 0.97082 0
      vertex -0.37082 1.14127 0
      vertex -0.705342 0.97082 3
    endloop
  endfacet
  facet normal 0.156434 -0.987688 0
    outer loop
      vertex 0 1.2 0
      vertex 0 1.2 3
      vertex -0.37082 1.14127 3
    endloop
  endfacet
  facet normal 0.156434 -0.987688 0
    outer loop
      vertex -0.37082 1.14127 0
      vertex 0 1.2 0
      vertex -0.37082 1.14127 3
    endloop
  endfacet
  facet normal -0.156434 -0.987688 0
    outer loop
      vertex 0.37082 1.14127 0
      vertex 0.37082 1.14127 3
      vertex 0 1.2 3
    endloop
  endfacet
  facet normal -0.156434 -0.987688 0
    outer loop
      vertex 0 1.2 0
      vertex 0.37082 1.14127 0
      vertex 0 1.2 3
    endloop
  endfacet
  facet normal -0.453992 -0.891006 0
    outer loop
      vertex 0.705342 0.97082 0
      vertex 0.705342 0.97082 3
      vertex 0.37082 1.14127 3
    endloop
  endfacet
  facet normal -0.453992 -0.891006 0
    outer loop
      vertex 0.37082 1.14127 0
      vertex 0.705342 0.97082 0
      vertex 0.37082 1.14127 3
    endloop
  endfacet
  facet normal -0.707107 -0.707107 0
    outer loop
      vertex 0.97082 0.705342 0
      vertex 0.97082 0.705342 3
      vertex 0.705342 0.97082 3
    endloop
  endfacet
  facet normal -0.707107 -0.707107 0
    outer loop
      vertex 0.705342 0.97082 0
      vertex 0.97082 0.705342 0
      vertex 0.705342 0.97082 3
    endloop
  endfacet
  facet normal -0.891006 -0.453992 0
    outer loop
      vertex 1.14127 0.37082 3
      vertex 0.97082 0.705342 3
      vertex 1.14127 0.37082 0
    endloop
  endfacet
  facet normal -0.891006 -0.453992 0
    outer loop
      vertex 1.14127 0.37082 0
      vertex 0.97082 0.705342 3
      vertex 0.97082 0.705342 0
    endloop
  endfacet
  facet normal -0.987688 -0.156434 0
    outer loop
      vertex 1.2 0 3
      vertex 1.14127 0.37082 3
      vertex 1.2 0 0
    endloop
  endfacet
  facet normal -0.987688 -0.156434 0
    outer loop
      vertex 1.2 0 0
      vertex 1.14127 0.37082 3
      vertex 1.14127 0.37082 0
    endloop
  endfacet
  facet normal -0.987688 0.156434 0
    outer loop
      vertex 1.2 0 3
      vertex 1.2 0 0
      vertex 1.14127 -0.37082 3
    endloop
  endfacet
  facet normal -0.987688 0.156434 0
    outer loop
      vertex 1.14127 -0.37082 3
      vertex 1.2 0 0
      vertex 1.14127 -0.37082 0
    endloop
  endfacet
  facet normal -0.891006 0.453992 0
    outer loop
      vertex 1.14127 -0.37082 3
      vertex 1.14127 -0.37082 0
      vertex 0.97082 -0.705342 3
    endloop
  endfacet
  facet normal -0.891006 0.453992 0
    outer loop
      vertex 0.97082 -0.705342 3
      vertex 1.14127 -0.37082 0
      vertex 0.97082 -0.705342 0
    endloop
  endfacet
  facet normal -0.707107 0.707107 0
    outer loop
      vertex 0.97082 -0.705342 3
      vertex 0.97082 -0.705342 0
      vertex 0.705342 -0.97082 3
    endloop
  endfacet
  facet normal -0.707107 0.707107 0
    outer loop
      vertex 0.705342 -0.97082 3
      vertex 0.97082 -0.705342 0
      vertex 0.705342 -0.97082 0
    endloop
  endfacet
  facet normal -0.453992 0.891006 0
    outer loop
      vertex 0.705342 -0.97082 3
      vertex 0.705342 -0.97082 0
      vertex 0.37082 -1.14127 3
    endloop
  endfacet
  facet normal -0.453992 0.891006 0
    outer loop
      vertex 0.37082 -1.14127 3
      vertex 0.705342 -0.97082 0
      vertex 0.37082 -1.14127 0
    endloop
  endfacet
  facet normal -0.156434 0.987688 0
    outer loop
      vertex 0.37082 -1.14127 3
      vertex 0.37082 -1.14127 0
      vertex 0 -1.2 3
    endloop
  endfacet
  facet normal -0.156434 0.987688 0
    outer loop
      vertex 0 -1.2 3
      vertex 0.37082 -1.14127 0
      vertex 0 -1.2 0
    endloop
  endfacet
  facet normal 0.156434 0.987688 0
    outer loop
      vertex 0 -1.2 3
      vertex 0 -1.2 0
      vertex -0.37082 -1.14127 3
    endloop
  endfacet
  facet normal 0.156434 0.987688 0
    outer loop
      vertex -0.37082 -1.14127 3
      vertex 0 -1.2 0
      vertex -0.37082 -1.14127 0
    endloop
  endfacet
  facet normal 0.453992 0.891006 0
    outer loop
      vertex -0.37082 -1.14127 3
      vertex -0.37082 -1.14127 0
      vertex -0.705342 -0.97082 3
    endloop
  endfacet
  facet normal 0.453992 0.891006 0
    outer loop
      vertex -0.705342 -0.97082 3
      vertex -0.37082 -1.14127 0
      vertex -0.705342 -0.97082 0
    endloop
  endfacet
  facet normal 0.707107 0.707107 0
    outer loop
      vertex -0.705342 -0.97082 3
      vertex -0.705342 -0.97082 0
      vertex -0.97082 -0.705342 3
    endloop
  endfacet
  facet normal 0.707107 0.707107 0
    outer loop
      vertex -0.97082 -0.705342 3
      vertex -0.705342 -0.97082 0
      vertex -0.97082 -0.705342 0
    endloop
  endfacet
  facet normal 0.891006 0.453992 0
    outer loop
      vertex -1.14127 -0.37082 3
      vertex -0.97082 -0.705342 3
      vertex -0.97082 -0.705342 0
    endloop
  endfacet
  facet normal 0.891006 0.453992 0
    outer loop
      vertex -1.14127 -0.37082 0
      vertex -1.14127 -0.37082 3
      vertex -0.97082 -0.705342 0
    endloop
  endfacet
endsolid OpenSCAD_Model
