  0
SECTION
  2
HEADER
  9
$ACADVER
  1
AC1014
  9
$HANDSEED
  5
FFFF
  9
$MEASUREMENT
 70
     1
  0
ENDSEC
  0
SECTION
  2
TABLES
  0
TABLE
  2
VPORT
  5
8
330
0
100
AcDbSymbolTable
 70
     4
  0
VPORT
  5
2E
330
8
100
AcDbSymbolTableRecord
100
AcDbViewportTableRecord
  2
*ACTIVE
 70
     0
 10
0.0
 20
0.0
 11
1.0
 21
1.0
 12
210.0
 22
148.5
 13
0.0
 23
0.0
 14
10.0
 24
10.0
 15
10.0
 25
10.0
 16
0.0
 26
0.0
 36
1.0
 17
0.0
 27
0.0
 37
0.0
 40
341.0
 41
1.24
 42
50.0
 43
0.0
 44
0.0
 50
0.0
 51
0.0
 71
     0
 72
   100
 73
     1
 74
     3
 75
     0
 76
     0
 77
     0
 78
     0
  0
ENDTAB
  0
TABLE
  2
LTYPE
  5
5
330
0
100
AcDbSymbolTable
 70
     1
  0
LTYPE
  5
14
330
5
100
AcDbSymbolTableRecord
100
AcDbLinetypeTableRecord
  2
BYBLOCK
 70
     0
  3

 72
    65
 73
     0
 40
0.0
  0
LTYPE
  5
15
330
5
100
AcDbSymbolTableRecord
100
AcDbLinetypeTableRecord
  2
BYLAYER
 70
     0
  3

 72
    65
 73
     0
 40
0.0
  0
LTYPE
  5
16
330
5
100
AcDbSymbolTableRecord
100
AcDbLinetypeTableRecord
  2
CONTINUOUS
 70
     0
  3
Solid line
 72
    65
 73
     0
 40
0.0
  0
ENDTAB
  0
TABLE
  2
LAYER
  5
2
100
AcDbSymbolTable
 70
2
  0
LAYER
  5
50
100
AcDbSymbolTableRecord
100
AcDbLayerTableRecord
  2
0
 70
0
  6
CONTINUOUS
  0
LAYER
  5
51
100
AcDbSymbolTableRecord
100
AcDbLayerTableRecord
  2
Layer_1
 70
0
  6
CONTINUOUS
  0
ENDTAB
  0
TABLE
  2
STYLE
  5
3
330
0
100
AcDbSymbolTable
 70
     1
  0
STYLE
  5
11
330
3
100
AcDbSymbolTableRecord
100
AcDbTextStyleTableRecord
  2
STANDARD
 70
     0
 40
0.0
 41
1.0
 50
0.0
 71
     0
 42
2.5
  3
txt
  4

  0
ENDTAB
  0
TABLE
  2
VIEW
  5
6
330
0
100
AcDbSymbolTable
 70
     0
  0
ENDTAB
  0
TABLE
  2
UCS
  5
7
330
0
100
AcDbSymbolTable
 70
     0
  0
ENDTAB
  0
TABLE
  2
APPID
  5
9
330
0
100
AcDbSymbolTable
 70
     2
  0
APPID
  5
12
330
9
100
AcDbSymbolTableRecord
100
AcDbRegAppTableRecord
  2
ACAD
 70
     0
  0
ENDTAB
  0
TABLE
  2
DIMSTYLE
  5
A
330
0
100
AcDbSymbolTable
 70
     1
  0
DIMSTYLE
105
27
330
A
100
AcDbSymbolTableRecord
100
AcDbDimStyleTableRecord
  2
ISO-25
 70
     0
  3

  4

  5

  6

  7

 40
1.0
 41
2.5
 42
0.625
 43
3.75
 44
1.25
 45
0.0
 46
0.0
 47
0.0
 48
0.0
140
2.5
141
2.5
142
0.0
143
0.03937007874016
144
1.0
145
0.0
146
1.0
147
0.625
 71
     0
 72
     0
 73
     0
 74
     0
 75
     0
 76
     0
 77
     1
 78
     8
170
     0
171
     3
172
     1
173
     0
174
     0
175
     0
176
     0
177
     0
178
     0
270
     2
271
     2
272
     2
273
     2
274
     3
340
11
275
     0
280
     0
281
     0
282
     0
283
     0
284
     8
285
     0
286
     0
287
     3
288
     0
  0
ENDTAB
  0
TABLE
  2
BLOCK_RECORD
  5
1
330
0
100
AcDbSymbolTable
 70
     1
  0
BLOCK_RECORD
  5
1F
330
1
100
AcDbSymbolTableRecord
100
AcDbBlockTableRecord
  2
*MODEL_SPACE
  0
BLOCK_RECORD
  5
1B
330
1
100
AcDbSymbolTableRecord
100
AcDbBlockTableRecord
  2
*PAPER_SPACE
  0
ENDTAB
  0
ENDSEC
  0
SECTION
  2
BLOCKS
  0
BLOCK
  5
20
330
1F
100
AcDbEntity
  8
0
100
AcDbBlockBegin
  2
*MODEL_SPACE
 70
     0
 10
0.0
 20
0.0
 30
0.0
  3
*MODEL_SPACE
  1

  0
ENDBLK
  5
21
330
1F
100
AcDbEntity
  8
0
100
AcDbBlockEnd
  0
BLOCK
  5
1C
330
1B
100
AcDbEntity
 67
     1
  8
0
100
AcDbBlockBegin
  2
*PAPER_SPACE
  1

  0
ENDBLK
  5
1D
330
1B
100
AcDbEntity
 67
     1
  8
0
100
AcDbBlockEnd
  0
ENDSEC
  0
SECTION
  2
ENTITIES
  0
LINE
  5
100
100
AcDbEntity
  8
Layer_1
 62
7
100
AcDbLine
 10
14.548850
 20
0.508262
 30
0.0
 11
15.030514
 21
0.374963
 31
0.0
  0
LINE
  5
101
100
AcDbEntity
  8
Layer_1
 62
7
100
AcDbLine
 10
15.030514
 20
0.374963
 30
0.0
 11
15.511510
 21
0.188154
 31
0.0
  0
LINE
  5
102
100
AcDbEntity
  8
Layer_1
 62
7
100
AcDbLine
 10
15.511510
 20
0.188154
 30
0.0
 11
15.511510
 21
-0.188150
 31
0.0
  0
LINE
  5
103
100
AcDbEntity
  8
Layer_1
 62
7
100
AcDbLine
 10
15.511510
 20
-0.188150
 30
0.0
 11
15.030514
 21
-0.374958
 31
0.0
  0
LINE
  5
104
100
AcDbEntity
  8
Layer_1
 62
7
100
AcDbLine
 10
15.030514
 20
-0.374958
 30
0.0
 11
14.548850
 21
-0.508257
 31
0.0
  0
LINE
  5
105
100
AcDbEntity
  8
Layer_1
 62
7
100
AcDbLine
 10
14.548850
 20
-0.508257
 30
0.0
 11
14.527136
 21
-0.943354
 31
0.0
  0
LINE
  5
106
100
AcDbEntity
  8
Layer_1
 62
7
100
AcDbLine
 10
14.527136
 20
-0.943354
 30
0.0
 11
14.993133
 21
-1.123948
 31
0.0
  0
LINE
  5
107
100
AcDbEntity
  8
Layer_1
 62
7
100
AcDbLine
 10
14.993133
 20
-1.123948
 30
0.0
 11
15.453141
 21
-1.357721
 31
0.0
  0
LINE
  5
108
100
AcDbEntity
  8
Layer_1
 62
7
100
AcDbLine
 10
15.453141
 20
-1.357721
 30
0.0
 11
15.415673
 21
-1.732156
 31
0.0
  0
LINE
  5
109
100
AcDbEntity
  8
Layer_1
 62
7
100
AcDbLine
 10
15.415673
 20
-1.732156
 30
0.0
 11
14.918466
 21
-1.870146
 31
0.0
  0
LINE
  5
10a
100
AcDbEntity
  8
Layer_1
 62
7
100
AcDbLine
 10
14.918466
 20
-1.870146
 30
0.0
 11
14.425923
 21
-1.954824
 31
0.0
  0
LINE
  5
10b
100
AcDbEntity
  8
Layer_1
 62
7
100
AcDbLine
 10
14.425923
 20
-1.954824
 30
0.0
 11
14.360995
 21
-2.385594
 31
0.0
  0
LINE
  5
10c
100
AcDbEntity
  8
Layer_1
 62
7
100
AcDbLine
 10
14.360995
 20
-2.385594
 30
0.0
 11
14.806694
 21
-2.611691
 31
0.0
  0
LINE
  5
10d
100
AcDbEntity
  8
Layer_1
 62
7
100
AcDbLine
 10
14.806694
 20
-2.611691
 30
0.0
 11
15.241142
 21
-2.890106
 31
0.0
  0
LINE
  5
10e
100
AcDbEntity
  8
Layer_1
 62
7
100
AcDbLine
 10
15.241142
 20
-2.890106
 30
0.0
 11
15.166578
 21
-3.258948
 31
0.0
  0
LINE
  5
10f
100
AcDbEntity
  8
Layer_1
 62
7
100
AcDbLine
 10
15.166578
 20
-3.258948
 30
0.0
 11
14.658099
 21
-3.346744
 31
0.0
  0
LINE
  5
110
100
AcDbEntity
  8
Layer_1
 62
7
100
AcDbLine
 10
14.658099
 20
-3.346744
 30
0.0
 11
14.159576
 21
-3.381963
 31
0.0
  0
LINE
  5
111
100
AcDbEntity
  8
Layer_1
 62
7
100
AcDbLine
 10
14.159576
 20
-3.381963
 30
0.0
 11
14.052077
 21
-3.804127
 31
0.0
  0
LINE
  5
112
100
AcDbEntity
  8
Layer_1
 62
7
100
AcDbLine
 10
14.052077
 20
-3.804127
 30
0.0
 11
14.473051
 21
-4.073478
 31
0.0
  0
LINE
  5
113
100
AcDbEntity
  8
Layer_1
 62
7
100
AcDbLine
 10
14.473051
 20
-4.073478
 30
0.0
 11
14.877617
 21
-4.393763
 31
0.0
  0
LINE
  5
114
100
AcDbEntity
  8
Layer_1
 62
7
100
AcDbLine
 10
14.877617
 20
-4.393763
 30
0.0
 11
14.766701
 21
-4.753348
 31
0.0
  0
LINE
  5
115
100
AcDbEntity
  8
Layer_1
 62
7
100
AcDbLine
 10
14.766701
 20
-4.753348
 30
0.0
 11
14.252006
 21
-4.790082
 31
0.0
  0
LINE
  5
116
100
AcDbEntity
  8
Layer_1
 62
7
100
AcDbLine
 10
14.252006
 20
-4.790082
 30
0.0
 11
13.752453
 21
-4.775488
 31
0.0
  0
LINE
  5
117
100
AcDbEntity
  8
Layer_1
 62
7
100
AcDbLine
 10
13.752453
 20
-4.775488
 30
0.0
 11
13.603457
 21
-5.184852
 31
0.0
  0
LINE
  5
118
100
AcDbEntity
  8
Layer_1
 62
7
100
AcDbLine
 10
13.603457
 20
-5.184852
 30
0.0
 11
13.995520
 21
-5.494780
 31
0.0
  0
LINE
  5
119
100
AcDbEntity
  8
Layer_1
 62
7
100
AcDbLine
 10
13.995520
 20
-5.494780
 30
0.0
 11
14.366185
 21
-5.853755
 31
0.0
  0
LINE
  5
11a
100
AcDbEntity
  8
Layer_1
 62
7
100
AcDbLine
 10
14.366185
 20
-5.853755
 30
0.0
 11
14.220016
 21
-6.200510
 31
0.0
  0
LINE
  5
11b
100
AcDbEntity
  8
Layer_1
 62
7
100
AcDbLine
 10
14.220016
 20
-6.200510
 30
0.0
 11
13.704224
 21
-6.185815
 31
0.0
  0
LINE
  5
11c
100
AcDbEntity
  8
Layer_1
 62
7
100
AcDbLine
 10
13.704224
 20
-6.185815
 30
0.0
 11
13.208605
 21
-6.121553
 31
0.0
  0
LINE
  5
11d
100
AcDbEntity
  8
Layer_1
 62
7
100
AcDbLine
 10
13.208605
 20
-6.121553
 30
0.0
 11
13.019590
 21
-6.514048
 31
0.0
  0
LINE
  5
11e
100
AcDbEntity
  8
Layer_1
 62
7
100
AcDbLine
 10
13.019590
 20
-6.514048
 30
0.0
 11
13.378845
 21
-6.861472
 31
0.0
  0
LINE
  5
11f
100
AcDbEntity
  8
Layer_1
 62
7
100
AcDbLine
 10
13.378845
 20
-6.861472
 30
0.0
 11
13.711926
 21
-7.255570
 31
0.0
  0
LINE
  5
120
100
AcDbEntity
  8
Layer_1
 62
7
100
AcDbLine
 10
13.711926
 20
-7.255570
 30
0.0
 11
13.531956
 21
-7.586049
 31
0.0
  0
LINE
  5
121
100
AcDbEntity
  8
Layer_1
 62
7
100
AcDbLine
 10
13.531956
 20
-7.586049
 30
0.0
 11
13.020191
 21
-7.520068
 31
0.0
  0
LINE
  5
122
100
AcDbEntity
  8
Layer_1
 62
7
100
AcDbLine
 10
13.020191
 20
-7.520068
 30
0.0
 11
12.533434
 21
-7.406779
 31
0.0
  0
LINE
  5
123
100
AcDbEntity
  8
Layer_1
 62
7
100
AcDbLine
 10
12.533434
 20
-7.406779
 30
0.0
 11
12.306276
 21
-7.778502
 31
0.0
  0
LINE
  5
124
100
AcDbEntity
  8
Layer_1
 62
7
100
AcDbLine
 10
12.306276
 20
-7.778502
 30
0.0
 11
12.629155
 21
-8.159971
 31
0.0
  0
LINE
  5
125
100
AcDbEntity
  8
Layer_1
 62
7
100
AcDbLine
 10
12.629155
 20
-8.159971
 30
0.0
 11
12.921343
 21
-8.585277
 31
0.0
  0
LINE
  5
126
100
AcDbEntity
  8
Layer_1
 62
7
100
AcDbLine
 10
12.921343
 20
-8.585277
 30
0.0
 11
12.709363
 21
-8.896192
 31
0.0
  0
LINE
  5
127
100
AcDbEntity
  8
Layer_1
 62
7
100
AcDbLine
 10
12.709363
 20
-8.896192
 30
0.0
 11
12.206708
 21
-8.779587
 31
0.0
  0
LINE
  5
128
100
AcDbEntity
  8
Layer_1
 62
7
100
AcDbLine
 10
12.206708
 20
-8.779587
 30
0.0
 11
11.733650
 21
-8.618393
 31
0.0
  0
LINE
  5
129
100
AcDbEntity
  8
Layer_1
 62
7
100
AcDbLine
 10
11.733650
 20
-8.618393
 30
0.0
 11
11.470610
 21
-8.965653
 31
0.0
  0
LINE
  5
12a
100
AcDbEntity
  8
Layer_1
 62
7
100
AcDbLine
 10
11.470610
 20
-8.965653
 30
0.0
 11
11.753902
 21
-9.377373
 31
0.0
  0
LINE
  5
12b
100
AcDbEntity
  8
Layer_1
 62
7
100
AcDbLine
 10
11.753902
 20
-9.377373
 30
0.0
 11
12.002289
 21
-9.829657
 31
0.0
  0
LINE
  5
12c
100
AcDbEntity
  8
Layer_1
 62
7
100
AcDbLine
 10
12.002289
 20
-9.829657
 30
0.0
 11
11.760407
 21
-10.117924
 31
0.0
  0
LINE
  5
12d
100
AcDbEntity
  8
Layer_1
 62
7
100
AcDbLine
 10
11.760407
 20
-10.117924
 30
0.0
 11
11.271861
 21
-9.951848
 31
0.0
  0
LINE
  5
12e
100
AcDbEntity
  8
Layer_1
 62
7
100
AcDbLine
 10
11.271861
 20
-9.951848
 30
0.0
 11
10.817204
 21
-9.744355
 31
0.0
  0
LINE
  5
12f
100
AcDbEntity
  8
Layer_1
 62
7
100
AcDbLine
 10
10.817204
 20
-9.744355
 30
0.0
 11
10.520896
 21
-10.063698
 31
0.0
  0
LINE
  5
130
100
AcDbEntity
  8
Layer_1
 62
7
100
AcDbLine
 10
10.520896
 20
-10.063698
 30
0.0
 11
10.761784
 21
-10.501580
 31
0.0
  0
LINE
  5
131
100
AcDbEntity
  8
Layer_1
 62
7
100
AcDbLine
 10
10.761784
 20
-10.501580
 30
0.0
 11
10.963906
 21
-10.976348
 31
0.0
  0
LINE
  5
132
100
AcDbEntity
  8
Layer_1
 62
7
100
AcDbLine
 10
10.963906
 20
-10.976348
 30
0.0
 11
10.694522
 21
-11.239097
 31
0.0
  0
LINE
  5
133
100
AcDbEntity
  8
Layer_1
 62
7
100
AcDbLine
 10
10.694522
 20
-11.239097
 30
0.0
 11
10.224941
 21
-11.025201
 31
0.0
  0
LINE
  5
134
100
AcDbEntity
  8
Layer_1
 62
7
100
AcDbLine
 10
10.224941
 20
-11.025201
 30
0.0
 11
9.793200
 21
-10.773470
 31
0.0
  0
LINE
  5
135
100
AcDbEntity
  8
Layer_1
 62
7
100
AcDbLine
 10
9.793200
 20
-10.773470
 30
0.0
 11
9.466570
 21
-11.061726
 31
0.0
  0
LINE
  5
136
100
AcDbEntity
  8
Layer_1
 62
7
100
AcDbLine
 10
9.466570
 20
-11.061726
 30
0.0
 11
9.662664
 21
-11.521415
 31
0.0
  0
LINE
  5
137
100
AcDbEntity
  8
Layer_1
 62
7
100
AcDbLine
 10
9.662664
 20
-11.521415
 30
0.0
 11
9.816506
 21
-12.013949
 31
0.0
  0
LINE
  5
138
100
AcDbEntity
  8
Layer_1
 62
7
100
AcDbLine
 10
9.816506
 20
-12.013949
 30
0.0
 11
9.522301
 21
-12.248569
 31
0.0
  0
LINE
  5
139
100
AcDbEntity
  8
Layer_1
 62
7
100
AcDbLine
 10
9.522301
 20
-12.248569
 30
0.0
 11
9.076350
 21
-11.988984
 31
0.0
  0
LINE
  5
13a
100
AcDbEntity
  8
Layer_1
 62
7
100
AcDbLine
 10
9.076350
 20
-11.988984
 30
0.0
 11
8.671821
 21
-11.695515
 31
0.0
  0
LINE
  5
13b
100
AcDbEntity
  8
Layer_1
 62
7
100
AcDbLine
 10
8.671821
 20
-11.695515
 30
0.0
 11
8.318112
 21
-11.949817
 31
0.0
  0
LINE
  5
13c
100
AcDbEntity
  8
Layer_1
 62
7
100
AcDbLine
 10
8.318112
 20
-11.949817
 30
0.0
 11
8.467458
 21
-12.426747
 31
0.0
  0
LINE
  5
13d
100
AcDbEntity
  8
Layer_1
 62
7
100
AcDbLine
 10
8.467458
 20
-12.426747
 30
0.0
 11
8.571500
 21
-12.932151
 31
0.0
  0
LINE
  5
13e
100
AcDbEntity
  8
Layer_1
 62
7
100
AcDbLine
 10
8.571500
 20
-12.932151
 30
0.0
 11
8.255394
 21
-13.136313
 31
0.0
  0
LINE
  5
13f
100
AcDbEntity
  8
Layer_1
 62
7
100
AcDbLine
 10
8.255394
 20
-13.136313
 30
0.0
 11
7.837504
 21
-12.833613
 31
0.0
  0
LINE
  5
140
100
AcDbEntity
  8
Layer_1
 62
7
100
AcDbLine
 10
7.837504
 20
-12.833613
 30
0.0
 11
7.464206
 21
-12.501327
 31
0.0
  0
LINE
  5
141
100
AcDbEntity
  8
Layer_1
 62
7
100
AcDbLine
 10
7.464206
 20
-12.501327
 30
0.0
 11
7.086934
 21
-12.719144
 31
0.0
  0
LINE
  5
142
100
AcDbEntity
  8
Layer_1
 62
7
100
AcDbLine
 10
7.086934
 20
-12.719144
 30
0.0
 11
7.188055
 21
-13.208576
 31
0.0
  0
LINE
  5
143
100
AcDbEntity
  8
Layer_1
 62
7
100
AcDbLine
 10
7.188055
 20
-13.208576
 30
0.0
 11
7.241254
 21
-13.721826
 31
0.0
  0
LINE
  5
144
100
AcDbEntity
  8
Layer_1
 62
7
100
AcDbLine
 10
7.241254
 20
-13.721826
 30
0.0
 11
6.906391
 21
-13.893501
 31
0.0
  0
LINE
  5
145
100
AcDbEntity
  8
Layer_1
 62
7
100
AcDbLine
 10
6.906391
 20
-13.893501
 30
0.0
 11
6.520718
 21
-13.550697
 31
0.0
  0
LINE
  5
146
100
AcDbEntity
  8
Layer_1
 62
7
100
AcDbLine
 10
6.520718
 20
-13.550697
 30
0.0
 11
6.182359
 21
-13.182891
 31
0.0
  0
LINE
  5
147
100
AcDbEntity
  8
Layer_1
 62
7
100
AcDbLine
 10
6.182359
 20
-13.182891
 30
0.0
 11
5.785275
 21
-13.362063
 31
0.0
  0
LINE
  5
148
100
AcDbEntity
  8
Layer_1
 62
7
100
AcDbLine
 10
5.785275
 20
-13.362063
 30
0.0
 11
5.837161
 21
-13.859130
 31
0.0
  0
LINE
  5
149
100
AcDbEntity
  8
Layer_1
 62
7
100
AcDbLine
 10
5.837161
 20
-13.859130
 30
0.0
 11
5.838996
 21
-14.375131
 31
0.0
  0
LINE
  5
14a
100
AcDbEntity
  8
Layer_1
 62
7
100
AcDbLine
 10
5.838996
 20
-14.375131
 30
0.0
 11
5.488704
 21
-14.512609
 31
0.0
  0
LINE
  5
14b
100
AcDbEntity
  8
Layer_1
 62
7
100
AcDbLine
 10
5.488704
 20
-14.512609
 30
0.0
 11
5.139079
 21
-14.133108
 31
0.0
  0
LINE
  5
14c
100
AcDbEntity
  8
Layer_1
 62
7
100
AcDbLine
 10
5.139079
 20
-14.133108
 30
0.0
 11
4.839023
 21
-13.733442
 31
0.0
  0
LINE
  5
14d
100
AcDbEntity
  8
Layer_1
 62
7
100
AcDbLine
 10
4.839023
 20
-13.733442
 30
0.0
 11
4.426073
 21
-13.872185
 31
0.0
  0
LINE
  5
14e
100
AcDbEntity
  8
Layer_1
 62
7
100
AcDbLine
 10
4.426073
 20
-13.872185
 30
0.0
 11
4.428218
 21
-14.371950
 31
0.0
  0
LINE
  5
14f
100
AcDbEntity
  8
Layer_1
 62
7
100
AcDbLine
 10
4.428218
 20
-14.371950
 30
0.0
 11
4.378662
 21
-14.885566
 31
0.0
  0
LINE
  5
150
100
AcDbEntity
  8
Layer_1
 62
7
100
AcDbLine
 10
4.378662
 20
-14.885566
 30
0.0
 11
4.016424
 21
-14.987482
 31
0.0
  0
LINE
  5
151
100
AcDbEntity
  8
Layer_1
 62
7
100
AcDbLine
 10
4.016424
 20
-14.987482
 30
0.0
 11
3.706324
 21
-14.575057
 31
0.0
  0
LINE
  5
152
100
AcDbEntity
  8
Layer_1
 62
7
100
AcDbLine
 10
3.706324
 20
-14.575057
 30
0.0
 11
3.447552
 21
-14.147501
 31
0.0
  0
LINE
  5
153
100
AcDbEntity
  8
Layer_1
 62
7
100
AcDbLine
 10
3.447552
 20
-14.147501
 30
0.0
 11
3.022838
 21
-14.244439
 31
0.0
  0
LINE
  5
154
100
AcDbEntity
  8
Layer_1
 62
7
100
AcDbLine
 10
3.022838
 20
-14.244439
 30
0.0
 11
2.975202
 21
-14.741932
 31
0.0
  0
LINE
  5
155
100
AcDbEntity
  8
Layer_1
 62
7
100
AcDbLine
 10
2.975202
 20
-14.741932
 30
0.0
 11
2.874756
 21
-15.248061
 31
0.0
  0
LINE
  5
156
100
AcDbEntity
  8
Layer_1
 62
7
100
AcDbLine
 10
2.874756
 20
-15.248061
 30
0.0
 11
2.504170
 21
-15.313407
 31
0.0
  0
LINE
  5
157
100
AcDbEntity
  8
Layer_1
 62
7
100
AcDbLine
 10
2.504170
 20
-15.313407
 30
0.0
 11
2.236663
 21
-14.872155
 31
0.0
  0
LINE
  5
158
100
AcDbEntity
  8
Layer_1
 62
7
100
AcDbLine
 10
2.236663
 20
-14.872155
 30
0.0
 11
2.021748
 21
-14.420955
 31
0.0
  0
LINE
  5
159
100
AcDbEntity
  8
Layer_1
 62
7
100
AcDbLine
 10
2.021748
 20
-14.420955
 30
0.0
 11
1.589494
 21
-14.475125
 31
0.0
  0
LINE
  5
15a
100
AcDbEntity
  8
Layer_1
 62
7
100
AcDbLine
 10
1.589494
 20
-14.475125
 30
0.0
 11
1.492559
 21
-14.965401
 31
0.0
  0
LINE
  5
15b
100
AcDbEntity
  8
Layer_1
 62
7
100
AcDbLine
 10
1.492559
 20
-14.965401
 30
0.0
 11
1.342219
 21
-15.459016
 31
0.0
  0
LINE
  5
15c
100
AcDbEntity
  8
Layer_1
 62
7
100
AcDbLine
 10
1.342219
 20
-15.459016
 30
0.0
 11
0.966968
 21
-15.487137
 31
0.0
  0
LINE
  5
15d
100
AcDbEntity
  8
Layer_1
 62
7
100
AcDbLine
 10
0.966968
 20
-15.487137
 30
0.0
 11
0.744735
 21
-15.021445
 31
0.0
  0
LINE
  5
15e
100
AcDbEntity
  8
Layer_1
 62
7
100
AcDbLine
 10
0.744735
 20
-15.021445
 30
0.0
 11
0.575814
 21
-14.551090
 31
0.0
  0
LINE
  5
15f
100
AcDbEntity
  8
Layer_1
 62
7
100
AcDbLine
 10
0.575814
 20
-14.551090
 30
0.0
 11
0.140311
 21
-14.561950
 31
0.0
  0
LINE
  5
160
100
AcDbEntity
  8
Layer_1
 62
7
100
AcDbLine
 10
0.140311
 20
-14.561950
 30
0.0
 11
-0.004954
 21
-15.040139
 31
0.0
  0
LINE
  5
161
100
AcDbEntity
  8
Layer_1
 62
7
100
AcDbLine
 10
-0.004954
 20
-15.040139
 30
0.0
 11
-0.203698
 21
-15.516333
 31
0.0
  0
LINE
  5
162
100
AcDbEntity
  8
Layer_1
 62
7
100
AcDbLine
 10
-0.203698
 20
-15.516333
 30
0.0
 11
-0.579883
 21
-15.506952
 31
0.0
  0
LINE
  5
163
100
AcDbEntity
  8
Layer_1
 62
7
100
AcDbLine
 10
-0.579883
 20
-15.506952
 30
0.0
 11
-0.754644
 21
-15.021445
 31
0.0
  0
LINE
  5
164
100
AcDbEntity
  8
Layer_1
 62
7
100
AcDbLine
 10
-0.754644
 20
-15.021445
 30
0.0
 11
-0.875895
 21
-14.536607
 31
0.0
  0
LINE
  5
165
100
AcDbEntity
  8
Layer_1
 62
7
100
AcDbLine
 10
-0.875895
 20
-14.536607
 30
0.0
 11
-1.310311
 21
-14.504052
 31
0.0
  0
LINE
  5
166
100
AcDbEntity
  8
Layer_1
 62
7
100
AcDbLine
 10
-1.310311
 20
-14.504052
 30
0.0
 11
-1.502468
 21
-14.965401
 31
0.0
  0
LINE
  5
167
100
AcDbEntity
  8
Layer_1
 62
7
100
AcDbLine
 10
-1.502468
 20
-14.965401
 30
0.0
 11
-1.747637
 21
-15.419440
 31
0.0
  0
LINE
  5
168
100
AcDbEntity
  8
Layer_1
 62
7
100
AcDbLine
 10
-1.747637
 20
-15.419440
 30
0.0
 11
-2.121020
 21
-15.372648
 31
0.0
  0
LINE
  5
169
100
AcDbEntity
  8
Layer_1
 62
7
100
AcDbLine
 10
-2.121020
 20
-15.372648
 30
0.0
 11
-2.246572
 21
-14.872155
 31
0.0
  0
LINE
  5
16a
100
AcDbEntity
  8
Layer_1
 62
7
100
AcDbLine
 10
-2.246572
 20
-14.872155
 30
0.0
 11
-2.318945
 21
-14.377654
 31
0.0
  0
LINE
  5
16b
100
AcDbEntity
  8
Layer_1
 62
7
100
AcDbLine
 10
-2.318945
 20
-14.377654
 30
0.0
 11
-2.747962
 21
-14.302007
 31
0.0
  0
LINE
  5
16c
100
AcDbEntity
  8
Layer_1
 62
7
100
AcDbLine
 10
-2.747962
 20
-14.302007
 30
0.0
 11
-2.985100
 21
-14.741932
 31
0.0
  0
LINE
  5
16d
100
AcDbEntity
  8
Layer_1
 62
7
100
AcDbLine
 10
-2.985100
 20
-14.741932
 30
0.0
 11
-3.274259
 21
-15.169301
 31
0.0
  0
LINE
  5
16e
100
AcDbEntity
  8
Layer_1
 62
7
100
AcDbLine
 10
-3.274259
 20
-15.169301
 30
0.0
 11
-3.641128
 21
-15.085566
 31
0.0
  0
LINE
  5
16f
100
AcDbEntity
  8
Layer_1
 62
7
100
AcDbLine
 10
-3.641128
 20
-15.085566
 30
0.0
 11
-3.716222
 21
-14.575057
 31
0.0
  0
LINE
  5
170
100
AcDbEntity
  8
Layer_1
 62
7
100
AcDbLine
 10
-3.716222
 20
-14.575057
 30
0.0
 11
-3.739000
 21
-14.075808
 31
0.0
  0
LINE
  5
171
100
AcDbEntity
  8
Layer_1
 62
7
100
AcDbLine
 10
-3.739000
 20
-14.075808
 30
0.0
 11
-4.158351
 21
-13.957823
 31
0.0
  0
LINE
  5
172
100
AcDbEntity
  8
Layer_1
 62
7
100
AcDbLine
 10
-4.158351
 20
-13.957823
 30
0.0
 11
-4.438115
 21
-14.371950
 31
0.0
  0
LINE
  5
173
100
AcDbEntity
  8
Layer_1
 62
7
100
AcDbLine
 10
-4.438115
 20
-14.371950
 30
0.0
 11
-4.768389
 21
-14.768404
 31
0.0
  0
LINE
  5
174
100
AcDbEntity
  8
Layer_1
 62
7
100
AcDbLine
 10
-4.768389
 20
-14.768404
 30
0.0
 11
-5.125095
 21
-14.648556
 31
0.0
  0
LINE
  5
175
100
AcDbEntity
  8
Layer_1
 62
7
100
AcDbLine
 10
-5.125095
 20
-14.648556
 30
0.0
 11
-5.148985
 21
-14.133108
 31
0.0
  0
LINE
  5
176
100
AcDbEntity
  8
Layer_1
 62
7
100
AcDbLine
 10
-5.148985
 20
-14.133108
 30
0.0
 11
-5.121942
 21
-13.634074
 31
0.0
  0
LINE
  5
177
100
AcDbEntity
  8
Layer_1
 62
7
100
AcDbLine
 10
-5.121942
 20
-13.634074
 30
0.0
 11
-5.527465
 21
-13.474918
 31
0.0
  0
LINE
  5
178
100
AcDbEntity
  8
Layer_1
 62
7
100
AcDbLine
 10
-5.527465
 20
-13.474918
 30
0.0
 11
-5.847070
 21
-13.859130
 31
0.0
  0
LINE
  5
179
100
AcDbEntity
  8
Layer_1
 62
7
100
AcDbLine
 10
-5.847070
 20
-13.859130
 30
0.0
 11
-6.215175
 21
-14.220732
 31
0.0
  0
LINE
  5
17a
100
AcDbEntity
  8
Layer_1
 62
7
100
AcDbLine
 10
-6.215175
 20
-14.220732
 30
0.0
 11
-6.558177
 21
-14.065962
 31
0.0
  0
LINE
  5
17b
100
AcDbEntity
  8
Layer_1
 62
7
100
AcDbLine
 10
-6.558177
 20
-14.065962
 30
0.0
 11
-6.530626
 21
-13.550697
 31
0.0
  0
LINE
  5
17c
100
AcDbEntity
  8
Layer_1
 62
7
100
AcDbLine
 10
-6.530626
 20
-13.550697
 30
0.0
 11
-6.454029
 21
-13.056834
 31
0.0
  0
LINE
  5
17d
100
AcDbEntity
  8
Layer_1
 62
7
100
AcDbLine
 10
-6.454029
 20
-13.056834
 30
0.0
 11
-6.841689
 21
-12.858093
 31
0.0
  0
LINE
  5
17e
100
AcDbEntity
  8
Layer_1
 62
7
100
AcDbLine
 10
-6.841689
 20
-12.858093
 30
0.0
 11
-7.197963
 21
-13.208576
 31
0.0
  0
LINE
  5
17f
100
AcDbEntity
  8
Layer_1
 62
7
100
AcDbLine
 10
-7.197963
 20
-13.208576
 30
0.0
 11
-7.600243
 21
-13.531726
 31
0.0
  0
LINE
  5
180
100
AcDbEntity
  8
Layer_1
 62
7
100
AcDbLine
 10
-7.600243
 20
-13.531726
 30
0.0
 11
-7.926131
 21
-13.343574
 31
0.0
  0
LINE
  5
181
100
AcDbEntity
  8
Layer_1
 62
7
100
AcDbLine
 10
-7.926131
 20
-13.343574
 30
0.0
 11
-7.847413
 21
-12.833613
 31
0.0
  0
LINE
  5
182
100
AcDbEntity
  8
Layer_1
 62
7
100
AcDbLine
 10
-7.847413
 20
-12.833613
 30
0.0
 11
-7.722025
 21
-12.349833
 31
0.0
  0
LINE
  5
183
100
AcDbEntity
  8
Layer_1
 62
7
100
AcDbLine
 10
-7.722025
 20
-12.349833
 30
0.0
 11
-8.087968
 21
-12.113481
 31
0.0
  0
LINE
  5
184
100
AcDbEntity
  8
Layer_1
 62
7
100
AcDbLine
 10
-8.087968
 20
-12.113481
 30
0.0
 11
-8.477367
 21
-12.426747
 31
0.0
  0
LINE
  5
185
100
AcDbEntity
  8
Layer_1
 62
7
100
AcDbLine
 10
-8.477367
 20
-12.426747
 30
0.0
 11
-8.909825
 21
-12.708239
 31
0.0
  0
LINE
  5
186
100
AcDbEntity
  8
Layer_1
 62
7
100
AcDbLine
 10
-8.909825
 20
-12.708239
 30
0.0
 11
-9.215361
 21
-12.488574
 31
0.0
  0
LINE
  5
187
100
AcDbEntity
  8
Layer_1
 62
7
100
AcDbLine
 10
-9.215361
 20
-12.488574
 30
0.0
 11
-9.086259
 21
-11.988984
 31
0.0
  0
LINE
  5
188
100
AcDbEntity
  8
Layer_1
 62
7
100
AcDbLine
 10
-9.086259
 20
-11.988984
 30
0.0
 11
-8.913321
 21
-11.520091
 31
0.0
  0
LINE
  5
189
100
AcDbEntity
  8
Layer_1
 62
7
100
AcDbLine
 10
-8.913321
 20
-11.520091
 30
0.0
 11
-9.253916
 21
-11.248475
 31
0.0
  0
LINE
  5
18a
100
AcDbEntity
  8
Layer_1
 62
7
100
AcDbLine
 10
-9.253916
 20
-11.248475
 30
0.0
 11
-9.672573
 21
-11.521415
 31
0.0
  0
LINE
  5
18b
100
AcDbEntity
  8
Layer_1
 62
7
100
AcDbLine
 10
-9.672573
 20
-11.521415
 30
0.0
 11
-10.130907
 21
-11.758451
 31
0.0
  0
LINE
  5
18c
100
AcDbEntity
  8
Layer_1
 62
7
100
AcDbLine
 10
-10.130907
 20
-11.758451
 30
0.0
 11
-10.413053
 21
-11.509455
 31
0.0
  0
LINE
  5
18d
100
AcDbEntity
  8
Layer_1
 62
7
100
AcDbLine
 10
-10.413053
 20
-11.509455
 30
0.0
 11
-10.234850
 21
-11.025201
 31
0.0
  0
LINE
  5
18e
100
AcDbEntity
  8
Layer_1
 62
7
100
AcDbLine
 10
-10.234850
 20
-11.025201
 30
0.0
 11
-10.016085
 21
-10.575858
 31
0.0
  0
LINE
  5
18f
100
AcDbEntity
  8
Layer_1
 62
7
100
AcDbLine
 10
-10.016085
 20
-10.575858
 30
0.0
 11
-10.327943
 21
-10.271681
 31
0.0
  0
LINE
  5
190
100
AcDbEntity
  8
Layer_1
 62
7
100
AcDbLine
 10
-10.327943
 20
-10.271681
 30
0.0
 11
-10.771693
 21
-10.501580
 31
0.0
  0
LINE
  5
191
100
AcDbEntity
  8
Layer_1
 62
7
100
AcDbLine
 10
-10.771693
 20
-10.501580
 30
0.0
 11
-11.251352
 21
-10.691800
 31
0.0
  0
LINE
  5
192
100
AcDbEntity
  8
Layer_1
 62
7
100
AcDbLine
 10
-11.251352
 20
-10.691800
 30
0.0
 11
-11.507305
 21
-10.415951
 31
0.0
  0
LINE
  5
193
100
AcDbEntity
  8
Layer_1
 62
7
100
AcDbLine
 10
-11.507305
 20
-10.415951
 30
0.0
 11
-11.281770
 21
-9.951848
 31
0.0
  0
LINE
  5
194
100
AcDbEntity
  8
Layer_1
 62
7
100
AcDbLine
 10
-11.281770
 20
-9.951848
 30
0.0
 11
-11.019354
 21
-9.526516
 31
0.0
  0
LINE
  5
195
100
AcDbEntity
  8
Layer_1
 62
7
100
AcDbLine
 10
-11.019354
 20
-9.526516
 30
0.0
 11
-11.299375
 21
-9.192800
 31
0.0
  0
LINE
  5
196
100
AcDbEntity
  8
Layer_1
 62
7
100
AcDbLine
 10
-11.299375
 20
-9.192800
 30
0.0
 11
-11.763811
 21
-9.377373
 31
0.0
  0
LINE
  5
197
100
AcDbEntity
  8
Layer_1
 62
7
100
AcDbLine
 10
-11.763811
 20
-9.377373
 30
0.0
 11
-12.260028
 21
-9.518890
 31
0.0
  0
LINE
  5
198
100
AcDbEntity
  8
Layer_1
 62
7
100
AcDbLine
 10
-12.260028
 20
-9.518890
 30
0.0
 11
-12.487240
 21
-9.218928
 31
0.0
  0
LINE
  5
199
100
AcDbEntity
  8
Layer_1
 62
7
100
AcDbLine
 10
-12.487240
 20
-9.218928
 30
0.0
 11
-12.216617
 21
-8.779587
 31
0.0
  0
LINE
  5
19a
100
AcDbEntity
  8
Layer_1
 62
7
100
AcDbLine
 10
-12.216617
 20
-8.779587
 30
0.0
 11
-11.913155
 21
-8.382497
 31
0.0
  0
LINE
  5
19b
100
AcDbEntity
  8
Layer_1
 62
7
100
AcDbLine
 10
-11.913155
 20
-8.382497
 30
0.0
 11
-12.158558
 21
-8.022559
 31
0.0
  0
LINE
  5
19c
100
AcDbEntity
  8
Layer_1
 62
7
100
AcDbLine
 10
-12.158558
 20
-8.022559
 30
0.0
 11
-12.639064
 21
-8.159971
 31
0.0
  0
LINE
  5
19d
100
AcDbEntity
  8
Layer_1
 62
7
100
AcDbLine
 10
-12.639064
 20
-8.159971
 30
0.0
 11
-13.146906
 21
-8.251377
 31
0.0
  0
LINE
  5
19e
100
AcDbEntity
  8
Layer_1
 62
7
100
AcDbLine
 10
-13.146906
 20
-8.251377
 30
0.0
 11
-13.343124
 21
-7.930281
 31
0.0
  0
LINE
  5
19f
100
AcDbEntity
  8
Layer_1
 62
7
100
AcDbLine
 10
-13.343124
 20
-7.930281
 30
0.0
 11
-13.030100
 21
-7.520068
 31
0.0
  0
LINE
  5
1a0
100
AcDbEntity
  8
Layer_1
 62
7
100
AcDbLine
 10
-13.030100
 20
-7.520068
 30
0.0
 11
-12.688608
 21
-7.155169
 31
0.0
  0
LINE
  5
1a1
100
AcDbEntity
  8
Layer_1
 62
7
100
AcDbLine
 10
-12.688608
 20
-7.155169
 30
0.0
 11
-12.896953
 21
-6.772583
 31
0.0
  0
LINE
  5
1a2
100
AcDbEntity
  8
Layer_1
 62
7
100
AcDbLine
 10
-12.896953
 20
-6.772583
 30
0.0
 11
-13.388753
 21
-6.861472
 31
0.0
  0
LINE
  5
1a3
100
AcDbEntity
  8
Layer_1
 62
7
100
AcDbLine
 10
-13.388753
 20
-6.861472
 30
0.0
 11
-13.903171
 21
-6.901858
 31
0.0
  0
LINE
  5
1a4
100
AcDbEntity
  8
Layer_1
 62
7
100
AcDbLine
 10
-13.903171
 20
-6.901858
 30
0.0
 11
-14.066442
 21
-6.562821
 31
0.0
  0
LINE
  5
1a5
100
AcDbEntity
  8
Layer_1
 62
7
100
AcDbLine
 10
-14.066442
 20
-6.562821
 30
0.0
 11
-13.714133
 21
-6.185815
 31
0.0
  0
LINE
  5
1a6
100
AcDbEntity
  8
Layer_1
 62
7
100
AcDbLine
 10
-13.714133
 20
-6.185815
 30
0.0
 11
-13.338007
 21
-5.856730
 31
0.0
  0
LINE
  5
1a7
100
AcDbEntity
  8
Layer_1
 62
7
100
AcDbLine
 10
-13.338007
 20
-5.856730
 30
0.0
 11
-13.507222
 21
-5.455302
 31
0.0
  0
LINE
  5
1a8
100
AcDbEntity
  8
Layer_1
 62
7
100
AcDbLine
 10
-13.507222
 20
-5.455302
 30
0.0
 11
-14.005429
 21
-5.494780
 31
0.0
  0
LINE
  5
1a9
100
AcDbEntity
  8
Layer_1
 62
7
100
AcDbLine
 10
-14.005429
 20
-5.494780
 30
0.0
 11
-14.521311
 21
-5.483748
 31
0.0
  0
LINE
  5
1aa
100
AcDbEntity
  8
Layer_1
 62
7
100
AcDbLine
 10
-14.521311
 20
-5.483748
 30
0.0
 11
-14.650016
 21
-5.130137
 31
0.0
  0
LINE
  5
1ab
100
AcDbEntity
  8
Layer_1
 62
7
100
AcDbLine
 10
-14.650016
 20
-5.130137
 30
0.0
 11
-14.261915
 21
-4.790082
 31
0.0
  0
LINE
  5
1ac
100
AcDbEntity
  8
Layer_1
 62
7
100
AcDbLine
 10
-14.261915
 20
-4.790082
 30
0.0
 11
-13.854894
 21
-4.500082
 31
0.0
  0
LINE
  5
1ad
100
AcDbEntity
  8
Layer_1
 62
7
100
AcDbLine
 10
-13.854894
 20
-4.500082
 30
0.0
 11
-13.983300
 21
-4.083801
 31
0.0
  0
LINE
  5
1ae
100
AcDbEntity
  8
Layer_1
 62
7
100
AcDbLine
 10
-13.983300
 20
-4.083801
 30
0.0
 11
-14.482960
 21
-4.073478
 31
0.0
  0
LINE
  5
1af
100
AcDbEntity
  8
Layer_1
 62
7
100
AcDbLine
 10
-14.482960
 20
-4.073478
 30
0.0
 11
-14.995182
 21
-4.011135
 31
0.0
  0
LINE
  5
1b0
100
AcDbEntity
  8
Layer_1
 62
7
100
AcDbLine
 10
-14.995182
 20
-4.011135
 30
0.0
 11
-15.088036
 21
-3.646467
 31
0.0
  0
LINE
  5
1b1
100
AcDbEntity
  8
Layer_1
 62
7
100
AcDbLine
 10
-15.088036
 20
-3.646467
 30
0.0
 11
-14.668008
 21
-3.346744
 31
0.0
  0
LINE
  5
1b2
100
AcDbEntity
  8
Layer_1
 62
7
100
AcDbLine
 10
-14.668008
 20
-3.346744
 30
0.0
 11
-14.234133
 21
-3.098713
 31
0.0
  0
LINE
  5
1b3
100
AcDbEntity
  8
Layer_1
 62
7
100
AcDbLine
 10
-14.234133
 20
-3.098713
 30
0.0
 11
-14.320454
 21
-2.671714
 31
0.0
  0
LINE
  5
1b4
100
AcDbEntity
  8
Layer_1
 62
7
100
AcDbLine
 10
-14.320454
 20
-2.671714
 30
0.0
 11
-14.816603
 21
-2.611691
 31
0.0
  0
LINE
  5
1b5
100
AcDbEntity
  8
Layer_1
 62
7
100
AcDbLine
 10
-14.816603
 20
-2.611691
 30
0.0
 11
-15.320071
 21
-2.498658
 31
0.0
  0
LINE
  5
1b6
100
AcDbEntity
  8
Layer_1
 62
7
100
AcDbLine
 10
-15.320071
 20
-2.498658
 30
0.0
 11
-15.376157
 21
-2.126556
 31
0.0
  0
LINE
  5
1b7
100
AcDbEntity
  8
Layer_1
 62
7
100
AcDbLine
 10
-15.376157
 20
-2.126556
 30
0.0
 11
-14.928374
 21
-1.870146
 31
0.0
  0
LINE
  5
1b8
100
AcDbEntity
  8
Layer_1
 62
7
100
AcDbLine
 10
-14.928374
 20
-1.870146
 30
0.0
 11
-14.471959
 21
-1.666545
 31
0.0
  0
LINE
  5
1b9
100
AcDbEntity
  8
Layer_1
 62
7
100
AcDbLine
 10
-14.471959
 20
-1.666545
 30
0.0
 11
-14.515334
 21
-1.233075
 31
0.0
  0
LINE
  5
1ba
100
AcDbEntity
  8
Layer_1
 62
7
100
AcDbLine
 10
-14.515334
 20
-1.233075
 30
0.0
 11
-15.003042
 21
-1.123948
 31
0.0
  0
LINE
  5
1bb
100
AcDbEntity
  8
Layer_1
 62
7
100
AcDbLine
 10
-15.003042
 20
-1.123948
 30
0.0
 11
-15.492754
 21
-0.961348
 31
0.0
  0
LINE
  5
1bc
100
AcDbEntity
  8
Layer_1
 62
7
100
AcDbLine
 10
-15.492754
 20
-0.961348
 30
0.0
 11
-15.511510
 21
-0.585513
 31
0.0
  0
LINE
  5
1bd
100
AcDbEntity
  8
Layer_1
 62
7
100
AcDbLine
 10
-15.511510
 20
-0.585513
 30
0.0
 11
-15.040422
 21
-0.374958
 31
0.0
  0
LINE
  5
1be
100
AcDbEntity
  8
Layer_1
 62
7
100
AcDbLine
 10
-15.040422
 20
-0.374958
 30
0.0
 11
-14.566004
 21
-0.217817
 31
0.0
  0
LINE
  5
1bf
100
AcDbEntity
  8
Layer_1
 62
7
100
AcDbLine
 10
-14.566004
 20
-0.217817
 30
0.0
 11
-14.566004
 21
0.217821
 31
0.0
  0
LINE
  5
1c0
100
AcDbEntity
  8
Layer_1
 62
7
100
AcDbLine
 10
-14.566004
 20
0.217821
 30
0.0
 11
-15.040422
 21
0.374963
 31
0.0
  0
LINE
  5
1c1
100
AcDbEntity
  8
Layer_1
 62
7
100
AcDbLine
 10
-15.040422
 20
0.374963
 30
0.0
 11
-15.511510
 21
0.585517
 31
0.0
  0
LINE
  5
1c2
100
AcDbEntity
  8
Layer_1
 62
7
100
AcDbLine
 10
-15.511510
 20
0.585517
 30
0.0
 11
-15.492754
 21
0.961353
 31
0.0
  0
LINE
  5
1c3
100
AcDbEntity
  8
Layer_1
 62
7
100
AcDbLine
 10
-15.492754
 20
0.961353
 30
0.0
 11
-15.003042
 21
1.123952
 31
0.0
  0
LINE
  5
1c4
100
AcDbEntity
  8
Layer_1
 62
7
100
AcDbLine
 10
-15.003042
 20
1.123952
 30
0.0
 11
-14.515334
 21
1.233079
 31
0.0
  0
LINE
  5
1c5
100
AcDbEntity
  8
Layer_1
 62
7
100
AcDbLine
 10
-14.515334
 20
1.233079
 30
0.0
 11
-14.471959
 21
1.666550
 31
0.0
  0
LINE
  5
1c6
100
AcDbEntity
  8
Layer_1
 62
7
100
AcDbLine
 10
-14.471959
 20
1.666550
 30
0.0
 11
-14.928374
 21
1.870151
 31
0.0
  0
LINE
  5
1c7
100
AcDbEntity
  8
Layer_1
 62
7
100
AcDbLine
 10
-14.928374
 20
1.870151
 30
0.0
 11
-15.376157
 21
2.126561
 31
0.0
  0
LINE
  5
1c8
100
AcDbEntity
  8
Layer_1
 62
7
100
AcDbLine
 10
-15.376157
 20
2.126561
 30
0.0
 11
-15.320071
 21
2.498662
 31
0.0
  0
LINE
  5
1c9
100
AcDbEntity
  8
Layer_1
 62
7
100
AcDbLine
 10
-15.320071
 20
2.498662
 30
0.0
 11
-14.816603
 21
2.611695
 31
0.0
  0
LINE
  5
1ca
100
AcDbEntity
  8
Layer_1
 62
7
100
AcDbLine
 10
-14.816603
 20
2.611695
 30
0.0
 11
-14.320454
 21
2.671718
 31
0.0
  0
LINE
  5
1cb
100
AcDbEntity
  8
Layer_1
 62
7
100
AcDbLine
 10
-14.320454
 20
2.671718
 30
0.0
 11
-14.234133
 21
3.098718
 31
0.0
  0
LINE
  5
1cc
100
AcDbEntity
  8
Layer_1
 62
7
100
AcDbLine
 10
-14.234133
 20
3.098718
 30
0.0
 11
-14.668008
 21
3.346749
 31
0.0
  0
LINE
  5
1cd
100
AcDbEntity
  8
Layer_1
 62
7
100
AcDbLine
 10
-14.668008
 20
3.346749
 30
0.0
 11
-15.088036
 21
3.646471
 31
0.0
  0
LINE
  5
1ce
100
AcDbEntity
  8
Layer_1
 62
7
100
AcDbLine
 10
-15.088036
 20
3.646471
 30
0.0
 11
-14.995182
 21
4.011139
 31
0.0
  0
LINE
  5
1cf
100
AcDbEntity
  8
Layer_1
 62
7
100
AcDbLine
 10
-14.995182
 20
4.011139
 30
0.0
 11
-14.482960
 21
4.073482
 31
0.0
  0
LINE
  5
1d0
100
AcDbEntity
  8
Layer_1
 62
7
100
AcDbLine
 10
-14.482960
 20
4.073482
 30
0.0
 11
-13.983300
 21
4.083806
 31
0.0
  0
LINE
  5
1d1
100
AcDbEntity
  8
Layer_1
 62
7
100
AcDbLine
 10
-13.983300
 20
4.083806
 30
0.0
 11
-13.854894
 21
4.500086
 31
0.0
  0
LINE
  5
1d2
100
AcDbEntity
  8
Layer_1
 62
7
100
AcDbLine
 10
-13.854894
 20
4.500086
 30
0.0
 11
-14.261915
 21
4.790087
 31
0.0
  0
LINE
  5
1d3
100
AcDbEntity
  8
Layer_1
 62
7
100
AcDbLine
 10
-14.261915
 20
4.790087
 30
0.0
 11
-14.650016
 21
5.130142
 31
0.0
  0
LINE
  5
1d4
100
AcDbEntity
  8
Layer_1
 62
7
100
AcDbLine
 10
-14.650016
 20
5.130142
 30
0.0
 11
-14.521311
 21
5.483752
 31
0.0
  0
LINE
  5
1d5
100
AcDbEntity
  8
Layer_1
 62
7
100
AcDbLine
 10
-14.521311
 20
5.483752
 30
0.0
 11
-14.005429
 21
5.494784
 31
0.0
  0
LINE
  5
1d6
100
AcDbEntity
  8
Layer_1
 62
7
100
AcDbLine
 10
-14.005429
 20
5.494784
 30
0.0
 11
-13.507222
 21
5.455307
 31
0.0
  0
LINE
  5
1d7
100
AcDbEntity
  8
Layer_1
 62
7
100
AcDbLine
 10
-13.507222
 20
5.455307
 30
0.0
 11
-13.338007
 21
5.856734
 31
0.0
  0
LINE
  5
1d8
100
AcDbEntity
  8
Layer_1
 62
7
100
AcDbLine
 10
-13.338007
 20
5.856734
 30
0.0
 11
-13.714133
 21
6.185820
 31
0.0
  0
LINE
  5
1d9
100
AcDbEntity
  8
Layer_1
 62
7
100
AcDbLine
 10
-13.714133
 20
6.185820
 30
0.0
 11
-14.066442
 21
6.562826
 31
0.0
  0
LINE
  5
1da
100
AcDbEntity
  8
Layer_1
 62
7
100
AcDbLine
 10
-14.066442
 20
6.562826
 30
0.0
 11
-13.903171
 21
6.901862
 31
0.0
  0
LINE
  5
1db
100
AcDbEntity
  8
Layer_1
 62
7
100
AcDbLine
 10
-13.903171
 20
6.901862
 30
0.0
 11
-13.388753
 21
6.861476
 31
0.0
  0
LINE
  5
1dc
100
AcDbEntity
  8
Layer_1
 62
7
100
AcDbLine
 10
-13.388753
 20
6.861476
 30
0.0
 11
-12.896953
 21
6.772588
 31
0.0
  0
LINE
  5
1dd
100
AcDbEntity
  8
Layer_1
 62
7
100
AcDbLine
 10
-12.896953
 20
6.772588
 30
0.0
 11
-12.688608
 21
7.155174
 31
0.0
  0
LINE
  5
1de
100
AcDbEntity
  8
Layer_1
 62
7
100
AcDbLine
 10
-12.688608
 20
7.155174
 30
0.0
 11
-13.030100
 21
7.520073
 31
0.0
  0
LINE
  5
1df
100
AcDbEntity
  8
Layer_1
 62
7
100
AcDbLine
 10
-13.030100
 20
7.520073
 30
0.0
 11
-13.343124
 21
7.930286
 31
0.0
  0
LINE
  5
1e0
100
AcDbEntity
  8
Layer_1
 62
7
100
AcDbLine
 10
-13.343124
 20
7.930286
 30
0.0
 11
-13.146906
 21
8.251381
 31
0.0
  0
LINE
  5
1e1
100
AcDbEntity
  8
Layer_1
 62
7
100
AcDbLine
 10
-13.146906
 20
8.251381
 30
0.0
 11
-12.639064
 21
8.159975
 31
0.0
  0
LINE
  5
1e2
100
AcDbEntity
  8
Layer_1
 62
7
100
AcDbLine
 10
-12.639064
 20
8.159975
 30
0.0
 11
-12.158558
 21
8.022564
 31
0.0
  0
LINE
  5
1e3
100
AcDbEntity
  8
Layer_1
 62
7
100
AcDbLine
 10
-12.158558
 20
8.022564
 30
0.0
 11
-11.913155
 21
8.382502
 31
0.0
  0
LINE
  5
1e4
100
AcDbEntity
  8
Layer_1
 62
7
100
AcDbLine
 10
-11.913155
 20
8.382502
 30
0.0
 11
-12.216617
 21
8.779591
 31
0.0
  0
LINE
  5
1e5
100
AcDbEntity
  8
Layer_1
 62
7
100
AcDbLine
 10
-12.216617
 20
8.779591
 30
0.0
 11
-12.487240
 21
9.218932
 31
0.0
  0
LINE
  5
1e6
100
AcDbEntity
  8
Layer_1
 62
7
100
AcDbLine
 10
-12.487240
 20
9.218932
 30
0.0
 11
-12.260028
 21
9.518895
 31
0.0
  0
LINE
  5
1e7
100
AcDbEntity
  8
Layer_1
 62
7
100
AcDbLine
 10
-12.260028
 20
9.518895
 30
0.0
 11
-11.763811
 21
9.377378
 31
0.0
  0
LINE
  5
1e8
100
AcDbEntity
  8
Layer_1
 62
7
100
AcDbLine
 10
-11.763811
 20
9.377378
 30
0.0
 11
-11.299375
 21
9.192804
 31
0.0
  0
LINE
  5
1e9
100
AcDbEntity
  8
Layer_1
 62
7
100
AcDbLine
 10
-11.299375
 20
9.192804
 30
0.0
 11
-11.019354
 21
9.526521
 31
0.0
  0
LINE
  5
1ea
100
AcDbEntity
  8
Layer_1
 62
7
100
AcDbLine
 10
-11.019354
 20
9.526521
 30
0.0
 11
-11.281770
 21
9.951852
 31
0.0
  0
LINE
  5
1eb
100
AcDbEntity
  8
Layer_1
 62
7
100
AcDbLine
 10
-11.281770
 20
9.951852
 30
0.0
 11
-11.507305
 21
10.415955
 31
0.0
  0
LINE
  5
1ec
100
AcDbEntity
  8
Layer_1
 62
7
100
AcDbLine
 10
-11.507305
 20
10.415955
 30
0.0
 11
-11.251352
 21
10.691805
 31
0.0
  0
LINE
  5
1ed
100
AcDbEntity
  8
Layer_1
 62
7
100
AcDbLine
 10
-11.251352
 20
10.691805
 30
0.0
 11
-10.771693
 21
10.501584
 31
0.0
  0
LINE
  5
1ee
100
AcDbEntity
  8
Layer_1
 62
7
100
AcDbLine
 10
-10.771693
 20
10.501584
 30
0.0
 11
-10.327943
 21
10.271686
 31
0.0
  0
LINE
  5
1ef
100
AcDbEntity
  8
Layer_1
 62
7
100
AcDbLine
 10
-10.327943
 20
10.271686
 30
0.0
 11
-10.016085
 21
10.575862
 31
0.0
  0
LINE
  5
1f0
100
AcDbEntity
  8
Layer_1
 62
7
100
AcDbLine
 10
-10.016085
 20
10.575862
 30
0.0
 11
-10.234850
 21
11.025205
 31
0.0
  0
LINE
  5
1f1
100
AcDbEntity
  8
Layer_1
 62
7
100
AcDbLine
 10
-10.234850
 20
11.025205
 30
0.0
 11
-10.413053
 21
11.509459
 31
0.0
  0
LINE
  5
1f2
100
AcDbEntity
  8
Layer_1
 62
7
100
AcDbLine
 10
-10.413053
 20
11.509459
 30
0.0
 11
-10.130907
 21
11.758455
 31
0.0
  0
LINE
  5
1f3
100
AcDbEntity
  8
Layer_1
 62
7
100
AcDbLine
 10
-10.130907
 20
11.758455
 30
0.0
 11
-9.672573
 21
11.521420
 31
0.0
  0
LINE
  5
1f4
100
AcDbEntity
  8
Layer_1
 62
7
100
AcDbLine
 10
-9.672573
 20
11.521420
 30
0.0
 11
-9.253916
 21
11.248480
 31
0.0
  0
LINE
  5
1f5
100
AcDbEntity
  8
Layer_1
 62
7
100
AcDbLine
 10
-9.253916
 20
11.248480
 30
0.0
 11
-8.913321
 21
11.520096
 31
0.0
  0
LINE
  5
1f6
100
AcDbEntity
  8
Layer_1
 62
7
100
AcDbLine
 10
-8.913321
 20
11.520096
 30
0.0
 11
-9.086259
 21
11.988989
 31
0.0
  0
LINE
  5
1f7
100
AcDbEntity
  8
Layer_1
 62
7
100
AcDbLine
 10
-9.086259
 20
11.988989
 30
0.0
 11
-9.215361
 21
12.488578
 31
0.0
  0
LINE
  5
1f8
100
AcDbEntity
  8
Layer_1
 62
7
100
AcDbLine
 10
-9.215361
 20
12.488578
 30
0.0
 11
-8.909825
 21
12.708243
 31
0.0
  0
LINE
  5
1f9
100
AcDbEntity
  8
Layer_1
 62
7
100
AcDbLine
 10
-8.909825
 20
12.708243
 30
0.0
 11
-8.477367
 21
12.426752
 31
0.0
  0
LINE
  5
1fa
100
AcDbEntity
  8
Layer_1
 62
7
100
AcDbLine
 10
-8.477367
 20
12.426752
 30
0.0
 11
-8.087968
 21
12.113485
 31
0.0
  0
LINE
  5
1fb
100
AcDbEntity
  8
Layer_1
 62
7
100
AcDbLine
 10
-8.087968
 20
12.113485
 30
0.0
 11
-7.722025
 21
12.349838
 31
0.0
  0
LINE
  5
1fc
100
AcDbEntity
  8
Layer_1
 62
7
100
AcDbLine
 10
-7.722025
 20
12.349838
 30
0.0
 11
-7.847413
 21
12.833618
 31
0.0
  0
LINE
  5
1fd
100
AcDbEntity
  8
Layer_1
 62
7
100
AcDbLine
 10
-7.847413
 20
12.833618
 30
0.0
 11
-7.926131
 21
13.343579
 31
0.0
  0
LINE
  5
1fe
100
AcDbEntity
  8
Layer_1
 62
7
100
AcDbLine
 10
-7.926131
 20
13.343579
 30
0.0
 11
-7.600243
 21
13.531731
 31
0.0
  0
LINE
  5
1ff
100
AcDbEntity
  8
Layer_1
 62
7
100
AcDbLine
 10
-7.600243
 20
13.531731
 30
0.0
 11
-7.197963
 21
13.208581
 31
0.0
  0
LINE
  5
200
100
AcDbEntity
  8
Layer_1
 62
7
100
AcDbLine
 10
-7.197963
 20
13.208581
 30
0.0
 11
-6.841689
 21
12.858098
 31
0.0
  0
LINE
  5
201
100
AcDbEntity
  8
Layer_1
 62
7
100
AcDbLine
 10
-6.841689
 20
12.858098
 30
0.0
 11
-6.454029
 21
13.056838
 31
0.0
  0
LINE
  5
202
100
AcDbEntity
  8
Layer_1
 62
7
100
AcDbLine
 10
-6.454029
 20
13.056838
 30
0.0
 11
-6.530626
 21
13.550702
 31
0.0
  0
LINE
  5
203
100
AcDbEntity
  8
Layer_1
 62
7
100
AcDbLine
 10
-6.530626
 20
13.550702
 30
0.0
 11
-6.558177
 21
14.065966
 31
0.0
  0
LINE
  5
204
100
AcDbEntity
  8
Layer_1
 62
7
100
AcDbLine
 10
-6.558177
 20
14.065966
 30
0.0
 11
-6.215175
 21
14.220737
 31
0.0
  0
LINE
  5
205
100
AcDbEntity
  8
Layer_1
 62
7
100
AcDbLine
 10
-6.215175
 20
14.220737
 30
0.0
 11
-5.847070
 21
13.859134
 31
0.0
  0
LINE
  5
206
100
AcDbEntity
  8
Layer_1
 62
7
100
AcDbLine
 10
-5.847070
 20
13.859134
 30
0.0
 11
-5.527465
 21
13.474922
 31
0.0
  0
LINE
  5
207
100
AcDbEntity
  8
Layer_1
 62
7
100
AcDbLine
 10
-5.527465
 20
13.474922
 30
0.0
 11
-5.121942
 21
13.634079
 31
0.0
  0
LINE
  5
208
100
AcDbEntity
  8
Layer_1
 62
7
100
AcDbLine
 10
-5.121942
 20
13.634079
 30
0.0
 11
-5.148985
 21
14.133113
 31
0.0
  0
LINE
  5
209
100
AcDbEntity
  8
Layer_1
 62
7
100
AcDbLine
 10
-5.148985
 20
14.133113
 30
0.0
 11
-5.125095
 21
14.648560
 31
0.0
  0
LINE
  5
20a
100
AcDbEntity
  8
Layer_1
 62
7
100
AcDbLine
 10
-5.125095
 20
14.648560
 30
0.0
 11
-4.768389
 21
14.768409
 31
0.0
  0
LINE
  5
20b
100
AcDbEntity
  8
Layer_1
 62
7
100
AcDbLine
 10
-4.768389
 20
14.768409
 30
0.0
 11
-4.438115
 21
14.371954
 31
0.0
  0
LINE
  5
20c
100
AcDbEntity
  8
Layer_1
 62
7
100
AcDbLine
 10
-4.438115
 20
14.371954
 30
0.0
 11
-4.158351
 21
13.957827
 31
0.0
  0
LINE
  5
20d
100
AcDbEntity
  8
Layer_1
 62
7
100
AcDbLine
 10
-4.158351
 20
13.957827
 30
0.0
 11
-3.739000
 21
14.075813
 31
0.0
  0
LINE
  5
20e
100
AcDbEntity
  8
Layer_1
 62
7
100
AcDbLine
 10
-3.739000
 20
14.075813
 30
0.0
 11
-3.716222
 21
14.575061
 31
0.0
  0
LINE
  5
20f
100
AcDbEntity
  8
Layer_1
 62
7
100
AcDbLine
 10
-3.716222
 20
14.575061
 30
0.0
 11
-3.641128
 21
15.085570
 31
0.0
  0
LINE
  5
210
100
AcDbEntity
  8
Layer_1
 62
7
100
AcDbLine
 10
-3.641128
 20
15.085570
 30
0.0
 11
-3.274259
 21
15.169306
 31
0.0
  0
LINE
  5
211
100
AcDbEntity
  8
Layer_1
 62
7
100
AcDbLine
 10
-3.274259
 20
15.169306
 30
0.0
 11
-2.985100
 21
14.741937
 31
0.0
  0
LINE
  5
212
100
AcDbEntity
  8
Layer_1
 62
7
100
AcDbLine
 10
-2.985100
 20
14.741937
 30
0.0
 11
-2.747963
 21
14.302011
 31
0.0
  0
LINE
  5
213
100
AcDbEntity
  8
Layer_1
 62
7
100
AcDbLine
 10
-2.747963
 20
14.302011
 30
0.0
 11
-2.318945
 21
14.377658
 31
0.0
  0
LINE
  5
214
100
AcDbEntity
  8
Layer_1
 62
7
100
AcDbLine
 10
-2.318945
 20
14.377658
 30
0.0
 11
-2.246572
 21
14.872160
 31
0.0
  0
LINE
  5
215
100
AcDbEntity
  8
Layer_1
 62
7
100
AcDbLine
 10
-2.246572
 20
14.872160
 30
0.0
 11
-2.121020
 21
15.372652
 31
0.0
  0
LINE
  5
216
100
AcDbEntity
  8
Layer_1
 62
7
100
AcDbLine
 10
-2.121020
 20
15.372652
 30
0.0
 11
-1.747637
 21
15.419445
 31
0.0
  0
LINE
  5
217
100
AcDbEntity
  8
Layer_1
 62
7
100
AcDbLine
 10
-1.747637
 20
15.419445
 30
0.0
 11
-1.502468
 21
14.965406
 31
0.0
  0
LINE
  5
218
100
AcDbEntity
  8
Layer_1
 62
7
100
AcDbLine
 10
-1.502468
 20
14.965406
 30
0.0
 11
-1.310311
 21
14.504057
 31
0.0
  0
LINE
  5
219
100
AcDbEntity
  8
Layer_1
 62
7
100
AcDbLine
 10
-1.310311
 20
14.504057
 30
0.0
 11
-0.875895
 21
14.536611
 31
0.0
  0
LINE
  5
21a
100
AcDbEntity
  8
Layer_1
 62
7
100
AcDbLine
 10
-0.875895
 20
14.536611
 30
0.0
 11
-0.754644
 21
15.021449
 31
0.0
  0
LINE
  5
21b
100
AcDbEntity
  8
Layer_1
 62
7
100
AcDbLine
 10
-0.754644
 20
15.021449
 30
0.0
 11
-0.579883
 21
15.506956
 31
0.0
  0
LINE
  5
21c
100
AcDbEntity
  8
Layer_1
 62
7
100
AcDbLine
 10
-0.579883
 20
15.506956
 30
0.0
 11
-0.203698
 21
15.516337
 31
0.0
  0
LINE
  5
21d
100
AcDbEntity
  8
Layer_1
 62
7
100
AcDbLine
 10
-0.203698
 20
15.516337
 30
0.0
 11
-0.004954
 21
15.040144
 31
0.0
  0
LINE
  5
21e
100
AcDbEntity
  8
Layer_1
 62
7
100
AcDbLine
 10
-0.004954
 20
15.040144
 30
0.0
 11
0.140311
 21
14.561955
 31
0.0
  0
LINE
  5
21f
100
AcDbEntity
  8
Layer_1
 62
7
100
AcDbLine
 10
0.140311
 20
14.561955
 30
0.0
 11
0.575814
 21
14.551095
 31
0.0
  0
LINE
  5
220
100
AcDbEntity
  8
Layer_1
 62
7
100
AcDbLine
 10
0.575814
 20
14.551095
 30
0.0
 11
0.744735
 21
15.021449
 31
0.0
  0
LINE
  5
221
100
AcDbEntity
  8
Layer_1
 62
7
100
AcDbLine
 10
0.744735
 20
15.021449
 30
0.0
 11
0.966968
 21
15.487141
 31
0.0
  0
LINE
  5
222
100
AcDbEntity
  8
Layer_1
 62
7
100
AcDbLine
 10
0.966968
 20
15.487141
 30
0.0
 11
1.342219
 21
15.459021
 31
0.0
  0
LINE
  5
223
100
AcDbEntity
  8
Layer_1
 62
7
100
AcDbLine
 10
1.342219
 20
15.459021
 30
0.0
 11
1.492559
 21
14.965406
 31
0.0
  0
LINE
  5
224
100
AcDbEntity
  8
Layer_1
 62
7
100
AcDbLine
 10
1.492559
 20
14.965406
 30
0.0
 11
1.589494
 21
14.475129
 31
0.0
  0
LINE
  5
225
100
AcDbEntity
  8
Layer_1
 62
7
100
AcDbLine
 10
1.589494
 20
14.475129
 30
0.0
 11
2.021748
 21
14.420960
 31
0.0
  0
LINE
  5
226
100
AcDbEntity
  8
Layer_1
 62
7
100
AcDbLine
 10
2.021748
 20
14.420960
 30
0.0
 11
2.236663
 21
14.872160
 31
0.0
  0
LINE
  5
227
100
AcDbEntity
  8
Layer_1
 62
7
100
AcDbLine
 10
2.236663
 20
14.872160
 30
0.0
 11
2.504159
 21
15.313411
 31
0.0
  0
LINE
  5
228
100
AcDbEntity
  8
Layer_1
 62
7
100
AcDbLine
 10
2.504159
 20
15.313411
 30
0.0
 11
2.874745
 21
15.248065
 31
0.0
  0
LINE
  5
229
100
AcDbEntity
  8
Layer_1
 62
7
100
AcDbLine
 10
2.874745
 20
15.248065
 30
0.0
 11
2.975191
 21
14.741937
 31
0.0
  0
LINE
  5
22a
100
AcDbEntity
  8
Layer_1
 62
7
100
AcDbLine
 10
2.975191
 20
14.741937
 30
0.0
 11
3.022827
 21
14.244444
 31
0.0
  0
LINE
  5
22b
100
AcDbEntity
  8
Layer_1
 62
7
100
AcDbLine
 10
3.022827
 20
14.244444
 30
0.0
 11
3.447541
 21
14.147506
 31
0.0
  0
LINE
  5
22c
100
AcDbEntity
  8
Layer_1
 62
7
100
AcDbLine
 10
3.447541
 20
14.147506
 30
0.0
 11
3.706313
 21
14.575061
 31
0.0
  0
LINE
  5
22d
100
AcDbEntity
  8
Layer_1
 62
7
100
AcDbLine
 10
3.706313
 20
14.575061
 30
0.0
 11
4.016413
 21
14.987487
 31
0.0
  0
LINE
  5
22e
100
AcDbEntity
  8
Layer_1
 62
7
100
AcDbLine
 10
4.016413
 20
14.987487
 30
0.0
 11
4.378651
 21
14.885571
 31
0.0
  0
LINE
  5
22f
100
AcDbEntity
  8
Layer_1
 62
7
100
AcDbLine
 10
4.378651
 20
14.885571
 30
0.0
 11
4.428206
 21
14.371954
 31
0.0
  0
LINE
  5
230
100
AcDbEntity
  8
Layer_1
 62
7
100
AcDbLine
 10
4.428206
 20
14.371954
 30
0.0
 11
4.426061
 21
13.872190
 31
0.0
  0
LINE
  5
231
100
AcDbEntity
  8
Layer_1
 62
7
100
AcDbLine
 10
4.426061
 20
13.872190
 30
0.0
 11
4.839012
 21
13.733446
 31
0.0
  0
LINE
  5
232
100
AcDbEntity
  8
Layer_1
 62
7
100
AcDbLine
 10
4.839012
 20
13.733446
 30
0.0
 11
5.139068
 21
14.133113
 31
0.0
  0
LINE
  5
233
100
AcDbEntity
  8
Layer_1
 62
7
100
AcDbLine
 10
5.139068
 20
14.133113
 30
0.0
 11
5.488693
 21
14.512614
 31
0.0
  0
LINE
  5
234
100
AcDbEntity
  8
Layer_1
 62
7
100
AcDbLine
 10
5.488693
 20
14.512614
 30
0.0
 11
5.838984
 21
14.375135
 31
0.0
  0
LINE
  5
235
100
AcDbEntity
  8
Layer_1
 62
7
100
AcDbLine
 10
5.838984
 20
14.375135
 30
0.0
 11
5.837150
 21
13.859134
 31
0.0
  0
LINE
  5
236
100
AcDbEntity
  8
Layer_1
 62
7
100
AcDbLine
 10
5.837150
 20
13.859134
 30
0.0
 11
5.785263
 21
13.362067
 31
0.0
  0
LINE
  5
237
100
AcDbEntity
  8
Layer_1
 62
7
100
AcDbLine
 10
5.785263
 20
13.362067
 30
0.0
 11
6.182347
 21
13.182896
 31
0.0
  0
LINE
  5
238
100
AcDbEntity
  8
Layer_1
 62
7
100
AcDbLine
 10
6.182347
 20
13.182896
 30
0.0
 11
6.520706
 21
13.550702
 31
0.0
  0
LINE
  5
239
100
AcDbEntity
  8
Layer_1
 62
7
100
AcDbLine
 10
6.520706
 20
13.550702
 30
0.0
 11
6.906380
 21
13.893506
 31
0.0
  0
LINE
  5
23a
100
AcDbEntity
  8
Layer_1
 62
7
100
AcDbLine
 10
6.906380
 20
13.893506
 30
0.0
 11
7.241242
 21
13.721830
 31
0.0
  0
LINE
  5
23b
100
AcDbEntity
  8
Layer_1
 62
7
100
AcDbLine
 10
7.241242
 20
13.721830
 30
0.0
 11
7.188043
 21
13.208581
 31
0.0
  0
LINE
  5
23c
100
AcDbEntity
  8
Layer_1
 62
7
100
AcDbLine
 10
7.188043
 20
13.208581
 30
0.0
 11
7.086923
 21
12.719148
 31
0.0
  0
LINE
  5
23d
100
AcDbEntity
  8
Layer_1
 62
7
100
AcDbLine
 10
7.086923
 20
12.719148
 30
0.0
 11
7.464195
 21
12.501332
 31
0.0
  0
LINE
  5
23e
100
AcDbEntity
  8
Layer_1
 62
7
100
AcDbLine
 10
7.464195
 20
12.501332
 30
0.0
 11
7.837493
 21
12.833618
 31
0.0
  0
LINE
  5
23f
100
AcDbEntity
  8
Layer_1
 62
7
100
AcDbLine
 10
7.837493
 20
12.833618
 30
0.0
 11
8.255382
 21
13.136318
 31
0.0
  0
LINE
  5
240
100
AcDbEntity
  8
Layer_1
 62
7
100
AcDbLine
 10
8.255382
 20
13.136318
 30
0.0
 11
8.571488
 21
12.932155
 31
0.0
  0
LINE
  5
241
100
AcDbEntity
  8
Layer_1
 62
7
100
AcDbLine
 10
8.571488
 20
12.932155
 30
0.0
 11
8.467447
 21
12.426752
 31
0.0
  0
LINE
  5
242
100
AcDbEntity
  8
Layer_1
 62
7
100
AcDbLine
 10
8.467447
 20
12.426752
 30
0.0
 11
8.318101
 21
11.949822
 31
0.0
  0
LINE
  5
243
100
AcDbEntity
  8
Layer_1
 62
7
100
AcDbLine
 10
8.318101
 20
11.949822
 30
0.0
 11
8.671810
 21
11.695520
 31
0.0
  0
LINE
  5
244
100
AcDbEntity
  8
Layer_1
 62
7
100
AcDbLine
 10
8.671810
 20
11.695520
 30
0.0
 11
9.076339
 21
11.988989
 31
0.0
  0
LINE
  5
245
100
AcDbEntity
  8
Layer_1
 62
7
100
AcDbLine
 10
9.076339
 20
11.988989
 30
0.0
 11
9.522289
 21
12.248574
 31
0.0
  0
LINE
  5
246
100
AcDbEntity
  8
Layer_1
 62
7
100
AcDbLine
 10
9.522289
 20
12.248574
 30
0.0
 11
9.816495
 21
12.013954
 31
0.0
  0
LINE
  5
247
100
AcDbEntity
  8
Layer_1
 62
7
100
AcDbLine
 10
9.816495
 20
12.013954
 30
0.0
 11
9.662652
 21
11.521420
 31
0.0
  0
LINE
  5
248
100
AcDbEntity
  8
Layer_1
 62
7
100
AcDbLine
 10
9.662652
 20
11.521420
 30
0.0
 11
9.466559
 21
11.061731
 31
0.0
  0
LINE
  5
249
100
AcDbEntity
  8
Layer_1
 62
7
100
AcDbLine
 10
9.466559
 20
11.061731
 30
0.0
 11
9.793189
 21
10.773474
 31
0.0
  0
LINE
  5
24a
100
AcDbEntity
  8
Layer_1
 62
7
100
AcDbLine
 10
9.793189
 20
10.773474
 30
0.0
 11
10.224929
 21
11.025205
 31
0.0
  0
LINE
  5
24b
100
AcDbEntity
  8
Layer_1
 62
7
100
AcDbLine
 10
10.224929
 20
11.025205
 30
0.0
 11
10.694511
 21
11.239102
 31
0.0
  0
LINE
  5
24c
100
AcDbEntity
  8
Layer_1
 62
7
100
AcDbLine
 10
10.694511
 20
11.239102
 30
0.0
 11
10.963894
 21
10.976353
 31
0.0
  0
LINE
  5
24d
100
AcDbEntity
  8
Layer_1
 62
7
100
AcDbLine
 10
10.963894
 20
10.976353
 30
0.0
 11
10.761773
 21
10.501584
 31
0.0
  0
LINE
  5
24e
100
AcDbEntity
  8
Layer_1
 62
7
100
AcDbLine
 10
10.761773
 20
10.501584
 30
0.0
 11
10.520885
 21
10.063702
 31
0.0
  0
LINE
  5
24f
100
AcDbEntity
  8
Layer_1
 62
7
100
AcDbLine
 10
10.520885
 20
10.063702
 30
0.0
 11
10.817193
 21
9.744360
 31
0.0
  0
LINE
  5
250
100
AcDbEntity
  8
Layer_1
 62
7
100
AcDbLine
 10
10.817193
 20
9.744360
 30
0.0
 11
11.271850
 21
9.951852
 31
0.0
  0
LINE
  5
251
100
AcDbEntity
  8
Layer_1
 62
7
100
AcDbLine
 10
11.271850
 20
9.951852
 30
0.0
 11
11.760396
 21
10.117929
 31
0.0
  0
LINE
  5
252
100
AcDbEntity
  8
Layer_1
 62
7
100
AcDbLine
 10
11.760396
 20
10.117929
 30
0.0
 11
12.002278
 21
9.829661
 31
0.0
  0
LINE
  5
253
100
AcDbEntity
  8
Layer_1
 62
7
100
AcDbLine
 10
12.002278
 20
9.829661
 30
0.0
 11
11.753891
 21
9.377378
 31
0.0
  0
LINE
  5
254
100
AcDbEntity
  8
Layer_1
 62
7
100
AcDbLine
 10
11.753891
 20
9.377378
 30
0.0
 11
11.470599
 21
8.965658
 31
0.0
  0
LINE
  5
255
100
AcDbEntity
  8
Layer_1
 62
7
100
AcDbLine
 10
11.470599
 20
8.965658
 30
0.0
 11
11.733639
 21
8.618397
 31
0.0
  0
LINE
  5
256
100
AcDbEntity
  8
Layer_1
 62
7
100
AcDbLine
 10
11.733639
 20
8.618397
 30
0.0
 11
12.206697
 21
8.779591
 31
0.0
  0
LINE
  5
257
100
AcDbEntity
  8
Layer_1
 62
7
100
AcDbLine
 10
12.206697
 20
8.779591
 30
0.0
 11
12.709351
 21
8.896197
 31
0.0
  0
LINE
  5
258
100
AcDbEntity
  8
Layer_1
 62
7
100
AcDbLine
 10
12.709351
 20
8.896197
 30
0.0
 11
12.921331
 21
8.585281
 31
0.0
  0
LINE
  5
259
100
AcDbEntity
  8
Layer_1
 62
7
100
AcDbLine
 10
12.921331
 20
8.585281
 30
0.0
 11
12.629144
 21
8.159975
 31
0.0
  0
LINE
  5
25a
100
AcDbEntity
  8
Layer_1
 62
7
100
AcDbLine
 10
12.629144
 20
8.159975
 30
0.0
 11
12.306265
 21
7.778507
 31
0.0
  0
LINE
  5
25b
100
AcDbEntity
  8
Layer_1
 62
7
100
AcDbLine
 10
12.306265
 20
7.778507
 30
0.0
 11
12.533423
 21
7.406783
 31
0.0
  0
LINE
  5
25c
100
AcDbEntity
  8
Layer_1
 62
7
100
AcDbLine
 10
12.533423
 20
7.406783
 30
0.0
 11
13.020180
 21
7.520073
 31
0.0
  0
LINE
  5
25d
100
AcDbEntity
  8
Layer_1
 62
7
100
AcDbLine
 10
13.020180
 20
7.520073
 30
0.0
 11
13.531945
 21
7.586054
 31
0.0
  0
LINE
  5
25e
100
AcDbEntity
  8
Layer_1
 62
7
100
AcDbLine
 10
13.531945
 20
7.586054
 30
0.0
 11
13.711915
 21
7.255574
 31
0.0
  0
LINE
  5
25f
100
AcDbEntity
  8
Layer_1
 62
7
100
AcDbLine
 10
13.711915
 20
7.255574
 30
0.0
 11
13.378833
 21
6.861476
 31
0.0
  0
LINE
  5
260
100
AcDbEntity
  8
Layer_1
 62
7
100
AcDbLine
 10
13.378833
 20
6.861476
 30
0.0
 11
13.019579
 21
6.514052
 31
0.0
  0
LINE
  5
261
100
AcDbEntity
  8
Layer_1
 62
7
100
AcDbLine
 10
13.019579
 20
6.514052
 30
0.0
 11
13.208594
 21
6.121558
 31
0.0
  0
LINE
  5
262
100
AcDbEntity
  8
Layer_1
 62
7
100
AcDbLine
 10
13.208594
 20
6.121558
 30
0.0
 11
13.704213
 21
6.185820
 31
0.0
  0
LINE
  5
263
100
AcDbEntity
  8
Layer_1
 62
7
100
AcDbLine
 10
13.704213
 20
6.185820
 30
0.0
 11
14.220005
 21
6.200515
 31
0.0
  0
LINE
  5
264
100
AcDbEntity
  8
Layer_1
 62
7
100
AcDbLine
 10
14.220005
 20
6.200515
 30
0.0
 11
14.366174
 21
5.853760
 31
0.0
  0
LINE
  5
265
100
AcDbEntity
  8
Layer_1
 62
7
100
AcDbLine
 10
14.366174
 20
5.853760
 30
0.0
 11
13.995509
 21
5.494784
 31
0.0
  0
LINE
  5
266
100
AcDbEntity
  8
Layer_1
 62
7
100
AcDbLine
 10
13.995509
 20
5.494784
 30
0.0
 11
13.603446
 21
5.184856
 31
0.0
  0
LINE
  5
267
100
AcDbEntity
  8
Layer_1
 62
7
100
AcDbLine
 10
13.603446
 20
5.184856
 30
0.0
 11
13.752442
 21
4.775493
 31
0.0
  0
LINE
  5
268
100
AcDbEntity
  8
Layer_1
 62
7
100
AcDbLine
 10
13.752442
 20
4.775493
 30
0.0
 11
14.251995
 21
4.790087
 31
0.0
  0
LINE
  5
269
100
AcDbEntity
  8
Layer_1
 62
7
100
AcDbLine
 10
14.251995
 20
4.790087
 30
0.0
 11
14.766689
 21
4.753353
 31
0.0
  0
LINE
  5
26a
100
AcDbEntity
  8
Layer_1
 62
7
100
AcDbLine
 10
14.766689
 20
4.753353
 30
0.0
 11
14.877605
 21
4.393768
 31
0.0
  0
LINE
  5
26b
100
AcDbEntity
  8
Layer_1
 62
7
100
AcDbLine
 10
14.877605
 20
4.393768
 30
0.0
 11
14.473040
 21
4.073482
 31
0.0
  0
LINE
  5
26c
100
AcDbEntity
  8
Layer_1
 62
7
100
AcDbLine
 10
14.473040
 20
4.073482
 30
0.0
 11
14.052066
 21
3.804132
 31
0.0
  0
LINE
  5
26d
100
AcDbEntity
  8
Layer_1
 62
7
100
AcDbLine
 10
14.052066
 20
3.804132
 30
0.0
 11
14.159564
 21
3.381967
 31
0.0
  0
LINE
  5
26e
100
AcDbEntity
  8
Layer_1
 62
7
100
AcDbLine
 10
14.159564
 20
3.381967
 30
0.0
 11
14.658087
 21
3.346749
 31
0.0
  0
LINE
  5
26f
100
AcDbEntity
  8
Layer_1
 62
7
100
AcDbLine
 10
14.658087
 20
3.346749
 30
0.0
 11
15.166567
 21
3.258952
 31
0.0
  0
LINE
  5
270
100
AcDbEntity
  8
Layer_1
 62
7
100
AcDbLine
 10
15.166567
 20
3.258952
 30
0.0
 11
15.241130
 21
2.890110
 31
0.0
  0
LINE
  5
271
100
AcDbEntity
  8
Layer_1
 62
7
100
AcDbLine
 10
15.241130
 20
2.890110
 30
0.0
 11
14.806683
 21
2.611695
 31
0.0
  0
LINE
  5
272
100
AcDbEntity
  8
Layer_1
 62
7
100
AcDbLine
 10
14.806683
 20
2.611695
 30
0.0
 11
14.360984
 21
2.385599
 31
0.0
  0
LINE
  5
273
100
AcDbEntity
  8
Layer_1
 62
7
100
AcDbLine
 10
14.360984
 20
2.385599
 30
0.0
 11
14.425912
 21
1.954829
 31
0.0
  0
LINE
  5
274
100
AcDbEntity
  8
Layer_1
 62
7
100
AcDbLine
 10
14.425912
 20
1.954829
 30
0.0
 11
14.918454
 21
1.870151
 31
0.0
  0
LINE
  5
275
100
AcDbEntity
  8
Layer_1
 62
7
100
AcDbLine
 10
14.918454
 20
1.870151
 30
0.0
 11
15.415662
 21
1.732161
 31
0.0
  0
LINE
  5
276
100
AcDbEntity
  8
Layer_1
 62
7
100
AcDbLine
 10
15.415662
 20
1.732161
 30
0.0
 11
15.453130
 21
1.357725
 31
0.0
  0
LINE
  5
277
100
AcDbEntity
  8
Layer_1
 62
7
100
AcDbLine
 10
15.453130
 20
1.357725
 30
0.0
 11
14.993122
 21
1.123952
 31
0.0
  0
LINE
  5
278
100
AcDbEntity
  8
Layer_1
 62
7
100
AcDbLine
 10
14.993122
 20
1.123952
 30
0.0
 11
14.527125
 21
0.943358
 31
0.0
  0
LINE
  5
279
100
AcDbEntity
  8
Layer_1
 62
7
100
AcDbLine
 10
14.527125
 20
0.943358
 30
0.0
 11
14.548850
 21
0.508262
 31
0.0
  0
ENDSEC
  0
SECTION
  2
OBJECTS
  0
DICTIONARY
  5
C
330
0
100
AcDbDictionary
  3
ACAD_GROUP
350
D
  3
ACAD_MLINESTYLE
350
17
  0
DICTIONARY
  5
D
330
C
100
AcDbDictionary
  0
DICTIONARY
  5
1A
330
C
100
AcDbDictionary
  0
DICTIONARY
  5
17
330
C
100
AcDbDictionary
  3
STANDARD
350
18
  0
DICTIONARY
  5
19
330
C
100
AcDbDictionary
  0
ENDSEC
  0
EOF
