  0
SECTION
  2
HEADER
  9
$ACADVER
  1
AC1014
  9
$HANDSEED
  5
FFFF
  9
$MEASUREMENT
 70
     1
  0
ENDSEC
  0
SECTION
  2
TABLES
  0
TABLE
  2
VPORT
  5
8
330
0
100
AcDbSymbolTable
 70
     4
  0
VPORT
  5
2E
330
8
100
AcDbSymbolTableRecord
100
AcDbViewportTableRecord
  2
*ACTIVE
 70
     0
 10
0.0
 20
0.0
 11
1.0
 21
1.0
 12
210.0
 22
148.5
 13
0.0
 23
0.0
 14
10.0
 24
10.0
 15
10.0
 25
10.0
 16
0.0
 26
0.0
 36
1.0
 17
0.0
 27
0.0
 37
0.0
 40
341.0
 41
1.24
 42
50.0
 43
0.0
 44
0.0
 50
0.0
 51
0.0
 71
     0
 72
   100
 73
     1
 74
     3
 75
     0
 76
     0
 77
     0
 78
     0
  0
ENDTAB
  0
TABLE
  2
LTYPE
  5
5
330
0
100
AcDbSymbolTable
 70
     1
  0
LTYPE
  5
14
330
5
100
AcDbSymbolTableRecord
100
AcDbLinetypeTableRecord
  2
BYBLOCK
 70
     0
  3

 72
    65
 73
     0
 40
0.0
  0
LTYPE
  5
15
330
5
100
AcDbSymbolTableRecord
100
AcDbLinetypeTableRecord
  2
BYLAYER
 70
     0
  3

 72
    65
 73
     0
 40
0.0
  0
LTYPE
  5
16
330
5
100
AcDbSymbolTableRecord
100
AcDbLinetypeTableRecord
  2
CONTINUOUS
 70
     0
  3
Solid line
 72
    65
 73
     0
 40
0.0
  0
ENDTAB
  0
TABLE
  2
LAYER
  5
2
100
AcDbSymbolTable
 70
2
  0
LAYER
  5
50
100
AcDbSymbolTableRecord
100
AcDbLayerTableRecord
  2
0
 70
0
  6
CONTINUOUS
  0
LAYER
  5
51
100
AcDbSymbolTableRecord
100
AcDbLayerTableRecord
  2
Layer_1
 70
0
  6
CONTINUOUS
  0
ENDTAB
  0
TABLE
  2
STYLE
  5
3
330
0
100
AcDbSymbolTable
 70
     1
  0
STYLE
  5
11
330
3
100
AcDbSymbolTableRecord
100
AcDbTextStyleTableRecord
  2
STANDARD
 70
     0
 40
0.0
 41
1.0
 50
0.0
 71
     0
 42
2.5
  3
txt
  4

  0
ENDTAB
  0
TABLE
  2
VIEW
  5
6
330
0
100
AcDbSymbolTable
 70
     0
  0
ENDTAB
  0
TABLE
  2
UCS
  5
7
330
0
100
AcDbSymbolTable
 70
     0
  0
ENDTAB
  0
TABLE
  2
APPID
  5
9
330
0
100
AcDbSymbolTable
 70
     2
  0
APPID
  5
12
330
9
100
AcDbSymbolTableRecord
100
AcDbRegAppTableRecord
  2
ACAD
 70
     0
  0
ENDTAB
  0
TABLE
  2
DIMSTYLE
  5
A
330
0
100
AcDbSymbolTable
 70
     1
  0
DIMSTYLE
105
27
330
A
100
AcDbSymbolTableRecord
100
AcDbDimStyleTableRecord
  2
ISO-25
 70
     0
  3

  4

  5

  6

  7

 40
1.0
 41
2.5
 42
0.625
 43
3.75
 44
1.25
 45
0.0
 46
0.0
 47
0.0
 48
0.0
140
2.5
141
2.5
142
0.0
143
0.03937007874016
144
1.0
145
0.0
146
1.0
147
0.625
 71
     0
 72
     0
 73
     0
 74
     0
 75
     0
 76
     0
 77
     1
 78
     8
170
     0
171
     3
172
     1
173
     0
174
     0
175
     0
176
     0
177
     0
178
     0
270
     2
271
     2
272
     2
273
     2
274
     3
340
11
275
     0
280
     0
281
     0
282
     0
283
     0
284
     8
285
     0
286
     0
287
     3
288
     0
  0
ENDTAB
  0
TABLE
  2
BLOCK_RECORD
  5
1
330
0
100
AcDbSymbolTable
 70
     1
  0
BLOCK_RECORD
  5
1F
330
1
100
AcDbSymbolTableRecord
100
AcDbBlockTableRecord
  2
*MODEL_SPACE
  0
BLOCK_RECORD
  5
1B
330
1
100
AcDbSymbolTableRecord
100
AcDbBlockTableRecord
  2
*PAPER_SPACE
  0
ENDTAB
  0
ENDSEC
  0
SECTION
  2
BLOCKS
  0
BLOCK
  5
20
330
1F
100
AcDbEntity
  8
0
100
AcDbBlockBegin
  2
*MODEL_SPACE
 70
     0
 10
0.0
 20
0.0
 30
0.0
  3
*MODEL_SPACE
  1

  0
ENDBLK
  5
21
330
1F
100
AcDbEntity
  8
0
100
AcDbBlockEnd
  0
BLOCK
  5
1C
330
1B
100
AcDbEntity
 67
     1
  8
0
100
AcDbBlockBegin
  2
*PAPER_SPACE
  1

  0
ENDBLK
  5
1D
330
1B
100
AcDbEntity
 67
     1
  8
0
100
AcDbBlockEnd
  0
ENDSEC
  0
SECTION
  2
ENTITIES
  0
LINE
  5
100
100
AcDbEntity
  8
Layer_1
 62
7
100
AcDbLine
 10
9.768254
 20
0.486934
 30
0.0
 11
10.250990
 21
0.374918
 31
0.0
  0
LINE
  5
101
100
AcDbEntity
  8
Layer_1
 62
7
100
AcDbLine
 10
10.250990
 20
0.374918
 30
0.0
 11
10.733748
 21
0.182800
 31
0.0
  0
LINE
  5
102
100
AcDbEntity
  8
Layer_1
 62
7
100
AcDbLine
 10
10.733748
 20
0.182800
 30
0.0
 11
10.733748
 21
-0.182796
 31
0.0
  0
LINE
  5
103
100
AcDbEntity
  8
Layer_1
 62
7
100
AcDbLine
 10
10.733748
 20
-0.182796
 30
0.0
 11
10.250990
 21
-0.374913
 31
0.0
  0
LINE
  5
104
100
AcDbEntity
  8
Layer_1
 62
7
100
AcDbLine
 10
10.250990
 20
-0.374913
 30
0.0
 11
9.768254
 21
-0.486930
 31
0.0
  0
LINE
  5
105
100
AcDbEntity
  8
Layer_1
 62
7
100
AcDbLine
 10
9.768254
 20
-0.486930
 30
0.0
 11
9.734975
 21
-0.941638
 31
0.0
  0
LINE
  5
106
100
AcDbEntity
  8
Layer_1
 62
7
100
AcDbLine
 10
9.734975
 20
-0.941638
 30
0.0
 11
10.196256
 21
-1.122748
 31
0.0
  0
LINE
  5
107
100
AcDbEntity
  8
Layer_1
 62
7
100
AcDbLine
 10
10.196256
 20
-1.122748
 30
0.0
 11
10.645898
 21
-1.383110
 31
0.0
  0
LINE
  5
108
100
AcDbEntity
  8
Layer_1
 62
7
100
AcDbLine
 10
10.645898
 20
-1.383110
 30
0.0
 11
10.592665
 21
-1.744808
 31
0.0
  0
LINE
  5
109
100
AcDbEntity
  8
Layer_1
 62
7
100
AcDbLine
 10
10.592665
 20
-1.744808
 30
0.0
 11
10.087078
 21
-1.864589
 31
0.0
  0
LINE
  5
10a
100
AcDbEntity
  8
Layer_1
 62
7
100
AcDbLine
 10
10.087078
 20
-1.864589
 30
0.0
 11
9.593178
 21
-1.905125
 31
0.0
  0
LINE
  5
10b
100
AcDbEntity
  8
Layer_1
 62
7
100
AcDbLine
 10
9.593178
 20
-1.905125
 30
0.0
 11
9.494047
 21
-2.350141
 31
0.0
  0
LINE
  5
10c
100
AcDbEntity
  8
Layer_1
 62
7
100
AcDbLine
 10
9.494047
 20
-2.350141
 30
0.0
 11
9.924044
 21
-2.596484
 31
0.0
  0
LINE
  5
10d
100
AcDbEntity
  8
Layer_1
 62
7
100
AcDbLine
 10
9.924044
 20
-2.596484
 30
0.0
 11
10.330983
 21
-2.919539
 31
0.0
  0
LINE
  5
10e
100
AcDbEntity
  8
Layer_1
 62
7
100
AcDbLine
 10
10.330983
 20
-2.919539
 30
0.0
 11
10.225655
 21
-3.269635
 31
0.0
  0
LINE
  5
10f
100
AcDbEntity
  8
Layer_1
 62
7
100
AcDbLine
 10
10.225655
 20
-3.269635
 30
0.0
 11
9.708017
 21
-3.314526
 31
0.0
  0
LINE
  5
110
100
AcDbEntity
  8
Layer_1
 62
7
100
AcDbLine
 10
9.708017
 20
-3.314526
 30
0.0
 11
9.213476
 21
-3.282716
 31
0.0
  0
LINE
  5
111
100
AcDbEntity
  8
Layer_1
 62
7
100
AcDbLine
 10
9.213476
 20
-3.282716
 30
0.0
 11
9.050606
 21
-3.708556
 31
0.0
  0
LINE
  5
112
100
AcDbEntity
  8
Layer_1
 62
7
100
AcDbLine
 10
9.050606
 20
-3.708556
 30
0.0
 11
9.440154
 21
-4.014880
 31
0.0
  0
LINE
  5
113
100
AcDbEntity
  8
Layer_1
 62
7
100
AcDbLine
 10
9.440154
 20
-4.014880
 30
0.0
 11
9.795720
 21
-4.393743
 31
0.0
  0
LINE
  5
114
100
AcDbEntity
  8
Layer_1
 62
7
100
AcDbLine
 10
9.795720
 20
-4.393743
 30
0.0
 11
9.640540
 21
-4.724773
 31
0.0
  0
LINE
  5
115
100
AcDbEntity
  8
Layer_1
 62
7
100
AcDbLine
 10
9.640540
 20
-4.724773
 30
0.0
 11
9.121881
 21
-4.693816
 31
0.0
  0
LINE
  5
116
100
AcDbEntity
  8
Layer_1
 62
7
100
AcDbLine
 10
9.121881
 20
-4.693816
 30
0.0
 11
8.637243
 21
-4.590342
 31
0.0
  0
LINE
  5
117
100
AcDbEntity
  8
Layer_1
 62
7
100
AcDbLine
 10
8.637243
 20
-4.590342
 30
0.0
 11
8.414107
 21
-4.987928
 31
0.0
  0
LINE
  5
118
100
AcDbEntity
  8
Layer_1
 62
7
100
AcDbLine
 10
8.414107
 20
-4.987928
 30
0.0
 11
8.754899
 21
-5.347708
 31
0.0
  0
LINE
  5
119
100
AcDbEntity
  8
Layer_1
 62
7
100
AcDbLine
 10
8.754899
 20
-5.347708
 30
0.0
 11
9.051514
 21
-5.774304
 31
0.0
  0
LINE
  5
11a
100
AcDbEntity
  8
Layer_1
 62
7
100
AcDbLine
 10
9.051514
 20
-5.774304
 30
0.0
 11
8.849790
 21
-6.079211
 31
0.0
  0
LINE
  5
11b
100
AcDbEntity
  8
Layer_1
 62
7
100
AcDbLine
 10
8.849790
 20
-6.079211
 30
0.0
 11
8.341167
 21
-5.973067
 31
0.0
  0
LINE
  5
11c
100
AcDbEntity
  8
Layer_1
 62
7
100
AcDbLine
 10
8.341167
 20
-5.973067
 30
0.0
 11
7.876759
 21
-5.800130
 31
0.0
  0
LINE
  5
11d
100
AcDbEntity
  8
Layer_1
 62
7
100
AcDbLine
 10
7.876759
 20
-5.800130
 30
0.0
 11
7.598109
 21
-6.160991
 31
0.0
  0
LINE
  5
11e
100
AcDbEntity
  8
Layer_1
 62
7
100
AcDbLine
 10
7.598109
 20
-6.160991
 30
0.0
 11
7.882889
 21
-6.566558
 31
0.0
  0
LINE
  5
11f
100
AcDbEntity
  8
Layer_1
 62
7
100
AcDbLine
 10
7.882889
 20
-6.566558
 30
0.0
 11
8.114229
 21
-7.031796
 31
0.0
  0
LINE
  5
120
100
AcDbEntity
  8
Layer_1
 62
7
100
AcDbLine
 10
8.114229
 20
-7.031796
 30
0.0
 11
7.870259
 21
-7.304081
 31
0.0
  0
LINE
  5
121
100
AcDbEntity
  8
Layer_1
 62
7
100
AcDbLine
 10
7.870259
 20
-7.304081
 30
0.0
 11
7.382509
 21
-7.125011
 31
0.0
  0
LINE
  5
122
100
AcDbEntity
  8
Layer_1
 62
7
100
AcDbLine
 10
7.382509
 20
-7.125011
 30
0.0
 11
6.948231
 21
-6.886302
 31
0.0
  0
LINE
  5
123
100
AcDbEntity
  8
Layer_1
 62
7
100
AcDbLine
 10
6.948231
 20
-6.886302
 30
0.0
 11
6.620009
 21
-7.202743
 31
0.0
  0
LINE
  5
124
100
AcDbEntity
  8
Layer_1
 62
7
100
AcDbLine
 10
6.620009
 20
-7.202743
 30
0.0
 11
6.842702
 21
-7.645451
 31
0.0
  0
LINE
  5
125
100
AcDbEntity
  8
Layer_1
 62
7
100
AcDbLine
 10
6.842702
 20
-7.645451
 30
0.0
 11
7.003837
 21
-8.139416
 31
0.0
  0
LINE
  5
126
100
AcDbEntity
  8
Layer_1
 62
7
100
AcDbLine
 10
7.003837
 20
-8.139416
 30
0.0
 11
6.722823
 21
-8.373277
 31
0.0
  0
LINE
  5
127
100
AcDbEntity
  8
Layer_1
 62
7
100
AcDbLine
 10
6.722823
 20
-8.373277
 30
0.0
 11
6.266345
 21
-8.125099
 31
0.0
  0
LINE
  5
128
100
AcDbEntity
  8
Layer_1
 62
7
100
AcDbLine
 10
6.266345
 20
-8.125099
 30
0.0
 11
5.871451
 21
-7.825701
 31
0.0
  0
LINE
  5
129
100
AcDbEntity
  8
Layer_1
 62
7
100
AcDbLine
 10
5.871451
 20
-7.825701
 30
0.0
 11
5.500654
 21
-8.090984
 31
0.0
  0
LINE
  5
12a
100
AcDbEntity
  8
Layer_1
 62
7
100
AcDbLine
 10
5.500654
 20
-8.090984
 30
0.0
 11
5.656514
 21
-8.561398
 31
0.0
  0
LINE
  5
12b
100
AcDbEntity
  8
Layer_1
 62
7
100
AcDbLine
 10
5.656514
 20
-8.561398
 30
0.0
 11
5.744011
 21
-9.073558
 31
0.0
  0
LINE
  5
12c
100
AcDbEntity
  8
Layer_1
 62
7
100
AcDbLine
 10
5.744011
 20
-9.073558
 30
0.0
 11
5.431941
 21
-9.264013
 31
0.0
  0
LINE
  5
12d
100
AcDbEntity
  8
Layer_1
 62
7
100
AcDbLine
 10
5.431941
 20
-9.264013
 30
0.0
 11
5.016462
 21
-8.952016
 31
0.0
  0
LINE
  5
12e
100
AcDbEntity
  8
Layer_1
 62
7
100
AcDbLine
 10
5.016462
 20
-8.952016
 30
0.0
 11
4.669368
 21
-8.598310
 31
0.0
  0
LINE
  5
12f
100
AcDbEntity
  8
Layer_1
 62
7
100
AcDbLine
 10
4.669368
 20
-8.598310
 30
0.0
 11
4.263897
 21
-8.806776
 31
0.0
  0
LINE
  5
130
100
AcDbEntity
  8
Layer_1
 62
7
100
AcDbLine
 10
4.263897
 20
-8.806776
 30
0.0
 11
4.349602
 21
-9.294871
 31
0.0
  0
LINE
  5
131
100
AcDbEntity
  8
Layer_1
 62
7
100
AcDbLine
 10
4.349602
 20
-9.294871
 30
0.0
 11
4.361596
 21
-9.814315
 31
0.0
  0
LINE
  5
132
100
AcDbEntity
  8
Layer_1
 62
7
100
AcDbLine
 10
4.361596
 20
-9.814315
 30
0.0
 11
4.025120
 21
-9.957300
 31
0.0
  0
LINE
  5
133
100
AcDbEntity
  8
Layer_1
 62
7
100
AcDbLine
 10
4.025120
 20
-9.957300
 30
0.0
 11
3.659495
 21
-9.588134
 31
0.0
  0
LINE
  5
134
100
AcDbEntity
  8
Layer_1
 62
7
100
AcDbLine
 10
3.659495
 20
-9.588134
 30
0.0
 11
3.367601
 21
-9.187660
 31
0.0
  0
LINE
  5
135
100
AcDbEntity
  8
Layer_1
 62
7
100
AcDbLine
 10
3.367601
 20
-9.187660
 30
0.0
 11
2.936097
 21
-9.334870
 31
0.0
  0
LINE
  5
136
100
AcDbEntity
  8
Layer_1
 62
7
100
AcDbLine
 10
2.936097
 20
-9.334870
 30
0.0
 11
2.949825
 21
-9.830241
 31
0.0
  0
LINE
  5
137
100
AcDbEntity
  8
Layer_1
 62
7
100
AcDbLine
 10
2.949825
 20
-9.830241
 30
0.0
 11
2.886059
 21
-10.345895
 31
0.0
  0
LINE
  5
138
100
AcDbEntity
  8
Layer_1
 62
7
100
AcDbLine
 10
2.886059
 20
-10.345895
 30
0.0
 11
2.532350
 21
-10.438365
 31
0.0
  0
LINE
  5
139
100
AcDbEntity
  8
Layer_1
 62
7
100
AcDbLine
 10
2.532350
 20
-10.438365
 30
0.0
 11
2.224373
 21
-10.019900
 31
0.0
  0
LINE
  5
13a
100
AcDbEntity
  8
Layer_1
 62
7
100
AcDbLine
 10
2.224373
 20
-10.019900
 30
0.0
 11
1.993899
 21
-9.581194
 31
0.0
  0
LINE
  5
13b
100
AcDbEntity
  8
Layer_1
 62
7
100
AcDbLine
 10
1.993899
 20
-9.581194
 30
0.0
 11
1.545560
 21
-9.664006
 31
0.0
  0
LINE
  5
13c
100
AcDbEntity
  8
Layer_1
 62
7
100
AcDbLine
 10
1.545560
 20
-9.664006
 30
0.0
 11
1.487013
 21
-10.156095
 31
0.0
  0
LINE
  5
13d
100
AcDbEntity
  8
Layer_1
 62
7
100
AcDbLine
 10
1.487013
 20
-10.156095
 30
0.0
 11
1.348846
 21
-10.656971
 31
0.0
  0
LINE
  5
13e
100
AcDbEntity
  8
Layer_1
 62
7
100
AcDbLine
 10
1.348846
 20
-10.656971
 30
0.0
 11
0.985442
 21
-10.696957
 31
0.0
  0
LINE
  5
13f
100
AcDbEntity
  8
Layer_1
 62
7
100
AcDbLine
 10
0.985442
 20
-10.696957
 30
0.0
 11
0.741679
 21
-10.238106
 31
0.0
  0
LINE
  5
140
100
AcDbEntity
  8
Layer_1
 62
7
100
AcDbLine
 10
0.741679
 20
-10.238106
 30
0.0
 11
0.577535
 21
-9.770517
 31
0.0
  0
LINE
  5
141
100
AcDbEntity
  8
Layer_1
 62
7
100
AcDbLine
 10
0.577535
 20
-9.770517
 30
0.0
 11
0.121919
 21
-9.787168
 31
0.0
  0
LINE
  5
142
100
AcDbEntity
  8
Layer_1
 62
7
100
AcDbLine
 10
0.121919
 20
-9.787168
 30
0.0
 11
-0.007655
 21
-10.265492
 31
0.0
  0
LINE
  5
143
100
AcDbEntity
  8
Layer_1
 62
7
100
AcDbLine
 10
-0.007655
 20
-10.265492
 30
0.0
 11
-0.217276
 21
-10.740910
 31
0.0
  0
LINE
  5
144
100
AcDbEntity
  8
Layer_1
 62
7
100
AcDbLine
 10
-0.217276
 20
-10.740910
 30
0.0
 11
-0.582629
 21
-10.727558
 31
0.0
  0
LINE
  5
145
100
AcDbEntity
  8
Layer_1
 62
7
100
AcDbLine
 10
-0.582629
 20
-10.727558
 30
0.0
 11
-0.756989
 21
-10.238106
 31
0.0
  0
LINE
  5
146
100
AcDbEntity
  8
Layer_1
 62
7
100
AcDbLine
 10
-0.756989
 20
-10.238106
 30
0.0
 11
-0.851299
 21
-9.751602
 31
0.0
  0
LINE
  5
147
100
AcDbEntity
  8
Layer_1
 62
7
100
AcDbLine
 10
-0.851299
 20
-9.751602
 30
0.0
 11
-1.304486
 21
-9.701737
 31
0.0
  0
LINE
  5
148
100
AcDbEntity
  8
Layer_1
 62
7
100
AcDbLine
 10
-1.304486
 20
-9.701737
 30
0.0
 11
-1.502324
 21
-10.156095
 31
0.0
  0
LINE
  5
149
100
AcDbEntity
  8
Layer_1
 62
7
100
AcDbLine
 10
-1.502324
 20
-10.156095
 30
0.0
 11
-1.778933
 21
-10.595927
 31
0.0
  0
LINE
  5
14a
100
AcDbEntity
  8
Layer_1
 62
7
100
AcDbLine
 10
-1.778933
 20
-10.595927
 30
0.0
 11
-2.138447
 21
-10.529523
 31
0.0
  0
LINE
  5
14b
100
AcDbEntity
  8
Layer_1
 62
7
100
AcDbLine
 10
-2.138447
 20
-10.529523
 30
0.0
 11
-2.239683
 21
-10.019900
 31
0.0
  0
LINE
  5
14c
100
AcDbEntity
  8
Layer_1
 62
7
100
AcDbLine
 10
-2.239683
 20
-10.019900
 30
0.0
 11
-2.262154
 21
-9.524845
 31
0.0
  0
LINE
  5
14d
100
AcDbEntity
  8
Layer_1
 62
7
100
AcDbLine
 10
-2.262154
 20
-9.524845
 30
0.0
 11
-2.703253
 21
-9.409529
 31
0.0
  0
LINE
  5
14e
100
AcDbEntity
  8
Layer_1
 62
7
100
AcDbLine
 10
-2.703253
 20
-9.409529
 30
0.0
 11
-2.965135
 21
-9.830241
 31
0.0
  0
LINE
  5
14f
100
AcDbEntity
  8
Layer_1
 62
7
100
AcDbLine
 10
-2.965135
 20
-9.830241
 30
0.0
 11
-3.302837
 21
-10.225112
 31
0.0
  0
LINE
  5
150
100
AcDbEntity
  8
Layer_1
 62
7
100
AcDbLine
 10
-3.302837
 20
-10.225112
 30
0.0
 11
-3.648853
 21
-10.107067
 31
0.0
  0
LINE
  5
151
100
AcDbEntity
  8
Layer_1
 62
7
100
AcDbLine
 10
-3.648853
 20
-10.107067
 30
0.0
 11
-3.674806
 21
-9.588134
 31
0.0
  0
LINE
  5
152
100
AcDbEntity
  8
Layer_1
 62
7
100
AcDbLine
 10
-3.674806
 20
-9.588134
 30
0.0
 11
-3.624957
 21
-9.095086
 31
0.0
  0
LINE
  5
153
100
AcDbEntity
  8
Layer_1
 62
7
100
AcDbLine
 10
-3.624957
 20
-9.095086
 30
0.0
 11
-4.044565
 21
-8.916772
 31
0.0
  0
LINE
  5
154
100
AcDbEntity
  8
Layer_1
 62
7
100
AcDbLine
 10
-4.044565
 20
-8.916772
 30
0.0
 11
-4.364912
 21
-9.294871
 31
0.0
  0
LINE
  5
155
100
AcDbEntity
  8
Layer_1
 62
7
100
AcDbLine
 10
-4.364912
 20
-9.294871
 30
0.0
 11
-4.756510
 21
-9.636363
 31
0.0
  0
LINE
  5
156
100
AcDbEntity
  8
Layer_1
 62
7
100
AcDbLine
 10
-4.756510
 20
-9.636363
 30
0.0
 11
-5.081650
 21
-9.469197
 31
0.0
  0
LINE
  5
157
100
AcDbEntity
  8
Layer_1
 62
7
100
AcDbLine
 10
-5.081650
 20
-9.469197
 30
0.0
 11
-5.031772
 21
-8.952016
 31
0.0
  0
LINE
  5
158
100
AcDbEntity
  8
Layer_1
 62
7
100
AcDbLine
 10
-5.031772
 20
-8.952016
 30
0.0
 11
-4.910665
 21
-8.471479
 31
0.0
  0
LINE
  5
159
100
AcDbEntity
  8
Layer_1
 62
7
100
AcDbLine
 10
-4.910665
 20
-8.471479
 30
0.0
 11
-5.299838
 21
-8.233972
 31
0.0
  0
LINE
  5
15a
100
AcDbEntity
  8
Layer_1
 62
7
100
AcDbLine
 10
-5.299838
 20
-8.233972
 30
0.0
 11
-5.671824
 21
-8.561398
 31
0.0
  0
LINE
  5
15b
100
AcDbEntity
  8
Layer_1
 62
7
100
AcDbLine
 10
-5.671824
 20
-8.561398
 30
0.0
 11
-6.108970
 21
-8.842234
 31
0.0
  0
LINE
  5
15c
100
AcDbEntity
  8
Layer_1
 62
7
100
AcDbLine
 10
-6.108970
 20
-8.842234
 30
0.0
 11
-6.406305
 21
-8.629509
 31
0.0
  0
LINE
  5
15d
100
AcDbEntity
  8
Layer_1
 62
7
100
AcDbLine
 10
-6.406305
 20
-8.629509
 30
0.0
 11
-6.281656
 21
-8.125099
 31
0.0
  0
LINE
  5
15e
100
AcDbEntity
  8
Layer_1
 62
7
100
AcDbLine
 10
-6.281656
 20
-8.125099
 30
0.0
 11
-6.091872
 21
-7.667318
 31
0.0
  0
LINE
  5
15f
100
AcDbEntity
  8
Layer_1
 62
7
100
AcDbLine
 10
-6.091872
 20
-7.667318
 30
0.0
 11
-6.442316
 21
-7.375678
 31
0.0
  0
LINE
  5
160
100
AcDbEntity
  8
Layer_1
 62
7
100
AcDbLine
 10
-6.442316
 20
-7.375678
 30
0.0
 11
-6.858013
 21
-7.645451
 31
0.0
  0
LINE
  5
161
100
AcDbEntity
  8
Layer_1
 62
7
100
AcDbLine
 10
-6.858013
 20
-7.645451
 30
0.0
 11
-7.331390
 21
-7.859647
 31
0.0
  0
LINE
  5
162
100
AcDbEntity
  8
Layer_1
 62
7
100
AcDbLine
 10
-7.331390
 20
-7.859647
 30
0.0
 11
-7.594584
 21
-7.605895
 31
0.0
  0
LINE
  5
163
100
AcDbEntity
  8
Layer_1
 62
7
100
AcDbLine
 10
-7.594584
 20
-7.605895
 30
0.0
 11
-7.397819
 21
-7.125011
 31
0.0
  0
LINE
  5
164
100
AcDbEntity
  8
Layer_1
 62
7
100
AcDbLine
 10
-7.397819
 20
-7.125011
 30
0.0
 11
-7.143407
 21
-6.699742
 31
0.0
  0
LINE
  5
165
100
AcDbEntity
  8
Layer_1
 62
7
100
AcDbLine
 10
-7.143407
 20
-6.699742
 30
0.0
 11
-7.447651
 21
-6.360183
 31
0.0
  0
LINE
  5
166
100
AcDbEntity
  8
Layer_1
 62
7
100
AcDbLine
 10
-7.447651
 20
-6.360183
 30
0.0
 11
-7.898199
 21
-6.566558
 31
0.0
  0
LINE
  5
167
100
AcDbEntity
  8
Layer_1
 62
7
100
AcDbLine
 10
-7.898199
 20
-6.566558
 30
0.0
 11
-8.397716
 21
-6.709546
 31
0.0
  0
LINE
  5
168
100
AcDbEntity
  8
Layer_1
 62
7
100
AcDbLine
 10
-8.397716
 20
-6.709546
 30
0.0
 11
-8.621159
 21
-6.420178
 31
0.0
  0
LINE
  5
169
100
AcDbEntity
  8
Layer_1
 62
7
100
AcDbLine
 10
-8.621159
 20
-6.420178
 30
0.0
 11
-8.356477
 21
-5.973067
 31
0.0
  0
LINE
  5
16a
100
AcDbEntity
  8
Layer_1
 62
7
100
AcDbLine
 10
-8.356477
 20
-5.973067
 30
0.0
 11
-8.042855
 21
-5.589369
 31
0.0
  0
LINE
  5
16b
100
AcDbEntity
  8
Layer_1
 62
7
100
AcDbLine
 10
-8.042855
 20
-5.589369
 30
0.0
 11
-8.294417
 21
-5.209131
 31
0.0
  0
LINE
  5
16c
100
AcDbEntity
  8
Layer_1
 62
7
100
AcDbLine
 10
-8.294417
 20
-5.209131
 30
0.0
 11
-8.770209
 21
-5.347708
 31
0.0
  0
LINE
  5
16d
100
AcDbEntity
  8
Layer_1
 62
7
100
AcDbLine
 10
-8.770209
 20
-5.347708
 30
0.0
 11
-9.285225
 21
-5.416440
 31
0.0
  0
LINE
  5
16e
100
AcDbEntity
  8
Layer_1
 62
7
100
AcDbLine
 10
-9.285225
 20
-5.416440
 30
0.0
 11
-9.464154
 21
-5.097622
 31
0.0
  0
LINE
  5
16f
100
AcDbEntity
  8
Layer_1
 62
7
100
AcDbLine
 10
-9.464154
 20
-5.097622
 30
0.0
 11
-9.137191
 21
-4.693816
 31
0.0
  0
LINE
  5
170
100
AcDbEntity
  8
Layer_1
 62
7
100
AcDbLine
 10
-9.137191
 20
-4.693816
 30
0.0
 11
-8.771045
 21
-4.359871
 31
0.0
  0
LINE
  5
171
100
AcDbEntity
  8
Layer_1
 62
7
100
AcDbLine
 10
-8.771045
 20
-4.359871
 30
0.0
 11
-8.964565
 21
-3.947059
 31
0.0
  0
LINE
  5
172
100
AcDbEntity
  8
Layer_1
 62
7
100
AcDbLine
 10
-8.964565
 20
-3.947059
 30
0.0
 11
-9.455465
 21
-4.014880
 31
0.0
  0
LINE
  5
173
100
AcDbEntity
  8
Layer_1
 62
7
100
AcDbLine
 10
-9.455465
 20
-4.014880
 30
0.0
 11
-9.974999
 21
-4.007895
 31
0.0
  0
LINE
  5
174
100
AcDbEntity
  8
Layer_1
 62
7
100
AcDbLine
 10
-9.974999
 20
-4.007895
 30
0.0
 11
-10.105600
 21
-3.666423
 31
0.0
  0
LINE
  5
175
100
AcDbEntity
  8
Layer_1
 62
7
100
AcDbLine
 10
-10.105600
 20
-3.666423
 30
0.0
 11
-9.723327
 21
-3.314526
 31
0.0
  0
LINE
  5
176
100
AcDbEntity
  8
Layer_1
 62
7
100
AcDbLine
 10
-9.723327
 20
-3.314526
 30
0.0
 11
-9.312460
 21
-3.037451
 31
0.0
  0
LINE
  5
177
100
AcDbEntity
  8
Layer_1
 62
7
100
AcDbLine
 10
-9.312460
 20
-3.037451
 30
0.0
 11
-9.443812
 21
-2.600859
 31
0.0
  0
LINE
  5
178
100
AcDbEntity
  8
Layer_1
 62
7
100
AcDbLine
 10
-9.443812
 20
-2.600859
 30
0.0
 11
-9.939354
 21
-2.596484
 31
0.0
  0
LINE
  5
179
100
AcDbEntity
  8
Layer_1
 62
7
100
AcDbLine
 10
-9.939354
 20
-2.596484
 30
0.0
 11
-10.452333
 21
-2.513929
 31
0.0
  0
LINE
  5
17a
100
AcDbEntity
  8
Layer_1
 62
7
100
AcDbLine
 10
-10.452333
 20
-2.513929
 30
0.0
 11
-10.531826
 21
-2.157079
 31
0.0
  0
LINE
  5
17b
100
AcDbEntity
  8
Layer_1
 62
7
100
AcDbLine
 10
-10.531826
 20
-2.157079
 30
0.0
 11
-10.102389
 21
-1.864589
 31
0.0
  0
LINE
  5
17c
100
AcDbEntity
  8
Layer_1
 62
7
100
AcDbLine
 10
-10.102389
 20
-1.864589
 30
0.0
 11
-9.655557
 21
-1.650292
 31
0.0
  0
LINE
  5
17d
100
AcDbEntity
  8
Layer_1
 62
7
100
AcDbLine
 10
-9.655557
 20
-1.650292
 30
0.0
 11
-9.721942
 21
-1.199228
 31
0.0
  0
LINE
  5
17e
100
AcDbEntity
  8
Layer_1
 62
7
100
AcDbLine
 10
-9.721942
 20
-1.199228
 30
0.0
 11
-10.211566
 21
-1.122748
 31
0.0
  0
LINE
  5
17f
100
AcDbEntity
  8
Layer_1
 62
7
100
AcDbLine
 10
-10.211566
 20
-1.122748
 30
0.0
 11
-10.707061
 21
-0.966380
 31
0.0
  0
LINE
  5
180
100
AcDbEntity
  8
Layer_1
 62
7
100
AcDbLine
 10
-10.707061
 20
-0.966380
 30
0.0
 11
-10.733748
 21
-0.601760
 31
0.0
  0
LINE
  5
181
100
AcDbEntity
  8
Layer_1
 62
7
100
AcDbLine
 10
-10.733748
 20
-0.601760
 30
0.0
 11
-10.266300
 21
-0.374913
 31
0.0
  0
LINE
  5
182
100
AcDbEntity
  8
Layer_1
 62
7
100
AcDbLine
 10
-10.266300
 20
-0.374913
 30
0.0
 11
-9.793031
 21
-0.227960
 31
0.0
  0
LINE
  5
183
100
AcDbEntity
  8
Layer_1
 62
7
100
AcDbLine
 10
-9.793031
 20
-0.227960
 30
0.0
 11
-9.793031
 21
0.227964
 31
0.0
  0
LINE
  5
184
100
AcDbEntity
  8
Layer_1
 62
7
100
AcDbLine
 10
-9.793031
 20
0.227964
 30
0.0
 11
-10.266300
 21
0.374918
 31
0.0
  0
LINE
  5
185
100
AcDbEntity
  8
Layer_1
 62
7
100
AcDbLine
 10
-10.266300
 20
0.374918
 30
0.0
 11
-10.733748
 21
0.601765
 31
0.0
  0
LINE
  5
186
100
AcDbEntity
  8
Layer_1
 62
7
100
AcDbLine
 10
-10.733748
 20
0.601765
 30
0.0
 11
-10.707061
 21
0.966385
 31
0.0
  0
LINE
  5
187
100
AcDbEntity
  8
Layer_1
 62
7
100
AcDbLine
 10
-10.707061
 20
0.966385
 30
0.0
 11
-10.211566
 21
1.122753
 31
0.0
  0
LINE
  5
188
100
AcDbEntity
  8
Layer_1
 62
7
100
AcDbLine
 10
-10.211566
 20
1.122753
 30
0.0
 11
-9.721942
 21
1.199232
 31
0.0
  0
LINE
  5
189
100
AcDbEntity
  8
Layer_1
 62
7
100
AcDbLine
 10
-9.721942
 20
1.199232
 30
0.0
 11
-9.655557
 21
1.650297
 31
0.0
  0
LINE
  5
18a
100
AcDbEntity
  8
Layer_1
 62
7
100
AcDbLine
 10
-9.655557
 20
1.650297
 30
0.0
 11
-10.102389
 21
1.864594
 31
0.0
  0
LINE
  5
18b
100
AcDbEntity
  8
Layer_1
 62
7
100
AcDbLine
 10
-10.102389
 20
1.864594
 30
0.0
 11
-10.531826
 21
2.157083
 31
0.0
  0
LINE
  5
18c
100
AcDbEntity
  8
Layer_1
 62
7
100
AcDbLine
 10
-10.531826
 20
2.157083
 30
0.0
 11
-10.452333
 21
2.513933
 31
0.0
  0
LINE
  5
18d
100
AcDbEntity
  8
Layer_1
 62
7
100
AcDbLine
 10
-10.452333
 20
2.513933
 30
0.0
 11
-9.939354
 21
2.596489
 31
0.0
  0
LINE
  5
18e
100
AcDbEntity
  8
Layer_1
 62
7
100
AcDbLine
 10
-9.939354
 20
2.596489
 30
0.0
 11
-9.443812
 21
2.600864
 31
0.0
  0
LINE
  5
18f
100
AcDbEntity
  8
Layer_1
 62
7
100
AcDbLine
 10
-9.443812
 20
2.600864
 30
0.0
 11
-9.312460
 21
3.037456
 31
0.0
  0
LINE
  5
190
100
AcDbEntity
  8
Layer_1
 62
7
100
AcDbLine
 10
-9.312460
 20
3.037456
 30
0.0
 11
-9.723327
 21
3.314530
 31
0.0
  0
LINE
  5
191
100
AcDbEntity
  8
Layer_1
 62
7
100
AcDbLine
 10
-9.723327
 20
3.314530
 30
0.0
 11
-10.105600
 21
3.666427
 31
0.0
  0
LINE
  5
192
100
AcDbEntity
  8
Layer_1
 62
7
100
AcDbLine
 10
-10.105600
 20
3.666427
 30
0.0
 11
-9.974999
 21
4.007899
 31
0.0
  0
LINE
  5
193
100
AcDbEntity
  8
Layer_1
 62
7
100
AcDbLine
 10
-9.974999
 20
4.007899
 30
0.0
 11
-9.455465
 21
4.014884
 31
0.0
  0
LINE
  5
194
100
AcDbEntity
  8
Layer_1
 62
7
100
AcDbLine
 10
-9.455465
 20
4.014884
 30
0.0
 11
-8.964565
 21
3.947064
 31
0.0
  0
LINE
  5
195
100
AcDbEntity
  8
Layer_1
 62
7
100
AcDbLine
 10
-8.964565
 20
3.947064
 30
0.0
 11
-8.771045
 21
4.359876
 31
0.0
  0
LINE
  5
196
100
AcDbEntity
  8
Layer_1
 62
7
100
AcDbLine
 10
-8.771045
 20
4.359876
 30
0.0
 11
-9.137191
 21
4.693821
 31
0.0
  0
LINE
  5
197
100
AcDbEntity
  8
Layer_1
 62
7
100
AcDbLine
 10
-9.137191
 20
4.693821
 30
0.0
 11
-9.464154
 21
5.097627
 31
0.0
  0
LINE
  5
198
100
AcDbEntity
  8
Layer_1
 62
7
100
AcDbLine
 10
-9.464154
 20
5.097627
 30
0.0
 11
-9.285225
 21
5.416445
 31
0.0
  0
LINE
  5
199
100
AcDbEntity
  8
Layer_1
 62
7
100
AcDbLine
 10
-9.285225
 20
5.416445
 30
0.0
 11
-8.770209
 21
5.347713
 31
0.0
  0
LINE
  5
19a
100
AcDbEntity
  8
Layer_1
 62
7
100
AcDbLine
 10
-8.770209
 20
5.347713
 30
0.0
 11
-8.294417
 21
5.209136
 31
0.0
  0
LINE
  5
19b
100
AcDbEntity
  8
Layer_1
 62
7
100
AcDbLine
 10
-8.294417
 20
5.209136
 30
0.0
 11
-8.042855
 21
5.589374
 31
0.0
  0
LINE
  5
19c
100
AcDbEntity
  8
Layer_1
 62
7
100
AcDbLine
 10
-8.042855
 20
5.589374
 30
0.0
 11
-8.356477
 21
5.973072
 31
0.0
  0
LINE
  5
19d
100
AcDbEntity
  8
Layer_1
 62
7
100
AcDbLine
 10
-8.356477
 20
5.973072
 30
0.0
 11
-8.621159
 21
6.420183
 31
0.0
  0
LINE
  5
19e
100
AcDbEntity
  8
Layer_1
 62
7
100
AcDbLine
 10
-8.621159
 20
6.420183
 30
0.0
 11
-8.397716
 21
6.709551
 31
0.0
  0
LINE
  5
19f
100
AcDbEntity
  8
Layer_1
 62
7
100
AcDbLine
 10
-8.397716
 20
6.709551
 30
0.0
 11
-7.898199
 21
6.566563
 31
0.0
  0
LINE
  5
1a0
100
AcDbEntity
  8
Layer_1
 62
7
100
AcDbLine
 10
-7.898199
 20
6.566563
 30
0.0
 11
-7.447651
 21
6.360188
 31
0.0
  0
LINE
  5
1a1
100
AcDbEntity
  8
Layer_1
 62
7
100
AcDbLine
 10
-7.447651
 20
6.360188
 30
0.0
 11
-7.143407
 21
6.699746
 31
0.0
  0
LINE
  5
1a2
100
AcDbEntity
  8
Layer_1
 62
7
100
AcDbLine
 10
-7.143407
 20
6.699746
 30
0.0
 11
-7.397819
 21
7.125016
 31
0.0
  0
LINE
  5
1a3
100
AcDbEntity
  8
Layer_1
 62
7
100
AcDbLine
 10
-7.397819
 20
7.125016
 30
0.0
 11
-7.594584
 21
7.605900
 31
0.0
  0
LINE
  5
1a4
100
AcDbEntity
  8
Layer_1
 62
7
100
AcDbLine
 10
-7.594584
 20
7.605900
 30
0.0
 11
-7.331390
 21
7.859651
 31
0.0
  0
LINE
  5
1a5
100
AcDbEntity
  8
Layer_1
 62
7
100
AcDbLine
 10
-7.331390
 20
7.859651
 30
0.0
 11
-6.858013
 21
7.645456
 31
0.0
  0
LINE
  5
1a6
100
AcDbEntity
  8
Layer_1
 62
7
100
AcDbLine
 10
-6.858013
 20
7.645456
 30
0.0
 11
-6.442316
 21
7.375683
 31
0.0
  0
LINE
  5
1a7
100
AcDbEntity
  8
Layer_1
 62
7
100
AcDbLine
 10
-6.442316
 20
7.375683
 30
0.0
 11
-6.091873
 21
7.667323
 31
0.0
  0
LINE
  5
1a8
100
AcDbEntity
  8
Layer_1
 62
7
100
AcDbLine
 10
-6.091873
 20
7.667323
 30
0.0
 11
-6.281656
 21
8.125104
 31
0.0
  0
LINE
  5
1a9
100
AcDbEntity
  8
Layer_1
 62
7
100
AcDbLine
 10
-6.281656
 20
8.125104
 30
0.0
 11
-6.406305
 21
8.629514
 31
0.0
  0
LINE
  5
1aa
100
AcDbEntity
  8
Layer_1
 62
7
100
AcDbLine
 10
-6.406305
 20
8.629514
 30
0.0
 11
-6.108970
 21
8.842239
 31
0.0
  0
LINE
  5
1ab
100
AcDbEntity
  8
Layer_1
 62
7
100
AcDbLine
 10
-6.108970
 20
8.842239
 30
0.0
 11
-5.671824
 21
8.561403
 31
0.0
  0
LINE
  5
1ac
100
AcDbEntity
  8
Layer_1
 62
7
100
AcDbLine
 10
-5.671824
 20
8.561403
 30
0.0
 11
-5.299838
 21
8.233977
 31
0.0
  0
LINE
  5
1ad
100
AcDbEntity
  8
Layer_1
 62
7
100
AcDbLine
 10
-5.299838
 20
8.233977
 30
0.0
 11
-4.910665
 21
8.471484
 31
0.0
  0
LINE
  5
1ae
100
AcDbEntity
  8
Layer_1
 62
7
100
AcDbLine
 10
-4.910665
 20
8.471484
 30
0.0
 11
-5.031772
 21
8.952021
 31
0.0
  0
LINE
  5
1af
100
AcDbEntity
  8
Layer_1
 62
7
100
AcDbLine
 10
-5.031772
 20
8.952021
 30
0.0
 11
-5.081650
 21
9.469201
 31
0.0
  0
LINE
  5
1b0
100
AcDbEntity
  8
Layer_1
 62
7
100
AcDbLine
 10
-5.081650
 20
9.469201
 30
0.0
 11
-4.756510
 21
9.636367
 31
0.0
  0
LINE
  5
1b1
100
AcDbEntity
  8
Layer_1
 62
7
100
AcDbLine
 10
-4.756510
 20
9.636367
 30
0.0
 11
-4.364912
 21
9.294875
 31
0.0
  0
LINE
  5
1b2
100
AcDbEntity
  8
Layer_1
 62
7
100
AcDbLine
 10
-4.364912
 20
9.294875
 30
0.0
 11
-4.044565
 21
8.916777
 31
0.0
  0
LINE
  5
1b3
100
AcDbEntity
  8
Layer_1
 62
7
100
AcDbLine
 10
-4.044565
 20
8.916777
 30
0.0
 11
-3.624957
 21
9.095090
 31
0.0
  0
LINE
  5
1b4
100
AcDbEntity
  8
Layer_1
 62
7
100
AcDbLine
 10
-3.624957
 20
9.095090
 30
0.0
 11
-3.674806
 21
9.588138
 31
0.0
  0
LINE
  5
1b5
100
AcDbEntity
  8
Layer_1
 62
7
100
AcDbLine
 10
-3.674806
 20
9.588138
 30
0.0
 11
-3.648853
 21
10.107072
 31
0.0
  0
LINE
  5
1b6
100
AcDbEntity
  8
Layer_1
 62
7
100
AcDbLine
 10
-3.648853
 20
10.107072
 30
0.0
 11
-3.302837
 21
10.225117
 31
0.0
  0
LINE
  5
1b7
100
AcDbEntity
  8
Layer_1
 62
7
100
AcDbLine
 10
-3.302837
 20
10.225117
 30
0.0
 11
-2.965135
 21
9.830245
 31
0.0
  0
LINE
  5
1b8
100
AcDbEntity
  8
Layer_1
 62
7
100
AcDbLine
 10
-2.965135
 20
9.830245
 30
0.0
 11
-2.703253
 21
9.409534
 31
0.0
  0
LINE
  5
1b9
100
AcDbEntity
  8
Layer_1
 62
7
100
AcDbLine
 10
-2.703253
 20
9.409534
 30
0.0
 11
-2.262154
 21
9.524850
 31
0.0
  0
LINE
  5
1ba
100
AcDbEntity
  8
Layer_1
 62
7
100
AcDbLine
 10
-2.262154
 20
9.524850
 30
0.0
 11
-2.239683
 21
10.019904
 31
0.0
  0
LINE
  5
1bb
100
AcDbEntity
  8
Layer_1
 62
7
100
AcDbLine
 10
-2.239683
 20
10.019904
 30
0.0
 11
-2.138447
 21
10.529527
 31
0.0
  0
LINE
  5
1bc
100
AcDbEntity
  8
Layer_1
 62
7
100
AcDbLine
 10
-2.138447
 20
10.529527
 30
0.0
 11
-1.778933
 21
10.595931
 31
0.0
  0
LINE
  5
1bd
100
AcDbEntity
  8
Layer_1
 62
7
100
AcDbLine
 10
-1.778933
 20
10.595931
 30
0.0
 11
-1.502324
 21
10.156099
 31
0.0
  0
LINE
  5
1be
100
AcDbEntity
  8
Layer_1
 62
7
100
AcDbLine
 10
-1.502324
 20
10.156099
 30
0.0
 11
-1.304486
 21
9.701741
 31
0.0
  0
LINE
  5
1bf
100
AcDbEntity
  8
Layer_1
 62
7
100
AcDbLine
 10
-1.304486
 20
9.701741
 30
0.0
 11
-0.851299
 21
9.751607
 31
0.0
  0
LINE
  5
1c0
100
AcDbEntity
  8
Layer_1
 62
7
100
AcDbLine
 10
-0.851299
 20
9.751607
 30
0.0
 11
-0.756989
 21
10.238110
 31
0.0
  0
LINE
  5
1c1
100
AcDbEntity
  8
Layer_1
 62
7
100
AcDbLine
 10
-0.756989
 20
10.238110
 30
0.0
 11
-0.582629
 21
10.727562
 31
0.0
  0
LINE
  5
1c2
100
AcDbEntity
  8
Layer_1
 62
7
100
AcDbLine
 10
-0.582629
 20
10.727562
 30
0.0
 11
-0.217276
 21
10.740914
 31
0.0
  0
LINE
  5
1c3
100
AcDbEntity
  8
Layer_1
 62
7
100
AcDbLine
 10
-0.217276
 20
10.740914
 30
0.0
 11
-0.007655
 21
10.265497
 31
0.0
  0
LINE
  5
1c4
100
AcDbEntity
  8
Layer_1
 62
7
100
AcDbLine
 10
-0.007655
 20
10.265497
 30
0.0
 11
0.121919
 21
9.787173
 31
0.0
  0
LINE
  5
1c5
100
AcDbEntity
  8
Layer_1
 62
7
100
AcDbLine
 10
0.121919
 20
9.787173
 30
0.0
 11
0.577535
 21
9.770522
 31
0.0
  0
LINE
  5
1c6
100
AcDbEntity
  8
Layer_1
 62
7
100
AcDbLine
 10
0.577535
 20
9.770522
 30
0.0
 11
0.741679
 21
10.238110
 31
0.0
  0
LINE
  5
1c7
100
AcDbEntity
  8
Layer_1
 62
7
100
AcDbLine
 10
0.741679
 20
10.238110
 30
0.0
 11
0.985442
 21
10.696961
 31
0.0
  0
LINE
  5
1c8
100
AcDbEntity
  8
Layer_1
 62
7
100
AcDbLine
 10
0.985442
 20
10.696961
 30
0.0
 11
1.348846
 21
10.656976
 31
0.0
  0
LINE
  5
1c9
100
AcDbEntity
  8
Layer_1
 62
7
100
AcDbLine
 10
1.348846
 20
10.656976
 30
0.0
 11
1.487013
 21
10.156099
 31
0.0
  0
LINE
  5
1ca
100
AcDbEntity
  8
Layer_1
 62
7
100
AcDbLine
 10
1.487013
 20
10.156099
 30
0.0
 11
1.545560
 21
9.664011
 31
0.0
  0
LINE
  5
1cb
100
AcDbEntity
  8
Layer_1
 62
7
100
AcDbLine
 10
1.545560
 20
9.664011
 30
0.0
 11
1.993899
 21
9.581198
 31
0.0
  0
LINE
  5
1cc
100
AcDbEntity
  8
Layer_1
 62
7
100
AcDbLine
 10
1.993899
 20
9.581198
 30
0.0
 11
2.224373
 21
10.019904
 31
0.0
  0
LINE
  5
1cd
100
AcDbEntity
  8
Layer_1
 62
7
100
AcDbLine
 10
2.224373
 20
10.019904
 30
0.0
 11
2.532350
 21
10.438369
 31
0.0
  0
LINE
  5
1ce
100
AcDbEntity
  8
Layer_1
 62
7
100
AcDbLine
 10
2.532350
 20
10.438369
 30
0.0
 11
2.886059
 21
10.345899
 31
0.0
  0
LINE
  5
1cf
100
AcDbEntity
  8
Layer_1
 62
7
100
AcDbLine
 10
2.886059
 20
10.345899
 30
0.0
 11
2.949825
 21
9.830245
 31
0.0
  0
LINE
  5
1d0
100
AcDbEntity
  8
Layer_1
 62
7
100
AcDbLine
 10
2.949825
 20
9.830245
 30
0.0
 11
2.936097
 21
9.334875
 31
0.0
  0
LINE
  5
1d1
100
AcDbEntity
  8
Layer_1
 62
7
100
AcDbLine
 10
2.936097
 20
9.334875
 30
0.0
 11
3.367601
 21
9.187665
 31
0.0
  0
LINE
  5
1d2
100
AcDbEntity
  8
Layer_1
 62
7
100
AcDbLine
 10
3.367601
 20
9.187665
 30
0.0
 11
3.659495
 21
9.588138
 31
0.0
  0
LINE
  5
1d3
100
AcDbEntity
  8
Layer_1
 62
7
100
AcDbLine
 10
3.659495
 20
9.588138
 30
0.0
 11
4.025120
 21
9.957305
 31
0.0
  0
LINE
  5
1d4
100
AcDbEntity
  8
Layer_1
 62
7
100
AcDbLine
 10
4.025120
 20
9.957305
 30
0.0
 11
4.361596
 21
9.814320
 31
0.0
  0
LINE
  5
1d5
100
AcDbEntity
  8
Layer_1
 62
7
100
AcDbLine
 10
4.361596
 20
9.814320
 30
0.0
 11
4.349602
 21
9.294875
 31
0.0
  0
LINE
  5
1d6
100
AcDbEntity
  8
Layer_1
 62
7
100
AcDbLine
 10
4.349602
 20
9.294875
 30
0.0
 11
4.263897
 21
8.806781
 31
0.0
  0
LINE
  5
1d7
100
AcDbEntity
  8
Layer_1
 62
7
100
AcDbLine
 10
4.263897
 20
8.806781
 30
0.0
 11
4.669368
 21
8.598314
 31
0.0
  0
LINE
  5
1d8
100
AcDbEntity
  8
Layer_1
 62
7
100
AcDbLine
 10
4.669368
 20
8.598314
 30
0.0
 11
5.016462
 21
8.952021
 31
0.0
  0
LINE
  5
1d9
100
AcDbEntity
  8
Layer_1
 62
7
100
AcDbLine
 10
5.016462
 20
8.952021
 30
0.0
 11
5.431941
 21
9.264017
 31
0.0
  0
LINE
  5
1da
100
AcDbEntity
  8
Layer_1
 62
7
100
AcDbLine
 10
5.431941
 20
9.264017
 30
0.0
 11
5.744011
 21
9.073562
 31
0.0
  0
LINE
  5
1db
100
AcDbEntity
  8
Layer_1
 62
7
100
AcDbLine
 10
5.744011
 20
9.073562
 30
0.0
 11
5.656514
 21
8.561403
 31
0.0
  0
LINE
  5
1dc
100
AcDbEntity
  8
Layer_1
 62
7
100
AcDbLine
 10
5.656514
 20
8.561403
 30
0.0
 11
5.500654
 21
8.090989
 31
0.0
  0
LINE
  5
1dd
100
AcDbEntity
  8
Layer_1
 62
7
100
AcDbLine
 10
5.500654
 20
8.090989
 30
0.0
 11
5.871451
 21
7.825706
 31
0.0
  0
LINE
  5
1de
100
AcDbEntity
  8
Layer_1
 62
7
100
AcDbLine
 10
5.871451
 20
7.825706
 30
0.0
 11
6.266345
 21
8.125104
 31
0.0
  0
LINE
  5
1df
100
AcDbEntity
  8
Layer_1
 62
7
100
AcDbLine
 10
6.266345
 20
8.125104
 30
0.0
 11
6.722823
 21
8.373282
 31
0.0
  0
LINE
  5
1e0
100
AcDbEntity
  8
Layer_1
 62
7
100
AcDbLine
 10
6.722823
 20
8.373282
 30
0.0
 11
7.003837
 21
8.139421
 31
0.0
  0
LINE
  5
1e1
100
AcDbEntity
  8
Layer_1
 62
7
100
AcDbLine
 10
7.003837
 20
8.139421
 30
0.0
 11
6.842702
 21
7.645456
 31
0.0
  0
LINE
  5
1e2
100
AcDbEntity
  8
Layer_1
 62
7
100
AcDbLine
 10
6.842702
 20
7.645456
 30
0.0
 11
6.620009
 21
7.202748
 31
0.0
  0
LINE
  5
1e3
100
AcDbEntity
  8
Layer_1
 62
7
100
AcDbLine
 10
6.620009
 20
7.202748
 30
0.0
 11
6.948231
 21
6.886306
 31
0.0
  0
LINE
  5
1e4
100
AcDbEntity
  8
Layer_1
 62
7
100
AcDbLine
 10
6.948231
 20
6.886306
 30
0.0
 11
7.382509
 21
7.125016
 31
0.0
  0
LINE
  5
1e5
100
AcDbEntity
  8
Layer_1
 62
7
100
AcDbLine
 10
7.382509
 20
7.125016
 30
0.0
 11
7.870259
 21
7.304086
 31
0.0
  0
LINE
  5
1e6
100
AcDbEntity
  8
Layer_1
 62
7
100
AcDbLine
 10
7.870259
 20
7.304086
 30
0.0
 11
8.114229
 21
7.031800
 31
0.0
  0
LINE
  5
1e7
100
AcDbEntity
  8
Layer_1
 62
7
100
AcDbLine
 10
8.114229
 20
7.031800
 30
0.0
 11
7.882889
 21
6.566563
 31
0.0
  0
LINE
  5
1e8
100
AcDbEntity
  8
Layer_1
 62
7
100
AcDbLine
 10
7.882889
 20
6.566563
 30
0.0
 11
7.598109
 21
6.160995
 31
0.0
  0
LINE
  5
1e9
100
AcDbEntity
  8
Layer_1
 62
7
100
AcDbLine
 10
7.598109
 20
6.160995
 30
0.0
 11
7.876759
 21
5.800135
 31
0.0
  0
LINE
  5
1ea
100
AcDbEntity
  8
Layer_1
 62
7
100
AcDbLine
 10
7.876759
 20
5.800135
 30
0.0
 11
8.341167
 21
5.973072
 31
0.0
  0
LINE
  5
1eb
100
AcDbEntity
  8
Layer_1
 62
7
100
AcDbLine
 10
8.341167
 20
5.973072
 30
0.0
 11
8.849790
 21
6.079216
 31
0.0
  0
LINE
  5
1ec
100
AcDbEntity
  8
Layer_1
 62
7
100
AcDbLine
 10
8.849790
 20
6.079216
 30
0.0
 11
9.051514
 21
5.774308
 31
0.0
  0
LINE
  5
1ed
100
AcDbEntity
  8
Layer_1
 62
7
100
AcDbLine
 10
9.051514
 20
5.774308
 30
0.0
 11
8.754899
 21
5.347713
 31
0.0
  0
LINE
  5
1ee
100
AcDbEntity
  8
Layer_1
 62
7
100
AcDbLine
 10
8.754899
 20
5.347713
 30
0.0
 11
8.414107
 21
4.987933
 31
0.0
  0
LINE
  5
1ef
100
AcDbEntity
  8
Layer_1
 62
7
100
AcDbLine
 10
8.414107
 20
4.987933
 30
0.0
 11
8.637243
 21
4.590347
 31
0.0
  0
LINE
  5
1f0
100
AcDbEntity
  8
Layer_1
 62
7
100
AcDbLine
 10
8.637243
 20
4.590347
 30
0.0
 11
9.121881
 21
4.693821
 31
0.0
  0
LINE
  5
1f1
100
AcDbEntity
  8
Layer_1
 62
7
100
AcDbLine
 10
9.121881
 20
4.693821
 30
0.0
 11
9.640540
 21
4.724778
 31
0.0
  0
LINE
  5
1f2
100
AcDbEntity
  8
Layer_1
 62
7
100
AcDbLine
 10
9.640540
 20
4.724778
 30
0.0
 11
9.795720
 21
4.393748
 31
0.0
  0
LINE
  5
1f3
100
AcDbEntity
  8
Layer_1
 62
7
100
AcDbLine
 10
9.795720
 20
4.393748
 30
0.0
 11
9.440154
 21
4.014884
 31
0.0
  0
LINE
  5
1f4
100
AcDbEntity
  8
Layer_1
 62
7
100
AcDbLine
 10
9.440154
 20
4.014884
 30
0.0
 11
9.050606
 21
3.708560
 31
0.0
  0
LINE
  5
1f5
100
AcDbEntity
  8
Layer_1
 62
7
100
AcDbLine
 10
9.050606
 20
3.708560
 30
0.0
 11
9.213476
 21
3.282721
 31
0.0
  0
LINE
  5
1f6
100
AcDbEntity
  8
Layer_1
 62
7
100
AcDbLine
 10
9.213476
 20
3.282721
 30
0.0
 11
9.708017
 21
3.314530
 31
0.0
  0
LINE
  5
1f7
100
AcDbEntity
  8
Layer_1
 62
7
100
AcDbLine
 10
9.708017
 20
3.314530
 30
0.0
 11
10.225655
 21
3.269640
 31
0.0
  0
LINE
  5
1f8
100
AcDbEntity
  8
Layer_1
 62
7
100
AcDbLine
 10
10.225655
 20
3.269640
 30
0.0
 11
10.330983
 21
2.919543
 31
0.0
  0
LINE
  5
1f9
100
AcDbEntity
  8
Layer_1
 62
7
100
AcDbLine
 10
10.330983
 20
2.919543
 30
0.0
 11
9.924044
 21
2.596489
 31
0.0
  0
LINE
  5
1fa
100
AcDbEntity
  8
Layer_1
 62
7
100
AcDbLine
 10
9.924044
 20
2.596489
 30
0.0
 11
9.494047
 21
2.350146
 31
0.0
  0
LINE
  5
1fb
100
AcDbEntity
  8
Layer_1
 62
7
100
AcDbLine
 10
9.494047
 20
2.350146
 30
0.0
 11
9.593178
 21
1.905129
 31
0.0
  0
LINE
  5
1fc
100
AcDbEntity
  8
Layer_1
 62
7
100
AcDbLine
 10
9.593178
 20
1.905129
 30
0.0
 11
10.087078
 21
1.864594
 31
0.0
  0
LINE
  5
1fd
100
AcDbEntity
  8
Layer_1
 62
7
100
AcDbLine
 10
10.087078
 20
1.864594
 30
0.0
 11
10.592665
 21
1.744813
 31
0.0
  0
LINE
  5
1fe
100
AcDbEntity
  8
Layer_1
 62
7
100
AcDbLine
 10
10.592665
 20
1.744813
 30
0.0
 11
10.645898
 21
1.383114
 31
0.0
  0
LINE
  5
1ff
100
AcDbEntity
  8
Layer_1
 62
7
100
AcDbLine
 10
10.645898
 20
1.383114
 30
0.0
 11
10.196256
 21
1.122753
 31
0.0
  0
LINE
  5
200
100
AcDbEntity
  8
Layer_1
 62
7
100
AcDbLine
 10
10.196256
 20
1.122753
 30
0.0
 11
9.734975
 21
0.941642
 31
0.0
  0
LINE
  5
201
100
AcDbEntity
  8
Layer_1
 62
7
100
AcDbLine
 10
9.734975
 20
0.941642
 30
0.0
 11
9.768254
 21
0.486934
 31
0.0
  0
ENDSEC
  0
SECTION
  2
OBJECTS
  0
DICTIONARY
  5
C
330
0
100
AcDbDictionary
  3
ACAD_GROUP
350
D
  3
ACAD_MLINESTYLE
350
17
  0
DICTIONARY
  5
D
330
C
100
AcDbDictionary
  0
DICTIONARY
  5
1A
330
C
100
AcDbDictionary
  0
DICTIONARY
  5
17
330
C
100
AcDbDictionary
  3
STANDARD
350
18
  0
DICTIONARY
  5
19
330
C
100
AcDbDictionary
  0
ENDSEC
  0
EOF
