  0
SECTION
  2
HEADER
  9
$ACADVER
  1
AC1014
  9
$HANDSEED
  5
FFFF
  9
$MEASUREMENT
 70
     1
  0
ENDSEC
  0
SECTION
  2
TABLES
  0
TABLE
  2
VPORT
  5
8
330
0
100
AcDbSymbolTable
 70
     4
  0
VPORT
  5
2E
330
8
100
AcDbSymbolTableRecord
100
AcDbViewportTableRecord
  2
*ACTIVE
 70
     0
 10
0.0
 20
0.0
 11
1.0
 21
1.0
 12
210.0
 22
148.5
 13
0.0
 23
0.0
 14
10.0
 24
10.0
 15
10.0
 25
10.0
 16
0.0
 26
0.0
 36
1.0
 17
0.0
 27
0.0
 37
0.0
 40
341.0
 41
1.24
 42
50.0
 43
0.0
 44
0.0
 50
0.0
 51
0.0
 71
     0
 72
   100
 73
     1
 74
     3
 75
     0
 76
     0
 77
     0
 78
     0
  0
ENDTAB
  0
TABLE
  2
LTYPE
  5
5
330
0
100
AcDbSymbolTable
 70
     1
  0
LTYPE
  5
14
330
5
100
AcDbSymbolTableRecord
100
AcDbLinetypeTableRecord
  2
BYBLOCK
 70
     0
  3

 72
    65
 73
     0
 40
0.0
  0
LTYPE
  5
15
330
5
100
AcDbSymbolTableRecord
100
AcDbLinetypeTableRecord
  2
BYLAYER
 70
     0
  3

 72
    65
 73
     0
 40
0.0
  0
LTYPE
  5
16
330
5
100
AcDbSymbolTableRecord
100
AcDbLinetypeTableRecord
  2
CONTINUOUS
 70
     0
  3
Solid line
 72
    65
 73
     0
 40
0.0
  0
ENDTAB
  0
TABLE
  2
LAYER
  5
2
100
AcDbSymbolTable
 70
2
  0
LAYER
  5
50
100
AcDbSymbolTableRecord
100
AcDbLayerTableRecord
  2
0
 70
0
  6
CONTINUOUS
  0
LAYER
  5
51
100
AcDbSymbolTableRecord
100
AcDbLayerTableRecord
  2
Layer_1
 70
0
  6
CONTINUOUS
  0
ENDTAB
  0
TABLE
  2
STYLE
  5
3
330
0
100
AcDbSymbolTable
 70
     1
  0
STYLE
  5
11
330
3
100
AcDbSymbolTableRecord
100
AcDbTextStyleTableRecord
  2
STANDARD
 70
     0
 40
0.0
 41
1.0
 50
0.0
 71
     0
 42
2.5
  3
txt
  4

  0
ENDTAB
  0
TABLE
  2
VIEW
  5
6
330
0
100
AcDbSymbolTable
 70
     0
  0
ENDTAB
  0
TABLE
  2
UCS
  5
7
330
0
100
AcDbSymbolTable
 70
     0
  0
ENDTAB
  0
TABLE
  2
APPID
  5
9
330
0
100
AcDbSymbolTable
 70
     2
  0
APPID
  5
12
330
9
100
AcDbSymbolTableRecord
100
AcDbRegAppTableRecord
  2
ACAD
 70
     0
  0
ENDTAB
  0
TABLE
  2
DIMSTYLE
  5
A
330
0
100
AcDbSymbolTable
 70
     1
  0
DIMSTYLE
105
27
330
A
100
AcDbSymbolTableRecord
100
AcDbDimStyleTableRecord
  2
ISO-25
 70
     0
  3

  4

  5

  6

  7

 40
1.0
 41
2.5
 42
0.625
 43
3.75
 44
1.25
 45
0.0
 46
0.0
 47
0.0
 48
0.0
140
2.5
141
2.5
142
0.0
143
0.03937007874016
144
1.0
145
0.0
146
1.0
147
0.625
 71
     0
 72
     0
 73
     0
 74
     0
 75
     0
 76
     0
 77
     1
 78
     8
170
     0
171
     3
172
     1
173
     0
174
     0
175
     0
176
     0
177
     0
178
     0
270
     2
271
     2
272
     2
273
     2
274
     3
340
11
275
     0
280
     0
281
     0
282
     0
283
     0
284
     8
285
     0
286
     0
287
     3
288
     0
  0
ENDTAB
  0
TABLE
  2
BLOCK_RECORD
  5
1
330
0
100
AcDbSymbolTable
 70
     1
  0
BLOCK_RECORD
  5
1F
330
1
100
AcDbSymbolTableRecord
100
AcDbBlockTableRecord
  2
*MODEL_SPACE
  0
BLOCK_RECORD
  5
1B
330
1
100
AcDbSymbolTableRecord
100
AcDbBlockTableRecord
  2
*PAPER_SPACE
  0
ENDTAB
  0
ENDSEC
  0
SECTION
  2
BLOCKS
  0
BLOCK
  5
20
330
1F
100
AcDbEntity
  8
0
100
AcDbBlockBegin
  2
*MODEL_SPACE
 70
     0
 10
0.0
 20
0.0
 30
0.0
  3
*MODEL_SPACE
  1

  0
ENDBLK
  5
21
330
1F
100
AcDbEntity
  8
0
100
AcDbBlockEnd
  0
BLOCK
  5
1C
330
1B
100
AcDbEntity
 67
     1
  8
0
100
AcDbBlockBegin
  2
*PAPER_SPACE
  1

  0
ENDBLK
  5
1D
330
1B
100
AcDbEntity
 67
     1
  8
0
100
AcDbBlockEnd
  0
ENDSEC
  0
SECTION
  2
ENTITIES
  0
LINE
  5
100
100
AcDbEntity
  8
Layer_1
 62
7
100
AcDbLine
 10
14.079871
 20
0.491878
 30
0.0
 11
14.546008
 21
0.362876
 31
0.0
  0
LINE
  5
101
100
AcDbEntity
  8
Layer_1
 62
7
100
AcDbLine
 10
14.546008
 20
0.362876
 30
0.0
 11
15.011500
 21
0.182089
 31
0.0
  0
LINE
  5
102
100
AcDbEntity
  8
Layer_1
 62
7
100
AcDbLine
 10
15.011500
 20
0.182089
 30
0.0
 11
15.011500
 21
-0.182085
 31
0.0
  0
LINE
  5
103
100
AcDbEntity
  8
Layer_1
 62
7
100
AcDbLine
 10
15.011500
 20
-0.182085
 30
0.0
 11
14.546008
 21
-0.362871
 31
0.0
  0
LINE
  5
104
100
AcDbEntity
  8
Layer_1
 62
7
100
AcDbLine
 10
14.546008
 20
-0.362871
 30
0.0
 11
14.079871
 21
-0.491874
 31
0.0
  0
LINE
  5
105
100
AcDbEntity
  8
Layer_1
 62
7
100
AcDbLine
 10
14.079871
 20
-0.491874
 30
0.0
 11
14.058857
 21
-0.912945
 31
0.0
  0
LINE
  5
106
100
AcDbEntity
  8
Layer_1
 62
7
100
AcDbLine
 10
14.058857
 20
-0.912945
 30
0.0
 11
14.509833
 21
-1.087717
 31
0.0
  0
LINE
  5
107
100
AcDbEntity
  8
Layer_1
 62
7
100
AcDbLine
 10
14.509833
 20
-1.087717
 30
0.0
 11
14.955012
 21
-1.313955
 31
0.0
  0
LINE
  5
108
100
AcDbEntity
  8
Layer_1
 62
7
100
AcDbLine
 10
14.955012
 20
-1.313955
 30
0.0
 11
14.918752
 21
-1.676321
 31
0.0
  0
LINE
  5
109
100
AcDbEntity
  8
Layer_1
 62
7
100
AcDbLine
 10
14.918752
 20
-1.676321
 30
0.0
 11
14.437572
 21
-1.809862
 31
0.0
  0
LINE
  5
10a
100
AcDbEntity
  8
Layer_1
 62
7
100
AcDbLine
 10
14.437572
 20
-1.809862
 30
0.0
 11
13.960906
 21
-1.891811
 31
0.0
  0
LINE
  5
10b
100
AcDbEntity
  8
Layer_1
 62
7
100
AcDbLine
 10
13.960906
 20
-1.891811
 30
0.0
 11
13.898071
 21
-2.308695
 31
0.0
  0
LINE
  5
10c
100
AcDbEntity
  8
Layer_1
 62
7
100
AcDbLine
 10
13.898071
 20
-2.308695
 30
0.0
 11
14.329404
 21
-2.527503
 31
0.0
  0
LINE
  5
10d
100
AcDbEntity
  8
Layer_1
 62
7
100
AcDbLine
 10
14.329404
 20
-2.527503
 30
0.0
 11
14.749846
 21
-2.796944
 31
0.0
  0
LINE
  5
10e
100
AcDbEntity
  8
Layer_1
 62
7
100
AcDbLine
 10
14.749846
 20
-2.796944
 30
0.0
 11
14.677687
 21
-3.153896
 31
0.0
  0
LINE
  5
10f
100
AcDbEntity
  8
Layer_1
 62
7
100
AcDbLine
 10
14.677687
 20
-3.153896
 30
0.0
 11
14.185598
 21
-3.238862
 31
0.0
  0
LINE
  5
110
100
AcDbEntity
  8
Layer_1
 62
7
100
AcDbLine
 10
14.185598
 20
-3.238862
 30
0.0
 11
13.703145
 21
-3.272946
 31
0.0
  0
LINE
  5
111
100
AcDbEntity
  8
Layer_1
 62
7
100
AcDbLine
 10
13.703145
 20
-3.272946
 30
0.0
 11
13.599111
 21
-3.681502
 31
0.0
  0
LINE
  5
112
100
AcDbEntity
  8
Layer_1
 62
7
100
AcDbLine
 10
13.599111
 20
-3.681502
 30
0.0
 11
14.006515
 21
-3.942170
 31
0.0
  0
LINE
  5
113
100
AcDbEntity
  8
Layer_1
 62
7
100
AcDbLine
 10
14.006515
 20
-3.942170
 30
0.0
 11
14.398040
 21
-4.252131
 31
0.0
  0
LINE
  5
114
100
AcDbEntity
  8
Layer_1
 62
7
100
AcDbLine
 10
14.398040
 20
-4.252131
 30
0.0
 11
14.290699
 21
-4.600125
 31
0.0
  0
LINE
  5
115
100
AcDbEntity
  8
Layer_1
 62
7
100
AcDbLine
 10
14.290699
 20
-4.600125
 30
0.0
 11
13.792596
 21
-4.635675
 31
0.0
  0
LINE
  5
116
100
AcDbEntity
  8
Layer_1
 62
7
100
AcDbLine
 10
13.792596
 20
-4.635675
 30
0.0
 11
13.309146
 21
-4.621551
 31
0.0
  0
LINE
  5
117
100
AcDbEntity
  8
Layer_1
 62
7
100
AcDbLine
 10
13.309146
 20
-4.621551
 30
0.0
 11
13.164952
 21
-5.017719
 31
0.0
  0
LINE
  5
118
100
AcDbEntity
  8
Layer_1
 62
7
100
AcDbLine
 10
13.164952
 20
-5.017719
 30
0.0
 11
13.544377
 21
-5.317656
 31
0.0
  0
LINE
  5
119
100
AcDbEntity
  8
Layer_1
 62
7
100
AcDbLine
 10
13.544377
 20
-5.317656
 30
0.0
 11
13.903094
 21
-5.665060
 31
0.0
  0
LINE
  5
11a
100
AcDbEntity
  8
Layer_1
 62
7
100
AcDbLine
 10
13.903094
 20
-5.665060
 30
0.0
 11
13.761637
 21
-6.000638
 31
0.0
  0
LINE
  5
11b
100
AcDbEntity
  8
Layer_1
 62
7
100
AcDbLine
 10
13.761637
 20
-6.000638
 30
0.0
 11
13.262471
 21
-5.986416
 31
0.0
  0
LINE
  5
11c
100
AcDbEntity
  8
Layer_1
 62
7
100
AcDbLine
 10
13.262471
 20
-5.986416
 30
0.0
 11
12.782829
 21
-5.924226
 31
0.0
  0
LINE
  5
11d
100
AcDbEntity
  8
Layer_1
 62
7
100
AcDbLine
 10
12.782829
 20
-5.924226
 30
0.0
 11
12.599906
 21
-6.304069
 31
0.0
  0
LINE
  5
11e
100
AcDbEntity
  8
Layer_1
 62
7
100
AcDbLine
 10
12.599906
 20
-6.304069
 30
0.0
 11
12.947580
 21
-6.640294
 31
0.0
  0
LINE
  5
11f
100
AcDbEntity
  8
Layer_1
 62
7
100
AcDbLine
 10
12.947580
 20
-6.640294
 30
0.0
 11
13.269925
 21
-7.021688
 31
0.0
  0
LINE
  5
120
100
AcDbEntity
  8
Layer_1
 62
7
100
AcDbLine
 10
13.269925
 20
-7.021688
 30
0.0
 11
13.095756
 21
-7.341514
 31
0.0
  0
LINE
  5
121
100
AcDbEntity
  8
Layer_1
 62
7
100
AcDbLine
 10
13.095756
 20
-7.341514
 30
0.0
 11
12.600488
 21
-7.277660
 31
0.0
  0
LINE
  5
122
100
AcDbEntity
  8
Layer_1
 62
7
100
AcDbLine
 10
12.600488
 20
-7.277660
 30
0.0
 11
12.129421
 21
-7.168023
 31
0.0
  0
LINE
  5
123
100
AcDbEntity
  8
Layer_1
 62
7
100
AcDbLine
 10
12.129421
 20
-7.168023
 30
0.0
 11
11.909586
 21
-7.527764
 31
0.0
  0
LINE
  5
124
100
AcDbEntity
  8
Layer_1
 62
7
100
AcDbLine
 10
11.909586
 20
-7.527764
 30
0.0
 11
12.222057
 21
-7.896936
 31
0.0
  0
LINE
  5
125
100
AcDbEntity
  8
Layer_1
 62
7
100
AcDbLine
 10
12.222057
 20
-7.896936
 30
0.0
 11
12.504826
 21
-8.308532
 31
0.0
  0
LINE
  5
126
100
AcDbEntity
  8
Layer_1
 62
7
100
AcDbLine
 10
12.504826
 20
-8.308532
 30
0.0
 11
12.299679
 21
-8.609425
 31
0.0
  0
LINE
  5
127
100
AcDbEntity
  8
Layer_1
 62
7
100
AcDbLine
 10
12.299679
 20
-8.609425
 30
0.0
 11
11.813227
 21
-8.496578
 31
0.0
  0
LINE
  5
128
100
AcDbEntity
  8
Layer_1
 62
7
100
AcDbLine
 10
11.813227
 20
-8.496578
 30
0.0
 11
11.355418
 21
-8.340580
 31
0.0
  0
LINE
  5
129
100
AcDbEntity
  8
Layer_1
 62
7
100
AcDbLine
 10
11.355418
 20
-8.340580
 30
0.0
 11
11.100858
 21
-8.676647
 31
0.0
  0
LINE
  5
12a
100
AcDbEntity
  8
Layer_1
 62
7
100
AcDbLine
 10
11.100858
 20
-8.676647
 30
0.0
 11
11.375018
 21
-9.075095
 31
0.0
  0
LINE
  5
12b
100
AcDbEntity
  8
Layer_1
 62
7
100
AcDbLine
 10
11.375018
 20
-9.075095
 30
0.0
 11
11.615397
 21
-9.512799
 31
0.0
  0
LINE
  5
12c
100
AcDbEntity
  8
Layer_1
 62
7
100
AcDbLine
 10
11.615397
 20
-9.512799
 30
0.0
 11
11.381313
 21
-9.791775
 31
0.0
  0
LINE
  5
12d
100
AcDbEntity
  8
Layer_1
 62
7
100
AcDbLine
 10
11.381313
 20
-9.791775
 30
0.0
 11
10.908515
 21
-9.631052
 31
0.0
  0
LINE
  5
12e
100
AcDbEntity
  8
Layer_1
 62
7
100
AcDbLine
 10
10.908515
 20
-9.631052
 30
0.0
 11
10.468513
 21
-9.430248
 31
0.0
  0
LINE
  5
12f
100
AcDbEntity
  8
Layer_1
 62
7
100
AcDbLine
 10
10.468513
 20
-9.430248
 30
0.0
 11
10.181757
 21
-9.739296
 31
0.0
  0
LINE
  5
130
100
AcDbEntity
  8
Layer_1
 62
7
100
AcDbLine
 10
10.181757
 20
-9.739296
 30
0.0
 11
10.414880
 21
-10.163063
 31
0.0
  0
LINE
  5
131
100
AcDbEntity
  8
Layer_1
 62
7
100
AcDbLine
 10
10.414880
 20
-10.163063
 30
0.0
 11
10.610486
 21
-10.622528
 31
0.0
  0
LINE
  5
132
100
AcDbEntity
  8
Layer_1
 62
7
100
AcDbLine
 10
10.610486
 20
-10.622528
 30
0.0
 11
10.349786
 21
-10.876807
 31
0.0
  0
LINE
  5
133
100
AcDbEntity
  8
Layer_1
 62
7
100
AcDbLine
 10
10.349786
 20
-10.876807
 30
0.0
 11
9.895342
 21
-10.669805
 31
0.0
  0
LINE
  5
134
100
AcDbEntity
  8
Layer_1
 62
7
100
AcDbLine
 10
9.895342
 20
-10.669805
 30
0.0
 11
9.477518
 21
-10.426189
 31
0.0
  0
LINE
  5
135
100
AcDbEntity
  8
Layer_1
 62
7
100
AcDbLine
 10
9.477518
 20
-10.426189
 30
0.0
 11
9.161417
 21
-10.705153
 31
0.0
  0
LINE
  5
136
100
AcDbEntity
  8
Layer_1
 62
7
100
AcDbLine
 10
9.161417
 20
-10.705153
 30
0.0
 11
9.351190
 21
-11.150025
 31
0.0
  0
LINE
  5
137
100
AcDbEntity
  8
Layer_1
 62
7
100
AcDbLine
 10
9.351190
 20
-11.150025
 30
0.0
 11
9.500073
 21
-11.626682
 31
0.0
  0
LINE
  5
138
100
AcDbEntity
  8
Layer_1
 62
7
100
AcDbLine
 10
9.500073
 20
-11.626682
 30
0.0
 11
9.215351
 21
-11.853739
 31
0.0
  0
LINE
  5
139
100
AcDbEntity
  8
Layer_1
 62
7
100
AcDbLine
 10
9.215351
 20
-11.853739
 30
0.0
 11
8.783776
 21
-11.602521
 31
0.0
  0
LINE
  5
13a
100
AcDbEntity
  8
Layer_1
 62
7
100
AcDbLine
 10
8.783776
 20
-11.602521
 30
0.0
 11
8.392287
 21
-11.318513
 31
0.0
  0
LINE
  5
13b
100
AcDbEntity
  8
Layer_1
 62
7
100
AcDbLine
 10
8.392287
 20
-11.318513
 30
0.0
 11
8.049979
 21
-11.564617
 31
0.0
  0
LINE
  5
13c
100
AcDbEntity
  8
Layer_1
 62
7
100
AcDbLine
 10
8.049979
 20
-11.564617
 30
0.0
 11
8.194511
 21
-12.026174
 31
0.0
  0
LINE
  5
13d
100
AcDbEntity
  8
Layer_1
 62
7
100
AcDbLine
 10
8.194511
 20
-12.026174
 30
0.0
 11
8.295199
 21
-12.515285
 31
0.0
  0
LINE
  5
13e
100
AcDbEntity
  8
Layer_1
 62
7
100
AcDbLine
 10
8.295199
 20
-12.515285
 30
0.0
 11
7.989283
 21
-12.712867
 31
0.0
  0
LINE
  5
13f
100
AcDbEntity
  8
Layer_1
 62
7
100
AcDbLine
 10
7.989283
 20
-12.712867
 30
0.0
 11
7.584864
 21
-12.419924
 31
0.0
  0
LINE
  5
140
100
AcDbEntity
  8
Layer_1
 62
7
100
AcDbLine
 10
7.584864
 20
-12.419924
 30
0.0
 11
7.223599
 21
-12.098349
 31
0.0
  0
LINE
  5
141
100
AcDbEntity
  8
Layer_1
 62
7
100
AcDbLine
 10
7.223599
 20
-12.098349
 30
0.0
 11
6.858489
 21
-12.309145
 31
0.0
  0
LINE
  5
142
100
AcDbEntity
  8
Layer_1
 62
7
100
AcDbLine
 10
6.858489
 20
-12.309145
 30
0.0
 11
6.956349
 21
-12.782800
 31
0.0
  0
LINE
  5
143
100
AcDbEntity
  8
Layer_1
 62
7
100
AcDbLine
 10
6.956349
 20
-12.782800
 30
0.0
 11
7.007833
 21
-13.279505
 31
0.0
  0
LINE
  5
144
100
AcDbEntity
  8
Layer_1
 62
7
100
AcDbLine
 10
7.007833
 20
-13.279505
 30
0.0
 11
6.683765
 21
-13.445647
 31
0.0
  0
LINE
  5
145
100
AcDbEntity
  8
Layer_1
 62
7
100
AcDbLine
 10
6.683765
 20
-13.445647
 30
0.0
 11
6.310524
 21
-13.113893
 31
0.0
  0
LINE
  5
146
100
AcDbEntity
  8
Layer_1
 62
7
100
AcDbLine
 10
6.310524
 20
-13.113893
 30
0.0
 11
5.983071
 21
-12.757943
 31
0.0
  0
LINE
  5
147
100
AcDbEntity
  8
Layer_1
 62
7
100
AcDbLine
 10
5.983071
 20
-12.757943
 30
0.0
 11
5.598788
 21
-12.931339
 31
0.0
  0
LINE
  5
148
100
AcDbEntity
  8
Layer_1
 62
7
100
AcDbLine
 10
5.598788
 20
-12.931339
 30
0.0
 11
5.649002
 21
-13.412383
 31
0.0
  0
LINE
  5
149
100
AcDbEntity
  8
Layer_1
 62
7
100
AcDbLine
 10
5.649002
 20
-13.412383
 30
0.0
 11
5.650777
 21
-13.911751
 31
0.0
  0
LINE
  5
14a
100
AcDbEntity
  8
Layer_1
 62
7
100
AcDbLine
 10
5.650777
 20
-13.911751
 30
0.0
 11
5.311777
 21
-14.044798
 31
0.0
  0
LINE
  5
14b
100
AcDbEntity
  8
Layer_1
 62
7
100
AcDbLine
 10
5.311777
 20
-14.044798
 30
0.0
 11
4.973422
 21
-13.677530
 31
0.0
  0
LINE
  5
14c
100
AcDbEntity
  8
Layer_1
 62
7
100
AcDbLine
 10
4.973422
 20
-13.677530
 30
0.0
 11
4.683038
 21
-13.290747
 31
0.0
  0
LINE
  5
14d
100
AcDbEntity
  8
Layer_1
 62
7
100
AcDbLine
 10
4.683038
 20
-13.290747
 30
0.0
 11
4.283399
 21
-13.425018
 31
0.0
  0
LINE
  5
14e
100
AcDbEntity
  8
Layer_1
 62
7
100
AcDbLine
 10
4.283399
 20
-13.425018
 30
0.0
 11
4.285475
 21
-13.908673
 31
0.0
  0
LINE
  5
14f
100
AcDbEntity
  8
Layer_1
 62
7
100
AcDbLine
 10
4.285475
 20
-13.908673
 30
0.0
 11
4.237517
 21
-14.405733
 31
0.0
  0
LINE
  5
150
100
AcDbEntity
  8
Layer_1
 62
7
100
AcDbLine
 10
4.237517
 20
-14.405733
 30
0.0
 11
3.886956
 21
-14.504364
 31
0.0
  0
LINE
  5
151
100
AcDbEntity
  8
Layer_1
 62
7
100
AcDbLine
 10
3.886956
 20
-14.504364
 30
0.0
 11
3.586852
 21
-14.105233
 31
0.0
  0
LINE
  5
152
100
AcDbEntity
  8
Layer_1
 62
7
100
AcDbLine
 10
3.586852
 20
-14.105233
 30
0.0
 11
3.336421
 21
-13.691459
 31
0.0
  0
LINE
  5
153
100
AcDbEntity
  8
Layer_1
 62
7
100
AcDbLine
 10
3.336421
 20
-13.691459
 30
0.0
 11
2.925398
 21
-13.785272
 31
0.0
  0
LINE
  5
154
100
AcDbEntity
  8
Layer_1
 62
7
100
AcDbLine
 10
2.925398
 20
-13.785272
 30
0.0
 11
2.879297
 21
-14.266729
 31
0.0
  0
LINE
  5
155
100
AcDbEntity
  8
Layer_1
 62
7
100
AcDbLine
 10
2.879297
 20
-14.266729
 30
0.0
 11
2.782089
 21
-14.756543
 31
0.0
  0
LINE
  5
156
100
AcDbEntity
  8
Layer_1
 62
7
100
AcDbLine
 10
2.782089
 20
-14.756543
 30
0.0
 11
2.423449
 21
-14.819782
 31
0.0
  0
LINE
  5
157
100
AcDbEntity
  8
Layer_1
 62
7
100
AcDbLine
 10
2.423449
 20
-14.819782
 30
0.0
 11
2.164565
 21
-14.392754
 31
0.0
  0
LINE
  5
158
100
AcDbEntity
  8
Layer_1
 62
7
100
AcDbLine
 10
2.164565
 20
-14.392754
 30
0.0
 11
1.956578
 21
-13.956098
 31
0.0
  0
LINE
  5
159
100
AcDbEntity
  8
Layer_1
 62
7
100
AcDbLine
 10
1.956578
 20
-13.956098
 30
0.0
 11
1.538257
 21
-14.008522
 31
0.0
  0
LINE
  5
15a
100
AcDbEntity
  8
Layer_1
 62
7
100
AcDbLine
 10
1.538257
 20
-14.008522
 30
0.0
 11
1.444447
 21
-14.482994
 31
0.0
  0
LINE
  5
15b
100
AcDbEntity
  8
Layer_1
 62
7
100
AcDbLine
 10
1.444447
 20
-14.482994
 30
0.0
 11
1.298953
 21
-14.960698
 31
0.0
  0
LINE
  5
15c
100
AcDbEntity
  8
Layer_1
 62
7
100
AcDbLine
 10
1.298953
 20
-14.960698
 30
0.0
 11
0.935798
 21
-14.987912
 31
0.0
  0
LINE
  5
15d
100
AcDbEntity
  8
Layer_1
 62
7
100
AcDbLine
 10
0.935798
 20
-14.987912
 30
0.0
 11
0.720729
 21
-14.537231
 31
0.0
  0
LINE
  5
15e
100
AcDbEntity
  8
Layer_1
 62
7
100
AcDbLine
 10
0.720729
 20
-14.537231
 30
0.0
 11
0.557253
 21
-14.082039
 31
0.0
  0
LINE
  5
15f
100
AcDbEntity
  8
Layer_1
 62
7
100
AcDbLine
 10
0.557253
 20
-14.082039
 30
0.0
 11
0.135788
 21
-14.092549
 31
0.0
  0
LINE
  5
160
100
AcDbEntity
  8
Layer_1
 62
7
100
AcDbLine
 10
0.135788
 20
-14.092549
 30
0.0
 11
-0.004795
 21
-14.555323
 31
0.0
  0
LINE
  5
161
100
AcDbEntity
  8
Layer_1
 62
7
100
AcDbLine
 10
-0.004795
 20
-14.555323
 30
0.0
 11
-0.197132
 21
-15.016167
 31
0.0
  0
LINE
  5
162
100
AcDbEntity
  8
Layer_1
 62
7
100
AcDbLine
 10
-0.197132
 20
-15.016167
 30
0.0
 11
-0.561191
 21
-15.007088
 31
0.0
  0
LINE
  5
163
100
AcDbEntity
  8
Layer_1
 62
7
100
AcDbLine
 10
-0.561191
 20
-15.007088
 30
0.0
 11
-0.730318
 21
-14.537231
 31
0.0
  0
LINE
  5
164
100
AcDbEntity
  8
Layer_1
 62
7
100
AcDbLine
 10
-0.730318
 20
-14.537231
 30
0.0
 11
-0.847661
 21
-14.068022
 31
0.0
  0
LINE
  5
165
100
AcDbEntity
  8
Layer_1
 62
7
100
AcDbLine
 10
-0.847661
 20
-14.068022
 30
0.0
 11
-1.268074
 21
-14.036517
 31
0.0
  0
LINE
  5
166
100
AcDbEntity
  8
Layer_1
 62
7
100
AcDbLine
 10
-1.268074
 20
-14.036517
 30
0.0
 11
-1.454036
 21
-14.482994
 31
0.0
  0
LINE
  5
167
100
AcDbEntity
  8
Layer_1
 62
7
100
AcDbLine
 10
-1.454036
 20
-14.482994
 30
0.0
 11
-1.691302
 21
-14.922398
 31
0.0
  0
LINE
  5
168
100
AcDbEntity
  8
Layer_1
 62
7
100
AcDbLine
 10
-1.691302
 20
-14.922398
 30
0.0
 11
-2.052649
 21
-14.877113
 31
0.0
  0
LINE
  5
169
100
AcDbEntity
  8
Layer_1
 62
7
100
AcDbLine
 10
-2.052649
 20
-14.877113
 30
0.0
 11
-2.174154
 21
-14.392754
 31
0.0
  0
LINE
  5
16a
100
AcDbEntity
  8
Layer_1
 62
7
100
AcDbLine
 10
-2.174154
 20
-14.392754
 30
0.0
 11
-2.244194
 21
-13.914193
 31
0.0
  0
LINE
  5
16b
100
AcDbEntity
  8
Layer_1
 62
7
100
AcDbLine
 10
-2.244194
 20
-13.914193
 30
0.0
 11
-2.659382
 21
-13.840984
 31
0.0
  0
LINE
  5
16c
100
AcDbEntity
  8
Layer_1
 62
7
100
AcDbLine
 10
-2.659382
 20
-13.840984
 30
0.0
 11
-2.888876
 21
-14.266729
 31
0.0
  0
LINE
  5
16d
100
AcDbEntity
  8
Layer_1
 62
7
100
AcDbLine
 10
-2.888876
 20
-14.266729
 30
0.0
 11
-3.168714
 21
-14.680322
 31
0.0
  0
LINE
  5
16e
100
AcDbEntity
  8
Layer_1
 62
7
100
AcDbLine
 10
-3.168714
 20
-14.680322
 30
0.0
 11
-3.523757
 21
-14.599285
 31
0.0
  0
LINE
  5
16f
100
AcDbEntity
  8
Layer_1
 62
7
100
AcDbLine
 10
-3.523757
 20
-14.599285
 30
0.0
 11
-3.596430
 21
-14.105233
 31
0.0
  0
LINE
  5
170
100
AcDbEntity
  8
Layer_1
 62
7
100
AcDbLine
 10
-3.596430
 20
-14.105233
 30
0.0
 11
-3.618474
 21
-13.622078
 31
0.0
  0
LINE
  5
171
100
AcDbEntity
  8
Layer_1
 62
7
100
AcDbLine
 10
-3.618474
 20
-13.622078
 30
0.0
 11
-4.024308
 21
-13.507895
 31
0.0
  0
LINE
  5
172
100
AcDbEntity
  8
Layer_1
 62
7
100
AcDbLine
 10
-4.024308
 20
-13.507895
 30
0.0
 11
-4.295053
 21
-13.908673
 31
0.0
  0
LINE
  5
173
100
AcDbEntity
  8
Layer_1
 62
7
100
AcDbLine
 10
-4.295053
 20
-13.908673
 30
0.0
 11
-4.614681
 21
-14.292348
 31
0.0
  0
LINE
  5
174
100
AcDbEntity
  8
Layer_1
 62
7
100
AcDbLine
 10
-4.614681
 20
-14.292348
 30
0.0
 11
-4.959888
 21
-14.176363
 31
0.0
  0
LINE
  5
175
100
AcDbEntity
  8
Layer_1
 62
7
100
AcDbLine
 10
-4.959888
 20
-14.176363
 30
0.0
 11
-4.983008
 21
-13.677530
 31
0.0
  0
LINE
  5
176
100
AcDbEntity
  8
Layer_1
 62
7
100
AcDbLine
 10
-4.983008
 20
-13.677530
 30
0.0
 11
-4.956838
 21
-13.194582
 31
0.0
  0
LINE
  5
177
100
AcDbEntity
  8
Layer_1
 62
7
100
AcDbLine
 10
-4.956838
 20
-13.194582
 30
0.0
 11
-5.349288
 21
-13.040556
 31
0.0
  0
LINE
  5
178
100
AcDbEntity
  8
Layer_1
 62
7
100
AcDbLine
 10
-5.349288
 20
-13.040556
 30
0.0
 11
-5.658591
 21
-13.412383
 31
0.0
  0
LINE
  5
179
100
AcDbEntity
  8
Layer_1
 62
7
100
AcDbLine
 10
-5.658591
 20
-13.412383
 30
0.0
 11
-6.014830
 21
-13.762330
 31
0.0
  0
LINE
  5
17a
100
AcDbEntity
  8
Layer_1
 62
7
100
AcDbLine
 10
-6.014830
 20
-13.762330
 30
0.0
 11
-6.346775
 21
-13.612548
 31
0.0
  0
LINE
  5
17b
100
AcDbEntity
  8
Layer_1
 62
7
100
AcDbLine
 10
-6.346775
 20
-13.612548
 30
0.0
 11
-6.320113
 21
-13.113893
 31
0.0
  0
LINE
  5
17c
100
AcDbEntity
  8
Layer_1
 62
7
100
AcDbLine
 10
-6.320113
 20
-13.113893
 30
0.0
 11
-6.245984
 21
-12.635949
 31
0.0
  0
LINE
  5
17d
100
AcDbEntity
  8
Layer_1
 62
7
100
AcDbLine
 10
-6.245984
 20
-12.635949
 30
0.0
 11
-6.621148
 21
-12.443615
 31
0.0
  0
LINE
  5
17e
100
AcDbEntity
  8
Layer_1
 62
7
100
AcDbLine
 10
-6.621148
 20
-12.443615
 30
0.0
 11
-6.965939
 21
-12.782800
 31
0.0
  0
LINE
  5
17f
100
AcDbEntity
  8
Layer_1
 62
7
100
AcDbLine
 10
-6.965939
 20
-12.782800
 30
0.0
 11
-7.355251
 21
-13.095534
 31
0.0
  0
LINE
  5
180
100
AcDbEntity
  8
Layer_1
 62
7
100
AcDbLine
 10
-7.355251
 20
-13.095534
 30
0.0
 11
-7.670633
 21
-12.913447
 31
0.0
  0
LINE
  5
181
100
AcDbEntity
  8
Layer_1
 62
7
100
AcDbLine
 10
-7.670633
 20
-12.913447
 30
0.0
 11
-7.594453
 21
-12.419924
 31
0.0
  0
LINE
  5
182
100
AcDbEntity
  8
Layer_1
 62
7
100
AcDbLine
 10
-7.594453
 20
-12.419924
 30
0.0
 11
-7.473107
 21
-11.951739
 31
0.0
  0
LINE
  5
183
100
AcDbEntity
  8
Layer_1
 62
7
100
AcDbLine
 10
-7.473107
 20
-11.951739
 30
0.0
 11
-7.827254
 21
-11.723005
 31
0.0
  0
LINE
  5
184
100
AcDbEntity
  8
Layer_1
 62
7
100
AcDbLine
 10
-7.827254
 20
-11.723005
 30
0.0
 11
-8.204101
 21
-12.026174
 31
0.0
  0
LINE
  5
185
100
AcDbEntity
  8
Layer_1
 62
7
100
AcDbLine
 10
-8.204101
 20
-12.026174
 30
0.0
 11
-8.622618
 21
-12.298591
 31
0.0
  0
LINE
  5
186
100
AcDbEntity
  8
Layer_1
 62
7
100
AcDbLine
 10
-8.622618
 20
-12.298591
 30
0.0
 11
-8.918306
 21
-12.086007
 31
0.0
  0
LINE
  5
187
100
AcDbEntity
  8
Layer_1
 62
7
100
AcDbLine
 10
-8.918306
 20
-12.086007
 30
0.0
 11
-8.793365
 21
-11.602521
 31
0.0
  0
LINE
  5
188
100
AcDbEntity
  8
Layer_1
 62
7
100
AcDbLine
 10
-8.793365
 20
-11.602521
 30
0.0
 11
-8.626002
 21
-11.148744
 31
0.0
  0
LINE
  5
189
100
AcDbEntity
  8
Layer_1
 62
7
100
AcDbLine
 10
-8.626002
 20
-11.148744
 30
0.0
 11
-8.955618
 21
-10.885883
 31
0.0
  0
LINE
  5
18a
100
AcDbEntity
  8
Layer_1
 62
7
100
AcDbLine
 10
-8.955618
 20
-10.885883
 30
0.0
 11
-9.360779
 21
-11.150025
 31
0.0
  0
LINE
  5
18b
100
AcDbEntity
  8
Layer_1
 62
7
100
AcDbLine
 10
-9.360779
 20
-11.150025
 30
0.0
 11
-9.804339
 21
-11.379419
 31
0.0
  0
LINE
  5
18c
100
AcDbEntity
  8
Layer_1
 62
7
100
AcDbLine
 10
-9.804339
 20
-11.379419
 30
0.0
 11
-10.077390
 21
-11.138449
 31
0.0
  0
LINE
  5
18d
100
AcDbEntity
  8
Layer_1
 62
7
100
AcDbLine
 10
-10.077390
 20
-11.138449
 30
0.0
 11
-9.904931
 21
-10.669805
 31
0.0
  0
LINE
  5
18e
100
AcDbEntity
  8
Layer_1
 62
7
100
AcDbLine
 10
-9.904931
 20
-10.669805
 30
0.0
 11
-9.693219
 21
-10.234947
 31
0.0
  0
LINE
  5
18f
100
AcDbEntity
  8
Layer_1
 62
7
100
AcDbLine
 10
-9.693219
 20
-10.234947
 30
0.0
 11
-9.995024
 21
-9.940576
 31
0.0
  0
LINE
  5
190
100
AcDbEntity
  8
Layer_1
 62
7
100
AcDbLine
 10
-9.995024
 20
-9.940576
 30
0.0
 11
-10.424469
 21
-10.163063
 31
0.0
  0
LINE
  5
191
100
AcDbEntity
  8
Layer_1
 62
7
100
AcDbLine
 10
-10.424469
 20
-10.163063
 30
0.0
 11
-10.888667
 21
-10.347152
 31
0.0
  0
LINE
  5
192
100
AcDbEntity
  8
Layer_1
 62
7
100
AcDbLine
 10
-10.888667
 20
-10.347152
 30
0.0
 11
-11.136369
 21
-10.080195
 31
0.0
  0
LINE
  5
193
100
AcDbEntity
  8
Layer_1
 62
7
100
AcDbLine
 10
-11.136369
 20
-10.080195
 30
0.0
 11
-10.918104
 21
-9.631052
 31
0.0
  0
LINE
  5
194
100
AcDbEntity
  8
Layer_1
 62
7
100
AcDbLine
 10
-10.918104
 20
-9.631052
 30
0.0
 11
-10.664147
 21
-9.219431
 31
0.0
  0
LINE
  5
195
100
AcDbEntity
  8
Layer_1
 62
7
100
AcDbLine
 10
-10.664147
 20
-9.219431
 30
0.0
 11
-10.935142
 21
-8.896471
 31
0.0
  0
LINE
  5
196
100
AcDbEntity
  8
Layer_1
 62
7
100
AcDbLine
 10
-10.935142
 20
-8.896471
 30
0.0
 11
-11.384607
 21
-9.075095
 31
0.0
  0
LINE
  5
197
100
AcDbEntity
  8
Layer_1
 62
7
100
AcDbLine
 10
-11.384607
 20
-9.075095
 30
0.0
 11
-11.864829
 21
-9.212051
 31
0.0
  0
LINE
  5
198
100
AcDbEntity
  8
Layer_1
 62
7
100
AcDbLine
 10
-11.864829
 20
-9.212051
 30
0.0
 11
-12.084716
 21
-8.921757
 31
0.0
  0
LINE
  5
199
100
AcDbEntity
  8
Layer_1
 62
7
100
AcDbLine
 10
-12.084716
 20
-8.921757
 30
0.0
 11
-11.822817
 21
-8.496578
 31
0.0
  0
LINE
  5
19a
100
AcDbEntity
  8
Layer_1
 62
7
100
AcDbLine
 10
-11.822817
 20
-8.496578
 30
0.0
 11
-11.529136
 21
-8.112289
 31
0.0
  0
LINE
  5
19b
100
AcDbEntity
  8
Layer_1
 62
7
100
AcDbLine
 10
-11.529136
 20
-8.112289
 30
0.0
 11
-11.766629
 21
-7.763954
 31
0.0
  0
LINE
  5
19c
100
AcDbEntity
  8
Layer_1
 62
7
100
AcDbLine
 10
-11.766629
 20
-7.763954
 30
0.0
 11
-12.231646
 21
-7.896936
 31
0.0
  0
LINE
  5
19d
100
AcDbEntity
  8
Layer_1
 62
7
100
AcDbLine
 10
-12.231646
 20
-7.896936
 30
0.0
 11
-12.723118
 21
-7.985395
 31
0.0
  0
LINE
  5
19e
100
AcDbEntity
  8
Layer_1
 62
7
100
AcDbLine
 10
-12.723118
 20
-7.985395
 30
0.0
 11
-12.913011
 21
-7.674650
 31
0.0
  0
LINE
  5
19f
100
AcDbEntity
  8
Layer_1
 62
7
100
AcDbLine
 10
-12.913011
 20
-7.674650
 30
0.0
 11
-12.610077
 21
-7.277660
 31
0.0
  0
LINE
  5
1a0
100
AcDbEntity
  8
Layer_1
 62
7
100
AcDbLine
 10
-12.610077
 20
-7.277660
 30
0.0
 11
-12.279593
 21
-6.924524
 31
0.0
  0
LINE
  5
1a1
100
AcDbEntity
  8
Layer_1
 62
7
100
AcDbLine
 10
-12.279593
 20
-6.924524
 30
0.0
 11
-12.481222
 21
-6.554270
 31
0.0
  0
LINE
  5
1a2
100
AcDbEntity
  8
Layer_1
 62
7
100
AcDbLine
 10
-12.481222
 20
-6.554270
 30
0.0
 11
-12.957170
 21
-6.640294
 31
0.0
  0
LINE
  5
1a3
100
AcDbEntity
  8
Layer_1
 62
7
100
AcDbLine
 10
-12.957170
 20
-6.640294
 30
0.0
 11
-13.455005
 21
-6.679378
 31
0.0
  0
LINE
  5
1a4
100
AcDbEntity
  8
Layer_1
 62
7
100
AcDbLine
 10
-13.455005
 20
-6.679378
 30
0.0
 11
-13.613013
 21
-6.351270
 31
0.0
  0
LINE
  5
1a5
100
AcDbEntity
  8
Layer_1
 62
7
100
AcDbLine
 10
-13.613013
 20
-6.351270
 30
0.0
 11
-13.272061
 21
-5.986416
 31
0.0
  0
LINE
  5
1a6
100
AcDbEntity
  8
Layer_1
 62
7
100
AcDbLine
 10
-13.272061
 20
-5.986416
 30
0.0
 11
-12.908059
 21
-5.667939
 31
0.0
  0
LINE
  5
1a7
100
AcDbEntity
  8
Layer_1
 62
7
100
AcDbLine
 10
-12.908059
 20
-5.667939
 30
0.0
 11
-13.071819
 21
-5.279452
 31
0.0
  0
LINE
  5
1a8
100
AcDbEntity
  8
Layer_1
 62
7
100
AcDbLine
 10
-13.071819
 20
-5.279452
 30
0.0
 11
-13.553967
 21
-5.317656
 31
0.0
  0
LINE
  5
1a9
100
AcDbEntity
  8
Layer_1
 62
7
100
AcDbLine
 10
-13.553967
 20
-5.317656
 30
0.0
 11
-14.053220
 21
-5.306980
 31
0.0
  0
LINE
  5
1aa
100
AcDbEntity
  8
Layer_1
 62
7
100
AcDbLine
 10
-14.053220
 20
-5.306980
 30
0.0
 11
-14.177776
 21
-4.964768
 31
0.0
  0
LINE
  5
1ab
100
AcDbEntity
  8
Layer_1
 62
7
100
AcDbLine
 10
-14.177776
 20
-4.964768
 30
0.0
 11
-13.802185
 21
-4.635675
 31
0.0
  0
LINE
  5
1ac
100
AcDbEntity
  8
Layer_1
 62
7
100
AcDbLine
 10
-13.802185
 20
-4.635675
 30
0.0
 11
-13.408285
 21
-4.355023
 31
0.0
  0
LINE
  5
1ad
100
AcDbEntity
  8
Layer_1
 62
7
100
AcDbLine
 10
-13.408285
 20
-4.355023
 30
0.0
 11
-13.532551
 21
-3.952161
 31
0.0
  0
LINE
  5
1ae
100
AcDbEntity
  8
Layer_1
 62
7
100
AcDbLine
 10
-13.532551
 20
-3.952161
 30
0.0
 11
-14.016105
 21
-3.942170
 31
0.0
  0
LINE
  5
1af
100
AcDbEntity
  8
Layer_1
 62
7
100
AcDbLine
 10
-14.016105
 20
-3.942170
 30
0.0
 11
-14.511815
 21
-3.881836
 31
0.0
  0
LINE
  5
1b0
100
AcDbEntity
  8
Layer_1
 62
7
100
AcDbLine
 10
-14.511815
 20
-3.881836
 30
0.0
 11
-14.601676
 21
-3.528924
 31
0.0
  0
LINE
  5
1b1
100
AcDbEntity
  8
Layer_1
 62
7
100
AcDbLine
 10
-14.601676
 20
-3.528924
 30
0.0
 11
-14.195187
 21
-3.238862
 31
0.0
  0
LINE
  5
1b2
100
AcDbEntity
  8
Layer_1
 62
7
100
AcDbLine
 10
-14.195187
 20
-3.238862
 30
0.0
 11
-13.775299
 21
-2.998827
 31
0.0
  0
LINE
  5
1b3
100
AcDbEntity
  8
Layer_1
 62
7
100
AcDbLine
 10
-13.775299
 20
-2.998827
 30
0.0
 11
-13.858837
 21
-2.585591
 31
0.0
  0
LINE
  5
1b4
100
AcDbEntity
  8
Layer_1
 62
7
100
AcDbLine
 10
-13.858837
 20
-2.585591
 30
0.0
 11
-14.338993
 21
-2.527503
 31
0.0
  0
LINE
  5
1b5
100
AcDbEntity
  8
Layer_1
 62
7
100
AcDbLine
 10
-14.338993
 20
-2.527503
 30
0.0
 11
-14.826231
 21
-2.418114
 31
0.0
  0
LINE
  5
1b6
100
AcDbEntity
  8
Layer_1
 62
7
100
AcDbLine
 10
-14.826231
 20
-2.418114
 30
0.0
 11
-14.880509
 21
-2.058007
 31
0.0
  0
LINE
  5
1b7
100
AcDbEntity
  8
Layer_1
 62
7
100
AcDbLine
 10
-14.880509
 20
-2.058007
 30
0.0
 11
-14.447161
 21
-1.809862
 31
0.0
  0
LINE
  5
1b8
100
AcDbEntity
  8
Layer_1
 62
7
100
AcDbLine
 10
-14.447161
 20
-1.809862
 30
0.0
 11
-14.005458
 21
-1.612824
 31
0.0
  0
LINE
  5
1b9
100
AcDbEntity
  8
Layer_1
 62
7
100
AcDbLine
 10
-14.005458
 20
-1.612824
 30
0.0
 11
-14.047435
 21
-1.193327
 31
0.0
  0
LINE
  5
1ba
100
AcDbEntity
  8
Layer_1
 62
7
100
AcDbLine
 10
-14.047435
 20
-1.193327
 30
0.0
 11
-14.519422
 21
-1.087717
 31
0.0
  0
LINE
  5
1bb
100
AcDbEntity
  8
Layer_1
 62
7
100
AcDbLine
 10
-14.519422
 20
-1.087717
 30
0.0
 11
-14.993348
 21
-0.930359
 31
0.0
  0
LINE
  5
1bc
100
AcDbEntity
  8
Layer_1
 62
7
100
AcDbLine
 10
-14.993348
 20
-0.930359
 30
0.0
 11
-15.011500
 21
-0.566639
 31
0.0
  0
LINE
  5
1bd
100
AcDbEntity
  8
Layer_1
 62
7
100
AcDbLine
 10
-15.011500
 20
-0.566639
 30
0.0
 11
-14.555597
 21
-0.362871
 31
0.0
  0
LINE
  5
1be
100
AcDbEntity
  8
Layer_1
 62
7
100
AcDbLine
 10
-14.555597
 20
-0.362871
 30
0.0
 11
-14.096472
 21
-0.210795
 31
0.0
  0
LINE
  5
1bf
100
AcDbEntity
  8
Layer_1
 62
7
100
AcDbLine
 10
-14.096472
 20
-0.210795
 30
0.0
 11
-14.096472
 21
0.210800
 31
0.0
  0
LINE
  5
1c0
100
AcDbEntity
  8
Layer_1
 62
7
100
AcDbLine
 10
-14.096472
 20
0.210800
 30
0.0
 11
-14.555597
 21
0.362876
 31
0.0
  0
LINE
  5
1c1
100
AcDbEntity
  8
Layer_1
 62
7
100
AcDbLine
 10
-14.555597
 20
0.362876
 30
0.0
 11
-15.011500
 21
0.566644
 31
0.0
  0
LINE
  5
1c2
100
AcDbEntity
  8
Layer_1
 62
7
100
AcDbLine
 10
-15.011500
 20
0.566644
 30
0.0
 11
-14.993348
 21
0.930364
 31
0.0
  0
LINE
  5
1c3
100
AcDbEntity
  8
Layer_1
 62
7
100
AcDbLine
 10
-14.993348
 20
0.930364
 30
0.0
 11
-14.519422
 21
1.087722
 31
0.0
  0
LINE
  5
1c4
100
AcDbEntity
  8
Layer_1
 62
7
100
AcDbLine
 10
-14.519422
 20
1.087722
 30
0.0
 11
-14.047435
 21
1.193331
 31
0.0
  0
LINE
  5
1c5
100
AcDbEntity
  8
Layer_1
 62
7
100
AcDbLine
 10
-14.047435
 20
1.193331
 30
0.0
 11
-14.005458
 21
1.612829
 31
0.0
  0
LINE
  5
1c6
100
AcDbEntity
  8
Layer_1
 62
7
100
AcDbLine
 10
-14.005458
 20
1.612829
 30
0.0
 11
-14.447161
 21
1.809867
 31
0.0
  0
LINE
  5
1c7
100
AcDbEntity
  8
Layer_1
 62
7
100
AcDbLine
 10
-14.447161
 20
1.809867
 30
0.0
 11
-14.880509
 21
2.058012
 31
0.0
  0
LINE
  5
1c8
100
AcDbEntity
  8
Layer_1
 62
7
100
AcDbLine
 10
-14.880509
 20
2.058012
 30
0.0
 11
-14.826231
 21
2.418119
 31
0.0
  0
LINE
  5
1c9
100
AcDbEntity
  8
Layer_1
 62
7
100
AcDbLine
 10
-14.826231
 20
2.418119
 30
0.0
 11
-14.338993
 21
2.527508
 31
0.0
  0
LINE
  5
1ca
100
AcDbEntity
  8
Layer_1
 62
7
100
AcDbLine
 10
-14.338993
 20
2.527508
 30
0.0
 11
-13.858837
 21
2.585596
 31
0.0
  0
LINE
  5
1cb
100
AcDbEntity
  8
Layer_1
 62
7
100
AcDbLine
 10
-13.858837
 20
2.585596
 30
0.0
 11
-13.775299
 21
2.998831
 31
0.0
  0
LINE
  5
1cc
100
AcDbEntity
  8
Layer_1
 62
7
100
AcDbLine
 10
-13.775299
 20
2.998831
 30
0.0
 11
-14.195187
 21
3.238867
 31
0.0
  0
LINE
  5
1cd
100
AcDbEntity
  8
Layer_1
 62
7
100
AcDbLine
 10
-14.195187
 20
3.238867
 30
0.0
 11
-14.601676
 21
3.528928
 31
0.0
  0
LINE
  5
1ce
100
AcDbEntity
  8
Layer_1
 62
7
100
AcDbLine
 10
-14.601676
 20
3.528928
 30
0.0
 11
-14.511815
 21
3.881841
 31
0.0
  0
LINE
  5
1cf
100
AcDbEntity
  8
Layer_1
 62
7
100
AcDbLine
 10
-14.511815
 20
3.881841
 30
0.0
 11
-14.016105
 21
3.942174
 31
0.0
  0
LINE
  5
1d0
100
AcDbEntity
  8
Layer_1
 62
7
100
AcDbLine
 10
-14.016105
 20
3.942174
 30
0.0
 11
-13.532551
 21
3.952165
 31
0.0
  0
LINE
  5
1d1
100
AcDbEntity
  8
Layer_1
 62
7
100
AcDbLine
 10
-13.532551
 20
3.952165
 30
0.0
 11
-13.408285
 21
4.355027
 31
0.0
  0
LINE
  5
1d2
100
AcDbEntity
  8
Layer_1
 62
7
100
AcDbLine
 10
-13.408285
 20
4.355027
 30
0.0
 11
-13.802185
 21
4.635679
 31
0.0
  0
LINE
  5
1d3
100
AcDbEntity
  8
Layer_1
 62
7
100
AcDbLine
 10
-13.802185
 20
4.635679
 30
0.0
 11
-14.177776
 21
4.964773
 31
0.0
  0
LINE
  5
1d4
100
AcDbEntity
  8
Layer_1
 62
7
100
AcDbLine
 10
-14.177776
 20
4.964773
 30
0.0
 11
-14.053220
 21
5.306985
 31
0.0
  0
LINE
  5
1d5
100
AcDbEntity
  8
Layer_1
 62
7
100
AcDbLine
 10
-14.053220
 20
5.306985
 30
0.0
 11
-13.553967
 21
5.317661
 31
0.0
  0
LINE
  5
1d6
100
AcDbEntity
  8
Layer_1
 62
7
100
AcDbLine
 10
-13.553967
 20
5.317661
 30
0.0
 11
-13.071819
 21
5.279456
 31
0.0
  0
LINE
  5
1d7
100
AcDbEntity
  8
Layer_1
 62
7
100
AcDbLine
 10
-13.071819
 20
5.279456
 30
0.0
 11
-12.908059
 21
5.667944
 31
0.0
  0
LINE
  5
1d8
100
AcDbEntity
  8
Layer_1
 62
7
100
AcDbLine
 10
-12.908059
 20
5.667944
 30
0.0
 11
-13.272061
 21
5.986421
 31
0.0
  0
LINE
  5
1d9
100
AcDbEntity
  8
Layer_1
 62
7
100
AcDbLine
 10
-13.272061
 20
5.986421
 30
0.0
 11
-13.613013
 21
6.351275
 31
0.0
  0
LINE
  5
1da
100
AcDbEntity
  8
Layer_1
 62
7
100
AcDbLine
 10
-13.613013
 20
6.351275
 30
0.0
 11
-13.455005
 21
6.679382
 31
0.0
  0
LINE
  5
1db
100
AcDbEntity
  8
Layer_1
 62
7
100
AcDbLine
 10
-13.455005
 20
6.679382
 30
0.0
 11
-12.957170
 21
6.640298
 31
0.0
  0
LINE
  5
1dc
100
AcDbEntity
  8
Layer_1
 62
7
100
AcDbLine
 10
-12.957170
 20
6.640298
 30
0.0
 11
-12.481222
 21
6.554275
 31
0.0
  0
LINE
  5
1dd
100
AcDbEntity
  8
Layer_1
 62
7
100
AcDbLine
 10
-12.481222
 20
6.554275
 30
0.0
 11
-12.279593
 21
6.924528
 31
0.0
  0
LINE
  5
1de
100
AcDbEntity
  8
Layer_1
 62
7
100
AcDbLine
 10
-12.279593
 20
6.924528
 30
0.0
 11
-12.610077
 21
7.277665
 31
0.0
  0
LINE
  5
1df
100
AcDbEntity
  8
Layer_1
 62
7
100
AcDbLine
 10
-12.610077
 20
7.277665
 30
0.0
 11
-12.913011
 21
7.674655
 31
0.0
  0
LINE
  5
1e0
100
AcDbEntity
  8
Layer_1
 62
7
100
AcDbLine
 10
-12.913011
 20
7.674655
 30
0.0
 11
-12.723118
 21
7.985400
 31
0.0
  0
LINE
  5
1e1
100
AcDbEntity
  8
Layer_1
 62
7
100
AcDbLine
 10
-12.723118
 20
7.985400
 30
0.0
 11
-12.231646
 21
7.896940
 31
0.0
  0
LINE
  5
1e2
100
AcDbEntity
  8
Layer_1
 62
7
100
AcDbLine
 10
-12.231646
 20
7.896940
 30
0.0
 11
-11.766629
 21
7.763958
 31
0.0
  0
LINE
  5
1e3
100
AcDbEntity
  8
Layer_1
 62
7
100
AcDbLine
 10
-11.766629
 20
7.763958
 30
0.0
 11
-11.529136
 21
8.112294
 31
0.0
  0
LINE
  5
1e4
100
AcDbEntity
  8
Layer_1
 62
7
100
AcDbLine
 10
-11.529136
 20
8.112294
 30
0.0
 11
-11.822817
 21
8.496583
 31
0.0
  0
LINE
  5
1e5
100
AcDbEntity
  8
Layer_1
 62
7
100
AcDbLine
 10
-11.822817
 20
8.496583
 30
0.0
 11
-12.084716
 21
8.921762
 31
0.0
  0
LINE
  5
1e6
100
AcDbEntity
  8
Layer_1
 62
7
100
AcDbLine
 10
-12.084716
 20
8.921762
 30
0.0
 11
-11.864829
 21
9.212055
 31
0.0
  0
LINE
  5
1e7
100
AcDbEntity
  8
Layer_1
 62
7
100
AcDbLine
 10
-11.864829
 20
9.212055
 30
0.0
 11
-11.384607
 21
9.075100
 31
0.0
  0
LINE
  5
1e8
100
AcDbEntity
  8
Layer_1
 62
7
100
AcDbLine
 10
-11.384607
 20
9.075100
 30
0.0
 11
-10.935142
 21
8.896476
 31
0.0
  0
LINE
  5
1e9
100
AcDbEntity
  8
Layer_1
 62
7
100
AcDbLine
 10
-10.935142
 20
8.896476
 30
0.0
 11
-10.664147
 21
9.219435
 31
0.0
  0
LINE
  5
1ea
100
AcDbEntity
  8
Layer_1
 62
7
100
AcDbLine
 10
-10.664147
 20
9.219435
 30
0.0
 11
-10.918104
 21
9.631056
 31
0.0
  0
LINE
  5
1eb
100
AcDbEntity
  8
Layer_1
 62
7
100
AcDbLine
 10
-10.918104
 20
9.631056
 30
0.0
 11
-11.136369
 21
10.080199
 31
0.0
  0
LINE
  5
1ec
100
AcDbEntity
  8
Layer_1
 62
7
100
AcDbLine
 10
-11.136369
 20
10.080199
 30
0.0
 11
-10.888667
 21
10.347157
 31
0.0
  0
LINE
  5
1ed
100
AcDbEntity
  8
Layer_1
 62
7
100
AcDbLine
 10
-10.888667
 20
10.347157
 30
0.0
 11
-10.424469
 21
10.163068
 31
0.0
  0
LINE
  5
1ee
100
AcDbEntity
  8
Layer_1
 62
7
100
AcDbLine
 10
-10.424469
 20
10.163068
 30
0.0
 11
-9.995024
 21
9.940580
 31
0.0
  0
LINE
  5
1ef
100
AcDbEntity
  8
Layer_1
 62
7
100
AcDbLine
 10
-9.995024
 20
9.940580
 30
0.0
 11
-9.693219
 21
10.234952
 31
0.0
  0
LINE
  5
1f0
100
AcDbEntity
  8
Layer_1
 62
7
100
AcDbLine
 10
-9.693219
 20
10.234952
 30
0.0
 11
-9.904931
 21
10.669810
 31
0.0
  0
LINE
  5
1f1
100
AcDbEntity
  8
Layer_1
 62
7
100
AcDbLine
 10
-9.904931
 20
10.669810
 30
0.0
 11
-10.077390
 21
11.138454
 31
0.0
  0
LINE
  5
1f2
100
AcDbEntity
  8
Layer_1
 62
7
100
AcDbLine
 10
-10.077390
 20
11.138454
 30
0.0
 11
-9.804339
 21
11.379424
 31
0.0
  0
LINE
  5
1f3
100
AcDbEntity
  8
Layer_1
 62
7
100
AcDbLine
 10
-9.804339
 20
11.379424
 30
0.0
 11
-9.360779
 21
11.150029
 31
0.0
  0
LINE
  5
1f4
100
AcDbEntity
  8
Layer_1
 62
7
100
AcDbLine
 10
-9.360779
 20
11.150029
 30
0.0
 11
-8.955618
 21
10.885887
 31
0.0
  0
LINE
  5
1f5
100
AcDbEntity
  8
Layer_1
 62
7
100
AcDbLine
 10
-8.955618
 20
10.885887
 30
0.0
 11
-8.626002
 21
11.148748
 31
0.0
  0
LINE
  5
1f6
100
AcDbEntity
  8
Layer_1
 62
7
100
AcDbLine
 10
-8.626002
 20
11.148748
 30
0.0
 11
-8.793365
 21
11.602526
 31
0.0
  0
LINE
  5
1f7
100
AcDbEntity
  8
Layer_1
 62
7
100
AcDbLine
 10
-8.793365
 20
11.602526
 30
0.0
 11
-8.918306
 21
12.086012
 31
0.0
  0
LINE
  5
1f8
100
AcDbEntity
  8
Layer_1
 62
7
100
AcDbLine
 10
-8.918306
 20
12.086012
 30
0.0
 11
-8.622618
 21
12.298596
 31
0.0
  0
LINE
  5
1f9
100
AcDbEntity
  8
Layer_1
 62
7
100
AcDbLine
 10
-8.622618
 20
12.298596
 30
0.0
 11
-8.204101
 21
12.026178
 31
0.0
  0
LINE
  5
1fa
100
AcDbEntity
  8
Layer_1
 62
7
100
AcDbLine
 10
-8.204101
 20
12.026178
 30
0.0
 11
-7.827254
 21
11.723010
 31
0.0
  0
LINE
  5
1fb
100
AcDbEntity
  8
Layer_1
 62
7
100
AcDbLine
 10
-7.827254
 20
11.723010
 30
0.0
 11
-7.473107
 21
11.951743
 31
0.0
  0
LINE
  5
1fc
100
AcDbEntity
  8
Layer_1
 62
7
100
AcDbLine
 10
-7.473107
 20
11.951743
 30
0.0
 11
-7.594453
 21
12.419929
 31
0.0
  0
LINE
  5
1fd
100
AcDbEntity
  8
Layer_1
 62
7
100
AcDbLine
 10
-7.594453
 20
12.419929
 30
0.0
 11
-7.670633
 21
12.913452
 31
0.0
  0
LINE
  5
1fe
100
AcDbEntity
  8
Layer_1
 62
7
100
AcDbLine
 10
-7.670633
 20
12.913452
 30
0.0
 11
-7.355251
 21
13.095538
 31
0.0
  0
LINE
  5
1ff
100
AcDbEntity
  8
Layer_1
 62
7
100
AcDbLine
 10
-7.355251
 20
13.095538
 30
0.0
 11
-6.965939
 21
12.782805
 31
0.0
  0
LINE
  5
200
100
AcDbEntity
  8
Layer_1
 62
7
100
AcDbLine
 10
-6.965939
 20
12.782805
 30
0.0
 11
-6.621148
 21
12.443619
 31
0.0
  0
LINE
  5
201
100
AcDbEntity
  8
Layer_1
 62
7
100
AcDbLine
 10
-6.621148
 20
12.443619
 30
0.0
 11
-6.245984
 21
12.635954
 31
0.0
  0
LINE
  5
202
100
AcDbEntity
  8
Layer_1
 62
7
100
AcDbLine
 10
-6.245984
 20
12.635954
 30
0.0
 11
-6.320113
 21
13.113898
 31
0.0
  0
LINE
  5
203
100
AcDbEntity
  8
Layer_1
 62
7
100
AcDbLine
 10
-6.320113
 20
13.113898
 30
0.0
 11
-6.346775
 21
13.612553
 31
0.0
  0
LINE
  5
204
100
AcDbEntity
  8
Layer_1
 62
7
100
AcDbLine
 10
-6.346775
 20
13.612553
 30
0.0
 11
-6.014830
 21
13.762334
 31
0.0
  0
LINE
  5
205
100
AcDbEntity
  8
Layer_1
 62
7
100
AcDbLine
 10
-6.014830
 20
13.762334
 30
0.0
 11
-5.658591
 21
13.412388
 31
0.0
  0
LINE
  5
206
100
AcDbEntity
  8
Layer_1
 62
7
100
AcDbLine
 10
-5.658591
 20
13.412388
 30
0.0
 11
-5.349288
 21
13.040561
 31
0.0
  0
LINE
  5
207
100
AcDbEntity
  8
Layer_1
 62
7
100
AcDbLine
 10
-5.349288
 20
13.040561
 30
0.0
 11
-4.956838
 21
13.194587
 31
0.0
  0
LINE
  5
208
100
AcDbEntity
  8
Layer_1
 62
7
100
AcDbLine
 10
-4.956838
 20
13.194587
 30
0.0
 11
-4.983008
 21
13.677535
 31
0.0
  0
LINE
  5
209
100
AcDbEntity
  8
Layer_1
 62
7
100
AcDbLine
 10
-4.983008
 20
13.677535
 30
0.0
 11
-4.959888
 21
14.176367
 31
0.0
  0
LINE
  5
20a
100
AcDbEntity
  8
Layer_1
 62
7
100
AcDbLine
 10
-4.959888
 20
14.176367
 30
0.0
 11
-4.614681
 21
14.292352
 31
0.0
  0
LINE
  5
20b
100
AcDbEntity
  8
Layer_1
 62
7
100
AcDbLine
 10
-4.614681
 20
14.292352
 30
0.0
 11
-4.295053
 21
13.908677
 31
0.0
  0
LINE
  5
20c
100
AcDbEntity
  8
Layer_1
 62
7
100
AcDbLine
 10
-4.295053
 20
13.908677
 30
0.0
 11
-4.024308
 21
13.507900
 31
0.0
  0
LINE
  5
20d
100
AcDbEntity
  8
Layer_1
 62
7
100
AcDbLine
 10
-4.024308
 20
13.507900
 30
0.0
 11
-3.618474
 21
13.622082
 31
0.0
  0
LINE
  5
20e
100
AcDbEntity
  8
Layer_1
 62
7
100
AcDbLine
 10
-3.618474
 20
13.622082
 30
0.0
 11
-3.596430
 21
14.105237
 31
0.0
  0
LINE
  5
20f
100
AcDbEntity
  8
Layer_1
 62
7
100
AcDbLine
 10
-3.596430
 20
14.105237
 30
0.0
 11
-3.523757
 21
14.599290
 31
0.0
  0
LINE
  5
210
100
AcDbEntity
  8
Layer_1
 62
7
100
AcDbLine
 10
-3.523757
 20
14.599290
 30
0.0
 11
-3.168714
 21
14.680326
 31
0.0
  0
LINE
  5
211
100
AcDbEntity
  8
Layer_1
 62
7
100
AcDbLine
 10
-3.168714
 20
14.680326
 30
0.0
 11
-2.888876
 21
14.266733
 31
0.0
  0
LINE
  5
212
100
AcDbEntity
  8
Layer_1
 62
7
100
AcDbLine
 10
-2.888876
 20
14.266733
 30
0.0
 11
-2.659382
 21
13.840989
 31
0.0
  0
LINE
  5
213
100
AcDbEntity
  8
Layer_1
 62
7
100
AcDbLine
 10
-2.659382
 20
13.840989
 30
0.0
 11
-2.244194
 21
13.914197
 31
0.0
  0
LINE
  5
214
100
AcDbEntity
  8
Layer_1
 62
7
100
AcDbLine
 10
-2.244194
 20
13.914197
 30
0.0
 11
-2.174154
 21
14.392758
 31
0.0
  0
LINE
  5
215
100
AcDbEntity
  8
Layer_1
 62
7
100
AcDbLine
 10
-2.174154
 20
14.392758
 30
0.0
 11
-2.052649
 21
14.877118
 31
0.0
  0
LINE
  5
216
100
AcDbEntity
  8
Layer_1
 62
7
100
AcDbLine
 10
-2.052649
 20
14.877118
 30
0.0
 11
-1.691302
 21
14.922402
 31
0.0
  0
LINE
  5
217
100
AcDbEntity
  8
Layer_1
 62
7
100
AcDbLine
 10
-1.691302
 20
14.922402
 30
0.0
 11
-1.454036
 21
14.482999
 31
0.0
  0
LINE
  5
218
100
AcDbEntity
  8
Layer_1
 62
7
100
AcDbLine
 10
-1.454036
 20
14.482999
 30
0.0
 11
-1.268074
 21
14.036522
 31
0.0
  0
LINE
  5
219
100
AcDbEntity
  8
Layer_1
 62
7
100
AcDbLine
 10
-1.268074
 20
14.036522
 30
0.0
 11
-0.847661
 21
14.068027
 31
0.0
  0
LINE
  5
21a
100
AcDbEntity
  8
Layer_1
 62
7
100
AcDbLine
 10
-0.847661
 20
14.068027
 30
0.0
 11
-0.730318
 21
14.537236
 31
0.0
  0
LINE
  5
21b
100
AcDbEntity
  8
Layer_1
 62
7
100
AcDbLine
 10
-0.730318
 20
14.537236
 30
0.0
 11
-0.561191
 21
15.007093
 31
0.0
  0
LINE
  5
21c
100
AcDbEntity
  8
Layer_1
 62
7
100
AcDbLine
 10
-0.561191
 20
15.007093
 30
0.0
 11
-0.197132
 21
15.016171
 31
0.0
  0
LINE
  5
21d
100
AcDbEntity
  8
Layer_1
 62
7
100
AcDbLine
 10
-0.197132
 20
15.016171
 30
0.0
 11
-0.004795
 21
14.555328
 31
0.0
  0
LINE
  5
21e
100
AcDbEntity
  8
Layer_1
 62
7
100
AcDbLine
 10
-0.004795
 20
14.555328
 30
0.0
 11
0.135788
 21
14.092553
 31
0.0
  0
LINE
  5
21f
100
AcDbEntity
  8
Layer_1
 62
7
100
AcDbLine
 10
0.135788
 20
14.092553
 30
0.0
 11
0.557253
 21
14.082043
 31
0.0
  0
LINE
  5
220
100
AcDbEntity
  8
Layer_1
 62
7
100
AcDbLine
 10
0.557253
 20
14.082043
 30
0.0
 11
0.720729
 21
14.537236
 31
0.0
  0
LINE
  5
221
100
AcDbEntity
  8
Layer_1
 62
7
100
AcDbLine
 10
0.720729
 20
14.537236
 30
0.0
 11
0.935798
 21
14.987917
 31
0.0
  0
LINE
  5
222
100
AcDbEntity
  8
Layer_1
 62
7
100
AcDbLine
 10
0.935798
 20
14.987917
 30
0.0
 11
1.298953
 21
14.960702
 31
0.0
  0
LINE
  5
223
100
AcDbEntity
  8
Layer_1
 62
7
100
AcDbLine
 10
1.298953
 20
14.960702
 30
0.0
 11
1.444447
 21
14.482999
 31
0.0
  0
LINE
  5
224
100
AcDbEntity
  8
Layer_1
 62
7
100
AcDbLine
 10
1.444447
 20
14.482999
 30
0.0
 11
1.538257
 21
14.008526
 31
0.0
  0
LINE
  5
225
100
AcDbEntity
  8
Layer_1
 62
7
100
AcDbLine
 10
1.538257
 20
14.008526
 30
0.0
 11
1.956578
 21
13.956103
 31
0.0
  0
LINE
  5
226
100
AcDbEntity
  8
Layer_1
 62
7
100
AcDbLine
 10
1.956578
 20
13.956103
 30
0.0
 11
2.164565
 21
14.392758
 31
0.0
  0
LINE
  5
227
100
AcDbEntity
  8
Layer_1
 62
7
100
AcDbLine
 10
2.164565
 20
14.392758
 30
0.0
 11
2.423438
 21
14.819786
 31
0.0
  0
LINE
  5
228
100
AcDbEntity
  8
Layer_1
 62
7
100
AcDbLine
 10
2.423438
 20
14.819786
 30
0.0
 11
2.782078
 21
14.756547
 31
0.0
  0
LINE
  5
229
100
AcDbEntity
  8
Layer_1
 62
7
100
AcDbLine
 10
2.782078
 20
14.756547
 30
0.0
 11
2.879286
 21
14.266733
 31
0.0
  0
LINE
  5
22a
100
AcDbEntity
  8
Layer_1
 62
7
100
AcDbLine
 10
2.879286
 20
14.266733
 30
0.0
 11
2.925387
 21
13.785277
 31
0.0
  0
LINE
  5
22b
100
AcDbEntity
  8
Layer_1
 62
7
100
AcDbLine
 10
2.925387
 20
13.785277
 30
0.0
 11
3.336410
 21
13.691464
 31
0.0
  0
LINE
  5
22c
100
AcDbEntity
  8
Layer_1
 62
7
100
AcDbLine
 10
3.336410
 20
13.691464
 30
0.0
 11
3.586841
 21
14.105237
 31
0.0
  0
LINE
  5
22d
100
AcDbEntity
  8
Layer_1
 62
7
100
AcDbLine
 10
3.586841
 20
14.105237
 30
0.0
 11
3.886945
 21
14.504368
 31
0.0
  0
LINE
  5
22e
100
AcDbEntity
  8
Layer_1
 62
7
100
AcDbLine
 10
3.886945
 20
14.504368
 30
0.0
 11
4.237506
 21
14.405737
 31
0.0
  0
LINE
  5
22f
100
AcDbEntity
  8
Layer_1
 62
7
100
AcDbLine
 10
4.237506
 20
14.405737
 30
0.0
 11
4.285464
 21
13.908677
 31
0.0
  0
LINE
  5
230
100
AcDbEntity
  8
Layer_1
 62
7
100
AcDbLine
 10
4.285464
 20
13.908677
 30
0.0
 11
4.283388
 21
13.425023
 31
0.0
  0
LINE
  5
231
100
AcDbEntity
  8
Layer_1
 62
7
100
AcDbLine
 10
4.283388
 20
13.425023
 30
0.0
 11
4.683027
 21
13.290752
 31
0.0
  0
LINE
  5
232
100
AcDbEntity
  8
Layer_1
 62
7
100
AcDbLine
 10
4.683027
 20
13.290752
 30
0.0
 11
4.973411
 21
13.677535
 31
0.0
  0
LINE
  5
233
100
AcDbEntity
  8
Layer_1
 62
7
100
AcDbLine
 10
4.973411
 20
13.677535
 30
0.0
 11
5.311766
 21
14.044803
 31
0.0
  0
LINE
  5
234
100
AcDbEntity
  8
Layer_1
 62
7
100
AcDbLine
 10
5.311766
 20
14.044803
 30
0.0
 11
5.650766
 21
13.911756
 31
0.0
  0
LINE
  5
235
100
AcDbEntity
  8
Layer_1
 62
7
100
AcDbLine
 10
5.650766
 20
13.911756
 30
0.0
 11
5.648991
 21
13.412388
 31
0.0
  0
LINE
  5
236
100
AcDbEntity
  8
Layer_1
 62
7
100
AcDbLine
 10
5.648991
 20
13.412388
 30
0.0
 11
5.598777
 21
12.931344
 31
0.0
  0
LINE
  5
237
100
AcDbEntity
  8
Layer_1
 62
7
100
AcDbLine
 10
5.598777
 20
12.931344
 30
0.0
 11
5.983061
 21
12.757948
 31
0.0
  0
LINE
  5
238
100
AcDbEntity
  8
Layer_1
 62
7
100
AcDbLine
 10
5.983061
 20
12.757948
 30
0.0
 11
6.310513
 21
13.113898
 31
0.0
  0
LINE
  5
239
100
AcDbEntity
  8
Layer_1
 62
7
100
AcDbLine
 10
6.310513
 20
13.113898
 30
0.0
 11
6.683754
 21
13.445652
 31
0.0
  0
LINE
  5
23a
100
AcDbEntity
  8
Layer_1
 62
7
100
AcDbLine
 10
6.683754
 20
13.445652
 30
0.0
 11
7.007822
 21
13.279510
 31
0.0
  0
LINE
  5
23b
100
AcDbEntity
  8
Layer_1
 62
7
100
AcDbLine
 10
7.007822
 20
13.279510
 30
0.0
 11
6.956338
 21
12.782805
 31
0.0
  0
LINE
  5
23c
100
AcDbEntity
  8
Layer_1
 62
7
100
AcDbLine
 10
6.956338
 20
12.782805
 30
0.0
 11
6.858478
 21
12.309149
 31
0.0
  0
LINE
  5
23d
100
AcDbEntity
  8
Layer_1
 62
7
100
AcDbLine
 10
6.858478
 20
12.309149
 30
0.0
 11
7.223588
 21
12.098354
 31
0.0
  0
LINE
  5
23e
100
AcDbEntity
  8
Layer_1
 62
7
100
AcDbLine
 10
7.223588
 20
12.098354
 30
0.0
 11
7.584853
 21
12.419929
 31
0.0
  0
LINE
  5
23f
100
AcDbEntity
  8
Layer_1
 62
7
100
AcDbLine
 10
7.584853
 20
12.419929
 30
0.0
 11
7.989272
 21
12.712871
 31
0.0
  0
LINE
  5
240
100
AcDbEntity
  8
Layer_1
 62
7
100
AcDbLine
 10
7.989272
 20
12.712871
 30
0.0
 11
8.295188
 21
12.515290
 31
0.0
  0
LINE
  5
241
100
AcDbEntity
  8
Layer_1
 62
7
100
AcDbLine
 10
8.295188
 20
12.515290
 30
0.0
 11
8.194501
 21
12.026178
 31
0.0
  0
LINE
  5
242
100
AcDbEntity
  8
Layer_1
 62
7
100
AcDbLine
 10
8.194501
 20
12.026178
 30
0.0
 11
8.049968
 21
11.564622
 31
0.0
  0
LINE
  5
243
100
AcDbEntity
  8
Layer_1
 62
7
100
AcDbLine
 10
8.049968
 20
11.564622
 30
0.0
 11
8.392276
 21
11.318517
 31
0.0
  0
LINE
  5
244
100
AcDbEntity
  8
Layer_1
 62
7
100
AcDbLine
 10
8.392276
 20
11.318517
 30
0.0
 11
8.783765
 21
11.602526
 31
0.0
  0
LINE
  5
245
100
AcDbEntity
  8
Layer_1
 62
7
100
AcDbLine
 10
8.783765
 20
11.602526
 30
0.0
 11
9.215340
 21
11.853744
 31
0.0
  0
LINE
  5
246
100
AcDbEntity
  8
Layer_1
 62
7
100
AcDbLine
 10
9.215340
 20
11.853744
 30
0.0
 11
9.500062
 21
11.626687
 31
0.0
  0
LINE
  5
247
100
AcDbEntity
  8
Layer_1
 62
7
100
AcDbLine
 10
9.500062
 20
11.626687
 30
0.0
 11
9.351179
 21
11.150029
 31
0.0
  0
LINE
  5
248
100
AcDbEntity
  8
Layer_1
 62
7
100
AcDbLine
 10
9.351179
 20
11.150029
 30
0.0
 11
9.161406
 21
10.705158
 31
0.0
  0
LINE
  5
249
100
AcDbEntity
  8
Layer_1
 62
7
100
AcDbLine
 10
9.161406
 20
10.705158
 30
0.0
 11
9.477507
 21
10.426194
 31
0.0
  0
LINE
  5
24a
100
AcDbEntity
  8
Layer_1
 62
7
100
AcDbLine
 10
9.477507
 20
10.426194
 30
0.0
 11
9.895331
 21
10.669810
 31
0.0
  0
LINE
  5
24b
100
AcDbEntity
  8
Layer_1
 62
7
100
AcDbLine
 10
9.895331
 20
10.669810
 30
0.0
 11
10.349775
 21
10.876811
 31
0.0
  0
LINE
  5
24c
100
AcDbEntity
  8
Layer_1
 62
7
100
AcDbLine
 10
10.349775
 20
10.876811
 30
0.0
 11
10.610476
 21
10.622532
 31
0.0
  0
LINE
  5
24d
100
AcDbEntity
  8
Layer_1
 62
7
100
AcDbLine
 10
10.610476
 20
10.622532
 30
0.0
 11
10.414869
 21
10.163068
 31
0.0
  0
LINE
  5
24e
100
AcDbEntity
  8
Layer_1
 62
7
100
AcDbLine
 10
10.414869
 20
10.163068
 30
0.0
 11
10.181746
 21
9.739301
 31
0.0
  0
LINE
  5
24f
100
AcDbEntity
  8
Layer_1
 62
7
100
AcDbLine
 10
10.181746
 20
9.739301
 30
0.0
 11
10.468503
 21
9.430252
 31
0.0
  0
LINE
  5
250
100
AcDbEntity
  8
Layer_1
 62
7
100
AcDbLine
 10
10.468503
 20
9.430252
 30
0.0
 11
10.908504
 21
9.631056
 31
0.0
  0
LINE
  5
251
100
AcDbEntity
  8
Layer_1
 62
7
100
AcDbLine
 10
10.908504
 20
9.631056
 30
0.0
 11
11.381302
 21
9.791779
 31
0.0
  0
LINE
  5
252
100
AcDbEntity
  8
Layer_1
 62
7
100
AcDbLine
 10
11.381302
 20
9.791779
 30
0.0
 11
11.615387
 21
9.512804
 31
0.0
  0
LINE
  5
253
100
AcDbEntity
  8
Layer_1
 62
7
100
AcDbLine
 10
11.615387
 20
9.512804
 30
0.0
 11
11.375007
 21
9.075100
 31
0.0
  0
LINE
  5
254
100
AcDbEntity
  8
Layer_1
 62
7
100
AcDbLine
 10
11.375007
 20
9.075100
 30
0.0
 11
11.100847
 21
8.676652
 31
0.0
  0
LINE
  5
255
100
AcDbEntity
  8
Layer_1
 62
7
100
AcDbLine
 10
11.100847
 20
8.676652
 30
0.0
 11
11.355407
 21
8.340585
 31
0.0
  0
LINE
  5
256
100
AcDbEntity
  8
Layer_1
 62
7
100
AcDbLine
 10
11.355407
 20
8.340585
 30
0.0
 11
11.813216
 21
8.496583
 31
0.0
  0
LINE
  5
257
100
AcDbEntity
  8
Layer_1
 62
7
100
AcDbLine
 10
11.813216
 20
8.496583
 30
0.0
 11
12.299668
 21
8.609430
 31
0.0
  0
LINE
  5
258
100
AcDbEntity
  8
Layer_1
 62
7
100
AcDbLine
 10
12.299668
 20
8.609430
 30
0.0
 11
12.504815
 21
8.308537
 31
0.0
  0
LINE
  5
259
100
AcDbEntity
  8
Layer_1
 62
7
100
AcDbLine
 10
12.504815
 20
8.308537
 30
0.0
 11
12.222046
 21
7.896940
 31
0.0
  0
LINE
  5
25a
100
AcDbEntity
  8
Layer_1
 62
7
100
AcDbLine
 10
12.222046
 20
7.896940
 30
0.0
 11
11.909575
 21
7.527768
 31
0.0
  0
LINE
  5
25b
100
AcDbEntity
  8
Layer_1
 62
7
100
AcDbLine
 10
11.909575
 20
7.527768
 30
0.0
 11
12.129410
 21
7.168027
 31
0.0
  0
LINE
  5
25c
100
AcDbEntity
  8
Layer_1
 62
7
100
AcDbLine
 10
12.129410
 20
7.168027
 30
0.0
 11
12.600477
 21
7.277665
 31
0.0
  0
LINE
  5
25d
100
AcDbEntity
  8
Layer_1
 62
7
100
AcDbLine
 10
12.600477
 20
7.277665
 30
0.0
 11
13.095745
 21
7.341519
 31
0.0
  0
LINE
  5
25e
100
AcDbEntity
  8
Layer_1
 62
7
100
AcDbLine
 10
13.095745
 20
7.341519
 30
0.0
 11
13.269914
 21
7.021692
 31
0.0
  0
LINE
  5
25f
100
AcDbEntity
  8
Layer_1
 62
7
100
AcDbLine
 10
13.269914
 20
7.021692
 30
0.0
 11
12.947569
 21
6.640298
 31
0.0
  0
LINE
  5
260
100
AcDbEntity
  8
Layer_1
 62
7
100
AcDbLine
 10
12.947569
 20
6.640298
 30
0.0
 11
12.599895
 21
6.304073
 31
0.0
  0
LINE
  5
261
100
AcDbEntity
  8
Layer_1
 62
7
100
AcDbLine
 10
12.599895
 20
6.304073
 30
0.0
 11
12.782818
 21
5.924230
 31
0.0
  0
LINE
  5
262
100
AcDbEntity
  8
Layer_1
 62
7
100
AcDbLine
 10
12.782818
 20
5.924230
 30
0.0
 11
13.262460
 21
5.986421
 31
0.0
  0
LINE
  5
263
100
AcDbEntity
  8
Layer_1
 62
7
100
AcDbLine
 10
13.262460
 20
5.986421
 30
0.0
 11
13.761626
 21
6.000643
 31
0.0
  0
LINE
  5
264
100
AcDbEntity
  8
Layer_1
 62
7
100
AcDbLine
 10
13.761626
 20
6.000643
 30
0.0
 11
13.903083
 21
5.665065
 31
0.0
  0
LINE
  5
265
100
AcDbEntity
  8
Layer_1
 62
7
100
AcDbLine
 10
13.903083
 20
5.665065
 30
0.0
 11
13.544366
 21
5.317661
 31
0.0
  0
LINE
  5
266
100
AcDbEntity
  8
Layer_1
 62
7
100
AcDbLine
 10
13.544366
 20
5.317661
 30
0.0
 11
13.164941
 21
5.017724
 31
0.0
  0
LINE
  5
267
100
AcDbEntity
  8
Layer_1
 62
7
100
AcDbLine
 10
13.164941
 20
5.017724
 30
0.0
 11
13.309135
 21
4.621556
 31
0.0
  0
LINE
  5
268
100
AcDbEntity
  8
Layer_1
 62
7
100
AcDbLine
 10
13.309135
 20
4.621556
 30
0.0
 11
13.792585
 21
4.635679
 31
0.0
  0
LINE
  5
269
100
AcDbEntity
  8
Layer_1
 62
7
100
AcDbLine
 10
13.792585
 20
4.635679
 30
0.0
 11
14.290688
 21
4.600129
 31
0.0
  0
LINE
  5
26a
100
AcDbEntity
  8
Layer_1
 62
7
100
AcDbLine
 10
14.290688
 20
4.600129
 30
0.0
 11
14.398029
 21
4.252136
 31
0.0
  0
LINE
  5
26b
100
AcDbEntity
  8
Layer_1
 62
7
100
AcDbLine
 10
14.398029
 20
4.252136
 30
0.0
 11
14.006504
 21
3.942174
 31
0.0
  0
LINE
  5
26c
100
AcDbEntity
  8
Layer_1
 62
7
100
AcDbLine
 10
14.006504
 20
3.942174
 30
0.0
 11
13.599100
 21
3.681507
 31
0.0
  0
LINE
  5
26d
100
AcDbEntity
  8
Layer_1
 62
7
100
AcDbLine
 10
13.599100
 20
3.681507
 30
0.0
 11
13.703134
 21
3.272950
 31
0.0
  0
LINE
  5
26e
100
AcDbEntity
  8
Layer_1
 62
7
100
AcDbLine
 10
13.703134
 20
3.272950
 30
0.0
 11
14.185587
 21
3.238867
 31
0.0
  0
LINE
  5
26f
100
AcDbEntity
  8
Layer_1
 62
7
100
AcDbLine
 10
14.185587
 20
3.238867
 30
0.0
 11
14.677676
 21
3.153901
 31
0.0
  0
LINE
  5
270
100
AcDbEntity
  8
Layer_1
 62
7
100
AcDbLine
 10
14.677676
 20
3.153901
 30
0.0
 11
14.749836
 21
2.796948
 31
0.0
  0
LINE
  5
271
100
AcDbEntity
  8
Layer_1
 62
7
100
AcDbLine
 10
14.749836
 20
2.796948
 30
0.0
 11
14.329393
 21
2.527508
 31
0.0
  0
LINE
  5
272
100
AcDbEntity
  8
Layer_1
 62
7
100
AcDbLine
 10
14.329393
 20
2.527508
 30
0.0
 11
13.898060
 21
2.308699
 31
0.0
  0
LINE
  5
273
100
AcDbEntity
  8
Layer_1
 62
7
100
AcDbLine
 10
13.898060
 20
2.308699
 30
0.0
 11
13.960895
 21
1.891815
 31
0.0
  0
LINE
  5
274
100
AcDbEntity
  8
Layer_1
 62
7
100
AcDbLine
 10
13.960895
 20
1.891815
 30
0.0
 11
14.437561
 21
1.809867
 31
0.0
  0
LINE
  5
275
100
AcDbEntity
  8
Layer_1
 62
7
100
AcDbLine
 10
14.437561
 20
1.809867
 30
0.0
 11
14.918741
 21
1.676325
 31
0.0
  0
LINE
  5
276
100
AcDbEntity
  8
Layer_1
 62
7
100
AcDbLine
 10
14.918741
 20
1.676325
 30
0.0
 11
14.955001
 21
1.313960
 31
0.0
  0
LINE
  5
277
100
AcDbEntity
  8
Layer_1
 62
7
100
AcDbLine
 10
14.955001
 20
1.313960
 30
0.0
 11
14.509822
 21
1.087722
 31
0.0
  0
LINE
  5
278
100
AcDbEntity
  8
Layer_1
 62
7
100
AcDbLine
 10
14.509822
 20
1.087722
 30
0.0
 11
14.058846
 21
0.912949
 31
0.0
  0
LINE
  5
279
100
AcDbEntity
  8
Layer_1
 62
7
100
AcDbLine
 10
14.058846
 20
0.912949
 30
0.0
 11
14.079871
 21
0.491878
 31
0.0
  0
ENDSEC
  0
SECTION
  2
OBJECTS
  0
DICTIONARY
  5
C
330
0
100
AcDbDictionary
  3
ACAD_GROUP
350
D
  3
ACAD_MLINESTYLE
350
17
  0
DICTIONARY
  5
D
330
C
100
AcDbDictionary
  0
DICTIONARY
  5
1A
330
C
100
AcDbDictionary
  0
DICTIONARY
  5
17
330
C
100
AcDbDictionary
  3
STANDARD
350
18
  0
DICTIONARY
  5
19
330
C
100
AcDbDictionary
  0
ENDSEC
  0
EOF
