  0
SECTION
  2
HEADER
  9
$ACADVER
  1
AC1014
  9
$HANDSEED
  5
FFFF
  9
$MEASUREMENT
 70
     1
  0
ENDSEC
  0
SECTION
  2
TABLES
  0
TABLE
  2
VPORT
  5
8
330
0
100
AcDbSymbolTable
 70
     4
  0
VPORT
  5
2E
330
8
100
AcDbSymbolTableRecord
100
AcDbViewportTableRecord
  2
*ACTIVE
 70
     0
 10
0.0
 20
0.0
 11
1.0
 21
1.0
 12
210.0
 22
148.5
 13
0.0
 23
0.0
 14
10.0
 24
10.0
 15
10.0
 25
10.0
 16
0.0
 26
0.0
 36
1.0
 17
0.0
 27
0.0
 37
0.0
 40
341.0
 41
1.24
 42
50.0
 43
0.0
 44
0.0
 50
0.0
 51
0.0
 71
     0
 72
   100
 73
     1
 74
     3
 75
     0
 76
     0
 77
     0
 78
     0
  0
ENDTAB
  0
TABLE
  2
LTYPE
  5
5
330
0
100
AcDbSymbolTable
 70
     1
  0
LTYPE
  5
14
330
5
100
AcDbSymbolTableRecord
100
AcDbLinetypeTableRecord
  2
BYBLOCK
 70
     0
  3

 72
    65
 73
     0
 40
0.0
  0
LTYPE
  5
15
330
5
100
AcDbSymbolTableRecord
100
AcDbLinetypeTableRecord
  2
BYLAYER
 70
     0
  3

 72
    65
 73
     0
 40
0.0
  0
LTYPE
  5
16
330
5
100
AcDbSymbolTableRecord
100
AcDbLinetypeTableRecord
  2
CONTINUOUS
 70
     0
  3
Solid line
 72
    65
 73
     0
 40
0.0
  0
ENDTAB
  0
TABLE
  2
LAYER
  5
2
100
AcDbSymbolTable
 70
2
  0
LAYER
  5
50
100
AcDbSymbolTableRecord
100
AcDbLayerTableRecord
  2
0
 70
0
  6
CONTINUOUS
  0
LAYER
  5
51
100
AcDbSymbolTableRecord
100
AcDbLayerTableRecord
  2
Layer_1
 70
0
  6
CONTINUOUS
  0
ENDTAB
  0
TABLE
  2
STYLE
  5
3
330
0
100
AcDbSymbolTable
 70
     1
  0
STYLE
  5
11
330
3
100
AcDbSymbolTableRecord
100
AcDbTextStyleTableRecord
  2
STANDARD
 70
     0
 40
0.0
 41
1.0
 50
0.0
 71
     0
 42
2.5
  3
txt
  4

  0
ENDTAB
  0
TABLE
  2
VIEW
  5
6
330
0
100
AcDbSymbolTable
 70
     0
  0
ENDTAB
  0
TABLE
  2
UCS
  5
7
330
0
100
AcDbSymbolTable
 70
     0
  0
ENDTAB
  0
TABLE
  2
APPID
  5
9
330
0
100
AcDbSymbolTable
 70
     2
  0
APPID
  5
12
330
9
100
AcDbSymbolTableRecord
100
AcDbRegAppTableRecord
  2
ACAD
 70
     0
  0
ENDTAB
  0
TABLE
  2
DIMSTYLE
  5
A
330
0
100
AcDbSymbolTable
 70
     1
  0
DIMSTYLE
105
27
330
A
100
AcDbSymbolTableRecord
100
AcDbDimStyleTableRecord
  2
ISO-25
 70
     0
  3

  4

  5

  6

  7

 40
1.0
 41
2.5
 42
0.625
 43
3.75
 44
1.25
 45
0.0
 46
0.0
 47
0.0
 48
0.0
140
2.5
141
2.5
142
0.0
143
0.03937007874016
144
1.0
145
0.0
146
1.0
147
0.625
 71
     0
 72
     0
 73
     0
 74
     0
 75
     0
 76
     0
 77
     1
 78
     8
170
     0
171
     3
172
     1
173
     0
174
     0
175
     0
176
     0
177
     0
178
     0
270
     2
271
     2
272
     2
273
     2
274
     3
340
11
275
     0
280
     0
281
     0
282
     0
283
     0
284
     8
285
     0
286
     0
287
     3
288
     0
  0
ENDTAB
  0
TABLE
  2
BLOCK_RECORD
  5
1
330
0
100
AcDbSymbolTable
 70
     1
  0
BLOCK_RECORD
  5
1F
330
1
100
AcDbSymbolTableRecord
100
AcDbBlockTableRecord
  2
*MODEL_SPACE
  0
BLOCK_RECORD
  5
1B
330
1
100
AcDbSymbolTableRecord
100
AcDbBlockTableRecord
  2
*PAPER_SPACE
  0
ENDTAB
  0
ENDSEC
  0
SECTION
  2
BLOCKS
  0
BLOCK
  5
20
330
1F
100
AcDbEntity
  8
0
100
AcDbBlockBegin
  2
*MODEL_SPACE
 70
     0
 10
0.0
 20
0.0
 30
0.0
  3
*MODEL_SPACE
  1

  0
ENDBLK
  5
21
330
1F
100
AcDbEntity
  8
0
100
AcDbBlockEnd
  0
BLOCK
  5
1C
330
1B
100
AcDbEntity
 67
     1
  8
0
100
AcDbBlockBegin
  2
*PAPER_SPACE
  1

  0
ENDBLK
  5
1D
330
1B
100
AcDbEntity
 67
     1
  8
0
100
AcDbBlockEnd
  0
ENDSEC
  0
SECTION
  2
ENTITIES
  0
LINE
  5
100
100
AcDbEntity
  8
Layer_1
 62
7
100
AcDbLine
 10
5.939062
 20
0.435790
 30
0.0
 11
6.027561
 21
0.442270
 31
0.0
  0
LINE
  5
101
100
AcDbEntity
  8
Layer_1
 62
7
100
AcDbLine
 10
6.027561
 20
0.442270
 30
0.0
 11
6.421552
 21
0.374791
 31
0.0
  0
LINE
  5
102
100
AcDbEntity
  8
Layer_1
 62
7
100
AcDbLine
 10
6.421552
 20
0.374791
 30
0.0
 11
6.907744
 21
0.173668
 31
0.0
  0
LINE
  5
103
100
AcDbEntity
  8
Layer_1
 62
7
100
AcDbLine
 10
6.907744
 20
0.173668
 30
0.0
 11
6.907744
 21
-0.173663
 31
0.0
  0
LINE
  5
104
100
AcDbEntity
  8
Layer_1
 62
7
100
AcDbLine
 10
6.907744
 20
-0.173663
 30
0.0
 11
6.421552
 21
-0.374786
 31
0.0
  0
LINE
  5
105
100
AcDbEntity
  8
Layer_1
 62
7
100
AcDbLine
 10
6.421552
 20
-0.374786
 30
0.0
 11
6.027561
 21
-0.442265
 31
0.0
  0
LINE
  5
106
100
AcDbEntity
  8
Layer_1
 62
7
100
AcDbLine
 10
6.027561
 20
-0.442265
 30
0.0
 11
5.939062
 21
-0.435785
 31
0.0
  0
LINE
  5
107
100
AcDbEntity
  8
Layer_1
 62
7
100
AcDbLine
 10
5.939062
 20
-0.435785
 30
0.0
 11
5.879112
 21
-0.948671
 31
0.0
  0
LINE
  5
108
100
AcDbEntity
  8
Layer_1
 62
7
100
AcDbLine
 10
5.879112
 20
-0.948671
 30
0.0
 11
5.966722
 21
-0.962773
 31
0.0
  0
LINE
  5
109
100
AcDbEntity
  8
Layer_1
 62
7
100
AcDbLine
 10
5.966722
 20
-0.962773
 30
0.0
 11
6.334531
 21
-1.119294
 31
0.0
  0
LINE
  5
10a
100
AcDbEntity
  8
Layer_1
 62
7
100
AcDbLine
 10
6.334531
 20
-1.119294
 30
0.0
 11
6.761234
 21
-1.427119
 31
0.0
  0
LINE
  5
10b
100
AcDbEntity
  8
Layer_1
 62
7
100
AcDbLine
 10
6.761234
 20
-1.427119
 30
0.0
 11
6.681134
 21
-1.765089
 31
0.0
  0
LINE
  5
10c
100
AcDbEntity
  8
Layer_1
 62
7
100
AcDbLine
 10
6.681134
 20
-1.765089
 30
0.0
 11
6.161667
 21
-1.848666
 31
0.0
  0
LINE
  5
10d
100
AcDbEntity
  8
Layer_1
 62
7
100
AcDbLine
 10
6.161667
 20
-1.848666
 30
0.0
 11
5.762735
 21
-1.823467
 31
0.0
  0
LINE
  5
10e
100
AcDbEntity
  8
Layer_1
 62
7
100
AcDbLine
 10
5.762735
 20
-1.823467
 30
0.0
 11
5.678114
 21
-1.796751
 31
0.0
  0
LINE
  5
10f
100
AcDbEntity
  8
Layer_1
 62
7
100
AcDbLine
 10
5.678114
 20
-1.796751
 30
0.0
 11
5.501505
 21
-2.281987
 31
0.0
  0
LINE
  5
110
100
AcDbEntity
  8
Layer_1
 62
7
100
AcDbLine
 10
5.501505
 20
-2.281987
 30
0.0
 11
5.583499
 21
-2.315916
 31
0.0
  0
LINE
  5
111
100
AcDbEntity
  8
Layer_1
 62
7
100
AcDbLine
 10
5.583499
 20
-2.315916
 30
0.0
 11
5.905297
 21
-2.553039
 31
0.0
  0
LINE
  5
112
100
AcDbEntity
  8
Layer_1
 62
7
100
AcDbLine
 10
5.905297
 20
-2.553039
 30
0.0
 11
6.249509
 21
-2.950970
 31
0.0
  0
LINE
  5
113
100
AcDbEntity
  8
Layer_1
 62
7
100
AcDbLine
 10
6.249509
 20
-2.950970
 30
0.0
 11
6.093627
 21
-3.261358
 31
0.0
  0
LINE
  5
114
100
AcDbEntity
  8
Layer_1
 62
7
100
AcDbLine
 10
6.093627
 20
-3.261358
 30
0.0
 11
5.568888
 21
-3.222885
 31
0.0
  0
LINE
  5
115
100
AcDbEntity
  8
Layer_1
 62
7
100
AcDbLine
 10
5.568888
 20
-3.222885
 30
0.0
 11
5.186519
 21
-3.106364
 31
0.0
  0
LINE
  5
116
100
AcDbEntity
  8
Layer_1
 62
7
100
AcDbLine
 10
5.186519
 20
-3.106364
 30
0.0
 11
5.110342
 21
-3.060856
 31
0.0
  0
LINE
  5
117
100
AcDbEntity
  8
Layer_1
 62
7
100
AcDbLine
 10
5.110342
 20
-3.060856
 30
0.0
 11
4.826587
 21
-3.492280
 31
0.0
  0
LINE
  5
118
100
AcDbEntity
  8
Layer_1
 62
7
100
AcDbLine
 10
4.826587
 20
-3.492280
 30
0.0
 11
4.898548
 21
-3.544204
 31
0.0
  0
LINE
  5
119
100
AcDbEntity
  8
Layer_1
 62
7
100
AcDbLine
 10
4.898548
 20
-3.544204
 30
0.0
 11
5.156987
 21
-3.849148
 31
0.0
  0
LINE
  5
11a
100
AcDbEntity
  8
Layer_1
 62
7
100
AcDbLine
 10
5.156987
 20
-3.849148
 30
0.0
 11
5.400153
 21
-4.315734
 31
0.0
  0
LINE
  5
11b
100
AcDbEntity
  8
Layer_1
 62
7
100
AcDbLine
 10
5.400153
 20
-4.315734
 30
0.0
 11
5.176893
 21
-4.581808
 31
0.0
  0
LINE
  5
11c
100
AcDbEntity
  8
Layer_1
 62
7
100
AcDbLine
 10
5.176893
 20
-4.581808
 30
0.0
 11
4.675169
 21
-4.423357
 31
0.0
  0
LINE
  5
11d
100
AcDbEntity
  8
Layer_1
 62
7
100
AcDbLine
 10
4.675169
 20
-4.423357
 30
0.0
 11
4.329980
 21
-4.221797
 31
0.0
  0
LINE
  5
11e
100
AcDbEntity
  8
Layer_1
 62
7
100
AcDbLine
 10
4.329980
 20
-4.221797
 30
0.0
 11
4.266351
 21
-4.159948
 31
0.0
  0
LINE
  5
11f
100
AcDbEntity
  8
Layer_1
 62
7
100
AcDbLine
 10
4.266351
 20
-4.159948
 30
0.0
 11
3.890752
 21
-4.514306
 31
0.0
  0
LINE
  5
120
100
AcDbEntity
  8
Layer_1
 62
7
100
AcDbLine
 10
3.890752
 20
-4.514306
 30
0.0
 11
3.948797
 21
-4.581424
 31
0.0
  0
LINE
  5
121
100
AcDbEntity
  8
Layer_1
 62
7
100
AcDbLine
 10
3.948797
 20
-4.581424
 30
0.0
 11
4.129947
 21
-4.937749
 31
0.0
  0
LINE
  5
122
100
AcDbEntity
  8
Layer_1
 62
7
100
AcDbLine
 10
4.129947
 20
-4.937749
 30
0.0
 11
4.258956
 21
-5.447835
 31
0.0
  0
LINE
  5
123
100
AcDbEntity
  8
Layer_1
 62
7
100
AcDbLine
 10
4.258956
 20
-5.447835
 30
0.0
 11
3.980352
 21
-5.655248
 31
0.0
  0
LINE
  5
124
100
AcDbEntity
  8
Layer_1
 62
7
100
AcDbLine
 10
3.980352
 20
-5.655248
 30
0.0
 11
3.528692
 21
-5.385365
 31
0.0
  0
LINE
  5
125
100
AcDbEntity
  8
Layer_1
 62
7
100
AcDbLine
 10
3.528692
 20
-5.385365
 30
0.0
 11
3.239293
 21
-5.109631
 31
0.0
  0
LINE
  5
126
100
AcDbEntity
  8
Layer_1
 62
7
100
AcDbLine
 10
3.239293
 20
-5.109631
 30
0.0
 11
3.191640
 21
-5.034774
 31
0.0
  0
LINE
  5
127
100
AcDbEntity
  8
Layer_1
 62
7
100
AcDbLine
 10
3.191640
 20
-5.034774
 30
0.0
 11
2.744447
 21
-5.292963
 31
0.0
  0
LINE
  5
128
100
AcDbEntity
  8
Layer_1
 62
7
100
AcDbLine
 10
2.744447
 20
-5.292963
 30
0.0
 11
2.785449
 21
-5.371657
 31
0.0
  0
LINE
  5
129
100
AcDbEntity
  8
Layer_1
 62
7
100
AcDbLine
 10
2.785449
 20
-5.371657
 30
0.0
 11
2.879542
 21
-5.760153
 31
0.0
  0
LINE
  5
12a
100
AcDbEntity
  8
Layer_1
 62
7
100
AcDbLine
 10
2.879542
 20
-5.760153
 30
0.0
 11
2.887438
 21
-6.286241
 31
0.0
  0
LINE
  5
12b
100
AcDbEntity
  8
Layer_1
 62
7
100
AcDbLine
 10
2.887438
 20
-6.286241
 30
0.0
 11
2.568510
 21
-6.423813
 31
0.0
  0
LINE
  5
12c
100
AcDbEntity
  8
Layer_1
 62
7
100
AcDbLine
 10
2.568510
 20
-6.423813
 30
0.0
 11
2.191266
 21
-6.057045
 31
0.0
  0
LINE
  5
12d
100
AcDbEntity
  8
Layer_1
 62
7
100
AcDbLine
 10
2.191266
 20
-6.057045
 30
0.0
 11
1.973255
 21
-5.722002
 31
0.0
  0
LINE
  5
12e
100
AcDbEntity
  8
Layer_1
 62
7
100
AcDbLine
 10
1.973255
 20
-5.722002
 30
0.0
 11
1.944150
 21
-5.638174
 31
0.0
  0
LINE
  5
12f
100
AcDbEntity
  8
Layer_1
 62
7
100
AcDbLine
 10
1.944150
 20
-5.638174
 30
0.0
 11
1.449468
 21
-5.786273
 31
0.0
  0
LINE
  5
130
100
AcDbEntity
  8
Layer_1
 62
7
100
AcDbLine
 10
1.449468
 20
-5.786273
 30
0.0
 11
1.471219
 21
-5.872303
 31
0.0
  0
LINE
  5
131
100
AcDbEntity
  8
Layer_1
 62
7
100
AcDbLine
 10
1.471219
 20
-5.872303
 30
0.0
 11
1.473180
 21
-6.272025
 31
0.0
  0
LINE
  5
132
100
AcDbEntity
  8
Layer_1
 62
7
100
AcDbLine
 10
1.473180
 20
-6.272025
 30
0.0
 11
1.359541
 21
-6.785754
 31
0.0
  0
LINE
  5
133
100
AcDbEntity
  8
Layer_1
 62
7
100
AcDbLine
 10
1.359541
 20
-6.785754
 30
0.0
 11
1.017484
 21
-6.846071
 31
0.0
  0
LINE
  5
134
100
AcDbEntity
  8
Layer_1
 62
7
100
AcDbLine
 10
1.017484
 20
-6.846071
 30
0.0
 11
0.734991
 21
-6.402189
 31
0.0
  0
LINE
  5
135
100
AcDbEntity
  8
Layer_1
 62
7
100
AcDbLine
 10
0.734991
 20
-6.402189
 30
0.0
 11
0.600120
 21
-6.025902
 31
0.0
  0
LINE
  5
136
100
AcDbEntity
  8
Layer_1
 62
7
100
AcDbLine
 10
0.600120
 20
-6.025902
 30
0.0
 11
0.591134
 21
-5.937620
 31
0.0
  0
LINE
  5
137
100
AcDbEntity
  8
Layer_1
 62
7
100
AcDbLine
 10
0.591134
 20
-5.937620
 30
0.0
 11
0.075633
 21
-5.967646
 31
0.0
  0
LINE
  5
138
100
AcDbEntity
  8
Layer_1
 62
7
100
AcDbLine
 10
0.075633
 20
-5.967646
 30
0.0
 11
0.076956
 21
-6.056374
 31
0.0
  0
LINE
  5
139
100
AcDbEntity
  8
Layer_1
 62
7
100
AcDbLine
 10
0.076956
 20
-6.056374
 30
0.0
 11
-0.013318
 21
-6.445773
 31
0.0
  0
LINE
  5
13a
100
AcDbEntity
  8
Layer_1
 62
7
100
AcDbLine
 10
-0.013318
 20
-6.445773
 30
0.0
 11
-0.242370
 21
-6.919449
 31
0.0
  0
LINE
  5
13b
100
AcDbEntity
  8
Layer_1
 62
7
100
AcDbLine
 10
-0.242370
 20
-6.919449
 30
0.0
 11
-0.589116
 21
-6.899253
 31
0.0
  0
LINE
  5
13c
100
AcDbEntity
  8
Layer_1
 62
7
100
AcDbLine
 10
-0.589116
 20
-6.899253
 30
0.0
 11
-0.761627
 21
-6.402189
 31
0.0
  0
LINE
  5
13d
100
AcDbEntity
  8
Layer_1
 62
7
100
AcDbLine
 10
-0.761627
 20
-6.402189
 30
0.0
 11
-0.806083
 21
-6.004942
 31
0.0
  0
LINE
  5
13e
100
AcDbEntity
  8
Layer_1
 62
7
100
AcDbLine
 10
-0.806083
 20
-6.004942
 30
0.0
 11
-0.794470
 21
-5.916967
 31
0.0
  0
LINE
  5
13f
100
AcDbEntity
  8
Layer_1
 62
7
100
AcDbLine
 10
-0.794470
 20
-5.916967
 30
0.0
 11
-1.303000
 21
-5.827300
 31
0.0
  0
LINE
  5
140
100
AcDbEntity
  8
Layer_1
 62
7
100
AcDbLine
 10
-1.303000
 20
-5.827300
 30
0.0
 11
-1.322174
 21
-5.913942
 31
0.0
  0
LINE
  5
141
100
AcDbEntity
  8
Layer_1
 62
7
100
AcDbLine
 10
-1.322174
 20
-5.913942
 30
0.0
 11
-1.499816
 21
-6.272025
 31
0.0
  0
LINE
  5
142
100
AcDbEntity
  8
Layer_1
 62
7
100
AcDbLine
 10
-1.499816
 20
-6.272025
 30
0.0
 11
-1.831930
 21
-6.680110
 31
0.0
  0
LINE
  5
143
100
AcDbEntity
  8
Layer_1
 62
7
100
AcDbLine
 10
-1.831930
 20
-6.680110
 30
0.0
 11
-2.164673
 21
-6.580494
 31
0.0
  0
LINE
  5
144
100
AcDbEntity
  8
Layer_1
 62
7
100
AcDbLine
 10
-2.164673
 20
-6.580494
 30
0.0
 11
-2.217903
 21
-6.057045
 31
0.0
  0
LINE
  5
145
100
AcDbEntity
  8
Layer_1
 62
7
100
AcDbLine
 10
-2.217903
 20
-6.057045
 30
0.0
 11
-2.169549
 21
-5.660252
 31
0.0
  0
LINE
  5
146
100
AcDbEntity
  8
Layer_1
 62
7
100
AcDbLine
 10
-2.169549
 20
-5.660252
 30
0.0
 11
-2.137960
 21
-5.577330
 31
0.0
  0
LINE
  5
147
100
AcDbEntity
  8
Layer_1
 62
7
100
AcDbLine
 10
-2.137960
 20
-5.577330
 30
0.0
 11
-2.612105
 21
-5.372803
 31
0.0
  0
LINE
  5
148
100
AcDbEntity
  8
Layer_1
 62
7
100
AcDbLine
 10
-2.612105
 20
-5.372803
 30
0.0
 11
-2.650744
 21
-5.452686
 31
0.0
  0
LINE
  5
149
100
AcDbEntity
  8
Layer_1
 62
7
100
AcDbLine
 10
-2.650744
 20
-5.452686
 30
0.0
 11
-2.906178
 21
-5.760153
 31
0.0
  0
LINE
  5
14a
100
AcDbEntity
  8
Layer_1
 62
7
100
AcDbLine
 10
-2.906178
 20
-5.760153
 30
0.0
 11
-3.323449
 21
-6.080645
 31
0.0
  0
LINE
  5
14b
100
AcDbEntity
  8
Layer_1
 62
7
100
AcDbLine
 10
-3.323449
 20
-6.080645
 30
0.0
 11
-3.624250
 21
-5.906979
 31
0.0
  0
LINE
  5
14c
100
AcDbEntity
  8
Layer_1
 62
7
100
AcDbLine
 10
-3.624250
 20
-5.906979
 30
0.0
 11
-3.555328
 21
-5.385365
 31
0.0
  0
LINE
  5
14d
100
AcDbEntity
  8
Layer_1
 62
7
100
AcDbLine
 10
-3.555328
 20
-5.385365
 30
0.0
 11
-3.416771
 21
-5.010419
 31
0.0
  0
LINE
  5
14e
100
AcDbEntity
  8
Layer_1
 62
7
100
AcDbLine
 10
-3.416771
 20
-5.010419
 30
0.0
 11
-3.366911
 21
-4.937015
 31
0.0
  0
LINE
  5
14f
100
AcDbEntity
  8
Layer_1
 62
7
100
AcDbLine
 10
-3.366911
 20
-4.937015
 30
0.0
 11
-3.781109
 21
-4.628657
 31
0.0
  0
LINE
  5
150
100
AcDbEntity
  8
Layer_1
 62
7
100
AcDbLine
 10
-3.781109
 20
-4.628657
 30
0.0
 11
-3.837127
 21
-4.697477
 31
0.0
  0
LINE
  5
151
100
AcDbEntity
  8
Layer_1
 62
7
100
AcDbLine
 10
-3.837127
 20
-4.697477
 30
0.0
 11
-4.156583
 21
-4.937749
 31
0.0
  0
LINE
  5
152
100
AcDbEntity
  8
Layer_1
 62
7
100
AcDbLine
 10
-4.156583
 20
-4.937749
 30
0.0
 11
-4.636519
 21
-5.153373
 31
0.0
  0
LINE
  5
153
100
AcDbEntity
  8
Layer_1
 62
7
100
AcDbLine
 10
-4.636519
 20
-5.153373
 30
0.0
 11
-4.889159
 21
-4.915019
 31
0.0
  0
LINE
  5
154
100
AcDbEntity
  8
Layer_1
 62
7
100
AcDbLine
 10
-4.889159
 20
-4.915019
 30
0.0
 11
-4.701805
 21
-4.423357
 31
0.0
  0
LINE
  5
155
100
AcDbEntity
  8
Layer_1
 62
7
100
AcDbLine
 10
-4.701805
 20
-4.423357
 30
0.0
 11
-4.480515
 21
-4.090473
 31
0.0
  0
LINE
  5
156
100
AcDbEntity
  8
Layer_1
 62
7
100
AcDbLine
 10
-4.480515
 20
-4.090473
 30
0.0
 11
-4.415070
 21
-4.030546
 31
0.0
  0
LINE
  5
157
100
AcDbEntity
  8
Layer_1
 62
7
100
AcDbLine
 10
-4.415070
 20
-4.030546
 30
0.0
 11
-4.746989
 21
-3.634980
 31
0.0
  0
LINE
  5
158
100
AcDbEntity
  8
Layer_1
 62
7
100
AcDbLine
 10
-4.746989
 20
-3.634980
 30
0.0
 11
-4.817370
 21
-3.689023
 31
0.0
  0
LINE
  5
159
100
AcDbEntity
  8
Layer_1
 62
7
100
AcDbLine
 10
-4.817370
 20
-3.689023
 30
0.0
 11
-5.183624
 21
-3.849148
 31
0.0
  0
LINE
  5
15a
100
AcDbEntity
  8
Layer_1
 62
7
100
AcDbLine
 10
-5.183624
 20
-3.849148
 30
0.0
 11
-5.700350
 21
-3.948281
 31
0.0
  0
LINE
  5
15b
100
AcDbEntity
  8
Layer_1
 62
7
100
AcDbLine
 10
-5.700350
 20
-3.948281
 30
0.0
 11
-5.891211
 21
-3.658086
 31
0.0
  0
LINE
  5
15c
100
AcDbEntity
  8
Layer_1
 62
7
100
AcDbLine
 10
-5.891211
 20
-3.658086
 30
0.0
 11
-5.595524
 21
-3.222885
 31
0.0
  0
LINE
  5
15d
100
AcDbEntity
  8
Layer_1
 62
7
100
AcDbLine
 10
-5.595524
 20
-3.222885
 30
0.0
 11
-5.303430
 21
-2.950007
 31
0.0
  0
LINE
  5
15e
100
AcDbEntity
  8
Layer_1
 62
7
100
AcDbLine
 10
-5.303430
 20
-2.950007
 30
0.0
 11
-5.225929
 21
-2.906788
 31
0.0
  0
LINE
  5
15f
100
AcDbEntity
  8
Layer_1
 62
7
100
AcDbLine
 10
-5.225929
 20
-2.906788
 30
0.0
 11
-5.457675
 21
-2.445338
 31
0.0
  0
LINE
  5
160
100
AcDbEntity
  8
Layer_1
 62
7
100
AcDbLine
 10
-5.457675
 20
-2.445338
 30
0.0
 11
-5.538622
 21
-2.481696
 31
0.0
  0
LINE
  5
161
100
AcDbEntity
  8
Layer_1
 62
7
100
AcDbLine
 10
-5.538622
 20
-2.481696
 30
0.0
 11
-5.931933
 21
-2.553039
 31
0.0
  0
LINE
  5
162
100
AcDbEntity
  8
Layer_1
 62
7
100
AcDbLine
 10
-5.931933
 20
-2.553039
 30
0.0
 11
-6.457592
 21
-2.530334
 31
0.0
  0
LINE
  5
163
100
AcDbEntity
  8
Layer_1
 62
7
100
AcDbLine
 10
-6.457592
 20
-2.530334
 30
0.0
 11
-6.576387
 21
-2.203947
 31
0.0
  0
LINE
  5
164
100
AcDbEntity
  8
Layer_1
 62
7
100
AcDbLine
 10
-6.576387
 20
-2.203947
 30
0.0
 11
-6.188304
 21
-1.848666
 31
0.0
  0
LINE
  5
165
100
AcDbEntity
  8
Layer_1
 62
7
100
AcDbLine
 10
-6.188304
 20
-1.848666
 30
0.0
 11
-5.841153
 21
-1.650504
 31
0.0
  0
LINE
  5
166
100
AcDbEntity
  8
Layer_1
 62
7
100
AcDbLine
 10
-5.841153
 20
-1.650504
 30
0.0
 11
-5.755773
 21
-1.626326
 31
0.0
  0
LINE
  5
167
100
AcDbEntity
  8
Layer_1
 62
7
100
AcDbLine
 10
-5.755773
 20
-1.626326
 30
0.0
 11
-5.874856
 21
-1.123869
 31
0.0
  0
LINE
  5
168
100
AcDbEntity
  8
Layer_1
 62
7
100
AcDbLine
 10
-5.874856
 20
-1.123869
 30
0.0
 11
-5.962007
 21
-1.140579
 31
0.0
  0
LINE
  5
169
100
AcDbEntity
  8
Layer_1
 62
7
100
AcDbLine
 10
-5.962007
 20
-1.140579
 30
0.0
 11
-6.361168
 21
-1.119294
 31
0.0
  0
LINE
  5
16a
100
AcDbEntity
  8
Layer_1
 62
7
100
AcDbLine
 10
-6.361168
 20
-1.119294
 30
0.0
 11
-6.867421
 21
-0.975976
 31
0.0
  0
LINE
  5
16b
100
AcDbEntity
  8
Layer_1
 62
7
100
AcDbLine
 10
-6.867421
 20
-0.975976
 30
0.0
 11
-6.907744
 21
-0.630990
 31
0.0
  0
LINE
  5
16c
100
AcDbEntity
  8
Layer_1
 62
7
100
AcDbLine
 10
-6.907744
 20
-0.630990
 30
0.0
 11
-6.448188
 21
-0.374786
 31
0.0
  0
LINE
  5
16d
100
AcDbEntity
  8
Layer_1
 62
7
100
AcDbLine
 10
-6.448188
 20
-0.374786
 30
0.0
 11
-6.064696
 21
-0.262024
 31
0.0
  0
LINE
  5
16e
100
AcDbEntity
  8
Layer_1
 62
7
100
AcDbLine
 10
-6.064696
 20
-0.262024
 30
0.0
 11
-5.976041
 21
-0.258186
 31
0.0
  0
LINE
  5
16f
100
AcDbEntity
  8
Layer_1
 62
7
100
AcDbLine
 10
-5.976041
 20
-0.258186
 30
0.0
 11
-5.976041
 21
0.258190
 31
0.0
  0
LINE
  5
170
100
AcDbEntity
  8
Layer_1
 62
7
100
AcDbLine
 10
-5.976041
 20
0.258190
 30
0.0
 11
-6.064696
 21
0.262029
 31
0.0
  0
LINE
  5
171
100
AcDbEntity
  8
Layer_1
 62
7
100
AcDbLine
 10
-6.064696
 20
0.262029
 30
0.0
 11
-6.448188
 21
0.374791
 31
0.0
  0
LINE
  5
172
100
AcDbEntity
  8
Layer_1
 62
7
100
AcDbLine
 10
-6.448188
 20
0.374791
 30
0.0
 11
-6.907744
 21
0.630995
 31
0.0
  0
LINE
  5
173
100
AcDbEntity
  8
Layer_1
 62
7
100
AcDbLine
 10
-6.907744
 20
0.630995
 30
0.0
 11
-6.867421
 21
0.975980
 31
0.0
  0
LINE
  5
174
100
AcDbEntity
  8
Layer_1
 62
7
100
AcDbLine
 10
-6.867421
 20
0.975980
 30
0.0
 11
-6.361168
 21
1.119298
 31
0.0
  0
LINE
  5
175
100
AcDbEntity
  8
Layer_1
 62
7
100
AcDbLine
 10
-6.361168
 20
1.119298
 30
0.0
 11
-5.962007
 21
1.140584
 31
0.0
  0
LINE
  5
176
100
AcDbEntity
  8
Layer_1
 62
7
100
AcDbLine
 10
-5.962007
 20
1.140584
 30
0.0
 11
-5.874856
 21
1.123873
 31
0.0
  0
LINE
  5
177
100
AcDbEntity
  8
Layer_1
 62
7
100
AcDbLine
 10
-5.874856
 20
1.123873
 30
0.0
 11
-5.755773
 21
1.626330
 31
0.0
  0
LINE
  5
178
100
AcDbEntity
  8
Layer_1
 62
7
100
AcDbLine
 10
-5.755773
 20
1.626330
 30
0.0
 11
-5.841153
 21
1.650508
 31
0.0
  0
LINE
  5
179
100
AcDbEntity
  8
Layer_1
 62
7
100
AcDbLine
 10
-5.841153
 20
1.650508
 30
0.0
 11
-6.188304
 21
1.848671
 31
0.0
  0
LINE
  5
17a
100
AcDbEntity
  8
Layer_1
 62
7
100
AcDbLine
 10
-6.188304
 20
1.848671
 30
0.0
 11
-6.576387
 21
2.203952
 31
0.0
  0
LINE
  5
17b
100
AcDbEntity
  8
Layer_1
 62
7
100
AcDbLine
 10
-6.576387
 20
2.203952
 30
0.0
 11
-6.457592
 21
2.530339
 31
0.0
  0
LINE
  5
17c
100
AcDbEntity
  8
Layer_1
 62
7
100
AcDbLine
 10
-6.457592
 20
2.530339
 30
0.0
 11
-5.931933
 21
2.553044
 31
0.0
  0
LINE
  5
17d
100
AcDbEntity
  8
Layer_1
 62
7
100
AcDbLine
 10
-5.931933
 20
2.553044
 30
0.0
 11
-5.538622
 21
2.481701
 31
0.0
  0
LINE
  5
17e
100
AcDbEntity
  8
Layer_1
 62
7
100
AcDbLine
 10
-5.538622
 20
2.481701
 30
0.0
 11
-5.457675
 21
2.445342
 31
0.0
  0
LINE
  5
17f
100
AcDbEntity
  8
Layer_1
 62
7
100
AcDbLine
 10
-5.457675
 20
2.445342
 30
0.0
 11
-5.225929
 21
2.906792
 31
0.0
  0
LINE
  5
180
100
AcDbEntity
  8
Layer_1
 62
7
100
AcDbLine
 10
-5.225929
 20
2.906792
 30
0.0
 11
-5.303430
 21
2.950012
 31
0.0
  0
LINE
  5
181
100
AcDbEntity
  8
Layer_1
 62
7
100
AcDbLine
 10
-5.303430
 20
2.950012
 30
0.0
 11
-5.595524
 21
3.222890
 31
0.0
  0
LINE
  5
182
100
AcDbEntity
  8
Layer_1
 62
7
100
AcDbLine
 10
-5.595524
 20
3.222890
 30
0.0
 11
-5.891211
 21
3.658091
 31
0.0
  0
LINE
  5
183
100
AcDbEntity
  8
Layer_1
 62
7
100
AcDbLine
 10
-5.891211
 20
3.658091
 30
0.0
 11
-5.700350
 21
3.948286
 31
0.0
  0
LINE
  5
184
100
AcDbEntity
  8
Layer_1
 62
7
100
AcDbLine
 10
-5.700350
 20
3.948286
 30
0.0
 11
-5.183624
 21
3.849152
 31
0.0
  0
LINE
  5
185
100
AcDbEntity
  8
Layer_1
 62
7
100
AcDbLine
 10
-5.183624
 20
3.849152
 30
0.0
 11
-4.817370
 21
3.689028
 31
0.0
  0
LINE
  5
186
100
AcDbEntity
  8
Layer_1
 62
7
100
AcDbLine
 10
-4.817370
 20
3.689028
 30
0.0
 11
-4.746989
 21
3.634985
 31
0.0
  0
LINE
  5
187
100
AcDbEntity
  8
Layer_1
 62
7
100
AcDbLine
 10
-4.746989
 20
3.634985
 30
0.0
 11
-4.415070
 21
4.030551
 31
0.0
  0
LINE
  5
188
100
AcDbEntity
  8
Layer_1
 62
7
100
AcDbLine
 10
-4.415070
 20
4.030551
 30
0.0
 11
-4.480515
 21
4.090478
 31
0.0
  0
LINE
  5
189
100
AcDbEntity
  8
Layer_1
 62
7
100
AcDbLine
 10
-4.480515
 20
4.090478
 30
0.0
 11
-4.701805
 21
4.423362
 31
0.0
  0
LINE
  5
18a
100
AcDbEntity
  8
Layer_1
 62
7
100
AcDbLine
 10
-4.701805
 20
4.423362
 30
0.0
 11
-4.889159
 21
4.915024
 31
0.0
  0
LINE
  5
18b
100
AcDbEntity
  8
Layer_1
 62
7
100
AcDbLine
 10
-4.889159
 20
4.915024
 30
0.0
 11
-4.636519
 21
5.153377
 31
0.0
  0
LINE
  5
18c
100
AcDbEntity
  8
Layer_1
 62
7
100
AcDbLine
 10
-4.636519
 20
5.153377
 30
0.0
 11
-4.156583
 21
4.937754
 31
0.0
  0
LINE
  5
18d
100
AcDbEntity
  8
Layer_1
 62
7
100
AcDbLine
 10
-4.156583
 20
4.937754
 30
0.0
 11
-3.837127
 21
4.697481
 31
0.0
  0
LINE
  5
18e
100
AcDbEntity
  8
Layer_1
 62
7
100
AcDbLine
 10
-3.837127
 20
4.697481
 30
0.0
 11
-3.781109
 21
4.628661
 31
0.0
  0
LINE
  5
18f
100
AcDbEntity
  8
Layer_1
 62
7
100
AcDbLine
 10
-3.781109
 20
4.628661
 30
0.0
 11
-3.366911
 21
4.937020
 31
0.0
  0
LINE
  5
190
100
AcDbEntity
  8
Layer_1
 62
7
100
AcDbLine
 10
-3.366911
 20
4.937020
 30
0.0
 11
-3.416771
 21
5.010423
 31
0.0
  0
LINE
  5
191
100
AcDbEntity
  8
Layer_1
 62
7
100
AcDbLine
 10
-3.416771
 20
5.010423
 30
0.0
 11
-3.555328
 21
5.385370
 31
0.0
  0
LINE
  5
192
100
AcDbEntity
  8
Layer_1
 62
7
100
AcDbLine
 10
-3.555328
 20
5.385370
 30
0.0
 11
-3.624250
 21
5.906984
 31
0.0
  0
LINE
  5
193
100
AcDbEntity
  8
Layer_1
 62
7
100
AcDbLine
 10
-3.624250
 20
5.906984
 30
0.0
 11
-3.323449
 21
6.080649
 31
0.0
  0
LINE
  5
194
100
AcDbEntity
  8
Layer_1
 62
7
100
AcDbLine
 10
-3.323449
 20
6.080649
 30
0.0
 11
-2.906178
 21
5.760158
 31
0.0
  0
LINE
  5
195
100
AcDbEntity
  8
Layer_1
 62
7
100
AcDbLine
 10
-2.906178
 20
5.760158
 30
0.0
 11
-2.650744
 21
5.452691
 31
0.0
  0
LINE
  5
196
100
AcDbEntity
  8
Layer_1
 62
7
100
AcDbLine
 10
-2.650744
 20
5.452691
 30
0.0
 11
-2.612105
 21
5.372808
 31
0.0
  0
LINE
  5
197
100
AcDbEntity
  8
Layer_1
 62
7
100
AcDbLine
 10
-2.612105
 20
5.372808
 30
0.0
 11
-2.137960
 21
5.577334
 31
0.0
  0
LINE
  5
198
100
AcDbEntity
  8
Layer_1
 62
7
100
AcDbLine
 10
-2.137960
 20
5.577334
 30
0.0
 11
-2.169549
 21
5.660257
 31
0.0
  0
LINE
  5
199
100
AcDbEntity
  8
Layer_1
 62
7
100
AcDbLine
 10
-2.169549
 20
5.660257
 30
0.0
 11
-2.217903
 21
6.057050
 31
0.0
  0
LINE
  5
19a
100
AcDbEntity
  8
Layer_1
 62
7
100
AcDbLine
 10
-2.217903
 20
6.057050
 30
0.0
 11
-2.164673
 21
6.580499
 31
0.0
  0
LINE
  5
19b
100
AcDbEntity
  8
Layer_1
 62
7
100
AcDbLine
 10
-2.164673
 20
6.580499
 30
0.0
 11
-1.831930
 21
6.680115
 31
0.0
  0
LINE
  5
19c
100
AcDbEntity
  8
Layer_1
 62
7
100
AcDbLine
 10
-1.831930
 20
6.680115
 30
0.0
 11
-1.499816
 21
6.272030
 31
0.0
  0
LINE
  5
19d
100
AcDbEntity
  8
Layer_1
 62
7
100
AcDbLine
 10
-1.499816
 20
6.272030
 30
0.0
 11
-1.322174
 21
5.913946
 31
0.0
  0
LINE
  5
19e
100
AcDbEntity
  8
Layer_1
 62
7
100
AcDbLine
 10
-1.322174
 20
5.913946
 30
0.0
 11
-1.303000
 21
5.827304
 31
0.0
  0
LINE
  5
19f
100
AcDbEntity
  8
Layer_1
 62
7
100
AcDbLine
 10
-1.303000
 20
5.827304
 30
0.0
 11
-0.794470
 21
5.916972
 31
0.0
  0
LINE
  5
1a0
100
AcDbEntity
  8
Layer_1
 62
7
100
AcDbLine
 10
-0.794470
 20
5.916972
 30
0.0
 11
-0.806083
 21
6.004946
 31
0.0
  0
LINE
  5
1a1
100
AcDbEntity
  8
Layer_1
 62
7
100
AcDbLine
 10
-0.806083
 20
6.004946
 30
0.0
 11
-0.761627
 21
6.402194
 31
0.0
  0
LINE
  5
1a2
100
AcDbEntity
  8
Layer_1
 62
7
100
AcDbLine
 10
-0.761627
 20
6.402194
 30
0.0
 11
-0.589116
 21
6.899258
 31
0.0
  0
LINE
  5
1a3
100
AcDbEntity
  8
Layer_1
 62
7
100
AcDbLine
 10
-0.589116
 20
6.899258
 30
0.0
 11
-0.242370
 21
6.919453
 31
0.0
  0
LINE
  5
1a4
100
AcDbEntity
  8
Layer_1
 62
7
100
AcDbLine
 10
-0.242370
 20
6.919453
 30
0.0
 11
-0.013318
 21
6.445777
 31
0.0
  0
LINE
  5
1a5
100
AcDbEntity
  8
Layer_1
 62
7
100
AcDbLine
 10
-0.013318
 20
6.445777
 30
0.0
 11
0.076956
 21
6.056378
 31
0.0
  0
LINE
  5
1a6
100
AcDbEntity
  8
Layer_1
 62
7
100
AcDbLine
 10
0.076956
 20
6.056378
 30
0.0
 11
0.075633
 21
5.967650
 31
0.0
  0
LINE
  5
1a7
100
AcDbEntity
  8
Layer_1
 62
7
100
AcDbLine
 10
0.075633
 20
5.967650
 30
0.0
 11
0.591134
 21
5.937625
 31
0.0
  0
LINE
  5
1a8
100
AcDbEntity
  8
Layer_1
 62
7
100
AcDbLine
 10
0.591134
 20
5.937625
 30
0.0
 11
0.600120
 21
6.025907
 31
0.0
  0
LINE
  5
1a9
100
AcDbEntity
  8
Layer_1
 62
7
100
AcDbLine
 10
0.600120
 20
6.025907
 30
0.0
 11
0.734991
 21
6.402194
 31
0.0
  0
LINE
  5
1aa
100
AcDbEntity
  8
Layer_1
 62
7
100
AcDbLine
 10
0.734991
 20
6.402194
 30
0.0
 11
1.017484
 21
6.846076
 31
0.0
  0
LINE
  5
1ab
100
AcDbEntity
  8
Layer_1
 62
7
100
AcDbLine
 10
1.017484
 20
6.846076
 30
0.0
 11
1.359541
 21
6.785759
 31
0.0
  0
LINE
  5
1ac
100
AcDbEntity
  8
Layer_1
 62
7
100
AcDbLine
 10
1.359541
 20
6.785759
 30
0.0
 11
1.473180
 21
6.272030
 31
0.0
  0
LINE
  5
1ad
100
AcDbEntity
  8
Layer_1
 62
7
100
AcDbLine
 10
1.473180
 20
6.272030
 30
0.0
 11
1.471219
 21
5.872307
 31
0.0
  0
LINE
  5
1ae
100
AcDbEntity
  8
Layer_1
 62
7
100
AcDbLine
 10
1.471219
 20
5.872307
 30
0.0
 11
1.449468
 21
5.786278
 31
0.0
  0
LINE
  5
1af
100
AcDbEntity
  8
Layer_1
 62
7
100
AcDbLine
 10
1.449468
 20
5.786278
 30
0.0
 11
1.944150
 21
5.638179
 31
0.0
  0
LINE
  5
1b0
100
AcDbEntity
  8
Layer_1
 62
7
100
AcDbLine
 10
1.944150
 20
5.638179
 30
0.0
 11
1.973255
 21
5.722007
 31
0.0
  0
LINE
  5
1b1
100
AcDbEntity
  8
Layer_1
 62
7
100
AcDbLine
 10
1.973255
 20
5.722007
 30
0.0
 11
2.191266
 21
6.057050
 31
0.0
  0
LINE
  5
1b2
100
AcDbEntity
  8
Layer_1
 62
7
100
AcDbLine
 10
2.191266
 20
6.057050
 30
0.0
 11
2.568510
 21
6.423818
 31
0.0
  0
LINE
  5
1b3
100
AcDbEntity
  8
Layer_1
 62
7
100
AcDbLine
 10
2.568510
 20
6.423818
 30
0.0
 11
2.887438
 21
6.286245
 31
0.0
  0
LINE
  5
1b4
100
AcDbEntity
  8
Layer_1
 62
7
100
AcDbLine
 10
2.887438
 20
6.286245
 30
0.0
 11
2.879542
 21
5.760158
 31
0.0
  0
LINE
  5
1b5
100
AcDbEntity
  8
Layer_1
 62
7
100
AcDbLine
 10
2.879542
 20
5.760158
 30
0.0
 11
2.785449
 21
5.371662
 31
0.0
  0
LINE
  5
1b6
100
AcDbEntity
  8
Layer_1
 62
7
100
AcDbLine
 10
2.785449
 20
5.371662
 30
0.0
 11
2.744447
 21
5.292967
 31
0.0
  0
LINE
  5
1b7
100
AcDbEntity
  8
Layer_1
 62
7
100
AcDbLine
 10
2.744447
 20
5.292967
 30
0.0
 11
3.191640
 21
5.034779
 31
0.0
  0
LINE
  5
1b8
100
AcDbEntity
  8
Layer_1
 62
7
100
AcDbLine
 10
3.191640
 20
5.034779
 30
0.0
 11
3.239293
 21
5.109636
 31
0.0
  0
LINE
  5
1b9
100
AcDbEntity
  8
Layer_1
 62
7
100
AcDbLine
 10
3.239293
 20
5.109636
 30
0.0
 11
3.528692
 21
5.385370
 31
0.0
  0
LINE
  5
1ba
100
AcDbEntity
  8
Layer_1
 62
7
100
AcDbLine
 10
3.528692
 20
5.385370
 30
0.0
 11
3.980352
 21
5.655253
 31
0.0
  0
LINE
  5
1bb
100
AcDbEntity
  8
Layer_1
 62
7
100
AcDbLine
 10
3.980352
 20
5.655253
 30
0.0
 11
4.258956
 21
5.447839
 31
0.0
  0
LINE
  5
1bc
100
AcDbEntity
  8
Layer_1
 62
7
100
AcDbLine
 10
4.258956
 20
5.447839
 30
0.0
 11
4.129947
 21
4.937754
 31
0.0
  0
LINE
  5
1bd
100
AcDbEntity
  8
Layer_1
 62
7
100
AcDbLine
 10
4.129947
 20
4.937754
 30
0.0
 11
3.948797
 21
4.581429
 31
0.0
  0
LINE
  5
1be
100
AcDbEntity
  8
Layer_1
 62
7
100
AcDbLine
 10
3.948797
 20
4.581429
 30
0.0
 11
3.890752
 21
4.514310
 31
0.0
  0
LINE
  5
1bf
100
AcDbEntity
  8
Layer_1
 62
7
100
AcDbLine
 10
3.890752
 20
4.514310
 30
0.0
 11
4.266351
 21
4.159952
 31
0.0
  0
LINE
  5
1c0
100
AcDbEntity
  8
Layer_1
 62
7
100
AcDbLine
 10
4.266351
 20
4.159952
 30
0.0
 11
4.329980
 21
4.221801
 31
0.0
  0
LINE
  5
1c1
100
AcDbEntity
  8
Layer_1
 62
7
100
AcDbLine
 10
4.329980
 20
4.221801
 30
0.0
 11
4.675169
 21
4.423362
 31
0.0
  0
LINE
  5
1c2
100
AcDbEntity
  8
Layer_1
 62
7
100
AcDbLine
 10
4.675169
 20
4.423362
 30
0.0
 11
5.176893
 21
4.581812
 31
0.0
  0
LINE
  5
1c3
100
AcDbEntity
  8
Layer_1
 62
7
100
AcDbLine
 10
5.176893
 20
4.581812
 30
0.0
 11
5.400153
 21
4.315739
 31
0.0
  0
LINE
  5
1c4
100
AcDbEntity
  8
Layer_1
 62
7
100
AcDbLine
 10
5.400153
 20
4.315739
 30
0.0
 11
5.156987
 21
3.849152
 31
0.0
  0
LINE
  5
1c5
100
AcDbEntity
  8
Layer_1
 62
7
100
AcDbLine
 10
5.156987
 20
3.849152
 30
0.0
 11
4.898548
 21
3.544208
 31
0.0
  0
LINE
  5
1c6
100
AcDbEntity
  8
Layer_1
 62
7
100
AcDbLine
 10
4.898548
 20
3.544208
 30
0.0
 11
4.826587
 21
3.492285
 31
0.0
  0
LINE
  5
1c7
100
AcDbEntity
  8
Layer_1
 62
7
100
AcDbLine
 10
4.826587
 20
3.492285
 30
0.0
 11
5.110342
 21
3.060860
 31
0.0
  0
LINE
  5
1c8
100
AcDbEntity
  8
Layer_1
 62
7
100
AcDbLine
 10
5.110342
 20
3.060860
 30
0.0
 11
5.186519
 21
3.106369
 31
0.0
  0
LINE
  5
1c9
100
AcDbEntity
  8
Layer_1
 62
7
100
AcDbLine
 10
5.186519
 20
3.106369
 30
0.0
 11
5.568888
 21
3.222890
 31
0.0
  0
LINE
  5
1ca
100
AcDbEntity
  8
Layer_1
 62
7
100
AcDbLine
 10
5.568888
 20
3.222890
 30
0.0
 11
6.093627
 21
3.261362
 31
0.0
  0
LINE
  5
1cb
100
AcDbEntity
  8
Layer_1
 62
7
100
AcDbLine
 10
6.093627
 20
3.261362
 30
0.0
 11
6.249509
 21
2.950974
 31
0.0
  0
LINE
  5
1cc
100
AcDbEntity
  8
Layer_1
 62
7
100
AcDbLine
 10
6.249509
 20
2.950974
 30
0.0
 11
5.905297
 21
2.553044
 31
0.0
  0
LINE
  5
1cd
100
AcDbEntity
  8
Layer_1
 62
7
100
AcDbLine
 10
5.905297
 20
2.553044
 30
0.0
 11
5.583499
 21
2.315921
 31
0.0
  0
LINE
  5
1ce
100
AcDbEntity
  8
Layer_1
 62
7
100
AcDbLine
 10
5.583499
 20
2.315921
 30
0.0
 11
5.501505
 21
2.281992
 31
0.0
  0
LINE
  5
1cf
100
AcDbEntity
  8
Layer_1
 62
7
100
AcDbLine
 10
5.501505
 20
2.281992
 30
0.0
 11
5.678114
 21
1.796756
 31
0.0
  0
LINE
  5
1d0
100
AcDbEntity
  8
Layer_1
 62
7
100
AcDbLine
 10
5.678114
 20
1.796756
 30
0.0
 11
5.762735
 21
1.823471
 31
0.0
  0
LINE
  5
1d1
100
AcDbEntity
  8
Layer_1
 62
7
100
AcDbLine
 10
5.762735
 20
1.823471
 30
0.0
 11
6.161667
 21
1.848671
 31
0.0
  0
LINE
  5
1d2
100
AcDbEntity
  8
Layer_1
 62
7
100
AcDbLine
 10
6.161667
 20
1.848671
 30
0.0
 11
6.681134
 21
1.765093
 31
0.0
  0
LINE
  5
1d3
100
AcDbEntity
  8
Layer_1
 62
7
100
AcDbLine
 10
6.681134
 20
1.765093
 30
0.0
 11
6.761234
 21
1.427124
 31
0.0
  0
LINE
  5
1d4
100
AcDbEntity
  8
Layer_1
 62
7
100
AcDbLine
 10
6.761234
 20
1.427124
 30
0.0
 11
6.334531
 21
1.119298
 31
0.0
  0
LINE
  5
1d5
100
AcDbEntity
  8
Layer_1
 62
7
100
AcDbLine
 10
6.334531
 20
1.119298
 30
0.0
 11
5.966722
 21
0.962778
 31
0.0
  0
LINE
  5
1d6
100
AcDbEntity
  8
Layer_1
 62
7
100
AcDbLine
 10
5.966722
 20
0.962778
 30
0.0
 11
5.879112
 21
0.948675
 31
0.0
  0
LINE
  5
1d7
100
AcDbEntity
  8
Layer_1
 62
7
100
AcDbLine
 10
5.879112
 20
0.948675
 30
0.0
 11
5.939062
 21
0.435790
 31
0.0
  0
ENDSEC
  0
SECTION
  2
OBJECTS
  0
DICTIONARY
  5
C
330
0
100
AcDbDictionary
  3
ACAD_GROUP
350
D
  3
ACAD_MLINESTYLE
350
17
  0
DICTIONARY
  5
D
330
C
100
AcDbDictionary
  0
DICTIONARY
  5
1A
330
C
100
AcDbDictionary
  0
DICTIONARY
  5
17
330
C
100
AcDbDictionary
  3
STANDARD
350
18
  0
DICTIONARY
  5
19
330
C
100
AcDbDictionary
  0
ENDSEC
  0
EOF
