  0
SECTION
  2
HEADER
  9
$ACADVER
  1
AC1014
  9
$HANDSEED
  5
FFFF
  9
$MEASUREMENT
 70
     1
  0
ENDSEC
  0
SECTION
  2
TABLES
  0
TABLE
  2
VPORT
  5
8
330
0
100
AcDbSymbolTable
 70
     4
  0
VPORT
  5
2E
330
8
100
AcDbSymbolTableRecord
100
AcDbViewportTableRecord
  2
*ACTIVE
 70
     0
 10
0.0
 20
0.0
 11
1.0
 21
1.0
 12
210.0
 22
148.5
 13
0.0
 23
0.0
 14
10.0
 24
10.0
 15
10.0
 25
10.0
 16
0.0
 26
0.0
 36
1.0
 17
0.0
 27
0.0
 37
0.0
 40
341.0
 41
1.24
 42
50.0
 43
0.0
 44
0.0
 50
0.0
 51
0.0
 71
     0
 72
   100
 73
     1
 74
     3
 75
     0
 76
     0
 77
     0
 78
     0
  0
ENDTAB
  0
TABLE
  2
LTYPE
  5
5
330
0
100
AcDbSymbolTable
 70
     1
  0
LTYPE
  5
14
330
5
100
AcDbSymbolTableRecord
100
AcDbLinetypeTableRecord
  2
BYBLOCK
 70
     0
  3

 72
    65
 73
     0
 40
0.0
  0
LTYPE
  5
15
330
5
100
AcDbSymbolTableRecord
100
AcDbLinetypeTableRecord
  2
BYLAYER
 70
     0
  3

 72
    65
 73
     0
 40
0.0
  0
LTYPE
  5
16
330
5
100
AcDbSymbolTableRecord
100
AcDbLinetypeTableRecord
  2
CONTINUOUS
 70
     0
  3
Solid line
 72
    65
 73
     0
 40
0.0
  0
ENDTAB
  0
TABLE
  2
LAYER
  5
2
100
AcDbSymbolTable
 70
2
  0
LAYER
  5
50
100
AcDbSymbolTableRecord
100
AcDbLayerTableRecord
  2
0
 70
0
  6
CONTINUOUS
  0
LAYER
  5
51
100
AcDbSymbolTableRecord
100
AcDbLayerTableRecord
  2
Layer_1
 70
0
  6
CONTINUOUS
  0
ENDTAB
  0
TABLE
  2
STYLE
  5
3
330
0
100
AcDbSymbolTable
 70
     1
  0
STYLE
  5
11
330
3
100
AcDbSymbolTableRecord
100
AcDbTextStyleTableRecord
  2
STANDARD
 70
     0
 40
0.0
 41
1.0
 50
0.0
 71
     0
 42
2.5
  3
txt
  4

  0
ENDTAB
  0
TABLE
  2
VIEW
  5
6
330
0
100
AcDbSymbolTable
 70
     0
  0
ENDTAB
  0
TABLE
  2
UCS
  5
7
330
0
100
AcDbSymbolTable
 70
     0
  0
ENDTAB
  0
TABLE
  2
APPID
  5
9
330
0
100
AcDbSymbolTable
 70
     2
  0
APPID
  5
12
330
9
100
AcDbSymbolTableRecord
100
AcDbRegAppTableRecord
  2
ACAD
 70
     0
  0
ENDTAB
  0
TABLE
  2
DIMSTYLE
  5
A
330
0
100
AcDbSymbolTable
 70
     1
  0
DIMSTYLE
105
27
330
A
100
AcDbSymbolTableRecord
100
AcDbDimStyleTableRecord
  2
ISO-25
 70
     0
  3

  4

  5

  6

  7

 40
1.0
 41
2.5
 42
0.625
 43
3.75
 44
1.25
 45
0.0
 46
0.0
 47
0.0
 48
0.0
140
2.5
141
2.5
142
0.0
143
0.03937007874016
144
1.0
145
0.0
146
1.0
147
0.625
 71
     0
 72
     0
 73
     0
 74
     0
 75
     0
 76
     0
 77
     1
 78
     8
170
     0
171
     3
172
     1
173
     0
174
     0
175
     0
176
     0
177
     0
178
     0
270
     2
271
     2
272
     2
273
     2
274
     3
340
11
275
     0
280
     0
281
     0
282
     0
283
     0
284
     8
285
     0
286
     0
287
     3
288
     0
  0
ENDTAB
  0
TABLE
  2
BLOCK_RECORD
  5
1
330
0
100
AcDbSymbolTable
 70
     1
  0
BLOCK_RECORD
  5
1F
330
1
100
AcDbSymbolTableRecord
100
AcDbBlockTableRecord
  2
*MODEL_SPACE
  0
BLOCK_RECORD
  5
1B
330
1
100
AcDbSymbolTableRecord
100
AcDbBlockTableRecord
  2
*PAPER_SPACE
  0
ENDTAB
  0
ENDSEC
  0
SECTION
  2
BLOCKS
  0
BLOCK
  5
20
330
1F
100
AcDbEntity
  8
0
100
AcDbBlockBegin
  2
*MODEL_SPACE
 70
     0
 10
0.0
 20
0.0
 30
0.0
  3
*MODEL_SPACE
  1

  0
ENDBLK
  5
21
330
1F
100
AcDbEntity
  8
0
100
AcDbBlockEnd
  0
BLOCK
  5
1C
330
1B
100
AcDbEntity
 67
     1
  8
0
100
AcDbBlockBegin
  2
*PAPER_SPACE
  1

  0
ENDBLK
  5
1D
330
1B
100
AcDbEntity
 67
     1
  8
0
100
AcDbBlockEnd
  0
ENDSEC
  0
SECTION
  2
ENTITIES
  0
LINE
  5
100
100
AcDbEntity
  8
Layer_1
 62
7
100
AcDbLine
 10
-49.360644
 20
-16.999993
 30
0.0
 11
-37.020483
 21
-16.999993
 31
0.0
  0
LINE
  5
101
100
AcDbEntity
  8
Layer_1
 62
7
100
AcDbLine
 10
-37.020483
 20
-16.999993
 30
0.0
 11
-24.680322
 21
-16.999993
 31
0.0
  0
LINE
  5
102
100
AcDbEntity
  8
Layer_1
 62
7
100
AcDbLine
 10
-24.680322
 20
-16.999993
 30
0.0
 11
-12.340161
 21
-16.999993
 31
0.0
  0
LINE
  5
103
100
AcDbEntity
  8
Layer_1
 62
7
100
AcDbLine
 10
-12.340161
 20
-16.999993
 30
0.0
 11
0.000000
 21
-16.999993
 31
0.0
  0
LINE
  5
104
100
AcDbEntity
  8
Layer_1
 62
7
100
AcDbLine
 10
0.000000
 20
-16.999993
 30
0.0
 11
12.340161
 21
-16.999993
 31
0.0
  0
LINE
  5
105
100
AcDbEntity
  8
Layer_1
 62
7
100
AcDbLine
 10
12.340161
 20
-16.999993
 30
0.0
 11
24.680322
 21
-16.999993
 31
0.0
  0
LINE
  5
106
100
AcDbEntity
  8
Layer_1
 62
7
100
AcDbLine
 10
24.680322
 20
-16.999993
 30
0.0
 11
37.020483
 21
-16.999993
 31
0.0
  0
LINE
  5
107
100
AcDbEntity
  8
Layer_1
 62
7
100
AcDbLine
 10
37.020483
 20
-16.999993
 30
0.0
 11
49.360644
 21
-16.999993
 31
0.0
  0
LINE
  5
108
100
AcDbEntity
  8
Layer_1
 62
7
100
AcDbLine
 10
49.360644
 20
-16.999993
 30
0.0
 11
49.893866
 21
-16.946568
 31
0.0
  0
LINE
  5
109
100
AcDbEntity
  8
Layer_1
 62
7
100
AcDbLine
 10
49.893866
 20
-16.946568
 30
0.0
 11
50.389911
 21
-16.793209
 31
0.0
  0
LINE
  5
10a
100
AcDbEntity
  8
Layer_1
 62
7
100
AcDbLine
 10
50.389911
 20
-16.793209
 30
0.0
 11
50.838323
 21
-16.550413
 31
0.0
  0
LINE
  5
10b
100
AcDbEntity
  8
Layer_1
 62
7
100
AcDbLine
 10
50.838323
 20
-16.550413
 30
0.0
 11
51.228650
 21
-16.228651
 31
0.0
  0
LINE
  5
10c
100
AcDbEntity
  8
Layer_1
 62
7
100
AcDbLine
 10
51.228650
 20
-16.228651
 30
0.0
 11
51.550435
 21
-15.838310
 31
0.0
  0
LINE
  5
10d
100
AcDbEntity
  8
Layer_1
 62
7
100
AcDbLine
 10
51.550435
 20
-15.838310
 30
0.0
 11
51.793225
 21
-15.389887
 31
0.0
  0
LINE
  5
10e
100
AcDbEntity
  8
Layer_1
 62
7
100
AcDbLine
 10
51.793225
 20
-15.389887
 30
0.0
 11
51.946564
 21
-14.893853
 31
0.0
  0
LINE
  5
10f
100
AcDbEntity
  8
Layer_1
 62
7
100
AcDbLine
 10
51.946564
 20
-14.893853
 30
0.0
 11
52.000000
 21
-14.360622
 31
0.0
  0
LINE
  5
110
100
AcDbEntity
  8
Layer_1
 62
7
100
AcDbLine
 10
52.000000
 20
-14.360622
 30
0.0
 11
52.000000
 21
-11.581044
 31
0.0
  0
LINE
  5
111
100
AcDbEntity
  8
Layer_1
 62
7
100
AcDbLine
 10
52.000000
 20
-11.581044
 30
0.0
 11
52.000000
 21
-8.801494
 31
0.0
  0
LINE
  5
112
100
AcDbEntity
  8
Layer_1
 62
7
100
AcDbLine
 10
52.000000
 20
-8.801494
 30
0.0
 11
52.000000
 21
-6.021915
 31
0.0
  0
LINE
  5
113
100
AcDbEntity
  8
Layer_1
 62
7
100
AcDbLine
 10
52.000000
 20
-6.021915
 30
0.0
 11
52.000000
 21
-3.242337
 31
0.0
  0
LINE
  5
114
100
AcDbEntity
  8
Layer_1
 62
7
100
AcDbLine
 10
52.000000
 20
-3.242337
 30
0.0
 11
52.000000
 21
-0.462758
 31
0.0
  0
LINE
  5
115
100
AcDbEntity
  8
Layer_1
 62
7
100
AcDbLine
 10
52.000000
 20
-0.462758
 30
0.0
 11
52.000000
 21
2.316792
 31
0.0
  0
LINE
  5
116
100
AcDbEntity
  8
Layer_1
 62
7
100
AcDbLine
 10
52.000000
 20
2.316792
 30
0.0
 11
52.000000
 21
5.096370
 31
0.0
  0
LINE
  5
117
100
AcDbEntity
  8
Layer_1
 62
7
100
AcDbLine
 10
52.000000
 20
5.096370
 30
0.0
 11
52.000000
 21
7.875949
 31
0.0
  0
LINE
  5
118
100
AcDbEntity
  8
Layer_1
 62
7
100
AcDbLine
 10
52.000000
 20
7.875949
 30
0.0
 11
51.946564
 21
8.409179
 31
0.0
  0
LINE
  5
119
100
AcDbEntity
  8
Layer_1
 62
7
100
AcDbLine
 10
51.946564
 20
8.409179
 30
0.0
 11
51.793225
 21
8.905213
 31
0.0
  0
LINE
  5
11a
100
AcDbEntity
  8
Layer_1
 62
7
100
AcDbLine
 10
51.793225
 20
8.905213
 30
0.0
 11
51.550435
 21
9.353608
 31
0.0
  0
LINE
  5
11b
100
AcDbEntity
  8
Layer_1
 62
7
100
AcDbLine
 10
51.550435
 20
9.353608
 30
0.0
 11
51.228650
 21
9.743949
 31
0.0
  0
LINE
  5
11c
100
AcDbEntity
  8
Layer_1
 62
7
100
AcDbLine
 10
51.228650
 20
9.743949
 30
0.0
 11
50.838323
 21
10.065739
 31
0.0
  0
LINE
  5
11d
100
AcDbEntity
  8
Layer_1
 62
7
100
AcDbLine
 10
50.838323
 20
10.065739
 30
0.0
 11
50.389911
 21
10.308507
 31
0.0
  0
LINE
  5
11e
100
AcDbEntity
  8
Layer_1
 62
7
100
AcDbLine
 10
50.389911
 20
10.308507
 30
0.0
 11
49.893866
 21
10.461866
 31
0.0
  0
LINE
  5
11f
100
AcDbEntity
  8
Layer_1
 62
7
100
AcDbLine
 10
49.893866
 20
10.461866
 30
0.0
 11
49.360644
 21
10.515291
 31
0.0
  0
LINE
  5
120
100
AcDbEntity
  8
Layer_1
 62
7
100
AcDbLine
 10
49.360644
 20
10.515291
 30
0.0
 11
37.020483
 21
10.515291
 31
0.0
  0
LINE
  5
121
100
AcDbEntity
  8
Layer_1
 62
7
100
AcDbLine
 10
37.020483
 20
10.515291
 30
0.0
 11
24.680322
 21
10.515291
 31
0.0
  0
LINE
  5
122
100
AcDbEntity
  8
Layer_1
 62
7
100
AcDbLine
 10
24.680322
 20
10.515291
 30
0.0
 11
12.340161
 21
10.515291
 31
0.0
  0
LINE
  5
123
100
AcDbEntity
  8
Layer_1
 62
7
100
AcDbLine
 10
12.340161
 20
10.515291
 30
0.0
 11
-0.000000
 21
10.515291
 31
0.0
  0
LINE
  5
124
100
AcDbEntity
  8
Layer_1
 62
7
100
AcDbLine
 10
-0.000000
 20
10.515291
 30
0.0
 11
-12.340161
 21
10.515291
 31
0.0
  0
LINE
  5
125
100
AcDbEntity
  8
Layer_1
 62
7
100
AcDbLine
 10
-12.340161
 20
10.515291
 30
0.0
 11
-24.680322
 21
10.515291
 31
0.0
  0
LINE
  5
126
100
AcDbEntity
  8
Layer_1
 62
7
100
AcDbLine
 10
-24.680322
 20
10.515291
 30
0.0
 11
-37.020483
 21
10.515291
 31
0.0
  0
LINE
  5
127
100
AcDbEntity
  8
Layer_1
 62
7
100
AcDbLine
 10
-37.020483
 20
10.515291
 30
0.0
 11
-49.360644
 21
10.515291
 31
0.0
  0
LINE
  5
128
100
AcDbEntity
  8
Layer_1
 62
7
100
AcDbLine
 10
-49.360644
 20
10.515291
 30
0.0
 11
-49.893866
 21
10.461866
 31
0.0
  0
LINE
  5
129
100
AcDbEntity
  8
Layer_1
 62
7
100
AcDbLine
 10
-49.893866
 20
10.461866
 30
0.0
 11
-50.389911
 21
10.308507
 31
0.0
  0
LINE
  5
12a
100
AcDbEntity
  8
Layer_1
 62
7
100
AcDbLine
 10
-50.389911
 20
10.308507
 30
0.0
 11
-50.838323
 21
10.065739
 31
0.0
  0
LINE
  5
12b
100
AcDbEntity
  8
Layer_1
 62
7
100
AcDbLine
 10
-50.838323
 20
10.065739
 30
0.0
 11
-51.228650
 21
9.743949
 31
0.0
  0
LINE
  5
12c
100
AcDbEntity
  8
Layer_1
 62
7
100
AcDbLine
 10
-51.228650
 20
9.743949
 30
0.0
 11
-51.550435
 21
9.353608
 31
0.0
  0
LINE
  5
12d
100
AcDbEntity
  8
Layer_1
 62
7
100
AcDbLine
 10
-51.550435
 20
9.353608
 30
0.0
 11
-51.793225
 21
8.905213
 31
0.0
  0
LINE
  5
12e
100
AcDbEntity
  8
Layer_1
 62
7
100
AcDbLine
 10
-51.793225
 20
8.905213
 30
0.0
 11
-51.946564
 21
8.409179
 31
0.0
  0
LINE
  5
12f
100
AcDbEntity
  8
Layer_1
 62
7
100
AcDbLine
 10
-51.946564
 20
8.409179
 30
0.0
 11
-52.000000
 21
7.875949
 31
0.0
  0
LINE
  5
130
100
AcDbEntity
  8
Layer_1
 62
7
100
AcDbLine
 10
-52.000000
 20
7.875949
 30
0.0
 11
-52.000000
 21
5.096370
 31
0.0
  0
LINE
  5
131
100
AcDbEntity
  8
Layer_1
 62
7
100
AcDbLine
 10
-52.000000
 20
5.096370
 30
0.0
 11
-52.000000
 21
2.316792
 31
0.0
  0
LINE
  5
132
100
AcDbEntity
  8
Layer_1
 62
7
100
AcDbLine
 10
-52.000000
 20
2.316792
 30
0.0
 11
-52.000000
 21
-0.462758
 31
0.0
  0
LINE
  5
133
100
AcDbEntity
  8
Layer_1
 62
7
100
AcDbLine
 10
-52.000000
 20
-0.462758
 30
0.0
 11
-52.000000
 21
-3.242337
 31
0.0
  0
LINE
  5
134
100
AcDbEntity
  8
Layer_1
 62
7
100
AcDbLine
 10
-52.000000
 20
-3.242337
 30
0.0
 11
-52.000000
 21
-6.021915
 31
0.0
  0
LINE
  5
135
100
AcDbEntity
  8
Layer_1
 62
7
100
AcDbLine
 10
-52.000000
 20
-6.021915
 30
0.0
 11
-52.000000
 21
-8.801494
 31
0.0
  0
LINE
  5
136
100
AcDbEntity
  8
Layer_1
 62
7
100
AcDbLine
 10
-52.000000
 20
-8.801494
 30
0.0
 11
-52.000000
 21
-11.581044
 31
0.0
  0
LINE
  5
137
100
AcDbEntity
  8
Layer_1
 62
7
100
AcDbLine
 10
-52.000000
 20
-11.581044
 30
0.0
 11
-52.000000
 21
-14.360622
 31
0.0
  0
LINE
  5
138
100
AcDbEntity
  8
Layer_1
 62
7
100
AcDbLine
 10
-52.000000
 20
-14.360622
 30
0.0
 11
-51.946564
 21
-14.893853
 31
0.0
  0
LINE
  5
139
100
AcDbEntity
  8
Layer_1
 62
7
100
AcDbLine
 10
-51.946564
 20
-14.893853
 30
0.0
 11
-51.793225
 21
-15.389887
 31
0.0
  0
LINE
  5
13a
100
AcDbEntity
  8
Layer_1
 62
7
100
AcDbLine
 10
-51.793225
 20
-15.389887
 30
0.0
 11
-51.550435
 21
-15.838310
 31
0.0
  0
LINE
  5
13b
100
AcDbEntity
  8
Layer_1
 62
7
100
AcDbLine
 10
-51.550435
 20
-15.838310
 30
0.0
 11
-51.228650
 21
-16.228651
 31
0.0
  0
LINE
  5
13c
100
AcDbEntity
  8
Layer_1
 62
7
100
AcDbLine
 10
-51.228650
 20
-16.228651
 30
0.0
 11
-50.838323
 21
-16.550413
 31
0.0
  0
LINE
  5
13d
100
AcDbEntity
  8
Layer_1
 62
7
100
AcDbLine
 10
-50.838323
 20
-16.550413
 30
0.0
 11
-50.389911
 21
-16.793209
 31
0.0
  0
LINE
  5
13e
100
AcDbEntity
  8
Layer_1
 62
7
100
AcDbLine
 10
-50.389911
 20
-16.793209
 30
0.0
 11
-49.893866
 21
-16.946568
 31
0.0
  0
LINE
  5
13f
100
AcDbEntity
  8
Layer_1
 62
7
100
AcDbLine
 10
-49.893866
 20
-16.946568
 30
0.0
 11
-49.360644
 21
-16.999993
 31
0.0
  0
LINE
  5
140
100
AcDbEntity
  8
Layer_1
 62
7
100
AcDbLine
 10
-46.499994
 20
-13.000001
 30
0.0
 11
-46.530472
 21
-13.302289
 31
0.0
  0
LINE
  5
141
100
AcDbEntity
  8
Layer_1
 62
7
100
AcDbLine
 10
-46.530472
 20
-13.302289
 30
0.0
 11
-46.617876
 21
-13.583862
 31
0.0
  0
LINE
  5
142
100
AcDbEntity
  8
Layer_1
 62
7
100
AcDbLine
 10
-46.617876
 20
-13.583862
 30
0.0
 11
-46.756176
 21
-13.838652
 31
0.0
  0
LINE
  5
143
100
AcDbEntity
  8
Layer_1
 62
7
100
AcDbLine
 10
-46.756176
 20
-13.838652
 30
0.0
 11
-46.939341
 21
-14.060648
 31
0.0
  0
LINE
  5
144
100
AcDbEntity
  8
Layer_1
 62
7
100
AcDbLine
 10
-46.939341
 20
-14.060648
 30
0.0
 11
-47.161334
 21
-14.243811
 31
0.0
  0
LINE
  5
145
100
AcDbEntity
  8
Layer_1
 62
7
100
AcDbLine
 10
-47.161334
 20
-14.243811
 30
0.0
 11
-47.416130
 21
-14.382100
 31
0.0
  0
LINE
  5
146
100
AcDbEntity
  8
Layer_1
 62
7
100
AcDbLine
 10
-47.416130
 20
-14.382100
 30
0.0
 11
-47.697695
 21
-14.469504
 31
0.0
  0
LINE
  5
147
100
AcDbEntity
  8
Layer_1
 62
7
100
AcDbLine
 10
-47.697695
 20
-14.469504
 30
0.0
 11
-47.999994
 21
-14.499984
 31
0.0
  0
LINE
  5
148
100
AcDbEntity
  8
Layer_1
 62
7
100
AcDbLine
 10
-47.999994
 20
-14.499984
 30
0.0
 11
-48.302294
 21
-14.469504
 31
0.0
  0
LINE
  5
149
100
AcDbEntity
  8
Layer_1
 62
7
100
AcDbLine
 10
-48.302294
 20
-14.469504
 30
0.0
 11
-48.583858
 21
-14.382100
 31
0.0
  0
LINE
  5
14a
100
AcDbEntity
  8
Layer_1
 62
7
100
AcDbLine
 10
-48.583858
 20
-14.382100
 30
0.0
 11
-48.838654
 21
-14.243811
 31
0.0
  0
LINE
  5
14b
100
AcDbEntity
  8
Layer_1
 62
7
100
AcDbLine
 10
-48.838654
 20
-14.243811
 30
0.0
 11
-49.060648
 21
-14.060648
 31
0.0
  0
LINE
  5
14c
100
AcDbEntity
  8
Layer_1
 62
7
100
AcDbLine
 10
-49.060648
 20
-14.060648
 30
0.0
 11
-49.243813
 21
-13.838652
 31
0.0
  0
LINE
  5
14d
100
AcDbEntity
  8
Layer_1
 62
7
100
AcDbLine
 10
-49.243813
 20
-13.838652
 30
0.0
 11
-49.382113
 21
-13.583862
 31
0.0
  0
LINE
  5
14e
100
AcDbEntity
  8
Layer_1
 62
7
100
AcDbLine
 10
-49.382113
 20
-13.583862
 30
0.0
 11
-49.469517
 21
-13.302289
 31
0.0
  0
LINE
  5
14f
100
AcDbEntity
  8
Layer_1
 62
7
100
AcDbLine
 10
-49.469517
 20
-13.302289
 30
0.0
 11
-49.499994
 21
-13.000001
 31
0.0
  0
LINE
  5
150
100
AcDbEntity
  8
Layer_1
 62
7
100
AcDbLine
 10
-49.499994
 20
-13.000001
 30
0.0
 11
-49.469523
 21
-12.697684
 31
0.0
  0
LINE
  5
151
100
AcDbEntity
  8
Layer_1
 62
7
100
AcDbLine
 10
-49.469523
 20
-12.697684
 30
0.0
 11
-49.382121
 21
-12.416140
 31
0.0
  0
LINE
  5
152
100
AcDbEntity
  8
Layer_1
 62
7
100
AcDbLine
 10
-49.382121
 20
-12.416140
 30
0.0
 11
-49.243824
 21
-12.161321
 31
0.0
  0
LINE
  5
153
100
AcDbEntity
  8
Layer_1
 62
7
100
AcDbLine
 10
-49.243824
 20
-12.161321
 30
0.0
 11
-49.060659
 21
-11.939325
 31
0.0
  0
LINE
  5
154
100
AcDbEntity
  8
Layer_1
 62
7
100
AcDbLine
 10
-49.060659
 20
-11.939325
 30
0.0
 11
-48.838663
 21
-11.756163
 31
0.0
  0
LINE
  5
155
100
AcDbEntity
  8
Layer_1
 62
7
100
AcDbLine
 10
-48.838663
 20
-11.756163
 30
0.0
 11
-48.583864
 21
-11.617874
 31
0.0
  0
LINE
  5
156
100
AcDbEntity
  8
Layer_1
 62
7
100
AcDbLine
 10
-48.583864
 20
-11.617874
 30
0.0
 11
-48.302299
 21
-11.530470
 31
0.0
  0
LINE
  5
157
100
AcDbEntity
  8
Layer_1
 62
7
100
AcDbLine
 10
-48.302299
 20
-11.530470
 30
0.0
 11
-47.999994
 21
-11.499990
 31
0.0
  0
LINE
  5
158
100
AcDbEntity
  8
Layer_1
 62
7
100
AcDbLine
 10
-47.999994
 20
-11.499990
 30
0.0
 11
-47.697689
 21
-11.530470
 31
0.0
  0
LINE
  5
159
100
AcDbEntity
  8
Layer_1
 62
7
100
AcDbLine
 10
-47.697689
 20
-11.530470
 30
0.0
 11
-47.416125
 21
-11.617874
 31
0.0
  0
LINE
  5
15a
100
AcDbEntity
  8
Layer_1
 62
7
100
AcDbLine
 10
-47.416125
 20
-11.617874
 30
0.0
 11
-47.161326
 21
-11.756163
 31
0.0
  0
LINE
  5
15b
100
AcDbEntity
  8
Layer_1
 62
7
100
AcDbLine
 10
-47.161326
 20
-11.756163
 30
0.0
 11
-46.939330
 21
-11.939325
 31
0.0
  0
LINE
  5
15c
100
AcDbEntity
  8
Layer_1
 62
7
100
AcDbLine
 10
-46.939330
 20
-11.939325
 30
0.0
 11
-46.756165
 21
-12.161321
 31
0.0
  0
LINE
  5
15d
100
AcDbEntity
  8
Layer_1
 62
7
100
AcDbLine
 10
-46.756165
 20
-12.161321
 30
0.0
 11
-46.617867
 21
-12.416140
 31
0.0
  0
LINE
  5
15e
100
AcDbEntity
  8
Layer_1
 62
7
100
AcDbLine
 10
-46.617867
 20
-12.416140
 30
0.0
 11
-46.530466
 21
-12.697684
 31
0.0
  0
LINE
  5
15f
100
AcDbEntity
  8
Layer_1
 62
7
100
AcDbLine
 10
-46.530466
 20
-12.697684
 30
0.0
 11
-46.499994
 21
-13.000001
 31
0.0
  0
LINE
  5
160
100
AcDbEntity
  8
Layer_1
 62
7
100
AcDbLine
 10
1.499997
 20
-13.000001
 30
0.0
 11
1.469519
 21
-13.302289
 31
0.0
  0
LINE
  5
161
100
AcDbEntity
  8
Layer_1
 62
7
100
AcDbLine
 10
1.469519
 20
-13.302289
 30
0.0
 11
1.382115
 21
-13.583862
 31
0.0
  0
LINE
  5
162
100
AcDbEntity
  8
Layer_1
 62
7
100
AcDbLine
 10
1.382115
 20
-13.583862
 30
0.0
 11
1.243815
 21
-13.838652
 31
0.0
  0
LINE
  5
163
100
AcDbEntity
  8
Layer_1
 62
7
100
AcDbLine
 10
1.243815
 20
-13.838652
 30
0.0
 11
1.060651
 21
-14.060648
 31
0.0
  0
LINE
  5
164
100
AcDbEntity
  8
Layer_1
 62
7
100
AcDbLine
 10
1.060651
 20
-14.060648
 30
0.0
 11
0.838656
 21
-14.243811
 31
0.0
  0
LINE
  5
165
100
AcDbEntity
  8
Layer_1
 62
7
100
AcDbLine
 10
0.838656
 20
-14.243811
 30
0.0
 11
0.583861
 21
-14.382100
 31
0.0
  0
LINE
  5
166
100
AcDbEntity
  8
Layer_1
 62
7
100
AcDbLine
 10
0.583861
 20
-14.382100
 30
0.0
 11
0.302297
 21
-14.469504
 31
0.0
  0
LINE
  5
167
100
AcDbEntity
  8
Layer_1
 62
7
100
AcDbLine
 10
0.302297
 20
-14.469504
 30
0.0
 11
-0.000003
 21
-14.499984
 31
0.0
  0
LINE
  5
168
100
AcDbEntity
  8
Layer_1
 62
7
100
AcDbLine
 10
-0.000003
 20
-14.499984
 30
0.0
 11
-0.302303
 21
-14.469504
 31
0.0
  0
LINE
  5
169
100
AcDbEntity
  8
Layer_1
 62
7
100
AcDbLine
 10
-0.302303
 20
-14.469504
 30
0.0
 11
-0.583867
 21
-14.382100
 31
0.0
  0
LINE
  5
16a
100
AcDbEntity
  8
Layer_1
 62
7
100
AcDbLine
 10
-0.583867
 20
-14.382100
 30
0.0
 11
-0.838662
 21
-14.243811
 31
0.0
  0
LINE
  5
16b
100
AcDbEntity
  8
Layer_1
 62
7
100
AcDbLine
 10
-0.838662
 20
-14.243811
 30
0.0
 11
-1.060657
 21
-14.060648
 31
0.0
  0
LINE
  5
16c
100
AcDbEntity
  8
Layer_1
 62
7
100
AcDbLine
 10
-1.060657
 20
-14.060648
 30
0.0
 11
-1.243821
 21
-13.838652
 31
0.0
  0
LINE
  5
16d
100
AcDbEntity
  8
Layer_1
 62
7
100
AcDbLine
 10
-1.243821
 20
-13.838652
 30
0.0
 11
-1.382121
 21
-13.583862
 31
0.0
  0
LINE
  5
16e
100
AcDbEntity
  8
Layer_1
 62
7
100
AcDbLine
 10
-1.382121
 20
-13.583862
 30
0.0
 11
-1.469525
 21
-13.302289
 31
0.0
  0
LINE
  5
16f
100
AcDbEntity
  8
Layer_1
 62
7
100
AcDbLine
 10
-1.469525
 20
-13.302289
 30
0.0
 11
-1.500003
 21
-13.000001
 31
0.0
  0
LINE
  5
170
100
AcDbEntity
  8
Layer_1
 62
7
100
AcDbLine
 10
-1.500003
 20
-13.000001
 30
0.0
 11
-1.469531
 21
-12.697684
 31
0.0
  0
LINE
  5
171
100
AcDbEntity
  8
Layer_1
 62
7
100
AcDbLine
 10
-1.469531
 20
-12.697684
 30
0.0
 11
-1.382130
 21
-12.416140
 31
0.0
  0
LINE
  5
172
100
AcDbEntity
  8
Layer_1
 62
7
100
AcDbLine
 10
-1.382130
 20
-12.416140
 30
0.0
 11
-1.243832
 21
-12.161321
 31
0.0
  0
LINE
  5
173
100
AcDbEntity
  8
Layer_1
 62
7
100
AcDbLine
 10
-1.243832
 20
-12.161321
 30
0.0
 11
-1.060668
 21
-11.939325
 31
0.0
  0
LINE
  5
174
100
AcDbEntity
  8
Layer_1
 62
7
100
AcDbLine
 10
-1.060668
 20
-11.939325
 30
0.0
 11
-0.838672
 21
-11.756163
 31
0.0
  0
LINE
  5
175
100
AcDbEntity
  8
Layer_1
 62
7
100
AcDbLine
 10
-0.838672
 20
-11.756163
 30
0.0
 11
-0.583874
 21
-11.617874
 31
0.0
  0
LINE
  5
176
100
AcDbEntity
  8
Layer_1
 62
7
100
AcDbLine
 10
-0.583874
 20
-11.617874
 30
0.0
 11
-0.302307
 21
-11.530470
 31
0.0
  0
LINE
  5
177
100
AcDbEntity
  8
Layer_1
 62
7
100
AcDbLine
 10
-0.302307
 20
-11.530470
 30
0.0
 11
-0.000003
 21
-11.499990
 31
0.0
  0
LINE
  5
178
100
AcDbEntity
  8
Layer_1
 62
7
100
AcDbLine
 10
-0.000003
 20
-11.499990
 30
0.0
 11
0.302301
 21
-11.530470
 31
0.0
  0
LINE
  5
179
100
AcDbEntity
  8
Layer_1
 62
7
100
AcDbLine
 10
0.302301
 20
-11.530470
 30
0.0
 11
0.583868
 21
-11.617874
 31
0.0
  0
LINE
  5
17a
100
AcDbEntity
  8
Layer_1
 62
7
100
AcDbLine
 10
0.583868
 20
-11.617874
 30
0.0
 11
0.838666
 21
-11.756163
 31
0.0
  0
LINE
  5
17b
100
AcDbEntity
  8
Layer_1
 62
7
100
AcDbLine
 10
0.838666
 20
-11.756163
 30
0.0
 11
1.060662
 21
-11.939325
 31
0.0
  0
LINE
  5
17c
100
AcDbEntity
  8
Layer_1
 62
7
100
AcDbLine
 10
1.060662
 20
-11.939325
 30
0.0
 11
1.243826
 21
-12.161321
 31
0.0
  0
LINE
  5
17d
100
AcDbEntity
  8
Layer_1
 62
7
100
AcDbLine
 10
1.243826
 20
-12.161321
 30
0.0
 11
1.382124
 21
-12.416140
 31
0.0
  0
LINE
  5
17e
100
AcDbEntity
  8
Layer_1
 62
7
100
AcDbLine
 10
1.382124
 20
-12.416140
 30
0.0
 11
1.469525
 21
-12.697684
 31
0.0
  0
LINE
  5
17f
100
AcDbEntity
  8
Layer_1
 62
7
100
AcDbLine
 10
1.469525
 20
-12.697684
 30
0.0
 11
1.499997
 21
-13.000001
 31
0.0
  0
LINE
  5
180
100
AcDbEntity
  8
Layer_1
 62
7
100
AcDbLine
 10
-46.499994
 20
1.799986
 30
0.0
 11
-46.530472
 21
1.497698
 31
0.0
  0
LINE
  5
181
100
AcDbEntity
  8
Layer_1
 62
7
100
AcDbLine
 10
-46.530472
 20
1.497698
 30
0.0
 11
-46.617876
 21
1.216125
 31
0.0
  0
LINE
  5
182
100
AcDbEntity
  8
Layer_1
 62
7
100
AcDbLine
 10
-46.617876
 20
1.216125
 30
0.0
 11
-46.756176
 21
0.961335
 31
0.0
  0
LINE
  5
183
100
AcDbEntity
  8
Layer_1
 62
7
100
AcDbLine
 10
-46.756176
 20
0.961335
 30
0.0
 11
-46.939341
 21
0.739339
 31
0.0
  0
LINE
  5
184
100
AcDbEntity
  8
Layer_1
 62
7
100
AcDbLine
 10
-46.939341
 20
0.739339
 30
0.0
 11
-47.161334
 21
0.556177
 31
0.0
  0
LINE
  5
185
100
AcDbEntity
  8
Layer_1
 62
7
100
AcDbLine
 10
-47.161334
 20
0.556177
 30
0.0
 11
-47.416130
 21
0.417888
 31
0.0
  0
LINE
  5
186
100
AcDbEntity
  8
Layer_1
 62
7
100
AcDbLine
 10
-47.416130
 20
0.417888
 30
0.0
 11
-47.697695
 21
0.330484
 31
0.0
  0
LINE
  5
187
100
AcDbEntity
  8
Layer_1
 62
7
100
AcDbLine
 10
-47.697695
 20
0.330484
 30
0.0
 11
-47.999994
 21
0.300004
 31
0.0
  0
LINE
  5
188
100
AcDbEntity
  8
Layer_1
 62
7
100
AcDbLine
 10
-47.999994
 20
0.300004
 30
0.0
 11
-48.302294
 21
0.330484
 31
0.0
  0
LINE
  5
189
100
AcDbEntity
  8
Layer_1
 62
7
100
AcDbLine
 10
-48.302294
 20
0.330484
 30
0.0
 11
-48.583858
 21
0.417888
 31
0.0
  0
LINE
  5
18a
100
AcDbEntity
  8
Layer_1
 62
7
100
AcDbLine
 10
-48.583858
 20
0.417888
 30
0.0
 11
-48.838654
 21
0.556177
 31
0.0
  0
LINE
  5
18b
100
AcDbEntity
  8
Layer_1
 62
7
100
AcDbLine
 10
-48.838654
 20
0.556177
 30
0.0
 11
-49.060648
 21
0.739339
 31
0.0
  0
LINE
  5
18c
100
AcDbEntity
  8
Layer_1
 62
7
100
AcDbLine
 10
-49.060648
 20
0.739339
 30
0.0
 11
-49.243813
 21
0.961335
 31
0.0
  0
LINE
  5
18d
100
AcDbEntity
  8
Layer_1
 62
7
100
AcDbLine
 10
-49.243813
 20
0.961335
 30
0.0
 11
-49.382113
 21
1.216125
 31
0.0
  0
LINE
  5
18e
100
AcDbEntity
  8
Layer_1
 62
7
100
AcDbLine
 10
-49.382113
 20
1.216125
 30
0.0
 11
-49.469517
 21
1.497698
 31
0.0
  0
LINE
  5
18f
100
AcDbEntity
  8
Layer_1
 62
7
100
AcDbLine
 10
-49.469517
 20
1.497698
 30
0.0
 11
-49.499994
 21
1.799986
 31
0.0
  0
LINE
  5
190
100
AcDbEntity
  8
Layer_1
 62
7
100
AcDbLine
 10
-49.499994
 20
1.799986
 30
0.0
 11
-49.469523
 21
2.102303
 31
0.0
  0
LINE
  5
191
100
AcDbEntity
  8
Layer_1
 62
7
100
AcDbLine
 10
-49.469523
 20
2.102303
 30
0.0
 11
-49.382121
 21
2.383848
 31
0.0
  0
LINE
  5
192
100
AcDbEntity
  8
Layer_1
 62
7
100
AcDbLine
 10
-49.382121
 20
2.383848
 30
0.0
 11
-49.243824
 21
2.638666
 31
0.0
  0
LINE
  5
193
100
AcDbEntity
  8
Layer_1
 62
7
100
AcDbLine
 10
-49.243824
 20
2.638666
 30
0.0
 11
-49.060659
 21
2.860662
 31
0.0
  0
LINE
  5
194
100
AcDbEntity
  8
Layer_1
 62
7
100
AcDbLine
 10
-49.060659
 20
2.860662
 30
0.0
 11
-48.838663
 21
3.043824
 31
0.0
  0
LINE
  5
195
100
AcDbEntity
  8
Layer_1
 62
7
100
AcDbLine
 10
-48.838663
 20
3.043824
 30
0.0
 11
-48.583864
 21
3.182113
 31
0.0
  0
LINE
  5
196
100
AcDbEntity
  8
Layer_1
 62
7
100
AcDbLine
 10
-48.583864
 20
3.182113
 30
0.0
 11
-48.302299
 21
3.269518
 31
0.0
  0
LINE
  5
197
100
AcDbEntity
  8
Layer_1
 62
7
100
AcDbLine
 10
-48.302299
 20
3.269518
 30
0.0
 11
-47.999994
 21
3.299998
 31
0.0
  0
LINE
  5
198
100
AcDbEntity
  8
Layer_1
 62
7
100
AcDbLine
 10
-47.999994
 20
3.299998
 30
0.0
 11
-47.697689
 21
3.269518
 31
0.0
  0
LINE
  5
199
100
AcDbEntity
  8
Layer_1
 62
7
100
AcDbLine
 10
-47.697689
 20
3.269518
 30
0.0
 11
-47.416125
 21
3.182113
 31
0.0
  0
LINE
  5
19a
100
AcDbEntity
  8
Layer_1
 62
7
100
AcDbLine
 10
-47.416125
 20
3.182113
 30
0.0
 11
-47.161326
 21
3.043824
 31
0.0
  0
LINE
  5
19b
100
AcDbEntity
  8
Layer_1
 62
7
100
AcDbLine
 10
-47.161326
 20
3.043824
 30
0.0
 11
-46.939330
 21
2.860662
 31
0.0
  0
LINE
  5
19c
100
AcDbEntity
  8
Layer_1
 62
7
100
AcDbLine
 10
-46.939330
 20
2.860662
 30
0.0
 11
-46.756165
 21
2.638666
 31
0.0
  0
LINE
  5
19d
100
AcDbEntity
  8
Layer_1
 62
7
100
AcDbLine
 10
-46.756165
 20
2.638666
 30
0.0
 11
-46.617867
 21
2.383848
 31
0.0
  0
LINE
  5
19e
100
AcDbEntity
  8
Layer_1
 62
7
100
AcDbLine
 10
-46.617867
 20
2.383848
 30
0.0
 11
-46.530466
 21
2.102303
 31
0.0
  0
LINE
  5
19f
100
AcDbEntity
  8
Layer_1
 62
7
100
AcDbLine
 10
-46.530466
 20
2.102303
 30
0.0
 11
-46.499994
 21
1.799986
 31
0.0
  0
LINE
  5
1a0
100
AcDbEntity
  8
Layer_1
 62
7
100
AcDbLine
 10
46.500011
 20
-13.000001
 30
0.0
 11
46.530489
 21
-13.302289
 31
0.0
  0
LINE
  5
1a1
100
AcDbEntity
  8
Layer_1
 62
7
100
AcDbLine
 10
46.530489
 20
-13.302289
 30
0.0
 11
46.617893
 21
-13.583862
 31
0.0
  0
LINE
  5
1a2
100
AcDbEntity
  8
Layer_1
 62
7
100
AcDbLine
 10
46.617893
 20
-13.583862
 30
0.0
 11
46.756193
 21
-13.838652
 31
0.0
  0
LINE
  5
1a3
100
AcDbEntity
  8
Layer_1
 62
7
100
AcDbLine
 10
46.756193
 20
-13.838652
 30
0.0
 11
46.939358
 21
-14.060648
 31
0.0
  0
LINE
  5
1a4
100
AcDbEntity
  8
Layer_1
 62
7
100
AcDbLine
 10
46.939358
 20
-14.060648
 30
0.0
 11
47.161351
 21
-14.243811
 31
0.0
  0
LINE
  5
1a5
100
AcDbEntity
  8
Layer_1
 62
7
100
AcDbLine
 10
47.161351
 20
-14.243811
 30
0.0
 11
47.416147
 21
-14.382100
 31
0.0
  0
LINE
  5
1a6
100
AcDbEntity
  8
Layer_1
 62
7
100
AcDbLine
 10
47.416147
 20
-14.382100
 30
0.0
 11
47.697712
 21
-14.469504
 31
0.0
  0
LINE
  5
1a7
100
AcDbEntity
  8
Layer_1
 62
7
100
AcDbLine
 10
47.697712
 20
-14.469504
 30
0.0
 11
48.000011
 21
-14.499984
 31
0.0
  0
LINE
  5
1a8
100
AcDbEntity
  8
Layer_1
 62
7
100
AcDbLine
 10
48.000011
 20
-14.499984
 30
0.0
 11
48.302311
 21
-14.469504
 31
0.0
  0
LINE
  5
1a9
100
AcDbEntity
  8
Layer_1
 62
7
100
AcDbLine
 10
48.302311
 20
-14.469504
 30
0.0
 11
48.583875
 21
-14.382100
 31
0.0
  0
LINE
  5
1aa
100
AcDbEntity
  8
Layer_1
 62
7
100
AcDbLine
 10
48.583875
 20
-14.382100
 30
0.0
 11
48.838671
 21
-14.243811
 31
0.0
  0
LINE
  5
1ab
100
AcDbEntity
  8
Layer_1
 62
7
100
AcDbLine
 10
48.838671
 20
-14.243811
 30
0.0
 11
49.060664
 21
-14.060648
 31
0.0
  0
LINE
  5
1ac
100
AcDbEntity
  8
Layer_1
 62
7
100
AcDbLine
 10
49.060664
 20
-14.060648
 30
0.0
 11
49.243829
 21
-13.838652
 31
0.0
  0
LINE
  5
1ad
100
AcDbEntity
  8
Layer_1
 62
7
100
AcDbLine
 10
49.243829
 20
-13.838652
 30
0.0
 11
49.382130
 21
-13.583862
 31
0.0
  0
LINE
  5
1ae
100
AcDbEntity
  8
Layer_1
 62
7
100
AcDbLine
 10
49.382130
 20
-13.583862
 30
0.0
 11
49.469534
 21
-13.302289
 31
0.0
  0
LINE
  5
1af
100
AcDbEntity
  8
Layer_1
 62
7
100
AcDbLine
 10
49.469534
 20
-13.302289
 30
0.0
 11
49.500011
 21
-13.000001
 31
0.0
  0
LINE
  5
1b0
100
AcDbEntity
  8
Layer_1
 62
7
100
AcDbLine
 10
49.500011
 20
-13.000001
 30
0.0
 11
49.469540
 21
-12.697684
 31
0.0
  0
LINE
  5
1b1
100
AcDbEntity
  8
Layer_1
 62
7
100
AcDbLine
 10
49.469540
 20
-12.697684
 30
0.0
 11
49.382138
 21
-12.416140
 31
0.0
  0
LINE
  5
1b2
100
AcDbEntity
  8
Layer_1
 62
7
100
AcDbLine
 10
49.382138
 20
-12.416140
 30
0.0
 11
49.243841
 21
-12.161321
 31
0.0
  0
LINE
  5
1b3
100
AcDbEntity
  8
Layer_1
 62
7
100
AcDbLine
 10
49.243841
 20
-12.161321
 30
0.0
 11
49.060676
 21
-11.939325
 31
0.0
  0
LINE
  5
1b4
100
AcDbEntity
  8
Layer_1
 62
7
100
AcDbLine
 10
49.060676
 20
-11.939325
 30
0.0
 11
48.838680
 21
-11.756163
 31
0.0
  0
LINE
  5
1b5
100
AcDbEntity
  8
Layer_1
 62
7
100
AcDbLine
 10
48.838680
 20
-11.756163
 30
0.0
 11
48.583881
 21
-11.617874
 31
0.0
  0
LINE
  5
1b6
100
AcDbEntity
  8
Layer_1
 62
7
100
AcDbLine
 10
48.583881
 20
-11.617874
 30
0.0
 11
48.302316
 21
-11.530470
 31
0.0
  0
LINE
  5
1b7
100
AcDbEntity
  8
Layer_1
 62
7
100
AcDbLine
 10
48.302316
 20
-11.530470
 30
0.0
 11
48.000011
 21
-11.499990
 31
0.0
  0
LINE
  5
1b8
100
AcDbEntity
  8
Layer_1
 62
7
100
AcDbLine
 10
48.000011
 20
-11.499990
 30
0.0
 11
47.697706
 21
-11.530470
 31
0.0
  0
LINE
  5
1b9
100
AcDbEntity
  8
Layer_1
 62
7
100
AcDbLine
 10
47.697706
 20
-11.530470
 30
0.0
 11
47.416141
 21
-11.617874
 31
0.0
  0
LINE
  5
1ba
100
AcDbEntity
  8
Layer_1
 62
7
100
AcDbLine
 10
47.416141
 20
-11.617874
 30
0.0
 11
47.161343
 21
-11.756163
 31
0.0
  0
LINE
  5
1bb
100
AcDbEntity
  8
Layer_1
 62
7
100
AcDbLine
 10
47.161343
 20
-11.756163
 30
0.0
 11
46.939347
 21
-11.939325
 31
0.0
  0
LINE
  5
1bc
100
AcDbEntity
  8
Layer_1
 62
7
100
AcDbLine
 10
46.939347
 20
-11.939325
 30
0.0
 11
46.756182
 21
-12.161321
 31
0.0
  0
LINE
  5
1bd
100
AcDbEntity
  8
Layer_1
 62
7
100
AcDbLine
 10
46.756182
 20
-12.161321
 30
0.0
 11
46.617884
 21
-12.416140
 31
0.0
  0
LINE
  5
1be
100
AcDbEntity
  8
Layer_1
 62
7
100
AcDbLine
 10
46.617884
 20
-12.416140
 30
0.0
 11
46.530483
 21
-12.697684
 31
0.0
  0
LINE
  5
1bf
100
AcDbEntity
  8
Layer_1
 62
7
100
AcDbLine
 10
46.530483
 20
-12.697684
 30
0.0
 11
46.500011
 21
-13.000001
 31
0.0
  0
LINE
  5
1c0
100
AcDbEntity
  8
Layer_1
 62
7
100
AcDbLine
 10
46.500011
 20
1.799986
 30
0.0
 11
46.530489
 21
1.497698
 31
0.0
  0
LINE
  5
1c1
100
AcDbEntity
  8
Layer_1
 62
7
100
AcDbLine
 10
46.530489
 20
1.497698
 30
0.0
 11
46.617893
 21
1.216125
 31
0.0
  0
LINE
  5
1c2
100
AcDbEntity
  8
Layer_1
 62
7
100
AcDbLine
 10
46.617893
 20
1.216125
 30
0.0
 11
46.756193
 21
0.961335
 31
0.0
  0
LINE
  5
1c3
100
AcDbEntity
  8
Layer_1
 62
7
100
AcDbLine
 10
46.756193
 20
0.961335
 30
0.0
 11
46.939358
 21
0.739339
 31
0.0
  0
LINE
  5
1c4
100
AcDbEntity
  8
Layer_1
 62
7
100
AcDbLine
 10
46.939358
 20
0.739339
 30
0.0
 11
47.161351
 21
0.556177
 31
0.0
  0
LINE
  5
1c5
100
AcDbEntity
  8
Layer_1
 62
7
100
AcDbLine
 10
47.161351
 20
0.556177
 30
0.0
 11
47.416147
 21
0.417888
 31
0.0
  0
LINE
  5
1c6
100
AcDbEntity
  8
Layer_1
 62
7
100
AcDbLine
 10
47.416147
 20
0.417888
 30
0.0
 11
47.697712
 21
0.330484
 31
0.0
  0
LINE
  5
1c7
100
AcDbEntity
  8
Layer_1
 62
7
100
AcDbLine
 10
47.697712
 20
0.330484
 30
0.0
 11
48.000011
 21
0.300004
 31
0.0
  0
LINE
  5
1c8
100
AcDbEntity
  8
Layer_1
 62
7
100
AcDbLine
 10
48.000011
 20
0.300004
 30
0.0
 11
48.302311
 21
0.330484
 31
0.0
  0
LINE
  5
1c9
100
AcDbEntity
  8
Layer_1
 62
7
100
AcDbLine
 10
48.302311
 20
0.330484
 30
0.0
 11
48.583875
 21
0.417888
 31
0.0
  0
LINE
  5
1ca
100
AcDbEntity
  8
Layer_1
 62
7
100
AcDbLine
 10
48.583875
 20
0.417888
 30
0.0
 11
48.838671
 21
0.556177
 31
0.0
  0
LINE
  5
1cb
100
AcDbEntity
  8
Layer_1
 62
7
100
AcDbLine
 10
48.838671
 20
0.556177
 30
0.0
 11
49.060664
 21
0.739339
 31
0.0
  0
LINE
  5
1cc
100
AcDbEntity
  8
Layer_1
 62
7
100
AcDbLine
 10
49.060664
 20
0.739339
 30
0.0
 11
49.243829
 21
0.961335
 31
0.0
  0
LINE
  5
1cd
100
AcDbEntity
  8
Layer_1
 62
7
100
AcDbLine
 10
49.243829
 20
0.961335
 30
0.0
 11
49.382130
 21
1.216125
 31
0.0
  0
LINE
  5
1ce
100
AcDbEntity
  8
Layer_1
 62
7
100
AcDbLine
 10
49.382130
 20
1.216125
 30
0.0
 11
49.469534
 21
1.497698
 31
0.0
  0
LINE
  5
1cf
100
AcDbEntity
  8
Layer_1
 62
7
100
AcDbLine
 10
49.469534
 20
1.497698
 30
0.0
 11
49.500011
 21
1.799986
 31
0.0
  0
LINE
  5
1d0
100
AcDbEntity
  8
Layer_1
 62
7
100
AcDbLine
 10
49.500011
 20
1.799986
 30
0.0
 11
49.469540
 21
2.102303
 31
0.0
  0
LINE
  5
1d1
100
AcDbEntity
  8
Layer_1
 62
7
100
AcDbLine
 10
49.469540
 20
2.102303
 30
0.0
 11
49.382138
 21
2.383848
 31
0.0
  0
LINE
  5
1d2
100
AcDbEntity
  8
Layer_1
 62
7
100
AcDbLine
 10
49.382138
 20
2.383848
 30
0.0
 11
49.243841
 21
2.638666
 31
0.0
  0
LINE
  5
1d3
100
AcDbEntity
  8
Layer_1
 62
7
100
AcDbLine
 10
49.243841
 20
2.638666
 30
0.0
 11
49.060676
 21
2.860662
 31
0.0
  0
LINE
  5
1d4
100
AcDbEntity
  8
Layer_1
 62
7
100
AcDbLine
 10
49.060676
 20
2.860662
 30
0.0
 11
48.838680
 21
3.043824
 31
0.0
  0
LINE
  5
1d5
100
AcDbEntity
  8
Layer_1
 62
7
100
AcDbLine
 10
48.838680
 20
3.043824
 30
0.0
 11
48.583881
 21
3.182113
 31
0.0
  0
LINE
  5
1d6
100
AcDbEntity
  8
Layer_1
 62
7
100
AcDbLine
 10
48.583881
 20
3.182113
 30
0.0
 11
48.302316
 21
3.269518
 31
0.0
  0
LINE
  5
1d7
100
AcDbEntity
  8
Layer_1
 62
7
100
AcDbLine
 10
48.302316
 20
3.269518
 30
0.0
 11
48.000011
 21
3.299998
 31
0.0
  0
LINE
  5
1d8
100
AcDbEntity
  8
Layer_1
 62
7
100
AcDbLine
 10
48.000011
 20
3.299998
 30
0.0
 11
47.697706
 21
3.269518
 31
0.0
  0
LINE
  5
1d9
100
AcDbEntity
  8
Layer_1
 62
7
100
AcDbLine
 10
47.697706
 20
3.269518
 30
0.0
 11
47.416141
 21
3.182113
 31
0.0
  0
LINE
  5
1da
100
AcDbEntity
  8
Layer_1
 62
7
100
AcDbLine
 10
47.416141
 20
3.182113
 30
0.0
 11
47.161343
 21
3.043824
 31
0.0
  0
LINE
  5
1db
100
AcDbEntity
  8
Layer_1
 62
7
100
AcDbLine
 10
47.161343
 20
3.043824
 30
0.0
 11
46.939347
 21
2.860662
 31
0.0
  0
LINE
  5
1dc
100
AcDbEntity
  8
Layer_1
 62
7
100
AcDbLine
 10
46.939347
 20
2.860662
 30
0.0
 11
46.756182
 21
2.638666
 31
0.0
  0
LINE
  5
1dd
100
AcDbEntity
  8
Layer_1
 62
7
100
AcDbLine
 10
46.756182
 20
2.638666
 30
0.0
 11
46.617884
 21
2.383848
 31
0.0
  0
LINE
  5
1de
100
AcDbEntity
  8
Layer_1
 62
7
100
AcDbLine
 10
46.617884
 20
2.383848
 30
0.0
 11
46.530483
 21
2.102303
 31
0.0
  0
LINE
  5
1df
100
AcDbEntity
  8
Layer_1
 62
7
100
AcDbLine
 10
46.530483
 20
2.102303
 30
0.0
 11
46.500011
 21
1.799986
 31
0.0
  0
LINE
  5
1e0
100
AcDbEntity
  8
Layer_1
 62
7
100
AcDbLine
 10
-42.999996
 20
7.000016
 30
0.0
 11
-43.040630
 21
6.596946
 31
0.0
  0
LINE
  5
1e1
100
AcDbEntity
  8
Layer_1
 62
7
100
AcDbLine
 10
-43.040630
 20
6.596946
 30
0.0
 11
-43.157168
 21
6.221534
 31
0.0
  0
LINE
  5
1e2
100
AcDbEntity
  8
Layer_1
 62
7
100
AcDbLine
 10
-43.157168
 20
6.221534
 30
0.0
 11
-43.341567
 21
5.881795
 31
0.0
  0
LINE
  5
1e3
100
AcDbEntity
  8
Layer_1
 62
7
100
AcDbLine
 10
-43.341567
 20
5.881795
 30
0.0
 11
-43.585785
 21
5.585800
 31
0.0
  0
LINE
  5
1e4
100
AcDbEntity
  8
Layer_1
 62
7
100
AcDbLine
 10
-43.585785
 20
5.585800
 30
0.0
 11
-43.881779
 21
5.341593
 31
0.0
  0
LINE
  5
1e5
100
AcDbEntity
  8
Layer_1
 62
7
100
AcDbLine
 10
-43.881779
 20
5.341593
 30
0.0
 11
-44.221507
 21
5.157189
 31
0.0
  0
LINE
  5
1e6
100
AcDbEntity
  8
Layer_1
 62
7
100
AcDbLine
 10
-44.221507
 20
5.157189
 30
0.0
 11
-44.596928
 21
5.040660
 31
0.0
  0
LINE
  5
1e7
100
AcDbEntity
  8
Layer_1
 62
7
100
AcDbLine
 10
-44.596928
 20
5.040660
 30
0.0
 11
-44.999997
 21
5.000020
 31
0.0
  0
LINE
  5
1e8
100
AcDbEntity
  8
Layer_1
 62
7
100
AcDbLine
 10
-44.999997
 20
5.000020
 30
0.0
 11
-45.403067
 21
5.040660
 31
0.0
  0
LINE
  5
1e9
100
AcDbEntity
  8
Layer_1
 62
7
100
AcDbLine
 10
-45.403067
 20
5.040660
 30
0.0
 11
-45.778488
 21
5.157189
 31
0.0
  0
LINE
  5
1ea
100
AcDbEntity
  8
Layer_1
 62
7
100
AcDbLine
 10
-45.778488
 20
5.157189
 30
0.0
 11
-46.118216
 21
5.341593
 31
0.0
  0
LINE
  5
1eb
100
AcDbEntity
  8
Layer_1
 62
7
100
AcDbLine
 10
-46.118216
 20
5.341593
 30
0.0
 11
-46.414210
 21
5.585800
 31
0.0
  0
LINE
  5
1ec
100
AcDbEntity
  8
Layer_1
 62
7
100
AcDbLine
 10
-46.414210
 20
5.585800
 30
0.0
 11
-46.658426
 21
5.881795
 31
0.0
  0
LINE
  5
1ed
100
AcDbEntity
  8
Layer_1
 62
7
100
AcDbLine
 10
-46.658426
 20
5.881795
 30
0.0
 11
-46.842827
 21
6.221534
 31
0.0
  0
LINE
  5
1ee
100
AcDbEntity
  8
Layer_1
 62
7
100
AcDbLine
 10
-46.842827
 20
6.221534
 30
0.0
 11
-46.959362
 21
6.596946
 31
0.0
  0
LINE
  5
1ef
100
AcDbEntity
  8
Layer_1
 62
7
100
AcDbLine
 10
-46.959362
 20
6.596946
 30
0.0
 11
-46.999996
 21
7.000016
 31
0.0
  0
LINE
  5
1f0
100
AcDbEntity
  8
Layer_1
 62
7
100
AcDbLine
 10
-46.999996
 20
7.000016
 30
0.0
 11
-46.959368
 21
7.403085
 31
0.0
  0
LINE
  5
1f1
100
AcDbEntity
  8
Layer_1
 62
7
100
AcDbLine
 10
-46.959368
 20
7.403085
 30
0.0
 11
-46.842832
 21
7.778526
 31
0.0
  0
LINE
  5
1f2
100
AcDbEntity
  8
Layer_1
 62
7
100
AcDbLine
 10
-46.842832
 20
7.778526
 30
0.0
 11
-46.658437
 21
8.118236
 31
0.0
  0
LINE
  5
1f3
100
AcDbEntity
  8
Layer_1
 62
7
100
AcDbLine
 10
-46.658437
 20
8.118236
 30
0.0
 11
-46.414219
 21
8.414231
 31
0.0
  0
LINE
  5
1f4
100
AcDbEntity
  8
Layer_1
 62
7
100
AcDbLine
 10
-46.414219
 20
8.414231
 30
0.0
 11
-46.118224
 21
8.658466
 31
0.0
  0
LINE
  5
1f5
100
AcDbEntity
  8
Layer_1
 62
7
100
AcDbLine
 10
-46.118224
 20
8.658466
 30
0.0
 11
-45.778493
 21
8.842870
 31
0.0
  0
LINE
  5
1f6
100
AcDbEntity
  8
Layer_1
 62
7
100
AcDbLine
 10
-45.778493
 20
8.842870
 30
0.0
 11
-45.403070
 21
8.959400
 31
0.0
  0
LINE
  5
1f7
100
AcDbEntity
  8
Layer_1
 62
7
100
AcDbLine
 10
-45.403070
 20
8.959400
 30
0.0
 11
-44.999997
 21
9.000040
 31
0.0
  0
LINE
  5
1f8
100
AcDbEntity
  8
Layer_1
 62
7
100
AcDbLine
 10
-44.999997
 20
9.000040
 30
0.0
 11
-44.596925
 21
8.959400
 31
0.0
  0
LINE
  5
1f9
100
AcDbEntity
  8
Layer_1
 62
7
100
AcDbLine
 10
-44.596925
 20
8.959400
 30
0.0
 11
-44.221502
 21
8.842870
 31
0.0
  0
LINE
  5
1fa
100
AcDbEntity
  8
Layer_1
 62
7
100
AcDbLine
 10
-44.221502
 20
8.842870
 30
0.0
 11
-43.881771
 21
8.658466
 31
0.0
  0
LINE
  5
1fb
100
AcDbEntity
  8
Layer_1
 62
7
100
AcDbLine
 10
-43.881771
 20
8.658466
 30
0.0
 11
-43.585773
 21
8.414259
 31
0.0
  0
LINE
  5
1fc
100
AcDbEntity
  8
Layer_1
 62
7
100
AcDbLine
 10
-43.585773
 20
8.414259
 30
0.0
 11
-43.341555
 21
8.118236
 31
0.0
  0
LINE
  5
1fd
100
AcDbEntity
  8
Layer_1
 62
7
100
AcDbLine
 10
-43.341555
 20
8.118236
 30
0.0
 11
-43.157160
 21
7.778526
 31
0.0
  0
LINE
  5
1fe
100
AcDbEntity
  8
Layer_1
 62
7
100
AcDbLine
 10
-43.157160
 20
7.778526
 30
0.0
 11
-43.040625
 21
7.403085
 31
0.0
  0
LINE
  5
1ff
100
AcDbEntity
  8
Layer_1
 62
7
100
AcDbLine
 10
-43.040625
 20
7.403085
 30
0.0
 11
-42.999996
 21
7.000016
 31
0.0
  0
LINE
  5
200
100
AcDbEntity
  8
Layer_1
 62
7
100
AcDbLine
 10
-32.999999
 20
6.999987
 30
0.0
 11
-33.040633
 21
6.596918
 31
0.0
  0
LINE
  5
201
100
AcDbEntity
  8
Layer_1
 62
7
100
AcDbLine
 10
-33.040633
 20
6.596918
 30
0.0
 11
-33.157171
 21
6.221506
 31
0.0
  0
LINE
  5
202
100
AcDbEntity
  8
Layer_1
 62
7
100
AcDbLine
 10
-33.157171
 20
6.221506
 30
0.0
 11
-33.341570
 21
5.881766
 31
0.0
  0
LINE
  5
203
100
AcDbEntity
  8
Layer_1
 62
7
100
AcDbLine
 10
-33.341570
 20
5.881766
 30
0.0
 11
-33.585788
 21
5.585772
 31
0.0
  0
LINE
  5
204
100
AcDbEntity
  8
Layer_1
 62
7
100
AcDbLine
 10
-33.585788
 20
5.585772
 30
0.0
 11
-33.881782
 21
5.341565
 31
0.0
  0
LINE
  5
205
100
AcDbEntity
  8
Layer_1
 62
7
100
AcDbLine
 10
-33.881782
 20
5.341565
 30
0.0
 11
-34.221510
 21
5.157161
 31
0.0
  0
LINE
  5
206
100
AcDbEntity
  8
Layer_1
 62
7
100
AcDbLine
 10
-34.221510
 20
5.157161
 30
0.0
 11
-34.596931
 21
5.040631
 31
0.0
  0
LINE
  5
207
100
AcDbEntity
  8
Layer_1
 62
7
100
AcDbLine
 10
-34.596931
 20
5.040631
 30
0.0
 11
-35.000001
 21
4.999991
 31
0.0
  0
LINE
  5
208
100
AcDbEntity
  8
Layer_1
 62
7
100
AcDbLine
 10
-35.000001
 20
4.999991
 30
0.0
 11
-35.403070
 21
5.040631
 31
0.0
  0
LINE
  5
209
100
AcDbEntity
  8
Layer_1
 62
7
100
AcDbLine
 10
-35.403070
 20
5.040631
 30
0.0
 11
-35.778491
 21
5.157161
 31
0.0
  0
LINE
  5
20a
100
AcDbEntity
  8
Layer_1
 62
7
100
AcDbLine
 10
-35.778491
 20
5.157161
 30
0.0
 11
-36.118219
 21
5.341565
 31
0.0
  0
LINE
  5
20b
100
AcDbEntity
  8
Layer_1
 62
7
100
AcDbLine
 10
-36.118219
 20
5.341565
 30
0.0
 11
-36.414213
 21
5.585772
 31
0.0
  0
LINE
  5
20c
100
AcDbEntity
  8
Layer_1
 62
7
100
AcDbLine
 10
-36.414213
 20
5.585772
 30
0.0
 11
-36.658429
 21
5.881766
 31
0.0
  0
LINE
  5
20d
100
AcDbEntity
  8
Layer_1
 62
7
100
AcDbLine
 10
-36.658429
 20
5.881766
 30
0.0
 11
-36.842830
 21
6.221506
 31
0.0
  0
LINE
  5
20e
100
AcDbEntity
  8
Layer_1
 62
7
100
AcDbLine
 10
-36.842830
 20
6.221506
 30
0.0
 11
-36.959365
 21
6.596918
 31
0.0
  0
LINE
  5
20f
100
AcDbEntity
  8
Layer_1
 62
7
100
AcDbLine
 10
-36.959365
 20
6.596918
 30
0.0
 11
-36.999999
 21
6.999987
 31
0.0
  0
LINE
  5
210
100
AcDbEntity
  8
Layer_1
 62
7
100
AcDbLine
 10
-36.999999
 20
6.999987
 30
0.0
 11
-36.959368
 21
7.403057
 31
0.0
  0
LINE
  5
211
100
AcDbEntity
  8
Layer_1
 62
7
100
AcDbLine
 10
-36.959368
 20
7.403057
 30
0.0
 11
-36.842830
 21
7.778469
 31
0.0
  0
LINE
  5
212
100
AcDbEntity
  8
Layer_1
 62
7
100
AcDbLine
 10
-36.842830
 20
7.778469
 30
0.0
 11
-36.658431
 21
8.118208
 31
0.0
  0
LINE
  5
213
100
AcDbEntity
  8
Layer_1
 62
7
100
AcDbLine
 10
-36.658431
 20
8.118208
 30
0.0
 11
-36.414213
 21
8.414203
 31
0.0
  0
LINE
  5
214
100
AcDbEntity
  8
Layer_1
 62
7
100
AcDbLine
 10
-36.414213
 20
8.414203
 30
0.0
 11
-36.118219
 21
8.658410
 31
0.0
  0
LINE
  5
215
100
AcDbEntity
  8
Layer_1
 62
7
100
AcDbLine
 10
-36.118219
 20
8.658410
 30
0.0
 11
-35.778491
 21
8.842814
 31
0.0
  0
LINE
  5
216
100
AcDbEntity
  8
Layer_1
 62
7
100
AcDbLine
 10
-35.778491
 20
8.842814
 30
0.0
 11
-35.403070
 21
8.959343
 31
0.0
  0
LINE
  5
217
100
AcDbEntity
  8
Layer_1
 62
7
100
AcDbLine
 10
-35.403070
 20
8.959343
 30
0.0
 11
-35.000001
 21
8.999983
 31
0.0
  0
LINE
  5
218
100
AcDbEntity
  8
Layer_1
 62
7
100
AcDbLine
 10
-35.000001
 20
8.999983
 30
0.0
 11
-34.596931
 21
8.959343
 31
0.0
  0
LINE
  5
219
100
AcDbEntity
  8
Layer_1
 62
7
100
AcDbLine
 10
-34.596931
 20
8.959343
 30
0.0
 11
-34.221510
 21
8.842814
 31
0.0
  0
LINE
  5
21a
100
AcDbEntity
  8
Layer_1
 62
7
100
AcDbLine
 10
-34.221510
 20
8.842814
 30
0.0
 11
-33.881780
 21
8.658410
 31
0.0
  0
LINE
  5
21b
100
AcDbEntity
  8
Layer_1
 62
7
100
AcDbLine
 10
-33.881780
 20
8.658410
 30
0.0
 11
-33.585785
 21
8.414203
 31
0.0
  0
LINE
  5
21c
100
AcDbEntity
  8
Layer_1
 62
7
100
AcDbLine
 10
-33.585785
 20
8.414203
 30
0.0
 11
-33.341567
 21
8.118208
 31
0.0
  0
LINE
  5
21d
100
AcDbEntity
  8
Layer_1
 62
7
100
AcDbLine
 10
-33.341567
 20
8.118208
 30
0.0
 11
-33.157168
 21
7.778469
 31
0.0
  0
LINE
  5
21e
100
AcDbEntity
  8
Layer_1
 62
7
100
AcDbLine
 10
-33.157168
 20
7.778469
 30
0.0
 11
-33.040630
 21
7.403057
 31
0.0
  0
LINE
  5
21f
100
AcDbEntity
  8
Layer_1
 62
7
100
AcDbLine
 10
-33.040630
 20
7.403057
 30
0.0
 11
-32.999999
 21
6.999987
 31
0.0
  0
LINE
  5
220
100
AcDbEntity
  8
Layer_1
 62
7
100
AcDbLine
 10
-22.999992
 20
7.000016
 30
0.0
 11
-23.040626
 21
6.596946
 31
0.0
  0
LINE
  5
221
100
AcDbEntity
  8
Layer_1
 62
7
100
AcDbLine
 10
-23.040626
 20
6.596946
 30
0.0
 11
-23.157163
 21
6.221534
 31
0.0
  0
LINE
  5
222
100
AcDbEntity
  8
Layer_1
 62
7
100
AcDbLine
 10
-23.157163
 20
6.221534
 30
0.0
 11
-23.341562
 21
5.881795
 31
0.0
  0
LINE
  5
223
100
AcDbEntity
  8
Layer_1
 62
7
100
AcDbLine
 10
-23.341562
 20
5.881795
 30
0.0
 11
-23.585780
 21
5.585800
 31
0.0
  0
LINE
  5
224
100
AcDbEntity
  8
Layer_1
 62
7
100
AcDbLine
 10
-23.585780
 20
5.585800
 30
0.0
 11
-23.881774
 21
5.341593
 31
0.0
  0
LINE
  5
225
100
AcDbEntity
  8
Layer_1
 62
7
100
AcDbLine
 10
-23.881774
 20
5.341593
 30
0.0
 11
-24.221503
 21
5.157189
 31
0.0
  0
LINE
  5
226
100
AcDbEntity
  8
Layer_1
 62
7
100
AcDbLine
 10
-24.221503
 20
5.157189
 30
0.0
 11
-24.596923
 21
5.040660
 31
0.0
  0
LINE
  5
227
100
AcDbEntity
  8
Layer_1
 62
7
100
AcDbLine
 10
-24.596923
 20
5.040660
 30
0.0
 11
-24.999992
 21
5.000020
 31
0.0
  0
LINE
  5
228
100
AcDbEntity
  8
Layer_1
 62
7
100
AcDbLine
 10
-24.999992
 20
5.000020
 30
0.0
 11
-25.403061
 21
5.040660
 31
0.0
  0
LINE
  5
229
100
AcDbEntity
  8
Layer_1
 62
7
100
AcDbLine
 10
-25.403061
 20
5.040660
 30
0.0
 11
-25.778481
 21
5.157189
 31
0.0
  0
LINE
  5
22a
100
AcDbEntity
  8
Layer_1
 62
7
100
AcDbLine
 10
-25.778481
 20
5.157189
 30
0.0
 11
-26.118210
 21
5.341593
 31
0.0
  0
LINE
  5
22b
100
AcDbEntity
  8
Layer_1
 62
7
100
AcDbLine
 10
-26.118210
 20
5.341593
 30
0.0
 11
-26.414204
 21
5.585800
 31
0.0
  0
LINE
  5
22c
100
AcDbEntity
  8
Layer_1
 62
7
100
AcDbLine
 10
-26.414204
 20
5.585800
 30
0.0
 11
-26.658422
 21
5.881795
 31
0.0
  0
LINE
  5
22d
100
AcDbEntity
  8
Layer_1
 62
7
100
AcDbLine
 10
-26.658422
 20
5.881795
 30
0.0
 11
-26.842821
 21
6.221534
 31
0.0
  0
LINE
  5
22e
100
AcDbEntity
  8
Layer_1
 62
7
100
AcDbLine
 10
-26.842821
 20
6.221534
 30
0.0
 11
-26.959358
 21
6.596946
 31
0.0
  0
LINE
  5
22f
100
AcDbEntity
  8
Layer_1
 62
7
100
AcDbLine
 10
-26.959358
 20
6.596946
 30
0.0
 11
-26.999992
 21
7.000016
 31
0.0
  0
LINE
  5
230
100
AcDbEntity
  8
Layer_1
 62
7
100
AcDbLine
 10
-26.999992
 20
7.000016
 30
0.0
 11
-26.959363
 21
7.403085
 31
0.0
  0
LINE
  5
231
100
AcDbEntity
  8
Layer_1
 62
7
100
AcDbLine
 10
-26.959363
 20
7.403085
 30
0.0
 11
-26.842829
 21
7.778526
 31
0.0
  0
LINE
  5
232
100
AcDbEntity
  8
Layer_1
 62
7
100
AcDbLine
 10
-26.842829
 20
7.778526
 30
0.0
 11
-26.658432
 21
8.118236
 31
0.0
  0
LINE
  5
233
100
AcDbEntity
  8
Layer_1
 62
7
100
AcDbLine
 10
-26.658432
 20
8.118236
 30
0.0
 11
-26.414214
 21
8.414231
 31
0.0
  0
LINE
  5
234
100
AcDbEntity
  8
Layer_1
 62
7
100
AcDbLine
 10
-26.414214
 20
8.414231
 30
0.0
 11
-26.118219
 21
8.658466
 31
0.0
  0
LINE
  5
235
100
AcDbEntity
  8
Layer_1
 62
7
100
AcDbLine
 10
-26.118219
 20
8.658466
 30
0.0
 11
-25.778488
 21
8.842870
 31
0.0
  0
LINE
  5
236
100
AcDbEntity
  8
Layer_1
 62
7
100
AcDbLine
 10
-25.778488
 20
8.842870
 30
0.0
 11
-25.403065
 21
8.959400
 31
0.0
  0
LINE
  5
237
100
AcDbEntity
  8
Layer_1
 62
7
100
AcDbLine
 10
-25.403065
 20
8.959400
 30
0.0
 11
-24.999992
 21
9.000040
 31
0.0
  0
LINE
  5
238
100
AcDbEntity
  8
Layer_1
 62
7
100
AcDbLine
 10
-24.999992
 20
9.000040
 30
0.0
 11
-24.596919
 21
8.959400
 31
0.0
  0
LINE
  5
239
100
AcDbEntity
  8
Layer_1
 62
7
100
AcDbLine
 10
-24.596919
 20
8.959400
 30
0.0
 11
-24.221496
 21
8.842870
 31
0.0
  0
LINE
  5
23a
100
AcDbEntity
  8
Layer_1
 62
7
100
AcDbLine
 10
-24.221496
 20
8.842870
 30
0.0
 11
-23.881765
 21
8.658466
 31
0.0
  0
LINE
  5
23b
100
AcDbEntity
  8
Layer_1
 62
7
100
AcDbLine
 10
-23.881765
 20
8.658466
 30
0.0
 11
-23.585770
 21
8.414231
 31
0.0
  0
LINE
  5
23c
100
AcDbEntity
  8
Layer_1
 62
7
100
AcDbLine
 10
-23.585770
 20
8.414231
 30
0.0
 11
-23.341552
 21
8.118236
 31
0.0
  0
LINE
  5
23d
100
AcDbEntity
  8
Layer_1
 62
7
100
AcDbLine
 10
-23.341552
 20
8.118236
 30
0.0
 11
-23.157155
 21
7.778526
 31
0.0
  0
LINE
  5
23e
100
AcDbEntity
  8
Layer_1
 62
7
100
AcDbLine
 10
-23.157155
 20
7.778526
 30
0.0
 11
-23.040621
 21
7.403085
 31
0.0
  0
LINE
  5
23f
100
AcDbEntity
  8
Layer_1
 62
7
100
AcDbLine
 10
-23.040621
 20
7.403085
 30
0.0
 11
-22.999992
 21
7.000016
 31
0.0
  0
LINE
  5
240
100
AcDbEntity
  8
Layer_1
 62
7
100
AcDbLine
 10
-13.000001
 20
6.999987
 30
0.0
 11
-13.040634
 21
6.596918
 31
0.0
  0
LINE
  5
241
100
AcDbEntity
  8
Layer_1
 62
7
100
AcDbLine
 10
-13.040634
 20
6.596918
 30
0.0
 11
-13.157171
 21
6.221506
 31
0.0
  0
LINE
  5
242
100
AcDbEntity
  8
Layer_1
 62
7
100
AcDbLine
 10
-13.157171
 20
6.221506
 30
0.0
 11
-13.341570
 21
5.881766
 31
0.0
  0
LINE
  5
243
100
AcDbEntity
  8
Layer_1
 62
7
100
AcDbLine
 10
-13.341570
 20
5.881766
 30
0.0
 11
-13.585789
 21
5.585772
 31
0.0
  0
LINE
  5
244
100
AcDbEntity
  8
Layer_1
 62
7
100
AcDbLine
 10
-13.585789
 20
5.585772
 30
0.0
 11
-13.881783
 21
5.341565
 31
0.0
  0
LINE
  5
245
100
AcDbEntity
  8
Layer_1
 62
7
100
AcDbLine
 10
-13.881783
 20
5.341565
 30
0.0
 11
-14.221511
 21
5.157161
 31
0.0
  0
LINE
  5
246
100
AcDbEntity
  8
Layer_1
 62
7
100
AcDbLine
 10
-14.221511
 20
5.157161
 30
0.0
 11
-14.596932
 21
5.040631
 31
0.0
  0
LINE
  5
247
100
AcDbEntity
  8
Layer_1
 62
7
100
AcDbLine
 10
-14.596932
 20
5.040631
 30
0.0
 11
-15.000001
 21
4.999991
 31
0.0
  0
LINE
  5
248
100
AcDbEntity
  8
Layer_1
 62
7
100
AcDbLine
 10
-15.000001
 20
4.999991
 30
0.0
 11
-15.403070
 21
5.040631
 31
0.0
  0
LINE
  5
249
100
AcDbEntity
  8
Layer_1
 62
7
100
AcDbLine
 10
-15.403070
 20
5.040631
 30
0.0
 11
-15.778490
 21
5.157161
 31
0.0
  0
LINE
  5
24a
100
AcDbEntity
  8
Layer_1
 62
7
100
AcDbLine
 10
-15.778490
 20
5.157161
 30
0.0
 11
-16.118219
 21
5.341565
 31
0.0
  0
LINE
  5
24b
100
AcDbEntity
  8
Layer_1
 62
7
100
AcDbLine
 10
-16.118219
 20
5.341565
 30
0.0
 11
-16.414213
 21
5.585772
 31
0.0
  0
LINE
  5
24c
100
AcDbEntity
  8
Layer_1
 62
7
100
AcDbLine
 10
-16.414213
 20
5.585772
 30
0.0
 11
-16.658431
 21
5.881766
 31
0.0
  0
LINE
  5
24d
100
AcDbEntity
  8
Layer_1
 62
7
100
AcDbLine
 10
-16.658431
 20
5.881766
 30
0.0
 11
-16.842830
 21
6.221506
 31
0.0
  0
LINE
  5
24e
100
AcDbEntity
  8
Layer_1
 62
7
100
AcDbLine
 10
-16.842830
 20
6.221506
 30
0.0
 11
-16.959367
 21
6.596918
 31
0.0
  0
LINE
  5
24f
100
AcDbEntity
  8
Layer_1
 62
7
100
AcDbLine
 10
-16.959367
 20
6.596918
 30
0.0
 11
-17.000001
 21
6.999987
 31
0.0
  0
LINE
  5
250
100
AcDbEntity
  8
Layer_1
 62
7
100
AcDbLine
 10
-17.000001
 20
6.999987
 30
0.0
 11
-16.959368
 21
7.403057
 31
0.0
  0
LINE
  5
251
100
AcDbEntity
  8
Layer_1
 62
7
100
AcDbLine
 10
-16.959368
 20
7.403057
 30
0.0
 11
-16.842831
 21
7.778469
 31
0.0
  0
LINE
  5
252
100
AcDbEntity
  8
Layer_1
 62
7
100
AcDbLine
 10
-16.842831
 20
7.778469
 30
0.0
 11
-16.658433
 21
8.118208
 31
0.0
  0
LINE
  5
253
100
AcDbEntity
  8
Layer_1
 62
7
100
AcDbLine
 10
-16.658433
 20
8.118208
 30
0.0
 11
-16.414215
 21
8.414203
 31
0.0
  0
LINE
  5
254
100
AcDbEntity
  8
Layer_1
 62
7
100
AcDbLine
 10
-16.414215
 20
8.414203
 30
0.0
 11
-16.118220
 21
8.658410
 31
0.0
  0
LINE
  5
255
100
AcDbEntity
  8
Layer_1
 62
7
100
AcDbLine
 10
-16.118220
 20
8.658410
 30
0.0
 11
-15.778491
 21
8.842814
 31
0.0
  0
LINE
  5
256
100
AcDbEntity
  8
Layer_1
 62
7
100
AcDbLine
 10
-15.778491
 20
8.842814
 30
0.0
 11
-15.403070
 21
8.959343
 31
0.0
  0
LINE
  5
257
100
AcDbEntity
  8
Layer_1
 62
7
100
AcDbLine
 10
-15.403070
 20
8.959343
 30
0.0
 11
-15.000001
 21
8.999983
 31
0.0
  0
LINE
  5
258
100
AcDbEntity
  8
Layer_1
 62
7
100
AcDbLine
 10
-15.000001
 20
8.999983
 30
0.0
 11
-14.596931
 21
8.959343
 31
0.0
  0
LINE
  5
259
100
AcDbEntity
  8
Layer_1
 62
7
100
AcDbLine
 10
-14.596931
 20
8.959343
 30
0.0
 11
-14.221511
 21
8.842814
 31
0.0
  0
LINE
  5
25a
100
AcDbEntity
  8
Layer_1
 62
7
100
AcDbLine
 10
-14.221511
 20
8.842814
 30
0.0
 11
-13.881782
 21
8.658410
 31
0.0
  0
LINE
  5
25b
100
AcDbEntity
  8
Layer_1
 62
7
100
AcDbLine
 10
-13.881782
 20
8.658410
 30
0.0
 11
-13.585787
 21
8.414203
 31
0.0
  0
LINE
  5
25c
100
AcDbEntity
  8
Layer_1
 62
7
100
AcDbLine
 10
-13.585787
 20
8.414203
 30
0.0
 11
-13.341569
 21
8.118208
 31
0.0
  0
LINE
  5
25d
100
AcDbEntity
  8
Layer_1
 62
7
100
AcDbLine
 10
-13.341569
 20
8.118208
 30
0.0
 11
-13.157170
 21
7.778469
 31
0.0
  0
LINE
  5
25e
100
AcDbEntity
  8
Layer_1
 62
7
100
AcDbLine
 10
-13.157170
 20
7.778469
 30
0.0
 11
-13.040633
 21
7.403057
 31
0.0
  0
LINE
  5
25f
100
AcDbEntity
  8
Layer_1
 62
7
100
AcDbLine
 10
-13.040633
 20
7.403057
 30
0.0
 11
-13.000001
 21
6.999987
 31
0.0
  0
LINE
  5
260
100
AcDbEntity
  8
Layer_1
 62
7
100
AcDbLine
 10
16.999994
 20
7.000016
 30
0.0
 11
16.959361
 21
6.596946
 31
0.0
  0
LINE
  5
261
100
AcDbEntity
  8
Layer_1
 62
7
100
AcDbLine
 10
16.959361
 20
6.596946
 30
0.0
 11
16.842823
 21
6.221534
 31
0.0
  0
LINE
  5
262
100
AcDbEntity
  8
Layer_1
 62
7
100
AcDbLine
 10
16.842823
 20
6.221534
 30
0.0
 11
16.658424
 21
5.881795
 31
0.0
  0
LINE
  5
263
100
AcDbEntity
  8
Layer_1
 62
7
100
AcDbLine
 10
16.658424
 20
5.881795
 30
0.0
 11
16.414206
 21
5.585800
 31
0.0
  0
LINE
  5
264
100
AcDbEntity
  8
Layer_1
 62
7
100
AcDbLine
 10
16.414206
 20
5.585800
 30
0.0
 11
16.118212
 21
5.341593
 31
0.0
  0
LINE
  5
265
100
AcDbEntity
  8
Layer_1
 62
7
100
AcDbLine
 10
16.118212
 20
5.341593
 30
0.0
 11
15.778484
 21
5.157189
 31
0.0
  0
LINE
  5
266
100
AcDbEntity
  8
Layer_1
 62
7
100
AcDbLine
 10
15.778484
 20
5.157189
 30
0.0
 11
15.403063
 21
5.040660
 31
0.0
  0
LINE
  5
267
100
AcDbEntity
  8
Layer_1
 62
7
100
AcDbLine
 10
15.403063
 20
5.040660
 30
0.0
 11
14.999994
 21
5.000020
 31
0.0
  0
LINE
  5
268
100
AcDbEntity
  8
Layer_1
 62
7
100
AcDbLine
 10
14.999994
 20
5.000020
 30
0.0
 11
14.596925
 21
5.040660
 31
0.0
  0
LINE
  5
269
100
AcDbEntity
  8
Layer_1
 62
7
100
AcDbLine
 10
14.596925
 20
5.040660
 30
0.0
 11
14.221505
 21
5.157189
 31
0.0
  0
LINE
  5
26a
100
AcDbEntity
  8
Layer_1
 62
7
100
AcDbLine
 10
14.221505
 20
5.157189
 30
0.0
 11
13.881776
 21
5.341593
 31
0.0
  0
LINE
  5
26b
100
AcDbEntity
  8
Layer_1
 62
7
100
AcDbLine
 10
13.881776
 20
5.341593
 30
0.0
 11
13.585782
 21
5.585800
 31
0.0
  0
LINE
  5
26c
100
AcDbEntity
  8
Layer_1
 62
7
100
AcDbLine
 10
13.585782
 20
5.585800
 30
0.0
 11
13.341564
 21
5.881795
 31
0.0
  0
LINE
  5
26d
100
AcDbEntity
  8
Layer_1
 62
7
100
AcDbLine
 10
13.341564
 20
5.881795
 30
0.0
 11
13.157165
 21
6.221534
 31
0.0
  0
LINE
  5
26e
100
AcDbEntity
  8
Layer_1
 62
7
100
AcDbLine
 10
13.157165
 20
6.221534
 30
0.0
 11
13.040628
 21
6.596946
 31
0.0
  0
LINE
  5
26f
100
AcDbEntity
  8
Layer_1
 62
7
100
AcDbLine
 10
13.040628
 20
6.596946
 30
0.0
 11
12.999994
 21
7.000016
 31
0.0
  0
LINE
  5
270
100
AcDbEntity
  8
Layer_1
 62
7
100
AcDbLine
 10
12.999994
 20
7.000016
 30
0.0
 11
13.040623
 21
7.403085
 31
0.0
  0
LINE
  5
271
100
AcDbEntity
  8
Layer_1
 62
7
100
AcDbLine
 10
13.040623
 20
7.403085
 30
0.0
 11
13.157157
 21
7.778526
 31
0.0
  0
LINE
  5
272
100
AcDbEntity
  8
Layer_1
 62
7
100
AcDbLine
 10
13.157157
 20
7.778526
 30
0.0
 11
13.341555
 21
8.118236
 31
0.0
  0
LINE
  5
273
100
AcDbEntity
  8
Layer_1
 62
7
100
AcDbLine
 10
13.341555
 20
8.118236
 30
0.0
 11
13.585772
 21
8.414231
 31
0.0
  0
LINE
  5
274
100
AcDbEntity
  8
Layer_1
 62
7
100
AcDbLine
 10
13.585772
 20
8.414231
 30
0.0
 11
13.881767
 21
8.658466
 31
0.0
  0
LINE
  5
275
100
AcDbEntity
  8
Layer_1
 62
7
100
AcDbLine
 10
13.881767
 20
8.658466
 30
0.0
 11
14.221498
 21
8.842870
 31
0.0
  0
LINE
  5
276
100
AcDbEntity
  8
Layer_1
 62
7
100
AcDbLine
 10
14.221498
 20
8.842870
 30
0.0
 11
14.596921
 21
8.959400
 31
0.0
  0
LINE
  5
277
100
AcDbEntity
  8
Layer_1
 62
7
100
AcDbLine
 10
14.596921
 20
8.959400
 30
0.0
 11
14.999994
 21
9.000040
 31
0.0
  0
LINE
  5
278
100
AcDbEntity
  8
Layer_1
 62
7
100
AcDbLine
 10
14.999994
 20
9.000040
 30
0.0
 11
15.403067
 21
8.959400
 31
0.0
  0
LINE
  5
279
100
AcDbEntity
  8
Layer_1
 62
7
100
AcDbLine
 10
15.403067
 20
8.959400
 30
0.0
 11
15.778490
 21
8.842870
 31
0.0
  0
LINE
  5
27a
100
AcDbEntity
  8
Layer_1
 62
7
100
AcDbLine
 10
15.778490
 20
8.842870
 30
0.0
 11
16.118221
 21
8.658466
 31
0.0
  0
LINE
  5
27b
100
AcDbEntity
  8
Layer_1
 62
7
100
AcDbLine
 10
16.118221
 20
8.658466
 30
0.0
 11
16.414216
 21
8.414231
 31
0.0
  0
LINE
  5
27c
100
AcDbEntity
  8
Layer_1
 62
7
100
AcDbLine
 10
16.414216
 20
8.414231
 30
0.0
 11
16.658434
 21
8.118236
 31
0.0
  0
LINE
  5
27d
100
AcDbEntity
  8
Layer_1
 62
7
100
AcDbLine
 10
16.658434
 20
8.118236
 30
0.0
 11
16.842831
 21
7.778526
 31
0.0
  0
LINE
  5
27e
100
AcDbEntity
  8
Layer_1
 62
7
100
AcDbLine
 10
16.842831
 20
7.778526
 30
0.0
 11
16.959366
 21
7.403085
 31
0.0
  0
LINE
  5
27f
100
AcDbEntity
  8
Layer_1
 62
7
100
AcDbLine
 10
16.959366
 20
7.403085
 30
0.0
 11
16.999994
 21
7.000016
 31
0.0
  0
LINE
  5
280
100
AcDbEntity
  8
Layer_1
 62
7
100
AcDbLine
 10
27.000005
 20
6.999987
 30
0.0
 11
26.959371
 21
6.596918
 31
0.0
  0
LINE
  5
281
100
AcDbEntity
  8
Layer_1
 62
7
100
AcDbLine
 10
26.959371
 20
6.596918
 30
0.0
 11
26.842834
 21
6.221506
 31
0.0
  0
LINE
  5
282
100
AcDbEntity
  8
Layer_1
 62
7
100
AcDbLine
 10
26.842834
 20
6.221506
 30
0.0
 11
26.658435
 21
5.881766
 31
0.0
  0
LINE
  5
283
100
AcDbEntity
  8
Layer_1
 62
7
100
AcDbLine
 10
26.658435
 20
5.881766
 30
0.0
 11
26.414217
 21
5.585772
 31
0.0
  0
LINE
  5
284
100
AcDbEntity
  8
Layer_1
 62
7
100
AcDbLine
 10
26.414217
 20
5.585772
 30
0.0
 11
26.118223
 21
5.341565
 31
0.0
  0
LINE
  5
285
100
AcDbEntity
  8
Layer_1
 62
7
100
AcDbLine
 10
26.118223
 20
5.341565
 30
0.0
 11
25.778494
 21
5.157161
 31
0.0
  0
LINE
  5
286
100
AcDbEntity
  8
Layer_1
 62
7
100
AcDbLine
 10
25.778494
 20
5.157161
 30
0.0
 11
25.403074
 21
5.040631
 31
0.0
  0
LINE
  5
287
100
AcDbEntity
  8
Layer_1
 62
7
100
AcDbLine
 10
25.403074
 20
5.040631
 30
0.0
 11
25.000005
 21
4.999991
 31
0.0
  0
LINE
  5
288
100
AcDbEntity
  8
Layer_1
 62
7
100
AcDbLine
 10
25.000005
 20
4.999991
 30
0.0
 11
24.596936
 21
5.040631
 31
0.0
  0
LINE
  5
289
100
AcDbEntity
  8
Layer_1
 62
7
100
AcDbLine
 10
24.596936
 20
5.040631
 30
0.0
 11
24.221516
 21
5.157161
 31
0.0
  0
LINE
  5
28a
100
AcDbEntity
  8
Layer_1
 62
7
100
AcDbLine
 10
24.221516
 20
5.157161
 30
0.0
 11
23.881787
 21
5.341565
 31
0.0
  0
LINE
  5
28b
100
AcDbEntity
  8
Layer_1
 62
7
100
AcDbLine
 10
23.881787
 20
5.341565
 30
0.0
 11
23.585793
 21
5.585772
 31
0.0
  0
LINE
  5
28c
100
AcDbEntity
  8
Layer_1
 62
7
100
AcDbLine
 10
23.585793
 20
5.585772
 30
0.0
 11
23.341575
 21
5.881766
 31
0.0
  0
LINE
  5
28d
100
AcDbEntity
  8
Layer_1
 62
7
100
AcDbLine
 10
23.341575
 20
5.881766
 30
0.0
 11
23.157176
 21
6.221506
 31
0.0
  0
LINE
  5
28e
100
AcDbEntity
  8
Layer_1
 62
7
100
AcDbLine
 10
23.157176
 20
6.221506
 30
0.0
 11
23.040639
 21
6.596918
 31
0.0
  0
LINE
  5
28f
100
AcDbEntity
  8
Layer_1
 62
7
100
AcDbLine
 10
23.040639
 20
6.596918
 30
0.0
 11
23.000005
 21
6.999987
 31
0.0
  0
LINE
  5
290
100
AcDbEntity
  8
Layer_1
 62
7
100
AcDbLine
 10
23.000005
 20
6.999987
 30
0.0
 11
23.040637
 21
7.403057
 31
0.0
  0
LINE
  5
291
100
AcDbEntity
  8
Layer_1
 62
7
100
AcDbLine
 10
23.040637
 20
7.403057
 30
0.0
 11
23.157174
 21
7.778469
 31
0.0
  0
LINE
  5
292
100
AcDbEntity
  8
Layer_1
 62
7
100
AcDbLine
 10
23.157174
 20
7.778469
 30
0.0
 11
23.341573
 21
8.118208
 31
0.0
  0
LINE
  5
293
100
AcDbEntity
  8
Layer_1
 62
7
100
AcDbLine
 10
23.341573
 20
8.118208
 30
0.0
 11
23.585791
 21
8.414203
 31
0.0
  0
LINE
  5
294
100
AcDbEntity
  8
Layer_1
 62
7
100
AcDbLine
 10
23.585791
 20
8.414203
 30
0.0
 11
23.881786
 21
8.658410
 31
0.0
  0
LINE
  5
295
100
AcDbEntity
  8
Layer_1
 62
7
100
AcDbLine
 10
23.881786
 20
8.658410
 30
0.0
 11
24.221515
 21
8.842814
 31
0.0
  0
LINE
  5
296
100
AcDbEntity
  8
Layer_1
 62
7
100
AcDbLine
 10
24.221515
 20
8.842814
 30
0.0
 11
24.596936
 21
8.959343
 31
0.0
  0
LINE
  5
297
100
AcDbEntity
  8
Layer_1
 62
7
100
AcDbLine
 10
24.596936
 20
8.959343
 30
0.0
 11
25.000005
 21
8.999983
 31
0.0
  0
LINE
  5
298
100
AcDbEntity
  8
Layer_1
 62
7
100
AcDbLine
 10
25.000005
 20
8.999983
 30
0.0
 11
25.403075
 21
8.959343
 31
0.0
  0
LINE
  5
299
100
AcDbEntity
  8
Layer_1
 62
7
100
AcDbLine
 10
25.403075
 20
8.959343
 30
0.0
 11
25.778495
 21
8.842814
 31
0.0
  0
LINE
  5
29a
100
AcDbEntity
  8
Layer_1
 62
7
100
AcDbLine
 10
25.778495
 20
8.842814
 30
0.0
 11
26.118224
 21
8.658410
 31
0.0
  0
LINE
  5
29b
100
AcDbEntity
  8
Layer_1
 62
7
100
AcDbLine
 10
26.118224
 20
8.658410
 30
0.0
 11
26.414219
 21
8.414203
 31
0.0
  0
LINE
  5
29c
100
AcDbEntity
  8
Layer_1
 62
7
100
AcDbLine
 10
26.414219
 20
8.414203
 30
0.0
 11
26.658437
 21
8.118208
 31
0.0
  0
LINE
  5
29d
100
AcDbEntity
  8
Layer_1
 62
7
100
AcDbLine
 10
26.658437
 20
8.118208
 30
0.0
 11
26.842836
 21
7.778469
 31
0.0
  0
LINE
  5
29e
100
AcDbEntity
  8
Layer_1
 62
7
100
AcDbLine
 10
26.842836
 20
7.778469
 30
0.0
 11
26.959373
 21
7.403057
 31
0.0
  0
LINE
  5
29f
100
AcDbEntity
  8
Layer_1
 62
7
100
AcDbLine
 10
26.959373
 20
7.403057
 30
0.0
 11
27.000005
 21
6.999987
 31
0.0
  0
LINE
  5
2a0
100
AcDbEntity
  8
Layer_1
 62
7
100
AcDbLine
 10
36.999997
 20
7.000016
 30
0.0
 11
36.959362
 21
6.596946
 31
0.0
  0
LINE
  5
2a1
100
AcDbEntity
  8
Layer_1
 62
7
100
AcDbLine
 10
36.959362
 20
6.596946
 30
0.0
 11
36.842827
 21
6.221534
 31
0.0
  0
LINE
  5
2a2
100
AcDbEntity
  8
Layer_1
 62
7
100
AcDbLine
 10
36.842827
 20
6.221534
 30
0.0
 11
36.658426
 21
5.881795
 31
0.0
  0
LINE
  5
2a3
100
AcDbEntity
  8
Layer_1
 62
7
100
AcDbLine
 10
36.658426
 20
5.881795
 30
0.0
 11
36.414210
 21
5.585800
 31
0.0
  0
LINE
  5
2a4
100
AcDbEntity
  8
Layer_1
 62
7
100
AcDbLine
 10
36.414210
 20
5.585800
 30
0.0
 11
36.118216
 21
5.341593
 31
0.0
  0
LINE
  5
2a5
100
AcDbEntity
  8
Layer_1
 62
7
100
AcDbLine
 10
36.118216
 20
5.341593
 30
0.0
 11
35.778488
 21
5.157189
 31
0.0
  0
LINE
  5
2a6
100
AcDbEntity
  8
Layer_1
 62
7
100
AcDbLine
 10
35.778488
 20
5.157189
 30
0.0
 11
35.403068
 21
5.040660
 31
0.0
  0
LINE
  5
2a7
100
AcDbEntity
  8
Layer_1
 62
7
100
AcDbLine
 10
35.403068
 20
5.040660
 30
0.0
 11
34.999998
 21
5.000020
 31
0.0
  0
LINE
  5
2a8
100
AcDbEntity
  8
Layer_1
 62
7
100
AcDbLine
 10
34.999998
 20
5.000020
 30
0.0
 11
34.596928
 21
5.040660
 31
0.0
  0
LINE
  5
2a9
100
AcDbEntity
  8
Layer_1
 62
7
100
AcDbLine
 10
34.596928
 20
5.040660
 30
0.0
 11
34.221507
 21
5.157189
 31
0.0
  0
LINE
  5
2aa
100
AcDbEntity
  8
Layer_1
 62
7
100
AcDbLine
 10
34.221507
 20
5.157189
 30
0.0
 11
33.881780
 21
5.341593
 31
0.0
  0
LINE
  5
2ab
100
AcDbEntity
  8
Layer_1
 62
7
100
AcDbLine
 10
33.881780
 20
5.341593
 30
0.0
 11
33.585785
 21
5.585800
 31
0.0
  0
LINE
  5
2ac
100
AcDbEntity
  8
Layer_1
 62
7
100
AcDbLine
 10
33.585785
 20
5.585800
 30
0.0
 11
33.341570
 21
5.881795
 31
0.0
  0
LINE
  5
2ad
100
AcDbEntity
  8
Layer_1
 62
7
100
AcDbLine
 10
33.341570
 20
5.881795
 30
0.0
 11
33.157168
 21
6.221534
 31
0.0
  0
LINE
  5
2ae
100
AcDbEntity
  8
Layer_1
 62
7
100
AcDbLine
 10
33.157168
 20
6.221534
 30
0.0
 11
33.040633
 21
6.596946
 31
0.0
  0
LINE
  5
2af
100
AcDbEntity
  8
Layer_1
 62
7
100
AcDbLine
 10
33.040633
 20
6.596946
 30
0.0
 11
32.999999
 21
7.000016
 31
0.0
  0
LINE
  5
2b0
100
AcDbEntity
  8
Layer_1
 62
7
100
AcDbLine
 10
32.999999
 20
7.000016
 30
0.0
 11
33.040628
 21
7.403085
 31
0.0
  0
LINE
  5
2b1
100
AcDbEntity
  8
Layer_1
 62
7
100
AcDbLine
 10
33.040628
 20
7.403085
 30
0.0
 11
33.157163
 21
7.778526
 31
0.0
  0
LINE
  5
2b2
100
AcDbEntity
  8
Layer_1
 62
7
100
AcDbLine
 10
33.157163
 20
7.778526
 30
0.0
 11
33.341558
 21
8.118236
 31
0.0
  0
LINE
  5
2b3
100
AcDbEntity
  8
Layer_1
 62
7
100
AcDbLine
 10
33.341558
 20
8.118236
 30
0.0
 11
33.585777
 21
8.414231
 31
0.0
  0
LINE
  5
2b4
100
AcDbEntity
  8
Layer_1
 62
7
100
AcDbLine
 10
33.585777
 20
8.414231
 30
0.0
 11
33.881771
 21
8.658466
 31
0.0
  0
LINE
  5
2b5
100
AcDbEntity
  8
Layer_1
 62
7
100
AcDbLine
 10
33.881771
 20
8.658466
 30
0.0
 11
34.221502
 21
8.842870
 31
0.0
  0
LINE
  5
2b6
100
AcDbEntity
  8
Layer_1
 62
7
100
AcDbLine
 10
34.221502
 20
8.842870
 30
0.0
 11
34.596925
 21
8.959400
 31
0.0
  0
LINE
  5
2b7
100
AcDbEntity
  8
Layer_1
 62
7
100
AcDbLine
 10
34.596925
 20
8.959400
 30
0.0
 11
34.999998
 21
9.000040
 31
0.0
  0
LINE
  5
2b8
100
AcDbEntity
  8
Layer_1
 62
7
100
AcDbLine
 10
34.999998
 20
9.000040
 30
0.0
 11
35.403070
 21
8.959400
 31
0.0
  0
LINE
  5
2b9
100
AcDbEntity
  8
Layer_1
 62
7
100
AcDbLine
 10
35.403070
 20
8.959400
 30
0.0
 11
35.778494
 21
8.842870
 31
0.0
  0
LINE
  5
2ba
100
AcDbEntity
  8
Layer_1
 62
7
100
AcDbLine
 10
35.778494
 20
8.842870
 30
0.0
 11
36.118224
 21
8.658466
 31
0.0
  0
LINE
  5
2bb
100
AcDbEntity
  8
Layer_1
 62
7
100
AcDbLine
 10
36.118224
 20
8.658466
 30
0.0
 11
36.414219
 21
8.414231
 31
0.0
  0
LINE
  5
2bc
100
AcDbEntity
  8
Layer_1
 62
7
100
AcDbLine
 10
36.414219
 20
8.414231
 30
0.0
 11
36.658437
 21
8.118236
 31
0.0
  0
LINE
  5
2bd
100
AcDbEntity
  8
Layer_1
 62
7
100
AcDbLine
 10
36.658437
 20
8.118236
 30
0.0
 11
36.842833
 21
7.778526
 31
0.0
  0
LINE
  5
2be
100
AcDbEntity
  8
Layer_1
 62
7
100
AcDbLine
 10
36.842833
 20
7.778526
 30
0.0
 11
36.959368
 21
7.403085
 31
0.0
  0
LINE
  5
2bf
100
AcDbEntity
  8
Layer_1
 62
7
100
AcDbLine
 10
36.959368
 20
7.403085
 30
0.0
 11
36.999997
 21
7.000016
 31
0.0
  0
LINE
  5
2c0
100
AcDbEntity
  8
Layer_1
 62
7
100
AcDbLine
 10
47.000005
 20
6.999987
 30
0.0
 11
46.959370
 21
6.596918
 31
0.0
  0
LINE
  5
2c1
100
AcDbEntity
  8
Layer_1
 62
7
100
AcDbLine
 10
46.959370
 20
6.596918
 30
0.0
 11
46.842835
 21
6.221506
 31
0.0
  0
LINE
  5
2c2
100
AcDbEntity
  8
Layer_1
 62
7
100
AcDbLine
 10
46.842835
 20
6.221506
 30
0.0
 11
46.658434
 21
5.881766
 31
0.0
  0
LINE
  5
2c3
100
AcDbEntity
  8
Layer_1
 62
7
100
AcDbLine
 10
46.658434
 20
5.881766
 30
0.0
 11
46.414219
 21
5.585772
 31
0.0
  0
LINE
  5
2c4
100
AcDbEntity
  8
Layer_1
 62
7
100
AcDbLine
 10
46.414219
 20
5.585772
 30
0.0
 11
46.118224
 21
5.341565
 31
0.0
  0
LINE
  5
2c5
100
AcDbEntity
  8
Layer_1
 62
7
100
AcDbLine
 10
46.118224
 20
5.341565
 30
0.0
 11
45.778496
 21
5.157161
 31
0.0
  0
LINE
  5
2c6
100
AcDbEntity
  8
Layer_1
 62
7
100
AcDbLine
 10
45.778496
 20
5.157161
 30
0.0
 11
45.403076
 21
5.040631
 31
0.0
  0
LINE
  5
2c7
100
AcDbEntity
  8
Layer_1
 62
7
100
AcDbLine
 10
45.403076
 20
5.040631
 30
0.0
 11
45.000006
 21
4.999991
 31
0.0
  0
LINE
  5
2c8
100
AcDbEntity
  8
Layer_1
 62
7
100
AcDbLine
 10
45.000006
 20
4.999991
 30
0.0
 11
44.596936
 21
5.040631
 31
0.0
  0
LINE
  5
2c9
100
AcDbEntity
  8
Layer_1
 62
7
100
AcDbLine
 10
44.596936
 20
5.040631
 30
0.0
 11
44.221516
 21
5.157161
 31
0.0
  0
LINE
  5
2ca
100
AcDbEntity
  8
Layer_1
 62
7
100
AcDbLine
 10
44.221516
 20
5.157161
 30
0.0
 11
43.881788
 21
5.341565
 31
0.0
  0
LINE
  5
2cb
100
AcDbEntity
  8
Layer_1
 62
7
100
AcDbLine
 10
43.881788
 20
5.341565
 30
0.0
 11
43.585793
 21
5.585772
 31
0.0
  0
LINE
  5
2cc
100
AcDbEntity
  8
Layer_1
 62
7
100
AcDbLine
 10
43.585793
 20
5.585772
 30
0.0
 11
43.341575
 21
5.881766
 31
0.0
  0
LINE
  5
2cd
100
AcDbEntity
  8
Layer_1
 62
7
100
AcDbLine
 10
43.341575
 20
5.881766
 30
0.0
 11
43.157177
 21
6.221506
 31
0.0
  0
LINE
  5
2ce
100
AcDbEntity
  8
Layer_1
 62
7
100
AcDbLine
 10
43.157177
 20
6.221506
 30
0.0
 11
43.040639
 21
6.596918
 31
0.0
  0
LINE
  5
2cf
100
AcDbEntity
  8
Layer_1
 62
7
100
AcDbLine
 10
43.040639
 20
6.596918
 30
0.0
 11
43.000004
 21
6.999987
 31
0.0
  0
LINE
  5
2d0
100
AcDbEntity
  8
Layer_1
 62
7
100
AcDbLine
 10
43.000004
 20
6.999987
 30
0.0
 11
43.040636
 21
7.403057
 31
0.0
  0
LINE
  5
2d1
100
AcDbEntity
  8
Layer_1
 62
7
100
AcDbLine
 10
43.040636
 20
7.403057
 30
0.0
 11
43.157174
 21
7.778469
 31
0.0
  0
LINE
  5
2d2
100
AcDbEntity
  8
Layer_1
 62
7
100
AcDbLine
 10
43.157174
 20
7.778469
 30
0.0
 11
43.341572
 21
8.118208
 31
0.0
  0
LINE
  5
2d3
100
AcDbEntity
  8
Layer_1
 62
7
100
AcDbLine
 10
43.341572
 20
8.118208
 30
0.0
 11
43.585790
 21
8.414203
 31
0.0
  0
LINE
  5
2d4
100
AcDbEntity
  8
Layer_1
 62
7
100
AcDbLine
 10
43.585790
 20
8.414203
 30
0.0
 11
43.881785
 21
8.658410
 31
0.0
  0
LINE
  5
2d5
100
AcDbEntity
  8
Layer_1
 62
7
100
AcDbLine
 10
43.881785
 20
8.658410
 30
0.0
 11
44.221516
 21
8.842814
 31
0.0
  0
LINE
  5
2d6
100
AcDbEntity
  8
Layer_1
 62
7
100
AcDbLine
 10
44.221516
 20
8.842814
 30
0.0
 11
44.596936
 21
8.959343
 31
0.0
  0
LINE
  5
2d7
100
AcDbEntity
  8
Layer_1
 62
7
100
AcDbLine
 10
44.596936
 20
8.959343
 30
0.0
 11
45.000006
 21
8.999983
 31
0.0
  0
LINE
  5
2d8
100
AcDbEntity
  8
Layer_1
 62
7
100
AcDbLine
 10
45.000006
 20
8.999983
 30
0.0
 11
45.403076
 21
8.959343
 31
0.0
  0
LINE
  5
2d9
100
AcDbEntity
  8
Layer_1
 62
7
100
AcDbLine
 10
45.403076
 20
8.959343
 30
0.0
 11
45.778496
 21
8.842814
 31
0.0
  0
LINE
  5
2da
100
AcDbEntity
  8
Layer_1
 62
7
100
AcDbLine
 10
45.778496
 20
8.842814
 30
0.0
 11
46.118224
 21
8.658410
 31
0.0
  0
LINE
  5
2db
100
AcDbEntity
  8
Layer_1
 62
7
100
AcDbLine
 10
46.118224
 20
8.658410
 30
0.0
 11
46.414219
 21
8.414203
 31
0.0
  0
LINE
  5
2dc
100
AcDbEntity
  8
Layer_1
 62
7
100
AcDbLine
 10
46.414219
 20
8.414203
 30
0.0
 11
46.658437
 21
8.118208
 31
0.0
  0
LINE
  5
2dd
100
AcDbEntity
  8
Layer_1
 62
7
100
AcDbLine
 10
46.658437
 20
8.118208
 30
0.0
 11
46.842835
 21
7.778469
 31
0.0
  0
LINE
  5
2de
100
AcDbEntity
  8
Layer_1
 62
7
100
AcDbLine
 10
46.842835
 20
7.778469
 30
0.0
 11
46.959373
 21
7.403057
 31
0.0
  0
LINE
  5
2df
100
AcDbEntity
  8
Layer_1
 62
7
100
AcDbLine
 10
46.959373
 20
7.403057
 30
0.0
 11
47.000005
 21
6.999987
 31
0.0
  0
LINE
  5
2e0
100
AcDbEntity
  8
Layer_1
 62
7
100
AcDbLine
 10
-7.000010
 20
-7.500026
 30
0.0
 11
-5.250006
 21
-7.500026
 31
0.0
  0
LINE
  5
2e1
100
AcDbEntity
  8
Layer_1
 62
7
100
AcDbLine
 10
-5.250006
 20
-7.500026
 30
0.0
 11
-3.500003
 21
-7.500026
 31
0.0
  0
LINE
  5
2e2
100
AcDbEntity
  8
Layer_1
 62
7
100
AcDbLine
 10
-3.500003
 20
-7.500026
 30
0.0
 11
-1.749999
 21
-7.500026
 31
0.0
  0
LINE
  5
2e3
100
AcDbEntity
  8
Layer_1
 62
7
100
AcDbLine
 10
-1.749999
 20
-7.500026
 30
0.0
 11
0.000005
 21
-7.500026
 31
0.0
  0
LINE
  5
2e4
100
AcDbEntity
  8
Layer_1
 62
7
100
AcDbLine
 10
0.000005
 20
-7.500026
 30
0.0
 11
1.750008
 21
-7.500026
 31
0.0
  0
LINE
  5
2e5
100
AcDbEntity
  8
Layer_1
 62
7
100
AcDbLine
 10
1.750008
 20
-7.500026
 30
0.0
 11
3.500012
 21
-7.500026
 31
0.0
  0
LINE
  5
2e6
100
AcDbEntity
  8
Layer_1
 62
7
100
AcDbLine
 10
3.500012
 20
-7.500026
 30
0.0
 11
5.250015
 21
-7.500026
 31
0.0
  0
LINE
  5
2e7
100
AcDbEntity
  8
Layer_1
 62
7
100
AcDbLine
 10
5.250015
 20
-7.500026
 30
0.0
 11
7.000019
 21
-7.500026
 31
0.0
  0
LINE
  5
2e8
100
AcDbEntity
  8
Layer_1
 62
7
100
AcDbLine
 10
7.000019
 20
-7.500026
 30
0.0
 11
7.990248
 21
-6.511260
 31
0.0
  0
LINE
  5
2e9
100
AcDbEntity
  8
Layer_1
 62
7
100
AcDbLine
 10
7.990248
 20
-6.511260
 30
0.0
 11
8.734385
 21
-5.449258
 31
0.0
  0
LINE
  5
2ea
100
AcDbEntity
  8
Layer_1
 62
7
100
AcDbLine
 10
8.734385
 20
-5.449258
 30
0.0
 11
9.267586
 21
-4.357961
 31
0.0
  0
LINE
  5
2eb
100
AcDbEntity
  8
Layer_1
 62
7
100
AcDbLine
 10
9.267586
 20
-4.357961
 30
0.0
 11
9.625006
 21
-3.281284
 31
0.0
  0
LINE
  5
2ec
100
AcDbEntity
  8
Layer_1
 62
7
100
AcDbLine
 10
9.625006
 20
-3.281284
 30
0.0
 11
9.841802
 21
-2.263223
 31
0.0
  0
LINE
  5
2ed
100
AcDbEntity
  8
Layer_1
 62
7
100
AcDbLine
 10
9.841802
 20
-2.263223
 30
0.0
 11
9.953129
 21
-1.347694
 31
0.0
  0
LINE
  5
2ee
100
AcDbEntity
  8
Layer_1
 62
7
100
AcDbLine
 10
9.953129
 20
-1.347694
 30
0.0
 11
9.994145
 21
-0.578667
 31
0.0
  0
LINE
  5
2ef
100
AcDbEntity
  8
Layer_1
 62
7
100
AcDbLine
 10
9.994145
 20
-0.578667
 30
0.0
 11
10.000004
 21
-0.000055
 31
0.0
  0
LINE
  5
2f0
100
AcDbEntity
  8
Layer_1
 62
7
100
AcDbLine
 10
10.000004
 20
-0.000055
 30
0.0
 11
9.994145
 21
0.578557
 31
0.0
  0
LINE
  5
2f1
100
AcDbEntity
  8
Layer_1
 62
7
100
AcDbLine
 10
9.994145
 20
0.578557
 30
0.0
 11
9.953129
 21
1.347612
 31
0.0
  0
LINE
  5
2f2
100
AcDbEntity
  8
Layer_1
 62
7
100
AcDbLine
 10
9.953129
 20
1.347612
 30
0.0
 11
9.841802
 21
2.263141
 31
0.0
  0
LINE
  5
2f3
100
AcDbEntity
  8
Layer_1
 62
7
100
AcDbLine
 10
9.841802
 20
2.263141
 30
0.0
 11
9.625006
 21
3.281202
 31
0.0
  0
LINE
  5
2f4
100
AcDbEntity
  8
Layer_1
 62
7
100
AcDbLine
 10
9.625006
 20
3.281202
 30
0.0
 11
9.267586
 21
4.357879
 31
0.0
  0
LINE
  5
2f5
100
AcDbEntity
  8
Layer_1
 62
7
100
AcDbLine
 10
9.267586
 20
4.357879
 30
0.0
 11
8.734385
 21
5.449204
 31
0.0
  0
LINE
  5
2f6
100
AcDbEntity
  8
Layer_1
 62
7
100
AcDbLine
 10
8.734385
 20
5.449204
 30
0.0
 11
7.990248
 21
6.511207
 31
0.0
  0
LINE
  5
2f7
100
AcDbEntity
  8
Layer_1
 62
7
100
AcDbLine
 10
7.990248
 20
6.511207
 30
0.0
 11
7.000019
 21
7.500000
 31
0.0
  0
LINE
  5
2f8
100
AcDbEntity
  8
Layer_1
 62
7
100
AcDbLine
 10
7.000019
 20
7.500000
 30
0.0
 11
5.250015
 21
7.500000
 31
0.0
  0
LINE
  5
2f9
100
AcDbEntity
  8
Layer_1
 62
7
100
AcDbLine
 10
5.250015
 20
7.500000
 30
0.0
 11
3.500012
 21
7.500000
 31
0.0
  0
LINE
  5
2fa
100
AcDbEntity
  8
Layer_1
 62
7
100
AcDbLine
 10
3.500012
 20
7.500000
 30
0.0
 11
1.750008
 21
7.500000
 31
0.0
  0
LINE
  5
2fb
100
AcDbEntity
  8
Layer_1
 62
7
100
AcDbLine
 10
1.750008
 20
7.500000
 30
0.0
 11
0.000005
 21
7.500000
 31
0.0
  0
LINE
  5
2fc
100
AcDbEntity
  8
Layer_1
 62
7
100
AcDbLine
 10
0.000005
 20
7.500000
 30
0.0
 11
-1.749999
 21
7.500000
 31
0.0
  0
LINE
  5
2fd
100
AcDbEntity
  8
Layer_1
 62
7
100
AcDbLine
 10
-1.749999
 20
7.500000
 30
0.0
 11
-3.500003
 21
7.500000
 31
0.0
  0
LINE
  5
2fe
100
AcDbEntity
  8
Layer_1
 62
7
100
AcDbLine
 10
-3.500003
 20
7.500000
 30
0.0
 11
-5.250006
 21
7.500000
 31
0.0
  0
LINE
  5
2ff
100
AcDbEntity
  8
Layer_1
 62
7
100
AcDbLine
 10
-5.250006
 20
7.500000
 30
0.0
 11
-7.000010
 21
7.500000
 31
0.0
  0
LINE
  5
300
100
AcDbEntity
  8
Layer_1
 62
7
100
AcDbLine
 10
-7.000010
 20
7.500000
 30
0.0
 11
-7.990239
 21
6.511207
 31
0.0
  0
LINE
  5
301
100
AcDbEntity
  8
Layer_1
 62
7
100
AcDbLine
 10
-7.990239
 20
6.511207
 30
0.0
 11
-8.734376
 21
5.449204
 31
0.0
  0
LINE
  5
302
100
AcDbEntity
  8
Layer_1
 62
7
100
AcDbLine
 10
-8.734376
 20
5.449204
 30
0.0
 11
-9.267577
 21
4.357879
 31
0.0
  0
LINE
  5
303
100
AcDbEntity
  8
Layer_1
 62
7
100
AcDbLine
 10
-9.267577
 20
4.357879
 30
0.0
 11
-9.624997
 21
3.281202
 31
0.0
  0
LINE
  5
304
100
AcDbEntity
  8
Layer_1
 62
7
100
AcDbLine
 10
-9.624997
 20
3.281202
 30
0.0
 11
-9.841793
 21
2.263141
 31
0.0
  0
LINE
  5
305
100
AcDbEntity
  8
Layer_1
 62
7
100
AcDbLine
 10
-9.841793
 20
2.263141
 30
0.0
 11
-9.953120
 21
1.347612
 31
0.0
  0
LINE
  5
306
100
AcDbEntity
  8
Layer_1
 62
7
100
AcDbLine
 10
-9.953120
 20
1.347612
 30
0.0
 11
-9.994136
 21
0.578557
 31
0.0
  0
LINE
  5
307
100
AcDbEntity
  8
Layer_1
 62
7
100
AcDbLine
 10
-9.994136
 20
0.578557
 30
0.0
 11
-9.999995
 21
-0.000055
 31
0.0
  0
LINE
  5
308
100
AcDbEntity
  8
Layer_1
 62
7
100
AcDbLine
 10
-9.999995
 20
-0.000055
 30
0.0
 11
-9.994136
 21
-0.578667
 31
0.0
  0
LINE
  5
309
100
AcDbEntity
  8
Layer_1
 62
7
100
AcDbLine
 10
-9.994136
 20
-0.578667
 30
0.0
 11
-9.953120
 21
-1.347694
 31
0.0
  0
LINE
  5
30a
100
AcDbEntity
  8
Layer_1
 62
7
100
AcDbLine
 10
-9.953120
 20
-1.347694
 30
0.0
 11
-9.841793
 21
-2.263223
 31
0.0
  0
LINE
  5
30b
100
AcDbEntity
  8
Layer_1
 62
7
100
AcDbLine
 10
-9.841793
 20
-2.263223
 30
0.0
 11
-9.624997
 21
-3.281284
 31
0.0
  0
LINE
  5
30c
100
AcDbEntity
  8
Layer_1
 62
7
100
AcDbLine
 10
-9.624997
 20
-3.281284
 30
0.0
 11
-9.267577
 21
-4.357961
 31
0.0
  0
LINE
  5
30d
100
AcDbEntity
  8
Layer_1
 62
7
100
AcDbLine
 10
-9.267577
 20
-4.357961
 30
0.0
 11
-8.734376
 21
-5.449258
 31
0.0
  0
LINE
  5
30e
100
AcDbEntity
  8
Layer_1
 62
7
100
AcDbLine
 10
-8.734376
 20
-5.449258
 30
0.0
 11
-7.990239
 21
-6.511260
 31
0.0
  0
LINE
  5
30f
100
AcDbEntity
  8
Layer_1
 62
7
100
AcDbLine
 10
-7.990239
 20
-6.511260
 30
0.0
 11
-7.000010
 21
-7.500026
 31
0.0
  0
ENDSEC
  0
SECTION
  2
OBJECTS
  0
DICTIONARY
  5
C
330
0
100
AcDbDictionary
  3
ACAD_GROUP
350
D
  3
ACAD_MLINESTYLE
350
17
  0
DICTIONARY
  5
D
330
C
100
AcDbDictionary
  0
DICTIONARY
  5
1A
330
C
100
AcDbDictionary
  0
DICTIONARY
  5
17
330
C
100
AcDbDictionary
  3
STANDARD
350
18
  0
DICTIONARY
  5
19
330
C
100
AcDbDictionary
  0
ENDSEC
  0
EOF
