  0
SECTION
  2
HEADER
  9
$ACADVER
  1
AC1014
  9
$HANDSEED
  5
FFFF
  9
$MEASUREMENT
 70
     1
  0
ENDSEC
  0
SECTION
  2
TABLES
  0
TABLE
  2
VPORT
  5
8
330
0
100
AcDbSymbolTable
 70
     4
  0
VPORT
  5
2E
330
8
100
AcDbSymbolTableRecord
100
AcDbViewportTableRecord
  2
*ACTIVE
 70
     0
 10
0.0
 20
0.0
 11
1.0
 21
1.0
 12
210.0
 22
148.5
 13
0.0
 23
0.0
 14
10.0
 24
10.0
 15
10.0
 25
10.0
 16
0.0
 26
0.0
 36
1.0
 17
0.0
 27
0.0
 37
0.0
 40
341.0
 41
1.24
 42
50.0
 43
0.0
 44
0.0
 50
0.0
 51
0.0
 71
     0
 72
   100
 73
     1
 74
     3
 75
     0
 76
     0
 77
     0
 78
     0
  0
ENDTAB
  0
TABLE
  2
LTYPE
  5
5
330
0
100
AcDbSymbolTable
 70
     1
  0
LTYPE
  5
14
330
5
100
AcDbSymbolTableRecord
100
AcDbLinetypeTableRecord
  2
BYBLOCK
 70
     0
  3

 72
    65
 73
     0
 40
0.0
  0
LTYPE
  5
15
330
5
100
AcDbSymbolTableRecord
100
AcDbLinetypeTableRecord
  2
BYLAYER
 70
     0
  3

 72
    65
 73
     0
 40
0.0
  0
LTYPE
  5
16
330
5
100
AcDbSymbolTableRecord
100
AcDbLinetypeTableRecord
  2
CONTINUOUS
 70
     0
  3
Solid line
 72
    65
 73
     0
 40
0.0
  0
ENDTAB
  0
TABLE
  2
LAYER
  5
2
100
AcDbSymbolTable
 70
2
  0
LAYER
  5
50
100
AcDbSymbolTableRecord
100
AcDbLayerTableRecord
  2
0
 70
0
  6
CONTINUOUS
  0
LAYER
  5
51
100
AcDbSymbolTableRecord
100
AcDbLayerTableRecord
  2
Layer_1
 70
0
  6
CONTINUOUS
  0
ENDTAB
  0
TABLE
  2
STYLE
  5
3
330
0
100
AcDbSymbolTable
 70
     1
  0
STYLE
  5
11
330
3
100
AcDbSymbolTableRecord
100
AcDbTextStyleTableRecord
  2
STANDARD
 70
     0
 40
0.0
 41
1.0
 50
0.0
 71
     0
 42
2.5
  3
txt
  4

  0
ENDTAB
  0
TABLE
  2
VIEW
  5
6
330
0
100
AcDbSymbolTable
 70
     0
  0
ENDTAB
  0
TABLE
  2
UCS
  5
7
330
0
100
AcDbSymbolTable
 70
     0
  0
ENDTAB
  0
TABLE
  2
APPID
  5
9
330
0
100
AcDbSymbolTable
 70
     2
  0
APPID
  5
12
330
9
100
AcDbSymbolTableRecord
100
AcDbRegAppTableRecord
  2
ACAD
 70
     0
  0
ENDTAB
  0
TABLE
  2
DIMSTYLE
  5
A
330
0
100
AcDbSymbolTable
 70
     1
  0
DIMSTYLE
105
27
330
A
100
AcDbSymbolTableRecord
100
AcDbDimStyleTableRecord
  2
ISO-25
 70
     0
  3

  4

  5

  6

  7

 40
1.0
 41
2.5
 42
0.625
 43
3.75
 44
1.25
 45
0.0
 46
0.0
 47
0.0
 48
0.0
140
2.5
141
2.5
142
0.0
143
0.03937007874016
144
1.0
145
0.0
146
1.0
147
0.625
 71
     0
 72
     0
 73
     0
 74
     0
 75
     0
 76
     0
 77
     1
 78
     8
170
     0
171
     3
172
     1
173
     0
174
     0
175
     0
176
     0
177
     0
178
     0
270
     2
271
     2
272
     2
273
     2
274
     3
340
11
275
     0
280
     0
281
     0
282
     0
283
     0
284
     8
285
     0
286
     0
287
     3
288
     0
  0
ENDTAB
  0
TABLE
  2
BLOCK_RECORD
  5
1
330
0
100
AcDbSymbolTable
 70
     1
  0
BLOCK_RECORD
  5
1F
330
1
100
AcDbSymbolTableRecord
100
AcDbBlockTableRecord
  2
*MODEL_SPACE
  0
BLOCK_RECORD
  5
1B
330
1
100
AcDbSymbolTableRecord
100
AcDbBlockTableRecord
  2
*PAPER_SPACE
  0
ENDTAB
  0
ENDSEC
  0
SECTION
  2
BLOCKS
  0
BLOCK
  5
20
330
1F
100
AcDbEntity
  8
0
100
AcDbBlockBegin
  2
*MODEL_SPACE
 70
     0
 10
0.0
 20
0.0
 30
0.0
  3
*MODEL_SPACE
  1

  0
ENDBLK
  5
21
330
1F
100
AcDbEntity
  8
0
100
AcDbBlockEnd
  0
BLOCK
  5
1C
330
1B
100
AcDbEntity
 67
     1
  8
0
100
AcDbBlockBegin
  2
*PAPER_SPACE
  1

  0
ENDBLK
  5
1D
330
1B
100
AcDbEntity
 67
     1
  8
0
100
AcDbBlockEnd
  0
ENDSEC
  0
SECTION
  2
ENTITIES
  0
LINE
  5
100
100
AcDbEntity
  8
Layer_1
 62
7
100
AcDbLine
 10
-49.360644
 20
-16.999993
 30
0.0
 11
-24.680322
 21
-16.999993
 31
0.0
  0
LINE
  5
101
100
AcDbEntity
  8
Layer_1
 62
7
100
AcDbLine
 10
-24.680322
 20
-16.999993
 30
0.0
 11
0.000000
 21
-16.999993
 31
0.0
  0
LINE
  5
102
100
AcDbEntity
  8
Layer_1
 62
7
100
AcDbLine
 10
0.000000
 20
-16.999993
 30
0.0
 11
24.680322
 21
-16.999993
 31
0.0
  0
LINE
  5
103
100
AcDbEntity
  8
Layer_1
 62
7
100
AcDbLine
 10
24.680322
 20
-16.999993
 30
0.0
 11
49.360644
 21
-16.999993
 31
0.0
  0
LINE
  5
104
100
AcDbEntity
  8
Layer_1
 62
7
100
AcDbLine
 10
49.360644
 20
-16.999993
 30
0.0
 11
50.389911
 21
-16.793209
 31
0.0
  0
LINE
  5
105
100
AcDbEntity
  8
Layer_1
 62
7
100
AcDbLine
 10
50.389911
 20
-16.793209
 30
0.0
 11
51.228650
 21
-16.228651
 31
0.0
  0
LINE
  5
106
100
AcDbEntity
  8
Layer_1
 62
7
100
AcDbLine
 10
51.228650
 20
-16.228651
 30
0.0
 11
51.793225
 21
-15.389887
 31
0.0
  0
LINE
  5
107
100
AcDbEntity
  8
Layer_1
 62
7
100
AcDbLine
 10
51.793225
 20
-15.389887
 30
0.0
 11
52.000000
 21
-14.360622
 31
0.0
  0
LINE
  5
108
100
AcDbEntity
  8
Layer_1
 62
7
100
AcDbLine
 10
52.000000
 20
-14.360622
 30
0.0
 11
52.000000
 21
-8.801494
 31
0.0
  0
LINE
  5
109
100
AcDbEntity
  8
Layer_1
 62
7
100
AcDbLine
 10
52.000000
 20
-8.801494
 30
0.0
 11
52.000000
 21
-3.242337
 31
0.0
  0
LINE
  5
10a
100
AcDbEntity
  8
Layer_1
 62
7
100
AcDbLine
 10
52.000000
 20
-3.242337
 30
0.0
 11
52.000000
 21
2.316792
 31
0.0
  0
LINE
  5
10b
100
AcDbEntity
  8
Layer_1
 62
7
100
AcDbLine
 10
52.000000
 20
2.316792
 30
0.0
 11
52.000000
 21
7.875949
 31
0.0
  0
LINE
  5
10c
100
AcDbEntity
  8
Layer_1
 62
7
100
AcDbLine
 10
52.000000
 20
7.875949
 30
0.0
 11
51.793225
 21
8.905213
 31
0.0
  0
LINE
  5
10d
100
AcDbEntity
  8
Layer_1
 62
7
100
AcDbLine
 10
51.793225
 20
8.905213
 30
0.0
 11
51.228650
 21
9.743949
 31
0.0
  0
LINE
  5
10e
100
AcDbEntity
  8
Layer_1
 62
7
100
AcDbLine
 10
51.228650
 20
9.743949
 30
0.0
 11
50.389911
 21
10.308507
 31
0.0
  0
LINE
  5
10f
100
AcDbEntity
  8
Layer_1
 62
7
100
AcDbLine
 10
50.389911
 20
10.308507
 30
0.0
 11
49.360644
 21
10.515291
 31
0.0
  0
LINE
  5
110
100
AcDbEntity
  8
Layer_1
 62
7
100
AcDbLine
 10
49.360644
 20
10.515291
 30
0.0
 11
24.680322
 21
10.515291
 31
0.0
  0
LINE
  5
111
100
AcDbEntity
  8
Layer_1
 62
7
100
AcDbLine
 10
24.680322
 20
10.515291
 30
0.0
 11
0.000000
 21
10.515291
 31
0.0
  0
LINE
  5
112
100
AcDbEntity
  8
Layer_1
 62
7
100
AcDbLine
 10
0.000000
 20
10.515291
 30
0.0
 11
-24.680322
 21
10.515291
 31
0.0
  0
LINE
  5
113
100
AcDbEntity
  8
Layer_1
 62
7
100
AcDbLine
 10
-24.680322
 20
10.515291
 30
0.0
 11
-49.360644
 21
10.515291
 31
0.0
  0
LINE
  5
114
100
AcDbEntity
  8
Layer_1
 62
7
100
AcDbLine
 10
-49.360644
 20
10.515291
 30
0.0
 11
-50.389911
 21
10.308507
 31
0.0
  0
LINE
  5
115
100
AcDbEntity
  8
Layer_1
 62
7
100
AcDbLine
 10
-50.389911
 20
10.308507
 30
0.0
 11
-51.228650
 21
9.743949
 31
0.0
  0
LINE
  5
116
100
AcDbEntity
  8
Layer_1
 62
7
100
AcDbLine
 10
-51.228650
 20
9.743949
 30
0.0
 11
-51.793225
 21
8.905213
 31
0.0
  0
LINE
  5
117
100
AcDbEntity
  8
Layer_1
 62
7
100
AcDbLine
 10
-51.793225
 20
8.905213
 30
0.0
 11
-52.000000
 21
7.875949
 31
0.0
  0
LINE
  5
118
100
AcDbEntity
  8
Layer_1
 62
7
100
AcDbLine
 10
-52.000000
 20
7.875949
 30
0.0
 11
-52.000000
 21
2.316792
 31
0.0
  0
LINE
  5
119
100
AcDbEntity
  8
Layer_1
 62
7
100
AcDbLine
 10
-52.000000
 20
2.316792
 30
0.0
 11
-52.000000
 21
-3.242337
 31
0.0
  0
LINE
  5
11a
100
AcDbEntity
  8
Layer_1
 62
7
100
AcDbLine
 10
-52.000000
 20
-3.242337
 30
0.0
 11
-52.000000
 21
-8.801494
 31
0.0
  0
LINE
  5
11b
100
AcDbEntity
  8
Layer_1
 62
7
100
AcDbLine
 10
-52.000000
 20
-8.801494
 30
0.0
 11
-52.000000
 21
-14.360622
 31
0.0
  0
LINE
  5
11c
100
AcDbEntity
  8
Layer_1
 62
7
100
AcDbLine
 10
-52.000000
 20
-14.360622
 30
0.0
 11
-51.793225
 21
-15.389887
 31
0.0
  0
LINE
  5
11d
100
AcDbEntity
  8
Layer_1
 62
7
100
AcDbLine
 10
-51.793225
 20
-15.389887
 30
0.0
 11
-51.228650
 21
-16.228651
 31
0.0
  0
LINE
  5
11e
100
AcDbEntity
  8
Layer_1
 62
7
100
AcDbLine
 10
-51.228650
 20
-16.228651
 30
0.0
 11
-50.389911
 21
-16.793209
 31
0.0
  0
LINE
  5
11f
100
AcDbEntity
  8
Layer_1
 62
7
100
AcDbLine
 10
-50.389911
 20
-16.793209
 30
0.0
 11
-49.360644
 21
-16.999993
 31
0.0
  0
LINE
  5
120
100
AcDbEntity
  8
Layer_1
 62
7
100
AcDbLine
 10
-46.499986
 20
-13.000001
 30
0.0
 11
-46.617867
 21
-13.583862
 31
0.0
  0
LINE
  5
121
100
AcDbEntity
  8
Layer_1
 62
7
100
AcDbLine
 10
-46.617867
 20
-13.583862
 30
0.0
 11
-46.939333
 21
-14.060648
 31
0.0
  0
LINE
  5
122
100
AcDbEntity
  8
Layer_1
 62
7
100
AcDbLine
 10
-46.939333
 20
-14.060648
 30
0.0
 11
-47.416122
 21
-14.382100
 31
0.0
  0
LINE
  5
123
100
AcDbEntity
  8
Layer_1
 62
7
100
AcDbLine
 10
-47.416122
 20
-14.382100
 30
0.0
 11
-47.999986
 21
-14.499984
 31
0.0
  0
LINE
  5
124
100
AcDbEntity
  8
Layer_1
 62
7
100
AcDbLine
 10
-47.999986
 20
-14.499984
 30
0.0
 11
-48.583850
 21
-14.382100
 31
0.0
  0
LINE
  5
125
100
AcDbEntity
  8
Layer_1
 62
7
100
AcDbLine
 10
-48.583850
 20
-14.382100
 30
0.0
 11
-49.060639
 21
-14.060648
 31
0.0
  0
LINE
  5
126
100
AcDbEntity
  8
Layer_1
 62
7
100
AcDbLine
 10
-49.060639
 20
-14.060648
 30
0.0
 11
-49.382104
 21
-13.583862
 31
0.0
  0
LINE
  5
127
100
AcDbEntity
  8
Layer_1
 62
7
100
AcDbLine
 10
-49.382104
 20
-13.583862
 30
0.0
 11
-49.499986
 21
-13.000001
 31
0.0
  0
LINE
  5
128
100
AcDbEntity
  8
Layer_1
 62
7
100
AcDbLine
 10
-49.499986
 20
-13.000001
 30
0.0
 11
-49.382113
 21
-12.416140
 31
0.0
  0
LINE
  5
129
100
AcDbEntity
  8
Layer_1
 62
7
100
AcDbLine
 10
-49.382113
 20
-12.416140
 30
0.0
 11
-49.060650
 21
-11.939325
 31
0.0
  0
LINE
  5
12a
100
AcDbEntity
  8
Layer_1
 62
7
100
AcDbLine
 10
-49.060650
 20
-11.939325
 30
0.0
 11
-48.583856
 21
-11.617874
 31
0.0
  0
LINE
  5
12b
100
AcDbEntity
  8
Layer_1
 62
7
100
AcDbLine
 10
-48.583856
 20
-11.617874
 30
0.0
 11
-47.999986
 21
-11.499990
 31
0.0
  0
LINE
  5
12c
100
AcDbEntity
  8
Layer_1
 62
7
100
AcDbLine
 10
-47.999986
 20
-11.499990
 30
0.0
 11
-47.416116
 21
-11.617874
 31
0.0
  0
LINE
  5
12d
100
AcDbEntity
  8
Layer_1
 62
7
100
AcDbLine
 10
-47.416116
 20
-11.617874
 30
0.0
 11
-46.939321
 21
-11.939325
 31
0.0
  0
LINE
  5
12e
100
AcDbEntity
  8
Layer_1
 62
7
100
AcDbLine
 10
-46.939321
 20
-11.939325
 30
0.0
 11
-46.617859
 21
-12.416140
 31
0.0
  0
LINE
  5
12f
100
AcDbEntity
  8
Layer_1
 62
7
100
AcDbLine
 10
-46.617859
 20
-12.416140
 30
0.0
 11
-46.499986
 21
-13.000001
 31
0.0
  0
LINE
  5
130
100
AcDbEntity
  8
Layer_1
 62
7
100
AcDbLine
 10
-36.489165
 20
-5.420069
 30
0.0
 11
-36.442175
 21
-6.013856
 31
0.0
  0
LINE
  5
131
100
AcDbEntity
  8
Layer_1
 62
7
100
AcDbLine
 10
-36.442175
 20
-6.013856
 30
0.0
 11
-36.180230
 21
-6.525762
 31
0.0
  0
LINE
  5
132
100
AcDbEntity
  8
Layer_1
 62
7
100
AcDbLine
 10
-36.180230
 20
-6.525762
 30
0.0
 11
-35.745445
 21
-6.902089
 31
0.0
  0
LINE
  5
133
100
AcDbEntity
  8
Layer_1
 62
7
100
AcDbLine
 10
-35.745445
 20
-6.902089
 30
0.0
 11
-35.179939
 21
-7.089164
 31
0.0
  0
LINE
  5
134
100
AcDbEntity
  8
Layer_1
 62
7
100
AcDbLine
 10
-35.179939
 20
-7.089164
 30
0.0
 11
-34.586150
 21
-7.042173
 31
0.0
  0
LINE
  5
135
100
AcDbEntity
  8
Layer_1
 62
7
100
AcDbLine
 10
-34.586150
 20
-7.042173
 30
0.0
 11
-34.074241
 21
-6.780241
 31
0.0
  0
LINE
  5
136
100
AcDbEntity
  8
Layer_1
 62
7
100
AcDbLine
 10
-34.074241
 20
-6.780241
 30
0.0
 11
-33.697902
 21
-6.345461
 31
0.0
  0
LINE
  5
137
100
AcDbEntity
  8
Layer_1
 62
7
100
AcDbLine
 10
-33.697902
 20
-6.345461
 30
0.0
 11
-33.510830
 21
-5.779958
 31
0.0
  0
LINE
  5
138
100
AcDbEntity
  8
Layer_1
 62
7
100
AcDbLine
 10
-33.510830
 20
-5.779958
 30
0.0
 11
-33.557810
 21
-5.186172
 31
0.0
  0
LINE
  5
139
100
AcDbEntity
  8
Layer_1
 62
7
100
AcDbLine
 10
-33.557810
 20
-5.186172
 30
0.0
 11
-33.819750
 21
-4.674238
 31
0.0
  0
LINE
  5
13a
100
AcDbEntity
  8
Layer_1
 62
7
100
AcDbLine
 10
-33.819750
 20
-4.674238
 30
0.0
 11
-34.254539
 21
-4.297911
 31
0.0
  0
LINE
  5
13b
100
AcDbEntity
  8
Layer_1
 62
7
100
AcDbLine
 10
-34.254539
 20
-4.297911
 30
0.0
 11
-34.820052
 21
-4.110835
 31
0.0
  0
LINE
  5
13c
100
AcDbEntity
  8
Layer_1
 62
7
100
AcDbLine
 10
-34.820052
 20
-4.110835
 30
0.0
 11
-35.413848
 21
-4.157825
 31
0.0
  0
LINE
  5
13d
100
AcDbEntity
  8
Layer_1
 62
7
100
AcDbLine
 10
-35.413848
 20
-4.157825
 30
0.0
 11
-35.925761
 21
-4.419757
 31
0.0
  0
LINE
  5
13e
100
AcDbEntity
  8
Layer_1
 62
7
100
AcDbLine
 10
-35.925761
 20
-4.419757
 30
0.0
 11
-36.302101
 21
-4.854565
 31
0.0
  0
LINE
  5
13f
100
AcDbEntity
  8
Layer_1
 62
7
100
AcDbLine
 10
-36.302101
 20
-4.854565
 30
0.0
 11
-36.489165
 21
-5.420069
 31
0.0
  0
LINE
  5
140
100
AcDbEntity
  8
Layer_1
 62
7
100
AcDbLine
 10
33.510811
 20
-5.420080
 30
0.0
 11
33.557800
 21
-6.013866
 31
0.0
  0
LINE
  5
141
100
AcDbEntity
  8
Layer_1
 62
7
100
AcDbLine
 10
33.557800
 20
-6.013866
 30
0.0
 11
33.819747
 21
-6.525773
 31
0.0
  0
LINE
  5
142
100
AcDbEntity
  8
Layer_1
 62
7
100
AcDbLine
 10
33.819747
 20
-6.525773
 30
0.0
 11
34.254531
 21
-6.902100
 31
0.0
  0
LINE
  5
143
100
AcDbEntity
  8
Layer_1
 62
7
100
AcDbLine
 10
34.254531
 20
-6.902100
 30
0.0
 11
34.820037
 21
-7.089175
 31
0.0
  0
LINE
  5
144
100
AcDbEntity
  8
Layer_1
 62
7
100
AcDbLine
 10
34.820037
 20
-7.089175
 30
0.0
 11
35.413826
 21
-7.042184
 31
0.0
  0
LINE
  5
145
100
AcDbEntity
  8
Layer_1
 62
7
100
AcDbLine
 10
35.413826
 20
-7.042184
 30
0.0
 11
35.925734
 21
-6.780251
 31
0.0
  0
LINE
  5
146
100
AcDbEntity
  8
Layer_1
 62
7
100
AcDbLine
 10
35.925734
 20
-6.780251
 30
0.0
 11
36.302075
 21
-6.345472
 31
0.0
  0
LINE
  5
147
100
AcDbEntity
  8
Layer_1
 62
7
100
AcDbLine
 10
36.302075
 20
-6.345472
 30
0.0
 11
36.489146
 21
-5.779968
 31
0.0
  0
LINE
  5
148
100
AcDbEntity
  8
Layer_1
 62
7
100
AcDbLine
 10
36.489146
 20
-5.779968
 30
0.0
 11
36.442166
 21
-5.186183
 31
0.0
  0
LINE
  5
149
100
AcDbEntity
  8
Layer_1
 62
7
100
AcDbLine
 10
36.442166
 20
-5.186183
 30
0.0
 11
36.180225
 21
-4.674248
 31
0.0
  0
LINE
  5
14a
100
AcDbEntity
  8
Layer_1
 62
7
100
AcDbLine
 10
36.180225
 20
-4.674248
 30
0.0
 11
35.745436
 21
-4.297921
 31
0.0
  0
LINE
  5
14b
100
AcDbEntity
  8
Layer_1
 62
7
100
AcDbLine
 10
35.745436
 20
-4.297921
 30
0.0
 11
35.179924
 21
-4.110846
 31
0.0
  0
LINE
  5
14c
100
AcDbEntity
  8
Layer_1
 62
7
100
AcDbLine
 10
35.179924
 20
-4.110846
 30
0.0
 11
34.586129
 21
-4.157836
 31
0.0
  0
LINE
  5
14d
100
AcDbEntity
  8
Layer_1
 62
7
100
AcDbLine
 10
34.586129
 20
-4.157836
 30
0.0
 11
34.074216
 21
-4.419768
 31
0.0
  0
LINE
  5
14e
100
AcDbEntity
  8
Layer_1
 62
7
100
AcDbLine
 10
34.074216
 20
-4.419768
 30
0.0
 11
33.697875
 21
-4.854575
 31
0.0
  0
LINE
  5
14f
100
AcDbEntity
  8
Layer_1
 62
7
100
AcDbLine
 10
33.697875
 20
-4.854575
 30
0.0
 11
33.510811
 21
-5.420080
 31
0.0
  0
LINE
  5
150
100
AcDbEntity
  8
Layer_1
 62
7
100
AcDbLine
 10
-9.728013
 20
-5.365022
 30
0.0
 11
-9.712912
 21
-5.761830
 31
0.0
  0
LINE
  5
151
100
AcDbEntity
  8
Layer_1
 62
7
100
AcDbLine
 10
-9.712912
 20
-5.761830
 30
0.0
 11
-9.846508
 21
-6.121162
 31
0.0
  0
LINE
  5
152
100
AcDbEntity
  8
Layer_1
 62
7
100
AcDbLine
 10
-9.846508
 20
-6.121162
 30
0.0
 11
-10.105099
 21
-6.404158
 31
0.0
  0
LINE
  5
153
100
AcDbEntity
  8
Layer_1
 62
7
100
AcDbLine
 10
-10.105099
 20
-6.404158
 30
0.0
 11
-10.464966
 21
-6.572040
 31
0.0
  0
LINE
  5
154
100
AcDbEntity
  8
Layer_1
 62
7
100
AcDbLine
 10
-10.464966
 20
-6.572040
 30
0.0
 11
-10.861773
 21
-6.587156
 31
0.0
  0
LINE
  5
155
100
AcDbEntity
  8
Layer_1
 62
7
100
AcDbLine
 10
-10.861773
 20
-6.587156
 30
0.0
 11
-11.221105
 21
-6.453549
 31
0.0
  0
LINE
  5
156
100
AcDbEntity
  8
Layer_1
 62
7
100
AcDbLine
 10
-11.221105
 20
-6.453549
 30
0.0
 11
-11.504119
 21
-6.194956
 31
0.0
  0
LINE
  5
157
100
AcDbEntity
  8
Layer_1
 62
7
100
AcDbLine
 10
-11.504119
 20
-6.194956
 30
0.0
 11
-11.671987
 21
-5.835089
 31
0.0
  0
LINE
  5
158
100
AcDbEntity
  8
Layer_1
 62
7
100
AcDbLine
 10
-11.671987
 20
-5.835089
 30
0.0
 11
-11.687088
 21
-5.438281
 31
0.0
  0
LINE
  5
159
100
AcDbEntity
  8
Layer_1
 62
7
100
AcDbLine
 10
-11.687088
 20
-5.438281
 30
0.0
 11
-11.553492
 21
-5.078949
 31
0.0
  0
LINE
  5
15a
100
AcDbEntity
  8
Layer_1
 62
7
100
AcDbLine
 10
-11.553492
 20
-5.078949
 30
0.0
 11
-11.294907
 21
-4.795925
 31
0.0
  0
LINE
  5
15b
100
AcDbEntity
  8
Layer_1
 62
7
100
AcDbLine
 10
-11.294907
 20
-4.795925
 30
0.0
 11
-10.935031
 21
-4.628070
 31
0.0
  0
LINE
  5
15c
100
AcDbEntity
  8
Layer_1
 62
7
100
AcDbLine
 10
-10.935031
 20
-4.628070
 30
0.0
 11
-10.538218
 21
-4.612982
 31
0.0
  0
LINE
  5
15d
100
AcDbEntity
  8
Layer_1
 62
7
100
AcDbLine
 10
-10.538218
 20
-4.612982
 30
0.0
 11
-10.178895
 21
-4.746562
 31
0.0
  0
LINE
  5
15e
100
AcDbEntity
  8
Layer_1
 62
7
100
AcDbLine
 10
-10.178895
 20
-4.746562
 30
0.0
 11
-9.895881
 21
-5.005155
 31
0.0
  0
LINE
  5
15f
100
AcDbEntity
  8
Layer_1
 62
7
100
AcDbLine
 10
-9.895881
 20
-5.005155
 30
0.0
 11
-9.728013
 21
-5.365022
 31
0.0
  0
LINE
  5
160
100
AcDbEntity
  8
Layer_1
 62
7
100
AcDbLine
 10
-21.828020
 20
-0.964888
 30
0.0
 11
-21.812918
 21
-1.361693
 31
0.0
  0
LINE
  5
161
100
AcDbEntity
  8
Layer_1
 62
7
100
AcDbLine
 10
-21.812918
 20
-1.361693
 30
0.0
 11
-21.946514
 21
-1.721046
 31
0.0
  0
LINE
  5
162
100
AcDbEntity
  8
Layer_1
 62
7
100
AcDbLine
 10
-21.946514
 20
-1.721046
 30
0.0
 11
-22.205102
 21
-2.004059
 31
0.0
  0
LINE
  5
163
100
AcDbEntity
  8
Layer_1
 62
7
100
AcDbLine
 10
-22.205102
 20
-2.004059
 30
0.0
 11
-22.564975
 21
-2.171924
 31
0.0
  0
LINE
  5
164
100
AcDbEntity
  8
Layer_1
 62
7
100
AcDbLine
 10
-22.564975
 20
-2.171924
 30
0.0
 11
-22.961788
 21
-2.186882
 31
0.0
  0
LINE
  5
165
100
AcDbEntity
  8
Layer_1
 62
7
100
AcDbLine
 10
-22.961788
 20
-2.186882
 30
0.0
 11
-23.321111
 21
-2.053306
 31
0.0
  0
LINE
  5
166
100
AcDbEntity
  8
Layer_1
 62
7
100
AcDbLine
 10
-23.321111
 20
-2.053306
 30
0.0
 11
-23.604125
 21
-1.794706
 31
0.0
  0
LINE
  5
167
100
AcDbEntity
  8
Layer_1
 62
7
100
AcDbLine
 10
-23.604125
 20
-1.794706
 30
0.0
 11
-23.771993
 21
-1.434845
 31
0.0
  0
LINE
  5
168
100
AcDbEntity
  8
Layer_1
 62
7
100
AcDbLine
 10
-23.771993
 20
-1.434845
 30
0.0
 11
-23.787095
 21
-1.038040
 31
0.0
  0
LINE
  5
169
100
AcDbEntity
  8
Layer_1
 62
7
100
AcDbLine
 10
-23.787095
 20
-1.038040
 30
0.0
 11
-23.653499
 21
-0.678715
 31
0.0
  0
LINE
  5
16a
100
AcDbEntity
  8
Layer_1
 62
7
100
AcDbLine
 10
-23.653499
 20
-0.678715
 30
0.0
 11
-23.394908
 21
-0.395702
 31
0.0
  0
LINE
  5
16b
100
AcDbEntity
  8
Layer_1
 62
7
100
AcDbLine
 10
-23.394908
 20
-0.395702
 30
0.0
 11
-23.035041
 21
-0.227837
 31
0.0
  0
LINE
  5
16c
100
AcDbEntity
  8
Layer_1
 62
7
100
AcDbLine
 10
-23.035041
 20
-0.227837
 30
0.0
 11
-22.638231
 21
-0.212597
 31
0.0
  0
LINE
  5
16d
100
AcDbEntity
  8
Layer_1
 62
7
100
AcDbLine
 10
-22.638231
 20
-0.212597
 30
0.0
 11
-22.278902
 21
-0.346201
 31
0.0
  0
LINE
  5
16e
100
AcDbEntity
  8
Layer_1
 62
7
100
AcDbLine
 10
-22.278902
 20
-0.346201
 30
0.0
 11
-21.995888
 21
-0.604801
 31
0.0
  0
LINE
  5
16f
100
AcDbEntity
  8
Layer_1
 62
7
100
AcDbLine
 10
-21.995888
 20
-0.604801
 30
0.0
 11
-21.828020
 21
-0.964888
 31
0.0
  0
LINE
  5
170
100
AcDbEntity
  8
Layer_1
 62
7
100
AcDbLine
 10
1.500013
 20
-13.000029
 30
0.0
 11
1.382139
 21
-13.583890
 31
0.0
  0
LINE
  5
171
100
AcDbEntity
  8
Layer_1
 62
7
100
AcDbLine
 10
1.382139
 20
-13.583890
 30
0.0
 11
1.060677
 21
-14.060705
 31
0.0
  0
LINE
  5
172
100
AcDbEntity
  8
Layer_1
 62
7
100
AcDbLine
 10
1.060677
 20
-14.060705
 30
0.0
 11
0.583883
 21
-14.382156
 31
0.0
  0
LINE
  5
173
100
AcDbEntity
  8
Layer_1
 62
7
100
AcDbLine
 10
0.583883
 20
-14.382156
 30
0.0
 11
0.000013
 21
-14.500040
 31
0.0
  0
LINE
  5
174
100
AcDbEntity
  8
Layer_1
 62
7
100
AcDbLine
 10
0.000013
 20
-14.500040
 30
0.0
 11
-0.583857
 21
-14.382156
 31
0.0
  0
LINE
  5
175
100
AcDbEntity
  8
Layer_1
 62
7
100
AcDbLine
 10
-0.583857
 20
-14.382156
 30
0.0
 11
-1.060651
 21
-14.060705
 31
0.0
  0
LINE
  5
176
100
AcDbEntity
  8
Layer_1
 62
7
100
AcDbLine
 10
-1.060651
 20
-14.060705
 30
0.0
 11
-1.382113
 21
-13.583890
 31
0.0
  0
LINE
  5
177
100
AcDbEntity
  8
Layer_1
 62
7
100
AcDbLine
 10
-1.382113
 20
-13.583890
 30
0.0
 11
-1.499987
 21
-13.000029
 31
0.0
  0
LINE
  5
178
100
AcDbEntity
  8
Layer_1
 62
7
100
AcDbLine
 10
-1.499987
 20
-13.000029
 30
0.0
 11
-1.382113
 21
-12.416168
 31
0.0
  0
LINE
  5
179
100
AcDbEntity
  8
Layer_1
 62
7
100
AcDbLine
 10
-1.382113
 20
-12.416168
 30
0.0
 11
-1.060651
 21
-11.939353
 31
0.0
  0
LINE
  5
17a
100
AcDbEntity
  8
Layer_1
 62
7
100
AcDbLine
 10
-1.060651
 20
-11.939353
 30
0.0
 11
-0.583857
 21
-11.617902
 31
0.0
  0
LINE
  5
17b
100
AcDbEntity
  8
Layer_1
 62
7
100
AcDbLine
 10
-0.583857
 20
-11.617902
 30
0.0
 11
0.000013
 21
-11.500018
 31
0.0
  0
LINE
  5
17c
100
AcDbEntity
  8
Layer_1
 62
7
100
AcDbLine
 10
0.000013
 20
-11.500018
 30
0.0
 11
0.583883
 21
-11.617902
 31
0.0
  0
LINE
  5
17d
100
AcDbEntity
  8
Layer_1
 62
7
100
AcDbLine
 10
0.583883
 20
-11.617902
 30
0.0
 11
1.060677
 21
-11.939353
 31
0.0
  0
LINE
  5
17e
100
AcDbEntity
  8
Layer_1
 62
7
100
AcDbLine
 10
1.060677
 20
-11.939353
 30
0.0
 11
1.382139
 21
-12.416168
 31
0.0
  0
LINE
  5
17f
100
AcDbEntity
  8
Layer_1
 62
7
100
AcDbLine
 10
1.382139
 20
-12.416168
 30
0.0
 11
1.500013
 21
-13.000029
 31
0.0
  0
LINE
  5
180
100
AcDbEntity
  8
Layer_1
 62
7
100
AcDbLine
 10
-46.499986
 20
1.799986
 30
0.0
 11
-46.617867
 21
1.216125
 31
0.0
  0
LINE
  5
181
100
AcDbEntity
  8
Layer_1
 62
7
100
AcDbLine
 10
-46.617867
 20
1.216125
 30
0.0
 11
-46.939333
 21
0.739339
 31
0.0
  0
LINE
  5
182
100
AcDbEntity
  8
Layer_1
 62
7
100
AcDbLine
 10
-46.939333
 20
0.739339
 30
0.0
 11
-47.416122
 21
0.417888
 31
0.0
  0
LINE
  5
183
100
AcDbEntity
  8
Layer_1
 62
7
100
AcDbLine
 10
-47.416122
 20
0.417888
 30
0.0
 11
-47.999986
 21
0.300004
 31
0.0
  0
LINE
  5
184
100
AcDbEntity
  8
Layer_1
 62
7
100
AcDbLine
 10
-47.999986
 20
0.300004
 30
0.0
 11
-48.583850
 21
0.417888
 31
0.0
  0
LINE
  5
185
100
AcDbEntity
  8
Layer_1
 62
7
100
AcDbLine
 10
-48.583850
 20
0.417888
 30
0.0
 11
-49.060639
 21
0.739339
 31
0.0
  0
LINE
  5
186
100
AcDbEntity
  8
Layer_1
 62
7
100
AcDbLine
 10
-49.060639
 20
0.739339
 30
0.0
 11
-49.382104
 21
1.216125
 31
0.0
  0
LINE
  5
187
100
AcDbEntity
  8
Layer_1
 62
7
100
AcDbLine
 10
-49.382104
 20
1.216125
 30
0.0
 11
-49.499986
 21
1.799986
 31
0.0
  0
LINE
  5
188
100
AcDbEntity
  8
Layer_1
 62
7
100
AcDbLine
 10
-49.499986
 20
1.799986
 30
0.0
 11
-49.382113
 21
2.383848
 31
0.0
  0
LINE
  5
189
100
AcDbEntity
  8
Layer_1
 62
7
100
AcDbLine
 10
-49.382113
 20
2.383848
 30
0.0
 11
-49.060650
 21
2.860662
 31
0.0
  0
LINE
  5
18a
100
AcDbEntity
  8
Layer_1
 62
7
100
AcDbLine
 10
-49.060650
 20
2.860662
 30
0.0
 11
-48.583856
 21
3.182113
 31
0.0
  0
LINE
  5
18b
100
AcDbEntity
  8
Layer_1
 62
7
100
AcDbLine
 10
-48.583856
 20
3.182113
 30
0.0
 11
-47.999986
 21
3.299998
 31
0.0
  0
LINE
  5
18c
100
AcDbEntity
  8
Layer_1
 62
7
100
AcDbLine
 10
-47.999986
 20
3.299998
 30
0.0
 11
-47.416116
 21
3.182113
 31
0.0
  0
LINE
  5
18d
100
AcDbEntity
  8
Layer_1
 62
7
100
AcDbLine
 10
-47.416116
 20
3.182113
 30
0.0
 11
-46.939321
 21
2.860662
 31
0.0
  0
LINE
  5
18e
100
AcDbEntity
  8
Layer_1
 62
7
100
AcDbLine
 10
-46.939321
 20
2.860662
 30
0.0
 11
-46.617859
 21
2.383848
 31
0.0
  0
LINE
  5
18f
100
AcDbEntity
  8
Layer_1
 62
7
100
AcDbLine
 10
-46.617859
 20
2.383848
 30
0.0
 11
-46.499986
 21
1.799986
 31
0.0
  0
LINE
  5
190
100
AcDbEntity
  8
Layer_1
 62
7
100
AcDbLine
 10
46.500011
 20
-13.000001
 30
0.0
 11
46.617893
 21
-13.583862
 31
0.0
  0
LINE
  5
191
100
AcDbEntity
  8
Layer_1
 62
7
100
AcDbLine
 10
46.617893
 20
-13.583862
 30
0.0
 11
46.939358
 21
-14.060648
 31
0.0
  0
LINE
  5
192
100
AcDbEntity
  8
Layer_1
 62
7
100
AcDbLine
 10
46.939358
 20
-14.060648
 30
0.0
 11
47.416147
 21
-14.382100
 31
0.0
  0
LINE
  5
193
100
AcDbEntity
  8
Layer_1
 62
7
100
AcDbLine
 10
47.416147
 20
-14.382100
 30
0.0
 11
48.000011
 21
-14.499984
 31
0.0
  0
LINE
  5
194
100
AcDbEntity
  8
Layer_1
 62
7
100
AcDbLine
 10
48.000011
 20
-14.499984
 30
0.0
 11
48.583875
 21
-14.382100
 31
0.0
  0
LINE
  5
195
100
AcDbEntity
  8
Layer_1
 62
7
100
AcDbLine
 10
48.583875
 20
-14.382100
 30
0.0
 11
49.060664
 21
-14.060648
 31
0.0
  0
LINE
  5
196
100
AcDbEntity
  8
Layer_1
 62
7
100
AcDbLine
 10
49.060664
 20
-14.060648
 30
0.0
 11
49.382130
 21
-13.583862
 31
0.0
  0
LINE
  5
197
100
AcDbEntity
  8
Layer_1
 62
7
100
AcDbLine
 10
49.382130
 20
-13.583862
 30
0.0
 11
49.500011
 21
-13.000001
 31
0.0
  0
LINE
  5
198
100
AcDbEntity
  8
Layer_1
 62
7
100
AcDbLine
 10
49.500011
 20
-13.000001
 30
0.0
 11
49.382138
 21
-12.416140
 31
0.0
  0
LINE
  5
199
100
AcDbEntity
  8
Layer_1
 62
7
100
AcDbLine
 10
49.382138
 20
-12.416140
 30
0.0
 11
49.060676
 21
-11.939325
 31
0.0
  0
LINE
  5
19a
100
AcDbEntity
  8
Layer_1
 62
7
100
AcDbLine
 10
49.060676
 20
-11.939325
 30
0.0
 11
48.583881
 21
-11.617874
 31
0.0
  0
LINE
  5
19b
100
AcDbEntity
  8
Layer_1
 62
7
100
AcDbLine
 10
48.583881
 20
-11.617874
 30
0.0
 11
48.000011
 21
-11.499990
 31
0.0
  0
LINE
  5
19c
100
AcDbEntity
  8
Layer_1
 62
7
100
AcDbLine
 10
48.000011
 20
-11.499990
 30
0.0
 11
47.416141
 21
-11.617874
 31
0.0
  0
LINE
  5
19d
100
AcDbEntity
  8
Layer_1
 62
7
100
AcDbLine
 10
47.416141
 20
-11.617874
 30
0.0
 11
46.939347
 21
-11.939325
 31
0.0
  0
LINE
  5
19e
100
AcDbEntity
  8
Layer_1
 62
7
100
AcDbLine
 10
46.939347
 20
-11.939325
 30
0.0
 11
46.617884
 21
-12.416140
 31
0.0
  0
LINE
  5
19f
100
AcDbEntity
  8
Layer_1
 62
7
100
AcDbLine
 10
46.617884
 20
-12.416140
 30
0.0
 11
46.500011
 21
-13.000001
 31
0.0
  0
LINE
  5
1a0
100
AcDbEntity
  8
Layer_1
 62
7
100
AcDbLine
 10
36.489144
 20
-5.420043
 30
0.0
 11
36.442154
 21
-6.013830
 31
0.0
  0
LINE
  5
1a1
100
AcDbEntity
  8
Layer_1
 62
7
100
AcDbLine
 10
36.442154
 20
-6.013830
 30
0.0
 11
36.180209
 21
-6.525737
 31
0.0
  0
LINE
  5
1a2
100
AcDbEntity
  8
Layer_1
 62
7
100
AcDbLine
 10
36.180209
 20
-6.525737
 30
0.0
 11
35.745424
 21
-6.902063
 31
0.0
  0
LINE
  5
1a3
100
AcDbEntity
  8
Layer_1
 62
7
100
AcDbLine
 10
35.745424
 20
-6.902063
 30
0.0
 11
35.179918
 21
-7.089138
 31
0.0
  0
LINE
  5
1a4
100
AcDbEntity
  8
Layer_1
 62
7
100
AcDbLine
 10
35.179918
 20
-7.089138
 30
0.0
 11
34.586129
 21
-7.042147
 31
0.0
  0
LINE
  5
1a5
100
AcDbEntity
  8
Layer_1
 62
7
100
AcDbLine
 10
34.586129
 20
-7.042147
 30
0.0
 11
34.074220
 21
-6.780215
 31
0.0
  0
LINE
  5
1a6
100
AcDbEntity
  8
Layer_1
 62
7
100
AcDbLine
 10
34.074220
 20
-6.780215
 30
0.0
 11
33.697881
 21
-6.345435
 31
0.0
  0
LINE
  5
1a7
100
AcDbEntity
  8
Layer_1
 62
7
100
AcDbLine
 10
33.697881
 20
-6.345435
 30
0.0
 11
33.510809
 21
-5.779932
 31
0.0
  0
LINE
  5
1a8
100
AcDbEntity
  8
Layer_1
 62
7
100
AcDbLine
 10
33.510809
 20
-5.779932
 30
0.0
 11
33.557789
 21
-5.186147
 31
0.0
  0
LINE
  5
1a9
100
AcDbEntity
  8
Layer_1
 62
7
100
AcDbLine
 10
33.557789
 20
-5.186147
 30
0.0
 11
33.819729
 21
-4.674212
 31
0.0
  0
LINE
  5
1aa
100
AcDbEntity
  8
Layer_1
 62
7
100
AcDbLine
 10
33.819729
 20
-4.674212
 30
0.0
 11
34.254518
 21
-4.297885
 31
0.0
  0
LINE
  5
1ab
100
AcDbEntity
  8
Layer_1
 62
7
100
AcDbLine
 10
34.254518
 20
-4.297885
 30
0.0
 11
34.820031
 21
-4.110809
 31
0.0
  0
LINE
  5
1ac
100
AcDbEntity
  8
Layer_1
 62
7
100
AcDbLine
 10
34.820031
 20
-4.110809
 30
0.0
 11
35.413827
 21
-4.157799
 31
0.0
  0
LINE
  5
1ad
100
AcDbEntity
  8
Layer_1
 62
7
100
AcDbLine
 10
35.413827
 20
-4.157799
 30
0.0
 11
35.925740
 21
-4.419731
 31
0.0
  0
LINE
  5
1ae
100
AcDbEntity
  8
Layer_1
 62
7
100
AcDbLine
 10
35.925740
 20
-4.419731
 30
0.0
 11
36.302080
 21
-4.854539
 31
0.0
  0
LINE
  5
1af
100
AcDbEntity
  8
Layer_1
 62
7
100
AcDbLine
 10
36.302080
 20
-4.854539
 30
0.0
 11
36.489144
 21
-5.420043
 31
0.0
  0
LINE
  5
1b0
100
AcDbEntity
  8
Layer_1
 62
7
100
AcDbLine
 10
9.728013
 20
-5.365022
 30
0.0
 11
9.712912
 21
-5.761830
 31
0.0
  0
LINE
  5
1b1
100
AcDbEntity
  8
Layer_1
 62
7
100
AcDbLine
 10
9.712912
 20
-5.761830
 30
0.0
 11
9.846508
 21
-6.121162
 31
0.0
  0
LINE
  5
1b2
100
AcDbEntity
  8
Layer_1
 62
7
100
AcDbLine
 10
9.846508
 20
-6.121162
 30
0.0
 11
10.105099
 21
-6.404158
 31
0.0
  0
LINE
  5
1b3
100
AcDbEntity
  8
Layer_1
 62
7
100
AcDbLine
 10
10.105099
 20
-6.404158
 30
0.0
 11
10.464966
 21
-6.572040
 31
0.0
  0
LINE
  5
1b4
100
AcDbEntity
  8
Layer_1
 62
7
100
AcDbLine
 10
10.464966
 20
-6.572040
 30
0.0
 11
10.861773
 21
-6.587156
 31
0.0
  0
LINE
  5
1b5
100
AcDbEntity
  8
Layer_1
 62
7
100
AcDbLine
 10
10.861773
 20
-6.587156
 30
0.0
 11
11.221105
 21
-6.453549
 31
0.0
  0
LINE
  5
1b6
100
AcDbEntity
  8
Layer_1
 62
7
100
AcDbLine
 10
11.221105
 20
-6.453549
 30
0.0
 11
11.504119
 21
-6.194956
 31
0.0
  0
LINE
  5
1b7
100
AcDbEntity
  8
Layer_1
 62
7
100
AcDbLine
 10
11.504119
 20
-6.194956
 30
0.0
 11
11.671987
 21
-5.835089
 31
0.0
  0
LINE
  5
1b8
100
AcDbEntity
  8
Layer_1
 62
7
100
AcDbLine
 10
11.671987
 20
-5.835089
 30
0.0
 11
11.687088
 21
-5.438281
 31
0.0
  0
LINE
  5
1b9
100
AcDbEntity
  8
Layer_1
 62
7
100
AcDbLine
 10
11.687088
 20
-5.438281
 30
0.0
 11
11.553492
 21
-5.078949
 31
0.0
  0
LINE
  5
1ba
100
AcDbEntity
  8
Layer_1
 62
7
100
AcDbLine
 10
11.553492
 20
-5.078949
 30
0.0
 11
11.294907
 21
-4.795925
 31
0.0
  0
LINE
  5
1bb
100
AcDbEntity
  8
Layer_1
 62
7
100
AcDbLine
 10
11.294907
 20
-4.795925
 30
0.0
 11
10.935031
 21
-4.628070
 31
0.0
  0
LINE
  5
1bc
100
AcDbEntity
  8
Layer_1
 62
7
100
AcDbLine
 10
10.935031
 20
-4.628070
 30
0.0
 11
10.538218
 21
-4.612982
 31
0.0
  0
LINE
  5
1bd
100
AcDbEntity
  8
Layer_1
 62
7
100
AcDbLine
 10
10.538218
 20
-4.612982
 30
0.0
 11
10.178895
 21
-4.746562
 31
0.0
  0
LINE
  5
1be
100
AcDbEntity
  8
Layer_1
 62
7
100
AcDbLine
 10
10.178895
 20
-4.746562
 30
0.0
 11
9.895881
 21
-5.005155
 31
0.0
  0
LINE
  5
1bf
100
AcDbEntity
  8
Layer_1
 62
7
100
AcDbLine
 10
9.895881
 20
-5.005155
 30
0.0
 11
9.728013
 21
-5.365022
 31
0.0
  0
LINE
  5
1c0
100
AcDbEntity
  8
Layer_1
 62
7
100
AcDbLine
 10
21.828020
 20
-0.964888
 30
0.0
 11
21.812918
 21
-1.361693
 31
0.0
  0
LINE
  5
1c1
100
AcDbEntity
  8
Layer_1
 62
7
100
AcDbLine
 10
21.812918
 20
-1.361693
 30
0.0
 11
21.946514
 21
-1.721046
 31
0.0
  0
LINE
  5
1c2
100
AcDbEntity
  8
Layer_1
 62
7
100
AcDbLine
 10
21.946514
 20
-1.721046
 30
0.0
 11
22.205102
 21
-2.004059
 31
0.0
  0
LINE
  5
1c3
100
AcDbEntity
  8
Layer_1
 62
7
100
AcDbLine
 10
22.205102
 20
-2.004059
 30
0.0
 11
22.564975
 21
-2.171924
 31
0.0
  0
LINE
  5
1c4
100
AcDbEntity
  8
Layer_1
 62
7
100
AcDbLine
 10
22.564975
 20
-2.171924
 30
0.0
 11
22.961788
 21
-2.186882
 31
0.0
  0
LINE
  5
1c5
100
AcDbEntity
  8
Layer_1
 62
7
100
AcDbLine
 10
22.961788
 20
-2.186882
 30
0.0
 11
23.321111
 21
-2.053306
 31
0.0
  0
LINE
  5
1c6
100
AcDbEntity
  8
Layer_1
 62
7
100
AcDbLine
 10
23.321111
 20
-2.053306
 30
0.0
 11
23.604125
 21
-1.794706
 31
0.0
  0
LINE
  5
1c7
100
AcDbEntity
  8
Layer_1
 62
7
100
AcDbLine
 10
23.604125
 20
-1.794706
 30
0.0
 11
23.771993
 21
-1.434845
 31
0.0
  0
LINE
  5
1c8
100
AcDbEntity
  8
Layer_1
 62
7
100
AcDbLine
 10
23.771993
 20
-1.434845
 30
0.0
 11
23.787095
 21
-1.038040
 31
0.0
  0
LINE
  5
1c9
100
AcDbEntity
  8
Layer_1
 62
7
100
AcDbLine
 10
23.787095
 20
-1.038040
 30
0.0
 11
23.653499
 21
-0.678715
 31
0.0
  0
LINE
  5
1ca
100
AcDbEntity
  8
Layer_1
 62
7
100
AcDbLine
 10
23.653499
 20
-0.678715
 30
0.0
 11
23.394908
 21
-0.395702
 31
0.0
  0
LINE
  5
1cb
100
AcDbEntity
  8
Layer_1
 62
7
100
AcDbLine
 10
23.394908
 20
-0.395702
 30
0.0
 11
23.035041
 21
-0.227837
 31
0.0
  0
LINE
  5
1cc
100
AcDbEntity
  8
Layer_1
 62
7
100
AcDbLine
 10
23.035041
 20
-0.227837
 30
0.0
 11
22.638231
 21
-0.212597
 31
0.0
  0
LINE
  5
1cd
100
AcDbEntity
  8
Layer_1
 62
7
100
AcDbLine
 10
22.638231
 20
-0.212597
 30
0.0
 11
22.278902
 21
-0.346201
 31
0.0
  0
LINE
  5
1ce
100
AcDbEntity
  8
Layer_1
 62
7
100
AcDbLine
 10
22.278902
 20
-0.346201
 30
0.0
 11
21.995888
 21
-0.604801
 31
0.0
  0
LINE
  5
1cf
100
AcDbEntity
  8
Layer_1
 62
7
100
AcDbLine
 10
21.995888
 20
-0.604801
 30
0.0
 11
21.828020
 21
-0.964888
 31
0.0
  0
LINE
  5
1d0
100
AcDbEntity
  8
Layer_1
 62
7
100
AcDbLine
 10
46.500011
 20
1.799986
 30
0.0
 11
46.617893
 21
1.216125
 31
0.0
  0
LINE
  5
1d1
100
AcDbEntity
  8
Layer_1
 62
7
100
AcDbLine
 10
46.617893
 20
1.216125
 30
0.0
 11
46.939358
 21
0.739339
 31
0.0
  0
LINE
  5
1d2
100
AcDbEntity
  8
Layer_1
 62
7
100
AcDbLine
 10
46.939358
 20
0.739339
 30
0.0
 11
47.416147
 21
0.417888
 31
0.0
  0
LINE
  5
1d3
100
AcDbEntity
  8
Layer_1
 62
7
100
AcDbLine
 10
47.416147
 20
0.417888
 30
0.0
 11
48.000011
 21
0.300004
 31
0.0
  0
LINE
  5
1d4
100
AcDbEntity
  8
Layer_1
 62
7
100
AcDbLine
 10
48.000011
 20
0.300004
 30
0.0
 11
48.583875
 21
0.417888
 31
0.0
  0
LINE
  5
1d5
100
AcDbEntity
  8
Layer_1
 62
7
100
AcDbLine
 10
48.583875
 20
0.417888
 30
0.0
 11
49.060664
 21
0.739339
 31
0.0
  0
LINE
  5
1d6
100
AcDbEntity
  8
Layer_1
 62
7
100
AcDbLine
 10
49.060664
 20
0.739339
 30
0.0
 11
49.382130
 21
1.216125
 31
0.0
  0
LINE
  5
1d7
100
AcDbEntity
  8
Layer_1
 62
7
100
AcDbLine
 10
49.382130
 20
1.216125
 30
0.0
 11
49.500011
 21
1.799986
 31
0.0
  0
LINE
  5
1d8
100
AcDbEntity
  8
Layer_1
 62
7
100
AcDbLine
 10
49.500011
 20
1.799986
 30
0.0
 11
49.382138
 21
2.383848
 31
0.0
  0
LINE
  5
1d9
100
AcDbEntity
  8
Layer_1
 62
7
100
AcDbLine
 10
49.382138
 20
2.383848
 30
0.0
 11
49.060676
 21
2.860662
 31
0.0
  0
LINE
  5
1da
100
AcDbEntity
  8
Layer_1
 62
7
100
AcDbLine
 10
49.060676
 20
2.860662
 30
0.0
 11
48.583881
 21
3.182113
 31
0.0
  0
LINE
  5
1db
100
AcDbEntity
  8
Layer_1
 62
7
100
AcDbLine
 10
48.583881
 20
3.182113
 30
0.0
 11
48.000011
 21
3.299998
 31
0.0
  0
LINE
  5
1dc
100
AcDbEntity
  8
Layer_1
 62
7
100
AcDbLine
 10
48.000011
 20
3.299998
 30
0.0
 11
47.416141
 21
3.182113
 31
0.0
  0
LINE
  5
1dd
100
AcDbEntity
  8
Layer_1
 62
7
100
AcDbLine
 10
47.416141
 20
3.182113
 30
0.0
 11
46.939347
 21
2.860662
 31
0.0
  0
LINE
  5
1de
100
AcDbEntity
  8
Layer_1
 62
7
100
AcDbLine
 10
46.939347
 20
2.860662
 30
0.0
 11
46.617884
 21
2.383848
 31
0.0
  0
LINE
  5
1df
100
AcDbEntity
  8
Layer_1
 62
7
100
AcDbLine
 10
46.617884
 20
2.383848
 30
0.0
 11
46.500011
 21
1.799986
 31
0.0
  0
LINE
  5
1e0
100
AcDbEntity
  8
Layer_1
 62
7
100
AcDbLine
 10
-42.999996
 20
7.000016
 30
0.0
 11
-43.157168
 21
6.221534
 31
0.0
  0
LINE
  5
1e1
100
AcDbEntity
  8
Layer_1
 62
7
100
AcDbLine
 10
-43.157168
 20
6.221534
 30
0.0
 11
-43.585785
 21
5.585800
 31
0.0
  0
LINE
  5
1e2
100
AcDbEntity
  8
Layer_1
 62
7
100
AcDbLine
 10
-43.585785
 20
5.585800
 30
0.0
 11
-44.221507
 21
5.157189
 31
0.0
  0
LINE
  5
1e3
100
AcDbEntity
  8
Layer_1
 62
7
100
AcDbLine
 10
-44.221507
 20
5.157189
 30
0.0
 11
-44.999997
 21
5.000020
 31
0.0
  0
LINE
  5
1e4
100
AcDbEntity
  8
Layer_1
 62
7
100
AcDbLine
 10
-44.999997
 20
5.000020
 30
0.0
 11
-45.778488
 21
5.157189
 31
0.0
  0
LINE
  5
1e5
100
AcDbEntity
  8
Layer_1
 62
7
100
AcDbLine
 10
-45.778488
 20
5.157189
 30
0.0
 11
-46.414210
 21
5.585800
 31
0.0
  0
LINE
  5
1e6
100
AcDbEntity
  8
Layer_1
 62
7
100
AcDbLine
 10
-46.414210
 20
5.585800
 30
0.0
 11
-46.842827
 21
6.221534
 31
0.0
  0
LINE
  5
1e7
100
AcDbEntity
  8
Layer_1
 62
7
100
AcDbLine
 10
-46.842827
 20
6.221534
 30
0.0
 11
-46.999996
 21
7.000016
 31
0.0
  0
LINE
  5
1e8
100
AcDbEntity
  8
Layer_1
 62
7
100
AcDbLine
 10
-46.999996
 20
7.000016
 30
0.0
 11
-46.842832
 21
7.778526
 31
0.0
  0
LINE
  5
1e9
100
AcDbEntity
  8
Layer_1
 62
7
100
AcDbLine
 10
-46.842832
 20
7.778526
 30
0.0
 11
-46.414219
 21
8.414231
 31
0.0
  0
LINE
  5
1ea
100
AcDbEntity
  8
Layer_1
 62
7
100
AcDbLine
 10
-46.414219
 20
8.414231
 30
0.0
 11
-45.778493
 21
8.842870
 31
0.0
  0
LINE
  5
1eb
100
AcDbEntity
  8
Layer_1
 62
7
100
AcDbLine
 10
-45.778493
 20
8.842870
 30
0.0
 11
-44.999997
 21
9.000040
 31
0.0
  0
LINE
  5
1ec
100
AcDbEntity
  8
Layer_1
 62
7
100
AcDbLine
 10
-44.999997
 20
9.000040
 30
0.0
 11
-44.221502
 21
8.842870
 31
0.0
  0
LINE
  5
1ed
100
AcDbEntity
  8
Layer_1
 62
7
100
AcDbLine
 10
-44.221502
 20
8.842870
 30
0.0
 11
-43.585773
 21
8.414259
 31
0.0
  0
LINE
  5
1ee
100
AcDbEntity
  8
Layer_1
 62
7
100
AcDbLine
 10
-43.585773
 20
8.414259
 30
0.0
 11
-43.157160
 21
7.778526
 31
0.0
  0
LINE
  5
1ef
100
AcDbEntity
  8
Layer_1
 62
7
100
AcDbLine
 10
-43.157160
 20
7.778526
 30
0.0
 11
-42.999996
 21
7.000016
 31
0.0
  0
LINE
  5
1f0
100
AcDbEntity
  8
Layer_1
 62
7
100
AcDbLine
 10
-32.999988
 20
6.999987
 30
0.0
 11
-33.157157
 21
6.221506
 31
0.0
  0
LINE
  5
1f1
100
AcDbEntity
  8
Layer_1
 62
7
100
AcDbLine
 10
-33.157157
 20
6.221506
 30
0.0
 11
-33.585774
 21
5.585772
 31
0.0
  0
LINE
  5
1f2
100
AcDbEntity
  8
Layer_1
 62
7
100
AcDbLine
 10
-33.585774
 20
5.585772
 30
0.0
 11
-34.221496
 21
5.157161
 31
0.0
  0
LINE
  5
1f3
100
AcDbEntity
  8
Layer_1
 62
7
100
AcDbLine
 10
-34.221496
 20
5.157161
 30
0.0
 11
-34.999986
 21
4.999991
 31
0.0
  0
LINE
  5
1f4
100
AcDbEntity
  8
Layer_1
 62
7
100
AcDbLine
 10
-34.999986
 20
4.999991
 30
0.0
 11
-35.778477
 21
5.157161
 31
0.0
  0
LINE
  5
1f5
100
AcDbEntity
  8
Layer_1
 62
7
100
AcDbLine
 10
-35.778477
 20
5.157161
 30
0.0
 11
-36.414199
 21
5.585772
 31
0.0
  0
LINE
  5
1f6
100
AcDbEntity
  8
Layer_1
 62
7
100
AcDbLine
 10
-36.414199
 20
5.585772
 30
0.0
 11
-36.842816
 21
6.221506
 31
0.0
  0
LINE
  5
1f7
100
AcDbEntity
  8
Layer_1
 62
7
100
AcDbLine
 10
-36.842816
 20
6.221506
 30
0.0
 11
-36.999988
 21
6.999987
 31
0.0
  0
LINE
  5
1f8
100
AcDbEntity
  8
Layer_1
 62
7
100
AcDbLine
 10
-36.999988
 20
6.999987
 30
0.0
 11
-36.842819
 21
7.778469
 31
0.0
  0
LINE
  5
1f9
100
AcDbEntity
  8
Layer_1
 62
7
100
AcDbLine
 10
-36.842819
 20
7.778469
 30
0.0
 11
-36.414202
 21
8.414203
 31
0.0
  0
LINE
  5
1fa
100
AcDbEntity
  8
Layer_1
 62
7
100
AcDbLine
 10
-36.414202
 20
8.414203
 30
0.0
 11
-35.778477
 21
8.842814
 31
0.0
  0
LINE
  5
1fb
100
AcDbEntity
  8
Layer_1
 62
7
100
AcDbLine
 10
-35.778477
 20
8.842814
 30
0.0
 11
-34.999986
 21
8.999983
 31
0.0
  0
LINE
  5
1fc
100
AcDbEntity
  8
Layer_1
 62
7
100
AcDbLine
 10
-34.999986
 20
8.999983
 30
0.0
 11
-34.221496
 21
8.842814
 31
0.0
  0
LINE
  5
1fd
100
AcDbEntity
  8
Layer_1
 62
7
100
AcDbLine
 10
-34.221496
 20
8.842814
 30
0.0
 11
-33.585774
 21
8.414203
 31
0.0
  0
LINE
  5
1fe
100
AcDbEntity
  8
Layer_1
 62
7
100
AcDbLine
 10
-33.585774
 20
8.414203
 30
0.0
 11
-33.157157
 21
7.778469
 31
0.0
  0
LINE
  5
1ff
100
AcDbEntity
  8
Layer_1
 62
7
100
AcDbLine
 10
-33.157157
 20
7.778469
 30
0.0
 11
-32.999988
 21
6.999987
 31
0.0
  0
LINE
  5
200
100
AcDbEntity
  8
Layer_1
 62
7
100
AcDbLine
 10
-23.000012
 20
7.000016
 30
0.0
 11
-23.157183
 21
6.221534
 31
0.0
  0
LINE
  5
201
100
AcDbEntity
  8
Layer_1
 62
7
100
AcDbLine
 10
-23.157183
 20
6.221534
 30
0.0
 11
-23.585799
 21
5.585800
 31
0.0
  0
LINE
  5
202
100
AcDbEntity
  8
Layer_1
 62
7
100
AcDbLine
 10
-23.585799
 20
5.585800
 30
0.0
 11
-24.221522
 21
5.157189
 31
0.0
  0
LINE
  5
203
100
AcDbEntity
  8
Layer_1
 62
7
100
AcDbLine
 10
-24.221522
 20
5.157189
 30
0.0
 11
-25.000012
 21
5.000020
 31
0.0
  0
LINE
  5
204
100
AcDbEntity
  8
Layer_1
 62
7
100
AcDbLine
 10
-25.000012
 20
5.000020
 30
0.0
 11
-25.778501
 21
5.157189
 31
0.0
  0
LINE
  5
205
100
AcDbEntity
  8
Layer_1
 62
7
100
AcDbLine
 10
-25.778501
 20
5.157189
 30
0.0
 11
-26.414224
 21
5.585800
 31
0.0
  0
LINE
  5
206
100
AcDbEntity
  8
Layer_1
 62
7
100
AcDbLine
 10
-26.414224
 20
5.585800
 30
0.0
 11
-26.842841
 21
6.221534
 31
0.0
  0
LINE
  5
207
100
AcDbEntity
  8
Layer_1
 62
7
100
AcDbLine
 10
-26.842841
 20
6.221534
 30
0.0
 11
-27.000011
 21
7.000016
 31
0.0
  0
LINE
  5
208
100
AcDbEntity
  8
Layer_1
 62
7
100
AcDbLine
 10
-27.000011
 20
7.000016
 30
0.0
 11
-26.842848
 21
7.778526
 31
0.0
  0
LINE
  5
209
100
AcDbEntity
  8
Layer_1
 62
7
100
AcDbLine
 10
-26.842848
 20
7.778526
 30
0.0
 11
-26.414234
 21
8.414231
 31
0.0
  0
LINE
  5
20a
100
AcDbEntity
  8
Layer_1
 62
7
100
AcDbLine
 10
-26.414234
 20
8.414231
 30
0.0
 11
-25.778508
 21
8.842870
 31
0.0
  0
LINE
  5
20b
100
AcDbEntity
  8
Layer_1
 62
7
100
AcDbLine
 10
-25.778508
 20
8.842870
 30
0.0
 11
-25.000012
 21
9.000040
 31
0.0
  0
LINE
  5
20c
100
AcDbEntity
  8
Layer_1
 62
7
100
AcDbLine
 10
-25.000012
 20
9.000040
 30
0.0
 11
-24.221515
 21
8.842870
 31
0.0
  0
LINE
  5
20d
100
AcDbEntity
  8
Layer_1
 62
7
100
AcDbLine
 10
-24.221515
 20
8.842870
 30
0.0
 11
-23.585789
 21
8.414231
 31
0.0
  0
LINE
  5
20e
100
AcDbEntity
  8
Layer_1
 62
7
100
AcDbLine
 10
-23.585789
 20
8.414231
 30
0.0
 11
-23.157175
 21
7.778526
 31
0.0
  0
LINE
  5
20f
100
AcDbEntity
  8
Layer_1
 62
7
100
AcDbLine
 10
-23.157175
 20
7.778526
 30
0.0
 11
-23.000012
 21
7.000016
 31
0.0
  0
LINE
  5
210
100
AcDbEntity
  8
Layer_1
 62
7
100
AcDbLine
 10
-13.000002
 20
6.999987
 30
0.0
 11
-13.157173
 21
6.221506
 31
0.0
  0
LINE
  5
211
100
AcDbEntity
  8
Layer_1
 62
7
100
AcDbLine
 10
-13.157173
 20
6.221506
 30
0.0
 11
-13.585789
 21
5.585772
 31
0.0
  0
LINE
  5
212
100
AcDbEntity
  8
Layer_1
 62
7
100
AcDbLine
 10
-13.585789
 20
5.585772
 30
0.0
 11
-14.221512
 21
5.157161
 31
0.0
  0
LINE
  5
213
100
AcDbEntity
  8
Layer_1
 62
7
100
AcDbLine
 10
-14.221512
 20
5.157161
 30
0.0
 11
-15.000002
 21
4.999991
 31
0.0
  0
LINE
  5
214
100
AcDbEntity
  8
Layer_1
 62
7
100
AcDbLine
 10
-15.000002
 20
4.999991
 30
0.0
 11
-15.778491
 21
5.157161
 31
0.0
  0
LINE
  5
215
100
AcDbEntity
  8
Layer_1
 62
7
100
AcDbLine
 10
-15.778491
 20
5.157161
 30
0.0
 11
-16.414214
 21
5.585772
 31
0.0
  0
LINE
  5
216
100
AcDbEntity
  8
Layer_1
 62
7
100
AcDbLine
 10
-16.414214
 20
5.585772
 30
0.0
 11
-16.842831
 21
6.221506
 31
0.0
  0
LINE
  5
217
100
AcDbEntity
  8
Layer_1
 62
7
100
AcDbLine
 10
-16.842831
 20
6.221506
 30
0.0
 11
-17.000002
 21
6.999987
 31
0.0
  0
LINE
  5
218
100
AcDbEntity
  8
Layer_1
 62
7
100
AcDbLine
 10
-17.000002
 20
6.999987
 30
0.0
 11
-16.842833
 21
7.778469
 31
0.0
  0
LINE
  5
219
100
AcDbEntity
  8
Layer_1
 62
7
100
AcDbLine
 10
-16.842833
 20
7.778469
 30
0.0
 11
-16.414215
 21
8.414203
 31
0.0
  0
LINE
  5
21a
100
AcDbEntity
  8
Layer_1
 62
7
100
AcDbLine
 10
-16.414215
 20
8.414203
 30
0.0
 11
-15.778492
 21
8.842814
 31
0.0
  0
LINE
  5
21b
100
AcDbEntity
  8
Layer_1
 62
7
100
AcDbLine
 10
-15.778492
 20
8.842814
 30
0.0
 11
-15.000002
 21
8.999983
 31
0.0
  0
LINE
  5
21c
100
AcDbEntity
  8
Layer_1
 62
7
100
AcDbLine
 10
-15.000002
 20
8.999983
 30
0.0
 11
-14.221512
 21
8.842814
 31
0.0
  0
LINE
  5
21d
100
AcDbEntity
  8
Layer_1
 62
7
100
AcDbLine
 10
-14.221512
 20
8.842814
 30
0.0
 11
-13.585788
 21
8.414203
 31
0.0
  0
LINE
  5
21e
100
AcDbEntity
  8
Layer_1
 62
7
100
AcDbLine
 10
-13.585788
 20
8.414203
 30
0.0
 11
-13.157171
 21
7.778469
 31
0.0
  0
LINE
  5
21f
100
AcDbEntity
  8
Layer_1
 62
7
100
AcDbLine
 10
-13.157171
 20
7.778469
 30
0.0
 11
-13.000002
 21
6.999987
 31
0.0
  0
LINE
  5
220
100
AcDbEntity
  8
Layer_1
 62
7
100
AcDbLine
 10
16.999993
 20
7.000016
 30
0.0
 11
16.842822
 21
6.221534
 31
0.0
  0
LINE
  5
221
100
AcDbEntity
  8
Layer_1
 62
7
100
AcDbLine
 10
16.842822
 20
6.221534
 30
0.0
 11
16.414205
 21
5.585800
 31
0.0
  0
LINE
  5
222
100
AcDbEntity
  8
Layer_1
 62
7
100
AcDbLine
 10
16.414205
 20
5.585800
 30
0.0
 11
15.778483
 21
5.157189
 31
0.0
  0
LINE
  5
223
100
AcDbEntity
  8
Layer_1
 62
7
100
AcDbLine
 10
15.778483
 20
5.157189
 30
0.0
 11
14.999993
 21
5.000020
 31
0.0
  0
LINE
  5
224
100
AcDbEntity
  8
Layer_1
 62
7
100
AcDbLine
 10
14.999993
 20
5.000020
 30
0.0
 11
14.221504
 21
5.157189
 31
0.0
  0
LINE
  5
225
100
AcDbEntity
  8
Layer_1
 62
7
100
AcDbLine
 10
14.221504
 20
5.157189
 30
0.0
 11
13.585781
 21
5.585800
 31
0.0
  0
LINE
  5
226
100
AcDbEntity
  8
Layer_1
 62
7
100
AcDbLine
 10
13.585781
 20
5.585800
 30
0.0
 11
13.157164
 21
6.221534
 31
0.0
  0
LINE
  5
227
100
AcDbEntity
  8
Layer_1
 62
7
100
AcDbLine
 10
13.157164
 20
6.221534
 30
0.0
 11
12.999993
 21
7.000016
 31
0.0
  0
LINE
  5
228
100
AcDbEntity
  8
Layer_1
 62
7
100
AcDbLine
 10
12.999993
 20
7.000016
 30
0.0
 11
13.157156
 21
7.778526
 31
0.0
  0
LINE
  5
229
100
AcDbEntity
  8
Layer_1
 62
7
100
AcDbLine
 10
13.157156
 20
7.778526
 30
0.0
 11
13.585771
 21
8.414231
 31
0.0
  0
LINE
  5
22a
100
AcDbEntity
  8
Layer_1
 62
7
100
AcDbLine
 10
13.585771
 20
8.414231
 30
0.0
 11
14.221497
 21
8.842870
 31
0.0
  0
LINE
  5
22b
100
AcDbEntity
  8
Layer_1
 62
7
100
AcDbLine
 10
14.221497
 20
8.842870
 30
0.0
 11
14.999993
 21
9.000040
 31
0.0
  0
LINE
  5
22c
100
AcDbEntity
  8
Layer_1
 62
7
100
AcDbLine
 10
14.999993
 20
9.000040
 30
0.0
 11
15.778489
 21
8.842870
 31
0.0
  0
LINE
  5
22d
100
AcDbEntity
  8
Layer_1
 62
7
100
AcDbLine
 10
15.778489
 20
8.842870
 30
0.0
 11
16.414215
 21
8.414231
 31
0.0
  0
LINE
  5
22e
100
AcDbEntity
  8
Layer_1
 62
7
100
AcDbLine
 10
16.414215
 20
8.414231
 30
0.0
 11
16.842830
 21
7.778526
 31
0.0
  0
LINE
  5
22f
100
AcDbEntity
  8
Layer_1
 62
7
100
AcDbLine
 10
16.842830
 20
7.778526
 30
0.0
 11
16.999993
 21
7.000016
 31
0.0
  0
LINE
  5
230
100
AcDbEntity
  8
Layer_1
 62
7
100
AcDbLine
 10
27.000005
 20
6.999987
 30
0.0
 11
26.842834
 21
6.221506
 31
0.0
  0
LINE
  5
231
100
AcDbEntity
  8
Layer_1
 62
7
100
AcDbLine
 10
26.842834
 20
6.221506
 30
0.0
 11
26.414217
 21
5.585772
 31
0.0
  0
LINE
  5
232
100
AcDbEntity
  8
Layer_1
 62
7
100
AcDbLine
 10
26.414217
 20
5.585772
 30
0.0
 11
25.778494
 21
5.157161
 31
0.0
  0
LINE
  5
233
100
AcDbEntity
  8
Layer_1
 62
7
100
AcDbLine
 10
25.778494
 20
5.157161
 30
0.0
 11
25.000005
 21
4.999991
 31
0.0
  0
LINE
  5
234
100
AcDbEntity
  8
Layer_1
 62
7
100
AcDbLine
 10
25.000005
 20
4.999991
 30
0.0
 11
24.221516
 21
5.157161
 31
0.0
  0
LINE
  5
235
100
AcDbEntity
  8
Layer_1
 62
7
100
AcDbLine
 10
24.221516
 20
5.157161
 30
0.0
 11
23.585793
 21
5.585772
 31
0.0
  0
LINE
  5
236
100
AcDbEntity
  8
Layer_1
 62
7
100
AcDbLine
 10
23.585793
 20
5.585772
 30
0.0
 11
23.157176
 21
6.221506
 31
0.0
  0
LINE
  5
237
100
AcDbEntity
  8
Layer_1
 62
7
100
AcDbLine
 10
23.157176
 20
6.221506
 30
0.0
 11
23.000005
 21
6.999987
 31
0.0
  0
LINE
  5
238
100
AcDbEntity
  8
Layer_1
 62
7
100
AcDbLine
 10
23.000005
 20
6.999987
 30
0.0
 11
23.157174
 21
7.778469
 31
0.0
  0
LINE
  5
239
100
AcDbEntity
  8
Layer_1
 62
7
100
AcDbLine
 10
23.157174
 20
7.778469
 30
0.0
 11
23.585791
 21
8.414203
 31
0.0
  0
LINE
  5
23a
100
AcDbEntity
  8
Layer_1
 62
7
100
AcDbLine
 10
23.585791
 20
8.414203
 30
0.0
 11
24.221515
 21
8.842814
 31
0.0
  0
LINE
  5
23b
100
AcDbEntity
  8
Layer_1
 62
7
100
AcDbLine
 10
24.221515
 20
8.842814
 30
0.0
 11
25.000005
 21
8.999983
 31
0.0
  0
LINE
  5
23c
100
AcDbEntity
  8
Layer_1
 62
7
100
AcDbLine
 10
25.000005
 20
8.999983
 30
0.0
 11
25.778495
 21
8.842814
 31
0.0
  0
LINE
  5
23d
100
AcDbEntity
  8
Layer_1
 62
7
100
AcDbLine
 10
25.778495
 20
8.842814
 30
0.0
 11
26.414219
 21
8.414203
 31
0.0
  0
LINE
  5
23e
100
AcDbEntity
  8
Layer_1
 62
7
100
AcDbLine
 10
26.414219
 20
8.414203
 30
0.0
 11
26.842836
 21
7.778469
 31
0.0
  0
LINE
  5
23f
100
AcDbEntity
  8
Layer_1
 62
7
100
AcDbLine
 10
26.842836
 20
7.778469
 30
0.0
 11
27.000005
 21
6.999987
 31
0.0
  0
LINE
  5
240
100
AcDbEntity
  8
Layer_1
 62
7
100
AcDbLine
 10
36.999977
 20
7.000016
 30
0.0
 11
36.842807
 21
6.221534
 31
0.0
  0
LINE
  5
241
100
AcDbEntity
  8
Layer_1
 62
7
100
AcDbLine
 10
36.842807
 20
6.221534
 30
0.0
 11
36.414191
 21
5.585800
 31
0.0
  0
LINE
  5
242
100
AcDbEntity
  8
Layer_1
 62
7
100
AcDbLine
 10
36.414191
 20
5.585800
 30
0.0
 11
35.778468
 21
5.157189
 31
0.0
  0
LINE
  5
243
100
AcDbEntity
  8
Layer_1
 62
7
100
AcDbLine
 10
35.778468
 20
5.157189
 30
0.0
 11
34.999978
 21
5.000020
 31
0.0
  0
LINE
  5
244
100
AcDbEntity
  8
Layer_1
 62
7
100
AcDbLine
 10
34.999978
 20
5.000020
 30
0.0
 11
34.221488
 21
5.157189
 31
0.0
  0
LINE
  5
245
100
AcDbEntity
  8
Layer_1
 62
7
100
AcDbLine
 10
34.221488
 20
5.157189
 30
0.0
 11
33.585765
 21
5.585800
 31
0.0
  0
LINE
  5
246
100
AcDbEntity
  8
Layer_1
 62
7
100
AcDbLine
 10
33.585765
 20
5.585800
 30
0.0
 11
33.157149
 21
6.221534
 31
0.0
  0
LINE
  5
247
100
AcDbEntity
  8
Layer_1
 62
7
100
AcDbLine
 10
33.157149
 20
6.221534
 30
0.0
 11
32.999979
 21
7.000016
 31
0.0
  0
LINE
  5
248
100
AcDbEntity
  8
Layer_1
 62
7
100
AcDbLine
 10
32.999979
 20
7.000016
 30
0.0
 11
33.157143
 21
7.778526
 31
0.0
  0
LINE
  5
249
100
AcDbEntity
  8
Layer_1
 62
7
100
AcDbLine
 10
33.157143
 20
7.778526
 30
0.0
 11
33.585757
 21
8.414231
 31
0.0
  0
LINE
  5
24a
100
AcDbEntity
  8
Layer_1
 62
7
100
AcDbLine
 10
33.585757
 20
8.414231
 30
0.0
 11
34.221482
 21
8.842870
 31
0.0
  0
LINE
  5
24b
100
AcDbEntity
  8
Layer_1
 62
7
100
AcDbLine
 10
34.221482
 20
8.842870
 30
0.0
 11
34.999978
 21
9.000040
 31
0.0
  0
LINE
  5
24c
100
AcDbEntity
  8
Layer_1
 62
7
100
AcDbLine
 10
34.999978
 20
9.000040
 30
0.0
 11
35.778474
 21
8.842870
 31
0.0
  0
LINE
  5
24d
100
AcDbEntity
  8
Layer_1
 62
7
100
AcDbLine
 10
35.778474
 20
8.842870
 30
0.0
 11
36.414199
 21
8.414231
 31
0.0
  0
LINE
  5
24e
100
AcDbEntity
  8
Layer_1
 62
7
100
AcDbLine
 10
36.414199
 20
8.414231
 30
0.0
 11
36.842813
 21
7.778526
 31
0.0
  0
LINE
  5
24f
100
AcDbEntity
  8
Layer_1
 62
7
100
AcDbLine
 10
36.842813
 20
7.778526
 30
0.0
 11
36.999977
 21
7.000016
 31
0.0
  0
LINE
  5
250
100
AcDbEntity
  8
Layer_1
 62
7
100
AcDbLine
 10
46.999988
 20
6.999987
 30
0.0
 11
46.842818
 21
6.221506
 31
0.0
  0
LINE
  5
251
100
AcDbEntity
  8
Layer_1
 62
7
100
AcDbLine
 10
46.842818
 20
6.221506
 30
0.0
 11
46.414202
 21
5.585772
 31
0.0
  0
LINE
  5
252
100
AcDbEntity
  8
Layer_1
 62
7
100
AcDbLine
 10
46.414202
 20
5.585772
 30
0.0
 11
45.778479
 21
5.157161
 31
0.0
  0
LINE
  5
253
100
AcDbEntity
  8
Layer_1
 62
7
100
AcDbLine
 10
45.778479
 20
5.157161
 30
0.0
 11
44.999989
 21
4.999991
 31
0.0
  0
LINE
  5
254
100
AcDbEntity
  8
Layer_1
 62
7
100
AcDbLine
 10
44.999989
 20
4.999991
 30
0.0
 11
44.221499
 21
5.157161
 31
0.0
  0
LINE
  5
255
100
AcDbEntity
  8
Layer_1
 62
7
100
AcDbLine
 10
44.221499
 20
5.157161
 30
0.0
 11
43.585776
 21
5.585772
 31
0.0
  0
LINE
  5
256
100
AcDbEntity
  8
Layer_1
 62
7
100
AcDbLine
 10
43.585776
 20
5.585772
 30
0.0
 11
43.157160
 21
6.221506
 31
0.0
  0
LINE
  5
257
100
AcDbEntity
  8
Layer_1
 62
7
100
AcDbLine
 10
43.157160
 20
6.221506
 30
0.0
 11
42.999987
 21
6.999987
 31
0.0
  0
LINE
  5
258
100
AcDbEntity
  8
Layer_1
 62
7
100
AcDbLine
 10
42.999987
 20
6.999987
 30
0.0
 11
43.157157
 21
7.778469
 31
0.0
  0
LINE
  5
259
100
AcDbEntity
  8
Layer_1
 62
7
100
AcDbLine
 10
43.157157
 20
7.778469
 30
0.0
 11
43.585773
 21
8.414203
 31
0.0
  0
LINE
  5
25a
100
AcDbEntity
  8
Layer_1
 62
7
100
AcDbLine
 10
43.585773
 20
8.414203
 30
0.0
 11
44.221499
 21
8.842814
 31
0.0
  0
LINE
  5
25b
100
AcDbEntity
  8
Layer_1
 62
7
100
AcDbLine
 10
44.221499
 20
8.842814
 30
0.0
 11
44.999989
 21
8.999983
 31
0.0
  0
LINE
  5
25c
100
AcDbEntity
  8
Layer_1
 62
7
100
AcDbLine
 10
44.999989
 20
8.999983
 30
0.0
 11
45.778479
 21
8.842814
 31
0.0
  0
LINE
  5
25d
100
AcDbEntity
  8
Layer_1
 62
7
100
AcDbLine
 10
45.778479
 20
8.842814
 30
0.0
 11
46.414202
 21
8.414203
 31
0.0
  0
LINE
  5
25e
100
AcDbEntity
  8
Layer_1
 62
7
100
AcDbLine
 10
46.414202
 20
8.414203
 30
0.0
 11
46.842818
 21
7.778469
 31
0.0
  0
LINE
  5
25f
100
AcDbEntity
  8
Layer_1
 62
7
100
AcDbLine
 10
46.842818
 20
7.778469
 30
0.0
 11
46.999988
 21
6.999987
 31
0.0
  0
ENDSEC
  0
SECTION
  2
OBJECTS
  0
DICTIONARY
  5
C
330
0
100
AcDbDictionary
  3
ACAD_GROUP
350
D
  3
ACAD_MLINESTYLE
350
17
  0
DICTIONARY
  5
D
330
C
100
AcDbDictionary
  0
DICTIONARY
  5
1A
330
C
100
AcDbDictionary
  0
DICTIONARY
  5
17
330
C
100
AcDbDictionary
  3
STANDARD
350
18
  0
DICTIONARY
  5
19
330
C
100
AcDbDictionary
  0
ENDSEC
  0
EOF
