  0
SECTION
  2
HEADER
  9
$ACADVER
  1
AC1014
  9
$HANDSEED
  5
FFFF
  9
$MEASUREMENT
 70
     1
  0
ENDSEC
  0
SECTION
  2
TABLES
  0
TABLE
  2
VPORT
  5
8
330
0
100
AcDbSymbolTable
 70
     4
  0
VPORT
  5
2E
330
8
100
AcDbSymbolTableRecord
100
AcDbViewportTableRecord
  2
*ACTIVE
 70
     0
 10
0.0
 20
0.0
 11
1.0
 21
1.0
 12
210.0
 22
148.5
 13
0.0
 23
0.0
 14
10.0
 24
10.0
 15
10.0
 25
10.0
 16
0.0
 26
0.0
 36
1.0
 17
0.0
 27
0.0
 37
0.0
 40
341.0
 41
1.24
 42
50.0
 43
0.0
 44
0.0
 50
0.0
 51
0.0
 71
     0
 72
   100
 73
     1
 74
     3
 75
     0
 76
     0
 77
     0
 78
     0
  0
ENDTAB
  0
TABLE
  2
LTYPE
  5
5
330
0
100
AcDbSymbolTable
 70
     1
  0
LTYPE
  5
14
330
5
100
AcDbSymbolTableRecord
100
AcDbLinetypeTableRecord
  2
BYBLOCK
 70
     0
  3

 72
    65
 73
     0
 40
0.0
  0
LTYPE
  5
15
330
5
100
AcDbSymbolTableRecord
100
AcDbLinetypeTableRecord
  2
BYLAYER
 70
     0
  3

 72
    65
 73
     0
 40
0.0
  0
LTYPE
  5
16
330
5
100
AcDbSymbolTableRecord
100
AcDbLinetypeTableRecord
  2
CONTINUOUS
 70
     0
  3
Solid line
 72
    65
 73
     0
 40
0.0
  0
ENDTAB
  0
TABLE
  2
LAYER
  5
2
100
AcDbSymbolTable
 70
2
  0
LAYER
  5
50
100
AcDbSymbolTableRecord
100
AcDbLayerTableRecord
  2
0
 70
0
  6
CONTINUOUS
  0
LAYER
  5
51
100
AcDbSymbolTableRecord
100
AcDbLayerTableRecord
  2
Layer_1
 70
0
  6
CONTINUOUS
  0
ENDTAB
  0
TABLE
  2
STYLE
  5
3
330
0
100
AcDbSymbolTable
 70
     1
  0
STYLE
  5
11
330
3
100
AcDbSymbolTableRecord
100
AcDbTextStyleTableRecord
  2
STANDARD
 70
     0
 40
0.0
 41
1.0
 50
0.0
 71
     0
 42
2.5
  3
txt
  4

  0
ENDTAB
  0
TABLE
  2
VIEW
  5
6
330
0
100
AcDbSymbolTable
 70
     0
  0
ENDTAB
  0
TABLE
  2
UCS
  5
7
330
0
100
AcDbSymbolTable
 70
     0
  0
ENDTAB
  0
TABLE
  2
APPID
  5
9
330
0
100
AcDbSymbolTable
 70
     2
  0
APPID
  5
12
330
9
100
AcDbSymbolTableRecord
100
AcDbRegAppTableRecord
  2
ACAD
 70
     0
  0
ENDTAB
  0
TABLE
  2
DIMSTYLE
  5
A
330
0
100
AcDbSymbolTable
 70
     1
  0
DIMSTYLE
105
27
330
A
100
AcDbSymbolTableRecord
100
AcDbDimStyleTableRecord
  2
ISO-25
 70
     0
  3

  4

  5

  6

  7

 40
1.0
 41
2.5
 42
0.625
 43
3.75
 44
1.25
 45
0.0
 46
0.0
 47
0.0
 48
0.0
140
2.5
141
2.5
142
0.0
143
0.03937007874016
144
1.0
145
0.0
146
1.0
147
0.625
 71
     0
 72
     0
 73
     0
 74
     0
 75
     0
 76
     0
 77
     1
 78
     8
170
     0
171
     3
172
     1
173
     0
174
     0
175
     0
176
     0
177
     0
178
     0
270
     2
271
     2
272
     2
273
     2
274
     3
340
11
275
     0
280
     0
281
     0
282
     0
283
     0
284
     8
285
     0
286
     0
287
     3
288
     0
  0
ENDTAB
  0
TABLE
  2
BLOCK_RECORD
  5
1
330
0
100
AcDbSymbolTable
 70
     1
  0
BLOCK_RECORD
  5
1F
330
1
100
AcDbSymbolTableRecord
100
AcDbBlockTableRecord
  2
*MODEL_SPACE
  0
BLOCK_RECORD
  5
1B
330
1
100
AcDbSymbolTableRecord
100
AcDbBlockTableRecord
  2
*PAPER_SPACE
  0
ENDTAB
  0
ENDSEC
  0
SECTION
  2
BLOCKS
  0
BLOCK
  5
20
330
1F
100
AcDbEntity
  8
0
100
AcDbBlockBegin
  2
*MODEL_SPACE
 70
     0
 10
0.0
 20
0.0
 30
0.0
  3
*MODEL_SPACE
  1

  0
ENDBLK
  5
21
330
1F
100
AcDbEntity
  8
0
100
AcDbBlockEnd
  0
BLOCK
  5
1C
330
1B
100
AcDbEntity
 67
     1
  8
0
100
AcDbBlockBegin
  2
*PAPER_SPACE
  1

  0
ENDBLK
  5
1D
330
1B
100
AcDbEntity
 67
     1
  8
0
100
AcDbBlockEnd
  0
ENDSEC
  0
SECTION
  2
ENTITIES
  0
LINE
  5
100
100
AcDbEntity
  8
Layer_1
 62
7
100
AcDbLine
 10
-49.360644
 20
-16.999993
 30
0.0
 11
-24.680322
 21
-16.999993
 31
0.0
  0
LINE
  5
101
100
AcDbEntity
  8
Layer_1
 62
7
100
AcDbLine
 10
-24.680322
 20
-16.999993
 30
0.0
 11
0.000000
 21
-16.999993
 31
0.0
  0
LINE
  5
102
100
AcDbEntity
  8
Layer_1
 62
7
100
AcDbLine
 10
0.000000
 20
-16.999993
 30
0.0
 11
24.680322
 21
-16.999993
 31
0.0
  0
LINE
  5
103
100
AcDbEntity
  8
Layer_1
 62
7
100
AcDbLine
 10
24.680322
 20
-16.999993
 30
0.0
 11
49.360644
 21
-16.999993
 31
0.0
  0
LINE
  5
104
100
AcDbEntity
  8
Layer_1
 62
7
100
AcDbLine
 10
49.360644
 20
-16.999993
 30
0.0
 11
50.389911
 21
-16.793209
 31
0.0
  0
LINE
  5
105
100
AcDbEntity
  8
Layer_1
 62
7
100
AcDbLine
 10
50.389911
 20
-16.793209
 30
0.0
 11
51.228650
 21
-16.228651
 31
0.0
  0
LINE
  5
106
100
AcDbEntity
  8
Layer_1
 62
7
100
AcDbLine
 10
51.228650
 20
-16.228651
 30
0.0
 11
51.793225
 21
-15.389887
 31
0.0
  0
LINE
  5
107
100
AcDbEntity
  8
Layer_1
 62
7
100
AcDbLine
 10
51.793225
 20
-15.389887
 30
0.0
 11
52.000000
 21
-14.360622
 31
0.0
  0
LINE
  5
108
100
AcDbEntity
  8
Layer_1
 62
7
100
AcDbLine
 10
52.000000
 20
-14.360622
 30
0.0
 11
52.000000
 21
-8.801494
 31
0.0
  0
LINE
  5
109
100
AcDbEntity
  8
Layer_1
 62
7
100
AcDbLine
 10
52.000000
 20
-8.801494
 30
0.0
 11
52.000000
 21
-3.242337
 31
0.0
  0
LINE
  5
10a
100
AcDbEntity
  8
Layer_1
 62
7
100
AcDbLine
 10
52.000000
 20
-3.242337
 30
0.0
 11
52.000000
 21
2.316792
 31
0.0
  0
LINE
  5
10b
100
AcDbEntity
  8
Layer_1
 62
7
100
AcDbLine
 10
52.000000
 20
2.316792
 30
0.0
 11
52.000000
 21
7.875949
 31
0.0
  0
LINE
  5
10c
100
AcDbEntity
  8
Layer_1
 62
7
100
AcDbLine
 10
52.000000
 20
7.875949
 30
0.0
 11
51.793225
 21
8.905213
 31
0.0
  0
LINE
  5
10d
100
AcDbEntity
  8
Layer_1
 62
7
100
AcDbLine
 10
51.793225
 20
8.905213
 30
0.0
 11
51.228650
 21
9.743949
 31
0.0
  0
LINE
  5
10e
100
AcDbEntity
  8
Layer_1
 62
7
100
AcDbLine
 10
51.228650
 20
9.743949
 30
0.0
 11
50.389911
 21
10.308507
 31
0.0
  0
LINE
  5
10f
100
AcDbEntity
  8
Layer_1
 62
7
100
AcDbLine
 10
50.389911
 20
10.308507
 30
0.0
 11
49.360644
 21
10.515291
 31
0.0
  0
LINE
  5
110
100
AcDbEntity
  8
Layer_1
 62
7
100
AcDbLine
 10
49.360644
 20
10.515291
 30
0.0
 11
24.680322
 21
10.515291
 31
0.0
  0
LINE
  5
111
100
AcDbEntity
  8
Layer_1
 62
7
100
AcDbLine
 10
24.680322
 20
10.515291
 30
0.0
 11
0.000000
 21
10.515291
 31
0.0
  0
LINE
  5
112
100
AcDbEntity
  8
Layer_1
 62
7
100
AcDbLine
 10
0.000000
 20
10.515291
 30
0.0
 11
-24.680322
 21
10.515291
 31
0.0
  0
LINE
  5
113
100
AcDbEntity
  8
Layer_1
 62
7
100
AcDbLine
 10
-24.680322
 20
10.515291
 30
0.0
 11
-49.360644
 21
10.515291
 31
0.0
  0
LINE
  5
114
100
AcDbEntity
  8
Layer_1
 62
7
100
AcDbLine
 10
-49.360644
 20
10.515291
 30
0.0
 11
-50.389911
 21
10.308507
 31
0.0
  0
LINE
  5
115
100
AcDbEntity
  8
Layer_1
 62
7
100
AcDbLine
 10
-50.389911
 20
10.308507
 30
0.0
 11
-51.228650
 21
9.743949
 31
0.0
  0
LINE
  5
116
100
AcDbEntity
  8
Layer_1
 62
7
100
AcDbLine
 10
-51.228650
 20
9.743949
 30
0.0
 11
-51.793225
 21
8.905213
 31
0.0
  0
LINE
  5
117
100
AcDbEntity
  8
Layer_1
 62
7
100
AcDbLine
 10
-51.793225
 20
8.905213
 30
0.0
 11
-52.000000
 21
7.875949
 31
0.0
  0
LINE
  5
118
100
AcDbEntity
  8
Layer_1
 62
7
100
AcDbLine
 10
-52.000000
 20
7.875949
 30
0.0
 11
-52.000000
 21
2.316792
 31
0.0
  0
LINE
  5
119
100
AcDbEntity
  8
Layer_1
 62
7
100
AcDbLine
 10
-52.000000
 20
2.316792
 30
0.0
 11
-52.000000
 21
-3.242337
 31
0.0
  0
LINE
  5
11a
100
AcDbEntity
  8
Layer_1
 62
7
100
AcDbLine
 10
-52.000000
 20
-3.242337
 30
0.0
 11
-52.000000
 21
-8.801494
 31
0.0
  0
LINE
  5
11b
100
AcDbEntity
  8
Layer_1
 62
7
100
AcDbLine
 10
-52.000000
 20
-8.801494
 30
0.0
 11
-52.000000
 21
-14.360622
 31
0.0
  0
LINE
  5
11c
100
AcDbEntity
  8
Layer_1
 62
7
100
AcDbLine
 10
-52.000000
 20
-14.360622
 30
0.0
 11
-51.793225
 21
-15.389887
 31
0.0
  0
LINE
  5
11d
100
AcDbEntity
  8
Layer_1
 62
7
100
AcDbLine
 10
-51.793225
 20
-15.389887
 30
0.0
 11
-51.228650
 21
-16.228651
 31
0.0
  0
LINE
  5
11e
100
AcDbEntity
  8
Layer_1
 62
7
100
AcDbLine
 10
-51.228650
 20
-16.228651
 30
0.0
 11
-50.389911
 21
-16.793209
 31
0.0
  0
LINE
  5
11f
100
AcDbEntity
  8
Layer_1
 62
7
100
AcDbLine
 10
-50.389911
 20
-16.793209
 30
0.0
 11
-49.360644
 21
-16.999993
 31
0.0
  0
LINE
  5
120
100
AcDbEntity
  8
Layer_1
 62
7
100
AcDbLine
 10
-46.500003
 20
-13.000001
 30
0.0
 11
-46.617884
 21
-13.583862
 31
0.0
  0
LINE
  5
121
100
AcDbEntity
  8
Layer_1
 62
7
100
AcDbLine
 10
-46.617884
 20
-13.583862
 30
0.0
 11
-46.939350
 21
-14.060648
 31
0.0
  0
LINE
  5
122
100
AcDbEntity
  8
Layer_1
 62
7
100
AcDbLine
 10
-46.939350
 20
-14.060648
 30
0.0
 11
-47.416139
 21
-14.382100
 31
0.0
  0
LINE
  5
123
100
AcDbEntity
  8
Layer_1
 62
7
100
AcDbLine
 10
-47.416139
 20
-14.382100
 30
0.0
 11
-48.000003
 21
-14.499984
 31
0.0
  0
LINE
  5
124
100
AcDbEntity
  8
Layer_1
 62
7
100
AcDbLine
 10
-48.000003
 20
-14.499984
 30
0.0
 11
-48.583867
 21
-14.382100
 31
0.0
  0
LINE
  5
125
100
AcDbEntity
  8
Layer_1
 62
7
100
AcDbLine
 10
-48.583867
 20
-14.382100
 30
0.0
 11
-49.060656
 21
-14.060648
 31
0.0
  0
LINE
  5
126
100
AcDbEntity
  8
Layer_1
 62
7
100
AcDbLine
 10
-49.060656
 20
-14.060648
 30
0.0
 11
-49.382121
 21
-13.583862
 31
0.0
  0
LINE
  5
127
100
AcDbEntity
  8
Layer_1
 62
7
100
AcDbLine
 10
-49.382121
 20
-13.583862
 30
0.0
 11
-49.500003
 21
-13.000001
 31
0.0
  0
LINE
  5
128
100
AcDbEntity
  8
Layer_1
 62
7
100
AcDbLine
 10
-49.500003
 20
-13.000001
 30
0.0
 11
-49.382130
 21
-12.416140
 31
0.0
  0
LINE
  5
129
100
AcDbEntity
  8
Layer_1
 62
7
100
AcDbLine
 10
-49.382130
 20
-12.416140
 30
0.0
 11
-49.060667
 21
-11.939325
 31
0.0
  0
LINE
  5
12a
100
AcDbEntity
  8
Layer_1
 62
7
100
AcDbLine
 10
-49.060667
 20
-11.939325
 30
0.0
 11
-48.583873
 21
-11.617874
 31
0.0
  0
LINE
  5
12b
100
AcDbEntity
  8
Layer_1
 62
7
100
AcDbLine
 10
-48.583873
 20
-11.617874
 30
0.0
 11
-48.000003
 21
-11.499990
 31
0.0
  0
LINE
  5
12c
100
AcDbEntity
  8
Layer_1
 62
7
100
AcDbLine
 10
-48.000003
 20
-11.499990
 30
0.0
 11
-47.416133
 21
-11.617874
 31
0.0
  0
LINE
  5
12d
100
AcDbEntity
  8
Layer_1
 62
7
100
AcDbLine
 10
-47.416133
 20
-11.617874
 30
0.0
 11
-46.939338
 21
-11.939325
 31
0.0
  0
LINE
  5
12e
100
AcDbEntity
  8
Layer_1
 62
7
100
AcDbLine
 10
-46.939338
 20
-11.939325
 30
0.0
 11
-46.617876
 21
-12.416140
 31
0.0
  0
LINE
  5
12f
100
AcDbEntity
  8
Layer_1
 62
7
100
AcDbLine
 10
-46.617876
 20
-12.416140
 30
0.0
 11
-46.500003
 21
-13.000001
 31
0.0
  0
LINE
  5
130
100
AcDbEntity
  8
Layer_1
 62
7
100
AcDbLine
 10
-36.489150
 20
-5.420071
 30
0.0
 11
-36.442160
 21
-6.013858
 31
0.0
  0
LINE
  5
131
100
AcDbEntity
  8
Layer_1
 62
7
100
AcDbLine
 10
-36.442160
 20
-6.013858
 30
0.0
 11
-36.180215
 21
-6.525764
 31
0.0
  0
LINE
  5
132
100
AcDbEntity
  8
Layer_1
 62
7
100
AcDbLine
 10
-36.180215
 20
-6.525764
 30
0.0
 11
-35.745430
 21
-6.902091
 31
0.0
  0
LINE
  5
133
100
AcDbEntity
  8
Layer_1
 62
7
100
AcDbLine
 10
-35.745430
 20
-6.902091
 30
0.0
 11
-35.179924
 21
-7.089166
 31
0.0
  0
LINE
  5
134
100
AcDbEntity
  8
Layer_1
 62
7
100
AcDbLine
 10
-35.179924
 20
-7.089166
 30
0.0
 11
-34.586136
 21
-7.042175
 31
0.0
  0
LINE
  5
135
100
AcDbEntity
  8
Layer_1
 62
7
100
AcDbLine
 10
-34.586136
 20
-7.042175
 30
0.0
 11
-34.074226
 21
-6.780242
 31
0.0
  0
LINE
  5
136
100
AcDbEntity
  8
Layer_1
 62
7
100
AcDbLine
 10
-34.074226
 20
-6.780242
 30
0.0
 11
-33.697887
 21
-6.345463
 31
0.0
  0
LINE
  5
137
100
AcDbEntity
  8
Layer_1
 62
7
100
AcDbLine
 10
-33.697887
 20
-6.345463
 30
0.0
 11
-33.510815
 21
-5.779959
 31
0.0
  0
LINE
  5
138
100
AcDbEntity
  8
Layer_1
 62
7
100
AcDbLine
 10
-33.510815
 20
-5.779959
 30
0.0
 11
-33.557795
 21
-5.186174
 31
0.0
  0
LINE
  5
139
100
AcDbEntity
  8
Layer_1
 62
7
100
AcDbLine
 10
-33.557795
 20
-5.186174
 30
0.0
 11
-33.819735
 21
-4.674240
 31
0.0
  0
LINE
  5
13a
100
AcDbEntity
  8
Layer_1
 62
7
100
AcDbLine
 10
-33.819735
 20
-4.674240
 30
0.0
 11
-34.254524
 21
-4.297912
 31
0.0
  0
LINE
  5
13b
100
AcDbEntity
  8
Layer_1
 62
7
100
AcDbLine
 10
-34.254524
 20
-4.297912
 30
0.0
 11
-34.820037
 21
-4.110837
 31
0.0
  0
LINE
  5
13c
100
AcDbEntity
  8
Layer_1
 62
7
100
AcDbLine
 10
-34.820037
 20
-4.110837
 30
0.0
 11
-35.413833
 21
-4.157827
 31
0.0
  0
LINE
  5
13d
100
AcDbEntity
  8
Layer_1
 62
7
100
AcDbLine
 10
-35.413833
 20
-4.157827
 30
0.0
 11
-35.925746
 21
-4.419759
 31
0.0
  0
LINE
  5
13e
100
AcDbEntity
  8
Layer_1
 62
7
100
AcDbLine
 10
-35.925746
 20
-4.419759
 30
0.0
 11
-36.302087
 21
-4.854567
 31
0.0
  0
LINE
  5
13f
100
AcDbEntity
  8
Layer_1
 62
7
100
AcDbLine
 10
-36.302087
 20
-4.854567
 30
0.0
 11
-36.489150
 21
-5.420071
 31
0.0
  0
LINE
  5
140
100
AcDbEntity
  8
Layer_1
 62
7
100
AcDbLine
 10
33.510828
 20
-5.420082
 30
0.0
 11
33.557817
 21
-6.013868
 31
0.0
  0
LINE
  5
141
100
AcDbEntity
  8
Layer_1
 62
7
100
AcDbLine
 10
33.557817
 20
-6.013868
 30
0.0
 11
33.819764
 21
-6.525775
 31
0.0
  0
LINE
  5
142
100
AcDbEntity
  8
Layer_1
 62
7
100
AcDbLine
 10
33.819764
 20
-6.525775
 30
0.0
 11
34.254548
 21
-6.902102
 31
0.0
  0
LINE
  5
143
100
AcDbEntity
  8
Layer_1
 62
7
100
AcDbLine
 10
34.254548
 20
-6.902102
 30
0.0
 11
34.820054
 21
-7.089177
 31
0.0
  0
LINE
  5
144
100
AcDbEntity
  8
Layer_1
 62
7
100
AcDbLine
 10
34.820054
 20
-7.089177
 30
0.0
 11
35.413843
 21
-7.042186
 31
0.0
  0
LINE
  5
145
100
AcDbEntity
  8
Layer_1
 62
7
100
AcDbLine
 10
35.413843
 20
-7.042186
 30
0.0
 11
35.925751
 21
-6.780253
 31
0.0
  0
LINE
  5
146
100
AcDbEntity
  8
Layer_1
 62
7
100
AcDbLine
 10
35.925751
 20
-6.780253
 30
0.0
 11
36.302091
 21
-6.345474
 31
0.0
  0
LINE
  5
147
100
AcDbEntity
  8
Layer_1
 62
7
100
AcDbLine
 10
36.302091
 20
-6.345474
 30
0.0
 11
36.489163
 21
-5.779970
 31
0.0
  0
LINE
  5
148
100
AcDbEntity
  8
Layer_1
 62
7
100
AcDbLine
 10
36.489163
 20
-5.779970
 30
0.0
 11
36.442183
 21
-5.186185
 31
0.0
  0
LINE
  5
149
100
AcDbEntity
  8
Layer_1
 62
7
100
AcDbLine
 10
36.442183
 20
-5.186185
 30
0.0
 11
36.180242
 21
-4.674250
 31
0.0
  0
LINE
  5
14a
100
AcDbEntity
  8
Layer_1
 62
7
100
AcDbLine
 10
36.180242
 20
-4.674250
 30
0.0
 11
35.745453
 21
-4.297923
 31
0.0
  0
LINE
  5
14b
100
AcDbEntity
  8
Layer_1
 62
7
100
AcDbLine
 10
35.745453
 20
-4.297923
 30
0.0
 11
35.179941
 21
-4.110848
 31
0.0
  0
LINE
  5
14c
100
AcDbEntity
  8
Layer_1
 62
7
100
AcDbLine
 10
35.179941
 20
-4.110848
 30
0.0
 11
34.586146
 21
-4.157838
 31
0.0
  0
LINE
  5
14d
100
AcDbEntity
  8
Layer_1
 62
7
100
AcDbLine
 10
34.586146
 20
-4.157838
 30
0.0
 11
34.074233
 21
-4.419770
 31
0.0
  0
LINE
  5
14e
100
AcDbEntity
  8
Layer_1
 62
7
100
AcDbLine
 10
34.074233
 20
-4.419770
 30
0.0
 11
33.697892
 21
-4.854578
 31
0.0
  0
LINE
  5
14f
100
AcDbEntity
  8
Layer_1
 62
7
100
AcDbLine
 10
33.697892
 20
-4.854578
 30
0.0
 11
33.510828
 21
-5.420082
 31
0.0
  0
LINE
  5
150
100
AcDbEntity
  8
Layer_1
 62
7
100
AcDbLine
 10
1.499994
 20
-13.000001
 30
0.0
 11
1.382111
 21
-13.583862
 31
0.0
  0
LINE
  5
151
100
AcDbEntity
  8
Layer_1
 62
7
100
AcDbLine
 10
1.382111
 20
-13.583862
 30
0.0
 11
1.060648
 21
-14.060648
 31
0.0
  0
LINE
  5
152
100
AcDbEntity
  8
Layer_1
 62
7
100
AcDbLine
 10
1.060648
 20
-14.060648
 30
0.0
 11
0.583857
 21
-14.382100
 31
0.0
  0
LINE
  5
153
100
AcDbEntity
  8
Layer_1
 62
7
100
AcDbLine
 10
0.583857
 20
-14.382100
 30
0.0
 11
-0.000006
 21
-14.499984
 31
0.0
  0
LINE
  5
154
100
AcDbEntity
  8
Layer_1
 62
7
100
AcDbLine
 10
-0.000006
 20
-14.499984
 30
0.0
 11
-0.583870
 21
-14.382100
 31
0.0
  0
LINE
  5
155
100
AcDbEntity
  8
Layer_1
 62
7
100
AcDbLine
 10
-0.583870
 20
-14.382100
 30
0.0
 11
-1.060660
 21
-14.060648
 31
0.0
  0
LINE
  5
156
100
AcDbEntity
  8
Layer_1
 62
7
100
AcDbLine
 10
-1.060660
 20
-14.060648
 30
0.0
 11
-1.382124
 21
-13.583862
 31
0.0
  0
LINE
  5
157
100
AcDbEntity
  8
Layer_1
 62
7
100
AcDbLine
 10
-1.382124
 20
-13.583862
 30
0.0
 11
-1.500006
 21
-13.000001
 31
0.0
  0
LINE
  5
158
100
AcDbEntity
  8
Layer_1
 62
7
100
AcDbLine
 10
-1.500006
 20
-13.000001
 30
0.0
 11
-1.382133
 21
-12.416140
 31
0.0
  0
LINE
  5
159
100
AcDbEntity
  8
Layer_1
 62
7
100
AcDbLine
 10
-1.382133
 20
-12.416140
 30
0.0
 11
-1.060672
 21
-11.939325
 31
0.0
  0
LINE
  5
15a
100
AcDbEntity
  8
Layer_1
 62
7
100
AcDbLine
 10
-1.060672
 20
-11.939325
 30
0.0
 11
-0.583877
 21
-11.617874
 31
0.0
  0
LINE
  5
15b
100
AcDbEntity
  8
Layer_1
 62
7
100
AcDbLine
 10
-0.583877
 20
-11.617874
 30
0.0
 11
-0.000006
 21
-11.499990
 31
0.0
  0
LINE
  5
15c
100
AcDbEntity
  8
Layer_1
 62
7
100
AcDbLine
 10
-0.000006
 20
-11.499990
 30
0.0
 11
0.583865
 21
-11.617874
 31
0.0
  0
LINE
  5
15d
100
AcDbEntity
  8
Layer_1
 62
7
100
AcDbLine
 10
0.583865
 20
-11.617874
 30
0.0
 11
1.060659
 21
-11.939325
 31
0.0
  0
LINE
  5
15e
100
AcDbEntity
  8
Layer_1
 62
7
100
AcDbLine
 10
1.060659
 20
-11.939325
 30
0.0
 11
1.382121
 21
-12.416140
 31
0.0
  0
LINE
  5
15f
100
AcDbEntity
  8
Layer_1
 62
7
100
AcDbLine
 10
1.382121
 20
-12.416140
 30
0.0
 11
1.499994
 21
-13.000001
 31
0.0
  0
LINE
  5
160
100
AcDbEntity
  8
Layer_1
 62
7
100
AcDbLine
 10
-46.500003
 20
1.799986
 30
0.0
 11
-46.617884
 21
1.216125
 31
0.0
  0
LINE
  5
161
100
AcDbEntity
  8
Layer_1
 62
7
100
AcDbLine
 10
-46.617884
 20
1.216125
 30
0.0
 11
-46.939350
 21
0.739339
 31
0.0
  0
LINE
  5
162
100
AcDbEntity
  8
Layer_1
 62
7
100
AcDbLine
 10
-46.939350
 20
0.739339
 30
0.0
 11
-47.416139
 21
0.417888
 31
0.0
  0
LINE
  5
163
100
AcDbEntity
  8
Layer_1
 62
7
100
AcDbLine
 10
-47.416139
 20
0.417888
 30
0.0
 11
-48.000003
 21
0.300004
 31
0.0
  0
LINE
  5
164
100
AcDbEntity
  8
Layer_1
 62
7
100
AcDbLine
 10
-48.000003
 20
0.300004
 30
0.0
 11
-48.583867
 21
0.417888
 31
0.0
  0
LINE
  5
165
100
AcDbEntity
  8
Layer_1
 62
7
100
AcDbLine
 10
-48.583867
 20
0.417888
 30
0.0
 11
-49.060656
 21
0.739339
 31
0.0
  0
LINE
  5
166
100
AcDbEntity
  8
Layer_1
 62
7
100
AcDbLine
 10
-49.060656
 20
0.739339
 30
0.0
 11
-49.382121
 21
1.216125
 31
0.0
  0
LINE
  5
167
100
AcDbEntity
  8
Layer_1
 62
7
100
AcDbLine
 10
-49.382121
 20
1.216125
 30
0.0
 11
-49.500003
 21
1.799986
 31
0.0
  0
LINE
  5
168
100
AcDbEntity
  8
Layer_1
 62
7
100
AcDbLine
 10
-49.500003
 20
1.799986
 30
0.0
 11
-49.382130
 21
2.383848
 31
0.0
  0
LINE
  5
169
100
AcDbEntity
  8
Layer_1
 62
7
100
AcDbLine
 10
-49.382130
 20
2.383848
 30
0.0
 11
-49.060667
 21
2.860662
 31
0.0
  0
LINE
  5
16a
100
AcDbEntity
  8
Layer_1
 62
7
100
AcDbLine
 10
-49.060667
 20
2.860662
 30
0.0
 11
-48.583873
 21
3.182113
 31
0.0
  0
LINE
  5
16b
100
AcDbEntity
  8
Layer_1
 62
7
100
AcDbLine
 10
-48.583873
 20
3.182113
 30
0.0
 11
-48.000003
 21
3.299998
 31
0.0
  0
LINE
  5
16c
100
AcDbEntity
  8
Layer_1
 62
7
100
AcDbLine
 10
-48.000003
 20
3.299998
 30
0.0
 11
-47.416133
 21
3.182113
 31
0.0
  0
LINE
  5
16d
100
AcDbEntity
  8
Layer_1
 62
7
100
AcDbLine
 10
-47.416133
 20
3.182113
 30
0.0
 11
-46.939338
 21
2.860662
 31
0.0
  0
LINE
  5
16e
100
AcDbEntity
  8
Layer_1
 62
7
100
AcDbLine
 10
-46.939338
 20
2.860662
 30
0.0
 11
-46.617876
 21
2.383848
 31
0.0
  0
LINE
  5
16f
100
AcDbEntity
  8
Layer_1
 62
7
100
AcDbLine
 10
-46.617876
 20
2.383848
 30
0.0
 11
-46.500003
 21
1.799986
 31
0.0
  0
LINE
  5
170
100
AcDbEntity
  8
Layer_1
 62
7
100
AcDbLine
 10
46.499994
 20
-13.000001
 30
0.0
 11
46.617876
 21
-13.583862
 31
0.0
  0
LINE
  5
171
100
AcDbEntity
  8
Layer_1
 62
7
100
AcDbLine
 10
46.617876
 20
-13.583862
 30
0.0
 11
46.939341
 21
-14.060648
 31
0.0
  0
LINE
  5
172
100
AcDbEntity
  8
Layer_1
 62
7
100
AcDbLine
 10
46.939341
 20
-14.060648
 30
0.0
 11
47.416130
 21
-14.382100
 31
0.0
  0
LINE
  5
173
100
AcDbEntity
  8
Layer_1
 62
7
100
AcDbLine
 10
47.416130
 20
-14.382100
 30
0.0
 11
47.999994
 21
-14.499984
 31
0.0
  0
LINE
  5
174
100
AcDbEntity
  8
Layer_1
 62
7
100
AcDbLine
 10
47.999994
 20
-14.499984
 30
0.0
 11
48.583858
 21
-14.382100
 31
0.0
  0
LINE
  5
175
100
AcDbEntity
  8
Layer_1
 62
7
100
AcDbLine
 10
48.583858
 20
-14.382100
 30
0.0
 11
49.060648
 21
-14.060648
 31
0.0
  0
LINE
  5
176
100
AcDbEntity
  8
Layer_1
 62
7
100
AcDbLine
 10
49.060648
 20
-14.060648
 30
0.0
 11
49.382113
 21
-13.583862
 31
0.0
  0
LINE
  5
177
100
AcDbEntity
  8
Layer_1
 62
7
100
AcDbLine
 10
49.382113
 20
-13.583862
 30
0.0
 11
49.499994
 21
-13.000001
 31
0.0
  0
LINE
  5
178
100
AcDbEntity
  8
Layer_1
 62
7
100
AcDbLine
 10
49.499994
 20
-13.000001
 30
0.0
 11
49.382121
 21
-12.416140
 31
0.0
  0
LINE
  5
179
100
AcDbEntity
  8
Layer_1
 62
7
100
AcDbLine
 10
49.382121
 20
-12.416140
 30
0.0
 11
49.060659
 21
-11.939325
 31
0.0
  0
LINE
  5
17a
100
AcDbEntity
  8
Layer_1
 62
7
100
AcDbLine
 10
49.060659
 20
-11.939325
 30
0.0
 11
48.583864
 21
-11.617874
 31
0.0
  0
LINE
  5
17b
100
AcDbEntity
  8
Layer_1
 62
7
100
AcDbLine
 10
48.583864
 20
-11.617874
 30
0.0
 11
47.999994
 21
-11.499990
 31
0.0
  0
LINE
  5
17c
100
AcDbEntity
  8
Layer_1
 62
7
100
AcDbLine
 10
47.999994
 20
-11.499990
 30
0.0
 11
47.416125
 21
-11.617874
 31
0.0
  0
LINE
  5
17d
100
AcDbEntity
  8
Layer_1
 62
7
100
AcDbLine
 10
47.416125
 20
-11.617874
 30
0.0
 11
46.939330
 21
-11.939325
 31
0.0
  0
LINE
  5
17e
100
AcDbEntity
  8
Layer_1
 62
7
100
AcDbLine
 10
46.939330
 20
-11.939325
 30
0.0
 11
46.617867
 21
-12.416140
 31
0.0
  0
LINE
  5
17f
100
AcDbEntity
  8
Layer_1
 62
7
100
AcDbLine
 10
46.617867
 20
-12.416140
 30
0.0
 11
46.499994
 21
-13.000001
 31
0.0
  0
LINE
  5
180
100
AcDbEntity
  8
Layer_1
 62
7
100
AcDbLine
 10
36.489171
 20
-5.420069
 30
0.0
 11
36.442182
 21
-6.013855
 31
0.0
  0
LINE
  5
181
100
AcDbEntity
  8
Layer_1
 62
7
100
AcDbLine
 10
36.442182
 20
-6.013855
 30
0.0
 11
36.180236
 21
-6.525762
 31
0.0
  0
LINE
  5
182
100
AcDbEntity
  8
Layer_1
 62
7
100
AcDbLine
 10
36.180236
 20
-6.525762
 30
0.0
 11
35.745451
 21
-6.902089
 31
0.0
  0
LINE
  5
183
100
AcDbEntity
  8
Layer_1
 62
7
100
AcDbLine
 10
35.745451
 20
-6.902089
 30
0.0
 11
35.179946
 21
-7.089163
 31
0.0
  0
LINE
  5
184
100
AcDbEntity
  8
Layer_1
 62
7
100
AcDbLine
 10
35.179946
 20
-7.089163
 30
0.0
 11
34.586157
 21
-7.042172
 31
0.0
  0
LINE
  5
185
100
AcDbEntity
  8
Layer_1
 62
7
100
AcDbLine
 10
34.586157
 20
-7.042172
 30
0.0
 11
34.074247
 21
-6.780240
 31
0.0
  0
LINE
  5
186
100
AcDbEntity
  8
Layer_1
 62
7
100
AcDbLine
 10
34.074247
 20
-6.780240
 30
0.0
 11
33.697909
 21
-6.345460
 31
0.0
  0
LINE
  5
187
100
AcDbEntity
  8
Layer_1
 62
7
100
AcDbLine
 10
33.697909
 20
-6.345460
 30
0.0
 11
33.510836
 21
-5.779957
 31
0.0
  0
LINE
  5
188
100
AcDbEntity
  8
Layer_1
 62
7
100
AcDbLine
 10
33.510836
 20
-5.779957
 30
0.0
 11
33.557816
 21
-5.186172
 31
0.0
  0
LINE
  5
189
100
AcDbEntity
  8
Layer_1
 62
7
100
AcDbLine
 10
33.557816
 20
-5.186172
 30
0.0
 11
33.819756
 21
-4.674237
 31
0.0
  0
LINE
  5
18a
100
AcDbEntity
  8
Layer_1
 62
7
100
AcDbLine
 10
33.819756
 20
-4.674237
 30
0.0
 11
34.254545
 21
-4.297910
 31
0.0
  0
LINE
  5
18b
100
AcDbEntity
  8
Layer_1
 62
7
100
AcDbLine
 10
34.254545
 20
-4.297910
 30
0.0
 11
34.820058
 21
-4.110834
 31
0.0
  0
LINE
  5
18c
100
AcDbEntity
  8
Layer_1
 62
7
100
AcDbLine
 10
34.820058
 20
-4.110834
 30
0.0
 11
35.413854
 21
-4.157824
 31
0.0
  0
LINE
  5
18d
100
AcDbEntity
  8
Layer_1
 62
7
100
AcDbLine
 10
35.413854
 20
-4.157824
 30
0.0
 11
35.925767
 21
-4.419756
 31
0.0
  0
LINE
  5
18e
100
AcDbEntity
  8
Layer_1
 62
7
100
AcDbLine
 10
35.925767
 20
-4.419756
 30
0.0
 11
36.302108
 21
-4.854564
 31
0.0
  0
LINE
  5
18f
100
AcDbEntity
  8
Layer_1
 62
7
100
AcDbLine
 10
36.302108
 20
-4.854564
 30
0.0
 11
36.489171
 21
-5.420069
 31
0.0
  0
LINE
  5
190
100
AcDbEntity
  8
Layer_1
 62
7
100
AcDbLine
 10
46.499994
 20
1.799986
 30
0.0
 11
46.617876
 21
1.216125
 31
0.0
  0
LINE
  5
191
100
AcDbEntity
  8
Layer_1
 62
7
100
AcDbLine
 10
46.617876
 20
1.216125
 30
0.0
 11
46.939341
 21
0.739339
 31
0.0
  0
LINE
  5
192
100
AcDbEntity
  8
Layer_1
 62
7
100
AcDbLine
 10
46.939341
 20
0.739339
 30
0.0
 11
47.416130
 21
0.417888
 31
0.0
  0
LINE
  5
193
100
AcDbEntity
  8
Layer_1
 62
7
100
AcDbLine
 10
47.416130
 20
0.417888
 30
0.0
 11
47.999994
 21
0.300004
 31
0.0
  0
LINE
  5
194
100
AcDbEntity
  8
Layer_1
 62
7
100
AcDbLine
 10
47.999994
 20
0.300004
 30
0.0
 11
48.583858
 21
0.417888
 31
0.0
  0
LINE
  5
195
100
AcDbEntity
  8
Layer_1
 62
7
100
AcDbLine
 10
48.583858
 20
0.417888
 30
0.0
 11
49.060648
 21
0.739339
 31
0.0
  0
LINE
  5
196
100
AcDbEntity
  8
Layer_1
 62
7
100
AcDbLine
 10
49.060648
 20
0.739339
 30
0.0
 11
49.382113
 21
1.216125
 31
0.0
  0
LINE
  5
197
100
AcDbEntity
  8
Layer_1
 62
7
100
AcDbLine
 10
49.382113
 20
1.216125
 30
0.0
 11
49.499994
 21
1.799986
 31
0.0
  0
LINE
  5
198
100
AcDbEntity
  8
Layer_1
 62
7
100
AcDbLine
 10
49.499994
 20
1.799986
 30
0.0
 11
49.382121
 21
2.383848
 31
0.0
  0
LINE
  5
199
100
AcDbEntity
  8
Layer_1
 62
7
100
AcDbLine
 10
49.382121
 20
2.383848
 30
0.0
 11
49.060659
 21
2.860662
 31
0.0
  0
LINE
  5
19a
100
AcDbEntity
  8
Layer_1
 62
7
100
AcDbLine
 10
49.060659
 20
2.860662
 30
0.0
 11
48.583864
 21
3.182113
 31
0.0
  0
LINE
  5
19b
100
AcDbEntity
  8
Layer_1
 62
7
100
AcDbLine
 10
48.583864
 20
3.182113
 30
0.0
 11
47.999994
 21
3.299998
 31
0.0
  0
LINE
  5
19c
100
AcDbEntity
  8
Layer_1
 62
7
100
AcDbLine
 10
47.999994
 20
3.299998
 30
0.0
 11
47.416125
 21
3.182113
 31
0.0
  0
LINE
  5
19d
100
AcDbEntity
  8
Layer_1
 62
7
100
AcDbLine
 10
47.416125
 20
3.182113
 30
0.0
 11
46.939330
 21
2.860662
 31
0.0
  0
LINE
  5
19e
100
AcDbEntity
  8
Layer_1
 62
7
100
AcDbLine
 10
46.939330
 20
2.860662
 30
0.0
 11
46.617867
 21
2.383848
 31
0.0
  0
LINE
  5
19f
100
AcDbEntity
  8
Layer_1
 62
7
100
AcDbLine
 10
46.617867
 20
2.383848
 30
0.0
 11
46.499994
 21
1.799986
 31
0.0
  0
LINE
  5
1a0
100
AcDbEntity
  8
Layer_1
 62
7
100
AcDbLine
 10
-42.999979
 20
6.999987
 30
0.0
 11
-43.157151
 21
6.221506
 31
0.0
  0
LINE
  5
1a1
100
AcDbEntity
  8
Layer_1
 62
7
100
AcDbLine
 10
-43.157151
 20
6.221506
 30
0.0
 11
-43.585768
 21
5.585772
 31
0.0
  0
LINE
  5
1a2
100
AcDbEntity
  8
Layer_1
 62
7
100
AcDbLine
 10
-43.585768
 20
5.585772
 30
0.0
 11
-44.221490
 21
5.157161
 31
0.0
  0
LINE
  5
1a3
100
AcDbEntity
  8
Layer_1
 62
7
100
AcDbLine
 10
-44.221490
 20
5.157161
 30
0.0
 11
-44.999981
 21
4.999991
 31
0.0
  0
LINE
  5
1a4
100
AcDbEntity
  8
Layer_1
 62
7
100
AcDbLine
 10
-44.999981
 20
4.999991
 30
0.0
 11
-45.778471
 21
5.157161
 31
0.0
  0
LINE
  5
1a5
100
AcDbEntity
  8
Layer_1
 62
7
100
AcDbLine
 10
-45.778471
 20
5.157161
 30
0.0
 11
-46.414193
 21
5.585772
 31
0.0
  0
LINE
  5
1a6
100
AcDbEntity
  8
Layer_1
 62
7
100
AcDbLine
 10
-46.414193
 20
5.585772
 30
0.0
 11
-46.842810
 21
6.221506
 31
0.0
  0
LINE
  5
1a7
100
AcDbEntity
  8
Layer_1
 62
7
100
AcDbLine
 10
-46.842810
 20
6.221506
 30
0.0
 11
-46.999979
 21
6.999987
 31
0.0
  0
LINE
  5
1a8
100
AcDbEntity
  8
Layer_1
 62
7
100
AcDbLine
 10
-46.999979
 20
6.999987
 30
0.0
 11
-46.842810
 21
7.778469
 31
0.0
  0
LINE
  5
1a9
100
AcDbEntity
  8
Layer_1
 62
7
100
AcDbLine
 10
-46.842810
 20
7.778469
 30
0.0
 11
-46.414193
 21
8.414203
 31
0.0
  0
LINE
  5
1aa
100
AcDbEntity
  8
Layer_1
 62
7
100
AcDbLine
 10
-46.414193
 20
8.414203
 30
0.0
 11
-45.778471
 21
8.842814
 31
0.0
  0
LINE
  5
1ab
100
AcDbEntity
  8
Layer_1
 62
7
100
AcDbLine
 10
-45.778471
 20
8.842814
 30
0.0
 11
-44.999981
 21
8.999983
 31
0.0
  0
LINE
  5
1ac
100
AcDbEntity
  8
Layer_1
 62
7
100
AcDbLine
 10
-44.999981
 20
8.999983
 30
0.0
 11
-44.221490
 21
8.842814
 31
0.0
  0
LINE
  5
1ad
100
AcDbEntity
  8
Layer_1
 62
7
100
AcDbLine
 10
-44.221490
 20
8.842814
 30
0.0
 11
-43.585765
 21
8.414203
 31
0.0
  0
LINE
  5
1ae
100
AcDbEntity
  8
Layer_1
 62
7
100
AcDbLine
 10
-43.585765
 20
8.414203
 30
0.0
 11
-43.157148
 21
7.778469
 31
0.0
  0
LINE
  5
1af
100
AcDbEntity
  8
Layer_1
 62
7
100
AcDbLine
 10
-43.157148
 20
7.778469
 30
0.0
 11
-42.999979
 21
6.999987
 31
0.0
  0
LINE
  5
1b0
100
AcDbEntity
  8
Layer_1
 62
7
100
AcDbLine
 10
-33.000007
 20
6.999987
 30
0.0
 11
-33.157177
 21
6.221506
 31
0.0
  0
LINE
  5
1b1
100
AcDbEntity
  8
Layer_1
 62
7
100
AcDbLine
 10
-33.157177
 20
6.221506
 30
0.0
 11
-33.585793
 21
5.585772
 31
0.0
  0
LINE
  5
1b2
100
AcDbEntity
  8
Layer_1
 62
7
100
AcDbLine
 10
-33.585793
 20
5.585772
 30
0.0
 11
-34.221516
 21
5.157161
 31
0.0
  0
LINE
  5
1b3
100
AcDbEntity
  8
Layer_1
 62
7
100
AcDbLine
 10
-34.221516
 20
5.157161
 30
0.0
 11
-35.000006
 21
4.999991
 31
0.0
  0
LINE
  5
1b4
100
AcDbEntity
  8
Layer_1
 62
7
100
AcDbLine
 10
-35.000006
 20
4.999991
 30
0.0
 11
-35.778496
 21
5.157161
 31
0.0
  0
LINE
  5
1b5
100
AcDbEntity
  8
Layer_1
 62
7
100
AcDbLine
 10
-35.778496
 20
5.157161
 30
0.0
 11
-36.414219
 21
5.585772
 31
0.0
  0
LINE
  5
1b6
100
AcDbEntity
  8
Layer_1
 62
7
100
AcDbLine
 10
-36.414219
 20
5.585772
 30
0.0
 11
-36.842835
 21
6.221506
 31
0.0
  0
LINE
  5
1b7
100
AcDbEntity
  8
Layer_1
 62
7
100
AcDbLine
 10
-36.842835
 20
6.221506
 30
0.0
 11
-37.000005
 21
6.999987
 31
0.0
  0
LINE
  5
1b8
100
AcDbEntity
  8
Layer_1
 62
7
100
AcDbLine
 10
-37.000005
 20
6.999987
 30
0.0
 11
-36.842835
 21
7.778469
 31
0.0
  0
LINE
  5
1b9
100
AcDbEntity
  8
Layer_1
 62
7
100
AcDbLine
 10
-36.842835
 20
7.778469
 30
0.0
 11
-36.414219
 21
8.414203
 31
0.0
  0
LINE
  5
1ba
100
AcDbEntity
  8
Layer_1
 62
7
100
AcDbLine
 10
-36.414219
 20
8.414203
 30
0.0
 11
-35.778496
 21
8.842814
 31
0.0
  0
LINE
  5
1bb
100
AcDbEntity
  8
Layer_1
 62
7
100
AcDbLine
 10
-35.778496
 20
8.842814
 30
0.0
 11
-35.000006
 21
8.999983
 31
0.0
  0
LINE
  5
1bc
100
AcDbEntity
  8
Layer_1
 62
7
100
AcDbLine
 10
-35.000006
 20
8.999983
 30
0.0
 11
-34.221516
 21
8.842814
 31
0.0
  0
LINE
  5
1bd
100
AcDbEntity
  8
Layer_1
 62
7
100
AcDbLine
 10
-34.221516
 20
8.842814
 30
0.0
 11
-33.585793
 21
8.414203
 31
0.0
  0
LINE
  5
1be
100
AcDbEntity
  8
Layer_1
 62
7
100
AcDbLine
 10
-33.585793
 20
8.414203
 30
0.0
 11
-33.157177
 21
7.778469
 31
0.0
  0
LINE
  5
1bf
100
AcDbEntity
  8
Layer_1
 62
7
100
AcDbLine
 10
-33.157177
 20
7.778469
 30
0.0
 11
-33.000007
 21
6.999987
 31
0.0
  0
LINE
  5
1c0
100
AcDbEntity
  8
Layer_1
 62
7
100
AcDbLine
 10
-22.999996
 20
6.999987
 30
0.0
 11
-23.157167
 21
6.221506
 31
0.0
  0
LINE
  5
1c1
100
AcDbEntity
  8
Layer_1
 62
7
100
AcDbLine
 10
-23.157167
 20
6.221506
 30
0.0
 11
-23.585784
 21
5.585772
 31
0.0
  0
LINE
  5
1c2
100
AcDbEntity
  8
Layer_1
 62
7
100
AcDbLine
 10
-23.585784
 20
5.585772
 30
0.0
 11
-24.221507
 21
5.157161
 31
0.0
  0
LINE
  5
1c3
100
AcDbEntity
  8
Layer_1
 62
7
100
AcDbLine
 10
-24.221507
 20
5.157161
 30
0.0
 11
-24.999996
 21
4.999991
 31
0.0
  0
LINE
  5
1c4
100
AcDbEntity
  8
Layer_1
 62
7
100
AcDbLine
 10
-24.999996
 20
4.999991
 30
0.0
 11
-25.778486
 21
5.157161
 31
0.0
  0
LINE
  5
1c5
100
AcDbEntity
  8
Layer_1
 62
7
100
AcDbLine
 10
-25.778486
 20
5.157161
 30
0.0
 11
-26.414208
 21
5.585772
 31
0.0
  0
LINE
  5
1c6
100
AcDbEntity
  8
Layer_1
 62
7
100
AcDbLine
 10
-26.414208
 20
5.585772
 30
0.0
 11
-26.842826
 21
6.221506
 31
0.0
  0
LINE
  5
1c7
100
AcDbEntity
  8
Layer_1
 62
7
100
AcDbLine
 10
-26.842826
 20
6.221506
 30
0.0
 11
-26.999997
 21
6.999987
 31
0.0
  0
LINE
  5
1c8
100
AcDbEntity
  8
Layer_1
 62
7
100
AcDbLine
 10
-26.999997
 20
6.999987
 30
0.0
 11
-26.842827
 21
7.778469
 31
0.0
  0
LINE
  5
1c9
100
AcDbEntity
  8
Layer_1
 62
7
100
AcDbLine
 10
-26.842827
 20
7.778469
 30
0.0
 11
-26.414210
 21
8.414203
 31
0.0
  0
LINE
  5
1ca
100
AcDbEntity
  8
Layer_1
 62
7
100
AcDbLine
 10
-26.414210
 20
8.414203
 30
0.0
 11
-25.778486
 21
8.842814
 31
0.0
  0
LINE
  5
1cb
100
AcDbEntity
  8
Layer_1
 62
7
100
AcDbLine
 10
-25.778486
 20
8.842814
 30
0.0
 11
-24.999996
 21
8.999983
 31
0.0
  0
LINE
  5
1cc
100
AcDbEntity
  8
Layer_1
 62
7
100
AcDbLine
 10
-24.999996
 20
8.999983
 30
0.0
 11
-24.221506
 21
8.842814
 31
0.0
  0
LINE
  5
1cd
100
AcDbEntity
  8
Layer_1
 62
7
100
AcDbLine
 10
-24.221506
 20
8.842814
 30
0.0
 11
-23.585782
 21
8.414203
 31
0.0
  0
LINE
  5
1ce
100
AcDbEntity
  8
Layer_1
 62
7
100
AcDbLine
 10
-23.585782
 20
8.414203
 30
0.0
 11
-23.157166
 21
7.778469
 31
0.0
  0
LINE
  5
1cf
100
AcDbEntity
  8
Layer_1
 62
7
100
AcDbLine
 10
-23.157166
 20
7.778469
 30
0.0
 11
-22.999996
 21
6.999987
 31
0.0
  0
LINE
  5
1d0
100
AcDbEntity
  8
Layer_1
 62
7
100
AcDbLine
 10
-12.999987
 20
6.999987
 30
0.0
 11
-13.157158
 21
6.221506
 31
0.0
  0
LINE
  5
1d1
100
AcDbEntity
  8
Layer_1
 62
7
100
AcDbLine
 10
-13.157158
 20
6.221506
 30
0.0
 11
-13.585774
 21
5.585772
 31
0.0
  0
LINE
  5
1d2
100
AcDbEntity
  8
Layer_1
 62
7
100
AcDbLine
 10
-13.585774
 20
5.585772
 30
0.0
 11
-14.221497
 21
5.157161
 31
0.0
  0
LINE
  5
1d3
100
AcDbEntity
  8
Layer_1
 62
7
100
AcDbLine
 10
-14.221497
 20
5.157161
 30
0.0
 11
-14.999987
 21
4.999991
 31
0.0
  0
LINE
  5
1d4
100
AcDbEntity
  8
Layer_1
 62
7
100
AcDbLine
 10
-14.999987
 20
4.999991
 30
0.0
 11
-15.778476
 21
5.157161
 31
0.0
  0
LINE
  5
1d5
100
AcDbEntity
  8
Layer_1
 62
7
100
AcDbLine
 10
-15.778476
 20
5.157161
 30
0.0
 11
-16.414199
 21
5.585772
 31
0.0
  0
LINE
  5
1d6
100
AcDbEntity
  8
Layer_1
 62
7
100
AcDbLine
 10
-16.414199
 20
5.585772
 30
0.0
 11
-16.842816
 21
6.221506
 31
0.0
  0
LINE
  5
1d7
100
AcDbEntity
  8
Layer_1
 62
7
100
AcDbLine
 10
-16.842816
 20
6.221506
 30
0.0
 11
-16.999987
 21
6.999987
 31
0.0
  0
LINE
  5
1d8
100
AcDbEntity
  8
Layer_1
 62
7
100
AcDbLine
 10
-16.999987
 20
6.999987
 30
0.0
 11
-16.842817
 21
7.778469
 31
0.0
  0
LINE
  5
1d9
100
AcDbEntity
  8
Layer_1
 62
7
100
AcDbLine
 10
-16.842817
 20
7.778469
 30
0.0
 11
-16.414201
 21
8.414203
 31
0.0
  0
LINE
  5
1da
100
AcDbEntity
  8
Layer_1
 62
7
100
AcDbLine
 10
-16.414201
 20
8.414203
 30
0.0
 11
-15.778477
 21
8.842814
 31
0.0
  0
LINE
  5
1db
100
AcDbEntity
  8
Layer_1
 62
7
100
AcDbLine
 10
-15.778477
 20
8.842814
 30
0.0
 11
-14.999987
 21
8.999983
 31
0.0
  0
LINE
  5
1dc
100
AcDbEntity
  8
Layer_1
 62
7
100
AcDbLine
 10
-14.999987
 20
8.999983
 30
0.0
 11
-14.221497
 21
8.842814
 31
0.0
  0
LINE
  5
1dd
100
AcDbEntity
  8
Layer_1
 62
7
100
AcDbLine
 10
-14.221497
 20
8.842814
 30
0.0
 11
-13.585773
 21
8.414203
 31
0.0
  0
LINE
  5
1de
100
AcDbEntity
  8
Layer_1
 62
7
100
AcDbLine
 10
-13.585773
 20
8.414203
 30
0.0
 11
-13.157156
 21
7.778469
 31
0.0
  0
LINE
  5
1df
100
AcDbEntity
  8
Layer_1
 62
7
100
AcDbLine
 10
-13.157156
 20
7.778469
 30
0.0
 11
-12.999987
 21
6.999987
 31
0.0
  0
LINE
  5
1e0
100
AcDbEntity
  8
Layer_1
 62
7
100
AcDbLine
 10
17.000008
 20
6.999987
 30
0.0
 11
16.842837
 21
6.221506
 31
0.0
  0
LINE
  5
1e1
100
AcDbEntity
  8
Layer_1
 62
7
100
AcDbLine
 10
16.842837
 20
6.221506
 30
0.0
 11
16.414220
 21
5.585772
 31
0.0
  0
LINE
  5
1e2
100
AcDbEntity
  8
Layer_1
 62
7
100
AcDbLine
 10
16.414220
 20
5.585772
 30
0.0
 11
15.778497
 21
5.157161
 31
0.0
  0
LINE
  5
1e3
100
AcDbEntity
  8
Layer_1
 62
7
100
AcDbLine
 10
15.778497
 20
5.157161
 30
0.0
 11
15.000008
 21
4.999991
 31
0.0
  0
LINE
  5
1e4
100
AcDbEntity
  8
Layer_1
 62
7
100
AcDbLine
 10
15.000008
 20
4.999991
 30
0.0
 11
14.221519
 21
5.157161
 31
0.0
  0
LINE
  5
1e5
100
AcDbEntity
  8
Layer_1
 62
7
100
AcDbLine
 10
14.221519
 20
5.157161
 30
0.0
 11
13.585796
 21
5.585772
 31
0.0
  0
LINE
  5
1e6
100
AcDbEntity
  8
Layer_1
 62
7
100
AcDbLine
 10
13.585796
 20
5.585772
 30
0.0
 11
13.157179
 21
6.221506
 31
0.0
  0
LINE
  5
1e7
100
AcDbEntity
  8
Layer_1
 62
7
100
AcDbLine
 10
13.157179
 20
6.221506
 30
0.0
 11
13.000008
 21
6.999987
 31
0.0
  0
LINE
  5
1e8
100
AcDbEntity
  8
Layer_1
 62
7
100
AcDbLine
 10
13.000008
 20
6.999987
 30
0.0
 11
13.157177
 21
7.778469
 31
0.0
  0
LINE
  5
1e9
100
AcDbEntity
  8
Layer_1
 62
7
100
AcDbLine
 10
13.157177
 20
7.778469
 30
0.0
 11
13.585794
 21
8.414203
 31
0.0
  0
LINE
  5
1ea
100
AcDbEntity
  8
Layer_1
 62
7
100
AcDbLine
 10
13.585794
 20
8.414203
 30
0.0
 11
14.221518
 21
8.842814
 31
0.0
  0
LINE
  5
1eb
100
AcDbEntity
  8
Layer_1
 62
7
100
AcDbLine
 10
14.221518
 20
8.842814
 30
0.0
 11
15.000008
 21
8.999983
 31
0.0
  0
LINE
  5
1ec
100
AcDbEntity
  8
Layer_1
 62
7
100
AcDbLine
 10
15.000008
 20
8.999983
 30
0.0
 11
15.778498
 21
8.842814
 31
0.0
  0
LINE
  5
1ed
100
AcDbEntity
  8
Layer_1
 62
7
100
AcDbLine
 10
15.778498
 20
8.842814
 30
0.0
 11
16.414222
 21
8.414203
 31
0.0
  0
LINE
  5
1ee
100
AcDbEntity
  8
Layer_1
 62
7
100
AcDbLine
 10
16.414222
 20
8.414203
 30
0.0
 11
16.842839
 21
7.778469
 31
0.0
  0
LINE
  5
1ef
100
AcDbEntity
  8
Layer_1
 62
7
100
AcDbLine
 10
16.842839
 20
7.778469
 30
0.0
 11
17.000008
 21
6.999987
 31
0.0
  0
LINE
  5
1f0
100
AcDbEntity
  8
Layer_1
 62
7
100
AcDbLine
 10
26.999984
 20
6.999987
 30
0.0
 11
26.842813
 21
6.221506
 31
0.0
  0
LINE
  5
1f1
100
AcDbEntity
  8
Layer_1
 62
7
100
AcDbLine
 10
26.842813
 20
6.221506
 30
0.0
 11
26.414196
 21
5.585772
 31
0.0
  0
LINE
  5
1f2
100
AcDbEntity
  8
Layer_1
 62
7
100
AcDbLine
 10
26.414196
 20
5.585772
 30
0.0
 11
25.778473
 21
5.157161
 31
0.0
  0
LINE
  5
1f3
100
AcDbEntity
  8
Layer_1
 62
7
100
AcDbLine
 10
25.778473
 20
5.157161
 30
0.0
 11
24.999984
 21
4.999991
 31
0.0
  0
LINE
  5
1f4
100
AcDbEntity
  8
Layer_1
 62
7
100
AcDbLine
 10
24.999984
 20
4.999991
 30
0.0
 11
24.221494
 21
5.157161
 31
0.0
  0
LINE
  5
1f5
100
AcDbEntity
  8
Layer_1
 62
7
100
AcDbLine
 10
24.221494
 20
5.157161
 30
0.0
 11
23.585771
 21
5.585772
 31
0.0
  0
LINE
  5
1f6
100
AcDbEntity
  8
Layer_1
 62
7
100
AcDbLine
 10
23.585771
 20
5.585772
 30
0.0
 11
23.157155
 21
6.221506
 31
0.0
  0
LINE
  5
1f7
100
AcDbEntity
  8
Layer_1
 62
7
100
AcDbLine
 10
23.157155
 20
6.221506
 30
0.0
 11
22.999984
 21
6.999987
 31
0.0
  0
LINE
  5
1f8
100
AcDbEntity
  8
Layer_1
 62
7
100
AcDbLine
 10
22.999984
 20
6.999987
 30
0.0
 11
23.157153
 21
7.778469
 31
0.0
  0
LINE
  5
1f9
100
AcDbEntity
  8
Layer_1
 62
7
100
AcDbLine
 10
23.157153
 20
7.778469
 30
0.0
 11
23.585770
 21
8.414203
 31
0.0
  0
LINE
  5
1fa
100
AcDbEntity
  8
Layer_1
 62
7
100
AcDbLine
 10
23.585770
 20
8.414203
 30
0.0
 11
24.221494
 21
8.842814
 31
0.0
  0
LINE
  5
1fb
100
AcDbEntity
  8
Layer_1
 62
7
100
AcDbLine
 10
24.221494
 20
8.842814
 30
0.0
 11
24.999984
 21
8.999983
 31
0.0
  0
LINE
  5
1fc
100
AcDbEntity
  8
Layer_1
 62
7
100
AcDbLine
 10
24.999984
 20
8.999983
 30
0.0
 11
25.778474
 21
8.842814
 31
0.0
  0
LINE
  5
1fd
100
AcDbEntity
  8
Layer_1
 62
7
100
AcDbLine
 10
25.778474
 20
8.842814
 30
0.0
 11
26.414197
 21
8.414203
 31
0.0
  0
LINE
  5
1fe
100
AcDbEntity
  8
Layer_1
 62
7
100
AcDbLine
 10
26.414197
 20
8.414203
 30
0.0
 11
26.842814
 21
7.778469
 31
0.0
  0
LINE
  5
1ff
100
AcDbEntity
  8
Layer_1
 62
7
100
AcDbLine
 10
26.842814
 20
7.778469
 30
0.0
 11
26.999984
 21
6.999987
 31
0.0
  0
LINE
  5
200
100
AcDbEntity
  8
Layer_1
 62
7
100
AcDbLine
 10
36.999991
 20
6.999987
 30
0.0
 11
36.842821
 21
6.221506
 31
0.0
  0
LINE
  5
201
100
AcDbEntity
  8
Layer_1
 62
7
100
AcDbLine
 10
36.842821
 20
6.221506
 30
0.0
 11
36.414205
 21
5.585772
 31
0.0
  0
LINE
  5
202
100
AcDbEntity
  8
Layer_1
 62
7
100
AcDbLine
 10
36.414205
 20
5.585772
 30
0.0
 11
35.778482
 21
5.157161
 31
0.0
  0
LINE
  5
203
100
AcDbEntity
  8
Layer_1
 62
7
100
AcDbLine
 10
35.778482
 20
5.157161
 30
0.0
 11
34.999992
 21
4.999991
 31
0.0
  0
LINE
  5
204
100
AcDbEntity
  8
Layer_1
 62
7
100
AcDbLine
 10
34.999992
 20
4.999991
 30
0.0
 11
34.221502
 21
5.157161
 31
0.0
  0
LINE
  5
205
100
AcDbEntity
  8
Layer_1
 62
7
100
AcDbLine
 10
34.221502
 20
5.157161
 30
0.0
 11
33.585779
 21
5.585772
 31
0.0
  0
LINE
  5
206
100
AcDbEntity
  8
Layer_1
 62
7
100
AcDbLine
 10
33.585779
 20
5.585772
 30
0.0
 11
33.157163
 21
6.221506
 31
0.0
  0
LINE
  5
207
100
AcDbEntity
  8
Layer_1
 62
7
100
AcDbLine
 10
33.157163
 20
6.221506
 30
0.0
 11
32.999990
 21
6.999987
 31
0.0
  0
LINE
  5
208
100
AcDbEntity
  8
Layer_1
 62
7
100
AcDbLine
 10
32.999990
 20
6.999987
 30
0.0
 11
33.157160
 21
7.778469
 31
0.0
  0
LINE
  5
209
100
AcDbEntity
  8
Layer_1
 62
7
100
AcDbLine
 10
33.157160
 20
7.778469
 30
0.0
 11
33.585777
 21
8.414203
 31
0.0
  0
LINE
  5
20a
100
AcDbEntity
  8
Layer_1
 62
7
100
AcDbLine
 10
33.585777
 20
8.414203
 30
0.0
 11
34.221502
 21
8.842814
 31
0.0
  0
LINE
  5
20b
100
AcDbEntity
  8
Layer_1
 62
7
100
AcDbLine
 10
34.221502
 20
8.842814
 30
0.0
 11
34.999992
 21
8.999983
 31
0.0
  0
LINE
  5
20c
100
AcDbEntity
  8
Layer_1
 62
7
100
AcDbLine
 10
34.999992
 20
8.999983
 30
0.0
 11
35.778482
 21
8.842814
 31
0.0
  0
LINE
  5
20d
100
AcDbEntity
  8
Layer_1
 62
7
100
AcDbLine
 10
35.778482
 20
8.842814
 30
0.0
 11
36.414205
 21
8.414203
 31
0.0
  0
LINE
  5
20e
100
AcDbEntity
  8
Layer_1
 62
7
100
AcDbLine
 10
36.414205
 20
8.414203
 30
0.0
 11
36.842821
 21
7.778469
 31
0.0
  0
LINE
  5
20f
100
AcDbEntity
  8
Layer_1
 62
7
100
AcDbLine
 10
36.842821
 20
7.778469
 30
0.0
 11
36.999991
 21
6.999987
 31
0.0
  0
LINE
  5
210
100
AcDbEntity
  8
Layer_1
 62
7
100
AcDbLine
 10
47.000005
 20
6.999987
 30
0.0
 11
46.842835
 21
6.221506
 31
0.0
  0
LINE
  5
211
100
AcDbEntity
  8
Layer_1
 62
7
100
AcDbLine
 10
46.842835
 20
6.221506
 30
0.0
 11
46.414219
 21
5.585772
 31
0.0
  0
LINE
  5
212
100
AcDbEntity
  8
Layer_1
 62
7
100
AcDbLine
 10
46.414219
 20
5.585772
 30
0.0
 11
45.778496
 21
5.157161
 31
0.0
  0
LINE
  5
213
100
AcDbEntity
  8
Layer_1
 62
7
100
AcDbLine
 10
45.778496
 20
5.157161
 30
0.0
 11
45.000006
 21
4.999991
 31
0.0
  0
LINE
  5
214
100
AcDbEntity
  8
Layer_1
 62
7
100
AcDbLine
 10
45.000006
 20
4.999991
 30
0.0
 11
44.221516
 21
5.157161
 31
0.0
  0
LINE
  5
215
100
AcDbEntity
  8
Layer_1
 62
7
100
AcDbLine
 10
44.221516
 20
5.157161
 30
0.0
 11
43.585793
 21
5.585772
 31
0.0
  0
LINE
  5
216
100
AcDbEntity
  8
Layer_1
 62
7
100
AcDbLine
 10
43.585793
 20
5.585772
 30
0.0
 11
43.157177
 21
6.221506
 31
0.0
  0
LINE
  5
217
100
AcDbEntity
  8
Layer_1
 62
7
100
AcDbLine
 10
43.157177
 20
6.221506
 30
0.0
 11
43.000004
 21
6.999987
 31
0.0
  0
LINE
  5
218
100
AcDbEntity
  8
Layer_1
 62
7
100
AcDbLine
 10
43.000004
 20
6.999987
 30
0.0
 11
43.157174
 21
7.778469
 31
0.0
  0
LINE
  5
219
100
AcDbEntity
  8
Layer_1
 62
7
100
AcDbLine
 10
43.157174
 20
7.778469
 30
0.0
 11
43.585790
 21
8.414203
 31
0.0
  0
LINE
  5
21a
100
AcDbEntity
  8
Layer_1
 62
7
100
AcDbLine
 10
43.585790
 20
8.414203
 30
0.0
 11
44.221516
 21
8.842814
 31
0.0
  0
LINE
  5
21b
100
AcDbEntity
  8
Layer_1
 62
7
100
AcDbLine
 10
44.221516
 20
8.842814
 30
0.0
 11
45.000006
 21
8.999983
 31
0.0
  0
LINE
  5
21c
100
AcDbEntity
  8
Layer_1
 62
7
100
AcDbLine
 10
45.000006
 20
8.999983
 30
0.0
 11
45.778496
 21
8.842814
 31
0.0
  0
LINE
  5
21d
100
AcDbEntity
  8
Layer_1
 62
7
100
AcDbLine
 10
45.778496
 20
8.842814
 30
0.0
 11
46.414219
 21
8.414203
 31
0.0
  0
LINE
  5
21e
100
AcDbEntity
  8
Layer_1
 62
7
100
AcDbLine
 10
46.414219
 20
8.414203
 30
0.0
 11
46.842835
 21
7.778469
 31
0.0
  0
LINE
  5
21f
100
AcDbEntity
  8
Layer_1
 62
7
100
AcDbLine
 10
46.842835
 20
7.778469
 30
0.0
 11
47.000005
 21
6.999987
 31
0.0
  0
ENDSEC
  0
SECTION
  2
OBJECTS
  0
DICTIONARY
  5
C
330
0
100
AcDbDictionary
  3
ACAD_GROUP
350
D
  3
ACAD_MLINESTYLE
350
17
  0
DICTIONARY
  5
D
330
C
100
AcDbDictionary
  0
DICTIONARY
  5
1A
330
C
100
AcDbDictionary
  0
DICTIONARY
  5
17
330
C
100
AcDbDictionary
  3
STANDARD
350
18
  0
DICTIONARY
  5
19
330
C
100
AcDbDictionary
  0
ENDSEC
  0
EOF
