<?xml version="1.0" encoding="UTF-8" standalone="no"?>
<!-- Created with Inkscape (http://www.inkscape.org/) -->

<svg
   xmlns:dc="http://purl.org/dc/elements/1.1/"
   xmlns:cc="http://creativecommons.org/ns#"
   xmlns:rdf="http://www.w3.org/1999/02/22-rdf-syntax-ns#"
   xmlns:svg="http://www.w3.org/2000/svg"
   xmlns="http://www.w3.org/2000/svg"
   xmlns:sodipodi="http://sodipodi.sourceforge.net/DTD/sodipodi-0.dtd"
   xmlns:inkscape="http://www.inkscape.org/namespaces/inkscape"
   width="210mm"
   height="297mm"
   viewBox="0 0 744.09448819 1052.3622047"
   id="svg4979"
   version="1.1"
   inkscape:version="0.91 r13725"
   sodipodi:docname="box-motor-inside-43d.svg">
  <defs
     id="defs4981" />
  <sodipodi:namedview
     id="base"
     pagecolor="#ffffff"
     bordercolor="#666666"
     borderopacity="1.0"
     inkscape:pageopacity="0.0"
     inkscape:pageshadow="2"
     inkscape:zoom="5.6"
     inkscape:cx="125.57068"
     inkscape:cy="27.026463"
     inkscape:document-units="mm"
     inkscape:current-layer="layer1"
     showgrid="true"
     inkscape:window-width="1366"
     inkscape:window-height="705"
     inkscape:window-x="-8"
     inkscape:window-y="-8"
     inkscape:window-maximized="1">
    <inkscape:grid
       type="xygrid"
       id="grid6193"
       units="mm"
       spacingx="3.5433071"
       spacingy="3.5433072" />
  </sodipodi:namedview>
  <metadata
     id="metadata4984">
    <rdf:RDF>
      <cc:Work
         rdf:about="">
        <dc:format>image/svg+xml</dc:format>
        <dc:type
           rdf:resource="http://purl.org/dc/dcmitype/StillImage" />
        <dc:title />
      </cc:Work>
    </rdf:RDF>
  </metadata>
  <g
     inkscape:label="Layer 1"
     inkscape:groupmode="layer"
     id="layer1">
    <path
       transform="scale(1,-1)"
       style="display:inline;fill:#d35f5f;fill-opacity:1;stroke:none;stroke-width:1.77165353;stroke-linejoin:round;stroke-miterlimit:4;stroke-dasharray:none;stroke-dashoffset:8;stroke-opacity:1"
       d="m -174.89992,-1112.5984 87.44996,0 87.44996,0 87.44996,0 87.44996,0 3.64701,0.7327 2.97191,2.0004 2.00046,2.972 0.73267,3.647 0,19.6977 0,19.6978 0,19.6977 0,19.6978 -0.73267,3.647 -2.00046,2.9719 -2.97191,2.0004 -3.64701,0.7327 -87.44996,0 -87.44996,0 -87.44996,0 -87.44996,0 -3.64701,-0.7327 -2.97191,-2.0004 -2.00046,-2.9719 -0.73267,-3.647 0,-19.6978 0,-19.6977 0,-19.6978 0,-19.6977 0.73267,-3.647 2.00046,-2.972 2.97191,-2.0004 z"
       id="rect4018-77"
       inkscape:connector-curvature="0"
       sodipodi:nodetypes="ccccccccccccccccccccccccccccccccc" />
    <path
       style="display:inline;opacity:1;fill:#ffe680;fill-opacity:1;stroke:none;stroke-width:1.77165353;stroke-linejoin:round;stroke-miterlimit:4;stroke-dasharray:none;stroke-dashoffset:8;stroke-opacity:1"
       d="m -164.76376,1098.4252 -0.41769,2.0688 -1.13905,1.6894 -1.68941,1.139 -2.06881,0.4177 -2.06881,-0.4177 -1.68941,-1.139 -1.13905,-1.6894 -0.41769,-2.0688 0.41766,-2.0688 1.13904,-1.6895 1.68943,-1.139 2.06883,-0.4177 2.06883,0.4177 1.68943,1.139 1.13904,1.6895 z"
       id="path5259-61-5-54-1"
       inkscape:connector-curvature="0"
       sodipodi:nodetypes="ccccccccccccccccc" />
    <path
       transform="matrix(-0.99277839,-0.11996278,-0.11996278,0.99277839,0,0)"
       style="display:inline;fill:#002255;fill-opacity:1;stroke:none;stroke-width:1"
       d="m -0.18957949,1079.339 -0.41769336,2.0688 -1.13904395,1.6894 -1.6894154,1.139 -2.0688078,0.4177 -2.0688077,-0.4177 -1.6894152,-1.139 -1.1390441,-1.6894 -0.417693,-2.0688 0.41766,-2.0688 1.1390374,-1.6895 1.6894291,-1.139 2.0688335,-0.4177 2.0688337,0.4177 1.6894292,1.139 1.13903793,1.6895 z"
       id="path12890-1-8-40"
       inkscape:connector-curvature="0"
       sodipodi:nodetypes="ccccccccccccccccc" />
    <path
       transform="matrix(-0.99277839,-0.11996278,-0.11996278,0.99277839,0,0)"
       style="display:inline;fill:#002255;fill-opacity:1;stroke:none;stroke-width:1"
       d="m -246.42988,1049.5845 -0.41769,2.0688 -1.13905,1.6894 -1.68941,1.139 -2.06881,0.4177 -2.06881,-0.4177 -1.68941,-1.139 -1.13905,-1.6894 -0.41769,-2.0688 0.41766,-2.0688 1.13904,-1.6895 1.68943,-1.139 2.06883,-0.4177 2.06883,0.4177 1.68943,1.139 1.13904,1.6895 z"
       id="path12890-1-8-2-92"
       inkscape:connector-curvature="0"
       sodipodi:nodetypes="ccccccccccccccccc" />
    <path
       transform="matrix(0.97198734,-0.23503322,0.23503322,0.97198734,0,0)"
       style="display:inline;fill:#002255;fill-opacity:1;stroke:none;stroke-width:1"
       d="m -285.31176,1033.2585 -0.27842,1.3792 -0.75936,1.1264 -1.12629,0.7593 -1.37924,0.2785 -1.37924,-0.2785 -1.12629,-0.7593 -0.75936,-1.1264 -0.27842,-1.3792 0.27845,-1.3792 0.75936,-1.1263 1.12629,-0.7594 1.37921,-0.2784 1.37921,0.2785 1.12629,0.7593 0.75936,1.1263 z"
       id="path12644-3-15"
       inkscape:connector-curvature="0"
       sodipodi:nodetypes="ccccccccccccccccc" />
    <path
       style="display:inline;fill:#002255;fill-opacity:1;stroke:none;stroke-width:1"
       d="m -77.343349,1055.7811 0.05351,1.406 -0.47337,1.2733 -0.916256,1.0028 -1.275141,0.5948 -1.406032,0.053 -1.27319,-0.4733 -1.002807,-0.9163 -0.594807,-1.2751 -0.05351,-1.406 0.47337,-1.2732 0.916269,-1.0028 1.275118,-0.5948 1.406018,-0.054 1.273214,0.4734 1.002806,0.9163 z"
       id="path12644-3-7-7"
       inkscape:connector-curvature="0"
       sodipodi:nodetypes="ccccccccccccccccc" />
    <path
       style="display:inline;opacity:1;fill:#ffe680;fill-opacity:1;stroke:none;stroke-width:1.77165353;stroke-linejoin:round;stroke-miterlimit:4;stroke-dasharray:none;stroke-dashoffset:8;stroke-opacity:1"
       d="m 5.3149165,1098.4252 -0.4176934,2.0688 -1.1390439,1.6894 -1.6894154,1.139 -2.068807789166,0.4177 -2.068807810834,-0.4177 -1.6894154,-1.139 -1.1390439,-1.6894 -0.4176934,-2.0688 0.4176597,-2.0688 1.1390379,-1.6895 1.6894292,-1.139 2.068833710834,-0.4177 2.068833689166,0.4177 1.6894292,1.139 1.1390379,1.6895 z"
       id="path5259-61-5-6-9-22"
       inkscape:connector-curvature="0"
       sodipodi:nodetypes="ccccccccccccccccc" />
    <path
       style="display:inline;opacity:1;fill:#ffe680;fill-opacity:1;stroke:none;stroke-width:1.77165353;stroke-linejoin:round;stroke-miterlimit:4;stroke-dasharray:none;stroke-dashoffset:8;stroke-opacity:1"
       d="m -164.76376,1045.9843 -0.41769,2.0688 -1.13905,1.6894 -1.68941,1.139 -2.06881,0.4177 -2.06881,-0.4177 -1.68941,-1.139 -1.13905,-1.6894 -0.41769,-2.0688 0.41766,-2.0688 1.13904,-1.6895 1.68943,-1.139 2.06883,-0.4177 2.06883,0.4177 1.68943,1.139 1.13904,1.6895 z"
       id="path5259-61-5-5-0-6"
       inkscape:connector-curvature="0"
       sodipodi:nodetypes="ccccccccccccccccc" />
    <path
       transform="scale(-1,1)"
       style="display:inline;opacity:1;fill:#ffe680;fill-opacity:1;stroke:none;stroke-width:1.77165353;stroke-linejoin:round;stroke-miterlimit:4;stroke-dasharray:none;stroke-dashoffset:8;stroke-opacity:1"
       d="m -164.76379,1098.4252 -0.41769,2.0688 -1.13905,1.6894 -1.68941,1.139 -2.06881,0.4177 -2.06881,-0.4177 -1.68941,-1.139 -1.13905,-1.6894 -0.41769,-2.0688 0.41766,-2.0688 1.13904,-1.6895 1.68943,-1.139 2.06883,-0.4177 2.06883,0.4177 1.68943,1.139 1.13904,1.6895 z"
       id="path5259-61-5-54-7-9"
       inkscape:connector-curvature="0"
       sodipodi:nodetypes="ccccccccccccccccc" />
    <path
       transform="matrix(0.99277839,-0.11996278,0.11996278,0.99277839,0,0)"
       style="display:inline;fill:#002255;fill-opacity:1;stroke:none;stroke-width:1"
       d="m -0.1895566,1079.339 -0.41769336,2.0688 -1.13904394,1.6894 -1.6894154,1.139 -2.0688078,0.4177 -2.0688079,-0.4177 -1.6894156,-1.139 -1.1390444,-1.6894 -0.417693,-2.0688 0.41766,-2.0688 1.1390377,-1.6895 1.6894294,-1.139 2.0688338,-0.4177 2.0688337,0.4177 1.6894292,1.139 1.13903792,1.6895 z"
       id="path12890-1-8-1-3"
       inkscape:connector-curvature="0"
       sodipodi:nodetypes="ccccccccccccccccc" />
    <path
       transform="matrix(-0.97198734,-0.23503322,-0.23503322,0.97198734,0,0)"
       style="display:inline;fill:#002255;fill-opacity:1;stroke:none;stroke-width:1"
       d="m -285.3118,1033.2585 -0.27842,1.3792 -0.75936,1.1264 -1.12628,0.7593 -1.37924,0.2785 -1.37924,-0.2785 -1.12629,-0.7593 -0.75936,-1.1264 -0.27842,-1.3792 0.27845,-1.3792 0.75936,-1.1263 1.12629,-0.7594 1.37921,-0.2784 1.37921,0.2785 1.12628,0.7593 0.75936,1.1263 z"
       id="path12644-3-3-9"
       inkscape:connector-curvature="0"
       sodipodi:nodetypes="ccccccccccccccccc" />
    <path
       style="display:inline;fill:#002255;fill-opacity:1;stroke:none;stroke-width:1"
       d="m 77.343378,1055.7811 -0.05351,1.406 0.473371,1.2733 0.916255,1.0028 1.275141,0.5948 1.406032,0.053 1.27319,-0.4733 1.002807,-0.9163 0.594807,-1.2751 0.05351,-1.406 -0.47337,-1.2732 -0.916269,-1.0028 -1.275118,-0.5948 -1.406018,-0.054 -1.273214,0.4734 -1.002806,0.9163 z"
       id="path12644-3-7-5-8"
       inkscape:connector-curvature="0"
       sodipodi:nodetypes="ccccccccccccccccc" />
    <path
       transform="scale(-1,1)"
       style="display:inline;opacity:1;fill:#ffe680;fill-opacity:1;stroke:none;stroke-width:1.77165353;stroke-linejoin:round;stroke-miterlimit:4;stroke-dasharray:none;stroke-dashoffset:8;stroke-opacity:1"
       d="m -164.76379,1045.9843 -0.41769,2.0688 -1.13905,1.6894 -1.68941,1.139 -2.06881,0.4177 -2.06881,-0.4177 -1.68941,-1.139 -1.13905,-1.6894 -0.41769,-2.0688 0.41766,-2.0688 1.13904,-1.6895 1.68943,-1.139 2.06883,-0.4177 2.06883,0.4177 1.68943,1.139 1.13904,1.6895 z"
       id="path5259-61-5-5-0-9-85"
       inkscape:connector-curvature="0"
       sodipodi:nodetypes="ccccccccccccccccc" />
    <path
       style="display:inline;opacity:1;fill:#2b1100;fill-opacity:1;stroke:none;stroke-width:1.77165353;stroke-linejoin:round;stroke-miterlimit:4;stroke-dasharray:none;stroke-dashoffset:8;stroke-opacity:1"
       d="m -152.36219,1027.5588 -0.55688,2.7585 -1.51871,2.2526 -2.25258,1.5187 -2.75845,0.5569 -2.75845,-0.5569 -2.25257,-1.5188 -1.51871,-2.2525 -0.55688,-2.7585 0.5569,-2.7584 1.51872,-2.2526 2.25256,-1.5187 2.75843,-0.5569 2.75843,0.5569 2.25256,1.5187 1.51872,2.2526 z"
       id="path5259-61-6-9"
       inkscape:connector-curvature="0"
       sodipodi:nodetypes="ccccccccccccccccc" />
    <path
       style="display:inline;opacity:1;fill:#2b1100;fill-opacity:1;stroke:none;stroke-width:1.77165353;stroke-linejoin:round;stroke-miterlimit:4;stroke-dasharray:none;stroke-dashoffset:8;stroke-opacity:1"
       d="m -116.92912,1027.559 -0.5569,2.7584 -1.51872,2.2526 -2.25256,1.5187 -2.75843,0.5569 -2.75843,-0.5569 -2.25256,-1.5187 -1.51872,-2.2526 -0.55691,-2.7584 0.55688,-2.7585 1.51871,-2.2526 2.25258,-1.5187 2.75845,-0.5569 2.75845,0.5569 2.25257,1.5188 1.51871,2.2525 z"
       id="path5259-61-2-3-8"
       inkscape:connector-curvature="0"
       sodipodi:nodetypes="ccccccccccccccccc" />
    <path
       style="display:inline;opacity:1;fill:#2b1100;fill-opacity:1;stroke:none;stroke-width:1.77165353;stroke-linejoin:round;stroke-miterlimit:4;stroke-dasharray:none;stroke-dashoffset:8;stroke-opacity:1"
       d="m -81.496073,1027.5588 -0.556877,2.7585 -1.518714,2.2525 -2.252572,1.5188 -2.758451,0.5569 -2.758451,-0.5569 -2.252573,-1.5188 -1.518714,-2.2525 -0.556877,-2.7585 0.556905,-2.7584 1.518722,-2.2526 2.252561,-1.5187 2.758427,-0.5569 2.758427,0.5569 2.252561,1.5187 1.518721,2.2526 z"
       id="path5259-61-0-1-21"
       inkscape:connector-curvature="0"
       sodipodi:nodetypes="ccccccccccccccccc" />
    <path
       style="display:inline;opacity:1;fill:#2b1100;fill-opacity:1;stroke:none;stroke-width:1.77165353;stroke-linejoin:round;stroke-miterlimit:4;stroke-dasharray:none;stroke-dashoffset:8;stroke-opacity:1"
       d="m -46.063029,1027.559 -0.556905,2.7584 -1.518721,2.2526 -2.252561,1.5187 -2.758427,0.5569 -2.758427,-0.5569 -2.252561,-1.5187 -1.518721,-2.2526 -0.556905,-2.7584 0.556877,-2.7585 1.518714,-2.2525 2.252572,-1.5188 2.758451,-0.5569 2.758451,0.5569 2.252572,1.5188 1.518714,2.2525 z"
       id="path5259-61-2-5-5-0"
       inkscape:connector-curvature="0"
       sodipodi:nodetypes="ccccccccccccccccc" />
    <path
       style="display:inline;opacity:1;fill:#2b1100;fill-opacity:1;stroke:none;stroke-width:1.77165353;stroke-linejoin:round;stroke-miterlimit:4;stroke-dasharray:none;stroke-dashoffset:8;stroke-opacity:1"
       d="m 60.236166,1027.5588 -0.556877,2.7585 -1.518714,2.2525 -2.252573,1.5188 -2.758451,0.5569 -2.758451,-0.5569 -2.252572,-1.5188 -1.518714,-2.2525 -0.556877,-2.7585 0.556905,-2.7584 1.518721,-2.2526 2.252561,-1.5187 2.758427,-0.5569 2.758427,0.5569 2.252561,1.5187 1.518722,2.2526 z"
       id="path5259-61-09-0-4"
       inkscape:connector-curvature="0"
       sodipodi:nodetypes="ccccccccccccccccc" />
    <path
       style="display:inline;opacity:1;fill:#2b1100;fill-opacity:1;stroke:none;stroke-width:1.77165353;stroke-linejoin:round;stroke-miterlimit:4;stroke-dasharray:none;stroke-dashoffset:8;stroke-opacity:1"
       d="m 95.669271,1027.559 -0.556905,2.7584 -1.518721,2.2526 -2.252561,1.5187 -2.758427,0.5569 -2.758427,-0.5569 -2.252561,-1.5187 -1.518721,-2.2526 -0.556905,-2.7584 0.556877,-2.7585 1.518714,-2.2525 2.252572,-1.5188 2.758451,-0.5569 2.758451,0.5569 2.252572,1.5188 1.518714,2.2525 z"
       id="path5259-61-2-1-3-07"
       inkscape:connector-curvature="0"
       sodipodi:nodetypes="ccccccccccccccccc" />
    <path
       style="display:inline;opacity:1;fill:#2b1100;fill-opacity:1;stroke:none;stroke-width:1.77165353;stroke-linejoin:round;stroke-miterlimit:4;stroke-dasharray:none;stroke-dashoffset:8;stroke-opacity:1"
       d="m 131.10232,1027.5588 -0.55688,2.7585 -1.51871,2.2526 -2.25258,1.5187 -2.75845,0.5569 -2.75845,-0.5569 -2.25257,-1.5188 -1.51871,-2.2525 -0.55688,-2.7585 0.5569,-2.7584 1.51872,-2.2526 2.25256,-1.5187 2.75843,-0.5569 2.75843,0.5569 2.25256,1.5187 1.51872,2.2526 z"
       id="path5259-61-5-7-7"
       inkscape:connector-curvature="0"
       sodipodi:nodetypes="ccccccccccccccccc" />
    <path
       style="display:inline;opacity:1;fill:#2b1100;fill-opacity:1;stroke:none;stroke-width:1.77165353;stroke-linejoin:round;stroke-miterlimit:4;stroke-dasharray:none;stroke-dashoffset:8;stroke-opacity:1"
       d="m 166.53542,1027.559 -0.5569,2.7584 -1.51872,2.2526 -2.25256,1.5187 -2.75843,0.5569 -2.75843,-0.5569 -2.25256,-1.5187 -1.51872,-2.2526 -0.55691,-2.7584 0.55688,-2.7585 1.51871,-2.2526 2.25258,-1.5187 2.75845,-0.5569 2.75845,0.5569 2.25257,1.5188 1.51871,2.2525 z"
       id="path5259-61-2-85-6"
       inkscape:connector-curvature="0"
       sodipodi:nodetypes="ccccccccccccccccc" />
    <path
       sodipodi:nodetypes="ccccccccccccccccccccccccc"
       inkscape:connector-curvature="0"
       id="rect6176-0-7"
       d="m -24.803197,1078.9371 12.4016,0 12.4016,0 12.4016,0 12.4016,0 6.145394,-7.2665 3.155742,-7.6818 1.162642,-6.8513 0.166092,-4.7751 -0.166092,-4.7752 -1.162642,-6.8513 -3.155742,-7.6819 -6.145394,-7.2666 -12.4016,0 -12.4016,0 -12.4016,0 -12.4016,0 -6.145394,7.2666 -3.155742,7.6819 -1.162642,6.8513 -0.166092,4.7752 0.166092,4.7751 1.162642,6.8513 3.155742,7.6818 z"
       style="display:inline;opacity:1;fill:#aa00d4;fill-opacity:1;stroke:none;stroke-width:1.77165353;stroke-linejoin:round;stroke-miterlimit:4;stroke-dasharray:none;stroke-dashoffset:8;stroke-opacity:1" />
  </g>
</svg>
