  0
SECTION
  2
HEADER
  9
$ACADVER
  1
AC1014
  9
$HANDSEED
  5
FFFF
  9
$MEASUREMENT
 70
     1
  0
ENDSEC
  0
SECTION
  2
TABLES
  0
TABLE
  2
VPORT
  5
8
330
0
100
AcDbSymbolTable
 70
     4
  0
VPORT
  5
2E
330
8
100
AcDbSymbolTableRecord
100
AcDbViewportTableRecord
  2
*ACTIVE
 70
     0
 10
0.0
 20
0.0
 11
1.0
 21
1.0
 12
210.0
 22
148.5
 13
0.0
 23
0.0
 14
10.0
 24
10.0
 15
10.0
 25
10.0
 16
0.0
 26
0.0
 36
1.0
 17
0.0
 27
0.0
 37
0.0
 40
341.0
 41
1.24
 42
50.0
 43
0.0
 44
0.0
 50
0.0
 51
0.0
 71
     0
 72
   100
 73
     1
 74
     3
 75
     0
 76
     0
 77
     0
 78
     0
  0
ENDTAB
  0
TABLE
  2
LTYPE
  5
5
330
0
100
AcDbSymbolTable
 70
     1
  0
LTYPE
  5
14
330
5
100
AcDbSymbolTableRecord
100
AcDbLinetypeTableRecord
  2
BYBLOCK
 70
     0
  3

 72
    65
 73
     0
 40
0.0
  0
LTYPE
  5
15
330
5
100
AcDbSymbolTableRecord
100
AcDbLinetypeTableRecord
  2
BYLAYER
 70
     0
  3

 72
    65
 73
     0
 40
0.0
  0
LTYPE
  5
16
330
5
100
AcDbSymbolTableRecord
100
AcDbLinetypeTableRecord
  2
CONTINUOUS
 70
     0
  3
Solid line
 72
    65
 73
     0
 40
0.0
  0
ENDTAB
  0
TABLE
  2
LAYER
  5
2
100
AcDbSymbolTable
 70
2
  0
LAYER
  5
50
100
AcDbSymbolTableRecord
100
AcDbLayerTableRecord
  2
0
 70
0
  6
CONTINUOUS
  0
LAYER
  5
51
100
AcDbSymbolTableRecord
100
AcDbLayerTableRecord
  2
Layer_1
 70
0
  6
CONTINUOUS
  0
ENDTAB
  0
TABLE
  2
STYLE
  5
3
330
0
100
AcDbSymbolTable
 70
     1
  0
STYLE
  5
11
330
3
100
AcDbSymbolTableRecord
100
AcDbTextStyleTableRecord
  2
STANDARD
 70
     0
 40
0.0
 41
1.0
 50
0.0
 71
     0
 42
2.5
  3
txt
  4

  0
ENDTAB
  0
TABLE
  2
VIEW
  5
6
330
0
100
AcDbSymbolTable
 70
     0
  0
ENDTAB
  0
TABLE
  2
UCS
  5
7
330
0
100
AcDbSymbolTable
 70
     0
  0
ENDTAB
  0
TABLE
  2
APPID
  5
9
330
0
100
AcDbSymbolTable
 70
     2
  0
APPID
  5
12
330
9
100
AcDbSymbolTableRecord
100
AcDbRegAppTableRecord
  2
ACAD
 70
     0
  0
ENDTAB
  0
TABLE
  2
DIMSTYLE
  5
A
330
0
100
AcDbSymbolTable
 70
     1
  0
DIMSTYLE
105
27
330
A
100
AcDbSymbolTableRecord
100
AcDbDimStyleTableRecord
  2
ISO-25
 70
     0
  3

  4

  5

  6

  7

 40
1.0
 41
2.5
 42
0.625
 43
3.75
 44
1.25
 45
0.0
 46
0.0
 47
0.0
 48
0.0
140
2.5
141
2.5
142
0.0
143
0.03937007874016
144
1.0
145
0.0
146
1.0
147
0.625
 71
     0
 72
     0
 73
     0
 74
     0
 75
     0
 76
     0
 77
     1
 78
     8
170
     0
171
     3
172
     1
173
     0
174
     0
175
     0
176
     0
177
     0
178
     0
270
     2
271
     2
272
     2
273
     2
274
     3
340
11
275
     0
280
     0
281
     0
282
     0
283
     0
284
     8
285
     0
286
     0
287
     3
288
     0
  0
ENDTAB
  0
TABLE
  2
BLOCK_RECORD
  5
1
330
0
100
AcDbSymbolTable
 70
     1
  0
BLOCK_RECORD
  5
1F
330
1
100
AcDbSymbolTableRecord
100
AcDbBlockTableRecord
  2
*MODEL_SPACE
  0
BLOCK_RECORD
  5
1B
330
1
100
AcDbSymbolTableRecord
100
AcDbBlockTableRecord
  2
*PAPER_SPACE
  0
ENDTAB
  0
ENDSEC
  0
SECTION
  2
BLOCKS
  0
BLOCK
  5
20
330
1F
100
AcDbEntity
  8
0
100
AcDbBlockBegin
  2
*MODEL_SPACE
 70
     0
 10
0.0
 20
0.0
 30
0.0
  3
*MODEL_SPACE
  1

  0
ENDBLK
  5
21
330
1F
100
AcDbEntity
  8
0
100
AcDbBlockEnd
  0
BLOCK
  5
1C
330
1B
100
AcDbEntity
 67
     1
  8
0
100
AcDbBlockBegin
  2
*PAPER_SPACE
  1

  0
ENDBLK
  5
1D
330
1B
100
AcDbEntity
 67
     1
  8
0
100
AcDbBlockEnd
  0
ENDSEC
  0
SECTION
  2
ENTITIES
  0
LINE
  5
100
100
AcDbEntity
  8
Layer_1
 62
7
100
AcDbLine
 10
-49.360644
 20
-16.999993
 30
0.0
 11
-24.680322
 21
-16.999993
 31
0.0
  0
LINE
  5
101
100
AcDbEntity
  8
Layer_1
 62
7
100
AcDbLine
 10
-24.680322
 20
-16.999993
 30
0.0
 11
0.000000
 21
-16.999993
 31
0.0
  0
LINE
  5
102
100
AcDbEntity
  8
Layer_1
 62
7
100
AcDbLine
 10
0.000000
 20
-16.999993
 30
0.0
 11
24.680322
 21
-16.999993
 31
0.0
  0
LINE
  5
103
100
AcDbEntity
  8
Layer_1
 62
7
100
AcDbLine
 10
24.680322
 20
-16.999993
 30
0.0
 11
49.360644
 21
-16.999993
 31
0.0
  0
LINE
  5
104
100
AcDbEntity
  8
Layer_1
 62
7
100
AcDbLine
 10
49.360644
 20
-16.999993
 30
0.0
 11
50.389911
 21
-16.793209
 31
0.0
  0
LINE
  5
105
100
AcDbEntity
  8
Layer_1
 62
7
100
AcDbLine
 10
50.389911
 20
-16.793209
 30
0.0
 11
51.228650
 21
-16.228651
 31
0.0
  0
LINE
  5
106
100
AcDbEntity
  8
Layer_1
 62
7
100
AcDbLine
 10
51.228650
 20
-16.228651
 30
0.0
 11
51.793225
 21
-15.389887
 31
0.0
  0
LINE
  5
107
100
AcDbEntity
  8
Layer_1
 62
7
100
AcDbLine
 10
51.793225
 20
-15.389887
 30
0.0
 11
52.000000
 21
-14.360622
 31
0.0
  0
LINE
  5
108
100
AcDbEntity
  8
Layer_1
 62
7
100
AcDbLine
 10
52.000000
 20
-14.360622
 30
0.0
 11
52.000000
 21
-8.801494
 31
0.0
  0
LINE
  5
109
100
AcDbEntity
  8
Layer_1
 62
7
100
AcDbLine
 10
52.000000
 20
-8.801494
 30
0.0
 11
52.000000
 21
-3.242337
 31
0.0
  0
LINE
  5
10a
100
AcDbEntity
  8
Layer_1
 62
7
100
AcDbLine
 10
52.000000
 20
-3.242337
 30
0.0
 11
52.000000
 21
2.316792
 31
0.0
  0
LINE
  5
10b
100
AcDbEntity
  8
Layer_1
 62
7
100
AcDbLine
 10
52.000000
 20
2.316792
 30
0.0
 11
52.000000
 21
7.875949
 31
0.0
  0
LINE
  5
10c
100
AcDbEntity
  8
Layer_1
 62
7
100
AcDbLine
 10
52.000000
 20
7.875949
 30
0.0
 11
51.793225
 21
8.905213
 31
0.0
  0
LINE
  5
10d
100
AcDbEntity
  8
Layer_1
 62
7
100
AcDbLine
 10
51.793225
 20
8.905213
 30
0.0
 11
51.228650
 21
9.743949
 31
0.0
  0
LINE
  5
10e
100
AcDbEntity
  8
Layer_1
 62
7
100
AcDbLine
 10
51.228650
 20
9.743949
 30
0.0
 11
50.389911
 21
10.308507
 31
0.0
  0
LINE
  5
10f
100
AcDbEntity
  8
Layer_1
 62
7
100
AcDbLine
 10
50.389911
 20
10.308507
 30
0.0
 11
49.360644
 21
10.515291
 31
0.0
  0
LINE
  5
110
100
AcDbEntity
  8
Layer_1
 62
7
100
AcDbLine
 10
49.360644
 20
10.515291
 30
0.0
 11
24.680322
 21
10.515291
 31
0.0
  0
LINE
  5
111
100
AcDbEntity
  8
Layer_1
 62
7
100
AcDbLine
 10
24.680322
 20
10.515291
 30
0.0
 11
0.000000
 21
10.515291
 31
0.0
  0
LINE
  5
112
100
AcDbEntity
  8
Layer_1
 62
7
100
AcDbLine
 10
0.000000
 20
10.515291
 30
0.0
 11
-24.680322
 21
10.515291
 31
0.0
  0
LINE
  5
113
100
AcDbEntity
  8
Layer_1
 62
7
100
AcDbLine
 10
-24.680322
 20
10.515291
 30
0.0
 11
-49.360644
 21
10.515291
 31
0.0
  0
LINE
  5
114
100
AcDbEntity
  8
Layer_1
 62
7
100
AcDbLine
 10
-49.360644
 20
10.515291
 30
0.0
 11
-50.389911
 21
10.308507
 31
0.0
  0
LINE
  5
115
100
AcDbEntity
  8
Layer_1
 62
7
100
AcDbLine
 10
-50.389911
 20
10.308507
 30
0.0
 11
-51.228650
 21
9.743949
 31
0.0
  0
LINE
  5
116
100
AcDbEntity
  8
Layer_1
 62
7
100
AcDbLine
 10
-51.228650
 20
9.743949
 30
0.0
 11
-51.793225
 21
8.905213
 31
0.0
  0
LINE
  5
117
100
AcDbEntity
  8
Layer_1
 62
7
100
AcDbLine
 10
-51.793225
 20
8.905213
 30
0.0
 11
-52.000000
 21
7.875949
 31
0.0
  0
LINE
  5
118
100
AcDbEntity
  8
Layer_1
 62
7
100
AcDbLine
 10
-52.000000
 20
7.875949
 30
0.0
 11
-52.000000
 21
2.316792
 31
0.0
  0
LINE
  5
119
100
AcDbEntity
  8
Layer_1
 62
7
100
AcDbLine
 10
-52.000000
 20
2.316792
 30
0.0
 11
-52.000000
 21
-3.242337
 31
0.0
  0
LINE
  5
11a
100
AcDbEntity
  8
Layer_1
 62
7
100
AcDbLine
 10
-52.000000
 20
-3.242337
 30
0.0
 11
-52.000000
 21
-8.801494
 31
0.0
  0
LINE
  5
11b
100
AcDbEntity
  8
Layer_1
 62
7
100
AcDbLine
 10
-52.000000
 20
-8.801494
 30
0.0
 11
-52.000000
 21
-14.360622
 31
0.0
  0
LINE
  5
11c
100
AcDbEntity
  8
Layer_1
 62
7
100
AcDbLine
 10
-52.000000
 20
-14.360622
 30
0.0
 11
-51.793225
 21
-15.389887
 31
0.0
  0
LINE
  5
11d
100
AcDbEntity
  8
Layer_1
 62
7
100
AcDbLine
 10
-51.793225
 20
-15.389887
 30
0.0
 11
-51.228650
 21
-16.228651
 31
0.0
  0
LINE
  5
11e
100
AcDbEntity
  8
Layer_1
 62
7
100
AcDbLine
 10
-51.228650
 20
-16.228651
 30
0.0
 11
-50.389911
 21
-16.793209
 31
0.0
  0
LINE
  5
11f
100
AcDbEntity
  8
Layer_1
 62
7
100
AcDbLine
 10
-50.389911
 20
-16.793209
 30
0.0
 11
-49.360644
 21
-16.999993
 31
0.0
  0
LINE
  5
120
100
AcDbEntity
  8
Layer_1
 62
7
100
AcDbLine
 10
-46.499994
 20
-13.000001
 30
0.0
 11
-46.617876
 21
-13.583862
 31
0.0
  0
LINE
  5
121
100
AcDbEntity
  8
Layer_1
 62
7
100
AcDbLine
 10
-46.617876
 20
-13.583862
 30
0.0
 11
-46.939341
 21
-14.060648
 31
0.0
  0
LINE
  5
122
100
AcDbEntity
  8
Layer_1
 62
7
100
AcDbLine
 10
-46.939341
 20
-14.060648
 30
0.0
 11
-47.416130
 21
-14.382100
 31
0.0
  0
LINE
  5
123
100
AcDbEntity
  8
Layer_1
 62
7
100
AcDbLine
 10
-47.416130
 20
-14.382100
 30
0.0
 11
-47.999994
 21
-14.499984
 31
0.0
  0
LINE
  5
124
100
AcDbEntity
  8
Layer_1
 62
7
100
AcDbLine
 10
-47.999994
 20
-14.499984
 30
0.0
 11
-48.583858
 21
-14.382100
 31
0.0
  0
LINE
  5
125
100
AcDbEntity
  8
Layer_1
 62
7
100
AcDbLine
 10
-48.583858
 20
-14.382100
 30
0.0
 11
-49.060648
 21
-14.060648
 31
0.0
  0
LINE
  5
126
100
AcDbEntity
  8
Layer_1
 62
7
100
AcDbLine
 10
-49.060648
 20
-14.060648
 30
0.0
 11
-49.382113
 21
-13.583862
 31
0.0
  0
LINE
  5
127
100
AcDbEntity
  8
Layer_1
 62
7
100
AcDbLine
 10
-49.382113
 20
-13.583862
 30
0.0
 11
-49.499994
 21
-13.000001
 31
0.0
  0
LINE
  5
128
100
AcDbEntity
  8
Layer_1
 62
7
100
AcDbLine
 10
-49.499994
 20
-13.000001
 30
0.0
 11
-49.382121
 21
-12.416140
 31
0.0
  0
LINE
  5
129
100
AcDbEntity
  8
Layer_1
 62
7
100
AcDbLine
 10
-49.382121
 20
-12.416140
 30
0.0
 11
-49.060659
 21
-11.939325
 31
0.0
  0
LINE
  5
12a
100
AcDbEntity
  8
Layer_1
 62
7
100
AcDbLine
 10
-49.060659
 20
-11.939325
 30
0.0
 11
-48.583864
 21
-11.617874
 31
0.0
  0
LINE
  5
12b
100
AcDbEntity
  8
Layer_1
 62
7
100
AcDbLine
 10
-48.583864
 20
-11.617874
 30
0.0
 11
-47.999994
 21
-11.499990
 31
0.0
  0
LINE
  5
12c
100
AcDbEntity
  8
Layer_1
 62
7
100
AcDbLine
 10
-47.999994
 20
-11.499990
 30
0.0
 11
-47.416125
 21
-11.617874
 31
0.0
  0
LINE
  5
12d
100
AcDbEntity
  8
Layer_1
 62
7
100
AcDbLine
 10
-47.416125
 20
-11.617874
 30
0.0
 11
-46.939330
 21
-11.939325
 31
0.0
  0
LINE
  5
12e
100
AcDbEntity
  8
Layer_1
 62
7
100
AcDbLine
 10
-46.939330
 20
-11.939325
 30
0.0
 11
-46.617867
 21
-12.416140
 31
0.0
  0
LINE
  5
12f
100
AcDbEntity
  8
Layer_1
 62
7
100
AcDbLine
 10
-46.617867
 20
-12.416140
 30
0.0
 11
-46.499994
 21
-13.000001
 31
0.0
  0
LINE
  5
130
100
AcDbEntity
  8
Layer_1
 62
7
100
AcDbLine
 10
-36.489159
 20
-5.420070
 30
0.0
 11
-36.442170
 21
-6.013856
 31
0.0
  0
LINE
  5
131
100
AcDbEntity
  8
Layer_1
 62
7
100
AcDbLine
 10
-36.442170
 20
-6.013856
 30
0.0
 11
-36.180224
 21
-6.525763
 31
0.0
  0
LINE
  5
132
100
AcDbEntity
  8
Layer_1
 62
7
100
AcDbLine
 10
-36.180224
 20
-6.525763
 30
0.0
 11
-35.745439
 21
-6.902090
 31
0.0
  0
LINE
  5
133
100
AcDbEntity
  8
Layer_1
 62
7
100
AcDbLine
 10
-35.745439
 20
-6.902090
 30
0.0
 11
-35.179934
 21
-7.089165
 31
0.0
  0
LINE
  5
134
100
AcDbEntity
  8
Layer_1
 62
7
100
AcDbLine
 10
-35.179934
 20
-7.089165
 30
0.0
 11
-34.586145
 21
-7.042174
 31
0.0
  0
LINE
  5
135
100
AcDbEntity
  8
Layer_1
 62
7
100
AcDbLine
 10
-34.586145
 20
-7.042174
 30
0.0
 11
-34.074236
 21
-6.780241
 31
0.0
  0
LINE
  5
136
100
AcDbEntity
  8
Layer_1
 62
7
100
AcDbLine
 10
-34.074236
 20
-6.780241
 30
0.0
 11
-33.697897
 21
-6.345462
 31
0.0
  0
LINE
  5
137
100
AcDbEntity
  8
Layer_1
 62
7
100
AcDbLine
 10
-33.697897
 20
-6.345462
 30
0.0
 11
-33.510824
 21
-5.779958
 31
0.0
  0
LINE
  5
138
100
AcDbEntity
  8
Layer_1
 62
7
100
AcDbLine
 10
-33.510824
 20
-5.779958
 30
0.0
 11
-33.557804
 21
-5.186173
 31
0.0
  0
LINE
  5
139
100
AcDbEntity
  8
Layer_1
 62
7
100
AcDbLine
 10
-33.557804
 20
-5.186173
 30
0.0
 11
-33.819745
 21
-4.674239
 31
0.0
  0
LINE
  5
13a
100
AcDbEntity
  8
Layer_1
 62
7
100
AcDbLine
 10
-33.819745
 20
-4.674239
 30
0.0
 11
-34.254534
 21
-4.297911
 31
0.0
  0
LINE
  5
13b
100
AcDbEntity
  8
Layer_1
 62
7
100
AcDbLine
 10
-34.254534
 20
-4.297911
 30
0.0
 11
-34.820046
 21
-4.110836
 31
0.0
  0
LINE
  5
13c
100
AcDbEntity
  8
Layer_1
 62
7
100
AcDbLine
 10
-34.820046
 20
-4.110836
 30
0.0
 11
-35.413842
 21
-4.157826
 31
0.0
  0
LINE
  5
13d
100
AcDbEntity
  8
Layer_1
 62
7
100
AcDbLine
 10
-35.413842
 20
-4.157826
 30
0.0
 11
-35.925756
 21
-4.419758
 31
0.0
  0
LINE
  5
13e
100
AcDbEntity
  8
Layer_1
 62
7
100
AcDbLine
 10
-35.925756
 20
-4.419758
 30
0.0
 11
-36.302096
 21
-4.854565
 31
0.0
  0
LINE
  5
13f
100
AcDbEntity
  8
Layer_1
 62
7
100
AcDbLine
 10
-36.302096
 20
-4.854565
 30
0.0
 11
-36.489159
 21
-5.420070
 31
0.0
  0
LINE
  5
140
100
AcDbEntity
  8
Layer_1
 62
7
100
AcDbLine
 10
33.510837
 20
-5.420083
 30
0.0
 11
33.557825
 21
-6.013869
 31
0.0
  0
LINE
  5
141
100
AcDbEntity
  8
Layer_1
 62
7
100
AcDbLine
 10
33.557825
 20
-6.013869
 30
0.0
 11
33.819772
 21
-6.525776
 31
0.0
  0
LINE
  5
142
100
AcDbEntity
  8
Layer_1
 62
7
100
AcDbLine
 10
33.819772
 20
-6.525776
 30
0.0
 11
34.254556
 21
-6.902103
 31
0.0
  0
LINE
  5
143
100
AcDbEntity
  8
Layer_1
 62
7
100
AcDbLine
 10
34.254556
 20
-6.902103
 30
0.0
 11
34.820062
 21
-7.089178
 31
0.0
  0
LINE
  5
144
100
AcDbEntity
  8
Layer_1
 62
7
100
AcDbLine
 10
34.820062
 20
-7.089178
 30
0.0
 11
35.413851
 21
-7.042187
 31
0.0
  0
LINE
  5
145
100
AcDbEntity
  8
Layer_1
 62
7
100
AcDbLine
 10
35.413851
 20
-7.042187
 30
0.0
 11
35.925759
 21
-6.780254
 31
0.0
  0
LINE
  5
146
100
AcDbEntity
  8
Layer_1
 62
7
100
AcDbLine
 10
35.925759
 20
-6.780254
 30
0.0
 11
36.302100
 21
-6.345475
 31
0.0
  0
LINE
  5
147
100
AcDbEntity
  8
Layer_1
 62
7
100
AcDbLine
 10
36.302100
 20
-6.345475
 30
0.0
 11
36.489171
 21
-5.779971
 31
0.0
  0
LINE
  5
148
100
AcDbEntity
  8
Layer_1
 62
7
100
AcDbLine
 10
36.489171
 20
-5.779971
 30
0.0
 11
36.442191
 21
-5.186186
 31
0.0
  0
LINE
  5
149
100
AcDbEntity
  8
Layer_1
 62
7
100
AcDbLine
 10
36.442191
 20
-5.186186
 30
0.0
 11
36.180250
 21
-4.674252
 31
0.0
  0
LINE
  5
14a
100
AcDbEntity
  8
Layer_1
 62
7
100
AcDbLine
 10
36.180250
 20
-4.674252
 30
0.0
 11
35.745461
 21
-4.297924
 31
0.0
  0
LINE
  5
14b
100
AcDbEntity
  8
Layer_1
 62
7
100
AcDbLine
 10
35.745461
 20
-4.297924
 30
0.0
 11
35.179950
 21
-4.110849
 31
0.0
  0
LINE
  5
14c
100
AcDbEntity
  8
Layer_1
 62
7
100
AcDbLine
 10
35.179950
 20
-4.110849
 30
0.0
 11
34.586155
 21
-4.157839
 31
0.0
  0
LINE
  5
14d
100
AcDbEntity
  8
Layer_1
 62
7
100
AcDbLine
 10
34.586155
 20
-4.157839
 30
0.0
 11
34.074241
 21
-4.419771
 31
0.0
  0
LINE
  5
14e
100
AcDbEntity
  8
Layer_1
 62
7
100
AcDbLine
 10
34.074241
 20
-4.419771
 30
0.0
 11
33.697900
 21
-4.854579
 31
0.0
  0
LINE
  5
14f
100
AcDbEntity
  8
Layer_1
 62
7
100
AcDbLine
 10
33.697900
 20
-4.854579
 30
0.0
 11
33.510837
 21
-5.420083
 31
0.0
  0
LINE
  5
150
100
AcDbEntity
  8
Layer_1
 62
7
100
AcDbLine
 10
-9.728016
 20
-5.364965
 30
0.0
 11
-9.712906
 21
-5.761770
 31
0.0
  0
LINE
  5
151
100
AcDbEntity
  8
Layer_1
 62
7
100
AcDbLine
 10
-9.712906
 20
-5.761770
 30
0.0
 11
-9.846495
 21
-6.121130
 31
0.0
  0
LINE
  5
152
100
AcDbEntity
  8
Layer_1
 62
7
100
AcDbLine
 10
-9.846495
 20
-6.121130
 30
0.0
 11
-10.105089
 21
-6.404127
 31
0.0
  0
LINE
  5
153
100
AcDbEntity
  8
Layer_1
 62
7
100
AcDbLine
 10
-10.105089
 20
-6.404127
 30
0.0
 11
-10.464964
 21
-6.572011
 31
0.0
  0
LINE
  5
154
100
AcDbEntity
  8
Layer_1
 62
7
100
AcDbLine
 10
-10.464964
 20
-6.572011
 30
0.0
 11
-10.861786
 21
-6.587101
 31
0.0
  0
LINE
  5
155
100
AcDbEntity
  8
Layer_1
 62
7
100
AcDbLine
 10
-10.861786
 20
-6.587101
 30
0.0
 11
-11.221111
 21
-6.453521
 31
0.0
  0
LINE
  5
156
100
AcDbEntity
  8
Layer_1
 62
7
100
AcDbLine
 10
-11.221111
 20
-6.453521
 30
0.0
 11
-11.504132
 21
-6.194901
 31
0.0
  0
LINE
  5
157
100
AcDbEntity
  8
Layer_1
 62
7
100
AcDbLine
 10
-11.504132
 20
-6.194901
 30
0.0
 11
-11.671992
 21
-5.835032
 31
0.0
  0
LINE
  5
158
100
AcDbEntity
  8
Layer_1
 62
7
100
AcDbLine
 10
-11.671992
 20
-5.835032
 30
0.0
 11
-11.687093
 21
-5.438224
 31
0.0
  0
LINE
  5
159
100
AcDbEntity
  8
Layer_1
 62
7
100
AcDbLine
 10
-11.687093
 20
-5.438224
 30
0.0
 11
-11.553497
 21
-5.078892
 31
0.0
  0
LINE
  5
15a
100
AcDbEntity
  8
Layer_1
 62
7
100
AcDbLine
 10
-11.553497
 20
-5.078892
 30
0.0
 11
-11.294910
 21
-4.795868
 31
0.0
  0
LINE
  5
15b
100
AcDbEntity
  8
Layer_1
 62
7
100
AcDbLine
 10
-11.294910
 20
-4.795868
 30
0.0
 11
-10.935036
 21
-4.628013
 31
0.0
  0
LINE
  5
15c
100
AcDbEntity
  8
Layer_1
 62
7
100
AcDbLine
 10
-10.935036
 20
-4.628013
 30
0.0
 11
-10.538223
 21
-4.612925
 31
0.0
  0
LINE
  5
15d
100
AcDbEntity
  8
Layer_1
 62
7
100
AcDbLine
 10
-10.538223
 20
-4.612925
 30
0.0
 11
-10.178898
 21
-4.746505
 31
0.0
  0
LINE
  5
15e
100
AcDbEntity
  8
Layer_1
 62
7
100
AcDbLine
 10
-10.178898
 20
-4.746505
 30
0.0
 11
-9.895883
 21
-5.005098
 31
0.0
  0
LINE
  5
15f
100
AcDbEntity
  8
Layer_1
 62
7
100
AcDbLine
 10
-9.895883
 20
-5.005098
 30
0.0
 11
-9.728016
 21
-5.364965
 31
0.0
  0
LINE
  5
160
100
AcDbEntity
  8
Layer_1
 62
7
100
AcDbLine
 10
-21.828012
 20
-0.864976
 30
0.0
 11
-21.812911
 21
-1.261783
 31
0.0
  0
LINE
  5
161
100
AcDbEntity
  8
Layer_1
 62
7
100
AcDbLine
 10
-21.812911
 20
-1.261783
 30
0.0
 11
-21.946506
 21
-1.621115
 31
0.0
  0
LINE
  5
162
100
AcDbEntity
  8
Layer_1
 62
7
100
AcDbLine
 10
-21.946506
 20
-1.621115
 30
0.0
 11
-22.205094
 21
-1.904140
 31
0.0
  0
LINE
  5
163
100
AcDbEntity
  8
Layer_1
 62
7
100
AcDbLine
 10
-22.205094
 20
-1.904140
 30
0.0
 11
-22.564967
 21
-2.071995
 31
0.0
  0
LINE
  5
164
100
AcDbEntity
  8
Layer_1
 62
7
100
AcDbLine
 10
-22.564967
 20
-2.071995
 30
0.0
 11
-22.961781
 21
-2.087083
 31
0.0
  0
LINE
  5
165
100
AcDbEntity
  8
Layer_1
 62
7
100
AcDbLine
 10
-22.961781
 20
-2.087083
 30
0.0
 11
-23.321103
 21
-1.953502
 31
0.0
  0
LINE
  5
166
100
AcDbEntity
  8
Layer_1
 62
7
100
AcDbLine
 10
-23.321103
 20
-1.953502
 30
0.0
 11
-23.604117
 21
-1.694909
 31
0.0
  0
LINE
  5
167
100
AcDbEntity
  8
Layer_1
 62
7
100
AcDbLine
 10
-23.604117
 20
-1.694909
 30
0.0
 11
-23.771985
 21
-1.335042
 31
0.0
  0
LINE
  5
168
100
AcDbEntity
  8
Layer_1
 62
7
100
AcDbLine
 10
-23.771985
 20
-1.335042
 30
0.0
 11
-23.787087
 21
-0.938235
 31
0.0
  0
LINE
  5
169
100
AcDbEntity
  8
Layer_1
 62
7
100
AcDbLine
 10
-23.787087
 20
-0.938235
 30
0.0
 11
-23.653491
 21
-0.578903
 31
0.0
  0
LINE
  5
16a
100
AcDbEntity
  8
Layer_1
 62
7
100
AcDbLine
 10
-23.653491
 20
-0.578903
 30
0.0
 11
-23.394899
 21
-0.295906
 31
0.0
  0
LINE
  5
16b
100
AcDbEntity
  8
Layer_1
 62
7
100
AcDbLine
 10
-23.394899
 20
-0.295906
 30
0.0
 11
-23.035033
 21
-0.128024
 31
0.0
  0
LINE
  5
16c
100
AcDbEntity
  8
Layer_1
 62
7
100
AcDbLine
 10
-23.035033
 20
-0.128024
 30
0.0
 11
-22.638223
 21
-0.112908
 31
0.0
  0
LINE
  5
16d
100
AcDbEntity
  8
Layer_1
 62
7
100
AcDbLine
 10
-22.638223
 20
-0.112908
 30
0.0
 11
-22.278894
 21
-0.246516
 31
0.0
  0
LINE
  5
16e
100
AcDbEntity
  8
Layer_1
 62
7
100
AcDbLine
 10
-22.278894
 20
-0.246516
 30
0.0
 11
-21.995880
 21
-0.505109
 31
0.0
  0
LINE
  5
16f
100
AcDbEntity
  8
Layer_1
 62
7
100
AcDbLine
 10
-21.995880
 20
-0.505109
 30
0.0
 11
-21.828012
 21
-0.864976
 31
0.0
  0
LINE
  5
170
100
AcDbEntity
  8
Layer_1
 62
7
100
AcDbLine
 10
1.499988
 20
-13.000001
 30
0.0
 11
1.382105
 21
-13.583862
 31
0.0
  0
LINE
  5
171
100
AcDbEntity
  8
Layer_1
 62
7
100
AcDbLine
 10
1.382105
 20
-13.583862
 30
0.0
 11
1.060642
 21
-14.060648
 31
0.0
  0
LINE
  5
172
100
AcDbEntity
  8
Layer_1
 62
7
100
AcDbLine
 10
1.060642
 20
-14.060648
 30
0.0
 11
0.583851
 21
-14.382100
 31
0.0
  0
LINE
  5
173
100
AcDbEntity
  8
Layer_1
 62
7
100
AcDbLine
 10
0.583851
 20
-14.382100
 30
0.0
 11
-0.000012
 21
-14.499984
 31
0.0
  0
LINE
  5
174
100
AcDbEntity
  8
Layer_1
 62
7
100
AcDbLine
 10
-0.000012
 20
-14.499984
 30
0.0
 11
-0.583876
 21
-14.382100
 31
0.0
  0
LINE
  5
175
100
AcDbEntity
  8
Layer_1
 62
7
100
AcDbLine
 10
-0.583876
 20
-14.382100
 30
0.0
 11
-1.060667
 21
-14.060648
 31
0.0
  0
LINE
  5
176
100
AcDbEntity
  8
Layer_1
 62
7
100
AcDbLine
 10
-1.060667
 20
-14.060648
 30
0.0
 11
-1.382130
 21
-13.583862
 31
0.0
  0
LINE
  5
177
100
AcDbEntity
  8
Layer_1
 62
7
100
AcDbLine
 10
-1.382130
 20
-13.583862
 30
0.0
 11
-1.500012
 21
-13.000001
 31
0.0
  0
LINE
  5
178
100
AcDbEntity
  8
Layer_1
 62
7
100
AcDbLine
 10
-1.500012
 20
-13.000001
 30
0.0
 11
-1.382140
 21
-12.416140
 31
0.0
  0
LINE
  5
179
100
AcDbEntity
  8
Layer_1
 62
7
100
AcDbLine
 10
-1.382140
 20
-12.416140
 30
0.0
 11
-1.060678
 21
-11.939325
 31
0.0
  0
LINE
  5
17a
100
AcDbEntity
  8
Layer_1
 62
7
100
AcDbLine
 10
-1.060678
 20
-11.939325
 30
0.0
 11
-0.583883
 21
-11.617874
 31
0.0
  0
LINE
  5
17b
100
AcDbEntity
  8
Layer_1
 62
7
100
AcDbLine
 10
-0.583883
 20
-11.617874
 30
0.0
 11
-0.000012
 21
-11.499990
 31
0.0
  0
LINE
  5
17c
100
AcDbEntity
  8
Layer_1
 62
7
100
AcDbLine
 10
-0.000012
 20
-11.499990
 30
0.0
 11
0.583858
 21
-11.617874
 31
0.0
  0
LINE
  5
17d
100
AcDbEntity
  8
Layer_1
 62
7
100
AcDbLine
 10
0.583858
 20
-11.617874
 30
0.0
 11
1.060653
 21
-11.939325
 31
0.0
  0
LINE
  5
17e
100
AcDbEntity
  8
Layer_1
 62
7
100
AcDbLine
 10
1.060653
 20
-11.939325
 30
0.0
 11
1.382115
 21
-12.416140
 31
0.0
  0
LINE
  5
17f
100
AcDbEntity
  8
Layer_1
 62
7
100
AcDbLine
 10
1.382115
 20
-12.416140
 30
0.0
 11
1.499988
 21
-13.000001
 31
0.0
  0
LINE
  5
180
100
AcDbEntity
  8
Layer_1
 62
7
100
AcDbLine
 10
-46.499994
 20
1.799986
 30
0.0
 11
-46.617876
 21
1.216125
 31
0.0
  0
LINE
  5
181
100
AcDbEntity
  8
Layer_1
 62
7
100
AcDbLine
 10
-46.617876
 20
1.216125
 30
0.0
 11
-46.939341
 21
0.739339
 31
0.0
  0
LINE
  5
182
100
AcDbEntity
  8
Layer_1
 62
7
100
AcDbLine
 10
-46.939341
 20
0.739339
 30
0.0
 11
-47.416130
 21
0.417888
 31
0.0
  0
LINE
  5
183
100
AcDbEntity
  8
Layer_1
 62
7
100
AcDbLine
 10
-47.416130
 20
0.417888
 30
0.0
 11
-47.999994
 21
0.300004
 31
0.0
  0
LINE
  5
184
100
AcDbEntity
  8
Layer_1
 62
7
100
AcDbLine
 10
-47.999994
 20
0.300004
 30
0.0
 11
-48.583858
 21
0.417888
 31
0.0
  0
LINE
  5
185
100
AcDbEntity
  8
Layer_1
 62
7
100
AcDbLine
 10
-48.583858
 20
0.417888
 30
0.0
 11
-49.060648
 21
0.739339
 31
0.0
  0
LINE
  5
186
100
AcDbEntity
  8
Layer_1
 62
7
100
AcDbLine
 10
-49.060648
 20
0.739339
 30
0.0
 11
-49.382113
 21
1.216125
 31
0.0
  0
LINE
  5
187
100
AcDbEntity
  8
Layer_1
 62
7
100
AcDbLine
 10
-49.382113
 20
1.216125
 30
0.0
 11
-49.499994
 21
1.799986
 31
0.0
  0
LINE
  5
188
100
AcDbEntity
  8
Layer_1
 62
7
100
AcDbLine
 10
-49.499994
 20
1.799986
 30
0.0
 11
-49.382121
 21
2.383848
 31
0.0
  0
LINE
  5
189
100
AcDbEntity
  8
Layer_1
 62
7
100
AcDbLine
 10
-49.382121
 20
2.383848
 30
0.0
 11
-49.060659
 21
2.860662
 31
0.0
  0
LINE
  5
18a
100
AcDbEntity
  8
Layer_1
 62
7
100
AcDbLine
 10
-49.060659
 20
2.860662
 30
0.0
 11
-48.583864
 21
3.182113
 31
0.0
  0
LINE
  5
18b
100
AcDbEntity
  8
Layer_1
 62
7
100
AcDbLine
 10
-48.583864
 20
3.182113
 30
0.0
 11
-47.999994
 21
3.299998
 31
0.0
  0
LINE
  5
18c
100
AcDbEntity
  8
Layer_1
 62
7
100
AcDbLine
 10
-47.999994
 20
3.299998
 30
0.0
 11
-47.416125
 21
3.182113
 31
0.0
  0
LINE
  5
18d
100
AcDbEntity
  8
Layer_1
 62
7
100
AcDbLine
 10
-47.416125
 20
3.182113
 30
0.0
 11
-46.939330
 21
2.860662
 31
0.0
  0
LINE
  5
18e
100
AcDbEntity
  8
Layer_1
 62
7
100
AcDbLine
 10
-46.939330
 20
2.860662
 30
0.0
 11
-46.617867
 21
2.383848
 31
0.0
  0
LINE
  5
18f
100
AcDbEntity
  8
Layer_1
 62
7
100
AcDbLine
 10
-46.617867
 20
2.383848
 30
0.0
 11
-46.499994
 21
1.799986
 31
0.0
  0
LINE
  5
190
100
AcDbEntity
  8
Layer_1
 62
7
100
AcDbLine
 10
46.500003
 20
-13.000001
 30
0.0
 11
46.617884
 21
-13.583862
 31
0.0
  0
LINE
  5
191
100
AcDbEntity
  8
Layer_1
 62
7
100
AcDbLine
 10
46.617884
 20
-13.583862
 30
0.0
 11
46.939350
 21
-14.060648
 31
0.0
  0
LINE
  5
192
100
AcDbEntity
  8
Layer_1
 62
7
100
AcDbLine
 10
46.939350
 20
-14.060648
 30
0.0
 11
47.416139
 21
-14.382100
 31
0.0
  0
LINE
  5
193
100
AcDbEntity
  8
Layer_1
 62
7
100
AcDbLine
 10
47.416139
 20
-14.382100
 30
0.0
 11
48.000003
 21
-14.499984
 31
0.0
  0
LINE
  5
194
100
AcDbEntity
  8
Layer_1
 62
7
100
AcDbLine
 10
48.000003
 20
-14.499984
 30
0.0
 11
48.583867
 21
-14.382100
 31
0.0
  0
LINE
  5
195
100
AcDbEntity
  8
Layer_1
 62
7
100
AcDbLine
 10
48.583867
 20
-14.382100
 30
0.0
 11
49.060656
 21
-14.060648
 31
0.0
  0
LINE
  5
196
100
AcDbEntity
  8
Layer_1
 62
7
100
AcDbLine
 10
49.060656
 20
-14.060648
 30
0.0
 11
49.382121
 21
-13.583862
 31
0.0
  0
LINE
  5
197
100
AcDbEntity
  8
Layer_1
 62
7
100
AcDbLine
 10
49.382121
 20
-13.583862
 30
0.0
 11
49.500003
 21
-13.000001
 31
0.0
  0
LINE
  5
198
100
AcDbEntity
  8
Layer_1
 62
7
100
AcDbLine
 10
49.500003
 20
-13.000001
 30
0.0
 11
49.382130
 21
-12.416140
 31
0.0
  0
LINE
  5
199
100
AcDbEntity
  8
Layer_1
 62
7
100
AcDbLine
 10
49.382130
 20
-12.416140
 30
0.0
 11
49.060667
 21
-11.939325
 31
0.0
  0
LINE
  5
19a
100
AcDbEntity
  8
Layer_1
 62
7
100
AcDbLine
 10
49.060667
 20
-11.939325
 30
0.0
 11
48.583873
 21
-11.617874
 31
0.0
  0
LINE
  5
19b
100
AcDbEntity
  8
Layer_1
 62
7
100
AcDbLine
 10
48.583873
 20
-11.617874
 30
0.0
 11
48.000003
 21
-11.499990
 31
0.0
  0
LINE
  5
19c
100
AcDbEntity
  8
Layer_1
 62
7
100
AcDbLine
 10
48.000003
 20
-11.499990
 30
0.0
 11
47.416133
 21
-11.617874
 31
0.0
  0
LINE
  5
19d
100
AcDbEntity
  8
Layer_1
 62
7
100
AcDbLine
 10
47.416133
 20
-11.617874
 30
0.0
 11
46.939338
 21
-11.939325
 31
0.0
  0
LINE
  5
19e
100
AcDbEntity
  8
Layer_1
 62
7
100
AcDbLine
 10
46.939338
 20
-11.939325
 30
0.0
 11
46.617876
 21
-12.416140
 31
0.0
  0
LINE
  5
19f
100
AcDbEntity
  8
Layer_1
 62
7
100
AcDbLine
 10
46.617876
 20
-12.416140
 30
0.0
 11
46.500003
 21
-13.000001
 31
0.0
  0
LINE
  5
1a0
100
AcDbEntity
  8
Layer_1
 62
7
100
AcDbLine
 10
36.489166
 20
-5.420069
 30
0.0
 11
36.442176
 21
-6.013856
 31
0.0
  0
LINE
  5
1a1
100
AcDbEntity
  8
Layer_1
 62
7
100
AcDbLine
 10
36.442176
 20
-6.013856
 30
0.0
 11
36.180231
 21
-6.525762
 31
0.0
  0
LINE
  5
1a2
100
AcDbEntity
  8
Layer_1
 62
7
100
AcDbLine
 10
36.180231
 20
-6.525762
 30
0.0
 11
35.745446
 21
-6.902089
 31
0.0
  0
LINE
  5
1a3
100
AcDbEntity
  8
Layer_1
 62
7
100
AcDbLine
 10
35.745446
 20
-6.902089
 30
0.0
 11
35.179940
 21
-7.089164
 31
0.0
  0
LINE
  5
1a4
100
AcDbEntity
  8
Layer_1
 62
7
100
AcDbLine
 10
35.179940
 20
-7.089164
 30
0.0
 11
34.586151
 21
-7.042173
 31
0.0
  0
LINE
  5
1a5
100
AcDbEntity
  8
Layer_1
 62
7
100
AcDbLine
 10
34.586151
 20
-7.042173
 30
0.0
 11
34.074242
 21
-6.780240
 31
0.0
  0
LINE
  5
1a6
100
AcDbEntity
  8
Layer_1
 62
7
100
AcDbLine
 10
34.074242
 20
-6.780240
 30
0.0
 11
33.697903
 21
-6.345461
 31
0.0
  0
LINE
  5
1a7
100
AcDbEntity
  8
Layer_1
 62
7
100
AcDbLine
 10
33.697903
 20
-6.345461
 30
0.0
 11
33.510830
 21
-5.779958
 31
0.0
  0
LINE
  5
1a8
100
AcDbEntity
  8
Layer_1
 62
7
100
AcDbLine
 10
33.510830
 20
-5.779958
 30
0.0
 11
33.557811
 21
-5.186172
 31
0.0
  0
LINE
  5
1a9
100
AcDbEntity
  8
Layer_1
 62
7
100
AcDbLine
 10
33.557811
 20
-5.186172
 30
0.0
 11
33.819751
 21
-4.674238
 31
0.0
  0
LINE
  5
1aa
100
AcDbEntity
  8
Layer_1
 62
7
100
AcDbLine
 10
33.819751
 20
-4.674238
 30
0.0
 11
34.254540
 21
-4.297910
 31
0.0
  0
LINE
  5
1ab
100
AcDbEntity
  8
Layer_1
 62
7
100
AcDbLine
 10
34.254540
 20
-4.297910
 30
0.0
 11
34.820053
 21
-4.110835
 31
0.0
  0
LINE
  5
1ac
100
AcDbEntity
  8
Layer_1
 62
7
100
AcDbLine
 10
34.820053
 20
-4.110835
 30
0.0
 11
35.413849
 21
-4.157825
 31
0.0
  0
LINE
  5
1ad
100
AcDbEntity
  8
Layer_1
 62
7
100
AcDbLine
 10
35.413849
 20
-4.157825
 30
0.0
 11
35.925762
 21
-4.419757
 31
0.0
  0
LINE
  5
1ae
100
AcDbEntity
  8
Layer_1
 62
7
100
AcDbLine
 10
35.925762
 20
-4.419757
 30
0.0
 11
36.302102
 21
-4.854565
 31
0.0
  0
LINE
  5
1af
100
AcDbEntity
  8
Layer_1
 62
7
100
AcDbLine
 10
36.302102
 20
-4.854565
 30
0.0
 11
36.489166
 21
-5.420069
 31
0.0
  0
LINE
  5
1b0
100
AcDbEntity
  8
Layer_1
 62
7
100
AcDbLine
 10
9.728026
 20
-5.364967
 30
0.0
 11
9.712917
 21
-5.761773
 31
0.0
  0
LINE
  5
1b1
100
AcDbEntity
  8
Layer_1
 62
7
100
AcDbLine
 10
9.712917
 20
-5.761773
 30
0.0
 11
9.846506
 21
-6.121132
 31
0.0
  0
LINE
  5
1b2
100
AcDbEntity
  8
Layer_1
 62
7
100
AcDbLine
 10
9.846506
 20
-6.121132
 30
0.0
 11
10.105098
 21
-6.404129
 31
0.0
  0
LINE
  5
1b3
100
AcDbEntity
  8
Layer_1
 62
7
100
AcDbLine
 10
10.105098
 20
-6.404129
 30
0.0
 11
10.464973
 21
-6.572013
 31
0.0
  0
LINE
  5
1b4
100
AcDbEntity
  8
Layer_1
 62
7
100
AcDbLine
 10
10.464973
 20
-6.572013
 30
0.0
 11
10.861794
 21
-6.587103
 31
0.0
  0
LINE
  5
1b5
100
AcDbEntity
  8
Layer_1
 62
7
100
AcDbLine
 10
10.861794
 20
-6.587103
 30
0.0
 11
11.221119
 21
-6.453523
 31
0.0
  0
LINE
  5
1b6
100
AcDbEntity
  8
Layer_1
 62
7
100
AcDbLine
 10
11.221119
 20
-6.453523
 30
0.0
 11
11.504140
 21
-6.194903
 31
0.0
  0
LINE
  5
1b7
100
AcDbEntity
  8
Layer_1
 62
7
100
AcDbLine
 10
11.504140
 20
-6.194903
 30
0.0
 11
11.672000
 21
-5.835034
 31
0.0
  0
LINE
  5
1b8
100
AcDbEntity
  8
Layer_1
 62
7
100
AcDbLine
 10
11.672000
 20
-5.835034
 30
0.0
 11
11.687101
 21
-5.438226
 31
0.0
  0
LINE
  5
1b9
100
AcDbEntity
  8
Layer_1
 62
7
100
AcDbLine
 10
11.687101
 20
-5.438226
 30
0.0
 11
11.553506
 21
-5.078894
 31
0.0
  0
LINE
  5
1ba
100
AcDbEntity
  8
Layer_1
 62
7
100
AcDbLine
 10
11.553506
 20
-5.078894
 30
0.0
 11
11.294918
 21
-4.795870
 31
0.0
  0
LINE
  5
1bb
100
AcDbEntity
  8
Layer_1
 62
7
100
AcDbLine
 10
11.294918
 20
-4.795870
 30
0.0
 11
10.935045
 21
-4.628015
 31
0.0
  0
LINE
  5
1bc
100
AcDbEntity
  8
Layer_1
 62
7
100
AcDbLine
 10
10.935045
 20
-4.628015
 30
0.0
 11
10.538231
 21
-4.612927
 31
0.0
  0
LINE
  5
1bd
100
AcDbEntity
  8
Layer_1
 62
7
100
AcDbLine
 10
10.538231
 20
-4.612927
 30
0.0
 11
10.178909
 21
-4.746507
 31
0.0
  0
LINE
  5
1be
100
AcDbEntity
  8
Layer_1
 62
7
100
AcDbLine
 10
10.178909
 20
-4.746507
 30
0.0
 11
9.895894
 21
-5.005100
 31
0.0
  0
LINE
  5
1bf
100
AcDbEntity
  8
Layer_1
 62
7
100
AcDbLine
 10
9.895894
 20
-5.005100
 30
0.0
 11
9.728026
 21
-5.364967
 31
0.0
  0
LINE
  5
1c0
100
AcDbEntity
  8
Layer_1
 62
7
100
AcDbLine
 10
21.828020
 20
-0.864978
 30
0.0
 11
21.812919
 21
-1.261785
 31
0.0
  0
LINE
  5
1c1
100
AcDbEntity
  8
Layer_1
 62
7
100
AcDbLine
 10
21.812919
 20
-1.261785
 30
0.0
 11
21.946515
 21
-1.621117
 31
0.0
  0
LINE
  5
1c2
100
AcDbEntity
  8
Layer_1
 62
7
100
AcDbLine
 10
21.946515
 20
-1.621117
 30
0.0
 11
22.205102
 21
-1.904142
 31
0.0
  0
LINE
  5
1c3
100
AcDbEntity
  8
Layer_1
 62
7
100
AcDbLine
 10
22.205102
 20
-1.904142
 30
0.0
 11
22.564975
 21
-2.071997
 31
0.0
  0
LINE
  5
1c4
100
AcDbEntity
  8
Layer_1
 62
7
100
AcDbLine
 10
22.564975
 20
-2.071997
 30
0.0
 11
22.961789
 21
-2.087085
 31
0.0
  0
LINE
  5
1c5
100
AcDbEntity
  8
Layer_1
 62
7
100
AcDbLine
 10
22.961789
 20
-2.087085
 30
0.0
 11
23.321111
 21
-1.953504
 31
0.0
  0
LINE
  5
1c6
100
AcDbEntity
  8
Layer_1
 62
7
100
AcDbLine
 10
23.321111
 20
-1.953504
 30
0.0
 11
23.604126
 21
-1.694911
 31
0.0
  0
LINE
  5
1c7
100
AcDbEntity
  8
Layer_1
 62
7
100
AcDbLine
 10
23.604126
 20
-1.694911
 30
0.0
 11
23.771994
 21
-1.335044
 31
0.0
  0
LINE
  5
1c8
100
AcDbEntity
  8
Layer_1
 62
7
100
AcDbLine
 10
23.771994
 20
-1.335044
 30
0.0
 11
23.787095
 21
-0.938237
 31
0.0
  0
LINE
  5
1c9
100
AcDbEntity
  8
Layer_1
 62
7
100
AcDbLine
 10
23.787095
 20
-0.938237
 30
0.0
 11
23.653499
 21
-0.578905
 31
0.0
  0
LINE
  5
1ca
100
AcDbEntity
  8
Layer_1
 62
7
100
AcDbLine
 10
23.653499
 20
-0.578905
 30
0.0
 11
23.394908
 21
-0.295908
 31
0.0
  0
LINE
  5
1cb
100
AcDbEntity
  8
Layer_1
 62
7
100
AcDbLine
 10
23.394908
 20
-0.295908
 30
0.0
 11
23.035041
 21
-0.128026
 31
0.0
  0
LINE
  5
1cc
100
AcDbEntity
  8
Layer_1
 62
7
100
AcDbLine
 10
23.035041
 20
-0.128026
 30
0.0
 11
22.638232
 21
-0.112910
 31
0.0
  0
LINE
  5
1cd
100
AcDbEntity
  8
Layer_1
 62
7
100
AcDbLine
 10
22.638232
 20
-0.112910
 30
0.0
 11
22.278902
 21
-0.246518
 31
0.0
  0
LINE
  5
1ce
100
AcDbEntity
  8
Layer_1
 62
7
100
AcDbLine
 10
22.278902
 20
-0.246518
 30
0.0
 11
21.995888
 21
-0.505111
 31
0.0
  0
LINE
  5
1cf
100
AcDbEntity
  8
Layer_1
 62
7
100
AcDbLine
 10
21.995888
 20
-0.505111
 30
0.0
 11
21.828020
 21
-0.864978
 31
0.0
  0
LINE
  5
1d0
100
AcDbEntity
  8
Layer_1
 62
7
100
AcDbLine
 10
46.500003
 20
1.799986
 30
0.0
 11
46.617884
 21
1.216125
 31
0.0
  0
LINE
  5
1d1
100
AcDbEntity
  8
Layer_1
 62
7
100
AcDbLine
 10
46.617884
 20
1.216125
 30
0.0
 11
46.939350
 21
0.739339
 31
0.0
  0
LINE
  5
1d2
100
AcDbEntity
  8
Layer_1
 62
7
100
AcDbLine
 10
46.939350
 20
0.739339
 30
0.0
 11
47.416139
 21
0.417888
 31
0.0
  0
LINE
  5
1d3
100
AcDbEntity
  8
Layer_1
 62
7
100
AcDbLine
 10
47.416139
 20
0.417888
 30
0.0
 11
48.000003
 21
0.300004
 31
0.0
  0
LINE
  5
1d4
100
AcDbEntity
  8
Layer_1
 62
7
100
AcDbLine
 10
48.000003
 20
0.300004
 30
0.0
 11
48.583867
 21
0.417888
 31
0.0
  0
LINE
  5
1d5
100
AcDbEntity
  8
Layer_1
 62
7
100
AcDbLine
 10
48.583867
 20
0.417888
 30
0.0
 11
49.060656
 21
0.739339
 31
0.0
  0
LINE
  5
1d6
100
AcDbEntity
  8
Layer_1
 62
7
100
AcDbLine
 10
49.060656
 20
0.739339
 30
0.0
 11
49.382121
 21
1.216125
 31
0.0
  0
LINE
  5
1d7
100
AcDbEntity
  8
Layer_1
 62
7
100
AcDbLine
 10
49.382121
 20
1.216125
 30
0.0
 11
49.500003
 21
1.799986
 31
0.0
  0
LINE
  5
1d8
100
AcDbEntity
  8
Layer_1
 62
7
100
AcDbLine
 10
49.500003
 20
1.799986
 30
0.0
 11
49.382130
 21
2.383848
 31
0.0
  0
LINE
  5
1d9
100
AcDbEntity
  8
Layer_1
 62
7
100
AcDbLine
 10
49.382130
 20
2.383848
 30
0.0
 11
49.060667
 21
2.860662
 31
0.0
  0
LINE
  5
1da
100
AcDbEntity
  8
Layer_1
 62
7
100
AcDbLine
 10
49.060667
 20
2.860662
 30
0.0
 11
48.583873
 21
3.182113
 31
0.0
  0
LINE
  5
1db
100
AcDbEntity
  8
Layer_1
 62
7
100
AcDbLine
 10
48.583873
 20
3.182113
 30
0.0
 11
48.000003
 21
3.299998
 31
0.0
  0
LINE
  5
1dc
100
AcDbEntity
  8
Layer_1
 62
7
100
AcDbLine
 10
48.000003
 20
3.299998
 30
0.0
 11
47.416133
 21
3.182113
 31
0.0
  0
LINE
  5
1dd
100
AcDbEntity
  8
Layer_1
 62
7
100
AcDbLine
 10
47.416133
 20
3.182113
 30
0.0
 11
46.939338
 21
2.860662
 31
0.0
  0
LINE
  5
1de
100
AcDbEntity
  8
Layer_1
 62
7
100
AcDbLine
 10
46.939338
 20
2.860662
 30
0.0
 11
46.617876
 21
2.383848
 31
0.0
  0
LINE
  5
1df
100
AcDbEntity
  8
Layer_1
 62
7
100
AcDbLine
 10
46.617876
 20
2.383848
 30
0.0
 11
46.500003
 21
1.799986
 31
0.0
  0
LINE
  5
1e0
100
AcDbEntity
  8
Layer_1
 62
7
100
AcDbLine
 10
-42.999996
 20
7.000072
 30
0.0
 11
-43.157160
 21
6.221562
 31
0.0
  0
LINE
  5
1e1
100
AcDbEntity
  8
Layer_1
 62
7
100
AcDbLine
 10
-43.157160
 20
6.221562
 30
0.0
 11
-43.585773
 21
5.585828
 31
0.0
  0
LINE
  5
1e2
100
AcDbEntity
  8
Layer_1
 62
7
100
AcDbLine
 10
-43.585773
 20
5.585828
 30
0.0
 11
-44.221502
 21
5.157217
 31
0.0
  0
LINE
  5
1e3
100
AcDbEntity
  8
Layer_1
 62
7
100
AcDbLine
 10
-44.221502
 20
5.157217
 30
0.0
 11
-44.999997
 21
5.000048
 31
0.0
  0
LINE
  5
1e4
100
AcDbEntity
  8
Layer_1
 62
7
100
AcDbLine
 10
-44.999997
 20
5.000048
 30
0.0
 11
-45.778493
 21
5.157217
 31
0.0
  0
LINE
  5
1e5
100
AcDbEntity
  8
Layer_1
 62
7
100
AcDbLine
 10
-45.778493
 20
5.157217
 30
0.0
 11
-46.414219
 21
5.585856
 31
0.0
  0
LINE
  5
1e6
100
AcDbEntity
  8
Layer_1
 62
7
100
AcDbLine
 10
-46.414219
 20
5.585856
 30
0.0
 11
-46.842832
 21
6.221562
 31
0.0
  0
LINE
  5
1e7
100
AcDbEntity
  8
Layer_1
 62
7
100
AcDbLine
 10
-46.842832
 20
6.221562
 30
0.0
 11
-46.999996
 21
7.000072
 31
0.0
  0
LINE
  5
1e8
100
AcDbEntity
  8
Layer_1
 62
7
100
AcDbLine
 10
-46.999996
 20
7.000072
 30
0.0
 11
-46.842827
 21
7.778554
 31
0.0
  0
LINE
  5
1e9
100
AcDbEntity
  8
Layer_1
 62
7
100
AcDbLine
 10
-46.842827
 20
7.778554
 30
0.0
 11
-46.414210
 21
8.414288
 31
0.0
  0
LINE
  5
1ea
100
AcDbEntity
  8
Layer_1
 62
7
100
AcDbLine
 10
-46.414210
 20
8.414288
 30
0.0
 11
-45.778488
 21
8.842898
 31
0.0
  0
LINE
  5
1eb
100
AcDbEntity
  8
Layer_1
 62
7
100
AcDbLine
 10
-45.778488
 20
8.842898
 30
0.0
 11
-44.999997
 21
9.000068
 31
0.0
  0
LINE
  5
1ec
100
AcDbEntity
  8
Layer_1
 62
7
100
AcDbLine
 10
-44.999997
 20
9.000068
 30
0.0
 11
-44.221507
 21
8.842898
 31
0.0
  0
LINE
  5
1ed
100
AcDbEntity
  8
Layer_1
 62
7
100
AcDbLine
 10
-44.221507
 20
8.842898
 30
0.0
 11
-43.585785
 21
8.414288
 31
0.0
  0
LINE
  5
1ee
100
AcDbEntity
  8
Layer_1
 62
7
100
AcDbLine
 10
-43.585785
 20
8.414288
 30
0.0
 11
-43.157168
 21
7.778554
 31
0.0
  0
LINE
  5
1ef
100
AcDbEntity
  8
Layer_1
 62
7
100
AcDbLine
 10
-43.157168
 20
7.778554
 30
0.0
 11
-42.999996
 21
7.000072
 31
0.0
  0
LINE
  5
1f0
100
AcDbEntity
  8
Layer_1
 62
7
100
AcDbLine
 10
-32.999996
 20
7.000016
 30
0.0
 11
-33.157166
 21
6.221534
 31
0.0
  0
LINE
  5
1f1
100
AcDbEntity
  8
Layer_1
 62
7
100
AcDbLine
 10
-33.157166
 20
6.221534
 30
0.0
 11
-33.585782
 21
5.585800
 31
0.0
  0
LINE
  5
1f2
100
AcDbEntity
  8
Layer_1
 62
7
100
AcDbLine
 10
-33.585782
 20
5.585800
 30
0.0
 11
-34.221505
 21
5.157189
 31
0.0
  0
LINE
  5
1f3
100
AcDbEntity
  8
Layer_1
 62
7
100
AcDbLine
 10
-34.221505
 20
5.157189
 30
0.0
 11
-34.999995
 21
5.000020
 31
0.0
  0
LINE
  5
1f4
100
AcDbEntity
  8
Layer_1
 62
7
100
AcDbLine
 10
-34.999995
 20
5.000020
 30
0.0
 11
-35.778485
 21
5.157189
 31
0.0
  0
LINE
  5
1f5
100
AcDbEntity
  8
Layer_1
 62
7
100
AcDbLine
 10
-35.778485
 20
5.157189
 30
0.0
 11
-36.414208
 21
5.585800
 31
0.0
  0
LINE
  5
1f6
100
AcDbEntity
  8
Layer_1
 62
7
100
AcDbLine
 10
-36.414208
 20
5.585800
 30
0.0
 11
-36.842824
 21
6.221534
 31
0.0
  0
LINE
  5
1f7
100
AcDbEntity
  8
Layer_1
 62
7
100
AcDbLine
 10
-36.842824
 20
6.221534
 30
0.0
 11
-36.999997
 21
7.000016
 31
0.0
  0
LINE
  5
1f8
100
AcDbEntity
  8
Layer_1
 62
7
100
AcDbLine
 10
-36.999997
 20
7.000016
 30
0.0
 11
-36.842833
 21
7.778526
 31
0.0
  0
LINE
  5
1f9
100
AcDbEntity
  8
Layer_1
 62
7
100
AcDbLine
 10
-36.842833
 20
7.778526
 30
0.0
 11
-36.414219
 21
8.414259
 31
0.0
  0
LINE
  5
1fa
100
AcDbEntity
  8
Layer_1
 62
7
100
AcDbLine
 10
-36.414219
 20
8.414259
 30
0.0
 11
-35.778491
 21
8.842870
 31
0.0
  0
LINE
  5
1fb
100
AcDbEntity
  8
Layer_1
 62
7
100
AcDbLine
 10
-35.778491
 20
8.842870
 30
0.0
 11
-34.999995
 21
9.000040
 31
0.0
  0
LINE
  5
1fc
100
AcDbEntity
  8
Layer_1
 62
7
100
AcDbLine
 10
-34.999995
 20
9.000040
 30
0.0
 11
-34.221499
 21
8.842870
 31
0.0
  0
LINE
  5
1fd
100
AcDbEntity
  8
Layer_1
 62
7
100
AcDbLine
 10
-34.221499
 20
8.842870
 30
0.0
 11
-33.585774
 21
8.414231
 31
0.0
  0
LINE
  5
1fe
100
AcDbEntity
  8
Layer_1
 62
7
100
AcDbLine
 10
-33.585774
 20
8.414231
 30
0.0
 11
-33.157160
 21
7.778526
 31
0.0
  0
LINE
  5
1ff
100
AcDbEntity
  8
Layer_1
 62
7
100
AcDbLine
 10
-33.157160
 20
7.778526
 30
0.0
 11
-32.999996
 21
7.000016
 31
0.0
  0
LINE
  5
200
100
AcDbEntity
  8
Layer_1
 62
7
100
AcDbLine
 10
-23.000003
 20
7.000072
 30
0.0
 11
-23.157166
 21
6.221562
 31
0.0
  0
LINE
  5
201
100
AcDbEntity
  8
Layer_1
 62
7
100
AcDbLine
 10
-23.157166
 20
6.221562
 30
0.0
 11
-23.585781
 21
5.585856
 31
0.0
  0
LINE
  5
202
100
AcDbEntity
  8
Layer_1
 62
7
100
AcDbLine
 10
-23.585781
 20
5.585856
 30
0.0
 11
-24.221507
 21
5.157217
 31
0.0
  0
LINE
  5
203
100
AcDbEntity
  8
Layer_1
 62
7
100
AcDbLine
 10
-24.221507
 20
5.157217
 30
0.0
 11
-25.000003
 21
5.000048
 31
0.0
  0
LINE
  5
204
100
AcDbEntity
  8
Layer_1
 62
7
100
AcDbLine
 10
-25.000003
 20
5.000048
 30
0.0
 11
-25.778499
 21
5.157217
 31
0.0
  0
LINE
  5
205
100
AcDbEntity
  8
Layer_1
 62
7
100
AcDbLine
 10
-25.778499
 20
5.157217
 30
0.0
 11
-26.414225
 21
5.585856
 31
0.0
  0
LINE
  5
206
100
AcDbEntity
  8
Layer_1
 62
7
100
AcDbLine
 10
-26.414225
 20
5.585856
 30
0.0
 11
-26.842840
 21
6.221562
 31
0.0
  0
LINE
  5
207
100
AcDbEntity
  8
Layer_1
 62
7
100
AcDbLine
 10
-26.842840
 20
6.221562
 30
0.0
 11
-27.000003
 21
7.000072
 31
0.0
  0
LINE
  5
208
100
AcDbEntity
  8
Layer_1
 62
7
100
AcDbLine
 10
-27.000003
 20
7.000072
 30
0.0
 11
-26.842832
 21
7.778554
 31
0.0
  0
LINE
  5
209
100
AcDbEntity
  8
Layer_1
 62
7
100
AcDbLine
 10
-26.842832
 20
7.778554
 30
0.0
 11
-26.414215
 21
8.414288
 31
0.0
  0
LINE
  5
20a
100
AcDbEntity
  8
Layer_1
 62
7
100
AcDbLine
 10
-26.414215
 20
8.414288
 30
0.0
 11
-25.778492
 21
8.842898
 31
0.0
  0
LINE
  5
20b
100
AcDbEntity
  8
Layer_1
 62
7
100
AcDbLine
 10
-25.778492
 20
8.842898
 30
0.0
 11
-25.000003
 21
9.000068
 31
0.0
  0
LINE
  5
20c
100
AcDbEntity
  8
Layer_1
 62
7
100
AcDbLine
 10
-25.000003
 20
9.000068
 30
0.0
 11
-24.221513
 21
8.842898
 31
0.0
  0
LINE
  5
20d
100
AcDbEntity
  8
Layer_1
 62
7
100
AcDbLine
 10
-24.221513
 20
8.842898
 30
0.0
 11
-23.585791
 21
8.414288
 31
0.0
  0
LINE
  5
20e
100
AcDbEntity
  8
Layer_1
 62
7
100
AcDbLine
 10
-23.585791
 20
8.414288
 30
0.0
 11
-23.157174
 21
7.778554
 31
0.0
  0
LINE
  5
20f
100
AcDbEntity
  8
Layer_1
 62
7
100
AcDbLine
 10
-23.157174
 20
7.778554
 30
0.0
 11
-23.000003
 21
7.000072
 31
0.0
  0
LINE
  5
210
100
AcDbEntity
  8
Layer_1
 62
7
100
AcDbLine
 10
-13.000010
 20
7.000016
 30
0.0
 11
-13.157181
 21
6.221534
 31
0.0
  0
LINE
  5
211
100
AcDbEntity
  8
Layer_1
 62
7
100
AcDbLine
 10
-13.157181
 20
6.221534
 30
0.0
 11
-13.585798
 21
5.585800
 31
0.0
  0
LINE
  5
212
100
AcDbEntity
  8
Layer_1
 62
7
100
AcDbLine
 10
-13.585798
 20
5.585800
 30
0.0
 11
-14.221521
 21
5.157189
 31
0.0
  0
LINE
  5
213
100
AcDbEntity
  8
Layer_1
 62
7
100
AcDbLine
 10
-14.221521
 20
5.157189
 30
0.0
 11
-15.000010
 21
5.000020
 31
0.0
  0
LINE
  5
214
100
AcDbEntity
  8
Layer_1
 62
7
100
AcDbLine
 10
-15.000010
 20
5.000020
 30
0.0
 11
-15.778500
 21
5.157189
 31
0.0
  0
LINE
  5
215
100
AcDbEntity
  8
Layer_1
 62
7
100
AcDbLine
 10
-15.778500
 20
5.157189
 30
0.0
 11
-16.414223
 21
5.585800
 31
0.0
  0
LINE
  5
216
100
AcDbEntity
  8
Layer_1
 62
7
100
AcDbLine
 10
-16.414223
 20
5.585800
 30
0.0
 11
-16.842839
 21
6.221534
 31
0.0
  0
LINE
  5
217
100
AcDbEntity
  8
Layer_1
 62
7
100
AcDbLine
 10
-16.842839
 20
6.221534
 30
0.0
 11
-17.000010
 21
7.000016
 31
0.0
  0
LINE
  5
218
100
AcDbEntity
  8
Layer_1
 62
7
100
AcDbLine
 10
-17.000010
 20
7.000016
 30
0.0
 11
-16.842847
 21
7.778526
 31
0.0
  0
LINE
  5
219
100
AcDbEntity
  8
Layer_1
 62
7
100
AcDbLine
 10
-16.842847
 20
7.778526
 30
0.0
 11
-16.414232
 21
8.414231
 31
0.0
  0
LINE
  5
21a
100
AcDbEntity
  8
Layer_1
 62
7
100
AcDbLine
 10
-16.414232
 20
8.414231
 30
0.0
 11
-15.778507
 21
8.842870
 31
0.0
  0
LINE
  5
21b
100
AcDbEntity
  8
Layer_1
 62
7
100
AcDbLine
 10
-15.778507
 20
8.842870
 30
0.0
 11
-15.000010
 21
9.000040
 31
0.0
  0
LINE
  5
21c
100
AcDbEntity
  8
Layer_1
 62
7
100
AcDbLine
 10
-15.000010
 20
9.000040
 30
0.0
 11
-14.221514
 21
8.842870
 31
0.0
  0
LINE
  5
21d
100
AcDbEntity
  8
Layer_1
 62
7
100
AcDbLine
 10
-14.221514
 20
8.842870
 30
0.0
 11
-13.585788
 21
8.414231
 31
0.0
  0
LINE
  5
21e
100
AcDbEntity
  8
Layer_1
 62
7
100
AcDbLine
 10
-13.585788
 20
8.414231
 30
0.0
 11
-13.157173
 21
7.778526
 31
0.0
  0
LINE
  5
21f
100
AcDbEntity
  8
Layer_1
 62
7
100
AcDbLine
 10
-13.157173
 20
7.778526
 30
0.0
 11
-13.000010
 21
7.000016
 31
0.0
  0
LINE
  5
220
100
AcDbEntity
  8
Layer_1
 62
7
100
AcDbLine
 10
16.999985
 20
7.000072
 30
0.0
 11
16.842822
 21
6.221562
 31
0.0
  0
LINE
  5
221
100
AcDbEntity
  8
Layer_1
 62
7
100
AcDbLine
 10
16.842822
 20
6.221562
 30
0.0
 11
16.414207
 21
5.585856
 31
0.0
  0
LINE
  5
222
100
AcDbEntity
  8
Layer_1
 62
7
100
AcDbLine
 10
16.414207
 20
5.585856
 30
0.0
 11
15.778481
 21
5.157217
 31
0.0
  0
LINE
  5
223
100
AcDbEntity
  8
Layer_1
 62
7
100
AcDbLine
 10
15.778481
 20
5.157217
 30
0.0
 11
14.999984
 21
5.000048
 31
0.0
  0
LINE
  5
224
100
AcDbEntity
  8
Layer_1
 62
7
100
AcDbLine
 10
14.999984
 20
5.000048
 30
0.0
 11
14.221488
 21
5.157217
 31
0.0
  0
LINE
  5
225
100
AcDbEntity
  8
Layer_1
 62
7
100
AcDbLine
 10
14.221488
 20
5.157217
 30
0.0
 11
13.585762
 21
5.585856
 31
0.0
  0
LINE
  5
226
100
AcDbEntity
  8
Layer_1
 62
7
100
AcDbLine
 10
13.585762
 20
5.585856
 30
0.0
 11
13.157148
 21
6.221562
 31
0.0
  0
LINE
  5
227
100
AcDbEntity
  8
Layer_1
 62
7
100
AcDbLine
 10
13.157148
 20
6.221562
 30
0.0
 11
12.999984
 21
7.000072
 31
0.0
  0
LINE
  5
228
100
AcDbEntity
  8
Layer_1
 62
7
100
AcDbLine
 10
12.999984
 20
7.000072
 30
0.0
 11
13.157155
 21
7.778554
 31
0.0
  0
LINE
  5
229
100
AcDbEntity
  8
Layer_1
 62
7
100
AcDbLine
 10
13.157155
 20
7.778554
 30
0.0
 11
13.585772
 21
8.414288
 31
0.0
  0
LINE
  5
22a
100
AcDbEntity
  8
Layer_1
 62
7
100
AcDbLine
 10
13.585772
 20
8.414288
 30
0.0
 11
14.221495
 21
8.842898
 31
0.0
  0
LINE
  5
22b
100
AcDbEntity
  8
Layer_1
 62
7
100
AcDbLine
 10
14.221495
 20
8.842898
 30
0.0
 11
14.999984
 21
9.000068
 31
0.0
  0
LINE
  5
22c
100
AcDbEntity
  8
Layer_1
 62
7
100
AcDbLine
 10
14.999984
 20
9.000068
 30
0.0
 11
15.778474
 21
8.842898
 31
0.0
  0
LINE
  5
22d
100
AcDbEntity
  8
Layer_1
 62
7
100
AcDbLine
 10
15.778474
 20
8.842898
 30
0.0
 11
16.414197
 21
8.414288
 31
0.0
  0
LINE
  5
22e
100
AcDbEntity
  8
Layer_1
 62
7
100
AcDbLine
 10
16.414197
 20
8.414288
 30
0.0
 11
16.842814
 21
7.778554
 31
0.0
  0
LINE
  5
22f
100
AcDbEntity
  8
Layer_1
 62
7
100
AcDbLine
 10
16.842814
 20
7.778554
 30
0.0
 11
16.999985
 21
7.000072
 31
0.0
  0
LINE
  5
230
100
AcDbEntity
  8
Layer_1
 62
7
100
AcDbLine
 10
26.999994
 20
7.000016
 30
0.0
 11
26.842823
 21
6.221534
 31
0.0
  0
LINE
  5
231
100
AcDbEntity
  8
Layer_1
 62
7
100
AcDbLine
 10
26.842823
 20
6.221534
 30
0.0
 11
26.414206
 21
5.585800
 31
0.0
  0
LINE
  5
232
100
AcDbEntity
  8
Layer_1
 62
7
100
AcDbLine
 10
26.414206
 20
5.585800
 30
0.0
 11
25.778484
 21
5.157189
 31
0.0
  0
LINE
  5
233
100
AcDbEntity
  8
Layer_1
 62
7
100
AcDbLine
 10
25.778484
 20
5.157189
 30
0.0
 11
24.999994
 21
5.000020
 31
0.0
  0
LINE
  5
234
100
AcDbEntity
  8
Layer_1
 62
7
100
AcDbLine
 10
24.999994
 20
5.000020
 30
0.0
 11
24.221505
 21
5.157189
 31
0.0
  0
LINE
  5
235
100
AcDbEntity
  8
Layer_1
 62
7
100
AcDbLine
 10
24.221505
 20
5.157189
 30
0.0
 11
23.585782
 21
5.585800
 31
0.0
  0
LINE
  5
236
100
AcDbEntity
  8
Layer_1
 62
7
100
AcDbLine
 10
23.585782
 20
5.585800
 30
0.0
 11
23.157165
 21
6.221534
 31
0.0
  0
LINE
  5
237
100
AcDbEntity
  8
Layer_1
 62
7
100
AcDbLine
 10
23.157165
 20
6.221534
 30
0.0
 11
22.999994
 21
7.000016
 31
0.0
  0
LINE
  5
238
100
AcDbEntity
  8
Layer_1
 62
7
100
AcDbLine
 10
22.999994
 20
7.000016
 30
0.0
 11
23.157157
 21
7.778526
 31
0.0
  0
LINE
  5
239
100
AcDbEntity
  8
Layer_1
 62
7
100
AcDbLine
 10
23.157157
 20
7.778526
 30
0.0
 11
23.585772
 21
8.414231
 31
0.0
  0
LINE
  5
23a
100
AcDbEntity
  8
Layer_1
 62
7
100
AcDbLine
 10
23.585772
 20
8.414231
 30
0.0
 11
24.221498
 21
8.842870
 31
0.0
  0
LINE
  5
23b
100
AcDbEntity
  8
Layer_1
 62
7
100
AcDbLine
 10
24.221498
 20
8.842870
 30
0.0
 11
24.999994
 21
9.000040
 31
0.0
  0
LINE
  5
23c
100
AcDbEntity
  8
Layer_1
 62
7
100
AcDbLine
 10
24.999994
 20
9.000040
 30
0.0
 11
25.778490
 21
8.842870
 31
0.0
  0
LINE
  5
23d
100
AcDbEntity
  8
Layer_1
 62
7
100
AcDbLine
 10
25.778490
 20
8.842870
 30
0.0
 11
26.414216
 21
8.414231
 31
0.0
  0
LINE
  5
23e
100
AcDbEntity
  8
Layer_1
 62
7
100
AcDbLine
 10
26.414216
 20
8.414231
 30
0.0
 11
26.842831
 21
7.778526
 31
0.0
  0
LINE
  5
23f
100
AcDbEntity
  8
Layer_1
 62
7
100
AcDbLine
 10
26.842831
 20
7.778526
 30
0.0
 11
26.999994
 21
7.000016
 31
0.0
  0
LINE
  5
240
100
AcDbEntity
  8
Layer_1
 62
7
100
AcDbLine
 10
36.999988
 20
7.000072
 30
0.0
 11
36.842824
 21
6.221562
 31
0.0
  0
LINE
  5
241
100
AcDbEntity
  8
Layer_1
 62
7
100
AcDbLine
 10
36.842824
 20
6.221562
 30
0.0
 11
36.414210
 21
5.585828
 31
0.0
  0
LINE
  5
242
100
AcDbEntity
  8
Layer_1
 62
7
100
AcDbLine
 10
36.414210
 20
5.585828
 30
0.0
 11
35.778482
 21
5.157217
 31
0.0
  0
LINE
  5
243
100
AcDbEntity
  8
Layer_1
 62
7
100
AcDbLine
 10
35.778482
 20
5.157217
 30
0.0
 11
34.999986
 21
5.000048
 31
0.0
  0
LINE
  5
244
100
AcDbEntity
  8
Layer_1
 62
7
100
AcDbLine
 10
34.999986
 20
5.000048
 30
0.0
 11
34.221491
 21
5.157217
 31
0.0
  0
LINE
  5
245
100
AcDbEntity
  8
Layer_1
 62
7
100
AcDbLine
 10
34.221491
 20
5.157217
 30
0.0
 11
33.585765
 21
5.585856
 31
0.0
  0
LINE
  5
246
100
AcDbEntity
  8
Layer_1
 62
7
100
AcDbLine
 10
33.585765
 20
5.585856
 30
0.0
 11
33.157152
 21
6.221562
 31
0.0
  0
LINE
  5
247
100
AcDbEntity
  8
Layer_1
 62
7
100
AcDbLine
 10
33.157152
 20
6.221562
 30
0.0
 11
32.999988
 21
7.000072
 31
0.0
  0
LINE
  5
248
100
AcDbEntity
  8
Layer_1
 62
7
100
AcDbLine
 10
32.999988
 20
7.000072
 30
0.0
 11
33.157157
 21
7.778554
 31
0.0
  0
LINE
  5
249
100
AcDbEntity
  8
Layer_1
 62
7
100
AcDbLine
 10
33.157157
 20
7.778554
 30
0.0
 11
33.585774
 21
8.414288
 31
0.0
  0
LINE
  5
24a
100
AcDbEntity
  8
Layer_1
 62
7
100
AcDbLine
 10
33.585774
 20
8.414288
 30
0.0
 11
34.221496
 21
8.842898
 31
0.0
  0
LINE
  5
24b
100
AcDbEntity
  8
Layer_1
 62
7
100
AcDbLine
 10
34.221496
 20
8.842898
 30
0.0
 11
34.999986
 21
9.000068
 31
0.0
  0
LINE
  5
24c
100
AcDbEntity
  8
Layer_1
 62
7
100
AcDbLine
 10
34.999986
 20
9.000068
 30
0.0
 11
35.778477
 21
8.842898
 31
0.0
  0
LINE
  5
24d
100
AcDbEntity
  8
Layer_1
 62
7
100
AcDbLine
 10
35.778477
 20
8.842898
 30
0.0
 11
36.414199
 21
8.414288
 31
0.0
  0
LINE
  5
24e
100
AcDbEntity
  8
Layer_1
 62
7
100
AcDbLine
 10
36.414199
 20
8.414288
 30
0.0
 11
36.842816
 21
7.778554
 31
0.0
  0
LINE
  5
24f
100
AcDbEntity
  8
Layer_1
 62
7
100
AcDbLine
 10
36.842816
 20
7.778554
 30
0.0
 11
36.999988
 21
7.000072
 31
0.0
  0
LINE
  5
250
100
AcDbEntity
  8
Layer_1
 62
7
100
AcDbLine
 10
46.999996
 20
7.000016
 30
0.0
 11
46.842827
 21
6.221534
 31
0.0
  0
LINE
  5
251
100
AcDbEntity
  8
Layer_1
 62
7
100
AcDbLine
 10
46.842827
 20
6.221534
 30
0.0
 11
46.414210
 21
5.585800
 31
0.0
  0
LINE
  5
252
100
AcDbEntity
  8
Layer_1
 62
7
100
AcDbLine
 10
46.414210
 20
5.585800
 30
0.0
 11
45.778488
 21
5.157189
 31
0.0
  0
LINE
  5
253
100
AcDbEntity
  8
Layer_1
 62
7
100
AcDbLine
 10
45.778488
 20
5.157189
 30
0.0
 11
44.999997
 21
5.000020
 31
0.0
  0
LINE
  5
254
100
AcDbEntity
  8
Layer_1
 62
7
100
AcDbLine
 10
44.999997
 20
5.000020
 30
0.0
 11
44.221507
 21
5.157189
 31
0.0
  0
LINE
  5
255
100
AcDbEntity
  8
Layer_1
 62
7
100
AcDbLine
 10
44.221507
 20
5.157189
 30
0.0
 11
43.585785
 21
5.585800
 31
0.0
  0
LINE
  5
256
100
AcDbEntity
  8
Layer_1
 62
7
100
AcDbLine
 10
43.585785
 20
5.585800
 30
0.0
 11
43.157168
 21
6.221534
 31
0.0
  0
LINE
  5
257
100
AcDbEntity
  8
Layer_1
 62
7
100
AcDbLine
 10
43.157168
 20
6.221534
 30
0.0
 11
42.999996
 21
7.000016
 31
0.0
  0
LINE
  5
258
100
AcDbEntity
  8
Layer_1
 62
7
100
AcDbLine
 10
42.999996
 20
7.000016
 30
0.0
 11
43.157160
 21
7.778526
 31
0.0
  0
LINE
  5
259
100
AcDbEntity
  8
Layer_1
 62
7
100
AcDbLine
 10
43.157160
 20
7.778526
 30
0.0
 11
43.585773
 21
8.414259
 31
0.0
  0
LINE
  5
25a
100
AcDbEntity
  8
Layer_1
 62
7
100
AcDbLine
 10
43.585773
 20
8.414259
 30
0.0
 11
44.221502
 21
8.842870
 31
0.0
  0
LINE
  5
25b
100
AcDbEntity
  8
Layer_1
 62
7
100
AcDbLine
 10
44.221502
 20
8.842870
 30
0.0
 11
44.999997
 21
9.000040
 31
0.0
  0
LINE
  5
25c
100
AcDbEntity
  8
Layer_1
 62
7
100
AcDbLine
 10
44.999997
 20
9.000040
 30
0.0
 11
45.778493
 21
8.842870
 31
0.0
  0
LINE
  5
25d
100
AcDbEntity
  8
Layer_1
 62
7
100
AcDbLine
 10
45.778493
 20
8.842870
 30
0.0
 11
46.414219
 21
8.414231
 31
0.0
  0
LINE
  5
25e
100
AcDbEntity
  8
Layer_1
 62
7
100
AcDbLine
 10
46.414219
 20
8.414231
 30
0.0
 11
46.842832
 21
7.778526
 31
0.0
  0
LINE
  5
25f
100
AcDbEntity
  8
Layer_1
 62
7
100
AcDbLine
 10
46.842832
 20
7.778526
 30
0.0
 11
46.999996
 21
7.000016
 31
0.0
  0
LINE
  5
260
100
AcDbEntity
  8
Layer_1
 62
7
100
AcDbLine
 10
-7.000013
 20
-7.500026
 30
0.0
 11
-3.500006
 21
-7.500026
 31
0.0
  0
LINE
  5
261
100
AcDbEntity
  8
Layer_1
 62
7
100
AcDbLine
 10
-3.500006
 20
-7.500026
 30
0.0
 11
0.000001
 21
-7.500026
 31
0.0
  0
LINE
  5
262
100
AcDbEntity
  8
Layer_1
 62
7
100
AcDbLine
 10
0.000001
 20
-7.500026
 30
0.0
 11
3.500008
 21
-7.500026
 31
0.0
  0
LINE
  5
263
100
AcDbEntity
  8
Layer_1
 62
7
100
AcDbLine
 10
3.500008
 20
-7.500026
 30
0.0
 11
7.000015
 21
-7.500026
 31
0.0
  0
LINE
  5
264
100
AcDbEntity
  8
Layer_1
 62
7
100
AcDbLine
 10
7.000015
 20
-7.500026
 30
0.0
 11
8.734382
 21
-5.449258
 31
0.0
  0
LINE
  5
265
100
AcDbEntity
  8
Layer_1
 62
7
100
AcDbLine
 10
8.734382
 20
-5.449258
 30
0.0
 11
9.625002
 21
-3.281284
 31
0.0
  0
LINE
  5
266
100
AcDbEntity
  8
Layer_1
 62
7
100
AcDbLine
 10
9.625002
 20
-3.281284
 30
0.0
 11
9.953126
 21
-1.347694
 31
0.0
  0
LINE
  5
267
100
AcDbEntity
  8
Layer_1
 62
7
100
AcDbLine
 10
9.953126
 20
-1.347694
 30
0.0
 11
10.000001
 21
-0.000055
 31
0.0
  0
LINE
  5
268
100
AcDbEntity
  8
Layer_1
 62
7
100
AcDbLine
 10
10.000001
 20
-0.000055
 30
0.0
 11
9.953126
 21
1.347612
 31
0.0
  0
LINE
  5
269
100
AcDbEntity
  8
Layer_1
 62
7
100
AcDbLine
 10
9.953126
 20
1.347612
 30
0.0
 11
9.625002
 21
3.281202
 31
0.0
  0
LINE
  5
26a
100
AcDbEntity
  8
Layer_1
 62
7
100
AcDbLine
 10
9.625002
 20
3.281202
 30
0.0
 11
8.734382
 21
5.449204
 31
0.0
  0
LINE
  5
26b
100
AcDbEntity
  8
Layer_1
 62
7
100
AcDbLine
 10
8.734382
 20
5.449204
 30
0.0
 11
7.000015
 21
7.500000
 31
0.0
  0
LINE
  5
26c
100
AcDbEntity
  8
Layer_1
 62
7
100
AcDbLine
 10
7.000015
 20
7.500000
 30
0.0
 11
3.500008
 21
7.500000
 31
0.0
  0
LINE
  5
26d
100
AcDbEntity
  8
Layer_1
 62
7
100
AcDbLine
 10
3.500008
 20
7.500000
 30
0.0
 11
0.000001
 21
7.500000
 31
0.0
  0
LINE
  5
26e
100
AcDbEntity
  8
Layer_1
 62
7
100
AcDbLine
 10
0.000001
 20
7.500000
 30
0.0
 11
-3.500006
 21
7.500000
 31
0.0
  0
LINE
  5
26f
100
AcDbEntity
  8
Layer_1
 62
7
100
AcDbLine
 10
-3.500006
 20
7.500000
 30
0.0
 11
-7.000013
 21
7.500000
 31
0.0
  0
LINE
  5
270
100
AcDbEntity
  8
Layer_1
 62
7
100
AcDbLine
 10
-7.000013
 20
7.500000
 30
0.0
 11
-8.734380
 21
5.449204
 31
0.0
  0
LINE
  5
271
100
AcDbEntity
  8
Layer_1
 62
7
100
AcDbLine
 10
-8.734380
 20
5.449204
 30
0.0
 11
-9.625001
 21
3.281202
 31
0.0
  0
LINE
  5
272
100
AcDbEntity
  8
Layer_1
 62
7
100
AcDbLine
 10
-9.625001
 20
3.281202
 30
0.0
 11
-9.953124
 21
1.347612
 31
0.0
  0
LINE
  5
273
100
AcDbEntity
  8
Layer_1
 62
7
100
AcDbLine
 10
-9.953124
 20
1.347612
 30
0.0
 11
-9.999999
 21
-0.000055
 31
0.0
  0
LINE
  5
274
100
AcDbEntity
  8
Layer_1
 62
7
100
AcDbLine
 10
-9.999999
 20
-0.000055
 30
0.0
 11
-9.953124
 21
-1.347694
 31
0.0
  0
LINE
  5
275
100
AcDbEntity
  8
Layer_1
 62
7
100
AcDbLine
 10
-9.953124
 20
-1.347694
 30
0.0
 11
-9.625001
 21
-3.281284
 31
0.0
  0
LINE
  5
276
100
AcDbEntity
  8
Layer_1
 62
7
100
AcDbLine
 10
-9.625001
 20
-3.281284
 30
0.0
 11
-8.734380
 21
-5.449258
 31
0.0
  0
LINE
  5
277
100
AcDbEntity
  8
Layer_1
 62
7
100
AcDbLine
 10
-8.734380
 20
-5.449258
 30
0.0
 11
-7.000013
 21
-7.500026
 31
0.0
  0
ENDSEC
  0
SECTION
  2
OBJECTS
  0
DICTIONARY
  5
C
330
0
100
AcDbDictionary
  3
ACAD_GROUP
350
D
  3
ACAD_MLINESTYLE
350
17
  0
DICTIONARY
  5
D
330
C
100
AcDbDictionary
  0
DICTIONARY
  5
1A
330
C
100
AcDbDictionary
  0
DICTIONARY
  5
17
330
C
100
AcDbDictionary
  3
STANDARD
350
18
  0
DICTIONARY
  5
19
330
C
100
AcDbDictionary
  0
ENDSEC
  0
EOF
