  0
SECTION
  2
HEADER
  9
$ACADVER
  1
AC1014
  9
$HANDSEED
  5
FFFF
  9
$MEASUREMENT
 70
     1
  0
ENDSEC
  0
SECTION
  2
TABLES
  0
TABLE
  2
VPORT
  5
8
330
0
100
AcDbSymbolTable
 70
     4
  0
VPORT
  5
2E
330
8
100
AcDbSymbolTableRecord
100
AcDbViewportTableRecord
  2
*ACTIVE
 70
     0
 10
0.0
 20
0.0
 11
1.0
 21
1.0
 12
210.0
 22
148.5
 13
0.0
 23
0.0
 14
10.0
 24
10.0
 15
10.0
 25
10.0
 16
0.0
 26
0.0
 36
1.0
 17
0.0
 27
0.0
 37
0.0
 40
341.0
 41
1.24
 42
50.0
 43
0.0
 44
0.0
 50
0.0
 51
0.0
 71
     0
 72
   100
 73
     1
 74
     3
 75
     0
 76
     0
 77
     0
 78
     0
  0
ENDTAB
  0
TABLE
  2
LTYPE
  5
5
330
0
100
AcDbSymbolTable
 70
     1
  0
LTYPE
  5
14
330
5
100
AcDbSymbolTableRecord
100
AcDbLinetypeTableRecord
  2
BYBLOCK
 70
     0
  3

 72
    65
 73
     0
 40
0.0
  0
LTYPE
  5
15
330
5
100
AcDbSymbolTableRecord
100
AcDbLinetypeTableRecord
  2
BYLAYER
 70
     0
  3

 72
    65
 73
     0
 40
0.0
  0
LTYPE
  5
16
330
5
100
AcDbSymbolTableRecord
100
AcDbLinetypeTableRecord
  2
CONTINUOUS
 70
     0
  3
Solid line
 72
    65
 73
     0
 40
0.0
  0
ENDTAB
  0
TABLE
  2
LAYER
  5
2
100
AcDbSymbolTable
 70
2
  0
LAYER
  5
50
100
AcDbSymbolTableRecord
100
AcDbLayerTableRecord
  2
0
 70
0
  6
CONTINUOUS
  0
LAYER
  5
51
100
AcDbSymbolTableRecord
100
AcDbLayerTableRecord
  2
gears
 70
0
  6
CONTINUOUS
  0
ENDTAB
  0
TABLE
  2
STYLE
  5
3
330
0
100
AcDbSymbolTable
 70
     1
  0
STYLE
  5
11
330
3
100
AcDbSymbolTableRecord
100
AcDbTextStyleTableRecord
  2
STANDARD
 70
     0
 40
0.0
 41
1.0
 50
0.0
 71
     0
 42
2.5
  3
txt
  4

  0
ENDTAB
  0
TABLE
  2
VIEW
  5
6
330
0
100
AcDbSymbolTable
 70
     0
  0
ENDTAB
  0
TABLE
  2
UCS
  5
7
330
0
100
AcDbSymbolTable
 70
     0
  0
ENDTAB
  0
TABLE
  2
APPID
  5
9
330
0
100
AcDbSymbolTable
 70
     2
  0
APPID
  5
12
330
9
100
AcDbSymbolTableRecord
100
AcDbRegAppTableRecord
  2
ACAD
 70
     0
  0
ENDTAB
  0
TABLE
  2
DIMSTYLE
  5
A
330
0
100
AcDbSymbolTable
 70
     1
  0
DIMSTYLE
105
27
330
A
100
AcDbSymbolTableRecord
100
AcDbDimStyleTableRecord
  2
ISO-25
 70
     0
  3

  4

  5

  6

  7

 40
1.0
 41
2.5
 42
0.625
 43
3.75
 44
1.25
 45
0.0
 46
0.0
 47
0.0
 48
0.0
140
2.5
141
2.5
142
0.0
143
0.03937007874016
144
1.0
145
0.0
146
1.0
147
0.625
 71
     0
 72
     0
 73
     0
 74
     0
 75
     0
 76
     0
 77
     1
 78
     8
170
     0
171
     3
172
     1
173
     0
174
     0
175
     0
176
     0
177
     0
178
     0
270
     2
271
     2
272
     2
273
     2
274
     3
340
11
275
     0
280
     0
281
     0
282
     0
283
     0
284
     8
285
     0
286
     0
287
     3
288
     0
  0
ENDTAB
  0
TABLE
  2
BLOCK_RECORD
  5
1
330
0
100
AcDbSymbolTable
 70
     1
  0
BLOCK_RECORD
  5
1F
330
1
100
AcDbSymbolTableRecord
100
AcDbBlockTableRecord
  2
*MODEL_SPACE
  0
BLOCK_RECORD
  5
1B
330
1
100
AcDbSymbolTableRecord
100
AcDbBlockTableRecord
  2
*PAPER_SPACE
  0
ENDTAB
  0
ENDSEC
  0
SECTION
  2
BLOCKS
  0
BLOCK
  5
20
330
1F
100
AcDbEntity
  8
0
100
AcDbBlockBegin
  2
*MODEL_SPACE
 70
     0
 10
0.0
 20
0.0
 30
0.0
  3
*MODEL_SPACE
  1

  0
ENDBLK
  5
21
330
1F
100
AcDbEntity
  8
0
100
AcDbBlockEnd
  0
BLOCK
  5
1C
330
1B
100
AcDbEntity
 67
     1
  8
0
100
AcDbBlockBegin
  2
*PAPER_SPACE
  1

  0
ENDBLK
  5
1D
330
1B
100
AcDbEntity
 67
     1
  8
0
100
AcDbBlockEnd
  0
ENDSEC
  0
SECTION
  2
ENTITIES
  0
LINE
  5
100
100
AcDbEntity
  8
gears
 62
7
100
AcDbLine
 10
7.914546
 20
1.801126
 30
0.0
 11
8.406998
 21
1.784810
 31
0.0
  0
LINE
  5
101
100
AcDbEntity
  8
gears
 62
7
100
AcDbLine
 10
8.406998
 20
1.784810
 30
0.0
 11
8.916414
 21
1.672033
 31
0.0
  0
LINE
  5
102
100
AcDbEntity
  8
gears
 62
7
100
AcDbLine
 10
8.916414
 20
1.672033
 30
0.0
 11
8.975643
 21
1.317565
 31
0.0
  0
LINE
  5
103
100
AcDbEntity
  8
gears
 62
7
100
AcDbLine
 10
8.975643
 20
1.317565
 30
0.0
 11
8.530563
 21
1.045300
 31
0.0
  0
LINE
  5
104
100
AcDbEntity
  8
gears
 62
7
100
AcDbLine
 10
8.530563
 20
1.045300
 30
0.0
 11
8.070167
 21
0.869773
 31
0.0
  0
LINE
  5
105
100
AcDbEntity
  8
gears
 62
7
100
AcDbLine
 10
8.070167
 20
0.869773
 30
0.0
 11
8.107069
 21
0.399416
 31
0.0
  0
LINE
  5
106
100
AcDbEntity
  8
gears
 62
7
100
AcDbLine
 10
8.107069
 20
0.399416
 30
0.0
 11
8.589206
 21
0.297834
 31
0.0
  0
LINE
  5
107
100
AcDbEntity
  8
gears
 62
7
100
AcDbLine
 10
8.589206
 20
0.297834
 30
0.0
 11
9.071298
 21
0.098310
 31
0.0
  0
LINE
  5
108
100
AcDbEntity
  8
gears
 62
7
100
AcDbLine
 10
9.071298
 20
0.098310
 30
0.0
 11
9.068075
 21
-0.261056
 31
0.0
  0
LINE
  5
109
100
AcDbEntity
  8
gears
 62
7
100
AcDbLine
 10
9.068075
 20
-0.261056
 30
0.0
 11
8.582479
 21
-0.451896
 31
0.0
  0
LINE
  5
10a
100
AcDbEntity
  8
gears
 62
7
100
AcDbLine
 10
8.582479
 20
-0.451896
 30
0.0
 11
8.098596
 21
-0.544812
 31
0.0
  0
LINE
  5
10b
100
AcDbEntity
  8
gears
 62
7
100
AcDbLine
 10
8.098596
 20
-0.544812
 30
0.0
 11
8.053263
 21
-1.014431
 31
0.0
  0
LINE
  5
10c
100
AcDbEntity
  8
gears
 62
7
100
AcDbLine
 10
8.053263
 20
-1.014431
 30
0.0
 11
8.510434
 21
-1.198190
 31
0.0
  0
LINE
  5
10d
100
AcDbEntity
  8
gears
 62
7
100
AcDbLine
 10
8.510434
 20
-1.198190
 30
0.0
 11
8.950558
 21
-1.478398
 31
0.0
  0
LINE
  5
10e
100
AcDbEntity
  8
gears
 62
7
100
AcDbLine
 10
8.950558
 20
-1.478398
 30
0.0
 11
8.884979
 21
-1.831745
 31
0.0
  0
LINE
  5
10f
100
AcDbEntity
  8
gears
 62
7
100
AcDbLine
 10
8.884979
 20
-1.831745
 30
0.0
 11
8.373619
 21
-1.935363
 31
0.0
  0
LINE
  5
110
100
AcDbEntity
  8
gears
 62
7
100
AcDbLine
 10
8.373619
 20
-1.935363
 30
0.0
 11
7.880956
 21
-1.942841
 31
0.0
  0
LINE
  5
111
100
AcDbEntity
  8
gears
 62
7
100
AcDbLine
 10
7.880956
 20
-1.942841
 30
0.0
 11
7.754761
 21
-2.397453
 31
0.0
  0
LINE
  5
112
100
AcDbEntity
  8
gears
 62
7
100
AcDbLine
 10
7.754761
 20
-2.397453
 30
0.0
 11
8.173077
 21
-2.657807
 31
0.0
  0
LINE
  5
113
100
AcDbEntity
  8
gears
 62
7
100
AcDbLine
 10
8.173077
 20
-2.657807
 30
0.0
 11
8.557858
 21
-3.010184
 31
0.0
  0
LINE
  5
114
100
AcDbEntity
  8
gears
 62
7
100
AcDbLine
 10
8.557858
 20
-3.010184
 30
0.0
 11
8.431917
 21
-3.346777
 31
0.0
  0
LINE
  5
115
100
AcDbEntity
  8
gears
 62
7
100
AcDbLine
 10
8.431917
 20
-3.346777
 30
0.0
 11
7.910333
 21
-3.360026
 31
0.0
  0
LINE
  5
116
100
AcDbEntity
  8
gears
 62
7
100
AcDbLine
 10
7.910333
 20
-3.360026
 30
0.0
 11
7.423855
 21
-3.281837
 31
0.0
  0
LINE
  5
117
100
AcDbEntity
  8
gears
 62
7
100
AcDbLine
 10
7.423855
 20
-3.281837
 30
0.0
 11
7.220635
 21
-3.707629
 31
0.0
  0
LINE
  5
118
100
AcDbEntity
  8
gears
 62
7
100
AcDbLine
 10
7.220635
 20
-3.707629
 30
0.0
 11
7.587387
 21
-4.036671
 31
0.0
  0
LINE
  5
119
100
AcDbEntity
  8
gears
 62
7
100
AcDbLine
 10
7.587387
 20
-4.036671
 30
0.0
 11
7.905130
 21
-4.450511
 31
0.0
  0
LINE
  5
11a
100
AcDbEntity
  8
gears
 62
7
100
AcDbLine
 10
7.905130
 20
-4.450511
 30
0.0
 11
7.722655
 21
-4.760116
 31
0.0
  0
LINE
  5
11b
100
AcDbEntity
  8
gears
 62
7
100
AcDbLine
 10
7.722655
 20
-4.760116
 30
0.0
 11
7.206694
 21
-4.682594
 31
0.0
  0
LINE
  5
11c
100
AcDbEntity
  8
gears
 62
7
100
AcDbLine
 10
7.206694
 20
-4.682594
 30
0.0
 11
6.741185
 21
-4.521119
 31
0.0
  0
LINE
  5
11d
100
AcDbEntity
  8
gears
 62
7
100
AcDbLine
 10
6.741185
 20
-4.521119
 30
0.0
 11
6.467114
 21
-4.905153
 31
0.0
  0
LINE
  5
11e
100
AcDbEntity
  8
gears
 62
7
100
AcDbLine
 10
6.467114
 20
-4.905153
 30
0.0
 11
6.771157
 21
-5.292878
 31
0.0
  0
LINE
  5
11f
100
AcDbEntity
  8
gears
 62
7
100
AcDbLine
 10
6.771157
 20
-5.292878
 30
0.0
 11
7.012209
 21
-5.755608
 31
0.0
  0
LINE
  5
120
100
AcDbEntity
  8
gears
 62
7
100
AcDbLine
 10
7.012209
 20
-5.755608
 30
0.0
 11
6.778745
 21
-6.028825
 31
0.0
  0
LINE
  5
121
100
AcDbEntity
  8
gears
 62
7
100
AcDbLine
 10
6.778745
 20
-6.028825
 30
0.0
 11
6.284086
 21
-5.862884
 31
0.0
  0
LINE
  5
122
100
AcDbEntity
  8
gears
 62
7
100
AcDbLine
 10
6.284086
 20
-5.862884
 30
0.0
 11
5.853686
 21
-5.623027
 31
0.0
  0
LINE
  5
123
100
AcDbEntity
  8
gears
 62
7
100
AcDbLine
 10
5.853686
 20
-5.623027
 30
0.0
 11
5.517092
 21
-5.953635
 31
0.0
  0
LINE
  5
124
100
AcDbEntity
  8
gears
 62
7
100
AcDbLine
 10
5.517092
 20
-5.953635
 30
0.0
 11
5.749189
 21
-6.388267
 31
0.0
  0
LINE
  5
125
100
AcDbEntity
  8
gears
 62
7
100
AcDbLine
 10
5.749189
 20
-6.388267
 30
0.0
 11
5.906229
 21
-6.885825
 31
0.0
  0
LINE
  5
126
100
AcDbEntity
  8
gears
 62
7
100
AcDbLine
 10
5.906229
 20
-6.885825
 30
0.0
 11
5.628865
 21
-7.114352
 31
0.0
  0
LINE
  5
127
100
AcDbEntity
  8
gears
 62
7
100
AcDbLine
 10
5.628865
 20
-7.114352
 30
0.0
 11
5.170536
 21
-6.865033
 31
0.0
  0
LINE
  5
128
100
AcDbEntity
  8
gears
 62
7
100
AcDbLine
 10
5.170536
 20
-6.865033
 30
0.0
 11
4.788328
 21
-6.554082
 31
0.0
  0
LINE
  5
129
100
AcDbEntity
  8
gears
 62
7
100
AcDbLine
 10
4.788328
 20
-6.554082
 30
0.0
 11
4.399439
 21
-6.821219
 31
0.0
  0
LINE
  5
12a
100
AcDbEntity
  8
gears
 62
7
100
AcDbLine
 10
4.399439
 20
-6.821219
 30
0.0
 11
4.552534
 21
-7.289550
 31
0.0
  0
LINE
  5
12b
100
AcDbEntity
  8
gears
 62
7
100
AcDbLine
 10
4.552534
 20
-7.289550
 30
0.0
 11
4.620789
 21
-7.806819
 31
0.0
  0
LINE
  5
12c
100
AcDbEntity
  8
gears
 62
7
100
AcDbLine
 10
4.620789
 20
-7.806819
 30
0.0
 11
4.307957
 21
-7.983711
 31
0.0
  0
LINE
  5
12d
100
AcDbEntity
  8
gears
 62
7
100
AcDbLine
 10
4.307957
 20
-7.983711
 30
0.0
 11
3.899884
 21
-7.658592
 31
0.0
  0
LINE
  5
12e
100
AcDbEntity
  8
gears
 62
7
100
AcDbLine
 10
3.899884
 20
-7.658592
 30
0.0
 11
3.577479
 21
-7.285997
 31
0.0
  0
LINE
  5
12f
100
AcDbEntity
  8
gears
 62
7
100
AcDbLine
 10
3.577479
 20
-7.285997
 30
0.0
 11
3.148108
 21
-7.481542
 31
0.0
  0
LINE
  5
130
100
AcDbEntity
  8
gears
 62
7
100
AcDbLine
 10
3.148108
 20
-7.481542
 30
0.0
 11
3.217552
 21
-7.969347
 31
0.0
  0
LINE
  5
131
100
AcDbEntity
  8
gears
 62
7
100
AcDbLine
 10
3.217552
 20
-7.969347
 30
0.0
 11
3.194949
 21
-8.490607
 31
0.0
  0
LINE
  5
132
100
AcDbEntity
  8
gears
 62
7
100
AcDbLine
 10
3.194949
 20
-8.490607
 30
0.0
 11
2.856152
 21
-8.610487
 31
0.0
  0
LINE
  5
133
100
AcDbEntity
  8
gears
 62
7
100
AcDbLine
 10
2.856152
 20
-8.610487
 30
0.0
 11
2.510736
 21
-8.219449
 31
0.0
  0
LINE
  5
134
100
AcDbEntity
  8
gears
 62
7
100
AcDbLine
 10
2.510736
 20
-8.219449
 30
0.0
 11
2.257928
 21
-7.796528
 31
0.0
  0
LINE
  5
135
100
AcDbEntity
  8
gears
 62
7
100
AcDbLine
 10
2.257928
 20
-7.796528
 30
0.0
 11
1.801124
 21
-7.914545
 31
0.0
  0
LINE
  5
136
100
AcDbEntity
  8
gears
 62
7
100
AcDbLine
 10
1.801124
 20
-7.914545
 30
0.0
 11
1.784809
 21
-8.406997
 31
0.0
  0
LINE
  5
137
100
AcDbEntity
  8
gears
 62
7
100
AcDbLine
 10
1.784809
 20
-8.406997
 30
0.0
 11
1.672031
 21
-8.916413
 31
0.0
  0
LINE
  5
138
100
AcDbEntity
  8
gears
 62
7
100
AcDbLine
 10
1.672031
 20
-8.916413
 30
0.0
 11
1.317564
 21
-8.975641
 31
0.0
  0
LINE
  5
139
100
AcDbEntity
  8
gears
 62
7
100
AcDbLine
 10
1.317564
 20
-8.975641
 30
0.0
 11
1.045298
 21
-8.530562
 31
0.0
  0
LINE
  5
13a
100
AcDbEntity
  8
gears
 62
7
100
AcDbLine
 10
1.045298
 20
-8.530562
 30
0.0
 11
0.869771
 21
-8.070165
 31
0.0
  0
LINE
  5
13b
100
AcDbEntity
  8
gears
 62
7
100
AcDbLine
 10
0.869771
 20
-8.070165
 30
0.0
 11
0.399414
 21
-8.107068
 31
0.0
  0
LINE
  5
13c
100
AcDbEntity
  8
gears
 62
7
100
AcDbLine
 10
0.399414
 20
-8.107068
 30
0.0
 11
0.297833
 21
-8.589205
 31
0.0
  0
LINE
  5
13d
100
AcDbEntity
  8
gears
 62
7
100
AcDbLine
 10
0.297833
 20
-8.589205
 30
0.0
 11
0.098309
 21
-9.071297
 31
0.0
  0
LINE
  5
13e
100
AcDbEntity
  8
gears
 62
7
100
AcDbLine
 10
0.098309
 20
-9.071297
 30
0.0
 11
-0.261057
 21
-9.068074
 31
0.0
  0
LINE
  5
13f
100
AcDbEntity
  8
gears
 62
7
100
AcDbLine
 10
-0.261057
 20
-9.068074
 30
0.0
 11
-0.451897
 21
-8.582478
 31
0.0
  0
LINE
  5
140
100
AcDbEntity
  8
gears
 62
7
100
AcDbLine
 10
-0.451897
 20
-8.582478
 30
0.0
 11
-0.544813
 21
-8.098595
 31
0.0
  0
LINE
  5
141
100
AcDbEntity
  8
gears
 62
7
100
AcDbLine
 10
-0.544813
 20
-8.098595
 30
0.0
 11
-1.014432
 21
-8.053262
 31
0.0
  0
LINE
  5
142
100
AcDbEntity
  8
gears
 62
7
100
AcDbLine
 10
-1.014432
 20
-8.053262
 30
0.0
 11
-1.198191
 21
-8.510433
 31
0.0
  0
LINE
  5
143
100
AcDbEntity
  8
gears
 62
7
100
AcDbLine
 10
-1.198191
 20
-8.510433
 30
0.0
 11
-1.478399
 21
-8.950557
 31
0.0
  0
LINE
  5
144
100
AcDbEntity
  8
gears
 62
7
100
AcDbLine
 10
-1.478399
 20
-8.950557
 30
0.0
 11
-1.831746
 21
-8.884978
 31
0.0
  0
LINE
  5
145
100
AcDbEntity
  8
gears
 62
7
100
AcDbLine
 10
-1.831746
 20
-8.884978
 30
0.0
 11
-1.935365
 21
-8.373617
 31
0.0
  0
LINE
  5
146
100
AcDbEntity
  8
gears
 62
7
100
AcDbLine
 10
-1.935365
 20
-8.373617
 30
0.0
 11
-1.942843
 21
-7.880955
 31
0.0
  0
LINE
  5
147
100
AcDbEntity
  8
gears
 62
7
100
AcDbLine
 10
-1.942843
 20
-7.880955
 30
0.0
 11
-2.397454
 21
-7.754759
 31
0.0
  0
LINE
  5
148
100
AcDbEntity
  8
gears
 62
7
100
AcDbLine
 10
-2.397454
 20
-7.754759
 30
0.0
 11
-2.657809
 21
-8.173076
 31
0.0
  0
LINE
  5
149
100
AcDbEntity
  8
gears
 62
7
100
AcDbLine
 10
-2.657809
 20
-8.173076
 30
0.0
 11
-3.010185
 21
-8.557856
 31
0.0
  0
LINE
  5
14a
100
AcDbEntity
  8
gears
 62
7
100
AcDbLine
 10
-3.010185
 20
-8.557856
 30
0.0
 11
-3.346778
 21
-8.431916
 31
0.0
  0
LINE
  5
14b
100
AcDbEntity
  8
gears
 62
7
100
AcDbLine
 10
-3.346778
 20
-8.431916
 30
0.0
 11
-3.360027
 21
-7.910331
 31
0.0
  0
LINE
  5
14c
100
AcDbEntity
  8
gears
 62
7
100
AcDbLine
 10
-3.360027
 20
-7.910331
 30
0.0
 11
-3.281838
 21
-7.423854
 31
0.0
  0
LINE
  5
14d
100
AcDbEntity
  8
gears
 62
7
100
AcDbLine
 10
-3.281838
 20
-7.423854
 30
0.0
 11
-3.707631
 21
-7.220634
 31
0.0
  0
LINE
  5
14e
100
AcDbEntity
  8
gears
 62
7
100
AcDbLine
 10
-3.707631
 20
-7.220634
 30
0.0
 11
-4.036672
 21
-7.587386
 31
0.0
  0
LINE
  5
14f
100
AcDbEntity
  8
gears
 62
7
100
AcDbLine
 10
-4.036672
 20
-7.587386
 30
0.0
 11
-4.450512
 21
-7.905129
 31
0.0
  0
LINE
  5
150
100
AcDbEntity
  8
gears
 62
7
100
AcDbLine
 10
-4.450512
 20
-7.905129
 30
0.0
 11
-4.760118
 21
-7.722654
 31
0.0
  0
LINE
  5
151
100
AcDbEntity
  8
gears
 62
7
100
AcDbLine
 10
-4.760118
 20
-7.722654
 30
0.0
 11
-4.682595
 21
-7.206693
 31
0.0
  0
LINE
  5
152
100
AcDbEntity
  8
gears
 62
7
100
AcDbLine
 10
-4.682595
 20
-7.206693
 30
0.0
 11
-4.521120
 21
-6.741184
 31
0.0
  0
LINE
  5
153
100
AcDbEntity
  8
gears
 62
7
100
AcDbLine
 10
-4.521120
 20
-6.741184
 30
0.0
 11
-4.905155
 21
-6.467113
 31
0.0
  0
LINE
  5
154
100
AcDbEntity
  8
gears
 62
7
100
AcDbLine
 10
-4.905155
 20
-6.467113
 30
0.0
 11
-5.292879
 21
-6.771155
 31
0.0
  0
LINE
  5
155
100
AcDbEntity
  8
gears
 62
7
100
AcDbLine
 10
-5.292879
 20
-6.771155
 30
0.0
 11
-5.755610
 21
-7.012208
 31
0.0
  0
LINE
  5
156
100
AcDbEntity
  8
gears
 62
7
100
AcDbLine
 10
-5.755610
 20
-7.012208
 30
0.0
 11
-6.028826
 21
-6.778744
 31
0.0
  0
LINE
  5
157
100
AcDbEntity
  8
gears
 62
7
100
AcDbLine
 10
-6.028826
 20
-6.778744
 30
0.0
 11
-5.862885
 21
-6.284085
 31
0.0
  0
LINE
  5
158
100
AcDbEntity
  8
gears
 62
7
100
AcDbLine
 10
-5.862885
 20
-6.284085
 30
0.0
 11
-5.623029
 21
-5.853685
 31
0.0
  0
LINE
  5
159
100
AcDbEntity
  8
gears
 62
7
100
AcDbLine
 10
-5.623029
 20
-5.853685
 30
0.0
 11
-5.953636
 21
-5.517091
 31
0.0
  0
LINE
  5
15a
100
AcDbEntity
  8
gears
 62
7
100
AcDbLine
 10
-5.953636
 20
-5.517091
 30
0.0
 11
-6.388268
 21
-5.749188
 31
0.0
  0
LINE
  5
15b
100
AcDbEntity
  8
gears
 62
7
100
AcDbLine
 10
-6.388268
 20
-5.749188
 30
0.0
 11
-6.885826
 21
-5.906228
 31
0.0
  0
LINE
  5
15c
100
AcDbEntity
  8
gears
 62
7
100
AcDbLine
 10
-6.885826
 20
-5.906228
 30
0.0
 11
-7.114354
 21
-5.628863
 31
0.0
  0
LINE
  5
15d
100
AcDbEntity
  8
gears
 62
7
100
AcDbLine
 10
-7.114354
 20
-5.628863
 30
0.0
 11
-6.865034
 21
-5.170535
 31
0.0
  0
LINE
  5
15e
100
AcDbEntity
  8
gears
 62
7
100
AcDbLine
 10
-6.865034
 20
-5.170535
 30
0.0
 11
-6.554084
 21
-4.788327
 31
0.0
  0
LINE
  5
15f
100
AcDbEntity
  8
gears
 62
7
100
AcDbLine
 10
-6.554084
 20
-4.788327
 30
0.0
 11
-6.821221
 21
-4.399437
 31
0.0
  0
LINE
  5
160
100
AcDbEntity
  8
gears
 62
7
100
AcDbLine
 10
-6.821221
 20
-4.399437
 30
0.0
 11
-7.289552
 21
-4.552532
 31
0.0
  0
LINE
  5
161
100
AcDbEntity
  8
gears
 62
7
100
AcDbLine
 10
-7.289552
 20
-4.552532
 30
0.0
 11
-7.806821
 21
-4.620788
 31
0.0
  0
LINE
  5
162
100
AcDbEntity
  8
gears
 62
7
100
AcDbLine
 10
-7.806821
 20
-4.620788
 30
0.0
 11
-7.983712
 21
-4.307956
 31
0.0
  0
LINE
  5
163
100
AcDbEntity
  8
gears
 62
7
100
AcDbLine
 10
-7.983712
 20
-4.307956
 30
0.0
 11
-7.658594
 21
-3.899883
 31
0.0
  0
LINE
  5
164
100
AcDbEntity
  8
gears
 62
7
100
AcDbLine
 10
-7.658594
 20
-3.899883
 30
0.0
 11
-7.285998
 21
-3.577478
 31
0.0
  0
LINE
  5
165
100
AcDbEntity
  8
gears
 62
7
100
AcDbLine
 10
-7.285998
 20
-3.577478
 30
0.0
 11
-7.481544
 21
-3.148107
 31
0.0
  0
LINE
  5
166
100
AcDbEntity
  8
gears
 62
7
100
AcDbLine
 10
-7.481544
 20
-3.148107
 30
0.0
 11
-7.969349
 21
-3.217551
 31
0.0
  0
LINE
  5
167
100
AcDbEntity
  8
gears
 62
7
100
AcDbLine
 10
-7.969349
 20
-3.217551
 30
0.0
 11
-8.490609
 21
-3.194947
 31
0.0
  0
LINE
  5
168
100
AcDbEntity
  8
gears
 62
7
100
AcDbLine
 10
-8.490609
 20
-3.194947
 30
0.0
 11
-8.610489
 21
-2.856151
 31
0.0
  0
LINE
  5
169
100
AcDbEntity
  8
gears
 62
7
100
AcDbLine
 10
-8.610489
 20
-2.856151
 30
0.0
 11
-8.219451
 21
-2.510735
 31
0.0
  0
LINE
  5
16a
100
AcDbEntity
  8
gears
 62
7
100
AcDbLine
 10
-8.219451
 20
-2.510735
 30
0.0
 11
-7.796529
 21
-2.257927
 31
0.0
  0
LINE
  5
16b
100
AcDbEntity
  8
gears
 62
7
100
AcDbLine
 10
-7.796529
 20
-2.257927
 30
0.0
 11
-7.914546
 21
-1.801123
 31
0.0
  0
LINE
  5
16c
100
AcDbEntity
  8
gears
 62
7
100
AcDbLine
 10
-7.914546
 20
-1.801123
 30
0.0
 11
-8.406998
 21
-1.784808
 31
0.0
  0
LINE
  5
16d
100
AcDbEntity
  8
gears
 62
7
100
AcDbLine
 10
-8.406998
 20
-1.784808
 30
0.0
 11
-8.916414
 21
-1.672030
 31
0.0
  0
LINE
  5
16e
100
AcDbEntity
  8
gears
 62
7
100
AcDbLine
 10
-8.916414
 20
-1.672030
 30
0.0
 11
-8.975643
 21
-1.317562
 31
0.0
  0
LINE
  5
16f
100
AcDbEntity
  8
gears
 62
7
100
AcDbLine
 10
-8.975643
 20
-1.317562
 30
0.0
 11
-8.530563
 21
-1.045297
 31
0.0
  0
LINE
  5
170
100
AcDbEntity
  8
gears
 62
7
100
AcDbLine
 10
-8.530563
 20
-1.045297
 30
0.0
 11
-8.070167
 21
-0.869770
 31
0.0
  0
LINE
  5
171
100
AcDbEntity
  8
gears
 62
7
100
AcDbLine
 10
-8.070167
 20
-0.869770
 30
0.0
 11
-8.107069
 21
-0.399413
 31
0.0
  0
LINE
  5
172
100
AcDbEntity
  8
gears
 62
7
100
AcDbLine
 10
-8.107069
 20
-0.399413
 30
0.0
 11
-8.589206
 21
-0.297831
 31
0.0
  0
LINE
  5
173
100
AcDbEntity
  8
gears
 62
7
100
AcDbLine
 10
-8.589206
 20
-0.297831
 30
0.0
 11
-9.071298
 21
-0.098307
 31
0.0
  0
LINE
  5
174
100
AcDbEntity
  8
gears
 62
7
100
AcDbLine
 10
-9.071298
 20
-0.098307
 30
0.0
 11
-9.068075
 21
0.261059
 31
0.0
  0
LINE
  5
175
100
AcDbEntity
  8
gears
 62
7
100
AcDbLine
 10
-9.068075
 20
0.261059
 30
0.0
 11
-8.582479
 21
0.451898
 31
0.0
  0
LINE
  5
176
100
AcDbEntity
  8
gears
 62
7
100
AcDbLine
 10
-8.582479
 20
0.451898
 30
0.0
 11
-8.098596
 21
0.544814
 31
0.0
  0
LINE
  5
177
100
AcDbEntity
  8
gears
 62
7
100
AcDbLine
 10
-8.098596
 20
0.544814
 30
0.0
 11
-8.053263
 21
1.014434
 31
0.0
  0
LINE
  5
178
100
AcDbEntity
  8
gears
 62
7
100
AcDbLine
 10
-8.053263
 20
1.014434
 30
0.0
 11
-8.510434
 21
1.198193
 31
0.0
  0
LINE
  5
179
100
AcDbEntity
  8
gears
 62
7
100
AcDbLine
 10
-8.510434
 20
1.198193
 30
0.0
 11
-8.950558
 21
1.478401
 31
0.0
  0
LINE
  5
17a
100
AcDbEntity
  8
gears
 62
7
100
AcDbLine
 10
-8.950558
 20
1.478401
 30
0.0
 11
-8.884979
 21
1.831747
 31
0.0
  0
LINE
  5
17b
100
AcDbEntity
  8
gears
 62
7
100
AcDbLine
 10
-8.884979
 20
1.831747
 30
0.0
 11
-8.373619
 21
1.935366
 31
0.0
  0
LINE
  5
17c
100
AcDbEntity
  8
gears
 62
7
100
AcDbLine
 10
-8.373619
 20
1.935366
 30
0.0
 11
-7.880956
 21
1.942844
 31
0.0
  0
LINE
  5
17d
100
AcDbEntity
  8
gears
 62
7
100
AcDbLine
 10
-7.880956
 20
1.942844
 30
0.0
 11
-7.754761
 21
2.397456
 31
0.0
  0
LINE
  5
17e
100
AcDbEntity
  8
gears
 62
7
100
AcDbLine
 10
-7.754761
 20
2.397456
 30
0.0
 11
-8.173077
 21
2.657810
 31
0.0
  0
LINE
  5
17f
100
AcDbEntity
  8
gears
 62
7
100
AcDbLine
 10
-8.173077
 20
2.657810
 30
0.0
 11
-8.557858
 21
3.010186
 31
0.0
  0
LINE
  5
180
100
AcDbEntity
  8
gears
 62
7
100
AcDbLine
 10
-8.557858
 20
3.010186
 30
0.0
 11
-8.431917
 21
3.346779
 31
0.0
  0
LINE
  5
181
100
AcDbEntity
  8
gears
 62
7
100
AcDbLine
 10
-8.431917
 20
3.346779
 30
0.0
 11
-7.910333
 21
3.360028
 31
0.0
  0
LINE
  5
182
100
AcDbEntity
  8
gears
 62
7
100
AcDbLine
 10
-7.910333
 20
3.360028
 30
0.0
 11
-7.423855
 21
3.281840
 31
0.0
  0
LINE
  5
183
100
AcDbEntity
  8
gears
 62
7
100
AcDbLine
 10
-7.423855
 20
3.281840
 30
0.0
 11
-7.220635
 21
3.707632
 31
0.0
  0
LINE
  5
184
100
AcDbEntity
  8
gears
 62
7
100
AcDbLine
 10
-7.220635
 20
3.707632
 30
0.0
 11
-7.587387
 21
4.036673
 31
0.0
  0
LINE
  5
185
100
AcDbEntity
  8
gears
 62
7
100
AcDbLine
 10
-7.587387
 20
4.036673
 30
0.0
 11
-7.905130
 21
4.450513
 31
0.0
  0
LINE
  5
186
100
AcDbEntity
  8
gears
 62
7
100
AcDbLine
 10
-7.905130
 20
4.450513
 30
0.0
 11
-7.722655
 21
4.760119
 31
0.0
  0
LINE
  5
187
100
AcDbEntity
  8
gears
 62
7
100
AcDbLine
 10
-7.722655
 20
4.760119
 30
0.0
 11
-7.206694
 21
4.682596
 31
0.0
  0
LINE
  5
188
100
AcDbEntity
  8
gears
 62
7
100
AcDbLine
 10
-7.206694
 20
4.682596
 30
0.0
 11
-6.741185
 21
4.521121
 31
0.0
  0
LINE
  5
189
100
AcDbEntity
  8
gears
 62
7
100
AcDbLine
 10
-6.741185
 20
4.521121
 30
0.0
 11
-6.467114
 21
4.905156
 31
0.0
  0
LINE
  5
18a
100
AcDbEntity
  8
gears
 62
7
100
AcDbLine
 10
-6.467114
 20
4.905156
 30
0.0
 11
-6.771157
 21
5.292881
 31
0.0
  0
LINE
  5
18b
100
AcDbEntity
  8
gears
 62
7
100
AcDbLine
 10
-6.771157
 20
5.292881
 30
0.0
 11
-7.012209
 21
5.755611
 31
0.0
  0
LINE
  5
18c
100
AcDbEntity
  8
gears
 62
7
100
AcDbLine
 10
-7.012209
 20
5.755611
 30
0.0
 11
-6.778745
 21
6.028828
 31
0.0
  0
LINE
  5
18d
100
AcDbEntity
  8
gears
 62
7
100
AcDbLine
 10
-6.778745
 20
6.028828
 30
0.0
 11
-6.284086
 21
5.862887
 31
0.0
  0
LINE
  5
18e
100
AcDbEntity
  8
gears
 62
7
100
AcDbLine
 10
-6.284086
 20
5.862887
 30
0.0
 11
-5.853686
 21
5.623030
 31
0.0
  0
LINE
  5
18f
100
AcDbEntity
  8
gears
 62
7
100
AcDbLine
 10
-5.853686
 20
5.623030
 30
0.0
 11
-5.517092
 21
5.953638
 31
0.0
  0
LINE
  5
190
100
AcDbEntity
  8
gears
 62
7
100
AcDbLine
 10
-5.517092
 20
5.953638
 30
0.0
 11
-5.749189
 21
6.388269
 31
0.0
  0
LINE
  5
191
100
AcDbEntity
  8
gears
 62
7
100
AcDbLine
 10
-5.749189
 20
6.388269
 30
0.0
 11
-5.906229
 21
6.885828
 31
0.0
  0
LINE
  5
192
100
AcDbEntity
  8
gears
 62
7
100
AcDbLine
 10
-5.906229
 20
6.885828
 30
0.0
 11
-5.628865
 21
7.114355
 31
0.0
  0
LINE
  5
193
100
AcDbEntity
  8
gears
 62
7
100
AcDbLine
 10
-5.628865
 20
7.114355
 30
0.0
 11
-5.170536
 21
6.865035
 31
0.0
  0
LINE
  5
194
100
AcDbEntity
  8
gears
 62
7
100
AcDbLine
 10
-5.170536
 20
6.865035
 30
0.0
 11
-4.788328
 21
6.554085
 31
0.0
  0
LINE
  5
195
100
AcDbEntity
  8
gears
 62
7
100
AcDbLine
 10
-4.788328
 20
6.554085
 30
0.0
 11
-4.399439
 21
6.821222
 31
0.0
  0
LINE
  5
196
100
AcDbEntity
  8
gears
 62
7
100
AcDbLine
 10
-4.399439
 20
6.821222
 30
0.0
 11
-4.552534
 21
7.289553
 31
0.0
  0
LINE
  5
197
100
AcDbEntity
  8
gears
 62
7
100
AcDbLine
 10
-4.552534
 20
7.289553
 30
0.0
 11
-4.620789
 21
7.806822
 31
0.0
  0
LINE
  5
198
100
AcDbEntity
  8
gears
 62
7
100
AcDbLine
 10
-4.620789
 20
7.806822
 30
0.0
 11
-4.307957
 21
7.983714
 31
0.0
  0
LINE
  5
199
100
AcDbEntity
  8
gears
 62
7
100
AcDbLine
 10
-4.307957
 20
7.983714
 30
0.0
 11
-3.899884
 21
7.658595
 31
0.0
  0
LINE
  5
19a
100
AcDbEntity
  8
gears
 62
7
100
AcDbLine
 10
-3.899884
 20
7.658595
 30
0.0
 11
-3.577479
 21
7.285999
 31
0.0
  0
LINE
  5
19b
100
AcDbEntity
  8
gears
 62
7
100
AcDbLine
 10
-3.577479
 20
7.285999
 30
0.0
 11
-3.148108
 21
7.481545
 31
0.0
  0
LINE
  5
19c
100
AcDbEntity
  8
gears
 62
7
100
AcDbLine
 10
-3.148108
 20
7.481545
 30
0.0
 11
-3.217552
 21
7.969350
 31
0.0
  0
LINE
  5
19d
100
AcDbEntity
  8
gears
 62
7
100
AcDbLine
 10
-3.217552
 20
7.969350
 30
0.0
 11
-3.194949
 21
8.490610
 31
0.0
  0
LINE
  5
19e
100
AcDbEntity
  8
gears
 62
7
100
AcDbLine
 10
-3.194949
 20
8.490610
 30
0.0
 11
-2.856152
 21
8.610490
 31
0.0
  0
LINE
  5
19f
100
AcDbEntity
  8
gears
 62
7
100
AcDbLine
 10
-2.856152
 20
8.610490
 30
0.0
 11
-2.510736
 21
8.219452
 31
0.0
  0
LINE
  5
1a0
100
AcDbEntity
  8
gears
 62
7
100
AcDbLine
 10
-2.510736
 20
8.219452
 30
0.0
 11
-2.257928
 21
7.796530
 31
0.0
  0
LINE
  5
1a1
100
AcDbEntity
  8
gears
 62
7
100
AcDbLine
 10
-2.257928
 20
7.796530
 30
0.0
 11
-1.801124
 21
7.914548
 31
0.0
  0
LINE
  5
1a2
100
AcDbEntity
  8
gears
 62
7
100
AcDbLine
 10
-1.801124
 20
7.914548
 30
0.0
 11
-1.784809
 21
8.406999
 31
0.0
  0
LINE
  5
1a3
100
AcDbEntity
  8
gears
 62
7
100
AcDbLine
 10
-1.784809
 20
8.406999
 30
0.0
 11
-1.672031
 21
8.916416
 31
0.0
  0
LINE
  5
1a4
100
AcDbEntity
  8
gears
 62
7
100
AcDbLine
 10
-1.672031
 20
8.916416
 30
0.0
 11
-1.317564
 21
8.975644
 31
0.0
  0
LINE
  5
1a5
100
AcDbEntity
  8
gears
 62
7
100
AcDbLine
 10
-1.317564
 20
8.975644
 30
0.0
 11
-1.045298
 21
8.530564
 31
0.0
  0
LINE
  5
1a6
100
AcDbEntity
  8
gears
 62
7
100
AcDbLine
 10
-1.045298
 20
8.530564
 30
0.0
 11
-0.869771
 21
8.070168
 31
0.0
  0
LINE
  5
1a7
100
AcDbEntity
  8
gears
 62
7
100
AcDbLine
 10
-0.869771
 20
8.070168
 30
0.0
 11
-0.399414
 21
8.107070
 31
0.0
  0
LINE
  5
1a8
100
AcDbEntity
  8
gears
 62
7
100
AcDbLine
 10
-0.399414
 20
8.107070
 30
0.0
 11
-0.297833
 21
8.589207
 31
0.0
  0
LINE
  5
1a9
100
AcDbEntity
  8
gears
 62
7
100
AcDbLine
 10
-0.297833
 20
8.589207
 30
0.0
 11
-0.098309
 21
9.071300
 31
0.0
  0
LINE
  5
1aa
100
AcDbEntity
  8
gears
 62
7
100
AcDbLine
 10
-0.098309
 20
9.071300
 30
0.0
 11
0.261057
 21
9.068076
 31
0.0
  0
LINE
  5
1ab
100
AcDbEntity
  8
gears
 62
7
100
AcDbLine
 10
0.261057
 20
9.068076
 30
0.0
 11
0.451897
 21
8.582480
 31
0.0
  0
LINE
  5
1ac
100
AcDbEntity
  8
gears
 62
7
100
AcDbLine
 10
0.451897
 20
8.582480
 30
0.0
 11
0.544813
 21
8.098598
 31
0.0
  0
LINE
  5
1ad
100
AcDbEntity
  8
gears
 62
7
100
AcDbLine
 10
0.544813
 20
8.098598
 30
0.0
 11
1.014432
 21
8.053265
 31
0.0
  0
LINE
  5
1ae
100
AcDbEntity
  8
gears
 62
7
100
AcDbLine
 10
1.014432
 20
8.053265
 30
0.0
 11
1.198191
 21
8.510436
 31
0.0
  0
LINE
  5
1af
100
AcDbEntity
  8
gears
 62
7
100
AcDbLine
 10
1.198191
 20
8.510436
 30
0.0
 11
1.478399
 21
8.950560
 31
0.0
  0
LINE
  5
1b0
100
AcDbEntity
  8
gears
 62
7
100
AcDbLine
 10
1.478399
 20
8.950560
 30
0.0
 11
1.831746
 21
8.884980
 31
0.0
  0
LINE
  5
1b1
100
AcDbEntity
  8
gears
 62
7
100
AcDbLine
 10
1.831746
 20
8.884980
 30
0.0
 11
1.935365
 21
8.373620
 31
0.0
  0
LINE
  5
1b2
100
AcDbEntity
  8
gears
 62
7
100
AcDbLine
 10
1.935365
 20
8.373620
 30
0.0
 11
1.942843
 21
7.880958
 31
0.0
  0
LINE
  5
1b3
100
AcDbEntity
  8
gears
 62
7
100
AcDbLine
 10
1.942843
 20
7.880958
 30
0.0
 11
2.397454
 21
7.754762
 31
0.0
  0
LINE
  5
1b4
100
AcDbEntity
  8
gears
 62
7
100
AcDbLine
 10
2.397454
 20
7.754762
 30
0.0
 11
2.657809
 21
8.173078
 31
0.0
  0
LINE
  5
1b5
100
AcDbEntity
  8
gears
 62
7
100
AcDbLine
 10
2.657809
 20
8.173078
 30
0.0
 11
3.010185
 21
8.557859
 31
0.0
  0
LINE
  5
1b6
100
AcDbEntity
  8
gears
 62
7
100
AcDbLine
 10
3.010185
 20
8.557859
 30
0.0
 11
3.346778
 21
8.431919
 31
0.0
  0
LINE
  5
1b7
100
AcDbEntity
  8
gears
 62
7
100
AcDbLine
 10
3.346778
 20
8.431919
 30
0.0
 11
3.360027
 21
7.910334
 31
0.0
  0
LINE
  5
1b8
100
AcDbEntity
  8
gears
 62
7
100
AcDbLine
 10
3.360027
 20
7.910334
 30
0.0
 11
3.281838
 21
7.423856
 31
0.0
  0
LINE
  5
1b9
100
AcDbEntity
  8
gears
 62
7
100
AcDbLine
 10
3.281838
 20
7.423856
 30
0.0
 11
3.707631
 21
7.220636
 31
0.0
  0
LINE
  5
1ba
100
AcDbEntity
  8
gears
 62
7
100
AcDbLine
 10
3.707631
 20
7.220636
 30
0.0
 11
4.036672
 21
7.587388
 31
0.0
  0
LINE
  5
1bb
100
AcDbEntity
  8
gears
 62
7
100
AcDbLine
 10
4.036672
 20
7.587388
 30
0.0
 11
4.450512
 21
7.905131
 31
0.0
  0
LINE
  5
1bc
100
AcDbEntity
  8
gears
 62
7
100
AcDbLine
 10
4.450512
 20
7.905131
 30
0.0
 11
4.760118
 21
7.722656
 31
0.0
  0
LINE
  5
1bd
100
AcDbEntity
  8
gears
 62
7
100
AcDbLine
 10
4.760118
 20
7.722656
 30
0.0
 11
4.682595
 21
7.206695
 31
0.0
  0
LINE
  5
1be
100
AcDbEntity
  8
gears
 62
7
100
AcDbLine
 10
4.682595
 20
7.206695
 30
0.0
 11
4.521120
 21
6.741187
 31
0.0
  0
LINE
  5
1bf
100
AcDbEntity
  8
gears
 62
7
100
AcDbLine
 10
4.521120
 20
6.741187
 30
0.0
 11
4.905155
 21
6.467115
 31
0.0
  0
LINE
  5
1c0
100
AcDbEntity
  8
gears
 62
7
100
AcDbLine
 10
4.905155
 20
6.467115
 30
0.0
 11
5.292879
 21
6.771158
 31
0.0
  0
LINE
  5
1c1
100
AcDbEntity
  8
gears
 62
7
100
AcDbLine
 10
5.292879
 20
6.771158
 30
0.0
 11
5.755610
 21
7.012211
 31
0.0
  0
LINE
  5
1c2
100
AcDbEntity
  8
gears
 62
7
100
AcDbLine
 10
5.755610
 20
7.012211
 30
0.0
 11
6.028826
 21
6.778747
 31
0.0
  0
LINE
  5
1c3
100
AcDbEntity
  8
gears
 62
7
100
AcDbLine
 10
6.028826
 20
6.778747
 30
0.0
 11
5.862885
 21
6.284088
 31
0.0
  0
LINE
  5
1c4
100
AcDbEntity
  8
gears
 62
7
100
AcDbLine
 10
5.862885
 20
6.284088
 30
0.0
 11
5.623029
 21
5.853688
 31
0.0
  0
LINE
  5
1c5
100
AcDbEntity
  8
gears
 62
7
100
AcDbLine
 10
5.623029
 20
5.853688
 30
0.0
 11
5.953636
 21
5.517093
 31
0.0
  0
LINE
  5
1c6
100
AcDbEntity
  8
gears
 62
7
100
AcDbLine
 10
5.953636
 20
5.517093
 30
0.0
 11
6.388268
 21
5.749190
 31
0.0
  0
LINE
  5
1c7
100
AcDbEntity
  8
gears
 62
7
100
AcDbLine
 10
6.388268
 20
5.749190
 30
0.0
 11
6.885826
 21
5.906231
 31
0.0
  0
LINE
  5
1c8
100
AcDbEntity
  8
gears
 62
7
100
AcDbLine
 10
6.885826
 20
5.906231
 30
0.0
 11
7.114354
 21
5.628866
 31
0.0
  0
LINE
  5
1c9
100
AcDbEntity
  8
gears
 62
7
100
AcDbLine
 10
7.114354
 20
5.628866
 30
0.0
 11
6.865034
 21
5.170537
 31
0.0
  0
LINE
  5
1ca
100
AcDbEntity
  8
gears
 62
7
100
AcDbLine
 10
6.865034
 20
5.170537
 30
0.0
 11
6.554084
 21
4.788329
 31
0.0
  0
LINE
  5
1cb
100
AcDbEntity
  8
gears
 62
7
100
AcDbLine
 10
6.554084
 20
4.788329
 30
0.0
 11
6.821221
 21
4.399440
 31
0.0
  0
LINE
  5
1cc
100
AcDbEntity
  8
gears
 62
7
100
AcDbLine
 10
6.821221
 20
4.399440
 30
0.0
 11
7.289552
 21
4.552535
 31
0.0
  0
LINE
  5
1cd
100
AcDbEntity
  8
gears
 62
7
100
AcDbLine
 10
7.289552
 20
4.552535
 30
0.0
 11
7.806821
 21
4.620791
 31
0.0
  0
LINE
  5
1ce
100
AcDbEntity
  8
gears
 62
7
100
AcDbLine
 10
7.806821
 20
4.620791
 30
0.0
 11
7.983712
 21
4.307959
 31
0.0
  0
LINE
  5
1cf
100
AcDbEntity
  8
gears
 62
7
100
AcDbLine
 10
7.983712
 20
4.307959
 30
0.0
 11
7.658594
 21
3.899886
 31
0.0
  0
LINE
  5
1d0
100
AcDbEntity
  8
gears
 62
7
100
AcDbLine
 10
7.658594
 20
3.899886
 30
0.0
 11
7.285998
 21
3.577480
 31
0.0
  0
LINE
  5
1d1
100
AcDbEntity
  8
gears
 62
7
100
AcDbLine
 10
7.285998
 20
3.577480
 30
0.0
 11
7.481544
 21
3.148110
 31
0.0
  0
LINE
  5
1d2
100
AcDbEntity
  8
gears
 62
7
100
AcDbLine
 10
7.481544
 20
3.148110
 30
0.0
 11
7.969349
 21
3.217554
 31
0.0
  0
LINE
  5
1d3
100
AcDbEntity
  8
gears
 62
7
100
AcDbLine
 10
7.969349
 20
3.217554
 30
0.0
 11
8.490609
 21
3.194950
 31
0.0
  0
LINE
  5
1d4
100
AcDbEntity
  8
gears
 62
7
100
AcDbLine
 10
8.490609
 20
3.194950
 30
0.0
 11
8.610489
 21
2.856154
 31
0.0
  0
LINE
  5
1d5
100
AcDbEntity
  8
gears
 62
7
100
AcDbLine
 10
8.610489
 20
2.856154
 30
0.0
 11
8.219451
 21
2.510737
 31
0.0
  0
LINE
  5
1d6
100
AcDbEntity
  8
gears
 62
7
100
AcDbLine
 10
8.219451
 20
2.510737
 30
0.0
 11
7.796529
 21
2.257929
 31
0.0
  0
LINE
  5
1d7
100
AcDbEntity
  8
gears
 62
7
100
AcDbLine
 10
7.796529
 20
2.257929
 30
0.0
 11
7.914546
 21
1.801126
 31
0.0
  0
ENDSEC
  0
SECTION
  2
OBJECTS
  0
DICTIONARY
  5
C
330
0
100
AcDbDictionary
  3
ACAD_GROUP
350
D
  3
ACAD_MLINESTYLE
350
17
  0
DICTIONARY
  5
D
330
C
100
AcDbDictionary
  0
DICTIONARY
  5
1A
330
C
100
AcDbDictionary
  0
DICTIONARY
  5
17
330
C
100
AcDbDictionary
  3
STANDARD
350
18
  0
DICTIONARY
  5
19
330
C
100
AcDbDictionary
  0
ENDSEC
  0
EOF
