  0
SECTION
  2
HEADER
  9
$ACADVER
  1
AC1014
  9
$HANDSEED
  5
FFFF
  9
$MEASUREMENT
 70
     1
  0
ENDSEC
  0
SECTION
  2
TABLES
  0
TABLE
  2
VPORT
  5
8
330
0
100
AcDbSymbolTable
 70
     4
  0
VPORT
  5
2E
330
8
100
AcDbSymbolTableRecord
100
AcDbViewportTableRecord
  2
*ACTIVE
 70
     0
 10
0.0
 20
0.0
 11
1.0
 21
1.0
 12
210.0
 22
148.5
 13
0.0
 23
0.0
 14
10.0
 24
10.0
 15
10.0
 25
10.0
 16
0.0
 26
0.0
 36
1.0
 17
0.0
 27
0.0
 37
0.0
 40
341.0
 41
1.24
 42
50.0
 43
0.0
 44
0.0
 50
0.0
 51
0.0
 71
     0
 72
   100
 73
     1
 74
     3
 75
     0
 76
     0
 77
     0
 78
     0
  0
ENDTAB
  0
TABLE
  2
LTYPE
  5
5
330
0
100
AcDbSymbolTable
 70
     1
  0
LTYPE
  5
14
330
5
100
AcDbSymbolTableRecord
100
AcDbLinetypeTableRecord
  2
BYBLOCK
 70
     0
  3

 72
    65
 73
     0
 40
0.0
  0
LTYPE
  5
15
330
5
100
AcDbSymbolTableRecord
100
AcDbLinetypeTableRecord
  2
BYLAYER
 70
     0
  3

 72
    65
 73
     0
 40
0.0
  0
LTYPE
  5
16
330
5
100
AcDbSymbolTableRecord
100
AcDbLinetypeTableRecord
  2
CONTINUOUS
 70
     0
  3
Solid line
 72
    65
 73
     0
 40
0.0
  0
ENDTAB
  0
TABLE
  2
LAYER
  5
2
100
AcDbSymbolTable
 70
2
  0
LAYER
  5
50
100
AcDbSymbolTableRecord
100
AcDbLayerTableRecord
  2
0
 70
0
  6
CONTINUOUS
  0
LAYER
  5
51
100
AcDbSymbolTableRecord
100
AcDbLayerTableRecord
  2
gears
 70
0
  6
CONTINUOUS
  0
ENDTAB
  0
TABLE
  2
STYLE
  5
3
330
0
100
AcDbSymbolTable
 70
     1
  0
STYLE
  5
11
330
3
100
AcDbSymbolTableRecord
100
AcDbTextStyleTableRecord
  2
STANDARD
 70
     0
 40
0.0
 41
1.0
 50
0.0
 71
     0
 42
2.5
  3
txt
  4

  0
ENDTAB
  0
TABLE
  2
VIEW
  5
6
330
0
100
AcDbSymbolTable
 70
     0
  0
ENDTAB
  0
TABLE
  2
UCS
  5
7
330
0
100
AcDbSymbolTable
 70
     0
  0
ENDTAB
  0
TABLE
  2
APPID
  5
9
330
0
100
AcDbSymbolTable
 70
     2
  0
APPID
  5
12
330
9
100
AcDbSymbolTableRecord
100
AcDbRegAppTableRecord
  2
ACAD
 70
     0
  0
ENDTAB
  0
TABLE
  2
DIMSTYLE
  5
A
330
0
100
AcDbSymbolTable
 70
     1
  0
DIMSTYLE
105
27
330
A
100
AcDbSymbolTableRecord
100
AcDbDimStyleTableRecord
  2
ISO-25
 70
     0
  3

  4

  5

  6

  7

 40
1.0
 41
2.5
 42
0.625
 43
3.75
 44
1.25
 45
0.0
 46
0.0
 47
0.0
 48
0.0
140
2.5
141
2.5
142
0.0
143
0.03937007874016
144
1.0
145
0.0
146
1.0
147
0.625
 71
     0
 72
     0
 73
     0
 74
     0
 75
     0
 76
     0
 77
     1
 78
     8
170
     0
171
     3
172
     1
173
     0
174
     0
175
     0
176
     0
177
     0
178
     0
270
     2
271
     2
272
     2
273
     2
274
     3
340
11
275
     0
280
     0
281
     0
282
     0
283
     0
284
     8
285
     0
286
     0
287
     3
288
     0
  0
ENDTAB
  0
TABLE
  2
BLOCK_RECORD
  5
1
330
0
100
AcDbSymbolTable
 70
     1
  0
BLOCK_RECORD
  5
1F
330
1
100
AcDbSymbolTableRecord
100
AcDbBlockTableRecord
  2
*MODEL_SPACE
  0
BLOCK_RECORD
  5
1B
330
1
100
AcDbSymbolTableRecord
100
AcDbBlockTableRecord
  2
*PAPER_SPACE
  0
ENDTAB
  0
ENDSEC
  0
SECTION
  2
BLOCKS
  0
BLOCK
  5
20
330
1F
100
AcDbEntity
  8
0
100
AcDbBlockBegin
  2
*MODEL_SPACE
 70
     0
 10
0.0
 20
0.0
 30
0.0
  3
*MODEL_SPACE
  1

  0
ENDBLK
  5
21
330
1F
100
AcDbEntity
  8
0
100
AcDbBlockEnd
  0
BLOCK
  5
1C
330
1B
100
AcDbEntity
 67
     1
  8
0
100
AcDbBlockBegin
  2
*PAPER_SPACE
  1

  0
ENDBLK
  5
1D
330
1B
100
AcDbEntity
 67
     1
  8
0
100
AcDbBlockEnd
  0
ENDSEC
  0
SECTION
  2
ENTITIES
  0
LINE
  5
100
100
AcDbEntity
  8
gears
 62
7
100
AcDbLine
 10
3.799800
 20
0.389587
 30
0.0
 11
4.016973
 21
0.411854
 31
0.0
  0
LINE
  5
101
100
AcDbEntity
  8
gears
 62
7
100
AcDbLine
 10
4.016973
 20
0.411854
 30
0.0
 11
4.280831
 21
0.374524
 31
0.0
  0
LINE
  5
102
100
AcDbEntity
  8
gears
 62
7
100
AcDbLine
 10
4.280831
 20
0.374524
 30
0.0
 11
4.771875
 21
0.162705
 31
0.0
  0
LINE
  5
103
100
AcDbEntity
  8
gears
 62
7
100
AcDbLine
 10
4.771875
 20
0.162705
 30
0.0
 11
4.771875
 21
-0.162703
 31
0.0
  0
LINE
  5
104
100
AcDbEntity
  8
gears
 62
7
100
AcDbLine
 10
4.771875
 20
-0.162703
 30
0.0
 11
4.280831
 21
-0.374522
 31
0.0
  0
LINE
  5
105
100
AcDbEntity
  8
gears
 62
7
100
AcDbLine
 10
4.280831
 20
-0.374522
 30
0.0
 11
4.016973
 21
-0.411851
 31
0.0
  0
LINE
  5
106
100
AcDbEntity
  8
gears
 62
7
100
AcDbLine
 10
4.016973
 20
-0.411851
 30
0.0
 11
3.799800
 21
-0.389584
 31
0.0
  0
LINE
  5
107
100
AcDbEntity
  8
gears
 62
7
100
AcDbLine
 10
3.799800
 20
-0.389584
 30
0.0
 11
3.703890
 21
-0.933516
 31
0.0
  0
LINE
  5
108
100
AcDbEntity
  8
gears
 62
7
100
AcDbLine
 10
3.703890
 20
-0.933516
 30
0.0
 11
3.915582
 21
-0.986871
 31
0.0
  0
LINE
  5
109
100
AcDbEntity
  8
gears
 62
7
100
AcDbLine
 10
3.915582
 20
-0.986871
 30
0.0
 11
4.150761
 21
-1.112191
 31
0.0
  0
LINE
  5
10a
100
AcDbEntity
  8
gears
 62
7
100
AcDbLine
 10
4.150761
 20
-1.112191
 30
0.0
 11
4.539745
 21
-1.479185
 31
0.0
  0
LINE
  5
10b
100
AcDbEntity
  8
gears
 62
7
100
AcDbLine
 10
4.539745
 20
-1.479185
 30
0.0
 11
4.428448
 21
-1.784967
 31
0.0
  0
LINE
  5
10c
100
AcDbEntity
  8
gears
 62
7
100
AcDbLine
 10
4.428448
 20
-1.784967
 30
0.0
 11
3.894571
 21
-1.816068
 31
0.0
  0
LINE
  5
10d
100
AcDbEntity
  8
gears
 62
7
100
AcDbLine
 10
3.894571
 20
-1.816068
 30
0.0
 11
3.633859
 21
-1.760899
 31
0.0
  0
LINE
  5
10e
100
AcDbEntity
  8
gears
 62
7
100
AcDbLine
 10
3.633859
 20
-1.760899
 30
0.0
 11
3.437396
 21
-1.665697
 31
0.0
  0
LINE
  5
10f
100
AcDbEntity
  8
gears
 62
7
100
AcDbLine
 10
3.437396
 20
-1.665697
 30
0.0
 11
3.161236
 21
-2.144024
 31
0.0
  0
LINE
  5
110
100
AcDbEntity
  8
gears
 62
7
100
AcDbLine
 10
3.161236
 20
-2.144024
 30
0.0
 11
3.341915
 21
-2.266562
 31
0.0
  0
LINE
  5
111
100
AcDbEntity
  8
gears
 62
7
100
AcDbLine
 10
3.341915
 20
-2.266562
 30
0.0
 11
3.520048
 21
-2.464761
 31
0.0
  0
LINE
  5
112
100
AcDbEntity
  8
gears
 62
7
100
AcDbLine
 10
3.520048
 20
-2.464761
 30
0.0
 11
3.760052
 21
-2.942662
 31
0.0
  0
LINE
  5
113
100
AcDbEntity
  8
gears
 62
7
100
AcDbLine
 10
3.760052
 20
-2.942662
 30
0.0
 11
3.550883
 21
-3.191940
 31
0.0
  0
LINE
  5
114
100
AcDbEntity
  8
gears
 62
7
100
AcDbLine
 10
3.550883
 20
-3.191940
 30
0.0
 11
3.038568
 21
-3.038567
 31
0.0
  0
LINE
  5
115
100
AcDbEntity
  8
gears
 62
7
100
AcDbLine
 10
3.038568
 20
-3.038567
 30
0.0
 11
2.812446
 21
-2.897557
 31
0.0
  0
LINE
  5
116
100
AcDbEntity
  8
gears
 62
7
100
AcDbLine
 10
2.812446
 20
-2.897557
 30
0.0
 11
2.660393
 21
-2.740901
 31
0.0
  0
LINE
  5
117
100
AcDbEntity
  8
gears
 62
7
100
AcDbLine
 10
2.660393
 20
-2.740901
 30
0.0
 11
2.237291
 21
-3.095928
 31
0.0
  0
LINE
  5
118
100
AcDbEntity
  8
gears
 62
7
100
AcDbLine
 10
2.237291
 20
-3.095928
 30
0.0
 11
2.365161
 21
-3.272873
 31
0.0
  0
LINE
  5
119
100
AcDbEntity
  8
gears
 62
7
100
AcDbLine
 10
2.365161
 20
-3.272873
 30
0.0
 11
2.464762
 21
-3.520046
 31
0.0
  0
LINE
  5
11a
100
AcDbEntity
  8
gears
 62
7
100
AcDbLine
 10
2.464762
 20
-3.520046
 30
0.0
 11
2.526843
 21
-4.051211
 31
0.0
  0
LINE
  5
11b
100
AcDbEntity
  8
gears
 62
7
100
AcDbLine
 10
2.526843
 20
-4.051211
 30
0.0
 11
2.245033
 21
-4.213915
 31
0.0
  0
LINE
  5
11c
100
AcDbEntity
  8
gears
 62
7
100
AcDbLine
 10
2.245033
 20
-4.213915
 30
0.0
 11
1.816069
 21
-3.894569
 31
0.0
  0
LINE
  5
11d
100
AcDbEntity
  8
gears
 62
7
100
AcDbLine
 10
1.816069
 20
-3.894569
 30
0.0
 11
1.651813
 21
-3.684726
 31
0.0
  0
LINE
  5
11e
100
AcDbEntity
  8
gears
 62
7
100
AcDbLine
 10
1.651813
 20
-3.684726
 30
0.0
 11
1.562509
 21
-3.485514
 31
0.0
  0
LINE
  5
11f
100
AcDbEntity
  8
gears
 62
7
100
AcDbLine
 10
1.562509
 20
-3.485514
 30
0.0
 11
1.043494
 21
-3.674419
 31
0.0
  0
LINE
  5
120
100
AcDbEntity
  8
gears
 62
7
100
AcDbLine
 10
1.043494
 20
-3.674419
 30
0.0
 11
1.103136
 21
-3.884429
 31
0.0
  0
LINE
  5
121
100
AcDbEntity
  8
gears
 62
7
100
AcDbLine
 10
1.103136
 20
-3.884429
 30
0.0
 11
1.112193
 21
-4.150759
 31
0.0
  0
LINE
  5
122
100
AcDbEntity
  8
gears
 62
7
100
AcDbLine
 10
1.112193
 20
-4.150759
 30
0.0
 11
0.988859
 21
-4.671126
 31
0.0
  0
LINE
  5
123
100
AcDbEntity
  8
gears
 62
7
100
AcDbLine
 10
0.988859
 20
-4.671126
 30
0.0
 11
0.668395
 21
-4.727633
 31
0.0
  0
LINE
  5
124
100
AcDbEntity
  8
gears
 62
7
100
AcDbLine
 10
0.668395
 20
-4.727633
 30
0.0
 11
0.374523
 21
-4.280830
 31
0.0
  0
LINE
  5
125
100
AcDbEntity
  8
gears
 62
7
100
AcDbLine
 10
0.374523
 20
-4.280830
 30
0.0
 11
0.291945
 21
-4.027462
 31
0.0
  0
LINE
  5
126
100
AcDbEntity
  8
gears
 62
7
100
AcDbLine
 10
0.291945
 20
-4.027462
 30
0.0
 11
0.276163
 21
-3.809722
 31
0.0
  0
LINE
  5
127
100
AcDbEntity
  8
gears
 62
7
100
AcDbLine
 10
0.276163
 20
-3.809722
 30
0.0
 11
-0.276163
 21
-3.809722
 31
0.0
  0
LINE
  5
128
100
AcDbEntity
  8
gears
 62
7
100
AcDbLine
 10
-0.276163
 20
-3.809722
 30
0.0
 11
-0.291945
 21
-4.027462
 31
0.0
  0
LINE
  5
129
100
AcDbEntity
  8
gears
 62
7
100
AcDbLine
 10
-0.291945
 20
-4.027462
 30
0.0
 11
-0.374523
 21
-4.280830
 31
0.0
  0
LINE
  5
12a
100
AcDbEntity
  8
gears
 62
7
100
AcDbLine
 10
-0.374523
 20
-4.280830
 30
0.0
 11
-0.668395
 21
-4.727633
 31
0.0
  0
LINE
  5
12b
100
AcDbEntity
  8
gears
 62
7
100
AcDbLine
 10
-0.668395
 20
-4.727633
 30
0.0
 11
-0.988859
 21
-4.671126
 31
0.0
  0
LINE
  5
12c
100
AcDbEntity
  8
gears
 62
7
100
AcDbLine
 10
-0.988859
 20
-4.671126
 30
0.0
 11
-1.112193
 21
-4.150759
 31
0.0
  0
LINE
  5
12d
100
AcDbEntity
  8
gears
 62
7
100
AcDbLine
 10
-1.112193
 20
-4.150759
 30
0.0
 11
-1.103136
 21
-3.884429
 31
0.0
  0
LINE
  5
12e
100
AcDbEntity
  8
gears
 62
7
100
AcDbLine
 10
-1.103136
 20
-3.884429
 30
0.0
 11
-1.043494
 21
-3.674419
 31
0.0
  0
LINE
  5
12f
100
AcDbEntity
  8
gears
 62
7
100
AcDbLine
 10
-1.043494
 20
-3.674419
 30
0.0
 11
-1.562509
 21
-3.485514
 31
0.0
  0
LINE
  5
130
100
AcDbEntity
  8
gears
 62
7
100
AcDbLine
 10
-1.562509
 20
-3.485514
 30
0.0
 11
-1.651813
 21
-3.684726
 31
0.0
  0
LINE
  5
131
100
AcDbEntity
  8
gears
 62
7
100
AcDbLine
 10
-1.651813
 20
-3.684726
 30
0.0
 11
-1.816069
 21
-3.894569
 31
0.0
  0
LINE
  5
132
100
AcDbEntity
  8
gears
 62
7
100
AcDbLine
 10
-1.816069
 20
-3.894569
 30
0.0
 11
-2.245033
 21
-4.213915
 31
0.0
  0
LINE
  5
133
100
AcDbEntity
  8
gears
 62
7
100
AcDbLine
 10
-2.245033
 20
-4.213915
 30
0.0
 11
-2.526843
 21
-4.051211
 31
0.0
  0
LINE
  5
134
100
AcDbEntity
  8
gears
 62
7
100
AcDbLine
 10
-2.526843
 20
-4.051211
 30
0.0
 11
-2.464762
 21
-3.520046
 31
0.0
  0
LINE
  5
135
100
AcDbEntity
  8
gears
 62
7
100
AcDbLine
 10
-2.464762
 20
-3.520046
 30
0.0
 11
-2.365161
 21
-3.272873
 31
0.0
  0
LINE
  5
136
100
AcDbEntity
  8
gears
 62
7
100
AcDbLine
 10
-2.365161
 20
-3.272873
 30
0.0
 11
-2.237291
 21
-3.095928
 31
0.0
  0
LINE
  5
137
100
AcDbEntity
  8
gears
 62
7
100
AcDbLine
 10
-2.237291
 20
-3.095928
 30
0.0
 11
-2.660393
 21
-2.740901
 31
0.0
  0
LINE
  5
138
100
AcDbEntity
  8
gears
 62
7
100
AcDbLine
 10
-2.660393
 20
-2.740901
 30
0.0
 11
-2.812446
 21
-2.897557
 31
0.0
  0
LINE
  5
139
100
AcDbEntity
  8
gears
 62
7
100
AcDbLine
 10
-2.812446
 20
-2.897557
 30
0.0
 11
-3.038568
 21
-3.038567
 31
0.0
  0
LINE
  5
13a
100
AcDbEntity
  8
gears
 62
7
100
AcDbLine
 10
-3.038568
 20
-3.038567
 30
0.0
 11
-3.550883
 21
-3.191940
 31
0.0
  0
LINE
  5
13b
100
AcDbEntity
  8
gears
 62
7
100
AcDbLine
 10
-3.550883
 20
-3.191940
 30
0.0
 11
-3.760052
 21
-2.942662
 31
0.0
  0
LINE
  5
13c
100
AcDbEntity
  8
gears
 62
7
100
AcDbLine
 10
-3.760052
 20
-2.942662
 30
0.0
 11
-3.520048
 21
-2.464761
 31
0.0
  0
LINE
  5
13d
100
AcDbEntity
  8
gears
 62
7
100
AcDbLine
 10
-3.520048
 20
-2.464761
 30
0.0
 11
-3.341915
 21
-2.266562
 31
0.0
  0
LINE
  5
13e
100
AcDbEntity
  8
gears
 62
7
100
AcDbLine
 10
-3.341915
 20
-2.266562
 30
0.0
 11
-3.161236
 21
-2.144024
 31
0.0
  0
LINE
  5
13f
100
AcDbEntity
  8
gears
 62
7
100
AcDbLine
 10
-3.161236
 20
-2.144024
 30
0.0
 11
-3.437396
 21
-1.665697
 31
0.0
  0
LINE
  5
140
100
AcDbEntity
  8
gears
 62
7
100
AcDbLine
 10
-3.437396
 20
-1.665697
 30
0.0
 11
-3.633859
 21
-1.760899
 31
0.0
  0
LINE
  5
141
100
AcDbEntity
  8
gears
 62
7
100
AcDbLine
 10
-3.633859
 20
-1.760899
 30
0.0
 11
-3.894571
 21
-1.816068
 31
0.0
  0
LINE
  5
142
100
AcDbEntity
  8
gears
 62
7
100
AcDbLine
 10
-3.894571
 20
-1.816068
 30
0.0
 11
-4.428448
 21
-1.784967
 31
0.0
  0
LINE
  5
143
100
AcDbEntity
  8
gears
 62
7
100
AcDbLine
 10
-4.428448
 20
-1.784967
 30
0.0
 11
-4.539745
 21
-1.479185
 31
0.0
  0
LINE
  5
144
100
AcDbEntity
  8
gears
 62
7
100
AcDbLine
 10
-4.539745
 20
-1.479185
 30
0.0
 11
-4.150761
 21
-1.112191
 31
0.0
  0
LINE
  5
145
100
AcDbEntity
  8
gears
 62
7
100
AcDbLine
 10
-4.150761
 20
-1.112191
 30
0.0
 11
-3.915582
 21
-0.986871
 31
0.0
  0
LINE
  5
146
100
AcDbEntity
  8
gears
 62
7
100
AcDbLine
 10
-3.915582
 20
-0.986871
 30
0.0
 11
-3.703890
 21
-0.933516
 31
0.0
  0
LINE
  5
147
100
AcDbEntity
  8
gears
 62
7
100
AcDbLine
 10
-3.703890
 20
-0.933516
 30
0.0
 11
-3.799800
 21
-0.389584
 31
0.0
  0
LINE
  5
148
100
AcDbEntity
  8
gears
 62
7
100
AcDbLine
 10
-3.799800
 20
-0.389584
 30
0.0
 11
-4.016973
 21
-0.411851
 31
0.0
  0
LINE
  5
149
100
AcDbEntity
  8
gears
 62
7
100
AcDbLine
 10
-4.016973
 20
-0.411851
 30
0.0
 11
-4.280831
 21
-0.374522
 31
0.0
  0
LINE
  5
14a
100
AcDbEntity
  8
gears
 62
7
100
AcDbLine
 10
-4.280831
 20
-0.374522
 30
0.0
 11
-4.771875
 21
-0.162703
 31
0.0
  0
LINE
  5
14b
100
AcDbEntity
  8
gears
 62
7
100
AcDbLine
 10
-4.771875
 20
-0.162703
 30
0.0
 11
-4.771875
 21
0.162705
 31
0.0
  0
LINE
  5
14c
100
AcDbEntity
  8
gears
 62
7
100
AcDbLine
 10
-4.771875
 20
0.162705
 30
0.0
 11
-4.280831
 21
0.374524
 31
0.0
  0
LINE
  5
14d
100
AcDbEntity
  8
gears
 62
7
100
AcDbLine
 10
-4.280831
 20
0.374524
 30
0.0
 11
-4.016973
 21
0.411854
 31
0.0
  0
LINE
  5
14e
100
AcDbEntity
  8
gears
 62
7
100
AcDbLine
 10
-4.016973
 20
0.411854
 30
0.0
 11
-3.799800
 21
0.389587
 31
0.0
  0
LINE
  5
14f
100
AcDbEntity
  8
gears
 62
7
100
AcDbLine
 10
-3.799800
 20
0.389587
 30
0.0
 11
-3.703890
 21
0.933519
 31
0.0
  0
LINE
  5
150
100
AcDbEntity
  8
gears
 62
7
100
AcDbLine
 10
-3.703890
 20
0.933519
 30
0.0
 11
-3.915582
 21
0.986873
 31
0.0
  0
LINE
  5
151
100
AcDbEntity
  8
gears
 62
7
100
AcDbLine
 10
-3.915582
 20
0.986873
 30
0.0
 11
-4.150761
 21
1.112194
 31
0.0
  0
LINE
  5
152
100
AcDbEntity
  8
gears
 62
7
100
AcDbLine
 10
-4.150761
 20
1.112194
 30
0.0
 11
-4.539745
 21
1.479187
 31
0.0
  0
LINE
  5
153
100
AcDbEntity
  8
gears
 62
7
100
AcDbLine
 10
-4.539745
 20
1.479187
 30
0.0
 11
-4.428448
 21
1.784969
 31
0.0
  0
LINE
  5
154
100
AcDbEntity
  8
gears
 62
7
100
AcDbLine
 10
-4.428448
 20
1.784969
 30
0.0
 11
-3.894571
 21
1.816070
 31
0.0
  0
LINE
  5
155
100
AcDbEntity
  8
gears
 62
7
100
AcDbLine
 10
-3.894571
 20
1.816070
 30
0.0
 11
-3.633859
 21
1.760901
 31
0.0
  0
LINE
  5
156
100
AcDbEntity
  8
gears
 62
7
100
AcDbLine
 10
-3.633859
 20
1.760901
 30
0.0
 11
-3.437396
 21
1.665699
 31
0.0
  0
LINE
  5
157
100
AcDbEntity
  8
gears
 62
7
100
AcDbLine
 10
-3.437396
 20
1.665699
 30
0.0
 11
-3.161236
 21
2.144027
 31
0.0
  0
LINE
  5
158
100
AcDbEntity
  8
gears
 62
7
100
AcDbLine
 10
-3.161236
 20
2.144027
 30
0.0
 11
-3.341915
 21
2.266565
 31
0.0
  0
LINE
  5
159
100
AcDbEntity
  8
gears
 62
7
100
AcDbLine
 10
-3.341915
 20
2.266565
 30
0.0
 11
-3.520048
 21
2.464764
 31
0.0
  0
LINE
  5
15a
100
AcDbEntity
  8
gears
 62
7
100
AcDbLine
 10
-3.520048
 20
2.464764
 30
0.0
 11
-3.760052
 21
2.942665
 31
0.0
  0
LINE
  5
15b
100
AcDbEntity
  8
gears
 62
7
100
AcDbLine
 10
-3.760052
 20
2.942665
 30
0.0
 11
-3.550883
 21
3.191943
 31
0.0
  0
LINE
  5
15c
100
AcDbEntity
  8
gears
 62
7
100
AcDbLine
 10
-3.550883
 20
3.191943
 30
0.0
 11
-3.038568
 21
3.038569
 31
0.0
  0
LINE
  5
15d
100
AcDbEntity
  8
gears
 62
7
100
AcDbLine
 10
-3.038568
 20
3.038569
 30
0.0
 11
-2.812446
 21
2.897560
 31
0.0
  0
LINE
  5
15e
100
AcDbEntity
  8
gears
 62
7
100
AcDbLine
 10
-2.812446
 20
2.897560
 30
0.0
 11
-2.660393
 21
2.740904
 31
0.0
  0
LINE
  5
15f
100
AcDbEntity
  8
gears
 62
7
100
AcDbLine
 10
-2.660393
 20
2.740904
 30
0.0
 11
-2.237291
 21
3.095931
 31
0.0
  0
LINE
  5
160
100
AcDbEntity
  8
gears
 62
7
100
AcDbLine
 10
-2.237291
 20
3.095931
 30
0.0
 11
-2.365161
 21
3.272876
 31
0.0
  0
LINE
  5
161
100
AcDbEntity
  8
gears
 62
7
100
AcDbLine
 10
-2.365161
 20
3.272876
 30
0.0
 11
-2.464762
 21
3.520049
 31
0.0
  0
LINE
  5
162
100
AcDbEntity
  8
gears
 62
7
100
AcDbLine
 10
-2.464762
 20
3.520049
 30
0.0
 11
-2.526843
 21
4.051214
 31
0.0
  0
LINE
  5
163
100
AcDbEntity
  8
gears
 62
7
100
AcDbLine
 10
-2.526843
 20
4.051214
 30
0.0
 11
-2.245033
 21
4.213918
 31
0.0
  0
LINE
  5
164
100
AcDbEntity
  8
gears
 62
7
100
AcDbLine
 10
-2.245033
 20
4.213918
 30
0.0
 11
-1.816069
 21
3.894572
 31
0.0
  0
LINE
  5
165
100
AcDbEntity
  8
gears
 62
7
100
AcDbLine
 10
-1.816069
 20
3.894572
 30
0.0
 11
-1.651813
 21
3.684729
 31
0.0
  0
LINE
  5
166
100
AcDbEntity
  8
gears
 62
7
100
AcDbLine
 10
-1.651813
 20
3.684729
 30
0.0
 11
-1.562509
 21
3.485516
 31
0.0
  0
LINE
  5
167
100
AcDbEntity
  8
gears
 62
7
100
AcDbLine
 10
-1.562509
 20
3.485516
 30
0.0
 11
-1.043494
 21
3.674422
 31
0.0
  0
LINE
  5
168
100
AcDbEntity
  8
gears
 62
7
100
AcDbLine
 10
-1.043494
 20
3.674422
 30
0.0
 11
-1.103136
 21
3.884432
 31
0.0
  0
LINE
  5
169
100
AcDbEntity
  8
gears
 62
7
100
AcDbLine
 10
-1.103136
 20
3.884432
 30
0.0
 11
-1.112193
 21
4.150762
 31
0.0
  0
LINE
  5
16a
100
AcDbEntity
  8
gears
 62
7
100
AcDbLine
 10
-1.112193
 20
4.150762
 30
0.0
 11
-0.988859
 21
4.671129
 31
0.0
  0
LINE
  5
16b
100
AcDbEntity
  8
gears
 62
7
100
AcDbLine
 10
-0.988859
 20
4.671129
 30
0.0
 11
-0.668395
 21
4.727636
 31
0.0
  0
LINE
  5
16c
100
AcDbEntity
  8
gears
 62
7
100
AcDbLine
 10
-0.668395
 20
4.727636
 30
0.0
 11
-0.374523
 21
4.280833
 31
0.0
  0
LINE
  5
16d
100
AcDbEntity
  8
gears
 62
7
100
AcDbLine
 10
-0.374523
 20
4.280833
 30
0.0
 11
-0.291945
 21
4.027465
 31
0.0
  0
LINE
  5
16e
100
AcDbEntity
  8
gears
 62
7
100
AcDbLine
 10
-0.291945
 20
4.027465
 30
0.0
 11
-0.276163
 21
3.809725
 31
0.0
  0
LINE
  5
16f
100
AcDbEntity
  8
gears
 62
7
100
AcDbLine
 10
-0.276163
 20
3.809725
 30
0.0
 11
0.276163
 21
3.809725
 31
0.0
  0
LINE
  5
170
100
AcDbEntity
  8
gears
 62
7
100
AcDbLine
 10
0.276163
 20
3.809725
 30
0.0
 11
0.291945
 21
4.027465
 31
0.0
  0
LINE
  5
171
100
AcDbEntity
  8
gears
 62
7
100
AcDbLine
 10
0.291945
 20
4.027465
 30
0.0
 11
0.374523
 21
4.280833
 31
0.0
  0
LINE
  5
172
100
AcDbEntity
  8
gears
 62
7
100
AcDbLine
 10
0.374523
 20
4.280833
 30
0.0
 11
0.668395
 21
4.727636
 31
0.0
  0
LINE
  5
173
100
AcDbEntity
  8
gears
 62
7
100
AcDbLine
 10
0.668395
 20
4.727636
 30
0.0
 11
0.988859
 21
4.671129
 31
0.0
  0
LINE
  5
174
100
AcDbEntity
  8
gears
 62
7
100
AcDbLine
 10
0.988859
 20
4.671129
 30
0.0
 11
1.112193
 21
4.150762
 31
0.0
  0
LINE
  5
175
100
AcDbEntity
  8
gears
 62
7
100
AcDbLine
 10
1.112193
 20
4.150762
 30
0.0
 11
1.103136
 21
3.884432
 31
0.0
  0
LINE
  5
176
100
AcDbEntity
  8
gears
 62
7
100
AcDbLine
 10
1.103136
 20
3.884432
 30
0.0
 11
1.043494
 21
3.674422
 31
0.0
  0
LINE
  5
177
100
AcDbEntity
  8
gears
 62
7
100
AcDbLine
 10
1.043494
 20
3.674422
 30
0.0
 11
1.562509
 21
3.485516
 31
0.0
  0
LINE
  5
178
100
AcDbEntity
  8
gears
 62
7
100
AcDbLine
 10
1.562509
 20
3.485516
 30
0.0
 11
1.651813
 21
3.684729
 31
0.0
  0
LINE
  5
179
100
AcDbEntity
  8
gears
 62
7
100
AcDbLine
 10
1.651813
 20
3.684729
 30
0.0
 11
1.816069
 21
3.894572
 31
0.0
  0
LINE
  5
17a
100
AcDbEntity
  8
gears
 62
7
100
AcDbLine
 10
1.816069
 20
3.894572
 30
0.0
 11
2.245033
 21
4.213918
 31
0.0
  0
LINE
  5
17b
100
AcDbEntity
  8
gears
 62
7
100
AcDbLine
 10
2.245033
 20
4.213918
 30
0.0
 11
2.526843
 21
4.051214
 31
0.0
  0
LINE
  5
17c
100
AcDbEntity
  8
gears
 62
7
100
AcDbLine
 10
2.526843
 20
4.051214
 30
0.0
 11
2.464762
 21
3.520049
 31
0.0
  0
LINE
  5
17d
100
AcDbEntity
  8
gears
 62
7
100
AcDbLine
 10
2.464762
 20
3.520049
 30
0.0
 11
2.365161
 21
3.272876
 31
0.0
  0
LINE
  5
17e
100
AcDbEntity
  8
gears
 62
7
100
AcDbLine
 10
2.365161
 20
3.272876
 30
0.0
 11
2.237291
 21
3.095931
 31
0.0
  0
LINE
  5
17f
100
AcDbEntity
  8
gears
 62
7
100
AcDbLine
 10
2.237291
 20
3.095931
 30
0.0
 11
2.660393
 21
2.740904
 31
0.0
  0
LINE
  5
180
100
AcDbEntity
  8
gears
 62
7
100
AcDbLine
 10
2.660393
 20
2.740904
 30
0.0
 11
2.812446
 21
2.897560
 31
0.0
  0
LINE
  5
181
100
AcDbEntity
  8
gears
 62
7
100
AcDbLine
 10
2.812446
 20
2.897560
 30
0.0
 11
3.038568
 21
3.038569
 31
0.0
  0
LINE
  5
182
100
AcDbEntity
  8
gears
 62
7
100
AcDbLine
 10
3.038568
 20
3.038569
 30
0.0
 11
3.550883
 21
3.191943
 31
0.0
  0
LINE
  5
183
100
AcDbEntity
  8
gears
 62
7
100
AcDbLine
 10
3.550883
 20
3.191943
 30
0.0
 11
3.760052
 21
2.942665
 31
0.0
  0
LINE
  5
184
100
AcDbEntity
  8
gears
 62
7
100
AcDbLine
 10
3.760052
 20
2.942665
 30
0.0
 11
3.520048
 21
2.464764
 31
0.0
  0
LINE
  5
185
100
AcDbEntity
  8
gears
 62
7
100
AcDbLine
 10
3.520048
 20
2.464764
 30
0.0
 11
3.341915
 21
2.266565
 31
0.0
  0
LINE
  5
186
100
AcDbEntity
  8
gears
 62
7
100
AcDbLine
 10
3.341915
 20
2.266565
 30
0.0
 11
3.161236
 21
2.144027
 31
0.0
  0
LINE
  5
187
100
AcDbEntity
  8
gears
 62
7
100
AcDbLine
 10
3.161236
 20
2.144027
 30
0.0
 11
3.437396
 21
1.665699
 31
0.0
  0
LINE
  5
188
100
AcDbEntity
  8
gears
 62
7
100
AcDbLine
 10
3.437396
 20
1.665699
 30
0.0
 11
3.633859
 21
1.760901
 31
0.0
  0
LINE
  5
189
100
AcDbEntity
  8
gears
 62
7
100
AcDbLine
 10
3.633859
 20
1.760901
 30
0.0
 11
3.894571
 21
1.816070
 31
0.0
  0
LINE
  5
18a
100
AcDbEntity
  8
gears
 62
7
100
AcDbLine
 10
3.894571
 20
1.816070
 30
0.0
 11
4.428448
 21
1.784969
 31
0.0
  0
LINE
  5
18b
100
AcDbEntity
  8
gears
 62
7
100
AcDbLine
 10
4.428448
 20
1.784969
 30
0.0
 11
4.539745
 21
1.479187
 31
0.0
  0
LINE
  5
18c
100
AcDbEntity
  8
gears
 62
7
100
AcDbLine
 10
4.539745
 20
1.479187
 30
0.0
 11
4.150761
 21
1.112194
 31
0.0
  0
LINE
  5
18d
100
AcDbEntity
  8
gears
 62
7
100
AcDbLine
 10
4.150761
 20
1.112194
 30
0.0
 11
3.915582
 21
0.986873
 31
0.0
  0
LINE
  5
18e
100
AcDbEntity
  8
gears
 62
7
100
AcDbLine
 10
3.915582
 20
0.986873
 30
0.0
 11
3.703890
 21
0.933519
 31
0.0
  0
LINE
  5
18f
100
AcDbEntity
  8
gears
 62
7
100
AcDbLine
 10
3.703890
 20
0.933519
 30
0.0
 11
3.799800
 21
0.389587
 31
0.0
  0
ENDSEC
  0
SECTION
  2
OBJECTS
  0
DICTIONARY
  5
C
330
0
100
AcDbDictionary
  3
ACAD_GROUP
350
D
  3
ACAD_MLINESTYLE
350
17
  0
DICTIONARY
  5
D
330
C
100
AcDbDictionary
  0
DICTIONARY
  5
1A
330
C
100
AcDbDictionary
  0
DICTIONARY
  5
17
330
C
100
AcDbDictionary
  3
STANDARD
350
18
  0
DICTIONARY
  5
19
330
C
100
AcDbDictionary
  0
ENDSEC
  0
EOF
