<?xml version="1.0" encoding="UTF-8" standalone="no"?>
<!-- Created with Inkscape (http://www.inkscape.org/) -->

<svg
   xmlns:dc="http://purl.org/dc/elements/1.1/"
   xmlns:cc="http://creativecommons.org/ns#"
   xmlns:rdf="http://www.w3.org/1999/02/22-rdf-syntax-ns#"
   xmlns:svg="http://www.w3.org/2000/svg"
   xmlns="http://www.w3.org/2000/svg"
   xmlns:sodipodi="http://sodipodi.sourceforge.net/DTD/sodipodi-0.dtd"
   xmlns:inkscape="http://www.inkscape.org/namespaces/inkscape"
   width="210mm"
   height="297mm"
   viewBox="0 0 744.09448819 1052.3622047"
   id="svg2"
   version="1.1"
   inkscape:version="0.91 r13725"
   sodipodi:docname="rack-pa20-cp1.5-l160.svg"
   inkscape:label="123">
  <sodipodi:namedview
     id="base"
     pagecolor="#ffffff"
     bordercolor="#666666"
     borderopacity="1.0"
     inkscape:pageopacity="0.0"
     inkscape:pageshadow="2"
     inkscape:zoom="8"
     inkscape:cx="75.15489"
     inkscape:cy="-3.0485822"
     inkscape:document-units="mm"
     inkscape:current-layer="layer1"
     showgrid="true"
     inkscape:window-width="1839"
     inkscape:window-height="1050"
     inkscape:window-x="81"
     inkscape:window-y="30"
     inkscape:window-maximized="1"
     inkscape:snap-bbox="true"
     inkscape:snap-bbox-midpoints="true"
     showguides="true"
     inkscape:guide-bbox="true"
     inkscape:snap-global="true"
     inkscape:bbox-nodes="true"
     inkscape:object-paths="false"
     inkscape:object-nodes="true">
    <inkscape:grid
       type="xygrid"
       id="grid3375"
       spacingx="0.35433071"
       spacingy="0.35433072" />
    <sodipodi:guide
       position="170.07874,0"
       orientation="0,1"
       id="guide4148" />
    <sodipodi:guide
       position="0,162.99213"
       orientation="1,0"
       id="guide4150" />
    <sodipodi:guide
       position="8.8582678,8.858268"
       orientation="0,1"
       id="guide4137" />
    <sodipodi:guide
       position="8.8582678,8.858268"
       orientation="1,0"
       id="guide4139" />
    <sodipodi:guide
       position="558.07087,-1.7716536"
       orientation="1,0"
       id="guide4141" />
  </sodipodi:namedview>
  <defs
     id="defs4" />
  <metadata
     id="metadata7">
    <rdf:RDF>
      <cc:Work
         rdf:about="">
        <dc:format>image/svg+xml</dc:format>
        <dc:type
           rdf:resource="http://purl.org/dc/dcmitype/StillImage" />
        <dc:title></dc:title>
      </cc:Work>
    </rdf:RDF>
  </metadata>
  <g
     inkscape:label="gears"
     inkscape:groupmode="layer"
     id="layer1"
     style="display:inline">
    <path
       style="display:inline;fill:#7137c8;fill-opacity:1;stroke:none"
       d="m 0,1002.7559 0,49.6054 15.945312,0 -4.3e-4,-4.2511 533.267578,0.3544 4.3e-4,3.8967 17.7168,0 0,-17.7148 -18.78125,0 0.01,-0.1621 -0.27343,-1.5489 -0.70508,-1.7187 -1.24805,0 -0.70508,1.7187 -0.27344,1.5489 0.0117,0.1621 -2.13281,0 0.0117,-0.1621 -0.27539,-1.5489 -0.70508,-1.7187 -1.24609,0 -0.70508,1.7187 -0.27344,1.5489 0.01,0.1621 -2.13086,0 0.01,-0.1621 -0.27343,-1.5489 -0.70508,-1.7187 -1.2461,0 -0.70507,1.7187 -0.27539,1.5489 0.0117,0.1621 -2.13086,0 0.0117,-0.1621 -0.27539,-1.5489 -0.70507,-1.7187 -1.24805,0 -0.70313,1.7187 -0.27539,1.5489 0.0117,0.1621 -2.13086,0 0.01,-0.1621 -0.27539,-1.5489 -0.70313,-1.7187 -1.24804,0 -0.70313,1.7187 -0.27539,1.5489 0.0117,0.1621 -2.13086,0 0.0117,-0.1621 -0.27539,-1.5489 -0.70508,-1.7187 -1.24609,0 -0.70508,1.7187 -0.27344,1.5489 0.01,0.1621 -2.13085,0 0.0117,-0.1621 -0.27539,-1.5489 -0.70507,-1.7187 -1.2461,0 -0.70508,1.7187 -0.27539,1.5489 0.0117,0.1621 -2.13086,0 0.01,-0.1621 -0.27344,-1.5489 -0.70508,-1.7187 -1.24804,0 -0.70313,1.7187 -0.27539,1.5489 0.0117,0.1621 -2.13086,0 0.01,-0.1621 -0.27539,-1.5489 -0.70312,-1.7187 -1.24805,0 -0.70508,1.7187 -0.27343,1.5489 0.01,0.1621 -2.13086,0 0.0117,-0.1621 -0.27539,-1.5489 -0.70312,-1.7187 -1.24805,0 -0.70508,1.7187 -0.27539,1.5489 0.0117,0.1621 -2.13086,0 0.0117,-0.1621 -0.27539,-1.5489 -0.70508,-1.7187 -1.24805,0 -0.70312,1.7187 -0.27539,1.5489 0.0117,0.1621 -2.13086,0 0.01,-0.1621 -0.27343,-1.5489 -0.70508,-1.7187 -1.24805,0 -0.70313,1.7187 -0.27539,1.5489 0.01,0.1621 -2.13086,0 0.0117,-0.1621 -0.27539,-1.5489 -0.70313,-1.7187 -1.24804,0 -0.70508,1.7187 -0.27344,1.5489 0.01,0.1621 -2.13086,0 0.0117,-0.1621 -0.27539,-1.5489 -0.70313,-1.7187 -1.24805,0 -0.70507,1.7187 -0.27539,1.5489 0.0117,0.1621 -2.13086,0 0.01,-0.1621 -0.27344,-1.5489 -0.70508,-1.7187 -1.24804,0 -0.70313,1.7187 -0.27539,1.5489 0.0117,0.1621 -2.13086,0 0.0117,-0.1621 -0.27539,-1.5489 -0.70313,-1.7187 -1.24804,0 -0.70313,1.7187 -0.27539,1.5489 0.01,0.1621 -2.13086,0 0.0117,-0.1621 -0.27539,-1.5489 -0.70313,-1.7187 -1.24805,0 -0.70507,1.7187 -0.27539,1.5489 0.0117,0.1621 -2.13085,0 0.0117,-0.1621 -0.27539,-1.5489 -0.70508,-1.7187 -1.24609,0 -0.70508,1.7187 -0.27539,1.5489 0.0117,0.1621 -2.13086,0 0.01,-0.1621 -0.27344,-1.5489 -0.70508,-1.7187 -1.24609,0 -0.70508,1.7187 -0.27539,1.5489 0.0117,0.1621 -2.13281,0 0.0117,-0.1621 -0.27539,-1.5489 -0.70312,-1.7187 -1.24805,0 -0.70508,1.7187 -0.27343,1.5489 0.01,0.1621 -2.13086,0 0.0117,-0.1621 -0.27344,-1.5489 -0.70507,-1.7187 -1.24805,0 -0.70508,1.7187 -0.27344,1.5489 0.01,0.1621 -2.13086,0 0.0117,-0.1621 -0.27539,-1.5489 -0.70508,-1.7187 -1.24609,0 -0.70508,1.7187 -0.27344,1.5489 0.01,0.1621 -2.13086,0 0.01,-0.1621 -0.27344,-1.5489 -0.70507,-1.7187 -1.2461,0 -0.70508,1.7187 -0.27539,1.5489 0.01,0.1621 -2.13086,0 0.0117,-0.1621 -0.27344,-1.5489 -0.70508,-1.7187 -1.24804,0 -0.70508,1.7187 -0.27344,1.5489 0.0117,0.1621 -2.13281,0 0.0117,-0.1621 -0.2754,-1.5489 -0.70507,-1.7187 -1.2461,0 -0.70507,1.7187 -0.27344,1.5489 0.01,0.1621 -2.13086,0 0.01,-0.1621 -0.27149,-1.5489 -0.70703,-1.7187 -1.24609,0 -0.70312,1.7187 -0.27735,1.5489 0.0117,0.1621 -2.13086,0 0.0117,-0.1621 -0.27344,-1.5489 -0.70508,-1.7187 -1.24804,0 -0.70508,1.7187 -0.27344,1.5489 0.0117,0.1621 -2.13086,0 0.01,-0.1621 -0.27344,-1.5489 -0.70508,-1.7187 -1.24805,0 -0.70312,1.7187 -0.27539,1.5489 0.0117,0.1621 -2.13282,0 0.0117,-0.1621 -0.27539,-1.5489 -0.70508,-1.7187 -1.24609,0 -0.70508,1.7187 -0.27344,1.5489 0.01,0.1621 -2.13086,0 0.0117,-0.1621 -0.27539,-1.5489 -0.70508,-1.7187 -1.24609,0 -0.70508,1.7187 -0.27539,1.5489 0.0117,0.1621 -2.13086,0 0.0117,-0.1621 -0.27539,-1.5489 -0.70508,-1.7187 -1.24805,0 -0.70312,1.7187 -0.27539,1.5489 0.0117,0.1621 -2.13086,0 0.01,-0.1621 -0.27539,-1.5489 -0.70312,-1.7187 -1.24805,0 -0.70313,1.7187 -0.27539,1.5489 0.01,0.1621 -2.13086,0 0.0117,-0.1621 -0.27539,-1.5489 -0.70313,-1.7187 -1.24804,0 -0.70508,1.7187 -0.27539,1.5489 0.0117,0.1621 -2.13085,0 0.0117,-0.1621 -0.27539,-1.5489 -0.70507,-1.7187 -1.24805,0 -0.70313,1.7187 -0.27539,1.5489 0.0117,0.1621 -2.13086,0 0.01,-0.1621 -0.27344,-1.5489 -0.70508,-1.7187 -1.24804,0 -0.70313,1.7187 -0.27539,1.5489 0.0117,0.1621 -2.13281,0 0.0117,-0.1621 -0.27539,-1.5489 -0.70312,-1.7187 -1.24805,0 -0.70508,1.7187 -0.27343,1.5489 0.01,0.1621 -2.13086,0 0.0117,-0.1621 -0.27539,-1.5489 -0.70312,-1.7187 -1.24805,0 -0.70508,1.7187 -0.27539,1.5489 0.0117,0.1621 -2.13086,0 0.0117,-0.1621 -0.27539,-1.5489 -0.70508,-1.7187 -1.24805,0 -0.70312,1.7187 -0.27539,1.5489 0.0117,0.1621 -2.13086,0 0.01,-0.1621 -0.27539,-1.5489 -0.70312,-1.7187 -1.24805,0 -0.70313,1.7187 -0.27539,1.5489 0.01,0.1621 -2.13086,0 0.0117,-0.1621 -0.27539,-1.5489 -0.70313,-1.7187 -1.24804,0 -0.70508,1.7187 -0.27344,1.5489 0.0117,0.1621 -2.13086,0 0.0117,-0.1621 -0.27539,-1.5489 -0.70508,-1.7187 -1.24805,0 -0.70312,1.7187 -0.27539,1.5489 0.01,0.1621 -2.1289,0 0.01,-0.1621 -0.27343,-1.5489 -0.70508,-1.7187 -1.24805,0 -0.70312,1.7187 -0.27539,1.5489 0.0117,0.1621 -2.13086,0 0.01,-0.1621 -0.27539,-1.5489 -0.70313,-1.7187 -1.24804,0 -0.70508,1.7187 -0.27344,1.5489 0.01,0.1621 -2.13086,0 0.0117,-0.1621 -0.27539,-1.5489 -0.70313,-1.7187 -1.24805,0 -0.70507,1.7187 -0.27539,1.5489 0.0117,0.1621 -2.13085,0 0.0117,-0.1621 -0.27539,-1.5489 -0.70508,-1.7187 -1.24609,0 -0.70508,1.7187 -0.27539,1.5489 0.0117,0.1621 -2.13086,0 0.01,-0.1621 -0.27344,-1.5489 -0.70508,-1.7187 -1.24609,0 -0.70508,1.7187 -0.27539,1.5489 0.01,0.1621 -2.13086,0 0.0117,-0.1621 -0.27343,-1.5489 -0.70508,-1.7187 -1.24805,0 -0.70508,1.7187 -0.27343,1.5489 0.01,0.1621 -2.13086,0 0.0117,-0.1621 -0.27539,-1.5489 -0.70312,-1.7187 -1.24805,0 -0.70508,1.7187 -0.27344,1.5489 0.01,0.1621 -2.13086,0 0.01,-0.1621 -0.27344,-1.5489 -0.70508,-1.7187 -1.24609,0 -0.70508,1.7187 -0.27344,1.5489 0.0117,0.1621 -2.13086,0 0.01,-0.1621 -0.27344,-1.5489 -0.70508,-1.7187 -1.24805,0 -0.70312,1.7187 -0.27539,1.5489 0.0117,0.1621 -2.13086,0 0.01,-0.1621 -0.27344,-1.5489 -0.70507,-1.7187 -1.24805,0 -0.70508,1.7187 -0.27344,1.5489 0.0117,0.1621 -2.13086,0 0.01,-0.1621 -0.27539,-1.5489 -0.70508,-1.7187 -1.24609,0 -0.70508,1.7187 -0.27344,1.5489 0.01,0.1621 -2.13086,0 0.01,-0.1621 -0.27344,-1.5489 -0.70507,-1.7187 -1.2461,0 -0.70507,1.7187 -0.2754,1.5489 0.0117,0.1621 -2.13086,0 0.01,-0.1621 -0.27344,-1.5489 -0.70508,-1.7187 -1.24804,0 -0.70313,1.7187 -0.27539,1.5489 0.0117,0.1621 -2.13086,0 0.01,-0.1621 -0.27344,-1.5489 -0.70508,-1.7187 -1.24805,0 -0.70312,1.7187 -0.27539,1.5489 0.01,0.1621 -2.13086,0 0.0117,-0.1621 -0.27539,-1.5489 -0.70508,-1.7187 -1.24609,0 -0.70508,1.7187 -0.27344,1.5489 0.0117,0.1621 -2.13086,0 0.0117,-0.1621 -0.27539,-1.5489 -0.70312,-1.7187 -1.24805,0 -0.70508,1.7187 -0.27539,1.5489 0.0117,0.1621 -2.13086,0 0.01,-0.1621 -0.27344,-1.5489 -0.70508,-1.7187 -1.24805,0 -0.70312,1.7187 -0.27539,1.5489 0.0117,0.1621 -2.13086,0 0.01,-0.1621 -0.27539,-1.5489 -0.70312,-1.7187 -1.24805,0 -0.70312,1.7187 -0.27539,1.5489 0.01,0.1621 -2.13086,0 0.0117,-0.1621 -0.27539,-1.5489 -0.70312,-1.7187 -1.24805,0 -0.70508,1.7187 -0.27539,1.5489 0.0117,0.1621 -2.13086,0 0.0117,-0.1621 -0.27539,-1.5489 -0.70508,-1.7187 -1.24805,0 -0.70312,1.7187 -0.27539,1.5489 0.0117,0.1621 -2.13085,0 0.01,-0.1621 -0.27344,-1.5489 -0.70507,-1.7187 -1.24805,0 -0.70313,1.7187 -0.27539,1.5489 0.0117,0.1621 -2.13281,0 0.0117,-0.1621 -0.27539,-1.5489 -0.70313,-1.7187 -1.24804,0 -0.70508,1.7187 -0.27344,1.5489 0.01,0.1621 -2.13086,0 0.0117,-0.1621 -0.27539,-1.5489 -0.70312,-1.7187 -1.24805,0 -0.70508,1.7187 -0.27539,1.5489 0.0117,0.1621 -2.13086,0 0.0117,-0.1621 -0.27539,-1.5489 -0.70508,-1.7187 -1.24804,0 -0.70313,1.7187 -0.27539,1.5489 0.0117,0.1621 -2.13086,0 0.01,-0.1621 -0.27539,-1.5489 -0.70313,-1.7187 -1.24805,0 -0.70312,1.7187 -0.27539,1.5489 0.01,0.1621 -2.13086,0 0.0117,-0.1621 -0.27539,-1.5489 -0.70312,-1.7187 -1.24805,0 -0.70508,1.7187 -0.27539,1.5489 0.0117,0.1621 -2.13086,0 0.0117,-0.1621 -0.27539,-1.5489 -0.70508,-1.7187 -1.24609,0 -0.70508,1.7187 -0.27539,1.5489 0.0117,0.1621 -2.13086,0 0.01,-0.1621 -0.27343,-1.5489 -0.70508,-1.7187 -1.2461,0 -0.70507,1.7187 -0.27539,1.5489 0.0117,0.1621 -2.13281,0 0.0117,-0.1621 -0.27539,-1.5489 -0.70313,-1.7187 -1.24804,0 -0.70508,1.7187 -0.27344,1.5489 0.01,0.1621 -2.13086,0 0.0117,-0.1621 -0.27539,-1.5489 -0.70313,-1.7187 -1.24805,0 -0.70507,1.7187 -0.27344,1.5489 0.0117,0.1621 -2.13086,0 0.0117,-0.1621 -0.27539,-1.5489 -0.70508,-1.7187 -1.2461,0 -0.70507,1.7187 -0.27344,1.5489 0.01,0.1621 -2.13085,0 0.01,-0.1621 -0.27344,-1.5489 -0.70508,-1.7187 -1.24609,0 -0.70508,1.7187 -0.27539,1.5489 0.01,0.1621 -2.13086,0 0.0117,-0.1621 -0.27344,-1.5489 -0.70508,-1.7187 -1.24805,0 -0.70507,1.7187 -0.27344,1.5489 0.01,0.1621 -2.13086,0 0.0117,-0.1621 -0.27539,-1.5489 -0.70507,-1.7187 -1.2461,0 -0.70508,1.7187 -0.27343,1.5489 0.01,0.1621 -2.13086,0 0.01,-0.1621 -0.27344,-1.5489 -0.70508,-1.7187 -1.24609,0 -0.70508,1.7187 -0.27539,1.5489 0.0117,0.1621 -2.13086,0 0.01,-0.1621 -0.27344,-1.5489 -0.70508,-1.7187 -1.24805,0 -0.70508,1.7187 -0.27343,1.5489 0.0117,0.1621 -2.13086,0 0.01,-0.1621 -0.27344,-1.5489 -0.70507,-1.7187 -1.24805,0 -0.70508,1.7187 -0.27344,1.5489 0.0117,0.1621 -2.13281,0 0.0117,-0.1621 -0.27539,-1.5489 -0.70508,-1.7187 -1.24609,0 -0.70508,1.7187 -0.27344,1.5489 0.0117,0.1621 -2.13086,0 0.0117,-0.1621 -0.27539,-1.5489 -0.70508,-1.7187 -1.24609,0 -0.70508,1.7187 -0.27539,1.5489 0.0117,0.1621 -2.13086,0 0.0117,-0.1621 -0.2754,-1.5489 -0.70507,-1.7187 -1.24805,0 -0.70312,1.7187 -0.2754,1.5489 0.0117,0.1621 -2.13086,0 0.01,-0.1621 -0.27539,-1.5489 -0.70313,-1.7187 -1.24804,0 -0.70313,1.7187 -0.27539,1.5489 0.01,0.1621 -2.13086,0 0.0117,-0.1621 -0.27539,-1.5489 -0.70313,-1.7187 -1.24805,0 -0.70507,1.7187 -0.27344,1.5489 0.01,0.1621 -2.13086,0 0.0117,-0.1621 -0.27539,-1.5489 -0.70508,-1.7187 -1.24804,0 -0.70313,1.7187 -0.27539,1.5489 0.0117,0.1621 -2.13086,0 0.01,-0.1621 -0.27344,-1.5489 -0.70508,-1.7187 -1.248046,0 -0.703125,1.7187 -0.27539,1.5489 0.01172,0.1621 -2.13086,0 0.0098,-0.1621 -0.275391,-1.5489 -0.703125,-1.7187 -1.248047,0 -0.705078,1.7187 -0.273437,1.5489 0.0098,0.1621 -2.130859,0 0.01172,-0.1621 -0.275391,-1.5489 -0.703125,-1.7187 -1.248047,0 -0.705078,1.7187 -0.275391,1.5489 0.01172,0.1621 -2.130859,0 0.01172,-0.1621 -0.275391,-1.5489 -0.705078,-1.7187 -1.248047,0 -0.703125,1.7187 -0.275391,1.5489 0.01172,0.1621 -2.130859,0 0.0098,-0.1621 -0.273437,-1.5489 -0.705078,-1.7187 -1.248047,0 -0.703125,1.7187 -0.275391,1.5489 0.0098,0.1621 -2.13086,0 0.01172,-0.1621 -0.27539,-1.5489 -0.703126,-1.7187 -1.248046,0 -0.705078,1.7187 -0.273438,1.5489 0.0098,0.1621 -2.13086,0 0.01172,-0.1621 -0.275391,-1.5489 -0.705078,-1.7187 -1.246094,0 -0.705078,1.7187 -0.27539,1.5489 0.01172,0.1621 -2.130859,0 0.0098,-0.1621 -0.273438,-1.5489 -0.705078,-1.7187 -1.248047,0 -0.703125,1.7187 -0.27539,1.5489 0.01172,0.1621 -2.130859,0 0.0098,-0.1621 -0.275391,-1.5489 -0.703125,-1.7187 -1.248047,0 -0.703125,1.7187 -0.27539,1.5489 0.0098,0.1621 -2.130859,0 0.01172,-0.1621 -0.27539,-1.5489 -0.703125,-1.7187 -1.248047,0 -0.705078,1.7187 -0.275391,1.5489 0.01172,0.1621 -2.130859,0 0.01172,-0.1621 -0.27539,-1.5489 -0.705078,-1.7187 -1.246094,0 -0.705078,1.7187 -0.275391,1.5489 0.01172,0.1621 -2.130859,0 0.0098,-0.1621 -0.273437,-1.5489 -0.705078,-1.7187 -1.246094,0 -0.705078,1.7187 -0.275391,1.5489 0.01172,0.1621 -2.132813,0 0.01172,-0.1621 -0.275391,-1.5489 -0.703125,-1.7187 -1.248046,0 -0.705079,1.7187 -0.273437,1.5489 0.0098,0.1621 -2.13086,0 0.01172,-0.1621 -0.275391,-1.5489 -0.703125,-1.7187 -1.248047,0 -0.705078,1.7187 -0.273437,1.5489 0.0098,0.1621 -2.130859,0 0.01172,-0.1621 -0.275391,-1.5489 -0.705078,-1.7187 -1.246094,0 -0.705078,1.7187 -0.273437,1.5489 0.0098,0.1621 -2.130859,0 0.0098,-0.1621 -0.273438,-1.5489 -0.705078,-1.7187 -1.246094,0 -0.705078,1.7187 -0.275391,1.5489 0.01172,0.1621 -4.640625,0 0.03125,-31.8906 z"
       id="path5660-9"
       inkscape:connector-curvature="0"
       sodipodi:nodetypes="ccccccccccccccccccccccccccccccccccccccccccccccccccccccccccccccccccccccccccccccccccccccccccccccccccccccccccccccccccccccccccccccccccccccccccccccccccccccccccccccccccccccccccccccccccccccccccccccccccccccccccccccccccccccccccccccccccccccccccccccccccccccccccccccccccccccccccccccccccccccccccccccccccccccccccccccccccccccccccccccccccccccccccccccccccccccccccccccccccccccccccccccccccccccccccccccccccccccccccccccccccccccccccccccccccccccccccccccccccccccccccccccccccccccccccccccccccccccccccccccccccccccccccccccccccccccccccccccccccccccccccccccccccccccccccccccccccccccccccccccccccccccccccccccccccccccccccccccccccccccccccccccccccccccccccccccccccccccccccccccccccccccccccccccccccccccccccccccccccccccccccccccccccccccccccccccccccccccccccccccccccccccccccccccccccccccccccccccccccccccccccccccccccccccccccccccccccccccccccccccccccccccccccc" />
    <circle
       style="fill:#ffdd55;fill-opacity:1;stroke:none"
       id="path4143"
       cx="558.07086"
       cy="1043.5039"
       r="5.3149605" />
    <circle
       style="display:inline;fill:#ffdd55;fill-opacity:1;stroke:none"
       id="path4143-3"
       cx="8.8582678"
       cy="1043.5039"
       r="5.3149605" />
  </g>
</svg>
