  0
SECTION
  2
HEADER
  9
$ACADVER
  1
AC1014
  9
$HANDSEED
  5
FFFF
  9
$MEASUREMENT
 70
     1
  0
ENDSEC
  0
SECTION
  2
TABLES
  0
TABLE
  2
VPORT
  5
8
330
0
100
AcDbSymbolTable
 70
     4
  0
VPORT
  5
2E
330
8
100
AcDbSymbolTableRecord
100
AcDbViewportTableRecord
  2
*ACTIVE
 70
     0
 10
0.0
 20
0.0
 11
1.0
 21
1.0
 12
210.0
 22
148.5
 13
0.0
 23
0.0
 14
10.0
 24
10.0
 15
10.0
 25
10.0
 16
0.0
 26
0.0
 36
1.0
 17
0.0
 27
0.0
 37
0.0
 40
341.0
 41
1.24
 42
50.0
 43
0.0
 44
0.0
 50
0.0
 51
0.0
 71
     0
 72
   100
 73
     1
 74
     3
 75
     0
 76
     0
 77
     0
 78
     0
  0
ENDTAB
  0
TABLE
  2
LTYPE
  5
5
330
0
100
AcDbSymbolTable
 70
     1
  0
LTYPE
  5
14
330
5
100
AcDbSymbolTableRecord
100
AcDbLinetypeTableRecord
  2
BYBLOCK
 70
     0
  3

 72
    65
 73
     0
 40
0.0
  0
LTYPE
  5
15
330
5
100
AcDbSymbolTableRecord
100
AcDbLinetypeTableRecord
  2
BYLAYER
 70
     0
  3

 72
    65
 73
     0
 40
0.0
  0
LTYPE
  5
16
330
5
100
AcDbSymbolTableRecord
100
AcDbLinetypeTableRecord
  2
CONTINUOUS
 70
     0
  3
Solid line
 72
    65
 73
     0
 40
0.0
  0
ENDTAB
  0
TABLE
  2
LAYER
  5
2
100
AcDbSymbolTable
 70
2
  0
LAYER
  5
50
100
AcDbSymbolTableRecord
100
AcDbLayerTableRecord
  2
0
 70
0
  6
CONTINUOUS
  0
LAYER
  5
51
100
AcDbSymbolTableRecord
100
AcDbLayerTableRecord
  2
gears
 70
0
  6
CONTINUOUS
  0
ENDTAB
  0
TABLE
  2
STYLE
  5
3
330
0
100
AcDbSymbolTable
 70
     1
  0
STYLE
  5
11
330
3
100
AcDbSymbolTableRecord
100
AcDbTextStyleTableRecord
  2
STANDARD
 70
     0
 40
0.0
 41
1.0
 50
0.0
 71
     0
 42
2.5
  3
txt
  4

  0
ENDTAB
  0
TABLE
  2
VIEW
  5
6
330
0
100
AcDbSymbolTable
 70
     0
  0
ENDTAB
  0
TABLE
  2
UCS
  5
7
330
0
100
AcDbSymbolTable
 70
     0
  0
ENDTAB
  0
TABLE
  2
APPID
  5
9
330
0
100
AcDbSymbolTable
 70
     2
  0
APPID
  5
12
330
9
100
AcDbSymbolTableRecord
100
AcDbRegAppTableRecord
  2
ACAD
 70
     0
  0
ENDTAB
  0
TABLE
  2
DIMSTYLE
  5
A
330
0
100
AcDbSymbolTable
 70
     1
  0
DIMSTYLE
105
27
330
A
100
AcDbSymbolTableRecord
100
AcDbDimStyleTableRecord
  2
ISO-25
 70
     0
  3

  4

  5

  6

  7

 40
1.0
 41
2.5
 42
0.625
 43
3.75
 44
1.25
 45
0.0
 46
0.0
 47
0.0
 48
0.0
140
2.5
141
2.5
142
0.0
143
0.03937007874016
144
1.0
145
0.0
146
1.0
147
0.625
 71
     0
 72
     0
 73
     0
 74
     0
 75
     0
 76
     0
 77
     1
 78
     8
170
     0
171
     3
172
     1
173
     0
174
     0
175
     0
176
     0
177
     0
178
     0
270
     2
271
     2
272
     2
273
     2
274
     3
340
11
275
     0
280
     0
281
     0
282
     0
283
     0
284
     8
285
     0
286
     0
287
     3
288
     0
  0
ENDTAB
  0
TABLE
  2
BLOCK_RECORD
  5
1
330
0
100
AcDbSymbolTable
 70
     1
  0
BLOCK_RECORD
  5
1F
330
1
100
AcDbSymbolTableRecord
100
AcDbBlockTableRecord
  2
*MODEL_SPACE
  0
BLOCK_RECORD
  5
1B
330
1
100
AcDbSymbolTableRecord
100
AcDbBlockTableRecord
  2
*PAPER_SPACE
  0
ENDTAB
  0
ENDSEC
  0
SECTION
  2
BLOCKS
  0
BLOCK
  5
20
330
1F
100
AcDbEntity
  8
0
100
AcDbBlockBegin
  2
*MODEL_SPACE
 70
     0
 10
0.0
 20
0.0
 30
0.0
  3
*MODEL_SPACE
  1

  0
ENDBLK
  5
21
330
1F
100
AcDbEntity
  8
0
100
AcDbBlockEnd
  0
BLOCK
  5
1C
330
1B
100
AcDbEntity
 67
     1
  8
0
100
AcDbBlockBegin
  2
*PAPER_SPACE
  1

  0
ENDBLK
  5
1D
330
1B
100
AcDbEntity
 67
     1
  8
0
100
AcDbBlockEnd
  0
ENDSEC
  0
SECTION
  2
ENTITIES
  0
LINE
  5
100
100
AcDbEntity
  8
gears
 62
7
100
AcDbLine
 10
0.000000
 20
14.000002
 30
0.0
 11
0.000000
 21
0.000255
 31
0.0
  0
LINE
  5
101
100
AcDbEntity
  8
gears
 62
7
100
AcDbLine
 10
0.000000
 20
0.000255
 30
0.0
 11
4.500121
 21
0.000255
 31
0.0
  0
LINE
  5
102
100
AcDbEntity
  8
gears
 62
7
100
AcDbLine
 10
4.500121
 20
0.000255
 30
0.0
 11
4.500000
 21
1.200010
 31
0.0
  0
LINE
  5
103
100
AcDbEntity
  8
gears
 62
7
100
AcDbLine
 10
4.500000
 20
1.200010
 30
0.0
 11
154.999961
 21
1.099991
 31
0.0
  0
LINE
  5
104
100
AcDbEntity
  8
gears
 62
7
100
AcDbLine
 10
154.999961
 20
1.099991
 30
0.0
 11
155.000082
 21
0.000255
 31
0.0
  0
LINE
  5
105
100
AcDbEntity
  8
gears
 62
7
100
AcDbLine
 10
155.000082
 20
0.000255
 30
0.0
 11
160.000157
 21
0.000255
 31
0.0
  0
LINE
  5
106
100
AcDbEntity
  8
gears
 62
7
100
AcDbLine
 10
160.000157
 20
0.000255
 30
0.0
 11
160.000157
 21
4.999766
 31
0.0
  0
LINE
  5
107
100
AcDbEntity
  8
gears
 62
7
100
AcDbLine
 10
160.000157
 20
4.999766
 30
0.0
 11
154.699671
 21
4.999766
 31
0.0
  0
LINE
  5
108
100
AcDbEntity
  8
gears
 62
7
100
AcDbLine
 10
154.699671
 20
4.999766
 30
0.0
 11
154.702493
 21
5.045514
 31
0.0
  0
LINE
  5
109
100
AcDbEntity
  8
gears
 62
7
100
AcDbLine
 10
154.702493
 20
5.045514
 30
0.0
 11
154.625325
 21
5.482648
 31
0.0
  0
LINE
  5
10a
100
AcDbEntity
  8
gears
 62
7
100
AcDbLine
 10
154.625325
 20
5.482648
 30
0.0
 11
154.426336
 21
5.967703
 31
0.0
  0
LINE
  5
10b
100
AcDbEntity
  8
gears
 62
7
100
AcDbLine
 10
154.426336
 20
5.967703
 30
0.0
 11
154.074108
 21
5.967703
 31
0.0
  0
LINE
  5
10c
100
AcDbEntity
  8
gears
 62
7
100
AcDbLine
 10
154.074108
 20
5.967703
 30
0.0
 11
153.875119
 21
5.482648
 31
0.0
  0
LINE
  5
10d
100
AcDbEntity
  8
gears
 62
7
100
AcDbLine
 10
153.875119
 20
5.482648
 30
0.0
 11
153.797948
 21
5.045514
 31
0.0
  0
LINE
  5
10e
100
AcDbEntity
  8
gears
 62
7
100
AcDbLine
 10
153.797948
 20
5.045514
 30
0.0
 11
153.801250
 21
4.999766
 31
0.0
  0
LINE
  5
10f
100
AcDbEntity
  8
gears
 62
7
100
AcDbLine
 10
153.801250
 20
4.999766
 30
0.0
 11
153.199324
 21
4.999766
 31
0.0
  0
LINE
  5
110
100
AcDbEntity
  8
gears
 62
7
100
AcDbLine
 10
153.199324
 20
4.999766
 30
0.0
 11
153.202626
 21
5.045514
 31
0.0
  0
LINE
  5
111
100
AcDbEntity
  8
gears
 62
7
100
AcDbLine
 10
153.202626
 20
5.045514
 30
0.0
 11
153.124905
 21
5.482648
 31
0.0
  0
LINE
  5
112
100
AcDbEntity
  8
gears
 62
7
100
AcDbLine
 10
153.124905
 20
5.482648
 30
0.0
 11
152.925915
 21
5.967703
 31
0.0
  0
LINE
  5
113
100
AcDbEntity
  8
gears
 62
7
100
AcDbLine
 10
152.925915
 20
5.967703
 30
0.0
 11
152.574241
 21
5.967703
 31
0.0
  0
LINE
  5
114
100
AcDbEntity
  8
gears
 62
7
100
AcDbLine
 10
152.574241
 20
5.967703
 30
0.0
 11
152.375252
 21
5.482648
 31
0.0
  0
LINE
  5
115
100
AcDbEntity
  8
gears
 62
7
100
AcDbLine
 10
152.375252
 20
5.482648
 30
0.0
 11
152.298081
 21
5.045514
 31
0.0
  0
LINE
  5
116
100
AcDbEntity
  8
gears
 62
7
100
AcDbLine
 10
152.298081
 20
5.045514
 30
0.0
 11
152.300903
 21
4.999766
 31
0.0
  0
LINE
  5
117
100
AcDbEntity
  8
gears
 62
7
100
AcDbLine
 10
152.300903
 20
4.999766
 30
0.0
 11
151.699527
 21
4.999766
 31
0.0
  0
LINE
  5
118
100
AcDbEntity
  8
gears
 62
7
100
AcDbLine
 10
151.699527
 20
4.999766
 30
0.0
 11
151.702349
 21
5.045514
 31
0.0
  0
LINE
  5
119
100
AcDbEntity
  8
gears
 62
7
100
AcDbLine
 10
151.702349
 20
5.045514
 30
0.0
 11
151.625181
 21
5.482648
 31
0.0
  0
LINE
  5
11a
100
AcDbEntity
  8
gears
 62
7
100
AcDbLine
 10
151.625181
 20
5.482648
 30
0.0
 11
151.426192
 21
5.967703
 31
0.0
  0
LINE
  5
11b
100
AcDbEntity
  8
gears
 62
7
100
AcDbLine
 10
151.426192
 20
5.967703
 30
0.0
 11
151.074515
 21
5.967703
 31
0.0
  0
LINE
  5
11c
100
AcDbEntity
  8
gears
 62
7
100
AcDbLine
 10
151.074515
 20
5.967703
 30
0.0
 11
150.875529
 21
5.482648
 31
0.0
  0
LINE
  5
11d
100
AcDbEntity
  8
gears
 62
7
100
AcDbLine
 10
150.875529
 20
5.482648
 30
0.0
 11
150.797808
 21
5.045514
 31
0.0
  0
LINE
  5
11e
100
AcDbEntity
  8
gears
 62
7
100
AcDbLine
 10
150.797808
 20
5.045514
 30
0.0
 11
150.801110
 21
4.999766
 31
0.0
  0
LINE
  5
11f
100
AcDbEntity
  8
gears
 62
7
100
AcDbLine
 10
150.801110
 20
4.999766
 30
0.0
 11
150.199733
 21
4.999766
 31
0.0
  0
LINE
  5
120
100
AcDbEntity
  8
gears
 62
7
100
AcDbLine
 10
150.199733
 20
4.999766
 30
0.0
 11
150.203035
 21
5.045514
 31
0.0
  0
LINE
  5
121
100
AcDbEntity
  8
gears
 62
7
100
AcDbLine
 10
150.203035
 20
5.045514
 30
0.0
 11
150.125314
 21
5.482648
 31
0.0
  0
LINE
  5
122
100
AcDbEntity
  8
gears
 62
7
100
AcDbLine
 10
150.125314
 20
5.482648
 30
0.0
 11
149.926328
 21
5.967703
 31
0.0
  0
LINE
  5
123
100
AcDbEntity
  8
gears
 62
7
100
AcDbLine
 10
149.926328
 20
5.967703
 30
0.0
 11
149.574100
 21
5.967703
 31
0.0
  0
LINE
  5
124
100
AcDbEntity
  8
gears
 62
7
100
AcDbLine
 10
149.574100
 20
5.967703
 30
0.0
 11
149.375662
 21
5.482648
 31
0.0
  0
LINE
  5
125
100
AcDbEntity
  8
gears
 62
7
100
AcDbLine
 10
149.375662
 20
5.482648
 30
0.0
 11
149.297940
 21
5.045514
 31
0.0
  0
LINE
  5
126
100
AcDbEntity
  8
gears
 62
7
100
AcDbLine
 10
149.297940
 20
5.045514
 30
0.0
 11
149.301242
 21
4.999766
 31
0.0
  0
LINE
  5
127
100
AcDbEntity
  8
gears
 62
7
100
AcDbLine
 10
149.301242
 20
4.999766
 30
0.0
 11
148.699866
 21
4.999766
 31
0.0
  0
LINE
  5
128
100
AcDbEntity
  8
gears
 62
7
100
AcDbLine
 10
148.699866
 20
4.999766
 30
0.0
 11
148.702689
 21
5.045514
 31
0.0
  0
LINE
  5
129
100
AcDbEntity
  8
gears
 62
7
100
AcDbLine
 10
148.702689
 20
5.045514
 30
0.0
 11
148.624967
 21
5.482648
 31
0.0
  0
LINE
  5
12a
100
AcDbEntity
  8
gears
 62
7
100
AcDbLine
 10
148.624967
 20
5.482648
 30
0.0
 11
148.426528
 21
5.967703
 31
0.0
  0
LINE
  5
12b
100
AcDbEntity
  8
gears
 62
7
100
AcDbLine
 10
148.426528
 20
5.967703
 30
0.0
 11
148.074304
 21
5.967703
 31
0.0
  0
LINE
  5
12c
100
AcDbEntity
  8
gears
 62
7
100
AcDbLine
 10
148.074304
 20
5.967703
 30
0.0
 11
147.875865
 21
5.482648
 31
0.0
  0
LINE
  5
12d
100
AcDbEntity
  8
gears
 62
7
100
AcDbLine
 10
147.875865
 20
5.482648
 30
0.0
 11
147.798144
 21
5.045514
 31
0.0
  0
LINE
  5
12e
100
AcDbEntity
  8
gears
 62
7
100
AcDbLine
 10
147.798144
 20
5.045514
 30
0.0
 11
147.801446
 21
4.999766
 31
0.0
  0
LINE
  5
12f
100
AcDbEntity
  8
gears
 62
7
100
AcDbLine
 10
147.801446
 20
4.999766
 30
0.0
 11
147.200070
 21
4.999766
 31
0.0
  0
LINE
  5
130
100
AcDbEntity
  8
gears
 62
7
100
AcDbLine
 10
147.200070
 20
4.999766
 30
0.0
 11
147.203372
 21
5.045514
 31
0.0
  0
LINE
  5
131
100
AcDbEntity
  8
gears
 62
7
100
AcDbLine
 10
147.203372
 20
5.045514
 30
0.0
 11
147.125650
 21
5.482648
 31
0.0
  0
LINE
  5
132
100
AcDbEntity
  8
gears
 62
7
100
AcDbLine
 10
147.125650
 20
5.482648
 30
0.0
 11
146.926661
 21
5.967703
 31
0.0
  0
LINE
  5
133
100
AcDbEntity
  8
gears
 62
7
100
AcDbLine
 10
146.926661
 20
5.967703
 30
0.0
 11
146.574987
 21
5.967703
 31
0.0
  0
LINE
  5
134
100
AcDbEntity
  8
gears
 62
7
100
AcDbLine
 10
146.574987
 20
5.967703
 30
0.0
 11
146.375998
 21
5.482648
 31
0.0
  0
LINE
  5
135
100
AcDbEntity
  8
gears
 62
7
100
AcDbLine
 10
146.375998
 20
5.482648
 30
0.0
 11
146.298827
 21
5.045514
 31
0.0
  0
LINE
  5
136
100
AcDbEntity
  8
gears
 62
7
100
AcDbLine
 10
146.298827
 20
5.045514
 30
0.0
 11
146.301649
 21
4.999766
 31
0.0
  0
LINE
  5
137
100
AcDbEntity
  8
gears
 62
7
100
AcDbLine
 10
146.301649
 20
4.999766
 30
0.0
 11
145.700276
 21
4.999766
 31
0.0
  0
LINE
  5
138
100
AcDbEntity
  8
gears
 62
7
100
AcDbLine
 10
145.700276
 20
4.999766
 30
0.0
 11
145.703578
 21
5.045514
 31
0.0
  0
LINE
  5
139
100
AcDbEntity
  8
gears
 62
7
100
AcDbLine
 10
145.703578
 20
5.045514
 30
0.0
 11
145.625857
 21
5.482648
 31
0.0
  0
LINE
  5
13a
100
AcDbEntity
  8
gears
 62
7
100
AcDbLine
 10
145.625857
 20
5.482648
 30
0.0
 11
145.426870
 21
5.967703
 31
0.0
  0
LINE
  5
13b
100
AcDbEntity
  8
gears
 62
7
100
AcDbLine
 10
145.426870
 20
5.967703
 30
0.0
 11
145.075193
 21
5.967703
 31
0.0
  0
LINE
  5
13c
100
AcDbEntity
  8
gears
 62
7
100
AcDbLine
 10
145.075193
 20
5.967703
 30
0.0
 11
144.876204
 21
5.482648
 31
0.0
  0
LINE
  5
13d
100
AcDbEntity
  8
gears
 62
7
100
AcDbLine
 10
144.876204
 20
5.482648
 30
0.0
 11
144.798483
 21
5.045514
 31
0.0
  0
LINE
  5
13e
100
AcDbEntity
  8
gears
 62
7
100
AcDbLine
 10
144.798483
 20
5.045514
 30
0.0
 11
144.801785
 21
4.999766
 31
0.0
  0
LINE
  5
13f
100
AcDbEntity
  8
gears
 62
7
100
AcDbLine
 10
144.801785
 20
4.999766
 30
0.0
 11
144.200409
 21
4.999766
 31
0.0
  0
LINE
  5
140
100
AcDbEntity
  8
gears
 62
7
100
AcDbLine
 10
144.200409
 20
4.999766
 30
0.0
 11
144.203231
 21
5.045514
 31
0.0
  0
LINE
  5
141
100
AcDbEntity
  8
gears
 62
7
100
AcDbLine
 10
144.203231
 20
5.045514
 30
0.0
 11
144.126060
 21
5.482648
 31
0.0
  0
LINE
  5
142
100
AcDbEntity
  8
gears
 62
7
100
AcDbLine
 10
144.126060
 20
5.482648
 30
0.0
 11
143.927071
 21
5.967703
 31
0.0
  0
LINE
  5
143
100
AcDbEntity
  8
gears
 62
7
100
AcDbLine
 10
143.927071
 20
5.967703
 30
0.0
 11
143.574846
 21
5.967703
 31
0.0
  0
LINE
  5
144
100
AcDbEntity
  8
gears
 62
7
100
AcDbLine
 10
143.574846
 20
5.967703
 30
0.0
 11
143.376407
 21
5.482648
 31
0.0
  0
LINE
  5
145
100
AcDbEntity
  8
gears
 62
7
100
AcDbLine
 10
143.376407
 20
5.482648
 30
0.0
 11
143.298686
 21
5.045514
 31
0.0
  0
LINE
  5
146
100
AcDbEntity
  8
gears
 62
7
100
AcDbLine
 10
143.298686
 20
5.045514
 30
0.0
 11
143.301988
 21
4.999766
 31
0.0
  0
LINE
  5
147
100
AcDbEntity
  8
gears
 62
7
100
AcDbLine
 10
143.301988
 20
4.999766
 30
0.0
 11
142.700612
 21
4.999766
 31
0.0
  0
LINE
  5
148
100
AcDbEntity
  8
gears
 62
7
100
AcDbLine
 10
142.700612
 20
4.999766
 30
0.0
 11
142.703434
 21
5.045514
 31
0.0
  0
LINE
  5
149
100
AcDbEntity
  8
gears
 62
7
100
AcDbLine
 10
142.703434
 20
5.045514
 30
0.0
 11
142.625713
 21
5.482648
 31
0.0
  0
LINE
  5
14a
100
AcDbEntity
  8
gears
 62
7
100
AcDbLine
 10
142.625713
 20
5.482648
 30
0.0
 11
142.427277
 21
5.967703
 31
0.0
  0
LINE
  5
14b
100
AcDbEntity
  8
gears
 62
7
100
AcDbLine
 10
142.427277
 20
5.967703
 30
0.0
 11
142.075050
 21
5.967703
 31
0.0
  0
LINE
  5
14c
100
AcDbEntity
  8
gears
 62
7
100
AcDbLine
 10
142.075050
 20
5.967703
 30
0.0
 11
141.876060
 21
5.482648
 31
0.0
  0
LINE
  5
14d
100
AcDbEntity
  8
gears
 62
7
100
AcDbLine
 10
141.876060
 20
5.482648
 30
0.0
 11
141.798892
 21
5.045514
 31
0.0
  0
LINE
  5
14e
100
AcDbEntity
  8
gears
 62
7
100
AcDbLine
 10
141.798892
 20
5.045514
 30
0.0
 11
141.801715
 21
4.999766
 31
0.0
  0
LINE
  5
14f
100
AcDbEntity
  8
gears
 62
7
100
AcDbLine
 10
141.801715
 20
4.999766
 30
0.0
 11
141.200338
 21
4.999766
 31
0.0
  0
LINE
  5
150
100
AcDbEntity
  8
gears
 62
7
100
AcDbLine
 10
141.200338
 20
4.999766
 30
0.0
 11
141.203640
 21
5.045514
 31
0.0
  0
LINE
  5
151
100
AcDbEntity
  8
gears
 62
7
100
AcDbLine
 10
141.203640
 20
5.045514
 30
0.0
 11
141.125919
 21
5.482648
 31
0.0
  0
LINE
  5
152
100
AcDbEntity
  8
gears
 62
7
100
AcDbLine
 10
141.125919
 20
5.482648
 30
0.0
 11
140.927483
 21
5.967703
 31
0.0
  0
LINE
  5
153
100
AcDbEntity
  8
gears
 62
7
100
AcDbLine
 10
140.927483
 20
5.967703
 30
0.0
 11
140.575256
 21
5.967703
 31
0.0
  0
LINE
  5
154
100
AcDbEntity
  8
gears
 62
7
100
AcDbLine
 10
140.575256
 20
5.967703
 30
0.0
 11
140.376267
 21
5.482648
 31
0.0
  0
LINE
  5
155
100
AcDbEntity
  8
gears
 62
7
100
AcDbLine
 10
140.376267
 20
5.482648
 30
0.0
 11
140.298545
 21
5.045514
 31
0.0
  0
LINE
  5
156
100
AcDbEntity
  8
gears
 62
7
100
AcDbLine
 10
140.298545
 20
5.045514
 30
0.0
 11
140.301847
 21
4.999766
 31
0.0
  0
LINE
  5
157
100
AcDbEntity
  8
gears
 62
7
100
AcDbLine
 10
140.301847
 20
4.999766
 30
0.0
 11
139.700471
 21
4.999766
 31
0.0
  0
LINE
  5
158
100
AcDbEntity
  8
gears
 62
7
100
AcDbLine
 10
139.700471
 20
4.999766
 30
0.0
 11
139.703773
 21
5.045514
 31
0.0
  0
LINE
  5
159
100
AcDbEntity
  8
gears
 62
7
100
AcDbLine
 10
139.703773
 20
5.045514
 30
0.0
 11
139.626052
 21
5.482648
 31
0.0
  0
LINE
  5
15a
100
AcDbEntity
  8
gears
 62
7
100
AcDbLine
 10
139.626052
 20
5.482648
 30
0.0
 11
139.427063
 21
5.967703
 31
0.0
  0
LINE
  5
15b
100
AcDbEntity
  8
gears
 62
7
100
AcDbLine
 10
139.427063
 20
5.967703
 30
0.0
 11
139.074835
 21
5.967703
 31
0.0
  0
LINE
  5
15c
100
AcDbEntity
  8
gears
 62
7
100
AcDbLine
 10
139.074835
 20
5.967703
 30
0.0
 11
138.876399
 21
5.482648
 31
0.0
  0
LINE
  5
15d
100
AcDbEntity
  8
gears
 62
7
100
AcDbLine
 10
138.876399
 20
5.482648
 30
0.0
 11
138.798678
 21
5.045514
 31
0.0
  0
LINE
  5
15e
100
AcDbEntity
  8
gears
 62
7
100
AcDbLine
 10
138.798678
 20
5.045514
 30
0.0
 11
138.801980
 21
4.999766
 31
0.0
  0
LINE
  5
15f
100
AcDbEntity
  8
gears
 62
7
100
AcDbLine
 10
138.801980
 20
4.999766
 30
0.0
 11
138.200604
 21
4.999766
 31
0.0
  0
LINE
  5
160
100
AcDbEntity
  8
gears
 62
7
100
AcDbLine
 10
138.200604
 20
4.999766
 30
0.0
 11
138.203426
 21
5.045514
 31
0.0
  0
LINE
  5
161
100
AcDbEntity
  8
gears
 62
7
100
AcDbLine
 10
138.203426
 20
5.045514
 30
0.0
 11
138.126258
 21
5.482648
 31
0.0
  0
LINE
  5
162
100
AcDbEntity
  8
gears
 62
7
100
AcDbLine
 10
138.126258
 20
5.482648
 30
0.0
 11
137.927269
 21
5.967703
 31
0.0
  0
LINE
  5
163
100
AcDbEntity
  8
gears
 62
7
100
AcDbLine
 10
137.927269
 20
5.967703
 30
0.0
 11
137.575042
 21
5.967703
 31
0.0
  0
LINE
  5
164
100
AcDbEntity
  8
gears
 62
7
100
AcDbLine
 10
137.575042
 20
5.967703
 30
0.0
 11
137.376603
 21
5.482648
 31
0.0
  0
LINE
  5
165
100
AcDbEntity
  8
gears
 62
7
100
AcDbLine
 10
137.376603
 20
5.482648
 30
0.0
 11
137.298882
 21
5.045514
 31
0.0
  0
LINE
  5
166
100
AcDbEntity
  8
gears
 62
7
100
AcDbLine
 10
137.298882
 20
5.045514
 30
0.0
 11
137.301704
 21
4.999766
 31
0.0
  0
LINE
  5
167
100
AcDbEntity
  8
gears
 62
7
100
AcDbLine
 10
137.301704
 20
4.999766
 30
0.0
 11
136.700328
 21
4.999766
 31
0.0
  0
LINE
  5
168
100
AcDbEntity
  8
gears
 62
7
100
AcDbLine
 10
136.700328
 20
4.999766
 30
0.0
 11
136.703630
 21
5.045514
 31
0.0
  0
LINE
  5
169
100
AcDbEntity
  8
gears
 62
7
100
AcDbLine
 10
136.703630
 20
5.045514
 30
0.0
 11
136.625909
 21
5.482648
 31
0.0
  0
LINE
  5
16a
100
AcDbEntity
  8
gears
 62
7
100
AcDbLine
 10
136.625909
 20
5.482648
 30
0.0
 11
136.427470
 21
5.967703
 31
0.0
  0
LINE
  5
16b
100
AcDbEntity
  8
gears
 62
7
100
AcDbLine
 10
136.427470
 20
5.967703
 30
0.0
 11
136.075245
 21
5.967703
 31
0.0
  0
LINE
  5
16c
100
AcDbEntity
  8
gears
 62
7
100
AcDbLine
 10
136.075245
 20
5.967703
 30
0.0
 11
135.876256
 21
5.482648
 31
0.0
  0
LINE
  5
16d
100
AcDbEntity
  8
gears
 62
7
100
AcDbLine
 10
135.876256
 20
5.482648
 30
0.0
 11
135.799085
 21
5.045514
 31
0.0
  0
LINE
  5
16e
100
AcDbEntity
  8
gears
 62
7
100
AcDbLine
 10
135.799085
 20
5.045514
 30
0.0
 11
135.801907
 21
4.999766
 31
0.0
  0
LINE
  5
16f
100
AcDbEntity
  8
gears
 62
7
100
AcDbLine
 10
135.801907
 20
4.999766
 30
0.0
 11
135.200531
 21
4.999766
 31
0.0
  0
LINE
  5
170
100
AcDbEntity
  8
gears
 62
7
100
AcDbLine
 10
135.200531
 20
4.999766
 30
0.0
 11
135.203833
 21
5.045514
 31
0.0
  0
LINE
  5
171
100
AcDbEntity
  8
gears
 62
7
100
AcDbLine
 10
135.203833
 20
5.045514
 30
0.0
 11
135.126112
 21
5.482648
 31
0.0
  0
LINE
  5
172
100
AcDbEntity
  8
gears
 62
7
100
AcDbLine
 10
135.126112
 20
5.482648
 30
0.0
 11
134.927673
 21
5.967703
 31
0.0
  0
LINE
  5
173
100
AcDbEntity
  8
gears
 62
7
100
AcDbLine
 10
134.927673
 20
5.967703
 30
0.0
 11
134.575446
 21
5.967703
 31
0.0
  0
LINE
  5
174
100
AcDbEntity
  8
gears
 62
7
100
AcDbLine
 10
134.575446
 20
5.967703
 30
0.0
 11
134.376459
 21
5.482648
 31
0.0
  0
LINE
  5
175
100
AcDbEntity
  8
gears
 62
7
100
AcDbLine
 10
134.376459
 20
5.482648
 30
0.0
 11
134.298738
 21
5.045514
 31
0.0
  0
LINE
  5
176
100
AcDbEntity
  8
gears
 62
7
100
AcDbLine
 10
134.298738
 20
5.045514
 30
0.0
 11
134.302040
 21
4.999766
 31
0.0
  0
LINE
  5
177
100
AcDbEntity
  8
gears
 62
7
100
AcDbLine
 10
134.302040
 20
4.999766
 30
0.0
 11
133.700664
 21
4.999766
 31
0.0
  0
LINE
  5
178
100
AcDbEntity
  8
gears
 62
7
100
AcDbLine
 10
133.700664
 20
4.999766
 30
0.0
 11
133.703486
 21
5.045514
 31
0.0
  0
LINE
  5
179
100
AcDbEntity
  8
gears
 62
7
100
AcDbLine
 10
133.703486
 20
5.045514
 30
0.0
 11
133.626315
 21
5.482648
 31
0.0
  0
LINE
  5
17a
100
AcDbEntity
  8
gears
 62
7
100
AcDbLine
 10
133.626315
 20
5.482648
 30
0.0
 11
133.427326
 21
5.967703
 31
0.0
  0
LINE
  5
17b
100
AcDbEntity
  8
gears
 62
7
100
AcDbLine
 10
133.427326
 20
5.967703
 30
0.0
 11
133.075101
 21
5.967703
 31
0.0
  0
LINE
  5
17c
100
AcDbEntity
  8
gears
 62
7
100
AcDbLine
 10
133.075101
 20
5.967703
 30
0.0
 11
132.876663
 21
5.482648
 31
0.0
  0
LINE
  5
17d
100
AcDbEntity
  8
gears
 62
7
100
AcDbLine
 10
132.876663
 20
5.482648
 30
0.0
 11
132.798941
 21
5.045514
 31
0.0
  0
LINE
  5
17e
100
AcDbEntity
  8
gears
 62
7
100
AcDbLine
 10
132.798941
 20
5.045514
 30
0.0
 11
132.802243
 21
4.999766
 31
0.0
  0
LINE
  5
17f
100
AcDbEntity
  8
gears
 62
7
100
AcDbLine
 10
132.802243
 20
4.999766
 30
0.0
 11
132.200867
 21
4.999766
 31
0.0
  0
LINE
  5
180
100
AcDbEntity
  8
gears
 62
7
100
AcDbLine
 10
132.200867
 20
4.999766
 30
0.0
 11
132.204169
 21
5.045514
 31
0.0
  0
LINE
  5
181
100
AcDbEntity
  8
gears
 62
7
100
AcDbLine
 10
132.204169
 20
5.045514
 30
0.0
 11
132.126448
 21
5.482648
 31
0.0
  0
LINE
  5
182
100
AcDbEntity
  8
gears
 62
7
100
AcDbLine
 10
132.126448
 20
5.482648
 30
0.0
 11
131.928009
 21
5.967703
 31
0.0
  0
LINE
  5
183
100
AcDbEntity
  8
gears
 62
7
100
AcDbLine
 10
131.928009
 20
5.967703
 30
0.0
 11
131.575785
 21
5.967703
 31
0.0
  0
LINE
  5
184
100
AcDbEntity
  8
gears
 62
7
100
AcDbLine
 10
131.575785
 20
5.967703
 30
0.0
 11
131.377346
 21
5.482648
 31
0.0
  0
LINE
  5
185
100
AcDbEntity
  8
gears
 62
7
100
AcDbLine
 10
131.377346
 20
5.482648
 30
0.0
 11
131.299625
 21
5.045514
 31
0.0
  0
LINE
  5
186
100
AcDbEntity
  8
gears
 62
7
100
AcDbLine
 10
131.299625
 20
5.045514
 30
0.0
 11
131.302447
 21
4.999766
 31
0.0
  0
LINE
  5
187
100
AcDbEntity
  8
gears
 62
7
100
AcDbLine
 10
131.302447
 20
4.999766
 30
0.0
 11
130.701071
 21
4.999766
 31
0.0
  0
LINE
  5
188
100
AcDbEntity
  8
gears
 62
7
100
AcDbLine
 10
130.701071
 20
4.999766
 30
0.0
 11
130.704373
 21
5.045514
 31
0.0
  0
LINE
  5
189
100
AcDbEntity
  8
gears
 62
7
100
AcDbLine
 10
130.704373
 20
5.045514
 30
0.0
 11
130.626652
 21
5.482648
 31
0.0
  0
LINE
  5
18a
100
AcDbEntity
  8
gears
 62
7
100
AcDbLine
 10
130.626652
 20
5.482648
 30
0.0
 11
130.428213
 21
5.967703
 31
0.0
  0
LINE
  5
18b
100
AcDbEntity
  8
gears
 62
7
100
AcDbLine
 10
130.428213
 20
5.967703
 30
0.0
 11
130.075985
 21
5.967703
 31
0.0
  0
LINE
  5
18c
100
AcDbEntity
  8
gears
 62
7
100
AcDbLine
 10
130.075985
 20
5.967703
 30
0.0
 11
129.876999
 21
5.482648
 31
0.0
  0
LINE
  5
18d
100
AcDbEntity
  8
gears
 62
7
100
AcDbLine
 10
129.876999
 20
5.482648
 30
0.0
 11
129.799278
 21
5.045514
 31
0.0
  0
LINE
  5
18e
100
AcDbEntity
  8
gears
 62
7
100
AcDbLine
 10
129.799278
 20
5.045514
 30
0.0
 11
129.802580
 21
4.999766
 31
0.0
  0
LINE
  5
18f
100
AcDbEntity
  8
gears
 62
7
100
AcDbLine
 10
129.802580
 20
4.999766
 30
0.0
 11
129.201206
 21
4.999766
 31
0.0
  0
LINE
  5
190
100
AcDbEntity
  8
gears
 62
7
100
AcDbLine
 10
129.201206
 20
4.999766
 30
0.0
 11
129.204508
 21
5.045514
 31
0.0
  0
LINE
  5
191
100
AcDbEntity
  8
gears
 62
7
100
AcDbLine
 10
129.204508
 20
5.045514
 30
0.0
 11
129.126787
 21
5.482648
 31
0.0
  0
LINE
  5
192
100
AcDbEntity
  8
gears
 62
7
100
AcDbLine
 10
129.126787
 20
5.482648
 30
0.0
 11
128.927798
 21
5.967703
 31
0.0
  0
LINE
  5
193
100
AcDbEntity
  8
gears
 62
7
100
AcDbLine
 10
128.927798
 20
5.967703
 30
0.0
 11
128.576124
 21
5.967703
 31
0.0
  0
LINE
  5
194
100
AcDbEntity
  8
gears
 62
7
100
AcDbLine
 10
128.576124
 20
5.967703
 30
0.0
 11
128.377134
 21
5.482648
 31
0.0
  0
LINE
  5
195
100
AcDbEntity
  8
gears
 62
7
100
AcDbLine
 10
128.377134
 20
5.482648
 30
0.0
 11
128.299413
 21
5.045514
 31
0.0
  0
LINE
  5
196
100
AcDbEntity
  8
gears
 62
7
100
AcDbLine
 10
128.299413
 20
5.045514
 30
0.0
 11
128.302715
 21
4.999766
 31
0.0
  0
LINE
  5
197
100
AcDbEntity
  8
gears
 62
7
100
AcDbLine
 10
128.302715
 20
4.999766
 30
0.0
 11
127.701339
 21
4.999766
 31
0.0
  0
LINE
  5
198
100
AcDbEntity
  8
gears
 62
7
100
AcDbLine
 10
127.701339
 20
4.999766
 30
0.0
 11
127.704161
 21
5.045514
 31
0.0
  0
LINE
  5
199
100
AcDbEntity
  8
gears
 62
7
100
AcDbLine
 10
127.704161
 20
5.045514
 30
0.0
 11
127.626991
 21
5.482648
 31
0.0
  0
LINE
  5
19a
100
AcDbEntity
  8
gears
 62
7
100
AcDbLine
 10
127.626991
 20
5.482648
 30
0.0
 11
127.428001
 21
5.967703
 31
0.0
  0
LINE
  5
19b
100
AcDbEntity
  8
gears
 62
7
100
AcDbLine
 10
127.428001
 20
5.967703
 30
0.0
 11
127.076327
 21
5.967703
 31
0.0
  0
LINE
  5
19c
100
AcDbEntity
  8
gears
 62
7
100
AcDbLine
 10
127.076327
 20
5.967703
 30
0.0
 11
126.877338
 21
5.482648
 31
0.0
  0
LINE
  5
19d
100
AcDbEntity
  8
gears
 62
7
100
AcDbLine
 10
126.877338
 20
5.482648
 30
0.0
 11
126.799617
 21
5.045514
 31
0.0
  0
LINE
  5
19e
100
AcDbEntity
  8
gears
 62
7
100
AcDbLine
 10
126.799617
 20
5.045514
 30
0.0
 11
126.802919
 21
4.999766
 31
0.0
  0
LINE
  5
19f
100
AcDbEntity
  8
gears
 62
7
100
AcDbLine
 10
126.802919
 20
4.999766
 30
0.0
 11
126.200992
 21
4.999766
 31
0.0
  0
LINE
  5
1a0
100
AcDbEntity
  8
gears
 62
7
100
AcDbLine
 10
126.200992
 20
4.999766
 30
0.0
 11
126.204294
 21
5.045514
 31
0.0
  0
LINE
  5
1a1
100
AcDbEntity
  8
gears
 62
7
100
AcDbLine
 10
126.204294
 20
5.045514
 30
0.0
 11
126.126573
 21
5.482648
 31
0.0
  0
LINE
  5
1a2
100
AcDbEntity
  8
gears
 62
7
100
AcDbLine
 10
126.126573
 20
5.482648
 30
0.0
 11
125.928137
 21
5.967703
 31
0.0
  0
LINE
  5
1a3
100
AcDbEntity
  8
gears
 62
7
100
AcDbLine
 10
125.928137
 20
5.967703
 30
0.0
 11
125.575909
 21
5.967703
 31
0.0
  0
LINE
  5
1a4
100
AcDbEntity
  8
gears
 62
7
100
AcDbLine
 10
125.575909
 20
5.967703
 30
0.0
 11
125.376920
 21
5.482648
 31
0.0
  0
LINE
  5
1a5
100
AcDbEntity
  8
gears
 62
7
100
AcDbLine
 10
125.376920
 20
5.482648
 30
0.0
 11
125.299752
 21
5.045514
 31
0.0
  0
LINE
  5
1a6
100
AcDbEntity
  8
gears
 62
7
100
AcDbLine
 10
125.299752
 20
5.045514
 30
0.0
 11
125.302574
 21
4.999766
 31
0.0
  0
LINE
  5
1a7
100
AcDbEntity
  8
gears
 62
7
100
AcDbLine
 10
125.302574
 20
4.999766
 30
0.0
 11
124.701198
 21
4.999766
 31
0.0
  0
LINE
  5
1a8
100
AcDbEntity
  8
gears
 62
7
100
AcDbLine
 10
124.701198
 20
4.999766
 30
0.0
 11
124.704500
 21
5.045514
 31
0.0
  0
LINE
  5
1a9
100
AcDbEntity
  8
gears
 62
7
100
AcDbLine
 10
124.704500
 20
5.045514
 30
0.0
 11
124.627330
 21
5.482648
 31
0.0
  0
LINE
  5
1aa
100
AcDbEntity
  8
gears
 62
7
100
AcDbLine
 10
124.627330
 20
5.482648
 30
0.0
 11
124.428343
 21
5.967703
 31
0.0
  0
LINE
  5
1ab
100
AcDbEntity
  8
gears
 62
7
100
AcDbLine
 10
124.428343
 20
5.967703
 30
0.0
 11
124.076116
 21
5.967703
 31
0.0
  0
LINE
  5
1ac
100
AcDbEntity
  8
gears
 62
7
100
AcDbLine
 10
124.076116
 20
5.967703
 30
0.0
 11
123.877126
 21
5.482648
 31
0.0
  0
LINE
  5
1ad
100
AcDbEntity
  8
gears
 62
7
100
AcDbLine
 10
123.877126
 20
5.482648
 30
0.0
 11
123.799956
 21
5.045514
 31
0.0
  0
LINE
  5
1ae
100
AcDbEntity
  8
gears
 62
7
100
AcDbLine
 10
123.799956
 20
5.045514
 30
0.0
 11
123.802778
 21
4.999766
 31
0.0
  0
LINE
  5
1af
100
AcDbEntity
  8
gears
 62
7
100
AcDbLine
 10
123.802778
 20
4.999766
 30
0.0
 11
123.201402
 21
4.999766
 31
0.0
  0
LINE
  5
1b0
100
AcDbEntity
  8
gears
 62
7
100
AcDbLine
 10
123.201402
 20
4.999766
 30
0.0
 11
123.204704
 21
5.045514
 31
0.0
  0
LINE
  5
1b1
100
AcDbEntity
  8
gears
 62
7
100
AcDbLine
 10
123.204704
 20
5.045514
 30
0.0
 11
123.126983
 21
5.482648
 31
0.0
  0
LINE
  5
1b2
100
AcDbEntity
  8
gears
 62
7
100
AcDbLine
 10
123.126983
 20
5.482648
 30
0.0
 11
122.927993
 21
5.967703
 31
0.0
  0
LINE
  5
1b3
100
AcDbEntity
  8
gears
 62
7
100
AcDbLine
 10
122.927993
 20
5.967703
 30
0.0
 11
122.576319
 21
5.967703
 31
0.0
  0
LINE
  5
1b4
100
AcDbEntity
  8
gears
 62
7
100
AcDbLine
 10
122.576319
 20
5.967703
 30
0.0
 11
122.377330
 21
5.482648
 31
0.0
  0
LINE
  5
1b5
100
AcDbEntity
  8
gears
 62
7
100
AcDbLine
 10
122.377330
 20
5.482648
 30
0.0
 11
122.300159
 21
5.045514
 31
0.0
  0
LINE
  5
1b6
100
AcDbEntity
  8
gears
 62
7
100
AcDbLine
 10
122.300159
 20
5.045514
 30
0.0
 11
122.302981
 21
4.999766
 31
0.0
  0
LINE
  5
1b7
100
AcDbEntity
  8
gears
 62
7
100
AcDbLine
 10
122.302981
 20
4.999766
 30
0.0
 11
121.701605
 21
4.999766
 31
0.0
  0
LINE
  5
1b8
100
AcDbEntity
  8
gears
 62
7
100
AcDbLine
 10
121.701605
 20
4.999766
 30
0.0
 11
121.704427
 21
5.045514
 31
0.0
  0
LINE
  5
1b9
100
AcDbEntity
  8
gears
 62
7
100
AcDbLine
 10
121.704427
 20
5.045514
 30
0.0
 11
121.627257
 21
5.482648
 31
0.0
  0
LINE
  5
1ba
100
AcDbEntity
  8
gears
 62
7
100
AcDbLine
 10
121.627257
 20
5.482648
 30
0.0
 11
121.428270
 21
5.967703
 31
0.0
  0
LINE
  5
1bb
100
AcDbEntity
  8
gears
 62
7
100
AcDbLine
 10
121.428270
 20
5.967703
 30
0.0
 11
121.076593
 21
5.967703
 31
0.0
  0
LINE
  5
1bc
100
AcDbEntity
  8
gears
 62
7
100
AcDbLine
 10
121.076593
 20
5.967703
 30
0.0
 11
120.877604
 21
5.482648
 31
0.0
  0
LINE
  5
1bd
100
AcDbEntity
  8
gears
 62
7
100
AcDbLine
 10
120.877604
 20
5.482648
 30
0.0
 11
120.799883
 21
5.045514
 31
0.0
  0
LINE
  5
1be
100
AcDbEntity
  8
gears
 62
7
100
AcDbLine
 10
120.799883
 20
5.045514
 30
0.0
 11
120.802705
 21
4.999766
 31
0.0
  0
LINE
  5
1bf
100
AcDbEntity
  8
gears
 62
7
100
AcDbLine
 10
120.802705
 20
4.999766
 30
0.0
 11
120.201329
 21
4.999766
 31
0.0
  0
LINE
  5
1c0
100
AcDbEntity
  8
gears
 62
7
100
AcDbLine
 10
120.201329
 20
4.999766
 30
0.0
 11
120.204631
 21
5.045514
 31
0.0
  0
LINE
  5
1c1
100
AcDbEntity
  8
gears
 62
7
100
AcDbLine
 10
120.204631
 20
5.045514
 30
0.0
 11
120.127460
 21
5.482648
 31
0.0
  0
LINE
  5
1c2
100
AcDbEntity
  8
gears
 62
7
100
AcDbLine
 10
120.127460
 20
5.482648
 30
0.0
 11
119.928471
 21
5.967703
 31
0.0
  0
LINE
  5
1c3
100
AcDbEntity
  8
gears
 62
7
100
AcDbLine
 10
119.928471
 20
5.967703
 30
0.0
 11
119.576246
 21
5.967703
 31
0.0
  0
LINE
  5
1c4
100
AcDbEntity
  8
gears
 62
7
100
AcDbLine
 10
119.576246
 20
5.967703
 30
0.0
 11
119.377257
 21
5.482648
 31
0.0
  0
LINE
  5
1c5
100
AcDbEntity
  8
gears
 62
7
100
AcDbLine
 10
119.377257
 20
5.482648
 30
0.0
 11
119.300086
 21
5.045514
 31
0.0
  0
LINE
  5
1c6
100
AcDbEntity
  8
gears
 62
7
100
AcDbLine
 10
119.300086
 20
5.045514
 30
0.0
 11
119.303388
 21
4.999766
 31
0.0
  0
LINE
  5
1c7
100
AcDbEntity
  8
gears
 62
7
100
AcDbLine
 10
119.303388
 20
4.999766
 30
0.0
 11
118.701462
 21
4.999766
 31
0.0
  0
LINE
  5
1c8
100
AcDbEntity
  8
gears
 62
7
100
AcDbLine
 10
118.701462
 20
4.999766
 30
0.0
 11
118.704764
 21
5.045514
 31
0.0
  0
LINE
  5
1c9
100
AcDbEntity
  8
gears
 62
7
100
AcDbLine
 10
118.704764
 20
5.045514
 30
0.0
 11
118.627040
 21
5.482648
 31
0.0
  0
LINE
  5
1ca
100
AcDbEntity
  8
gears
 62
7
100
AcDbLine
 10
118.627040
 20
5.482648
 30
0.0
 11
118.428053
 21
5.967703
 31
0.0
  0
LINE
  5
1cb
100
AcDbEntity
  8
gears
 62
7
100
AcDbLine
 10
118.428053
 20
5.967703
 30
0.0
 11
118.076376
 21
5.967703
 31
0.0
  0
LINE
  5
1cc
100
AcDbEntity
  8
gears
 62
7
100
AcDbLine
 10
118.076376
 20
5.967703
 30
0.0
 11
117.877390
 21
5.482648
 31
0.0
  0
LINE
  5
1cd
100
AcDbEntity
  8
gears
 62
7
100
AcDbLine
 10
117.877390
 20
5.482648
 30
0.0
 11
117.800219
 21
5.045514
 31
0.0
  0
LINE
  5
1ce
100
AcDbEntity
  8
gears
 62
7
100
AcDbLine
 10
117.800219
 20
5.045514
 30
0.0
 11
117.803041
 21
4.999766
 31
0.0
  0
LINE
  5
1cf
100
AcDbEntity
  8
gears
 62
7
100
AcDbLine
 10
117.803041
 20
4.999766
 30
0.0
 11
117.201665
 21
4.999766
 31
0.0
  0
LINE
  5
1d0
100
AcDbEntity
  8
gears
 62
7
100
AcDbLine
 10
117.201665
 20
4.999766
 30
0.0
 11
117.204487
 21
5.045514
 31
0.0
  0
LINE
  5
1d1
100
AcDbEntity
  8
gears
 62
7
100
AcDbLine
 10
117.204487
 20
5.045514
 30
0.0
 11
117.127867
 21
5.482648
 31
0.0
  0
LINE
  5
1d2
100
AcDbEntity
  8
gears
 62
7
100
AcDbLine
 10
117.127867
 20
5.482648
 30
0.0
 11
116.928327
 21
5.967703
 31
0.0
  0
LINE
  5
1d3
100
AcDbEntity
  8
gears
 62
7
100
AcDbLine
 10
116.928327
 20
5.967703
 30
0.0
 11
116.576653
 21
5.967703
 31
0.0
  0
LINE
  5
1d4
100
AcDbEntity
  8
gears
 62
7
100
AcDbLine
 10
116.576653
 20
5.967703
 30
0.0
 11
116.378217
 21
5.482648
 31
0.0
  0
LINE
  5
1d5
100
AcDbEntity
  8
gears
 62
7
100
AcDbLine
 10
116.378217
 20
5.482648
 30
0.0
 11
116.299942
 21
5.045514
 31
0.0
  0
LINE
  5
1d6
100
AcDbEntity
  8
gears
 62
7
100
AcDbLine
 10
116.299942
 20
5.045514
 30
0.0
 11
116.303244
 21
4.999766
 31
0.0
  0
LINE
  5
1d7
100
AcDbEntity
  8
gears
 62
7
100
AcDbLine
 10
116.303244
 20
4.999766
 30
0.0
 11
115.701868
 21
4.999766
 31
0.0
  0
LINE
  5
1d8
100
AcDbEntity
  8
gears
 62
7
100
AcDbLine
 10
115.701868
 20
4.999766
 30
0.0
 11
115.705170
 21
5.045514
 31
0.0
  0
LINE
  5
1d9
100
AcDbEntity
  8
gears
 62
7
100
AcDbLine
 10
115.705170
 20
5.045514
 30
0.0
 11
115.627999
 21
5.482648
 31
0.0
  0
LINE
  5
1da
100
AcDbEntity
  8
gears
 62
7
100
AcDbLine
 10
115.627999
 20
5.482648
 30
0.0
 11
115.429010
 21
5.967703
 31
0.0
  0
LINE
  5
1db
100
AcDbEntity
  8
gears
 62
7
100
AcDbLine
 10
115.429010
 20
5.967703
 30
0.0
 11
115.076786
 21
5.967703
 31
0.0
  0
LINE
  5
1dc
100
AcDbEntity
  8
gears
 62
7
100
AcDbLine
 10
115.076786
 20
5.967703
 30
0.0
 11
114.877796
 21
5.482648
 31
0.0
  0
LINE
  5
1dd
100
AcDbEntity
  8
gears
 62
7
100
AcDbLine
 10
114.877796
 20
5.482648
 30
0.0
 11
114.800626
 21
5.045514
 31
0.0
  0
LINE
  5
1de
100
AcDbEntity
  8
gears
 62
7
100
AcDbLine
 10
114.800626
 20
5.045514
 30
0.0
 11
114.803928
 21
4.999766
 31
0.0
  0
LINE
  5
1df
100
AcDbEntity
  8
gears
 62
7
100
AcDbLine
 10
114.803928
 20
4.999766
 30
0.0
 11
114.202551
 21
4.999766
 31
0.0
  0
LINE
  5
1e0
100
AcDbEntity
  8
gears
 62
7
100
AcDbLine
 10
114.202551
 20
4.999766
 30
0.0
 11
114.205374
 21
5.045514
 31
0.0
  0
LINE
  5
1e1
100
AcDbEntity
  8
gears
 62
7
100
AcDbLine
 10
114.205374
 20
5.045514
 30
0.0
 11
114.128203
 21
5.482648
 31
0.0
  0
LINE
  5
1e2
100
AcDbEntity
  8
gears
 62
7
100
AcDbLine
 10
114.128203
 20
5.482648
 30
0.0
 11
113.929214
 21
5.967703
 31
0.0
  0
LINE
  5
1e3
100
AcDbEntity
  8
gears
 62
7
100
AcDbLine
 10
113.929214
 20
5.967703
 30
0.0
 11
113.576986
 21
5.967703
 31
0.0
  0
LINE
  5
1e4
100
AcDbEntity
  8
gears
 62
7
100
AcDbLine
 10
113.576986
 20
5.967703
 30
0.0
 11
113.378550
 21
5.482648
 31
0.0
  0
LINE
  5
1e5
100
AcDbEntity
  8
gears
 62
7
100
AcDbLine
 10
113.378550
 20
5.482648
 30
0.0
 11
113.300829
 21
5.045514
 31
0.0
  0
LINE
  5
1e6
100
AcDbEntity
  8
gears
 62
7
100
AcDbLine
 10
113.300829
 20
5.045514
 30
0.0
 11
113.304131
 21
4.999766
 31
0.0
  0
LINE
  5
1e7
100
AcDbEntity
  8
gears
 62
7
100
AcDbLine
 10
113.304131
 20
4.999766
 30
0.0
 11
112.702202
 21
4.999766
 31
0.0
  0
LINE
  5
1e8
100
AcDbEntity
  8
gears
 62
7
100
AcDbLine
 10
112.702202
 20
4.999766
 30
0.0
 11
112.705504
 21
5.045514
 31
0.0
  0
LINE
  5
1e9
100
AcDbEntity
  8
gears
 62
7
100
AcDbLine
 10
112.705504
 20
5.045514
 30
0.0
 11
112.627783
 21
5.482648
 31
0.0
  0
LINE
  5
1ea
100
AcDbEntity
  8
gears
 62
7
100
AcDbLine
 10
112.627783
 20
5.482648
 30
0.0
 11
112.428793
 21
5.967703
 31
0.0
  0
LINE
  5
1eb
100
AcDbEntity
  8
gears
 62
7
100
AcDbLine
 10
112.428793
 20
5.967703
 30
0.0
 11
112.077119
 21
5.967703
 31
0.0
  0
LINE
  5
1ec
100
AcDbEntity
  8
gears
 62
7
100
AcDbLine
 10
112.077119
 20
5.967703
 30
0.0
 11
111.878130
 21
5.482648
 31
0.0
  0
LINE
  5
1ed
100
AcDbEntity
  8
gears
 62
7
100
AcDbLine
 10
111.878130
 20
5.482648
 30
0.0
 11
111.800959
 21
5.045514
 31
0.0
  0
LINE
  5
1ee
100
AcDbEntity
  8
gears
 62
7
100
AcDbLine
 10
111.800959
 20
5.045514
 30
0.0
 11
111.803781
 21
4.999766
 31
0.0
  0
LINE
  5
1ef
100
AcDbEntity
  8
gears
 62
7
100
AcDbLine
 10
111.803781
 20
4.999766
 30
0.0
 11
111.202405
 21
4.999766
 31
0.0
  0
LINE
  5
1f0
100
AcDbEntity
  8
gears
 62
7
100
AcDbLine
 10
111.202405
 20
4.999766
 30
0.0
 11
111.205707
 21
5.045514
 31
0.0
  0
LINE
  5
1f1
100
AcDbEntity
  8
gears
 62
7
100
AcDbLine
 10
111.205707
 20
5.045514
 30
0.0
 11
111.127986
 21
5.482648
 31
0.0
  0
LINE
  5
1f2
100
AcDbEntity
  8
gears
 62
7
100
AcDbLine
 10
111.127986
 20
5.482648
 30
0.0
 11
110.928997
 21
5.967703
 31
0.0
  0
LINE
  5
1f3
100
AcDbEntity
  8
gears
 62
7
100
AcDbLine
 10
110.928997
 20
5.967703
 30
0.0
 11
110.577322
 21
5.967703
 31
0.0
  0
LINE
  5
1f4
100
AcDbEntity
  8
gears
 62
7
100
AcDbLine
 10
110.577322
 20
5.967703
 30
0.0
 11
110.378333
 21
5.482648
 31
0.0
  0
LINE
  5
1f5
100
AcDbEntity
  8
gears
 62
7
100
AcDbLine
 10
110.378333
 20
5.482648
 30
0.0
 11
110.300612
 21
5.045514
 31
0.0
  0
LINE
  5
1f6
100
AcDbEntity
  8
gears
 62
7
100
AcDbLine
 10
110.300612
 20
5.045514
 30
0.0
 11
110.303914
 21
4.999766
 31
0.0
  0
LINE
  5
1f7
100
AcDbEntity
  8
gears
 62
7
100
AcDbLine
 10
110.303914
 20
4.999766
 30
0.0
 11
109.702538
 21
4.999766
 31
0.0
  0
LINE
  5
1f8
100
AcDbEntity
  8
gears
 62
7
100
AcDbLine
 10
109.702538
 20
4.999766
 30
0.0
 11
109.705840
 21
5.045514
 31
0.0
  0
LINE
  5
1f9
100
AcDbEntity
  8
gears
 62
7
100
AcDbLine
 10
109.705840
 20
5.045514
 30
0.0
 11
109.628119
 21
5.482648
 31
0.0
  0
LINE
  5
1fa
100
AcDbEntity
  8
gears
 62
7
100
AcDbLine
 10
109.628119
 20
5.482648
 30
0.0
 11
109.429129
 21
5.967703
 31
0.0
  0
LINE
  5
1fb
100
AcDbEntity
  8
gears
 62
7
100
AcDbLine
 10
109.429129
 20
5.967703
 30
0.0
 11
109.076902
 21
5.967703
 31
0.0
  0
LINE
  5
1fc
100
AcDbEntity
  8
gears
 62
7
100
AcDbLine
 10
109.076902
 20
5.967703
 30
0.0
 11
108.878466
 21
5.482648
 31
0.0
  0
LINE
  5
1fd
100
AcDbEntity
  8
gears
 62
7
100
AcDbLine
 10
108.878466
 20
5.482648
 30
0.0
 11
108.800745
 21
5.045514
 31
0.0
  0
LINE
  5
1fe
100
AcDbEntity
  8
gears
 62
7
100
AcDbLine
 10
108.800745
 20
5.045514
 30
0.0
 11
108.804047
 21
4.999766
 31
0.0
  0
LINE
  5
1ff
100
AcDbEntity
  8
gears
 62
7
100
AcDbLine
 10
108.804047
 20
4.999766
 30
0.0
 11
108.202671
 21
4.999766
 31
0.0
  0
LINE
  5
200
100
AcDbEntity
  8
gears
 62
7
100
AcDbLine
 10
108.202671
 20
4.999766
 30
0.0
 11
108.205493
 21
5.045514
 31
0.0
  0
LINE
  5
201
100
AcDbEntity
  8
gears
 62
7
100
AcDbLine
 10
108.205493
 20
5.045514
 30
0.0
 11
108.127772
 21
5.482648
 31
0.0
  0
LINE
  5
202
100
AcDbEntity
  8
gears
 62
7
100
AcDbLine
 10
108.127772
 20
5.482648
 30
0.0
 11
107.929336
 21
5.967703
 31
0.0
  0
LINE
  5
203
100
AcDbEntity
  8
gears
 62
7
100
AcDbLine
 10
107.929336
 20
5.967703
 30
0.0
 11
107.577108
 21
5.967703
 31
0.0
  0
LINE
  5
204
100
AcDbEntity
  8
gears
 62
7
100
AcDbLine
 10
107.577108
 20
5.967703
 30
0.0
 11
107.378669
 21
5.482648
 31
0.0
  0
LINE
  5
205
100
AcDbEntity
  8
gears
 62
7
100
AcDbLine
 10
107.378669
 20
5.482648
 30
0.0
 11
107.300948
 21
5.045514
 31
0.0
  0
LINE
  5
206
100
AcDbEntity
  8
gears
 62
7
100
AcDbLine
 10
107.300948
 20
5.045514
 30
0.0
 11
107.303770
 21
4.999766
 31
0.0
  0
LINE
  5
207
100
AcDbEntity
  8
gears
 62
7
100
AcDbLine
 10
107.303770
 20
4.999766
 30
0.0
 11
106.702394
 21
4.999766
 31
0.0
  0
LINE
  5
208
100
AcDbEntity
  8
gears
 62
7
100
AcDbLine
 10
106.702394
 20
4.999766
 30
0.0
 11
106.705696
 21
5.045514
 31
0.0
  0
LINE
  5
209
100
AcDbEntity
  8
gears
 62
7
100
AcDbLine
 10
106.705696
 20
5.045514
 30
0.0
 11
106.627975
 21
5.482648
 31
0.0
  0
LINE
  5
20a
100
AcDbEntity
  8
gears
 62
7
100
AcDbLine
 10
106.627975
 20
5.482648
 30
0.0
 11
106.429536
 21
5.967703
 31
0.0
  0
LINE
  5
20b
100
AcDbEntity
  8
gears
 62
7
100
AcDbLine
 10
106.429536
 20
5.967703
 30
0.0
 11
106.077312
 21
5.967703
 31
0.0
  0
LINE
  5
20c
100
AcDbEntity
  8
gears
 62
7
100
AcDbLine
 10
106.077312
 20
5.967703
 30
0.0
 11
105.878322
 21
5.482648
 31
0.0
  0
LINE
  5
20d
100
AcDbEntity
  8
gears
 62
7
100
AcDbLine
 10
105.878322
 20
5.482648
 30
0.0
 11
105.800601
 21
5.045514
 31
0.0
  0
LINE
  5
20e
100
AcDbEntity
  8
gears
 62
7
100
AcDbLine
 10
105.800601
 20
5.045514
 30
0.0
 11
105.803903
 21
4.999766
 31
0.0
  0
LINE
  5
20f
100
AcDbEntity
  8
gears
 62
7
100
AcDbLine
 10
105.803903
 20
4.999766
 30
0.0
 11
105.202530
 21
4.999766
 31
0.0
  0
LINE
  5
210
100
AcDbEntity
  8
gears
 62
7
100
AcDbLine
 10
105.202530
 20
4.999766
 30
0.0
 11
105.205832
 21
5.045514
 31
0.0
  0
LINE
  5
211
100
AcDbEntity
  8
gears
 62
7
100
AcDbLine
 10
105.205832
 20
5.045514
 30
0.0
 11
105.128111
 21
5.482648
 31
0.0
  0
LINE
  5
212
100
AcDbEntity
  8
gears
 62
7
100
AcDbLine
 10
105.128111
 20
5.482648
 30
0.0
 11
104.929124
 21
5.967703
 31
0.0
  0
LINE
  5
213
100
AcDbEntity
  8
gears
 62
7
100
AcDbLine
 10
104.929124
 20
5.967703
 30
0.0
 11
104.576897
 21
5.967703
 31
0.0
  0
LINE
  5
214
100
AcDbEntity
  8
gears
 62
7
100
AcDbLine
 10
104.576897
 20
5.967703
 30
0.0
 11
104.378458
 21
5.482648
 31
0.0
  0
LINE
  5
215
100
AcDbEntity
  8
gears
 62
7
100
AcDbLine
 10
104.378458
 20
5.482648
 30
0.0
 11
104.300737
 21
5.045514
 31
0.0
  0
LINE
  5
216
100
AcDbEntity
  8
gears
 62
7
100
AcDbLine
 10
104.300737
 20
5.045514
 30
0.0
 11
104.304039
 21
4.999766
 31
0.0
  0
LINE
  5
217
100
AcDbEntity
  8
gears
 62
7
100
AcDbLine
 10
104.304039
 20
4.999766
 30
0.0
 11
103.702663
 21
4.999766
 31
0.0
  0
LINE
  5
218
100
AcDbEntity
  8
gears
 62
7
100
AcDbLine
 10
103.702663
 20
4.999766
 30
0.0
 11
103.705485
 21
5.045514
 31
0.0
  0
LINE
  5
219
100
AcDbEntity
  8
gears
 62
7
100
AcDbLine
 10
103.705485
 20
5.045514
 30
0.0
 11
103.628314
 21
5.482648
 31
0.0
  0
LINE
  5
21a
100
AcDbEntity
  8
gears
 62
7
100
AcDbLine
 10
103.628314
 20
5.482648
 30
0.0
 11
103.429325
 21
5.967703
 31
0.0
  0
LINE
  5
21b
100
AcDbEntity
  8
gears
 62
7
100
AcDbLine
 10
103.429325
 20
5.967703
 30
0.0
 11
103.077100
 21
5.967703
 31
0.0
  0
LINE
  5
21c
100
AcDbEntity
  8
gears
 62
7
100
AcDbLine
 10
103.077100
 20
5.967703
 30
0.0
 11
102.878661
 21
5.482648
 31
0.0
  0
LINE
  5
21d
100
AcDbEntity
  8
gears
 62
7
100
AcDbLine
 10
102.878661
 20
5.482648
 30
0.0
 11
102.800940
 21
5.045514
 31
0.0
  0
LINE
  5
21e
100
AcDbEntity
  8
gears
 62
7
100
AcDbLine
 10
102.800940
 20
5.045514
 30
0.0
 11
102.804242
 21
4.999766
 31
0.0
  0
LINE
  5
21f
100
AcDbEntity
  8
gears
 62
7
100
AcDbLine
 10
102.804242
 20
4.999766
 30
0.0
 11
102.202316
 21
4.999766
 31
0.0
  0
LINE
  5
220
100
AcDbEntity
  8
gears
 62
7
100
AcDbLine
 10
102.202316
 20
4.999766
 30
0.0
 11
102.205618
 21
5.045514
 31
0.0
  0
LINE
  5
221
100
AcDbEntity
  8
gears
 62
7
100
AcDbLine
 10
102.205618
 20
5.045514
 30
0.0
 11
102.127897
 21
5.482648
 31
0.0
  0
LINE
  5
222
100
AcDbEntity
  8
gears
 62
7
100
AcDbLine
 10
102.127897
 20
5.482648
 30
0.0
 11
101.929461
 21
5.967703
 31
0.0
  0
LINE
  5
223
100
AcDbEntity
  8
gears
 62
7
100
AcDbLine
 10
101.929461
 20
5.967703
 30
0.0
 11
101.577233
 21
5.967703
 31
0.0
  0
LINE
  5
224
100
AcDbEntity
  8
gears
 62
7
100
AcDbLine
 10
101.577233
 20
5.967703
 30
0.0
 11
101.378244
 21
5.482648
 31
0.0
  0
LINE
  5
225
100
AcDbEntity
  8
gears
 62
7
100
AcDbLine
 10
101.378244
 20
5.482648
 30
0.0
 11
101.301076
 21
5.045514
 31
0.0
  0
LINE
  5
226
100
AcDbEntity
  8
gears
 62
7
100
AcDbLine
 10
101.301076
 20
5.045514
 30
0.0
 11
101.303898
 21
4.999766
 31
0.0
  0
LINE
  5
227
100
AcDbEntity
  8
gears
 62
7
100
AcDbLine
 10
101.303898
 20
4.999766
 30
0.0
 11
100.702522
 21
4.999766
 31
0.0
  0
LINE
  5
228
100
AcDbEntity
  8
gears
 62
7
100
AcDbLine
 10
100.702522
 20
4.999766
 30
0.0
 11
100.705824
 21
5.045514
 31
0.0
  0
LINE
  5
229
100
AcDbEntity
  8
gears
 62
7
100
AcDbLine
 10
100.705824
 20
5.045514
 30
0.0
 11
100.628103
 21
5.482648
 31
0.0
  0
LINE
  5
22a
100
AcDbEntity
  8
gears
 62
7
100
AcDbLine
 10
100.628103
 20
5.482648
 30
0.0
 11
100.429667
 21
5.967703
 31
0.0
  0
LINE
  5
22b
100
AcDbEntity
  8
gears
 62
7
100
AcDbLine
 10
100.429667
 20
5.967703
 30
0.0
 11
100.077439
 21
5.967703
 31
0.0
  0
LINE
  5
22c
100
AcDbEntity
  8
gears
 62
7
100
AcDbLine
 10
100.077439
 20
5.967703
 30
0.0
 11
99.878450
 21
5.482648
 31
0.0
  0
LINE
  5
22d
100
AcDbEntity
  8
gears
 62
7
100
AcDbLine
 10
99.878450
 20
5.482648
 30
0.0
 11
99.800729
 21
5.045514
 31
0.0
  0
LINE
  5
22e
100
AcDbEntity
  8
gears
 62
7
100
AcDbLine
 10
99.800729
 20
5.045514
 30
0.0
 11
99.804031
 21
4.999766
 31
0.0
  0
LINE
  5
22f
100
AcDbEntity
  8
gears
 62
7
100
AcDbLine
 10
99.804031
 20
4.999766
 30
0.0
 11
99.202655
 21
4.999766
 31
0.0
  0
LINE
  5
230
100
AcDbEntity
  8
gears
 62
7
100
AcDbLine
 10
99.202655
 20
4.999766
 30
0.0
 11
99.205957
 21
5.045514
 31
0.0
  0
LINE
  5
231
100
AcDbEntity
  8
gears
 62
7
100
AcDbLine
 10
99.205957
 20
5.045514
 30
0.0
 11
99.128236
 21
5.482648
 31
0.0
  0
LINE
  5
232
100
AcDbEntity
  8
gears
 62
7
100
AcDbLine
 10
99.128236
 20
5.482648
 30
0.0
 11
98.929246
 21
5.967703
 31
0.0
  0
LINE
  5
233
100
AcDbEntity
  8
gears
 62
7
100
AcDbLine
 10
98.929246
 20
5.967703
 30
0.0
 11
98.577019
 21
5.967703
 31
0.0
  0
LINE
  5
234
100
AcDbEntity
  8
gears
 62
7
100
AcDbLine
 10
98.577019
 20
5.967703
 30
0.0
 11
98.378583
 21
5.482648
 31
0.0
  0
LINE
  5
235
100
AcDbEntity
  8
gears
 62
7
100
AcDbLine
 10
98.378583
 20
5.482648
 30
0.0
 11
98.300862
 21
5.045514
 31
0.0
  0
LINE
  5
236
100
AcDbEntity
  8
gears
 62
7
100
AcDbLine
 10
98.300862
 20
5.045514
 30
0.0
 11
98.304164
 21
4.999766
 31
0.0
  0
LINE
  5
237
100
AcDbEntity
  8
gears
 62
7
100
AcDbLine
 10
98.304164
 20
4.999766
 30
0.0
 11
97.702788
 21
4.999766
 31
0.0
  0
LINE
  5
238
100
AcDbEntity
  8
gears
 62
7
100
AcDbLine
 10
97.702788
 20
4.999766
 30
0.0
 11
97.705610
 21
5.045514
 31
0.0
  0
LINE
  5
239
100
AcDbEntity
  8
gears
 62
7
100
AcDbLine
 10
97.705610
 20
5.045514
 30
0.0
 11
97.627889
 21
5.482648
 31
0.0
  0
LINE
  5
23a
100
AcDbEntity
  8
gears
 62
7
100
AcDbLine
 10
97.627889
 20
5.482648
 30
0.0
 11
97.429453
 21
5.967703
 31
0.0
  0
LINE
  5
23b
100
AcDbEntity
  8
gears
 62
7
100
AcDbLine
 10
97.429453
 20
5.967703
 30
0.0
 11
97.077225
 21
5.967703
 31
0.0
  0
LINE
  5
23c
100
AcDbEntity
  8
gears
 62
7
100
AcDbLine
 10
97.077225
 20
5.967703
 30
0.0
 11
96.878786
 21
5.482648
 31
0.0
  0
LINE
  5
23d
100
AcDbEntity
  8
gears
 62
7
100
AcDbLine
 10
96.878786
 20
5.482648
 30
0.0
 11
96.801065
 21
5.045514
 31
0.0
  0
LINE
  5
23e
100
AcDbEntity
  8
gears
 62
7
100
AcDbLine
 10
96.801065
 20
5.045514
 30
0.0
 11
96.803887
 21
4.999766
 31
0.0
  0
LINE
  5
23f
100
AcDbEntity
  8
gears
 62
7
100
AcDbLine
 10
96.803887
 20
4.999766
 30
0.0
 11
96.202511
 21
4.999766
 31
0.0
  0
LINE
  5
240
100
AcDbEntity
  8
gears
 62
7
100
AcDbLine
 10
96.202511
 20
4.999766
 30
0.0
 11
96.205813
 21
5.045514
 31
0.0
  0
LINE
  5
241
100
AcDbEntity
  8
gears
 62
7
100
AcDbLine
 10
96.205813
 20
5.045514
 30
0.0
 11
96.128092
 21
5.482648
 31
0.0
  0
LINE
  5
242
100
AcDbEntity
  8
gears
 62
7
100
AcDbLine
 10
96.128092
 20
5.482648
 30
0.0
 11
95.929653
 21
5.967703
 31
0.0
  0
LINE
  5
243
100
AcDbEntity
  8
gears
 62
7
100
AcDbLine
 10
95.929653
 20
5.967703
 30
0.0
 11
95.577429
 21
5.967703
 31
0.0
  0
LINE
  5
244
100
AcDbEntity
  8
gears
 62
7
100
AcDbLine
 10
95.577429
 20
5.967703
 30
0.0
 11
95.378439
 21
5.482648
 31
0.0
  0
LINE
  5
245
100
AcDbEntity
  8
gears
 62
7
100
AcDbLine
 10
95.378439
 20
5.482648
 30
0.0
 11
95.301268
 21
5.045514
 31
0.0
  0
LINE
  5
246
100
AcDbEntity
  8
gears
 62
7
100
AcDbLine
 10
95.301268
 20
5.045514
 30
0.0
 11
95.304570
 21
4.999766
 31
0.0
  0
LINE
  5
247
100
AcDbEntity
  8
gears
 62
7
100
AcDbLine
 10
95.304570
 20
4.999766
 30
0.0
 11
94.703194
 21
4.999766
 31
0.0
  0
LINE
  5
248
100
AcDbEntity
  8
gears
 62
7
100
AcDbLine
 10
94.703194
 20
4.999766
 30
0.0
 11
94.706496
 21
5.045514
 31
0.0
  0
LINE
  5
249
100
AcDbEntity
  8
gears
 62
7
100
AcDbLine
 10
94.706496
 20
5.045514
 30
0.0
 11
94.628775
 21
5.482648
 31
0.0
  0
LINE
  5
24a
100
AcDbEntity
  8
gears
 62
7
100
AcDbLine
 10
94.628775
 20
5.482648
 30
0.0
 11
94.429786
 21
5.967703
 31
0.0
  0
LINE
  5
24b
100
AcDbEntity
  8
gears
 62
7
100
AcDbLine
 10
94.429786
 20
5.967703
 30
0.0
 11
94.077559
 21
5.967703
 31
0.0
  0
LINE
  5
24c
100
AcDbEntity
  8
gears
 62
7
100
AcDbLine
 10
94.077559
 20
5.967703
 30
0.0
 11
93.879122
 21
5.482648
 31
0.0
  0
LINE
  5
24d
100
AcDbEntity
  8
gears
 62
7
100
AcDbLine
 10
93.879122
 20
5.482648
 30
0.0
 11
93.801401
 21
5.045514
 31
0.0
  0
LINE
  5
24e
100
AcDbEntity
  8
gears
 62
7
100
AcDbLine
 10
93.801401
 20
5.045514
 30
0.0
 11
93.804224
 21
4.999766
 31
0.0
  0
LINE
  5
24f
100
AcDbEntity
  8
gears
 62
7
100
AcDbLine
 10
93.804224
 20
4.999766
 30
0.0
 11
93.203401
 21
4.999766
 31
0.0
  0
LINE
  5
250
100
AcDbEntity
  8
gears
 62
7
100
AcDbLine
 10
93.203401
 20
4.999766
 30
0.0
 11
93.206223
 21
5.045514
 31
0.0
  0
LINE
  5
251
100
AcDbEntity
  8
gears
 62
7
100
AcDbLine
 10
93.206223
 20
5.045514
 30
0.0
 11
93.129055
 21
5.482648
 31
0.0
  0
LINE
  5
252
100
AcDbEntity
  8
gears
 62
7
100
AcDbLine
 10
93.129055
 20
5.482648
 30
0.0
 11
92.930066
 21
5.967703
 31
0.0
  0
LINE
  5
253
100
AcDbEntity
  8
gears
 62
7
100
AcDbLine
 10
92.930066
 20
5.967703
 30
0.0
 11
92.577838
 21
5.967703
 31
0.0
  0
LINE
  5
254
100
AcDbEntity
  8
gears
 62
7
100
AcDbLine
 10
92.577838
 20
5.967703
 30
0.0
 11
92.379402
 21
5.482648
 31
0.0
  0
LINE
  5
255
100
AcDbEntity
  8
gears
 62
7
100
AcDbLine
 10
92.379402
 20
5.482648
 30
0.0
 11
92.301681
 21
5.045514
 31
0.0
  0
LINE
  5
256
100
AcDbEntity
  8
gears
 62
7
100
AcDbLine
 10
92.301681
 20
5.045514
 30
0.0
 11
92.304983
 21
4.999766
 31
0.0
  0
LINE
  5
257
100
AcDbEntity
  8
gears
 62
7
100
AcDbLine
 10
92.304983
 20
4.999766
 30
0.0
 11
91.703607
 21
4.999766
 31
0.0
  0
LINE
  5
258
100
AcDbEntity
  8
gears
 62
7
100
AcDbLine
 10
91.703607
 20
4.999766
 30
0.0
 11
91.706429
 21
5.045514
 31
0.0
  0
LINE
  5
259
100
AcDbEntity
  8
gears
 62
7
100
AcDbLine
 10
91.706429
 20
5.045514
 30
0.0
 11
91.628708
 21
5.482648
 31
0.0
  0
LINE
  5
25a
100
AcDbEntity
  8
gears
 62
7
100
AcDbLine
 10
91.628708
 20
5.482648
 30
0.0
 11
91.430269
 21
5.967703
 31
0.0
  0
LINE
  5
25b
100
AcDbEntity
  8
gears
 62
7
100
AcDbLine
 10
91.430269
 20
5.967703
 30
0.0
 11
91.078044
 21
5.967703
 31
0.0
  0
LINE
  5
25c
100
AcDbEntity
  8
gears
 62
7
100
AcDbLine
 10
91.078044
 20
5.967703
 30
0.0
 11
90.879055
 21
5.482648
 31
0.0
  0
LINE
  5
25d
100
AcDbEntity
  8
gears
 62
7
100
AcDbLine
 10
90.879055
 20
5.482648
 30
0.0
 11
90.801884
 21
5.045514
 31
0.0
  0
LINE
  5
25e
100
AcDbEntity
  8
gears
 62
7
100
AcDbLine
 10
90.801884
 20
5.045514
 30
0.0
 11
90.804706
 21
4.999766
 31
0.0
  0
LINE
  5
25f
100
AcDbEntity
  8
gears
 62
7
100
AcDbLine
 10
90.804706
 20
4.999766
 30
0.0
 11
90.203330
 21
4.999766
 31
0.0
  0
LINE
  5
260
100
AcDbEntity
  8
gears
 62
7
100
AcDbLine
 10
90.203330
 20
4.999766
 30
0.0
 11
90.206632
 21
5.045514
 31
0.0
  0
LINE
  5
261
100
AcDbEntity
  8
gears
 62
7
100
AcDbLine
 10
90.206632
 20
5.045514
 30
0.0
 11
90.128911
 21
5.482648
 31
0.0
  0
LINE
  5
262
100
AcDbEntity
  8
gears
 62
7
100
AcDbLine
 10
90.128911
 20
5.482648
 30
0.0
 11
89.930472
 21
5.967703
 31
0.0
  0
LINE
  5
263
100
AcDbEntity
  8
gears
 62
7
100
AcDbLine
 10
89.930472
 20
5.967703
 30
0.0
 11
89.578245
 21
5.967703
 31
0.0
  0
LINE
  5
264
100
AcDbEntity
  8
gears
 62
7
100
AcDbLine
 10
89.578245
 20
5.967703
 30
0.0
 11
89.379258
 21
5.482648
 31
0.0
  0
LINE
  5
265
100
AcDbEntity
  8
gears
 62
7
100
AcDbLine
 10
89.379258
 20
5.482648
 30
0.0
 11
89.301537
 21
5.045514
 31
0.0
  0
LINE
  5
266
100
AcDbEntity
  8
gears
 62
7
100
AcDbLine
 10
89.301537
 20
5.045514
 30
0.0
 11
89.304839
 21
4.999766
 31
0.0
  0
LINE
  5
267
100
AcDbEntity
  8
gears
 62
7
100
AcDbLine
 10
89.304839
 20
4.999766
 30
0.0
 11
88.703466
 21
4.999766
 31
0.0
  0
LINE
  5
268
100
AcDbEntity
  8
gears
 62
7
100
AcDbLine
 10
88.703466
 20
4.999766
 30
0.0
 11
88.706768
 21
5.045514
 31
0.0
  0
LINE
  5
269
100
AcDbEntity
  8
gears
 62
7
100
AcDbLine
 10
88.706768
 20
5.045514
 30
0.0
 11
88.629047
 21
5.482648
 31
0.0
  0
LINE
  5
26a
100
AcDbEntity
  8
gears
 62
7
100
AcDbLine
 10
88.629047
 20
5.482648
 30
0.0
 11
88.430058
 21
5.967703
 31
0.0
  0
LINE
  5
26b
100
AcDbEntity
  8
gears
 62
7
100
AcDbLine
 10
88.430058
 20
5.967703
 30
0.0
 11
88.078383
 21
5.967703
 31
0.0
  0
LINE
  5
26c
100
AcDbEntity
  8
gears
 62
7
100
AcDbLine
 10
88.078383
 20
5.967703
 30
0.0
 11
87.879394
 21
5.482648
 31
0.0
  0
LINE
  5
26d
100
AcDbEntity
  8
gears
 62
7
100
AcDbLine
 10
87.879394
 20
5.482648
 30
0.0
 11
87.801673
 21
5.045514
 31
0.0
  0
LINE
  5
26e
100
AcDbEntity
  8
gears
 62
7
100
AcDbLine
 10
87.801673
 20
5.045514
 30
0.0
 11
87.804975
 21
4.999766
 31
0.0
  0
LINE
  5
26f
100
AcDbEntity
  8
gears
 62
7
100
AcDbLine
 10
87.804975
 20
4.999766
 30
0.0
 11
87.203599
 21
4.999766
 31
0.0
  0
LINE
  5
270
100
AcDbEntity
  8
gears
 62
7
100
AcDbLine
 10
87.203599
 20
4.999766
 30
0.0
 11
87.206421
 21
5.045514
 31
0.0
  0
LINE
  5
271
100
AcDbEntity
  8
gears
 62
7
100
AcDbLine
 10
87.206421
 20
5.045514
 30
0.0
 11
87.129250
 21
5.482648
 31
0.0
  0
LINE
  5
272
100
AcDbEntity
  8
gears
 62
7
100
AcDbLine
 10
87.129250
 20
5.482648
 30
0.0
 11
86.930261
 21
5.967703
 31
0.0
  0
LINE
  5
273
100
AcDbEntity
  8
gears
 62
7
100
AcDbLine
 10
86.930261
 20
5.967703
 30
0.0
 11
86.578587
 21
5.967703
 31
0.0
  0
LINE
  5
274
100
AcDbEntity
  8
gears
 62
7
100
AcDbLine
 10
86.578587
 20
5.967703
 30
0.0
 11
86.379598
 21
5.482648
 31
0.0
  0
LINE
  5
275
100
AcDbEntity
  8
gears
 62
7
100
AcDbLine
 10
86.379598
 20
5.482648
 30
0.0
 11
86.301876
 21
5.045514
 31
0.0
  0
LINE
  5
276
100
AcDbEntity
  8
gears
 62
7
100
AcDbLine
 10
86.301876
 20
5.045514
 30
0.0
 11
86.304699
 21
4.999766
 31
0.0
  0
LINE
  5
277
100
AcDbEntity
  8
gears
 62
7
100
AcDbLine
 10
86.304699
 20
4.999766
 30
0.0
 11
85.703323
 21
4.999766
 31
0.0
  0
LINE
  5
278
100
AcDbEntity
  8
gears
 62
7
100
AcDbLine
 10
85.703323
 20
4.999766
 30
0.0
 11
85.706625
 21
5.045514
 31
0.0
  0
LINE
  5
279
100
AcDbEntity
  8
gears
 62
7
100
AcDbLine
 10
85.706625
 20
5.045514
 30
0.0
 11
85.629456
 21
5.482648
 31
0.0
  0
LINE
  5
27a
100
AcDbEntity
  8
gears
 62
7
100
AcDbLine
 10
85.629456
 20
5.482648
 30
0.0
 11
85.430467
 21
5.967703
 31
0.0
  0
LINE
  5
27b
100
AcDbEntity
  8
gears
 62
7
100
AcDbLine
 10
85.430467
 20
5.967703
 30
0.0
 11
85.078240
 21
5.967703
 31
0.0
  0
LINE
  5
27c
100
AcDbEntity
  8
gears
 62
7
100
AcDbLine
 10
85.078240
 20
5.967703
 30
0.0
 11
84.879251
 21
5.482648
 31
0.0
  0
LINE
  5
27d
100
AcDbEntity
  8
gears
 62
7
100
AcDbLine
 10
84.879251
 20
5.482648
 30
0.0
 11
84.802083
 21
5.045514
 31
0.0
  0
LINE
  5
27e
100
AcDbEntity
  8
gears
 62
7
100
AcDbLine
 10
84.802083
 20
5.045514
 30
0.0
 11
84.804905
 21
4.999766
 31
0.0
  0
LINE
  5
27f
100
AcDbEntity
  8
gears
 62
7
100
AcDbLine
 10
84.804905
 20
4.999766
 30
0.0
 11
84.203529
 21
4.999766
 31
0.0
  0
LINE
  5
280
100
AcDbEntity
  8
gears
 62
7
100
AcDbLine
 10
84.203529
 20
4.999766
 30
0.0
 11
84.206831
 21
5.045514
 31
0.0
  0
LINE
  5
281
100
AcDbEntity
  8
gears
 62
7
100
AcDbLine
 10
84.206831
 20
5.045514
 30
0.0
 11
84.129110
 21
5.482648
 31
0.0
  0
LINE
  5
282
100
AcDbEntity
  8
gears
 62
7
100
AcDbLine
 10
84.129110
 20
5.482648
 30
0.0
 11
83.930673
 21
5.967703
 31
0.0
  0
LINE
  5
283
100
AcDbEntity
  8
gears
 62
7
100
AcDbLine
 10
83.930673
 20
5.967703
 30
0.0
 11
83.578446
 21
5.967703
 31
0.0
  0
LINE
  5
284
100
AcDbEntity
  8
gears
 62
7
100
AcDbLine
 10
83.578446
 20
5.967703
 30
0.0
 11
83.379457
 21
5.482648
 31
0.0
  0
LINE
  5
285
100
AcDbEntity
  8
gears
 62
7
100
AcDbLine
 10
83.379457
 20
5.482648
 30
0.0
 11
83.302286
 21
5.045514
 31
0.0
  0
LINE
  5
286
100
AcDbEntity
  8
gears
 62
7
100
AcDbLine
 10
83.302286
 20
5.045514
 30
0.0
 11
83.305108
 21
4.999766
 31
0.0
  0
LINE
  5
287
100
AcDbEntity
  8
gears
 62
7
100
AcDbLine
 10
83.305108
 20
4.999766
 30
0.0
 11
82.703732
 21
4.999766
 31
0.0
  0
LINE
  5
288
100
AcDbEntity
  8
gears
 62
7
100
AcDbLine
 10
82.703732
 20
4.999766
 30
0.0
 11
82.706554
 21
5.045514
 31
0.0
  0
LINE
  5
289
100
AcDbEntity
  8
gears
 62
7
100
AcDbLine
 10
82.706554
 20
5.045514
 30
0.0
 11
82.629383
 21
5.482648
 31
0.0
  0
LINE
  5
28a
100
AcDbEntity
  8
gears
 62
7
100
AcDbLine
 10
82.629383
 20
5.482648
 30
0.0
 11
82.430394
 21
5.967703
 31
0.0
  0
LINE
  5
28b
100
AcDbEntity
  8
gears
 62
7
100
AcDbLine
 10
82.430394
 20
5.967703
 30
0.0
 11
82.078720
 21
5.967703
 31
0.0
  0
LINE
  5
28c
100
AcDbEntity
  8
gears
 62
7
100
AcDbLine
 10
82.078720
 20
5.967703
 30
0.0
 11
81.879731
 21
5.482648
 31
0.0
  0
LINE
  5
28d
100
AcDbEntity
  8
gears
 62
7
100
AcDbLine
 10
81.879731
 20
5.482648
 30
0.0
 11
81.802560
 21
5.045514
 31
0.0
  0
LINE
  5
28e
100
AcDbEntity
  8
gears
 62
7
100
AcDbLine
 10
81.802560
 20
5.045514
 30
0.0
 11
81.805862
 21
4.999766
 31
0.0
  0
LINE
  5
28f
100
AcDbEntity
  8
gears
 62
7
100
AcDbLine
 10
81.805862
 20
4.999766
 30
0.0
 11
81.204486
 21
4.999766
 31
0.0
  0
LINE
  5
290
100
AcDbEntity
  8
gears
 62
7
100
AcDbLine
 10
81.204486
 20
4.999766
 30
0.0
 11
81.207308
 21
5.045514
 31
0.0
  0
LINE
  5
291
100
AcDbEntity
  8
gears
 62
7
100
AcDbLine
 10
81.207308
 20
5.045514
 30
0.0
 11
81.130137
 21
5.482648
 31
0.0
  0
LINE
  5
292
100
AcDbEntity
  8
gears
 62
7
100
AcDbLine
 10
81.130137
 20
5.482648
 30
0.0
 11
80.931148
 21
5.967703
 31
0.0
  0
LINE
  5
293
100
AcDbEntity
  8
gears
 62
7
100
AcDbLine
 10
80.931148
 20
5.967703
 30
0.0
 11
80.578920
 21
5.967703
 31
0.0
  0
LINE
  5
294
100
AcDbEntity
  8
gears
 62
7
100
AcDbLine
 10
80.578920
 20
5.967703
 30
0.0
 11
80.380484
 21
5.482648
 31
0.0
  0
LINE
  5
295
100
AcDbEntity
  8
gears
 62
7
100
AcDbLine
 10
80.380484
 20
5.482648
 30
0.0
 11
80.302763
 21
5.045514
 31
0.0
  0
LINE
  5
296
100
AcDbEntity
  8
gears
 62
7
100
AcDbLine
 10
80.302763
 20
5.045514
 30
0.0
 11
80.306065
 21
4.999766
 31
0.0
  0
LINE
  5
297
100
AcDbEntity
  8
gears
 62
7
100
AcDbLine
 10
80.306065
 20
4.999766
 30
0.0
 11
79.704689
 21
4.999766
 31
0.0
  0
LINE
  5
298
100
AcDbEntity
  8
gears
 62
7
100
AcDbLine
 10
79.704689
 20
4.999766
 30
0.0
 11
79.707511
 21
5.045514
 31
0.0
  0
LINE
  5
299
100
AcDbEntity
  8
gears
 62
7
100
AcDbLine
 10
79.707511
 20
5.045514
 30
0.0
 11
79.630341
 21
5.482648
 31
0.0
  0
LINE
  5
29a
100
AcDbEntity
  8
gears
 62
7
100
AcDbLine
 10
79.630341
 20
5.482648
 30
0.0
 11
79.431354
 21
5.967703
 31
0.0
  0
LINE
  5
29b
100
AcDbEntity
  8
gears
 62
7
100
AcDbLine
 10
79.431354
 20
5.967703
 30
0.0
 11
79.079127
 21
5.967703
 31
0.0
  0
LINE
  5
29c
100
AcDbEntity
  8
gears
 62
7
100
AcDbLine
 10
79.079127
 20
5.967703
 30
0.0
 11
78.880137
 21
5.482648
 31
0.0
  0
LINE
  5
29d
100
AcDbEntity
  8
gears
 62
7
100
AcDbLine
 10
78.880137
 20
5.482648
 30
0.0
 11
78.802967
 21
5.045514
 31
0.0
  0
LINE
  5
29e
100
AcDbEntity
  8
gears
 62
7
100
AcDbLine
 10
78.802967
 20
5.045514
 30
0.0
 11
78.806269
 21
4.999766
 31
0.0
  0
LINE
  5
29f
100
AcDbEntity
  8
gears
 62
7
100
AcDbLine
 10
78.806269
 20
4.999766
 30
0.0
 11
78.204893
 21
4.999766
 31
0.0
  0
LINE
  5
2a0
100
AcDbEntity
  8
gears
 62
7
100
AcDbLine
 10
78.204893
 20
4.999766
 30
0.0
 11
78.207715
 21
5.045514
 31
0.0
  0
LINE
  5
2a1
100
AcDbEntity
  8
gears
 62
7
100
AcDbLine
 10
78.207715
 20
5.045514
 30
0.0
 11
78.129994
 21
5.482648
 31
0.0
  0
LINE
  5
2a2
100
AcDbEntity
  8
gears
 62
7
100
AcDbLine
 10
78.129994
 20
5.482648
 30
0.0
 11
77.931004
 21
5.967703
 31
0.0
  0
LINE
  5
2a3
100
AcDbEntity
  8
gears
 62
7
100
AcDbLine
 10
77.931004
 20
5.967703
 30
0.0
 11
77.579330
 21
5.967703
 31
0.0
  0
LINE
  5
2a4
100
AcDbEntity
  8
gears
 62
7
100
AcDbLine
 10
77.579330
 20
5.967703
 30
0.0
 11
77.380341
 21
5.482648
 31
0.0
  0
LINE
  5
2a5
100
AcDbEntity
  8
gears
 62
7
100
AcDbLine
 10
77.380341
 20
5.482648
 30
0.0
 11
77.303170
 21
5.045514
 31
0.0
  0
LINE
  5
2a6
100
AcDbEntity
  8
gears
 62
7
100
AcDbLine
 10
77.303170
 20
5.045514
 30
0.0
 11
77.305992
 21
4.999766
 31
0.0
  0
LINE
  5
2a7
100
AcDbEntity
  8
gears
 62
7
100
AcDbLine
 10
77.305992
 20
4.999766
 30
0.0
 11
76.704616
 21
4.999766
 31
0.0
  0
LINE
  5
2a8
100
AcDbEntity
  8
gears
 62
7
100
AcDbLine
 10
76.704616
 20
4.999766
 30
0.0
 11
76.707438
 21
5.045514
 31
0.0
  0
LINE
  5
2a9
100
AcDbEntity
  8
gears
 62
7
100
AcDbLine
 10
76.707438
 20
5.045514
 30
0.0
 11
76.630268
 21
5.482648
 31
0.0
  0
LINE
  5
2aa
100
AcDbEntity
  8
gears
 62
7
100
AcDbLine
 10
76.630268
 20
5.482648
 30
0.0
 11
76.431281
 21
5.967703
 31
0.0
  0
LINE
  5
2ab
100
AcDbEntity
  8
gears
 62
7
100
AcDbLine
 10
76.431281
 20
5.967703
 30
0.0
 11
76.079604
 21
5.967703
 31
0.0
  0
LINE
  5
2ac
100
AcDbEntity
  8
gears
 62
7
100
AcDbLine
 10
76.079604
 20
5.967703
 30
0.0
 11
75.880618
 21
5.482648
 31
0.0
  0
LINE
  5
2ad
100
AcDbEntity
  8
gears
 62
7
100
AcDbLine
 10
75.880618
 20
5.482648
 30
0.0
 11
75.802894
 21
5.045514
 31
0.0
  0
LINE
  5
2ae
100
AcDbEntity
  8
gears
 62
7
100
AcDbLine
 10
75.802894
 20
5.045514
 30
0.0
 11
75.806196
 21
4.999766
 31
0.0
  0
LINE
  5
2af
100
AcDbEntity
  8
gears
 62
7
100
AcDbLine
 10
75.806196
 20
4.999766
 30
0.0
 11
75.204820
 21
4.999766
 31
0.0
  0
LINE
  5
2b0
100
AcDbEntity
  8
gears
 62
7
100
AcDbLine
 10
75.204820
 20
4.999766
 30
0.0
 11
75.207642
 21
5.045514
 31
0.0
  0
LINE
  5
2b1
100
AcDbEntity
  8
gears
 62
7
100
AcDbLine
 10
75.207642
 20
5.045514
 30
0.0
 11
75.130471
 21
5.482648
 31
0.0
  0
LINE
  5
2b2
100
AcDbEntity
  8
gears
 62
7
100
AcDbLine
 10
75.130471
 20
5.482648
 30
0.0
 11
74.931482
 21
5.967703
 31
0.0
  0
LINE
  5
2b3
100
AcDbEntity
  8
gears
 62
7
100
AcDbLine
 10
74.931482
 20
5.967703
 30
0.0
 11
74.579257
 21
5.967703
 31
0.0
  0
LINE
  5
2b4
100
AcDbEntity
  8
gears
 62
7
100
AcDbLine
 10
74.579257
 20
5.967703
 30
0.0
 11
74.380818
 21
5.482648
 31
0.0
  0
LINE
  5
2b5
100
AcDbEntity
  8
gears
 62
7
100
AcDbLine
 10
74.380818
 20
5.482648
 30
0.0
 11
74.303097
 21
5.045514
 31
0.0
  0
LINE
  5
2b6
100
AcDbEntity
  8
gears
 62
7
100
AcDbLine
 10
74.303097
 20
5.045514
 30
0.0
 11
74.306399
 21
4.999766
 31
0.0
  0
LINE
  5
2b7
100
AcDbEntity
  8
gears
 62
7
100
AcDbLine
 10
74.306399
 20
4.999766
 30
0.0
 11
73.705023
 21
4.999766
 31
0.0
  0
LINE
  5
2b8
100
AcDbEntity
  8
gears
 62
7
100
AcDbLine
 10
73.705023
 20
4.999766
 30
0.0
 11
73.707845
 21
5.045514
 31
0.0
  0
LINE
  5
2b9
100
AcDbEntity
  8
gears
 62
7
100
AcDbLine
 10
73.707845
 20
5.045514
 30
0.0
 11
73.630674
 21
5.482648
 31
0.0
  0
LINE
  5
2ba
100
AcDbEntity
  8
gears
 62
7
100
AcDbLine
 10
73.630674
 20
5.482648
 30
0.0
 11
73.431685
 21
5.967703
 31
0.0
  0
LINE
  5
2bb
100
AcDbEntity
  8
gears
 62
7
100
AcDbLine
 10
73.431685
 20
5.967703
 30
0.0
 11
73.079458
 21
5.967703
 31
0.0
  0
LINE
  5
2bc
100
AcDbEntity
  8
gears
 62
7
100
AcDbLine
 10
73.079458
 20
5.967703
 30
0.0
 11
72.881022
 21
5.482648
 31
0.0
  0
LINE
  5
2bd
100
AcDbEntity
  8
gears
 62
7
100
AcDbLine
 10
72.881022
 20
5.482648
 30
0.0
 11
72.803300
 21
5.045514
 31
0.0
  0
LINE
  5
2be
100
AcDbEntity
  8
gears
 62
7
100
AcDbLine
 10
72.803300
 20
5.045514
 30
0.0
 11
72.806123
 21
4.999766
 31
0.0
  0
LINE
  5
2bf
100
AcDbEntity
  8
gears
 62
7
100
AcDbLine
 10
72.806123
 20
4.999766
 30
0.0
 11
72.204747
 21
4.999766
 31
0.0
  0
LINE
  5
2c0
100
AcDbEntity
  8
gears
 62
7
100
AcDbLine
 10
72.204747
 20
4.999766
 30
0.0
 11
72.208049
 21
5.045514
 31
0.0
  0
LINE
  5
2c1
100
AcDbEntity
  8
gears
 62
7
100
AcDbLine
 10
72.208049
 20
5.045514
 30
0.0
 11
72.130327
 21
5.482648
 31
0.0
  0
LINE
  5
2c2
100
AcDbEntity
  8
gears
 62
7
100
AcDbLine
 10
72.130327
 20
5.482648
 30
0.0
 11
71.931338
 21
5.967703
 31
0.0
  0
LINE
  5
2c3
100
AcDbEntity
  8
gears
 62
7
100
AcDbLine
 10
71.931338
 20
5.967703
 30
0.0
 11
71.579664
 21
5.967703
 31
0.0
  0
LINE
  5
2c4
100
AcDbEntity
  8
gears
 62
7
100
AcDbLine
 10
71.579664
 20
5.967703
 30
0.0
 11
71.380675
 21
5.482648
 31
0.0
  0
LINE
  5
2c5
100
AcDbEntity
  8
gears
 62
7
100
AcDbLine
 10
71.380675
 20
5.482648
 30
0.0
 11
71.303504
 21
5.045514
 31
0.0
  0
LINE
  5
2c6
100
AcDbEntity
  8
gears
 62
7
100
AcDbLine
 10
71.303504
 20
5.045514
 30
0.0
 11
71.306806
 21
4.999766
 31
0.0
  0
LINE
  5
2c7
100
AcDbEntity
  8
gears
 62
7
100
AcDbLine
 10
71.306806
 20
4.999766
 30
0.0
 11
70.705430
 21
4.999766
 31
0.0
  0
LINE
  5
2c8
100
AcDbEntity
  8
gears
 62
7
100
AcDbLine
 10
70.705430
 20
4.999766
 30
0.0
 11
70.708732
 21
5.045514
 31
0.0
  0
LINE
  5
2c9
100
AcDbEntity
  8
gears
 62
7
100
AcDbLine
 10
70.708732
 20
5.045514
 30
0.0
 11
70.631010
 21
5.482648
 31
0.0
  0
LINE
  5
2ca
100
AcDbEntity
  8
gears
 62
7
100
AcDbLine
 10
70.631010
 20
5.482648
 30
0.0
 11
70.432574
 21
5.967703
 31
0.0
  0
LINE
  5
2cb
100
AcDbEntity
  8
gears
 62
7
100
AcDbLine
 10
70.432574
 20
5.967703
 30
0.0
 11
70.080347
 21
5.967703
 31
0.0
  0
LINE
  5
2cc
100
AcDbEntity
  8
gears
 62
7
100
AcDbLine
 10
70.080347
 20
5.967703
 30
0.0
 11
69.881358
 21
5.482648
 31
0.0
  0
LINE
  5
2cd
100
AcDbEntity
  8
gears
 62
7
100
AcDbLine
 10
69.881358
 20
5.482648
 30
0.0
 11
69.803637
 21
5.045514
 31
0.0
  0
LINE
  5
2ce
100
AcDbEntity
  8
gears
 62
7
100
AcDbLine
 10
69.803637
 20
5.045514
 30
0.0
 11
69.806939
 21
4.999766
 31
0.0
  0
LINE
  5
2cf
100
AcDbEntity
  8
gears
 62
7
100
AcDbLine
 10
69.806939
 20
4.999766
 30
0.0
 11
69.205562
 21
4.999766
 31
0.0
  0
LINE
  5
2d0
100
AcDbEntity
  8
gears
 62
7
100
AcDbLine
 10
69.205562
 20
4.999766
 30
0.0
 11
69.208385
 21
5.045514
 31
0.0
  0
LINE
  5
2d1
100
AcDbEntity
  8
gears
 62
7
100
AcDbLine
 10
69.208385
 20
5.045514
 30
0.0
 11
69.131214
 21
5.482648
 31
0.0
  0
LINE
  5
2d2
100
AcDbEntity
  8
gears
 62
7
100
AcDbLine
 10
69.131214
 20
5.482648
 30
0.0
 11
68.932225
 21
5.967703
 31
0.0
  0
LINE
  5
2d3
100
AcDbEntity
  8
gears
 62
7
100
AcDbLine
 10
68.932225
 20
5.967703
 30
0.0
 11
68.579997
 21
5.967703
 31
0.0
  0
LINE
  5
2d4
100
AcDbEntity
  8
gears
 62
7
100
AcDbLine
 10
68.579997
 20
5.967703
 30
0.0
 11
68.381561
 21
5.482648
 31
0.0
  0
LINE
  5
2d5
100
AcDbEntity
  8
gears
 62
7
100
AcDbLine
 10
68.381561
 20
5.482648
 30
0.0
 11
68.303840
 21
5.045514
 31
0.0
  0
LINE
  5
2d6
100
AcDbEntity
  8
gears
 62
7
100
AcDbLine
 10
68.303840
 20
5.045514
 30
0.0
 11
68.307142
 21
4.999766
 31
0.0
  0
LINE
  5
2d7
100
AcDbEntity
  8
gears
 62
7
100
AcDbLine
 10
68.307142
 20
4.999766
 30
0.0
 11
67.705766
 21
4.999766
 31
0.0
  0
LINE
  5
2d8
100
AcDbEntity
  8
gears
 62
7
100
AcDbLine
 10
67.705766
 20
4.999766
 30
0.0
 11
67.708588
 21
5.045514
 31
0.0
  0
LINE
  5
2d9
100
AcDbEntity
  8
gears
 62
7
100
AcDbLine
 10
67.708588
 20
5.045514
 30
0.0
 11
67.630867
 21
5.482648
 31
0.0
  0
LINE
  5
2da
100
AcDbEntity
  8
gears
 62
7
100
AcDbLine
 10
67.630867
 20
5.482648
 30
0.0
 11
67.432431
 21
5.967703
 31
0.0
  0
LINE
  5
2db
100
AcDbEntity
  8
gears
 62
7
100
AcDbLine
 10
67.432431
 20
5.967703
 30
0.0
 11
67.080203
 21
5.967703
 31
0.0
  0
LINE
  5
2dc
100
AcDbEntity
  8
gears
 62
7
100
AcDbLine
 10
67.080203
 20
5.967703
 30
0.0
 11
66.881767
 21
5.482648
 31
0.0
  0
LINE
  5
2dd
100
AcDbEntity
  8
gears
 62
7
100
AcDbLine
 10
66.881767
 20
5.482648
 30
0.0
 11
66.804046
 21
5.045514
 31
0.0
  0
LINE
  5
2de
100
AcDbEntity
  8
gears
 62
7
100
AcDbLine
 10
66.804046
 20
5.045514
 30
0.0
 11
66.806868
 21
4.999766
 31
0.0
  0
LINE
  5
2df
100
AcDbEntity
  8
gears
 62
7
100
AcDbLine
 10
66.806868
 20
4.999766
 30
0.0
 11
66.205492
 21
4.999766
 31
0.0
  0
LINE
  5
2e0
100
AcDbEntity
  8
gears
 62
7
100
AcDbLine
 10
66.205492
 20
4.999766
 30
0.0
 11
66.208794
 21
5.045514
 31
0.0
  0
LINE
  5
2e1
100
AcDbEntity
  8
gears
 62
7
100
AcDbLine
 10
66.208794
 20
5.045514
 30
0.0
 11
66.131073
 21
5.482648
 31
0.0
  0
LINE
  5
2e2
100
AcDbEntity
  8
gears
 62
7
100
AcDbLine
 10
66.131073
 20
5.482648
 30
0.0
 11
65.932637
 21
5.967703
 31
0.0
  0
LINE
  5
2e3
100
AcDbEntity
  8
gears
 62
7
100
AcDbLine
 10
65.932637
 20
5.967703
 30
0.0
 11
65.580410
 21
5.967703
 31
0.0
  0
LINE
  5
2e4
100
AcDbEntity
  8
gears
 62
7
100
AcDbLine
 10
65.580410
 20
5.967703
 30
0.0
 11
65.381420
 21
5.482648
 31
0.0
  0
LINE
  5
2e5
100
AcDbEntity
  8
gears
 62
7
100
AcDbLine
 10
65.381420
 20
5.482648
 30
0.0
 11
65.303699
 21
5.045514
 31
0.0
  0
LINE
  5
2e6
100
AcDbEntity
  8
gears
 62
7
100
AcDbLine
 10
65.303699
 20
5.045514
 30
0.0
 11
65.307001
 21
4.999766
 31
0.0
  0
LINE
  5
2e7
100
AcDbEntity
  8
gears
 62
7
100
AcDbLine
 10
65.307001
 20
4.999766
 30
0.0
 11
64.705625
 21
4.999766
 31
0.0
  0
LINE
  5
2e8
100
AcDbEntity
  8
gears
 62
7
100
AcDbLine
 10
64.705625
 20
4.999766
 30
0.0
 11
64.708927
 21
5.045514
 31
0.0
  0
LINE
  5
2e9
100
AcDbEntity
  8
gears
 62
7
100
AcDbLine
 10
64.708927
 20
5.045514
 30
0.0
 11
64.631206
 21
5.482648
 31
0.0
  0
LINE
  5
2ea
100
AcDbEntity
  8
gears
 62
7
100
AcDbLine
 10
64.631206
 20
5.482648
 30
0.0
 11
64.432217
 21
5.967703
 31
0.0
  0
LINE
  5
2eb
100
AcDbEntity
  8
gears
 62
7
100
AcDbLine
 10
64.432217
 20
5.967703
 30
0.0
 11
64.079989
 21
5.967703
 31
0.0
  0
LINE
  5
2ec
100
AcDbEntity
  8
gears
 62
7
100
AcDbLine
 10
64.079989
 20
5.967703
 30
0.0
 11
63.881553
 21
5.482648
 31
0.0
  0
LINE
  5
2ed
100
AcDbEntity
  8
gears
 62
7
100
AcDbLine
 10
63.881553
 20
5.482648
 30
0.0
 11
63.803832
 21
5.045514
 31
0.0
  0
LINE
  5
2ee
100
AcDbEntity
  8
gears
 62
7
100
AcDbLine
 10
63.803832
 20
5.045514
 30
0.0
 11
63.807134
 21
4.999766
 31
0.0
  0
LINE
  5
2ef
100
AcDbEntity
  8
gears
 62
7
100
AcDbLine
 10
63.807134
 20
4.999766
 30
0.0
 11
63.205761
 21
4.999766
 31
0.0
  0
LINE
  5
2f0
100
AcDbEntity
  8
gears
 62
7
100
AcDbLine
 10
63.205761
 20
4.999766
 30
0.0
 11
63.208583
 21
5.045514
 31
0.0
  0
LINE
  5
2f1
100
AcDbEntity
  8
gears
 62
7
100
AcDbLine
 10
63.208583
 20
5.045514
 30
0.0
 11
63.131412
 21
5.482648
 31
0.0
  0
LINE
  5
2f2
100
AcDbEntity
  8
gears
 62
7
100
AcDbLine
 10
63.131412
 20
5.482648
 30
0.0
 11
62.932426
 21
5.967703
 31
0.0
  0
LINE
  5
2f3
100
AcDbEntity
  8
gears
 62
7
100
AcDbLine
 10
62.932426
 20
5.967703
 30
0.0
 11
62.580198
 21
5.967703
 31
0.0
  0
LINE
  5
2f4
100
AcDbEntity
  8
gears
 62
7
100
AcDbLine
 10
62.580198
 20
5.967703
 30
0.0
 11
62.381759
 21
5.482648
 31
0.0
  0
LINE
  5
2f5
100
AcDbEntity
  8
gears
 62
7
100
AcDbLine
 10
62.381759
 20
5.482648
 30
0.0
 11
62.304038
 21
5.045514
 31
0.0
  0
LINE
  5
2f6
100
AcDbEntity
  8
gears
 62
7
100
AcDbLine
 10
62.304038
 20
5.045514
 30
0.0
 11
62.307340
 21
4.999766
 31
0.0
  0
LINE
  5
2f7
100
AcDbEntity
  8
gears
 62
7
100
AcDbLine
 10
62.307340
 20
4.999766
 30
0.0
 11
61.705414
 21
4.999766
 31
0.0
  0
LINE
  5
2f8
100
AcDbEntity
  8
gears
 62
7
100
AcDbLine
 10
61.705414
 20
4.999766
 30
0.0
 11
61.708716
 21
5.045514
 31
0.0
  0
LINE
  5
2f9
100
AcDbEntity
  8
gears
 62
7
100
AcDbLine
 10
61.708716
 20
5.045514
 30
0.0
 11
61.630995
 21
5.482648
 31
0.0
  0
LINE
  5
2fa
100
AcDbEntity
  8
gears
 62
7
100
AcDbLine
 10
61.630995
 20
5.482648
 30
0.0
 11
61.432556
 21
5.967703
 31
0.0
  0
LINE
  5
2fb
100
AcDbEntity
  8
gears
 62
7
100
AcDbLine
 10
61.432556
 20
5.967703
 30
0.0
 11
61.080331
 21
5.967703
 31
0.0
  0
LINE
  5
2fc
100
AcDbEntity
  8
gears
 62
7
100
AcDbLine
 10
61.080331
 20
5.967703
 30
0.0
 11
60.881342
 21
5.482648
 31
0.0
  0
LINE
  5
2fd
100
AcDbEntity
  8
gears
 62
7
100
AcDbLine
 10
60.881342
 20
5.482648
 30
0.0
 11
60.804171
 21
5.045514
 31
0.0
  0
LINE
  5
2fe
100
AcDbEntity
  8
gears
 62
7
100
AcDbLine
 10
60.804171
 20
5.045514
 30
0.0
 11
60.806993
 21
4.999766
 31
0.0
  0
LINE
  5
2ff
100
AcDbEntity
  8
gears
 62
7
100
AcDbLine
 10
60.806993
 20
4.999766
 30
0.0
 11
60.205617
 21
4.999766
 31
0.0
  0
LINE
  5
300
100
AcDbEntity
  8
gears
 62
7
100
AcDbLine
 10
60.205617
 20
4.999766
 30
0.0
 11
60.208919
 21
5.045514
 31
0.0
  0
LINE
  5
301
100
AcDbEntity
  8
gears
 62
7
100
AcDbLine
 10
60.208919
 20
5.045514
 30
0.0
 11
60.131198
 21
5.482648
 31
0.0
  0
LINE
  5
302
100
AcDbEntity
  8
gears
 62
7
100
AcDbLine
 10
60.131198
 20
5.482648
 30
0.0
 11
59.932762
 21
5.967703
 31
0.0
  0
LINE
  5
303
100
AcDbEntity
  8
gears
 62
7
100
AcDbLine
 10
59.932762
 20
5.967703
 30
0.0
 11
59.580534
 21
5.967703
 31
0.0
  0
LINE
  5
304
100
AcDbEntity
  8
gears
 62
7
100
AcDbLine
 10
59.580534
 20
5.967703
 30
0.0
 11
59.381545
 21
5.482648
 31
0.0
  0
LINE
  5
305
100
AcDbEntity
  8
gears
 62
7
100
AcDbLine
 10
59.381545
 20
5.482648
 30
0.0
 11
59.303824
 21
5.045514
 31
0.0
  0
LINE
  5
306
100
AcDbEntity
  8
gears
 62
7
100
AcDbLine
 10
59.303824
 20
5.045514
 30
0.0
 11
59.307126
 21
4.999766
 31
0.0
  0
LINE
  5
307
100
AcDbEntity
  8
gears
 62
7
100
AcDbLine
 10
59.307126
 20
4.999766
 30
0.0
 11
58.705750
 21
4.999766
 31
0.0
  0
LINE
  5
308
100
AcDbEntity
  8
gears
 62
7
100
AcDbLine
 10
58.705750
 20
4.999766
 30
0.0
 11
58.709052
 21
5.045514
 31
0.0
  0
LINE
  5
309
100
AcDbEntity
  8
gears
 62
7
100
AcDbLine
 10
58.709052
 20
5.045514
 30
0.0
 11
58.631331
 21
5.482648
 31
0.0
  0
LINE
  5
30a
100
AcDbEntity
  8
gears
 62
7
100
AcDbLine
 10
58.631331
 20
5.482648
 30
0.0
 11
58.432342
 21
5.967703
 31
0.0
  0
LINE
  5
30b
100
AcDbEntity
  8
gears
 62
7
100
AcDbLine
 10
58.432342
 20
5.967703
 30
0.0
 11
58.080117
 21
5.967703
 31
0.0
  0
LINE
  5
30c
100
AcDbEntity
  8
gears
 62
7
100
AcDbLine
 10
58.080117
 20
5.967703
 30
0.0
 11
57.881678
 21
5.482648
 31
0.0
  0
LINE
  5
30d
100
AcDbEntity
  8
gears
 62
7
100
AcDbLine
 10
57.881678
 20
5.482648
 30
0.0
 11
57.803957
 21
5.045514
 31
0.0
  0
LINE
  5
30e
100
AcDbEntity
  8
gears
 62
7
100
AcDbLine
 10
57.803957
 20
5.045514
 30
0.0
 11
57.807259
 21
4.999766
 31
0.0
  0
LINE
  5
30f
100
AcDbEntity
  8
gears
 62
7
100
AcDbLine
 10
57.807259
 20
4.999766
 30
0.0
 11
57.205883
 21
4.999766
 31
0.0
  0
LINE
  5
310
100
AcDbEntity
  8
gears
 62
7
100
AcDbLine
 10
57.205883
 20
4.999766
 30
0.0
 11
57.208705
 21
5.045514
 31
0.0
  0
LINE
  5
311
100
AcDbEntity
  8
gears
 62
7
100
AcDbLine
 10
57.208705
 20
5.045514
 30
0.0
 11
57.130984
 21
5.482648
 31
0.0
  0
LINE
  5
312
100
AcDbEntity
  8
gears
 62
7
100
AcDbLine
 10
57.130984
 20
5.482648
 30
0.0
 11
56.932545
 21
5.967703
 31
0.0
  0
LINE
  5
313
100
AcDbEntity
  8
gears
 62
7
100
AcDbLine
 10
56.932545
 20
5.967703
 30
0.0
 11
56.580318
 21
5.967703
 31
0.0
  0
LINE
  5
314
100
AcDbEntity
  8
gears
 62
7
100
AcDbLine
 10
56.580318
 20
5.967703
 30
0.0
 11
56.381881
 21
5.482648
 31
0.0
  0
LINE
  5
315
100
AcDbEntity
  8
gears
 62
7
100
AcDbLine
 10
56.381881
 20
5.482648
 30
0.0
 11
56.304160
 21
5.045514
 31
0.0
  0
LINE
  5
316
100
AcDbEntity
  8
gears
 62
7
100
AcDbLine
 10
56.304160
 20
5.045514
 30
0.0
 11
56.306982
 21
4.999766
 31
0.0
  0
LINE
  5
317
100
AcDbEntity
  8
gears
 62
7
100
AcDbLine
 10
56.306982
 20
4.999766
 30
0.0
 11
55.705606
 21
4.999766
 31
0.0
  0
LINE
  5
318
100
AcDbEntity
  8
gears
 62
7
100
AcDbLine
 10
55.705606
 20
4.999766
 30
0.0
 11
55.708908
 21
5.045514
 31
0.0
  0
LINE
  5
319
100
AcDbEntity
  8
gears
 62
7
100
AcDbLine
 10
55.708908
 20
5.045514
 30
0.0
 11
55.631187
 21
5.482648
 31
0.0
  0
LINE
  5
31a
100
AcDbEntity
  8
gears
 62
7
100
AcDbLine
 10
55.631187
 20
5.482648
 30
0.0
 11
55.432751
 21
5.967703
 31
0.0
  0
LINE
  5
31b
100
AcDbEntity
  8
gears
 62
7
100
AcDbLine
 10
55.432751
 20
5.967703
 30
0.0
 11
55.080524
 21
5.967703
 31
0.0
  0
LINE
  5
31c
100
AcDbEntity
  8
gears
 62
7
100
AcDbLine
 10
55.080524
 20
5.967703
 30
0.0
 11
54.881534
 21
5.482648
 31
0.0
  0
LINE
  5
31d
100
AcDbEntity
  8
gears
 62
7
100
AcDbLine
 10
54.881534
 20
5.482648
 30
0.0
 11
54.803813
 21
5.045514
 31
0.0
  0
LINE
  5
31e
100
AcDbEntity
  8
gears
 62
7
100
AcDbLine
 10
54.803813
 20
5.045514
 30
0.0
 11
54.807115
 21
4.999766
 31
0.0
  0
LINE
  5
31f
100
AcDbEntity
  8
gears
 62
7
100
AcDbLine
 10
54.807115
 20
4.999766
 30
0.0
 11
54.205739
 21
4.999766
 31
0.0
  0
LINE
  5
320
100
AcDbEntity
  8
gears
 62
7
100
AcDbLine
 10
54.205739
 20
4.999766
 30
0.0
 11
54.209041
 21
5.045514
 31
0.0
  0
LINE
  5
321
100
AcDbEntity
  8
gears
 62
7
100
AcDbLine
 10
54.209041
 20
5.045514
 30
0.0
 11
54.131320
 21
5.482648
 31
0.0
  0
LINE
  5
322
100
AcDbEntity
  8
gears
 62
7
100
AcDbLine
 10
54.131320
 20
5.482648
 30
0.0
 11
53.932331
 21
5.967703
 31
0.0
  0
LINE
  5
323
100
AcDbEntity
  8
gears
 62
7
100
AcDbLine
 10
53.932331
 20
5.967703
 30
0.0
 11
53.580657
 21
5.967703
 31
0.0
  0
LINE
  5
324
100
AcDbEntity
  8
gears
 62
7
100
AcDbLine
 10
53.580657
 20
5.967703
 30
0.0
 11
53.381667
 21
5.482648
 31
0.0
  0
LINE
  5
325
100
AcDbEntity
  8
gears
 62
7
100
AcDbLine
 10
53.381667
 20
5.482648
 30
0.0
 11
53.303946
 21
5.045514
 31
0.0
  0
LINE
  5
326
100
AcDbEntity
  8
gears
 62
7
100
AcDbLine
 10
53.303946
 20
5.045514
 30
0.0
 11
53.307248
 21
4.999766
 31
0.0
  0
LINE
  5
327
100
AcDbEntity
  8
gears
 62
7
100
AcDbLine
 10
53.307248
 20
4.999766
 30
0.0
 11
52.705872
 21
4.999766
 31
0.0
  0
LINE
  5
328
100
AcDbEntity
  8
gears
 62
7
100
AcDbLine
 10
52.705872
 20
4.999766
 30
0.0
 11
52.708694
 21
5.045514
 31
0.0
  0
LINE
  5
329
100
AcDbEntity
  8
gears
 62
7
100
AcDbLine
 10
52.708694
 20
5.045514
 30
0.0
 11
52.631526
 21
5.482648
 31
0.0
  0
LINE
  5
32a
100
AcDbEntity
  8
gears
 62
7
100
AcDbLine
 10
52.631526
 20
5.482648
 30
0.0
 11
52.432537
 21
5.967703
 31
0.0
  0
LINE
  5
32b
100
AcDbEntity
  8
gears
 62
7
100
AcDbLine
 10
52.432537
 20
5.967703
 30
0.0
 11
52.080860
 21
5.967703
 31
0.0
  0
LINE
  5
32c
100
AcDbEntity
  8
gears
 62
7
100
AcDbLine
 10
52.080860
 20
5.967703
 30
0.0
 11
51.881873
 21
5.482648
 31
0.0
  0
LINE
  5
32d
100
AcDbEntity
  8
gears
 62
7
100
AcDbLine
 10
51.881873
 20
5.482648
 30
0.0
 11
51.804152
 21
5.045514
 31
0.0
  0
LINE
  5
32e
100
AcDbEntity
  8
gears
 62
7
100
AcDbLine
 10
51.804152
 20
5.045514
 30
0.0
 11
51.807454
 21
4.999766
 31
0.0
  0
LINE
  5
32f
100
AcDbEntity
  8
gears
 62
7
100
AcDbLine
 10
51.807454
 20
4.999766
 30
0.0
 11
51.205528
 21
4.999766
 31
0.0
  0
LINE
  5
330
100
AcDbEntity
  8
gears
 62
7
100
AcDbLine
 10
51.205528
 20
4.999766
 30
0.0
 11
51.208830
 21
5.045514
 31
0.0
  0
LINE
  5
331
100
AcDbEntity
  8
gears
 62
7
100
AcDbLine
 10
51.208830
 20
5.045514
 30
0.0
 11
51.131109
 21
5.482648
 31
0.0
  0
LINE
  5
332
100
AcDbEntity
  8
gears
 62
7
100
AcDbLine
 10
51.131109
 20
5.482648
 30
0.0
 11
50.932670
 21
5.967703
 31
0.0
  0
LINE
  5
333
100
AcDbEntity
  8
gears
 62
7
100
AcDbLine
 10
50.932670
 20
5.967703
 30
0.0
 11
50.580445
 21
5.967703
 31
0.0
  0
LINE
  5
334
100
AcDbEntity
  8
gears
 62
7
100
AcDbLine
 10
50.580445
 20
5.967703
 30
0.0
 11
50.381456
 21
5.482648
 31
0.0
  0
LINE
  5
335
100
AcDbEntity
  8
gears
 62
7
100
AcDbLine
 10
50.381456
 20
5.482648
 30
0.0
 11
50.304285
 21
5.045514
 31
0.0
  0
LINE
  5
336
100
AcDbEntity
  8
gears
 62
7
100
AcDbLine
 10
50.304285
 20
5.045514
 30
0.0
 11
50.307107
 21
4.999766
 31
0.0
  0
LINE
  5
337
100
AcDbEntity
  8
gears
 62
7
100
AcDbLine
 10
50.307107
 20
4.999766
 30
0.0
 11
49.705731
 21
4.999766
 31
0.0
  0
LINE
  5
338
100
AcDbEntity
  8
gears
 62
7
100
AcDbLine
 10
49.705731
 20
4.999766
 30
0.0
 11
49.709033
 21
5.045514
 31
0.0
  0
LINE
  5
339
100
AcDbEntity
  8
gears
 62
7
100
AcDbLine
 10
49.709033
 20
5.045514
 30
0.0
 11
49.631312
 21
5.482648
 31
0.0
  0
LINE
  5
33a
100
AcDbEntity
  8
gears
 62
7
100
AcDbLine
 10
49.631312
 20
5.482648
 30
0.0
 11
49.432873
 21
5.967703
 31
0.0
  0
LINE
  5
33b
100
AcDbEntity
  8
gears
 62
7
100
AcDbLine
 10
49.432873
 20
5.967703
 30
0.0
 11
49.080646
 21
5.967703
 31
0.0
  0
LINE
  5
33c
100
AcDbEntity
  8
gears
 62
7
100
AcDbLine
 10
49.080646
 20
5.967703
 30
0.0
 11
48.881659
 21
5.482648
 31
0.0
  0
LINE
  5
33d
100
AcDbEntity
  8
gears
 62
7
100
AcDbLine
 10
48.881659
 20
5.482648
 30
0.0
 11
48.804489
 21
5.045514
 31
0.0
  0
LINE
  5
33e
100
AcDbEntity
  8
gears
 62
7
100
AcDbLine
 10
48.804489
 20
5.045514
 30
0.0
 11
48.807791
 21
4.999766
 31
0.0
  0
LINE
  5
33f
100
AcDbEntity
  8
gears
 62
7
100
AcDbLine
 10
48.807791
 20
4.999766
 30
0.0
 11
48.206414
 21
4.999766
 31
0.0
  0
LINE
  5
340
100
AcDbEntity
  8
gears
 62
7
100
AcDbLine
 10
48.206414
 20
4.999766
 30
0.0
 11
48.209716
 21
5.045514
 31
0.0
  0
LINE
  5
341
100
AcDbEntity
  8
gears
 62
7
100
AcDbLine
 10
48.209716
 20
5.045514
 30
0.0
 11
48.131995
 21
5.482648
 31
0.0
  0
LINE
  5
342
100
AcDbEntity
  8
gears
 62
7
100
AcDbLine
 10
48.131995
 20
5.482648
 30
0.0
 11
47.933006
 21
5.967703
 31
0.0
  0
LINE
  5
343
100
AcDbEntity
  8
gears
 62
7
100
AcDbLine
 10
47.933006
 20
5.967703
 30
0.0
 11
47.581329
 21
5.967703
 31
0.0
  0
LINE
  5
344
100
AcDbEntity
  8
gears
 62
7
100
AcDbLine
 10
47.581329
 20
5.967703
 30
0.0
 11
47.382343
 21
5.482648
 31
0.0
  0
LINE
  5
345
100
AcDbEntity
  8
gears
 62
7
100
AcDbLine
 10
47.382343
 20
5.482648
 30
0.0
 11
47.305172
 21
5.045514
 31
0.0
  0
LINE
  5
346
100
AcDbEntity
  8
gears
 62
7
100
AcDbLine
 10
47.305172
 20
5.045514
 30
0.0
 11
47.307994
 21
4.999766
 31
0.0
  0
LINE
  5
347
100
AcDbEntity
  8
gears
 62
7
100
AcDbLine
 10
47.307994
 20
4.999766
 30
0.0
 11
46.706621
 21
4.999766
 31
0.0
  0
LINE
  5
348
100
AcDbEntity
  8
gears
 62
7
100
AcDbLine
 10
46.706621
 20
4.999766
 30
0.0
 11
46.709443
 21
5.045514
 31
0.0
  0
LINE
  5
349
100
AcDbEntity
  8
gears
 62
7
100
AcDbLine
 10
46.709443
 20
5.045514
 30
0.0
 11
46.632272
 21
5.482648
 31
0.0
  0
LINE
  5
34a
100
AcDbEntity
  8
gears
 62
7
100
AcDbLine
 10
46.632272
 20
5.482648
 30
0.0
 11
46.433283
 21
5.967703
 31
0.0
  0
LINE
  5
34b
100
AcDbEntity
  8
gears
 62
7
100
AcDbLine
 10
46.433283
 20
5.967703
 30
0.0
 11
46.081609
 21
5.967703
 31
0.0
  0
LINE
  5
34c
100
AcDbEntity
  8
gears
 62
7
100
AcDbLine
 10
46.081609
 20
5.967703
 30
0.0
 11
45.882619
 21
5.482648
 31
0.0
  0
LINE
  5
34d
100
AcDbEntity
  8
gears
 62
7
100
AcDbLine
 10
45.882619
 20
5.482648
 30
0.0
 11
45.804898
 21
5.045514
 31
0.0
  0
LINE
  5
34e
100
AcDbEntity
  8
gears
 62
7
100
AcDbLine
 10
45.804898
 20
5.045514
 30
0.0
 11
45.807720
 21
4.999766
 31
0.0
  0
LINE
  5
34f
100
AcDbEntity
  8
gears
 62
7
100
AcDbLine
 10
45.807720
 20
4.999766
 30
0.0
 11
45.206344
 21
4.999766
 31
0.0
  0
LINE
  5
350
100
AcDbEntity
  8
gears
 62
7
100
AcDbLine
 10
45.206344
 20
4.999766
 30
0.0
 11
45.209646
 21
5.045514
 31
0.0
  0
LINE
  5
351
100
AcDbEntity
  8
gears
 62
7
100
AcDbLine
 10
45.209646
 20
5.045514
 30
0.0
 11
45.132475
 21
5.482648
 31
0.0
  0
LINE
  5
352
100
AcDbEntity
  8
gears
 62
7
100
AcDbLine
 10
45.132475
 20
5.482648
 30
0.0
 11
44.933486
 21
5.967703
 31
0.0
  0
LINE
  5
353
100
AcDbEntity
  8
gears
 62
7
100
AcDbLine
 10
44.933486
 20
5.967703
 30
0.0
 11
44.581259
 21
5.967703
 31
0.0
  0
LINE
  5
354
100
AcDbEntity
  8
gears
 62
7
100
AcDbLine
 10
44.581259
 20
5.967703
 30
0.0
 11
44.382272
 21
5.482648
 31
0.0
  0
LINE
  5
355
100
AcDbEntity
  8
gears
 62
7
100
AcDbLine
 10
44.382272
 20
5.482648
 30
0.0
 11
44.305101
 21
5.045514
 31
0.0
  0
LINE
  5
356
100
AcDbEntity
  8
gears
 62
7
100
AcDbLine
 10
44.305101
 20
5.045514
 30
0.0
 11
44.307924
 21
4.999766
 31
0.0
  0
LINE
  5
357
100
AcDbEntity
  8
gears
 62
7
100
AcDbLine
 10
44.307924
 20
4.999766
 30
0.0
 11
43.706548
 21
4.999766
 31
0.0
  0
LINE
  5
358
100
AcDbEntity
  8
gears
 62
7
100
AcDbLine
 10
43.706548
 20
4.999766
 30
0.0
 11
43.709850
 21
5.045514
 31
0.0
  0
LINE
  5
359
100
AcDbEntity
  8
gears
 62
7
100
AcDbLine
 10
43.709850
 20
5.045514
 30
0.0
 11
43.632128
 21
5.482648
 31
0.0
  0
LINE
  5
35a
100
AcDbEntity
  8
gears
 62
7
100
AcDbLine
 10
43.632128
 20
5.482648
 30
0.0
 11
43.433142
 21
5.967703
 31
0.0
  0
LINE
  5
35b
100
AcDbEntity
  8
gears
 62
7
100
AcDbLine
 10
43.433142
 20
5.967703
 30
0.0
 11
43.081465
 21
5.967703
 31
0.0
  0
LINE
  5
35c
100
AcDbEntity
  8
gears
 62
7
100
AcDbLine
 10
43.081465
 20
5.967703
 30
0.0
 11
42.882476
 21
5.482648
 31
0.0
  0
LINE
  5
35d
100
AcDbEntity
  8
gears
 62
7
100
AcDbLine
 10
42.882476
 20
5.482648
 30
0.0
 11
42.805308
 21
5.045514
 31
0.0
  0
LINE
  5
35e
100
AcDbEntity
  8
gears
 62
7
100
AcDbLine
 10
42.805308
 20
5.045514
 30
0.0
 11
42.808130
 21
4.999766
 31
0.0
  0
LINE
  5
35f
100
AcDbEntity
  8
gears
 62
7
100
AcDbLine
 10
42.808130
 20
4.999766
 30
0.0
 11
42.206754
 21
4.999766
 31
0.0
  0
LINE
  5
360
100
AcDbEntity
  8
gears
 62
7
100
AcDbLine
 10
42.206754
 20
4.999766
 30
0.0
 11
42.209576
 21
5.045514
 31
0.0
  0
LINE
  5
361
100
AcDbEntity
  8
gears
 62
7
100
AcDbLine
 10
42.209576
 20
5.045514
 30
0.0
 11
42.132405
 21
5.482648
 31
0.0
  0
LINE
  5
362
100
AcDbEntity
  8
gears
 62
7
100
AcDbLine
 10
42.132405
 20
5.482648
 30
0.0
 11
41.933416
 21
5.967703
 31
0.0
  0
LINE
  5
363
100
AcDbEntity
  8
gears
 62
7
100
AcDbLine
 10
41.933416
 20
5.967703
 30
0.0
 11
41.581742
 21
5.967703
 31
0.0
  0
LINE
  5
364
100
AcDbEntity
  8
gears
 62
7
100
AcDbLine
 10
41.581742
 20
5.967703
 30
0.0
 11
41.382752
 21
5.482648
 31
0.0
  0
LINE
  5
365
100
AcDbEntity
  8
gears
 62
7
100
AcDbLine
 10
41.382752
 20
5.482648
 30
0.0
 11
41.305031
 21
5.045514
 31
0.0
  0
LINE
  5
366
100
AcDbEntity
  8
gears
 62
7
100
AcDbLine
 10
41.305031
 20
5.045514
 30
0.0
 11
41.308333
 21
4.999766
 31
0.0
  0
LINE
  5
367
100
AcDbEntity
  8
gears
 62
7
100
AcDbLine
 10
41.308333
 20
4.999766
 30
0.0
 11
40.706957
 21
4.999766
 31
0.0
  0
LINE
  5
368
100
AcDbEntity
  8
gears
 62
7
100
AcDbLine
 10
40.706957
 20
4.999766
 30
0.0
 11
40.709779
 21
5.045514
 31
0.0
  0
LINE
  5
369
100
AcDbEntity
  8
gears
 62
7
100
AcDbLine
 10
40.709779
 20
5.045514
 30
0.0
 11
40.632609
 21
5.482648
 31
0.0
  0
LINE
  5
36a
100
AcDbEntity
  8
gears
 62
7
100
AcDbLine
 10
40.632609
 20
5.482648
 30
0.0
 11
40.433619
 21
5.967703
 31
0.0
  0
LINE
  5
36b
100
AcDbEntity
  8
gears
 62
7
100
AcDbLine
 10
40.433619
 20
5.967703
 30
0.0
 11
40.081392
 21
5.967703
 31
0.0
  0
LINE
  5
36c
100
AcDbEntity
  8
gears
 62
7
100
AcDbLine
 10
40.081392
 20
5.967703
 30
0.0
 11
39.882403
 21
5.482648
 31
0.0
  0
LINE
  5
36d
100
AcDbEntity
  8
gears
 62
7
100
AcDbLine
 10
39.882403
 20
5.482648
 30
0.0
 11
39.805235
 21
5.045514
 31
0.0
  0
LINE
  5
36e
100
AcDbEntity
  8
gears
 62
7
100
AcDbLine
 10
39.805235
 20
5.045514
 30
0.0
 11
39.808537
 21
4.999766
 31
0.0
  0
LINE
  5
36f
100
AcDbEntity
  8
gears
 62
7
100
AcDbLine
 10
39.808537
 20
4.999766
 30
0.0
 11
39.207161
 21
4.999766
 31
0.0
  0
LINE
  5
370
100
AcDbEntity
  8
gears
 62
7
100
AcDbLine
 10
39.207161
 20
4.999766
 30
0.0
 11
39.209983
 21
5.045514
 31
0.0
  0
LINE
  5
371
100
AcDbEntity
  8
gears
 62
7
100
AcDbLine
 10
39.209983
 20
5.045514
 30
0.0
 11
39.132812
 21
5.482648
 31
0.0
  0
LINE
  5
372
100
AcDbEntity
  8
gears
 62
7
100
AcDbLine
 10
39.132812
 20
5.482648
 30
0.0
 11
38.933826
 21
5.967703
 31
0.0
  0
LINE
  5
373
100
AcDbEntity
  8
gears
 62
7
100
AcDbLine
 10
38.933826
 20
5.967703
 30
0.0
 11
38.581598
 21
5.967703
 31
0.0
  0
LINE
  5
374
100
AcDbEntity
  8
gears
 62
7
100
AcDbLine
 10
38.581598
 20
5.967703
 30
0.0
 11
38.382609
 21
5.482648
 31
0.0
  0
LINE
  5
375
100
AcDbEntity
  8
gears
 62
7
100
AcDbLine
 10
38.382609
 20
5.482648
 30
0.0
 11
38.305438
 21
5.045514
 31
0.0
  0
LINE
  5
376
100
AcDbEntity
  8
gears
 62
7
100
AcDbLine
 10
38.305438
 20
5.045514
 30
0.0
 11
38.308740
 21
4.999766
 31
0.0
  0
LINE
  5
377
100
AcDbEntity
  8
gears
 62
7
100
AcDbLine
 10
38.308740
 20
4.999766
 30
0.0
 11
37.706814
 21
4.999766
 31
0.0
  0
LINE
  5
378
100
AcDbEntity
  8
gears
 62
7
100
AcDbLine
 10
37.706814
 20
4.999766
 30
0.0
 11
37.710116
 21
5.045514
 31
0.0
  0
LINE
  5
379
100
AcDbEntity
  8
gears
 62
7
100
AcDbLine
 10
37.710116
 20
5.045514
 30
0.0
 11
37.632394
 21
5.482648
 31
0.0
  0
LINE
  5
37a
100
AcDbEntity
  8
gears
 62
7
100
AcDbLine
 10
37.632394
 20
5.482648
 30
0.0
 11
37.433405
 21
5.967703
 31
0.0
  0
LINE
  5
37b
100
AcDbEntity
  8
gears
 62
7
100
AcDbLine
 10
37.433405
 20
5.967703
 30
0.0
 11
37.081731
 21
5.967703
 31
0.0
  0
LINE
  5
37c
100
AcDbEntity
  8
gears
 62
7
100
AcDbLine
 10
37.081731
 20
5.967703
 30
0.0
 11
36.882742
 21
5.482648
 31
0.0
  0
LINE
  5
37d
100
AcDbEntity
  8
gears
 62
7
100
AcDbLine
 10
36.882742
 20
5.482648
 30
0.0
 11
36.805571
 21
5.045514
 31
0.0
  0
LINE
  5
37e
100
AcDbEntity
  8
gears
 62
7
100
AcDbLine
 10
36.805571
 20
5.045514
 30
0.0
 11
36.808873
 21
4.999766
 31
0.0
  0
LINE
  5
37f
100
AcDbEntity
  8
gears
 62
7
100
AcDbLine
 10
36.808873
 20
4.999766
 30
0.0
 11
36.207497
 21
4.999766
 31
0.0
  0
LINE
  5
380
100
AcDbEntity
  8
gears
 62
7
100
AcDbLine
 10
36.207497
 20
4.999766
 30
0.0
 11
36.210799
 21
5.045514
 31
0.0
  0
LINE
  5
381
100
AcDbEntity
  8
gears
 62
7
100
AcDbLine
 10
36.210799
 20
5.045514
 30
0.0
 11
36.133078
 21
5.482648
 31
0.0
  0
LINE
  5
382
100
AcDbEntity
  8
gears
 62
7
100
AcDbLine
 10
36.133078
 20
5.482648
 30
0.0
 11
35.934088
 21
5.967703
 31
0.0
  0
LINE
  5
383
100
AcDbEntity
  8
gears
 62
7
100
AcDbLine
 10
35.934088
 20
5.967703
 30
0.0
 11
35.582414
 21
5.967703
 31
0.0
  0
LINE
  5
384
100
AcDbEntity
  8
gears
 62
7
100
AcDbLine
 10
35.582414
 20
5.967703
 30
0.0
 11
35.383425
 21
5.482648
 31
0.0
  0
LINE
  5
385
100
AcDbEntity
  8
gears
 62
7
100
AcDbLine
 10
35.383425
 20
5.482648
 30
0.0
 11
35.305704
 21
5.045514
 31
0.0
  0
LINE
  5
386
100
AcDbEntity
  8
gears
 62
7
100
AcDbLine
 10
35.305704
 20
5.045514
 30
0.0
 11
35.309006
 21
4.999766
 31
0.0
  0
LINE
  5
387
100
AcDbEntity
  8
gears
 62
7
100
AcDbLine
 10
35.309006
 20
4.999766
 30
0.0
 11
34.707630
 21
4.999766
 31
0.0
  0
LINE
  5
388
100
AcDbEntity
  8
gears
 62
7
100
AcDbLine
 10
34.707630
 20
4.999766
 30
0.0
 11
34.710932
 21
5.045514
 31
0.0
  0
LINE
  5
389
100
AcDbEntity
  8
gears
 62
7
100
AcDbLine
 10
34.710932
 20
5.045514
 30
0.0
 11
34.633208
 21
5.482648
 31
0.0
  0
LINE
  5
38a
100
AcDbEntity
  8
gears
 62
7
100
AcDbLine
 10
34.633208
 20
5.482648
 30
0.0
 11
34.434221
 21
5.967703
 31
0.0
  0
LINE
  5
38b
100
AcDbEntity
  8
gears
 62
7
100
AcDbLine
 10
34.434221
 20
5.967703
 30
0.0
 11
34.081994
 21
5.967703
 31
0.0
  0
LINE
  5
38c
100
AcDbEntity
  8
gears
 62
7
100
AcDbLine
 10
34.081994
 20
5.967703
 30
0.0
 11
33.883558
 21
5.482648
 31
0.0
  0
LINE
  5
38d
100
AcDbEntity
  8
gears
 62
7
100
AcDbLine
 10
33.883558
 20
5.482648
 30
0.0
 11
33.805834
 21
5.045514
 31
0.0
  0
LINE
  5
38e
100
AcDbEntity
  8
gears
 62
7
100
AcDbLine
 10
33.805834
 20
5.045514
 30
0.0
 11
33.809136
 21
4.999766
 31
0.0
  0
LINE
  5
38f
100
AcDbEntity
  8
gears
 62
7
100
AcDbLine
 10
33.809136
 20
4.999766
 30
0.0
 11
33.207760
 21
4.999766
 31
0.0
  0
LINE
  5
390
100
AcDbEntity
  8
gears
 62
7
100
AcDbLine
 10
33.207760
 20
4.999766
 30
0.0
 11
33.210582
 21
5.045514
 31
0.0
  0
LINE
  5
391
100
AcDbEntity
  8
gears
 62
7
100
AcDbLine
 10
33.210582
 20
5.045514
 30
0.0
 11
33.132861
 21
5.482648
 31
0.0
  0
LINE
  5
392
100
AcDbEntity
  8
gears
 62
7
100
AcDbLine
 10
33.132861
 20
5.482648
 30
0.0
 11
32.934422
 21
5.967703
 31
0.0
  0
LINE
  5
393
100
AcDbEntity
  8
gears
 62
7
100
AcDbLine
 10
32.934422
 20
5.967703
 30
0.0
 11
32.582197
 21
5.967703
 31
0.0
  0
LINE
  5
394
100
AcDbEntity
  8
gears
 62
7
100
AcDbLine
 10
32.582197
 20
5.967703
 30
0.0
 11
32.383758
 21
5.482648
 31
0.0
  0
LINE
  5
395
100
AcDbEntity
  8
gears
 62
7
100
AcDbLine
 10
32.383758
 20
5.482648
 30
0.0
 11
32.306037
 21
5.045514
 31
0.0
  0
LINE
  5
396
100
AcDbEntity
  8
gears
 62
7
100
AcDbLine
 10
32.306037
 20
5.045514
 30
0.0
 11
32.308859
 21
4.999766
 31
0.0
  0
LINE
  5
397
100
AcDbEntity
  8
gears
 62
7
100
AcDbLine
 10
32.308859
 20
4.999766
 30
0.0
 11
31.707483
 21
4.999766
 31
0.0
  0
LINE
  5
398
100
AcDbEntity
  8
gears
 62
7
100
AcDbLine
 10
31.707483
 20
4.999766
 30
0.0
 11
31.710785
 21
5.045514
 31
0.0
  0
LINE
  5
399
100
AcDbEntity
  8
gears
 62
7
100
AcDbLine
 10
31.710785
 20
5.045514
 30
0.0
 11
31.633064
 21
5.482648
 31
0.0
  0
LINE
  5
39a
100
AcDbEntity
  8
gears
 62
7
100
AcDbLine
 10
31.633064
 20
5.482648
 30
0.0
 11
31.434625
 21
5.967703
 31
0.0
  0
LINE
  5
39b
100
AcDbEntity
  8
gears
 62
7
100
AcDbLine
 10
31.434625
 20
5.967703
 30
0.0
 11
31.082398
 21
5.967703
 31
0.0
  0
LINE
  5
39c
100
AcDbEntity
  8
gears
 62
7
100
AcDbLine
 10
31.082398
 20
5.967703
 30
0.0
 11
30.883411
 21
5.482648
 31
0.0
  0
LINE
  5
39d
100
AcDbEntity
  8
gears
 62
7
100
AcDbLine
 10
30.883411
 20
5.482648
 30
0.0
 11
30.806240
 21
5.045514
 31
0.0
  0
LINE
  5
39e
100
AcDbEntity
  8
gears
 62
7
100
AcDbLine
 10
30.806240
 20
5.045514
 30
0.0
 11
30.809063
 21
4.999766
 31
0.0
  0
LINE
  5
39f
100
AcDbEntity
  8
gears
 62
7
100
AcDbLine
 10
30.809063
 20
4.999766
 30
0.0
 11
30.207687
 21
4.999766
 31
0.0
  0
LINE
  5
3a0
100
AcDbEntity
  8
gears
 62
7
100
AcDbLine
 10
30.207687
 20
4.999766
 30
0.0
 11
30.210989
 21
5.045514
 31
0.0
  0
LINE
  5
3a1
100
AcDbEntity
  8
gears
 62
7
100
AcDbLine
 10
30.210989
 20
5.045514
 30
0.0
 11
30.133267
 21
5.482648
 31
0.0
  0
LINE
  5
3a2
100
AcDbEntity
  8
gears
 62
7
100
AcDbLine
 10
30.133267
 20
5.482648
 30
0.0
 11
29.934278
 21
5.967703
 31
0.0
  0
LINE
  5
3a3
100
AcDbEntity
  8
gears
 62
7
100
AcDbLine
 10
29.934278
 20
5.967703
 30
0.0
 11
29.582054
 21
5.967703
 31
0.0
  0
LINE
  5
3a4
100
AcDbEntity
  8
gears
 62
7
100
AcDbLine
 10
29.582054
 20
5.967703
 30
0.0
 11
29.383615
 21
5.482648
 31
0.0
  0
LINE
  5
3a5
100
AcDbEntity
  8
gears
 62
7
100
AcDbLine
 10
29.383615
 20
5.482648
 30
0.0
 11
29.305893
 21
5.045514
 31
0.0
  0
LINE
  5
3a6
100
AcDbEntity
  8
gears
 62
7
100
AcDbLine
 10
29.305893
 20
5.045514
 30
0.0
 11
29.309195
 21
4.999766
 31
0.0
  0
LINE
  5
3a7
100
AcDbEntity
  8
gears
 62
7
100
AcDbLine
 10
29.309195
 20
4.999766
 30
0.0
 11
28.707819
 21
4.999766
 31
0.0
  0
LINE
  5
3a8
100
AcDbEntity
  8
gears
 62
7
100
AcDbLine
 10
28.707819
 20
4.999766
 30
0.0
 11
28.710642
 21
5.045514
 31
0.0
  0
LINE
  5
3a9
100
AcDbEntity
  8
gears
 62
7
100
AcDbLine
 10
28.710642
 20
5.045514
 30
0.0
 11
28.633471
 21
5.482648
 31
0.0
  0
LINE
  5
3aa
100
AcDbEntity
  8
gears
 62
7
100
AcDbLine
 10
28.633471
 20
5.482648
 30
0.0
 11
28.434482
 21
5.967703
 31
0.0
  0
LINE
  5
3ab
100
AcDbEntity
  8
gears
 62
7
100
AcDbLine
 10
28.434482
 20
5.967703
 30
0.0
 11
28.082255
 21
5.967703
 31
0.0
  0
LINE
  5
3ac
100
AcDbEntity
  8
gears
 62
7
100
AcDbLine
 10
28.082255
 20
5.967703
 30
0.0
 11
27.883818
 21
5.482648
 31
0.0
  0
LINE
  5
3ad
100
AcDbEntity
  8
gears
 62
7
100
AcDbLine
 10
27.883818
 20
5.482648
 30
0.0
 11
27.806097
 21
5.045514
 31
0.0
  0
LINE
  5
3ae
100
AcDbEntity
  8
gears
 62
7
100
AcDbLine
 10
27.806097
 20
5.045514
 30
0.0
 11
27.809404
 21
4.999766
 31
0.0
  0
LINE
  5
3af
100
AcDbEntity
  8
gears
 62
7
100
AcDbLine
 10
27.809404
 20
4.999766
 30
0.0
 11
27.208028
 21
4.999766
 31
0.0
  0
LINE
  5
3b0
100
AcDbEntity
  8
gears
 62
7
100
AcDbLine
 10
27.208028
 20
4.999766
 30
0.0
 11
27.210794
 21
5.045514
 31
0.0
  0
LINE
  5
3b1
100
AcDbEntity
  8
gears
 62
7
100
AcDbLine
 10
27.210794
 20
5.045514
 30
0.0
 11
27.133072
 21
5.482648
 31
0.0
  0
LINE
  5
3b2
100
AcDbEntity
  8
gears
 62
7
100
AcDbLine
 10
27.133072
 20
5.482648
 30
0.0
 11
26.934635
 21
5.967703
 31
0.0
  0
LINE
  5
3b3
100
AcDbEntity
  8
gears
 62
7
100
AcDbLine
 10
26.934635
 20
5.967703
 30
0.0
 11
26.582408
 21
5.967703
 31
0.0
  0
LINE
  5
3b4
100
AcDbEntity
  8
gears
 62
7
100
AcDbLine
 10
26.582408
 20
5.967703
 30
0.0
 11
26.383420
 21
5.482648
 31
0.0
  0
LINE
  5
3b5
100
AcDbEntity
  8
gears
 62
7
100
AcDbLine
 10
26.383420
 20
5.482648
 30
0.0
 11
26.306250
 21
5.045514
 31
0.0
  0
LINE
  5
3b6
100
AcDbEntity
  8
gears
 62
7
100
AcDbLine
 10
26.306250
 20
5.045514
 30
0.0
 11
26.309015
 21
4.999766
 31
0.0
  0
LINE
  5
3b7
100
AcDbEntity
  8
gears
 62
7
100
AcDbLine
 10
26.309015
 20
4.999766
 30
0.0
 11
25.707640
 21
4.999766
 31
0.0
  0
LINE
  5
3b8
100
AcDbEntity
  8
gears
 62
7
100
AcDbLine
 10
25.707640
 20
4.999766
 30
0.0
 11
25.710947
 21
5.045514
 31
0.0
  0
LINE
  5
3b9
100
AcDbEntity
  8
gears
 62
7
100
AcDbLine
 10
25.710947
 20
5.045514
 30
0.0
 11
25.633226
 21
5.482648
 31
0.0
  0
LINE
  5
3ba
100
AcDbEntity
  8
gears
 62
7
100
AcDbLine
 10
25.633226
 20
5.482648
 30
0.0
 11
25.434788
 21
5.967703
 31
0.0
  0
LINE
  5
3bb
100
AcDbEntity
  8
gears
 62
7
100
AcDbLine
 10
25.434788
 20
5.967703
 30
0.0
 11
25.082562
 21
5.967703
 31
0.0
  0
LINE
  5
3bc
100
AcDbEntity
  8
gears
 62
7
100
AcDbLine
 10
25.082562
 20
5.967703
 30
0.0
 11
24.883573
 21
5.482648
 31
0.0
  0
LINE
  5
3bd
100
AcDbEntity
  8
gears
 62
7
100
AcDbLine
 10
24.883573
 20
5.482648
 30
0.0
 11
24.805852
 21
5.045514
 31
0.0
  0
LINE
  5
3be
100
AcDbEntity
  8
gears
 62
7
100
AcDbLine
 10
24.805852
 20
5.045514
 30
0.0
 11
24.809159
 21
4.999766
 31
0.0
  0
LINE
  5
3bf
100
AcDbEntity
  8
gears
 62
7
100
AcDbLine
 10
24.809159
 20
4.999766
 30
0.0
 11
24.207784
 21
4.999766
 31
0.0
  0
LINE
  5
3c0
100
AcDbEntity
  8
gears
 62
7
100
AcDbLine
 10
24.207784
 20
4.999766
 30
0.0
 11
24.211091
 21
5.045514
 31
0.0
  0
LINE
  5
3c1
100
AcDbEntity
  8
gears
 62
7
100
AcDbLine
 10
24.211091
 20
5.045514
 30
0.0
 11
24.133370
 21
5.482648
 31
0.0
  0
LINE
  5
3c2
100
AcDbEntity
  8
gears
 62
7
100
AcDbLine
 10
24.133370
 20
5.482648
 30
0.0
 11
23.934381
 21
5.967703
 31
0.0
  0
LINE
  5
3c3
100
AcDbEntity
  8
gears
 62
7
100
AcDbLine
 10
23.934381
 20
5.967703
 30
0.0
 11
23.582154
 21
5.967703
 31
0.0
  0
LINE
  5
3c4
100
AcDbEntity
  8
gears
 62
7
100
AcDbLine
 10
23.582154
 20
5.967703
 30
0.0
 11
23.383717
 21
5.482648
 31
0.0
  0
LINE
  5
3c5
100
AcDbEntity
  8
gears
 62
7
100
AcDbLine
 10
23.383717
 20
5.482648
 30
0.0
 11
23.305995
 21
5.045514
 31
0.0
  0
LINE
  5
3c6
100
AcDbEntity
  8
gears
 62
7
100
AcDbLine
 10
23.305995
 20
5.045514
 30
0.0
 11
23.309303
 21
4.999766
 31
0.0
  0
LINE
  5
3c7
100
AcDbEntity
  8
gears
 62
7
100
AcDbLine
 10
23.309303
 20
4.999766
 30
0.0
 11
22.707927
 21
4.999766
 31
0.0
  0
LINE
  5
3c8
100
AcDbEntity
  8
gears
 62
7
100
AcDbLine
 10
22.707927
 20
4.999766
 30
0.0
 11
22.710693
 21
5.045514
 31
0.0
  0
LINE
  5
3c9
100
AcDbEntity
  8
gears
 62
7
100
AcDbLine
 10
22.710693
 20
5.045514
 30
0.0
 11
22.633523
 21
5.482648
 31
0.0
  0
LINE
  5
3ca
100
AcDbEntity
  8
gears
 62
7
100
AcDbLine
 10
22.633523
 20
5.482648
 30
0.0
 11
22.434534
 21
5.967703
 31
0.0
  0
LINE
  5
3cb
100
AcDbEntity
  8
gears
 62
7
100
AcDbLine
 10
22.434534
 20
5.967703
 30
0.0
 11
22.082308
 21
5.967703
 31
0.0
  0
LINE
  5
3cc
100
AcDbEntity
  8
gears
 62
7
100
AcDbLine
 10
22.082308
 20
5.967703
 30
0.0
 11
21.883870
 21
5.482648
 31
0.0
  0
LINE
  5
3cd
100
AcDbEntity
  8
gears
 62
7
100
AcDbLine
 10
21.883870
 20
5.482648
 30
0.0
 11
21.806149
 21
5.045514
 31
0.0
  0
LINE
  5
3ce
100
AcDbEntity
  8
gears
 62
7
100
AcDbLine
 10
21.806149
 20
5.045514
 30
0.0
 11
21.808915
 21
4.999766
 31
0.0
  0
LINE
  5
3cf
100
AcDbEntity
  8
gears
 62
7
100
AcDbLine
 10
21.808915
 20
4.999766
 30
0.0
 11
21.207539
 21
4.999766
 31
0.0
  0
LINE
  5
3d0
100
AcDbEntity
  8
gears
 62
7
100
AcDbLine
 10
21.207539
 20
4.999766
 30
0.0
 11
21.210846
 21
5.045514
 31
0.0
  0
LINE
  5
3d1
100
AcDbEntity
  8
gears
 62
7
100
AcDbLine
 10
21.210846
 20
5.045514
 30
0.0
 11
21.133125
 21
5.482648
 31
0.0
  0
LINE
  5
3d2
100
AcDbEntity
  8
gears
 62
7
100
AcDbLine
 10
21.133125
 20
5.482648
 30
0.0
 11
20.934687
 21
5.967703
 31
0.0
  0
LINE
  5
3d3
100
AcDbEntity
  8
gears
 62
7
100
AcDbLine
 10
20.934687
 20
5.967703
 30
0.0
 11
20.582461
 21
5.967703
 31
0.0
  0
LINE
  5
3d4
100
AcDbEntity
  8
gears
 62
7
100
AcDbLine
 10
20.582461
 20
5.967703
 30
0.0
 11
20.383472
 21
5.482648
 31
0.0
  0
LINE
  5
3d5
100
AcDbEntity
  8
gears
 62
7
100
AcDbLine
 10
20.383472
 20
5.482648
 30
0.0
 11
20.306302
 21
5.045514
 31
0.0
  0
LINE
  5
3d6
100
AcDbEntity
  8
gears
 62
7
100
AcDbLine
 10
20.306302
 20
5.045514
 30
0.0
 11
20.309068
 21
4.999766
 31
0.0
  0
LINE
  5
3d7
100
AcDbEntity
  8
gears
 62
7
100
AcDbLine
 10
20.309068
 20
4.999766
 30
0.0
 11
19.707692
 21
4.999766
 31
0.0
  0
LINE
  5
3d8
100
AcDbEntity
  8
gears
 62
7
100
AcDbLine
 10
19.707692
 20
4.999766
 30
0.0
 11
19.710999
 21
5.045514
 31
0.0
  0
LINE
  5
3d9
100
AcDbEntity
  8
gears
 62
7
100
AcDbLine
 10
19.710999
 20
5.045514
 30
0.0
 11
19.633278
 21
5.482648
 31
0.0
  0
LINE
  5
3da
100
AcDbEntity
  8
gears
 62
7
100
AcDbLine
 10
19.633278
 20
5.482648
 30
0.0
 11
19.434289
 21
5.967703
 31
0.0
  0
LINE
  5
3db
100
AcDbEntity
  8
gears
 62
7
100
AcDbLine
 10
19.434289
 20
5.967703
 30
0.0
 11
19.082614
 21
5.967703
 31
0.0
  0
LINE
  5
3dc
100
AcDbEntity
  8
gears
 62
7
100
AcDbLine
 10
19.082614
 20
5.967703
 30
0.0
 11
18.883625
 21
5.482648
 31
0.0
  0
LINE
  5
3dd
100
AcDbEntity
  8
gears
 62
7
100
AcDbLine
 10
18.883625
 20
5.482648
 30
0.0
 11
18.805904
 21
5.045514
 31
0.0
  0
LINE
  5
3de
100
AcDbEntity
  8
gears
 62
7
100
AcDbLine
 10
18.805904
 20
5.045514
 30
0.0
 11
18.809212
 21
4.999766
 31
0.0
  0
LINE
  5
3df
100
AcDbEntity
  8
gears
 62
7
100
AcDbLine
 10
18.809212
 20
4.999766
 30
0.0
 11
18.207836
 21
4.999766
 31
0.0
  0
LINE
  5
3e0
100
AcDbEntity
  8
gears
 62
7
100
AcDbLine
 10
18.207836
 20
4.999766
 30
0.0
 11
18.210602
 21
5.045514
 31
0.0
  0
LINE
  5
3e1
100
AcDbEntity
  8
gears
 62
7
100
AcDbLine
 10
18.210602
 20
5.045514
 30
0.0
 11
18.133431
 21
5.482648
 31
0.0
  0
LINE
  5
3e2
100
AcDbEntity
  8
gears
 62
7
100
AcDbLine
 10
18.133431
 20
5.482648
 30
0.0
 11
17.934443
 21
5.967703
 31
0.0
  0
LINE
  5
3e3
100
AcDbEntity
  8
gears
 62
7
100
AcDbLine
 10
17.934443
 20
5.967703
 30
0.0
 11
17.582216
 21
5.967703
 31
0.0
  0
LINE
  5
3e4
100
AcDbEntity
  8
gears
 62
7
100
AcDbLine
 10
17.582216
 20
5.967703
 30
0.0
 11
17.383779
 21
5.482648
 31
0.0
  0
LINE
  5
3e5
100
AcDbEntity
  8
gears
 62
7
100
AcDbLine
 10
17.383779
 20
5.482648
 30
0.0
 11
17.306057
 21
5.045514
 31
0.0
  0
LINE
  5
3e6
100
AcDbEntity
  8
gears
 62
7
100
AcDbLine
 10
17.306057
 20
5.045514
 30
0.0
 11
17.309365
 21
4.999766
 31
0.0
  0
LINE
  5
3e7
100
AcDbEntity
  8
gears
 62
7
100
AcDbLine
 10
17.309365
 20
4.999766
 30
0.0
 11
16.707989
 21
4.999766
 31
0.0
  0
LINE
  5
3e8
100
AcDbEntity
  8
gears
 62
7
100
AcDbLine
 10
16.707989
 20
4.999766
 30
0.0
 11
16.710755
 21
5.045514
 31
0.0
  0
LINE
  5
3e9
100
AcDbEntity
  8
gears
 62
7
100
AcDbLine
 10
16.710755
 20
5.045514
 30
0.0
 11
16.633034
 21
5.482648
 31
0.0
  0
LINE
  5
3ea
100
AcDbEntity
  8
gears
 62
7
100
AcDbLine
 10
16.633034
 20
5.482648
 30
0.0
 11
16.434596
 21
5.967703
 31
0.0
  0
LINE
  5
3eb
100
AcDbEntity
  8
gears
 62
7
100
AcDbLine
 10
16.434596
 20
5.967703
 30
0.0
 11
16.082370
 21
5.967703
 31
0.0
  0
LINE
  5
3ec
100
AcDbEntity
  8
gears
 62
7
100
AcDbLine
 10
16.082370
 20
5.967703
 30
0.0
 11
15.883932
 21
5.482648
 31
0.0
  0
LINE
  5
3ed
100
AcDbEntity
  8
gears
 62
7
100
AcDbLine
 10
15.883932
 20
5.482648
 30
0.0
 11
15.806211
 21
5.045514
 31
0.0
  0
LINE
  5
3ee
100
AcDbEntity
  8
gears
 62
7
100
AcDbLine
 10
15.806211
 20
5.045514
 30
0.0
 11
15.808977
 21
4.999766
 31
0.0
  0
LINE
  5
3ef
100
AcDbEntity
  8
gears
 62
7
100
AcDbLine
 10
15.808977
 20
4.999766
 30
0.0
 11
15.207601
 21
4.999766
 31
0.0
  0
LINE
  5
3f0
100
AcDbEntity
  8
gears
 62
7
100
AcDbLine
 10
15.207601
 20
4.999766
 30
0.0
 11
15.210909
 21
5.045514
 31
0.0
  0
LINE
  5
3f1
100
AcDbEntity
  8
gears
 62
7
100
AcDbLine
 10
15.210909
 20
5.045514
 30
0.0
 11
15.133187
 21
5.482648
 31
0.0
  0
LINE
  5
3f2
100
AcDbEntity
  8
gears
 62
7
100
AcDbLine
 10
15.133187
 20
5.482648
 30
0.0
 11
14.934750
 21
5.967703
 31
0.0
  0
LINE
  5
3f3
100
AcDbEntity
  8
gears
 62
7
100
AcDbLine
 10
14.934750
 20
5.967703
 30
0.0
 11
14.582523
 21
5.967703
 31
0.0
  0
LINE
  5
3f4
100
AcDbEntity
  8
gears
 62
7
100
AcDbLine
 10
14.582523
 20
5.967703
 30
0.0
 11
14.383535
 21
5.482648
 31
0.0
  0
LINE
  5
3f5
100
AcDbEntity
  8
gears
 62
7
100
AcDbLine
 10
14.383535
 20
5.482648
 30
0.0
 11
14.305813
 21
5.045514
 31
0.0
  0
LINE
  5
3f6
100
AcDbEntity
  8
gears
 62
7
100
AcDbLine
 10
14.305813
 20
5.045514
 30
0.0
 11
14.309121
 21
4.999766
 31
0.0
  0
LINE
  5
3f7
100
AcDbEntity
  8
gears
 62
7
100
AcDbLine
 10
14.309121
 20
4.999766
 30
0.0
 11
13.707745
 21
4.999766
 31
0.0
  0
LINE
  5
3f8
100
AcDbEntity
  8
gears
 62
7
100
AcDbLine
 10
13.707745
 20
4.999766
 30
0.0
 11
13.711053
 21
5.045514
 31
0.0
  0
LINE
  5
3f9
100
AcDbEntity
  8
gears
 62
7
100
AcDbLine
 10
13.711053
 20
5.045514
 30
0.0
 11
13.633331
 21
5.482648
 31
0.0
  0
LINE
  5
3fa
100
AcDbEntity
  8
gears
 62
7
100
AcDbLine
 10
13.633331
 20
5.482648
 30
0.0
 11
13.434343
 21
5.967703
 31
0.0
  0
LINE
  5
3fb
100
AcDbEntity
  8
gears
 62
7
100
AcDbLine
 10
13.434343
 20
5.967703
 30
0.0
 11
13.082667
 21
5.967703
 31
0.0
  0
LINE
  5
3fc
100
AcDbEntity
  8
gears
 62
7
100
AcDbLine
 10
13.082667
 20
5.967703
 30
0.0
 11
12.883679
 21
5.482648
 31
0.0
  0
LINE
  5
3fd
100
AcDbEntity
  8
gears
 62
7
100
AcDbLine
 10
12.883679
 20
5.482648
 30
0.0
 11
12.805957
 21
5.045514
 31
0.0
  0
LINE
  5
3fe
100
AcDbEntity
  8
gears
 62
7
100
AcDbLine
 10
12.805957
 20
5.045514
 30
0.0
 11
12.809265
 21
4.999766
 31
0.0
  0
LINE
  5
3ff
100
AcDbEntity
  8
gears
 62
7
100
AcDbLine
 10
12.809265
 20
4.999766
 30
0.0
 11
12.207889
 21
4.999766
 31
0.0
  0
LINE
  5
400
100
AcDbEntity
  8
gears
 62
7
100
AcDbLine
 10
12.207889
 20
4.999766
 30
0.0
 11
12.210655
 21
5.045514
 31
0.0
  0
LINE
  5
401
100
AcDbEntity
  8
gears
 62
7
100
AcDbLine
 10
12.210655
 20
5.045514
 30
0.0
 11
12.133485
 21
5.482648
 31
0.0
  0
LINE
  5
402
100
AcDbEntity
  8
gears
 62
7
100
AcDbLine
 10
12.133485
 20
5.482648
 30
0.0
 11
11.934496
 21
5.967703
 31
0.0
  0
LINE
  5
403
100
AcDbEntity
  8
gears
 62
7
100
AcDbLine
 10
11.934496
 20
5.967703
 30
0.0
 11
11.582821
 21
5.967703
 31
0.0
  0
LINE
  5
404
100
AcDbEntity
  8
gears
 62
7
100
AcDbLine
 10
11.582821
 20
5.967703
 30
0.0
 11
11.383832
 21
5.482648
 31
0.0
  0
LINE
  5
405
100
AcDbEntity
  8
gears
 62
7
100
AcDbLine
 10
11.383832
 20
5.482648
 30
0.0
 11
11.306111
 21
5.045514
 31
0.0
  0
LINE
  5
406
100
AcDbEntity
  8
gears
 62
7
100
AcDbLine
 10
11.306111
 20
5.045514
 30
0.0
 11
11.309418
 21
4.999766
 31
0.0
  0
LINE
  5
407
100
AcDbEntity
  8
gears
 62
7
100
AcDbLine
 10
11.309418
 20
4.999766
 30
0.0
 11
10.707491
 21
4.999766
 31
0.0
  0
LINE
  5
408
100
AcDbEntity
  8
gears
 62
7
100
AcDbLine
 10
10.707491
 20
4.999766
 30
0.0
 11
10.710799
 21
5.045514
 31
0.0
  0
LINE
  5
409
100
AcDbEntity
  8
gears
 62
7
100
AcDbLine
 10
10.710799
 20
5.045514
 30
0.0
 11
10.633077
 21
5.482648
 31
0.0
  0
LINE
  5
40a
100
AcDbEntity
  8
gears
 62
7
100
AcDbLine
 10
10.633077
 20
5.482648
 30
0.0
 11
10.434640
 21
5.967703
 31
0.0
  0
LINE
  5
40b
100
AcDbEntity
  8
gears
 62
7
100
AcDbLine
 10
10.434640
 20
5.967703
 30
0.0
 11
10.082413
 21
5.967703
 31
0.0
  0
LINE
  5
40c
100
AcDbEntity
  8
gears
 62
7
100
AcDbLine
 10
10.082413
 20
5.967703
 30
0.0
 11
9.883424
 21
5.482648
 31
0.0
  0
LINE
  5
40d
100
AcDbEntity
  8
gears
 62
7
100
AcDbLine
 10
9.883424
 20
5.482648
 30
0.0
 11
9.806254
 21
5.045514
 31
0.0
  0
LINE
  5
40e
100
AcDbEntity
  8
gears
 62
7
100
AcDbLine
 10
9.806254
 20
5.045514
 30
0.0
 11
9.809020
 21
4.999766
 31
0.0
  0
LINE
  5
40f
100
AcDbEntity
  8
gears
 62
7
100
AcDbLine
 10
9.809020
 20
4.999766
 30
0.0
 11
9.207644
 21
4.999766
 31
0.0
  0
LINE
  5
410
100
AcDbEntity
  8
gears
 62
7
100
AcDbLine
 10
9.207644
 20
4.999766
 30
0.0
 11
9.210952
 21
5.045514
 31
0.0
  0
LINE
  5
411
100
AcDbEntity
  8
gears
 62
7
100
AcDbLine
 10
9.210952
 20
5.045514
 30
0.0
 11
9.133230
 21
5.482648
 31
0.0
  0
LINE
  5
412
100
AcDbEntity
  8
gears
 62
7
100
AcDbLine
 10
9.133230
 20
5.482648
 30
0.0
 11
8.934793
 21
5.967703
 31
0.0
  0
LINE
  5
413
100
AcDbEntity
  8
gears
 62
7
100
AcDbLine
 10
8.934793
 20
5.967703
 30
0.0
 11
8.582566
 21
5.967703
 31
0.0
  0
LINE
  5
414
100
AcDbEntity
  8
gears
 62
7
100
AcDbLine
 10
8.582566
 20
5.967703
 30
0.0
 11
8.383578
 21
5.482648
 31
0.0
  0
LINE
  5
415
100
AcDbEntity
  8
gears
 62
7
100
AcDbLine
 10
8.383578
 20
5.482648
 30
0.0
 11
8.306408
 21
5.045514
 31
0.0
  0
LINE
  5
416
100
AcDbEntity
  8
gears
 62
7
100
AcDbLine
 10
8.306408
 20
5.045514
 30
0.0
 11
8.309173
 21
4.999766
 31
0.0
  0
LINE
  5
417
100
AcDbEntity
  8
gears
 62
7
100
AcDbLine
 10
8.309173
 20
4.999766
 30
0.0
 11
7.707798
 21
4.999766
 31
0.0
  0
LINE
  5
418
100
AcDbEntity
  8
gears
 62
7
100
AcDbLine
 10
7.707798
 20
4.999766
 30
0.0
 11
7.711105
 21
5.045514
 31
0.0
  0
LINE
  5
419
100
AcDbEntity
  8
gears
 62
7
100
AcDbLine
 10
7.711105
 20
5.045514
 30
0.0
 11
7.633384
 21
5.482648
 31
0.0
  0
LINE
  5
41a
100
AcDbEntity
  8
gears
 62
7
100
AcDbLine
 10
7.633384
 20
5.482648
 30
0.0
 11
7.434395
 21
5.967703
 31
0.0
  0
LINE
  5
41b
100
AcDbEntity
  8
gears
 62
7
100
AcDbLine
 10
7.434395
 20
5.967703
 30
0.0
 11
7.082720
 21
5.967703
 31
0.0
  0
LINE
  5
41c
100
AcDbEntity
  8
gears
 62
7
100
AcDbLine
 10
7.082720
 20
5.967703
 30
0.0
 11
6.883731
 21
5.482648
 31
0.0
  0
LINE
  5
41d
100
AcDbEntity
  8
gears
 62
7
100
AcDbLine
 10
6.883731
 20
5.482648
 30
0.0
 11
6.806561
 21
5.045514
 31
0.0
  0
LINE
  5
41e
100
AcDbEntity
  8
gears
 62
7
100
AcDbLine
 10
6.806561
 20
5.045514
 30
0.0
 11
6.809327
 21
4.999766
 31
0.0
  0
LINE
  5
41f
100
AcDbEntity
  8
gears
 62
7
100
AcDbLine
 10
6.809327
 20
4.999766
 30
0.0
 11
6.207951
 21
4.999766
 31
0.0
  0
LINE
  5
420
100
AcDbEntity
  8
gears
 62
7
100
AcDbLine
 10
6.207951
 20
4.999766
 30
0.0
 11
6.210717
 21
5.045514
 31
0.0
  0
LINE
  5
421
100
AcDbEntity
  8
gears
 62
7
100
AcDbLine
 10
6.210717
 20
5.045514
 30
0.0
 11
6.133547
 21
5.482648
 31
0.0
  0
LINE
  5
422
100
AcDbEntity
  8
gears
 62
7
100
AcDbLine
 10
6.133547
 20
5.482648
 30
0.0
 11
5.934558
 21
5.967703
 31
0.0
  0
LINE
  5
423
100
AcDbEntity
  8
gears
 62
7
100
AcDbLine
 10
5.934558
 20
5.967703
 30
0.0
 11
5.582882
 21
5.967703
 31
0.0
  0
LINE
  5
424
100
AcDbEntity
  8
gears
 62
7
100
AcDbLine
 10
5.582882
 20
5.967703
 30
0.0
 11
5.383894
 21
5.482648
 31
0.0
  0
LINE
  5
425
100
AcDbEntity
  8
gears
 62
7
100
AcDbLine
 10
5.383894
 20
5.482648
 30
0.0
 11
5.306172
 21
5.045514
 31
0.0
  0
LINE
  5
426
100
AcDbEntity
  8
gears
 62
7
100
AcDbLine
 10
5.306172
 20
5.045514
 30
0.0
 11
5.309480
 21
4.999766
 31
0.0
  0
LINE
  5
427
100
AcDbEntity
  8
gears
 62
7
100
AcDbLine
 10
5.309480
 20
4.999766
 30
0.0
 11
3.999792
 21
4.999766
 31
0.0
  0
LINE
  5
428
100
AcDbEntity
  8
gears
 62
7
100
AcDbLine
 10
3.999792
 20
4.999766
 30
0.0
 11
4.008612
 21
14.000002
 31
0.0
  0
LINE
  5
429
100
AcDbEntity
  8
gears
 62
7
100
AcDbLine
 10
4.008612
 20
14.000002
 30
0.0
 11
0.000000
 21
14.000002
 31
0.0
  0
ENDSEC
  0
SECTION
  2
OBJECTS
  0
DICTIONARY
  5
C
330
0
100
AcDbDictionary
  3
ACAD_GROUP
350
D
  3
ACAD_MLINESTYLE
350
17
  0
DICTIONARY
  5
D
330
C
100
AcDbDictionary
  0
DICTIONARY
  5
1A
330
C
100
AcDbDictionary
  0
DICTIONARY
  5
17
330
C
100
AcDbDictionary
  3
STANDARD
350
18
  0
DICTIONARY
  5
19
330
C
100
AcDbDictionary
  0
ENDSEC
  0
EOF
