solid OpenSCAD_Model
  facet normal -1 0 0
    outer loop
      vertex -12 -10 0
      vertex -12 10 3
      vertex -12 10 0
    endloop
  endfacet
  facet normal -1 -0 0
    outer loop
      vertex -12 10 3
      vertex -12 -10 0
      vertex -12 -10 3
    endloop
  endfacet
  facet normal 0 0 1
    outer loop
      vertex -1.2 -1.84313 3
      vertex -1.29313 -1.77984 3
      vertex -1.2 -7.7 3
    endloop
  endfacet
  facet normal -0 0 1
    outer loop
      vertex 10 1 3
      vertex 13 -1 3
      vertex 13 1 3
    endloop
  endfacet
  facet normal 0 0 1
    outer loop
      vertex 13 -1 3
      vertex 10 1 3
      vertex 10 -1 3
    endloop
  endfacet
  facet normal 0 0 1
    outer loop
      vertex 13 1 3
      vertex 15 10 3
      vertex 13 8 3
    endloop
  endfacet
  facet normal 0 0 1
    outer loop
      vertex 15 10 3
      vertex 10 8 3
      vertex 13 8 3
    endloop
  endfacet
  facet normal -0 0 1
    outer loop
      vertex 1.77984 1.29313 3
      vertex 10 1 3
      vertex 10 8 3
    endloop
  endfacet
  facet normal 0 -0 1
    outer loop
      vertex 2.04551 0.809874 3
      vertex 10 1 3
      vertex 1.99062 0.936714 3
    endloop
  endfacet
  facet normal -0 0 1
    outer loop
      vertex 2.19566 -0.138139 3
      vertex 10 -1 3
      vertex 2.2 0 3
    endloop
  endfacet
  facet normal 0 0 1
    outer loop
      vertex 10 1 3
      vertex 2.2 0 3
      vertex 10 -1 3
    endloop
  endfacet
  facet normal 0 -0 1
    outer loop
      vertex 2.2 0 3
      vertex 10 1 3
      vertex 2.19566 0.138139 3
    endloop
  endfacet
  facet normal 0 -0 1
    outer loop
      vertex 2.19566 0.138139 3
      vertex 10 1 3
      vertex 2.18265 0.275733 3
    endloop
  endfacet
  facet normal 0 -0 1
    outer loop
      vertex 2.18265 0.275733 3
      vertex 10 1 3
      vertex 2.16103 0.412238 3
    endloop
  endfacet
  facet normal 0 -0 1
    outer loop
      vertex 2.16103 0.412238 3
      vertex 10 1 3
      vertex 2.13088 0.547117 3
    endloop
  endfacet
  facet normal 0 -0 1
    outer loop
      vertex 2.13088 0.547117 3
      vertex 10 1 3
      vertex 2.09232 0.679837 3
    endloop
  endfacet
  facet normal 0 -0 1
    outer loop
      vertex 2.09232 0.679837 3
      vertex 10 1 3
      vertex 2.04551 0.809874 3
    endloop
  endfacet
  facet normal 0 0 1
    outer loop
      vertex 10 1 3
      vertex 1.92787 1.05986 3
      vertex 1.99062 0.936714 3
    endloop
  endfacet
  facet normal 0 0 1
    outer loop
      vertex 10 1 3
      vertex 1.85752 1.17882 3
      vertex 1.92787 1.05986 3
    endloop
  endfacet
  facet normal 0 0 1
    outer loop
      vertex 10 1 3
      vertex 1.77984 1.29313 3
      vertex 1.85752 1.17882 3
    endloop
  endfacet
  facet normal 0 0 1
    outer loop
      vertex 10 8 3
      vertex 1.69513 1.40233 3
      vertex 1.77984 1.29313 3
    endloop
  endfacet
  facet normal -0 0 1
    outer loop
      vertex 1.2 7.7 3
      vertex 1.69513 1.40233 3
      vertex 10 8 3
    endloop
  endfacet
  facet normal 0 0 1
    outer loop
      vertex 1.69513 1.40233 3
      vertex 1.2 7.7 3
      vertex 1.60373 1.506 3
    endloop
  endfacet
  facet normal 0 0 1
    outer loop
      vertex 1.60373 1.506 3
      vertex 1.2 7.7 3
      vertex 1.506 1.60373 3
    endloop
  endfacet
  facet normal 0 0 1
    outer loop
      vertex 1.506 1.60373 3
      vertex 1.2 7.7 3
      vertex 1.40233 1.69513 3
    endloop
  endfacet
  facet normal 0 0 1
    outer loop
      vertex 1.40233 1.69513 3
      vertex 1.2 7.7 3
      vertex 1.29313 1.77984 3
    endloop
  endfacet
  facet normal 0 0 1
    outer loop
      vertex 15 10 3
      vertex 1.2 7.7 3
      vertex 10 8 3
    endloop
  endfacet
  facet normal -0 0 1
    outer loop
      vertex -12 10 3
      vertex 1.2 7.7 3
      vertex 15 10 3
    endloop
  endfacet
  facet normal 0 0 1
    outer loop
      vertex -1.2 7.7 3
      vertex -1.29313 1.77984 3
      vertex -1.2 1.84313 3
    endloop
  endfacet
  facet normal 0 0 1
    outer loop
      vertex -1.2 7.7 3
      vertex -1.40233 1.69513 3
      vertex -1.29313 1.77984 3
    endloop
  endfacet
  facet normal 0 0 1
    outer loop
      vertex -1.2 7.7 3
      vertex -1.506 1.60373 3
      vertex -1.40233 1.69513 3
    endloop
  endfacet
  facet normal 0 0 1
    outer loop
      vertex -7 8 3
      vertex -1.506 1.60373 3
      vertex -1.2 7.7 3
    endloop
  endfacet
  facet normal 0 0 1
    outer loop
      vertex -1.506 1.60373 3
      vertex -7 8 3
      vertex -1.60373 1.506 3
    endloop
  endfacet
  facet normal 0 0 1
    outer loop
      vertex -1.60373 1.506 3
      vertex -7 8 3
      vertex -1.69513 1.40233 3
    endloop
  endfacet
  facet normal 0 0 1
    outer loop
      vertex -1.69513 1.40233 3
      vertex -7 8 3
      vertex -1.77984 1.29313 3
    endloop
  endfacet
  facet normal 0 0 1
    outer loop
      vertex -1.77984 1.29313 3
      vertex -7 8 3
      vertex -1.85752 1.17882 3
    endloop
  endfacet
  facet normal 0 0 1
    outer loop
      vertex -1.85752 1.17882 3
      vertex -7 8 3
      vertex -1.92787 1.05986 3
    endloop
  endfacet
  facet normal 0 0 1
    outer loop
      vertex -1.92787 1.05986 3
      vertex -7 8 3
      vertex -1.99062 0.936714 3
    endloop
  endfacet
  facet normal 0 0 1
    outer loop
      vertex -1.99062 0.936714 3
      vertex -7 8 3
      vertex -2.04551 0.809874 3
    endloop
  endfacet
  facet normal 0 0 1
    outer loop
      vertex -2.04551 0.809874 3
      vertex -7 8 3
      vertex -2.09232 0.679837 3
    endloop
  endfacet
  facet normal 0 0 1
    outer loop
      vertex -2.09232 0.679837 3
      vertex -7 8 3
      vertex -2.13088 0.547117 3
    endloop
  endfacet
  facet normal 0 0 1
    outer loop
      vertex -2.13088 0.547117 3
      vertex -7 8 3
      vertex -2.16103 0.412238 3
    endloop
  endfacet
  facet normal 0 0 1
    outer loop
      vertex -2.19566 0.138139 3
      vertex -7 8 3
      vertex -2.2 0 3
    endloop
  endfacet
  facet normal 0 0 1
    outer loop
      vertex -2.18265 0.275733 3
      vertex -7 8 3
      vertex -2.19566 0.138139 3
    endloop
  endfacet
  facet normal 0 0 1
    outer loop
      vertex -2.16103 0.412238 3
      vertex -7 8 3
      vertex -2.18265 0.275733 3
    endloop
  endfacet
  facet normal 0 0 1
    outer loop
      vertex 1.2 7.7 3
      vertex -12 10 3
      vertex -1.2 7.7 3
    endloop
  endfacet
  facet normal 0 0 1
    outer loop
      vertex -1.2 7.7 3
      vertex -12 10 3
      vertex -7 8 3
    endloop
  endfacet
  facet normal 0 0 1
    outer loop
      vertex -10 8 3
      vertex -12 10 3
      vertex -10 -8 3
    endloop
  endfacet
  facet normal 0 0 1
    outer loop
      vertex -7 8 3
      vertex -12 10 3
      vertex -10 8 3
    endloop
  endfacet
  facet normal 0 0 1
    outer loop
      vertex 15 10 3
      vertex 13 1 3
      vertex 15 -10 3
    endloop
  endfacet
  facet normal -0 0 1
    outer loop
      vertex 13 -1 3
      vertex 15 -10 3
      vertex 13 1 3
    endloop
  endfacet
  facet normal -0 0 1
    outer loop
      vertex 13 -8 3
      vertex 15 -10 3
      vertex 13 -1 3
    endloop
  endfacet
  facet normal -0 0 1
    outer loop
      vertex 10 -8 3
      vertex 15 -10 3
      vertex 13 -8 3
    endloop
  endfacet
  facet normal -0 0 1
    outer loop
      vertex 2.18265 -0.275733 3
      vertex 10 -1 3
      vertex 2.19566 -0.138139 3
    endloop
  endfacet
  facet normal -0 0 1
    outer loop
      vertex 2.16103 -0.412238 3
      vertex 10 -1 3
      vertex 2.18265 -0.275733 3
    endloop
  endfacet
  facet normal -0 0 1
    outer loop
      vertex 2.13088 -0.547117 3
      vertex 10 -1 3
      vertex 2.16103 -0.412238 3
    endloop
  endfacet
  facet normal -0 0 1
    outer loop
      vertex 2.09232 -0.679837 3
      vertex 10 -1 3
      vertex 2.13088 -0.547117 3
    endloop
  endfacet
  facet normal -0 0 1
    outer loop
      vertex 2.04551 -0.809874 3
      vertex 10 -1 3
      vertex 2.09232 -0.679837 3
    endloop
  endfacet
  facet normal -0 0 1
    outer loop
      vertex 1.99062 -0.936714 3
      vertex 10 -1 3
      vertex 2.04551 -0.809874 3
    endloop
  endfacet
  facet normal 0 0 1
    outer loop
      vertex 1.92787 -1.05986 3
      vertex 10 -1 3
      vertex 1.99062 -0.936714 3
    endloop
  endfacet
  facet normal 0 0 1
    outer loop
      vertex 1.85752 -1.17882 3
      vertex 10 -1 3
      vertex 1.92787 -1.05986 3
    endloop
  endfacet
  facet normal 0 0 1
    outer loop
      vertex 1.77984 -1.29313 3
      vertex 10 -1 3
      vertex 1.85752 -1.17882 3
    endloop
  endfacet
  facet normal 0 0 1
    outer loop
      vertex 10 -1 3
      vertex 1.77984 -1.29313 3
      vertex 10 -8 3
    endloop
  endfacet
  facet normal -0 0 1
    outer loop
      vertex 1.69513 -1.40233 3
      vertex 10 -8 3
      vertex 1.77984 -1.29313 3
    endloop
  endfacet
  facet normal 0 0 1
    outer loop
      vertex 1.2 -7.7 3
      vertex 1.69513 -1.40233 3
      vertex 1.60373 -1.506 3
    endloop
  endfacet
  facet normal 0 0 1
    outer loop
      vertex 1.2 -7.7 3
      vertex 1.60373 -1.506 3
      vertex 1.506 -1.60373 3
    endloop
  endfacet
  facet normal 0 0 1
    outer loop
      vertex 1.2 -7.7 3
      vertex 1.506 -1.60373 3
      vertex 1.40233 -1.69513 3
    endloop
  endfacet
  facet normal 0 0 1
    outer loop
      vertex 1.2 -7.7 3
      vertex 1.40233 -1.69513 3
      vertex 1.29313 -1.77984 3
    endloop
  endfacet
  facet normal 0 0 1
    outer loop
      vertex 1.2 -7.7 3
      vertex 1.29313 -1.77984 3
      vertex 1.2 -1.84313 3
    endloop
  endfacet
  facet normal 0 0 1
    outer loop
      vertex 1.69513 -1.40233 3
      vertex 1.2 -7.7 3
      vertex 10 -8 3
    endloop
  endfacet
  facet normal 0 0 1
    outer loop
      vertex 1.2 -7.7 3
      vertex 15 -10 3
      vertex 10 -8 3
    endloop
  endfacet
  facet normal 0 0 1
    outer loop
      vertex -12 -10 3
      vertex 1.2 -7.7 3
      vertex -1.2 -7.7 3
    endloop
  endfacet
  facet normal 0 0 1
    outer loop
      vertex -1.40233 -1.69513 3
      vertex -1.2 -7.7 3
      vertex -1.29313 -1.77984 3
    endloop
  endfacet
  facet normal 0 0 1
    outer loop
      vertex -1.506 -1.60373 3
      vertex -1.2 -7.7 3
      vertex -1.40233 -1.69513 3
    endloop
  endfacet
  facet normal 0 0 1
    outer loop
      vertex -7 -8 3
      vertex -1.506 -1.60373 3
      vertex -1.60373 -1.506 3
    endloop
  endfacet
  facet normal 0 0 1
    outer loop
      vertex -7 -8 3
      vertex -1.60373 -1.506 3
      vertex -1.69513 -1.40233 3
    endloop
  endfacet
  facet normal 0 0 1
    outer loop
      vertex -7 -8 3
      vertex -1.69513 -1.40233 3
      vertex -1.77984 -1.29313 3
    endloop
  endfacet
  facet normal 0 0 1
    outer loop
      vertex -7 -8 3
      vertex -1.77984 -1.29313 3
      vertex -1.85752 -1.17882 3
    endloop
  endfacet
  facet normal 0 0 1
    outer loop
      vertex -7 -8 3
      vertex -1.85752 -1.17882 3
      vertex -1.92787 -1.05986 3
    endloop
  endfacet
  facet normal 0 0 1
    outer loop
      vertex -7 -8 3
      vertex -1.92787 -1.05986 3
      vertex -1.99062 -0.936714 3
    endloop
  endfacet
  facet normal 0 0 1
    outer loop
      vertex -7 -8 3
      vertex -1.99062 -0.936714 3
      vertex -2.04551 -0.809874 3
    endloop
  endfacet
  facet normal 0 0 1
    outer loop
      vertex -7 -8 3
      vertex -2.04551 -0.809874 3
      vertex -2.09232 -0.679837 3
    endloop
  endfacet
  facet normal 0 0 1
    outer loop
      vertex -7 -8 3
      vertex -2.09232 -0.679837 3
      vertex -2.13088 -0.547117 3
    endloop
  endfacet
  facet normal 0 0 1
    outer loop
      vertex -7 -8 3
      vertex -2.13088 -0.547117 3
      vertex -2.16103 -0.412238 3
    endloop
  endfacet
  facet normal 0 0 1
    outer loop
      vertex -7 -8 3
      vertex -2.16103 -0.412238 3
      vertex -2.18265 -0.275733 3
    endloop
  endfacet
  facet normal 0 0 1
    outer loop
      vertex -7 -8 3
      vertex -2.2 0 3
      vertex -7 8 3
    endloop
  endfacet
  facet normal 0 0 1
    outer loop
      vertex -2.2 0 3
      vertex -7 -8 3
      vertex -2.19566 -0.138139 3
    endloop
  endfacet
  facet normal 0 0 1
    outer loop
      vertex -2.19566 -0.138139 3
      vertex -7 -8 3
      vertex -2.18265 -0.275733 3
    endloop
  endfacet
  facet normal 0 0 1
    outer loop
      vertex -1.506 -1.60373 3
      vertex -7 -8 3
      vertex -1.2 -7.7 3
    endloop
  endfacet
  facet normal 0 0 1
    outer loop
      vertex -12 -10 3
      vertex -1.2 -7.7 3
      vertex -7 -8 3
    endloop
  endfacet
  facet normal 0 0 1
    outer loop
      vertex -12 -10 3
      vertex -7 -8 3
      vertex -10 -8 3
    endloop
  endfacet
  facet normal 0 0 1
    outer loop
      vertex 1.2 -7.7 3
      vertex -12 -10 3
      vertex 15 -10 3
    endloop
  endfacet
  facet normal 0 0 1
    outer loop
      vertex -12 -10 3
      vertex -10 -8 3
      vertex -12 10 3
    endloop
  endfacet
  facet normal 0 0 1
    outer loop
      vertex 1.29313 1.77984 3
      vertex 1.2 7.7 3
      vertex 1.2 1.84313 3
    endloop
  endfacet
  facet normal 1 -0 0
    outer loop
      vertex 15 -10 3
      vertex 15 10 0
      vertex 15 10 3
    endloop
  endfacet
  facet normal 1 0 0
    outer loop
      vertex 15 10 0
      vertex 15 -10 3
      vertex 15 -10 0
    endloop
  endfacet
  facet normal 0 1 -0
    outer loop
      vertex 15 10 0
      vertex -12 10 3
      vertex 15 10 3
    endloop
  endfacet
  facet normal 0 1 0
    outer loop
      vertex -12 10 3
      vertex 15 10 0
      vertex -12 10 0
    endloop
  endfacet
  facet normal -0 0 -1
    outer loop
      vertex -1.2 1.84313 0
      vertex -1.29313 1.77984 0
      vertex -1.2 7.7 0
    endloop
  endfacet
  facet normal 0 0 -1
    outer loop
      vertex 15 -10 0
      vertex 2.2 0 0
      vertex 15 10 0
    endloop
  endfacet
  facet normal 0 0 -1
    outer loop
      vertex 15 -10 0
      vertex 2.19566 -0.138139 0
      vertex 2.2 0 0
    endloop
  endfacet
  facet normal 0 0 -1
    outer loop
      vertex 15 -10 0
      vertex 2.18265 -0.275733 0
      vertex 2.19566 -0.138139 0
    endloop
  endfacet
  facet normal 0 0 -1
    outer loop
      vertex 15 -10 0
      vertex 2.16103 -0.412238 0
      vertex 2.18265 -0.275733 0
    endloop
  endfacet
  facet normal 0 0 -1
    outer loop
      vertex 15 -10 0
      vertex 2.13088 -0.547117 0
      vertex 2.16103 -0.412238 0
    endloop
  endfacet
  facet normal 0 0 -1
    outer loop
      vertex 15 -10 0
      vertex 2.09232 -0.679837 0
      vertex 2.13088 -0.547117 0
    endloop
  endfacet
  facet normal 0 0 -1
    outer loop
      vertex 15 -10 0
      vertex 2.04551 -0.809874 0
      vertex 2.09232 -0.679837 0
    endloop
  endfacet
  facet normal 0 0 -1
    outer loop
      vertex 15 -10 0
      vertex 1.99062 -0.936714 0
      vertex 2.04551 -0.809874 0
    endloop
  endfacet
  facet normal 0 0 -1
    outer loop
      vertex 15 -10 0
      vertex 1.92787 -1.05986 0
      vertex 1.99062 -0.936714 0
    endloop
  endfacet
  facet normal 0 0 -1
    outer loop
      vertex 15 -10 0
      vertex 1.85752 -1.17882 0
      vertex 1.92787 -1.05986 0
    endloop
  endfacet
  facet normal 0 0 -1
    outer loop
      vertex 1.2 -7.7 0
      vertex 1.85752 -1.17882 0
      vertex 15 -10 0
    endloop
  endfacet
  facet normal 0 0 -1
    outer loop
      vertex 1.85752 -1.17882 0
      vertex 1.2 -7.7 0
      vertex 1.77984 -1.29313 0
    endloop
  endfacet
  facet normal 0 0 -1
    outer loop
      vertex 1.77984 -1.29313 0
      vertex 1.2 -7.7 0
      vertex 1.69513 -1.40233 0
    endloop
  endfacet
  facet normal 0 0 -1
    outer loop
      vertex 1.69513 -1.40233 0
      vertex 1.2 -7.7 0
      vertex 1.60373 -1.506 0
    endloop
  endfacet
  facet normal 0 0 -1
    outer loop
      vertex 1.60373 -1.506 0
      vertex 1.2 -7.7 0
      vertex 1.506 -1.60373 0
    endloop
  endfacet
  facet normal 0 0 -1
    outer loop
      vertex 1.506 -1.60373 0
      vertex 1.2 -7.7 0
      vertex 1.40233 -1.69513 0
    endloop
  endfacet
  facet normal 0 0 -1
    outer loop
      vertex 1.40233 -1.69513 0
      vertex 1.2 -7.7 0
      vertex 1.29313 -1.77984 0
    endloop
  endfacet
  facet normal 0 0 -1
    outer loop
      vertex -12 -10 0
      vertex 1.2 -7.7 0
      vertex 15 -10 0
    endloop
  endfacet
  facet normal 0 0 -1
    outer loop
      vertex -1.2 -7.7 0
      vertex -1.29313 -1.77984 0
      vertex -1.2 -1.84313 0
    endloop
  endfacet
  facet normal 0 0 -1
    outer loop
      vertex -1.2 -7.7 0
      vertex -1.40233 -1.69513 0
      vertex -1.29313 -1.77984 0
    endloop
  endfacet
  facet normal 0 0 -1
    outer loop
      vertex -1.2 -7.7 0
      vertex -1.506 -1.60373 0
      vertex -1.40233 -1.69513 0
    endloop
  endfacet
  facet normal 0 0 -1
    outer loop
      vertex -1.2 -7.7 0
      vertex -1.60373 -1.506 0
      vertex -1.506 -1.60373 0
    endloop
  endfacet
  facet normal 0 0 -1
    outer loop
      vertex -1.2 -7.7 0
      vertex -1.69513 -1.40233 0
      vertex -1.60373 -1.506 0
    endloop
  endfacet
  facet normal 0 0 -1
    outer loop
      vertex -1.2 -7.7 0
      vertex -1.77984 -1.29313 0
      vertex -1.69513 -1.40233 0
    endloop
  endfacet
  facet normal 0 0 -1
    outer loop
      vertex -1.2 -7.7 0
      vertex -1.85752 -1.17882 0
      vertex -1.77984 -1.29313 0
    endloop
  endfacet
  facet normal 0 0 -1
    outer loop
      vertex -12 -10 0
      vertex -1.85752 -1.17882 0
      vertex -1.2 -7.7 0
    endloop
  endfacet
  facet normal -0 0 -1
    outer loop
      vertex -1.85752 -1.17882 0
      vertex -12 -10 0
      vertex -1.92787 -1.05986 0
    endloop
  endfacet
  facet normal -0 0 -1
    outer loop
      vertex -1.92787 -1.05986 0
      vertex -12 -10 0
      vertex -1.99062 -0.936714 0
    endloop
  endfacet
  facet normal -0 0 -1
    outer loop
      vertex -1.99062 -0.936714 0
      vertex -12 -10 0
      vertex -2.04551 -0.809874 0
    endloop
  endfacet
  facet normal -0 0 -1
    outer loop
      vertex -2.04551 -0.809874 0
      vertex -12 -10 0
      vertex -2.09232 -0.679837 0
    endloop
  endfacet
  facet normal -0 0 -1
    outer loop
      vertex -2.09232 -0.679837 0
      vertex -12 -10 0
      vertex -2.13088 -0.547117 0
    endloop
  endfacet
  facet normal -0 0 -1
    outer loop
      vertex -2.13088 -0.547117 0
      vertex -12 -10 0
      vertex -2.16103 -0.412238 0
    endloop
  endfacet
  facet normal -0 0 -1
    outer loop
      vertex -2.19566 -0.138139 0
      vertex -12 -10 0
      vertex -2.2 0 0
    endloop
  endfacet
  facet normal -0 0 -1
    outer loop
      vertex -2.18265 -0.275733 0
      vertex -12 -10 0
      vertex -2.19566 -0.138139 0
    endloop
  endfacet
  facet normal -0 0 -1
    outer loop
      vertex -2.16103 -0.412238 0
      vertex -12 -10 0
      vertex -2.18265 -0.275733 0
    endloop
  endfacet
  facet normal -0 0 -1
    outer loop
      vertex 1.2 -7.7 0
      vertex -12 -10 0
      vertex -1.2 -7.7 0
    endloop
  endfacet
  facet normal 0 0 -1
    outer loop
      vertex 2.19566 0.138139 0
      vertex 15 10 0
      vertex 2.2 0 0
    endloop
  endfacet
  facet normal 0 0 -1
    outer loop
      vertex 2.18265 0.275733 0
      vertex 15 10 0
      vertex 2.19566 0.138139 0
    endloop
  endfacet
  facet normal 0 0 -1
    outer loop
      vertex 2.16103 0.412238 0
      vertex 15 10 0
      vertex 2.18265 0.275733 0
    endloop
  endfacet
  facet normal 0 0 -1
    outer loop
      vertex 2.13088 0.547117 0
      vertex 15 10 0
      vertex 2.16103 0.412238 0
    endloop
  endfacet
  facet normal 0 0 -1
    outer loop
      vertex 2.09232 0.679837 0
      vertex 15 10 0
      vertex 2.13088 0.547117 0
    endloop
  endfacet
  facet normal 0 0 -1
    outer loop
      vertex 2.04551 0.809874 0
      vertex 15 10 0
      vertex 2.09232 0.679837 0
    endloop
  endfacet
  facet normal 0 0 -1
    outer loop
      vertex 1.99062 0.936714 0
      vertex 15 10 0
      vertex 2.04551 0.809874 0
    endloop
  endfacet
  facet normal 0 0 -1
    outer loop
      vertex 1.92787 1.05986 0
      vertex 15 10 0
      vertex 1.99062 0.936714 0
    endloop
  endfacet
  facet normal 0 0 -1
    outer loop
      vertex 1.85752 1.17882 0
      vertex 15 10 0
      vertex 1.92787 1.05986 0
    endloop
  endfacet
  facet normal 0 0 -1
    outer loop
      vertex 1.2 7.7 0
      vertex 1.85752 1.17882 0
      vertex 1.77984 1.29313 0
    endloop
  endfacet
  facet normal 0 0 -1
    outer loop
      vertex 1.2 7.7 0
      vertex 1.77984 1.29313 0
      vertex 1.69513 1.40233 0
    endloop
  endfacet
  facet normal 0 0 -1
    outer loop
      vertex 1.2 7.7 0
      vertex 1.69513 1.40233 0
      vertex 1.60373 1.506 0
    endloop
  endfacet
  facet normal 0 0 -1
    outer loop
      vertex 1.2 7.7 0
      vertex 1.60373 1.506 0
      vertex 1.506 1.60373 0
    endloop
  endfacet
  facet normal 0 0 -1
    outer loop
      vertex 1.2 7.7 0
      vertex 1.506 1.60373 0
      vertex 1.40233 1.69513 0
    endloop
  endfacet
  facet normal 0 0 -1
    outer loop
      vertex 1.2 7.7 0
      vertex 1.40233 1.69513 0
      vertex 1.29313 1.77984 0
    endloop
  endfacet
  facet normal 0 0 -1
    outer loop
      vertex 1.2 7.7 0
      vertex 1.29313 1.77984 0
      vertex 1.2 1.84313 0
    endloop
  endfacet
  facet normal 0 0 -1
    outer loop
      vertex 1.85752 1.17882 0
      vertex 1.2 7.7 0
      vertex 15 10 0
    endloop
  endfacet
  facet normal 0 0 -1
    outer loop
      vertex -12 10 0
      vertex 1.2 7.7 0
      vertex -1.2 7.7 0
    endloop
  endfacet
  facet normal 0 0 -1
    outer loop
      vertex -1.40233 1.69513 0
      vertex -1.2 7.7 0
      vertex -1.29313 1.77984 0
    endloop
  endfacet
  facet normal 0 0 -1
    outer loop
      vertex -1.506 1.60373 0
      vertex -1.2 7.7 0
      vertex -1.40233 1.69513 0
    endloop
  endfacet
  facet normal 0 0 -1
    outer loop
      vertex -1.60373 1.506 0
      vertex -1.2 7.7 0
      vertex -1.506 1.60373 0
    endloop
  endfacet
  facet normal 0 0 -1
    outer loop
      vertex -1.69513 1.40233 0
      vertex -1.2 7.7 0
      vertex -1.60373 1.506 0
    endloop
  endfacet
  facet normal 0 0 -1
    outer loop
      vertex -1.77984 1.29313 0
      vertex -1.2 7.7 0
      vertex -1.69513 1.40233 0
    endloop
  endfacet
  facet normal 0 0 -1
    outer loop
      vertex -1.85752 1.17882 0
      vertex -1.2 7.7 0
      vertex -1.77984 1.29313 0
    endloop
  endfacet
  facet normal 0 0 -1
    outer loop
      vertex -12 10 0
      vertex -1.85752 1.17882 0
      vertex -1.92787 1.05986 0
    endloop
  endfacet
  facet normal 0 0 -1
    outer loop
      vertex -12 10 0
      vertex -1.92787 1.05986 0
      vertex -1.99062 0.936714 0
    endloop
  endfacet
  facet normal 0 0 -1
    outer loop
      vertex -12 10 0
      vertex -1.99062 0.936714 0
      vertex -2.04551 0.809874 0
    endloop
  endfacet
  facet normal 0 0 -1
    outer loop
      vertex -12 10 0
      vertex -2.04551 0.809874 0
      vertex -2.09232 0.679837 0
    endloop
  endfacet
  facet normal 0 0 -1
    outer loop
      vertex -12 10 0
      vertex -2.09232 0.679837 0
      vertex -2.13088 0.547117 0
    endloop
  endfacet
  facet normal 0 0 -1
    outer loop
      vertex -12 10 0
      vertex -2.13088 0.547117 0
      vertex -2.16103 0.412238 0
    endloop
  endfacet
  facet normal 0 0 -1
    outer loop
      vertex -12 10 0
      vertex -2.16103 0.412238 0
      vertex -2.18265 0.275733 0
    endloop
  endfacet
  facet normal 0 0 -1
    outer loop
      vertex -12 10 0
      vertex -2.2 0 0
      vertex -12 -10 0
    endloop
  endfacet
  facet normal 0 0 -1
    outer loop
      vertex -2.2 0 0
      vertex -12 10 0
      vertex -2.19566 0.138139 0
    endloop
  endfacet
  facet normal 0 0 -1
    outer loop
      vertex -2.19566 0.138139 0
      vertex -12 10 0
      vertex -2.18265 0.275733 0
    endloop
  endfacet
  facet normal 0 0 -1
    outer loop
      vertex 1.2 7.7 0
      vertex -12 10 0
      vertex 15 10 0
    endloop
  endfacet
  facet normal 0 0 -1
    outer loop
      vertex -1.85752 1.17882 0
      vertex -12 10 0
      vertex -1.2 7.7 0
    endloop
  endfacet
  facet normal 0 0 -1
    outer loop
      vertex 1.29313 -1.77984 0
      vertex 1.2 -7.7 0
      vertex 1.2 -1.84313 0
    endloop
  endfacet
  facet normal 0 -1 0
    outer loop
      vertex -12 -10 0
      vertex 15 -10 3
      vertex -12 -10 3
    endloop
  endfacet
  facet normal 0 -1 -0
    outer loop
      vertex 15 -10 3
      vertex -12 -10 0
      vertex 15 -10 0
    endloop
  endfacet
  facet normal -0.999507 -0.0314103 0
    outer loop
      vertex 2.2 0 0
      vertex 2.19566 0.138139 3
      vertex 2.19566 0.138139 0
    endloop
  endfacet
  facet normal -0.999507 -0.0314103 0
    outer loop
      vertex 2.19566 0.138139 3
      vertex 2.2 0 0
      vertex 2.2 0 3
    endloop
  endfacet
  facet normal 0.999507 -0.0314103 0
    outer loop
      vertex -2.2 0 3
      vertex -2.19566 0.138139 0
      vertex -2.19566 0.138139 3
    endloop
  endfacet
  facet normal 0.999507 -0.0314103 0
    outer loop
      vertex -2.19566 0.138139 0
      vertex -2.2 0 3
      vertex -2.2 0 0
    endloop
  endfacet
  facet normal -0.707107 -0.707107 0
    outer loop
      vertex 1.60373 1.506 0
      vertex 1.506 1.60373 3
      vertex 1.506 1.60373 0
    endloop
  endfacet
  facet normal -0.707107 -0.707107 0
    outer loop
      vertex 1.506 1.60373 3
      vertex 1.60373 1.506 0
      vertex 1.60373 1.506 3
    endloop
  endfacet
  facet normal 0.707107 -0.707107 0
    outer loop
      vertex -1.60373 1.506 3
      vertex -1.506 1.60373 0
      vertex -1.506 1.60373 3
    endloop
  endfacet
  facet normal 0.707107 -0.707107 0
    outer loop
      vertex -1.506 1.60373 0
      vertex -1.60373 1.506 3
      vertex -1.60373 1.506 0
    endloop
  endfacet
  facet normal -0.917755 -0.397147 0
    outer loop
      vertex 2.04551 0.809874 0
      vertex 1.99062 0.936714 3
      vertex 1.99062 0.936714 0
    endloop
  endfacet
  facet normal -0.917755 -0.397147 0
    outer loop
      vertex 1.99062 0.936714 3
      vertex 2.04551 0.809874 0
      vertex 2.04551 0.809874 3
    endloop
  endfacet
  facet normal -0.562086 -0.827079 0
    outer loop
      vertex 1.2 1.84313 0
      vertex 1.29313 1.77984 3
      vertex 1.2 1.84313 3
    endloop
  endfacet
  facet normal -0.562086 -0.827079 -0
    outer loop
      vertex 1.29313 1.77984 3
      vertex 1.2 1.84313 0
      vertex 1.29313 1.77984 0
    endloop
  endfacet
  facet normal 0.917755 -0.397147 0
    outer loop
      vertex -2.04551 0.809874 3
      vertex -1.99062 0.936714 0
      vertex -1.99062 0.936714 3
    endloop
  endfacet
  facet normal 0.917755 -0.397147 0
    outer loop
      vertex -1.99062 0.936714 0
      vertex -2.04551 0.809874 3
      vertex -2.04551 0.809874 0
    endloop
  endfacet
  facet normal -0.975916 -0.218146 0
    outer loop
      vertex 2.16103 0.412238 0
      vertex 2.13088 0.547117 3
      vertex 2.13088 0.547117 0
    endloop
  endfacet
  facet normal -0.975916 -0.218146 0
    outer loop
      vertex 2.13088 0.547117 3
      vertex 2.16103 0.412238 0
      vertex 2.16103 0.412238 3
    endloop
  endfacet
  facet normal -0.960295 -0.278986 0
    outer loop
      vertex 2.13088 0.547117 0
      vertex 2.09232 0.679837 3
      vertex 2.09232 0.679837 0
    endloop
  endfacet
  facet normal -0.960295 -0.278986 0
    outer loop
      vertex 2.09232 0.679837 3
      vertex 2.13088 0.547117 0
      vertex 2.13088 0.547117 3
    endloop
  endfacet
  facet normal -0.827079 -0.562086 0
    outer loop
      vertex 1.85752 1.17882 0
      vertex 1.77984 1.29313 3
      vertex 1.77984 1.29313 0
    endloop
  endfacet
  facet normal -0.827079 -0.562086 0
    outer loop
      vertex 1.77984 1.29313 3
      vertex 1.85752 1.17882 0
      vertex 1.85752 1.17882 3
    endloop
  endfacet
  facet normal -0.860742 -0.509041 0
    outer loop
      vertex 1.92787 1.05986 0
      vertex 1.85752 1.17882 3
      vertex 1.85752 1.17882 0
    endloop
  endfacet
  facet normal -0.860742 -0.509041 0
    outer loop
      vertex 1.85752 1.17882 3
      vertex 1.92787 1.05986 0
      vertex 1.92787 1.05986 3
    endloop
  endfacet
  facet normal -0.661311 -0.750111 0
    outer loop
      vertex 1.40233 1.69513 0
      vertex 1.506 1.60373 3
      vertex 1.40233 1.69513 3
    endloop
  endfacet
  facet normal -0.661311 -0.750111 -0
    outer loop
      vertex 1.506 1.60373 3
      vertex 1.40233 1.69513 0
      vertex 1.506 1.60373 0
    endloop
  endfacet
  facet normal 0.975916 -0.218146 0
    outer loop
      vertex -2.16103 0.412238 3
      vertex -2.13088 0.547117 0
      vertex -2.13088 0.547117 3
    endloop
  endfacet
  facet normal 0.975916 -0.218146 0
    outer loop
      vertex -2.13088 0.547117 0
      vertex -2.16103 0.412238 3
      vertex -2.16103 0.412238 0
    endloop
  endfacet
  facet normal 0.827079 -0.562086 0
    outer loop
      vertex -1.85752 1.17882 3
      vertex -1.77984 1.29313 0
      vertex -1.77984 1.29313 3
    endloop
  endfacet
  facet normal 0.827079 -0.562086 0
    outer loop
      vertex -1.77984 1.29313 0
      vertex -1.85752 1.17882 3
      vertex -1.85752 1.17882 0
    endloop
  endfacet
  facet normal 0.750111 -0.661311 0
    outer loop
      vertex -1.69513 1.40233 3
      vertex -1.60373 1.506 0
      vertex -1.60373 1.506 3
    endloop
  endfacet
  facet normal 0.750111 -0.661311 0
    outer loop
      vertex -1.60373 1.506 0
      vertex -1.69513 1.40233 3
      vertex -1.69513 1.40233 0
    endloop
  endfacet
  facet normal 0.860742 -0.509041 0
    outer loop
      vertex -1.92787 1.05986 3
      vertex -1.85752 1.17882 0
      vertex -1.85752 1.17882 3
    endloop
  endfacet
  facet normal 0.860742 -0.509041 0
    outer loop
      vertex -1.85752 1.17882 0
      vertex -1.92787 1.05986 3
      vertex -1.92787 1.05986 0
    endloop
  endfacet
  facet normal 0.940879 -0.338743 0
    outer loop
      vertex -2.09232 0.679837 3
      vertex -2.04551 0.809874 0
      vertex -2.04551 0.809874 3
    endloop
  endfacet
  facet normal 0.940879 -0.338743 0
    outer loop
      vertex -2.04551 0.809874 0
      vertex -2.09232 0.679837 3
      vertex -2.09232 0.679837 0
    endloop
  endfacet
  facet normal 0.562086 -0.827079 0
    outer loop
      vertex -1.29313 1.77984 0
      vertex -1.2 1.84313 3
      vertex -1.29313 1.77984 3
    endloop
  endfacet
  facet normal 0.562086 -0.827079 0
    outer loop
      vertex -1.2 1.84313 3
      vertex -1.29313 1.77984 0
      vertex -1.2 1.84313 0
    endloop
  endfacet
  facet normal -0.975916 0.218146 0
    outer loop
      vertex 2.13088 -0.547117 0
      vertex 2.16103 -0.412238 3
      vertex 2.16103 -0.412238 0
    endloop
  endfacet
  facet normal -0.975916 0.218146 0
    outer loop
      vertex 2.16103 -0.412238 3
      vertex 2.13088 -0.547117 0
      vertex 2.13088 -0.547117 3
    endloop
  endfacet
  facet normal -0.707107 0.707107 0
    outer loop
      vertex 1.506 -1.60373 0
      vertex 1.60373 -1.506 3
      vertex 1.60373 -1.506 0
    endloop
  endfacet
  facet normal -0.707107 0.707107 0
    outer loop
      vertex 1.60373 -1.506 3
      vertex 1.506 -1.60373 0
      vertex 1.506 -1.60373 3
    endloop
  endfacet
  facet normal -0.987689 -0.156431 0
    outer loop
      vertex 2.18265 0.275733 0
      vertex 2.16103 0.412238 3
      vertex 2.16103 0.412238 0
    endloop
  endfacet
  facet normal -0.987689 -0.156431 0
    outer loop
      vertex 2.16103 0.412238 3
      vertex 2.18265 0.275733 0
      vertex 2.18265 0.275733 3
    endloop
  endfacet
  facet normal -0.995562 -0.0941132 0
    outer loop
      vertex 2.19566 0.138139 0
      vertex 2.18265 0.275733 3
      vertex 2.18265 0.275733 0
    endloop
  endfacet
  facet normal -0.995562 -0.0941132 0
    outer loop
      vertex 2.18265 0.275733 3
      vertex 2.19566 0.138139 0
      vertex 2.19566 0.138139 3
    endloop
  endfacet
  facet normal -0.940879 -0.338743 0
    outer loop
      vertex 2.09232 0.679837 0
      vertex 2.04551 0.809874 3
      vertex 2.04551 0.809874 0
    endloop
  endfacet
  facet normal -0.940879 -0.338743 0
    outer loop
      vertex 2.04551 0.809874 3
      vertex 2.09232 0.679837 0
      vertex 2.09232 0.679837 3
    endloop
  endfacet
  facet normal -0.790155 -0.612907 0
    outer loop
      vertex 1.77984 1.29313 0
      vertex 1.69513 1.40233 3
      vertex 1.69513 1.40233 0
    endloop
  endfacet
  facet normal -0.790155 -0.612907 0
    outer loop
      vertex 1.69513 1.40233 3
      vertex 1.77984 1.29313 0
      vertex 1.77984 1.29313 3
    endloop
  endfacet
  facet normal -0.750111 -0.661311 0
    outer loop
      vertex 1.69513 1.40233 0
      vertex 1.60373 1.506 3
      vertex 1.60373 1.506 0
    endloop
  endfacet
  facet normal -0.750111 -0.661311 0
    outer loop
      vertex 1.60373 1.506 3
      vertex 1.69513 1.40233 0
      vertex 1.69513 1.40233 3
    endloop
  endfacet
  facet normal -0.891008 -0.453988 0
    outer loop
      vertex 1.99062 0.936714 0
      vertex 1.92787 1.05986 3
      vertex 1.92787 1.05986 0
    endloop
  endfacet
  facet normal -0.891008 -0.453988 0
    outer loop
      vertex 1.92787 1.05986 3
      vertex 1.99062 0.936714 0
      vertex 1.99062 0.936714 3
    endloop
  endfacet
  facet normal -0.612907 -0.790155 0
    outer loop
      vertex 1.29313 1.77984 0
      vertex 1.40233 1.69513 3
      vertex 1.29313 1.77984 3
    endloop
  endfacet
  facet normal -0.612907 -0.790155 -0
    outer loop
      vertex 1.40233 1.69513 3
      vertex 1.29313 1.77984 0
      vertex 1.40233 1.69513 0
    endloop
  endfacet
  facet normal 0.790155 -0.612907 0
    outer loop
      vertex -1.77984 1.29313 3
      vertex -1.69513 1.40233 0
      vertex -1.69513 1.40233 3
    endloop
  endfacet
  facet normal 0.790155 -0.612907 0
    outer loop
      vertex -1.69513 1.40233 0
      vertex -1.77984 1.29313 3
      vertex -1.77984 1.29313 0
    endloop
  endfacet
  facet normal 0.891008 -0.453988 0
    outer loop
      vertex -1.99062 0.936714 3
      vertex -1.92787 1.05986 0
      vertex -1.92787 1.05986 3
    endloop
  endfacet
  facet normal 0.891008 -0.453988 0
    outer loop
      vertex -1.92787 1.05986 0
      vertex -1.99062 0.936714 3
      vertex -1.99062 0.936714 0
    endloop
  endfacet
  facet normal 0.960295 -0.278986 0
    outer loop
      vertex -2.13088 0.547117 3
      vertex -2.09232 0.679837 0
      vertex -2.09232 0.679837 3
    endloop
  endfacet
  facet normal 0.960295 -0.278986 0
    outer loop
      vertex -2.09232 0.679837 0
      vertex -2.13088 0.547117 3
      vertex -2.13088 0.547117 0
    endloop
  endfacet
  facet normal 0.987689 -0.156431 0
    outer loop
      vertex -2.18265 0.275733 3
      vertex -2.16103 0.412238 0
      vertex -2.16103 0.412238 3
    endloop
  endfacet
  facet normal 0.987689 -0.156431 0
    outer loop
      vertex -2.16103 0.412238 0
      vertex -2.18265 0.275733 3
      vertex -2.18265 0.275733 0
    endloop
  endfacet
  facet normal 0.995562 -0.0941132 0
    outer loop
      vertex -2.19566 0.138139 3
      vertex -2.18265 0.275733 0
      vertex -2.18265 0.275733 3
    endloop
  endfacet
  facet normal 0.995562 -0.0941132 0
    outer loop
      vertex -2.18265 0.275733 0
      vertex -2.19566 0.138139 3
      vertex -2.19566 0.138139 0
    endloop
  endfacet
  facet normal 0.612907 -0.790155 0
    outer loop
      vertex -1.40233 1.69513 0
      vertex -1.29313 1.77984 3
      vertex -1.40233 1.69513 3
    endloop
  endfacet
  facet normal 0.612907 -0.790155 0
    outer loop
      vertex -1.29313 1.77984 3
      vertex -1.40233 1.69513 0
      vertex -1.29313 1.77984 0
    endloop
  endfacet
  facet normal 0.661311 -0.750111 0
    outer loop
      vertex -1.506 1.60373 0
      vertex -1.40233 1.69513 3
      vertex -1.506 1.60373 3
    endloop
  endfacet
  facet normal 0.661311 -0.750111 0
    outer loop
      vertex -1.40233 1.69513 3
      vertex -1.506 1.60373 0
      vertex -1.40233 1.69513 0
    endloop
  endfacet
  facet normal -0.999507 0.0314103 0
    outer loop
      vertex 2.19566 -0.138139 0
      vertex 2.2 0 3
      vertex 2.2 0 0
    endloop
  endfacet
  facet normal -0.999507 0.0314103 0
    outer loop
      vertex 2.2 0 3
      vertex 2.19566 -0.138139 0
      vertex 2.19566 -0.138139 3
    endloop
  endfacet
  facet normal -0.987689 0.156431 0
    outer loop
      vertex 2.16103 -0.412238 0
      vertex 2.18265 -0.275733 3
      vertex 2.18265 -0.275733 0
    endloop
  endfacet
  facet normal -0.987689 0.156431 0
    outer loop
      vertex 2.18265 -0.275733 3
      vertex 2.16103 -0.412238 0
      vertex 2.16103 -0.412238 3
    endloop
  endfacet
  facet normal -0.995562 0.0941132 0
    outer loop
      vertex 2.18265 -0.275733 0
      vertex 2.19566 -0.138139 3
      vertex 2.19566 -0.138139 0
    endloop
  endfacet
  facet normal -0.995562 0.0941132 0
    outer loop
      vertex 2.19566 -0.138139 3
      vertex 2.18265 -0.275733 0
      vertex 2.18265 -0.275733 3
    endloop
  endfacet
  facet normal -0.750111 0.661311 0
    outer loop
      vertex 1.60373 -1.506 0
      vertex 1.69513 -1.40233 3
      vertex 1.69513 -1.40233 0
    endloop
  endfacet
  facet normal -0.750111 0.661311 0
    outer loop
      vertex 1.69513 -1.40233 3
      vertex 1.60373 -1.506 0
      vertex 1.60373 -1.506 3
    endloop
  endfacet
  facet normal -0.860742 0.509041 0
    outer loop
      vertex 1.85752 -1.17882 0
      vertex 1.92787 -1.05986 3
      vertex 1.92787 -1.05986 0
    endloop
  endfacet
  facet normal -0.860742 0.509041 0
    outer loop
      vertex 1.92787 -1.05986 3
      vertex 1.85752 -1.17882 0
      vertex 1.85752 -1.17882 3
    endloop
  endfacet
  facet normal -0.917755 0.397147 0
    outer loop
      vertex 1.99062 -0.936714 0
      vertex 2.04551 -0.809874 3
      vertex 2.04551 -0.809874 0
    endloop
  endfacet
  facet normal -0.917755 0.397147 0
    outer loop
      vertex 2.04551 -0.809874 3
      vertex 1.99062 -0.936714 0
      vertex 1.99062 -0.936714 3
    endloop
  endfacet
  facet normal -0.960295 0.278986 0
    outer loop
      vertex 2.09232 -0.679837 0
      vertex 2.13088 -0.547117 3
      vertex 2.13088 -0.547117 0
    endloop
  endfacet
  facet normal -0.960295 0.278986 0
    outer loop
      vertex 2.13088 -0.547117 3
      vertex 2.09232 -0.679837 0
      vertex 2.09232 -0.679837 3
    endloop
  endfacet
  facet normal -0.790155 0.612907 0
    outer loop
      vertex 1.69513 -1.40233 0
      vertex 1.77984 -1.29313 3
      vertex 1.77984 -1.29313 0
    endloop
  endfacet
  facet normal -0.790155 0.612907 0
    outer loop
      vertex 1.77984 -1.29313 3
      vertex 1.69513 -1.40233 0
      vertex 1.69513 -1.40233 3
    endloop
  endfacet
  facet normal -0.827079 0.562086 0
    outer loop
      vertex 1.77984 -1.29313 0
      vertex 1.85752 -1.17882 3
      vertex 1.85752 -1.17882 0
    endloop
  endfacet
  facet normal -0.827079 0.562086 0
    outer loop
      vertex 1.85752 -1.17882 3
      vertex 1.77984 -1.29313 0
      vertex 1.77984 -1.29313 3
    endloop
  endfacet
  facet normal 0.707107 0.707107 0
    outer loop
      vertex -1.506 -1.60373 3
      vertex -1.60373 -1.506 0
      vertex -1.60373 -1.506 3
    endloop
  endfacet
  facet normal 0.707107 0.707107 0
    outer loop
      vertex -1.60373 -1.506 0
      vertex -1.506 -1.60373 3
      vertex -1.506 -1.60373 0
    endloop
  endfacet
  facet normal 0.999507 0.0314103 0
    outer loop
      vertex -2.19566 -0.138139 3
      vertex -2.2 0 0
      vertex -2.2 0 3
    endloop
  endfacet
  facet normal 0.999507 0.0314103 0
    outer loop
      vertex -2.2 0 0
      vertex -2.19566 -0.138139 3
      vertex -2.19566 -0.138139 0
    endloop
  endfacet
  facet normal -0.891008 0.453988 0
    outer loop
      vertex 1.92787 -1.05986 0
      vertex 1.99062 -0.936714 3
      vertex 1.99062 -0.936714 0
    endloop
  endfacet
  facet normal -0.891008 0.453988 0
    outer loop
      vertex 1.99062 -0.936714 3
      vertex 1.92787 -1.05986 0
      vertex 1.92787 -1.05986 3
    endloop
  endfacet
  facet normal -0.661311 0.750111 0
    outer loop
      vertex 1.506 -1.60373 0
      vertex 1.40233 -1.69513 3
      vertex 1.506 -1.60373 3
    endloop
  endfacet
  facet normal -0.661311 0.750111 0
    outer loop
      vertex 1.40233 -1.69513 3
      vertex 1.506 -1.60373 0
      vertex 1.40233 -1.69513 0
    endloop
  endfacet
  facet normal 0.661311 0.750111 -0
    outer loop
      vertex -1.40233 -1.69513 0
      vertex -1.506 -1.60373 3
      vertex -1.40233 -1.69513 3
    endloop
  endfacet
  facet normal 0.661311 0.750111 0
    outer loop
      vertex -1.506 -1.60373 3
      vertex -1.40233 -1.69513 0
      vertex -1.506 -1.60373 0
    endloop
  endfacet
  facet normal 0.562086 0.827079 -0
    outer loop
      vertex -1.2 -1.84313 0
      vertex -1.29313 -1.77984 3
      vertex -1.2 -1.84313 3
    endloop
  endfacet
  facet normal 0.562086 0.827079 0
    outer loop
      vertex -1.29313 -1.77984 3
      vertex -1.2 -1.84313 0
      vertex -1.29313 -1.77984 0
    endloop
  endfacet
  facet normal 0.827079 0.562086 0
    outer loop
      vertex -1.77984 -1.29313 3
      vertex -1.85752 -1.17882 0
      vertex -1.85752 -1.17882 3
    endloop
  endfacet
  facet normal 0.827079 0.562086 0
    outer loop
      vertex -1.85752 -1.17882 0
      vertex -1.77984 -1.29313 3
      vertex -1.77984 -1.29313 0
    endloop
  endfacet
  facet normal 0.975916 0.218146 0
    outer loop
      vertex -2.13088 -0.547117 3
      vertex -2.16103 -0.412238 0
      vertex -2.16103 -0.412238 3
    endloop
  endfacet
  facet normal 0.975916 0.218146 0
    outer loop
      vertex -2.16103 -0.412238 0
      vertex -2.13088 -0.547117 3
      vertex -2.13088 -0.547117 0
    endloop
  endfacet
  facet normal 0.940879 0.338743 0
    outer loop
      vertex -2.04551 -0.809874 3
      vertex -2.09232 -0.679837 0
      vertex -2.09232 -0.679837 3
    endloop
  endfacet
  facet normal 0.940879 0.338743 0
    outer loop
      vertex -2.09232 -0.679837 0
      vertex -2.04551 -0.809874 3
      vertex -2.04551 -0.809874 0
    endloop
  endfacet
  facet normal 0.960295 0.278986 0
    outer loop
      vertex -2.09232 -0.679837 3
      vertex -2.13088 -0.547117 0
      vertex -2.13088 -0.547117 3
    endloop
  endfacet
  facet normal 0.960295 0.278986 0
    outer loop
      vertex -2.13088 -0.547117 0
      vertex -2.09232 -0.679837 3
      vertex -2.09232 -0.679837 0
    endloop
  endfacet
  facet normal 0.917755 0.397147 0
    outer loop
      vertex -1.99062 -0.936714 3
      vertex -2.04551 -0.809874 0
      vertex -2.04551 -0.809874 3
    endloop
  endfacet
  facet normal 0.917755 0.397147 0
    outer loop
      vertex -2.04551 -0.809874 0
      vertex -1.99062 -0.936714 3
      vertex -1.99062 -0.936714 0
    endloop
  endfacet
  facet normal 0.987689 0.156431 0
    outer loop
      vertex -2.16103 -0.412238 3
      vertex -2.18265 -0.275733 0
      vertex -2.18265 -0.275733 3
    endloop
  endfacet
  facet normal 0.987689 0.156431 0
    outer loop
      vertex -2.18265 -0.275733 0
      vertex -2.16103 -0.412238 3
      vertex -2.16103 -0.412238 0
    endloop
  endfacet
  facet normal 0.995562 0.0941132 0
    outer loop
      vertex -2.18265 -0.275733 3
      vertex -2.19566 -0.138139 0
      vertex -2.19566 -0.138139 3
    endloop
  endfacet
  facet normal 0.995562 0.0941132 0
    outer loop
      vertex -2.19566 -0.138139 0
      vertex -2.18265 -0.275733 3
      vertex -2.18265 -0.275733 0
    endloop
  endfacet
  facet normal -0.940879 0.338743 0
    outer loop
      vertex 2.04551 -0.809874 0
      vertex 2.09232 -0.679837 3
      vertex 2.09232 -0.679837 0
    endloop
  endfacet
  facet normal -0.940879 0.338743 0
    outer loop
      vertex 2.09232 -0.679837 3
      vertex 2.04551 -0.809874 0
      vertex 2.04551 -0.809874 3
    endloop
  endfacet
  facet normal 0.612907 0.790155 -0
    outer loop
      vertex -1.29313 -1.77984 0
      vertex -1.40233 -1.69513 3
      vertex -1.29313 -1.77984 3
    endloop
  endfacet
  facet normal 0.612907 0.790155 0
    outer loop
      vertex -1.40233 -1.69513 3
      vertex -1.29313 -1.77984 0
      vertex -1.40233 -1.69513 0
    endloop
  endfacet
  facet normal 0.891008 0.453988 0
    outer loop
      vertex -1.92787 -1.05986 3
      vertex -1.99062 -0.936714 0
      vertex -1.99062 -0.936714 3
    endloop
  endfacet
  facet normal 0.891008 0.453988 0
    outer loop
      vertex -1.99062 -0.936714 0
      vertex -1.92787 -1.05986 3
      vertex -1.92787 -1.05986 0
    endloop
  endfacet
  facet normal 0.860742 0.509041 0
    outer loop
      vertex -1.85752 -1.17882 3
      vertex -1.92787 -1.05986 0
      vertex -1.92787 -1.05986 3
    endloop
  endfacet
  facet normal 0.860742 0.509041 0
    outer loop
      vertex -1.92787 -1.05986 0
      vertex -1.85752 -1.17882 3
      vertex -1.85752 -1.17882 0
    endloop
  endfacet
  facet normal 0.790155 0.612907 0
    outer loop
      vertex -1.69513 -1.40233 3
      vertex -1.77984 -1.29313 0
      vertex -1.77984 -1.29313 3
    endloop
  endfacet
  facet normal 0.790155 0.612907 0
    outer loop
      vertex -1.77984 -1.29313 0
      vertex -1.69513 -1.40233 3
      vertex -1.69513 -1.40233 0
    endloop
  endfacet
  facet normal 0.750111 0.661311 0
    outer loop
      vertex -1.60373 -1.506 3
      vertex -1.69513 -1.40233 0
      vertex -1.69513 -1.40233 3
    endloop
  endfacet
  facet normal 0.750111 0.661311 0
    outer loop
      vertex -1.69513 -1.40233 0
      vertex -1.60373 -1.506 3
      vertex -1.60373 -1.506 0
    endloop
  endfacet
  facet normal -0.612907 0.790155 0
    outer loop
      vertex 1.40233 -1.69513 0
      vertex 1.29313 -1.77984 3
      vertex 1.40233 -1.69513 3
    endloop
  endfacet
  facet normal -0.612907 0.790155 0
    outer loop
      vertex 1.29313 -1.77984 3
      vertex 1.40233 -1.69513 0
      vertex 1.29313 -1.77984 0
    endloop
  endfacet
  facet normal -0.562086 0.827079 0
    outer loop
      vertex 1.29313 -1.77984 0
      vertex 1.2 -1.84313 3
      vertex 1.29313 -1.77984 3
    endloop
  endfacet
  facet normal -0.562086 0.827079 0
    outer loop
      vertex 1.2 -1.84313 3
      vertex 1.29313 -1.77984 0
      vertex 1.2 -1.84313 0
    endloop
  endfacet
  facet normal 1 -0 0
    outer loop
      vertex -1.2 1.84313 3
      vertex -1.2 7.7 0
      vertex -1.2 7.7 3
    endloop
  endfacet
  facet normal 1 0 0
    outer loop
      vertex -1.2 7.7 0
      vertex -1.2 1.84313 3
      vertex -1.2 1.84313 0
    endloop
  endfacet
  facet normal 1 -0 0
    outer loop
      vertex -1.2 -7.7 3
      vertex -1.2 -1.84313 0
      vertex -1.2 -1.84313 3
    endloop
  endfacet
  facet normal 1 0 0
    outer loop
      vertex -1.2 -1.84313 0
      vertex -1.2 -7.7 3
      vertex -1.2 -7.7 0
    endloop
  endfacet
  facet normal -1 0 0
    outer loop
      vertex 1.2 -7.7 0
      vertex 1.2 -1.84313 3
      vertex 1.2 -1.84313 0
    endloop
  endfacet
  facet normal -1 -0 0
    outer loop
      vertex 1.2 -1.84313 3
      vertex 1.2 -7.7 0
      vertex 1.2 -7.7 3
    endloop
  endfacet
  facet normal -1 0 0
    outer loop
      vertex 1.2 1.84313 0
      vertex 1.2 7.7 3
      vertex 1.2 7.7 0
    endloop
  endfacet
  facet normal -1 -0 0
    outer loop
      vertex 1.2 7.7 3
      vertex 1.2 1.84313 0
      vertex 1.2 1.84313 3
    endloop
  endfacet
  facet normal 0 -1 0
    outer loop
      vertex -1.2 7.7 0
      vertex 1.2 7.7 3
      vertex -1.2 7.7 3
    endloop
  endfacet
  facet normal 0 -1 -0
    outer loop
      vertex 1.2 7.7 3
      vertex -1.2 7.7 0
      vertex 1.2 7.7 0
    endloop
  endfacet
  facet normal 0 1 -0
    outer loop
      vertex 1.2 -7.7 0
      vertex -1.2 -7.7 3
      vertex 1.2 -7.7 3
    endloop
  endfacet
  facet normal 0 1 0
    outer loop
      vertex -1.2 -7.7 3
      vertex 1.2 -7.7 0
      vertex -1.2 -7.7 0
    endloop
  endfacet
  facet normal -1 0 0
    outer loop
      vertex 10 -8 3
      vertex 10 -1 29
      vertex 10 -1 3
    endloop
  endfacet
  facet normal -1 -0 0
    outer loop
      vertex 10 -1 29
      vertex 10 -8 3
      vertex 10 -8 29
    endloop
  endfacet
  facet normal -1 0 0
    outer loop
      vertex 10 1 3
      vertex 10 8 29
      vertex 10 8 3
    endloop
  endfacet
  facet normal -1 -0 0
    outer loop
      vertex 10 8 29
      vertex 10 1 3
      vertex 10 1 29
    endloop
  endfacet
  facet normal -0 0 1
    outer loop
      vertex 10 -1 29
      vertex 13 -8 29
      vertex 13 -1 29
    endloop
  endfacet
  facet normal 0 0 1
    outer loop
      vertex 13 -8 29
      vertex 10 -1 29
      vertex 10 -8 29
    endloop
  endfacet
  facet normal -0 0 1
    outer loop
      vertex 10 8 29
      vertex 13 1 29
      vertex 13 8 29
    endloop
  endfacet
  facet normal 0 0 1
    outer loop
      vertex 13 1 29
      vertex 10 8 29
      vertex 10 1 29
    endloop
  endfacet
  facet normal 1 -0 0
    outer loop
      vertex 13 -8 29
      vertex 13 -1 3
      vertex 13 -1 29
    endloop
  endfacet
  facet normal 1 0 0
    outer loop
      vertex 13 -1 3
      vertex 13 -8 29
      vertex 13 -8 3
    endloop
  endfacet
  facet normal 1 -0 0
    outer loop
      vertex 13 1 29
      vertex 13 8 3
      vertex 13 8 29
    endloop
  endfacet
  facet normal 1 0 0
    outer loop
      vertex 13 8 3
      vertex 13 1 29
      vertex 13 1 3
    endloop
  endfacet
  facet normal 0 1 -0
    outer loop
      vertex 13 8 3
      vertex 10 8 29
      vertex 13 8 29
    endloop
  endfacet
  facet normal 0 1 0
    outer loop
      vertex 10 8 29
      vertex 13 8 3
      vertex 10 8 3
    endloop
  endfacet
  facet normal 0 -1 0
    outer loop
      vertex 10 -8 3
      vertex 13 -8 29
      vertex 10 -8 29
    endloop
  endfacet
  facet normal 0 -1 -0
    outer loop
      vertex 13 -8 29
      vertex 10 -8 3
      vertex 13 -8 3
    endloop
  endfacet
  facet normal 0 1 -0
    outer loop
      vertex 13 -1 3
      vertex 10 -1 29
      vertex 13 -1 29
    endloop
  endfacet
  facet normal 0 1 0
    outer loop
      vertex 10 -1 29
      vertex 13 -1 3
      vertex 10 -1 3
    endloop
  endfacet
  facet normal 0 -1 0
    outer loop
      vertex 10 1 3
      vertex 13 1 29
      vertex 10 1 29
    endloop
  endfacet
  facet normal 0 -1 -0
    outer loop
      vertex 13 1 29
      vertex 10 1 3
      vertex 13 1 3
    endloop
  endfacet
  facet normal -1 0 0
    outer loop
      vertex -10 -8 3
      vertex -10 8 29
      vertex -10 8 3
    endloop
  endfacet
  facet normal -1 -0 0
    outer loop
      vertex -10 8 29
      vertex -10 -8 3
      vertex -10 -8 29
    endloop
  endfacet
  facet normal -0 0 1
    outer loop
      vertex -10 8 29
      vertex -7 -8 29
      vertex -7 8 29
    endloop
  endfacet
  facet normal 0 0 1
    outer loop
      vertex -7 -8 29
      vertex -10 8 29
      vertex -10 -8 29
    endloop
  endfacet
  facet normal 1 -0 0
    outer loop
      vertex -7 -8 29
      vertex -7 8 3
      vertex -7 8 29
    endloop
  endfacet
  facet normal 1 0 0
    outer loop
      vertex -7 8 3
      vertex -7 -8 29
      vertex -7 -8 3
    endloop
  endfacet
  facet normal 0 1 -0
    outer loop
      vertex -7 8 3
      vertex -10 8 29
      vertex -7 8 29
    endloop
  endfacet
  facet normal 0 1 0
    outer loop
      vertex -10 8 29
      vertex -7 8 3
      vertex -10 8 3
    endloop
  endfacet
  facet normal 0 -1 0
    outer loop
      vertex -10 -8 3
      vertex -7 -8 29
      vertex -10 -8 29
    endloop
  endfacet
  facet normal 0 -1 -0
    outer loop
      vertex -7 -8 29
      vertex -10 -8 3
      vertex -7 -8 3
    endloop
  endfacet
endsolid OpenSCAD_Model
