solid OpenSCAD_Model
  facet normal -1 0 0
    outer loop
      vertex -17 -10 0
      vertex -17 10 3
      vertex -17 10 0
    endloop
  endfacet
  facet normal -1 -0 0
    outer loop
      vertex -17 10 3
      vertex -17 -10 0
      vertex -17 -10 3
    endloop
  endfacet
  facet normal -0 0 1
    outer loop
      vertex 12 2.74517 3
      vertex 15 0.737534 3
      vertex 15 2.74517 3
    endloop
  endfacet
  facet normal 0 0 1
    outer loop
      vertex 15 0.737534 3
      vertex 12 2.74517 3
      vertex 12 0.737534 3
    endloop
  endfacet
  facet normal 0 0 1
    outer loop
      vertex 15 2.74517 3
      vertex 17 10 3
      vertex 15 8 3
    endloop
  endfacet
  facet normal 0 0 1
    outer loop
      vertex 17 10 3
      vertex 12 8 3
      vertex 15 8 3
    endloop
  endfacet
  facet normal -0 0 1
    outer loop
      vertex 6.30941 3.46863 3
      vertex 12 2.74517 3
      vertex 12 8 3
    endloop
  endfacet
  facet normal 0 -0 1
    outer loop
      vertex 6.84761 2.22492 3
      vertex 12 2.74517 3
      vertex 6.69439 2.6505 3
    endloop
  endfacet
  facet normal 0 0 1
    outer loop
      vertex 7.18579 -0.452091 3
      vertex 12 0.737534 3
      vertex 7.2 0 3
    endloop
  endfacet
  facet normal 0 0 1
    outer loop
      vertex 12 0.737534 3
      vertex 7.18579 0.452091 3
      vertex 7.2 0 3
    endloop
  endfacet
  facet normal 0 0 1
    outer loop
      vertex 12 0.737534 3
      vertex 7.14323 0.902399 3
      vertex 7.18579 0.452091 3
    endloop
  endfacet
  facet normal 0 0 1
    outer loop
      vertex 12 0.737534 3
      vertex 7.07247 1.34914 3
      vertex 7.14323 0.902399 3
    endloop
  endfacet
  facet normal 0 0 1
    outer loop
      vertex 12 2.74517 3
      vertex 7.07247 1.34914 3
      vertex 12 0.737534 3
    endloop
  endfacet
  facet normal 0 -0 1
    outer loop
      vertex 7.07247 1.34914 3
      vertex 12 2.74517 3
      vertex 6.9738 1.79057 3
    endloop
  endfacet
  facet normal 0 -0 1
    outer loop
      vertex 6.9738 1.79057 3
      vertex 12 2.74517 3
      vertex 6.84761 2.22492 3
    endloop
  endfacet
  facet normal 0 0 1
    outer loop
      vertex 12 2.74517 3
      vertex 6.51475 3.06561 3
      vertex 6.69439 2.6505 3
    endloop
  endfacet
  facet normal 0 0 1
    outer loop
      vertex 12 2.74517 3
      vertex 6.30941 3.46863 3
      vertex 6.51475 3.06561 3
    endloop
  endfacet
  facet normal 0 0 1
    outer loop
      vertex 12 8 3
      vertex 6.07916 3.85795 3
      vertex 6.30941 3.46863 3
    endloop
  endfacet
  facet normal 0 0 1
    outer loop
      vertex 12 8 3
      vertex 5.82492 4.23205 3
      vertex 6.07916 3.85795 3
    endloop
  endfacet
  facet normal 0 0 1
    outer loop
      vertex 12 8 3
      vertex 5.5477 4.58945 3
      vertex 5.82492 4.23205 3
    endloop
  endfacet
  facet normal 0 0 1
    outer loop
      vertex 12 8 3
      vertex 5.24857 4.92874 3
      vertex 5.5477 4.58945 3
    endloop
  endfacet
  facet normal 0 0 1
    outer loop
      vertex 12 8 3
      vertex 4.92874 5.24857 3
      vertex 5.24857 4.92874 3
    endloop
  endfacet
  facet normal 0 0 1
    outer loop
      vertex 0.902399 7.14323 3
      vertex 12 8 3
      vertex 17 10 3
    endloop
  endfacet
  facet normal 0 0 1
    outer loop
      vertex 12 8 3
      vertex 4.58945 5.5477 3
      vertex 4.92874 5.24857 3
    endloop
  endfacet
  facet normal 0 0 1
    outer loop
      vertex 12 8 3
      vertex 4.23205 5.82492 3
      vertex 4.58945 5.5477 3
    endloop
  endfacet
  facet normal 0 0 1
    outer loop
      vertex 12 8 3
      vertex 3.85795 6.07916 3
      vertex 4.23205 5.82492 3
    endloop
  endfacet
  facet normal 0 0 1
    outer loop
      vertex 12 8 3
      vertex 3.46863 6.30941 3
      vertex 3.85795 6.07916 3
    endloop
  endfacet
  facet normal 0 0 1
    outer loop
      vertex 12 8 3
      vertex 3.06561 6.51475 3
      vertex 3.46863 6.30941 3
    endloop
  endfacet
  facet normal 0 0 1
    outer loop
      vertex 12 8 3
      vertex 2.6505 6.69439 3
      vertex 3.06561 6.51475 3
    endloop
  endfacet
  facet normal 0 0 1
    outer loop
      vertex 12 8 3
      vertex 2.22492 6.84761 3
      vertex 2.6505 6.69439 3
    endloop
  endfacet
  facet normal 0 0 1
    outer loop
      vertex 12 8 3
      vertex 1.79057 6.9738 3
      vertex 2.22492 6.84761 3
    endloop
  endfacet
  facet normal 0 0 1
    outer loop
      vertex 12 8 3
      vertex 1.34914 7.07247 3
      vertex 1.79057 6.9738 3
    endloop
  endfacet
  facet normal 0 0 1
    outer loop
      vertex 12 8 3
      vertex 0.902399 7.14323 3
      vertex 1.34914 7.07247 3
    endloop
  endfacet
  facet normal 0 0 1
    outer loop
      vertex 17 10 3
      vertex 0.452091 7.18579 3
      vertex 0.902399 7.14323 3
    endloop
  endfacet
  facet normal 0 0 1
    outer loop
      vertex 17 10 3
      vertex 0 7.2 3
      vertex 0.452091 7.18579 3
    endloop
  endfacet
  facet normal -0 0 1
    outer loop
      vertex -17 10 3
      vertex 0 7.2 3
      vertex 17 10 3
    endloop
  endfacet
  facet normal 0 0 1
    outer loop
      vertex 0 7.2 3
      vertex -17 10 3
      vertex -0.452091 7.18579 3
    endloop
  endfacet
  facet normal 0 0 1
    outer loop
      vertex -0.452091 7.18579 3
      vertex -17 10 3
      vertex -0.902399 7.14323 3
    endloop
  endfacet
  facet normal 0 0 1
    outer loop
      vertex -7.18579 0.452091 3
      vertex -12 8 3
      vertex -7.2 0 3
    endloop
  endfacet
  facet normal 0 0 1
    outer loop
      vertex -7.14323 0.902399 3
      vertex -12 8 3
      vertex -7.18579 0.452091 3
    endloop
  endfacet
  facet normal 0 0 1
    outer loop
      vertex -7.07247 1.34914 3
      vertex -12 8 3
      vertex -7.14323 0.902399 3
    endloop
  endfacet
  facet normal 0 0 1
    outer loop
      vertex -6.9738 1.79057 3
      vertex -12 8 3
      vertex -7.07247 1.34914 3
    endloop
  endfacet
  facet normal 0 0 1
    outer loop
      vertex -6.84761 2.22492 3
      vertex -12 8 3
      vertex -6.9738 1.79057 3
    endloop
  endfacet
  facet normal 0 0 1
    outer loop
      vertex -6.69439 2.6505 3
      vertex -12 8 3
      vertex -6.84761 2.22492 3
    endloop
  endfacet
  facet normal 0 0 1
    outer loop
      vertex -6.51475 3.06561 3
      vertex -12 8 3
      vertex -6.69439 2.6505 3
    endloop
  endfacet
  facet normal 0 0 1
    outer loop
      vertex -6.30941 3.46863 3
      vertex -12 8 3
      vertex -6.51475 3.06561 3
    endloop
  endfacet
  facet normal 0 0 1
    outer loop
      vertex -6.07916 3.85795 3
      vertex -12 8 3
      vertex -6.30941 3.46863 3
    endloop
  endfacet
  facet normal 0 0 1
    outer loop
      vertex -5.82492 4.23205 3
      vertex -12 8 3
      vertex -6.07916 3.85795 3
    endloop
  endfacet
  facet normal 0 0 1
    outer loop
      vertex -5.5477 4.58945 3
      vertex -12 8 3
      vertex -5.82492 4.23205 3
    endloop
  endfacet
  facet normal 0 0 1
    outer loop
      vertex -5.24857 4.92874 3
      vertex -12 8 3
      vertex -5.5477 4.58945 3
    endloop
  endfacet
  facet normal 0 0 1
    outer loop
      vertex -4.92874 5.24857 3
      vertex -12 8 3
      vertex -5.24857 4.92874 3
    endloop
  endfacet
  facet normal 0 0 1
    outer loop
      vertex -4.58945 5.5477 3
      vertex -12 8 3
      vertex -4.92874 5.24857 3
    endloop
  endfacet
  facet normal 0 0 1
    outer loop
      vertex -4.23205 5.82492 3
      vertex -12 8 3
      vertex -4.58945 5.5477 3
    endloop
  endfacet
  facet normal 0 0 1
    outer loop
      vertex -3.85795 6.07916 3
      vertex -12 8 3
      vertex -4.23205 5.82492 3
    endloop
  endfacet
  facet normal 0 0 1
    outer loop
      vertex -3.46863 6.30941 3
      vertex -12 8 3
      vertex -3.85795 6.07916 3
    endloop
  endfacet
  facet normal 0 0 1
    outer loop
      vertex -3.06561 6.51475 3
      vertex -12 8 3
      vertex -3.46863 6.30941 3
    endloop
  endfacet
  facet normal 0 0 1
    outer loop
      vertex -2.6505 6.69439 3
      vertex -12 8 3
      vertex -3.06561 6.51475 3
    endloop
  endfacet
  facet normal 0 0 1
    outer loop
      vertex -2.22492 6.84761 3
      vertex -12 8 3
      vertex -2.6505 6.69439 3
    endloop
  endfacet
  facet normal 0 0 1
    outer loop
      vertex -1.79057 6.9738 3
      vertex -12 8 3
      vertex -2.22492 6.84761 3
    endloop
  endfacet
  facet normal 0 0 1
    outer loop
      vertex -1.34914 7.07247 3
      vertex -12 8 3
      vertex -1.79057 6.9738 3
    endloop
  endfacet
  facet normal -0 -0 1
    outer loop
      vertex -12 8 3
      vertex -0.902399 7.14323 3
      vertex -17 10 3
    endloop
  endfacet
  facet normal 0 0 1
    outer loop
      vertex -0.902399 7.14323 3
      vertex -12 8 3
      vertex -1.34914 7.07247 3
    endloop
  endfacet
  facet normal 0 0 1
    outer loop
      vertex -15 8 3
      vertex -17 10 3
      vertex -15 -8 3
    endloop
  endfacet
  facet normal 0 0 1
    outer loop
      vertex -12 8 3
      vertex -17 10 3
      vertex -15 8 3
    endloop
  endfacet
  facet normal 0 0 1
    outer loop
      vertex 15 0.737534 3
      vertex 17 10 3
      vertex 15 2.74517 3
    endloop
  endfacet
  facet normal 0 0 1
    outer loop
      vertex 17 10 3
      vertex 15 0.737534 3
      vertex 17 -10 3
    endloop
  endfacet
  facet normal -0 0 1
    outer loop
      vertex 15 -8 3
      vertex 17 -10 3
      vertex 15 0.737534 3
    endloop
  endfacet
  facet normal -0 0 1
    outer loop
      vertex 12 -8 3
      vertex 17 -10 3
      vertex 15 -8 3
    endloop
  endfacet
  facet normal 0 0 1
    outer loop
      vertex 7.14323 -0.902399 3
      vertex 12 0.737534 3
      vertex 7.18579 -0.452091 3
    endloop
  endfacet
  facet normal 0 0 1
    outer loop
      vertex 7.07247 -1.34914 3
      vertex 12 0.737534 3
      vertex 7.14323 -0.902399 3
    endloop
  endfacet
  facet normal 0 0 1
    outer loop
      vertex 6.9738 -1.79057 3
      vertex 12 0.737534 3
      vertex 7.07247 -1.34914 3
    endloop
  endfacet
  facet normal 0 0 1
    outer loop
      vertex 6.84761 -2.22492 3
      vertex 12 0.737534 3
      vertex 6.9738 -1.79057 3
    endloop
  endfacet
  facet normal 0 0 1
    outer loop
      vertex 12 0.737534 3
      vertex 6.84761 -2.22492 3
      vertex 12 -8 3
    endloop
  endfacet
  facet normal -0 0 1
    outer loop
      vertex 6.69439 -2.6505 3
      vertex 12 -8 3
      vertex 6.84761 -2.22492 3
    endloop
  endfacet
  facet normal -0 0 1
    outer loop
      vertex 6.51475 -3.06561 3
      vertex 12 -8 3
      vertex 6.69439 -2.6505 3
    endloop
  endfacet
  facet normal -0 0 1
    outer loop
      vertex 6.30941 -3.46863 3
      vertex 12 -8 3
      vertex 6.51475 -3.06561 3
    endloop
  endfacet
  facet normal -0 0 1
    outer loop
      vertex 6.07916 -3.85795 3
      vertex 12 -8 3
      vertex 6.30941 -3.46863 3
    endloop
  endfacet
  facet normal -0 0 1
    outer loop
      vertex 5.82492 -4.23205 3
      vertex 12 -8 3
      vertex 6.07916 -3.85795 3
    endloop
  endfacet
  facet normal -0 0 1
    outer loop
      vertex 5.5477 -4.58945 3
      vertex 12 -8 3
      vertex 5.82492 -4.23205 3
    endloop
  endfacet
  facet normal -0 0 1
    outer loop
      vertex 5.24857 -4.92874 3
      vertex 12 -8 3
      vertex 5.5477 -4.58945 3
    endloop
  endfacet
  facet normal -0 0 1
    outer loop
      vertex 4.92874 -5.24857 3
      vertex 12 -8 3
      vertex 5.24857 -4.92874 3
    endloop
  endfacet
  facet normal -0 0 1
    outer loop
      vertex 4.58945 -5.5477 3
      vertex 12 -8 3
      vertex 4.92874 -5.24857 3
    endloop
  endfacet
  facet normal -0 0 1
    outer loop
      vertex 4.23205 -5.82492 3
      vertex 12 -8 3
      vertex 4.58945 -5.5477 3
    endloop
  endfacet
  facet normal -0 0 1
    outer loop
      vertex 3.85795 -6.07916 3
      vertex 12 -8 3
      vertex 4.23205 -5.82492 3
    endloop
  endfacet
  facet normal -0 0 1
    outer loop
      vertex 3.46863 -6.30941 3
      vertex 12 -8 3
      vertex 3.85795 -6.07916 3
    endloop
  endfacet
  facet normal -0 0 1
    outer loop
      vertex 3.06561 -6.51475 3
      vertex 12 -8 3
      vertex 3.46863 -6.30941 3
    endloop
  endfacet
  facet normal -0 0 1
    outer loop
      vertex 2.6505 -6.69439 3
      vertex 12 -8 3
      vertex 3.06561 -6.51475 3
    endloop
  endfacet
  facet normal -0 0 1
    outer loop
      vertex 2.22492 -6.84761 3
      vertex 12 -8 3
      vertex 2.6505 -6.69439 3
    endloop
  endfacet
  facet normal -0 0 1
    outer loop
      vertex 1.79057 -6.9738 3
      vertex 12 -8 3
      vertex 2.22492 -6.84761 3
    endloop
  endfacet
  facet normal -0 0 1
    outer loop
      vertex 1.34914 -7.07247 3
      vertex 12 -8 3
      vertex 1.79057 -6.9738 3
    endloop
  endfacet
  facet normal -0 0 1
    outer loop
      vertex 0.902399 -7.14323 3
      vertex 12 -8 3
      vertex 1.34914 -7.07247 3
    endloop
  endfacet
  facet normal 0 0 1
    outer loop
      vertex 12 -8 3
      vertex 0.902399 -7.14323 3
      vertex 17 -10 3
    endloop
  endfacet
  facet normal -0 0 1
    outer loop
      vertex 0.452091 -7.18579 3
      vertex 17 -10 3
      vertex 0.902399 -7.14323 3
    endloop
  endfacet
  facet normal -0 0 1
    outer loop
      vertex 0 -7.2 3
      vertex 17 -10 3
      vertex 0.452091 -7.18579 3
    endloop
  endfacet
  facet normal 0 0 1
    outer loop
      vertex -17 -10 3
      vertex 0 -7.2 3
      vertex -0.452091 -7.18579 3
    endloop
  endfacet
  facet normal 0 0 1
    outer loop
      vertex -17 -10 3
      vertex -0.452091 -7.18579 3
      vertex -0.902399 -7.14323 3
    endloop
  endfacet
  facet normal 0 0 1
    outer loop
      vertex -12 -8 3
      vertex -0.902399 -7.14323 3
      vertex -1.34914 -7.07247 3
    endloop
  endfacet
  facet normal 0 0 1
    outer loop
      vertex -12 -8 3
      vertex -7.2 0 3
      vertex -12 8 3
    endloop
  endfacet
  facet normal 0 0 1
    outer loop
      vertex -7.2 0 3
      vertex -12 -8 3
      vertex -7.18579 -0.452091 3
    endloop
  endfacet
  facet normal 0 0 1
    outer loop
      vertex -7.18579 -0.452091 3
      vertex -12 -8 3
      vertex -7.14323 -0.902399 3
    endloop
  endfacet
  facet normal 0 0 1
    outer loop
      vertex -7.14323 -0.902399 3
      vertex -12 -8 3
      vertex -7.07247 -1.34914 3
    endloop
  endfacet
  facet normal 0 0 1
    outer loop
      vertex -7.07247 -1.34914 3
      vertex -12 -8 3
      vertex -6.9738 -1.79057 3
    endloop
  endfacet
  facet normal 0 0 1
    outer loop
      vertex -6.9738 -1.79057 3
      vertex -12 -8 3
      vertex -6.84761 -2.22492 3
    endloop
  endfacet
  facet normal 0 0 1
    outer loop
      vertex -6.84761 -2.22492 3
      vertex -12 -8 3
      vertex -6.69439 -2.6505 3
    endloop
  endfacet
  facet normal 0 0 1
    outer loop
      vertex -6.69439 -2.6505 3
      vertex -12 -8 3
      vertex -6.51475 -3.06561 3
    endloop
  endfacet
  facet normal 0 0 1
    outer loop
      vertex -12 -8 3
      vertex -6.30941 -3.46863 3
      vertex -6.51475 -3.06561 3
    endloop
  endfacet
  facet normal 0 0 1
    outer loop
      vertex -12 -8 3
      vertex -6.07916 -3.85795 3
      vertex -6.30941 -3.46863 3
    endloop
  endfacet
  facet normal 0 0 1
    outer loop
      vertex -12 -8 3
      vertex -5.82492 -4.23205 3
      vertex -6.07916 -3.85795 3
    endloop
  endfacet
  facet normal 0 0 1
    outer loop
      vertex -12 -8 3
      vertex -5.5477 -4.58945 3
      vertex -5.82492 -4.23205 3
    endloop
  endfacet
  facet normal 0 0 1
    outer loop
      vertex -12 -8 3
      vertex -5.24857 -4.92874 3
      vertex -5.5477 -4.58945 3
    endloop
  endfacet
  facet normal 0 0 1
    outer loop
      vertex -12 -8 3
      vertex -4.92874 -5.24857 3
      vertex -5.24857 -4.92874 3
    endloop
  endfacet
  facet normal 0 0 1
    outer loop
      vertex -12 -8 3
      vertex -4.58945 -5.5477 3
      vertex -4.92874 -5.24857 3
    endloop
  endfacet
  facet normal 0 0 1
    outer loop
      vertex -12 -8 3
      vertex -4.23205 -5.82492 3
      vertex -4.58945 -5.5477 3
    endloop
  endfacet
  facet normal 0 0 1
    outer loop
      vertex -12 -8 3
      vertex -3.85795 -6.07916 3
      vertex -4.23205 -5.82492 3
    endloop
  endfacet
  facet normal 0 0 1
    outer loop
      vertex -12 -8 3
      vertex -3.46863 -6.30941 3
      vertex -3.85795 -6.07916 3
    endloop
  endfacet
  facet normal 0 0 1
    outer loop
      vertex -12 -8 3
      vertex -3.06561 -6.51475 3
      vertex -3.46863 -6.30941 3
    endloop
  endfacet
  facet normal 0 0 1
    outer loop
      vertex -12 -8 3
      vertex -2.6505 -6.69439 3
      vertex -3.06561 -6.51475 3
    endloop
  endfacet
  facet normal 0 0 1
    outer loop
      vertex -12 -8 3
      vertex -2.22492 -6.84761 3
      vertex -2.6505 -6.69439 3
    endloop
  endfacet
  facet normal 0 0 1
    outer loop
      vertex -12 -8 3
      vertex -1.79057 -6.9738 3
      vertex -2.22492 -6.84761 3
    endloop
  endfacet
  facet normal 0 0 1
    outer loop
      vertex -12 -8 3
      vertex -1.34914 -7.07247 3
      vertex -1.79057 -6.9738 3
    endloop
  endfacet
  facet normal 0 0 1
    outer loop
      vertex -0.902399 -7.14323 3
      vertex -12 -8 3
      vertex -17 -10 3
    endloop
  endfacet
  facet normal 0 0 1
    outer loop
      vertex -17 -10 3
      vertex -12 -8 3
      vertex -15 -8 3
    endloop
  endfacet
  facet normal 0 0 1
    outer loop
      vertex 0 -7.2 3
      vertex -17 -10 3
      vertex 17 -10 3
    endloop
  endfacet
  facet normal 0 0 1
    outer loop
      vertex -17 -10 3
      vertex -15 -8 3
      vertex -17 10 3
    endloop
  endfacet
  facet normal 1 -0 0
    outer loop
      vertex 17 -10 3
      vertex 17 10 0
      vertex 17 10 3
    endloop
  endfacet
  facet normal 1 0 0
    outer loop
      vertex 17 10 0
      vertex 17 -10 3
      vertex 17 -10 0
    endloop
  endfacet
  facet normal 0 1 -0
    outer loop
      vertex 17 10 0
      vertex -17 10 3
      vertex 17 10 3
    endloop
  endfacet
  facet normal 0 1 0
    outer loop
      vertex -17 10 3
      vertex 17 10 0
      vertex -17 10 0
    endloop
  endfacet
  facet normal 0 0 -1
    outer loop
      vertex -17 -10 0
      vertex 17 10 0
      vertex 17 -10 0
    endloop
  endfacet
  facet normal -0 0 -1
    outer loop
      vertex 17 10 0
      vertex -17 -10 0
      vertex -17 10 0
    endloop
  endfacet
  facet normal 0 -1 0
    outer loop
      vertex -17 -10 0
      vertex 17 -10 3
      vertex -17 -10 3
    endloop
  endfacet
  facet normal 0 -1 -0
    outer loop
      vertex 17 -10 3
      vertex -17 -10 0
      vertex 17 -10 0
    endloop
  endfacet
  facet normal -0.999507 -0.0314114 0
    outer loop
      vertex 7.2 0 1
      vertex 7.18579 0.452091 3
      vertex 7.18579 0.452091 1
    endloop
  endfacet
  facet normal -0.999507 -0.0314114 0
    outer loop
      vertex 7.18579 0.452091 3
      vertex 7.2 0 1
      vertex 7.2 0 3
    endloop
  endfacet
  facet normal 0.999507 -0.0314114 0
    outer loop
      vertex -7.2 0 3
      vertex -7.18579 0.452091 1
      vertex -7.18579 0.452091 3
    endloop
  endfacet
  facet normal 0.999507 -0.0314114 0
    outer loop
      vertex -7.18579 0.452091 1
      vertex -7.2 0 3
      vertex -7.2 0 1
    endloop
  endfacet
  facet normal -0.0314114 -0.999507 0
    outer loop
      vertex 0 7.2 1
      vertex 0.452091 7.18579 3
      vertex 0 7.2 3
    endloop
  endfacet
  facet normal -0.0314114 -0.999507 -0
    outer loop
      vertex 0.452091 7.18579 3
      vertex 0 7.2 1
      vertex 0.452091 7.18579 1
    endloop
  endfacet
  facet normal 0.0314114 0.999507 -0
    outer loop
      vertex 0 -7.2 1
      vertex -0.452091 -7.18579 3
      vertex 0 -7.2 3
    endloop
  endfacet
  facet normal 0.0314114 0.999507 0
    outer loop
      vertex -0.452091 -7.18579 3
      vertex 0 -7.2 1
      vertex -0.452091 -7.18579 1
    endloop
  endfacet
  facet normal 0.750111 0.661312 0
    outer loop
      vertex -5.24857 -4.92874 3
      vertex -5.5477 -4.58945 1
      vertex -5.5477 -4.58945 3
    endloop
  endfacet
  facet normal 0.750111 0.661312 0
    outer loop
      vertex -5.5477 -4.58945 1
      vertex -5.24857 -4.92874 3
      vertex -5.24857 -4.92874 1
    endloop
  endfacet
  facet normal -0.707107 -0.707107 0
    outer loop
      vertex 5.24857 4.92874 1
      vertex 4.92874 5.24857 3
      vertex 4.92874 5.24857 1
    endloop
  endfacet
  facet normal -0.707107 -0.707107 0
    outer loop
      vertex 4.92874 5.24857 3
      vertex 5.24857 4.92874 1
      vertex 5.24857 4.92874 3
    endloop
  endfacet
  facet normal 0.661312 -0.750111 0
    outer loop
      vertex -4.92874 5.24857 1
      vertex -4.58945 5.5477 3
      vertex -4.92874 5.24857 3
    endloop
  endfacet
  facet normal 0.661312 -0.750111 0
    outer loop
      vertex -4.58945 5.5477 3
      vertex -4.92874 5.24857 1
      vertex -4.58945 5.5477 1
    endloop
  endfacet
  facet normal 0.338738 -0.940881 0
    outer loop
      vertex -2.6505 6.69439 1
      vertex -2.22492 6.84761 3
      vertex -2.6505 6.69439 3
    endloop
  endfacet
  facet normal 0.338738 -0.940881 0
    outer loop
      vertex -2.22492 6.84761 3
      vertex -2.6505 6.69439 1
      vertex -2.22492 6.84761 1
    endloop
  endfacet
  facet normal 0.940881 0.338738 0
    outer loop
      vertex -6.69439 -2.6505 3
      vertex -6.84761 -2.22492 1
      vertex -6.84761 -2.22492 3
    endloop
  endfacet
  facet normal 0.940881 0.338738 0
    outer loop
      vertex -6.84761 -2.22492 1
      vertex -6.69439 -2.6505 3
      vertex -6.69439 -2.6505 1
    endloop
  endfacet
  facet normal -0.917755 -0.397148 0
    outer loop
      vertex 6.69439 2.6505 1
      vertex 6.51475 3.06561 3
      vertex 6.51475 3.06561 1
    endloop
  endfacet
  facet normal -0.917755 -0.397148 0
    outer loop
      vertex 6.51475 3.06561 3
      vertex 6.69439 2.6505 1
      vertex 6.69439 2.6505 3
    endloop
  endfacet
  facet normal -0.397148 -0.917755 0
    outer loop
      vertex 2.6505 6.69439 1
      vertex 3.06561 6.51475 3
      vertex 2.6505 6.69439 3
    endloop
  endfacet
  facet normal -0.397148 -0.917755 -0
    outer loop
      vertex 3.06561 6.51475 3
      vertex 2.6505 6.69439 1
      vertex 3.06561 6.51475 1
    endloop
  endfacet
  facet normal -0.562083 -0.827081 0
    outer loop
      vertex 3.85795 6.07916 1
      vertex 4.23205 5.82492 3
      vertex 3.85795 6.07916 3
    endloop
  endfacet
  facet normal -0.562083 -0.827081 -0
    outer loop
      vertex 4.23205 5.82492 3
      vertex 3.85795 6.07916 1
      vertex 4.23205 5.82492 1
    endloop
  endfacet
  facet normal 0.891006 -0.453992 0
    outer loop
      vertex -6.51475 3.06561 3
      vertex -6.30941 3.46863 1
      vertex -6.30941 3.46863 3
    endloop
  endfacet
  facet normal 0.891006 -0.453992 0
    outer loop
      vertex -6.30941 3.46863 1
      vertex -6.51475 3.06561 3
      vertex -6.51475 3.06561 1
    endloop
  endfacet
  facet normal 0.156435 -0.987688 0
    outer loop
      vertex -1.34914 7.07247 1
      vertex -0.902399 7.14323 3
      vertex -1.34914 7.07247 3
    endloop
  endfacet
  facet normal 0.156435 -0.987688 0
    outer loop
      vertex -0.902399 7.14323 3
      vertex -1.34914 7.07247 1
      vertex -0.902399 7.14323 1
    endloop
  endfacet
  facet normal -0.940881 0.338738 0
    outer loop
      vertex 6.69439 -2.6505 1
      vertex 6.84761 -2.22492 3
      vertex 6.84761 -2.22492 1
    endloop
  endfacet
  facet normal -0.940881 0.338738 0
    outer loop
      vertex 6.84761 -2.22492 3
      vertex 6.69439 -2.6505 1
      vertex 6.69439 -2.6505 3
    endloop
  endfacet
  facet normal -0.975917 -0.218143 0
    outer loop
      vertex 7.07247 1.34914 1
      vertex 6.9738 1.79057 3
      vertex 6.9738 1.79057 1
    endloop
  endfacet
  facet normal -0.975917 -0.218143 0
    outer loop
      vertex 6.9738 1.79057 3
      vertex 7.07247 1.34914 1
      vertex 7.07247 1.34914 3
    endloop
  endfacet
  facet normal -0.995562 -0.0941076 0
    outer loop
      vertex 7.18579 0.452091 1
      vertex 7.14323 0.902399 3
      vertex 7.14323 0.902399 1
    endloop
  endfacet
  facet normal -0.995562 -0.0941076 0
    outer loop
      vertex 7.14323 0.902399 3
      vertex 7.18579 0.452091 1
      vertex 7.18579 0.452091 3
    endloop
  endfacet
  facet normal -0.960294 -0.278991 0
    outer loop
      vertex 6.9738 1.79057 1
      vertex 6.84761 2.22492 3
      vertex 6.84761 2.22492 1
    endloop
  endfacet
  facet normal -0.960294 -0.278991 0
    outer loop
      vertex 6.84761 2.22492 3
      vertex 6.9738 1.79057 1
      vertex 6.9738 1.79057 3
    endloop
  endfacet
  facet normal -0.827081 -0.562083 0
    outer loop
      vertex 6.07916 3.85795 1
      vertex 5.82492 4.23205 3
      vertex 5.82492 4.23205 1
    endloop
  endfacet
  facet normal -0.827081 -0.562083 0
    outer loop
      vertex 5.82492 4.23205 3
      vertex 6.07916 3.85795 1
      vertex 6.07916 3.85795 3
    endloop
  endfacet
  facet normal -0.790155 -0.612907 0
    outer loop
      vertex 5.82492 4.23205 1
      vertex 5.5477 4.58945 3
      vertex 5.5477 4.58945 1
    endloop
  endfacet
  facet normal -0.790155 -0.612907 0
    outer loop
      vertex 5.5477 4.58945 3
      vertex 5.82492 4.23205 1
      vertex 5.82492 4.23205 3
    endloop
  endfacet
  facet normal -0.860742 -0.509041 0
    outer loop
      vertex 6.30941 3.46863 1
      vertex 6.07916 3.85795 3
      vertex 6.07916 3.85795 1
    endloop
  endfacet
  facet normal -0.860742 -0.509041 0
    outer loop
      vertex 6.07916 3.85795 3
      vertex 6.30941 3.46863 1
      vertex 6.30941 3.46863 3
    endloop
  endfacet
  facet normal -0.218143 -0.975917 0
    outer loop
      vertex 1.34914 7.07247 1
      vertex 1.79057 6.9738 3
      vertex 1.34914 7.07247 3
    endloop
  endfacet
  facet normal -0.218143 -0.975917 -0
    outer loop
      vertex 1.79057 6.9738 3
      vertex 1.34914 7.07247 1
      vertex 1.79057 6.9738 1
    endloop
  endfacet
  facet normal -0.156435 -0.987688 0
    outer loop
      vertex 0.902399 7.14323 1
      vertex 1.34914 7.07247 3
      vertex 0.902399 7.14323 3
    endloop
  endfacet
  facet normal -0.156435 -0.987688 -0
    outer loop
      vertex 1.34914 7.07247 3
      vertex 0.902399 7.14323 1
      vertex 1.34914 7.07247 1
    endloop
  endfacet
  facet normal -0.612907 -0.790155 0
    outer loop
      vertex 4.23205 5.82492 1
      vertex 4.58945 5.5477 3
      vertex 4.23205 5.82492 3
    endloop
  endfacet
  facet normal -0.612907 -0.790155 -0
    outer loop
      vertex 4.58945 5.5477 3
      vertex 4.23205 5.82492 1
      vertex 4.58945 5.5477 1
    endloop
  endfacet
  facet normal 0.960294 -0.278991 0
    outer loop
      vertex -6.9738 1.79057 3
      vertex -6.84761 2.22492 1
      vertex -6.84761 2.22492 3
    endloop
  endfacet
  facet normal 0.960294 -0.278991 0
    outer loop
      vertex -6.84761 2.22492 1
      vertex -6.9738 1.79057 3
      vertex -6.9738 1.79057 1
    endloop
  endfacet
  facet normal 0.790155 -0.612907 0
    outer loop
      vertex -5.82492 4.23205 3
      vertex -5.5477 4.58945 1
      vertex -5.5477 4.58945 3
    endloop
  endfacet
  facet normal 0.790155 -0.612907 0
    outer loop
      vertex -5.5477 4.58945 1
      vertex -5.82492 4.23205 3
      vertex -5.82492 4.23205 1
    endloop
  endfacet
  facet normal 0.827081 -0.562083 0
    outer loop
      vertex -6.07916 3.85795 3
      vertex -5.82492 4.23205 1
      vertex -5.82492 4.23205 3
    endloop
  endfacet
  facet normal 0.827081 -0.562083 0
    outer loop
      vertex -5.82492 4.23205 1
      vertex -6.07916 3.85795 3
      vertex -6.07916 3.85795 1
    endloop
  endfacet
  facet normal 0.509041 -0.860742 0
    outer loop
      vertex -3.85795 6.07916 1
      vertex -3.46863 6.30941 3
      vertex -3.85795 6.07916 3
    endloop
  endfacet
  facet normal 0.509041 -0.860742 0
    outer loop
      vertex -3.46863 6.30941 3
      vertex -3.85795 6.07916 1
      vertex -3.46863 6.30941 1
    endloop
  endfacet
  facet normal 0.397148 -0.917755 0
    outer loop
      vertex -3.06561 6.51475 1
      vertex -2.6505 6.69439 3
      vertex -3.06561 6.51475 3
    endloop
  endfacet
  facet normal 0.397148 -0.917755 0
    outer loop
      vertex -2.6505 6.69439 3
      vertex -3.06561 6.51475 1
      vertex -2.6505 6.69439 1
    endloop
  endfacet
  facet normal 0.562083 -0.827081 0
    outer loop
      vertex -4.23205 5.82492 1
      vertex -3.85795 6.07916 3
      vertex -4.23205 5.82492 3
    endloop
  endfacet
  facet normal 0.562083 -0.827081 0
    outer loop
      vertex -3.85795 6.07916 3
      vertex -4.23205 5.82492 1
      vertex -3.85795 6.07916 1
    endloop
  endfacet
  facet normal 0.218143 -0.975917 0
    outer loop
      vertex -1.79057 6.9738 1
      vertex -1.34914 7.07247 3
      vertex -1.79057 6.9738 3
    endloop
  endfacet
  facet normal 0.218143 -0.975917 0
    outer loop
      vertex -1.34914 7.07247 3
      vertex -1.79057 6.9738 1
      vertex -1.34914 7.07247 1
    endloop
  endfacet
  facet normal 0.0941076 -0.995562 0
    outer loop
      vertex -0.902399 7.14323 1
      vertex -0.452091 7.18579 3
      vertex -0.902399 7.14323 3
    endloop
  endfacet
  facet normal 0.0941076 -0.995562 0
    outer loop
      vertex -0.452091 7.18579 3
      vertex -0.902399 7.14323 1
      vertex -0.452091 7.18579 1
    endloop
  endfacet
  facet normal -0.218143 0.975917 0
    outer loop
      vertex 1.79057 -6.9738 1
      vertex 1.34914 -7.07247 3
      vertex 1.79057 -6.9738 3
    endloop
  endfacet
  facet normal -0.218143 0.975917 0
    outer loop
      vertex 1.34914 -7.07247 3
      vertex 1.79057 -6.9738 1
      vertex 1.34914 -7.07247 1
    endloop
  endfacet
  facet normal -0.278991 0.960294 0
    outer loop
      vertex 2.22492 -6.84761 1
      vertex 1.79057 -6.9738 3
      vertex 2.22492 -6.84761 3
    endloop
  endfacet
  facet normal -0.278991 0.960294 0
    outer loop
      vertex 1.79057 -6.9738 3
      vertex 2.22492 -6.84761 1
      vertex 1.79057 -6.9738 1
    endloop
  endfacet
  facet normal -0.612907 0.790155 0
    outer loop
      vertex 4.58945 -5.5477 1
      vertex 4.23205 -5.82492 3
      vertex 4.58945 -5.5477 3
    endloop
  endfacet
  facet normal -0.612907 0.790155 0
    outer loop
      vertex 4.23205 -5.82492 3
      vertex 4.58945 -5.5477 1
      vertex 4.23205 -5.82492 1
    endloop
  endfacet
  facet normal -0.960294 0.278991 0
    outer loop
      vertex 6.84761 -2.22492 1
      vertex 6.9738 -1.79057 3
      vertex 6.9738 -1.79057 1
    endloop
  endfacet
  facet normal -0.960294 0.278991 0
    outer loop
      vertex 6.9738 -1.79057 3
      vertex 6.84761 -2.22492 1
      vertex 6.84761 -2.22492 3
    endloop
  endfacet
  facet normal -0.987688 0.156435 0
    outer loop
      vertex 7.07247 -1.34914 1
      vertex 7.14323 -0.902399 3
      vertex 7.14323 -0.902399 1
    endloop
  endfacet
  facet normal -0.987688 0.156435 0
    outer loop
      vertex 7.14323 -0.902399 3
      vertex 7.07247 -1.34914 1
      vertex 7.07247 -1.34914 3
    endloop
  endfacet
  facet normal -0.995562 0.0941076 0
    outer loop
      vertex 7.14323 -0.902399 1
      vertex 7.18579 -0.452091 3
      vertex 7.18579 -0.452091 1
    endloop
  endfacet
  facet normal -0.995562 0.0941076 0
    outer loop
      vertex 7.18579 -0.452091 3
      vertex 7.14323 -0.902399 1
      vertex 7.14323 -0.902399 3
    endloop
  endfacet
  facet normal 0.562083 0.827081 -0
    outer loop
      vertex -3.85795 -6.07916 1
      vertex -4.23205 -5.82492 3
      vertex -3.85795 -6.07916 3
    endloop
  endfacet
  facet normal 0.562083 0.827081 0
    outer loop
      vertex -4.23205 -5.82492 3
      vertex -3.85795 -6.07916 1
      vertex -4.23205 -5.82492 1
    endloop
  endfacet
  facet normal 0.860742 0.509041 0
    outer loop
      vertex -6.07916 -3.85795 3
      vertex -6.30941 -3.46863 1
      vertex -6.30941 -3.46863 3
    endloop
  endfacet
  facet normal 0.860742 0.509041 0
    outer loop
      vertex -6.30941 -3.46863 1
      vertex -6.07916 -3.85795 3
      vertex -6.07916 -3.85795 1
    endloop
  endfacet
  facet normal 0.917755 0.397148 0
    outer loop
      vertex -6.51475 -3.06561 3
      vertex -6.69439 -2.6505 1
      vertex -6.69439 -2.6505 3
    endloop
  endfacet
  facet normal 0.917755 0.397148 0
    outer loop
      vertex -6.69439 -2.6505 1
      vertex -6.51475 -3.06561 3
      vertex -6.51475 -3.06561 1
    endloop
  endfacet
  facet normal 0.827081 0.562083 0
    outer loop
      vertex -5.82492 -4.23205 3
      vertex -6.07916 -3.85795 1
      vertex -6.07916 -3.85795 3
    endloop
  endfacet
  facet normal 0.827081 0.562083 0
    outer loop
      vertex -6.07916 -3.85795 1
      vertex -5.82492 -4.23205 3
      vertex -5.82492 -4.23205 1
    endloop
  endfacet
  facet normal 0.975917 0.218143 0
    outer loop
      vertex -6.9738 -1.79057 3
      vertex -7.07247 -1.34914 1
      vertex -7.07247 -1.34914 3
    endloop
  endfacet
  facet normal 0.975917 0.218143 0
    outer loop
      vertex -7.07247 -1.34914 1
      vertex -6.9738 -1.79057 3
      vertex -6.9738 -1.79057 1
    endloop
  endfacet
  facet normal 0 0 1
    outer loop
      vertex 7.18579 0.452091 1
      vertex 7.18579 -0.452091 1
      vertex 7.2 0 1
    endloop
  endfacet
  facet normal 0 0 1
    outer loop
      vertex 7.14323 0.902399 1
      vertex 7.18579 -0.452091 1
      vertex 7.18579 0.452091 1
    endloop
  endfacet
  facet normal 0 0 1
    outer loop
      vertex 7.14323 0.902399 1
      vertex 7.14323 -0.902399 1
      vertex 7.18579 -0.452091 1
    endloop
  endfacet
  facet normal 0 0 1
    outer loop
      vertex 7.07247 1.34914 1
      vertex 7.14323 -0.902399 1
      vertex 7.14323 0.902399 1
    endloop
  endfacet
  facet normal 0 0 1
    outer loop
      vertex 7.07247 1.34914 1
      vertex 7.07247 -1.34914 1
      vertex 7.14323 -0.902399 1
    endloop
  endfacet
  facet normal 0 0 1
    outer loop
      vertex 6.9738 1.79057 1
      vertex 7.07247 -1.34914 1
      vertex 7.07247 1.34914 1
    endloop
  endfacet
  facet normal 0 0 1
    outer loop
      vertex 6.9738 1.79057 1
      vertex 6.9738 -1.79057 1
      vertex 7.07247 -1.34914 1
    endloop
  endfacet
  facet normal 0 0 1
    outer loop
      vertex 6.84761 2.22492 1
      vertex 6.9738 -1.79057 1
      vertex 6.9738 1.79057 1
    endloop
  endfacet
  facet normal 0 0 1
    outer loop
      vertex 6.84761 2.22492 1
      vertex 6.84761 -2.22492 1
      vertex 6.9738 -1.79057 1
    endloop
  endfacet
  facet normal 0 0 1
    outer loop
      vertex 6.69439 2.6505 1
      vertex 6.84761 -2.22492 1
      vertex 6.84761 2.22492 1
    endloop
  endfacet
  facet normal 0 0 1
    outer loop
      vertex 6.69439 2.6505 1
      vertex 6.69439 -2.6505 1
      vertex 6.84761 -2.22492 1
    endloop
  endfacet
  facet normal 0 0 1
    outer loop
      vertex 6.51475 3.06561 1
      vertex 6.69439 -2.6505 1
      vertex 6.69439 2.6505 1
    endloop
  endfacet
  facet normal 0 0 1
    outer loop
      vertex 6.51475 3.06561 1
      vertex 6.51475 -3.06561 1
      vertex 6.69439 -2.6505 1
    endloop
  endfacet
  facet normal 0 0 1
    outer loop
      vertex 6.30941 3.46863 1
      vertex 6.51475 -3.06561 1
      vertex 6.51475 3.06561 1
    endloop
  endfacet
  facet normal 0 0 1
    outer loop
      vertex 6.30941 3.46863 1
      vertex 6.30941 -3.46863 1
      vertex 6.51475 -3.06561 1
    endloop
  endfacet
  facet normal 0 0 1
    outer loop
      vertex 6.07916 3.85795 1
      vertex 6.30941 -3.46863 1
      vertex 6.30941 3.46863 1
    endloop
  endfacet
  facet normal 0 0 1
    outer loop
      vertex 6.07916 3.85795 1
      vertex 6.07916 -3.85795 1
      vertex 6.30941 -3.46863 1
    endloop
  endfacet
  facet normal 0 0 1
    outer loop
      vertex 5.82492 4.23205 1
      vertex 6.07916 -3.85795 1
      vertex 6.07916 3.85795 1
    endloop
  endfacet
  facet normal 0 0 1
    outer loop
      vertex 5.82492 4.23205 1
      vertex 5.82492 -4.23205 1
      vertex 6.07916 -3.85795 1
    endloop
  endfacet
  facet normal 0 0 1
    outer loop
      vertex 5.5477 4.58945 1
      vertex 5.82492 -4.23205 1
      vertex 5.82492 4.23205 1
    endloop
  endfacet
  facet normal 0 0 1
    outer loop
      vertex 5.5477 4.58945 1
      vertex 5.5477 -4.58945 1
      vertex 5.82492 -4.23205 1
    endloop
  endfacet
  facet normal 0 0 1
    outer loop
      vertex 5.24857 4.92874 1
      vertex 5.5477 -4.58945 1
      vertex 5.5477 4.58945 1
    endloop
  endfacet
  facet normal 0 0 1
    outer loop
      vertex 5.24857 4.92874 1
      vertex 5.24857 -4.92874 1
      vertex 5.5477 -4.58945 1
    endloop
  endfacet
  facet normal 0 0 1
    outer loop
      vertex 4.92874 5.24857 1
      vertex 5.24857 -4.92874 1
      vertex 5.24857 4.92874 1
    endloop
  endfacet
  facet normal 0 0 1
    outer loop
      vertex 4.92874 5.24857 1
      vertex 4.92874 -5.24857 1
      vertex 5.24857 -4.92874 1
    endloop
  endfacet
  facet normal 0 0 1
    outer loop
      vertex 4.58945 5.5477 1
      vertex 4.92874 -5.24857 1
      vertex 4.92874 5.24857 1
    endloop
  endfacet
  facet normal 0 0 1
    outer loop
      vertex 4.58945 5.5477 1
      vertex 4.58945 -5.5477 1
      vertex 4.92874 -5.24857 1
    endloop
  endfacet
  facet normal 0 0 1
    outer loop
      vertex 4.23205 5.82492 1
      vertex 4.58945 -5.5477 1
      vertex 4.58945 5.5477 1
    endloop
  endfacet
  facet normal 0 0 1
    outer loop
      vertex 4.23205 5.82492 1
      vertex 4.23205 -5.82492 1
      vertex 4.58945 -5.5477 1
    endloop
  endfacet
  facet normal 0 0 1
    outer loop
      vertex 3.85795 6.07916 1
      vertex 4.23205 -5.82492 1
      vertex 4.23205 5.82492 1
    endloop
  endfacet
  facet normal 0 0 1
    outer loop
      vertex 3.85795 6.07916 1
      vertex 3.85795 -6.07916 1
      vertex 4.23205 -5.82492 1
    endloop
  endfacet
  facet normal 0 0 1
    outer loop
      vertex 3.46863 6.30941 1
      vertex 3.85795 -6.07916 1
      vertex 3.85795 6.07916 1
    endloop
  endfacet
  facet normal 0 0 1
    outer loop
      vertex 3.46863 6.30941 1
      vertex 3.46863 -6.30941 1
      vertex 3.85795 -6.07916 1
    endloop
  endfacet
  facet normal 0 0 1
    outer loop
      vertex 3.06561 6.51475 1
      vertex 3.46863 -6.30941 1
      vertex 3.46863 6.30941 1
    endloop
  endfacet
  facet normal 0 0 1
    outer loop
      vertex 3.06561 6.51475 1
      vertex 3.06561 -6.51475 1
      vertex 3.46863 -6.30941 1
    endloop
  endfacet
  facet normal 0 0 1
    outer loop
      vertex 2.6505 6.69439 1
      vertex 3.06561 -6.51475 1
      vertex 3.06561 6.51475 1
    endloop
  endfacet
  facet normal 0 0 1
    outer loop
      vertex 2.6505 6.69439 1
      vertex 2.6505 -6.69439 1
      vertex 3.06561 -6.51475 1
    endloop
  endfacet
  facet normal 0 0 1
    outer loop
      vertex 2.22492 6.84761 1
      vertex 2.6505 -6.69439 1
      vertex 2.6505 6.69439 1
    endloop
  endfacet
  facet normal 0 0 1
    outer loop
      vertex 2.22492 6.84761 1
      vertex 2.22492 -6.84761 1
      vertex 2.6505 -6.69439 1
    endloop
  endfacet
  facet normal 0 0 1
    outer loop
      vertex 1.79057 6.9738 1
      vertex 2.22492 -6.84761 1
      vertex 2.22492 6.84761 1
    endloop
  endfacet
  facet normal 0 0 1
    outer loop
      vertex 1.79057 6.9738 1
      vertex 1.79057 -6.9738 1
      vertex 2.22492 -6.84761 1
    endloop
  endfacet
  facet normal 0 0 1
    outer loop
      vertex 1.34914 7.07247 1
      vertex 1.79057 -6.9738 1
      vertex 1.79057 6.9738 1
    endloop
  endfacet
  facet normal 0 0 1
    outer loop
      vertex 1.34914 7.07247 1
      vertex 1.34914 -7.07247 1
      vertex 1.79057 -6.9738 1
    endloop
  endfacet
  facet normal 0 0 1
    outer loop
      vertex 0.902399 7.14323 1
      vertex 1.34914 -7.07247 1
      vertex 1.34914 7.07247 1
    endloop
  endfacet
  facet normal 0 0 1
    outer loop
      vertex 0.902399 7.14323 1
      vertex 0.902399 -7.14323 1
      vertex 1.34914 -7.07247 1
    endloop
  endfacet
  facet normal 0 0 1
    outer loop
      vertex 0.452091 7.18579 1
      vertex 0.902399 -7.14323 1
      vertex 0.902399 7.14323 1
    endloop
  endfacet
  facet normal 0 0 1
    outer loop
      vertex 0.452091 7.18579 1
      vertex 0.452091 -7.18579 1
      vertex 0.902399 -7.14323 1
    endloop
  endfacet
  facet normal 0 0 1
    outer loop
      vertex 0 7.2 1
      vertex 0.452091 -7.18579 1
      vertex 0.452091 7.18579 1
    endloop
  endfacet
  facet normal 0 0 1
    outer loop
      vertex 0 7.2 1
      vertex 0 -7.2 1
      vertex 0.452091 -7.18579 1
    endloop
  endfacet
  facet normal -0 0 1
    outer loop
      vertex -0.452091 7.18579 1
      vertex 0 -7.2 1
      vertex 0 7.2 1
    endloop
  endfacet
  facet normal 0 0 1
    outer loop
      vertex -0.452091 7.18579 1
      vertex -0.452091 -7.18579 1
      vertex 0 -7.2 1
    endloop
  endfacet
  facet normal -0 0 1
    outer loop
      vertex -0.902399 7.14323 1
      vertex -0.452091 -7.18579 1
      vertex -0.452091 7.18579 1
    endloop
  endfacet
  facet normal 0 0 1
    outer loop
      vertex -0.902399 7.14323 1
      vertex -0.902399 -7.14323 1
      vertex -0.452091 -7.18579 1
    endloop
  endfacet
  facet normal -0 0 1
    outer loop
      vertex -1.34914 7.07247 1
      vertex -0.902399 -7.14323 1
      vertex -0.902399 7.14323 1
    endloop
  endfacet
  facet normal 0 0 1
    outer loop
      vertex -1.34914 7.07247 1
      vertex -1.34914 -7.07247 1
      vertex -0.902399 -7.14323 1
    endloop
  endfacet
  facet normal -0 0 1
    outer loop
      vertex -1.79057 6.9738 1
      vertex -1.34914 -7.07247 1
      vertex -1.34914 7.07247 1
    endloop
  endfacet
  facet normal 0 0 1
    outer loop
      vertex -1.79057 6.9738 1
      vertex -1.79057 -6.9738 1
      vertex -1.34914 -7.07247 1
    endloop
  endfacet
  facet normal -0 0 1
    outer loop
      vertex -2.22492 6.84761 1
      vertex -1.79057 -6.9738 1
      vertex -1.79057 6.9738 1
    endloop
  endfacet
  facet normal 0 0 1
    outer loop
      vertex -2.22492 6.84761 1
      vertex -2.22492 -6.84761 1
      vertex -1.79057 -6.9738 1
    endloop
  endfacet
  facet normal -0 0 1
    outer loop
      vertex -2.6505 6.69439 1
      vertex -2.22492 -6.84761 1
      vertex -2.22492 6.84761 1
    endloop
  endfacet
  facet normal 0 0 1
    outer loop
      vertex -2.6505 6.69439 1
      vertex -2.6505 -6.69439 1
      vertex -2.22492 -6.84761 1
    endloop
  endfacet
  facet normal -0 0 1
    outer loop
      vertex -3.06561 6.51475 1
      vertex -2.6505 -6.69439 1
      vertex -2.6505 6.69439 1
    endloop
  endfacet
  facet normal 0 0 1
    outer loop
      vertex -3.06561 6.51475 1
      vertex -3.06561 -6.51475 1
      vertex -2.6505 -6.69439 1
    endloop
  endfacet
  facet normal -0 0 1
    outer loop
      vertex -3.46863 6.30941 1
      vertex -3.06561 -6.51475 1
      vertex -3.06561 6.51475 1
    endloop
  endfacet
  facet normal 0 0 1
    outer loop
      vertex -3.46863 6.30941 1
      vertex -3.46863 -6.30941 1
      vertex -3.06561 -6.51475 1
    endloop
  endfacet
  facet normal -0 0 1
    outer loop
      vertex -3.85795 6.07916 1
      vertex -3.46863 -6.30941 1
      vertex -3.46863 6.30941 1
    endloop
  endfacet
  facet normal 0 0 1
    outer loop
      vertex -3.85795 6.07916 1
      vertex -3.85795 -6.07916 1
      vertex -3.46863 -6.30941 1
    endloop
  endfacet
  facet normal -0 0 1
    outer loop
      vertex -4.23205 5.82492 1
      vertex -3.85795 -6.07916 1
      vertex -3.85795 6.07916 1
    endloop
  endfacet
  facet normal 0 0 1
    outer loop
      vertex -4.23205 5.82492 1
      vertex -4.23205 -5.82492 1
      vertex -3.85795 -6.07916 1
    endloop
  endfacet
  facet normal -0 0 1
    outer loop
      vertex -4.58945 5.5477 1
      vertex -4.23205 -5.82492 1
      vertex -4.23205 5.82492 1
    endloop
  endfacet
  facet normal 0 0 1
    outer loop
      vertex -4.58945 5.5477 1
      vertex -4.58945 -5.5477 1
      vertex -4.23205 -5.82492 1
    endloop
  endfacet
  facet normal -0 0 1
    outer loop
      vertex -4.92874 5.24857 1
      vertex -4.58945 -5.5477 1
      vertex -4.58945 5.5477 1
    endloop
  endfacet
  facet normal 0 0 1
    outer loop
      vertex -4.92874 5.24857 1
      vertex -4.92874 -5.24857 1
      vertex -4.58945 -5.5477 1
    endloop
  endfacet
  facet normal -0 0 1
    outer loop
      vertex -5.24857 4.92874 1
      vertex -4.92874 -5.24857 1
      vertex -4.92874 5.24857 1
    endloop
  endfacet
  facet normal 0 0 1
    outer loop
      vertex -5.24857 4.92874 1
      vertex -5.24857 -4.92874 1
      vertex -4.92874 -5.24857 1
    endloop
  endfacet
  facet normal -0 0 1
    outer loop
      vertex -5.5477 4.58945 1
      vertex -5.24857 -4.92874 1
      vertex -5.24857 4.92874 1
    endloop
  endfacet
  facet normal 0 0 1
    outer loop
      vertex -5.5477 4.58945 1
      vertex -5.5477 -4.58945 1
      vertex -5.24857 -4.92874 1
    endloop
  endfacet
  facet normal -0 0 1
    outer loop
      vertex -5.82492 4.23205 1
      vertex -5.5477 -4.58945 1
      vertex -5.5477 4.58945 1
    endloop
  endfacet
  facet normal 0 0 1
    outer loop
      vertex -5.82492 4.23205 1
      vertex -5.82492 -4.23205 1
      vertex -5.5477 -4.58945 1
    endloop
  endfacet
  facet normal -0 0 1
    outer loop
      vertex -6.07916 3.85795 1
      vertex -5.82492 -4.23205 1
      vertex -5.82492 4.23205 1
    endloop
  endfacet
  facet normal 0 0 1
    outer loop
      vertex -6.07916 3.85795 1
      vertex -6.07916 -3.85795 1
      vertex -5.82492 -4.23205 1
    endloop
  endfacet
  facet normal -0 0 1
    outer loop
      vertex -6.30941 3.46863 1
      vertex -6.07916 -3.85795 1
      vertex -6.07916 3.85795 1
    endloop
  endfacet
  facet normal 0 0 1
    outer loop
      vertex -6.30941 3.46863 1
      vertex -6.30941 -3.46863 1
      vertex -6.07916 -3.85795 1
    endloop
  endfacet
  facet normal -0 0 1
    outer loop
      vertex -6.51475 3.06561 1
      vertex -6.30941 -3.46863 1
      vertex -6.30941 3.46863 1
    endloop
  endfacet
  facet normal 0 0 1
    outer loop
      vertex -6.51475 3.06561 1
      vertex -6.51475 -3.06561 1
      vertex -6.30941 -3.46863 1
    endloop
  endfacet
  facet normal -0 0 1
    outer loop
      vertex -6.69439 2.6505 1
      vertex -6.51475 -3.06561 1
      vertex -6.51475 3.06561 1
    endloop
  endfacet
  facet normal 0 0 1
    outer loop
      vertex -6.69439 2.6505 1
      vertex -6.69439 -2.6505 1
      vertex -6.51475 -3.06561 1
    endloop
  endfacet
  facet normal -0 0 1
    outer loop
      vertex -6.84761 2.22492 1
      vertex -6.69439 -2.6505 1
      vertex -6.69439 2.6505 1
    endloop
  endfacet
  facet normal 0 0 1
    outer loop
      vertex -6.84761 2.22492 1
      vertex -6.84761 -2.22492 1
      vertex -6.69439 -2.6505 1
    endloop
  endfacet
  facet normal -0 0 1
    outer loop
      vertex -6.9738 1.79057 1
      vertex -6.84761 -2.22492 1
      vertex -6.84761 2.22492 1
    endloop
  endfacet
  facet normal 0 0 1
    outer loop
      vertex -6.9738 1.79057 1
      vertex -6.9738 -1.79057 1
      vertex -6.84761 -2.22492 1
    endloop
  endfacet
  facet normal -0 0 1
    outer loop
      vertex -7.07247 1.34914 1
      vertex -6.9738 -1.79057 1
      vertex -6.9738 1.79057 1
    endloop
  endfacet
  facet normal 0 0 1
    outer loop
      vertex -7.07247 1.34914 1
      vertex -7.07247 -1.34914 1
      vertex -6.9738 -1.79057 1
    endloop
  endfacet
  facet normal -0 0 1
    outer loop
      vertex -7.14323 0.902399 1
      vertex -7.07247 -1.34914 1
      vertex -7.07247 1.34914 1
    endloop
  endfacet
  facet normal 0 0 1
    outer loop
      vertex -7.14323 0.902399 1
      vertex -7.14323 -0.902399 1
      vertex -7.07247 -1.34914 1
    endloop
  endfacet
  facet normal -0 0 1
    outer loop
      vertex -7.18579 0.452091 1
      vertex -7.14323 -0.902399 1
      vertex -7.14323 0.902399 1
    endloop
  endfacet
  facet normal 0 0 1
    outer loop
      vertex -7.18579 0.452091 1
      vertex -7.18579 -0.452091 1
      vertex -7.14323 -0.902399 1
    endloop
  endfacet
  facet normal 0 -0 1
    outer loop
      vertex -7.18579 -0.452091 1
      vertex -7.18579 0.452091 1
      vertex -7.2 0 1
    endloop
  endfacet
  facet normal -0.987688 -0.156435 0
    outer loop
      vertex 7.14323 0.902399 1
      vertex 7.07247 1.34914 3
      vertex 7.07247 1.34914 1
    endloop
  endfacet
  facet normal -0.987688 -0.156435 0
    outer loop
      vertex 7.07247 1.34914 3
      vertex 7.14323 0.902399 1
      vertex 7.14323 0.902399 3
    endloop
  endfacet
  facet normal -0.940881 -0.338738 0
    outer loop
      vertex 6.84761 2.22492 1
      vertex 6.69439 2.6505 3
      vertex 6.69439 2.6505 1
    endloop
  endfacet
  facet normal -0.940881 -0.338738 0
    outer loop
      vertex 6.69439 2.6505 3
      vertex 6.84761 2.22492 1
      vertex 6.84761 2.22492 3
    endloop
  endfacet
  facet normal -0.750111 -0.661312 0
    outer loop
      vertex 5.5477 4.58945 1
      vertex 5.24857 4.92874 3
      vertex 5.24857 4.92874 1
    endloop
  endfacet
  facet normal -0.750111 -0.661312 0
    outer loop
      vertex 5.24857 4.92874 3
      vertex 5.5477 4.58945 1
      vertex 5.5477 4.58945 3
    endloop
  endfacet
  facet normal -0.891006 -0.453992 0
    outer loop
      vertex 6.51475 3.06561 1
      vertex 6.30941 3.46863 3
      vertex 6.30941 3.46863 1
    endloop
  endfacet
  facet normal -0.891006 -0.453992 0
    outer loop
      vertex 6.30941 3.46863 3
      vertex 6.51475 3.06561 1
      vertex 6.51475 3.06561 3
    endloop
  endfacet
  facet normal -0.278991 -0.960294 0
    outer loop
      vertex 1.79057 6.9738 1
      vertex 2.22492 6.84761 3
      vertex 1.79057 6.9738 3
    endloop
  endfacet
  facet normal -0.278991 -0.960294 -0
    outer loop
      vertex 2.22492 6.84761 3
      vertex 1.79057 6.9738 1
      vertex 2.22492 6.84761 1
    endloop
  endfacet
  facet normal -0.338738 -0.940881 0
    outer loop
      vertex 2.22492 6.84761 1
      vertex 2.6505 6.69439 3
      vertex 2.22492 6.84761 3
    endloop
  endfacet
  facet normal -0.338738 -0.940881 -0
    outer loop
      vertex 2.6505 6.69439 3
      vertex 2.22492 6.84761 1
      vertex 2.6505 6.69439 1
    endloop
  endfacet
  facet normal -0.0941076 -0.995562 0
    outer loop
      vertex 0.452091 7.18579 1
      vertex 0.902399 7.14323 3
      vertex 0.452091 7.18579 3
    endloop
  endfacet
  facet normal -0.0941076 -0.995562 -0
    outer loop
      vertex 0.902399 7.14323 3
      vertex 0.452091 7.18579 1
      vertex 0.902399 7.14323 1
    endloop
  endfacet
  facet normal -0.509041 -0.860742 0
    outer loop
      vertex 3.46863 6.30941 1
      vertex 3.85795 6.07916 3
      vertex 3.46863 6.30941 3
    endloop
  endfacet
  facet normal -0.509041 -0.860742 -0
    outer loop
      vertex 3.85795 6.07916 3
      vertex 3.46863 6.30941 1
      vertex 3.85795 6.07916 1
    endloop
  endfacet
  facet normal -0.453992 -0.891006 0
    outer loop
      vertex 3.06561 6.51475 1
      vertex 3.46863 6.30941 3
      vertex 3.06561 6.51475 3
    endloop
  endfacet
  facet normal -0.453992 -0.891006 -0
    outer loop
      vertex 3.46863 6.30941 3
      vertex 3.06561 6.51475 1
      vertex 3.46863 6.30941 1
    endloop
  endfacet
  facet normal -0.661312 -0.750111 0
    outer loop
      vertex 4.58945 5.5477 1
      vertex 4.92874 5.24857 3
      vertex 4.58945 5.5477 3
    endloop
  endfacet
  facet normal -0.661312 -0.750111 -0
    outer loop
      vertex 4.92874 5.24857 3
      vertex 4.58945 5.5477 1
      vertex 4.92874 5.24857 1
    endloop
  endfacet
  facet normal 0.987688 -0.156435 0
    outer loop
      vertex -7.14323 0.902399 3
      vertex -7.07247 1.34914 1
      vertex -7.07247 1.34914 3
    endloop
  endfacet
  facet normal 0.987688 -0.156435 0
    outer loop
      vertex -7.07247 1.34914 1
      vertex -7.14323 0.902399 3
      vertex -7.14323 0.902399 1
    endloop
  endfacet
  facet normal 0.750111 -0.661312 0
    outer loop
      vertex -5.5477 4.58945 3
      vertex -5.24857 4.92874 1
      vertex -5.24857 4.92874 3
    endloop
  endfacet
  facet normal 0.750111 -0.661312 0
    outer loop
      vertex -5.24857 4.92874 1
      vertex -5.5477 4.58945 3
      vertex -5.5477 4.58945 1
    endloop
  endfacet
  facet normal 0.707107 -0.707107 0
    outer loop
      vertex -5.24857 4.92874 3
      vertex -4.92874 5.24857 1
      vertex -4.92874 5.24857 3
    endloop
  endfacet
  facet normal 0.707107 -0.707107 0
    outer loop
      vertex -4.92874 5.24857 1
      vertex -5.24857 4.92874 3
      vertex -5.24857 4.92874 1
    endloop
  endfacet
  facet normal 0.860742 -0.509041 0
    outer loop
      vertex -6.30941 3.46863 3
      vertex -6.07916 3.85795 1
      vertex -6.07916 3.85795 3
    endloop
  endfacet
  facet normal 0.860742 -0.509041 0
    outer loop
      vertex -6.07916 3.85795 1
      vertex -6.30941 3.46863 3
      vertex -6.30941 3.46863 1
    endloop
  endfacet
  facet normal 0.940881 -0.338738 0
    outer loop
      vertex -6.84761 2.22492 3
      vertex -6.69439 2.6505 1
      vertex -6.69439 2.6505 3
    endloop
  endfacet
  facet normal 0.940881 -0.338738 0
    outer loop
      vertex -6.69439 2.6505 1
      vertex -6.84761 2.22492 3
      vertex -6.84761 2.22492 1
    endloop
  endfacet
  facet normal 0.917755 -0.397148 0
    outer loop
      vertex -6.69439 2.6505 3
      vertex -6.51475 3.06561 1
      vertex -6.51475 3.06561 3
    endloop
  endfacet
  facet normal 0.917755 -0.397148 0
    outer loop
      vertex -6.51475 3.06561 1
      vertex -6.69439 2.6505 3
      vertex -6.69439 2.6505 1
    endloop
  endfacet
  facet normal 0.975917 -0.218143 0
    outer loop
      vertex -7.07247 1.34914 3
      vertex -6.9738 1.79057 1
      vertex -6.9738 1.79057 3
    endloop
  endfacet
  facet normal 0.975917 -0.218143 0
    outer loop
      vertex -6.9738 1.79057 1
      vertex -7.07247 1.34914 3
      vertex -7.07247 1.34914 1
    endloop
  endfacet
  facet normal 0.995562 -0.0941076 0
    outer loop
      vertex -7.18579 0.452091 3
      vertex -7.14323 0.902399 1
      vertex -7.14323 0.902399 3
    endloop
  endfacet
  facet normal 0.995562 -0.0941076 0
    outer loop
      vertex -7.14323 0.902399 1
      vertex -7.18579 0.452091 3
      vertex -7.18579 0.452091 1
    endloop
  endfacet
  facet normal 0.453992 -0.891006 0
    outer loop
      vertex -3.46863 6.30941 1
      vertex -3.06561 6.51475 3
      vertex -3.46863 6.30941 3
    endloop
  endfacet
  facet normal 0.453992 -0.891006 0
    outer loop
      vertex -3.06561 6.51475 3
      vertex -3.46863 6.30941 1
      vertex -3.06561 6.51475 1
    endloop
  endfacet
  facet normal 0.612907 -0.790155 0
    outer loop
      vertex -4.58945 5.5477 1
      vertex -4.23205 5.82492 3
      vertex -4.58945 5.5477 3
    endloop
  endfacet
  facet normal 0.612907 -0.790155 0
    outer loop
      vertex -4.23205 5.82492 3
      vertex -4.58945 5.5477 1
      vertex -4.23205 5.82492 1
    endloop
  endfacet
  facet normal 0.278991 -0.960294 0
    outer loop
      vertex -2.22492 6.84761 1
      vertex -1.79057 6.9738 3
      vertex -2.22492 6.84761 3
    endloop
  endfacet
  facet normal 0.278991 -0.960294 0
    outer loop
      vertex -1.79057 6.9738 3
      vertex -2.22492 6.84761 1
      vertex -1.79057 6.9738 1
    endloop
  endfacet
  facet normal 0.0314114 -0.999507 0
    outer loop
      vertex -0.452091 7.18579 1
      vertex 0 7.2 3
      vertex -0.452091 7.18579 3
    endloop
  endfacet
  facet normal 0.0314114 -0.999507 0
    outer loop
      vertex 0 7.2 3
      vertex -0.452091 7.18579 1
      vertex 0 7.2 1
    endloop
  endfacet
  facet normal -0.999507 0.0314114 0
    outer loop
      vertex 7.18579 -0.452091 1
      vertex 7.2 0 3
      vertex 7.2 0 1
    endloop
  endfacet
  facet normal -0.999507 0.0314114 0
    outer loop
      vertex 7.2 0 3
      vertex 7.18579 -0.452091 1
      vertex 7.18579 -0.452091 3
    endloop
  endfacet
  facet normal -0.0314114 0.999507 0
    outer loop
      vertex 0.452091 -7.18579 1
      vertex 0 -7.2 3
      vertex 0.452091 -7.18579 3
    endloop
  endfacet
  facet normal -0.0314114 0.999507 0
    outer loop
      vertex 0 -7.2 3
      vertex 0.452091 -7.18579 1
      vertex 0 -7.2 1
    endloop
  endfacet
  facet normal -0.156435 0.987688 0
    outer loop
      vertex 1.34914 -7.07247 1
      vertex 0.902399 -7.14323 3
      vertex 1.34914 -7.07247 3
    endloop
  endfacet
  facet normal -0.156435 0.987688 0
    outer loop
      vertex 0.902399 -7.14323 3
      vertex 1.34914 -7.07247 1
      vertex 0.902399 -7.14323 1
    endloop
  endfacet
  facet normal -0.338738 0.940881 0
    outer loop
      vertex 2.6505 -6.69439 1
      vertex 2.22492 -6.84761 3
      vertex 2.6505 -6.69439 3
    endloop
  endfacet
  facet normal -0.338738 0.940881 0
    outer loop
      vertex 2.22492 -6.84761 3
      vertex 2.6505 -6.69439 1
      vertex 2.22492 -6.84761 1
    endloop
  endfacet
  facet normal -0.661312 0.750111 0
    outer loop
      vertex 4.92874 -5.24857 1
      vertex 4.58945 -5.5477 3
      vertex 4.92874 -5.24857 3
    endloop
  endfacet
  facet normal -0.661312 0.750111 0
    outer loop
      vertex 4.58945 -5.5477 3
      vertex 4.92874 -5.24857 1
      vertex 4.58945 -5.5477 1
    endloop
  endfacet
  facet normal -0.562083 0.827081 0
    outer loop
      vertex 4.23205 -5.82492 1
      vertex 3.85795 -6.07916 3
      vertex 4.23205 -5.82492 3
    endloop
  endfacet
  facet normal -0.562083 0.827081 0
    outer loop
      vertex 3.85795 -6.07916 3
      vertex 4.23205 -5.82492 1
      vertex 3.85795 -6.07916 1
    endloop
  endfacet
  facet normal -0.453992 0.891006 0
    outer loop
      vertex 3.46863 -6.30941 1
      vertex 3.06561 -6.51475 3
      vertex 3.46863 -6.30941 3
    endloop
  endfacet
  facet normal -0.453992 0.891006 0
    outer loop
      vertex 3.06561 -6.51475 3
      vertex 3.46863 -6.30941 1
      vertex 3.06561 -6.51475 1
    endloop
  endfacet
  facet normal -0.750111 0.661312 0
    outer loop
      vertex 5.24857 -4.92874 1
      vertex 5.5477 -4.58945 3
      vertex 5.5477 -4.58945 1
    endloop
  endfacet
  facet normal -0.750111 0.661312 0
    outer loop
      vertex 5.5477 -4.58945 3
      vertex 5.24857 -4.92874 1
      vertex 5.24857 -4.92874 3
    endloop
  endfacet
  facet normal -0.827081 0.562083 0
    outer loop
      vertex 5.82492 -4.23205 1
      vertex 6.07916 -3.85795 3
      vertex 6.07916 -3.85795 1
    endloop
  endfacet
  facet normal -0.827081 0.562083 0
    outer loop
      vertex 6.07916 -3.85795 3
      vertex 5.82492 -4.23205 1
      vertex 5.82492 -4.23205 3
    endloop
  endfacet
  facet normal -0.917755 0.397148 0
    outer loop
      vertex 6.51475 -3.06561 1
      vertex 6.69439 -2.6505 3
      vertex 6.69439 -2.6505 1
    endloop
  endfacet
  facet normal -0.917755 0.397148 0
    outer loop
      vertex 6.69439 -2.6505 3
      vertex 6.51475 -3.06561 1
      vertex 6.51475 -3.06561 3
    endloop
  endfacet
  facet normal -0.860742 0.509041 0
    outer loop
      vertex 6.07916 -3.85795 1
      vertex 6.30941 -3.46863 3
      vertex 6.30941 -3.46863 1
    endloop
  endfacet
  facet normal -0.860742 0.509041 0
    outer loop
      vertex 6.30941 -3.46863 3
      vertex 6.07916 -3.85795 1
      vertex 6.07916 -3.85795 3
    endloop
  endfacet
  facet normal -0.975917 0.218143 0
    outer loop
      vertex 6.9738 -1.79057 1
      vertex 7.07247 -1.34914 3
      vertex 7.07247 -1.34914 1
    endloop
  endfacet
  facet normal -0.975917 0.218143 0
    outer loop
      vertex 7.07247 -1.34914 3
      vertex 6.9738 -1.79057 1
      vertex 6.9738 -1.79057 3
    endloop
  endfacet
  facet normal 0.707107 0.707107 0
    outer loop
      vertex -4.92874 -5.24857 3
      vertex -5.24857 -4.92874 1
      vertex -5.24857 -4.92874 3
    endloop
  endfacet
  facet normal 0.707107 0.707107 0
    outer loop
      vertex -5.24857 -4.92874 1
      vertex -4.92874 -5.24857 3
      vertex -4.92874 -5.24857 1
    endloop
  endfacet
  facet normal 0.612907 0.790155 -0
    outer loop
      vertex -4.23205 -5.82492 1
      vertex -4.58945 -5.5477 3
      vertex -4.23205 -5.82492 3
    endloop
  endfacet
  facet normal 0.612907 0.790155 0
    outer loop
      vertex -4.58945 -5.5477 3
      vertex -4.23205 -5.82492 1
      vertex -4.58945 -5.5477 1
    endloop
  endfacet
  facet normal 0.509041 0.860742 -0
    outer loop
      vertex -3.46863 -6.30941 1
      vertex -3.85795 -6.07916 3
      vertex -3.46863 -6.30941 3
    endloop
  endfacet
  facet normal 0.509041 0.860742 0
    outer loop
      vertex -3.85795 -6.07916 3
      vertex -3.46863 -6.30941 1
      vertex -3.85795 -6.07916 1
    endloop
  endfacet
  facet normal 0.397148 0.917755 -0
    outer loop
      vertex -2.6505 -6.69439 1
      vertex -3.06561 -6.51475 3
      vertex -2.6505 -6.69439 3
    endloop
  endfacet
  facet normal 0.397148 0.917755 0
    outer loop
      vertex -3.06561 -6.51475 3
      vertex -2.6505 -6.69439 1
      vertex -3.06561 -6.51475 1
    endloop
  endfacet
  facet normal 0.278991 0.960294 -0
    outer loop
      vertex -1.79057 -6.9738 1
      vertex -2.22492 -6.84761 3
      vertex -1.79057 -6.9738 3
    endloop
  endfacet
  facet normal 0.278991 0.960294 0
    outer loop
      vertex -2.22492 -6.84761 3
      vertex -1.79057 -6.9738 1
      vertex -2.22492 -6.84761 1
    endloop
  endfacet
  facet normal 0.218143 0.975917 -0
    outer loop
      vertex -1.34914 -7.07247 1
      vertex -1.79057 -6.9738 3
      vertex -1.34914 -7.07247 3
    endloop
  endfacet
  facet normal 0.218143 0.975917 0
    outer loop
      vertex -1.79057 -6.9738 3
      vertex -1.34914 -7.07247 1
      vertex -1.79057 -6.9738 1
    endloop
  endfacet
  facet normal 0.0941076 0.995562 -0
    outer loop
      vertex -0.452091 -7.18579 1
      vertex -0.902399 -7.14323 3
      vertex -0.452091 -7.18579 3
    endloop
  endfacet
  facet normal 0.0941076 0.995562 0
    outer loop
      vertex -0.902399 -7.14323 3
      vertex -0.452091 -7.18579 1
      vertex -0.902399 -7.14323 1
    endloop
  endfacet
  facet normal 0.891006 0.453992 0
    outer loop
      vertex -6.30941 -3.46863 3
      vertex -6.51475 -3.06561 1
      vertex -6.51475 -3.06561 3
    endloop
  endfacet
  facet normal 0.891006 0.453992 0
    outer loop
      vertex -6.51475 -3.06561 1
      vertex -6.30941 -3.46863 3
      vertex -6.30941 -3.46863 1
    endloop
  endfacet
  facet normal 0.790155 0.612907 0
    outer loop
      vertex -5.5477 -4.58945 3
      vertex -5.82492 -4.23205 1
      vertex -5.82492 -4.23205 3
    endloop
  endfacet
  facet normal 0.790155 0.612907 0
    outer loop
      vertex -5.82492 -4.23205 1
      vertex -5.5477 -4.58945 3
      vertex -5.5477 -4.58945 1
    endloop
  endfacet
  facet normal 0.960294 0.278991 0
    outer loop
      vertex -6.84761 -2.22492 3
      vertex -6.9738 -1.79057 1
      vertex -6.9738 -1.79057 3
    endloop
  endfacet
  facet normal 0.960294 0.278991 0
    outer loop
      vertex -6.9738 -1.79057 1
      vertex -6.84761 -2.22492 3
      vertex -6.84761 -2.22492 1
    endloop
  endfacet
  facet normal 0.987688 0.156435 0
    outer loop
      vertex -7.07247 -1.34914 3
      vertex -7.14323 -0.902399 1
      vertex -7.14323 -0.902399 3
    endloop
  endfacet
  facet normal 0.987688 0.156435 0
    outer loop
      vertex -7.14323 -0.902399 1
      vertex -7.07247 -1.34914 3
      vertex -7.07247 -1.34914 1
    endloop
  endfacet
  facet normal 0.999507 0.0314114 0
    outer loop
      vertex -7.18579 -0.452091 3
      vertex -7.2 0 1
      vertex -7.2 0 3
    endloop
  endfacet
  facet normal 0.999507 0.0314114 0
    outer loop
      vertex -7.2 0 1
      vertex -7.18579 -0.452091 3
      vertex -7.18579 -0.452091 1
    endloop
  endfacet
  facet normal -0.0941076 0.995562 0
    outer loop
      vertex 0.902399 -7.14323 1
      vertex 0.452091 -7.18579 3
      vertex 0.902399 -7.14323 3
    endloop
  endfacet
  facet normal -0.0941076 0.995562 0
    outer loop
      vertex 0.452091 -7.18579 3
      vertex 0.902399 -7.14323 1
      vertex 0.452091 -7.18579 1
    endloop
  endfacet
  facet normal -0.397148 0.917755 0
    outer loop
      vertex 3.06561 -6.51475 1
      vertex 2.6505 -6.69439 3
      vertex 3.06561 -6.51475 3
    endloop
  endfacet
  facet normal -0.397148 0.917755 0
    outer loop
      vertex 2.6505 -6.69439 3
      vertex 3.06561 -6.51475 1
      vertex 2.6505 -6.69439 1
    endloop
  endfacet
  facet normal -0.707107 0.707107 0
    outer loop
      vertex 4.92874 -5.24857 1
      vertex 5.24857 -4.92874 3
      vertex 5.24857 -4.92874 1
    endloop
  endfacet
  facet normal -0.707107 0.707107 0
    outer loop
      vertex 5.24857 -4.92874 3
      vertex 4.92874 -5.24857 1
      vertex 4.92874 -5.24857 3
    endloop
  endfacet
  facet normal -0.509041 0.860742 0
    outer loop
      vertex 3.85795 -6.07916 1
      vertex 3.46863 -6.30941 3
      vertex 3.85795 -6.07916 3
    endloop
  endfacet
  facet normal -0.509041 0.860742 0
    outer loop
      vertex 3.46863 -6.30941 3
      vertex 3.85795 -6.07916 1
      vertex 3.46863 -6.30941 1
    endloop
  endfacet
  facet normal -0.790155 0.612907 0
    outer loop
      vertex 5.5477 -4.58945 1
      vertex 5.82492 -4.23205 3
      vertex 5.82492 -4.23205 1
    endloop
  endfacet
  facet normal -0.790155 0.612907 0
    outer loop
      vertex 5.82492 -4.23205 3
      vertex 5.5477 -4.58945 1
      vertex 5.5477 -4.58945 3
    endloop
  endfacet
  facet normal -0.891006 0.453992 0
    outer loop
      vertex 6.30941 -3.46863 1
      vertex 6.51475 -3.06561 3
      vertex 6.51475 -3.06561 1
    endloop
  endfacet
  facet normal -0.891006 0.453992 0
    outer loop
      vertex 6.51475 -3.06561 3
      vertex 6.30941 -3.46863 1
      vertex 6.30941 -3.46863 3
    endloop
  endfacet
  facet normal 0.661312 0.750111 -0
    outer loop
      vertex -4.58945 -5.5477 1
      vertex -4.92874 -5.24857 3
      vertex -4.58945 -5.5477 3
    endloop
  endfacet
  facet normal 0.661312 0.750111 0
    outer loop
      vertex -4.92874 -5.24857 3
      vertex -4.58945 -5.5477 1
      vertex -4.92874 -5.24857 1
    endloop
  endfacet
  facet normal 0.453992 0.891006 -0
    outer loop
      vertex -3.06561 -6.51475 1
      vertex -3.46863 -6.30941 3
      vertex -3.06561 -6.51475 3
    endloop
  endfacet
  facet normal 0.453992 0.891006 0
    outer loop
      vertex -3.46863 -6.30941 3
      vertex -3.06561 -6.51475 1
      vertex -3.46863 -6.30941 1
    endloop
  endfacet
  facet normal 0.338738 0.940881 -0
    outer loop
      vertex -2.22492 -6.84761 1
      vertex -2.6505 -6.69439 3
      vertex -2.22492 -6.84761 3
    endloop
  endfacet
  facet normal 0.338738 0.940881 0
    outer loop
      vertex -2.6505 -6.69439 3
      vertex -2.22492 -6.84761 1
      vertex -2.6505 -6.69439 1
    endloop
  endfacet
  facet normal 0.156435 0.987688 -0
    outer loop
      vertex -0.902399 -7.14323 1
      vertex -1.34914 -7.07247 3
      vertex -0.902399 -7.14323 3
    endloop
  endfacet
  facet normal 0.156435 0.987688 0
    outer loop
      vertex -1.34914 -7.07247 3
      vertex -0.902399 -7.14323 1
      vertex -1.34914 -7.07247 1
    endloop
  endfacet
  facet normal 0.995562 0.0941076 0
    outer loop
      vertex -7.14323 -0.902399 3
      vertex -7.18579 -0.452091 1
      vertex -7.18579 -0.452091 3
    endloop
  endfacet
  facet normal 0.995562 0.0941076 0
    outer loop
      vertex -7.18579 -0.452091 1
      vertex -7.14323 -0.902399 3
      vertex -7.14323 -0.902399 1
    endloop
  endfacet
  facet normal -1 0 0
    outer loop
      vertex 12 -8 3
      vertex 12 -1.44968 28
      vertex 12 0.737534 3
    endloop
  endfacet
  facet normal -1 -0 0
    outer loop
      vertex 12 -1.44968 28
      vertex 12 -8 3
      vertex 12 -8 28
    endloop
  endfacet
  facet normal -1 0 0
    outer loop
      vertex 12 2.74517 3
      vertex 12 8 28
      vertex 12 8 3
    endloop
  endfacet
  facet normal -1 -0 0
    outer loop
      vertex 12 8 28
      vertex 12 2.74517 3
      vertex 12 0.557957 28
    endloop
  endfacet
  facet normal -0 0 1
    outer loop
      vertex 12 -1.44968 28
      vertex 15 -8 28
      vertex 15 -1.44968 28
    endloop
  endfacet
  facet normal 0 0 1
    outer loop
      vertex 15 -8 28
      vertex 12 -1.44968 28
      vertex 12 -8 28
    endloop
  endfacet
  facet normal -0 0 1
    outer loop
      vertex 12 8 28
      vertex 15 0.557957 28
      vertex 15 8 28
    endloop
  endfacet
  facet normal 0 0 1
    outer loop
      vertex 15 0.557957 28
      vertex 12 8 28
      vertex 12 0.557957 28
    endloop
  endfacet
  facet normal 1 0 0
    outer loop
      vertex 15 -8 3
      vertex 15 -1.44968 28
      vertex 15 -8 28
    endloop
  endfacet
  facet normal 1 0 0
    outer loop
      vertex 15 -1.44968 28
      vertex 15 -8 3
      vertex 15 0.737534 3
    endloop
  endfacet
  facet normal 1 0 0
    outer loop
      vertex 15 8 28
      vertex 15 2.74517 3
      vertex 15 8 3
    endloop
  endfacet
  facet normal 1 0 -0
    outer loop
      vertex 15 2.74517 3
      vertex 15 8 28
      vertex 15 0.557957 28
    endloop
  endfacet
  facet normal 0 -1 0
    outer loop
      vertex 12 -8 3
      vertex 15 -8 28
      vertex 12 -8 28
    endloop
  endfacet
  facet normal 0 -1 -0
    outer loop
      vertex 15 -8 28
      vertex 12 -8 3
      vertex 15 -8 3
    endloop
  endfacet
  facet normal 0 1 -0
    outer loop
      vertex 15 8 3
      vertex 12 8 28
      vertex 15 8 28
    endloop
  endfacet
  facet normal 0 1 0
    outer loop
      vertex 12 8 28
      vertex 15 8 3
      vertex 12 8 3
    endloop
  endfacet
  facet normal 0 -0.996195 -0.0871557
    outer loop
      vertex 12 2.74517 3
      vertex 15 0.557957 28
      vertex 12 0.557957 28
    endloop
  endfacet
  facet normal 0 -0.996195 -0.0871557
    outer loop
      vertex 15 0.557957 28
      vertex 12 2.74517 3
      vertex 15 2.74517 3
    endloop
  endfacet
  facet normal 0 0.996195 0.0871557
    outer loop
      vertex 15 0.737534 3
      vertex 12 -1.44968 28
      vertex 15 -1.44968 28
    endloop
  endfacet
  facet normal 0 0.996195 0.0871557
    outer loop
      vertex 12 -1.44968 28
      vertex 15 0.737534 3
      vertex 12 0.737534 3
    endloop
  endfacet
  facet normal -1 0 0
    outer loop
      vertex -15 -8 3
      vertex -15 8 28
      vertex -15 8 3
    endloop
  endfacet
  facet normal -1 -0 0
    outer loop
      vertex -15 8 28
      vertex -15 -8 3
      vertex -15 -8 28
    endloop
  endfacet
  facet normal -0 0 1
    outer loop
      vertex -15 8 28
      vertex -12 -8 28
      vertex -12 8 28
    endloop
  endfacet
  facet normal 0 0 1
    outer loop
      vertex -12 -8 28
      vertex -15 8 28
      vertex -15 -8 28
    endloop
  endfacet
  facet normal 1 -0 0
    outer loop
      vertex -12 -8 28
      vertex -12 8 3
      vertex -12 8 28
    endloop
  endfacet
  facet normal 1 0 0
    outer loop
      vertex -12 8 3
      vertex -12 -8 28
      vertex -12 -8 3
    endloop
  endfacet
  facet normal 0 1 -0
    outer loop
      vertex -12 8 3
      vertex -15 8 28
      vertex -12 8 28
    endloop
  endfacet
  facet normal 0 1 0
    outer loop
      vertex -15 8 28
      vertex -12 8 3
      vertex -15 8 3
    endloop
  endfacet
  facet normal 0 -1 0
    outer loop
      vertex -15 -8 3
      vertex -12 -8 28
      vertex -15 -8 28
    endloop
  endfacet
  facet normal 0 -1 -0
    outer loop
      vertex -12 -8 28
      vertex -15 -8 3
      vertex -12 -8 3
    endloop
  endfacet
endsolid OpenSCAD_Model
