solid OpenSCAD_Model
  facet normal -1 0 0
    outer loop
      vertex -12 -10 0
      vertex -12 10 3
      vertex -12 10 0
    endloop
  endfacet
  facet normal -1 -0 0
    outer loop
      vertex -12 10 3
      vertex -12 -10 0
      vertex -12 -10 3
    endloop
  endfacet
  facet normal 0 0 1
    outer loop
      vertex 15 10 3
      vertex 13.2 8.2 3
      vertex 15 -10 3
    endloop
  endfacet
  facet normal 0 0 1
    outer loop
      vertex 15 10 3
      vertex 9.8 8.2 3
      vertex 13.2 8.2 3
    endloop
  endfacet
  facet normal 0 0 1
    outer loop
      vertex 9.8 8.2 3
      vertex 5.2 0 3
      vertex 9.8 -8.2 3
    endloop
  endfacet
  facet normal 0 0 1
    outer loop
      vertex 9.8 8.2 3
      vertex 5.18974 0.32651 3
      vertex 5.2 0 3
    endloop
  endfacet
  facet normal 0 0 1
    outer loop
      vertex 9.8 8.2 3
      vertex 5.159 0.651732 3
      vertex 5.18974 0.32651 3
    endloop
  endfacet
  facet normal 0 0 1
    outer loop
      vertex 9.8 8.2 3
      vertex 5.10789 0.974382 3
      vertex 5.159 0.651732 3
    endloop
  endfacet
  facet normal 0 0 1
    outer loop
      vertex 9.8 8.2 3
      vertex 5.03663 1.29319 3
      vertex 5.10789 0.974382 3
    endloop
  endfacet
  facet normal 0 0 1
    outer loop
      vertex 9.8 8.2 3
      vertex 4.94549 1.60689 3
      vertex 5.03663 1.29319 3
    endloop
  endfacet
  facet normal 0 0 1
    outer loop
      vertex 9.8 8.2 3
      vertex 4.83484 1.91425 3
      vertex 4.94549 1.60689 3
    endloop
  endfacet
  facet normal 0 0 1
    outer loop
      vertex 9.8 8.2 3
      vertex 4.7051 2.21405 3
      vertex 4.83484 1.91425 3
    endloop
  endfacet
  facet normal 0 0 1
    outer loop
      vertex 9.8 8.2 3
      vertex 4.55679 2.50512 3
      vertex 4.7051 2.21405 3
    endloop
  endfacet
  facet normal 0 0 1
    outer loop
      vertex 9.8 8.2 3
      vertex 4.3905 2.7863 3
      vertex 4.55679 2.50512 3
    endloop
  endfacet
  facet normal 0 0 1
    outer loop
      vertex 9.8 8.2 3
      vertex 4.20689 3.05648 3
      vertex 4.3905 2.7863 3
    endloop
  endfacet
  facet normal 0 0 1
    outer loop
      vertex 9.8 8.2 3
      vertex 4.00667 3.3146 3
      vertex 4.20689 3.05648 3
    endloop
  endfacet
  facet normal 0 0 1
    outer loop
      vertex 9.8 8.2 3
      vertex 3.79064 3.55964 3
      vertex 4.00667 3.3146 3
    endloop
  endfacet
  facet normal 0 0 1
    outer loop
      vertex 9.8 8.2 3
      vertex 3.55964 3.79064 3
      vertex 3.79064 3.55964 3
    endloop
  endfacet
  facet normal 0 0 1
    outer loop
      vertex 9.8 8.2 3
      vertex 3.3146 4.00667 3
      vertex 3.55964 3.79064 3
    endloop
  endfacet
  facet normal 0 0 1
    outer loop
      vertex 9.8 8.2 3
      vertex 3.05648 4.20689 3
      vertex 3.3146 4.00667 3
    endloop
  endfacet
  facet normal 0 0 1
    outer loop
      vertex 9.8 8.2 3
      vertex 2.7863 4.3905 3
      vertex 3.05648 4.20689 3
    endloop
  endfacet
  facet normal 0 0 1
    outer loop
      vertex 9.8 8.2 3
      vertex 2.50512 4.55679 3
      vertex 2.7863 4.3905 3
    endloop
  endfacet
  facet normal 0 0 1
    outer loop
      vertex 9.8 8.2 3
      vertex 2.21405 4.7051 3
      vertex 2.50512 4.55679 3
    endloop
  endfacet
  facet normal 0 0 1
    outer loop
      vertex 9.8 8.2 3
      vertex 1.91425 4.83484 3
      vertex 2.21405 4.7051 3
    endloop
  endfacet
  facet normal 0 0 1
    outer loop
      vertex 9.8 8.2 3
      vertex 1.60689 4.94549 3
      vertex 1.91425 4.83484 3
    endloop
  endfacet
  facet normal 0 0 1
    outer loop
      vertex 9.8 8.2 3
      vertex 1.29319 5.03663 3
      vertex 1.60689 4.94549 3
    endloop
  endfacet
  facet normal 0 0 1
    outer loop
      vertex 9.8 8.2 3
      vertex 0.974382 5.10789 3
      vertex 1.29319 5.03663 3
    endloop
  endfacet
  facet normal 0 0 1
    outer loop
      vertex 9.8 8.2 3
      vertex 0.651732 5.159 3
      vertex 0.974382 5.10789 3
    endloop
  endfacet
  facet normal 0 0 1
    outer loop
      vertex -6.8 8.2 3
      vertex 9.8 8.2 3
      vertex 15 10 3
    endloop
  endfacet
  facet normal 0 -0 1
    outer loop
      vertex 0.32651 5.18974 3
      vertex 9.8 8.2 3
      vertex -6.8 8.2 3
    endloop
  endfacet
  facet normal 0 0 1
    outer loop
      vertex 9.8 8.2 3
      vertex 0.32651 5.18974 3
      vertex 0.651732 5.159 3
    endloop
  endfacet
  facet normal 0 0 1
    outer loop
      vertex 0.32651 5.18974 3
      vertex -6.8 8.2 3
      vertex 0 5.2 3
    endloop
  endfacet
  facet normal 0 0 1
    outer loop
      vertex 0 5.2 3
      vertex -6.8 8.2 3
      vertex -0.32651 5.18974 3
    endloop
  endfacet
  facet normal 0 0 1
    outer loop
      vertex -0.32651 5.18974 3
      vertex -6.8 8.2 3
      vertex -0.651732 5.159 3
    endloop
  endfacet
  facet normal 0 0 1
    outer loop
      vertex -0.651732 5.159 3
      vertex -6.8 8.2 3
      vertex -0.974382 5.10789 3
    endloop
  endfacet
  facet normal 0 0 1
    outer loop
      vertex -0.974382 5.10789 3
      vertex -6.8 8.2 3
      vertex -1.29319 5.03663 3
    endloop
  endfacet
  facet normal 0 0 1
    outer loop
      vertex -5.18974 0.32651 3
      vertex -6.8 8.2 3
      vertex -5.2 0 3
    endloop
  endfacet
  facet normal 0 0 1
    outer loop
      vertex -5.159 0.651732 3
      vertex -6.8 8.2 3
      vertex -5.18974 0.32651 3
    endloop
  endfacet
  facet normal 0 0 1
    outer loop
      vertex -5.10789 0.974382 3
      vertex -6.8 8.2 3
      vertex -5.159 0.651732 3
    endloop
  endfacet
  facet normal 0 0 1
    outer loop
      vertex -5.03663 1.29319 3
      vertex -6.8 8.2 3
      vertex -5.10789 0.974382 3
    endloop
  endfacet
  facet normal 0 0 1
    outer loop
      vertex -4.94549 1.60689 3
      vertex -6.8 8.2 3
      vertex -5.03663 1.29319 3
    endloop
  endfacet
  facet normal 0 0 1
    outer loop
      vertex -4.83484 1.91425 3
      vertex -6.8 8.2 3
      vertex -4.94549 1.60689 3
    endloop
  endfacet
  facet normal 0 0 1
    outer loop
      vertex -4.7051 2.21405 3
      vertex -6.8 8.2 3
      vertex -4.83484 1.91425 3
    endloop
  endfacet
  facet normal 0 0 1
    outer loop
      vertex -4.55679 2.50512 3
      vertex -6.8 8.2 3
      vertex -4.7051 2.21405 3
    endloop
  endfacet
  facet normal 0 0 1
    outer loop
      vertex -4.3905 2.7863 3
      vertex -6.8 8.2 3
      vertex -4.55679 2.50512 3
    endloop
  endfacet
  facet normal 0 0 1
    outer loop
      vertex -4.20689 3.05648 3
      vertex -6.8 8.2 3
      vertex -4.3905 2.7863 3
    endloop
  endfacet
  facet normal 0 0 1
    outer loop
      vertex -4.00667 3.3146 3
      vertex -6.8 8.2 3
      vertex -4.20689 3.05648 3
    endloop
  endfacet
  facet normal 0 0 1
    outer loop
      vertex -3.79064 3.55964 3
      vertex -6.8 8.2 3
      vertex -4.00667 3.3146 3
    endloop
  endfacet
  facet normal 0 0 1
    outer loop
      vertex -3.55964 3.79064 3
      vertex -6.8 8.2 3
      vertex -3.79064 3.55964 3
    endloop
  endfacet
  facet normal 0 0 1
    outer loop
      vertex -3.3146 4.00667 3
      vertex -6.8 8.2 3
      vertex -3.55964 3.79064 3
    endloop
  endfacet
  facet normal 0 0 1
    outer loop
      vertex -3.05648 4.20689 3
      vertex -6.8 8.2 3
      vertex -3.3146 4.00667 3
    endloop
  endfacet
  facet normal 0 0 1
    outer loop
      vertex -2.7863 4.3905 3
      vertex -6.8 8.2 3
      vertex -3.05648 4.20689 3
    endloop
  endfacet
  facet normal 0 0 1
    outer loop
      vertex -2.50512 4.55679 3
      vertex -6.8 8.2 3
      vertex -2.7863 4.3905 3
    endloop
  endfacet
  facet normal 0 0 1
    outer loop
      vertex -2.21405 4.7051 3
      vertex -6.8 8.2 3
      vertex -2.50512 4.55679 3
    endloop
  endfacet
  facet normal 0 0 1
    outer loop
      vertex -1.91425 4.83484 3
      vertex -6.8 8.2 3
      vertex -2.21405 4.7051 3
    endloop
  endfacet
  facet normal 0 0 1
    outer loop
      vertex -1.60689 4.94549 3
      vertex -6.8 8.2 3
      vertex -1.91425 4.83484 3
    endloop
  endfacet
  facet normal 0 0 1
    outer loop
      vertex -1.29319 5.03663 3
      vertex -6.8 8.2 3
      vertex -1.60689 4.94549 3
    endloop
  endfacet
  facet normal -0 0 1
    outer loop
      vertex -12 10 3
      vertex -6.8 8.2 3
      vertex 15 10 3
    endloop
  endfacet
  facet normal 0 0 1
    outer loop
      vertex -10.2 8.2 3
      vertex -12 10 3
      vertex -10.2 -8.2 3
    endloop
  endfacet
  facet normal 0 0 1
    outer loop
      vertex -6.8 8.2 3
      vertex -12 10 3
      vertex -10.2 8.2 3
    endloop
  endfacet
  facet normal -0 0 1
    outer loop
      vertex 13.2 -8.2 3
      vertex 15 -10 3
      vertex 13.2 8.2 3
    endloop
  endfacet
  facet normal -0 0 1
    outer loop
      vertex 9.8 -8.2 3
      vertex 15 -10 3
      vertex 13.2 -8.2 3
    endloop
  endfacet
  facet normal -0 0 1
    outer loop
      vertex 5.18974 -0.32651 3
      vertex 9.8 -8.2 3
      vertex 5.2 0 3
    endloop
  endfacet
  facet normal -0 0 1
    outer loop
      vertex 5.159 -0.651732 3
      vertex 9.8 -8.2 3
      vertex 5.18974 -0.32651 3
    endloop
  endfacet
  facet normal -0 0 1
    outer loop
      vertex 5.10789 -0.974382 3
      vertex 9.8 -8.2 3
      vertex 5.159 -0.651732 3
    endloop
  endfacet
  facet normal -0 0 1
    outer loop
      vertex 5.03663 -1.29319 3
      vertex 9.8 -8.2 3
      vertex 5.10789 -0.974382 3
    endloop
  endfacet
  facet normal -0 0 1
    outer loop
      vertex 4.94549 -1.60689 3
      vertex 9.8 -8.2 3
      vertex 5.03663 -1.29319 3
    endloop
  endfacet
  facet normal -0 0 1
    outer loop
      vertex 4.83484 -1.91425 3
      vertex 9.8 -8.2 3
      vertex 4.94549 -1.60689 3
    endloop
  endfacet
  facet normal -0 0 1
    outer loop
      vertex 4.7051 -2.21405 3
      vertex 9.8 -8.2 3
      vertex 4.83484 -1.91425 3
    endloop
  endfacet
  facet normal -0 0 1
    outer loop
      vertex 4.55679 -2.50512 3
      vertex 9.8 -8.2 3
      vertex 4.7051 -2.21405 3
    endloop
  endfacet
  facet normal -0 0 1
    outer loop
      vertex 4.3905 -2.7863 3
      vertex 9.8 -8.2 3
      vertex 4.55679 -2.50512 3
    endloop
  endfacet
  facet normal -0 0 1
    outer loop
      vertex 4.20689 -3.05648 3
      vertex 9.8 -8.2 3
      vertex 4.3905 -2.7863 3
    endloop
  endfacet
  facet normal -0 0 1
    outer loop
      vertex 4.00667 -3.3146 3
      vertex 9.8 -8.2 3
      vertex 4.20689 -3.05648 3
    endloop
  endfacet
  facet normal -0 0 1
    outer loop
      vertex 3.79064 -3.55964 3
      vertex 9.8 -8.2 3
      vertex 4.00667 -3.3146 3
    endloop
  endfacet
  facet normal -0 0 1
    outer loop
      vertex 3.55964 -3.79064 3
      vertex 9.8 -8.2 3
      vertex 3.79064 -3.55964 3
    endloop
  endfacet
  facet normal -0 0 1
    outer loop
      vertex 3.3146 -4.00667 3
      vertex 9.8 -8.2 3
      vertex 3.55964 -3.79064 3
    endloop
  endfacet
  facet normal -0 0 1
    outer loop
      vertex 3.05648 -4.20689 3
      vertex 9.8 -8.2 3
      vertex 3.3146 -4.00667 3
    endloop
  endfacet
  facet normal -0 0 1
    outer loop
      vertex 2.7863 -4.3905 3
      vertex 9.8 -8.2 3
      vertex 3.05648 -4.20689 3
    endloop
  endfacet
  facet normal -0 0 1
    outer loop
      vertex 2.50512 -4.55679 3
      vertex 9.8 -8.2 3
      vertex 2.7863 -4.3905 3
    endloop
  endfacet
  facet normal -0 0 1
    outer loop
      vertex 2.21405 -4.7051 3
      vertex 9.8 -8.2 3
      vertex 2.50512 -4.55679 3
    endloop
  endfacet
  facet normal -0 0 1
    outer loop
      vertex 1.91425 -4.83484 3
      vertex 9.8 -8.2 3
      vertex 2.21405 -4.7051 3
    endloop
  endfacet
  facet normal -0 0 1
    outer loop
      vertex 1.60689 -4.94549 3
      vertex 9.8 -8.2 3
      vertex 1.91425 -4.83484 3
    endloop
  endfacet
  facet normal -0 0 1
    outer loop
      vertex 1.29319 -5.03663 3
      vertex 9.8 -8.2 3
      vertex 1.60689 -4.94549 3
    endloop
  endfacet
  facet normal -0 0 1
    outer loop
      vertex 0.974382 -5.10789 3
      vertex 9.8 -8.2 3
      vertex 1.29319 -5.03663 3
    endloop
  endfacet
  facet normal -0 0 1
    outer loop
      vertex 0.651732 -5.159 3
      vertex 9.8 -8.2 3
      vertex 0.974382 -5.10789 3
    endloop
  endfacet
  facet normal -0 0 1
    outer loop
      vertex 0.32651 -5.18974 3
      vertex 9.8 -8.2 3
      vertex 0.651732 -5.159 3
    endloop
  endfacet
  facet normal 0 0 1
    outer loop
      vertex 9.8 -8.2 3
      vertex 0.32651 -5.18974 3
      vertex -6.8 -8.2 3
    endloop
  endfacet
  facet normal 0 0 1
    outer loop
      vertex -6.8 -8.2 3
      vertex 0.32651 -5.18974 3
      vertex 0 -5.2 3
    endloop
  endfacet
  facet normal 0 0 1
    outer loop
      vertex -6.8 -8.2 3
      vertex 0 -5.2 3
      vertex -0.32651 -5.18974 3
    endloop
  endfacet
  facet normal 0 0 1
    outer loop
      vertex -6.8 -8.2 3
      vertex -0.32651 -5.18974 3
      vertex -0.651732 -5.159 3
    endloop
  endfacet
  facet normal 0 0 1
    outer loop
      vertex -6.8 -8.2 3
      vertex -0.651732 -5.159 3
      vertex -0.974382 -5.10789 3
    endloop
  endfacet
  facet normal 0 0 1
    outer loop
      vertex -6.8 -8.2 3
      vertex -0.974382 -5.10789 3
      vertex -1.29319 -5.03663 3
    endloop
  endfacet
  facet normal 0 0 1
    outer loop
      vertex -6.8 -8.2 3
      vertex -1.29319 -5.03663 3
      vertex -1.60689 -4.94549 3
    endloop
  endfacet
  facet normal 0 0 1
    outer loop
      vertex -6.8 -8.2 3
      vertex -5.2 0 3
      vertex -6.8 8.2 3
    endloop
  endfacet
  facet normal 0 0 1
    outer loop
      vertex -5.2 0 3
      vertex -6.8 -8.2 3
      vertex -5.18974 -0.32651 3
    endloop
  endfacet
  facet normal 0 0 1
    outer loop
      vertex -5.18974 -0.32651 3
      vertex -6.8 -8.2 3
      vertex -5.159 -0.651732 3
    endloop
  endfacet
  facet normal 0 0 1
    outer loop
      vertex -5.159 -0.651732 3
      vertex -6.8 -8.2 3
      vertex -5.10789 -0.974382 3
    endloop
  endfacet
  facet normal 0 0 1
    outer loop
      vertex -6.8 -8.2 3
      vertex -5.03663 -1.29319 3
      vertex -5.10789 -0.974382 3
    endloop
  endfacet
  facet normal 0 0 1
    outer loop
      vertex -6.8 -8.2 3
      vertex -4.94549 -1.60689 3
      vertex -5.03663 -1.29319 3
    endloop
  endfacet
  facet normal 0 0 1
    outer loop
      vertex -6.8 -8.2 3
      vertex -4.83484 -1.91425 3
      vertex -4.94549 -1.60689 3
    endloop
  endfacet
  facet normal 0 0 1
    outer loop
      vertex -6.8 -8.2 3
      vertex -4.7051 -2.21405 3
      vertex -4.83484 -1.91425 3
    endloop
  endfacet
  facet normal 0 0 1
    outer loop
      vertex -6.8 -8.2 3
      vertex -4.55679 -2.50512 3
      vertex -4.7051 -2.21405 3
    endloop
  endfacet
  facet normal 0 0 1
    outer loop
      vertex -6.8 -8.2 3
      vertex -4.3905 -2.7863 3
      vertex -4.55679 -2.50512 3
    endloop
  endfacet
  facet normal 0 0 1
    outer loop
      vertex -6.8 -8.2 3
      vertex -4.20689 -3.05648 3
      vertex -4.3905 -2.7863 3
    endloop
  endfacet
  facet normal 0 0 1
    outer loop
      vertex -6.8 -8.2 3
      vertex -4.00667 -3.3146 3
      vertex -4.20689 -3.05648 3
    endloop
  endfacet
  facet normal 0 0 1
    outer loop
      vertex -6.8 -8.2 3
      vertex -3.79064 -3.55964 3
      vertex -4.00667 -3.3146 3
    endloop
  endfacet
  facet normal 0 0 1
    outer loop
      vertex -6.8 -8.2 3
      vertex -3.55964 -3.79064 3
      vertex -3.79064 -3.55964 3
    endloop
  endfacet
  facet normal 0 0 1
    outer loop
      vertex -6.8 -8.2 3
      vertex -3.3146 -4.00667 3
      vertex -3.55964 -3.79064 3
    endloop
  endfacet
  facet normal 0 0 1
    outer loop
      vertex -6.8 -8.2 3
      vertex -3.05648 -4.20689 3
      vertex -3.3146 -4.00667 3
    endloop
  endfacet
  facet normal 0 0 1
    outer loop
      vertex -6.8 -8.2 3
      vertex -2.7863 -4.3905 3
      vertex -3.05648 -4.20689 3
    endloop
  endfacet
  facet normal 0 0 1
    outer loop
      vertex -6.8 -8.2 3
      vertex -2.50512 -4.55679 3
      vertex -2.7863 -4.3905 3
    endloop
  endfacet
  facet normal 0 0 1
    outer loop
      vertex -6.8 -8.2 3
      vertex -2.21405 -4.7051 3
      vertex -2.50512 -4.55679 3
    endloop
  endfacet
  facet normal 0 0 1
    outer loop
      vertex -6.8 -8.2 3
      vertex -1.91425 -4.83484 3
      vertex -2.21405 -4.7051 3
    endloop
  endfacet
  facet normal 0 0 1
    outer loop
      vertex -6.8 -8.2 3
      vertex -1.60689 -4.94549 3
      vertex -1.91425 -4.83484 3
    endloop
  endfacet
  facet normal 0 0 1
    outer loop
      vertex 9.8 -8.2 3
      vertex -6.8 -8.2 3
      vertex 15 -10 3
    endloop
  endfacet
  facet normal 0 0 1
    outer loop
      vertex -12 -10 3
      vertex -6.8 -8.2 3
      vertex -10.2 -8.2 3
    endloop
  endfacet
  facet normal 0 0 1
    outer loop
      vertex -6.8 -8.2 3
      vertex -12 -10 3
      vertex 15 -10 3
    endloop
  endfacet
  facet normal 0 0 1
    outer loop
      vertex -12 -10 3
      vertex -10.2 -8.2 3
      vertex -12 10 3
    endloop
  endfacet
  facet normal 1 -0 0
    outer loop
      vertex 15 -10 3
      vertex 15 10 0
      vertex 15 10 3
    endloop
  endfacet
  facet normal 1 0 0
    outer loop
      vertex 15 10 0
      vertex 15 -10 3
      vertex 15 -10 0
    endloop
  endfacet
  facet normal 0 1 -0
    outer loop
      vertex 15 10 0
      vertex -12 10 3
      vertex 15 10 3
    endloop
  endfacet
  facet normal 0 1 0
    outer loop
      vertex -12 10 3
      vertex 15 10 0
      vertex -12 10 0
    endloop
  endfacet
  facet normal 0 0 -1
    outer loop
      vertex -12 -10 0
      vertex 15 10 0
      vertex 15 -10 0
    endloop
  endfacet
  facet normal -0 0 -1
    outer loop
      vertex 15 10 0
      vertex -12 -10 0
      vertex -12 10 0
    endloop
  endfacet
  facet normal 0 -1 0
    outer loop
      vertex -12 -10 0
      vertex 15 -10 3
      vertex -12 -10 3
    endloop
  endfacet
  facet normal 0 -1 -0
    outer loop
      vertex 15 -10 3
      vertex -12 -10 0
      vertex 15 -10 0
    endloop
  endfacet
  facet normal -0.999507 -0.0314124 0
    outer loop
      vertex 5.2 0 1
      vertex 5.18974 0.32651 3
      vertex 5.18974 0.32651 1
    endloop
  endfacet
  facet normal -0.999507 -0.0314124 0
    outer loop
      vertex 5.18974 0.32651 3
      vertex 5.2 0 1
      vertex 5.2 0 3
    endloop
  endfacet
  facet normal 0.999507 -0.0314124 0
    outer loop
      vertex -5.2 0 3
      vertex -5.18974 0.32651 1
      vertex -5.18974 0.32651 3
    endloop
  endfacet
  facet normal 0.999507 -0.0314124 0
    outer loop
      vertex -5.18974 0.32651 1
      vertex -5.2 0 3
      vertex -5.2 0 1
    endloop
  endfacet
  facet normal -0.0314124 -0.999507 0
    outer loop
      vertex 0 5.2 1
      vertex 0.32651 5.18974 3
      vertex 0 5.2 3
    endloop
  endfacet
  facet normal -0.0314124 -0.999507 -0
    outer loop
      vertex 0.32651 5.18974 3
      vertex 0 5.2 1
      vertex 0.32651 5.18974 1
    endloop
  endfacet
  facet normal 0.0314124 0.999507 -0
    outer loop
      vertex 0 -5.2 1
      vertex -0.32651 -5.18974 3
      vertex 0 -5.2 3
    endloop
  endfacet
  facet normal 0.0314124 0.999507 0
    outer loop
      vertex -0.32651 -5.18974 3
      vertex 0 -5.2 1
      vertex -0.32651 -5.18974 1
    endloop
  endfacet
  facet normal 0.750112 0.661311 0
    outer loop
      vertex -3.79064 -3.55964 3
      vertex -4.00667 -3.3146 1
      vertex -4.00667 -3.3146 3
    endloop
  endfacet
  facet normal 0.750112 0.661311 0
    outer loop
      vertex -4.00667 -3.3146 1
      vertex -3.79064 -3.55964 3
      vertex -3.79064 -3.55964 1
    endloop
  endfacet
  facet normal -0.707107 -0.707107 0
    outer loop
      vertex 3.79064 3.55964 1
      vertex 3.55964 3.79064 3
      vertex 3.55964 3.79064 1
    endloop
  endfacet
  facet normal -0.707107 -0.707107 0
    outer loop
      vertex 3.55964 3.79064 3
      vertex 3.79064 3.55964 1
      vertex 3.79064 3.55964 3
    endloop
  endfacet
  facet normal 0.661311 -0.750112 0
    outer loop
      vertex -3.55964 3.79064 1
      vertex -3.3146 4.00667 3
      vertex -3.55964 3.79064 3
    endloop
  endfacet
  facet normal 0.661311 -0.750112 0
    outer loop
      vertex -3.3146 4.00667 3
      vertex -3.55964 3.79064 1
      vertex -3.3146 4.00667 1
    endloop
  endfacet
  facet normal 0.338739 -0.94088 0
    outer loop
      vertex -1.91425 4.83484 1
      vertex -1.60689 4.94549 3
      vertex -1.91425 4.83484 3
    endloop
  endfacet
  facet normal 0.338739 -0.94088 0
    outer loop
      vertex -1.60689 4.94549 3
      vertex -1.91425 4.83484 1
      vertex -1.60689 4.94549 1
    endloop
  endfacet
  facet normal 0.94088 0.338739 0
    outer loop
      vertex -4.83484 -1.91425 3
      vertex -4.94549 -1.60689 1
      vertex -4.94549 -1.60689 3
    endloop
  endfacet
  facet normal 0.94088 0.338739 0
    outer loop
      vertex -4.94549 -1.60689 1
      vertex -4.83484 -1.91425 3
      vertex -4.83484 -1.91425 1
    endloop
  endfacet
  facet normal -0.917755 -0.397147 0
    outer loop
      vertex 4.83484 1.91425 1
      vertex 4.7051 2.21405 3
      vertex 4.7051 2.21405 1
    endloop
  endfacet
  facet normal -0.917755 -0.397147 0
    outer loop
      vertex 4.7051 2.21405 3
      vertex 4.83484 1.91425 1
      vertex 4.83484 1.91425 3
    endloop
  endfacet
  facet normal -0.397147 -0.917755 0
    outer loop
      vertex 1.91425 4.83484 1
      vertex 2.21405 4.7051 3
      vertex 1.91425 4.83484 3
    endloop
  endfacet
  facet normal -0.397147 -0.917755 -0
    outer loop
      vertex 2.21405 4.7051 3
      vertex 1.91425 4.83484 1
      vertex 2.21405 4.7051 1
    endloop
  endfacet
  facet normal -0.562082 -0.827081 0
    outer loop
      vertex 2.7863 4.3905 1
      vertex 3.05648 4.20689 3
      vertex 2.7863 4.3905 3
    endloop
  endfacet
  facet normal -0.562082 -0.827081 -0
    outer loop
      vertex 3.05648 4.20689 3
      vertex 2.7863 4.3905 1
      vertex 3.05648 4.20689 1
    endloop
  endfacet
  facet normal 0.891006 -0.453991 0
    outer loop
      vertex -4.7051 2.21405 3
      vertex -4.55679 2.50512 1
      vertex -4.55679 2.50512 3
    endloop
  endfacet
  facet normal 0.891006 -0.453991 0
    outer loop
      vertex -4.55679 2.50512 1
      vertex -4.7051 2.21405 3
      vertex -4.7051 2.21405 1
    endloop
  endfacet
  facet normal 0.156434 -0.987688 0
    outer loop
      vertex -0.974382 5.10789 1
      vertex -0.651732 5.159 3
      vertex -0.974382 5.10789 3
    endloop
  endfacet
  facet normal 0.156434 -0.987688 0
    outer loop
      vertex -0.651732 5.159 3
      vertex -0.974382 5.10789 1
      vertex -0.651732 5.159 1
    endloop
  endfacet
  facet normal -0.975917 -0.218144 0
    outer loop
      vertex 5.10789 0.974382 1
      vertex 5.03663 1.29319 3
      vertex 5.03663 1.29319 1
    endloop
  endfacet
  facet normal -0.975917 -0.218144 0
    outer loop
      vertex 5.03663 1.29319 3
      vertex 5.10789 0.974382 1
      vertex 5.10789 0.974382 3
    endloop
  endfacet
  facet normal -0.960294 -0.278989 0
    outer loop
      vertex 5.03663 1.29319 1
      vertex 4.94549 1.60689 3
      vertex 4.94549 1.60689 1
    endloop
  endfacet
  facet normal -0.960294 -0.278989 0
    outer loop
      vertex 4.94549 1.60689 3
      vertex 5.03663 1.29319 1
      vertex 5.03663 1.29319 3
    endloop
  endfacet
  facet normal -0.827081 -0.562082 0
    outer loop
      vertex 4.3905 2.7863 1
      vertex 4.20689 3.05648 3
      vertex 4.20689 3.05648 1
    endloop
  endfacet
  facet normal -0.827081 -0.562082 0
    outer loop
      vertex 4.20689 3.05648 3
      vertex 4.3905 2.7863 1
      vertex 4.3905 2.7863 3
    endloop
  endfacet
  facet normal -0.860742 -0.509041 0
    outer loop
      vertex 4.55679 2.50512 1
      vertex 4.3905 2.7863 3
      vertex 4.3905 2.7863 1
    endloop
  endfacet
  facet normal -0.860742 -0.509041 0
    outer loop
      vertex 4.3905 2.7863 3
      vertex 4.55679 2.50512 1
      vertex 4.55679 2.50512 3
    endloop
  endfacet
  facet normal -0.218144 -0.975917 0
    outer loop
      vertex 0.974382 5.10789 1
      vertex 1.29319 5.03663 3
      vertex 0.974382 5.10789 3
    endloop
  endfacet
  facet normal -0.218144 -0.975917 -0
    outer loop
      vertex 1.29319 5.03663 3
      vertex 0.974382 5.10789 1
      vertex 1.29319 5.03663 1
    endloop
  endfacet
  facet normal -0.338739 -0.94088 0
    outer loop
      vertex 1.60689 4.94549 1
      vertex 1.91425 4.83484 3
      vertex 1.60689 4.94549 3
    endloop
  endfacet
  facet normal -0.338739 -0.94088 -0
    outer loop
      vertex 1.91425 4.83484 3
      vertex 1.60689 4.94549 1
      vertex 1.91425 4.83484 1
    endloop
  endfacet
  facet normal -0.156434 -0.987688 0
    outer loop
      vertex 0.651732 5.159 1
      vertex 0.974382 5.10789 3
      vertex 0.651732 5.159 3
    endloop
  endfacet
  facet normal -0.156434 -0.987688 -0
    outer loop
      vertex 0.974382 5.10789 3
      vertex 0.651732 5.159 1
      vertex 0.974382 5.10789 1
    endloop
  endfacet
  facet normal -0.61291 -0.790153 0
    outer loop
      vertex 3.05648 4.20689 1
      vertex 3.3146 4.00667 3
      vertex 3.05648 4.20689 3
    endloop
  endfacet
  facet normal -0.61291 -0.790153 -0
    outer loop
      vertex 3.3146 4.00667 3
      vertex 3.05648 4.20689 1
      vertex 3.3146 4.00667 1
    endloop
  endfacet
  facet normal 0.975917 -0.218144 0
    outer loop
      vertex -5.10789 0.974382 3
      vertex -5.03663 1.29319 1
      vertex -5.03663 1.29319 3
    endloop
  endfacet
  facet normal 0.975917 -0.218144 0
    outer loop
      vertex -5.03663 1.29319 1
      vertex -5.10789 0.974382 3
      vertex -5.10789 0.974382 1
    endloop
  endfacet
  facet normal 0.790153 -0.61291 0
    outer loop
      vertex -4.20689 3.05648 3
      vertex -4.00667 3.3146 1
      vertex -4.00667 3.3146 3
    endloop
  endfacet
  facet normal 0.790153 -0.61291 0
    outer loop
      vertex -4.00667 3.3146 1
      vertex -4.20689 3.05648 3
      vertex -4.20689 3.05648 1
    endloop
  endfacet
  facet normal 0.707107 -0.707107 0
    outer loop
      vertex -3.79064 3.55964 3
      vertex -3.55964 3.79064 1
      vertex -3.55964 3.79064 3
    endloop
  endfacet
  facet normal 0.707107 -0.707107 0
    outer loop
      vertex -3.55964 3.79064 1
      vertex -3.79064 3.55964 3
      vertex -3.79064 3.55964 1
    endloop
  endfacet
  facet normal 0.827081 -0.562082 0
    outer loop
      vertex -4.3905 2.7863 3
      vertex -4.20689 3.05648 1
      vertex -4.20689 3.05648 3
    endloop
  endfacet
  facet normal 0.827081 -0.562082 0
    outer loop
      vertex -4.20689 3.05648 1
      vertex -4.3905 2.7863 3
      vertex -4.3905 2.7863 1
    endloop
  endfacet
  facet normal 0.987688 -0.156434 0
    outer loop
      vertex -5.159 0.651732 3
      vertex -5.10789 0.974382 1
      vertex -5.10789 0.974382 3
    endloop
  endfacet
  facet normal 0.987688 -0.156434 0
    outer loop
      vertex -5.10789 0.974382 1
      vertex -5.159 0.651732 3
      vertex -5.159 0.651732 1
    endloop
  endfacet
  facet normal 0.509041 -0.860742 0
    outer loop
      vertex -2.7863 4.3905 1
      vertex -2.50512 4.55679 3
      vertex -2.7863 4.3905 3
    endloop
  endfacet
  facet normal 0.509041 -0.860742 0
    outer loop
      vertex -2.50512 4.55679 3
      vertex -2.7863 4.3905 1
      vertex -2.50512 4.55679 1
    endloop
  endfacet
  facet normal 0.397147 -0.917755 0
    outer loop
      vertex -2.21405 4.7051 1
      vertex -1.91425 4.83484 3
      vertex -2.21405 4.7051 3
    endloop
  endfacet
  facet normal 0.397147 -0.917755 0
    outer loop
      vertex -1.91425 4.83484 3
      vertex -2.21405 4.7051 1
      vertex -1.91425 4.83484 1
    endloop
  endfacet
  facet normal 0.562082 -0.827081 0
    outer loop
      vertex -3.05648 4.20689 1
      vertex -2.7863 4.3905 3
      vertex -3.05648 4.20689 3
    endloop
  endfacet
  facet normal 0.562082 -0.827081 0
    outer loop
      vertex -2.7863 4.3905 3
      vertex -3.05648 4.20689 1
      vertex -2.7863 4.3905 1
    endloop
  endfacet
  facet normal 0.0941087 -0.995562 0
    outer loop
      vertex -0.651732 5.159 1
      vertex -0.32651 5.18974 3
      vertex -0.651732 5.159 3
    endloop
  endfacet
  facet normal 0.0941087 -0.995562 0
    outer loop
      vertex -0.32651 5.18974 3
      vertex -0.651732 5.159 1
      vertex -0.32651 5.18974 1
    endloop
  endfacet
  facet normal 0.61291 0.790153 -0
    outer loop
      vertex -3.05648 -4.20689 1
      vertex -3.3146 -4.00667 3
      vertex -3.05648 -4.20689 3
    endloop
  endfacet
  facet normal 0.61291 0.790153 0
    outer loop
      vertex -3.3146 -4.00667 3
      vertex -3.05648 -4.20689 1
      vertex -3.3146 -4.00667 1
    endloop
  endfacet
  facet normal 0.707107 0.707107 0
    outer loop
      vertex -3.55964 -3.79064 3
      vertex -3.79064 -3.55964 1
      vertex -3.79064 -3.55964 3
    endloop
  endfacet
  facet normal 0.707107 0.707107 0
    outer loop
      vertex -3.79064 -3.55964 1
      vertex -3.55964 -3.79064 3
      vertex -3.55964 -3.79064 1
    endloop
  endfacet
  facet normal 0.562082 0.827081 -0
    outer loop
      vertex -2.7863 -4.3905 1
      vertex -3.05648 -4.20689 3
      vertex -2.7863 -4.3905 3
    endloop
  endfacet
  facet normal 0.562082 0.827081 0
    outer loop
      vertex -3.05648 -4.20689 3
      vertex -2.7863 -4.3905 1
      vertex -3.05648 -4.20689 1
    endloop
  endfacet
  facet normal 0.156434 0.987688 -0
    outer loop
      vertex -0.651732 -5.159 1
      vertex -0.974382 -5.10789 3
      vertex -0.651732 -5.159 3
    endloop
  endfacet
  facet normal 0.156434 0.987688 0
    outer loop
      vertex -0.974382 -5.10789 3
      vertex -0.651732 -5.159 1
      vertex -0.974382 -5.10789 1
    endloop
  endfacet
  facet normal 0.860742 0.509041 0
    outer loop
      vertex -4.3905 -2.7863 3
      vertex -4.55679 -2.50512 1
      vertex -4.55679 -2.50512 3
    endloop
  endfacet
  facet normal 0.860742 0.509041 0
    outer loop
      vertex -4.55679 -2.50512 1
      vertex -4.3905 -2.7863 3
      vertex -4.3905 -2.7863 1
    endloop
  endfacet
  facet normal 0.917755 0.397147 0
    outer loop
      vertex -4.7051 -2.21405 3
      vertex -4.83484 -1.91425 1
      vertex -4.83484 -1.91425 3
    endloop
  endfacet
  facet normal 0.917755 0.397147 0
    outer loop
      vertex -4.83484 -1.91425 1
      vertex -4.7051 -2.21405 3
      vertex -4.7051 -2.21405 1
    endloop
  endfacet
  facet normal 0.827081 0.562082 0
    outer loop
      vertex -4.20689 -3.05648 3
      vertex -4.3905 -2.7863 1
      vertex -4.3905 -2.7863 3
    endloop
  endfacet
  facet normal 0.827081 0.562082 0
    outer loop
      vertex -4.3905 -2.7863 1
      vertex -4.20689 -3.05648 3
      vertex -4.20689 -3.05648 1
    endloop
  endfacet
  facet normal 0 0 1
    outer loop
      vertex 5.18974 0.32651 1
      vertex 5.18974 -0.32651 1
      vertex 5.2 0 1
    endloop
  endfacet
  facet normal 0 0 1
    outer loop
      vertex 5.159 0.651732 1
      vertex 5.18974 -0.32651 1
      vertex 5.18974 0.32651 1
    endloop
  endfacet
  facet normal 0 0 1
    outer loop
      vertex 5.159 0.651732 1
      vertex 5.159 -0.651732 1
      vertex 5.18974 -0.32651 1
    endloop
  endfacet
  facet normal 0 0 1
    outer loop
      vertex 5.10789 0.974382 1
      vertex 5.159 -0.651732 1
      vertex 5.159 0.651732 1
    endloop
  endfacet
  facet normal 0 0 1
    outer loop
      vertex 5.10789 0.974382 1
      vertex 5.10789 -0.974382 1
      vertex 5.159 -0.651732 1
    endloop
  endfacet
  facet normal 0 0 1
    outer loop
      vertex 5.03663 1.29319 1
      vertex 5.10789 -0.974382 1
      vertex 5.10789 0.974382 1
    endloop
  endfacet
  facet normal 0 0 1
    outer loop
      vertex 5.03663 1.29319 1
      vertex 5.03663 -1.29319 1
      vertex 5.10789 -0.974382 1
    endloop
  endfacet
  facet normal 0 0 1
    outer loop
      vertex 4.94549 1.60689 1
      vertex 5.03663 -1.29319 1
      vertex 5.03663 1.29319 1
    endloop
  endfacet
  facet normal 0 0 1
    outer loop
      vertex 4.94549 1.60689 1
      vertex 4.94549 -1.60689 1
      vertex 5.03663 -1.29319 1
    endloop
  endfacet
  facet normal 0 0 1
    outer loop
      vertex 4.83484 1.91425 1
      vertex 4.94549 -1.60689 1
      vertex 4.94549 1.60689 1
    endloop
  endfacet
  facet normal 0 0 1
    outer loop
      vertex 4.83484 1.91425 1
      vertex 4.83484 -1.91425 1
      vertex 4.94549 -1.60689 1
    endloop
  endfacet
  facet normal 0 0 1
    outer loop
      vertex 4.7051 2.21405 1
      vertex 4.83484 -1.91425 1
      vertex 4.83484 1.91425 1
    endloop
  endfacet
  facet normal 0 0 1
    outer loop
      vertex 4.7051 2.21405 1
      vertex 4.7051 -2.21405 1
      vertex 4.83484 -1.91425 1
    endloop
  endfacet
  facet normal 0 0 1
    outer loop
      vertex 4.55679 2.50512 1
      vertex 4.7051 -2.21405 1
      vertex 4.7051 2.21405 1
    endloop
  endfacet
  facet normal 0 0 1
    outer loop
      vertex 4.55679 2.50512 1
      vertex 4.55679 -2.50512 1
      vertex 4.7051 -2.21405 1
    endloop
  endfacet
  facet normal 0 0 1
    outer loop
      vertex 4.3905 2.7863 1
      vertex 4.55679 -2.50512 1
      vertex 4.55679 2.50512 1
    endloop
  endfacet
  facet normal 0 0 1
    outer loop
      vertex 4.3905 2.7863 1
      vertex 4.3905 -2.7863 1
      vertex 4.55679 -2.50512 1
    endloop
  endfacet
  facet normal 0 0 1
    outer loop
      vertex 4.20689 3.05648 1
      vertex 4.3905 -2.7863 1
      vertex 4.3905 2.7863 1
    endloop
  endfacet
  facet normal 0 0 1
    outer loop
      vertex 4.20689 3.05648 1
      vertex 4.20689 -3.05648 1
      vertex 4.3905 -2.7863 1
    endloop
  endfacet
  facet normal 0 0 1
    outer loop
      vertex 4.00667 3.3146 1
      vertex 4.20689 -3.05648 1
      vertex 4.20689 3.05648 1
    endloop
  endfacet
  facet normal 0 0 1
    outer loop
      vertex 4.00667 3.3146 1
      vertex 4.00667 -3.3146 1
      vertex 4.20689 -3.05648 1
    endloop
  endfacet
  facet normal 0 0 1
    outer loop
      vertex 3.79064 3.55964 1
      vertex 4.00667 -3.3146 1
      vertex 4.00667 3.3146 1
    endloop
  endfacet
  facet normal 0 0 1
    outer loop
      vertex 3.79064 3.55964 1
      vertex 3.79064 -3.55964 1
      vertex 4.00667 -3.3146 1
    endloop
  endfacet
  facet normal 0 0 1
    outer loop
      vertex 3.55964 3.79064 1
      vertex 3.79064 -3.55964 1
      vertex 3.79064 3.55964 1
    endloop
  endfacet
  facet normal 0 0 1
    outer loop
      vertex 3.55964 3.79064 1
      vertex 3.55964 -3.79064 1
      vertex 3.79064 -3.55964 1
    endloop
  endfacet
  facet normal 0 0 1
    outer loop
      vertex 3.3146 4.00667 1
      vertex 3.55964 -3.79064 1
      vertex 3.55964 3.79064 1
    endloop
  endfacet
  facet normal 0 0 1
    outer loop
      vertex 3.3146 4.00667 1
      vertex 3.3146 -4.00667 1
      vertex 3.55964 -3.79064 1
    endloop
  endfacet
  facet normal 0 0 1
    outer loop
      vertex 3.05648 4.20689 1
      vertex 3.3146 -4.00667 1
      vertex 3.3146 4.00667 1
    endloop
  endfacet
  facet normal 0 0 1
    outer loop
      vertex 3.05648 4.20689 1
      vertex 3.05648 -4.20689 1
      vertex 3.3146 -4.00667 1
    endloop
  endfacet
  facet normal 0 0 1
    outer loop
      vertex 2.7863 4.3905 1
      vertex 3.05648 -4.20689 1
      vertex 3.05648 4.20689 1
    endloop
  endfacet
  facet normal 0 0 1
    outer loop
      vertex 2.7863 4.3905 1
      vertex 2.7863 -4.3905 1
      vertex 3.05648 -4.20689 1
    endloop
  endfacet
  facet normal 0 0 1
    outer loop
      vertex 2.50512 4.55679 1
      vertex 2.7863 -4.3905 1
      vertex 2.7863 4.3905 1
    endloop
  endfacet
  facet normal 0 0 1
    outer loop
      vertex 2.50512 4.55679 1
      vertex 2.50512 -4.55679 1
      vertex 2.7863 -4.3905 1
    endloop
  endfacet
  facet normal 0 0 1
    outer loop
      vertex 2.21405 4.7051 1
      vertex 2.50512 -4.55679 1
      vertex 2.50512 4.55679 1
    endloop
  endfacet
  facet normal 0 0 1
    outer loop
      vertex 2.21405 4.7051 1
      vertex 2.21405 -4.7051 1
      vertex 2.50512 -4.55679 1
    endloop
  endfacet
  facet normal 0 0 1
    outer loop
      vertex 1.91425 4.83484 1
      vertex 2.21405 -4.7051 1
      vertex 2.21405 4.7051 1
    endloop
  endfacet
  facet normal 0 0 1
    outer loop
      vertex 1.91425 4.83484 1
      vertex 1.91425 -4.83484 1
      vertex 2.21405 -4.7051 1
    endloop
  endfacet
  facet normal 0 0 1
    outer loop
      vertex 1.60689 4.94549 1
      vertex 1.91425 -4.83484 1
      vertex 1.91425 4.83484 1
    endloop
  endfacet
  facet normal 0 0 1
    outer loop
      vertex 1.60689 4.94549 1
      vertex 1.60689 -4.94549 1
      vertex 1.91425 -4.83484 1
    endloop
  endfacet
  facet normal 0 0 1
    outer loop
      vertex 1.29319 5.03663 1
      vertex 1.60689 -4.94549 1
      vertex 1.60689 4.94549 1
    endloop
  endfacet
  facet normal 0 0 1
    outer loop
      vertex 1.29319 5.03663 1
      vertex 1.29319 -5.03663 1
      vertex 1.60689 -4.94549 1
    endloop
  endfacet
  facet normal 0 0 1
    outer loop
      vertex 0.974382 5.10789 1
      vertex 1.29319 -5.03663 1
      vertex 1.29319 5.03663 1
    endloop
  endfacet
  facet normal 0 0 1
    outer loop
      vertex 0.974382 5.10789 1
      vertex 0.974382 -5.10789 1
      vertex 1.29319 -5.03663 1
    endloop
  endfacet
  facet normal 0 0 1
    outer loop
      vertex 0.651732 5.159 1
      vertex 0.974382 -5.10789 1
      vertex 0.974382 5.10789 1
    endloop
  endfacet
  facet normal 0 0 1
    outer loop
      vertex 0.651732 5.159 1
      vertex 0.651732 -5.159 1
      vertex 0.974382 -5.10789 1
    endloop
  endfacet
  facet normal 0 0 1
    outer loop
      vertex 0.32651 5.18974 1
      vertex 0.651732 -5.159 1
      vertex 0.651732 5.159 1
    endloop
  endfacet
  facet normal 0 0 1
    outer loop
      vertex 0.32651 5.18974 1
      vertex 0.32651 -5.18974 1
      vertex 0.651732 -5.159 1
    endloop
  endfacet
  facet normal 0 0 1
    outer loop
      vertex 0 5.2 1
      vertex 0.32651 -5.18974 1
      vertex 0.32651 5.18974 1
    endloop
  endfacet
  facet normal 0 0 1
    outer loop
      vertex 0 5.2 1
      vertex 0 -5.2 1
      vertex 0.32651 -5.18974 1
    endloop
  endfacet
  facet normal -0 0 1
    outer loop
      vertex -0.32651 5.18974 1
      vertex 0 -5.2 1
      vertex 0 5.2 1
    endloop
  endfacet
  facet normal 0 0 1
    outer loop
      vertex -0.32651 5.18974 1
      vertex -0.32651 -5.18974 1
      vertex 0 -5.2 1
    endloop
  endfacet
  facet normal -0 0 1
    outer loop
      vertex -0.651732 5.159 1
      vertex -0.32651 -5.18974 1
      vertex -0.32651 5.18974 1
    endloop
  endfacet
  facet normal 0 0 1
    outer loop
      vertex -0.651732 5.159 1
      vertex -0.651732 -5.159 1
      vertex -0.32651 -5.18974 1
    endloop
  endfacet
  facet normal -0 0 1
    outer loop
      vertex -0.974382 5.10789 1
      vertex -0.651732 -5.159 1
      vertex -0.651732 5.159 1
    endloop
  endfacet
  facet normal 0 0 1
    outer loop
      vertex -0.974382 5.10789 1
      vertex -0.974382 -5.10789 1
      vertex -0.651732 -5.159 1
    endloop
  endfacet
  facet normal -0 0 1
    outer loop
      vertex -1.29319 5.03663 1
      vertex -0.974382 -5.10789 1
      vertex -0.974382 5.10789 1
    endloop
  endfacet
  facet normal 0 0 1
    outer loop
      vertex -1.29319 5.03663 1
      vertex -1.29319 -5.03663 1
      vertex -0.974382 -5.10789 1
    endloop
  endfacet
  facet normal -0 0 1
    outer loop
      vertex -1.60689 4.94549 1
      vertex -1.29319 -5.03663 1
      vertex -1.29319 5.03663 1
    endloop
  endfacet
  facet normal 0 0 1
    outer loop
      vertex -1.60689 4.94549 1
      vertex -1.60689 -4.94549 1
      vertex -1.29319 -5.03663 1
    endloop
  endfacet
  facet normal -0 0 1
    outer loop
      vertex -1.91425 4.83484 1
      vertex -1.60689 -4.94549 1
      vertex -1.60689 4.94549 1
    endloop
  endfacet
  facet normal 0 0 1
    outer loop
      vertex -1.91425 4.83484 1
      vertex -1.91425 -4.83484 1
      vertex -1.60689 -4.94549 1
    endloop
  endfacet
  facet normal -0 0 1
    outer loop
      vertex -2.21405 4.7051 1
      vertex -1.91425 -4.83484 1
      vertex -1.91425 4.83484 1
    endloop
  endfacet
  facet normal 0 0 1
    outer loop
      vertex -2.21405 4.7051 1
      vertex -2.21405 -4.7051 1
      vertex -1.91425 -4.83484 1
    endloop
  endfacet
  facet normal -0 0 1
    outer loop
      vertex -2.50512 4.55679 1
      vertex -2.21405 -4.7051 1
      vertex -2.21405 4.7051 1
    endloop
  endfacet
  facet normal 0 0 1
    outer loop
      vertex -2.50512 4.55679 1
      vertex -2.50512 -4.55679 1
      vertex -2.21405 -4.7051 1
    endloop
  endfacet
  facet normal -0 0 1
    outer loop
      vertex -2.7863 4.3905 1
      vertex -2.50512 -4.55679 1
      vertex -2.50512 4.55679 1
    endloop
  endfacet
  facet normal 0 0 1
    outer loop
      vertex -2.7863 4.3905 1
      vertex -2.7863 -4.3905 1
      vertex -2.50512 -4.55679 1
    endloop
  endfacet
  facet normal -0 0 1
    outer loop
      vertex -3.05648 4.20689 1
      vertex -2.7863 -4.3905 1
      vertex -2.7863 4.3905 1
    endloop
  endfacet
  facet normal 0 0 1
    outer loop
      vertex -3.05648 4.20689 1
      vertex -3.05648 -4.20689 1
      vertex -2.7863 -4.3905 1
    endloop
  endfacet
  facet normal -0 0 1
    outer loop
      vertex -3.3146 4.00667 1
      vertex -3.05648 -4.20689 1
      vertex -3.05648 4.20689 1
    endloop
  endfacet
  facet normal 0 0 1
    outer loop
      vertex -3.3146 4.00667 1
      vertex -3.3146 -4.00667 1
      vertex -3.05648 -4.20689 1
    endloop
  endfacet
  facet normal -0 0 1
    outer loop
      vertex -3.55964 3.79064 1
      vertex -3.3146 -4.00667 1
      vertex -3.3146 4.00667 1
    endloop
  endfacet
  facet normal 0 0 1
    outer loop
      vertex -3.55964 3.79064 1
      vertex -3.55964 -3.79064 1
      vertex -3.3146 -4.00667 1
    endloop
  endfacet
  facet normal -0 0 1
    outer loop
      vertex -3.79064 3.55964 1
      vertex -3.55964 -3.79064 1
      vertex -3.55964 3.79064 1
    endloop
  endfacet
  facet normal 0 0 1
    outer loop
      vertex -3.79064 3.55964 1
      vertex -3.79064 -3.55964 1
      vertex -3.55964 -3.79064 1
    endloop
  endfacet
  facet normal -0 0 1
    outer loop
      vertex -4.00667 3.3146 1
      vertex -3.79064 -3.55964 1
      vertex -3.79064 3.55964 1
    endloop
  endfacet
  facet normal 0 0 1
    outer loop
      vertex -4.00667 3.3146 1
      vertex -4.00667 -3.3146 1
      vertex -3.79064 -3.55964 1
    endloop
  endfacet
  facet normal -0 0 1
    outer loop
      vertex -4.20689 3.05648 1
      vertex -4.00667 -3.3146 1
      vertex -4.00667 3.3146 1
    endloop
  endfacet
  facet normal 0 0 1
    outer loop
      vertex -4.20689 3.05648 1
      vertex -4.20689 -3.05648 1
      vertex -4.00667 -3.3146 1
    endloop
  endfacet
  facet normal -0 0 1
    outer loop
      vertex -4.3905 2.7863 1
      vertex -4.20689 -3.05648 1
      vertex -4.20689 3.05648 1
    endloop
  endfacet
  facet normal 0 0 1
    outer loop
      vertex -4.3905 2.7863 1
      vertex -4.3905 -2.7863 1
      vertex -4.20689 -3.05648 1
    endloop
  endfacet
  facet normal -0 0 1
    outer loop
      vertex -4.55679 2.50512 1
      vertex -4.3905 -2.7863 1
      vertex -4.3905 2.7863 1
    endloop
  endfacet
  facet normal 0 0 1
    outer loop
      vertex -4.55679 2.50512 1
      vertex -4.55679 -2.50512 1
      vertex -4.3905 -2.7863 1
    endloop
  endfacet
  facet normal -0 0 1
    outer loop
      vertex -4.7051 2.21405 1
      vertex -4.55679 -2.50512 1
      vertex -4.55679 2.50512 1
    endloop
  endfacet
  facet normal 0 0 1
    outer loop
      vertex -4.7051 2.21405 1
      vertex -4.7051 -2.21405 1
      vertex -4.55679 -2.50512 1
    endloop
  endfacet
  facet normal -0 0 1
    outer loop
      vertex -4.83484 1.91425 1
      vertex -4.7051 -2.21405 1
      vertex -4.7051 2.21405 1
    endloop
  endfacet
  facet normal 0 0 1
    outer loop
      vertex -4.83484 1.91425 1
      vertex -4.83484 -1.91425 1
      vertex -4.7051 -2.21405 1
    endloop
  endfacet
  facet normal -0 0 1
    outer loop
      vertex -4.94549 1.60689 1
      vertex -4.83484 -1.91425 1
      vertex -4.83484 1.91425 1
    endloop
  endfacet
  facet normal 0 0 1
    outer loop
      vertex -4.94549 1.60689 1
      vertex -4.94549 -1.60689 1
      vertex -4.83484 -1.91425 1
    endloop
  endfacet
  facet normal -0 0 1
    outer loop
      vertex -5.03663 1.29319 1
      vertex -4.94549 -1.60689 1
      vertex -4.94549 1.60689 1
    endloop
  endfacet
  facet normal 0 0 1
    outer loop
      vertex -5.03663 1.29319 1
      vertex -5.03663 -1.29319 1
      vertex -4.94549 -1.60689 1
    endloop
  endfacet
  facet normal -0 0 1
    outer loop
      vertex -5.10789 0.974382 1
      vertex -5.03663 -1.29319 1
      vertex -5.03663 1.29319 1
    endloop
  endfacet
  facet normal 0 0 1
    outer loop
      vertex -5.10789 0.974382 1
      vertex -5.10789 -0.974382 1
      vertex -5.03663 -1.29319 1
    endloop
  endfacet
  facet normal -0 0 1
    outer loop
      vertex -5.159 0.651732 1
      vertex -5.10789 -0.974382 1
      vertex -5.10789 0.974382 1
    endloop
  endfacet
  facet normal 0 0 1
    outer loop
      vertex -5.159 0.651732 1
      vertex -5.159 -0.651732 1
      vertex -5.10789 -0.974382 1
    endloop
  endfacet
  facet normal -0 0 1
    outer loop
      vertex -5.18974 0.32651 1
      vertex -5.159 -0.651732 1
      vertex -5.159 0.651732 1
    endloop
  endfacet
  facet normal 0 0 1
    outer loop
      vertex -5.18974 0.32651 1
      vertex -5.18974 -0.32651 1
      vertex -5.159 -0.651732 1
    endloop
  endfacet
  facet normal 0 -0 1
    outer loop
      vertex -5.18974 -0.32651 1
      vertex -5.18974 0.32651 1
      vertex -5.2 0 1
    endloop
  endfacet
  facet normal -0.987688 -0.156434 0
    outer loop
      vertex 5.159 0.651732 1
      vertex 5.10789 0.974382 3
      vertex 5.10789 0.974382 1
    endloop
  endfacet
  facet normal -0.987688 -0.156434 0
    outer loop
      vertex 5.10789 0.974382 3
      vertex 5.159 0.651732 1
      vertex 5.159 0.651732 3
    endloop
  endfacet
  facet normal -0.995562 -0.0941087 0
    outer loop
      vertex 5.18974 0.32651 1
      vertex 5.159 0.651732 3
      vertex 5.159 0.651732 1
    endloop
  endfacet
  facet normal -0.995562 -0.0941087 0
    outer loop
      vertex 5.159 0.651732 3
      vertex 5.18974 0.32651 1
      vertex 5.18974 0.32651 3
    endloop
  endfacet
  facet normal -0.94088 -0.338739 0
    outer loop
      vertex 4.94549 1.60689 1
      vertex 4.83484 1.91425 3
      vertex 4.83484 1.91425 1
    endloop
  endfacet
  facet normal -0.94088 -0.338739 0
    outer loop
      vertex 4.83484 1.91425 3
      vertex 4.94549 1.60689 1
      vertex 4.94549 1.60689 3
    endloop
  endfacet
  facet normal -0.790153 -0.61291 0
    outer loop
      vertex 4.20689 3.05648 1
      vertex 4.00667 3.3146 3
      vertex 4.00667 3.3146 1
    endloop
  endfacet
  facet normal -0.790153 -0.61291 0
    outer loop
      vertex 4.00667 3.3146 3
      vertex 4.20689 3.05648 1
      vertex 4.20689 3.05648 3
    endloop
  endfacet
  facet normal -0.750112 -0.661311 0
    outer loop
      vertex 4.00667 3.3146 1
      vertex 3.79064 3.55964 3
      vertex 3.79064 3.55964 1
    endloop
  endfacet
  facet normal -0.750112 -0.661311 0
    outer loop
      vertex 3.79064 3.55964 3
      vertex 4.00667 3.3146 1
      vertex 4.00667 3.3146 3
    endloop
  endfacet
  facet normal -0.891006 -0.453991 0
    outer loop
      vertex 4.7051 2.21405 1
      vertex 4.55679 2.50512 3
      vertex 4.55679 2.50512 1
    endloop
  endfacet
  facet normal -0.891006 -0.453991 0
    outer loop
      vertex 4.55679 2.50512 3
      vertex 4.7051 2.21405 1
      vertex 4.7051 2.21405 3
    endloop
  endfacet
  facet normal -0.278989 -0.960294 0
    outer loop
      vertex 1.29319 5.03663 1
      vertex 1.60689 4.94549 3
      vertex 1.29319 5.03663 3
    endloop
  endfacet
  facet normal -0.278989 -0.960294 -0
    outer loop
      vertex 1.60689 4.94549 3
      vertex 1.29319 5.03663 1
      vertex 1.60689 4.94549 1
    endloop
  endfacet
  facet normal -0.0941087 -0.995562 0
    outer loop
      vertex 0.32651 5.18974 1
      vertex 0.651732 5.159 3
      vertex 0.32651 5.18974 3
    endloop
  endfacet
  facet normal -0.0941087 -0.995562 -0
    outer loop
      vertex 0.651732 5.159 3
      vertex 0.32651 5.18974 1
      vertex 0.651732 5.159 1
    endloop
  endfacet
  facet normal -0.509041 -0.860742 0
    outer loop
      vertex 2.50512 4.55679 1
      vertex 2.7863 4.3905 3
      vertex 2.50512 4.55679 3
    endloop
  endfacet
  facet normal -0.509041 -0.860742 -0
    outer loop
      vertex 2.7863 4.3905 3
      vertex 2.50512 4.55679 1
      vertex 2.7863 4.3905 1
    endloop
  endfacet
  facet normal -0.453991 -0.891006 0
    outer loop
      vertex 2.21405 4.7051 1
      vertex 2.50512 4.55679 3
      vertex 2.21405 4.7051 3
    endloop
  endfacet
  facet normal -0.453991 -0.891006 -0
    outer loop
      vertex 2.50512 4.55679 3
      vertex 2.21405 4.7051 1
      vertex 2.50512 4.55679 1
    endloop
  endfacet
  facet normal -0.661311 -0.750112 0
    outer loop
      vertex 3.3146 4.00667 1
      vertex 3.55964 3.79064 3
      vertex 3.3146 4.00667 3
    endloop
  endfacet
  facet normal -0.661311 -0.750112 -0
    outer loop
      vertex 3.55964 3.79064 3
      vertex 3.3146 4.00667 1
      vertex 3.55964 3.79064 1
    endloop
  endfacet
  facet normal 0.750112 -0.661311 0
    outer loop
      vertex -4.00667 3.3146 3
      vertex -3.79064 3.55964 1
      vertex -3.79064 3.55964 3
    endloop
  endfacet
  facet normal 0.750112 -0.661311 0
    outer loop
      vertex -3.79064 3.55964 1
      vertex -4.00667 3.3146 3
      vertex -4.00667 3.3146 1
    endloop
  endfacet
  facet normal 0.860742 -0.509041 0
    outer loop
      vertex -4.55679 2.50512 3
      vertex -4.3905 2.7863 1
      vertex -4.3905 2.7863 3
    endloop
  endfacet
  facet normal 0.860742 -0.509041 0
    outer loop
      vertex -4.3905 2.7863 1
      vertex -4.55679 2.50512 3
      vertex -4.55679 2.50512 1
    endloop
  endfacet
  facet normal 0.94088 -0.338739 0
    outer loop
      vertex -4.94549 1.60689 3
      vertex -4.83484 1.91425 1
      vertex -4.83484 1.91425 3
    endloop
  endfacet
  facet normal 0.94088 -0.338739 0
    outer loop
      vertex -4.83484 1.91425 1
      vertex -4.94549 1.60689 3
      vertex -4.94549 1.60689 1
    endloop
  endfacet
  facet normal 0.917755 -0.397147 0
    outer loop
      vertex -4.83484 1.91425 3
      vertex -4.7051 2.21405 1
      vertex -4.7051 2.21405 3
    endloop
  endfacet
  facet normal 0.917755 -0.397147 0
    outer loop
      vertex -4.7051 2.21405 1
      vertex -4.83484 1.91425 3
      vertex -4.83484 1.91425 1
    endloop
  endfacet
  facet normal 0.960294 -0.278989 0
    outer loop
      vertex -5.03663 1.29319 3
      vertex -4.94549 1.60689 1
      vertex -4.94549 1.60689 3
    endloop
  endfacet
  facet normal 0.960294 -0.278989 0
    outer loop
      vertex -4.94549 1.60689 1
      vertex -5.03663 1.29319 3
      vertex -5.03663 1.29319 1
    endloop
  endfacet
  facet normal 0.995562 -0.0941087 0
    outer loop
      vertex -5.18974 0.32651 3
      vertex -5.159 0.651732 1
      vertex -5.159 0.651732 3
    endloop
  endfacet
  facet normal 0.995562 -0.0941087 0
    outer loop
      vertex -5.159 0.651732 1
      vertex -5.18974 0.32651 3
      vertex -5.18974 0.32651 1
    endloop
  endfacet
  facet normal 0.453991 -0.891006 0
    outer loop
      vertex -2.50512 4.55679 1
      vertex -2.21405 4.7051 3
      vertex -2.50512 4.55679 3
    endloop
  endfacet
  facet normal 0.453991 -0.891006 0
    outer loop
      vertex -2.21405 4.7051 3
      vertex -2.50512 4.55679 1
      vertex -2.21405 4.7051 1
    endloop
  endfacet
  facet normal 0.61291 -0.790153 0
    outer loop
      vertex -3.3146 4.00667 1
      vertex -3.05648 4.20689 3
      vertex -3.3146 4.00667 3
    endloop
  endfacet
  facet normal 0.61291 -0.790153 0
    outer loop
      vertex -3.05648 4.20689 3
      vertex -3.3146 4.00667 1
      vertex -3.05648 4.20689 1
    endloop
  endfacet
  facet normal 0.218144 -0.975917 0
    outer loop
      vertex -1.29319 5.03663 1
      vertex -0.974382 5.10789 3
      vertex -1.29319 5.03663 3
    endloop
  endfacet
  facet normal 0.218144 -0.975917 0
    outer loop
      vertex -0.974382 5.10789 3
      vertex -1.29319 5.03663 1
      vertex -0.974382 5.10789 1
    endloop
  endfacet
  facet normal 0.278989 -0.960294 0
    outer loop
      vertex -1.60689 4.94549 1
      vertex -1.29319 5.03663 3
      vertex -1.60689 4.94549 3
    endloop
  endfacet
  facet normal 0.278989 -0.960294 0
    outer loop
      vertex -1.29319 5.03663 3
      vertex -1.60689 4.94549 1
      vertex -1.29319 5.03663 1
    endloop
  endfacet
  facet normal 0.0314124 -0.999507 0
    outer loop
      vertex -0.32651 5.18974 1
      vertex 0 5.2 3
      vertex -0.32651 5.18974 3
    endloop
  endfacet
  facet normal 0.0314124 -0.999507 0
    outer loop
      vertex 0 5.2 3
      vertex -0.32651 5.18974 1
      vertex 0 5.2 1
    endloop
  endfacet
  facet normal -0.999507 0.0314124 0
    outer loop
      vertex 5.18974 -0.32651 1
      vertex 5.2 0 3
      vertex 5.2 0 1
    endloop
  endfacet
  facet normal -0.999507 0.0314124 0
    outer loop
      vertex 5.2 0 3
      vertex 5.18974 -0.32651 1
      vertex 5.18974 -0.32651 3
    endloop
  endfacet
  facet normal -0.0314124 0.999507 0
    outer loop
      vertex 0.32651 -5.18974 1
      vertex 0 -5.2 3
      vertex 0.32651 -5.18974 3
    endloop
  endfacet
  facet normal -0.0314124 0.999507 0
    outer loop
      vertex 0 -5.2 3
      vertex 0.32651 -5.18974 1
      vertex 0 -5.2 1
    endloop
  endfacet
  facet normal -0.156434 0.987688 0
    outer loop
      vertex 0.974382 -5.10789 1
      vertex 0.651732 -5.159 3
      vertex 0.974382 -5.10789 3
    endloop
  endfacet
  facet normal -0.156434 0.987688 0
    outer loop
      vertex 0.651732 -5.159 3
      vertex 0.974382 -5.10789 1
      vertex 0.651732 -5.159 1
    endloop
  endfacet
  facet normal -0.338739 0.94088 0
    outer loop
      vertex 1.91425 -4.83484 1
      vertex 1.60689 -4.94549 3
      vertex 1.91425 -4.83484 3
    endloop
  endfacet
  facet normal -0.338739 0.94088 0
    outer loop
      vertex 1.60689 -4.94549 3
      vertex 1.91425 -4.83484 1
      vertex 1.60689 -4.94549 1
    endloop
  endfacet
  facet normal -0.218144 0.975917 0
    outer loop
      vertex 1.29319 -5.03663 1
      vertex 0.974382 -5.10789 3
      vertex 1.29319 -5.03663 3
    endloop
  endfacet
  facet normal -0.218144 0.975917 0
    outer loop
      vertex 0.974382 -5.10789 3
      vertex 1.29319 -5.03663 1
      vertex 0.974382 -5.10789 1
    endloop
  endfacet
  facet normal -0.61291 0.790153 0
    outer loop
      vertex 3.3146 -4.00667 1
      vertex 3.05648 -4.20689 3
      vertex 3.3146 -4.00667 3
    endloop
  endfacet
  facet normal -0.61291 0.790153 0
    outer loop
      vertex 3.05648 -4.20689 3
      vertex 3.3146 -4.00667 1
      vertex 3.05648 -4.20689 1
    endloop
  endfacet
  facet normal -0.707107 0.707107 0
    outer loop
      vertex 3.55964 -3.79064 1
      vertex 3.79064 -3.55964 3
      vertex 3.79064 -3.55964 1
    endloop
  endfacet
  facet normal -0.707107 0.707107 0
    outer loop
      vertex 3.79064 -3.55964 3
      vertex 3.55964 -3.79064 1
      vertex 3.55964 -3.79064 3
    endloop
  endfacet
  facet normal -0.562082 0.827081 0
    outer loop
      vertex 3.05648 -4.20689 1
      vertex 2.7863 -4.3905 3
      vertex 3.05648 -4.20689 3
    endloop
  endfacet
  facet normal -0.562082 0.827081 0
    outer loop
      vertex 2.7863 -4.3905 3
      vertex 3.05648 -4.20689 1
      vertex 2.7863 -4.3905 1
    endloop
  endfacet
  facet normal -0.453991 0.891006 0
    outer loop
      vertex 2.50512 -4.55679 1
      vertex 2.21405 -4.7051 3
      vertex 2.50512 -4.55679 3
    endloop
  endfacet
  facet normal -0.453991 0.891006 0
    outer loop
      vertex 2.21405 -4.7051 3
      vertex 2.50512 -4.55679 1
      vertex 2.21405 -4.7051 1
    endloop
  endfacet
  facet normal -0.750112 0.661311 0
    outer loop
      vertex 3.79064 -3.55964 1
      vertex 4.00667 -3.3146 3
      vertex 4.00667 -3.3146 1
    endloop
  endfacet
  facet normal -0.750112 0.661311 0
    outer loop
      vertex 4.00667 -3.3146 3
      vertex 3.79064 -3.55964 1
      vertex 3.79064 -3.55964 3
    endloop
  endfacet
  facet normal -0.827081 0.562082 0
    outer loop
      vertex 4.20689 -3.05648 1
      vertex 4.3905 -2.7863 3
      vertex 4.3905 -2.7863 1
    endloop
  endfacet
  facet normal -0.827081 0.562082 0
    outer loop
      vertex 4.3905 -2.7863 3
      vertex 4.20689 -3.05648 1
      vertex 4.20689 -3.05648 3
    endloop
  endfacet
  facet normal -0.917755 0.397147 0
    outer loop
      vertex 4.7051 -2.21405 1
      vertex 4.83484 -1.91425 3
      vertex 4.83484 -1.91425 1
    endloop
  endfacet
  facet normal -0.917755 0.397147 0
    outer loop
      vertex 4.83484 -1.91425 3
      vertex 4.7051 -2.21405 1
      vertex 4.7051 -2.21405 3
    endloop
  endfacet
  facet normal -0.860742 0.509041 0
    outer loop
      vertex 4.3905 -2.7863 1
      vertex 4.55679 -2.50512 3
      vertex 4.55679 -2.50512 1
    endloop
  endfacet
  facet normal -0.860742 0.509041 0
    outer loop
      vertex 4.55679 -2.50512 3
      vertex 4.3905 -2.7863 1
      vertex 4.3905 -2.7863 3
    endloop
  endfacet
  facet normal -0.987688 0.156434 0
    outer loop
      vertex 5.10789 -0.974382 1
      vertex 5.159 -0.651732 3
      vertex 5.159 -0.651732 1
    endloop
  endfacet
  facet normal -0.987688 0.156434 0
    outer loop
      vertex 5.159 -0.651732 3
      vertex 5.10789 -0.974382 1
      vertex 5.10789 -0.974382 3
    endloop
  endfacet
  facet normal -0.960294 0.278989 0
    outer loop
      vertex 4.94549 -1.60689 1
      vertex 5.03663 -1.29319 3
      vertex 5.03663 -1.29319 1
    endloop
  endfacet
  facet normal -0.960294 0.278989 0
    outer loop
      vertex 5.03663 -1.29319 3
      vertex 4.94549 -1.60689 1
      vertex 4.94549 -1.60689 3
    endloop
  endfacet
  facet normal 0.661311 0.750112 -0
    outer loop
      vertex -3.3146 -4.00667 1
      vertex -3.55964 -3.79064 3
      vertex -3.3146 -4.00667 3
    endloop
  endfacet
  facet normal 0.661311 0.750112 0
    outer loop
      vertex -3.55964 -3.79064 3
      vertex -3.3146 -4.00667 1
      vertex -3.55964 -3.79064 1
    endloop
  endfacet
  facet normal 0.509041 0.860742 -0
    outer loop
      vertex -2.50512 -4.55679 1
      vertex -2.7863 -4.3905 3
      vertex -2.50512 -4.55679 3
    endloop
  endfacet
  facet normal 0.509041 0.860742 0
    outer loop
      vertex -2.7863 -4.3905 3
      vertex -2.50512 -4.55679 1
      vertex -2.7863 -4.3905 1
    endloop
  endfacet
  facet normal 0.397147 0.917755 -0
    outer loop
      vertex -1.91425 -4.83484 1
      vertex -2.21405 -4.7051 3
      vertex -1.91425 -4.83484 3
    endloop
  endfacet
  facet normal 0.397147 0.917755 0
    outer loop
      vertex -2.21405 -4.7051 3
      vertex -1.91425 -4.83484 1
      vertex -2.21405 -4.7051 1
    endloop
  endfacet
  facet normal 0.278989 0.960294 -0
    outer loop
      vertex -1.29319 -5.03663 1
      vertex -1.60689 -4.94549 3
      vertex -1.29319 -5.03663 3
    endloop
  endfacet
  facet normal 0.278989 0.960294 0
    outer loop
      vertex -1.60689 -4.94549 3
      vertex -1.29319 -5.03663 1
      vertex -1.60689 -4.94549 1
    endloop
  endfacet
  facet normal 0.0941087 0.995562 -0
    outer loop
      vertex -0.32651 -5.18974 1
      vertex -0.651732 -5.159 3
      vertex -0.32651 -5.18974 3
    endloop
  endfacet
  facet normal 0.0941087 0.995562 0
    outer loop
      vertex -0.651732 -5.159 3
      vertex -0.32651 -5.18974 1
      vertex -0.651732 -5.159 1
    endloop
  endfacet
  facet normal 0.891006 0.453991 0
    outer loop
      vertex -4.55679 -2.50512 3
      vertex -4.7051 -2.21405 1
      vertex -4.7051 -2.21405 3
    endloop
  endfacet
  facet normal 0.891006 0.453991 0
    outer loop
      vertex -4.7051 -2.21405 1
      vertex -4.55679 -2.50512 3
      vertex -4.55679 -2.50512 1
    endloop
  endfacet
  facet normal 0.790153 0.61291 0
    outer loop
      vertex -4.00667 -3.3146 3
      vertex -4.20689 -3.05648 1
      vertex -4.20689 -3.05648 3
    endloop
  endfacet
  facet normal 0.790153 0.61291 0
    outer loop
      vertex -4.20689 -3.05648 1
      vertex -4.00667 -3.3146 3
      vertex -4.00667 -3.3146 1
    endloop
  endfacet
  facet normal 0.975917 0.218144 0
    outer loop
      vertex -5.03663 -1.29319 3
      vertex -5.10789 -0.974382 1
      vertex -5.10789 -0.974382 3
    endloop
  endfacet
  facet normal 0.975917 0.218144 0
    outer loop
      vertex -5.10789 -0.974382 1
      vertex -5.03663 -1.29319 3
      vertex -5.03663 -1.29319 1
    endloop
  endfacet
  facet normal 0.987688 0.156434 0
    outer loop
      vertex -5.10789 -0.974382 3
      vertex -5.159 -0.651732 1
      vertex -5.159 -0.651732 3
    endloop
  endfacet
  facet normal 0.987688 0.156434 0
    outer loop
      vertex -5.159 -0.651732 1
      vertex -5.10789 -0.974382 3
      vertex -5.10789 -0.974382 1
    endloop
  endfacet
  facet normal 0.999507 0.0314124 0
    outer loop
      vertex -5.18974 -0.32651 3
      vertex -5.2 0 1
      vertex -5.2 0 3
    endloop
  endfacet
  facet normal 0.999507 0.0314124 0
    outer loop
      vertex -5.2 0 1
      vertex -5.18974 -0.32651 3
      vertex -5.18974 -0.32651 1
    endloop
  endfacet
  facet normal -0.0941087 0.995562 0
    outer loop
      vertex 0.651732 -5.159 1
      vertex 0.32651 -5.18974 3
      vertex 0.651732 -5.159 3
    endloop
  endfacet
  facet normal -0.0941087 0.995562 0
    outer loop
      vertex 0.32651 -5.18974 3
      vertex 0.651732 -5.159 1
      vertex 0.32651 -5.18974 1
    endloop
  endfacet
  facet normal -0.397147 0.917755 0
    outer loop
      vertex 2.21405 -4.7051 1
      vertex 1.91425 -4.83484 3
      vertex 2.21405 -4.7051 3
    endloop
  endfacet
  facet normal -0.397147 0.917755 0
    outer loop
      vertex 1.91425 -4.83484 3
      vertex 2.21405 -4.7051 1
      vertex 1.91425 -4.83484 1
    endloop
  endfacet
  facet normal -0.278989 0.960294 0
    outer loop
      vertex 1.60689 -4.94549 1
      vertex 1.29319 -5.03663 3
      vertex 1.60689 -4.94549 3
    endloop
  endfacet
  facet normal -0.278989 0.960294 0
    outer loop
      vertex 1.29319 -5.03663 3
      vertex 1.60689 -4.94549 1
      vertex 1.29319 -5.03663 1
    endloop
  endfacet
  facet normal -0.661311 0.750112 0
    outer loop
      vertex 3.55964 -3.79064 1
      vertex 3.3146 -4.00667 3
      vertex 3.55964 -3.79064 3
    endloop
  endfacet
  facet normal -0.661311 0.750112 0
    outer loop
      vertex 3.3146 -4.00667 3
      vertex 3.55964 -3.79064 1
      vertex 3.3146 -4.00667 1
    endloop
  endfacet
  facet normal -0.509041 0.860742 0
    outer loop
      vertex 2.7863 -4.3905 1
      vertex 2.50512 -4.55679 3
      vertex 2.7863 -4.3905 3
    endloop
  endfacet
  facet normal -0.509041 0.860742 0
    outer loop
      vertex 2.50512 -4.55679 3
      vertex 2.7863 -4.3905 1
      vertex 2.50512 -4.55679 1
    endloop
  endfacet
  facet normal -0.790153 0.61291 0
    outer loop
      vertex 4.00667 -3.3146 1
      vertex 4.20689 -3.05648 3
      vertex 4.20689 -3.05648 1
    endloop
  endfacet
  facet normal -0.790153 0.61291 0
    outer loop
      vertex 4.20689 -3.05648 3
      vertex 4.00667 -3.3146 1
      vertex 4.00667 -3.3146 3
    endloop
  endfacet
  facet normal -0.94088 0.338739 0
    outer loop
      vertex 4.83484 -1.91425 1
      vertex 4.94549 -1.60689 3
      vertex 4.94549 -1.60689 1
    endloop
  endfacet
  facet normal -0.94088 0.338739 0
    outer loop
      vertex 4.94549 -1.60689 3
      vertex 4.83484 -1.91425 1
      vertex 4.83484 -1.91425 3
    endloop
  endfacet
  facet normal -0.891006 0.453991 0
    outer loop
      vertex 4.55679 -2.50512 1
      vertex 4.7051 -2.21405 3
      vertex 4.7051 -2.21405 1
    endloop
  endfacet
  facet normal -0.891006 0.453991 0
    outer loop
      vertex 4.7051 -2.21405 3
      vertex 4.55679 -2.50512 1
      vertex 4.55679 -2.50512 3
    endloop
  endfacet
  facet normal -0.995562 0.0941087 0
    outer loop
      vertex 5.159 -0.651732 1
      vertex 5.18974 -0.32651 3
      vertex 5.18974 -0.32651 1
    endloop
  endfacet
  facet normal -0.995562 0.0941087 0
    outer loop
      vertex 5.18974 -0.32651 3
      vertex 5.159 -0.651732 1
      vertex 5.159 -0.651732 3
    endloop
  endfacet
  facet normal -0.975917 0.218144 0
    outer loop
      vertex 5.03663 -1.29319 1
      vertex 5.10789 -0.974382 3
      vertex 5.10789 -0.974382 1
    endloop
  endfacet
  facet normal -0.975917 0.218144 0
    outer loop
      vertex 5.10789 -0.974382 3
      vertex 5.03663 -1.29319 1
      vertex 5.03663 -1.29319 3
    endloop
  endfacet
  facet normal 0.453991 0.891006 -0
    outer loop
      vertex -2.21405 -4.7051 1
      vertex -2.50512 -4.55679 3
      vertex -2.21405 -4.7051 3
    endloop
  endfacet
  facet normal 0.453991 0.891006 0
    outer loop
      vertex -2.50512 -4.55679 3
      vertex -2.21405 -4.7051 1
      vertex -2.50512 -4.55679 1
    endloop
  endfacet
  facet normal 0.338739 0.94088 -0
    outer loop
      vertex -1.60689 -4.94549 1
      vertex -1.91425 -4.83484 3
      vertex -1.60689 -4.94549 3
    endloop
  endfacet
  facet normal 0.338739 0.94088 0
    outer loop
      vertex -1.91425 -4.83484 3
      vertex -1.60689 -4.94549 1
      vertex -1.91425 -4.83484 1
    endloop
  endfacet
  facet normal 0.218144 0.975917 -0
    outer loop
      vertex -0.974382 -5.10789 1
      vertex -1.29319 -5.03663 3
      vertex -0.974382 -5.10789 3
    endloop
  endfacet
  facet normal 0.218144 0.975917 0
    outer loop
      vertex -1.29319 -5.03663 3
      vertex -0.974382 -5.10789 1
      vertex -1.29319 -5.03663 1
    endloop
  endfacet
  facet normal 0.960294 0.278989 0
    outer loop
      vertex -4.94549 -1.60689 3
      vertex -5.03663 -1.29319 1
      vertex -5.03663 -1.29319 3
    endloop
  endfacet
  facet normal 0.960294 0.278989 0
    outer loop
      vertex -5.03663 -1.29319 1
      vertex -4.94549 -1.60689 3
      vertex -4.94549 -1.60689 1
    endloop
  endfacet
  facet normal 0.995562 0.0941087 0
    outer loop
      vertex -5.159 -0.651732 3
      vertex -5.18974 -0.32651 1
      vertex -5.18974 -0.32651 3
    endloop
  endfacet
  facet normal 0.995562 0.0941087 0
    outer loop
      vertex -5.18974 -0.32651 1
      vertex -5.159 -0.651732 3
      vertex -5.159 -0.651732 1
    endloop
  endfacet
  facet normal 1 -0 0
    outer loop
      vertex -10.2 -8.2 3
      vertex -10.2 8.2 1
      vertex -10.2 8.2 3
    endloop
  endfacet
  facet normal 1 0 0
    outer loop
      vertex -10.2 8.2 1
      vertex -10.2 -8.2 3
      vertex -10.2 -8.2 1
    endloop
  endfacet
  facet normal -1 0 0
    outer loop
      vertex -6.8 -8.2 1
      vertex -6.8 8.2 3
      vertex -6.8 8.2 1
    endloop
  endfacet
  facet normal -1 -0 0
    outer loop
      vertex -6.8 8.2 3
      vertex -6.8 -8.2 1
      vertex -6.8 -8.2 3
    endloop
  endfacet
  facet normal -0 0 1
    outer loop
      vertex -10.2 8.2 1
      vertex -6.8 -8.2 1
      vertex -6.8 8.2 1
    endloop
  endfacet
  facet normal 0 0 1
    outer loop
      vertex -6.8 -8.2 1
      vertex -10.2 8.2 1
      vertex -10.2 -8.2 1
    endloop
  endfacet
  facet normal 0 1 -0
    outer loop
      vertex -6.8 -8.2 1
      vertex -10.2 -8.2 3
      vertex -6.8 -8.2 3
    endloop
  endfacet
  facet normal 0 1 0
    outer loop
      vertex -10.2 -8.2 3
      vertex -6.8 -8.2 1
      vertex -10.2 -8.2 1
    endloop
  endfacet
  facet normal 0 -1 0
    outer loop
      vertex -10.2 8.2 1
      vertex -6.8 8.2 3
      vertex -10.2 8.2 3
    endloop
  endfacet
  facet normal 0 -1 -0
    outer loop
      vertex -6.8 8.2 3
      vertex -10.2 8.2 1
      vertex -6.8 8.2 1
    endloop
  endfacet
  facet normal 1 -0 0
    outer loop
      vertex 9.8 -8.2 3
      vertex 9.8 8.2 1
      vertex 9.8 8.2 3
    endloop
  endfacet
  facet normal 1 0 0
    outer loop
      vertex 9.8 8.2 1
      vertex 9.8 -8.2 3
      vertex 9.8 -8.2 1
    endloop
  endfacet
  facet normal -1 0 0
    outer loop
      vertex 13.2 -8.2 1
      vertex 13.2 8.2 3
      vertex 13.2 8.2 1
    endloop
  endfacet
  facet normal -1 -0 0
    outer loop
      vertex 13.2 8.2 3
      vertex 13.2 -8.2 1
      vertex 13.2 -8.2 3
    endloop
  endfacet
  facet normal -0 0 1
    outer loop
      vertex 9.8 8.2 1
      vertex 13.2 -8.2 1
      vertex 13.2 8.2 1
    endloop
  endfacet
  facet normal 0 0 1
    outer loop
      vertex 13.2 -8.2 1
      vertex 9.8 8.2 1
      vertex 9.8 -8.2 1
    endloop
  endfacet
  facet normal 0 1 -0
    outer loop
      vertex 13.2 -8.2 1
      vertex 9.8 -8.2 3
      vertex 13.2 -8.2 3
    endloop
  endfacet
  facet normal 0 1 0
    outer loop
      vertex 9.8 -8.2 3
      vertex 13.2 -8.2 1
      vertex 9.8 -8.2 1
    endloop
  endfacet
  facet normal 0 -1 0
    outer loop
      vertex 9.8 8.2 1
      vertex 13.2 8.2 3
      vertex 9.8 8.2 3
    endloop
  endfacet
  facet normal 0 -1 -0
    outer loop
      vertex 13.2 8.2 3
      vertex 9.8 8.2 1
      vertex 13.2 8.2 1
    endloop
  endfacet
endsolid OpenSCAD_Model
