  0
SECTION
  2
HEADER
  9
$ACADVER
  1
AC1014
  9
$HANDSEED
  5
FFFF
  9
$MEASUREMENT
 70
     1
  0
ENDSEC
  0
SECTION
  2
TABLES
  0
TABLE
  2
VPORT
  5
8
330
0
100
AcDbSymbolTable
 70
     4
  0
VPORT
  5
2E
330
8
100
AcDbSymbolTableRecord
100
AcDbViewportTableRecord
  2
*ACTIVE
 70
     0
 10
0.0
 20
0.0
 11
1.0
 21
1.0
 12
210.0
 22
148.5
 13
0.0
 23
0.0
 14
10.0
 24
10.0
 15
10.0
 25
10.0
 16
0.0
 26
0.0
 36
1.0
 17
0.0
 27
0.0
 37
0.0
 40
341.0
 41
1.24
 42
50.0
 43
0.0
 44
0.0
 50
0.0
 51
0.0
 71
     0
 72
   100
 73
     1
 74
     3
 75
     0
 76
     0
 77
     0
 78
     0
  0
ENDTAB
  0
TABLE
  2
LTYPE
  5
5
330
0
100
AcDbSymbolTable
 70
     1
  0
LTYPE
  5
14
330
5
100
AcDbSymbolTableRecord
100
AcDbLinetypeTableRecord
  2
BYBLOCK
 70
     0
  3

 72
    65
 73
     0
 40
0.0
  0
LTYPE
  5
15
330
5
100
AcDbSymbolTableRecord
100
AcDbLinetypeTableRecord
  2
BYLAYER
 70
     0
  3

 72
    65
 73
     0
 40
0.0
  0
LTYPE
  5
16
330
5
100
AcDbSymbolTableRecord
100
AcDbLinetypeTableRecord
  2
CONTINUOUS
 70
     0
  3
Solid line
 72
    65
 73
     0
 40
0.0
  0
ENDTAB
  0
TABLE
  2
LAYER
  5
2
100
AcDbSymbolTable
 70
2
  0
LAYER
  5
50
100
AcDbSymbolTableRecord
100
AcDbLayerTableRecord
  2
0
 70
0
  6
CONTINUOUS
  0
LAYER
  5
51
100
AcDbSymbolTableRecord
100
AcDbLayerTableRecord
  2
Layer_1
 70
0
  6
CONTINUOUS
  0
ENDTAB
  0
TABLE
  2
STYLE
  5
3
330
0
100
AcDbSymbolTable
 70
     1
  0
STYLE
  5
11
330
3
100
AcDbSymbolTableRecord
100
AcDbTextStyleTableRecord
  2
STANDARD
 70
     0
 40
0.0
 41
1.0
 50
0.0
 71
     0
 42
2.5
  3
txt
  4

  0
ENDTAB
  0
TABLE
  2
VIEW
  5
6
330
0
100
AcDbSymbolTable
 70
     0
  0
ENDTAB
  0
TABLE
  2
UCS
  5
7
330
0
100
AcDbSymbolTable
 70
     0
  0
ENDTAB
  0
TABLE
  2
APPID
  5
9
330
0
100
AcDbSymbolTable
 70
     2
  0
APPID
  5
12
330
9
100
AcDbSymbolTableRecord
100
AcDbRegAppTableRecord
  2
ACAD
 70
     0
  0
ENDTAB
  0
TABLE
  2
DIMSTYLE
  5
A
330
0
100
AcDbSymbolTable
 70
     1
  0
DIMSTYLE
105
27
330
A
100
AcDbSymbolTableRecord
100
AcDbDimStyleTableRecord
  2
ISO-25
 70
     0
  3

  4

  5

  6

  7

 40
1.0
 41
2.5
 42
0.625
 43
3.75
 44
1.25
 45
0.0
 46
0.0
 47
0.0
 48
0.0
140
2.5
141
2.5
142
0.0
143
0.03937007874016
144
1.0
145
0.0
146
1.0
147
0.625
 71
     0
 72
     0
 73
     0
 74
     0
 75
     0
 76
     0
 77
     1
 78
     8
170
     0
171
     3
172
     1
173
     0
174
     0
175
     0
176
     0
177
     0
178
     0
270
     2
271
     2
272
     2
273
     2
274
     3
340
11
275
     0
280
     0
281
     0
282
     0
283
     0
284
     8
285
     0
286
     0
287
     3
288
     0
  0
ENDTAB
  0
TABLE
  2
BLOCK_RECORD
  5
1
330
0
100
AcDbSymbolTable
 70
     1
  0
BLOCK_RECORD
  5
1F
330
1
100
AcDbSymbolTableRecord
100
AcDbBlockTableRecord
  2
*MODEL_SPACE
  0
BLOCK_RECORD
  5
1B
330
1
100
AcDbSymbolTableRecord
100
AcDbBlockTableRecord
  2
*PAPER_SPACE
  0
ENDTAB
  0
ENDSEC
  0
SECTION
  2
BLOCKS
  0
BLOCK
  5
20
330
1F
100
AcDbEntity
  8
0
100
AcDbBlockBegin
  2
*MODEL_SPACE
 70
     0
 10
0.0
 20
0.0
 30
0.0
  3
*MODEL_SPACE
  1

  0
ENDBLK
  5
21
330
1F
100
AcDbEntity
  8
0
100
AcDbBlockEnd
  0
BLOCK
  5
1C
330
1B
100
AcDbEntity
 67
     1
  8
0
100
AcDbBlockBegin
  2
*PAPER_SPACE
  1

  0
ENDBLK
  5
1D
330
1B
100
AcDbEntity
 67
     1
  8
0
100
AcDbBlockEnd
  0
ENDSEC
  0
SECTION
  2
ENTITIES
  0
LINE
  5
100
100
AcDbEntity
  8
Layer_1
 62
7
100
AcDbLine
 10
14.112195
 20
164.000002
 30
0.0
 11
75.887806
 21
164.000002
 31
0.0
  0
SPLINE
  5
101
100
AcDbEntity
  8
Layer_1
 62
7
100
AcDbSpline
 70
8
 71
3
 72
8
 73
4
 74
0
 40
0
 40
0
 40
0
 40
0
 40
1
 40
1
 40
1
 40
1
 10
75.887806
 20
164.000002
 30
0.0
 10
78.165963
 20
164.000002
 30
0.0
 10
80.000004
 20
162.165964
 30
0.0
 10
80.000004
 20
159.887807
 30
0.0
  0
LINE
  5
102
100
AcDbEntity
  8
Layer_1
 62
7
100
AcDbLine
 10
80.000004
 20
159.887807
 30
0.0
 11
80.000004
 21
94.092471
 31
0.0
  0
SPLINE
  5
103
100
AcDbEntity
  8
Layer_1
 62
7
100
AcDbSpline
 70
8
 71
3
 72
8
 73
4
 74
0
 40
0
 40
0
 40
0
 40
0
 40
1
 40
1
 40
1
 40
1
 10
80.000004
 20
94.092471
 30
0.0
 10
80.000004
 20
91.814314
 30
0.0
 10
78.165963
 20
89.980276
 30
0.0
 10
75.887806
 20
89.980276
 30
0.0
  0
LINE
  5
104
100
AcDbEntity
  8
Layer_1
 62
7
100
AcDbLine
 10
75.887806
 20
89.980276
 30
0.0
 11
14.112195
 21
89.980276
 31
0.0
  0
SPLINE
  5
105
100
AcDbEntity
  8
Layer_1
 62
7
100
AcDbSpline
 70
8
 71
3
 72
8
 73
4
 74
0
 40
0
 40
0
 40
0
 40
0
 40
1
 40
1
 40
1
 40
1
 10
14.112195
 20
89.980276
 30
0.0
 10
11.834039
 20
89.980276
 30
0.0
 10
9.999999
 20
91.814314
 30
0.0
 10
9.999999
 20
94.092471
 30
0.0
  0
LINE
  5
106
100
AcDbEntity
  8
Layer_1
 62
7
100
AcDbLine
 10
9.999999
 20
94.092471
 30
0.0
 11
9.999999
 21
159.887807
 31
0.0
  0
SPLINE
  5
107
100
AcDbEntity
  8
Layer_1
 62
7
100
AcDbSpline
 70
8
 71
3
 72
8
 73
4
 74
0
 40
0
 40
0
 40
0
 40
0
 40
1
 40
1
 40
1
 40
1
 10
9.999999
 20
159.887807
 30
0.0
 10
9.999999
 20
162.165964
 30
0.0
 10
11.834039
 20
164.000002
 30
0.0
 10
14.112195
 20
164.000002
 30
0.0
  0
LINE
  5
108
100
AcDbEntity
  8
Layer_1
 62
7
100
AcDbLine
 10
14.112195
 20
164.000002
 30
0.0
 11
14.112195
 21
164.000002
 31
0.0
  0
SPLINE
  5
109
100
AcDbEntity
  8
Layer_1
 62
7
100
AcDbSpline
 70
8
 71
3
 72
8
 73
4
 74
0
 40
0
 40
0
 40
0
 40
0
 40
1
 40
1
 40
1
 40
1
 10
54.999997
 20
156.976249
 30
0.0
 10
53.885686
 20
156.976249
 30
0.0
 10
52.982359
 20
157.882313
 30
0.0
 10
52.982359
 20
159.000000
 30
0.0
  0
SPLINE
  5
10a
100
AcDbEntity
  8
Layer_1
 62
7
100
AcDbSpline
 70
8
 71
3
 72
8
 73
4
 74
0
 40
0
 40
0
 40
0
 40
0
 40
1
 40
1
 40
1
 40
1
 10
52.982359
 20
159.000000
 30
0.0
 10
52.982359
 20
160.117686
 30
0.0
 10
53.885686
 20
161.023750
 30
0.0
 10
54.999997
 20
161.023750
 30
0.0
  0
SPLINE
  5
10b
100
AcDbEntity
  8
Layer_1
 62
7
100
AcDbSpline
 70
8
 71
3
 72
8
 73
4
 74
0
 40
0
 40
0
 40
0
 40
0
 40
1
 40
1
 40
1
 40
1
 10
54.999997
 20
161.023750
 30
0.0
 10
56.114308
 20
161.023750
 30
0.0
 10
57.017635
 20
160.117686
 30
0.0
 10
57.017635
 20
159.000000
 30
0.0
  0
SPLINE
  5
10c
100
AcDbEntity
  8
Layer_1
 62
7
100
AcDbSpline
 70
8
 71
3
 72
8
 73
4
 74
0
 40
0
 40
0
 40
0
 40
0
 40
1
 40
1
 40
1
 40
1
 10
57.017635
 20
159.000000
 30
0.0
 10
57.017635
 20
157.882313
 30
0.0
 10
56.114308
 20
156.976249
 30
0.0
 10
54.999997
 20
156.976249
 30
0.0
  0
LINE
  5
10d
100
AcDbEntity
  8
Layer_1
 62
7
100
AcDbLine
 10
54.999997
 20
156.976249
 30
0.0
 11
54.999997
 21
156.976249
 31
0.0
  0
SPLINE
  5
10e
100
AcDbEntity
  8
Layer_1
 62
7
100
AcDbSpline
 70
8
 71
3
 72
8
 73
4
 74
0
 40
0
 40
0
 40
0
 40
0
 40
1
 40
1
 40
1
 40
1
 10
44.961782
 20
156.936114
 30
0.0
 10
43.847471
 20
156.936114
 30
0.0
 10
42.944144
 20
157.842178
 30
0.0
 10
42.944144
 20
158.959865
 30
0.0
  0
SPLINE
  5
10f
100
AcDbEntity
  8
Layer_1
 62
7
100
AcDbSpline
 70
8
 71
3
 72
8
 73
4
 74
0
 40
0
 40
0
 40
0
 40
0
 40
1
 40
1
 40
1
 40
1
 10
42.944144
 20
158.959865
 30
0.0
 10
42.944144
 20
160.077551
 30
0.0
 10
43.847471
 20
160.983615
 30
0.0
 10
44.961782
 20
160.983615
 30
0.0
  0
SPLINE
  5
110
100
AcDbEntity
  8
Layer_1
 62
7
100
AcDbSpline
 70
8
 71
3
 72
8
 73
4
 74
0
 40
0
 40
0
 40
0
 40
0
 40
1
 40
1
 40
1
 40
1
 10
44.961782
 20
160.983615
 30
0.0
 10
46.076093
 20
160.983615
 30
0.0
 10
46.979420
 20
160.077551
 30
0.0
 10
46.979420
 20
158.959865
 30
0.0
  0
SPLINE
  5
111
100
AcDbEntity
  8
Layer_1
 62
7
100
AcDbSpline
 70
8
 71
3
 72
8
 73
4
 74
0
 40
0
 40
0
 40
0
 40
0
 40
1
 40
1
 40
1
 40
1
 10
46.979420
 20
158.959865
 30
0.0
 10
46.979420
 20
157.842178
 30
0.0
 10
46.076093
 20
156.936114
 30
0.0
 10
44.961782
 20
156.936114
 30
0.0
  0
LINE
  5
112
100
AcDbEntity
  8
Layer_1
 62
7
100
AcDbLine
 10
44.961782
 20
156.936114
 30
0.0
 11
44.961782
 21
156.936114
 31
0.0
  0
SPLINE
  5
113
100
AcDbEntity
  8
Layer_1
 62
7
100
AcDbSpline
 70
8
 71
3
 72
8
 73
4
 74
0
 40
0
 40
0
 40
0
 40
0
 40
1
 40
1
 40
1
 40
1
 10
14.999998
 20
156.976249
 30
0.0
 10
13.885687
 20
156.976249
 30
0.0
 10
12.982360
 20
157.882313
 30
0.0
 10
12.982360
 20
159.000000
 30
0.0
  0
SPLINE
  5
114
100
AcDbEntity
  8
Layer_1
 62
7
100
AcDbSpline
 70
8
 71
3
 72
8
 73
4
 74
0
 40
0
 40
0
 40
0
 40
0
 40
1
 40
1
 40
1
 40
1
 10
12.982360
 20
159.000000
 30
0.0
 10
12.982360
 20
160.117686
 30
0.0
 10
13.885687
 20
161.023750
 30
0.0
 10
14.999998
 20
161.023750
 30
0.0
  0
SPLINE
  5
115
100
AcDbEntity
  8
Layer_1
 62
7
100
AcDbSpline
 70
8
 71
3
 72
8
 73
4
 74
0
 40
0
 40
0
 40
0
 40
0
 40
1
 40
1
 40
1
 40
1
 10
14.999998
 20
161.023750
 30
0.0
 10
16.114309
 20
161.023750
 30
0.0
 10
17.017636
 20
160.117686
 30
0.0
 10
17.017636
 20
159.000000
 30
0.0
  0
SPLINE
  5
116
100
AcDbEntity
  8
Layer_1
 62
7
100
AcDbSpline
 70
8
 71
3
 72
8
 73
4
 74
0
 40
0
 40
0
 40
0
 40
0
 40
1
 40
1
 40
1
 40
1
 10
17.017636
 20
159.000000
 30
0.0
 10
17.017636
 20
157.882313
 30
0.0
 10
16.114309
 20
156.976249
 30
0.0
 10
14.999998
 20
156.976249
 30
0.0
  0
LINE
  5
117
100
AcDbEntity
  8
Layer_1
 62
7
100
AcDbLine
 10
14.999998
 20
156.976249
 30
0.0
 11
14.999998
 21
156.976249
 31
0.0
  0
SPLINE
  5
118
100
AcDbEntity
  8
Layer_1
 62
7
100
AcDbSpline
 70
8
 71
3
 72
8
 73
4
 74
0
 40
0
 40
0
 40
0
 40
0
 40
1
 40
1
 40
1
 40
1
 10
34.999998
 20
156.976249
 30
0.0
 10
33.885687
 20
156.976249
 30
0.0
 10
32.982360
 20
157.882313
 30
0.0
 10
32.982360
 20
159.000000
 30
0.0
  0
SPLINE
  5
119
100
AcDbEntity
  8
Layer_1
 62
7
100
AcDbSpline
 70
8
 71
3
 72
8
 73
4
 74
0
 40
0
 40
0
 40
0
 40
0
 40
1
 40
1
 40
1
 40
1
 10
32.982360
 20
159.000000
 30
0.0
 10
32.982360
 20
160.117686
 30
0.0
 10
33.885687
 20
161.023750
 30
0.0
 10
34.999998
 20
161.023750
 30
0.0
  0
SPLINE
  5
11a
100
AcDbEntity
  8
Layer_1
 62
7
100
AcDbSpline
 70
8
 71
3
 72
8
 73
4
 74
0
 40
0
 40
0
 40
0
 40
0
 40
1
 40
1
 40
1
 40
1
 10
34.999998
 20
161.023750
 30
0.0
 10
36.114309
 20
161.023750
 30
0.0
 10
37.017636
 20
160.117686
 30
0.0
 10
37.017636
 20
159.000000
 30
0.0
  0
SPLINE
  5
11b
100
AcDbEntity
  8
Layer_1
 62
7
100
AcDbSpline
 70
8
 71
3
 72
8
 73
4
 74
0
 40
0
 40
0
 40
0
 40
0
 40
1
 40
1
 40
1
 40
1
 10
37.017636
 20
159.000000
 30
0.0
 10
37.017636
 20
157.882313
 30
0.0
 10
36.114309
 20
156.976249
 30
0.0
 10
34.999998
 20
156.976249
 30
0.0
  0
LINE
  5
11c
100
AcDbEntity
  8
Layer_1
 62
7
100
AcDbLine
 10
34.999998
 20
156.976249
 30
0.0
 11
34.999998
 21
156.976249
 31
0.0
  0
SPLINE
  5
11d
100
AcDbEntity
  8
Layer_1
 62
7
100
AcDbSpline
 70
8
 71
3
 72
8
 73
4
 74
0
 40
0
 40
0
 40
0
 40
0
 40
1
 40
1
 40
1
 40
1
 10
24.999998
 20
156.976249
 30
0.0
 10
23.885687
 20
156.976249
 30
0.0
 10
22.982360
 20
157.882313
 30
0.0
 10
22.982360
 20
159.000000
 30
0.0
  0
SPLINE
  5
11e
100
AcDbEntity
  8
Layer_1
 62
7
100
AcDbSpline
 70
8
 71
3
 72
8
 73
4
 74
0
 40
0
 40
0
 40
0
 40
0
 40
1
 40
1
 40
1
 40
1
 10
22.982360
 20
159.000000
 30
0.0
 10
22.982360
 20
160.117686
 30
0.0
 10
23.885687
 20
161.023750
 30
0.0
 10
24.999998
 20
161.023750
 30
0.0
  0
SPLINE
  5
11f
100
AcDbEntity
  8
Layer_1
 62
7
100
AcDbSpline
 70
8
 71
3
 72
8
 73
4
 74
0
 40
0
 40
0
 40
0
 40
0
 40
1
 40
1
 40
1
 40
1
 10
24.999998
 20
161.023750
 30
0.0
 10
26.114309
 20
161.023750
 30
0.0
 10
27.017636
 20
160.117686
 30
0.0
 10
27.017636
 20
159.000000
 30
0.0
  0
SPLINE
  5
120
100
AcDbEntity
  8
Layer_1
 62
7
100
AcDbSpline
 70
8
 71
3
 72
8
 73
4
 74
0
 40
0
 40
0
 40
0
 40
0
 40
1
 40
1
 40
1
 40
1
 10
27.017636
 20
159.000000
 30
0.0
 10
27.017636
 20
157.882313
 30
0.0
 10
26.114309
 20
156.976249
 30
0.0
 10
24.999998
 20
156.976249
 30
0.0
  0
LINE
  5
121
100
AcDbEntity
  8
Layer_1
 62
7
100
AcDbLine
 10
24.999998
 20
156.976249
 30
0.0
 11
24.999998
 21
156.976249
 31
0.0
  0
SPLINE
  5
122
100
AcDbEntity
  8
Layer_1
 62
1
100
AcDbSpline
 70
8
 71
3
 72
8
 73
4
 74
0
 40
0
 40
0
 40
0
 40
0
 40
1
 40
1
 40
1
 40
1
 10
14.000000
 20
145.999997
 30
0.0
 10
14.000000
 20
145.171572
 30
0.0
 10
13.328427
 20
144.500000
 30
0.0
 10
12.500000
 20
144.500000
 30
0.0
  0
SPLINE
  5
123
100
AcDbEntity
  8
Layer_1
 62
1
100
AcDbSpline
 70
8
 71
3
 72
8
 73
4
 74
0
 40
0
 40
0
 40
0
 40
0
 40
1
 40
1
 40
1
 40
1
 10
12.500000
 20
144.500000
 30
0.0
 10
11.671573
 20
144.500000
 30
0.0
 10
11.000000
 20
145.171572
 30
0.0
 10
11.000000
 20
145.999997
 30
0.0
  0
SPLINE
  5
124
100
AcDbEntity
  8
Layer_1
 62
1
100
AcDbSpline
 70
8
 71
3
 72
8
 73
4
 74
0
 40
0
 40
0
 40
0
 40
0
 40
1
 40
1
 40
1
 40
1
 10
11.000000
 20
145.999997
 30
0.0
 10
11.000000
 20
146.828427
 30
0.0
 10
11.671573
 20
147.499999
 30
0.0
 10
12.500000
 20
147.499999
 30
0.0
  0
SPLINE
  5
125
100
AcDbEntity
  8
Layer_1
 62
1
100
AcDbSpline
 70
8
 71
3
 72
8
 73
4
 74
0
 40
0
 40
0
 40
0
 40
0
 40
1
 40
1
 40
1
 40
1
 10
12.500000
 20
147.499999
 30
0.0
 10
13.328427
 20
147.499999
 30
0.0
 10
14.000000
 20
146.828427
 30
0.0
 10
14.000000
 20
145.999997
 30
0.0
  0
LINE
  5
126
100
AcDbEntity
  8
Layer_1
 62
1
100
AcDbLine
 10
14.000000
 20
145.999997
 30
0.0
 11
14.000000
 21
145.999997
 31
0.0
  0
SPLINE
  5
127
100
AcDbEntity
  8
Layer_1
 62
1
100
AcDbSpline
 70
8
 71
3
 72
8
 73
4
 74
0
 40
0
 40
0
 40
0
 40
0
 40
1
 40
1
 40
1
 40
1
 10
14.000000
 20
117.999997
 30
0.0
 10
14.000000
 20
117.171572
 30
0.0
 10
13.328427
 20
116.500000
 30
0.0
 10
12.500000
 20
116.500000
 30
0.0
  0
SPLINE
  5
128
100
AcDbEntity
  8
Layer_1
 62
1
100
AcDbSpline
 70
8
 71
3
 72
8
 73
4
 74
0
 40
0
 40
0
 40
0
 40
0
 40
1
 40
1
 40
1
 40
1
 10
12.500000
 20
116.500000
 30
0.0
 10
11.671573
 20
116.500000
 30
0.0
 10
11.000000
 20
117.171572
 30
0.0
 10
11.000000
 20
117.999997
 30
0.0
  0
SPLINE
  5
129
100
AcDbEntity
  8
Layer_1
 62
1
100
AcDbSpline
 70
8
 71
3
 72
8
 73
4
 74
0
 40
0
 40
0
 40
0
 40
0
 40
1
 40
1
 40
1
 40
1
 10
11.000000
 20
117.999997
 30
0.0
 10
11.000000
 20
118.828426
 30
0.0
 10
11.671573
 20
119.499998
 30
0.0
 10
12.500000
 20
119.499998
 30
0.0
  0
SPLINE
  5
12a
100
AcDbEntity
  8
Layer_1
 62
1
100
AcDbSpline
 70
8
 71
3
 72
8
 73
4
 74
0
 40
0
 40
0
 40
0
 40
0
 40
1
 40
1
 40
1
 40
1
 10
12.500000
 20
119.499998
 30
0.0
 10
13.328427
 20
119.499998
 30
0.0
 10
14.000000
 20
118.828426
 30
0.0
 10
14.000000
 20
117.999997
 30
0.0
  0
LINE
  5
12b
100
AcDbEntity
  8
Layer_1
 62
1
100
AcDbLine
 10
14.000000
 20
117.999997
 30
0.0
 11
14.000000
 21
117.999997
 31
0.0
  0
SPLINE
  5
12c
100
AcDbEntity
  8
Layer_1
 62
1
100
AcDbSpline
 70
8
 71
3
 72
8
 73
4
 74
0
 40
0
 40
0
 40
0
 40
0
 40
1
 40
1
 40
1
 40
1
 10
66.499999
 20
151.499998
 30
0.0
 10
66.499999
 20
150.671572
 30
0.0
 10
65.828427
 20
150.000001
 30
0.0
 10
64.999999
 20
150.000001
 30
0.0
  0
SPLINE
  5
12d
100
AcDbEntity
  8
Layer_1
 62
1
100
AcDbSpline
 70
8
 71
3
 72
8
 73
4
 74
0
 40
0
 40
0
 40
0
 40
0
 40
1
 40
1
 40
1
 40
1
 10
64.999999
 20
150.000001
 30
0.0
 10
64.171572
 20
150.000001
 30
0.0
 10
63.499999
 20
150.671572
 30
0.0
 10
63.499999
 20
151.499998
 30
0.0
  0
SPLINE
  5
12e
100
AcDbEntity
  8
Layer_1
 62
1
100
AcDbSpline
 70
8
 71
3
 72
8
 73
4
 74
0
 40
0
 40
0
 40
0
 40
0
 40
1
 40
1
 40
1
 40
1
 10
63.499999
 20
151.499998
 30
0.0
 10
63.499999
 20
152.328427
 30
0.0
 10
64.171572
 20
152.999999
 30
0.0
 10
64.999999
 20
152.999999
 30
0.0
  0
SPLINE
  5
12f
100
AcDbEntity
  8
Layer_1
 62
1
100
AcDbSpline
 70
8
 71
3
 72
8
 73
4
 74
0
 40
0
 40
0
 40
0
 40
0
 40
1
 40
1
 40
1
 40
1
 10
64.999999
 20
152.999999
 30
0.0
 10
65.828427
 20
152.999999
 30
0.0
 10
66.499999
 20
152.328427
 30
0.0
 10
66.499999
 20
151.499998
 30
0.0
  0
LINE
  5
130
100
AcDbEntity
  8
Layer_1
 62
1
100
AcDbLine
 10
66.499999
 20
151.499998
 30
0.0
 11
66.499999
 21
151.499998
 31
0.0
  0
SPLINE
  5
131
100
AcDbEntity
  8
Layer_1
 62
1
100
AcDbSpline
 70
8
 71
3
 72
8
 73
4
 74
0
 40
0
 40
0
 40
0
 40
0
 40
1
 40
1
 40
1
 40
1
 10
64.999999
 20
102.499997
 30
0.0
 10
64.999999
 20
101.671572
 30
0.0
 10
64.328427
 20
101.000000
 30
0.0
 10
63.499999
 20
101.000000
 30
0.0
  0
SPLINE
  5
132
100
AcDbEntity
  8
Layer_1
 62
1
100
AcDbSpline
 70
8
 71
3
 72
8
 73
4
 74
0
 40
0
 40
0
 40
0
 40
0
 40
1
 40
1
 40
1
 40
1
 10
63.499999
 20
101.000000
 30
0.0
 10
62.671573
 20
101.000000
 30
0.0
 10
61.999999
 20
101.671572
 30
0.0
 10
61.999999
 20
102.499997
 30
0.0
  0
SPLINE
  5
133
100
AcDbEntity
  8
Layer_1
 62
1
100
AcDbSpline
 70
8
 71
3
 72
8
 73
4
 74
0
 40
0
 40
0
 40
0
 40
0
 40
1
 40
1
 40
1
 40
1
 10
61.999999
 20
102.499997
 30
0.0
 10
61.999999
 20
103.328426
 30
0.0
 10
62.671573
 20
103.999998
 30
0.0
 10
63.499999
 20
103.999998
 30
0.0
  0
SPLINE
  5
134
100
AcDbEntity
  8
Layer_1
 62
1
100
AcDbSpline
 70
8
 71
3
 72
8
 73
4
 74
0
 40
0
 40
0
 40
0
 40
0
 40
1
 40
1
 40
1
 40
1
 10
63.499999
 20
103.999998
 30
0.0
 10
64.328427
 20
103.999998
 30
0.0
 10
64.999999
 20
103.328426
 30
0.0
 10
64.999999
 20
102.499997
 30
0.0
  0
LINE
  5
135
100
AcDbEntity
  8
Layer_1
 62
1
100
AcDbLine
 10
64.999999
 20
102.499997
 30
0.0
 11
64.999999
 21
102.499997
 31
0.0
  0
SPLINE
  5
136
100
AcDbEntity
  8
Layer_1
 62
7
100
AcDbSpline
 70
8
 71
3
 72
8
 73
4
 74
0
 40
0
 40
0
 40
0
 40
0
 40
1
 40
1
 40
1
 40
1
 10
75.038215
 20
157.016384
 30
0.0
 10
73.923904
 20
157.016384
 30
0.0
 10
73.020577
 20
157.922448
 30
0.0
 10
73.020577
 20
159.040134
 30
0.0
  0
SPLINE
  5
137
100
AcDbEntity
  8
Layer_1
 62
7
100
AcDbSpline
 70
8
 71
3
 72
8
 73
4
 74
0
 40
0
 40
0
 40
0
 40
0
 40
1
 40
1
 40
1
 40
1
 10
73.020577
 20
159.040134
 30
0.0
 10
73.020577
 20
160.157821
 30
0.0
 10
73.923904
 20
161.063885
 30
0.0
 10
75.038215
 20
161.063885
 30
0.0
  0
SPLINE
  5
138
100
AcDbEntity
  8
Layer_1
 62
7
100
AcDbSpline
 70
8
 71
3
 72
8
 73
4
 74
0
 40
0
 40
0
 40
0
 40
0
 40
1
 40
1
 40
1
 40
1
 10
75.038215
 20
161.063885
 30
0.0
 10
76.152526
 20
161.063885
 30
0.0
 10
77.055853
 20
160.157821
 30
0.0
 10
77.055853
 20
159.040134
 30
0.0
  0
SPLINE
  5
139
100
AcDbEntity
  8
Layer_1
 62
7
100
AcDbSpline
 70
8
 71
3
 72
8
 73
4
 74
0
 40
0
 40
0
 40
0
 40
0
 40
1
 40
1
 40
1
 40
1
 10
77.055853
 20
159.040134
 30
0.0
 10
77.055853
 20
157.922448
 30
0.0
 10
76.152526
 20
157.016384
 30
0.0
 10
75.038215
 20
157.016384
 30
0.0
  0
LINE
  5
13a
100
AcDbEntity
  8
Layer_1
 62
7
100
AcDbLine
 10
75.038215
 20
157.016384
 30
0.0
 11
75.038215
 21
157.016384
 31
0.0
  0
SPLINE
  5
13b
100
AcDbEntity
  8
Layer_1
 62
7
100
AcDbSpline
 70
8
 71
3
 72
8
 73
4
 74
0
 40
0
 40
0
 40
0
 40
0
 40
1
 40
1
 40
1
 40
1
 10
65.000000
 20
156.976249
 30
0.0
 10
63.885689
 20
156.976249
 30
0.0
 10
62.982362
 20
157.882313
 30
0.0
 10
62.982362
 20
159.000000
 30
0.0
  0
SPLINE
  5
13c
100
AcDbEntity
  8
Layer_1
 62
7
100
AcDbSpline
 70
8
 71
3
 72
8
 73
4
 74
0
 40
0
 40
0
 40
0
 40
0
 40
1
 40
1
 40
1
 40
1
 10
62.982362
 20
159.000000
 30
0.0
 10
62.982362
 20
160.117686
 30
0.0
 10
63.885689
 20
161.023750
 30
0.0
 10
65.000000
 20
161.023750
 30
0.0
  0
SPLINE
  5
13d
100
AcDbEntity
  8
Layer_1
 62
7
100
AcDbSpline
 70
8
 71
3
 72
8
 73
4
 74
0
 40
0
 40
0
 40
0
 40
0
 40
1
 40
1
 40
1
 40
1
 10
65.000000
 20
161.023750
 30
0.0
 10
66.114311
 20
161.023750
 30
0.0
 10
67.017638
 20
160.117686
 30
0.0
 10
67.017638
 20
159.000000
 30
0.0
  0
SPLINE
  5
13e
100
AcDbEntity
  8
Layer_1
 62
7
100
AcDbSpline
 70
8
 71
3
 72
8
 73
4
 74
0
 40
0
 40
0
 40
0
 40
0
 40
1
 40
1
 40
1
 40
1
 10
67.017638
 20
159.000000
 30
0.0
 10
67.017638
 20
157.882313
 30
0.0
 10
66.114311
 20
156.976249
 30
0.0
 10
65.000000
 20
156.976249
 30
0.0
  0
LINE
  5
13f
100
AcDbEntity
  8
Layer_1
 62
7
100
AcDbLine
 10
65.000000
 20
156.976249
 30
0.0
 11
65.000000
 21
156.976249
 31
0.0
  0
SPLINE
  5
140
100
AcDbEntity
  8
Layer_1
 62
7
100
AcDbSpline
 70
8
 71
3
 72
8
 73
4
 74
0
 40
0
 40
0
 40
0
 40
0
 40
1
 40
1
 40
1
 40
1
 10
54.999997
 20
92.976247
 30
0.0
 10
53.885686
 20
92.976247
 30
0.0
 10
52.982359
 20
93.882311
 30
0.0
 10
52.982359
 20
94.999998
 30
0.0
  0
SPLINE
  5
141
100
AcDbEntity
  8
Layer_1
 62
7
100
AcDbSpline
 70
8
 71
3
 72
8
 73
4
 74
0
 40
0
 40
0
 40
0
 40
0
 40
1
 40
1
 40
1
 40
1
 10
52.982359
 20
94.999998
 30
0.0
 10
52.982359
 20
96.117684
 30
0.0
 10
53.885686
 20
97.023748
 30
0.0
 10
54.999997
 20
97.023748
 30
0.0
  0
SPLINE
  5
142
100
AcDbEntity
  8
Layer_1
 62
7
100
AcDbSpline
 70
8
 71
3
 72
8
 73
4
 74
0
 40
0
 40
0
 40
0
 40
0
 40
1
 40
1
 40
1
 40
1
 10
54.999997
 20
97.023748
 30
0.0
 10
56.114308
 20
97.023748
 30
0.0
 10
57.017635
 20
96.117684
 30
0.0
 10
57.017635
 20
94.999998
 30
0.0
  0
SPLINE
  5
143
100
AcDbEntity
  8
Layer_1
 62
7
100
AcDbSpline
 70
8
 71
3
 72
8
 73
4
 74
0
 40
0
 40
0
 40
0
 40
0
 40
1
 40
1
 40
1
 40
1
 10
57.017635
 20
94.999998
 30
0.0
 10
57.017635
 20
93.882311
 30
0.0
 10
56.114308
 20
92.976247
 30
0.0
 10
54.999997
 20
92.976247
 30
0.0
  0
LINE
  5
144
100
AcDbEntity
  8
Layer_1
 62
7
100
AcDbLine
 10
54.999997
 20
92.976247
 30
0.0
 11
54.999997
 21
92.976247
 31
0.0
  0
SPLINE
  5
145
100
AcDbEntity
  8
Layer_1
 62
7
100
AcDbSpline
 70
8
 71
3
 72
8
 73
4
 74
0
 40
0
 40
0
 40
0
 40
0
 40
1
 40
1
 40
1
 40
1
 10
44.961782
 20
92.936113
 30
0.0
 10
43.847471
 20
92.936113
 30
0.0
 10
42.944144
 20
93.842177
 30
0.0
 10
42.944144
 20
94.959863
 30
0.0
  0
SPLINE
  5
146
100
AcDbEntity
  8
Layer_1
 62
7
100
AcDbSpline
 70
8
 71
3
 72
8
 73
4
 74
0
 40
0
 40
0
 40
0
 40
0
 40
1
 40
1
 40
1
 40
1
 10
42.944144
 20
94.959863
 30
0.0
 10
42.944144
 20
96.077549
 30
0.0
 10
43.847471
 20
96.983613
 30
0.0
 10
44.961782
 20
96.983613
 30
0.0
  0
SPLINE
  5
147
100
AcDbEntity
  8
Layer_1
 62
7
100
AcDbSpline
 70
8
 71
3
 72
8
 73
4
 74
0
 40
0
 40
0
 40
0
 40
0
 40
1
 40
1
 40
1
 40
1
 10
44.961782
 20
96.983613
 30
0.0
 10
46.076093
 20
96.983613
 30
0.0
 10
46.979420
 20
96.077549
 30
0.0
 10
46.979420
 20
94.959863
 30
0.0
  0
SPLINE
  5
148
100
AcDbEntity
  8
Layer_1
 62
7
100
AcDbSpline
 70
8
 71
3
 72
8
 73
4
 74
0
 40
0
 40
0
 40
0
 40
0
 40
1
 40
1
 40
1
 40
1
 10
46.979420
 20
94.959863
 30
0.0
 10
46.979420
 20
93.842177
 30
0.0
 10
46.076093
 20
92.936113
 30
0.0
 10
44.961782
 20
92.936113
 30
0.0
  0
LINE
  5
149
100
AcDbEntity
  8
Layer_1
 62
7
100
AcDbLine
 10
44.961782
 20
92.936113
 30
0.0
 11
44.961782
 21
92.936113
 31
0.0
  0
SPLINE
  5
14a
100
AcDbEntity
  8
Layer_1
 62
7
100
AcDbSpline
 70
8
 71
3
 72
8
 73
4
 74
0
 40
0
 40
0
 40
0
 40
0
 40
1
 40
1
 40
1
 40
1
 10
14.999998
 20
92.976247
 30
0.0
 10
13.885687
 20
92.976247
 30
0.0
 10
12.982360
 20
93.882311
 30
0.0
 10
12.982360
 20
94.999998
 30
0.0
  0
SPLINE
  5
14b
100
AcDbEntity
  8
Layer_1
 62
7
100
AcDbSpline
 70
8
 71
3
 72
8
 73
4
 74
0
 40
0
 40
0
 40
0
 40
0
 40
1
 40
1
 40
1
 40
1
 10
12.982360
 20
94.999998
 30
0.0
 10
12.982360
 20
96.117684
 30
0.0
 10
13.885687
 20
97.023748
 30
0.0
 10
14.999998
 20
97.023748
 30
0.0
  0
SPLINE
  5
14c
100
AcDbEntity
  8
Layer_1
 62
7
100
AcDbSpline
 70
8
 71
3
 72
8
 73
4
 74
0
 40
0
 40
0
 40
0
 40
0
 40
1
 40
1
 40
1
 40
1
 10
14.999998
 20
97.023748
 30
0.0
 10
16.114309
 20
97.023748
 30
0.0
 10
17.017636
 20
96.117684
 30
0.0
 10
17.017636
 20
94.999998
 30
0.0
  0
SPLINE
  5
14d
100
AcDbEntity
  8
Layer_1
 62
7
100
AcDbSpline
 70
8
 71
3
 72
8
 73
4
 74
0
 40
0
 40
0
 40
0
 40
0
 40
1
 40
1
 40
1
 40
1
 10
17.017636
 20
94.999998
 30
0.0
 10
17.017636
 20
93.882311
 30
0.0
 10
16.114309
 20
92.976247
 30
0.0
 10
14.999998
 20
92.976247
 30
0.0
  0
LINE
  5
14e
100
AcDbEntity
  8
Layer_1
 62
7
100
AcDbLine
 10
14.999998
 20
92.976247
 30
0.0
 11
14.999998
 21
92.976247
 31
0.0
  0
SPLINE
  5
14f
100
AcDbEntity
  8
Layer_1
 62
7
100
AcDbSpline
 70
8
 71
3
 72
8
 73
4
 74
0
 40
0
 40
0
 40
0
 40
0
 40
1
 40
1
 40
1
 40
1
 10
34.999998
 20
92.976247
 30
0.0
 10
33.885687
 20
92.976247
 30
0.0
 10
32.982360
 20
93.882311
 30
0.0
 10
32.982360
 20
94.999998
 30
0.0
  0
SPLINE
  5
150
100
AcDbEntity
  8
Layer_1
 62
7
100
AcDbSpline
 70
8
 71
3
 72
8
 73
4
 74
0
 40
0
 40
0
 40
0
 40
0
 40
1
 40
1
 40
1
 40
1
 10
32.982360
 20
94.999998
 30
0.0
 10
32.982360
 20
96.117684
 30
0.0
 10
33.885687
 20
97.023748
 30
0.0
 10
34.999998
 20
97.023748
 30
0.0
  0
SPLINE
  5
151
100
AcDbEntity
  8
Layer_1
 62
7
100
AcDbSpline
 70
8
 71
3
 72
8
 73
4
 74
0
 40
0
 40
0
 40
0
 40
0
 40
1
 40
1
 40
1
 40
1
 10
34.999998
 20
97.023748
 30
0.0
 10
36.114309
 20
97.023748
 30
0.0
 10
37.017636
 20
96.117684
 30
0.0
 10
37.017636
 20
94.999998
 30
0.0
  0
SPLINE
  5
152
100
AcDbEntity
  8
Layer_1
 62
7
100
AcDbSpline
 70
8
 71
3
 72
8
 73
4
 74
0
 40
0
 40
0
 40
0
 40
0
 40
1
 40
1
 40
1
 40
1
 10
37.017636
 20
94.999998
 30
0.0
 10
37.017636
 20
93.882311
 30
0.0
 10
36.114309
 20
92.976247
 30
0.0
 10
34.999998
 20
92.976247
 30
0.0
  0
LINE
  5
153
100
AcDbEntity
  8
Layer_1
 62
7
100
AcDbLine
 10
34.999998
 20
92.976247
 30
0.0
 11
34.999998
 21
92.976247
 31
0.0
  0
SPLINE
  5
154
100
AcDbEntity
  8
Layer_1
 62
7
100
AcDbSpline
 70
8
 71
3
 72
8
 73
4
 74
0
 40
0
 40
0
 40
0
 40
0
 40
1
 40
1
 40
1
 40
1
 10
24.999998
 20
92.976247
 30
0.0
 10
23.885687
 20
92.976247
 30
0.0
 10
22.982360
 20
93.882311
 30
0.0
 10
22.982360
 20
94.999998
 30
0.0
  0
SPLINE
  5
155
100
AcDbEntity
  8
Layer_1
 62
7
100
AcDbSpline
 70
8
 71
3
 72
8
 73
4
 74
0
 40
0
 40
0
 40
0
 40
0
 40
1
 40
1
 40
1
 40
1
 10
22.982360
 20
94.999998
 30
0.0
 10
22.982360
 20
96.117684
 30
0.0
 10
23.885687
 20
97.023748
 30
0.0
 10
24.999998
 20
97.023748
 30
0.0
  0
SPLINE
  5
156
100
AcDbEntity
  8
Layer_1
 62
7
100
AcDbSpline
 70
8
 71
3
 72
8
 73
4
 74
0
 40
0
 40
0
 40
0
 40
0
 40
1
 40
1
 40
1
 40
1
 10
24.999998
 20
97.023748
 30
0.0
 10
26.114309
 20
97.023748
 30
0.0
 10
27.017636
 20
96.117684
 30
0.0
 10
27.017636
 20
94.999998
 30
0.0
  0
SPLINE
  5
157
100
AcDbEntity
  8
Layer_1
 62
7
100
AcDbSpline
 70
8
 71
3
 72
8
 73
4
 74
0
 40
0
 40
0
 40
0
 40
0
 40
1
 40
1
 40
1
 40
1
 10
27.017636
 20
94.999998
 30
0.0
 10
27.017636
 20
93.882311
 30
0.0
 10
26.114309
 20
92.976247
 30
0.0
 10
24.999998
 20
92.976247
 30
0.0
  0
LINE
  5
158
100
AcDbEntity
  8
Layer_1
 62
7
100
AcDbLine
 10
24.999998
 20
92.976247
 30
0.0
 11
24.999998
 21
92.976247
 31
0.0
  0
SPLINE
  5
159
100
AcDbEntity
  8
Layer_1
 62
7
100
AcDbSpline
 70
8
 71
3
 72
8
 73
4
 74
0
 40
0
 40
0
 40
0
 40
0
 40
1
 40
1
 40
1
 40
1
 10
75.038215
 20
93.016382
 30
0.0
 10
73.923904
 20
93.016382
 30
0.0
 10
73.020577
 20
93.922446
 30
0.0
 10
73.020577
 20
95.040133
 30
0.0
  0
SPLINE
  5
15a
100
AcDbEntity
  8
Layer_1
 62
7
100
AcDbSpline
 70
8
 71
3
 72
8
 73
4
 74
0
 40
0
 40
0
 40
0
 40
0
 40
1
 40
1
 40
1
 40
1
 10
73.020577
 20
95.040133
 30
0.0
 10
73.020577
 20
96.157819
 30
0.0
 10
73.923904
 20
97.063883
 30
0.0
 10
75.038215
 20
97.063883
 30
0.0
  0
SPLINE
  5
15b
100
AcDbEntity
  8
Layer_1
 62
7
100
AcDbSpline
 70
8
 71
3
 72
8
 73
4
 74
0
 40
0
 40
0
 40
0
 40
0
 40
1
 40
1
 40
1
 40
1
 10
75.038215
 20
97.063883
 30
0.0
 10
76.152526
 20
97.063883
 30
0.0
 10
77.055853
 20
96.157819
 30
0.0
 10
77.055853
 20
95.040133
 30
0.0
  0
SPLINE
  5
15c
100
AcDbEntity
  8
Layer_1
 62
7
100
AcDbSpline
 70
8
 71
3
 72
8
 73
4
 74
0
 40
0
 40
0
 40
0
 40
0
 40
1
 40
1
 40
1
 40
1
 10
77.055853
 20
95.040133
 30
0.0
 10
77.055853
 20
93.922446
 30
0.0
 10
76.152526
 20
93.016382
 30
0.0
 10
75.038215
 20
93.016382
 30
0.0
  0
LINE
  5
15d
100
AcDbEntity
  8
Layer_1
 62
7
100
AcDbLine
 10
75.038215
 20
93.016382
 30
0.0
 11
75.038215
 21
93.016382
 31
0.0
  0
SPLINE
  5
15e
100
AcDbEntity
  8
Layer_1
 62
7
100
AcDbSpline
 70
8
 71
3
 72
8
 73
4
 74
0
 40
0
 40
0
 40
0
 40
0
 40
1
 40
1
 40
1
 40
1
 10
65.000000
 20
92.976247
 30
0.0
 10
63.885689
 20
92.976247
 30
0.0
 10
62.982362
 20
93.882311
 30
0.0
 10
62.982362
 20
94.999998
 30
0.0
  0
SPLINE
  5
15f
100
AcDbEntity
  8
Layer_1
 62
7
100
AcDbSpline
 70
8
 71
3
 72
8
 73
4
 74
0
 40
0
 40
0
 40
0
 40
0
 40
1
 40
1
 40
1
 40
1
 10
62.982362
 20
94.999998
 30
0.0
 10
62.982362
 20
96.117684
 30
0.0
 10
63.885689
 20
97.023748
 30
0.0
 10
65.000000
 20
97.023748
 30
0.0
  0
SPLINE
  5
160
100
AcDbEntity
  8
Layer_1
 62
7
100
AcDbSpline
 70
8
 71
3
 72
8
 73
4
 74
0
 40
0
 40
0
 40
0
 40
0
 40
1
 40
1
 40
1
 40
1
 10
65.000000
 20
97.023748
 30
0.0
 10
66.114311
 20
97.023748
 30
0.0
 10
67.017638
 20
96.117684
 30
0.0
 10
67.017638
 20
94.999998
 30
0.0
  0
SPLINE
  5
161
100
AcDbEntity
  8
Layer_1
 62
7
100
AcDbSpline
 70
8
 71
3
 72
8
 73
4
 74
0
 40
0
 40
0
 40
0
 40
0
 40
1
 40
1
 40
1
 40
1
 10
67.017638
 20
94.999998
 30
0.0
 10
67.017638
 20
93.882311
 30
0.0
 10
66.114311
 20
92.976247
 30
0.0
 10
65.000000
 20
92.976247
 30
0.0
  0
LINE
  5
162
100
AcDbEntity
  8
Layer_1
 62
7
100
AcDbLine
 10
65.000000
 20
92.976247
 30
0.0
 11
65.000000
 21
92.976247
 31
0.0
  0
ENDSEC
  0
SECTION
  2
OBJECTS
  0
DICTIONARY
  5
C
330
0
100
AcDbDictionary
  3
ACAD_GROUP
350
D
  3
ACAD_MLINESTYLE
350
17
  0
DICTIONARY
  5
D
330
C
100
AcDbDictionary
  0
DICTIONARY
  5
1A
330
C
100
AcDbDictionary
  0
DICTIONARY
  5
17
330
C
100
AcDbDictionary
  3
STANDARD
350
18
  0
DICTIONARY
  5
19
330
C
100
AcDbDictionary
  0
ENDSEC
  0
EOF
