  0
SECTION
  2
HEADER
  9
$ACADVER
  1
AC1014
  9
$HANDSEED
  5
FFFF
  9
$MEASUREMENT
 70
     1
  0
ENDSEC
  0
SECTION
  2
TABLES
  0
TABLE
  2
VPORT
  5
8
330
0
100
AcDbSymbolTable
 70
     4
  0
VPORT
  5
2E
330
8
100
AcDbSymbolTableRecord
100
AcDbViewportTableRecord
  2
*ACTIVE
 70
     0
 10
0.0
 20
0.0
 11
1.0
 21
1.0
 12
210.0
 22
148.5
 13
0.0
 23
0.0
 14
10.0
 24
10.0
 15
10.0
 25
10.0
 16
0.0
 26
0.0
 36
1.0
 17
0.0
 27
0.0
 37
0.0
 40
341.0
 41
1.24
 42
50.0
 43
0.0
 44
0.0
 50
0.0
 51
0.0
 71
     0
 72
   100
 73
     1
 74
     3
 75
     0
 76
     0
 77
     0
 78
     0
  0
ENDTAB
  0
TABLE
  2
LTYPE
  5
5
330
0
100
AcDbSymbolTable
 70
     1
  0
LTYPE
  5
14
330
5
100
AcDbSymbolTableRecord
100
AcDbLinetypeTableRecord
  2
BYBLOCK
 70
     0
  3

 72
    65
 73
     0
 40
0.0
  0
LTYPE
  5
15
330
5
100
AcDbSymbolTableRecord
100
AcDbLinetypeTableRecord
  2
BYLAYER
 70
     0
  3

 72
    65
 73
     0
 40
0.0
  0
LTYPE
  5
16
330
5
100
AcDbSymbolTableRecord
100
AcDbLinetypeTableRecord
  2
CONTINUOUS
 70
     0
  3
Solid line
 72
    65
 73
     0
 40
0.0
  0
ENDTAB
  0
TABLE
  2
LAYER
  5
2
100
AcDbSymbolTable
 70
2
  0
LAYER
  5
50
100
AcDbSymbolTableRecord
100
AcDbLayerTableRecord
  2
0
 70
0
  6
CONTINUOUS
  0
LAYER
  5
51
100
AcDbSymbolTableRecord
100
AcDbLayerTableRecord
  2
Layer_1
 70
0
  6
CONTINUOUS
  0
ENDTAB
  0
TABLE
  2
STYLE
  5
3
330
0
100
AcDbSymbolTable
 70
     1
  0
STYLE
  5
11
330
3
100
AcDbSymbolTableRecord
100
AcDbTextStyleTableRecord
  2
STANDARD
 70
     0
 40
0.0
 41
1.0
 50
0.0
 71
     0
 42
2.5
  3
txt
  4

  0
ENDTAB
  0
TABLE
  2
VIEW
  5
6
330
0
100
AcDbSymbolTable
 70
     0
  0
ENDTAB
  0
TABLE
  2
UCS
  5
7
330
0
100
AcDbSymbolTable
 70
     0
  0
ENDTAB
  0
TABLE
  2
APPID
  5
9
330
0
100
AcDbSymbolTable
 70
     2
  0
APPID
  5
12
330
9
100
AcDbSymbolTableRecord
100
AcDbRegAppTableRecord
  2
ACAD
 70
     0
  0
ENDTAB
  0
TABLE
  2
DIMSTYLE
  5
A
330
0
100
AcDbSymbolTable
 70
     1
  0
DIMSTYLE
105
27
330
A
100
AcDbSymbolTableRecord
100
AcDbDimStyleTableRecord
  2
ISO-25
 70
     0
  3

  4

  5

  6

  7

 40
1.0
 41
2.5
 42
0.625
 43
3.75
 44
1.25
 45
0.0
 46
0.0
 47
0.0
 48
0.0
140
2.5
141
2.5
142
0.0
143
0.03937007874016
144
1.0
145
0.0
146
1.0
147
0.625
 71
     0
 72
     0
 73
     0
 74
     0
 75
     0
 76
     0
 77
     1
 78
     8
170
     0
171
     3
172
     1
173
     0
174
     0
175
     0
176
     0
177
     0
178
     0
270
     2
271
     2
272
     2
273
     2
274
     3
340
11
275
     0
280
     0
281
     0
282
     0
283
     0
284
     8
285
     0
286
     0
287
     3
288
     0
  0
ENDTAB
  0
TABLE
  2
BLOCK_RECORD
  5
1
330
0
100
AcDbSymbolTable
 70
     1
  0
BLOCK_RECORD
  5
1F
330
1
100
AcDbSymbolTableRecord
100
AcDbBlockTableRecord
  2
*MODEL_SPACE
  0
BLOCK_RECORD
  5
1B
330
1
100
AcDbSymbolTableRecord
100
AcDbBlockTableRecord
  2
*PAPER_SPACE
  0
ENDTAB
  0
ENDSEC
  0
SECTION
  2
BLOCKS
  0
BLOCK
  5
20
330
1F
100
AcDbEntity
  8
0
100
AcDbBlockBegin
  2
*MODEL_SPACE
 70
     0
 10
0.0
 20
0.0
 30
0.0
  3
*MODEL_SPACE
  1

  0
ENDBLK
  5
21
330
1F
100
AcDbEntity
  8
0
100
AcDbBlockEnd
  0
BLOCK
  5
1C
330
1B
100
AcDbEntity
 67
     1
  8
0
100
AcDbBlockBegin
  2
*PAPER_SPACE
  1

  0
ENDBLK
  5
1D
330
1B
100
AcDbEntity
 67
     1
  8
0
100
AcDbBlockEnd
  0
ENDSEC
  0
SECTION
  2
ENTITIES
  0
SPLINE
  5
100
100
AcDbEntity
  8
Layer_1
 62
7
100
AcDbSpline
 70
8
 71
3
 72
8
 73
4
 74
0
 40
0
 40
0
 40
0
 40
0
 40
1
 40
1
 40
1
 40
1
 10
12.000000
 20
22.999999
 30
0.0
 10
10.000000
 20
22.999999
 30
0.0
 10
9.000000
 20
24.000000
 30
0.0
 10
9.000000
 20
25.999999
 30
0.0
  0
LINE
  5
101
100
AcDbEntity
  8
Layer_1
 62
7
100
AcDbLine
 10
9.000000
 20
25.999999
 30
0.0
 11
9.000000
 21
43.999999
 31
0.0
  0
SPLINE
  5
102
100
AcDbEntity
  8
Layer_1
 62
7
100
AcDbSpline
 70
8
 71
3
 72
8
 73
4
 74
0
 40
0
 40
0
 40
0
 40
0
 40
1
 40
1
 40
1
 40
1
 10
9.000000
 20
43.999999
 30
0.0
 10
9.000000
 20
45.999998
 30
0.0
 10
10.000000
 20
46.999999
 30
0.0
 10
12.000000
 20
46.999999
 30
0.0
  0
LINE
  5
103
100
AcDbEntity
  8
Layer_1
 62
7
100
AcDbLine
 10
12.000000
 20
46.999999
 30
0.0
 11
21.999999
 21
47.000002
 31
0.0
  0
LINE
  5
104
100
AcDbEntity
  8
Layer_1
 62
7
100
AcDbLine
 10
21.999999
 20
47.000002
 30
0.0
 11
22.000000
 21
31.000000
 31
0.0
  0
LINE
  5
105
100
AcDbEntity
  8
Layer_1
 62
7
100
AcDbLine
 10
22.000000
 20
31.000000
 30
0.0
 11
53.999999
 21
30.999997
 31
0.0
  0
LINE
  5
106
100
AcDbEntity
  8
Layer_1
 62
7
100
AcDbLine
 10
53.999999
 20
30.999997
 30
0.0
 11
53.999999
 21
46.999999
 31
0.0
  0
LINE
  5
107
100
AcDbEntity
  8
Layer_1
 62
7
100
AcDbLine
 10
53.999999
 20
46.999999
 30
0.0
 11
63.999999
 21
46.999996
 31
0.0
  0
SPLINE
  5
108
100
AcDbEntity
  8
Layer_1
 62
7
100
AcDbSpline
 70
8
 71
3
 72
8
 73
4
 74
0
 40
0
 40
0
 40
0
 40
0
 40
1
 40
1
 40
1
 40
1
 10
63.999999
 20
46.999996
 30
0.0
 10
66.000001
 20
46.999999
 30
0.0
 10
66.999999
 20
45.999998
 30
0.0
 10
66.999999
 20
43.999997
 30
0.0
  0
LINE
  5
109
100
AcDbEntity
  8
Layer_1
 62
7
100
AcDbLine
 10
66.999999
 20
43.999997
 30
0.0
 11
66.999999
 21
25.999996
 31
0.0
  0
SPLINE
  5
10a
100
AcDbEntity
  8
Layer_1
 62
7
100
AcDbSpline
 70
8
 71
3
 72
8
 73
4
 74
0
 40
0
 40
0
 40
0
 40
0
 40
1
 40
1
 40
1
 40
1
 10
66.999999
 20
25.999996
 30
0.0
 10
66.999999
 20
24.000000
 30
0.0
 10
66.000001
 20
22.999999
 30
0.0
 10
63.999999
 20
22.999996
 30
0.0
  0
LINE
  5
10b
100
AcDbEntity
  8
Layer_1
 62
7
100
AcDbLine
 10
63.999999
 20
22.999996
 30
0.0
 11
12.000000
 21
22.999999
 31
0.0
  0
SPLINE
  5
10c
100
AcDbEntity
  8
Layer_1
 62
1
100
AcDbSpline
 70
8
 71
3
 72
8
 73
4
 74
0
 40
0
 40
0
 40
0
 40
0
 40
1
 40
1
 40
1
 40
1
 10
58.999998
 20
35.000002
 30
0.0
 10
58.999998
 20
33.895430
 30
0.0
 10
58.104569
 20
33.000001
 30
0.0
 10
57.000002
 20
33.000001
 30
0.0
  0
SPLINE
  5
10d
100
AcDbEntity
  8
Layer_1
 62
1
100
AcDbSpline
 70
8
 71
3
 72
8
 73
4
 74
0
 40
0
 40
0
 40
0
 40
0
 40
1
 40
1
 40
1
 40
1
 10
57.000002
 20
33.000001
 30
0.0
 10
55.895430
 20
33.000001
 30
0.0
 10
55.000001
 20
33.895430
 30
0.0
 10
55.000001
 20
35.000002
 30
0.0
  0
SPLINE
  5
10e
100
AcDbEntity
  8
Layer_1
 62
1
100
AcDbSpline
 70
8
 71
3
 72
8
 73
4
 74
0
 40
0
 40
0
 40
0
 40
0
 40
1
 40
1
 40
1
 40
1
 10
55.000001
 20
35.000002
 30
0.0
 10
55.000001
 20
36.104569
 30
0.0
 10
55.895430
 20
36.999998
 30
0.0
 10
57.000002
 20
36.999998
 30
0.0
  0
SPLINE
  5
10f
100
AcDbEntity
  8
Layer_1
 62
1
100
AcDbSpline
 70
8
 71
3
 72
8
 73
4
 74
0
 40
0
 40
0
 40
0
 40
0
 40
1
 40
1
 40
1
 40
1
 10
57.000002
 20
36.999998
 30
0.0
 10
58.104569
 20
36.999998
 30
0.0
 10
58.999998
 20
36.104569
 30
0.0
 10
58.999998
 20
35.000002
 30
0.0
  0
LINE
  5
110
100
AcDbEntity
  8
Layer_1
 62
1
100
AcDbLine
 10
58.999998
 20
35.000002
 30
0.0
 11
58.999998
 21
35.000002
 31
0.0
  0
SPLINE
  5
111
100
AcDbEntity
  8
Layer_1
 62
1
100
AcDbSpline
 70
8
 71
3
 72
8
 73
4
 74
0
 40
0
 40
0
 40
0
 40
0
 40
1
 40
1
 40
1
 40
1
 10
20.999998
 20
35.000002
 30
0.0
 10
20.999998
 20
33.895430
 30
0.0
 10
20.104568
 20
33.000001
 30
0.0
 10
19.000002
 20
33.000001
 30
0.0
  0
SPLINE
  5
112
100
AcDbEntity
  8
Layer_1
 62
1
100
AcDbSpline
 70
8
 71
3
 72
8
 73
4
 74
0
 40
0
 40
0
 40
0
 40
0
 40
1
 40
1
 40
1
 40
1
 10
19.000002
 20
33.000001
 30
0.0
 10
17.895429
 20
33.000001
 30
0.0
 10
17.000000
 20
33.895430
 30
0.0
 10
17.000000
 20
35.000002
 30
0.0
  0
SPLINE
  5
113
100
AcDbEntity
  8
Layer_1
 62
1
100
AcDbSpline
 70
8
 71
3
 72
8
 73
4
 74
0
 40
0
 40
0
 40
0
 40
0
 40
1
 40
1
 40
1
 40
1
 10
17.000000
 20
35.000002
 30
0.0
 10
17.000000
 20
36.104569
 30
0.0
 10
17.895429
 20
36.999998
 30
0.0
 10
19.000002
 20
36.999998
 30
0.0
  0
SPLINE
  5
114
100
AcDbEntity
  8
Layer_1
 62
1
100
AcDbSpline
 70
8
 71
3
 72
8
 73
4
 74
0
 40
0
 40
0
 40
0
 40
0
 40
1
 40
1
 40
1
 40
1
 10
19.000002
 20
36.999998
 30
0.0
 10
20.104568
 20
36.999998
 30
0.0
 10
20.999998
 20
36.104569
 30
0.0
 10
20.999998
 20
35.000002
 30
0.0
  0
LINE
  5
115
100
AcDbEntity
  8
Layer_1
 62
1
100
AcDbLine
 10
20.999998
 20
35.000002
 30
0.0
 11
20.999998
 21
35.000002
 31
0.0
  0
SPLINE
  5
116
100
AcDbEntity
  8
Layer_1
 62
1
100
AcDbSpline
 70
8
 71
3
 72
8
 73
4
 74
0
 40
0
 40
0
 40
0
 40
0
 40
1
 40
1
 40
1
 40
1
 10
58.999997
 20
43.000000
 30
0.0
 10
58.999997
 20
41.895428
 30
0.0
 10
58.104568
 20
40.999999
 30
0.0
 10
57.000001
 20
40.999999
 30
0.0
  0
SPLINE
  5
117
100
AcDbEntity
  8
Layer_1
 62
1
100
AcDbSpline
 70
8
 71
3
 72
8
 73
4
 74
0
 40
0
 40
0
 40
0
 40
0
 40
1
 40
1
 40
1
 40
1
 10
57.000001
 20
40.999999
 30
0.0
 10
55.895429
 20
40.999999
 30
0.0
 10
55.000000
 20
41.895428
 30
0.0
 10
55.000000
 20
43.000000
 30
0.0
  0
SPLINE
  5
118
100
AcDbEntity
  8
Layer_1
 62
1
100
AcDbSpline
 70
8
 71
3
 72
8
 73
4
 74
0
 40
0
 40
0
 40
0
 40
0
 40
1
 40
1
 40
1
 40
1
 10
55.000000
 20
43.000000
 30
0.0
 10
55.000000
 20
44.104567
 30
0.0
 10
55.895429
 20
44.999996
 30
0.0
 10
57.000001
 20
44.999996
 30
0.0
  0
SPLINE
  5
119
100
AcDbEntity
  8
Layer_1
 62
1
100
AcDbSpline
 70
8
 71
3
 72
8
 73
4
 74
0
 40
0
 40
0
 40
0
 40
0
 40
1
 40
1
 40
1
 40
1
 10
57.000001
 20
44.999996
 30
0.0
 10
58.104568
 20
44.999996
 30
0.0
 10
58.999997
 20
44.104567
 30
0.0
 10
58.999997
 20
43.000000
 30
0.0
  0
LINE
  5
11a
100
AcDbEntity
  8
Layer_1
 62
1
100
AcDbLine
 10
58.999997
 20
43.000000
 30
0.0
 11
58.999997
 21
43.000000
 31
0.0
  0
SPLINE
  5
11b
100
AcDbEntity
  8
Layer_1
 62
1
100
AcDbSpline
 70
8
 71
3
 72
8
 73
4
 74
0
 40
0
 40
0
 40
0
 40
0
 40
1
 40
1
 40
1
 40
1
 10
20.999998
 20
43.000000
 30
0.0
 10
20.999998
 20
41.895428
 30
0.0
 10
20.104568
 20
40.999999
 30
0.0
 10
19.000002
 20
40.999999
 30
0.0
  0
SPLINE
  5
11c
100
AcDbEntity
  8
Layer_1
 62
1
100
AcDbSpline
 70
8
 71
3
 72
8
 73
4
 74
0
 40
0
 40
0
 40
0
 40
0
 40
1
 40
1
 40
1
 40
1
 10
19.000002
 20
40.999999
 30
0.0
 10
17.895429
 20
40.999999
 30
0.0
 10
17.000000
 20
41.895428
 30
0.0
 10
17.000000
 20
43.000000
 30
0.0
  0
SPLINE
  5
11d
100
AcDbEntity
  8
Layer_1
 62
1
100
AcDbSpline
 70
8
 71
3
 72
8
 73
4
 74
0
 40
0
 40
0
 40
0
 40
0
 40
1
 40
1
 40
1
 40
1
 10
17.000000
 20
43.000000
 30
0.0
 10
17.000000
 20
44.104567
 30
0.0
 10
17.895429
 20
44.999996
 30
0.0
 10
19.000002
 20
44.999996
 30
0.0
  0
SPLINE
  5
11e
100
AcDbEntity
  8
Layer_1
 62
1
100
AcDbSpline
 70
8
 71
3
 72
8
 73
4
 74
0
 40
0
 40
0
 40
0
 40
0
 40
1
 40
1
 40
1
 40
1
 10
19.000002
 20
44.999996
 30
0.0
 10
20.104568
 20
44.999996
 30
0.0
 10
20.999998
 20
44.104567
 30
0.0
 10
20.999998
 20
43.000000
 30
0.0
  0
LINE
  5
11f
100
AcDbEntity
  8
Layer_1
 62
1
100
AcDbLine
 10
20.999998
 20
43.000000
 30
0.0
 11
20.999998
 21
43.000000
 31
0.0
  0
SPLINE
  5
120
100
AcDbEntity
  8
Layer_1
 62
1
100
AcDbSpline
 70
8
 71
3
 72
8
 73
4
 74
0
 40
0
 40
0
 40
0
 40
0
 40
1
 40
1
 40
1
 40
1
 10
64.999999
 20
37.000001
 30
0.0
 10
65.000778
 20
36.284952
 30
0.0
 10
64.619750
 20
35.623886
 30
0.0
 10
64.000629
 20
35.266136
 30
0.0
  0
SPLINE
  5
121
100
AcDbEntity
  8
Layer_1
 62
1
100
AcDbSpline
 70
8
 71
3
 72
8
 73
4
 74
0
 40
0
 40
0
 40
0
 40
0
 40
1
 40
1
 40
1
 40
1
 10
64.000629
 20
35.266136
 30
0.0
 10
63.381507
 20
34.908387
 30
0.0
 10
62.618493
 20
34.908387
 30
0.0
 10
61.999372
 20
35.266136
 30
0.0
  0
SPLINE
  5
122
100
AcDbEntity
  8
Layer_1
 62
1
100
AcDbSpline
 70
8
 71
3
 72
8
 73
4
 74
0
 40
0
 40
0
 40
0
 40
0
 40
1
 40
1
 40
1
 40
1
 10
61.999372
 20
35.266136
 30
0.0
 10
61.380250
 20
35.623886
 30
0.0
 10
60.999223
 20
36.284952
 30
0.0
 10
61.000002
 20
37.000001
 30
0.0
  0
SPLINE
  5
123
100
AcDbEntity
  8
Layer_1
 62
1
100
AcDbSpline
 70
8
 71
3
 72
8
 73
4
 74
0
 40
0
 40
0
 40
0
 40
0
 40
1
 40
1
 40
1
 40
1
 10
61.000002
 20
37.000001
 30
0.0
 10
60.999223
 20
37.715050
 30
0.0
 10
61.380250
 20
38.376116
 30
0.0
 10
61.999372
 20
38.733866
 30
0.0
  0
SPLINE
  5
124
100
AcDbEntity
  8
Layer_1
 62
1
100
AcDbSpline
 70
8
 71
3
 72
8
 73
4
 74
0
 40
0
 40
0
 40
0
 40
0
 40
1
 40
1
 40
1
 40
1
 10
61.999372
 20
38.733866
 30
0.0
 10
62.618493
 20
39.091615
 30
0.0
 10
63.381507
 20
39.091615
 30
0.0
 10
64.000629
 20
38.733866
 30
0.0
  0
SPLINE
  5
125
100
AcDbEntity
  8
Layer_1
 62
1
100
AcDbSpline
 70
8
 71
3
 72
8
 73
4
 74
0
 40
0
 40
0
 40
0
 40
0
 40
1
 40
1
 40
1
 40
1
 10
64.000629
 20
38.733866
 30
0.0
 10
64.619750
 20
38.376116
 30
0.0
 10
65.000778
 20
37.715050
 30
0.0
 10
64.999999
 20
37.000001
 30
0.0
  0
LINE
  5
126
100
AcDbEntity
  8
Layer_1
 62
1
100
AcDbLine
 10
64.999999
 20
37.000001
 30
0.0
 11
64.999999
 21
37.000001
 31
0.0
  0
SPLINE
  5
127
100
AcDbEntity
  8
Layer_1
 62
1
100
AcDbSpline
 70
8
 71
3
 72
8
 73
4
 74
0
 40
0
 40
0
 40
0
 40
0
 40
1
 40
1
 40
1
 40
1
 10
64.999998
 20
27.000001
 30
0.0
 10
65.000777
 20
26.284952
 30
0.0
 10
64.619750
 20
25.623886
 30
0.0
 10
64.000628
 20
25.266137
 30
0.0
  0
SPLINE
  5
128
100
AcDbEntity
  8
Layer_1
 62
1
100
AcDbSpline
 70
8
 71
3
 72
8
 73
4
 74
0
 40
0
 40
0
 40
0
 40
0
 40
1
 40
1
 40
1
 40
1
 10
64.000628
 20
25.266137
 30
0.0
 10
63.381507
 20
24.908387
 30
0.0
 10
62.618493
 20
24.908387
 30
0.0
 10
61.999371
 20
25.266137
 30
0.0
  0
SPLINE
  5
129
100
AcDbEntity
  8
Layer_1
 62
1
100
AcDbSpline
 70
8
 71
3
 72
8
 73
4
 74
0
 40
0
 40
0
 40
0
 40
0
 40
1
 40
1
 40
1
 40
1
 10
61.999371
 20
25.266137
 30
0.0
 10
61.380250
 20
25.623886
 30
0.0
 10
60.999222
 20
26.284952
 30
0.0
 10
61.000001
 20
27.000001
 30
0.0
  0
SPLINE
  5
12a
100
AcDbEntity
  8
Layer_1
 62
1
100
AcDbSpline
 70
8
 71
3
 72
8
 73
4
 74
0
 40
0
 40
0
 40
0
 40
0
 40
1
 40
1
 40
1
 40
1
 10
61.000001
 20
27.000001
 30
0.0
 10
60.999222
 20
27.715051
 30
0.0
 10
61.380250
 20
28.376117
 30
0.0
 10
61.999371
 20
28.733866
 30
0.0
  0
SPLINE
  5
12b
100
AcDbEntity
  8
Layer_1
 62
1
100
AcDbSpline
 70
8
 71
3
 72
8
 73
4
 74
0
 40
0
 40
0
 40
0
 40
0
 40
1
 40
1
 40
1
 40
1
 10
61.999371
 20
28.733866
 30
0.0
 10
62.618493
 20
29.091616
 30
0.0
 10
63.381507
 20
29.091616
 30
0.0
 10
64.000628
 20
28.733866
 30
0.0
  0
SPLINE
  5
12c
100
AcDbEntity
  8
Layer_1
 62
1
100
AcDbSpline
 70
8
 71
3
 72
8
 73
4
 74
0
 40
0
 40
0
 40
0
 40
0
 40
1
 40
1
 40
1
 40
1
 10
64.000628
 20
28.733866
 30
0.0
 10
64.619750
 20
28.376117
 30
0.0
 10
65.000777
 20
27.715051
 30
0.0
 10
64.999998
 20
27.000001
 30
0.0
  0
LINE
  5
12d
100
AcDbEntity
  8
Layer_1
 62
1
100
AcDbLine
 10
64.999998
 20
27.000001
 30
0.0
 11
64.999998
 21
27.000001
 31
0.0
  0
SPLINE
  5
12e
100
AcDbEntity
  8
Layer_1
 62
1
100
AcDbSpline
 70
8
 71
3
 72
8
 73
4
 74
0
 40
0
 40
0
 40
0
 40
0
 40
1
 40
1
 40
1
 40
1
 10
54.999998
 20
27.000001
 30
0.0
 10
55.000777
 20
26.284952
 30
0.0
 10
54.619750
 20
25.623886
 30
0.0
 10
54.000628
 20
25.266137
 30
0.0
  0
SPLINE
  5
12f
100
AcDbEntity
  8
Layer_1
 62
1
100
AcDbSpline
 70
8
 71
3
 72
8
 73
4
 74
0
 40
0
 40
0
 40
0
 40
0
 40
1
 40
1
 40
1
 40
1
 10
54.000628
 20
25.266137
 30
0.0
 10
53.381507
 20
24.908387
 30
0.0
 10
52.618493
 20
24.908387
 30
0.0
 10
51.999371
 20
25.266137
 30
0.0
  0
SPLINE
  5
130
100
AcDbEntity
  8
Layer_1
 62
1
100
AcDbSpline
 70
8
 71
3
 72
8
 73
4
 74
0
 40
0
 40
0
 40
0
 40
0
 40
1
 40
1
 40
1
 40
1
 10
51.999371
 20
25.266137
 30
0.0
 10
51.380250
 20
25.623886
 30
0.0
 10
50.999222
 20
26.284952
 30
0.0
 10
51.000001
 20
27.000001
 30
0.0
  0
SPLINE
  5
131
100
AcDbEntity
  8
Layer_1
 62
1
100
AcDbSpline
 70
8
 71
3
 72
8
 73
4
 74
0
 40
0
 40
0
 40
0
 40
0
 40
1
 40
1
 40
1
 40
1
 10
51.000001
 20
27.000001
 30
0.0
 10
50.999222
 20
27.715051
 30
0.0
 10
51.380250
 20
28.376117
 30
0.0
 10
51.999371
 20
28.733866
 30
0.0
  0
SPLINE
  5
132
100
AcDbEntity
  8
Layer_1
 62
1
100
AcDbSpline
 70
8
 71
3
 72
8
 73
4
 74
0
 40
0
 40
0
 40
0
 40
0
 40
1
 40
1
 40
1
 40
1
 10
51.999371
 20
28.733866
 30
0.0
 10
52.618493
 20
29.091616
 30
0.0
 10
53.381507
 20
29.091616
 30
0.0
 10
54.000628
 20
28.733866
 30
0.0
  0
SPLINE
  5
133
100
AcDbEntity
  8
Layer_1
 62
1
100
AcDbSpline
 70
8
 71
3
 72
8
 73
4
 74
0
 40
0
 40
0
 40
0
 40
0
 40
1
 40
1
 40
1
 40
1
 10
54.000628
 20
28.733866
 30
0.0
 10
54.619750
 20
28.376117
 30
0.0
 10
55.000777
 20
27.715051
 30
0.0
 10
54.999998
 20
27.000001
 30
0.0
  0
LINE
  5
134
100
AcDbEntity
  8
Layer_1
 62
1
100
AcDbLine
 10
54.999998
 20
27.000001
 30
0.0
 11
54.999998
 21
27.000001
 31
0.0
  0
SPLINE
  5
135
100
AcDbEntity
  8
Layer_1
 62
1
100
AcDbSpline
 70
8
 71
3
 72
8
 73
4
 74
0
 40
0
 40
0
 40
0
 40
0
 40
1
 40
1
 40
1
 40
1
 10
44.999997
 20
27.000001
 30
0.0
 10
45.000776
 20
26.284952
 30
0.0
 10
44.619749
 20
25.623886
 30
0.0
 10
44.000627
 20
25.266137
 30
0.0
  0
SPLINE
  5
136
100
AcDbEntity
  8
Layer_1
 62
1
100
AcDbSpline
 70
8
 71
3
 72
8
 73
4
 74
0
 40
0
 40
0
 40
0
 40
0
 40
1
 40
1
 40
1
 40
1
 10
44.000627
 20
25.266137
 30
0.0
 10
43.381506
 20
24.908387
 30
0.0
 10
42.618492
 20
24.908387
 30
0.0
 10
41.999370
 20
25.266137
 30
0.0
  0
SPLINE
  5
137
100
AcDbEntity
  8
Layer_1
 62
1
100
AcDbSpline
 70
8
 71
3
 72
8
 73
4
 74
0
 40
0
 40
0
 40
0
 40
0
 40
1
 40
1
 40
1
 40
1
 10
41.999370
 20
25.266137
 30
0.0
 10
41.380249
 20
25.623886
 30
0.0
 10
40.999221
 20
26.284952
 30
0.0
 10
41.000000
 20
27.000001
 30
0.0
  0
SPLINE
  5
138
100
AcDbEntity
  8
Layer_1
 62
1
100
AcDbSpline
 70
8
 71
3
 72
8
 73
4
 74
0
 40
0
 40
0
 40
0
 40
0
 40
1
 40
1
 40
1
 40
1
 10
41.000000
 20
27.000001
 30
0.0
 10
40.999221
 20
27.715051
 30
0.0
 10
41.380249
 20
28.376117
 30
0.0
 10
41.999370
 20
28.733866
 30
0.0
  0
SPLINE
  5
139
100
AcDbEntity
  8
Layer_1
 62
1
100
AcDbSpline
 70
8
 71
3
 72
8
 73
4
 74
0
 40
0
 40
0
 40
0
 40
0
 40
1
 40
1
 40
1
 40
1
 10
41.999370
 20
28.733866
 30
0.0
 10
42.618492
 20
29.091616
 30
0.0
 10
43.381506
 20
29.091616
 30
0.0
 10
44.000627
 20
28.733866
 30
0.0
  0
SPLINE
  5
13a
100
AcDbEntity
  8
Layer_1
 62
1
100
AcDbSpline
 70
8
 71
3
 72
8
 73
4
 74
0
 40
0
 40
0
 40
0
 40
0
 40
1
 40
1
 40
1
 40
1
 10
44.000627
 20
28.733866
 30
0.0
 10
44.619749
 20
28.376117
 30
0.0
 10
45.000776
 20
27.715051
 30
0.0
 10
44.999997
 20
27.000001
 30
0.0
  0
LINE
  5
13b
100
AcDbEntity
  8
Layer_1
 62
1
100
AcDbLine
 10
44.999997
 20
27.000001
 30
0.0
 11
44.999997
 21
27.000001
 31
0.0
  0
SPLINE
  5
13c
100
AcDbEntity
  8
Layer_1
 62
1
100
AcDbSpline
 70
8
 71
3
 72
8
 73
4
 74
0
 40
0
 40
0
 40
0
 40
0
 40
1
 40
1
 40
1
 40
1
 10
34.999998
 20
27.000001
 30
0.0
 10
35.000776
 20
26.284952
 30
0.0
 10
34.619749
 20
25.623886
 30
0.0
 10
34.000627
 20
25.266137
 30
0.0
  0
SPLINE
  5
13d
100
AcDbEntity
  8
Layer_1
 62
1
100
AcDbSpline
 70
8
 71
3
 72
8
 73
4
 74
0
 40
0
 40
0
 40
0
 40
0
 40
1
 40
1
 40
1
 40
1
 10
34.000627
 20
25.266137
 30
0.0
 10
33.381506
 20
24.908387
 30
0.0
 10
32.618492
 20
24.908387
 30
0.0
 10
31.999370
 20
25.266137
 30
0.0
  0
SPLINE
  5
13e
100
AcDbEntity
  8
Layer_1
 62
1
100
AcDbSpline
 70
8
 71
3
 72
8
 73
4
 74
0
 40
0
 40
0
 40
0
 40
0
 40
1
 40
1
 40
1
 40
1
 10
31.999370
 20
25.266137
 30
0.0
 10
31.380249
 20
25.623886
 30
0.0
 10
30.999222
 20
26.284952
 30
0.0
 10
31.000000
 20
27.000001
 30
0.0
  0
SPLINE
  5
13f
100
AcDbEntity
  8
Layer_1
 62
1
100
AcDbSpline
 70
8
 71
3
 72
8
 73
4
 74
0
 40
0
 40
0
 40
0
 40
0
 40
1
 40
1
 40
1
 40
1
 10
31.000000
 20
27.000001
 30
0.0
 10
30.999222
 20
27.715051
 30
0.0
 10
31.380249
 20
28.376117
 30
0.0
 10
31.999370
 20
28.733866
 30
0.0
  0
SPLINE
  5
140
100
AcDbEntity
  8
Layer_1
 62
1
100
AcDbSpline
 70
8
 71
3
 72
8
 73
4
 74
0
 40
0
 40
0
 40
0
 40
0
 40
1
 40
1
 40
1
 40
1
 10
31.999370
 20
28.733866
 30
0.0
 10
32.618492
 20
29.091616
 30
0.0
 10
33.381506
 20
29.091616
 30
0.0
 10
34.000627
 20
28.733866
 30
0.0
  0
SPLINE
  5
141
100
AcDbEntity
  8
Layer_1
 62
1
100
AcDbSpline
 70
8
 71
3
 72
8
 73
4
 74
0
 40
0
 40
0
 40
0
 40
0
 40
1
 40
1
 40
1
 40
1
 10
34.000627
 20
28.733866
 30
0.0
 10
34.619749
 20
28.376117
 30
0.0
 10
35.000776
 20
27.715051
 30
0.0
 10
34.999998
 20
27.000001
 30
0.0
  0
LINE
  5
142
100
AcDbEntity
  8
Layer_1
 62
1
100
AcDbLine
 10
34.999998
 20
27.000001
 30
0.0
 11
34.999998
 21
27.000001
 31
0.0
  0
SPLINE
  5
143
100
AcDbEntity
  8
Layer_1
 62
1
100
AcDbSpline
 70
8
 71
3
 72
8
 73
4
 74
0
 40
0
 40
0
 40
0
 40
0
 40
1
 40
1
 40
1
 40
1
 10
24.999998
 20
27.000001
 30
0.0
 10
25.000776
 20
26.284952
 30
0.0
 10
24.619749
 20
25.623886
 30
0.0
 10
24.000628
 20
25.266137
 30
0.0
  0
SPLINE
  5
144
100
AcDbEntity
  8
Layer_1
 62
1
100
AcDbSpline
 70
8
 71
3
 72
8
 73
4
 74
0
 40
0
 40
0
 40
0
 40
0
 40
1
 40
1
 40
1
 40
1
 10
24.000628
 20
25.266137
 30
0.0
 10
23.381506
 20
24.908387
 30
0.0
 10
22.618492
 20
24.908387
 30
0.0
 10
21.999371
 20
25.266137
 30
0.0
  0
SPLINE
  5
145
100
AcDbEntity
  8
Layer_1
 62
1
100
AcDbSpline
 70
8
 71
3
 72
8
 73
4
 74
0
 40
0
 40
0
 40
0
 40
0
 40
1
 40
1
 40
1
 40
1
 10
21.999371
 20
25.266137
 30
0.0
 10
21.380249
 20
25.623886
 30
0.0
 10
20.999222
 20
26.284952
 30
0.0
 10
21.000000
 20
27.000001
 30
0.0
  0
SPLINE
  5
146
100
AcDbEntity
  8
Layer_1
 62
1
100
AcDbSpline
 70
8
 71
3
 72
8
 73
4
 74
0
 40
0
 40
0
 40
0
 40
0
 40
1
 40
1
 40
1
 40
1
 10
21.000000
 20
27.000001
 30
0.0
 10
20.999222
 20
27.715051
 30
0.0
 10
21.380249
 20
28.376117
 30
0.0
 10
21.999371
 20
28.733866
 30
0.0
  0
SPLINE
  5
147
100
AcDbEntity
  8
Layer_1
 62
1
100
AcDbSpline
 70
8
 71
3
 72
8
 73
4
 74
0
 40
0
 40
0
 40
0
 40
0
 40
1
 40
1
 40
1
 40
1
 10
21.999371
 20
28.733866
 30
0.0
 10
22.618492
 20
29.091616
 30
0.0
 10
23.381506
 20
29.091616
 30
0.0
 10
24.000628
 20
28.733866
 30
0.0
  0
SPLINE
  5
148
100
AcDbEntity
  8
Layer_1
 62
1
100
AcDbSpline
 70
8
 71
3
 72
8
 73
4
 74
0
 40
0
 40
0
 40
0
 40
0
 40
1
 40
1
 40
1
 40
1
 10
24.000628
 20
28.733866
 30
0.0
 10
24.619749
 20
28.376117
 30
0.0
 10
25.000776
 20
27.715051
 30
0.0
 10
24.999998
 20
27.000001
 30
0.0
  0
LINE
  5
149
100
AcDbEntity
  8
Layer_1
 62
1
100
AcDbLine
 10
24.999998
 20
27.000001
 30
0.0
 11
24.999998
 21
27.000001
 31
0.0
  0
SPLINE
  5
14a
100
AcDbEntity
  8
Layer_1
 62
1
100
AcDbSpline
 70
8
 71
3
 72
8
 73
4
 74
0
 40
0
 40
0
 40
0
 40
0
 40
1
 40
1
 40
1
 40
1
 10
14.999998
 20
27.000001
 30
0.0
 10
15.000777
 20
26.284952
 30
0.0
 10
14.619749
 20
25.623886
 30
0.0
 10
14.000628
 20
25.266137
 30
0.0
  0
SPLINE
  5
14b
100
AcDbEntity
  8
Layer_1
 62
1
100
AcDbSpline
 70
8
 71
3
 72
8
 73
4
 74
0
 40
0
 40
0
 40
0
 40
0
 40
1
 40
1
 40
1
 40
1
 10
14.000628
 20
25.266137
 30
0.0
 10
13.381506
 20
24.908387
 30
0.0
 10
12.618492
 20
24.908387
 30
0.0
 10
11.999371
 20
25.266137
 30
0.0
  0
SPLINE
  5
14c
100
AcDbEntity
  8
Layer_1
 62
1
100
AcDbSpline
 70
8
 71
3
 72
8
 73
4
 74
0
 40
0
 40
0
 40
0
 40
0
 40
1
 40
1
 40
1
 40
1
 10
11.999371
 20
25.266137
 30
0.0
 10
11.380249
 20
25.623886
 30
0.0
 10
10.999222
 20
26.284952
 30
0.0
 10
11.000001
 20
27.000001
 30
0.0
  0
SPLINE
  5
14d
100
AcDbEntity
  8
Layer_1
 62
1
100
AcDbSpline
 70
8
 71
3
 72
8
 73
4
 74
0
 40
0
 40
0
 40
0
 40
0
 40
1
 40
1
 40
1
 40
1
 10
11.000001
 20
27.000001
 30
0.0
 10
10.999222
 20
27.715051
 30
0.0
 10
11.380249
 20
28.376117
 30
0.0
 10
11.999371
 20
28.733866
 30
0.0
  0
SPLINE
  5
14e
100
AcDbEntity
  8
Layer_1
 62
1
100
AcDbSpline
 70
8
 71
3
 72
8
 73
4
 74
0
 40
0
 40
0
 40
0
 40
0
 40
1
 40
1
 40
1
 40
1
 10
11.999371
 20
28.733866
 30
0.0
 10
12.618492
 20
29.091616
 30
0.0
 10
13.381506
 20
29.091616
 30
0.0
 10
14.000628
 20
28.733866
 30
0.0
  0
SPLINE
  5
14f
100
AcDbEntity
  8
Layer_1
 62
1
100
AcDbSpline
 70
8
 71
3
 72
8
 73
4
 74
0
 40
0
 40
0
 40
0
 40
0
 40
1
 40
1
 40
1
 40
1
 10
14.000628
 20
28.733866
 30
0.0
 10
14.619749
 20
28.376117
 30
0.0
 10
15.000777
 20
27.715051
 30
0.0
 10
14.999998
 20
27.000001
 30
0.0
  0
LINE
  5
150
100
AcDbEntity
  8
Layer_1
 62
1
100
AcDbLine
 10
14.999998
 20
27.000001
 30
0.0
 11
14.999998
 21
27.000001
 31
0.0
  0
SPLINE
  5
151
100
AcDbEntity
  8
Layer_1
 62
1
100
AcDbSpline
 70
8
 71
3
 72
8
 73
4
 74
0
 40
0
 40
0
 40
0
 40
0
 40
1
 40
1
 40
1
 40
1
 10
14.999998
 20
37.000001
 30
0.0
 10
15.000777
 20
36.284952
 30
0.0
 10
14.619749
 20
35.623886
 30
0.0
 10
14.000628
 20
35.266136
 30
0.0
  0
SPLINE
  5
152
100
AcDbEntity
  8
Layer_1
 62
1
100
AcDbSpline
 70
8
 71
3
 72
8
 73
4
 74
0
 40
0
 40
0
 40
0
 40
0
 40
1
 40
1
 40
1
 40
1
 10
14.000628
 20
35.266136
 30
0.0
 10
13.381506
 20
34.908387
 30
0.0
 10
12.618492
 20
34.908387
 30
0.0
 10
11.999371
 20
35.266136
 30
0.0
  0
SPLINE
  5
153
100
AcDbEntity
  8
Layer_1
 62
1
100
AcDbSpline
 70
8
 71
3
 72
8
 73
4
 74
0
 40
0
 40
0
 40
0
 40
0
 40
1
 40
1
 40
1
 40
1
 10
11.999371
 20
35.266136
 30
0.0
 10
11.380249
 20
35.623886
 30
0.0
 10
10.999222
 20
36.284952
 30
0.0
 10
11.000001
 20
37.000001
 30
0.0
  0
SPLINE
  5
154
100
AcDbEntity
  8
Layer_1
 62
1
100
AcDbSpline
 70
8
 71
3
 72
8
 73
4
 74
0
 40
0
 40
0
 40
0
 40
0
 40
1
 40
1
 40
1
 40
1
 10
11.000001
 20
37.000001
 30
0.0
 10
10.999222
 20
37.715050
 30
0.0
 10
11.380249
 20
38.376116
 30
0.0
 10
11.999371
 20
38.733866
 30
0.0
  0
SPLINE
  5
155
100
AcDbEntity
  8
Layer_1
 62
1
100
AcDbSpline
 70
8
 71
3
 72
8
 73
4
 74
0
 40
0
 40
0
 40
0
 40
0
 40
1
 40
1
 40
1
 40
1
 10
11.999371
 20
38.733866
 30
0.0
 10
12.618492
 20
39.091615
 30
0.0
 10
13.381506
 20
39.091615
 30
0.0
 10
14.000628
 20
38.733866
 30
0.0
  0
SPLINE
  5
156
100
AcDbEntity
  8
Layer_1
 62
1
100
AcDbSpline
 70
8
 71
3
 72
8
 73
4
 74
0
 40
0
 40
0
 40
0
 40
0
 40
1
 40
1
 40
1
 40
1
 10
14.000628
 20
38.733866
 30
0.0
 10
14.619749
 20
38.376116
 30
0.0
 10
15.000777
 20
37.715050
 30
0.0
 10
14.999998
 20
37.000001
 30
0.0
  0
LINE
  5
157
100
AcDbEntity
  8
Layer_1
 62
1
100
AcDbLine
 10
14.999998
 20
37.000001
 30
0.0
 11
14.999998
 21
37.000001
 31
0.0
  0
ENDSEC
  0
SECTION
  2
OBJECTS
  0
DICTIONARY
  5
C
330
0
100
AcDbDictionary
  3
ACAD_GROUP
350
D
  3
ACAD_MLINESTYLE
350
17
  0
DICTIONARY
  5
D
330
C
100
AcDbDictionary
  0
DICTIONARY
  5
1A
330
C
100
AcDbDictionary
  0
DICTIONARY
  5
17
330
C
100
AcDbDictionary
  3
STANDARD
350
18
  0
DICTIONARY
  5
19
330
C
100
AcDbDictionary
  0
ENDSEC
  0
EOF
