solid OpenSCAD_Model
  facet normal 0 0 -1
    outer loop
      vertex -5 0 0
      vertex -4.99013 0.313953 0
      vertex -4.99013 -0.313953 0
    endloop
  endfacet
  facet normal 0 0 -1
    outer loop
      vertex -4.99013 -0.313953 0
      vertex -4.99013 0.313953 0
      vertex -4.96057 0.626666 0
    endloop
  endfacet
  facet normal 0 0 -1
    outer loop
      vertex -4.99013 -0.313953 0
      vertex -4.96057 0.626666 0
      vertex -4.91144 0.936907 0
    endloop
  endfacet
  facet normal 0 0 -1
    outer loop
      vertex -4.99013 -0.313953 0
      vertex -4.91144 0.936907 0
      vertex -4.84292 1.24345 0
    endloop
  endfacet
  facet normal 0 0 -1
    outer loop
      vertex -4.99013 -0.313953 0
      vertex -4.84292 1.24345 0
      vertex -4.75528 1.54508 0
    endloop
  endfacet
  facet normal 0 0 -1
    outer loop
      vertex -4.99013 -0.313953 0
      vertex -4.75528 1.54508 0
      vertex -4.64888 1.84062 0
    endloop
  endfacet
  facet normal 0 0 -1
    outer loop
      vertex -4.99013 -0.313953 0
      vertex -4.64888 1.84062 0
      vertex -4.52413 2.1289 0
    endloop
  endfacet
  facet normal 0 0 -1
    outer loop
      vertex -4.99013 -0.313953 0
      vertex -4.52413 2.1289 0
      vertex -4.38153 2.40877 0
    endloop
  endfacet
  facet normal 0 0 -1
    outer loop
      vertex -4.99013 -0.313953 0
      vertex -4.38153 2.40877 0
      vertex -4.22164 2.67913 0
    endloop
  endfacet
  facet normal 0 0 -1
    outer loop
      vertex -4.99013 -0.313953 0
      vertex -4.22164 2.67913 0
      vertex -4.04508 2.93893 0
    endloop
  endfacet
  facet normal 0 0 -1
    outer loop
      vertex -4.99013 -0.313953 0
      vertex -4.04508 2.93893 0
      vertex -3.85257 3.18712 0
    endloop
  endfacet
  facet normal 0 0 -1
    outer loop
      vertex -4.99013 -0.313953 0
      vertex -3.85257 3.18712 0
      vertex -3.64484 3.42274 0
    endloop
  endfacet
  facet normal 0 0 -1
    outer loop
      vertex -4.99013 -0.313953 0
      vertex -3.64484 3.42274 0
      vertex -3.42274 3.64484 0
    endloop
  endfacet
  facet normal 0 0 -1
    outer loop
      vertex -4.99013 -0.313953 0
      vertex -3.42274 3.64484 0
      vertex -3.18712 3.85257 0
    endloop
  endfacet
  facet normal 0 0 -1
    outer loop
      vertex -4.99013 -0.313953 0
      vertex -3.18712 3.85257 0
      vertex -2.93893 4.04508 0
    endloop
  endfacet
  facet normal 0 0 -1
    outer loop
      vertex -4.99013 -0.313953 0
      vertex -2.93893 4.04508 0
      vertex -2.67913 4.22164 0
    endloop
  endfacet
  facet normal 0 0 -1
    outer loop
      vertex -4.99013 -0.313953 0
      vertex -2.67913 4.22164 0
      vertex -2.40877 4.38153 0
    endloop
  endfacet
  facet normal 0 0 -1
    outer loop
      vertex -4.99013 -0.313953 0
      vertex -2.40877 4.38153 0
      vertex -2.1289 4.52413 0
    endloop
  endfacet
  facet normal 0 0 -1
    outer loop
      vertex -4.99013 -0.313953 0
      vertex -2.1289 4.52413 0
      vertex -1.84062 4.64888 0
    endloop
  endfacet
  facet normal 0 0 -1
    outer loop
      vertex -4.99013 -0.313953 0
      vertex -1.84062 4.64888 0
      vertex -1.54508 4.75528 0
    endloop
  endfacet
  facet normal 0 0 -1
    outer loop
      vertex -4.99013 -0.313953 0
      vertex -1.54508 4.75528 0
      vertex -1.24345 4.84292 0
    endloop
  endfacet
  facet normal 0 0 -1
    outer loop
      vertex -4.99013 -0.313953 0
      vertex -1.24345 4.84292 0
      vertex -0.936907 4.91144 0
    endloop
  endfacet
  facet normal 0 0 -1
    outer loop
      vertex -4.99013 -0.313953 0
      vertex -0.936907 4.91144 0
      vertex -0.626666 4.96057 0
    endloop
  endfacet
  facet normal 0 0 -1
    outer loop
      vertex -4.99013 -0.313953 0
      vertex -0.626666 4.96057 0
      vertex -0.313953 4.99013 0
    endloop
  endfacet
  facet normal 0 0 -1
    outer loop
      vertex -4.99013 -0.313953 0
      vertex -0.313953 4.99013 0
      vertex 0 5 0
    endloop
  endfacet
  facet normal 0 0 -1
    outer loop
      vertex -4.99013 -0.313953 0
      vertex 0 5 0
      vertex 0.313953 4.99013 0
    endloop
  endfacet
  facet normal 0 0 -1
    outer loop
      vertex -4.99013 -0.313953 0
      vertex 0.313953 4.99013 0
      vertex 0.626666 4.96057 0
    endloop
  endfacet
  facet normal 0 0 -1
    outer loop
      vertex -4.99013 -0.313953 0
      vertex 0.626666 4.96057 0
      vertex 0.936907 4.91144 0
    endloop
  endfacet
  facet normal 0 0 -1
    outer loop
      vertex -4.99013 -0.313953 0
      vertex 0.936907 4.91144 0
      vertex 1.24345 4.84292 0
    endloop
  endfacet
  facet normal 0 0 -1
    outer loop
      vertex -4.99013 -0.313953 0
      vertex 1.24345 4.84292 0
      vertex 1.54508 4.75528 0
    endloop
  endfacet
  facet normal 0 0 -1
    outer loop
      vertex -4.99013 -0.313953 0
      vertex 1.54508 4.75528 0
      vertex 1.84062 4.64888 0
    endloop
  endfacet
  facet normal 0 0 -1
    outer loop
      vertex -4.99013 -0.313953 0
      vertex 1.84062 4.64888 0
      vertex 2.1289 4.52413 0
    endloop
  endfacet
  facet normal 0 0 -1
    outer loop
      vertex -4.99013 -0.313953 0
      vertex 2.1289 4.52413 0
      vertex 2.40877 4.38153 0
    endloop
  endfacet
  facet normal 0 0 -1
    outer loop
      vertex -4.99013 -0.313953 0
      vertex 2.40877 4.38153 0
      vertex 2.67913 4.22164 0
    endloop
  endfacet
  facet normal 0 0 -1
    outer loop
      vertex -4.99013 -0.313953 0
      vertex 2.67913 4.22164 0
      vertex 2.93893 4.04508 0
    endloop
  endfacet
  facet normal 0 0 -1
    outer loop
      vertex -4.99013 -0.313953 0
      vertex 2.93893 4.04508 0
      vertex 3.18712 3.85257 0
    endloop
  endfacet
  facet normal 0 0 -1
    outer loop
      vertex -4.99013 -0.313953 0
      vertex 3.18712 3.85257 0
      vertex 3.42274 3.64484 0
    endloop
  endfacet
  facet normal 0 0 -1
    outer loop
      vertex -4.99013 -0.313953 0
      vertex 3.42274 3.64484 0
      vertex 3.64484 3.42274 0
    endloop
  endfacet
  facet normal 0 0 -1
    outer loop
      vertex 0 1.7 0
      vertex 3.64484 3.42274 0
      vertex 3.85257 3.18712 0
    endloop
  endfacet
  facet normal 0 0 -1
    outer loop
      vertex 0.525329 1.6168 0
      vertex 4.04508 2.93893 0
      vertex 4.22164 2.67913 0
    endloop
  endfacet
  facet normal 0 0 -1
    outer loop
      vertex 0 1.7 0
      vertex 4.04508 2.93893 0
      vertex 0.525329 1.6168 0
    endloop
  endfacet
  facet normal 0 0 -1
    outer loop
      vertex 1.1 1.27456 0
      vertex 4.38153 2.40877 0
      vertex 4.52413 2.1289 0
    endloop
  endfacet
  facet normal 0 0 -1
    outer loop
      vertex 1.1 1.27456 0
      vertex 4.52413 2.1289 0
      vertex 4.64888 1.84062 0
    endloop
  endfacet
  facet normal 0 0 -1
    outer loop
      vertex 0.999235 -1.37533 0
      vertex 4.52413 -2.1289 0
      vertex 4.38153 -2.40877 0
    endloop
  endfacet
  facet normal 0 0 -1
    outer loop
      vertex 1.1 -1.27456 0
      vertex 4.75528 -1.54508 0
      vertex 4.64888 -1.84062 0
    endloop
  endfacet
  facet normal 0 0 -1
    outer loop
      vertex 0.999235 -1.37533 0
      vertex 4.64888 -1.84062 0
      vertex 4.52413 -2.1289 0
    endloop
  endfacet
  facet normal 0 0 -1
    outer loop
      vertex 1.1 1.27456 0
      vertex 4.84292 1.24345 0
      vertex 4.91144 0.936907 0
    endloop
  endfacet
  facet normal 0 0 -1
    outer loop
      vertex 0.525329 -1.6168 0
      vertex 4.38153 -2.40877 0
      vertex 4.22164 -2.67913 0
    endloop
  endfacet
  facet normal 0 0 -1
    outer loop
      vertex 0.999235 -1.37533 0
      vertex 4.38153 -2.40877 0
      vertex 0.525329 -1.6168 0
    endloop
  endfacet
  facet normal 0 0 -1
    outer loop
      vertex -0.525329 -1.6168 0
      vertex 4.04508 -2.93893 0
      vertex 3.85257 -3.18712 0
    endloop
  endfacet
  facet normal 0 0 -1
    outer loop
      vertex -4.99013 -0.313953 0
      vertex 3.85257 -3.18712 0
      vertex 3.64484 -3.42274 0
    endloop
  endfacet
  facet normal 0 0 -1
    outer loop
      vertex -4.99013 -0.313953 0
      vertex 3.64484 -3.42274 0
      vertex 3.42274 -3.64484 0
    endloop
  endfacet
  facet normal 0 0 -1
    outer loop
      vertex -4.99013 -0.313953 0
      vertex 3.42274 -3.64484 0
      vertex 3.18712 -3.85257 0
    endloop
  endfacet
  facet normal 0 0 -1
    outer loop
      vertex -4.99013 -0.313953 0
      vertex 3.18712 -3.85257 0
      vertex 2.93893 -4.04508 0
    endloop
  endfacet
  facet normal 0 0 -1
    outer loop
      vertex -4.99013 -0.313953 0
      vertex 2.93893 -4.04508 0
      vertex 2.67913 -4.22164 0
    endloop
  endfacet
  facet normal 0 0 -1
    outer loop
      vertex -4.99013 -0.313953 0
      vertex 2.67913 -4.22164 0
      vertex 2.40877 -4.38153 0
    endloop
  endfacet
  facet normal 0 0 -1
    outer loop
      vertex -4.99013 -0.313953 0
      vertex 2.40877 -4.38153 0
      vertex 2.1289 -4.52413 0
    endloop
  endfacet
  facet normal 0 0 -1
    outer loop
      vertex -4.99013 -0.313953 0
      vertex 2.1289 -4.52413 0
      vertex 1.84062 -4.64888 0
    endloop
  endfacet
  facet normal 0 0 -1
    outer loop
      vertex -4.99013 -0.313953 0
      vertex 1.84062 -4.64888 0
      vertex 1.54508 -4.75528 0
    endloop
  endfacet
  facet normal 0 0 -1
    outer loop
      vertex -4.99013 -0.313953 0
      vertex 1.54508 -4.75528 0
      vertex 1.24345 -4.84292 0
    endloop
  endfacet
  facet normal 0 0 -1
    outer loop
      vertex -4.99013 -0.313953 0
      vertex 1.24345 -4.84292 0
      vertex 0.936907 -4.91144 0
    endloop
  endfacet
  facet normal 0 0 -1
    outer loop
      vertex -4.99013 -0.313953 0
      vertex 0.936907 -4.91144 0
      vertex 0.626666 -4.96057 0
    endloop
  endfacet
  facet normal 0 0 -1
    outer loop
      vertex -4.99013 -0.313953 0
      vertex 0.626666 -4.96057 0
      vertex 0.313953 -4.99013 0
    endloop
  endfacet
  facet normal 0 0 -1
    outer loop
      vertex -4.99013 -0.313953 0
      vertex 0.313953 -4.99013 0
      vertex 0 -5 0
    endloop
  endfacet
  facet normal 0 0 -1
    outer loop
      vertex -4.99013 -0.313953 0
      vertex 0 -5 0
      vertex -0.313953 -4.99013 0
    endloop
  endfacet
  facet normal 0 0 -1
    outer loop
      vertex -4.99013 -0.313953 0
      vertex -0.313953 -4.99013 0
      vertex -0.626666 -4.96057 0
    endloop
  endfacet
  facet normal 0 0 -1
    outer loop
      vertex -4.99013 -0.313953 0
      vertex -0.626666 -4.96057 0
      vertex -0.936907 -4.91144 0
    endloop
  endfacet
  facet normal 0 0 -1
    outer loop
      vertex -4.99013 -0.313953 0
      vertex -0.936907 -4.91144 0
      vertex -1.24345 -4.84292 0
    endloop
  endfacet
  facet normal 0 0 -1
    outer loop
      vertex -4.99013 -0.313953 0
      vertex -1.24345 -4.84292 0
      vertex -1.54508 -4.75528 0
    endloop
  endfacet
  facet normal 0 0 -1
    outer loop
      vertex -4.99013 -0.313953 0
      vertex -1.54508 -4.75528 0
      vertex -1.84062 -4.64888 0
    endloop
  endfacet
  facet normal 0 0 -1
    outer loop
      vertex -4.99013 -0.313953 0
      vertex -1.84062 -4.64888 0
      vertex -2.1289 -4.52413 0
    endloop
  endfacet
  facet normal 0 0 -1
    outer loop
      vertex -4.99013 -0.313953 0
      vertex -2.1289 -4.52413 0
      vertex -2.40877 -4.38153 0
    endloop
  endfacet
  facet normal 0 0 -1
    outer loop
      vertex -4.99013 -0.313953 0
      vertex -2.40877 -4.38153 0
      vertex -2.67913 -4.22164 0
    endloop
  endfacet
  facet normal 0 0 -1
    outer loop
      vertex -4.99013 -0.313953 0
      vertex -2.67913 -4.22164 0
      vertex -2.93893 -4.04508 0
    endloop
  endfacet
  facet normal 0 0 -1
    outer loop
      vertex -4.99013 -0.313953 0
      vertex -2.93893 -4.04508 0
      vertex -3.18712 -3.85257 0
    endloop
  endfacet
  facet normal 0 0 -1
    outer loop
      vertex -4.99013 -0.313953 0
      vertex -3.18712 -3.85257 0
      vertex -3.42274 -3.64484 0
    endloop
  endfacet
  facet normal 0 0 -1
    outer loop
      vertex -4.99013 -0.313953 0
      vertex -3.42274 -3.64484 0
      vertex -3.64484 -3.42274 0
    endloop
  endfacet
  facet normal 0 0 -1
    outer loop
      vertex -4.99013 -0.313953 0
      vertex -3.64484 -3.42274 0
      vertex -3.85257 -3.18712 0
    endloop
  endfacet
  facet normal 0 0 -1
    outer loop
      vertex -4.99013 -0.313953 0
      vertex -3.85257 -3.18712 0
      vertex -4.04508 -2.93893 0
    endloop
  endfacet
  facet normal 0 0 -1
    outer loop
      vertex -4.99013 -0.313953 0
      vertex -4.04508 -2.93893 0
      vertex -4.22164 -2.67913 0
    endloop
  endfacet
  facet normal 0 0 -1
    outer loop
      vertex -4.99013 -0.313953 0
      vertex -4.22164 -2.67913 0
      vertex -4.38153 -2.40877 0
    endloop
  endfacet
  facet normal 0 0 -1
    outer loop
      vertex -4.99013 -0.313953 0
      vertex -4.38153 -2.40877 0
      vertex -4.52413 -2.1289 0
    endloop
  endfacet
  facet normal 0 0 -1
    outer loop
      vertex -4.99013 -0.313953 0
      vertex -4.52413 -2.1289 0
      vertex -4.64888 -1.84062 0
    endloop
  endfacet
  facet normal 0 0 -1
    outer loop
      vertex -4.99013 -0.313953 0
      vertex -4.64888 -1.84062 0
      vertex -4.75528 -1.54508 0
    endloop
  endfacet
  facet normal 0 0 -1
    outer loop
      vertex -4.99013 -0.313953 0
      vertex -4.75528 -1.54508 0
      vertex -4.84292 -1.24345 0
    endloop
  endfacet
  facet normal 0 0 -1
    outer loop
      vertex -4.99013 -0.313953 0
      vertex -4.84292 -1.24345 0
      vertex -4.91144 -0.936907 0
    endloop
  endfacet
  facet normal 0 0 -1
    outer loop
      vertex -4.99013 -0.313953 0
      vertex -4.91144 -0.936907 0
      vertex -4.96057 -0.626666 0
    endloop
  endfacet
  facet normal 0 0 -1
    outer loop
      vertex -1.6168 -0.525329 0
      vertex -4.99013 -0.313953 0
      vertex -1.7 0 0
    endloop
  endfacet
  facet normal 0 0 -1
    outer loop
      vertex -1.37533 -0.999235 0
      vertex -4.99013 -0.313953 0
      vertex -1.6168 -0.525329 0
    endloop
  endfacet
  facet normal 0 0 -1
    outer loop
      vertex 1.1 1.27456 0
      vertex 4.96057 0.626666 0
      vertex 4.99013 0.313953 0
    endloop
  endfacet
  facet normal 0 0 -1
    outer loop
      vertex -0.999235 -1.37533 0
      vertex -4.99013 -0.313953 0
      vertex -1.37533 -0.999235 0
    endloop
  endfacet
  facet normal 0 0 -1
    outer loop
      vertex 1.1 1.27456 0
      vertex 4.91144 0.936907 0
      vertex 4.96057 0.626666 0
    endloop
  endfacet
  facet normal 0 0 -1
    outer loop
      vertex -0.525329 -1.6168 0
      vertex -4.99013 -0.313953 0
      vertex -0.999235 -1.37533 0
    endloop
  endfacet
  facet normal 0 0 -1
    outer loop
      vertex 0.525329 -1.6168 0
      vertex 4.22164 -2.67913 0
      vertex 4.04508 -2.93893 0
    endloop
  endfacet
  facet normal 0 0 -1
    outer loop
      vertex -4.99013 -0.313953 0
      vertex -0.525329 -1.6168 0
      vertex 3.85257 -3.18712 0
    endloop
  endfacet
  facet normal 0 0 -1
    outer loop
      vertex 0.525329 -1.6168 0
      vertex 4.04508 -2.93893 0
      vertex 0 -1.7 0
    endloop
  endfacet
  facet normal 0 0 -1
    outer loop
      vertex 0 -1.7 0
      vertex 4.04508 -2.93893 0
      vertex -0.525329 -1.6168 0
    endloop
  endfacet
  facet normal 0 0 -1
    outer loop
      vertex 1.1 1.27456 0
      vertex 4.64888 1.84062 0
      vertex 4.75528 1.54508 0
    endloop
  endfacet
  facet normal 0 0 -1
    outer loop
      vertex 1.1 -1.27456 0
      vertex 4.64888 -1.84062 0
      vertex 0.999235 -1.37533 0
    endloop
  endfacet
  facet normal 0 0 -1
    outer loop
      vertex 1.1 1.27456 0
      vertex 4.75528 1.54508 0
      vertex 4.84292 1.24345 0
    endloop
  endfacet
  facet normal 0 0 -1
    outer loop
      vertex 0.999235 1.37533 0
      vertex 4.38153 2.40877 0
      vertex 1.1 1.27456 0
    endloop
  endfacet
  facet normal 0 0 -1
    outer loop
      vertex 0.525329 1.6168 0
      vertex 4.22164 2.67913 0
      vertex 4.38153 2.40877 0
    endloop
  endfacet
  facet normal 0 0 -1
    outer loop
      vertex 0 1.7 0
      vertex 3.85257 3.18712 0
      vertex 4.04508 2.93893 0
    endloop
  endfacet
  facet normal 0 0 -1
    outer loop
      vertex -0.525329 1.6168 0
      vertex 3.64484 3.42274 0
      vertex 0 1.7 0
    endloop
  endfacet
  facet normal 0 0 -1
    outer loop
      vertex -1.37533 0.999235 0
      vertex -4.99013 -0.313953 0
      vertex -0.999235 1.37533 0
    endloop
  endfacet
  facet normal 0 0 -1
    outer loop
      vertex -4.99013 -0.313953 0
      vertex 3.64484 3.42274 0
      vertex -0.525329 1.6168 0
    endloop
  endfacet
  facet normal 0 0 -1
    outer loop
      vertex -4.99013 -0.313953 0
      vertex -0.525329 1.6168 0
      vertex -0.999235 1.37533 0
    endloop
  endfacet
  facet normal 0 0 -1
    outer loop
      vertex 0.525329 1.6168 0
      vertex 4.38153 2.40877 0
      vertex 0.999235 1.37533 0
    endloop
  endfacet
  facet normal 0 0 -1
    outer loop
      vertex -1.7 0 0
      vertex -4.99013 -0.313953 0
      vertex -1.6168 0.525329 0
    endloop
  endfacet
  facet normal 0 0 -1
    outer loop
      vertex -1.6168 0.525329 0
      vertex -4.99013 -0.313953 0
      vertex -1.37533 0.999235 0
    endloop
  endfacet
  facet normal 0 0 -1
    outer loop
      vertex 1.1 1.27456 0
      vertex 4.99013 0.313953 0
      vertex 5 0 0
    endloop
  endfacet
  facet normal 0 0 -1
    outer loop
      vertex 1.1 1.27456 0
      vertex 5 0 0
      vertex 4.99013 -0.313953 0
    endloop
  endfacet
  facet normal 0 0 -1
    outer loop
      vertex 1.1 1.27456 0
      vertex 4.99013 -0.313953 0
      vertex 4.96057 -0.626666 0
    endloop
  endfacet
  facet normal 0 0 -1
    outer loop
      vertex 1.1 1.27456 0
      vertex 4.96057 -0.626666 0
      vertex 4.91144 -0.936907 0
    endloop
  endfacet
  facet normal 0 0 -1
    outer loop
      vertex 1.1 1.27456 0
      vertex 4.91144 -0.936907 0
      vertex 4.84292 -1.24345 0
    endloop
  endfacet
  facet normal 0 0 -1
    outer loop
      vertex 1.1 1.27456 0
      vertex 4.84292 -1.24345 0
      vertex 4.75528 -1.54508 0
    endloop
  endfacet
  facet normal 0 0 -1
    outer loop
      vertex 1.1 1.27456 0
      vertex 4.75528 -1.54508 0
      vertex 1.1 -1.27456 0
    endloop
  endfacet
  facet normal -0.999507 0.0314096 0
    outer loop
      vertex -5 0 0
      vertex -5 0 3
      vertex -4.99013 0.313953 0
    endloop
  endfacet
  facet normal -0.999507 0.0314096 0
    outer loop
      vertex -4.99013 0.313953 0
      vertex -5 0 3
      vertex -4.99013 0.313953 3
    endloop
  endfacet
  facet normal -0.999507 -0.0314096 0
    outer loop
      vertex -5 0 0
      vertex -4.99013 -0.313953 0
      vertex -5 0 3
    endloop
  endfacet
  facet normal -0.999507 -0.0314096 0
    outer loop
      vertex -5 0 3
      vertex -4.99013 -0.313953 0
      vertex -4.99013 -0.313953 3
    endloop
  endfacet
  facet normal -0.995562 -0.0941081 0
    outer loop
      vertex -4.99013 -0.313953 0
      vertex -4.96057 -0.626666 0
      vertex -4.99013 -0.313953 3
    endloop
  endfacet
  facet normal -0.995562 -0.0941081 0
    outer loop
      vertex -4.99013 -0.313953 3
      vertex -4.96057 -0.626666 0
      vertex -4.96057 -0.626666 3
    endloop
  endfacet
  facet normal -0.987688 -0.156436 0
    outer loop
      vertex -4.96057 -0.626666 0
      vertex -4.91144 -0.936907 0
      vertex -4.96057 -0.626666 3
    endloop
  endfacet
  facet normal -0.987688 -0.156436 0
    outer loop
      vertex -4.96057 -0.626666 3
      vertex -4.91144 -0.936907 0
      vertex -4.91144 -0.936907 3
    endloop
  endfacet
  facet normal -0.975917 -0.218142 0
    outer loop
      vertex -4.91144 -0.936907 0
      vertex -4.84292 -1.24345 0
      vertex -4.91144 -0.936907 3
    endloop
  endfacet
  facet normal -0.975917 -0.218142 0
    outer loop
      vertex -4.91144 -0.936907 3
      vertex -4.84292 -1.24345 0
      vertex -4.84292 -1.24345 3
    endloop
  endfacet
  facet normal -0.960294 -0.27899 0
    outer loop
      vertex -4.84292 -1.24345 0
      vertex -4.75528 -1.54508 0
      vertex -4.84292 -1.24345 3
    endloop
  endfacet
  facet normal -0.960294 -0.27899 0
    outer loop
      vertex -4.84292 -1.24345 3
      vertex -4.75528 -1.54508 0
      vertex -4.75528 -1.54508 3
    endloop
  endfacet
  facet normal -0.94088 -0.33874 0
    outer loop
      vertex -4.75528 -1.54508 0
      vertex -4.64888 -1.84062 0
      vertex -4.75528 -1.54508 3
    endloop
  endfacet
  facet normal -0.94088 -0.33874 0
    outer loop
      vertex -4.75528 -1.54508 3
      vertex -4.64888 -1.84062 0
      vertex -4.64888 -1.84062 3
    endloop
  endfacet
  facet normal -0.917754 -0.397148 0
    outer loop
      vertex -4.64888 -1.84062 0
      vertex -4.52413 -2.1289 0
      vertex -4.64888 -1.84062 3
    endloop
  endfacet
  facet normal -0.917754 -0.397148 0
    outer loop
      vertex -4.64888 -1.84062 3
      vertex -4.52413 -2.1289 0
      vertex -4.52413 -2.1289 3
    endloop
  endfacet
  facet normal -0.891006 -0.453991 0
    outer loop
      vertex -4.52413 -2.1289 0
      vertex -4.38153 -2.40877 0
      vertex -4.52413 -2.1289 3
    endloop
  endfacet
  facet normal -0.891006 -0.453991 0
    outer loop
      vertex -4.52413 -2.1289 3
      vertex -4.38153 -2.40877 0
      vertex -4.38153 -2.40877 3
    endloop
  endfacet
  facet normal -0.860743 -0.509039 0
    outer loop
      vertex -4.38153 -2.40877 0
      vertex -4.22164 -2.67913 0
      vertex -4.38153 -2.40877 3
    endloop
  endfacet
  facet normal -0.860743 -0.509039 0
    outer loop
      vertex -4.38153 -2.40877 3
      vertex -4.22164 -2.67913 0
      vertex -4.22164 -2.67913 3
    endloop
  endfacet
  facet normal -0.82708 -0.562085 0
    outer loop
      vertex -4.22164 -2.67913 0
      vertex -4.04508 -2.93893 0
      vertex -4.22164 -2.67913 3
    endloop
  endfacet
  facet normal -0.82708 -0.562085 0
    outer loop
      vertex -4.22164 -2.67913 3
      vertex -4.04508 -2.93893 0
      vertex -4.04508 -2.93893 3
    endloop
  endfacet
  facet normal -0.790155 -0.612907 0
    outer loop
      vertex -4.04508 -2.93893 0
      vertex -3.85257 -3.18712 0
      vertex -4.04508 -2.93893 3
    endloop
  endfacet
  facet normal -0.790155 -0.612907 0
    outer loop
      vertex -4.04508 -2.93893 3
      vertex -3.85257 -3.18712 0
      vertex -3.85257 -3.18712 3
    endloop
  endfacet
  facet normal -0.750112 -0.661311 0
    outer loop
      vertex -3.85257 -3.18712 0
      vertex -3.64484 -3.42274 0
      vertex -3.85257 -3.18712 3
    endloop
  endfacet
  facet normal -0.750112 -0.661311 0
    outer loop
      vertex -3.85257 -3.18712 3
      vertex -3.64484 -3.42274 0
      vertex -3.64484 -3.42274 3
    endloop
  endfacet
  facet normal -0.707107 -0.707107 0
    outer loop
      vertex -3.64484 -3.42274 3
      vertex -3.64484 -3.42274 0
      vertex -3.42274 -3.64484 0
    endloop
  endfacet
  facet normal -0.707107 -0.707107 0
    outer loop
      vertex -3.42274 -3.64484 3
      vertex -3.64484 -3.42274 3
      vertex -3.42274 -3.64484 0
    endloop
  endfacet
  facet normal -0.661311 -0.750112 0
    outer loop
      vertex -3.42274 -3.64484 3
      vertex -3.42274 -3.64484 0
      vertex -3.18712 -3.85257 0
    endloop
  endfacet
  facet normal -0.661311 -0.750112 0
    outer loop
      vertex -3.18712 -3.85257 3
      vertex -3.42274 -3.64484 3
      vertex -3.18712 -3.85257 0
    endloop
  endfacet
  facet normal -0.612907 -0.790155 0
    outer loop
      vertex -3.18712 -3.85257 3
      vertex -3.18712 -3.85257 0
      vertex -2.93893 -4.04508 0
    endloop
  endfacet
  facet normal -0.612907 -0.790155 0
    outer loop
      vertex -2.93893 -4.04508 3
      vertex -3.18712 -3.85257 3
      vertex -2.93893 -4.04508 0
    endloop
  endfacet
  facet normal -0.562085 -0.82708 0
    outer loop
      vertex -2.93893 -4.04508 3
      vertex -2.93893 -4.04508 0
      vertex -2.67913 -4.22164 0
    endloop
  endfacet
  facet normal -0.562085 -0.82708 0
    outer loop
      vertex -2.67913 -4.22164 3
      vertex -2.93893 -4.04508 3
      vertex -2.67913 -4.22164 0
    endloop
  endfacet
  facet normal -0.509039 -0.860743 0
    outer loop
      vertex -2.67913 -4.22164 3
      vertex -2.67913 -4.22164 0
      vertex -2.40877 -4.38153 0
    endloop
  endfacet
  facet normal -0.509039 -0.860743 0
    outer loop
      vertex -2.40877 -4.38153 3
      vertex -2.67913 -4.22164 3
      vertex -2.40877 -4.38153 0
    endloop
  endfacet
  facet normal -0.453991 -0.891006 0
    outer loop
      vertex -2.40877 -4.38153 3
      vertex -2.40877 -4.38153 0
      vertex -2.1289 -4.52413 0
    endloop
  endfacet
  facet normal -0.453991 -0.891006 0
    outer loop
      vertex -2.1289 -4.52413 3
      vertex -2.40877 -4.38153 3
      vertex -2.1289 -4.52413 0
    endloop
  endfacet
  facet normal -0.397148 -0.917754 0
    outer loop
      vertex -2.1289 -4.52413 3
      vertex -2.1289 -4.52413 0
      vertex -1.84062 -4.64888 0
    endloop
  endfacet
  facet normal -0.397148 -0.917754 0
    outer loop
      vertex -1.84062 -4.64888 3
      vertex -2.1289 -4.52413 3
      vertex -1.84062 -4.64888 0
    endloop
  endfacet
  facet normal -0.33874 -0.94088 0
    outer loop
      vertex -1.84062 -4.64888 3
      vertex -1.84062 -4.64888 0
      vertex -1.54508 -4.75528 0
    endloop
  endfacet
  facet normal -0.33874 -0.94088 0
    outer loop
      vertex -1.54508 -4.75528 3
      vertex -1.84062 -4.64888 3
      vertex -1.54508 -4.75528 0
    endloop
  endfacet
  facet normal -0.27899 -0.960294 0
    outer loop
      vertex -1.54508 -4.75528 3
      vertex -1.54508 -4.75528 0
      vertex -1.24345 -4.84292 0
    endloop
  endfacet
  facet normal -0.27899 -0.960294 0
    outer loop
      vertex -1.24345 -4.84292 3
      vertex -1.54508 -4.75528 3
      vertex -1.24345 -4.84292 0
    endloop
  endfacet
  facet normal -0.218142 -0.975917 0
    outer loop
      vertex -1.24345 -4.84292 3
      vertex -1.24345 -4.84292 0
      vertex -0.936907 -4.91144 0
    endloop
  endfacet
  facet normal -0.218142 -0.975917 0
    outer loop
      vertex -0.936907 -4.91144 3
      vertex -1.24345 -4.84292 3
      vertex -0.936907 -4.91144 0
    endloop
  endfacet
  facet normal -0.156436 -0.987688 0
    outer loop
      vertex -0.936907 -4.91144 3
      vertex -0.936907 -4.91144 0
      vertex -0.626666 -4.96057 0
    endloop
  endfacet
  facet normal -0.156436 -0.987688 0
    outer loop
      vertex -0.626666 -4.96057 3
      vertex -0.936907 -4.91144 3
      vertex -0.626666 -4.96057 0
    endloop
  endfacet
  facet normal -0.0941081 -0.995562 0
    outer loop
      vertex -0.626666 -4.96057 3
      vertex -0.626666 -4.96057 0
      vertex -0.313953 -4.99013 0
    endloop
  endfacet
  facet normal -0.0941081 -0.995562 0
    outer loop
      vertex -0.313953 -4.99013 3
      vertex -0.626666 -4.96057 3
      vertex -0.313953 -4.99013 0
    endloop
  endfacet
  facet normal -0.0314096 -0.999507 0
    outer loop
      vertex -0.313953 -4.99013 3
      vertex -0.313953 -4.99013 0
      vertex 0 -5 0
    endloop
  endfacet
  facet normal -0.0314096 -0.999507 0
    outer loop
      vertex 0 -5 3
      vertex -0.313953 -4.99013 3
      vertex 0 -5 0
    endloop
  endfacet
  facet normal 0.0314096 -0.999507 0
    outer loop
      vertex 0 -5 3
      vertex 0 -5 0
      vertex 0.313953 -4.99013 0
    endloop
  endfacet
  facet normal 0.0314096 -0.999507 0
    outer loop
      vertex 0.313953 -4.99013 3
      vertex 0 -5 3
      vertex 0.313953 -4.99013 0
    endloop
  endfacet
  facet normal 0.0941081 -0.995562 0
    outer loop
      vertex 0.313953 -4.99013 3
      vertex 0.313953 -4.99013 0
      vertex 0.626666 -4.96057 0
    endloop
  endfacet
  facet normal 0.0941081 -0.995562 0
    outer loop
      vertex 0.626666 -4.96057 3
      vertex 0.313953 -4.99013 3
      vertex 0.626666 -4.96057 0
    endloop
  endfacet
  facet normal 0.156436 -0.987688 0
    outer loop
      vertex 0.626666 -4.96057 3
      vertex 0.626666 -4.96057 0
      vertex 0.936907 -4.91144 0
    endloop
  endfacet
  facet normal 0.156436 -0.987688 0
    outer loop
      vertex 0.936907 -4.91144 3
      vertex 0.626666 -4.96057 3
      vertex 0.936907 -4.91144 0
    endloop
  endfacet
  facet normal 0.218142 -0.975917 0
    outer loop
      vertex 0.936907 -4.91144 3
      vertex 0.936907 -4.91144 0
      vertex 1.24345 -4.84292 0
    endloop
  endfacet
  facet normal 0.218142 -0.975917 0
    outer loop
      vertex 1.24345 -4.84292 3
      vertex 0.936907 -4.91144 3
      vertex 1.24345 -4.84292 0
    endloop
  endfacet
  facet normal 0.27899 -0.960294 0
    outer loop
      vertex 1.24345 -4.84292 3
      vertex 1.24345 -4.84292 0
      vertex 1.54508 -4.75528 0
    endloop
  endfacet
  facet normal 0.27899 -0.960294 0
    outer loop
      vertex 1.54508 -4.75528 3
      vertex 1.24345 -4.84292 3
      vertex 1.54508 -4.75528 0
    endloop
  endfacet
  facet normal 0.33874 -0.94088 0
    outer loop
      vertex 1.54508 -4.75528 3
      vertex 1.54508 -4.75528 0
      vertex 1.84062 -4.64888 0
    endloop
  endfacet
  facet normal 0.33874 -0.94088 0
    outer loop
      vertex 1.84062 -4.64888 3
      vertex 1.54508 -4.75528 3
      vertex 1.84062 -4.64888 0
    endloop
  endfacet
  facet normal 0.397148 -0.917754 0
    outer loop
      vertex 1.84062 -4.64888 3
      vertex 1.84062 -4.64888 0
      vertex 2.1289 -4.52413 0
    endloop
  endfacet
  facet normal 0.397148 -0.917754 0
    outer loop
      vertex 2.1289 -4.52413 3
      vertex 1.84062 -4.64888 3
      vertex 2.1289 -4.52413 0
    endloop
  endfacet
  facet normal 0.453991 -0.891006 0
    outer loop
      vertex 2.1289 -4.52413 3
      vertex 2.1289 -4.52413 0
      vertex 2.40877 -4.38153 0
    endloop
  endfacet
  facet normal 0.453991 -0.891006 0
    outer loop
      vertex 2.40877 -4.38153 3
      vertex 2.1289 -4.52413 3
      vertex 2.40877 -4.38153 0
    endloop
  endfacet
  facet normal 0.509039 -0.860743 0
    outer loop
      vertex 2.40877 -4.38153 3
      vertex 2.40877 -4.38153 0
      vertex 2.67913 -4.22164 0
    endloop
  endfacet
  facet normal 0.509039 -0.860743 0
    outer loop
      vertex 2.67913 -4.22164 3
      vertex 2.40877 -4.38153 3
      vertex 2.67913 -4.22164 0
    endloop
  endfacet
  facet normal 0.562085 -0.82708 0
    outer loop
      vertex 2.67913 -4.22164 3
      vertex 2.67913 -4.22164 0
      vertex 2.93893 -4.04508 0
    endloop
  endfacet
  facet normal 0.562085 -0.82708 0
    outer loop
      vertex 2.93893 -4.04508 3
      vertex 2.67913 -4.22164 3
      vertex 2.93893 -4.04508 0
    endloop
  endfacet
  facet normal 0.612907 -0.790155 0
    outer loop
      vertex 2.93893 -4.04508 3
      vertex 2.93893 -4.04508 0
      vertex 3.18712 -3.85257 0
    endloop
  endfacet
  facet normal 0.612907 -0.790155 0
    outer loop
      vertex 3.18712 -3.85257 3
      vertex 2.93893 -4.04508 3
      vertex 3.18712 -3.85257 0
    endloop
  endfacet
  facet normal 0.661311 -0.750112 0
    outer loop
      vertex 3.18712 -3.85257 3
      vertex 3.18712 -3.85257 0
      vertex 3.42274 -3.64484 0
    endloop
  endfacet
  facet normal 0.661311 -0.750112 0
    outer loop
      vertex 3.42274 -3.64484 3
      vertex 3.18712 -3.85257 3
      vertex 3.42274 -3.64484 0
    endloop
  endfacet
  facet normal 0.707107 -0.707107 0
    outer loop
      vertex 3.42274 -3.64484 3
      vertex 3.42274 -3.64484 0
      vertex 3.64484 -3.42274 0
    endloop
  endfacet
  facet normal 0.707107 -0.707107 0
    outer loop
      vertex 3.64484 -3.42274 3
      vertex 3.42274 -3.64484 3
      vertex 3.64484 -3.42274 0
    endloop
  endfacet
  facet normal 0.750112 -0.661311 0
    outer loop
      vertex 3.64484 -3.42274 3
      vertex 3.64484 -3.42274 0
      vertex 3.85257 -3.18712 0
    endloop
  endfacet
  facet normal 0.750112 -0.661311 0
    outer loop
      vertex 3.85257 -3.18712 3
      vertex 3.64484 -3.42274 3
      vertex 3.85257 -3.18712 0
    endloop
  endfacet
  facet normal 0.790155 -0.612907 0
    outer loop
      vertex 3.85257 -3.18712 3
      vertex 3.85257 -3.18712 0
      vertex 4.04508 -2.93893 0
    endloop
  endfacet
  facet normal 0.790155 -0.612907 0
    outer loop
      vertex 4.04508 -2.93893 3
      vertex 3.85257 -3.18712 3
      vertex 4.04508 -2.93893 0
    endloop
  endfacet
  facet normal 0.82708 -0.562085 0
    outer loop
      vertex 4.04508 -2.93893 3
      vertex 4.04508 -2.93893 0
      vertex 4.22164 -2.67913 0
    endloop
  endfacet
  facet normal 0.82708 -0.562085 0
    outer loop
      vertex 4.22164 -2.67913 3
      vertex 4.04508 -2.93893 3
      vertex 4.22164 -2.67913 0
    endloop
  endfacet
  facet normal 0.860743 -0.509039 0
    outer loop
      vertex 4.22164 -2.67913 3
      vertex 4.22164 -2.67913 0
      vertex 4.38153 -2.40877 0
    endloop
  endfacet
  facet normal 0.860743 -0.509039 0
    outer loop
      vertex 4.38153 -2.40877 3
      vertex 4.22164 -2.67913 3
      vertex 4.38153 -2.40877 0
    endloop
  endfacet
  facet normal 0.891006 -0.453991 0
    outer loop
      vertex 4.38153 -2.40877 3
      vertex 4.38153 -2.40877 0
      vertex 4.52413 -2.1289 0
    endloop
  endfacet
  facet normal 0.891006 -0.453991 0
    outer loop
      vertex 4.52413 -2.1289 3
      vertex 4.38153 -2.40877 3
      vertex 4.52413 -2.1289 0
    endloop
  endfacet
  facet normal 0.917754 -0.397148 0
    outer loop
      vertex 4.52413 -2.1289 3
      vertex 4.52413 -2.1289 0
      vertex 4.64888 -1.84062 0
    endloop
  endfacet
  facet normal 0.917754 -0.397148 0
    outer loop
      vertex 4.64888 -1.84062 3
      vertex 4.52413 -2.1289 3
      vertex 4.64888 -1.84062 0
    endloop
  endfacet
  facet normal 0.94088 -0.33874 0
    outer loop
      vertex 4.64888 -1.84062 3
      vertex 4.64888 -1.84062 0
      vertex 4.75528 -1.54508 0
    endloop
  endfacet
  facet normal 0.94088 -0.33874 0
    outer loop
      vertex 4.75528 -1.54508 3
      vertex 4.64888 -1.84062 3
      vertex 4.75528 -1.54508 0
    endloop
  endfacet
  facet normal 0.960294 -0.27899 0
    outer loop
      vertex 4.75528 -1.54508 3
      vertex 4.75528 -1.54508 0
      vertex 4.84292 -1.24345 0
    endloop
  endfacet
  facet normal 0.960294 -0.27899 0
    outer loop
      vertex 4.84292 -1.24345 3
      vertex 4.75528 -1.54508 3
      vertex 4.84292 -1.24345 0
    endloop
  endfacet
  facet normal 0.975917 -0.218142 0
    outer loop
      vertex 4.84292 -1.24345 3
      vertex 4.84292 -1.24345 0
      vertex 4.91144 -0.936907 0
    endloop
  endfacet
  facet normal 0.975917 -0.218142 0
    outer loop
      vertex 4.91144 -0.936907 3
      vertex 4.84292 -1.24345 3
      vertex 4.91144 -0.936907 0
    endloop
  endfacet
  facet normal 0.987688 -0.156436 0
    outer loop
      vertex 4.91144 -0.936907 3
      vertex 4.91144 -0.936907 0
      vertex 4.96057 -0.626666 0
    endloop
  endfacet
  facet normal 0.987688 -0.156436 0
    outer loop
      vertex 4.96057 -0.626666 3
      vertex 4.91144 -0.936907 3
      vertex 4.96057 -0.626666 0
    endloop
  endfacet
  facet normal 0.995562 -0.0941081 0
    outer loop
      vertex 4.96057 -0.626666 3
      vertex 4.96057 -0.626666 0
      vertex 4.99013 -0.313953 0
    endloop
  endfacet
  facet normal 0.995562 -0.0941081 0
    outer loop
      vertex 4.99013 -0.313953 3
      vertex 4.96057 -0.626666 3
      vertex 4.99013 -0.313953 0
    endloop
  endfacet
  facet normal 0.999507 -0.0314096 0
    outer loop
      vertex 4.99013 -0.313953 3
      vertex 4.99013 -0.313953 0
      vertex 5 0 0
    endloop
  endfacet
  facet normal 0.999507 -0.0314096 0
    outer loop
      vertex 5 0 3
      vertex 4.99013 -0.313953 3
      vertex 5 0 0
    endloop
  endfacet
  facet normal 0.999507 0.0314096 0
    outer loop
      vertex 5 0 0
      vertex 4.99013 0.313953 0
      vertex 4.99013 0.313953 3
    endloop
  endfacet
  facet normal 0.999507 0.0314096 0
    outer loop
      vertex 5 0 3
      vertex 5 0 0
      vertex 4.99013 0.313953 3
    endloop
  endfacet
  facet normal 0.995562 0.0941081 0
    outer loop
      vertex 4.99013 0.313953 0
      vertex 4.96057 0.626666 0
      vertex 4.96057 0.626666 3
    endloop
  endfacet
  facet normal 0.995562 0.0941081 0
    outer loop
      vertex 4.99013 0.313953 3
      vertex 4.99013 0.313953 0
      vertex 4.96057 0.626666 3
    endloop
  endfacet
  facet normal 0.987688 0.156436 0
    outer loop
      vertex 4.96057 0.626666 0
      vertex 4.91144 0.936907 0
      vertex 4.91144 0.936907 3
    endloop
  endfacet
  facet normal 0.987688 0.156436 0
    outer loop
      vertex 4.96057 0.626666 3
      vertex 4.96057 0.626666 0
      vertex 4.91144 0.936907 3
    endloop
  endfacet
  facet normal 0.975917 0.218142 0
    outer loop
      vertex 4.91144 0.936907 0
      vertex 4.84292 1.24345 0
      vertex 4.84292 1.24345 3
    endloop
  endfacet
  facet normal 0.975917 0.218142 0
    outer loop
      vertex 4.91144 0.936907 3
      vertex 4.91144 0.936907 0
      vertex 4.84292 1.24345 3
    endloop
  endfacet
  facet normal 0.960294 0.27899 0
    outer loop
      vertex 4.84292 1.24345 0
      vertex 4.75528 1.54508 0
      vertex 4.75528 1.54508 3
    endloop
  endfacet
  facet normal 0.960294 0.27899 0
    outer loop
      vertex 4.84292 1.24345 3
      vertex 4.84292 1.24345 0
      vertex 4.75528 1.54508 3
    endloop
  endfacet
  facet normal 0.94088 0.33874 0
    outer loop
      vertex 4.75528 1.54508 0
      vertex 4.64888 1.84062 0
      vertex 4.64888 1.84062 3
    endloop
  endfacet
  facet normal 0.94088 0.33874 0
    outer loop
      vertex 4.75528 1.54508 3
      vertex 4.75528 1.54508 0
      vertex 4.64888 1.84062 3
    endloop
  endfacet
  facet normal 0.917754 0.397148 0
    outer loop
      vertex 4.64888 1.84062 0
      vertex 4.52413 2.1289 0
      vertex 4.52413 2.1289 3
    endloop
  endfacet
  facet normal 0.917754 0.397148 0
    outer loop
      vertex 4.64888 1.84062 3
      vertex 4.64888 1.84062 0
      vertex 4.52413 2.1289 3
    endloop
  endfacet
  facet normal 0.891006 0.453991 0
    outer loop
      vertex 4.52413 2.1289 0
      vertex 4.38153 2.40877 0
      vertex 4.38153 2.40877 3
    endloop
  endfacet
  facet normal 0.891006 0.453991 0
    outer loop
      vertex 4.52413 2.1289 3
      vertex 4.52413 2.1289 0
      vertex 4.38153 2.40877 3
    endloop
  endfacet
  facet normal 0.860743 0.509039 0
    outer loop
      vertex 4.38153 2.40877 0
      vertex 4.22164 2.67913 0
      vertex 4.22164 2.67913 3
    endloop
  endfacet
  facet normal 0.860743 0.509039 0
    outer loop
      vertex 4.38153 2.40877 3
      vertex 4.38153 2.40877 0
      vertex 4.22164 2.67913 3
    endloop
  endfacet
  facet normal 0.82708 0.562085 0
    outer loop
      vertex 4.22164 2.67913 0
      vertex 4.04508 2.93893 0
      vertex 4.04508 2.93893 3
    endloop
  endfacet
  facet normal 0.82708 0.562085 0
    outer loop
      vertex 4.22164 2.67913 3
      vertex 4.22164 2.67913 0
      vertex 4.04508 2.93893 3
    endloop
  endfacet
  facet normal 0.790155 0.612907 0
    outer loop
      vertex 4.04508 2.93893 0
      vertex 3.85257 3.18712 0
      vertex 3.85257 3.18712 3
    endloop
  endfacet
  facet normal 0.790155 0.612907 0
    outer loop
      vertex 4.04508 2.93893 3
      vertex 4.04508 2.93893 0
      vertex 3.85257 3.18712 3
    endloop
  endfacet
  facet normal 0.750112 0.661311 0
    outer loop
      vertex 3.85257 3.18712 0
      vertex 3.64484 3.42274 0
      vertex 3.64484 3.42274 3
    endloop
  endfacet
  facet normal 0.750112 0.661311 0
    outer loop
      vertex 3.85257 3.18712 3
      vertex 3.85257 3.18712 0
      vertex 3.64484 3.42274 3
    endloop
  endfacet
  facet normal 0.707107 0.707107 0
    outer loop
      vertex 3.42274 3.64484 0
      vertex 3.42274 3.64484 3
      vertex 3.64484 3.42274 0
    endloop
  endfacet
  facet normal 0.707107 0.707107 0
    outer loop
      vertex 3.64484 3.42274 0
      vertex 3.42274 3.64484 3
      vertex 3.64484 3.42274 3
    endloop
  endfacet
  facet normal 0.661311 0.750112 0
    outer loop
      vertex 3.18712 3.85257 0
      vertex 3.18712 3.85257 3
      vertex 3.42274 3.64484 0
    endloop
  endfacet
  facet normal 0.661311 0.750112 0
    outer loop
      vertex 3.42274 3.64484 0
      vertex 3.18712 3.85257 3
      vertex 3.42274 3.64484 3
    endloop
  endfacet
  facet normal 0.612907 0.790155 0
    outer loop
      vertex 2.93893 4.04508 0
      vertex 2.93893 4.04508 3
      vertex 3.18712 3.85257 0
    endloop
  endfacet
  facet normal 0.612907 0.790155 0
    outer loop
      vertex 3.18712 3.85257 0
      vertex 2.93893 4.04508 3
      vertex 3.18712 3.85257 3
    endloop
  endfacet
  facet normal 0.562085 0.82708 0
    outer loop
      vertex 2.67913 4.22164 0
      vertex 2.67913 4.22164 3
      vertex 2.93893 4.04508 0
    endloop
  endfacet
  facet normal 0.562085 0.82708 0
    outer loop
      vertex 2.93893 4.04508 0
      vertex 2.67913 4.22164 3
      vertex 2.93893 4.04508 3
    endloop
  endfacet
  facet normal 0.509039 0.860743 0
    outer loop
      vertex 2.40877 4.38153 0
      vertex 2.40877 4.38153 3
      vertex 2.67913 4.22164 0
    endloop
  endfacet
  facet normal 0.509039 0.860743 0
    outer loop
      vertex 2.67913 4.22164 0
      vertex 2.40877 4.38153 3
      vertex 2.67913 4.22164 3
    endloop
  endfacet
  facet normal 0.453991 0.891006 0
    outer loop
      vertex 2.1289 4.52413 0
      vertex 2.1289 4.52413 3
      vertex 2.40877 4.38153 0
    endloop
  endfacet
  facet normal 0.453991 0.891006 0
    outer loop
      vertex 2.40877 4.38153 0
      vertex 2.1289 4.52413 3
      vertex 2.40877 4.38153 3
    endloop
  endfacet
  facet normal 0.397148 0.917754 0
    outer loop
      vertex 1.84062 4.64888 0
      vertex 1.84062 4.64888 3
      vertex 2.1289 4.52413 0
    endloop
  endfacet
  facet normal 0.397148 0.917754 0
    outer loop
      vertex 2.1289 4.52413 0
      vertex 1.84062 4.64888 3
      vertex 2.1289 4.52413 3
    endloop
  endfacet
  facet normal 0.33874 0.94088 0
    outer loop
      vertex 1.54508 4.75528 0
      vertex 1.54508 4.75528 3
      vertex 1.84062 4.64888 0
    endloop
  endfacet
  facet normal 0.33874 0.94088 0
    outer loop
      vertex 1.84062 4.64888 0
      vertex 1.54508 4.75528 3
      vertex 1.84062 4.64888 3
    endloop
  endfacet
  facet normal 0.27899 0.960294 0
    outer loop
      vertex 1.24345 4.84292 0
      vertex 1.24345 4.84292 3
      vertex 1.54508 4.75528 0
    endloop
  endfacet
  facet normal 0.27899 0.960294 0
    outer loop
      vertex 1.54508 4.75528 0
      vertex 1.24345 4.84292 3
      vertex 1.54508 4.75528 3
    endloop
  endfacet
  facet normal 0.218142 0.975917 0
    outer loop
      vertex 0.936907 4.91144 0
      vertex 0.936907 4.91144 3
      vertex 1.24345 4.84292 0
    endloop
  endfacet
  facet normal 0.218142 0.975917 0
    outer loop
      vertex 1.24345 4.84292 0
      vertex 0.936907 4.91144 3
      vertex 1.24345 4.84292 3
    endloop
  endfacet
  facet normal 0.156436 0.987688 0
    outer loop
      vertex 0.626666 4.96057 0
      vertex 0.626666 4.96057 3
      vertex 0.936907 4.91144 0
    endloop
  endfacet
  facet normal 0.156436 0.987688 0
    outer loop
      vertex 0.936907 4.91144 0
      vertex 0.626666 4.96057 3
      vertex 0.936907 4.91144 3
    endloop
  endfacet
  facet normal 0.0941081 0.995562 0
    outer loop
      vertex 0.313953 4.99013 0
      vertex 0.313953 4.99013 3
      vertex 0.626666 4.96057 0
    endloop
  endfacet
  facet normal 0.0941081 0.995562 0
    outer loop
      vertex 0.626666 4.96057 0
      vertex 0.313953 4.99013 3
      vertex 0.626666 4.96057 3
    endloop
  endfacet
  facet normal 0.0314096 0.999507 0
    outer loop
      vertex 0 5 0
      vertex 0 5 3
      vertex 0.313953 4.99013 0
    endloop
  endfacet
  facet normal 0.0314096 0.999507 0
    outer loop
      vertex 0.313953 4.99013 0
      vertex 0 5 3
      vertex 0.313953 4.99013 3
    endloop
  endfacet
  facet normal -0.0314096 0.999507 0
    outer loop
      vertex -0.313953 4.99013 0
      vertex -0.313953 4.99013 3
      vertex 0 5 0
    endloop
  endfacet
  facet normal -0.0314096 0.999507 0
    outer loop
      vertex 0 5 0
      vertex -0.313953 4.99013 3
      vertex 0 5 3
    endloop
  endfacet
  facet normal -0.0941081 0.995562 0
    outer loop
      vertex -0.626666 4.96057 0
      vertex -0.626666 4.96057 3
      vertex -0.313953 4.99013 0
    endloop
  endfacet
  facet normal -0.0941081 0.995562 0
    outer loop
      vertex -0.313953 4.99013 0
      vertex -0.626666 4.96057 3
      vertex -0.313953 4.99013 3
    endloop
  endfacet
  facet normal -0.156436 0.987688 0
    outer loop
      vertex -0.936907 4.91144 0
      vertex -0.936907 4.91144 3
      vertex -0.626666 4.96057 0
    endloop
  endfacet
  facet normal -0.156436 0.987688 0
    outer loop
      vertex -0.626666 4.96057 0
      vertex -0.936907 4.91144 3
      vertex -0.626666 4.96057 3
    endloop
  endfacet
  facet normal -0.218142 0.975917 0
    outer loop
      vertex -1.24345 4.84292 0
      vertex -1.24345 4.84292 3
      vertex -0.936907 4.91144 0
    endloop
  endfacet
  facet normal -0.218142 0.975917 0
    outer loop
      vertex -0.936907 4.91144 0
      vertex -1.24345 4.84292 3
      vertex -0.936907 4.91144 3
    endloop
  endfacet
  facet normal -0.27899 0.960294 0
    outer loop
      vertex -1.54508 4.75528 0
      vertex -1.54508 4.75528 3
      vertex -1.24345 4.84292 0
    endloop
  endfacet
  facet normal -0.27899 0.960294 0
    outer loop
      vertex -1.24345 4.84292 0
      vertex -1.54508 4.75528 3
      vertex -1.24345 4.84292 3
    endloop
  endfacet
  facet normal -0.33874 0.94088 0
    outer loop
      vertex -1.84062 4.64888 0
      vertex -1.84062 4.64888 3
      vertex -1.54508 4.75528 0
    endloop
  endfacet
  facet normal -0.33874 0.94088 0
    outer loop
      vertex -1.54508 4.75528 0
      vertex -1.84062 4.64888 3
      vertex -1.54508 4.75528 3
    endloop
  endfacet
  facet normal -0.397148 0.917754 0
    outer loop
      vertex -2.1289 4.52413 0
      vertex -2.1289 4.52413 3
      vertex -1.84062 4.64888 0
    endloop
  endfacet
  facet normal -0.397148 0.917754 0
    outer loop
      vertex -1.84062 4.64888 0
      vertex -2.1289 4.52413 3
      vertex -1.84062 4.64888 3
    endloop
  endfacet
  facet normal -0.453991 0.891006 0
    outer loop
      vertex -2.40877 4.38153 0
      vertex -2.40877 4.38153 3
      vertex -2.1289 4.52413 0
    endloop
  endfacet
  facet normal -0.453991 0.891006 0
    outer loop
      vertex -2.1289 4.52413 0
      vertex -2.40877 4.38153 3
      vertex -2.1289 4.52413 3
    endloop
  endfacet
  facet normal -0.509039 0.860743 0
    outer loop
      vertex -2.67913 4.22164 0
      vertex -2.67913 4.22164 3
      vertex -2.40877 4.38153 0
    endloop
  endfacet
  facet normal -0.509039 0.860743 0
    outer loop
      vertex -2.40877 4.38153 0
      vertex -2.67913 4.22164 3
      vertex -2.40877 4.38153 3
    endloop
  endfacet
  facet normal -0.562085 0.82708 0
    outer loop
      vertex -2.93893 4.04508 0
      vertex -2.93893 4.04508 3
      vertex -2.67913 4.22164 0
    endloop
  endfacet
  facet normal -0.562085 0.82708 0
    outer loop
      vertex -2.67913 4.22164 0
      vertex -2.93893 4.04508 3
      vertex -2.67913 4.22164 3
    endloop
  endfacet
  facet normal -0.612907 0.790155 0
    outer loop
      vertex -3.18712 3.85257 0
      vertex -3.18712 3.85257 3
      vertex -2.93893 4.04508 0
    endloop
  endfacet
  facet normal -0.612907 0.790155 0
    outer loop
      vertex -2.93893 4.04508 0
      vertex -3.18712 3.85257 3
      vertex -2.93893 4.04508 3
    endloop
  endfacet
  facet normal -0.661311 0.750112 0
    outer loop
      vertex -3.42274 3.64484 0
      vertex -3.42274 3.64484 3
      vertex -3.18712 3.85257 0
    endloop
  endfacet
  facet normal -0.661311 0.750112 0
    outer loop
      vertex -3.18712 3.85257 0
      vertex -3.42274 3.64484 3
      vertex -3.18712 3.85257 3
    endloop
  endfacet
  facet normal -0.707107 0.707107 0
    outer loop
      vertex -3.64484 3.42274 0
      vertex -3.64484 3.42274 3
      vertex -3.42274 3.64484 0
    endloop
  endfacet
  facet normal -0.707107 0.707107 0
    outer loop
      vertex -3.42274 3.64484 0
      vertex -3.64484 3.42274 3
      vertex -3.42274 3.64484 3
    endloop
  endfacet
  facet normal -0.750112 0.661311 0
    outer loop
      vertex -3.85257 3.18712 0
      vertex -3.85257 3.18712 3
      vertex -3.64484 3.42274 0
    endloop
  endfacet
  facet normal -0.750112 0.661311 0
    outer loop
      vertex -3.64484 3.42274 0
      vertex -3.85257 3.18712 3
      vertex -3.64484 3.42274 3
    endloop
  endfacet
  facet normal -0.790155 0.612907 0
    outer loop
      vertex -4.04508 2.93893 0
      vertex -4.04508 2.93893 3
      vertex -3.85257 3.18712 0
    endloop
  endfacet
  facet normal -0.790155 0.612907 0
    outer loop
      vertex -3.85257 3.18712 0
      vertex -4.04508 2.93893 3
      vertex -3.85257 3.18712 3
    endloop
  endfacet
  facet normal -0.82708 0.562085 0
    outer loop
      vertex -4.22164 2.67913 0
      vertex -4.22164 2.67913 3
      vertex -4.04508 2.93893 0
    endloop
  endfacet
  facet normal -0.82708 0.562085 0
    outer loop
      vertex -4.04508 2.93893 0
      vertex -4.22164 2.67913 3
      vertex -4.04508 2.93893 3
    endloop
  endfacet
  facet normal -0.860743 0.509039 0
    outer loop
      vertex -4.38153 2.40877 0
      vertex -4.38153 2.40877 3
      vertex -4.22164 2.67913 0
    endloop
  endfacet
  facet normal -0.860743 0.509039 0
    outer loop
      vertex -4.22164 2.67913 0
      vertex -4.38153 2.40877 3
      vertex -4.22164 2.67913 3
    endloop
  endfacet
  facet normal -0.891006 0.453991 0
    outer loop
      vertex -4.52413 2.1289 0
      vertex -4.52413 2.1289 3
      vertex -4.38153 2.40877 0
    endloop
  endfacet
  facet normal -0.891006 0.453991 0
    outer loop
      vertex -4.38153 2.40877 0
      vertex -4.52413 2.1289 3
      vertex -4.38153 2.40877 3
    endloop
  endfacet
  facet normal -0.917754 0.397148 0
    outer loop
      vertex -4.64888 1.84062 0
      vertex -4.64888 1.84062 3
      vertex -4.52413 2.1289 0
    endloop
  endfacet
  facet normal -0.917754 0.397148 0
    outer loop
      vertex -4.52413 2.1289 0
      vertex -4.64888 1.84062 3
      vertex -4.52413 2.1289 3
    endloop
  endfacet
  facet normal -0.94088 0.33874 0
    outer loop
      vertex -4.75528 1.54508 0
      vertex -4.75528 1.54508 3
      vertex -4.64888 1.84062 0
    endloop
  endfacet
  facet normal -0.94088 0.33874 0
    outer loop
      vertex -4.64888 1.84062 0
      vertex -4.75528 1.54508 3
      vertex -4.64888 1.84062 3
    endloop
  endfacet
  facet normal -0.960294 0.27899 0
    outer loop
      vertex -4.84292 1.24345 0
      vertex -4.84292 1.24345 3
      vertex -4.75528 1.54508 0
    endloop
  endfacet
  facet normal -0.960294 0.27899 0
    outer loop
      vertex -4.75528 1.54508 0
      vertex -4.84292 1.24345 3
      vertex -4.75528 1.54508 3
    endloop
  endfacet
  facet normal -0.975917 0.218142 0
    outer loop
      vertex -4.91144 0.936907 0
      vertex -4.91144 0.936907 3
      vertex -4.84292 1.24345 0
    endloop
  endfacet
  facet normal -0.975917 0.218142 0
    outer loop
      vertex -4.84292 1.24345 0
      vertex -4.91144 0.936907 3
      vertex -4.84292 1.24345 3
    endloop
  endfacet
  facet normal -0.987688 0.156436 0
    outer loop
      vertex -4.96057 0.626666 0
      vertex -4.96057 0.626666 3
      vertex -4.91144 0.936907 0
    endloop
  endfacet
  facet normal -0.987688 0.156436 0
    outer loop
      vertex -4.91144 0.936907 0
      vertex -4.96057 0.626666 3
      vertex -4.91144 0.936907 3
    endloop
  endfacet
  facet normal -0.995562 0.0941081 0
    outer loop
      vertex -4.99013 0.313953 0
      vertex -4.99013 0.313953 3
      vertex -4.96057 0.626666 0
    endloop
  endfacet
  facet normal -0.995562 0.0941081 0
    outer loop
      vertex -4.96057 0.626666 0
      vertex -4.99013 0.313953 3
      vertex -4.96057 0.626666 3
    endloop
  endfacet
  facet normal 0.987688 -0.156435 0
    outer loop
      vertex -1.6168 0.525329 0
      vertex -1.6168 0.525329 3
      vertex -1.7 0 3
    endloop
  endfacet
  facet normal 0.987688 -0.156435 0
    outer loop
      vertex -1.7 0 0
      vertex -1.6168 0.525329 0
      vertex -1.7 0 3
    endloop
  endfacet
  facet normal 0.987688 0.156435 0
    outer loop
      vertex -1.7 0 3
      vertex -1.6168 -0.525329 3
      vertex -1.6168 -0.525329 0
    endloop
  endfacet
  facet normal 0.987688 0.156435 0
    outer loop
      vertex -1.7 0 0
      vertex -1.7 0 3
      vertex -1.6168 -0.525329 0
    endloop
  endfacet
  facet normal 0.891007 -0.45399 0
    outer loop
      vertex -1.37533 0.999235 0
      vertex -1.37533 0.999235 3
      vertex -1.6168 0.525329 3
    endloop
  endfacet
  facet normal 0.891007 -0.45399 0
    outer loop
      vertex -1.6168 0.525329 0
      vertex -1.37533 0.999235 0
      vertex -1.6168 0.525329 3
    endloop
  endfacet
  facet normal 0.707107 -0.707107 0
    outer loop
      vertex -0.999235 1.37533 0
      vertex -0.999235 1.37533 3
      vertex -1.37533 0.999235 3
    endloop
  endfacet
  facet normal 0.707107 -0.707107 0
    outer loop
      vertex -1.37533 0.999235 0
      vertex -0.999235 1.37533 0
      vertex -1.37533 0.999235 3
    endloop
  endfacet
  facet normal 0.45399 -0.891007 0
    outer loop
      vertex -0.525329 1.6168 0
      vertex -0.525329 1.6168 3
      vertex -0.999235 1.37533 3
    endloop
  endfacet
  facet normal 0.45399 -0.891007 0
    outer loop
      vertex -0.999235 1.37533 0
      vertex -0.525329 1.6168 0
      vertex -0.999235 1.37533 3
    endloop
  endfacet
  facet normal 0.156435 -0.987688 0
    outer loop
      vertex 0 1.7 0
      vertex 0 1.7 3
      vertex -0.525329 1.6168 3
    endloop
  endfacet
  facet normal 0.156435 -0.987688 0
    outer loop
      vertex -0.525329 1.6168 0
      vertex 0 1.7 0
      vertex -0.525329 1.6168 3
    endloop
  endfacet
  facet normal -0.156435 -0.987688 0
    outer loop
      vertex 0.525329 1.6168 0
      vertex 0.525329 1.6168 3
      vertex 0 1.7 3
    endloop
  endfacet
  facet normal -0.156435 -0.987688 0
    outer loop
      vertex 0 1.7 0
      vertex 0.525329 1.6168 0
      vertex 0 1.7 3
    endloop
  endfacet
  facet normal -0.45399 -0.891007 0
    outer loop
      vertex 0.999235 1.37533 0
      vertex 0.999235 1.37533 3
      vertex 0.525329 1.6168 3
    endloop
  endfacet
  facet normal -0.45399 -0.891007 0
    outer loop
      vertex 0.525329 1.6168 0
      vertex 0.999235 1.37533 0
      vertex 0.525329 1.6168 3
    endloop
  endfacet
  facet normal -0.707107 -0.707107 0
    outer loop
      vertex 1.1 1.27456 0
      vertex 1.1 1.27456 3
      vertex 0.999235 1.37533 3
    endloop
  endfacet
  facet normal -0.707107 -0.707107 0
    outer loop
      vertex 0.999235 1.37533 0
      vertex 1.1 1.27456 0
      vertex 0.999235 1.37533 3
    endloop
  endfacet
  facet normal -1 0 0
    outer loop
      vertex 1.1 -1.27456 0
      vertex 1.1 -1.27456 3
      vertex 1.1 1.27456 0
    endloop
  endfacet
  facet normal -1 0 0
    outer loop
      vertex 1.1 1.27456 0
      vertex 1.1 -1.27456 3
      vertex 1.1 1.27456 3
    endloop
  endfacet
  facet normal -0.707107 0.707107 0
    outer loop
      vertex 1.1 -1.27456 3
      vertex 1.1 -1.27456 0
      vertex 0.999235 -1.37533 3
    endloop
  endfacet
  facet normal -0.707107 0.707107 0
    outer loop
      vertex 0.999235 -1.37533 3
      vertex 1.1 -1.27456 0
      vertex 0.999235 -1.37533 0
    endloop
  endfacet
  facet normal -0.45399 0.891007 0
    outer loop
      vertex 0.999235 -1.37533 3
      vertex 0.999235 -1.37533 0
      vertex 0.525329 -1.6168 3
    endloop
  endfacet
  facet normal -0.45399 0.891007 0
    outer loop
      vertex 0.525329 -1.6168 3
      vertex 0.999235 -1.37533 0
      vertex 0.525329 -1.6168 0
    endloop
  endfacet
  facet normal -0.156435 0.987688 0
    outer loop
      vertex 0.525329 -1.6168 3
      vertex 0.525329 -1.6168 0
      vertex 0 -1.7 3
    endloop
  endfacet
  facet normal -0.156435 0.987688 0
    outer loop
      vertex 0 -1.7 3
      vertex 0.525329 -1.6168 0
      vertex 0 -1.7 0
    endloop
  endfacet
  facet normal 0.156435 0.987688 0
    outer loop
      vertex 0 -1.7 3
      vertex 0 -1.7 0
      vertex -0.525329 -1.6168 3
    endloop
  endfacet
  facet normal 0.156435 0.987688 0
    outer loop
      vertex -0.525329 -1.6168 3
      vertex 0 -1.7 0
      vertex -0.525329 -1.6168 0
    endloop
  endfacet
  facet normal 0.45399 0.891007 0
    outer loop
      vertex -0.525329 -1.6168 3
      vertex -0.525329 -1.6168 0
      vertex -0.999235 -1.37533 3
    endloop
  endfacet
  facet normal 0.45399 0.891007 0
    outer loop
      vertex -0.999235 -1.37533 3
      vertex -0.525329 -1.6168 0
      vertex -0.999235 -1.37533 0
    endloop
  endfacet
  facet normal 0.707107 0.707107 0
    outer loop
      vertex -0.999235 -1.37533 3
      vertex -0.999235 -1.37533 0
      vertex -1.37533 -0.999235 3
    endloop
  endfacet
  facet normal 0.707107 0.707107 0
    outer loop
      vertex -1.37533 -0.999235 3
      vertex -0.999235 -1.37533 0
      vertex -1.37533 -0.999235 0
    endloop
  endfacet
  facet normal 0.891007 0.45399 0
    outer loop
      vertex -1.6168 -0.525329 3
      vertex -1.37533 -0.999235 3
      vertex -1.37533 -0.999235 0
    endloop
  endfacet
  facet normal 0.891007 0.45399 0
    outer loop
      vertex -1.6168 -0.525329 0
      vertex -1.6168 -0.525329 3
      vertex -1.37533 -0.999235 0
    endloop
  endfacet
  facet normal 0 0 1
    outer loop
      vertex -4.99013 0.313953 3
      vertex -5 0 3
      vertex -4.99013 -0.313953 3
    endloop
  endfacet
  facet normal 0 0 1
    outer loop
      vertex -4.91144 -0.936907 3
      vertex -4.99013 0.313953 3
      vertex -4.96057 -0.626666 3
    endloop
  endfacet
  facet normal 0 0 1
    outer loop
      vertex -4.96057 -0.626666 3
      vertex -4.99013 0.313953 3
      vertex -4.99013 -0.313953 3
    endloop
  endfacet
  facet normal 0 0 1
    outer loop
      vertex -4.84292 -1.24345 3
      vertex -4.99013 0.313953 3
      vertex -4.91144 -0.936907 3
    endloop
  endfacet
  facet normal 0 0 1
    outer loop
      vertex -4.75528 -1.54508 3
      vertex -4.99013 0.313953 3
      vertex -4.84292 -1.24345 3
    endloop
  endfacet
  facet normal 0 0 1
    outer loop
      vertex -4.64888 -1.84062 3
      vertex -4.99013 0.313953 3
      vertex -4.75528 -1.54508 3
    endloop
  endfacet
  facet normal 0 0 1
    outer loop
      vertex -4.52413 -2.1289 3
      vertex -4.99013 0.313953 3
      vertex -4.64888 -1.84062 3
    endloop
  endfacet
  facet normal 0 0 1
    outer loop
      vertex -4.38153 -2.40877 3
      vertex -4.99013 0.313953 3
      vertex -4.52413 -2.1289 3
    endloop
  endfacet
  facet normal 0 0 1
    outer loop
      vertex -4.22164 -2.67913 3
      vertex -4.99013 0.313953 3
      vertex -4.38153 -2.40877 3
    endloop
  endfacet
  facet normal 0 0 1
    outer loop
      vertex -4.04508 -2.93893 3
      vertex -4.99013 0.313953 3
      vertex -4.22164 -2.67913 3
    endloop
  endfacet
  facet normal 0 0 1
    outer loop
      vertex -3.85257 -3.18712 3
      vertex -4.99013 0.313953 3
      vertex -4.04508 -2.93893 3
    endloop
  endfacet
  facet normal 0 0 1
    outer loop
      vertex -3.64484 -3.42274 3
      vertex -4.99013 0.313953 3
      vertex -3.85257 -3.18712 3
    endloop
  endfacet
  facet normal 0 0 1
    outer loop
      vertex -3.42274 -3.64484 3
      vertex -4.99013 0.313953 3
      vertex -3.64484 -3.42274 3
    endloop
  endfacet
  facet normal 0 0 1
    outer loop
      vertex -3.18712 -3.85257 3
      vertex -4.99013 0.313953 3
      vertex -3.42274 -3.64484 3
    endloop
  endfacet
  facet normal 0 0 1
    outer loop
      vertex -2.93893 -4.04508 3
      vertex -4.99013 0.313953 3
      vertex -3.18712 -3.85257 3
    endloop
  endfacet
  facet normal 0 0 1
    outer loop
      vertex -2.67913 -4.22164 3
      vertex -4.99013 0.313953 3
      vertex -2.93893 -4.04508 3
    endloop
  endfacet
  facet normal 0 0 1
    outer loop
      vertex -2.40877 -4.38153 3
      vertex -4.99013 0.313953 3
      vertex -2.67913 -4.22164 3
    endloop
  endfacet
  facet normal 0 0 1
    outer loop
      vertex -2.1289 -4.52413 3
      vertex -4.99013 0.313953 3
      vertex -2.40877 -4.38153 3
    endloop
  endfacet
  facet normal 0 0 1
    outer loop
      vertex -1.84062 -4.64888 3
      vertex -4.99013 0.313953 3
      vertex -2.1289 -4.52413 3
    endloop
  endfacet
  facet normal 0 0 1
    outer loop
      vertex -1.54508 -4.75528 3
      vertex -4.99013 0.313953 3
      vertex -1.84062 -4.64888 3
    endloop
  endfacet
  facet normal 0 0 1
    outer loop
      vertex -1.24345 -4.84292 3
      vertex -4.99013 0.313953 3
      vertex -1.54508 -4.75528 3
    endloop
  endfacet
  facet normal 0 0 1
    outer loop
      vertex -0.936907 -4.91144 3
      vertex -4.99013 0.313953 3
      vertex -1.24345 -4.84292 3
    endloop
  endfacet
  facet normal 0 0 1
    outer loop
      vertex -0.626666 -4.96057 3
      vertex -4.99013 0.313953 3
      vertex -0.936907 -4.91144 3
    endloop
  endfacet
  facet normal 0 0 1
    outer loop
      vertex -0.313953 -4.99013 3
      vertex -4.99013 0.313953 3
      vertex -0.626666 -4.96057 3
    endloop
  endfacet
  facet normal 0 0 1
    outer loop
      vertex 0 -5 3
      vertex -4.99013 0.313953 3
      vertex -0.313953 -4.99013 3
    endloop
  endfacet
  facet normal 0 0 1
    outer loop
      vertex 0.313953 -4.99013 3
      vertex -4.99013 0.313953 3
      vertex 0 -5 3
    endloop
  endfacet
  facet normal 0 0 1
    outer loop
      vertex 0.626666 -4.96057 3
      vertex -4.99013 0.313953 3
      vertex 0.313953 -4.99013 3
    endloop
  endfacet
  facet normal 0 0 1
    outer loop
      vertex 0.936907 -4.91144 3
      vertex -4.99013 0.313953 3
      vertex 0.626666 -4.96057 3
    endloop
  endfacet
  facet normal 0 0 1
    outer loop
      vertex 1.24345 -4.84292 3
      vertex -4.99013 0.313953 3
      vertex 0.936907 -4.91144 3
    endloop
  endfacet
  facet normal 0 0 1
    outer loop
      vertex 1.54508 -4.75528 3
      vertex -4.99013 0.313953 3
      vertex 1.24345 -4.84292 3
    endloop
  endfacet
  facet normal 0 0 1
    outer loop
      vertex 1.84062 -4.64888 3
      vertex -4.99013 0.313953 3
      vertex 1.54508 -4.75528 3
    endloop
  endfacet
  facet normal 0 0 1
    outer loop
      vertex 2.1289 -4.52413 3
      vertex -4.99013 0.313953 3
      vertex 1.84062 -4.64888 3
    endloop
  endfacet
  facet normal 0 0 1
    outer loop
      vertex 2.40877 -4.38153 3
      vertex -4.99013 0.313953 3
      vertex 2.1289 -4.52413 3
    endloop
  endfacet
  facet normal 0 0 1
    outer loop
      vertex 2.67913 -4.22164 3
      vertex -4.99013 0.313953 3
      vertex 2.40877 -4.38153 3
    endloop
  endfacet
  facet normal 0 0 1
    outer loop
      vertex 2.93893 -4.04508 3
      vertex -4.99013 0.313953 3
      vertex 2.67913 -4.22164 3
    endloop
  endfacet
  facet normal 0 0 1
    outer loop
      vertex 3.18712 -3.85257 3
      vertex -4.99013 0.313953 3
      vertex 2.93893 -4.04508 3
    endloop
  endfacet
  facet normal 0 0 1
    outer loop
      vertex 3.42274 -3.64484 3
      vertex -4.99013 0.313953 3
      vertex 3.18712 -3.85257 3
    endloop
  endfacet
  facet normal 0 0 1
    outer loop
      vertex 3.64484 -3.42274 3
      vertex -4.99013 0.313953 3
      vertex 3.42274 -3.64484 3
    endloop
  endfacet
  facet normal 0 0 1
    outer loop
      vertex -0.525329 -1.6168 3
      vertex -4.99013 0.313953 3
      vertex 3.64484 -3.42274 3
    endloop
  endfacet
  facet normal 0 0 1
    outer loop
      vertex -0.999235 -1.37533 3
      vertex -1.37533 -0.999235 3
      vertex -4.99013 0.313953 3
    endloop
  endfacet
  facet normal 0 0 1
    outer loop
      vertex 1.1 1.27456 3
      vertex 4.96057 0.626666 3
      vertex 4.91144 0.936907 3
    endloop
  endfacet
  facet normal 0 0 1
    outer loop
      vertex -1.6168 -0.525329 3
      vertex -1.7 0 3
      vertex -4.99013 0.313953 3
    endloop
  endfacet
  facet normal 0 0 1
    outer loop
      vertex 0.525329 -1.6168 3
      vertex 3.85257 -3.18712 3
      vertex 4.04508 -2.93893 3
    endloop
  endfacet
  facet normal 0 0 1
    outer loop
      vertex -1.37533 0.999235 3
      vertex -0.999235 1.37533 3
      vertex -4.99013 0.313953 3
    endloop
  endfacet
  facet normal 0 0 1
    outer loop
      vertex 0.999235 1.37533 3
      vertex 1.1 1.27456 3
      vertex 4.64888 1.84062 3
    endloop
  endfacet
  facet normal 0 0 1
    outer loop
      vertex -0.999235 1.37533 3
      vertex -0.525329 1.6168 3
      vertex -4.99013 0.313953 3
    endloop
  endfacet
  facet normal 0 0 1
    outer loop
      vertex -0.525329 1.6168 3
      vertex 0 1.7 3
      vertex 4.04508 2.93893 3
    endloop
  endfacet
  facet normal 0 0 1
    outer loop
      vertex 3.64484 3.42274 3
      vertex -4.99013 0.313953 3
      vertex 3.85257 3.18712 3
    endloop
  endfacet
  facet normal 0 0 1
    outer loop
      vertex 3.42274 3.64484 3
      vertex -4.99013 0.313953 3
      vertex 3.64484 3.42274 3
    endloop
  endfacet
  facet normal 0 0 1
    outer loop
      vertex 3.18712 3.85257 3
      vertex -4.99013 0.313953 3
      vertex 3.42274 3.64484 3
    endloop
  endfacet
  facet normal 0 0 1
    outer loop
      vertex 2.93893 4.04508 3
      vertex -4.99013 0.313953 3
      vertex 3.18712 3.85257 3
    endloop
  endfacet
  facet normal 0 0 1
    outer loop
      vertex 2.67913 4.22164 3
      vertex -4.99013 0.313953 3
      vertex 2.93893 4.04508 3
    endloop
  endfacet
  facet normal 0 0 1
    outer loop
      vertex 2.40877 4.38153 3
      vertex -4.99013 0.313953 3
      vertex 2.67913 4.22164 3
    endloop
  endfacet
  facet normal 0 0 1
    outer loop
      vertex 2.1289 4.52413 3
      vertex -4.99013 0.313953 3
      vertex 2.40877 4.38153 3
    endloop
  endfacet
  facet normal 0 0 1
    outer loop
      vertex 1.84062 4.64888 3
      vertex -4.99013 0.313953 3
      vertex 2.1289 4.52413 3
    endloop
  endfacet
  facet normal 0 0 1
    outer loop
      vertex 1.54508 4.75528 3
      vertex -4.99013 0.313953 3
      vertex 1.84062 4.64888 3
    endloop
  endfacet
  facet normal 0 0 1
    outer loop
      vertex 1.24345 4.84292 3
      vertex -4.99013 0.313953 3
      vertex 1.54508 4.75528 3
    endloop
  endfacet
  facet normal 0 0 1
    outer loop
      vertex 0.936907 4.91144 3
      vertex -4.99013 0.313953 3
      vertex 1.24345 4.84292 3
    endloop
  endfacet
  facet normal 0 0 1
    outer loop
      vertex 0.626666 4.96057 3
      vertex -4.99013 0.313953 3
      vertex 0.936907 4.91144 3
    endloop
  endfacet
  facet normal 0 0 1
    outer loop
      vertex 0.313953 4.99013 3
      vertex -4.99013 0.313953 3
      vertex 0.626666 4.96057 3
    endloop
  endfacet
  facet normal 0 0 1
    outer loop
      vertex 0 5 3
      vertex -4.99013 0.313953 3
      vertex 0.313953 4.99013 3
    endloop
  endfacet
  facet normal 0 0 1
    outer loop
      vertex -0.313953 4.99013 3
      vertex -4.99013 0.313953 3
      vertex 0 5 3
    endloop
  endfacet
  facet normal 0 0 1
    outer loop
      vertex -0.626666 4.96057 3
      vertex -4.99013 0.313953 3
      vertex -0.313953 4.99013 3
    endloop
  endfacet
  facet normal 0 0 1
    outer loop
      vertex -0.936907 4.91144 3
      vertex -4.99013 0.313953 3
      vertex -0.626666 4.96057 3
    endloop
  endfacet
  facet normal 0 0 1
    outer loop
      vertex -1.24345 4.84292 3
      vertex -4.99013 0.313953 3
      vertex -0.936907 4.91144 3
    endloop
  endfacet
  facet normal 0 0 1
    outer loop
      vertex -1.54508 4.75528 3
      vertex -4.99013 0.313953 3
      vertex -1.24345 4.84292 3
    endloop
  endfacet
  facet normal 0 0 1
    outer loop
      vertex -1.84062 4.64888 3
      vertex -4.99013 0.313953 3
      vertex -1.54508 4.75528 3
    endloop
  endfacet
  facet normal 0 0 1
    outer loop
      vertex -2.1289 4.52413 3
      vertex -4.99013 0.313953 3
      vertex -1.84062 4.64888 3
    endloop
  endfacet
  facet normal 0 0 1
    outer loop
      vertex -2.40877 4.38153 3
      vertex -4.99013 0.313953 3
      vertex -2.1289 4.52413 3
    endloop
  endfacet
  facet normal 0 0 1
    outer loop
      vertex -2.67913 4.22164 3
      vertex -4.99013 0.313953 3
      vertex -2.40877 4.38153 3
    endloop
  endfacet
  facet normal 0 0 1
    outer loop
      vertex -2.93893 4.04508 3
      vertex -4.99013 0.313953 3
      vertex -2.67913 4.22164 3
    endloop
  endfacet
  facet normal 0 0 1
    outer loop
      vertex -3.18712 3.85257 3
      vertex -4.99013 0.313953 3
      vertex -2.93893 4.04508 3
    endloop
  endfacet
  facet normal 0 0 1
    outer loop
      vertex -3.42274 3.64484 3
      vertex -4.99013 0.313953 3
      vertex -3.18712 3.85257 3
    endloop
  endfacet
  facet normal 0 0 1
    outer loop
      vertex -3.64484 3.42274 3
      vertex -4.99013 0.313953 3
      vertex -3.42274 3.64484 3
    endloop
  endfacet
  facet normal 0 0 1
    outer loop
      vertex -3.85257 3.18712 3
      vertex -4.99013 0.313953 3
      vertex -3.64484 3.42274 3
    endloop
  endfacet
  facet normal 0 0 1
    outer loop
      vertex -4.04508 2.93893 3
      vertex -4.99013 0.313953 3
      vertex -3.85257 3.18712 3
    endloop
  endfacet
  facet normal 0 0 1
    outer loop
      vertex -4.22164 2.67913 3
      vertex -4.99013 0.313953 3
      vertex -4.04508 2.93893 3
    endloop
  endfacet
  facet normal 0 0 1
    outer loop
      vertex -4.38153 2.40877 3
      vertex -4.99013 0.313953 3
      vertex -4.22164 2.67913 3
    endloop
  endfacet
  facet normal 0 0 1
    outer loop
      vertex -4.52413 2.1289 3
      vertex -4.99013 0.313953 3
      vertex -4.38153 2.40877 3
    endloop
  endfacet
  facet normal 0 0 1
    outer loop
      vertex -4.64888 1.84062 3
      vertex -4.99013 0.313953 3
      vertex -4.52413 2.1289 3
    endloop
  endfacet
  facet normal 0 0 1
    outer loop
      vertex -4.75528 1.54508 3
      vertex -4.99013 0.313953 3
      vertex -4.64888 1.84062 3
    endloop
  endfacet
  facet normal 0 0 1
    outer loop
      vertex -4.84292 1.24345 3
      vertex -4.99013 0.313953 3
      vertex -4.75528 1.54508 3
    endloop
  endfacet
  facet normal 0 0 1
    outer loop
      vertex -4.91144 0.936907 3
      vertex -4.99013 0.313953 3
      vertex -4.84292 1.24345 3
    endloop
  endfacet
  facet normal 0 0 1
    outer loop
      vertex -4.96057 0.626666 3
      vertex -4.99013 0.313953 3
      vertex -4.91144 0.936907 3
    endloop
  endfacet
  facet normal 0 0 1
    outer loop
      vertex 0.999235 -1.37533 3
      vertex 0.525329 -1.6168 3
      vertex 4.22164 -2.67913 3
    endloop
  endfacet
  facet normal 0 0 1
    outer loop
      vertex -1.6168 0.525329 3
      vertex -1.37533 0.999235 3
      vertex -4.99013 0.313953 3
    endloop
  endfacet
  facet normal 0 0 1
    outer loop
      vertex 1.1 1.27456 3
      vertex 4.91144 0.936907 3
      vertex 4.84292 1.24345 3
    endloop
  endfacet
  facet normal 0 0 1
    outer loop
      vertex 1.1 1.27456 3
      vertex 4.84292 1.24345 3
      vertex 4.75528 1.54508 3
    endloop
  endfacet
  facet normal 0 0 1
    outer loop
      vertex 0 1.7 3
      vertex 0.525329 1.6168 3
      vertex 4.22164 2.67913 3
    endloop
  endfacet
  facet normal 0 0 1
    outer loop
      vertex 3.85257 3.18712 3
      vertex -0.525329 1.6168 3
      vertex 4.04508 2.93893 3
    endloop
  endfacet
  facet normal 0 0 1
    outer loop
      vertex 3.85257 3.18712 3
      vertex -4.99013 0.313953 3
      vertex -0.525329 1.6168 3
    endloop
  endfacet
  facet normal 0 0 1
    outer loop
      vertex 0.525329 1.6168 3
      vertex 0.999235 1.37533 3
      vertex 4.52413 2.1289 3
    endloop
  endfacet
  facet normal 0 0 1
    outer loop
      vertex 0 1.7 3
      vertex 4.22164 2.67913 3
      vertex 4.04508 2.93893 3
    endloop
  endfacet
  facet normal 0 0 1
    outer loop
      vertex 4.22164 2.67913 3
      vertex 0.525329 1.6168 3
      vertex 4.38153 2.40877 3
    endloop
  endfacet
  facet normal 0 0 1
    outer loop
      vertex 4.52413 2.1289 3
      vertex 0.999235 1.37533 3
      vertex 4.64888 1.84062 3
    endloop
  endfacet
  facet normal 0 0 1
    outer loop
      vertex 4.64888 1.84062 3
      vertex 1.1 1.27456 3
      vertex 4.75528 1.54508 3
    endloop
  endfacet
  facet normal 0 0 1
    outer loop
      vertex 0.525329 1.6168 3
      vertex 4.52413 2.1289 3
      vertex 4.38153 2.40877 3
    endloop
  endfacet
  facet normal 0 0 1
    outer loop
      vertex 4.52413 -2.1289 3
      vertex 1.1 -1.27456 3
      vertex 4.38153 -2.40877 3
    endloop
  endfacet
  facet normal 0 0 1
    outer loop
      vertex 1.1 -1.27456 3
      vertex 0.999235 -1.37533 3
      vertex 4.38153 -2.40877 3
    endloop
  endfacet
  facet normal 0 0 1
    outer loop
      vertex 0.525329 -1.6168 3
      vertex 0 -1.7 3
      vertex 3.85257 -3.18712 3
    endloop
  endfacet
  facet normal 0 0 1
    outer loop
      vertex 4.22164 -2.67913 3
      vertex 0.525329 -1.6168 3
      vertex 4.04508 -2.93893 3
    endloop
  endfacet
  facet normal 0 0 1
    outer loop
      vertex -1.7 0 3
      vertex -1.6168 0.525329 3
      vertex -4.99013 0.313953 3
    endloop
  endfacet
  facet normal 0 0 1
    outer loop
      vertex 3.85257 -3.18712 3
      vertex 0 -1.7 3
      vertex 3.64484 -3.42274 3
    endloop
  endfacet
  facet normal 0 0 1
    outer loop
      vertex 0 -1.7 3
      vertex -0.525329 -1.6168 3
      vertex 3.64484 -3.42274 3
    endloop
  endfacet
  facet normal 0 0 1
    outer loop
      vertex -0.999235 -1.37533 3
      vertex -4.99013 0.313953 3
      vertex -0.525329 -1.6168 3
    endloop
  endfacet
  facet normal 0 0 1
    outer loop
      vertex 1.1 1.27456 3
      vertex 4.99013 0.313953 3
      vertex 4.96057 0.626666 3
    endloop
  endfacet
  facet normal 0 0 1
    outer loop
      vertex 0.999235 -1.37533 3
      vertex 4.22164 -2.67913 3
      vertex 4.38153 -2.40877 3
    endloop
  endfacet
  facet normal 0 0 1
    outer loop
      vertex -1.37533 -0.999235 3
      vertex -1.6168 -0.525329 3
      vertex -4.99013 0.313953 3
    endloop
  endfacet
  facet normal 0 0 1
    outer loop
      vertex 1.1 1.27456 3
      vertex 5 0 3
      vertex 4.99013 0.313953 3
    endloop
  endfacet
  facet normal 0 0 1
    outer loop
      vertex 1.1 1.27456 3
      vertex 4.99013 -0.313953 3
      vertex 5 0 3
    endloop
  endfacet
  facet normal 0 0 1
    outer loop
      vertex 1.1 1.27456 3
      vertex 4.96057 -0.626666 3
      vertex 4.99013 -0.313953 3
    endloop
  endfacet
  facet normal 0 0 1
    outer loop
      vertex 1.1 1.27456 3
      vertex 4.91144 -0.936907 3
      vertex 4.96057 -0.626666 3
    endloop
  endfacet
  facet normal 0 0 1
    outer loop
      vertex 1.1 1.27456 3
      vertex 4.84292 -1.24345 3
      vertex 4.91144 -0.936907 3
    endloop
  endfacet
  facet normal 0 0 1
    outer loop
      vertex 1.1 1.27456 3
      vertex 4.75528 -1.54508 3
      vertex 4.84292 -1.24345 3
    endloop
  endfacet
  facet normal 0 0 1
    outer loop
      vertex 1.1 1.27456 3
      vertex 4.64888 -1.84062 3
      vertex 4.75528 -1.54508 3
    endloop
  endfacet
  facet normal 0 0 1
    outer loop
      vertex 1.1 1.27456 3
      vertex 4.52413 -2.1289 3
      vertex 4.64888 -1.84062 3
    endloop
  endfacet
  facet normal 0 0 1
    outer loop
      vertex 1.1 1.27456 3
      vertex 1.1 -1.27456 3
      vertex 4.52413 -2.1289 3
    endloop
  endfacet
endsolid OpenSCAD_Model
