  0
SECTION
  2
HEADER
  9
$ACADVER
  1
AC1014
  9
$HANDSEED
  5
FFFF
  9
$MEASUREMENT
 70
     1
  0
ENDSEC
  0
SECTION
  2
TABLES
  0
TABLE
  2
VPORT
  5
8
330
0
100
AcDbSymbolTable
 70
     4
  0
VPORT
  5
2E
330
8
100
AcDbSymbolTableRecord
100
AcDbViewportTableRecord
  2
*ACTIVE
 70
     0
 10
0.0
 20
0.0
 11
1.0
 21
1.0
 12
210.0
 22
148.5
 13
0.0
 23
0.0
 14
10.0
 24
10.0
 15
10.0
 25
10.0
 16
0.0
 26
0.0
 36
1.0
 17
0.0
 27
0.0
 37
0.0
 40
341.0
 41
1.24
 42
50.0
 43
0.0
 44
0.0
 50
0.0
 51
0.0
 71
     0
 72
   100
 73
     1
 74
     3
 75
     0
 76
     0
 77
     0
 78
     0
  0
ENDTAB
  0
TABLE
  2
LTYPE
  5
5
330
0
100
AcDbSymbolTable
 70
     1
  0
LTYPE
  5
14
330
5
100
AcDbSymbolTableRecord
100
AcDbLinetypeTableRecord
  2
BYBLOCK
 70
     0
  3

 72
    65
 73
     0
 40
0.0
  0
LTYPE
  5
15
330
5
100
AcDbSymbolTableRecord
100
AcDbLinetypeTableRecord
  2
BYLAYER
 70
     0
  3

 72
    65
 73
     0
 40
0.0
  0
LTYPE
  5
16
330
5
100
AcDbSymbolTableRecord
100
AcDbLinetypeTableRecord
  2
CONTINUOUS
 70
     0
  3
Solid line
 72
    65
 73
     0
 40
0.0
  0
ENDTAB
  0
TABLE
  2
LAYER
  5
2
100
AcDbSymbolTable
 70
2
  0
LAYER
  5
50
100
AcDbSymbolTableRecord
100
AcDbLayerTableRecord
  2
0
 70
0
  6
CONTINUOUS
  0
LAYER
  5
51
100
AcDbSymbolTableRecord
100
AcDbLayerTableRecord
  2
Layer_1
 70
0
  6
CONTINUOUS
  0
ENDTAB
  0
TABLE
  2
STYLE
  5
3
330
0
100
AcDbSymbolTable
 70
     1
  0
STYLE
  5
11
330
3
100
AcDbSymbolTableRecord
100
AcDbTextStyleTableRecord
  2
STANDARD
 70
     0
 40
0.0
 41
1.0
 50
0.0
 71
     0
 42
2.5
  3
txt
  4

  0
ENDTAB
  0
TABLE
  2
VIEW
  5
6
330
0
100
AcDbSymbolTable
 70
     0
  0
ENDTAB
  0
TABLE
  2
UCS
  5
7
330
0
100
AcDbSymbolTable
 70
     0
  0
ENDTAB
  0
TABLE
  2
APPID
  5
9
330
0
100
AcDbSymbolTable
 70
     2
  0
APPID
  5
12
330
9
100
AcDbSymbolTableRecord
100
AcDbRegAppTableRecord
  2
ACAD
 70
     0
  0
ENDTAB
  0
TABLE
  2
DIMSTYLE
  5
A
330
0
100
AcDbSymbolTable
 70
     1
  0
DIMSTYLE
105
27
330
A
100
AcDbSymbolTableRecord
100
AcDbDimStyleTableRecord
  2
ISO-25
 70
     0
  3

  4

  5

  6

  7

 40
1.0
 41
2.5
 42
0.625
 43
3.75
 44
1.25
 45
0.0
 46
0.0
 47
0.0
 48
0.0
140
2.5
141
2.5
142
0.0
143
0.03937007874016
144
1.0
145
0.0
146
1.0
147
0.625
 71
     0
 72
     0
 73
     0
 74
     0
 75
     0
 76
     0
 77
     1
 78
     8
170
     0
171
     3
172
     1
173
     0
174
     0
175
     0
176
     0
177
     0
178
     0
270
     2
271
     2
272
     2
273
     2
274
     3
340
11
275
     0
280
     0
281
     0
282
     0
283
     0
284
     8
285
     0
286
     0
287
     3
288
     0
  0
ENDTAB
  0
TABLE
  2
BLOCK_RECORD
  5
1
330
0
100
AcDbSymbolTable
 70
     1
  0
BLOCK_RECORD
  5
1F
330
1
100
AcDbSymbolTableRecord
100
AcDbBlockTableRecord
  2
*MODEL_SPACE
  0
BLOCK_RECORD
  5
1B
330
1
100
AcDbSymbolTableRecord
100
AcDbBlockTableRecord
  2
*PAPER_SPACE
  0
ENDTAB
  0
ENDSEC
  0
SECTION
  2
BLOCKS
  0
BLOCK
  5
20
330
1F
100
AcDbEntity
  8
0
100
AcDbBlockBegin
  2
*MODEL_SPACE
 70
     0
 10
0.0
 20
0.0
 30
0.0
  3
*MODEL_SPACE
  1

  0
ENDBLK
  5
21
330
1F
100
AcDbEntity
  8
0
100
AcDbBlockEnd
  0
BLOCK
  5
1C
330
1B
100
AcDbEntity
 67
     1
  8
0
100
AcDbBlockBegin
  2
*PAPER_SPACE
  1

  0
ENDBLK
  5
1D
330
1B
100
AcDbEntity
 67
     1
  8
0
100
AcDbBlockEnd
  0
ENDSEC
  0
SECTION
  2
ENTITIES
  0
LWPOLYLINE
  5
100
100
AcDbEntity
  8
Layer_1
 62
7
100
AcDbPolyline
 90
85
 70
1
 10
2.022331
 20
30.427767
 30
0.0
 10
0.779252
 20
27.904503
 30
0.0
 10
0.000008
 20
27.904503
 30
0.0
 10
-2.996371
 20
27.746797
 30
0.0
 10
-4.443538
 20
30.186574
 30
0.0
 10
-7.467747
 20
29.583590
 30
0.0
 10
-7.875922
 20
26.782020
 30
0.0
 10
-11.428904
 20
25.474002
 30
0.0
 10
-13.553272
 20
27.329348
 30
0.0
 10
-16.243519
 20
25.817241
 30
0.0
 10
-15.761130
 20
23.034228
 30
0.0
 10
-18.729678
 20
20.696496
 30
0.0
 10
-21.327158
 20
21.800426
 30
0.0
 10
-23.423695
 20
19.527631
 30
0.0
 10
-22.106402
 20
17.022920
 30
0.0
 10
-24.212216
 20
13.887366
 30
0.0
 10
-27.023061
 20
14.147123
 30
0.0
 10
-28.321802
 20
11.345588
 30
0.0
 10
-26.290200
 20
9.369637
 30
0.0
 10
-27.319915
 20
5.723862
 30
0.0
 10
-30.065822
 20
5.102353
 30
0.0
 10
-30.427614
 20
2.041032
 30
0.0
 10
-27.895072
 20
0.788671
 30
0.0
 10
-27.904348
 20
0.000170
 30
0.0
 10
-27.746644
 20
-2.996240
 30
0.0
 10
-30.167865
 20
-4.434106
 30
0.0
 10
-29.574154
 20
-7.467571
 30
0.0
 10
-26.772589
 20
-7.875749
 30
0.0
 10
-25.464572
 20
-11.419501
 30
0.0
 10
-27.319915
 20
-13.543844
 30
0.0
 10
-25.817088
 20
-16.234071
 30
0.0
 10
-23.024797
 20
-15.761010
 30
0.0
 10
-20.677788
 20
-18.720279
 30
0.0
 10
-21.800271
 20
-21.317711
 30
0.0
 10
-19.527475
 20
-23.414256
 30
0.0
 10
-17.022763
 20
-22.096983
 30
0.0
 10
-13.877957
 20
-24.202784
 30
0.0
 10
-14.137705
 20
-27.022890
 30
0.0
 10
-11.336137
 20
-28.312363
 30
0.0
 10
-9.360197
 20
-26.290072
 30
0.0
 10
-5.723725
 20
-27.310474
 30
0.0
 10
-5.102185
 20
-30.065669
 30
0.0
 10
-2.022316
 20
-30.427478
 30
0.0
 10
-0.779236
 20
-27.885643
 30
0.0
 10
0.000008
 20
-27.894957
 30
0.0
 10
2.996386
 20
-27.737251
 30
0.0
 10
4.443554
 20
-30.167749
 30
0.0
 10
7.467762
 20
-29.564781
 30
0.0
 10
7.875938
 20
-26.763161
 30
0.0
 10
11.419642
 20
-25.455174
 30
0.0
 10
13.553287
 20
-27.319788
 30
0.0
 10
16.243534
 20
-25.807669
 30
0.0
 10
15.761145
 20
-23.015363
 30
0.0
 10
18.729693
 20
-20.677660
 30
0.0
 10
21.327173
 20
-21.790857
 30
0.0
 10
23.423710
 20
-19.518065
 30
0.0
 10
22.106417
 20
-17.013371
 30
0.0
 10
24.202954
 20
-13.877854
 30
0.0
 10
27.023076
 20
-14.128326
 30
0.0
 10
28.321816
 20
-11.336019
 30
0.0
 10
26.290215
 20
-9.360040
 30
0.0
 10
27.319930
 20
-5.714322
 30
0.0
 10
30.065839
 20
-5.092784
 30
0.0
 10
30.427631
 20
-2.022178
 30
0.0
 10
27.895087
 20
-0.769873
 30
0.0
 10
27.904343
 20
0.000142
 30
0.0
 10
27.746641
 20
2.996523
 30
0.0
 10
30.167862
 20
4.452959
 30
0.0
 10
29.574154
 20
7.477168
 30
0.0
 10
26.772584
 20
7.885346
 30
0.0
 10
25.464568
 20
11.429041
 30
0.0
 10
27.319911
 20
13.562698
 30
0.0
 10
25.817083
 20
16.252927
 30
0.0
 10
23.024792
 20
15.770539
 30
0.0
 10
20.677783
 20
18.739085
 30
0.0
 10
21.800266
 20
21.336565
 30
0.0
 10
19.527471
 20
23.433104
 30
0.0
 10
17.022758
 20
22.115809
 30
0.0
 10
13.877952
 20
24.212345
 30
0.0
 10
14.137700
 20
27.032470
 30
0.0
 10
11.336132
 20
28.321932
 30
0.0
 10
9.360192
 20
26.290330
 30
0.0
 10
5.723720
 20
27.310769
 30
0.0
 10
5.092904
 20
30.084506
 30
0.0
 10
2.022331
 20
30.427767
 30
0.0
  0
ENDSEC
  0
SECTION
  2
OBJECTS
  0
DICTIONARY
  5
C
330
0
100
AcDbDictionary
  3
ACAD_GROUP
350
D
  3
ACAD_MLINESTYLE
350
17
  0
DICTIONARY
  5
D
330
C
100
AcDbDictionary
  0
DICTIONARY
  5
1A
330
C
100
AcDbDictionary
  0
DICTIONARY
  5
17
330
C
100
AcDbDictionary
  3
STANDARD
350
18
  0
DICTIONARY
  5
19
330
C
100
AcDbDictionary
  0
ENDSEC
  0
EOF
