  0
SECTION
  2
HEADER
  9
$ACADVER
  1
AC1014
  9
$HANDSEED
  5
FFFF
  9
$MEASUREMENT
 70
     1
  0
ENDSEC
  0
SECTION
  2
TABLES
  0
TABLE
  2
VPORT
  5
8
330
0
100
AcDbSymbolTable
 70
     4
  0
VPORT
  5
2E
330
8
100
AcDbSymbolTableRecord
100
AcDbViewportTableRecord
  2
*ACTIVE
 70
     0
 10
0.0
 20
0.0
 11
1.0
 21
1.0
 12
210.0
 22
148.5
 13
0.0
 23
0.0
 14
10.0
 24
10.0
 15
10.0
 25
10.0
 16
0.0
 26
0.0
 36
1.0
 17
0.0
 27
0.0
 37
0.0
 40
341.0
 41
1.24
 42
50.0
 43
0.0
 44
0.0
 50
0.0
 51
0.0
 71
     0
 72
   100
 73
     1
 74
     3
 75
     0
 76
     0
 77
     0
 78
     0
  0
ENDTAB
  0
TABLE
  2
LTYPE
  5
5
330
0
100
AcDbSymbolTable
 70
     1
  0
LTYPE
  5
14
330
5
100
AcDbSymbolTableRecord
100
AcDbLinetypeTableRecord
  2
BYBLOCK
 70
     0
  3

 72
    65
 73
     0
 40
0.0
  0
LTYPE
  5
15
330
5
100
AcDbSymbolTableRecord
100
AcDbLinetypeTableRecord
  2
BYLAYER
 70
     0
  3

 72
    65
 73
     0
 40
0.0
  0
LTYPE
  5
16
330
5
100
AcDbSymbolTableRecord
100
AcDbLinetypeTableRecord
  2
CONTINUOUS
 70
     0
  3
Solid line
 72
    65
 73
     0
 40
0.0
  0
ENDTAB
  0
TABLE
  2
LAYER
  5
2
100
AcDbSymbolTable
 70
2
  0
LAYER
  5
50
100
AcDbSymbolTableRecord
100
AcDbLayerTableRecord
  2
0
 70
0
  6
CONTINUOUS
  0
LAYER
  5
51
100
AcDbSymbolTableRecord
100
AcDbLayerTableRecord
  2
Layer_1
 70
0
  6
CONTINUOUS
  0
ENDTAB
  0
TABLE
  2
STYLE
  5
3
330
0
100
AcDbSymbolTable
 70
     1
  0
STYLE
  5
11
330
3
100
AcDbSymbolTableRecord
100
AcDbTextStyleTableRecord
  2
STANDARD
 70
     0
 40
0.0
 41
1.0
 50
0.0
 71
     0
 42
2.5
  3
txt
  4

  0
ENDTAB
  0
TABLE
  2
VIEW
  5
6
330
0
100
AcDbSymbolTable
 70
     0
  0
ENDTAB
  0
TABLE
  2
UCS
  5
7
330
0
100
AcDbSymbolTable
 70
     0
  0
ENDTAB
  0
TABLE
  2
APPID
  5
9
330
0
100
AcDbSymbolTable
 70
     2
  0
APPID
  5
12
330
9
100
AcDbSymbolTableRecord
100
AcDbRegAppTableRecord
  2
ACAD
 70
     0
  0
ENDTAB
  0
TABLE
  2
DIMSTYLE
  5
A
330
0
100
AcDbSymbolTable
 70
     1
  0
DIMSTYLE
105
27
330
A
100
AcDbSymbolTableRecord
100
AcDbDimStyleTableRecord
  2
ISO-25
 70
     0
  3

  4

  5

  6

  7

 40
1.0
 41
2.5
 42
0.625
 43
3.75
 44
1.25
 45
0.0
 46
0.0
 47
0.0
 48
0.0
140
2.5
141
2.5
142
0.0
143
0.03937007874016
144
1.0
145
0.0
146
1.0
147
0.625
 71
     0
 72
     0
 73
     0
 74
     0
 75
     0
 76
     0
 77
     1
 78
     8
170
     0
171
     3
172
     1
173
     0
174
     0
175
     0
176
     0
177
     0
178
     0
270
     2
271
     2
272
     2
273
     2
274
     3
340
11
275
     0
280
     0
281
     0
282
     0
283
     0
284
     8
285
     0
286
     0
287
     3
288
     0
  0
ENDTAB
  0
TABLE
  2
BLOCK_RECORD
  5
1
330
0
100
AcDbSymbolTable
 70
     1
  0
BLOCK_RECORD
  5
1F
330
1
100
AcDbSymbolTableRecord
100
AcDbBlockTableRecord
  2
*MODEL_SPACE
  0
BLOCK_RECORD
  5
1B
330
1
100
AcDbSymbolTableRecord
100
AcDbBlockTableRecord
  2
*PAPER_SPACE
  0
ENDTAB
  0
ENDSEC
  0
SECTION
  2
BLOCKS
  0
BLOCK
  5
20
330
1F
100
AcDbEntity
  8
0
100
AcDbBlockBegin
  2
*MODEL_SPACE
 70
     0
 10
0.0
 20
0.0
 30
0.0
  3
*MODEL_SPACE
  1

  0
ENDBLK
  5
21
330
1F
100
AcDbEntity
  8
0
100
AcDbBlockEnd
  0
BLOCK
  5
1C
330
1B
100
AcDbEntity
 67
     1
  8
0
100
AcDbBlockBegin
  2
*PAPER_SPACE
  1

  0
ENDBLK
  5
1D
330
1B
100
AcDbEntity
 67
     1
  8
0
100
AcDbBlockEnd
  0
ENDSEC
  0
SECTION
  2
ENTITIES
  0
LWPOLYLINE
  5
100
100
AcDbEntity
  8
Layer_1
 62
7
100
AcDbPolyline
 90
85
 70
0
 10
1.658056
 20
24.946596
 30
0.0
 10
4.171597
 20
24.655554
 30
0.0
 10
4.691944
 20
22.388957
 30
0.0
 10
7.672917
 20
21.551110
 30
0.0
 10
9.295694
 20
23.217985
 30
0.0
 10
11.588750
 20
22.159651
 30
0.0
 10
11.377083
 20
19.848957
 30
0.0
 10
13.952361
 20
18.129165
 30
0.0
 10
16.007292
 20
19.205138
 30
0.0
 10
17.868194
 20
17.485346
 30
0.0
 10
16.959792
 20
15.359860
 30
0.0
 10
18.873611
 20
12.925693
 30
0.0
 10
21.157847
 20
13.322582
 30
0.0
 10
22.401389
 20
11.117693
 30
0.0
 10
20.875625
 20
9.371471
 30
0.0
 10
21.951597
 20
6.461026
 30
0.0
 10
24.244653
 20
6.125916
 30
0.0
 10
24.738542
 20
3.647638
 30
0.0
 10
22.745347
 20
2.457027
 30
0.0
 10
22.877639
 20
-0.003612
 30
0.0
 10
22.868819
 20
-0.638612
 30
0.0
 10
24.941389
 20
-1.661668
 30
0.0
 10
24.650347
 20
-4.175196
 30
0.0
 10
22.392569
 20
-4.686752
 30
0.0
 10
21.554722
 20
-7.676529
 30
0.0
 10
23.212778
 20
-9.299307
 30
0.0
 10
22.154444
 20
-11.592362
 30
0.0
 10
19.843750
 20
-11.380696
 30
0.0
 10
18.123958
 20
-13.947140
 30
0.0
 10
19.199931
 20
-16.002085
 30
0.0
 10
17.480139
 20
-17.862973
 30
0.0
 10
15.354653
 20
-16.954585
 30
0.0
 10
12.920486
 20
-18.877224
 30
0.0
 10
13.317361
 20
-21.161474
 30
0.0
 10
11.112500
 20
-22.396196
 30
0.0
 10
9.366250
 20
-20.870418
 30
0.0
 10
6.455833
 20
-21.946390
 30
0.0
 10
6.120694
 20
-24.248251
 30
0.0
 10
3.642431
 20
-24.733335
 30
0.0
 10
2.451806
 20
-22.740140
 30
0.0
 10
0.000000
 20
-22.872418
 30
0.0
 10
-0.635000
 20
-22.863669
 30
0.0
 10
-1.658056
 20
-24.945058
 30
0.0
 10
-4.180417
 20
-24.654030
 30
0.0
 10
-4.691944
 20
-22.387419
 30
0.0
 10
-7.672917
 20
-21.549586
 30
0.0
 10
-9.295694
 20
-23.216447
 30
0.0
 10
-11.588750
 20
-22.158113
 30
0.0
 10
-11.377083
 20
-19.847419
 30
0.0
 10
-13.952361
 20
-18.118808
 30
0.0
 10
-16.007292
 20
-19.203585
 30
0.0
 10
-17.868194
 20
-17.483808
 30
0.0
 10
-16.959792
 20
-15.349502
 30
0.0
 10
-18.873611
 20
-12.924141
 30
0.0
 10
-21.157847
 20
-13.312196
 30
0.0
 10
-22.401389
 20
-11.107364
 30
0.0
 10
-20.875625
 20
-9.361085
 30
0.0
 10
-21.951597
 20
-6.459502
 30
0.0
 10
-24.244653
 20
-6.124363
 30
0.0
 10
-24.738542
 20
-3.646085
 30
0.0
 10
-22.745347
 20
-2.455474
 30
0.0
 10
-22.877639
 20
-0.003669
 30
0.0
 10
-22.868819
 20
0.640136
 30
0.0
 10
-24.941389
 20
1.663192
 30
0.0
 10
-24.650347
 20
4.176748
 30
0.0
 10
-22.392569
 20
4.688276
 30
0.0
 10
-21.554722
 20
7.678081
 30
0.0
 10
-23.212778
 20
9.300859
 30
0.0
 10
-22.154444
 20
11.593915
 30
0.0
 10
-19.852569
 20
11.382248
 30
0.0
 10
-18.123958
 20
13.957526
 30
0.0
 10
-19.199931
 20
16.012442
 30
0.0
 10
-17.480139
 20
17.873345
 30
0.0
 10
-15.354653
 20
16.964942
 30
0.0
 10
-12.920486
 20
18.878762
 30
0.0
 10
-13.317361
 20
21.162998
 30
0.0
 10
-11.112500
 20
22.397720
 30
0.0
 10
-9.366250
 20
20.880776
 30
0.0
 10
-6.455833
 20
21.947928
 30
0.0
 10
-6.120694
 20
24.249803
 30
0.0
 10
-3.642431
 20
24.743692
 30
0.0
 10
-2.451806
 20
22.741678
 30
0.0
 10
0.000000
 20
22.874026
 30
0.0
 10
0.635000
 20
22.874026
 30
0.0
 10
1.658056
 20
24.946596
 30
0.0
  0
ENDSEC
  0
SECTION
  2
OBJECTS
  0
DICTIONARY
  5
C
330
0
100
AcDbDictionary
  3
ACAD_GROUP
350
D
  3
ACAD_MLINESTYLE
350
17
  0
DICTIONARY
  5
D
330
C
100
AcDbDictionary
  0
DICTIONARY
  5
1A
330
C
100
AcDbDictionary
  0
DICTIONARY
  5
17
330
C
100
AcDbDictionary
  3
STANDARD
350
18
  0
DICTIONARY
  5
19
330
C
100
AcDbDictionary
  0
ENDSEC
  0
EOF
