<?xml version="1.0" encoding="UTF-8" standalone="no"?>
<!-- Created with Inkscape (http://www.inkscape.org/) -->

<svg
   xmlns:dc="http://purl.org/dc/elements/1.1/"
   xmlns:cc="http://creativecommons.org/ns#"
   xmlns:rdf="http://www.w3.org/1999/02/22-rdf-syntax-ns#"
   xmlns:svg="http://www.w3.org/2000/svg"
   xmlns="http://www.w3.org/2000/svg"
   xmlns:sodipodi="http://sodipodi.sourceforge.net/DTD/sodipodi-0.dtd"
   xmlns:inkscape="http://www.inkscape.org/namespaces/inkscape"
   width="210mm"
   height="297mm"
   viewBox="0 0 744.09448819 1052.3622047"
   id="svg4979"
   version="1.1"
   inkscape:version="0.91 r13725"
   sodipodi:docname="box-wheels-wall-43d.svg">
  <defs
     id="defs4981" />
  <sodipodi:namedview
     id="base"
     pagecolor="#ffffff"
     bordercolor="#666666"
     borderopacity="1.0"
     inkscape:pageopacity="0.0"
     inkscape:pageshadow="2"
     inkscape:zoom="0.98994949"
     inkscape:cx="7.051569"
     inkscape:cy="143.26113"
     inkscape:document-units="mm"
     inkscape:current-layer="layer1"
     showgrid="true"
     inkscape:window-width="1366"
     inkscape:window-height="705"
     inkscape:window-x="-8"
     inkscape:window-y="-8"
     inkscape:window-maximized="1">
    <inkscape:grid
       type="xygrid"
       id="grid6193"
       units="mm"
       spacingx="3.5433071"
       spacingy="3.5433072" />
  </sodipodi:namedview>
  <metadata
     id="metadata4984">
    <rdf:RDF>
      <cc:Work
         rdf:about="">
        <dc:format>image/svg+xml</dc:format>
        <dc:type
           rdf:resource="http://purl.org/dc/dcmitype/StillImage" />
        <dc:title />
      </cc:Work>
    </rdf:RDF>
  </metadata>
  <g
     inkscape:label="Layer 1"
     inkscape:groupmode="layer"
     id="layer1">
    <path
       transform="scale(1,-1)"
       style="display:inline;fill:#d35f5f;fill-opacity:1;stroke:none;stroke-width:1.77165353;stroke-linejoin:round;stroke-miterlimit:4;stroke-dasharray:none;stroke-dashoffset:8;stroke-opacity:1"
       d="m -165.95466,-1126.7716 82.97733,0 82.97733,0 82.97733,0 82.97733,0 5.61542,1.1281 4.57594,3.0802 3.08018,4.5759 1.12812,5.6155 0,20.9694 0,20.9695 0,20.9694 0,20.9695 -1.12812,5.6154 -3.08018,4.576 -4.57594,3.0802 -5.61542,1.1281 -82.97733,0 -82.97733,0 -82.97733,0 -82.97733,0 -5.61542,-1.1281 -4.57594,-3.0802 -3.08018,-4.576 -1.12812,-5.6154 0,-20.9695 0,-20.9694 0,-20.9695 0,-20.9694 1.12812,-5.6155 3.08018,-4.5759 4.57594,-3.0802 z"
       id="rect4018-4"
       inkscape:connector-curvature="0"
       sodipodi:nodetypes="ccccccccccccccccccccccccccccccccc" />
    <path
       style="display:inline;opacity:1;fill:#ffb380;fill-opacity:1;stroke:none;stroke-width:1.77165353;stroke-linejoin:round;stroke-miterlimit:4;stroke-dasharray:none;stroke-dashoffset:8;stroke-opacity:1"
       d="m 5.3149346,1114.37 -0.4176646,2.0688 -1.1390373,1.6895 -1.6894266,1.139 -2.068832018165,0.4177 -2.068832081835,-0.4177 -1.6894265,-1.139 -1.1390373,-1.6895 -0.4176646,-2.0688 0.4176646,-2.0688 1.1390373,-1.6895 1.6894265,-1.139 2.068832081835,-0.4177 2.068832018165,0.4177 1.6894266,1.139 1.1390373,1.6895 z"
       id="path5259-61-5-6-7"
       inkscape:connector-curvature="0"
       sodipodi:nodetypes="ccccccccccccccccc" />
    <path
       style="display:inline;opacity:1;fill:#ffb380;fill-opacity:1;stroke:none;stroke-width:1.77165353;stroke-linejoin:round;stroke-miterlimit:4;stroke-dasharray:none;stroke-dashoffset:8;stroke-opacity:1"
       d="m -162.63781,1026.496 -0.41769,2.0688 -1.13905,1.6894 -1.68941,1.139 -2.06881,0.4177 -2.06881,-0.4177 -1.68941,-1.139 -1.13905,-1.6894 -0.41769,-2.0688 0.41766,-2.0688 1.13904,-1.6895 1.68943,-1.139 2.06883,-0.4177 2.06883,0.4177 1.68943,1.139 1.13904,1.6895 z"
       id="path5259-61-5-5-49"
       inkscape:connector-curvature="0"
       sodipodi:nodetypes="ccccccccccccccccc" />
    <path
       style="display:inline;opacity:1;fill:#ffb380;fill-opacity:1;stroke:none;stroke-width:1.77165353;stroke-linejoin:round;stroke-miterlimit:4;stroke-dasharray:none;stroke-dashoffset:8;stroke-opacity:1"
       d="m -162.63781,1114.37 -0.41766,2.0688 -1.13904,1.6895 -1.68943,1.139 -2.06883,0.4177 -2.06883,-0.4177 -1.68943,-1.139 -1.13904,-1.6895 -0.41766,-2.0688 0.41766,-2.0688 1.13904,-1.6895 1.68943,-1.139 2.06883,-0.4177 2.06883,0.4177 1.68943,1.139 1.13904,1.6895 z"
       id="path5259-61-5-54-30"
       inkscape:connector-curvature="0"
       sodipodi:nodetypes="ccccccccccccccccc" />
    <path
       style="display:inline;opacity:1;fill:#ffb380;fill-opacity:1;stroke:none;stroke-width:1.77165353;stroke-linejoin:round;stroke-miterlimit:4;stroke-dasharray:none;stroke-dashoffset:8;stroke-opacity:1"
       d="m 173.2677,1026.496 -0.41769,2.0688 -1.13905,1.6894 -1.68941,1.139 -2.06881,0.4177 -2.06881,-0.4177 -1.68941,-1.139 -1.13905,-1.6894 -0.41769,-2.0688 0.41766,-2.0688 1.13904,-1.6895 1.68943,-1.139 2.06883,-0.4177 2.06883,0.4177 1.68943,1.139 1.13904,1.6895 z"
       id="path5259-61-5-41-7"
       inkscape:connector-curvature="0"
       sodipodi:nodetypes="ccccccccccccccccc" />
    <path
       style="display:inline;opacity:1;fill:#ffb380;fill-opacity:1;stroke:none;stroke-width:1.77165353;stroke-linejoin:round;stroke-miterlimit:4;stroke-dasharray:none;stroke-dashoffset:8;stroke-opacity:1"
       d="m 173.2677,1114.37 -0.41766,2.0688 -1.13904,1.6895 -1.68943,1.139 -2.06883,0.4177 -2.06883,-0.4177 -1.68943,-1.139 -1.13904,-1.6895 -0.41766,-2.0688 0.41766,-2.0688 1.13904,-1.6895 1.68943,-1.139 2.06883,-0.4177 2.06883,0.4177 1.68943,1.139 1.13904,1.6895 z"
       id="path5259-61-5-68-1"
       inkscape:connector-curvature="0"
       sodipodi:nodetypes="ccccccccccccccccc" />
    <path
       transform="matrix(-0.99277839,-0.11996278,-0.11996278,0.99277839,0,0)"
       style="display:inline;fill:#002255;fill-opacity:1;stroke:none;stroke-width:1"
       d="m 0.02292395,1077.58 -0.41769336,2.0688 -1.13904389,1.6894 -1.6894154,1.139 -2.0688078,0.4177 -2.0688078,-0.4177 -1.6894154,-1.139 -1.1390443,-1.6894 -0.417693,-2.0688 0.41766,-2.0688 1.1390376,-1.6895 1.6894292,-1.139 2.0688337,-0.4177 2.0688337,0.4177 1.6894292,1.139 1.13903788,1.6895 z"
       id="path12890-1-8-4"
       inkscape:connector-curvature="0"
       sodipodi:nodetypes="ccccccccccccccccc" />
    <path
       transform="matrix(-0.99277839,-0.11996278,-0.11996278,0.99277839,0,0)"
       style="display:inline;fill:#002255;fill-opacity:1;stroke:none;stroke-width:1"
       d="m -246.21733,1047.8254 -0.41766,2.0688 -1.13904,1.6895 -1.68943,1.139 -2.06883,0.4177 -2.06883,-0.4177 -1.68943,-1.139 -1.13904,-1.6895 -0.41766,-2.0688 0.41769,-2.0688 1.13904,-1.6894 1.68942,-1.139 2.06881,-0.4177 2.06881,0.4177 1.68942,1.139 1.13904,1.6894 z"
       id="path12890-1-8-2-4"
       inkscape:connector-curvature="0"
       sodipodi:nodetypes="ccccccccccccccccc" />
  </g>
</svg>
