<?xml version="1.0" encoding="UTF-8" standalone="no"?>
<!-- Created with Inkscape (http://www.inkscape.org/) -->

<svg
   xmlns:dc="http://purl.org/dc/elements/1.1/"
   xmlns:cc="http://creativecommons.org/ns#"
   xmlns:rdf="http://www.w3.org/1999/02/22-rdf-syntax-ns#"
   xmlns:svg="http://www.w3.org/2000/svg"
   xmlns="http://www.w3.org/2000/svg"
   xmlns:sodipodi="http://sodipodi.sourceforge.net/DTD/sodipodi-0.dtd"
   xmlns:inkscape="http://www.inkscape.org/namespaces/inkscape"
   width="210mm"
   height="297mm"
   viewBox="0 0 744.09448819 1052.3622047"
   id="svg4979"
   version="1.1"
   inkscape:version="0.91 r13725"
   sodipodi:docname="box-motor-wall-43d.svg">
  <defs
     id="defs4981" />
  <sodipodi:namedview
     id="base"
     pagecolor="#ffffff"
     bordercolor="#666666"
     borderopacity="1.0"
     inkscape:pageopacity="0.0"
     inkscape:pageshadow="2"
     inkscape:zoom="0.98994949"
     inkscape:cx="-34.015957"
     inkscape:cy="143.26113"
     inkscape:document-units="mm"
     inkscape:current-layer="layer1"
     showgrid="true"
     inkscape:window-width="1366"
     inkscape:window-height="705"
     inkscape:window-x="-8"
     inkscape:window-y="-8"
     inkscape:window-maximized="1">
    <inkscape:grid
       type="xygrid"
       id="grid6193"
       units="mm"
       spacingx="3.5433071"
       spacingy="3.5433072" />
  </sodipodi:namedview>
  <metadata
     id="metadata4984">
    <rdf:RDF>
      <cc:Work
         rdf:about="">
        <dc:format>image/svg+xml</dc:format>
        <dc:type
           rdf:resource="http://purl.org/dc/dcmitype/StillImage" />
        <dc:title />
      </cc:Work>
    </rdf:RDF>
  </metadata>
  <g
     inkscape:label="Layer 1"
     inkscape:groupmode="layer"
     id="layer1">
    <path
       transform="scale(1,-1)"
       style="display:inline;fill:#d35f5f;fill-opacity:1;stroke:none;stroke-width:1.77165353;stroke-linejoin:round;stroke-miterlimit:4;stroke-dasharray:none;stroke-dashoffset:8;stroke-opacity:1"
       d="m -165.95466,-1126.7716 82.97733,0 82.97733,0 82.97733,0 82.97733,0 5.61542,1.1281 4.57594,3.0802 3.08018,4.5759 1.12812,5.6155 0,20.9694 0,20.9695 0,20.9694 0,20.9695 -1.12812,5.6154 -3.08018,4.576 -4.57594,3.0802 -5.61542,1.1281 -82.97733,0 -82.97733,0 -82.97733,0 -82.97733,0 -5.61542,-1.1281 -4.57594,-3.0802 -3.08018,-4.576 -1.12812,-5.6154 0,-20.9695 0,-20.9694 0,-20.9695 0,-20.9694 1.12812,-5.6155 3.08018,-4.5759 4.57594,-3.0802 z"
       id="rect4018-6"
       inkscape:connector-curvature="0"
       sodipodi:nodetypes="ccccccccccccccccccccccccccccccccc" />
    <path
       style="display:inline;opacity:1;fill:#ffb380;fill-opacity:1;stroke:none;stroke-width:1.77165353;stroke-linejoin:round;stroke-miterlimit:4;stroke-dasharray:none;stroke-dashoffset:8;stroke-opacity:1"
       d="m 5.3149236,1114.37 -0.4176646,2.0688 -1.1390373,1.6895 -1.6894265,1.139 -2.06883208542,0.4177 -2.06883201458,-0.4177 -1.6894266,-1.139 -1.1390373,-1.6895 -0.4176646,-2.0688 0.4176646,-2.0688 1.1390373,-1.6895 1.6894266,-1.139 2.06883201458,-0.4177 2.06883208542,0.4177 1.6894265,1.139 1.1390373,1.6895 z"
       id="path5259-61-5-6-43"
       inkscape:connector-curvature="0"
       sodipodi:nodetypes="ccccccccccccccccc" />
    <path
       style="display:inline;opacity:1;fill:#ffb380;fill-opacity:1;stroke:none;stroke-width:1.77165353;stroke-linejoin:round;stroke-miterlimit:4;stroke-dasharray:none;stroke-dashoffset:8;stroke-opacity:1"
       d="m -162.63781,1026.4961 -0.41766,2.0688 -1.13904,1.6895 -1.68943,1.139 -2.06883,0.4177 -2.06883,-0.4177 -1.68943,-1.139 -1.13904,-1.6895 -0.41766,-2.0688 0.41766,-2.0688 1.13904,-1.6895 1.68943,-1.139 2.06883,-0.4177 2.06883,0.4177 1.68943,1.139 1.13904,1.6895 z"
       id="path5259-61-5-5-41"
       inkscape:connector-curvature="0"
       sodipodi:nodetypes="ccccccccccccccccc" />
    <path
       style="display:inline;opacity:1;fill:#ffb380;fill-opacity:1;stroke:none;stroke-width:1.77165353;stroke-linejoin:round;stroke-miterlimit:4;stroke-dasharray:none;stroke-dashoffset:8;stroke-opacity:1"
       d="m -162.63781,1114.37 -0.41766,2.0688 -1.13904,1.6895 -1.68943,1.139 -2.06883,0.4177 -2.06883,-0.4177 -1.68943,-1.139 -1.13904,-1.6895 -0.41766,-2.0688 0.41766,-2.0688 1.13904,-1.6895 1.68943,-1.139 2.06883,-0.4177 2.06883,0.4177 1.68943,1.139 1.13904,1.6895 z"
       id="path5259-61-5-54-3"
       inkscape:connector-curvature="0"
       sodipodi:nodetypes="ccccccccccccccccc" />
    <path
       style="display:inline;opacity:1;fill:#ffb380;fill-opacity:1;stroke:none;stroke-width:1.77165353;stroke-linejoin:round;stroke-miterlimit:4;stroke-dasharray:none;stroke-dashoffset:8;stroke-opacity:1"
       d="m 173.26769,1026.4961 -0.41766,2.0688 -1.13904,1.6895 -1.68943,1.139 -2.06883,0.4177 -2.06883,-0.4177 -1.68943,-1.139 -1.13904,-1.6895 -0.41766,-2.0688 0.41766,-2.0688 1.13904,-1.6895 1.68943,-1.139 2.06883,-0.4177 2.06883,0.4177 1.68943,1.139 1.13904,1.6895 z"
       id="path5259-61-5-41-8"
       inkscape:connector-curvature="0"
       sodipodi:nodetypes="ccccccccccccccccc" />
    <path
       style="display:inline;opacity:1;fill:#ffb380;fill-opacity:1;stroke:none;stroke-width:1.77165353;stroke-linejoin:round;stroke-miterlimit:4;stroke-dasharray:none;stroke-dashoffset:8;stroke-opacity:1"
       d="m 173.26769,1114.37 -0.41766,2.0688 -1.13904,1.6895 -1.68943,1.139 -2.06883,0.4177 -2.06883,-0.4177 -1.68943,-1.139 -1.13904,-1.6895 -0.41766,-2.0688 0.41766,-2.0688 1.13904,-1.6895 1.68943,-1.139 2.06883,-0.4177 2.06883,0.4177 1.68943,1.139 1.13904,1.6895 z"
       id="path5259-61-5-68-9"
       inkscape:connector-curvature="0"
       sodipodi:nodetypes="ccccccccccccccccc" />
    <path
       sodipodi:nodetypes="ccccccccccccccccccccccccc"
       inkscape:connector-curvature="0"
       id="rect6176-0-1"
       d="m -24.803207,1078.937 12.4016,0 12.4016,0 12.4016,0 12.4016,0 6.145394,-7.2665 3.155742,-7.6818 1.162642,-6.8513 0.166092,-4.7751 -0.166092,-4.7752 -1.162642,-6.8513 -3.155742,-7.6819 -6.145394,-7.2666 -12.4016,0 -12.4016,0 -12.4016,0 -12.4016,0 -6.145394,7.2666 -3.155742,7.6819 -1.162642,6.8513 -0.166092,4.7752 0.166092,4.7751 1.162642,6.8513 3.155742,7.6818 z"
       style="display:inline;opacity:1;fill:#aa00d4;fill-opacity:1;stroke:none;stroke-width:1.77165353;stroke-linejoin:round;stroke-miterlimit:4;stroke-dasharray:none;stroke-dashoffset:8;stroke-opacity:1" />
  </g>
</svg>
