  0
SECTION
  2
HEADER
  9
$ACADVER
  1
AC1014
  9
$HANDSEED
  5
FFFF
  9
$MEASUREMENT
 70
     1
  0
ENDSEC
  0
SECTION
  2
TABLES
  0
TABLE
  2
VPORT
  5
8
330
0
100
AcDbSymbolTable
 70
     4
  0
VPORT
  5
2E
330
8
100
AcDbSymbolTableRecord
100
AcDbViewportTableRecord
  2
*ACTIVE
 70
     0
 10
0.0
 20
0.0
 11
1.0
 21
1.0
 12
210.0
 22
148.5
 13
0.0
 23
0.0
 14
10.0
 24
10.0
 15
10.0
 25
10.0
 16
0.0
 26
0.0
 36
1.0
 17
0.0
 27
0.0
 37
0.0
 40
341.0
 41
1.24
 42
50.0
 43
0.0
 44
0.0
 50
0.0
 51
0.0
 71
     0
 72
   100
 73
     1
 74
     3
 75
     0
 76
     0
 77
     0
 78
     0
  0
ENDTAB
  0
TABLE
  2
LTYPE
  5
5
330
0
100
AcDbSymbolTable
 70
     1
  0
LTYPE
  5
14
330
5
100
AcDbSymbolTableRecord
100
AcDbLinetypeTableRecord
  2
BYBLOCK
 70
     0
  3

 72
    65
 73
     0
 40
0.0
  0
LTYPE
  5
15
330
5
100
AcDbSymbolTableRecord
100
AcDbLinetypeTableRecord
  2
BYLAYER
 70
     0
  3

 72
    65
 73
     0
 40
0.0
  0
LTYPE
  5
16
330
5
100
AcDbSymbolTableRecord
100
AcDbLinetypeTableRecord
  2
CONTINUOUS
 70
     0
  3
Solid line
 72
    65
 73
     0
 40
0.0
  0
ENDTAB
  0
TABLE
  2
LAYER
  5
2
100
AcDbSymbolTable
 70
2
  0
LAYER
  5
50
100
AcDbSymbolTableRecord
100
AcDbLayerTableRecord
  2
0
 70
0
  6
CONTINUOUS
  0
LAYER
  5
51
100
AcDbSymbolTableRecord
100
AcDbLayerTableRecord
  2
Layer_1
 70
0
  6
CONTINUOUS
  0
ENDTAB
  0
TABLE
  2
STYLE
  5
3
330
0
100
AcDbSymbolTable
 70
     1
  0
STYLE
  5
11
330
3
100
AcDbSymbolTableRecord
100
AcDbTextStyleTableRecord
  2
STANDARD
 70
     0
 40
0.0
 41
1.0
 50
0.0
 71
     0
 42
2.5
  3
txt
  4

  0
ENDTAB
  0
TABLE
  2
VIEW
  5
6
330
0
100
AcDbSymbolTable
 70
     0
  0
ENDTAB
  0
TABLE
  2
UCS
  5
7
330
0
100
AcDbSymbolTable
 70
     0
  0
ENDTAB
  0
TABLE
  2
APPID
  5
9
330
0
100
AcDbSymbolTable
 70
     2
  0
APPID
  5
12
330
9
100
AcDbSymbolTableRecord
100
AcDbRegAppTableRecord
  2
ACAD
 70
     0
  0
ENDTAB
  0
TABLE
  2
DIMSTYLE
  5
A
330
0
100
AcDbSymbolTable
 70
     1
  0
DIMSTYLE
105
27
330
A
100
AcDbSymbolTableRecord
100
AcDbDimStyleTableRecord
  2
ISO-25
 70
     0
  3

  4

  5

  6

  7

 40
1.0
 41
2.5
 42
0.625
 43
3.75
 44
1.25
 45
0.0
 46
0.0
 47
0.0
 48
0.0
140
2.5
141
2.5
142
0.0
143
0.03937007874016
144
1.0
145
0.0
146
1.0
147
0.625
 71
     0
 72
     0
 73
     0
 74
     0
 75
     0
 76
     0
 77
     1
 78
     8
170
     0
171
     3
172
     1
173
     0
174
     0
175
     0
176
     0
177
     0
178
     0
270
     2
271
     2
272
     2
273
     2
274
     3
340
11
275
     0
280
     0
281
     0
282
     0
283
     0
284
     8
285
     0
286
     0
287
     3
288
     0
  0
ENDTAB
  0
TABLE
  2
BLOCK_RECORD
  5
1
330
0
100
AcDbSymbolTable
 70
     1
  0
BLOCK_RECORD
  5
1F
330
1
100
AcDbSymbolTableRecord
100
AcDbBlockTableRecord
  2
*MODEL_SPACE
  0
BLOCK_RECORD
  5
1B
330
1
100
AcDbSymbolTableRecord
100
AcDbBlockTableRecord
  2
*PAPER_SPACE
  0
ENDTAB
  0
ENDSEC
  0
SECTION
  2
BLOCKS
  0
BLOCK
  5
20
330
1F
100
AcDbEntity
  8
0
100
AcDbBlockBegin
  2
*MODEL_SPACE
 70
     0
 10
0.0
 20
0.0
 30
0.0
  3
*MODEL_SPACE
  1

  0
ENDBLK
  5
21
330
1F
100
AcDbEntity
  8
0
100
AcDbBlockEnd
  0
BLOCK
  5
1C
330
1B
100
AcDbEntity
 67
     1
  8
0
100
AcDbBlockBegin
  2
*PAPER_SPACE
  1

  0
ENDBLK
  5
1D
330
1B
100
AcDbEntity
 67
     1
  8
0
100
AcDbBlockEnd
  0
ENDSEC
  0
SECTION
  2
ENTITIES
  0
LINE
  5
100
100
AcDbEntity
  8
Layer_1
 62
7
100
AcDbLine
 10
-46.836093
 20
-21.000013
 30
0.0
 11
-23.418048
 21
-21.000013
 31
0.0
  0
LINE
  5
101
100
AcDbEntity
  8
Layer_1
 62
7
100
AcDbLine
 10
-23.418048
 20
-21.000013
 30
0.0
 11
-0.000003
 21
-21.000013
 31
0.0
  0
LINE
  5
102
100
AcDbEntity
  8
Layer_1
 62
7
100
AcDbLine
 10
-0.000003
 20
-21.000013
 30
0.0
 11
23.418043
 21
-21.000013
 31
0.0
  0
LINE
  5
103
100
AcDbEntity
  8
Layer_1
 62
7
100
AcDbLine
 10
23.418043
 20
-21.000013
 30
0.0
 11
46.836090
 21
-21.000013
 31
0.0
  0
LINE
  5
104
100
AcDbEntity
  8
Layer_1
 62
7
100
AcDbLine
 10
46.836090
 20
-21.000013
 30
0.0
 11
48.420886
 21
-20.681638
 31
0.0
  0
LINE
  5
105
100
AcDbEntity
  8
Layer_1
 62
7
100
AcDbLine
 10
48.420886
 20
-20.681638
 30
0.0
 11
49.712321
 21
-19.812337
 31
0.0
  0
LINE
  5
106
100
AcDbEntity
  8
Layer_1
 62
7
100
AcDbLine
 10
49.712321
 20
-19.812337
 30
0.0
 11
50.581616
 21
-18.520888
 31
0.0
  0
LINE
  5
107
100
AcDbEntity
  8
Layer_1
 62
7
100
AcDbLine
 10
50.581616
 20
-18.520888
 30
0.0
 11
50.899997
 21
-16.936098
 31
0.0
  0
LINE
  5
108
100
AcDbEntity
  8
Layer_1
 62
7
100
AcDbLine
 10
50.899997
 20
-16.936098
 30
0.0
 11
50.899997
 21
-11.018039
 31
0.0
  0
LINE
  5
109
100
AcDbEntity
  8
Layer_1
 62
7
100
AcDbLine
 10
50.899997
 20
-11.018039
 30
0.0
 11
50.899997
 21
-5.099980
 31
0.0
  0
LINE
  5
10a
100
AcDbEntity
  8
Layer_1
 62
7
100
AcDbLine
 10
50.899997
 20
-5.099980
 30
0.0
 11
50.899997
 21
0.818051
 31
0.0
  0
LINE
  5
10b
100
AcDbEntity
  8
Layer_1
 62
7
100
AcDbLine
 10
50.899997
 20
0.818051
 30
0.0
 11
50.899997
 21
6.736110
 31
0.0
  0
LINE
  5
10c
100
AcDbEntity
  8
Layer_1
 62
7
100
AcDbLine
 10
50.899997
 20
6.736110
 30
0.0
 11
50.581616
 21
8.320900
 31
0.0
  0
LINE
  5
10d
100
AcDbEntity
  8
Layer_1
 62
7
100
AcDbLine
 10
50.581616
 20
8.320900
 30
0.0
 11
49.712321
 21
9.612349
 31
0.0
  0
LINE
  5
10e
100
AcDbEntity
  8
Layer_1
 62
7
100
AcDbLine
 10
49.712321
 20
9.612349
 30
0.0
 11
48.420886
 21
10.481622
 31
0.0
  0
LINE
  5
10f
100
AcDbEntity
  8
Layer_1
 62
7
100
AcDbLine
 10
48.420886
 20
10.481622
 30
0.0
 11
46.836090
 21
10.800025
 31
0.0
  0
LINE
  5
110
100
AcDbEntity
  8
Layer_1
 62
7
100
AcDbLine
 10
46.836090
 20
10.800025
 30
0.0
 11
23.418043
 21
10.800025
 31
0.0
  0
LINE
  5
111
100
AcDbEntity
  8
Layer_1
 62
7
100
AcDbLine
 10
23.418043
 20
10.800025
 30
0.0
 11
-0.000003
 21
10.800025
 31
0.0
  0
LINE
  5
112
100
AcDbEntity
  8
Layer_1
 62
7
100
AcDbLine
 10
-0.000003
 20
10.800025
 30
0.0
 11
-23.418048
 21
10.800025
 31
0.0
  0
LINE
  5
113
100
AcDbEntity
  8
Layer_1
 62
7
100
AcDbLine
 10
-23.418048
 20
10.800025
 30
0.0
 11
-46.836093
 21
10.800025
 31
0.0
  0
LINE
  5
114
100
AcDbEntity
  8
Layer_1
 62
7
100
AcDbLine
 10
-46.836093
 20
10.800025
 30
0.0
 11
-48.420889
 21
10.481622
 31
0.0
  0
LINE
  5
115
100
AcDbEntity
  8
Layer_1
 62
7
100
AcDbLine
 10
-48.420889
 20
10.481622
 30
0.0
 11
-49.712324
 21
9.612349
 31
0.0
  0
LINE
  5
116
100
AcDbEntity
  8
Layer_1
 62
7
100
AcDbLine
 10
-49.712324
 20
9.612349
 30
0.0
 11
-50.581619
 21
8.320900
 31
0.0
  0
LINE
  5
117
100
AcDbEntity
  8
Layer_1
 62
7
100
AcDbLine
 10
-50.581619
 20
8.320900
 30
0.0
 11
-50.900000
 21
6.736110
 31
0.0
  0
LINE
  5
118
100
AcDbEntity
  8
Layer_1
 62
7
100
AcDbLine
 10
-50.900000
 20
6.736110
 30
0.0
 11
-50.900000
 21
0.818051
 31
0.0
  0
LINE
  5
119
100
AcDbEntity
  8
Layer_1
 62
7
100
AcDbLine
 10
-50.900000
 20
0.818051
 30
0.0
 11
-50.900000
 21
-5.099980
 31
0.0
  0
LINE
  5
11a
100
AcDbEntity
  8
Layer_1
 62
7
100
AcDbLine
 10
-50.900000
 20
-5.099980
 30
0.0
 11
-50.900000
 21
-11.018039
 31
0.0
  0
LINE
  5
11b
100
AcDbEntity
  8
Layer_1
 62
7
100
AcDbLine
 10
-50.900000
 20
-11.018039
 30
0.0
 11
-50.900000
 21
-16.936098
 31
0.0
  0
LINE
  5
11c
100
AcDbEntity
  8
Layer_1
 62
7
100
AcDbLine
 10
-50.900000
 20
-16.936098
 30
0.0
 11
-50.581619
 21
-18.520888
 31
0.0
  0
LINE
  5
11d
100
AcDbEntity
  8
Layer_1
 62
7
100
AcDbLine
 10
-50.581619
 20
-18.520888
 30
0.0
 11
-49.712324
 21
-19.812337
 31
0.0
  0
LINE
  5
11e
100
AcDbEntity
  8
Layer_1
 62
7
100
AcDbLine
 10
-49.712324
 20
-19.812337
 30
0.0
 11
-48.420889
 21
-20.681638
 31
0.0
  0
LINE
  5
11f
100
AcDbEntity
  8
Layer_1
 62
7
100
AcDbLine
 10
-48.420889
 20
-20.681638
 30
0.0
 11
-46.836093
 21
-21.000013
 31
0.0
  0
LINE
  5
120
100
AcDbEntity
  8
Layer_1
 62
7
100
AcDbLine
 10
1.999976
 20
-17.000021
 30
0.0
 11
1.842806
 21
-17.778503
 31
0.0
  0
LINE
  5
121
100
AcDbEntity
  8
Layer_1
 62
7
100
AcDbLine
 10
1.842806
 20
-17.778503
 30
0.0
 11
1.414190
 21
-18.414237
 31
0.0
  0
LINE
  5
122
100
AcDbEntity
  8
Layer_1
 62
7
100
AcDbLine
 10
1.414190
 20
-18.414237
 30
0.0
 11
0.778467
 21
-18.842848
 31
0.0
  0
LINE
  5
123
100
AcDbEntity
  8
Layer_1
 62
7
100
AcDbLine
 10
0.778467
 20
-18.842848
 30
0.0
 11
-0.000023
 21
-19.000017
 31
0.0
  0
LINE
  5
124
100
AcDbEntity
  8
Layer_1
 62
7
100
AcDbLine
 10
-0.000023
 20
-19.000017
 30
0.0
 11
-0.778513
 21
-18.842848
 31
0.0
  0
LINE
  5
125
100
AcDbEntity
  8
Layer_1
 62
7
100
AcDbLine
 10
-0.778513
 20
-18.842848
 30
0.0
 11
-1.414236
 21
-18.414237
 31
0.0
  0
LINE
  5
126
100
AcDbEntity
  8
Layer_1
 62
7
100
AcDbLine
 10
-1.414236
 20
-18.414237
 30
0.0
 11
-1.842852
 21
-17.778503
 31
0.0
  0
LINE
  5
127
100
AcDbEntity
  8
Layer_1
 62
7
100
AcDbLine
 10
-1.842852
 20
-17.778503
 30
0.0
 11
-2.000024
 21
-17.000021
 31
0.0
  0
LINE
  5
128
100
AcDbEntity
  8
Layer_1
 62
7
100
AcDbLine
 10
-2.000024
 20
-17.000021
 30
0.0
 11
-1.842855
 21
-16.221539
 31
0.0
  0
LINE
  5
129
100
AcDbEntity
  8
Layer_1
 62
7
100
AcDbLine
 10
-1.842855
 20
-16.221539
 30
0.0
 11
-1.414238
 21
-15.585806
 31
0.0
  0
LINE
  5
12a
100
AcDbEntity
  8
Layer_1
 62
7
100
AcDbLine
 10
-1.414238
 20
-15.585806
 30
0.0
 11
-0.778513
 21
-15.157195
 31
0.0
  0
LINE
  5
12b
100
AcDbEntity
  8
Layer_1
 62
7
100
AcDbLine
 10
-0.778513
 20
-15.157195
 30
0.0
 11
-0.000023
 21
-15.000025
 31
0.0
  0
LINE
  5
12c
100
AcDbEntity
  8
Layer_1
 62
7
100
AcDbLine
 10
-0.000023
 20
-15.000025
 30
0.0
 11
0.778467
 21
-15.157195
 31
0.0
  0
LINE
  5
12d
100
AcDbEntity
  8
Layer_1
 62
7
100
AcDbLine
 10
0.778467
 20
-15.157195
 30
0.0
 11
1.414190
 21
-15.585806
 31
0.0
  0
LINE
  5
12e
100
AcDbEntity
  8
Layer_1
 62
7
100
AcDbLine
 10
1.414190
 20
-15.585806
 30
0.0
 11
1.842806
 21
-16.221539
 31
0.0
  0
LINE
  5
12f
100
AcDbEntity
  8
Layer_1
 62
7
100
AcDbLine
 10
1.842806
 20
-16.221539
 30
0.0
 11
1.999976
 21
-17.000021
 31
0.0
  0
LINE
  5
130
100
AcDbEntity
  8
Layer_1
 62
7
100
AcDbLine
 10
-44.999997
 20
6.899996
 30
0.0
 11
-45.157167
 21
6.121514
 31
0.0
  0
LINE
  5
131
100
AcDbEntity
  8
Layer_1
 62
7
100
AcDbLine
 10
-45.157167
 20
6.121514
 30
0.0
 11
-45.585784
 21
5.485780
 31
0.0
  0
LINE
  5
132
100
AcDbEntity
  8
Layer_1
 62
7
100
AcDbLine
 10
-45.585784
 20
5.485780
 30
0.0
 11
-46.221506
 21
5.057170
 31
0.0
  0
LINE
  5
133
100
AcDbEntity
  8
Layer_1
 62
7
100
AcDbLine
 10
-46.221506
 20
5.057170
 30
0.0
 11
-46.999996
 21
4.900000
 31
0.0
  0
LINE
  5
134
100
AcDbEntity
  8
Layer_1
 62
7
100
AcDbLine
 10
-46.999996
 20
4.900000
 30
0.0
 11
-47.778487
 21
5.057170
 31
0.0
  0
LINE
  5
135
100
AcDbEntity
  8
Layer_1
 62
7
100
AcDbLine
 10
-47.778487
 20
5.057170
 30
0.0
 11
-48.414209
 21
5.485780
 31
0.0
  0
LINE
  5
136
100
AcDbEntity
  8
Layer_1
 62
7
100
AcDbLine
 10
-48.414209
 20
5.485780
 30
0.0
 11
-48.842826
 21
6.121514
 31
0.0
  0
LINE
  5
137
100
AcDbEntity
  8
Layer_1
 62
7
100
AcDbLine
 10
-48.842826
 20
6.121514
 30
0.0
 11
-48.999998
 21
6.899996
 31
0.0
  0
LINE
  5
138
100
AcDbEntity
  8
Layer_1
 62
7
100
AcDbLine
 10
-48.999998
 20
6.899996
 30
0.0
 11
-48.842828
 21
7.678506
 31
0.0
  0
LINE
  5
139
100
AcDbEntity
  8
Layer_1
 62
7
100
AcDbLine
 10
-48.842828
 20
7.678506
 30
0.0
 11
-48.414212
 21
8.314212
 31
0.0
  0
LINE
  5
13a
100
AcDbEntity
  8
Layer_1
 62
7
100
AcDbLine
 10
-48.414212
 20
8.314212
 30
0.0
 11
-47.778487
 21
8.742851
 31
0.0
  0
LINE
  5
13b
100
AcDbEntity
  8
Layer_1
 62
7
100
AcDbLine
 10
-47.778487
 20
8.742851
 30
0.0
 11
-46.999996
 21
8.900020
 31
0.0
  0
LINE
  5
13c
100
AcDbEntity
  8
Layer_1
 62
7
100
AcDbLine
 10
-46.999996
 20
8.900020
 30
0.0
 11
-46.221506
 21
8.742851
 31
0.0
  0
LINE
  5
13d
100
AcDbEntity
  8
Layer_1
 62
7
100
AcDbLine
 10
-46.221506
 20
8.742851
 30
0.0
 11
-45.585784
 21
8.314212
 31
0.0
  0
LINE
  5
13e
100
AcDbEntity
  8
Layer_1
 62
7
100
AcDbLine
 10
-45.585784
 20
8.314212
 30
0.0
 11
-45.157167
 21
7.678506
 31
0.0
  0
LINE
  5
13f
100
AcDbEntity
  8
Layer_1
 62
7
100
AcDbLine
 10
-45.157167
 20
7.678506
 30
0.0
 11
-44.999997
 21
6.899996
 31
0.0
  0
LINE
  5
140
100
AcDbEntity
  8
Layer_1
 62
7
100
AcDbLine
 10
-44.999997
 20
-17.099928
 30
0.0
 11
-45.157167
 21
-17.878410
 31
0.0
  0
LINE
  5
141
100
AcDbEntity
  8
Layer_1
 62
7
100
AcDbLine
 10
-45.157167
 20
-17.878410
 30
0.0
 11
-45.585784
 21
-18.514143
 31
0.0
  0
LINE
  5
142
100
AcDbEntity
  8
Layer_1
 62
7
100
AcDbLine
 10
-45.585784
 20
-18.514143
 30
0.0
 11
-46.221506
 21
-18.942754
 31
0.0
  0
LINE
  5
143
100
AcDbEntity
  8
Layer_1
 62
7
100
AcDbLine
 10
-46.221506
 20
-18.942754
 30
0.0
 11
-46.999996
 21
-19.099924
 31
0.0
  0
LINE
  5
144
100
AcDbEntity
  8
Layer_1
 62
7
100
AcDbLine
 10
-46.999996
 20
-19.099924
 30
0.0
 11
-47.778487
 21
-18.942754
 31
0.0
  0
LINE
  5
145
100
AcDbEntity
  8
Layer_1
 62
7
100
AcDbLine
 10
-47.778487
 20
-18.942754
 30
0.0
 11
-48.414209
 21
-18.514143
 31
0.0
  0
LINE
  5
146
100
AcDbEntity
  8
Layer_1
 62
7
100
AcDbLine
 10
-48.414209
 20
-18.514143
 30
0.0
 11
-48.842826
 21
-17.878410
 31
0.0
  0
LINE
  5
147
100
AcDbEntity
  8
Layer_1
 62
7
100
AcDbLine
 10
-48.842826
 20
-17.878410
 30
0.0
 11
-48.999998
 21
-17.099928
 31
0.0
  0
LINE
  5
148
100
AcDbEntity
  8
Layer_1
 62
7
100
AcDbLine
 10
-48.999998
 20
-17.099928
 30
0.0
 11
-48.842828
 21
-16.321446
 31
0.0
  0
LINE
  5
149
100
AcDbEntity
  8
Layer_1
 62
7
100
AcDbLine
 10
-48.842828
 20
-16.321446
 30
0.0
 11
-48.414212
 21
-15.685712
 31
0.0
  0
LINE
  5
14a
100
AcDbEntity
  8
Layer_1
 62
7
100
AcDbLine
 10
-48.414212
 20
-15.685712
 30
0.0
 11
-47.778487
 21
-15.257101
 31
0.0
  0
LINE
  5
14b
100
AcDbEntity
  8
Layer_1
 62
7
100
AcDbLine
 10
-47.778487
 20
-15.257101
 30
0.0
 11
-46.999996
 21
-15.099932
 31
0.0
  0
LINE
  5
14c
100
AcDbEntity
  8
Layer_1
 62
7
100
AcDbLine
 10
-46.999996
 20
-15.099932
 30
0.0
 11
-46.221506
 21
-15.257101
 31
0.0
  0
LINE
  5
14d
100
AcDbEntity
  8
Layer_1
 62
7
100
AcDbLine
 10
-46.221506
 20
-15.257101
 30
0.0
 11
-45.585784
 21
-15.685712
 31
0.0
  0
LINE
  5
14e
100
AcDbEntity
  8
Layer_1
 62
7
100
AcDbLine
 10
-45.585784
 20
-15.685712
 30
0.0
 11
-45.157167
 21
-16.321446
 31
0.0
  0
LINE
  5
14f
100
AcDbEntity
  8
Layer_1
 62
7
100
AcDbLine
 10
-45.157167
 20
-16.321446
 30
0.0
 11
-44.999997
 21
-17.099928
 31
0.0
  0
LINE
  5
150
100
AcDbEntity
  8
Layer_1
 62
7
100
AcDbLine
 10
48.999967
 20
6.899996
 30
0.0
 11
48.842797
 21
6.121514
 31
0.0
  0
LINE
  5
151
100
AcDbEntity
  8
Layer_1
 62
7
100
AcDbLine
 10
48.842797
 20
6.121514
 30
0.0
 11
48.414181
 21
5.485780
 31
0.0
  0
LINE
  5
152
100
AcDbEntity
  8
Layer_1
 62
7
100
AcDbLine
 10
48.414181
 20
5.485780
 30
0.0
 11
47.778458
 21
5.057170
 31
0.0
  0
LINE
  5
153
100
AcDbEntity
  8
Layer_1
 62
7
100
AcDbLine
 10
47.778458
 20
5.057170
 30
0.0
 11
46.999968
 21
4.900000
 31
0.0
  0
LINE
  5
154
100
AcDbEntity
  8
Layer_1
 62
7
100
AcDbLine
 10
46.999968
 20
4.900000
 30
0.0
 11
46.221478
 21
5.057170
 31
0.0
  0
LINE
  5
155
100
AcDbEntity
  8
Layer_1
 62
7
100
AcDbLine
 10
46.221478
 20
5.057170
 30
0.0
 11
45.585753
 21
5.485780
 31
0.0
  0
LINE
  5
156
100
AcDbEntity
  8
Layer_1
 62
7
100
AcDbLine
 10
45.585753
 20
5.485780
 30
0.0
 11
45.157136
 21
6.121514
 31
0.0
  0
LINE
  5
157
100
AcDbEntity
  8
Layer_1
 62
7
100
AcDbLine
 10
45.157136
 20
6.121514
 30
0.0
 11
44.999966
 21
6.899996
 31
0.0
  0
LINE
  5
158
100
AcDbEntity
  8
Layer_1
 62
7
100
AcDbLine
 10
44.999966
 20
6.899996
 30
0.0
 11
45.157136
 21
7.678506
 31
0.0
  0
LINE
  5
159
100
AcDbEntity
  8
Layer_1
 62
7
100
AcDbLine
 10
45.157136
 20
7.678506
 30
0.0
 11
45.585753
 21
8.314212
 31
0.0
  0
LINE
  5
15a
100
AcDbEntity
  8
Layer_1
 62
7
100
AcDbLine
 10
45.585753
 20
8.314212
 30
0.0
 11
46.221478
 21
8.742851
 31
0.0
  0
LINE
  5
15b
100
AcDbEntity
  8
Layer_1
 62
7
100
AcDbLine
 10
46.221478
 20
8.742851
 30
0.0
 11
46.999968
 21
8.900020
 31
0.0
  0
LINE
  5
15c
100
AcDbEntity
  8
Layer_1
 62
7
100
AcDbLine
 10
46.999968
 20
8.900020
 30
0.0
 11
47.778458
 21
8.742851
 31
0.0
  0
LINE
  5
15d
100
AcDbEntity
  8
Layer_1
 62
7
100
AcDbLine
 10
47.778458
 20
8.742851
 30
0.0
 11
48.414181
 21
8.314212
 31
0.0
  0
LINE
  5
15e
100
AcDbEntity
  8
Layer_1
 62
7
100
AcDbLine
 10
48.414181
 20
8.314212
 30
0.0
 11
48.842797
 21
7.678506
 31
0.0
  0
LINE
  5
15f
100
AcDbEntity
  8
Layer_1
 62
7
100
AcDbLine
 10
48.842797
 20
7.678506
 30
0.0
 11
48.999967
 21
6.899996
 31
0.0
  0
LINE
  5
160
100
AcDbEntity
  8
Layer_1
 62
7
100
AcDbLine
 10
48.999967
 20
-17.099928
 30
0.0
 11
48.842797
 21
-17.878410
 31
0.0
  0
LINE
  5
161
100
AcDbEntity
  8
Layer_1
 62
7
100
AcDbLine
 10
48.842797
 20
-17.878410
 30
0.0
 11
48.414181
 21
-18.514143
 31
0.0
  0
LINE
  5
162
100
AcDbEntity
  8
Layer_1
 62
7
100
AcDbLine
 10
48.414181
 20
-18.514143
 30
0.0
 11
47.778458
 21
-18.942754
 31
0.0
  0
LINE
  5
163
100
AcDbEntity
  8
Layer_1
 62
7
100
AcDbLine
 10
47.778458
 20
-18.942754
 30
0.0
 11
46.999968
 21
-19.099924
 31
0.0
  0
LINE
  5
164
100
AcDbEntity
  8
Layer_1
 62
7
100
AcDbLine
 10
46.999968
 20
-19.099924
 30
0.0
 11
46.221478
 21
-18.942754
 31
0.0
  0
LINE
  5
165
100
AcDbEntity
  8
Layer_1
 62
7
100
AcDbLine
 10
46.221478
 20
-18.942754
 30
0.0
 11
45.585755
 21
-18.514143
 31
0.0
  0
LINE
  5
166
100
AcDbEntity
  8
Layer_1
 62
7
100
AcDbLine
 10
45.585755
 20
-18.514143
 30
0.0
 11
45.157139
 21
-17.878410
 31
0.0
  0
LINE
  5
167
100
AcDbEntity
  8
Layer_1
 62
7
100
AcDbLine
 10
45.157139
 20
-17.878410
 30
0.0
 11
44.999966
 21
-17.099928
 31
0.0
  0
LINE
  5
168
100
AcDbEntity
  8
Layer_1
 62
7
100
AcDbLine
 10
44.999966
 20
-17.099928
 30
0.0
 11
45.157136
 21
-16.321446
 31
0.0
  0
LINE
  5
169
100
AcDbEntity
  8
Layer_1
 62
7
100
AcDbLine
 10
45.157136
 20
-16.321446
 30
0.0
 11
45.585753
 21
-15.685712
 31
0.0
  0
LINE
  5
16a
100
AcDbEntity
  8
Layer_1
 62
7
100
AcDbLine
 10
45.585753
 20
-15.685712
 30
0.0
 11
46.221478
 21
-15.257101
 31
0.0
  0
LINE
  5
16b
100
AcDbEntity
  8
Layer_1
 62
7
100
AcDbLine
 10
46.221478
 20
-15.257101
 30
0.0
 11
46.999968
 21
-15.099932
 31
0.0
  0
LINE
  5
16c
100
AcDbEntity
  8
Layer_1
 62
7
100
AcDbLine
 10
46.999968
 20
-15.099932
 30
0.0
 11
47.778458
 21
-15.257101
 31
0.0
  0
LINE
  5
16d
100
AcDbEntity
  8
Layer_1
 62
7
100
AcDbLine
 10
47.778458
 20
-15.257101
 30
0.0
 11
48.414181
 21
-15.685712
 31
0.0
  0
LINE
  5
16e
100
AcDbEntity
  8
Layer_1
 62
7
100
AcDbLine
 10
48.414181
 20
-15.685712
 30
0.0
 11
48.842797
 21
-16.321446
 31
0.0
  0
LINE
  5
16f
100
AcDbEntity
  8
Layer_1
 62
7
100
AcDbLine
 10
48.842797
 20
-16.321446
 30
0.0
 11
48.999967
 21
-17.099928
 31
0.0
  0
LINE
  5
170
100
AcDbEntity
  8
Layer_1
 62
7
100
AcDbLine
 10
-36.489172
 20
-4.920092
 30
0.0
 11
-36.442187
 21
-5.513859
 31
0.0
  0
LINE
  5
171
100
AcDbEntity
  8
Layer_1
 62
7
100
AcDbLine
 10
-36.442187
 20
-5.513859
 30
0.0
 11
-36.180245
 21
-6.025782
 31
0.0
  0
LINE
  5
172
100
AcDbEntity
  8
Layer_1
 62
7
100
AcDbLine
 10
-36.180245
 20
-6.025782
 30
0.0
 11
-35.745460
 21
-6.402125
 31
0.0
  0
LINE
  5
173
100
AcDbEntity
  8
Layer_1
 62
7
100
AcDbLine
 10
-35.745460
 20
-6.402125
 30
0.0
 11
-35.179948
 21
-6.589182
 31
0.0
  0
LINE
  5
174
100
AcDbEntity
  8
Layer_1
 62
7
100
AcDbLine
 10
-35.179948
 20
-6.589182
 30
0.0
 11
-34.586158
 21
-6.542192
 31
0.0
  0
LINE
  5
175
100
AcDbEntity
  8
Layer_1
 62
7
100
AcDbLine
 10
-34.586158
 20
-6.542192
 30
0.0
 11
-34.074247
 21
-6.280262
 31
0.0
  0
LINE
  5
176
100
AcDbEntity
  8
Layer_1
 62
7
100
AcDbLine
 10
-34.074247
 20
-6.280262
 30
0.0
 11
-33.697906
 21
-5.845470
 31
0.0
  0
LINE
  5
177
100
AcDbEntity
  8
Layer_1
 62
7
100
AcDbLine
 10
-33.697906
 20
-5.845470
 30
0.0
 11
-33.510838
 21
-5.279953
 31
0.0
  0
LINE
  5
178
100
AcDbEntity
  8
Layer_1
 62
7
100
AcDbLine
 10
-33.510838
 20
-5.279953
 30
0.0
 11
-33.557822
 21
-4.686186
 31
0.0
  0
LINE
  5
179
100
AcDbEntity
  8
Layer_1
 62
7
100
AcDbLine
 10
-33.557822
 20
-4.686186
 30
0.0
 11
-33.819767
 21
-4.174263
 31
0.0
  0
LINE
  5
17a
100
AcDbEntity
  8
Layer_1
 62
7
100
AcDbLine
 10
-33.819767
 20
-4.174263
 30
0.0
 11
-34.254553
 21
-3.797920
 31
0.0
  0
LINE
  5
17b
100
AcDbEntity
  8
Layer_1
 62
7
100
AcDbLine
 10
-34.254553
 20
-3.797920
 30
0.0
 11
-34.820061
 21
-3.610863
 31
0.0
  0
LINE
  5
17c
100
AcDbEntity
  8
Layer_1
 62
7
100
AcDbLine
 10
-34.820061
 20
-3.610863
 30
0.0
 11
-35.413854
 21
-3.657853
 31
0.0
  0
LINE
  5
17d
100
AcDbEntity
  8
Layer_1
 62
7
100
AcDbLine
 10
-35.413854
 20
-3.657853
 30
0.0
 11
-35.925766
 21
-3.919783
 31
0.0
  0
LINE
  5
17e
100
AcDbEntity
  8
Layer_1
 62
7
100
AcDbLine
 10
-35.925766
 20
-3.919783
 30
0.0
 11
-36.302103
 21
-4.354575
 31
0.0
  0
LINE
  5
17f
100
AcDbEntity
  8
Layer_1
 62
7
100
AcDbLine
 10
-36.302103
 20
-4.354575
 30
0.0
 11
-36.489172
 21
-4.920092
 31
0.0
  0
LINE
  5
180
100
AcDbEntity
  8
Layer_1
 62
7
100
AcDbLine
 10
33.510799
 20
-4.920063
 30
0.0
 11
33.557783
 21
-5.513859
 31
0.0
  0
LINE
  5
181
100
AcDbEntity
  8
Layer_1
 62
7
100
AcDbLine
 10
33.557783
 20
-5.513859
 30
0.0
 11
33.819727
 21
-6.025782
 31
0.0
  0
LINE
  5
182
100
AcDbEntity
  8
Layer_1
 62
7
100
AcDbLine
 10
33.819727
 20
-6.025782
 30
0.0
 11
34.254511
 21
-6.402097
 31
0.0
  0
LINE
  5
183
100
AcDbEntity
  8
Layer_1
 62
7
100
AcDbLine
 10
34.254511
 20
-6.402097
 30
0.0
 11
34.820022
 21
-6.589182
 31
0.0
  0
LINE
  5
184
100
AcDbEntity
  8
Layer_1
 62
7
100
AcDbLine
 10
34.820022
 20
-6.589182
 30
0.0
 11
35.413812
 21
-6.542192
 31
0.0
  0
LINE
  5
185
100
AcDbEntity
  8
Layer_1
 62
7
100
AcDbLine
 10
35.413812
 20
-6.542192
 30
0.0
 11
35.925726
 21
-6.280262
 31
0.0
  0
LINE
  5
186
100
AcDbEntity
  8
Layer_1
 62
7
100
AcDbLine
 10
35.925726
 20
-6.280262
 30
0.0
 11
36.302064
 21
-5.845470
 31
0.0
  0
LINE
  5
187
100
AcDbEntity
  8
Layer_1
 62
7
100
AcDbLine
 10
36.302064
 20
-5.845470
 30
0.0
 11
36.489132
 21
-5.279953
 31
0.0
  0
LINE
  5
188
100
AcDbEntity
  8
Layer_1
 62
7
100
AcDbLine
 10
36.489132
 20
-5.279953
 30
0.0
 11
36.442148
 21
-4.686158
 31
0.0
  0
LINE
  5
189
100
AcDbEntity
  8
Layer_1
 62
7
100
AcDbLine
 10
36.442148
 20
-4.686158
 30
0.0
 11
36.180203
 21
-4.174263
 31
0.0
  0
LINE
  5
18a
100
AcDbEntity
  8
Layer_1
 62
7
100
AcDbLine
 10
36.180203
 20
-4.174263
 30
0.0
 11
35.745420
 21
-3.797920
 31
0.0
  0
LINE
  5
18b
100
AcDbEntity
  8
Layer_1
 62
7
100
AcDbLine
 10
35.745420
 20
-3.797920
 30
0.0
 11
35.179909
 21
-3.610834
 31
0.0
  0
LINE
  5
18c
100
AcDbEntity
  8
Layer_1
 62
7
100
AcDbLine
 10
35.179909
 20
-3.610834
 30
0.0
 11
34.586119
 21
-3.657824
 31
0.0
  0
LINE
  5
18d
100
AcDbEntity
  8
Layer_1
 62
7
100
AcDbLine
 10
34.586119
 20
-3.657824
 30
0.0
 11
34.074204
 21
-3.919783
 31
0.0
  0
LINE
  5
18e
100
AcDbEntity
  8
Layer_1
 62
7
100
AcDbLine
 10
34.074204
 20
-3.919783
 30
0.0
 11
33.697867
 21
-4.354546
 31
0.0
  0
LINE
  5
18f
100
AcDbEntity
  8
Layer_1
 62
7
100
AcDbLine
 10
33.697867
 20
-4.354546
 30
0.0
 11
33.510799
 21
-4.920063
 31
0.0
  0
ENDSEC
  0
SECTION
  2
OBJECTS
  0
DICTIONARY
  5
C
330
0
100
AcDbDictionary
  3
ACAD_GROUP
350
D
  3
ACAD_MLINESTYLE
350
17
  0
DICTIONARY
  5
D
330
C
100
AcDbDictionary
  0
DICTIONARY
  5
1A
330
C
100
AcDbDictionary
  0
DICTIONARY
  5
17
330
C
100
AcDbDictionary
  3
STANDARD
350
18
  0
DICTIONARY
  5
19
330
C
100
AcDbDictionary
  0
ENDSEC
  0
EOF
