  0
SECTION
  2
HEADER
  9
$ACADVER
  1
AC1014
  9
$HANDSEED
  5
FFFF
  9
$MEASUREMENT
 70
     1
  0
ENDSEC
  0
SECTION
  2
TABLES
  0
TABLE
  2
VPORT
  5
8
330
0
100
AcDbSymbolTable
 70
     4
  0
VPORT
  5
2E
330
8
100
AcDbSymbolTableRecord
100
AcDbViewportTableRecord
  2
*ACTIVE
 70
     0
 10
0.0
 20
0.0
 11
1.0
 21
1.0
 12
210.0
 22
148.5
 13
0.0
 23
0.0
 14
10.0
 24
10.0
 15
10.0
 25
10.0
 16
0.0
 26
0.0
 36
1.0
 17
0.0
 27
0.0
 37
0.0
 40
341.0
 41
1.24
 42
50.0
 43
0.0
 44
0.0
 50
0.0
 51
0.0
 71
     0
 72
   100
 73
     1
 74
     3
 75
     0
 76
     0
 77
     0
 78
     0
  0
ENDTAB
  0
TABLE
  2
LTYPE
  5
5
330
0
100
AcDbSymbolTable
 70
     1
  0
LTYPE
  5
14
330
5
100
AcDbSymbolTableRecord
100
AcDbLinetypeTableRecord
  2
BYBLOCK
 70
     0
  3

 72
    65
 73
     0
 40
0.0
  0
LTYPE
  5
15
330
5
100
AcDbSymbolTableRecord
100
AcDbLinetypeTableRecord
  2
BYLAYER
 70
     0
  3

 72
    65
 73
     0
 40
0.0
  0
LTYPE
  5
16
330
5
100
AcDbSymbolTableRecord
100
AcDbLinetypeTableRecord
  2
CONTINUOUS
 70
     0
  3
Solid line
 72
    65
 73
     0
 40
0.0
  0
ENDTAB
  0
TABLE
  2
LAYER
  5
2
100
AcDbSymbolTable
 70
2
  0
LAYER
  5
50
100
AcDbSymbolTableRecord
100
AcDbLayerTableRecord
  2
0
 70
0
  6
CONTINUOUS
  0
LAYER
  5
51
100
AcDbSymbolTableRecord
100
AcDbLayerTableRecord
  2
Layer_1
 70
0
  6
CONTINUOUS
  0
ENDTAB
  0
TABLE
  2
STYLE
  5
3
330
0
100
AcDbSymbolTable
 70
     1
  0
STYLE
  5
11
330
3
100
AcDbSymbolTableRecord
100
AcDbTextStyleTableRecord
  2
STANDARD
 70
     0
 40
0.0
 41
1.0
 50
0.0
 71
     0
 42
2.5
  3
txt
  4

  0
ENDTAB
  0
TABLE
  2
VIEW
  5
6
330
0
100
AcDbSymbolTable
 70
     0
  0
ENDTAB
  0
TABLE
  2
UCS
  5
7
330
0
100
AcDbSymbolTable
 70
     0
  0
ENDTAB
  0
TABLE
  2
APPID
  5
9
330
0
100
AcDbSymbolTable
 70
     2
  0
APPID
  5
12
330
9
100
AcDbSymbolTableRecord
100
AcDbRegAppTableRecord
  2
ACAD
 70
     0
  0
ENDTAB
  0
TABLE
  2
DIMSTYLE
  5
A
330
0
100
AcDbSymbolTable
 70
     1
  0
DIMSTYLE
105
27
330
A
100
AcDbSymbolTableRecord
100
AcDbDimStyleTableRecord
  2
ISO-25
 70
     0
  3

  4

  5

  6

  7

 40
1.0
 41
2.5
 42
0.625
 43
3.75
 44
1.25
 45
0.0
 46
0.0
 47
0.0
 48
0.0
140
2.5
141
2.5
142
0.0
143
0.03937007874016
144
1.0
145
0.0
146
1.0
147
0.625
 71
     0
 72
     0
 73
     0
 74
     0
 75
     0
 76
     0
 77
     1
 78
     8
170
     0
171
     3
172
     1
173
     0
174
     0
175
     0
176
     0
177
     0
178
     0
270
     2
271
     2
272
     2
273
     2
274
     3
340
11
275
     0
280
     0
281
     0
282
     0
283
     0
284
     8
285
     0
286
     0
287
     3
288
     0
  0
ENDTAB
  0
TABLE
  2
BLOCK_RECORD
  5
1
330
0
100
AcDbSymbolTable
 70
     1
  0
BLOCK_RECORD
  5
1F
330
1
100
AcDbSymbolTableRecord
100
AcDbBlockTableRecord
  2
*MODEL_SPACE
  0
BLOCK_RECORD
  5
1B
330
1
100
AcDbSymbolTableRecord
100
AcDbBlockTableRecord
  2
*PAPER_SPACE
  0
ENDTAB
  0
ENDSEC
  0
SECTION
  2
BLOCKS
  0
BLOCK
  5
20
330
1F
100
AcDbEntity
  8
0
100
AcDbBlockBegin
  2
*MODEL_SPACE
 70
     0
 10
0.0
 20
0.0
 30
0.0
  3
*MODEL_SPACE
  1

  0
ENDBLK
  5
21
330
1F
100
AcDbEntity
  8
0
100
AcDbBlockEnd
  0
BLOCK
  5
1C
330
1B
100
AcDbEntity
 67
     1
  8
0
100
AcDbBlockBegin
  2
*PAPER_SPACE
  1

  0
ENDBLK
  5
1D
330
1B
100
AcDbEntity
 67
     1
  8
0
100
AcDbBlockEnd
  0
ENDSEC
  0
SECTION
  2
ENTITIES
  0
LINE
  5
100
100
AcDbEntity
  8
Layer_1
 62
7
100
AcDbLine
 10
-46.836093
 20
-20.999985
 30
0.0
 11
-23.418046
 21
-20.999985
 31
0.0
  0
LINE
  5
101
100
AcDbEntity
  8
Layer_1
 62
7
100
AcDbLine
 10
-23.418046
 20
-20.999985
 30
0.0
 11
0.000000
 21
-20.999985
 31
0.0
  0
LINE
  5
102
100
AcDbEntity
  8
Layer_1
 62
7
100
AcDbLine
 10
0.000000
 20
-20.999985
 30
0.0
 11
23.418046
 21
-20.999985
 31
0.0
  0
LINE
  5
103
100
AcDbEntity
  8
Layer_1
 62
7
100
AcDbLine
 10
23.418046
 20
-20.999985
 30
0.0
 11
46.836093
 21
-20.999985
 31
0.0
  0
LINE
  5
104
100
AcDbEntity
  8
Layer_1
 62
7
100
AcDbLine
 10
46.836093
 20
-20.999985
 30
0.0
 11
48.420889
 21
-20.681610
 31
0.0
  0
LINE
  5
105
100
AcDbEntity
  8
Layer_1
 62
7
100
AcDbLine
 10
48.420889
 20
-20.681610
 30
0.0
 11
49.712321
 21
-19.812309
 31
0.0
  0
LINE
  5
106
100
AcDbEntity
  8
Layer_1
 62
7
100
AcDbLine
 10
49.712321
 20
-19.812309
 30
0.0
 11
50.581616
 21
-18.520888
 31
0.0
  0
LINE
  5
107
100
AcDbEntity
  8
Layer_1
 62
7
100
AcDbLine
 10
50.581616
 20
-18.520888
 30
0.0
 11
50.899997
 21
-16.936070
 31
0.0
  0
LINE
  5
108
100
AcDbEntity
  8
Layer_1
 62
7
100
AcDbLine
 10
50.899997
 20
-16.936070
 30
0.0
 11
50.899997
 21
-11.018039
 31
0.0
  0
LINE
  5
109
100
AcDbEntity
  8
Layer_1
 62
7
100
AcDbLine
 10
50.899997
 20
-11.018039
 30
0.0
 11
50.899997
 21
-5.099980
 31
0.0
  0
LINE
  5
10a
100
AcDbEntity
  8
Layer_1
 62
7
100
AcDbLine
 10
50.899997
 20
-5.099980
 30
0.0
 11
50.899997
 21
0.818051
 31
0.0
  0
LINE
  5
10b
100
AcDbEntity
  8
Layer_1
 62
7
100
AcDbLine
 10
50.899997
 20
0.818051
 30
0.0
 11
50.899997
 21
6.736110
 31
0.0
  0
LINE
  5
10c
100
AcDbEntity
  8
Layer_1
 62
7
100
AcDbLine
 10
50.899997
 20
6.736110
 30
0.0
 11
50.581616
 21
8.320900
 31
0.0
  0
LINE
  5
10d
100
AcDbEntity
  8
Layer_1
 62
7
100
AcDbLine
 10
50.581616
 20
8.320900
 30
0.0
 11
49.712321
 21
9.612349
 31
0.0
  0
LINE
  5
10e
100
AcDbEntity
  8
Layer_1
 62
7
100
AcDbLine
 10
49.712321
 20
9.612349
 30
0.0
 11
48.420889
 21
10.481650
 31
0.0
  0
LINE
  5
10f
100
AcDbEntity
  8
Layer_1
 62
7
100
AcDbLine
 10
48.420889
 20
10.481650
 30
0.0
 11
46.836093
 21
10.800025
 31
0.0
  0
LINE
  5
110
100
AcDbEntity
  8
Layer_1
 62
7
100
AcDbLine
 10
46.836093
 20
10.800025
 30
0.0
 11
23.418046
 21
10.800025
 31
0.0
  0
LINE
  5
111
100
AcDbEntity
  8
Layer_1
 62
7
100
AcDbLine
 10
23.418046
 20
10.800025
 30
0.0
 11
0.000000
 21
10.800025
 31
0.0
  0
LINE
  5
112
100
AcDbEntity
  8
Layer_1
 62
7
100
AcDbLine
 10
0.000000
 20
10.800025
 30
0.0
 11
-23.418046
 21
10.800025
 31
0.0
  0
LINE
  5
113
100
AcDbEntity
  8
Layer_1
 62
7
100
AcDbLine
 10
-23.418046
 20
10.800025
 30
0.0
 11
-46.836093
 21
10.800025
 31
0.0
  0
LINE
  5
114
100
AcDbEntity
  8
Layer_1
 62
7
100
AcDbLine
 10
-46.836093
 20
10.800025
 30
0.0
 11
-48.420889
 21
10.481650
 31
0.0
  0
LINE
  5
115
100
AcDbEntity
  8
Layer_1
 62
7
100
AcDbLine
 10
-48.420889
 20
10.481650
 30
0.0
 11
-49.712321
 21
9.612349
 31
0.0
  0
LINE
  5
116
100
AcDbEntity
  8
Layer_1
 62
7
100
AcDbLine
 10
-49.712321
 20
9.612349
 30
0.0
 11
-50.581616
 21
8.320900
 31
0.0
  0
LINE
  5
117
100
AcDbEntity
  8
Layer_1
 62
7
100
AcDbLine
 10
-50.581616
 20
8.320900
 30
0.0
 11
-50.899997
 21
6.736110
 31
0.0
  0
LINE
  5
118
100
AcDbEntity
  8
Layer_1
 62
7
100
AcDbLine
 10
-50.899997
 20
6.736110
 30
0.0
 11
-50.899997
 21
0.818051
 31
0.0
  0
LINE
  5
119
100
AcDbEntity
  8
Layer_1
 62
7
100
AcDbLine
 10
-50.899997
 20
0.818051
 30
0.0
 11
-50.899997
 21
-5.099980
 31
0.0
  0
LINE
  5
11a
100
AcDbEntity
  8
Layer_1
 62
7
100
AcDbLine
 10
-50.899997
 20
-5.099980
 30
0.0
 11
-50.899997
 21
-11.018039
 31
0.0
  0
LINE
  5
11b
100
AcDbEntity
  8
Layer_1
 62
7
100
AcDbLine
 10
-50.899997
 20
-11.018039
 30
0.0
 11
-50.899997
 21
-16.936070
 31
0.0
  0
LINE
  5
11c
100
AcDbEntity
  8
Layer_1
 62
7
100
AcDbLine
 10
-50.899997
 20
-16.936070
 30
0.0
 11
-50.581616
 21
-18.520888
 31
0.0
  0
LINE
  5
11d
100
AcDbEntity
  8
Layer_1
 62
7
100
AcDbLine
 10
-50.581616
 20
-18.520888
 30
0.0
 11
-49.712321
 21
-19.812309
 31
0.0
  0
LINE
  5
11e
100
AcDbEntity
  8
Layer_1
 62
7
100
AcDbLine
 10
-49.712321
 20
-19.812309
 30
0.0
 11
-48.420889
 21
-20.681610
 31
0.0
  0
LINE
  5
11f
100
AcDbEntity
  8
Layer_1
 62
7
100
AcDbLine
 10
-48.420889
 20
-20.681610
 30
0.0
 11
-46.836093
 21
-20.999985
 31
0.0
  0
LINE
  5
120
100
AcDbEntity
  8
Layer_1
 62
7
100
AcDbLine
 10
1.500027
 20
-17.499978
 30
0.0
 11
1.382152
 21
-18.083839
 31
0.0
  0
LINE
  5
121
100
AcDbEntity
  8
Layer_1
 62
7
100
AcDbLine
 10
1.382152
 20
-18.083839
 30
0.0
 11
1.060691
 21
-18.560654
 31
0.0
  0
LINE
  5
122
100
AcDbEntity
  8
Layer_1
 62
7
100
AcDbLine
 10
1.060691
 20
-18.560654
 30
0.0
 11
0.583897
 21
-18.882105
 31
0.0
  0
LINE
  5
123
100
AcDbEntity
  8
Layer_1
 62
7
100
AcDbLine
 10
0.583897
 20
-18.882105
 30
0.0
 11
0.000027
 21
-18.999989
 31
0.0
  0
LINE
  5
124
100
AcDbEntity
  8
Layer_1
 62
7
100
AcDbLine
 10
0.000027
 20
-18.999989
 30
0.0
 11
-0.583844
 21
-18.882105
 31
0.0
  0
LINE
  5
125
100
AcDbEntity
  8
Layer_1
 62
7
100
AcDbLine
 10
-0.583844
 20
-18.882105
 30
0.0
 11
-1.060637
 21
-18.560654
 31
0.0
  0
LINE
  5
126
100
AcDbEntity
  8
Layer_1
 62
7
100
AcDbLine
 10
-1.060637
 20
-18.560654
 30
0.0
 11
-1.382099
 21
-18.083839
 31
0.0
  0
LINE
  5
127
100
AcDbEntity
  8
Layer_1
 62
7
100
AcDbLine
 10
-1.382099
 20
-18.083839
 30
0.0
 11
-1.499973
 21
-17.499978
 31
0.0
  0
LINE
  5
128
100
AcDbEntity
  8
Layer_1
 62
7
100
AcDbLine
 10
-1.499973
 20
-17.499978
 30
0.0
 11
-1.382099
 21
-16.916116
 31
0.0
  0
LINE
  5
129
100
AcDbEntity
  8
Layer_1
 62
7
100
AcDbLine
 10
-1.382099
 20
-16.916116
 30
0.0
 11
-1.060637
 21
-16.439302
 31
0.0
  0
LINE
  5
12a
100
AcDbEntity
  8
Layer_1
 62
7
100
AcDbLine
 10
-1.060637
 20
-16.439302
 30
0.0
 11
-0.583844
 21
-16.117851
 31
0.0
  0
LINE
  5
12b
100
AcDbEntity
  8
Layer_1
 62
7
100
AcDbLine
 10
-0.583844
 20
-16.117851
 30
0.0
 11
0.000027
 21
-15.999967
 31
0.0
  0
LINE
  5
12c
100
AcDbEntity
  8
Layer_1
 62
7
100
AcDbLine
 10
0.000027
 20
-15.999967
 30
0.0
 11
0.583897
 21
-16.117851
 31
0.0
  0
LINE
  5
12d
100
AcDbEntity
  8
Layer_1
 62
7
100
AcDbLine
 10
0.583897
 20
-16.117851
 30
0.0
 11
1.060691
 21
-16.439302
 31
0.0
  0
LINE
  5
12e
100
AcDbEntity
  8
Layer_1
 62
7
100
AcDbLine
 10
1.060691
 20
-16.439302
 30
0.0
 11
1.382152
 21
-16.916116
 31
0.0
  0
LINE
  5
12f
100
AcDbEntity
  8
Layer_1
 62
7
100
AcDbLine
 10
1.382152
 20
-16.916116
 30
0.0
 11
1.500027
 21
-17.499978
 31
0.0
  0
LINE
  5
130
100
AcDbEntity
  8
Layer_1
 62
7
100
AcDbLine
 10
-45.900004
 20
7.300018
 30
0.0
 11
-46.017886
 21
6.716156
 31
0.0
  0
LINE
  5
131
100
AcDbEntity
  8
Layer_1
 62
7
100
AcDbLine
 10
-46.017886
 20
6.716156
 30
0.0
 11
-46.339351
 21
6.239370
 31
0.0
  0
LINE
  5
132
100
AcDbEntity
  8
Layer_1
 62
7
100
AcDbLine
 10
-46.339351
 20
6.239370
 30
0.0
 11
-46.816140
 21
5.917919
 31
0.0
  0
LINE
  5
133
100
AcDbEntity
  8
Layer_1
 62
7
100
AcDbLine
 10
-46.816140
 20
5.917919
 30
0.0
 11
-47.400004
 21
5.800035
 31
0.0
  0
LINE
  5
134
100
AcDbEntity
  8
Layer_1
 62
7
100
AcDbLine
 10
-47.400004
 20
5.800035
 30
0.0
 11
-47.983868
 21
5.917919
 31
0.0
  0
LINE
  5
135
100
AcDbEntity
  8
Layer_1
 62
7
100
AcDbLine
 10
-47.983868
 20
5.917919
 30
0.0
 11
-48.460657
 21
6.239370
 31
0.0
  0
LINE
  5
136
100
AcDbEntity
  8
Layer_1
 62
7
100
AcDbLine
 10
-48.460657
 20
6.239370
 30
0.0
 11
-48.782122
 21
6.716156
 31
0.0
  0
LINE
  5
137
100
AcDbEntity
  8
Layer_1
 62
7
100
AcDbLine
 10
-48.782122
 20
6.716156
 30
0.0
 11
-48.900004
 21
7.300018
 31
0.0
  0
LINE
  5
138
100
AcDbEntity
  8
Layer_1
 62
7
100
AcDbLine
 10
-48.900004
 20
7.300018
 30
0.0
 11
-48.782131
 21
7.883879
 31
0.0
  0
LINE
  5
139
100
AcDbEntity
  8
Layer_1
 62
7
100
AcDbLine
 10
-48.782131
 20
7.883879
 30
0.0
 11
-48.460668
 21
8.360694
 31
0.0
  0
LINE
  5
13a
100
AcDbEntity
  8
Layer_1
 62
7
100
AcDbLine
 10
-48.460668
 20
8.360694
 30
0.0
 11
-47.983874
 21
8.682145
 31
0.0
  0
LINE
  5
13b
100
AcDbEntity
  8
Layer_1
 62
7
100
AcDbLine
 10
-47.983874
 20
8.682145
 30
0.0
 11
-47.400004
 21
8.800029
 31
0.0
  0
LINE
  5
13c
100
AcDbEntity
  8
Layer_1
 62
7
100
AcDbLine
 10
-47.400004
 20
8.800029
 30
0.0
 11
-46.816134
 21
8.682145
 31
0.0
  0
LINE
  5
13d
100
AcDbEntity
  8
Layer_1
 62
7
100
AcDbLine
 10
-46.816134
 20
8.682145
 30
0.0
 11
-46.339339
 21
8.360694
 31
0.0
  0
LINE
  5
13e
100
AcDbEntity
  8
Layer_1
 62
7
100
AcDbLine
 10
-46.339339
 20
8.360694
 30
0.0
 11
-46.017877
 21
7.883879
 31
0.0
  0
LINE
  5
13f
100
AcDbEntity
  8
Layer_1
 62
7
100
AcDbLine
 10
-46.017877
 20
7.883879
 30
0.0
 11
-45.900004
 21
7.300018
 31
0.0
  0
LINE
  5
140
100
AcDbEntity
  8
Layer_1
 62
7
100
AcDbLine
 10
-45.900004
 20
-17.499978
 30
0.0
 11
-46.017877
 21
-18.083839
 31
0.0
  0
LINE
  5
141
100
AcDbEntity
  8
Layer_1
 62
7
100
AcDbLine
 10
-46.017877
 20
-18.083839
 30
0.0
 11
-46.339339
 21
-18.560654
 31
0.0
  0
LINE
  5
142
100
AcDbEntity
  8
Layer_1
 62
7
100
AcDbLine
 10
-46.339339
 20
-18.560654
 30
0.0
 11
-46.816134
 21
-18.882105
 31
0.0
  0
LINE
  5
143
100
AcDbEntity
  8
Layer_1
 62
7
100
AcDbLine
 10
-46.816134
 20
-18.882105
 30
0.0
 11
-47.400004
 21
-18.999989
 31
0.0
  0
LINE
  5
144
100
AcDbEntity
  8
Layer_1
 62
7
100
AcDbLine
 10
-47.400004
 20
-18.999989
 30
0.0
 11
-47.983874
 21
-18.882105
 31
0.0
  0
LINE
  5
145
100
AcDbEntity
  8
Layer_1
 62
7
100
AcDbLine
 10
-47.983874
 20
-18.882105
 30
0.0
 11
-48.460668
 21
-18.560654
 31
0.0
  0
LINE
  5
146
100
AcDbEntity
  8
Layer_1
 62
7
100
AcDbLine
 10
-48.460668
 20
-18.560654
 30
0.0
 11
-48.782131
 21
-18.083839
 31
0.0
  0
LINE
  5
147
100
AcDbEntity
  8
Layer_1
 62
7
100
AcDbLine
 10
-48.782131
 20
-18.083839
 30
0.0
 11
-48.900004
 21
-17.499978
 31
0.0
  0
LINE
  5
148
100
AcDbEntity
  8
Layer_1
 62
7
100
AcDbLine
 10
-48.900004
 20
-17.499978
 30
0.0
 11
-48.782131
 21
-16.916116
 31
0.0
  0
LINE
  5
149
100
AcDbEntity
  8
Layer_1
 62
7
100
AcDbLine
 10
-48.782131
 20
-16.916116
 30
0.0
 11
-48.460668
 21
-16.439302
 31
0.0
  0
LINE
  5
14a
100
AcDbEntity
  8
Layer_1
 62
7
100
AcDbLine
 10
-48.460668
 20
-16.439302
 30
0.0
 11
-47.983874
 21
-16.117851
 31
0.0
  0
LINE
  5
14b
100
AcDbEntity
  8
Layer_1
 62
7
100
AcDbLine
 10
-47.983874
 20
-16.117851
 30
0.0
 11
-47.400004
 21
-15.999967
 31
0.0
  0
LINE
  5
14c
100
AcDbEntity
  8
Layer_1
 62
7
100
AcDbLine
 10
-47.400004
 20
-15.999967
 30
0.0
 11
-46.816134
 21
-16.117851
 31
0.0
  0
LINE
  5
14d
100
AcDbEntity
  8
Layer_1
 62
7
100
AcDbLine
 10
-46.816134
 20
-16.117851
 30
0.0
 11
-46.339339
 21
-16.439302
 31
0.0
  0
LINE
  5
14e
100
AcDbEntity
  8
Layer_1
 62
7
100
AcDbLine
 10
-46.339339
 20
-16.439302
 30
0.0
 11
-46.017877
 21
-16.916116
 31
0.0
  0
LINE
  5
14f
100
AcDbEntity
  8
Layer_1
 62
7
100
AcDbLine
 10
-46.017877
 20
-16.916116
 30
0.0
 11
-45.900004
 21
-17.499978
 31
0.0
  0
LINE
  5
150
100
AcDbEntity
  8
Layer_1
 62
7
100
AcDbLine
 10
48.900032
 20
7.300018
 30
0.0
 11
48.782151
 21
6.716156
 31
0.0
  0
LINE
  5
151
100
AcDbEntity
  8
Layer_1
 62
7
100
AcDbLine
 10
48.782151
 20
6.716156
 30
0.0
 11
48.460685
 21
6.239370
 31
0.0
  0
LINE
  5
152
100
AcDbEntity
  8
Layer_1
 62
7
100
AcDbLine
 10
48.460685
 20
6.239370
 30
0.0
 11
47.983896
 21
5.917919
 31
0.0
  0
LINE
  5
153
100
AcDbEntity
  8
Layer_1
 62
7
100
AcDbLine
 10
47.983896
 20
5.917919
 30
0.0
 11
47.400032
 21
5.800035
 31
0.0
  0
LINE
  5
154
100
AcDbEntity
  8
Layer_1
 62
7
100
AcDbLine
 10
47.400032
 20
5.800035
 30
0.0
 11
46.816168
 21
5.917919
 31
0.0
  0
LINE
  5
155
100
AcDbEntity
  8
Layer_1
 62
7
100
AcDbLine
 10
46.816168
 20
5.917919
 30
0.0
 11
46.339379
 21
6.239370
 31
0.0
  0
LINE
  5
156
100
AcDbEntity
  8
Layer_1
 62
7
100
AcDbLine
 10
46.339379
 20
6.239370
 30
0.0
 11
46.017914
 21
6.716156
 31
0.0
  0
LINE
  5
157
100
AcDbEntity
  8
Layer_1
 62
7
100
AcDbLine
 10
46.017914
 20
6.716156
 30
0.0
 11
45.900032
 21
7.300018
 31
0.0
  0
LINE
  5
158
100
AcDbEntity
  8
Layer_1
 62
7
100
AcDbLine
 10
45.900032
 20
7.300018
 30
0.0
 11
46.017905
 21
7.883879
 31
0.0
  0
LINE
  5
159
100
AcDbEntity
  8
Layer_1
 62
7
100
AcDbLine
 10
46.017905
 20
7.883879
 30
0.0
 11
46.339368
 21
8.360694
 31
0.0
  0
LINE
  5
15a
100
AcDbEntity
  8
Layer_1
 62
7
100
AcDbLine
 10
46.339368
 20
8.360694
 30
0.0
 11
46.816162
 21
8.682145
 31
0.0
  0
LINE
  5
15b
100
AcDbEntity
  8
Layer_1
 62
7
100
AcDbLine
 10
46.816162
 20
8.682145
 30
0.0
 11
47.400032
 21
8.800029
 31
0.0
  0
LINE
  5
15c
100
AcDbEntity
  8
Layer_1
 62
7
100
AcDbLine
 10
47.400032
 20
8.800029
 30
0.0
 11
47.983902
 21
8.682145
 31
0.0
  0
LINE
  5
15d
100
AcDbEntity
  8
Layer_1
 62
7
100
AcDbLine
 10
47.983902
 20
8.682145
 30
0.0
 11
48.460697
 21
8.360694
 31
0.0
  0
LINE
  5
15e
100
AcDbEntity
  8
Layer_1
 62
7
100
AcDbLine
 10
48.460697
 20
8.360694
 30
0.0
 11
48.782159
 21
7.883879
 31
0.0
  0
LINE
  5
15f
100
AcDbEntity
  8
Layer_1
 62
7
100
AcDbLine
 10
48.782159
 20
7.883879
 30
0.0
 11
48.900032
 21
7.300018
 31
0.0
  0
LINE
  5
160
100
AcDbEntity
  8
Layer_1
 62
7
100
AcDbLine
 10
48.900032
 20
-17.499978
 30
0.0
 11
48.782159
 21
-18.083839
 31
0.0
  0
LINE
  5
161
100
AcDbEntity
  8
Layer_1
 62
7
100
AcDbLine
 10
48.782159
 20
-18.083839
 30
0.0
 11
48.460697
 21
-18.560654
 31
0.0
  0
LINE
  5
162
100
AcDbEntity
  8
Layer_1
 62
7
100
AcDbLine
 10
48.460697
 20
-18.560654
 30
0.0
 11
47.983902
 21
-18.882105
 31
0.0
  0
LINE
  5
163
100
AcDbEntity
  8
Layer_1
 62
7
100
AcDbLine
 10
47.983902
 20
-18.882105
 30
0.0
 11
47.400032
 21
-18.999989
 31
0.0
  0
LINE
  5
164
100
AcDbEntity
  8
Layer_1
 62
7
100
AcDbLine
 10
47.400032
 20
-18.999989
 30
0.0
 11
46.816162
 21
-18.882105
 31
0.0
  0
LINE
  5
165
100
AcDbEntity
  8
Layer_1
 62
7
100
AcDbLine
 10
46.816162
 20
-18.882105
 30
0.0
 11
46.339368
 21
-18.560654
 31
0.0
  0
LINE
  5
166
100
AcDbEntity
  8
Layer_1
 62
7
100
AcDbLine
 10
46.339368
 20
-18.560654
 30
0.0
 11
46.017905
 21
-18.083839
 31
0.0
  0
LINE
  5
167
100
AcDbEntity
  8
Layer_1
 62
7
100
AcDbLine
 10
46.017905
 20
-18.083839
 30
0.0
 11
45.900032
 21
-17.499978
 31
0.0
  0
LINE
  5
168
100
AcDbEntity
  8
Layer_1
 62
7
100
AcDbLine
 10
45.900032
 20
-17.499978
 30
0.0
 11
46.017905
 21
-16.916116
 31
0.0
  0
LINE
  5
169
100
AcDbEntity
  8
Layer_1
 62
7
100
AcDbLine
 10
46.017905
 20
-16.916116
 30
0.0
 11
46.339368
 21
-16.439302
 31
0.0
  0
LINE
  5
16a
100
AcDbEntity
  8
Layer_1
 62
7
100
AcDbLine
 10
46.339368
 20
-16.439302
 30
0.0
 11
46.816162
 21
-16.117851
 31
0.0
  0
LINE
  5
16b
100
AcDbEntity
  8
Layer_1
 62
7
100
AcDbLine
 10
46.816162
 20
-16.117851
 30
0.0
 11
47.400032
 21
-15.999967
 31
0.0
  0
LINE
  5
16c
100
AcDbEntity
  8
Layer_1
 62
7
100
AcDbLine
 10
47.400032
 20
-15.999967
 30
0.0
 11
47.983902
 21
-16.117851
 31
0.0
  0
LINE
  5
16d
100
AcDbEntity
  8
Layer_1
 62
7
100
AcDbLine
 10
47.983902
 20
-16.117851
 30
0.0
 11
48.460697
 21
-16.439302
 31
0.0
  0
LINE
  5
16e
100
AcDbEntity
  8
Layer_1
 62
7
100
AcDbLine
 10
48.460697
 20
-16.439302
 30
0.0
 11
48.782159
 21
-16.916116
 31
0.0
  0
LINE
  5
16f
100
AcDbEntity
  8
Layer_1
 62
7
100
AcDbLine
 10
48.782159
 20
-16.916116
 30
0.0
 11
48.900032
 21
-17.499978
 31
0.0
  0
LINE
  5
170
100
AcDbEntity
  8
Layer_1
 62
7
100
AcDbLine
 10
-36.489183
 20
-4.920027
 30
0.0
 11
-36.442193
 21
-5.513814
 31
0.0
  0
LINE
  5
171
100
AcDbEntity
  8
Layer_1
 62
7
100
AcDbLine
 10
-36.442193
 20
-5.513814
 30
0.0
 11
-36.180248
 21
-6.025720
 31
0.0
  0
LINE
  5
172
100
AcDbEntity
  8
Layer_1
 62
7
100
AcDbLine
 10
-36.180248
 20
-6.025720
 30
0.0
 11
-35.745463
 21
-6.402047
 31
0.0
  0
LINE
  5
173
100
AcDbEntity
  8
Layer_1
 62
7
100
AcDbLine
 10
-35.745463
 20
-6.402047
 30
0.0
 11
-35.179957
 21
-6.589122
 31
0.0
  0
LINE
  5
174
100
AcDbEntity
  8
Layer_1
 62
7
100
AcDbLine
 10
-35.179957
 20
-6.589122
 30
0.0
 11
-34.586168
 21
-6.542131
 31
0.0
  0
LINE
  5
175
100
AcDbEntity
  8
Layer_1
 62
7
100
AcDbLine
 10
-34.586168
 20
-6.542131
 30
0.0
 11
-34.074259
 21
-6.280198
 31
0.0
  0
LINE
  5
176
100
AcDbEntity
  8
Layer_1
 62
7
100
AcDbLine
 10
-34.074259
 20
-6.280198
 30
0.0
 11
-33.697920
 21
-5.845419
 31
0.0
  0
LINE
  5
177
100
AcDbEntity
  8
Layer_1
 62
7
100
AcDbLine
 10
-33.697920
 20
-5.845419
 30
0.0
 11
-33.510847
 21
-5.279916
 31
0.0
  0
LINE
  5
178
100
AcDbEntity
  8
Layer_1
 62
7
100
AcDbLine
 10
-33.510847
 20
-5.279916
 30
0.0
 11
-33.557827
 21
-4.686130
 31
0.0
  0
LINE
  5
179
100
AcDbEntity
  8
Layer_1
 62
7
100
AcDbLine
 10
-33.557827
 20
-4.686130
 30
0.0
 11
-33.819768
 21
-4.174196
 31
0.0
  0
LINE
  5
17a
100
AcDbEntity
  8
Layer_1
 62
7
100
AcDbLine
 10
-33.819768
 20
-4.174196
 30
0.0
 11
-34.254557
 21
-3.797868
 31
0.0
  0
LINE
  5
17b
100
AcDbEntity
  8
Layer_1
 62
7
100
AcDbLine
 10
-34.254557
 20
-3.797868
 30
0.0
 11
-34.820070
 21
-3.610793
 31
0.0
  0
LINE
  5
17c
100
AcDbEntity
  8
Layer_1
 62
7
100
AcDbLine
 10
-34.820070
 20
-3.610793
 30
0.0
 11
-35.413866
 21
-3.657783
 31
0.0
  0
LINE
  5
17d
100
AcDbEntity
  8
Layer_1
 62
7
100
AcDbLine
 10
-35.413866
 20
-3.657783
 30
0.0
 11
-35.925779
 21
-3.919715
 31
0.0
  0
LINE
  5
17e
100
AcDbEntity
  8
Layer_1
 62
7
100
AcDbLine
 10
-35.925779
 20
-3.919715
 30
0.0
 11
-36.302119
 21
-4.354523
 31
0.0
  0
LINE
  5
17f
100
AcDbEntity
  8
Layer_1
 62
7
100
AcDbLine
 10
-36.302119
 20
-4.354523
 30
0.0
 11
-36.489183
 21
-4.920027
 31
0.0
  0
LINE
  5
180
100
AcDbEntity
  8
Layer_1
 62
7
100
AcDbLine
 10
33.510840
 20
-4.920015
 30
0.0
 11
33.557820
 21
-5.513800
 31
0.0
  0
LINE
  5
181
100
AcDbEntity
  8
Layer_1
 62
7
100
AcDbLine
 10
33.557820
 20
-5.513800
 30
0.0
 11
33.819761
 21
-6.025735
 31
0.0
  0
LINE
  5
182
100
AcDbEntity
  8
Layer_1
 62
7
100
AcDbLine
 10
33.819761
 20
-6.025735
 30
0.0
 11
34.254550
 21
-6.402062
 31
0.0
  0
LINE
  5
183
100
AcDbEntity
  8
Layer_1
 62
7
100
AcDbLine
 10
34.254550
 20
-6.402062
 30
0.0
 11
34.820062
 21
-6.589138
 31
0.0
  0
LINE
  5
184
100
AcDbEntity
  8
Layer_1
 62
7
100
AcDbLine
 10
34.820062
 20
-6.589138
 30
0.0
 11
35.413857
 21
-6.542148
 31
0.0
  0
LINE
  5
185
100
AcDbEntity
  8
Layer_1
 62
7
100
AcDbLine
 10
35.413857
 20
-6.542148
 30
0.0
 11
35.925770
 21
-6.280215
 31
0.0
  0
LINE
  5
186
100
AcDbEntity
  8
Layer_1
 62
7
100
AcDbLine
 10
35.925770
 20
-6.280215
 30
0.0
 11
36.302111
 21
-5.845408
 31
0.0
  0
LINE
  5
187
100
AcDbEntity
  8
Layer_1
 62
7
100
AcDbLine
 10
36.302111
 20
-5.845408
 30
0.0
 11
36.489175
 21
-5.279903
 31
0.0
  0
LINE
  5
188
100
AcDbEntity
  8
Layer_1
 62
7
100
AcDbLine
 10
36.489175
 20
-5.279903
 30
0.0
 11
36.442186
 21
-4.686117
 31
0.0
  0
LINE
  5
189
100
AcDbEntity
  8
Layer_1
 62
7
100
AcDbLine
 10
36.442186
 20
-4.686117
 30
0.0
 11
36.180242
 21
-4.174210
 31
0.0
  0
LINE
  5
18a
100
AcDbEntity
  8
Layer_1
 62
7
100
AcDbLine
 10
36.180242
 20
-4.174210
 30
0.0
 11
35.745455
 21
-3.797884
 31
0.0
  0
LINE
  5
18b
100
AcDbEntity
  8
Layer_1
 62
7
100
AcDbLine
 10
35.745455
 20
-3.797884
 30
0.0
 11
35.179949
 21
-3.610809
 31
0.0
  0
LINE
  5
18c
100
AcDbEntity
  8
Layer_1
 62
7
100
AcDbLine
 10
35.179949
 20
-3.610809
 30
0.0
 11
34.586160
 21
-3.657800
 31
0.0
  0
LINE
  5
18d
100
AcDbEntity
  8
Layer_1
 62
7
100
AcDbLine
 10
34.586160
 20
-3.657800
 30
0.0
 11
34.074249
 21
-3.919732
 31
0.0
  0
LINE
  5
18e
100
AcDbEntity
  8
Layer_1
 62
7
100
AcDbLine
 10
34.074249
 20
-3.919732
 30
0.0
 11
33.697912
 21
-4.354512
 31
0.0
  0
LINE
  5
18f
100
AcDbEntity
  8
Layer_1
 62
7
100
AcDbLine
 10
33.697912
 20
-4.354512
 30
0.0
 11
33.510840
 21
-4.920015
 31
0.0
  0
LINE
  5
190
100
AcDbEntity
  8
Layer_1
 62
7
100
AcDbLine
 10
16.871979
 20
-4.864961
 30
0.0
 11
16.887080
 21
-5.261768
 31
0.0
  0
LINE
  5
191
100
AcDbEntity
  8
Layer_1
 62
7
100
AcDbLine
 10
16.887080
 20
-5.261768
 30
0.0
 11
16.753484
 21
-5.621100
 31
0.0
  0
LINE
  5
192
100
AcDbEntity
  8
Layer_1
 62
7
100
AcDbLine
 10
16.753484
 20
-5.621100
 30
0.0
 11
16.494896
 21
-5.904125
 31
0.0
  0
LINE
  5
193
100
AcDbEntity
  8
Layer_1
 62
7
100
AcDbLine
 10
16.494896
 20
-5.904125
 30
0.0
 11
16.135023
 21
-6.071980
 31
0.0
  0
LINE
  5
194
100
AcDbEntity
  8
Layer_1
 62
7
100
AcDbLine
 10
16.135023
 20
-6.071980
 30
0.0
 11
15.738210
 21
-6.087068
 31
0.0
  0
LINE
  5
195
100
AcDbEntity
  8
Layer_1
 62
7
100
AcDbLine
 10
15.738210
 20
-6.087068
 30
0.0
 11
15.378887
 21
-5.953487
 31
0.0
  0
LINE
  5
196
100
AcDbEntity
  8
Layer_1
 62
7
100
AcDbLine
 10
15.378887
 20
-5.953487
 30
0.0
 11
15.095873
 21
-5.694894
 31
0.0
  0
LINE
  5
197
100
AcDbEntity
  8
Layer_1
 62
7
100
AcDbLine
 10
15.095873
 20
-5.694894
 30
0.0
 11
14.928005
 21
-5.335027
 31
0.0
  0
LINE
  5
198
100
AcDbEntity
  8
Layer_1
 62
7
100
AcDbLine
 10
14.928005
 20
-5.335027
 30
0.0
 11
14.912904
 21
-4.938220
 31
0.0
  0
LINE
  5
199
100
AcDbEntity
  8
Layer_1
 62
7
100
AcDbLine
 10
14.912904
 20
-4.938220
 30
0.0
 11
15.046499
 21
-4.578888
 31
0.0
  0
LINE
  5
19a
100
AcDbEntity
  8
Layer_1
 62
7
100
AcDbLine
 10
15.046499
 20
-4.578888
 30
0.0
 11
15.305091
 21
-4.295891
 31
0.0
  0
LINE
  5
19b
100
AcDbEntity
  8
Layer_1
 62
7
100
AcDbLine
 10
15.305091
 20
-4.295891
 30
0.0
 11
15.664958
 21
-4.128009
 31
0.0
  0
LINE
  5
19c
100
AcDbEntity
  8
Layer_1
 62
7
100
AcDbLine
 10
15.664958
 20
-4.128009
 30
0.0
 11
16.061767
 21
-4.112893
 31
0.0
  0
LINE
  5
19d
100
AcDbEntity
  8
Layer_1
 62
7
100
AcDbLine
 10
16.061767
 20
-4.112893
 30
0.0
 11
16.421096
 21
-4.246501
 31
0.0
  0
LINE
  5
19e
100
AcDbEntity
  8
Layer_1
 62
7
100
AcDbLine
 10
16.421096
 20
-4.246501
 30
0.0
 11
16.704111
 21
-4.505094
 31
0.0
  0
LINE
  5
19f
100
AcDbEntity
  8
Layer_1
 62
7
100
AcDbLine
 10
16.704111
 20
-4.505094
 30
0.0
 11
16.871979
 21
-4.864961
 31
0.0
  0
LINE
  5
1a0
100
AcDbEntity
  8
Layer_1
 62
7
100
AcDbLine
 10
-14.928015
 20
-4.864953
 30
0.0
 11
-14.912914
 21
-5.261760
 31
0.0
  0
LINE
  5
1a1
100
AcDbEntity
  8
Layer_1
 62
7
100
AcDbLine
 10
-14.912914
 20
-5.261760
 30
0.0
 11
-15.046510
 21
-5.621092
 31
0.0
  0
LINE
  5
1a2
100
AcDbEntity
  8
Layer_1
 62
7
100
AcDbLine
 10
-15.046510
 20
-5.621092
 30
0.0
 11
-15.305098
 21
-5.904117
 31
0.0
  0
LINE
  5
1a3
100
AcDbEntity
  8
Layer_1
 62
7
100
AcDbLine
 10
-15.305098
 20
-5.904117
 30
0.0
 11
-15.664971
 21
-6.071971
 31
0.0
  0
LINE
  5
1a4
100
AcDbEntity
  8
Layer_1
 62
7
100
AcDbLine
 10
-15.664971
 20
-6.071971
 30
0.0
 11
-16.061784
 21
-6.087060
 31
0.0
  0
LINE
  5
1a5
100
AcDbEntity
  8
Layer_1
 62
7
100
AcDbLine
 10
-16.061784
 20
-6.087060
 30
0.0
 11
-16.421107
 21
-5.953479
 31
0.0
  0
LINE
  5
1a6
100
AcDbEntity
  8
Layer_1
 62
7
100
AcDbLine
 10
-16.421107
 20
-5.953479
 30
0.0
 11
-16.704121
 21
-5.694886
 31
0.0
  0
LINE
  5
1a7
100
AcDbEntity
  8
Layer_1
 62
7
100
AcDbLine
 10
-16.704121
 20
-5.694886
 30
0.0
 11
-16.871989
 21
-5.335019
 31
0.0
  0
LINE
  5
1a8
100
AcDbEntity
  8
Layer_1
 62
7
100
AcDbLine
 10
-16.871989
 20
-5.335019
 30
0.0
 11
-16.887090
 21
-4.938212
 31
0.0
  0
LINE
  5
1a9
100
AcDbEntity
  8
Layer_1
 62
7
100
AcDbLine
 10
-16.887090
 20
-4.938212
 30
0.0
 11
-16.753494
 21
-4.578879
 31
0.0
  0
LINE
  5
1aa
100
AcDbEntity
  8
Layer_1
 62
7
100
AcDbLine
 10
-16.753494
 20
-4.578879
 30
0.0
 11
-16.494903
 21
-4.295883
 31
0.0
  0
LINE
  5
1ab
100
AcDbEntity
  8
Layer_1
 62
7
100
AcDbLine
 10
-16.494903
 20
-4.295883
 30
0.0
 11
-16.135036
 21
-4.128001
 31
0.0
  0
LINE
  5
1ac
100
AcDbEntity
  8
Layer_1
 62
7
100
AcDbLine
 10
-16.135036
 20
-4.128001
 30
0.0
 11
-15.738227
 21
-4.112884
 31
0.0
  0
LINE
  5
1ad
100
AcDbEntity
  8
Layer_1
 62
7
100
AcDbLine
 10
-15.738227
 20
-4.112884
 30
0.0
 11
-15.378898
 21
-4.246492
 31
0.0
  0
LINE
  5
1ae
100
AcDbEntity
  8
Layer_1
 62
7
100
AcDbLine
 10
-15.378898
 20
-4.246492
 30
0.0
 11
-15.095883
 21
-4.505085
 31
0.0
  0
LINE
  5
1af
100
AcDbEntity
  8
Layer_1
 62
7
100
AcDbLine
 10
-15.095883
 20
-4.505085
 30
0.0
 11
-14.928015
 21
-4.864953
 31
0.0
  0
ENDSEC
  0
SECTION
  2
OBJECTS
  0
DICTIONARY
  5
C
330
0
100
AcDbDictionary
  3
ACAD_GROUP
350
D
  3
ACAD_MLINESTYLE
350
17
  0
DICTIONARY
  5
D
330
C
100
AcDbDictionary
  0
DICTIONARY
  5
1A
330
C
100
AcDbDictionary
  0
DICTIONARY
  5
17
330
C
100
AcDbDictionary
  3
STANDARD
350
18
  0
DICTIONARY
  5
19
330
C
100
AcDbDictionary
  0
ENDSEC
  0
EOF
