<?xml version="1.0" encoding="UTF-8" standalone="no"?>
<!-- Created with Inkscape (http://www.inkscape.org/) -->

<svg
   xmlns:dc="http://purl.org/dc/elements/1.1/"
   xmlns:cc="http://creativecommons.org/ns#"
   xmlns:rdf="http://www.w3.org/1999/02/22-rdf-syntax-ns#"
   xmlns:svg="http://www.w3.org/2000/svg"
   xmlns="http://www.w3.org/2000/svg"
   xmlns:sodipodi="http://sodipodi.sourceforge.net/DTD/sodipodi-0.dtd"
   xmlns:inkscape="http://www.inkscape.org/namespaces/inkscape"
   width="210mm"
   height="297mm"
   viewBox="0 0 744.09448819 1052.3622047"
   id="svg4979"
   version="1.1"
   inkscape:version="0.91 r13725"
   sodipodi:docname="box-motor-inside-43d.svg">
  <defs
     id="defs4981" />
  <sodipodi:namedview
     id="base"
     pagecolor="#ffffff"
     bordercolor="#666666"
     borderopacity="1.0"
     inkscape:pageopacity="0.0"
     inkscape:pageshadow="2"
     inkscape:zoom="0.98994949"
     inkscape:cx="0.024112853"
     inkscape:cy="143.26113"
     inkscape:document-units="mm"
     inkscape:current-layer="layer1"
     showgrid="true"
     inkscape:window-width="1366"
     inkscape:window-height="705"
     inkscape:window-x="-8"
     inkscape:window-y="-8"
     inkscape:window-maximized="1">
    <inkscape:grid
       type="xygrid"
       id="grid6193"
       units="mm"
       spacingx="3.5433071"
       spacingy="3.5433072" />
  </sodipodi:namedview>
  <metadata
     id="metadata4984">
    <rdf:RDF>
      <cc:Work
         rdf:about="">
        <dc:format>image/svg+xml</dc:format>
        <dc:type
           rdf:resource="http://purl.org/dc/dcmitype/StillImage" />
        <dc:title />
      </cc:Work>
    </rdf:RDF>
  </metadata>
  <g
     inkscape:label="Layer 1"
     inkscape:groupmode="layer"
     id="layer1">
    <path
       style="display:inline;fill:#d35f5f;fill-opacity:1;stroke:none;stroke-width:1.77165353;stroke-linejoin:round;stroke-miterlimit:4;stroke-dasharray:none;stroke-dashoffset:8;stroke-opacity:1"
       d="m -165.95466,1126.7717 82.977326,0 82.977323291339,0 82.977329708661,0 82.977331,0 5.61542,-1.1281 4.57595,-3.0802 3.08018,-4.576 1.12812,-5.6154 0,-20.9695 0,-20.9695 0,-20.9694 0,-20.9695 -1.12812,-5.6154 -3.08018,-4.576 -4.57595,-3.0801 -5.61542,-1.1282 -82.977331,0 -82.977329708661,0 -82.977323291339,0 -82.977326,0 -5.61542,1.1282 -4.57595,3.0801 -3.08018,4.576 -1.12812,5.6154 0,20.9695 0,20.9694 0,20.9695 0,20.9695 1.12812,5.6154 3.08018,4.576 4.57595,3.0802 z"
       id="rect4018-8"
       inkscape:connector-curvature="0"
       sodipodi:nodetypes="ccccccccccccccccccccccccccccccccc" />
    <path
       style="display:inline;opacity:1;fill:#2b1100;fill-opacity:1;stroke:none;stroke-width:1.77165353;stroke-linejoin:round;stroke-miterlimit:4;stroke-dasharray:none;stroke-dashoffset:8;stroke-opacity:1"
       d="m 7.0866493,1112.5985 -0.5569,2.7584 -1.51872,2.2526 -2.25256,1.5187 -2.758430008661,0.5569 -2.758429991339,-0.5569 -2.25256,-1.5187 -1.51872,-2.2526 -0.5569,-2.7584 0.5569,-2.7584 1.51872,-2.2526 2.25256,-1.5187 2.758429991339,-0.5569 2.758430008661,0.5569 2.25256,1.5187 1.51872,2.2526 z"
       id="path5259-61-5-6-6"
       inkscape:connector-curvature="0"
       sodipodi:nodetypes="ccccccccccccccccc" />
    <path
       style="display:inline;opacity:1;fill:#2b1100;fill-opacity:1;stroke:none;stroke-width:1.77165353;stroke-linejoin:round;stroke-miterlimit:4;stroke-dasharray:none;stroke-dashoffset:8;stroke-opacity:1"
       d="m -159.44882,1027.9134 -0.5569,2.7584 -1.51872,2.2526 -2.25256,1.5187 -2.75843,0.5569 -2.75843,-0.5569 -2.25256,-1.5187 -1.51872,-2.2526 -0.5569,-2.7584 0.5569,-2.7585 1.51872,-2.2525 2.25256,-1.5188 2.75843,-0.5569 2.75843,0.5569 2.25257,1.5188 1.51871,2.2525 z"
       id="path5259-61-5-5-6"
       inkscape:connector-curvature="0"
       sodipodi:nodetypes="ccccccccccccccccc" />
    <path
       style="display:inline;opacity:1;fill:#2b1100;fill-opacity:1;stroke:none;stroke-width:1.77165353;stroke-linejoin:round;stroke-miterlimit:4;stroke-dasharray:none;stroke-dashoffset:8;stroke-opacity:1"
       d="m -159.44882,1112.9528 -0.5569,2.7584 -1.51872,2.2526 -2.25256,1.5187 -2.75843,0.5569 -2.75843,-0.5569 -2.25256,-1.5187 -1.51872,-2.2526 -0.5569,-2.7584 0.55689,-2.7584 1.51873,-2.2526 2.25256,-1.5187 2.75843,-0.5569 2.75843,0.5569 2.25256,1.5187 1.51873,2.2526 z"
       id="path5259-61-5-54-4"
       inkscape:connector-curvature="0"
       sodipodi:nodetypes="ccccccccccccccccc" />
    <path
       style="display:inline;opacity:1;fill:#2b1100;fill-opacity:1;stroke:none;stroke-width:1.77165353;stroke-linejoin:round;stroke-miterlimit:4;stroke-dasharray:none;stroke-dashoffset:8;stroke-opacity:1"
       d="m 173.62205,1027.9134 -0.5569,2.7584 -1.51872,2.2526 -2.25256,1.5187 -2.75843,0.5569 -2.75843,-0.5569 -2.25256,-1.5187 -1.51872,-2.2526 -0.5569,-2.7584 0.5569,-2.7585 1.51872,-2.2525 2.25256,-1.5188 2.75843,-0.5569 2.75843,0.5569 2.25256,1.5188 1.51872,2.2525 z"
       id="path5259-61-5-41-1"
       inkscape:connector-curvature="0"
       sodipodi:nodetypes="ccccccccccccccccc" />
    <path
       style="display:inline;opacity:1;fill:#2b1100;fill-opacity:1;stroke:none;stroke-width:1.77165353;stroke-linejoin:round;stroke-miterlimit:4;stroke-dasharray:none;stroke-dashoffset:8;stroke-opacity:1"
       d="m 173.62205,1112.9528 -0.5569,2.7584 -1.51872,2.2526 -2.25256,1.5187 -2.75843,0.5569 -2.75843,-0.5569 -2.25256,-1.5187 -1.51872,-2.2526 -0.5569,-2.7584 0.5569,-2.7584 1.51872,-2.2526 2.25256,-1.5187 2.75843,-0.5569 2.75843,0.5569 2.25256,1.5187 1.51872,2.2526 z"
       id="path5259-61-5-68-3"
       inkscape:connector-curvature="0"
       sodipodi:nodetypes="ccccccccccccccccc" />
    <path
       style="display:inline;fill:#002255;fill-opacity:1;stroke:none;stroke-width:1"
       d="m -129.29233,1069.7954 0.16648,2.104 0.92815,1.8139 1.54058,1.3335 2.00377,0.6628 2.10399,-0.1665 1.81386,-0.9281 1.33348,-1.5406 0.66285,-2.0038 -0.16649,-2.104 -0.92814,-1.8138 -1.54058,-1.3335 -2.00377,-0.6629 -2.10399,0.1665 -1.81386,0.9282 -1.33348,1.5405 z"
       id="path12890-1-8-3"
       inkscape:connector-curvature="0"
       sodipodi:nodetypes="ccccccccccccccccc" />
    <path
       style="display:inline;fill:#002255;fill-opacity:1;stroke:none;stroke-width:1"
       d="m 118.73916,1069.7954 0.16648,2.104 0.92815,1.8138 1.54058,1.3335 2.00377,0.6629 2.10399,-0.1665 1.81386,-0.9282 1.33348,-1.5405 0.66285,-2.0038 -0.16649,-2.104 -0.92814,-1.8139 -1.54058,-1.3334 -2.00377,-0.6629 -2.10399,0.1665 -1.81386,0.9281 -1.33348,1.5406 z"
       id="path12890-1-8-2-2"
       inkscape:connector-curvature="0"
       sodipodi:nodetypes="ccccccccccccccccc" />
    <path
       style="display:inline;fill:#002255;fill-opacity:1;stroke:none;stroke-width:1"
       d="m 59.782669,1069.6001 0.0535,1.406 -0.47337,1.2733 -0.91624,1.0028 -1.27515,0.5948 -1.40601,0.053 -1.27321,-0.4734 -1.00281,-0.9163 -0.59481,-1.2751 -0.0535,-1.406 0.47337,-1.2732 0.91625,-1.0029 1.27515,-0.5947 1.40601,-0.054 1.27321,0.4734 1.00281,0.9163 z"
       id="path12644-11-0"
       inkscape:connector-curvature="0"
       sodipodi:nodetypes="ccccccccccccccccc" />
    <path
       style="display:inline;fill:#002255;fill-opacity:1;stroke:none;stroke-width:1"
       d="m -52.894621,1069.6001 0.0535,1.4061 -0.47338,1.2732 -0.91624,1.0028 -1.27514,0.5948 -1.40601,0.053 -1.27322,-0.4734 -1.0028,-0.9162 -0.59482,-1.2752 -0.0535,-1.406 0.47339,-1.2732 0.91625,-1.0028 1.27514,-0.5948 1.40603,-0.053 1.27321,0.4734 1.00281,0.9162 z"
       id="path12644-3-1"
       inkscape:connector-curvature="0"
       sodipodi:nodetypes="ccccccccccccccccc" />
    <path
       sodipodi:nodetypes="ccccccccccccccccccccccccc"
       inkscape:connector-curvature="0"
       id="rect6176-0-9"
       d="m -24.803241,1078.9371 12.4016,0 12.401600291339,0 12.401599708661,0 12.4016,0 6.14539,-7.2665 3.15575,-7.6818 1.16264,-6.8513 0.16609,-4.7751 -0.16609,-4.7752 -1.16264,-6.8513 -3.15575,-7.6819 -6.14539,-7.2666 -12.4016,0 -12.401599708661,0 -12.401600291339,0 -12.4016,0 -6.14539,7.2666 -3.15575,7.6819 -1.16264,6.8513 -0.16609,4.7752 0.16609,4.7751 1.16264,6.8513 3.15575,7.6818 z"
       style="display:inline;opacity:1;fill:#aa00d4;fill-opacity:1;stroke:none;stroke-width:1.77165353;stroke-linejoin:round;stroke-miterlimit:4;stroke-dasharray:none;stroke-dashoffset:8;stroke-opacity:1" />
  </g>
</svg>
