  0
SECTION
  2
HEADER
  9
$ACADVER
  1
AC1014
  9
$HANDSEED
  5
FFFF
  9
$MEASUREMENT
 70
     1
  0
ENDSEC
  0
SECTION
  2
TABLES
  0
TABLE
  2
VPORT
  5
8
330
0
100
AcDbSymbolTable
 70
     4
  0
VPORT
  5
2E
330
8
100
AcDbSymbolTableRecord
100
AcDbViewportTableRecord
  2
*ACTIVE
 70
     0
 10
0.0
 20
0.0
 11
1.0
 21
1.0
 12
210.0
 22
148.5
 13
0.0
 23
0.0
 14
10.0
 24
10.0
 15
10.0
 25
10.0
 16
0.0
 26
0.0
 36
1.0
 17
0.0
 27
0.0
 37
0.0
 40
341.0
 41
1.24
 42
50.0
 43
0.0
 44
0.0
 50
0.0
 51
0.0
 71
     0
 72
   100
 73
     1
 74
     3
 75
     0
 76
     0
 77
     0
 78
     0
  0
ENDTAB
  0
TABLE
  2
LTYPE
  5
5
330
0
100
AcDbSymbolTable
 70
     1
  0
LTYPE
  5
14
330
5
100
AcDbSymbolTableRecord
100
AcDbLinetypeTableRecord
  2
BYBLOCK
 70
     0
  3

 72
    65
 73
     0
 40
0.0
  0
LTYPE
  5
15
330
5
100
AcDbSymbolTableRecord
100
AcDbLinetypeTableRecord
  2
BYLAYER
 70
     0
  3

 72
    65
 73
     0
 40
0.0
  0
LTYPE
  5
16
330
5
100
AcDbSymbolTableRecord
100
AcDbLinetypeTableRecord
  2
CONTINUOUS
 70
     0
  3
Solid line
 72
    65
 73
     0
 40
0.0
  0
ENDTAB
  0
TABLE
  2
LAYER
  5
2
100
AcDbSymbolTable
 70
2
  0
LAYER
  5
50
100
AcDbSymbolTableRecord
100
AcDbLayerTableRecord
  2
0
 70
0
  6
CONTINUOUS
  0
LAYER
  5
51
100
AcDbSymbolTableRecord
100
AcDbLayerTableRecord
  2
Layer_1
 70
0
  6
CONTINUOUS
  0
ENDTAB
  0
TABLE
  2
STYLE
  5
3
330
0
100
AcDbSymbolTable
 70
     1
  0
STYLE
  5
11
330
3
100
AcDbSymbolTableRecord
100
AcDbTextStyleTableRecord
  2
STANDARD
 70
     0
 40
0.0
 41
1.0
 50
0.0
 71
     0
 42
2.5
  3
txt
  4

  0
ENDTAB
  0
TABLE
  2
VIEW
  5
6
330
0
100
AcDbSymbolTable
 70
     0
  0
ENDTAB
  0
TABLE
  2
UCS
  5
7
330
0
100
AcDbSymbolTable
 70
     0
  0
ENDTAB
  0
TABLE
  2
APPID
  5
9
330
0
100
AcDbSymbolTable
 70
     2
  0
APPID
  5
12
330
9
100
AcDbSymbolTableRecord
100
AcDbRegAppTableRecord
  2
ACAD
 70
     0
  0
ENDTAB
  0
TABLE
  2
DIMSTYLE
  5
A
330
0
100
AcDbSymbolTable
 70
     1
  0
DIMSTYLE
105
27
330
A
100
AcDbSymbolTableRecord
100
AcDbDimStyleTableRecord
  2
ISO-25
 70
     0
  3

  4

  5

  6

  7

 40
1.0
 41
2.5
 42
0.625
 43
3.75
 44
1.25
 45
0.0
 46
0.0
 47
0.0
 48
0.0
140
2.5
141
2.5
142
0.0
143
0.03937007874016
144
1.0
145
0.0
146
1.0
147
0.625
 71
     0
 72
     0
 73
     0
 74
     0
 75
     0
 76
     0
 77
     1
 78
     8
170
     0
171
     3
172
     1
173
     0
174
     0
175
     0
176
     0
177
     0
178
     0
270
     2
271
     2
272
     2
273
     2
274
     3
340
11
275
     0
280
     0
281
     0
282
     0
283
     0
284
     8
285
     0
286
     0
287
     3
288
     0
  0
ENDTAB
  0
TABLE
  2
BLOCK_RECORD
  5
1
330
0
100
AcDbSymbolTable
 70
     1
  0
BLOCK_RECORD
  5
1F
330
1
100
AcDbSymbolTableRecord
100
AcDbBlockTableRecord
  2
*MODEL_SPACE
  0
BLOCK_RECORD
  5
1B
330
1
100
AcDbSymbolTableRecord
100
AcDbBlockTableRecord
  2
*PAPER_SPACE
  0
ENDTAB
  0
ENDSEC
  0
SECTION
  2
BLOCKS
  0
BLOCK
  5
20
330
1F
100
AcDbEntity
  8
0
100
AcDbBlockBegin
  2
*MODEL_SPACE
 70
     0
 10
0.0
 20
0.0
 30
0.0
  3
*MODEL_SPACE
  1

  0
ENDBLK
  5
21
330
1F
100
AcDbEntity
  8
0
100
AcDbBlockEnd
  0
BLOCK
  5
1C
330
1B
100
AcDbEntity
 67
     1
  8
0
100
AcDbBlockBegin
  2
*PAPER_SPACE
  1

  0
ENDBLK
  5
1D
330
1B
100
AcDbEntity
 67
     1
  8
0
100
AcDbBlockEnd
  0
ENDSEC
  0
SECTION
  2
ENTITIES
  0
LINE
  5
100
100
AcDbEntity
  8
Layer_1
 62
7
100
AcDbLine
 10
-46.836093
 20
-21.000013
 30
0.0
 11
-23.418048
 21
-21.000013
 31
0.0
  0
LINE
  5
101
100
AcDbEntity
  8
Layer_1
 62
7
100
AcDbLine
 10
-23.418048
 20
-21.000013
 30
0.0
 11
-0.000003
 21
-21.000013
 31
0.0
  0
LINE
  5
102
100
AcDbEntity
  8
Layer_1
 62
7
100
AcDbLine
 10
-0.000003
 20
-21.000013
 30
0.0
 11
23.418043
 21
-21.000013
 31
0.0
  0
LINE
  5
103
100
AcDbEntity
  8
Layer_1
 62
7
100
AcDbLine
 10
23.418043
 20
-21.000013
 30
0.0
 11
46.836090
 21
-21.000013
 31
0.0
  0
LINE
  5
104
100
AcDbEntity
  8
Layer_1
 62
7
100
AcDbLine
 10
46.836090
 20
-21.000013
 30
0.0
 11
48.420886
 21
-20.681638
 31
0.0
  0
LINE
  5
105
100
AcDbEntity
  8
Layer_1
 62
7
100
AcDbLine
 10
48.420886
 20
-20.681638
 30
0.0
 11
49.712321
 21
-19.812337
 31
0.0
  0
LINE
  5
106
100
AcDbEntity
  8
Layer_1
 62
7
100
AcDbLine
 10
49.712321
 20
-19.812337
 30
0.0
 11
50.581616
 21
-18.520888
 31
0.0
  0
LINE
  5
107
100
AcDbEntity
  8
Layer_1
 62
7
100
AcDbLine
 10
50.581616
 20
-18.520888
 30
0.0
 11
50.899997
 21
-16.936098
 31
0.0
  0
LINE
  5
108
100
AcDbEntity
  8
Layer_1
 62
7
100
AcDbLine
 10
50.899997
 20
-16.936098
 30
0.0
 11
50.899997
 21
-11.018039
 31
0.0
  0
LINE
  5
109
100
AcDbEntity
  8
Layer_1
 62
7
100
AcDbLine
 10
50.899997
 20
-11.018039
 30
0.0
 11
50.899997
 21
-5.099980
 31
0.0
  0
LINE
  5
10a
100
AcDbEntity
  8
Layer_1
 62
7
100
AcDbLine
 10
50.899997
 20
-5.099980
 30
0.0
 11
50.899997
 21
0.818051
 31
0.0
  0
LINE
  5
10b
100
AcDbEntity
  8
Layer_1
 62
7
100
AcDbLine
 10
50.899997
 20
0.818051
 30
0.0
 11
50.899997
 21
6.736110
 31
0.0
  0
LINE
  5
10c
100
AcDbEntity
  8
Layer_1
 62
7
100
AcDbLine
 10
50.899997
 20
6.736110
 30
0.0
 11
50.581616
 21
8.320900
 31
0.0
  0
LINE
  5
10d
100
AcDbEntity
  8
Layer_1
 62
7
100
AcDbLine
 10
50.581616
 20
8.320900
 30
0.0
 11
49.712321
 21
9.612349
 31
0.0
  0
LINE
  5
10e
100
AcDbEntity
  8
Layer_1
 62
7
100
AcDbLine
 10
49.712321
 20
9.612349
 30
0.0
 11
48.420886
 21
10.481622
 31
0.0
  0
LINE
  5
10f
100
AcDbEntity
  8
Layer_1
 62
7
100
AcDbLine
 10
48.420886
 20
10.481622
 30
0.0
 11
46.836090
 21
10.800025
 31
0.0
  0
LINE
  5
110
100
AcDbEntity
  8
Layer_1
 62
7
100
AcDbLine
 10
46.836090
 20
10.800025
 30
0.0
 11
23.418043
 21
10.800025
 31
0.0
  0
LINE
  5
111
100
AcDbEntity
  8
Layer_1
 62
7
100
AcDbLine
 10
23.418043
 20
10.800025
 30
0.0
 11
-0.000003
 21
10.800025
 31
0.0
  0
LINE
  5
112
100
AcDbEntity
  8
Layer_1
 62
7
100
AcDbLine
 10
-0.000003
 20
10.800025
 30
0.0
 11
-23.418048
 21
10.800025
 31
0.0
  0
LINE
  5
113
100
AcDbEntity
  8
Layer_1
 62
7
100
AcDbLine
 10
-23.418048
 20
10.800025
 30
0.0
 11
-46.836093
 21
10.800025
 31
0.0
  0
LINE
  5
114
100
AcDbEntity
  8
Layer_1
 62
7
100
AcDbLine
 10
-46.836093
 20
10.800025
 30
0.0
 11
-48.420889
 21
10.481622
 31
0.0
  0
LINE
  5
115
100
AcDbEntity
  8
Layer_1
 62
7
100
AcDbLine
 10
-48.420889
 20
10.481622
 30
0.0
 11
-49.712324
 21
9.612349
 31
0.0
  0
LINE
  5
116
100
AcDbEntity
  8
Layer_1
 62
7
100
AcDbLine
 10
-49.712324
 20
9.612349
 30
0.0
 11
-50.581619
 21
8.320900
 31
0.0
  0
LINE
  5
117
100
AcDbEntity
  8
Layer_1
 62
7
100
AcDbLine
 10
-50.581619
 20
8.320900
 30
0.0
 11
-50.900000
 21
6.736110
 31
0.0
  0
LINE
  5
118
100
AcDbEntity
  8
Layer_1
 62
7
100
AcDbLine
 10
-50.900000
 20
6.736110
 30
0.0
 11
-50.900000
 21
0.818051
 31
0.0
  0
LINE
  5
119
100
AcDbEntity
  8
Layer_1
 62
7
100
AcDbLine
 10
-50.900000
 20
0.818051
 30
0.0
 11
-50.900000
 21
-5.099980
 31
0.0
  0
LINE
  5
11a
100
AcDbEntity
  8
Layer_1
 62
7
100
AcDbLine
 10
-50.900000
 20
-5.099980
 30
0.0
 11
-50.900000
 21
-11.018039
 31
0.0
  0
LINE
  5
11b
100
AcDbEntity
  8
Layer_1
 62
7
100
AcDbLine
 10
-50.900000
 20
-11.018039
 30
0.0
 11
-50.900000
 21
-16.936098
 31
0.0
  0
LINE
  5
11c
100
AcDbEntity
  8
Layer_1
 62
7
100
AcDbLine
 10
-50.900000
 20
-16.936098
 30
0.0
 11
-50.581619
 21
-18.520888
 31
0.0
  0
LINE
  5
11d
100
AcDbEntity
  8
Layer_1
 62
7
100
AcDbLine
 10
-50.581619
 20
-18.520888
 30
0.0
 11
-49.712324
 21
-19.812337
 31
0.0
  0
LINE
  5
11e
100
AcDbEntity
  8
Layer_1
 62
7
100
AcDbLine
 10
-49.712324
 20
-19.812337
 30
0.0
 11
-48.420889
 21
-20.681638
 31
0.0
  0
LINE
  5
11f
100
AcDbEntity
  8
Layer_1
 62
7
100
AcDbLine
 10
-48.420889
 20
-20.681638
 30
0.0
 11
-46.836093
 21
-21.000013
 31
0.0
  0
LINE
  5
120
100
AcDbEntity
  8
Layer_1
 62
7
100
AcDbLine
 10
2.000010
 20
-17.000021
 30
0.0
 11
1.842840
 21
-17.778503
 31
0.0
  0
LINE
  5
121
100
AcDbEntity
  8
Layer_1
 62
7
100
AcDbLine
 10
1.842840
 20
-17.778503
 30
0.0
 11
1.414224
 21
-18.414237
 31
0.0
  0
LINE
  5
122
100
AcDbEntity
  8
Layer_1
 62
7
100
AcDbLine
 10
1.414224
 20
-18.414237
 30
0.0
 11
0.778501
 21
-18.842848
 31
0.0
  0
LINE
  5
123
100
AcDbEntity
  8
Layer_1
 62
7
100
AcDbLine
 10
0.778501
 20
-18.842848
 30
0.0
 11
0.000011
 21
-19.000017
 31
0.0
  0
LINE
  5
124
100
AcDbEntity
  8
Layer_1
 62
7
100
AcDbLine
 10
0.000011
 20
-19.000017
 30
0.0
 11
-0.778479
 21
-18.842848
 31
0.0
  0
LINE
  5
125
100
AcDbEntity
  8
Layer_1
 62
7
100
AcDbLine
 10
-0.778479
 20
-18.842848
 30
0.0
 11
-1.414202
 21
-18.414237
 31
0.0
  0
LINE
  5
126
100
AcDbEntity
  8
Layer_1
 62
7
100
AcDbLine
 10
-1.414202
 20
-18.414237
 30
0.0
 11
-1.842818
 21
-17.778503
 31
0.0
  0
LINE
  5
127
100
AcDbEntity
  8
Layer_1
 62
7
100
AcDbLine
 10
-1.842818
 20
-17.778503
 30
0.0
 11
-1.999988
 21
-17.000021
 31
0.0
  0
LINE
  5
128
100
AcDbEntity
  8
Layer_1
 62
7
100
AcDbLine
 10
-1.999988
 20
-17.000021
 30
0.0
 11
-1.842818
 21
-16.221539
 31
0.0
  0
LINE
  5
129
100
AcDbEntity
  8
Layer_1
 62
7
100
AcDbLine
 10
-1.842818
 20
-16.221539
 30
0.0
 11
-1.414202
 21
-15.585806
 31
0.0
  0
LINE
  5
12a
100
AcDbEntity
  8
Layer_1
 62
7
100
AcDbLine
 10
-1.414202
 20
-15.585806
 30
0.0
 11
-0.778479
 21
-15.157195
 31
0.0
  0
LINE
  5
12b
100
AcDbEntity
  8
Layer_1
 62
7
100
AcDbLine
 10
-0.778479
 20
-15.157195
 30
0.0
 11
0.000011
 21
-15.000025
 31
0.0
  0
LINE
  5
12c
100
AcDbEntity
  8
Layer_1
 62
7
100
AcDbLine
 10
0.000011
 20
-15.000025
 30
0.0
 11
0.778501
 21
-15.157195
 31
0.0
  0
LINE
  5
12d
100
AcDbEntity
  8
Layer_1
 62
7
100
AcDbLine
 10
0.778501
 20
-15.157195
 30
0.0
 11
1.414224
 21
-15.585806
 31
0.0
  0
LINE
  5
12e
100
AcDbEntity
  8
Layer_1
 62
7
100
AcDbLine
 10
1.414224
 20
-15.585806
 30
0.0
 11
1.842840
 21
-16.221539
 31
0.0
  0
LINE
  5
12f
100
AcDbEntity
  8
Layer_1
 62
7
100
AcDbLine
 10
1.842840
 20
-16.221539
 30
0.0
 11
2.000010
 21
-17.000021
 31
0.0
  0
LINE
  5
130
100
AcDbEntity
  8
Layer_1
 62
7
100
AcDbLine
 10
-45.000000
 20
6.899996
 30
0.0
 11
-45.157170
 21
6.121514
 31
0.0
  0
LINE
  5
131
100
AcDbEntity
  8
Layer_1
 62
7
100
AcDbLine
 10
-45.157170
 20
6.121514
 30
0.0
 11
-45.585786
 21
5.485780
 31
0.0
  0
LINE
  5
132
100
AcDbEntity
  8
Layer_1
 62
7
100
AcDbLine
 10
-45.585786
 20
5.485780
 30
0.0
 11
-46.221509
 21
5.057170
 31
0.0
  0
LINE
  5
133
100
AcDbEntity
  8
Layer_1
 62
7
100
AcDbLine
 10
-46.221509
 20
5.057170
 30
0.0
 11
-46.999999
 21
4.900000
 31
0.0
  0
LINE
  5
134
100
AcDbEntity
  8
Layer_1
 62
7
100
AcDbLine
 10
-46.999999
 20
4.900000
 30
0.0
 11
-47.778489
 21
5.057170
 31
0.0
  0
LINE
  5
135
100
AcDbEntity
  8
Layer_1
 62
7
100
AcDbLine
 10
-47.778489
 20
5.057170
 30
0.0
 11
-48.414212
 21
5.485780
 31
0.0
  0
LINE
  5
136
100
AcDbEntity
  8
Layer_1
 62
7
100
AcDbLine
 10
-48.414212
 20
5.485780
 30
0.0
 11
-48.842828
 21
6.121514
 31
0.0
  0
LINE
  5
137
100
AcDbEntity
  8
Layer_1
 62
7
100
AcDbLine
 10
-48.842828
 20
6.121514
 30
0.0
 11
-48.999998
 21
6.899996
 31
0.0
  0
LINE
  5
138
100
AcDbEntity
  8
Layer_1
 62
7
100
AcDbLine
 10
-48.999998
 20
6.899996
 30
0.0
 11
-48.842828
 21
7.678506
 31
0.0
  0
LINE
  5
139
100
AcDbEntity
  8
Layer_1
 62
7
100
AcDbLine
 10
-48.842828
 20
7.678506
 30
0.0
 11
-48.414212
 21
8.314212
 31
0.0
  0
LINE
  5
13a
100
AcDbEntity
  8
Layer_1
 62
7
100
AcDbLine
 10
-48.414212
 20
8.314212
 30
0.0
 11
-47.778489
 21
8.742851
 31
0.0
  0
LINE
  5
13b
100
AcDbEntity
  8
Layer_1
 62
7
100
AcDbLine
 10
-47.778489
 20
8.742851
 30
0.0
 11
-46.999999
 21
8.900020
 31
0.0
  0
LINE
  5
13c
100
AcDbEntity
  8
Layer_1
 62
7
100
AcDbLine
 10
-46.999999
 20
8.900020
 30
0.0
 11
-46.221509
 21
8.742851
 31
0.0
  0
LINE
  5
13d
100
AcDbEntity
  8
Layer_1
 62
7
100
AcDbLine
 10
-46.221509
 20
8.742851
 30
0.0
 11
-45.585784
 21
8.314212
 31
0.0
  0
LINE
  5
13e
100
AcDbEntity
  8
Layer_1
 62
7
100
AcDbLine
 10
-45.585784
 20
8.314212
 30
0.0
 11
-45.157170
 21
7.678506
 31
0.0
  0
LINE
  5
13f
100
AcDbEntity
  8
Layer_1
 62
7
100
AcDbLine
 10
-45.157170
 20
7.678506
 30
0.0
 11
-45.000000
 21
6.899996
 31
0.0
  0
LINE
  5
140
100
AcDbEntity
  8
Layer_1
 62
7
100
AcDbLine
 10
-45.000000
 20
-17.100012
 30
0.0
 11
-45.157170
 21
-17.878494
 31
0.0
  0
LINE
  5
141
100
AcDbEntity
  8
Layer_1
 62
7
100
AcDbLine
 10
-45.157170
 20
-17.878494
 30
0.0
 11
-45.585786
 21
-18.514228
 31
0.0
  0
LINE
  5
142
100
AcDbEntity
  8
Layer_1
 62
7
100
AcDbLine
 10
-45.585786
 20
-18.514228
 30
0.0
 11
-46.221509
 21
-18.942839
 31
0.0
  0
LINE
  5
143
100
AcDbEntity
  8
Layer_1
 62
7
100
AcDbLine
 10
-46.221509
 20
-18.942839
 30
0.0
 11
-46.999999
 21
-19.100008
 31
0.0
  0
LINE
  5
144
100
AcDbEntity
  8
Layer_1
 62
7
100
AcDbLine
 10
-46.999999
 20
-19.100008
 30
0.0
 11
-47.778489
 21
-18.942839
 31
0.0
  0
LINE
  5
145
100
AcDbEntity
  8
Layer_1
 62
7
100
AcDbLine
 10
-47.778489
 20
-18.942839
 30
0.0
 11
-48.414212
 21
-18.514228
 31
0.0
  0
LINE
  5
146
100
AcDbEntity
  8
Layer_1
 62
7
100
AcDbLine
 10
-48.414212
 20
-18.514228
 30
0.0
 11
-48.842828
 21
-17.878494
 31
0.0
  0
LINE
  5
147
100
AcDbEntity
  8
Layer_1
 62
7
100
AcDbLine
 10
-48.842828
 20
-17.878494
 30
0.0
 11
-48.999998
 21
-17.100012
 31
0.0
  0
LINE
  5
148
100
AcDbEntity
  8
Layer_1
 62
7
100
AcDbLine
 10
-48.999998
 20
-17.100012
 30
0.0
 11
-48.842831
 21
-16.321531
 31
0.0
  0
LINE
  5
149
100
AcDbEntity
  8
Layer_1
 62
7
100
AcDbLine
 10
-48.842831
 20
-16.321531
 30
0.0
 11
-48.414212
 21
-15.685797
 31
0.0
  0
LINE
  5
14a
100
AcDbEntity
  8
Layer_1
 62
7
100
AcDbLine
 10
-48.414212
 20
-15.685797
 30
0.0
 11
-47.778489
 21
-15.257186
 31
0.0
  0
LINE
  5
14b
100
AcDbEntity
  8
Layer_1
 62
7
100
AcDbLine
 10
-47.778489
 20
-15.257186
 30
0.0
 11
-46.999999
 21
-15.100016
 31
0.0
  0
LINE
  5
14c
100
AcDbEntity
  8
Layer_1
 62
7
100
AcDbLine
 10
-46.999999
 20
-15.100016
 30
0.0
 11
-46.221509
 21
-15.257186
 31
0.0
  0
LINE
  5
14d
100
AcDbEntity
  8
Layer_1
 62
7
100
AcDbLine
 10
-46.221509
 20
-15.257186
 30
0.0
 11
-45.585786
 21
-15.685797
 31
0.0
  0
LINE
  5
14e
100
AcDbEntity
  8
Layer_1
 62
7
100
AcDbLine
 10
-45.585786
 20
-15.685797
 30
0.0
 11
-45.157167
 21
-16.321531
 31
0.0
  0
LINE
  5
14f
100
AcDbEntity
  8
Layer_1
 62
7
100
AcDbLine
 10
-45.157167
 20
-16.321531
 30
0.0
 11
-45.000000
 21
-17.100012
 31
0.0
  0
LINE
  5
150
100
AcDbEntity
  8
Layer_1
 62
7
100
AcDbLine
 10
49.000001
 20
6.899996
 30
0.0
 11
48.842831
 21
6.121514
 31
0.0
  0
LINE
  5
151
100
AcDbEntity
  8
Layer_1
 62
7
100
AcDbLine
 10
48.842831
 20
6.121514
 30
0.0
 11
48.414215
 21
5.485780
 31
0.0
  0
LINE
  5
152
100
AcDbEntity
  8
Layer_1
 62
7
100
AcDbLine
 10
48.414215
 20
5.485780
 30
0.0
 11
47.778492
 21
5.057170
 31
0.0
  0
LINE
  5
153
100
AcDbEntity
  8
Layer_1
 62
7
100
AcDbLine
 10
47.778492
 20
5.057170
 30
0.0
 11
47.000002
 21
4.900000
 31
0.0
  0
LINE
  5
154
100
AcDbEntity
  8
Layer_1
 62
7
100
AcDbLine
 10
47.000002
 20
4.900000
 30
0.0
 11
46.221512
 21
5.057170
 31
0.0
  0
LINE
  5
155
100
AcDbEntity
  8
Layer_1
 62
7
100
AcDbLine
 10
46.221512
 20
5.057170
 30
0.0
 11
45.585789
 21
5.485780
 31
0.0
  0
LINE
  5
156
100
AcDbEntity
  8
Layer_1
 62
7
100
AcDbLine
 10
45.585789
 20
5.485780
 30
0.0
 11
45.157173
 21
6.121514
 31
0.0
  0
LINE
  5
157
100
AcDbEntity
  8
Layer_1
 62
7
100
AcDbLine
 10
45.157173
 20
6.121514
 30
0.0
 11
45.000003
 21
6.899996
 31
0.0
  0
LINE
  5
158
100
AcDbEntity
  8
Layer_1
 62
7
100
AcDbLine
 10
45.000003
 20
6.899996
 30
0.0
 11
45.157173
 21
7.678506
 31
0.0
  0
LINE
  5
159
100
AcDbEntity
  8
Layer_1
 62
7
100
AcDbLine
 10
45.157173
 20
7.678506
 30
0.0
 11
45.585789
 21
8.314212
 31
0.0
  0
LINE
  5
15a
100
AcDbEntity
  8
Layer_1
 62
7
100
AcDbLine
 10
45.585789
 20
8.314212
 30
0.0
 11
46.221512
 21
8.742851
 31
0.0
  0
LINE
  5
15b
100
AcDbEntity
  8
Layer_1
 62
7
100
AcDbLine
 10
46.221512
 20
8.742851
 30
0.0
 11
47.000002
 21
8.900020
 31
0.0
  0
LINE
  5
15c
100
AcDbEntity
  8
Layer_1
 62
7
100
AcDbLine
 10
47.000002
 20
8.900020
 30
0.0
 11
47.778492
 21
8.742851
 31
0.0
  0
LINE
  5
15d
100
AcDbEntity
  8
Layer_1
 62
7
100
AcDbLine
 10
47.778492
 20
8.742851
 30
0.0
 11
48.414215
 21
8.314212
 31
0.0
  0
LINE
  5
15e
100
AcDbEntity
  8
Layer_1
 62
7
100
AcDbLine
 10
48.414215
 20
8.314212
 30
0.0
 11
48.842831
 21
7.678506
 31
0.0
  0
LINE
  5
15f
100
AcDbEntity
  8
Layer_1
 62
7
100
AcDbLine
 10
48.842831
 20
7.678506
 30
0.0
 11
49.000001
 21
6.899996
 31
0.0
  0
LINE
  5
160
100
AcDbEntity
  8
Layer_1
 62
7
100
AcDbLine
 10
49.000001
 20
-17.100012
 30
0.0
 11
48.842831
 21
-17.878494
 31
0.0
  0
LINE
  5
161
100
AcDbEntity
  8
Layer_1
 62
7
100
AcDbLine
 10
48.842831
 20
-17.878494
 30
0.0
 11
48.414215
 21
-18.514228
 31
0.0
  0
LINE
  5
162
100
AcDbEntity
  8
Layer_1
 62
7
100
AcDbLine
 10
48.414215
 20
-18.514228
 30
0.0
 11
47.778492
 21
-18.942839
 31
0.0
  0
LINE
  5
163
100
AcDbEntity
  8
Layer_1
 62
7
100
AcDbLine
 10
47.778492
 20
-18.942839
 30
0.0
 11
47.000002
 21
-19.100008
 31
0.0
  0
LINE
  5
164
100
AcDbEntity
  8
Layer_1
 62
7
100
AcDbLine
 10
47.000002
 20
-19.100008
 30
0.0
 11
46.221512
 21
-18.942839
 31
0.0
  0
LINE
  5
165
100
AcDbEntity
  8
Layer_1
 62
7
100
AcDbLine
 10
46.221512
 20
-18.942839
 30
0.0
 11
45.585789
 21
-18.514228
 31
0.0
  0
LINE
  5
166
100
AcDbEntity
  8
Layer_1
 62
7
100
AcDbLine
 10
45.585789
 20
-18.514228
 30
0.0
 11
45.157173
 21
-17.878494
 31
0.0
  0
LINE
  5
167
100
AcDbEntity
  8
Layer_1
 62
7
100
AcDbLine
 10
45.157173
 20
-17.878494
 30
0.0
 11
45.000003
 21
-17.100012
 31
0.0
  0
LINE
  5
168
100
AcDbEntity
  8
Layer_1
 62
7
100
AcDbLine
 10
45.000003
 20
-17.100012
 30
0.0
 11
45.157173
 21
-16.321531
 31
0.0
  0
LINE
  5
169
100
AcDbEntity
  8
Layer_1
 62
7
100
AcDbLine
 10
45.157173
 20
-16.321531
 30
0.0
 11
45.585789
 21
-15.685797
 31
0.0
  0
LINE
  5
16a
100
AcDbEntity
  8
Layer_1
 62
7
100
AcDbLine
 10
45.585789
 20
-15.685797
 30
0.0
 11
46.221512
 21
-15.257186
 31
0.0
  0
LINE
  5
16b
100
AcDbEntity
  8
Layer_1
 62
7
100
AcDbLine
 10
46.221512
 20
-15.257186
 30
0.0
 11
47.000002
 21
-15.100016
 31
0.0
  0
LINE
  5
16c
100
AcDbEntity
  8
Layer_1
 62
7
100
AcDbLine
 10
47.000002
 20
-15.100016
 30
0.0
 11
47.778492
 21
-15.257186
 31
0.0
  0
LINE
  5
16d
100
AcDbEntity
  8
Layer_1
 62
7
100
AcDbLine
 10
47.778492
 20
-15.257186
 30
0.0
 11
48.414215
 21
-15.685797
 31
0.0
  0
LINE
  5
16e
100
AcDbEntity
  8
Layer_1
 62
7
100
AcDbLine
 10
48.414215
 20
-15.685797
 30
0.0
 11
48.842831
 21
-16.321531
 31
0.0
  0
LINE
  5
16f
100
AcDbEntity
  8
Layer_1
 62
7
100
AcDbLine
 10
48.842831
 20
-16.321531
 30
0.0
 11
49.000001
 21
-17.100012
 31
0.0
  0
LINE
  5
170
100
AcDbEntity
  8
Layer_1
 62
7
100
AcDbLine
 10
-36.489169
 20
-4.920035
 30
0.0
 11
-36.442184
 21
-5.513831
 31
0.0
  0
LINE
  5
171
100
AcDbEntity
  8
Layer_1
 62
7
100
AcDbLine
 10
-36.442184
 20
-5.513831
 30
0.0
 11
-36.180240
 21
-6.025754
 31
0.0
  0
LINE
  5
172
100
AcDbEntity
  8
Layer_1
 62
7
100
AcDbLine
 10
-36.180240
 20
-6.025754
 30
0.0
 11
-35.745454
 21
-6.402097
 31
0.0
  0
LINE
  5
173
100
AcDbEntity
  8
Layer_1
 62
7
100
AcDbLine
 10
-35.745454
 20
-6.402097
 30
0.0
 11
-35.179945
 21
-6.589154
 31
0.0
  0
LINE
  5
174
100
AcDbEntity
  8
Layer_1
 62
7
100
AcDbLine
 10
-35.179945
 20
-6.589154
 30
0.0
 11
-34.586153
 21
-6.542164
 31
0.0
  0
LINE
  5
175
100
AcDbEntity
  8
Layer_1
 62
7
100
AcDbLine
 10
-34.586153
 20
-6.542164
 30
0.0
 11
-34.074241
 21
-6.280233
 31
0.0
  0
LINE
  5
176
100
AcDbEntity
  8
Layer_1
 62
7
100
AcDbLine
 10
-34.074241
 20
-6.280233
 30
0.0
 11
-33.697903
 21
-5.845442
 31
0.0
  0
LINE
  5
177
100
AcDbEntity
  8
Layer_1
 62
7
100
AcDbLine
 10
-33.697903
 20
-5.845442
 30
0.0
 11
-33.510832
 21
-5.279925
 31
0.0
  0
LINE
  5
178
100
AcDbEntity
  8
Layer_1
 62
7
100
AcDbLine
 10
-33.510832
 20
-5.279925
 30
0.0
 11
-33.557820
 21
-4.686129
 31
0.0
  0
LINE
  5
179
100
AcDbEntity
  8
Layer_1
 62
7
100
AcDbLine
 10
-33.557820
 20
-4.686129
 30
0.0
 11
-33.819761
 21
-4.174235
 31
0.0
  0
LINE
  5
17a
100
AcDbEntity
  8
Layer_1
 62
7
100
AcDbLine
 10
-33.819761
 20
-4.174235
 30
0.0
 11
-34.254547
 21
-3.797891
 31
0.0
  0
LINE
  5
17b
100
AcDbEntity
  8
Layer_1
 62
7
100
AcDbLine
 10
-34.254547
 20
-3.797891
 30
0.0
 11
-34.820056
 21
-3.610806
 31
0.0
  0
LINE
  5
17c
100
AcDbEntity
  8
Layer_1
 62
7
100
AcDbLine
 10
-34.820056
 20
-3.610806
 30
0.0
 11
-35.413848
 21
-3.657796
 31
0.0
  0
LINE
  5
17d
100
AcDbEntity
  8
Layer_1
 62
7
100
AcDbLine
 10
-35.413848
 20
-3.657796
 30
0.0
 11
-35.925760
 21
-3.919755
 31
0.0
  0
LINE
  5
17e
100
AcDbEntity
  8
Layer_1
 62
7
100
AcDbLine
 10
-35.925760
 20
-3.919755
 30
0.0
 11
-36.302098
 21
-4.354518
 31
0.0
  0
LINE
  5
17f
100
AcDbEntity
  8
Layer_1
 62
7
100
AcDbLine
 10
-36.302098
 20
-4.354518
 30
0.0
 11
-36.489169
 21
-4.920035
 31
0.0
  0
LINE
  5
180
100
AcDbEntity
  8
Layer_1
 62
7
100
AcDbLine
 10
33.510830
 20
-4.920035
 30
0.0
 11
33.557814
 21
-5.513831
 31
0.0
  0
LINE
  5
181
100
AcDbEntity
  8
Layer_1
 62
7
100
AcDbLine
 10
33.557814
 20
-5.513831
 30
0.0
 11
33.819759
 21
-6.025725
 31
0.0
  0
LINE
  5
182
100
AcDbEntity
  8
Layer_1
 62
7
100
AcDbLine
 10
33.819759
 20
-6.025725
 30
0.0
 11
34.254544
 21
-6.402069
 31
0.0
  0
LINE
  5
183
100
AcDbEntity
  8
Layer_1
 62
7
100
AcDbLine
 10
34.254544
 20
-6.402069
 30
0.0
 11
34.820053
 21
-6.589154
 31
0.0
  0
LINE
  5
184
100
AcDbEntity
  8
Layer_1
 62
7
100
AcDbLine
 10
34.820053
 20
-6.589154
 30
0.0
 11
35.413846
 21
-6.542164
 31
0.0
  0
LINE
  5
185
100
AcDbEntity
  8
Layer_1
 62
7
100
AcDbLine
 10
35.413846
 20
-6.542164
 30
0.0
 11
35.925757
 21
-6.280205
 31
0.0
  0
LINE
  5
186
100
AcDbEntity
  8
Layer_1
 62
7
100
AcDbLine
 10
35.925757
 20
-6.280205
 30
0.0
 11
36.302095
 21
-5.845442
 31
0.0
  0
LINE
  5
187
100
AcDbEntity
  8
Layer_1
 62
7
100
AcDbLine
 10
36.302095
 20
-5.845442
 30
0.0
 11
36.489166
 21
-5.279925
 31
0.0
  0
LINE
  5
188
100
AcDbEntity
  8
Layer_1
 62
7
100
AcDbLine
 10
36.489166
 20
-5.279925
 30
0.0
 11
36.442179
 21
-4.686129
 31
0.0
  0
LINE
  5
189
100
AcDbEntity
  8
Layer_1
 62
7
100
AcDbLine
 10
36.442179
 20
-4.686129
 30
0.0
 11
36.180237
 21
-4.174206
 31
0.0
  0
LINE
  5
18a
100
AcDbEntity
  8
Layer_1
 62
7
100
AcDbLine
 10
36.180237
 20
-4.174206
 30
0.0
 11
35.745451
 21
-3.797891
 31
0.0
  0
LINE
  5
18b
100
AcDbEntity
  8
Layer_1
 62
7
100
AcDbLine
 10
35.745451
 20
-3.797891
 30
0.0
 11
35.179943
 21
-3.610806
 31
0.0
  0
LINE
  5
18c
100
AcDbEntity
  8
Layer_1
 62
7
100
AcDbLine
 10
35.179943
 20
-3.610806
 30
0.0
 11
34.586150
 21
-3.657796
 31
0.0
  0
LINE
  5
18d
100
AcDbEntity
  8
Layer_1
 62
7
100
AcDbLine
 10
34.586150
 20
-3.657796
 30
0.0
 11
34.074238
 21
-3.919727
 31
0.0
  0
LINE
  5
18e
100
AcDbEntity
  8
Layer_1
 62
7
100
AcDbLine
 10
34.074238
 20
-3.919727
 30
0.0
 11
33.697901
 21
-4.354518
 31
0.0
  0
LINE
  5
18f
100
AcDbEntity
  8
Layer_1
 62
7
100
AcDbLine
 10
33.697901
 20
-4.354518
 30
0.0
 11
33.510830
 21
-4.920035
 31
0.0
  0
LINE
  5
190
100
AcDbEntity
  8
Layer_1
 62
7
100
AcDbLine
 10
16.871998
 20
-4.864917
 30
0.0
 11
16.887097
 21
-5.261722
 31
0.0
  0
LINE
  5
191
100
AcDbEntity
  8
Layer_1
 62
7
100
AcDbLine
 10
16.887097
 20
-5.261722
 30
0.0
 11
16.753501
 21
-5.621075
 31
0.0
  0
LINE
  5
192
100
AcDbEntity
  8
Layer_1
 62
7
100
AcDbLine
 10
16.753501
 20
-5.621075
 30
0.0
 11
16.494918
 21
-5.904088
 31
0.0
  0
LINE
  5
193
100
AcDbEntity
  8
Layer_1
 62
7
100
AcDbLine
 10
16.494918
 20
-5.904088
 30
0.0
 11
16.135042
 21
-6.071953
 31
0.0
  0
LINE
  5
194
100
AcDbEntity
  8
Layer_1
 62
7
100
AcDbLine
 10
16.135042
 20
-6.071953
 30
0.0
 11
15.738235
 21
-6.086911
 31
0.0
  0
LINE
  5
195
100
AcDbEntity
  8
Layer_1
 62
7
100
AcDbLine
 10
15.738235
 20
-6.086911
 30
0.0
 11
15.378907
 21
-5.953307
 31
0.0
  0
LINE
  5
196
100
AcDbEntity
  8
Layer_1
 62
7
100
AcDbLine
 10
15.378907
 20
-5.953307
 30
0.0
 11
15.095891
 21
-5.694707
 31
0.0
  0
LINE
  5
197
100
AcDbEntity
  8
Layer_1
 62
7
100
AcDbLine
 10
15.095891
 20
-5.694707
 30
0.0
 11
14.928023
 21
-5.334845
 31
0.0
  0
LINE
  5
198
100
AcDbEntity
  8
Layer_1
 62
7
100
AcDbLine
 10
14.928023
 20
-5.334845
 30
0.0
 11
14.912924
 21
-4.938041
 31
0.0
  0
LINE
  5
199
100
AcDbEntity
  8
Layer_1
 62
7
100
AcDbLine
 10
14.912924
 20
-4.938041
 30
0.0
 11
15.046519
 21
-4.578716
 31
0.0
  0
LINE
  5
19a
100
AcDbEntity
  8
Layer_1
 62
7
100
AcDbLine
 10
15.046519
 20
-4.578716
 30
0.0
 11
15.305106
 21
-4.295675
 31
0.0
  0
LINE
  5
19b
100
AcDbEntity
  8
Layer_1
 62
7
100
AcDbLine
 10
15.305106
 20
-4.295675
 30
0.0
 11
15.664981
 21
-4.127837
 31
0.0
  0
LINE
  5
19c
100
AcDbEntity
  8
Layer_1
 62
7
100
AcDbLine
 10
15.664981
 20
-4.127837
 30
0.0
 11
16.061788
 21
-4.112597
 31
0.0
  0
LINE
  5
19d
100
AcDbEntity
  8
Layer_1
 62
7
100
AcDbLine
 10
16.061788
 20
-4.112597
 30
0.0
 11
16.421117
 21
-4.246201
 31
0.0
  0
LINE
  5
19e
100
AcDbEntity
  8
Layer_1
 62
7
100
AcDbLine
 10
16.421117
 20
-4.246201
 30
0.0
 11
16.704132
 21
-4.504802
 31
0.0
  0
LINE
  5
19f
100
AcDbEntity
  8
Layer_1
 62
7
100
AcDbLine
 10
16.704132
 20
-4.504802
 30
0.0
 11
16.871998
 21
-4.864917
 31
0.0
  0
LINE
  5
1a0
100
AcDbEntity
  8
Layer_1
 62
7
100
AcDbLine
 10
-14.928037
 20
-4.864917
 30
0.0
 11
-14.912939
 21
-5.261750
 31
0.0
  0
LINE
  5
1a1
100
AcDbEntity
  8
Layer_1
 62
7
100
AcDbLine
 10
-14.912939
 20
-5.261750
 30
0.0
 11
-15.046537
 21
-5.621075
 31
0.0
  0
LINE
  5
1a2
100
AcDbEntity
  8
Layer_1
 62
7
100
AcDbLine
 10
-15.046537
 20
-5.621075
 30
0.0
 11
-15.305120
 21
-5.904088
 31
0.0
  0
LINE
  5
1a3
100
AcDbEntity
  8
Layer_1
 62
7
100
AcDbLine
 10
-15.305120
 20
-5.904088
 30
0.0
 11
-15.664993
 21
-6.071953
 31
0.0
  0
LINE
  5
1a4
100
AcDbEntity
  8
Layer_1
 62
7
100
AcDbLine
 10
-15.664993
 20
-6.071953
 30
0.0
 11
-16.061800
 21
-6.086911
 31
0.0
  0
LINE
  5
1a5
100
AcDbEntity
  8
Layer_1
 62
7
100
AcDbLine
 10
-16.061800
 20
-6.086911
 30
0.0
 11
-16.421131
 21
-5.953307
 31
0.0
  0
LINE
  5
1a6
100
AcDbEntity
  8
Layer_1
 62
7
100
AcDbLine
 10
-16.421131
 20
-5.953307
 30
0.0
 11
-16.704144
 21
-5.694735
 31
0.0
  0
LINE
  5
1a7
100
AcDbEntity
  8
Layer_1
 62
7
100
AcDbLine
 10
-16.704144
 20
-5.694735
 30
0.0
 11
-16.872015
 21
-5.334845
 31
0.0
  0
LINE
  5
1a8
100
AcDbEntity
  8
Layer_1
 62
7
100
AcDbLine
 10
-16.872015
 20
-5.334845
 30
0.0
 11
-16.887114
 21
-4.938041
 31
0.0
  0
LINE
  5
1a9
100
AcDbEntity
  8
Layer_1
 62
7
100
AcDbLine
 10
-16.887114
 20
-4.938041
 30
0.0
 11
-16.753513
 21
-4.578716
 31
0.0
  0
LINE
  5
1aa
100
AcDbEntity
  8
Layer_1
 62
7
100
AcDbLine
 10
-16.753513
 20
-4.578716
 30
0.0
 11
-16.494927
 21
-4.295703
 31
0.0
  0
LINE
  5
1ab
100
AcDbEntity
  8
Layer_1
 62
7
100
AcDbLine
 10
-16.494927
 20
-4.295703
 30
0.0
 11
-16.135054
 21
-4.127837
 31
0.0
  0
LINE
  5
1ac
100
AcDbEntity
  8
Layer_1
 62
7
100
AcDbLine
 10
-16.135054
 20
-4.127837
 30
0.0
 11
-15.738241
 21
-4.112880
 31
0.0
  0
LINE
  5
1ad
100
AcDbEntity
  8
Layer_1
 62
7
100
AcDbLine
 10
-15.738241
 20
-4.112880
 30
0.0
 11
-15.378913
 21
-4.246484
 31
0.0
  0
LINE
  5
1ae
100
AcDbEntity
  8
Layer_1
 62
7
100
AcDbLine
 10
-15.378913
 20
-4.246484
 30
0.0
 11
-15.095898
 21
-4.505056
 31
0.0
  0
LINE
  5
1af
100
AcDbEntity
  8
Layer_1
 62
7
100
AcDbLine
 10
-15.095898
 20
-4.505056
 30
0.0
 11
-14.928037
 21
-4.864917
 31
0.0
  0
LINE
  5
1b0
100
AcDbEntity
  8
Layer_1
 62
7
100
AcDbLine
 10
-7.000026
 20
-7.500026
 30
0.0
 11
-3.500019
 21
-7.500026
 31
0.0
  0
LINE
  5
1b1
100
AcDbEntity
  8
Layer_1
 62
7
100
AcDbLine
 10
-3.500019
 20
-7.500026
 30
0.0
 11
-0.000011
 21
-7.500026
 31
0.0
  0
LINE
  5
1b2
100
AcDbEntity
  8
Layer_1
 62
7
100
AcDbLine
 10
-0.000011
 20
-7.500026
 30
0.0
 11
3.499996
 21
-7.500026
 31
0.0
  0
LINE
  5
1b3
100
AcDbEntity
  8
Layer_1
 62
7
100
AcDbLine
 10
3.499996
 20
-7.500026
 30
0.0
 11
7.000003
 21
-7.500026
 31
0.0
  0
LINE
  5
1b4
100
AcDbEntity
  8
Layer_1
 62
7
100
AcDbLine
 10
7.000003
 20
-7.500026
 30
0.0
 11
8.734368
 21
-5.449258
 31
0.0
  0
LINE
  5
1b5
100
AcDbEntity
  8
Layer_1
 62
7
100
AcDbLine
 10
8.734368
 20
-5.449258
 30
0.0
 11
9.624991
 21
-3.281284
 31
0.0
  0
LINE
  5
1b6
100
AcDbEntity
  8
Layer_1
 62
7
100
AcDbLine
 10
9.624991
 20
-3.281284
 30
0.0
 11
9.953114
 21
-1.347694
 31
0.0
  0
LINE
  5
1b7
100
AcDbEntity
  8
Layer_1
 62
7
100
AcDbLine
 10
9.953114
 20
-1.347694
 30
0.0
 11
9.999988
 21
-0.000055
 31
0.0
  0
LINE
  5
1b8
100
AcDbEntity
  8
Layer_1
 62
7
100
AcDbLine
 10
9.999988
 20
-0.000055
 30
0.0
 11
9.953114
 21
1.347612
 31
0.0
  0
LINE
  5
1b9
100
AcDbEntity
  8
Layer_1
 62
7
100
AcDbLine
 10
9.953114
 20
1.347612
 30
0.0
 11
9.624991
 21
3.281202
 31
0.0
  0
LINE
  5
1ba
100
AcDbEntity
  8
Layer_1
 62
7
100
AcDbLine
 10
9.624991
 20
3.281202
 30
0.0
 11
8.734368
 21
5.449204
 31
0.0
  0
LINE
  5
1bb
100
AcDbEntity
  8
Layer_1
 62
7
100
AcDbLine
 10
8.734368
 20
5.449204
 30
0.0
 11
7.000003
 21
7.500000
 31
0.0
  0
LINE
  5
1bc
100
AcDbEntity
  8
Layer_1
 62
7
100
AcDbLine
 10
7.000003
 20
7.500000
 30
0.0
 11
3.499996
 21
7.500000
 31
0.0
  0
LINE
  5
1bd
100
AcDbEntity
  8
Layer_1
 62
7
100
AcDbLine
 10
3.499996
 20
7.500000
 30
0.0
 11
-0.000011
 21
7.500000
 31
0.0
  0
LINE
  5
1be
100
AcDbEntity
  8
Layer_1
 62
7
100
AcDbLine
 10
-0.000011
 20
7.500000
 30
0.0
 11
-3.500019
 21
7.500000
 31
0.0
  0
LINE
  5
1bf
100
AcDbEntity
  8
Layer_1
 62
7
100
AcDbLine
 10
-3.500019
 20
7.500000
 30
0.0
 11
-7.000026
 21
7.500000
 31
0.0
  0
LINE
  5
1c0
100
AcDbEntity
  8
Layer_1
 62
7
100
AcDbLine
 10
-7.000026
 20
7.500000
 30
0.0
 11
-8.734391
 21
5.449204
 31
0.0
  0
LINE
  5
1c1
100
AcDbEntity
  8
Layer_1
 62
7
100
AcDbLine
 10
-8.734391
 20
5.449204
 30
0.0
 11
-9.625014
 21
3.281202
 31
0.0
  0
LINE
  5
1c2
100
AcDbEntity
  8
Layer_1
 62
7
100
AcDbLine
 10
-9.625014
 20
3.281202
 30
0.0
 11
-9.953137
 21
1.347612
 31
0.0
  0
LINE
  5
1c3
100
AcDbEntity
  8
Layer_1
 62
7
100
AcDbLine
 10
-9.953137
 20
1.347612
 30
0.0
 11
-10.000011
 21
-0.000055
 31
0.0
  0
LINE
  5
1c4
100
AcDbEntity
  8
Layer_1
 62
7
100
AcDbLine
 10
-10.000011
 20
-0.000055
 30
0.0
 11
-9.953137
 21
-1.347694
 31
0.0
  0
LINE
  5
1c5
100
AcDbEntity
  8
Layer_1
 62
7
100
AcDbLine
 10
-9.953137
 20
-1.347694
 30
0.0
 11
-9.625014
 21
-3.281284
 31
0.0
  0
LINE
  5
1c6
100
AcDbEntity
  8
Layer_1
 62
7
100
AcDbLine
 10
-9.625014
 20
-3.281284
 30
0.0
 11
-8.734391
 21
-5.449258
 31
0.0
  0
LINE
  5
1c7
100
AcDbEntity
  8
Layer_1
 62
7
100
AcDbLine
 10
-8.734391
 20
-5.449258
 30
0.0
 11
-7.000026
 21
-7.500026
 31
0.0
  0
ENDSEC
  0
SECTION
  2
OBJECTS
  0
DICTIONARY
  5
C
330
0
100
AcDbDictionary
  3
ACAD_GROUP
350
D
  3
ACAD_MLINESTYLE
350
17
  0
DICTIONARY
  5
D
330
C
100
AcDbDictionary
  0
DICTIONARY
  5
1A
330
C
100
AcDbDictionary
  0
DICTIONARY
  5
17
330
C
100
AcDbDictionary
  3
STANDARD
350
18
  0
DICTIONARY
  5
19
330
C
100
AcDbDictionary
  0
ENDSEC
  0
EOF
