<?xml version="1.0" encoding="UTF-8" standalone="no"?>
<!-- Created with Inkscape (http://www.inkscape.org/) -->

<svg
   xmlns:dc="http://purl.org/dc/elements/1.1/"
   xmlns:cc="http://creativecommons.org/ns#"
   xmlns:rdf="http://www.w3.org/1999/02/22-rdf-syntax-ns#"
   xmlns:svg="http://www.w3.org/2000/svg"
   xmlns="http://www.w3.org/2000/svg"
   xmlns:sodipodi="http://sodipodi.sourceforge.net/DTD/sodipodi-0.dtd"
   xmlns:inkscape="http://www.inkscape.org/namespaces/inkscape"
   width="210mm"
   height="297mm"
   viewBox="0 0 744.09448819 1052.3622047"
   id="svg4979"
   version="1.1"
   inkscape:version="0.91 r13725"
   sodipodi:docname="box-wheels-inside-43d.svg">
  <defs
     id="defs4981" />
  <sodipodi:namedview
     id="base"
     pagecolor="#ffffff"
     bordercolor="#666666"
     borderopacity="1.0"
     inkscape:pageopacity="0.0"
     inkscape:pageshadow="2"
     inkscape:zoom="1.4"
     inkscape:cx="95.496596"
     inkscape:cy="47.273936"
     inkscape:document-units="mm"
     inkscape:current-layer="layer1"
     showgrid="true"
     inkscape:window-width="1366"
     inkscape:window-height="705"
     inkscape:window-x="-8"
     inkscape:window-y="-8"
     inkscape:window-maximized="1"
     showguides="true"
     inkscape:guide-bbox="true">
    <inkscape:grid
       type="xygrid"
       id="grid6193"
       units="mm"
       spacingx="3.5433071"
       spacingy="3.5433072" />
    <sodipodi:guide
       position="194.88189,0"
       orientation="0,1"
       id="guide4144" />
    <sodipodi:guide
       position="0,124.01575"
       orientation="1,0"
       id="guide4146" />
  </sodipodi:namedview>
  <metadata
     id="metadata4984">
    <rdf:RDF>
      <cc:Work
         rdf:about="">
        <dc:format>image/svg+xml</dc:format>
        <dc:type
           rdf:resource="http://purl.org/dc/dcmitype/StillImage" />
        <dc:title></dc:title>
      </cc:Work>
    </rdf:RDF>
  </metadata>
  <g
     inkscape:label="Layer 1"
     inkscape:groupmode="layer"
     id="layer1">
    <path
       style="display:inline;fill:#d35f5f;fill-opacity:1;stroke:none;stroke-width:1.77165353;stroke-linejoin:round;stroke-miterlimit:4;stroke-dasharray:none;stroke-dashoffset:8;stroke-opacity:1"
       d="m -165.95466,1126.7717 82.977328,0 82.9773234413386,0 82.9773295586614,0 82.977329,0 5.61542,-1.1281 4.57595,-3.0802 3.08018,-4.576 1.12812,-5.6154 0,-20.9695 0,-20.9695 0,-20.9694 0,-20.9695 -1.12812,-5.6154 -3.08018,-4.576 -4.57595,-3.0801 -5.61542,-1.1282 -82.977329,0 -82.9773295586614,0 -82.9773234413386,0 -82.977328,0 -5.61542,1.1282 -4.57595,3.0801 -3.08018,4.576 -1.12812,5.6154 0,20.9695 0,20.9694 0,20.9695 0,20.9695 1.12812,5.6154 3.08018,4.576 4.57595,3.0802 z"
       id="rect4018-8-5"
       inkscape:connector-curvature="0"
       sodipodi:nodetypes="ccccccccccccccccccccccccccccccccc" />
    <path
       style="display:inline;opacity:1;fill:#2b1100;fill-opacity:1;stroke:none;stroke-width:1.77165353;stroke-linejoin:round;stroke-miterlimit:4;stroke-dasharray:none;stroke-dashoffset:8;stroke-opacity:1"
       d="m 7.0866515,1112.5985 -0.5569,2.7584 -1.51872,2.2526 -2.25256,1.5187 -2.758430058661,0.5569 -2.758429941339,-0.5569 -2.25256,-1.5187 -1.51872,-2.2526 -0.5569,-2.7584 0.5569,-2.7584 1.51872,-2.2526 2.25256,-1.5187 2.758429941339,-0.5569 2.758430058661,0.5569 2.25256,1.5187 1.51872,2.2526 z"
       id="path5259-61-5-6-6-57"
       inkscape:connector-curvature="0"
       sodipodi:nodetypes="ccccccccccccccccc" />
    <path
       style="display:inline;opacity:1;fill:#2b1100;fill-opacity:1;stroke:none;stroke-width:1.77165353;stroke-linejoin:round;stroke-miterlimit:4;stroke-dasharray:none;stroke-dashoffset:8;stroke-opacity:1"
       d="m -159.44881,1027.9134 -0.5569,2.7584 -1.51872,2.2526 -2.25256,1.5187 -2.75843,0.5569 -2.75843,-0.5569 -2.25256,-1.5187 -1.51872,-2.2526 -0.55691,-2.7584 0.5569,-2.7585 1.51872,-2.2525 2.25257,-1.5188 2.75843,-0.5569 2.75843,0.5569 2.25256,1.5188 1.51872,2.2525 z"
       id="path5259-61-5-5-6-3"
       inkscape:connector-curvature="0"
       sodipodi:nodetypes="ccccccccccccccccc" />
    <path
       style="display:inline;opacity:1;fill:#2b1100;fill-opacity:1;stroke:none;stroke-width:1.77165353;stroke-linejoin:round;stroke-miterlimit:4;stroke-dasharray:none;stroke-dashoffset:8;stroke-opacity:1"
       d="m -159.44881,1112.9528 -0.5569,2.7584 -1.51872,2.2526 -2.25256,1.5187 -2.75843,0.5569 -2.75843,-0.5569 -2.25256,-1.5187 -1.51872,-2.2526 -0.55691,-2.7584 0.5569,-2.7584 1.51872,-2.2526 2.25257,-1.5187 2.75843,-0.5569 2.75843,0.5569 2.25256,1.5187 1.51872,2.2526 z"
       id="path5259-61-5-54-4-0"
       inkscape:connector-curvature="0"
       sodipodi:nodetypes="ccccccccccccccccc" />
    <path
       style="display:inline;opacity:1;fill:#2b1100;fill-opacity:1;stroke:none;stroke-width:1.77165353;stroke-linejoin:round;stroke-miterlimit:4;stroke-dasharray:none;stroke-dashoffset:8;stroke-opacity:1"
       d="m 173.62205,1027.9134 -0.5569,2.7584 -1.51872,2.2526 -2.25256,1.5187 -2.75843,0.5569 -2.75843,-0.5569 -2.25256,-1.5187 -1.51872,-2.2526 -0.5569,-2.7584 0.5569,-2.7585 1.51872,-2.2525 2.25256,-1.5188 2.75843,-0.5569 2.75843,0.5569 2.25256,1.5188 1.51872,2.2525 z"
       id="path5259-61-5-41-1-97"
       inkscape:connector-curvature="0"
       sodipodi:nodetypes="ccccccccccccccccc" />
    <path
       style="display:inline;opacity:1;fill:#2b1100;fill-opacity:1;stroke:none;stroke-width:1.77165353;stroke-linejoin:round;stroke-miterlimit:4;stroke-dasharray:none;stroke-dashoffset:8;stroke-opacity:1"
       d="m 173.62205,1112.9528 -0.5569,2.7584 -1.51872,2.2526 -2.25256,1.5187 -2.75843,0.5569 -2.75843,-0.5569 -2.25256,-1.5187 -1.51872,-2.2526 -0.5569,-2.7584 0.5569,-2.7584 1.51872,-2.2526 2.25256,-1.5187 2.75843,-0.5569 2.75843,0.5569 2.25256,1.5187 1.51872,2.2526 z"
       id="path5259-61-5-68-3-6"
       inkscape:connector-curvature="0"
       sodipodi:nodetypes="ccccccccccccccccc" />
    <path
       style="display:inline;fill:#002255;fill-opacity:1;stroke:none;stroke-width:1"
       d="m -129.29245,1069.7955 0.16648,2.104 0.92814,1.8138 1.54059,1.3336 2.00377,0.6628 2.10399,-0.1665 1.81387,-0.9281 1.33348,-1.5406 0.66284,-2.0038 -0.16648,-2.104 -0.92815,-1.8139 -1.54058,-1.3335 -2.00377,-0.6628 -2.10399,0.1665 -1.81386,0.9281 -1.33348,1.5406 z"
       id="path12890-1-8-3-2"
       inkscape:connector-curvature="0"
       sodipodi:nodetypes="ccccccccccccccccc" />
    <path
       style="display:inline;fill:#002255;fill-opacity:1;stroke:none;stroke-width:1"
       d="m 118.73908,1069.7955 0.16649,2.1039 0.92814,1.8139 1.54058,1.3335 2.00377,0.6629 2.104,-0.1665 1.81386,-0.9281 1.33348,-1.5407 0.66285,-2.0038 -0.16648,-2.1039 -0.92815,-1.8139 -1.54058,-1.3335 -2.00378,-0.6628 -2.10399,0.1665 -1.81386,0.9281 -1.33348,1.5406 z"
       id="path12890-1-8-2-2-04"
       inkscape:connector-curvature="0"
       sodipodi:nodetypes="ccccccccccccccccc" />
    <path
       style="display:inline;fill:#002255;fill-opacity:1;stroke:none;stroke-width:1"
       d="m 59.782704,1069.6004 0.05351,1.406 -0.473371,1.2733 -0.916246,1.0028 -1.275145,0.5948 -1.406011,0.054 -1.273215,-0.4735 -1.002806,-0.9162 -0.594811,-1.2751 -0.05351,-1.4061 0.473371,-1.2732 0.916248,-1.0028 1.275146,-0.5948 1.406012,-0.054 1.273217,0.4734 1.002807,0.9163 z"
       id="path12644-11-0-6"
       inkscape:connector-curvature="0"
       sodipodi:nodetypes="ccccccccccccccccc" />
    <path
       style="display:inline;fill:#002255;fill-opacity:1;stroke:none;stroke-width:1"
       d="m -52.894597,1069.6003 0.05351,1.4061 -0.473375,1.2732 -0.916253,1.0028 -1.275141,0.5948 -1.406032,0.053 -1.273192,-0.4734 -1.002802,-0.9162 -0.59481,-1.2752 -0.05351,-1.406 0.473375,-1.2732 0.916255,-1.0028 1.275129,-0.5948 1.40603,-0.053 1.273205,0.4734 1.002801,0.9162 z"
       id="path12644-3-1-1"
       inkscape:connector-curvature="0"
       sodipodi:nodetypes="ccccccccccccccccc" />
  </g>
</svg>
