<?xml version="1.0" encoding="UTF-8" standalone="no"?>
<!-- Created with Inkscape (http://www.inkscape.org/) -->

<svg
   xmlns:dc="http://purl.org/dc/elements/1.1/"
   xmlns:cc="http://creativecommons.org/ns#"
   xmlns:rdf="http://www.w3.org/1999/02/22-rdf-syntax-ns#"
   xmlns:svg="http://www.w3.org/2000/svg"
   xmlns="http://www.w3.org/2000/svg"
   xmlns:sodipodi="http://sodipodi.sourceforge.net/DTD/sodipodi-0.dtd"
   xmlns:inkscape="http://www.inkscape.org/namespaces/inkscape"
   width="210mm"
   height="297mm"
   viewBox="0 0 744.09448819 1052.3622047"
   id="svg4979"
   version="1.1"
   inkscape:version="0.91 r13725"
   sodipodi:docname="box-motor-lid-43d.svg">
  <defs
     id="defs4981" />
  <sodipodi:namedview
     id="base"
     pagecolor="#ffffff"
     bordercolor="#666666"
     borderopacity="1.0"
     inkscape:pageopacity="0.0"
     inkscape:pageshadow="2"
     inkscape:zoom="0.98994949"
     inkscape:cx="-34.015957"
     inkscape:cy="143.26113"
     inkscape:document-units="mm"
     inkscape:current-layer="layer1"
     showgrid="true"
     inkscape:window-width="1366"
     inkscape:window-height="705"
     inkscape:window-x="-8"
     inkscape:window-y="-8"
     inkscape:window-maximized="1">
    <inkscape:grid
       type="xygrid"
       id="grid6193"
       units="mm"
       spacingx="3.5433071"
       spacingy="3.5433072" />
  </sodipodi:namedview>
  <metadata
     id="metadata4984">
    <rdf:RDF>
      <cc:Work
         rdf:about="">
        <dc:format>image/svg+xml</dc:format>
        <dc:type
           rdf:resource="http://purl.org/dc/dcmitype/StillImage" />
        <dc:title />
      </cc:Work>
    </rdf:RDF>
  </metadata>
  <g
     inkscape:label="Layer 1"
     inkscape:groupmode="layer"
     id="layer1">
    <path
       style="display:inline;fill:#d35f5f;fill-opacity:1;stroke:none;stroke-width:1.77165353;stroke-linejoin:round;stroke-miterlimit:4;stroke-dasharray:none;stroke-dashoffset:8;stroke-opacity:1"
       d="m -165.95466,1126.7717 82.977326,0 82.977323291339,0 82.977329708661,0 82.977331,0 5.61542,-1.1281 4.57595,-3.0802 3.08018,-4.576 1.12812,-5.6154 0,-20.9695 0,-20.9695 0,-20.9694 0,-20.9695 -1.12812,-5.6154 -3.08018,-4.576 -4.57595,-3.0801 -5.61542,-1.1282 -82.977331,0 -82.977329708661,0 -82.977323291339,0 -82.977326,0 -5.61542,1.1282 -4.57595,3.0801 -3.08018,4.576 -1.12812,5.6154 0,20.9695 0,20.9694 0,20.9695 0,20.9695 1.12812,5.6154 3.08018,4.576 4.57595,3.0802 z"
       id="rect4018-8-6"
       inkscape:connector-curvature="0"
       sodipodi:nodetypes="ccccccccccccccccccccccccccccccccc" />
    <path
       style="display:inline;opacity:1;fill:#2b1100;fill-opacity:1;stroke:none;stroke-width:1.77165353;stroke-linejoin:round;stroke-miterlimit:4;stroke-dasharray:none;stroke-dashoffset:8;stroke-opacity:1"
       d="m 7.0866493,1112.5983 -0.55688,2.7585 -1.51871,2.2525 -2.25257,1.5188 -2.758450008661,0.5569 -2.758449991339,-0.5569 -2.25257,-1.5188 -1.51871,-2.2525 -0.55688,-2.7585 0.5569,-2.7584 1.51872,-2.2526 2.25256,-1.5187 2.758429991339,-0.5569 2.758430008661,0.5569 2.25256,1.5187 1.51872,2.2526 z"
       id="path5259-61-5-6-6-5"
       inkscape:connector-curvature="0"
       sodipodi:nodetypes="ccccccccccccccccc" />
    <path
       style="display:inline;opacity:1;fill:#2b1100;fill-opacity:1;stroke:none;stroke-width:1.77165353;stroke-linejoin:round;stroke-miterlimit:4;stroke-dasharray:none;stroke-dashoffset:8;stroke-opacity:1"
       d="m -159.44881,1027.9133 -0.5569,2.7584 -1.51872,2.2526 -2.25256,1.5187 -2.75843,0.5569 -2.75843,-0.5569 -2.25256,-1.5187 -1.51872,-2.2526 -0.55691,-2.7584 0.5569,-2.7584 1.51872,-2.2526 2.25257,-1.5187 2.75843,-0.5569 2.75843,0.5569 2.25256,1.5187 1.51872,2.2526 z"
       id="path5259-61-5-5-6-8"
       inkscape:connector-curvature="0"
       sodipodi:nodetypes="ccccccccccccccccc" />
    <path
       style="display:inline;opacity:1;fill:#2b1100;fill-opacity:1;stroke:none;stroke-width:1.77165353;stroke-linejoin:round;stroke-miterlimit:4;stroke-dasharray:none;stroke-dashoffset:8;stroke-opacity:1"
       d="m -159.44881,1112.9527 -0.5569,2.7584 -1.51872,2.2526 -2.25256,1.5187 -2.75843,0.5569 -2.75843,-0.5569 -2.25256,-1.5187 -1.51872,-2.2526 -0.55691,-2.7584 0.5569,-2.7584 1.51872,-2.2526 2.25257,-1.5187 2.75843,-0.5569 2.75843,0.5569 2.25256,1.5187 1.51872,2.2526 z"
       id="path5259-61-5-54-4-9"
       inkscape:connector-curvature="0"
       sodipodi:nodetypes="ccccccccccccccccc" />
    <path
       style="display:inline;opacity:1;fill:#2b1100;fill-opacity:1;stroke:none;stroke-width:1.77165353;stroke-linejoin:round;stroke-miterlimit:4;stroke-dasharray:none;stroke-dashoffset:8;stroke-opacity:1"
       d="m 173.62205,1027.9133 -0.5569,2.7584 -1.51872,2.2526 -2.25256,1.5187 -2.75843,0.5569 -2.75843,-0.5569 -2.25256,-1.5187 -1.51872,-2.2526 -0.5569,-2.7584 0.5569,-2.7584 1.51872,-2.2526 2.25256,-1.5187 2.75843,-0.5569 2.75843,0.5569 2.25256,1.5187 1.51872,2.2526 z"
       id="path5259-61-5-41-1-9"
       inkscape:connector-curvature="0"
       sodipodi:nodetypes="ccccccccccccccccc" />
    <path
       style="display:inline;opacity:1;fill:#2b1100;fill-opacity:1;stroke:none;stroke-width:1.77165353;stroke-linejoin:round;stroke-miterlimit:4;stroke-dasharray:none;stroke-dashoffset:8;stroke-opacity:1"
       d="m 173.62205,1112.9527 -0.5569,2.7584 -1.51872,2.2526 -2.25256,1.5187 -2.75843,0.5569 -2.75843,-0.5569 -2.25256,-1.5187 -1.51872,-2.2526 -0.5569,-2.7584 0.5569,-2.7584 1.51872,-2.2526 2.25256,-1.5187 2.75843,-0.5569 2.75843,0.5569 2.25256,1.5187 1.51872,2.2526 z"
       id="path5259-61-5-68-3-7"
       inkscape:connector-curvature="0"
       sodipodi:nodetypes="ccccccccccccccccc" />
    <path
       sodipodi:nodetypes="ccccccccccccccccccccccccc"
       inkscape:connector-curvature="0"
       id="rect6176-0-9-5"
       d="m -24.803171,1078.9372 12.4016,0 12.401600291339,0 12.401599708661,0 12.4016,0 6.14539,-7.2666 3.15575,-7.6817 1.16264,-6.8513 0.16609,-4.7752 -0.16609,-4.7751 -1.16264,-6.8514 -3.15575,-7.6818 -6.14539,-7.2667 -12.4016,0 -12.401599708661,0 -12.401600291339,0 -12.4016,0 -6.14539,7.2667 -3.15575,7.6818 -1.16264,6.8514 -0.16609,4.7751 0.16609,4.7752 1.16264,6.8513 3.15575,7.6817 z"
       style="display:inline;opacity:1;fill:#aa00d4;fill-opacity:1;stroke:none;stroke-width:1.77165353;stroke-linejoin:round;stroke-miterlimit:4;stroke-dasharray:none;stroke-dashoffset:8;stroke-opacity:1" />
  </g>
</svg>
