  0
SECTION
  2
HEADER
  9
$ACADVER
  1
AC1014
  9
$HANDSEED
  5
FFFF
  9
$MEASUREMENT
 70
     1
  0
ENDSEC
  0
SECTION
  2
TABLES
  0
TABLE
  2
VPORT
  5
8
330
0
100
AcDbSymbolTable
 70
     4
  0
VPORT
  5
2E
330
8
100
AcDbSymbolTableRecord
100
AcDbViewportTableRecord
  2
*ACTIVE
 70
     0
 10
0.0
 20
0.0
 11
1.0
 21
1.0
 12
210.0
 22
148.5
 13
0.0
 23
0.0
 14
10.0
 24
10.0
 15
10.0
 25
10.0
 16
0.0
 26
0.0
 36
1.0
 17
0.0
 27
0.0
 37
0.0
 40
341.0
 41
1.24
 42
50.0
 43
0.0
 44
0.0
 50
0.0
 51
0.0
 71
     0
 72
   100
 73
     1
 74
     3
 75
     0
 76
     0
 77
     0
 78
     0
  0
ENDTAB
  0
TABLE
  2
LTYPE
  5
5
330
0
100
AcDbSymbolTable
 70
     1
  0
LTYPE
  5
14
330
5
100
AcDbSymbolTableRecord
100
AcDbLinetypeTableRecord
  2
BYBLOCK
 70
     0
  3

 72
    65
 73
     0
 40
0.0
  0
LTYPE
  5
15
330
5
100
AcDbSymbolTableRecord
100
AcDbLinetypeTableRecord
  2
BYLAYER
 70
     0
  3

 72
    65
 73
     0
 40
0.0
  0
LTYPE
  5
16
330
5
100
AcDbSymbolTableRecord
100
AcDbLinetypeTableRecord
  2
CONTINUOUS
 70
     0
  3
Solid line
 72
    65
 73
     0
 40
0.0
  0
ENDTAB
  0
TABLE
  2
LAYER
  5
2
100
AcDbSymbolTable
 70
2
  0
LAYER
  5
50
100
AcDbSymbolTableRecord
100
AcDbLayerTableRecord
  2
0
 70
0
  6
CONTINUOUS
  0
LAYER
  5
51
100
AcDbSymbolTableRecord
100
AcDbLayerTableRecord
  2
Layer_1
 70
0
  6
CONTINUOUS
  0
ENDTAB
  0
TABLE
  2
STYLE
  5
3
330
0
100
AcDbSymbolTable
 70
     1
  0
STYLE
  5
11
330
3
100
AcDbSymbolTableRecord
100
AcDbTextStyleTableRecord
  2
STANDARD
 70
     0
 40
0.0
 41
1.0
 50
0.0
 71
     0
 42
2.5
  3
txt
  4

  0
ENDTAB
  0
TABLE
  2
VIEW
  5
6
330
0
100
AcDbSymbolTable
 70
     0
  0
ENDTAB
  0
TABLE
  2
UCS
  5
7
330
0
100
AcDbSymbolTable
 70
     0
  0
ENDTAB
  0
TABLE
  2
APPID
  5
9
330
0
100
AcDbSymbolTable
 70
     2
  0
APPID
  5
12
330
9
100
AcDbSymbolTableRecord
100
AcDbRegAppTableRecord
  2
ACAD
 70
     0
  0
ENDTAB
  0
TABLE
  2
DIMSTYLE
  5
A
330
0
100
AcDbSymbolTable
 70
     1
  0
DIMSTYLE
105
27
330
A
100
AcDbSymbolTableRecord
100
AcDbDimStyleTableRecord
  2
ISO-25
 70
     0
  3

  4

  5

  6

  7

 40
1.0
 41
2.5
 42
0.625
 43
3.75
 44
1.25
 45
0.0
 46
0.0
 47
0.0
 48
0.0
140
2.5
141
2.5
142
0.0
143
0.03937007874016
144
1.0
145
0.0
146
1.0
147
0.625
 71
     0
 72
     0
 73
     0
 74
     0
 75
     0
 76
     0
 77
     1
 78
     8
170
     0
171
     3
172
     1
173
     0
174
     0
175
     0
176
     0
177
     0
178
     0
270
     2
271
     2
272
     2
273
     2
274
     3
340
11
275
     0
280
     0
281
     0
282
     0
283
     0
284
     8
285
     0
286
     0
287
     3
288
     0
  0
ENDTAB
  0
TABLE
  2
BLOCK_RECORD
  5
1
330
0
100
AcDbSymbolTable
 70
     1
  0
BLOCK_RECORD
  5
1F
330
1
100
AcDbSymbolTableRecord
100
AcDbBlockTableRecord
  2
*MODEL_SPACE
  0
BLOCK_RECORD
  5
1B
330
1
100
AcDbSymbolTableRecord
100
AcDbBlockTableRecord
  2
*PAPER_SPACE
  0
ENDTAB
  0
ENDSEC
  0
SECTION
  2
BLOCKS
  0
BLOCK
  5
20
330
1F
100
AcDbEntity
  8
0
100
AcDbBlockBegin
  2
*MODEL_SPACE
 70
     0
 10
0.0
 20
0.0
 30
0.0
  3
*MODEL_SPACE
  1

  0
ENDBLK
  5
21
330
1F
100
AcDbEntity
  8
0
100
AcDbBlockEnd
  0
BLOCK
  5
1C
330
1B
100
AcDbEntity
 67
     1
  8
0
100
AcDbBlockBegin
  2
*PAPER_SPACE
  1

  0
ENDBLK
  5
1D
330
1B
100
AcDbEntity
 67
     1
  8
0
100
AcDbBlockEnd
  0
ENDSEC
  0
SECTION
  2
ENTITIES
  0
LINE
  5
100
100
AcDbEntity
  8
Layer_1
 62
7
100
AcDbLine
 10
-46.836093
 20
-20.999985
 30
0.0
 11
-23.418046
 21
-20.999985
 31
0.0
  0
LINE
  5
101
100
AcDbEntity
  8
Layer_1
 62
7
100
AcDbLine
 10
-23.418046
 20
-20.999985
 30
0.0
 11
0.000000
 21
-20.999985
 31
0.0
  0
LINE
  5
102
100
AcDbEntity
  8
Layer_1
 62
7
100
AcDbLine
 10
0.000000
 20
-20.999985
 30
0.0
 11
23.418046
 21
-20.999985
 31
0.0
  0
LINE
  5
103
100
AcDbEntity
  8
Layer_1
 62
7
100
AcDbLine
 10
23.418046
 20
-20.999985
 30
0.0
 11
46.836093
 21
-20.999985
 31
0.0
  0
LINE
  5
104
100
AcDbEntity
  8
Layer_1
 62
7
100
AcDbLine
 10
46.836093
 20
-20.999985
 30
0.0
 11
48.420889
 21
-20.681610
 31
0.0
  0
LINE
  5
105
100
AcDbEntity
  8
Layer_1
 62
7
100
AcDbLine
 10
48.420889
 20
-20.681610
 30
0.0
 11
49.712321
 21
-19.812309
 31
0.0
  0
LINE
  5
106
100
AcDbEntity
  8
Layer_1
 62
7
100
AcDbLine
 10
49.712321
 20
-19.812309
 30
0.0
 11
50.581616
 21
-18.520888
 31
0.0
  0
LINE
  5
107
100
AcDbEntity
  8
Layer_1
 62
7
100
AcDbLine
 10
50.581616
 20
-18.520888
 30
0.0
 11
50.899997
 21
-16.936070
 31
0.0
  0
LINE
  5
108
100
AcDbEntity
  8
Layer_1
 62
7
100
AcDbLine
 10
50.899997
 20
-16.936070
 30
0.0
 11
50.899997
 21
-11.018039
 31
0.0
  0
LINE
  5
109
100
AcDbEntity
  8
Layer_1
 62
7
100
AcDbLine
 10
50.899997
 20
-11.018039
 30
0.0
 11
50.899997
 21
-5.099980
 31
0.0
  0
LINE
  5
10a
100
AcDbEntity
  8
Layer_1
 62
7
100
AcDbLine
 10
50.899997
 20
-5.099980
 30
0.0
 11
50.899997
 21
0.818051
 31
0.0
  0
LINE
  5
10b
100
AcDbEntity
  8
Layer_1
 62
7
100
AcDbLine
 10
50.899997
 20
0.818051
 30
0.0
 11
50.899997
 21
6.736110
 31
0.0
  0
LINE
  5
10c
100
AcDbEntity
  8
Layer_1
 62
7
100
AcDbLine
 10
50.899997
 20
6.736110
 30
0.0
 11
50.581616
 21
8.320900
 31
0.0
  0
LINE
  5
10d
100
AcDbEntity
  8
Layer_1
 62
7
100
AcDbLine
 10
50.581616
 20
8.320900
 30
0.0
 11
49.712321
 21
9.612349
 31
0.0
  0
LINE
  5
10e
100
AcDbEntity
  8
Layer_1
 62
7
100
AcDbLine
 10
49.712321
 20
9.612349
 30
0.0
 11
48.420889
 21
10.481650
 31
0.0
  0
LINE
  5
10f
100
AcDbEntity
  8
Layer_1
 62
7
100
AcDbLine
 10
48.420889
 20
10.481650
 30
0.0
 11
46.836093
 21
10.800025
 31
0.0
  0
LINE
  5
110
100
AcDbEntity
  8
Layer_1
 62
7
100
AcDbLine
 10
46.836093
 20
10.800025
 30
0.0
 11
23.418046
 21
10.800025
 31
0.0
  0
LINE
  5
111
100
AcDbEntity
  8
Layer_1
 62
7
100
AcDbLine
 10
23.418046
 20
10.800025
 30
0.0
 11
0.000000
 21
10.800025
 31
0.0
  0
LINE
  5
112
100
AcDbEntity
  8
Layer_1
 62
7
100
AcDbLine
 10
0.000000
 20
10.800025
 30
0.0
 11
-23.418046
 21
10.800025
 31
0.0
  0
LINE
  5
113
100
AcDbEntity
  8
Layer_1
 62
7
100
AcDbLine
 10
-23.418046
 20
10.800025
 30
0.0
 11
-46.836093
 21
10.800025
 31
0.0
  0
LINE
  5
114
100
AcDbEntity
  8
Layer_1
 62
7
100
AcDbLine
 10
-46.836093
 20
10.800025
 30
0.0
 11
-48.420889
 21
10.481650
 31
0.0
  0
LINE
  5
115
100
AcDbEntity
  8
Layer_1
 62
7
100
AcDbLine
 10
-48.420889
 20
10.481650
 30
0.0
 11
-49.712321
 21
9.612349
 31
0.0
  0
LINE
  5
116
100
AcDbEntity
  8
Layer_1
 62
7
100
AcDbLine
 10
-49.712321
 20
9.612349
 30
0.0
 11
-50.581616
 21
8.320900
 31
0.0
  0
LINE
  5
117
100
AcDbEntity
  8
Layer_1
 62
7
100
AcDbLine
 10
-50.581616
 20
8.320900
 30
0.0
 11
-50.899997
 21
6.736110
 31
0.0
  0
LINE
  5
118
100
AcDbEntity
  8
Layer_1
 62
7
100
AcDbLine
 10
-50.899997
 20
6.736110
 30
0.0
 11
-50.899997
 21
0.818051
 31
0.0
  0
LINE
  5
119
100
AcDbEntity
  8
Layer_1
 62
7
100
AcDbLine
 10
-50.899997
 20
0.818051
 30
0.0
 11
-50.899997
 21
-5.099980
 31
0.0
  0
LINE
  5
11a
100
AcDbEntity
  8
Layer_1
 62
7
100
AcDbLine
 10
-50.899997
 20
-5.099980
 30
0.0
 11
-50.899997
 21
-11.018039
 31
0.0
  0
LINE
  5
11b
100
AcDbEntity
  8
Layer_1
 62
7
100
AcDbLine
 10
-50.899997
 20
-11.018039
 30
0.0
 11
-50.899997
 21
-16.936070
 31
0.0
  0
LINE
  5
11c
100
AcDbEntity
  8
Layer_1
 62
7
100
AcDbLine
 10
-50.899997
 20
-16.936070
 30
0.0
 11
-50.581616
 21
-18.520888
 31
0.0
  0
LINE
  5
11d
100
AcDbEntity
  8
Layer_1
 62
7
100
AcDbLine
 10
-50.581616
 20
-18.520888
 30
0.0
 11
-49.712321
 21
-19.812309
 31
0.0
  0
LINE
  5
11e
100
AcDbEntity
  8
Layer_1
 62
7
100
AcDbLine
 10
-49.712321
 20
-19.812309
 30
0.0
 11
-48.420889
 21
-20.681610
 31
0.0
  0
LINE
  5
11f
100
AcDbEntity
  8
Layer_1
 62
7
100
AcDbLine
 10
-48.420889
 20
-20.681610
 30
0.0
 11
-46.836093
 21
-20.999985
 31
0.0
  0
LINE
  5
120
100
AcDbEntity
  8
Layer_1
 62
7
100
AcDbLine
 10
1.499994
 20
-17.499978
 30
0.0
 11
1.382120
 21
-18.083839
 31
0.0
  0
LINE
  5
121
100
AcDbEntity
  8
Layer_1
 62
7
100
AcDbLine
 10
1.382120
 20
-18.083839
 30
0.0
 11
1.060659
 21
-18.560654
 31
0.0
  0
LINE
  5
122
100
AcDbEntity
  8
Layer_1
 62
7
100
AcDbLine
 10
1.060659
 20
-18.560654
 30
0.0
 11
0.583865
 21
-18.882105
 31
0.0
  0
LINE
  5
123
100
AcDbEntity
  8
Layer_1
 62
7
100
AcDbLine
 10
0.583865
 20
-18.882105
 30
0.0
 11
-0.000006
 21
-18.999989
 31
0.0
  0
LINE
  5
124
100
AcDbEntity
  8
Layer_1
 62
7
100
AcDbLine
 10
-0.000006
 20
-18.999989
 30
0.0
 11
-0.583876
 21
-18.882105
 31
0.0
  0
LINE
  5
125
100
AcDbEntity
  8
Layer_1
 62
7
100
AcDbLine
 10
-0.583876
 20
-18.882105
 30
0.0
 11
-1.060670
 21
-18.560654
 31
0.0
  0
LINE
  5
126
100
AcDbEntity
  8
Layer_1
 62
7
100
AcDbLine
 10
-1.060670
 20
-18.560654
 30
0.0
 11
-1.382131
 21
-18.083839
 31
0.0
  0
LINE
  5
127
100
AcDbEntity
  8
Layer_1
 62
7
100
AcDbLine
 10
-1.382131
 20
-18.083839
 30
0.0
 11
-1.500006
 21
-17.499978
 31
0.0
  0
LINE
  5
128
100
AcDbEntity
  8
Layer_1
 62
7
100
AcDbLine
 10
-1.500006
 20
-17.499978
 30
0.0
 11
-1.382131
 21
-16.916116
 31
0.0
  0
LINE
  5
129
100
AcDbEntity
  8
Layer_1
 62
7
100
AcDbLine
 10
-1.382131
 20
-16.916116
 30
0.0
 11
-1.060670
 21
-16.439302
 31
0.0
  0
LINE
  5
12a
100
AcDbEntity
  8
Layer_1
 62
7
100
AcDbLine
 10
-1.060670
 20
-16.439302
 30
0.0
 11
-0.583876
 21
-16.117851
 31
0.0
  0
LINE
  5
12b
100
AcDbEntity
  8
Layer_1
 62
7
100
AcDbLine
 10
-0.583876
 20
-16.117851
 30
0.0
 11
-0.000006
 21
-15.999967
 31
0.0
  0
LINE
  5
12c
100
AcDbEntity
  8
Layer_1
 62
7
100
AcDbLine
 10
-0.000006
 20
-15.999967
 30
0.0
 11
0.583865
 21
-16.117851
 31
0.0
  0
LINE
  5
12d
100
AcDbEntity
  8
Layer_1
 62
7
100
AcDbLine
 10
0.583865
 20
-16.117851
 30
0.0
 11
1.060659
 21
-16.439302
 31
0.0
  0
LINE
  5
12e
100
AcDbEntity
  8
Layer_1
 62
7
100
AcDbLine
 10
1.060659
 20
-16.439302
 30
0.0
 11
1.382120
 21
-16.916116
 31
0.0
  0
LINE
  5
12f
100
AcDbEntity
  8
Layer_1
 62
7
100
AcDbLine
 10
1.382120
 20
-16.916116
 30
0.0
 11
1.499994
 21
-17.499978
 31
0.0
  0
LINE
  5
130
100
AcDbEntity
  8
Layer_1
 62
7
100
AcDbLine
 10
-45.900021
 20
7.300018
 30
0.0
 11
-46.017902
 21
6.716156
 31
0.0
  0
LINE
  5
131
100
AcDbEntity
  8
Layer_1
 62
7
100
AcDbLine
 10
-46.017902
 20
6.716156
 30
0.0
 11
-46.339368
 21
6.239370
 31
0.0
  0
LINE
  5
132
100
AcDbEntity
  8
Layer_1
 62
7
100
AcDbLine
 10
-46.339368
 20
6.239370
 30
0.0
 11
-46.816160
 21
5.917919
 31
0.0
  0
LINE
  5
133
100
AcDbEntity
  8
Layer_1
 62
7
100
AcDbLine
 10
-46.816160
 20
5.917919
 30
0.0
 11
-47.400024
 21
5.800035
 31
0.0
  0
LINE
  5
134
100
AcDbEntity
  8
Layer_1
 62
7
100
AcDbLine
 10
-47.400024
 20
5.800035
 30
0.0
 11
-47.983888
 21
5.917919
 31
0.0
  0
LINE
  5
135
100
AcDbEntity
  8
Layer_1
 62
7
100
AcDbLine
 10
-47.983888
 20
5.917919
 30
0.0
 11
-48.460677
 21
6.239370
 31
0.0
  0
LINE
  5
136
100
AcDbEntity
  8
Layer_1
 62
7
100
AcDbLine
 10
-48.460677
 20
6.239370
 30
0.0
 11
-48.782142
 21
6.716156
 31
0.0
  0
LINE
  5
137
100
AcDbEntity
  8
Layer_1
 62
7
100
AcDbLine
 10
-48.782142
 20
6.716156
 30
0.0
 11
-48.900024
 21
7.300018
 31
0.0
  0
LINE
  5
138
100
AcDbEntity
  8
Layer_1
 62
7
100
AcDbLine
 10
-48.900024
 20
7.300018
 30
0.0
 11
-48.782151
 21
7.883879
 31
0.0
  0
LINE
  5
139
100
AcDbEntity
  8
Layer_1
 62
7
100
AcDbLine
 10
-48.782151
 20
7.883879
 30
0.0
 11
-48.460688
 21
8.360694
 31
0.0
  0
LINE
  5
13a
100
AcDbEntity
  8
Layer_1
 62
7
100
AcDbLine
 10
-48.460688
 20
8.360694
 30
0.0
 11
-47.983894
 21
8.682145
 31
0.0
  0
LINE
  5
13b
100
AcDbEntity
  8
Layer_1
 62
7
100
AcDbLine
 10
-47.983894
 20
8.682145
 30
0.0
 11
-47.400024
 21
8.800029
 31
0.0
  0
LINE
  5
13c
100
AcDbEntity
  8
Layer_1
 62
7
100
AcDbLine
 10
-47.400024
 20
8.800029
 30
0.0
 11
-46.816151
 21
8.682145
 31
0.0
  0
LINE
  5
13d
100
AcDbEntity
  8
Layer_1
 62
7
100
AcDbLine
 10
-46.816151
 20
8.682145
 30
0.0
 11
-46.339356
 21
8.360694
 31
0.0
  0
LINE
  5
13e
100
AcDbEntity
  8
Layer_1
 62
7
100
AcDbLine
 10
-46.339356
 20
8.360694
 30
0.0
 11
-46.017894
 21
7.883879
 31
0.0
  0
LINE
  5
13f
100
AcDbEntity
  8
Layer_1
 62
7
100
AcDbLine
 10
-46.017894
 20
7.883879
 30
0.0
 11
-45.900021
 21
7.300018
 31
0.0
  0
LINE
  5
140
100
AcDbEntity
  8
Layer_1
 62
7
100
AcDbLine
 10
-45.900021
 20
-17.499978
 30
0.0
 11
-46.017897
 21
-18.083839
 31
0.0
  0
LINE
  5
141
100
AcDbEntity
  8
Layer_1
 62
7
100
AcDbLine
 10
-46.017897
 20
-18.083839
 30
0.0
 11
-46.339359
 21
-18.560654
 31
0.0
  0
LINE
  5
142
100
AcDbEntity
  8
Layer_1
 62
7
100
AcDbLine
 10
-46.339359
 20
-18.560654
 30
0.0
 11
-46.816151
 21
-18.882105
 31
0.0
  0
LINE
  5
143
100
AcDbEntity
  8
Layer_1
 62
7
100
AcDbLine
 10
-46.816151
 20
-18.882105
 30
0.0
 11
-47.400024
 21
-18.999989
 31
0.0
  0
LINE
  5
144
100
AcDbEntity
  8
Layer_1
 62
7
100
AcDbLine
 10
-47.400024
 20
-18.999989
 30
0.0
 11
-47.983894
 21
-18.882105
 31
0.0
  0
LINE
  5
145
100
AcDbEntity
  8
Layer_1
 62
7
100
AcDbLine
 10
-47.983894
 20
-18.882105
 30
0.0
 11
-48.460688
 21
-18.560654
 31
0.0
  0
LINE
  5
146
100
AcDbEntity
  8
Layer_1
 62
7
100
AcDbLine
 10
-48.460688
 20
-18.560654
 30
0.0
 11
-48.782151
 21
-18.083839
 31
0.0
  0
LINE
  5
147
100
AcDbEntity
  8
Layer_1
 62
7
100
AcDbLine
 10
-48.782151
 20
-18.083839
 30
0.0
 11
-48.900024
 21
-17.499978
 31
0.0
  0
LINE
  5
148
100
AcDbEntity
  8
Layer_1
 62
7
100
AcDbLine
 10
-48.900024
 20
-17.499978
 30
0.0
 11
-48.782151
 21
-16.916116
 31
0.0
  0
LINE
  5
149
100
AcDbEntity
  8
Layer_1
 62
7
100
AcDbLine
 10
-48.782151
 20
-16.916116
 30
0.0
 11
-48.460688
 21
-16.439302
 31
0.0
  0
LINE
  5
14a
100
AcDbEntity
  8
Layer_1
 62
7
100
AcDbLine
 10
-48.460688
 20
-16.439302
 30
0.0
 11
-47.983894
 21
-16.117851
 31
0.0
  0
LINE
  5
14b
100
AcDbEntity
  8
Layer_1
 62
7
100
AcDbLine
 10
-47.983894
 20
-16.117851
 30
0.0
 11
-47.400024
 21
-15.999967
 31
0.0
  0
LINE
  5
14c
100
AcDbEntity
  8
Layer_1
 62
7
100
AcDbLine
 10
-47.400024
 20
-15.999967
 30
0.0
 11
-46.816151
 21
-16.117851
 31
0.0
  0
LINE
  5
14d
100
AcDbEntity
  8
Layer_1
 62
7
100
AcDbLine
 10
-46.816151
 20
-16.117851
 30
0.0
 11
-46.339359
 21
-16.439302
 31
0.0
  0
LINE
  5
14e
100
AcDbEntity
  8
Layer_1
 62
7
100
AcDbLine
 10
-46.339359
 20
-16.439302
 30
0.0
 11
-46.017897
 21
-16.916116
 31
0.0
  0
LINE
  5
14f
100
AcDbEntity
  8
Layer_1
 62
7
100
AcDbLine
 10
-46.017897
 20
-16.916116
 30
0.0
 11
-45.900021
 21
-17.499978
 31
0.0
  0
LINE
  5
150
100
AcDbEntity
  8
Layer_1
 62
7
100
AcDbLine
 10
48.899978
 20
7.300018
 30
0.0
 11
48.782097
 21
6.716156
 31
0.0
  0
LINE
  5
151
100
AcDbEntity
  8
Layer_1
 62
7
100
AcDbLine
 10
48.782097
 20
6.716156
 30
0.0
 11
48.460632
 21
6.239370
 31
0.0
  0
LINE
  5
152
100
AcDbEntity
  8
Layer_1
 62
7
100
AcDbLine
 10
48.460632
 20
6.239370
 30
0.0
 11
47.983843
 21
5.917919
 31
0.0
  0
LINE
  5
153
100
AcDbEntity
  8
Layer_1
 62
7
100
AcDbLine
 10
47.983843
 20
5.917919
 30
0.0
 11
47.399979
 21
5.800035
 31
0.0
  0
LINE
  5
154
100
AcDbEntity
  8
Layer_1
 62
7
100
AcDbLine
 10
47.399979
 20
5.800035
 30
0.0
 11
46.816114
 21
5.917919
 31
0.0
  0
LINE
  5
155
100
AcDbEntity
  8
Layer_1
 62
7
100
AcDbLine
 10
46.816114
 20
5.917919
 30
0.0
 11
46.339325
 21
6.239370
 31
0.0
  0
LINE
  5
156
100
AcDbEntity
  8
Layer_1
 62
7
100
AcDbLine
 10
46.339325
 20
6.239370
 30
0.0
 11
46.017860
 21
6.716156
 31
0.0
  0
LINE
  5
157
100
AcDbEntity
  8
Layer_1
 62
7
100
AcDbLine
 10
46.017860
 20
6.716156
 30
0.0
 11
45.899979
 21
7.300018
 31
0.0
  0
LINE
  5
158
100
AcDbEntity
  8
Layer_1
 62
7
100
AcDbLine
 10
45.899979
 20
7.300018
 30
0.0
 11
46.017852
 21
7.883879
 31
0.0
  0
LINE
  5
159
100
AcDbEntity
  8
Layer_1
 62
7
100
AcDbLine
 10
46.017852
 20
7.883879
 30
0.0
 11
46.339314
 21
8.360694
 31
0.0
  0
LINE
  5
15a
100
AcDbEntity
  8
Layer_1
 62
7
100
AcDbLine
 10
46.339314
 20
8.360694
 30
0.0
 11
46.816109
 21
8.682145
 31
0.0
  0
LINE
  5
15b
100
AcDbEntity
  8
Layer_1
 62
7
100
AcDbLine
 10
46.816109
 20
8.682145
 30
0.0
 11
47.399979
 21
8.800029
 31
0.0
  0
LINE
  5
15c
100
AcDbEntity
  8
Layer_1
 62
7
100
AcDbLine
 10
47.399979
 20
8.800029
 30
0.0
 11
47.983848
 21
8.682145
 31
0.0
  0
LINE
  5
15d
100
AcDbEntity
  8
Layer_1
 62
7
100
AcDbLine
 10
47.983848
 20
8.682145
 30
0.0
 11
48.460643
 21
8.360694
 31
0.0
  0
LINE
  5
15e
100
AcDbEntity
  8
Layer_1
 62
7
100
AcDbLine
 10
48.460643
 20
8.360694
 30
0.0
 11
48.782105
 21
7.883879
 31
0.0
  0
LINE
  5
15f
100
AcDbEntity
  8
Layer_1
 62
7
100
AcDbLine
 10
48.782105
 20
7.883879
 30
0.0
 11
48.899978
 21
7.300018
 31
0.0
  0
LINE
  5
160
100
AcDbEntity
  8
Layer_1
 62
7
100
AcDbLine
 10
48.899978
 20
-17.499978
 30
0.0
 11
48.782105
 21
-18.083839
 31
0.0
  0
LINE
  5
161
100
AcDbEntity
  8
Layer_1
 62
7
100
AcDbLine
 10
48.782105
 20
-18.083839
 30
0.0
 11
48.460643
 21
-18.560654
 31
0.0
  0
LINE
  5
162
100
AcDbEntity
  8
Layer_1
 62
7
100
AcDbLine
 10
48.460643
 20
-18.560654
 30
0.0
 11
47.983848
 21
-18.882105
 31
0.0
  0
LINE
  5
163
100
AcDbEntity
  8
Layer_1
 62
7
100
AcDbLine
 10
47.983848
 20
-18.882105
 30
0.0
 11
47.399979
 21
-18.999989
 31
0.0
  0
LINE
  5
164
100
AcDbEntity
  8
Layer_1
 62
7
100
AcDbLine
 10
47.399979
 20
-18.999989
 30
0.0
 11
46.816109
 21
-18.882105
 31
0.0
  0
LINE
  5
165
100
AcDbEntity
  8
Layer_1
 62
7
100
AcDbLine
 10
46.816109
 20
-18.882105
 30
0.0
 11
46.339314
 21
-18.560654
 31
0.0
  0
LINE
  5
166
100
AcDbEntity
  8
Layer_1
 62
7
100
AcDbLine
 10
46.339314
 20
-18.560654
 30
0.0
 11
46.017852
 21
-18.083839
 31
0.0
  0
LINE
  5
167
100
AcDbEntity
  8
Layer_1
 62
7
100
AcDbLine
 10
46.017852
 20
-18.083839
 30
0.0
 11
45.899979
 21
-17.499978
 31
0.0
  0
LINE
  5
168
100
AcDbEntity
  8
Layer_1
 62
7
100
AcDbLine
 10
45.899979
 20
-17.499978
 30
0.0
 11
46.017852
 21
-16.916116
 31
0.0
  0
LINE
  5
169
100
AcDbEntity
  8
Layer_1
 62
7
100
AcDbLine
 10
46.017852
 20
-16.916116
 30
0.0
 11
46.339314
 21
-16.439302
 31
0.0
  0
LINE
  5
16a
100
AcDbEntity
  8
Layer_1
 62
7
100
AcDbLine
 10
46.339314
 20
-16.439302
 30
0.0
 11
46.816109
 21
-16.117851
 31
0.0
  0
LINE
  5
16b
100
AcDbEntity
  8
Layer_1
 62
7
100
AcDbLine
 10
46.816109
 20
-16.117851
 30
0.0
 11
47.399979
 21
-15.999967
 31
0.0
  0
LINE
  5
16c
100
AcDbEntity
  8
Layer_1
 62
7
100
AcDbLine
 10
47.399979
 20
-15.999967
 30
0.0
 11
47.983848
 21
-16.117851
 31
0.0
  0
LINE
  5
16d
100
AcDbEntity
  8
Layer_1
 62
7
100
AcDbLine
 10
47.983848
 20
-16.117851
 30
0.0
 11
48.460643
 21
-16.439302
 31
0.0
  0
LINE
  5
16e
100
AcDbEntity
  8
Layer_1
 62
7
100
AcDbLine
 10
48.460643
 20
-16.439302
 30
0.0
 11
48.782105
 21
-16.916116
 31
0.0
  0
LINE
  5
16f
100
AcDbEntity
  8
Layer_1
 62
7
100
AcDbLine
 10
48.782105
 20
-16.916116
 30
0.0
 11
48.899978
 21
-17.499978
 31
0.0
  0
LINE
  5
170
100
AcDbEntity
  8
Layer_1
 62
7
100
AcDbLine
 10
-36.489184
 20
-4.920055
 30
0.0
 11
-36.442195
 21
-5.513842
 31
0.0
  0
LINE
  5
171
100
AcDbEntity
  8
Layer_1
 62
7
100
AcDbLine
 10
-36.442195
 20
-5.513842
 30
0.0
 11
-36.180250
 21
-6.025749
 31
0.0
  0
LINE
  5
172
100
AcDbEntity
  8
Layer_1
 62
7
100
AcDbLine
 10
-36.180250
 20
-6.025749
 30
0.0
 11
-35.745464
 21
-6.402075
 31
0.0
  0
LINE
  5
173
100
AcDbEntity
  8
Layer_1
 62
7
100
AcDbLine
 10
-35.745464
 20
-6.402075
 30
0.0
 11
-35.179959
 21
-6.589150
 31
0.0
  0
LINE
  5
174
100
AcDbEntity
  8
Layer_1
 62
7
100
AcDbLine
 10
-35.179959
 20
-6.589150
 30
0.0
 11
-34.586170
 21
-6.542159
 31
0.0
  0
LINE
  5
175
100
AcDbEntity
  8
Layer_1
 62
7
100
AcDbLine
 10
-34.586170
 20
-6.542159
 30
0.0
 11
-34.074260
 21
-6.280227
 31
0.0
  0
LINE
  5
176
100
AcDbEntity
  8
Layer_1
 62
7
100
AcDbLine
 10
-34.074260
 20
-6.280227
 30
0.0
 11
-33.697922
 21
-5.845447
 31
0.0
  0
LINE
  5
177
100
AcDbEntity
  8
Layer_1
 62
7
100
AcDbLine
 10
-33.697922
 20
-5.845447
 30
0.0
 11
-33.510849
 21
-5.279944
 31
0.0
  0
LINE
  5
178
100
AcDbEntity
  8
Layer_1
 62
7
100
AcDbLine
 10
-33.510849
 20
-5.279944
 30
0.0
 11
-33.557829
 21
-4.686158
 31
0.0
  0
LINE
  5
179
100
AcDbEntity
  8
Layer_1
 62
7
100
AcDbLine
 10
-33.557829
 20
-4.686158
 30
0.0
 11
-33.819770
 21
-4.174224
 31
0.0
  0
LINE
  5
17a
100
AcDbEntity
  8
Layer_1
 62
7
100
AcDbLine
 10
-33.819770
 20
-4.174224
 30
0.0
 11
-34.254559
 21
-3.797897
 31
0.0
  0
LINE
  5
17b
100
AcDbEntity
  8
Layer_1
 62
7
100
AcDbLine
 10
-34.254559
 20
-3.797897
 30
0.0
 11
-34.820071
 21
-3.610821
 31
0.0
  0
LINE
  5
17c
100
AcDbEntity
  8
Layer_1
 62
7
100
AcDbLine
 10
-34.820071
 20
-3.610821
 30
0.0
 11
-35.413867
 21
-3.657811
 31
0.0
  0
LINE
  5
17d
100
AcDbEntity
  8
Layer_1
 62
7
100
AcDbLine
 10
-35.413867
 20
-3.657811
 30
0.0
 11
-35.925781
 21
-3.919743
 31
0.0
  0
LINE
  5
17e
100
AcDbEntity
  8
Layer_1
 62
7
100
AcDbLine
 10
-35.925781
 20
-3.919743
 30
0.0
 11
-36.302121
 21
-4.354551
 31
0.0
  0
LINE
  5
17f
100
AcDbEntity
  8
Layer_1
 62
7
100
AcDbLine
 10
-36.302121
 20
-4.354551
 30
0.0
 11
-36.489184
 21
-4.920055
 31
0.0
  0
LINE
  5
180
100
AcDbEntity
  8
Layer_1
 62
7
100
AcDbLine
 10
33.510840
 20
-4.920015
 30
0.0
 11
33.557820
 21
-5.513800
 31
0.0
  0
LINE
  5
181
100
AcDbEntity
  8
Layer_1
 62
7
100
AcDbLine
 10
33.557820
 20
-5.513800
 30
0.0
 11
33.819761
 21
-6.025735
 31
0.0
  0
LINE
  5
182
100
AcDbEntity
  8
Layer_1
 62
7
100
AcDbLine
 10
33.819761
 20
-6.025735
 30
0.0
 11
34.254550
 21
-6.402062
 31
0.0
  0
LINE
  5
183
100
AcDbEntity
  8
Layer_1
 62
7
100
AcDbLine
 10
34.254550
 20
-6.402062
 30
0.0
 11
34.820062
 21
-6.589138
 31
0.0
  0
LINE
  5
184
100
AcDbEntity
  8
Layer_1
 62
7
100
AcDbLine
 10
34.820062
 20
-6.589138
 30
0.0
 11
35.413857
 21
-6.542148
 31
0.0
  0
LINE
  5
185
100
AcDbEntity
  8
Layer_1
 62
7
100
AcDbLine
 10
35.413857
 20
-6.542148
 30
0.0
 11
35.925770
 21
-6.280215
 31
0.0
  0
LINE
  5
186
100
AcDbEntity
  8
Layer_1
 62
7
100
AcDbLine
 10
35.925770
 20
-6.280215
 30
0.0
 11
36.302111
 21
-5.845408
 31
0.0
  0
LINE
  5
187
100
AcDbEntity
  8
Layer_1
 62
7
100
AcDbLine
 10
36.302111
 20
-5.845408
 30
0.0
 11
36.489175
 21
-5.279903
 31
0.0
  0
LINE
  5
188
100
AcDbEntity
  8
Layer_1
 62
7
100
AcDbLine
 10
36.489175
 20
-5.279903
 30
0.0
 11
36.442186
 21
-4.686117
 31
0.0
  0
LINE
  5
189
100
AcDbEntity
  8
Layer_1
 62
7
100
AcDbLine
 10
36.442186
 20
-4.686117
 30
0.0
 11
36.180242
 21
-4.174210
 31
0.0
  0
LINE
  5
18a
100
AcDbEntity
  8
Layer_1
 62
7
100
AcDbLine
 10
36.180242
 20
-4.174210
 30
0.0
 11
35.745455
 21
-3.797884
 31
0.0
  0
LINE
  5
18b
100
AcDbEntity
  8
Layer_1
 62
7
100
AcDbLine
 10
35.745455
 20
-3.797884
 30
0.0
 11
35.179949
 21
-3.610809
 31
0.0
  0
LINE
  5
18c
100
AcDbEntity
  8
Layer_1
 62
7
100
AcDbLine
 10
35.179949
 20
-3.610809
 30
0.0
 11
34.586160
 21
-3.657800
 31
0.0
  0
LINE
  5
18d
100
AcDbEntity
  8
Layer_1
 62
7
100
AcDbLine
 10
34.586160
 20
-3.657800
 30
0.0
 11
34.074249
 21
-3.919732
 31
0.0
  0
LINE
  5
18e
100
AcDbEntity
  8
Layer_1
 62
7
100
AcDbLine
 10
34.074249
 20
-3.919732
 30
0.0
 11
33.697912
 21
-4.354512
 31
0.0
  0
LINE
  5
18f
100
AcDbEntity
  8
Layer_1
 62
7
100
AcDbLine
 10
33.697912
 20
-4.354512
 30
0.0
 11
33.510840
 21
-4.920015
 31
0.0
  0
LINE
  5
190
100
AcDbEntity
  8
Layer_1
 62
7
100
AcDbLine
 10
16.871976
 20
-4.864961
 30
0.0
 11
16.887077
 21
-5.261769
 31
0.0
  0
LINE
  5
191
100
AcDbEntity
  8
Layer_1
 62
7
100
AcDbLine
 10
16.887077
 20
-5.261769
 30
0.0
 11
16.753481
 21
-5.621101
 31
0.0
  0
LINE
  5
192
100
AcDbEntity
  8
Layer_1
 62
7
100
AcDbLine
 10
16.753481
 20
-5.621101
 30
0.0
 11
16.494894
 21
-5.904125
 31
0.0
  0
LINE
  5
193
100
AcDbEntity
  8
Layer_1
 62
7
100
AcDbLine
 10
16.494894
 20
-5.904125
 30
0.0
 11
16.135020
 21
-6.071980
 31
0.0
  0
LINE
  5
194
100
AcDbEntity
  8
Layer_1
 62
7
100
AcDbLine
 10
16.135020
 20
-6.071980
 30
0.0
 11
15.738207
 21
-6.087068
 31
0.0
  0
LINE
  5
195
100
AcDbEntity
  8
Layer_1
 62
7
100
AcDbLine
 10
15.738207
 20
-6.087068
 30
0.0
 11
15.378882
 21
-5.953489
 31
0.0
  0
LINE
  5
196
100
AcDbEntity
  8
Layer_1
 62
7
100
AcDbLine
 10
15.378882
 20
-5.953489
 30
0.0
 11
15.095867
 21
-5.694895
 31
0.0
  0
LINE
  5
197
100
AcDbEntity
  8
Layer_1
 62
7
100
AcDbLine
 10
15.095867
 20
-5.694895
 30
0.0
 11
14.927999
 21
-5.335028
 31
0.0
  0
LINE
  5
198
100
AcDbEntity
  8
Layer_1
 62
7
100
AcDbLine
 10
14.927999
 20
-5.335028
 30
0.0
 11
14.912898
 21
-4.938221
 31
0.0
  0
LINE
  5
199
100
AcDbEntity
  8
Layer_1
 62
7
100
AcDbLine
 10
14.912898
 20
-4.938221
 30
0.0
 11
15.046494
 21
-4.578889
 31
0.0
  0
LINE
  5
19a
100
AcDbEntity
  8
Layer_1
 62
7
100
AcDbLine
 10
15.046494
 20
-4.578889
 30
0.0
 11
15.305079
 21
-4.295865
 31
0.0
  0
LINE
  5
19b
100
AcDbEntity
  8
Layer_1
 62
7
100
AcDbLine
 10
15.305079
 20
-4.295865
 30
0.0
 11
15.664955
 21
-4.128010
 31
0.0
  0
LINE
  5
19c
100
AcDbEntity
  8
Layer_1
 62
7
100
AcDbLine
 10
15.664955
 20
-4.128010
 30
0.0
 11
16.061771
 21
-4.112921
 31
0.0
  0
LINE
  5
19d
100
AcDbEntity
  8
Layer_1
 62
7
100
AcDbLine
 10
16.061771
 20
-4.112921
 30
0.0
 11
16.421094
 21
-4.246501
 31
0.0
  0
LINE
  5
19e
100
AcDbEntity
  8
Layer_1
 62
7
100
AcDbLine
 10
16.421094
 20
-4.246501
 30
0.0
 11
16.704108
 21
-4.505094
 31
0.0
  0
LINE
  5
19f
100
AcDbEntity
  8
Layer_1
 62
7
100
AcDbLine
 10
16.704108
 20
-4.505094
 30
0.0
 11
16.871976
 21
-4.864961
 31
0.0
  0
LINE
  5
1a0
100
AcDbEntity
  8
Layer_1
 62
7
100
AcDbLine
 10
-14.928032
 20
-4.864957
 30
0.0
 11
-14.912931
 21
-5.261764
 31
0.0
  0
LINE
  5
1a1
100
AcDbEntity
  8
Layer_1
 62
7
100
AcDbLine
 10
-14.912931
 20
-5.261764
 30
0.0
 11
-15.046526
 21
-5.621096
 31
0.0
  0
LINE
  5
1a2
100
AcDbEntity
  8
Layer_1
 62
7
100
AcDbLine
 10
-15.046526
 20
-5.621096
 30
0.0
 11
-15.305114
 21
-5.904121
 31
0.0
  0
LINE
  5
1a3
100
AcDbEntity
  8
Layer_1
 62
7
100
AcDbLine
 10
-15.305114
 20
-5.904121
 30
0.0
 11
-15.664987
 21
-6.071975
 31
0.0
  0
LINE
  5
1a4
100
AcDbEntity
  8
Layer_1
 62
7
100
AcDbLine
 10
-15.664987
 20
-6.071975
 30
0.0
 11
-16.061801
 21
-6.087064
 31
0.0
  0
LINE
  5
1a5
100
AcDbEntity
  8
Layer_1
 62
7
100
AcDbLine
 10
-16.061801
 20
-6.087064
 30
0.0
 11
-16.421126
 21
-5.953484
 31
0.0
  0
LINE
  5
1a6
100
AcDbEntity
  8
Layer_1
 62
7
100
AcDbLine
 10
-16.421126
 20
-5.953484
 30
0.0
 11
-16.704140
 21
-5.694891
 31
0.0
  0
LINE
  5
1a7
100
AcDbEntity
  8
Layer_1
 62
7
100
AcDbLine
 10
-16.704140
 20
-5.694891
 30
0.0
 11
-16.872008
 21
-5.335023
 31
0.0
  0
LINE
  5
1a8
100
AcDbEntity
  8
Layer_1
 62
7
100
AcDbLine
 10
-16.872008
 20
-5.335023
 30
0.0
 11
-16.887109
 21
-4.938216
 31
0.0
  0
LINE
  5
1a9
100
AcDbEntity
  8
Layer_1
 62
7
100
AcDbLine
 10
-16.887109
 20
-4.938216
 30
0.0
 11
-16.753514
 21
-4.578884
 31
0.0
  0
LINE
  5
1aa
100
AcDbEntity
  8
Layer_1
 62
7
100
AcDbLine
 10
-16.753514
 20
-4.578884
 30
0.0
 11
-16.494929
 21
-4.295860
 31
0.0
  0
LINE
  5
1ab
100
AcDbEntity
  8
Layer_1
 62
7
100
AcDbLine
 10
-16.494929
 20
-4.295860
 30
0.0
 11
-16.135053
 21
-4.128005
 31
0.0
  0
LINE
  5
1ac
100
AcDbEntity
  8
Layer_1
 62
7
100
AcDbLine
 10
-16.135053
 20
-4.128005
 30
0.0
 11
-15.738237
 21
-4.112916
 31
0.0
  0
LINE
  5
1ad
100
AcDbEntity
  8
Layer_1
 62
7
100
AcDbLine
 10
-15.738237
 20
-4.112916
 30
0.0
 11
-15.378914
 21
-4.246496
 31
0.0
  0
LINE
  5
1ae
100
AcDbEntity
  8
Layer_1
 62
7
100
AcDbLine
 10
-15.378914
 20
-4.246496
 30
0.0
 11
-15.095900
 21
-4.505089
 31
0.0
  0
LINE
  5
1af
100
AcDbEntity
  8
Layer_1
 62
7
100
AcDbLine
 10
-15.095900
 20
-4.505089
 30
0.0
 11
-14.928032
 21
-4.864957
 31
0.0
  0
LINE
  5
1b0
100
AcDbEntity
  8
Layer_1
 62
7
100
AcDbLine
 10
-7.000025
 20
-7.500026
 30
0.0
 11
-3.500018
 21
-7.500026
 31
0.0
  0
LINE
  5
1b1
100
AcDbEntity
  8
Layer_1
 62
7
100
AcDbLine
 10
-3.500018
 20
-7.500026
 30
0.0
 11
-0.000011
 21
-7.500026
 31
0.0
  0
LINE
  5
1b2
100
AcDbEntity
  8
Layer_1
 62
7
100
AcDbLine
 10
-0.000011
 20
-7.500026
 30
0.0
 11
3.499996
 21
-7.500026
 31
0.0
  0
LINE
  5
1b3
100
AcDbEntity
  8
Layer_1
 62
7
100
AcDbLine
 10
3.499996
 20
-7.500026
 30
0.0
 11
7.000003
 21
-7.500026
 31
0.0
  0
LINE
  5
1b4
100
AcDbEntity
  8
Layer_1
 62
7
100
AcDbLine
 10
7.000003
 20
-7.500026
 30
0.0
 11
8.734370
 21
-5.449258
 31
0.0
  0
LINE
  5
1b5
100
AcDbEntity
  8
Layer_1
 62
7
100
AcDbLine
 10
8.734370
 20
-5.449258
 30
0.0
 11
9.624990
 21
-3.281284
 31
0.0
  0
LINE
  5
1b6
100
AcDbEntity
  8
Layer_1
 62
7
100
AcDbLine
 10
9.624990
 20
-3.281284
 30
0.0
 11
9.953114
 21
-1.347694
 31
0.0
  0
LINE
  5
1b7
100
AcDbEntity
  8
Layer_1
 62
7
100
AcDbLine
 10
9.953114
 20
-1.347694
 30
0.0
 11
9.999989
 21
-0.000055
 31
0.0
  0
LINE
  5
1b8
100
AcDbEntity
  8
Layer_1
 62
7
100
AcDbLine
 10
9.999989
 20
-0.000055
 30
0.0
 11
9.953114
 21
1.347612
 31
0.0
  0
LINE
  5
1b9
100
AcDbEntity
  8
Layer_1
 62
7
100
AcDbLine
 10
9.953114
 20
1.347612
 30
0.0
 11
9.624990
 21
3.281202
 31
0.0
  0
LINE
  5
1ba
100
AcDbEntity
  8
Layer_1
 62
7
100
AcDbLine
 10
9.624990
 20
3.281202
 30
0.0
 11
8.734370
 21
5.449204
 31
0.0
  0
LINE
  5
1bb
100
AcDbEntity
  8
Layer_1
 62
7
100
AcDbLine
 10
8.734370
 20
5.449204
 30
0.0
 11
7.000003
 21
7.500000
 31
0.0
  0
LINE
  5
1bc
100
AcDbEntity
  8
Layer_1
 62
7
100
AcDbLine
 10
7.000003
 20
7.500000
 30
0.0
 11
3.499996
 21
7.500000
 31
0.0
  0
LINE
  5
1bd
100
AcDbEntity
  8
Layer_1
 62
7
100
AcDbLine
 10
3.499996
 20
7.500000
 30
0.0
 11
-0.000011
 21
7.500000
 31
0.0
  0
LINE
  5
1be
100
AcDbEntity
  8
Layer_1
 62
7
100
AcDbLine
 10
-0.000011
 20
7.500000
 30
0.0
 11
-3.500018
 21
7.500000
 31
0.0
  0
LINE
  5
1bf
100
AcDbEntity
  8
Layer_1
 62
7
100
AcDbLine
 10
-3.500018
 20
7.500000
 30
0.0
 11
-7.000025
 21
7.500000
 31
0.0
  0
LINE
  5
1c0
100
AcDbEntity
  8
Layer_1
 62
7
100
AcDbLine
 10
-7.000025
 20
7.500000
 30
0.0
 11
-8.734392
 21
5.449204
 31
0.0
  0
LINE
  5
1c1
100
AcDbEntity
  8
Layer_1
 62
7
100
AcDbLine
 10
-8.734392
 20
5.449204
 30
0.0
 11
-9.625012
 21
3.281202
 31
0.0
  0
LINE
  5
1c2
100
AcDbEntity
  8
Layer_1
 62
7
100
AcDbLine
 10
-9.625012
 20
3.281202
 30
0.0
 11
-9.953136
 21
1.347612
 31
0.0
  0
LINE
  5
1c3
100
AcDbEntity
  8
Layer_1
 62
7
100
AcDbLine
 10
-9.953136
 20
1.347612
 30
0.0
 11
-10.000011
 21
-0.000055
 31
0.0
  0
LINE
  5
1c4
100
AcDbEntity
  8
Layer_1
 62
7
100
AcDbLine
 10
-10.000011
 20
-0.000055
 30
0.0
 11
-9.953136
 21
-1.347694
 31
0.0
  0
LINE
  5
1c5
100
AcDbEntity
  8
Layer_1
 62
7
100
AcDbLine
 10
-9.953136
 20
-1.347694
 30
0.0
 11
-9.625012
 21
-3.281284
 31
0.0
  0
LINE
  5
1c6
100
AcDbEntity
  8
Layer_1
 62
7
100
AcDbLine
 10
-9.625012
 20
-3.281284
 30
0.0
 11
-8.734392
 21
-5.449258
 31
0.0
  0
LINE
  5
1c7
100
AcDbEntity
  8
Layer_1
 62
7
100
AcDbLine
 10
-8.734392
 20
-5.449258
 30
0.0
 11
-7.000025
 21
-7.500026
 31
0.0
  0
ENDSEC
  0
SECTION
  2
OBJECTS
  0
DICTIONARY
  5
C
330
0
100
AcDbDictionary
  3
ACAD_GROUP
350
D
  3
ACAD_MLINESTYLE
350
17
  0
DICTIONARY
  5
D
330
C
100
AcDbDictionary
  0
DICTIONARY
  5
1A
330
C
100
AcDbDictionary
  0
DICTIONARY
  5
17
330
C
100
AcDbDictionary
  3
STANDARD
350
18
  0
DICTIONARY
  5
19
330
C
100
AcDbDictionary
  0
ENDSEC
  0
EOF
