<?xml version="1.0" encoding="UTF-8" standalone="no"?>
<!-- Created with Inkscape (http://www.inkscape.org/) -->

<svg
   xmlns:dc="http://purl.org/dc/elements/1.1/"
   xmlns:cc="http://creativecommons.org/ns#"
   xmlns:rdf="http://www.w3.org/1999/02/22-rdf-syntax-ns#"
   xmlns:svg="http://www.w3.org/2000/svg"
   xmlns="http://www.w3.org/2000/svg"
   xmlns:sodipodi="http://sodipodi.sourceforge.net/DTD/sodipodi-0.dtd"
   xmlns:inkscape="http://www.inkscape.org/namespaces/inkscape"
   width="210mm"
   height="297mm"
   viewBox="0 0 744.09448819 1052.3622047"
   id="svg4979"
   version="1.1"
   inkscape:version="0.91 r13725"
   sodipodi:docname="box-wheels-inside-43d.svg">
  <defs
     id="defs4981" />
  <sodipodi:namedview
     id="base"
     pagecolor="#ffffff"
     bordercolor="#666666"
     borderopacity="1.0"
     inkscape:pageopacity="0.0"
     inkscape:pageshadow="2"
     inkscape:zoom="0.7"
     inkscape:cx="-349.63761"
     inkscape:cy="180.32374"
     inkscape:document-units="mm"
     inkscape:current-layer="layer1"
     showgrid="true"
     inkscape:window-width="1366"
     inkscape:window-height="705"
     inkscape:window-x="-8"
     inkscape:window-y="-8"
     inkscape:window-maximized="1"
     showguides="true"
     inkscape:guide-bbox="true">
    <inkscape:grid
       type="xygrid"
       id="grid6193"
       units="mm"
       spacingx="3.5433071"
       spacingy="3.5433072" />
    <sodipodi:guide
       position="194.88189,0"
       orientation="0,1"
       id="guide4144" />
    <sodipodi:guide
       position="0,124.01575"
       orientation="1,0"
       id="guide4146" />
  </sodipodi:namedview>
  <metadata
     id="metadata4984">
    <rdf:RDF>
      <cc:Work
         rdf:about="">
        <dc:format>image/svg+xml</dc:format>
        <dc:type
           rdf:resource="http://purl.org/dc/dcmitype/StillImage" />
        <dc:title />
      </cc:Work>
    </rdf:RDF>
  </metadata>
  <g
     inkscape:label="Layer 1"
     inkscape:groupmode="layer"
     id="layer1">
    <path
       transform="scale(1,-1)"
       style="display:inline;fill:#d35f5f;fill-opacity:1;stroke:none;stroke-width:1.77165353;stroke-linejoin:round;stroke-miterlimit:4;stroke-dasharray:none;stroke-dashoffset:8;stroke-opacity:1"
       d="m -170.07874,-1090.9843 85.03937,0 85.03937,0 85.03937,0 85.03937,0 5.52712,1.1104 4.50398,3.0317 3.03175,4.5041 1.11038,5.5271 0,29.8524 0,29.8523 0,29.85236 0,29.85236 -1.11038,5.52712 -3.03175,4.50398 -4.50398,3.03175 -5.52712,1.11038 -85.03937,0 -85.03937,0 -85.03937,0 -85.03937,0 -5.52712,-1.11038 -4.50398,-3.03175 -3.03175,-4.50398 -1.11038,-5.52712 0,-29.85236 0,-29.85236 0,-29.8523 0,-29.8524 1.11038,-5.5271 3.03175,-4.5041 4.50398,-3.0317 z"
       id="rect4018-6"
       inkscape:connector-curvature="0"
       sodipodi:nodetypes="ccccccccccccccccccccccccccccccccc" />
    <path
       style="display:inline;opacity:1;fill:#ffe680;fill-opacity:1;stroke:none;stroke-width:1.77165353;stroke-linejoin:round;stroke-miterlimit:4;stroke-dasharray:none;stroke-dashoffset:8;stroke-opacity:1"
       d="M 5.3150061,956.33856 4.89733,958.40738 3.7582901,960.0968 2.068868,961.23584 4.5656219e-5,961.65352 -2.0687767,961.23584 l -1.689422,-1.13904 -1.13904,-1.68942 -0.4176761,-2.06882 0.4176758,-2.06882 1.13904,-1.68942 1.6894222,-1.13904 L 4.5656219e-5,951.0236 2.0688681,951.44128 l 1.6894222,1.13904 1.13904,1.68942 z"
       id="path5259-61-5-6-7"
       inkscape:connector-curvature="0"
       sodipodi:nodetypes="ccccccccccccccccc" />
    <path
       style="display:inline;opacity:1;fill:#ffe680;fill-opacity:1;stroke:none;stroke-width:1.77165353;stroke-linejoin:round;stroke-miterlimit:4;stroke-dasharray:none;stroke-dashoffset:8;stroke-opacity:1"
       d="m -164.76373,956.33856 -0.41768,2.06882 -1.13904,1.68942 -1.68942,1.13904 -2.06882,0.41768 -2.06882,-0.41768 -1.68942,-1.13904 -1.13904,-1.68942 -0.41768,-2.06882 0.41768,-2.06882 1.13904,-1.68942 1.68942,-1.13904 2.06882,-0.41768 2.06882,0.41768 1.68942,1.13904 1.13904,1.68942 z"
       id="path5259-61-5-5-3"
       inkscape:connector-curvature="0"
       sodipodi:nodetypes="ccccccccccccccccc" />
    <path
       style="display:inline;opacity:1;fill:#ffe680;fill-opacity:1;stroke:none;stroke-width:1.77165353;stroke-linejoin:round;stroke-miterlimit:4;stroke-dasharray:none;stroke-dashoffset:8;stroke-opacity:1"
       d="m -164.76373,1076.811 -0.41766,2.0688 -1.13904,1.6895 -1.68943,1.139 -2.06883,0.4177 -2.06883,-0.4177 -1.68943,-1.139 -1.13904,-1.6895 -0.41766,-2.0688 0.41769,-2.0688 1.13904,-1.6894 1.68942,-1.139 2.06881,-0.4177 2.06881,0.4177 1.68942,1.139 1.13904,1.6894 z"
       id="path5259-61-5-54-9"
       inkscape:connector-curvature="0"
       sodipodi:nodetypes="ccccccccccccccccc" />
    <path
       style="display:inline;opacity:1;fill:#ffe680;fill-opacity:1;stroke:none;stroke-width:1.77165353;stroke-linejoin:round;stroke-miterlimit:4;stroke-dasharray:none;stroke-dashoffset:8;stroke-opacity:1"
       d="m 175.39373,956.33856 -0.41768,2.06882 -1.13904,1.68942 -1.68942,1.13904 -2.06882,0.41768 -2.06882,-0.41768 -1.68942,-1.13904 -1.13904,-1.68942 -0.41768,-2.06882 0.41768,-2.06882 1.13904,-1.68942 1.68942,-1.13904 2.06882,-0.41768 2.06882,0.41768 1.68942,1.13904 1.13904,1.68942 z"
       id="path5259-61-5-41-2"
       inkscape:connector-curvature="0"
       sodipodi:nodetypes="ccccccccccccccccc" />
    <path
       style="display:inline;opacity:1;fill:#ffe680;fill-opacity:1;stroke:none;stroke-width:1.77165353;stroke-linejoin:round;stroke-miterlimit:4;stroke-dasharray:none;stroke-dashoffset:8;stroke-opacity:1"
       d="m 175.39373,1076.811 -0.41766,2.0688 -1.13904,1.6895 -1.68943,1.139 -2.06883,0.4177 -2.06883,-0.4177 -1.68943,-1.139 -1.13904,-1.6895 -0.41766,-2.0688 0.41769,-2.0688 1.13904,-1.6894 1.68942,-1.139 2.06881,-0.4177 2.06881,0.4177 1.68942,1.139 1.13904,1.6894 z"
       id="path5259-61-5-68-6"
       inkscape:connector-curvature="0"
       sodipodi:nodetypes="ccccccccccccccccc" />
    <path
       transform="matrix(-0.99277839,-0.11996278,-0.11996278,0.99277839,0,0)"
       style="display:inline;fill:#002255;fill-opacity:1;stroke:none;stroke-width:1"
       d="m 3.1686108,1051.5488 -0.4176646,2.0688 -1.1390373,1.6895 -1.68942654,1.139 -2.06883206,0.4177 -2.068832,-0.4177 -1.6894265,-1.139 -1.1390373,-1.6895 -0.4176646,-2.0688 0.4176885,-2.0688 1.1390444,-1.6894 1.6894181,-1.139 2.0688094,-0.4177 2.06880945,0.4177 1.68941815,1.139 1.1390444,1.6894 z"
       id="path12890-1-8-8"
       inkscape:connector-curvature="0"
       sodipodi:nodetypes="ccccccccccccccccc" />
    <path
       transform="matrix(-0.99277839,-0.11996278,-0.11996278,0.99277839,0,0)"
       style="display:inline;fill:#002255;fill-opacity:1;stroke:none;stroke-width:1"
       d="m -243.07173,1021.7944 -0.41769,2.0688 -1.13905,1.6894 -1.68941,1.139 -2.06881,0.4177 -2.06881,-0.4177 -1.68941,-1.139 -1.13905,-1.6894 -0.41769,-2.0688 0.41766,-2.0688 1.13904,-1.6895 1.68943,-1.139 2.06883,-0.4177 2.06883,0.4177 1.68943,1.139 1.13904,1.6895 z"
       id="path12890-1-8-2-4"
       inkscape:connector-curvature="0"
       sodipodi:nodetypes="ccccccccccccccccc" />
    <path
       transform="matrix(0.97198734,-0.23503322,0.23503322,0.97198734,0,0)"
       style="display:inline;fill:#002255;fill-opacity:1;stroke:none;stroke-width:1"
       d="m -184.7059,1018.2151 -0.27845,1.3792 -0.75936,1.1263 -1.12629,0.7594 -1.37921,0.2784 -1.37921,-0.2785 -1.12628,-0.7593 -0.75936,-1.1263 -0.27845,-1.3792 0.27845,-1.3792 0.75936,-1.1263 1.12628,-0.7593 1.37921,-0.2785 1.37922,0.2784 1.12628,0.7594 0.75936,1.1263 z"
       id="path12644-11-37"
       inkscape:connector-curvature="0"
       sodipodi:nodetypes="ccccccccccccccccc" />
    <path
       transform="matrix(0.97198734,-0.23503322,0.23503322,0.97198734,0,0)"
       style="display:inline;fill:#002255;fill-opacity:1;stroke:none;stroke-width:1"
       d="m -294.22656,991.73224 -0.27845,1.37922 -0.75936,1.12628 -1.12628,0.75936 -1.37922,0.27845 -1.37921,-0.27845 -1.12628,-0.75936 -0.75936,-1.12629 -0.27845,-1.37921 0.27845,-1.37921 0.75936,-1.12629 1.12628,-0.75936 1.37921,-0.27845 1.37922,0.27845 1.12628,0.75936 0.75936,1.12628 z"
       id="path12644-3-43"
       inkscape:connector-curvature="0"
       sodipodi:nodetypes="ccccccccccccccccc" />
    <path
       transform="matrix(0.97198734,-0.23503322,0.23503322,0.97198734,0,0)"
       style="display:inline;fill:#002255;fill-opacity:1;stroke:none;stroke-width:1"
       d="m -323.9342,939.71002 -0.27845,1.37922 -0.75936,1.12628 -1.12628,0.75936 -1.37922,0.27845 -1.37922,-0.27845 -1.12628,-0.75936 -0.75936,-1.12628 -0.27845,-1.37922 0.27845,-1.37922 0.75936,-1.12628 1.12628,-0.75936 1.37922,-0.27845 1.37922,0.27845 1.12628,0.75936 0.75936,1.12628 z"
       id="path12644-3-7-7"
       inkscape:connector-curvature="0"
       sodipodi:nodetypes="ccccccccccccccccc" />
    <path
       transform="matrix(0.97198734,-0.23503322,0.23503322,0.97198734,0,0)"
       style="display:inline;fill:#002255;fill-opacity:1;stroke:none;stroke-width:1"
       d="m -134.51152,985.51373 -0.27845,1.37921 -0.75936,1.12629 -1.12628,0.75936 -1.37921,0.27845 -1.37922,-0.27845 -1.12628,-0.75936 -0.75936,-1.12628 -0.27845,-1.37922 0.27845,-1.37921 0.75936,-1.12628 1.12629,-0.75936 1.37921,-0.27845 1.37921,0.27845 1.12628,0.75936 0.75936,1.12628 z"
       id="path12644-3-69-3"
       inkscape:connector-curvature="0"
       sodipodi:nodetypes="ccccccccccccccccc" />
    <path
       style="display:inline;opacity:1;fill:#ffe680;fill-opacity:1;stroke:none;stroke-width:1.77165353;stroke-linejoin:round;stroke-miterlimit:4;stroke-dasharray:none;stroke-dashoffset:8;stroke-opacity:1"
       d="M 5.3150061,990.35431 4.89733,992.42313 3.7582901,994.11255 2.068868,995.25159 4.5656219e-5,995.66927 -2.0687767,995.25159 l -1.689422,-1.13904 -1.13904,-1.68942 -0.4176761,-2.06882 0.4176758,-2.06882 1.13904,-1.68942 1.6894222,-1.13904 2.068822456219,-0.41768 2.068822443781,0.41768 1.6894222,1.13904 1.13904,1.68942 z"
       id="path5259-61-5-6-9-77"
       inkscape:connector-curvature="0"
       sodipodi:nodetypes="ccccccccccccccccc" />
    <path
       style="display:inline;opacity:1;fill:#ffe680;fill-opacity:1;stroke:none;stroke-width:1.77165353;stroke-linejoin:round;stroke-miterlimit:4;stroke-dasharray:none;stroke-dashoffset:8;stroke-opacity:1"
       d="m -164.76373,1011.6142 -0.41766,2.0688 -1.13904,1.6895 -1.68943,1.139 -2.06883,0.4177 -2.06883,-0.4177 -1.68943,-1.139 -1.13904,-1.6895 -0.41766,-2.0688 0.41766,-2.0688 1.13904,-1.6895 1.68943,-1.139 2.06883,-0.4177 2.06883,0.4177 1.68943,1.139 1.13904,1.6895 z"
       id="path5259-61-5-5-0-63"
       inkscape:connector-curvature="0"
       sodipodi:nodetypes="ccccccccccccccccc" />
    <path
       style="display:inline;opacity:1;fill:#ffe680;fill-opacity:1;stroke:none;stroke-width:1.77165353;stroke-linejoin:round;stroke-miterlimit:4;stroke-dasharray:none;stroke-dashoffset:8;stroke-opacity:1"
       d="m 175.39373,1011.6142 -0.41766,2.0688 -1.13904,1.6895 -1.68943,1.139 -2.06883,0.4177 -2.06883,-0.4177 -1.68943,-1.139 -1.13904,-1.6895 -0.41766,-2.0688 0.41766,-2.0688 1.13904,-1.6895 1.68943,-1.139 2.06883,-0.4177 2.06883,0.4177 1.68943,1.139 1.13904,1.6895 z"
       id="path5259-61-5-5-2-4"
       inkscape:connector-curvature="0"
       sodipodi:nodetypes="ccccccccccccccccc" />
  </g>
</svg>
