  0
SECTION
  2
HEADER
  9
$ACADVER
  1
AC1014
  9
$HANDSEED
  5
FFFF
  9
$MEASUREMENT
 70
     1
  0
ENDSEC
  0
SECTION
  2
TABLES
  0
TABLE
  2
VPORT
  5
8
330
0
100
AcDbSymbolTable
 70
     4
  0
VPORT
  5
2E
330
8
100
AcDbSymbolTableRecord
100
AcDbViewportTableRecord
  2
*ACTIVE
 70
     0
 10
0.0
 20
0.0
 11
1.0
 21
1.0
 12
210.0
 22
148.5
 13
0.0
 23
0.0
 14
10.0
 24
10.0
 15
10.0
 25
10.0
 16
0.0
 26
0.0
 36
1.0
 17
0.0
 27
0.0
 37
0.0
 40
341.0
 41
1.24
 42
50.0
 43
0.0
 44
0.0
 50
0.0
 51
0.0
 71
     0
 72
   100
 73
     1
 74
     3
 75
     0
 76
     0
 77
     0
 78
     0
  0
ENDTAB
  0
TABLE
  2
LTYPE
  5
5
330
0
100
AcDbSymbolTable
 70
     1
  0
LTYPE
  5
14
330
5
100
AcDbSymbolTableRecord
100
AcDbLinetypeTableRecord
  2
BYBLOCK
 70
     0
  3

 72
    65
 73
     0
 40
0.0
  0
LTYPE
  5
15
330
5
100
AcDbSymbolTableRecord
100
AcDbLinetypeTableRecord
  2
BYLAYER
 70
     0
  3

 72
    65
 73
     0
 40
0.0
  0
LTYPE
  5
16
330
5
100
AcDbSymbolTableRecord
100
AcDbLinetypeTableRecord
  2
CONTINUOUS
 70
     0
  3
Solid line
 72
    65
 73
     0
 40
0.0
  0
ENDTAB
  0
TABLE
  2
LAYER
  5
2
100
AcDbSymbolTable
 70
2
  0
LAYER
  5
50
100
AcDbSymbolTableRecord
100
AcDbLayerTableRecord
  2
0
 70
0
  6
CONTINUOUS
  0
LAYER
  5
51
100
AcDbSymbolTableRecord
100
AcDbLayerTableRecord
  2
Layer_1
 70
0
  6
CONTINUOUS
  0
ENDTAB
  0
TABLE
  2
STYLE
  5
3
330
0
100
AcDbSymbolTable
 70
     1
  0
STYLE
  5
11
330
3
100
AcDbSymbolTableRecord
100
AcDbTextStyleTableRecord
  2
STANDARD
 70
     0
 40
0.0
 41
1.0
 50
0.0
 71
     0
 42
2.5
  3
txt
  4

  0
ENDTAB
  0
TABLE
  2
VIEW
  5
6
330
0
100
AcDbSymbolTable
 70
     0
  0
ENDTAB
  0
TABLE
  2
UCS
  5
7
330
0
100
AcDbSymbolTable
 70
     0
  0
ENDTAB
  0
TABLE
  2
APPID
  5
9
330
0
100
AcDbSymbolTable
 70
     2
  0
APPID
  5
12
330
9
100
AcDbSymbolTableRecord
100
AcDbRegAppTableRecord
  2
ACAD
 70
     0
  0
ENDTAB
  0
TABLE
  2
DIMSTYLE
  5
A
330
0
100
AcDbSymbolTable
 70
     1
  0
DIMSTYLE
105
27
330
A
100
AcDbSymbolTableRecord
100
AcDbDimStyleTableRecord
  2
ISO-25
 70
     0
  3

  4

  5

  6

  7

 40
1.0
 41
2.5
 42
0.625
 43
3.75
 44
1.25
 45
0.0
 46
0.0
 47
0.0
 48
0.0
140
2.5
141
2.5
142
0.0
143
0.03937007874016
144
1.0
145
0.0
146
1.0
147
0.625
 71
     0
 72
     0
 73
     0
 74
     0
 75
     0
 76
     0
 77
     1
 78
     8
170
     0
171
     3
172
     1
173
     0
174
     0
175
     0
176
     0
177
     0
178
     0
270
     2
271
     2
272
     2
273
     2
274
     3
340
11
275
     0
280
     0
281
     0
282
     0
283
     0
284
     8
285
     0
286
     0
287
     3
288
     0
  0
ENDTAB
  0
TABLE
  2
BLOCK_RECORD
  5
1
330
0
100
AcDbSymbolTable
 70
     1
  0
BLOCK_RECORD
  5
1F
330
1
100
AcDbSymbolTableRecord
100
AcDbBlockTableRecord
  2
*MODEL_SPACE
  0
BLOCK_RECORD
  5
1B
330
1
100
AcDbSymbolTableRecord
100
AcDbBlockTableRecord
  2
*PAPER_SPACE
  0
ENDTAB
  0
ENDSEC
  0
SECTION
  2
BLOCKS
  0
BLOCK
  5
20
330
1F
100
AcDbEntity
  8
0
100
AcDbBlockBegin
  2
*MODEL_SPACE
 70
     0
 10
0.0
 20
0.0
 30
0.0
  3
*MODEL_SPACE
  1

  0
ENDBLK
  5
21
330
1F
100
AcDbEntity
  8
0
100
AcDbBlockEnd
  0
BLOCK
  5
1C
330
1B
100
AcDbEntity
 67
     1
  8
0
100
AcDbBlockBegin
  2
*PAPER_SPACE
  1

  0
ENDBLK
  5
1D
330
1B
100
AcDbEntity
 67
     1
  8
0
100
AcDbBlockEnd
  0
ENDSEC
  0
SECTION
  2
ENTITIES
  0
LINE
  5
100
100
AcDbEntity
  8
Layer_1
 62
7
100
AcDbLine
 10
-48.000000
 20
-10.900014
 30
0.0
 11
-24.000000
 21
-10.900014
 31
0.0
  0
LINE
  5
101
100
AcDbEntity
  8
Layer_1
 62
7
100
AcDbLine
 10
-24.000000
 20
-10.900014
 30
0.0
 11
0.000000
 21
-10.900014
 31
0.0
  0
LINE
  5
102
100
AcDbEntity
  8
Layer_1
 62
7
100
AcDbLine
 10
0.000000
 20
-10.900014
 30
0.0
 11
24.000000
 21
-10.900014
 31
0.0
  0
LINE
  5
103
100
AcDbEntity
  8
Layer_1
 62
7
100
AcDbLine
 10
24.000000
 20
-10.900014
 30
0.0
 11
48.000000
 21
-10.900014
 31
0.0
  0
LINE
  5
104
100
AcDbEntity
  8
Layer_1
 62
7
100
AcDbLine
 10
48.000000
 20
-10.900014
 30
0.0
 11
49.559876
 21
-10.586634
 31
0.0
  0
LINE
  5
105
100
AcDbEntity
  8
Layer_1
 62
7
100
AcDbLine
 10
49.559876
 20
-10.586634
 30
0.0
 11
50.830999
 21
-9.731021
 31
0.0
  0
LINE
  5
106
100
AcDbEntity
  8
Layer_1
 62
7
100
AcDbLine
 10
50.830999
 20
-9.731021
 30
0.0
 11
51.686627
 21
-8.459864
 31
0.0
  0
LINE
  5
107
100
AcDbEntity
  8
Layer_1
 62
7
100
AcDbLine
 10
51.686627
 20
-8.459864
 30
0.0
 11
52.000000
 21
-6.899993
 31
0.0
  0
LINE
  5
108
100
AcDbEntity
  8
Layer_1
 62
7
100
AcDbLine
 10
52.000000
 20
-6.899993
 30
0.0
 11
52.000000
 21
1.525017
 31
0.0
  0
LINE
  5
109
100
AcDbEntity
  8
Layer_1
 62
7
100
AcDbLine
 10
52.000000
 20
1.525017
 30
0.0
 11
52.000000
 21
9.950000
 31
0.0
  0
LINE
  5
10a
100
AcDbEntity
  8
Layer_1
 62
7
100
AcDbLine
 10
52.000000
 20
9.950000
 30
0.0
 11
52.000000
 21
18.374999
 31
0.0
  0
LINE
  5
10b
100
AcDbEntity
  8
Layer_1
 62
7
100
AcDbLine
 10
52.000000
 20
18.374999
 30
0.0
 11
52.000000
 21
26.799999
 31
0.0
  0
LINE
  5
10c
100
AcDbEntity
  8
Layer_1
 62
7
100
AcDbLine
 10
52.000000
 20
26.799999
 30
0.0
 11
51.686627
 21
28.359875
 31
0.0
  0
LINE
  5
10d
100
AcDbEntity
  8
Layer_1
 62
7
100
AcDbLine
 10
51.686627
 20
28.359875
 30
0.0
 11
50.830999
 21
29.630998
 31
0.0
  0
LINE
  5
10e
100
AcDbEntity
  8
Layer_1
 62
7
100
AcDbLine
 10
50.830999
 20
29.630998
 30
0.0
 11
49.559876
 21
30.486625
 31
0.0
  0
LINE
  5
10f
100
AcDbEntity
  8
Layer_1
 62
7
100
AcDbLine
 10
49.559876
 20
30.486625
 30
0.0
 11
48.000000
 21
30.799999
 31
0.0
  0
LINE
  5
110
100
AcDbEntity
  8
Layer_1
 62
7
100
AcDbLine
 10
48.000000
 20
30.799999
 30
0.0
 11
24.000000
 21
30.799999
 31
0.0
  0
LINE
  5
111
100
AcDbEntity
  8
Layer_1
 62
7
100
AcDbLine
 10
24.000000
 20
30.799999
 30
0.0
 11
0.000000
 21
30.799999
 31
0.0
  0
LINE
  5
112
100
AcDbEntity
  8
Layer_1
 62
7
100
AcDbLine
 10
0.000000
 20
30.799999
 30
0.0
 11
-24.000000
 21
30.799999
 31
0.0
  0
LINE
  5
113
100
AcDbEntity
  8
Layer_1
 62
7
100
AcDbLine
 10
-24.000000
 20
30.799999
 30
0.0
 11
-48.000000
 21
30.799999
 31
0.0
  0
LINE
  5
114
100
AcDbEntity
  8
Layer_1
 62
7
100
AcDbLine
 10
-48.000000
 20
30.799999
 30
0.0
 11
-49.559876
 21
30.486625
 31
0.0
  0
LINE
  5
115
100
AcDbEntity
  8
Layer_1
 62
7
100
AcDbLine
 10
-49.559876
 20
30.486625
 30
0.0
 11
-50.830999
 21
29.630998
 31
0.0
  0
LINE
  5
116
100
AcDbEntity
  8
Layer_1
 62
7
100
AcDbLine
 10
-50.830999
 20
29.630998
 30
0.0
 11
-51.686627
 21
28.359875
 31
0.0
  0
LINE
  5
117
100
AcDbEntity
  8
Layer_1
 62
7
100
AcDbLine
 10
-51.686627
 20
28.359875
 30
0.0
 11
-52.000000
 21
26.799999
 31
0.0
  0
LINE
  5
118
100
AcDbEntity
  8
Layer_1
 62
7
100
AcDbLine
 10
-52.000000
 20
26.799999
 30
0.0
 11
-52.000000
 21
18.374999
 31
0.0
  0
LINE
  5
119
100
AcDbEntity
  8
Layer_1
 62
7
100
AcDbLine
 10
-52.000000
 20
18.374999
 30
0.0
 11
-52.000000
 21
9.950000
 31
0.0
  0
LINE
  5
11a
100
AcDbEntity
  8
Layer_1
 62
7
100
AcDbLine
 10
-52.000000
 20
9.950000
 30
0.0
 11
-52.000000
 21
1.525017
 31
0.0
  0
LINE
  5
11b
100
AcDbEntity
  8
Layer_1
 62
7
100
AcDbLine
 10
-52.000000
 20
1.525017
 30
0.0
 11
-52.000000
 21
-6.899993
 31
0.0
  0
LINE
  5
11c
100
AcDbEntity
  8
Layer_1
 62
7
100
AcDbLine
 10
-52.000000
 20
-6.899993
 30
0.0
 11
-51.686627
 21
-8.459864
 31
0.0
  0
LINE
  5
11d
100
AcDbEntity
  8
Layer_1
 62
7
100
AcDbLine
 10
-51.686627
 20
-8.459864
 30
0.0
 11
-50.830999
 21
-9.731021
 31
0.0
  0
LINE
  5
11e
100
AcDbEntity
  8
Layer_1
 62
7
100
AcDbLine
 10
-50.830999
 20
-9.731021
 30
0.0
 11
-49.559876
 21
-10.586634
 31
0.0
  0
LINE
  5
11f
100
AcDbEntity
  8
Layer_1
 62
7
100
AcDbLine
 10
-49.559876
 20
-10.586634
 30
0.0
 11
-48.000000
 21
-10.900014
 31
0.0
  0
LINE
  5
120
100
AcDbEntity
  8
Layer_1
 62
7
100
AcDbLine
 10
1.500013
 20
27.100006
 30
0.0
 11
1.382135
 21
26.516139
 31
0.0
  0
LINE
  5
121
100
AcDbEntity
  8
Layer_1
 62
7
100
AcDbLine
 10
1.382135
 20
26.516139
 30
0.0
 11
1.060673
 21
26.039348
 31
0.0
  0
LINE
  5
122
100
AcDbEntity
  8
Layer_1
 62
7
100
AcDbLine
 10
1.060673
 20
26.039348
 30
0.0
 11
0.583881
 21
25.717885
 31
0.0
  0
LINE
  5
123
100
AcDbEntity
  8
Layer_1
 62
7
100
AcDbLine
 10
0.583881
 20
25.717885
 30
0.0
 11
0.000013
 21
25.600007
 31
0.0
  0
LINE
  5
124
100
AcDbEntity
  8
Layer_1
 62
7
100
AcDbLine
 10
0.000013
 20
25.600007
 30
0.0
 11
-0.583855
 21
25.717885
 31
0.0
  0
LINE
  5
125
100
AcDbEntity
  8
Layer_1
 62
7
100
AcDbLine
 10
-0.583855
 20
25.717885
 30
0.0
 11
-1.060647
 21
26.039348
 31
0.0
  0
LINE
  5
126
100
AcDbEntity
  8
Layer_1
 62
7
100
AcDbLine
 10
-1.060647
 20
26.039348
 30
0.0
 11
-1.382110
 21
26.516139
 31
0.0
  0
LINE
  5
127
100
AcDbEntity
  8
Layer_1
 62
7
100
AcDbLine
 10
-1.382110
 20
26.516139
 30
0.0
 11
-1.499987
 21
27.100006
 31
0.0
  0
LINE
  5
128
100
AcDbEntity
  8
Layer_1
 62
7
100
AcDbLine
 10
-1.499987
 20
27.100006
 30
0.0
 11
-1.382110
 21
27.683873
 31
0.0
  0
LINE
  5
129
100
AcDbEntity
  8
Layer_1
 62
7
100
AcDbLine
 10
-1.382110
 20
27.683873
 30
0.0
 11
-1.060647
 21
28.160665
 31
0.0
  0
LINE
  5
12a
100
AcDbEntity
  8
Layer_1
 62
7
100
AcDbLine
 10
-1.060647
 20
28.160665
 30
0.0
 11
-0.583855
 21
28.482128
 31
0.0
  0
LINE
  5
12b
100
AcDbEntity
  8
Layer_1
 62
7
100
AcDbLine
 10
-0.583855
 20
28.482128
 30
0.0
 11
0.000013
 21
28.600006
 31
0.0
  0
LINE
  5
12c
100
AcDbEntity
  8
Layer_1
 62
7
100
AcDbLine
 10
0.000013
 20
28.600006
 30
0.0
 11
0.583881
 21
28.482128
 31
0.0
  0
LINE
  5
12d
100
AcDbEntity
  8
Layer_1
 62
7
100
AcDbLine
 10
0.583881
 20
28.482128
 30
0.0
 11
1.060673
 21
28.160665
 31
0.0
  0
LINE
  5
12e
100
AcDbEntity
  8
Layer_1
 62
7
100
AcDbLine
 10
1.060673
 20
28.160665
 30
0.0
 11
1.382135
 21
27.683873
 31
0.0
  0
LINE
  5
12f
100
AcDbEntity
  8
Layer_1
 62
7
100
AcDbLine
 10
1.382135
 20
27.683873
 30
0.0
 11
1.500013
 21
27.100006
 31
0.0
  0
LINE
  5
130
100
AcDbEntity
  8
Layer_1
 62
7
100
AcDbLine
 10
-46.499986
 20
27.100006
 30
0.0
 11
-46.617865
 21
26.516139
 31
0.0
  0
LINE
  5
131
100
AcDbEntity
  8
Layer_1
 62
7
100
AcDbLine
 10
-46.617865
 20
26.516139
 30
0.0
 11
-46.939327
 21
26.039348
 31
0.0
  0
LINE
  5
132
100
AcDbEntity
  8
Layer_1
 62
7
100
AcDbLine
 10
-46.939327
 20
26.039348
 30
0.0
 11
-47.416119
 21
25.717885
 31
0.0
  0
LINE
  5
133
100
AcDbEntity
  8
Layer_1
 62
7
100
AcDbLine
 10
-47.416119
 20
25.717885
 30
0.0
 11
-47.999986
 21
25.600007
 31
0.0
  0
LINE
  5
134
100
AcDbEntity
  8
Layer_1
 62
7
100
AcDbLine
 10
-47.999986
 20
25.600007
 30
0.0
 11
-48.583853
 21
25.717885
 31
0.0
  0
LINE
  5
135
100
AcDbEntity
  8
Layer_1
 62
7
100
AcDbLine
 10
-48.583853
 20
25.717885
 30
0.0
 11
-49.060645
 21
26.039348
 31
0.0
  0
LINE
  5
136
100
AcDbEntity
  8
Layer_1
 62
7
100
AcDbLine
 10
-49.060645
 20
26.039348
 30
0.0
 11
-49.382107
 21
26.516139
 31
0.0
  0
LINE
  5
137
100
AcDbEntity
  8
Layer_1
 62
7
100
AcDbLine
 10
-49.382107
 20
26.516139
 30
0.0
 11
-49.499986
 21
27.100006
 31
0.0
  0
LINE
  5
138
100
AcDbEntity
  8
Layer_1
 62
7
100
AcDbLine
 10
-49.499986
 20
27.100006
 30
0.0
 11
-49.382107
 21
27.683873
 31
0.0
  0
LINE
  5
139
100
AcDbEntity
  8
Layer_1
 62
7
100
AcDbLine
 10
-49.382107
 20
27.683873
 30
0.0
 11
-49.060645
 21
28.160665
 31
0.0
  0
LINE
  5
13a
100
AcDbEntity
  8
Layer_1
 62
7
100
AcDbLine
 10
-49.060645
 20
28.160665
 30
0.0
 11
-48.583853
 21
28.482128
 31
0.0
  0
LINE
  5
13b
100
AcDbEntity
  8
Layer_1
 62
7
100
AcDbLine
 10
-48.583853
 20
28.482128
 30
0.0
 11
-47.999986
 21
28.600006
 31
0.0
  0
LINE
  5
13c
100
AcDbEntity
  8
Layer_1
 62
7
100
AcDbLine
 10
-47.999986
 20
28.600006
 30
0.0
 11
-47.416119
 21
28.482128
 31
0.0
  0
LINE
  5
13d
100
AcDbEntity
  8
Layer_1
 62
7
100
AcDbLine
 10
-47.416119
 20
28.482128
 30
0.0
 11
-46.939327
 21
28.160665
 31
0.0
  0
LINE
  5
13e
100
AcDbEntity
  8
Layer_1
 62
7
100
AcDbLine
 10
-46.939327
 20
28.160665
 30
0.0
 11
-46.617865
 21
27.683873
 31
0.0
  0
LINE
  5
13f
100
AcDbEntity
  8
Layer_1
 62
7
100
AcDbLine
 10
-46.617865
 20
27.683873
 30
0.0
 11
-46.499986
 21
27.100006
 31
0.0
  0
LINE
  5
140
100
AcDbEntity
  8
Layer_1
 62
7
100
AcDbLine
 10
-46.499986
 20
-6.899993
 30
0.0
 11
-46.617859
 21
-7.483855
 31
0.0
  0
LINE
  5
141
100
AcDbEntity
  8
Layer_1
 62
7
100
AcDbLine
 10
-46.617859
 20
-7.483855
 30
0.0
 11
-46.939321
 21
-7.960669
 31
0.0
  0
LINE
  5
142
100
AcDbEntity
  8
Layer_1
 62
7
100
AcDbLine
 10
-46.939321
 20
-7.960669
 30
0.0
 11
-47.416116
 21
-8.282120
 31
0.0
  0
LINE
  5
143
100
AcDbEntity
  8
Layer_1
 62
7
100
AcDbLine
 10
-47.416116
 20
-8.282120
 30
0.0
 11
-47.999986
 21
-8.400004
 31
0.0
  0
LINE
  5
144
100
AcDbEntity
  8
Layer_1
 62
7
100
AcDbLine
 10
-47.999986
 20
-8.400004
 30
0.0
 11
-48.583856
 21
-8.282120
 31
0.0
  0
LINE
  5
145
100
AcDbEntity
  8
Layer_1
 62
7
100
AcDbLine
 10
-48.583856
 20
-8.282120
 30
0.0
 11
-49.060650
 21
-7.960669
 31
0.0
  0
LINE
  5
146
100
AcDbEntity
  8
Layer_1
 62
7
100
AcDbLine
 10
-49.060650
 20
-7.960669
 30
0.0
 11
-49.382113
 21
-7.483855
 31
0.0
  0
LINE
  5
147
100
AcDbEntity
  8
Layer_1
 62
7
100
AcDbLine
 10
-49.382113
 20
-7.483855
 30
0.0
 11
-49.499986
 21
-6.899993
 31
0.0
  0
LINE
  5
148
100
AcDbEntity
  8
Layer_1
 62
7
100
AcDbLine
 10
-49.499986
 20
-6.899993
 30
0.0
 11
-49.382104
 21
-6.316132
 31
0.0
  0
LINE
  5
149
100
AcDbEntity
  8
Layer_1
 62
7
100
AcDbLine
 10
-49.382104
 20
-6.316132
 30
0.0
 11
-49.060642
 21
-5.839346
 31
0.0
  0
LINE
  5
14a
100
AcDbEntity
  8
Layer_1
 62
7
100
AcDbLine
 10
-49.060642
 20
-5.839346
 30
0.0
 11
-48.583850
 21
-5.517895
 31
0.0
  0
LINE
  5
14b
100
AcDbEntity
  8
Layer_1
 62
7
100
AcDbLine
 10
-48.583850
 20
-5.517895
 30
0.0
 11
-47.999986
 21
-5.400010
 31
0.0
  0
LINE
  5
14c
100
AcDbEntity
  8
Layer_1
 62
7
100
AcDbLine
 10
-47.999986
 20
-5.400010
 30
0.0
 11
-47.416122
 21
-5.517895
 31
0.0
  0
LINE
  5
14d
100
AcDbEntity
  8
Layer_1
 62
7
100
AcDbLine
 10
-47.416122
 20
-5.517895
 30
0.0
 11
-46.939330
 21
-5.839346
 31
0.0
  0
LINE
  5
14e
100
AcDbEntity
  8
Layer_1
 62
7
100
AcDbLine
 10
-46.939330
 20
-5.839346
 30
0.0
 11
-46.617867
 21
-6.316132
 31
0.0
  0
LINE
  5
14f
100
AcDbEntity
  8
Layer_1
 62
7
100
AcDbLine
 10
-46.617867
 20
-6.316132
 30
0.0
 11
-46.499986
 21
-6.899993
 31
0.0
  0
LINE
  5
150
100
AcDbEntity
  8
Layer_1
 62
7
100
AcDbLine
 10
49.500008
 20
27.100006
 30
0.0
 11
49.382130
 21
26.516139
 31
0.0
  0
LINE
  5
151
100
AcDbEntity
  8
Layer_1
 62
7
100
AcDbLine
 10
49.382130
 20
26.516139
 30
0.0
 11
49.060667
 21
26.039348
 31
0.0
  0
LINE
  5
152
100
AcDbEntity
  8
Layer_1
 62
7
100
AcDbLine
 10
49.060667
 20
26.039348
 30
0.0
 11
48.583875
 21
25.717885
 31
0.0
  0
LINE
  5
153
100
AcDbEntity
  8
Layer_1
 62
7
100
AcDbLine
 10
48.583875
 20
25.717885
 30
0.0
 11
48.000008
 21
25.600007
 31
0.0
  0
LINE
  5
154
100
AcDbEntity
  8
Layer_1
 62
7
100
AcDbLine
 10
48.000008
 20
25.600007
 30
0.0
 11
47.416141
 21
25.717885
 31
0.0
  0
LINE
  5
155
100
AcDbEntity
  8
Layer_1
 62
7
100
AcDbLine
 10
47.416141
 20
25.717885
 30
0.0
 11
46.939350
 21
26.039348
 31
0.0
  0
LINE
  5
156
100
AcDbEntity
  8
Layer_1
 62
7
100
AcDbLine
 10
46.939350
 20
26.039348
 30
0.0
 11
46.617887
 21
26.516139
 31
0.0
  0
LINE
  5
157
100
AcDbEntity
  8
Layer_1
 62
7
100
AcDbLine
 10
46.617887
 20
26.516139
 30
0.0
 11
46.500009
 21
27.100006
 31
0.0
  0
LINE
  5
158
100
AcDbEntity
  8
Layer_1
 62
7
100
AcDbLine
 10
46.500009
 20
27.100006
 30
0.0
 11
46.617887
 21
27.683873
 31
0.0
  0
LINE
  5
159
100
AcDbEntity
  8
Layer_1
 62
7
100
AcDbLine
 10
46.617887
 20
27.683873
 30
0.0
 11
46.939350
 21
28.160665
 31
0.0
  0
LINE
  5
15a
100
AcDbEntity
  8
Layer_1
 62
7
100
AcDbLine
 10
46.939350
 20
28.160665
 30
0.0
 11
47.416141
 21
28.482128
 31
0.0
  0
LINE
  5
15b
100
AcDbEntity
  8
Layer_1
 62
7
100
AcDbLine
 10
47.416141
 20
28.482128
 30
0.0
 11
48.000008
 21
28.600006
 31
0.0
  0
LINE
  5
15c
100
AcDbEntity
  8
Layer_1
 62
7
100
AcDbLine
 10
48.000008
 20
28.600006
 30
0.0
 11
48.583875
 21
28.482128
 31
0.0
  0
LINE
  5
15d
100
AcDbEntity
  8
Layer_1
 62
7
100
AcDbLine
 10
48.583875
 20
28.482128
 30
0.0
 11
49.060667
 21
28.160665
 31
0.0
  0
LINE
  5
15e
100
AcDbEntity
  8
Layer_1
 62
7
100
AcDbLine
 10
49.060667
 20
28.160665
 30
0.0
 11
49.382130
 21
27.683873
 31
0.0
  0
LINE
  5
15f
100
AcDbEntity
  8
Layer_1
 62
7
100
AcDbLine
 10
49.382130
 20
27.683873
 30
0.0
 11
49.500008
 21
27.100006
 31
0.0
  0
LINE
  5
160
100
AcDbEntity
  8
Layer_1
 62
7
100
AcDbLine
 10
49.500008
 20
-6.899993
 30
0.0
 11
49.382135
 21
-7.483855
 31
0.0
  0
LINE
  5
161
100
AcDbEntity
  8
Layer_1
 62
7
100
AcDbLine
 10
49.382135
 20
-7.483855
 30
0.0
 11
49.060673
 21
-7.960669
 31
0.0
  0
LINE
  5
162
100
AcDbEntity
  8
Layer_1
 62
7
100
AcDbLine
 10
49.060673
 20
-7.960669
 30
0.0
 11
48.583878
 21
-8.282120
 31
0.0
  0
LINE
  5
163
100
AcDbEntity
  8
Layer_1
 62
7
100
AcDbLine
 10
48.583878
 20
-8.282120
 30
0.0
 11
48.000008
 21
-8.400004
 31
0.0
  0
LINE
  5
164
100
AcDbEntity
  8
Layer_1
 62
7
100
AcDbLine
 10
48.000008
 20
-8.400004
 30
0.0
 11
47.416139
 21
-8.282120
 31
0.0
  0
LINE
  5
165
100
AcDbEntity
  8
Layer_1
 62
7
100
AcDbLine
 10
47.416139
 20
-8.282120
 30
0.0
 11
46.939344
 21
-7.960669
 31
0.0
  0
LINE
  5
166
100
AcDbEntity
  8
Layer_1
 62
7
100
AcDbLine
 10
46.939344
 20
-7.960669
 30
0.0
 11
46.617882
 21
-7.483855
 31
0.0
  0
LINE
  5
167
100
AcDbEntity
  8
Layer_1
 62
7
100
AcDbLine
 10
46.617882
 20
-7.483855
 30
0.0
 11
46.500009
 21
-6.899993
 31
0.0
  0
LINE
  5
168
100
AcDbEntity
  8
Layer_1
 62
7
100
AcDbLine
 10
46.500009
 20
-6.899993
 30
0.0
 11
46.617890
 21
-6.316132
 31
0.0
  0
LINE
  5
169
100
AcDbEntity
  8
Layer_1
 62
7
100
AcDbLine
 10
46.617890
 20
-6.316132
 30
0.0
 11
46.939352
 21
-5.839346
 31
0.0
  0
LINE
  5
16a
100
AcDbEntity
  8
Layer_1
 62
7
100
AcDbLine
 10
46.939352
 20
-5.839346
 30
0.0
 11
47.416144
 21
-5.517895
 31
0.0
  0
LINE
  5
16b
100
AcDbEntity
  8
Layer_1
 62
7
100
AcDbLine
 10
47.416144
 20
-5.517895
 30
0.0
 11
48.000008
 21
-5.400010
 31
0.0
  0
LINE
  5
16c
100
AcDbEntity
  8
Layer_1
 62
7
100
AcDbLine
 10
48.000008
 20
-5.400010
 30
0.0
 11
48.583873
 21
-5.517895
 31
0.0
  0
LINE
  5
16d
100
AcDbEntity
  8
Layer_1
 62
7
100
AcDbLine
 10
48.583873
 20
-5.517895
 30
0.0
 11
49.060664
 21
-5.839346
 31
0.0
  0
LINE
  5
16e
100
AcDbEntity
  8
Layer_1
 62
7
100
AcDbLine
 10
49.060664
 20
-5.839346
 30
0.0
 11
49.382127
 21
-6.316132
 31
0.0
  0
LINE
  5
16f
100
AcDbEntity
  8
Layer_1
 62
7
100
AcDbLine
 10
49.382127
 20
-6.316132
 30
0.0
 11
49.500008
 21
-6.899993
 31
0.0
  0
LINE
  5
170
100
AcDbEntity
  8
Layer_1
 62
7
100
AcDbLine
 10
-36.489201
 20
2.479998
 30
0.0
 11
-36.442220
 21
1.886213
 31
0.0
  0
LINE
  5
171
100
AcDbEntity
  8
Layer_1
 62
7
100
AcDbLine
 10
-36.442220
 20
1.886213
 30
0.0
 11
-36.180280
 21
1.374278
 31
0.0
  0
LINE
  5
172
100
AcDbEntity
  8
Layer_1
 62
7
100
AcDbLine
 10
-36.180280
 20
1.374278
 30
0.0
 11
-35.745491
 21
0.997951
 31
0.0
  0
LINE
  5
173
100
AcDbEntity
  8
Layer_1
 62
7
100
AcDbLine
 10
-35.745491
 20
0.997951
 30
0.0
 11
-35.179979
 21
0.810875
 31
0.0
  0
LINE
  5
174
100
AcDbEntity
  8
Layer_1
 62
7
100
AcDbLine
 10
-35.179979
 20
0.810875
 30
0.0
 11
-34.586184
 21
0.857866
 31
0.0
  0
LINE
  5
175
100
AcDbEntity
  8
Layer_1
 62
7
100
AcDbLine
 10
-34.586184
 20
0.857866
 30
0.0
 11
-34.074271
 21
1.119798
 31
0.0
  0
LINE
  5
176
100
AcDbEntity
  8
Layer_1
 62
7
100
AcDbLine
 10
-34.074271
 20
1.119798
 30
0.0
 11
-33.697931
 21
1.554606
 31
0.0
  0
LINE
  5
177
100
AcDbEntity
  8
Layer_1
 62
7
100
AcDbLine
 10
-33.697931
 20
1.554606
 30
0.0
 11
-33.510866
 21
2.120110
 31
0.0
  0
LINE
  5
178
100
AcDbEntity
  8
Layer_1
 62
7
100
AcDbLine
 10
-33.510866
 20
2.120110
 30
0.0
 11
-33.557854
 21
2.713896
 31
0.0
  0
LINE
  5
179
100
AcDbEntity
  8
Layer_1
 62
7
100
AcDbLine
 10
-33.557854
 20
2.713896
 30
0.0
 11
-33.819800
 21
3.225803
 31
0.0
  0
LINE
  5
17a
100
AcDbEntity
  8
Layer_1
 62
7
100
AcDbLine
 10
-33.819800
 20
3.225803
 30
0.0
 11
-34.254586
 21
3.602130
 31
0.0
  0
LINE
  5
17b
100
AcDbEntity
  8
Layer_1
 62
7
100
AcDbLine
 10
-34.254586
 20
3.602130
 30
0.0
 11
-34.820092
 21
3.789205
 31
0.0
  0
LINE
  5
17c
100
AcDbEntity
  8
Layer_1
 62
7
100
AcDbLine
 10
-34.820092
 20
3.789205
 30
0.0
 11
-35.413881
 21
3.742214
 31
0.0
  0
LINE
  5
17d
100
AcDbEntity
  8
Layer_1
 62
7
100
AcDbLine
 10
-35.413881
 20
3.742214
 30
0.0
 11
-35.925791
 21
3.480281
 31
0.0
  0
LINE
  5
17e
100
AcDbEntity
  8
Layer_1
 62
7
100
AcDbLine
 10
-35.925791
 20
3.480281
 30
0.0
 11
-36.302130
 21
3.045502
 31
0.0
  0
LINE
  5
17f
100
AcDbEntity
  8
Layer_1
 62
7
100
AcDbLine
 10
-36.302130
 20
3.045502
 30
0.0
 11
-36.489201
 21
2.479998
 31
0.0
  0
LINE
  5
180
100
AcDbEntity
  8
Layer_1
 62
7
100
AcDbLine
 10
33.510802
 20
2.479956
 30
0.0
 11
33.557791
 21
1.886169
 31
0.0
  0
LINE
  5
181
100
AcDbEntity
  8
Layer_1
 62
7
100
AcDbLine
 10
33.557791
 20
1.886169
 30
0.0
 11
33.819738
 21
1.374263
 31
0.0
  0
LINE
  5
182
100
AcDbEntity
  8
Layer_1
 62
7
100
AcDbLine
 10
33.819738
 20
1.374263
 30
0.0
 11
34.254522
 21
0.997936
 31
0.0
  0
LINE
  5
183
100
AcDbEntity
  8
Layer_1
 62
7
100
AcDbLine
 10
34.254522
 20
0.997936
 30
0.0
 11
34.820028
 21
0.810861
 31
0.0
  0
LINE
  5
184
100
AcDbEntity
  8
Layer_1
 62
7
100
AcDbLine
 10
34.820028
 20
0.810861
 30
0.0
 11
35.413817
 21
0.857852
 31
0.0
  0
LINE
  5
185
100
AcDbEntity
  8
Layer_1
 62
7
100
AcDbLine
 10
35.413817
 20
0.857852
 30
0.0
 11
35.925725
 21
1.119785
 31
0.0
  0
LINE
  5
186
100
AcDbEntity
  8
Layer_1
 62
7
100
AcDbLine
 10
35.925725
 20
1.119785
 30
0.0
 11
36.302066
 21
1.554564
 31
0.0
  0
LINE
  5
187
100
AcDbEntity
  8
Layer_1
 62
7
100
AcDbLine
 10
36.302066
 20
1.554564
 30
0.0
 11
36.489137
 21
2.120067
 31
0.0
  0
LINE
  5
188
100
AcDbEntity
  8
Layer_1
 62
7
100
AcDbLine
 10
36.489137
 20
2.120067
 30
0.0
 11
36.442157
 21
2.713853
 31
0.0
  0
LINE
  5
189
100
AcDbEntity
  8
Layer_1
 62
7
100
AcDbLine
 10
36.442157
 20
2.713853
 30
0.0
 11
36.180216
 21
3.225787
 31
0.0
  0
LINE
  5
18a
100
AcDbEntity
  8
Layer_1
 62
7
100
AcDbLine
 10
36.180216
 20
3.225787
 30
0.0
 11
35.745427
 21
3.602115
 31
0.0
  0
LINE
  5
18b
100
AcDbEntity
  8
Layer_1
 62
7
100
AcDbLine
 10
35.745427
 20
3.602115
 30
0.0
 11
35.179915
 21
3.789190
 31
0.0
  0
LINE
  5
18c
100
AcDbEntity
  8
Layer_1
 62
7
100
AcDbLine
 10
35.179915
 20
3.789190
 30
0.0
 11
34.586120
 21
3.742200
 31
0.0
  0
LINE
  5
18d
100
AcDbEntity
  8
Layer_1
 62
7
100
AcDbLine
 10
34.586120
 20
3.742200
 30
0.0
 11
34.074207
 21
3.480268
 31
0.0
  0
LINE
  5
18e
100
AcDbEntity
  8
Layer_1
 62
7
100
AcDbLine
 10
34.074207
 20
3.480268
 30
0.0
 11
33.697866
 21
3.045460
 31
0.0
  0
LINE
  5
18f
100
AcDbEntity
  8
Layer_1
 62
7
100
AcDbLine
 10
33.697866
 20
3.045460
 30
0.0
 11
33.510802
 21
2.479956
 31
0.0
  0
LINE
  5
190
100
AcDbEntity
  8
Layer_1
 62
7
100
AcDbLine
 10
16.871972
 20
5.435034
 30
0.0
 11
16.887073
 21
5.038227
 31
0.0
  0
LINE
  5
191
100
AcDbEntity
  8
Layer_1
 62
7
100
AcDbLine
 10
16.887073
 20
5.038227
 30
0.0
 11
16.753477
 21
4.678895
 31
0.0
  0
LINE
  5
192
100
AcDbEntity
  8
Layer_1
 62
7
100
AcDbLine
 10
16.753477
 20
4.678895
 30
0.0
 11
16.494890
 21
4.395870
 31
0.0
  0
LINE
  5
193
100
AcDbEntity
  8
Layer_1
 62
7
100
AcDbLine
 10
16.494890
 20
4.395870
 30
0.0
 11
16.135016
 21
4.228016
 31
0.0
  0
LINE
  5
194
100
AcDbEntity
  8
Layer_1
 62
7
100
AcDbLine
 10
16.135016
 20
4.228016
 30
0.0
 11
15.738203
 21
4.212927
 31
0.0
  0
LINE
  5
195
100
AcDbEntity
  8
Layer_1
 62
7
100
AcDbLine
 10
15.738203
 20
4.212927
 30
0.0
 11
15.378880
 21
4.346508
 31
0.0
  0
LINE
  5
196
100
AcDbEntity
  8
Layer_1
 62
7
100
AcDbLine
 10
15.378880
 20
4.346508
 30
0.0
 11
15.095866
 21
4.605101
 31
0.0
  0
LINE
  5
197
100
AcDbEntity
  8
Layer_1
 62
7
100
AcDbLine
 10
15.095866
 20
4.605101
 30
0.0
 11
14.927998
 21
4.964968
 31
0.0
  0
LINE
  5
198
100
AcDbEntity
  8
Layer_1
 62
7
100
AcDbLine
 10
14.927998
 20
4.964968
 30
0.0
 11
14.912897
 21
5.361775
 31
0.0
  0
LINE
  5
199
100
AcDbEntity
  8
Layer_1
 62
7
100
AcDbLine
 10
14.912897
 20
5.361775
 30
0.0
 11
15.046493
 21
5.721108
 31
0.0
  0
LINE
  5
19a
100
AcDbEntity
  8
Layer_1
 62
7
100
AcDbLine
 10
15.046493
 20
5.721108
 30
0.0
 11
15.305084
 21
6.004104
 31
0.0
  0
LINE
  5
19b
100
AcDbEntity
  8
Layer_1
 62
7
100
AcDbLine
 10
15.305084
 20
6.004104
 30
0.0
 11
15.664951
 21
6.171986
 31
0.0
  0
LINE
  5
19c
100
AcDbEntity
  8
Layer_1
 62
7
100
AcDbLine
 10
15.664951
 20
6.171986
 30
0.0
 11
16.061760
 21
6.187102
 31
0.0
  0
LINE
  5
19d
100
AcDbEntity
  8
Layer_1
 62
7
100
AcDbLine
 10
16.061760
 20
6.187102
 30
0.0
 11
16.421090
 21
6.053495
 31
0.0
  0
LINE
  5
19e
100
AcDbEntity
  8
Layer_1
 62
7
100
AcDbLine
 10
16.421090
 20
6.053495
 30
0.0
 11
16.704104
 21
5.794902
 31
0.0
  0
LINE
  5
19f
100
AcDbEntity
  8
Layer_1
 62
7
100
AcDbLine
 10
16.704104
 20
5.794902
 30
0.0
 11
16.871972
 21
5.435034
 31
0.0
  0
LINE
  5
1a0
100
AcDbEntity
  8
Layer_1
 62
7
100
AcDbLine
 10
-14.927995
 20
5.435038
 30
0.0
 11
-14.912892
 21
5.038225
 31
0.0
  0
LINE
  5
1a1
100
AcDbEntity
  8
Layer_1
 62
7
100
AcDbLine
 10
-14.912892
 20
5.038225
 30
0.0
 11
-15.046489
 21
4.678898
 31
0.0
  0
LINE
  5
1a2
100
AcDbEntity
  8
Layer_1
 62
7
100
AcDbLine
 10
-15.046489
 20
4.678898
 30
0.0
 11
-15.305077
 21
4.395885
 31
0.0
  0
LINE
  5
1a3
100
AcDbEntity
  8
Layer_1
 62
7
100
AcDbLine
 10
-15.305077
 20
4.395885
 30
0.0
 11
-15.664949
 21
4.228016
 31
0.0
  0
LINE
  5
1a4
100
AcDbEntity
  8
Layer_1
 62
7
100
AcDbLine
 10
-15.664949
 20
4.228016
 30
0.0
 11
-16.061759
 21
4.212914
 31
0.0
  0
LINE
  5
1a5
100
AcDbEntity
  8
Layer_1
 62
7
100
AcDbLine
 10
-16.061759
 20
4.212914
 30
0.0
 11
-16.421086
 21
4.346511
 31
0.0
  0
LINE
  5
1a6
100
AcDbEntity
  8
Layer_1
 62
7
100
AcDbLine
 10
-16.421086
 20
4.346511
 30
0.0
 11
-16.704100
 21
4.605101
 31
0.0
  0
LINE
  5
1a7
100
AcDbEntity
  8
Layer_1
 62
7
100
AcDbLine
 10
-16.704100
 20
4.605101
 30
0.0
 11
-16.871968
 21
4.964971
 31
0.0
  0
LINE
  5
1a8
100
AcDbEntity
  8
Layer_1
 62
7
100
AcDbLine
 10
-16.871968
 20
4.964971
 30
0.0
 11
-16.887070
 21
5.361781
 31
0.0
  0
LINE
  5
1a9
100
AcDbEntity
  8
Layer_1
 62
7
100
AcDbLine
 10
-16.887070
 20
5.361781
 30
0.0
 11
-16.753474
 21
5.721111
 31
0.0
  0
LINE
  5
1aa
100
AcDbEntity
  8
Layer_1
 62
7
100
AcDbLine
 10
-16.753474
 20
5.721111
 30
0.0
 11
-16.494886
 21
6.004124
 31
0.0
  0
LINE
  5
1ab
100
AcDbEntity
  8
Layer_1
 62
7
100
AcDbLine
 10
-16.494886
 20
6.004124
 30
0.0
 11
-16.135016
 21
6.171992
 31
0.0
  0
LINE
  5
1ac
100
AcDbEntity
  8
Layer_1
 62
7
100
AcDbLine
 10
-16.135016
 20
6.171992
 30
0.0
 11
-15.738204
 21
6.187095
 31
0.0
  0
LINE
  5
1ad
100
AcDbEntity
  8
Layer_1
 62
7
100
AcDbLine
 10
-15.738204
 20
6.187095
 30
0.0
 11
-15.378877
 21
6.053498
 31
0.0
  0
LINE
  5
1ae
100
AcDbEntity
  8
Layer_1
 62
7
100
AcDbLine
 10
-15.378877
 20
6.053498
 30
0.0
 11
-15.095864
 21
5.794910
 31
0.0
  0
LINE
  5
1af
100
AcDbEntity
  8
Layer_1
 62
7
100
AcDbLine
 10
-15.095864
 20
5.794910
 30
0.0
 11
-14.927995
 21
5.435038
 31
0.0
  0
LINE
  5
1b0
100
AcDbEntity
  8
Layer_1
 62
7
100
AcDbLine
 10
-26.528005
 20
17.735032
 30
0.0
 11
-26.512903
 21
17.338219
 31
0.0
  0
LINE
  5
1b1
100
AcDbEntity
  8
Layer_1
 62
7
100
AcDbLine
 10
-26.512903
 20
17.338219
 30
0.0
 11
-26.646500
 21
16.978892
 31
0.0
  0
LINE
  5
1b2
100
AcDbEntity
  8
Layer_1
 62
7
100
AcDbLine
 10
-26.646500
 20
16.978892
 30
0.0
 11
-26.905087
 21
16.695880
 31
0.0
  0
LINE
  5
1b3
100
AcDbEntity
  8
Layer_1
 62
7
100
AcDbLine
 10
-26.905087
 20
16.695880
 30
0.0
 11
-27.264960
 21
16.528010
 31
0.0
  0
LINE
  5
1b4
100
AcDbEntity
  8
Layer_1
 62
7
100
AcDbLine
 10
-27.264960
 20
16.528010
 30
0.0
 11
-27.661773
 21
16.512908
 31
0.0
  0
LINE
  5
1b5
100
AcDbEntity
  8
Layer_1
 62
7
100
AcDbLine
 10
-27.661773
 20
16.512908
 30
0.0
 11
-28.021100
 21
16.646505
 31
0.0
  0
LINE
  5
1b6
100
AcDbEntity
  8
Layer_1
 62
7
100
AcDbLine
 10
-28.021100
 20
16.646505
 30
0.0
 11
-28.304112
 21
16.905092
 31
0.0
  0
LINE
  5
1b7
100
AcDbEntity
  8
Layer_1
 62
7
100
AcDbLine
 10
-28.304112
 20
16.905092
 30
0.0
 11
-28.471982
 21
17.264965
 31
0.0
  0
LINE
  5
1b8
100
AcDbEntity
  8
Layer_1
 62
7
100
AcDbLine
 10
-28.471982
 20
17.264965
 30
0.0
 11
-28.487084
 21
17.661778
 31
0.0
  0
LINE
  5
1b9
100
AcDbEntity
  8
Layer_1
 62
7
100
AcDbLine
 10
-28.487084
 20
17.661778
 30
0.0
 11
-28.353487
 21
18.021104
 31
0.0
  0
LINE
  5
1ba
100
AcDbEntity
  8
Layer_1
 62
7
100
AcDbLine
 10
-28.353487
 20
18.021104
 30
0.0
 11
-28.094900
 21
18.304117
 31
0.0
  0
LINE
  5
1bb
100
AcDbEntity
  8
Layer_1
 62
7
100
AcDbLine
 10
-28.094900
 20
18.304117
 30
0.0
 11
-27.735027
 21
18.471987
 31
0.0
  0
LINE
  5
1bc
100
AcDbEntity
  8
Layer_1
 62
7
100
AcDbLine
 10
-27.735027
 20
18.471987
 30
0.0
 11
-27.338214
 21
18.487089
 31
0.0
  0
LINE
  5
1bd
100
AcDbEntity
  8
Layer_1
 62
7
100
AcDbLine
 10
-27.338214
 20
18.487089
 30
0.0
 11
-26.978888
 21
18.353492
 31
0.0
  0
LINE
  5
1be
100
AcDbEntity
  8
Layer_1
 62
7
100
AcDbLine
 10
-26.978888
 20
18.353492
 30
0.0
 11
-26.695875
 21
18.094904
 31
0.0
  0
LINE
  5
1bf
100
AcDbEntity
  8
Layer_1
 62
7
100
AcDbLine
 10
-26.695875
 20
18.094904
 30
0.0
 11
-26.528005
 21
17.735032
 31
0.0
  0
LINE
  5
1c0
100
AcDbEntity
  8
Layer_1
 62
7
100
AcDbLine
 10
28.471981
 20
17.735031
 30
0.0
 11
28.487082
 21
17.338221
 31
0.0
  0
LINE
  5
1c1
100
AcDbEntity
  8
Layer_1
 62
7
100
AcDbLine
 10
28.487082
 20
17.338221
 30
0.0
 11
28.353486
 21
16.978891
 31
0.0
  0
LINE
  5
1c2
100
AcDbEntity
  8
Layer_1
 62
7
100
AcDbLine
 10
28.353486
 20
16.978891
 30
0.0
 11
28.094899
 21
16.695878
 31
0.0
  0
LINE
  5
1c3
100
AcDbEntity
  8
Layer_1
 62
7
100
AcDbLine
 10
28.094899
 20
16.695878
 30
0.0
 11
27.735029
 21
16.528010
 31
0.0
  0
LINE
  5
1c4
100
AcDbEntity
  8
Layer_1
 62
7
100
AcDbLine
 10
27.735029
 20
16.528010
 30
0.0
 11
27.338216
 21
16.512907
 31
0.0
  0
LINE
  5
1c5
100
AcDbEntity
  8
Layer_1
 62
7
100
AcDbLine
 10
27.338216
 20
16.512907
 30
0.0
 11
26.978889
 21
16.646504
 31
0.0
  0
LINE
  5
1c6
100
AcDbEntity
  8
Layer_1
 62
7
100
AcDbLine
 10
26.978889
 20
16.646504
 30
0.0
 11
26.695876
 21
16.905092
 31
0.0
  0
LINE
  5
1c7
100
AcDbEntity
  8
Layer_1
 62
7
100
AcDbLine
 10
26.695876
 20
16.905092
 30
0.0
 11
26.528007
 21
17.264965
 31
0.0
  0
LINE
  5
1c8
100
AcDbEntity
  8
Layer_1
 62
7
100
AcDbLine
 10
26.528007
 20
17.264965
 30
0.0
 11
26.512905
 21
17.661775
 31
0.0
  0
LINE
  5
1c9
100
AcDbEntity
  8
Layer_1
 62
7
100
AcDbLine
 10
26.512905
 20
17.661775
 30
0.0
 11
26.646502
 21
18.021101
 31
0.0
  0
LINE
  5
1ca
100
AcDbEntity
  8
Layer_1
 62
7
100
AcDbLine
 10
26.646502
 20
18.021101
 30
0.0
 11
26.905093
 21
18.304115
 31
0.0
  0
LINE
  5
1cb
100
AcDbEntity
  8
Layer_1
 62
7
100
AcDbLine
 10
26.905093
 20
18.304115
 30
0.0
 11
27.264962
 21
18.471983
 31
0.0
  0
LINE
  5
1cc
100
AcDbEntity
  8
Layer_1
 62
7
100
AcDbLine
 10
27.264962
 20
18.471983
 30
0.0
 11
27.661772
 21
18.487085
 31
0.0
  0
LINE
  5
1cd
100
AcDbEntity
  8
Layer_1
 62
7
100
AcDbLine
 10
27.661772
 20
18.487085
 30
0.0
 11
28.021099
 21
18.353488
 31
0.0
  0
LINE
  5
1ce
100
AcDbEntity
  8
Layer_1
 62
7
100
AcDbLine
 10
28.021099
 20
18.353488
 30
0.0
 11
28.304112
 21
18.094901
 31
0.0
  0
LINE
  5
1cf
100
AcDbEntity
  8
Layer_1
 62
7
100
AcDbLine
 10
28.304112
 20
18.094901
 30
0.0
 11
28.471981
 21
17.735031
 31
0.0
  0
LINE
  5
1d0
100
AcDbEntity
  8
Layer_1
 62
7
100
AcDbLine
 10
1.500013
 20
17.500006
 30
0.0
 11
1.382135
 21
16.916139
 31
0.0
  0
LINE
  5
1d1
100
AcDbEntity
  8
Layer_1
 62
7
100
AcDbLine
 10
1.382135
 20
16.916139
 30
0.0
 11
1.060673
 21
16.439347
 31
0.0
  0
LINE
  5
1d2
100
AcDbEntity
  8
Layer_1
 62
7
100
AcDbLine
 10
1.060673
 20
16.439347
 30
0.0
 11
0.583881
 21
16.117885
 31
0.0
  0
LINE
  5
1d3
100
AcDbEntity
  8
Layer_1
 62
7
100
AcDbLine
 10
0.583881
 20
16.117885
 30
0.0
 11
0.000013
 21
16.000006
 31
0.0
  0
LINE
  5
1d4
100
AcDbEntity
  8
Layer_1
 62
7
100
AcDbLine
 10
0.000013
 20
16.000006
 30
0.0
 11
-0.583855
 21
16.117885
 31
0.0
  0
LINE
  5
1d5
100
AcDbEntity
  8
Layer_1
 62
7
100
AcDbLine
 10
-0.583855
 20
16.117885
 30
0.0
 11
-1.060647
 21
16.439347
 31
0.0
  0
LINE
  5
1d6
100
AcDbEntity
  8
Layer_1
 62
7
100
AcDbLine
 10
-1.060647
 20
16.439347
 30
0.0
 11
-1.382110
 21
16.916139
 31
0.0
  0
LINE
  5
1d7
100
AcDbEntity
  8
Layer_1
 62
7
100
AcDbLine
 10
-1.382110
 20
16.916139
 30
0.0
 11
-1.499987
 21
17.500006
 31
0.0
  0
LINE
  5
1d8
100
AcDbEntity
  8
Layer_1
 62
7
100
AcDbLine
 10
-1.499987
 20
17.500006
 30
0.0
 11
-1.382110
 21
18.083873
 31
0.0
  0
LINE
  5
1d9
100
AcDbEntity
  8
Layer_1
 62
7
100
AcDbLine
 10
-1.382110
 20
18.083873
 30
0.0
 11
-1.060647
 21
18.560665
 31
0.0
  0
LINE
  5
1da
100
AcDbEntity
  8
Layer_1
 62
7
100
AcDbLine
 10
-1.060647
 20
18.560665
 30
0.0
 11
-0.583855
 21
18.882127
 31
0.0
  0
LINE
  5
1db
100
AcDbEntity
  8
Layer_1
 62
7
100
AcDbLine
 10
-0.583855
 20
18.882127
 30
0.0
 11
0.000013
 21
19.000006
 31
0.0
  0
LINE
  5
1dc
100
AcDbEntity
  8
Layer_1
 62
7
100
AcDbLine
 10
0.000013
 20
19.000006
 30
0.0
 11
0.583881
 21
18.882127
 31
0.0
  0
LINE
  5
1dd
100
AcDbEntity
  8
Layer_1
 62
7
100
AcDbLine
 10
0.583881
 20
18.882127
 30
0.0
 11
1.060673
 21
18.560665
 31
0.0
  0
LINE
  5
1de
100
AcDbEntity
  8
Layer_1
 62
7
100
AcDbLine
 10
1.060673
 20
18.560665
 30
0.0
 11
1.382135
 21
18.083873
 31
0.0
  0
LINE
  5
1df
100
AcDbEntity
  8
Layer_1
 62
7
100
AcDbLine
 10
1.382135
 20
18.083873
 30
0.0
 11
1.500013
 21
17.500006
 31
0.0
  0
LINE
  5
1e0
100
AcDbEntity
  8
Layer_1
 62
7
100
AcDbLine
 10
-46.499986
 20
11.499992
 30
0.0
 11
-46.617859
 21
10.916131
 31
0.0
  0
LINE
  5
1e1
100
AcDbEntity
  8
Layer_1
 62
7
100
AcDbLine
 10
-46.617859
 20
10.916131
 30
0.0
 11
-46.939321
 21
10.439317
 31
0.0
  0
LINE
  5
1e2
100
AcDbEntity
  8
Layer_1
 62
7
100
AcDbLine
 10
-46.939321
 20
10.439317
 30
0.0
 11
-47.416116
 21
10.117866
 31
0.0
  0
LINE
  5
1e3
100
AcDbEntity
  8
Layer_1
 62
7
100
AcDbLine
 10
-47.416116
 20
10.117866
 30
0.0
 11
-47.999986
 21
9.999981
 31
0.0
  0
LINE
  5
1e4
100
AcDbEntity
  8
Layer_1
 62
7
100
AcDbLine
 10
-47.999986
 20
9.999981
 30
0.0
 11
-48.583856
 21
10.117866
 31
0.0
  0
LINE
  5
1e5
100
AcDbEntity
  8
Layer_1
 62
7
100
AcDbLine
 10
-48.583856
 20
10.117866
 30
0.0
 11
-49.060650
 21
10.439317
 31
0.0
  0
LINE
  5
1e6
100
AcDbEntity
  8
Layer_1
 62
7
100
AcDbLine
 10
-49.060650
 20
10.439317
 30
0.0
 11
-49.382113
 21
10.916131
 31
0.0
  0
LINE
  5
1e7
100
AcDbEntity
  8
Layer_1
 62
7
100
AcDbLine
 10
-49.382113
 20
10.916131
 30
0.0
 11
-49.499986
 21
11.499992
 31
0.0
  0
LINE
  5
1e8
100
AcDbEntity
  8
Layer_1
 62
7
100
AcDbLine
 10
-49.499986
 20
11.499992
 30
0.0
 11
-49.382113
 21
12.083854
 31
0.0
  0
LINE
  5
1e9
100
AcDbEntity
  8
Layer_1
 62
7
100
AcDbLine
 10
-49.382113
 20
12.083854
 30
0.0
 11
-49.060650
 21
12.560668
 31
0.0
  0
LINE
  5
1ea
100
AcDbEntity
  8
Layer_1
 62
7
100
AcDbLine
 10
-49.060650
 20
12.560668
 30
0.0
 11
-48.583856
 21
12.882119
 31
0.0
  0
LINE
  5
1eb
100
AcDbEntity
  8
Layer_1
 62
7
100
AcDbLine
 10
-48.583856
 20
12.882119
 30
0.0
 11
-47.999986
 21
13.000004
 31
0.0
  0
LINE
  5
1ec
100
AcDbEntity
  8
Layer_1
 62
7
100
AcDbLine
 10
-47.999986
 20
13.000004
 30
0.0
 11
-47.416116
 21
12.882119
 31
0.0
  0
LINE
  5
1ed
100
AcDbEntity
  8
Layer_1
 62
7
100
AcDbLine
 10
-47.416116
 20
12.882119
 30
0.0
 11
-46.939321
 21
12.560668
 31
0.0
  0
LINE
  5
1ee
100
AcDbEntity
  8
Layer_1
 62
7
100
AcDbLine
 10
-46.939321
 20
12.560668
 30
0.0
 11
-46.617859
 21
12.083854
 31
0.0
  0
LINE
  5
1ef
100
AcDbEntity
  8
Layer_1
 62
7
100
AcDbLine
 10
-46.617859
 20
12.083854
 30
0.0
 11
-46.499986
 21
11.499992
 31
0.0
  0
LINE
  5
1f0
100
AcDbEntity
  8
Layer_1
 62
7
100
AcDbLine
 10
49.500008
 20
11.499992
 30
0.0
 11
49.382135
 21
10.916131
 31
0.0
  0
LINE
  5
1f1
100
AcDbEntity
  8
Layer_1
 62
7
100
AcDbLine
 10
49.382135
 20
10.916131
 30
0.0
 11
49.060673
 21
10.439317
 31
0.0
  0
LINE
  5
1f2
100
AcDbEntity
  8
Layer_1
 62
7
100
AcDbLine
 10
49.060673
 20
10.439317
 30
0.0
 11
48.583878
 21
10.117866
 31
0.0
  0
LINE
  5
1f3
100
AcDbEntity
  8
Layer_1
 62
7
100
AcDbLine
 10
48.583878
 20
10.117866
 30
0.0
 11
48.000008
 21
9.999981
 31
0.0
  0
LINE
  5
1f4
100
AcDbEntity
  8
Layer_1
 62
7
100
AcDbLine
 10
48.000008
 20
9.999981
 30
0.0
 11
47.416139
 21
10.117866
 31
0.0
  0
LINE
  5
1f5
100
AcDbEntity
  8
Layer_1
 62
7
100
AcDbLine
 10
47.416139
 20
10.117866
 30
0.0
 11
46.939344
 21
10.439317
 31
0.0
  0
LINE
  5
1f6
100
AcDbEntity
  8
Layer_1
 62
7
100
AcDbLine
 10
46.939344
 20
10.439317
 30
0.0
 11
46.617882
 21
10.916131
 31
0.0
  0
LINE
  5
1f7
100
AcDbEntity
  8
Layer_1
 62
7
100
AcDbLine
 10
46.617882
 20
10.916131
 30
0.0
 11
46.500009
 21
11.499992
 31
0.0
  0
LINE
  5
1f8
100
AcDbEntity
  8
Layer_1
 62
7
100
AcDbLine
 10
46.500009
 20
11.499992
 30
0.0
 11
46.617882
 21
12.083854
 31
0.0
  0
LINE
  5
1f9
100
AcDbEntity
  8
Layer_1
 62
7
100
AcDbLine
 10
46.617882
 20
12.083854
 30
0.0
 11
46.939344
 21
12.560668
 31
0.0
  0
LINE
  5
1fa
100
AcDbEntity
  8
Layer_1
 62
7
100
AcDbLine
 10
46.939344
 20
12.560668
 30
0.0
 11
47.416139
 21
12.882119
 31
0.0
  0
LINE
  5
1fb
100
AcDbEntity
  8
Layer_1
 62
7
100
AcDbLine
 10
47.416139
 20
12.882119
 30
0.0
 11
48.000008
 21
13.000004
 31
0.0
  0
LINE
  5
1fc
100
AcDbEntity
  8
Layer_1
 62
7
100
AcDbLine
 10
48.000008
 20
13.000004
 30
0.0
 11
48.583878
 21
12.882119
 31
0.0
  0
LINE
  5
1fd
100
AcDbEntity
  8
Layer_1
 62
7
100
AcDbLine
 10
48.583878
 20
12.882119
 30
0.0
 11
49.060673
 21
12.560668
 31
0.0
  0
LINE
  5
1fe
100
AcDbEntity
  8
Layer_1
 62
7
100
AcDbLine
 10
49.060673
 20
12.560668
 30
0.0
 11
49.382135
 21
12.083854
 31
0.0
  0
LINE
  5
1ff
100
AcDbEntity
  8
Layer_1
 62
7
100
AcDbLine
 10
49.382135
 20
12.083854
 30
0.0
 11
49.500008
 21
11.499992
 31
0.0
  0
ENDSEC
  0
SECTION
  2
OBJECTS
  0
DICTIONARY
  5
C
330
0
100
AcDbDictionary
  3
ACAD_GROUP
350
D
  3
ACAD_MLINESTYLE
350
17
  0
DICTIONARY
  5
D
330
C
100
AcDbDictionary
  0
DICTIONARY
  5
1A
330
C
100
AcDbDictionary
  0
DICTIONARY
  5
17
330
C
100
AcDbDictionary
  3
STANDARD
350
18
  0
DICTIONARY
  5
19
330
C
100
AcDbDictionary
  0
ENDSEC
  0
EOF
