  0
SECTION
  2
HEADER
  9
$ACADVER
  1
AC1014
  9
$HANDSEED
  5
FFFF
  9
$MEASUREMENT
 70
     1
  0
ENDSEC
  0
SECTION
  2
TABLES
  0
TABLE
  2
VPORT
  5
8
330
0
100
AcDbSymbolTable
 70
     4
  0
VPORT
  5
2E
330
8
100
AcDbSymbolTableRecord
100
AcDbViewportTableRecord
  2
*ACTIVE
 70
     0
 10
0.0
 20
0.0
 11
1.0
 21
1.0
 12
210.0
 22
148.5
 13
0.0
 23
0.0
 14
10.0
 24
10.0
 15
10.0
 25
10.0
 16
0.0
 26
0.0
 36
1.0
 17
0.0
 27
0.0
 37
0.0
 40
341.0
 41
1.24
 42
50.0
 43
0.0
 44
0.0
 50
0.0
 51
0.0
 71
     0
 72
   100
 73
     1
 74
     3
 75
     0
 76
     0
 77
     0
 78
     0
  0
ENDTAB
  0
TABLE
  2
LTYPE
  5
5
330
0
100
AcDbSymbolTable
 70
     1
  0
LTYPE
  5
14
330
5
100
AcDbSymbolTableRecord
100
AcDbLinetypeTableRecord
  2
BYBLOCK
 70
     0
  3

 72
    65
 73
     0
 40
0.0
  0
LTYPE
  5
15
330
5
100
AcDbSymbolTableRecord
100
AcDbLinetypeTableRecord
  2
BYLAYER
 70
     0
  3

 72
    65
 73
     0
 40
0.0
  0
LTYPE
  5
16
330
5
100
AcDbSymbolTableRecord
100
AcDbLinetypeTableRecord
  2
CONTINUOUS
 70
     0
  3
Solid line
 72
    65
 73
     0
 40
0.0
  0
ENDTAB
  0
TABLE
  2
LAYER
  5
2
100
AcDbSymbolTable
 70
2
  0
LAYER
  5
50
100
AcDbSymbolTableRecord
100
AcDbLayerTableRecord
  2
0
 70
0
  6
CONTINUOUS
  0
LAYER
  5
51
100
AcDbSymbolTableRecord
100
AcDbLayerTableRecord
  2
Layer_1
 70
0
  6
CONTINUOUS
  0
ENDTAB
  0
TABLE
  2
STYLE
  5
3
330
0
100
AcDbSymbolTable
 70
     1
  0
STYLE
  5
11
330
3
100
AcDbSymbolTableRecord
100
AcDbTextStyleTableRecord
  2
STANDARD
 70
     0
 40
0.0
 41
1.0
 50
0.0
 71
     0
 42
2.5
  3
txt
  4

  0
ENDTAB
  0
TABLE
  2
VIEW
  5
6
330
0
100
AcDbSymbolTable
 70
     0
  0
ENDTAB
  0
TABLE
  2
UCS
  5
7
330
0
100
AcDbSymbolTable
 70
     0
  0
ENDTAB
  0
TABLE
  2
APPID
  5
9
330
0
100
AcDbSymbolTable
 70
     2
  0
APPID
  5
12
330
9
100
AcDbSymbolTableRecord
100
AcDbRegAppTableRecord
  2
ACAD
 70
     0
  0
ENDTAB
  0
TABLE
  2
DIMSTYLE
  5
A
330
0
100
AcDbSymbolTable
 70
     1
  0
DIMSTYLE
105
27
330
A
100
AcDbSymbolTableRecord
100
AcDbDimStyleTableRecord
  2
ISO-25
 70
     0
  3

  4

  5

  6

  7

 40
1.0
 41
2.5
 42
0.625
 43
3.75
 44
1.25
 45
0.0
 46
0.0
 47
0.0
 48
0.0
140
2.5
141
2.5
142
0.0
143
0.03937007874016
144
1.0
145
0.0
146
1.0
147
0.625
 71
     0
 72
     0
 73
     0
 74
     0
 75
     0
 76
     0
 77
     1
 78
     8
170
     0
171
     3
172
     1
173
     0
174
     0
175
     0
176
     0
177
     0
178
     0
270
     2
271
     2
272
     2
273
     2
274
     3
340
11
275
     0
280
     0
281
     0
282
     0
283
     0
284
     8
285
     0
286
     0
287
     3
288
     0
  0
ENDTAB
  0
TABLE
  2
BLOCK_RECORD
  5
1
330
0
100
AcDbSymbolTable
 70
     1
  0
BLOCK_RECORD
  5
1F
330
1
100
AcDbSymbolTableRecord
100
AcDbBlockTableRecord
  2
*MODEL_SPACE
  0
BLOCK_RECORD
  5
1B
330
1
100
AcDbSymbolTableRecord
100
AcDbBlockTableRecord
  2
*PAPER_SPACE
  0
ENDTAB
  0
ENDSEC
  0
SECTION
  2
BLOCKS
  0
BLOCK
  5
20
330
1F
100
AcDbEntity
  8
0
100
AcDbBlockBegin
  2
*MODEL_SPACE
 70
     0
 10
0.0
 20
0.0
 30
0.0
  3
*MODEL_SPACE
  1

  0
ENDBLK
  5
21
330
1F
100
AcDbEntity
  8
0
100
AcDbBlockEnd
  0
BLOCK
  5
1C
330
1B
100
AcDbEntity
 67
     1
  8
0
100
AcDbBlockBegin
  2
*PAPER_SPACE
  1

  0
ENDBLK
  5
1D
330
1B
100
AcDbEntity
 67
     1
  8
0
100
AcDbBlockEnd
  0
ENDSEC
  0
SECTION
  2
ENTITIES
  0
LINE
  5
100
100
AcDbEntity
  8
Layer_1
 62
7
100
AcDbLine
 10
-48.000000
 20
-10.900014
 30
0.0
 11
-24.000000
 21
-10.900014
 31
0.0
  0
LINE
  5
101
100
AcDbEntity
  8
Layer_1
 62
7
100
AcDbLine
 10
-24.000000
 20
-10.900014
 30
0.0
 11
0.000000
 21
-10.900014
 31
0.0
  0
LINE
  5
102
100
AcDbEntity
  8
Layer_1
 62
7
100
AcDbLine
 10
0.000000
 20
-10.900014
 30
0.0
 11
24.000000
 21
-10.900014
 31
0.0
  0
LINE
  5
103
100
AcDbEntity
  8
Layer_1
 62
7
100
AcDbLine
 10
24.000000
 20
-10.900014
 30
0.0
 11
48.000000
 21
-10.900014
 31
0.0
  0
LINE
  5
104
100
AcDbEntity
  8
Layer_1
 62
7
100
AcDbLine
 10
48.000000
 20
-10.900014
 30
0.0
 11
49.559876
 21
-10.586634
 31
0.0
  0
LINE
  5
105
100
AcDbEntity
  8
Layer_1
 62
7
100
AcDbLine
 10
49.559876
 20
-10.586634
 30
0.0
 11
50.830999
 21
-9.731021
 31
0.0
  0
LINE
  5
106
100
AcDbEntity
  8
Layer_1
 62
7
100
AcDbLine
 10
50.830999
 20
-9.731021
 30
0.0
 11
51.686627
 21
-8.459864
 31
0.0
  0
LINE
  5
107
100
AcDbEntity
  8
Layer_1
 62
7
100
AcDbLine
 10
51.686627
 20
-8.459864
 30
0.0
 11
52.000000
 21
-6.899993
 31
0.0
  0
LINE
  5
108
100
AcDbEntity
  8
Layer_1
 62
7
100
AcDbLine
 10
52.000000
 20
-6.899993
 30
0.0
 11
52.000000
 21
1.525017
 31
0.0
  0
LINE
  5
109
100
AcDbEntity
  8
Layer_1
 62
7
100
AcDbLine
 10
52.000000
 20
1.525017
 30
0.0
 11
52.000000
 21
9.950000
 31
0.0
  0
LINE
  5
10a
100
AcDbEntity
  8
Layer_1
 62
7
100
AcDbLine
 10
52.000000
 20
9.950000
 30
0.0
 11
52.000000
 21
18.374999
 31
0.0
  0
LINE
  5
10b
100
AcDbEntity
  8
Layer_1
 62
7
100
AcDbLine
 10
52.000000
 20
18.374999
 30
0.0
 11
52.000000
 21
26.799999
 31
0.0
  0
LINE
  5
10c
100
AcDbEntity
  8
Layer_1
 62
7
100
AcDbLine
 10
52.000000
 20
26.799999
 30
0.0
 11
51.686627
 21
28.359875
 31
0.0
  0
LINE
  5
10d
100
AcDbEntity
  8
Layer_1
 62
7
100
AcDbLine
 10
51.686627
 20
28.359875
 30
0.0
 11
50.830999
 21
29.630998
 31
0.0
  0
LINE
  5
10e
100
AcDbEntity
  8
Layer_1
 62
7
100
AcDbLine
 10
50.830999
 20
29.630998
 30
0.0
 11
49.559876
 21
30.486625
 31
0.0
  0
LINE
  5
10f
100
AcDbEntity
  8
Layer_1
 62
7
100
AcDbLine
 10
49.559876
 20
30.486625
 30
0.0
 11
48.000000
 21
30.799999
 31
0.0
  0
LINE
  5
110
100
AcDbEntity
  8
Layer_1
 62
7
100
AcDbLine
 10
48.000000
 20
30.799999
 30
0.0
 11
24.000000
 21
30.799999
 31
0.0
  0
LINE
  5
111
100
AcDbEntity
  8
Layer_1
 62
7
100
AcDbLine
 10
24.000000
 20
30.799999
 30
0.0
 11
0.000000
 21
30.799999
 31
0.0
  0
LINE
  5
112
100
AcDbEntity
  8
Layer_1
 62
7
100
AcDbLine
 10
0.000000
 20
30.799999
 30
0.0
 11
-24.000000
 21
30.799999
 31
0.0
  0
LINE
  5
113
100
AcDbEntity
  8
Layer_1
 62
7
100
AcDbLine
 10
-24.000000
 20
30.799999
 30
0.0
 11
-48.000000
 21
30.799999
 31
0.0
  0
LINE
  5
114
100
AcDbEntity
  8
Layer_1
 62
7
100
AcDbLine
 10
-48.000000
 20
30.799999
 30
0.0
 11
-49.559876
 21
30.486625
 31
0.0
  0
LINE
  5
115
100
AcDbEntity
  8
Layer_1
 62
7
100
AcDbLine
 10
-49.559876
 20
30.486625
 30
0.0
 11
-50.830999
 21
29.630998
 31
0.0
  0
LINE
  5
116
100
AcDbEntity
  8
Layer_1
 62
7
100
AcDbLine
 10
-50.830999
 20
29.630998
 30
0.0
 11
-51.686627
 21
28.359875
 31
0.0
  0
LINE
  5
117
100
AcDbEntity
  8
Layer_1
 62
7
100
AcDbLine
 10
-51.686627
 20
28.359875
 30
0.0
 11
-52.000000
 21
26.799999
 31
0.0
  0
LINE
  5
118
100
AcDbEntity
  8
Layer_1
 62
7
100
AcDbLine
 10
-52.000000
 20
26.799999
 30
0.0
 11
-52.000000
 21
18.374999
 31
0.0
  0
LINE
  5
119
100
AcDbEntity
  8
Layer_1
 62
7
100
AcDbLine
 10
-52.000000
 20
18.374999
 30
0.0
 11
-52.000000
 21
9.950000
 31
0.0
  0
LINE
  5
11a
100
AcDbEntity
  8
Layer_1
 62
7
100
AcDbLine
 10
-52.000000
 20
9.950000
 30
0.0
 11
-52.000000
 21
1.525017
 31
0.0
  0
LINE
  5
11b
100
AcDbEntity
  8
Layer_1
 62
7
100
AcDbLine
 10
-52.000000
 20
1.525017
 30
0.0
 11
-52.000000
 21
-6.899993
 31
0.0
  0
LINE
  5
11c
100
AcDbEntity
  8
Layer_1
 62
7
100
AcDbLine
 10
-52.000000
 20
-6.899993
 30
0.0
 11
-51.686627
 21
-8.459864
 31
0.0
  0
LINE
  5
11d
100
AcDbEntity
  8
Layer_1
 62
7
100
AcDbLine
 10
-51.686627
 20
-8.459864
 30
0.0
 11
-50.830999
 21
-9.731021
 31
0.0
  0
LINE
  5
11e
100
AcDbEntity
  8
Layer_1
 62
7
100
AcDbLine
 10
-50.830999
 20
-9.731021
 30
0.0
 11
-49.559876
 21
-10.586634
 31
0.0
  0
LINE
  5
11f
100
AcDbEntity
  8
Layer_1
 62
7
100
AcDbLine
 10
-49.559876
 20
-10.586634
 30
0.0
 11
-48.000000
 21
-10.900014
 31
0.0
  0
LINE
  5
120
100
AcDbEntity
  8
Layer_1
 62
7
100
AcDbLine
 10
1.499996
 20
27.100006
 30
0.0
 11
1.382118
 21
26.516139
 31
0.0
  0
LINE
  5
121
100
AcDbEntity
  8
Layer_1
 62
7
100
AcDbLine
 10
1.382118
 20
26.516139
 30
0.0
 11
1.060656
 21
26.039348
 31
0.0
  0
LINE
  5
122
100
AcDbEntity
  8
Layer_1
 62
7
100
AcDbLine
 10
1.060656
 20
26.039348
 30
0.0
 11
0.583863
 21
25.717885
 31
0.0
  0
LINE
  5
123
100
AcDbEntity
  8
Layer_1
 62
7
100
AcDbLine
 10
0.583863
 20
25.717885
 30
0.0
 11
-0.000004
 21
25.600007
 31
0.0
  0
LINE
  5
124
100
AcDbEntity
  8
Layer_1
 62
7
100
AcDbLine
 10
-0.000004
 20
25.600007
 30
0.0
 11
-0.583872
 21
25.717885
 31
0.0
  0
LINE
  5
125
100
AcDbEntity
  8
Layer_1
 62
7
100
AcDbLine
 10
-0.583872
 20
25.717885
 30
0.0
 11
-1.060664
 21
26.039348
 31
0.0
  0
LINE
  5
126
100
AcDbEntity
  8
Layer_1
 62
7
100
AcDbLine
 10
-1.060664
 20
26.039348
 30
0.0
 11
-1.382127
 21
26.516139
 31
0.0
  0
LINE
  5
127
100
AcDbEntity
  8
Layer_1
 62
7
100
AcDbLine
 10
-1.382127
 20
26.516139
 30
0.0
 11
-1.500004
 21
27.100006
 31
0.0
  0
LINE
  5
128
100
AcDbEntity
  8
Layer_1
 62
7
100
AcDbLine
 10
-1.500004
 20
27.100006
 30
0.0
 11
-1.382127
 21
27.683873
 31
0.0
  0
LINE
  5
129
100
AcDbEntity
  8
Layer_1
 62
7
100
AcDbLine
 10
-1.382127
 20
27.683873
 30
0.0
 11
-1.060664
 21
28.160665
 31
0.0
  0
LINE
  5
12a
100
AcDbEntity
  8
Layer_1
 62
7
100
AcDbLine
 10
-1.060664
 20
28.160665
 30
0.0
 11
-0.583872
 21
28.482128
 31
0.0
  0
LINE
  5
12b
100
AcDbEntity
  8
Layer_1
 62
7
100
AcDbLine
 10
-0.583872
 20
28.482128
 30
0.0
 11
-0.000004
 21
28.600006
 31
0.0
  0
LINE
  5
12c
100
AcDbEntity
  8
Layer_1
 62
7
100
AcDbLine
 10
-0.000004
 20
28.600006
 30
0.0
 11
0.583863
 21
28.482128
 31
0.0
  0
LINE
  5
12d
100
AcDbEntity
  8
Layer_1
 62
7
100
AcDbLine
 10
0.583863
 20
28.482128
 30
0.0
 11
1.060656
 21
28.160665
 31
0.0
  0
LINE
  5
12e
100
AcDbEntity
  8
Layer_1
 62
7
100
AcDbLine
 10
1.060656
 20
28.160665
 30
0.0
 11
1.382118
 21
27.683873
 31
0.0
  0
LINE
  5
12f
100
AcDbEntity
  8
Layer_1
 62
7
100
AcDbLine
 10
1.382118
 20
27.683873
 30
0.0
 11
1.499996
 21
27.100006
 31
0.0
  0
LINE
  5
130
100
AcDbEntity
  8
Layer_1
 62
7
100
AcDbLine
 10
-46.500003
 20
27.100006
 30
0.0
 11
-46.617882
 21
26.516139
 31
0.0
  0
LINE
  5
131
100
AcDbEntity
  8
Layer_1
 62
7
100
AcDbLine
 10
-46.617882
 20
26.516139
 30
0.0
 11
-46.939344
 21
26.039348
 31
0.0
  0
LINE
  5
132
100
AcDbEntity
  8
Layer_1
 62
7
100
AcDbLine
 10
-46.939344
 20
26.039348
 30
0.0
 11
-47.416136
 21
25.717885
 31
0.0
  0
LINE
  5
133
100
AcDbEntity
  8
Layer_1
 62
7
100
AcDbLine
 10
-47.416136
 20
25.717885
 30
0.0
 11
-48.000003
 21
25.600007
 31
0.0
  0
LINE
  5
134
100
AcDbEntity
  8
Layer_1
 62
7
100
AcDbLine
 10
-48.000003
 20
25.600007
 30
0.0
 11
-48.583870
 21
25.717885
 31
0.0
  0
LINE
  5
135
100
AcDbEntity
  8
Layer_1
 62
7
100
AcDbLine
 10
-48.583870
 20
25.717885
 30
0.0
 11
-49.060662
 21
26.039348
 31
0.0
  0
LINE
  5
136
100
AcDbEntity
  8
Layer_1
 62
7
100
AcDbLine
 10
-49.060662
 20
26.039348
 30
0.0
 11
-49.382124
 21
26.516139
 31
0.0
  0
LINE
  5
137
100
AcDbEntity
  8
Layer_1
 62
7
100
AcDbLine
 10
-49.382124
 20
26.516139
 30
0.0
 11
-49.500003
 21
27.100006
 31
0.0
  0
LINE
  5
138
100
AcDbEntity
  8
Layer_1
 62
7
100
AcDbLine
 10
-49.500003
 20
27.100006
 30
0.0
 11
-49.382124
 21
27.683873
 31
0.0
  0
LINE
  5
139
100
AcDbEntity
  8
Layer_1
 62
7
100
AcDbLine
 10
-49.382124
 20
27.683873
 30
0.0
 11
-49.060662
 21
28.160665
 31
0.0
  0
LINE
  5
13a
100
AcDbEntity
  8
Layer_1
 62
7
100
AcDbLine
 10
-49.060662
 20
28.160665
 30
0.0
 11
-48.583870
 21
28.482128
 31
0.0
  0
LINE
  5
13b
100
AcDbEntity
  8
Layer_1
 62
7
100
AcDbLine
 10
-48.583870
 20
28.482128
 30
0.0
 11
-48.000003
 21
28.600006
 31
0.0
  0
LINE
  5
13c
100
AcDbEntity
  8
Layer_1
 62
7
100
AcDbLine
 10
-48.000003
 20
28.600006
 30
0.0
 11
-47.416136
 21
28.482128
 31
0.0
  0
LINE
  5
13d
100
AcDbEntity
  8
Layer_1
 62
7
100
AcDbLine
 10
-47.416136
 20
28.482128
 30
0.0
 11
-46.939344
 21
28.160665
 31
0.0
  0
LINE
  5
13e
100
AcDbEntity
  8
Layer_1
 62
7
100
AcDbLine
 10
-46.939344
 20
28.160665
 30
0.0
 11
-46.617882
 21
27.683873
 31
0.0
  0
LINE
  5
13f
100
AcDbEntity
  8
Layer_1
 62
7
100
AcDbLine
 10
-46.617882
 20
27.683873
 30
0.0
 11
-46.500003
 21
27.100006
 31
0.0
  0
LINE
  5
140
100
AcDbEntity
  8
Layer_1
 62
7
100
AcDbLine
 10
-46.500003
 20
-6.899993
 30
0.0
 11
-46.617876
 21
-7.483855
 31
0.0
  0
LINE
  5
141
100
AcDbEntity
  8
Layer_1
 62
7
100
AcDbLine
 10
-46.617876
 20
-7.483855
 30
0.0
 11
-46.939338
 21
-7.960669
 31
0.0
  0
LINE
  5
142
100
AcDbEntity
  8
Layer_1
 62
7
100
AcDbLine
 10
-46.939338
 20
-7.960669
 30
0.0
 11
-47.416133
 21
-8.282120
 31
0.0
  0
LINE
  5
143
100
AcDbEntity
  8
Layer_1
 62
7
100
AcDbLine
 10
-47.416133
 20
-8.282120
 30
0.0
 11
-48.000003
 21
-8.400004
 31
0.0
  0
LINE
  5
144
100
AcDbEntity
  8
Layer_1
 62
7
100
AcDbLine
 10
-48.000003
 20
-8.400004
 30
0.0
 11
-48.583873
 21
-8.282120
 31
0.0
  0
LINE
  5
145
100
AcDbEntity
  8
Layer_1
 62
7
100
AcDbLine
 10
-48.583873
 20
-8.282120
 30
0.0
 11
-49.060667
 21
-7.960669
 31
0.0
  0
LINE
  5
146
100
AcDbEntity
  8
Layer_1
 62
7
100
AcDbLine
 10
-49.060667
 20
-7.960669
 30
0.0
 11
-49.382130
 21
-7.483855
 31
0.0
  0
LINE
  5
147
100
AcDbEntity
  8
Layer_1
 62
7
100
AcDbLine
 10
-49.382130
 20
-7.483855
 30
0.0
 11
-49.500003
 21
-6.899993
 31
0.0
  0
LINE
  5
148
100
AcDbEntity
  8
Layer_1
 62
7
100
AcDbLine
 10
-49.500003
 20
-6.899993
 30
0.0
 11
-49.382121
 21
-6.316132
 31
0.0
  0
LINE
  5
149
100
AcDbEntity
  8
Layer_1
 62
7
100
AcDbLine
 10
-49.382121
 20
-6.316132
 30
0.0
 11
-49.060659
 21
-5.839346
 31
0.0
  0
LINE
  5
14a
100
AcDbEntity
  8
Layer_1
 62
7
100
AcDbLine
 10
-49.060659
 20
-5.839346
 30
0.0
 11
-48.583867
 21
-5.517895
 31
0.0
  0
LINE
  5
14b
100
AcDbEntity
  8
Layer_1
 62
7
100
AcDbLine
 10
-48.583867
 20
-5.517895
 30
0.0
 11
-48.000003
 21
-5.400010
 31
0.0
  0
LINE
  5
14c
100
AcDbEntity
  8
Layer_1
 62
7
100
AcDbLine
 10
-48.000003
 20
-5.400010
 30
0.0
 11
-47.416139
 21
-5.517895
 31
0.0
  0
LINE
  5
14d
100
AcDbEntity
  8
Layer_1
 62
7
100
AcDbLine
 10
-47.416139
 20
-5.517895
 30
0.0
 11
-46.939347
 21
-5.839346
 31
0.0
  0
LINE
  5
14e
100
AcDbEntity
  8
Layer_1
 62
7
100
AcDbLine
 10
-46.939347
 20
-5.839346
 30
0.0
 11
-46.617884
 21
-6.316132
 31
0.0
  0
LINE
  5
14f
100
AcDbEntity
  8
Layer_1
 62
7
100
AcDbLine
 10
-46.617884
 20
-6.316132
 30
0.0
 11
-46.500003
 21
-6.899993
 31
0.0
  0
LINE
  5
150
100
AcDbEntity
  8
Layer_1
 62
7
100
AcDbLine
 10
49.499994
 20
27.100006
 30
0.0
 11
49.382116
 21
26.516139
 31
0.0
  0
LINE
  5
151
100
AcDbEntity
  8
Layer_1
 62
7
100
AcDbLine
 10
49.382116
 20
26.516139
 30
0.0
 11
49.060653
 21
26.039348
 31
0.0
  0
LINE
  5
152
100
AcDbEntity
  8
Layer_1
 62
7
100
AcDbLine
 10
49.060653
 20
26.039348
 30
0.0
 11
48.583861
 21
25.717885
 31
0.0
  0
LINE
  5
153
100
AcDbEntity
  8
Layer_1
 62
7
100
AcDbLine
 10
48.583861
 20
25.717885
 30
0.0
 11
47.999994
 21
25.600007
 31
0.0
  0
LINE
  5
154
100
AcDbEntity
  8
Layer_1
 62
7
100
AcDbLine
 10
47.999994
 20
25.600007
 30
0.0
 11
47.416127
 21
25.717885
 31
0.0
  0
LINE
  5
155
100
AcDbEntity
  8
Layer_1
 62
7
100
AcDbLine
 10
47.416127
 20
25.717885
 30
0.0
 11
46.939335
 21
26.039348
 31
0.0
  0
LINE
  5
156
100
AcDbEntity
  8
Layer_1
 62
7
100
AcDbLine
 10
46.939335
 20
26.039348
 30
0.0
 11
46.617873
 21
26.516139
 31
0.0
  0
LINE
  5
157
100
AcDbEntity
  8
Layer_1
 62
7
100
AcDbLine
 10
46.617873
 20
26.516139
 30
0.0
 11
46.499994
 21
27.100006
 31
0.0
  0
LINE
  5
158
100
AcDbEntity
  8
Layer_1
 62
7
100
AcDbLine
 10
46.499994
 20
27.100006
 30
0.0
 11
46.617873
 21
27.683873
 31
0.0
  0
LINE
  5
159
100
AcDbEntity
  8
Layer_1
 62
7
100
AcDbLine
 10
46.617873
 20
27.683873
 30
0.0
 11
46.939335
 21
28.160665
 31
0.0
  0
LINE
  5
15a
100
AcDbEntity
  8
Layer_1
 62
7
100
AcDbLine
 10
46.939335
 20
28.160665
 30
0.0
 11
47.416127
 21
28.482128
 31
0.0
  0
LINE
  5
15b
100
AcDbEntity
  8
Layer_1
 62
7
100
AcDbLine
 10
47.416127
 20
28.482128
 30
0.0
 11
47.999994
 21
28.600006
 31
0.0
  0
LINE
  5
15c
100
AcDbEntity
  8
Layer_1
 62
7
100
AcDbLine
 10
47.999994
 20
28.600006
 30
0.0
 11
48.583861
 21
28.482128
 31
0.0
  0
LINE
  5
15d
100
AcDbEntity
  8
Layer_1
 62
7
100
AcDbLine
 10
48.583861
 20
28.482128
 30
0.0
 11
49.060653
 21
28.160665
 31
0.0
  0
LINE
  5
15e
100
AcDbEntity
  8
Layer_1
 62
7
100
AcDbLine
 10
49.060653
 20
28.160665
 30
0.0
 11
49.382116
 21
27.683873
 31
0.0
  0
LINE
  5
15f
100
AcDbEntity
  8
Layer_1
 62
7
100
AcDbLine
 10
49.382116
 20
27.683873
 30
0.0
 11
49.499994
 21
27.100006
 31
0.0
  0
LINE
  5
160
100
AcDbEntity
  8
Layer_1
 62
7
100
AcDbLine
 10
49.499994
 20
-6.899993
 30
0.0
 11
49.382121
 21
-7.483855
 31
0.0
  0
LINE
  5
161
100
AcDbEntity
  8
Layer_1
 62
7
100
AcDbLine
 10
49.382121
 20
-7.483855
 30
0.0
 11
49.060659
 21
-7.960669
 31
0.0
  0
LINE
  5
162
100
AcDbEntity
  8
Layer_1
 62
7
100
AcDbLine
 10
49.060659
 20
-7.960669
 30
0.0
 11
48.583864
 21
-8.282120
 31
0.0
  0
LINE
  5
163
100
AcDbEntity
  8
Layer_1
 62
7
100
AcDbLine
 10
48.583864
 20
-8.282120
 30
0.0
 11
47.999994
 21
-8.400004
 31
0.0
  0
LINE
  5
164
100
AcDbEntity
  8
Layer_1
 62
7
100
AcDbLine
 10
47.999994
 20
-8.400004
 30
0.0
 11
47.416125
 21
-8.282120
 31
0.0
  0
LINE
  5
165
100
AcDbEntity
  8
Layer_1
 62
7
100
AcDbLine
 10
47.416125
 20
-8.282120
 30
0.0
 11
46.939330
 21
-7.960669
 31
0.0
  0
LINE
  5
166
100
AcDbEntity
  8
Layer_1
 62
7
100
AcDbLine
 10
46.939330
 20
-7.960669
 30
0.0
 11
46.617867
 21
-7.483855
 31
0.0
  0
LINE
  5
167
100
AcDbEntity
  8
Layer_1
 62
7
100
AcDbLine
 10
46.617867
 20
-7.483855
 30
0.0
 11
46.499994
 21
-6.899993
 31
0.0
  0
LINE
  5
168
100
AcDbEntity
  8
Layer_1
 62
7
100
AcDbLine
 10
46.499994
 20
-6.899993
 30
0.0
 11
46.617876
 21
-6.316132
 31
0.0
  0
LINE
  5
169
100
AcDbEntity
  8
Layer_1
 62
7
100
AcDbLine
 10
46.617876
 20
-6.316132
 30
0.0
 11
46.939338
 21
-5.839346
 31
0.0
  0
LINE
  5
16a
100
AcDbEntity
  8
Layer_1
 62
7
100
AcDbLine
 10
46.939338
 20
-5.839346
 30
0.0
 11
47.416130
 21
-5.517895
 31
0.0
  0
LINE
  5
16b
100
AcDbEntity
  8
Layer_1
 62
7
100
AcDbLine
 10
47.416130
 20
-5.517895
 30
0.0
 11
47.999994
 21
-5.400010
 31
0.0
  0
LINE
  5
16c
100
AcDbEntity
  8
Layer_1
 62
7
100
AcDbLine
 10
47.999994
 20
-5.400010
 30
0.0
 11
48.583858
 21
-5.517895
 31
0.0
  0
LINE
  5
16d
100
AcDbEntity
  8
Layer_1
 62
7
100
AcDbLine
 10
48.583858
 20
-5.517895
 30
0.0
 11
49.060650
 21
-5.839346
 31
0.0
  0
LINE
  5
16e
100
AcDbEntity
  8
Layer_1
 62
7
100
AcDbLine
 10
49.060650
 20
-5.839346
 30
0.0
 11
49.382113
 21
-6.316132
 31
0.0
  0
LINE
  5
16f
100
AcDbEntity
  8
Layer_1
 62
7
100
AcDbLine
 10
49.382113
 20
-6.316132
 30
0.0
 11
49.499994
 21
-6.899993
 31
0.0
  0
LINE
  5
170
100
AcDbEntity
  8
Layer_1
 62
7
100
AcDbLine
 10
-36.489170
 20
2.479938
 30
0.0
 11
-36.442181
 21
1.886151
 31
0.0
  0
LINE
  5
171
100
AcDbEntity
  8
Layer_1
 62
7
100
AcDbLine
 10
-36.442181
 20
1.886151
 30
0.0
 11
-36.180235
 21
1.374245
 31
0.0
  0
LINE
  5
172
100
AcDbEntity
  8
Layer_1
 62
7
100
AcDbLine
 10
-36.180235
 20
1.374245
 30
0.0
 11
-35.745450
 21
0.997918
 31
0.0
  0
LINE
  5
173
100
AcDbEntity
  8
Layer_1
 62
7
100
AcDbLine
 10
-35.745450
 20
0.997918
 30
0.0
 11
-35.179945
 21
0.810843
 31
0.0
  0
LINE
  5
174
100
AcDbEntity
  8
Layer_1
 62
7
100
AcDbLine
 10
-35.179945
 20
0.810843
 30
0.0
 11
-34.586156
 21
0.857834
 31
0.0
  0
LINE
  5
175
100
AcDbEntity
  8
Layer_1
 62
7
100
AcDbLine
 10
-34.586156
 20
0.857834
 30
0.0
 11
-34.074246
 21
1.119766
 31
0.0
  0
LINE
  5
176
100
AcDbEntity
  8
Layer_1
 62
7
100
AcDbLine
 10
-34.074246
 20
1.119766
 30
0.0
 11
-33.697908
 21
1.554546
 31
0.0
  0
LINE
  5
177
100
AcDbEntity
  8
Layer_1
 62
7
100
AcDbLine
 10
-33.697908
 20
1.554546
 30
0.0
 11
-33.510835
 21
2.120049
 31
0.0
  0
LINE
  5
178
100
AcDbEntity
  8
Layer_1
 62
7
100
AcDbLine
 10
-33.510835
 20
2.120049
 30
0.0
 11
-33.557815
 21
2.713835
 31
0.0
  0
LINE
  5
179
100
AcDbEntity
  8
Layer_1
 62
7
100
AcDbLine
 10
-33.557815
 20
2.713835
 30
0.0
 11
-33.819755
 21
3.225769
 31
0.0
  0
LINE
  5
17a
100
AcDbEntity
  8
Layer_1
 62
7
100
AcDbLine
 10
-33.819755
 20
3.225769
 30
0.0
 11
-34.254544
 21
3.602096
 31
0.0
  0
LINE
  5
17b
100
AcDbEntity
  8
Layer_1
 62
7
100
AcDbLine
 10
-34.254544
 20
3.602096
 30
0.0
 11
-34.820057
 21
3.789172
 31
0.0
  0
LINE
  5
17c
100
AcDbEntity
  8
Layer_1
 62
7
100
AcDbLine
 10
-34.820057
 20
3.789172
 30
0.0
 11
-35.413853
 21
3.742182
 31
0.0
  0
LINE
  5
17d
100
AcDbEntity
  8
Layer_1
 62
7
100
AcDbLine
 10
-35.413853
 20
3.742182
 30
0.0
 11
-35.925767
 21
3.480250
 31
0.0
  0
LINE
  5
17e
100
AcDbEntity
  8
Layer_1
 62
7
100
AcDbLine
 10
-35.925767
 20
3.480250
 30
0.0
 11
-36.302107
 21
3.045442
 31
0.0
  0
LINE
  5
17f
100
AcDbEntity
  8
Layer_1
 62
7
100
AcDbLine
 10
-36.302107
 20
3.045442
 30
0.0
 11
-36.489170
 21
2.479938
 31
0.0
  0
LINE
  5
180
100
AcDbEntity
  8
Layer_1
 62
7
100
AcDbLine
 10
33.510824
 20
2.479925
 30
0.0
 11
33.557804
 21
1.886139
 31
0.0
  0
LINE
  5
181
100
AcDbEntity
  8
Layer_1
 62
7
100
AcDbLine
 10
33.557804
 20
1.886139
 30
0.0
 11
33.819745
 21
1.374205
 31
0.0
  0
LINE
  5
182
100
AcDbEntity
  8
Layer_1
 62
7
100
AcDbLine
 10
33.819745
 20
1.374205
 30
0.0
 11
34.254535
 21
0.997878
 31
0.0
  0
LINE
  5
183
100
AcDbEntity
  8
Layer_1
 62
7
100
AcDbLine
 10
34.254535
 20
0.997878
 30
0.0
 11
34.820046
 21
0.810802
 31
0.0
  0
LINE
  5
184
100
AcDbEntity
  8
Layer_1
 62
7
100
AcDbLine
 10
34.820046
 20
0.810802
 30
0.0
 11
35.413841
 21
0.857792
 31
0.0
  0
LINE
  5
185
100
AcDbEntity
  8
Layer_1
 62
7
100
AcDbLine
 10
35.413841
 20
0.857792
 30
0.0
 11
35.925755
 21
1.119724
 31
0.0
  0
LINE
  5
186
100
AcDbEntity
  8
Layer_1
 62
7
100
AcDbLine
 10
35.925755
 20
1.119724
 30
0.0
 11
36.302096
 21
1.554532
 31
0.0
  0
LINE
  5
187
100
AcDbEntity
  8
Layer_1
 62
7
100
AcDbLine
 10
36.302096
 20
1.554532
 30
0.0
 11
36.489159
 21
2.120036
 31
0.0
  0
LINE
  5
188
100
AcDbEntity
  8
Layer_1
 62
7
100
AcDbLine
 10
36.489159
 20
2.120036
 30
0.0
 11
36.442179
 21
2.713822
 31
0.0
  0
LINE
  5
189
100
AcDbEntity
  8
Layer_1
 62
7
100
AcDbLine
 10
36.442179
 20
2.713822
 30
0.0
 11
36.180238
 21
3.225756
 31
0.0
  0
LINE
  5
18a
100
AcDbEntity
  8
Layer_1
 62
7
100
AcDbLine
 10
36.180238
 20
3.225756
 30
0.0
 11
35.745449
 21
3.602084
 31
0.0
  0
LINE
  5
18b
100
AcDbEntity
  8
Layer_1
 62
7
100
AcDbLine
 10
35.745449
 20
3.602084
 30
0.0
 11
35.179937
 21
3.789159
 31
0.0
  0
LINE
  5
18c
100
AcDbEntity
  8
Layer_1
 62
7
100
AcDbLine
 10
35.179937
 20
3.789159
 30
0.0
 11
34.586142
 21
3.742169
 31
0.0
  0
LINE
  5
18d
100
AcDbEntity
  8
Layer_1
 62
7
100
AcDbLine
 10
34.586142
 20
3.742169
 30
0.0
 11
34.074229
 21
3.480237
 31
0.0
  0
LINE
  5
18e
100
AcDbEntity
  8
Layer_1
 62
7
100
AcDbLine
 10
34.074229
 20
3.480237
 30
0.0
 11
33.697888
 21
3.045429
 31
0.0
  0
LINE
  5
18f
100
AcDbEntity
  8
Layer_1
 62
7
100
AcDbLine
 10
33.697888
 20
3.045429
 30
0.0
 11
33.510824
 21
2.479925
 31
0.0
  0
LINE
  5
190
100
AcDbEntity
  8
Layer_1
 62
7
100
AcDbLine
 10
16.871985
 20
5.435038
 30
0.0
 11
16.887087
 21
5.038230
 31
0.0
  0
LINE
  5
191
100
AcDbEntity
  8
Layer_1
 62
7
100
AcDbLine
 10
16.887087
 20
5.038230
 30
0.0
 11
16.753491
 21
4.678898
 31
0.0
  0
LINE
  5
192
100
AcDbEntity
  8
Layer_1
 62
7
100
AcDbLine
 10
16.753491
 20
4.678898
 30
0.0
 11
16.494903
 21
4.395874
 31
0.0
  0
LINE
  5
193
100
AcDbEntity
  8
Layer_1
 62
7
100
AcDbLine
 10
16.494903
 20
4.395874
 30
0.0
 11
16.135030
 21
4.228019
 31
0.0
  0
LINE
  5
194
100
AcDbEntity
  8
Layer_1
 62
7
100
AcDbLine
 10
16.135030
 20
4.228019
 30
0.0
 11
15.738217
 21
4.212931
 31
0.0
  0
LINE
  5
195
100
AcDbEntity
  8
Layer_1
 62
7
100
AcDbLine
 10
15.738217
 20
4.212931
 30
0.0
 11
15.378891
 21
4.346511
 31
0.0
  0
LINE
  5
196
100
AcDbEntity
  8
Layer_1
 62
7
100
AcDbLine
 10
15.378891
 20
4.346511
 30
0.0
 11
15.095877
 21
4.605104
 31
0.0
  0
LINE
  5
197
100
AcDbEntity
  8
Layer_1
 62
7
100
AcDbLine
 10
15.095877
 20
4.605104
 30
0.0
 11
14.928009
 21
4.964971
 31
0.0
  0
LINE
  5
198
100
AcDbEntity
  8
Layer_1
 62
7
100
AcDbLine
 10
14.928009
 20
4.964971
 30
0.0
 11
14.912908
 21
5.361778
 31
0.0
  0
LINE
  5
199
100
AcDbEntity
  8
Layer_1
 62
7
100
AcDbLine
 10
14.912908
 20
5.361778
 30
0.0
 11
15.046504
 21
5.721110
 31
0.0
  0
LINE
  5
19a
100
AcDbEntity
  8
Layer_1
 62
7
100
AcDbLine
 10
15.046504
 20
5.721110
 30
0.0
 11
15.305089
 21
6.004134
 31
0.0
  0
LINE
  5
19b
100
AcDbEntity
  8
Layer_1
 62
7
100
AcDbLine
 10
15.305089
 20
6.004134
 30
0.0
 11
15.664965
 21
6.171990
 31
0.0
  0
LINE
  5
19c
100
AcDbEntity
  8
Layer_1
 62
7
100
AcDbLine
 10
15.664965
 20
6.171990
 30
0.0
 11
16.061781
 21
6.187078
 31
0.0
  0
LINE
  5
19d
100
AcDbEntity
  8
Layer_1
 62
7
100
AcDbLine
 10
16.061781
 20
6.187078
 30
0.0
 11
16.421103
 21
6.053498
 31
0.0
  0
LINE
  5
19e
100
AcDbEntity
  8
Layer_1
 62
7
100
AcDbLine
 10
16.421103
 20
6.053498
 30
0.0
 11
16.704118
 21
5.794905
 31
0.0
  0
LINE
  5
19f
100
AcDbEntity
  8
Layer_1
 62
7
100
AcDbLine
 10
16.704118
 20
5.794905
 30
0.0
 11
16.871985
 21
5.435038
 31
0.0
  0
LINE
  5
1a0
100
AcDbEntity
  8
Layer_1
 62
7
100
AcDbLine
 10
-14.928019
 20
5.435032
 30
0.0
 11
-14.912917
 21
5.038219
 31
0.0
  0
LINE
  5
1a1
100
AcDbEntity
  8
Layer_1
 62
7
100
AcDbLine
 10
-14.912917
 20
5.038219
 30
0.0
 11
-15.046514
 21
4.678892
 31
0.0
  0
LINE
  5
1a2
100
AcDbEntity
  8
Layer_1
 62
7
100
AcDbLine
 10
-15.046514
 20
4.678892
 30
0.0
 11
-15.305102
 21
4.395879
 31
0.0
  0
LINE
  5
1a3
100
AcDbEntity
  8
Layer_1
 62
7
100
AcDbLine
 10
-15.305102
 20
4.395879
 30
0.0
 11
-15.664974
 21
4.228010
 31
0.0
  0
LINE
  5
1a4
100
AcDbEntity
  8
Layer_1
 62
7
100
AcDbLine
 10
-15.664974
 20
4.228010
 30
0.0
 11
-16.061787
 21
4.212908
 31
0.0
  0
LINE
  5
1a5
100
AcDbEntity
  8
Layer_1
 62
7
100
AcDbLine
 10
-16.061787
 20
4.212908
 30
0.0
 11
-16.421114
 21
4.346505
 31
0.0
  0
LINE
  5
1a6
100
AcDbEntity
  8
Layer_1
 62
7
100
AcDbLine
 10
-16.421114
 20
4.346505
 30
0.0
 11
-16.704126
 21
4.605092
 31
0.0
  0
LINE
  5
1a7
100
AcDbEntity
  8
Layer_1
 62
7
100
AcDbLine
 10
-16.704126
 20
4.605092
 30
0.0
 11
-16.871996
 21
4.964965
 31
0.0
  0
LINE
  5
1a8
100
AcDbEntity
  8
Layer_1
 62
7
100
AcDbLine
 10
-16.871996
 20
4.964965
 30
0.0
 11
-16.887098
 21
5.361777
 31
0.0
  0
LINE
  5
1a9
100
AcDbEntity
  8
Layer_1
 62
7
100
AcDbLine
 10
-16.887098
 20
5.361777
 30
0.0
 11
-16.753501
 21
5.721104
 31
0.0
  0
LINE
  5
1aa
100
AcDbEntity
  8
Layer_1
 62
7
100
AcDbLine
 10
-16.753501
 20
5.721104
 30
0.0
 11
-16.494914
 21
6.004117
 31
0.0
  0
LINE
  5
1ab
100
AcDbEntity
  8
Layer_1
 62
7
100
AcDbLine
 10
-16.494914
 20
6.004117
 30
0.0
 11
-16.135041
 21
6.171986
 31
0.0
  0
LINE
  5
1ac
100
AcDbEntity
  8
Layer_1
 62
7
100
AcDbLine
 10
-16.135041
 20
6.171986
 30
0.0
 11
-15.738228
 21
6.187089
 31
0.0
  0
LINE
  5
1ad
100
AcDbEntity
  8
Layer_1
 62
7
100
AcDbLine
 10
-15.738228
 20
6.187089
 30
0.0
 11
-15.378902
 21
6.053492
 31
0.0
  0
LINE
  5
1ae
100
AcDbEntity
  8
Layer_1
 62
7
100
AcDbLine
 10
-15.378902
 20
6.053492
 30
0.0
 11
-15.095889
 21
5.794904
 31
0.0
  0
LINE
  5
1af
100
AcDbEntity
  8
Layer_1
 62
7
100
AcDbLine
 10
-15.095889
 20
5.794904
 30
0.0
 11
-14.928019
 21
5.435032
 31
0.0
  0
LINE
  5
1b0
100
AcDbEntity
  8
Layer_1
 62
7
100
AcDbLine
 10
-26.528030
 20
17.735026
 30
0.0
 11
-26.512928
 21
17.338213
 31
0.0
  0
LINE
  5
1b1
100
AcDbEntity
  8
Layer_1
 62
7
100
AcDbLine
 10
-26.512928
 20
17.338213
 30
0.0
 11
-26.646525
 21
16.978886
 31
0.0
  0
LINE
  5
1b2
100
AcDbEntity
  8
Layer_1
 62
7
100
AcDbLine
 10
-26.646525
 20
16.978886
 30
0.0
 11
-26.905112
 21
16.695874
 31
0.0
  0
LINE
  5
1b3
100
AcDbEntity
  8
Layer_1
 62
7
100
AcDbLine
 10
-26.905112
 20
16.695874
 30
0.0
 11
-27.264985
 21
16.528004
 31
0.0
  0
LINE
  5
1b4
100
AcDbEntity
  8
Layer_1
 62
7
100
AcDbLine
 10
-27.264985
 20
16.528004
 30
0.0
 11
-27.661798
 21
16.512902
 31
0.0
  0
LINE
  5
1b5
100
AcDbEntity
  8
Layer_1
 62
7
100
AcDbLine
 10
-27.661798
 20
16.512902
 30
0.0
 11
-28.021124
 21
16.646499
 31
0.0
  0
LINE
  5
1b6
100
AcDbEntity
  8
Layer_1
 62
7
100
AcDbLine
 10
-28.021124
 20
16.646499
 30
0.0
 11
-28.304137
 21
16.905086
 31
0.0
  0
LINE
  5
1b7
100
AcDbEntity
  8
Layer_1
 62
7
100
AcDbLine
 10
-28.304137
 20
16.905086
 30
0.0
 11
-28.472006
 21
17.264959
 31
0.0
  0
LINE
  5
1b8
100
AcDbEntity
  8
Layer_1
 62
7
100
AcDbLine
 10
-28.472006
 20
17.264959
 30
0.0
 11
-28.487109
 21
17.661772
 31
0.0
  0
LINE
  5
1b9
100
AcDbEntity
  8
Layer_1
 62
7
100
AcDbLine
 10
-28.487109
 20
17.661772
 30
0.0
 11
-28.353512
 21
18.021098
 31
0.0
  0
LINE
  5
1ba
100
AcDbEntity
  8
Layer_1
 62
7
100
AcDbLine
 10
-28.353512
 20
18.021098
 30
0.0
 11
-28.094924
 21
18.304111
 31
0.0
  0
LINE
  5
1bb
100
AcDbEntity
  8
Layer_1
 62
7
100
AcDbLine
 10
-28.094924
 20
18.304111
 30
0.0
 11
-27.735052
 21
18.471981
 31
0.0
  0
LINE
  5
1bc
100
AcDbEntity
  8
Layer_1
 62
7
100
AcDbLine
 10
-27.735052
 20
18.471981
 30
0.0
 11
-27.338239
 21
18.487083
 31
0.0
  0
LINE
  5
1bd
100
AcDbEntity
  8
Layer_1
 62
7
100
AcDbLine
 10
-27.338239
 20
18.487083
 30
0.0
 11
-26.978912
 21
18.353486
 31
0.0
  0
LINE
  5
1be
100
AcDbEntity
  8
Layer_1
 62
7
100
AcDbLine
 10
-26.978912
 20
18.353486
 30
0.0
 11
-26.695899
 21
18.094899
 31
0.0
  0
LINE
  5
1bf
100
AcDbEntity
  8
Layer_1
 62
7
100
AcDbLine
 10
-26.695899
 20
18.094899
 30
0.0
 11
-26.528030
 21
17.735026
 31
0.0
  0
LINE
  5
1c0
100
AcDbEntity
  8
Layer_1
 62
7
100
AcDbLine
 10
28.471978
 20
17.735030
 30
0.0
 11
28.487080
 21
17.338217
 31
0.0
  0
LINE
  5
1c1
100
AcDbEntity
  8
Layer_1
 62
7
100
AcDbLine
 10
28.487080
 20
17.338217
 30
0.0
 11
28.353483
 21
16.978891
 31
0.0
  0
LINE
  5
1c2
100
AcDbEntity
  8
Layer_1
 62
7
100
AcDbLine
 10
28.353483
 20
16.978891
 30
0.0
 11
28.094896
 21
16.695878
 31
0.0
  0
LINE
  5
1c3
100
AcDbEntity
  8
Layer_1
 62
7
100
AcDbLine
 10
28.094896
 20
16.695878
 30
0.0
 11
27.735023
 21
16.528009
 31
0.0
  0
LINE
  5
1c4
100
AcDbEntity
  8
Layer_1
 62
7
100
AcDbLine
 10
27.735023
 20
16.528009
 30
0.0
 11
27.338210
 21
16.512906
 31
0.0
  0
LINE
  5
1c5
100
AcDbEntity
  8
Layer_1
 62
7
100
AcDbLine
 10
27.338210
 20
16.512906
 30
0.0
 11
26.978884
 21
16.646503
 31
0.0
  0
LINE
  5
1c6
100
AcDbEntity
  8
Layer_1
 62
7
100
AcDbLine
 10
26.978884
 20
16.646503
 30
0.0
 11
26.695871
 21
16.905091
 31
0.0
  0
LINE
  5
1c7
100
AcDbEntity
  8
Layer_1
 62
7
100
AcDbLine
 10
26.695871
 20
16.905091
 30
0.0
 11
26.528002
 21
17.264963
 31
0.0
  0
LINE
  5
1c8
100
AcDbEntity
  8
Layer_1
 62
7
100
AcDbLine
 10
26.528002
 20
17.264963
 30
0.0
 11
26.512900
 21
17.661773
 31
0.0
  0
LINE
  5
1c9
100
AcDbEntity
  8
Layer_1
 62
7
100
AcDbLine
 10
26.512900
 20
17.661773
 30
0.0
 11
26.646497
 21
18.021100
 31
0.0
  0
LINE
  5
1ca
100
AcDbEntity
  8
Layer_1
 62
7
100
AcDbLine
 10
26.646497
 20
18.021100
 30
0.0
 11
26.905087
 21
18.304113
 31
0.0
  0
LINE
  5
1cb
100
AcDbEntity
  8
Layer_1
 62
7
100
AcDbLine
 10
26.905087
 20
18.304113
 30
0.0
 11
27.264957
 21
18.471982
 31
0.0
  0
LINE
  5
1cc
100
AcDbEntity
  8
Layer_1
 62
7
100
AcDbLine
 10
27.264957
 20
18.471982
 30
0.0
 11
27.661767
 21
18.487084
 31
0.0
  0
LINE
  5
1cd
100
AcDbEntity
  8
Layer_1
 62
7
100
AcDbLine
 10
27.661767
 20
18.487084
 30
0.0
 11
28.021096
 21
18.353488
 31
0.0
  0
LINE
  5
1ce
100
AcDbEntity
  8
Layer_1
 62
7
100
AcDbLine
 10
28.021096
 20
18.353488
 30
0.0
 11
28.304109
 21
18.094900
 31
0.0
  0
LINE
  5
1cf
100
AcDbEntity
  8
Layer_1
 62
7
100
AcDbLine
 10
28.304109
 20
18.094900
 30
0.0
 11
28.471978
 21
17.735030
 31
0.0
  0
LINE
  5
1d0
100
AcDbEntity
  8
Layer_1
 62
7
100
AcDbLine
 10
1.499996
 20
17.500006
 30
0.0
 11
1.382118
 21
16.916139
 31
0.0
  0
LINE
  5
1d1
100
AcDbEntity
  8
Layer_1
 62
7
100
AcDbLine
 10
1.382118
 20
16.916139
 30
0.0
 11
1.060656
 21
16.439347
 31
0.0
  0
LINE
  5
1d2
100
AcDbEntity
  8
Layer_1
 62
7
100
AcDbLine
 10
1.060656
 20
16.439347
 30
0.0
 11
0.583863
 21
16.117885
 31
0.0
  0
LINE
  5
1d3
100
AcDbEntity
  8
Layer_1
 62
7
100
AcDbLine
 10
0.583863
 20
16.117885
 30
0.0
 11
-0.000004
 21
16.000006
 31
0.0
  0
LINE
  5
1d4
100
AcDbEntity
  8
Layer_1
 62
7
100
AcDbLine
 10
-0.000004
 20
16.000006
 30
0.0
 11
-0.583872
 21
16.117885
 31
0.0
  0
LINE
  5
1d5
100
AcDbEntity
  8
Layer_1
 62
7
100
AcDbLine
 10
-0.583872
 20
16.117885
 30
0.0
 11
-1.060664
 21
16.439347
 31
0.0
  0
LINE
  5
1d6
100
AcDbEntity
  8
Layer_1
 62
7
100
AcDbLine
 10
-1.060664
 20
16.439347
 30
0.0
 11
-1.382127
 21
16.916139
 31
0.0
  0
LINE
  5
1d7
100
AcDbEntity
  8
Layer_1
 62
7
100
AcDbLine
 10
-1.382127
 20
16.916139
 30
0.0
 11
-1.500004
 21
17.500006
 31
0.0
  0
LINE
  5
1d8
100
AcDbEntity
  8
Layer_1
 62
7
100
AcDbLine
 10
-1.500004
 20
17.500006
 30
0.0
 11
-1.382127
 21
18.083873
 31
0.0
  0
LINE
  5
1d9
100
AcDbEntity
  8
Layer_1
 62
7
100
AcDbLine
 10
-1.382127
 20
18.083873
 30
0.0
 11
-1.060664
 21
18.560665
 31
0.0
  0
LINE
  5
1da
100
AcDbEntity
  8
Layer_1
 62
7
100
AcDbLine
 10
-1.060664
 20
18.560665
 30
0.0
 11
-0.583872
 21
18.882127
 31
0.0
  0
LINE
  5
1db
100
AcDbEntity
  8
Layer_1
 62
7
100
AcDbLine
 10
-0.583872
 20
18.882127
 30
0.0
 11
-0.000004
 21
19.000006
 31
0.0
  0
LINE
  5
1dc
100
AcDbEntity
  8
Layer_1
 62
7
100
AcDbLine
 10
-0.000004
 20
19.000006
 30
0.0
 11
0.583863
 21
18.882127
 31
0.0
  0
LINE
  5
1dd
100
AcDbEntity
  8
Layer_1
 62
7
100
AcDbLine
 10
0.583863
 20
18.882127
 30
0.0
 11
1.060656
 21
18.560665
 31
0.0
  0
LINE
  5
1de
100
AcDbEntity
  8
Layer_1
 62
7
100
AcDbLine
 10
1.060656
 20
18.560665
 30
0.0
 11
1.382118
 21
18.083873
 31
0.0
  0
LINE
  5
1df
100
AcDbEntity
  8
Layer_1
 62
7
100
AcDbLine
 10
1.382118
 20
18.083873
 30
0.0
 11
1.499996
 21
17.500006
 31
0.0
  0
LINE
  5
1e0
100
AcDbEntity
  8
Layer_1
 62
7
100
AcDbLine
 10
-46.500003
 20
11.499992
 30
0.0
 11
-46.617876
 21
10.916131
 31
0.0
  0
LINE
  5
1e1
100
AcDbEntity
  8
Layer_1
 62
7
100
AcDbLine
 10
-46.617876
 20
10.916131
 30
0.0
 11
-46.939338
 21
10.439317
 31
0.0
  0
LINE
  5
1e2
100
AcDbEntity
  8
Layer_1
 62
7
100
AcDbLine
 10
-46.939338
 20
10.439317
 30
0.0
 11
-47.416133
 21
10.117866
 31
0.0
  0
LINE
  5
1e3
100
AcDbEntity
  8
Layer_1
 62
7
100
AcDbLine
 10
-47.416133
 20
10.117866
 30
0.0
 11
-48.000003
 21
9.999981
 31
0.0
  0
LINE
  5
1e4
100
AcDbEntity
  8
Layer_1
 62
7
100
AcDbLine
 10
-48.000003
 20
9.999981
 30
0.0
 11
-48.583873
 21
10.117866
 31
0.0
  0
LINE
  5
1e5
100
AcDbEntity
  8
Layer_1
 62
7
100
AcDbLine
 10
-48.583873
 20
10.117866
 30
0.0
 11
-49.060667
 21
10.439317
 31
0.0
  0
LINE
  5
1e6
100
AcDbEntity
  8
Layer_1
 62
7
100
AcDbLine
 10
-49.060667
 20
10.439317
 30
0.0
 11
-49.382130
 21
10.916131
 31
0.0
  0
LINE
  5
1e7
100
AcDbEntity
  8
Layer_1
 62
7
100
AcDbLine
 10
-49.382130
 20
10.916131
 30
0.0
 11
-49.500003
 21
11.499992
 31
0.0
  0
LINE
  5
1e8
100
AcDbEntity
  8
Layer_1
 62
7
100
AcDbLine
 10
-49.500003
 20
11.499992
 30
0.0
 11
-49.382130
 21
12.083854
 31
0.0
  0
LINE
  5
1e9
100
AcDbEntity
  8
Layer_1
 62
7
100
AcDbLine
 10
-49.382130
 20
12.083854
 30
0.0
 11
-49.060667
 21
12.560668
 31
0.0
  0
LINE
  5
1ea
100
AcDbEntity
  8
Layer_1
 62
7
100
AcDbLine
 10
-49.060667
 20
12.560668
 30
0.0
 11
-48.583873
 21
12.882119
 31
0.0
  0
LINE
  5
1eb
100
AcDbEntity
  8
Layer_1
 62
7
100
AcDbLine
 10
-48.583873
 20
12.882119
 30
0.0
 11
-48.000003
 21
13.000004
 31
0.0
  0
LINE
  5
1ec
100
AcDbEntity
  8
Layer_1
 62
7
100
AcDbLine
 10
-48.000003
 20
13.000004
 30
0.0
 11
-47.416133
 21
12.882119
 31
0.0
  0
LINE
  5
1ed
100
AcDbEntity
  8
Layer_1
 62
7
100
AcDbLine
 10
-47.416133
 20
12.882119
 30
0.0
 11
-46.939338
 21
12.560668
 31
0.0
  0
LINE
  5
1ee
100
AcDbEntity
  8
Layer_1
 62
7
100
AcDbLine
 10
-46.939338
 20
12.560668
 30
0.0
 11
-46.617876
 21
12.083854
 31
0.0
  0
LINE
  5
1ef
100
AcDbEntity
  8
Layer_1
 62
7
100
AcDbLine
 10
-46.617876
 20
12.083854
 30
0.0
 11
-46.500003
 21
11.499992
 31
0.0
  0
LINE
  5
1f0
100
AcDbEntity
  8
Layer_1
 62
7
100
AcDbLine
 10
49.499994
 20
11.499992
 30
0.0
 11
49.382121
 21
10.916131
 31
0.0
  0
LINE
  5
1f1
100
AcDbEntity
  8
Layer_1
 62
7
100
AcDbLine
 10
49.382121
 20
10.916131
 30
0.0
 11
49.060659
 21
10.439317
 31
0.0
  0
LINE
  5
1f2
100
AcDbEntity
  8
Layer_1
 62
7
100
AcDbLine
 10
49.060659
 20
10.439317
 30
0.0
 11
48.583864
 21
10.117866
 31
0.0
  0
LINE
  5
1f3
100
AcDbEntity
  8
Layer_1
 62
7
100
AcDbLine
 10
48.583864
 20
10.117866
 30
0.0
 11
47.999994
 21
9.999981
 31
0.0
  0
LINE
  5
1f4
100
AcDbEntity
  8
Layer_1
 62
7
100
AcDbLine
 10
47.999994
 20
9.999981
 30
0.0
 11
47.416125
 21
10.117866
 31
0.0
  0
LINE
  5
1f5
100
AcDbEntity
  8
Layer_1
 62
7
100
AcDbLine
 10
47.416125
 20
10.117866
 30
0.0
 11
46.939330
 21
10.439317
 31
0.0
  0
LINE
  5
1f6
100
AcDbEntity
  8
Layer_1
 62
7
100
AcDbLine
 10
46.939330
 20
10.439317
 30
0.0
 11
46.617867
 21
10.916131
 31
0.0
  0
LINE
  5
1f7
100
AcDbEntity
  8
Layer_1
 62
7
100
AcDbLine
 10
46.617867
 20
10.916131
 30
0.0
 11
46.499994
 21
11.499992
 31
0.0
  0
LINE
  5
1f8
100
AcDbEntity
  8
Layer_1
 62
7
100
AcDbLine
 10
46.499994
 20
11.499992
 30
0.0
 11
46.617867
 21
12.083854
 31
0.0
  0
LINE
  5
1f9
100
AcDbEntity
  8
Layer_1
 62
7
100
AcDbLine
 10
46.617867
 20
12.083854
 30
0.0
 11
46.939330
 21
12.560668
 31
0.0
  0
LINE
  5
1fa
100
AcDbEntity
  8
Layer_1
 62
7
100
AcDbLine
 10
46.939330
 20
12.560668
 30
0.0
 11
47.416125
 21
12.882119
 31
0.0
  0
LINE
  5
1fb
100
AcDbEntity
  8
Layer_1
 62
7
100
AcDbLine
 10
47.416125
 20
12.882119
 30
0.0
 11
47.999994
 21
13.000004
 31
0.0
  0
LINE
  5
1fc
100
AcDbEntity
  8
Layer_1
 62
7
100
AcDbLine
 10
47.999994
 20
13.000004
 30
0.0
 11
48.583864
 21
12.882119
 31
0.0
  0
LINE
  5
1fd
100
AcDbEntity
  8
Layer_1
 62
7
100
AcDbLine
 10
48.583864
 20
12.882119
 30
0.0
 11
49.060659
 21
12.560668
 31
0.0
  0
LINE
  5
1fe
100
AcDbEntity
  8
Layer_1
 62
7
100
AcDbLine
 10
49.060659
 20
12.560668
 30
0.0
 11
49.382121
 21
12.083854
 31
0.0
  0
LINE
  5
1ff
100
AcDbEntity
  8
Layer_1
 62
7
100
AcDbLine
 10
49.382121
 20
12.083854
 30
0.0
 11
49.499994
 21
11.499992
 31
0.0
  0
LINE
  5
200
100
AcDbEntity
  8
Layer_1
 62
7
100
AcDbLine
 10
-7.000022
 20
-7.499998
 30
0.0
 11
-3.500015
 21
-7.499998
 31
0.0
  0
LINE
  5
201
100
AcDbEntity
  8
Layer_1
 62
7
100
AcDbLine
 10
-3.500015
 20
-7.499998
 30
0.0
 11
-0.000008
 21
-7.499998
 31
0.0
  0
LINE
  5
202
100
AcDbEntity
  8
Layer_1
 62
7
100
AcDbLine
 10
-0.000008
 20
-7.499998
 30
0.0
 11
3.499999
 21
-7.499998
 31
0.0
  0
LINE
  5
203
100
AcDbEntity
  8
Layer_1
 62
7
100
AcDbLine
 10
3.499999
 20
-7.499998
 30
0.0
 11
7.000007
 21
-7.499998
 31
0.0
  0
LINE
  5
204
100
AcDbEntity
  8
Layer_1
 62
7
100
AcDbLine
 10
7.000007
 20
-7.499998
 30
0.0
 11
8.734373
 21
-5.449230
 31
0.0
  0
LINE
  5
205
100
AcDbEntity
  8
Layer_1
 62
7
100
AcDbLine
 10
8.734373
 20
-5.449230
 30
0.0
 11
9.624994
 21
-3.281255
 31
0.0
  0
LINE
  5
206
100
AcDbEntity
  8
Layer_1
 62
7
100
AcDbLine
 10
9.624994
 20
-3.281255
 30
0.0
 11
9.953117
 21
-1.347666
 31
0.0
  0
LINE
  5
207
100
AcDbEntity
  8
Layer_1
 62
7
100
AcDbLine
 10
9.953117
 20
-1.347666
 30
0.0
 11
9.999992
 21
-0.000027
 31
0.0
  0
LINE
  5
208
100
AcDbEntity
  8
Layer_1
 62
7
100
AcDbLine
 10
9.999992
 20
-0.000027
 30
0.0
 11
9.953117
 21
1.347641
 31
0.0
  0
LINE
  5
209
100
AcDbEntity
  8
Layer_1
 62
7
100
AcDbLine
 10
9.953117
 20
1.347641
 30
0.0
 11
9.624994
 21
3.281230
 31
0.0
  0
LINE
  5
20a
100
AcDbEntity
  8
Layer_1
 62
7
100
AcDbLine
 10
9.624994
 20
3.281230
 30
0.0
 11
8.734373
 21
5.449233
 31
0.0
  0
LINE
  5
20b
100
AcDbEntity
  8
Layer_1
 62
7
100
AcDbLine
 10
8.734373
 20
5.449233
 30
0.0
 11
7.000007
 21
7.500029
 31
0.0
  0
LINE
  5
20c
100
AcDbEntity
  8
Layer_1
 62
7
100
AcDbLine
 10
7.000007
 20
7.500029
 30
0.0
 11
3.499999
 21
7.500029
 31
0.0
  0
LINE
  5
20d
100
AcDbEntity
  8
Layer_1
 62
7
100
AcDbLine
 10
3.499999
 20
7.500029
 30
0.0
 11
-0.000008
 21
7.500029
 31
0.0
  0
LINE
  5
20e
100
AcDbEntity
  8
Layer_1
 62
7
100
AcDbLine
 10
-0.000008
 20
7.500029
 30
0.0
 11
-3.500015
 21
7.500029
 31
0.0
  0
LINE
  5
20f
100
AcDbEntity
  8
Layer_1
 62
7
100
AcDbLine
 10
-3.500015
 20
7.500029
 30
0.0
 11
-7.000022
 21
7.500029
 31
0.0
  0
LINE
  5
210
100
AcDbEntity
  8
Layer_1
 62
7
100
AcDbLine
 10
-7.000022
 20
7.500029
 30
0.0
 11
-8.734389
 21
5.449233
 31
0.0
  0
LINE
  5
211
100
AcDbEntity
  8
Layer_1
 62
7
100
AcDbLine
 10
-8.734389
 20
5.449233
 30
0.0
 11
-9.625009
 21
3.281230
 31
0.0
  0
LINE
  5
212
100
AcDbEntity
  8
Layer_1
 62
7
100
AcDbLine
 10
-9.625009
 20
3.281230
 30
0.0
 11
-9.953133
 21
1.347641
 31
0.0
  0
LINE
  5
213
100
AcDbEntity
  8
Layer_1
 62
7
100
AcDbLine
 10
-9.953133
 20
1.347641
 30
0.0
 11
-10.000007
 21
-0.000027
 31
0.0
  0
LINE
  5
214
100
AcDbEntity
  8
Layer_1
 62
7
100
AcDbLine
 10
-10.000007
 20
-0.000027
 30
0.0
 11
-9.953133
 21
-1.347666
 31
0.0
  0
LINE
  5
215
100
AcDbEntity
  8
Layer_1
 62
7
100
AcDbLine
 10
-9.953133
 20
-1.347666
 30
0.0
 11
-9.625009
 21
-3.281255
 31
0.0
  0
LINE
  5
216
100
AcDbEntity
  8
Layer_1
 62
7
100
AcDbLine
 10
-9.625009
 20
-3.281255
 30
0.0
 11
-8.734389
 21
-5.449230
 31
0.0
  0
LINE
  5
217
100
AcDbEntity
  8
Layer_1
 62
7
100
AcDbLine
 10
-8.734389
 20
-5.449230
 30
0.0
 11
-7.000022
 21
-7.499998
 31
0.0
  0
ENDSEC
  0
SECTION
  2
OBJECTS
  0
DICTIONARY
  5
C
330
0
100
AcDbDictionary
  3
ACAD_GROUP
350
D
  3
ACAD_MLINESTYLE
350
17
  0
DICTIONARY
  5
D
330
C
100
AcDbDictionary
  0
DICTIONARY
  5
1A
330
C
100
AcDbDictionary
  0
DICTIONARY
  5
17
330
C
100
AcDbDictionary
  3
STANDARD
350
18
  0
DICTIONARY
  5
19
330
C
100
AcDbDictionary
  0
ENDSEC
  0
EOF
