  0
SECTION
  2
HEADER
  9
$ACADVER
  1
AC1014
  9
$HANDSEED
  5
FFFF
  9
$MEASUREMENT
 70
     1
  0
ENDSEC
  0
SECTION
  2
TABLES
  0
TABLE
  2
VPORT
  5
8
330
0
100
AcDbSymbolTable
 70
     4
  0
VPORT
  5
2E
330
8
100
AcDbSymbolTableRecord
100
AcDbViewportTableRecord
  2
*ACTIVE
 70
     0
 10
0.0
 20
0.0
 11
1.0
 21
1.0
 12
210.0
 22
148.5
 13
0.0
 23
0.0
 14
10.0
 24
10.0
 15
10.0
 25
10.0
 16
0.0
 26
0.0
 36
1.0
 17
0.0
 27
0.0
 37
0.0
 40
341.0
 41
1.24
 42
50.0
 43
0.0
 44
0.0
 50
0.0
 51
0.0
 71
     0
 72
   100
 73
     1
 74
     3
 75
     0
 76
     0
 77
     0
 78
     0
  0
ENDTAB
  0
TABLE
  2
LTYPE
  5
5
330
0
100
AcDbSymbolTable
 70
     1
  0
LTYPE
  5
14
330
5
100
AcDbSymbolTableRecord
100
AcDbLinetypeTableRecord
  2
BYBLOCK
 70
     0
  3

 72
    65
 73
     0
 40
0.0
  0
LTYPE
  5
15
330
5
100
AcDbSymbolTableRecord
100
AcDbLinetypeTableRecord
  2
BYLAYER
 70
     0
  3

 72
    65
 73
     0
 40
0.0
  0
LTYPE
  5
16
330
5
100
AcDbSymbolTableRecord
100
AcDbLinetypeTableRecord
  2
CONTINUOUS
 70
     0
  3
Solid line
 72
    65
 73
     0
 40
0.0
  0
ENDTAB
  0
TABLE
  2
LAYER
  5
2
100
AcDbSymbolTable
 70
2
  0
LAYER
  5
50
100
AcDbSymbolTableRecord
100
AcDbLayerTableRecord
  2
0
 70
0
  6
CONTINUOUS
  0
LAYER
  5
51
100
AcDbSymbolTableRecord
100
AcDbLayerTableRecord
  2
Layer_1
 70
0
  6
CONTINUOUS
  0
ENDTAB
  0
TABLE
  2
STYLE
  5
3
330
0
100
AcDbSymbolTable
 70
     1
  0
STYLE
  5
11
330
3
100
AcDbSymbolTableRecord
100
AcDbTextStyleTableRecord
  2
STANDARD
 70
     0
 40
0.0
 41
1.0
 50
0.0
 71
     0
 42
2.5
  3
txt
  4

  0
ENDTAB
  0
TABLE
  2
VIEW
  5
6
330
0
100
AcDbSymbolTable
 70
     0
  0
ENDTAB
  0
TABLE
  2
UCS
  5
7
330
0
100
AcDbSymbolTable
 70
     0
  0
ENDTAB
  0
TABLE
  2
APPID
  5
9
330
0
100
AcDbSymbolTable
 70
     2
  0
APPID
  5
12
330
9
100
AcDbSymbolTableRecord
100
AcDbRegAppTableRecord
  2
ACAD
 70
     0
  0
ENDTAB
  0
TABLE
  2
DIMSTYLE
  5
A
330
0
100
AcDbSymbolTable
 70
     1
  0
DIMSTYLE
105
27
330
A
100
AcDbSymbolTableRecord
100
AcDbDimStyleTableRecord
  2
ISO-25
 70
     0
  3

  4

  5

  6

  7

 40
1.0
 41
2.5
 42
0.625
 43
3.75
 44
1.25
 45
0.0
 46
0.0
 47
0.0
 48
0.0
140
2.5
141
2.5
142
0.0
143
0.03937007874016
144
1.0
145
0.0
146
1.0
147
0.625
 71
     0
 72
     0
 73
     0
 74
     0
 75
     0
 76
     0
 77
     1
 78
     8
170
     0
171
     3
172
     1
173
     0
174
     0
175
     0
176
     0
177
     0
178
     0
270
     2
271
     2
272
     2
273
     2
274
     3
340
11
275
     0
280
     0
281
     0
282
     0
283
     0
284
     8
285
     0
286
     0
287
     3
288
     0
  0
ENDTAB
  0
TABLE
  2
BLOCK_RECORD
  5
1
330
0
100
AcDbSymbolTable
 70
     1
  0
BLOCK_RECORD
  5
1F
330
1
100
AcDbSymbolTableRecord
100
AcDbBlockTableRecord
  2
*MODEL_SPACE
  0
BLOCK_RECORD
  5
1B
330
1
100
AcDbSymbolTableRecord
100
AcDbBlockTableRecord
  2
*PAPER_SPACE
  0
ENDTAB
  0
ENDSEC
  0
SECTION
  2
BLOCKS
  0
BLOCK
  5
20
330
1F
100
AcDbEntity
  8
0
100
AcDbBlockBegin
  2
*MODEL_SPACE
 70
     0
 10
0.0
 20
0.0
 30
0.0
  3
*MODEL_SPACE
  1

  0
ENDBLK
  5
21
330
1F
100
AcDbEntity
  8
0
100
AcDbBlockEnd
  0
BLOCK
  5
1C
330
1B
100
AcDbEntity
 67
     1
  8
0
100
AcDbBlockBegin
  2
*PAPER_SPACE
  1

  0
ENDBLK
  5
1D
330
1B
100
AcDbEntity
 67
     1
  8
0
100
AcDbBlockEnd
  0
ENDSEC
  0
SECTION
  2
ENTITIES
  0
LINE
  5
100
100
AcDbEntity
  8
Layer_1
 62
7
100
AcDbLine
 10
-48.000000
 20
-10.900014
 30
0.0
 11
-24.000000
 21
-10.900014
 31
0.0
  0
LINE
  5
101
100
AcDbEntity
  8
Layer_1
 62
7
100
AcDbLine
 10
-24.000000
 20
-10.900014
 30
0.0
 11
0.000000
 21
-10.900014
 31
0.0
  0
LINE
  5
102
100
AcDbEntity
  8
Layer_1
 62
7
100
AcDbLine
 10
0.000000
 20
-10.900014
 30
0.0
 11
24.000000
 21
-10.900014
 31
0.0
  0
LINE
  5
103
100
AcDbEntity
  8
Layer_1
 62
7
100
AcDbLine
 10
24.000000
 20
-10.900014
 30
0.0
 11
48.000000
 21
-10.900014
 31
0.0
  0
LINE
  5
104
100
AcDbEntity
  8
Layer_1
 62
7
100
AcDbLine
 10
48.000000
 20
-10.900014
 30
0.0
 11
49.559876
 21
-10.586634
 31
0.0
  0
LINE
  5
105
100
AcDbEntity
  8
Layer_1
 62
7
100
AcDbLine
 10
49.559876
 20
-10.586634
 30
0.0
 11
50.830999
 21
-9.731021
 31
0.0
  0
LINE
  5
106
100
AcDbEntity
  8
Layer_1
 62
7
100
AcDbLine
 10
50.830999
 20
-9.731021
 30
0.0
 11
51.686627
 21
-8.459864
 31
0.0
  0
LINE
  5
107
100
AcDbEntity
  8
Layer_1
 62
7
100
AcDbLine
 10
51.686627
 20
-8.459864
 30
0.0
 11
52.000000
 21
-6.899993
 31
0.0
  0
LINE
  5
108
100
AcDbEntity
  8
Layer_1
 62
7
100
AcDbLine
 10
52.000000
 20
-6.899993
 30
0.0
 11
52.000000
 21
1.525017
 31
0.0
  0
LINE
  5
109
100
AcDbEntity
  8
Layer_1
 62
7
100
AcDbLine
 10
52.000000
 20
1.525017
 30
0.0
 11
52.000000
 21
9.950000
 31
0.0
  0
LINE
  5
10a
100
AcDbEntity
  8
Layer_1
 62
7
100
AcDbLine
 10
52.000000
 20
9.950000
 30
0.0
 11
52.000000
 21
18.374999
 31
0.0
  0
LINE
  5
10b
100
AcDbEntity
  8
Layer_1
 62
7
100
AcDbLine
 10
52.000000
 20
18.374999
 30
0.0
 11
52.000000
 21
26.799999
 31
0.0
  0
LINE
  5
10c
100
AcDbEntity
  8
Layer_1
 62
7
100
AcDbLine
 10
52.000000
 20
26.799999
 30
0.0
 11
51.686627
 21
28.359875
 31
0.0
  0
LINE
  5
10d
100
AcDbEntity
  8
Layer_1
 62
7
100
AcDbLine
 10
51.686627
 20
28.359875
 30
0.0
 11
50.830999
 21
29.630998
 31
0.0
  0
LINE
  5
10e
100
AcDbEntity
  8
Layer_1
 62
7
100
AcDbLine
 10
50.830999
 20
29.630998
 30
0.0
 11
49.559876
 21
30.486625
 31
0.0
  0
LINE
  5
10f
100
AcDbEntity
  8
Layer_1
 62
7
100
AcDbLine
 10
49.559876
 20
30.486625
 30
0.0
 11
48.000000
 21
30.799999
 31
0.0
  0
LINE
  5
110
100
AcDbEntity
  8
Layer_1
 62
7
100
AcDbLine
 10
48.000000
 20
30.799999
 30
0.0
 11
24.000000
 21
30.799999
 31
0.0
  0
LINE
  5
111
100
AcDbEntity
  8
Layer_1
 62
7
100
AcDbLine
 10
24.000000
 20
30.799999
 30
0.0
 11
0.000000
 21
30.799999
 31
0.0
  0
LINE
  5
112
100
AcDbEntity
  8
Layer_1
 62
7
100
AcDbLine
 10
0.000000
 20
30.799999
 30
0.0
 11
-24.000000
 21
30.799999
 31
0.0
  0
LINE
  5
113
100
AcDbEntity
  8
Layer_1
 62
7
100
AcDbLine
 10
-24.000000
 20
30.799999
 30
0.0
 11
-48.000000
 21
30.799999
 31
0.0
  0
LINE
  5
114
100
AcDbEntity
  8
Layer_1
 62
7
100
AcDbLine
 10
-48.000000
 20
30.799999
 30
0.0
 11
-49.559876
 21
30.486625
 31
0.0
  0
LINE
  5
115
100
AcDbEntity
  8
Layer_1
 62
7
100
AcDbLine
 10
-49.559876
 20
30.486625
 30
0.0
 11
-50.830999
 21
29.630998
 31
0.0
  0
LINE
  5
116
100
AcDbEntity
  8
Layer_1
 62
7
100
AcDbLine
 10
-50.830999
 20
29.630998
 30
0.0
 11
-51.686627
 21
28.359875
 31
0.0
  0
LINE
  5
117
100
AcDbEntity
  8
Layer_1
 62
7
100
AcDbLine
 10
-51.686627
 20
28.359875
 30
0.0
 11
-52.000000
 21
26.799999
 31
0.0
  0
LINE
  5
118
100
AcDbEntity
  8
Layer_1
 62
7
100
AcDbLine
 10
-52.000000
 20
26.799999
 30
0.0
 11
-52.000000
 21
18.374999
 31
0.0
  0
LINE
  5
119
100
AcDbEntity
  8
Layer_1
 62
7
100
AcDbLine
 10
-52.000000
 20
18.374999
 30
0.0
 11
-52.000000
 21
9.950000
 31
0.0
  0
LINE
  5
11a
100
AcDbEntity
  8
Layer_1
 62
7
100
AcDbLine
 10
-52.000000
 20
9.950000
 30
0.0
 11
-52.000000
 21
1.525017
 31
0.0
  0
LINE
  5
11b
100
AcDbEntity
  8
Layer_1
 62
7
100
AcDbLine
 10
-52.000000
 20
1.525017
 30
0.0
 11
-52.000000
 21
-6.899993
 31
0.0
  0
LINE
  5
11c
100
AcDbEntity
  8
Layer_1
 62
7
100
AcDbLine
 10
-52.000000
 20
-6.899993
 30
0.0
 11
-51.686627
 21
-8.459864
 31
0.0
  0
LINE
  5
11d
100
AcDbEntity
  8
Layer_1
 62
7
100
AcDbLine
 10
-51.686627
 20
-8.459864
 30
0.0
 11
-50.830999
 21
-9.731021
 31
0.0
  0
LINE
  5
11e
100
AcDbEntity
  8
Layer_1
 62
7
100
AcDbLine
 10
-50.830999
 20
-9.731021
 30
0.0
 11
-49.559876
 21
-10.586634
 31
0.0
  0
LINE
  5
11f
100
AcDbEntity
  8
Layer_1
 62
7
100
AcDbLine
 10
-49.559876
 20
-10.586634
 30
0.0
 11
-48.000000
 21
-10.900014
 31
0.0
  0
LINE
  5
120
100
AcDbEntity
  8
Layer_1
 62
7
100
AcDbLine
 10
1.499996
 20
27.099989
 30
0.0
 11
1.382118
 21
26.516122
 31
0.0
  0
LINE
  5
121
100
AcDbEntity
  8
Layer_1
 62
7
100
AcDbLine
 10
1.382118
 20
26.516122
 30
0.0
 11
1.060656
 21
26.039331
 31
0.0
  0
LINE
  5
122
100
AcDbEntity
  8
Layer_1
 62
7
100
AcDbLine
 10
1.060656
 20
26.039331
 30
0.0
 11
0.583863
 21
25.717868
 31
0.0
  0
LINE
  5
123
100
AcDbEntity
  8
Layer_1
 62
7
100
AcDbLine
 10
0.583863
 20
25.717868
 30
0.0
 11
-0.000004
 21
25.599990
 31
0.0
  0
LINE
  5
124
100
AcDbEntity
  8
Layer_1
 62
7
100
AcDbLine
 10
-0.000004
 20
25.599990
 30
0.0
 11
-0.583872
 21
25.717868
 31
0.0
  0
LINE
  5
125
100
AcDbEntity
  8
Layer_1
 62
7
100
AcDbLine
 10
-0.583872
 20
25.717868
 30
0.0
 11
-1.060664
 21
26.039331
 31
0.0
  0
LINE
  5
126
100
AcDbEntity
  8
Layer_1
 62
7
100
AcDbLine
 10
-1.060664
 20
26.039331
 30
0.0
 11
-1.382127
 21
26.516122
 31
0.0
  0
LINE
  5
127
100
AcDbEntity
  8
Layer_1
 62
7
100
AcDbLine
 10
-1.382127
 20
26.516122
 30
0.0
 11
-1.500004
 21
27.099989
 31
0.0
  0
LINE
  5
128
100
AcDbEntity
  8
Layer_1
 62
7
100
AcDbLine
 10
-1.500004
 20
27.099989
 30
0.0
 11
-1.382127
 21
27.683856
 31
0.0
  0
LINE
  5
129
100
AcDbEntity
  8
Layer_1
 62
7
100
AcDbLine
 10
-1.382127
 20
27.683856
 30
0.0
 11
-1.060664
 21
28.160648
 31
0.0
  0
LINE
  5
12a
100
AcDbEntity
  8
Layer_1
 62
7
100
AcDbLine
 10
-1.060664
 20
28.160648
 30
0.0
 11
-0.583872
 21
28.482111
 31
0.0
  0
LINE
  5
12b
100
AcDbEntity
  8
Layer_1
 62
7
100
AcDbLine
 10
-0.583872
 20
28.482111
 30
0.0
 11
-0.000004
 21
28.599989
 31
0.0
  0
LINE
  5
12c
100
AcDbEntity
  8
Layer_1
 62
7
100
AcDbLine
 10
-0.000004
 20
28.599989
 30
0.0
 11
0.583863
 21
28.482111
 31
0.0
  0
LINE
  5
12d
100
AcDbEntity
  8
Layer_1
 62
7
100
AcDbLine
 10
0.583863
 20
28.482111
 30
0.0
 11
1.060656
 21
28.160648
 31
0.0
  0
LINE
  5
12e
100
AcDbEntity
  8
Layer_1
 62
7
100
AcDbLine
 10
1.060656
 20
28.160648
 30
0.0
 11
1.382118
 21
27.683856
 31
0.0
  0
LINE
  5
12f
100
AcDbEntity
  8
Layer_1
 62
7
100
AcDbLine
 10
1.382118
 20
27.683856
 30
0.0
 11
1.499996
 21
27.099989
 31
0.0
  0
LINE
  5
130
100
AcDbEntity
  8
Layer_1
 62
7
100
AcDbLine
 10
-46.500003
 20
27.099989
 30
0.0
 11
-46.617882
 21
26.516122
 31
0.0
  0
LINE
  5
131
100
AcDbEntity
  8
Layer_1
 62
7
100
AcDbLine
 10
-46.617882
 20
26.516122
 30
0.0
 11
-46.939344
 21
26.039331
 31
0.0
  0
LINE
  5
132
100
AcDbEntity
  8
Layer_1
 62
7
100
AcDbLine
 10
-46.939344
 20
26.039331
 30
0.0
 11
-47.416136
 21
25.717868
 31
0.0
  0
LINE
  5
133
100
AcDbEntity
  8
Layer_1
 62
7
100
AcDbLine
 10
-47.416136
 20
25.717868
 30
0.0
 11
-48.000003
 21
25.599990
 31
0.0
  0
LINE
  5
134
100
AcDbEntity
  8
Layer_1
 62
7
100
AcDbLine
 10
-48.000003
 20
25.599990
 30
0.0
 11
-48.583870
 21
25.717868
 31
0.0
  0
LINE
  5
135
100
AcDbEntity
  8
Layer_1
 62
7
100
AcDbLine
 10
-48.583870
 20
25.717868
 30
0.0
 11
-49.060662
 21
26.039331
 31
0.0
  0
LINE
  5
136
100
AcDbEntity
  8
Layer_1
 62
7
100
AcDbLine
 10
-49.060662
 20
26.039331
 30
0.0
 11
-49.382124
 21
26.516122
 31
0.0
  0
LINE
  5
137
100
AcDbEntity
  8
Layer_1
 62
7
100
AcDbLine
 10
-49.382124
 20
26.516122
 30
0.0
 11
-49.500003
 21
27.099989
 31
0.0
  0
LINE
  5
138
100
AcDbEntity
  8
Layer_1
 62
7
100
AcDbLine
 10
-49.500003
 20
27.099989
 30
0.0
 11
-49.382124
 21
27.683856
 31
0.0
  0
LINE
  5
139
100
AcDbEntity
  8
Layer_1
 62
7
100
AcDbLine
 10
-49.382124
 20
27.683856
 30
0.0
 11
-49.060662
 21
28.160648
 31
0.0
  0
LINE
  5
13a
100
AcDbEntity
  8
Layer_1
 62
7
100
AcDbLine
 10
-49.060662
 20
28.160648
 30
0.0
 11
-48.583870
 21
28.482111
 31
0.0
  0
LINE
  5
13b
100
AcDbEntity
  8
Layer_1
 62
7
100
AcDbLine
 10
-48.583870
 20
28.482111
 30
0.0
 11
-48.000003
 21
28.599989
 31
0.0
  0
LINE
  5
13c
100
AcDbEntity
  8
Layer_1
 62
7
100
AcDbLine
 10
-48.000003
 20
28.599989
 30
0.0
 11
-47.416136
 21
28.482111
 31
0.0
  0
LINE
  5
13d
100
AcDbEntity
  8
Layer_1
 62
7
100
AcDbLine
 10
-47.416136
 20
28.482111
 30
0.0
 11
-46.939344
 21
28.160648
 31
0.0
  0
LINE
  5
13e
100
AcDbEntity
  8
Layer_1
 62
7
100
AcDbLine
 10
-46.939344
 20
28.160648
 30
0.0
 11
-46.617882
 21
27.683856
 31
0.0
  0
LINE
  5
13f
100
AcDbEntity
  8
Layer_1
 62
7
100
AcDbLine
 10
-46.617882
 20
27.683856
 30
0.0
 11
-46.500003
 21
27.099989
 31
0.0
  0
LINE
  5
140
100
AcDbEntity
  8
Layer_1
 62
7
100
AcDbLine
 10
-46.500003
 20
-6.899993
 30
0.0
 11
-46.617876
 21
-7.483855
 31
0.0
  0
LINE
  5
141
100
AcDbEntity
  8
Layer_1
 62
7
100
AcDbLine
 10
-46.617876
 20
-7.483855
 30
0.0
 11
-46.939338
 21
-7.960669
 31
0.0
  0
LINE
  5
142
100
AcDbEntity
  8
Layer_1
 62
7
100
AcDbLine
 10
-46.939338
 20
-7.960669
 30
0.0
 11
-47.416133
 21
-8.282120
 31
0.0
  0
LINE
  5
143
100
AcDbEntity
  8
Layer_1
 62
7
100
AcDbLine
 10
-47.416133
 20
-8.282120
 30
0.0
 11
-48.000003
 21
-8.400004
 31
0.0
  0
LINE
  5
144
100
AcDbEntity
  8
Layer_1
 62
7
100
AcDbLine
 10
-48.000003
 20
-8.400004
 30
0.0
 11
-48.583873
 21
-8.282120
 31
0.0
  0
LINE
  5
145
100
AcDbEntity
  8
Layer_1
 62
7
100
AcDbLine
 10
-48.583873
 20
-8.282120
 30
0.0
 11
-49.060667
 21
-7.960669
 31
0.0
  0
LINE
  5
146
100
AcDbEntity
  8
Layer_1
 62
7
100
AcDbLine
 10
-49.060667
 20
-7.960669
 30
0.0
 11
-49.382130
 21
-7.483855
 31
0.0
  0
LINE
  5
147
100
AcDbEntity
  8
Layer_1
 62
7
100
AcDbLine
 10
-49.382130
 20
-7.483855
 30
0.0
 11
-49.500003
 21
-6.899993
 31
0.0
  0
LINE
  5
148
100
AcDbEntity
  8
Layer_1
 62
7
100
AcDbLine
 10
-49.500003
 20
-6.899993
 30
0.0
 11
-49.382121
 21
-6.316132
 31
0.0
  0
LINE
  5
149
100
AcDbEntity
  8
Layer_1
 62
7
100
AcDbLine
 10
-49.382121
 20
-6.316132
 30
0.0
 11
-49.060659
 21
-5.839346
 31
0.0
  0
LINE
  5
14a
100
AcDbEntity
  8
Layer_1
 62
7
100
AcDbLine
 10
-49.060659
 20
-5.839346
 30
0.0
 11
-48.583867
 21
-5.517895
 31
0.0
  0
LINE
  5
14b
100
AcDbEntity
  8
Layer_1
 62
7
100
AcDbLine
 10
-48.583867
 20
-5.517895
 30
0.0
 11
-48.000003
 21
-5.400010
 31
0.0
  0
LINE
  5
14c
100
AcDbEntity
  8
Layer_1
 62
7
100
AcDbLine
 10
-48.000003
 20
-5.400010
 30
0.0
 11
-47.416139
 21
-5.517895
 31
0.0
  0
LINE
  5
14d
100
AcDbEntity
  8
Layer_1
 62
7
100
AcDbLine
 10
-47.416139
 20
-5.517895
 30
0.0
 11
-46.939347
 21
-5.839346
 31
0.0
  0
LINE
  5
14e
100
AcDbEntity
  8
Layer_1
 62
7
100
AcDbLine
 10
-46.939347
 20
-5.839346
 30
0.0
 11
-46.617884
 21
-6.316132
 31
0.0
  0
LINE
  5
14f
100
AcDbEntity
  8
Layer_1
 62
7
100
AcDbLine
 10
-46.617884
 20
-6.316132
 30
0.0
 11
-46.500003
 21
-6.899993
 31
0.0
  0
LINE
  5
150
100
AcDbEntity
  8
Layer_1
 62
7
100
AcDbLine
 10
49.499994
 20
27.099989
 30
0.0
 11
49.382116
 21
26.516122
 31
0.0
  0
LINE
  5
151
100
AcDbEntity
  8
Layer_1
 62
7
100
AcDbLine
 10
49.382116
 20
26.516122
 30
0.0
 11
49.060653
 21
26.039331
 31
0.0
  0
LINE
  5
152
100
AcDbEntity
  8
Layer_1
 62
7
100
AcDbLine
 10
49.060653
 20
26.039331
 30
0.0
 11
48.583861
 21
25.717868
 31
0.0
  0
LINE
  5
153
100
AcDbEntity
  8
Layer_1
 62
7
100
AcDbLine
 10
48.583861
 20
25.717868
 30
0.0
 11
47.999994
 21
25.599990
 31
0.0
  0
LINE
  5
154
100
AcDbEntity
  8
Layer_1
 62
7
100
AcDbLine
 10
47.999994
 20
25.599990
 30
0.0
 11
47.416127
 21
25.717868
 31
0.0
  0
LINE
  5
155
100
AcDbEntity
  8
Layer_1
 62
7
100
AcDbLine
 10
47.416127
 20
25.717868
 30
0.0
 11
46.939335
 21
26.039331
 31
0.0
  0
LINE
  5
156
100
AcDbEntity
  8
Layer_1
 62
7
100
AcDbLine
 10
46.939335
 20
26.039331
 30
0.0
 11
46.617873
 21
26.516122
 31
0.0
  0
LINE
  5
157
100
AcDbEntity
  8
Layer_1
 62
7
100
AcDbLine
 10
46.617873
 20
26.516122
 30
0.0
 11
46.499994
 21
27.099989
 31
0.0
  0
LINE
  5
158
100
AcDbEntity
  8
Layer_1
 62
7
100
AcDbLine
 10
46.499994
 20
27.099989
 30
0.0
 11
46.617873
 21
27.683856
 31
0.0
  0
LINE
  5
159
100
AcDbEntity
  8
Layer_1
 62
7
100
AcDbLine
 10
46.617873
 20
27.683856
 30
0.0
 11
46.939335
 21
28.160648
 31
0.0
  0
LINE
  5
15a
100
AcDbEntity
  8
Layer_1
 62
7
100
AcDbLine
 10
46.939335
 20
28.160648
 30
0.0
 11
47.416127
 21
28.482111
 31
0.0
  0
LINE
  5
15b
100
AcDbEntity
  8
Layer_1
 62
7
100
AcDbLine
 10
47.416127
 20
28.482111
 30
0.0
 11
47.999994
 21
28.599989
 31
0.0
  0
LINE
  5
15c
100
AcDbEntity
  8
Layer_1
 62
7
100
AcDbLine
 10
47.999994
 20
28.599989
 30
0.0
 11
48.583861
 21
28.482111
 31
0.0
  0
LINE
  5
15d
100
AcDbEntity
  8
Layer_1
 62
7
100
AcDbLine
 10
48.583861
 20
28.482111
 30
0.0
 11
49.060653
 21
28.160648
 31
0.0
  0
LINE
  5
15e
100
AcDbEntity
  8
Layer_1
 62
7
100
AcDbLine
 10
49.060653
 20
28.160648
 30
0.0
 11
49.382116
 21
27.683856
 31
0.0
  0
LINE
  5
15f
100
AcDbEntity
  8
Layer_1
 62
7
100
AcDbLine
 10
49.382116
 20
27.683856
 30
0.0
 11
49.499994
 21
27.099989
 31
0.0
  0
LINE
  5
160
100
AcDbEntity
  8
Layer_1
 62
7
100
AcDbLine
 10
49.499994
 20
-6.899993
 30
0.0
 11
49.382121
 21
-7.483855
 31
0.0
  0
LINE
  5
161
100
AcDbEntity
  8
Layer_1
 62
7
100
AcDbLine
 10
49.382121
 20
-7.483855
 30
0.0
 11
49.060659
 21
-7.960669
 31
0.0
  0
LINE
  5
162
100
AcDbEntity
  8
Layer_1
 62
7
100
AcDbLine
 10
49.060659
 20
-7.960669
 30
0.0
 11
48.583864
 21
-8.282120
 31
0.0
  0
LINE
  5
163
100
AcDbEntity
  8
Layer_1
 62
7
100
AcDbLine
 10
48.583864
 20
-8.282120
 30
0.0
 11
47.999994
 21
-8.400004
 31
0.0
  0
LINE
  5
164
100
AcDbEntity
  8
Layer_1
 62
7
100
AcDbLine
 10
47.999994
 20
-8.400004
 30
0.0
 11
47.416125
 21
-8.282120
 31
0.0
  0
LINE
  5
165
100
AcDbEntity
  8
Layer_1
 62
7
100
AcDbLine
 10
47.416125
 20
-8.282120
 30
0.0
 11
46.939330
 21
-7.960669
 31
0.0
  0
LINE
  5
166
100
AcDbEntity
  8
Layer_1
 62
7
100
AcDbLine
 10
46.939330
 20
-7.960669
 30
0.0
 11
46.617867
 21
-7.483855
 31
0.0
  0
LINE
  5
167
100
AcDbEntity
  8
Layer_1
 62
7
100
AcDbLine
 10
46.617867
 20
-7.483855
 30
0.0
 11
46.499994
 21
-6.899993
 31
0.0
  0
LINE
  5
168
100
AcDbEntity
  8
Layer_1
 62
7
100
AcDbLine
 10
46.499994
 20
-6.899993
 30
0.0
 11
46.617876
 21
-6.316132
 31
0.0
  0
LINE
  5
169
100
AcDbEntity
  8
Layer_1
 62
7
100
AcDbLine
 10
46.617876
 20
-6.316132
 30
0.0
 11
46.939338
 21
-5.839346
 31
0.0
  0
LINE
  5
16a
100
AcDbEntity
  8
Layer_1
 62
7
100
AcDbLine
 10
46.939338
 20
-5.839346
 30
0.0
 11
47.416130
 21
-5.517895
 31
0.0
  0
LINE
  5
16b
100
AcDbEntity
  8
Layer_1
 62
7
100
AcDbLine
 10
47.416130
 20
-5.517895
 30
0.0
 11
47.999994
 21
-5.400010
 31
0.0
  0
LINE
  5
16c
100
AcDbEntity
  8
Layer_1
 62
7
100
AcDbLine
 10
47.999994
 20
-5.400010
 30
0.0
 11
48.583858
 21
-5.517895
 31
0.0
  0
LINE
  5
16d
100
AcDbEntity
  8
Layer_1
 62
7
100
AcDbLine
 10
48.583858
 20
-5.517895
 30
0.0
 11
49.060650
 21
-5.839346
 31
0.0
  0
LINE
  5
16e
100
AcDbEntity
  8
Layer_1
 62
7
100
AcDbLine
 10
49.060650
 20
-5.839346
 30
0.0
 11
49.382113
 21
-6.316132
 31
0.0
  0
LINE
  5
16f
100
AcDbEntity
  8
Layer_1
 62
7
100
AcDbLine
 10
49.382113
 20
-6.316132
 30
0.0
 11
49.499994
 21
-6.899993
 31
0.0
  0
LINE
  5
170
100
AcDbEntity
  8
Layer_1
 62
7
100
AcDbLine
 10
1.499996
 20
17.499972
 30
0.0
 11
1.382118
 21
16.916105
 31
0.0
  0
LINE
  5
171
100
AcDbEntity
  8
Layer_1
 62
7
100
AcDbLine
 10
1.382118
 20
16.916105
 30
0.0
 11
1.060656
 21
16.439313
 31
0.0
  0
LINE
  5
172
100
AcDbEntity
  8
Layer_1
 62
7
100
AcDbLine
 10
1.060656
 20
16.439313
 30
0.0
 11
0.583863
 21
16.117851
 31
0.0
  0
LINE
  5
173
100
AcDbEntity
  8
Layer_1
 62
7
100
AcDbLine
 10
0.583863
 20
16.117851
 30
0.0
 11
-0.000004
 21
15.999972
 31
0.0
  0
LINE
  5
174
100
AcDbEntity
  8
Layer_1
 62
7
100
AcDbLine
 10
-0.000004
 20
15.999972
 30
0.0
 11
-0.583872
 21
16.117851
 31
0.0
  0
LINE
  5
175
100
AcDbEntity
  8
Layer_1
 62
7
100
AcDbLine
 10
-0.583872
 20
16.117851
 30
0.0
 11
-1.060664
 21
16.439313
 31
0.0
  0
LINE
  5
176
100
AcDbEntity
  8
Layer_1
 62
7
100
AcDbLine
 10
-1.060664
 20
16.439313
 30
0.0
 11
-1.382127
 21
16.916105
 31
0.0
  0
LINE
  5
177
100
AcDbEntity
  8
Layer_1
 62
7
100
AcDbLine
 10
-1.382127
 20
16.916105
 30
0.0
 11
-1.500004
 21
17.499972
 31
0.0
  0
LINE
  5
178
100
AcDbEntity
  8
Layer_1
 62
7
100
AcDbLine
 10
-1.500004
 20
17.499972
 30
0.0
 11
-1.382127
 21
18.083839
 31
0.0
  0
LINE
  5
179
100
AcDbEntity
  8
Layer_1
 62
7
100
AcDbLine
 10
-1.382127
 20
18.083839
 30
0.0
 11
-1.060664
 21
18.560631
 31
0.0
  0
LINE
  5
17a
100
AcDbEntity
  8
Layer_1
 62
7
100
AcDbLine
 10
-1.060664
 20
18.560631
 30
0.0
 11
-0.583872
 21
18.882093
 31
0.0
  0
LINE
  5
17b
100
AcDbEntity
  8
Layer_1
 62
7
100
AcDbLine
 10
-0.583872
 20
18.882093
 30
0.0
 11
-0.000004
 21
18.999972
 31
0.0
  0
LINE
  5
17c
100
AcDbEntity
  8
Layer_1
 62
7
100
AcDbLine
 10
-0.000004
 20
18.999972
 30
0.0
 11
0.583863
 21
18.882093
 31
0.0
  0
LINE
  5
17d
100
AcDbEntity
  8
Layer_1
 62
7
100
AcDbLine
 10
0.583863
 20
18.882093
 30
0.0
 11
1.060656
 21
18.560631
 31
0.0
  0
LINE
  5
17e
100
AcDbEntity
  8
Layer_1
 62
7
100
AcDbLine
 10
1.060656
 20
18.560631
 30
0.0
 11
1.382118
 21
18.083839
 31
0.0
  0
LINE
  5
17f
100
AcDbEntity
  8
Layer_1
 62
7
100
AcDbLine
 10
1.382118
 20
18.083839
 30
0.0
 11
1.499996
 21
17.499972
 31
0.0
  0
LINE
  5
180
100
AcDbEntity
  8
Layer_1
 62
7
100
AcDbLine
 10
-46.500003
 20
11.499992
 30
0.0
 11
-46.617876
 21
10.916131
 31
0.0
  0
LINE
  5
181
100
AcDbEntity
  8
Layer_1
 62
7
100
AcDbLine
 10
-46.617876
 20
10.916131
 30
0.0
 11
-46.939338
 21
10.439317
 31
0.0
  0
LINE
  5
182
100
AcDbEntity
  8
Layer_1
 62
7
100
AcDbLine
 10
-46.939338
 20
10.439317
 30
0.0
 11
-47.416133
 21
10.117866
 31
0.0
  0
LINE
  5
183
100
AcDbEntity
  8
Layer_1
 62
7
100
AcDbLine
 10
-47.416133
 20
10.117866
 30
0.0
 11
-48.000003
 21
9.999981
 31
0.0
  0
LINE
  5
184
100
AcDbEntity
  8
Layer_1
 62
7
100
AcDbLine
 10
-48.000003
 20
9.999981
 30
0.0
 11
-48.583873
 21
10.117866
 31
0.0
  0
LINE
  5
185
100
AcDbEntity
  8
Layer_1
 62
7
100
AcDbLine
 10
-48.583873
 20
10.117866
 30
0.0
 11
-49.060667
 21
10.439317
 31
0.0
  0
LINE
  5
186
100
AcDbEntity
  8
Layer_1
 62
7
100
AcDbLine
 10
-49.060667
 20
10.439317
 30
0.0
 11
-49.382130
 21
10.916131
 31
0.0
  0
LINE
  5
187
100
AcDbEntity
  8
Layer_1
 62
7
100
AcDbLine
 10
-49.382130
 20
10.916131
 30
0.0
 11
-49.500003
 21
11.499992
 31
0.0
  0
LINE
  5
188
100
AcDbEntity
  8
Layer_1
 62
7
100
AcDbLine
 10
-49.500003
 20
11.499992
 30
0.0
 11
-49.382130
 21
12.083854
 31
0.0
  0
LINE
  5
189
100
AcDbEntity
  8
Layer_1
 62
7
100
AcDbLine
 10
-49.382130
 20
12.083854
 30
0.0
 11
-49.060667
 21
12.560668
 31
0.0
  0
LINE
  5
18a
100
AcDbEntity
  8
Layer_1
 62
7
100
AcDbLine
 10
-49.060667
 20
12.560668
 30
0.0
 11
-48.583873
 21
12.882119
 31
0.0
  0
LINE
  5
18b
100
AcDbEntity
  8
Layer_1
 62
7
100
AcDbLine
 10
-48.583873
 20
12.882119
 30
0.0
 11
-48.000003
 21
13.000004
 31
0.0
  0
LINE
  5
18c
100
AcDbEntity
  8
Layer_1
 62
7
100
AcDbLine
 10
-48.000003
 20
13.000004
 30
0.0
 11
-47.416133
 21
12.882119
 31
0.0
  0
LINE
  5
18d
100
AcDbEntity
  8
Layer_1
 62
7
100
AcDbLine
 10
-47.416133
 20
12.882119
 30
0.0
 11
-46.939338
 21
12.560668
 31
0.0
  0
LINE
  5
18e
100
AcDbEntity
  8
Layer_1
 62
7
100
AcDbLine
 10
-46.939338
 20
12.560668
 30
0.0
 11
-46.617876
 21
12.083854
 31
0.0
  0
LINE
  5
18f
100
AcDbEntity
  8
Layer_1
 62
7
100
AcDbLine
 10
-46.617876
 20
12.083854
 30
0.0
 11
-46.500003
 21
11.499992
 31
0.0
  0
LINE
  5
190
100
AcDbEntity
  8
Layer_1
 62
7
100
AcDbLine
 10
49.499994
 20
11.499992
 30
0.0
 11
49.382121
 21
10.916131
 31
0.0
  0
LINE
  5
191
100
AcDbEntity
  8
Layer_1
 62
7
100
AcDbLine
 10
49.382121
 20
10.916131
 30
0.0
 11
49.060659
 21
10.439317
 31
0.0
  0
LINE
  5
192
100
AcDbEntity
  8
Layer_1
 62
7
100
AcDbLine
 10
49.060659
 20
10.439317
 30
0.0
 11
48.583864
 21
10.117866
 31
0.0
  0
LINE
  5
193
100
AcDbEntity
  8
Layer_1
 62
7
100
AcDbLine
 10
48.583864
 20
10.117866
 30
0.0
 11
47.999994
 21
9.999981
 31
0.0
  0
LINE
  5
194
100
AcDbEntity
  8
Layer_1
 62
7
100
AcDbLine
 10
47.999994
 20
9.999981
 30
0.0
 11
47.416125
 21
10.117866
 31
0.0
  0
LINE
  5
195
100
AcDbEntity
  8
Layer_1
 62
7
100
AcDbLine
 10
47.416125
 20
10.117866
 30
0.0
 11
46.939330
 21
10.439317
 31
0.0
  0
LINE
  5
196
100
AcDbEntity
  8
Layer_1
 62
7
100
AcDbLine
 10
46.939330
 20
10.439317
 30
0.0
 11
46.617867
 21
10.916131
 31
0.0
  0
LINE
  5
197
100
AcDbEntity
  8
Layer_1
 62
7
100
AcDbLine
 10
46.617867
 20
10.916131
 30
0.0
 11
46.499994
 21
11.499992
 31
0.0
  0
LINE
  5
198
100
AcDbEntity
  8
Layer_1
 62
7
100
AcDbLine
 10
46.499994
 20
11.499992
 30
0.0
 11
46.617867
 21
12.083854
 31
0.0
  0
LINE
  5
199
100
AcDbEntity
  8
Layer_1
 62
7
100
AcDbLine
 10
46.617867
 20
12.083854
 30
0.0
 11
46.939330
 21
12.560668
 31
0.0
  0
LINE
  5
19a
100
AcDbEntity
  8
Layer_1
 62
7
100
AcDbLine
 10
46.939330
 20
12.560668
 30
0.0
 11
47.416125
 21
12.882119
 31
0.0
  0
LINE
  5
19b
100
AcDbEntity
  8
Layer_1
 62
7
100
AcDbLine
 10
47.416125
 20
12.882119
 30
0.0
 11
47.999994
 21
13.000004
 31
0.0
  0
LINE
  5
19c
100
AcDbEntity
  8
Layer_1
 62
7
100
AcDbLine
 10
47.999994
 20
13.000004
 30
0.0
 11
48.583864
 21
12.882119
 31
0.0
  0
LINE
  5
19d
100
AcDbEntity
  8
Layer_1
 62
7
100
AcDbLine
 10
48.583864
 20
12.882119
 30
0.0
 11
49.060659
 21
12.560668
 31
0.0
  0
LINE
  5
19e
100
AcDbEntity
  8
Layer_1
 62
7
100
AcDbLine
 10
49.060659
 20
12.560668
 30
0.0
 11
49.382121
 21
12.083854
 31
0.0
  0
LINE
  5
19f
100
AcDbEntity
  8
Layer_1
 62
7
100
AcDbLine
 10
49.382121
 20
12.083854
 30
0.0
 11
49.499994
 21
11.499992
 31
0.0
  0
LINE
  5
1a0
100
AcDbEntity
  8
Layer_1
 62
7
100
AcDbLine
 10
-7.000045
 20
-7.500054
 30
0.0
 11
-3.500038
 21
-7.500054
 31
0.0
  0
LINE
  5
1a1
100
AcDbEntity
  8
Layer_1
 62
7
100
AcDbLine
 10
-3.500038
 20
-7.500054
 30
0.0
 11
-0.000031
 21
-7.500054
 31
0.0
  0
LINE
  5
1a2
100
AcDbEntity
  8
Layer_1
 62
7
100
AcDbLine
 10
-0.000031
 20
-7.500054
 30
0.0
 11
3.499976
 21
-7.500054
 31
0.0
  0
LINE
  5
1a3
100
AcDbEntity
  8
Layer_1
 62
7
100
AcDbLine
 10
3.499976
 20
-7.500054
 30
0.0
 11
6.999983
 21
-7.500054
 31
0.0
  0
LINE
  5
1a4
100
AcDbEntity
  8
Layer_1
 62
7
100
AcDbLine
 10
6.999983
 20
-7.500054
 30
0.0
 11
8.734350
 21
-5.449286
 31
0.0
  0
LINE
  5
1a5
100
AcDbEntity
  8
Layer_1
 62
7
100
AcDbLine
 10
8.734350
 20
-5.449286
 30
0.0
 11
9.624971
 21
-3.281312
 31
0.0
  0
LINE
  5
1a6
100
AcDbEntity
  8
Layer_1
 62
7
100
AcDbLine
 10
9.624971
 20
-3.281312
 30
0.0
 11
9.953094
 21
-1.347723
 31
0.0
  0
LINE
  5
1a7
100
AcDbEntity
  8
Layer_1
 62
7
100
AcDbLine
 10
9.953094
 20
-1.347723
 30
0.0
 11
9.999969
 21
-0.000083
 31
0.0
  0
LINE
  5
1a8
100
AcDbEntity
  8
Layer_1
 62
7
100
AcDbLine
 10
9.999969
 20
-0.000083
 30
0.0
 11
9.953094
 21
1.347584
 31
0.0
  0
LINE
  5
1a9
100
AcDbEntity
  8
Layer_1
 62
7
100
AcDbLine
 10
9.953094
 20
1.347584
 30
0.0
 11
9.624971
 21
3.281173
 31
0.0
  0
LINE
  5
1aa
100
AcDbEntity
  8
Layer_1
 62
7
100
AcDbLine
 10
9.624971
 20
3.281173
 30
0.0
 11
8.734350
 21
5.449176
 31
0.0
  0
LINE
  5
1ab
100
AcDbEntity
  8
Layer_1
 62
7
100
AcDbLine
 10
8.734350
 20
5.449176
 30
0.0
 11
6.999983
 21
7.500000
 31
0.0
  0
LINE
  5
1ac
100
AcDbEntity
  8
Layer_1
 62
7
100
AcDbLine
 10
6.999983
 20
7.500000
 30
0.0
 11
3.499976
 21
7.500000
 31
0.0
  0
LINE
  5
1ad
100
AcDbEntity
  8
Layer_1
 62
7
100
AcDbLine
 10
3.499976
 20
7.500000
 30
0.0
 11
-0.000031
 21
7.500000
 31
0.0
  0
LINE
  5
1ae
100
AcDbEntity
  8
Layer_1
 62
7
100
AcDbLine
 10
-0.000031
 20
7.500000
 30
0.0
 11
-3.500038
 21
7.500000
 31
0.0
  0
LINE
  5
1af
100
AcDbEntity
  8
Layer_1
 62
7
100
AcDbLine
 10
-3.500038
 20
7.500000
 30
0.0
 11
-7.000045
 21
7.500000
 31
0.0
  0
LINE
  5
1b0
100
AcDbEntity
  8
Layer_1
 62
7
100
AcDbLine
 10
-7.000045
 20
7.500000
 30
0.0
 11
-8.734412
 21
5.449176
 31
0.0
  0
LINE
  5
1b1
100
AcDbEntity
  8
Layer_1
 62
7
100
AcDbLine
 10
-8.734412
 20
5.449176
 30
0.0
 11
-9.625032
 21
3.281173
 31
0.0
  0
LINE
  5
1b2
100
AcDbEntity
  8
Layer_1
 62
7
100
AcDbLine
 10
-9.625032
 20
3.281173
 30
0.0
 11
-9.953156
 21
1.347584
 31
0.0
  0
LINE
  5
1b3
100
AcDbEntity
  8
Layer_1
 62
7
100
AcDbLine
 10
-9.953156
 20
1.347584
 30
0.0
 11
-10.000031
 21
-0.000083
 31
0.0
  0
LINE
  5
1b4
100
AcDbEntity
  8
Layer_1
 62
7
100
AcDbLine
 10
-10.000031
 20
-0.000083
 30
0.0
 11
-9.953156
 21
-1.347723
 31
0.0
  0
LINE
  5
1b5
100
AcDbEntity
  8
Layer_1
 62
7
100
AcDbLine
 10
-9.953156
 20
-1.347723
 30
0.0
 11
-9.625032
 21
-3.281312
 31
0.0
  0
LINE
  5
1b6
100
AcDbEntity
  8
Layer_1
 62
7
100
AcDbLine
 10
-9.625032
 20
-3.281312
 30
0.0
 11
-8.734412
 21
-5.449286
 31
0.0
  0
LINE
  5
1b7
100
AcDbEntity
  8
Layer_1
 62
7
100
AcDbLine
 10
-8.734412
 20
-5.449286
 30
0.0
 11
-7.000045
 21
-7.500054
 31
0.0
  0
ENDSEC
  0
SECTION
  2
OBJECTS
  0
DICTIONARY
  5
C
330
0
100
AcDbDictionary
  3
ACAD_GROUP
350
D
  3
ACAD_MLINESTYLE
350
17
  0
DICTIONARY
  5
D
330
C
100
AcDbDictionary
  0
DICTIONARY
  5
1A
330
C
100
AcDbDictionary
  0
DICTIONARY
  5
17
330
C
100
AcDbDictionary
  3
STANDARD
350
18
  0
DICTIONARY
  5
19
330
C
100
AcDbDictionary
  0
ENDSEC
  0
EOF
