<?xml version="1.0" encoding="UTF-8" standalone="no"?>
<!-- Created with Inkscape (http://www.inkscape.org/) -->

<svg
   xmlns:dc="http://purl.org/dc/elements/1.1/"
   xmlns:cc="http://creativecommons.org/ns#"
   xmlns:rdf="http://www.w3.org/1999/02/22-rdf-syntax-ns#"
   xmlns:svg="http://www.w3.org/2000/svg"
   xmlns="http://www.w3.org/2000/svg"
   xmlns:sodipodi="http://sodipodi.sourceforge.net/DTD/sodipodi-0.dtd"
   xmlns:inkscape="http://www.inkscape.org/namespaces/inkscape"
   width="297mm"
   height="210mm"
   viewBox="0 0 1052.3622 744.09448"
   id="svg2"
   version="1.1"
   inkscape:version="0.91 r13725"
   sodipodi:docname="gear-pa20-cp1.5-t41.svg">
  <sodipodi:namedview
     id="base"
     pagecolor="#ffffff"
     bordercolor="#666666"
     borderopacity="1.0"
     inkscape:pageopacity="0.0"
     inkscape:pageshadow="2"
     inkscape:zoom="16"
     inkscape:cx="-20.315676"
     inkscape:cy="-5.7756324"
     inkscape:document-units="mm"
     inkscape:current-layer="layer1"
     showgrid="true"
     inkscape:window-width="1366"
     inkscape:window-height="705"
     inkscape:window-x="-8"
     inkscape:window-y="-8"
     inkscape:window-maximized="1"
     showguides="true"
     inkscape:guide-bbox="true"
     inkscape:snap-bbox="true"
     inkscape:bbox-nodes="true"
     inkscape:snap-bbox-edge-midpoints="true"
     inkscape:snap-bbox-midpoints="false"
     inkscape:snap-object-midpoints="false"
     inkscape:snap-global="true"
     inkscape:snap-grids="true"
     inkscape:object-nodes="true"
     inkscape:snap-smooth-nodes="true"
     inkscape:snap-center="true">
    <inkscape:grid
       spacingy="17.716535"
       spacingx="17.716536"
       units="mm"
       id="grid3333"
       type="xygrid"
       color="#e80007"
       opacity="0.96078431"
       empcolor="#ed0000"
       empopacity="0.25098039" />
    <inkscape:grid
       type="xygrid"
       id="grid4730"
       units="mm"
       spacingx="0.35433071"
       spacingy="0.35433071"
       empspacing="10" />
    <sodipodi:guide
       id="guide3393"
       orientation="744.0945,0"
       position="526.1811,0" />
    <sodipodi:guide
       id="guide3395"
       orientation="0,1052.3622"
       position="0,248.0315" />
    <sodipodi:guide
       id="guide3397"
       orientation="0,1052.3622"
       position="0,496.063" />
    <sodipodi:guide
       position="24.80315,0"
       orientation="0,1"
       id="guide4154" />
    <sodipodi:guide
       position="0,21.259843"
       orientation="1,0"
       id="guide4156" />
  </sodipodi:namedview>
  <defs
     id="defs4" />
  <metadata
     id="metadata7">
    <rdf:RDF>
      <cc:Work
         rdf:about="">
        <dc:format>image/svg+xml</dc:format>
        <dc:type
           rdf:resource="http://purl.org/dc/dcmitype/StillImage" />
        <dc:title />
      </cc:Work>
    </rdf:RDF>
  </metadata>
  <g
     transform="translate(0,-308.26772)"
     id="layer1"
     inkscape:groupmode="layer"
     inkscape:label="Layer 1"
     style="display:inline">
    <path
       id="path3811-3-0-1"
       d="m 32.918808,1050.1933 1.71601,0.3607 1.720843,0.6597 0.01786,1.2897 -1.701908,0.7072 -1.705362,0.4081 -0.102141,1.6251 1.640832,0.6184 1.599973,0.9147 -0.179216,1.2773 -1.789911,0.439 -1.747667,0.143 -0.349024,1.5905 1.52721,0.8616 1.441592,1.1482 -0.372101,1.235 -1.835951,0.1607 -1.749005,-0.1255 -0.587724,1.5186 1.377785,1.0846 1.249425,1.3548 -0.556256,1.1637 -1.838958,-0.1214 -1.70936,-0.391 -0.812644,1.411 1.196075,1.2823 1.027965,1.5297 -0.727377,1.0651 -1.798873,-0.4007 -1.629633,-0.6474 -1.01852,1.2705 0.986315,1.4498 0.782426,1.6686 -0.881442,0.9417 -1.716624,-0.6707 -1.511721,-0.8885 -1.200518,1.1001 0.753453,1.5834 0.518524,1.7685 -1.014851,0.7961 -1.594122,-0.9249 -1.358369,-1.1088 -1.35438,0.9039 0.502915,1.6799 0.242487,1.8269 -1.124477,0.6318 -1.434267,-1.1573 -1.173183,-1.3033 -1.476492,0.6867 0.240591,1.7369 -0.03923,1.8425 -1.207735,0.4528 -1.240803,-1.3627 -0.9604909,-1.4671 -1.564004,0.4532 -0.027368,1.7533 -0.3200325,1.815 -1.2626972,0.2631 -1.0182441,-1.5362 -0.7252914,-1.5965 -1.6148484,0.2092 -0.2946868,1.7285 -0.5933399,1.7449 -1.2880622,0.067 -0.77181377,-1.6735 -0.4730917,-1.6885 -1.62784773,-0.04 -0.5550953,1.6633 -0.8527325,1.6338 -1.2832359,-0.1301 -0.5072988,-1.7718 -0.2098024,-1.7409 -1.6026906,-0.2879 -0.8024928,1.5591 -1.0921435,1.4845 -1.2483242,-0.3245 -0.2308974,-1.8284 0.0584,-1.7526 -1.5399674,-0.5291 -1.031084,1.4183 -1.305954,1.3004 -1.184155,-0.5113 0.05092,-1.8422 0.325246,-1.7231 -1.441147,-0.758 -1.235514,1.2443 -1.489144,1.0858 -1.092237,-0.686 0.331542,-1.8129 0.584458,-1.6533 -1.308548,-0.9691 -1.410975,1.0411 -1.637443,0.8458 -0.974713,-0.8447 0.604403,-1.7411 0.829976,-1.5446 -1.145282,-1.1575 -1.553361,0.8135 -1.747363,0.5859 -0.834343,-0.9836 0.863088,-1.6284 1.056033,-1.3998 -0.955167,-1.3188 -1.659347,0.5669 -1.816319,0.3123 -0.674413,-1.0995 1.101541,-1.4775 1.257352,-1.2222 -0.742672,-1.4492 -1.726424,0.307 -1.842713,0.031 -0.498673,-1.1895 1.31418,-1.2921 1.429175,-1.016 -0.512755,-1.5455 -1.753047,0.04 -1.825902,-0.2503 -0.311256,-1.2517 1.496016,-1.0764 1.567525,-0.7859 -0.270835,-1.6056 -1.738579,-0.2283 -1.766295,-0.5261 -0.116543,-1.2845 1.642787,-0.8353 1.669117,-0.5375 -0.02255,-1.6281 -1.683362,-0.491 -1.665295,-0.7895 0.08092,-1.2873 1.751047,-0.5748 1.731589,-0.2763 0.226257,-1.6126 -1.588692,-0.7422 -1.525254,-1.0345 0.276467,-1.2598 1.818268,-0.3008 1.753477,-0.01 0.469751,-1.5591 -1.456768,-0.976 -1.349464,-1.2552 0.465534,-1.2029 1.842874,-0.02 1.734263,0.259 0.70225,-1.4691 -1.290724,-1.187 -1.142044,-1.4464 0.643701,-1.1177 1.824272,0.2618 1.674413,0.5207 0.918273,-1.3447 -1.094401,-1.37 -0.907861,-1.6039 0.806779,-1.0063 1.76292,0.5372 1.575299,0.7702 1.112781,-1.1888 -0.872441,-1.521 -0.652395,-1.7236 0.950941,-0.8714 1.660241,0.8 1.439271,1.0017 1.281204,-1.005 -0.630026,-1.6364 -0.381629,-1.803 1.072815,-0.7161 1.518648,1.0442 1.269505,1.2096 1.419599,-0.7977 -0.372847,-1.7134 -0.101927,-1.8401 1.169539,-0.5439 1.341472,1.2637 1.069974,1.3893 1.52472,-0.5716 -0.106922,-1.7503 0.180163,-1.8341 1.2388575,-0.359 1.132843,1.4537 0.8453691,1.5363 1.5941028,-0.3322 0.1615019,-1.746 0.4580286,-1.7852 1.2791384,-0.1656 0.8976596,1.6096 0.6009538,1.6473 1.6261201,-0.085 0.42614313,-1.7009 0.7251626,-1.6943 1.28943057,0.032 0.6414416,1.7277 0.3424521,1.7198 1.6200213,0.1643 0.6807937,-1.616 0.9753047,-1.5637 1.2694998,0.228 0.3701813,1.8054 0.075921,1.7519 1.5759552,0.4096 0.9194882,-1.4931 1.202582,-1.3965 1.219812,0.4191 0.09025,1.8408 -0.192388,1.7429 1.494943,0.6455 1.136636,-1.3353 1.40166,-1.1966 1.141546,0.6004 -0.191791,1.833 -0.456193,1.6931 1.378898,0.8661 1.327134,-1.1461 1.567894,-0.9686 1.036512,0.7677 -0.469341,1.7822 -0.709307,1.6036 1.230529,1.0664 1.486531,-0.93 1.697389,-0.718 0.907186,0.9169 -0.735908,1.6897 -0.945779,1.4765 1.05332,1.2418 1.611077,-0.6922 1.787083,-0.4504 0.7566,1.0446 -0.985202,1.5575 -1.160099,1.3149 0.851417,1.388 1.697873,-0.4382 1.834889,-0.1723 0.588275,1.1478 -1.21142,1.3889 -1.347213,1.1224 0.62956,1.5017 1.744859,-0.1739 1.839697,0.1098 0.406164,1.2242 -1.409235,1.1877 -1.502758,0.9036 0.392944,1.5802 1.750957,0.094 1.801385,0.3893 0.214526,1.2719 -1.574023,0.9586 -1.623074,0.6637 z"
       style="fill:#2ca02c;fill-opacity:1;stroke:none;stroke-width:1"
       inkscape:connector-curvature="0" />
  </g>
</svg>
