  0
SECTION
  2
HEADER
  9
$ACADVER
  1
AC1014
  9
$HANDSEED
  5
FFFF
  9
$MEASUREMENT
 70
     1
  0
ENDSEC
  0
SECTION
  2
TABLES
  0
TABLE
  2
VPORT
  5
8
330
0
100
AcDbSymbolTable
 70
     4
  0
VPORT
  5
2E
330
8
100
AcDbSymbolTableRecord
100
AcDbViewportTableRecord
  2
*ACTIVE
 70
     0
 10
0.0
 20
0.0
 11
1.0
 21
1.0
 12
210.0
 22
148.5
 13
0.0
 23
0.0
 14
10.0
 24
10.0
 15
10.0
 25
10.0
 16
0.0
 26
0.0
 36
1.0
 17
0.0
 27
0.0
 37
0.0
 40
341.0
 41
1.24
 42
50.0
 43
0.0
 44
0.0
 50
0.0
 51
0.0
 71
     0
 72
   100
 73
     1
 74
     3
 75
     0
 76
     0
 77
     0
 78
     0
  0
ENDTAB
  0
TABLE
  2
LTYPE
  5
5
330
0
100
AcDbSymbolTable
 70
     1
  0
LTYPE
  5
14
330
5
100
AcDbSymbolTableRecord
100
AcDbLinetypeTableRecord
  2
BYBLOCK
 70
     0
  3

 72
    65
 73
     0
 40
0.0
  0
LTYPE
  5
15
330
5
100
AcDbSymbolTableRecord
100
AcDbLinetypeTableRecord
  2
BYLAYER
 70
     0
  3

 72
    65
 73
     0
 40
0.0
  0
LTYPE
  5
16
330
5
100
AcDbSymbolTableRecord
100
AcDbLinetypeTableRecord
  2
CONTINUOUS
 70
     0
  3
Solid line
 72
    65
 73
     0
 40
0.0
  0
ENDTAB
  0
TABLE
  2
LAYER
  5
2
100
AcDbSymbolTable
 70
2
  0
LAYER
  5
50
100
AcDbSymbolTableRecord
100
AcDbLayerTableRecord
  2
0
 70
0
  6
CONTINUOUS
  0
LAYER
  5
51
100
AcDbSymbolTableRecord
100
AcDbLayerTableRecord
  2
Layer_1
 70
0
  6
CONTINUOUS
  0
ENDTAB
  0
TABLE
  2
STYLE
  5
3
330
0
100
AcDbSymbolTable
 70
     1
  0
STYLE
  5
11
330
3
100
AcDbSymbolTableRecord
100
AcDbTextStyleTableRecord
  2
STANDARD
 70
     0
 40
0.0
 41
1.0
 50
0.0
 71
     0
 42
2.5
  3
txt
  4

  0
ENDTAB
  0
TABLE
  2
VIEW
  5
6
330
0
100
AcDbSymbolTable
 70
     0
  0
ENDTAB
  0
TABLE
  2
UCS
  5
7
330
0
100
AcDbSymbolTable
 70
     0
  0
ENDTAB
  0
TABLE
  2
APPID
  5
9
330
0
100
AcDbSymbolTable
 70
     2
  0
APPID
  5
12
330
9
100
AcDbSymbolTableRecord
100
AcDbRegAppTableRecord
  2
ACAD
 70
     0
  0
ENDTAB
  0
TABLE
  2
DIMSTYLE
  5
A
330
0
100
AcDbSymbolTable
 70
     1
  0
DIMSTYLE
105
27
330
A
100
AcDbSymbolTableRecord
100
AcDbDimStyleTableRecord
  2
ISO-25
 70
     0
  3

  4

  5

  6

  7

 40
1.0
 41
2.5
 42
0.625
 43
3.75
 44
1.25
 45
0.0
 46
0.0
 47
0.0
 48
0.0
140
2.5
141
2.5
142
0.0
143
0.03937007874016
144
1.0
145
0.0
146
1.0
147
0.625
 71
     0
 72
     0
 73
     0
 74
     0
 75
     0
 76
     0
 77
     1
 78
     8
170
     0
171
     3
172
     1
173
     0
174
     0
175
     0
176
     0
177
     0
178
     0
270
     2
271
     2
272
     2
273
     2
274
     3
340
11
275
     0
280
     0
281
     0
282
     0
283
     0
284
     8
285
     0
286
     0
287
     3
288
     0
  0
ENDTAB
  0
TABLE
  2
BLOCK_RECORD
  5
1
330
0
100
AcDbSymbolTable
 70
     1
  0
BLOCK_RECORD
  5
1F
330
1
100
AcDbSymbolTableRecord
100
AcDbBlockTableRecord
  2
*MODEL_SPACE
  0
BLOCK_RECORD
  5
1B
330
1
100
AcDbSymbolTableRecord
100
AcDbBlockTableRecord
  2
*PAPER_SPACE
  0
ENDTAB
  0
ENDSEC
  0
SECTION
  2
BLOCKS
  0
BLOCK
  5
20
330
1F
100
AcDbEntity
  8
0
100
AcDbBlockBegin
  2
*MODEL_SPACE
 70
     0
 10
0.0
 20
0.0
 30
0.0
  3
*MODEL_SPACE
  1

  0
ENDBLK
  5
21
330
1F
100
AcDbEntity
  8
0
100
AcDbBlockEnd
  0
BLOCK
  5
1C
330
1B
100
AcDbEntity
 67
     1
  8
0
100
AcDbBlockBegin
  2
*PAPER_SPACE
  1

  0
ENDBLK
  5
1D
330
1B
100
AcDbEntity
 67
     1
  8
0
100
AcDbBlockEnd
  0
ENDSEC
  0
SECTION
  2
ENTITIES
  0
LINE
  5
100
100
AcDbEntity
  8
Layer_1
 62
7
100
AcDbLine
 10
9.290419
 20
0.612114
 30
0.0
 11
9.774715
 21
0.510317
 31
0.0
  0
LINE
  5
101
100
AcDbEntity
  8
Layer_1
 62
7
100
AcDbLine
 10
9.774715
 20
0.510317
 30
0.0
 11
10.260375
 21
0.324135
 31
0.0
  0
LINE
  5
102
100
AcDbEntity
  8
Layer_1
 62
7
100
AcDbLine
 10
10.260375
 20
0.324135
 30
0.0
 11
10.265416
 21
-0.039847
 31
0.0
  0
LINE
  5
103
100
AcDbEntity
  8
Layer_1
 62
7
100
AcDbLine
 10
10.265416
 20
-0.039847
 30
0.0
 11
9.785100
 21
-0.239435
 31
0.0
  0
LINE
  5
104
100
AcDbEntity
  8
Layer_1
 62
7
100
AcDbLine
 10
9.785100
 20
-0.239435
 30
0.0
 11
9.303809
 21
-0.354610
 31
0.0
  0
LINE
  5
105
100
AcDbEntity
  8
Layer_1
 62
7
100
AcDbLine
 10
9.303809
 20
-0.354610
 30
0.0
 11
9.274982
 21
-0.813249
 31
0.0
  0
LINE
  5
106
100
AcDbEntity
  8
Layer_1
 62
7
100
AcDbLine
 10
9.274982
 20
-0.813249
 30
0.0
 11
9.738061
 21
-0.987775
 31
0.0
  0
LINE
  5
107
100
AcDbEntity
  8
Layer_1
 62
7
100
AcDbLine
 10
9.738061
 20
-0.987775
 30
0.0
 11
10.189609
 21
-1.245924
 31
0.0
  0
LINE
  5
108
100
AcDbEntity
  8
Layer_1
 62
7
100
AcDbLine
 10
10.189609
 20
-1.245924
 30
0.0
 11
10.139031
 21
-1.606407
 31
0.0
  0
LINE
  5
109
100
AcDbEntity
  8
Layer_1
 62
7
100
AcDbLine
 10
10.139031
 20
-1.606407
 30
0.0
 11
9.633878
 21
-1.730302
 31
0.0
  0
LINE
  5
10a
100
AcDbEntity
  8
Layer_1
 62
7
100
AcDbLine
 10
9.633878
 20
-1.730302
 30
0.0
 11
9.140647
 21
-1.770660
 31
0.0
  0
LINE
  5
10b
100
AcDbEntity
  8
Layer_1
 62
7
100
AcDbLine
 10
9.140647
 20
-1.770660
 30
0.0
 11
9.042145
 21
-2.219534
 31
0.0
  0
LINE
  5
10c
100
AcDbEntity
  8
Layer_1
 62
7
100
AcDbLine
 10
9.042145
 20
-2.219534
 30
0.0
 11
9.473158
 21
-2.462697
 31
0.0
  0
LINE
  5
10d
100
AcDbEntity
  8
Layer_1
 62
7
100
AcDbLine
 10
9.473158
 20
-2.462697
 30
0.0
 11
9.880007
 21
-2.786745
 31
0.0
  0
LINE
  5
10e
100
AcDbEntity
  8
Layer_1
 62
7
100
AcDbLine
 10
9.880007
 20
-2.786745
 30
0.0
 11
9.774992
 21
-3.135289
 31
0.0
  0
LINE
  5
10f
100
AcDbEntity
  8
Layer_1
 62
7
100
AcDbLine
 10
9.774992
 20
-3.135289
 30
0.0
 11
9.256846
 21
-3.180642
 31
0.0
  0
LINE
  5
110
100
AcDbEntity
  8
Layer_1
 62
7
100
AcDbLine
 10
9.256846
 20
-3.180642
 30
0.0
 11
8.763238
 21
-3.145223
 31
0.0
  0
LINE
  5
111
100
AcDbEntity
  8
Layer_1
 62
7
100
AcDbLine
 10
8.763238
 20
-3.145223
 30
0.0
 11
8.597369
 21
-3.573806
 31
0.0
  0
LINE
  5
112
100
AcDbEntity
  8
Layer_1
 62
7
100
AcDbLine
 10
8.597369
 20
-3.573806
 30
0.0
 11
8.986210
 21
-3.879904
 31
0.0
  0
LINE
  5
113
100
AcDbEntity
  8
Layer_1
 62
7
100
AcDbLine
 10
8.986210
 20
-3.879904
 30
0.0
 11
9.338826
 21
-4.262259
 31
0.0
  0
LINE
  5
114
100
AcDbEntity
  8
Layer_1
 62
7
100
AcDbLine
 10
9.338826
 20
-4.262259
 30
0.0
 11
9.181838
 21
-4.590681
 31
0.0
  0
LINE
  5
115
100
AcDbEntity
  8
Layer_1
 62
7
100
AcDbLine
 10
9.181838
 20
-4.590681
 30
0.0
 11
8.662843
 21
-4.556419
 31
0.0
  0
LINE
  5
116
100
AcDbEntity
  8
Layer_1
 62
7
100
AcDbLine
 10
8.662843
 20
-4.556419
 30
0.0
 11
8.180424
 21
-4.446070
 31
0.0
  0
LINE
  5
117
100
AcDbEntity
  8
Layer_1
 62
7
100
AcDbLine
 10
8.180424
 20
-4.446070
 30
0.0
 11
7.951078
 21
-4.844286
 31
0.0
  0
LINE
  5
118
100
AcDbEntity
  8
Layer_1
 62
7
100
AcDbLine
 10
7.951078
 20
-4.844286
 30
0.0
 11
8.288637
 21
-5.206179
 31
0.0
  0
LINE
  5
119
100
AcDbEntity
  8
Layer_1
 62
7
100
AcDbLine
 10
8.288637
 20
-5.206179
 30
0.0
 11
8.578751
 21
-5.637895
 31
0.0
  0
LINE
  5
11a
100
AcDbEntity
  8
Layer_1
 62
7
100
AcDbLine
 10
8.578751
 20
-5.637895
 30
0.0
 11
8.373469
 21
-5.938489
 31
0.0
  0
LINE
  5
11b
100
AcDbEntity
  8
Layer_1
 62
7
100
AcDbLine
 10
8.373469
 20
-5.938489
 30
0.0
 11
7.865787
 21
-5.825403
 31
0.0
  0
LINE
  5
11c
100
AcDbEntity
  8
Layer_1
 62
7
100
AcDbLine
 10
7.865787
 20
-5.825403
 30
0.0
 11
7.405869
 21
-5.642692
 31
0.0
  0
LINE
  5
11d
100
AcDbEntity
  8
Layer_1
 62
7
100
AcDbLine
 10
7.405869
 20
-5.642692
 30
0.0
 11
7.118420
 21
-6.001256
 31
0.0
  0
LINE
  5
11e
100
AcDbEntity
  8
Layer_1
 62
7
100
AcDbLine
 10
7.118420
 20
-6.001256
 30
0.0
 11
7.396780
 21
-6.410421
 31
0.0
  0
LINE
  5
11f
100
AcDbEntity
  8
Layer_1
 62
7
100
AcDbLine
 10
7.396780
 20
-6.410421
 30
0.0
 11
7.617598
 21
-6.881337
 31
0.0
  0
LINE
  5
120
100
AcDbEntity
  8
Layer_1
 62
7
100
AcDbLine
 10
7.617598
 20
-6.881337
 30
0.0
 11
7.368835
 21
-7.147106
 31
0.0
  0
LINE
  5
121
100
AcDbEntity
  8
Layer_1
 62
7
100
AcDbLine
 10
7.368835
 20
-7.147106
 30
0.0
 11
6.884366
 21
-6.957820
 31
0.0
  0
LINE
  5
122
100
AcDbEntity
  8
Layer_1
 62
7
100
AcDbLine
 10
6.884366
 20
-6.957820
 30
0.0
 11
6.457725
 21
-6.707065
 31
0.0
  0
LINE
  5
123
100
AcDbEntity
  8
Layer_1
 62
7
100
AcDbLine
 10
6.457725
 20
-6.707065
 30
0.0
 11
6.118912
 21
-7.017538
 31
0.0
  0
LINE
  5
124
100
AcDbEntity
  8
Layer_1
 62
7
100
AcDbLine
 10
6.118912
 20
-7.017538
 30
0.0
 11
6.331553
 21
-7.464409
 31
0.0
  0
LINE
  5
125
100
AcDbEntity
  8
Layer_1
 62
7
100
AcDbLine
 10
6.331553
 20
-7.464409
 30
0.0
 11
6.477892
 21
-7.963519
 31
0.0
  0
LINE
  5
126
100
AcDbEntity
  8
Layer_1
 62
7
100
AcDbLine
 10
6.477892
 20
-7.963519
 30
0.0
 11
6.191478
 21
-8.188196
 31
0.0
  0
LINE
  5
127
100
AcDbEntity
  8
Layer_1
 62
7
100
AcDbLine
 10
6.191478
 20
-8.188196
 30
0.0
 11
5.741582
 21
-7.927168
 31
0.0
  0
LINE
  5
128
100
AcDbEntity
  8
Layer_1
 62
7
100
AcDbLine
 10
5.741582
 20
-7.927168
 30
0.0
 11
5.358220
 21
-7.614240
 31
0.0
  0
LINE
  5
129
100
AcDbEntity
  8
Layer_1
 62
7
100
AcDbLine
 10
5.358220
 20
-7.614240
 30
0.0
 11
4.975984
 21
-7.869341
 31
0.0
  0
LINE
  5
12a
100
AcDbEntity
  8
Layer_1
 62
7
100
AcDbLine
 10
4.975984
 20
-7.869341
 30
0.0
 11
5.117917
 21
-8.343446
 31
0.0
  0
LINE
  5
12b
100
AcDbEntity
  8
Layer_1
 62
7
100
AcDbLine
 10
5.117917
 20
-8.343446
 30
0.0
 11
5.186353
 21
-8.859038
 31
0.0
  0
LINE
  5
12c
100
AcDbEntity
  8
Layer_1
 62
7
100
AcDbLine
 10
5.186353
 20
-8.859038
 30
0.0
 11
4.869000
 21
-9.037346
 31
0.0
  0
LINE
  5
12d
100
AcDbEntity
  8
Layer_1
 62
7
100
AcDbLine
 10
4.869000
 20
-9.037346
 30
0.0
 11
4.464218
 21
-8.710730
 31
0.0
  0
LINE
  5
12e
100
AcDbEntity
  8
Layer_1
 62
7
100
AcDbLine
 10
4.464218
 20
-8.710730
 30
0.0
 11
4.133120
 21
-8.342910
 31
0.0
  0
LINE
  5
12f
100
AcDbEntity
  8
Layer_1
 62
7
100
AcDbLine
 10
4.133120
 20
-8.342910
 30
0.0
 11
3.716421
 21
-8.536712
 31
0.0
  0
LINE
  5
130
100
AcDbEntity
  8
Layer_1
 62
7
100
AcDbLine
 10
3.716421
 20
-8.536712
 30
0.0
 11
3.784321
 21
-9.026904
 31
0.0
  0
LINE
  5
131
100
AcDbEntity
  8
Layer_1
 62
7
100
AcDbLine
 10
3.784321
 20
-9.026904
 30
0.0
 11
3.773250
 21
-9.546898
 31
0.0
  0
LINE
  5
132
100
AcDbEntity
  8
Layer_1
 62
7
100
AcDbLine
 10
3.773250
 20
-9.546898
 30
0.0
 11
3.432400
 21
-9.674688
 31
0.0
  0
LINE
  5
133
100
AcDbEntity
  8
Layer_1
 62
7
100
AcDbLine
 10
3.432400
 20
-9.674688
 30
0.0
 11
3.082218
 21
-9.290104
 31
0.0
  0
LINE
  5
134
100
AcDbEntity
  8
Layer_1
 62
7
100
AcDbLine
 10
3.082218
 20
-9.290104
 30
0.0
 11
2.811146
 21
-8.876056
 31
0.0
  0
LINE
  5
135
100
AcDbEntity
  8
Layer_1
 62
7
100
AcDbLine
 10
2.811146
 20
-8.876056
 30
0.0
 11
2.369749
 21
-9.003959
 31
0.0
  0
LINE
  5
136
100
AcDbEntity
  8
Layer_1
 62
7
100
AcDbLine
 10
2.369749
 20
-9.003959
 30
0.0
 11
2.362025
 21
-9.498779
 31
0.0
  0
LINE
  5
137
100
AcDbEntity
  8
Layer_1
 62
7
100
AcDbLine
 10
2.362025
 20
-9.498779
 30
0.0
 11
2.271705
 21
-10.011013
 31
0.0
  0
LINE
  5
138
100
AcDbEntity
  8
Layer_1
 62
7
100
AcDbLine
 10
2.271705
 20
-10.011013
 30
0.0
 11
1.915344
 21
-10.085265
 31
0.0
  0
LINE
  5
139
100
AcDbEntity
  8
Layer_1
 62
7
100
AcDbLine
 10
1.915344
 20
-10.085265
 30
0.0
 11
1.627973
 21
-9.651715
 31
0.0
  0
LINE
  5
13a
100
AcDbEntity
  8
Layer_1
 62
7
100
AcDbLine
 10
1.627973
 20
-9.651715
 30
0.0
 11
1.423279
 21
-9.201148
 31
0.0
  0
LINE
  5
13b
100
AcDbEntity
  8
Layer_1
 62
7
100
AcDbLine
 10
1.423279
 20
-9.201148
 30
0.0
 11
0.967533
 21
-9.260189
 31
0.0
  0
LINE
  5
13c
100
AcDbEntity
  8
Layer_1
 62
7
100
AcDbLine
 10
0.967533
 20
-9.260189
 30
0.0
 11
0.884366
 21
-9.748010
 31
0.0
  0
LINE
  5
13d
100
AcDbEntity
  8
Layer_1
 62
7
100
AcDbLine
 10
0.884366
 20
-9.748010
 30
0.0
 11
0.716912
 21
-10.240459
 31
0.0
  0
LINE
  5
13e
100
AcDbEntity
  8
Layer_1
 62
7
100
AcDbLine
 10
0.716912
 20
-10.240459
 30
0.0
 11
0.353393
 21
-10.259368
 31
0.0
  0
LINE
  5
13f
100
AcDbEntity
  8
Layer_1
 62
7
100
AcDbLine
 10
0.353393
 20
-10.259368
 30
0.0
 11
0.135570
 21
-9.787069
 31
0.0
  0
LINE
  5
140
100
AcDbEntity
  8
Layer_1
 62
7
100
AcDbLine
 10
0.135570
 20
-9.787069
 30
0.0
 11
0.002053
 21
-9.310537
 31
0.0
  0
LINE
  5
141
100
AcDbEntity
  8
Layer_1
 62
7
100
AcDbLine
 10
0.002053
 20
-9.310537
 30
0.0
 11
-0.457362
 21
-9.299248
 31
0.0
  0
LINE
  5
142
100
AcDbEntity
  8
Layer_1
 62
7
100
AcDbLine
 10
-0.457362
 20
-9.299248
 30
0.0
 11
-0.614022
 21
-9.768668
 31
0.0
  0
LINE
  5
143
100
AcDbEntity
  8
Layer_1
 62
7
100
AcDbLine
 10
-0.614022
 20
-9.768668
 30
0.0
 11
-0.854682
 21
-10.229763
 31
0.0
  0
LINE
  5
144
100
AcDbEntity
  8
Layer_1
 62
7
100
AcDbLine
 10
-0.854682
 20
-10.229763
 30
0.0
 11
-1.216840
 21
-10.193046
 31
0.0
  0
LINE
  5
145
100
AcDbEntity
  8
Layer_1
 62
7
100
AcDbLine
 10
-1.216840
 20
-10.193046
 30
0.0
 11
-1.360011
 21
-9.693005
 31
0.0
  0
LINE
  5
146
100
AcDbEntity
  8
Layer_1
 62
7
100
AcDbLine
 10
-1.360011
 20
-9.693005
 30
0.0
 11
-1.419222
 21
-9.201684
 31
0.0
  0
LINE
  5
147
100
AcDbEntity
  8
Layer_1
 62
7
100
AcDbLine
 10
-1.419222
 20
-9.201684
 30
0.0
 11
-1.871537
 21
-9.120432
 31
0.0
  0
LINE
  5
148
100
AcDbEntity
  8
Layer_1
 62
7
100
AcDbLine
 10
-1.871537
 20
-9.120432
 30
0.0
 11
-2.098018
 21
-9.560445
 31
0.0
  0
LINE
  5
149
100
AcDbEntity
  8
Layer_1
 62
7
100
AcDbLine
 10
-2.098018
 20
-9.560445
 30
0.0
 11
-2.406245
 21
-9.979404
 31
0.0
  0
LINE
  5
14a
100
AcDbEntity
  8
Layer_1
 62
7
100
AcDbLine
 10
-2.406245
 20
-9.979404
 30
0.0
 11
-2.758550
 21
-9.887823
 31
0.0
  0
LINE
  5
14b
100
AcDbEntity
  8
Layer_1
 62
7
100
AcDbLine
 10
-2.758550
 20
-9.887823
 30
0.0
 11
-2.823715
 21
-9.371807
 31
0.0
  0
LINE
  5
14c
100
AcDbEntity
  8
Layer_1
 62
7
100
AcDbLine
 10
-2.823715
 20
-9.371807
 30
0.0
 11
-2.807233
 21
-8.877185
 31
0.0
  0
LINE
  5
14d
100
AcDbEntity
  8
Layer_1
 62
7
100
AcDbLine
 10
-2.807233
 20
-8.877185
 30
0.0
 11
-3.241846
 21
-8.727861
 31
0.0
  0
LINE
  5
14e
100
AcDbEntity
  8
Layer_1
 62
7
100
AcDbLine
 10
-3.241846
 20
-8.727861
 30
0.0
 11
-3.532841
 21
-9.128137
 31
0.0
  0
LINE
  5
14f
100
AcDbEntity
  8
Layer_1
 62
7
100
AcDbLine
 10
-3.532841
 20
-9.128137
 30
0.0
 11
-3.901410
 21
-9.495139
 31
0.0
  0
LINE
  5
150
100
AcDbEntity
  8
Layer_1
 62
7
100
AcDbLine
 10
-3.901410
 20
-9.495139
 30
0.0
 11
-4.235605
 21
-9.350838
 31
0.0
  0
LINE
  5
151
100
AcDbEntity
  8
Layer_1
 62
7
100
AcDbLine
 10
-4.235605
 20
-9.350838
 30
0.0
 11
-4.221234
 21
-8.830929
 31
0.0
  0
LINE
  5
152
100
AcDbEntity
  8
Layer_1
 62
7
100
AcDbLine
 10
-4.221234
 20
-8.830929
 30
0.0
 11
-4.129442
 21
-8.344631
 31
0.0
  0
LINE
  5
153
100
AcDbEntity
  8
Layer_1
 62
7
100
AcDbLine
 10
-4.129442
 20
-8.344631
 30
0.0
 11
-4.536166
 21
-8.130707
 31
0.0
  0
LINE
  5
154
100
AcDbEntity
  8
Layer_1
 62
7
100
AcDbLine
 10
-4.536166
 20
-8.130707
 30
0.0
 11
-4.884856
 21
-8.481876
 31
0.0
  0
LINE
  5
155
100
AcDbEntity
  8
Layer_1
 62
7
100
AcDbLine
 10
-4.884856
 20
-8.481876
 30
0.0
 11
-5.305125
 21
-8.788313
 31
0.0
  0
LINE
  5
156
100
AcDbEntity
  8
Layer_1
 62
7
100
AcDbLine
 10
-5.305125
 20
-8.788313
 30
0.0
 11
-5.613379
 21
-8.594709
 31
0.0
  0
LINE
  5
157
100
AcDbEntity
  8
Layer_1
 62
7
100
AcDbLine
 10
-5.613379
 20
-8.594709
 30
0.0
 11
-5.519810
 21
-8.083068
 31
0.0
  0
LINE
  5
158
100
AcDbEntity
  8
Layer_1
 62
7
100
AcDbLine
 10
-5.519810
 20
-8.083068
 30
0.0
 11
-5.354863
 21
-7.616470
 31
0.0
  0
LINE
  5
159
100
AcDbEntity
  8
Layer_1
 62
7
100
AcDbLine
 10
-5.354863
 20
-7.616470
 30
0.0
 11
-5.724164
 21
-7.342968
 31
0.0
  0
LINE
  5
15a
100
AcDbEntity
  8
Layer_1
 62
7
100
AcDbLine
 10
-5.724164
 20
-7.342968
 30
0.0
 11
-6.122373
 21
-7.636790
 31
0.0
  0
LINE
  5
15b
100
AcDbEntity
  8
Layer_1
 62
7
100
AcDbLine
 10
-6.122373
 20
-7.636790
 30
0.0
 11
-6.584496
 21
-7.875493
 31
0.0
  0
LINE
  5
15c
100
AcDbEntity
  8
Layer_1
 62
7
100
AcDbLine
 10
-6.584496
 20
-7.875493
 30
0.0
 11
-6.859581
 21
-7.637100
 31
0.0
  0
LINE
  5
15d
100
AcDbEntity
  8
Layer_1
 62
7
100
AcDbLine
 10
-6.859581
 20
-7.637100
 30
0.0
 11
-6.689005
 21
-7.145723
 31
0.0
  0
LINE
  5
15e
100
AcDbEntity
  8
Layer_1
 62
7
100
AcDbLine
 10
-6.689005
 20
-7.145723
 30
0.0
 11
-6.454768
 21
-6.709803
 31
0.0
  0
LINE
  5
15f
100
AcDbEntity
  8
Layer_1
 62
7
100
AcDbLine
 10
-6.454768
 20
-6.709803
 30
0.0
 11
-6.777992
 21
-6.383131
 31
0.0
  0
LINE
  5
160
100
AcDbEntity
  8
Layer_1
 62
7
100
AcDbLine
 10
-6.777992
 20
-6.383131
 30
0.0
 11
-7.216385
 21
-6.612718
 31
0.0
  0
LINE
  5
161
100
AcDbEntity
  8
Layer_1
 62
7
100
AcDbLine
 10
-7.216385
 20
-6.612718
 30
0.0
 11
-7.709529
 21
-6.778072
 31
0.0
  0
LINE
  5
162
100
AcDbEntity
  8
Layer_1
 62
7
100
AcDbLine
 10
-7.709529
 20
-6.778072
 30
0.0
 11
-7.945000
 21
-6.500479
 31
0.0
  0
LINE
  5
163
100
AcDbEntity
  8
Layer_1
 62
7
100
AcDbLine
 10
-7.945000
 20
-6.500479
 30
0.0
 11
-7.701417
 21
-6.040908
 31
0.0
  0
LINE
  5
164
100
AcDbEntity
  8
Layer_1
 62
7
100
AcDbLine
 10
-7.701417
 20
-6.040908
 30
0.0
 11
-7.403381
 21
-5.645853
 31
0.0
  0
LINE
  5
165
100
AcDbEntity
  8
Layer_1
 62
7
100
AcDbLine
 10
-7.403381
 20
-5.645853
 30
0.0
 11
-7.672950
 21
-5.273659
 31
0.0
  0
LINE
  5
166
100
AcDbEntity
  8
Layer_1
 62
7
100
AcDbLine
 10
-7.672950
 20
-5.273659
 30
0.0
 11
-8.141255
 21
-5.433650
 31
0.0
  0
LINE
  5
167
100
AcDbEntity
  8
Layer_1
 62
7
100
AcDbLine
 10
-8.141255
 20
-5.433650
 30
0.0
 11
-8.653861
 21
-5.521788
 31
0.0
  0
LINE
  5
168
100
AcDbEntity
  8
Layer_1
 62
7
100
AcDbLine
 10
-8.653861
 20
-5.521788
 30
0.0
 11
-8.844195
 21
-5.211485
 31
0.0
  0
LINE
  5
169
100
AcDbEntity
  8
Layer_1
 62
7
100
AcDbLine
 10
-8.844195
 20
-5.211485
 30
0.0
 11
-8.533316
 21
-4.794502
 31
0.0
  0
LINE
  5
16a
100
AcDbEntity
  8
Layer_1
 62
7
100
AcDbLine
 10
-8.533316
 20
-4.794502
 30
0.0
 11
-8.178463
 21
-4.449570
 31
0.0
  0
LINE
  5
16b
100
AcDbEntity
  8
Layer_1
 62
7
100
AcDbLine
 10
-8.178463
 20
-4.449570
 30
0.0
 11
-8.388061
 21
-4.040573
 31
0.0
  0
LINE
  5
16c
100
AcDbEntity
  8
Layer_1
 62
7
100
AcDbLine
 10
-8.388061
 20
-4.040573
 30
0.0
 11
-8.875297
 21
-4.127215
 31
0.0
  0
LINE
  5
16d
100
AcDbEntity
  8
Layer_1
 62
7
100
AcDbLine
 10
-8.875297
 20
-4.127215
 30
0.0
 11
-9.395351
 21
-4.135964
 31
0.0
  0
LINE
  5
16e
100
AcDbEntity
  8
Layer_1
 62
7
100
AcDbLine
 10
-9.395351
 20
-4.135964
 30
0.0
 11
-9.536088
 21
-3.800261
 31
0.0
  0
LINE
  5
16f
100
AcDbEntity
  8
Layer_1
 62
7
100
AcDbLine
 10
-9.536088
 20
-3.800261
 30
0.0
 11
-9.165197
 21
-3.435602
 31
0.0
  0
LINE
  5
170
100
AcDbEntity
  8
Layer_1
 62
7
100
AcDbLine
 10
-9.165197
 20
-3.435602
 30
0.0
 11
-8.761852
 21
-3.148864
 31
0.0
  0
LINE
  5
171
100
AcDbEntity
  8
Layer_1
 62
7
100
AcDbLine
 10
-8.761852
 20
-3.148864
 30
0.0
 11
-8.906563
 21
-2.712689
 31
0.0
  0
LINE
  5
172
100
AcDbEntity
  8
Layer_1
 62
7
100
AcDbLine
 10
-8.906563
 20
-2.712689
 30
0.0
 11
-9.401312
 21
-2.723978
 31
0.0
  0
LINE
  5
173
100
AcDbEntity
  8
Layer_1
 62
7
100
AcDbLine
 10
-9.401312
 20
-2.723978
 30
0.0
 11
-9.916622
 21
-2.653338
 31
0.0
  0
LINE
  5
174
100
AcDbEntity
  8
Layer_1
 62
7
100
AcDbLine
 10
-9.916622
 20
-2.653338
 30
0.0
 11
-10.004465
 21
-2.300081
 31
0.0
  0
LINE
  5
175
100
AcDbEntity
  8
Layer_1
 62
7
100
AcDbLine
 10
-10.004465
 20
-2.300081
 30
0.0
 11
-9.582256
 21
-1.996297
 31
0.0
  0
LINE
  5
176
100
AcDbEntity
  8
Layer_1
 62
7
100
AcDbLine
 10
-9.582256
 20
-1.996297
 30
0.0
 11
-9.139866
 21
-1.774498
 31
0.0
  0
LINE
  5
177
100
AcDbEntity
  8
Layer_1
 62
7
100
AcDbLine
 10
-9.139866
 20
-1.774498
 30
0.0
 11
-9.216301
 21
-1.321362
 31
0.0
  0
LINE
  5
178
100
AcDbEntity
  8
Layer_1
 62
7
100
AcDbLine
 10
-9.216301
 20
-1.321362
 30
0.0
 11
-9.706967
 21
-1.256931
 31
0.0
  0
LINE
  5
179
100
AcDbEntity
  8
Layer_1
 62
7
100
AcDbLine
 10
-9.706967
 20
-1.256931
 30
0.0
 11
-10.205455
 21
-1.108454
 31
0.0
  0
LINE
  5
17a
100
AcDbEntity
  8
Layer_1
 62
7
100
AcDbLine
 10
-10.205455
 20
-1.108454
 30
0.0
 11
-10.238346
 21
-0.745939
 31
0.0
  0
LINE
  5
17b
100
AcDbEntity
  8
Layer_1
 62
7
100
AcDbLine
 10
-10.238346
 20
-0.745939
 30
0.0
 11
-9.774715
 21
-0.510199
 31
0.0
  0
LINE
  5
17c
100
AcDbEntity
  8
Layer_1
 62
7
100
AcDbLine
 10
-9.774715
 20
-0.510199
 30
0.0
 11
-9.303653
 21
-0.358505
 31
0.0
  0
LINE
  5
17d
100
AcDbEntity
  8
Layer_1
 62
7
100
AcDbLine
 10
-9.303653
 20
-0.358505
 30
0.0
 11
-9.310017
 21
0.100981
 31
0.0
  0
LINE
  5
17e
100
AcDbEntity
  8
Layer_1
 62
7
100
AcDbLine
 10
-9.310017
 20
0.100981
 30
0.0
 11
-9.785099
 21
0.239553
 31
0.0
  0
LINE
  5
17f
100
AcDbEntity
  8
Layer_1
 62
7
100
AcDbLine
 10
-9.785099
 20
0.239553
 30
0.0
 11
-10.255082
 21
0.462367
 31
0.0
  0
LINE
  5
180
100
AcDbEntity
  8
Layer_1
 62
7
100
AcDbLine
 10
-10.255082
 20
0.462367
 30
0.0
 11
-10.232245
 21
0.825672
 31
0.0
  0
LINE
  5
181
100
AcDbEntity
  8
Layer_1
 62
7
100
AcDbLine
 10
-10.232245
 20
0.825672
 30
0.0
 11
-9.738061
 21
0.987893
 31
0.0
  0
LINE
  5
182
100
AcDbEntity
  8
Layer_1
 62
7
100
AcDbLine
 10
-9.738061
 20
0.987893
 30
0.0
 11
-9.249368
 21
1.065871
 31
0.0
  0
LINE
  5
183
100
AcDbEntity
  8
Layer_1
 62
7
100
AcDbLine
 10
-9.249368
 20
1.065871
 30
0.0
 11
-9.185513
 21
1.520983
 31
0.0
  0
LINE
  5
184
100
AcDbEntity
  8
Layer_1
 62
7
100
AcDbLine
 10
-9.185513
 20
1.520983
 30
0.0
 11
-9.633877
 21
1.730448
 31
0.0
  0
LINE
  5
185
100
AcDbEntity
  8
Layer_1
 62
7
100
AcDbLine
 10
-9.633877
 20
1.730448
 30
0.0
 11
-10.064338
 21
2.022407
 31
0.0
  0
LINE
  5
186
100
AcDbEntity
  8
Layer_1
 62
7
100
AcDbLine
 10
-10.064338
 20
2.022407
 30
0.0
 11
-9.986313
 21
2.377950
 31
0.0
  0
LINE
  5
187
100
AcDbEntity
  8
Layer_1
 62
7
100
AcDbLine
 10
-9.986313
 20
2.377950
 30
0.0
 11
-9.473157
 21
2.462843
 31
0.0
  0
LINE
  5
188
100
AcDbEntity
  8
Layer_1
 62
7
100
AcDbLine
 10
-9.473157
 20
2.462843
 30
0.0
 11
-8.978287
 21
2.465665
 31
0.0
  0
LINE
  5
189
100
AcDbEntity
  8
Layer_1
 62
7
100
AcDbLine
 10
-8.978287
 20
2.465665
 30
0.0
 11
-8.845713
 21
2.905678
 31
0.0
  0
LINE
  5
18a
100
AcDbEntity
  8
Layer_1
 62
7
100
AcDbLine
 10
-8.845713
 20
2.905678
 30
0.0
 11
-9.256845
 21
3.181127
 31
0.0
  0
LINE
  5
18b
100
AcDbEntity
  8
Layer_1
 62
7
100
AcDbLine
 10
-9.256845
 20
3.181127
 30
0.0
 11
-9.637694
 21
3.535372
 31
0.0
  0
LINE
  5
18c
100
AcDbEntity
  8
Layer_1
 62
7
100
AcDbLine
 10
-9.637694
 20
3.535372
 30
0.0
 11
-9.506310
 21
3.874857
 31
0.0
  0
LINE
  5
18d
100
AcDbEntity
  8
Layer_1
 62
7
100
AcDbLine
 10
-9.506310
 20
3.874857
 30
0.0
 11
-8.986210
 21
3.880501
 31
0.0
  0
LINE
  5
18e
100
AcDbEntity
  8
Layer_1
 62
7
100
AcDbLine
 10
-8.986210
 20
3.880501
 30
0.0
 11
-8.496762
 21
3.807406
 31
0.0
  0
LINE
  5
18f
100
AcDbEntity
  8
Layer_1
 62
7
100
AcDbLine
 10
-8.496762
 20
3.807406
 30
0.0
 11
-8.298572
 21
4.222019
 31
0.0
  0
LINE
  5
190
100
AcDbEntity
  8
Layer_1
 62
7
100
AcDbLine
 10
-8.298572
 20
4.222019
 30
0.0
 11
-8.662843
 21
4.557016
 31
0.0
  0
LINE
  5
191
100
AcDbEntity
  8
Layer_1
 62
7
100
AcDbLine
 10
-8.662843
 20
4.557016
 30
0.0
 11
-8.985153
 21
4.965223
 31
0.0
  0
LINE
  5
192
100
AcDbEntity
  8
Layer_1
 62
7
100
AcDbLine
 10
-8.985153
 20
4.965223
 30
0.0
 11
-8.803486
 21
5.280662
 31
0.0
  0
LINE
  5
193
100
AcDbEntity
  8
Layer_1
 62
7
100
AcDbLine
 10
-8.803486
 20
5.280662
 30
0.0
 11
-8.288636
 21
5.206777
 31
0.0
  0
LINE
  5
194
100
AcDbEntity
  8
Layer_1
 62
7
100
AcDbLine
 10
-8.288636
 20
5.206777
 30
0.0
 11
-7.816079
 21
5.059823
 31
0.0
  0
LINE
  5
195
100
AcDbEntity
  8
Layer_1
 62
7
100
AcDbLine
 10
-7.816079
 20
5.059823
 30
0.0
 11
-7.556922
 21
5.439328
 31
0.0
  0
LINE
  5
196
100
AcDbEntity
  8
Layer_1
 62
7
100
AcDbLine
 10
-7.556922
 20
5.439328
 30
0.0
 11
-7.865787
 21
5.825972
 31
0.0
  0
LINE
  5
197
100
AcDbEntity
  8
Layer_1
 62
7
100
AcDbLine
 10
-7.865787
 20
5.825972
 30
0.0
 11
-8.122005
 21
6.278628
 31
0.0
  0
LINE
  5
198
100
AcDbEntity
  8
Layer_1
 62
7
100
AcDbLine
 10
-8.122005
 20
6.278628
 30
0.0
 11
-7.894314
 21
6.562629
 31
0.0
  0
LINE
  5
199
100
AcDbEntity
  8
Layer_1
 62
7
100
AcDbLine
 10
-7.894314
 20
6.562629
 30
0.0
 11
-7.396779
 21
6.411019
 31
0.0
  0
LINE
  5
19a
100
AcDbEntity
  8
Layer_1
 62
7
100
AcDbLine
 10
-7.396779
 20
6.411019
 30
0.0
 11
-6.952195
 21
6.193651
 31
0.0
  0
LINE
  5
19b
100
AcDbEntity
  8
Layer_1
 62
7
100
AcDbLine
 10
-6.952195
 20
6.193651
 30
0.0
 11
-6.638143
 21
6.529157
 31
0.0
  0
LINE
  5
19c
100
AcDbEntity
  8
Layer_1
 62
7
100
AcDbLine
 10
-6.638143
 20
6.529157
 30
0.0
 11
-6.884365
 21
6.958417
 31
0.0
  0
LINE
  5
19d
100
AcDbEntity
  8
Layer_1
 62
7
100
AcDbLine
 10
-6.884365
 20
6.958417
 30
0.0
 11
-7.068486
 21
7.444855
 31
0.0
  0
LINE
  5
19e
100
AcDbEntity
  8
Layer_1
 62
7
100
AcDbLine
 10
-7.068486
 20
7.444855
 30
0.0
 11
-6.800109
 21
7.690784
 31
0.0
  0
LINE
  5
19f
100
AcDbEntity
  8
Layer_1
 62
7
100
AcDbLine
 10
-6.800109
 20
7.690784
 30
0.0
 11
-6.331552
 21
7.465006
 31
0.0
  0
LINE
  5
1a0
100
AcDbEntity
  8
Layer_1
 62
7
100
AcDbLine
 10
-6.331552
 20
7.465006
 30
0.0
 11
-5.925358
 21
7.182304
 31
0.0
  0
LINE
  5
1a1
100
AcDbEntity
  8
Layer_1
 62
7
100
AcDbLine
 10
-5.925358
 20
7.182304
 30
0.0
 11
-5.563774
 21
7.465937
 31
0.0
  0
LINE
  5
1a2
100
AcDbEntity
  8
Layer_1
 62
7
100
AcDbLine
 10
-5.563774
 20
7.465937
 30
0.0
 11
-5.741581
 21
7.927766
 31
0.0
  0
LINE
  5
1a3
100
AcDbEntity
  8
Layer_1
 62
7
100
AcDbLine
 10
-5.741581
 20
7.927766
 30
0.0
 11
-5.849285
 21
8.436612
 31
0.0
  0
LINE
  5
1a4
100
AcDbEntity
  8
Layer_1
 62
7
100
AcDbLine
 10
-5.849285
 20
8.436612
 30
0.0
 11
-5.546513
 21
8.638712
 31
0.0
  0
LINE
  5
1a5
100
AcDbEntity
  8
Layer_1
 62
7
100
AcDbLine
 10
-5.546513
 20
8.638712
 30
0.0
 11
-5.117917
 21
8.344015
 31
0.0
  0
LINE
  5
1a6
100
AcDbEntity
  8
Layer_1
 62
7
100
AcDbLine
 10
-5.117917
 20
8.344015
 30
0.0
 11
-4.759634
 21
8.002639
 31
0.0
  0
LINE
  5
1a7
100
AcDbEntity
  8
Layer_1
 62
7
100
AcDbLine
 10
-4.759634
 20
8.002639
 30
0.0
 11
-4.358992
 21
8.227768
 31
0.0
  0
LINE
  5
1a8
100
AcDbEntity
  8
Layer_1
 62
7
100
AcDbLine
 10
-4.358992
 20
8.227768
 30
0.0
 11
-4.464217
 21
8.711327
 31
0.0
  0
LINE
  5
1a9
100
AcDbEntity
  8
Layer_1
 62
7
100
AcDbLine
 10
-4.464217
 20
8.711327
 30
0.0
 11
-4.492984
 21
9.230645
 31
0.0
  0
LINE
  5
1aa
100
AcDbEntity
  8
Layer_1
 62
7
100
AcDbLine
 10
-4.492984
 20
9.230645
 30
0.0
 11
-4.162914
 21
9.384145
 31
0.0
  0
LINE
  5
1ab
100
AcDbEntity
  8
Layer_1
 62
7
100
AcDbLine
 10
-4.162914
 20
9.384145
 30
0.0
 11
-3.784320
 21
9.027501
 31
0.0
  0
LINE
  5
1ac
100
AcDbEntity
  8
Layer_1
 62
7
100
AcDbLine
 10
-3.784320
 20
9.027501
 30
0.0
 11
-3.482350
 21
8.635410
 31
0.0
  0
LINE
  5
1ad
100
AcDbEntity
  8
Layer_1
 62
7
100
AcDbLine
 10
-3.482350
 20
8.635410
 30
0.0
 11
-3.052040
 21
8.796728
 31
0.0
  0
LINE
  5
1ae
100
AcDbEntity
  8
Layer_1
 62
7
100
AcDbLine
 10
-3.052040
 20
8.796728
 30
0.0
 11
-3.082216
 21
9.290701
 31
0.0
  0
LINE
  5
1af
100
AcDbEntity
  8
Layer_1
 62
7
100
AcDbLine
 10
-3.082216
 20
9.290701
 30
0.0
 11
-3.031370
 21
9.808325
 31
0.0
  0
LINE
  5
1b0
100
AcDbEntity
  8
Layer_1
 62
7
100
AcDbLine
 10
-3.031370
 20
9.808325
 30
0.0
 11
-2.681737
 21
9.909643
 31
0.0
  0
LINE
  5
1b1
100
AcDbEntity
  8
Layer_1
 62
7
100
AcDbLine
 10
-2.681737
 20
9.909643
 30
0.0
 11
-2.362023
 21
9.499377
 31
0.0
  0
LINE
  5
1b2
100
AcDbEntity
  8
Layer_1
 62
7
100
AcDbLine
 10
-2.362023
 20
9.499377
 30
0.0
 11
-2.123441
 21
9.065799
 31
0.0
  0
LINE
  5
1b3
100
AcDbEntity
  8
Layer_1
 62
7
100
AcDbLine
 10
-2.123441
 20
9.065799
 30
0.0
 11
-1.673550
 21
9.159553
 31
0.0
  0
LINE
  5
1b4
100
AcDbEntity
  8
Layer_1
 62
7
100
AcDbLine
 10
-1.673550
 20
9.159553
 30
0.0
 11
-1.627971
 21
9.652313
 31
0.0
  0
LINE
  5
1b5
100
AcDbEntity
  8
Layer_1
 62
7
100
AcDbLine
 10
-1.627971
 20
9.652313
 30
0.0
 11
-1.498705
 21
10.156136
 31
0.0
  0
LINE
  5
1b6
100
AcDbEntity
  8
Layer_1
 62
7
100
AcDbLine
 10
-1.498705
 20
10.156136
 30
0.0
 11
-1.137704
 21
10.202872
 31
0.0
  0
LINE
  5
1b7
100
AcDbEntity
  8
Layer_1
 62
7
100
AcDbLine
 10
-1.137704
 20
10.202872
 30
0.0
 11
-0.884364
 21
9.748607
 31
0.0
  0
LINE
  5
1b8
100
AcDbEntity
  8
Layer_1
 62
7
100
AcDbLine
 10
-0.884364
 20
9.748607
 30
0.0
 11
-0.714762
 21
9.283702
 31
0.0
  0
LINE
  5
1b9
100
AcDbEntity
  8
Layer_1
 62
7
100
AcDbLine
 10
-0.714762
 20
9.283702
 30
0.0
 11
-0.255834
 21
9.307691
 31
0.0
  0
LINE
  5
1ba
100
AcDbEntity
  8
Layer_1
 62
7
100
AcDbLine
 10
-0.255834
 20
9.307691
 30
0.0
 11
-0.135567
 21
9.787723
 31
0.0
  0
LINE
  5
1bb
100
AcDbEntity
  8
Layer_1
 62
7
100
AcDbLine
 10
-0.135567
 20
9.787723
 30
0.0
 11
0.069090
 21
10.265892
 31
0.0
  0
LINE
  5
1bc
100
AcDbEntity
  8
Layer_1
 62
7
100
AcDbLine
 10
0.069090
 20
10.265892
 30
0.0
 11
0.432996
 21
10.256861
 31
0.0
  0
LINE
  5
1bd
100
AcDbEntity
  8
Layer_1
 62
7
100
AcDbLine
 10
0.432996
 20
10.256861
 30
0.0
 11
0.614025
 21
9.769266
 31
0.0
  0
LINE
  5
1be
100
AcDbEntity
  8
Layer_1
 62
7
100
AcDbLine
 10
0.614025
 20
9.769266
 30
0.0
 11
0.710672
 21
9.283900
 31
0.0
  0
LINE
  5
1bf
100
AcDbEntity
  8
Layer_1
 62
7
100
AcDbLine
 10
0.710672
 20
9.283900
 30
0.0
 11
1.167878
 21
9.237531
 31
0.0
  0
LINE
  5
1c0
100
AcDbEntity
  8
Layer_1
 62
7
100
AcDbLine
 10
1.167878
 20
9.237531
 30
0.0
 11
1.360013
 21
9.693602
 31
0.0
  0
LINE
  5
1c1
100
AcDbEntity
  8
Layer_1
 62
7
100
AcDbLine
 10
1.360013
 20
9.693602
 30
0.0
 11
1.635266
 21
10.134913
 31
0.0
  0
LINE
  5
1c2
100
AcDbEntity
  8
Layer_1
 62
7
100
AcDbLine
 10
1.635266
 20
10.134913
 30
0.0
 11
1.993547
 21
10.070566
 31
0.0
  0
LINE
  5
1c3
100
AcDbEntity
  8
Layer_1
 62
7
100
AcDbLine
 10
1.993547
 20
10.070566
 30
0.0
 11
2.098021
 21
9.561042
 31
0.0
  0
LINE
  5
1c4
100
AcDbEntity
  8
Layer_1
 62
7
100
AcDbLine
 10
2.098021
 20
9.561042
 30
0.0
 11
2.119447
 21
9.066617
 31
0.0
  0
LINE
  5
1c5
100
AcDbEntity
  8
Layer_1
 62
7
100
AcDbLine
 10
2.119447
 20
9.066617
 30
0.0
 11
2.564217
 21
8.951019
 31
0.0
  0
LINE
  5
1c6
100
AcDbEntity
  8
Layer_1
 62
7
100
AcDbLine
 10
2.564217
 20
8.951019
 30
0.0
 11
2.823717
 21
9.372405
 31
0.0
  0
LINE
  5
1c7
100
AcDbEntity
  8
Layer_1
 62
7
100
AcDbLine
 10
2.823717
 20
9.372405
 30
0.0
 11
3.163112
 21
9.766528
 31
0.0
  0
LINE
  5
1c8
100
AcDbEntity
  8
Layer_1
 62
7
100
AcDbLine
 10
3.163112
 20
9.766528
 30
0.0
 11
3.507370
 21
9.648249
 31
0.0
  0
LINE
  5
1c9
100
AcDbEntity
  8
Layer_1
 62
7
100
AcDbLine
 10
3.507370
 20
9.648249
 30
0.0
 11
3.532841
 21
9.128734
 31
0.0
  0
LINE
  5
1ca
100
AcDbEntity
  8
Layer_1
 62
7
100
AcDbLine
 10
3.532841
 20
9.128734
 30
0.0
 11
3.478545
 21
8.636849
 31
0.0
  0
LINE
  5
1cb
100
AcDbEntity
  8
Layer_1
 62
7
100
AcDbLine
 10
3.478545
 20
8.636849
 30
0.0
 11
3.900451
 21
8.454675
 31
0.0
  0
LINE
  5
1cc
100
AcDbEntity
  8
Layer_1
 62
7
100
AcDbLine
 10
3.900451
 20
8.454675
 30
0.0
 11
4.221235
 21
8.831526
 31
0.0
  0
LINE
  5
1cd
100
AcDbEntity
  8
Layer_1
 62
7
100
AcDbLine
 10
4.221235
 20
8.831526
 30
0.0
 11
4.616814
 21
9.169233
 31
0.0
  0
LINE
  5
1ce
100
AcDbEntity
  8
Layer_1
 62
7
100
AcDbLine
 10
4.616814
 20
9.169233
 30
0.0
 11
4.938984
 21
8.999787
 31
0.0
  0
LINE
  5
1cf
100
AcDbEntity
  8
Layer_1
 62
7
100
AcDbLine
 10
4.938984
 20
8.999787
 30
0.0
 11
4.884856
 21
8.482473
 31
0.0
  0
LINE
  5
1d0
100
AcDbEntity
  8
Layer_1
 62
7
100
AcDbLine
 10
4.884856
 20
8.482473
 30
0.0
 11
4.756108
 21
8.004643
 31
0.0
  0
LINE
  5
1d1
100
AcDbEntity
  8
Layer_1
 62
7
100
AcDbLine
 10
4.756108
 20
8.004643
 30
0.0
 11
5.145264
 21
7.760210
 31
0.0
  0
LINE
  5
1d2
100
AcDbEntity
  8
Layer_1
 62
7
100
AcDbLine
 10
5.145264
 20
7.760210
 30
0.0
 11
5.519811
 21
8.083665
 31
0.0
  0
LINE
  5
1d3
100
AcDbEntity
  8
Layer_1
 62
7
100
AcDbLine
 10
5.519811
 20
8.083665
 30
0.0
 11
5.962305
 21
8.357026
 31
0.0
  0
LINE
  5
1d4
100
AcDbEntity
  8
Layer_1
 62
7
100
AcDbLine
 10
5.962305
 20
8.357026
 30
0.0
 11
6.254832
 21
8.140364
 31
0.0
  0
LINE
  5
1d5
100
AcDbEntity
  8
Layer_1
 62
7
100
AcDbLine
 10
6.254832
 20
8.140364
 30
0.0
 11
6.122374
 21
7.637387
 31
0.0
  0
LINE
  5
1d6
100
AcDbEntity
  8
Layer_1
 62
7
100
AcDbLine
 10
6.122374
 20
7.637387
 30
0.0
 11
5.922191
 21
7.184816
 31
0.0
  0
LINE
  5
1d7
100
AcDbEntity
  8
Layer_1
 62
7
100
AcDbLine
 10
5.922191
 20
7.184816
 30
0.0
 11
6.269474
 21
6.883854
 31
0.0
  0
LINE
  5
1d8
100
AcDbEntity
  8
Layer_1
 62
7
100
AcDbLine
 10
6.269474
 20
6.883854
 30
0.0
 11
6.689006
 21
7.146321
 31
0.0
  0
LINE
  5
1d9
100
AcDbEntity
  8
Layer_1
 62
7
100
AcDbLine
 10
6.689006
 20
7.146321
 30
0.0
 11
7.168047
 21
7.348956
 31
0.0
  0
LINE
  5
1da
100
AcDbEntity
  8
Layer_1
 62
7
100
AcDbLine
 10
7.168047
 20
7.348956
 30
0.0
 11
7.424075
 21
7.090187
 31
0.0
  0
LINE
  5
1db
100
AcDbEntity
  8
Layer_1
 62
7
100
AcDbLine
 10
7.424075
 20
7.090187
 30
0.0
 11
7.216385
 21
6.613316
 31
0.0
  0
LINE
  5
1dc
100
AcDbEntity
  8
Layer_1
 62
7
100
AcDbLine
 10
7.216385
 20
6.613316
 30
0.0
 11
6.949466
 21
6.196615
 31
0.0
  0
LINE
  5
1dd
100
AcDbEntity
  8
Layer_1
 62
7
100
AcDbLine
 10
6.949466
 20
6.196615
 30
0.0
 11
7.246736
 21
5.846151
 31
0.0
  0
LINE
  5
1de
100
AcDbEntity
  8
Layer_1
 62
7
100
AcDbLine
 10
7.246736
 20
5.846151
 30
0.0
 11
7.701418
 21
6.041505
 31
0.0
  0
LINE
  5
1df
100
AcDbEntity
  8
Layer_1
 62
7
100
AcDbLine
 10
7.701418
 20
6.041505
 30
0.0
 11
8.205772
 21
6.168618
 31
0.0
  0
LINE
  5
1e0
100
AcDbEntity
  8
Layer_1
 62
7
100
AcDbLine
 10
8.205772
 20
6.168618
 30
0.0
 11
8.419301
 21
5.873809
 31
0.0
  0
LINE
  5
1e1
100
AcDbEntity
  8
Layer_1
 62
7
100
AcDbLine
 10
8.419301
 20
5.873809
 30
0.0
 11
8.141256
 21
5.434248
 31
0.0
  0
LINE
  5
1e2
100
AcDbEntity
  8
Layer_1
 62
7
100
AcDbLine
 10
8.141256
 20
5.434248
 30
0.0
 11
7.813850
 21
5.063154
 31
0.0
  0
LINE
  5
1e3
100
AcDbEntity
  8
Layer_1
 62
7
100
AcDbLine
 10
7.813850
 20
5.063154
 30
0.0
 11
8.054139
 21
4.671429
 31
0.0
  0
LINE
  5
1e4
100
AcDbEntity
  8
Layer_1
 62
7
100
AcDbLine
 10
8.054139
 20
4.671429
 30
0.0
 11
8.533316
 21
4.795099
 31
0.0
  0
LINE
  5
1e5
100
AcDbEntity
  8
Layer_1
 62
7
100
AcDbLine
 10
8.533316
 20
4.795099
 30
0.0
 11
9.051163
 21
4.843726
 31
0.0
  0
LINE
  5
1e6
100
AcDbEntity
  8
Layer_1
 62
7
100
AcDbLine
 10
9.051163
 20
4.843726
 30
0.0
 11
9.217187
 21
4.519791
 31
0.0
  0
LINE
  5
1e7
100
AcDbEntity
  8
Layer_1
 62
7
100
AcDbLine
 10
9.217187
 20
4.519791
 30
0.0
 11
8.875297
 21
4.127813
 31
0.0
  0
LINE
  5
1e8
100
AcDbEntity
  8
Layer_1
 62
7
100
AcDbLine
 10
8.875297
 20
4.127813
 30
0.0
 11
8.495084
 21
3.811047
 31
0.0
  0
LINE
  5
1e9
100
AcDbEntity
  8
Layer_1
 62
7
100
AcDbLine
 10
8.495084
 20
3.811047
 30
0.0
 11
8.672760
 21
3.387233
 31
0.0
  0
LINE
  5
1ea
100
AcDbEntity
  8
Layer_1
 62
7
100
AcDbLine
 10
8.672760
 20
3.387233
 30
0.0
 11
9.165198
 21
3.436312
 31
0.0
  0
LINE
  5
1eb
100
AcDbEntity
  8
Layer_1
 62
7
100
AcDbLine
 10
9.165198
 20
3.436312
 30
0.0
 11
9.684401
 21
3.405324
 31
0.0
  0
LINE
  5
1ec
100
AcDbEntity
  8
Layer_1
 62
7
100
AcDbLine
 10
9.684401
 20
3.405324
 30
0.0
 11
9.799029
 21
3.059827
 31
0.0
  0
LINE
  5
1ed
100
AcDbEntity
  8
Layer_1
 62
7
100
AcDbLine
 10
9.799029
 20
3.059827
 30
0.0
 11
9.401312
 21
2.724632
 31
0.0
  0
LINE
  5
1ee
100
AcDbEntity
  8
Layer_1
 62
7
100
AcDbLine
 10
9.401312
 20
2.724632
 30
0.0
 11
8.977200
 21
2.469616
 31
0.0
  0
LINE
  5
1ef
100
AcDbEntity
  8
Layer_1
 62
7
100
AcDbLine
 10
8.977200
 20
2.469616
 30
0.0
 11
9.088098
 21
2.023649
 31
0.0
  0
LINE
  5
1f0
100
AcDbEntity
  8
Layer_1
 62
7
100
AcDbLine
 10
9.088098
 20
2.023649
 30
0.0
 11
9.582257
 21
1.997120
 31
0.0
  0
LINE
  5
1f1
100
AcDbEntity
  8
Layer_1
 62
7
100
AcDbLine
 10
9.582257
 20
1.997120
 30
0.0
 11
10.090648
 21
1.887251
 31
0.0
  0
LINE
  5
1f2
100
AcDbEntity
  8
Layer_1
 62
7
100
AcDbLine
 10
10.090648
 20
1.887251
 30
0.0
 11
10.151192
 21
1.528292
 31
0.0
  0
LINE
  5
1f3
100
AcDbEntity
  8
Layer_1
 62
7
100
AcDbLine
 10
10.151192
 20
1.528292
 30
0.0
 11
9.706967
 21
1.257754
 31
0.0
  0
LINE
  5
1f4
100
AcDbEntity
  8
Layer_1
 62
7
100
AcDbLine
 10
9.706967
 20
1.257754
 30
0.0
 11
9.248900
 21
1.070443
 31
0.0
  0
LINE
  5
1f5
100
AcDbEntity
  8
Layer_1
 62
7
100
AcDbLine
 10
9.248900
 20
1.070443
 30
0.0
 11
9.290419
 21
0.612114
 31
0.0
  0
ENDSEC
  0
SECTION
  2
OBJECTS
  0
DICTIONARY
  5
C
330
0
100
AcDbDictionary
  3
ACAD_GROUP
350
D
  3
ACAD_MLINESTYLE
350
17
  0
DICTIONARY
  5
D
330
C
100
AcDbDictionary
  0
DICTIONARY
  5
1A
330
C
100
AcDbDictionary
  0
DICTIONARY
  5
17
330
C
100
AcDbDictionary
  3
STANDARD
350
18
  0
DICTIONARY
  5
19
330
C
100
AcDbDictionary
  0
ENDSEC
  0
EOF
