<?xml version="1.0" encoding="UTF-8" standalone="no"?>
<!-- Created with Inkscape (http://www.inkscape.org/) -->

<svg
   xmlns:dc="http://purl.org/dc/elements/1.1/"
   xmlns:cc="http://creativecommons.org/ns#"
   xmlns:rdf="http://www.w3.org/1999/02/22-rdf-syntax-ns#"
   xmlns:svg="http://www.w3.org/2000/svg"
   xmlns="http://www.w3.org/2000/svg"
   xmlns:sodipodi="http://sodipodi.sourceforge.net/DTD/sodipodi-0.dtd"
   xmlns:inkscape="http://www.inkscape.org/namespaces/inkscape"
   width="297mm"
   height="210mm"
   viewBox="0 0 1052.3622 744.09448"
   id="svg2"
   version="1.1"
   inkscape:version="0.91 r13725"
   sodipodi:docname="gear-pa20-cp1.5-t13.svg">
  <sodipodi:namedview
     id="base"
     pagecolor="#ffffff"
     bordercolor="#666666"
     borderopacity="1.0"
     inkscape:pageopacity="0.0"
     inkscape:pageshadow="2"
     inkscape:zoom="17.920001"
     inkscape:cx="0.71678715"
     inkscape:cy="-1.1444038"
     inkscape:document-units="mm"
     inkscape:current-layer="layer1"
     showgrid="true"
     inkscape:window-width="1366"
     inkscape:window-height="705"
     inkscape:window-x="-8"
     inkscape:window-y="-8"
     inkscape:window-maximized="1"
     showguides="true"
     inkscape:guide-bbox="true"
     inkscape:snap-bbox="true"
     inkscape:bbox-nodes="true"
     inkscape:snap-bbox-edge-midpoints="true"
     inkscape:snap-bbox-midpoints="false"
     inkscape:snap-object-midpoints="false"
     inkscape:snap-global="true"
     inkscape:snap-grids="true"
     inkscape:object-nodes="true"
     inkscape:snap-smooth-nodes="true"
     inkscape:snap-center="true">
    <inkscape:grid
       spacingy="17.716535"
       spacingx="17.716536"
       units="mm"
       id="grid3333"
       type="xygrid"
       color="#e80007"
       opacity="0.96078431"
       empcolor="#ed0000"
       empopacity="0.25098039" />
    <inkscape:grid
       type="xygrid"
       id="grid4730"
       units="mm"
       spacingx="0.35433071"
       spacingy="0.35433071"
       empspacing="10" />
    <sodipodi:guide
       id="guide3393"
       orientation="744.0945,0"
       position="526.1811,0" />
    <sodipodi:guide
       id="guide3395"
       orientation="0,1052.3622"
       position="0,248.0315" />
    <sodipodi:guide
       id="guide3397"
       orientation="0,1052.3622"
       position="0,496.063" />
    <sodipodi:guide
       position="3.5433071,0"
       orientation="0,1"
       id="guide4140" />
    <sodipodi:guide
       position="0,0"
       orientation="1,0"
       id="guide4142" />
  </sodipodi:namedview>
  <defs
     id="defs4" />
  <metadata
     id="metadata7">
    <rdf:RDF>
      <cc:Work
         rdf:about="">
        <dc:format>image/svg+xml</dc:format>
        <dc:type
           rdf:resource="http://purl.org/dc/dcmitype/StillImage" />
        <dc:title />
      </cc:Work>
    </rdf:RDF>
  </metadata>
  <g
     transform="translate(0,-308.26772)"
     id="layer1"
     inkscape:groupmode="layer"
     inkscape:label="Layer 1"
     style="display:inline">
    <path
       style="fill:#0066ff;fill-opacity:1;stroke:none;stroke-width:1"
       d="m 9.2193353,1051.1031 1.0191597,-0.1392 0.67805,0.073 1.76064,0.7891 0,1.0727 -1.76064,0.7892 -0.67805,0.073 -1.0191597,-0.1392 -0.47087,1.9104 0.9671,0.3504 0.5665497,0.3796 1.19223,1.517 -0.49851,0.9498 -1.9257097,-0.1195 -0.63422,-0.2506 -0.83774,-0.5969 -1.30475,1.4728 0.6935,0.7597 0.32526,0.5993 0.35069,1.8973 -0.88281,0.6094 -1.64963,-1.0007 -0.44509,-0.5167 -0.4644,-0.9178 -1.83972,0.6977 0.26102,0.995 0.0095,0.6819 -0.57118,1.8429 -1.06488001,0.1293 -0.995629998622,-1.6527 -0.154010001378,-0.6643 0.01533,-1.0285 -1.95323999,-0.2372 -0.23125,1.0023 -0.30852,0.6082 -1.36221,1.3664 -1.00299,-0.3804 -0.11354,-1.9261 0.17236,-0.6598 0.49154,-0.9036 -1.61929,-1.1177 -0.67055,0.78 -0.55581,0.3952 -1.84117,0.5768 -0.71133,-0.8029 0.79455,-1.7583 0.45925,-0.5041 0.85515,-0.5716 -0.91438,-1.7422 -0.95624,0.379 -0.6757703,0.092 -1.89834,-0.3449 -0.25671,-1.0415 1.52062,-1.1876 0.64092,-0.2329 1.0228603,-0.1088 0,-1.9676 -1.0228603,-0.1087 -0.64092,-0.233 -1.52062,-1.1876 0.25671,-1.0415 1.89834,-0.3449 0.6757703,0.092 0.95624,0.3791 0.91438,-1.7422 -0.85515,-0.5717 -0.45925,-0.5041 -0.79455,-1.7582 0.71133,-0.803 1.84117,0.5769 0.55581,0.3951 0.67055,0.78 1.61929,-1.1177 -0.49154,-0.9036 -0.17236,-0.6598 0.11354,-1.926 1.00299,-0.3804 1.36221,1.3664 0.30852,0.6081 0.23125,1.0023 1.95323999,-0.2371 -0.01533,-1.0286 0.154010001378,-0.6643 0.995629998622,-1.6527 1.06488001,0.1293 0.57118,1.843 -0.0095,0.6818 -0.26102,0.995 1.83972,0.6977 0.4644,-0.9178 0.44509,-0.5167 1.64963,-1.0007 0.88281,0.6094 -0.35069,1.8973 -0.32526,0.5994 -0.6935,0.7596 1.30475,1.4728 0.83774,-0.5969 0.63422,-0.2506 1.9257097,-0.1195 0.49851,0.9499 -1.19223,1.517 -0.5665497,0.3795 -0.9671,0.3504 z"
       id="path4262-6-8-2"
       inkscape:connector-curvature="0" />
  </g>
</svg>
