  0
SECTION
  2
HEADER
  9
$ACADVER
  1
AC1014
  9
$HANDSEED
  5
FFFF
  9
$MEASUREMENT
 70
     1
  0
ENDSEC
  0
SECTION
  2
TABLES
  0
TABLE
  2
VPORT
  5
8
330
0
100
AcDbSymbolTable
 70
     4
  0
VPORT
  5
2E
330
8
100
AcDbSymbolTableRecord
100
AcDbViewportTableRecord
  2
*ACTIVE
 70
     0
 10
0.0
 20
0.0
 11
1.0
 21
1.0
 12
210.0
 22
148.5
 13
0.0
 23
0.0
 14
10.0
 24
10.0
 15
10.0
 25
10.0
 16
0.0
 26
0.0
 36
1.0
 17
0.0
 27
0.0
 37
0.0
 40
341.0
 41
1.24
 42
50.0
 43
0.0
 44
0.0
 50
0.0
 51
0.0
 71
     0
 72
   100
 73
     1
 74
     3
 75
     0
 76
     0
 77
     0
 78
     0
  0
ENDTAB
  0
TABLE
  2
LTYPE
  5
5
330
0
100
AcDbSymbolTable
 70
     1
  0
LTYPE
  5
14
330
5
100
AcDbSymbolTableRecord
100
AcDbLinetypeTableRecord
  2
BYBLOCK
 70
     0
  3

 72
    65
 73
     0
 40
0.0
  0
LTYPE
  5
15
330
5
100
AcDbSymbolTableRecord
100
AcDbLinetypeTableRecord
  2
BYLAYER
 70
     0
  3

 72
    65
 73
     0
 40
0.0
  0
LTYPE
  5
16
330
5
100
AcDbSymbolTableRecord
100
AcDbLinetypeTableRecord
  2
CONTINUOUS
 70
     0
  3
Solid line
 72
    65
 73
     0
 40
0.0
  0
ENDTAB
  0
TABLE
  2
LAYER
  5
2
100
AcDbSymbolTable
 70
2
  0
LAYER
  5
50
100
AcDbSymbolTableRecord
100
AcDbLayerTableRecord
  2
0
 70
0
  6
CONTINUOUS
  0
LAYER
  5
51
100
AcDbSymbolTableRecord
100
AcDbLayerTableRecord
  2
Layer_1
 70
0
  6
CONTINUOUS
  0
ENDTAB
  0
TABLE
  2
STYLE
  5
3
330
0
100
AcDbSymbolTable
 70
     1
  0
STYLE
  5
11
330
3
100
AcDbSymbolTableRecord
100
AcDbTextStyleTableRecord
  2
STANDARD
 70
     0
 40
0.0
 41
1.0
 50
0.0
 71
     0
 42
2.5
  3
txt
  4

  0
ENDTAB
  0
TABLE
  2
VIEW
  5
6
330
0
100
AcDbSymbolTable
 70
     0
  0
ENDTAB
  0
TABLE
  2
UCS
  5
7
330
0
100
AcDbSymbolTable
 70
     0
  0
ENDTAB
  0
TABLE
  2
APPID
  5
9
330
0
100
AcDbSymbolTable
 70
     2
  0
APPID
  5
12
330
9
100
AcDbSymbolTableRecord
100
AcDbRegAppTableRecord
  2
ACAD
 70
     0
  0
ENDTAB
  0
TABLE
  2
DIMSTYLE
  5
A
330
0
100
AcDbSymbolTable
 70
     1
  0
DIMSTYLE
105
27
330
A
100
AcDbSymbolTableRecord
100
AcDbDimStyleTableRecord
  2
ISO-25
 70
     0
  3

  4

  5

  6

  7

 40
1.0
 41
2.5
 42
0.625
 43
3.75
 44
1.25
 45
0.0
 46
0.0
 47
0.0
 48
0.0
140
2.5
141
2.5
142
0.0
143
0.03937007874016
144
1.0
145
0.0
146
1.0
147
0.625
 71
     0
 72
     0
 73
     0
 74
     0
 75
     0
 76
     0
 77
     1
 78
     8
170
     0
171
     3
172
     1
173
     0
174
     0
175
     0
176
     0
177
     0
178
     0
270
     2
271
     2
272
     2
273
     2
274
     3
340
11
275
     0
280
     0
281
     0
282
     0
283
     0
284
     8
285
     0
286
     0
287
     3
288
     0
  0
ENDTAB
  0
TABLE
  2
BLOCK_RECORD
  5
1
330
0
100
AcDbSymbolTable
 70
     1
  0
BLOCK_RECORD
  5
1F
330
1
100
AcDbSymbolTableRecord
100
AcDbBlockTableRecord
  2
*MODEL_SPACE
  0
BLOCK_RECORD
  5
1B
330
1
100
AcDbSymbolTableRecord
100
AcDbBlockTableRecord
  2
*PAPER_SPACE
  0
ENDTAB
  0
ENDSEC
  0
SECTION
  2
BLOCKS
  0
BLOCK
  5
20
330
1F
100
AcDbEntity
  8
0
100
AcDbBlockBegin
  2
*MODEL_SPACE
 70
     0
 10
0.0
 20
0.0
 30
0.0
  3
*MODEL_SPACE
  1

  0
ENDBLK
  5
21
330
1F
100
AcDbEntity
  8
0
100
AcDbBlockEnd
  0
BLOCK
  5
1C
330
1B
100
AcDbEntity
 67
     1
  8
0
100
AcDbBlockBegin
  2
*PAPER_SPACE
  1

  0
ENDBLK
  5
1D
330
1B
100
AcDbEntity
 67
     1
  8
0
100
AcDbBlockEnd
  0
ENDSEC
  0
SECTION
  2
ENTITIES
  0
LINE
  5
100
100
AcDbEntity
  8
Layer_1
 62
7
100
AcDbLine
 10
2.601901
 20
0.355348
 30
0.0
 11
2.889531
 21
0.394634
 31
0.0
  0
LINE
  5
101
100
AcDbEntity
  8
Layer_1
 62
7
100
AcDbLine
 10
2.889531
 20
0.394634
 30
0.0
 11
3.080892
 21
0.374031
 31
0.0
  0
LINE
  5
102
100
AcDbEntity
  8
Layer_1
 62
7
100
AcDbLine
 10
3.080892
 20
0.374031
 30
0.0
 11
3.577783
 21
0.151330
 31
0.0
  0
LINE
  5
103
100
AcDbEntity
  8
Layer_1
 62
7
100
AcDbLine
 10
3.577783
 20
0.151330
 30
0.0
 11
3.577783
 21
-0.151410
 31
0.0
  0
LINE
  5
104
100
AcDbEntity
  8
Layer_1
 62
7
100
AcDbLine
 10
3.577783
 20
-0.151410
 30
0.0
 11
3.080892
 21
-0.374140
 31
0.0
  0
LINE
  5
105
100
AcDbEntity
  8
Layer_1
 62
7
100
AcDbLine
 10
3.080892
 20
-0.374140
 30
0.0
 11
2.889531
 21
-0.394742
 31
0.0
  0
LINE
  5
106
100
AcDbEntity
  8
Layer_1
 62
7
100
AcDbLine
 10
2.889531
 20
-0.394742
 30
0.0
 11
2.601901
 21
-0.355457
 31
0.0
  0
LINE
  5
107
100
AcDbEntity
  8
Layer_1
 62
7
100
AcDbLine
 10
2.601901
 20
-0.355457
 30
0.0
 11
2.469011
 21
-0.894614
 31
0.0
  0
LINE
  5
108
100
AcDbEntity
  8
Layer_1
 62
7
100
AcDbLine
 10
2.469011
 20
-0.894614
 30
0.0
 11
2.741948
 21
-0.993505
 31
0.0
  0
LINE
  5
109
100
AcDbEntity
  8
Layer_1
 62
7
100
AcDbLine
 10
2.741948
 20
-0.993505
 30
0.0
 11
2.901841
 21
-1.100636
 31
0.0
  0
LINE
  5
10a
100
AcDbEntity
  8
Layer_1
 62
7
100
AcDbLine
 10
2.901841
 20
-1.100636
 30
0.0
 11
3.238315
 21
-1.528767
 31
0.0
  0
LINE
  5
10b
100
AcDbEntity
  8
Layer_1
 62
7
100
AcDbLine
 10
3.238315
 20
-1.528767
 30
0.0
 11
3.097625
 21
-1.796822
 31
0.0
  0
LINE
  5
10c
100
AcDbEntity
  8
Layer_1
 62
7
100
AcDbLine
 10
3.097625
 20
-1.796822
 30
0.0
 11
2.554146
 21
-1.763096
 31
0.0
  0
LINE
  5
10d
100
AcDbEntity
  8
Layer_1
 62
7
100
AcDbLine
 10
2.554146
 20
-1.763096
 30
0.0
 11
2.375155
 21
-1.692371
 31
0.0
  0
LINE
  5
10e
100
AcDbEntity
  8
Layer_1
 62
7
100
AcDbLine
 10
2.375155
 20
-1.692371
 30
0.0
 11
2.138727
 21
-1.523913
 31
0.0
  0
LINE
  5
10f
100
AcDbEntity
  8
Layer_1
 62
7
100
AcDbLine
 10
2.138727
 20
-1.523913
 30
0.0
 11
1.770497
 21
-1.939570
 31
0.0
  0
LINE
  5
110
100
AcDbEntity
  8
Layer_1
 62
7
100
AcDbLine
 10
1.770497
 20
-1.939570
 30
0.0
 11
1.966218
 21
-2.153974
 31
0.0
  0
LINE
  5
111
100
AcDbEntity
  8
Layer_1
 62
7
100
AcDbLine
 10
1.966218
 20
-2.153974
 30
0.0
 11
2.058014
 21
-2.323110
 31
0.0
  0
LINE
  5
112
100
AcDbEntity
  8
Layer_1
 62
7
100
AcDbLine
 10
2.058014
 20
-2.323110
 30
0.0
 11
2.156986
 21
-2.858570
 31
0.0
  0
LINE
  5
113
100
AcDbEntity
  8
Layer_1
 62
7
100
AcDbLine
 10
2.156986
 20
-2.858570
 30
0.0
 11
1.907838
 21
-3.030556
 31
0.0
  0
LINE
  5
114
100
AcDbEntity
  8
Layer_1
 62
7
100
AcDbLine
 10
1.907838
 20
-3.030556
 30
0.0
 11
1.442276
 21
-2.748137
 31
0.0
  0
LINE
  5
115
100
AcDbEntity
  8
Layer_1
 62
7
100
AcDbLine
 10
1.442276
 20
-2.748137
 30
0.0
 11
1.316661
 21
-2.602312
 31
0.0
  0
LINE
  5
116
100
AcDbEntity
  8
Layer_1
 62
7
100
AcDbLine
 10
1.316661
 20
-2.602312
 30
0.0
 11
1.185597
 21
-2.343289
 31
0.0
  0
LINE
  5
117
100
AcDbEntity
  8
Layer_1
 62
7
100
AcDbLine
 10
1.185597
 20
-2.343289
 30
0.0
 11
0.666387
 21
-2.540195
 31
0.0
  0
LINE
  5
118
100
AcDbEntity
  8
Layer_1
 62
7
100
AcDbLine
 10
0.666387
 20
-2.540195
 30
0.0
 11
0.740053
 21
-2.821006
 31
0.0
  0
LINE
  5
119
100
AcDbEntity
  8
Layer_1
 62
7
100
AcDbLine
 10
0.740053
 20
-2.821006
 30
0.0
 11
0.742734
 21
-3.013454
 31
0.0
  0
LINE
  5
11a
100
AcDbEntity
  8
Layer_1
 62
7
100
AcDbLine
 10
0.742734
 20
-3.013454
 30
0.0
 11
0.581534
 21
-3.533561
 31
0.0
  0
LINE
  5
11b
100
AcDbEntity
  8
Layer_1
 62
7
100
AcDbLine
 10
0.581534
 20
-3.533561
 30
0.0
 11
0.281002
 21
-3.570052
 31
0.0
  0
LINE
  5
11c
100
AcDbEntity
  8
Layer_1
 62
7
100
AcDbLine
 10
0.281002
 20
-3.570052
 30
0.0
 11
0.000013
 21
-3.103624
 31
0.0
  0
LINE
  5
11d
100
AcDbEntity
  8
Layer_1
 62
7
100
AcDbLine
 10
0.000013
 20
-3.103624
 30
0.0
 11
-0.043452
 21
-2.916143
 31
0.0
  0
LINE
  5
11e
100
AcDbEntity
  8
Layer_1
 62
7
100
AcDbLine
 10
-0.043452
 20
-2.916143
 30
0.0
 11
-0.039126
 21
-2.625878
 31
0.0
  0
LINE
  5
11f
100
AcDbEntity
  8
Layer_1
 62
7
100
AcDbLine
 10
-0.039126
 20
-2.625878
 30
0.0
 11
-0.590374
 21
-2.558935
 31
0.0
  0
LINE
  5
120
100
AcDbEntity
  8
Layer_1
 62
7
100
AcDbLine
 10
-0.590374
 20
-2.558935
 30
0.0
 11
-0.655637
 21
-2.841806
 31
0.0
  0
LINE
  5
121
100
AcDbEntity
  8
Layer_1
 62
7
100
AcDbLine
 10
-0.655637
 20
-2.841806
 30
0.0
 11
-0.742709
 21
-3.013454
 31
0.0
  0
LINE
  5
122
100
AcDbEntity
  8
Layer_1
 62
7
100
AcDbLine
 10
-0.742709
 20
-3.013454
 30
0.0
 11
-1.127155
 21
-3.399082
 31
0.0
  0
LINE
  5
123
100
AcDbEntity
  8
Layer_1
 62
7
100
AcDbLine
 10
-1.127155
 20
-3.399082
 30
0.0
 11
-1.410221
 21
-3.291725
 31
0.0
  0
LINE
  5
124
100
AcDbEntity
  8
Layer_1
 62
7
100
AcDbLine
 10
-1.410221
 20
-3.291725
 30
0.0
 11
-1.442264
 21
-2.748137
 31
0.0
  0
LINE
  5
125
100
AcDbEntity
  8
Layer_1
 62
7
100
AcDbLine
 10
-1.442264
 20
-2.748137
 30
0.0
 11
-1.393620
 21
-2.561926
 31
0.0
  0
LINE
  5
126
100
AcDbEntity
  8
Layer_1
 62
7
100
AcDbLine
 10
-1.393620
 20
-2.561926
 30
0.0
 11
-1.254897
 21
-2.306910
 31
0.0
  0
LINE
  5
127
100
AcDbEntity
  8
Layer_1
 62
7
100
AcDbLine
 10
-1.254897
 20
-2.306910
 30
0.0
 11
-1.711896
 21
-1.991471
 31
0.0
  0
LINE
  5
128
100
AcDbEntity
  8
Layer_1
 62
7
100
AcDbLine
 10
-1.711896
 20
-1.991471
 30
0.0
 11
-1.901141
 21
-2.211604
 31
0.0
  0
LINE
  5
129
100
AcDbEntity
  8
Layer_1
 62
7
100
AcDbLine
 10
-1.901141
 20
-2.211604
 30
0.0
 11
-2.058002
 21
-2.323138
 31
0.0
  0
LINE
  5
12a
100
AcDbEntity
  8
Layer_1
 62
7
100
AcDbLine
 10
-2.058002
 20
-2.323138
 30
0.0
 11
-2.577622
 21
-2.485924
 31
0.0
  0
LINE
  5
12b
100
AcDbEntity
  8
Layer_1
 62
7
100
AcDbLine
 10
-2.577622
 20
-2.485924
 30
0.0
 11
-2.778375
 21
-2.259328
 31
0.0
  0
LINE
  5
12c
100
AcDbEntity
  8
Layer_1
 62
7
100
AcDbLine
 10
-2.778375
 20
-2.259328
 30
0.0
 11
-2.554135
 21
-1.763096
 31
0.0
  0
LINE
  5
12d
100
AcDbEntity
  8
Layer_1
 62
7
100
AcDbLine
 10
-2.554135
 20
-1.763096
 30
0.0
 11
-2.424524
 21
-1.620828
 31
0.0
  0
LINE
  5
12e
100
AcDbEntity
  8
Layer_1
 62
7
100
AcDbLine
 10
-2.424524
 20
-1.620828
 30
0.0
 11
-2.183182
 21
-1.459510
 31
0.0
  0
LINE
  5
12f
100
AcDbEntity
  8
Layer_1
 62
7
100
AcDbLine
 10
-2.183182
 20
-1.459510
 30
0.0
 11
-2.441240
 21
-0.967822
 31
0.0
  0
LINE
  5
130
100
AcDbEntity
  8
Layer_1
 62
7
100
AcDbLine
 10
-2.441240
 20
-0.967822
 30
0.0
 11
-2.711113
 21
-1.074785
 31
0.0
  0
LINE
  5
131
100
AcDbEntity
  8
Layer_1
 62
7
100
AcDbLine
 10
-2.711113
 20
-1.074785
 30
0.0
 11
-2.901830
 21
-1.100749
 31
0.0
  0
LINE
  5
132
100
AcDbEntity
  8
Layer_1
 62
7
100
AcDbLine
 10
-2.901830
 20
-1.100749
 30
0.0
 11
-3.437584
 21
-1.003411
 31
0.0
  0
LINE
  5
133
100
AcDbEntity
  8
Layer_1
 62
7
100
AcDbLine
 10
-3.437584
 20
-1.003411
 30
0.0
 11
-3.510033
 21
-0.709476
 31
0.0
  0
LINE
  5
134
100
AcDbEntity
  8
Layer_1
 62
7
100
AcDbLine
 10
-3.510033
 20
-0.709476
 30
0.0
 11
-3.080880
 21
-0.374309
 31
0.0
  0
LINE
  5
135
100
AcDbEntity
  8
Layer_1
 62
7
100
AcDbLine
 10
-3.080880
 20
-0.374309
 30
0.0
 11
-2.899998
 21
-0.308579
 31
0.0
  0
LINE
  5
136
100
AcDbEntity
  8
Layer_1
 62
7
100
AcDbLine
 10
-2.899998
 20
-0.308579
 30
0.0
 11
-2.611325
 21
-0.277874
 31
0.0
  0
LINE
  5
137
100
AcDbEntity
  8
Layer_1
 62
7
100
AcDbLine
 10
-2.611325
 20
-0.277874
 30
0.0
 11
-2.611325
 21
0.277427
 31
0.0
  0
LINE
  5
138
100
AcDbEntity
  8
Layer_1
 62
7
100
AcDbLine
 10
-2.611325
 20
0.277427
 30
0.0
 11
-2.899998
 21
0.308104
 31
0.0
  0
LINE
  5
139
100
AcDbEntity
  8
Layer_1
 62
7
100
AcDbLine
 10
-2.899998
 20
0.308104
 30
0.0
 11
-3.080880
 21
0.373862
 31
0.0
  0
LINE
  5
13a
100
AcDbEntity
  8
Layer_1
 62
7
100
AcDbLine
 10
-3.080880
 20
0.373862
 30
0.0
 11
-3.510033
 21
0.709029
 31
0.0
  0
LINE
  5
13b
100
AcDbEntity
  8
Layer_1
 62
7
100
AcDbLine
 10
-3.510033
 20
0.709029
 30
0.0
 11
-3.437584
 21
1.002964
 31
0.0
  0
LINE
  5
13c
100
AcDbEntity
  8
Layer_1
 62
7
100
AcDbLine
 10
-3.437584
 20
1.002964
 30
0.0
 11
-2.901830
 21
1.100302
 31
0.0
  0
LINE
  5
13d
100
AcDbEntity
  8
Layer_1
 62
7
100
AcDbLine
 10
-2.901830
 20
1.100302
 30
0.0
 11
-2.711113
 21
1.074338
 31
0.0
  0
LINE
  5
13e
100
AcDbEntity
  8
Layer_1
 62
7
100
AcDbLine
 10
-2.711113
 20
1.074338
 30
0.0
 11
-2.441240
 21
0.967347
 31
0.0
  0
LINE
  5
13f
100
AcDbEntity
  8
Layer_1
 62
7
100
AcDbLine
 10
-2.441240
 20
0.967347
 30
0.0
 11
-2.183182
 21
1.459035
 31
0.0
  0
LINE
  5
140
100
AcDbEntity
  8
Layer_1
 62
7
100
AcDbLine
 10
-2.183182
 20
1.459035
 30
0.0
 11
-2.424524
 21
1.620381
 31
0.0
  0
LINE
  5
141
100
AcDbEntity
  8
Layer_1
 62
7
100
AcDbLine
 10
-2.424524
 20
1.620381
 30
0.0
 11
-2.554135
 21
1.762649
 31
0.0
  0
LINE
  5
142
100
AcDbEntity
  8
Layer_1
 62
7
100
AcDbLine
 10
-2.554135
 20
1.762649
 30
0.0
 11
-2.778375
 21
2.258853
 31
0.0
  0
LINE
  5
143
100
AcDbEntity
  8
Layer_1
 62
7
100
AcDbLine
 10
-2.778375
 20
2.258853
 30
0.0
 11
-2.577622
 21
2.485477
 31
0.0
  0
LINE
  5
144
100
AcDbEntity
  8
Layer_1
 62
7
100
AcDbLine
 10
-2.577622
 20
2.485477
 30
0.0
 11
-2.058002
 21
2.322663
 31
0.0
  0
LINE
  5
145
100
AcDbEntity
  8
Layer_1
 62
7
100
AcDbLine
 10
-2.058002
 20
2.322663
 30
0.0
 11
-1.901141
 21
2.211157
 31
0.0
  0
LINE
  5
146
100
AcDbEntity
  8
Layer_1
 62
7
100
AcDbLine
 10
-1.901141
 20
2.211157
 30
0.0
 11
-1.711896
 21
1.991024
 31
0.0
  0
LINE
  5
147
100
AcDbEntity
  8
Layer_1
 62
7
100
AcDbLine
 10
-1.711896
 20
1.991024
 30
0.0
 11
-1.254897
 21
2.306463
 31
0.0
  0
LINE
  5
148
100
AcDbEntity
  8
Layer_1
 62
7
100
AcDbLine
 10
-1.254897
 20
2.306463
 30
0.0
 11
-1.393620
 21
2.561479
 31
0.0
  0
LINE
  5
149
100
AcDbEntity
  8
Layer_1
 62
7
100
AcDbLine
 10
-1.393620
 20
2.561479
 30
0.0
 11
-1.442264
 21
2.747690
 31
0.0
  0
LINE
  5
14a
100
AcDbEntity
  8
Layer_1
 62
7
100
AcDbLine
 10
-1.442264
 20
2.747690
 30
0.0
 11
-1.410221
 21
3.291250
 31
0.0
  0
LINE
  5
14b
100
AcDbEntity
  8
Layer_1
 62
7
100
AcDbLine
 10
-1.410221
 20
3.291250
 30
0.0
 11
-1.127155
 21
3.398607
 31
0.0
  0
LINE
  5
14c
100
AcDbEntity
  8
Layer_1
 62
7
100
AcDbLine
 10
-1.127155
 20
3.398607
 30
0.0
 11
-0.742709
 21
3.012979
 31
0.0
  0
LINE
  5
14d
100
AcDbEntity
  8
Layer_1
 62
7
100
AcDbLine
 10
-0.742709
 20
3.012979
 30
0.0
 11
-0.655637
 21
2.841359
 31
0.0
  0
LINE
  5
14e
100
AcDbEntity
  8
Layer_1
 62
7
100
AcDbLine
 10
-0.655637
 20
2.841359
 30
0.0
 11
-0.590374
 21
2.558488
 31
0.0
  0
LINE
  5
14f
100
AcDbEntity
  8
Layer_1
 62
7
100
AcDbLine
 10
-0.590374
 20
2.558488
 30
0.0
 11
-0.039126
 21
2.625403
 31
0.0
  0
LINE
  5
150
100
AcDbEntity
  8
Layer_1
 62
7
100
AcDbLine
 10
-0.039126
 20
2.625403
 30
0.0
 11
-0.043452
 21
2.915697
 31
0.0
  0
LINE
  5
151
100
AcDbEntity
  8
Layer_1
 62
7
100
AcDbLine
 10
-0.043452
 20
2.915697
 30
0.0
 11
0.000013
 21
3.103177
 31
0.0
  0
LINE
  5
152
100
AcDbEntity
  8
Layer_1
 62
7
100
AcDbLine
 10
0.000013
 20
3.103177
 30
0.0
 11
0.281002
 21
3.569605
 31
0.0
  0
LINE
  5
153
100
AcDbEntity
  8
Layer_1
 62
7
100
AcDbLine
 10
0.281002
 20
3.569605
 30
0.0
 11
0.581534
 21
3.533114
 31
0.0
  0
LINE
  5
154
100
AcDbEntity
  8
Layer_1
 62
7
100
AcDbLine
 10
0.581534
 20
3.533114
 30
0.0
 11
0.742734
 21
3.012979
 31
0.0
  0
LINE
  5
155
100
AcDbEntity
  8
Layer_1
 62
7
100
AcDbLine
 10
0.742734
 20
3.012979
 30
0.0
 11
0.740053
 21
2.820559
 31
0.0
  0
LINE
  5
156
100
AcDbEntity
  8
Layer_1
 62
7
100
AcDbLine
 10
0.740053
 20
2.820559
 30
0.0
 11
0.666387
 21
2.539748
 31
0.0
  0
LINE
  5
157
100
AcDbEntity
  8
Layer_1
 62
7
100
AcDbLine
 10
0.666387
 20
2.539748
 30
0.0
 11
1.185597
 21
2.342842
 31
0.0
  0
LINE
  5
158
100
AcDbEntity
  8
Layer_1
 62
7
100
AcDbLine
 10
1.185597
 20
2.342842
 30
0.0
 11
1.316661
 21
2.601865
 31
0.0
  0
LINE
  5
159
100
AcDbEntity
  8
Layer_1
 62
7
100
AcDbLine
 10
1.316661
 20
2.601865
 30
0.0
 11
1.442276
 21
2.747690
 31
0.0
  0
LINE
  5
15a
100
AcDbEntity
  8
Layer_1
 62
7
100
AcDbLine
 10
1.442276
 20
2.747690
 30
0.0
 11
1.907838
 21
3.030109
 31
0.0
  0
LINE
  5
15b
100
AcDbEntity
  8
Layer_1
 62
7
100
AcDbLine
 10
1.907838
 20
3.030109
 30
0.0
 11
2.156986
 21
2.858123
 31
0.0
  0
LINE
  5
15c
100
AcDbEntity
  8
Layer_1
 62
7
100
AcDbLine
 10
2.156986
 20
2.858123
 30
0.0
 11
2.058014
 21
2.322663
 31
0.0
  0
LINE
  5
15d
100
AcDbEntity
  8
Layer_1
 62
7
100
AcDbLine
 10
2.058014
 20
2.322663
 30
0.0
 11
1.966218
 21
2.153499
 31
0.0
  0
LINE
  5
15e
100
AcDbEntity
  8
Layer_1
 62
7
100
AcDbLine
 10
1.966218
 20
2.153499
 30
0.0
 11
1.770497
 21
1.939123
 31
0.0
  0
LINE
  5
15f
100
AcDbEntity
  8
Layer_1
 62
7
100
AcDbLine
 10
1.770497
 20
1.939123
 30
0.0
 11
2.138727
 21
1.523466
 31
0.0
  0
LINE
  5
160
100
AcDbEntity
  8
Layer_1
 62
7
100
AcDbLine
 10
2.138727
 20
1.523466
 30
0.0
 11
2.375155
 21
1.691925
 31
0.0
  0
LINE
  5
161
100
AcDbEntity
  8
Layer_1
 62
7
100
AcDbLine
 10
2.375155
 20
1.691925
 30
0.0
 11
2.554146
 21
1.762649
 31
0.0
  0
LINE
  5
162
100
AcDbEntity
  8
Layer_1
 62
7
100
AcDbLine
 10
2.554146
 20
1.762649
 30
0.0
 11
3.097625
 21
1.796375
 31
0.0
  0
LINE
  5
163
100
AcDbEntity
  8
Layer_1
 62
7
100
AcDbLine
 10
3.097625
 20
1.796375
 30
0.0
 11
3.238315
 21
1.528292
 31
0.0
  0
LINE
  5
164
100
AcDbEntity
  8
Layer_1
 62
7
100
AcDbLine
 10
3.238315
 20
1.528292
 30
0.0
 11
2.901841
 21
1.100161
 31
0.0
  0
LINE
  5
165
100
AcDbEntity
  8
Layer_1
 62
7
100
AcDbLine
 10
2.901841
 20
1.100161
 30
0.0
 11
2.741948
 21
0.993058
 31
0.0
  0
LINE
  5
166
100
AcDbEntity
  8
Layer_1
 62
7
100
AcDbLine
 10
2.741948
 20
0.993058
 30
0.0
 11
2.469011
 21
0.894167
 31
0.0
  0
LINE
  5
167
100
AcDbEntity
  8
Layer_1
 62
7
100
AcDbLine
 10
2.469011
 20
0.894167
 30
0.0
 11
2.601901
 21
0.355348
 31
0.0
  0
ENDSEC
  0
SECTION
  2
OBJECTS
  0
DICTIONARY
  5
C
330
0
100
AcDbDictionary
  3
ACAD_GROUP
350
D
  3
ACAD_MLINESTYLE
350
17
  0
DICTIONARY
  5
D
330
C
100
AcDbDictionary
  0
DICTIONARY
  5
1A
330
C
100
AcDbDictionary
  0
DICTIONARY
  5
17
330
C
100
AcDbDictionary
  3
STANDARD
350
18
  0
DICTIONARY
  5
19
330
C
100
AcDbDictionary
  0
ENDSEC
  0
EOF
