<?xml version="1.0" encoding="UTF-8" standalone="no"?>
<!-- Created with Inkscape (http://www.inkscape.org/) -->

<svg
   xmlns:dc="http://purl.org/dc/elements/1.1/"
   xmlns:cc="http://creativecommons.org/ns#"
   xmlns:rdf="http://www.w3.org/1999/02/22-rdf-syntax-ns#"
   xmlns:svg="http://www.w3.org/2000/svg"
   xmlns="http://www.w3.org/2000/svg"
   xmlns:sodipodi="http://sodipodi.sourceforge.net/DTD/sodipodi-0.dtd"
   xmlns:inkscape="http://www.inkscape.org/namespaces/inkscape"
   width="210mm"
   height="297mm"
   viewBox="0 0 744.09448819 1052.3622047"
   id="svg2"
   version="1.1"
   inkscape:version="0.48.4 r9939"
   sodipodi:docname="contact-plates.svg">
  <defs
     id="defs4" />
  <sodipodi:namedview
     id="base"
     pagecolor="#ffffff"
     bordercolor="#666666"
     borderopacity="1.0"
     inkscape:pageopacity="0.0"
     inkscape:pageshadow="2"
     inkscape:zoom="6.3356768"
     inkscape:cx="109.12525"
     inkscape:cy="609.57278"
     inkscape:document-units="mm"
     inkscape:current-layer="layer1"
     showgrid="true"
     inkscape:window-width="1301"
     inkscape:window-height="744"
     inkscape:window-x="65"
     inkscape:window-y="24"
     inkscape:window-maximized="1"
     inkscape:snap-bbox="true"
     inkscape:bbox-nodes="true"
     inkscape:object-nodes="true"
     showguides="true"
     inkscape:guide-bbox="true"
     inkscape:snap-smooth-nodes="false"
     inkscape:snap-midpoints="false"
     inkscape:snap-global="true">
    <inkscape:grid
       type="xygrid"
       id="grid3336"
       units="mm"
       spacingx="1.7716536"
       spacingy="1.7716536"
       dotted="true"
       empspacing="10" />
    <inkscape:grid
       type="xygrid"
       id="grid5100"
       units="mm"
       spacingx="3.5433071"
       spacingy="3.5433072" />
    <sodipodi:guide
       position="263.97639,53.149608"
       orientation="0,1"
       id="guide4174" />
    <sodipodi:guide
       position="280.7687,53.669086"
       orientation="0,1"
       id="guide4180" />
    <sodipodi:guide
       position="17.716536,92.125987"
       orientation="1,0"
       id="guide4184" />
    <sodipodi:guide
       position="46.062992,187.79528"
       orientation="0,1"
       id="guide4224" />
    <sodipodi:guide
       position="74.409449,223.22835"
       orientation="0,1"
       id="guide4256" />
    <sodipodi:guide
       position="70.866142,226.77166"
       orientation="0,1"
       id="guide4258" />
    <sodipodi:guide
       position="63.779528,262.20473"
       orientation="0,1"
       id="guide4260" />
    <sodipodi:guide
       position="239.17324,279.92127"
       orientation="0,1"
       id="guide4262" />
    <sodipodi:guide
       position="53.149606,364.96064"
       orientation="0,1"
       id="guide4183" />
    <sodipodi:guide
       position="317.12599,65.551183"
       orientation="0,1"
       id="guide4206" />
    <sodipodi:guide
       position="476.57482,166.53544"
       orientation="0,1"
       id="guide4204" />
    <sodipodi:guide
       position="46.062992,478.34647"
       orientation="0,1"
       id="guide4225" />
    <sodipodi:guide
       position="67.322837,460.62994"
       orientation="0,1"
       id="guide4242" />
    <sodipodi:guide
       position="46.062992,403.93702"
       orientation="0,1"
       id="guide4244" />
    <sodipodi:guide
       position="70.866144,425.19686"
       orientation="1,0"
       id="guide4250" />
    <sodipodi:guide
       position="143.50394,411.02364"
       orientation="1,0"
       id="guide4285" />
    <sodipodi:guide
       position="168.30709,396.85041"
       orientation="1,0"
       id="guide4287" />
    <sodipodi:guide
       position="225.00001,396.85041"
       orientation="1,0"
       id="guide4289" />
    <sodipodi:guide
       position="200.19686,391.53545"
       orientation="1,0"
       id="guide4291" />
    <sodipodi:guide
       position="145.27559,550.98427"
       orientation="0,1"
       id="guide4230" />
    <sodipodi:guide
       position="244.48819,506.69293"
       orientation="0,1"
       id="guide4232" />
    <sodipodi:guide
       position="88.58268,597.04726"
       orientation="0,1"
       id="guide4234" />
    <sodipodi:guide
       position="120.47244,602.36222"
       orientation="0,1"
       id="guide4236" />
    <sodipodi:guide
       position="258.66142,526.18112"
       orientation="0,1"
       id="guide4253" />
    <sodipodi:guide
       position="256.88977,531.49608"
       orientation="0,1"
       id="guide4255" />
  </sodipodi:namedview>
  <metadata
     id="metadata7">
    <rdf:RDF>
      <cc:Work
         rdf:about="">
        <dc:format>image/svg+xml</dc:format>
        <dc:type
           rdf:resource="http://purl.org/dc/dcmitype/StillImage" />
        <dc:title />
      </cc:Work>
    </rdf:RDF>
  </metadata>
  <g
     inkscape:label="Layer 1"
     inkscape:groupmode="layer"
     id="layer1">
    <path
       style="fill:#2b2200;fill-opacity:1;stroke:none;stroke-width:1.77165353;stroke-linejoin:round;stroke-miterlimit:4;stroke-dasharray:none;stroke-dashoffset:8;stroke-opacity:1"
       d="M 155.90625 974.41016 L 155.90625 985.03906 L 162.99219 985.03906 L 162.99219 995.66992 L 155.90625 995.66992 L 155.90625 1006.2988 L 162.99219 1006.2988 L 191.33789 1006.2988 L 198.42578 1006.2988 L 198.42578 995.66992 L 191.33789 995.66992 L 191.33789 985.03906 L 198.42578 985.03906 L 198.42578 974.41016 L 191.33789 974.41016 L 162.99219 974.41016 L 155.90625 974.41016 z M 177.16602 986.81055 A 5.3149605 5.3149605 0 0 1 182.48047 992.125 A 5.3149605 5.3149605 0 0 1 177.16602 997.44141 A 5.3149605 5.3149605 0 0 1 171.84961 992.125 A 5.3149605 5.3149605 0 0 1 177.16602 986.81055 z "
       id="rect4962-4" />
    <path
       inkscape:connector-curvature="0"
       style="fill:#aad400;fill-opacity:1;stroke:none;stroke-width:1.77165353;stroke-linejoin:round;stroke-miterlimit:4;stroke-dasharray:none;stroke-dashoffset:8;stroke-opacity:1"
       d="m 19.488742,772.44139 4.1e-4,17.71654 -1.77165,0 0,35.43307 1.77165,0 0,3.54331 -1.77165,0 -9.7e-4,35.43262 3.54331,0 5.4e-4,21.26029 7.08661,0 -5.4e-4,-21.26029 46.062981,0 5.6e-4,21.26029 7.08662,0 -5.6e-4,-21.26029 3.54273,0 0.002,-35.43262 -1.77165,0 0,-3.54331 1.77165,0 -5.5e-4,-35.43307 -14.17187,0 -8.1e-4,35.43307 1.77166,0 0,3.54331 -1.77166,0 -1.9e-4,10.62992 -38.976551,0 3.6e-4,-10.62992 -1.77165,0 0,-3.54331 1.77165,0 -4.4e-4,-35.43307 -1.77166,0 -4.1e-4,-17.71654 z"
       id="rect3338-3-9"
       sodipodi:nodetypes="ccccccccccccccccccccccccccccccccccccc" />
    <path
       style="fill:#aad400;fill-opacity:1;stroke:none"
       d="m 19.488281,574.01562 0,17.7168 -1.771484,0 0,35.4336 1.771388,-6.9e-4 -0.002,21.78515 c -5.25218,1.5653 -7.080841,6.39323 -7.085841,11.87374 l 0.002,12.4043 7.085937,0 -0.002,-12.4043 c 0.0013,-2.91981 2.358758,-5.29111 5.320313,-5.28711 2.961555,0.004 5.307593,2.3734 5.308593,5.28711 l 0.0039,12.4043 7.085937,0 0,-12.4043 c -0.0024,-5.48211 -1.833427,-10.3129 -7.086917,-11.8796 l 0,-21.77929 1.772464,6.9e-4 0,-35.4336 -1.771484,0 -0.002,-17.7168 z"
       id="rect3338-3-9-7"
       inkscape:connector-curvature="0"
       sodipodi:nodetypes="cccccccccccccccccccccc" />
    <path
       style="fill:#aad400;fill-opacity:1;stroke:none"
       d="m 70.866313,591.73227 0,35.4336 1.771481,-5.4e-4 -0.002,21.78515 c -5.25218,1.5653 -7.080934,6.39308 -7.085934,11.87359 l 0.002,12.4043 7.085937,0 -0.002,-12.4043 c 0.0013,-2.91981 2.358758,-5.29111 5.320313,-5.28711 2.961555,0.004 5.307593,2.3734 5.308593,5.28711 l 0.0039,12.4043 7.085937,0 0,-12.4043 c -0.0024,-5.48211 -1.833334,-10.31275 -7.086824,-11.87945 l 0,-21.77929 1.772371,5.4e-4 0,-35.4336 z"
       id="rect3338-3-9-7-8"
       inkscape:connector-curvature="0"
       sodipodi:nodetypes="cccccccccccccccccc" />
    <path
       style="fill:#ff7f2a;fill-opacity:1;stroke:none"
       d="M 37.21875 423.4375 L 37.21875 430.5 L 49.625 430.5 C 52.54481 430.501 54.91025 432.88219 54.90625 435.84375 C 54.90225 438.8053 52.53871 441.124 49.625 441.125 L 37.21875 441.15625 L 37.21875 448.21875 L 49.625 448.21875 C 55.10711 448.21675 59.9333 446.40974 61.5 441.15625 L 77.9375 441.15625 L 77.9375 446.46875 L 74.40625 446.46875 L 74.40625 450 L 76.1875 450 L 76.1875 455.3125 L 74.40625 455.3125 L 74.40625 458.84375 L 77.9375 458.84375 L 77.9375 481.875 L 85.03125 481.875 L 85.03125 474.8125 L 86.8125 474.8125 L 86.8125 481.875 L 93.90625 481.875 L 93.90625 474.8125 L 95.65625 474.8125 L 95.65625 481.875 L 102.75 481.875 L 102.75 474.8125 L 104.53125 474.8125 L 104.53125 481.875 L 111.625 481.875 L 111.625 474.8125 L 113.375 474.8125 L 113.375 481.875 L 120.46875 481.875 L 120.46875 458.84375 L 124 458.84375 L 124.03125 455.3125 L 122.25 455.3125 L 122.25 450 L 124.03125 450 L 124 446.46875 L 120.46875 446.46875 L 120.46875 423.4375 L 113.375 423.4375 L 113.375 430.5 L 111.625 430.5 L 111.625 423.4375 L 104.53125 423.4375 L 104.53125 430.5 L 102.75 430.5 L 102.75 423.4375 L 95.65625 423.4375 L 95.65625 430.5 L 93.90625 430.5 L 93.90625 423.4375 L 86.8125 423.4375 L 86.8125 430.5 L 85.03125 430.5 L 85.03125 423.4375 L 77.9375 423.4375 L 77.9375 430.5 L 61.46875 430.5 C 59.90345 425.24782 55.10551 423.4425 49.625 423.4375 L 37.21875 423.4375 z "
       transform="translate(-4.9229925e-6,0)"
       id="rect4322-8" />
    <path
       inkscape:connector-curvature="0"
       style="fill:#2b2200;fill-opacity:1;stroke:none"
       d="m 159.45073,418.11171 0,10.6289 7.08594,0 0,10.63086 -7.08594,0 0,10.62888 7.08594,0 28.3457,0 7.08789,0 0,-10.62888 -7.08789,0 0,-10.63086 7.08789,0 0,-10.6289 -7.08789,0 -28.3457,0 -7.08594,0 z m 21.25977,12.40039 a 5.3149607,5.3149607 0 0 1 5.31445,5.31445 5.3149607,5.3149607 0 0 1 -5.31445,5.31641 5.3149607,5.3149607 0 0 1 -5.31641,-5.31641 5.3149607,5.3149607 0 0 1 5.31641,-5.31445 z"
       id="rect4962-4-7-4" />
    <path
       style="fill:#ff7f2a;fill-opacity:1;stroke:none"
       d="m 205.5123,450.00048 0,8.85827 3.54331,0 0,23.0315 7.08593,0 -0.002,-7.08594 1.77149,0 0.002,7.08594 7.08789,0 -0.002,-7.08594 1.77148,0 0.002,7.08594 7.08594,0 -0.002,-7.08594 1.77148,0 0.002,7.08594 7.08789,0 -0.002,-7.08594 1.77149,0 0.002,7.08594 7.08594,0 0,-23.03125 3.54297,0 0,-12.40234 -3.54297,0 0,-23.03125 -7.08594,0 -0.002,7.08789 -1.77149,0 0.002,-7.08789 -7.08789,0 -0.002,7.08789 -1.77148,0 0.002,-7.08789 -7.08594,0 -0.002,7.08789 -1.77148,0 0.002,-7.08789 -7.08789,0 -0.002,7.08789 -1.77149,0 0.002,-7.08789 -7.08593,0 -7.1e-4,19.48955 -14.17346,-0.001 -42.51882,3.5417 -3.54297,0 0,12.40234 3.54297,0 42.51902,-0.0221 3.54405,0.0228 0,-8.85827 z"
       id="rect4322-8-8"
       inkscape:connector-curvature="0"
       sodipodi:nodetypes="ccccccccccccccccccccccccccccccccccccccccccccccccccccc" />
    <path
       style="fill:#aad400;fill-opacity:1;stroke:none"
       d="m 249.80417,428.739 -35.4336,0 0,3.54492 -21.78515,-0.002 c -1.5653,-5.25218 -6.39254,-8.85437 -11.87305,-8.85937 l -12.4043,0.002 0,7.08593 12.4043,-0.002 c 2.91981,10e-4 5.29111,2.35876 5.28711,5.32032 -0.004,2.96155 -2.3734,5.30759 -5.28711,5.30859 l -12.4043,0.004 0,7.08594 12.4043,0 c 5.48211,-0.002 10.31221,-3.60394 11.87891,-8.85743 l 21.77929,0 0,3.54297 35.4336,0 z"
       id="rect3338-3-9-7-8-9-9"
       inkscape:connector-curvature="0"
       sodipodi:nodetypes="cccccccccccccccccc" />
  </g>
</svg>
