solid OpenSCAD_Model
  facet normal -0.987688 0 0.156435
    outer loop
      vertex 11 -9 -28
      vertex 11.0734 0 -27.5365
      vertex 11 0 -28
    endloop
  endfacet
  facet normal -0.987688 0 0.156435
    outer loop
      vertex 11.0734 0 -27.5365
      vertex 11 -9 -28
      vertex 11.0734 -9 -27.5365
    endloop
  endfacet
  facet normal 0.156436 0 0.987688
    outer loop
      vertex 12.5 0 -26.5
      vertex 12.9635 -9 -26.5734
      vertex 12.9635 0 -26.5734
    endloop
  endfacet
  facet normal 0.156436 0 0.987688
    outer loop
      vertex 12.9635 -9 -26.5734
      vertex 12.5 0 -26.5
      vertex 12.5 -9 -26.5
    endloop
  endfacet
  facet normal -0.156436 0 -0.987688
    outer loop
      vertex 12.0365 -9 -29.4266
      vertex 12.5 0 -29.5
      vertex 12.5 -9 -29.5
    endloop
  endfacet
  facet normal -0.156436 0 -0.987688
    outer loop
      vertex 12.5 0 -29.5
      vertex 12.0365 -9 -29.4266
      vertex 12.0365 0 -29.4266
    endloop
  endfacet
  facet normal 0.453988 0 0.891008
    outer loop
      vertex 12.9635 0 -26.5734
      vertex 13.25 -9 -26.7194
      vertex 13.25 0 -26.7194
    endloop
  endfacet
  facet normal 0.453988 0 0.891008
    outer loop
      vertex 13.25 -9 -26.7194
      vertex 12.9635 0 -26.5734
      vertex 12.9635 -9 -26.5734
    endloop
  endfacet
  facet normal -0.453989 0 0.891007
    outer loop
      vertex 11.6183 0 -26.7865
      vertex 12.0365 -9 -26.5734
      vertex 12.0365 0 -26.5734
    endloop
  endfacet
  facet normal -0.453989 0 0.891007
    outer loop
      vertex 12.0365 -9 -26.5734
      vertex 11.6183 0 -26.7865
      vertex 11.6183 -9 -26.7865
    endloop
  endfacet
  facet normal -0.707108 0 0.707106
    outer loop
      vertex 11.2865 -9 -27.1183
      vertex 11.6183 0 -26.7865
      vertex 11.2865 0 -27.1183
    endloop
  endfacet
  facet normal -0.707108 0 0.707106
    outer loop
      vertex 11.6183 0 -26.7865
      vertex 11.2865 -9 -27.1183
      vertex 11.6183 -9 -26.7865
    endloop
  endfacet
  facet normal -0.156436 0 0.987688
    outer loop
      vertex 12.0365 0 -26.5734
      vertex 12.5 -9 -26.5
      vertex 12.5 0 -26.5
    endloop
  endfacet
  facet normal -0.156436 0 0.987688
    outer loop
      vertex 12.5 -9 -26.5
      vertex 12.0365 0 -26.5734
      vertex 12.0365 -9 -26.5734
    endloop
  endfacet
  facet normal -0.707106 0 -0.707108
    outer loop
      vertex 11.2865 -9 -28.8817
      vertex 11.6183 0 -29.2135
      vertex 11.6183 -9 -29.2135
    endloop
  endfacet
  facet normal -0.707106 0 -0.707108
    outer loop
      vertex 11.6183 0 -29.2135
      vertex 11.2865 -9 -28.8817
      vertex 11.2865 0 -28.8817
    endloop
  endfacet
  facet normal -0.987688 0 -0.156436
    outer loop
      vertex 11.0734 -9 -28.4635
      vertex 11 0 -28
      vertex 11.0734 0 -28.4635
    endloop
  endfacet
  facet normal -0.987688 -0 -0.156436
    outer loop
      vertex 11 0 -28
      vertex 11.0734 -9 -28.4635
      vertex 11 -9 -28
    endloop
  endfacet
  facet normal -0.891006 0 0.453991
    outer loop
      vertex 11.0734 -9 -27.5365
      vertex 11.2865 0 -27.1183
      vertex 11.0734 0 -27.5365
    endloop
  endfacet
  facet normal -0.891006 0 0.453991
    outer loop
      vertex 11.2865 0 -27.1183
      vertex 11.0734 -9 -27.5365
      vertex 11.2865 -9 -27.1183
    endloop
  endfacet
  facet normal 0 -1 0
    outer loop
      vertex 13.25 -9 -26.7194
      vertex 12.5 -9 -26.5
      vertex 12.0365 -9 -26.5734
    endloop
  endfacet
  facet normal 0 -1 0
    outer loop
      vertex 12.5 -9 -26.5
      vertex 13.25 -9 -26.7194
      vertex 12.9635 -9 -26.5734
    endloop
  endfacet
  facet normal 0 -1 0
    outer loop
      vertex 11.6183 -9 -26.7865
      vertex 13.25 -9 -26.7194
      vertex 12.0365 -9 -26.5734
    endloop
  endfacet
  facet normal 0 -1 0
    outer loop
      vertex 11.2865 -9 -27.1183
      vertex 13.25 -9 -26.7194
      vertex 11.6183 -9 -26.7865
    endloop
  endfacet
  facet normal 0 -1 0
    outer loop
      vertex 11.0734 -9 -27.5365
      vertex 13.25 -9 -26.7194
      vertex 11.2865 -9 -27.1183
    endloop
  endfacet
  facet normal 0 -1 0
    outer loop
      vertex 11 -9 -28
      vertex 13.25 -9 -26.7194
      vertex 11.0734 -9 -27.5365
    endloop
  endfacet
  facet normal 0 -1 0
    outer loop
      vertex 11.0734 -9 -28.4635
      vertex 13.25 -9 -26.7194
      vertex 11 -9 -28
    endloop
  endfacet
  facet normal 0 -1 0
    outer loop
      vertex 11.2865 -9 -28.8817
      vertex 13.25 -9 -26.7194
      vertex 11.0734 -9 -28.4635
    endloop
  endfacet
  facet normal 0 -1 0
    outer loop
      vertex 11.6183 -9 -29.2135
      vertex 13.25 -9 -26.7194
      vertex 11.2865 -9 -28.8817
    endloop
  endfacet
  facet normal 0 -1 0
    outer loop
      vertex 11.6183 -9 -29.2135
      vertex 13.25 -9 -29.2806
      vertex 13.25 -9 -26.7194
    endloop
  endfacet
  facet normal 0 -1 0
    outer loop
      vertex 12.0365 -9 -29.4266
      vertex 13.25 -9 -29.2806
      vertex 11.6183 -9 -29.2135
    endloop
  endfacet
  facet normal 0 -1 0
    outer loop
      vertex 12.5 -9 -29.5
      vertex 13.25 -9 -29.2806
      vertex 12.0365 -9 -29.4266
    endloop
  endfacet
  facet normal 0 -1 0
    outer loop
      vertex 13.25 -9 -29.2806
      vertex 12.5 -9 -29.5
      vertex 12.9635 -9 -29.4266
    endloop
  endfacet
  facet normal 0.156436 0 -0.987688
    outer loop
      vertex 12.5 -9 -29.5
      vertex 12.9635 0 -29.4266
      vertex 12.9635 -9 -29.4266
    endloop
  endfacet
  facet normal 0.156436 0 -0.987688
    outer loop
      vertex 12.9635 0 -29.4266
      vertex 12.5 -9 -29.5
      vertex 12.5 0 -29.5
    endloop
  endfacet
  facet normal -0.453992 0 -0.891006
    outer loop
      vertex 11.6183 -9 -29.2135
      vertex 12.0365 0 -29.4266
      vertex 12.0365 -9 -29.4266
    endloop
  endfacet
  facet normal -0.453992 0 -0.891006
    outer loop
      vertex 12.0365 0 -29.4266
      vertex 11.6183 -9 -29.2135
      vertex 11.6183 0 -29.2135
    endloop
  endfacet
  facet normal -0.891007 0 -0.45399
    outer loop
      vertex 11.2865 -9 -28.8817
      vertex 11.0734 0 -28.4635
      vertex 11.2865 0 -28.8817
    endloop
  endfacet
  facet normal -0.891007 -0 -0.45399
    outer loop
      vertex 11.0734 0 -28.4635
      vertex 11.2865 -9 -28.8817
      vertex 11.0734 -9 -28.4635
    endloop
  endfacet
  facet normal 0.453988 0 -0.891008
    outer loop
      vertex 12.9635 -9 -29.4266
      vertex 13.25 0 -29.2806
      vertex 13.25 -9 -29.2806
    endloop
  endfacet
  facet normal 0.453988 0 -0.891008
    outer loop
      vertex 13.25 0 -29.2806
      vertex 12.9635 -9 -29.4266
      vertex 12.9635 0 -29.4266
    endloop
  endfacet
  facet normal 1 -0 0
    outer loop
      vertex 13.25 -9 -26.7194
      vertex 13.25 0 -29.2806
      vertex 13.25 0 -26.7194
    endloop
  endfacet
  facet normal 1 0 0
    outer loop
      vertex 13.25 0 -29.2806
      vertex 13.25 -9 -26.7194
      vertex 13.25 -9 -29.2806
    endloop
  endfacet
  facet normal -1 0 0
    outer loop
      vertex 2.5 14 -28
      vertex 2.5 10.5 0
      vertex 2.5 14 2
    endloop
  endfacet
  facet normal -1 0 0
    outer loop
      vertex 2.5 14 -28
      vertex 2.5 3.5 0
      vertex 2.5 10.5 0
    endloop
  endfacet
  facet normal -1 0 0
    outer loop
      vertex 2.5 0 -28
      vertex 2.5 3.5 0
      vertex 2.5 14 -28
    endloop
  endfacet
  facet normal -1 0 0
    outer loop
      vertex 2.5 0 2
      vertex 2.5 3.5 0
      vertex 2.5 0 -28
    endloop
  endfacet
  facet normal -1 0 0
    outer loop
      vertex 2.5 3.5 0
      vertex 2.5 0 2
      vertex 2.5 3.5 2
    endloop
  endfacet
  facet normal -1 -0 0
    outer loop
      vertex 2.5 14 2
      vertex 2.5 10.5 0
      vertex 2.5 10.5 2
    endloop
  endfacet
  facet normal -1 0 0
    outer loop
      vertex 2.5 1.5 5
      vertex 2.5 3.5 20
      vertex 2.5 3.5 5
    endloop
  endfacet
  facet normal -1 -0 0
    outer loop
      vertex 2.5 3.5 20
      vertex 2.5 1.5 5
      vertex 2.5 1.5 20
    endloop
  endfacet
  facet normal -1 0 0
    outer loop
      vertex 2.5 10.5 5
      vertex 2.5 12.5 20
      vertex 2.5 12.5 5
    endloop
  endfacet
  facet normal -1 -0 0
    outer loop
      vertex 2.5 12.5 20
      vertex 2.5 10.5 5
      vertex 2.5 10.5 20
    endloop
  endfacet
  facet normal -0 0 1
    outer loop
      vertex 1 10.5 20
      vertex 2.5 3.5 20
      vertex 2.5 10.5 20
    endloop
  endfacet
  facet normal 0 0 1
    outer loop
      vertex 2.5 3.5 20
      vertex 1 10.5 20
      vertex 1 3.5 20
    endloop
  endfacet
  facet normal 0 0 1
    outer loop
      vertex 2.5 10.5 20
      vertex 22.5 10.5 20
      vertex 22.5 12.5 20
    endloop
  endfacet
  facet normal 0 0 1
    outer loop
      vertex 22.5 10.5 20
      vertex 2.5 10.5 20
      vertex 22.5 3.5 20
    endloop
  endfacet
  facet normal 0 0 1
    outer loop
      vertex 2.5 10.5 20
      vertex 22.5 12.5 20
      vertex 2.5 12.5 20
    endloop
  endfacet
  facet normal 0 0 1
    outer loop
      vertex 2.5 3.5 20
      vertex 22.5 3.5 20
      vertex 2.5 10.5 20
    endloop
  endfacet
  facet normal 0 0 1
    outer loop
      vertex 22.5 3.5 20
      vertex 2.5 3.5 20
      vertex 22.5 1.5 20
    endloop
  endfacet
  facet normal 0 0 1
    outer loop
      vertex 22.5 1.5 20
      vertex 2.5 3.5 20
      vertex 2.5 1.5 20
    endloop
  endfacet
  facet normal -0 0 1
    outer loop
      vertex 22.5 10.5 20
      vertex 24 3.5 20
      vertex 24 10.5 20
    endloop
  endfacet
  facet normal 0 0 1
    outer loop
      vertex 24 3.5 20
      vertex 22.5 10.5 20
      vertex 22.5 3.5 20
    endloop
  endfacet
  facet normal 1 0 0
    outer loop
      vertex 22.5 3.5 2
      vertex 22.5 0 2
      vertex 22.5 3.5 0
    endloop
  endfacet
  facet normal 1 0 0
    outer loop
      vertex 22.5 10.5 0
      vertex 22.5 14 2
      vertex 22.5 10.5 2
    endloop
  endfacet
  facet normal 1 0 0
    outer loop
      vertex 22.5 14 2
      vertex 22.5 10.5 0
      vertex 22.5 14 -28
    endloop
  endfacet
  facet normal 1 -0 0
    outer loop
      vertex 22.5 3.5 0
      vertex 22.5 14 -28
      vertex 22.5 10.5 0
    endloop
  endfacet
  facet normal 1 0 0
    outer loop
      vertex 22.5 0 -28
      vertex 22.5 3.5 0
      vertex 22.5 0 2
    endloop
  endfacet
  facet normal 1 0 0
    outer loop
      vertex 22.5 3.5 0
      vertex 22.5 0 -28
      vertex 22.5 14 -28
    endloop
  endfacet
  facet normal 1 -0 0
    outer loop
      vertex 22.5 1.5 20
      vertex 22.5 3.5 5
      vertex 22.5 3.5 20
    endloop
  endfacet
  facet normal 1 0 0
    outer loop
      vertex 22.5 3.5 5
      vertex 22.5 1.5 20
      vertex 22.5 1.5 5
    endloop
  endfacet
  facet normal 1 -0 0
    outer loop
      vertex 22.5 10.5 20
      vertex 22.5 12.5 5
      vertex 22.5 12.5 20
    endloop
  endfacet
  facet normal 1 0 0
    outer loop
      vertex 22.5 12.5 5
      vertex 22.5 10.5 20
      vertex 22.5 10.5 5
    endloop
  endfacet
  facet normal 0 1 -0
    outer loop
      vertex 22.5 12.5 5
      vertex 2.5 12.5 20
      vertex 22.5 12.5 20
    endloop
  endfacet
  facet normal 0 1 0
    outer loop
      vertex 2.5 12.5 20
      vertex 22.5 12.5 5
      vertex 2.5 12.5 5
    endloop
  endfacet
  facet normal 0 0 -1
    outer loop
      vertex 1 3.5 0
      vertex 2.5 10.5 0
      vertex 2.5 3.5 0
    endloop
  endfacet
  facet normal -0 0 -1
    outer loop
      vertex 2.5 10.5 0
      vertex 1 3.5 0
      vertex 1 10.5 0
    endloop
  endfacet
  facet normal 0 0 -1
    outer loop
      vertex 22.5 3.5 0
      vertex 24 10.5 0
      vertex 24 3.5 0
    endloop
  endfacet
  facet normal -0 0 -1
    outer loop
      vertex 24 10.5 0
      vertex 22.5 3.5 0
      vertex 22.5 10.5 0
    endloop
  endfacet
  facet normal 0 -1 0
    outer loop
      vertex 2.5 1.5 5
      vertex 22.5 1.5 20
      vertex 2.5 1.5 20
    endloop
  endfacet
  facet normal 0 -1 -0
    outer loop
      vertex 22.5 1.5 20
      vertex 2.5 1.5 5
      vertex 22.5 1.5 5
    endloop
  endfacet
  facet normal -1 0 0
    outer loop
      vertex 1 3.5 5
      vertex 1 10.5 20
      vertex 1 10.5 5
    endloop
  endfacet
  facet normal -1 -0 0
    outer loop
      vertex 1 10.5 20
      vertex 1 3.5 5
      vertex 1 3.5 20
    endloop
  endfacet
  facet normal -1 0 0
    outer loop
      vertex 1 3.5 0
      vertex 1 10.5 2
      vertex 1 10.5 0
    endloop
  endfacet
  facet normal -1 -0 0
    outer loop
      vertex 1 10.5 2
      vertex 1 3.5 0
      vertex 1 3.5 2
    endloop
  endfacet
  facet normal 1 -0 0
    outer loop
      vertex 24 3.5 20
      vertex 24 10.5 5
      vertex 24 10.5 20
    endloop
  endfacet
  facet normal 1 0 0
    outer loop
      vertex 24 10.5 5
      vertex 24 3.5 20
      vertex 24 3.5 5
    endloop
  endfacet
  facet normal 1 -0 0
    outer loop
      vertex 24 3.5 2
      vertex 24 10.5 0
      vertex 24 10.5 2
    endloop
  endfacet
  facet normal 1 0 0
    outer loop
      vertex 24 10.5 0
      vertex 24 3.5 2
      vertex 24 3.5 0
    endloop
  endfacet
  facet normal 0 -1 0
    outer loop
      vertex 1 3.5 5
      vertex 2.5 3.5 20
      vertex 1 3.5 20
    endloop
  endfacet
  facet normal 0 -1 -0
    outer loop
      vertex 2.5 3.5 20
      vertex 1 3.5 5
      vertex 2.5 3.5 5
    endloop
  endfacet
  facet normal 0 -1 0
    outer loop
      vertex 22.5 3.5 5
      vertex 24 3.5 20
      vertex 22.5 3.5 20
    endloop
  endfacet
  facet normal 0 -1 -0
    outer loop
      vertex 24 3.5 20
      vertex 22.5 3.5 5
      vertex 24 3.5 5
    endloop
  endfacet
  facet normal 0 -1 0
    outer loop
      vertex 1 3.5 0
      vertex 2.5 3.5 2
      vertex 1 3.5 2
    endloop
  endfacet
  facet normal 0 -1 -0
    outer loop
      vertex 2.5 3.5 2
      vertex 1 3.5 0
      vertex 2.5 3.5 0
    endloop
  endfacet
  facet normal 0 -1 0
    outer loop
      vertex 22.5 3.5 0
      vertex 24 3.5 2
      vertex 22.5 3.5 2
    endloop
  endfacet
  facet normal 0 -1 -0
    outer loop
      vertex 24 3.5 2
      vertex 22.5 3.5 0
      vertex 24 3.5 0
    endloop
  endfacet
  facet normal 0 1 -0
    outer loop
      vertex 24 10.5 5
      vertex 22.5 10.5 20
      vertex 24 10.5 20
    endloop
  endfacet
  facet normal 0 1 0
    outer loop
      vertex 22.5 10.5 20
      vertex 24 10.5 5
      vertex 22.5 10.5 5
    endloop
  endfacet
  facet normal 0 1 -0
    outer loop
      vertex 2.5 10.5 0
      vertex 1 10.5 2
      vertex 2.5 10.5 2
    endloop
  endfacet
  facet normal 0 1 0
    outer loop
      vertex 1 10.5 2
      vertex 2.5 10.5 0
      vertex 1 10.5 0
    endloop
  endfacet
  facet normal 0 1 -0
    outer loop
      vertex 24 10.5 0
      vertex 22.5 10.5 2
      vertex 24 10.5 2
    endloop
  endfacet
  facet normal 0 1 0
    outer loop
      vertex 22.5 10.5 2
      vertex 24 10.5 0
      vertex 22.5 10.5 0
    endloop
  endfacet
  facet normal 0 1 -0
    outer loop
      vertex 2.5 10.5 5
      vertex 1 10.5 20
      vertex 2.5 10.5 20
    endloop
  endfacet
  facet normal 0 1 0
    outer loop
      vertex 1 10.5 20
      vertex 2.5 10.5 5
      vertex 1 10.5 5
    endloop
  endfacet
  facet normal -1 0 0
    outer loop
      vertex 0 0 2
      vertex 0 14 5
      vertex 0 14 2
    endloop
  endfacet
  facet normal -1 -0 0
    outer loop
      vertex 0 14 5
      vertex 0 0 2
      vertex 0 0 5
    endloop
  endfacet
  facet normal 0 0 1
    outer loop
      vertex 2.5 3.5 5
      vertex 1 3.5 5
      vertex 2.5 1.5 5
    endloop
  endfacet
  facet normal 0 0 1
    outer loop
      vertex 25 14 5
      vertex 24 10.5 5
      vertex 25 0 5
    endloop
  endfacet
  facet normal 0 0 1
    outer loop
      vertex 25 14 5
      vertex 22.5 12.5 5
      vertex 24 10.5 5
    endloop
  endfacet
  facet normal 0 0 1
    outer loop
      vertex 25 14 5
      vertex 2.5 12.5 5
      vertex 22.5 12.5 5
    endloop
  endfacet
  facet normal 0 0 1
    outer loop
      vertex 2.5 12.5 5
      vertex 1 10.5 5
      vertex 2.5 10.5 5
    endloop
  endfacet
  facet normal 0 0 1
    outer loop
      vertex 1 10.5 5
      vertex 0 14 5
      vertex 1 3.5 5
    endloop
  endfacet
  facet normal 0 0 1
    outer loop
      vertex 2.5 12.5 5
      vertex 0 14 5
      vertex 1 10.5 5
    endloop
  endfacet
  facet normal -0 0 1
    outer loop
      vertex 0 14 5
      vertex 2.5 12.5 5
      vertex 25 14 5
    endloop
  endfacet
  facet normal -0 0 1
    outer loop
      vertex 24 3.5 5
      vertex 25 0 5
      vertex 24 10.5 5
    endloop
  endfacet
  facet normal 0 0 1
    outer loop
      vertex 22.5 1.5 5
      vertex 24 3.5 5
      vertex 22.5 3.5 5
    endloop
  endfacet
  facet normal 0 0 1
    outer loop
      vertex 24 3.5 5
      vertex 22.5 1.5 5
      vertex 25 0 5
    endloop
  endfacet
  facet normal -0 0 1
    outer loop
      vertex 2.5 1.5 5
      vertex 25 0 5
      vertex 22.5 1.5 5
    endloop
  endfacet
  facet normal 0 0 1
    outer loop
      vertex 2.5 1.5 5
      vertex 0 0 5
      vertex 25 0 5
    endloop
  endfacet
  facet normal 0 0 1
    outer loop
      vertex 1 3.5 5
      vertex 0 0 5
      vertex 2.5 1.5 5
    endloop
  endfacet
  facet normal 0 0 1
    outer loop
      vertex 0 0 5
      vertex 1 3.5 5
      vertex 0 14 5
    endloop
  endfacet
  facet normal 0 0 1
    outer loop
      vertex 24 10.5 5
      vertex 22.5 12.5 5
      vertex 22.5 10.5 5
    endloop
  endfacet
  facet normal 1 -0 0
    outer loop
      vertex 25 0 5
      vertex 25 14 2
      vertex 25 14 5
    endloop
  endfacet
  facet normal 1 0 0
    outer loop
      vertex 25 14 2
      vertex 25 0 5
      vertex 25 0 2
    endloop
  endfacet
  facet normal 0 0 -1
    outer loop
      vertex 2.5 0 2
      vertex 1 3.5 2
      vertex 2.5 3.5 2
    endloop
  endfacet
  facet normal -0 0 -1
    outer loop
      vertex 1 3.5 2
      vertex 0 0 2
      vertex 1 10.5 2
    endloop
  endfacet
  facet normal 0 0 -1
    outer loop
      vertex 0 0 2
      vertex 1 3.5 2
      vertex 2.5 0 2
    endloop
  endfacet
  facet normal 0 0 -1
    outer loop
      vertex 1 10.5 2
      vertex 2.5 14 2
      vertex 2.5 10.5 2
    endloop
  endfacet
  facet normal 0 0 -1
    outer loop
      vertex 1 10.5 2
      vertex 0 14 2
      vertex 2.5 14 2
    endloop
  endfacet
  facet normal 0 0 -1
    outer loop
      vertex 0 14 2
      vertex 1 10.5 2
      vertex 0 0 2
    endloop
  endfacet
  facet normal 0 0 -1
    outer loop
      vertex 25 0 2
      vertex 24 3.5 2
      vertex 25 14 2
    endloop
  endfacet
  facet normal 0 0 -1
    outer loop
      vertex 22.5 0 2
      vertex 24 3.5 2
      vertex 25 0 2
    endloop
  endfacet
  facet normal -0 0 -1
    outer loop
      vertex 24 3.5 2
      vertex 22.5 0 2
      vertex 22.5 3.5 2
    endloop
  endfacet
  facet normal 0 0 -1
    outer loop
      vertex 24 10.5 2
      vertex 25 14 2
      vertex 24 3.5 2
    endloop
  endfacet
  facet normal 0 0 -1
    outer loop
      vertex 22.5 14 2
      vertex 24 10.5 2
      vertex 22.5 10.5 2
    endloop
  endfacet
  facet normal 0 0 -1
    outer loop
      vertex 24 10.5 2
      vertex 22.5 14 2
      vertex 25 14 2
    endloop
  endfacet
  facet normal 0 -1 0
    outer loop
      vertex 2.5 0 2
      vertex 12.5 0 -26.5
      vertex 22.5 0 2
    endloop
  endfacet
  facet normal 0 -1 0
    outer loop
      vertex 2.5 0 2
      vertex 12.0365 0 -26.5734
      vertex 12.5 0 -26.5
    endloop
  endfacet
  facet normal 0 -1 0
    outer loop
      vertex 2.5 0 -28
      vertex 12.0365 0 -26.5734
      vertex 2.5 0 2
    endloop
  endfacet
  facet normal 0 -1 0
    outer loop
      vertex 12.0365 0 -26.5734
      vertex 2.5 0 -28
      vertex 11.6183 0 -26.7865
    endloop
  endfacet
  facet normal 0 -1 0
    outer loop
      vertex 11.6183 0 -26.7865
      vertex 2.5 0 -28
      vertex 11.2865 0 -27.1183
    endloop
  endfacet
  facet normal 0 -1 0
    outer loop
      vertex 11.2865 0 -27.1183
      vertex 2.5 0 -28
      vertex 11.0734 0 -27.5365
    endloop
  endfacet
  facet normal 0 -1 0
    outer loop
      vertex 2.5 0 -28
      vertex 11 0 -28
      vertex 11.0734 0 -27.5365
    endloop
  endfacet
  facet normal 0 -1 0
    outer loop
      vertex 2.71852 0 -30.0791
      vertex 11 0 -28
      vertex 2.5 0 -28
    endloop
  endfacet
  facet normal 0 -1 -0
    outer loop
      vertex 11 0 -28
      vertex 2.71852 0 -30.0791
      vertex 11.0734 0 -28.4635
    endloop
  endfacet
  facet normal 0 -1 0
    outer loop
      vertex 3.36454 0 -32.0674
      vertex 11.0734 0 -28.4635
      vertex 2.71852 0 -30.0791
    endloop
  endfacet
  facet normal 0 -1 -0
    outer loop
      vertex 11.0734 0 -28.4635
      vertex 3.36454 0 -32.0674
      vertex 11.2865 0 -28.8817
    endloop
  endfacet
  facet normal 0 -1 0
    outer loop
      vertex 4.40983 0 -33.8779
      vertex 11.2865 0 -28.8817
      vertex 3.36454 0 -32.0674
    endloop
  endfacet
  facet normal 0 -1 0
    outer loop
      vertex 5.80869 0 -35.4314
      vertex 11.2865 0 -28.8817
      vertex 4.40983 0 -33.8779
    endloop
  endfacet
  facet normal 0 -1 0
    outer loop
      vertex 2.5 0 2
      vertex 0 0 5
      vertex 0 0 2
    endloop
  endfacet
  facet normal 0 -1 0
    outer loop
      vertex 0 0 5
      vertex 2.5 0 2
      vertex 25 0 5
    endloop
  endfacet
  facet normal 0 -1 0
    outer loop
      vertex 22.5 0 2
      vertex 25 0 5
      vertex 2.5 0 2
    endloop
  endfacet
  facet normal 0 -1 -0
    outer loop
      vertex 25 0 5
      vertex 22.5 0 2
      vertex 25 0 2
    endloop
  endfacet
  facet normal 0 -1 0
    outer loop
      vertex 12.9635 0 -26.5734
      vertex 22.5 0 2
      vertex 12.5 0 -26.5
    endloop
  endfacet
  facet normal 0 -1 0
    outer loop
      vertex 22.5 0 -28
      vertex 12.9635 0 -26.5734
      vertex 13.25 0 -26.7194
    endloop
  endfacet
  facet normal 0 -1 0
    outer loop
      vertex 12.9635 0 -26.5734
      vertex 22.5 0 -28
      vertex 22.5 0 2
    endloop
  endfacet
  facet normal 0 -1 0
    outer loop
      vertex 13.25 0 -29.2806
      vertex 22.5 0 -28
      vertex 13.25 0 -26.7194
    endloop
  endfacet
  facet normal 0 -1 0
    outer loop
      vertex 17.5 0 -36.6603
      vertex 13.25 0 -29.2806
      vertex 12.9635 0 -29.4266
    endloop
  endfacet
  facet normal 0 -1 0
    outer loop
      vertex 13.5453 0 -37.9452
      vertex 12.9635 0 -29.4266
      vertex 12.5 0 -29.5
    endloop
  endfacet
  facet normal 0 -1 0
    outer loop
      vertex 13.25 0 -29.2806
      vertex 22.2815 0 -30.0791
      vertex 22.5 0 -28
    endloop
  endfacet
  facet normal 0 -1 -0
    outer loop
      vertex 11.2865 0 -28.8817
      vertex 5.80869 0 -35.4314
      vertex 11.6183 0 -29.2135
    endloop
  endfacet
  facet normal 0 -1 0
    outer loop
      vertex 7.5 0 -36.6603
      vertex 11.6183 0 -29.2135
      vertex 5.80869 0 -35.4314
    endloop
  endfacet
  facet normal 0 -1 0
    outer loop
      vertex 13.25 0 -29.2806
      vertex 21.6355 0 -32.0674
      vertex 22.2815 0 -30.0791
    endloop
  endfacet
  facet normal 0 -1 -0
    outer loop
      vertex 11.6183 0 -29.2135
      vertex 7.5 0 -36.6603
      vertex 12.0365 0 -29.4266
    endloop
  endfacet
  facet normal 0 -1 0
    outer loop
      vertex 13.25 0 -29.2806
      vertex 20.5902 0 -33.8779
      vertex 21.6355 0 -32.0674
    endloop
  endfacet
  facet normal 0 -1 0
    outer loop
      vertex 9.40983 0 -37.5106
      vertex 12.0365 0 -29.4266
      vertex 7.5 0 -36.6603
    endloop
  endfacet
  facet normal 0 -1 0
    outer loop
      vertex 13.25 0 -29.2806
      vertex 19.1913 0 -35.4314
      vertex 20.5902 0 -33.8779
    endloop
  endfacet
  facet normal 0 -1 0
    outer loop
      vertex 11.4547 0 -37.9452
      vertex 12.0365 0 -29.4266
      vertex 9.40983 0 -37.5106
    endloop
  endfacet
  facet normal 0 -1 0
    outer loop
      vertex 13.25 0 -29.2806
      vertex 17.5 0 -36.6603
      vertex 19.1913 0 -35.4314
    endloop
  endfacet
  facet normal 0 -1 -0
    outer loop
      vertex 12.0365 0 -29.4266
      vertex 11.4547 0 -37.9452
      vertex 12.5 0 -29.5
    endloop
  endfacet
  facet normal 0 -1 0
    outer loop
      vertex 12.9635 0 -29.4266
      vertex 15.5902 0 -37.5106
      vertex 17.5 0 -36.6603
    endloop
  endfacet
  facet normal 0 -1 0
    outer loop
      vertex 13.5453 0 -37.9452
      vertex 12.5 0 -29.5
      vertex 11.4547 0 -37.9452
    endloop
  endfacet
  facet normal 0 -1 0
    outer loop
      vertex 12.9635 0 -29.4266
      vertex 13.5453 0 -37.9452
      vertex 15.5902 0 -37.5106
    endloop
  endfacet
  facet normal 0 1 -0
    outer loop
      vertex 22.5 14 -28
      vertex 2.5 14 2
      vertex 22.5 14 2
    endloop
  endfacet
  facet normal 0 1 0
    outer loop
      vertex 22.5 14 -28
      vertex 2.5 14 -28
      vertex 2.5 14 2
    endloop
  endfacet
  facet normal 0 1 -0
    outer loop
      vertex 22.2815 14 -30.0791
      vertex 2.5 14 -28
      vertex 22.5 14 -28
    endloop
  endfacet
  facet normal 0 1 0
    outer loop
      vertex 2.5 14 -28
      vertex 22.2815 14 -30.0791
      vertex 2.71852 14 -30.0791
    endloop
  endfacet
  facet normal 0 1 0
    outer loop
      vertex 22.5 14 2
      vertex 25 14 5
      vertex 25 14 2
    endloop
  endfacet
  facet normal 0 1 0
    outer loop
      vertex 25 14 5
      vertex 22.5 14 2
      vertex 0 14 5
    endloop
  endfacet
  facet normal 0 1 -0
    outer loop
      vertex 2.5 14 2
      vertex 0 14 5
      vertex 22.5 14 2
    endloop
  endfacet
  facet normal 0 1 0
    outer loop
      vertex 0 14 5
      vertex 2.5 14 2
      vertex 0 14 2
    endloop
  endfacet
  facet normal 0.994522 0 -0.104529
    outer loop
      vertex 22.5 0 -28
      vertex 22.2815 14 -30.0791
      vertex 22.5 14 -28
    endloop
  endfacet
  facet normal 0.994522 0 -0.104529
    outer loop
      vertex 22.2815 14 -30.0791
      vertex 22.5 0 -28
      vertex 22.2815 0 -30.0791
    endloop
  endfacet
  facet normal -0.20791 0 -0.978148
    outer loop
      vertex 9.40983 0 -37.5106
      vertex 11.4547 14 -37.9452
      vertex 11.4547 0 -37.9452
    endloop
  endfacet
  facet normal -0.20791 0 -0.978148
    outer loop
      vertex 11.4547 14 -37.9452
      vertex 9.40983 0 -37.5106
      vertex 9.40983 14 -37.5106
    endloop
  endfacet
  facet normal 0.587785 0 -0.809017
    outer loop
      vertex 17.5 0 -36.6603
      vertex 19.1913 14 -35.4314
      vertex 19.1913 0 -35.4314
    endloop
  endfacet
  facet normal 0.587785 0 -0.809017
    outer loop
      vertex 19.1913 14 -35.4314
      vertex 17.5 0 -36.6603
      vertex 17.5 14 -36.6603
    endloop
  endfacet
  facet normal 9.53674e-08 1 -2.14199e-07
    outer loop
      vertex 17.5 14 -36.6603
      vertex 15.5902 14 -37.5106
      vertex 22.2815 14 -30.0791
    endloop
  endfacet
  facet normal 0 0 -1
    outer loop
      vertex 11.4547 0 -37.9452
      vertex 13.5453 14 -37.9452
      vertex 13.5453 0 -37.9452
    endloop
  endfacet
  facet normal -0 0 -1
    outer loop
      vertex 13.5453 14 -37.9452
      vertex 11.4547 0 -37.9452
      vertex 11.4547 14 -37.9452
    endloop
  endfacet
  facet normal -0.743145 0 -0.669131
    outer loop
      vertex 5.80869 0 -35.4314
      vertex 4.40983 14 -33.8779
      vertex 5.80869 14 -35.4314
    endloop
  endfacet
  facet normal -0.743145 -0 -0.669131
    outer loop
      vertex 4.40983 14 -33.8779
      vertex 5.80869 0 -35.4314
      vertex 4.40983 0 -33.8779
    endloop
  endfacet
  facet normal 0 1 -1.21239e-07
    outer loop
      vertex 13.5453 14 -37.9452
      vertex 2.71852 14 -30.0791
      vertex 22.2815 14 -30.0791
    endloop
  endfacet
  facet normal 0 1 -1.21239e-07
    outer loop
      vertex 2.71852 14 -30.0791
      vertex 13.5453 14 -37.9452
      vertex 11.4547 14 -37.9452
    endloop
  endfacet
  facet normal -0.587785 0 -0.809017
    outer loop
      vertex 5.80869 0 -35.4314
      vertex 7.5 14 -36.6603
      vertex 7.5 0 -36.6603
    endloop
  endfacet
  facet normal -0.587785 0 -0.809017
    outer loop
      vertex 7.5 14 -36.6603
      vertex 5.80869 0 -35.4314
      vertex 5.80869 14 -35.4314
    endloop
  endfacet
  facet normal 0.866025 0 -0.5
    outer loop
      vertex 21.6355 0 -32.0674
      vertex 20.5902 14 -33.8779
      vertex 21.6355 14 -32.0674
    endloop
  endfacet
  facet normal 0.866025 0 -0.5
    outer loop
      vertex 20.5902 14 -33.8779
      vertex 21.6355 0 -32.0674
      vertex 20.5902 0 -33.8779
    endloop
  endfacet
  facet normal 0.951057 0 -0.309017
    outer loop
      vertex 22.2815 0 -30.0791
      vertex 21.6355 14 -32.0674
      vertex 22.2815 14 -30.0791
    endloop
  endfacet
  facet normal 0.951057 0 -0.309017
    outer loop
      vertex 21.6355 14 -32.0674
      vertex 22.2815 0 -30.0791
      vertex 21.6355 0 -32.0674
    endloop
  endfacet
  facet normal 5.51546e-07 1 -4.96614e-07
    outer loop
      vertex 20.5902 14 -33.8779
      vertex 19.1913 14 -35.4314
      vertex 22.2815 14 -30.0791
    endloop
  endfacet
  facet normal 0.743145 0 -0.669131
    outer loop
      vertex 20.5902 0 -33.8779
      vertex 19.1913 14 -35.4314
      vertex 20.5902 14 -33.8779
    endloop
  endfacet
  facet normal 0.743145 0 -0.669131
    outer loop
      vertex 19.1913 14 -35.4314
      vertex 20.5902 0 -33.8779
      vertex 19.1913 0 -35.4314
    endloop
  endfacet
  facet normal 0.20791 0 -0.978148
    outer loop
      vertex 13.5453 0 -37.9452
      vertex 15.5902 14 -37.5106
      vertex 15.5902 0 -37.5106
    endloop
  endfacet
  facet normal 0.20791 0 -0.978148
    outer loop
      vertex 15.5902 14 -37.5106
      vertex 13.5453 0 -37.9452
      vertex 13.5453 14 -37.9452
    endloop
  endfacet
  facet normal -3.37331e-08 1 -1.58703e-07
    outer loop
      vertex 9.40983 14 -37.5106
      vertex 2.71852 14 -30.0791
      vertex 11.4547 14 -37.9452
    endloop
  endfacet
  facet normal -0.994522 0 -0.104528
    outer loop
      vertex 2.71852 0 -30.0791
      vertex 2.5 14 -28
      vertex 2.71852 14 -30.0791
    endloop
  endfacet
  facet normal -0.994522 -0 -0.104528
    outer loop
      vertex 2.5 14 -28
      vertex 2.71852 0 -30.0791
      vertex 2.5 0 -28
    endloop
  endfacet
  facet normal 0.406737 0 -0.913545
    outer loop
      vertex 15.5902 0 -37.5106
      vertex 17.5 14 -36.6603
      vertex 17.5 0 -36.6603
    endloop
  endfacet
  facet normal 0.406737 0 -0.913545
    outer loop
      vertex 17.5 14 -36.6603
      vertex 15.5902 0 -37.5106
      vertex 15.5902 14 -37.5106
    endloop
  endfacet
  facet normal -0.951057 0 -0.309017
    outer loop
      vertex 3.36454 0 -32.0674
      vertex 2.71852 14 -30.0791
      vertex 3.36454 14 -32.0674
    endloop
  endfacet
  facet normal -0.951057 -0 -0.309017
    outer loop
      vertex 2.71852 14 -30.0791
      vertex 3.36454 0 -32.0674
      vertex 2.71852 0 -30.0791
    endloop
  endfacet
  facet normal -0.866025 0 -0.5
    outer loop
      vertex 4.40983 0 -33.8779
      vertex 3.36454 14 -32.0674
      vertex 4.40983 14 -33.8779
    endloop
  endfacet
  facet normal -0.866025 -0 -0.5
    outer loop
      vertex 3.36454 14 -32.0674
      vertex 4.40983 0 -33.8779
      vertex 3.36454 0 -32.0674
    endloop
  endfacet
  facet normal -0.406737 0 -0.913545
    outer loop
      vertex 7.5 0 -36.6603
      vertex 9.40983 14 -37.5106
      vertex 9.40983 0 -37.5106
    endloop
  endfacet
  facet normal -0.406737 0 -0.913545
    outer loop
      vertex 9.40983 14 -37.5106
      vertex 7.5 0 -36.6603
      vertex 7.5 14 -36.6603
    endloop
  endfacet
  facet normal 1.90014e-06 1 -1.09705e-06
    outer loop
      vertex 21.6355 14 -32.0674
      vertex 20.5902 14 -33.8779
      vertex 22.2815 14 -30.0791
    endloop
  endfacet
  facet normal 2.22994e-07 1 -3.06925e-07
    outer loop
      vertex 19.1913 14 -35.4314
      vertex 17.5 14 -36.6603
      vertex 22.2815 14 -30.0791
    endloop
  endfacet
  facet normal 3.37331e-08 1 -1.58703e-07
    outer loop
      vertex 15.5902 14 -37.5106
      vertex 13.5453 14 -37.9452
      vertex 22.2815 14 -30.0791
    endloop
  endfacet
  facet normal -5.51546e-07 1 -4.96614e-07
    outer loop
      vertex 4.40983 14 -33.8779
      vertex 2.71852 14 -30.0791
      vertex 5.80869 14 -35.4314
    endloop
  endfacet
  facet normal -1.90014e-06 1 -1.09705e-06
    outer loop
      vertex 3.36454 14 -32.0674
      vertex 2.71852 14 -30.0791
      vertex 4.40983 14 -33.8779
    endloop
  endfacet
  facet normal -2.22994e-07 1 -3.06925e-07
    outer loop
      vertex 5.80869 14 -35.4314
      vertex 2.71852 14 -30.0791
      vertex 7.5 14 -36.6603
    endloop
  endfacet
  facet normal -9.53675e-08 1 -2.14199e-07
    outer loop
      vertex 7.5 14 -36.6603
      vertex 2.71852 14 -30.0791
      vertex 9.40983 14 -37.5106
    endloop
  endfacet
endsolid OpenSCAD_Model
