<?xml version="1.0" encoding="UTF-8" standalone="no"?>
<!-- Created with Inkscape (http://www.inkscape.org/) -->

<svg
   xmlns:dc="http://purl.org/dc/elements/1.1/"
   xmlns:cc="http://creativecommons.org/ns#"
   xmlns:rdf="http://www.w3.org/1999/02/22-rdf-syntax-ns#"
   xmlns:svg="http://www.w3.org/2000/svg"
   xmlns="http://www.w3.org/2000/svg"
   xmlns:sodipodi="http://sodipodi.sourceforge.net/DTD/sodipodi-0.dtd"
   xmlns:inkscape="http://www.inkscape.org/namespaces/inkscape"
   width="1189mm"
   height="841mm"
   viewBox="0 0 4212.9922 2979.9212"
   id="svg2"
   version="1.1"
   inkscape:version="0.91 r13725"
   sodipodi:docname="линия-1.svg">
  <defs
     id="defs4" />
  <sodipodi:namedview
     id="base"
     pagecolor="#ffffff"
     bordercolor="#666666"
     borderopacity="1.0"
     inkscape:pageopacity="0.0"
     inkscape:pageshadow="2"
     inkscape:zoom="1.12"
     inkscape:cx="314.48821"
     inkscape:cy="844.28906"
     inkscape:document-units="mm"
     inkscape:current-layer="layer1"
     showgrid="false"
     inkscape:window-width="1366"
     inkscape:window-height="705"
     inkscape:window-x="-8"
     inkscape:window-y="-8"
     inkscape:window-maximized="1" />
  <metadata
     id="metadata7">
    <rdf:RDF>
      <cc:Work
         rdf:about="">
        <dc:format>image/svg+xml</dc:format>
        <dc:type
           rdf:resource="http://purl.org/dc/dcmitype/StillImage" />
        <dc:title />
      </cc:Work>
    </rdf:RDF>
  </metadata>
  <g
     inkscape:label="Layer 1"
     inkscape:groupmode="layer"
     id="layer1"
     transform="translate(0,1927.5589)">
    <path
       style="fill:none;fill-rule:evenodd;stroke:#000000;stroke-width:106.2992126;stroke-linecap:butt;stroke-linejoin:round;stroke-miterlimit:4;stroke-dasharray:none;stroke-opacity:1"
       d="M 1874.8432,874.5754 226.27417,882.6566 215.37786,263.06392 c 0,0 769.7802,60.33397 920.68494,-228.571427 C 1291.0555,-262.2394 506.53254,-370.0831 483.72459,-704.07763 458.46295,-1074.0036 706.24161,-1302.0026 966.93133,-1458.236 c 699.30307,-419.0977 1829.26667,-411.9719 2489.01597,-40.4061 374.6264,210.9867 578.5266,523.64805 335.4476,752.85594 -113.5251,107.04683 -836.886,534.67343 -550.8537,1028.61223 106.8399,184.49787 708.3605,153.57144 708.3605,153.57144 l -3.3894,438.75215 -1292.9952,4.32783 c 0,0 -276.9226,-1123.83726 -249.2437,-1367.53396 27.4927,-242.05811 877.4957,-128.62588 750.6998,-544.56433 -186.1934,-610.7849 -1880.692,-438.6093 -1758.7371,285.53219 44.0761,261.71409 367.5618,491.30863 538.2626,755.6709873 C 2302.4552,579.98109 1874.8432,874.5754 1874.8432,874.5754 Z"
       id="path3336"
       inkscape:connector-curvature="0"
       sodipodi:nodetypes="cccsssssscccssssc" />
  </g>
</svg>
