  0
SECTION
  2
HEADER
  9
$ACADVER
  1
AC1014
  9
$HANDSEED
  5
FFFF
  9
$MEASUREMENT
 70
     1
  0
ENDSEC
  0
SECTION
  2
TABLES
  0
TABLE
  2
VPORT
  5
8
330
0
100
AcDbSymbolTable
 70
     4
  0
VPORT
  5
2E
330
8
100
AcDbSymbolTableRecord
100
AcDbViewportTableRecord
  2
*ACTIVE
 70
     0
 10
0.0
 20
0.0
 11
1.0
 21
1.0
 12
210.0
 22
148.5
 13
0.0
 23
0.0
 14
10.0
 24
10.0
 15
10.0
 25
10.0
 16
0.0
 26
0.0
 36
1.0
 17
0.0
 27
0.0
 37
0.0
 40
341.0
 41
1.24
 42
50.0
 43
0.0
 44
0.0
 50
0.0
 51
0.0
 71
     0
 72
   100
 73
     1
 74
     3
 75
     0
 76
     0
 77
     0
 78
     0
  0
ENDTAB
  0
TABLE
  2
LTYPE
  5
5
330
0
100
AcDbSymbolTable
 70
     1
  0
LTYPE
  5
14
330
5
100
AcDbSymbolTableRecord
100
AcDbLinetypeTableRecord
  2
BYBLOCK
 70
     0
  3

 72
    65
 73
     0
 40
0.0
  0
LTYPE
  5
15
330
5
100
AcDbSymbolTableRecord
100
AcDbLinetypeTableRecord
  2
BYLAYER
 70
     0
  3

 72
    65
 73
     0
 40
0.0
  0
LTYPE
  5
16
330
5
100
AcDbSymbolTableRecord
100
AcDbLinetypeTableRecord
  2
CONTINUOUS
 70
     0
  3
Solid line
 72
    65
 73
     0
 40
0.0
  0
ENDTAB
  0
TABLE
  2
LAYER
  5
2
100
AcDbSymbolTable
 70
2
  0
LAYER
  5
50
100
AcDbSymbolTableRecord
100
AcDbLayerTableRecord
  2
0
 70
0
  6
CONTINUOUS
  0
LAYER
  5
51
100
AcDbSymbolTableRecord
100
AcDbLayerTableRecord
  2
Layer_1
 70
0
  6
CONTINUOUS
  0
ENDTAB
  0
TABLE
  2
STYLE
  5
3
330
0
100
AcDbSymbolTable
 70
     1
  0
STYLE
  5
11
330
3
100
AcDbSymbolTableRecord
100
AcDbTextStyleTableRecord
  2
STANDARD
 70
     0
 40
0.0
 41
1.0
 50
0.0
 71
     0
 42
2.5
  3
txt
  4

  0
ENDTAB
  0
TABLE
  2
VIEW
  5
6
330
0
100
AcDbSymbolTable
 70
     0
  0
ENDTAB
  0
TABLE
  2
UCS
  5
7
330
0
100
AcDbSymbolTable
 70
     0
  0
ENDTAB
  0
TABLE
  2
APPID
  5
9
330
0
100
AcDbSymbolTable
 70
     2
  0
APPID
  5
12
330
9
100
AcDbSymbolTableRecord
100
AcDbRegAppTableRecord
  2
ACAD
 70
     0
  0
ENDTAB
  0
TABLE
  2
DIMSTYLE
  5
A
330
0
100
AcDbSymbolTable
 70
     1
  0
DIMSTYLE
105
27
330
A
100
AcDbSymbolTableRecord
100
AcDbDimStyleTableRecord
  2
ISO-25
 70
     0
  3

  4

  5

  6

  7

 40
1.0
 41
2.5
 42
0.625
 43
3.75
 44
1.25
 45
0.0
 46
0.0
 47
0.0
 48
0.0
140
2.5
141
2.5
142
0.0
143
0.03937007874016
144
1.0
145
0.0
146
1.0
147
0.625
 71
     0
 72
     0
 73
     0
 74
     0
 75
     0
 76
     0
 77
     1
 78
     8
170
     0
171
     3
172
     1
173
     0
174
     0
175
     0
176
     0
177
     0
178
     0
270
     2
271
     2
272
     2
273
     2
274
     3
340
11
275
     0
280
     0
281
     0
282
     0
283
     0
284
     8
285
     0
286
     0
287
     3
288
     0
  0
ENDTAB
  0
TABLE
  2
BLOCK_RECORD
  5
1
330
0
100
AcDbSymbolTable
 70
     1
  0
BLOCK_RECORD
  5
1F
330
1
100
AcDbSymbolTableRecord
100
AcDbBlockTableRecord
  2
*MODEL_SPACE
  0
BLOCK_RECORD
  5
1B
330
1
100
AcDbSymbolTableRecord
100
AcDbBlockTableRecord
  2
*PAPER_SPACE
  0
ENDTAB
  0
ENDSEC
  0
SECTION
  2
BLOCKS
  0
BLOCK
  5
20
330
1F
100
AcDbEntity
  8
0
100
AcDbBlockBegin
  2
*MODEL_SPACE
 70
     0
 10
0.0
 20
0.0
 30
0.0
  3
*MODEL_SPACE
  1

  0
ENDBLK
  5
21
330
1F
100
AcDbEntity
  8
0
100
AcDbBlockEnd
  0
BLOCK
  5
1C
330
1B
100
AcDbEntity
 67
     1
  8
0
100
AcDbBlockBegin
  2
*PAPER_SPACE
  1

  0
ENDBLK
  5
1D
330
1B
100
AcDbEntity
 67
     1
  8
0
100
AcDbBlockEnd
  0
ENDSEC
  0
SECTION
  2
ENTITIES
  0
LINE
  5
100
100
AcDbEntity
  8
Layer_1
 62
7
100
AcDbLine
 10
-30.000002
 20
2.000028
 30
0.0
 11
-30.000002
 21
-2.999975
 31
0.0
  0
LINE
  5
101
100
AcDbEntity
  8
Layer_1
 62
7
100
AcDbLine
 10
-30.000002
 20
-2.999975
 30
0.0
 11
-30.000002
 21
-7.999978
 31
0.0
  0
LINE
  5
102
100
AcDbEntity
  8
Layer_1
 62
7
100
AcDbLine
 10
-30.000002
 20
-7.999978
 30
0.0
 11
-30.000002
 21
-12.999981
 31
0.0
  0
LINE
  5
103
100
AcDbEntity
  8
Layer_1
 62
7
100
AcDbLine
 10
-30.000002
 20
-12.999981
 30
0.0
 11
-30.000002
 21
-17.999984
 31
0.0
  0
LINE
  5
104
100
AcDbEntity
  8
Layer_1
 62
7
100
AcDbLine
 10
-30.000002
 20
-17.999984
 30
0.0
 11
-29.608278
 21
-19.949826
 31
0.0
  0
LINE
  5
105
100
AcDbEntity
  8
Layer_1
 62
7
100
AcDbLine
 10
-29.608278
 20
-19.949826
 30
0.0
 11
-28.538740
 21
-21.538734
 31
0.0
  0
LINE
  5
106
100
AcDbEntity
  8
Layer_1
 62
7
100
AcDbLine
 10
-28.538740
 20
-21.538734
 30
0.0
 11
-26.949829
 21
-22.608266
 31
0.0
  0
LINE
  5
107
100
AcDbEntity
  8
Layer_1
 62
7
100
AcDbLine
 10
-26.949829
 20
-22.608266
 30
0.0
 11
-24.999984
 21
-22.999984
 31
0.0
  0
LINE
  5
108
100
AcDbEntity
  8
Layer_1
 62
7
100
AcDbLine
 10
-24.999984
 20
-22.999984
 30
0.0
 11
-12.499989
 21
-22.999984
 31
0.0
  0
LINE
  5
109
100
AcDbEntity
  8
Layer_1
 62
7
100
AcDbLine
 10
-12.499989
 20
-22.999984
 30
0.0
 11
0.000008
 21
-22.999984
 31
0.0
  0
LINE
  5
10a
100
AcDbEntity
  8
Layer_1
 62
7
100
AcDbLine
 10
0.000008
 20
-22.999984
 30
0.0
 11
12.500003
 21
-22.999984
 31
0.0
  0
LINE
  5
10b
100
AcDbEntity
  8
Layer_1
 62
7
100
AcDbLine
 10
12.500003
 20
-22.999984
 30
0.0
 11
25.000001
 21
-22.999984
 31
0.0
  0
LINE
  5
10c
100
AcDbEntity
  8
Layer_1
 62
7
100
AcDbLine
 10
25.000001
 20
-22.999984
 30
0.0
 11
26.949837
 21
-22.608266
 31
0.0
  0
LINE
  5
10d
100
AcDbEntity
  8
Layer_1
 62
7
100
AcDbLine
 10
26.949837
 20
-22.608266
 30
0.0
 11
28.538743
 21
-21.538734
 31
0.0
  0
LINE
  5
10e
100
AcDbEntity
  8
Layer_1
 62
7
100
AcDbLine
 10
28.538743
 20
-21.538734
 30
0.0
 11
29.608278
 21
-19.949826
 31
0.0
  0
LINE
  5
10f
100
AcDbEntity
  8
Layer_1
 62
7
100
AcDbLine
 10
29.608278
 20
-19.949826
 30
0.0
 11
29.999999
 21
-17.999984
 31
0.0
  0
LINE
  5
110
100
AcDbEntity
  8
Layer_1
 62
7
100
AcDbLine
 10
29.999999
 20
-17.999984
 30
0.0
 11
29.999999
 21
-12.999981
 31
0.0
  0
LINE
  5
111
100
AcDbEntity
  8
Layer_1
 62
7
100
AcDbLine
 10
29.999999
 20
-12.999981
 30
0.0
 11
29.999999
 21
-7.999978
 31
0.0
  0
LINE
  5
112
100
AcDbEntity
  8
Layer_1
 62
7
100
AcDbLine
 10
29.999999
 20
-7.999978
 30
0.0
 11
29.999999
 21
-2.999975
 31
0.0
  0
LINE
  5
113
100
AcDbEntity
  8
Layer_1
 62
7
100
AcDbLine
 10
29.999999
 20
-2.999975
 30
0.0
 11
29.999999
 21
2.000028
 31
0.0
  0
LINE
  5
114
100
AcDbEntity
  8
Layer_1
 62
7
100
AcDbLine
 10
29.999999
 20
2.000028
 30
0.0
 11
29.608278
 21
3.949868
 31
0.0
  0
LINE
  5
115
100
AcDbEntity
  8
Layer_1
 62
7
100
AcDbLine
 10
29.608278
 20
3.949868
 30
0.0
 11
28.538743
 21
5.538770
 31
0.0
  0
LINE
  5
116
100
AcDbEntity
  8
Layer_1
 62
7
100
AcDbLine
 10
28.538743
 20
5.538770
 30
0.0
 11
26.949837
 21
6.608298
 31
0.0
  0
LINE
  5
117
100
AcDbEntity
  8
Layer_1
 62
7
100
AcDbLine
 10
26.949837
 20
6.608298
 30
0.0
 11
25.000001
 21
7.000015
 31
0.0
  0
LINE
  5
118
100
AcDbEntity
  8
Layer_1
 62
7
100
AcDbLine
 10
25.000001
 20
7.000015
 30
0.0
 11
21.250001
 21
7.000015
 31
0.0
  0
LINE
  5
119
100
AcDbEntity
  8
Layer_1
 62
7
100
AcDbLine
 10
21.250001
 20
7.000015
 30
0.0
 11
17.500002
 21
7.000015
 31
0.0
  0
LINE
  5
11a
100
AcDbEntity
  8
Layer_1
 62
7
100
AcDbLine
 10
17.500002
 20
7.000015
 30
0.0
 11
13.750002
 21
7.000015
 31
0.0
  0
LINE
  5
11b
100
AcDbEntity
  8
Layer_1
 62
7
100
AcDbLine
 10
13.750002
 20
7.000015
 30
0.0
 11
10.000003
 21
7.000015
 31
0.0
  0
LINE
  5
11c
100
AcDbEntity
  8
Layer_1
 62
7
100
AcDbLine
 10
10.000003
 20
7.000015
 30
0.0
 11
10.000003
 21
6.125015
 31
0.0
  0
LINE
  5
11d
100
AcDbEntity
  8
Layer_1
 62
7
100
AcDbLine
 10
10.000003
 20
6.125015
 30
0.0
 11
10.000003
 21
5.250015
 31
0.0
  0
LINE
  5
11e
100
AcDbEntity
  8
Layer_1
 62
7
100
AcDbLine
 10
10.000003
 20
5.250015
 30
0.0
 11
10.000000
 21
4.375015
 31
0.0
  0
LINE
  5
11f
100
AcDbEntity
  8
Layer_1
 62
7
100
AcDbLine
 10
10.000000
 20
4.375015
 30
0.0
 11
10.000000
 21
3.500015
 31
0.0
  0
LINE
  5
120
100
AcDbEntity
  8
Layer_1
 62
7
100
AcDbLine
 10
10.000000
 20
3.500015
 30
0.0
 11
10.375000
 21
3.500015
 31
0.0
  0
LINE
  5
121
100
AcDbEntity
  8
Layer_1
 62
7
100
AcDbLine
 10
10.375000
 20
3.500015
 30
0.0
 11
10.750002
 21
3.500015
 31
0.0
  0
LINE
  5
122
100
AcDbEntity
  8
Layer_1
 62
7
100
AcDbLine
 10
10.750002
 20
3.500015
 30
0.0
 11
11.125002
 21
3.500015
 31
0.0
  0
LINE
  5
123
100
AcDbEntity
  8
Layer_1
 62
7
100
AcDbLine
 10
11.125002
 20
3.500015
 30
0.0
 11
11.500002
 21
3.500015
 31
0.0
  0
LINE
  5
124
100
AcDbEntity
  8
Layer_1
 62
7
100
AcDbLine
 10
11.500002
 20
3.500015
 30
0.0
 11
11.500002
 21
1.750015
 31
0.0
  0
LINE
  5
125
100
AcDbEntity
  8
Layer_1
 62
7
100
AcDbLine
 10
11.500002
 20
1.750015
 30
0.0
 11
11.500005
 21
0.000015
 31
0.0
  0
LINE
  5
126
100
AcDbEntity
  8
Layer_1
 62
7
100
AcDbLine
 10
11.500005
 20
0.000015
 30
0.0
 11
11.500005
 21
-1.749985
 31
0.0
  0
LINE
  5
127
100
AcDbEntity
  8
Layer_1
 62
7
100
AcDbLine
 10
11.500005
 20
-1.749985
 30
0.0
 11
11.500005
 21
-3.499985
 31
0.0
  0
LINE
  5
128
100
AcDbEntity
  8
Layer_1
 62
7
100
AcDbLine
 10
11.500005
 20
-3.499985
 30
0.0
 11
11.125002
 21
-3.499985
 31
0.0
  0
LINE
  5
129
100
AcDbEntity
  8
Layer_1
 62
7
100
AcDbLine
 10
11.125002
 20
-3.499985
 30
0.0
 11
10.750002
 21
-3.499985
 31
0.0
  0
LINE
  5
12a
100
AcDbEntity
  8
Layer_1
 62
7
100
AcDbLine
 10
10.750002
 20
-3.499985
 30
0.0
 11
10.375003
 21
-3.499985
 31
0.0
  0
LINE
  5
12b
100
AcDbEntity
  8
Layer_1
 62
7
100
AcDbLine
 10
10.375003
 20
-3.499985
 30
0.0
 11
10.000000
 21
-3.499985
 31
0.0
  0
LINE
  5
12c
100
AcDbEntity
  8
Layer_1
 62
7
100
AcDbLine
 10
10.000000
 20
-3.499985
 30
0.0
 11
10.000000
 21
-4.124985
 31
0.0
  0
LINE
  5
12d
100
AcDbEntity
  8
Layer_1
 62
7
100
AcDbLine
 10
10.000000
 20
-4.124985
 30
0.0
 11
10.000000
 21
-4.749985
 31
0.0
  0
LINE
  5
12e
100
AcDbEntity
  8
Layer_1
 62
7
100
AcDbLine
 10
10.000000
 20
-4.749985
 30
0.0
 11
10.000000
 21
-5.374985
 31
0.0
  0
LINE
  5
12f
100
AcDbEntity
  8
Layer_1
 62
7
100
AcDbLine
 10
10.000000
 20
-5.374985
 30
0.0
 11
10.000000
 21
-5.999985
 31
0.0
  0
LINE
  5
130
100
AcDbEntity
  8
Layer_1
 62
7
100
AcDbLine
 10
10.000000
 20
-5.999985
 30
0.0
 11
5.000001
 21
-5.999985
 31
0.0
  0
LINE
  5
131
100
AcDbEntity
  8
Layer_1
 62
7
100
AcDbLine
 10
5.000001
 20
-5.999985
 30
0.0
 11
-0.000000
 21
-5.999985
 31
0.0
  0
LINE
  5
132
100
AcDbEntity
  8
Layer_1
 62
7
100
AcDbLine
 10
-0.000000
 20
-5.999985
 30
0.0
 11
-4.999998
 21
-5.999985
 31
0.0
  0
LINE
  5
133
100
AcDbEntity
  8
Layer_1
 62
7
100
AcDbLine
 10
-4.999998
 20
-5.999985
 30
0.0
 11
-9.999997
 21
-5.999985
 31
0.0
  0
LINE
  5
134
100
AcDbEntity
  8
Layer_1
 62
7
100
AcDbLine
 10
-9.999997
 20
-5.999985
 30
0.0
 11
-9.999997
 21
-5.374985
 31
0.0
  0
LINE
  5
135
100
AcDbEntity
  8
Layer_1
 62
7
100
AcDbLine
 10
-9.999997
 20
-5.374985
 30
0.0
 11
-9.999997
 21
-4.749985
 31
0.0
  0
LINE
  5
136
100
AcDbEntity
  8
Layer_1
 62
7
100
AcDbLine
 10
-9.999997
 20
-4.749985
 30
0.0
 11
-9.999997
 21
-4.124985
 31
0.0
  0
LINE
  5
137
100
AcDbEntity
  8
Layer_1
 62
7
100
AcDbLine
 10
-9.999997
 20
-4.124985
 30
0.0
 11
-9.999997
 21
-3.499985
 31
0.0
  0
LINE
  5
138
100
AcDbEntity
  8
Layer_1
 62
7
100
AcDbLine
 10
-9.999997
 20
-3.499985
 30
0.0
 11
-10.374997
 21
-3.499985
 31
0.0
  0
LINE
  5
139
100
AcDbEntity
  8
Layer_1
 62
7
100
AcDbLine
 10
-10.374997
 20
-3.499985
 30
0.0
 11
-10.749997
 21
-3.499985
 31
0.0
  0
LINE
  5
13a
100
AcDbEntity
  8
Layer_1
 62
7
100
AcDbLine
 10
-10.749997
 20
-3.499985
 30
0.0
 11
-11.124997
 21
-3.499985
 31
0.0
  0
LINE
  5
13b
100
AcDbEntity
  8
Layer_1
 62
7
100
AcDbLine
 10
-11.124997
 20
-3.499985
 30
0.0
 11
-11.499997
 21
-3.499985
 31
0.0
  0
LINE
  5
13c
100
AcDbEntity
  8
Layer_1
 62
7
100
AcDbLine
 10
-11.499997
 20
-3.499985
 30
0.0
 11
-11.499997
 21
-1.749985
 31
0.0
  0
LINE
  5
13d
100
AcDbEntity
  8
Layer_1
 62
7
100
AcDbLine
 10
-11.499997
 20
-1.749985
 30
0.0
 11
-11.499997
 21
0.000015
 31
0.0
  0
LINE
  5
13e
100
AcDbEntity
  8
Layer_1
 62
7
100
AcDbLine
 10
-11.499997
 20
0.000015
 30
0.0
 11
-11.499997
 21
1.750015
 31
0.0
  0
LINE
  5
13f
100
AcDbEntity
  8
Layer_1
 62
7
100
AcDbLine
 10
-11.499997
 20
1.750015
 30
0.0
 11
-11.499997
 21
3.500015
 31
0.0
  0
LINE
  5
140
100
AcDbEntity
  8
Layer_1
 62
7
100
AcDbLine
 10
-11.499997
 20
3.500015
 30
0.0
 11
-11.124997
 21
3.500015
 31
0.0
  0
LINE
  5
141
100
AcDbEntity
  8
Layer_1
 62
7
100
AcDbLine
 10
-11.124997
 20
3.500015
 30
0.0
 11
-10.749997
 21
3.500015
 31
0.0
  0
LINE
  5
142
100
AcDbEntity
  8
Layer_1
 62
7
100
AcDbLine
 10
-10.749997
 20
3.500015
 30
0.0
 11
-10.374997
 21
3.500015
 31
0.0
  0
LINE
  5
143
100
AcDbEntity
  8
Layer_1
 62
7
100
AcDbLine
 10
-10.374997
 20
3.500015
 30
0.0
 11
-9.999997
 21
3.500015
 31
0.0
  0
LINE
  5
144
100
AcDbEntity
  8
Layer_1
 62
7
100
AcDbLine
 10
-9.999997
 20
3.500015
 30
0.0
 11
-9.999997
 21
4.375015
 31
0.0
  0
LINE
  5
145
100
AcDbEntity
  8
Layer_1
 62
7
100
AcDbLine
 10
-9.999997
 20
4.375015
 30
0.0
 11
-10.000000
 21
5.250015
 31
0.0
  0
LINE
  5
146
100
AcDbEntity
  8
Layer_1
 62
7
100
AcDbLine
 10
-10.000000
 20
5.250015
 30
0.0
 11
-10.000003
 21
6.125015
 31
0.0
  0
LINE
  5
147
100
AcDbEntity
  8
Layer_1
 62
7
100
AcDbLine
 10
-10.000003
 20
6.125015
 30
0.0
 11
-10.000003
 21
7.000015
 31
0.0
  0
LINE
  5
148
100
AcDbEntity
  8
Layer_1
 62
7
100
AcDbLine
 10
-10.000003
 20
7.000015
 30
0.0
 11
-13.749999
 21
7.000015
 31
0.0
  0
LINE
  5
149
100
AcDbEntity
  8
Layer_1
 62
7
100
AcDbLine
 10
-13.749999
 20
7.000015
 30
0.0
 11
-17.499985
 21
7.000015
 31
0.0
  0
LINE
  5
14a
100
AcDbEntity
  8
Layer_1
 62
7
100
AcDbLine
 10
-17.499985
 20
7.000015
 30
0.0
 11
-21.249984
 21
7.000015
 31
0.0
  0
LINE
  5
14b
100
AcDbEntity
  8
Layer_1
 62
7
100
AcDbLine
 10
-21.249984
 20
7.000015
 30
0.0
 11
-24.999984
 21
7.000015
 31
0.0
  0
LINE
  5
14c
100
AcDbEntity
  8
Layer_1
 62
7
100
AcDbLine
 10
-24.999984
 20
7.000015
 30
0.0
 11
-26.949829
 21
6.608298
 31
0.0
  0
LINE
  5
14d
100
AcDbEntity
  8
Layer_1
 62
7
100
AcDbLine
 10
-26.949829
 20
6.608298
 30
0.0
 11
-28.538740
 21
5.538770
 31
0.0
  0
LINE
  5
14e
100
AcDbEntity
  8
Layer_1
 62
7
100
AcDbLine
 10
-28.538740
 20
5.538770
 30
0.0
 11
-29.608278
 21
3.949868
 31
0.0
  0
LINE
  5
14f
100
AcDbEntity
  8
Layer_1
 62
7
100
AcDbLine
 10
-29.608278
 20
3.949868
 30
0.0
 11
-30.000002
 21
2.000028
 31
0.0
  0
LINE
  5
150
100
AcDbEntity
  8
Layer_1
 62
7
100
AcDbLine
 10
25.000000
 20
-9.999989
 30
0.0
 11
24.221510
 21
-9.842819
 31
0.0
  0
LINE
  5
151
100
AcDbEntity
  8
Layer_1
 62
7
100
AcDbLine
 10
24.221510
 20
-9.842819
 30
0.0
 11
23.585787
 21
-9.414202
 31
0.0
  0
LINE
  5
152
100
AcDbEntity
  8
Layer_1
 62
7
100
AcDbLine
 10
23.585787
 20
-9.414202
 30
0.0
 11
23.157170
 21
-8.778479
 31
0.0
  0
LINE
  5
153
100
AcDbEntity
  8
Layer_1
 62
7
100
AcDbLine
 10
23.157170
 20
-8.778479
 30
0.0
 11
23.000000
 21
-7.999989
 31
0.0
  0
LINE
  5
154
100
AcDbEntity
  8
Layer_1
 62
7
100
AcDbLine
 10
23.000000
 20
-7.999989
 30
0.0
 11
23.157170
 21
-7.221499
 31
0.0
  0
LINE
  5
155
100
AcDbEntity
  8
Layer_1
 62
7
100
AcDbLine
 10
23.157170
 20
-7.221499
 30
0.0
 11
23.585787
 21
-6.585775
 31
0.0
  0
LINE
  5
156
100
AcDbEntity
  8
Layer_1
 62
7
100
AcDbLine
 10
23.585787
 20
-6.585775
 30
0.0
 11
24.221510
 21
-6.157159
 31
0.0
  0
LINE
  5
157
100
AcDbEntity
  8
Layer_1
 62
7
100
AcDbLine
 10
24.221510
 20
-6.157159
 30
0.0
 11
25.000000
 21
-5.999989
 31
0.0
  0
LINE
  5
158
100
AcDbEntity
  8
Layer_1
 62
7
100
AcDbLine
 10
25.000000
 20
-5.999989
 30
0.0
 11
25.778490
 21
-6.157159
 31
0.0
  0
LINE
  5
159
100
AcDbEntity
  8
Layer_1
 62
7
100
AcDbLine
 10
25.778490
 20
-6.157159
 30
0.0
 11
26.414213
 21
-6.585775
 31
0.0
  0
LINE
  5
15a
100
AcDbEntity
  8
Layer_1
 62
7
100
AcDbLine
 10
26.414213
 20
-6.585775
 30
0.0
 11
26.842830
 21
-7.221499
 31
0.0
  0
LINE
  5
15b
100
AcDbEntity
  8
Layer_1
 62
7
100
AcDbLine
 10
26.842830
 20
-7.221499
 30
0.0
 11
27.000000
 21
-7.999989
 31
0.0
  0
LINE
  5
15c
100
AcDbEntity
  8
Layer_1
 62
7
100
AcDbLine
 10
27.000000
 20
-7.999989
 30
0.0
 11
26.842830
 21
-8.778479
 31
0.0
  0
LINE
  5
15d
100
AcDbEntity
  8
Layer_1
 62
7
100
AcDbLine
 10
26.842830
 20
-8.778479
 30
0.0
 11
26.414213
 21
-9.414202
 31
0.0
  0
LINE
  5
15e
100
AcDbEntity
  8
Layer_1
 62
7
100
AcDbLine
 10
26.414213
 20
-9.414202
 30
0.0
 11
25.778490
 21
-9.842819
 31
0.0
  0
LINE
  5
15f
100
AcDbEntity
  8
Layer_1
 62
7
100
AcDbLine
 10
25.778490
 20
-9.842819
 30
0.0
 11
25.000000
 21
-9.999989
 31
0.0
  0
LINE
  5
160
100
AcDbEntity
  8
Layer_1
 62
7
100
AcDbLine
 10
25.000000
 20
0.000011
 30
0.0
 11
24.221510
 21
0.157181
 31
0.0
  0
LINE
  5
161
100
AcDbEntity
  8
Layer_1
 62
7
100
AcDbLine
 10
24.221510
 20
0.157181
 30
0.0
 11
23.585787
 21
0.585798
 31
0.0
  0
LINE
  5
162
100
AcDbEntity
  8
Layer_1
 62
7
100
AcDbLine
 10
23.585787
 20
0.585798
 30
0.0
 11
23.157170
 21
1.221521
 31
0.0
  0
LINE
  5
163
100
AcDbEntity
  8
Layer_1
 62
7
100
AcDbLine
 10
23.157170
 20
1.221521
 30
0.0
 11
23.000000
 21
2.000011
 31
0.0
  0
LINE
  5
164
100
AcDbEntity
  8
Layer_1
 62
7
100
AcDbLine
 10
23.000000
 20
2.000011
 30
0.0
 11
23.157170
 21
2.778502
 31
0.0
  0
LINE
  5
165
100
AcDbEntity
  8
Layer_1
 62
7
100
AcDbLine
 10
23.157170
 20
2.778502
 30
0.0
 11
23.585787
 21
3.414225
 31
0.0
  0
LINE
  5
166
100
AcDbEntity
  8
Layer_1
 62
7
100
AcDbLine
 10
23.585787
 20
3.414225
 30
0.0
 11
24.221510
 21
3.842841
 31
0.0
  0
LINE
  5
167
100
AcDbEntity
  8
Layer_1
 62
7
100
AcDbLine
 10
24.221510
 20
3.842841
 30
0.0
 11
25.000000
 21
4.000011
 31
0.0
  0
LINE
  5
168
100
AcDbEntity
  8
Layer_1
 62
7
100
AcDbLine
 10
25.000000
 20
4.000011
 30
0.0
 11
25.778490
 21
3.842841
 31
0.0
  0
LINE
  5
169
100
AcDbEntity
  8
Layer_1
 62
7
100
AcDbLine
 10
25.778490
 20
3.842841
 30
0.0
 11
26.414213
 21
3.414225
 31
0.0
  0
LINE
  5
16a
100
AcDbEntity
  8
Layer_1
 62
7
100
AcDbLine
 10
26.414213
 20
3.414225
 30
0.0
 11
26.842830
 21
2.778502
 31
0.0
  0
LINE
  5
16b
100
AcDbEntity
  8
Layer_1
 62
7
100
AcDbLine
 10
26.842830
 20
2.778502
 30
0.0
 11
27.000000
 21
2.000011
 31
0.0
  0
LINE
  5
16c
100
AcDbEntity
  8
Layer_1
 62
7
100
AcDbLine
 10
27.000000
 20
2.000011
 30
0.0
 11
26.842830
 21
1.221521
 31
0.0
  0
LINE
  5
16d
100
AcDbEntity
  8
Layer_1
 62
7
100
AcDbLine
 10
26.842830
 20
1.221521
 30
0.0
 11
26.414213
 21
0.585798
 31
0.0
  0
LINE
  5
16e
100
AcDbEntity
  8
Layer_1
 62
7
100
AcDbLine
 10
26.414213
 20
0.585798
 30
0.0
 11
25.778490
 21
0.157181
 31
0.0
  0
LINE
  5
16f
100
AcDbEntity
  8
Layer_1
 62
7
100
AcDbLine
 10
25.778490
 20
0.157181
 30
0.0
 11
25.000000
 21
0.000011
 31
0.0
  0
LINE
  5
170
100
AcDbEntity
  8
Layer_1
 62
7
100
AcDbLine
 10
15.000000
 20
-19.999989
 30
0.0
 11
14.221510
 21
-19.842819
 31
0.0
  0
LINE
  5
171
100
AcDbEntity
  8
Layer_1
 62
7
100
AcDbLine
 10
14.221510
 20
-19.842819
 30
0.0
 11
13.585787
 21
-19.414202
 31
0.0
  0
LINE
  5
172
100
AcDbEntity
  8
Layer_1
 62
7
100
AcDbLine
 10
13.585787
 20
-19.414202
 30
0.0
 11
13.157170
 21
-18.778479
 31
0.0
  0
LINE
  5
173
100
AcDbEntity
  8
Layer_1
 62
7
100
AcDbLine
 10
13.157170
 20
-18.778479
 30
0.0
 11
13.000000
 21
-17.999989
 31
0.0
  0
LINE
  5
174
100
AcDbEntity
  8
Layer_1
 62
7
100
AcDbLine
 10
13.000000
 20
-17.999989
 30
0.0
 11
13.157170
 21
-17.221499
 31
0.0
  0
LINE
  5
175
100
AcDbEntity
  8
Layer_1
 62
7
100
AcDbLine
 10
13.157170
 20
-17.221499
 30
0.0
 11
13.585787
 21
-16.585775
 31
0.0
  0
LINE
  5
176
100
AcDbEntity
  8
Layer_1
 62
7
100
AcDbLine
 10
13.585787
 20
-16.585775
 30
0.0
 11
14.221510
 21
-16.157159
 31
0.0
  0
LINE
  5
177
100
AcDbEntity
  8
Layer_1
 62
7
100
AcDbLine
 10
14.221510
 20
-16.157159
 30
0.0
 11
15.000000
 21
-15.999989
 31
0.0
  0
LINE
  5
178
100
AcDbEntity
  8
Layer_1
 62
7
100
AcDbLine
 10
15.000000
 20
-15.999989
 30
0.0
 11
15.778490
 21
-16.157159
 31
0.0
  0
LINE
  5
179
100
AcDbEntity
  8
Layer_1
 62
7
100
AcDbLine
 10
15.778490
 20
-16.157159
 30
0.0
 11
16.414213
 21
-16.585775
 31
0.0
  0
LINE
  5
17a
100
AcDbEntity
  8
Layer_1
 62
7
100
AcDbLine
 10
16.414213
 20
-16.585775
 30
0.0
 11
16.842830
 21
-17.221499
 31
0.0
  0
LINE
  5
17b
100
AcDbEntity
  8
Layer_1
 62
7
100
AcDbLine
 10
16.842830
 20
-17.221499
 30
0.0
 11
17.000000
 21
-17.999989
 31
0.0
  0
LINE
  5
17c
100
AcDbEntity
  8
Layer_1
 62
7
100
AcDbLine
 10
17.000000
 20
-17.999989
 30
0.0
 11
16.842830
 21
-18.778479
 31
0.0
  0
LINE
  5
17d
100
AcDbEntity
  8
Layer_1
 62
7
100
AcDbLine
 10
16.842830
 20
-18.778479
 30
0.0
 11
16.414213
 21
-19.414202
 31
0.0
  0
LINE
  5
17e
100
AcDbEntity
  8
Layer_1
 62
7
100
AcDbLine
 10
16.414213
 20
-19.414202
 30
0.0
 11
15.778490
 21
-19.842819
 31
0.0
  0
LINE
  5
17f
100
AcDbEntity
  8
Layer_1
 62
7
100
AcDbLine
 10
15.778490
 20
-19.842819
 30
0.0
 11
15.000000
 21
-19.999989
 31
0.0
  0
LINE
  5
180
100
AcDbEntity
  8
Layer_1
 62
7
100
AcDbLine
 10
25.000000
 20
-19.999989
 30
0.0
 11
24.221510
 21
-19.842819
 31
0.0
  0
LINE
  5
181
100
AcDbEntity
  8
Layer_1
 62
7
100
AcDbLine
 10
24.221510
 20
-19.842819
 30
0.0
 11
23.585787
 21
-19.414202
 31
0.0
  0
LINE
  5
182
100
AcDbEntity
  8
Layer_1
 62
7
100
AcDbLine
 10
23.585787
 20
-19.414202
 30
0.0
 11
23.157170
 21
-18.778479
 31
0.0
  0
LINE
  5
183
100
AcDbEntity
  8
Layer_1
 62
7
100
AcDbLine
 10
23.157170
 20
-18.778479
 30
0.0
 11
23.000000
 21
-17.999989
 31
0.0
  0
LINE
  5
184
100
AcDbEntity
  8
Layer_1
 62
7
100
AcDbLine
 10
23.000000
 20
-17.999989
 30
0.0
 11
23.157170
 21
-17.221499
 31
0.0
  0
LINE
  5
185
100
AcDbEntity
  8
Layer_1
 62
7
100
AcDbLine
 10
23.157170
 20
-17.221499
 30
0.0
 11
23.585787
 21
-16.585775
 31
0.0
  0
LINE
  5
186
100
AcDbEntity
  8
Layer_1
 62
7
100
AcDbLine
 10
23.585787
 20
-16.585775
 30
0.0
 11
24.221510
 21
-16.157159
 31
0.0
  0
LINE
  5
187
100
AcDbEntity
  8
Layer_1
 62
7
100
AcDbLine
 10
24.221510
 20
-16.157159
 30
0.0
 11
25.000000
 21
-15.999989
 31
0.0
  0
LINE
  5
188
100
AcDbEntity
  8
Layer_1
 62
7
100
AcDbLine
 10
25.000000
 20
-15.999989
 30
0.0
 11
25.778490
 21
-16.157159
 31
0.0
  0
LINE
  5
189
100
AcDbEntity
  8
Layer_1
 62
7
100
AcDbLine
 10
25.778490
 20
-16.157159
 30
0.0
 11
26.414213
 21
-16.585775
 31
0.0
  0
LINE
  5
18a
100
AcDbEntity
  8
Layer_1
 62
7
100
AcDbLine
 10
26.414213
 20
-16.585775
 30
0.0
 11
26.842830
 21
-17.221499
 31
0.0
  0
LINE
  5
18b
100
AcDbEntity
  8
Layer_1
 62
7
100
AcDbLine
 10
26.842830
 20
-17.221499
 30
0.0
 11
27.000000
 21
-17.999989
 31
0.0
  0
LINE
  5
18c
100
AcDbEntity
  8
Layer_1
 62
7
100
AcDbLine
 10
27.000000
 20
-17.999989
 30
0.0
 11
26.842830
 21
-18.778479
 31
0.0
  0
LINE
  5
18d
100
AcDbEntity
  8
Layer_1
 62
7
100
AcDbLine
 10
26.842830
 20
-18.778479
 30
0.0
 11
26.414213
 21
-19.414202
 31
0.0
  0
LINE
  5
18e
100
AcDbEntity
  8
Layer_1
 62
7
100
AcDbLine
 10
26.414213
 20
-19.414202
 30
0.0
 11
25.778490
 21
-19.842819
 31
0.0
  0
LINE
  5
18f
100
AcDbEntity
  8
Layer_1
 62
7
100
AcDbLine
 10
25.778490
 20
-19.842819
 30
0.0
 11
25.000000
 21
-19.999989
 31
0.0
  0
LINE
  5
190
100
AcDbEntity
  8
Layer_1
 62
7
100
AcDbLine
 10
-4.999999
 20
-19.999988
 30
0.0
 11
-5.778489
 21
-19.842818
 31
0.0
  0
LINE
  5
191
100
AcDbEntity
  8
Layer_1
 62
7
100
AcDbLine
 10
-5.778489
 20
-19.842818
 30
0.0
 11
-6.414213
 21
-19.414201
 31
0.0
  0
LINE
  5
192
100
AcDbEntity
  8
Layer_1
 62
7
100
AcDbLine
 10
-6.414213
 20
-19.414201
 30
0.0
 11
-6.842830
 21
-18.778478
 31
0.0
  0
LINE
  5
193
100
AcDbEntity
  8
Layer_1
 62
7
100
AcDbLine
 10
-6.842830
 20
-18.778478
 30
0.0
 11
-6.999999
 21
-17.999988
 31
0.0
  0
LINE
  5
194
100
AcDbEntity
  8
Layer_1
 62
7
100
AcDbLine
 10
-6.999999
 20
-17.999988
 30
0.0
 11
-6.842830
 21
-17.221497
 31
0.0
  0
LINE
  5
195
100
AcDbEntity
  8
Layer_1
 62
7
100
AcDbLine
 10
-6.842830
 20
-17.221497
 30
0.0
 11
-6.414213
 21
-16.585774
 31
0.0
  0
LINE
  5
196
100
AcDbEntity
  8
Layer_1
 62
7
100
AcDbLine
 10
-6.414213
 20
-16.585774
 30
0.0
 11
-5.778489
 21
-16.157158
 31
0.0
  0
LINE
  5
197
100
AcDbEntity
  8
Layer_1
 62
7
100
AcDbLine
 10
-5.778489
 20
-16.157158
 30
0.0
 11
-4.999999
 21
-15.999988
 31
0.0
  0
LINE
  5
198
100
AcDbEntity
  8
Layer_1
 62
7
100
AcDbLine
 10
-4.999999
 20
-15.999988
 30
0.0
 11
-4.221510
 21
-16.157158
 31
0.0
  0
LINE
  5
199
100
AcDbEntity
  8
Layer_1
 62
7
100
AcDbLine
 10
-4.221510
 20
-16.157158
 30
0.0
 11
-3.585786
 21
-16.585774
 31
0.0
  0
LINE
  5
19a
100
AcDbEntity
  8
Layer_1
 62
7
100
AcDbLine
 10
-3.585786
 20
-16.585774
 30
0.0
 11
-3.157169
 21
-17.221497
 31
0.0
  0
LINE
  5
19b
100
AcDbEntity
  8
Layer_1
 62
7
100
AcDbLine
 10
-3.157169
 20
-17.221497
 30
0.0
 11
-3.000000
 21
-17.999988
 31
0.0
  0
LINE
  5
19c
100
AcDbEntity
  8
Layer_1
 62
7
100
AcDbLine
 10
-3.000000
 20
-17.999988
 30
0.0
 11
-3.157169
 21
-18.778478
 31
0.0
  0
LINE
  5
19d
100
AcDbEntity
  8
Layer_1
 62
7
100
AcDbLine
 10
-3.157169
 20
-18.778478
 30
0.0
 11
-3.585786
 21
-19.414201
 31
0.0
  0
LINE
  5
19e
100
AcDbEntity
  8
Layer_1
 62
7
100
AcDbLine
 10
-3.585786
 20
-19.414201
 30
0.0
 11
-4.221510
 21
-19.842818
 31
0.0
  0
LINE
  5
19f
100
AcDbEntity
  8
Layer_1
 62
7
100
AcDbLine
 10
-4.221510
 20
-19.842818
 30
0.0
 11
-4.999999
 21
-19.999988
 31
0.0
  0
LINE
  5
1a0
100
AcDbEntity
  8
Layer_1
 62
7
100
AcDbLine
 10
5.000000
 20
-19.999988
 30
0.0
 11
4.221511
 21
-19.842818
 31
0.0
  0
LINE
  5
1a1
100
AcDbEntity
  8
Layer_1
 62
7
100
AcDbLine
 10
4.221511
 20
-19.842818
 30
0.0
 11
3.585787
 21
-19.414201
 31
0.0
  0
LINE
  5
1a2
100
AcDbEntity
  8
Layer_1
 62
7
100
AcDbLine
 10
3.585787
 20
-19.414201
 30
0.0
 11
3.157170
 21
-18.778478
 31
0.0
  0
LINE
  5
1a3
100
AcDbEntity
  8
Layer_1
 62
7
100
AcDbLine
 10
3.157170
 20
-18.778478
 30
0.0
 11
3.000000
 21
-17.999988
 31
0.0
  0
LINE
  5
1a4
100
AcDbEntity
  8
Layer_1
 62
7
100
AcDbLine
 10
3.000000
 20
-17.999988
 30
0.0
 11
3.157170
 21
-17.221497
 31
0.0
  0
LINE
  5
1a5
100
AcDbEntity
  8
Layer_1
 62
7
100
AcDbLine
 10
3.157170
 20
-17.221497
 30
0.0
 11
3.585787
 21
-16.585774
 31
0.0
  0
LINE
  5
1a6
100
AcDbEntity
  8
Layer_1
 62
7
100
AcDbLine
 10
3.585787
 20
-16.585774
 30
0.0
 11
4.221511
 21
-16.157158
 31
0.0
  0
LINE
  5
1a7
100
AcDbEntity
  8
Layer_1
 62
7
100
AcDbLine
 10
4.221511
 20
-16.157158
 30
0.0
 11
5.000000
 21
-15.999988
 31
0.0
  0
LINE
  5
1a8
100
AcDbEntity
  8
Layer_1
 62
7
100
AcDbLine
 10
5.000000
 20
-15.999988
 30
0.0
 11
5.778490
 21
-16.157158
 31
0.0
  0
LINE
  5
1a9
100
AcDbEntity
  8
Layer_1
 62
7
100
AcDbLine
 10
5.778490
 20
-16.157158
 30
0.0
 11
6.414213
 21
-16.585774
 31
0.0
  0
LINE
  5
1aa
100
AcDbEntity
  8
Layer_1
 62
7
100
AcDbLine
 10
6.414213
 20
-16.585774
 30
0.0
 11
6.842830
 21
-17.221497
 31
0.0
  0
LINE
  5
1ab
100
AcDbEntity
  8
Layer_1
 62
7
100
AcDbLine
 10
6.842830
 20
-17.221497
 30
0.0
 11
7.000000
 21
-17.999988
 31
0.0
  0
LINE
  5
1ac
100
AcDbEntity
  8
Layer_1
 62
7
100
AcDbLine
 10
7.000000
 20
-17.999988
 30
0.0
 11
6.842830
 21
-18.778478
 31
0.0
  0
LINE
  5
1ad
100
AcDbEntity
  8
Layer_1
 62
7
100
AcDbLine
 10
6.842830
 20
-18.778478
 30
0.0
 11
6.414213
 21
-19.414201
 31
0.0
  0
LINE
  5
1ae
100
AcDbEntity
  8
Layer_1
 62
7
100
AcDbLine
 10
6.414213
 20
-19.414201
 30
0.0
 11
5.778490
 21
-19.842818
 31
0.0
  0
LINE
  5
1af
100
AcDbEntity
  8
Layer_1
 62
7
100
AcDbLine
 10
5.778490
 20
-19.842818
 30
0.0
 11
5.000000
 21
-19.999988
 31
0.0
  0
LINE
  5
1b0
100
AcDbEntity
  8
Layer_1
 62
7
100
AcDbLine
 10
-24.999999
 20
-9.999987
 30
0.0
 11
-25.778489
 21
-9.842817
 31
0.0
  0
LINE
  5
1b1
100
AcDbEntity
  8
Layer_1
 62
7
100
AcDbLine
 10
-25.778489
 20
-9.842817
 30
0.0
 11
-26.414212
 21
-9.414201
 31
0.0
  0
LINE
  5
1b2
100
AcDbEntity
  8
Layer_1
 62
7
100
AcDbLine
 10
-26.414212
 20
-9.414201
 30
0.0
 11
-26.842829
 21
-8.778477
 31
0.0
  0
LINE
  5
1b3
100
AcDbEntity
  8
Layer_1
 62
7
100
AcDbLine
 10
-26.842829
 20
-8.778477
 30
0.0
 11
-26.999999
 21
-7.999987
 31
0.0
  0
LINE
  5
1b4
100
AcDbEntity
  8
Layer_1
 62
7
100
AcDbLine
 10
-26.999999
 20
-7.999987
 30
0.0
 11
-26.842829
 21
-7.221497
 31
0.0
  0
LINE
  5
1b5
100
AcDbEntity
  8
Layer_1
 62
7
100
AcDbLine
 10
-26.842829
 20
-7.221497
 30
0.0
 11
-26.414212
 21
-6.585774
 31
0.0
  0
LINE
  5
1b6
100
AcDbEntity
  8
Layer_1
 62
7
100
AcDbLine
 10
-26.414212
 20
-6.585774
 30
0.0
 11
-25.778489
 21
-6.157157
 31
0.0
  0
LINE
  5
1b7
100
AcDbEntity
  8
Layer_1
 62
7
100
AcDbLine
 10
-25.778489
 20
-6.157157
 30
0.0
 11
-24.999999
 21
-5.999987
 31
0.0
  0
LINE
  5
1b8
100
AcDbEntity
  8
Layer_1
 62
7
100
AcDbLine
 10
-24.999999
 20
-5.999987
 30
0.0
 11
-24.221509
 21
-6.157157
 31
0.0
  0
LINE
  5
1b9
100
AcDbEntity
  8
Layer_1
 62
7
100
AcDbLine
 10
-24.221509
 20
-6.157157
 30
0.0
 11
-23.585786
 21
-6.585773
 31
0.0
  0
LINE
  5
1ba
100
AcDbEntity
  8
Layer_1
 62
7
100
AcDbLine
 10
-23.585786
 20
-6.585773
 30
0.0
 11
-23.157169
 21
-7.221497
 31
0.0
  0
LINE
  5
1bb
100
AcDbEntity
  8
Layer_1
 62
7
100
AcDbLine
 10
-23.157169
 20
-7.221497
 30
0.0
 11
-22.999999
 21
-7.999987
 31
0.0
  0
LINE
  5
1bc
100
AcDbEntity
  8
Layer_1
 62
7
100
AcDbLine
 10
-22.999999
 20
-7.999987
 30
0.0
 11
-23.157169
 21
-8.778477
 31
0.0
  0
LINE
  5
1bd
100
AcDbEntity
  8
Layer_1
 62
7
100
AcDbLine
 10
-23.157169
 20
-8.778477
 30
0.0
 11
-23.585786
 21
-9.414201
 31
0.0
  0
LINE
  5
1be
100
AcDbEntity
  8
Layer_1
 62
7
100
AcDbLine
 10
-23.585786
 20
-9.414201
 30
0.0
 11
-24.221509
 21
-9.842817
 31
0.0
  0
LINE
  5
1bf
100
AcDbEntity
  8
Layer_1
 62
7
100
AcDbLine
 10
-24.221509
 20
-9.842817
 30
0.0
 11
-24.999999
 21
-9.999987
 31
0.0
  0
LINE
  5
1c0
100
AcDbEntity
  8
Layer_1
 62
7
100
AcDbLine
 10
-24.999999
 20
0.000013
 30
0.0
 11
-25.778489
 21
0.157183
 31
0.0
  0
LINE
  5
1c1
100
AcDbEntity
  8
Layer_1
 62
7
100
AcDbLine
 10
-25.778489
 20
0.157183
 30
0.0
 11
-26.414212
 21
0.585799
 31
0.0
  0
LINE
  5
1c2
100
AcDbEntity
  8
Layer_1
 62
7
100
AcDbLine
 10
-26.414212
 20
0.585799
 30
0.0
 11
-26.842829
 21
1.221523
 31
0.0
  0
LINE
  5
1c3
100
AcDbEntity
  8
Layer_1
 62
7
100
AcDbLine
 10
-26.842829
 20
1.221523
 30
0.0
 11
-26.999999
 21
2.000013
 31
0.0
  0
LINE
  5
1c4
100
AcDbEntity
  8
Layer_1
 62
7
100
AcDbLine
 10
-26.999999
 20
2.000013
 30
0.0
 11
-26.842829
 21
2.778503
 31
0.0
  0
LINE
  5
1c5
100
AcDbEntity
  8
Layer_1
 62
7
100
AcDbLine
 10
-26.842829
 20
2.778503
 30
0.0
 11
-26.414212
 21
3.414226
 31
0.0
  0
LINE
  5
1c6
100
AcDbEntity
  8
Layer_1
 62
7
100
AcDbLine
 10
-26.414212
 20
3.414226
 30
0.0
 11
-25.778489
 21
3.842843
 31
0.0
  0
LINE
  5
1c7
100
AcDbEntity
  8
Layer_1
 62
7
100
AcDbLine
 10
-25.778489
 20
3.842843
 30
0.0
 11
-24.999999
 21
4.000013
 31
0.0
  0
LINE
  5
1c8
100
AcDbEntity
  8
Layer_1
 62
7
100
AcDbLine
 10
-24.999999
 20
4.000013
 30
0.0
 11
-24.221509
 21
3.842843
 31
0.0
  0
LINE
  5
1c9
100
AcDbEntity
  8
Layer_1
 62
7
100
AcDbLine
 10
-24.221509
 20
3.842843
 30
0.0
 11
-23.585786
 21
3.414227
 31
0.0
  0
LINE
  5
1ca
100
AcDbEntity
  8
Layer_1
 62
7
100
AcDbLine
 10
-23.585786
 20
3.414227
 30
0.0
 11
-23.157169
 21
2.778503
 31
0.0
  0
LINE
  5
1cb
100
AcDbEntity
  8
Layer_1
 62
7
100
AcDbLine
 10
-23.157169
 20
2.778503
 30
0.0
 11
-22.999999
 21
2.000013
 31
0.0
  0
LINE
  5
1cc
100
AcDbEntity
  8
Layer_1
 62
7
100
AcDbLine
 10
-22.999999
 20
2.000013
 30
0.0
 11
-23.157169
 21
1.221523
 31
0.0
  0
LINE
  5
1cd
100
AcDbEntity
  8
Layer_1
 62
7
100
AcDbLine
 10
-23.157169
 20
1.221523
 30
0.0
 11
-23.585786
 21
0.585799
 31
0.0
  0
LINE
  5
1ce
100
AcDbEntity
  8
Layer_1
 62
7
100
AcDbLine
 10
-23.585786
 20
0.585799
 30
0.0
 11
-24.221509
 21
0.157183
 31
0.0
  0
LINE
  5
1cf
100
AcDbEntity
  8
Layer_1
 62
7
100
AcDbLine
 10
-24.221509
 20
0.157183
 30
0.0
 11
-24.999999
 21
0.000013
 31
0.0
  0
LINE
  5
1d0
100
AcDbEntity
  8
Layer_1
 62
7
100
AcDbLine
 10
-24.999999
 20
-19.999987
 30
0.0
 11
-25.778489
 21
-19.842817
 31
0.0
  0
LINE
  5
1d1
100
AcDbEntity
  8
Layer_1
 62
7
100
AcDbLine
 10
-25.778489
 20
-19.842817
 30
0.0
 11
-26.414212
 21
-19.414201
 31
0.0
  0
LINE
  5
1d2
100
AcDbEntity
  8
Layer_1
 62
7
100
AcDbLine
 10
-26.414212
 20
-19.414201
 30
0.0
 11
-26.842829
 21
-18.778477
 31
0.0
  0
LINE
  5
1d3
100
AcDbEntity
  8
Layer_1
 62
7
100
AcDbLine
 10
-26.842829
 20
-18.778477
 30
0.0
 11
-26.999999
 21
-17.999987
 31
0.0
  0
LINE
  5
1d4
100
AcDbEntity
  8
Layer_1
 62
7
100
AcDbLine
 10
-26.999999
 20
-17.999987
 30
0.0
 11
-26.842829
 21
-17.221497
 31
0.0
  0
LINE
  5
1d5
100
AcDbEntity
  8
Layer_1
 62
7
100
AcDbLine
 10
-26.842829
 20
-17.221497
 30
0.0
 11
-26.414212
 21
-16.585774
 31
0.0
  0
LINE
  5
1d6
100
AcDbEntity
  8
Layer_1
 62
7
100
AcDbLine
 10
-26.414212
 20
-16.585774
 30
0.0
 11
-25.778489
 21
-16.157157
 31
0.0
  0
LINE
  5
1d7
100
AcDbEntity
  8
Layer_1
 62
7
100
AcDbLine
 10
-25.778489
 20
-16.157157
 30
0.0
 11
-24.999999
 21
-15.999987
 31
0.0
  0
LINE
  5
1d8
100
AcDbEntity
  8
Layer_1
 62
7
100
AcDbLine
 10
-24.999999
 20
-15.999987
 30
0.0
 11
-24.221509
 21
-16.157157
 31
0.0
  0
LINE
  5
1d9
100
AcDbEntity
  8
Layer_1
 62
7
100
AcDbLine
 10
-24.221509
 20
-16.157157
 30
0.0
 11
-23.585786
 21
-16.585773
 31
0.0
  0
LINE
  5
1da
100
AcDbEntity
  8
Layer_1
 62
7
100
AcDbLine
 10
-23.585786
 20
-16.585773
 30
0.0
 11
-23.157169
 21
-17.221497
 31
0.0
  0
LINE
  5
1db
100
AcDbEntity
  8
Layer_1
 62
7
100
AcDbLine
 10
-23.157169
 20
-17.221497
 30
0.0
 11
-22.999999
 21
-17.999987
 31
0.0
  0
LINE
  5
1dc
100
AcDbEntity
  8
Layer_1
 62
7
100
AcDbLine
 10
-22.999999
 20
-17.999987
 30
0.0
 11
-23.157169
 21
-18.778477
 31
0.0
  0
LINE
  5
1dd
100
AcDbEntity
  8
Layer_1
 62
7
100
AcDbLine
 10
-23.157169
 20
-18.778477
 30
0.0
 11
-23.585786
 21
-19.414201
 31
0.0
  0
LINE
  5
1de
100
AcDbEntity
  8
Layer_1
 62
7
100
AcDbLine
 10
-23.585786
 20
-19.414201
 30
0.0
 11
-24.221509
 21
-19.842817
 31
0.0
  0
LINE
  5
1df
100
AcDbEntity
  8
Layer_1
 62
7
100
AcDbLine
 10
-24.221509
 20
-19.842817
 30
0.0
 11
-24.999999
 21
-19.999987
 31
0.0
  0
LINE
  5
1e0
100
AcDbEntity
  8
Layer_1
 62
7
100
AcDbLine
 10
-14.999999
 20
-19.999987
 30
0.0
 11
-15.778489
 21
-19.842817
 31
0.0
  0
LINE
  5
1e1
100
AcDbEntity
  8
Layer_1
 62
7
100
AcDbLine
 10
-15.778489
 20
-19.842817
 30
0.0
 11
-16.414212
 21
-19.414201
 31
0.0
  0
LINE
  5
1e2
100
AcDbEntity
  8
Layer_1
 62
7
100
AcDbLine
 10
-16.414212
 20
-19.414201
 30
0.0
 11
-16.842829
 21
-18.778477
 31
0.0
  0
LINE
  5
1e3
100
AcDbEntity
  8
Layer_1
 62
7
100
AcDbLine
 10
-16.842829
 20
-18.778477
 30
0.0
 11
-16.999999
 21
-17.999987
 31
0.0
  0
LINE
  5
1e4
100
AcDbEntity
  8
Layer_1
 62
7
100
AcDbLine
 10
-16.999999
 20
-17.999987
 30
0.0
 11
-16.842829
 21
-17.221497
 31
0.0
  0
LINE
  5
1e5
100
AcDbEntity
  8
Layer_1
 62
7
100
AcDbLine
 10
-16.842829
 20
-17.221497
 30
0.0
 11
-16.414212
 21
-16.585774
 31
0.0
  0
LINE
  5
1e6
100
AcDbEntity
  8
Layer_1
 62
7
100
AcDbLine
 10
-16.414212
 20
-16.585774
 30
0.0
 11
-15.778489
 21
-16.157157
 31
0.0
  0
LINE
  5
1e7
100
AcDbEntity
  8
Layer_1
 62
7
100
AcDbLine
 10
-15.778489
 20
-16.157157
 30
0.0
 11
-14.999999
 21
-15.999987
 31
0.0
  0
LINE
  5
1e8
100
AcDbEntity
  8
Layer_1
 62
7
100
AcDbLine
 10
-14.999999
 20
-15.999987
 30
0.0
 11
-14.221509
 21
-16.157157
 31
0.0
  0
LINE
  5
1e9
100
AcDbEntity
  8
Layer_1
 62
7
100
AcDbLine
 10
-14.221509
 20
-16.157157
 30
0.0
 11
-13.585786
 21
-16.585773
 31
0.0
  0
LINE
  5
1ea
100
AcDbEntity
  8
Layer_1
 62
7
100
AcDbLine
 10
-13.585786
 20
-16.585773
 30
0.0
 11
-13.157169
 21
-17.221497
 31
0.0
  0
LINE
  5
1eb
100
AcDbEntity
  8
Layer_1
 62
7
100
AcDbLine
 10
-13.157169
 20
-17.221497
 30
0.0
 11
-12.999999
 21
-17.999987
 31
0.0
  0
LINE
  5
1ec
100
AcDbEntity
  8
Layer_1
 62
7
100
AcDbLine
 10
-12.999999
 20
-17.999987
 30
0.0
 11
-13.157169
 21
-18.778477
 31
0.0
  0
LINE
  5
1ed
100
AcDbEntity
  8
Layer_1
 62
7
100
AcDbLine
 10
-13.157169
 20
-18.778477
 30
0.0
 11
-13.585786
 21
-19.414201
 31
0.0
  0
LINE
  5
1ee
100
AcDbEntity
  8
Layer_1
 62
7
100
AcDbLine
 10
-13.585786
 20
-19.414201
 30
0.0
 11
-14.221509
 21
-19.842817
 31
0.0
  0
LINE
  5
1ef
100
AcDbEntity
  8
Layer_1
 62
7
100
AcDbLine
 10
-14.221509
 20
-19.842817
 30
0.0
 11
-14.999999
 21
-19.999987
 31
0.0
  0
ENDSEC
  0
SECTION
  2
OBJECTS
  0
DICTIONARY
  5
C
330
0
100
AcDbDictionary
  3
ACAD_GROUP
350
D
  3
ACAD_MLINESTYLE
350
17
  0
DICTIONARY
  5
D
330
C
100
AcDbDictionary
  0
DICTIONARY
  5
1A
330
C
100
AcDbDictionary
  0
DICTIONARY
  5
17
330
C
100
AcDbDictionary
  3
STANDARD
350
18
  0
DICTIONARY
  5
19
330
C
100
AcDbDictionary
  0
ENDSEC
  0
EOF
