  0
SECTION
  2
HEADER
  9
$ACADVER
  1
AC1014
  9
$HANDSEED
  5
FFFF
  9
$MEASUREMENT
 70
     1
  0
ENDSEC
  0
SECTION
  2
TABLES
  0
TABLE
  2
VPORT
  5
8
330
0
100
AcDbSymbolTable
 70
     4
  0
VPORT
  5
2E
330
8
100
AcDbSymbolTableRecord
100
AcDbViewportTableRecord
  2
*ACTIVE
 70
     0
 10
0.0
 20
0.0
 11
1.0
 21
1.0
 12
210.0
 22
148.5
 13
0.0
 23
0.0
 14
10.0
 24
10.0
 15
10.0
 25
10.0
 16
0.0
 26
0.0
 36
1.0
 17
0.0
 27
0.0
 37
0.0
 40
341.0
 41
1.24
 42
50.0
 43
0.0
 44
0.0
 50
0.0
 51
0.0
 71
     0
 72
   100
 73
     1
 74
     3
 75
     0
 76
     0
 77
     0
 78
     0
  0
ENDTAB
  0
TABLE
  2
LTYPE
  5
5
330
0
100
AcDbSymbolTable
 70
     1
  0
LTYPE
  5
14
330
5
100
AcDbSymbolTableRecord
100
AcDbLinetypeTableRecord
  2
BYBLOCK
 70
     0
  3

 72
    65
 73
     0
 40
0.0
  0
LTYPE
  5
15
330
5
100
AcDbSymbolTableRecord
100
AcDbLinetypeTableRecord
  2
BYLAYER
 70
     0
  3

 72
    65
 73
     0
 40
0.0
  0
LTYPE
  5
16
330
5
100
AcDbSymbolTableRecord
100
AcDbLinetypeTableRecord
  2
CONTINUOUS
 70
     0
  3
Solid line
 72
    65
 73
     0
 40
0.0
  0
ENDTAB
  0
TABLE
  2
LAYER
  5
2
100
AcDbSymbolTable
 70
2
  0
LAYER
  5
50
100
AcDbSymbolTableRecord
100
AcDbLayerTableRecord
  2
0
 70
0
  6
CONTINUOUS
  0
LAYER
  5
51
100
AcDbSymbolTableRecord
100
AcDbLayerTableRecord
  2
Layer_1
 70
0
  6
CONTINUOUS
  0
ENDTAB
  0
TABLE
  2
STYLE
  5
3
330
0
100
AcDbSymbolTable
 70
     1
  0
STYLE
  5
11
330
3
100
AcDbSymbolTableRecord
100
AcDbTextStyleTableRecord
  2
STANDARD
 70
     0
 40
0.0
 41
1.0
 50
0.0
 71
     0
 42
2.5
  3
txt
  4

  0
ENDTAB
  0
TABLE
  2
VIEW
  5
6
330
0
100
AcDbSymbolTable
 70
     0
  0
ENDTAB
  0
TABLE
  2
UCS
  5
7
330
0
100
AcDbSymbolTable
 70
     0
  0
ENDTAB
  0
TABLE
  2
APPID
  5
9
330
0
100
AcDbSymbolTable
 70
     2
  0
APPID
  5
12
330
9
100
AcDbSymbolTableRecord
100
AcDbRegAppTableRecord
  2
ACAD
 70
     0
  0
ENDTAB
  0
TABLE
  2
DIMSTYLE
  5
A
330
0
100
AcDbSymbolTable
 70
     1
  0
DIMSTYLE
105
27
330
A
100
AcDbSymbolTableRecord
100
AcDbDimStyleTableRecord
  2
ISO-25
 70
     0
  3

  4

  5

  6

  7

 40
1.0
 41
2.5
 42
0.625
 43
3.75
 44
1.25
 45
0.0
 46
0.0
 47
0.0
 48
0.0
140
2.5
141
2.5
142
0.0
143
0.03937007874016
144
1.0
145
0.0
146
1.0
147
0.625
 71
     0
 72
     0
 73
     0
 74
     0
 75
     0
 76
     0
 77
     1
 78
     8
170
     0
171
     3
172
     1
173
     0
174
     0
175
     0
176
     0
177
     0
178
     0
270
     2
271
     2
272
     2
273
     2
274
     3
340
11
275
     0
280
     0
281
     0
282
     0
283
     0
284
     8
285
     0
286
     0
287
     3
288
     0
  0
ENDTAB
  0
TABLE
  2
BLOCK_RECORD
  5
1
330
0
100
AcDbSymbolTable
 70
     1
  0
BLOCK_RECORD
  5
1F
330
1
100
AcDbSymbolTableRecord
100
AcDbBlockTableRecord
  2
*MODEL_SPACE
  0
BLOCK_RECORD
  5
1B
330
1
100
AcDbSymbolTableRecord
100
AcDbBlockTableRecord
  2
*PAPER_SPACE
  0
ENDTAB
  0
ENDSEC
  0
SECTION
  2
BLOCKS
  0
BLOCK
  5
20
330
1F
100
AcDbEntity
  8
0
100
AcDbBlockBegin
  2
*MODEL_SPACE
 70
     0
 10
0.0
 20
0.0
 30
0.0
  3
*MODEL_SPACE
  1

  0
ENDBLK
  5
21
330
1F
100
AcDbEntity
  8
0
100
AcDbBlockEnd
  0
BLOCK
  5
1C
330
1B
100
AcDbEntity
 67
     1
  8
0
100
AcDbBlockBegin
  2
*PAPER_SPACE
  1

  0
ENDBLK
  5
1D
330
1B
100
AcDbEntity
 67
     1
  8
0
100
AcDbBlockEnd
  0
ENDSEC
  0
SECTION
  2
ENTITIES
  0
LINE
  5
100
100
AcDbEntity
  8
Layer_1
 62
7
100
AcDbLine
 10
-30.000011
 20
2.000025
 30
0.0
 11
-30.000011
 21
-17.999963
 31
0.0
  0
LINE
  5
101
100
AcDbEntity
  8
Layer_1
 62
7
100
AcDbLine
 10
-30.000011
 20
-17.999963
 30
0.0
 11
-29.898777
 21
-19.010093
 31
0.0
  0
LINE
  5
102
100
AcDbEntity
  8
Layer_1
 62
7
100
AcDbLine
 10
-29.898777
 20
-19.010093
 30
0.0
 11
-29.608280
 21
-19.949808
 31
0.0
  0
LINE
  5
103
100
AcDbEntity
  8
Layer_1
 62
7
100
AcDbLine
 10
-29.608280
 20
-19.949808
 30
0.0
 11
-29.148329
 21
-20.799297
 31
0.0
  0
LINE
  5
104
100
AcDbEntity
  8
Layer_1
 62
7
100
AcDbLine
 10
-29.148329
 20
-20.799297
 30
0.0
 11
-28.538734
 21
-21.538720
 31
0.0
  0
LINE
  5
105
100
AcDbEntity
  8
Layer_1
 62
7
100
AcDbLine
 10
-28.538734
 20
-21.538720
 30
0.0
 11
-27.799301
 21
-22.148320
 31
0.0
  0
LINE
  5
106
100
AcDbEntity
  8
Layer_1
 62
7
100
AcDbLine
 10
-27.799301
 20
-22.148320
 30
0.0
 11
-26.949829
 21
-22.608257
 31
0.0
  0
LINE
  5
107
100
AcDbEntity
  8
Layer_1
 62
7
100
AcDbLine
 10
-26.949829
 20
-22.608257
 30
0.0
 11
-26.010125
 21
-22.898748
 31
0.0
  0
LINE
  5
108
100
AcDbEntity
  8
Layer_1
 62
7
100
AcDbLine
 10
-26.010125
 20
-22.898748
 30
0.0
 11
-24.999993
 21
-22.999982
 31
0.0
  0
LINE
  5
109
100
AcDbEntity
  8
Layer_1
 62
7
100
AcDbLine
 10
-24.999993
 20
-22.999982
 30
0.0
 11
24.999991
 21
-22.999982
 31
0.0
  0
LINE
  5
10a
100
AcDbEntity
  8
Layer_1
 62
7
100
AcDbLine
 10
24.999991
 20
-22.999982
 30
0.0
 11
26.010124
 21
-22.898748
 31
0.0
  0
LINE
  5
10b
100
AcDbEntity
  8
Layer_1
 62
7
100
AcDbLine
 10
26.010124
 20
-22.898748
 30
0.0
 11
26.949831
 21
-22.608257
 31
0.0
  0
LINE
  5
10c
100
AcDbEntity
  8
Layer_1
 62
7
100
AcDbLine
 10
26.949831
 20
-22.608257
 30
0.0
 11
27.799306
 21
-22.148320
 31
0.0
  0
LINE
  5
10d
100
AcDbEntity
  8
Layer_1
 62
7
100
AcDbLine
 10
27.799306
 20
-22.148320
 30
0.0
 11
28.538743
 21
-21.538720
 31
0.0
  0
LINE
  5
10e
100
AcDbEntity
  8
Layer_1
 62
7
100
AcDbLine
 10
28.538743
 20
-21.538720
 30
0.0
 11
29.148340
 21
-20.799297
 31
0.0
  0
LINE
  5
10f
100
AcDbEntity
  8
Layer_1
 62
7
100
AcDbLine
 10
29.148340
 20
-20.799297
 30
0.0
 11
29.608286
 21
-19.949808
 31
0.0
  0
LINE
  5
110
100
AcDbEntity
  8
Layer_1
 62
7
100
AcDbLine
 10
29.608286
 20
-19.949808
 30
0.0
 11
29.898777
 21
-19.010093
 31
0.0
  0
LINE
  5
111
100
AcDbEntity
  8
Layer_1
 62
7
100
AcDbLine
 10
29.898777
 20
-19.010093
 30
0.0
 11
30.000011
 21
-17.999963
 31
0.0
  0
LINE
  5
112
100
AcDbEntity
  8
Layer_1
 62
7
100
AcDbLine
 10
30.000011
 20
-17.999963
 30
0.0
 11
30.000011
 21
2.000025
 31
0.0
  0
LINE
  5
113
100
AcDbEntity
  8
Layer_1
 62
7
100
AcDbLine
 10
30.000011
 20
2.000025
 30
0.0
 11
29.898777
 21
3.010155
 31
0.0
  0
LINE
  5
114
100
AcDbEntity
  8
Layer_1
 62
7
100
AcDbLine
 10
29.898777
 20
3.010155
 30
0.0
 11
29.608286
 21
3.949870
 31
0.0
  0
LINE
  5
115
100
AcDbEntity
  8
Layer_1
 62
7
100
AcDbLine
 10
29.608286
 20
3.949870
 30
0.0
 11
29.148340
 21
4.799331
 31
0.0
  0
LINE
  5
116
100
AcDbEntity
  8
Layer_1
 62
7
100
AcDbLine
 10
29.148340
 20
4.799331
 30
0.0
 11
28.538743
 21
5.538781
 31
0.0
  0
LINE
  5
117
100
AcDbEntity
  8
Layer_1
 62
7
100
AcDbLine
 10
28.538743
 20
5.538781
 30
0.0
 11
27.799306
 21
6.148353
 31
0.0
  0
LINE
  5
118
100
AcDbEntity
  8
Layer_1
 62
7
100
AcDbLine
 10
27.799306
 20
6.148353
 30
0.0
 11
26.949831
 21
6.608290
 31
0.0
  0
LINE
  5
119
100
AcDbEntity
  8
Layer_1
 62
7
100
AcDbLine
 10
26.949831
 20
6.608290
 30
0.0
 11
26.010124
 21
6.898782
 31
0.0
  0
LINE
  5
11a
100
AcDbEntity
  8
Layer_1
 62
7
100
AcDbLine
 10
26.010124
 20
6.898782
 30
0.0
 11
24.999991
 21
7.000015
 31
0.0
  0
LINE
  5
11b
100
AcDbEntity
  8
Layer_1
 62
7
100
AcDbLine
 10
24.999991
 20
7.000015
 30
0.0
 11
9.999993
 21
7.000015
 31
0.0
  0
LINE
  5
11c
100
AcDbEntity
  8
Layer_1
 62
7
100
AcDbLine
 10
9.999993
 20
7.000015
 30
0.0
 11
9.999993
 21
3.500008
 31
0.0
  0
LINE
  5
11d
100
AcDbEntity
  8
Layer_1
 62
7
100
AcDbLine
 10
9.999993
 20
3.500008
 30
0.0
 11
11.500004
 21
3.500008
 31
0.0
  0
LINE
  5
11e
100
AcDbEntity
  8
Layer_1
 62
7
100
AcDbLine
 10
11.500004
 20
3.500008
 30
0.0
 11
11.500004
 21
-3.499978
 31
0.0
  0
LINE
  5
11f
100
AcDbEntity
  8
Layer_1
 62
7
100
AcDbLine
 10
11.500004
 20
-3.499978
 30
0.0
 11
9.999993
 21
-3.499978
 31
0.0
  0
LINE
  5
120
100
AcDbEntity
  8
Layer_1
 62
7
100
AcDbLine
 10
9.999993
 20
-3.499978
 30
0.0
 11
9.999993
 21
-5.999987
 31
0.0
  0
LINE
  5
121
100
AcDbEntity
  8
Layer_1
 62
7
100
AcDbLine
 10
9.999993
 20
-5.999987
 30
0.0
 11
-9.999995
 21
-5.999987
 31
0.0
  0
LINE
  5
122
100
AcDbEntity
  8
Layer_1
 62
7
100
AcDbLine
 10
-9.999995
 20
-5.999987
 30
0.0
 11
-9.999995
 21
-3.499978
 31
0.0
  0
LINE
  5
123
100
AcDbEntity
  8
Layer_1
 62
7
100
AcDbLine
 10
-9.999995
 20
-3.499978
 30
0.0
 11
-11.500006
 21
-3.499978
 31
0.0
  0
LINE
  5
124
100
AcDbEntity
  8
Layer_1
 62
7
100
AcDbLine
 10
-11.500006
 20
-3.499978
 30
0.0
 11
-11.500006
 21
3.500008
 31
0.0
  0
LINE
  5
125
100
AcDbEntity
  8
Layer_1
 62
7
100
AcDbLine
 10
-11.500006
 20
3.500008
 30
0.0
 11
-9.999995
 21
3.500008
 31
0.0
  0
LINE
  5
126
100
AcDbEntity
  8
Layer_1
 62
7
100
AcDbLine
 10
-9.999995
 20
3.500008
 30
0.0
 11
-9.999995
 21
7.000015
 31
0.0
  0
LINE
  5
127
100
AcDbEntity
  8
Layer_1
 62
7
100
AcDbLine
 10
-9.999995
 20
7.000015
 30
0.0
 11
-24.999993
 21
7.000015
 31
0.0
  0
LINE
  5
128
100
AcDbEntity
  8
Layer_1
 62
7
100
AcDbLine
 10
-24.999993
 20
7.000015
 30
0.0
 11
-26.010134
 21
6.898782
 31
0.0
  0
LINE
  5
129
100
AcDbEntity
  8
Layer_1
 62
7
100
AcDbLine
 10
-26.010134
 20
6.898782
 30
0.0
 11
-26.949844
 21
6.608290
 31
0.0
  0
LINE
  5
12a
100
AcDbEntity
  8
Layer_1
 62
7
100
AcDbLine
 10
-26.949844
 20
6.608290
 30
0.0
 11
-27.799321
 21
6.148353
 31
0.0
  0
LINE
  5
12b
100
AcDbEntity
  8
Layer_1
 62
7
100
AcDbLine
 10
-27.799321
 20
6.148353
 30
0.0
 11
-28.538754
 21
5.538781
 31
0.0
  0
LINE
  5
12c
100
AcDbEntity
  8
Layer_1
 62
7
100
AcDbLine
 10
-28.538754
 20
5.538781
 30
0.0
 11
-29.148349
 21
4.799331
 31
0.0
  0
LINE
  5
12d
100
AcDbEntity
  8
Layer_1
 62
7
100
AcDbLine
 10
-29.148349
 20
4.799331
 30
0.0
 11
-29.608292
 21
3.949870
 31
0.0
  0
LINE
  5
12e
100
AcDbEntity
  8
Layer_1
 62
7
100
AcDbLine
 10
-29.608292
 20
3.949870
 30
0.0
 11
-29.898780
 21
3.010155
 31
0.0
  0
LINE
  5
12f
100
AcDbEntity
  8
Layer_1
 62
7
100
AcDbLine
 10
-29.898780
 20
3.010155
 30
0.0
 11
-30.000011
 21
2.000025
 31
0.0
  0
LINE
  5
130
100
AcDbEntity
  8
Layer_1
 62
7
100
AcDbLine
 10
24.999995
 20
-9.999979
 30
0.0
 11
24.596926
 21
-9.959339
 31
0.0
  0
LINE
  5
131
100
AcDbEntity
  8
Layer_1
 62
7
100
AcDbLine
 10
24.596926
 20
-9.959339
 30
0.0
 11
24.221506
 21
-9.842810
 31
0.0
  0
LINE
  5
132
100
AcDbEntity
  8
Layer_1
 62
7
100
AcDbLine
 10
24.221506
 20
-9.842810
 30
0.0
 11
23.881777
 21
-9.658406
 31
0.0
  0
LINE
  5
133
100
AcDbEntity
  8
Layer_1
 62
7
100
AcDbLine
 10
23.881777
 20
-9.658406
 30
0.0
 11
23.585783
 21
-9.414199
 31
0.0
  0
LINE
  5
134
100
AcDbEntity
  8
Layer_1
 62
7
100
AcDbLine
 10
23.585783
 20
-9.414199
 30
0.0
 11
23.341565
 21
-9.118204
 31
0.0
  0
LINE
  5
135
100
AcDbEntity
  8
Layer_1
 62
7
100
AcDbLine
 10
23.341565
 20
-9.118204
 30
0.0
 11
23.157166
 21
-8.778465
 31
0.0
  0
LINE
  5
136
100
AcDbEntity
  8
Layer_1
 62
7
100
AcDbLine
 10
23.157166
 20
-8.778465
 30
0.0
 11
23.040629
 21
-8.403053
 31
0.0
  0
LINE
  5
137
100
AcDbEntity
  8
Layer_1
 62
7
100
AcDbLine
 10
23.040629
 20
-8.403053
 30
0.0
 11
22.999995
 21
-7.999983
 31
0.0
  0
LINE
  5
138
100
AcDbEntity
  8
Layer_1
 62
7
100
AcDbLine
 10
22.999995
 20
-7.999983
 30
0.0
 11
23.040628
 21
-7.596914
 31
0.0
  0
LINE
  5
139
100
AcDbEntity
  8
Layer_1
 62
7
100
AcDbLine
 10
23.040628
 20
-7.596914
 30
0.0
 11
23.157164
 21
-7.221502
 31
0.0
  0
LINE
  5
13a
100
AcDbEntity
  8
Layer_1
 62
7
100
AcDbLine
 10
23.157164
 20
-7.221502
 30
0.0
 11
23.341563
 21
-6.881762
 31
0.0
  0
LINE
  5
13b
100
AcDbEntity
  8
Layer_1
 62
7
100
AcDbLine
 10
23.341563
 20
-6.881762
 30
0.0
 11
23.585781
 21
-6.585768
 31
0.0
  0
LINE
  5
13c
100
AcDbEntity
  8
Layer_1
 62
7
100
AcDbLine
 10
23.585781
 20
-6.585768
 30
0.0
 11
23.881776
 21
-6.341561
 31
0.0
  0
LINE
  5
13d
100
AcDbEntity
  8
Layer_1
 62
7
100
AcDbLine
 10
23.881776
 20
-6.341561
 30
0.0
 11
24.221505
 21
-6.157157
 31
0.0
  0
LINE
  5
13e
100
AcDbEntity
  8
Layer_1
 62
7
100
AcDbLine
 10
24.221505
 20
-6.157157
 30
0.0
 11
24.596926
 21
-6.040627
 31
0.0
  0
LINE
  5
13f
100
AcDbEntity
  8
Layer_1
 62
7
100
AcDbLine
 10
24.596926
 20
-6.040627
 30
0.0
 11
24.999995
 21
-5.999987
 31
0.0
  0
LINE
  5
140
100
AcDbEntity
  8
Layer_1
 62
7
100
AcDbLine
 10
24.999995
 20
-5.999987
 30
0.0
 11
25.403064
 21
-6.040627
 31
0.0
  0
LINE
  5
141
100
AcDbEntity
  8
Layer_1
 62
7
100
AcDbLine
 10
25.403064
 20
-6.040627
 30
0.0
 11
25.778485
 21
-6.157157
 31
0.0
  0
LINE
  5
142
100
AcDbEntity
  8
Layer_1
 62
7
100
AcDbLine
 10
25.778485
 20
-6.157157
 30
0.0
 11
26.118213
 21
-6.341561
 31
0.0
  0
LINE
  5
143
100
AcDbEntity
  8
Layer_1
 62
7
100
AcDbLine
 10
26.118213
 20
-6.341561
 30
0.0
 11
26.414207
 21
-6.585768
 31
0.0
  0
LINE
  5
144
100
AcDbEntity
  8
Layer_1
 62
7
100
AcDbLine
 10
26.414207
 20
-6.585768
 30
0.0
 11
26.658426
 21
-6.881762
 31
0.0
  0
LINE
  5
145
100
AcDbEntity
  8
Layer_1
 62
7
100
AcDbLine
 10
26.658426
 20
-6.881762
 30
0.0
 11
26.842824
 21
-7.221502
 31
0.0
  0
LINE
  5
146
100
AcDbEntity
  8
Layer_1
 62
7
100
AcDbLine
 10
26.842824
 20
-7.221502
 30
0.0
 11
26.959362
 21
-7.596914
 31
0.0
  0
LINE
  5
147
100
AcDbEntity
  8
Layer_1
 62
7
100
AcDbLine
 10
26.959362
 20
-7.596914
 30
0.0
 11
26.999995
 21
-7.999983
 31
0.0
  0
LINE
  5
148
100
AcDbEntity
  8
Layer_1
 62
7
100
AcDbLine
 10
26.999995
 20
-7.999983
 30
0.0
 11
26.959363
 21
-8.403053
 31
0.0
  0
LINE
  5
149
100
AcDbEntity
  8
Layer_1
 62
7
100
AcDbLine
 10
26.959363
 20
-8.403053
 30
0.0
 11
26.842826
 21
-8.778465
 31
0.0
  0
LINE
  5
14a
100
AcDbEntity
  8
Layer_1
 62
7
100
AcDbLine
 10
26.842826
 20
-8.778465
 30
0.0
 11
26.658427
 21
-9.118204
 31
0.0
  0
LINE
  5
14b
100
AcDbEntity
  8
Layer_1
 62
7
100
AcDbLine
 10
26.658427
 20
-9.118204
 30
0.0
 11
26.414209
 21
-9.414199
 31
0.0
  0
LINE
  5
14c
100
AcDbEntity
  8
Layer_1
 62
7
100
AcDbLine
 10
26.414209
 20
-9.414199
 30
0.0
 11
26.118214
 21
-9.658406
 31
0.0
  0
LINE
  5
14d
100
AcDbEntity
  8
Layer_1
 62
7
100
AcDbLine
 10
26.118214
 20
-9.658406
 30
0.0
 11
25.778485
 21
-9.842810
 31
0.0
  0
LINE
  5
14e
100
AcDbEntity
  8
Layer_1
 62
7
100
AcDbLine
 10
25.778485
 20
-9.842810
 30
0.0
 11
25.403065
 21
-9.959339
 31
0.0
  0
LINE
  5
14f
100
AcDbEntity
  8
Layer_1
 62
7
100
AcDbLine
 10
25.403065
 20
-9.959339
 30
0.0
 11
24.999995
 21
-9.999979
 31
0.0
  0
LINE
  5
150
100
AcDbEntity
  8
Layer_1
 62
7
100
AcDbLine
 10
24.999995
 20
0.000029
 30
0.0
 11
24.596926
 21
0.040669
 31
0.0
  0
LINE
  5
151
100
AcDbEntity
  8
Layer_1
 62
7
100
AcDbLine
 10
24.596926
 20
0.040669
 30
0.0
 11
24.221506
 21
0.157198
 31
0.0
  0
LINE
  5
152
100
AcDbEntity
  8
Layer_1
 62
7
100
AcDbLine
 10
24.221506
 20
0.157198
 30
0.0
 11
23.881777
 21
0.341602
 31
0.0
  0
LINE
  5
153
100
AcDbEntity
  8
Layer_1
 62
7
100
AcDbLine
 10
23.881777
 20
0.341602
 30
0.0
 11
23.585783
 21
0.585809
 31
0.0
  0
LINE
  5
154
100
AcDbEntity
  8
Layer_1
 62
7
100
AcDbLine
 10
23.585783
 20
0.585809
 30
0.0
 11
23.341565
 21
0.881804
 31
0.0
  0
LINE
  5
155
100
AcDbEntity
  8
Layer_1
 62
7
100
AcDbLine
 10
23.341565
 20
0.881804
 30
0.0
 11
23.157166
 21
1.221543
 31
0.0
  0
LINE
  5
156
100
AcDbEntity
  8
Layer_1
 62
7
100
AcDbLine
 10
23.157166
 20
1.221543
 30
0.0
 11
23.040629
 21
1.596955
 31
0.0
  0
LINE
  5
157
100
AcDbEntity
  8
Layer_1
 62
7
100
AcDbLine
 10
23.040629
 20
1.596955
 30
0.0
 11
22.999995
 21
2.000025
 31
0.0
  0
LINE
  5
158
100
AcDbEntity
  8
Layer_1
 62
7
100
AcDbLine
 10
22.999995
 20
2.000025
 30
0.0
 11
23.040628
 21
2.403095
 31
0.0
  0
LINE
  5
159
100
AcDbEntity
  8
Layer_1
 62
7
100
AcDbLine
 10
23.040628
 20
2.403095
 30
0.0
 11
23.157164
 21
2.778507
 31
0.0
  0
LINE
  5
15a
100
AcDbEntity
  8
Layer_1
 62
7
100
AcDbLine
 10
23.157164
 20
2.778507
 30
0.0
 11
23.341563
 21
3.118246
 31
0.0
  0
LINE
  5
15b
100
AcDbEntity
  8
Layer_1
 62
7
100
AcDbLine
 10
23.341563
 20
3.118246
 30
0.0
 11
23.585781
 21
3.414240
 31
0.0
  0
LINE
  5
15c
100
AcDbEntity
  8
Layer_1
 62
7
100
AcDbLine
 10
23.585781
 20
3.414240
 30
0.0
 11
23.881776
 21
3.658447
 31
0.0
  0
LINE
  5
15d
100
AcDbEntity
  8
Layer_1
 62
7
100
AcDbLine
 10
23.881776
 20
3.658447
 30
0.0
 11
24.221505
 21
3.842851
 31
0.0
  0
LINE
  5
15e
100
AcDbEntity
  8
Layer_1
 62
7
100
AcDbLine
 10
24.221505
 20
3.842851
 30
0.0
 11
24.596926
 21
3.959381
 31
0.0
  0
LINE
  5
15f
100
AcDbEntity
  8
Layer_1
 62
7
100
AcDbLine
 10
24.596926
 20
3.959381
 30
0.0
 11
24.999995
 21
4.000021
 31
0.0
  0
LINE
  5
160
100
AcDbEntity
  8
Layer_1
 62
7
100
AcDbLine
 10
24.999995
 20
4.000021
 30
0.0
 11
25.403064
 21
3.959381
 31
0.0
  0
LINE
  5
161
100
AcDbEntity
  8
Layer_1
 62
7
100
AcDbLine
 10
25.403064
 20
3.959381
 30
0.0
 11
25.778485
 21
3.842851
 31
0.0
  0
LINE
  5
162
100
AcDbEntity
  8
Layer_1
 62
7
100
AcDbLine
 10
25.778485
 20
3.842851
 30
0.0
 11
26.118213
 21
3.658447
 31
0.0
  0
LINE
  5
163
100
AcDbEntity
  8
Layer_1
 62
7
100
AcDbLine
 10
26.118213
 20
3.658447
 30
0.0
 11
26.414207
 21
3.414240
 31
0.0
  0
LINE
  5
164
100
AcDbEntity
  8
Layer_1
 62
7
100
AcDbLine
 10
26.414207
 20
3.414240
 30
0.0
 11
26.658426
 21
3.118246
 31
0.0
  0
LINE
  5
165
100
AcDbEntity
  8
Layer_1
 62
7
100
AcDbLine
 10
26.658426
 20
3.118246
 30
0.0
 11
26.842824
 21
2.778507
 31
0.0
  0
LINE
  5
166
100
AcDbEntity
  8
Layer_1
 62
7
100
AcDbLine
 10
26.842824
 20
2.778507
 30
0.0
 11
26.959362
 21
2.403095
 31
0.0
  0
LINE
  5
167
100
AcDbEntity
  8
Layer_1
 62
7
100
AcDbLine
 10
26.959362
 20
2.403095
 30
0.0
 11
26.999995
 21
2.000025
 31
0.0
  0
LINE
  5
168
100
AcDbEntity
  8
Layer_1
 62
7
100
AcDbLine
 10
26.999995
 20
2.000025
 30
0.0
 11
26.959363
 21
1.596955
 31
0.0
  0
LINE
  5
169
100
AcDbEntity
  8
Layer_1
 62
7
100
AcDbLine
 10
26.959363
 20
1.596955
 30
0.0
 11
26.842826
 21
1.221543
 31
0.0
  0
LINE
  5
16a
100
AcDbEntity
  8
Layer_1
 62
7
100
AcDbLine
 10
26.842826
 20
1.221543
 30
0.0
 11
26.658427
 21
0.881804
 31
0.0
  0
LINE
  5
16b
100
AcDbEntity
  8
Layer_1
 62
7
100
AcDbLine
 10
26.658427
 20
0.881804
 30
0.0
 11
26.414209
 21
0.585809
 31
0.0
  0
LINE
  5
16c
100
AcDbEntity
  8
Layer_1
 62
7
100
AcDbLine
 10
26.414209
 20
0.585809
 30
0.0
 11
26.118214
 21
0.341602
 31
0.0
  0
LINE
  5
16d
100
AcDbEntity
  8
Layer_1
 62
7
100
AcDbLine
 10
26.118214
 20
0.341602
 30
0.0
 11
25.778485
 21
0.157198
 31
0.0
  0
LINE
  5
16e
100
AcDbEntity
  8
Layer_1
 62
7
100
AcDbLine
 10
25.778485
 20
0.157198
 30
0.0
 11
25.403065
 21
0.040669
 31
0.0
  0
LINE
  5
16f
100
AcDbEntity
  8
Layer_1
 62
7
100
AcDbLine
 10
25.403065
 20
0.040669
 30
0.0
 11
24.999995
 21
0.000029
 31
0.0
  0
LINE
  5
170
100
AcDbEntity
  8
Layer_1
 62
7
100
AcDbLine
 10
15.000020
 20
-19.999988
 30
0.0
 11
14.596951
 21
-19.959348
 31
0.0
  0
LINE
  5
171
100
AcDbEntity
  8
Layer_1
 62
7
100
AcDbLine
 10
14.596951
 20
-19.959348
 30
0.0
 11
14.221531
 21
-19.842818
 31
0.0
  0
LINE
  5
172
100
AcDbEntity
  8
Layer_1
 62
7
100
AcDbLine
 10
14.221531
 20
-19.842818
 30
0.0
 11
13.881802
 21
-19.658414
 31
0.0
  0
LINE
  5
173
100
AcDbEntity
  8
Layer_1
 62
7
100
AcDbLine
 10
13.881802
 20
-19.658414
 30
0.0
 11
13.585808
 21
-19.414207
 31
0.0
  0
LINE
  5
174
100
AcDbEntity
  8
Layer_1
 62
7
100
AcDbLine
 10
13.585808
 20
-19.414207
 30
0.0
 11
13.341590
 21
-19.118212
 31
0.0
  0
LINE
  5
175
100
AcDbEntity
  8
Layer_1
 62
7
100
AcDbLine
 10
13.341590
 20
-19.118212
 30
0.0
 11
13.157191
 21
-18.778473
 31
0.0
  0
LINE
  5
176
100
AcDbEntity
  8
Layer_1
 62
7
100
AcDbLine
 10
13.157191
 20
-18.778473
 30
0.0
 11
13.040654
 21
-18.403061
 31
0.0
  0
LINE
  5
177
100
AcDbEntity
  8
Layer_1
 62
7
100
AcDbLine
 10
13.040654
 20
-18.403061
 30
0.0
 11
13.000020
 21
-17.999992
 31
0.0
  0
LINE
  5
178
100
AcDbEntity
  8
Layer_1
 62
7
100
AcDbLine
 10
13.000020
 20
-17.999992
 30
0.0
 11
13.040652
 21
-17.596922
 31
0.0
  0
LINE
  5
179
100
AcDbEntity
  8
Layer_1
 62
7
100
AcDbLine
 10
13.040652
 20
-17.596922
 30
0.0
 11
13.157189
 21
-17.221510
 31
0.0
  0
LINE
  5
17a
100
AcDbEntity
  8
Layer_1
 62
7
100
AcDbLine
 10
13.157189
 20
-17.221510
 30
0.0
 11
13.341588
 21
-16.881771
 31
0.0
  0
LINE
  5
17b
100
AcDbEntity
  8
Layer_1
 62
7
100
AcDbLine
 10
13.341588
 20
-16.881771
 30
0.0
 11
13.585806
 21
-16.585776
 31
0.0
  0
LINE
  5
17c
100
AcDbEntity
  8
Layer_1
 62
7
100
AcDbLine
 10
13.585806
 20
-16.585776
 30
0.0
 11
13.881801
 21
-16.341569
 31
0.0
  0
LINE
  5
17d
100
AcDbEntity
  8
Layer_1
 62
7
100
AcDbLine
 10
13.881801
 20
-16.341569
 30
0.0
 11
14.221530
 21
-16.157165
 31
0.0
  0
LINE
  5
17e
100
AcDbEntity
  8
Layer_1
 62
7
100
AcDbLine
 10
14.221530
 20
-16.157165
 30
0.0
 11
14.596950
 21
-16.040636
 31
0.0
  0
LINE
  5
17f
100
AcDbEntity
  8
Layer_1
 62
7
100
AcDbLine
 10
14.596950
 20
-16.040636
 30
0.0
 11
15.000020
 21
-15.999996
 31
0.0
  0
LINE
  5
180
100
AcDbEntity
  8
Layer_1
 62
7
100
AcDbLine
 10
15.000020
 20
-15.999996
 30
0.0
 11
15.403089
 21
-16.040636
 31
0.0
  0
LINE
  5
181
100
AcDbEntity
  8
Layer_1
 62
7
100
AcDbLine
 10
15.403089
 20
-16.040636
 30
0.0
 11
15.778509
 21
-16.157165
 31
0.0
  0
LINE
  5
182
100
AcDbEntity
  8
Layer_1
 62
7
100
AcDbLine
 10
15.778509
 20
-16.157165
 30
0.0
 11
16.118238
 21
-16.341569
 31
0.0
  0
LINE
  5
183
100
AcDbEntity
  8
Layer_1
 62
7
100
AcDbLine
 10
16.118238
 20
-16.341569
 30
0.0
 11
16.414232
 21
-16.585776
 31
0.0
  0
LINE
  5
184
100
AcDbEntity
  8
Layer_1
 62
7
100
AcDbLine
 10
16.414232
 20
-16.585776
 30
0.0
 11
16.658450
 21
-16.881771
 31
0.0
  0
LINE
  5
185
100
AcDbEntity
  8
Layer_1
 62
7
100
AcDbLine
 10
16.658450
 20
-16.881771
 30
0.0
 11
16.842849
 21
-17.221510
 31
0.0
  0
LINE
  5
186
100
AcDbEntity
  8
Layer_1
 62
7
100
AcDbLine
 10
16.842849
 20
-17.221510
 30
0.0
 11
16.959386
 21
-17.596922
 31
0.0
  0
LINE
  5
187
100
AcDbEntity
  8
Layer_1
 62
7
100
AcDbLine
 10
16.959386
 20
-17.596922
 30
0.0
 11
17.000020
 21
-17.999992
 31
0.0
  0
LINE
  5
188
100
AcDbEntity
  8
Layer_1
 62
7
100
AcDbLine
 10
17.000020
 20
-17.999992
 30
0.0
 11
16.959388
 21
-18.403061
 31
0.0
  0
LINE
  5
189
100
AcDbEntity
  8
Layer_1
 62
7
100
AcDbLine
 10
16.959388
 20
-18.403061
 30
0.0
 11
16.842851
 21
-18.778473
 31
0.0
  0
LINE
  5
18a
100
AcDbEntity
  8
Layer_1
 62
7
100
AcDbLine
 10
16.842851
 20
-18.778473
 30
0.0
 11
16.658452
 21
-19.118212
 31
0.0
  0
LINE
  5
18b
100
AcDbEntity
  8
Layer_1
 62
7
100
AcDbLine
 10
16.658452
 20
-19.118212
 30
0.0
 11
16.414234
 21
-19.414207
 31
0.0
  0
LINE
  5
18c
100
AcDbEntity
  8
Layer_1
 62
7
100
AcDbLine
 10
16.414234
 20
-19.414207
 30
0.0
 11
16.118239
 21
-19.658414
 31
0.0
  0
LINE
  5
18d
100
AcDbEntity
  8
Layer_1
 62
7
100
AcDbLine
 10
16.118239
 20
-19.658414
 30
0.0
 11
15.778510
 21
-19.842818
 31
0.0
  0
LINE
  5
18e
100
AcDbEntity
  8
Layer_1
 62
7
100
AcDbLine
 10
15.778510
 20
-19.842818
 30
0.0
 11
15.403089
 21
-19.959348
 31
0.0
  0
LINE
  5
18f
100
AcDbEntity
  8
Layer_1
 62
7
100
AcDbLine
 10
15.403089
 20
-19.959348
 30
0.0
 11
15.000020
 21
-19.999988
 31
0.0
  0
LINE
  5
190
100
AcDbEntity
  8
Layer_1
 62
7
100
AcDbLine
 10
24.999995
 20
-19.999988
 30
0.0
 11
24.596926
 21
-19.959348
 31
0.0
  0
LINE
  5
191
100
AcDbEntity
  8
Layer_1
 62
7
100
AcDbLine
 10
24.596926
 20
-19.959348
 30
0.0
 11
24.221506
 21
-19.842818
 31
0.0
  0
LINE
  5
192
100
AcDbEntity
  8
Layer_1
 62
7
100
AcDbLine
 10
24.221506
 20
-19.842818
 30
0.0
 11
23.881777
 21
-19.658414
 31
0.0
  0
LINE
  5
193
100
AcDbEntity
  8
Layer_1
 62
7
100
AcDbLine
 10
23.881777
 20
-19.658414
 30
0.0
 11
23.585783
 21
-19.414207
 31
0.0
  0
LINE
  5
194
100
AcDbEntity
  8
Layer_1
 62
7
100
AcDbLine
 10
23.585783
 20
-19.414207
 30
0.0
 11
23.341565
 21
-19.118212
 31
0.0
  0
LINE
  5
195
100
AcDbEntity
  8
Layer_1
 62
7
100
AcDbLine
 10
23.341565
 20
-19.118212
 30
0.0
 11
23.157166
 21
-18.778473
 31
0.0
  0
LINE
  5
196
100
AcDbEntity
  8
Layer_1
 62
7
100
AcDbLine
 10
23.157166
 20
-18.778473
 30
0.0
 11
23.040629
 21
-18.403061
 31
0.0
  0
LINE
  5
197
100
AcDbEntity
  8
Layer_1
 62
7
100
AcDbLine
 10
23.040629
 20
-18.403061
 30
0.0
 11
22.999995
 21
-17.999992
 31
0.0
  0
LINE
  5
198
100
AcDbEntity
  8
Layer_1
 62
7
100
AcDbLine
 10
22.999995
 20
-17.999992
 30
0.0
 11
23.040628
 21
-17.596922
 31
0.0
  0
LINE
  5
199
100
AcDbEntity
  8
Layer_1
 62
7
100
AcDbLine
 10
23.040628
 20
-17.596922
 30
0.0
 11
23.157164
 21
-17.221510
 31
0.0
  0
LINE
  5
19a
100
AcDbEntity
  8
Layer_1
 62
7
100
AcDbLine
 10
23.157164
 20
-17.221510
 30
0.0
 11
23.341563
 21
-16.881771
 31
0.0
  0
LINE
  5
19b
100
AcDbEntity
  8
Layer_1
 62
7
100
AcDbLine
 10
23.341563
 20
-16.881771
 30
0.0
 11
23.585781
 21
-16.585776
 31
0.0
  0
LINE
  5
19c
100
AcDbEntity
  8
Layer_1
 62
7
100
AcDbLine
 10
23.585781
 20
-16.585776
 30
0.0
 11
23.881776
 21
-16.341569
 31
0.0
  0
LINE
  5
19d
100
AcDbEntity
  8
Layer_1
 62
7
100
AcDbLine
 10
23.881776
 20
-16.341569
 30
0.0
 11
24.221505
 21
-16.157165
 31
0.0
  0
LINE
  5
19e
100
AcDbEntity
  8
Layer_1
 62
7
100
AcDbLine
 10
24.221505
 20
-16.157165
 30
0.0
 11
24.596926
 21
-16.040636
 31
0.0
  0
LINE
  5
19f
100
AcDbEntity
  8
Layer_1
 62
7
100
AcDbLine
 10
24.596926
 20
-16.040636
 30
0.0
 11
24.999995
 21
-15.999996
 31
0.0
  0
LINE
  5
1a0
100
AcDbEntity
  8
Layer_1
 62
7
100
AcDbLine
 10
24.999995
 20
-15.999996
 30
0.0
 11
25.403064
 21
-16.040636
 31
0.0
  0
LINE
  5
1a1
100
AcDbEntity
  8
Layer_1
 62
7
100
AcDbLine
 10
25.403064
 20
-16.040636
 30
0.0
 11
25.778485
 21
-16.157165
 31
0.0
  0
LINE
  5
1a2
100
AcDbEntity
  8
Layer_1
 62
7
100
AcDbLine
 10
25.778485
 20
-16.157165
 30
0.0
 11
26.118213
 21
-16.341569
 31
0.0
  0
LINE
  5
1a3
100
AcDbEntity
  8
Layer_1
 62
7
100
AcDbLine
 10
26.118213
 20
-16.341569
 30
0.0
 11
26.414207
 21
-16.585776
 31
0.0
  0
LINE
  5
1a4
100
AcDbEntity
  8
Layer_1
 62
7
100
AcDbLine
 10
26.414207
 20
-16.585776
 30
0.0
 11
26.658426
 21
-16.881771
 31
0.0
  0
LINE
  5
1a5
100
AcDbEntity
  8
Layer_1
 62
7
100
AcDbLine
 10
26.658426
 20
-16.881771
 30
0.0
 11
26.842824
 21
-17.221510
 31
0.0
  0
LINE
  5
1a6
100
AcDbEntity
  8
Layer_1
 62
7
100
AcDbLine
 10
26.842824
 20
-17.221510
 30
0.0
 11
26.959362
 21
-17.596922
 31
0.0
  0
LINE
  5
1a7
100
AcDbEntity
  8
Layer_1
 62
7
100
AcDbLine
 10
26.959362
 20
-17.596922
 30
0.0
 11
26.999995
 21
-17.999992
 31
0.0
  0
LINE
  5
1a8
100
AcDbEntity
  8
Layer_1
 62
7
100
AcDbLine
 10
26.999995
 20
-17.999992
 30
0.0
 11
26.959363
 21
-18.403061
 31
0.0
  0
LINE
  5
1a9
100
AcDbEntity
  8
Layer_1
 62
7
100
AcDbLine
 10
26.959363
 20
-18.403061
 30
0.0
 11
26.842826
 21
-18.778473
 31
0.0
  0
LINE
  5
1aa
100
AcDbEntity
  8
Layer_1
 62
7
100
AcDbLine
 10
26.842826
 20
-18.778473
 30
0.0
 11
26.658427
 21
-19.118212
 31
0.0
  0
LINE
  5
1ab
100
AcDbEntity
  8
Layer_1
 62
7
100
AcDbLine
 10
26.658427
 20
-19.118212
 30
0.0
 11
26.414209
 21
-19.414207
 31
0.0
  0
LINE
  5
1ac
100
AcDbEntity
  8
Layer_1
 62
7
100
AcDbLine
 10
26.414209
 20
-19.414207
 30
0.0
 11
26.118214
 21
-19.658414
 31
0.0
  0
LINE
  5
1ad
100
AcDbEntity
  8
Layer_1
 62
7
100
AcDbLine
 10
26.118214
 20
-19.658414
 30
0.0
 11
25.778485
 21
-19.842818
 31
0.0
  0
LINE
  5
1ae
100
AcDbEntity
  8
Layer_1
 62
7
100
AcDbLine
 10
25.778485
 20
-19.842818
 30
0.0
 11
25.403065
 21
-19.959348
 31
0.0
  0
LINE
  5
1af
100
AcDbEntity
  8
Layer_1
 62
7
100
AcDbLine
 10
25.403065
 20
-19.959348
 30
0.0
 11
24.999995
 21
-19.999988
 31
0.0
  0
LINE
  5
1b0
100
AcDbEntity
  8
Layer_1
 62
7
100
AcDbLine
 10
-5.000000
 20
-19.999988
 30
0.0
 11
-5.403069
 21
-19.959348
 31
0.0
  0
LINE
  5
1b1
100
AcDbEntity
  8
Layer_1
 62
7
100
AcDbLine
 10
-5.403069
 20
-19.959348
 30
0.0
 11
-5.778490
 21
-19.842818
 31
0.0
  0
LINE
  5
1b2
100
AcDbEntity
  8
Layer_1
 62
7
100
AcDbLine
 10
-5.778490
 20
-19.842818
 30
0.0
 11
-6.118218
 21
-19.658414
 31
0.0
  0
LINE
  5
1b3
100
AcDbEntity
  8
Layer_1
 62
7
100
AcDbLine
 10
-6.118218
 20
-19.658414
 30
0.0
 11
-6.414212
 21
-19.414207
 31
0.0
  0
LINE
  5
1b4
100
AcDbEntity
  8
Layer_1
 62
7
100
AcDbLine
 10
-6.414212
 20
-19.414207
 30
0.0
 11
-6.658430
 21
-19.118212
 31
0.0
  0
LINE
  5
1b5
100
AcDbEntity
  8
Layer_1
 62
7
100
AcDbLine
 10
-6.658430
 20
-19.118212
 30
0.0
 11
-6.842829
 21
-18.778473
 31
0.0
  0
LINE
  5
1b6
100
AcDbEntity
  8
Layer_1
 62
7
100
AcDbLine
 10
-6.842829
 20
-18.778473
 30
0.0
 11
-6.959367
 21
-18.403061
 31
0.0
  0
LINE
  5
1b7
100
AcDbEntity
  8
Layer_1
 62
7
100
AcDbLine
 10
-6.959367
 20
-18.403061
 30
0.0
 11
-7.000000
 21
-17.999992
 31
0.0
  0
LINE
  5
1b8
100
AcDbEntity
  8
Layer_1
 62
7
100
AcDbLine
 10
-7.000000
 20
-17.999992
 30
0.0
 11
-6.959368
 21
-17.596922
 31
0.0
  0
LINE
  5
1b9
100
AcDbEntity
  8
Layer_1
 62
7
100
AcDbLine
 10
-6.959368
 20
-17.596922
 30
0.0
 11
-6.842831
 21
-17.221510
 31
0.0
  0
LINE
  5
1ba
100
AcDbEntity
  8
Layer_1
 62
7
100
AcDbLine
 10
-6.842831
 20
-17.221510
 30
0.0
 11
-6.658432
 21
-16.881771
 31
0.0
  0
LINE
  5
1bb
100
AcDbEntity
  8
Layer_1
 62
7
100
AcDbLine
 10
-6.658432
 20
-16.881771
 30
0.0
 11
-6.414214
 21
-16.585776
 31
0.0
  0
LINE
  5
1bc
100
AcDbEntity
  8
Layer_1
 62
7
100
AcDbLine
 10
-6.414214
 20
-16.585776
 30
0.0
 11
-6.118219
 21
-16.341569
 31
0.0
  0
LINE
  5
1bd
100
AcDbEntity
  8
Layer_1
 62
7
100
AcDbLine
 10
-6.118219
 20
-16.341569
 30
0.0
 11
-5.778490
 21
-16.157165
 31
0.0
  0
LINE
  5
1be
100
AcDbEntity
  8
Layer_1
 62
7
100
AcDbLine
 10
-5.778490
 20
-16.157165
 30
0.0
 11
-5.403070
 21
-16.040636
 31
0.0
  0
LINE
  5
1bf
100
AcDbEntity
  8
Layer_1
 62
7
100
AcDbLine
 10
-5.403070
 20
-16.040636
 30
0.0
 11
-5.000000
 21
-15.999996
 31
0.0
  0
LINE
  5
1c0
100
AcDbEntity
  8
Layer_1
 62
7
100
AcDbLine
 10
-5.000000
 20
-15.999996
 30
0.0
 11
-4.596931
 21
-16.040636
 31
0.0
  0
LINE
  5
1c1
100
AcDbEntity
  8
Layer_1
 62
7
100
AcDbLine
 10
-4.596931
 20
-16.040636
 30
0.0
 11
-4.221511
 21
-16.157165
 31
0.0
  0
LINE
  5
1c2
100
AcDbEntity
  8
Layer_1
 62
7
100
AcDbLine
 10
-4.221511
 20
-16.157165
 30
0.0
 11
-3.881782
 21
-16.341569
 31
0.0
  0
LINE
  5
1c3
100
AcDbEntity
  8
Layer_1
 62
7
100
AcDbLine
 10
-3.881782
 20
-16.341569
 30
0.0
 11
-3.585788
 21
-16.585776
 31
0.0
  0
LINE
  5
1c4
100
AcDbEntity
  8
Layer_1
 62
7
100
AcDbLine
 10
-3.585788
 20
-16.585776
 30
0.0
 11
-3.341570
 21
-16.881771
 31
0.0
  0
LINE
  5
1c5
100
AcDbEntity
  8
Layer_1
 62
7
100
AcDbLine
 10
-3.341570
 20
-16.881771
 30
0.0
 11
-3.157171
 21
-17.221510
 31
0.0
  0
LINE
  5
1c6
100
AcDbEntity
  8
Layer_1
 62
7
100
AcDbLine
 10
-3.157171
 20
-17.221510
 30
0.0
 11
-3.040634
 21
-17.596922
 31
0.0
  0
LINE
  5
1c7
100
AcDbEntity
  8
Layer_1
 62
7
100
AcDbLine
 10
-3.040634
 20
-17.596922
 30
0.0
 11
-3.000000
 21
-17.999992
 31
0.0
  0
LINE
  5
1c8
100
AcDbEntity
  8
Layer_1
 62
7
100
AcDbLine
 10
-3.000000
 20
-17.999992
 30
0.0
 11
-3.040633
 21
-18.403061
 31
0.0
  0
LINE
  5
1c9
100
AcDbEntity
  8
Layer_1
 62
7
100
AcDbLine
 10
-3.040633
 20
-18.403061
 30
0.0
 11
-3.157169
 21
-18.778473
 31
0.0
  0
LINE
  5
1ca
100
AcDbEntity
  8
Layer_1
 62
7
100
AcDbLine
 10
-3.157169
 20
-18.778473
 30
0.0
 11
-3.341568
 21
-19.118212
 31
0.0
  0
LINE
  5
1cb
100
AcDbEntity
  8
Layer_1
 62
7
100
AcDbLine
 10
-3.341568
 20
-19.118212
 30
0.0
 11
-3.585786
 21
-19.414207
 31
0.0
  0
LINE
  5
1cc
100
AcDbEntity
  8
Layer_1
 62
7
100
AcDbLine
 10
-3.585786
 20
-19.414207
 30
0.0
 11
-3.881781
 21
-19.658414
 31
0.0
  0
LINE
  5
1cd
100
AcDbEntity
  8
Layer_1
 62
7
100
AcDbLine
 10
-3.881781
 20
-19.658414
 30
0.0
 11
-4.221510
 21
-19.842818
 31
0.0
  0
LINE
  5
1ce
100
AcDbEntity
  8
Layer_1
 62
7
100
AcDbLine
 10
-4.221510
 20
-19.842818
 30
0.0
 11
-4.596931
 21
-19.959348
 31
0.0
  0
LINE
  5
1cf
100
AcDbEntity
  8
Layer_1
 62
7
100
AcDbLine
 10
-4.596931
 20
-19.959348
 30
0.0
 11
-5.000000
 21
-19.999988
 31
0.0
  0
LINE
  5
1d0
100
AcDbEntity
  8
Layer_1
 62
7
100
AcDbLine
 10
5.000010
 20
-19.999988
 30
0.0
 11
4.596941
 21
-19.959348
 31
0.0
  0
LINE
  5
1d1
100
AcDbEntity
  8
Layer_1
 62
7
100
AcDbLine
 10
4.596941
 20
-19.959348
 30
0.0
 11
4.221520
 21
-19.842818
 31
0.0
  0
LINE
  5
1d2
100
AcDbEntity
  8
Layer_1
 62
7
100
AcDbLine
 10
4.221520
 20
-19.842818
 30
0.0
 11
3.881792
 21
-19.658414
 31
0.0
  0
LINE
  5
1d3
100
AcDbEntity
  8
Layer_1
 62
7
100
AcDbLine
 10
3.881792
 20
-19.658414
 30
0.0
 11
3.585798
 21
-19.414207
 31
0.0
  0
LINE
  5
1d4
100
AcDbEntity
  8
Layer_1
 62
7
100
AcDbLine
 10
3.585798
 20
-19.414207
 30
0.0
 11
3.341580
 21
-19.118212
 31
0.0
  0
LINE
  5
1d5
100
AcDbEntity
  8
Layer_1
 62
7
100
AcDbLine
 10
3.341580
 20
-19.118212
 30
0.0
 11
3.157181
 21
-18.778473
 31
0.0
  0
LINE
  5
1d6
100
AcDbEntity
  8
Layer_1
 62
7
100
AcDbLine
 10
3.157181
 20
-18.778473
 30
0.0
 11
3.040643
 21
-18.403061
 31
0.0
  0
LINE
  5
1d7
100
AcDbEntity
  8
Layer_1
 62
7
100
AcDbLine
 10
3.040643
 20
-18.403061
 30
0.0
 11
3.000010
 21
-17.999992
 31
0.0
  0
LINE
  5
1d8
100
AcDbEntity
  8
Layer_1
 62
7
100
AcDbLine
 10
3.000010
 20
-17.999992
 30
0.0
 11
3.040642
 21
-17.596922
 31
0.0
  0
LINE
  5
1d9
100
AcDbEntity
  8
Layer_1
 62
7
100
AcDbLine
 10
3.040642
 20
-17.596922
 30
0.0
 11
3.157179
 21
-17.221510
 31
0.0
  0
LINE
  5
1da
100
AcDbEntity
  8
Layer_1
 62
7
100
AcDbLine
 10
3.157179
 20
-17.221510
 30
0.0
 11
3.341578
 21
-16.881771
 31
0.0
  0
LINE
  5
1db
100
AcDbEntity
  8
Layer_1
 62
7
100
AcDbLine
 10
3.341578
 20
-16.881771
 30
0.0
 11
3.585796
 21
-16.585776
 31
0.0
  0
LINE
  5
1dc
100
AcDbEntity
  8
Layer_1
 62
7
100
AcDbLine
 10
3.585796
 20
-16.585776
 30
0.0
 11
3.881791
 21
-16.341569
 31
0.0
  0
LINE
  5
1dd
100
AcDbEntity
  8
Layer_1
 62
7
100
AcDbLine
 10
3.881791
 20
-16.341569
 30
0.0
 11
4.221520
 21
-16.157165
 31
0.0
  0
LINE
  5
1de
100
AcDbEntity
  8
Layer_1
 62
7
100
AcDbLine
 10
4.221520
 20
-16.157165
 30
0.0
 11
4.596940
 21
-16.040636
 31
0.0
  0
LINE
  5
1df
100
AcDbEntity
  8
Layer_1
 62
7
100
AcDbLine
 10
4.596940
 20
-16.040636
 30
0.0
 11
5.000010
 21
-15.999996
 31
0.0
  0
LINE
  5
1e0
100
AcDbEntity
  8
Layer_1
 62
7
100
AcDbLine
 10
5.000010
 20
-15.999996
 30
0.0
 11
5.403079
 21
-16.040636
 31
0.0
  0
LINE
  5
1e1
100
AcDbEntity
  8
Layer_1
 62
7
100
AcDbLine
 10
5.403079
 20
-16.040636
 30
0.0
 11
5.778499
 21
-16.157165
 31
0.0
  0
LINE
  5
1e2
100
AcDbEntity
  8
Layer_1
 62
7
100
AcDbLine
 10
5.778499
 20
-16.157165
 30
0.0
 11
6.118228
 21
-16.341569
 31
0.0
  0
LINE
  5
1e3
100
AcDbEntity
  8
Layer_1
 62
7
100
AcDbLine
 10
6.118228
 20
-16.341569
 30
0.0
 11
6.414222
 21
-16.585776
 31
0.0
  0
LINE
  5
1e4
100
AcDbEntity
  8
Layer_1
 62
7
100
AcDbLine
 10
6.414222
 20
-16.585776
 30
0.0
 11
6.658440
 21
-16.881771
 31
0.0
  0
LINE
  5
1e5
100
AcDbEntity
  8
Layer_1
 62
7
100
AcDbLine
 10
6.658440
 20
-16.881771
 30
0.0
 11
6.842839
 21
-17.221510
 31
0.0
  0
LINE
  5
1e6
100
AcDbEntity
  8
Layer_1
 62
7
100
AcDbLine
 10
6.842839
 20
-17.221510
 30
0.0
 11
6.959376
 21
-17.596922
 31
0.0
  0
LINE
  5
1e7
100
AcDbEntity
  8
Layer_1
 62
7
100
AcDbLine
 10
6.959376
 20
-17.596922
 30
0.0
 11
7.000010
 21
-17.999992
 31
0.0
  0
LINE
  5
1e8
100
AcDbEntity
  8
Layer_1
 62
7
100
AcDbLine
 10
7.000010
 20
-17.999992
 30
0.0
 11
6.959377
 21
-18.403061
 31
0.0
  0
LINE
  5
1e9
100
AcDbEntity
  8
Layer_1
 62
7
100
AcDbLine
 10
6.959377
 20
-18.403061
 30
0.0
 11
6.842840
 21
-18.778473
 31
0.0
  0
LINE
  5
1ea
100
AcDbEntity
  8
Layer_1
 62
7
100
AcDbLine
 10
6.842840
 20
-18.778473
 30
0.0
 11
6.658442
 21
-19.118212
 31
0.0
  0
LINE
  5
1eb
100
AcDbEntity
  8
Layer_1
 62
7
100
AcDbLine
 10
6.658442
 20
-19.118212
 30
0.0
 11
6.414224
 21
-19.414207
 31
0.0
  0
LINE
  5
1ec
100
AcDbEntity
  8
Layer_1
 62
7
100
AcDbLine
 10
6.414224
 20
-19.414207
 30
0.0
 11
6.118229
 21
-19.658414
 31
0.0
  0
LINE
  5
1ed
100
AcDbEntity
  8
Layer_1
 62
7
100
AcDbLine
 10
6.118229
 20
-19.658414
 30
0.0
 11
5.778500
 21
-19.842818
 31
0.0
  0
LINE
  5
1ee
100
AcDbEntity
  8
Layer_1
 62
7
100
AcDbLine
 10
5.778500
 20
-19.842818
 30
0.0
 11
5.403079
 21
-19.959348
 31
0.0
  0
LINE
  5
1ef
100
AcDbEntity
  8
Layer_1
 62
7
100
AcDbLine
 10
5.403079
 20
-19.959348
 30
0.0
 11
5.000010
 21
-19.999988
 31
0.0
  0
LINE
  5
1f0
100
AcDbEntity
  8
Layer_1
 62
7
100
AcDbLine
 10
-24.999985
 20
-9.999979
 30
0.0
 11
-25.403054
 21
-9.959339
 31
0.0
  0
LINE
  5
1f1
100
AcDbEntity
  8
Layer_1
 62
7
100
AcDbLine
 10
-25.403054
 20
-9.959339
 30
0.0
 11
-25.778474
 21
-9.842810
 31
0.0
  0
LINE
  5
1f2
100
AcDbEntity
  8
Layer_1
 62
7
100
AcDbLine
 10
-25.778474
 20
-9.842810
 30
0.0
 11
-26.118202
 21
-9.658406
 31
0.0
  0
LINE
  5
1f3
100
AcDbEntity
  8
Layer_1
 62
7
100
AcDbLine
 10
-26.118202
 20
-9.658406
 30
0.0
 11
-26.414197
 21
-9.414199
 31
0.0
  0
LINE
  5
1f4
100
AcDbEntity
  8
Layer_1
 62
7
100
AcDbLine
 10
-26.414197
 20
-9.414199
 30
0.0
 11
-26.658415
 21
-9.118204
 31
0.0
  0
LINE
  5
1f5
100
AcDbEntity
  8
Layer_1
 62
7
100
AcDbLine
 10
-26.658415
 20
-9.118204
 30
0.0
 11
-26.842814
 21
-8.778465
 31
0.0
  0
LINE
  5
1f6
100
AcDbEntity
  8
Layer_1
 62
7
100
AcDbLine
 10
-26.842814
 20
-8.778465
 30
0.0
 11
-26.959351
 21
-8.403053
 31
0.0
  0
LINE
  5
1f7
100
AcDbEntity
  8
Layer_1
 62
7
100
AcDbLine
 10
-26.959351
 20
-8.403053
 30
0.0
 11
-26.999985
 21
-7.999983
 31
0.0
  0
LINE
  5
1f8
100
AcDbEntity
  8
Layer_1
 62
7
100
AcDbLine
 10
-26.999985
 20
-7.999983
 30
0.0
 11
-26.959352
 21
-7.596914
 31
0.0
  0
LINE
  5
1f9
100
AcDbEntity
  8
Layer_1
 62
7
100
AcDbLine
 10
-26.959352
 20
-7.596914
 30
0.0
 11
-26.842815
 21
-7.221502
 31
0.0
  0
LINE
  5
1fa
100
AcDbEntity
  8
Layer_1
 62
7
100
AcDbLine
 10
-26.842815
 20
-7.221502
 30
0.0
 11
-26.658417
 21
-6.881762
 31
0.0
  0
LINE
  5
1fb
100
AcDbEntity
  8
Layer_1
 62
7
100
AcDbLine
 10
-26.658417
 20
-6.881762
 30
0.0
 11
-26.414199
 21
-6.585768
 31
0.0
  0
LINE
  5
1fc
100
AcDbEntity
  8
Layer_1
 62
7
100
AcDbLine
 10
-26.414199
 20
-6.585768
 30
0.0
 11
-26.118204
 21
-6.341561
 31
0.0
  0
LINE
  5
1fd
100
AcDbEntity
  8
Layer_1
 62
7
100
AcDbLine
 10
-26.118204
 20
-6.341561
 30
0.0
 11
-25.778475
 21
-6.157157
 31
0.0
  0
LINE
  5
1fe
100
AcDbEntity
  8
Layer_1
 62
7
100
AcDbLine
 10
-25.778475
 20
-6.157157
 30
0.0
 11
-25.403054
 21
-6.040627
 31
0.0
  0
LINE
  5
1ff
100
AcDbEntity
  8
Layer_1
 62
7
100
AcDbLine
 10
-25.403054
 20
-6.040627
 30
0.0
 11
-24.999985
 21
-5.999987
 31
0.0
  0
LINE
  5
200
100
AcDbEntity
  8
Layer_1
 62
7
100
AcDbLine
 10
-24.999985
 20
-5.999987
 30
0.0
 11
-24.596915
 21
-6.040627
 31
0.0
  0
LINE
  5
201
100
AcDbEntity
  8
Layer_1
 62
7
100
AcDbLine
 10
-24.596915
 20
-6.040627
 30
0.0
 11
-24.221495
 21
-6.157157
 31
0.0
  0
LINE
  5
202
100
AcDbEntity
  8
Layer_1
 62
7
100
AcDbLine
 10
-24.221495
 20
-6.157157
 30
0.0
 11
-23.881767
 21
-6.341561
 31
0.0
  0
LINE
  5
203
100
AcDbEntity
  8
Layer_1
 62
7
100
AcDbLine
 10
-23.881767
 20
-6.341561
 30
0.0
 11
-23.585773
 21
-6.585768
 31
0.0
  0
LINE
  5
204
100
AcDbEntity
  8
Layer_1
 62
7
100
AcDbLine
 10
-23.585773
 20
-6.585768
 30
0.0
 11
-23.341555
 21
-6.881762
 31
0.0
  0
LINE
  5
205
100
AcDbEntity
  8
Layer_1
 62
7
100
AcDbLine
 10
-23.341555
 20
-6.881762
 30
0.0
 11
-23.157156
 21
-7.221502
 31
0.0
  0
LINE
  5
206
100
AcDbEntity
  8
Layer_1
 62
7
100
AcDbLine
 10
-23.157156
 20
-7.221502
 30
0.0
 11
-23.040618
 21
-7.596914
 31
0.0
  0
LINE
  5
207
100
AcDbEntity
  8
Layer_1
 62
7
100
AcDbLine
 10
-23.040618
 20
-7.596914
 30
0.0
 11
-22.999985
 21
-7.999983
 31
0.0
  0
LINE
  5
208
100
AcDbEntity
  8
Layer_1
 62
7
100
AcDbLine
 10
-22.999985
 20
-7.999983
 30
0.0
 11
-23.040617
 21
-8.403053
 31
0.0
  0
LINE
  5
209
100
AcDbEntity
  8
Layer_1
 62
7
100
AcDbLine
 10
-23.040617
 20
-8.403053
 30
0.0
 11
-23.157154
 21
-8.778465
 31
0.0
  0
LINE
  5
20a
100
AcDbEntity
  8
Layer_1
 62
7
100
AcDbLine
 10
-23.157154
 20
-8.778465
 30
0.0
 11
-23.341553
 21
-9.118204
 31
0.0
  0
LINE
  5
20b
100
AcDbEntity
  8
Layer_1
 62
7
100
AcDbLine
 10
-23.341553
 20
-9.118204
 30
0.0
 11
-23.585771
 21
-9.414199
 31
0.0
  0
LINE
  5
20c
100
AcDbEntity
  8
Layer_1
 62
7
100
AcDbLine
 10
-23.585771
 20
-9.414199
 30
0.0
 11
-23.881766
 21
-9.658406
 31
0.0
  0
LINE
  5
20d
100
AcDbEntity
  8
Layer_1
 62
7
100
AcDbLine
 10
-23.881766
 20
-9.658406
 30
0.0
 11
-24.221495
 21
-9.842810
 31
0.0
  0
LINE
  5
20e
100
AcDbEntity
  8
Layer_1
 62
7
100
AcDbLine
 10
-24.221495
 20
-9.842810
 30
0.0
 11
-24.596915
 21
-9.959339
 31
0.0
  0
LINE
  5
20f
100
AcDbEntity
  8
Layer_1
 62
7
100
AcDbLine
 10
-24.596915
 20
-9.959339
 30
0.0
 11
-24.999985
 21
-9.999979
 31
0.0
  0
LINE
  5
210
100
AcDbEntity
  8
Layer_1
 62
7
100
AcDbLine
 10
-24.999985
 20
0.000029
 30
0.0
 11
-25.403054
 21
0.040669
 31
0.0
  0
LINE
  5
211
100
AcDbEntity
  8
Layer_1
 62
7
100
AcDbLine
 10
-25.403054
 20
0.040669
 30
0.0
 11
-25.778474
 21
0.157198
 31
0.0
  0
LINE
  5
212
100
AcDbEntity
  8
Layer_1
 62
7
100
AcDbLine
 10
-25.778474
 20
0.157198
 30
0.0
 11
-26.118202
 21
0.341602
 31
0.0
  0
LINE
  5
213
100
AcDbEntity
  8
Layer_1
 62
7
100
AcDbLine
 10
-26.118202
 20
0.341602
 30
0.0
 11
-26.414197
 21
0.585809
 31
0.0
  0
LINE
  5
214
100
AcDbEntity
  8
Layer_1
 62
7
100
AcDbLine
 10
-26.414197
 20
0.585809
 30
0.0
 11
-26.658415
 21
0.881804
 31
0.0
  0
LINE
  5
215
100
AcDbEntity
  8
Layer_1
 62
7
100
AcDbLine
 10
-26.658415
 20
0.881804
 30
0.0
 11
-26.842814
 21
1.221543
 31
0.0
  0
LINE
  5
216
100
AcDbEntity
  8
Layer_1
 62
7
100
AcDbLine
 10
-26.842814
 20
1.221543
 30
0.0
 11
-26.959351
 21
1.596955
 31
0.0
  0
LINE
  5
217
100
AcDbEntity
  8
Layer_1
 62
7
100
AcDbLine
 10
-26.959351
 20
1.596955
 30
0.0
 11
-26.999985
 21
2.000025
 31
0.0
  0
LINE
  5
218
100
AcDbEntity
  8
Layer_1
 62
7
100
AcDbLine
 10
-26.999985
 20
2.000025
 30
0.0
 11
-26.959352
 21
2.403095
 31
0.0
  0
LINE
  5
219
100
AcDbEntity
  8
Layer_1
 62
7
100
AcDbLine
 10
-26.959352
 20
2.403095
 30
0.0
 11
-26.842815
 21
2.778507
 31
0.0
  0
LINE
  5
21a
100
AcDbEntity
  8
Layer_1
 62
7
100
AcDbLine
 10
-26.842815
 20
2.778507
 30
0.0
 11
-26.658417
 21
3.118246
 31
0.0
  0
LINE
  5
21b
100
AcDbEntity
  8
Layer_1
 62
7
100
AcDbLine
 10
-26.658417
 20
3.118246
 30
0.0
 11
-26.414199
 21
3.414240
 31
0.0
  0
LINE
  5
21c
100
AcDbEntity
  8
Layer_1
 62
7
100
AcDbLine
 10
-26.414199
 20
3.414240
 30
0.0
 11
-26.118204
 21
3.658447
 31
0.0
  0
LINE
  5
21d
100
AcDbEntity
  8
Layer_1
 62
7
100
AcDbLine
 10
-26.118204
 20
3.658447
 30
0.0
 11
-25.778475
 21
3.842851
 31
0.0
  0
LINE
  5
21e
100
AcDbEntity
  8
Layer_1
 62
7
100
AcDbLine
 10
-25.778475
 20
3.842851
 30
0.0
 11
-25.403054
 21
3.959381
 31
0.0
  0
LINE
  5
21f
100
AcDbEntity
  8
Layer_1
 62
7
100
AcDbLine
 10
-25.403054
 20
3.959381
 30
0.0
 11
-24.999985
 21
4.000021
 31
0.0
  0
LINE
  5
220
100
AcDbEntity
  8
Layer_1
 62
7
100
AcDbLine
 10
-24.999985
 20
4.000021
 30
0.0
 11
-24.596915
 21
3.959381
 31
0.0
  0
LINE
  5
221
100
AcDbEntity
  8
Layer_1
 62
7
100
AcDbLine
 10
-24.596915
 20
3.959381
 30
0.0
 11
-24.221495
 21
3.842851
 31
0.0
  0
LINE
  5
222
100
AcDbEntity
  8
Layer_1
 62
7
100
AcDbLine
 10
-24.221495
 20
3.842851
 30
0.0
 11
-23.881767
 21
3.658447
 31
0.0
  0
LINE
  5
223
100
AcDbEntity
  8
Layer_1
 62
7
100
AcDbLine
 10
-23.881767
 20
3.658447
 30
0.0
 11
-23.585773
 21
3.414240
 31
0.0
  0
LINE
  5
224
100
AcDbEntity
  8
Layer_1
 62
7
100
AcDbLine
 10
-23.585773
 20
3.414240
 30
0.0
 11
-23.341555
 21
3.118246
 31
0.0
  0
LINE
  5
225
100
AcDbEntity
  8
Layer_1
 62
7
100
AcDbLine
 10
-23.341555
 20
3.118246
 30
0.0
 11
-23.157156
 21
2.778507
 31
0.0
  0
LINE
  5
226
100
AcDbEntity
  8
Layer_1
 62
7
100
AcDbLine
 10
-23.157156
 20
2.778507
 30
0.0
 11
-23.040618
 21
2.403095
 31
0.0
  0
LINE
  5
227
100
AcDbEntity
  8
Layer_1
 62
7
100
AcDbLine
 10
-23.040618
 20
2.403095
 30
0.0
 11
-22.999985
 21
2.000025
 31
0.0
  0
LINE
  5
228
100
AcDbEntity
  8
Layer_1
 62
7
100
AcDbLine
 10
-22.999985
 20
2.000025
 30
0.0
 11
-23.040617
 21
1.596955
 31
0.0
  0
LINE
  5
229
100
AcDbEntity
  8
Layer_1
 62
7
100
AcDbLine
 10
-23.040617
 20
1.596955
 30
0.0
 11
-23.157154
 21
1.221543
 31
0.0
  0
LINE
  5
22a
100
AcDbEntity
  8
Layer_1
 62
7
100
AcDbLine
 10
-23.157154
 20
1.221543
 30
0.0
 11
-23.341553
 21
0.881804
 31
0.0
  0
LINE
  5
22b
100
AcDbEntity
  8
Layer_1
 62
7
100
AcDbLine
 10
-23.341553
 20
0.881804
 30
0.0
 11
-23.585771
 21
0.585809
 31
0.0
  0
LINE
  5
22c
100
AcDbEntity
  8
Layer_1
 62
7
100
AcDbLine
 10
-23.585771
 20
0.585809
 30
0.0
 11
-23.881766
 21
0.341602
 31
0.0
  0
LINE
  5
22d
100
AcDbEntity
  8
Layer_1
 62
7
100
AcDbLine
 10
-23.881766
 20
0.341602
 30
0.0
 11
-24.221495
 21
0.157198
 31
0.0
  0
LINE
  5
22e
100
AcDbEntity
  8
Layer_1
 62
7
100
AcDbLine
 10
-24.221495
 20
0.157198
 30
0.0
 11
-24.596915
 21
0.040669
 31
0.0
  0
LINE
  5
22f
100
AcDbEntity
  8
Layer_1
 62
7
100
AcDbLine
 10
-24.596915
 20
0.040669
 30
0.0
 11
-24.999985
 21
0.000029
 31
0.0
  0
LINE
  5
230
100
AcDbEntity
  8
Layer_1
 62
7
100
AcDbLine
 10
-24.999985
 20
-19.999988
 30
0.0
 11
-25.403054
 21
-19.959348
 31
0.0
  0
LINE
  5
231
100
AcDbEntity
  8
Layer_1
 62
7
100
AcDbLine
 10
-25.403054
 20
-19.959348
 30
0.0
 11
-25.778474
 21
-19.842818
 31
0.0
  0
LINE
  5
232
100
AcDbEntity
  8
Layer_1
 62
7
100
AcDbLine
 10
-25.778474
 20
-19.842818
 30
0.0
 11
-26.118202
 21
-19.658414
 31
0.0
  0
LINE
  5
233
100
AcDbEntity
  8
Layer_1
 62
7
100
AcDbLine
 10
-26.118202
 20
-19.658414
 30
0.0
 11
-26.414197
 21
-19.414207
 31
0.0
  0
LINE
  5
234
100
AcDbEntity
  8
Layer_1
 62
7
100
AcDbLine
 10
-26.414197
 20
-19.414207
 30
0.0
 11
-26.658415
 21
-19.118212
 31
0.0
  0
LINE
  5
235
100
AcDbEntity
  8
Layer_1
 62
7
100
AcDbLine
 10
-26.658415
 20
-19.118212
 30
0.0
 11
-26.842814
 21
-18.778473
 31
0.0
  0
LINE
  5
236
100
AcDbEntity
  8
Layer_1
 62
7
100
AcDbLine
 10
-26.842814
 20
-18.778473
 30
0.0
 11
-26.959351
 21
-18.403061
 31
0.0
  0
LINE
  5
237
100
AcDbEntity
  8
Layer_1
 62
7
100
AcDbLine
 10
-26.959351
 20
-18.403061
 30
0.0
 11
-26.999985
 21
-17.999992
 31
0.0
  0
LINE
  5
238
100
AcDbEntity
  8
Layer_1
 62
7
100
AcDbLine
 10
-26.999985
 20
-17.999992
 30
0.0
 11
-26.959352
 21
-17.596922
 31
0.0
  0
LINE
  5
239
100
AcDbEntity
  8
Layer_1
 62
7
100
AcDbLine
 10
-26.959352
 20
-17.596922
 30
0.0
 11
-26.842815
 21
-17.221510
 31
0.0
  0
LINE
  5
23a
100
AcDbEntity
  8
Layer_1
 62
7
100
AcDbLine
 10
-26.842815
 20
-17.221510
 30
0.0
 11
-26.658417
 21
-16.881771
 31
0.0
  0
LINE
  5
23b
100
AcDbEntity
  8
Layer_1
 62
7
100
AcDbLine
 10
-26.658417
 20
-16.881771
 30
0.0
 11
-26.414199
 21
-16.585776
 31
0.0
  0
LINE
  5
23c
100
AcDbEntity
  8
Layer_1
 62
7
100
AcDbLine
 10
-26.414199
 20
-16.585776
 30
0.0
 11
-26.118204
 21
-16.341569
 31
0.0
  0
LINE
  5
23d
100
AcDbEntity
  8
Layer_1
 62
7
100
AcDbLine
 10
-26.118204
 20
-16.341569
 30
0.0
 11
-25.778475
 21
-16.157165
 31
0.0
  0
LINE
  5
23e
100
AcDbEntity
  8
Layer_1
 62
7
100
AcDbLine
 10
-25.778475
 20
-16.157165
 30
0.0
 11
-25.403054
 21
-16.040636
 31
0.0
  0
LINE
  5
23f
100
AcDbEntity
  8
Layer_1
 62
7
100
AcDbLine
 10
-25.403054
 20
-16.040636
 30
0.0
 11
-24.999985
 21
-15.999996
 31
0.0
  0
LINE
  5
240
100
AcDbEntity
  8
Layer_1
 62
7
100
AcDbLine
 10
-24.999985
 20
-15.999996
 30
0.0
 11
-24.596915
 21
-16.040636
 31
0.0
  0
LINE
  5
241
100
AcDbEntity
  8
Layer_1
 62
7
100
AcDbLine
 10
-24.596915
 20
-16.040636
 30
0.0
 11
-24.221495
 21
-16.157165
 31
0.0
  0
LINE
  5
242
100
AcDbEntity
  8
Layer_1
 62
7
100
AcDbLine
 10
-24.221495
 20
-16.157165
 30
0.0
 11
-23.881767
 21
-16.341569
 31
0.0
  0
LINE
  5
243
100
AcDbEntity
  8
Layer_1
 62
7
100
AcDbLine
 10
-23.881767
 20
-16.341569
 30
0.0
 11
-23.585773
 21
-16.585776
 31
0.0
  0
LINE
  5
244
100
AcDbEntity
  8
Layer_1
 62
7
100
AcDbLine
 10
-23.585773
 20
-16.585776
 30
0.0
 11
-23.341555
 21
-16.881771
 31
0.0
  0
LINE
  5
245
100
AcDbEntity
  8
Layer_1
 62
7
100
AcDbLine
 10
-23.341555
 20
-16.881771
 30
0.0
 11
-23.157156
 21
-17.221510
 31
0.0
  0
LINE
  5
246
100
AcDbEntity
  8
Layer_1
 62
7
100
AcDbLine
 10
-23.157156
 20
-17.221510
 30
0.0
 11
-23.040618
 21
-17.596922
 31
0.0
  0
LINE
  5
247
100
AcDbEntity
  8
Layer_1
 62
7
100
AcDbLine
 10
-23.040618
 20
-17.596922
 30
0.0
 11
-22.999985
 21
-17.999992
 31
0.0
  0
LINE
  5
248
100
AcDbEntity
  8
Layer_1
 62
7
100
AcDbLine
 10
-22.999985
 20
-17.999992
 30
0.0
 11
-23.040617
 21
-18.403061
 31
0.0
  0
LINE
  5
249
100
AcDbEntity
  8
Layer_1
 62
7
100
AcDbLine
 10
-23.040617
 20
-18.403061
 30
0.0
 11
-23.157154
 21
-18.778473
 31
0.0
  0
LINE
  5
24a
100
AcDbEntity
  8
Layer_1
 62
7
100
AcDbLine
 10
-23.157154
 20
-18.778473
 30
0.0
 11
-23.341553
 21
-19.118212
 31
0.0
  0
LINE
  5
24b
100
AcDbEntity
  8
Layer_1
 62
7
100
AcDbLine
 10
-23.341553
 20
-19.118212
 30
0.0
 11
-23.585771
 21
-19.414207
 31
0.0
  0
LINE
  5
24c
100
AcDbEntity
  8
Layer_1
 62
7
100
AcDbLine
 10
-23.585771
 20
-19.414207
 30
0.0
 11
-23.881766
 21
-19.658414
 31
0.0
  0
LINE
  5
24d
100
AcDbEntity
  8
Layer_1
 62
7
100
AcDbLine
 10
-23.881766
 20
-19.658414
 30
0.0
 11
-24.221495
 21
-19.842818
 31
0.0
  0
LINE
  5
24e
100
AcDbEntity
  8
Layer_1
 62
7
100
AcDbLine
 10
-24.221495
 20
-19.842818
 30
0.0
 11
-24.596915
 21
-19.959348
 31
0.0
  0
LINE
  5
24f
100
AcDbEntity
  8
Layer_1
 62
7
100
AcDbLine
 10
-24.596915
 20
-19.959348
 30
0.0
 11
-24.999985
 21
-19.999988
 31
0.0
  0
LINE
  5
250
100
AcDbEntity
  8
Layer_1
 62
7
100
AcDbLine
 10
-15.000009
 20
-19.999988
 30
0.0
 11
-15.403078
 21
-19.959348
 31
0.0
  0
LINE
  5
251
100
AcDbEntity
  8
Layer_1
 62
7
100
AcDbLine
 10
-15.403078
 20
-19.959348
 30
0.0
 11
-15.778499
 21
-19.842818
 31
0.0
  0
LINE
  5
252
100
AcDbEntity
  8
Layer_1
 62
7
100
AcDbLine
 10
-15.778499
 20
-19.842818
 30
0.0
 11
-16.118227
 21
-19.658414
 31
0.0
  0
LINE
  5
253
100
AcDbEntity
  8
Layer_1
 62
7
100
AcDbLine
 10
-16.118227
 20
-19.658414
 30
0.0
 11
-16.414221
 21
-19.414207
 31
0.0
  0
LINE
  5
254
100
AcDbEntity
  8
Layer_1
 62
7
100
AcDbLine
 10
-16.414221
 20
-19.414207
 30
0.0
 11
-16.658439
 21
-19.118212
 31
0.0
  0
LINE
  5
255
100
AcDbEntity
  8
Layer_1
 62
7
100
AcDbLine
 10
-16.658439
 20
-19.118212
 30
0.0
 11
-16.842838
 21
-18.778473
 31
0.0
  0
LINE
  5
256
100
AcDbEntity
  8
Layer_1
 62
7
100
AcDbLine
 10
-16.842838
 20
-18.778473
 30
0.0
 11
-16.959376
 21
-18.403061
 31
0.0
  0
LINE
  5
257
100
AcDbEntity
  8
Layer_1
 62
7
100
AcDbLine
 10
-16.959376
 20
-18.403061
 30
0.0
 11
-17.000009
 21
-17.999992
 31
0.0
  0
LINE
  5
258
100
AcDbEntity
  8
Layer_1
 62
7
100
AcDbLine
 10
-17.000009
 20
-17.999992
 30
0.0
 11
-16.959377
 21
-17.596922
 31
0.0
  0
LINE
  5
259
100
AcDbEntity
  8
Layer_1
 62
7
100
AcDbLine
 10
-16.959377
 20
-17.596922
 30
0.0
 11
-16.842840
 21
-17.221510
 31
0.0
  0
LINE
  5
25a
100
AcDbEntity
  8
Layer_1
 62
7
100
AcDbLine
 10
-16.842840
 20
-17.221510
 30
0.0
 11
-16.658441
 21
-16.881771
 31
0.0
  0
LINE
  5
25b
100
AcDbEntity
  8
Layer_1
 62
7
100
AcDbLine
 10
-16.658441
 20
-16.881771
 30
0.0
 11
-16.414223
 21
-16.585776
 31
0.0
  0
LINE
  5
25c
100
AcDbEntity
  8
Layer_1
 62
7
100
AcDbLine
 10
-16.414223
 20
-16.585776
 30
0.0
 11
-16.118228
 21
-16.341569
 31
0.0
  0
LINE
  5
25d
100
AcDbEntity
  8
Layer_1
 62
7
100
AcDbLine
 10
-16.118228
 20
-16.341569
 30
0.0
 11
-15.778499
 21
-16.157165
 31
0.0
  0
LINE
  5
25e
100
AcDbEntity
  8
Layer_1
 62
7
100
AcDbLine
 10
-15.778499
 20
-16.157165
 30
0.0
 11
-15.403079
 21
-16.040636
 31
0.0
  0
LINE
  5
25f
100
AcDbEntity
  8
Layer_1
 62
7
100
AcDbLine
 10
-15.403079
 20
-16.040636
 30
0.0
 11
-15.000009
 21
-15.999996
 31
0.0
  0
LINE
  5
260
100
AcDbEntity
  8
Layer_1
 62
7
100
AcDbLine
 10
-15.000009
 20
-15.999996
 30
0.0
 11
-14.596940
 21
-16.040636
 31
0.0
  0
LINE
  5
261
100
AcDbEntity
  8
Layer_1
 62
7
100
AcDbLine
 10
-14.596940
 20
-16.040636
 30
0.0
 11
-14.221520
 21
-16.157165
 31
0.0
  0
LINE
  5
262
100
AcDbEntity
  8
Layer_1
 62
7
100
AcDbLine
 10
-14.221520
 20
-16.157165
 30
0.0
 11
-13.881791
 21
-16.341569
 31
0.0
  0
LINE
  5
263
100
AcDbEntity
  8
Layer_1
 62
7
100
AcDbLine
 10
-13.881791
 20
-16.341569
 30
0.0
 11
-13.585797
 21
-16.585776
 31
0.0
  0
LINE
  5
264
100
AcDbEntity
  8
Layer_1
 62
7
100
AcDbLine
 10
-13.585797
 20
-16.585776
 30
0.0
 11
-13.341579
 21
-16.881771
 31
0.0
  0
LINE
  5
265
100
AcDbEntity
  8
Layer_1
 62
7
100
AcDbLine
 10
-13.341579
 20
-16.881771
 30
0.0
 11
-13.157180
 21
-17.221510
 31
0.0
  0
LINE
  5
266
100
AcDbEntity
  8
Layer_1
 62
7
100
AcDbLine
 10
-13.157180
 20
-17.221510
 30
0.0
 11
-13.040643
 21
-17.596922
 31
0.0
  0
LINE
  5
267
100
AcDbEntity
  8
Layer_1
 62
7
100
AcDbLine
 10
-13.040643
 20
-17.596922
 30
0.0
 11
-13.000009
 21
-17.999992
 31
0.0
  0
LINE
  5
268
100
AcDbEntity
  8
Layer_1
 62
7
100
AcDbLine
 10
-13.000009
 20
-17.999992
 30
0.0
 11
-13.040642
 21
-18.403061
 31
0.0
  0
LINE
  5
269
100
AcDbEntity
  8
Layer_1
 62
7
100
AcDbLine
 10
-13.040642
 20
-18.403061
 30
0.0
 11
-13.157179
 21
-18.778473
 31
0.0
  0
LINE
  5
26a
100
AcDbEntity
  8
Layer_1
 62
7
100
AcDbLine
 10
-13.157179
 20
-18.778473
 30
0.0
 11
-13.341577
 21
-19.118212
 31
0.0
  0
LINE
  5
26b
100
AcDbEntity
  8
Layer_1
 62
7
100
AcDbLine
 10
-13.341577
 20
-19.118212
 30
0.0
 11
-13.585795
 21
-19.414207
 31
0.0
  0
LINE
  5
26c
100
AcDbEntity
  8
Layer_1
 62
7
100
AcDbLine
 10
-13.585795
 20
-19.414207
 30
0.0
 11
-13.881790
 21
-19.658414
 31
0.0
  0
LINE
  5
26d
100
AcDbEntity
  8
Layer_1
 62
7
100
AcDbLine
 10
-13.881790
 20
-19.658414
 30
0.0
 11
-14.221519
 21
-19.842818
 31
0.0
  0
LINE
  5
26e
100
AcDbEntity
  8
Layer_1
 62
7
100
AcDbLine
 10
-14.221519
 20
-19.842818
 30
0.0
 11
-14.596940
 21
-19.959348
 31
0.0
  0
LINE
  5
26f
100
AcDbEntity
  8
Layer_1
 62
7
100
AcDbLine
 10
-14.596940
 20
-19.959348
 30
0.0
 11
-15.000009
 21
-19.999988
 31
0.0
  0
ENDSEC
  0
SECTION
  2
OBJECTS
  0
DICTIONARY
  5
C
330
0
100
AcDbDictionary
  3
ACAD_GROUP
350
D
  3
ACAD_MLINESTYLE
350
17
  0
DICTIONARY
  5
D
330
C
100
AcDbDictionary
  0
DICTIONARY
  5
1A
330
C
100
AcDbDictionary
  0
DICTIONARY
  5
17
330
C
100
AcDbDictionary
  3
STANDARD
350
18
  0
DICTIONARY
  5
19
330
C
100
AcDbDictionary
  0
ENDSEC
  0
EOF
