  0
SECTION
  2
HEADER
  9
$ACADVER
  1
AC1014
  9
$HANDSEED
  5
FFFF
  9
$MEASUREMENT
 70
     1
  0
ENDSEC
  0
SECTION
  2
TABLES
  0
TABLE
  2
VPORT
  5
8
330
0
100
AcDbSymbolTable
 70
     4
  0
VPORT
  5
2E
330
8
100
AcDbSymbolTableRecord
100
AcDbViewportTableRecord
  2
*ACTIVE
 70
     0
 10
0.0
 20
0.0
 11
1.0
 21
1.0
 12
210.0
 22
148.5
 13
0.0
 23
0.0
 14
10.0
 24
10.0
 15
10.0
 25
10.0
 16
0.0
 26
0.0
 36
1.0
 17
0.0
 27
0.0
 37
0.0
 40
341.0
 41
1.24
 42
50.0
 43
0.0
 44
0.0
 50
0.0
 51
0.0
 71
     0
 72
   100
 73
     1
 74
     3
 75
     0
 76
     0
 77
     0
 78
     0
  0
ENDTAB
  0
TABLE
  2
LTYPE
  5
5
330
0
100
AcDbSymbolTable
 70
     1
  0
LTYPE
  5
14
330
5
100
AcDbSymbolTableRecord
100
AcDbLinetypeTableRecord
  2
BYBLOCK
 70
     0
  3

 72
    65
 73
     0
 40
0.0
  0
LTYPE
  5
15
330
5
100
AcDbSymbolTableRecord
100
AcDbLinetypeTableRecord
  2
BYLAYER
 70
     0
  3

 72
    65
 73
     0
 40
0.0
  0
LTYPE
  5
16
330
5
100
AcDbSymbolTableRecord
100
AcDbLinetypeTableRecord
  2
CONTINUOUS
 70
     0
  3
Solid line
 72
    65
 73
     0
 40
0.0
  0
ENDTAB
  0
TABLE
  2
LAYER
  5
2
100
AcDbSymbolTable
 70
2
  0
LAYER
  5
50
100
AcDbSymbolTableRecord
100
AcDbLayerTableRecord
  2
0
 70
0
  6
CONTINUOUS
  0
LAYER
  5
51
100
AcDbSymbolTableRecord
100
AcDbLayerTableRecord
  2
Layer_1
 70
0
  6
CONTINUOUS
  0
ENDTAB
  0
TABLE
  2
STYLE
  5
3
330
0
100
AcDbSymbolTable
 70
     1
  0
STYLE
  5
11
330
3
100
AcDbSymbolTableRecord
100
AcDbTextStyleTableRecord
  2
STANDARD
 70
     0
 40
0.0
 41
1.0
 50
0.0
 71
     0
 42
2.5
  3
txt
  4

  0
ENDTAB
  0
TABLE
  2
VIEW
  5
6
330
0
100
AcDbSymbolTable
 70
     0
  0
ENDTAB
  0
TABLE
  2
UCS
  5
7
330
0
100
AcDbSymbolTable
 70
     0
  0
ENDTAB
  0
TABLE
  2
APPID
  5
9
330
0
100
AcDbSymbolTable
 70
     2
  0
APPID
  5
12
330
9
100
AcDbSymbolTableRecord
100
AcDbRegAppTableRecord
  2
ACAD
 70
     0
  0
ENDTAB
  0
TABLE
  2
DIMSTYLE
  5
A
330
0
100
AcDbSymbolTable
 70
     1
  0
DIMSTYLE
105
27
330
A
100
AcDbSymbolTableRecord
100
AcDbDimStyleTableRecord
  2
ISO-25
 70
     0
  3

  4

  5

  6

  7

 40
1.0
 41
2.5
 42
0.625
 43
3.75
 44
1.25
 45
0.0
 46
0.0
 47
0.0
 48
0.0
140
2.5
141
2.5
142
0.0
143
0.03937007874016
144
1.0
145
0.0
146
1.0
147
0.625
 71
     0
 72
     0
 73
     0
 74
     0
 75
     0
 76
     0
 77
     1
 78
     8
170
     0
171
     3
172
     1
173
     0
174
     0
175
     0
176
     0
177
     0
178
     0
270
     2
271
     2
272
     2
273
     2
274
     3
340
11
275
     0
280
     0
281
     0
282
     0
283
     0
284
     8
285
     0
286
     0
287
     3
288
     0
  0
ENDTAB
  0
TABLE
  2
BLOCK_RECORD
  5
1
330
0
100
AcDbSymbolTable
 70
     1
  0
BLOCK_RECORD
  5
1F
330
1
100
AcDbSymbolTableRecord
100
AcDbBlockTableRecord
  2
*MODEL_SPACE
  0
BLOCK_RECORD
  5
1B
330
1
100
AcDbSymbolTableRecord
100
AcDbBlockTableRecord
  2
*PAPER_SPACE
  0
ENDTAB
  0
ENDSEC
  0
SECTION
  2
BLOCKS
  0
BLOCK
  5
20
330
1F
100
AcDbEntity
  8
0
100
AcDbBlockBegin
  2
*MODEL_SPACE
 70
     0
 10
0.0
 20
0.0
 30
0.0
  3
*MODEL_SPACE
  1

  0
ENDBLK
  5
21
330
1F
100
AcDbEntity
  8
0
100
AcDbBlockEnd
  0
BLOCK
  5
1C
330
1B
100
AcDbEntity
 67
     1
  8
0
100
AcDbBlockBegin
  2
*PAPER_SPACE
  1

  0
ENDBLK
  5
1D
330
1B
100
AcDbEntity
 67
     1
  8
0
100
AcDbBlockEnd
  0
ENDSEC
  0
SECTION
  2
ENTITIES
  0
LINE
  5
100
100
AcDbEntity
  8
Layer_1
 62
7
100
AcDbLine
 10
20.000004
 20
15.000030
 30
0.0
 11
19.898773
 21
16.010163
 31
0.0
  0
LINE
  5
101
100
AcDbEntity
  8
Layer_1
 62
7
100
AcDbLine
 10
19.898773
 20
16.010163
 30
0.0
 11
19.608285
 21
16.949864
 31
0.0
  0
LINE
  5
102
100
AcDbEntity
  8
Layer_1
 62
7
100
AcDbLine
 10
19.608285
 20
16.949864
 30
0.0
 11
19.148343
 21
17.799336
 31
0.0
  0
LINE
  5
103
100
AcDbEntity
  8
Layer_1
 62
7
100
AcDbLine
 10
19.148343
 20
17.799336
 30
0.0
 11
18.538752
 21
18.538769
 31
0.0
  0
LINE
  5
104
100
AcDbEntity
  8
Layer_1
 62
7
100
AcDbLine
 10
18.538752
 20
18.538769
 30
0.0
 11
17.799318
 21
19.148358
 31
0.0
  0
LINE
  5
105
100
AcDbEntity
  8
Layer_1
 62
7
100
AcDbLine
 10
17.799318
 20
19.148358
 30
0.0
 11
16.949845
 21
19.608301
 31
0.0
  0
LINE
  5
106
100
AcDbEntity
  8
Layer_1
 62
7
100
AcDbLine
 10
16.949845
 20
19.608301
 30
0.0
 11
16.010139
 21
19.898790
 31
0.0
  0
LINE
  5
107
100
AcDbEntity
  8
Layer_1
 62
7
100
AcDbLine
 10
16.010139
 20
19.898790
 30
0.0
 11
15.000003
 21
20.000020
 31
0.0
  0
LINE
  5
108
100
AcDbEntity
  8
Layer_1
 62
7
100
AcDbLine
 10
15.000003
 20
20.000020
 30
0.0
 11
4.999989
 21
20.000020
 31
0.0
  0
LINE
  5
109
100
AcDbEntity
  8
Layer_1
 62
7
100
AcDbLine
 10
4.999989
 20
20.000020
 30
0.0
 11
3.989853
 21
19.898790
 31
0.0
  0
LINE
  5
10a
100
AcDbEntity
  8
Layer_1
 62
7
100
AcDbLine
 10
3.989853
 20
19.898790
 30
0.0
 11
3.050148
 21
19.608301
 31
0.0
  0
LINE
  5
10b
100
AcDbEntity
  8
Layer_1
 62
7
100
AcDbLine
 10
3.050148
 20
19.608301
 30
0.0
 11
2.200677
 21
19.148358
 31
0.0
  0
LINE
  5
10c
100
AcDbEntity
  8
Layer_1
 62
7
100
AcDbLine
 10
2.200677
 20
19.148358
 30
0.0
 11
1.461246
 21
18.538769
 31
0.0
  0
LINE
  5
10d
100
AcDbEntity
  8
Layer_1
 62
7
100
AcDbLine
 10
1.461246
 20
18.538769
 30
0.0
 11
0.851658
 21
17.799336
 31
0.0
  0
LINE
  5
10e
100
AcDbEntity
  8
Layer_1
 62
7
100
AcDbLine
 10
0.851658
 20
17.799336
 30
0.0
 11
0.391719
 21
16.949864
 31
0.0
  0
LINE
  5
10f
100
AcDbEntity
  8
Layer_1
 62
7
100
AcDbLine
 10
0.391719
 20
16.949864
 30
0.0
 11
0.101231
 21
16.010163
 31
0.0
  0
LINE
  5
110
100
AcDbEntity
  8
Layer_1
 62
7
100
AcDbLine
 10
0.101231
 20
16.010163
 30
0.0
 11
0.000001
 21
15.000030
 31
0.0
  0
LINE
  5
111
100
AcDbEntity
  8
Layer_1
 62
7
100
AcDbLine
 10
0.000001
 20
15.000030
 30
0.0
 11
0.000000
 21
5.000019
 31
0.0
  0
LINE
  5
112
100
AcDbEntity
  8
Layer_1
 62
7
100
AcDbLine
 10
0.000000
 20
5.000019
 30
0.0
 11
0.101230
 21
3.989889
 31
0.0
  0
LINE
  5
113
100
AcDbEntity
  8
Layer_1
 62
7
100
AcDbLine
 10
0.101230
 20
3.989889
 30
0.0
 11
0.391717
 21
3.050174
 31
0.0
  0
LINE
  5
114
100
AcDbEntity
  8
Layer_1
 62
7
100
AcDbLine
 10
0.391717
 20
3.050174
 30
0.0
 11
0.851657
 21
2.200685
 31
0.0
  0
LINE
  5
115
100
AcDbEntity
  8
Layer_1
 62
7
100
AcDbLine
 10
0.851657
 20
2.200685
 30
0.0
 11
1.461245
 21
1.461263
 31
0.0
  0
LINE
  5
116
100
AcDbEntity
  8
Layer_1
 62
7
100
AcDbLine
 10
1.461245
 20
1.461263
 30
0.0
 11
2.200676
 21
0.851663
 31
0.0
  0
LINE
  5
117
100
AcDbEntity
  8
Layer_1
 62
7
100
AcDbLine
 10
2.200676
 20
0.851663
 30
0.0
 11
3.050147
 21
0.391725
 31
0.0
  0
LINE
  5
118
100
AcDbEntity
  8
Layer_1
 62
7
100
AcDbLine
 10
3.050147
 20
0.391725
 30
0.0
 11
3.989852
 21
0.101234
 31
0.0
  0
LINE
  5
119
100
AcDbEntity
  8
Layer_1
 62
7
100
AcDbLine
 10
3.989852
 20
0.101234
 30
0.0
 11
4.999987
 21
0.000001
 31
0.0
  0
LINE
  5
11a
100
AcDbEntity
  8
Layer_1
 62
7
100
AcDbLine
 10
4.999987
 20
0.000001
 30
0.0
 11
15.000003
 21
0.000029
 31
0.0
  0
LINE
  5
11b
100
AcDbEntity
  8
Layer_1
 62
7
100
AcDbLine
 10
15.000003
 20
0.000029
 30
0.0
 11
16.010139
 21
0.101262
 31
0.0
  0
LINE
  5
11c
100
AcDbEntity
  8
Layer_1
 62
7
100
AcDbLine
 10
16.010139
 20
0.101262
 30
0.0
 11
16.949845
 21
0.391753
 31
0.0
  0
LINE
  5
11d
100
AcDbEntity
  8
Layer_1
 62
7
100
AcDbLine
 10
16.949845
 20
0.391753
 30
0.0
 11
17.799318
 21
0.851691
 31
0.0
  0
LINE
  5
11e
100
AcDbEntity
  8
Layer_1
 62
7
100
AcDbLine
 10
17.799318
 20
0.851691
 30
0.0
 11
18.538752
 21
1.461291
 31
0.0
  0
LINE
  5
11f
100
AcDbEntity
  8
Layer_1
 62
7
100
AcDbLine
 10
18.538752
 20
1.461291
 30
0.0
 11
19.148343
 21
2.200741
 31
0.0
  0
LINE
  5
120
100
AcDbEntity
  8
Layer_1
 62
7
100
AcDbLine
 10
19.148343
 20
2.200741
 30
0.0
 11
19.608285
 21
3.050202
 31
0.0
  0
LINE
  5
121
100
AcDbEntity
  8
Layer_1
 62
7
100
AcDbLine
 10
19.608285
 20
3.050202
 30
0.0
 11
19.898773
 21
3.989917
 31
0.0
  0
LINE
  5
122
100
AcDbEntity
  8
Layer_1
 62
7
100
AcDbLine
 10
19.898773
 20
3.989917
 30
0.0
 11
20.000004
 21
5.000047
 31
0.0
  0
LINE
  5
123
100
AcDbEntity
  8
Layer_1
 62
7
100
AcDbLine
 10
20.000004
 20
5.000047
 30
0.0
 11
20.000004
 21
15.000030
 31
0.0
  0
LINE
  5
124
100
AcDbEntity
  8
Layer_1
 62
7
100
AcDbLine
 10
17.000002
 20
15.000022
 30
0.0
 11
16.959367
 21
14.596957
 31
0.0
  0
LINE
  5
125
100
AcDbEntity
  8
Layer_1
 62
7
100
AcDbLine
 10
16.959367
 20
14.596957
 30
0.0
 11
16.842829
 21
14.221545
 31
0.0
  0
LINE
  5
126
100
AcDbEntity
  8
Layer_1
 62
7
100
AcDbLine
 10
16.842829
 20
14.221545
 30
0.0
 11
16.658430
 21
13.881806
 31
0.0
  0
LINE
  5
127
100
AcDbEntity
  8
Layer_1
 62
7
100
AcDbLine
 10
16.658430
 20
13.881806
 30
0.0
 11
16.414212
 21
13.585812
 31
0.0
  0
LINE
  5
128
100
AcDbEntity
  8
Layer_1
 62
7
100
AcDbLine
 10
16.414212
 20
13.585812
 30
0.0
 11
16.118218
 21
13.341605
 31
0.0
  0
LINE
  5
129
100
AcDbEntity
  8
Layer_1
 62
7
100
AcDbLine
 10
16.118218
 20
13.341605
 30
0.0
 11
15.778490
 21
13.157201
 31
0.0
  0
LINE
  5
12a
100
AcDbEntity
  8
Layer_1
 62
7
100
AcDbLine
 10
15.778490
 20
13.157201
 30
0.0
 11
15.403070
 21
13.040671
 31
0.0
  0
LINE
  5
12b
100
AcDbEntity
  8
Layer_1
 62
7
100
AcDbLine
 10
15.403070
 20
13.040671
 30
0.0
 11
15.000002
 21
13.000031
 31
0.0
  0
LINE
  5
12c
100
AcDbEntity
  8
Layer_1
 62
7
100
AcDbLine
 10
15.000002
 20
13.000031
 30
0.0
 11
14.596933
 21
13.040671
 31
0.0
  0
LINE
  5
12d
100
AcDbEntity
  8
Layer_1
 62
7
100
AcDbLine
 10
14.596933
 20
13.040671
 30
0.0
 11
14.221514
 21
13.157201
 31
0.0
  0
LINE
  5
12e
100
AcDbEntity
  8
Layer_1
 62
7
100
AcDbLine
 10
14.221514
 20
13.157201
 30
0.0
 11
13.881786
 21
13.341605
 31
0.0
  0
LINE
  5
12f
100
AcDbEntity
  8
Layer_1
 62
7
100
AcDbLine
 10
13.881786
 20
13.341605
 30
0.0
 11
13.585791
 21
13.585812
 31
0.0
  0
LINE
  5
130
100
AcDbEntity
  8
Layer_1
 62
7
100
AcDbLine
 10
13.585791
 20
13.585812
 30
0.0
 11
13.341574
 21
13.881806
 31
0.0
  0
LINE
  5
131
100
AcDbEntity
  8
Layer_1
 62
7
100
AcDbLine
 10
13.341574
 20
13.881806
 30
0.0
 11
13.157174
 21
14.221545
 31
0.0
  0
LINE
  5
132
100
AcDbEntity
  8
Layer_1
 62
7
100
AcDbLine
 10
13.157174
 20
14.221545
 30
0.0
 11
13.040636
 21
14.596957
 31
0.0
  0
LINE
  5
133
100
AcDbEntity
  8
Layer_1
 62
7
100
AcDbLine
 10
13.040636
 20
14.596957
 30
0.0
 11
13.000002
 21
15.000022
 31
0.0
  0
LINE
  5
134
100
AcDbEntity
  8
Layer_1
 62
7
100
AcDbLine
 10
13.000002
 20
15.000022
 30
0.0
 11
13.040633
 21
15.403091
 31
0.0
  0
LINE
  5
135
100
AcDbEntity
  8
Layer_1
 62
7
100
AcDbLine
 10
13.040633
 20
15.403091
 30
0.0
 11
13.157170
 21
15.778512
 31
0.0
  0
LINE
  5
136
100
AcDbEntity
  8
Layer_1
 62
7
100
AcDbLine
 10
13.157170
 20
15.778512
 30
0.0
 11
13.341568
 21
16.118240
 31
0.0
  0
LINE
  5
137
100
AcDbEntity
  8
Layer_1
 62
7
100
AcDbLine
 10
13.341568
 20
16.118240
 30
0.0
 11
13.585786
 21
16.414234
 31
0.0
  0
LINE
  5
138
100
AcDbEntity
  8
Layer_1
 62
7
100
AcDbLine
 10
13.585786
 20
16.414234
 30
0.0
 11
13.881781
 21
16.658452
 31
0.0
  0
LINE
  5
139
100
AcDbEntity
  8
Layer_1
 62
7
100
AcDbLine
 10
13.881781
 20
16.658452
 30
0.0
 11
14.221511
 21
16.842851
 31
0.0
  0
LINE
  5
13a
100
AcDbEntity
  8
Layer_1
 62
7
100
AcDbLine
 10
14.221511
 20
16.842851
 30
0.0
 11
14.596932
 21
16.959389
 31
0.0
  0
LINE
  5
13b
100
AcDbEntity
  8
Layer_1
 62
7
100
AcDbLine
 10
14.596932
 20
16.959389
 30
0.0
 11
15.000002
 21
17.000020
 31
0.0
  0
LINE
  5
13c
100
AcDbEntity
  8
Layer_1
 62
7
100
AcDbLine
 10
15.000002
 20
17.000020
 30
0.0
 11
15.403071
 21
16.959389
 31
0.0
  0
LINE
  5
13d
100
AcDbEntity
  8
Layer_1
 62
7
100
AcDbLine
 10
15.403071
 20
16.959389
 30
0.0
 11
15.778492
 21
16.842851
 31
0.0
  0
LINE
  5
13e
100
AcDbEntity
  8
Layer_1
 62
7
100
AcDbLine
 10
15.778492
 20
16.842851
 30
0.0
 11
16.118222
 21
16.658452
 31
0.0
  0
LINE
  5
13f
100
AcDbEntity
  8
Layer_1
 62
7
100
AcDbLine
 10
16.118222
 20
16.658452
 30
0.0
 11
16.414217
 21
16.414234
 31
0.0
  0
LINE
  5
140
100
AcDbEntity
  8
Layer_1
 62
7
100
AcDbLine
 10
16.414217
 20
16.414234
 30
0.0
 11
16.658435
 21
16.118240
 31
0.0
  0
LINE
  5
141
100
AcDbEntity
  8
Layer_1
 62
7
100
AcDbLine
 10
16.658435
 20
16.118240
 30
0.0
 11
16.842834
 21
15.778512
 31
0.0
  0
LINE
  5
142
100
AcDbEntity
  8
Layer_1
 62
7
100
AcDbLine
 10
16.842834
 20
15.778512
 30
0.0
 11
16.959371
 21
15.403091
 31
0.0
  0
LINE
  5
143
100
AcDbEntity
  8
Layer_1
 62
7
100
AcDbLine
 10
16.959371
 20
15.403091
 30
0.0
 11
17.000002
 21
15.000022
 31
0.0
  0
LINE
  5
144
100
AcDbEntity
  8
Layer_1
 62
7
100
AcDbLine
 10
7.000003
 20
15.000022
 30
0.0
 11
6.959368
 21
14.596957
 31
0.0
  0
LINE
  5
145
100
AcDbEntity
  8
Layer_1
 62
7
100
AcDbLine
 10
6.959368
 20
14.596957
 30
0.0
 11
6.842830
 21
14.221545
 31
0.0
  0
LINE
  5
146
100
AcDbEntity
  8
Layer_1
 62
7
100
AcDbLine
 10
6.842830
 20
14.221545
 30
0.0
 11
6.658431
 21
13.881806
 31
0.0
  0
LINE
  5
147
100
AcDbEntity
  8
Layer_1
 62
7
100
AcDbLine
 10
6.658431
 20
13.881806
 30
0.0
 11
6.414213
 21
13.585812
 31
0.0
  0
LINE
  5
148
100
AcDbEntity
  8
Layer_1
 62
7
100
AcDbLine
 10
6.414213
 20
13.585812
 30
0.0
 11
6.118219
 21
13.341605
 31
0.0
  0
LINE
  5
149
100
AcDbEntity
  8
Layer_1
 62
7
100
AcDbLine
 10
6.118219
 20
13.341605
 30
0.0
 11
5.778491
 21
13.157201
 31
0.0
  0
LINE
  5
14a
100
AcDbEntity
  8
Layer_1
 62
7
100
AcDbLine
 10
5.778491
 20
13.157201
 30
0.0
 11
5.403071
 21
13.040671
 31
0.0
  0
LINE
  5
14b
100
AcDbEntity
  8
Layer_1
 62
7
100
AcDbLine
 10
5.403071
 20
13.040671
 30
0.0
 11
5.000003
 21
13.000031
 31
0.0
  0
LINE
  5
14c
100
AcDbEntity
  8
Layer_1
 62
7
100
AcDbLine
 10
5.000003
 20
13.000031
 30
0.0
 11
4.596934
 21
13.040671
 31
0.0
  0
LINE
  5
14d
100
AcDbEntity
  8
Layer_1
 62
7
100
AcDbLine
 10
4.596934
 20
13.040671
 30
0.0
 11
4.221515
 21
13.157201
 31
0.0
  0
LINE
  5
14e
100
AcDbEntity
  8
Layer_1
 62
7
100
AcDbLine
 10
4.221515
 20
13.157201
 30
0.0
 11
3.881787
 21
13.341605
 31
0.0
  0
LINE
  5
14f
100
AcDbEntity
  8
Layer_1
 62
7
100
AcDbLine
 10
3.881787
 20
13.341605
 30
0.0
 11
3.585793
 21
13.585812
 31
0.0
  0
LINE
  5
150
100
AcDbEntity
  8
Layer_1
 62
7
100
AcDbLine
 10
3.585793
 20
13.585812
 30
0.0
 11
3.341575
 21
13.881806
 31
0.0
  0
LINE
  5
151
100
AcDbEntity
  8
Layer_1
 62
7
100
AcDbLine
 10
3.341575
 20
13.881806
 30
0.0
 11
3.157175
 21
14.221545
 31
0.0
  0
LINE
  5
152
100
AcDbEntity
  8
Layer_1
 62
7
100
AcDbLine
 10
3.157175
 20
14.221545
 30
0.0
 11
3.040637
 21
14.596957
 31
0.0
  0
LINE
  5
153
100
AcDbEntity
  8
Layer_1
 62
7
100
AcDbLine
 10
3.040637
 20
14.596957
 30
0.0
 11
3.000003
 21
15.000022
 31
0.0
  0
LINE
  5
154
100
AcDbEntity
  8
Layer_1
 62
7
100
AcDbLine
 10
3.000003
 20
15.000022
 30
0.0
 11
3.040634
 21
15.403091
 31
0.0
  0
LINE
  5
155
100
AcDbEntity
  8
Layer_1
 62
7
100
AcDbLine
 10
3.040634
 20
15.403091
 30
0.0
 11
3.157171
 21
15.778512
 31
0.0
  0
LINE
  5
156
100
AcDbEntity
  8
Layer_1
 62
7
100
AcDbLine
 10
3.157171
 20
15.778512
 30
0.0
 11
3.341569
 21
16.118240
 31
0.0
  0
LINE
  5
157
100
AcDbEntity
  8
Layer_1
 62
7
100
AcDbLine
 10
3.341569
 20
16.118240
 30
0.0
 11
3.585787
 21
16.414234
 31
0.0
  0
LINE
  5
158
100
AcDbEntity
  8
Layer_1
 62
7
100
AcDbLine
 10
3.585787
 20
16.414234
 30
0.0
 11
3.881782
 21
16.658452
 31
0.0
  0
LINE
  5
159
100
AcDbEntity
  8
Layer_1
 62
7
100
AcDbLine
 10
3.881782
 20
16.658452
 30
0.0
 11
4.221512
 21
16.842851
 31
0.0
  0
LINE
  5
15a
100
AcDbEntity
  8
Layer_1
 62
7
100
AcDbLine
 10
4.221512
 20
16.842851
 30
0.0
 11
4.596933
 21
16.959389
 31
0.0
  0
LINE
  5
15b
100
AcDbEntity
  8
Layer_1
 62
7
100
AcDbLine
 10
4.596933
 20
16.959389
 30
0.0
 11
5.000003
 21
17.000020
 31
0.0
  0
LINE
  5
15c
100
AcDbEntity
  8
Layer_1
 62
7
100
AcDbLine
 10
5.000003
 20
17.000020
 30
0.0
 11
5.403072
 21
16.959389
 31
0.0
  0
LINE
  5
15d
100
AcDbEntity
  8
Layer_1
 62
7
100
AcDbLine
 10
5.403072
 20
16.959389
 30
0.0
 11
5.778494
 21
16.842851
 31
0.0
  0
LINE
  5
15e
100
AcDbEntity
  8
Layer_1
 62
7
100
AcDbLine
 10
5.778494
 20
16.842851
 30
0.0
 11
6.118223
 21
16.658452
 31
0.0
  0
LINE
  5
15f
100
AcDbEntity
  8
Layer_1
 62
7
100
AcDbLine
 10
6.118223
 20
16.658452
 30
0.0
 11
6.414218
 21
16.414234
 31
0.0
  0
LINE
  5
160
100
AcDbEntity
  8
Layer_1
 62
7
100
AcDbLine
 10
6.414218
 20
16.414234
 30
0.0
 11
6.658436
 21
16.118240
 31
0.0
  0
LINE
  5
161
100
AcDbEntity
  8
Layer_1
 62
7
100
AcDbLine
 10
6.658436
 20
16.118240
 30
0.0
 11
6.842835
 21
15.778512
 31
0.0
  0
LINE
  5
162
100
AcDbEntity
  8
Layer_1
 62
7
100
AcDbLine
 10
6.842835
 20
15.778512
 30
0.0
 11
6.959371
 21
15.403091
 31
0.0
  0
LINE
  5
163
100
AcDbEntity
  8
Layer_1
 62
7
100
AcDbLine
 10
6.959371
 20
15.403091
 30
0.0
 11
7.000003
 21
15.000022
 31
0.0
  0
LINE
  5
164
100
AcDbEntity
  8
Layer_1
 62
7
100
AcDbLine
 10
17.000002
 20
5.000019
 30
0.0
 11
16.959368
 21
4.596949
 31
0.0
  0
LINE
  5
165
100
AcDbEntity
  8
Layer_1
 62
7
100
AcDbLine
 10
16.959368
 20
4.596949
 30
0.0
 11
16.842831
 21
4.221537
 31
0.0
  0
LINE
  5
166
100
AcDbEntity
  8
Layer_1
 62
7
100
AcDbLine
 10
16.842831
 20
4.221537
 30
0.0
 11
16.658432
 21
3.881798
 31
0.0
  0
LINE
  5
167
100
AcDbEntity
  8
Layer_1
 62
7
100
AcDbLine
 10
16.658432
 20
3.881798
 30
0.0
 11
16.414214
 21
3.585803
 31
0.0
  0
LINE
  5
168
100
AcDbEntity
  8
Layer_1
 62
7
100
AcDbLine
 10
16.414214
 20
3.585803
 30
0.0
 11
16.118219
 21
3.341596
 31
0.0
  0
LINE
  5
169
100
AcDbEntity
  8
Layer_1
 62
7
100
AcDbLine
 10
16.118219
 20
3.341596
 30
0.0
 11
15.778491
 21
3.157192
 31
0.0
  0
LINE
  5
16a
100
AcDbEntity
  8
Layer_1
 62
7
100
AcDbLine
 10
15.778491
 20
3.157192
 30
0.0
 11
15.403071
 21
3.040663
 31
0.0
  0
LINE
  5
16b
100
AcDbEntity
  8
Layer_1
 62
7
100
AcDbLine
 10
15.403071
 20
3.040663
 30
0.0
 11
15.000002
 21
3.000023
 31
0.0
  0
LINE
  5
16c
100
AcDbEntity
  8
Layer_1
 62
7
100
AcDbLine
 10
15.000002
 20
3.000023
 30
0.0
 11
14.596932
 21
3.040663
 31
0.0
  0
LINE
  5
16d
100
AcDbEntity
  8
Layer_1
 62
7
100
AcDbLine
 10
14.596932
 20
3.040663
 30
0.0
 11
14.221512
 21
3.157192
 31
0.0
  0
LINE
  5
16e
100
AcDbEntity
  8
Layer_1
 62
7
100
AcDbLine
 10
14.221512
 20
3.157192
 30
0.0
 11
13.881784
 21
3.341596
 31
0.0
  0
LINE
  5
16f
100
AcDbEntity
  8
Layer_1
 62
7
100
AcDbLine
 10
13.881784
 20
3.341596
 30
0.0
 11
13.585789
 21
3.585803
 31
0.0
  0
LINE
  5
170
100
AcDbEntity
  8
Layer_1
 62
7
100
AcDbLine
 10
13.585789
 20
3.585803
 30
0.0
 11
13.341572
 21
3.881798
 31
0.0
  0
LINE
  5
171
100
AcDbEntity
  8
Layer_1
 62
7
100
AcDbLine
 10
13.341572
 20
3.881798
 30
0.0
 11
13.157173
 21
4.221537
 31
0.0
  0
LINE
  5
172
100
AcDbEntity
  8
Layer_1
 62
7
100
AcDbLine
 10
13.157173
 20
4.221537
 30
0.0
 11
13.040635
 21
4.596949
 31
0.0
  0
LINE
  5
173
100
AcDbEntity
  8
Layer_1
 62
7
100
AcDbLine
 10
13.040635
 20
4.596949
 30
0.0
 11
13.000002
 21
5.000019
 31
0.0
  0
LINE
  5
174
100
AcDbEntity
  8
Layer_1
 62
7
100
AcDbLine
 10
13.000002
 20
5.000019
 30
0.0
 11
13.040634
 21
5.403089
 31
0.0
  0
LINE
  5
175
100
AcDbEntity
  8
Layer_1
 62
7
100
AcDbLine
 10
13.040634
 20
5.403089
 30
0.0
 11
13.157171
 21
5.778501
 31
0.0
  0
LINE
  5
176
100
AcDbEntity
  8
Layer_1
 62
7
100
AcDbLine
 10
13.157171
 20
5.778501
 30
0.0
 11
13.341570
 21
6.118240
 31
0.0
  0
LINE
  5
177
100
AcDbEntity
  8
Layer_1
 62
7
100
AcDbLine
 10
13.341570
 20
6.118240
 30
0.0
 11
13.585788
 21
6.414234
 31
0.0
  0
LINE
  5
178
100
AcDbEntity
  8
Layer_1
 62
7
100
AcDbLine
 10
13.585788
 20
6.414234
 30
0.0
 11
13.881783
 21
6.658441
 31
0.0
  0
LINE
  5
179
100
AcDbEntity
  8
Layer_1
 62
7
100
AcDbLine
 10
13.881783
 20
6.658441
 30
0.0
 11
14.221512
 21
6.842845
 31
0.0
  0
LINE
  5
17a
100
AcDbEntity
  8
Layer_1
 62
7
100
AcDbLine
 10
14.221512
 20
6.842845
 30
0.0
 11
14.596932
 21
6.959375
 31
0.0
  0
LINE
  5
17b
100
AcDbEntity
  8
Layer_1
 62
7
100
AcDbLine
 10
14.596932
 20
6.959375
 30
0.0
 11
15.000002
 21
7.000015
 31
0.0
  0
LINE
  5
17c
100
AcDbEntity
  8
Layer_1
 62
7
100
AcDbLine
 10
15.000002
 20
7.000015
 30
0.0
 11
15.403071
 21
6.959375
 31
0.0
  0
LINE
  5
17d
100
AcDbEntity
  8
Layer_1
 62
7
100
AcDbLine
 10
15.403071
 20
6.959375
 30
0.0
 11
15.778492
 21
6.842845
 31
0.0
  0
LINE
  5
17e
100
AcDbEntity
  8
Layer_1
 62
7
100
AcDbLine
 10
15.778492
 20
6.842845
 30
0.0
 11
16.118221
 21
6.658441
 31
0.0
  0
LINE
  5
17f
100
AcDbEntity
  8
Layer_1
 62
7
100
AcDbLine
 10
16.118221
 20
6.658441
 30
0.0
 11
16.414215
 21
6.414234
 31
0.0
  0
LINE
  5
180
100
AcDbEntity
  8
Layer_1
 62
7
100
AcDbLine
 10
16.414215
 20
6.414234
 30
0.0
 11
16.658434
 21
6.118240
 31
0.0
  0
LINE
  5
181
100
AcDbEntity
  8
Layer_1
 62
7
100
AcDbLine
 10
16.658434
 20
6.118240
 30
0.0
 11
16.842833
 21
5.778501
 31
0.0
  0
LINE
  5
182
100
AcDbEntity
  8
Layer_1
 62
7
100
AcDbLine
 10
16.842833
 20
5.778501
 30
0.0
 11
16.959369
 21
5.403089
 31
0.0
  0
LINE
  5
183
100
AcDbEntity
  8
Layer_1
 62
7
100
AcDbLine
 10
16.959369
 20
5.403089
 30
0.0
 11
17.000002
 21
5.000019
 31
0.0
  0
LINE
  5
184
100
AcDbEntity
  8
Layer_1
 62
7
100
AcDbLine
 10
7.000003
 20
5.000019
 30
0.0
 11
6.959369
 21
4.596949
 31
0.0
  0
LINE
  5
185
100
AcDbEntity
  8
Layer_1
 62
7
100
AcDbLine
 10
6.959369
 20
4.596949
 30
0.0
 11
6.842832
 21
4.221537
 31
0.0
  0
LINE
  5
186
100
AcDbEntity
  8
Layer_1
 62
7
100
AcDbLine
 10
6.842832
 20
4.221537
 30
0.0
 11
6.658433
 21
3.881798
 31
0.0
  0
LINE
  5
187
100
AcDbEntity
  8
Layer_1
 62
7
100
AcDbLine
 10
6.658433
 20
3.881798
 30
0.0
 11
6.414215
 21
3.585803
 31
0.0
  0
LINE
  5
188
100
AcDbEntity
  8
Layer_1
 62
7
100
AcDbLine
 10
6.414215
 20
3.585803
 30
0.0
 11
6.118220
 21
3.341596
 31
0.0
  0
LINE
  5
189
100
AcDbEntity
  8
Layer_1
 62
7
100
AcDbLine
 10
6.118220
 20
3.341596
 30
0.0
 11
5.778492
 21
3.157192
 31
0.0
  0
LINE
  5
18a
100
AcDbEntity
  8
Layer_1
 62
7
100
AcDbLine
 10
5.778492
 20
3.157192
 30
0.0
 11
5.403072
 21
3.040663
 31
0.0
  0
LINE
  5
18b
100
AcDbEntity
  8
Layer_1
 62
7
100
AcDbLine
 10
5.403072
 20
3.040663
 30
0.0
 11
5.000003
 21
3.000023
 31
0.0
  0
LINE
  5
18c
100
AcDbEntity
  8
Layer_1
 62
7
100
AcDbLine
 10
5.000003
 20
3.000023
 30
0.0
 11
4.596933
 21
3.040663
 31
0.0
  0
LINE
  5
18d
100
AcDbEntity
  8
Layer_1
 62
7
100
AcDbLine
 10
4.596933
 20
3.040663
 30
0.0
 11
4.221513
 21
3.157192
 31
0.0
  0
LINE
  5
18e
100
AcDbEntity
  8
Layer_1
 62
7
100
AcDbLine
 10
4.221513
 20
3.157192
 30
0.0
 11
3.881785
 21
3.341596
 31
0.0
  0
LINE
  5
18f
100
AcDbEntity
  8
Layer_1
 62
7
100
AcDbLine
 10
3.881785
 20
3.341596
 30
0.0
 11
3.585791
 21
3.585803
 31
0.0
  0
LINE
  5
190
100
AcDbEntity
  8
Layer_1
 62
7
100
AcDbLine
 10
3.585791
 20
3.585803
 30
0.0
 11
3.341573
 21
3.881798
 31
0.0
  0
LINE
  5
191
100
AcDbEntity
  8
Layer_1
 62
7
100
AcDbLine
 10
3.341573
 20
3.881798
 30
0.0
 11
3.157174
 21
4.221537
 31
0.0
  0
LINE
  5
192
100
AcDbEntity
  8
Layer_1
 62
7
100
AcDbLine
 10
3.157174
 20
4.221537
 30
0.0
 11
3.040636
 21
4.596949
 31
0.0
  0
LINE
  5
193
100
AcDbEntity
  8
Layer_1
 62
7
100
AcDbLine
 10
3.040636
 20
4.596949
 30
0.0
 11
3.000003
 21
5.000019
 31
0.0
  0
LINE
  5
194
100
AcDbEntity
  8
Layer_1
 62
7
100
AcDbLine
 10
3.000003
 20
5.000019
 30
0.0
 11
3.040635
 21
5.403089
 31
0.0
  0
LINE
  5
195
100
AcDbEntity
  8
Layer_1
 62
7
100
AcDbLine
 10
3.040635
 20
5.403089
 30
0.0
 11
3.157172
 21
5.778501
 31
0.0
  0
LINE
  5
196
100
AcDbEntity
  8
Layer_1
 62
7
100
AcDbLine
 10
3.157172
 20
5.778501
 30
0.0
 11
3.341571
 21
6.118240
 31
0.0
  0
LINE
  5
197
100
AcDbEntity
  8
Layer_1
 62
7
100
AcDbLine
 10
3.341571
 20
6.118240
 30
0.0
 11
3.585789
 21
6.414234
 31
0.0
  0
LINE
  5
198
100
AcDbEntity
  8
Layer_1
 62
7
100
AcDbLine
 10
3.585789
 20
6.414234
 30
0.0
 11
3.881784
 21
6.658441
 31
0.0
  0
LINE
  5
199
100
AcDbEntity
  8
Layer_1
 62
7
100
AcDbLine
 10
3.881784
 20
6.658441
 30
0.0
 11
4.221513
 21
6.842845
 31
0.0
  0
LINE
  5
19a
100
AcDbEntity
  8
Layer_1
 62
7
100
AcDbLine
 10
4.221513
 20
6.842845
 30
0.0
 11
4.596933
 21
6.959375
 31
0.0
  0
LINE
  5
19b
100
AcDbEntity
  8
Layer_1
 62
7
100
AcDbLine
 10
4.596933
 20
6.959375
 30
0.0
 11
5.000003
 21
7.000015
 31
0.0
  0
LINE
  5
19c
100
AcDbEntity
  8
Layer_1
 62
7
100
AcDbLine
 10
5.000003
 20
7.000015
 30
0.0
 11
5.403072
 21
6.959375
 31
0.0
  0
LINE
  5
19d
100
AcDbEntity
  8
Layer_1
 62
7
100
AcDbLine
 10
5.403072
 20
6.959375
 30
0.0
 11
5.778493
 21
6.842845
 31
0.0
  0
LINE
  5
19e
100
AcDbEntity
  8
Layer_1
 62
7
100
AcDbLine
 10
5.778493
 20
6.842845
 30
0.0
 11
6.118222
 21
6.658441
 31
0.0
  0
LINE
  5
19f
100
AcDbEntity
  8
Layer_1
 62
7
100
AcDbLine
 10
6.118222
 20
6.658441
 30
0.0
 11
6.414217
 21
6.414234
 31
0.0
  0
LINE
  5
1a0
100
AcDbEntity
  8
Layer_1
 62
7
100
AcDbLine
 10
6.414217
 20
6.414234
 30
0.0
 11
6.658435
 21
6.118240
 31
0.0
  0
LINE
  5
1a1
100
AcDbEntity
  8
Layer_1
 62
7
100
AcDbLine
 10
6.658435
 20
6.118240
 30
0.0
 11
6.842833
 21
5.778501
 31
0.0
  0
LINE
  5
1a2
100
AcDbEntity
  8
Layer_1
 62
7
100
AcDbLine
 10
6.842833
 20
5.778501
 30
0.0
 11
6.959370
 21
5.403089
 31
0.0
  0
LINE
  5
1a3
100
AcDbEntity
  8
Layer_1
 62
7
100
AcDbLine
 10
6.959370
 20
5.403089
 30
0.0
 11
7.000003
 21
5.000019
 31
0.0
  0
ENDSEC
  0
SECTION
  2
OBJECTS
  0
DICTIONARY
  5
C
330
0
100
AcDbDictionary
  3
ACAD_GROUP
350
D
  3
ACAD_MLINESTYLE
350
17
  0
DICTIONARY
  5
D
330
C
100
AcDbDictionary
  0
DICTIONARY
  5
1A
330
C
100
AcDbDictionary
  0
DICTIONARY
  5
17
330
C
100
AcDbDictionary
  3
STANDARD
350
18
  0
DICTIONARY
  5
19
330
C
100
AcDbDictionary
  0
ENDSEC
  0
EOF
