<?xml version="1.0" encoding="UTF-8" standalone="no"?>
<!-- Created with Inkscape (http://www.inkscape.org/) -->

<svg
   xmlns:dc="http://purl.org/dc/elements/1.1/"
   xmlns:cc="http://creativecommons.org/ns#"
   xmlns:rdf="http://www.w3.org/1999/02/22-rdf-syntax-ns#"
   xmlns:svg="http://www.w3.org/2000/svg"
   xmlns="http://www.w3.org/2000/svg"
   xmlns:sodipodi="http://sodipodi.sourceforge.net/DTD/sodipodi-0.dtd"
   xmlns:inkscape="http://www.inkscape.org/namespaces/inkscape"
   width="744.09448"
   height="1052.3622"
   id="svg2"
   version="1.1"
   inkscape:version="0.91 r"
   sodipodi:docname="крепление-мотор-43d.svg">
  <defs
     id="defs4" />
  <sodipodi:namedview
     id="base"
     pagecolor="#ffffff"
     bordercolor="#666666"
     borderopacity="1.0"
     inkscape:pageopacity="0.0"
     inkscape:pageshadow="2"
     inkscape:zoom="3.1678384"
     inkscape:cx="105.13176"
     inkscape:cy="-51.063013"
     inkscape:document-units="mm"
     inkscape:current-layer="layer1"
     showgrid="true"
     inkscape:window-width="1301"
     inkscape:window-height="744"
     inkscape:window-x="65"
     inkscape:window-y="24"
     inkscape:window-maximized="1"
     units="mm"
     showguides="true"
     inkscape:guide-bbox="true"
     inkscape:snap-bbox="true"
     inkscape:snap-bbox-midpoints="true"
     inkscape:snap-global="true"
     inkscape:bbox-nodes="true"
     inkscape:snap-intersection-paths="true"
     inkscape:object-nodes="true"
     inkscape:object-paths="false"
     inkscape:snap-bbox-edge-midpoints="false"
     inkscape:snap-grids="true">
    <sodipodi:guide
       orientation="1,0"
       position="0,283.46457"
       id="guide2990" />
    <sodipodi:guide
       orientation="0,1"
       position="-24.80315,389.76378"
       id="guide2994" />
    <sodipodi:guide
       orientation="0,1"
       position="-53.149606,0"
       id="guide3044" />
    <inkscape:grid
       type="xygrid"
       id="grid3046"
       empspacing="5"
       visible="true"
       enabled="true"
       snapvisiblegridlinesonly="true"
       units="mm"
       spacingx="0.5mm"
       spacingy="0.5mm"
       color="#ec00ae"
       opacity="0.1254902"
       empcolor="#ef000d"
       empopacity="0.25098039" />
  </sodipodi:namedview>
  <metadata
     id="metadata7">
    <rdf:RDF>
      <cc:Work
         rdf:about="">
        <dc:format>image/svg+xml</dc:format>
        <dc:type
           rdf:resource="http://purl.org/dc/dcmitype/StillImage" />
        <dc:title />
      </cc:Work>
    </rdf:RDF>
  </metadata>
  <g
     inkscape:label="Layer 1"
     inkscape:groupmode="layer"
     id="layer1"
     transform="translate(0,-2.5390623e-6)">
    <path
       style="fill:#ffe680;fill-opacity:1;stroke:none"
       d="m -106.29925,1045.2755 0,70.8661 0.3587,3.5792 1.02932,3.3297 1.62975,3.01 2.15998,2.62 2.62004,2.16 3.009941,1.6297 3.32966,1.0293 3.579206,0.3587 177.1653,0 3.57921,-0.3587 3.32967,-1.0293 3.009951,-1.6297 2.620052,-2.16 2.15999,-2.62 1.62973,-3.01 1.0293,-3.3297 0.3587,-3.5792 0,-70.8661 -0.3587,-3.5792 -1.0293,-3.3297 -1.62973,-3.0099 -2.15999,-2.6201 -2.620052,-2.1599 -3.009951,-1.6297 -3.32967,-1.0293 -3.57921,-0.3587 -53.1496,0 0,12.4016 5.315,0 0,24.8031 -5.315,0 0,8.8583 -70.8661,0 0,-8.8583 -5.315,0 0,-24.8031 5.315,0 0,-12.4016 -53.1496,0 -3.579239,0.3587 -3.329683,1.0293 -3.009955,1.6297 -2.62004,2.1599 -2.15998,2.6201 -1.62972,3.0099 -1.02929,3.3297 z"
       id="rect2987"
       inkscape:connector-curvature="0"
       sodipodi:nodetypes="ccccccccccccccccccccccccccccccccccccccccccccccccc" />
    <path
       style="fill:#0044aa;fill-opacity:1;stroke:none"
       d="m 88.58266,1087.7952 -1.428198,-0.144 -1.330229,-0.4129 -1.203762,-0.6534 -1.048799,-0.8653 -0.865339,-1.0488 -0.653382,-1.2038 -0.412928,-1.3302 -0.143977,-1.4282 0.143973,-1.4282 0.412926,-1.3302 0.653381,-1.2038 0.86534,-1.0488 1.048801,-0.8653 1.203764,-0.6534 1.33023,-0.4129 1.428199,-0.144 1.428198,0.144 1.330229,0.4129 1.203762,0.6534 1.048799,0.8653 0.86534,1.0488 0.653382,1.2038 0.412928,1.3302 0.143977,1.4282 -0.143973,1.4282 -0.412926,1.3302 -0.653382,1.2038 -0.86534,1.0488 -1.048801,0.8653 -1.203764,0.6534 -1.33023,0.4129 z"
       id="path3790-61-1"
       inkscape:connector-curvature="0"
       sodipodi:nodetypes="ccccccccccccccccccccccccccccccccc" />
    <path
       style="fill:#0044aa;fill-opacity:1;stroke:none"
       d="m 88.58266,1052.3621 -1.428198,-0.144 -1.330229,-0.4129 -1.203762,-0.6534 -1.048799,-0.8653 -0.865339,-1.0488 -0.653382,-1.2038 -0.412928,-1.3302 -0.143977,-1.4282 0.143973,-1.4282 0.412926,-1.3302 0.653381,-1.2038 0.86534,-1.0488 1.048801,-0.8653 1.203764,-0.6534 1.33023,-0.4129 1.428199,-0.144 1.428198,0.144 1.330229,0.4129 1.203762,0.6534 1.048799,0.8653 0.86534,1.0488 0.653382,1.2038 0.412928,1.3302 0.143977,1.4282 -0.143973,1.4282 -0.412926,1.3302 -0.653382,1.2038 -0.86534,1.0488 -1.048801,0.8653 -1.203764,0.6534 -1.33023,0.4129 z"
       id="path3790-61-3-2"
       inkscape:connector-curvature="0"
       sodipodi:nodetypes="ccccccccccccccccccccccccccccccccc" />
    <path
       style="fill:#5d0b26;fill-opacity:1;stroke:none"
       d="m 53.149677,1123.2283 -1.428198,-0.144 -1.330229,-0.4129 -1.203762,-0.6534 -1.048799,-0.8653 -0.865339,-1.0488 -0.653382,-1.2038 -0.412928,-1.3302 -0.143977,-1.4282 0.143973,-1.4282 0.412926,-1.3302 0.653381,-1.2038 0.86534,-1.0488 1.048801,-0.8653 1.203764,-0.6534 1.33023,-0.4129 1.428199,-0.144 1.428198,0.144 1.330229,0.4129 1.203762,0.6534 1.048799,0.8653 0.865339,1.0488 0.653382,1.2038 0.412928,1.3302 0.143977,1.4282 -0.143973,1.4282 -0.412926,1.3302 -0.653381,1.2038 -0.86534,1.0488 -1.048801,0.8653 -1.203764,0.6534 -1.33023,0.4129 z"
       id="path3790-5-4-5-9"
       inkscape:connector-curvature="0"
       sodipodi:nodetypes="ccccccccccccccccccccccccccccccccc" />
    <path
       style="fill:#0044aa;fill-opacity:1;stroke:none"
       d="m 88.58266,1123.2283 -1.428198,-0.144 -1.330229,-0.4129 -1.203762,-0.6534 -1.048799,-0.8653 -0.865339,-1.0488 -0.653382,-1.2038 -0.412928,-1.3302 -0.143977,-1.4282 0.143973,-1.4282 0.412926,-1.3302 0.653381,-1.2038 0.86534,-1.0488 1.048801,-0.8653 1.203764,-0.6534 1.33023,-0.4129 1.428199,-0.144 1.428198,0.144 1.330229,0.4129 1.203762,0.6534 1.048799,0.8653 0.86534,1.0488 0.653382,1.2038 0.412928,1.3302 0.143977,1.4282 -0.143973,1.4282 -0.412926,1.3302 -0.653382,1.2038 -0.86534,1.0488 -1.048801,0.8653 -1.203764,0.6534 -1.33023,0.4129 z"
       id="path3790-61-3-2-8"
       inkscape:connector-curvature="0"
       sodipodi:nodetypes="ccccccccccccccccccccccccccccccccc" />
    <path
       style="fill:#0044aa;fill-opacity:1;stroke:none"
       d="m -17.716536,1123.2283 -1.428198,-0.144 -1.330229,-0.4129 -1.203762,-0.6534 -1.048799,-0.8653 -0.865339,-1.0488 -0.653382,-1.2038 -0.412928,-1.3302 -0.143977,-1.4282 0.143973,-1.4282 0.412926,-1.3302 0.653381,-1.2038 0.86534,-1.0488 1.048801,-0.8653 1.203764,-0.6534 1.33023,-0.4129 1.428199,-0.144 1.428198,0.144 1.330229,0.4129 1.203762,0.6534 1.048799,0.8653 0.865339,1.0488 0.653382,1.2038 0.412928,1.3302 0.143977,1.4282 -0.143973,1.4282 -0.412926,1.3302 -0.653381,1.2038 -0.86534,1.0488 -1.048801,0.8653 -1.203764,0.6534 -1.33023,0.4129 z"
       id="path3790-5-4-5-9-1"
       inkscape:connector-curvature="0"
       sodipodi:nodetypes="ccccccccccccccccccccccccccccccccc" />
    <path
       style="fill:#0044aa;fill-opacity:1;stroke:none"
       d="m 17.71657,1123.2283 -1.428198,-0.144 -1.330229,-0.4129 -1.203762,-0.6534 -1.048799,-0.8653 -0.865339,-1.0488 -0.653382,-1.2038 -0.412928,-1.3302 -0.143978,-1.4282 0.143973,-1.4282 0.412926,-1.3302 0.653382,-1.2038 0.86534,-1.0488 1.048801,-0.8653 1.203764,-0.6534 1.33023,-0.4129 1.428199,-0.144 1.428198,0.144 1.330229,0.4129 1.203762,0.6534 1.048799,0.8653 0.865339,1.0488 0.653382,1.2038 0.412928,1.3302 0.143977,1.4282 -0.143973,1.4282 -0.412926,1.3302 -0.653381,1.2038 -0.86534,1.0488 -1.048801,0.8653 -1.203764,0.6534 -1.33023,0.4129 z"
       id="path3790-61-3-2-8-89"
       inkscape:connector-curvature="0"
       sodipodi:nodetypes="ccccccccccccccccccccccccccccccccc" />
    <path
       style="fill:#0044aa;fill-opacity:1;stroke:none"
       d="m -88.582623,1087.7952 -1.428198,-0.144 -1.330229,-0.4129 -1.203762,-0.6534 -1.048799,-0.8653 -0.865339,-1.0488 -0.653382,-1.2038 -0.412928,-1.3302 -0.143977,-1.4282 0.143973,-1.4282 0.412926,-1.3302 0.653381,-1.2038 0.86534,-1.0488 1.048801,-0.8653 1.203764,-0.6534 1.33023,-0.4129 1.428199,-0.144 1.428198,0.144 1.330229,0.4129 1.203762,0.6534 1.048799,0.8653 0.865339,1.0488 0.653382,1.2038 0.412928,1.3302 0.143977,1.4282 -0.143973,1.4282 -0.412926,1.3302 -0.653381,1.2038 -0.86534,1.0488 -1.048801,0.8653 -1.203764,0.6534 -1.33023,0.4129 z"
       id="path3790-5-1-7"
       inkscape:connector-curvature="0"
       sodipodi:nodetypes="ccccccccccccccccccccccccccccccccc" />
    <path
       style="fill:#0044aa;fill-opacity:1;stroke:none"
       d="m -88.582623,1052.3621 -1.428198,-0.144 -1.330229,-0.4129 -1.203762,-0.6534 -1.048799,-0.8653 -0.865339,-1.0488 -0.653382,-1.2038 -0.412928,-1.3302 -0.143977,-1.4282 0.143973,-1.4282 0.412926,-1.3302 0.653381,-1.2038 0.86534,-1.0488 1.048801,-0.8653 1.203764,-0.6534 1.33023,-0.4129 1.428199,-0.144 1.428198,0.144 1.330229,0.4129 1.203762,0.6534 1.048799,0.8653 0.865339,1.0488 0.653382,1.2038 0.412928,1.3302 0.143977,1.4282 -0.143973,1.4282 -0.412926,1.3302 -0.653381,1.2038 -0.86534,1.0488 -1.048801,0.8653 -1.203764,0.6534 -1.33023,0.4129 z"
       id="path3790-5-4-5-22"
       inkscape:connector-curvature="0"
       sodipodi:nodetypes="ccccccccccccccccccccccccccccccccc" />
    <path
       style="fill:#0044aa;fill-opacity:1;stroke:none"
       d="m -88.582623,1123.2283 -1.428198,-0.144 -1.330229,-0.4129 -1.203762,-0.6534 -1.048799,-0.8653 -0.865339,-1.0488 -0.653382,-1.2038 -0.412928,-1.3302 -0.143977,-1.4282 0.143973,-1.4282 0.412926,-1.3302 0.653381,-1.2038 0.86534,-1.0488 1.048801,-0.8653 1.203764,-0.6534 1.33023,-0.4129 1.428199,-0.144 1.428198,0.144 1.330229,0.4129 1.203762,0.6534 1.048799,0.8653 0.865339,1.0488 0.653382,1.2038 0.412928,1.3302 0.143977,1.4282 -0.143973,1.4282 -0.412926,1.3302 -0.653381,1.2038 -0.86534,1.0488 -1.048801,0.8653 -1.203764,0.6534 -1.33023,0.4129 z"
       id="path3790-5-4-5-9-9"
       inkscape:connector-curvature="0"
       sodipodi:nodetypes="ccccccccccccccccccccccccccccccccc" />
    <path
       style="fill:#0044aa;fill-opacity:1;stroke:none"
       d="m -53.149639,1123.2283 -1.428198,-0.144 -1.330229,-0.4129 -1.203762,-0.6534 -1.048799,-0.8653 -0.865339,-1.0488 -0.653382,-1.2038 -0.412928,-1.3302 -0.143977,-1.4282 0.143973,-1.4282 0.412926,-1.3302 0.653381,-1.2038 0.86534,-1.0488 1.048801,-0.8653 1.203764,-0.6534 1.33023,-0.4129 1.428199,-0.144 1.428198,0.144 1.330229,0.4129 1.203762,0.6534 1.048799,0.8653 0.865339,1.0488 0.653382,1.2038 0.412928,1.3302 0.143977,1.4282 -0.143973,1.4282 -0.412926,1.3302 -0.653381,1.2038 -0.86534,1.0488 -1.048801,0.8653 -1.203764,0.6534 -1.33023,0.4129 z"
       id="path3790-61-3-2-8-6"
       inkscape:connector-curvature="0"
       sodipodi:nodetypes="ccccccccccccccccccccccccccccccccc" />
  </g>
</svg>
