<?xml version="1.0" encoding="UTF-8" standalone="no"?>
<!-- Created with Inkscape (http://www.inkscape.org/) -->

<svg
   xmlns:dc="http://purl.org/dc/elements/1.1/"
   xmlns:cc="http://creativecommons.org/ns#"
   xmlns:rdf="http://www.w3.org/1999/02/22-rdf-syntax-ns#"
   xmlns:svg="http://www.w3.org/2000/svg"
   xmlns="http://www.w3.org/2000/svg"
   xmlns:sodipodi="http://sodipodi.sourceforge.net/DTD/sodipodi-0.dtd"
   xmlns:inkscape="http://www.inkscape.org/namespaces/inkscape"
   width="297mm"
   height="210mm"
   viewBox="0 0 1052.3622 744.09448"
   id="svg2"
   version="1.1"
   inkscape:version="0.91 r13725"
   sodipodi:docname="gear-cp3-t13.svg">
  <sodipodi:namedview
     id="base"
     pagecolor="#ffffff"
     bordercolor="#666666"
     borderopacity="1.0"
     inkscape:pageopacity="0.0"
     inkscape:pageshadow="2"
     inkscape:zoom="71.680003"
     inkscape:cx="-0.2628018"
     inkscape:cy="0.44948496"
     inkscape:document-units="mm"
     inkscape:current-layer="layer1"
     showgrid="true"
     inkscape:window-width="1366"
     inkscape:window-height="705"
     inkscape:window-x="-8"
     inkscape:window-y="-8"
     inkscape:window-maximized="1"
     showguides="true"
     inkscape:guide-bbox="true"
     inkscape:snap-bbox="true"
     inkscape:bbox-nodes="true"
     inkscape:snap-bbox-edge-midpoints="true"
     inkscape:snap-bbox-midpoints="false"
     inkscape:snap-object-midpoints="false"
     inkscape:snap-global="true"
     inkscape:snap-grids="true"
     inkscape:object-nodes="true"
     inkscape:snap-smooth-nodes="true"
     inkscape:snap-center="true">
    <inkscape:grid
       spacingy="17.716535"
       spacingx="17.716536"
       units="mm"
       id="grid3333"
       type="xygrid"
       color="#e80007"
       opacity="0.96078431"
       empcolor="#ed0000"
       empopacity="0.25098039" />
    <inkscape:grid
       type="xygrid"
       id="grid4730"
       units="mm"
       spacingx="0.35433071"
       spacingy="0.35433071"
       empspacing="10" />
    <sodipodi:guide
       id="guide3393"
       orientation="744.0945,0"
       position="526.1811,0" />
    <sodipodi:guide
       id="guide3395"
       orientation="0,1052.3622"
       position="0,248.0315" />
    <sodipodi:guide
       id="guide3397"
       orientation="0,1052.3622"
       position="0,496.063" />
    <sodipodi:guide
       position="3.5433071,0"
       orientation="0,1"
       id="guide4140" />
    <sodipodi:guide
       position="0,0"
       orientation="1,0"
       id="guide4142" />
  </sodipodi:namedview>
  <defs
     id="defs4" />
  <metadata
     id="metadata7">
    <rdf:RDF>
      <cc:Work
         rdf:about="">
        <dc:format>image/svg+xml</dc:format>
        <dc:type
           rdf:resource="http://purl.org/dc/dcmitype/StillImage" />
        <dc:title />
      </cc:Work>
    </rdf:RDF>
  </metadata>
  <g
     transform="translate(0,-308.26772)"
     id="layer1"
     inkscape:groupmode="layer"
     inkscape:label="Layer 1"
     style="display:inline">
    <path
       id="path12642-7-5"
       d="m -17.330286,1045.5808 -1.915792,-0.7497 -1.352338,-0.1772 -3.793607,0.7065 -0.50424,2.0853 3.051691,2.3618 1.283887,0.4602 2.04665,0.2085 0.01735,3.9351 -2.044727,0.2266 -1.279787,0.4715 -3.030744,2.3886 0.522598,2.0807 3.799689,0.6731 1.350722,-0.1891 1.909107,-0.7666 1.844108,3.4764 -1.705249,1.1508 -0.914038,1.0123 -1.573588,3.5234 1.429731,1.5995 3.677218,-1.1698 1.10813,-0.7952 1.334208,-1.5659 3.2484057,2.2211 -0.9751182,1.8115 -0.3389015,1.3211 0.2440715,3.8511 2.0093112,0.7519 2.7123485,-2.7447 0.6116708,-1.2191 0.4536669,-2.0066 3.90853242,0.4571 -0.021599,2.0572 0.3138747,1.3272 2.00580768,3.2966 2.1285934,-0.268 1.1261095,-3.6908 -0.024909,-1.3637 -0.5308131,-1.9876 3.6732591,-1.4116 0.9368733,1.8315 0.8947441,1.0294 3.308042,1.9868 1.760235,-1.2265 -0.718107,-3.7914 -0.655786,-1.1959 -1.393689,-1.5132 2.596496,-2.957 1.680708,1.1863 1.270644,0.4957 3.852441,0.2219 0.988636,-1.904 -2.397818,-3.0234 -1.136433,-0.7542 -1.937282,-0.6922 0.924894,-3.8249 2.039526,0.2693 1.355451,-0.1516 3.514296,-1.5938 -0.0095,-2.1454 -3.528208,-1.5627 -1.356736,-0.1397 -2.037065,0.2874 -0.958587,-3.8166 1.931111,-0.7093 1.129735,-0.7642 2.371063,-3.0444 -1.00538,-1.8952 -3.850334,0.2558 -1.266218,0.5069 -1.670191,1.2011 -2.622458,-2.934 1.380289,-1.5254 0.645218,-1.2017 0.684652,-3.7976 -1.770981,-1.2109 -3.290396,2.0159 -0.8856358,1.0372 -0.920687,1.8398 -3.6855658,-1.3792 0.5132691,-1.9922 0.012888,-1.3639 -1.1586101,-3.6807 -2.1308697,-0.2493 -1.97666628,3.3142 -0.3021607,1.33 0.039733,2.0568 -3.90435132,0.4916 -0.4713357,-2.0025 -0.6223963,-1.2137 -2.7364412,-2.7207 -2.0026082,0.7696 -0.210103,3.8531 0.3505355,1.3181 0.9910437,1.8028 -3.2286922,2.2497 -1.347965,-1.5541 -1.115093,-0.7854 -3.687394,-1.1374 -1.415564,1.6121 1.604586,3.5094 0.922931,1.0042 1.715328,1.1357 z"
       style="fill:#00ff00;stroke:none;stroke-width:1"
       inkscape:connector-curvature="0" />
    <circle
       id="path12644-1-3"
       style="fill:#800033;stroke:none;stroke-width:1"
       cx="-247.34007"
       cy="1022.8828"
       r="3.5433071"
       transform="matrix(-0.97198734,-0.23503322,-0.23503322,0.97198734,0,0)" />
  </g>
</svg>
