  0
SECTION
  2
HEADER
  9
$ACADVER
  1
AC1014
  9
$HANDSEED
  5
FFFF
  9
$MEASUREMENT
 70
     1
  0
ENDSEC
  0
SECTION
  2
TABLES
  0
TABLE
  2
VPORT
  5
8
330
0
100
AcDbSymbolTable
 70
     4
  0
VPORT
  5
2E
330
8
100
AcDbSymbolTableRecord
100
AcDbViewportTableRecord
  2
*ACTIVE
 70
     0
 10
0.0
 20
0.0
 11
1.0
 21
1.0
 12
210.0
 22
148.5
 13
0.0
 23
0.0
 14
10.0
 24
10.0
 15
10.0
 25
10.0
 16
0.0
 26
0.0
 36
1.0
 17
0.0
 27
0.0
 37
0.0
 40
341.0
 41
1.24
 42
50.0
 43
0.0
 44
0.0
 50
0.0
 51
0.0
 71
     0
 72
   100
 73
     1
 74
     3
 75
     0
 76
     0
 77
     0
 78
     0
  0
ENDTAB
  0
TABLE
  2
LTYPE
  5
5
330
0
100
AcDbSymbolTable
 70
     1
  0
LTYPE
  5
14
330
5
100
AcDbSymbolTableRecord
100
AcDbLinetypeTableRecord
  2
BYBLOCK
 70
     0
  3

 72
    65
 73
     0
 40
0.0
  0
LTYPE
  5
15
330
5
100
AcDbSymbolTableRecord
100
AcDbLinetypeTableRecord
  2
BYLAYER
 70
     0
  3

 72
    65
 73
     0
 40
0.0
  0
LTYPE
  5
16
330
5
100
AcDbSymbolTableRecord
100
AcDbLinetypeTableRecord
  2
CONTINUOUS
 70
     0
  3
Solid line
 72
    65
 73
     0
 40
0.0
  0
ENDTAB
  0
TABLE
  2
LAYER
  5
2
100
AcDbSymbolTable
 70
2
  0
LAYER
  5
50
100
AcDbSymbolTableRecord
100
AcDbLayerTableRecord
  2
0
 70
0
  6
CONTINUOUS
  0
LAYER
  5
51
100
AcDbSymbolTableRecord
100
AcDbLayerTableRecord
  2
Layer_1
 70
0
  6
CONTINUOUS
  0
ENDTAB
  0
TABLE
  2
STYLE
  5
3
330
0
100
AcDbSymbolTable
 70
     1
  0
STYLE
  5
11
330
3
100
AcDbSymbolTableRecord
100
AcDbTextStyleTableRecord
  2
STANDARD
 70
     0
 40
0.0
 41
1.0
 50
0.0
 71
     0
 42
2.5
  3
txt
  4

  0
ENDTAB
  0
TABLE
  2
VIEW
  5
6
330
0
100
AcDbSymbolTable
 70
     0
  0
ENDTAB
  0
TABLE
  2
UCS
  5
7
330
0
100
AcDbSymbolTable
 70
     0
  0
ENDTAB
  0
TABLE
  2
APPID
  5
9
330
0
100
AcDbSymbolTable
 70
     2
  0
APPID
  5
12
330
9
100
AcDbSymbolTableRecord
100
AcDbRegAppTableRecord
  2
ACAD
 70
     0
  0
ENDTAB
  0
TABLE
  2
DIMSTYLE
  5
A
330
0
100
AcDbSymbolTable
 70
     1
  0
DIMSTYLE
105
27
330
A
100
AcDbSymbolTableRecord
100
AcDbDimStyleTableRecord
  2
ISO-25
 70
     0
  3

  4

  5

  6

  7

 40
1.0
 41
2.5
 42
0.625
 43
3.75
 44
1.25
 45
0.0
 46
0.0
 47
0.0
 48
0.0
140
2.5
141
2.5
142
0.0
143
0.03937007874016
144
1.0
145
0.0
146
1.0
147
0.625
 71
     0
 72
     0
 73
     0
 74
     0
 75
     0
 76
     0
 77
     1
 78
     8
170
     0
171
     3
172
     1
173
     0
174
     0
175
     0
176
     0
177
     0
178
     0
270
     2
271
     2
272
     2
273
     2
274
     3
340
11
275
     0
280
     0
281
     0
282
     0
283
     0
284
     8
285
     0
286
     0
287
     3
288
     0
  0
ENDTAB
  0
TABLE
  2
BLOCK_RECORD
  5
1
330
0
100
AcDbSymbolTable
 70
     1
  0
BLOCK_RECORD
  5
1F
330
1
100
AcDbSymbolTableRecord
100
AcDbBlockTableRecord
  2
*MODEL_SPACE
  0
BLOCK_RECORD
  5
1B
330
1
100
AcDbSymbolTableRecord
100
AcDbBlockTableRecord
  2
*PAPER_SPACE
  0
ENDTAB
  0
ENDSEC
  0
SECTION
  2
BLOCKS
  0
BLOCK
  5
20
330
1F
100
AcDbEntity
  8
0
100
AcDbBlockBegin
  2
*MODEL_SPACE
 70
     0
 10
0.0
 20
0.0
 30
0.0
  3
*MODEL_SPACE
  1

  0
ENDBLK
  5
21
330
1F
100
AcDbEntity
  8
0
100
AcDbBlockEnd
  0
BLOCK
  5
1C
330
1B
100
AcDbEntity
 67
     1
  8
0
100
AcDbBlockBegin
  2
*PAPER_SPACE
  1

  0
ENDBLK
  5
1D
330
1B
100
AcDbEntity
 67
     1
  8
0
100
AcDbBlockEnd
  0
ENDSEC
  0
SECTION
  2
ENTITIES
  0
LINE
  5
100
100
AcDbEntity
  8
Layer_1
 62
7
100
AcDbLine
 10
-4.890992
 20
1.913864
 30
0.0
 11
-5.431671
 21
2.125446
 31
0.0
  0
LINE
  5
101
100
AcDbEntity
  8
Layer_1
 62
7
100
AcDbLine
 10
-5.431671
 20
2.125446
 30
0.0
 11
-5.813331
 21
2.175456
 31
0.0
  0
LINE
  5
102
100
AcDbEntity
  8
Layer_1
 62
7
100
AcDbLine
 10
-5.813331
 20
2.175456
 30
0.0
 11
-6.883971
 21
1.976066
 31
0.0
  0
LINE
  5
103
100
AcDbEntity
  8
Layer_1
 62
7
100
AcDbLine
 10
-6.883971
 20
1.976066
 30
0.0
 11
-7.026279
 21
1.387548
 31
0.0
  0
LINE
  5
104
100
AcDbEntity
  8
Layer_1
 62
7
100
AcDbLine
 10
-7.026279
 20
1.387548
 30
0.0
 11
-6.165024
 21
0.720995
 31
0.0
  0
LINE
  5
105
100
AcDbEntity
  8
Layer_1
 62
7
100
AcDbLine
 10
-6.165024
 20
0.720995
 30
0.0
 11
-5.802682
 21
0.591117
 31
0.0
  0
LINE
  5
106
100
AcDbEntity
  8
Layer_1
 62
7
100
AcDbLine
 10
-5.802682
 20
0.591117
 30
0.0
 11
-5.225072
 21
0.532273
 31
0.0
  0
LINE
  5
107
100
AcDbEntity
  8
Layer_1
 62
7
100
AcDbLine
 10
-5.225072
 20
0.532273
 30
0.0
 11
-5.220176
 21
-0.578299
 31
0.0
  0
LINE
  5
108
100
AcDbEntity
  8
Layer_1
 62
7
100
AcDbLine
 10
-5.220176
 20
-0.578299
 30
0.0
 11
-5.797243
 21
-0.642251
 31
0.0
  0
LINE
  5
109
100
AcDbEntity
  8
Layer_1
 62
7
100
AcDbLine
 10
-5.797243
 20
-0.642251
 30
0.0
 11
-6.158427
 21
-0.775319
 31
0.0
  0
LINE
  5
10a
100
AcDbEntity
  8
Layer_1
 62
7
100
AcDbLine
 10
-6.158427
 20
-0.775319
 30
0.0
 11
-7.013771
 21
-1.449435
 31
0.0
  0
LINE
  5
10b
100
AcDbEntity
  8
Layer_1
 62
7
100
AcDbLine
 10
-7.013771
 20
-1.449435
 30
0.0
 11
-6.866282
 21
-2.036654
 31
0.0
  0
LINE
  5
10c
100
AcDbEntity
  8
Layer_1
 62
7
100
AcDbLine
 10
-6.866282
 20
-2.036654
 30
0.0
 11
-5.793925
 21
-2.226618
 31
0.0
  0
LINE
  5
10d
100
AcDbEntity
  8
Layer_1
 62
7
100
AcDbLine
 10
-5.793925
 20
-2.226618
 30
0.0
 11
-5.412721
 21
-2.173250
 31
0.0
  0
LINE
  5
10e
100
AcDbEntity
  8
Layer_1
 62
7
100
AcDbLine
 10
-5.412721
 20
-2.173250
 30
0.0
 11
-4.873929
 21
-1.956898
 31
0.0
  0
LINE
  5
10f
100
AcDbEntity
  8
Layer_1
 62
7
100
AcDbLine
 10
-4.873929
 20
-1.956898
 30
0.0
 11
-4.353481
 21
-2.938016
 31
0.0
  0
LINE
  5
110
100
AcDbEntity
  8
Layer_1
 62
7
100
AcDbLine
 10
-4.353481
 20
-2.938016
 30
0.0
 11
-4.834740
 21
-3.262797
 31
0.0
  0
LINE
  5
111
100
AcDbEntity
  8
Layer_1
 62
7
100
AcDbLine
 10
-4.834740
 20
-3.262797
 30
0.0
 11
-5.092702
 21
-3.548491
 31
0.0
  0
LINE
  5
112
100
AcDbEntity
  8
Layer_1
 62
7
100
AcDbLine
 10
-5.092702
 20
-3.548491
 30
0.0
 11
-5.536803
 21
-4.542872
 31
0.0
  0
LINE
  5
113
100
AcDbEntity
  8
Layer_1
 62
7
100
AcDbLine
 10
-5.536803
 20
-4.542872
 30
0.0
 11
-5.133301
 21
-4.994287
 31
0.0
  0
LINE
  5
114
100
AcDbEntity
  8
Layer_1
 62
7
100
AcDbLine
 10
-5.133301
 20
-4.994287
 30
0.0
 11
-4.095509
 21
-4.664143
 31
0.0
  0
LINE
  5
115
100
AcDbEntity
  8
Layer_1
 62
7
100
AcDbLine
 10
-4.095509
 20
-4.664143
 30
0.0
 11
-3.782770
 21
-4.439720
 31
0.0
  0
LINE
  5
116
100
AcDbEntity
  8
Layer_1
 62
7
100
AcDbLine
 10
-3.782770
 20
-4.439720
 30
0.0
 11
-3.406227
 21
-3.997788
 31
0.0
  0
LINE
  5
117
100
AcDbEntity
  8
Layer_1
 62
7
100
AcDbLine
 10
-3.406227
 20
-3.997788
 30
0.0
 11
-2.489454
 21
-4.624632
 31
0.0
  0
LINE
  5
118
100
AcDbEntity
  8
Layer_1
 62
7
100
AcDbLine
 10
-2.489454
 20
-4.624632
 30
0.0
 11
-2.764654
 21
-5.135878
 31
0.0
  0
LINE
  5
119
100
AcDbEntity
  8
Layer_1
 62
7
100
AcDbLine
 10
-2.764654
 20
-5.135878
 30
0.0
 11
-2.860300
 21
-5.508721
 31
0.0
  0
LINE
  5
11a
100
AcDbEntity
  8
Layer_1
 62
7
100
AcDbLine
 10
-2.860300
 20
-5.508721
 30
0.0
 11
-2.791418
 21
-6.595587
 31
0.0
  0
LINE
  5
11b
100
AcDbEntity
  8
Layer_1
 62
7
100
AcDbLine
 10
-2.791418
 20
-6.595587
 30
0.0
 11
-2.224345
 21
-6.807790
 31
0.0
  0
LINE
  5
11c
100
AcDbEntity
  8
Layer_1
 62
7
100
AcDbLine
 10
-2.224345
 20
-6.807790
 30
0.0
 11
-1.458860
 21
-6.033175
 31
0.0
  0
LINE
  5
11d
100
AcDbEntity
  8
Layer_1
 62
7
100
AcDbLine
 10
-1.458860
 20
-6.033175
 30
0.0
 11
-1.286233
 21
-5.689118
 31
0.0
  0
LINE
  5
11e
100
AcDbEntity
  8
Layer_1
 62
7
100
AcDbLine
 10
-1.286233
 20
-5.689118
 30
0.0
 11
-1.158198
 21
-5.122811
 31
0.0
  0
LINE
  5
11f
100
AcDbEntity
  8
Layer_1
 62
7
100
AcDbLine
 10
-1.158198
 20
-5.122811
 30
0.0
 11
-0.055124
 21
-5.251815
 31
0.0
  0
LINE
  5
120
100
AcDbEntity
  8
Layer_1
 62
7
100
AcDbLine
 10
-0.055124
 20
-5.251815
 30
0.0
 11
-0.061219
 21
-5.832402
 31
0.0
  0
LINE
  5
121
100
AcDbEntity
  8
Layer_1
 62
7
100
AcDbLine
 10
-0.061219
 20
-5.832402
 30
0.0
 11
0.027363
 21
-6.206967
 31
0.0
  0
LINE
  5
122
100
AcDbEntity
  8
Layer_1
 62
7
100
AcDbLine
 10
0.027363
 20
-6.206967
 30
0.0
 11
0.593447
 21
-7.137341
 31
0.0
  0
LINE
  5
123
100
AcDbEntity
  8
Layer_1
 62
7
100
AcDbLine
 10
0.593447
 20
-7.137341
 30
0.0
 11
1.194183
 21
-7.061706
 31
0.0
  0
LINE
  5
124
100
AcDbEntity
  8
Layer_1
 62
7
100
AcDbLine
 10
1.194183
 20
-7.061706
 30
0.0
 11
1.511996
 21
-6.020080
 31
0.0
  0
LINE
  5
125
100
AcDbEntity
  8
Layer_1
 62
7
100
AcDbLine
 10
1.511996
 20
-6.020080
 30
0.0
 11
1.504966
 21
-5.635213
 31
0.0
  0
LINE
  5
126
100
AcDbEntity
  8
Layer_1
 62
7
100
AcDbLine
 10
1.504966
 20
-5.635213
 30
0.0
 11
1.355159
 21
-5.074269
 31
0.0
  0
LINE
  5
127
100
AcDbEntity
  8
Layer_1
 62
7
100
AcDbLine
 10
1.355159
 20
-5.074269
 30
0.0
 11
2.391834
 21
-4.675884
 31
0.0
  0
LINE
  5
128
100
AcDbEntity
  8
Layer_1
 62
7
100
AcDbLine
 10
2.391834
 20
-4.675884
 30
0.0
 11
2.656241
 21
-5.192774
 31
0.0
  0
LINE
  5
129
100
AcDbEntity
  8
Layer_1
 62
7
100
AcDbLine
 10
2.656241
 20
-5.192774
 30
0.0
 11
2.908757
 21
-5.483293
 31
0.0
  0
LINE
  5
12a
100
AcDbEntity
  8
Layer_1
 62
7
100
AcDbLine
 10
2.908757
 20
-5.483293
 30
0.0
 11
3.842360
 21
-6.044012
 31
0.0
  0
LINE
  5
12b
100
AcDbEntity
  8
Layer_1
 62
7
100
AcDbLine
 10
3.842360
 20
-6.044012
 30
0.0
 11
4.339138
 21
-5.697867
 31
0.0
  0
LINE
  5
12c
100
AcDbEntity
  8
Layer_1
 62
7
100
AcDbLine
 10
4.339138
 20
-5.697867
 30
0.0
 11
4.136472
 21
-4.627849
 31
0.0
  0
LINE
  5
12d
100
AcDbEntity
  8
Layer_1
 62
7
100
AcDbLine
 10
4.136472
 20
-4.627849
 30
0.0
 11
3.951395
 21
-4.290340
 31
0.0
  0
LINE
  5
12e
100
AcDbEntity
  8
Layer_1
 62
7
100
AcDbLine
 10
3.951395
 20
-4.290340
 30
0.0
 11
3.558065
 21
-3.863281
 31
0.0
  0
LINE
  5
12f
100
AcDbEntity
  8
Layer_1
 62
7
100
AcDbLine
 10
3.558065
 20
-3.863281
 30
0.0
 11
4.290854
 21
-3.028750
 31
0.0
  0
LINE
  5
130
100
AcDbEntity
  8
Layer_1
 62
7
100
AcDbLine
 10
4.290854
 20
-3.028750
 30
0.0
 11
4.765187
 21
-3.363550
 31
0.0
  0
LINE
  5
131
100
AcDbEntity
  8
Layer_1
 62
7
100
AcDbLine
 10
4.765187
 20
-3.363550
 30
0.0
 11
5.123791
 21
-3.503448
 31
0.0
  0
LINE
  5
132
100
AcDbEntity
  8
Layer_1
 62
7
100
AcDbLine
 10
5.123791
 20
-3.503448
 30
0.0
 11
6.211035
 21
-3.566073
 31
0.0
  0
LINE
  5
133
100
AcDbEntity
  8
Layer_1
 62
7
100
AcDbLine
 10
6.211035
 20
-3.566073
 30
0.0
 11
6.490050
 21
-3.028722
 31
0.0
  0
LINE
  5
134
100
AcDbEntity
  8
Layer_1
 62
7
100
AcDbLine
 10
6.490050
 20
-3.028722
 30
0.0
 11
5.813333
 21
-2.175451
 31
0.0
  0
LINE
  5
135
100
AcDbEntity
  8
Layer_1
 62
7
100
AcDbLine
 10
5.813333
 20
-2.175451
 30
0.0
 11
5.492606
 21
-1.962599
 31
0.0
  0
LINE
  5
136
100
AcDbEntity
  8
Layer_1
 62
7
100
AcDbLine
 10
5.492606
 20
-1.962599
 30
0.0
 11
4.945862
 21
-1.767245
 31
0.0
  0
LINE
  5
137
100
AcDbEntity
  8
Layer_1
 62
7
100
AcDbLine
 10
4.945862
 20
-1.767245
 30
0.0
 11
5.206888
 21
-0.687773
 31
0.0
  0
LINE
  5
138
100
AcDbEntity
  8
Layer_1
 62
7
100
AcDbLine
 10
5.206888
 20
-0.687773
 30
0.0
 11
5.782487
 21
-0.763776
 31
0.0
  0
LINE
  5
139
100
AcDbEntity
  8
Layer_1
 62
7
100
AcDbLine
 10
5.782487
 20
-0.763776
 30
0.0
 11
6.165026
 21
-0.720991
 31
0.0
  0
LINE
  5
13a
100
AcDbEntity
  8
Layer_1
 62
7
100
AcDbLine
 10
6.165026
 20
-0.720991
 30
0.0
 11
7.156838
 21
-0.271185
 31
0.0
  0
LINE
  5
13b
100
AcDbEntity
  8
Layer_1
 62
7
100
AcDbLine
 10
7.156838
 20
-0.271185
 30
0.0
 11
7.154157
 21
0.334295
 31
0.0
  0
LINE
  5
13c
100
AcDbEntity
  8
Layer_1
 62
7
100
AcDbLine
 10
7.154157
 20
0.334295
 30
0.0
 11
6.158418
 21
0.775323
 31
0.0
  0
LINE
  5
13d
100
AcDbEntity
  8
Layer_1
 62
7
100
AcDbLine
 10
6.158418
 20
0.775323
 30
0.0
 11
5.775517
 21
0.814750
 31
0.0
  0
LINE
  5
13e
100
AcDbEntity
  8
Layer_1
 62
7
100
AcDbLine
 10
5.775517
 20
0.814750
 30
0.0
 11
5.200612
 21
0.733639
 31
0.0
  0
LINE
  5
13f
100
AcDbEntity
  8
Layer_1
 62
7
100
AcDbLine
 10
5.200612
 20
0.733639
 30
0.0
 11
4.930078
 21
1.810768
 31
0.0
  0
LINE
  5
140
100
AcDbEntity
  8
Layer_1
 62
7
100
AcDbLine
 10
4.930078
 20
1.810768
 30
0.0
 11
5.475080
 21
2.010949
 31
0.0
  0
LINE
  5
141
100
AcDbEntity
  8
Layer_1
 62
7
100
AcDbLine
 10
5.475080
 20
2.010949
 30
0.0
 11
5.793916
 21
2.226623
 31
0.0
  0
LINE
  5
142
100
AcDbEntity
  8
Layer_1
 62
7
100
AcDbLine
 10
5.793916
 20
2.226623
 30
0.0
 11
6.463083
 21
3.085820
 31
0.0
  0
LINE
  5
143
100
AcDbEntity
  8
Layer_1
 62
7
100
AcDbLine
 10
6.463083
 20
3.085820
 30
0.0
 11
6.179342
 21
3.620688
 31
0.0
  0
LINE
  5
144
100
AcDbEntity
  8
Layer_1
 62
7
100
AcDbLine
 10
6.179342
 20
3.620688
 30
0.0
 11
5.092693
 21
3.548495
 31
0.0
  0
LINE
  5
145
100
AcDbEntity
  8
Layer_1
 62
7
100
AcDbLine
 10
5.092693
 20
3.548495
 30
0.0
 11
4.735338
 21
3.405437
 31
0.0
  0
LINE
  5
146
100
AcDbEntity
  8
Layer_1
 62
7
100
AcDbLine
 10
4.735338
 20
3.405437
 30
0.0
 11
4.263973
 21
3.066460
 31
0.0
  0
LINE
  5
147
100
AcDbEntity
  8
Layer_1
 62
7
100
AcDbLine
 10
4.263973
 20
3.066460
 30
0.0
 11
3.523857
 21
3.894500
 31
0.0
  0
LINE
  5
148
100
AcDbEntity
  8
Layer_1
 62
7
100
AcDbLine
 10
3.523857
 20
3.894500
 30
0.0
 11
3.913405
 21
4.325001
 31
0.0
  0
LINE
  5
149
100
AcDbEntity
  8
Layer_1
 62
7
100
AcDbLine
 10
3.913405
 20
4.325001
 30
0.0
 11
4.095500
 21
4.664148
 31
0.0
  0
LINE
  5
14a
100
AcDbEntity
  8
Layer_1
 62
7
100
AcDbLine
 10
4.095500
 20
4.664148
 30
0.0
 11
4.288724
 21
5.735915
 31
0.0
  0
LINE
  5
14b
100
AcDbEntity
  8
Layer_1
 62
7
100
AcDbLine
 10
4.288724
 20
5.735915
 30
0.0
 11
3.788914
 21
6.077658
 31
0.0
  0
LINE
  5
14c
100
AcDbEntity
  8
Layer_1
 62
7
100
AcDbLine
 10
3.788914
 20
6.077658
 30
0.0
 11
2.860291
 21
5.508726
 31
0.0
  0
LINE
  5
14d
100
AcDbEntity
  8
Layer_1
 62
7
100
AcDbLine
 10
2.860291
 20
5.508726
 30
0.0
 11
2.610345
 21
5.216005
 31
0.0
  0
LINE
  5
14e
100
AcDbEntity
  8
Layer_1
 62
7
100
AcDbLine
 10
2.610345
 20
5.216005
 30
0.0
 11
2.350506
 21
4.696773
 31
0.0
  0
LINE
  5
14f
100
AcDbEntity
  8
Layer_1
 62
7
100
AcDbLine
 10
2.350506
 20
4.696773
 30
0.0
 11
1.310358
 21
5.086014
 31
0.0
  0
LINE
  5
150
100
AcDbEntity
  8
Layer_1
 62
7
100
AcDbLine
 10
1.310358
 20
5.086014
 30
0.0
 11
1.455214
 21
5.648257
 31
0.0
  0
LINE
  5
151
100
AcDbEntity
  8
Layer_1
 62
7
100
AcDbLine
 10
1.455214
 20
5.648257
 30
0.0
 11
1.458851
 21
6.033180
 31
0.0
  0
LINE
  5
152
100
AcDbEntity
  8
Layer_1
 62
7
100
AcDbLine
 10
1.458851
 20
6.033180
 30
0.0
 11
1.131866
 21
7.071955
 31
0.0
  0
LINE
  5
153
100
AcDbEntity
  8
Layer_1
 62
7
100
AcDbLine
 10
1.131866
 20
7.071955
 30
0.0
 11
0.530487
 21
7.142313
 31
0.0
  0
LINE
  5
154
100
AcDbEntity
  8
Layer_1
 62
7
100
AcDbLine
 10
0.530487
 20
7.142313
 30
0.0
 11
-0.027372
 21
6.206972
 31
0.0
  0
LINE
  5
155
100
AcDbEntity
  8
Layer_1
 62
7
100
AcDbLine
 10
-0.027372
 20
6.206972
 30
0.0
 11
-0.112649
 21
5.831617
 31
0.0
  0
LINE
  5
156
100
AcDbEntity
  8
Layer_1
 62
7
100
AcDbLine
 10
-0.112649
 20
5.831617
 30
0.0
 11
-0.101435
 21
5.251142
 31
0.0
  0
LINE
  5
157
100
AcDbEntity
  8
Layer_1
 62
7
100
AcDbLine
 10
-0.101435
 20
5.251142
 30
0.0
 11
-1.203330
 21
5.112401
 31
0.0
  0
LINE
  5
158
100
AcDbEntity
  8
Layer_1
 62
7
100
AcDbLine
 10
-1.203330
 20
5.112401
 30
0.0
 11
-1.336351
 21
5.677551
 31
0.0
  0
LINE
  5
159
100
AcDbEntity
  8
Layer_1
 62
7
100
AcDbLine
 10
-1.336351
 20
5.677551
 30
0.0
 11
-1.512005
 21
6.020085
 31
0.0
  0
LINE
  5
15a
100
AcDbEntity
  8
Layer_1
 62
7
100
AcDbLine
 10
-1.512005
 20
6.020085
 30
0.0
 11
-2.284290
 21
6.787927
 31
0.0
  0
LINE
  5
15b
100
AcDbEntity
  8
Layer_1
 62
7
100
AcDbLine
 10
-2.284290
 20
6.787927
 30
0.0
 11
-2.849470
 21
6.570728
 31
0.0
  0
LINE
  5
15c
100
AcDbEntity
  8
Layer_1
 62
7
100
AcDbLine
 10
-2.849470
 20
6.570728
 30
0.0
 11
-2.908766
 21
5.483298
 31
0.0
  0
LINE
  5
15d
100
AcDbEntity
  8
Layer_1
 62
7
100
AcDbLine
 10
-2.908766
 20
5.483298
 30
0.0
 11
-2.809837
 21
5.111301
 31
0.0
  0
LINE
  5
15e
100
AcDbEntity
  8
Layer_1
 62
7
100
AcDbLine
 10
-2.809837
 20
5.111301
 30
0.0
 11
-2.530143
 21
4.602511
 31
0.0
  0
LINE
  5
15f
100
AcDbEntity
  8
Layer_1
 62
7
100
AcDbLine
 10
-2.530143
 20
4.602511
 30
0.0
 11
-3.441351
 21
3.967595
 31
0.0
  0
LINE
  5
160
100
AcDbEntity
  8
Layer_1
 62
7
100
AcDbLine
 10
-3.441351
 20
3.967595
 30
0.0
 11
-3.821777
 21
4.406197
 31
0.0
  0
LINE
  5
161
100
AcDbEntity
  8
Layer_1
 62
7
100
AcDbLine
 10
-3.821777
 20
4.406197
 30
0.0
 11
-4.136481
 21
4.627854
 31
0.0
  0
LINE
  5
162
100
AcDbEntity
  8
Layer_1
 62
7
100
AcDbLine
 10
-4.136481
 20
4.627854
 30
0.0
 11
-5.177146
 21
4.948854
 31
0.0
  0
LINE
  5
163
100
AcDbEntity
  8
Layer_1
 62
7
100
AcDbLine
 10
-5.177146
 20
4.948854
 30
0.0
 11
-5.576649
 21
4.493883
 31
0.0
  0
LINE
  5
164
100
AcDbEntity
  8
Layer_1
 62
7
100
AcDbLine
 10
-5.576649
 20
4.493883
 30
0.0
 11
-5.123799
 21
3.503453
 31
0.0
  0
LINE
  5
165
100
AcDbEntity
  8
Layer_1
 62
7
100
AcDbLine
 10
-5.123799
 20
3.503453
 30
0.0
 11
-4.863328
 21
3.220045
 31
0.0
  0
LINE
  5
166
100
AcDbEntity
  8
Layer_1
 62
7
100
AcDbLine
 10
-4.863328
 20
3.220045
 30
0.0
 11
-4.379224
 21
2.899525
 31
0.0
  0
LINE
  5
167
100
AcDbEntity
  8
Layer_1
 62
7
100
AcDbLine
 10
-4.379224
 20
2.899525
 30
0.0
 11
-4.890992
 21
1.913864
 31
0.0
  0
ENDSEC
  0
SECTION
  2
OBJECTS
  0
DICTIONARY
  5
C
330
0
100
AcDbDictionary
  3
ACAD_GROUP
350
D
  3
ACAD_MLINESTYLE
350
17
  0
DICTIONARY
  5
D
330
C
100
AcDbDictionary
  0
DICTIONARY
  5
1A
330
C
100
AcDbDictionary
  0
DICTIONARY
  5
17
330
C
100
AcDbDictionary
  3
STANDARD
350
18
  0
DICTIONARY
  5
19
330
C
100
AcDbDictionary
  0
ENDSEC
  0
EOF
