  0
SECTION
  2
HEADER
  9
$ACADVER
  1
AC1014
  9
$HANDSEED
  5
FFFF
  9
$MEASUREMENT
 70
     1
  0
ENDSEC
  0
SECTION
  2
TABLES
  0
TABLE
  2
VPORT
  5
8
330
0
100
AcDbSymbolTable
 70
     4
  0
VPORT
  5
2E
330
8
100
AcDbSymbolTableRecord
100
AcDbViewportTableRecord
  2
*ACTIVE
 70
     0
 10
0.0
 20
0.0
 11
1.0
 21
1.0
 12
210.0
 22
148.5
 13
0.0
 23
0.0
 14
10.0
 24
10.0
 15
10.0
 25
10.0
 16
0.0
 26
0.0
 36
1.0
 17
0.0
 27
0.0
 37
0.0
 40
341.0
 41
1.24
 42
50.0
 43
0.0
 44
0.0
 50
0.0
 51
0.0
 71
     0
 72
   100
 73
     1
 74
     3
 75
     0
 76
     0
 77
     0
 78
     0
  0
ENDTAB
  0
TABLE
  2
LTYPE
  5
5
330
0
100
AcDbSymbolTable
 70
     1
  0
LTYPE
  5
14
330
5
100
AcDbSymbolTableRecord
100
AcDbLinetypeTableRecord
  2
BYBLOCK
 70
     0
  3

 72
    65
 73
     0
 40
0.0
  0
LTYPE
  5
15
330
5
100
AcDbSymbolTableRecord
100
AcDbLinetypeTableRecord
  2
BYLAYER
 70
     0
  3

 72
    65
 73
     0
 40
0.0
  0
LTYPE
  5
16
330
5
100
AcDbSymbolTableRecord
100
AcDbLinetypeTableRecord
  2
CONTINUOUS
 70
     0
  3
Solid line
 72
    65
 73
     0
 40
0.0
  0
ENDTAB
  0
TABLE
  2
LAYER
  5
2
100
AcDbSymbolTable
 70
2
  0
LAYER
  5
50
100
AcDbSymbolTableRecord
100
AcDbLayerTableRecord
  2
0
 70
0
  6
CONTINUOUS
  0
LAYER
  5
51
100
AcDbSymbolTableRecord
100
AcDbLayerTableRecord
  2
Layer_1
 70
0
  6
CONTINUOUS
  0
ENDTAB
  0
TABLE
  2
STYLE
  5
3
330
0
100
AcDbSymbolTable
 70
     1
  0
STYLE
  5
11
330
3
100
AcDbSymbolTableRecord
100
AcDbTextStyleTableRecord
  2
STANDARD
 70
     0
 40
0.0
 41
1.0
 50
0.0
 71
     0
 42
2.5
  3
txt
  4

  0
ENDTAB
  0
TABLE
  2
VIEW
  5
6
330
0
100
AcDbSymbolTable
 70
     0
  0
ENDTAB
  0
TABLE
  2
UCS
  5
7
330
0
100
AcDbSymbolTable
 70
     0
  0
ENDTAB
  0
TABLE
  2
APPID
  5
9
330
0
100
AcDbSymbolTable
 70
     2
  0
APPID
  5
12
330
9
100
AcDbSymbolTableRecord
100
AcDbRegAppTableRecord
  2
ACAD
 70
     0
  0
ENDTAB
  0
TABLE
  2
DIMSTYLE
  5
A
330
0
100
AcDbSymbolTable
 70
     1
  0
DIMSTYLE
105
27
330
A
100
AcDbSymbolTableRecord
100
AcDbDimStyleTableRecord
  2
ISO-25
 70
     0
  3

  4

  5

  6

  7

 40
1.0
 41
2.5
 42
0.625
 43
3.75
 44
1.25
 45
0.0
 46
0.0
 47
0.0
 48
0.0
140
2.5
141
2.5
142
0.0
143
0.03937007874016
144
1.0
145
0.0
146
1.0
147
0.625
 71
     0
 72
     0
 73
     0
 74
     0
 75
     0
 76
     0
 77
     1
 78
     8
170
     0
171
     3
172
     1
173
     0
174
     0
175
     0
176
     0
177
     0
178
     0
270
     2
271
     2
272
     2
273
     2
274
     3
340
11
275
     0
280
     0
281
     0
282
     0
283
     0
284
     8
285
     0
286
     0
287
     3
288
     0
  0
ENDTAB
  0
TABLE
  2
BLOCK_RECORD
  5
1
330
0
100
AcDbSymbolTable
 70
     1
  0
BLOCK_RECORD
  5
1F
330
1
100
AcDbSymbolTableRecord
100
AcDbBlockTableRecord
  2
*MODEL_SPACE
  0
BLOCK_RECORD
  5
1B
330
1
100
AcDbSymbolTableRecord
100
AcDbBlockTableRecord
  2
*PAPER_SPACE
  0
ENDTAB
  0
ENDSEC
  0
SECTION
  2
BLOCKS
  0
BLOCK
  5
20
330
1F
100
AcDbEntity
  8
0
100
AcDbBlockBegin
  2
*MODEL_SPACE
 70
     0
 10
0.0
 20
0.0
 30
0.0
  3
*MODEL_SPACE
  1

  0
ENDBLK
  5
21
330
1F
100
AcDbEntity
  8
0
100
AcDbBlockEnd
  0
BLOCK
  5
1C
330
1B
100
AcDbEntity
 67
     1
  8
0
100
AcDbBlockBegin
  2
*PAPER_SPACE
  1

  0
ENDBLK
  5
1D
330
1B
100
AcDbEntity
 67
     1
  8
0
100
AcDbBlockEnd
  0
ENDSEC
  0
SECTION
  2
ENTITIES
  0
LINE
  5
100
100
AcDbEntity
  8
Layer_1
 62
7
100
AcDbLine
 10
13.890356
 20
-2.334794
 30
0.0
 11
14.385181
 21
-2.266750
 31
0.0
  0
LINE
  5
101
100
AcDbEntity
  8
Layer_1
 62
7
100
AcDbLine
 10
14.385181
 20
-2.266750
 30
0.0
 11
14.886576
 21
-2.143786
 31
0.0
  0
LINE
  5
102
100
AcDbEntity
  8
Layer_1
 62
7
100
AcDbLine
 10
14.886576
 20
-2.143786
 30
0.0
 11
14.935458
 21
-1.771450
 31
0.0
  0
LINE
  5
103
100
AcDbEntity
  8
Layer_1
 62
7
100
AcDbLine
 10
14.935458
 20
-1.771450
 30
0.0
 11
14.482797
 21
-1.523207
 31
0.0
  0
LINE
  5
104
100
AcDbEntity
  8
Layer_1
 62
7
100
AcDbLine
 10
14.482797
 20
-1.523207
 30
0.0
 11
14.022303
 21
-1.329744
 31
0.0
  0
LINE
  5
105
100
AcDbEntity
  8
Layer_1
 62
7
100
AcDbLine
 10
14.022303
 20
-1.329744
 30
0.0
 11
14.056803
 21
-0.894191
 31
0.0
  0
LINE
  5
106
100
AcDbEntity
  8
Layer_1
 62
7
100
AcDbLine
 10
14.056803
 20
-0.894191
 30
0.0
 11
14.542007
 21
-0.775629
 31
0.0
  0
LINE
  5
107
100
AcDbEntity
  8
Layer_1
 62
7
100
AcDbLine
 10
14.542007
 20
-0.775629
 30
0.0
 11
15.028099
 21
-0.601752
 31
0.0
  0
LINE
  5
108
100
AcDbEntity
  8
Layer_1
 62
7
100
AcDbLine
 10
15.028099
 20
-0.601752
 30
0.0
 11
15.038440
 21
-0.226368
 31
0.0
  0
LINE
  5
109
100
AcDbEntity
  8
Layer_1
 62
7
100
AcDbLine
 10
15.038440
 20
-0.226368
 30
0.0
 11
14.562656
 21
-0.025990
 31
0.0
  0
LINE
  5
10a
100
AcDbEntity
  8
Layer_1
 62
7
100
AcDbLine
 10
14.562656
 20
-0.025990
 30
0.0
 11
14.084710
 21
0.119072
 31
0.0
  0
LINE
  5
10b
100
AcDbEntity
  8
Layer_1
 62
7
100
AcDbLine
 10
14.084710
 20
0.119072
 30
0.0
 11
14.074242
 21
0.555867
 31
0.0
  0
LINE
  5
10c
100
AcDbEntity
  8
Layer_1
 62
7
100
AcDbLine
 10
14.074242
 20
0.555867
 30
0.0
 11
14.544685
 21
0.723705
 31
0.0
  0
LINE
  5
10d
100
AcDbEntity
  8
Layer_1
 62
7
100
AcDbLine
 10
14.544685
 20
0.723705
 30
0.0
 11
15.010325
 21
0.946632
 31
0.0
  0
LINE
  5
10e
100
AcDbEntity
  8
Layer_1
 62
7
100
AcDbLine
 10
15.010325
 20
0.946632
 30
0.0
 11
14.982011
 21
1.321085
 31
0.0
  0
LINE
  5
10f
100
AcDbEntity
  8
Layer_1
 62
7
100
AcDbLine
 10
14.982011
 20
1.321085
 30
0.0
 11
14.488147
 21
1.471481
 31
0.0
  0
LINE
  5
110
100
AcDbEntity
  8
Layer_1
 62
7
100
AcDbLine
 10
14.488147
 20
1.471481
 30
0.0
 11
13.997815
 21
1.566646
 31
0.0
  0
LINE
  5
111
100
AcDbEntity
  8
Layer_1
 62
7
100
AcDbLine
 10
13.997815
 20
1.566646
 30
0.0
 11
13.942489
 21
2.000055
 31
0.0
  0
LINE
  5
112
100
AcDbEntity
  8
Layer_1
 62
7
100
AcDbLine
 10
13.942489
 20
2.000055
 30
0.0
 11
14.393186
 21
2.215362
 31
0.0
  0
LINE
  5
113
100
AcDbEntity
  8
Layer_1
 62
7
100
AcDbLine
 10
14.393186
 20
2.215362
 30
0.0
 11
14.833435
 21
2.484997
 31
0.0
  0
LINE
  5
114
100
AcDbEntity
  8
Layer_1
 62
7
100
AcDbLine
 10
14.833435
 20
2.484997
 30
0.0
 11
14.766769
 21
2.854567
 31
0.0
  0
LINE
  5
115
100
AcDbEntity
  8
Layer_1
 62
7
100
AcDbLine
 10
14.766769
 20
2.854567
 30
0.0
 11
14.260058
 21
2.953373
 31
0.0
  0
LINE
  5
116
100
AcDbEntity
  8
Layer_1
 62
7
100
AcDbLine
 10
14.260058
 20
2.953373
 30
0.0
 11
13.762541
 21
2.997626
 31
0.0
  0
LINE
  5
117
100
AcDbEntity
  8
Layer_1
 62
7
100
AcDbLine
 10
13.762541
 20
2.997626
 30
0.0
 11
13.662945
 21
3.423047
 31
0.0
  0
LINE
  5
118
100
AcDbEntity
  8
Layer_1
 62
7
100
AcDbLine
 10
13.662945
 20
3.423047
 30
0.0
 11
14.089114
 21
3.683539
 31
0.0
  0
LINE
  5
119
100
AcDbEntity
  8
Layer_1
 62
7
100
AcDbLine
 10
14.089114
 20
3.683539
 30
0.0
 11
14.499304
 21
3.997003
 31
0.0
  0
LINE
  5
11a
100
AcDbEntity
  8
Layer_1
 62
7
100
AcDbLine
 10
14.499304
 20
3.997003
 30
0.0
 11
14.394996
 21
4.357767
 31
0.0
  0
LINE
  5
11b
100
AcDbEntity
  8
Layer_1
 62
7
100
AcDbLine
 10
14.394996
 20
4.357767
 30
0.0
 11
13.880810
 21
4.403939
 31
0.0
  0
LINE
  5
11c
100
AcDbEntity
  8
Layer_1
 62
7
100
AcDbLine
 10
13.880810
 20
4.403939
 30
0.0
 11
13.381379
 21
4.396883
 31
0.0
  0
LINE
  5
11d
100
AcDbEntity
  8
Layer_1
 62
7
100
AcDbLine
 10
13.381379
 20
4.396883
 30
0.0
 11
13.238571
 21
4.809831
 31
0.0
  0
LINE
  5
11e
100
AcDbEntity
  8
Layer_1
 62
7
100
AcDbLine
 10
13.238571
 20
4.809831
 30
0.0
 11
13.635696
 21
5.112768
 31
0.0
  0
LINE
  5
11f
100
AcDbEntity
  8
Layer_1
 62
7
100
AcDbLine
 10
13.635696
 20
5.112768
 30
0.0
 11
14.011480
 21
5.466760
 31
0.0
  0
LINE
  5
120
100
AcDbEntity
  8
Layer_1
 62
7
100
AcDbLine
 10
14.011480
 20
5.466760
 30
0.0
 11
13.870632
 21
5.814853
 31
0.0
  0
LINE
  5
121
100
AcDbEntity
  8
Layer_1
 62
7
100
AcDbLine
 10
13.870632
 20
5.814853
 30
0.0
 11
13.354423
 21
5.808079
 31
0.0
  0
LINE
  5
122
100
AcDbEntity
  8
Layer_1
 62
7
100
AcDbLine
 10
13.354423
 20
5.808079
 30
0.0
 11
12.858374
 21
5.749631
 31
0.0
  0
LINE
  5
123
100
AcDbEntity
  8
Layer_1
 62
7
100
AcDbLine
 10
12.858374
 20
5.749631
 30
0.0
 11
12.673862
 21
6.145673
 31
0.0
  0
LINE
  5
124
100
AcDbEntity
  8
Layer_1
 62
7
100
AcDbLine
 10
12.673862
 20
6.145673
 30
0.0
 11
13.037736
 21
6.487840
 31
0.0
  0
LINE
  5
125
100
AcDbEntity
  8
Layer_1
 62
7
100
AcDbLine
 10
13.037736
 20
6.487840
 30
0.0
 11
13.375129
 21
6.878576
 31
0.0
  0
LINE
  5
126
100
AcDbEntity
  8
Layer_1
 62
7
100
AcDbLine
 10
13.375129
 20
6.878576
 30
0.0
 11
13.199235
 21
7.210357
 31
0.0
  0
LINE
  5
127
100
AcDbEntity
  8
Layer_1
 62
7
100
AcDbLine
 10
13.199235
 20
7.210357
 30
0.0
 11
12.686475
 21
7.150413
 31
0.0
  0
LINE
  5
128
100
AcDbEntity
  8
Layer_1
 62
7
100
AcDbLine
 10
12.686475
 20
7.150413
 30
0.0
 11
12.199065
 21
7.041249
 31
0.0
  0
LINE
  5
129
100
AcDbEntity
  8
Layer_1
 62
7
100
AcDbLine
 10
12.199065
 20
7.041249
 30
0.0
 11
11.974809
 21
7.416238
 31
0.0
  0
LINE
  5
12a
100
AcDbEntity
  8
Layer_1
 62
7
100
AcDbLine
 10
11.974809
 20
7.416238
 30
0.0
 11
12.301571
 21
7.793992
 31
0.0
  0
LINE
  5
12b
100
AcDbEntity
  8
Layer_1
 62
7
100
AcDbLine
 10
12.301571
 20
7.793992
 30
0.0
 11
12.597000
 21
8.217382
 31
0.0
  0
LINE
  5
12c
100
AcDbEntity
  8
Layer_1
 62
7
100
AcDbLine
 10
12.597000
 20
8.217382
 30
0.0
 11
12.387925
 21
8.529322
 31
0.0
  0
LINE
  5
12d
100
AcDbEntity
  8
Layer_1
 62
7
100
AcDbLine
 10
12.387925
 20
8.529322
 30
0.0
 11
11.884045
 21
8.416941
 31
0.0
  0
LINE
  5
12e
100
AcDbEntity
  8
Layer_1
 62
7
100
AcDbLine
 10
11.884045
 20
8.416941
 30
0.0
 11
11.410440
 21
8.258248
 31
0.0
  0
LINE
  5
12f
100
AcDbEntity
  8
Layer_1
 62
7
100
AcDbLine
 10
11.410440
 20
8.258248
 30
0.0
 11
11.148819
 21
8.608203
 31
0.0
  0
LINE
  5
130
100
AcDbEntity
  8
Layer_1
 62
7
100
AcDbLine
 10
11.148819
 20
8.608203
 30
0.0
 11
11.435005
 21
9.017567
 31
0.0
  0
LINE
  5
131
100
AcDbEntity
  8
Layer_1
 62
7
100
AcDbLine
 10
11.435005
 20
9.017567
 30
0.0
 11
11.685340
 21
9.469066
 31
0.0
  0
LINE
  5
132
100
AcDbEntity
  8
Layer_1
 62
7
100
AcDbLine
 10
11.685340
 20
9.469066
 30
0.0
 11
11.445296
 21
9.757836
 31
0.0
  0
LINE
  5
133
100
AcDbEntity
  8
Layer_1
 62
7
100
AcDbLine
 10
11.445296
 20
9.757836
 30
0.0
 11
10.955643
 21
9.594260
 31
0.0
  0
LINE
  5
134
100
AcDbEntity
  8
Layer_1
 62
7
100
AcDbLine
 10
10.955643
 20
9.594260
 30
0.0
 11
10.500867
 21
9.387729
 31
0.0
  0
LINE
  5
135
100
AcDbEntity
  8
Layer_1
 62
7
100
AcDbLine
 10
10.500867
 20
9.387729
 30
0.0
 11
10.204648
 21
9.708898
 31
0.0
  0
LINE
  5
136
100
AcDbEntity
  8
Layer_1
 62
7
100
AcDbLine
 10
10.204648
 20
9.708898
 30
0.0
 11
10.447228
 21
10.145524
 31
0.0
  0
LINE
  5
137
100
AcDbEntity
  8
Layer_1
 62
7
100
AcDbLine
 10
10.447228
 20
10.145524
 30
0.0
 11
10.649810
 21
10.620363
 31
0.0
  0
LINE
  5
138
100
AcDbEntity
  8
Layer_1
 62
7
100
AcDbLine
 10
10.649810
 20
10.620363
 30
0.0
 11
10.381348
 21
10.882943
 31
0.0
  0
LINE
  5
139
100
AcDbEntity
  8
Layer_1
 62
7
100
AcDbLine
 10
10.381348
 20
10.882943
 30
0.0
 11
9.911110
 21
10.669893
 31
0.0
  0
LINE
  5
13a
100
AcDbEntity
  8
Layer_1
 62
7
100
AcDbLine
 10
9.911110
 20
10.669893
 30
0.0
 11
9.479978
 21
10.417671
 31
0.0
  0
LINE
  5
13b
100
AcDbEntity
  8
Layer_1
 62
7
100
AcDbLine
 10
9.479978
 20
10.417671
 30
0.0
 11
9.152306
 21
10.706695
 31
0.0
  0
LINE
  5
13c
100
AcDbEntity
  8
Layer_1
 62
7
100
AcDbLine
 10
9.152306
 20
10.706695
 30
0.0
 11
9.348707
 21
11.165955
 31
0.0
  0
LINE
  5
13d
100
AcDbEntity
  8
Layer_1
 62
7
100
AcDbLine
 10
9.348707
 20
11.165955
 30
0.0
 11
9.501393
 21
11.659110
 31
0.0
  0
LINE
  5
13e
100
AcDbEntity
  8
Layer_1
 62
7
100
AcDbLine
 10
9.501393
 20
11.659110
 30
0.0
 11
9.207354
 21
11.892706
 31
0.0
  0
LINE
  5
13f
100
AcDbEntity
  8
Layer_1
 62
7
100
AcDbLine
 10
9.207354
 20
11.892706
 30
0.0
 11
8.761516
 21
11.632412
 31
0.0
  0
LINE
  5
140
100
AcDbEntity
  8
Layer_1
 62
7
100
AcDbLine
 10
8.761516
 20
11.632412
 30
0.0
 11
8.358601
 21
11.337208
 31
0.0
  0
LINE
  5
141
100
AcDbEntity
  8
Layer_1
 62
7
100
AcDbLine
 10
8.358601
 20
11.337208
 30
0.0
 11
8.002949
 21
11.591010
 31
0.0
  0
LINE
  5
142
100
AcDbEntity
  8
Layer_1
 62
7
100
AcDbLine
 10
8.002949
 20
11.591010
 30
0.0
 11
8.151089
 21
12.068022
 31
0.0
  0
LINE
  5
143
100
AcDbEntity
  8
Layer_1
 62
7
100
AcDbLine
 10
8.151089
 20
12.068022
 30
0.0
 11
8.252256
 21
12.574272
 31
0.0
  0
LINE
  5
144
100
AcDbEntity
  8
Layer_1
 62
7
100
AcDbLine
 10
8.252256
 20
12.574272
 30
0.0
 11
7.935760
 21
12.776372
 31
0.0
  0
LINE
  5
145
100
AcDbEntity
  8
Layer_1
 62
7
100
AcDbLine
 10
7.935760
 20
12.776372
 30
0.0
 11
7.519047
 21
12.471628
 31
0.0
  0
LINE
  5
146
100
AcDbEntity
  8
Layer_1
 62
7
100
AcDbLine
 10
7.519047
 20
12.471628
 30
0.0
 11
7.148621
 21
12.136574
 31
0.0
  0
LINE
  5
147
100
AcDbEntity
  8
Layer_1
 62
7
100
AcDbLine
 10
7.148621
 20
12.136574
 30
0.0
 11
6.768758
 21
12.352446
 31
0.0
  0
LINE
  5
148
100
AcDbEntity
  8
Layer_1
 62
7
100
AcDbLine
 10
6.768758
 20
12.352446
 30
0.0
 11
6.867065
 21
12.842158
 31
0.0
  0
LINE
  5
149
100
AcDbEntity
  8
Layer_1
 62
7
100
AcDbLine
 10
6.867065
 20
12.842158
 30
0.0
 11
6.915644
 21
13.356141
 31
0.0
  0
LINE
  5
14a
100
AcDbEntity
  8
Layer_1
 62
7
100
AcDbLine
 10
6.915644
 20
13.356141
 30
0.0
 11
6.580044
 21
13.524627
 31
0.0
  0
LINE
  5
14b
100
AcDbEntity
  8
Layer_1
 62
7
100
AcDbLine
 10
6.580044
 20
13.524627
 30
0.0
 11
6.196875
 21
13.178651
 31
0.0
  0
LINE
  5
14c
100
AcDbEntity
  8
Layer_1
 62
7
100
AcDbLine
 10
6.196875
 20
13.178651
 30
0.0
 11
5.862863
 21
12.807275
 31
0.0
  0
LINE
  5
14d
100
AcDbEntity
  8
Layer_1
 62
7
100
AcDbLine
 10
5.862863
 20
12.807275
 30
0.0
 11
5.462816
 21
12.982958
 31
0.0
  0
LINE
  5
14e
100
AcDbEntity
  8
Layer_1
 62
7
100
AcDbLine
 10
5.462816
 20
12.982958
 30
0.0
 11
5.510250
 21
13.480177
 31
0.0
  0
LINE
  5
14f
100
AcDbEntity
  8
Layer_1
 62
7
100
AcDbLine
 10
5.510250
 20
13.480177
 30
0.0
 11
5.505726
 21
13.996418
 31
0.0
  0
LINE
  5
150
100
AcDbEntity
  8
Layer_1
 62
7
100
AcDbLine
 10
5.505726
 20
13.996418
 30
0.0
 11
5.154579
 21
14.129514
 31
0.0
  0
LINE
  5
151
100
AcDbEntity
  8
Layer_1
 62
7
100
AcDbLine
 10
5.154579
 20
14.129514
 30
0.0
 11
4.809013
 21
13.745974
 31
0.0
  0
LINE
  5
152
100
AcDbEntity
  8
Layer_1
 62
7
100
AcDbLine
 10
4.809013
 20
13.745974
 30
0.0
 11
4.514955
 21
13.342227
 31
0.0
  0
LINE
  5
153
100
AcDbEntity
  8
Layer_1
 62
7
100
AcDbLine
 10
4.514955
 20
13.342227
 30
0.0
 11
4.098965
 21
13.475831
 31
0.0
  0
LINE
  5
154
100
AcDbEntity
  8
Layer_1
 62
7
100
AcDbLine
 10
4.098965
 20
13.475831
 30
0.0
 11
4.095025
 21
13.975308
 31
0.0
  0
LINE
  5
155
100
AcDbEntity
  8
Layer_1
 62
7
100
AcDbLine
 10
4.095025
 20
13.975308
 30
0.0
 11
4.037444
 21
14.488332
 31
0.0
  0
LINE
  5
156
100
AcDbEntity
  8
Layer_1
 62
7
100
AcDbLine
 10
4.037444
 20
14.488332
 30
0.0
 11
3.674474
 21
14.584626
 31
0.0
  0
LINE
  5
157
100
AcDbEntity
  8
Layer_1
 62
7
100
AcDbLine
 10
3.674474
 20
14.584626
 30
0.0
 11
3.370178
 21
14.167586
 31
0.0
  0
LINE
  5
158
100
AcDbEntity
  8
Layer_1
 62
7
100
AcDbLine
 10
3.370178
 20
14.167586
 30
0.0
 11
3.119193
 21
13.735730
 31
0.0
  0
LINE
  5
159
100
AcDbEntity
  8
Layer_1
 62
7
100
AcDbLine
 10
3.119193
 20
13.735730
 30
0.0
 11
2.691668
 21
13.825871
 31
0.0
  0
LINE
  5
15a
100
AcDbEntity
  8
Layer_1
 62
7
100
AcDbLine
 10
2.691668
 20
13.825871
 30
0.0
 11
2.636393
 21
14.322272
 31
0.0
  0
LINE
  5
15b
100
AcDbEntity
  8
Layer_1
 62
7
100
AcDbLine
 10
2.636393
 20
14.322272
 30
0.0
 11
2.526364
 21
14.826682
 31
0.0
  0
LINE
  5
15c
100
AcDbEntity
  8
Layer_1
 62
7
100
AcDbLine
 10
2.526364
 20
14.826682
 30
0.0
 11
2.155418
 21
14.885136
 31
0.0
  0
LINE
  5
15d
100
AcDbEntity
  8
Layer_1
 62
7
100
AcDbLine
 10
2.155418
 20
14.885136
 30
0.0
 11
1.895615
 21
14.439027
 31
0.0
  0
LINE
  5
15e
100
AcDbEntity
  8
Layer_1
 62
7
100
AcDbLine
 10
1.895615
 20
14.439027
 30
0.0
 11
1.690362
 21
13.983662
 31
0.0
  0
LINE
  5
15f
100
AcDbEntity
  8
Layer_1
 62
7
100
AcDbLine
 10
1.690362
 20
13.983662
 30
0.0
 11
1.255835
 21
14.029354
 31
0.0
  0
LINE
  5
160
100
AcDbEntity
  8
Layer_1
 62
7
100
AcDbLine
 10
1.255835
 20
14.029354
 30
0.0
 11
1.149810
 21
14.517457
 31
0.0
  0
LINE
  5
161
100
AcDbEntity
  8
Layer_1
 62
7
100
AcDbLine
 10
1.149810
 20
14.517457
 30
0.0
 11
0.988505
 21
15.007863
 31
0.0
  0
LINE
  5
162
100
AcDbEntity
  8
Layer_1
 62
7
100
AcDbLine
 10
0.988505
 20
15.007863
 30
0.0
 11
0.613514
 21
15.027873
 31
0.0
  0
LINE
  5
163
100
AcDbEntity
  8
Layer_1
 62
7
100
AcDbLine
 10
0.613514
 20
15.027873
 30
0.0
 11
0.400958
 21
14.557391
 31
0.0
  0
LINE
  5
164
100
AcDbEntity
  8
Layer_1
 62
7
100
AcDbLine
 10
0.400958
 20
14.557391
 30
0.0
 11
0.243616
 21
14.083343
 31
0.0
  0
LINE
  5
165
100
AcDbEntity
  8
Layer_1
 62
7
100
AcDbLine
 10
0.243616
 20
14.083343
 30
0.0
 11
-0.193307
 21
14.083343
 31
0.0
  0
LINE
  5
166
100
AcDbEntity
  8
Layer_1
 62
7
100
AcDbLine
 10
-0.193307
 20
14.083343
 30
0.0
 11
-0.348958
 21
14.557956
 31
0.0
  0
LINE
  5
167
100
AcDbEntity
  8
Layer_1
 62
7
100
AcDbLine
 10
-0.348958
 20
14.557956
 30
0.0
 11
-0.559833
 21
15.029185
 31
0.0
  0
LINE
  5
168
100
AcDbEntity
  8
Layer_1
 62
7
100
AcDbLine
 10
-0.559833
 20
15.029185
 30
0.0
 11
-0.934893
 21
15.010530
 31
0.0
  0
LINE
  5
169
100
AcDbEntity
  8
Layer_1
 62
7
100
AcDbLine
 10
-0.934893
 20
15.010530
 30
0.0
 11
-1.097947
 21
14.520703
 31
0.0
  0
LINE
  5
16a
100
AcDbEntity
  8
Layer_1
 62
7
100
AcDbLine
 10
-1.097947
 20
14.520703
 30
0.0
 11
-1.205716
 21
14.032994
 31
0.0
  0
LINE
  5
16b
100
AcDbEntity
  8
Layer_1
 62
7
100
AcDbLine
 10
-1.205716
 20
14.032994
 30
0.0
 11
-1.640402
 21
13.988827
 31
0.0
  0
LINE
  5
16c
100
AcDbEntity
  8
Layer_1
 62
7
100
AcDbLine
 10
-1.640402
 20
13.988827
 30
0.0
 11
-1.844027
 21
14.444926
 31
0.0
  0
LINE
  5
16d
100
AcDbEntity
  8
Layer_1
 62
7
100
AcDbLine
 10
-1.844027
 20
14.444926
 30
0.0
 11
-2.102236
 21
14.891972
 31
0.0
  0
LINE
  5
16e
100
AcDbEntity
  8
Layer_1
 62
7
100
AcDbLine
 10
-2.102236
 20
14.891972
 30
0.0
 11
-2.473389
 21
14.834844
 31
0.0
  0
LINE
  5
16f
100
AcDbEntity
  8
Layer_1
 62
7
100
AcDbLine
 10
-2.473389
 20
14.834844
 30
0.0
 11
-2.585217
 21
14.330852
 31
0.0
  0
LINE
  5
170
100
AcDbEntity
  8
Layer_1
 62
7
100
AcDbLine
 10
-2.585217
 20
14.330852
 30
0.0
 11
-2.642264
 21
13.834620
 31
0.0
  0
LINE
  5
171
100
AcDbEntity
  8
Layer_1
 62
7
100
AcDbLine
 10
-2.642264
 20
13.834620
 30
0.0
 11
-3.070107
 21
13.746031
 31
0.0
  0
LINE
  5
172
100
AcDbEntity
  8
Layer_1
 62
7
100
AcDbLine
 10
-3.070107
 20
13.746031
 30
0.0
 11
-3.319549
 21
14.178762
 31
0.0
  0
LINE
  5
173
100
AcDbEntity
  8
Layer_1
 62
7
100
AcDbLine
 10
-3.319549
 20
14.178762
 30
0.0
 11
-3.622356
 21
14.596874
 31
0.0
  0
LINE
  5
174
100
AcDbEntity
  8
Layer_1
 62
7
100
AcDbLine
 10
-3.622356
 20
14.596874
 30
0.0
 11
-3.985667
 21
14.501907
 31
0.0
  0
LINE
  5
175
100
AcDbEntity
  8
Layer_1
 62
7
100
AcDbLine
 10
-3.985667
 20
14.501907
 30
0.0
 11
-4.045081
 21
13.989081
 31
0.0
  0
LINE
  5
176
100
AcDbEntity
  8
Layer_1
 62
7
100
AcDbLine
 10
-4.045081
 20
13.989081
 30
0.0
 11
-4.050804
 21
13.489632
 31
0.0
  0
LINE
  5
177
100
AcDbEntity
  8
Layer_1
 62
7
100
AcDbLine
 10
-4.050804
 20
13.489632
 30
0.0
 11
-4.467270
 21
13.357495
 31
0.0
  0
LINE
  5
178
100
AcDbEntity
  8
Layer_1
 62
7
100
AcDbLine
 10
-4.467270
 20
13.357495
 30
0.0
 11
-4.759883
 21
13.762287
 31
0.0
  0
LINE
  5
179
100
AcDbEntity
  8
Layer_1
 62
7
100
AcDbLine
 10
-4.759883
 20
13.762287
 30
0.0
 11
-5.104075
 21
14.147069
 31
0.0
  0
LINE
  5
17a
100
AcDbEntity
  8
Layer_1
 62
7
100
AcDbLine
 10
-5.104075
 20
14.147069
 30
0.0
 11
-5.455695
 21
14.015214
 31
0.0
  0
LINE
  5
17b
100
AcDbEntity
  8
Layer_1
 62
7
100
AcDbLine
 10
-5.455695
 20
14.015214
 30
0.0
 11
-5.462065
 21
13.499002
 31
0.0
  0
LINE
  5
17c
100
AcDbEntity
  8
Layer_1
 62
7
100
AcDbLine
 10
-5.462065
 20
13.499002
 30
0.0
 11
-5.416406
 21
13.001613
 31
0.0
  0
LINE
  5
17d
100
AcDbEntity
  8
Layer_1
 62
7
100
AcDbLine
 10
-5.416406
 20
13.001613
 30
0.0
 11
-5.817079
 21
12.827369
 31
0.0
  0
LINE
  5
17e
100
AcDbEntity
  8
Layer_1
 62
7
100
AcDbLine
 10
-5.817079
 20
12.827369
 30
0.0
 11
-6.149761
 21
13.199931
 31
0.0
  0
LINE
  5
17f
100
AcDbEntity
  8
Layer_1
 62
7
100
AcDbLine
 10
-6.149761
 20
13.199931
 30
0.0
 11
-6.531694
 21
13.547262
 31
0.0
  0
LINE
  5
180
100
AcDbEntity
  8
Layer_1
 62
7
100
AcDbLine
 10
-6.531694
 20
13.547262
 30
0.0
 11
-6.867894
 21
13.379960
 31
0.0
  0
LINE
  5
181
100
AcDbEntity
  8
Layer_1
 62
7
100
AcDbLine
 10
-6.867894
 20
13.379960
 30
0.0
 11
-6.821151
 21
12.865836
 31
0.0
  0
LINE
  5
182
100
AcDbEntity
  8
Layer_1
 62
7
100
AcDbLine
 10
-6.821151
 20
12.865836
 30
0.0
 11
-6.724590
 21
12.375785
 31
0.0
  0
LINE
  5
183
100
AcDbEntity
  8
Layer_1
 62
7
100
AcDbLine
 10
-6.724590
 20
12.375785
 30
0.0
 11
-7.105224
 21
12.161240
 31
0.0
  0
LINE
  5
184
100
AcDbEntity
  8
Layer_1
 62
7
100
AcDbLine
 10
-7.105224
 20
12.161240
 30
0.0
 11
-7.474450
 21
12.497621
 31
0.0
  0
LINE
  5
185
100
AcDbEntity
  8
Layer_1
 62
7
100
AcDbLine
 10
-7.474450
 20
12.497621
 30
0.0
 11
-7.890072
 21
12.803860
 31
0.0
  0
LINE
  5
186
100
AcDbEntity
  8
Layer_1
 62
7
100
AcDbLine
 10
-7.890072
 20
12.803860
 30
0.0
 11
-8.207289
 21
12.602890
 31
0.0
  0
LINE
  5
187
100
AcDbEntity
  8
Layer_1
 62
7
100
AcDbLine
 10
-8.207289
 20
12.602890
 30
0.0
 11
-8.107929
 21
12.096301
 31
0.0
  0
LINE
  5
188
100
AcDbEntity
  8
Layer_1
 62
7
100
AcDbLine
 10
-8.107929
 20
12.096301
 30
0.0
 11
-7.961495
 21
11.618753
 31
0.0
  0
LINE
  5
189
100
AcDbEntity
  8
Layer_1
 62
7
100
AcDbLine
 10
-7.961495
 20
11.618753
 30
0.0
 11
-8.318052
 21
11.366220
 31
0.0
  0
LINE
  5
18a
100
AcDbEntity
  8
Layer_1
 62
7
100
AcDbLine
 10
-8.318052
 20
11.366220
 30
0.0
 11
-8.719907
 21
11.662864
 31
0.0
  0
LINE
  5
18b
100
AcDbEntity
  8
Layer_1
 62
7
100
AcDbLine
 10
-8.719907
 20
11.662864
 30
0.0
 11
-9.164813
 21
11.924738
 31
0.0
  0
LINE
  5
18c
100
AcDbEntity
  8
Layer_1
 62
7
100
AcDbLine
 10
-9.164813
 20
11.924738
 30
0.0
 11
-9.459687
 21
11.692215
 31
0.0
  0
LINE
  5
18d
100
AcDbEntity
  8
Layer_1
 62
7
100
AcDbLine
 10
-9.459687
 20
11.692215
 30
0.0
 11
-9.308763
 21
11.198495
 31
0.0
  0
LINE
  5
18e
100
AcDbEntity
  8
Layer_1
 62
7
100
AcDbLine
 10
-9.308763
 20
11.198495
 30
0.0
 11
-9.114004
 21
10.738558
 31
0.0
  0
LINE
  5
18f
100
AcDbEntity
  8
Layer_1
 62
7
100
AcDbLine
 10
-9.114004
 20
10.738558
 30
0.0
 11
-9.442707
 21
10.450719
 31
0.0
  0
LINE
  5
190
100
AcDbEntity
  8
Layer_1
 62
7
100
AcDbLine
 10
-9.442707
 20
10.450719
 30
0.0
 11
-9.872934
 21
10.704437
 31
0.0
  0
LINE
  5
191
100
AcDbEntity
  8
Layer_1
 62
7
100
AcDbLine
 10
-9.872934
 20
10.704437
 30
0.0
 11
-10.342407
 21
10.919208
 31
0.0
  0
LINE
  5
192
100
AcDbEntity
  8
Layer_1
 62
7
100
AcDbLine
 10
-10.342407
 20
10.919208
 30
0.0
 11
-10.611807
 21
10.657588
 31
0.0
  0
LINE
  5
193
100
AcDbEntity
  8
Layer_1
 62
7
100
AcDbLine
 10
-10.611807
 20
10.657588
 30
0.0
 11
-10.410924
 21
10.182016
 31
0.0
  0
LINE
  5
194
100
AcDbEntity
  8
Layer_1
 62
7
100
AcDbLine
 10
-10.410924
 20
10.182016
 30
0.0
 11
-10.169904
 21
9.744515
 31
0.0
  0
LINE
  5
195
100
AcDbEntity
  8
Layer_1
 62
7
100
AcDbLine
 10
-10.169904
 20
9.744515
 30
0.0
 11
-10.467266
 21
9.424418
 31
0.0
  0
LINE
  5
196
100
AcDbEntity
  8
Layer_1
 62
7
100
AcDbLine
 10
-10.467266
 20
9.424418
 30
0.0
 11
-10.921304
 21
9.632557
 31
0.0
  0
LINE
  5
197
100
AcDbEntity
  8
Layer_1
 62
7
100
AcDbLine
 10
-10.921304
 20
9.632557
 30
0.0
 11
-11.410371
 21
9.797911
 31
0.0
  0
LINE
  5
198
100
AcDbEntity
  8
Layer_1
 62
7
100
AcDbLine
 10
-11.410371
 20
9.797911
 30
0.0
 11
-11.651439
 21
9.509960
 31
0.0
  0
LINE
  5
199
100
AcDbEntity
  8
Layer_1
 62
7
100
AcDbLine
 10
-11.651439
 20
9.509960
 30
0.0
 11
-11.402723
 21
9.057586
 31
0.0
  0
LINE
  5
19a
100
AcDbEntity
  8
Layer_1
 62
7
100
AcDbLine
 10
-11.402723
 20
9.057586
 30
0.0
 11
-11.117997
 21
8.647207
 31
0.0
  0
LINE
  5
19b
100
AcDbEntity
  8
Layer_1
 62
7
100
AcDbLine
 10
-11.117997
 20
8.647207
 30
0.0
 11
-11.380867
 21
8.298211
 31
0.0
  0
LINE
  5
19c
100
AcDbEntity
  8
Layer_1
 62
7
100
AcDbLine
 10
-11.380867
 20
8.298211
 30
0.0
 11
-11.853903
 21
8.458569
 31
0.0
  0
LINE
  5
19d
100
AcDbEntity
  8
Layer_1
 62
7
100
AcDbLine
 10
-11.853903
 20
8.458569
 30
0.0
 11
-12.357376
 21
8.572728
 31
0.0
  0
LINE
  5
19e
100
AcDbEntity
  8
Layer_1
 62
7
100
AcDbLine
 10
-12.357376
 20
8.572728
 30
0.0
 11
-12.567567
 21
8.261550
 31
0.0
  0
LINE
  5
19f
100
AcDbEntity
  8
Layer_1
 62
7
100
AcDbLine
 10
-12.567567
 20
8.261550
 30
0.0
 11
-12.273649
 21
7.837144
 31
0.0
  0
LINE
  5
1a0
100
AcDbEntity
  8
Layer_1
 62
7
100
AcDbLine
 10
-12.273649
 20
7.837144
 30
0.0
 11
-11.948238
 21
7.458204
 31
0.0
  0
LINE
  5
1a1
100
AcDbEntity
  8
Layer_1
 62
7
100
AcDbLine
 10
-11.948238
 20
7.458204
 30
0.0
 11
-12.173833
 21
7.084006
 31
0.0
  0
LINE
  5
1a2
100
AcDbEntity
  8
Layer_1
 62
7
100
AcDbLine
 10
-12.173833
 20
7.084006
 30
0.0
 11
-12.660850
 21
7.194891
 31
0.0
  0
LINE
  5
1a3
100
AcDbEntity
  8
Layer_1
 62
7
100
AcDbLine
 10
-12.660850
 20
7.194891
 30
0.0
 11
-13.173393
 21
7.256698
 31
0.0
  0
LINE
  5
1a4
100
AcDbEntity
  8
Layer_1
 62
7
100
AcDbLine
 10
-13.173393
 20
7.256698
 30
0.0
 11
-13.350474
 21
6.925538
 31
0.0
  0
LINE
  5
1a5
100
AcDbEntity
  8
Layer_1
 62
7
100
AcDbLine
 10
-13.350474
 20
6.925538
 30
0.0
 11
-13.014474
 21
6.533588
 31
0.0
  0
LINE
  5
1a6
100
AcDbEntity
  8
Layer_1
 62
7
100
AcDbLine
 10
-13.014474
 20
6.533588
 30
0.0
 11
-12.651827
 21
6.190123
 31
0.0
  0
LINE
  5
1a7
100
AcDbEntity
  8
Layer_1
 62
7
100
AcDbLine
 10
-12.651827
 20
6.190123
 30
0.0
 11
-12.837752
 21
5.794758
 31
0.0
  0
LINE
  5
1a8
100
AcDbEntity
  8
Layer_1
 62
7
100
AcDbLine
 10
-12.837752
 20
5.794758
 30
0.0
 11
-13.333588
 21
5.854956
 31
0.0
  0
LINE
  5
1a9
100
AcDbEntity
  8
Layer_1
 62
7
100
AcDbLine
 10
-13.333588
 20
5.854956
 30
0.0
 11
-13.849770
 21
5.863705
 31
0.0
  0
LINE
  5
1aa
100
AcDbEntity
  8
Layer_1
 62
7
100
AcDbLine
 10
-13.849770
 20
5.863705
 30
0.0
 11
-13.991863
 21
5.516092
 31
0.0
  0
LINE
  5
1ab
100
AcDbEntity
  8
Layer_1
 62
7
100
AcDbLine
 10
-13.991863
 20
5.516092
 30
0.0
 11
-13.617343
 21
5.160774
 31
0.0
  0
LINE
  5
1ac
100
AcDbEntity
  8
Layer_1
 62
7
100
AcDbLine
 10
-13.617343
 20
5.160774
 30
0.0
 11
-13.221301
 21
4.856426
 31
0.0
  0
LINE
  5
1ad
100
AcDbEntity
  8
Layer_1
 62
7
100
AcDbLine
 10
-13.221301
 20
4.856426
 30
0.0
 11
-13.365587
 21
4.444015
 31
0.0
  0
LINE
  5
1ae
100
AcDbEntity
  8
Layer_1
 62
7
100
AcDbLine
 10
-13.365587
 20
4.444015
 30
0.0
 11
-13.864987
 21
4.453046
 31
0.0
  0
LINE
  5
1af
100
AcDbEntity
  8
Layer_1
 62
7
100
AcDbLine
 10
-13.864987
 20
4.453046
 30
0.0
 11
-14.379335
 21
4.408680
 31
0.0
  0
LINE
  5
1b0
100
AcDbEntity
  8
Layer_1
 62
7
100
AcDbLine
 10
-14.379335
 20
4.408680
 30
0.0
 11
-14.484931
 21
4.048311
 31
0.0
  0
LINE
  5
1b1
100
AcDbEntity
  8
Layer_1
 62
7
100
AcDbLine
 10
-14.484931
 20
4.048311
 30
0.0
 11
-14.075864
 21
3.733379
 31
0.0
  0
LINE
  5
1b2
100
AcDbEntity
  8
Layer_1
 62
7
100
AcDbLine
 10
-14.075864
 20
3.733379
 30
0.0
 11
-13.650625
 21
3.471364
 31
0.0
  0
LINE
  5
1b3
100
AcDbEntity
  8
Layer_1
 62
7
100
AcDbLine
 10
-13.650625
 20
3.471364
 30
0.0
 11
-13.751740
 21
3.046309
 31
0.0
  0
LINE
  5
1b4
100
AcDbEntity
  8
Layer_1
 62
7
100
AcDbLine
 10
-13.751740
 20
3.046309
 30
0.0
 11
-14.249414
 21
3.003835
 31
0.0
  0
LINE
  5
1b5
100
AcDbEntity
  8
Layer_1
 62
7
100
AcDbLine
 10
-14.249414
 20
3.003835
 30
0.0
 11
-14.756474
 21
2.906835
 31
0.0
  0
LINE
  5
1b6
100
AcDbEntity
  8
Layer_1
 62
7
100
AcDbLine
 10
-14.756474
 20
2.906835
 30
0.0
 11
-14.824455
 21
2.537519
 31
0.0
  0
LINE
  5
1b7
100
AcDbEntity
  8
Layer_1
 62
7
100
AcDbLine
 10
-14.824455
 20
2.537519
 30
0.0
 11
-14.385177
 21
2.266303
 31
0.0
  0
LINE
  5
1b8
100
AcDbEntity
  8
Layer_1
 62
7
100
AcDbLine
 10
-14.385177
 20
2.266303
 30
0.0
 11
-13.935252
 21
2.049387
 31
0.0
  0
LINE
  5
1b9
100
AcDbEntity
  8
Layer_1
 62
7
100
AcDbLine
 10
-13.935252
 20
2.049387
 30
0.0
 11
-13.992126
 21
1.616176
 31
0.0
  0
LINE
  5
1ba
100
AcDbEntity
  8
Layer_1
 62
7
100
AcDbLine
 10
-13.992126
 20
1.616176
 30
0.0
 11
-14.482792
 21
1.522761
 31
0.0
  0
LINE
  5
1bb
100
AcDbEntity
  8
Layer_1
 62
7
100
AcDbLine
 10
-14.482792
 20
1.522761
 30
0.0
 11
-14.977191
 21
1.374142
 31
0.0
  0
LINE
  5
1bc
100
AcDbEntity
  8
Layer_1
 62
7
100
AcDbLine
 10
-14.977191
 20
1.374142
 30
0.0
 11
-15.006842
 21
0.999803
 31
0.0
  0
LINE
  5
1bd
100
AcDbEntity
  8
Layer_1
 62
7
100
AcDbLine
 10
-15.006842
 20
0.999803
 30
0.0
 11
-14.542002
 21
0.775182
 31
0.0
  0
LINE
  5
1be
100
AcDbEntity
  8
Layer_1
 62
7
100
AcDbLine
 10
-14.542002
 20
0.775182
 30
0.0
 11
-14.072158
 21
0.605679
 31
0.0
  0
LINE
  5
1bf
100
AcDbEntity
  8
Layer_1
 62
7
100
AcDbLine
 10
-14.072158
 20
0.605679
 30
0.0
 11
-14.084181
 21
0.168941
 31
0.0
  0
LINE
  5
1c0
100
AcDbEntity
  8
Layer_1
 62
7
100
AcDbLine
 10
-14.084181
 20
0.168941
 30
0.0
 11
-14.562644
 21
0.025543
 31
0.0
  0
LINE
  5
1c1
100
AcDbEntity
  8
Layer_1
 62
7
100
AcDbLine
 10
-14.562644
 20
0.025543
 30
0.0
 11
-15.039139
 21
-0.173113
 31
0.0
  0
LINE
  5
1c2
100
AcDbEntity
  8
Layer_1
 62
7
100
AcDbLine
 10
-15.039139
 20
-0.173113
 30
0.0
 11
-15.030136
 21
-0.548525
 31
0.0
  0
LINE
  5
1c3
100
AcDbEntity
  8
Layer_1
 62
7
100
AcDbLine
 10
-15.030136
 20
-0.548525
 30
0.0
 11
-14.544666
 21
-0.724152
 31
0.0
  0
LINE
  5
1c4
100
AcDbEntity
  8
Layer_1
 62
7
100
AcDbLine
 10
-14.544666
 20
-0.724152
 30
0.0
 11
-14.059887
 21
-0.844435
 31
0.0
  0
LINE
  5
1c5
100
AcDbEntity
  8
Layer_1
 62
7
100
AcDbLine
 10
-14.059887
 20
-0.844435
 30
0.0
 11
-14.026943
 21
-1.280101
 31
0.0
  0
LINE
  5
1c6
100
AcDbEntity
  8
Layer_1
 62
7
100
AcDbLine
 10
-14.026943
 20
-1.280101
 30
0.0
 11
-14.488126
 21
-1.471928
 31
0.0
  0
LINE
  5
1c7
100
AcDbEntity
  8
Layer_1
 62
7
100
AcDbLine
 10
-14.488126
 20
-1.471928
 30
0.0
 11
-14.941671
 21
-1.718533
 31
0.0
  0
LINE
  5
1c8
100
AcDbEntity
  8
Layer_1
 62
7
100
AcDbLine
 10
-14.941671
 20
-1.718533
 30
0.0
 11
-14.894119
 21
-2.091039
 31
0.0
  0
LINE
  5
1c9
100
AcDbEntity
  8
Layer_1
 62
7
100
AcDbLine
 10
-14.894119
 20
-2.091039
 30
0.0
 11
-14.393166
 21
-2.215809
 31
0.0
  0
LINE
  5
1ca
100
AcDbEntity
  8
Layer_1
 62
7
100
AcDbLine
 10
-14.393166
 20
-2.215809
 30
0.0
 11
-13.898589
 21
-2.285603
 31
0.0
  0
LINE
  5
1cb
100
AcDbEntity
  8
Layer_1
 62
7
100
AcDbLine
 10
-13.898589
 20
-2.285603
 30
0.0
 11
-13.821023
 21
-2.715596
 31
0.0
  0
LINE
  5
1cc
100
AcDbEntity
  8
Layer_1
 62
7
100
AcDbLine
 10
-13.821023
 20
-2.715596
 30
0.0
 11
-14.260039
 21
-2.953820
 31
0.0
  0
LINE
  5
1cd
100
AcDbEntity
  8
Layer_1
 62
7
100
AcDbLine
 10
-14.260039
 20
-2.953820
 30
0.0
 11
-14.685819
 21
-3.245751
 31
0.0
  0
LINE
  5
1ce
100
AcDbEntity
  8
Layer_1
 62
7
100
AcDbLine
 10
-14.685819
 20
-3.245751
 30
0.0
 11
-14.600221
 21
-3.611398
 31
0.0
  0
LINE
  5
1cf
100
AcDbEntity
  8
Layer_1
 62
7
100
AcDbLine
 10
-14.600221
 20
-3.611398
 30
0.0
 11
-14.089094
 21
-3.683985
 31
0.0
  0
LINE
  5
1d0
100
AcDbEntity
  8
Layer_1
 62
7
100
AcDbLine
 10
-14.089094
 20
-3.683985
 30
0.0
 11
-13.589959
 21
-3.702612
 31
0.0
  0
LINE
  5
1d1
100
AcDbEntity
  8
Layer_1
 62
7
100
AcDbLine
 10
-13.589959
 20
-3.702612
 30
0.0
 11
-13.468595
 21
-4.122333
 31
0.0
  0
LINE
  5
1d2
100
AcDbEntity
  8
Layer_1
 62
7
100
AcDbLine
 10
-13.468595
 20
-4.122333
 30
0.0
 11
-13.880789
 21
-4.404414
 31
0.0
  0
LINE
  5
1d3
100
AcDbEntity
  8
Layer_1
 62
7
100
AcDbLine
 10
-13.880789
 20
-4.404414
 30
0.0
 11
-14.274300
 21
-4.738593
 31
0.0
  0
LINE
  5
1d4
100
AcDbEntity
  8
Layer_1
 62
7
100
AcDbLine
 10
-14.274300
 20
-4.738593
 30
0.0
 11
-14.151559
 21
-5.093488
 31
0.0
  0
LINE
  5
1d5
100
AcDbEntity
  8
Layer_1
 62
7
100
AcDbLine
 10
-14.151559
 20
-5.093488
 30
0.0
 11
-13.635676
 21
-5.113243
 31
0.0
  0
LINE
  5
1d6
100
AcDbEntity
  8
Layer_1
 62
7
100
AcDbLine
 10
-13.635676
 20
-5.113243
 30
0.0
 11
-13.137275
 21
-5.080393
 31
0.0
  0
LINE
  5
1d7
100
AcDbEntity
  8
Layer_1
 62
7
100
AcDbLine
 10
-13.137275
 20
-5.080393
 30
0.0
 11
-12.973397
 21
-5.485410
 31
0.0
  0
LINE
  5
1d8
100
AcDbEntity
  8
Layer_1
 62
7
100
AcDbLine
 10
-12.973397
 20
-5.485410
 30
0.0
 11
-13.354402
 21
-5.808413
 31
0.0
  0
LINE
  5
1d9
100
AcDbEntity
  8
Layer_1
 62
7
100
AcDbLine
 10
-13.354402
 20
-5.808413
 30
0.0
 11
-13.711464
 21
-6.181257
 31
0.0
  0
LINE
  5
1da
100
AcDbEntity
  8
Layer_1
 62
7
100
AcDbLine
 10
-13.711464
 20
-6.181257
 30
0.0
 11
-13.552883
 21
-6.521673
 31
0.0
  0
LINE
  5
1db
100
AcDbEntity
  8
Layer_1
 62
7
100
AcDbLine
 10
-13.552883
 20
-6.521673
 30
0.0
 11
-13.037718
 21
-6.488174
 31
0.0
  0
LINE
  5
1dc
100
AcDbEntity
  8
Layer_1
 62
7
100
AcDbLine
 10
-13.037718
 20
-6.488174
 30
0.0
 11
-12.545333
 21
-6.404269
 31
0.0
  0
LINE
  5
1dd
100
AcDbEntity
  8
Layer_1
 62
7
100
AcDbLine
 10
-12.545333
 20
-6.404269
 30
0.0
 11
-12.340680
 21
-6.790293
 31
0.0
  0
LINE
  5
1de
100
AcDbEntity
  8
Layer_1
 62
7
100
AcDbLine
 10
-12.340680
 20
-6.790293
 30
0.0
 11
-12.686456
 21
-7.150747
 31
0.0
  0
LINE
  5
1df
100
AcDbEntity
  8
Layer_1
 62
7
100
AcDbLine
 10
-12.686456
 20
-7.150747
 30
0.0
 11
-13.003287
 21
-7.558332
 31
0.0
  0
LINE
  5
1e0
100
AcDbEntity
  8
Layer_1
 62
7
100
AcDbLine
 10
-13.003287
 20
-7.558332
 30
0.0
 11
-12.810546
 21
-7.880630
 31
0.0
  0
LINE
  5
1e1
100
AcDbEntity
  8
Layer_1
 62
7
100
AcDbLine
 10
-12.810546
 20
-7.880630
 30
0.0
 11
-12.301550
 21
-7.794326
 31
0.0
  0
LINE
  5
1e2
100
AcDbEntity
  8
Layer_1
 62
7
100
AcDbLine
 10
-12.301550
 20
-7.794326
 30
0.0
 11
-11.820406
 21
-7.660243
 31
0.0
  0
LINE
  5
1e3
100
AcDbEntity
  8
Layer_1
 62
7
100
AcDbLine
 10
-11.820406
 20
-7.660243
 30
0.0
 11
-11.577144
 21
-8.023180
 31
0.0
  0
LINE
  5
1e4
100
AcDbEntity
  8
Layer_1
 62
7
100
AcDbLine
 10
-11.577144
 20
-8.023180
 30
0.0
 11
-11.884024
 21
-8.417275
 31
0.0
  0
LINE
  5
1e5
100
AcDbEntity
  8
Layer_1
 62
7
100
AcDbLine
 10
-11.884024
 20
-8.417275
 30
0.0
 11
-12.157272
 21
-8.855284
 31
0.0
  0
LINE
  5
1e6
100
AcDbEntity
  8
Layer_1
 62
7
100
AcDbLine
 10
-12.157272
 20
-8.855284
 30
0.0
 11
-11.932411
 21
-9.156049
 31
0.0
  0
LINE
  5
1e7
100
AcDbEntity
  8
Layer_1
 62
7
100
AcDbLine
 10
-11.932411
 20
-9.156049
 30
0.0
 11
-11.434986
 21
-9.017901
 31
0.0
  0
LINE
  5
1e8
100
AcDbEntity
  8
Layer_1
 62
7
100
AcDbLine
 10
-11.434986
 20
-9.017901
 30
0.0
 11
-10.970180
 21
-8.835049
 31
0.0
  0
LINE
  5
1e9
100
AcDbEntity
  8
Layer_1
 62
7
100
AcDbLine
 10
-10.970180
 20
-8.835049
 30
0.0
 11
-10.690889
 21
-9.171035
 31
0.0
  0
LINE
  5
1ea
100
AcDbEntity
  8
Layer_1
 62
7
100
AcDbLine
 10
-10.690889
 20
-9.171035
 30
0.0
 11
-10.955623
 21
-9.594594
 31
0.0
  0
LINE
  5
1eb
100
AcDbEntity
  8
Layer_1
 62
7
100
AcDbLine
 10
-10.955623
 20
-9.594594
 30
0.0
 11
-11.182383
 21
-10.058398
 31
0.0
  0
LINE
  5
1ec
100
AcDbEntity
  8
Layer_1
 62
7
100
AcDbLine
 10
-11.182383
 20
-10.058398
 30
0.0
 11
-10.927792
 21
-10.334439
 31
0.0
  0
LINE
  5
1ed
100
AcDbEntity
  8
Layer_1
 62
7
100
AcDbLine
 10
-10.927792
 20
-10.334439
 30
0.0
 11
-10.447209
 21
-10.145858
 31
0.0
  0
LINE
  5
1ee
100
AcDbEntity
  8
Layer_1
 62
7
100
AcDbLine
 10
-10.447209
 20
-10.145858
 30
0.0
 11
-10.003667
 21
-9.916186
 31
0.0
  0
LINE
  5
1ef
100
AcDbEntity
  8
Layer_1
 62
7
100
AcDbLine
 10
-10.003667
 20
-9.916186
 30
0.0
 11
-9.691307
 21
-10.221691
 31
0.0
  0
LINE
  5
1f0
100
AcDbEntity
  8
Layer_1
 62
7
100
AcDbLine
 10
-9.691307
 20
-10.221691
 30
0.0
 11
-9.911090
 21
-10.670227
 31
0.0
  0
LINE
  5
1f1
100
AcDbEntity
  8
Layer_1
 62
7
100
AcDbLine
 10
-9.911090
 20
-10.670227
 30
0.0
 11
-10.088959
 21
-11.154859
 31
0.0
  0
LINE
  5
1f2
100
AcDbEntity
  8
Layer_1
 62
7
100
AcDbLine
 10
-10.088959
 20
-11.154859
 30
0.0
 11
-9.807336
 21
-11.403271
 31
0.0
  0
LINE
  5
1f3
100
AcDbEntity
  8
Layer_1
 62
7
100
AcDbLine
 10
-9.807336
 20
-11.403271
 30
0.0
 11
-9.348687
 21
-11.166289
 31
0.0
  0
LINE
  5
1f4
100
AcDbEntity
  8
Layer_1
 62
7
100
AcDbLine
 10
-9.348687
 20
-11.166289
 30
0.0
 11
-8.931112
 21
-10.892223
 31
0.0
  0
LINE
  5
1f5
100
AcDbEntity
  8
Layer_1
 62
7
100
AcDbLine
 10
-8.931112
 20
-10.892223
 30
0.0
 11
-8.588996
 21
-11.163975
 31
0.0
  0
LINE
  5
1f6
100
AcDbEntity
  8
Layer_1
 62
7
100
AcDbLine
 10
-8.588996
 20
-11.163975
 30
0.0
 11
-8.761496
 21
-11.632746
 31
0.0
  0
LINE
  5
1f7
100
AcDbEntity
  8
Layer_1
 62
7
100
AcDbLine
 10
-8.761496
 20
-11.632746
 30
0.0
 11
-8.888590
 21
-12.133098
 31
0.0
  0
LINE
  5
1f8
100
AcDbEntity
  8
Layer_1
 62
7
100
AcDbLine
 10
-8.888590
 20
-12.133098
 30
0.0
 11
-8.582917
 21
-12.351227
 31
0.0
  0
LINE
  5
1f9
100
AcDbEntity
  8
Layer_1
 62
7
100
AcDbLine
 10
-8.582917
 20
-12.351227
 30
0.0
 11
-8.151070
 21
-12.068356
 31
0.0
  0
LINE
  5
1fa
100
AcDbEntity
  8
Layer_1
 62
7
100
AcDbLine
 10
-8.151070
 20
-12.068356
 30
0.0
 11
-7.763886
 21
-11.752803
 31
0.0
  0
LINE
  5
1fb
100
AcDbEntity
  8
Layer_1
 62
7
100
AcDbLine
 10
-7.763886
 20
-11.752803
 30
0.0
 11
-7.395638
 21
-11.987951
 31
0.0
  0
LINE
  5
1fc
100
AcDbEntity
  8
Layer_1
 62
7
100
AcDbLine
 10
-7.395638
 20
-11.987951
 30
0.0
 11
-7.519028
 21
-12.471962
 31
0.0
  0
LINE
  5
1fd
100
AcDbEntity
  8
Layer_1
 62
7
100
AcDbLine
 10
-7.519028
 20
-12.471962
 30
0.0
 11
-7.593999
 21
-12.982728
 31
0.0
  0
LINE
  5
1fe
100
AcDbEntity
  8
Layer_1
 62
7
100
AcDbLine
 10
-7.593999
 20
-12.982728
 30
0.0
 11
-7.267518
 21
-13.168289
 31
0.0
  0
LINE
  5
1ff
100
AcDbEntity
  8
Layer_1
 62
7
100
AcDbLine
 10
-7.267518
 20
-13.168289
 30
0.0
 11
-6.867045
 21
-12.842492
 31
0.0
  0
LINE
  5
200
100
AcDbEntity
  8
Layer_1
 62
7
100
AcDbLine
 10
-6.867045
 20
-12.842492
 30
0.0
 11
-6.514357
 21
-12.488811
 31
0.0
  0
LINE
  5
201
100
AcDbEntity
  8
Layer_1
 62
7
100
AcDbLine
 10
-6.514357
 20
-12.488811
 30
0.0
 11
-6.123886
 21
-12.684842
 31
0.0
  0
LINE
  5
202
100
AcDbEntity
  8
Layer_1
 62
7
100
AcDbLine
 10
-6.123886
 20
-12.684842
 30
0.0
 11
-6.196855
 21
-13.178957
 31
0.0
  0
LINE
  5
203
100
AcDbEntity
  8
Layer_1
 62
7
100
AcDbLine
 10
-6.196855
 20
-13.178957
 30
0.0
 11
-6.218911
 21
-13.694746
 31
0.0
  0
LINE
  5
204
100
AcDbEntity
  8
Layer_1
 62
7
100
AcDbLine
 10
-6.218911
 20
-13.694746
 30
0.0
 11
-5.875081
 21
-13.845735
 31
0.0
  0
LINE
  5
205
100
AcDbEntity
  8
Layer_1
 62
7
100
AcDbLine
 10
-5.875081
 20
-13.845735
 30
0.0
 11
-5.510230
 21
-13.480511
 31
0.0
  0
LINE
  5
206
100
AcDbEntity
  8
Layer_1
 62
7
100
AcDbLine
 10
-5.510230
 20
-13.480511
 30
0.0
 11
-5.195778
 21
-13.092428
 31
0.0
  0
LINE
  5
207
100
AcDbEntity
  8
Layer_1
 62
7
100
AcDbLine
 10
-5.195778
 20
-13.092428
 30
0.0
 11
-4.787218
 21
-13.247283
 31
0.0
  0
LINE
  5
208
100
AcDbEntity
  8
Layer_1
 62
7
100
AcDbLine
 10
-4.787218
 20
-13.247283
 30
0.0
 11
-4.808991
 21
-13.746280
 31
0.0
  0
LINE
  5
209
100
AcDbEntity
  8
Layer_1
 62
7
100
AcDbLine
 10
-4.808991
 20
-13.746280
 30
0.0
 11
-4.777899
 21
-14.261618
 31
0.0
  0
LINE
  5
20a
100
AcDbEntity
  8
Layer_1
 62
7
100
AcDbLine
 10
-4.777899
 20
-14.261618
 30
0.0
 11
-4.420366
 21
-14.376454
 31
0.0
  0
LINE
  5
20b
100
AcDbEntity
  8
Layer_1
 62
7
100
AcDbLine
 10
-4.420366
 20
-14.376454
 30
0.0
 11
-4.095003
 21
-13.975614
 31
0.0
  0
LINE
  5
20c
100
AcDbEntity
  8
Layer_1
 62
7
100
AcDbLine
 10
-4.095003
 20
-13.975614
 30
0.0
 11
-3.822119
 21
-13.557276
 31
0.0
  0
LINE
  5
20d
100
AcDbEntity
  8
Layer_1
 62
7
100
AcDbLine
 10
-3.822119
 20
-13.557276
 30
0.0
 11
-3.399801
 21
-13.669290
 31
0.0
  0
LINE
  5
20e
100
AcDbEntity
  8
Layer_1
 62
7
100
AcDbLine
 10
-3.399801
 20
-13.669290
 30
0.0
 11
-3.370155
 21
-14.167892
 31
0.0
  0
LINE
  5
20f
100
AcDbEntity
  8
Layer_1
 62
7
100
AcDbLine
 10
-3.370155
 20
-14.167892
 30
0.0
 11
-3.286241
 21
-14.677303
 31
0.0
  0
LINE
  5
210
100
AcDbEntity
  8
Layer_1
 62
7
100
AcDbLine
 10
-3.286241
 20
-14.677303
 30
0.0
 11
-2.918794
 21
-14.754773
 31
0.0
  0
LINE
  5
211
100
AcDbEntity
  8
Layer_1
 62
7
100
AcDbLine
 10
-2.918794
 20
-14.754773
 30
0.0
 11
-2.636370
 21
-14.322606
 31
0.0
  0
LINE
  5
212
100
AcDbEntity
  8
Layer_1
 62
7
100
AcDbLine
 10
-2.636370
 20
-14.322606
 30
0.0
 11
-2.407948
 21
-13.878417
 31
0.0
  0
LINE
  5
213
100
AcDbEntity
  8
Layer_1
 62
7
100
AcDbLine
 10
-2.407948
 20
-13.878417
 30
0.0
 11
-1.976350
 21
-13.946432
 31
0.0
  0
LINE
  5
214
100
AcDbEntity
  8
Layer_1
 62
7
100
AcDbLine
 10
-1.976350
 20
-13.946432
 30
0.0
 11
-1.895592
 21
-14.439333
 31
0.0
  0
LINE
  5
215
100
AcDbEntity
  8
Layer_1
 62
7
100
AcDbLine
 10
-1.895592
 20
-14.439333
 30
0.0
 11
-1.759746
 21
-14.937399
 31
0.0
  0
LINE
  5
216
100
AcDbEntity
  8
Layer_1
 62
7
100
AcDbLine
 10
-1.759746
 20
-14.937399
 30
0.0
 11
-1.386283
 21
-14.976684
 31
0.0
  0
LINE
  5
217
100
AcDbEntity
  8
Layer_1
 62
7
100
AcDbLine
 10
-1.386283
 20
-14.976684
 30
0.0
 11
-1.149787
 21
-14.517763
 31
0.0
  0
LINE
  5
218
100
AcDbEntity
  8
Layer_1
 62
7
100
AcDbLine
 10
-1.149787
 20
-14.517763
 30
0.0
 11
-0.968250
 21
-14.052463
 31
0.0
  0
LINE
  5
219
100
AcDbEntity
  8
Layer_1
 62
7
100
AcDbLine
 10
-0.968250
 20
-14.052463
 30
0.0
 11
-0.531946
 21
-14.075605
 31
0.0
  0
LINE
  5
21a
100
AcDbEntity
  8
Layer_1
 62
7
100
AcDbLine
 10
-0.531946
 20
-14.075605
 30
0.0
 11
-0.400935
 21
-14.557613
 31
0.0
  0
LINE
  5
21b
100
AcDbEntity
  8
Layer_1
 62
7
100
AcDbLine
 10
-0.400935
 20
-14.557613
 30
0.0
 11
-0.214599
 21
-15.039055
 31
0.0
  0
LINE
  5
21c
100
AcDbEntity
  8
Layer_1
 62
7
100
AcDbLine
 10
-0.214599
 20
-15.039055
 30
0.0
 11
0.160923
 21
-15.039055
 31
0.0
  0
LINE
  5
21d
100
AcDbEntity
  8
Layer_1
 62
7
100
AcDbLine
 10
0.160923
 20
-15.039055
 30
0.0
 11
0.348980
 21
-14.558262
 31
0.0
  0
LINE
  5
21e
100
AcDbEntity
  8
Layer_1
 62
7
100
AcDbLine
 10
0.348980
 20
-14.558262
 30
0.0
 11
0.481710
 21
-14.076734
 31
0.0
  0
LINE
  5
21f
100
AcDbEntity
  8
Layer_1
 62
7
100
AcDbLine
 10
0.481710
 20
-14.076734
 30
0.0
 11
0.918094
 21
-14.055003
 31
0.0
  0
LINE
  5
220
100
AcDbEntity
  8
Layer_1
 62
7
100
AcDbLine
 10
0.918094
 20
-14.055003
 30
0.0
 11
1.097969
 21
-14.520980
 31
0.0
  0
LINE
  5
221
100
AcDbEntity
  8
Layer_1
 62
7
100
AcDbLine
 10
1.097969
 20
-14.520980
 30
0.0
 11
1.332824
 21
-14.980720
 31
0.0
  0
LINE
  5
222
100
AcDbEntity
  8
Layer_1
 62
7
100
AcDbLine
 10
1.332824
 20
-14.980720
 30
0.0
 11
1.706425
 21
-14.942761
 31
0.0
  0
LINE
  5
223
100
AcDbEntity
  8
Layer_1
 62
7
100
AcDbLine
 10
1.706425
 20
-14.942761
 30
0.0
 11
1.844049
 21
-14.445203
 31
0.0
  0
LINE
  5
224
100
AcDbEntity
  8
Layer_1
 62
7
100
AcDbLine
 10
1.844049
 20
-14.445203
 30
0.0
 11
1.926568
 21
-13.952585
 31
0.0
  0
LINE
  5
225
100
AcDbEntity
  8
Layer_1
 62
7
100
AcDbLine
 10
1.926568
 20
-13.952585
 30
0.0
 11
2.358406
 21
-13.886121
 31
0.0
  0
LINE
  5
226
100
AcDbEntity
  8
Layer_1
 62
7
100
AcDbLine
 10
2.358406
 20
-13.886121
 30
0.0
 11
2.585239
 21
-14.331101
 31
0.0
  0
LINE
  5
227
100
AcDbEntity
  8
Layer_1
 62
7
100
AcDbLine
 10
2.585239
 20
-14.331101
 30
0.0
 11
2.866119
 21
-14.764284
 31
0.0
  0
LINE
  5
228
100
AcDbEntity
  8
Layer_1
 62
7
100
AcDbLine
 10
2.866119
 20
-14.764284
 30
0.0
 11
3.233838
 21
-14.688112
 31
0.0
  0
LINE
  5
229
100
AcDbEntity
  8
Layer_1
 62
7
100
AcDbLine
 10
3.233838
 20
-14.688112
 30
0.0
 11
3.319571
 21
-14.179040
 31
0.0
  0
LINE
  5
22a
100
AcDbEntity
  8
Layer_1
 62
7
100
AcDbLine
 10
3.319571
 20
-14.179040
 30
0.0
 11
3.351001
 21
-13.680551
 31
0.0
  0
LINE
  5
22b
100
AcDbEntity
  8
Layer_1
 62
7
100
AcDbLine
 10
3.351001
 20
-13.680551
 30
0.0
 11
3.773716
 21
-13.570032
 31
0.0
  0
LINE
  5
22c
100
AcDbEntity
  8
Layer_1
 62
7
100
AcDbLine
 10
3.773716
 20
-13.570032
 30
0.0
 11
4.045103
 21
-13.989330
 31
0.0
  0
LINE
  5
22d
100
AcDbEntity
  8
Layer_1
 62
7
100
AcDbLine
 10
4.045103
 20
-13.989330
 30
0.0
 11
4.369032
 21
-14.391327
 31
0.0
  0
LINE
  5
22e
100
AcDbEntity
  8
Layer_1
 62
7
100
AcDbLine
 10
4.369032
 20
-14.391327
 30
0.0
 11
4.726972
 21
-14.277761
 31
0.0
  0
LINE
  5
22f
100
AcDbEntity
  8
Layer_1
 62
7
100
AcDbLine
 10
4.726972
 20
-14.277761
 30
0.0
 11
4.759907
 21
-13.762564
 31
0.0
  0
LINE
  5
230
100
AcDbEntity
  8
Layer_1
 62
7
100
AcDbLine
 10
4.759907
 20
-13.762564
 30
0.0
 11
4.739914
 21
-13.263483
 31
0.0
  0
LINE
  5
231
100
AcDbEntity
  8
Layer_1
 62
7
100
AcDbLine
 10
4.739914
 20
-13.263483
 30
0.0
 11
5.149025
 21
-13.110095
 31
0.0
  0
LINE
  5
232
100
AcDbEntity
  8
Layer_1
 62
7
100
AcDbLine
 10
5.149025
 20
-13.110095
 30
0.0
 11
5.462088
 21
-13.499279
 31
0.0
  0
LINE
  5
233
100
AcDbEntity
  8
Layer_1
 62
7
100
AcDbLine
 10
5.462088
 20
-13.499279
 30
0.0
 11
5.825632
 21
-13.865829
 31
0.0
  0
LINE
  5
234
100
AcDbEntity
  8
Layer_1
 62
7
100
AcDbLine
 10
5.825632
 20
-13.865829
 30
0.0
 11
6.169999
 21
-13.716054
 31
0.0
  0
LINE
  5
235
100
AcDbEntity
  8
Layer_1
 62
7
100
AcDbLine
 10
6.169999
 20
-13.716054
 30
0.0
 11
6.149784
 21
-13.200208
 31
0.0
  0
LINE
  5
236
100
AcDbEntity
  8
Layer_1
 62
7
100
AcDbLine
 10
6.149784
 20
-13.200208
 30
0.0
 11
6.078580
 21
-12.705811
 31
0.0
  0
LINE
  5
237
100
AcDbEntity
  8
Layer_1
 62
7
100
AcDbLine
 10
6.078580
 20
-12.705811
 30
0.0
 11
6.469752
 21
-12.511163
 31
0.0
  0
LINE
  5
238
100
AcDbEntity
  8
Layer_1
 62
7
100
AcDbLine
 10
6.469752
 20
-12.511163
 30
0.0
 11
6.821174
 21
-12.866114
 31
0.0
  0
LINE
  5
239
100
AcDbEntity
  8
Layer_1
 62
7
100
AcDbLine
 10
6.821174
 20
-12.866114
 30
0.0
 11
7.220479
 21
-13.193322
 31
0.0
  0
LINE
  5
23a
100
AcDbEntity
  8
Layer_1
 62
7
100
AcDbLine
 10
7.220479
 20
-13.193322
 30
0.0
 11
7.547621
 21
-13.008946
 31
0.0
  0
LINE
  5
23b
100
AcDbEntity
  8
Layer_1
 62
7
100
AcDbLine
 10
7.547621
 20
-13.008946
 30
0.0
 11
7.474473
 21
-12.497898
 31
0.0
  0
LINE
  5
23c
100
AcDbEntity
  8
Layer_1
 62
7
100
AcDbLine
 10
7.474473
 20
-12.497898
 30
0.0
 11
7.352816
 21
-12.013464
 31
0.0
  0
LINE
  5
23d
100
AcDbEntity
  8
Layer_1
 62
7
100
AcDbLine
 10
7.352816
 20
-12.013464
 30
0.0
 11
7.721900
 21
-11.779643
 31
0.0
  0
LINE
  5
23e
100
AcDbEntity
  8
Layer_1
 62
7
100
AcDbLine
 10
7.721900
 20
-11.779643
 30
0.0
 11
8.107952
 21
-12.096550
 31
0.0
  0
LINE
  5
23f
100
AcDbEntity
  8
Layer_1
 62
7
100
AcDbLine
 10
8.107952
 20
-12.096550
 30
0.0
 11
8.538787
 21
-12.381002
 31
0.0
  0
LINE
  5
240
100
AcDbEntity
  8
Layer_1
 62
7
100
AcDbLine
 10
8.538787
 20
-12.381002
 30
0.0
 11
8.845239
 21
-12.163945
 31
0.0
  0
LINE
  5
241
100
AcDbEntity
  8
Layer_1
 62
7
100
AcDbLine
 10
8.845239
 20
-12.163945
 30
0.0
 11
8.719931
 21
-11.663141
 31
0.0
  0
LINE
  5
242
100
AcDbEntity
  8
Layer_1
 62
7
100
AcDbLine
 10
8.719931
 20
-11.663141
 30
0.0
 11
8.549108
 21
-11.193778
 31
0.0
  0
LINE
  5
243
100
AcDbEntity
  8
Layer_1
 62
7
100
AcDbLine
 10
8.549108
 20
-11.193778
 30
0.0
 11
8.892191
 21
-10.923239
 31
0.0
  0
LINE
  5
244
100
AcDbEntity
  8
Layer_1
 62
7
100
AcDbLine
 10
8.892191
 20
-10.923239
 30
0.0
 11
9.308786
 21
-11.198773
 31
0.0
  0
LINE
  5
245
100
AcDbEntity
  8
Layer_1
 62
7
100
AcDbLine
 10
9.308786
 20
-11.198773
 30
0.0
 11
9.766585
 21
-11.437392
 31
0.0
  0
LINE
  5
246
100
AcDbEntity
  8
Layer_1
 62
7
100
AcDbLine
 10
9.766585
 20
-11.437392
 30
0.0
 11
10.049093
 21
-11.189996
 31
0.0
  0
LINE
  5
247
100
AcDbEntity
  8
Layer_1
 62
7
100
AcDbLine
 10
10.049093
 20
-11.189996
 30
0.0
 11
9.872957
 21
-10.704715
 31
0.0
  0
LINE
  5
248
100
AcDbEntity
  8
Layer_1
 62
7
100
AcDbLine
 10
9.872957
 20
-10.704715
 30
0.0
 11
9.654778
 21
-10.255417
 31
0.0
  0
LINE
  5
249
100
AcDbEntity
  8
Layer_1
 62
7
100
AcDbLine
 10
9.654778
 20
-10.255417
 30
0.0
 11
9.968227
 21
-9.951040
 31
0.0
  0
LINE
  5
24a
100
AcDbEntity
  8
Layer_1
 62
7
100
AcDbLine
 10
9.968227
 20
-9.951040
 30
0.0
 11
10.410947
 21
-10.182293
 31
0.0
  0
LINE
  5
24b
100
AcDbEntity
  8
Layer_1
 62
7
100
AcDbLine
 10
10.410947
 20
-10.182293
 30
0.0
 11
10.890852
 21
-10.372567
 31
0.0
  0
LINE
  5
24c
100
AcDbEntity
  8
Layer_1
 62
7
100
AcDbLine
 10
10.890852
 20
-10.372567
 30
0.0
 11
11.146426
 21
-10.097429
 31
0.0
  0
LINE
  5
24d
100
AcDbEntity
  8
Layer_1
 62
7
100
AcDbLine
 10
11.146426
 20
-10.097429
 30
0.0
 11
10.921327
 21
-9.632835
 31
0.0
  0
LINE
  5
24e
100
AcDbEntity
  8
Layer_1
 62
7
100
AcDbLine
 10
10.921327
 20
-9.632835
 30
0.0
 11
10.658106
 21
-9.208344
 31
0.0
  0
LINE
  5
24f
100
AcDbEntity
  8
Layer_1
 62
7
100
AcDbLine
 10
10.658106
 20
-9.208344
 30
0.0
 11
10.938595
 21
-8.873347
 31
0.0
  0
LINE
  5
250
100
AcDbEntity
  8
Layer_1
 62
7
100
AcDbLine
 10
10.938595
 20
-8.873347
 30
0.0
 11
11.402746
 21
-9.057863
 31
0.0
  0
LINE
  5
251
100
AcDbEntity
  8
Layer_1
 62
7
100
AcDbLine
 10
11.402746
 20
-9.057863
 30
0.0
 11
11.899674
 21
-9.197789
 31
0.0
  0
LINE
  5
252
100
AcDbEntity
  8
Layer_1
 62
7
100
AcDbLine
 10
11.899674
 20
-9.197789
 30
0.0
 11
12.125604
 21
-8.897843
 31
0.0
  0
LINE
  5
253
100
AcDbEntity
  8
Layer_1
 62
7
100
AcDbLine
 10
12.125604
 20
-8.897843
 30
0.0
 11
11.853927
 21
-8.458847
 31
0.0
  0
LINE
  5
254
100
AcDbEntity
  8
Layer_1
 62
7
100
AcDbLine
 10
11.853927
 20
-8.458847
 30
0.0
 11
11.548455
 21
-8.063679
 31
0.0
  0
LINE
  5
255
100
AcDbEntity
  8
Layer_1
 62
7
100
AcDbLine
 10
11.548455
 20
-8.063679
 30
0.0
 11
11.793009
 21
-7.701588
 31
0.0
  0
LINE
  5
256
100
AcDbEntity
  8
Layer_1
 62
7
100
AcDbLine
 10
11.793009
 20
-7.701588
 30
0.0
 11
12.273674
 21
-7.837422
 31
0.0
  0
LINE
  5
257
100
AcDbEntity
  8
Layer_1
 62
7
100
AcDbLine
 10
12.273674
 20
-7.837422
 30
0.0
 11
12.782357
 21
-7.925503
 31
0.0
  0
LINE
  5
258
100
AcDbEntity
  8
Layer_1
 62
7
100
AcDbLine
 10
12.782357
 20
-7.925503
 30
0.0
 11
12.976248
 21
-7.603911
 31
0.0
  0
LINE
  5
259
100
AcDbEntity
  8
Layer_1
 62
7
100
AcDbLine
 10
12.976248
 20
-7.603911
 30
0.0
 11
12.660873
 21
-7.195169
 31
0.0
  0
LINE
  5
25a
100
AcDbEntity
  8
Layer_1
 62
7
100
AcDbLine
 10
12.660873
 20
-7.195169
 30
0.0
 11
12.316387
 21
-6.833501
 31
0.0
  0
LINE
  5
25b
100
AcDbEntity
  8
Layer_1
 62
7
100
AcDbLine
 10
12.316387
 20
-6.833501
 30
0.0
 11
12.522418
 21
-6.448211
 31
0.0
  0
LINE
  5
25c
100
AcDbEntity
  8
Layer_1
 62
7
100
AcDbLine
 10
12.522418
 20
-6.448211
 30
0.0
 11
13.014499
 21
-6.533865
 31
0.0
  0
LINE
  5
25d
100
AcDbEntity
  8
Layer_1
 62
7
100
AcDbLine
 10
13.014499
 20
-6.533865
 30
0.0
 11
13.529543
 21
-6.569200
 31
0.0
  0
LINE
  5
25e
100
AcDbEntity
  8
Layer_1
 62
7
100
AcDbLine
 10
13.529543
 20
-6.569200
 30
0.0
 11
13.689342
 21
-6.229376
 31
0.0
  0
LINE
  5
25f
100
AcDbEntity
  8
Layer_1
 62
7
100
AcDbLine
 10
13.689342
 20
-6.229376
 30
0.0
 11
13.333611
 21
-5.855234
 31
0.0
  0
LINE
  5
260
100
AcDbEntity
  8
Layer_1
 62
7
100
AcDbLine
 10
13.333611
 20
-5.855234
 30
0.0
 11
12.953761
 21
-5.530904
 31
0.0
  0
LINE
  5
261
100
AcDbEntity
  8
Layer_1
 62
7
100
AcDbLine
 10
12.953761
 20
-5.530904
 30
0.0
 11
13.119085
 21
-5.126480
 31
0.0
  0
LINE
  5
262
100
AcDbEntity
  8
Layer_1
 62
7
100
AcDbLine
 10
13.119085
 20
-5.126480
 30
0.0
 11
13.617366
 21
-5.161080
 31
0.0
  0
LINE
  5
263
100
AcDbEntity
  8
Layer_1
 62
7
100
AcDbLine
 10
13.617366
 20
-5.161080
 30
0.0
 11
14.133314
 21
-5.143300
 31
0.0
  0
LINE
  5
264
100
AcDbEntity
  8
Layer_1
 62
7
100
AcDbLine
 10
14.133314
 20
-5.143300
 30
0.0
 11
14.257324
 21
-4.788829
 31
0.0
  0
LINE
  5
265
100
AcDbEntity
  8
Layer_1
 62
7
100
AcDbLine
 10
14.257324
 20
-4.788829
 30
0.0
 11
13.865010
 21
-4.453267
 31
0.0
  0
LINE
  5
266
100
AcDbEntity
  8
Layer_1
 62
7
100
AcDbLine
 10
13.865010
 20
-4.453267
 30
0.0
 11
13.453827
 21
-4.169690
 31
0.0
  0
LINE
  5
267
100
AcDbEntity
  8
Layer_1
 62
7
100
AcDbLine
 10
13.453827
 20
-4.169690
 30
0.0
 11
13.576688
 21
-3.750421
 31
0.0
  0
LINE
  5
268
100
AcDbEntity
  8
Layer_1
 62
7
100
AcDbLine
 10
13.576688
 20
-3.750421
 30
0.0
 11
14.075888
 21
-3.733487
 31
0.0
  0
LINE
  5
269
100
AcDbEntity
  8
Layer_1
 62
7
100
AcDbLine
 10
14.075888
 20
-3.733487
 30
0.0
 11
14.587268
 21
-3.662734
 31
0.0
  0
LINE
  5
26a
100
AcDbEntity
  8
Layer_1
 62
7
100
AcDbLine
 10
14.587268
 20
-3.662734
 30
0.0
 11
14.674173
 21
-3.297397
 31
0.0
  0
LINE
  5
26b
100
AcDbEntity
  8
Layer_1
 62
7
100
AcDbLine
 10
14.674173
 20
-3.297397
 30
0.0
 11
14.249436
 21
-3.003943
 31
0.0
  0
LINE
  5
26c
100
AcDbEntity
  8
Layer_1
 62
7
100
AcDbLine
 10
14.249436
 20
-3.003943
 30
0.0
 11
13.811277
 21
-2.764139
 31
0.0
  0
LINE
  5
26d
100
AcDbEntity
  8
Layer_1
 62
7
100
AcDbLine
 10
13.811277
 20
-2.764139
 30
0.0
 11
13.890356
 21
-2.334794
 31
0.0
  0
ENDSEC
  0
SECTION
  2
OBJECTS
  0
DICTIONARY
  5
C
330
0
100
AcDbDictionary
  3
ACAD_GROUP
350
D
  3
ACAD_MLINESTYLE
350
17
  0
DICTIONARY
  5
D
330
C
100
AcDbDictionary
  0
DICTIONARY
  5
1A
330
C
100
AcDbDictionary
  0
DICTIONARY
  5
17
330
C
100
AcDbDictionary
  3
STANDARD
350
18
  0
DICTIONARY
  5
19
330
C
100
AcDbDictionary
  0
ENDSEC
  0
EOF
