<?xml version="1.0" encoding="UTF-8" standalone="no"?>
<!-- Created with Inkscape (http://www.inkscape.org/) -->

<svg
   xmlns:dc="http://purl.org/dc/elements/1.1/"
   xmlns:cc="http://creativecommons.org/ns#"
   xmlns:rdf="http://www.w3.org/1999/02/22-rdf-syntax-ns#"
   xmlns:svg="http://www.w3.org/2000/svg"
   xmlns="http://www.w3.org/2000/svg"
   xmlns:sodipodi="http://sodipodi.sourceforge.net/DTD/sodipodi-0.dtd"
   xmlns:inkscape="http://www.inkscape.org/namespaces/inkscape"
   width="297mm"
   height="210mm"
   viewBox="0 0 1052.3622 744.09448"
   id="svg2"
   version="1.1"
   inkscape:version="0.48.5 r10040"
   sodipodi:docname="gear-cp3-t27.svg">
  <sodipodi:namedview
     id="base"
     pagecolor="#ffffff"
     bordercolor="#666666"
     borderopacity="1.0"
     inkscape:pageopacity="0.0"
     inkscape:pageshadow="2"
     inkscape:zoom="2.8284271"
     inkscape:cx="58.930286"
     inkscape:cy="-10.890827"
     inkscape:document-units="mm"
     inkscape:current-layer="layer1"
     showgrid="true"
     inkscape:window-width="1366"
     inkscape:window-height="705"
     inkscape:window-x="-8"
     inkscape:window-y="-8"
     inkscape:window-maximized="1"
     showguides="true"
     inkscape:guide-bbox="true"
     inkscape:snap-bbox="false"
     inkscape:bbox-nodes="true"
     inkscape:snap-bbox-edge-midpoints="true"
     inkscape:snap-bbox-midpoints="false"
     inkscape:snap-object-midpoints="false"
     inkscape:snap-global="true"
     inkscape:snap-grids="true"
     inkscape:object-nodes="true"
     inkscape:snap-smooth-nodes="true"
     inkscape:snap-center="true"
     inkscape:snap-intersection-paths="true"
     inkscape:snap-nodes="true">
    <inkscape:grid
       empopacity="0.25098039"
       empcolor="#ed0000"
       opacity="0.96078431"
       color="#e80007"
       type="xygrid"
       id="grid3333"
       units="mm"
       spacingx="17.716536"
       spacingy="17.716535" />
    <inkscape:grid
       empspacing="10"
       spacingy="0.35433071"
       spacingx="0.35433071"
       units="mm"
       id="grid4730"
       type="xygrid" />
    <sodipodi:guide
       position="526.1811,0"
       orientation="744.0945,0"
       id="guide3393" />
    <sodipodi:guide
       position="0,248.0315"
       orientation="0,1052.3622"
       id="guide3395" />
    <sodipodi:guide
       position="0,496.063"
       orientation="0,1052.3622"
       id="guide3397" />
    <sodipodi:guide
       id="guide4140"
       orientation="0,1"
       position="3.5433071,0" />
    <sodipodi:guide
       id="guide4142"
       orientation="1,0"
       position="0,7.0866142" />
  </sodipodi:namedview>
  <defs
     id="defs4" />
  <metadata
     id="metadata7">
    <rdf:RDF>
      <cc:Work
         rdf:about="">
        <dc:format>image/svg+xml</dc:format>
        <dc:type
           rdf:resource="http://purl.org/dc/dcmitype/StillImage" />
        <dc:title />
      </cc:Work>
    </rdf:RDF>
  </metadata>
  <g
     style="display:inline"
     inkscape:label="Layer 1"
     inkscape:groupmode="layer"
     id="layer1"
     transform="translate(0,-308.26772)">
    <path
       id="path12888-7-5"
       d="m -41.507112,1044.2359 -0.617132,-0.1208 -2.829263,0.1398 -3.591548,1.0017 -0.295279,2.4436 3.249589,1.8283 2.714531,0.8097 0.628149,0.03 -0.01427,3.6593 -0.628358,0.025 -2.720759,0.7886 -3.263743,1.8029 0.276221,2.4458 3.583634,1.0297 2.828088,0.1618 0.61805,-0.116 0.83003,3.564 -0.605717,0.169 -2.465578,1.3947 -2.759987,2.507 0.832841,2.3162 3.724483,0.1754 2.78918,-0.4947 0.57464,-0.2554 1.629551,3.2765 -0.550409,0.3041 -2.077476,1.9257 -2.107435,3.0759 1.344548,2.0618 3.664537,-0.6883 2.599906,-1.1246 0.500255,-0.381 2.341237,2.8124 -0.465439,0.4228 -1.577381,2.3529 -1.341268,3.479 1.783773,1.6961 3.407042,-1.5148 2.270479,-1.6938 0.39888,-0.4862 2.926721,2.1967 -0.355374,0.5188 -0.992247,2.6532 -0.502809,3.6946 2.126844,1.239 2.965875,-2.2597 1.818632,-2.1718 0.276025,-0.5651 3.354402,1.4625 -0.226145,0.5868 -0.353625,2.8106 0.362767,3.7109 2.35525,0.7151 2.36481,-2.8827 1.2687612,-2.5327 0.13828,-0.6135 3.6012526,0.6495 -0.084731,0.6231 0.3040692,2.8163 1.2087928,3.5273 2.4566738,0.1527 1.63626906,-3.3504 0.65047693,-2.757 -0.006926,-0.6289 3.65396421,-0.1985 0.061253,0.6259 0.9453689,2.6703 1.9896395,3.1534 2.4256679,-0.418 0.8195059,-3.6374 -0.0029,-2.8327 -0.151747,-0.6103 3.509679,-1.0359 0.203931,0.5949 1.535701,2.3803 2.663235,2.6096 2.263895,-0.9661 -0.04143,-3.7284 -0.656056,-2.7557 -0.288396,-0.5588 3.176198,-1.8173 0.335617,0.5318 2.04325,1.9619 3.193239,1.9251 1.980084,-1.4622 -0.900147,-3.6183 -1.273879,-2.5301 -0.409496,-0.4773 2.671487,-2.5008 0.449212,0.4401 2.440631,1.4379 3.551121,1.1367 1.589503,-1.8794 -1.710329,-3.3132 -1.823029,-2.1681 -0.508513,-0.37 2.022753,-3.0495 0.538589,0.3247 2.706449,0.8363 3.717542,0.2871 1.113241,-2.1953 -2.428295,-2.8295 -2.273901,-1.6892 -0.580123,-0.2427 1.264968,-3.4338 0.598925,0.1916 2.826365,0.1896 3.683552,-0.5779 0.576968,-2.3928 -3.015364,-2.1932 -2.602181,-1.1194 -0.62045,-0.1023 0.438987,-3.633 0.626976,0.048 2.793906,-0.4673 3.450979,-1.4119 0.0096,-2.4614 -3.439871,-1.4387 -2.790179,-0.489 -0.627335,0.043 -0.410663,-3.6362 0.621237,-0.097 2.610828,-1.0991 3.032363,-2.1696 -0.5583,-2.3972 -3.678936,-0.6067 -2.827753,0.1676 -0.600406,0.187 -1.238167,-3.4435 0.581995,-0.2382 2.286994,-1.6715 2.450286,-2.8105 -1.096101,-2.2039 -3.719671,0.2582 -2.712882,0.8152 -0.541104,0.3204 -1.99892,-3.0652 0.511386,-0.366 1.83987,-2.1538 1.736098,-3.2998 -1.574818,-1.8917 -3.559858,1.109 -2.451773,1.4188 -0.452629,0.4366 -2.651907,-2.5216 0.4132,-0.474 1.293562,-2.5201 0.928313,-3.6112 -1.968616,-1.4776 -3.208156,1.9001 -2.058475,1.946 -0.339754,0.5292 -3.16193,-1.842 0.292739,-0.5566 0.67751,-2.7505 0.07049,-3.7279 -2.256295,-0.9838 -2.683487,2.5887 -1.554209,2.3683 -0.208565,0.5933 -3.501506,-1.0632 0.156505,-0.6091 0.02495,-2.8326 -0.7911347,-3.6437 -2.4223356,-0.4368 -2.0141629,3.1378 -0.9661511,2.6628 -0.066127,0.6254 -3.65230397,-0.227 0.0118199,-0.6288 -0.62897385,-2.762 -1.61009688,-3.363 -2.4577991,0.1335 -1.2362407,3.5177 -0.3260067,2.8139 0.079869,0.6238 -3.6062059,0.6214 -0.1334954,-0.6146 -1.2489741,-2.5425 -2.342273,-2.901 -2.360752,0.6967 -0.391678,3.708 0.331703,2.8132 0.221569,0.5885 -3.365707,1.4363 -0.271603,-0.5671 -1.801659,-2.186 -2.94817,-2.2827 -2.13643,1.2224 0.473987,3.6984 0.971538,2.6608 0.351319,0.5216 -2.943739,2.1738 -0.395092,-0.4893 -2.257202,-1.7115 -3.395131,-1.5413 -1.79694,1.6822 1.314116,3.4893 1.558992,2.3651 0.462126,0.4265 -2.363087,2.7941 -0.497262,-0.385 -2.591064,-1.1448 -3.659067,-0.7168 -1.360584,2.0512 2.083402,3.0922 2.062404,1.9419 0.54803,0.3084 -1.655053,3.2637 -0.572629,-0.2599 -2.78524,-0.5164 -3.725736,0.1463 -0.85086,2.3097 2.740362,2.5285 2.454634,1.4138 0.604375,0.1737 z"
       style="fill:#aa00d4;stroke:none"
       inkscape:connector-curvature="0" />
  </g>
</svg>
