  0
SECTION
  2
HEADER
  9
$ACADVER
  1
AC1014
  9
$HANDSEED
  5
FFFF
  9
$MEASUREMENT
 70
     1
  0
ENDSEC
  0
SECTION
  2
TABLES
  0
TABLE
  2
VPORT
  5
8
330
0
100
AcDbSymbolTable
 70
     4
  0
VPORT
  5
2E
330
8
100
AcDbSymbolTableRecord
100
AcDbViewportTableRecord
  2
*ACTIVE
 70
     0
 10
0.0
 20
0.0
 11
1.0
 21
1.0
 12
210.0
 22
148.5
 13
0.0
 23
0.0
 14
10.0
 24
10.0
 15
10.0
 25
10.0
 16
0.0
 26
0.0
 36
1.0
 17
0.0
 27
0.0
 37
0.0
 40
341.0
 41
1.24
 42
50.0
 43
0.0
 44
0.0
 50
0.0
 51
0.0
 71
     0
 72
   100
 73
     1
 74
     3
 75
     0
 76
     0
 77
     0
 78
     0
  0
ENDTAB
  0
TABLE
  2
LTYPE
  5
5
330
0
100
AcDbSymbolTable
 70
     1
  0
LTYPE
  5
14
330
5
100
AcDbSymbolTableRecord
100
AcDbLinetypeTableRecord
  2
BYBLOCK
 70
     0
  3

 72
    65
 73
     0
 40
0.0
  0
LTYPE
  5
15
330
5
100
AcDbSymbolTableRecord
100
AcDbLinetypeTableRecord
  2
BYLAYER
 70
     0
  3

 72
    65
 73
     0
 40
0.0
  0
LTYPE
  5
16
330
5
100
AcDbSymbolTableRecord
100
AcDbLinetypeTableRecord
  2
CONTINUOUS
 70
     0
  3
Solid line
 72
    65
 73
     0
 40
0.0
  0
ENDTAB
  0
TABLE
  2
LAYER
  5
2
100
AcDbSymbolTable
 70
2
  0
LAYER
  5
50
100
AcDbSymbolTableRecord
100
AcDbLayerTableRecord
  2
0
 70
0
  6
CONTINUOUS
  0
LAYER
  5
51
100
AcDbSymbolTableRecord
100
AcDbLayerTableRecord
  2
Layer_1
 70
0
  6
CONTINUOUS
  0
ENDTAB
  0
TABLE
  2
STYLE
  5
3
330
0
100
AcDbSymbolTable
 70
     1
  0
STYLE
  5
11
330
3
100
AcDbSymbolTableRecord
100
AcDbTextStyleTableRecord
  2
STANDARD
 70
     0
 40
0.0
 41
1.0
 50
0.0
 71
     0
 42
2.5
  3
txt
  4

  0
ENDTAB
  0
TABLE
  2
VIEW
  5
6
330
0
100
AcDbSymbolTable
 70
     0
  0
ENDTAB
  0
TABLE
  2
UCS
  5
7
330
0
100
AcDbSymbolTable
 70
     0
  0
ENDTAB
  0
TABLE
  2
APPID
  5
9
330
0
100
AcDbSymbolTable
 70
     2
  0
APPID
  5
12
330
9
100
AcDbSymbolTableRecord
100
AcDbRegAppTableRecord
  2
ACAD
 70
     0
  0
ENDTAB
  0
TABLE
  2
DIMSTYLE
  5
A
330
0
100
AcDbSymbolTable
 70
     1
  0
DIMSTYLE
105
27
330
A
100
AcDbSymbolTableRecord
100
AcDbDimStyleTableRecord
  2
ISO-25
 70
     0
  3

  4

  5

  6

  7

 40
1.0
 41
2.5
 42
0.625
 43
3.75
 44
1.25
 45
0.0
 46
0.0
 47
0.0
 48
0.0
140
2.5
141
2.5
142
0.0
143
0.03937007874016
144
1.0
145
0.0
146
1.0
147
0.625
 71
     0
 72
     0
 73
     0
 74
     0
 75
     0
 76
     0
 77
     1
 78
     8
170
     0
171
     3
172
     1
173
     0
174
     0
175
     0
176
     0
177
     0
178
     0
270
     2
271
     2
272
     2
273
     2
274
     3
340
11
275
     0
280
     0
281
     0
282
     0
283
     0
284
     8
285
     0
286
     0
287
     3
288
     0
  0
ENDTAB
  0
TABLE
  2
BLOCK_RECORD
  5
1
330
0
100
AcDbSymbolTable
 70
     1
  0
BLOCK_RECORD
  5
1F
330
1
100
AcDbSymbolTableRecord
100
AcDbBlockTableRecord
  2
*MODEL_SPACE
  0
BLOCK_RECORD
  5
1B
330
1
100
AcDbSymbolTableRecord
100
AcDbBlockTableRecord
  2
*PAPER_SPACE
  0
ENDTAB
  0
ENDSEC
  0
SECTION
  2
BLOCKS
  0
BLOCK
  5
20
330
1F
100
AcDbEntity
  8
0
100
AcDbBlockBegin
  2
*MODEL_SPACE
 70
     0
 10
0.0
 20
0.0
 30
0.0
  3
*MODEL_SPACE
  1

  0
ENDBLK
  5
21
330
1F
100
AcDbEntity
  8
0
100
AcDbBlockEnd
  0
BLOCK
  5
1C
330
1B
100
AcDbEntity
 67
     1
  8
0
100
AcDbBlockBegin
  2
*PAPER_SPACE
  1

  0
ENDBLK
  5
1D
330
1B
100
AcDbEntity
 67
     1
  8
0
100
AcDbBlockEnd
  0
ENDSEC
  0
SECTION
  2
ENTITIES
  0
LINE
  5
100
100
AcDbEntity
  8
Layer_1
 62
7
100
AcDbLine
 10
-11.714229
 20
2.293425
 30
0.0
 11
-11.888398
 21
2.327517
 31
0.0
  0
LINE
  5
101
100
AcDbEntity
  8
Layer_1
 62
7
100
AcDbLine
 10
-11.888398
 20
2.327517
 30
0.0
 11
-12.686879
 21
2.288063
 31
0.0
  0
LINE
  5
102
100
AcDbEntity
  8
Layer_1
 62
7
100
AcDbLine
 10
-12.686879
 20
2.288063
 30
0.0
 11
-13.700493
 21
2.005361
 31
0.0
  0
LINE
  5
103
100
AcDbEntity
  8
Layer_1
 62
7
100
AcDbLine
 10
-13.700493
 20
2.005361
 30
0.0
 11
-13.783828
 21
1.315722
 31
0.0
  0
LINE
  5
104
100
AcDbEntity
  8
Layer_1
 62
7
100
AcDbLine
 10
-13.783828
 20
1.315722
 30
0.0
 11
-12.866721
 21
0.799735
 31
0.0
  0
LINE
  5
105
100
AcDbEntity
  8
Layer_1
 62
7
100
AcDbLine
 10
-12.866721
 20
0.799735
 30
0.0
 11
-12.100620
 21
0.571220
 31
0.0
  0
LINE
  5
106
100
AcDbEntity
  8
Layer_1
 62
7
100
AcDbLine
 10
-12.100620
 20
0.571220
 30
0.0
 11
-11.923343
 21
0.562753
 31
0.0
  0
LINE
  5
107
100
AcDbEntity
  8
Layer_1
 62
7
100
AcDbLine
 10
-11.923343
 20
0.562753
 30
0.0
 11
-11.927370
 21
-0.469982
 31
0.0
  0
LINE
  5
108
100
AcDbEntity
  8
Layer_1
 62
7
100
AcDbLine
 10
-11.927370
 20
-0.469982
 30
0.0
 11
-12.104707
 21
-0.477038
 31
0.0
  0
LINE
  5
109
100
AcDbEntity
  8
Layer_1
 62
7
100
AcDbLine
 10
-12.104707
 20
-0.477038
 30
0.0
 11
-12.872565
 21
-0.699598
 31
0.0
  0
LINE
  5
10a
100
AcDbEntity
  8
Layer_1
 62
7
100
AcDbLine
 10
-12.872565
 20
-0.699598
 30
0.0
 11
-13.793666
 21
-1.208417
 31
0.0
  0
LINE
  5
10b
100
AcDbEntity
  8
Layer_1
 62
7
100
AcDbLine
 10
-13.793666
 20
-1.208417
 30
0.0
 11
-13.715710
 21
-1.898676
 31
0.0
  0
LINE
  5
10c
100
AcDbEntity
  8
Layer_1
 62
7
100
AcDbLine
 10
-13.715710
 20
-1.898676
 30
0.0
 11
-12.704329
 21
-2.189280
 31
0.0
  0
LINE
  5
10d
100
AcDbEntity
  8
Layer_1
 62
7
100
AcDbLine
 10
-12.704329
 20
-2.189280
 30
0.0
 11
-11.906180
 21
-2.234944
 31
0.0
  0
LINE
  5
10e
100
AcDbEntity
  8
Layer_1
 62
7
100
AcDbLine
 10
-11.906180
 20
-2.234944
 30
0.0
 11
-11.731753
 21
-2.202206
 31
0.0
  0
LINE
  5
10f
100
AcDbEntity
  8
Layer_1
 62
7
100
AcDbLine
 10
-11.731753
 20
-2.202206
 30
0.0
 11
-11.497500
 21
-3.208046
 31
0.0
  0
LINE
  5
110
100
AcDbEntity
  8
Layer_1
 62
7
100
AcDbLine
 10
-11.497500
 20
-3.208046
 30
0.0
 11
-11.668446
 21
-3.255741
 31
0.0
  0
LINE
  5
111
100
AcDbEntity
  8
Layer_1
 62
7
100
AcDbLine
 10
-11.668446
 20
-3.255741
 30
0.0
 11
-12.364287
 21
-3.649357
 31
0.0
  0
LINE
  5
112
100
AcDbEntity
  8
Layer_1
 62
7
100
AcDbLine
 10
-12.364287
 20
-3.649357
 30
0.0
 11
-13.143217
 21
-4.356888
 31
0.0
  0
LINE
  5
113
100
AcDbEntity
  8
Layer_1
 62
7
100
AcDbLine
 10
-13.143217
 20
-4.356888
 30
0.0
 11
-12.908171
 21
-5.010571
 31
0.0
  0
LINE
  5
114
100
AcDbEntity
  8
Layer_1
 62
7
100
AcDbLine
 10
-12.908171
 20
-5.010571
 30
0.0
 11
-11.857039
 21
-5.060073
 31
0.0
  0
LINE
  5
115
100
AcDbEntity
  8
Layer_1
 62
7
100
AcDbLine
 10
-11.857039
 20
-5.060073
 30
0.0
 11
-11.069870
 21
-4.920457
 31
0.0
  0
LINE
  5
116
100
AcDbEntity
  8
Layer_1
 62
7
100
AcDbLine
 10
-11.069870
 20
-4.920457
 30
0.0
 11
-10.907694
 21
-4.848378
 31
0.0
  0
LINE
  5
117
100
AcDbEntity
  8
Layer_1
 62
7
100
AcDbLine
 10
-10.907694
 20
-4.848378
 30
0.0
 11
-10.447799
 21
-5.773079
 31
0.0
  0
LINE
  5
118
100
AcDbEntity
  8
Layer_1
 62
7
100
AcDbLine
 10
-10.447799
 20
-5.773079
 30
0.0
 11
-10.603136
 21
-5.858903
 31
0.0
  0
LINE
  5
119
100
AcDbEntity
  8
Layer_1
 62
7
100
AcDbLine
 10
-10.603136
 20
-5.858903
 30
0.0
 11
-11.189446
 21
-6.402378
 31
0.0
  0
LINE
  5
11a
100
AcDbEntity
  8
Layer_1
 62
7
100
AcDbLine
 10
-11.189446
 20
-6.402378
 30
0.0
 11
-11.784211
 21
-7.270465
 31
0.0
  0
LINE
  5
11b
100
AcDbEntity
  8
Layer_1
 62
7
100
AcDbLine
 10
-11.784211
 20
-7.270465
 30
0.0
 11
-11.404750
 21
-7.852351
 31
0.0
  0
LINE
  5
11c
100
AcDbEntity
  8
Layer_1
 62
7
100
AcDbLine
 10
-11.404750
 20
-7.852351
 30
0.0
 11
-10.370536
 21
-7.658098
 31
0.0
  0
LINE
  5
11d
100
AcDbEntity
  8
Layer_1
 62
7
100
AcDbLine
 10
-10.370536
 20
-7.658098
 30
0.0
 11
-9.636785
 21
-7.340711
 31
0.0
  0
LINE
  5
11e
100
AcDbEntity
  8
Layer_1
 62
7
100
AcDbLine
 10
-9.636785
 20
-7.340711
 30
0.0
 11
-9.495602
 21
-7.233184
 31
0.0
  0
LINE
  5
11f
100
AcDbEntity
  8
Layer_1
 62
7
100
AcDbLine
 10
-9.495602
 20
-7.233184
 30
0.0
 11
-8.834853
 21
-8.026906
 31
0.0
  0
LINE
  5
120
100
AcDbEntity
  8
Layer_1
 62
7
100
AcDbLine
 10
-8.834853
 20
-8.026906
 30
0.0
 11
-8.966210
 21
-8.146229
 31
0.0
  0
LINE
  5
121
100
AcDbEntity
  8
Layer_1
 62
7
100
AcDbLine
 10
-8.966210
 20
-8.146229
 30
0.0
 11
-9.411382
 21
-8.810270
 31
0.0
  0
LINE
  5
122
100
AcDbEntity
  8
Layer_1
 62
7
100
AcDbLine
 10
-9.411382
 20
-8.810270
 30
0.0
 11
-9.789917
 21
-9.792121
 31
0.0
  0
LINE
  5
123
100
AcDbEntity
  8
Layer_1
 62
7
100
AcDbLine
 10
-9.789917
 20
-9.792121
 30
0.0
 11
-9.286497
 21
-10.270798
 31
0.0
  0
LINE
  5
124
100
AcDbEntity
  8
Layer_1
 62
7
100
AcDbLine
 10
-9.286497
 20
-10.270798
 30
0.0
 11
-8.324954
 21
-9.843288
 31
0.0
  0
LINE
  5
125
100
AcDbEntity
  8
Layer_1
 62
7
100
AcDbLine
 10
-8.324954
 20
-9.843288
 30
0.0
 11
-7.684175
 21
-9.365260
 31
0.0
  0
LINE
  5
126
100
AcDbEntity
  8
Layer_1
 62
7
100
AcDbLine
 10
-7.684175
 20
-9.365260
 30
0.0
 11
-7.571602
 21
-9.228043
 31
0.0
  0
LINE
  5
127
100
AcDbEntity
  8
Layer_1
 62
7
100
AcDbLine
 10
-7.571602
 20
-9.228043
 30
0.0
 11
-6.745616
 21
-9.848001
 31
0.0
  0
LINE
  5
128
100
AcDbEntity
  8
Layer_1
 62
7
100
AcDbLine
 10
-6.745616
 20
-9.848001
 30
0.0
 11
-6.845910
 21
-9.994418
 31
0.0
  0
LINE
  5
129
100
AcDbEntity
  8
Layer_1
 62
7
100
AcDbLine
 10
-6.845910
 20
-9.994418
 30
0.0
 11
-7.125945
 21
-10.743210
 31
0.0
  0
LINE
  5
12a
100
AcDbEntity
  8
Layer_1
 62
7
100
AcDbLine
 10
-7.125945
 20
-10.743210
 30
0.0
 11
-7.267848
 21
-11.785908
 31
0.0
  0
LINE
  5
12b
100
AcDbEntity
  8
Layer_1
 62
7
100
AcDbLine
 10
-7.267848
 20
-11.785908
 30
0.0
 11
-6.667606
 21
-12.135581
 31
0.0
  0
LINE
  5
12c
100
AcDbEntity
  8
Layer_1
 62
7
100
AcDbLine
 10
-6.667606
 20
-12.135581
 30
0.0
 11
-5.830570
 21
-11.497844
 31
0.0
  0
LINE
  5
12d
100
AcDbEntity
  8
Layer_1
 62
7
100
AcDbLine
 10
-5.830570
 20
-11.497844
 30
0.0
 11
-5.317312
 21
-10.884914
 31
0.0
  0
LINE
  5
12e
100
AcDbEntity
  8
Layer_1
 62
7
100
AcDbLine
 10
-5.317312
 20
-10.884914
 30
0.0
 11
-5.239411
 21
-10.725430
 31
0.0
  0
LINE
  5
12f
100
AcDbEntity
  8
Layer_1
 62
7
100
AcDbLine
 10
-5.239411
 20
-10.725430
 30
0.0
 11
-4.292724
 21
-11.138180
 31
0.0
  0
LINE
  5
130
100
AcDbEntity
  8
Layer_1
 62
7
100
AcDbLine
 10
-4.292724
 20
-11.138180
 30
0.0
 11
-4.356548
 21
-11.303788
 31
0.0
  0
LINE
  5
131
100
AcDbEntity
  8
Layer_1
 62
7
100
AcDbLine
 10
-4.356548
 20
-11.303788
 30
0.0
 11
-4.456348
 21
-12.097002
 31
0.0
  0
LINE
  5
132
100
AcDbEntity
  8
Layer_1
 62
7
100
AcDbLine
 10
-4.456348
 20
-12.097002
 30
0.0
 11
-4.353968
 21
-13.144300
 31
0.0
  0
LINE
  5
133
100
AcDbEntity
  8
Layer_1
 62
7
100
AcDbLine
 10
-4.353968
 20
-13.144300
 30
0.0
 11
-3.689264
 21
-13.346117
 31
0.0
  0
LINE
  5
134
100
AcDbEntity
  8
Layer_1
 62
7
100
AcDbLine
 10
-3.689264
 20
-13.346117
 30
0.0
 11
-3.021862
 21
-12.532555
 31
0.0
  0
LINE
  5
135
100
AcDbEntity
  8
Layer_1
 62
7
100
AcDbLine
 10
-3.021862
 20
-12.532555
 30
0.0
 11
-2.663789
 21
-11.817771
 31
0.0
  0
LINE
  5
136
100
AcDbEntity
  8
Layer_1
 62
7
100
AcDbLine
 10
-2.663789
 20
-11.817771
 30
0.0
 11
-2.624763
 21
-11.644628
 31
0.0
  0
LINE
  5
137
100
AcDbEntity
  8
Layer_1
 62
7
100
AcDbLine
 10
-2.624763
 20
-11.644628
 30
0.0
 11
-1.608410
 21
-11.827931
 31
0.0
  0
LINE
  5
138
100
AcDbEntity
  8
Layer_1
 62
7
100
AcDbLine
 10
-1.608410
 20
-11.827931
 30
0.0
 11
-1.632323
 21
-12.003784
 31
0.0
  0
LINE
  5
139
100
AcDbEntity
  8
Layer_1
 62
7
100
AcDbLine
 10
-1.632323
 20
-12.003784
 30
0.0
 11
-1.546508
 21
-12.798606
 31
0.0
  0
LINE
  5
13a
100
AcDbEntity
  8
Layer_1
 62
7
100
AcDbLine
 10
-1.546508
 20
-12.798606
 30
0.0
 11
-1.205360
 21
-13.794089
 31
0.0
  0
LINE
  5
13b
100
AcDbEntity
  8
Layer_1
 62
7
100
AcDbLine
 10
-1.205360
 20
-13.794089
 30
0.0
 11
-0.512032
 21
-13.837184
 31
0.0
  0
LINE
  5
13c
100
AcDbEntity
  8
Layer_1
 62
7
100
AcDbLine
 10
-0.512032
 20
-13.837184
 30
0.0
 11
-0.050240
 21
-12.891627
 31
0.0
  0
LINE
  5
13d
100
AcDbEntity
  8
Layer_1
 62
7
100
AcDbLine
 10
-0.050240
 20
-12.891627
 30
0.0
 11
0.133339
 21
-12.113540
 31
0.0
  0
LINE
  5
13e
100
AcDbEntity
  8
Layer_1
 62
7
100
AcDbLine
 10
0.133339
 20
-12.113540
 30
0.0
 11
0.131384
 21
-11.936050
 31
0.0
  0
LINE
  5
13f
100
AcDbEntity
  8
Layer_1
 62
7
100
AcDbLine
 10
0.131384
 20
-11.936050
 30
0.0
 11
1.162614
 21
-11.880029
 31
0.0
  0
LINE
  5
140
100
AcDbEntity
  8
Layer_1
 62
7
100
AcDbLine
 10
1.162614
 20
-11.880029
 30
0.0
 11
1.179901
 21
-12.056672
 31
0.0
  0
LINE
  5
141
100
AcDbEntity
  8
Layer_1
 62
7
100
AcDbLine
 10
1.179901
 20
-12.056672
 30
0.0
 11
1.446705
 21
-12.810290
 31
0.0
  0
LINE
  5
142
100
AcDbEntity
  8
Layer_1
 62
7
100
AcDbLine
 10
1.446705
 20
-12.810290
 30
0.0
 11
2.008226
 21
-13.700250
 31
0.0
  0
LINE
  5
143
100
AcDbEntity
  8
Layer_1
 62
7
100
AcDbLine
 10
2.008226
 20
-13.700250
 30
0.0
 11
2.692803
 21
-13.582281
 31
0.0
  0
LINE
  5
144
100
AcDbEntity
  8
Layer_1
 62
7
100
AcDbLine
 10
2.692803
 20
-13.582281
 30
0.0
 11
2.924086
 21
-12.555726
 31
0.0
  0
LINE
  5
145
100
AcDbEntity
  8
Layer_1
 62
7
100
AcDbLine
 10
2.924086
 20
-12.555726
 30
0.0
 11
2.923267
 21
-11.756275
 31
0.0
  0
LINE
  5
146
100
AcDbEntity
  8
Layer_1
 62
7
100
AcDbLine
 10
2.923267
 20
-11.756275
 30
0.0
 11
2.880441
 21
-11.584035
 31
0.0
  0
LINE
  5
147
100
AcDbEntity
  8
Layer_1
 62
7
100
AcDbLine
 10
2.880441
 20
-11.584035
 30
0.0
 11
3.870950
 21
-11.291681
 31
0.0
  0
LINE
  5
148
100
AcDbEntity
  8
Layer_1
 62
7
100
AcDbLine
 10
3.870950
 20
-11.291681
 30
0.0
 11
3.928504
 21
-11.459575
 31
0.0
  0
LINE
  5
149
100
AcDbEntity
  8
Layer_1
 62
7
100
AcDbLine
 10
3.928504
 20
-11.459575
 30
0.0
 11
4.361913
 21
-12.131348
 31
0.0
  0
LINE
  5
14a
100
AcDbEntity
  8
Layer_1
 62
7
100
AcDbLine
 10
4.361913
 20
-12.131348
 30
0.0
 11
5.113537
 21
-12.867835
 31
0.0
  0
LINE
  5
14b
100
AcDbEntity
  8
Layer_1
 62
7
100
AcDbLine
 10
5.113537
 20
-12.867835
 30
0.0
 11
5.752459
 21
-12.595180
 31
0.0
  0
LINE
  5
14c
100
AcDbEntity
  8
Layer_1
 62
7
100
AcDbLine
 10
5.752459
 20
-12.595180
 30
0.0
 11
5.740766
 21
-11.542943
 31
0.0
  0
LINE
  5
14d
100
AcDbEntity
  8
Layer_1
 62
7
100
AcDbLine
 10
5.740766
 20
-11.542943
 30
0.0
 11
5.555613
 21
-10.765223
 31
0.0
  0
LINE
  5
14e
100
AcDbEntity
  8
Layer_1
 62
7
100
AcDbLine
 10
5.555613
 20
-10.765223
 30
0.0
 11
5.474221
 21
-10.607517
 31
0.0
  0
LINE
  5
14f
100
AcDbEntity
  8
Layer_1
 62
7
100
AcDbLine
 10
5.474221
 20
-10.607517
 30
0.0
 11
6.370615
 21
-10.094635
 31
0.0
  0
LINE
  5
150
100
AcDbEntity
  8
Layer_1
 62
7
100
AcDbLine
 10
6.370615
 20
-10.094635
 30
0.0
 11
6.465333
 21
-10.244721
 31
0.0
  0
LINE
  5
151
100
AcDbEntity
  8
Layer_1
 62
7
100
AcDbLine
 10
6.465333
 20
-10.244721
 30
0.0
 11
7.041984
 21
-10.798413
 31
0.0
  0
LINE
  5
152
100
AcDbEntity
  8
Layer_1
 62
7
100
AcDbLine
 10
7.041984
 20
-10.798413
 30
0.0
 11
7.943187
 21
-11.341719
 31
0.0
  0
LINE
  5
153
100
AcDbEntity
  8
Layer_1
 62
7
100
AcDbLine
 10
7.943187
 20
-11.341719
 30
0.0
 11
8.502010
 21
-10.929053
 31
0.0
  0
LINE
  5
154
100
AcDbEntity
  8
Layer_1
 62
7
100
AcDbLine
 10
8.502010
 20
-10.929053
 30
0.0
 11
8.247969
 21
-9.907889
 31
0.0
  0
LINE
  5
155
100
AcDbEntity
  8
Layer_1
 62
7
100
AcDbLine
 10
8.247969
 20
-9.907889
 30
0.0
 11
7.888452
 21
-9.193838
 31
0.0
  0
LINE
  5
156
100
AcDbEntity
  8
Layer_1
 62
7
100
AcDbLine
 10
7.888452
 20
-9.193838
 30
0.0
 11
7.772883
 21
-9.059133
 31
0.0
  0
LINE
  5
157
100
AcDbEntity
  8
Layer_1
 62
7
100
AcDbLine
 10
7.772883
 20
-9.059133
 30
0.0
 11
8.526836
 21
-8.353352
 31
0.0
  0
LINE
  5
158
100
AcDbEntity
  8
Layer_1
 62
7
100
AcDbLine
 10
8.526836
 20
-8.353352
 30
0.0
 11
8.653614
 21
-8.477558
 31
0.0
  0
LINE
  5
159
100
AcDbEntity
  8
Layer_1
 62
7
100
AcDbLine
 10
8.653614
 20
-8.477558
 30
0.0
 11
9.342414
 21
-8.883365
 31
0.0
  0
LINE
  5
15a
100
AcDbEntity
  8
Layer_1
 62
7
100
AcDbLine
 10
9.342414
 20
-8.883365
 30
0.0
 11
10.344619
 21
-9.204167
 31
0.0
  0
LINE
  5
15b
100
AcDbEntity
  8
Layer_1
 62
7
100
AcDbLine
 10
10.344619
 20
-9.204167
 30
0.0
 11
10.793212
 21
-8.673759
 31
0.0
  0
LINE
  5
15c
100
AcDbEntity
  8
Layer_1
 62
7
100
AcDbLine
 10
10.793212
 20
-8.673759
 30
0.0
 11
10.310520
 21
-7.738700
 31
0.0
  0
LINE
  5
15d
100
AcDbEntity
  8
Layer_1
 62
7
100
AcDbLine
 10
10.310520
 20
-7.738700
 30
0.0
 11
9.796020
 21
-7.126814
 31
0.0
  0
LINE
  5
15e
100
AcDbEntity
  8
Layer_1
 62
7
100
AcDbLine
 10
9.796020
 20
-7.126814
 30
0.0
 11
9.652507
 21
-7.022392
 31
0.0
  0
LINE
  5
15f
100
AcDbEntity
  8
Layer_1
 62
7
100
AcDbLine
 10
9.652507
 20
-7.022392
 30
0.0
 11
10.223372
 21
-6.161755
 31
0.0
  0
LINE
  5
160
100
AcDbEntity
  8
Layer_1
 62
7
100
AcDbLine
 10
10.223372
 20
-6.161755
 30
0.0
 11
10.375374
 21
-6.253393
 31
0.0
  0
LINE
  5
161
100
AcDbEntity
  8
Layer_1
 62
7
100
AcDbLine
 10
10.375374
 20
-6.253393
 30
0.0
 11
11.139194
 21
-6.489415
 31
0.0
  0
LINE
  5
162
100
AcDbEntity
  8
Layer_1
 62
7
100
AcDbLine
 10
11.139194
 20
-6.489415
 30
0.0
 11
12.188367
 21
-6.570441
 31
0.0
  0
LINE
  5
163
100
AcDbEntity
  8
Layer_1
 62
7
100
AcDbLine
 10
12.188367
 20
-6.570441
 30
0.0
 11
12.502549
 21
-5.950879
 31
0.0
  0
LINE
  5
164
100
AcDbEntity
  8
Layer_1
 62
7
100
AcDbLine
 10
12.502549
 20
-5.950879
 30
0.0
 11
11.817230
 21
-5.152331
 31
0.0
  0
LINE
  5
165
100
AcDbEntity
  8
Layer_1
 62
7
100
AcDbLine
 10
11.817230
 20
-5.152331
 30
0.0
 11
11.175484
 21
-4.675601
 31
0.0
  0
LINE
  5
166
100
AcDbEntity
  8
Layer_1
 62
7
100
AcDbLine
 10
11.175484
 20
-4.675601
 30
0.0
 11
11.011761
 21
-4.607106
 31
0.0
  0
LINE
  5
167
100
AcDbEntity
  8
Layer_1
 62
7
100
AcDbLine
 10
11.011761
 20
-4.607106
 30
0.0
 11
11.368763
 21
-3.638011
 31
0.0
  0
LINE
  5
168
100
AcDbEntity
  8
Layer_1
 62
7
100
AcDbLine
 10
11.368763
 20
-3.638011
 30
0.0
 11
11.537793
 21
-3.692085
 31
0.0
  0
LINE
  5
169
100
AcDbEntity
  8
Layer_1
 62
7
100
AcDbLine
 10
11.537793
 20
-3.692085
 30
0.0
 11
12.335456
 21
-3.745595
 31
0.0
  0
LINE
  5
16a
100
AcDbEntity
  8
Layer_1
 62
7
100
AcDbLine
 10
12.335456
 20
-3.745595
 30
0.0
 11
13.375036
 21
-3.582498
 31
0.0
  0
LINE
  5
16b
100
AcDbEntity
  8
Layer_1
 62
7
100
AcDbLine
 10
13.375036
 20
-3.582498
 30
0.0
 11
13.537869
 21
-2.907197
 31
0.0
  0
LINE
  5
16c
100
AcDbEntity
  8
Layer_1
 62
7
100
AcDbLine
 10
13.537869
 20
-2.907197
 30
0.0
 11
12.686867
 21
-2.288227
 31
0.0
  0
LINE
  5
16d
100
AcDbEntity
  8
Layer_1
 62
7
100
AcDbLine
 10
12.686867
 20
-2.288227
 30
0.0
 11
11.952473
 21
-1.972308
 31
0.0
  0
LINE
  5
16e
100
AcDbEntity
  8
Layer_1
 62
7
100
AcDbLine
 10
11.952473
 20
-1.972308
 30
0.0
 11
11.777368
 21
-1.943436
 31
0.0
  0
LINE
  5
16f
100
AcDbEntity
  8
Layer_1
 62
7
100
AcDbLine
 10
11.777368
 20
-1.943436
 30
0.0
 11
11.901260
 21
-0.918123
 31
0.0
  0
LINE
  5
170
100
AcDbEntity
  8
Layer_1
 62
7
100
AcDbLine
 10
11.901260
 20
-0.918123
 30
0.0
 11
12.078207
 21
-0.931670
 31
0.0
  0
LINE
  5
171
100
AcDbEntity
  8
Layer_1
 62
7
100
AcDbLine
 10
12.078207
 20
-0.931670
 30
0.0
 11
12.866709
 21
-0.799787
 31
0.0
  0
LINE
  5
172
100
AcDbEntity
  8
Layer_1
 62
7
100
AcDbLine
 10
12.866709
 20
-0.799787
 30
0.0
 11
13.840652
 21
-0.401318
 31
0.0
  0
LINE
  5
173
100
AcDbEntity
  8
Layer_1
 62
7
100
AcDbLine
 10
13.840652
 20
-0.401318
 30
0.0
 11
13.843362
 21
0.293344
 31
0.0
  0
LINE
  5
174
100
AcDbEntity
  8
Layer_1
 62
7
100
AcDbLine
 10
13.843362
 20
0.293344
 30
0.0
 11
12.872553
 21
0.699377
 31
0.0
  0
LINE
  5
175
100
AcDbEntity
  8
Layer_1
 62
7
100
AcDbLine
 10
12.872553
 20
0.699377
 30
0.0
 11
12.085103
 21
0.837384
 31
0.0
  0
LINE
  5
176
100
AcDbEntity
  8
Layer_1
 62
7
100
AcDbLine
 10
12.085103
 20
0.837384
 30
0.0
 11
11.908055
 21
0.825248
 31
0.0
  0
LINE
  5
177
100
AcDbEntity
  8
Layer_1
 62
7
100
AcDbLine
 10
11.908055
 20
0.825248
 30
0.0
 11
11.792157
 21
1.851465
 31
0.0
  0
LINE
  5
178
100
AcDbEntity
  8
Layer_1
 62
7
100
AcDbLine
 10
11.792157
 20
1.851465
 30
0.0
 11
11.967484
 21
1.878840
 31
0.0
  0
LINE
  5
179
100
AcDbEntity
  8
Layer_1
 62
7
100
AcDbLine
 10
11.967484
 20
1.878840
 30
0.0
 11
12.704317
 21
2.189031
 31
0.0
  0
LINE
  5
17a
100
AcDbEntity
  8
Layer_1
 62
7
100
AcDbLine
 10
12.704317
 20
2.189031
 30
0.0
 11
13.560118
 21
2.801340
 31
0.0
  0
LINE
  5
17b
100
AcDbEntity
  8
Layer_1
 62
7
100
AcDbLine
 10
13.560118
 20
2.801340
 30
0.0
 11
13.402553
 21
3.477883
 31
0.0
  0
LINE
  5
17c
100
AcDbEntity
  8
Layer_1
 62
7
100
AcDbLine
 10
13.402553
 20
3.477883
 30
0.0
 11
12.364276
 21
3.649107
 31
0.0
  0
LINE
  5
17d
100
AcDbEntity
  8
Layer_1
 62
7
100
AcDbLine
 10
12.364276
 20
3.649107
 30
0.0
 11
11.566221
 21
3.601807
 31
0.0
  0
LINE
  5
17e
100
AcDbEntity
  8
Layer_1
 62
7
100
AcDbLine
 10
11.566221
 20
3.601807
 30
0.0
 11
11.396773
 21
3.549031
 31
0.0
  0
LINE
  5
17f
100
AcDbEntity
  8
Layer_1
 62
7
100
AcDbLine
 10
11.396773
 20
3.549031
 30
0.0
 11
11.047335
 21
4.520864
 31
0.0
  0
LINE
  5
180
100
AcDbEntity
  8
Layer_1
 62
7
100
AcDbLine
 10
11.047335
 20
4.520864
 30
0.0
 11
11.211587
 21
4.588089
 31
0.0
  0
LINE
  5
181
100
AcDbEntity
  8
Layer_1
 62
7
100
AcDbLine
 10
11.211587
 20
4.588089
 30
0.0
 11
11.857027
 21
5.059823
 31
0.0
  0
LINE
  5
182
100
AcDbEntity
  8
Layer_1
 62
7
100
AcDbLine
 10
11.857027
 20
5.059823
 30
0.0
 11
12.548552
 21
5.853009
 31
0.0
  0
LINE
  5
183
100
AcDbEntity
  8
Layer_1
 62
7
100
AcDbLine
 10
12.548552
 20
5.853009
 30
0.0
 11
12.239208
 21
6.474999
 31
0.0
  0
LINE
  5
184
100
AcDbEntity
  8
Layer_1
 62
7
100
AcDbLine
 10
12.239208
 20
6.474999
 30
0.0
 11
11.189434
 21
6.402129
 31
0.0
  0
LINE
  5
185
100
AcDbEntity
  8
Layer_1
 62
7
100
AcDbLine
 10
11.189434
 20
6.402129
 30
0.0
 11
10.423799
 21
6.172061
 31
0.0
  0
LINE
  5
186
100
AcDbEntity
  8
Layer_1
 62
7
100
AcDbLine
 10
10.423799
 20
6.172061
 30
0.0
 11
10.271087
 21
6.081637
 31
0.0
  0
LINE
  5
187
100
AcDbEntity
  8
Layer_1
 62
7
100
AcDbLine
 10
10.271087
 20
6.081637
 30
0.0
 11
9.706948
 21
6.946705
 31
0.0
  0
LINE
  5
188
100
AcDbEntity
  8
Layer_1
 62
7
100
AcDbLine
 10
9.706948
 20
6.946705
 30
0.0
 11
9.851272
 21
7.049998
 31
0.0
  0
LINE
  5
189
100
AcDbEntity
  8
Layer_1
 62
7
100
AcDbLine
 10
9.851272
 20
7.049998
 30
0.0
 11
10.370524
 21
7.657848
 31
0.0
  0
LINE
  5
18a
100
AcDbEntity
  8
Layer_1
 62
7
100
AcDbLine
 10
10.370524
 20
7.657848
 30
0.0
 11
10.860490
 21
8.589125
 31
0.0
  0
LINE
  5
18b
100
AcDbEntity
  8
Layer_1
 62
7
100
AcDbLine
 10
10.860490
 20
8.589125
 30
0.0
 11
10.416041
 21
9.123005
 31
0.0
  0
LINE
  5
18c
100
AcDbEntity
  8
Layer_1
 62
7
100
AcDbLine
 10
10.416041
 20
9.123005
 30
0.0
 11
9.411370
 21
8.810021
 31
0.0
  0
LINE
  5
18d
100
AcDbEntity
  8
Layer_1
 62
7
100
AcDbLine
 10
9.411370
 20
8.810021
 30
0.0
 11
8.719425
 21
8.409604
 31
0.0
  0
LINE
  5
18e
100
AcDbEntity
  8
Layer_1
 62
7
100
AcDbLine
 10
8.719425
 20
8.409604
 30
0.0
 11
8.591683
 21
8.286385
 31
0.0
  0
LINE
  5
18f
100
AcDbEntity
  8
Layer_1
 62
7
100
AcDbLine
 10
8.591683
 20
8.286385
 30
0.0
 11
7.843256
 21
8.998037
 31
0.0
  0
LINE
  5
190
100
AcDbEntity
  8
Layer_1
 62
7
100
AcDbLine
 10
7.843256
 20
8.998037
 30
0.0
 11
7.959870
 21
9.131810
 31
0.0
  0
LINE
  5
191
100
AcDbEntity
  8
Layer_1
 62
7
100
AcDbLine
 10
7.959870
 20
9.131810
 30
0.0
 11
8.324942
 21
9.843039
 31
0.0
  0
LINE
  5
192
100
AcDbEntity
  8
Layer_1
 62
7
100
AcDbLine
 10
8.324942
 20
9.843039
 30
0.0
 11
8.586933
 21
10.862199
 31
0.0
  0
LINE
  5
193
100
AcDbEntity
  8
Layer_1
 62
7
100
AcDbLine
 10
8.586933
 20
10.862199
 30
0.0
 11
8.031346
 21
11.279211
 31
0.0
  0
LINE
  5
194
100
AcDbEntity
  8
Layer_1
 62
7
100
AcDbLine
 10
8.031346
 20
11.279211
 30
0.0
 11
7.125933
 21
10.742961
 31
0.0
  0
LINE
  5
195
100
AcDbEntity
  8
Layer_1
 62
7
100
AcDbLine
 10
7.125933
 20
10.742961
 30
0.0
 11
6.544985
 21
10.193756
 31
0.0
  0
LINE
  5
196
100
AcDbEntity
  8
Layer_1
 62
7
100
AcDbLine
 10
6.544985
 20
10.193756
 30
0.0
 11
6.449099
 21
10.044404
 31
0.0
  0
LINE
  5
197
100
AcDbEntity
  8
Layer_1
 62
7
100
AcDbLine
 10
6.449099
 20
10.044404
 30
0.0
 11
5.556732
 21
10.564257
 31
0.0
  0
LINE
  5
198
100
AcDbEntity
  8
Layer_1
 62
7
100
AcDbLine
 10
5.556732
 20
10.564257
 30
0.0
 11
5.639350
 21
10.721342
 31
0.0
  0
LINE
  5
199
100
AcDbEntity
  8
Layer_1
 62
7
100
AcDbLine
 10
5.639350
 20
10.721342
 30
0.0
 11
5.830558
 21
11.497595
 31
0.0
  0
LINE
  5
19a
100
AcDbEntity
  8
Layer_1
 62
7
100
AcDbLine
 10
5.830558
 20
11.497595
 30
0.0
 11
5.850452
 21
12.549691
 31
0.0
  0
LINE
  5
19b
100
AcDbEntity
  8
Layer_1
 62
7
100
AcDbLine
 10
5.850452
 20
12.549691
 30
0.0
 11
5.213675
 21
12.827341
 31
0.0
  0
LINE
  5
19c
100
AcDbEntity
  8
Layer_1
 62
7
100
AcDbLine
 10
5.213675
 20
12.827341
 30
0.0
 11
4.456336
 21
12.096752
 31
0.0
  0
LINE
  5
19d
100
AcDbEntity
  8
Layer_1
 62
7
100
AcDbLine
 10
4.456336
 20
12.096752
 30
0.0
 11
4.017703
 21
11.428365
 31
0.0
  0
LINE
  5
19e
100
AcDbEntity
  8
Layer_1
 62
7
100
AcDbLine
 10
4.017703
 20
11.428365
 30
0.0
 11
3.958842
 21
11.260923
 31
0.0
  0
LINE
  5
19f
100
AcDbEntity
  8
Layer_1
 62
7
100
AcDbLine
 10
3.958842
 20
11.260923
 30
0.0
 11
2.970639
 21
11.560982
 31
0.0
  0
LINE
  5
1a0
100
AcDbEntity
  8
Layer_1
 62
7
100
AcDbLine
 10
2.970639
 20
11.560982
 30
0.0
 11
3.014808
 21
11.732883
 31
0.0
  0
LINE
  5
1a1
100
AcDbEntity
  8
Layer_1
 62
7
100
AcDbLine
 10
3.014808
 20
11.732883
 30
0.0
 11
3.021850
 21
12.532306
 31
0.0
  0
LINE
  5
1a2
100
AcDbEntity
  8
Layer_1
 62
7
100
AcDbLine
 10
3.021850
 20
12.532306
 30
0.0
 11
2.798574
 21
13.560639
 31
0.0
  0
LINE
  5
1a3
100
AcDbEntity
  8
Layer_1
 62
7
100
AcDbLine
 10
2.798574
 20
13.560639
 30
0.0
 11
2.114937
 21
13.683914
 31
0.0
  0
LINE
  5
1a4
100
AcDbEntity
  8
Layer_1
 62
7
100
AcDbLine
 10
2.114937
 20
13.683914
 30
0.0
 11
1.546495
 21
12.798357
 31
0.0
  0
LINE
  5
1a5
100
AcDbEntity
  8
Layer_1
 62
7
100
AcDbLine
 10
1.546495
 20
12.798357
 30
0.0
 11
1.273826
 21
12.046855
 31
0.0
  0
LINE
  5
1a6
100
AcDbEntity
  8
Layer_1
 62
7
100
AcDbLine
 10
1.273826
 20
12.046855
 30
0.0
 11
1.255163
 21
11.870354
 31
0.0
  0
LINE
  5
1a7
100
AcDbEntity
  8
Layer_1
 62
7
100
AcDbLine
 10
1.255163
 20
11.870354
 30
0.0
 11
0.224402
 21
11.934418
 31
0.0
  0
LINE
  5
1a8
100
AcDbEntity
  8
Layer_1
 62
7
100
AcDbLine
 10
0.224402
 20
11.934418
 30
0.0
 11
0.227738
 21
12.111879
 31
0.0
  0
LINE
  5
1a9
100
AcDbEntity
  8
Layer_1
 62
7
100
AcDbLine
 10
0.227738
 20
12.111879
 30
0.0
 11
0.050228
 21
12.891377
 31
0.0
  0
LINE
  5
1aa
100
AcDbEntity
  8
Layer_1
 62
7
100
AcDbLine
 10
0.050228
 20
12.891377
 30
0.0
 11
-0.404178
 21
13.840491
 31
0.0
  0
LINE
  5
1ab
100
AcDbEntity
  8
Layer_1
 62
7
100
AcDbLine
 10
-0.404178
 20
13.840491
 30
0.0
 11
-1.097823
 21
13.802814
 31
0.0
  0
LINE
  5
1ac
100
AcDbEntity
  8
Layer_1
 62
7
100
AcDbLine
 10
-1.097823
 20
13.802814
 30
0.0
 11
-1.446718
 21
12.810041
 31
0.0
  0
LINE
  5
1ad
100
AcDbEntity
  8
Layer_1
 62
7
100
AcDbLine
 10
-1.446718
 20
12.810041
 30
0.0
 11
-1.538724
 21
12.015896
 31
0.0
  0
LINE
  5
1ae
100
AcDbEntity
  8
Layer_1
 62
7
100
AcDbLine
 10
-1.538724
 20
12.015896
 30
0.0
 11
-1.516183
 21
11.839845
 31
0.0
  0
LINE
  5
1af
100
AcDbEntity
  8
Layer_1
 62
7
100
AcDbLine
 10
-1.516183
 20
11.839845
 30
0.0
 11
-2.533935
 21
11.664473
 31
0.0
  0
LINE
  5
1b0
100
AcDbEntity
  8
Layer_1
 62
7
100
AcDbLine
 10
-2.533935
 20
11.664473
 30
0.0
 11
-2.571610
 21
11.837926
 31
0.0
  0
LINE
  5
1b1
100
AcDbEntity
  8
Layer_1
 62
7
100
AcDbLine
 10
-2.571610
 20
11.837926
 30
0.0
 11
-2.924098
 21
12.555476
 31
0.0
  0
LINE
  5
1b2
100
AcDbEntity
  8
Layer_1
 62
7
100
AcDbLine
 10
-2.924098
 20
12.555476
 30
0.0
 11
-3.585140
 21
13.374203
 31
0.0
  0
LINE
  5
1b3
100
AcDbEntity
  8
Layer_1
 62
7
100
AcDbLine
 10
-3.585140
 20
13.374203
 30
0.0
 11
-4.251396
 21
13.177579
 31
0.0
  0
LINE
  5
1b4
100
AcDbEntity
  8
Layer_1
 62
7
100
AcDbLine
 10
-4.251396
 20
13.177579
 30
0.0
 11
-4.361937
 21
12.131099
 31
0.0
  0
LINE
  5
1b5
100
AcDbEntity
  8
Layer_1
 62
7
100
AcDbLine
 10
-4.361937
 20
12.131099
 30
0.0
 11
-4.268323
 21
11.337151
 31
0.0
  0
LINE
  5
1b6
100
AcDbEntity
  8
Layer_1
 62
7
100
AcDbLine
 10
-4.268323
 20
11.337151
 30
0.0
 11
-4.205791
 21
11.171063
 31
0.0
  0
LINE
  5
1b7
100
AcDbEntity
  8
Layer_1
 62
7
100
AcDbLine
 10
-4.205791
 20
11.171063
 30
0.0
 11
-5.155668
 21
10.765708
 31
0.0
  0
LINE
  5
1b8
100
AcDbEntity
  8
Layer_1
 62
7
100
AcDbLine
 10
-5.155668
 20
10.765708
 30
0.0
 11
-5.232321
 21
10.925756
 31
0.0
  0
LINE
  5
1b9
100
AcDbEntity
  8
Layer_1
 62
7
100
AcDbLine
 10
-5.232321
 20
10.925756
 30
0.0
 11
-5.740789
 21
11.542694
 31
0.0
  0
LINE
  5
1ba
100
AcDbEntity
  8
Layer_1
 62
7
100
AcDbLine
 10
-5.740789
 20
11.542694
 30
0.0
 11
-6.572828
 21
12.186922
 31
0.0
  0
LINE
  5
1bb
100
AcDbEntity
  8
Layer_1
 62
7
100
AcDbLine
 10
-6.572828
 20
12.186922
 30
0.0
 11
-7.175776
 21
11.841934
 31
0.0
  0
LINE
  5
1bc
100
AcDbEntity
  8
Layer_1
 62
7
100
AcDbLine
 10
-7.175776
 20
11.841934
 30
0.0
 11
-7.042006
 21
10.798163
 31
0.0
  0
LINE
  5
1bd
100
AcDbEntity
  8
Layer_1
 62
7
100
AcDbLine
 10
-7.042006
 20
10.798163
 30
0.0
 11
-6.767817
 21
10.047226
 31
0.0
  0
LINE
  5
1be
100
AcDbEntity
  8
Layer_1
 62
7
100
AcDbLine
 10
-6.767817
 20
10.047226
 30
0.0
 11
-6.668667
 21
9.900019
 31
0.0
  0
LINE
  5
1bf
100
AcDbEntity
  8
Layer_1
 62
7
100
AcDbLine
 10
-6.668667
 20
9.900019
 30
0.0
 11
-7.499455
 21
9.286525
 31
0.0
  0
LINE
  5
1c0
100
AcDbEntity
  8
Layer_1
 62
7
100
AcDbLine
 10
-7.499455
 20
9.286525
 30
0.0
 11
-7.610959
 21
9.424616
 31
0.0
  0
LINE
  5
1c1
100
AcDbEntity
  8
Layer_1
 62
7
100
AcDbLine
 10
-7.610959
 20
9.424616
 30
0.0
 11
-8.247992
 21
9.907639
 31
0.0
  0
LINE
  5
1c2
100
AcDbEntity
  8
Layer_1
 62
7
100
AcDbLine
 10
-8.247992
 20
9.907639
 30
0.0
 11
-9.206173
 21
10.342628
 31
0.0
  0
LINE
  5
1c3
100
AcDbEntity
  8
Layer_1
 62
7
100
AcDbLine
 10
-9.206173
 20
10.342628
 30
0.0
 11
-9.713309
 21
9.867874
 31
0.0
  0
LINE
  5
1c4
100
AcDbEntity
  8
Layer_1
 62
7
100
AcDbLine
 10
-9.713309
 20
9.867874
 30
0.0
 11
-9.342437
 21
8.883116
 31
0.0
  0
LINE
  5
1c5
100
AcDbEntity
  8
Layer_1
 62
7
100
AcDbLine
 10
-9.342437
 20
8.883116
 30
0.0
 11
-8.902454
 21
8.215632
 31
0.0
  0
LINE
  5
1c6
100
AcDbEntity
  8
Layer_1
 62
7
100
AcDbLine
 10
-8.902454
 20
8.215632
 30
0.0
 11
-8.772032
 21
8.095265
 31
0.0
  0
LINE
  5
1c7
100
AcDbEntity
  8
Layer_1
 62
7
100
AcDbLine
 10
-8.772032
 20
8.095265
 30
0.0
 11
-9.438948
 21
7.306707
 31
0.0
  0
LINE
  5
1c8
100
AcDbEntity
  8
Layer_1
 62
7
100
AcDbLine
 10
-9.438948
 20
7.306707
 30
0.0
 11
-9.579286
 21
7.415363
 31
0.0
  0
LINE
  5
1c9
100
AcDbEntity
  8
Layer_1
 62
7
100
AcDbLine
 10
-9.579286
 20
7.415363
 30
0.0
 11
-10.310542
 21
7.738451
 31
0.0
  0
LINE
  5
1ca
100
AcDbEntity
  8
Layer_1
 62
7
100
AcDbLine
 10
-10.310542
 20
7.738451
 30
0.0
 11
-11.343212
 21
7.940748
 31
0.0
  0
LINE
  5
1cb
100
AcDbEntity
  8
Layer_1
 62
7
100
AcDbLine
 10
-11.343212
 20
7.940748
 30
0.0
 11
-11.727199
 21
7.361854
 31
0.0
  0
LINE
  5
1cc
100
AcDbEntity
  8
Layer_1
 62
7
100
AcDbLine
 10
-11.727199
 20
7.361854
 30
0.0
 11
-11.139217
 21
6.489166
 31
0.0
  0
LINE
  5
1cd
100
AcDbEntity
  8
Layer_1
 62
7
100
AcDbLine
 10
-11.139217
 20
6.489166
 30
0.0
 11
-10.557161
 21
5.941119
 31
0.0
  0
LINE
  5
1ce
100
AcDbEntity
  8
Layer_1
 62
7
100
AcDbLine
 10
-10.557161
 20
5.941119
 30
0.0
 11
-10.402494
 21
5.854081
 31
0.0
  0
LINE
  5
1cf
100
AcDbEntity
  8
Layer_1
 62
7
100
AcDbLine
 10
-10.402494
 20
5.854081
 30
0.0
 11
-10.869587
 21
4.932993
 31
0.0
  0
LINE
  5
1d0
100
AcDbEntity
  8
Layer_1
 62
7
100
AcDbLine
 10
-10.869587
 20
4.932993
 30
0.0
 11
-11.031196
 21
5.006342
 31
0.0
  0
LINE
  5
1d1
100
AcDbEntity
  8
Layer_1
 62
7
100
AcDbLine
 10
-11.031196
 20
5.006342
 30
0.0
 11
-11.817252
 21
5.152082
 31
0.0
  0
LINE
  5
1d2
100
AcDbEntity
  8
Layer_1
 62
7
100
AcDbLine
 10
-11.817252
 20
5.152082
 30
0.0
 11
-12.868738
 21
5.110793
 31
0.0
  0
LINE
  5
1d3
100
AcDbEntity
  8
Layer_1
 62
7
100
AcDbLine
 10
-12.868738
 20
5.110793
 30
0.0
 11
-13.108869
 21
4.458944
 31
0.0
  0
LINE
  5
1d4
100
AcDbEntity
  8
Layer_1
 62
7
100
AcDbLine
 10
-13.108869
 20
4.458944
 30
0.0
 11
-12.335478
 21
3.745345
 31
0.0
  0
LINE
  5
1d5
100
AcDbEntity
  8
Layer_1
 62
7
100
AcDbLine
 10
-12.335478
 20
3.745345
 30
0.0
 11
-11.642726
 21
3.346339
 31
0.0
  0
LINE
  5
1d6
100
AcDbEntity
  8
Layer_1
 62
7
100
AcDbLine
 10
-11.642726
 20
3.346339
 30
0.0
 11
-11.472158
 21
3.297317
 31
0.0
  0
LINE
  5
1d7
100
AcDbEntity
  8
Layer_1
 62
7
100
AcDbLine
 10
-11.472158
 20
3.297317
 30
0.0
 11
-11.714229
 21
2.293425
 31
0.0
  0
ENDSEC
  0
SECTION
  2
OBJECTS
  0
DICTIONARY
  5
C
330
0
100
AcDbDictionary
  3
ACAD_GROUP
350
D
  3
ACAD_MLINESTYLE
350
17
  0
DICTIONARY
  5
D
330
C
100
AcDbDictionary
  0
DICTIONARY
  5
1A
330
C
100
AcDbDictionary
  0
DICTIONARY
  5
17
330
C
100
AcDbDictionary
  3
STANDARD
350
18
  0
DICTIONARY
  5
19
330
C
100
AcDbDictionary
  0
ENDSEC
  0
EOF
