<?xml version="1.0" encoding="UTF-8" standalone="no"?>
<!-- Created with Inkscape (http://www.inkscape.org/) -->

<svg
   xmlns:dc="http://purl.org/dc/elements/1.1/"
   xmlns:cc="http://creativecommons.org/ns#"
   xmlns:rdf="http://www.w3.org/1999/02/22-rdf-syntax-ns#"
   xmlns:svg="http://www.w3.org/2000/svg"
   xmlns="http://www.w3.org/2000/svg"
   xmlns:sodipodi="http://sodipodi.sourceforge.net/DTD/sodipodi-0.dtd"
   xmlns:inkscape="http://www.inkscape.org/namespaces/inkscape"
   width="744.09448"
   height="1052.3622"
   id="svg2"
   version="1.1"
   inkscape:version="0.48.4 r9939"
   sodipodi:docname="покрышка.svg">
  <defs
     id="defs4" />
  <sodipodi:namedview
     id="base"
     pagecolor="#ffffff"
     bordercolor="#666666"
     borderopacity="1.0"
     inkscape:pageopacity="0.0"
     inkscape:pageshadow="2"
     inkscape:zoom="1.12"
     inkscape:cx="40.174949"
     inkscape:cy="-9.2145697"
     inkscape:document-units="mm"
     inkscape:current-layer="layer1"
     showgrid="false"
     units="mm"
     inkscape:snap-bbox="true"
     inkscape:snap-bbox-midpoints="true"
     inkscape:window-width="1366"
     inkscape:window-height="705"
     inkscape:window-x="-8"
     inkscape:window-y="-8"
     inkscape:window-maximized="1"
     showguides="true"
     inkscape:guide-bbox="true">
    <sodipodi:guide
       orientation="0,1"
       position="82.832509,0"
       id="guide2987" />
    <sodipodi:guide
       orientation="1,0"
       position="0,-38.385797"
       id="guide2989" />
  </sodipodi:namedview>
  <metadata
     id="metadata7">
    <rdf:RDF>
      <cc:Work
         rdf:about="">
        <dc:format>image/svg+xml</dc:format>
        <dc:type
           rdf:resource="http://purl.org/dc/dcmitype/StillImage" />
        <dc:title />
      </cc:Work>
    </rdf:RDF>
  </metadata>
  <g
     inkscape:label="Layer 1"
     inkscape:groupmode="layer"
     id="layer1"
     transform="translate(0,-2.5390623e-6)">
    <path
       style="fill:#ffcc00;fill-opacity:1;stroke:#000000;stroke-width:0.45327109;stroke-miterlimit:4;stroke-opacity:1;stroke-dasharray:none"
       d="M 6.8125 949.875 L 2.625 958.375 L 0 958.375 L -10.09375 958.90625 L -14.96875 950.6875 L -25.15625 952.71875 L -26.53125 962.15625 L -38.5 966.5625 L -45.65625 960.3125 L -54.71875 965.40625 L -53.09375 974.78125 L -63.09375 982.65625 L -71.84375 978.9375 L -78.90625 986.59375 L -74.46875 995.03125 L -81.5625 1005.5938 L -91.03125 1004.7188 L -95.40625 1014.1562 L -88.5625 1020.8125 L -92.03125 1033.0938 L -101.28125 1035.1875 L -102.5 1045.5 L -93.96875 1049.7188 L -94 1052.375 L -93.46875 1062.4688 L -101.625 1067.3125 L -99.625 1077.5312 L -90.1875 1078.9062 L -85.78125 1090.8438 L -92.03125 1098 L -86.96875 1107.0625 L -77.5625 1105.4688 L -69.65625 1115.4375 L -73.4375 1124.1875 L -65.78125 1131.25 L -57.34375 1126.8125 L -46.75 1133.9062 L -47.625 1143.4062 L -38.1875 1147.75 L -31.53125 1140.9375 L -19.28125 1144.375 L -17.1875 1153.6562 L -6.8125 1154.875 L -2.625 1146.3125 L 0 1146.3438 L 10.09375 1145.8125 L 14.96875 1154 L 25.15625 1151.9688 L 26.53125 1142.5312 L 38.46875 1138.125 L 45.65625 1144.4062 L 54.71875 1139.3125 L 53.09375 1129.9062 L 63.09375 1122.0312 L 71.84375 1125.7812 L 78.90625 1118.125 L 74.46875 1109.6875 L 81.53125 1099.125 L 91.03125 1099.9688 L 95.40625 1090.5625 L 88.5625 1083.9062 L 92.03125 1071.625 L 101.28125 1069.5312 L 102.5 1059.1875 L 93.96875 1054.9688 L 94 1052.375 L 93.46875 1042.2812 L 101.625 1037.375 L 99.625 1027.1875 L 90.1875 1025.8125 L 85.78125 1013.875 L 92.03125 1006.6875 L 86.96875 997.625 L 77.5625 999.25 L 69.65625 989.25 L 73.4375 980.5 L 65.78125 973.4375 L 57.34375 977.875 L 46.75 970.8125 L 47.625 961.3125 L 38.1875 956.96875 L 31.53125 963.8125 L 19.28125 960.375 L 17.15625 951.03125 L 6.8125 949.875 z M 5.875 963.96875 L 14.78125 965 L 16.625 973.03125 L 27.1875 976 L 32.9375 970.09375 L 41.0625 973.84375 L 40.3125 982.03125 L 49.4375 988.125 L 56.71875 984.3125 L 63.3125 990.40625 L 60.09375 997.9375 L 66.875 1006.5625 L 74.96875 1005.1562 L 79.375 1012.9688 L 73.96875 1019.1562 L 77.78125 1029.4688 L 85.90625 1030.6562 L 87.65625 1039.4375 L 80.59375 1043.6562 L 81.0625 1052.375 L 81.03125 1054.625 L 88.375 1058.25 L 87.34375 1067.1562 L 79.34375 1068.9688 L 76.375 1079.5625 L 82.25 1085.3125 L 78.5 1093.4375 L 70.3125 1092.6875 L 64.21875 1101.7812 L 68.03125 1109.0625 L 61.9375 1115.6562 L 54.40625 1112.4375 L 45.78125 1119.25 L 47.1875 1127.3438 L 39.375 1131.7188 L 33.1875 1126.3125 L 22.875 1130.125 L 21.6875 1138.2812 L 12.90625 1140 L 8.6875 1132.9375 L 0 1133.4062 L -2.25 1133.375 L -5.875 1140.75 L -14.8125 1139.7188 L -16.625 1131.6875 L -27.1875 1128.7188 L -32.9375 1134.625 L -41.0625 1130.875 L -40.3125 1122.6875 L -49.4375 1116.5625 L -56.71875 1120.4062 L -63.3125 1114.3125 L -60.09375 1106.75 L -66.875 1098.1562 L -74.96875 1099.5312 L -79.375 1091.7188 L -73.96875 1085.5312 L -77.78125 1075.25 L -85.90625 1074.0625 L -87.65625 1065.2812 L -80.59375 1061.0625 L -81.0625 1052.375 L -81.03125 1050.0938 L -88.375 1046.4688 L -87.34375 1037.5625 L -79.34375 1035.75 L -76.375 1025.1562 L -82.25 1019.4062 L -78.5 1011.2812 L -70.34375 1012.0312 L -64.21875 1002.9062 L -68.03125 995.625 L -61.9375 989.03125 L -54.40625 992.25 L -45.78125 985.46875 L -47.1875 977.375 L -39.375 973 L -33.1875 978.375 L -22.875 974.59375 L -21.6875 966.4375 L -12.90625 964.6875 L -8.6875 971.78125 L 0 971.3125 L 2.25 971.3125 L 5.875 963.96875 z "
       transform="translate(0,2.5390623e-6)"
       id="path3002-1" />
  </g>
</svg>
