  0
SECTION
  2
HEADER
  9
$ACADVER
  1
AC1014
  9
$HANDSEED
  5
FFFF
  9
$MEASUREMENT
 70
     1
  0
ENDSEC
  0
SECTION
  2
TABLES
  0
TABLE
  2
VPORT
  5
8
330
0
100
AcDbSymbolTable
 70
     4
  0
VPORT
  5
2E
330
8
100
AcDbSymbolTableRecord
100
AcDbViewportTableRecord
  2
*ACTIVE
 70
     0
 10
0.0
 20
0.0
 11
1.0
 21
1.0
 12
210.0
 22
148.5
 13
0.0
 23
0.0
 14
10.0
 24
10.0
 15
10.0
 25
10.0
 16
0.0
 26
0.0
 36
1.0
 17
0.0
 27
0.0
 37
0.0
 40
341.0
 41
1.24
 42
50.0
 43
0.0
 44
0.0
 50
0.0
 51
0.0
 71
     0
 72
   100
 73
     1
 74
     3
 75
     0
 76
     0
 77
     0
 78
     0
  0
ENDTAB
  0
TABLE
  2
LTYPE
  5
5
330
0
100
AcDbSymbolTable
 70
     1
  0
LTYPE
  5
14
330
5
100
AcDbSymbolTableRecord
100
AcDbLinetypeTableRecord
  2
BYBLOCK
 70
     0
  3

 72
    65
 73
     0
 40
0.0
  0
LTYPE
  5
15
330
5
100
AcDbSymbolTableRecord
100
AcDbLinetypeTableRecord
  2
BYLAYER
 70
     0
  3

 72
    65
 73
     0
 40
0.0
  0
LTYPE
  5
16
330
5
100
AcDbSymbolTableRecord
100
AcDbLinetypeTableRecord
  2
CONTINUOUS
 70
     0
  3
Solid line
 72
    65
 73
     0
 40
0.0
  0
ENDTAB
  0
TABLE
  2
LAYER
  5
2
100
AcDbSymbolTable
 70
2
  0
LAYER
  5
50
100
AcDbSymbolTableRecord
100
AcDbLayerTableRecord
  2
0
 70
0
  6
CONTINUOUS
  0
LAYER
  5
51
100
AcDbSymbolTableRecord
100
AcDbLayerTableRecord
  2
Layer_1
 70
0
  6
CONTINUOUS
  0
ENDTAB
  0
TABLE
  2
STYLE
  5
3
330
0
100
AcDbSymbolTable
 70
     1
  0
STYLE
  5
11
330
3
100
AcDbSymbolTableRecord
100
AcDbTextStyleTableRecord
  2
STANDARD
 70
     0
 40
0.0
 41
1.0
 50
0.0
 71
     0
 42
2.5
  3
txt
  4

  0
ENDTAB
  0
TABLE
  2
VIEW
  5
6
330
0
100
AcDbSymbolTable
 70
     0
  0
ENDTAB
  0
TABLE
  2
UCS
  5
7
330
0
100
AcDbSymbolTable
 70
     0
  0
ENDTAB
  0
TABLE
  2
APPID
  5
9
330
0
100
AcDbSymbolTable
 70
     2
  0
APPID
  5
12
330
9
100
AcDbSymbolTableRecord
100
AcDbRegAppTableRecord
  2
ACAD
 70
     0
  0
ENDTAB
  0
TABLE
  2
DIMSTYLE
  5
A
330
0
100
AcDbSymbolTable
 70
     1
  0
DIMSTYLE
105
27
330
A
100
AcDbSymbolTableRecord
100
AcDbDimStyleTableRecord
  2
ISO-25
 70
     0
  3

  4

  5

  6

  7

 40
1.0
 41
2.5
 42
0.625
 43
3.75
 44
1.25
 45
0.0
 46
0.0
 47
0.0
 48
0.0
140
2.5
141
2.5
142
0.0
143
0.03937007874016
144
1.0
145
0.0
146
1.0
147
0.625
 71
     0
 72
     0
 73
     0
 74
     0
 75
     0
 76
     0
 77
     1
 78
     8
170
     0
171
     3
172
     1
173
     0
174
     0
175
     0
176
     0
177
     0
178
     0
270
     2
271
     2
272
     2
273
     2
274
     3
340
11
275
     0
280
     0
281
     0
282
     0
283
     0
284
     8
285
     0
286
     0
287
     3
288
     0
  0
ENDTAB
  0
TABLE
  2
BLOCK_RECORD
  5
1
330
0
100
AcDbSymbolTable
 70
     1
  0
BLOCK_RECORD
  5
1F
330
1
100
AcDbSymbolTableRecord
100
AcDbBlockTableRecord
  2
*MODEL_SPACE
  0
BLOCK_RECORD
  5
1B
330
1
100
AcDbSymbolTableRecord
100
AcDbBlockTableRecord
  2
*PAPER_SPACE
  0
ENDTAB
  0
ENDSEC
  0
SECTION
  2
BLOCKS
  0
BLOCK
  5
20
330
1F
100
AcDbEntity
  8
0
100
AcDbBlockBegin
  2
*MODEL_SPACE
 70
     0
 10
0.0
 20
0.0
 30
0.0
  3
*MODEL_SPACE
  1

  0
ENDBLK
  5
21
330
1F
100
AcDbEntity
  8
0
100
AcDbBlockEnd
  0
BLOCK
  5
1C
330
1B
100
AcDbEntity
 67
     1
  8
0
100
AcDbBlockBegin
  2
*PAPER_SPACE
  1

  0
ENDBLK
  5
1D
330
1B
100
AcDbEntity
 67
     1
  8
0
100
AcDbBlockEnd
  0
ENDSEC
  0
SECTION
  2
ENTITIES
  0
LWPOLYLINE
  5
100
100
AcDbEntity
  8
Layer_1
 62
7
100
AcDbPolyline
 90
85
 70
0
 10
1.661600
 20
24.944909
 30
0.0
 10
0.637471
 20
22.870547
 30
0.0
 10
0.000003
 20
22.875627
 30
0.0
 10
-2.455815
 20
22.744987
 30
0.0
 10
-3.641923
 20
24.741003
 30
0.0
 10
-6.123867
 20
24.249824
 30
0.0
 10
-6.458277
 20
21.950785
 30
0.0
 10
-9.368683
 20
20.879611
 30
0.0
 10
-11.108655
 20
22.400139
 30
0.0
 10
-13.313669
 20
21.161776
 30
0.0
 10
-12.921781
 20
18.878373
 30
0.0
 10
-15.351474
 20
16.960758
 30
0.0
 10
-17.483333
 20
17.869936
 30
0.0
 10
-19.202408
 20
16.009782
 30
0.0
 10
-18.120803
 20
13.956313
 30
0.0
 10
-19.850325
 20
11.385579
 30
0.0
 10
-22.154613
 20
11.594536
 30
0.0
 10
-23.215320
 20
9.300690
 30
0.0
 10
-21.553723
 20
7.680904
 30
0.0
 10
-22.394971
 20
4.692114
 30
0.0
 10
-24.652235
 20
4.180050
 30
0.0
 10
-24.944843
 20
1.666777
 30
0.0
 10
-22.870459
 20
0.642649
 30
0.0
 10
-22.875680
 20
-0.000056
 30
0.0
 10
-22.745051
 20
-2.455869
 30
0.0
 10
-24.735832
 20
-3.641964
 30
0.0
 10
-24.244675
 20
-6.123911
 30
0.0
 10
-21.950837
 20
-6.458344
 30
0.0
 10
-20.874456
 20
-9.363512
 30
0.0
 10
-22.400200
 20
-11.108718
 30
0.0
 10
-21.161840
 20
-13.313720
 30
0.0
 10
-18.873227
 20
-12.921826
 30
0.0
 10
-16.955597
 20
-15.351534
 30
0.0
 10
-17.869997
 20
-17.483384
 30
0.0
 10
-16.009845
 20
-19.202484
 30
0.0
 10
-13.956362
 20
-18.120839
 30
0.0
 10
-11.380367
 20
-19.845160
 30
0.0
 10
-11.589373
 20
-22.154670
 30
0.0
 10
-9.295534
 20
-23.215374
 30
0.0
 10
-7.675738
 20
-21.553762
 30
0.0
 10
-4.692180
 20
-22.389789
 30
0.0
 10
-4.180116
 20
-24.652280
 30
0.0
 10
-1.661596
 20
-24.944888
 30
0.0
 10
-0.637467
 20
-22.865277
 30
0.0
 10
0.000001
 20
-22.875719
 30
0.0
 10
2.455819
 20
-22.739857
 30
0.0
 10
3.641927
 20
-24.735874
 30
0.0
 10
6.123871
 20
-24.244694
 30
0.0
 10
6.458280
 20
-21.945628
 30
0.0
 10
9.363461
 20
-20.874481
 30
0.0
 10
11.108660
 20
-22.400231
 30
0.0
 10
13.313672
 20
-21.161868
 30
0.0
 10
12.921786
 20
-18.873244
 30
0.0
 10
15.351479
 20
-16.955628
 30
0.0
 10
17.483338
 20
-17.864807
 30
0.0
 10
19.202411
 20
-16.004652
 30
0.0
 10
18.120806
 20
-13.951175
 30
0.0
 10
19.845104
 20
-11.380385
 30
0.0
 10
22.154618
 20
-11.589398
 30
0.0
 10
23.215323
 20
-9.295581
 30
0.0
 10
21.553726
 20
-7.675766
 30
0.0
 10
22.394975
 20
-4.686948
 30
0.0
 10
24.652238
 20
-4.174941
 30
0.0
 10
24.944846
 20
-1.661611
 30
0.0
 10
22.870463
 20
-0.637455
 30
0.0
 10
22.875678
 20
-0.000028
 30
0.0
 10
22.745050
 20
2.455786
 30
0.0
 10
24.735830
 20
3.647130
 30
0.0
 10
24.244667
 20
6.129049
 30
0.0
 10
21.950828
 20
6.463482
 30
0.0
 10
20.874448
 20
9.368650
 30
0.0
 10
22.400190
 20
11.113855
 30
0.0
 10
21.161831
 20
13.318886
 30
0.0
 10
18.873217
 20
12.926992
 30
0.0
 10
16.955588
 20
15.356663
 30
0.0
 10
17.869989
 20
17.488513
 30
0.0
 10
16.009845
 20
19.207529
 30
0.0
 10
13.956363
 20
18.125912
 30
0.0
 10
11.380367
 20
19.844984
 30
0.0
 10
11.589372
 20
22.159714
 30
0.0
 10
9.295533
 20
23.215197
 30
0.0
 10
7.675738
 20
21.553614
 30
0.0
 10
4.692180
 20
22.389641
 30
0.0
 10
4.174890
 20
24.657353
 30
0.0
 10
1.661600
 20
24.944909
 30
0.0
  0
ENDSEC
  0
SECTION
  2
OBJECTS
  0
DICTIONARY
  5
C
330
0
100
AcDbDictionary
  3
ACAD_GROUP
350
D
  3
ACAD_MLINESTYLE
350
17
  0
DICTIONARY
  5
D
330
C
100
AcDbDictionary
  0
DICTIONARY
  5
1A
330
C
100
AcDbDictionary
  0
DICTIONARY
  5
17
330
C
100
AcDbDictionary
  3
STANDARD
350
18
  0
DICTIONARY
  5
19
330
C
100
AcDbDictionary
  0
ENDSEC
  0
EOF

  0
ENDSEC
  0
EOF
