<?xml version="1.0" encoding="UTF-8" standalone="no"?>
<!-- Created with Inkscape (http://www.inkscape.org/) -->

<svg
   xmlns:dc="http://purl.org/dc/elements/1.1/"
   xmlns:cc="http://creativecommons.org/ns#"
   xmlns:rdf="http://www.w3.org/1999/02/22-rdf-syntax-ns#"
   xmlns:svg="http://www.w3.org/2000/svg"
   xmlns="http://www.w3.org/2000/svg"
   xmlns:sodipodi="http://sodipodi.sourceforge.net/DTD/sodipodi-0.dtd"
   xmlns:inkscape="http://www.inkscape.org/namespaces/inkscape"
   width="210mm"
   height="297mm"
   viewBox="0 0 744.09448819 1052.3622047"
   id="svg2"
   version="1.1"
   inkscape:version="0.91 r13725"
   sodipodi:docname="2brbrd3.svg">
  <defs
     id="defs4" />
  <sodipodi:namedview
     id="base"
     pagecolor="#ffffff"
     bordercolor="#666666"
     borderopacity="1.0"
     inkscape:pageopacity="0.0"
     inkscape:pageshadow="2"
     inkscape:zoom="1.12"
     inkscape:cx="447.8239"
     inkscape:cy="102.28138"
     inkscape:document-units="mm"
     inkscape:current-layer="layer1"
     showgrid="true"
     inkscape:window-width="1366"
     inkscape:window-height="705"
     inkscape:window-x="-8"
     inkscape:window-y="-8"
     inkscape:window-maximized="1"
     inkscape:snap-bbox="true"
     inkscape:bbox-nodes="true"
     inkscape:object-nodes="true"
     showguides="true"
     inkscape:guide-bbox="true"
     inkscape:snap-smooth-nodes="false"
     inkscape:snap-midpoints="false"
     inkscape:snap-global="true">
    <inkscape:grid
       type="xygrid"
       id="grid3336"
       units="mm"
       spacingx="1.7716536"
       spacingy="1.7716536"
       dotted="true"
       empspacing="10" />
    <inkscape:grid
       type="xygrid"
       id="grid5100"
       units="mm"
       spacingx="3.5433071"
       spacingy="3.5433072" />
    <sodipodi:guide
       position="263.97639,53.149608"
       orientation="0,1"
       id="guide4174" />
    <sodipodi:guide
       position="280.7687,53.669086"
       orientation="0,1"
       id="guide4180" />
    <sodipodi:guide
       position="17.716536,92.125987"
       orientation="1,0"
       id="guide4184" />
    <sodipodi:guide
       position="46.062992,187.79528"
       orientation="0,1"
       id="guide4224" />
    <sodipodi:guide
       position="74.409449,223.22835"
       orientation="0,1"
       id="guide4256" />
    <sodipodi:guide
       position="70.866142,226.77166"
       orientation="0,1"
       id="guide4258" />
    <sodipodi:guide
       position="63.779528,262.20473"
       orientation="0,1"
       id="guide4260" />
    <sodipodi:guide
       position="239.17324,279.92127"
       orientation="0,1"
       id="guide4262" />
    <sodipodi:guide
       position="53.149606,364.96064"
       orientation="0,1"
       id="guide4183" />
    <sodipodi:guide
       position="317.12599,65.551183"
       orientation="0,1"
       id="guide4206" />
    <sodipodi:guide
       position="476.57482,166.53544"
       orientation="0,1"
       id="guide4204" />
    <sodipodi:guide
       position="46.062992,478.34647"
       orientation="0,1"
       id="guide4225" />
    <sodipodi:guide
       position="67.322837,460.62994"
       orientation="0,1"
       id="guide4242" />
    <sodipodi:guide
       position="46.062992,403.93702"
       orientation="0,1"
       id="guide4244" />
    <sodipodi:guide
       position="70.866144,425.19686"
       orientation="1,0"
       id="guide4250" />
    <sodipodi:guide
       position="143.50394,411.02364"
       orientation="1,0"
       id="guide4285" />
    <sodipodi:guide
       position="168.30709,396.85041"
       orientation="1,0"
       id="guide4287" />
    <sodipodi:guide
       position="225.00001,396.85041"
       orientation="1,0"
       id="guide4289" />
    <sodipodi:guide
       position="200.19686,391.53545"
       orientation="1,0"
       id="guide4291" />
    <sodipodi:guide
       position="145.27559,550.98427"
       orientation="0,1"
       id="guide4230" />
    <sodipodi:guide
       position="244.48819,506.69293"
       orientation="0,1"
       id="guide4232" />
    <sodipodi:guide
       position="88.58268,597.04726"
       orientation="0,1"
       id="guide4234" />
    <sodipodi:guide
       position="120.47244,602.36222"
       orientation="0,1"
       id="guide4236" />
    <sodipodi:guide
       position="258.66142,526.18112"
       orientation="0,1"
       id="guide4253" />
    <sodipodi:guide
       position="256.88977,531.49608"
       orientation="0,1"
       id="guide4255" />
  </sodipodi:namedview>
  <metadata
     id="metadata7">
    <rdf:RDF>
      <cc:Work
         rdf:about="">
        <dc:format>image/svg+xml</dc:format>
        <dc:type
           rdf:resource="http://purl.org/dc/dcmitype/StillImage" />
        <dc:title />
      </cc:Work>
    </rdf:RDF>
  </metadata>
  <g
     inkscape:label="Layer 1"
     inkscape:groupmode="layer"
     id="layer1">
    <path
       style="fill:#ff7f2a;fill-opacity:1;stroke:none;stroke-width:1.77165353;stroke-linejoin:round;stroke-miterlimit:4;stroke-dasharray:none;stroke-dashoffset:8;stroke-opacity:1"
       d="m 56.692683,1020.4723 0,8.8584 3.543305,0 0,23.0315 7.085938,0 0,-23.0312 1.771484,0 0,23.0312 7.087891,0 0,-23.0312 1.771484,0 0,23.0312 7.085937,0 0,-23.0312 1.77149,0 0,23.0312 7.08789,0 0,-23.0312 1.77148,0 0,23.0312 7.085938,0 0,-23.0312 3.54297,0 0,-12.4025 -3.54297,0 0,-23.03118 -7.085938,0 0,23.03118 -1.77148,0 0,-23.03118 -7.08789,0 0,23.03118 -1.77149,0 0,-23.03118 -7.085937,0 0,23.03118 -1.771484,0 0,-23.03118 -7.087891,0 0,23.03118 -1.771484,0 0,-23.03118 -7.085938,0 -6.78e-4,19.48868 -14.173488,-3e-4 6.78e-4,-19.48863 -7.085938,0 0,23.03123 -1.771484,0 0,-23.03123 -7.087891,0 0,23.03123 -1.771484,0 0,-23.03123 -7.085938,0 0,23.03123 -1.771484,0 0,-23.03123 -7.08789,0 0,23.03123 -1.771485,0 0,-23.03123 -7.085937,0 0,23.03123 -3.542969,0 0,12.4024 3.542969,0 0,23.0313 7.085937,0 0,-23.0313 1.771485,0 0,23.0313 7.08789,0 0,-23.0313 1.771484,0 0,23.0313 7.085938,0 0,-23.0313 1.771484,0 0,23.0313 7.087891,0 0,-23.0313 1.771484,0 0,23.0313 7.085938,0 2.61e-4,-23.0313 3.543305,0 0,-8.8584 z"
       id="rect4322"
       inkscape:connector-curvature="0"
       sodipodi:nodetypes="ccccccccccccccccccccccccccccccccccccccccccccccccccccccccccccccccccccccccccccccccccccccccc" />
  </g>
</svg>
