<?xml version="1.0" encoding="UTF-8" standalone="no"?>
<!-- Created with Inkscape (http://www.inkscape.org/) -->

<svg
   xmlns:dc="http://purl.org/dc/elements/1.1/"
   xmlns:cc="http://creativecommons.org/ns#"
   xmlns:rdf="http://www.w3.org/1999/02/22-rdf-syntax-ns#"
   xmlns:svg="http://www.w3.org/2000/svg"
   xmlns="http://www.w3.org/2000/svg"
   xmlns:sodipodi="http://sodipodi.sourceforge.net/DTD/sodipodi-0.dtd"
   xmlns:inkscape="http://www.inkscape.org/namespaces/inkscape"
   width="1189mm"
   height="841mm"
   viewBox="0 0 4212.992 2979.9212"
   id="svg5772"
   version="1.1"
   inkscape:version="0.91 r"
   sodipodi:docname="коробка-ровер-2мм.svg">
  <sodipodi:namedview
     id="base"
     pagecolor="#ffffff"
     bordercolor="#666666"
     borderopacity="1.0"
     inkscape:pageopacity="0.0"
     inkscape:pageshadow="2"
     inkscape:zoom="0.1979899"
     inkscape:cx="1903.6514"
     inkscape:cy="1328.2251"
     inkscape:document-units="mm"
     inkscape:current-layer="layer1"
     showgrid="false"
     inkscape:window-width="1301"
     inkscape:window-height="744"
     inkscape:window-x="65"
     inkscape:window-y="24"
     inkscape:window-maximized="1"
     width="2000mm" />
  <defs
     id="defs5774" />
  <metadata
     id="metadata5777">
    <rdf:RDF>
      <cc:Work
         rdf:about="">
        <dc:format>image/svg+xml</dc:format>
        <dc:type
           rdf:resource="http://purl.org/dc/dcmitype/StillImage" />
        <dc:title></dc:title>
      </cc:Work>
    </rdf:RDF>
  </metadata>
  <g
     id="layer1"
     inkscape:groupmode="layer"
     inkscape:label="Layer 1"
     transform="translate(0,1927.5591)">
    <g
       id="g3633">
      <path
         inkscape:connector-curvature="0"
         d="m 908.29528,1051.8622 -302.95276,0 0,-425.19685 302.95276,0 0,-7.08661 -12.75591,0 -432.28346,0 -19.84252,0 -428.74016,0 0,-124.01575 L 0.5,488.47637 l 0,-109.84252 14.17323,-7.08661 0,-124.01575 L 0.5,240.44488 l 0,-109.84252 14.17323,-7.08662 0,-124.01574 428.74016,0 19.84252,0 432.28346,0 12.75591,0 0,-7.0866 -302.95276,0 0,-425.1969 302.95276,0 14.17323,0 0,-7.0866 -283.46457,-133.2283 0,-353.6221 283.46457,-133.2283 0,-14.1733 -21.25984,0 c -212.59843,0 -467.71654,0 -372.04725,-186.0236 53.14961,-106.2992 159.44882,-239.1732 372.04725,-239.1732 l 655.51183,0 c 212.5984,0 318.8976,132.874 372.0472,239.1732 95.6693,186.0236 -159.4488,186.0236 -372.0472,186.0236 l -21.2599,0 0,14.1733 283.4646,133.2283 0,353.6221 -283.4646,133.2283 0,7.0866 14.1733,0 302.9527,0 0,425.1969 -302.9527,0 0,7.0866 12.7559,0 432.2835,0 19.8425,0 428.7401,0 0,124.01574 14.1733,7.08662 0,109.84252 -14.1733,7.08661 0,124.01575 14.1733,7.08661 0,109.84252 -14.1733,7.08662 0,124.01575 -428.7401,0 -19.8425,0 -432.2835,0 -12.7559,0 0,7.08661 302.9527,0 0,425.19685 -302.9527,0 z"
         style="fill:none;stroke:#000000"
         id="path3428" />
      <path
         inkscape:connector-curvature="0"
         d="m 911.83859,495.56299 7.08661,0 0,-124.01575 -7.08661,0 z"
         style="fill:none;stroke:#000000"
         id="path3430" />
      <path
         inkscape:connector-curvature="0"
         d="m 911.83859,247.53149 7.08661,0 0,-124.01575 -7.08661,0 z"
         style="fill:none;stroke:#000000"
         id="path3432" />
      <path
         inkscape:connector-curvature="0"
         d="m 1546.0906,123.51574 -7.0867,0 0,124.01575 7.0867,0 z"
         style="fill:none;stroke:#000000"
         id="path3434" />
      <path
         inkscape:connector-curvature="0"
         d="m 1546.0906,371.54724 -7.0867,0 0,124.01575 7.0867,0 z"
         style="fill:none;stroke:#000000"
         id="path3436" />
      <path
         inkscape:connector-curvature="0"
         d="M908.29528 1051.8622C908.29528 1051.8622 908.29528 1045.42928194 908.29528 1034.1459578M908.29528 1016.42918463C908.29528 1011.02084978 908.29528 1005.09207188 908.29528 998.713150626M908.29528 980.996074959C908.29528 975.325750281 908.29528 969.408376358 908.29528 963.279577177M908.29528 945.563452321C908.29528 939.790575136 908.29528 933.876898915 908.29528 927.847460588M908.29528 910.130626639C908.29528 904.298701095 908.29528 898.386438279 908.29528 892.41438426M908.29528 874.69846691C908.29528 868.823603096 908.29528 862.911591684 908.29528 856.981064523M908.29528 839.265186314C908.29528 833.353791135 908.29528 827.442394501 908.29528 821.549277831M908.29528 803.83234648C908.29528 797.88238455 908.29528 791.970522283 908.29528 786.116115074M908.29528 768.398540667C908.29528 762.400480793 908.29528 756.487398087 908.29528 750.681644833M908.29528 732.964923732C908.29528 726.893915438 908.29528 720.978622338 908.29528 715.248163907M908.29528 697.531519965C908.29528 691.313004424 908.29528 685.391614954 908.29528 679.814338657M908.29528 662.09897238C908.29528 655.33341335 908.29528 649.382267861 908.29528 644.383150434M908.29528 626.66535"
         style="stroke:#44aaff;stroke-dashoffset:17.71653557;fill:none"
         id="path3438" />
      <path
         inkscape:connector-curvature="0"
         d="M895.53937 619.57874C895.53937 619.57874 895.53937 613.246885683 895.53937 601.862861656M895.53937 584.146674154C895.53937 578.761619475 895.53937 572.838167154 895.53937 566.429402818M895.53937 548.712111074C895.53937 543.067185202 895.53937 537.152961596 895.53937 530.994918011M895.53937 513.27811553C895.53937 507.534411136 895.53937 501.623302598 895.53937 495.561675402M895.53937 477.845505397C895.53937 472.048339555 895.53937 466.138526779 895.53937 460.129018651M895.53937 442.412585327C895.53937 436.580799115 895.53937 430.671656863 895.53937 424.695987425M895.53937 406.979698777C895.53937 401.122791231 895.53937 395.214241256 895.53937 389.263655432M895.53937 371.547908176C895.53937 365.670480177 895.53937 359.762055514 895.53937 353.831555831M895.53937 336.115452737C895.53937 330.21995133 895.53937 324.311538951 895.53937 318.398826721M895.53937 300.682136827C895.53937 294.769692715 895.53937 288.861546986 895.53937 282.966309579M895.53937 265.249404834C895.53937 259.318894806 895.53937 253.410458718 895.53937 247.53301824M895.53937 229.816277528C895.53937 223.865757617 895.53937 217.957271904 895.53937 212.100426621M895.53937 194.384044929C895.53937 188.408379132 895.53937 182.499239447 895.53937 176.667454654M895.53937 158.951054742C895.53937 152.941612578 895.53937 147.031862131 895.53937 141.23475446M895.53937 123.51874678C895.53937 117.457020637 895.53937 111.545815122 895.53937 105.802016313M895.53937 88.085894834C895.53937 81.9275821311 895.53937 76.013103526 895.53937 70.3679394357M895.53937 52.6503135835C895.53937 46.2414566487 895.53937 40.3179155911 895.53937 34.9327771151M895.53937 17.2167394059C895.53937 5.83217360236 895.53937 -0.5 895.53937 -0.5"
         style="stroke:#44aaff;stroke-dashoffset:17.71653557;fill:none"
         id="path3440" />
      <path
         inkscape:connector-curvature="0"
         d="M908.29528 -7.5866C908.29528 -7.5866 908.29528 -14.0195188159 908.29528 -25.3028442841M908.29528 -43.0196195389C908.29528 -48.4279550267 908.29528 -54.3567336152 908.29528 -60.7356556237M908.29528 -78.4527333744C908.29528 -84.123058719 908.29528 -90.0404333384 908.29528 -96.1692332395M908.29528 -113.885360179C908.29528 -119.658238043 908.29528 -125.571914959 908.29528 -131.601353995M908.29528 -149.318190028C908.29528 -155.150116257 908.29528 -161.062379768 908.29528 -167.03443449M908.29528 -184.750353923C908.29528 -190.625218428 908.29528 -196.537230535 908.29528 -202.467758394M908.29528 -220.183638685C908.29528 -226.09503456 908.29528 -232.006431889 908.29528 -237.899549252M908.29528 -255.616482687C908.29528 -261.566445316 908.29528 -267.478308278 908.29528 -273.332716176M908.29528 -291.050292666C908.29528 -297.048353246 908.29528 -302.961436647 908.29528 -308.767190584M908.29528 -326.483913768C908.29528 -332.554922776 908.29528 -338.470216571 908.29528 -344.200675676M908.29528 -361.917321702C908.29528 -368.135837974 908.29528 -374.05722814 908.29528 -379.634505094M908.29528 -397.349873453C908.29528 -404.115433279 908.29528 -410.066579468 908.29528 -415.065697483M908.29528 -432.7835C908.29528 -432.7835 908.29528 -432.7835 908.29528 -432.7835"
         style="stroke:#44aaff;stroke-dashoffset:17.71653557;fill:none"
         id="path3442" />
      <path
         inkscape:connector-curvature="0"
         d="M922.46851 -439.8701C922.46851 -439.8701 922.46851 -446.201953909 922.46851 -457.585977201M922.46851 -475.30216356C922.46851 -480.687217892 922.46851 -486.610669831 922.46851 -493.019433753M922.46851 -510.736724355C922.46851 -516.381649863 922.46851 -522.295873087 922.46851 -528.453916275M922.46851 -546.170717612C922.46851 -551.914421636 922.46851 -557.825529793 922.46851 -563.887156598M922.46851 -581.60332546C922.46851 -587.400490928 922.46851 -593.310303323 922.46851 -599.319811063M922.46851 -617.036243244C922.46851 -622.86802908 922.46851 -628.777170951 922.46851 -634.752840003M922.46851 -652.469127509C922.46851 -658.326034677 922.46851 -664.234584271 922.46851 -670.185169711M922.46851 -687.900915824C922.46851 -693.778343444 922.46851 -699.686767726 922.46851 -705.617267026M922.46851 -723.333368977C922.46851 -729.228870004 922.46851 -735.137282002 922.46851 -741.049993851M922.46851 -758.766682602C922.46851 -764.679126332 922.46851 -770.58727168 922.46851 -776.482508706M922.46851 -794.199412309C922.46851 -800.129921955 922.46851 -806.038357661 922.46851 -811.91579776M922.46851 -829.632537329C922.46851 -835.583056856 922.46851 -841.491542188 922.46851 -847.348387093M922.46851 -865.064767643C922.46851 -871.040433054 922.46851 -876.949572358 922.46851 -882.781356775M922.46851 -900.497755544C922.46851 -906.50719732 922.46851 -912.416947386 922.46851 -918.214054683M922.46851 -935.93006122C922.46851 -941.991786972 922.46851 -947.902992106 922.46851 -953.646790544M922.46851 -971.36291088C922.46851 -977.521223186 922.46851 -983.43570141 922.46851 -989.080865136M922.46851 -1006.79848985C922.46851 -1013.20734637 922.46851 -1019.13088704 922.46851 -1024.51602517M922.46851 -1042.23206174C922.46851 -1053.61662681 922.46851 -1059.9488 922.46851 -1059.9488"
         style="stroke:#44aaff;stroke-dashoffset:17.71653557;fill:none"
         id="path3444" />
      <path
         inkscape:connector-curvature="0"
         d="M901.20867 -1074.1221C901.20867 -1074.1221 901.20867 -1080.5550173 901.20867 -1091.83834012M901.20867 -1109.55511121C901.20867 -1114.96344542 901.20867 -1120.89222262 901.20867 -1127.27114312M901.20867 -1144.98821671C901.20867 -1150.65854072 901.20867 -1156.57591395 901.20867 -1162.70471241M901.20867 -1180.42083518C901.20867 -1186.19371169 901.20867 -1192.10738721 901.20867 -1198.13682483M901.20867 -1215.85365669C901.20867 -1221.68558155 901.20867 -1227.59784367 901.20867 -1233.56989699M901.20867 -1251.28581226C901.20867 -1257.16067538 901.20867 -1263.0726861 901.20867 -1269.00321256M901.20867 -1286.71908869C901.20867 -1292.63048317 901.20867 -1298.54187911 901.20867 -1304.43499509M901.20867 -1322.15192435C901.20867 -1328.10188558 901.20867 -1334.01374716 901.20867 -1339.86815368M901.20867 -1357.585726C901.20867 -1363.58378517 901.20867 -1369.49686718 901.20867 -1375.30261975M901.20867 -1393.01933877C901.20867 -1399.09034635 901.20867 -1405.00563875 901.20867 -1410.73609651M901.20867 -1428.45273837C901.20867 -1434.67125318 901.20867 -1440.59264195 901.20867 -1446.16991759M901.20867 -1463.88528179C901.20867 -1470.65151254 901.20867 -1476.60316793 901.20867 -1481.60259241M901.20867 -1499.3189"
         style="stroke:#44aaff;stroke-dashoffset:17.71653557;fill:none"
         id="path3446" />
      <path
         inkscape:connector-curvature="0"
         d="M463.25591 619.57874C463.25591 619.57874 463.25591 613.246885683 463.25591 601.862861656M463.25591 584.146674154C463.25591 578.761619475 463.25591 572.838167154 463.25591 566.429402818M463.25591 548.712111074C463.25591 543.067185202 463.25591 537.152961596 463.25591 530.994918011M463.25591 513.27811553C463.25591 507.534411136 463.25591 501.623302598 463.25591 495.561675402M463.25591 477.845505397C463.25591 472.048339555 463.25591 466.138526779 463.25591 460.129018651M463.25591 442.412585327C463.25591 436.580799115 463.25591 430.671656863 463.25591 424.695987425M463.25591 406.979698777C463.25591 401.122791231 463.25591 395.214241256 463.25591 389.263655432M463.25591 371.547908176C463.25591 365.670480177 463.25591 359.762055514 463.25591 353.831555831M463.25591 336.115452737C463.25591 330.21995133 463.25591 324.311538951 463.25591 318.398826721M463.25591 300.682136827C463.25591 294.769692715 463.25591 288.861546986 463.25591 282.966309579M463.25591 265.249404834C463.25591 259.318894806 463.25591 253.410458718 463.25591 247.53301824M463.25591 229.816277528C463.25591 223.865757617 463.25591 217.957271904 463.25591 212.100426621M463.25591 194.384044929C463.25591 188.408379132 463.25591 182.499239447 463.25591 176.667454654M463.25591 158.951054742C463.25591 152.941612578 463.25591 147.031862131 463.25591 141.23475446M463.25591 123.51874678C463.25591 117.457020637 463.25591 111.545815122 463.25591 105.802016313M463.25591 88.085894834C463.25591 81.9275821311 463.25591 76.013103526 463.25591 70.3679394357M463.25591 52.6503135835C463.25591 46.2414566487 463.25591 40.3179155911 463.25591 34.9327771151M463.25591 17.2167394059C463.25591 5.83217360236 463.25591 -0.5 463.25591 -0.5"
         style="stroke:#44aaff;stroke-dashoffset:17.71653557;fill:none"
         id="path3448" />
      <path
         inkscape:connector-curvature="0"
         d="M443.41339 619.57874C443.41339 619.57874 443.41339 613.246885683 443.41339 601.862861656M443.41339 584.146674154C443.41339 578.761619475 443.41339 572.838167154 443.41339 566.429402818M443.41339 548.712111074C443.41339 543.067185202 443.41339 537.152961596 443.41339 530.994918011M443.41339 513.27811553C443.41339 507.534411136 443.41339 501.623302598 443.41339 495.561675402M443.41339 477.845505397C443.41339 472.048339555 443.41339 466.138526779 443.41339 460.129018651M443.41339 442.412585327C443.41339 436.580799115 443.41339 430.671656863 443.41339 424.695987425M443.41339 406.979698777C443.41339 401.122791231 443.41339 395.214241256 443.41339 389.263655432M443.41339 371.547908176C443.41339 365.670480177 443.41339 359.762055514 443.41339 353.831555831M443.41339 336.115452737C443.41339 330.21995133 443.41339 324.311538951 443.41339 318.398826721M443.41339 300.682136827C443.41339 294.769692715 443.41339 288.861546986 443.41339 282.966309579M443.41339 265.249404834C443.41339 259.318894806 443.41339 253.410458718 443.41339 247.53301824M443.41339 229.816277528C443.41339 223.865757617 443.41339 217.957271904 443.41339 212.100426621M443.41339 194.384044929C443.41339 188.408379132 443.41339 182.499239447 443.41339 176.667454654M443.41339 158.951054742C443.41339 152.941612578 443.41339 147.031862131 443.41339 141.23475446M443.41339 123.51874678C443.41339 117.457020637 443.41339 111.545815122 443.41339 105.802016313M443.41339 88.085894834C443.41339 81.9275821311 443.41339 76.013103526 443.41339 70.3679394357M443.41339 52.6503135835C443.41339 46.2414566487 443.41339 40.3179155911 443.41339 34.9327771151M443.41339 17.2167394059C443.41339 5.83217360236 443.41339 -0.5 443.41339 -0.5"
         style="stroke:#44aaff;stroke-dashoffset:17.71653557;fill:none"
         id="path3450" />
      <path
         inkscape:connector-curvature="0"
         d="M1549.6339 1051.8622C1549.6339 1051.8622 1549.6339 1045.42928194 1549.6339 1034.1459578M1549.6339 1016.42918463C1549.6339 1011.02084978 1549.6339 1005.09207188 1549.6339 998.713150626M1549.6339 980.996074959C1549.6339 975.325750281 1549.6339 969.408376358 1549.6339 963.279577177M1549.6339 945.563452321C1549.6339 939.790575136 1549.6339 933.876898915 1549.6339 927.847460588M1549.6339 910.130626639C1549.6339 904.298701095 1549.6339 898.386438279 1549.6339 892.41438426M1549.6339 874.69846691C1549.6339 868.823603096 1549.6339 862.911591684 1549.6339 856.981064523M1549.6339 839.265186314C1549.6339 833.353791135 1549.6339 827.442394501 1549.6339 821.549277831M1549.6339 803.83234648C1549.6339 797.88238455 1549.6339 791.970522283 1549.6339 786.116115074M1549.6339 768.398540667C1549.6339 762.400480793 1549.6339 756.487398087 1549.6339 750.681644833M1549.6339 732.964923732C1549.6339 726.893915438 1549.6339 720.978622338 1549.6339 715.248163907M1549.6339 697.531519965C1549.6339 691.313004424 1549.6339 685.391614954 1549.6339 679.814338657M1549.6339 662.09897238C1549.6339 655.33341335 1549.6339 649.382267861 1549.6339 644.383150434M1549.6339 626.66535"
         style="stroke:#44aaff;stroke-dashoffset:17.71653557;fill:none"
         id="path3452" />
      <path
         inkscape:connector-curvature="0"
         d="M1562.3898 619.57874C1562.3898 619.57874 1562.3898 613.246885683 1562.3898 601.862861656M1562.3898 584.146674154C1562.3898 578.761619475 1562.3898 572.838167154 1562.3898 566.429402818M1562.3898 548.712111074C1562.3898 543.067185202 1562.3898 537.152961596 1562.3898 530.994918011M1562.3898 513.27811553C1562.3898 507.534411136 1562.3898 501.623302598 1562.3898 495.561675402M1562.3898 477.845505397C1562.3898 472.048339555 1562.3898 466.138526779 1562.3898 460.129018651M1562.3898 442.412585327C1562.3898 436.580799115 1562.3898 430.671656863 1562.3898 424.695987425M1562.3898 406.979698777C1562.3898 401.122791231 1562.3898 395.214241256 1562.3898 389.263655432M1562.3898 371.547908176C1562.3898 365.670480177 1562.3898 359.762055514 1562.3898 353.831555831M1562.3898 336.115452737C1562.3898 330.21995133 1562.3898 324.311538951 1562.3898 318.398826721M1562.3898 300.682136827C1562.3898 294.769692715 1562.3898 288.861546986 1562.3898 282.966309579M1562.3898 265.249404834C1562.3898 259.318894806 1562.3898 253.410458718 1562.3898 247.53301824M1562.3898 229.816277528C1562.3898 223.865757617 1562.3898 217.957271904 1562.3898 212.100426621M1562.3898 194.384044929C1562.3898 188.408379132 1562.3898 182.499239447 1562.3898 176.667454654M1562.3898 158.951054742C1562.3898 152.941612578 1562.3898 147.031862131 1562.3898 141.23475446M1562.3898 123.51874678C1562.3898 117.457020637 1562.3898 111.545815122 1562.3898 105.802016313M1562.3898 88.085894834C1562.3898 81.9275821311 1562.3898 76.013103526 1562.3898 70.3679394357M1562.3898 52.6503135835C1562.3898 46.2414566487 1562.3898 40.3179155911 1562.3898 34.9327771151M1562.3898 17.2167394059C1562.3898 5.83217360236 1562.3898 -0.5 1562.3898 -0.5"
         style="stroke:#44aaff;stroke-dashoffset:17.71653557;fill:none"
         id="path3454" />
      <path
         inkscape:connector-curvature="0"
         d="M1549.6339 -7.5866C1549.6339 -7.5866 1549.6339 -14.0195188159 1549.6339 -25.3028442841M1549.6339 -43.0196195389C1549.6339 -48.4279550267 1549.6339 -54.3567336152 1549.6339 -60.7356556237M1549.6339 -78.4527333744C1549.6339 -84.123058719 1549.6339 -90.0404333384 1549.6339 -96.1692332395M1549.6339 -113.885360179C1549.6339 -119.658238043 1549.6339 -125.571914959 1549.6339 -131.601353995M1549.6339 -149.318190028C1549.6339 -155.150116257 1549.6339 -161.062379768 1549.6339 -167.03443449M1549.6339 -184.750353923C1549.6339 -190.625218428 1549.6339 -196.537230535 1549.6339 -202.467758394M1549.6339 -220.183638685C1549.6339 -226.09503456 1549.6339 -232.006431889 1549.6339 -237.899549252M1549.6339 -255.616482687C1549.6339 -261.566445316 1549.6339 -267.478308278 1549.6339 -273.332716176M1549.6339 -291.050292666C1549.6339 -297.048353246 1549.6339 -302.961436647 1549.6339 -308.767190584M1549.6339 -326.483913768C1549.6339 -332.554922776 1549.6339 -338.470216571 1549.6339 -344.200675676M1549.6339 -361.917321702C1549.6339 -368.135837974 1549.6339 -374.05722814 1549.6339 -379.634505094M1549.6339 -397.349873453C1549.6339 -404.115433279 1549.6339 -410.066579468 1549.6339 -415.065697483M1549.6339 -432.7835C1549.6339 -432.7835 1549.6339 -432.7835 1549.6339 -432.7835"
         style="stroke:#44aaff;stroke-dashoffset:17.71653557;fill:none"
         id="path3456" />
      <path
         inkscape:connector-curvature="0"
         d="M1535.4606 -439.8701C1535.4606 -439.8701 1535.4606 -446.201953909 1535.4606 -457.585977201M1535.4606 -475.30216356C1535.4606 -480.687217892 1535.4606 -486.610669831 1535.4606 -493.019433753M1535.4606 -510.736724355C1535.4606 -516.381649863 1535.4606 -522.295873087 1535.4606 -528.453916275M1535.4606 -546.170717612C1535.4606 -551.914421636 1535.4606 -557.825529793 1535.4606 -563.887156598M1535.4606 -581.60332546C1535.4606 -587.400490928 1535.4606 -593.310303323 1535.4606 -599.319811063M1535.4606 -617.036243244C1535.4606 -622.86802908 1535.4606 -628.777170951 1535.4606 -634.752840003M1535.4606 -652.469127509C1535.4606 -658.326034677 1535.4606 -664.234584271 1535.4606 -670.185169711M1535.4606 -687.900915824C1535.4606 -693.778343444 1535.4606 -699.686767726 1535.4606 -705.617267026M1535.4606 -723.333368977C1535.4606 -729.228870004 1535.4606 -735.137282002 1535.4606 -741.049993851M1535.4606 -758.766682602C1535.4606 -764.679126332 1535.4606 -770.58727168 1535.4606 -776.482508706M1535.4606 -794.199412309C1535.4606 -800.129921955 1535.4606 -806.038357661 1535.4606 -811.91579776M1535.4606 -829.632537329C1535.4606 -835.583056856 1535.4606 -841.491542188 1535.4606 -847.348387093M1535.4606 -865.064767643C1535.4606 -871.040433054 1535.4606 -876.949572358 1535.4606 -882.781356775M1535.4606 -900.497755544C1535.4606 -906.50719732 1535.4606 -912.416947386 1535.4606 -918.214054683M1535.4606 -935.93006122C1535.4606 -941.991786972 1535.4606 -947.902992106 1535.4606 -953.646790544M1535.4606 -971.36291088C1535.4606 -977.521223186 1535.4606 -983.43570141 1535.4606 -989.080865136M1535.4606 -1006.79848985C1535.4606 -1013.20734637 1535.4606 -1019.13088704 1535.4606 -1024.51602517M1535.4606 -1042.23206174C1535.4606 -1053.61662681 1535.4606 -1059.9488 1535.4606 -1059.9488"
         style="stroke:#44aaff;stroke-dashoffset:17.71653557;fill:none"
         id="path3458" />
      <path
         inkscape:connector-curvature="0"
         d="M1556.7205 -1074.1221C1556.7205 -1074.1221 1556.7205 -1080.5550173 1556.7205 -1091.83834012M1556.7205 -1109.55511121C1556.7205 -1114.96344542 1556.7205 -1120.89222262 1556.7205 -1127.27114312M1556.7205 -1144.98821671C1556.7205 -1150.65854072 1556.7205 -1156.57591395 1556.7205 -1162.70471241M1556.7205 -1180.42083518C1556.7205 -1186.19371169 1556.7205 -1192.10738721 1556.7205 -1198.13682483M1556.7205 -1215.85365669C1556.7205 -1221.68558155 1556.7205 -1227.59784367 1556.7205 -1233.56989699M1556.7205 -1251.28581226C1556.7205 -1257.16067538 1556.7205 -1263.0726861 1556.7205 -1269.00321256M1556.7205 -1286.71908869C1556.7205 -1292.63048317 1556.7205 -1298.54187911 1556.7205 -1304.43499509M1556.7205 -1322.15192435C1556.7205 -1328.10188558 1556.7205 -1334.01374716 1556.7205 -1339.86815368M1556.7205 -1357.585726C1556.7205 -1363.58378517 1556.7205 -1369.49686718 1556.7205 -1375.30261975M1556.7205 -1393.01933877C1556.7205 -1399.09034635 1556.7205 -1405.00563875 1556.7205 -1410.73609651M1556.7205 -1428.45273837C1556.7205 -1434.67125318 1556.7205 -1440.59264195 1556.7205 -1446.16991759M1556.7205 -1463.88528179C1556.7205 -1470.65151254 1556.7205 -1476.60316793 1556.7205 -1481.60259241M1556.7205 -1499.3189"
         style="stroke:#44aaff;stroke-dashoffset:17.71653557;fill:none"
         id="path3460" />
      <path
         inkscape:connector-curvature="0"
         d="M1994.6733 619.57874C1994.6733 619.57874 1994.6733 613.246885683 1994.6733 601.862861656M1994.6733 584.146674154C1994.6733 578.761619475 1994.6733 572.838167154 1994.6733 566.429402818M1994.6733 548.712111074C1994.6733 543.067185202 1994.6733 537.152961596 1994.6733 530.994918011M1994.6733 513.27811553C1994.6733 507.534411136 1994.6733 501.623302598 1994.6733 495.561675402M1994.6733 477.845505397C1994.6733 472.048339555 1994.6733 466.138526779 1994.6733 460.129018651M1994.6733 442.412585327C1994.6733 436.580799115 1994.6733 430.671656863 1994.6733 424.695987425M1994.6733 406.979698777C1994.6733 401.122791231 1994.6733 395.214241256 1994.6733 389.263655432M1994.6733 371.547908176C1994.6733 365.670480177 1994.6733 359.762055514 1994.6733 353.831555831M1994.6733 336.115452737C1994.6733 330.21995133 1994.6733 324.311538951 1994.6733 318.398826721M1994.6733 300.682136827C1994.6733 294.769692715 1994.6733 288.861546986 1994.6733 282.966309579M1994.6733 265.249404834C1994.6733 259.318894806 1994.6733 253.410458718 1994.6733 247.53301824M1994.6733 229.816277528C1994.6733 223.865757617 1994.6733 217.957271904 1994.6733 212.100426621M1994.6733 194.384044929C1994.6733 188.408379132 1994.6733 182.499239447 1994.6733 176.667454654M1994.6733 158.951054742C1994.6733 152.941612578 1994.6733 147.031862131 1994.6733 141.23475446M1994.6733 123.51874678C1994.6733 117.457020637 1994.6733 111.545815122 1994.6733 105.802016313M1994.6733 88.085894834C1994.6733 81.9275821311 1994.6733 76.013103526 1994.6733 70.3679394357M1994.6733 52.6503135835C1994.6733 46.2414566487 1994.6733 40.3179155911 1994.6733 34.9327771151M1994.6733 17.2167394059C1994.6733 5.83217360236 1994.6733 -0.5 1994.6733 -0.5"
         style="stroke:#44aaff;stroke-dashoffset:17.71653557;fill:none"
         id="path3462" />
      <path
         inkscape:connector-curvature="0"
         d="M2014.5158 619.57874C2014.5158 619.57874 2014.5158 613.246885683 2014.5158 601.862861656M2014.5158 584.146674154C2014.5158 578.761619475 2014.5158 572.838167154 2014.5158 566.429402818M2014.5158 548.712111074C2014.5158 543.067185202 2014.5158 537.152961596 2014.5158 530.994918011M2014.5158 513.27811553C2014.5158 507.534411136 2014.5158 501.623302598 2014.5158 495.561675402M2014.5158 477.845505397C2014.5158 472.048339555 2014.5158 466.138526779 2014.5158 460.129018651M2014.5158 442.412585327C2014.5158 436.580799115 2014.5158 430.671656863 2014.5158 424.695987425M2014.5158 406.979698777C2014.5158 401.122791231 2014.5158 395.214241256 2014.5158 389.263655432M2014.5158 371.547908176C2014.5158 365.670480177 2014.5158 359.762055514 2014.5158 353.831555831M2014.5158 336.115452737C2014.5158 330.21995133 2014.5158 324.311538951 2014.5158 318.398826721M2014.5158 300.682136827C2014.5158 294.769692715 2014.5158 288.861546986 2014.5158 282.966309579M2014.5158 265.249404834C2014.5158 259.318894806 2014.5158 253.410458718 2014.5158 247.53301824M2014.5158 229.816277528C2014.5158 223.865757617 2014.5158 217.957271904 2014.5158 212.100426621M2014.5158 194.384044929C2014.5158 188.408379132 2014.5158 182.499239447 2014.5158 176.667454654M2014.5158 158.951054742C2014.5158 152.941612578 2014.5158 147.031862131 2014.5158 141.23475446M2014.5158 123.51874678C2014.5158 117.457020637 2014.5158 111.545815122 2014.5158 105.802016313M2014.5158 88.085894834C2014.5158 81.9275821311 2014.5158 76.013103526 2014.5158 70.3679394357M2014.5158 52.6503135835C2014.5158 46.2414566487 2014.5158 40.3179155911 2014.5158 34.9327771151M2014.5158 17.2167394059C2014.5158 5.83217360236 2014.5158 -0.5 2014.5158 -0.5"
         style="stroke:#44aaff;stroke-dashoffset:17.71653557;fill:none"
         id="path3464" />
      <path
         inkscape:connector-curvature="0"
         d="M908.29528 623.12204C908.29528 623.12204 914.619727914 623.12204 926.012535272 623.12204M943.729237325 623.12204C949.112522348 623.12204 955.035489911 623.12204 961.446316207 623.12204M979.161853129 623.12204C984.804799931 623.12204 990.718589598 623.12204 996.878446936 623.12204M1014.59457074 623.12204C1020.33650585 623.12204 1026.24763117 623.12204 1032.31158903 623.12204M1050.02871927 623.12204C1055.82369544 623.12204 1061.73334578 623.12204 1067.74517945 623.12204M1085.46255027 623.12204C1091.29173847 623.12204 1097.20063142 623.12204 1103.17883698 623.12204M1120.89522158 623.12204C1126.74943509 623.12204 1132.6580668 623.12204 1138.6119478 623.12204M1156.3290246 623.12204C1162.20302933 623.12204 1168.11135511 623.12204 1174.04554374 623.12204M1191.76252009 623.12204C1197.65356361 623.12204 1203.56158481 623.12204 1209.47848581 623.12204M1227.19528451 623.12204C1233.10255227 623.12204 1239.01062063 623.12204 1244.91147054 623.12204M1262.62722449 623.12204C1268.55111645 623.12204 1274.45951393 623.12204 1280.34420994 623.12204M1298.06123486 623.12204C1304.00278226 623.12204 1309.91110278 623.12204 1315.77750286 623.12204M1333.49472222 623.12204C1339.45779556 623.12204 1345.36672046 623.12204 1351.21191301 623.12204M1368.92845585 623.12204C1374.91851289 623.12204 1380.82750467 623.12204 1386.64433697 623.12204M1404.36059288 623.12204C1410.38985139 623.12204 1416.29962281 623.12204 1422.07616903 623.12204M1439.79225745 623.12204C1445.88620205 623.12204 1451.79772032 623.12204 1457.50794133 623.12204M1475.22451642 623.12204C1481.45188129 623.12204 1487.36803564 623.12204 1492.94157511 623.12204M1510.65747715 623.12204C1517.34152578 623.12204 1523.2759831 623.12204 1528.37332386 623.12204M1546.09082808 623.12204C1548.41756207 623.12204 1549.6339 623.12204 1549.6339 623.12204"
         style="stroke:#44aaff;stroke-dashoffset:17.71653557;fill:none"
         id="path3466" />
      <path
         inkscape:connector-curvature="0"
         d="M908.29528 -4.0433C908.29528 -4.0433 914.619727914 -4.0433 926.012535272 -4.0433M943.729237325 -4.0433C949.112522348 -4.0433 955.035489911 -4.0433 961.446316207 -4.0433M979.161853129 -4.0433C984.804799931 -4.0433 990.718589598 -4.0433 996.878446936 -4.0433M1014.59457074 -4.0433C1020.33650585 -4.0433 1026.24763117 -4.0433 1032.31158903 -4.0433M1050.02871927 -4.0433C1055.82369544 -4.0433 1061.73334578 -4.0433 1067.74517945 -4.0433M1085.46255027 -4.0433C1091.29173847 -4.0433 1097.20063142 -4.0433 1103.17883698 -4.0433M1120.89522158 -4.0433C1126.74943509 -4.0433 1132.6580668 -4.0433 1138.6119478 -4.0433M1156.3290246 -4.0433C1162.20302933 -4.0433 1168.11135511 -4.0433 1174.04554374 -4.0433M1191.76252009 -4.0433C1197.65356361 -4.0433 1203.56158481 -4.0433 1209.47848581 -4.0433M1227.19528451 -4.0433C1233.10255227 -4.0433 1239.01062063 -4.0433 1244.91147054 -4.0433M1262.62722449 -4.0433C1268.55111645 -4.0433 1274.45951393 -4.0433 1280.34420994 -4.0433M1298.06123486 -4.0433C1304.00278226 -4.0433 1309.91110278 -4.0433 1315.77750286 -4.0433M1333.49472222 -4.0433C1339.45779556 -4.0433 1345.36672046 -4.0433 1351.21191301 -4.0433M1368.92845585 -4.0433C1374.91851289 -4.0433 1380.82750467 -4.0433 1386.64433697 -4.0433M1404.36059288 -4.0433C1410.38985139 -4.0433 1416.29962281 -4.0433 1422.07616903 -4.0433M1439.79225745 -4.0433C1445.88620205 -4.0433 1451.79772032 -4.0433 1457.50794133 -4.0433M1475.22451642 -4.0433C1481.45188129 -4.0433 1487.36803564 -4.0433 1492.94157511 -4.0433M1510.65747715 -4.0433C1517.34152578 -4.0433 1523.2759831 -4.0433 1528.37332386 -4.0433M1546.09082808 -4.0433C1548.41756207 -4.0433 1549.6339 -4.0433 1549.6339 -4.0433"
         style="stroke:#44aaff;stroke-dashoffset:17.71653557;fill:none"
         id="path3468" />
      <path
         inkscape:connector-curvature="0"
         d="M922.46851 -436.3268C922.46851 -436.3268 928.803367648 -436.3268 940.185106706 -436.3268M957.900773689 -436.3268C963.286499908 -436.3268 969.210174032 -436.3268 975.618271156 -436.3268M993.334862911 -436.3268C998.980141702 -436.3268 1004.89414758 -436.3268 1011.05116145 -436.3268M1028.76792841 -436.3268C1034.5122028 -436.3268 1040.42325521 -436.3268 1046.48401469 -436.3268M1064.19966255 -436.3268C1069.99781102 -436.3268 1075.90790213 -436.3268 1081.91681974 -436.3268M1099.63431587 -436.3268C1105.4668107 -436.3268 1111.37582307 -436.3268 1117.35036989 -436.3268M1135.067647 -436.3268C1140.92561301 -436.3268 1146.83423251 -436.3268 1152.78374158 -436.3268M1170.49996646 -436.3268C1176.37854978 -436.3268 1182.28693327 -436.3268 1188.21602815 -436.3268M1205.93325639 -436.3268C1211.83030188 -436.3268 1217.73878213 -436.3268 1223.64989894 -436.3268M1241.36595484 -436.3268C1247.28080535 -436.3268 1253.18948728 -436.3268 1259.08317002 -436.3268M1276.79929759 -436.3268C1282.73269349 -436.3268 1288.64156803 -436.3268 1294.51672931 -436.3268M1312.23264629 -436.3268C1318.1868645 -436.3268 1324.09571545 -436.3268 1329.94924172 -436.3268M1347.66604358 -436.3268C1353.64693341 -436.3268 1359.55649944 -436.3268 1365.38342053 -436.3268M1383.10027954 -436.3268C1389.11727587 -436.3268 1395.0271302 -436.3268 1400.81613111 -436.3268M1418.53277468 -436.3268C1424.60779289 -436.3268 1430.51920401 -436.3268 1436.24874852 -436.3268M1453.96485738 -436.3268C1460.15221811 -436.3268 1466.06720969 -436.3268 1471.68110917 -436.3268M1489.3971753 -436.3268C1495.91430716 -436.3268 1501.84234709 -436.3268 1507.11380761 -436.3268M1524.82970204 -436.3268C1531.72234889 -436.3268 1535.4606 -436.3268 1535.4606 -436.3268"
         style="stroke:#44aaff;stroke-dashoffset:17.71653557;fill:none"
         id="path3470" />
      <path
         inkscape:connector-curvature="0"
         d="M922.46851 -1070.5787C922.46851 -1070.5787 928.803367648 -1070.5787 940.185106706 -1070.5787M957.900773689 -1070.5787C963.286499908 -1070.5787 969.210174032 -1070.5787 975.618271156 -1070.5787M993.334862911 -1070.5787C998.980141702 -1070.5787 1004.89414758 -1070.5787 1011.05116145 -1070.5787M1028.76792841 -1070.5787C1034.5122028 -1070.5787 1040.42325521 -1070.5787 1046.48401469 -1070.5787M1064.19966255 -1070.5787C1069.99781102 -1070.5787 1075.90790213 -1070.5787 1081.91681974 -1070.5787M1099.63431587 -1070.5787C1105.4668107 -1070.5787 1111.37582307 -1070.5787 1117.35036989 -1070.5787M1135.067647 -1070.5787C1140.92561301 -1070.5787 1146.83423251 -1070.5787 1152.78374158 -1070.5787M1170.49996646 -1070.5787C1176.37854978 -1070.5787 1182.28693327 -1070.5787 1188.21602815 -1070.5787M1205.93325639 -1070.5787C1211.83030188 -1070.5787 1217.73878213 -1070.5787 1223.64989894 -1070.5787M1241.36595484 -1070.5787C1247.28080535 -1070.5787 1253.18948728 -1070.5787 1259.08317002 -1070.5787M1276.79929759 -1070.5787C1282.73269349 -1070.5787 1288.64156803 -1070.5787 1294.51672931 -1070.5787M1312.23264629 -1070.5787C1318.1868645 -1070.5787 1324.09571545 -1070.5787 1329.94924172 -1070.5787M1347.66604358 -1070.5787C1353.64693341 -1070.5787 1359.55649944 -1070.5787 1365.38342053 -1070.5787M1383.10027954 -1070.5787C1389.11727587 -1070.5787 1395.0271302 -1070.5787 1400.81613111 -1070.5787M1418.53277468 -1070.5787C1424.60779289 -1070.5787 1430.51920401 -1070.5787 1436.24874852 -1070.5787M1453.96485738 -1070.5787C1460.15221811 -1070.5787 1466.06720969 -1070.5787 1471.68110917 -1070.5787M1489.3971753 -1070.5787C1495.91430716 -1070.5787 1501.84234709 -1070.5787 1507.11380761 -1070.5787M1524.82970204 -1070.5787C1531.72234889 -1070.5787 1535.4606 -1070.5787 1535.4606 -1070.5787"
         style="stroke:#44aaff;stroke-dashoffset:17.71653557;fill:none"
         id="path3472" />
    </g>
  </g>
</svg>
