<?xml version="1.0" encoding="UTF-8" standalone="no"?>
<!-- Created with Inkscape (http://www.inkscape.org/) -->

<svg
   xmlns:dc="http://purl.org/dc/elements/1.1/"
   xmlns:cc="http://creativecommons.org/ns#"
   xmlns:rdf="http://www.w3.org/1999/02/22-rdf-syntax-ns#"
   xmlns:svg="http://www.w3.org/2000/svg"
   xmlns="http://www.w3.org/2000/svg"
   xmlns:sodipodi="http://sodipodi.sourceforge.net/DTD/sodipodi-0.dtd"
   xmlns:inkscape="http://www.inkscape.org/namespaces/inkscape"
   sodipodi:docname="коробка-набор-2мм.svg"
   inkscape:version="0.48.4 r9939"
   version="1.1"
   id="svg3764"
   viewBox="0 0 7086.614 3543.307"
   height="1000mm"
   width="2000mm">
  <sodipodi:namedview
     inkscape:snap-global="false"
     inkscape:object-nodes="true"
     inkscape:bbox-nodes="true"
     inkscape:snap-bbox-edge-midpoints="true"
     inkscape:bbox-paths="true"
     inkscape:snap-bbox="true"
     inkscape:guide-bbox="true"
     showguides="true"
     inkscape:window-maximized="1"
     inkscape:window-y="24"
     inkscape:window-x="65"
     inkscape:window-height="744"
     inkscape:window-width="1301"
     showgrid="false"
     inkscape:current-layer="layer1"
     inkscape:document-units="mm"
     inkscape:cy="979.78975"
     inkscape:cx="2643.007"
     inkscape:zoom="0.1979899"
     inkscape:pageshadow="2"
     inkscape:pageopacity="0.0"
     borderopacity="1.0"
     bordercolor="#666666"
     pagecolor="#ffffff"
     id="base" />
  <defs
     id="defs3766" />
  <metadata
     id="metadata3769">
    <rdf:RDF>
      <cc:Work
         rdf:about="">
        <dc:format>image/svg+xml</dc:format>
        <dc:type
           rdf:resource="http://purl.org/dc/dcmitype/StillImage" />
        <dc:title></dc:title>
      </cc:Work>
    </rdf:RDF>
  </metadata>
  <g
     inkscape:label="Layer 1"
     inkscape:groupmode="layer"
     id="layer1"
     transform="translate(0,2490.9447)">
    <g
       id="g3113">
      <path
         inkscape:connector-curvature="0"
         style="fill:none;stroke:#000000"
         d="m 624.83071,1051.862 -356.10236,0 0,-283.46457 356.10236,0 0,-7.08661 -12.75591,0 -290.55118,0 -19.84252,0 -287.00787,0 0,-145.27559 L 0.5,608.94861 l 0,-131.10236 14.17323,-7.08661 0,-145.27559 L 0.5,318.39743 l 0,-131.10236 14.17323,-7.08661 0,-145.27556 287.00787,0 19.84252,0 290.55118,0 12.75591,0 0,-7.0866 -356.10236,0 0,-283.4646 356.10236,0 14.17323,0 0,-7.0866 -188.97638,-88.8189 0,-548.7402 188.97638,-88.8189 0,-14.1732 -21.25984,0 c -141.73229,0 -311.81103,0 -248.0315,-124.0158 35.43307,-70.8661 106.29921,-159.4488 248.0315,-159.4488 l 1381.8897,0 c 141.7323,0 212.5985,88.5827 248.0315,159.4488 63.7796,124.0158 -106.2992,124.0158 -248.0315,124.0158 l -21.2598,0 0,14.1732 188.9764,88.8189 0,548.7402 -188.9764,88.8189 0,7.0866 14.1732,0 356.1024,0 0,283.4646 -356.1024,0 0,7.0866 12.7559,0 290.5512,0 19.8425,0 287.0079,0 0,145.27556 14.1732,7.08661 0,131.10236 -14.1732,7.08662 0,145.27559 14.1732,7.08661 0,131.10236 -14.1732,7.08662 0,145.27559 -287.0079,0 -19.8425,0 -290.5512,0 -12.7559,0 0,7.08661 356.1024,0 0,283.46457 -356.1024,0 z"
         id="path4263" />
    </g>
    <path
       id="path4265"
       d="m 628.37402,616.03523 7.08661,0 0,-145.27559 -7.08661,0 z"
       style="fill:none;stroke:#000000"
       inkscape:connector-curvature="0" />
    <path
       id="path4267"
       d="m 628.37402,325.48405 7.08661,0 0,-145.27559 -7.08661,0 z"
       style="fill:none;stroke:#000000"
       inkscape:connector-curvature="0" />
    <path
       id="path4269"
       d="m 1989.0039,180.20846 -7.0866,0 0,145.27559 7.0866,0 z"
       style="fill:none;stroke:#000000"
       inkscape:connector-curvature="0" />
    <path
       id="path4271"
       d="m 1989.0039,470.75964 -7.0866,0 0,145.27559 7.0866,0 z"
       style="fill:none;stroke:#000000"
       inkscape:connector-curvature="0" />
    <path
       id="path4273"
       d="M624.83071 1051.862C624.83071 1051.862 624.83071 1045.28910812 624.83071 1034.14509971M624.83071 1016.42830665C624.83071 1010.98242867 624.83071 1005.04443341 624.83071 998.712740907M624.83071 980.996473715C624.83071 975.279967659 624.83071 969.356366033 624.83071 963.280367953M624.83071 945.562792855C624.83071 939.728448652 624.83071 933.808507959 624.83071 927.846074498M624.83071 910.129819112C624.83071 904.210607472 624.83071 898.29139559 624.83071 892.41348004M624.83071 874.69612335C624.83071 868.683936191 624.83071 862.762644873 624.83071 856.979416282M624.83071 839.262185538C624.83071 833.092926921 624.83071 827.164871694 624.83071 821.546772826M624.83071 803.830523928C624.83071 797.115582817 624.83071 791.14885628 624.83071 786.114852248M624.83071 768.39743C624.83071 768.39743 624.83071 768.39743 624.83071 768.39743"
       style="stroke:#44aaff;stroke-dashoffset:17.71653557;fill:none"
       inkscape:connector-curvature="0" />
    <path
       id="path4275"
       d="M612.0748 761.31082C612.0748 761.31082 612.0748 755.0146564 612.0748 743.594693768M612.0748 725.878623233C612.0748 720.501470602 612.0748 714.580063643 612.0748 708.161900598M612.0748 690.445339819C612.0748 684.808469777 612.0748 678.895433238 612.0748 672.728637356M612.0748 655.012052686C612.0748 649.276965126 612.0748 643.3667641 612.0748 637.296042665M612.0748 619.578713504C612.0748 613.790694441 612.0748 607.881300375 612.0748 601.861517933M612.0748 584.145287233C612.0748 578.323945963 612.0748 572.415264977 612.0748 566.428240063M612.0748 548.711493799C612.0748 542.866357658 612.0748 536.957983843 612.0748 530.994166957M612.0748 513.276950014C612.0748 507.413507927 612.0748 501.505400936 612.0748 495.5596715M612.0748 477.843292294C612.0748 471.964874825 612.0748 466.05714796 612.0748 460.12669126M612.0748 442.410581804C612.0748 436.518785185 612.0748 430.611204844 612.0748 424.694168044M612.0748 406.977773303C612.0748 401.07356347 612.0748 395.166231167 612.0748 389.262022718M612.0748 371.545304783C612.0748 365.627960157 612.0748 359.720074503 612.0748 353.827976085M612.0748 336.111401721C612.0748 330.181000411 612.0748 324.273330702 612.0748 318.39497202M612.0748 300.678066951C612.0748 294.732393247 612.0748 288.824343964 612.0748 282.960961452M612.0748 265.243745425C612.0748 259.280276378 612.0748 253.372247134 612.0748 247.527451073M612.0748 229.810730346C612.0748 223.824304382 612.0748 217.916210135 612.0748 212.09544088M612.0748 194.379736891C612.0748 188.360131839 612.0748 182.450911262 612.0748 176.66306098M612.0748 158.946337949C612.0748 152.875727828 612.0748 146.965634553 612.0748 141.230650545M612.0748 123.514158936C612.0748 117.347335022 612.0748 111.434275962 612.0748 105.797389493M612.0748 88.0807571283C612.0748 81.6628259123 612.0748 75.7416260007 612.0748 70.3646517067M612.0748 52.6479758235C612.0748 41.2286775202 612.0748 34.9329 612.0748 34.9329"
       style="stroke:#44aaff;stroke-dashoffset:17.71653557;fill:none"
       inkscape:connector-curvature="0" />
    <path
       id="path4277"
       d="M624.83071 27.8463C624.83071 27.8463 624.83071 21.2734074273 624.83071 10.1293978381M624.83071 -7.58739710195C624.83071 -13.0332756567 624.83071 -18.9712715417 624.83071 -25.3029647178M624.83071 -43.0192337845C624.83071 -48.7357404464 624.83071 -54.6593426989 624.83071 -60.7353414221M624.83071 -78.4529183949C624.83071 -84.2872632155 624.83071 -90.2072045347 624.83071 -96.1696386275M624.83071 -113.885895888C624.83071 -119.805108154 624.83071 -125.724320663 624.83071 -131.602236835M624.83071 -149.3195954C624.83071 -155.331346231 624.83071 -161.252214424 624.83071 -167.035043371M624.83071 -184.752496796C624.83071 -190.921835766 624.83071 -196.849971072 624.83071 -202.468147981M624.83071 -220.18465045C624.83071 -226.899690506 624.83071 -232.866508207 624.83071 -237.900590887M624.83071 -255.6183C624.83071 -255.6183 624.83071 -255.6183 624.83071 -255.6183"
       style="stroke:#44aaff;stroke-dashoffset:17.71653557;fill:none"
       inkscape:connector-curvature="0" />
    <path
       id="path4279"
       d="M639.00394 -262.7049C639.00394 -262.7049 639.00394 -269.001064294 639.00394 -280.421028183M639.00394 -298.13710067C639.00394 -303.514253893 639.00394 -309.435661504 639.00394 -315.853825256M639.00394 -333.570387986C639.00394 -339.207258649 639.00394 -345.120295838 639.00394 -351.2870924M639.00394 -369.003679021C639.00394 -374.738767213 639.00394 -380.64896889 639.00394 -386.719690994M639.00394 -404.437022106C639.00394 -410.225041806 639.00394 -416.134436523 639.00394 -422.154219628M639.00394 -439.87045228C639.00394 -445.69179419 639.00394 -451.600475827 639.00394 -457.587501401M639.00394 -475.304249615C639.00394 -481.1493864 639.00394 -487.057760866 639.00394 -493.021578409M639.00394 -510.738797304C639.00394 -516.602240036 639.00394 -522.510347678 639.00394 -528.456077768M639.00394 -546.172458926C639.00394 -552.050877042 639.00394 -557.958604558 639.00394 -563.889061911M639.00394 -581.605173318C639.00394 -587.496970586 639.00394 -593.404551577 639.00394 -599.32158903M639.00394 -617.037985721C639.00394 -622.942196205 639.00394 -628.849529158 639.00394 -634.753738258M639.00394 -652.470458144C639.00394 -658.387803422 639.00394 -664.295689727 639.00394 -670.187788793M639.00394 -687.904365109C639.00394 -693.834767072 639.00394 -699.742437431 639.00394 -705.620796761M639.00394 -723.337703781C639.00394 -729.283378139 639.00394 -735.191428074 639.00394 -741.054811232M639.00394 -758.77202921C639.00394 -764.735498914 639.00394 -770.643528808 639.00394 -776.488325513M639.00394 -794.205048191C639.00394 -800.191474814 639.00394 -806.099569712 639.00394 -811.920339609M639.00394 -829.636045548C639.00394 -835.655651263 639.00394 -841.564872491 639.00394 -847.35272341M639.00394 -865.069448393C639.00394 -871.140059182 639.00394 -877.050153109 639.00394 -882.785137747M639.00394 -900.501631308C639.00394 -906.668455901 639.00394 -912.581515612 639.00394 -918.218402703M639.00394 -935.935037018C639.00394 -942.352968941 639.00394 -948.274169505 639.00394 -953.651144391M639.00394 -971.367822225C639.00394 -982.787121786 639.00394 -989.0829 639.00394 -989.0829M639.00394 -989.0829"
       style="stroke:#44aaff;stroke-dashoffset:17.71653557;fill:none"
       inkscape:connector-curvature="0" />
    <path
       id="path4281"
       d="M617.7441 -1003.2561C617.7441 -1003.2561 617.7441 -1009.82899257 617.7441 -1020.97300216M617.7441 -1038.6897971C617.7441 -1044.13567566 617.7441 -1050.07367154 617.7441 -1056.40536472M617.7441 -1074.12163378C617.7441 -1079.83814045 617.7441 -1085.7617427 617.7441 -1091.83774142M617.7441 -1109.55531839C617.7441 -1115.38966322 617.7441 -1121.30960453 617.7441 -1127.27203863M617.7441 -1144.98829589C617.7441 -1150.90750815 617.7441 -1156.82672066 617.7441 -1162.70463684M617.7441 -1180.4219954C617.7441 -1186.43374623 617.7441 -1192.35461442 617.7441 -1198.13744337M617.7441 -1215.8548968C617.7441 -1222.02423577 617.7441 -1227.95237107 617.7441 -1233.57054798M617.7441 -1251.28705045C617.7441 -1258.00209051 617.7441 -1263.96890821 617.7441 -1269.00299089M617.7441 -1286.7207C617.7441 -1286.7207 617.7441 -1286.7207 617.7441 -1286.7207"
       style="stroke:#44aaff;stroke-dashoffset:17.71653557;fill:none"
       inkscape:connector-curvature="0" />
    <path
       id="path4283"
       d="M321.52362 761.31082C321.52362 761.31082 321.52362 755.0146564 321.52362 743.594693768M321.52362 725.878623233C321.52362 720.501470602 321.52362 714.580063643 321.52362 708.161900598M321.52362 690.445339819C321.52362 684.808469777 321.52362 678.895433238 321.52362 672.728637356M321.52362 655.012052686C321.52362 649.276965126 321.52362 643.3667641 321.52362 637.296042665M321.52362 619.578713504C321.52362 613.790694441 321.52362 607.881300375 321.52362 601.861517933M321.52362 584.145287233C321.52362 578.323945963 321.52362 572.415264977 321.52362 566.428240063M321.52362 548.711493799C321.52362 542.866357658 321.52362 536.957983843 321.52362 530.994166957M321.52362 513.276950014C321.52362 507.413507927 321.52362 501.505400936 321.52362 495.5596715M321.52362 477.843292294C321.52362 471.964874825 321.52362 466.05714796 321.52362 460.12669126M321.52362 442.410581804C321.52362 436.518785185 321.52362 430.611204844 321.52362 424.694168044M321.52362 406.977773303C321.52362 401.07356347 321.52362 395.166231167 321.52362 389.262022718M321.52362 371.545304783C321.52362 365.627960157 321.52362 359.720074503 321.52362 353.827976085M321.52362 336.111401721C321.52362 330.181000411 321.52362 324.273330702 321.52362 318.39497202M321.52362 300.678066951C321.52362 294.732393247 321.52362 288.824343964 321.52362 282.960961452M321.52362 265.243745425C321.52362 259.280276378 321.52362 253.372247134 321.52362 247.527451073M321.52362 229.810730346C321.52362 223.824304382 321.52362 217.916210135 321.52362 212.09544088M321.52362 194.379736891C321.52362 188.360131839 321.52362 182.450911262 321.52362 176.66306098M321.52362 158.946337949C321.52362 152.875727828 321.52362 146.965634553 321.52362 141.230650545M321.52362 123.514158936C321.52362 117.347335022 321.52362 111.434275962 321.52362 105.797389493M321.52362 88.0807571283C321.52362 81.6628259123 321.52362 75.7416260007 321.52362 70.3646517067M321.52362 52.6479758235C321.52362 41.2286775202 321.52362 34.9329 321.52362 34.9329"
       style="stroke:#44aaff;stroke-dashoffset:17.71653557;fill:none"
       inkscape:connector-curvature="0" />
    <path
       id="path4285"
       d="M301.6811 761.31082C301.6811 761.31082 301.6811 755.0146564 301.6811 743.594693768M301.6811 725.878623233C301.6811 720.501470602 301.6811 714.580063643 301.6811 708.161900598M301.6811 690.445339819C301.6811 684.808469777 301.6811 678.895433238 301.6811 672.728637356M301.6811 655.012052686C301.6811 649.276965126 301.6811 643.3667641 301.6811 637.296042665M301.6811 619.578713504C301.6811 613.790694441 301.6811 607.881300375 301.6811 601.861517933M301.6811 584.145287233C301.6811 578.323945963 301.6811 572.415264977 301.6811 566.428240063M301.6811 548.711493799C301.6811 542.866357658 301.6811 536.957983843 301.6811 530.994166957M301.6811 513.276950014C301.6811 507.413507927 301.6811 501.505400936 301.6811 495.5596715M301.6811 477.843292294C301.6811 471.964874825 301.6811 466.05714796 301.6811 460.12669126M301.6811 442.410581804C301.6811 436.518785185 301.6811 430.611204844 301.6811 424.694168044M301.6811 406.977773303C301.6811 401.07356347 301.6811 395.166231167 301.6811 389.262022718M301.6811 371.545304783C301.6811 365.627960157 301.6811 359.720074503 301.6811 353.827976085M301.6811 336.111401721C301.6811 330.181000411 301.6811 324.273330702 301.6811 318.39497202M301.6811 300.678066951C301.6811 294.732393247 301.6811 288.824343964 301.6811 282.960961452M301.6811 265.243745425C301.6811 259.280276378 301.6811 253.372247134 301.6811 247.527451073M301.6811 229.810730346C301.6811 223.824304382 301.6811 217.916210135 301.6811 212.09544088M301.6811 194.379736891C301.6811 188.360131839 301.6811 182.450911262 301.6811 176.66306098M301.6811 158.946337949C301.6811 152.875727828 301.6811 146.965634553 301.6811 141.230650545M301.6811 123.514158936C301.6811 117.347335022 301.6811 111.434275962 301.6811 105.797389493M301.6811 88.0807571283C301.6811 81.6628259123 301.6811 75.7416260007 301.6811 70.3646517067M301.6811 52.6479758235C301.6811 41.2286775202 301.6811 34.9329 301.6811 34.9329"
       style="stroke:#44aaff;stroke-dashoffset:17.71653557;fill:none"
       inkscape:connector-curvature="0" />
    <path
       id="path4287"
       d="M1992.5472 1051.862C1992.5472 1051.862 1992.5472 1045.28910812 1992.5472 1034.14509971M1992.5472 1016.42830665C1992.5472 1010.98242867 1992.5472 1005.04443341 1992.5472 998.712740907M1992.5472 980.996473715C1992.5472 975.279967659 1992.5472 969.356366033 1992.5472 963.280367953M1992.5472 945.562792855C1992.5472 939.728448652 1992.5472 933.808507959 1992.5472 927.846074498M1992.5472 910.129819112C1992.5472 904.210607472 1992.5472 898.29139559 1992.5472 892.41348004M1992.5472 874.69612335C1992.5472 868.683936191 1992.5472 862.762644873 1992.5472 856.979416282M1992.5472 839.262185538C1992.5472 833.092926921 1992.5472 827.164871694 1992.5472 821.546772826M1992.5472 803.830523928C1992.5472 797.115582817 1992.5472 791.14885628 1992.5472 786.114852248M1992.5472 768.39743C1992.5472 768.39743 1992.5472 768.39743 1992.5472 768.39743"
       style="stroke:#44aaff;stroke-dashoffset:17.71653557;fill:none"
       inkscape:connector-curvature="0" />
    <path
       id="path4289"
       d="M2005.3031 761.31082C2005.3031 761.31082 2005.3031 755.0146564 2005.3031 743.594693768M2005.3031 725.878623233C2005.3031 720.501470602 2005.3031 714.580063643 2005.3031 708.161900598M2005.3031 690.445339819C2005.3031 684.808469777 2005.3031 678.895433238 2005.3031 672.728637356M2005.3031 655.012052686C2005.3031 649.276965126 2005.3031 643.3667641 2005.3031 637.296042665M2005.3031 619.578713504C2005.3031 613.790694441 2005.3031 607.881300375 2005.3031 601.861517933M2005.3031 584.145287233C2005.3031 578.323945963 2005.3031 572.415264977 2005.3031 566.428240063M2005.3031 548.711493799C2005.3031 542.866357658 2005.3031 536.957983843 2005.3031 530.994166957M2005.3031 513.276950014C2005.3031 507.413507927 2005.3031 501.505400936 2005.3031 495.5596715M2005.3031 477.843292294C2005.3031 471.964874825 2005.3031 466.05714796 2005.3031 460.12669126M2005.3031 442.410581804C2005.3031 436.518785185 2005.3031 430.611204844 2005.3031 424.694168044M2005.3031 406.977773303C2005.3031 401.07356347 2005.3031 395.166231167 2005.3031 389.262022718M2005.3031 371.545304783C2005.3031 365.627960157 2005.3031 359.720074503 2005.3031 353.827976085M2005.3031 336.111401721C2005.3031 330.181000411 2005.3031 324.273330702 2005.3031 318.39497202M2005.3031 300.678066951C2005.3031 294.732393247 2005.3031 288.824343964 2005.3031 282.960961452M2005.3031 265.243745425C2005.3031 259.280276378 2005.3031 253.372247134 2005.3031 247.527451073M2005.3031 229.810730346C2005.3031 223.824304382 2005.3031 217.916210135 2005.3031 212.09544088M2005.3031 194.379736891C2005.3031 188.360131839 2005.3031 182.450911262 2005.3031 176.66306098M2005.3031 158.946337949C2005.3031 152.875727828 2005.3031 146.965634553 2005.3031 141.230650545M2005.3031 123.514158936C2005.3031 117.347335022 2005.3031 111.434275962 2005.3031 105.797389493M2005.3031 88.0807571283C2005.3031 81.6628259123 2005.3031 75.7416260007 2005.3031 70.3646517067M2005.3031 52.6479758235C2005.3031 41.2286775202 2005.3031 34.9329 2005.3031 34.9329"
       style="stroke:#44aaff;stroke-dashoffset:17.71653557;fill:none"
       inkscape:connector-curvature="0" />
    <path
       id="path4291"
       d="M1992.5472 27.8463C1992.5472 27.8463 1992.5472 21.2734074273 1992.5472 10.1293978381M1992.5472 -7.58739710195C1992.5472 -13.0332756567 1992.5472 -18.9712715417 1992.5472 -25.3029647178M1992.5472 -43.0192337845C1992.5472 -48.7357404464 1992.5472 -54.6593426989 1992.5472 -60.7353414221M1992.5472 -78.4529183949C1992.5472 -84.2872632155 1992.5472 -90.2072045347 1992.5472 -96.1696386275M1992.5472 -113.885895888C1992.5472 -119.805108154 1992.5472 -125.724320663 1992.5472 -131.602236835M1992.5472 -149.3195954C1992.5472 -155.331346231 1992.5472 -161.252214424 1992.5472 -167.035043371M1992.5472 -184.752496796C1992.5472 -190.921835766 1992.5472 -196.849971072 1992.5472 -202.468147981M1992.5472 -220.18465045C1992.5472 -226.899690506 1992.5472 -232.866508207 1992.5472 -237.900590887M1992.5472 -255.6183C1992.5472 -255.6183 1992.5472 -255.6183 1992.5472 -255.6183"
       style="stroke:#44aaff;stroke-dashoffset:17.71653557;fill:none"
       inkscape:connector-curvature="0" />
    <path
       id="path4293"
       d="M1978.374 -262.7049C1978.374 -262.7049 1978.374 -269.001064294 1978.374 -280.421028183M1978.374 -298.13710067C1978.374 -303.514253893 1978.374 -309.435661504 1978.374 -315.853825256M1978.374 -333.570387986C1978.374 -339.207258649 1978.374 -345.120295838 1978.374 -351.2870924M1978.374 -369.003679021C1978.374 -374.738767213 1978.374 -380.64896889 1978.374 -386.719690994M1978.374 -404.437022106C1978.374 -410.225041806 1978.374 -416.134436523 1978.374 -422.154219628M1978.374 -439.87045228C1978.374 -445.69179419 1978.374 -451.600475827 1978.374 -457.587501401M1978.374 -475.304249615C1978.374 -481.1493864 1978.374 -487.057760866 1978.374 -493.021578409M1978.374 -510.738797304C1978.374 -516.602240036 1978.374 -522.510347678 1978.374 -528.456077768M1978.374 -546.172458926C1978.374 -552.050877042 1978.374 -557.958604558 1978.374 -563.889061911M1978.374 -581.605173318C1978.374 -587.496970586 1978.374 -593.404551577 1978.374 -599.32158903M1978.374 -617.037985721C1978.374 -622.942196205 1978.374 -628.849529158 1978.374 -634.753738258M1978.374 -652.470458144C1978.374 -658.387803422 1978.374 -664.295689727 1978.374 -670.187788793M1978.374 -687.904365109C1978.374 -693.834767072 1978.374 -699.742437431 1978.374 -705.620796761M1978.374 -723.337703781C1978.374 -729.283378139 1978.374 -735.191428074 1978.374 -741.054811232M1978.374 -758.77202921C1978.374 -764.735498914 1978.374 -770.643528808 1978.374 -776.488325513M1978.374 -794.205048191C1978.374 -800.191474814 1978.374 -806.099569712 1978.374 -811.920339609M1978.374 -829.636045548C1978.374 -835.655651263 1978.374 -841.564872491 1978.374 -847.35272341M1978.374 -865.069448393C1978.374 -871.140059182 1978.374 -877.050153109 1978.374 -882.785137747M1978.374 -900.501631308C1978.374 -906.668455901 1978.374 -912.581515612 1978.374 -918.218402703M1978.374 -935.935037018C1978.374 -942.352968941 1978.374 -948.274169505 1978.374 -953.651144391M1978.374 -971.367822225C1978.374 -982.787121786 1978.374 -989.0829 1978.374 -989.0829M1978.374 -989.0829"
       style="stroke:#44aaff;stroke-dashoffset:17.71653557;fill:none"
       inkscape:connector-curvature="0" />
    <path
       id="path4295"
       d="M1999.6338 -1003.2561C1999.6338 -1003.2561 1999.6338 -1009.82899257 1999.6338 -1020.97300216M1999.6338 -1038.6897971C1999.6338 -1044.13567566 1999.6338 -1050.07367154 1999.6338 -1056.40536472M1999.6338 -1074.12163378C1999.6338 -1079.83814045 1999.6338 -1085.7617427 1999.6338 -1091.83774142M1999.6338 -1109.55531839C1999.6338 -1115.38966322 1999.6338 -1121.30960453 1999.6338 -1127.27203863M1999.6338 -1144.98829589C1999.6338 -1150.90750815 1999.6338 -1156.82672066 1999.6338 -1162.70463684M1999.6338 -1180.4219954C1999.6338 -1186.43374623 1999.6338 -1192.35461442 1999.6338 -1198.13744337M1999.6338 -1215.8548968C1999.6338 -1222.02423577 1999.6338 -1227.95237107 1999.6338 -1233.57054798M1999.6338 -1251.28705045C1999.6338 -1258.00209051 1999.6338 -1263.96890821 1999.6338 -1269.00299089M1999.6338 -1286.7207C1999.6338 -1286.7207 1999.6338 -1286.7207 1999.6338 -1286.7207"
       style="stroke:#44aaff;stroke-dashoffset:17.71653557;fill:none"
       inkscape:connector-curvature="0" />
    <path
       id="path4297"
       d="M2295.8543 761.31082C2295.8543 761.31082 2295.8543 755.0146564 2295.8543 743.594693768M2295.8543 725.878623233C2295.8543 720.501470602 2295.8543 714.580063643 2295.8543 708.161900598M2295.8543 690.445339819C2295.8543 684.808469777 2295.8543 678.895433238 2295.8543 672.728637356M2295.8543 655.012052686C2295.8543 649.276965126 2295.8543 643.3667641 2295.8543 637.296042665M2295.8543 619.578713504C2295.8543 613.790694441 2295.8543 607.881300375 2295.8543 601.861517933M2295.8543 584.145287233C2295.8543 578.323945963 2295.8543 572.415264977 2295.8543 566.428240063M2295.8543 548.711493799C2295.8543 542.866357658 2295.8543 536.957983843 2295.8543 530.994166957M2295.8543 513.276950014C2295.8543 507.413507927 2295.8543 501.505400936 2295.8543 495.5596715M2295.8543 477.843292294C2295.8543 471.964874825 2295.8543 466.05714796 2295.8543 460.12669126M2295.8543 442.410581804C2295.8543 436.518785185 2295.8543 430.611204844 2295.8543 424.694168044M2295.8543 406.977773303C2295.8543 401.07356347 2295.8543 395.166231167 2295.8543 389.262022718M2295.8543 371.545304783C2295.8543 365.627960157 2295.8543 359.720074503 2295.8543 353.827976085M2295.8543 336.111401721C2295.8543 330.181000411 2295.8543 324.273330702 2295.8543 318.39497202M2295.8543 300.678066951C2295.8543 294.732393247 2295.8543 288.824343964 2295.8543 282.960961452M2295.8543 265.243745425C2295.8543 259.280276378 2295.8543 253.372247134 2295.8543 247.527451073M2295.8543 229.810730346C2295.8543 223.824304382 2295.8543 217.916210135 2295.8543 212.09544088M2295.8543 194.379736891C2295.8543 188.360131839 2295.8543 182.450911262 2295.8543 176.66306098M2295.8543 158.946337949C2295.8543 152.875727828 2295.8543 146.965634553 2295.8543 141.230650545M2295.8543 123.514158936C2295.8543 117.347335022 2295.8543 111.434275962 2295.8543 105.797389493M2295.8543 88.0807571283C2295.8543 81.6628259123 2295.8543 75.7416260007 2295.8543 70.3646517067M2295.8543 52.6479758235C2295.8543 41.2286775202 2295.8543 34.9329 2295.8543 34.9329"
       style="stroke:#44aaff;stroke-dashoffset:17.71653557;fill:none"
       inkscape:connector-curvature="0" />
    <path
       id="path4299"
       d="M2315.6968 761.31082C2315.6968 761.31082 2315.6968 755.0146564 2315.6968 743.594693768M2315.6968 725.878623233C2315.6968 720.501470602 2315.6968 714.580063643 2315.6968 708.161900598M2315.6968 690.445339819C2315.6968 684.808469777 2315.6968 678.895433238 2315.6968 672.728637356M2315.6968 655.012052686C2315.6968 649.276965126 2315.6968 643.3667641 2315.6968 637.296042665M2315.6968 619.578713504C2315.6968 613.790694441 2315.6968 607.881300375 2315.6968 601.861517933M2315.6968 584.145287233C2315.6968 578.323945963 2315.6968 572.415264977 2315.6968 566.428240063M2315.6968 548.711493799C2315.6968 542.866357658 2315.6968 536.957983843 2315.6968 530.994166957M2315.6968 513.276950014C2315.6968 507.413507927 2315.6968 501.505400936 2315.6968 495.5596715M2315.6968 477.843292294C2315.6968 471.964874825 2315.6968 466.05714796 2315.6968 460.12669126M2315.6968 442.410581804C2315.6968 436.518785185 2315.6968 430.611204844 2315.6968 424.694168044M2315.6968 406.977773303C2315.6968 401.07356347 2315.6968 395.166231167 2315.6968 389.262022718M2315.6968 371.545304783C2315.6968 365.627960157 2315.6968 359.720074503 2315.6968 353.827976085M2315.6968 336.111401721C2315.6968 330.181000411 2315.6968 324.273330702 2315.6968 318.39497202M2315.6968 300.678066951C2315.6968 294.732393247 2315.6968 288.824343964 2315.6968 282.960961452M2315.6968 265.243745425C2315.6968 259.280276378 2315.6968 253.372247134 2315.6968 247.527451073M2315.6968 229.810730346C2315.6968 223.824304382 2315.6968 217.916210135 2315.6968 212.09544088M2315.6968 194.379736891C2315.6968 188.360131839 2315.6968 182.450911262 2315.6968 176.66306098M2315.6968 158.946337949C2315.6968 152.875727828 2315.6968 146.965634553 2315.6968 141.230650545M2315.6968 123.514158936C2315.6968 117.347335022 2315.6968 111.434275962 2315.6968 105.797389493M2315.6968 88.0807571283C2315.6968 81.6628259123 2315.6968 75.7416260007 2315.6968 70.3646517067M2315.6968 52.6479758235C2315.6968 41.2286775202 2315.6968 34.9329 2315.6968 34.9329"
       style="stroke:#44aaff;stroke-dashoffset:17.71653557;fill:none"
       inkscape:connector-curvature="0" />
    <path
       id="path4301"
       d="M624.83071 764.85413C624.83071 764.85413 631.013357562 764.85413 642.547283946 764.85413M660.263552797 764.85413C665.618200885 764.85413 671.534471707 764.85413 677.981020228 764.85413M695.69757364 764.85413C701.312622368 764.85413 707.222913869 764.85413 713.414370269 764.85413M731.13186438 764.85413C736.845103155 764.85413 742.753703553 764.85413 748.848916749 764.85413M766.564720331 764.85413C772.329174128 764.85413 778.236581935 764.85413 784.280666659 764.85413M801.996753735 764.85413C807.793566685 764.85413 813.701016784 764.85413 819.714213719 764.85413M837.429823547 764.85413C843.248319535 764.85413 849.155419459 764.85413 855.14710649 764.85413M872.863279854 764.85413C878.697354951 764.85413 884.603978052 764.85413 890.579724121 764.85413M908.295398865 764.85413C914.141734834 764.85413 920.048339669 764.85413 926.012209317 764.85413M943.729224188 764.85413C949.585359407 764.85413 955.491996138 764.85413 961.446441257 764.85413M979.16294993 764.85413C985.026561143 764.85413 990.932647736 764.85413 996.878752961 764.85413M1014.59434417 764.85413C1020.46472275 764.85413 1026.37081848 764.85413 1032.31035632 764.85413M1050.02610353 764.85413C1055.9021277 764.85413 1061.80803421 764.85413 1067.74168985 764.85413M1085.45779111 764.85413C1091.33922979 764.85413 1097.24541179 764.85413 1103.1743143 764.85413M1120.89026663 764.85413C1126.77600755 764.85413 1132.68186755 764.85413 1138.60591019 764.85413M1156.32258541 764.85413C1162.21286482 764.85413 1168.11903322 764.85413 1174.0392197 764.85413M1191.7567065 764.85413C1197.65092374 764.85413 1203.55708516 764.85413 1209.47336855 764.85413M1227.18926829 764.85413C1233.087237 764.85413 1238.99340941 764.85413 1244.90599689 764.85413M1262.62230356 764.85413C1268.52361718 764.85413 1274.42952636 764.85413 1280.33826259 764.85413M1298.05505733 764.85413C1303.9598352 764.85413 1309.86567041 764.85413 1315.77080147 764.85413M1333.48648117 764.85413C1339.39526559 764.85413 1345.30157825 764.85413 1351.20365157 764.85413M1368.92046412 764.85413C1374.83272328 764.85413 1380.73893119 764.85413 1386.63730179 764.85413M1404.35456902 764.85413C1410.27029635 764.85413 1416.17628098 764.85413 1422.07070488 764.85413M1439.78728527 764.85413C1445.70688463 764.85413 1451.61286797 764.85413 1457.5033702 764.85413M1475.22035548 764.85413C1481.14415163 764.85413 1487.05019645 764.85413 1492.93656078 764.85413M1510.65336772 764.85413C1516.5817766 764.85413 1522.4879396 764.85413 1528.36984356 764.85413M1546.08685306 764.85413C1552.02027937 764.85413 1557.92648438 764.85413 1563.8033469 764.85413M1581.51997064 764.85413C1587.45910853 764.85413 1593.36540745 764.85413 1599.23660794 764.85413M1616.95272282 764.85413C1622.89814741 764.85413 1628.80425932 764.85413 1634.66862211 764.85413M1652.3849765 764.85413C1658.33814689 764.85413 1664.24436068 764.85413 1670.1009519 764.85413M1687.81866172 764.85413C1693.7815996 764.85413 1699.68831071 764.85413 1705.53582621 764.85413M1723.25294894 764.85413C1729.2276565 764.85413 1735.13455806 764.85413 1740.97027659 764.85413M1758.68755624 764.85413C1764.67702609 764.85413 1770.58367801 764.85413 1776.40356541 764.85413M1794.12046123 764.85413C1800.13090239 764.85413 1806.03807039 764.85413 1811.83718067 764.85413M1829.55462316 764.85413C1835.59516816 764.85413 1841.50275508 764.85413 1847.27127965 764.85413M1864.98854964 764.85413C1871.07691008 764.85413 1876.98501223 764.85413 1882.7044366 764.85413M1900.42125984 764.85413C1906.59924015 764.85413 1912.50917016 764.85413 1918.13775707 764.85413M1935.85427204 764.85413C1942.25722593 764.85413 1948.17190303 764.85413 1953.57015835 764.85413M1971.28659534 764.85413C1979.54174815 764.85413 1985.52572743 764.85413 1989.00331197 764.85413M1992.5472 764.85413"
       style="stroke:#44aaff;stroke-dashoffset:17.71653557;fill:none"
       inkscape:connector-curvature="0" />
    <path
       id="path4303"
       d="M624.83071 31.3896C624.83071 31.3896 631.013357562 31.3896 642.547283946 31.3896M660.263552797 31.3896C665.618200885 31.3896 671.534471707 31.3896 677.981020228 31.3896M695.69757364 31.3896C701.312622368 31.3896 707.222913869 31.3896 713.414370269 31.3896M731.13186438 31.3896C736.845103155 31.3896 742.753703553 31.3896 748.848916749 31.3896M766.564720331 31.3896C772.329174128 31.3896 778.236581935 31.3896 784.280666659 31.3896M801.996753735 31.3896C807.793566685 31.3896 813.701016784 31.3896 819.714213719 31.3896M837.429823547 31.3896C843.248319535 31.3896 849.155419459 31.3896 855.14710649 31.3896M872.863279854 31.3896C878.697354951 31.3896 884.603978052 31.3896 890.579724121 31.3896M908.295398865 31.3896C914.141734834 31.3896 920.048339669 31.3896 926.012209317 31.3896M943.729224188 31.3896C949.585359407 31.3896 955.491996138 31.3896 961.446441257 31.3896M979.16294993 31.3896C985.026561143 31.3896 990.932647736 31.3896 996.878752961 31.3896M1014.59434417 31.3896C1020.46472275 31.3896 1026.37081848 31.3896 1032.31035632 31.3896M1050.02610353 31.3896C1055.9021277 31.3896 1061.80803421 31.3896 1067.74168985 31.3896M1085.45779111 31.3896C1091.33922979 31.3896 1097.24541179 31.3896 1103.1743143 31.3896M1120.89026663 31.3896C1126.77600755 31.3896 1132.68186755 31.3896 1138.60591019 31.3896M1156.32258541 31.3896C1162.21286482 31.3896 1168.11903322 31.3896 1174.0392197 31.3896M1191.7567065 31.3896C1197.65092374 31.3896 1203.55708516 31.3896 1209.47336855 31.3896M1227.18926829 31.3896C1233.087237 31.3896 1238.99340941 31.3896 1244.90599689 31.3896M1262.62230356 31.3896C1268.52361718 31.3896 1274.42952636 31.3896 1280.33826259 31.3896M1298.05505733 31.3896C1303.9598352 31.3896 1309.86567041 31.3896 1315.77080147 31.3896M1333.48648117 31.3896C1339.39526559 31.3896 1345.30157825 31.3896 1351.20365157 31.3896M1368.92046412 31.3896C1374.83272328 31.3896 1380.73893119 31.3896 1386.63730179 31.3896M1404.35456902 31.3896C1410.27029635 31.3896 1416.17628098 31.3896 1422.07070488 31.3896M1439.78728527 31.3896C1445.70688463 31.3896 1451.61286797 31.3896 1457.5033702 31.3896M1475.22035548 31.3896C1481.14415163 31.3896 1487.05019645 31.3896 1492.93656078 31.3896M1510.65336772 31.3896C1516.5817766 31.3896 1522.4879396 31.3896 1528.36984356 31.3896M1546.08685306 31.3896C1552.02027937 31.3896 1557.92648438 31.3896 1563.8033469 31.3896M1581.51997064 31.3896C1587.45910853 31.3896 1593.36540745 31.3896 1599.23660794 31.3896M1616.95272282 31.3896C1622.89814741 31.3896 1628.80425932 31.3896 1634.66862211 31.3896M1652.3849765 31.3896C1658.33814689 31.3896 1664.24436068 31.3896 1670.1009519 31.3896M1687.81866172 31.3896C1693.7815996 31.3896 1699.68831071 31.3896 1705.53582621 31.3896M1723.25294894 31.3896C1729.2276565 31.3896 1735.13455806 31.3896 1740.97027659 31.3896M1758.68755624 31.3896C1764.67702609 31.3896 1770.58367801 31.3896 1776.40356541 31.3896M1794.12046123 31.3896C1800.13090239 31.3896 1806.03807039 31.3896 1811.83718067 31.3896M1829.55462316 31.3896C1835.59516816 31.3896 1841.50275508 31.3896 1847.27127965 31.3896M1864.98854964 31.3896C1871.07691008 31.3896 1876.98501223 31.3896 1882.7044366 31.3896M1900.42125984 31.3896C1906.59924015 31.3896 1912.50917016 31.3896 1918.13775707 31.3896M1935.85427204 31.3896C1942.25722593 31.3896 1948.17190303 31.3896 1953.57015835 31.3896M1971.28659534 31.3896C1979.54174815 31.3896 1985.52572743 31.3896 1989.00331197 31.3896M1992.5472 31.3896"
       style="stroke:#44aaff;stroke-dashoffset:17.71653557;fill:none"
       inkscape:connector-curvature="0" />
    <path
       id="path4305"
       d="M639.00394 -259.1616C639.00394 -259.1616 645.189690459 -259.1616 656.720438628 -259.1616M674.43673492 -259.1616C679.791631776 -259.1616 685.707629589 -259.1616 692.152974092 -259.1616M709.869258848 -259.1616C715.484626935 -259.1616 721.394745632 -259.1616 727.5853341 -259.1616M745.301339995 -259.1616C751.015046504 -259.1616 756.92363365 -259.1616 763.018215385 -259.1616M780.734817457 -259.1616C786.499782445 -259.1616 792.407207348 -259.1616 798.450709462 -259.1616M816.166438329 -259.1616C821.963521824 -259.1616 827.870720943 -259.1616 833.883058164 -259.1616M851.599633276 -259.1616C857.418215288 -259.1616 863.324853234 -259.1616 869.315454405 -259.1616M887.032491391 -259.1616C892.867212384 -259.1616 898.773923074 -259.1616 904.749128611 -259.1616M922.465873175 -259.1616C928.312467297 -259.1616 934.218731929 -259.1616 940.181598662 -259.1616M957.898114074 -259.1616C963.754696461 -259.1616 969.661150824 -259.1616 975.614722532 -259.1616M993.332128891 -259.1616C999.196978398 -259.1616 1005.10364455 -259.1616 1011.04961006 -259.1616M1028.76574853 -259.1616C1034.63716496 -259.1616 1040.54358906 -259.1616 1046.48268664 -259.1616M1064.19894255 -259.1616C1070.07625305 -259.1616 1075.98268517 -259.1616 1081.9160466 -259.1616M1099.6326269 -259.1616C1105.5147929 -259.1616 1111.42087559 -259.1616 1117.34879328 -259.1616M1135.06593106 -259.1616C1140.95276217 -259.1616 1146.85881979 -259.1616 1152.78210725 -259.1616M1170.49861238 -259.1616C1176.38992777 -259.1616 1182.29616064 -259.1616 1188.21537824 -259.1616M1205.93198707 -259.1616C1211.82693017 -259.1616 1217.73275501 -259.1616 1223.64757549 -259.1616M1241.36385352 -259.1616C1247.26305771 -259.1616 1253.16930132 -259.1616 1259.08072831 -259.1616M1276.79730186 -259.1616C1282.70009675 -259.1616 1288.60620305 -259.1616 1294.51378081 -259.1616M1312.23125235 -259.1616C1318.13769344 -259.1616 1324.04376713 -259.1616 1329.94763555 -259.1616M1347.66341982 -259.1616C1353.57343221 -259.1616 1359.47938314 -259.1616 1365.37942313 -259.1616M1383.09655505 -259.1616C1389.01077272 -259.1616 1394.91715241 -259.1616 1400.81381825 -259.1616M1418.52998696 -259.1616C1424.44797267 -259.1616 1430.35419339 -259.1616 1436.24673206 -259.1616M1453.96306354 -259.1616C1459.88531919 -259.1616 1465.79165032 -259.1616 1471.68008126 -259.1616M1489.39721002 -259.1616C1495.32372311 -259.1616 1501.22982746 -259.1616 1507.11346928 -259.1616M1524.82994235 -259.1616C1530.76184098 -259.1616 1536.66839708 -259.1616 1542.54745424 -259.1616M1560.26315422 -259.1616C1566.20024641 -259.1616 1572.10647136 -259.1616 1577.97954147 -259.1616M1595.69624679 -259.1616C1601.63985921 -259.1616 1607.54627182 -259.1616 1613.41302752 -259.1616M1631.1295552 -259.1616C1637.08056027 -259.1616 1642.986946 -259.1616 1648.84603603 -259.1616M1666.56217538 -259.1616C1672.5219457 -259.1616 1678.42817393 -259.1616 1684.27789575 -259.1616M1701.99508441 -259.1616C1707.96627723 -259.1616 1713.8728549 -259.1616 1719.71146524 -259.1616M1737.42717138 -259.1616C1743.41305529 -259.1616 1749.32008539 -259.1616 1755.14437101 -259.1616M1772.86002349 -259.1616C1778.86541962 -259.1616 1784.77280514 -259.1616 1790.57750768 -259.1616M1808.29483617 -259.1616C1814.32774048 -259.1616 1820.23525905 -259.1616 1826.01150838 -259.1616M1843.72768687 -259.1616C1849.80390531 -259.1616 1855.71206317 -259.1616 1861.44420447 -259.1616M1879.16100277 -259.1616C1885.31488413 -259.1616 1891.22447338 -259.1616 1896.87764833 -259.1616M1914.59326102 -259.1616C1920.92725234 -259.1616 1926.84090676 -259.1616 1932.3106453 -259.1616M1950.02790946 -259.1616C1957.2620376 -259.1616 1963.20309095 -259.1616 1967.74421449 -259.1616M1978.374 -259.1616"
       style="stroke:#44aaff;stroke-dashoffset:17.71653557;fill:none"
       inkscape:connector-curvature="0" />
    <path
       id="path4307"
       d="M639.00394 -999.7128C639.00394 -999.7128 645.189690459 -999.7128 656.720438628 -999.7128M674.43673492 -999.7128C679.791631776 -999.7128 685.707629589 -999.7128 692.152974092 -999.7128M709.869258848 -999.7128C715.484626935 -999.7128 721.394745632 -999.7128 727.5853341 -999.7128M745.301339995 -999.7128C751.015046504 -999.7128 756.92363365 -999.7128 763.018215385 -999.7128M780.734817457 -999.7128C786.499782445 -999.7128 792.407207348 -999.7128 798.450709462 -999.7128M816.166438329 -999.7128C821.963521824 -999.7128 827.870720943 -999.7128 833.883058164 -999.7128M851.599633276 -999.7128C857.418215288 -999.7128 863.324853234 -999.7128 869.315454405 -999.7128M887.032491391 -999.7128C892.867212384 -999.7128 898.773923074 -999.7128 904.749128611 -999.7128M922.465873175 -999.7128C928.312467297 -999.7128 934.218731929 -999.7128 940.181598662 -999.7128M957.898114074 -999.7128C963.754696461 -999.7128 969.661150824 -999.7128 975.614722532 -999.7128M993.332128891 -999.7128C999.196978398 -999.7128 1005.10364455 -999.7128 1011.04961006 -999.7128M1028.76574853 -999.7128C1034.63716496 -999.7128 1040.54358906 -999.7128 1046.48268664 -999.7128M1064.19894255 -999.7128C1070.07625305 -999.7128 1075.98268517 -999.7128 1081.9160466 -999.7128M1099.6326269 -999.7128C1105.5147929 -999.7128 1111.42087559 -999.7128 1117.34879328 -999.7128M1135.06593106 -999.7128C1140.95276217 -999.7128 1146.85881979 -999.7128 1152.78210725 -999.7128M1170.49861238 -999.7128C1176.38992777 -999.7128 1182.29616064 -999.7128 1188.21537824 -999.7128M1205.93198707 -999.7128C1211.82693017 -999.7128 1217.73275501 -999.7128 1223.64757549 -999.7128M1241.36385352 -999.7128C1247.26305771 -999.7128 1253.16930132 -999.7128 1259.08072831 -999.7128M1276.79730186 -999.7128C1282.70009675 -999.7128 1288.60620305 -999.7128 1294.51378081 -999.7128M1312.23125235 -999.7128C1318.13769344 -999.7128 1324.04376713 -999.7128 1329.94763555 -999.7128M1347.66341982 -999.7128C1353.57343221 -999.7128 1359.47938314 -999.7128 1365.37942313 -999.7128M1383.09655505 -999.7128C1389.01077272 -999.7128 1394.91715241 -999.7128 1400.81381825 -999.7128M1418.52998696 -999.7128C1424.44797267 -999.7128 1430.35419339 -999.7128 1436.24673206 -999.7128M1453.96306354 -999.7128C1459.88531919 -999.7128 1465.79165032 -999.7128 1471.68008126 -999.7128M1489.39721002 -999.7128C1495.32372311 -999.7128 1501.22982746 -999.7128 1507.11346928 -999.7128M1524.82994235 -999.7128C1530.76184098 -999.7128 1536.66839708 -999.7128 1542.54745424 -999.7128M1560.26315422 -999.7128C1566.20024641 -999.7128 1572.10647136 -999.7128 1577.97954147 -999.7128M1595.69624679 -999.7128C1601.63985921 -999.7128 1607.54627182 -999.7128 1613.41302752 -999.7128M1631.1295552 -999.7128C1637.08056027 -999.7128 1642.986946 -999.7128 1648.84603603 -999.7128M1666.56217538 -999.7128C1672.5219457 -999.7128 1678.42817393 -999.7128 1684.27789575 -999.7128M1701.99508441 -999.7128C1707.96627723 -999.7128 1713.8728549 -999.7128 1719.71146524 -999.7128M1737.42717138 -999.7128C1743.41305529 -999.7128 1749.32008539 -999.7128 1755.14437101 -999.7128M1772.86002349 -999.7128C1778.86541962 -999.7128 1784.77280514 -999.7128 1790.57750768 -999.7128M1808.29483617 -999.7128C1814.32774048 -999.7128 1820.23525905 -999.7128 1826.01150838 -999.7128M1843.72768687 -999.7128C1849.80390531 -999.7128 1855.71206317 -999.7128 1861.44420447 -999.7128M1879.16100277 -999.7128C1885.31488413 -999.7128 1891.22447338 -999.7128 1896.87764833 -999.7128M1914.59326102 -999.7128C1920.92725234 -999.7128 1926.84090676 -999.7128 1932.3106453 -999.7128M1950.02790946 -999.7128C1957.2620376 -999.7128 1963.20309095 -999.7128 1967.74421449 -999.7128M1978.374 -999.7128"
       style="stroke:#44aaff;stroke-dashoffset:17.71653557;fill:none"
       inkscape:connector-curvature="0" />
  </g>
</svg>
