<?xml version="1.0" encoding="UTF-8" standalone="no"?>
<!-- Created with Inkscape (http://www.inkscape.org/) -->

<svg
   xmlns:dc="http://purl.org/dc/elements/1.1/"
   xmlns:cc="http://creativecommons.org/ns#"
   xmlns:rdf="http://www.w3.org/1999/02/22-rdf-syntax-ns#"
   xmlns:svg="http://www.w3.org/2000/svg"
   xmlns="http://www.w3.org/2000/svg"
   xmlns:sodipodi="http://sodipodi.sourceforge.net/DTD/sodipodi-0.dtd"
   xmlns:inkscape="http://www.inkscape.org/namespaces/inkscape"
   sodipodi:docname="коробка-набор-2мм.svg"
   inkscape:version="0.91 r"
   version="1.1"
   id="svg3764"
   viewBox="0 0 4212.992 2979.9212"
   height="841mm"
   width="1189mm">
  <sodipodi:namedview
     inkscape:snap-global="false"
     inkscape:object-nodes="true"
     inkscape:bbox-nodes="true"
     inkscape:snap-bbox-edge-midpoints="true"
     inkscape:bbox-paths="true"
     inkscape:snap-bbox="true"
     inkscape:guide-bbox="true"
     showguides="true"
     inkscape:window-maximized="1"
     inkscape:window-y="24"
     inkscape:window-x="65"
     inkscape:window-height="744"
     inkscape:window-width="1301"
     showgrid="false"
     inkscape:current-layer="layer1"
     inkscape:document-units="mm"
     inkscape:cy="1882.9599"
     inkscape:cx="1298.4974"
     inkscape:zoom="0.1979899"
     inkscape:pageshadow="2"
     inkscape:pageopacity="0.0"
     borderopacity="1.0"
     bordercolor="#666666"
     pagecolor="#ffffff"
     id="base" />
  <defs
     id="defs3766" />
  <metadata
     id="metadata3769">
    <rdf:RDF>
      <cc:Work
         rdf:about="">
        <dc:format>image/svg+xml</dc:format>
        <dc:type
           rdf:resource="http://purl.org/dc/dcmitype/StillImage" />
        <dc:title />
      </cc:Work>
    </rdf:RDF>
  </metadata>
  <g
     inkscape:label="Layer 1"
     inkscape:groupmode="layer"
     id="layer1"
     transform="translate(0,1927.5589)">
    <path
       id="path3560"
       style="fill:none;stroke:#000000"
       d="m 624.83071,1051.8624 -382.67717,0 0,-283.46457 382.67717,0 0,-7.08661 -12.75591,0 -290.55118,0 -19.84252,0 -287.00787,0 0,-155.90551 L 0.5,598.31909 l 0,-141.73228 14.17323,-7.08661 0,-155.90552 L 0.5,286.50807 l 0,-141.73228 14.17323,-7.08662 0,-155.90547 287.00787,0 19.84252,0 290.55118,0 12.75591,0 0,-7.0867 -382.67717,0 0,-283.4645 382.67717,0 14.17323,0 0,-7.0866 -188.97638,-88.8189 0,-601.8898 188.97638,-88.8189 0,-14.1732 -21.25984,0 c -141.73229,0 -311.81103,0 -248.0315,-124.0158 35.43307,-70.8661 106.29921,-159.4488 248.0315,-159.4488 l 1424.4094,0 c 141.7323,0 212.5985,88.5827 248.0315,159.4488 63.7796,124.0158 -106.2992,124.0158 -248.0315,124.0158 l -21.2598,0 0,14.1732 188.9764,88.8189 0,601.8898 -188.9764,88.8189 0,7.0866 14.1732,0 382.6772,0 0,283.4645 -382.6772,0 0,7.0867 12.7559,0 290.5512,0 19.8425,0 287.0079,0 0,155.90547 14.1732,7.08662 0,141.73228 -14.1732,7.08661 0,155.90552 14.1732,7.08661 0,141.73228 -14.1732,7.08662 0,155.90551 -287.0079,0 -19.8425,0 -290.5512,0 -12.7559,0 0,7.08661 382.6772,0 0,283.46457 -382.6772,0 z"
       inkscape:connector-curvature="0" />
    <path
       id="path3562"
       style="fill:none;stroke:#000000"
       d="m 628.37402,605.40571 7.08661,0 0,-155.90551 -7.08661,0 z"
       inkscape:connector-curvature="0" />
    <path
       id="path3564"
       style="fill:none;stroke:#000000"
       d="m 628.37402,293.59468 7.08661,0 0,-155.90551 -7.08661,0 z"
       inkscape:connector-curvature="0" />
    <path
       id="path3566"
       style="fill:none;stroke:#000000"
       d="m 2031.5236,137.68917 -7.0866,0 0,155.90551 7.0866,0 z"
       inkscape:connector-curvature="0" />
    <path
       id="path3568"
       style="fill:none;stroke:#000000"
       d="m 2031.5236,449.5002 -7.0866,0 0,155.90551 7.0866,0 z"
       inkscape:connector-curvature="0" />
    <path
       id="path3570"
       style="stroke:#44aaff;stroke-dashoffset:17.71653557;fill:none"
       d="M624.83071 1051.8624C624.83071 1051.8624 624.83071 1045.28950812 624.83071 1034.14549971M624.83071 1016.42870665C624.83071 1010.98282867 624.83071 1005.04483341 624.83071 998.713140907M624.83071 980.996873715C624.83071 975.280367659 624.83071 969.356766033 624.83071 963.280767953M624.83071 945.563192855C624.83071 939.728848652 624.83071 933.808907959 624.83071 927.846474498M624.83071 910.130219112C624.83071 904.211007472 624.83071 898.29179559 624.83071 892.41388004M624.83071 874.69652335C624.83071 868.684336191 624.83071 862.763044873 624.83071 856.979816282M624.83071 839.262585538C624.83071 833.093326921 624.83071 827.165271694 624.83071 821.547172826M624.83071 803.830923928C624.83071 797.115982817 624.83071 791.14925628 624.83071 786.115252248M624.83071 768.39783C624.83071 768.39783 624.83071 768.39783 624.83071 768.39783"
       inkscape:connector-curvature="0" />
    <path
       id="path3572"
       style="stroke:#44aaff;stroke-dashoffset:17.71653557;fill:none"
       d="M612.0748 761.31122C612.0748 761.31122 612.0748 755.029634327 612.0748 743.594226912M612.0748 725.878129144C612.0748 720.504288833 612.0748 714.583857073 612.0748 708.162076353M612.0748 690.445049047C612.0748 684.81164526 612.0748 678.899381928 612.0748 672.72945399M612.0748 655.012998136C612.0748 649.280827893 612.0748 643.370522737 612.0748 637.295797265M612.0748 619.580014058C612.0748 613.795890448 612.0748 607.887091784 612.0748 601.863865286M612.0748 584.148140456C612.0748 578.330721494 612.0748 572.422257689 612.0748 566.431075506M612.0748 548.713864478C612.0748 542.873554141 612.0748 536.965828077 612.0748 530.997837089M612.0748 513.281252179C612.0748 507.423011613 612.0748 501.515317436 612.0748 495.564568517M612.0748 477.848288148C612.0748 471.975689846 612.0748 466.068230729 612.0748 460.131823277M612.0748 442.416064962C612.0748 436.530934565 612.0748 430.623497133 612.0748 424.699365793M612.0748 406.982458775C612.0748 401.08595107 612.0748 395.178536601 612.0748 389.265673555M612.0748 371.550033967C612.0748 365.642829393 612.0748 359.73562403 612.0748 353.833845419M612.0748 336.116571307C612.0748 330.197941984 612.0748 324.290300118 612.0748 318.399165546M612.0748 300.681607921C612.0748 294.751586774 612.0748 288.844213326 612.0748 282.965230113M612.0748 265.247747469C612.0748 259.304359306 612.0748 253.396677031 612.0748 247.530829508M612.0748 229.813455907C612.0748 223.854854494 612.0748 217.947415743 612.0748 212.097873061M612.0748 194.381017583C612.0748 188.402100181 612.0748 182.493836432 612.0748 176.663898444M612.0748 158.947716118C612.0748 152.942165857 612.0748 147.033643507 612.0748 141.231309709M612.0748 123.515634831C612.0748 117.47022933 612.0748 111.561016029 612.0748 105.799694423M612.0748 88.0840974525C612.0748 81.9701125239 612.0748 76.0587785025 612.0748 70.3667367421M612.0748 52.6492782657C612.0748 46.3900687345 612.0748 40.4751194736 612.0748 34.9335029923M612.0748 17.2169949117C612.0748 10.4014410916 612.0748 4.46509790409 612.0748 -0.499736643154M612.0748 -18.2163"
       inkscape:connector-curvature="0" />
    <path
       id="path3574"
       style="stroke:#44aaff;stroke-dashoffset:17.71653557;fill:none"
       d="M624.83071 -25.303C624.83071 -25.303 624.83071 -31.875890254 624.83071 -43.0198959117M624.83071 -60.7366846017C624.83071 -66.1825612353 624.83071 -72.1205550255 624.83071 -78.452245968M624.83071 -96.1685087847C624.83071 -101.88501343 624.83071 -107.808613593 624.83071 -113.884610173M624.83071 -131.602180895C624.83071 -137.436523657 624.83071 -143.356462888 624.83071 -149.318894877M624.83071 -167.035145888C624.83071 -172.954356066 624.83071 -178.873566486 624.83071 -184.751480585M624.83071 -202.4688329C624.83071 -208.481018574 624.83071 -214.40230843 624.83071 -220.185535593M624.83071 -237.902761962C624.83071 -244.072019055 624.83071 -250.000072818 624.83071 -255.618170299M624.83071 -273.334414822C624.83071 -280.049354275 624.83071 -286.016079338 624.83071 -291.050082128M624.83071 -308.7675"
       inkscape:connector-curvature="0" />
    <path
       id="path3576"
       style="stroke:#44aaff;stroke-dashoffset:17.71653557;fill:none"
       d="M639.00394 -315.8541C639.00394 -315.8541 639.00394 -322.135686318 639.00394 -333.571094907M639.00394 -351.287194493C639.00394 -356.661035355 639.00394 -362.581467723 639.00394 -369.003249101M639.00394 -386.720278226C639.00394 -392.353682591 639.00394 -398.26594653 639.00394 -404.435875101M639.00394 -422.152332773C639.00394 -427.884503605 639.00394 -433.794809367 639.00394 -439.869535462M639.00394 -457.585320487C639.00394 -463.369444691 639.00394 -469.278243961 639.00394 -475.301471078M639.00394 -493.017197725C639.00394 -498.834617285 639.00394 -504.743081696 639.00394 -510.734264493M639.00394 -528.45147734C639.00394 -534.291788277 639.00394 -540.199514947 639.00394 -546.167506548M639.00394 -563.884093275C639.00394 -569.742334443 639.00394 -575.650029226 639.00394 -581.600778756M639.00394 -599.317060943C639.00394 -605.189659847 639.00394 -611.09711957 639.00394 -617.033527632M639.00394 -634.749287765C639.00394 -640.634418766 639.00394 -646.541856804 639.00394 -652.465988752M639.00394 -670.182897588C639.00394 -676.079405899 639.00394 -681.986820974 639.00394 -687.899684626M639.00394 -705.615326032C639.00394 -711.522531213 639.00394 -717.429737182 639.00394 -723.331516398M639.00394 -741.048792329C639.00394 -746.96742226 639.00394 -752.875064732 639.00394 -758.766199909M639.00394 -776.483759352C639.00394 -782.413781107 639.00394 -788.321155161 639.00394 -794.200138978M639.00394 -811.917623441C639.00394 -817.861012213 639.00394 -823.768695095 639.00394 -829.634543219M639.00394 -847.351918639C639.00394 -853.310520663 639.00394 -859.21796002 639.00394 -865.067503303M639.00394 -882.784360599C639.00394 -888.763278614 639.00394 -894.67154297 639.00394 -900.501481556M639.00394 -918.217665701C639.00394 -924.223216578 639.00394 -930.131739534 639.00394 -935.934073928M639.00394 -953.649750623C639.00394 -959.695156745 639.00394 -965.604370653 639.00394 -971.365692849M639.00394 -989.081291638C639.00394 -995.195277194 639.00394 -1001.10661182 639.00394 -1006.79865417M639.00394 -1024.51611446C639.00394 -1030.77532464 639.00394 -1036.6902745 639.00394 -1042.23189155M639.00394 -1059.94840145C639.00394 -1066.76395597 639.00394 -1072.70029977 639.00394 -1077.66513482M639.00394 -1095.3817C639.00394 -1095.3817 639.00394 -1095.3817 639.00394 -1095.3817"
       inkscape:connector-curvature="0" />
    <path
       id="path3578"
       style="stroke:#44aaff;stroke-dashoffset:17.71653557;fill:none"
       d="M617.7441 -1109.5549C617.7441 -1109.5549 617.7441 -1116.12779257 617.7441 -1127.27180216M617.7441 -1144.9885971C617.7441 -1150.43447566 617.7441 -1156.37247154 617.7441 -1162.70416472M617.7441 -1180.42043378C617.7441 -1186.13694045 617.7441 -1192.0605427 617.7441 -1198.13654142M617.7441 -1215.85411839C617.7441 -1221.68846322 617.7441 -1227.60840453 617.7441 -1233.57083863M617.7441 -1251.28709589C617.7441 -1257.20630815 617.7441 -1263.12552066 617.7441 -1269.00343684M617.7441 -1286.7207954C617.7441 -1292.73254623 617.7441 -1298.65341442 617.7441 -1304.43624337M617.7441 -1322.1536968C617.7441 -1328.32303577 617.7441 -1334.25117107 617.7441 -1339.86934798M617.7441 -1357.58585045C617.7441 -1364.30089051 617.7441 -1370.26770821 617.7441 -1375.30179089M617.7441 -1393.0195C617.7441 -1393.0195 617.7441 -1393.0195 617.7441 -1393.0195"
       inkscape:connector-curvature="0" />
    <path
       id="path3580"
       style="stroke:#44aaff;stroke-dashoffset:17.71653557;fill:none"
       d="M321.52362 761.31122C321.52362 761.31122 321.52362 755.029634327 321.52362 743.594226912M321.52362 725.878129144C321.52362 720.504288833 321.52362 714.583857073 321.52362 708.162076353M321.52362 690.445049047C321.52362 684.81164526 321.52362 678.899381928 321.52362 672.72945399M321.52362 655.012998136C321.52362 649.280827893 321.52362 643.370522737 321.52362 637.295797265M321.52362 619.580014058C321.52362 613.795890448 321.52362 607.887091784 321.52362 601.863865286M321.52362 584.148140456C321.52362 578.330721494 321.52362 572.422257689 321.52362 566.431075506M321.52362 548.713864478C321.52362 542.873554141 321.52362 536.965828077 321.52362 530.997837089M321.52362 513.281252179C321.52362 507.423011613 321.52362 501.515317436 321.52362 495.564568517M321.52362 477.848288148C321.52362 471.975689846 321.52362 466.068230729 321.52362 460.131823277M321.52362 442.416064962C321.52362 436.530934565 321.52362 430.623497133 321.52362 424.699365793M321.52362 406.982458775C321.52362 401.08595107 321.52362 395.178536601 321.52362 389.265673555M321.52362 371.550033967C321.52362 365.642829393 321.52362 359.73562403 321.52362 353.833845419M321.52362 336.116571307C321.52362 330.197941984 321.52362 324.290300118 321.52362 318.399165546M321.52362 300.681607921C321.52362 294.751586774 321.52362 288.844213326 321.52362 282.965230113M321.52362 265.247747469C321.52362 259.304359306 321.52362 253.396677031 321.52362 247.530829508M321.52362 229.813455907C321.52362 223.854854494 321.52362 217.947415743 321.52362 212.097873061M321.52362 194.381017583C321.52362 188.402100181 321.52362 182.493836432 321.52362 176.663898444M321.52362 158.947716118C321.52362 152.942165857 321.52362 147.033643507 321.52362 141.231309709M321.52362 123.515634831C321.52362 117.47022933 321.52362 111.561016029 321.52362 105.799694423M321.52362 88.0840974525C321.52362 81.9701125239 321.52362 76.0587785025 321.52362 70.3667367421M321.52362 52.6492782657C321.52362 46.3900687345 321.52362 40.4751194736 321.52362 34.9335029923M321.52362 17.2169949117C321.52362 10.4014410916 321.52362 4.46509790409 321.52362 -0.499736643154M321.52362 -18.2163"
       inkscape:connector-curvature="0" />
    <path
       id="path3582"
       style="stroke:#44aaff;stroke-dashoffset:17.71653557;fill:none"
       d="M301.6811 761.31122C301.6811 761.31122 301.6811 755.029634327 301.6811 743.594226912M301.6811 725.878129144C301.6811 720.504288833 301.6811 714.583857073 301.6811 708.162076353M301.6811 690.445049047C301.6811 684.81164526 301.6811 678.899381928 301.6811 672.72945399M301.6811 655.012998136C301.6811 649.280827893 301.6811 643.370522737 301.6811 637.295797265M301.6811 619.580014058C301.6811 613.795890448 301.6811 607.887091784 301.6811 601.863865286M301.6811 584.148140456C301.6811 578.330721494 301.6811 572.422257689 301.6811 566.431075506M301.6811 548.713864478C301.6811 542.873554141 301.6811 536.965828077 301.6811 530.997837089M301.6811 513.281252179C301.6811 507.423011613 301.6811 501.515317436 301.6811 495.564568517M301.6811 477.848288148C301.6811 471.975689846 301.6811 466.068230729 301.6811 460.131823277M301.6811 442.416064962C301.6811 436.530934565 301.6811 430.623497133 301.6811 424.699365793M301.6811 406.982458775C301.6811 401.08595107 301.6811 395.178536601 301.6811 389.265673555M301.6811 371.550033967C301.6811 365.642829393 301.6811 359.73562403 301.6811 353.833845419M301.6811 336.116571307C301.6811 330.197941984 301.6811 324.290300118 301.6811 318.399165546M301.6811 300.681607921C301.6811 294.751586774 301.6811 288.844213326 301.6811 282.965230113M301.6811 265.247747469C301.6811 259.304359306 301.6811 253.396677031 301.6811 247.530829508M301.6811 229.813455907C301.6811 223.854854494 301.6811 217.947415743 301.6811 212.097873061M301.6811 194.381017583C301.6811 188.402100181 301.6811 182.493836432 301.6811 176.663898444M301.6811 158.947716118C301.6811 152.942165857 301.6811 147.033643507 301.6811 141.231309709M301.6811 123.515634831C301.6811 117.47022933 301.6811 111.561016029 301.6811 105.799694423M301.6811 88.0840974525C301.6811 81.9701125239 301.6811 76.0587785025 301.6811 70.3667367421M301.6811 52.6492782657C301.6811 46.3900687345 301.6811 40.4751194736 301.6811 34.9335029923M301.6811 17.2169949117C301.6811 10.4014410916 301.6811 4.46509790409 301.6811 -0.499736643154M301.6811 -18.2163"
       inkscape:connector-curvature="0" />
    <path
       id="path3584"
       style="stroke:#44aaff;stroke-dashoffset:17.71653557;fill:none"
       d="M2035.0669 1051.8624C2035.0669 1051.8624 2035.0669 1045.28950812 2035.0669 1034.14549971M2035.0669 1016.42870665C2035.0669 1010.98282867 2035.0669 1005.04483341 2035.0669 998.713140907M2035.0669 980.996873715C2035.0669 975.280367659 2035.0669 969.356766033 2035.0669 963.280767953M2035.0669 945.563192855C2035.0669 939.728848652 2035.0669 933.808907959 2035.0669 927.846474498M2035.0669 910.130219112C2035.0669 904.211007472 2035.0669 898.29179559 2035.0669 892.41388004M2035.0669 874.69652335C2035.0669 868.684336191 2035.0669 862.763044873 2035.0669 856.979816282M2035.0669 839.262585538C2035.0669 833.093326921 2035.0669 827.165271694 2035.0669 821.547172826M2035.0669 803.830923928C2035.0669 797.115982817 2035.0669 791.14925628 2035.0669 786.115252248M2035.0669 768.39783C2035.0669 768.39783 2035.0669 768.39783 2035.0669 768.39783"
       inkscape:connector-curvature="0" />
    <path
       id="path3586"
       style="stroke:#44aaff;stroke-dashoffset:17.71653557;fill:none"
       d="M2047.8228 761.31122C2047.8228 761.31122 2047.8228 755.029634327 2047.8228 743.594226912M2047.8228 725.878129144C2047.8228 720.504288833 2047.8228 714.583857073 2047.8228 708.162076353M2047.8228 690.445049047C2047.8228 684.81164526 2047.8228 678.899381928 2047.8228 672.72945399M2047.8228 655.012998136C2047.8228 649.280827893 2047.8228 643.370522737 2047.8228 637.295797265M2047.8228 619.580014058C2047.8228 613.795890448 2047.8228 607.887091784 2047.8228 601.863865286M2047.8228 584.148140456C2047.8228 578.330721494 2047.8228 572.422257689 2047.8228 566.431075506M2047.8228 548.713864478C2047.8228 542.873554141 2047.8228 536.965828077 2047.8228 530.997837089M2047.8228 513.281252179C2047.8228 507.423011613 2047.8228 501.515317436 2047.8228 495.564568517M2047.8228 477.848288148C2047.8228 471.975689846 2047.8228 466.068230729 2047.8228 460.131823277M2047.8228 442.416064962C2047.8228 436.530934565 2047.8228 430.623497133 2047.8228 424.699365793M2047.8228 406.982458775C2047.8228 401.08595107 2047.8228 395.178536601 2047.8228 389.265673555M2047.8228 371.550033967C2047.8228 365.642829393 2047.8228 359.73562403 2047.8228 353.833845419M2047.8228 336.116571307C2047.8228 330.197941984 2047.8228 324.290300118 2047.8228 318.399165546M2047.8228 300.681607921C2047.8228 294.751586774 2047.8228 288.844213326 2047.8228 282.965230113M2047.8228 265.247747469C2047.8228 259.304359306 2047.8228 253.396677031 2047.8228 247.530829508M2047.8228 229.813455907C2047.8228 223.854854494 2047.8228 217.947415743 2047.8228 212.097873061M2047.8228 194.381017583C2047.8228 188.402100181 2047.8228 182.493836432 2047.8228 176.663898444M2047.8228 158.947716118C2047.8228 152.942165857 2047.8228 147.033643507 2047.8228 141.231309709M2047.8228 123.515634831C2047.8228 117.47022933 2047.8228 111.561016029 2047.8228 105.799694423M2047.8228 88.0840974525C2047.8228 81.9701125239 2047.8228 76.0587785025 2047.8228 70.3667367421M2047.8228 52.6492782657C2047.8228 46.3900687345 2047.8228 40.4751194736 2047.8228 34.9335029923M2047.8228 17.2169949117C2047.8228 10.4014410916 2047.8228 4.46509790409 2047.8228 -0.499736643154M2047.8228 -18.2163"
       inkscape:connector-curvature="0" />
    <path
       id="path3588"
       style="stroke:#44aaff;stroke-dashoffset:17.71653557;fill:none"
       d="M2035.0669 -25.303C2035.0669 -25.303 2035.0669 -31.875890254 2035.0669 -43.0198959117M2035.0669 -60.7366846017C2035.0669 -66.1825612353 2035.0669 -72.1205550255 2035.0669 -78.452245968M2035.0669 -96.1685087847C2035.0669 -101.88501343 2035.0669 -107.808613593 2035.0669 -113.884610173M2035.0669 -131.602180895C2035.0669 -137.436523657 2035.0669 -143.356462888 2035.0669 -149.318894877M2035.0669 -167.035145888C2035.0669 -172.954356066 2035.0669 -178.873566486 2035.0669 -184.751480585M2035.0669 -202.4688329C2035.0669 -208.481018574 2035.0669 -214.40230843 2035.0669 -220.185535593M2035.0669 -237.902761962C2035.0669 -244.072019055 2035.0669 -250.000072818 2035.0669 -255.618170299M2035.0669 -273.334414822C2035.0669 -280.049354275 2035.0669 -286.016079338 2035.0669 -291.050082128M2035.0669 -308.7675"
       inkscape:connector-curvature="0" />
    <path
       id="path3590"
       style="stroke:#44aaff;stroke-dashoffset:17.71653557;fill:none"
       d="M2020.8937 -315.8541C2020.8937 -315.8541 2020.8937 -322.135686318 2020.8937 -333.571094907M2020.8937 -351.287194493C2020.8937 -356.661035355 2020.8937 -362.581467723 2020.8937 -369.003249101M2020.8937 -386.720278226C2020.8937 -392.353682591 2020.8937 -398.26594653 2020.8937 -404.435875101M2020.8937 -422.152332773C2020.8937 -427.884503605 2020.8937 -433.794809367 2020.8937 -439.869535462M2020.8937 -457.585320487C2020.8937 -463.369444691 2020.8937 -469.278243961 2020.8937 -475.301471078M2020.8937 -493.017197725C2020.8937 -498.834617285 2020.8937 -504.743081696 2020.8937 -510.734264493M2020.8937 -528.45147734C2020.8937 -534.291788277 2020.8937 -540.199514947 2020.8937 -546.167506548M2020.8937 -563.884093275C2020.8937 -569.742334443 2020.8937 -575.650029226 2020.8937 -581.600778756M2020.8937 -599.317060943C2020.8937 -605.189659847 2020.8937 -611.09711957 2020.8937 -617.033527632M2020.8937 -634.749287765C2020.8937 -640.634418766 2020.8937 -646.541856804 2020.8937 -652.465988752M2020.8937 -670.182897588C2020.8937 -676.079405899 2020.8937 -681.986820974 2020.8937 -687.899684626M2020.8937 -705.615326032C2020.8937 -711.522531213 2020.8937 -717.429737182 2020.8937 -723.331516398M2020.8937 -741.048792329C2020.8937 -746.96742226 2020.8937 -752.875064732 2020.8937 -758.766199909M2020.8937 -776.483759352C2020.8937 -782.413781107 2020.8937 -788.321155161 2020.8937 -794.200138978M2020.8937 -811.917623441C2020.8937 -817.861012213 2020.8937 -823.768695095 2020.8937 -829.634543219M2020.8937 -847.351918639C2020.8937 -853.310520663 2020.8937 -859.21796002 2020.8937 -865.067503303M2020.8937 -882.784360599C2020.8937 -888.763278614 2020.8937 -894.67154297 2020.8937 -900.501481556M2020.8937 -918.217665701C2020.8937 -924.223216578 2020.8937 -930.131739534 2020.8937 -935.934073928M2020.8937 -953.649750623C2020.8937 -959.695156745 2020.8937 -965.604370653 2020.8937 -971.365692849M2020.8937 -989.081291638C2020.8937 -995.195277194 2020.8937 -1001.10661182 2020.8937 -1006.79865417M2020.8937 -1024.51611446C2020.8937 -1030.77532464 2020.8937 -1036.6902745 2020.8937 -1042.23189155M2020.8937 -1059.94840145C2020.8937 -1066.76395597 2020.8937 -1072.70029977 2020.8937 -1077.66513482M2020.8937 -1095.3817C2020.8937 -1095.3817 2020.8937 -1095.3817 2020.8937 -1095.3817"
       inkscape:connector-curvature="0" />
    <path
       id="path3592"
       style="stroke:#44aaff;stroke-dashoffset:17.71653557;fill:none"
       d="M2042.1535 -1109.5549C2042.1535 -1109.5549 2042.1535 -1116.12779257 2042.1535 -1127.27180216M2042.1535 -1144.9885971C2042.1535 -1150.43447566 2042.1535 -1156.37247154 2042.1535 -1162.70416472M2042.1535 -1180.42043378C2042.1535 -1186.13694045 2042.1535 -1192.0605427 2042.1535 -1198.13654142M2042.1535 -1215.85411839C2042.1535 -1221.68846322 2042.1535 -1227.60840453 2042.1535 -1233.57083863M2042.1535 -1251.28709589C2042.1535 -1257.20630815 2042.1535 -1263.12552066 2042.1535 -1269.00343684M2042.1535 -1286.7207954C2042.1535 -1292.73254623 2042.1535 -1298.65341442 2042.1535 -1304.43624337M2042.1535 -1322.1536968C2042.1535 -1328.32303577 2042.1535 -1334.25117107 2042.1535 -1339.86934798M2042.1535 -1357.58585045C2042.1535 -1364.30089051 2042.1535 -1370.26770821 2042.1535 -1375.30179089M2042.1535 -1393.0195C2042.1535 -1393.0195 2042.1535 -1393.0195 2042.1535 -1393.0195"
       inkscape:connector-curvature="0" />
    <path
       id="path3594"
       style="stroke:#44aaff;stroke-dashoffset:17.71653557;fill:none"
       d="M2338.374 761.31122C2338.374 761.31122 2338.374 755.029634327 2338.374 743.594226912M2338.374 725.878129144C2338.374 720.504288833 2338.374 714.583857073 2338.374 708.162076353M2338.374 690.445049047C2338.374 684.81164526 2338.374 678.899381928 2338.374 672.72945399M2338.374 655.012998136C2338.374 649.280827893 2338.374 643.370522737 2338.374 637.295797265M2338.374 619.580014058C2338.374 613.795890448 2338.374 607.887091784 2338.374 601.863865286M2338.374 584.148140456C2338.374 578.330721494 2338.374 572.422257689 2338.374 566.431075506M2338.374 548.713864478C2338.374 542.873554141 2338.374 536.965828077 2338.374 530.997837089M2338.374 513.281252179C2338.374 507.423011613 2338.374 501.515317436 2338.374 495.564568517M2338.374 477.848288148C2338.374 471.975689846 2338.374 466.068230729 2338.374 460.131823277M2338.374 442.416064962C2338.374 436.530934565 2338.374 430.623497133 2338.374 424.699365793M2338.374 406.982458775C2338.374 401.08595107 2338.374 395.178536601 2338.374 389.265673555M2338.374 371.550033967C2338.374 365.642829393 2338.374 359.73562403 2338.374 353.833845419M2338.374 336.116571307C2338.374 330.197941984 2338.374 324.290300118 2338.374 318.399165546M2338.374 300.681607921C2338.374 294.751586774 2338.374 288.844213326 2338.374 282.965230113M2338.374 265.247747469C2338.374 259.304359306 2338.374 253.396677031 2338.374 247.530829508M2338.374 229.813455907C2338.374 223.854854494 2338.374 217.947415743 2338.374 212.097873061M2338.374 194.381017583C2338.374 188.402100181 2338.374 182.493836432 2338.374 176.663898444M2338.374 158.947716118C2338.374 152.942165857 2338.374 147.033643507 2338.374 141.231309709M2338.374 123.515634831C2338.374 117.47022933 2338.374 111.561016029 2338.374 105.799694423M2338.374 88.0840974525C2338.374 81.9701125239 2338.374 76.0587785025 2338.374 70.3667367421M2338.374 52.6492782657C2338.374 46.3900687345 2338.374 40.4751194736 2338.374 34.9335029923M2338.374 17.2169949117C2338.374 10.4014410916 2338.374 4.46509790409 2338.374 -0.499736643154M2338.374 -18.2163"
       inkscape:connector-curvature="0" />
    <path
       id="path3596"
       style="stroke:#44aaff;stroke-dashoffset:17.71653557;fill:none"
       d="M2358.2165 761.31122C2358.2165 761.31122 2358.2165 755.029634327 2358.2165 743.594226912M2358.2165 725.878129144C2358.2165 720.504288833 2358.2165 714.583857073 2358.2165 708.162076353M2358.2165 690.445049047C2358.2165 684.81164526 2358.2165 678.899381928 2358.2165 672.72945399M2358.2165 655.012998136C2358.2165 649.280827893 2358.2165 643.370522737 2358.2165 637.295797265M2358.2165 619.580014058C2358.2165 613.795890448 2358.2165 607.887091784 2358.2165 601.863865286M2358.2165 584.148140456C2358.2165 578.330721494 2358.2165 572.422257689 2358.2165 566.431075506M2358.2165 548.713864478C2358.2165 542.873554141 2358.2165 536.965828077 2358.2165 530.997837089M2358.2165 513.281252179C2358.2165 507.423011613 2358.2165 501.515317436 2358.2165 495.564568517M2358.2165 477.848288148C2358.2165 471.975689846 2358.2165 466.068230729 2358.2165 460.131823277M2358.2165 442.416064962C2358.2165 436.530934565 2358.2165 430.623497133 2358.2165 424.699365793M2358.2165 406.982458775C2358.2165 401.08595107 2358.2165 395.178536601 2358.2165 389.265673555M2358.2165 371.550033967C2358.2165 365.642829393 2358.2165 359.73562403 2358.2165 353.833845419M2358.2165 336.116571307C2358.2165 330.197941984 2358.2165 324.290300118 2358.2165 318.399165546M2358.2165 300.681607921C2358.2165 294.751586774 2358.2165 288.844213326 2358.2165 282.965230113M2358.2165 265.247747469C2358.2165 259.304359306 2358.2165 253.396677031 2358.2165 247.530829508M2358.2165 229.813455907C2358.2165 223.854854494 2358.2165 217.947415743 2358.2165 212.097873061M2358.2165 194.381017583C2358.2165 188.402100181 2358.2165 182.493836432 2358.2165 176.663898444M2358.2165 158.947716118C2358.2165 152.942165857 2358.2165 147.033643507 2358.2165 141.231309709M2358.2165 123.515634831C2358.2165 117.47022933 2358.2165 111.561016029 2358.2165 105.799694423M2358.2165 88.0840974525C2358.2165 81.9701125239 2358.2165 76.0587785025 2358.2165 70.3667367421M2358.2165 52.6492782657C2358.2165 46.3900687345 2358.2165 40.4751194736 2358.2165 34.9335029923M2358.2165 17.2169949117C2358.2165 10.4014410916 2358.2165 4.46509790409 2358.2165 -0.499736643154M2358.2165 -18.2163"
       inkscape:connector-curvature="0" />
    <path
       id="path3598"
       style="stroke:#44aaff;stroke-dashoffset:17.71653557;fill:none"
       d="M624.83071 764.85453C624.83071 764.85453 631.008896742 764.85453 642.547416542 764.85453M660.263624107 764.85453C665.617295782 764.85453 671.533208944 764.85453 677.980616236 764.85453M695.696517647 764.85453C701.31091976 764.85453 707.221263834 764.85453 713.41376275 764.85453M731.130188973 764.85453C736.84222621 764.85453 742.75028961 764.85453 748.845827646 764.85453M766.561551418 764.85453C772.325231164 764.85453 778.232575293 764.85453 784.277456624 764.85453M801.993536221 764.85453C807.789447863 764.85453 813.696724244 764.85453 819.710599774 764.85453M837.426848655 764.85453C843.244064418 764.85453 849.150629772 764.85453 855.142637447 764.85453M872.858587872 764.85453C878.691795104 764.85453 884.598345006 764.85453 890.574910781 764.85453M908.291600255 764.85453C914.136951885 764.85453 920.043405956 764.85453 926.008049816 764.85453M943.724282786 764.85453C949.579040897 764.85453 955.485175858 764.85453 961.440081728 764.85453M979.156724603 764.85453C985.019464311 764.85453 990.92561834 764.85453 996.872813386 764.85453M1014.58868862 764.85453C1020.45849558 764.85453 1026.36502424 764.85453 1032.30608093 764.85453M1050.02298189 764.85453C1055.89820722 764.85453 1061.80438624 764.85453 1067.73946668 764.85453M1085.45626759 764.85453C1091.33633901 764.85453 1097.24229948 764.85453 1103.172208 764.85453M1120.88882637 764.85453C1126.77363322 764.85453 1132.67979905 764.85453 1138.60546988 764.85453M1156.32273333 764.85453C1162.21185281 764.85453 1168.11820274 764.85453 1174.03999684 764.85453M1191.75651494 764.85453C1197.64900548 764.85453 1203.55489695 764.85453 1209.47245503 764.85453M1227.1887541 764.85453C1233.08486394 764.85453 1238.99076954 764.85453 1244.90477396 764.85453M1262.6215543 764.85453C1268.52102326 764.85453 1274.42683613 764.85453 1280.33732074 764.85453M1298.05390657 764.85453C1303.95688777 764.85453 1309.86285573 764.85453 1315.77015111 764.85453M1333.48609617 764.85453C1339.39253849 764.85453 1345.29864986 764.85453 1351.20277251 764.85453M1368.92000372 764.85453C1374.82967354 764.85453 1380.73568182 764.85453 1386.63636133 764.85453M1404.35292873 764.85453C1410.26596145 764.85453 1416.17193627 764.85453 1422.06916488 764.85453M1439.78651171 764.85453C1445.70303241 764.85453 1451.60897613 764.85453 1457.50262114 764.85453M1475.21849028 764.85453C1481.13924127 764.85453 1487.04570743 764.85453 1492.93611945 764.85453M1510.65309981 764.85453C1516.57734409 764.85453 1522.48333936 764.85453 1528.36925404 764.85453M1546.08596973 764.85453C1552.0146791 764.85453 1557.92082053 764.85453 1563.80248128 764.85453M1581.52006096 764.85453C1587.45367517 764.85453 1593.35993589 764.85453 1599.23682692 764.85453M1616.95304266 764.85453C1622.89215305 764.85453 1628.798508 764.85453 1634.66996002 764.85453M1652.38610051 764.85453C1658.3313939 764.85453 1664.23771157 764.85453 1670.10273888 764.85453M1687.81965558 764.85453C1693.772253 764.85453 1699.67854935 764.85453 1705.53601493 764.85453M1723.25280314 764.85453C1729.21461595 764.85453 1735.12127454 764.85453 1740.96996735 764.85453M1758.68747065 764.85453C1764.65996809 764.85453 1770.56631512 764.85453 1776.40332368 764.85453M1794.11964831 764.85453C1800.10699473 764.85453 1806.01399567 764.85453 1811.83693983 764.85453M1829.55385946 764.85453C1835.56050109 764.85453 1841.46767545 764.85453 1847.27091344 764.85453M1864.98788721 764.85453C1871.02211987 764.85453 1876.92951344 764.85453 1882.70442473 764.85453M1900.42079797 764.85453C1906.49861094 764.85453 1912.40686402 764.85453 1918.13790444 764.85453M1935.85413595 764.85453C1942.00908996 764.85453 1947.91818822 764.85453 1953.56974178 764.85453M1971.2865467 764.85453C1977.62183075 764.85453 1983.53491948 764.85453 1989.00300957 764.85453M2006.71953895 764.85453C2013.9569766 764.85453 2019.89747566 764.85453 2024.43728807 764.85453M2035.0669 764.85453"
       inkscape:connector-curvature="0" />
    <path
       id="path3600"
       style="stroke:#44aaff;stroke-dashoffset:17.71653557;fill:none"
       d="M624.83071 -21.7596C624.83071 -21.7596 631.008896742 -21.7596 642.547416542 -21.7596M660.263624107 -21.7596C665.617295782 -21.7596 671.533208944 -21.7596 677.980616236 -21.7596M695.696517647 -21.7596C701.31091976 -21.7596 707.221263834 -21.7596 713.41376275 -21.7596M731.130188973 -21.7596C736.84222621 -21.7596 742.75028961 -21.7596 748.845827646 -21.7596M766.561551418 -21.7596C772.325231164 -21.7596 778.232575293 -21.7596 784.277456624 -21.7596M801.993536221 -21.7596C807.789447863 -21.7596 813.696724244 -21.7596 819.710599774 -21.7596M837.426848655 -21.7596C843.244064418 -21.7596 849.150629772 -21.7596 855.142637447 -21.7596M872.858587872 -21.7596C878.691795104 -21.7596 884.598345006 -21.7596 890.574910781 -21.7596M908.291600255 -21.7596C914.136951885 -21.7596 920.043405956 -21.7596 926.008049816 -21.7596M943.724282786 -21.7596C949.579040897 -21.7596 955.485175858 -21.7596 961.440081728 -21.7596M979.156724603 -21.7596C985.019464311 -21.7596 990.92561834 -21.7596 996.872813386 -21.7596M1014.58868862 -21.7596C1020.45849558 -21.7596 1026.36502424 -21.7596 1032.30608093 -21.7596M1050.02298189 -21.7596C1055.89820722 -21.7596 1061.80438624 -21.7596 1067.73946668 -21.7596M1085.45626759 -21.7596C1091.33633901 -21.7596 1097.24229948 -21.7596 1103.172208 -21.7596M1120.88882637 -21.7596C1126.77363322 -21.7596 1132.67979905 -21.7596 1138.60546988 -21.7596M1156.32273333 -21.7596C1162.21185281 -21.7596 1168.11820274 -21.7596 1174.03999684 -21.7596M1191.75651494 -21.7596C1197.64900548 -21.7596 1203.55489695 -21.7596 1209.47245503 -21.7596M1227.1887541 -21.7596C1233.08486394 -21.7596 1238.99076954 -21.7596 1244.90477396 -21.7596M1262.6215543 -21.7596C1268.52102326 -21.7596 1274.42683613 -21.7596 1280.33732074 -21.7596M1298.05390657 -21.7596C1303.95688777 -21.7596 1309.86285573 -21.7596 1315.77015111 -21.7596M1333.48609617 -21.7596C1339.39253849 -21.7596 1345.29864986 -21.7596 1351.20277251 -21.7596M1368.92000372 -21.7596C1374.82967354 -21.7596 1380.73568182 -21.7596 1386.63636133 -21.7596M1404.35292873 -21.7596C1410.26596145 -21.7596 1416.17193627 -21.7596 1422.06916488 -21.7596M1439.78651171 -21.7596C1445.70303241 -21.7596 1451.60897613 -21.7596 1457.50262114 -21.7596M1475.21849028 -21.7596C1481.13924127 -21.7596 1487.04570743 -21.7596 1492.93611945 -21.7596M1510.65309981 -21.7596C1516.57734409 -21.7596 1522.48333936 -21.7596 1528.36925404 -21.7596M1546.08596973 -21.7596C1552.0146791 -21.7596 1557.92082053 -21.7596 1563.80248128 -21.7596M1581.52006096 -21.7596C1587.45367517 -21.7596 1593.35993589 -21.7596 1599.23682692 -21.7596M1616.95304266 -21.7596C1622.89215305 -21.7596 1628.798508 -21.7596 1634.66996002 -21.7596M1652.38610051 -21.7596C1658.3313939 -21.7596 1664.23771157 -21.7596 1670.10273888 -21.7596M1687.81965558 -21.7596C1693.772253 -21.7596 1699.67854935 -21.7596 1705.53601493 -21.7596M1723.25280314 -21.7596C1729.21461595 -21.7596 1735.12127454 -21.7596 1740.96996735 -21.7596M1758.68747065 -21.7596C1764.65996809 -21.7596 1770.56631512 -21.7596 1776.40332368 -21.7596M1794.11964831 -21.7596C1800.10699473 -21.7596 1806.01399567 -21.7596 1811.83693983 -21.7596M1829.55385946 -21.7596C1835.56050109 -21.7596 1841.46767545 -21.7596 1847.27091344 -21.7596M1864.98788721 -21.7596C1871.02211987 -21.7596 1876.92951344 -21.7596 1882.70442473 -21.7596M1900.42079797 -21.7596C1906.49861094 -21.7596 1912.40686402 -21.7596 1918.13790444 -21.7596M1935.85413595 -21.7596C1942.00908996 -21.7596 1947.91818822 -21.7596 1953.56974178 -21.7596M1971.2865467 -21.7596C1977.62183075 -21.7596 1983.53491948 -21.7596 1989.00300957 -21.7596M2006.71953895 -21.7596C2013.9569766 -21.7596 2019.89747566 -21.7596 2024.43728807 -21.7596M2035.0669 -21.7596"
       inkscape:connector-curvature="0" />
    <path
       id="path3602"
       style="stroke:#44aaff;stroke-dashoffset:17.71653557;fill:none"
       d="M639.00394 -312.3108C639.00394 -312.3108 645.184907766 -312.3108 656.720086043 -312.3108M674.436885769 -312.3108C679.790949445 -312.3108 685.706791307 -312.3108 692.153273646 -312.3108M709.870549935 -312.3108C715.485160071 -312.3108 721.395226871 -312.3108 727.586772892 -312.3108M745.303083092 -312.3108C751.01604735 -312.3108 756.924611281 -312.3108 763.020092405 -312.3108M780.73636726 -312.3108C786.500518185 -312.3108 792.407863429 -312.3108 798.452177033 -312.3108M816.168195673 -312.3108C821.964231344 -312.3108 827.871134466 -312.3108 833.884058384 -312.3108M851.601451434 -312.3108C857.419336338 -312.3108 863.32607433 -312.3108 869.317686305 -312.3108M887.034868736 -312.3108C892.868668893 -312.3108 898.775288705 -312.3108 904.751336644 -312.3108M922.468718209 -312.3108C928.31483719 -312.3108 934.221511734 -312.3108 940.185768868 -312.3108M957.901864274 -312.3108C963.757503908 -312.3108 969.663943597 -312.3108 975.618520103 -312.3108M993.335163551 -312.3108C999.198441937 -312.3108 1005.10451626 -312.3108 1011.05095842 -312.3108M1028.76676073 -312.3108C1034.63705308 -312.3108 1040.54340782 -312.3108 1046.48357772 -312.3108M1064.20109316 -312.3108C1070.0769967 -312.3108 1075.98315116 -312.3108 1081.91745096 -312.3108M1099.63376785 -312.3108C1105.51484062 -312.3108 1111.42105064 -312.3108 1117.35040312 -312.3108M1135.06682337 -312.3108C1140.95256521 -312.3108 1146.85885423 -312.3108 1152.78378212 -312.3108M1170.50087959 -312.3108C1176.3907224 -312.3108 1182.29691534 -312.3108 1188.21761677 -312.3108M1205.93329424 -312.3108C1211.82671886 -312.3108 1217.73258892 -312.3108 1223.64911279 -312.3108M1241.36579454 -312.3108C1247.26281659 -312.3108 1253.16859114 -312.3108 1259.08136159 -312.3108M1276.79752857 -312.3108C1282.69810151 -312.3108 1288.60387473 -312.3108 1294.51311327 -312.3108M1312.23025872 -312.3108C1318.13435795 -312.3108 1324.04018336 -312.3108 1329.94600904 -312.3108M1347.6624723 -312.3108C1353.57011653 -312.3108 1359.47603299 -312.3108 1365.37849268 -312.3108M1383.09549162 -312.3108C1389.0066133 -312.3108 1394.91251654 -312.3108 1400.81145705 -312.3108M1418.52840519 -312.3108C1424.44320229 -312.3108 1430.34919441 -312.3108 1436.24460902 -312.3108M1453.96175377 -312.3108C1459.88072008 -312.3108 1465.78713312 -312.3108 1471.67917786 -312.3108M1489.3955084 -312.3108C1495.31805309 -312.3108 1501.22406572 -312.3108 1507.11167382 -312.3108M1524.82866146 -312.3108C1530.75577035 -312.3108 1536.66204249 -312.3108 1542.54552903 -312.3108M1560.26214841 -312.3108C1566.19386179 -312.3108 1572.1000034 -312.3108 1577.9785265 -312.3108M1595.69551457 -312.3108C1601.6328015 -312.3108 1607.53920233 -312.3108 1613.41254483 -312.3108M1631.12954473 -312.3108C1637.07269847 -312.3108 1642.9788893 -312.3108 1648.84578525 -312.3108M1666.56232223 -312.3108C1672.51279562 -312.3108 1678.41919077 -312.3108 1684.27896963 -312.3108M1701.99487325 -312.3108C1707.95364939 -312.3108 1713.85982046 -312.3108 1719.71057999 -312.3108M1737.42691988 -312.3108C1743.39689716 -312.3108 1749.30372643 -312.3108 1755.14424176 -312.3108M1772.86165617 -312.3108C1778.84506151 -312.3108 1784.75186493 -312.3108 1790.57840723 -312.3108M1808.29434351 -312.3108C1814.29610947 -312.3108 1820.20331802 -312.3108 1826.01160077 -312.3108M1843.7287287 -312.3108C1849.75609974 -312.3108 1855.66357728 -312.3108 1861.44571087 -312.3108M1879.16200377 -312.3108C1885.22845726 -312.3108 1891.13630188 -312.3108 1896.87827978 -312.3108M1914.59491775 -312.3108C1920.72982165 -312.3108 1926.63916544 -312.3108 1932.31219724 -312.3108M1950.0281848 -312.3108C1956.31011125 -312.3108 1962.22216902 -312.3108 1967.74478066 -312.3108M1985.46126917 -312.3108C1992.30643819 -312.3108 1998.23333219 -312.3108 2003.17687867 -312.3108M2020.8937 -312.3108"
       inkscape:connector-curvature="0" />
    <path
       id="path3604"
       style="stroke:#44aaff;stroke-dashoffset:17.71653557;fill:none"
       d="M639.00394 -1106.0116C639.00394 -1106.0116 645.184907766 -1106.0116 656.720086043 -1106.0116M674.436885769 -1106.0116C679.790949445 -1106.0116 685.706791307 -1106.0116 692.153273646 -1106.0116M709.870549935 -1106.0116C715.485160071 -1106.0116 721.395226871 -1106.0116 727.586772892 -1106.0116M745.303083092 -1106.0116C751.01604735 -1106.0116 756.924611281 -1106.0116 763.020092405 -1106.0116M780.73636726 -1106.0116C786.500518185 -1106.0116 792.407863429 -1106.0116 798.452177033 -1106.0116M816.168195673 -1106.0116C821.964231344 -1106.0116 827.871134466 -1106.0116 833.884058384 -1106.0116M851.601451434 -1106.0116C857.419336338 -1106.0116 863.32607433 -1106.0116 869.317686305 -1106.0116M887.034868736 -1106.0116C892.868668893 -1106.0116 898.775288705 -1106.0116 904.751336644 -1106.0116M922.468718209 -1106.0116C928.31483719 -1106.0116 934.221511734 -1106.0116 940.185768868 -1106.0116M957.901864274 -1106.0116C963.757503908 -1106.0116 969.663943597 -1106.0116 975.618520103 -1106.0116M993.335163551 -1106.0116C999.198441937 -1106.0116 1005.10451626 -1106.0116 1011.05095842 -1106.0116M1028.76676073 -1106.0116C1034.63705308 -1106.0116 1040.54340782 -1106.0116 1046.48357772 -1106.0116M1064.20109316 -1106.0116C1070.0769967 -1106.0116 1075.98315116 -1106.0116 1081.91745096 -1106.0116M1099.63376785 -1106.0116C1105.51484062 -1106.0116 1111.42105064 -1106.0116 1117.35040312 -1106.0116M1135.06682337 -1106.0116C1140.95256521 -1106.0116 1146.85885423 -1106.0116 1152.78378212 -1106.0116M1170.50087959 -1106.0116C1176.3907224 -1106.0116 1182.29691534 -1106.0116 1188.21761677 -1106.0116M1205.93329424 -1106.0116C1211.82671886 -1106.0116 1217.73258892 -1106.0116 1223.64911279 -1106.0116M1241.36579454 -1106.0116C1247.26281659 -1106.0116 1253.16859114 -1106.0116 1259.08136159 -1106.0116M1276.79752857 -1106.0116C1282.69810151 -1106.0116 1288.60387473 -1106.0116 1294.51311327 -1106.0116M1312.23025872 -1106.0116C1318.13435795 -1106.0116 1324.04018336 -1106.0116 1329.94600904 -1106.0116M1347.6624723 -1106.0116C1353.57011653 -1106.0116 1359.47603299 -1106.0116 1365.37849268 -1106.0116M1383.09549162 -1106.0116C1389.0066133 -1106.0116 1394.91251654 -1106.0116 1400.81145705 -1106.0116M1418.52840519 -1106.0116C1424.44320229 -1106.0116 1430.34919441 -1106.0116 1436.24460902 -1106.0116M1453.96175377 -1106.0116C1459.88072008 -1106.0116 1465.78713312 -1106.0116 1471.67917786 -1106.0116M1489.3955084 -1106.0116C1495.31805309 -1106.0116 1501.22406572 -1106.0116 1507.11167382 -1106.0116M1524.82866146 -1106.0116C1530.75577035 -1106.0116 1536.66204249 -1106.0116 1542.54552903 -1106.0116M1560.26214841 -1106.0116C1566.19386179 -1106.0116 1572.1000034 -1106.0116 1577.9785265 -1106.0116M1595.69551457 -1106.0116C1601.6328015 -1106.0116 1607.53920233 -1106.0116 1613.41254483 -1106.0116M1631.12954473 -1106.0116C1637.07269847 -1106.0116 1642.9788893 -1106.0116 1648.84578525 -1106.0116M1666.56232223 -1106.0116C1672.51279562 -1106.0116 1678.41919077 -1106.0116 1684.27896963 -1106.0116M1701.99487325 -1106.0116C1707.95364939 -1106.0116 1713.85982046 -1106.0116 1719.71057999 -1106.0116M1737.42691988 -1106.0116C1743.39689716 -1106.0116 1749.30372643 -1106.0116 1755.14424176 -1106.0116M1772.86165617 -1106.0116C1778.84506151 -1106.0116 1784.75186493 -1106.0116 1790.57840723 -1106.0116M1808.29434351 -1106.0116C1814.29610947 -1106.0116 1820.20331802 -1106.0116 1826.01160077 -1106.0116M1843.7287287 -1106.0116C1849.75609974 -1106.0116 1855.66357728 -1106.0116 1861.44571087 -1106.0116M1879.16200377 -1106.0116C1885.22845726 -1106.0116 1891.13630188 -1106.0116 1896.87827978 -1106.0116M1914.59491775 -1106.0116C1920.72982165 -1106.0116 1926.63916544 -1106.0116 1932.31219724 -1106.0116M1950.0281848 -1106.0116C1956.31011125 -1106.0116 1962.22216902 -1106.0116 1967.74478066 -1106.0116M1985.46126917 -1106.0116C1992.30643819 -1106.0116 1998.23333219 -1106.0116 2003.17687867 -1106.0116M2020.8937 -1106.0116"
       inkscape:connector-curvature="0" />
  </g>
</svg>
