<?xml version="1.0" encoding="UTF-8" standalone="no"?>
<!-- Created with Inkscape (http://www.inkscape.org/) -->

<svg
   xmlns:dc="http://purl.org/dc/elements/1.1/"
   xmlns:cc="http://creativecommons.org/ns#"
   xmlns:rdf="http://www.w3.org/1999/02/22-rdf-syntax-ns#"
   xmlns:svg="http://www.w3.org/2000/svg"
   xmlns="http://www.w3.org/2000/svg"
   xmlns:sodipodi="http://sodipodi.sourceforge.net/DTD/sodipodi-0.dtd"
   xmlns:inkscape="http://www.inkscape.org/namespaces/inkscape"
   width="1488.189"
   height="2104.7244"
   id="svg2"
   version="1.1"
   inkscape:version="0.91 r"
   sodipodi:docname="ложемент-набор-ячейки.svg">
  <defs
     id="defs4" />
  <sodipodi:namedview
     id="base"
     pagecolor="#ffffff"
     bordercolor="#666666"
     borderopacity="1.0"
     inkscape:pageopacity="0.0"
     inkscape:pageshadow="2"
     inkscape:zoom="0.3959798"
     inkscape:cx="379.2997"
     inkscape:cy="597.20867"
     inkscape:document-units="mm"
     inkscape:current-layer="layer1"
     showgrid="true"
     inkscape:window-width="1301"
     inkscape:window-height="744"
     inkscape:window-x="65"
     inkscape:window-y="24"
     inkscape:window-maximized="1"
     units="mm"
     inkscape:snap-bbox="true">
    <inkscape:grid
       type="xygrid"
       id="grid2985"
       empspacing="5"
       visible="true"
       enabled="true"
       snapvisiblegridlinesonly="true"
       units="mm"
       spacingx="5mm"
       spacingy="5mm" />
  </sodipodi:namedview>
  <metadata
     id="metadata7">
    <rdf:RDF>
      <cc:Work
         rdf:about="">
        <dc:format>image/svg+xml</dc:format>
        <dc:type
           rdf:resource="http://purl.org/dc/dcmitype/StillImage" />
        <dc:title />
      </cc:Work>
    </rdf:RDF>
  </metadata>
  <g
     inkscape:label="Layer 1"
     inkscape:groupmode="layer"
     id="layer1"
     transform="translate(0,1052.3623)">
    <path
       style="fill:#afc6e9;fill-opacity:1;stroke:none"
       d="m 0,272.83453 1381.8898,0 0,779.52757 -1381.8898,0 z"
       id="rect2997" />
    <path
       style="fill:#5d0b26;fill-opacity:1;stroke:none"
       d="m 53.149605,538.58264 407.480315,0 0,460.62991 -407.480315,0 z"
       id="rect2987" />
    <path
       style="fill:#004455;fill-opacity:1;stroke:none"
       d="m 513.77954,698.03143 248.03148,0 0,301.18109 -248.03148,0 z"
       id="rect2987-1" />
    <path
       style="fill:#a02c89;fill-opacity:1;stroke:none"
       d="m 513.77954,520.86609 549.21256,0 0,124.01576 -549.21256,0 z"
       id="rect2987-1-7" />
    <path
       style="fill:#00aa00;fill-opacity:1;stroke:none"
       d="m 832.67719,698.03143 212.59841,0 0,124.01575 -212.59841,0 z"
       id="rect2987-1-4" />
    <path
       style="fill:#aa8800;fill-opacity:1;stroke:none"
       d="m 1116.1417,325.98419 212.5984,0 0,336.61423 -212.5984,0 z"
       id="rect2987-1-48" />
    <path
       style="fill:#220055;fill-opacity:1;stroke:none"
       d="m 1080.7086,715.74799 248.0315,0 0,283.46456 -248.0315,0 z"
       id="rect2987-1-8" />
    <path
       transform="translate(17.857149,-62.885991)"
       style="fill:#aa0000;fill-opacity:1;stroke:none"
       d="m 212.45782,459.73633 a 88.58268,88.58268 0 0 1 -88.58268,88.58268 88.58268,88.58268 0 0 1 -88.582682,-88.58268 88.58268,88.58268 0 0 1 88.582682,-88.58268 88.58268,88.58268 0 0 1 88.58268,88.58268 z"
       id="path3060" />
    <path
       transform="translate(17.857149,-62.885991)"
       style="fill:#aa0000;fill-opacity:1;stroke:none"
       d="m 460.4893,459.73633 a 88.58268,88.58268 0 0 1 -88.58268,88.58268 88.58268,88.58268 0 0 1 -88.58268,-88.58268 88.58268,88.58268 0 0 1 88.58268,-88.58268 88.58268,88.58268 0 0 1 88.58268,88.58268 z"
       id="path3060-1" />
    <path
       transform="translate(17.857149,-62.885991)"
       style="fill:#aa0000;fill-opacity:1;stroke:none"
       d="m 708.52079,459.73633 a 88.58268,88.58268 0 0 1 -88.58268,88.58268 88.58268,88.58268 0 0 1 -88.58268,-88.58268 88.58268,88.58268 0 0 1 88.58268,-88.58268 88.58268,88.58268 0 0 1 88.58268,88.58268 z"
       id="path3060-7" />
    <path
       transform="translate(17.857149,-62.885991)"
       style="fill:#aa0000;fill-opacity:1;stroke:none"
       d="m 956.55228,459.73633 a 88.58268,88.58268 0 0 1 -88.58268,88.58268 88.58268,88.58268 0 0 1 -88.58268,-88.58268 88.58268,88.58268 0 0 1 88.58268,-88.58268 88.58268,88.58268 0 0 1 88.58268,88.58268 z"
       id="path3060-11" />
    <path
       style="fill:#ffcc00;fill-opacity:1;stroke:none"
       d="m 797.24414,857.48029 248.03146,0 0,141.73228 -248.03146,0 z"
       id="rect2987-1-0-52" />
  </g>
</svg>
