<?xml version="1.0" encoding="UTF-8" standalone="no"?>
<!-- Created with Inkscape (http://www.inkscape.org/) -->

<svg
   xmlns:dc="http://purl.org/dc/elements/1.1/"
   xmlns:cc="http://creativecommons.org/ns#"
   xmlns:rdf="http://www.w3.org/1999/02/22-rdf-syntax-ns#"
   xmlns:svg="http://www.w3.org/2000/svg"
   xmlns="http://www.w3.org/2000/svg"
   xmlns:sodipodi="http://sodipodi.sourceforge.net/DTD/sodipodi-0.dtd"
   xmlns:inkscape="http://www.inkscape.org/namespaces/inkscape"
   width="210mm"
   height="297mm"
   viewBox="0 0 744.09448 1052.3622"
   id="svg4172"
   version="1.1"
   inkscape:version="0.91 r13725"
   sodipodi:docname="box-a4-w2mm.svg">
  <sodipodi:namedview
     id="base"
     pagecolor="#ffffff"
     bordercolor="#666666"
     borderopacity="1.0"
     inkscape:pageopacity="0.0"
     inkscape:pageshadow="2"
     inkscape:zoom="0.49497475"
     inkscape:cx="929.86821"
     inkscape:cy="434.75736"
     inkscape:document-units="mm"
     inkscape:current-layer="layer1"
     showgrid="false"
     inkscape:window-width="1366"
     inkscape:window-height="705"
     inkscape:window-x="-8"
     inkscape:window-y="-8"
     inkscape:window-maximized="1"
     showguides="true"
     inkscape:guide-bbox="true"
     inkscape:snap-bbox="true"
     inkscape:bbox-paths="true" />
  <defs
     id="defs4174" />
  <metadata
     id="metadata4177">
    <rdf:RDF>
      <cc:Work
         rdf:about="">
        <dc:format>image/svg+xml</dc:format>
        <dc:type
           rdf:resource="http://purl.org/dc/dcmitype/StillImage" />
        <dc:title />
      </cc:Work>
    </rdf:RDF>
  </metadata>
  <g
     transform="translate(0,-3.464567e-6)"
     id="layer1"
     inkscape:groupmode="layer"
     inkscape:label="Layer 1">
    <g
       id="g5613"
       transform="matrix(1,0,0,-1,232.86296,927.4321)"
       inkscape:label="RobotBox">
      <path
         id="path5615"
         d="m 0,0 -109.84252,0 0,56.692913 109.84252,0 0,14.173229 -14.173228,0 -70.866142,0 -28.34646,0 -63.77952,0 0,46.771658 -14.17323,7.08661 0,32.59842 14.17323,7.08662 0,46.77165 -14.17323,7.08662 0,32.59842 14.17323,7.08662 0,46.77165 63.77952,0 28.34646,0 70.866142,0 14.173228,0 0,14.17323 -109.84252,0 0,56.69291 124.015748,0 0,14.17323 -47.244094,22.20472 0,189.44882 47.244094,22.20473 0,21.25984 -21.2598422,0 c -28.3464568,0 -62.3622048,0 -49.6062988,24.80315 7.086614,14.17323 21.259842,31.88976 49.6062988,31.88976 l 304.7244142,0 c 28.34645,0 42.51968,-17.71653 49.60629,-31.88976 C 360,644.88189 325.98425,644.88189 297.6378,644.88189 l -21.25985,0 0,-21.25984 47.2441,-22.20473 0,-189.44882 -47.2441,-22.20472 0,-14.17323 124.01575,0 0,-56.69291 -109.84252,0 0,-14.17323 14.17323,0 70.86614,0 28.34646,0 63.77953,0 0,-46.77165 14.17322,-7.08662 0,-32.59842 -14.17322,-7.08662 0,-46.77165 14.17322,-7.08662 0,-32.59842 -14.17322,-7.08661 0,-46.771658 -63.77953,0 -28.34646,0 -70.86614,0 -14.17323,0 0,-14.173229 109.84252,0 L 400.3937,0 290.55118,0 Z"
         style="fill:none;stroke:#000000"
         inkscape:connector-curvature="0" />
      <path
         id="path5617"
         d="m 7.0866142,117.6378 7.0866138,0 0,46.77165 -7.0866138,0 z"
         style="fill:none;stroke:#000000"
         inkscape:connector-curvature="0" />
      <path
         id="path5619"
         d="m 7.0866142,211.1811 7.0866138,0 0,46.77166 -7.0866138,0 z"
         style="fill:none;stroke:#000000"
         inkscape:connector-curvature="0" />
      <path
         id="path5621"
         d="m 283.46457,257.95276 -7.08662,0 0,-46.77166 7.08662,0 z"
         style="fill:none;stroke:#000000"
         inkscape:connector-curvature="0" />
      <path
         id="path5623"
         d="m 283.46457,164.40945 -7.08662,0 0,-46.77165 7.08662,0 z"
         style="fill:none;stroke:#000000"
         inkscape:connector-curvature="0" />
      <path
         id="path5625"
         d="M 0,0 0,56.692913"
         style="fill:none;stroke:#44aaff"
         inkscape:connector-curvature="0" />
      <path
         id="path5627"
         d="m -14.173228,70.866142 0,233.858268"
         style="fill:none;stroke:#44aaff"
         inkscape:connector-curvature="0" />
      <path
         id="path5629"
         d="m 0,318.89764 0,56.69291"
         style="fill:none;stroke:#44aaff"
         inkscape:connector-curvature="0" />
      <path
         id="path5631"
         d="m 14.173228,389.76378 0,233.85827"
         style="fill:none;stroke:#44aaff"
         inkscape:connector-curvature="0" />
      <path
         id="path5633"
         d="m -7.0866142,644.88189 0,56.69291"
         style="fill:none;stroke:#44aaff"
         inkscape:connector-curvature="0" />
      <path
         id="path5635"
         d="m -85.03937,70.866142 0,233.858268"
         style="fill:none;stroke:#44aaff"
         inkscape:connector-curvature="0" />
      <path
         id="path5637"
         d="m -113.38583,70.866142 0,233.858268"
         style="fill:none;stroke:#44aaff"
         inkscape:connector-curvature="0" />
      <path
         id="path5639"
         d="m 290.55118,0 0,56.692913"
         style="fill:none;stroke:#44aaff"
         inkscape:connector-curvature="0" />
      <path
         id="path5641"
         d="m 304.72441,70.866142 0,233.858268"
         style="fill:none;stroke:#44aaff"
         inkscape:connector-curvature="0" />
      <path
         id="path5643"
         d="m 290.55118,318.89764 0,56.69291"
         style="fill:none;stroke:#44aaff"
         inkscape:connector-curvature="0" />
      <path
         id="path5645"
         d="m 276.37795,389.76378 0,233.85827"
         style="fill:none;stroke:#44aaff"
         inkscape:connector-curvature="0" />
      <path
         id="path5647"
         d="m 297.6378,644.88189 0,56.69291"
         style="fill:none;stroke:#44aaff"
         inkscape:connector-curvature="0" />
      <path
         id="path5649"
         d="m 375.59055,70.866142 0,233.858268"
         style="fill:none;stroke:#44aaff"
         inkscape:connector-curvature="0" />
      <path
         id="path5651"
         d="m 403.93701,70.866142 0,233.858268"
         style="fill:none;stroke:#44aaff"
         inkscape:connector-curvature="0" />
      <path
         id="path5653"
         d="m 0,63.779528 290.55118,0"
         style="fill:none;stroke:#44aaff"
         inkscape:connector-curvature="0" />
      <path
         id="path5655"
         d="m 0,311.81102 290.55118,0"
         style="fill:none;stroke:#44aaff"
         inkscape:connector-curvature="0" />
      <path
         id="path5657"
         d="m 14.173228,382.67717 262.204722,0"
         style="fill:none;stroke:#44aaff"
         inkscape:connector-curvature="0" />
      <path
         id="path5659"
         d="m 14.173228,637.79528 262.204722,0"
         style="fill:none;stroke:#44aaff"
         inkscape:connector-curvature="0" />
    </g>
  </g>
</svg>
