<?xml version="1.0" encoding="UTF-8" standalone="no"?>
<!-- Created with Inkscape (http://www.inkscape.org/) -->

<svg
   xmlns:dc="http://purl.org/dc/elements/1.1/"
   xmlns:cc="http://creativecommons.org/ns#"
   xmlns:rdf="http://www.w3.org/1999/02/22-rdf-syntax-ns#"
   xmlns:svg="http://www.w3.org/2000/svg"
   xmlns="http://www.w3.org/2000/svg"
   xmlns:sodipodi="http://sodipodi.sourceforge.net/DTD/sodipodi-0.dtd"
   xmlns:inkscape="http://www.inkscape.org/namespaces/inkscape"
   width="210mm"
   height="297mm"
   viewBox="0 0 744.09448 1052.3622"
   id="svg4172"
   version="1.1"
   inkscape:version="0.91 r13725"
   sodipodi:docname="box-a4.svg">
  <sodipodi:namedview
     id="base"
     pagecolor="#ffffff"
     bordercolor="#666666"
     borderopacity="1.0"
     inkscape:pageopacity="0.0"
     inkscape:pageshadow="2"
     inkscape:zoom="0.35"
     inkscape:cx="425.84755"
     inkscape:cy="495.81231"
     inkscape:document-units="px"
     inkscape:current-layer="layer1"
     showgrid="false"
     inkscape:window-width="1366"
     inkscape:window-height="705"
     inkscape:window-x="-8"
     inkscape:window-y="-8"
     inkscape:window-maximized="1" />
  <defs
     id="defs4174" />
  <metadata
     id="metadata4177">
    <rdf:RDF>
      <cc:Work
         rdf:about="">
        <dc:format>image/svg+xml</dc:format>
        <dc:type
           rdf:resource="http://purl.org/dc/dcmitype/StillImage" />
        <dc:title></dc:title>
      </cc:Work>
    </rdf:RDF>
  </metadata>
  <g
     transform="translate(0,-3.464567e-6)"
     id="layer1"
     inkscape:groupmode="layer"
     inkscape:label="Layer 1">
    <g
       id="g4645"
       transform="translate(197.27612,170.83561)"
       inkscape:label="RobotBox">
      <path
         id="path4647"
         d="m 0,0 -47.244094,0 0,70.866142 47.244094,0 0,7.086614 -70.866142,0 -21.259842,0 -70.866146,0 0,248.031494 70.866146,0 21.259842,0 70.866142,0 0,7.08662 -47.244094,0 0,70.86614 54.3307082,0 0,7.08661 -47.2440942,22.20473 0,203.62204 47.2440942,22.20473 0,7.08661 -7.0866142,0 c -35.433071,0 -77.952756,0 -62.007874,31.00394 8.858268,17.71653 26.574803,39.8622 62.007874,39.8622 l 354.33071,0 c 35.43307,0 53.1496,-22.14567 62.00787,-39.8622 15.94488,-31.00394 -26.5748,-31.00394 -62.00787,-31.00394 l -7.08662,0 0,-7.08661 47.2441,-22.20473 0,-203.62204 -47.2441,-22.20473 0,-7.08661 54.33071,0 0,-70.86614 -47.24409,0 0,-7.08662 70.86614,0 21.25984,0 70.86614,0 0,-248.031494 -70.86614,0 -21.25984,0 -70.86614,0 0,-7.086614 47.24409,0 0,-70.866142 -47.24409,0 z"
         style="fill:none;stroke:#000000"
         inkscape:connector-curvature="0" />
      <path
         id="path4649"
         d="M 0,0 0,403.93701"
         style="fill:none;stroke:#44aaff"
         inkscape:connector-curvature="0" />
      <path
         id="path4651"
         d="m 7.0866142,411.02362 0,248.0315"
         style="fill:none;stroke:#44aaff"
         inkscape:connector-curvature="0" />
      <path
         id="path4653"
         d="m 0,666.14173 0,70.86614"
         style="fill:none;stroke:#44aaff"
         inkscape:connector-curvature="0" />
      <path
         id="path4655"
         d="m 354.33071,0 0,403.93701"
         style="fill:none;stroke:#44aaff"
         inkscape:connector-curvature="0" />
      <path
         id="path4657"
         d="m 347.24409,411.02362 0,248.0315"
         style="fill:none;stroke:#44aaff"
         inkscape:connector-curvature="0" />
      <path
         id="path4659"
         d="m 354.33071,666.14173 0,70.86614"
         style="fill:none;stroke:#44aaff"
         inkscape:connector-curvature="0" />
      <path
         id="path4661"
         d="m -74.409449,77.952756 0,248.031494"
         style="fill:none;stroke:#44aaff"
         inkscape:connector-curvature="0" />
      <path
         id="path4663"
         d="m -95.669291,77.952756 0,248.031494"
         style="fill:none;stroke:#44aaff"
         inkscape:connector-curvature="0" />
      <path
         id="path4665"
         d="m 428.74016,77.952756 0,248.031494"
         style="fill:none;stroke:#44aaff"
         inkscape:connector-curvature="0" />
      <path
         id="path4667"
         d="m 450,77.952756 0,248.031494"
         style="fill:none;stroke:#44aaff"
         inkscape:connector-curvature="0" />
      <path
         id="path4669"
         d="m 0,74.409449 354.33071,0"
         style="fill:none;stroke:#44aaff"
         inkscape:connector-curvature="0" />
      <path
         id="path4671"
         d="m 0,329.52756 354.33071,0"
         style="fill:none;stroke:#44aaff"
         inkscape:connector-curvature="0" />
      <path
         id="path4673"
         d="m 7.0866142,407.48031 340.1574758,0"
         style="fill:none;stroke:#44aaff"
         inkscape:connector-curvature="0" />
      <path
         id="path4675"
         d="m 7.0866142,662.59843 340.1574758,0"
         style="fill:none;stroke:#44aaff"
         inkscape:connector-curvature="0" />
    </g>
  </g>
</svg>
