<?xml version="1.0" encoding="UTF-8" standalone="no"?>
<!-- Created with Inkscape (http://www.inkscape.org/) -->

<svg
   xmlns:dc="http://purl.org/dc/elements/1.1/"
   xmlns:cc="http://creativecommons.org/ns#"
   xmlns:rdf="http://www.w3.org/1999/02/22-rdf-syntax-ns#"
   xmlns:svg="http://www.w3.org/2000/svg"
   xmlns="http://www.w3.org/2000/svg"
   xmlns:sodipodi="http://sodipodi.sourceforge.net/DTD/sodipodi-0.dtd"
   xmlns:inkscape="http://www.inkscape.org/namespaces/inkscape"
   width="210mm"
   height="297mm"
   viewBox="0 0 744.09448 1052.3622"
   id="svg4172"
   version="1.1"
   inkscape:version="0.91 r13725"
   sodipodi:docname="box-a4-w2mm.svg">
  <sodipodi:namedview
     id="base"
     pagecolor="#ffffff"
     bordercolor="#666666"
     borderopacity="1.0"
     inkscape:pageopacity="0.0"
     inkscape:pageshadow="2"
     inkscape:zoom="0.49497475"
     inkscape:cx="929.86821"
     inkscape:cy="592.14945"
     inkscape:document-units="mm"
     inkscape:current-layer="layer1"
     showgrid="false"
     inkscape:window-width="1366"
     inkscape:window-height="705"
     inkscape:window-x="-8"
     inkscape:window-y="-8"
     inkscape:window-maximized="1"
     showguides="true"
     inkscape:guide-bbox="true"
     inkscape:snap-bbox="true"
     inkscape:bbox-paths="true" />
  <defs
     id="defs4174" />
  <metadata
     id="metadata4177">
    <rdf:RDF>
      <cc:Work
         rdf:about="">
        <dc:format>image/svg+xml</dc:format>
        <dc:type
           rdf:resource="http://purl.org/dc/dcmitype/StillImage" />
        <dc:title></dc:title>
      </cc:Work>
    </rdf:RDF>
  </metadata>
  <g
     transform="translate(0,-3.464567e-6)"
     id="layer1"
     inkscape:groupmode="layer"
     inkscape:label="Layer 1">
    <g
       id="g7755"
       transform="matrix(1,0,0,-1,212.6599,876.9245)"
       inkscape:label="RobotBox">
      <path
         id="path7757"
         d="m 0,0 -82.677165,0 0,56.692913 82.677165,0 0,14.173229 -14.173228,0 -70.866142,0 -28.34646,0 -63.77952,0 0,233.858268 63.77952,0 28.34646,0 70.866142,0 14.173228,0 0,14.17323 -82.677165,0 0,56.69291 96.850393,0 0,14.17323 -47.244094,22.20472 0,189.44882 47.244094,22.20473 0,21.25984 -21.2598422,0 c -28.3464568,0 -62.3622048,0 -49.6062988,24.80315 7.086614,14.17323 21.259842,31.88976 49.6062988,31.88976 l 340.1574842,0 c 28.34645,0 42.51968,-17.71653 49.6063,-31.88976 12.7559,-24.80315 -21.25985,-24.80315 -49.6063,-24.80315 l -21.25985,0 0,-21.25984 47.2441,-22.20473 0,-189.44882 -47.2441,-22.20472 0,-14.17323 96.8504,0 0,-56.69291 -82.67717,0 0,-14.17323 14.17323,0 70.86614,0 28.34646,0 63.77953,0 0,-233.858268 -63.77953,0 -28.34646,0 -70.86614,0 -14.17323,0 0,-14.173229 82.67717,0 0,-56.692913 -82.67717,0 z"
         style="fill:none;stroke:#000000"
         inkscape:connector-curvature="0" />
      <path
         id="path7759"
         d="M 0,0 0,56.692913"
         style="fill:none;stroke:#44aaff"
         inkscape:connector-curvature="0" />
      <path
         id="path7761"
         d="m -14.173228,70.866142 0,233.858268"
         style="fill:none;stroke:#44aaff"
         inkscape:connector-curvature="0" />
      <path
         id="path7763"
         d="m 0,318.89764 0,56.69291"
         style="fill:none;stroke:#44aaff"
         inkscape:connector-curvature="0" />
      <path
         id="path7765"
         d="m 14.173228,389.76378 0,233.85827"
         style="fill:none;stroke:#44aaff"
         inkscape:connector-curvature="0" />
      <path
         id="path7767"
         d="m -7.0866142,644.88189 0,56.69291"
         style="fill:none;stroke:#44aaff"
         inkscape:connector-curvature="0" />
      <path
         id="path7769"
         d="m -85.03937,70.866142 0,233.858268"
         style="fill:none;stroke:#44aaff"
         inkscape:connector-curvature="0" />
      <path
         id="path7771"
         d="m -113.38583,70.866142 0,233.858268"
         style="fill:none;stroke:#44aaff"
         inkscape:connector-curvature="0" />
      <path
         id="path7773"
         d="m 325.98425,0 0,56.692913"
         style="fill:none;stroke:#44aaff"
         inkscape:connector-curvature="0" />
      <path
         id="path7775"
         d="m 340.15748,70.866142 0,233.858268"
         style="fill:none;stroke:#44aaff"
         inkscape:connector-curvature="0" />
      <path
         id="path7777"
         d="m 325.98425,318.89764 0,56.69291"
         style="fill:none;stroke:#44aaff"
         inkscape:connector-curvature="0" />
      <path
         id="path7779"
         d="m 311.81102,389.76378 0,233.85827"
         style="fill:none;stroke:#44aaff"
         inkscape:connector-curvature="0" />
      <path
         id="path7781"
         d="m 333.07087,644.88189 0,56.69291"
         style="fill:none;stroke:#44aaff"
         inkscape:connector-curvature="0" />
      <path
         id="path7783"
         d="m 411.02362,70.866142 0,233.858268"
         style="fill:none;stroke:#44aaff"
         inkscape:connector-curvature="0" />
      <path
         id="path7785"
         d="m 439.37008,70.866142 0,233.858268"
         style="fill:none;stroke:#44aaff"
         inkscape:connector-curvature="0" />
      <path
         id="path7787"
         d="m 0,63.779528 325.98425,0"
         style="fill:none;stroke:#44aaff"
         inkscape:connector-curvature="0" />
      <path
         id="path7789"
         d="m 0,311.81102 325.98425,0"
         style="fill:none;stroke:#44aaff"
         inkscape:connector-curvature="0" />
      <path
         id="path7791"
         d="m 14.173228,382.67717 297.637792,0"
         style="fill:none;stroke:#44aaff"
         inkscape:connector-curvature="0" />
      <path
         id="path7793"
         d="m 14.173228,637.79528 297.637792,0"
         style="fill:none;stroke:#44aaff"
         inkscape:connector-curvature="0" />
    </g>
  </g>
</svg>
