<?xml version="1.0" encoding="UTF-8" standalone="no"?>
<!-- Created with Inkscape (http://www.inkscape.org/) -->

<svg
   xmlns:dc="http://purl.org/dc/elements/1.1/"
   xmlns:cc="http://creativecommons.org/ns#"
   xmlns:rdf="http://www.w3.org/1999/02/22-rdf-syntax-ns#"
   xmlns:svg="http://www.w3.org/2000/svg"
   xmlns="http://www.w3.org/2000/svg"
   xmlns:sodipodi="http://sodipodi.sourceforge.net/DTD/sodipodi-0.dtd"
   xmlns:inkscape="http://www.inkscape.org/namespaces/inkscape"
   width="210mm"
   height="297mm"
   viewBox="0 0 744.09448819 1052.3622047"
   id="svg2"
   version="1.1"
   inkscape:version="0.91 r13725"
   sodipodi:docname="черновик2.svg">
  <sodipodi:namedview
     id="base"
     pagecolor="#ffffff"
     bordercolor="#666666"
     borderopacity="1.0"
     inkscape:pageopacity="0.0"
     inkscape:pageshadow="2"
     inkscape:zoom="0.24748737"
     inkscape:cx="1851.2672"
     inkscape:cy="554.36911"
     inkscape:document-units="mm"
     inkscape:current-layer="g3500"
     showgrid="false"
     inkscape:window-width="1366"
     inkscape:window-height="705"
     inkscape:window-x="-8"
     inkscape:window-y="-8"
     inkscape:window-maximized="1"
     showguides="true"
     inkscape:guide-bbox="true"
     inkscape:snap-nodes="false"
     inkscape:snap-bbox="true"
     inkscape:bbox-paths="true"
     inkscape:bbox-nodes="true">
    <sodipodi:guide
       position="976.81752,393.9595"
       orientation="1,0"
       id="guide12701" />
    <sodipodi:guide
       position="1015.2033,432.3453"
       orientation="0,1"
       id="guide12703" />
    <sodipodi:guide
       position="977.34178,350.53834"
       orientation="0,1"
       id="guide12705" />
    <sodipodi:guide
       position="937.16903,378.30214"
       orientation="1,0"
       id="guide12707" />
    <sodipodi:guide
       position="895.32146,412.39479"
       orientation="1,0"
       id="guide12711" />
  </sodipodi:namedview>
  <defs
     id="defs4" />
  <metadata
     id="metadata7">
    <rdf:RDF>
      <cc:Work
         rdf:about="">
        <dc:format>image/svg+xml</dc:format>
        <dc:type
           rdf:resource="http://purl.org/dc/dcmitype/StillImage" />
        <dc:title></dc:title>
      </cc:Work>
    </rdf:RDF>
  </metadata>
  <g
     id="layer1"
     inkscape:groupmode="layer"
     inkscape:label="Layer 1">
    <g
       id="g3500"
       transform="matrix(1,0,0,-1,390.26335,1099.5393)"
       inkscape:label="Box1">
      <rect
         style="fill:#e5ff80;stroke:none;stroke-width:0.9456836"
         id="rect12684"
         width="81.496063"
         height="81.496063"
         x="505.05811"
         y="-479.5224"
         transform="scale(1,-1)" />
      <g
         id="g3571"
         transform="translate(1522.2199,-17.0316952798)"
         inkscape:label="Box1" />
      <g
         inkscape:label="Box1"
         transform="translate(-134.04166,297.59287)"
         id="g3630" />
      <circle
         style="fill:none;stroke:#ff0000"
         id="path3762"
         cx="-84.217552"
         cy="-995.5932"
         transform="scale(1,-1)"
         r="81.496063" />
      <path
         sodipodi:nodetypes="cccccccccccccccccccccccccccccccccccccccccccccccc"
         inkscape:connector-curvature="0"
         style="fill:none;stroke:#000000"
         d="m -84.127455,535.0635 -54.330995,0 0,81.496 54.330995,0 0,7.087 -81.495995,0 -21.26,0 -81.496,0 0,134.645 81.496,0 21.25999,0 81.496005,0 0,7.087 -54.330995,0 0,81.496 54.330995,0 0,7.087 -81.496005,2 0,130.645 81.496005,2 0,7.087 c -39.887185,-0.76967 -90.443915,-0.75927 -73.266845,35.3985 11.37506,22.1855 33.21015,45.182 73.266845,46.0975 l 219.685005,0 81.49599,-2 0,-77.496 -81.49599,-2 0,-7.087 81.49599,-2 0,-130.645 -81.49599,-2 0,-7.087 54.331,0 0,-81.496 -54.331,0 0,-7.087 81.49599,0 21.26,0 81.496,0 0,-134.645 -81.496,0 -21.26,0 -81.49599,0 0,-7.087 54.331,0 0,-81.496 -54.331,0 z"
         id="path3718" />
      <path
         inkscape:connector-curvature="0"
         style="fill:none;stroke:#000000"
         d="m -84.127455,535.0635 0,542.126 z"
         id="path3720" />
      <path
         inkscape:connector-curvature="0"
         style="fill:none;stroke:#000000"
         d="m 135.55755,535.0635 0,542.126 z"
         id="path3722" />
      <path
         inkscape:connector-curvature="0"
         style="fill:none;stroke:#000000"
         d="m -169.16645,623.6465 0,134.645 z"
         id="path3724" />
      <path
         inkscape:connector-curvature="0"
         style="fill:none;stroke:#000000"
         d="m -190.42646,623.6465 0,134.645 z"
         id="path3726" />
      <path
         inkscape:connector-curvature="0"
         style="fill:none;stroke:#000000"
         d="m 220.59654,623.6465 0,134.645 z"
         id="path3728" />
      <path
         inkscape:connector-curvature="0"
         style="fill:none;stroke:#000000"
         d="m 241.85654,623.6465 0,134.645 z"
         id="path3730" />
      <path
         inkscape:connector-curvature="0"
         style="fill:none;stroke:#000000"
         d="m -84.127455,620.1025 219.685005,0 z"
         id="path3732" />
      <path
         inkscape:connector-curvature="0"
         style="fill:none;stroke:#000000"
         d="m -84.127455,761.8355 219.685005,0 z"
         id="path3734" />
      <path
         inkscape:connector-curvature="0"
         style="fill:none;stroke:#000000"
         d="m -84.127455,850.4175 219.685005,0 z"
         id="path3736" />
      <path
         inkscape:connector-curvature="0"
         style="fill:none;stroke:#000000"
         d="m -84.127455,992.1505 219.685005,0 z"
         id="path3738" />
      <path
         id="path3718-8"
         d="m -295.01529,984.05896 c -39.88719,-0.7697 -90.44391,-0.7593 -73.26685,35.39854 11.37507,22.1855 33.21015,45.182 73.26685,46.0975 z"
         style="fill:none;stroke:#000000"
         inkscape:connector-curvature="0"
         sodipodi:nodetypes="cccc" />
      <path
         id="path3718-8-5"
         d="M 0,0 C -40.897343,-7.8407678 -72.261164,-2.2745288 -65.185629,34.893424 -96.74204,62.129686 -40.0567,80.580499 0,81.495999 Z"
         style="fill:none;stroke:#000000"
         inkscape:connector-curvature="0"
         sodipodi:nodetypes="cccc" />
      <path
         style="fill:none;stroke:#ff0000;stroke-width:0.73726857"
         d="m 0,0 90,0 0,-30 -90,0 z"
         id="rect4618"
         inkscape:connector-curvature="0" />
      <text
         xml:space="preserve"
         style="font-style:normal;font-weight:normal;font-size:20.29106903px;line-height:125%;font-family:Sans;letter-spacing:0px;word-spacing:0px;fill:#000000;fill-opacity:1;stroke:none;stroke-width:1px;stroke-linecap:butt;stroke-linejoin:miter;stroke-opacity:1"
         x="3.5615823"
         y="15.465033"
         id="text4621"
         sodipodi:linespacing="125%"
         transform="scale(0.98336666,-1.0169147)"><tspan
           sodipodi:role="line"
           id="tspan4623"
           x="3.5615823"
           y="15.465033">0</tspan></text>
      <text
         xml:space="preserve"
         style="font-style:normal;font-weight:normal;font-size:20.29106903px;line-height:125%;font-family:Sans;letter-spacing:0px;word-spacing:0px;fill:#000000;fill-opacity:1;stroke:none;stroke-width:1px;stroke-linecap:butt;stroke-linejoin:miter;stroke-opacity:1"
         x="-43.267223"
         y="33.011742"
         id="text4621-6"
         sodipodi:linespacing="125%"
         transform="scale(0.98336665,-1.0169147)"><tspan
           sodipodi:role="line"
           id="tspan4623-3"
           x="-43.267223"
           y="33.011742">1</tspan></text>
      <text
         xml:space="preserve"
         style="font-style:normal;font-weight:normal;font-size:20.29106903px;line-height:125%;font-family:Sans;letter-spacing:0px;word-spacing:0px;fill:#000000;fill-opacity:1;stroke:none;stroke-width:1px;stroke-linecap:butt;stroke-linejoin:miter;stroke-opacity:1"
         x="-93.271606"
         y="24.578173"
         id="text4621-6-8"
         sodipodi:linespacing="125%"
         transform="scale(0.98336665,-1.0169147)"><tspan
           sodipodi:role="line"
           id="tspan4623-3-7"
           x="-93.271606"
           y="24.578173">2</tspan></text>
      <text
         xml:space="preserve"
         style="font-style:normal;font-weight:normal;font-size:20.29106903px;line-height:125%;font-family:Sans;letter-spacing:0px;word-spacing:0px;fill:#000000;fill-opacity:1;stroke:none;stroke-width:1px;stroke-linecap:butt;stroke-linejoin:miter;stroke-opacity:1"
         x="-110.73466"
         y="-27.57272"
         id="text4621-6-87"
         sodipodi:linespacing="125%"
         transform="scale(0.98336665,-1.0169147)"><tspan
           sodipodi:role="line"
           id="tspan4623-3-4"
           x="-110.73466"
           y="-27.57272">3</tspan></text>
      <text
         xml:space="preserve"
         style="font-style:normal;font-weight:normal;font-size:20.29106903px;line-height:125%;font-family:Sans;letter-spacing:0px;word-spacing:0px;fill:#000000;fill-opacity:1;stroke:none;stroke-width:1px;stroke-linecap:butt;stroke-linejoin:miter;stroke-opacity:1"
         x="-111.76191"
         y="-67.306732"
         id="text4621-6-5"
         sodipodi:linespacing="125%"
         transform="scale(0.98336665,-1.0169147)"><tspan
           sodipodi:role="line"
           id="tspan4623-3-6"
           x="-111.76191"
           y="-67.306732">4</tspan></text>
      <text
         xml:space="preserve"
         style="font-style:normal;font-weight:normal;font-size:20.29106903px;line-height:125%;font-family:Sans;letter-spacing:0px;word-spacing:0px;fill:#000000;fill-opacity:1;stroke:none;stroke-width:1px;stroke-linecap:butt;stroke-linejoin:miter;stroke-opacity:1"
         x="-47.820442"
         y="-88.663765"
         id="text4621-6-5-2"
         sodipodi:linespacing="125%"
         transform="scale(0.98336665,-1.0169147)"><tspan
           sodipodi:role="line"
           id="tspan4623-3-6-4"
           x="-47.820442"
           y="-88.663765">5</tspan></text>
      <text
         xml:space="preserve"
         style="font-style:normal;font-weight:normal;font-size:20.29106903px;line-height:125%;font-family:Sans;letter-spacing:0px;word-spacing:0px;fill:#000000;fill-opacity:1;stroke:none;stroke-width:1px;stroke-linecap:butt;stroke-linejoin:miter;stroke-opacity:1"
         x="1.4870274"
         y="-88.663765"
         id="text4621-6-5-6"
         sodipodi:linespacing="125%"
         transform="scale(0.98336665,-1.0169147)"><tspan
           sodipodi:role="line"
           id="tspan4623-3-6-0"
           x="1.4870274"
           y="-88.663765">6</tspan></text>
      <path
         id="path3718-6"
         style="fill:none;stroke:#000000"
         d="m 880.81598,1026.703 c 17.177,-36.15784 -33.37969,-36.16824 -73.2847,-35.38675 l -0.0178,-7.0752 81.496,-2 0,-130.645 -81.496,-2 0,-7.087 54.331,0 0,-81.496 -54.331,0 0,-7.087 81.496,0 21.26,0 81.49597,0 0,-134.645 -81.49597,0 -21.26,0 -81.496,0 0,-7.087 54.331,0 0,-81.496 -54.331,0 -219.685,0 -54.331,0 0,81.496 54.33099,0 0,7.087 -81.49599,0 -21.26,0 -81.496,0 0,134.645 81.496,0 21.25999,0 81.496,0 0,7.087 -54.33099,0 0,81.496 54.33099,0 0,7.087 -81.496,2 0,130.645 81.496,2 0,7.087 c -39.88718,-0.7697 -90.44391,-0.7593 -73.26684,35.39855 11.37506,22.1855 33.21015,45.182 73.26684,46.0975 l 219.70284,-0.012 c 40.07452,-0.9273 61.9096,-23.9238 73.28467,-46.1093 z"
         inkscape:connector-curvature="0"
         sodipodi:nodetypes="ccccccccccccccccccccccccccccccccccccccccccccccc" />
      <path
         id="path3718-6-7"
         style="fill:none;stroke:#000000"
         d="m 1073.7551,1012.5608 c 17.177,-36.15777 -33.3797,-36.16817 -73.2847,-35.38667 l 0,81.49577 c 40.0746,-0.9273 61.9096,-23.9238 73.2847,-46.1093 z"
         inkscape:connector-curvature="0"
         sodipodi:nodetypes="ccccc" />
      <g
         id="g10416"
         inkscape:label="RobotBox"
         transform="translate(586.57842,-62.914496)">
        <path
           id="path10418"
           d="m 0,0 -54.330709,0 0,81.496063 54.330709,0 0,7.086614 -81.496063,0 -21.259847,0 -81.49606,0 0,134.645673 81.49606,0 21.259847,0 81.496063,0 0,7.08661 -54.330709,0 0,81.49606 61.4173232,0 0,7.08662 -54.3307082,25.53543 0,83.5748 54.3307082,25.53544 0,7.08661 -7.0866142,0 c -39.88719,-0.7697 -90.44391,-0.7593 -73.26685,35.3985 11.37507,22.1855 33.21015,45.182 73.26685,46.09756 l 219.68504,0 c 40.0746,-0.9273 61.9096,-23.9238 73.2847,-46.1093 17.177,-36.1578 -33.3797,-36.1682 -73.2847,-35.38676 l -7.08661,0 0,-7.08661 54.3307,-25.53544 0,-83.5748 -54.3307,-25.53543 0,-7.08662 61.41732,0 0,-81.49606 -54.33071,0 0,-7.08661 81.49606,0 21.25984,0 81.49607,0 0,-134.645673 -81.49607,0 -21.25984,0 -81.49606,0 0,-7.086614 54.33071,0 0,-81.496063 -54.33071,0 z"
           style="fill:none;stroke:#000000"
           inkscape:connector-curvature="0" />
        <path
           id="path10420"
           d="M 0,0 0,311.81102"
           style="fill:none;stroke:#44aaff"
           inkscape:connector-curvature="0" />
        <path
           id="path10422"
           d="m 7.0866142,318.89764 0,134.64567"
           style="fill:none;stroke:#44aaff"
           inkscape:connector-curvature="0" />
        <path
           id="path10424"
           d="m 0,460.62992 0,81.49606"
           style="fill:none;stroke:#44aaff"
           inkscape:connector-curvature="0" />
        <path
           id="path10426"
           d="m 219.68504,0 0,311.81102"
           style="fill:none;stroke:#44aaff"
           inkscape:connector-curvature="0" />
        <path
           id="path10428"
           d="m 212.59843,318.89764 0,134.64567"
           style="fill:none;stroke:#44aaff"
           inkscape:connector-curvature="0" />
        <path
           id="path10430"
           d="m 219.68504,460.62992 0,81.49606"
           style="fill:none;stroke:#44aaff"
           inkscape:connector-curvature="0" />
        <path
           id="path10432"
           d="m -85.03937,88.582677 0,134.645673"
           style="fill:none;stroke:#44aaff"
           inkscape:connector-curvature="0" />
        <path
           id="path10434"
           d="m -106.29921,88.582677 0,134.645673"
           style="fill:none;stroke:#44aaff"
           inkscape:connector-curvature="0" />
        <path
           id="path10436"
           d="m 304.72441,88.582677 0,134.645673"
           style="fill:none;stroke:#44aaff"
           inkscape:connector-curvature="0" />
        <path
           id="path10438"
           d="m 325.98425,88.582677 0,134.645673"
           style="fill:none;stroke:#44aaff"
           inkscape:connector-curvature="0" />
        <path
           id="path10440"
           d="m 0,85.03937 219.68504,0"
           style="fill:none;stroke:#44aaff"
           inkscape:connector-curvature="0" />
        <path
           id="path10442"
           d="m 0,226.77165 219.68504,0"
           style="fill:none;stroke:#44aaff"
           inkscape:connector-curvature="0" />
        <path
           id="path10444"
           d="m 7.0866142,315.35433 205.5118158,0"
           style="fill:none;stroke:#44aaff"
           inkscape:connector-curvature="0" />
        <path
           id="path10446"
           d="m 7.0866142,457.08661 205.5118158,0"
           style="fill:none;stroke:#44aaff"
           inkscape:connector-curvature="0" />
      </g>
      <g
         id="g15375"
         transform="translate(1218.2927,-63.103594)"
         inkscape:label="RobotBox">
        <path
           id="path15377"
           d="m 0,0 -54.330709,0 0,81.496063 54.330709,0 0,7.086614 -81.496063,0 -21.259847,0 -81.49606,0 0,134.645673 81.49606,0 21.259847,0 81.496063,0 0,7.08661 -54.330709,0 0,81.49606 61.4173232,0 0,7.08662 -54.3307082,25.53543 0,83.5748 54.3307082,25.53544 0,7.08661 -7.0866142,0 c -40.748031,0 -89.645669,0 -71.309055,35.65453 C -61.122047,516.65846 -40.748031,542.12598 0,542.12598 l 219.68504,0 c 40.74803,0 61.12205,-25.46752 71.30905,-45.84153 18.33662,-35.65453 -30.56102,-35.65453 -71.30905,-35.65453 l -7.08661,0 0,-7.08661 54.3307,-25.53544 0,-83.5748 -54.3307,-25.53543 0,-7.08662 61.41732,0 0,-81.49606 -54.33071,0 0,-7.08661 81.49606,0 21.25984,0 81.49607,0 0,-134.645673 -81.49607,0 -21.25984,0 -81.49606,0 0,-7.086614 54.33071,0 0,-81.496063 -54.33071,0 z"
           style="fill:none;stroke:#000000"
           inkscape:connector-curvature="0" />
        <path
           id="path15379"
           d="M 0,0 0,311.81102"
           style="fill:none;stroke:#44aaff"
           inkscape:connector-curvature="0" />
        <path
           id="path15381"
           d="m 7.0866142,318.89764 0,134.64567"
           style="fill:none;stroke:#44aaff"
           inkscape:connector-curvature="0" />
        <path
           id="path15383"
           d="m 0,460.62992 0,81.49606"
           style="fill:none;stroke:#44aaff"
           inkscape:connector-curvature="0" />
        <path
           id="path15385"
           d="m 219.68504,0 0,311.81102"
           style="fill:none;stroke:#44aaff"
           inkscape:connector-curvature="0" />
        <path
           id="path15387"
           d="m 212.59843,318.89764 0,134.64567"
           style="fill:none;stroke:#44aaff"
           inkscape:connector-curvature="0" />
        <path
           id="path15389"
           d="m 219.68504,460.62992 0,81.49606"
           style="fill:none;stroke:#44aaff"
           inkscape:connector-curvature="0" />
        <path
           id="path15391"
           d="m -85.03937,88.582677 0,134.645673"
           style="fill:none;stroke:#44aaff"
           inkscape:connector-curvature="0" />
        <path
           id="path15393"
           d="m -106.29921,88.582677 0,134.645673"
           style="fill:none;stroke:#44aaff"
           inkscape:connector-curvature="0" />
        <path
           id="path15395"
           d="m 304.72441,88.582677 0,134.645673"
           style="fill:none;stroke:#44aaff"
           inkscape:connector-curvature="0" />
        <path
           id="path15397"
           d="m 325.98425,88.582677 0,134.645673"
           style="fill:none;stroke:#44aaff"
           inkscape:connector-curvature="0" />
        <path
           id="path15399"
           d="m 0,85.03937 219.68504,0"
           style="fill:none;stroke:#44aaff"
           inkscape:connector-curvature="0" />
        <path
           id="path15401"
           d="m 0,226.77165 219.68504,0"
           style="fill:none;stroke:#44aaff"
           inkscape:connector-curvature="0" />
        <path
           id="path15403"
           d="m 7.0866142,315.35433 205.5118158,0"
           style="fill:none;stroke:#44aaff"
           inkscape:connector-curvature="0" />
        <path
           id="path15405"
           d="m 7.0866142,457.08661 205.5118158,0"
           style="fill:none;stroke:#44aaff"
           inkscape:connector-curvature="0" />
      </g>
    </g>
  </g>
  <g
     inkscape:label="Box1"
     transform="translate(288.67188,607.32051)"
     id="g3452" />
</svg>
