  0
SECTION
  2
HEADER
  9
$ACADVER
  1
AC1014
  9
$HANDSEED
  5
FFFF
  9
$MEASUREMENT
 70
     1
  0
ENDSEC
  0
SECTION
  2
TABLES
  0
TABLE
  2
VPORT
  5
8
330
0
100
AcDbSymbolTable
 70
     4
  0
VPORT
  5
2E
330
8
100
AcDbSymbolTableRecord
100
AcDbViewportTableRecord
  2
*ACTIVE
 70
     0
 10
0.0
 20
0.0
 11
1.0
 21
1.0
 12
210.0
 22
148.5
 13
0.0
 23
0.0
 14
10.0
 24
10.0
 15
10.0
 25
10.0
 16
0.0
 26
0.0
 36
1.0
 17
0.0
 27
0.0
 37
0.0
 40
341.0
 41
1.24
 42
50.0
 43
0.0
 44
0.0
 50
0.0
 51
0.0
 71
     0
 72
   100
 73
     1
 74
     3
 75
     0
 76
     0
 77
     0
 78
     0
  0
ENDTAB
  0
TABLE
  2
LTYPE
  5
5
330
0
100
AcDbSymbolTable
 70
     1
  0
LTYPE
  5
14
330
5
100
AcDbSymbolTableRecord
100
AcDbLinetypeTableRecord
  2
BYBLOCK
 70
     0
  3

 72
    65
 73
     0
 40
0.0
  0
LTYPE
  5
15
330
5
100
AcDbSymbolTableRecord
100
AcDbLinetypeTableRecord
  2
BYLAYER
 70
     0
  3

 72
    65
 73
     0
 40
0.0
  0
LTYPE
  5
16
330
5
100
AcDbSymbolTableRecord
100
AcDbLinetypeTableRecord
  2
CONTINUOUS
 70
     0
  3
Solid line
 72
    65
 73
     0
 40
0.0
  0
ENDTAB
  0
TABLE
  2
LAYER
  5
2
100
AcDbSymbolTable
 70
2
  0
LAYER
  5
50
100
AcDbSymbolTableRecord
100
AcDbLayerTableRecord
  2
0
 70
0
  6
CONTINUOUS
  0
LAYER
  5
51
100
AcDbSymbolTableRecord
100
AcDbLayerTableRecord
  2
Layer_1
 70
0
  6
CONTINUOUS
  0
ENDTAB
  0
TABLE
  2
STYLE
  5
3
330
0
100
AcDbSymbolTable
 70
     1
  0
STYLE
  5
11
330
3
100
AcDbSymbolTableRecord
100
AcDbTextStyleTableRecord
  2
STANDARD
 70
     0
 40
0.0
 41
1.0
 50
0.0
 71
     0
 42
2.5
  3
txt
  4

  0
ENDTAB
  0
TABLE
  2
VIEW
  5
6
330
0
100
AcDbSymbolTable
 70
     0
  0
ENDTAB
  0
TABLE
  2
UCS
  5
7
330
0
100
AcDbSymbolTable
 70
     0
  0
ENDTAB
  0
TABLE
  2
APPID
  5
9
330
0
100
AcDbSymbolTable
 70
     2
  0
APPID
  5
12
330
9
100
AcDbSymbolTableRecord
100
AcDbRegAppTableRecord
  2
ACAD
 70
     0
  0
ENDTAB
  0
TABLE
  2
DIMSTYLE
  5
A
330
0
100
AcDbSymbolTable
 70
     1
  0
DIMSTYLE
105
27
330
A
100
AcDbSymbolTableRecord
100
AcDbDimStyleTableRecord
  2
ISO-25
 70
     0
  3

  4

  5

  6

  7

 40
1.0
 41
2.5
 42
0.625
 43
3.75
 44
1.25
 45
0.0
 46
0.0
 47
0.0
 48
0.0
140
2.5
141
2.5
142
0.0
143
0.03937007874016
144
1.0
145
0.0
146
1.0
147
0.625
 71
     0
 72
     0
 73
     0
 74
     0
 75
     0
 76
     0
 77
     1
 78
     8
170
     0
171
     3
172
     1
173
     0
174
     0
175
     0
176
     0
177
     0
178
     0
270
     2
271
     2
272
     2
273
     2
274
     3
340
11
275
     0
280
     0
281
     0
282
     0
283
     0
284
     8
285
     0
286
     0
287
     3
288
     0
  0
ENDTAB
  0
TABLE
  2
BLOCK_RECORD
  5
1
330
0
100
AcDbSymbolTable
 70
     1
  0
BLOCK_RECORD
  5
1F
330
1
100
AcDbSymbolTableRecord
100
AcDbBlockTableRecord
  2
*MODEL_SPACE
  0
BLOCK_RECORD
  5
1B
330
1
100
AcDbSymbolTableRecord
100
AcDbBlockTableRecord
  2
*PAPER_SPACE
  0
ENDTAB
  0
ENDSEC
  0
SECTION
  2
BLOCKS
  0
BLOCK
  5
20
330
1F
100
AcDbEntity
  8
0
100
AcDbBlockBegin
  2
*MODEL_SPACE
 70
     0
 10
0.0
 20
0.0
 30
0.0
  3
*MODEL_SPACE
  1

  0
ENDBLK
  5
21
330
1F
100
AcDbEntity
  8
0
100
AcDbBlockEnd
  0
BLOCK
  5
1C
330
1B
100
AcDbEntity
 67
     1
  8
0
100
AcDbBlockBegin
  2
*PAPER_SPACE
  1

  0
ENDBLK
  5
1D
330
1B
100
AcDbEntity
 67
     1
  8
0
100
AcDbBlockEnd
  0
ENDSEC
  0
SECTION
  2
ENTITIES
  0
LINE
  5
100
100
AcDbEntity
  8
Layer_1
 62
7
100
AcDbLine
 10
15.999703
 20
9.000209
 30
0.0
 11
15.999722
 21
7.500508
 31
0.0
  0
LINE
  5
101
100
AcDbEntity
  8
Layer_1
 62
7
100
AcDbLine
 10
15.999722
 20
7.500508
 30
0.0
 11
17.499722
 21
7.500508
 31
0.0
  0
LINE
  5
102
100
AcDbEntity
  8
Layer_1
 62
7
100
AcDbLine
 10
17.499722
 20
7.500508
 30
0.0
 11
17.499719
 21
2.000223
 31
0.0
  0
LINE
  5
103
100
AcDbEntity
  8
Layer_1
 62
7
100
AcDbLine
 10
17.499719
 20
2.000223
 30
0.0
 11
16.999720
 21
2.000223
 31
0.0
  0
LINE
  5
104
100
AcDbEntity
  8
Layer_1
 62
7
100
AcDbLine
 10
16.999720
 20
2.000223
 30
0.0
 11
16.999864
 21
0.000001
 31
0.0
  0
LINE
  5
105
100
AcDbEntity
  8
Layer_1
 62
7
100
AcDbLine
 10
16.999864
 20
0.000001
 30
0.0
 11
18.999671
 21
0.000001
 31
0.0
  0
LINE
  5
106
100
AcDbEntity
  8
Layer_1
 62
7
100
AcDbLine
 10
18.999671
 20
0.000001
 30
0.0
 11
18.999719
 21
2.000223
 31
0.0
  0
LINE
  5
107
100
AcDbEntity
  8
Layer_1
 62
7
100
AcDbLine
 10
18.999719
 20
2.000223
 30
0.0
 11
18.499720
 21
2.000223
 31
0.0
  0
LINE
  5
108
100
AcDbEntity
  8
Layer_1
 62
7
100
AcDbLine
 10
18.499720
 20
2.000223
 30
0.0
 11
18.499734
 21
7.500508
 31
0.0
  0
LINE
  5
109
100
AcDbEntity
  8
Layer_1
 62
7
100
AcDbLine
 10
18.499734
 20
7.500508
 30
0.0
 11
19.999731
 21
7.500508
 31
0.0
  0
LINE
  5
10a
100
AcDbEntity
  8
Layer_1
 62
7
100
AcDbLine
 10
19.999731
 20
7.500508
 30
0.0
 11
19.999703
 21
2.000223
 31
0.0
  0
LINE
  5
10b
100
AcDbEntity
  8
Layer_1
 62
7
100
AcDbLine
 10
19.999703
 20
2.000223
 30
0.0
 11
19.499707
 21
2.000223
 31
0.0
  0
LINE
  5
10c
100
AcDbEntity
  8
Layer_1
 62
7
100
AcDbLine
 10
19.499707
 20
2.000223
 30
0.0
 11
19.499625
 21
0.000001
 31
0.0
  0
LINE
  5
10d
100
AcDbEntity
  8
Layer_1
 62
7
100
AcDbLine
 10
19.499625
 20
0.000001
 30
0.0
 11
21.499985
 21
0.000001
 31
0.0
  0
LINE
  5
10e
100
AcDbEntity
  8
Layer_1
 62
7
100
AcDbLine
 10
21.499985
 20
0.000001
 30
0.0
 11
21.499706
 21
2.000223
 31
0.0
  0
LINE
  5
10f
100
AcDbEntity
  8
Layer_1
 62
7
100
AcDbLine
 10
21.499706
 20
2.000223
 30
0.0
 11
20.999704
 21
2.000223
 31
0.0
  0
LINE
  5
110
100
AcDbEntity
  8
Layer_1
 62
7
100
AcDbLine
 10
20.999704
 20
2.000223
 30
0.0
 11
20.999735
 21
7.500508
 31
0.0
  0
LINE
  5
111
100
AcDbEntity
  8
Layer_1
 62
7
100
AcDbLine
 10
20.999735
 20
7.500508
 30
0.0
 11
22.499735
 21
7.500508
 31
0.0
  0
LINE
  5
112
100
AcDbEntity
  8
Layer_1
 62
7
100
AcDbLine
 10
22.499735
 20
7.500508
 30
0.0
 11
22.499707
 21
2.000223
 31
0.0
  0
LINE
  5
113
100
AcDbEntity
  8
Layer_1
 62
7
100
AcDbLine
 10
22.499707
 20
2.000223
 30
0.0
 11
21.999705
 21
2.000223
 31
0.0
  0
LINE
  5
114
100
AcDbEntity
  8
Layer_1
 62
7
100
AcDbLine
 10
21.999705
 20
2.000223
 30
0.0
 11
21.999936
 21
0.000001
 31
0.0
  0
LINE
  5
115
100
AcDbEntity
  8
Layer_1
 62
7
100
AcDbLine
 10
21.999936
 20
0.000001
 30
0.0
 11
23.999746
 21
0.000001
 31
0.0
  0
LINE
  5
116
100
AcDbEntity
  8
Layer_1
 62
7
100
AcDbLine
 10
23.999746
 20
0.000001
 30
0.0
 11
23.999706
 21
2.000223
 31
0.0
  0
LINE
  5
117
100
AcDbEntity
  8
Layer_1
 62
7
100
AcDbLine
 10
23.999706
 20
2.000223
 30
0.0
 11
23.499705
 21
2.000223
 31
0.0
  0
LINE
  5
118
100
AcDbEntity
  8
Layer_1
 62
7
100
AcDbLine
 10
23.499705
 20
2.000223
 30
0.0
 11
23.499733
 21
7.500508
 31
0.0
  0
LINE
  5
119
100
AcDbEntity
  8
Layer_1
 62
7
100
AcDbLine
 10
23.499733
 20
7.500508
 30
0.0
 11
24.999733
 21
7.500508
 31
0.0
  0
LINE
  5
11a
100
AcDbEntity
  8
Layer_1
 62
7
100
AcDbLine
 10
24.999733
 20
7.500508
 30
0.0
 11
24.999704
 21
2.000223
 31
0.0
  0
LINE
  5
11b
100
AcDbEntity
  8
Layer_1
 62
7
100
AcDbLine
 10
24.999704
 20
2.000223
 30
0.0
 11
24.499705
 21
2.000223
 31
0.0
  0
LINE
  5
11c
100
AcDbEntity
  8
Layer_1
 62
7
100
AcDbLine
 10
24.499705
 20
2.000223
 30
0.0
 11
24.499700
 21
0.000001
 31
0.0
  0
LINE
  5
11d
100
AcDbEntity
  8
Layer_1
 62
7
100
AcDbLine
 10
24.499700
 20
0.000001
 30
0.0
 11
26.500060
 21
0.000001
 31
0.0
  0
LINE
  5
11e
100
AcDbEntity
  8
Layer_1
 62
7
100
AcDbLine
 10
26.500060
 20
0.000001
 30
0.0
 11
26.499778
 21
2.000223
 31
0.0
  0
LINE
  5
11f
100
AcDbEntity
  8
Layer_1
 62
7
100
AcDbLine
 10
26.499778
 20
2.000223
 30
0.0
 11
25.999776
 21
2.000223
 31
0.0
  0
LINE
  5
120
100
AcDbEntity
  8
Layer_1
 62
7
100
AcDbLine
 10
25.999776
 20
2.000223
 30
0.0
 11
25.999804
 21
7.500508
 31
0.0
  0
LINE
  5
121
100
AcDbEntity
  8
Layer_1
 62
7
100
AcDbLine
 10
25.999804
 20
7.500508
 30
0.0
 11
27.499804
 21
7.500508
 31
0.0
  0
LINE
  5
122
100
AcDbEntity
  8
Layer_1
 62
7
100
AcDbLine
 10
27.499804
 20
7.500508
 30
0.0
 11
27.499787
 21
2.000223
 31
0.0
  0
LINE
  5
123
100
AcDbEntity
  8
Layer_1
 62
7
100
AcDbLine
 10
27.499787
 20
2.000223
 30
0.0
 11
26.999788
 21
2.000223
 31
0.0
  0
LINE
  5
124
100
AcDbEntity
  8
Layer_1
 62
7
100
AcDbLine
 10
26.999788
 20
2.000223
 30
0.0
 11
27.000070
 21
0.000001
 31
0.0
  0
LINE
  5
125
100
AcDbEntity
  8
Layer_1
 62
7
100
AcDbLine
 10
27.000070
 20
0.000001
 30
0.0
 11
28.999880
 21
0.000001
 31
0.0
  0
LINE
  5
126
100
AcDbEntity
  8
Layer_1
 62
7
100
AcDbLine
 10
28.999880
 20
0.000001
 30
0.0
 11
28.999775
 21
2.000223
 31
0.0
  0
LINE
  5
127
100
AcDbEntity
  8
Layer_1
 62
7
100
AcDbLine
 10
28.999775
 20
2.000223
 30
0.0
 11
28.499776
 21
2.000223
 31
0.0
  0
LINE
  5
128
100
AcDbEntity
  8
Layer_1
 62
7
100
AcDbLine
 10
28.499776
 20
2.000223
 30
0.0
 11
28.499793
 21
7.500508
 31
0.0
  0
LINE
  5
129
100
AcDbEntity
  8
Layer_1
 62
7
100
AcDbLine
 10
28.499793
 20
7.500508
 30
0.0
 11
29.999802
 21
7.500226
 31
0.0
  0
LINE
  5
12a
100
AcDbEntity
  8
Layer_1
 62
7
100
AcDbLine
 10
29.999802
 20
7.500226
 30
0.0
 11
29.999802
 21
9.000237
 31
0.0
  0
LINE
  5
12b
100
AcDbEntity
  8
Layer_1
 62
7
100
AcDbLine
 10
29.999802
 20
9.000237
 30
0.0
 11
28.499793
 21
9.000294
 31
0.0
  0
LINE
  5
12c
100
AcDbEntity
  8
Layer_1
 62
7
100
AcDbLine
 10
28.499793
 20
9.000294
 30
0.0
 11
28.499776
 21
14.500240
 31
0.0
  0
LINE
  5
12d
100
AcDbEntity
  8
Layer_1
 62
7
100
AcDbLine
 10
28.499776
 20
14.500240
 30
0.0
 11
28.999775
 21
14.500240
 31
0.0
  0
LINE
  5
12e
100
AcDbEntity
  8
Layer_1
 62
7
100
AcDbLine
 10
28.999775
 20
14.500240
 30
0.0
 11
28.999880
 21
16.500090
 31
0.0
  0
LINE
  5
12f
100
AcDbEntity
  8
Layer_1
 62
7
100
AcDbLine
 10
28.999880
 20
16.500090
 30
0.0
 11
27.000070
 21
16.500090
 31
0.0
  0
LINE
  5
130
100
AcDbEntity
  8
Layer_1
 62
7
100
AcDbLine
 10
27.000070
 20
16.500090
 30
0.0
 11
26.999788
 21
14.500240
 31
0.0
  0
LINE
  5
131
100
AcDbEntity
  8
Layer_1
 62
7
100
AcDbLine
 10
26.999788
 20
14.500240
 30
0.0
 11
27.499787
 21
14.500240
 31
0.0
  0
LINE
  5
132
100
AcDbEntity
  8
Layer_1
 62
7
100
AcDbLine
 10
27.499787
 20
14.500240
 30
0.0
 11
27.499804
 21
9.000294
 31
0.0
  0
LINE
  5
133
100
AcDbEntity
  8
Layer_1
 62
7
100
AcDbLine
 10
27.499804
 20
9.000294
 30
0.0
 11
25.999804
 21
9.000294
 31
0.0
  0
LINE
  5
134
100
AcDbEntity
  8
Layer_1
 62
7
100
AcDbLine
 10
25.999804
 20
9.000294
 30
0.0
 11
25.999787
 21
14.500240
 31
0.0
  0
LINE
  5
135
100
AcDbEntity
  8
Layer_1
 62
7
100
AcDbLine
 10
25.999787
 20
14.500240
 30
0.0
 11
26.499789
 21
14.500240
 31
0.0
  0
LINE
  5
136
100
AcDbEntity
  8
Layer_1
 62
7
100
AcDbLine
 10
26.499789
 20
14.500240
 30
0.0
 11
26.499848
 21
16.500231
 31
0.0
  0
LINE
  5
137
100
AcDbEntity
  8
Layer_1
 62
7
100
AcDbLine
 10
26.499848
 20
16.500231
 30
0.0
 11
24.499830
 21
16.500090
 31
0.0
  0
LINE
  5
138
100
AcDbEntity
  8
Layer_1
 62
7
100
AcDbLine
 10
24.499830
 20
16.500090
 30
0.0
 11
24.499787
 21
14.500240
 31
0.0
  0
LINE
  5
139
100
AcDbEntity
  8
Layer_1
 62
7
100
AcDbLine
 10
24.499787
 20
14.500240
 30
0.0
 11
24.999786
 21
14.500240
 31
0.0
  0
LINE
  5
13a
100
AcDbEntity
  8
Layer_1
 62
7
100
AcDbLine
 10
24.999786
 20
14.500240
 30
0.0
 11
24.999803
 21
9.000294
 31
0.0
  0
LINE
  5
13b
100
AcDbEntity
  8
Layer_1
 62
7
100
AcDbLine
 10
24.999803
 20
9.000294
 30
0.0
 11
23.499803
 21
9.000294
 31
0.0
  0
LINE
  5
13c
100
AcDbEntity
  8
Layer_1
 62
7
100
AcDbLine
 10
23.499803
 20
9.000294
 30
0.0
 11
23.499786
 21
14.500240
 31
0.0
  0
LINE
  5
13d
100
AcDbEntity
  8
Layer_1
 62
7
100
AcDbLine
 10
23.499786
 20
14.500240
 30
0.0
 11
23.999788
 21
14.500240
 31
0.0
  0
LINE
  5
13e
100
AcDbEntity
  8
Layer_1
 62
7
100
AcDbLine
 10
23.999788
 20
14.500240
 30
0.0
 11
23.999876
 21
16.500090
 31
0.0
  0
LINE
  5
13f
100
AcDbEntity
  8
Layer_1
 62
7
100
AcDbLine
 10
23.999876
 20
16.500090
 30
0.0
 11
22.000066
 21
16.500090
 31
0.0
  0
LINE
  5
140
100
AcDbEntity
  8
Layer_1
 62
7
100
AcDbLine
 10
22.000066
 20
16.500090
 30
0.0
 11
21.999787
 21
14.500240
 31
0.0
  0
LINE
  5
141
100
AcDbEntity
  8
Layer_1
 62
7
100
AcDbLine
 10
21.999787
 20
14.500240
 30
0.0
 11
22.499788
 21
14.500240
 31
0.0
  0
LINE
  5
142
100
AcDbEntity
  8
Layer_1
 62
7
100
AcDbLine
 10
22.499788
 20
14.500240
 30
0.0
 11
22.499805
 21
9.000294
 31
0.0
  0
LINE
  5
143
100
AcDbEntity
  8
Layer_1
 62
7
100
AcDbLine
 10
22.499805
 20
9.000294
 30
0.0
 11
20.999806
 21
9.000294
 31
0.0
  0
LINE
  5
144
100
AcDbEntity
  8
Layer_1
 62
7
100
AcDbLine
 10
20.999806
 20
9.000294
 30
0.0
 11
20.999786
 21
14.500240
 31
0.0
  0
LINE
  5
145
100
AcDbEntity
  8
Layer_1
 62
7
100
AcDbLine
 10
20.999786
 20
14.500240
 30
0.0
 11
21.499788
 21
14.500240
 31
0.0
  0
LINE
  5
146
100
AcDbEntity
  8
Layer_1
 62
7
100
AcDbLine
 10
21.499788
 20
14.500240
 30
0.0
 11
21.500070
 21
16.500090
 31
0.0
  0
LINE
  5
147
100
AcDbEntity
  8
Layer_1
 62
7
100
AcDbLine
 10
21.500070
 20
16.500090
 30
0.0
 11
19.499710
 21
16.500090
 31
0.0
  0
LINE
  5
148
100
AcDbEntity
  8
Layer_1
 62
7
100
AcDbLine
 10
19.499710
 20
16.500090
 30
0.0
 11
19.499744
 21
14.500240
 31
0.0
  0
LINE
  5
149
100
AcDbEntity
  8
Layer_1
 62
7
100
AcDbLine
 10
19.499744
 20
14.500240
 30
0.0
 11
19.999740
 21
14.500240
 31
0.0
  0
LINE
  5
14a
100
AcDbEntity
  8
Layer_1
 62
7
100
AcDbLine
 10
19.999740
 20
14.500240
 30
0.0
 11
19.999757
 21
9.000294
 31
0.0
  0
LINE
  5
14b
100
AcDbEntity
  8
Layer_1
 62
7
100
AcDbLine
 10
19.999757
 20
9.000294
 30
0.0
 11
18.499760
 21
9.000294
 31
0.0
  0
LINE
  5
14c
100
AcDbEntity
  8
Layer_1
 62
7
100
AcDbLine
 10
18.499760
 20
9.000294
 30
0.0
 11
18.499743
 21
14.500240
 31
0.0
  0
LINE
  5
14d
100
AcDbEntity
  8
Layer_1
 62
7
100
AcDbLine
 10
18.499743
 20
14.500240
 30
0.0
 11
18.999742
 21
14.500240
 31
0.0
  0
LINE
  5
14e
100
AcDbEntity
  8
Layer_1
 62
7
100
AcDbLine
 10
18.999742
 20
14.500240
 30
0.0
 11
18.999756
 21
16.500090
 31
0.0
  0
LINE
  5
14f
100
AcDbEntity
  8
Layer_1
 62
7
100
AcDbLine
 10
18.999756
 20
16.500090
 30
0.0
 11
16.999949
 21
16.500090
 31
0.0
  0
LINE
  5
150
100
AcDbEntity
  8
Layer_1
 62
7
100
AcDbLine
 10
16.999949
 20
16.500090
 30
0.0
 11
16.999802
 21
14.500240
 31
0.0
  0
LINE
  5
151
100
AcDbEntity
  8
Layer_1
 62
7
100
AcDbLine
 10
16.999802
 20
14.500240
 30
0.0
 11
17.499801
 21
14.500240
 31
0.0
  0
LINE
  5
152
100
AcDbEntity
  8
Layer_1
 62
7
100
AcDbLine
 10
17.499801
 20
14.500240
 30
0.0
 11
17.499801
 21
12.000231
 31
0.0
  0
LINE
  5
153
100
AcDbEntity
  8
Layer_1
 62
7
100
AcDbLine
 10
17.499801
 20
12.000231
 30
0.0
 11
15.999801
 21
12.000231
 31
0.0
  0
LINE
  5
154
100
AcDbEntity
  8
Layer_1
 62
7
100
AcDbLine
 10
15.999801
 20
12.000231
 30
0.0
 11
15.999801
 21
11.500218
 31
0.0
  0
LINE
  5
155
100
AcDbEntity
  8
Layer_1
 62
7
100
AcDbLine
 10
15.999801
 20
11.500218
 30
0.0
 11
13.999803
 21
11.500218
 31
0.0
  0
LINE
  5
156
100
AcDbEntity
  8
Layer_1
 62
7
100
AcDbLine
 10
13.999803
 20
11.500218
 30
0.0
 11
13.999803
 21
12.000231
 31
0.0
  0
LINE
  5
157
100
AcDbEntity
  8
Layer_1
 62
7
100
AcDbLine
 10
13.999803
 20
12.000231
 30
0.0
 11
12.499803
 21
12.000231
 31
0.0
  0
LINE
  5
158
100
AcDbEntity
  8
Layer_1
 62
7
100
AcDbLine
 10
12.499803
 20
12.000231
 30
0.0
 11
12.499803
 21
14.500240
 31
0.0
  0
LINE
  5
159
100
AcDbEntity
  8
Layer_1
 62
7
100
AcDbLine
 10
12.499803
 20
14.500240
 30
0.0
 11
12.999802
 21
14.500240
 31
0.0
  0
LINE
  5
15a
100
AcDbEntity
  8
Layer_1
 62
7
100
AcDbLine
 10
12.999802
 20
14.500240
 30
0.0
 11
12.999875
 21
16.500160
 31
0.0
  0
LINE
  5
15b
100
AcDbEntity
  8
Layer_1
 62
7
100
AcDbLine
 10
12.999875
 20
16.500160
 30
0.0
 11
11.000065
 21
16.500160
 31
0.0
  0
LINE
  5
15c
100
AcDbEntity
  8
Layer_1
 62
7
100
AcDbLine
 10
11.000065
 20
16.500160
 30
0.0
 11
10.999800
 21
14.500240
 31
0.0
  0
LINE
  5
15d
100
AcDbEntity
  8
Layer_1
 62
7
100
AcDbLine
 10
10.999800
 20
14.500240
 30
0.0
 11
11.499802
 21
14.500240
 31
0.0
  0
LINE
  5
15e
100
AcDbEntity
  8
Layer_1
 62
7
100
AcDbLine
 10
11.499802
 20
14.500240
 30
0.0
 11
11.499819
 21
9.000294
 31
0.0
  0
LINE
  5
15f
100
AcDbEntity
  8
Layer_1
 62
7
100
AcDbLine
 10
11.499819
 20
9.000294
 30
0.0
 11
9.999819
 21
9.000294
 31
0.0
  0
LINE
  5
160
100
AcDbEntity
  8
Layer_1
 62
7
100
AcDbLine
 10
9.999819
 20
9.000294
 30
0.0
 11
9.999799
 21
14.500240
 31
0.0
  0
LINE
  5
161
100
AcDbEntity
  8
Layer_1
 62
7
100
AcDbLine
 10
9.999799
 20
14.500240
 30
0.0
 11
10.499801
 21
14.500240
 31
0.0
  0
LINE
  5
162
100
AcDbEntity
  8
Layer_1
 62
7
100
AcDbLine
 10
10.499801
 20
14.500240
 30
0.0
 11
10.500083
 21
16.500160
 31
0.0
  0
LINE
  5
163
100
AcDbEntity
  8
Layer_1
 62
7
100
AcDbLine
 10
10.500083
 20
16.500160
 30
0.0
 11
8.499721
 21
16.500160
 31
0.0
  0
LINE
  5
164
100
AcDbEntity
  8
Layer_1
 62
7
100
AcDbLine
 10
8.499721
 20
16.500160
 30
0.0
 11
8.499771
 21
14.500240
 31
0.0
  0
LINE
  5
165
100
AcDbEntity
  8
Layer_1
 62
7
100
AcDbLine
 10
8.499771
 20
14.500240
 30
0.0
 11
8.999770
 21
14.500240
 31
0.0
  0
LINE
  5
166
100
AcDbEntity
  8
Layer_1
 62
7
100
AcDbLine
 10
8.999770
 20
14.500240
 30
0.0
 11
8.999787
 21
9.000294
 31
0.0
  0
LINE
  5
167
100
AcDbEntity
  8
Layer_1
 62
7
100
AcDbLine
 10
8.999787
 20
9.000294
 30
0.0
 11
7.499787
 21
9.000294
 31
0.0
  0
LINE
  5
168
100
AcDbEntity
  8
Layer_1
 62
7
100
AcDbLine
 10
7.499787
 20
9.000294
 30
0.0
 11
7.499771
 21
14.500240
 31
0.0
  0
LINE
  5
169
100
AcDbEntity
  8
Layer_1
 62
7
100
AcDbLine
 10
7.499771
 20
14.500240
 30
0.0
 11
7.999770
 21
14.500240
 31
0.0
  0
LINE
  5
16a
100
AcDbEntity
  8
Layer_1
 62
7
100
AcDbLine
 10
7.999770
 20
14.500240
 30
0.0
 11
7.999770
 21
16.500160
 31
0.0
  0
LINE
  5
16b
100
AcDbEntity
  8
Layer_1
 62
7
100
AcDbLine
 10
7.999770
 20
16.500160
 30
0.0
 11
5.999960
 21
16.500160
 31
0.0
  0
LINE
  5
16c
100
AcDbEntity
  8
Layer_1
 62
7
100
AcDbLine
 10
5.999960
 20
16.500160
 30
0.0
 11
5.999805
 21
14.500240
 31
0.0
  0
LINE
  5
16d
100
AcDbEntity
  8
Layer_1
 62
7
100
AcDbLine
 10
5.999805
 20
14.500240
 30
0.0
 11
6.499770
 21
14.500240
 31
0.0
  0
LINE
  5
16e
100
AcDbEntity
  8
Layer_1
 62
7
100
AcDbLine
 10
6.499770
 20
14.500240
 30
0.0
 11
6.499787
 21
9.000294
 31
0.0
  0
LINE
  5
16f
100
AcDbEntity
  8
Layer_1
 62
7
100
AcDbLine
 10
6.499787
 20
9.000294
 30
0.0
 11
4.999787
 21
9.000294
 31
0.0
  0
LINE
  5
170
100
AcDbEntity
  8
Layer_1
 62
7
100
AcDbLine
 10
4.999787
 20
9.000294
 30
0.0
 11
4.999770
 21
14.500240
 31
0.0
  0
LINE
  5
171
100
AcDbEntity
  8
Layer_1
 62
7
100
AcDbLine
 10
4.999770
 20
14.500240
 30
0.0
 11
5.499769
 21
14.500240
 31
0.0
  0
LINE
  5
172
100
AcDbEntity
  8
Layer_1
 62
7
100
AcDbLine
 10
5.499769
 20
14.500240
 30
0.0
 11
5.500009
 21
16.500160
 31
0.0
  0
LINE
  5
173
100
AcDbEntity
  8
Layer_1
 62
7
100
AcDbLine
 10
5.500009
 20
16.500160
 30
0.0
 11
3.499649
 21
16.500160
 31
0.0
  0
LINE
  5
174
100
AcDbEntity
  8
Layer_1
 62
7
100
AcDbLine
 10
3.499649
 20
16.500160
 30
0.0
 11
3.499770
 21
14.500240
 31
0.0
  0
LINE
  5
175
100
AcDbEntity
  8
Layer_1
 62
7
100
AcDbLine
 10
3.499770
 20
14.500240
 30
0.0
 11
3.999769
 21
14.500240
 31
0.0
  0
LINE
  5
176
100
AcDbEntity
  8
Layer_1
 62
7
100
AcDbLine
 10
3.999769
 20
14.500240
 30
0.0
 11
3.999786
 21
9.000294
 31
0.0
  0
LINE
  5
177
100
AcDbEntity
  8
Layer_1
 62
7
100
AcDbLine
 10
3.999786
 20
9.000294
 30
0.0
 11
2.499786
 21
9.000294
 31
0.0
  0
LINE
  5
178
100
AcDbEntity
  8
Layer_1
 62
7
100
AcDbLine
 10
2.499786
 20
9.000294
 30
0.0
 11
2.499769
 21
14.500240
 31
0.0
  0
LINE
  5
179
100
AcDbEntity
  8
Layer_1
 62
7
100
AcDbLine
 10
2.499769
 20
14.500240
 30
0.0
 11
2.999768
 21
14.500240
 31
0.0
  0
LINE
  5
17a
100
AcDbEntity
  8
Layer_1
 62
7
100
AcDbLine
 10
2.999768
 20
14.500240
 30
0.0
 11
2.999695
 21
16.500160
 31
0.0
  0
LINE
  5
17b
100
AcDbEntity
  8
Layer_1
 62
7
100
AcDbLine
 10
2.999695
 20
16.500160
 30
0.0
 11
0.999888
 21
16.500160
 31
0.0
  0
LINE
  5
17c
100
AcDbEntity
  8
Layer_1
 62
7
100
AcDbLine
 10
0.999888
 20
16.500160
 30
0.0
 11
0.999769
 21
14.500240
 31
0.0
  0
LINE
  5
17d
100
AcDbEntity
  8
Layer_1
 62
7
100
AcDbLine
 10
0.999769
 20
14.500240
 30
0.0
 11
1.499771
 21
14.500240
 31
0.0
  0
LINE
  5
17e
100
AcDbEntity
  8
Layer_1
 62
7
100
AcDbLine
 10
1.499771
 20
14.500240
 30
0.0
 11
1.499788
 21
9.000294
 31
0.0
  0
LINE
  5
17f
100
AcDbEntity
  8
Layer_1
 62
7
100
AcDbLine
 10
1.499788
 20
9.000294
 30
0.0
 11
-0.000000
 21
9.000294
 31
0.0
  0
LINE
  5
180
100
AcDbEntity
  8
Layer_1
 62
7
100
AcDbLine
 10
-0.000000
 20
9.000294
 30
0.0
 11
-0.000000
 21
7.500311
 31
0.0
  0
LINE
  5
181
100
AcDbEntity
  8
Layer_1
 62
7
100
AcDbLine
 10
-0.000000
 20
7.500311
 30
0.0
 11
1.499794
 21
7.500508
 31
0.0
  0
LINE
  5
182
100
AcDbEntity
  8
Layer_1
 62
7
100
AcDbLine
 10
1.499794
 20
7.500508
 30
0.0
 11
1.499777
 21
2.000223
 31
0.0
  0
LINE
  5
183
100
AcDbEntity
  8
Layer_1
 62
7
100
AcDbLine
 10
1.499777
 20
2.000223
 30
0.0
 11
0.999775
 21
2.000223
 31
0.0
  0
LINE
  5
184
100
AcDbEntity
  8
Layer_1
 62
7
100
AcDbLine
 10
0.999775
 20
2.000223
 30
0.0
 11
0.999888
 21
0.000086
 31
0.0
  0
LINE
  5
185
100
AcDbEntity
  8
Layer_1
 62
7
100
AcDbLine
 10
0.999888
 20
0.000086
 30
0.0
 11
2.999695
 21
0.000086
 31
0.0
  0
LINE
  5
186
100
AcDbEntity
  8
Layer_1
 62
7
100
AcDbLine
 10
2.999695
 20
0.000086
 30
0.0
 11
2.999774
 21
2.000223
 31
0.0
  0
LINE
  5
187
100
AcDbEntity
  8
Layer_1
 62
7
100
AcDbLine
 10
2.999774
 20
2.000223
 30
0.0
 11
2.499775
 21
2.000223
 31
0.0
  0
LINE
  5
188
100
AcDbEntity
  8
Layer_1
 62
7
100
AcDbLine
 10
2.499775
 20
2.000223
 30
0.0
 11
2.499792
 21
7.500508
 31
0.0
  0
LINE
  5
189
100
AcDbEntity
  8
Layer_1
 62
7
100
AcDbLine
 10
2.499792
 20
7.500508
 30
0.0
 11
3.999792
 21
7.500508
 31
0.0
  0
LINE
  5
18a
100
AcDbEntity
  8
Layer_1
 62
7
100
AcDbLine
 10
3.999792
 20
7.500508
 30
0.0
 11
3.999775
 21
2.000223
 31
0.0
  0
LINE
  5
18b
100
AcDbEntity
  8
Layer_1
 62
7
100
AcDbLine
 10
3.999775
 20
2.000223
 30
0.0
 11
3.499776
 21
2.000223
 31
0.0
  0
LINE
  5
18c
100
AcDbEntity
  8
Layer_1
 62
7
100
AcDbLine
 10
3.499776
 20
2.000223
 30
0.0
 11
3.499649
 21
0.000086
 31
0.0
  0
LINE
  5
18d
100
AcDbEntity
  8
Layer_1
 62
7
100
AcDbLine
 10
3.499649
 20
0.000086
 30
0.0
 11
5.500009
 21
0.000086
 31
0.0
  0
LINE
  5
18e
100
AcDbEntity
  8
Layer_1
 62
7
100
AcDbLine
 10
5.500009
 20
0.000086
 30
0.0
 11
5.499775
 21
2.000223
 31
0.0
  0
LINE
  5
18f
100
AcDbEntity
  8
Layer_1
 62
7
100
AcDbLine
 10
5.499775
 20
2.000223
 30
0.0
 11
4.999776
 21
2.000223
 31
0.0
  0
LINE
  5
190
100
AcDbEntity
  8
Layer_1
 62
7
100
AcDbLine
 10
4.999776
 20
2.000223
 30
0.0
 11
4.999792
 21
7.500508
 31
0.0
  0
LINE
  5
191
100
AcDbEntity
  8
Layer_1
 62
7
100
AcDbLine
 10
4.999792
 20
7.500508
 30
0.0
 11
6.499792
 21
7.500508
 31
0.0
  0
LINE
  5
192
100
AcDbEntity
  8
Layer_1
 62
7
100
AcDbLine
 10
6.499792
 20
7.500508
 30
0.0
 11
6.499775
 21
2.000223
 31
0.0
  0
LINE
  5
193
100
AcDbEntity
  8
Layer_1
 62
7
100
AcDbLine
 10
6.499775
 20
2.000223
 30
0.0
 11
5.999776
 21
2.000223
 31
0.0
  0
LINE
  5
194
100
AcDbEntity
  8
Layer_1
 62
7
100
AcDbLine
 10
5.999776
 20
2.000223
 30
0.0
 11
5.999960
 21
0.000086
 31
0.0
  0
LINE
  5
195
100
AcDbEntity
  8
Layer_1
 62
7
100
AcDbLine
 10
5.999960
 20
0.000086
 30
0.0
 11
7.999770
 21
0.000086
 31
0.0
  0
LINE
  5
196
100
AcDbEntity
  8
Layer_1
 62
7
100
AcDbLine
 10
7.999770
 20
0.000086
 30
0.0
 11
7.999775
 21
2.000223
 31
0.0
  0
LINE
  5
197
100
AcDbEntity
  8
Layer_1
 62
7
100
AcDbLine
 10
7.999775
 20
2.000223
 30
0.0
 11
7.499776
 21
2.000223
 31
0.0
  0
LINE
  5
198
100
AcDbEntity
  8
Layer_1
 62
7
100
AcDbLine
 10
7.499776
 20
2.000223
 30
0.0
 11
7.499793
 21
7.500508
 31
0.0
  0
LINE
  5
199
100
AcDbEntity
  8
Layer_1
 62
7
100
AcDbLine
 10
7.499793
 20
7.500508
 30
0.0
 11
8.999793
 21
7.500508
 31
0.0
  0
LINE
  5
19a
100
AcDbEntity
  8
Layer_1
 62
7
100
AcDbLine
 10
8.999793
 20
7.500508
 30
0.0
 11
8.999776
 21
2.000223
 31
0.0
  0
LINE
  5
19b
100
AcDbEntity
  8
Layer_1
 62
7
100
AcDbLine
 10
8.999776
 20
2.000223
 30
0.0
 11
8.499777
 21
2.000223
 31
0.0
  0
LINE
  5
19c
100
AcDbEntity
  8
Layer_1
 62
7
100
AcDbLine
 10
8.499777
 20
2.000223
 30
0.0
 11
8.499721
 21
0.000086
 31
0.0
  0
LINE
  5
19d
100
AcDbEntity
  8
Layer_1
 62
7
100
AcDbLine
 10
8.499721
 20
0.000086
 30
0.0
 11
10.500083
 21
0.000086
 31
0.0
  0
LINE
  5
19e
100
AcDbEntity
  8
Layer_1
 62
7
100
AcDbLine
 10
10.500083
 20
0.000086
 30
0.0
 11
10.499801
 21
2.000223
 31
0.0
  0
LINE
  5
19f
100
AcDbEntity
  8
Layer_1
 62
7
100
AcDbLine
 10
10.499801
 20
2.000223
 30
0.0
 11
9.999802
 21
2.000223
 31
0.0
  0
LINE
  5
1a0
100
AcDbEntity
  8
Layer_1
 62
7
100
AcDbLine
 10
9.999802
 20
2.000223
 30
0.0
 11
9.999819
 21
7.500508
 31
0.0
  0
LINE
  5
1a1
100
AcDbEntity
  8
Layer_1
 62
7
100
AcDbLine
 10
9.999819
 20
7.500508
 30
0.0
 11
11.499819
 21
7.500508
 31
0.0
  0
LINE
  5
1a2
100
AcDbEntity
  8
Layer_1
 62
7
100
AcDbLine
 10
11.499819
 20
7.500508
 30
0.0
 11
11.499802
 21
2.000223
 31
0.0
  0
LINE
  5
1a3
100
AcDbEntity
  8
Layer_1
 62
7
100
AcDbLine
 10
11.499802
 20
2.000223
 30
0.0
 11
10.999800
 21
2.000223
 31
0.0
  0
LINE
  5
1a4
100
AcDbEntity
  8
Layer_1
 62
7
100
AcDbLine
 10
10.999800
 20
2.000223
 30
0.0
 11
11.000060
 21
0.000086
 31
0.0
  0
LINE
  5
1a5
100
AcDbEntity
  8
Layer_1
 62
7
100
AcDbLine
 10
11.000060
 20
0.000086
 30
0.0
 11
12.999870
 21
0.000086
 31
0.0
  0
LINE
  5
1a6
100
AcDbEntity
  8
Layer_1
 62
7
100
AcDbLine
 10
12.999870
 20
0.000086
 30
0.0
 11
12.999802
 21
2.000223
 31
0.0
  0
LINE
  5
1a7
100
AcDbEntity
  8
Layer_1
 62
7
100
AcDbLine
 10
12.999802
 20
2.000223
 30
0.0
 11
12.499803
 21
2.000223
 31
0.0
  0
LINE
  5
1a8
100
AcDbEntity
  8
Layer_1
 62
7
100
AcDbLine
 10
12.499803
 20
2.000223
 30
0.0
 11
12.499820
 21
7.500508
 31
0.0
  0
LINE
  5
1a9
100
AcDbEntity
  8
Layer_1
 62
7
100
AcDbLine
 10
12.499820
 20
7.500508
 30
0.0
 11
13.999817
 21
7.500508
 31
0.0
  0
LINE
  5
1aa
100
AcDbEntity
  8
Layer_1
 62
7
100
AcDbLine
 10
13.999817
 20
7.500508
 30
0.0
 11
13.999805
 21
9.000237
 31
0.0
  0
LINE
  5
1ab
100
AcDbEntity
  8
Layer_1
 62
7
100
AcDbLine
 10
13.999805
 20
9.000237
 30
0.0
 11
12.499803
 21
9.000237
 31
0.0
  0
LINE
  5
1ac
100
AcDbEntity
  8
Layer_1
 62
7
100
AcDbLine
 10
12.499803
 20
9.000237
 30
0.0
 11
12.499803
 21
10.000235
 31
0.0
  0
LINE
  5
1ad
100
AcDbEntity
  8
Layer_1
 62
7
100
AcDbLine
 10
12.499803
 20
10.000235
 30
0.0
 11
13.999805
 21
10.000235
 31
0.0
  0
LINE
  5
1ae
100
AcDbEntity
  8
Layer_1
 62
7
100
AcDbLine
 10
13.999805
 20
10.000235
 30
0.0
 11
13.999803
 21
10.500220
 31
0.0
  0
LINE
  5
1af
100
AcDbEntity
  8
Layer_1
 62
7
100
AcDbLine
 10
13.999803
 20
10.500220
 30
0.0
 11
15.999801
 21
10.500220
 31
0.0
  0
LINE
  5
1b0
100
AcDbEntity
  8
Layer_1
 62
7
100
AcDbLine
 10
15.999801
 20
10.500220
 30
0.0
 11
15.999804
 21
10.000235
 31
0.0
  0
LINE
  5
1b1
100
AcDbEntity
  8
Layer_1
 62
7
100
AcDbLine
 10
15.999804
 20
10.000235
 30
0.0
 11
17.499804
 21
10.000235
 31
0.0
  0
LINE
  5
1b2
100
AcDbEntity
  8
Layer_1
 62
7
100
AcDbLine
 10
17.499804
 20
10.000235
 30
0.0
 11
17.499804
 21
9.000237
 31
0.0
  0
LINE
  5
1b3
100
AcDbEntity
  8
Layer_1
 62
7
100
AcDbLine
 10
17.499804
 20
9.000237
 30
0.0
 11
15.999703
 21
9.000209
 31
0.0
  0
ENDSEC
  0
SECTION
  2
OBJECTS
  0
DICTIONARY
  5
C
330
0
100
AcDbDictionary
  3
ACAD_GROUP
350
D
  3
ACAD_MLINESTYLE
350
17
  0
DICTIONARY
  5
D
330
C
100
AcDbDictionary
  0
DICTIONARY
  5
1A
330
C
100
AcDbDictionary
  0
DICTIONARY
  5
17
330
C
100
AcDbDictionary
  3
STANDARD
350
18
  0
DICTIONARY
  5
19
330
C
100
AcDbDictionary
  0
ENDSEC
  0
EOF
