solid OpenSCAD_Model
  facet normal -1 0 0
    outer loop
      vertex 0 22 0
      vertex 0 12 4
      vertex 0 22 4
    endloop
  endfacet
  facet normal -1 0 0
    outer loop
      vertex 0 12 4
      vertex 0 8 4
      vertex 0 12 22
    endloop
  endfacet
  facet normal -1 0 0
    outer loop
      vertex 0 0 0
      vertex 0 12 4
      vertex 0 22 0
    endloop
  endfacet
  facet normal -1 -0 0
    outer loop
      vertex 0 12 4
      vertex 0 0 0
      vertex 0 8 4
    endloop
  endfacet
  facet normal -1 -0 0
    outer loop
      vertex 0 8 4
      vertex 0 0 0
      vertex 0 0 4
    endloop
  endfacet
  facet normal -1 -0 0
    outer loop
      vertex 0 12 22
      vertex 0 8 4
      vertex 0 8 22
    endloop
  endfacet
  facet normal 0 0 1
    outer loop
      vertex 0 0 4
      vertex 5.5 5.5 4
      vertex 0 8 4
    endloop
  endfacet
  facet normal 0 0 1
    outer loop
      vertex 5.5 5.5 4
      vertex 0 0 4
      vertex 8.5 0 4
    endloop
  endfacet
  facet normal -0 0 1
    outer loop
      vertex 16.5 5.5 4
      vertex 22 0 4
      vertex 22 8 4
    endloop
  endfacet
  facet normal 0 0 1
    outer loop
      vertex 22 0 4
      vertex 16.5 5.5 4
      vertex 13.5 0 4
    endloop
  endfacet
  facet normal 0 0 1
    outer loop
      vertex 10.3 22 4
      vertex 10 8.5 4
      vertex 10.3 4 4
    endloop
  endfacet
  facet normal 0 0 1
    outer loop
      vertex 10.3 22 4
      vertex 9 10 4
      vertex 10 8.5 4
    endloop
  endfacet
  facet normal 0 0 1
    outer loop
      vertex 10.3 22 4
      vertex 2.59961 12 4
      vertex 9 10 4
    endloop
  endfacet
  facet normal -0 0 1
    outer loop
      vertex 0 22 4
      vertex 2.59961 12 4
      vertex 10.3 22 4
    endloop
  endfacet
  facet normal 0 0 1
    outer loop
      vertex 2.59961 12 4
      vertex 0 22 4
      vertex 0 12 4
    endloop
  endfacet
  facet normal 0 0 1
    outer loop
      vertex 22 22 4
      vertex 19.4004 12 4
      vertex 22 12 4
    endloop
  endfacet
  facet normal 0 0 1
    outer loop
      vertex 19.4004 12 4
      vertex 13 10 4
      vertex 19.4004 10 4
    endloop
  endfacet
  facet normal -0 0 1
    outer loop
      vertex 11.7 22 4
      vertex 19.4004 12 4
      vertex 22 22 4
    endloop
  endfacet
  facet normal 0 0 1
    outer loop
      vertex 19.4004 12 4
      vertex 11.7 22 4
      vertex 13 10 4
    endloop
  endfacet
  facet normal 0 0 1
    outer loop
      vertex 11.7 22 4
      vertex 12 8.5 4
      vertex 13 10 4
    endloop
  endfacet
  facet normal 0 0 1
    outer loop
      vertex 11.7 4 4
      vertex 12 8.5 4
      vertex 11.7 22 4
    endloop
  endfacet
  facet normal 0 0 1
    outer loop
      vertex 12 8.5 4
      vertex 11.7 4 4
      vertex 12 2.7998 4
    endloop
  endfacet
  facet normal -0 0 1
    outer loop
      vertex 10.3 4 4
      vertex 12 2.7998 4
      vertex 11.7 4 4
    endloop
  endfacet
  facet normal 0 0 1
    outer loop
      vertex 10.3 4 4
      vertex 10 2.7998 4
      vertex 12 2.7998 4
    endloop
  endfacet
  facet normal 0 0 1
    outer loop
      vertex 10 2.7998 4
      vertex 10.3 4 4
      vertex 10 8.5 4
    endloop
  endfacet
  facet normal 0 0 1
    outer loop
      vertex 9 10 4
      vertex 2.59961 12 4
      vertex 2.59961 10 4
    endloop
  endfacet
  facet normal 1 0 0
    outer loop
      vertex 22 12 22
      vertex 22 8 22
      vertex 22 12 4
    endloop
  endfacet
  facet normal 1 -0 0
    outer loop
      vertex 22 12 4
      vertex 22 22 0
      vertex 22 22 4
    endloop
  endfacet
  facet normal 1 0 0
    outer loop
      vertex 22 8 4
      vertex 22 12 4
      vertex 22 8 22
    endloop
  endfacet
  facet normal 1 0 0
    outer loop
      vertex 22 0 0
      vertex 22 12 4
      vertex 22 8 4
    endloop
  endfacet
  facet normal 1 0 0
    outer loop
      vertex 22 0 0
      vertex 22 8 4
      vertex 22 0 4
    endloop
  endfacet
  facet normal 1 0 0
    outer loop
      vertex 22 12 4
      vertex 22 0 0
      vertex 22 22 0
    endloop
  endfacet
  facet normal 0 0 -1
    outer loop
      vertex 0 0 0
      vertex 22 22 0
      vertex 22 0 0
    endloop
  endfacet
  facet normal -0 0 -1
    outer loop
      vertex 22 22 0
      vertex 0 0 0
      vertex 0 22 0
    endloop
  endfacet
  facet normal 0 -1 0
    outer loop
      vertex 0 0 0
      vertex 8.5 0 4
      vertex 0 0 4
    endloop
  endfacet
  facet normal 0 -1 -0
    outer loop
      vertex 8.5 0 4
      vertex 0 0 0
      vertex 13.5 0 4
    endloop
  endfacet
  facet normal 0 -1 0
    outer loop
      vertex 22 0 0
      vertex 13.5 0 4
      vertex 0 0 0
    endloop
  endfacet
  facet normal 0 -1 0
    outer loop
      vertex 13.5 0 4
      vertex 22 0 0
      vertex 22 0 4
    endloop
  endfacet
  facet normal 0 -1 0
    outer loop
      vertex 8.5 0 4
      vertex 13.5 0 22
      vertex 8.5 0 22
    endloop
  endfacet
  facet normal 0 -1 -0
    outer loop
      vertex 13.5 0 22
      vertex 8.5 0 4
      vertex 13.5 0 4
    endloop
  endfacet
  facet normal 0 1 0
    outer loop
      vertex 22 22 4
      vertex 11.7 22 2.1
      vertex 11.7 22 4
    endloop
  endfacet
  facet normal 0 1 0
    outer loop
      vertex 11.7 22 2.1
      vertex 22 22 0
      vertex 10.3 22 2.1
    endloop
  endfacet
  facet normal 0 1 -0
    outer loop
      vertex 22 22 0
      vertex 11.7 22 2.1
      vertex 22 22 4
    endloop
  endfacet
  facet normal 0 1 -0
    outer loop
      vertex 10.3 22 2.1
      vertex 0 22 4
      vertex 10.3 22 4
    endloop
  endfacet
  facet normal 0 1 0
    outer loop
      vertex 10.3 22 2.1
      vertex 0 22 0
      vertex 0 22 4
    endloop
  endfacet
  facet normal 0 1 0
    outer loop
      vertex 0 22 0
      vertex 10.3 22 2.1
      vertex 22 22 0
    endloop
  endfacet
  facet normal 1 -0 0
    outer loop
      vertex 10.3 4 4
      vertex 10.3 22 2.1
      vertex 10.3 22 4
    endloop
  endfacet
  facet normal 1 0 0
    outer loop
      vertex 10.3 22 2.1
      vertex 10.3 4 4
      vertex 10.3 4 2.1
    endloop
  endfacet
  facet normal -1 0 0
    outer loop
      vertex 11.7 4 2.1
      vertex 11.7 22 4
      vertex 11.7 22 2.1
    endloop
  endfacet
  facet normal -1 -0 0
    outer loop
      vertex 11.7 22 4
      vertex 11.7 4 2.1
      vertex 11.7 4 4
    endloop
  endfacet
  facet normal -0 0 1
    outer loop
      vertex 10.3 22 2.1
      vertex 11.7 4 2.1
      vertex 11.7 22 2.1
    endloop
  endfacet
  facet normal 0 0 1
    outer loop
      vertex 11.7 4 2.1
      vertex 10.3 22 2.1
      vertex 10.3 4 2.1
    endloop
  endfacet
  facet normal 0 1 -0
    outer loop
      vertex 11.7 4 2.1
      vertex 10.3 4 4
      vertex 11.7 4 4
    endloop
  endfacet
  facet normal 0 1 0
    outer loop
      vertex 10.3 4 4
      vertex 11.7 4 2.1
      vertex 10.3 4 2.1
    endloop
  endfacet
  facet normal 0 0 1
    outer loop
      vertex 2.59961 12 22
      vertex 0 12 22
      vertex 2.59961 10 22
    endloop
  endfacet
  facet normal 0 0 1
    outer loop
      vertex 5.5 5.5 22
      vertex 10 8.5 22
      vertex 9 10 22
    endloop
  endfacet
  facet normal 0 0 1
    outer loop
      vertex 19.4004 10 22
      vertex 22 12 22
      vertex 19.4004 12 22
    endloop
  endfacet
  facet normal 0 0 1
    outer loop
      vertex 22 12 22
      vertex 19.4004 10 22
      vertex 22 8 22
    endloop
  endfacet
  facet normal 0 0 1
    outer loop
      vertex 19.4004 10 22
      vertex 16.5 5.5 22
      vertex 22 8 22
    endloop
  endfacet
  facet normal -0 0 1
    outer loop
      vertex 13 10 22
      vertex 16.5 5.5 22
      vertex 19.4004 10 22
    endloop
  endfacet
  facet normal -0 0 1
    outer loop
      vertex 12 8.5 22
      vertex 16.5 5.5 22
      vertex 13 10 22
    endloop
  endfacet
  facet normal 0 0 1
    outer loop
      vertex 16.5 5.5 22
      vertex 12 8.5 22
      vertex 12 2.7998 22
    endloop
  endfacet
  facet normal 0 0 1
    outer loop
      vertex 16.5 5.5 22
      vertex 12 2.7998 22
      vertex 13.5 0 22
    endloop
  endfacet
  facet normal -0 0 1
    outer loop
      vertex 10 2.7998 22
      vertex 13.5 0 22
      vertex 12 2.7998 22
    endloop
  endfacet
  facet normal 0 0 1
    outer loop
      vertex 10 2.7998 22
      vertex 8.5 0 22
      vertex 13.5 0 22
    endloop
  endfacet
  facet normal 0 0 1
    outer loop
      vertex 10 8.5 22
      vertex 5.5 5.5 22
      vertex 10 2.7998 22
    endloop
  endfacet
  facet normal 0 0 1
    outer loop
      vertex 10 2.7998 22
      vertex 5.5 5.5 22
      vertex 8.5 0 22
    endloop
  endfacet
  facet normal -0 0 1
    outer loop
      vertex 2.59961 10 22
      vertex 5.5 5.5 22
      vertex 9 10 22
    endloop
  endfacet
  facet normal 0 0 1
    outer loop
      vertex 0 8 22
      vertex 2.59961 10 22
      vertex 0 12 22
    endloop
  endfacet
  facet normal 0 0 1
    outer loop
      vertex 2.59961 10 22
      vertex 0 8 22
      vertex 5.5 5.5 22
    endloop
  endfacet
  facet normal 0.413803 -0.910366 0
    outer loop
      vertex 16.5 5.5 4
      vertex 22 8 22
      vertex 16.5 5.5 22
    endloop
  endfacet
  facet normal 0.413803 -0.910366 0
    outer loop
      vertex 22 8 22
      vertex 16.5 5.5 4
      vertex 22 8 4
    endloop
  endfacet
  facet normal 0 1 -0
    outer loop
      vertex 22 12 4
      vertex 19.4004 12 22
      vertex 22 12 22
    endloop
  endfacet
  facet normal 0 1 0
    outer loop
      vertex 19.4004 12 22
      vertex 22 12 4
      vertex 19.4004 12 4
    endloop
  endfacet
  facet normal -1 0 0
    outer loop
      vertex 19.4004 10 4
      vertex 19.4004 12 22
      vertex 19.4004 12 4
    endloop
  endfacet
  facet normal -1 -0 0
    outer loop
      vertex 19.4004 12 22
      vertex 19.4004 10 4
      vertex 19.4004 10 22
    endloop
  endfacet
  facet normal 0 1 -0
    outer loop
      vertex 19.4004 10 4
      vertex 13 10 22
      vertex 19.4004 10 22
    endloop
  endfacet
  facet normal 0 1 0
    outer loop
      vertex 13 10 22
      vertex 19.4004 10 4
      vertex 13 10 4
    endloop
  endfacet
  facet normal -0.83205 0.5547 0
    outer loop
      vertex 12 8.5 4
      vertex 13 10 22
      vertex 13 10 4
    endloop
  endfacet
  facet normal -0.83205 0.5547 0
    outer loop
      vertex 13 10 22
      vertex 12 8.5 4
      vertex 12 8.5 22
    endloop
  endfacet
  facet normal -1 0 0
    outer loop
      vertex 12 2.7998 4
      vertex 12 8.5 22
      vertex 12 8.5 4
    endloop
  endfacet
  facet normal -1 -0 0
    outer loop
      vertex 12 8.5 22
      vertex 12 2.7998 4
      vertex 12 2.7998 22
    endloop
  endfacet
  facet normal 0 1 -0
    outer loop
      vertex 12 2.7998 4
      vertex 10 2.7998 22
      vertex 12 2.7998 22
    endloop
  endfacet
  facet normal 0 1 0
    outer loop
      vertex 10 2.7998 22
      vertex 12 2.7998 4
      vertex 10 2.7998 4
    endloop
  endfacet
  facet normal 1 -0 0
    outer loop
      vertex 10 2.7998 22
      vertex 10 8.5 4
      vertex 10 8.5 22
    endloop
  endfacet
  facet normal 1 0 0
    outer loop
      vertex 10 8.5 4
      vertex 10 2.7998 22
      vertex 10 2.7998 4
    endloop
  endfacet
  facet normal 0.83205 0.5547 0
    outer loop
      vertex 10 8.5 22
      vertex 9 10 4
      vertex 9 10 22
    endloop
  endfacet
  facet normal 0.83205 0.5547 0
    outer loop
      vertex 9 10 4
      vertex 10 8.5 22
      vertex 10 8.5 4
    endloop
  endfacet
  facet normal 0 1 -0
    outer loop
      vertex 9 10 4
      vertex 2.59961 10 22
      vertex 9 10 22
    endloop
  endfacet
  facet normal 0 1 0
    outer loop
      vertex 2.59961 10 22
      vertex 9 10 4
      vertex 2.59961 10 4
    endloop
  endfacet
  facet normal 1 -0 0
    outer loop
      vertex 2.59961 10 22
      vertex 2.59961 12 4
      vertex 2.59961 12 22
    endloop
  endfacet
  facet normal 1 0 0
    outer loop
      vertex 2.59961 12 4
      vertex 2.59961 10 22
      vertex 2.59961 10 4
    endloop
  endfacet
  facet normal 0 1 -0
    outer loop
      vertex 2.59961 12 4
      vertex 0 12 22
      vertex 2.59961 12 22
    endloop
  endfacet
  facet normal 0 1 0
    outer loop
      vertex 0 12 22
      vertex 2.59961 12 4
      vertex 0 12 4
    endloop
  endfacet
  facet normal -0.413803 -0.910366 0
    outer loop
      vertex 0 8 4
      vertex 5.5 5.5 22
      vertex 0 8 22
    endloop
  endfacet
  facet normal -0.413803 -0.910366 -0
    outer loop
      vertex 5.5 5.5 22
      vertex 0 8 4
      vertex 5.5 5.5 4
    endloop
  endfacet
  facet normal -0.877896 -0.478852 0
    outer loop
      vertex 8.5 0 4
      vertex 5.5 5.5 22
      vertex 5.5 5.5 4
    endloop
  endfacet
  facet normal -0.877896 -0.478852 0
    outer loop
      vertex 5.5 5.5 22
      vertex 8.5 0 4
      vertex 8.5 0 22
    endloop
  endfacet
  facet normal 0.877896 -0.478852 0
    outer loop
      vertex 13.5 0 22
      vertex 16.5 5.5 4
      vertex 16.5 5.5 22
    endloop
  endfacet
  facet normal 0.877896 -0.478852 0
    outer loop
      vertex 16.5 5.5 4
      vertex 13.5 0 22
      vertex 13.5 0 4
    endloop
  endfacet
endsolid OpenSCAD_Model
