  0
SECTION
  2
HEADER
  9
$ACADVER
  1
AC1014
  9
$HANDSEED
  5
FFFF
  9
$MEASUREMENT
 70
     1
  0
ENDSEC
  0
SECTION
  2
TABLES
  0
TABLE
  2
VPORT
  5
8
330
0
100
AcDbSymbolTable
 70
     4
  0
VPORT
  5
2E
330
8
100
AcDbSymbolTableRecord
100
AcDbViewportTableRecord
  2
*ACTIVE
 70
     0
 10
0.0
 20
0.0
 11
1.0
 21
1.0
 12
210.0
 22
148.5
 13
0.0
 23
0.0
 14
10.0
 24
10.0
 15
10.0
 25
10.0
 16
0.0
 26
0.0
 36
1.0
 17
0.0
 27
0.0
 37
0.0
 40
341.0
 41
1.24
 42
50.0
 43
0.0
 44
0.0
 50
0.0
 51
0.0
 71
     0
 72
   100
 73
     1
 74
     3
 75
     0
 76
     0
 77
     0
 78
     0
  0
ENDTAB
  0
TABLE
  2
LTYPE
  5
5
330
0
100
AcDbSymbolTable
 70
     1
  0
LTYPE
  5
14
330
5
100
AcDbSymbolTableRecord
100
AcDbLinetypeTableRecord
  2
BYBLOCK
 70
     0
  3

 72
    65
 73
     0
 40
0.0
  0
LTYPE
  5
15
330
5
100
AcDbSymbolTableRecord
100
AcDbLinetypeTableRecord
  2
BYLAYER
 70
     0
  3

 72
    65
 73
     0
 40
0.0
  0
LTYPE
  5
16
330
5
100
AcDbSymbolTableRecord
100
AcDbLinetypeTableRecord
  2
CONTINUOUS
 70
     0
  3
Solid line
 72
    65
 73
     0
 40
0.0
  0
ENDTAB
  0
TABLE
  2
LAYER
  5
2
100
AcDbSymbolTable
 70
2
  0
LAYER
  5
50
100
AcDbSymbolTableRecord
100
AcDbLayerTableRecord
  2
0
 70
0
  6
CONTINUOUS
  0
LAYER
  5
51
100
AcDbSymbolTableRecord
100
AcDbLayerTableRecord
  2
Layer_1
 70
0
  6
CONTINUOUS
  0
ENDTAB
  0
TABLE
  2
STYLE
  5
3
330
0
100
AcDbSymbolTable
 70
     1
  0
STYLE
  5
11
330
3
100
AcDbSymbolTableRecord
100
AcDbTextStyleTableRecord
  2
STANDARD
 70
     0
 40
0.0
 41
1.0
 50
0.0
 71
     0
 42
2.5
  3
txt
  4

  0
ENDTAB
  0
TABLE
  2
VIEW
  5
6
330
0
100
AcDbSymbolTable
 70
     0
  0
ENDTAB
  0
TABLE
  2
UCS
  5
7
330
0
100
AcDbSymbolTable
 70
     0
  0
ENDTAB
  0
TABLE
  2
APPID
  5
9
330
0
100
AcDbSymbolTable
 70
     2
  0
APPID
  5
12
330
9
100
AcDbSymbolTableRecord
100
AcDbRegAppTableRecord
  2
ACAD
 70
     0
  0
ENDTAB
  0
TABLE
  2
DIMSTYLE
  5
A
330
0
100
AcDbSymbolTable
 70
     1
  0
DIMSTYLE
105
27
330
A
100
AcDbSymbolTableRecord
100
AcDbDimStyleTableRecord
  2
ISO-25
 70
     0
  3

  4

  5

  6

  7

 40
1.0
 41
2.5
 42
0.625
 43
3.75
 44
1.25
 45
0.0
 46
0.0
 47
0.0
 48
0.0
140
2.5
141
2.5
142
0.0
143
0.03937007874016
144
1.0
145
0.0
146
1.0
147
0.625
 71
     0
 72
     0
 73
     0
 74
     0
 75
     0
 76
     0
 77
     1
 78
     8
170
     0
171
     3
172
     1
173
     0
174
     0
175
     0
176
     0
177
     0
178
     0
270
     2
271
     2
272
     2
273
     2
274
     3
340
11
275
     0
280
     0
281
     0
282
     0
283
     0
284
     8
285
     0
286
     0
287
     3
288
     0
  0
ENDTAB
  0
TABLE
  2
BLOCK_RECORD
  5
1
330
0
100
AcDbSymbolTable
 70
     1
  0
BLOCK_RECORD
  5
1F
330
1
100
AcDbSymbolTableRecord
100
AcDbBlockTableRecord
  2
*MODEL_SPACE
  0
BLOCK_RECORD
  5
1B
330
1
100
AcDbSymbolTableRecord
100
AcDbBlockTableRecord
  2
*PAPER_SPACE
  0
ENDTAB
  0
ENDSEC
  0
SECTION
  2
BLOCKS
  0
BLOCK
  5
20
330
1F
100
AcDbEntity
  8
0
100
AcDbBlockBegin
  2
*MODEL_SPACE
 70
     0
 10
0.0
 20
0.0
 30
0.0
  3
*MODEL_SPACE
  1

  0
ENDBLK
  5
21
330
1F
100
AcDbEntity
  8
0
100
AcDbBlockEnd
  0
BLOCK
  5
1C
330
1B
100
AcDbEntity
 67
     1
  8
0
100
AcDbBlockBegin
  2
*PAPER_SPACE
  1

  0
ENDBLK
  5
1D
330
1B
100
AcDbEntity
 67
     1
  8
0
100
AcDbBlockEnd
  0
ENDSEC
  0
SECTION
  2
ENTITIES
  0
LINE
  5
100
100
AcDbEntity
  8
Layer_1
 62
7
100
AcDbLine
 10
-50.834536
 20
-17.999991
 30
0.0
 11
-25.417268
 21
-17.999991
 31
0.0
  0
LINE
  5
101
100
AcDbEntity
  8
Layer_1
 62
7
100
AcDbLine
 10
-25.417268
 20
-17.999991
 30
0.0
 11
0.000000
 21
-17.999991
 31
0.0
  0
LINE
  5
102
100
AcDbEntity
  8
Layer_1
 62
7
100
AcDbLine
 10
0.000000
 20
-17.999991
 30
0.0
 11
25.417268
 21
-17.999991
 31
0.0
  0
LINE
  5
103
100
AcDbEntity
  8
Layer_1
 62
7
100
AcDbLine
 10
25.417268
 20
-17.999991
 30
0.0
 11
50.834536
 21
-17.999991
 31
0.0
  0
LINE
  5
104
100
AcDbEntity
  8
Layer_1
 62
7
100
AcDbLine
 10
50.834536
 20
-17.999991
 30
0.0
 11
52.068970
 21
-17.752002
 31
0.0
  0
LINE
  5
105
100
AcDbEntity
  8
Layer_1
 62
7
100
AcDbLine
 10
52.068970
 20
-17.752002
 30
0.0
 11
53.074895
 21
-17.074895
 31
0.0
  0
LINE
  5
106
100
AcDbEntity
  8
Layer_1
 62
7
100
AcDbLine
 10
53.074895
 20
-17.074895
 30
0.0
 11
53.752008
 21
-16.068970
 31
0.0
  0
LINE
  5
107
100
AcDbEntity
  8
Layer_1
 62
7
100
AcDbLine
 10
53.752008
 20
-16.068970
 30
0.0
 11
54.000002
 21
-14.834530
 31
0.0
  0
LINE
  5
108
100
AcDbEntity
  8
Layer_1
 62
7
100
AcDbLine
 10
54.000002
 20
-14.834530
 30
0.0
 11
54.000002
 21
-8.167256
 31
0.0
  0
LINE
  5
109
100
AcDbEntity
  8
Layer_1
 62
7
100
AcDbLine
 10
54.000002
 20
-8.167256
 30
0.0
 11
54.000002
 21
-1.500010
 31
0.0
  0
LINE
  5
10a
100
AcDbEntity
  8
Layer_1
 62
7
100
AcDbLine
 10
54.000002
 20
-1.500010
 30
0.0
 11
54.000002
 21
5.167264
 31
0.0
  0
LINE
  5
10b
100
AcDbEntity
  8
Layer_1
 62
7
100
AcDbLine
 10
54.000002
 20
5.167264
 30
0.0
 11
54.000002
 21
11.834539
 31
0.0
  0
LINE
  5
10c
100
AcDbEntity
  8
Layer_1
 62
7
100
AcDbLine
 10
54.000002
 20
11.834539
 30
0.0
 11
53.752008
 21
13.068979
 31
0.0
  0
LINE
  5
10d
100
AcDbEntity
  8
Layer_1
 62
7
100
AcDbLine
 10
53.752008
 20
13.068979
 30
0.0
 11
53.074895
 21
14.074903
 31
0.0
  0
LINE
  5
10e
100
AcDbEntity
  8
Layer_1
 62
7
100
AcDbLine
 10
53.074895
 20
14.074903
 30
0.0
 11
52.068970
 21
14.752011
 31
0.0
  0
LINE
  5
10f
100
AcDbEntity
  8
Layer_1
 62
7
100
AcDbLine
 10
52.068970
 20
14.752011
 30
0.0
 11
50.834536
 21
15.000008
 31
0.0
  0
LINE
  5
110
100
AcDbEntity
  8
Layer_1
 62
7
100
AcDbLine
 10
50.834536
 20
15.000008
 30
0.0
 11
25.417268
 21
15.000008
 31
0.0
  0
LINE
  5
111
100
AcDbEntity
  8
Layer_1
 62
7
100
AcDbLine
 10
25.417268
 20
15.000008
 30
0.0
 11
0.000000
 21
15.000008
 31
0.0
  0
LINE
  5
112
100
AcDbEntity
  8
Layer_1
 62
7
100
AcDbLine
 10
0.000000
 20
15.000008
 30
0.0
 11
-25.417268
 21
15.000008
 31
0.0
  0
LINE
  5
113
100
AcDbEntity
  8
Layer_1
 62
7
100
AcDbLine
 10
-25.417268
 20
15.000008
 30
0.0
 11
-50.834536
 21
15.000008
 31
0.0
  0
LINE
  5
114
100
AcDbEntity
  8
Layer_1
 62
7
100
AcDbLine
 10
-50.834536
 20
15.000008
 30
0.0
 11
-52.068970
 21
14.752011
 31
0.0
  0
LINE
  5
115
100
AcDbEntity
  8
Layer_1
 62
7
100
AcDbLine
 10
-52.068970
 20
14.752011
 30
0.0
 11
-53.074895
 21
14.074903
 31
0.0
  0
LINE
  5
116
100
AcDbEntity
  8
Layer_1
 62
7
100
AcDbLine
 10
-53.074895
 20
14.074903
 30
0.0
 11
-53.752008
 21
13.068979
 31
0.0
  0
LINE
  5
117
100
AcDbEntity
  8
Layer_1
 62
7
100
AcDbLine
 10
-53.752008
 20
13.068979
 30
0.0
 11
-54.000002
 21
11.834539
 31
0.0
  0
LINE
  5
118
100
AcDbEntity
  8
Layer_1
 62
7
100
AcDbLine
 10
-54.000002
 20
11.834539
 30
0.0
 11
-54.000002
 21
5.167264
 31
0.0
  0
LINE
  5
119
100
AcDbEntity
  8
Layer_1
 62
7
100
AcDbLine
 10
-54.000002
 20
5.167264
 30
0.0
 11
-54.000002
 21
-1.500010
 31
0.0
  0
LINE
  5
11a
100
AcDbEntity
  8
Layer_1
 62
7
100
AcDbLine
 10
-54.000002
 20
-1.500010
 30
0.0
 11
-54.000002
 21
-8.167256
 31
0.0
  0
LINE
  5
11b
100
AcDbEntity
  8
Layer_1
 62
7
100
AcDbLine
 10
-54.000002
 20
-8.167256
 30
0.0
 11
-54.000002
 21
-14.834530
 31
0.0
  0
LINE
  5
11c
100
AcDbEntity
  8
Layer_1
 62
7
100
AcDbLine
 10
-54.000002
 20
-14.834530
 30
0.0
 11
-53.752008
 21
-16.068970
 31
0.0
  0
LINE
  5
11d
100
AcDbEntity
  8
Layer_1
 62
7
100
AcDbLine
 10
-53.752008
 20
-16.068970
 30
0.0
 11
-53.074895
 21
-17.074895
 31
0.0
  0
LINE
  5
11e
100
AcDbEntity
  8
Layer_1
 62
7
100
AcDbLine
 10
-53.074895
 20
-17.074895
 30
0.0
 11
-52.068970
 21
-17.752002
 31
0.0
  0
LINE
  5
11f
100
AcDbEntity
  8
Layer_1
 62
7
100
AcDbLine
 10
-52.068970
 20
-17.752002
 30
0.0
 11
-50.834536
 21
-17.999991
 31
0.0
  0
LINE
  5
120
100
AcDbEntity
  8
Layer_1
 62
7
100
AcDbLine
 10
-48.500012
 20
-13.999996
 30
0.0
 11
-48.617891
 21
-14.583863
 31
0.0
  0
LINE
  5
121
100
AcDbEntity
  8
Layer_1
 62
7
100
AcDbLine
 10
-48.617891
 20
-14.583863
 30
0.0
 11
-48.939353
 21
-15.060655
 31
0.0
  0
LINE
  5
122
100
AcDbEntity
  8
Layer_1
 62
7
100
AcDbLine
 10
-48.939353
 20
-15.060655
 30
0.0
 11
-49.416145
 21
-15.382117
 31
0.0
  0
LINE
  5
123
100
AcDbEntity
  8
Layer_1
 62
7
100
AcDbLine
 10
-49.416145
 20
-15.382117
 30
0.0
 11
-50.000012
 21
-15.499996
 31
0.0
  0
LINE
  5
124
100
AcDbEntity
  8
Layer_1
 62
7
100
AcDbLine
 10
-50.000012
 20
-15.499996
 30
0.0
 11
-50.583879
 21
-15.382117
 31
0.0
  0
LINE
  5
125
100
AcDbEntity
  8
Layer_1
 62
7
100
AcDbLine
 10
-50.583879
 20
-15.382117
 30
0.0
 11
-51.060671
 21
-15.060655
 31
0.0
  0
LINE
  5
126
100
AcDbEntity
  8
Layer_1
 62
7
100
AcDbLine
 10
-51.060671
 20
-15.060655
 30
0.0
 11
-51.382133
 21
-14.583863
 31
0.0
  0
LINE
  5
127
100
AcDbEntity
  8
Layer_1
 62
7
100
AcDbLine
 10
-51.382133
 20
-14.583863
 30
0.0
 11
-51.500012
 21
-13.999996
 31
0.0
  0
LINE
  5
128
100
AcDbEntity
  8
Layer_1
 62
7
100
AcDbLine
 10
-51.500012
 20
-13.999996
 30
0.0
 11
-51.382133
 21
-13.416126
 31
0.0
  0
LINE
  5
129
100
AcDbEntity
  8
Layer_1
 62
7
100
AcDbLine
 10
-51.382133
 20
-13.416126
 30
0.0
 11
-51.060671
 21
-12.939334
 31
0.0
  0
LINE
  5
12a
100
AcDbEntity
  8
Layer_1
 62
7
100
AcDbLine
 10
-51.060671
 20
-12.939334
 30
0.0
 11
-50.583879
 21
-12.617872
 31
0.0
  0
LINE
  5
12b
100
AcDbEntity
  8
Layer_1
 62
7
100
AcDbLine
 10
-50.583879
 20
-12.617872
 30
0.0
 11
-50.000012
 21
-12.499996
 31
0.0
  0
LINE
  5
12c
100
AcDbEntity
  8
Layer_1
 62
7
100
AcDbLine
 10
-50.000012
 20
-12.499996
 30
0.0
 11
-49.416145
 21
-12.617872
 31
0.0
  0
LINE
  5
12d
100
AcDbEntity
  8
Layer_1
 62
7
100
AcDbLine
 10
-49.416145
 20
-12.617872
 30
0.0
 11
-48.939353
 21
-12.939334
 31
0.0
  0
LINE
  5
12e
100
AcDbEntity
  8
Layer_1
 62
7
100
AcDbLine
 10
-48.939353
 20
-12.939334
 30
0.0
 11
-48.617891
 21
-13.416126
 31
0.0
  0
LINE
  5
12f
100
AcDbEntity
  8
Layer_1
 62
7
100
AcDbLine
 10
-48.617891
 20
-13.416126
 30
0.0
 11
-48.500012
 21
-13.999996
 31
0.0
  0
LINE
  5
130
100
AcDbEntity
  8
Layer_1
 62
7
100
AcDbLine
 10
-36.489177
 20
-5.920044
 30
0.0
 11
-36.442193
 21
-6.513838
 31
0.0
  0
LINE
  5
131
100
AcDbEntity
  8
Layer_1
 62
7
100
AcDbLine
 10
-36.442193
 20
-6.513838
 30
0.0
 11
-36.180249
 21
-7.025750
 31
0.0
  0
LINE
  5
132
100
AcDbEntity
  8
Layer_1
 62
7
100
AcDbLine
 10
-36.180249
 20
-7.025750
 30
0.0
 11
-35.745464
 21
-7.402089
 31
0.0
  0
LINE
  5
133
100
AcDbEntity
  8
Layer_1
 62
7
100
AcDbLine
 10
-35.745464
 20
-7.402089
 30
0.0
 11
-35.179953
 21
-7.589156
 31
0.0
  0
LINE
  5
134
100
AcDbEntity
  8
Layer_1
 62
7
100
AcDbLine
 10
-35.179953
 20
-7.589156
 30
0.0
 11
-34.586161
 21
-7.542173
 31
0.0
  0
LINE
  5
135
100
AcDbEntity
  8
Layer_1
 62
7
100
AcDbLine
 10
-34.586161
 20
-7.542173
 30
0.0
 11
-34.074249
 21
-7.280230
 31
0.0
  0
LINE
  5
136
100
AcDbEntity
  8
Layer_1
 62
7
100
AcDbLine
 10
-34.074249
 20
-7.280230
 30
0.0
 11
-33.697910
 21
-6.845445
 31
0.0
  0
LINE
  5
137
100
AcDbEntity
  8
Layer_1
 62
7
100
AcDbLine
 10
-33.697910
 20
-6.845445
 30
0.0
 11
-33.510842
 21
-6.279932
 31
0.0
  0
LINE
  5
138
100
AcDbEntity
  8
Layer_1
 62
7
100
AcDbLine
 10
-33.510842
 20
-6.279932
 30
0.0
 11
-33.557825
 21
-5.686141
 31
0.0
  0
LINE
  5
139
100
AcDbEntity
  8
Layer_1
 62
7
100
AcDbLine
 10
-33.557825
 20
-5.686141
 30
0.0
 11
-33.819769
 21
-5.174229
 31
0.0
  0
LINE
  5
13a
100
AcDbEntity
  8
Layer_1
 62
7
100
AcDbLine
 10
-33.819769
 20
-5.174229
 30
0.0
 11
-34.254555
 21
-4.797890
 31
0.0
  0
LINE
  5
13b
100
AcDbEntity
  8
Layer_1
 62
7
100
AcDbLine
 10
-34.254555
 20
-4.797890
 30
0.0
 11
-34.820065
 21
-4.610821
 31
0.0
  0
LINE
  5
13c
100
AcDbEntity
  8
Layer_1
 62
7
100
AcDbLine
 10
-34.820065
 20
-4.610821
 30
0.0
 11
-35.413857
 21
-4.657806
 31
0.0
  0
LINE
  5
13d
100
AcDbEntity
  8
Layer_1
 62
7
100
AcDbLine
 10
-35.413857
 20
-4.657806
 30
0.0
 11
-35.925770
 21
-4.919749
 31
0.0
  0
LINE
  5
13e
100
AcDbEntity
  8
Layer_1
 62
7
100
AcDbLine
 10
-35.925770
 20
-4.919749
 30
0.0
 11
-36.302108
 21
-5.354534
 31
0.0
  0
LINE
  5
13f
100
AcDbEntity
  8
Layer_1
 62
7
100
AcDbLine
 10
-36.302108
 20
-5.354534
 30
0.0
 11
-36.489177
 21
-5.920044
 31
0.0
  0
LINE
  5
140
100
AcDbEntity
  8
Layer_1
 62
7
100
AcDbLine
 10
33.510823
 20
-5.920055
 30
0.0
 11
33.557808
 21
-6.513846
 31
0.0
  0
LINE
  5
141
100
AcDbEntity
  8
Layer_1
 62
7
100
AcDbLine
 10
33.557808
 20
-6.513846
 30
0.0
 11
33.819752
 21
-7.025758
 31
0.0
  0
LINE
  5
142
100
AcDbEntity
  8
Layer_1
 62
7
100
AcDbLine
 10
33.819752
 20
-7.025758
 30
0.0
 11
34.254537
 21
-7.402097
 31
0.0
  0
LINE
  5
143
100
AcDbEntity
  8
Layer_1
 62
7
100
AcDbLine
 10
34.254537
 20
-7.402097
 30
0.0
 11
34.820046
 21
-7.589166
 31
0.0
  0
LINE
  5
144
100
AcDbEntity
  8
Layer_1
 62
7
100
AcDbLine
 10
34.820046
 20
-7.589166
 30
0.0
 11
35.413838
 21
-7.542181
 31
0.0
  0
LINE
  5
145
100
AcDbEntity
  8
Layer_1
 62
7
100
AcDbLine
 10
35.413838
 20
-7.542181
 30
0.0
 11
35.925750
 21
-7.280238
 31
0.0
  0
LINE
  5
146
100
AcDbEntity
  8
Layer_1
 62
7
100
AcDbLine
 10
35.925750
 20
-7.280238
 30
0.0
 11
36.302088
 21
-6.845452
 31
0.0
  0
LINE
  5
147
100
AcDbEntity
  8
Layer_1
 62
7
100
AcDbLine
 10
36.302088
 20
-6.845452
 30
0.0
 11
36.489158
 21
-6.279943
 31
0.0
  0
LINE
  5
148
100
AcDbEntity
  8
Layer_1
 62
7
100
AcDbLine
 10
36.489158
 20
-6.279943
 30
0.0
 11
36.442173
 21
-5.686151
 31
0.0
  0
LINE
  5
149
100
AcDbEntity
  8
Layer_1
 62
7
100
AcDbLine
 10
36.442173
 20
-5.686151
 30
0.0
 11
36.180229
 21
-5.174239
 31
0.0
  0
LINE
  5
14a
100
AcDbEntity
  8
Layer_1
 62
7
100
AcDbLine
 10
36.180229
 20
-5.174239
 30
0.0
 11
35.745444
 21
-4.797901
 31
0.0
  0
LINE
  5
14b
100
AcDbEntity
  8
Layer_1
 62
7
100
AcDbLine
 10
35.745444
 20
-4.797901
 30
0.0
 11
35.179935
 21
-4.610831
 31
0.0
  0
LINE
  5
14c
100
AcDbEntity
  8
Layer_1
 62
7
100
AcDbLine
 10
35.179935
 20
-4.610831
 30
0.0
 11
34.586143
 21
-4.657816
 31
0.0
  0
LINE
  5
14d
100
AcDbEntity
  8
Layer_1
 62
7
100
AcDbLine
 10
34.586143
 20
-4.657816
 30
0.0
 11
34.074231
 21
-4.919760
 31
0.0
  0
LINE
  5
14e
100
AcDbEntity
  8
Layer_1
 62
7
100
AcDbLine
 10
34.074231
 20
-4.919760
 30
0.0
 11
33.697893
 21
-5.354545
 31
0.0
  0
LINE
  5
14f
100
AcDbEntity
  8
Layer_1
 62
7
100
AcDbLine
 10
33.697893
 20
-5.354545
 30
0.0
 11
33.510823
 21
-5.920055
 31
0.0
  0
LINE
  5
150
100
AcDbEntity
  8
Layer_1
 62
7
100
AcDbLine
 10
-11.228025
 20
-5.864952
 30
0.0
 11
-11.212923
 21
-6.261762
 31
0.0
  0
LINE
  5
151
100
AcDbEntity
  8
Layer_1
 62
7
100
AcDbLine
 10
-11.212923
 20
-6.261762
 30
0.0
 11
-11.346519
 21
-6.621092
 31
0.0
  0
LINE
  5
152
100
AcDbEntity
  8
Layer_1
 62
7
100
AcDbLine
 10
-11.346519
 20
-6.621092
 30
0.0
 11
-11.605107
 21
-6.904105
 31
0.0
  0
LINE
  5
153
100
AcDbEntity
  8
Layer_1
 62
7
100
AcDbLine
 10
-11.605107
 20
-6.904105
 30
0.0
 11
-11.964977
 21
-7.071973
 31
0.0
  0
LINE
  5
154
100
AcDbEntity
  8
Layer_1
 62
7
100
AcDbLine
 10
-11.964977
 20
-7.071973
 30
0.0
 11
-12.361789
 21
-7.087076
 31
0.0
  0
LINE
  5
155
100
AcDbEntity
  8
Layer_1
 62
7
100
AcDbLine
 10
-12.361789
 20
-7.087076
 30
0.0
 11
-12.721116
 21
-6.953479
 31
0.0
  0
LINE
  5
156
100
AcDbEntity
  8
Layer_1
 62
7
100
AcDbLine
 10
-12.721116
 20
-6.953479
 30
0.0
 11
-13.004130
 21
-6.694889
 31
0.0
  0
LINE
  5
157
100
AcDbEntity
  8
Layer_1
 62
7
100
AcDbLine
 10
-13.004130
 20
-6.694889
 30
0.0
 11
-13.171998
 21
-6.335019
 31
0.0
  0
LINE
  5
158
100
AcDbEntity
  8
Layer_1
 62
7
100
AcDbLine
 10
-13.171998
 20
-6.335019
 30
0.0
 11
-13.187101
 21
-5.938206
 31
0.0
  0
LINE
  5
159
100
AcDbEntity
  8
Layer_1
 62
7
100
AcDbLine
 10
-13.187101
 20
-5.938206
 30
0.0
 11
-13.053504
 21
-5.578879
 31
0.0
  0
LINE
  5
15a
100
AcDbEntity
  8
Layer_1
 62
7
100
AcDbLine
 10
-13.053504
 20
-5.578879
 30
0.0
 11
-12.794916
 21
-5.295866
 31
0.0
  0
LINE
  5
15b
100
AcDbEntity
  8
Layer_1
 62
7
100
AcDbLine
 10
-12.794916
 20
-5.295866
 30
0.0
 11
-12.435043
 21
-5.127997
 31
0.0
  0
LINE
  5
15c
100
AcDbEntity
  8
Layer_1
 62
7
100
AcDbLine
 10
-12.435043
 20
-5.127997
 30
0.0
 11
-12.038233
 21
-5.112895
 31
0.0
  0
LINE
  5
15d
100
AcDbEntity
  8
Layer_1
 62
7
100
AcDbLine
 10
-12.038233
 20
-5.112895
 30
0.0
 11
-11.678907
 21
-5.246492
 31
0.0
  0
LINE
  5
15e
100
AcDbEntity
  8
Layer_1
 62
7
100
AcDbLine
 10
-11.678907
 20
-5.246492
 30
0.0
 11
-11.395894
 21
-5.505080
 31
0.0
  0
LINE
  5
15f
100
AcDbEntity
  8
Layer_1
 62
7
100
AcDbLine
 10
-11.395894
 20
-5.505080
 30
0.0
 11
-11.228025
 21
-5.864952
 31
0.0
  0
LINE
  5
160
100
AcDbEntity
  8
Layer_1
 62
7
100
AcDbLine
 10
-22.628025
 20
2.435046
 30
0.0
 11
-22.612922
 21
2.038234
 31
0.0
  0
LINE
  5
161
100
AcDbEntity
  8
Layer_1
 62
7
100
AcDbLine
 10
-22.612922
 20
2.038234
 30
0.0
 11
-22.746519
 21
1.678907
 31
0.0
  0
LINE
  5
162
100
AcDbEntity
  8
Layer_1
 62
7
100
AcDbLine
 10
-22.746519
 20
1.678907
 30
0.0
 11
-23.005110
 21
1.395894
 31
0.0
  0
LINE
  5
163
100
AcDbEntity
  8
Layer_1
 62
7
100
AcDbLine
 10
-23.005110
 20
1.395894
 30
0.0
 11
-23.364980
 21
1.228025
 31
0.0
  0
LINE
  5
164
100
AcDbEntity
  8
Layer_1
 62
7
100
AcDbLine
 10
-23.364980
 20
1.228025
 30
0.0
 11
-23.761792
 21
1.212922
 31
0.0
  0
LINE
  5
165
100
AcDbEntity
  8
Layer_1
 62
7
100
AcDbLine
 10
-23.761792
 20
1.212922
 30
0.0
 11
-24.121119
 21
1.346519
 31
0.0
  0
LINE
  5
166
100
AcDbEntity
  8
Layer_1
 62
7
100
AcDbLine
 10
-24.121119
 20
1.346519
 30
0.0
 11
-24.404132
 21
1.605107
 31
0.0
  0
LINE
  5
167
100
AcDbEntity
  8
Layer_1
 62
7
100
AcDbLine
 10
-24.404132
 20
1.605107
 30
0.0
 11
-24.572001
 21
1.964980
 31
0.0
  0
LINE
  5
168
100
AcDbEntity
  8
Layer_1
 62
7
100
AcDbLine
 10
-24.572001
 20
1.964980
 30
0.0
 11
-24.587103
 21
2.361790
 31
0.0
  0
LINE
  5
169
100
AcDbEntity
  8
Layer_1
 62
7
100
AcDbLine
 10
-24.587103
 20
2.361790
 30
0.0
 11
-24.453507
 21
2.721119
 31
0.0
  0
LINE
  5
16a
100
AcDbEntity
  8
Layer_1
 62
7
100
AcDbLine
 10
-24.453507
 20
2.721119
 30
0.0
 11
-24.194919
 21
3.004132
 31
0.0
  0
LINE
  5
16b
100
AcDbEntity
  8
Layer_1
 62
7
100
AcDbLine
 10
-24.194919
 20
3.004132
 30
0.0
 11
-23.835046
 21
3.172001
 31
0.0
  0
LINE
  5
16c
100
AcDbEntity
  8
Layer_1
 62
7
100
AcDbLine
 10
-23.835046
 20
3.172001
 30
0.0
 11
-23.438236
 21
3.187103
 31
0.0
  0
LINE
  5
16d
100
AcDbEntity
  8
Layer_1
 62
7
100
AcDbLine
 10
-23.438236
 20
3.187103
 30
0.0
 11
-23.078907
 21
3.053507
 31
0.0
  0
LINE
  5
16e
100
AcDbEntity
  8
Layer_1
 62
7
100
AcDbLine
 10
-23.078907
 20
3.053507
 30
0.0
 11
-22.795894
 21
2.794916
 31
0.0
  0
LINE
  5
16f
100
AcDbEntity
  8
Layer_1
 62
7
100
AcDbLine
 10
-22.795894
 20
2.794916
 30
0.0
 11
-22.628025
 21
2.435046
 31
0.0
  0
LINE
  5
170
100
AcDbEntity
  8
Layer_1
 62
7
100
AcDbLine
 10
1.499990
 20
-13.999999
 30
0.0
 11
1.382112
 21
-14.583866
 31
0.0
  0
LINE
  5
171
100
AcDbEntity
  8
Layer_1
 62
7
100
AcDbLine
 10
1.382112
 20
-14.583866
 30
0.0
 11
1.060650
 21
-15.060658
 31
0.0
  0
LINE
  5
172
100
AcDbEntity
  8
Layer_1
 62
7
100
AcDbLine
 10
1.060650
 20
-15.060658
 30
0.0
 11
0.583857
 21
-15.382120
 31
0.0
  0
LINE
  5
173
100
AcDbEntity
  8
Layer_1
 62
7
100
AcDbLine
 10
0.583857
 20
-15.382120
 30
0.0
 11
-0.000010
 21
-15.499999
 31
0.0
  0
LINE
  5
174
100
AcDbEntity
  8
Layer_1
 62
7
100
AcDbLine
 10
-0.000010
 20
-15.499999
 30
0.0
 11
-0.583878
 21
-15.382120
 31
0.0
  0
LINE
  5
175
100
AcDbEntity
  8
Layer_1
 62
7
100
AcDbLine
 10
-0.583878
 20
-15.382120
 30
0.0
 11
-1.060670
 21
-15.060658
 31
0.0
  0
LINE
  5
176
100
AcDbEntity
  8
Layer_1
 62
7
100
AcDbLine
 10
-1.060670
 20
-15.060658
 30
0.0
 11
-1.382133
 21
-14.583866
 31
0.0
  0
LINE
  5
177
100
AcDbEntity
  8
Layer_1
 62
7
100
AcDbLine
 10
-1.382133
 20
-14.583866
 30
0.0
 11
-1.500010
 21
-13.999999
 31
0.0
  0
LINE
  5
178
100
AcDbEntity
  8
Layer_1
 62
7
100
AcDbLine
 10
-1.500010
 20
-13.999999
 30
0.0
 11
-1.382133
 21
-13.416129
 31
0.0
  0
LINE
  5
179
100
AcDbEntity
  8
Layer_1
 62
7
100
AcDbLine
 10
-1.382133
 20
-13.416129
 30
0.0
 11
-1.060670
 21
-12.939337
 31
0.0
  0
LINE
  5
17a
100
AcDbEntity
  8
Layer_1
 62
7
100
AcDbLine
 10
-1.060670
 20
-12.939337
 30
0.0
 11
-0.583878
 21
-12.617875
 31
0.0
  0
LINE
  5
17b
100
AcDbEntity
  8
Layer_1
 62
7
100
AcDbLine
 10
-0.583878
 20
-12.617875
 30
0.0
 11
-0.000010
 21
-12.499999
 31
0.0
  0
LINE
  5
17c
100
AcDbEntity
  8
Layer_1
 62
7
100
AcDbLine
 10
-0.000010
 20
-12.499999
 30
0.0
 11
0.583857
 21
-12.617875
 31
0.0
  0
LINE
  5
17d
100
AcDbEntity
  8
Layer_1
 62
7
100
AcDbLine
 10
0.583857
 20
-12.617875
 30
0.0
 11
1.060650
 21
-12.939337
 31
0.0
  0
LINE
  5
17e
100
AcDbEntity
  8
Layer_1
 62
7
100
AcDbLine
 10
1.060650
 20
-12.939337
 30
0.0
 11
1.382112
 21
-13.416129
 31
0.0
  0
LINE
  5
17f
100
AcDbEntity
  8
Layer_1
 62
7
100
AcDbLine
 10
1.382112
 20
-13.416129
 30
0.0
 11
1.499990
 21
-13.999999
 31
0.0
  0
LINE
  5
180
100
AcDbEntity
  8
Layer_1
 62
7
100
AcDbLine
 10
-48.500012
 20
2.200008
 30
0.0
 11
-48.617891
 21
1.616138
 31
0.0
  0
LINE
  5
181
100
AcDbEntity
  8
Layer_1
 62
7
100
AcDbLine
 10
-48.617891
 20
1.616138
 30
0.0
 11
-48.939353
 21
1.139347
 31
0.0
  0
LINE
  5
182
100
AcDbEntity
  8
Layer_1
 62
7
100
AcDbLine
 10
-48.939353
 20
1.139347
 30
0.0
 11
-49.416145
 21
0.817884
 31
0.0
  0
LINE
  5
183
100
AcDbEntity
  8
Layer_1
 62
7
100
AcDbLine
 10
-49.416145
 20
0.817884
 30
0.0
 11
-50.000012
 21
0.700008
 31
0.0
  0
LINE
  5
184
100
AcDbEntity
  8
Layer_1
 62
7
100
AcDbLine
 10
-50.000012
 20
0.700008
 30
0.0
 11
-50.583879
 21
0.817884
 31
0.0
  0
LINE
  5
185
100
AcDbEntity
  8
Layer_1
 62
7
100
AcDbLine
 10
-50.583879
 20
0.817884
 30
0.0
 11
-51.060671
 21
1.139347
 31
0.0
  0
LINE
  5
186
100
AcDbEntity
  8
Layer_1
 62
7
100
AcDbLine
 10
-51.060671
 20
1.139347
 30
0.0
 11
-51.382133
 21
1.616138
 31
0.0
  0
LINE
  5
187
100
AcDbEntity
  8
Layer_1
 62
7
100
AcDbLine
 10
-51.382133
 20
1.616138
 30
0.0
 11
-51.500012
 21
2.200008
 31
0.0
  0
LINE
  5
188
100
AcDbEntity
  8
Layer_1
 62
7
100
AcDbLine
 10
-51.500012
 20
2.200008
 30
0.0
 11
-51.382133
 21
2.783875
 31
0.0
  0
LINE
  5
189
100
AcDbEntity
  8
Layer_1
 62
7
100
AcDbLine
 10
-51.382133
 20
2.783875
 30
0.0
 11
-51.060671
 21
3.260667
 31
0.0
  0
LINE
  5
18a
100
AcDbEntity
  8
Layer_1
 62
7
100
AcDbLine
 10
-51.060671
 20
3.260667
 30
0.0
 11
-50.583879
 21
3.582129
 31
0.0
  0
LINE
  5
18b
100
AcDbEntity
  8
Layer_1
 62
7
100
AcDbLine
 10
-50.583879
 20
3.582129
 30
0.0
 11
-50.000012
 21
3.700008
 31
0.0
  0
LINE
  5
18c
100
AcDbEntity
  8
Layer_1
 62
7
100
AcDbLine
 10
-50.000012
 20
3.700008
 30
0.0
 11
-49.416145
 21
3.582129
 31
0.0
  0
LINE
  5
18d
100
AcDbEntity
  8
Layer_1
 62
7
100
AcDbLine
 10
-49.416145
 20
3.582129
 30
0.0
 11
-48.939353
 21
3.260667
 31
0.0
  0
LINE
  5
18e
100
AcDbEntity
  8
Layer_1
 62
7
100
AcDbLine
 10
-48.939353
 20
3.260667
 30
0.0
 11
-48.617891
 21
2.783875
 31
0.0
  0
LINE
  5
18f
100
AcDbEntity
  8
Layer_1
 62
7
100
AcDbLine
 10
-48.617891
 20
2.783875
 30
0.0
 11
-48.500012
 21
2.200008
 31
0.0
  0
LINE
  5
190
100
AcDbEntity
  8
Layer_1
 62
7
100
AcDbLine
 10
48.499991
 20
-13.999996
 30
0.0
 11
48.617870
 21
-14.583863
 31
0.0
  0
LINE
  5
191
100
AcDbEntity
  8
Layer_1
 62
7
100
AcDbLine
 10
48.617870
 20
-14.583863
 30
0.0
 11
48.939332
 21
-15.060655
 31
0.0
  0
LINE
  5
192
100
AcDbEntity
  8
Layer_1
 62
7
100
AcDbLine
 10
48.939332
 20
-15.060655
 30
0.0
 11
49.416124
 21
-15.382117
 31
0.0
  0
LINE
  5
193
100
AcDbEntity
  8
Layer_1
 62
7
100
AcDbLine
 10
49.416124
 20
-15.382117
 30
0.0
 11
49.999991
 21
-15.499996
 31
0.0
  0
LINE
  5
194
100
AcDbEntity
  8
Layer_1
 62
7
100
AcDbLine
 10
49.999991
 20
-15.499996
 30
0.0
 11
50.583858
 21
-15.382117
 31
0.0
  0
LINE
  5
195
100
AcDbEntity
  8
Layer_1
 62
7
100
AcDbLine
 10
50.583858
 20
-15.382117
 30
0.0
 11
51.060650
 21
-15.060655
 31
0.0
  0
LINE
  5
196
100
AcDbEntity
  8
Layer_1
 62
7
100
AcDbLine
 10
51.060650
 20
-15.060655
 30
0.0
 11
51.382113
 21
-14.583863
 31
0.0
  0
LINE
  5
197
100
AcDbEntity
  8
Layer_1
 62
7
100
AcDbLine
 10
51.382113
 20
-14.583863
 30
0.0
 11
51.499991
 21
-13.999996
 31
0.0
  0
LINE
  5
198
100
AcDbEntity
  8
Layer_1
 62
7
100
AcDbLine
 10
51.499991
 20
-13.999996
 30
0.0
 11
51.382113
 21
-13.416126
 31
0.0
  0
LINE
  5
199
100
AcDbEntity
  8
Layer_1
 62
7
100
AcDbLine
 10
51.382113
 20
-13.416126
 30
0.0
 11
51.060650
 21
-12.939334
 31
0.0
  0
LINE
  5
19a
100
AcDbEntity
  8
Layer_1
 62
7
100
AcDbLine
 10
51.060650
 20
-12.939334
 30
0.0
 11
50.583858
 21
-12.617872
 31
0.0
  0
LINE
  5
19b
100
AcDbEntity
  8
Layer_1
 62
7
100
AcDbLine
 10
50.583858
 20
-12.617872
 30
0.0
 11
49.999991
 21
-12.499996
 31
0.0
  0
LINE
  5
19c
100
AcDbEntity
  8
Layer_1
 62
7
100
AcDbLine
 10
49.999991
 20
-12.499996
 30
0.0
 11
49.416124
 21
-12.617872
 31
0.0
  0
LINE
  5
19d
100
AcDbEntity
  8
Layer_1
 62
7
100
AcDbLine
 10
49.416124
 20
-12.617872
 30
0.0
 11
48.939332
 21
-12.939334
 31
0.0
  0
LINE
  5
19e
100
AcDbEntity
  8
Layer_1
 62
7
100
AcDbLine
 10
48.939332
 20
-12.939334
 30
0.0
 11
48.617870
 21
-13.416126
 31
0.0
  0
LINE
  5
19f
100
AcDbEntity
  8
Layer_1
 62
7
100
AcDbLine
 10
48.617870
 20
-13.416126
 30
0.0
 11
48.499991
 21
-13.999996
 31
0.0
  0
LINE
  5
1a0
100
AcDbEntity
  8
Layer_1
 62
7
100
AcDbLine
 10
11.228004
 20
-5.864952
 30
0.0
 11
11.212902
 21
-6.261762
 31
0.0
  0
LINE
  5
1a1
100
AcDbEntity
  8
Layer_1
 62
7
100
AcDbLine
 10
11.212902
 20
-6.261762
 30
0.0
 11
11.346499
 21
-6.621092
 31
0.0
  0
LINE
  5
1a2
100
AcDbEntity
  8
Layer_1
 62
7
100
AcDbLine
 10
11.346499
 20
-6.621092
 30
0.0
 11
11.605086
 21
-6.904105
 31
0.0
  0
LINE
  5
1a3
100
AcDbEntity
  8
Layer_1
 62
7
100
AcDbLine
 10
11.605086
 20
-6.904105
 30
0.0
 11
11.964956
 21
-7.071973
 31
0.0
  0
LINE
  5
1a4
100
AcDbEntity
  8
Layer_1
 62
7
100
AcDbLine
 10
11.964956
 20
-7.071973
 30
0.0
 11
12.361769
 21
-7.087076
 31
0.0
  0
LINE
  5
1a5
100
AcDbEntity
  8
Layer_1
 62
7
100
AcDbLine
 10
12.361769
 20
-7.087076
 30
0.0
 11
12.721095
 21
-6.953479
 31
0.0
  0
LINE
  5
1a6
100
AcDbEntity
  8
Layer_1
 62
7
100
AcDbLine
 10
12.721095
 20
-6.953479
 30
0.0
 11
13.004109
 21
-6.694889
 31
0.0
  0
LINE
  5
1a7
100
AcDbEntity
  8
Layer_1
 62
7
100
AcDbLine
 10
13.004109
 20
-6.694889
 30
0.0
 11
13.171978
 21
-6.335019
 31
0.0
  0
LINE
  5
1a8
100
AcDbEntity
  8
Layer_1
 62
7
100
AcDbLine
 10
13.171978
 20
-6.335019
 30
0.0
 11
13.187080
 21
-5.938206
 31
0.0
  0
LINE
  5
1a9
100
AcDbEntity
  8
Layer_1
 62
7
100
AcDbLine
 10
13.187080
 20
-5.938206
 30
0.0
 11
13.053483
 21
-5.578879
 31
0.0
  0
LINE
  5
1aa
100
AcDbEntity
  8
Layer_1
 62
7
100
AcDbLine
 10
13.053483
 20
-5.578879
 30
0.0
 11
12.794896
 21
-5.295866
 31
0.0
  0
LINE
  5
1ab
100
AcDbEntity
  8
Layer_1
 62
7
100
AcDbLine
 10
12.794896
 20
-5.295866
 30
0.0
 11
12.435023
 21
-5.127997
 31
0.0
  0
LINE
  5
1ac
100
AcDbEntity
  8
Layer_1
 62
7
100
AcDbLine
 10
12.435023
 20
-5.127997
 30
0.0
 11
12.038213
 21
-5.112895
 31
0.0
  0
LINE
  5
1ad
100
AcDbEntity
  8
Layer_1
 62
7
100
AcDbLine
 10
12.038213
 20
-5.112895
 30
0.0
 11
11.678886
 21
-5.246492
 31
0.0
  0
LINE
  5
1ae
100
AcDbEntity
  8
Layer_1
 62
7
100
AcDbLine
 10
11.678886
 20
-5.246492
 30
0.0
 11
11.395873
 21
-5.505080
 31
0.0
  0
LINE
  5
1af
100
AcDbEntity
  8
Layer_1
 62
7
100
AcDbLine
 10
11.395873
 20
-5.505080
 30
0.0
 11
11.228004
 21
-5.864952
 31
0.0
  0
LINE
  5
1b0
100
AcDbEntity
  8
Layer_1
 62
7
100
AcDbLine
 10
22.628004
 20
2.435046
 30
0.0
 11
22.612902
 21
2.038234
 31
0.0
  0
LINE
  5
1b1
100
AcDbEntity
  8
Layer_1
 62
7
100
AcDbLine
 10
22.612902
 20
2.038234
 30
0.0
 11
22.746499
 21
1.678907
 31
0.0
  0
LINE
  5
1b2
100
AcDbEntity
  8
Layer_1
 62
7
100
AcDbLine
 10
22.746499
 20
1.678907
 30
0.0
 11
23.005089
 21
1.395894
 31
0.0
  0
LINE
  5
1b3
100
AcDbEntity
  8
Layer_1
 62
7
100
AcDbLine
 10
23.005089
 20
1.395894
 30
0.0
 11
23.364959
 21
1.228025
 31
0.0
  0
LINE
  5
1b4
100
AcDbEntity
  8
Layer_1
 62
7
100
AcDbLine
 10
23.364959
 20
1.228025
 30
0.0
 11
23.761772
 21
1.212922
 31
0.0
  0
LINE
  5
1b5
100
AcDbEntity
  8
Layer_1
 62
7
100
AcDbLine
 10
23.761772
 20
1.212922
 30
0.0
 11
24.121098
 21
1.346519
 31
0.0
  0
LINE
  5
1b6
100
AcDbEntity
  8
Layer_1
 62
7
100
AcDbLine
 10
24.121098
 20
1.346519
 30
0.0
 11
24.404111
 21
1.605107
 31
0.0
  0
LINE
  5
1b7
100
AcDbEntity
  8
Layer_1
 62
7
100
AcDbLine
 10
24.404111
 20
1.605107
 30
0.0
 11
24.571981
 21
1.964980
 31
0.0
  0
LINE
  5
1b8
100
AcDbEntity
  8
Layer_1
 62
7
100
AcDbLine
 10
24.571981
 20
1.964980
 30
0.0
 11
24.587082
 21
2.361790
 31
0.0
  0
LINE
  5
1b9
100
AcDbEntity
  8
Layer_1
 62
7
100
AcDbLine
 10
24.587082
 20
2.361790
 30
0.0
 11
24.453486
 21
2.721119
 31
0.0
  0
LINE
  5
1ba
100
AcDbEntity
  8
Layer_1
 62
7
100
AcDbLine
 10
24.453486
 20
2.721119
 30
0.0
 11
24.194899
 21
3.004132
 31
0.0
  0
LINE
  5
1bb
100
AcDbEntity
  8
Layer_1
 62
7
100
AcDbLine
 10
24.194899
 20
3.004132
 30
0.0
 11
23.835026
 21
3.172001
 31
0.0
  0
LINE
  5
1bc
100
AcDbEntity
  8
Layer_1
 62
7
100
AcDbLine
 10
23.835026
 20
3.172001
 30
0.0
 11
23.438216
 21
3.187103
 31
0.0
  0
LINE
  5
1bd
100
AcDbEntity
  8
Layer_1
 62
7
100
AcDbLine
 10
23.438216
 20
3.187103
 30
0.0
 11
23.078886
 21
3.053507
 31
0.0
  0
LINE
  5
1be
100
AcDbEntity
  8
Layer_1
 62
7
100
AcDbLine
 10
23.078886
 20
3.053507
 30
0.0
 11
22.795873
 21
2.794916
 31
0.0
  0
LINE
  5
1bf
100
AcDbEntity
  8
Layer_1
 62
7
100
AcDbLine
 10
22.795873
 20
2.794916
 30
0.0
 11
22.628004
 21
2.435046
 31
0.0
  0
LINE
  5
1c0
100
AcDbEntity
  8
Layer_1
 62
7
100
AcDbLine
 10
48.499991
 20
2.200008
 30
0.0
 11
48.617870
 21
1.616138
 31
0.0
  0
LINE
  5
1c1
100
AcDbEntity
  8
Layer_1
 62
7
100
AcDbLine
 10
48.617870
 20
1.616138
 30
0.0
 11
48.939332
 21
1.139347
 31
0.0
  0
LINE
  5
1c2
100
AcDbEntity
  8
Layer_1
 62
7
100
AcDbLine
 10
48.939332
 20
1.139347
 30
0.0
 11
49.416124
 21
0.817884
 31
0.0
  0
LINE
  5
1c3
100
AcDbEntity
  8
Layer_1
 62
7
100
AcDbLine
 10
49.416124
 20
0.817884
 30
0.0
 11
49.999991
 21
0.700008
 31
0.0
  0
LINE
  5
1c4
100
AcDbEntity
  8
Layer_1
 62
7
100
AcDbLine
 10
49.999991
 20
0.700008
 30
0.0
 11
50.583858
 21
0.817884
 31
0.0
  0
LINE
  5
1c5
100
AcDbEntity
  8
Layer_1
 62
7
100
AcDbLine
 10
50.583858
 20
0.817884
 30
0.0
 11
51.060650
 21
1.139347
 31
0.0
  0
LINE
  5
1c6
100
AcDbEntity
  8
Layer_1
 62
7
100
AcDbLine
 10
51.060650
 20
1.139347
 30
0.0
 11
51.382113
 21
1.616138
 31
0.0
  0
LINE
  5
1c7
100
AcDbEntity
  8
Layer_1
 62
7
100
AcDbLine
 10
51.382113
 20
1.616138
 30
0.0
 11
51.499991
 21
2.200008
 31
0.0
  0
LINE
  5
1c8
100
AcDbEntity
  8
Layer_1
 62
7
100
AcDbLine
 10
51.499991
 20
2.200008
 30
0.0
 11
51.382113
 21
2.783875
 31
0.0
  0
LINE
  5
1c9
100
AcDbEntity
  8
Layer_1
 62
7
100
AcDbLine
 10
51.382113
 20
2.783875
 30
0.0
 11
51.060650
 21
3.260667
 31
0.0
  0
LINE
  5
1ca
100
AcDbEntity
  8
Layer_1
 62
7
100
AcDbLine
 10
51.060650
 20
3.260667
 30
0.0
 11
50.583858
 21
3.582129
 31
0.0
  0
LINE
  5
1cb
100
AcDbEntity
  8
Layer_1
 62
7
100
AcDbLine
 10
50.583858
 20
3.582129
 30
0.0
 11
49.999991
 21
3.700008
 31
0.0
  0
LINE
  5
1cc
100
AcDbEntity
  8
Layer_1
 62
7
100
AcDbLine
 10
49.999991
 20
3.700008
 30
0.0
 11
49.416124
 21
3.582129
 31
0.0
  0
LINE
  5
1cd
100
AcDbEntity
  8
Layer_1
 62
7
100
AcDbLine
 10
49.416124
 20
3.582129
 30
0.0
 11
48.939332
 21
3.260667
 31
0.0
  0
LINE
  5
1ce
100
AcDbEntity
  8
Layer_1
 62
7
100
AcDbLine
 10
48.939332
 20
3.260667
 30
0.0
 11
48.617870
 21
2.783875
 31
0.0
  0
LINE
  5
1cf
100
AcDbEntity
  8
Layer_1
 62
7
100
AcDbLine
 10
48.617870
 20
2.783875
 30
0.0
 11
48.499991
 21
2.200008
 31
0.0
  0
LINE
  5
1d0
100
AcDbEntity
  8
Layer_1
 62
7
100
AcDbLine
 10
-48.000002
 20
11.000008
 30
0.0
 11
-48.157171
 21
10.221517
 31
0.0
  0
LINE
  5
1d1
100
AcDbEntity
  8
Layer_1
 62
7
100
AcDbLine
 10
-48.157171
 20
10.221517
 30
0.0
 11
-48.585788
 21
9.585792
 31
0.0
  0
LINE
  5
1d2
100
AcDbEntity
  8
Layer_1
 62
7
100
AcDbLine
 10
-48.585788
 20
9.585792
 30
0.0
 11
-49.221513
 21
9.157175
 31
0.0
  0
LINE
  5
1d3
100
AcDbEntity
  8
Layer_1
 62
7
100
AcDbLine
 10
-49.221513
 20
9.157175
 30
0.0
 11
-50.000003
 21
9.000006
 31
0.0
  0
LINE
  5
1d4
100
AcDbEntity
  8
Layer_1
 62
7
100
AcDbLine
 10
-50.000003
 20
9.000006
 30
0.0
 11
-50.778494
 21
9.157175
 31
0.0
  0
LINE
  5
1d5
100
AcDbEntity
  8
Layer_1
 62
7
100
AcDbLine
 10
-50.778494
 20
9.157175
 30
0.0
 11
-51.414216
 21
9.585792
 31
0.0
  0
LINE
  5
1d6
100
AcDbEntity
  8
Layer_1
 62
7
100
AcDbLine
 10
-51.414216
 20
9.585792
 30
0.0
 11
-51.842833
 21
10.221517
 31
0.0
  0
LINE
  5
1d7
100
AcDbEntity
  8
Layer_1
 62
7
100
AcDbLine
 10
-51.842833
 20
10.221517
 30
0.0
 11
-52.000002
 21
11.000008
 31
0.0
  0
LINE
  5
1d8
100
AcDbEntity
  8
Layer_1
 62
7
100
AcDbLine
 10
-52.000002
 20
11.000008
 30
0.0
 11
-51.842833
 21
11.778498
 31
0.0
  0
LINE
  5
1d9
100
AcDbEntity
  8
Layer_1
 62
7
100
AcDbLine
 10
-51.842833
 20
11.778498
 30
0.0
 11
-51.414216
 21
12.414220
 31
0.0
  0
LINE
  5
1da
100
AcDbEntity
  8
Layer_1
 62
7
100
AcDbLine
 10
-51.414216
 20
12.414220
 30
0.0
 11
-50.778494
 21
12.842837
 31
0.0
  0
LINE
  5
1db
100
AcDbEntity
  8
Layer_1
 62
7
100
AcDbLine
 10
-50.778494
 20
12.842837
 30
0.0
 11
-50.000003
 21
13.000006
 31
0.0
  0
LINE
  5
1dc
100
AcDbEntity
  8
Layer_1
 62
7
100
AcDbLine
 10
-50.000003
 20
13.000006
 30
0.0
 11
-49.221513
 21
12.842837
 31
0.0
  0
LINE
  5
1dd
100
AcDbEntity
  8
Layer_1
 62
7
100
AcDbLine
 10
-49.221513
 20
12.842837
 30
0.0
 11
-48.585788
 21
12.414220
 31
0.0
  0
LINE
  5
1de
100
AcDbEntity
  8
Layer_1
 62
7
100
AcDbLine
 10
-48.585788
 20
12.414220
 30
0.0
 11
-48.157171
 21
11.778498
 31
0.0
  0
LINE
  5
1df
100
AcDbEntity
  8
Layer_1
 62
7
100
AcDbLine
 10
-48.157171
 20
11.778498
 30
0.0
 11
-48.000002
 21
11.000008
 31
0.0
  0
LINE
  5
1e0
100
AcDbEntity
  8
Layer_1
 62
7
100
AcDbLine
 10
-38.000002
 20
10.999991
 30
0.0
 11
-38.157172
 21
10.221500
 31
0.0
  0
LINE
  5
1e1
100
AcDbEntity
  8
Layer_1
 62
7
100
AcDbLine
 10
-38.157172
 20
10.221500
 30
0.0
 11
-38.585788
 21
9.585775
 31
0.0
  0
LINE
  5
1e2
100
AcDbEntity
  8
Layer_1
 62
7
100
AcDbLine
 10
-38.585788
 20
9.585775
 30
0.0
 11
-39.221511
 21
9.157159
 31
0.0
  0
LINE
  5
1e3
100
AcDbEntity
  8
Layer_1
 62
7
100
AcDbLine
 10
-39.221511
 20
9.157159
 30
0.0
 11
-40.000001
 21
8.999989
 31
0.0
  0
LINE
  5
1e4
100
AcDbEntity
  8
Layer_1
 62
7
100
AcDbLine
 10
-40.000001
 20
8.999989
 30
0.0
 11
-40.778491
 21
9.157159
 31
0.0
  0
LINE
  5
1e5
100
AcDbEntity
  8
Layer_1
 62
7
100
AcDbLine
 10
-40.778491
 20
9.157159
 30
0.0
 11
-41.414216
 21
9.585775
 31
0.0
  0
LINE
  5
1e6
100
AcDbEntity
  8
Layer_1
 62
7
100
AcDbLine
 10
-41.414216
 20
9.585775
 30
0.0
 11
-41.842833
 21
10.221500
 31
0.0
  0
LINE
  5
1e7
100
AcDbEntity
  8
Layer_1
 62
7
100
AcDbLine
 10
-41.842833
 20
10.221500
 30
0.0
 11
-42.000003
 21
10.999991
 31
0.0
  0
LINE
  5
1e8
100
AcDbEntity
  8
Layer_1
 62
7
100
AcDbLine
 10
-42.000003
 20
10.999991
 30
0.0
 11
-41.842833
 21
11.778481
 31
0.0
  0
LINE
  5
1e9
100
AcDbEntity
  8
Layer_1
 62
7
100
AcDbLine
 10
-41.842833
 20
11.778481
 30
0.0
 11
-41.414216
 21
12.414203
 31
0.0
  0
LINE
  5
1ea
100
AcDbEntity
  8
Layer_1
 62
7
100
AcDbLine
 10
-41.414216
 20
12.414203
 30
0.0
 11
-40.778491
 21
12.842820
 31
0.0
  0
LINE
  5
1eb
100
AcDbEntity
  8
Layer_1
 62
7
100
AcDbLine
 10
-40.778491
 20
12.842820
 30
0.0
 11
-40.000001
 21
12.999989
 31
0.0
  0
LINE
  5
1ec
100
AcDbEntity
  8
Layer_1
 62
7
100
AcDbLine
 10
-40.000001
 20
12.999989
 30
0.0
 11
-39.221511
 21
12.842820
 31
0.0
  0
LINE
  5
1ed
100
AcDbEntity
  8
Layer_1
 62
7
100
AcDbLine
 10
-39.221511
 20
12.842820
 30
0.0
 11
-38.585788
 21
12.414203
 31
0.0
  0
LINE
  5
1ee
100
AcDbEntity
  8
Layer_1
 62
7
100
AcDbLine
 10
-38.585788
 20
12.414203
 30
0.0
 11
-38.157172
 21
11.778481
 31
0.0
  0
LINE
  5
1ef
100
AcDbEntity
  8
Layer_1
 62
7
100
AcDbLine
 10
-38.157172
 20
11.778481
 30
0.0
 11
-38.000002
 21
10.999991
 31
0.0
  0
LINE
  5
1f0
100
AcDbEntity
  8
Layer_1
 62
7
100
AcDbLine
 10
-28.000003
 20
11.000008
 30
0.0
 11
-28.157173
 21
10.221517
 31
0.0
  0
LINE
  5
1f1
100
AcDbEntity
  8
Layer_1
 62
7
100
AcDbLine
 10
-28.157173
 20
10.221517
 30
0.0
 11
-28.585791
 21
9.585792
 31
0.0
  0
LINE
  5
1f2
100
AcDbEntity
  8
Layer_1
 62
7
100
AcDbLine
 10
-28.585791
 20
9.585792
 30
0.0
 11
-29.221514
 21
9.157175
 31
0.0
  0
LINE
  5
1f3
100
AcDbEntity
  8
Layer_1
 62
7
100
AcDbLine
 10
-29.221514
 20
9.157175
 30
0.0
 11
-30.000004
 21
9.000006
 31
0.0
  0
LINE
  5
1f4
100
AcDbEntity
  8
Layer_1
 62
7
100
AcDbLine
 10
-30.000004
 20
9.000006
 30
0.0
 11
-30.778494
 21
9.157175
 31
0.0
  0
LINE
  5
1f5
100
AcDbEntity
  8
Layer_1
 62
7
100
AcDbLine
 10
-30.778494
 20
9.157175
 30
0.0
 11
-31.414217
 21
9.585792
 31
0.0
  0
LINE
  5
1f6
100
AcDbEntity
  8
Layer_1
 62
7
100
AcDbLine
 10
-31.414217
 20
9.585792
 30
0.0
 11
-31.842833
 21
10.221517
 31
0.0
  0
LINE
  5
1f7
100
AcDbEntity
  8
Layer_1
 62
7
100
AcDbLine
 10
-31.842833
 20
10.221517
 30
0.0
 11
-32.000003
 21
11.000008
 31
0.0
  0
LINE
  5
1f8
100
AcDbEntity
  8
Layer_1
 62
7
100
AcDbLine
 10
-32.000003
 20
11.000008
 30
0.0
 11
-31.842833
 21
11.778498
 31
0.0
  0
LINE
  5
1f9
100
AcDbEntity
  8
Layer_1
 62
7
100
AcDbLine
 10
-31.842833
 20
11.778498
 30
0.0
 11
-31.414217
 21
12.414220
 31
0.0
  0
LINE
  5
1fa
100
AcDbEntity
  8
Layer_1
 62
7
100
AcDbLine
 10
-31.414217
 20
12.414220
 30
0.0
 11
-30.778494
 21
12.842837
 31
0.0
  0
LINE
  5
1fb
100
AcDbEntity
  8
Layer_1
 62
7
100
AcDbLine
 10
-30.778494
 20
12.842837
 30
0.0
 11
-30.000004
 21
13.000006
 31
0.0
  0
LINE
  5
1fc
100
AcDbEntity
  8
Layer_1
 62
7
100
AcDbLine
 10
-30.000004
 20
13.000006
 30
0.0
 11
-29.221514
 21
12.842837
 31
0.0
  0
LINE
  5
1fd
100
AcDbEntity
  8
Layer_1
 62
7
100
AcDbLine
 10
-29.221514
 20
12.842837
 30
0.0
 11
-28.585791
 21
12.414220
 31
0.0
  0
LINE
  5
1fe
100
AcDbEntity
  8
Layer_1
 62
7
100
AcDbLine
 10
-28.585791
 20
12.414220
 30
0.0
 11
-28.157173
 21
11.778498
 31
0.0
  0
LINE
  5
1ff
100
AcDbEntity
  8
Layer_1
 62
7
100
AcDbLine
 10
-28.157173
 20
11.778498
 30
0.0
 11
-28.000003
 21
11.000008
 31
0.0
  0
LINE
  5
200
100
AcDbEntity
  8
Layer_1
 62
7
100
AcDbLine
 10
-18.000006
 20
10.999991
 30
0.0
 11
-18.157176
 21
10.221500
 31
0.0
  0
LINE
  5
201
100
AcDbEntity
  8
Layer_1
 62
7
100
AcDbLine
 10
-18.157176
 20
10.221500
 30
0.0
 11
-18.585793
 21
9.585775
 31
0.0
  0
LINE
  5
202
100
AcDbEntity
  8
Layer_1
 62
7
100
AcDbLine
 10
-18.585793
 20
9.585775
 30
0.0
 11
-19.221516
 21
9.157159
 31
0.0
  0
LINE
  5
203
100
AcDbEntity
  8
Layer_1
 62
7
100
AcDbLine
 10
-19.221516
 20
9.157159
 30
0.0
 11
-20.000006
 21
8.999989
 31
0.0
  0
LINE
  5
204
100
AcDbEntity
  8
Layer_1
 62
7
100
AcDbLine
 10
-20.000006
 20
8.999989
 30
0.0
 11
-20.778496
 21
9.157159
 31
0.0
  0
LINE
  5
205
100
AcDbEntity
  8
Layer_1
 62
7
100
AcDbLine
 10
-20.778496
 20
9.157159
 30
0.0
 11
-21.414220
 21
9.585775
 31
0.0
  0
LINE
  5
206
100
AcDbEntity
  8
Layer_1
 62
7
100
AcDbLine
 10
-21.414220
 20
9.585775
 30
0.0
 11
-21.842836
 21
10.221500
 31
0.0
  0
LINE
  5
207
100
AcDbEntity
  8
Layer_1
 62
7
100
AcDbLine
 10
-21.842836
 20
10.221500
 30
0.0
 11
-22.000006
 21
10.999991
 31
0.0
  0
LINE
  5
208
100
AcDbEntity
  8
Layer_1
 62
7
100
AcDbLine
 10
-22.000006
 20
10.999991
 30
0.0
 11
-21.842836
 21
11.778481
 31
0.0
  0
LINE
  5
209
100
AcDbEntity
  8
Layer_1
 62
7
100
AcDbLine
 10
-21.842836
 20
11.778481
 30
0.0
 11
-21.414220
 21
12.414203
 31
0.0
  0
LINE
  5
20a
100
AcDbEntity
  8
Layer_1
 62
7
100
AcDbLine
 10
-21.414220
 20
12.414203
 30
0.0
 11
-20.778496
 21
12.842820
 31
0.0
  0
LINE
  5
20b
100
AcDbEntity
  8
Layer_1
 62
7
100
AcDbLine
 10
-20.778496
 20
12.842820
 30
0.0
 11
-20.000006
 21
12.999989
 31
0.0
  0
LINE
  5
20c
100
AcDbEntity
  8
Layer_1
 62
7
100
AcDbLine
 10
-20.000006
 20
12.999989
 30
0.0
 11
-19.221516
 21
12.842820
 31
0.0
  0
LINE
  5
20d
100
AcDbEntity
  8
Layer_1
 62
7
100
AcDbLine
 10
-19.221516
 20
12.842820
 30
0.0
 11
-18.585793
 21
12.414203
 31
0.0
  0
LINE
  5
20e
100
AcDbEntity
  8
Layer_1
 62
7
100
AcDbLine
 10
-18.585793
 20
12.414203
 30
0.0
 11
-18.157176
 21
11.778481
 31
0.0
  0
LINE
  5
20f
100
AcDbEntity
  8
Layer_1
 62
7
100
AcDbLine
 10
-18.157176
 20
11.778481
 30
0.0
 11
-18.000006
 21
10.999991
 31
0.0
  0
LINE
  5
210
100
AcDbEntity
  8
Layer_1
 62
7
100
AcDbLine
 10
-8.000007
 20
11.000008
 30
0.0
 11
-8.157177
 21
10.221517
 31
0.0
  0
LINE
  5
211
100
AcDbEntity
  8
Layer_1
 62
7
100
AcDbLine
 10
-8.157177
 20
10.221517
 30
0.0
 11
-8.585794
 21
9.585792
 31
0.0
  0
LINE
  5
212
100
AcDbEntity
  8
Layer_1
 62
7
100
AcDbLine
 10
-8.585794
 20
9.585792
 30
0.0
 11
-9.221517
 21
9.157175
 31
0.0
  0
LINE
  5
213
100
AcDbEntity
  8
Layer_1
 62
7
100
AcDbLine
 10
-9.221517
 20
9.157175
 30
0.0
 11
-10.000007
 21
9.000006
 31
0.0
  0
LINE
  5
214
100
AcDbEntity
  8
Layer_1
 62
7
100
AcDbLine
 10
-10.000007
 20
9.000006
 30
0.0
 11
-10.778497
 21
9.157175
 31
0.0
  0
LINE
  5
215
100
AcDbEntity
  8
Layer_1
 62
7
100
AcDbLine
 10
-10.778497
 20
9.157175
 30
0.0
 11
-11.414221
 21
9.585792
 31
0.0
  0
LINE
  5
216
100
AcDbEntity
  8
Layer_1
 62
7
100
AcDbLine
 10
-11.414221
 20
9.585792
 30
0.0
 11
-11.842837
 21
10.221517
 31
0.0
  0
LINE
  5
217
100
AcDbEntity
  8
Layer_1
 62
7
100
AcDbLine
 10
-11.842837
 20
10.221517
 30
0.0
 11
-12.000007
 21
11.000008
 31
0.0
  0
LINE
  5
218
100
AcDbEntity
  8
Layer_1
 62
7
100
AcDbLine
 10
-12.000007
 20
11.000008
 30
0.0
 11
-11.842837
 21
11.778498
 31
0.0
  0
LINE
  5
219
100
AcDbEntity
  8
Layer_1
 62
7
100
AcDbLine
 10
-11.842837
 20
11.778498
 30
0.0
 11
-11.414221
 21
12.414220
 31
0.0
  0
LINE
  5
21a
100
AcDbEntity
  8
Layer_1
 62
7
100
AcDbLine
 10
-11.414221
 20
12.414220
 30
0.0
 11
-10.778497
 21
12.842837
 31
0.0
  0
LINE
  5
21b
100
AcDbEntity
  8
Layer_1
 62
7
100
AcDbLine
 10
-10.778497
 20
12.842837
 30
0.0
 11
-10.000007
 21
13.000006
 31
0.0
  0
LINE
  5
21c
100
AcDbEntity
  8
Layer_1
 62
7
100
AcDbLine
 10
-10.000007
 20
13.000006
 30
0.0
 11
-9.221517
 21
12.842837
 31
0.0
  0
LINE
  5
21d
100
AcDbEntity
  8
Layer_1
 62
7
100
AcDbLine
 10
-9.221517
 20
12.842837
 30
0.0
 11
-8.585794
 21
12.414220
 31
0.0
  0
LINE
  5
21e
100
AcDbEntity
  8
Layer_1
 62
7
100
AcDbLine
 10
-8.585794
 20
12.414220
 30
0.0
 11
-8.157177
 21
11.778498
 31
0.0
  0
LINE
  5
21f
100
AcDbEntity
  8
Layer_1
 62
7
100
AcDbLine
 10
-8.157177
 20
11.778498
 30
0.0
 11
-8.000007
 21
11.000008
 31
0.0
  0
LINE
  5
220
100
AcDbEntity
  8
Layer_1
 62
7
100
AcDbLine
 10
1.999990
 20
10.999991
 30
0.0
 11
1.842820
 21
10.221500
 31
0.0
  0
LINE
  5
221
100
AcDbEntity
  8
Layer_1
 62
7
100
AcDbLine
 10
1.842820
 20
10.221500
 30
0.0
 11
1.414203
 21
9.585775
 31
0.0
  0
LINE
  5
222
100
AcDbEntity
  8
Layer_1
 62
7
100
AcDbLine
 10
1.414203
 20
9.585775
 30
0.0
 11
0.778480
 21
9.157159
 31
0.0
  0
LINE
  5
223
100
AcDbEntity
  8
Layer_1
 62
7
100
AcDbLine
 10
0.778480
 20
9.157159
 30
0.0
 11
-0.000010
 21
8.999989
 31
0.0
  0
LINE
  5
224
100
AcDbEntity
  8
Layer_1
 62
7
100
AcDbLine
 10
-0.000010
 20
8.999989
 30
0.0
 11
-0.778501
 21
9.157159
 31
0.0
  0
LINE
  5
225
100
AcDbEntity
  8
Layer_1
 62
7
100
AcDbLine
 10
-0.778501
 20
9.157159
 30
0.0
 11
-1.414224
 21
9.585775
 31
0.0
  0
LINE
  5
226
100
AcDbEntity
  8
Layer_1
 62
7
100
AcDbLine
 10
-1.414224
 20
9.585775
 30
0.0
 11
-1.842840
 21
10.221500
 31
0.0
  0
LINE
  5
227
100
AcDbEntity
  8
Layer_1
 62
7
100
AcDbLine
 10
-1.842840
 20
10.221500
 30
0.0
 11
-2.000010
 21
10.999991
 31
0.0
  0
LINE
  5
228
100
AcDbEntity
  8
Layer_1
 62
7
100
AcDbLine
 10
-2.000010
 20
10.999991
 30
0.0
 11
-1.842840
 21
11.778481
 31
0.0
  0
LINE
  5
229
100
AcDbEntity
  8
Layer_1
 62
7
100
AcDbLine
 10
-1.842840
 20
11.778481
 30
0.0
 11
-1.414224
 21
12.414203
 31
0.0
  0
LINE
  5
22a
100
AcDbEntity
  8
Layer_1
 62
7
100
AcDbLine
 10
-1.414224
 20
12.414203
 30
0.0
 11
-0.778501
 21
12.842820
 31
0.0
  0
LINE
  5
22b
100
AcDbEntity
  8
Layer_1
 62
7
100
AcDbLine
 10
-0.778501
 20
12.842820
 30
0.0
 11
-0.000010
 21
12.999989
 31
0.0
  0
LINE
  5
22c
100
AcDbEntity
  8
Layer_1
 62
7
100
AcDbLine
 10
-0.000010
 20
12.999989
 30
0.0
 11
0.778480
 21
12.842820
 31
0.0
  0
LINE
  5
22d
100
AcDbEntity
  8
Layer_1
 62
7
100
AcDbLine
 10
0.778480
 20
12.842820
 30
0.0
 11
1.414203
 21
12.414203
 31
0.0
  0
LINE
  5
22e
100
AcDbEntity
  8
Layer_1
 62
7
100
AcDbLine
 10
1.414203
 20
12.414203
 30
0.0
 11
1.842820
 21
11.778481
 31
0.0
  0
LINE
  5
22f
100
AcDbEntity
  8
Layer_1
 62
7
100
AcDbLine
 10
1.842820
 20
11.778481
 30
0.0
 11
1.999990
 21
10.999991
 31
0.0
  0
LINE
  5
230
100
AcDbEntity
  8
Layer_1
 62
7
100
AcDbLine
 10
11.999990
 20
11.000008
 30
0.0
 11
11.842820
 21
10.221517
 31
0.0
  0
LINE
  5
231
100
AcDbEntity
  8
Layer_1
 62
7
100
AcDbLine
 10
11.842820
 20
10.221517
 30
0.0
 11
11.414203
 21
9.585792
 31
0.0
  0
LINE
  5
232
100
AcDbEntity
  8
Layer_1
 62
7
100
AcDbLine
 10
11.414203
 20
9.585792
 30
0.0
 11
10.778480
 21
9.157175
 31
0.0
  0
LINE
  5
233
100
AcDbEntity
  8
Layer_1
 62
7
100
AcDbLine
 10
10.778480
 20
9.157175
 30
0.0
 11
9.999990
 21
9.000006
 31
0.0
  0
LINE
  5
234
100
AcDbEntity
  8
Layer_1
 62
7
100
AcDbLine
 10
9.999990
 20
9.000006
 30
0.0
 11
9.221499
 21
9.157175
 31
0.0
  0
LINE
  5
235
100
AcDbEntity
  8
Layer_1
 62
7
100
AcDbLine
 10
9.221499
 20
9.157175
 30
0.0
 11
8.585776
 21
9.585792
 31
0.0
  0
LINE
  5
236
100
AcDbEntity
  8
Layer_1
 62
7
100
AcDbLine
 10
8.585776
 20
9.585792
 30
0.0
 11
8.157160
 21
10.221517
 31
0.0
  0
LINE
  5
237
100
AcDbEntity
  8
Layer_1
 62
7
100
AcDbLine
 10
8.157160
 20
10.221517
 30
0.0
 11
7.999990
 21
11.000008
 31
0.0
  0
LINE
  5
238
100
AcDbEntity
  8
Layer_1
 62
7
100
AcDbLine
 10
7.999990
 20
11.000008
 30
0.0
 11
8.157160
 21
11.778498
 31
0.0
  0
LINE
  5
239
100
AcDbEntity
  8
Layer_1
 62
7
100
AcDbLine
 10
8.157160
 20
11.778498
 30
0.0
 11
8.585776
 21
12.414220
 31
0.0
  0
LINE
  5
23a
100
AcDbEntity
  8
Layer_1
 62
7
100
AcDbLine
 10
8.585776
 20
12.414220
 30
0.0
 11
9.221499
 21
12.842837
 31
0.0
  0
LINE
  5
23b
100
AcDbEntity
  8
Layer_1
 62
7
100
AcDbLine
 10
9.221499
 20
12.842837
 30
0.0
 11
9.999990
 21
13.000006
 31
0.0
  0
LINE
  5
23c
100
AcDbEntity
  8
Layer_1
 62
7
100
AcDbLine
 10
9.999990
 20
13.000006
 30
0.0
 11
10.778480
 21
12.842837
 31
0.0
  0
LINE
  5
23d
100
AcDbEntity
  8
Layer_1
 62
7
100
AcDbLine
 10
10.778480
 20
12.842837
 30
0.0
 11
11.414203
 21
12.414220
 31
0.0
  0
LINE
  5
23e
100
AcDbEntity
  8
Layer_1
 62
7
100
AcDbLine
 10
11.414203
 20
12.414220
 30
0.0
 11
11.842820
 21
11.778498
 31
0.0
  0
LINE
  5
23f
100
AcDbEntity
  8
Layer_1
 62
7
100
AcDbLine
 10
11.842820
 20
11.778498
 30
0.0
 11
11.999990
 21
11.000008
 31
0.0
  0
LINE
  5
240
100
AcDbEntity
  8
Layer_1
 62
7
100
AcDbLine
 10
21.999992
 20
10.999991
 30
0.0
 11
21.842822
 21
10.221500
 31
0.0
  0
LINE
  5
241
100
AcDbEntity
  8
Layer_1
 62
7
100
AcDbLine
 10
21.842822
 20
10.221500
 30
0.0
 11
21.414206
 21
9.585775
 31
0.0
  0
LINE
  5
242
100
AcDbEntity
  8
Layer_1
 62
7
100
AcDbLine
 10
21.414206
 20
9.585775
 30
0.0
 11
20.778482
 21
9.157159
 31
0.0
  0
LINE
  5
243
100
AcDbEntity
  8
Layer_1
 62
7
100
AcDbLine
 10
20.778482
 20
9.157159
 30
0.0
 11
19.999992
 21
8.999989
 31
0.0
  0
LINE
  5
244
100
AcDbEntity
  8
Layer_1
 62
7
100
AcDbLine
 10
19.999992
 20
8.999989
 30
0.0
 11
19.221502
 21
9.157159
 31
0.0
  0
LINE
  5
245
100
AcDbEntity
  8
Layer_1
 62
7
100
AcDbLine
 10
19.221502
 20
9.157159
 30
0.0
 11
18.585778
 21
9.585775
 31
0.0
  0
LINE
  5
246
100
AcDbEntity
  8
Layer_1
 62
7
100
AcDbLine
 10
18.585778
 20
9.585775
 30
0.0
 11
18.157162
 21
10.221500
 31
0.0
  0
LINE
  5
247
100
AcDbEntity
  8
Layer_1
 62
7
100
AcDbLine
 10
18.157162
 20
10.221500
 30
0.0
 11
17.999992
 21
10.999991
 31
0.0
  0
LINE
  5
248
100
AcDbEntity
  8
Layer_1
 62
7
100
AcDbLine
 10
17.999992
 20
10.999991
 30
0.0
 11
18.157162
 21
11.778481
 31
0.0
  0
LINE
  5
249
100
AcDbEntity
  8
Layer_1
 62
7
100
AcDbLine
 10
18.157162
 20
11.778481
 30
0.0
 11
18.585778
 21
12.414203
 31
0.0
  0
LINE
  5
24a
100
AcDbEntity
  8
Layer_1
 62
7
100
AcDbLine
 10
18.585778
 20
12.414203
 30
0.0
 11
19.221502
 21
12.842820
 31
0.0
  0
LINE
  5
24b
100
AcDbEntity
  8
Layer_1
 62
7
100
AcDbLine
 10
19.221502
 20
12.842820
 30
0.0
 11
19.999992
 21
12.999989
 31
0.0
  0
LINE
  5
24c
100
AcDbEntity
  8
Layer_1
 62
7
100
AcDbLine
 10
19.999992
 20
12.999989
 30
0.0
 11
20.778482
 21
12.842820
 31
0.0
  0
LINE
  5
24d
100
AcDbEntity
  8
Layer_1
 62
7
100
AcDbLine
 10
20.778482
 20
12.842820
 30
0.0
 11
21.414206
 21
12.414203
 31
0.0
  0
LINE
  5
24e
100
AcDbEntity
  8
Layer_1
 62
7
100
AcDbLine
 10
21.414206
 20
12.414203
 30
0.0
 11
21.842822
 21
11.778481
 31
0.0
  0
LINE
  5
24f
100
AcDbEntity
  8
Layer_1
 62
7
100
AcDbLine
 10
21.842822
 20
11.778481
 30
0.0
 11
21.999992
 21
10.999991
 31
0.0
  0
LINE
  5
250
100
AcDbEntity
  8
Layer_1
 62
7
100
AcDbLine
 10
31.999996
 20
11.000008
 30
0.0
 11
31.842827
 21
10.221517
 31
0.0
  0
LINE
  5
251
100
AcDbEntity
  8
Layer_1
 62
7
100
AcDbLine
 10
31.842827
 20
10.221517
 30
0.0
 11
31.414210
 21
9.585792
 31
0.0
  0
LINE
  5
252
100
AcDbEntity
  8
Layer_1
 62
7
100
AcDbLine
 10
31.414210
 20
9.585792
 30
0.0
 11
30.778488
 21
9.157175
 31
0.0
  0
LINE
  5
253
100
AcDbEntity
  8
Layer_1
 62
7
100
AcDbLine
 10
30.778488
 20
9.157175
 30
0.0
 11
29.999997
 21
9.000006
 31
0.0
  0
LINE
  5
254
100
AcDbEntity
  8
Layer_1
 62
7
100
AcDbLine
 10
29.999997
 20
9.000006
 30
0.0
 11
29.221507
 21
9.157175
 31
0.0
  0
LINE
  5
255
100
AcDbEntity
  8
Layer_1
 62
7
100
AcDbLine
 10
29.221507
 20
9.157175
 30
0.0
 11
28.585785
 21
9.585792
 31
0.0
  0
LINE
  5
256
100
AcDbEntity
  8
Layer_1
 62
7
100
AcDbLine
 10
28.585785
 20
9.585792
 30
0.0
 11
28.157167
 21
10.221517
 31
0.0
  0
LINE
  5
257
100
AcDbEntity
  8
Layer_1
 62
7
100
AcDbLine
 10
28.157167
 20
10.221517
 30
0.0
 11
27.999997
 21
11.000008
 31
0.0
  0
LINE
  5
258
100
AcDbEntity
  8
Layer_1
 62
7
100
AcDbLine
 10
27.999997
 20
11.000008
 30
0.0
 11
28.157167
 21
11.778498
 31
0.0
  0
LINE
  5
259
100
AcDbEntity
  8
Layer_1
 62
7
100
AcDbLine
 10
28.157167
 20
11.778498
 30
0.0
 11
28.585785
 21
12.414220
 31
0.0
  0
LINE
  5
25a
100
AcDbEntity
  8
Layer_1
 62
7
100
AcDbLine
 10
28.585785
 20
12.414220
 30
0.0
 11
29.221507
 21
12.842837
 31
0.0
  0
LINE
  5
25b
100
AcDbEntity
  8
Layer_1
 62
7
100
AcDbLine
 10
29.221507
 20
12.842837
 30
0.0
 11
29.999997
 21
13.000006
 31
0.0
  0
LINE
  5
25c
100
AcDbEntity
  8
Layer_1
 62
7
100
AcDbLine
 10
29.999997
 20
13.000006
 30
0.0
 11
30.778488
 21
12.842837
 31
0.0
  0
LINE
  5
25d
100
AcDbEntity
  8
Layer_1
 62
7
100
AcDbLine
 10
30.778488
 20
12.842837
 30
0.0
 11
31.414210
 21
12.414220
 31
0.0
  0
LINE
  5
25e
100
AcDbEntity
  8
Layer_1
 62
7
100
AcDbLine
 10
31.414210
 20
12.414220
 30
0.0
 11
31.842827
 21
11.778498
 31
0.0
  0
LINE
  5
25f
100
AcDbEntity
  8
Layer_1
 62
7
100
AcDbLine
 10
31.842827
 20
11.778498
 30
0.0
 11
31.999996
 21
11.000008
 31
0.0
  0
LINE
  5
260
100
AcDbEntity
  8
Layer_1
 62
7
100
AcDbLine
 10
41.999999
 20
10.999991
 30
0.0
 11
41.842829
 21
10.221500
 31
0.0
  0
LINE
  5
261
100
AcDbEntity
  8
Layer_1
 62
7
100
AcDbLine
 10
41.842829
 20
10.221500
 30
0.0
 11
41.414213
 21
9.585775
 31
0.0
  0
LINE
  5
262
100
AcDbEntity
  8
Layer_1
 62
7
100
AcDbLine
 10
41.414213
 20
9.585775
 30
0.0
 11
40.778490
 21
9.157159
 31
0.0
  0
LINE
  5
263
100
AcDbEntity
  8
Layer_1
 62
7
100
AcDbLine
 10
40.778490
 20
9.157159
 30
0.0
 11
40.000000
 21
8.999989
 31
0.0
  0
LINE
  5
264
100
AcDbEntity
  8
Layer_1
 62
7
100
AcDbLine
 10
40.000000
 20
8.999989
 30
0.0
 11
39.221510
 21
9.157159
 31
0.0
  0
LINE
  5
265
100
AcDbEntity
  8
Layer_1
 62
7
100
AcDbLine
 10
39.221510
 20
9.157159
 30
0.0
 11
38.585784
 21
9.585775
 31
0.0
  0
LINE
  5
266
100
AcDbEntity
  8
Layer_1
 62
7
100
AcDbLine
 10
38.585784
 20
9.585775
 30
0.0
 11
38.157168
 21
10.221500
 31
0.0
  0
LINE
  5
267
100
AcDbEntity
  8
Layer_1
 62
7
100
AcDbLine
 10
38.157168
 20
10.221500
 30
0.0
 11
37.999998
 21
10.999991
 31
0.0
  0
LINE
  5
268
100
AcDbEntity
  8
Layer_1
 62
7
100
AcDbLine
 10
37.999998
 20
10.999991
 30
0.0
 11
38.157168
 21
11.778481
 31
0.0
  0
LINE
  5
269
100
AcDbEntity
  8
Layer_1
 62
7
100
AcDbLine
 10
38.157168
 20
11.778481
 30
0.0
 11
38.585784
 21
12.414203
 31
0.0
  0
LINE
  5
26a
100
AcDbEntity
  8
Layer_1
 62
7
100
AcDbLine
 10
38.585784
 20
12.414203
 30
0.0
 11
39.221510
 21
12.842820
 31
0.0
  0
LINE
  5
26b
100
AcDbEntity
  8
Layer_1
 62
7
100
AcDbLine
 10
39.221510
 20
12.842820
 30
0.0
 11
40.000000
 21
12.999989
 31
0.0
  0
LINE
  5
26c
100
AcDbEntity
  8
Layer_1
 62
7
100
AcDbLine
 10
40.000000
 20
12.999989
 30
0.0
 11
40.778490
 21
12.842820
 31
0.0
  0
LINE
  5
26d
100
AcDbEntity
  8
Layer_1
 62
7
100
AcDbLine
 10
40.778490
 20
12.842820
 30
0.0
 11
41.414213
 21
12.414203
 31
0.0
  0
LINE
  5
26e
100
AcDbEntity
  8
Layer_1
 62
7
100
AcDbLine
 10
41.414213
 20
12.414203
 30
0.0
 11
41.842829
 21
11.778481
 31
0.0
  0
LINE
  5
26f
100
AcDbEntity
  8
Layer_1
 62
7
100
AcDbLine
 10
41.842829
 20
11.778481
 30
0.0
 11
41.999999
 21
10.999991
 31
0.0
  0
LINE
  5
270
100
AcDbEntity
  8
Layer_1
 62
7
100
AcDbLine
 10
51.999990
 20
11.000008
 30
0.0
 11
51.842821
 21
10.221517
 31
0.0
  0
LINE
  5
271
100
AcDbEntity
  8
Layer_1
 62
7
100
AcDbLine
 10
51.842821
 20
10.221517
 30
0.0
 11
51.414204
 21
9.585792
 31
0.0
  0
LINE
  5
272
100
AcDbEntity
  8
Layer_1
 62
7
100
AcDbLine
 10
51.414204
 20
9.585792
 30
0.0
 11
50.778482
 21
9.157175
 31
0.0
  0
LINE
  5
273
100
AcDbEntity
  8
Layer_1
 62
7
100
AcDbLine
 10
50.778482
 20
9.157175
 30
0.0
 11
49.999991
 21
9.000006
 31
0.0
  0
LINE
  5
274
100
AcDbEntity
  8
Layer_1
 62
7
100
AcDbLine
 10
49.999991
 20
9.000006
 30
0.0
 11
49.221501
 21
9.157175
 31
0.0
  0
LINE
  5
275
100
AcDbEntity
  8
Layer_1
 62
7
100
AcDbLine
 10
49.221501
 20
9.157175
 30
0.0
 11
48.585779
 21
9.585792
 31
0.0
  0
LINE
  5
276
100
AcDbEntity
  8
Layer_1
 62
7
100
AcDbLine
 10
48.585779
 20
9.585792
 30
0.0
 11
48.157162
 21
10.221517
 31
0.0
  0
LINE
  5
277
100
AcDbEntity
  8
Layer_1
 62
7
100
AcDbLine
 10
48.157162
 20
10.221517
 30
0.0
 11
47.999992
 21
11.000008
 31
0.0
  0
LINE
  5
278
100
AcDbEntity
  8
Layer_1
 62
7
100
AcDbLine
 10
47.999992
 20
11.000008
 30
0.0
 11
48.157162
 21
11.778498
 31
0.0
  0
LINE
  5
279
100
AcDbEntity
  8
Layer_1
 62
7
100
AcDbLine
 10
48.157162
 20
11.778498
 30
0.0
 11
48.585779
 21
12.414220
 31
0.0
  0
LINE
  5
27a
100
AcDbEntity
  8
Layer_1
 62
7
100
AcDbLine
 10
48.585779
 20
12.414220
 30
0.0
 11
49.221501
 21
12.842837
 31
0.0
  0
LINE
  5
27b
100
AcDbEntity
  8
Layer_1
 62
7
100
AcDbLine
 10
49.221501
 20
12.842837
 30
0.0
 11
49.999991
 21
13.000006
 31
0.0
  0
LINE
  5
27c
100
AcDbEntity
  8
Layer_1
 62
7
100
AcDbLine
 10
49.999991
 20
13.000006
 30
0.0
 11
50.778482
 21
12.842837
 31
0.0
  0
LINE
  5
27d
100
AcDbEntity
  8
Layer_1
 62
7
100
AcDbLine
 10
50.778482
 20
12.842837
 30
0.0
 11
51.414204
 21
12.414220
 31
0.0
  0
LINE
  5
27e
100
AcDbEntity
  8
Layer_1
 62
7
100
AcDbLine
 10
51.414204
 20
12.414220
 30
0.0
 11
51.842821
 21
11.778498
 31
0.0
  0
LINE
  5
27f
100
AcDbEntity
  8
Layer_1
 62
7
100
AcDbLine
 10
51.842821
 20
11.778498
 30
0.0
 11
51.999990
 21
11.000008
 31
0.0
  0
LINE
  5
280
100
AcDbEntity
  8
Layer_1
 62
7
100
AcDbLine
 10
-7.000022
 20
-7.500026
 30
0.0
 11
-3.500015
 21
-7.500026
 31
0.0
  0
LINE
  5
281
100
AcDbEntity
  8
Layer_1
 62
7
100
AcDbLine
 10
-3.500015
 20
-7.500026
 30
0.0
 11
-0.000008
 21
-7.500026
 31
0.0
  0
LINE
  5
282
100
AcDbEntity
  8
Layer_1
 62
7
100
AcDbLine
 10
-0.000008
 20
-7.500026
 30
0.0
 11
3.499999
 21
-7.500026
 31
0.0
  0
LINE
  5
283
100
AcDbEntity
  8
Layer_1
 62
7
100
AcDbLine
 10
3.499999
 20
-7.500026
 30
0.0
 11
7.000007
 21
-7.500026
 31
0.0
  0
LINE
  5
284
100
AcDbEntity
  8
Layer_1
 62
7
100
AcDbLine
 10
7.000007
 20
-7.500026
 30
0.0
 11
8.734374
 21
-5.449258
 31
0.0
  0
LINE
  5
285
100
AcDbEntity
  8
Layer_1
 62
7
100
AcDbLine
 10
8.734374
 20
-5.449258
 30
0.0
 11
9.624995
 21
-3.281284
 31
0.0
  0
LINE
  5
286
100
AcDbEntity
  8
Layer_1
 62
7
100
AcDbLine
 10
9.624995
 20
-3.281284
 30
0.0
 11
9.953119
 21
-1.230516
 31
0.0
  0
LINE
  5
287
100
AcDbEntity
  8
Layer_1
 62
7
100
AcDbLine
 10
9.953119
 20
-1.230516
 30
0.0
 11
9.999994
 21
-0.000055
 31
0.0
  0
LINE
  5
288
100
AcDbEntity
  8
Layer_1
 62
7
100
AcDbLine
 10
9.999994
 20
-0.000055
 30
0.0
 11
9.953119
 21
1.025343
 31
0.0
  0
LINE
  5
289
100
AcDbEntity
  8
Layer_1
 62
7
100
AcDbLine
 10
9.953119
 20
1.025343
 30
0.0
 11
9.624995
 21
3.046844
 31
0.0
  0
LINE
  5
28a
100
AcDbEntity
  8
Layer_1
 62
7
100
AcDbLine
 10
9.624995
 20
3.046844
 30
0.0
 11
8.734374
 21
5.361292
 31
0.0
  0
LINE
  5
28b
100
AcDbEntity
  8
Layer_1
 62
7
100
AcDbLine
 10
8.734374
 20
5.361292
 30
0.0
 11
7.000007
 21
7.500000
 31
0.0
  0
LINE
  5
28c
100
AcDbEntity
  8
Layer_1
 62
7
100
AcDbLine
 10
7.000007
 20
7.500000
 30
0.0
 11
3.499999
 21
7.500000
 31
0.0
  0
LINE
  5
28d
100
AcDbEntity
  8
Layer_1
 62
7
100
AcDbLine
 10
3.499999
 20
7.500000
 30
0.0
 11
-0.000008
 21
7.500000
 31
0.0
  0
LINE
  5
28e
100
AcDbEntity
  8
Layer_1
 62
7
100
AcDbLine
 10
-0.000008
 20
7.500000
 30
0.0
 11
-3.500015
 21
7.500000
 31
0.0
  0
LINE
  5
28f
100
AcDbEntity
  8
Layer_1
 62
7
100
AcDbLine
 10
-3.500015
 20
7.500000
 30
0.0
 11
-7.000022
 21
7.500000
 31
0.0
  0
LINE
  5
290
100
AcDbEntity
  8
Layer_1
 62
7
100
AcDbLine
 10
-7.000022
 20
7.500000
 30
0.0
 11
-8.734389
 21
5.449204
 31
0.0
  0
LINE
  5
291
100
AcDbEntity
  8
Layer_1
 62
7
100
AcDbLine
 10
-8.734389
 20
5.449204
 30
0.0
 11
-9.625009
 21
3.281202
 31
0.0
  0
LINE
  5
292
100
AcDbEntity
  8
Layer_1
 62
7
100
AcDbLine
 10
-9.625009
 20
3.281202
 30
0.0
 11
-9.953133
 21
1.230406
 31
0.0
  0
LINE
  5
293
100
AcDbEntity
  8
Layer_1
 62
7
100
AcDbLine
 10
-9.953133
 20
1.230406
 30
0.0
 11
-10.000007
 21
-0.000055
 31
0.0
  0
LINE
  5
294
100
AcDbEntity
  8
Layer_1
 62
7
100
AcDbLine
 10
-10.000007
 20
-0.000055
 30
0.0
 11
-9.953133
 21
-1.025453
 31
0.0
  0
LINE
  5
295
100
AcDbEntity
  8
Layer_1
 62
7
100
AcDbLine
 10
-9.953133
 20
-1.025453
 30
0.0
 11
-9.625009
 21
-3.046926
 31
0.0
  0
LINE
  5
296
100
AcDbEntity
  8
Layer_1
 62
7
100
AcDbLine
 10
-9.625009
 20
-3.046926
 30
0.0
 11
-8.734389
 21
-5.361374
 31
0.0
  0
LINE
  5
297
100
AcDbEntity
  8
Layer_1
 62
7
100
AcDbLine
 10
-8.734389
 20
-5.361374
 30
0.0
 11
-7.000022
 21
-7.500026
 31
0.0
  0
ENDSEC
  0
SECTION
  2
OBJECTS
  0
DICTIONARY
  5
C
330
0
100
AcDbDictionary
  3
ACAD_GROUP
350
D
  3
ACAD_MLINESTYLE
350
17
  0
DICTIONARY
  5
D
330
C
100
AcDbDictionary
  0
DICTIONARY
  5
1A
330
C
100
AcDbDictionary
  0
DICTIONARY
  5
17
330
C
100
AcDbDictionary
  3
STANDARD
350
18
  0
DICTIONARY
  5
19
330
C
100
AcDbDictionary
  0
ENDSEC
  0
EOF
