  0
SECTION
  2
HEADER
  9
$ACADVER
  1
AC1014
  9
$HANDSEED
  5
FFFF
  9
$MEASUREMENT
 70
     1
  0
ENDSEC
  0
SECTION
  2
TABLES
  0
TABLE
  2
VPORT
  5
8
330
0
100
AcDbSymbolTable
 70
     4
  0
VPORT
  5
2E
330
8
100
AcDbSymbolTableRecord
100
AcDbViewportTableRecord
  2
*ACTIVE
 70
     0
 10
0.0
 20
0.0
 11
1.0
 21
1.0
 12
210.0
 22
148.5
 13
0.0
 23
0.0
 14
10.0
 24
10.0
 15
10.0
 25
10.0
 16
0.0
 26
0.0
 36
1.0
 17
0.0
 27
0.0
 37
0.0
 40
341.0
 41
1.24
 42
50.0
 43
0.0
 44
0.0
 50
0.0
 51
0.0
 71
     0
 72
   100
 73
     1
 74
     3
 75
     0
 76
     0
 77
     0
 78
     0
  0
ENDTAB
  0
TABLE
  2
LTYPE
  5
5
330
0
100
AcDbSymbolTable
 70
     1
  0
LTYPE
  5
14
330
5
100
AcDbSymbolTableRecord
100
AcDbLinetypeTableRecord
  2
BYBLOCK
 70
     0
  3

 72
    65
 73
     0
 40
0.0
  0
LTYPE
  5
15
330
5
100
AcDbSymbolTableRecord
100
AcDbLinetypeTableRecord
  2
BYLAYER
 70
     0
  3

 72
    65
 73
     0
 40
0.0
  0
LTYPE
  5
16
330
5
100
AcDbSymbolTableRecord
100
AcDbLinetypeTableRecord
  2
CONTINUOUS
 70
     0
  3
Solid line
 72
    65
 73
     0
 40
0.0
  0
ENDTAB
  0
TABLE
  2
LAYER
  5
2
100
AcDbSymbolTable
 70
2
  0
LAYER
  5
50
100
AcDbSymbolTableRecord
100
AcDbLayerTableRecord
  2
0
 70
0
  6
CONTINUOUS
  0
LAYER
  5
51
100
AcDbSymbolTableRecord
100
AcDbLayerTableRecord
  2
Layer_1
 70
0
  6
CONTINUOUS
  0
ENDTAB
  0
TABLE
  2
STYLE
  5
3
330
0
100
AcDbSymbolTable
 70
     1
  0
STYLE
  5
11
330
3
100
AcDbSymbolTableRecord
100
AcDbTextStyleTableRecord
  2
STANDARD
 70
     0
 40
0.0
 41
1.0
 50
0.0
 71
     0
 42
2.5
  3
txt
  4

  0
ENDTAB
  0
TABLE
  2
VIEW
  5
6
330
0
100
AcDbSymbolTable
 70
     0
  0
ENDTAB
  0
TABLE
  2
UCS
  5
7
330
0
100
AcDbSymbolTable
 70
     0
  0
ENDTAB
  0
TABLE
  2
APPID
  5
9
330
0
100
AcDbSymbolTable
 70
     2
  0
APPID
  5
12
330
9
100
AcDbSymbolTableRecord
100
AcDbRegAppTableRecord
  2
ACAD
 70
     0
  0
ENDTAB
  0
TABLE
  2
DIMSTYLE
  5
A
330
0
100
AcDbSymbolTable
 70
     1
  0
DIMSTYLE
105
27
330
A
100
AcDbSymbolTableRecord
100
AcDbDimStyleTableRecord
  2
ISO-25
 70
     0
  3

  4

  5

  6

  7

 40
1.0
 41
2.5
 42
0.625
 43
3.75
 44
1.25
 45
0.0
 46
0.0
 47
0.0
 48
0.0
140
2.5
141
2.5
142
0.0
143
0.03937007874016
144
1.0
145
0.0
146
1.0
147
0.625
 71
     0
 72
     0
 73
     0
 74
     0
 75
     0
 76
     0
 77
     1
 78
     8
170
     0
171
     3
172
     1
173
     0
174
     0
175
     0
176
     0
177
     0
178
     0
270
     2
271
     2
272
     2
273
     2
274
     3
340
11
275
     0
280
     0
281
     0
282
     0
283
     0
284
     8
285
     0
286
     0
287
     3
288
     0
  0
ENDTAB
  0
TABLE
  2
BLOCK_RECORD
  5
1
330
0
100
AcDbSymbolTable
 70
     1
  0
BLOCK_RECORD
  5
1F
330
1
100
AcDbSymbolTableRecord
100
AcDbBlockTableRecord
  2
*MODEL_SPACE
  0
BLOCK_RECORD
  5
1B
330
1
100
AcDbSymbolTableRecord
100
AcDbBlockTableRecord
  2
*PAPER_SPACE
  0
ENDTAB
  0
ENDSEC
  0
SECTION
  2
BLOCKS
  0
BLOCK
  5
20
330
1F
100
AcDbEntity
  8
0
100
AcDbBlockBegin
  2
*MODEL_SPACE
 70
     0
 10
0.0
 20
0.0
 30
0.0
  3
*MODEL_SPACE
  1

  0
ENDBLK
  5
21
330
1F
100
AcDbEntity
  8
0
100
AcDbBlockEnd
  0
BLOCK
  5
1C
330
1B
100
AcDbEntity
 67
     1
  8
0
100
AcDbBlockBegin
  2
*PAPER_SPACE
  1

  0
ENDBLK
  5
1D
330
1B
100
AcDbEntity
 67
     1
  8
0
100
AcDbBlockEnd
  0
ENDSEC
  0
SECTION
  2
ENTITIES
  0
LINE
  5
100
100
AcDbEntity
  8
Layer_1
 62
7
100
AcDbLine
 10
-49.930454
 20
-17.999991
 30
0.0
 11
-24.965227
 21
-17.999991
 31
0.0
  0
LINE
  5
101
100
AcDbEntity
  8
Layer_1
 62
7
100
AcDbLine
 10
-24.965227
 20
-17.999991
 30
0.0
 11
0.000000
 21
-17.999991
 31
0.0
  0
LINE
  5
102
100
AcDbEntity
  8
Layer_1
 62
7
100
AcDbLine
 10
0.000000
 20
-17.999991
 30
0.0
 11
24.965227
 21
-17.999991
 31
0.0
  0
LINE
  5
103
100
AcDbEntity
  8
Layer_1
 62
7
100
AcDbLine
 10
24.965227
 20
-17.999991
 30
0.0
 11
49.930454
 21
-17.999991
 31
0.0
  0
LINE
  5
104
100
AcDbEntity
  8
Layer_1
 62
7
100
AcDbLine
 10
49.930454
 20
-17.999991
 30
0.0
 11
51.127482
 21
-17.759509
 31
0.0
  0
LINE
  5
105
100
AcDbEntity
  8
Layer_1
 62
7
100
AcDbLine
 10
51.127482
 20
-17.759509
 30
0.0
 11
52.102924
 21
-17.102919
 31
0.0
  0
LINE
  5
106
100
AcDbEntity
  8
Layer_1
 62
7
100
AcDbLine
 10
52.102924
 20
-17.102919
 30
0.0
 11
52.759520
 21
-16.127475
 31
0.0
  0
LINE
  5
107
100
AcDbEntity
  8
Layer_1
 62
7
100
AcDbLine
 10
52.759520
 20
-16.127475
 30
0.0
 11
52.999998
 21
-14.930457
 31
0.0
  0
LINE
  5
108
100
AcDbEntity
  8
Layer_1
 62
7
100
AcDbLine
 10
52.999998
 20
-14.930457
 30
0.0
 11
52.999998
 21
-8.465226
 31
0.0
  0
LINE
  5
109
100
AcDbEntity
  8
Layer_1
 62
7
100
AcDbLine
 10
52.999998
 20
-8.465226
 30
0.0
 11
52.999998
 21
-1.999995
 31
0.0
  0
LINE
  5
10a
100
AcDbEntity
  8
Layer_1
 62
7
100
AcDbLine
 10
52.999998
 20
-1.999995
 30
0.0
 11
52.999998
 21
4.465237
 31
0.0
  0
LINE
  5
10b
100
AcDbEntity
  8
Layer_1
 62
7
100
AcDbLine
 10
52.999998
 20
4.465237
 30
0.0
 11
52.999998
 21
10.930468
 31
0.0
  0
LINE
  5
10c
100
AcDbEntity
  8
Layer_1
 62
7
100
AcDbLine
 10
52.999998
 20
10.930468
 30
0.0
 11
52.759520
 21
12.127485
 31
0.0
  0
LINE
  5
10d
100
AcDbEntity
  8
Layer_1
 62
7
100
AcDbLine
 10
52.759520
 20
12.127485
 30
0.0
 11
52.102924
 21
13.102930
 31
0.0
  0
LINE
  5
10e
100
AcDbEntity
  8
Layer_1
 62
7
100
AcDbLine
 10
52.102924
 20
13.102930
 30
0.0
 11
51.127482
 21
13.759520
 31
0.0
  0
LINE
  5
10f
100
AcDbEntity
  8
Layer_1
 62
7
100
AcDbLine
 10
51.127482
 20
13.759520
 30
0.0
 11
49.930454
 21
14.000002
 31
0.0
  0
LINE
  5
110
100
AcDbEntity
  8
Layer_1
 62
7
100
AcDbLine
 10
49.930454
 20
14.000002
 30
0.0
 11
24.965227
 21
14.000002
 31
0.0
  0
LINE
  5
111
100
AcDbEntity
  8
Layer_1
 62
7
100
AcDbLine
 10
24.965227
 20
14.000002
 30
0.0
 11
0.000000
 21
14.000002
 31
0.0
  0
LINE
  5
112
100
AcDbEntity
  8
Layer_1
 62
7
100
AcDbLine
 10
0.000000
 20
14.000002
 30
0.0
 11
-24.965227
 21
14.000002
 31
0.0
  0
LINE
  5
113
100
AcDbEntity
  8
Layer_1
 62
7
100
AcDbLine
 10
-24.965227
 20
14.000002
 30
0.0
 11
-49.930454
 21
14.000002
 31
0.0
  0
LINE
  5
114
100
AcDbEntity
  8
Layer_1
 62
7
100
AcDbLine
 10
-49.930454
 20
14.000002
 30
0.0
 11
-51.127482
 21
13.759520
 31
0.0
  0
LINE
  5
115
100
AcDbEntity
  8
Layer_1
 62
7
100
AcDbLine
 10
-51.127482
 20
13.759520
 30
0.0
 11
-52.102924
 21
13.102930
 31
0.0
  0
LINE
  5
116
100
AcDbEntity
  8
Layer_1
 62
7
100
AcDbLine
 10
-52.102924
 20
13.102930
 30
0.0
 11
-52.759520
 21
12.127485
 31
0.0
  0
LINE
  5
117
100
AcDbEntity
  8
Layer_1
 62
7
100
AcDbLine
 10
-52.759520
 20
12.127485
 30
0.0
 11
-52.999998
 21
10.930468
 31
0.0
  0
LINE
  5
118
100
AcDbEntity
  8
Layer_1
 62
7
100
AcDbLine
 10
-52.999998
 20
10.930468
 30
0.0
 11
-52.999998
 21
4.465237
 31
0.0
  0
LINE
  5
119
100
AcDbEntity
  8
Layer_1
 62
7
100
AcDbLine
 10
-52.999998
 20
4.465237
 30
0.0
 11
-52.999998
 21
-1.999995
 31
0.0
  0
LINE
  5
11a
100
AcDbEntity
  8
Layer_1
 62
7
100
AcDbLine
 10
-52.999998
 20
-1.999995
 30
0.0
 11
-52.999998
 21
-8.465226
 31
0.0
  0
LINE
  5
11b
100
AcDbEntity
  8
Layer_1
 62
7
100
AcDbLine
 10
-52.999998
 20
-8.465226
 30
0.0
 11
-52.999998
 21
-14.930457
 31
0.0
  0
LINE
  5
11c
100
AcDbEntity
  8
Layer_1
 62
7
100
AcDbLine
 10
-52.999998
 20
-14.930457
 30
0.0
 11
-52.759520
 21
-16.127475
 31
0.0
  0
LINE
  5
11d
100
AcDbEntity
  8
Layer_1
 62
7
100
AcDbLine
 10
-52.759520
 20
-16.127475
 30
0.0
 11
-52.102924
 21
-17.102919
 31
0.0
  0
LINE
  5
11e
100
AcDbEntity
  8
Layer_1
 62
7
100
AcDbLine
 10
-52.102924
 20
-17.102919
 30
0.0
 11
-51.127482
 21
-17.759509
 31
0.0
  0
LINE
  5
11f
100
AcDbEntity
  8
Layer_1
 62
7
100
AcDbLine
 10
-51.127482
 20
-17.759509
 30
0.0
 11
-49.930454
 21
-17.999991
 31
0.0
  0
LINE
  5
120
100
AcDbEntity
  8
Layer_1
 62
7
100
AcDbLine
 10
-47.499992
 20
-13.999999
 30
0.0
 11
-47.617865
 21
-14.583860
 31
0.0
  0
LINE
  5
121
100
AcDbEntity
  8
Layer_1
 62
7
100
AcDbLine
 10
-47.617865
 20
-14.583860
 30
0.0
 11
-47.939328
 21
-15.060675
 31
0.0
  0
LINE
  5
122
100
AcDbEntity
  8
Layer_1
 62
7
100
AcDbLine
 10
-47.939328
 20
-15.060675
 30
0.0
 11
-48.416123
 21
-15.382126
 31
0.0
  0
LINE
  5
123
100
AcDbEntity
  8
Layer_1
 62
7
100
AcDbLine
 10
-48.416123
 20
-15.382126
 30
0.0
 11
-48.999992
 21
-15.500010
 31
0.0
  0
LINE
  5
124
100
AcDbEntity
  8
Layer_1
 62
7
100
AcDbLine
 10
-48.999992
 20
-15.500010
 30
0.0
 11
-49.583865
 21
-15.382126
 31
0.0
  0
LINE
  5
125
100
AcDbEntity
  8
Layer_1
 62
7
100
AcDbLine
 10
-49.583865
 20
-15.382126
 30
0.0
 11
-50.060657
 21
-15.060675
 31
0.0
  0
LINE
  5
126
100
AcDbEntity
  8
Layer_1
 62
7
100
AcDbLine
 10
-50.060657
 20
-15.060675
 30
0.0
 11
-50.382119
 21
-14.583860
 31
0.0
  0
LINE
  5
127
100
AcDbEntity
  8
Layer_1
 62
7
100
AcDbLine
 10
-50.382119
 20
-14.583860
 30
0.0
 11
-50.499995
 21
-13.999999
 31
0.0
  0
LINE
  5
128
100
AcDbEntity
  8
Layer_1
 62
7
100
AcDbLine
 10
-50.499995
 20
-13.999999
 30
0.0
 11
-50.382119
 21
-13.416138
 31
0.0
  0
LINE
  5
129
100
AcDbEntity
  8
Layer_1
 62
7
100
AcDbLine
 10
-50.382119
 20
-13.416138
 30
0.0
 11
-50.060657
 21
-12.939323
 31
0.0
  0
LINE
  5
12a
100
AcDbEntity
  8
Layer_1
 62
7
100
AcDbLine
 10
-50.060657
 20
-12.939323
 30
0.0
 11
-49.583865
 21
-12.617872
 31
0.0
  0
LINE
  5
12b
100
AcDbEntity
  8
Layer_1
 62
7
100
AcDbLine
 10
-49.583865
 20
-12.617872
 30
0.0
 11
-48.999992
 21
-12.499988
 31
0.0
  0
LINE
  5
12c
100
AcDbEntity
  8
Layer_1
 62
7
100
AcDbLine
 10
-48.999992
 20
-12.499988
 30
0.0
 11
-48.416123
 21
-12.617872
 31
0.0
  0
LINE
  5
12d
100
AcDbEntity
  8
Layer_1
 62
7
100
AcDbLine
 10
-48.416123
 20
-12.617872
 30
0.0
 11
-47.939328
 21
-12.939323
 31
0.0
  0
LINE
  5
12e
100
AcDbEntity
  8
Layer_1
 62
7
100
AcDbLine
 10
-47.939328
 20
-12.939323
 30
0.0
 11
-47.617865
 21
-13.416138
 31
0.0
  0
LINE
  5
12f
100
AcDbEntity
  8
Layer_1
 62
7
100
AcDbLine
 10
-47.617865
 20
-13.416138
 30
0.0
 11
-47.499992
 21
-13.999999
 31
0.0
  0
LINE
  5
130
100
AcDbEntity
  8
Layer_1
 62
7
100
AcDbLine
 10
1.500012
 20
-13.999999
 30
0.0
 11
1.382138
 21
-14.583860
 31
0.0
  0
LINE
  5
131
100
AcDbEntity
  8
Layer_1
 62
7
100
AcDbLine
 10
1.382138
 20
-14.583860
 30
0.0
 11
1.060676
 21
-15.060675
 31
0.0
  0
LINE
  5
132
100
AcDbEntity
  8
Layer_1
 62
7
100
AcDbLine
 10
1.060676
 20
-15.060675
 30
0.0
 11
0.583883
 21
-15.382126
 31
0.0
  0
LINE
  5
133
100
AcDbEntity
  8
Layer_1
 62
7
100
AcDbLine
 10
0.583883
 20
-15.382126
 30
0.0
 11
0.000012
 21
-15.500010
 31
0.0
  0
LINE
  5
134
100
AcDbEntity
  8
Layer_1
 62
7
100
AcDbLine
 10
0.000012
 20
-15.500010
 30
0.0
 11
-0.583858
 21
-15.382126
 31
0.0
  0
LINE
  5
135
100
AcDbEntity
  8
Layer_1
 62
7
100
AcDbLine
 10
-0.583858
 20
-15.382126
 30
0.0
 11
-1.060652
 21
-15.060675
 31
0.0
  0
LINE
  5
136
100
AcDbEntity
  8
Layer_1
 62
7
100
AcDbLine
 10
-1.060652
 20
-15.060675
 30
0.0
 11
-1.382114
 21
-14.583860
 31
0.0
  0
LINE
  5
137
100
AcDbEntity
  8
Layer_1
 62
7
100
AcDbLine
 10
-1.382114
 20
-14.583860
 30
0.0
 11
-1.499988
 21
-13.999999
 31
0.0
  0
LINE
  5
138
100
AcDbEntity
  8
Layer_1
 62
7
100
AcDbLine
 10
-1.499988
 20
-13.999999
 30
0.0
 11
-1.382114
 21
-13.416138
 31
0.0
  0
LINE
  5
139
100
AcDbEntity
  8
Layer_1
 62
7
100
AcDbLine
 10
-1.382114
 20
-13.416138
 30
0.0
 11
-1.060652
 21
-12.939323
 31
0.0
  0
LINE
  5
13a
100
AcDbEntity
  8
Layer_1
 62
7
100
AcDbLine
 10
-1.060652
 20
-12.939323
 30
0.0
 11
-0.583858
 21
-12.617872
 31
0.0
  0
LINE
  5
13b
100
AcDbEntity
  8
Layer_1
 62
7
100
AcDbLine
 10
-0.583858
 20
-12.617872
 30
0.0
 11
0.000012
 21
-12.499988
 31
0.0
  0
LINE
  5
13c
100
AcDbEntity
  8
Layer_1
 62
7
100
AcDbLine
 10
0.000012
 20
-12.499988
 30
0.0
 11
0.583883
 21
-12.617872
 31
0.0
  0
LINE
  5
13d
100
AcDbEntity
  8
Layer_1
 62
7
100
AcDbLine
 10
0.583883
 20
-12.617872
 30
0.0
 11
1.060676
 21
-12.939323
 31
0.0
  0
LINE
  5
13e
100
AcDbEntity
  8
Layer_1
 62
7
100
AcDbLine
 10
1.060676
 20
-12.939323
 30
0.0
 11
1.382138
 21
-13.416138
 31
0.0
  0
LINE
  5
13f
100
AcDbEntity
  8
Layer_1
 62
7
100
AcDbLine
 10
1.382138
 20
-13.416138
 30
0.0
 11
1.500012
 21
-13.999999
 31
0.0
  0
LINE
  5
140
100
AcDbEntity
  8
Layer_1
 62
7
100
AcDbLine
 10
-47.499992
 20
2.200008
 30
0.0
 11
-47.617865
 21
1.616147
 31
0.0
  0
LINE
  5
141
100
AcDbEntity
  8
Layer_1
 62
7
100
AcDbLine
 10
-47.617865
 20
1.616147
 30
0.0
 11
-47.939328
 21
1.139332
 31
0.0
  0
LINE
  5
142
100
AcDbEntity
  8
Layer_1
 62
7
100
AcDbLine
 10
-47.939328
 20
1.139332
 30
0.0
 11
-48.416123
 21
0.817881
 31
0.0
  0
LINE
  5
143
100
AcDbEntity
  8
Layer_1
 62
7
100
AcDbLine
 10
-48.416123
 20
0.817881
 30
0.0
 11
-48.999992
 21
0.699997
 31
0.0
  0
LINE
  5
144
100
AcDbEntity
  8
Layer_1
 62
7
100
AcDbLine
 10
-48.999992
 20
0.699997
 30
0.0
 11
-49.583865
 21
0.817881
 31
0.0
  0
LINE
  5
145
100
AcDbEntity
  8
Layer_1
 62
7
100
AcDbLine
 10
-49.583865
 20
0.817881
 30
0.0
 11
-50.060657
 21
1.139332
 31
0.0
  0
LINE
  5
146
100
AcDbEntity
  8
Layer_1
 62
7
100
AcDbLine
 10
-50.060657
 20
1.139332
 30
0.0
 11
-50.382119
 21
1.616147
 31
0.0
  0
LINE
  5
147
100
AcDbEntity
  8
Layer_1
 62
7
100
AcDbLine
 10
-50.382119
 20
1.616147
 30
0.0
 11
-50.499995
 21
2.200008
 31
0.0
  0
LINE
  5
148
100
AcDbEntity
  8
Layer_1
 62
7
100
AcDbLine
 10
-50.499995
 20
2.200008
 30
0.0
 11
-50.382119
 21
2.783870
 31
0.0
  0
LINE
  5
149
100
AcDbEntity
  8
Layer_1
 62
7
100
AcDbLine
 10
-50.382119
 20
2.783870
 30
0.0
 11
-50.060657
 21
3.260684
 31
0.0
  0
LINE
  5
14a
100
AcDbEntity
  8
Layer_1
 62
7
100
AcDbLine
 10
-50.060657
 20
3.260684
 30
0.0
 11
-49.583865
 21
3.582135
 31
0.0
  0
LINE
  5
14b
100
AcDbEntity
  8
Layer_1
 62
7
100
AcDbLine
 10
-49.583865
 20
3.582135
 30
0.0
 11
-48.999992
 21
3.700019
 31
0.0
  0
LINE
  5
14c
100
AcDbEntity
  8
Layer_1
 62
7
100
AcDbLine
 10
-48.999992
 20
3.700019
 30
0.0
 11
-48.416123
 21
3.582135
 31
0.0
  0
LINE
  5
14d
100
AcDbEntity
  8
Layer_1
 62
7
100
AcDbLine
 10
-48.416123
 20
3.582135
 30
0.0
 11
-47.939328
 21
3.260684
 31
0.0
  0
LINE
  5
14e
100
AcDbEntity
  8
Layer_1
 62
7
100
AcDbLine
 10
-47.939328
 20
3.260684
 30
0.0
 11
-47.617865
 21
2.783870
 31
0.0
  0
LINE
  5
14f
100
AcDbEntity
  8
Layer_1
 62
7
100
AcDbLine
 10
-47.617865
 20
2.783870
 30
0.0
 11
-47.499992
 21
2.200008
 31
0.0
  0
LINE
  5
150
100
AcDbEntity
  8
Layer_1
 62
7
100
AcDbLine
 10
47.500001
 20
-13.999999
 30
0.0
 11
47.617877
 21
-14.583860
 31
0.0
  0
LINE
  5
151
100
AcDbEntity
  8
Layer_1
 62
7
100
AcDbLine
 10
47.617877
 20
-14.583860
 30
0.0
 11
47.939339
 21
-15.060675
 31
0.0
  0
LINE
  5
152
100
AcDbEntity
  8
Layer_1
 62
7
100
AcDbLine
 10
47.939339
 20
-15.060675
 30
0.0
 11
48.416131
 21
-15.382126
 31
0.0
  0
LINE
  5
153
100
AcDbEntity
  8
Layer_1
 62
7
100
AcDbLine
 10
48.416131
 20
-15.382126
 30
0.0
 11
49.000004
 21
-15.500010
 31
0.0
  0
LINE
  5
154
100
AcDbEntity
  8
Layer_1
 62
7
100
AcDbLine
 10
49.000004
 20
-15.500010
 30
0.0
 11
49.583873
 21
-15.382126
 31
0.0
  0
LINE
  5
155
100
AcDbEntity
  8
Layer_1
 62
7
100
AcDbLine
 10
49.583873
 20
-15.382126
 30
0.0
 11
50.060668
 21
-15.060675
 31
0.0
  0
LINE
  5
156
100
AcDbEntity
  8
Layer_1
 62
7
100
AcDbLine
 10
50.060668
 20
-15.060675
 30
0.0
 11
50.382130
 21
-14.583860
 31
0.0
  0
LINE
  5
157
100
AcDbEntity
  8
Layer_1
 62
7
100
AcDbLine
 10
50.382130
 20
-14.583860
 30
0.0
 11
50.500003
 21
-13.999999
 31
0.0
  0
LINE
  5
158
100
AcDbEntity
  8
Layer_1
 62
7
100
AcDbLine
 10
50.500003
 20
-13.999999
 30
0.0
 11
50.382130
 21
-13.416138
 31
0.0
  0
LINE
  5
159
100
AcDbEntity
  8
Layer_1
 62
7
100
AcDbLine
 10
50.382130
 20
-13.416138
 30
0.0
 11
50.060668
 21
-12.939323
 31
0.0
  0
LINE
  5
15a
100
AcDbEntity
  8
Layer_1
 62
7
100
AcDbLine
 10
50.060668
 20
-12.939323
 30
0.0
 11
49.583873
 21
-12.617872
 31
0.0
  0
LINE
  5
15b
100
AcDbEntity
  8
Layer_1
 62
7
100
AcDbLine
 10
49.583873
 20
-12.617872
 30
0.0
 11
49.000004
 21
-12.499988
 31
0.0
  0
LINE
  5
15c
100
AcDbEntity
  8
Layer_1
 62
7
100
AcDbLine
 10
49.000004
 20
-12.499988
 30
0.0
 11
48.416131
 21
-12.617872
 31
0.0
  0
LINE
  5
15d
100
AcDbEntity
  8
Layer_1
 62
7
100
AcDbLine
 10
48.416131
 20
-12.617872
 30
0.0
 11
47.939339
 21
-12.939323
 31
0.0
  0
LINE
  5
15e
100
AcDbEntity
  8
Layer_1
 62
7
100
AcDbLine
 10
47.939339
 20
-12.939323
 30
0.0
 11
47.617877
 21
-13.416138
 31
0.0
  0
LINE
  5
15f
100
AcDbEntity
  8
Layer_1
 62
7
100
AcDbLine
 10
47.617877
 20
-13.416138
 30
0.0
 11
47.500001
 21
-13.999999
 31
0.0
  0
LINE
  5
160
100
AcDbEntity
  8
Layer_1
 62
7
100
AcDbLine
 10
47.500001
 20
2.200008
 30
0.0
 11
47.617877
 21
1.616147
 31
0.0
  0
LINE
  5
161
100
AcDbEntity
  8
Layer_1
 62
7
100
AcDbLine
 10
47.617877
 20
1.616147
 30
0.0
 11
47.939339
 21
1.139332
 31
0.0
  0
LINE
  5
162
100
AcDbEntity
  8
Layer_1
 62
7
100
AcDbLine
 10
47.939339
 20
1.139332
 30
0.0
 11
48.416131
 21
0.817881
 31
0.0
  0
LINE
  5
163
100
AcDbEntity
  8
Layer_1
 62
7
100
AcDbLine
 10
48.416131
 20
0.817881
 30
0.0
 11
49.000004
 21
0.699997
 31
0.0
  0
LINE
  5
164
100
AcDbEntity
  8
Layer_1
 62
7
100
AcDbLine
 10
49.000004
 20
0.699997
 30
0.0
 11
49.583873
 21
0.817881
 31
0.0
  0
LINE
  5
165
100
AcDbEntity
  8
Layer_1
 62
7
100
AcDbLine
 10
49.583873
 20
0.817881
 30
0.0
 11
50.060668
 21
1.139332
 31
0.0
  0
LINE
  5
166
100
AcDbEntity
  8
Layer_1
 62
7
100
AcDbLine
 10
50.060668
 20
1.139332
 30
0.0
 11
50.382130
 21
1.616147
 31
0.0
  0
LINE
  5
167
100
AcDbEntity
  8
Layer_1
 62
7
100
AcDbLine
 10
50.382130
 20
1.616147
 30
0.0
 11
50.500003
 21
2.200008
 31
0.0
  0
LINE
  5
168
100
AcDbEntity
  8
Layer_1
 62
7
100
AcDbLine
 10
50.500003
 20
2.200008
 30
0.0
 11
50.382130
 21
2.783870
 31
0.0
  0
LINE
  5
169
100
AcDbEntity
  8
Layer_1
 62
7
100
AcDbLine
 10
50.382130
 20
2.783870
 30
0.0
 11
50.060668
 21
3.260684
 31
0.0
  0
LINE
  5
16a
100
AcDbEntity
  8
Layer_1
 62
7
100
AcDbLine
 10
50.060668
 20
3.260684
 30
0.0
 11
49.583873
 21
3.582135
 31
0.0
  0
LINE
  5
16b
100
AcDbEntity
  8
Layer_1
 62
7
100
AcDbLine
 10
49.583873
 20
3.582135
 30
0.0
 11
49.000004
 21
3.700019
 31
0.0
  0
LINE
  5
16c
100
AcDbEntity
  8
Layer_1
 62
7
100
AcDbLine
 10
49.000004
 20
3.700019
 30
0.0
 11
48.416131
 21
3.582135
 31
0.0
  0
LINE
  5
16d
100
AcDbEntity
  8
Layer_1
 62
7
100
AcDbLine
 10
48.416131
 20
3.582135
 30
0.0
 11
47.939339
 21
3.260684
 31
0.0
  0
LINE
  5
16e
100
AcDbEntity
  8
Layer_1
 62
7
100
AcDbLine
 10
47.939339
 20
3.260684
 30
0.0
 11
47.617877
 21
2.783870
 31
0.0
  0
LINE
  5
16f
100
AcDbEntity
  8
Layer_1
 62
7
100
AcDbLine
 10
47.617877
 20
2.783870
 30
0.0
 11
47.500001
 21
2.200008
 31
0.0
  0
LINE
  5
170
100
AcDbEntity
  8
Layer_1
 62
7
100
AcDbLine
 10
-47.999983
 20
11.000036
 30
0.0
 11
-48.157155
 21
10.221554
 31
0.0
  0
LINE
  5
171
100
AcDbEntity
  8
Layer_1
 62
7
100
AcDbLine
 10
-48.157155
 20
10.221554
 30
0.0
 11
-48.585772
 21
9.585820
 31
0.0
  0
LINE
  5
172
100
AcDbEntity
  8
Layer_1
 62
7
100
AcDbLine
 10
-48.585772
 20
9.585820
 30
0.0
 11
-49.221494
 21
9.157209
 31
0.0
  0
LINE
  5
173
100
AcDbEntity
  8
Layer_1
 62
7
100
AcDbLine
 10
-49.221494
 20
9.157209
 30
0.0
 11
-49.999985
 21
9.000040
 31
0.0
  0
LINE
  5
174
100
AcDbEntity
  8
Layer_1
 62
7
100
AcDbLine
 10
-49.999985
 20
9.000040
 30
0.0
 11
-50.778475
 21
9.157209
 31
0.0
  0
LINE
  5
175
100
AcDbEntity
  8
Layer_1
 62
7
100
AcDbLine
 10
-50.778475
 20
9.157209
 30
0.0
 11
-51.414197
 21
9.585820
 31
0.0
  0
LINE
  5
176
100
AcDbEntity
  8
Layer_1
 62
7
100
AcDbLine
 10
-51.414197
 20
9.585820
 30
0.0
 11
-51.842814
 21
10.221554
 31
0.0
  0
LINE
  5
177
100
AcDbEntity
  8
Layer_1
 62
7
100
AcDbLine
 10
-51.842814
 20
10.221554
 30
0.0
 11
-51.999983
 21
11.000036
 31
0.0
  0
LINE
  5
178
100
AcDbEntity
  8
Layer_1
 62
7
100
AcDbLine
 10
-51.999983
 20
11.000036
 30
0.0
 11
-51.842814
 21
11.778518
 31
0.0
  0
LINE
  5
179
100
AcDbEntity
  8
Layer_1
 62
7
100
AcDbLine
 10
-51.842814
 20
11.778518
 30
0.0
 11
-51.414197
 21
12.414251
 31
0.0
  0
LINE
  5
17a
100
AcDbEntity
  8
Layer_1
 62
7
100
AcDbLine
 10
-51.414197
 20
12.414251
 30
0.0
 11
-50.778475
 21
12.842862
 31
0.0
  0
LINE
  5
17b
100
AcDbEntity
  8
Layer_1
 62
7
100
AcDbLine
 10
-50.778475
 20
12.842862
 30
0.0
 11
-49.999985
 21
13.000032
 31
0.0
  0
LINE
  5
17c
100
AcDbEntity
  8
Layer_1
 62
7
100
AcDbLine
 10
-49.999985
 20
13.000032
 30
0.0
 11
-49.221494
 21
12.842862
 31
0.0
  0
LINE
  5
17d
100
AcDbEntity
  8
Layer_1
 62
7
100
AcDbLine
 10
-49.221494
 20
12.842862
 30
0.0
 11
-48.585769
 21
12.414251
 31
0.0
  0
LINE
  5
17e
100
AcDbEntity
  8
Layer_1
 62
7
100
AcDbLine
 10
-48.585769
 20
12.414251
 30
0.0
 11
-48.157153
 21
11.778518
 31
0.0
  0
LINE
  5
17f
100
AcDbEntity
  8
Layer_1
 62
7
100
AcDbLine
 10
-48.157153
 20
11.778518
 30
0.0
 11
-47.999983
 21
11.000036
 31
0.0
  0
LINE
  5
180
100
AcDbEntity
  8
Layer_1
 62
7
100
AcDbLine
 10
-37.999992
 20
11.000036
 30
0.0
 11
-38.157161
 21
10.221554
 31
0.0
  0
LINE
  5
181
100
AcDbEntity
  8
Layer_1
 62
7
100
AcDbLine
 10
-38.157161
 20
10.221554
 30
0.0
 11
-38.585778
 21
9.585820
 31
0.0
  0
LINE
  5
182
100
AcDbEntity
  8
Layer_1
 62
7
100
AcDbLine
 10
-38.585778
 20
9.585820
 30
0.0
 11
-39.221500
 21
9.157209
 31
0.0
  0
LINE
  5
183
100
AcDbEntity
  8
Layer_1
 62
7
100
AcDbLine
 10
-39.221500
 20
9.157209
 30
0.0
 11
-39.999991
 21
9.000040
 31
0.0
  0
LINE
  5
184
100
AcDbEntity
  8
Layer_1
 62
7
100
AcDbLine
 10
-39.999991
 20
9.000040
 30
0.0
 11
-40.778481
 21
9.157209
 31
0.0
  0
LINE
  5
185
100
AcDbEntity
  8
Layer_1
 62
7
100
AcDbLine
 10
-40.778481
 20
9.157209
 30
0.0
 11
-41.414203
 21
9.585820
 31
0.0
  0
LINE
  5
186
100
AcDbEntity
  8
Layer_1
 62
7
100
AcDbLine
 10
-41.414203
 20
9.585820
 30
0.0
 11
-41.842820
 21
10.221554
 31
0.0
  0
LINE
  5
187
100
AcDbEntity
  8
Layer_1
 62
7
100
AcDbLine
 10
-41.842820
 20
10.221554
 30
0.0
 11
-41.999992
 21
11.000036
 31
0.0
  0
LINE
  5
188
100
AcDbEntity
  8
Layer_1
 62
7
100
AcDbLine
 10
-41.999992
 20
11.000036
 30
0.0
 11
-41.842823
 21
11.778518
 31
0.0
  0
LINE
  5
189
100
AcDbEntity
  8
Layer_1
 62
7
100
AcDbLine
 10
-41.842823
 20
11.778518
 30
0.0
 11
-41.414206
 21
12.414251
 31
0.0
  0
LINE
  5
18a
100
AcDbEntity
  8
Layer_1
 62
7
100
AcDbLine
 10
-41.414206
 20
12.414251
 30
0.0
 11
-40.778481
 21
12.842862
 31
0.0
  0
LINE
  5
18b
100
AcDbEntity
  8
Layer_1
 62
7
100
AcDbLine
 10
-40.778481
 20
12.842862
 30
0.0
 11
-39.999991
 21
13.000032
 31
0.0
  0
LINE
  5
18c
100
AcDbEntity
  8
Layer_1
 62
7
100
AcDbLine
 10
-39.999991
 20
13.000032
 30
0.0
 11
-39.221500
 21
12.842862
 31
0.0
  0
LINE
  5
18d
100
AcDbEntity
  8
Layer_1
 62
7
100
AcDbLine
 10
-39.221500
 20
12.842862
 30
0.0
 11
-38.585778
 21
12.414251
 31
0.0
  0
LINE
  5
18e
100
AcDbEntity
  8
Layer_1
 62
7
100
AcDbLine
 10
-38.585778
 20
12.414251
 30
0.0
 11
-38.157161
 21
11.778518
 31
0.0
  0
LINE
  5
18f
100
AcDbEntity
  8
Layer_1
 62
7
100
AcDbLine
 10
-38.157161
 20
11.778518
 30
0.0
 11
-37.999992
 21
11.000036
 31
0.0
  0
LINE
  5
190
100
AcDbEntity
  8
Layer_1
 62
7
100
AcDbLine
 10
-27.999982
 20
11.000036
 30
0.0
 11
-28.157153
 21
10.221554
 31
0.0
  0
LINE
  5
191
100
AcDbEntity
  8
Layer_1
 62
7
100
AcDbLine
 10
-28.157153
 20
10.221554
 30
0.0
 11
-28.585770
 21
9.585820
 31
0.0
  0
LINE
  5
192
100
AcDbEntity
  8
Layer_1
 62
7
100
AcDbLine
 10
-28.585770
 20
9.585820
 30
0.0
 11
-29.221492
 21
9.157209
 31
0.0
  0
LINE
  5
193
100
AcDbEntity
  8
Layer_1
 62
7
100
AcDbLine
 10
-29.221492
 20
9.157209
 30
0.0
 11
-29.999982
 21
9.000040
 31
0.0
  0
LINE
  5
194
100
AcDbEntity
  8
Layer_1
 62
7
100
AcDbLine
 10
-29.999982
 20
9.000040
 30
0.0
 11
-30.778473
 21
9.157209
 31
0.0
  0
LINE
  5
195
100
AcDbEntity
  8
Layer_1
 62
7
100
AcDbLine
 10
-30.778473
 20
9.157209
 30
0.0
 11
-31.414195
 21
9.585820
 31
0.0
  0
LINE
  5
196
100
AcDbEntity
  8
Layer_1
 62
7
100
AcDbLine
 10
-31.414195
 20
9.585820
 30
0.0
 11
-31.842812
 21
10.221554
 31
0.0
  0
LINE
  5
197
100
AcDbEntity
  8
Layer_1
 62
7
100
AcDbLine
 10
-31.842812
 20
10.221554
 30
0.0
 11
-31.999981
 21
11.000036
 31
0.0
  0
LINE
  5
198
100
AcDbEntity
  8
Layer_1
 62
7
100
AcDbLine
 10
-31.999981
 20
11.000036
 30
0.0
 11
-31.842812
 21
11.778518
 31
0.0
  0
LINE
  5
199
100
AcDbEntity
  8
Layer_1
 62
7
100
AcDbLine
 10
-31.842812
 20
11.778518
 30
0.0
 11
-31.414195
 21
12.414251
 31
0.0
  0
LINE
  5
19a
100
AcDbEntity
  8
Layer_1
 62
7
100
AcDbLine
 10
-31.414195
 20
12.414251
 30
0.0
 11
-30.778473
 21
12.842862
 31
0.0
  0
LINE
  5
19b
100
AcDbEntity
  8
Layer_1
 62
7
100
AcDbLine
 10
-30.778473
 20
12.842862
 30
0.0
 11
-29.999982
 21
13.000032
 31
0.0
  0
LINE
  5
19c
100
AcDbEntity
  8
Layer_1
 62
7
100
AcDbLine
 10
-29.999982
 20
13.000032
 30
0.0
 11
-29.221492
 21
12.842862
 31
0.0
  0
LINE
  5
19d
100
AcDbEntity
  8
Layer_1
 62
7
100
AcDbLine
 10
-29.221492
 20
12.842862
 30
0.0
 11
-28.585770
 21
12.414251
 31
0.0
  0
LINE
  5
19e
100
AcDbEntity
  8
Layer_1
 62
7
100
AcDbLine
 10
-28.585770
 20
12.414251
 30
0.0
 11
-28.157151
 21
11.778518
 31
0.0
  0
LINE
  5
19f
100
AcDbEntity
  8
Layer_1
 62
7
100
AcDbLine
 10
-28.157151
 20
11.778518
 30
0.0
 11
-27.999982
 21
11.000036
 31
0.0
  0
LINE
  5
1a0
100
AcDbEntity
  8
Layer_1
 62
7
100
AcDbLine
 10
-17.999989
 20
11.000036
 30
0.0
 11
-18.157160
 21
10.221554
 31
0.0
  0
LINE
  5
1a1
100
AcDbEntity
  8
Layer_1
 62
7
100
AcDbLine
 10
-18.157160
 20
10.221554
 30
0.0
 11
-18.585777
 21
9.585820
 31
0.0
  0
LINE
  5
1a2
100
AcDbEntity
  8
Layer_1
 62
7
100
AcDbLine
 10
-18.585777
 20
9.585820
 30
0.0
 11
-19.221500
 21
9.157209
 31
0.0
  0
LINE
  5
1a3
100
AcDbEntity
  8
Layer_1
 62
7
100
AcDbLine
 10
-19.221500
 20
9.157209
 30
0.0
 11
-19.999989
 21
9.000040
 31
0.0
  0
LINE
  5
1a4
100
AcDbEntity
  8
Layer_1
 62
7
100
AcDbLine
 10
-19.999989
 20
9.000040
 30
0.0
 11
-20.778479
 21
9.157209
 31
0.0
  0
LINE
  5
1a5
100
AcDbEntity
  8
Layer_1
 62
7
100
AcDbLine
 10
-20.778479
 20
9.157209
 30
0.0
 11
-21.414202
 21
9.585820
 31
0.0
  0
LINE
  5
1a6
100
AcDbEntity
  8
Layer_1
 62
7
100
AcDbLine
 10
-21.414202
 20
9.585820
 30
0.0
 11
-21.842818
 21
10.221554
 31
0.0
  0
LINE
  5
1a7
100
AcDbEntity
  8
Layer_1
 62
7
100
AcDbLine
 10
-21.842818
 20
10.221554
 30
0.0
 11
-21.999989
 21
11.000036
 31
0.0
  0
LINE
  5
1a8
100
AcDbEntity
  8
Layer_1
 62
7
100
AcDbLine
 10
-21.999989
 20
11.000036
 30
0.0
 11
-21.842820
 21
11.778518
 31
0.0
  0
LINE
  5
1a9
100
AcDbEntity
  8
Layer_1
 62
7
100
AcDbLine
 10
-21.842820
 20
11.778518
 30
0.0
 11
-21.414203
 21
12.414251
 31
0.0
  0
LINE
  5
1aa
100
AcDbEntity
  8
Layer_1
 62
7
100
AcDbLine
 10
-21.414203
 20
12.414251
 30
0.0
 11
-20.778479
 21
12.842862
 31
0.0
  0
LINE
  5
1ab
100
AcDbEntity
  8
Layer_1
 62
7
100
AcDbLine
 10
-20.778479
 20
12.842862
 30
0.0
 11
-19.999989
 21
13.000032
 31
0.0
  0
LINE
  5
1ac
100
AcDbEntity
  8
Layer_1
 62
7
100
AcDbLine
 10
-19.999989
 20
13.000032
 30
0.0
 11
-19.221499
 21
12.842862
 31
0.0
  0
LINE
  5
1ad
100
AcDbEntity
  8
Layer_1
 62
7
100
AcDbLine
 10
-19.221499
 20
12.842862
 30
0.0
 11
-18.585775
 21
12.414251
 31
0.0
  0
LINE
  5
1ae
100
AcDbEntity
  8
Layer_1
 62
7
100
AcDbLine
 10
-18.585775
 20
12.414251
 30
0.0
 11
-18.157159
 21
11.778518
 31
0.0
  0
LINE
  5
1af
100
AcDbEntity
  8
Layer_1
 62
7
100
AcDbLine
 10
-18.157159
 20
11.778518
 30
0.0
 11
-17.999989
 21
11.000036
 31
0.0
  0
LINE
  5
1b0
100
AcDbEntity
  8
Layer_1
 62
7
100
AcDbLine
 10
-7.999998
 20
11.000036
 30
0.0
 11
-8.157169
 21
10.221554
 31
0.0
  0
LINE
  5
1b1
100
AcDbEntity
  8
Layer_1
 62
7
100
AcDbLine
 10
-8.157169
 20
10.221554
 30
0.0
 11
-8.585786
 21
9.585820
 31
0.0
  0
LINE
  5
1b2
100
AcDbEntity
  8
Layer_1
 62
7
100
AcDbLine
 10
-8.585786
 20
9.585820
 30
0.0
 11
-9.221509
 21
9.157209
 31
0.0
  0
LINE
  5
1b3
100
AcDbEntity
  8
Layer_1
 62
7
100
AcDbLine
 10
-9.221509
 20
9.157209
 30
0.0
 11
-9.999998
 21
9.000040
 31
0.0
  0
LINE
  5
1b4
100
AcDbEntity
  8
Layer_1
 62
7
100
AcDbLine
 10
-9.999998
 20
9.000040
 30
0.0
 11
-10.778487
 21
9.157209
 31
0.0
  0
LINE
  5
1b5
100
AcDbEntity
  8
Layer_1
 62
7
100
AcDbLine
 10
-10.778487
 20
9.157209
 30
0.0
 11
-11.414210
 21
9.585820
 31
0.0
  0
LINE
  5
1b6
100
AcDbEntity
  8
Layer_1
 62
7
100
AcDbLine
 10
-11.414210
 20
9.585820
 30
0.0
 11
-11.842827
 21
10.221554
 31
0.0
  0
LINE
  5
1b7
100
AcDbEntity
  8
Layer_1
 62
7
100
AcDbLine
 10
-11.842827
 20
10.221554
 30
0.0
 11
-11.999998
 21
11.000036
 31
0.0
  0
LINE
  5
1b8
100
AcDbEntity
  8
Layer_1
 62
7
100
AcDbLine
 10
-11.999998
 20
11.000036
 30
0.0
 11
-11.842829
 21
11.778518
 31
0.0
  0
LINE
  5
1b9
100
AcDbEntity
  8
Layer_1
 62
7
100
AcDbLine
 10
-11.842829
 20
11.778518
 30
0.0
 11
-11.414212
 21
12.414251
 31
0.0
  0
LINE
  5
1ba
100
AcDbEntity
  8
Layer_1
 62
7
100
AcDbLine
 10
-11.414212
 20
12.414251
 30
0.0
 11
-10.778488
 21
12.842862
 31
0.0
  0
LINE
  5
1bb
100
AcDbEntity
  8
Layer_1
 62
7
100
AcDbLine
 10
-10.778488
 20
12.842862
 30
0.0
 11
-9.999998
 21
13.000032
 31
0.0
  0
LINE
  5
1bc
100
AcDbEntity
  8
Layer_1
 62
7
100
AcDbLine
 10
-9.999998
 20
13.000032
 30
0.0
 11
-9.221508
 21
12.842862
 31
0.0
  0
LINE
  5
1bd
100
AcDbEntity
  8
Layer_1
 62
7
100
AcDbLine
 10
-9.221508
 20
12.842862
 30
0.0
 11
-8.585784
 21
12.414251
 31
0.0
  0
LINE
  5
1be
100
AcDbEntity
  8
Layer_1
 62
7
100
AcDbLine
 10
-8.585784
 20
12.414251
 30
0.0
 11
-8.157167
 21
11.778518
 31
0.0
  0
LINE
  5
1bf
100
AcDbEntity
  8
Layer_1
 62
7
100
AcDbLine
 10
-8.157167
 20
11.778518
 30
0.0
 11
-7.999998
 21
11.000036
 31
0.0
  0
LINE
  5
1c0
100
AcDbEntity
  8
Layer_1
 62
7
100
AcDbLine
 10
2.000012
 20
11.000036
 30
0.0
 11
1.842841
 21
10.221554
 31
0.0
  0
LINE
  5
1c1
100
AcDbEntity
  8
Layer_1
 62
7
100
AcDbLine
 10
1.842841
 20
10.221554
 30
0.0
 11
1.414224
 21
9.585820
 31
0.0
  0
LINE
  5
1c2
100
AcDbEntity
  8
Layer_1
 62
7
100
AcDbLine
 10
1.414224
 20
9.585820
 30
0.0
 11
0.778501
 21
9.157209
 31
0.0
  0
LINE
  5
1c3
100
AcDbEntity
  8
Layer_1
 62
7
100
AcDbLine
 10
0.778501
 20
9.157209
 30
0.0
 11
0.000012
 21
9.000040
 31
0.0
  0
LINE
  5
1c4
100
AcDbEntity
  8
Layer_1
 62
7
100
AcDbLine
 10
0.000012
 20
9.000040
 30
0.0
 11
-0.778477
 21
9.157209
 31
0.0
  0
LINE
  5
1c5
100
AcDbEntity
  8
Layer_1
 62
7
100
AcDbLine
 10
-0.778477
 20
9.157209
 30
0.0
 11
-1.414200
 21
9.585820
 31
0.0
  0
LINE
  5
1c6
100
AcDbEntity
  8
Layer_1
 62
7
100
AcDbLine
 10
-1.414200
 20
9.585820
 30
0.0
 11
-1.842817
 21
10.221554
 31
0.0
  0
LINE
  5
1c7
100
AcDbEntity
  8
Layer_1
 62
7
100
AcDbLine
 10
-1.842817
 20
10.221554
 30
0.0
 11
-1.999988
 21
11.000036
 31
0.0
  0
LINE
  5
1c8
100
AcDbEntity
  8
Layer_1
 62
7
100
AcDbLine
 10
-1.999988
 20
11.000036
 30
0.0
 11
-1.842819
 21
11.778518
 31
0.0
  0
LINE
  5
1c9
100
AcDbEntity
  8
Layer_1
 62
7
100
AcDbLine
 10
-1.842819
 20
11.778518
 30
0.0
 11
-1.414202
 21
12.414251
 31
0.0
  0
LINE
  5
1ca
100
AcDbEntity
  8
Layer_1
 62
7
100
AcDbLine
 10
-1.414202
 20
12.414251
 30
0.0
 11
-0.778478
 21
12.842862
 31
0.0
  0
LINE
  5
1cb
100
AcDbEntity
  8
Layer_1
 62
7
100
AcDbLine
 10
-0.778478
 20
12.842862
 30
0.0
 11
0.000012
 21
13.000032
 31
0.0
  0
LINE
  5
1cc
100
AcDbEntity
  8
Layer_1
 62
7
100
AcDbLine
 10
0.000012
 20
13.000032
 30
0.0
 11
0.778502
 21
12.842862
 31
0.0
  0
LINE
  5
1cd
100
AcDbEntity
  8
Layer_1
 62
7
100
AcDbLine
 10
0.778502
 20
12.842862
 30
0.0
 11
1.414226
 21
12.414251
 31
0.0
  0
LINE
  5
1ce
100
AcDbEntity
  8
Layer_1
 62
7
100
AcDbLine
 10
1.414226
 20
12.414251
 30
0.0
 11
1.842843
 21
11.778518
 31
0.0
  0
LINE
  5
1cf
100
AcDbEntity
  8
Layer_1
 62
7
100
AcDbLine
 10
1.842843
 20
11.778518
 30
0.0
 11
2.000012
 21
11.000036
 31
0.0
  0
LINE
  5
1d0
100
AcDbEntity
  8
Layer_1
 62
7
100
AcDbLine
 10
12.000005
 20
11.000036
 30
0.0
 11
11.842834
 21
10.221554
 31
0.0
  0
LINE
  5
1d1
100
AcDbEntity
  8
Layer_1
 62
7
100
AcDbLine
 10
11.842834
 20
10.221554
 30
0.0
 11
11.414216
 21
9.585820
 31
0.0
  0
LINE
  5
1d2
100
AcDbEntity
  8
Layer_1
 62
7
100
AcDbLine
 10
11.414216
 20
9.585820
 30
0.0
 11
10.778494
 21
9.157209
 31
0.0
  0
LINE
  5
1d3
100
AcDbEntity
  8
Layer_1
 62
7
100
AcDbLine
 10
10.778494
 20
9.157209
 30
0.0
 11
10.000004
 21
9.000040
 31
0.0
  0
LINE
  5
1d4
100
AcDbEntity
  8
Layer_1
 62
7
100
AcDbLine
 10
10.000004
 20
9.000040
 30
0.0
 11
9.221515
 21
9.157209
 31
0.0
  0
LINE
  5
1d5
100
AcDbEntity
  8
Layer_1
 62
7
100
AcDbLine
 10
9.221515
 20
9.157209
 30
0.0
 11
8.585792
 21
9.585820
 31
0.0
  0
LINE
  5
1d6
100
AcDbEntity
  8
Layer_1
 62
7
100
AcDbLine
 10
8.585792
 20
9.585820
 30
0.0
 11
8.157175
 21
10.221554
 31
0.0
  0
LINE
  5
1d7
100
AcDbEntity
  8
Layer_1
 62
7
100
AcDbLine
 10
8.157175
 20
10.221554
 30
0.0
 11
8.000004
 21
11.000036
 31
0.0
  0
LINE
  5
1d8
100
AcDbEntity
  8
Layer_1
 62
7
100
AcDbLine
 10
8.000004
 20
11.000036
 30
0.0
 11
8.157174
 21
11.778518
 31
0.0
  0
LINE
  5
1d9
100
AcDbEntity
  8
Layer_1
 62
7
100
AcDbLine
 10
8.157174
 20
11.778518
 30
0.0
 11
8.585790
 21
12.414251
 31
0.0
  0
LINE
  5
1da
100
AcDbEntity
  8
Layer_1
 62
7
100
AcDbLine
 10
8.585790
 20
12.414251
 30
0.0
 11
9.221514
 21
12.842862
 31
0.0
  0
LINE
  5
1db
100
AcDbEntity
  8
Layer_1
 62
7
100
AcDbLine
 10
9.221514
 20
12.842862
 30
0.0
 11
10.000004
 21
13.000032
 31
0.0
  0
LINE
  5
1dc
100
AcDbEntity
  8
Layer_1
 62
7
100
AcDbLine
 10
10.000004
 20
13.000032
 30
0.0
 11
10.778494
 21
12.842862
 31
0.0
  0
LINE
  5
1dd
100
AcDbEntity
  8
Layer_1
 62
7
100
AcDbLine
 10
10.778494
 20
12.842862
 30
0.0
 11
11.414218
 21
12.414251
 31
0.0
  0
LINE
  5
1de
100
AcDbEntity
  8
Layer_1
 62
7
100
AcDbLine
 10
11.414218
 20
12.414251
 30
0.0
 11
11.842835
 21
11.778518
 31
0.0
  0
LINE
  5
1df
100
AcDbEntity
  8
Layer_1
 62
7
100
AcDbLine
 10
11.842835
 20
11.778518
 30
0.0
 11
12.000005
 21
11.000036
 31
0.0
  0
LINE
  5
1e0
100
AcDbEntity
  8
Layer_1
 62
7
100
AcDbLine
 10
22.000015
 20
11.000036
 30
0.0
 11
21.842844
 21
10.221554
 31
0.0
  0
LINE
  5
1e1
100
AcDbEntity
  8
Layer_1
 62
7
100
AcDbLine
 10
21.842844
 20
10.221554
 30
0.0
 11
21.414227
 21
9.585820
 31
0.0
  0
LINE
  5
1e2
100
AcDbEntity
  8
Layer_1
 62
7
100
AcDbLine
 10
21.414227
 20
9.585820
 30
0.0
 11
20.778505
 21
9.157209
 31
0.0
  0
LINE
  5
1e3
100
AcDbEntity
  8
Layer_1
 62
7
100
AcDbLine
 10
20.778505
 20
9.157209
 30
0.0
 11
20.000015
 21
9.000040
 31
0.0
  0
LINE
  5
1e4
100
AcDbEntity
  8
Layer_1
 62
7
100
AcDbLine
 10
20.000015
 20
9.000040
 30
0.0
 11
19.221526
 21
9.157209
 31
0.0
  0
LINE
  5
1e5
100
AcDbEntity
  8
Layer_1
 62
7
100
AcDbLine
 10
19.221526
 20
9.157209
 30
0.0
 11
18.585803
 21
9.585820
 31
0.0
  0
LINE
  5
1e6
100
AcDbEntity
  8
Layer_1
 62
7
100
AcDbLine
 10
18.585803
 20
9.585820
 30
0.0
 11
18.157186
 21
10.221554
 31
0.0
  0
LINE
  5
1e7
100
AcDbEntity
  8
Layer_1
 62
7
100
AcDbLine
 10
18.157186
 20
10.221554
 30
0.0
 11
18.000015
 21
11.000036
 31
0.0
  0
LINE
  5
1e8
100
AcDbEntity
  8
Layer_1
 62
7
100
AcDbLine
 10
18.000015
 20
11.000036
 30
0.0
 11
18.157185
 21
11.778518
 31
0.0
  0
LINE
  5
1e9
100
AcDbEntity
  8
Layer_1
 62
7
100
AcDbLine
 10
18.157185
 20
11.778518
 30
0.0
 11
18.585801
 21
12.414251
 31
0.0
  0
LINE
  5
1ea
100
AcDbEntity
  8
Layer_1
 62
7
100
AcDbLine
 10
18.585801
 20
12.414251
 30
0.0
 11
19.221525
 21
12.842862
 31
0.0
  0
LINE
  5
1eb
100
AcDbEntity
  8
Layer_1
 62
7
100
AcDbLine
 10
19.221525
 20
12.842862
 30
0.0
 11
20.000015
 21
13.000032
 31
0.0
  0
LINE
  5
1ec
100
AcDbEntity
  8
Layer_1
 62
7
100
AcDbLine
 10
20.000015
 20
13.000032
 30
0.0
 11
20.778505
 21
12.842862
 31
0.0
  0
LINE
  5
1ed
100
AcDbEntity
  8
Layer_1
 62
7
100
AcDbLine
 10
20.778505
 20
12.842862
 30
0.0
 11
21.414229
 21
12.414251
 31
0.0
  0
LINE
  5
1ee
100
AcDbEntity
  8
Layer_1
 62
7
100
AcDbLine
 10
21.414229
 20
12.414251
 30
0.0
 11
21.842846
 21
11.778518
 31
0.0
  0
LINE
  5
1ef
100
AcDbEntity
  8
Layer_1
 62
7
100
AcDbLine
 10
21.842846
 20
11.778518
 30
0.0
 11
22.000015
 21
11.000036
 31
0.0
  0
LINE
  5
1f0
100
AcDbEntity
  8
Layer_1
 62
7
100
AcDbLine
 10
32.000007
 20
11.000036
 30
0.0
 11
31.842837
 21
10.221554
 31
0.0
  0
LINE
  5
1f1
100
AcDbEntity
  8
Layer_1
 62
7
100
AcDbLine
 10
31.842837
 20
10.221554
 30
0.0
 11
31.414220
 21
9.585820
 31
0.0
  0
LINE
  5
1f2
100
AcDbEntity
  8
Layer_1
 62
7
100
AcDbLine
 10
31.414220
 20
9.585820
 30
0.0
 11
30.778498
 21
9.157209
 31
0.0
  0
LINE
  5
1f3
100
AcDbEntity
  8
Layer_1
 62
7
100
AcDbLine
 10
30.778498
 20
9.157209
 30
0.0
 11
30.000008
 21
9.000040
 31
0.0
  0
LINE
  5
1f4
100
AcDbEntity
  8
Layer_1
 62
7
100
AcDbLine
 10
30.000008
 20
9.000040
 30
0.0
 11
29.221517
 21
9.157209
 31
0.0
  0
LINE
  5
1f5
100
AcDbEntity
  8
Layer_1
 62
7
100
AcDbLine
 10
29.221517
 20
9.157209
 30
0.0
 11
28.585795
 21
9.585820
 31
0.0
  0
LINE
  5
1f6
100
AcDbEntity
  8
Layer_1
 62
7
100
AcDbLine
 10
28.585795
 20
9.585820
 30
0.0
 11
28.157179
 21
10.221554
 31
0.0
  0
LINE
  5
1f7
100
AcDbEntity
  8
Layer_1
 62
7
100
AcDbLine
 10
28.157179
 20
10.221554
 30
0.0
 11
28.000008
 21
11.000036
 31
0.0
  0
LINE
  5
1f8
100
AcDbEntity
  8
Layer_1
 62
7
100
AcDbLine
 10
28.000008
 20
11.000036
 30
0.0
 11
28.157177
 21
11.778518
 31
0.0
  0
LINE
  5
1f9
100
AcDbEntity
  8
Layer_1
 62
7
100
AcDbLine
 10
28.157177
 20
11.778518
 30
0.0
 11
28.585795
 21
12.414251
 31
0.0
  0
LINE
  5
1fa
100
AcDbEntity
  8
Layer_1
 62
7
100
AcDbLine
 10
28.585795
 20
12.414251
 30
0.0
 11
29.221517
 21
12.842862
 31
0.0
  0
LINE
  5
1fb
100
AcDbEntity
  8
Layer_1
 62
7
100
AcDbLine
 10
29.221517
 20
12.842862
 30
0.0
 11
30.000008
 21
13.000032
 31
0.0
  0
LINE
  5
1fc
100
AcDbEntity
  8
Layer_1
 62
7
100
AcDbLine
 10
30.000008
 20
13.000032
 30
0.0
 11
30.778498
 21
12.842862
 31
0.0
  0
LINE
  5
1fd
100
AcDbEntity
  8
Layer_1
 62
7
100
AcDbLine
 10
30.778498
 20
12.842862
 30
0.0
 11
31.414220
 21
12.414251
 31
0.0
  0
LINE
  5
1fe
100
AcDbEntity
  8
Layer_1
 62
7
100
AcDbLine
 10
31.414220
 20
12.414251
 30
0.0
 11
31.842837
 21
11.778518
 31
0.0
  0
LINE
  5
1ff
100
AcDbEntity
  8
Layer_1
 62
7
100
AcDbLine
 10
31.842837
 20
11.778518
 30
0.0
 11
32.000007
 21
11.000036
 31
0.0
  0
LINE
  5
200
100
AcDbEntity
  8
Layer_1
 62
7
100
AcDbLine
 10
42.000018
 20
11.000036
 30
0.0
 11
41.842848
 21
10.221554
 31
0.0
  0
LINE
  5
201
100
AcDbEntity
  8
Layer_1
 62
7
100
AcDbLine
 10
41.842848
 20
10.221554
 30
0.0
 11
41.414232
 21
9.585820
 31
0.0
  0
LINE
  5
202
100
AcDbEntity
  8
Layer_1
 62
7
100
AcDbLine
 10
41.414232
 20
9.585820
 30
0.0
 11
40.778509
 21
9.157209
 31
0.0
  0
LINE
  5
203
100
AcDbEntity
  8
Layer_1
 62
7
100
AcDbLine
 10
40.778509
 20
9.157209
 30
0.0
 11
40.000019
 21
9.000040
 31
0.0
  0
LINE
  5
204
100
AcDbEntity
  8
Layer_1
 62
7
100
AcDbLine
 10
40.000019
 20
9.000040
 30
0.0
 11
39.221529
 21
9.157209
 31
0.0
  0
LINE
  5
205
100
AcDbEntity
  8
Layer_1
 62
7
100
AcDbLine
 10
39.221529
 20
9.157209
 30
0.0
 11
38.585806
 21
9.585820
 31
0.0
  0
LINE
  5
206
100
AcDbEntity
  8
Layer_1
 62
7
100
AcDbLine
 10
38.585806
 20
9.585820
 30
0.0
 11
38.157190
 21
10.221554
 31
0.0
  0
LINE
  5
207
100
AcDbEntity
  8
Layer_1
 62
7
100
AcDbLine
 10
38.157190
 20
10.221554
 30
0.0
 11
38.000017
 21
11.000036
 31
0.0
  0
LINE
  5
208
100
AcDbEntity
  8
Layer_1
 62
7
100
AcDbLine
 10
38.000017
 20
11.000036
 30
0.0
 11
38.157187
 21
11.778518
 31
0.0
  0
LINE
  5
209
100
AcDbEntity
  8
Layer_1
 62
7
100
AcDbLine
 10
38.157187
 20
11.778518
 30
0.0
 11
38.585803
 21
12.414251
 31
0.0
  0
LINE
  5
20a
100
AcDbEntity
  8
Layer_1
 62
7
100
AcDbLine
 10
38.585803
 20
12.414251
 30
0.0
 11
39.221529
 21
12.842862
 31
0.0
  0
LINE
  5
20b
100
AcDbEntity
  8
Layer_1
 62
7
100
AcDbLine
 10
39.221529
 20
12.842862
 30
0.0
 11
40.000019
 21
13.000032
 31
0.0
  0
LINE
  5
20c
100
AcDbEntity
  8
Layer_1
 62
7
100
AcDbLine
 10
40.000019
 20
13.000032
 30
0.0
 11
40.778509
 21
12.842862
 31
0.0
  0
LINE
  5
20d
100
AcDbEntity
  8
Layer_1
 62
7
100
AcDbLine
 10
40.778509
 20
12.842862
 30
0.0
 11
41.414232
 21
12.414251
 31
0.0
  0
LINE
  5
20e
100
AcDbEntity
  8
Layer_1
 62
7
100
AcDbLine
 10
41.414232
 20
12.414251
 30
0.0
 11
41.842848
 21
11.778518
 31
0.0
  0
LINE
  5
20f
100
AcDbEntity
  8
Layer_1
 62
7
100
AcDbLine
 10
41.842848
 20
11.778518
 30
0.0
 11
42.000018
 21
11.000036
 31
0.0
  0
LINE
  5
210
100
AcDbEntity
  8
Layer_1
 62
7
100
AcDbLine
 10
52.000009
 20
11.000036
 30
0.0
 11
51.842839
 21
10.221554
 31
0.0
  0
LINE
  5
211
100
AcDbEntity
  8
Layer_1
 62
7
100
AcDbLine
 10
51.842839
 20
10.221554
 30
0.0
 11
51.414223
 21
9.585820
 31
0.0
  0
LINE
  5
212
100
AcDbEntity
  8
Layer_1
 62
7
100
AcDbLine
 10
51.414223
 20
9.585820
 30
0.0
 11
50.778500
 21
9.157209
 31
0.0
  0
LINE
  5
213
100
AcDbEntity
  8
Layer_1
 62
7
100
AcDbLine
 10
50.778500
 20
9.157209
 30
0.0
 11
50.000010
 21
9.000040
 31
0.0
  0
LINE
  5
214
100
AcDbEntity
  8
Layer_1
 62
7
100
AcDbLine
 10
50.000010
 20
9.000040
 30
0.0
 11
49.221520
 21
9.157209
 31
0.0
  0
LINE
  5
215
100
AcDbEntity
  8
Layer_1
 62
7
100
AcDbLine
 10
49.221520
 20
9.157209
 30
0.0
 11
48.585797
 21
9.585820
 31
0.0
  0
LINE
  5
216
100
AcDbEntity
  8
Layer_1
 62
7
100
AcDbLine
 10
48.585797
 20
9.585820
 30
0.0
 11
48.157181
 21
10.221554
 31
0.0
  0
LINE
  5
217
100
AcDbEntity
  8
Layer_1
 62
7
100
AcDbLine
 10
48.157181
 20
10.221554
 30
0.0
 11
48.000011
 21
11.000036
 31
0.0
  0
LINE
  5
218
100
AcDbEntity
  8
Layer_1
 62
7
100
AcDbLine
 10
48.000011
 20
11.000036
 30
0.0
 11
48.157181
 21
11.778518
 31
0.0
  0
LINE
  5
219
100
AcDbEntity
  8
Layer_1
 62
7
100
AcDbLine
 10
48.157181
 20
11.778518
 30
0.0
 11
48.585797
 21
12.414251
 31
0.0
  0
LINE
  5
21a
100
AcDbEntity
  8
Layer_1
 62
7
100
AcDbLine
 10
48.585797
 20
12.414251
 30
0.0
 11
49.221520
 21
12.842862
 31
0.0
  0
LINE
  5
21b
100
AcDbEntity
  8
Layer_1
 62
7
100
AcDbLine
 10
49.221520
 20
12.842862
 30
0.0
 11
50.000010
 21
13.000032
 31
0.0
  0
LINE
  5
21c
100
AcDbEntity
  8
Layer_1
 62
7
100
AcDbLine
 10
50.000010
 20
13.000032
 30
0.0
 11
50.778500
 21
12.842862
 31
0.0
  0
LINE
  5
21d
100
AcDbEntity
  8
Layer_1
 62
7
100
AcDbLine
 10
50.778500
 20
12.842862
 30
0.0
 11
51.414223
 21
12.414251
 31
0.0
  0
LINE
  5
21e
100
AcDbEntity
  8
Layer_1
 62
7
100
AcDbLine
 10
51.414223
 20
12.414251
 30
0.0
 11
51.842839
 21
11.778518
 31
0.0
  0
LINE
  5
21f
100
AcDbEntity
  8
Layer_1
 62
7
100
AcDbLine
 10
51.842839
 20
11.778518
 30
0.0
 11
52.000009
 21
11.000036
 31
0.0
  0
LINE
  5
220
100
AcDbEntity
  8
Layer_1
 62
7
100
AcDbLine
 10
-7.000015
 20
-7.500026
 30
0.0
 11
-3.500008
 21
-7.500026
 31
0.0
  0
LINE
  5
221
100
AcDbEntity
  8
Layer_1
 62
7
100
AcDbLine
 10
-3.500008
 20
-7.500026
 30
0.0
 11
-0.000001
 21
-7.500026
 31
0.0
  0
LINE
  5
222
100
AcDbEntity
  8
Layer_1
 62
7
100
AcDbLine
 10
-0.000001
 20
-7.500026
 30
0.0
 11
3.500006
 21
-7.500026
 31
0.0
  0
LINE
  5
223
100
AcDbEntity
  8
Layer_1
 62
7
100
AcDbLine
 10
3.500006
 20
-7.500026
 30
0.0
 11
7.000013
 21
-7.500026
 31
0.0
  0
LINE
  5
224
100
AcDbEntity
  8
Layer_1
 62
7
100
AcDbLine
 10
7.000013
 20
-7.500026
 30
0.0
 11
8.734380
 21
-5.449258
 31
0.0
  0
LINE
  5
225
100
AcDbEntity
  8
Layer_1
 62
7
100
AcDbLine
 10
8.734380
 20
-5.449258
 30
0.0
 11
9.625000
 21
-3.281284
 31
0.0
  0
LINE
  5
226
100
AcDbEntity
  8
Layer_1
 62
7
100
AcDbLine
 10
9.625000
 20
-3.281284
 30
0.0
 11
9.953124
 21
-1.347694
 31
0.0
  0
LINE
  5
227
100
AcDbEntity
  8
Layer_1
 62
7
100
AcDbLine
 10
9.953124
 20
-1.347694
 30
0.0
 11
9.999999
 21
-0.000055
 31
0.0
  0
LINE
  5
228
100
AcDbEntity
  8
Layer_1
 62
7
100
AcDbLine
 10
9.999999
 20
-0.000055
 30
0.0
 11
9.953124
 21
1.347612
 31
0.0
  0
LINE
  5
229
100
AcDbEntity
  8
Layer_1
 62
7
100
AcDbLine
 10
9.953124
 20
1.347612
 30
0.0
 11
9.625000
 21
3.281202
 31
0.0
  0
LINE
  5
22a
100
AcDbEntity
  8
Layer_1
 62
7
100
AcDbLine
 10
9.625000
 20
3.281202
 30
0.0
 11
8.734380
 21
5.449204
 31
0.0
  0
LINE
  5
22b
100
AcDbEntity
  8
Layer_1
 62
7
100
AcDbLine
 10
8.734380
 20
5.449204
 30
0.0
 11
7.000013
 21
7.500000
 31
0.0
  0
LINE
  5
22c
100
AcDbEntity
  8
Layer_1
 62
7
100
AcDbLine
 10
7.000013
 20
7.500000
 30
0.0
 11
3.500006
 21
7.500000
 31
0.0
  0
LINE
  5
22d
100
AcDbEntity
  8
Layer_1
 62
7
100
AcDbLine
 10
3.500006
 20
7.500000
 30
0.0
 11
-0.000001
 21
7.500000
 31
0.0
  0
LINE
  5
22e
100
AcDbEntity
  8
Layer_1
 62
7
100
AcDbLine
 10
-0.000001
 20
7.500000
 30
0.0
 11
-3.500008
 21
7.500000
 31
0.0
  0
LINE
  5
22f
100
AcDbEntity
  8
Layer_1
 62
7
100
AcDbLine
 10
-3.500008
 20
7.500000
 30
0.0
 11
-7.000015
 21
7.500000
 31
0.0
  0
LINE
  5
230
100
AcDbEntity
  8
Layer_1
 62
7
100
AcDbLine
 10
-7.000015
 20
7.500000
 30
0.0
 11
-8.734382
 21
5.449204
 31
0.0
  0
LINE
  5
231
100
AcDbEntity
  8
Layer_1
 62
7
100
AcDbLine
 10
-8.734382
 20
5.449204
 30
0.0
 11
-9.625003
 21
3.281202
 31
0.0
  0
LINE
  5
232
100
AcDbEntity
  8
Layer_1
 62
7
100
AcDbLine
 10
-9.625003
 20
3.281202
 30
0.0
 11
-9.953126
 21
1.347612
 31
0.0
  0
LINE
  5
233
100
AcDbEntity
  8
Layer_1
 62
7
100
AcDbLine
 10
-9.953126
 20
1.347612
 30
0.0
 11
-10.000001
 21
-0.000055
 31
0.0
  0
LINE
  5
234
100
AcDbEntity
  8
Layer_1
 62
7
100
AcDbLine
 10
-10.000001
 20
-0.000055
 30
0.0
 11
-9.953126
 21
-1.347694
 31
0.0
  0
LINE
  5
235
100
AcDbEntity
  8
Layer_1
 62
7
100
AcDbLine
 10
-9.953126
 20
-1.347694
 30
0.0
 11
-9.625003
 21
-3.281284
 31
0.0
  0
LINE
  5
236
100
AcDbEntity
  8
Layer_1
 62
7
100
AcDbLine
 10
-9.625003
 20
-3.281284
 30
0.0
 11
-8.734382
 21
-5.449258
 31
0.0
  0
LINE
  5
237
100
AcDbEntity
  8
Layer_1
 62
7
100
AcDbLine
 10
-8.734382
 20
-5.449258
 30
0.0
 11
-7.000015
 21
-7.500026
 31
0.0
  0
ENDSEC
  0
SECTION
  2
OBJECTS
  0
DICTIONARY
  5
C
330
0
100
AcDbDictionary
  3
ACAD_GROUP
350
D
  3
ACAD_MLINESTYLE
350
17
  0
DICTIONARY
  5
D
330
C
100
AcDbDictionary
  0
DICTIONARY
  5
1A
330
C
100
AcDbDictionary
  0
DICTIONARY
  5
17
330
C
100
AcDbDictionary
  3
STANDARD
350
18
  0
DICTIONARY
  5
19
330
C
100
AcDbDictionary
  0
ENDSEC
  0
EOF
