<?xml version="1.0" encoding="UTF-8" standalone="no"?>
<!-- Created with Inkscape (http://www.inkscape.org/) -->

<svg
   xmlns:dc="http://purl.org/dc/elements/1.1/"
   xmlns:cc="http://creativecommons.org/ns#"
   xmlns:rdf="http://www.w3.org/1999/02/22-rdf-syntax-ns#"
   xmlns:svg="http://www.w3.org/2000/svg"
   xmlns="http://www.w3.org/2000/svg"
   xmlns:sodipodi="http://sodipodi.sourceforge.net/DTD/sodipodi-0.dtd"
   xmlns:inkscape="http://www.inkscape.org/namespaces/inkscape"
   width="210mm"
   height="297mm"
   viewBox="0 0 744.09448819 1052.3622047"
   id="svg4979"
   version="1.1"
   inkscape:version="0.91 r13725"
   sodipodi:docname="box-wheels-inside-43d.svg">
  <defs
     id="defs4981" />
  <sodipodi:namedview
     id="base"
     pagecolor="#ffffff"
     bordercolor="#666666"
     borderopacity="1.0"
     inkscape:pageopacity="0.0"
     inkscape:pageshadow="2"
     inkscape:zoom="1.979899"
     inkscape:cx="39.857458"
     inkscape:cy="17.047487"
     inkscape:document-units="mm"
     inkscape:current-layer="layer1"
     showgrid="true"
     inkscape:window-width="1366"
     inkscape:window-height="705"
     inkscape:window-x="-8"
     inkscape:window-y="-8"
     inkscape:window-maximized="1"
     showguides="true"
     inkscape:guide-bbox="true">
    <inkscape:grid
       type="xygrid"
       id="grid6193"
       units="mm"
       spacingx="3.5433071"
       spacingy="3.5433072" />
    <sodipodi:guide
       position="194.88189,0"
       orientation="0,1"
       id="guide4144" />
    <sodipodi:guide
       position="0,124.01575"
       orientation="1,0"
       id="guide4146" />
  </sodipodi:namedview>
  <metadata
     id="metadata4984">
    <rdf:RDF>
      <cc:Work
         rdf:about="">
        <dc:format>image/svg+xml</dc:format>
        <dc:type
           rdf:resource="http://purl.org/dc/dcmitype/StillImage" />
        <dc:title />
      </cc:Work>
    </rdf:RDF>
  </metadata>
  <g
     inkscape:label="Layer 1"
     inkscape:groupmode="layer"
     id="layer1">
    <path
       transform="scale(1,-1)"
       style="display:inline;fill:#d35f5f;fill-opacity:1;stroke:none;stroke-width:1.77165353;stroke-linejoin:round;stroke-miterlimit:4;stroke-dasharray:none;stroke-dashoffset:8;stroke-opacity:1"
       d="m -176.91893,-1116.1417 88.459465,0 88.459465,0 88.459465,0 88.459465,0 4.24144,0.8521 3.45629,2.3265 2.32652,3.4563 0.85209,4.2414 0,22.9083 0,22.9083 0,22.9083 0,22.9083 -0.85209,4.2414 -2.32652,3.4563 -3.45629,2.3265 -4.24144,0.8521 -88.459465,0 -88.459465,0 -88.459465,0 -88.459465,0 -4.24144,-0.8521 -3.45629,-2.3265 -2.32652,-3.4563 -0.85209,-4.2414 0,-22.9083 0,-22.9083 0,-22.9083 0,-22.9083 0.85209,-4.2414 2.32652,-3.4563 3.45629,-2.3265 z"
       id="rect4018-3"
       inkscape:connector-curvature="0"
       sodipodi:nodetypes="ccccccccccccccccccccccccccccccccc" />
    <path
       style="display:inline;opacity:1;fill:#ffe680;fill-opacity:1;stroke:none;stroke-width:1.77165353;stroke-linejoin:round;stroke-miterlimit:4;stroke-dasharray:none;stroke-dashoffset:8;stroke-opacity:1"
       d="m -168.30697,1101.9685 -0.41766,2.0688 -1.13904,1.6895 -1.68943,1.139 -2.06883,0.4177 -2.06883,-0.4177 -1.68943,-1.139 -1.13904,-1.6895 -0.41766,-2.0688 0.41766,-2.0688 1.13904,-1.6895 1.68943,-1.139 2.06883,-0.4177 2.06883,0.4177 1.68943,1.139 1.13904,1.6895 z"
       id="path5259-61-5-54-32"
       inkscape:connector-curvature="0"
       sodipodi:nodetypes="ccccccccccccccccc" />
    <path
       transform="matrix(-0.99277839,-0.11996278,-0.11996278,0.99277839,0,0)"
       style="display:inline;fill:#002255;fill-opacity:1;stroke:none;stroke-width:1"
       d="m -0.40197659,1081.0978 -0.41769336,2.0688 -1.13904395,1.6894 -1.6894154,1.139 -2.0688078,0.4177 -2.0688079,-0.4177 -1.6894156,-1.139 -1.1390444,-1.6894 -0.417693,-2.0688 0.41766,-2.0688 1.1390377,-1.6895 1.6894294,-1.139 2.0688338,-0.4177 2.0688337,0.4177 1.6894292,1.139 1.13903793,1.6895 z"
       id="path12890-1-8-8"
       inkscape:connector-curvature="0"
       sodipodi:nodetypes="ccccccccccccccccc" />
    <path
       transform="matrix(-0.99277839,-0.11996278,-0.11996278,0.99277839,0,0)"
       style="display:inline;fill:#002255;fill-opacity:1;stroke:none;stroke-width:1"
       d="m -246.64233,1051.3433 -0.41769,2.0688 -1.13905,1.6894 -1.68941,1.139 -2.06881,0.4177 -2.06881,-0.4177 -1.68941,-1.139 -1.13905,-1.6894 -0.41769,-2.0688 0.41766,-2.0688 1.13904,-1.6895 1.68943,-1.139 2.06883,-0.4177 2.06883,0.4177 1.68943,1.139 1.13904,1.6895 z"
       id="path12890-1-8-2-8"
       inkscape:connector-curvature="0"
       sodipodi:nodetypes="ccccccccccccccccc" />
    <path
       transform="matrix(0.97198734,-0.23503322,0.23503322,0.97198734,0,0)"
       style="display:inline;fill:#002255;fill-opacity:1;stroke:none;stroke-width:1"
       d="m -290.89422,1033.7313 -0.27845,1.3792 -0.75936,1.1263 -1.12629,0.7594 -1.37921,0.2784 -1.37921,-0.2785 -1.12629,-0.7593 -0.75936,-1.1263 -0.27845,-1.3792 0.27845,-1.3792 0.75936,-1.1263 1.12628,-0.7594 1.37922,-0.2784 1.37922,0.2785 1.12628,0.7593 0.75936,1.1263 z"
       id="path12644-3-2"
       inkscape:connector-curvature="0"
       sodipodi:nodetypes="ccccccccccccccccc" />
    <path
       transform="matrix(0.97198734,-0.23503322,0.23503322,0.97198734,0,0)"
       style="display:inline;fill:#002255;fill-opacity:1;stroke:none;stroke-width:1"
       d="m -323.2442,995.65179 -0.27845,1.37922 -0.75936,1.12628 -1.12628,0.75936 -1.37922,0.27845 -1.37921,-0.27845 -1.12628,-0.75936 -0.75936,-1.12629 -0.27845,-1.37921 0.27845,-1.37921 0.75936,-1.12628 1.12628,-0.75936 1.37921,-0.27845 1.37921,0.27845 1.12629,0.75936 0.75936,1.12628 z"
       id="path12644-3-7-6"
       inkscape:connector-curvature="0"
       sodipodi:nodetypes="ccccccccccccccccc" />
    <path
       style="display:inline;opacity:1;fill:#ffe680;fill-opacity:1;stroke:none;stroke-width:1.77165353;stroke-linejoin:round;stroke-miterlimit:4;stroke-dasharray:none;stroke-dashoffset:8;stroke-opacity:1"
       d="m 5.314973,1101.9685 -0.4176646,2.0688 -1.1390373,1.6895 -1.6894265,1.139 -2.068832104614,0.4177 -2.068832095386,-0.4177 -1.6894265,-1.139 -1.1390373,-1.6895 -0.4176646,-2.0688 0.4176646,-2.0688 1.1390373,-1.6895 1.6894265,-1.139 2.068832095386,-0.4177 2.068832104614,0.4177 1.6894265,1.139 1.1390373,1.6895 z"
       id="path5259-61-5-6-9-8"
       inkscape:connector-curvature="0"
       sodipodi:nodetypes="ccccccccccccccccc" />
    <path
       style="display:inline;opacity:1;fill:#ffe680;fill-opacity:1;stroke:none;stroke-width:1.77165353;stroke-linejoin:round;stroke-miterlimit:4;stroke-dasharray:none;stroke-dashoffset:8;stroke-opacity:1"
       d="m -168.30697,1044.5669 -0.41766,2.0688 -1.13904,1.6895 -1.68943,1.139 -2.06883,0.4177 -2.06883,-0.4177 -1.68943,-1.139 -1.13904,-1.6895 -0.41766,-2.0688 0.41766,-2.0688 1.13904,-1.6895 1.68943,-1.139 2.06883,-0.4177 2.06883,0.4177 1.68943,1.139 1.13904,1.6895 z"
       id="path5259-61-5-5-0-71"
       inkscape:connector-curvature="0"
       sodipodi:nodetypes="ccccccccccccccccc" />
    <path
       transform="scale(-1,1)"
       style="display:inline;opacity:1;fill:#ffe680;fill-opacity:1;stroke:none;stroke-width:1.77165353;stroke-linejoin:round;stroke-miterlimit:4;stroke-dasharray:none;stroke-dashoffset:8;stroke-opacity:1"
       d="m -168.30714,1101.9685 -0.41766,2.0688 -1.13904,1.6895 -1.68943,1.139 -2.06883,0.4177 -2.06883,-0.4177 -1.68943,-1.139 -1.13904,-1.6895 -0.41766,-2.0688 0.41766,-2.0688 1.13904,-1.6895 1.68943,-1.139 2.06883,-0.4177 2.06883,0.4177 1.68943,1.139 1.13904,1.6895 z"
       id="path5259-61-5-54-7-7"
       inkscape:connector-curvature="0"
       sodipodi:nodetypes="ccccccccccccccccc" />
    <path
       transform="matrix(-0.97198734,-0.23503322,-0.23503322,0.97198734,0,0)"
       style="display:inline;fill:#002255;fill-opacity:1;stroke:none;stroke-width:1"
       d="m -290.89422,1033.7313 -0.27845,1.3792 -0.75936,1.1263 -1.12629,0.7594 -1.37921,0.2784 -1.37921,-0.2785 -1.12629,-0.7593 -0.75936,-1.1263 -0.27845,-1.3792 0.27845,-1.3792 0.75936,-1.1263 1.12628,-0.7594 1.37922,-0.2784 1.37922,0.2785 1.12628,0.7593 0.75936,1.1263 z"
       id="path12644-3-3-8"
       inkscape:connector-curvature="0"
       sodipodi:nodetypes="ccccccccccccccccc" />
    <path
       transform="matrix(-0.97198734,-0.23503322,-0.23503322,0.97198734,0,0)"
       style="display:inline;fill:#002255;fill-opacity:1;stroke:none;stroke-width:1"
       d="m -323.2442,995.65173 -0.27845,1.37922 -0.75936,1.12628 -1.12628,0.75936 -1.37922,0.27845 -1.37921,-0.27845 -1.12628,-0.75936 -0.75936,-1.12629 -0.27845,-1.37921 0.27845,-1.37921 0.75936,-1.12628 1.12628,-0.75936 1.37921,-0.27845 1.37921,0.27845 1.12629,0.75936 0.75936,1.12628 z"
       id="path12644-3-7-5-3"
       inkscape:connector-curvature="0"
       sodipodi:nodetypes="ccccccccccccccccc" />
    <path
       transform="scale(-1,1)"
       style="display:inline;opacity:1;fill:#ffe680;fill-opacity:1;stroke:none;stroke-width:1.77165353;stroke-linejoin:round;stroke-miterlimit:4;stroke-dasharray:none;stroke-dashoffset:8;stroke-opacity:1"
       d="m -168.30714,1044.5669 -0.41766,2.0688 -1.13904,1.6895 -1.68943,1.139 -2.06883,0.4177 -2.06883,-0.4177 -1.68943,-1.139 -1.13904,-1.6895 -0.41766,-2.0688 0.41766,-2.0688 1.13904,-1.6895 1.68943,-1.139 2.06883,-0.4177 2.06883,0.4177 1.68943,1.139 1.13904,1.6895 z"
       id="path5259-61-5-5-0-9-1"
       inkscape:connector-curvature="0"
       sodipodi:nodetypes="ccccccccccccccccc" />
    <path
       style="display:inline;opacity:1;fill:#2b1100;fill-opacity:1;stroke:none;stroke-width:1.77165353;stroke-linejoin:round;stroke-miterlimit:4;stroke-dasharray:none;stroke-dashoffset:8;stroke-opacity:1"
       d="m -170.07865,1013.3857 -0.55691,2.7584 -1.51872,2.2526 -2.25256,1.5187 -2.75843,0.5569 -2.75843,-0.5569 -2.25256,-1.5187 -1.51872,-2.2526 -0.5569,-2.7584 0.5569,-2.7584 1.51872,-2.2526 2.25256,-1.5187 2.75843,-0.5569 2.75843,0.5569 2.25257,1.5187 1.51872,2.2526 z"
       id="path5259-61-98-16"
       inkscape:connector-curvature="0"
       sodipodi:nodetypes="ccccccccccccccccc" />
    <path
       style="display:inline;opacity:1;fill:#2b1100;fill-opacity:1;stroke:none;stroke-width:1.77165353;stroke-linejoin:round;stroke-miterlimit:4;stroke-dasharray:none;stroke-dashoffset:8;stroke-opacity:1"
       d="m -134.64555,1013.3858 -0.5569,2.7584 -1.51872,2.2526 -2.25256,1.5187 -2.75843,0.5569 -2.75843,-0.5569 -2.25256,-1.5187 -1.51872,-2.2526 -0.55691,-2.7584 0.5569,-2.7584 1.51872,-2.2526 2.25257,-1.5187 2.75843,-0.5569 2.75843,0.5569 2.25256,1.5187 1.51872,2.2526 z"
       id="path5259-61-2-3-9"
       inkscape:connector-curvature="0"
       sodipodi:nodetypes="ccccccccccccccccc" />
    <path
       style="display:inline;opacity:1;fill:#2b1100;fill-opacity:1;stroke:none;stroke-width:1.77165353;stroke-linejoin:round;stroke-miterlimit:4;stroke-dasharray:none;stroke-dashoffset:8;stroke-opacity:1"
       d="m -99.212565,1013.3857 -0.556905,2.7584 -1.51872,2.2526 -2.25256,1.5187 -2.75843,0.5569 -2.75843,-0.5569 -2.25256,-1.5187 -1.51872,-2.2526 -0.5569,-2.7584 0.5569,-2.7584 1.51872,-2.2526 2.25256,-1.5187 2.75843,-0.5569 2.75843,0.5569 2.25256,1.5187 1.518726,2.2526 z"
       id="path5259-61-0-5-0"
       inkscape:connector-curvature="0"
       sodipodi:nodetypes="ccccccccccccccccc" />
    <path
       style="display:inline;opacity:1;fill:#2b1100;fill-opacity:1;stroke:none;stroke-width:1.77165353;stroke-linejoin:round;stroke-miterlimit:4;stroke-dasharray:none;stroke-dashoffset:8;stroke-opacity:1"
       d="m -63.779459,1013.3858 -0.556905,2.7584 -1.518722,2.2526 -2.252561,1.5187 -2.758427,0.5569 -2.758427,-0.5569 -2.252561,-1.5187 -1.518721,-2.2526 -0.556905,-2.7584 0.556899,-2.7584 1.518721,-2.2526 2.252565,-1.5187 2.758429,-0.5569 2.758429,0.5569 2.252565,1.5187 1.518722,2.2526 z"
       id="path5259-61-2-5-0-2"
       inkscape:connector-curvature="0"
       sodipodi:nodetypes="ccccccccccccccccc" />
    <path
       style="display:inline;opacity:1;fill:#2b1100;fill-opacity:1;stroke:none;stroke-width:1.77165353;stroke-linejoin:round;stroke-miterlimit:4;stroke-dasharray:none;stroke-dashoffset:8;stroke-opacity:1"
       d="m -28.346358,1013.3857 -0.556905,2.7584 -1.518721,2.2526 -2.252561,1.5187 -2.758427,0.5569 -2.758427,-0.5569 -2.252561,-1.5187 -1.518721,-2.2526 -0.556905,-2.7584 0.556899,-2.7584 1.518721,-2.2526 2.252565,-1.5187 2.758429,-0.5569 2.758429,0.5569 2.252565,1.5187 1.518721,2.2526 z"
       id="path5259-61-01-9-19"
       inkscape:connector-curvature="0"
       sodipodi:nodetypes="ccccccccccccccccc" />
    <path
       style="display:inline;opacity:1;fill:#2b1100;fill-opacity:1;stroke:none;stroke-width:1.77165353;stroke-linejoin:round;stroke-miterlimit:4;stroke-dasharray:none;stroke-dashoffset:8;stroke-opacity:1"
       d="m 7.0866266,1013.3858 -0.5569053,2.7584 -1.5187209,2.2526 -2.2525613,1.5187 -2.758426604614,0.5569 -2.758426595386,-0.5569 -2.2525613,-1.5187 -1.5187209,-2.2526 -0.5569053,-2.7584 0.5568988,-2.7584 1.5187216,-2.2526 2.2525649,-1.5187 2.758428795386,-0.5569 2.758428804614,0.5569 2.2525649,1.5187 1.5187216,2.2526 z"
       id="path5259-61-2-8-42-8"
       inkscape:connector-curvature="0"
       sodipodi:nodetypes="ccccccccccccccccc" />
    <path
       style="display:inline;opacity:1;fill:#2b1100;fill-opacity:1;stroke:none;stroke-width:1.77165353;stroke-linejoin:round;stroke-miterlimit:4;stroke-dasharray:none;stroke-dashoffset:8;stroke-opacity:1"
       d="m 42.519731,1013.3857 -0.556905,2.7584 -1.518721,2.2526 -2.252561,1.5187 -2.758427,0.5569 -2.758427,-0.5569 -2.252561,-1.5187 -1.518721,-2.2526 -0.556905,-2.7584 0.556899,-2.7584 1.518721,-2.2526 2.252565,-1.5187 2.758429,-0.5569 2.758429,0.5569 2.252565,1.5187 1.518721,2.2526 z"
       id="path5259-61-09-4-0"
       inkscape:connector-curvature="0"
       sodipodi:nodetypes="ccccccccccccccccc" />
    <path
       style="display:inline;opacity:1;fill:#2b1100;fill-opacity:1;stroke:none;stroke-width:1.77165353;stroke-linejoin:round;stroke-miterlimit:4;stroke-dasharray:none;stroke-dashoffset:8;stroke-opacity:1"
       d="m 77.95284,1013.3858 -0.556905,2.7584 -1.518721,2.2526 -2.252561,1.5187 -2.758427,0.5569 -2.758427,-0.5569 -2.252561,-1.5187 -1.518721,-2.2526 -0.556905,-2.7584 0.556899,-2.7584 1.518721,-2.2526 2.252565,-1.5187 2.758429,-0.5569 2.758429,0.5569 2.252565,1.5187 1.518721,2.2526 z"
       id="path5259-61-2-1-59-0"
       inkscape:connector-curvature="0"
       sodipodi:nodetypes="ccccccccccccccccc" />
    <path
       style="display:inline;opacity:1;fill:#2b1100;fill-opacity:1;stroke:none;stroke-width:1.77165353;stroke-linejoin:round;stroke-miterlimit:4;stroke-dasharray:none;stroke-dashoffset:8;stroke-opacity:1"
       d="m 113.38595,1013.3857 -0.55691,2.7584 -1.51872,2.2526 -2.25256,1.5187 -2.75843,0.5569 -2.75843,-0.5569 -2.25256,-1.5187 -1.518717,-2.2526 -0.556905,-2.7584 0.556899,-2.7584 1.518723,-2.2526 2.25256,-1.5187 2.75843,-0.5569 2.75843,0.5569 2.25257,1.5187 1.51872,2.2526 z"
       id="path5259-61-5-0-05"
       inkscape:connector-curvature="0"
       sodipodi:nodetypes="ccccccccccccccccc" />
    <path
       style="display:inline;opacity:1;fill:#2b1100;fill-opacity:1;stroke:none;stroke-width:1.77165353;stroke-linejoin:round;stroke-miterlimit:4;stroke-dasharray:none;stroke-dashoffset:8;stroke-opacity:1"
       d="m 148.81893,1013.3858 -0.5569,2.7584 -1.51872,2.2526 -2.25256,1.5187 -2.75843,0.5569 -2.75843,-0.5569 -2.25256,-1.5187 -1.51872,-2.2526 -0.55691,-2.7584 0.5569,-2.7584 1.51872,-2.2526 2.25257,-1.5187 2.75843,-0.5569 2.75843,0.5569 2.25256,1.5187 1.51872,2.2526 z"
       id="path5259-61-2-0-9"
       inkscape:connector-curvature="0"
       sodipodi:nodetypes="ccccccccccccccccc" />
    <path
       style="display:inline;opacity:1;fill:#2b1100;fill-opacity:1;stroke:none;stroke-width:1.77165353;stroke-linejoin:round;stroke-miterlimit:4;stroke-dasharray:none;stroke-dashoffset:8;stroke-opacity:1"
       d="m 184.25205,1013.3857 -0.5569,2.7584 -1.51872,2.2526 -2.25256,1.5187 -2.75843,0.5569 -2.75843,-0.5569 -2.25256,-1.5187 -1.51872,-2.2526 -0.55691,-2.7584 0.5569,-2.7584 1.51872,-2.2526 2.25257,-1.5187 2.75843,-0.5569 2.75843,0.5569 2.25256,1.5187 1.51872,2.2526 z"
       id="path5259-61-0-81-6"
       inkscape:connector-curvature="0"
       sodipodi:nodetypes="ccccccccccccccccc" />
  </g>
</svg>
