  0
SECTION
  2
HEADER
  9
$ACADVER
  1
AC1014
  9
$HANDSEED
  5
FFFF
  9
$MEASUREMENT
 70
     1
  0
ENDSEC
  0
SECTION
  2
TABLES
  0
TABLE
  2
VPORT
  5
8
330
0
100
AcDbSymbolTable
 70
     4
  0
VPORT
  5
2E
330
8
100
AcDbSymbolTableRecord
100
AcDbViewportTableRecord
  2
*ACTIVE
 70
     0
 10
0.0
 20
0.0
 11
1.0
 21
1.0
 12
210.0
 22
148.5
 13
0.0
 23
0.0
 14
10.0
 24
10.0
 15
10.0
 25
10.0
 16
0.0
 26
0.0
 36
1.0
 17
0.0
 27
0.0
 37
0.0
 40
341.0
 41
1.24
 42
50.0
 43
0.0
 44
0.0
 50
0.0
 51
0.0
 71
     0
 72
   100
 73
     1
 74
     3
 75
     0
 76
     0
 77
     0
 78
     0
  0
ENDTAB
  0
TABLE
  2
LTYPE
  5
5
330
0
100
AcDbSymbolTable
 70
     1
  0
LTYPE
  5
14
330
5
100
AcDbSymbolTableRecord
100
AcDbLinetypeTableRecord
  2
BYBLOCK
 70
     0
  3

 72
    65
 73
     0
 40
0.0
  0
LTYPE
  5
15
330
5
100
AcDbSymbolTableRecord
100
AcDbLinetypeTableRecord
  2
BYLAYER
 70
     0
  3

 72
    65
 73
     0
 40
0.0
  0
LTYPE
  5
16
330
5
100
AcDbSymbolTableRecord
100
AcDbLinetypeTableRecord
  2
CONTINUOUS
 70
     0
  3
Solid line
 72
    65
 73
     0
 40
0.0
  0
ENDTAB
  0
TABLE
  2
LAYER
  5
2
100
AcDbSymbolTable
 70
2
  0
LAYER
  5
50
100
AcDbSymbolTableRecord
100
AcDbLayerTableRecord
  2
0
 70
0
  6
CONTINUOUS
  0
LAYER
  5
51
100
AcDbSymbolTableRecord
100
AcDbLayerTableRecord
  2
Layer_1
 70
0
  6
CONTINUOUS
  0
ENDTAB
  0
TABLE
  2
STYLE
  5
3
330
0
100
AcDbSymbolTable
 70
     1
  0
STYLE
  5
11
330
3
100
AcDbSymbolTableRecord
100
AcDbTextStyleTableRecord
  2
STANDARD
 70
     0
 40
0.0
 41
1.0
 50
0.0
 71
     0
 42
2.5
  3
txt
  4

  0
ENDTAB
  0
TABLE
  2
VIEW
  5
6
330
0
100
AcDbSymbolTable
 70
     0
  0
ENDTAB
  0
TABLE
  2
UCS
  5
7
330
0
100
AcDbSymbolTable
 70
     0
  0
ENDTAB
  0
TABLE
  2
APPID
  5
9
330
0
100
AcDbSymbolTable
 70
     2
  0
APPID
  5
12
330
9
100
AcDbSymbolTableRecord
100
AcDbRegAppTableRecord
  2
ACAD
 70
     0
  0
ENDTAB
  0
TABLE
  2
DIMSTYLE
  5
A
330
0
100
AcDbSymbolTable
 70
     1
  0
DIMSTYLE
105
27
330
A
100
AcDbSymbolTableRecord
100
AcDbDimStyleTableRecord
  2
ISO-25
 70
     0
  3

  4

  5

  6

  7

 40
1.0
 41
2.5
 42
0.625
 43
3.75
 44
1.25
 45
0.0
 46
0.0
 47
0.0
 48
0.0
140
2.5
141
2.5
142
0.0
143
0.03937007874016
144
1.0
145
0.0
146
1.0
147
0.625
 71
     0
 72
     0
 73
     0
 74
     0
 75
     0
 76
     0
 77
     1
 78
     8
170
     0
171
     3
172
     1
173
     0
174
     0
175
     0
176
     0
177
     0
178
     0
270
     2
271
     2
272
     2
273
     2
274
     3
340
11
275
     0
280
     0
281
     0
282
     0
283
     0
284
     8
285
     0
286
     0
287
     3
288
     0
  0
ENDTAB
  0
TABLE
  2
BLOCK_RECORD
  5
1
330
0
100
AcDbSymbolTable
 70
     1
  0
BLOCK_RECORD
  5
1F
330
1
100
AcDbSymbolTableRecord
100
AcDbBlockTableRecord
  2
*MODEL_SPACE
  0
BLOCK_RECORD
  5
1B
330
1
100
AcDbSymbolTableRecord
100
AcDbBlockTableRecord
  2
*PAPER_SPACE
  0
ENDTAB
  0
ENDSEC
  0
SECTION
  2
BLOCKS
  0
BLOCK
  5
20
330
1F
100
AcDbEntity
  8
0
100
AcDbBlockBegin
  2
*MODEL_SPACE
 70
     0
 10
0.0
 20
0.0
 30
0.0
  3
*MODEL_SPACE
  1

  0
ENDBLK
  5
21
330
1F
100
AcDbEntity
  8
0
100
AcDbBlockEnd
  0
BLOCK
  5
1C
330
1B
100
AcDbEntity
 67
     1
  8
0
100
AcDbBlockBegin
  2
*PAPER_SPACE
  1

  0
ENDBLK
  5
1D
330
1B
100
AcDbEntity
 67
     1
  8
0
100
AcDbBlockEnd
  0
ENDSEC
  0
SECTION
  2
ENTITIES
  0
LINE
  5
100
100
AcDbEntity
  8
Layer_1
 62
7
100
AcDbLine
 10
-49.930454
 20
-17.999991
 30
0.0
 11
-24.965227
 21
-17.999991
 31
0.0
  0
LINE
  5
101
100
AcDbEntity
  8
Layer_1
 62
7
100
AcDbLine
 10
-24.965227
 20
-17.999991
 30
0.0
 11
0.000000
 21
-17.999991
 31
0.0
  0
LINE
  5
102
100
AcDbEntity
  8
Layer_1
 62
7
100
AcDbLine
 10
0.000000
 20
-17.999991
 30
0.0
 11
24.965227
 21
-17.999991
 31
0.0
  0
LINE
  5
103
100
AcDbEntity
  8
Layer_1
 62
7
100
AcDbLine
 10
24.965227
 20
-17.999991
 30
0.0
 11
49.930454
 21
-17.999991
 31
0.0
  0
LINE
  5
104
100
AcDbEntity
  8
Layer_1
 62
7
100
AcDbLine
 10
49.930454
 20
-17.999991
 30
0.0
 11
51.127482
 21
-17.759509
 31
0.0
  0
LINE
  5
105
100
AcDbEntity
  8
Layer_1
 62
7
100
AcDbLine
 10
51.127482
 20
-17.759509
 30
0.0
 11
52.102924
 21
-17.102919
 31
0.0
  0
LINE
  5
106
100
AcDbEntity
  8
Layer_1
 62
7
100
AcDbLine
 10
52.102924
 20
-17.102919
 30
0.0
 11
52.759520
 21
-16.127475
 31
0.0
  0
LINE
  5
107
100
AcDbEntity
  8
Layer_1
 62
7
100
AcDbLine
 10
52.759520
 20
-16.127475
 30
0.0
 11
52.999998
 21
-14.930457
 31
0.0
  0
LINE
  5
108
100
AcDbEntity
  8
Layer_1
 62
7
100
AcDbLine
 10
52.999998
 20
-14.930457
 30
0.0
 11
52.999998
 21
-8.465226
 31
0.0
  0
LINE
  5
109
100
AcDbEntity
  8
Layer_1
 62
7
100
AcDbLine
 10
52.999998
 20
-8.465226
 30
0.0
 11
52.999998
 21
-1.999995
 31
0.0
  0
LINE
  5
10a
100
AcDbEntity
  8
Layer_1
 62
7
100
AcDbLine
 10
52.999998
 20
-1.999995
 30
0.0
 11
52.999998
 21
4.465237
 31
0.0
  0
LINE
  5
10b
100
AcDbEntity
  8
Layer_1
 62
7
100
AcDbLine
 10
52.999998
 20
4.465237
 30
0.0
 11
52.999998
 21
10.930468
 31
0.0
  0
LINE
  5
10c
100
AcDbEntity
  8
Layer_1
 62
7
100
AcDbLine
 10
52.999998
 20
10.930468
 30
0.0
 11
52.759520
 21
12.127485
 31
0.0
  0
LINE
  5
10d
100
AcDbEntity
  8
Layer_1
 62
7
100
AcDbLine
 10
52.759520
 20
12.127485
 30
0.0
 11
52.102924
 21
13.102930
 31
0.0
  0
LINE
  5
10e
100
AcDbEntity
  8
Layer_1
 62
7
100
AcDbLine
 10
52.102924
 20
13.102930
 30
0.0
 11
51.127482
 21
13.759520
 31
0.0
  0
LINE
  5
10f
100
AcDbEntity
  8
Layer_1
 62
7
100
AcDbLine
 10
51.127482
 20
13.759520
 30
0.0
 11
49.930454
 21
14.000002
 31
0.0
  0
LINE
  5
110
100
AcDbEntity
  8
Layer_1
 62
7
100
AcDbLine
 10
49.930454
 20
14.000002
 30
0.0
 11
24.965227
 21
14.000002
 31
0.0
  0
LINE
  5
111
100
AcDbEntity
  8
Layer_1
 62
7
100
AcDbLine
 10
24.965227
 20
14.000002
 30
0.0
 11
0.000000
 21
14.000002
 31
0.0
  0
LINE
  5
112
100
AcDbEntity
  8
Layer_1
 62
7
100
AcDbLine
 10
0.000000
 20
14.000002
 30
0.0
 11
-24.965227
 21
14.000002
 31
0.0
  0
LINE
  5
113
100
AcDbEntity
  8
Layer_1
 62
7
100
AcDbLine
 10
-24.965227
 20
14.000002
 30
0.0
 11
-49.930454
 21
14.000002
 31
0.0
  0
LINE
  5
114
100
AcDbEntity
  8
Layer_1
 62
7
100
AcDbLine
 10
-49.930454
 20
14.000002
 30
0.0
 11
-51.127482
 21
13.759520
 31
0.0
  0
LINE
  5
115
100
AcDbEntity
  8
Layer_1
 62
7
100
AcDbLine
 10
-51.127482
 20
13.759520
 30
0.0
 11
-52.102924
 21
13.102930
 31
0.0
  0
LINE
  5
116
100
AcDbEntity
  8
Layer_1
 62
7
100
AcDbLine
 10
-52.102924
 20
13.102930
 30
0.0
 11
-52.759520
 21
12.127485
 31
0.0
  0
LINE
  5
117
100
AcDbEntity
  8
Layer_1
 62
7
100
AcDbLine
 10
-52.759520
 20
12.127485
 30
0.0
 11
-52.999998
 21
10.930468
 31
0.0
  0
LINE
  5
118
100
AcDbEntity
  8
Layer_1
 62
7
100
AcDbLine
 10
-52.999998
 20
10.930468
 30
0.0
 11
-52.999998
 21
4.465237
 31
0.0
  0
LINE
  5
119
100
AcDbEntity
  8
Layer_1
 62
7
100
AcDbLine
 10
-52.999998
 20
4.465237
 30
0.0
 11
-52.999998
 21
-1.999995
 31
0.0
  0
LINE
  5
11a
100
AcDbEntity
  8
Layer_1
 62
7
100
AcDbLine
 10
-52.999998
 20
-1.999995
 30
0.0
 11
-52.999998
 21
-8.465226
 31
0.0
  0
LINE
  5
11b
100
AcDbEntity
  8
Layer_1
 62
7
100
AcDbLine
 10
-52.999998
 20
-8.465226
 30
0.0
 11
-52.999998
 21
-14.930457
 31
0.0
  0
LINE
  5
11c
100
AcDbEntity
  8
Layer_1
 62
7
100
AcDbLine
 10
-52.999998
 20
-14.930457
 30
0.0
 11
-52.759520
 21
-16.127475
 31
0.0
  0
LINE
  5
11d
100
AcDbEntity
  8
Layer_1
 62
7
100
AcDbLine
 10
-52.759520
 20
-16.127475
 30
0.0
 11
-52.102924
 21
-17.102919
 31
0.0
  0
LINE
  5
11e
100
AcDbEntity
  8
Layer_1
 62
7
100
AcDbLine
 10
-52.102924
 20
-17.102919
 30
0.0
 11
-51.127482
 21
-17.759509
 31
0.0
  0
LINE
  5
11f
100
AcDbEntity
  8
Layer_1
 62
7
100
AcDbLine
 10
-51.127482
 20
-17.759509
 30
0.0
 11
-49.930454
 21
-17.999991
 31
0.0
  0
LINE
  5
120
100
AcDbEntity
  8
Layer_1
 62
7
100
AcDbLine
 10
-47.499967
 20
-13.999999
 30
0.0
 11
-47.617840
 21
-14.583860
 31
0.0
  0
LINE
  5
121
100
AcDbEntity
  8
Layer_1
 62
7
100
AcDbLine
 10
-47.617840
 20
-14.583860
 30
0.0
 11
-47.939302
 21
-15.060675
 31
0.0
  0
LINE
  5
122
100
AcDbEntity
  8
Layer_1
 62
7
100
AcDbLine
 10
-47.939302
 20
-15.060675
 30
0.0
 11
-48.416097
 21
-15.382126
 31
0.0
  0
LINE
  5
123
100
AcDbEntity
  8
Layer_1
 62
7
100
AcDbLine
 10
-48.416097
 20
-15.382126
 30
0.0
 11
-48.999967
 21
-15.500010
 31
0.0
  0
LINE
  5
124
100
AcDbEntity
  8
Layer_1
 62
7
100
AcDbLine
 10
-48.999967
 20
-15.500010
 30
0.0
 11
-49.583837
 21
-15.382126
 31
0.0
  0
LINE
  5
125
100
AcDbEntity
  8
Layer_1
 62
7
100
AcDbLine
 10
-49.583837
 20
-15.382126
 30
0.0
 11
-50.060631
 21
-15.060675
 31
0.0
  0
LINE
  5
126
100
AcDbEntity
  8
Layer_1
 62
7
100
AcDbLine
 10
-50.060631
 20
-15.060675
 30
0.0
 11
-50.382094
 21
-14.583860
 31
0.0
  0
LINE
  5
127
100
AcDbEntity
  8
Layer_1
 62
7
100
AcDbLine
 10
-50.382094
 20
-14.583860
 30
0.0
 11
-50.499967
 21
-13.999999
 31
0.0
  0
LINE
  5
128
100
AcDbEntity
  8
Layer_1
 62
7
100
AcDbLine
 10
-50.499967
 20
-13.999999
 30
0.0
 11
-50.382094
 21
-13.416138
 31
0.0
  0
LINE
  5
129
100
AcDbEntity
  8
Layer_1
 62
7
100
AcDbLine
 10
-50.382094
 20
-13.416138
 30
0.0
 11
-50.060631
 21
-12.939323
 31
0.0
  0
LINE
  5
12a
100
AcDbEntity
  8
Layer_1
 62
7
100
AcDbLine
 10
-50.060631
 20
-12.939323
 30
0.0
 11
-49.583837
 21
-12.617872
 31
0.0
  0
LINE
  5
12b
100
AcDbEntity
  8
Layer_1
 62
7
100
AcDbLine
 10
-49.583837
 20
-12.617872
 30
0.0
 11
-48.999967
 21
-12.499988
 31
0.0
  0
LINE
  5
12c
100
AcDbEntity
  8
Layer_1
 62
7
100
AcDbLine
 10
-48.999967
 20
-12.499988
 30
0.0
 11
-48.416097
 21
-12.617872
 31
0.0
  0
LINE
  5
12d
100
AcDbEntity
  8
Layer_1
 62
7
100
AcDbLine
 10
-48.416097
 20
-12.617872
 30
0.0
 11
-47.939302
 21
-12.939323
 31
0.0
  0
LINE
  5
12e
100
AcDbEntity
  8
Layer_1
 62
7
100
AcDbLine
 10
-47.939302
 20
-12.939323
 30
0.0
 11
-47.617840
 21
-13.416138
 31
0.0
  0
LINE
  5
12f
100
AcDbEntity
  8
Layer_1
 62
7
100
AcDbLine
 10
-47.617840
 20
-13.416138
 30
0.0
 11
-47.499967
 21
-13.999999
 31
0.0
  0
LINE
  5
130
100
AcDbEntity
  8
Layer_1
 62
7
100
AcDbLine
 10
-36.489195
 20
-5.920049
 30
0.0
 11
-36.442206
 21
-6.513835
 31
0.0
  0
LINE
  5
131
100
AcDbEntity
  8
Layer_1
 62
7
100
AcDbLine
 10
-36.442206
 20
-6.513835
 30
0.0
 11
-36.180260
 21
-7.025742
 31
0.0
  0
LINE
  5
132
100
AcDbEntity
  8
Layer_1
 62
7
100
AcDbLine
 10
-36.180260
 20
-7.025742
 30
0.0
 11
-35.745475
 21
-7.402069
 31
0.0
  0
LINE
  5
133
100
AcDbEntity
  8
Layer_1
 62
7
100
AcDbLine
 10
-35.745475
 20
-7.402069
 30
0.0
 11
-35.179970
 21
-7.589144
 31
0.0
  0
LINE
  5
134
100
AcDbEntity
  8
Layer_1
 62
7
100
AcDbLine
 10
-35.179970
 20
-7.589144
 30
0.0
 11
-34.586181
 21
-7.542153
 31
0.0
  0
LINE
  5
135
100
AcDbEntity
  8
Layer_1
 62
7
100
AcDbLine
 10
-34.586181
 20
-7.542153
 30
0.0
 11
-34.074271
 21
-7.280220
 31
0.0
  0
LINE
  5
136
100
AcDbEntity
  8
Layer_1
 62
7
100
AcDbLine
 10
-34.074271
 20
-7.280220
 30
0.0
 11
-33.697933
 21
-6.845441
 31
0.0
  0
LINE
  5
137
100
AcDbEntity
  8
Layer_1
 62
7
100
AcDbLine
 10
-33.697933
 20
-6.845441
 30
0.0
 11
-33.510860
 21
-6.279937
 31
0.0
  0
LINE
  5
138
100
AcDbEntity
  8
Layer_1
 62
7
100
AcDbLine
 10
-33.510860
 20
-6.279937
 30
0.0
 11
-33.557840
 21
-5.686152
 31
0.0
  0
LINE
  5
139
100
AcDbEntity
  8
Layer_1
 62
7
100
AcDbLine
 10
-33.557840
 20
-5.686152
 30
0.0
 11
-33.819780
 21
-5.174217
 31
0.0
  0
LINE
  5
13a
100
AcDbEntity
  8
Layer_1
 62
7
100
AcDbLine
 10
-33.819780
 20
-5.174217
 30
0.0
 11
-34.254569
 21
-4.797890
 31
0.0
  0
LINE
  5
13b
100
AcDbEntity
  8
Layer_1
 62
7
100
AcDbLine
 10
-34.254569
 20
-4.797890
 30
0.0
 11
-34.820082
 21
-4.610814
 31
0.0
  0
LINE
  5
13c
100
AcDbEntity
  8
Layer_1
 62
7
100
AcDbLine
 10
-34.820082
 20
-4.610814
 30
0.0
 11
-35.413878
 21
-4.657804
 31
0.0
  0
LINE
  5
13d
100
AcDbEntity
  8
Layer_1
 62
7
100
AcDbLine
 10
-35.413878
 20
-4.657804
 30
0.0
 11
-35.925792
 21
-4.919737
 31
0.0
  0
LINE
  5
13e
100
AcDbEntity
  8
Layer_1
 62
7
100
AcDbLine
 10
-35.925792
 20
-4.919737
 30
0.0
 11
-36.302132
 21
-5.354544
 31
0.0
  0
LINE
  5
13f
100
AcDbEntity
  8
Layer_1
 62
7
100
AcDbLine
 10
-36.302132
 20
-5.354544
 30
0.0
 11
-36.489195
 21
-5.920049
 31
0.0
  0
LINE
  5
140
100
AcDbEntity
  8
Layer_1
 62
7
100
AcDbLine
 10
33.510816
 20
-5.920064
 30
0.0
 11
33.557804
 21
-6.513850
 31
0.0
  0
LINE
  5
141
100
AcDbEntity
  8
Layer_1
 62
7
100
AcDbLine
 10
33.557804
 20
-6.513850
 30
0.0
 11
33.819751
 21
-7.025757
 31
0.0
  0
LINE
  5
142
100
AcDbEntity
  8
Layer_1
 62
7
100
AcDbLine
 10
33.819751
 20
-7.025757
 30
0.0
 11
34.254535
 21
-7.402084
 31
0.0
  0
LINE
  5
143
100
AcDbEntity
  8
Layer_1
 62
7
100
AcDbLine
 10
34.254535
 20
-7.402084
 30
0.0
 11
34.820041
 21
-7.589158
 31
0.0
  0
LINE
  5
144
100
AcDbEntity
  8
Layer_1
 62
7
100
AcDbLine
 10
34.820041
 20
-7.589158
 30
0.0
 11
35.413830
 21
-7.542167
 31
0.0
  0
LINE
  5
145
100
AcDbEntity
  8
Layer_1
 62
7
100
AcDbLine
 10
35.413830
 20
-7.542167
 30
0.0
 11
35.925738
 21
-7.280235
 31
0.0
  0
LINE
  5
146
100
AcDbEntity
  8
Layer_1
 62
7
100
AcDbLine
 10
35.925738
 20
-7.280235
 30
0.0
 11
36.302079
 21
-6.845456
 31
0.0
  0
LINE
  5
147
100
AcDbEntity
  8
Layer_1
 62
7
100
AcDbLine
 10
36.302079
 20
-6.845456
 30
0.0
 11
36.489150
 21
-6.279952
 31
0.0
  0
LINE
  5
148
100
AcDbEntity
  8
Layer_1
 62
7
100
AcDbLine
 10
36.489150
 20
-6.279952
 30
0.0
 11
36.442170
 21
-5.686167
 31
0.0
  0
LINE
  5
149
100
AcDbEntity
  8
Layer_1
 62
7
100
AcDbLine
 10
36.442170
 20
-5.686167
 30
0.0
 11
36.180229
 21
-5.174232
 31
0.0
  0
LINE
  5
14a
100
AcDbEntity
  8
Layer_1
 62
7
100
AcDbLine
 10
36.180229
 20
-5.174232
 30
0.0
 11
35.745440
 21
-4.797905
 31
0.0
  0
LINE
  5
14b
100
AcDbEntity
  8
Layer_1
 62
7
100
AcDbLine
 10
35.745440
 20
-4.797905
 30
0.0
 11
35.179928
 21
-4.610829
 31
0.0
  0
LINE
  5
14c
100
AcDbEntity
  8
Layer_1
 62
7
100
AcDbLine
 10
35.179928
 20
-4.610829
 30
0.0
 11
34.586133
 21
-4.657819
 31
0.0
  0
LINE
  5
14d
100
AcDbEntity
  8
Layer_1
 62
7
100
AcDbLine
 10
34.586133
 20
-4.657819
 30
0.0
 11
34.074220
 21
-4.919752
 31
0.0
  0
LINE
  5
14e
100
AcDbEntity
  8
Layer_1
 62
7
100
AcDbLine
 10
34.074220
 20
-4.919752
 30
0.0
 11
33.697879
 21
-5.354559
 31
0.0
  0
LINE
  5
14f
100
AcDbEntity
  8
Layer_1
 62
7
100
AcDbLine
 10
33.697879
 20
-5.354559
 30
0.0
 11
33.510816
 21
-5.920064
 31
0.0
  0
LINE
  5
150
100
AcDbEntity
  8
Layer_1
 62
7
100
AcDbLine
 10
-11.228014
 20
-5.864955
 30
0.0
 11
-11.212913
 21
-6.261762
 31
0.0
  0
LINE
  5
151
100
AcDbEntity
  8
Layer_1
 62
7
100
AcDbLine
 10
-11.212913
 20
-6.261762
 30
0.0
 11
-11.346509
 21
-6.621095
 31
0.0
  0
LINE
  5
152
100
AcDbEntity
  8
Layer_1
 62
7
100
AcDbLine
 10
-11.346509
 20
-6.621095
 30
0.0
 11
-11.605097
 21
-6.904119
 31
0.0
  0
LINE
  5
153
100
AcDbEntity
  8
Layer_1
 62
7
100
AcDbLine
 10
-11.605097
 20
-6.904119
 30
0.0
 11
-11.964970
 21
-7.071974
 31
0.0
  0
LINE
  5
154
100
AcDbEntity
  8
Layer_1
 62
7
100
AcDbLine
 10
-11.964970
 20
-7.071974
 30
0.0
 11
-12.361783
 21
-7.087062
 31
0.0
  0
LINE
  5
155
100
AcDbEntity
  8
Layer_1
 62
7
100
AcDbLine
 10
-12.361783
 20
-7.087062
 30
0.0
 11
-12.721109
 21
-6.953482
 31
0.0
  0
LINE
  5
156
100
AcDbEntity
  8
Layer_1
 62
7
100
AcDbLine
 10
-12.721109
 20
-6.953482
 30
0.0
 11
-13.004123
 21
-6.694889
 31
0.0
  0
LINE
  5
157
100
AcDbEntity
  8
Layer_1
 62
7
100
AcDbLine
 10
-13.004123
 20
-6.694889
 30
0.0
 11
-13.171991
 21
-6.335022
 31
0.0
  0
LINE
  5
158
100
AcDbEntity
  8
Layer_1
 62
7
100
AcDbLine
 10
-13.171991
 20
-6.335022
 30
0.0
 11
-13.187092
 21
-5.938215
 31
0.0
  0
LINE
  5
159
100
AcDbEntity
  8
Layer_1
 62
7
100
AcDbLine
 10
-13.187092
 20
-5.938215
 30
0.0
 11
-13.053496
 21
-5.578883
 31
0.0
  0
LINE
  5
15a
100
AcDbEntity
  8
Layer_1
 62
7
100
AcDbLine
 10
-13.053496
 20
-5.578883
 30
0.0
 11
-12.794911
 21
-5.295859
 31
0.0
  0
LINE
  5
15b
100
AcDbEntity
  8
Layer_1
 62
7
100
AcDbLine
 10
-12.794911
 20
-5.295859
 30
0.0
 11
-12.435035
 21
-5.128003
 31
0.0
  0
LINE
  5
15c
100
AcDbEntity
  8
Layer_1
 62
7
100
AcDbLine
 10
-12.435035
 20
-5.128003
 30
0.0
 11
-12.038219
 21
-5.112914
 31
0.0
  0
LINE
  5
15d
100
AcDbEntity
  8
Layer_1
 62
7
100
AcDbLine
 10
-12.038219
 20
-5.112914
 30
0.0
 11
-11.678897
 21
-5.246495
 31
0.0
  0
LINE
  5
15e
100
AcDbEntity
  8
Layer_1
 62
7
100
AcDbLine
 10
-11.678897
 20
-5.246495
 30
0.0
 11
-11.395882
 21
-5.505088
 31
0.0
  0
LINE
  5
15f
100
AcDbEntity
  8
Layer_1
 62
7
100
AcDbLine
 10
-11.395882
 20
-5.505088
 30
0.0
 11
-11.228014
 21
-5.864955
 31
0.0
  0
LINE
  5
160
100
AcDbEntity
  8
Layer_1
 62
7
100
AcDbLine
 10
-22.628020
 20
2.435054
 30
0.0
 11
-22.612918
 21
2.038241
 31
0.0
  0
LINE
  5
161
100
AcDbEntity
  8
Layer_1
 62
7
100
AcDbLine
 10
-22.612918
 20
2.038241
 30
0.0
 11
-22.746515
 21
1.678915
 31
0.0
  0
LINE
  5
162
100
AcDbEntity
  8
Layer_1
 62
7
100
AcDbLine
 10
-22.746515
 20
1.678915
 30
0.0
 11
-23.005102
 21
1.395902
 31
0.0
  0
LINE
  5
163
100
AcDbEntity
  8
Layer_1
 62
7
100
AcDbLine
 10
-23.005102
 20
1.395902
 30
0.0
 11
-23.364975
 21
1.228033
 31
0.0
  0
LINE
  5
164
100
AcDbEntity
  8
Layer_1
 62
7
100
AcDbLine
 10
-23.364975
 20
1.228033
 30
0.0
 11
-23.761785
 21
1.212931
 31
0.0
  0
LINE
  5
165
100
AcDbEntity
  8
Layer_1
 62
7
100
AcDbLine
 10
-23.761785
 20
1.212931
 30
0.0
 11
-24.121111
 21
1.346528
 31
0.0
  0
LINE
  5
166
100
AcDbEntity
  8
Layer_1
 62
7
100
AcDbLine
 10
-24.121111
 20
1.346528
 30
0.0
 11
-24.404125
 21
1.605118
 31
0.0
  0
LINE
  5
167
100
AcDbEntity
  8
Layer_1
 62
7
100
AcDbLine
 10
-24.404125
 20
1.605118
 30
0.0
 11
-24.571994
 21
1.964988
 31
0.0
  0
LINE
  5
168
100
AcDbEntity
  8
Layer_1
 62
7
100
AcDbLine
 10
-24.571994
 20
1.964988
 30
0.0
 11
-24.587095
 21
2.361798
 31
0.0
  0
LINE
  5
169
100
AcDbEntity
  8
Layer_1
 62
7
100
AcDbLine
 10
-24.587095
 20
2.361798
 30
0.0
 11
-24.453498
 21
2.721125
 31
0.0
  0
LINE
  5
16a
100
AcDbEntity
  8
Layer_1
 62
7
100
AcDbLine
 10
-24.453498
 20
2.721125
 30
0.0
 11
-24.194911
 21
3.004138
 31
0.0
  0
LINE
  5
16b
100
AcDbEntity
  8
Layer_1
 62
7
100
AcDbLine
 10
-24.194911
 20
3.004138
 30
0.0
 11
-23.835041
 21
3.172006
 31
0.0
  0
LINE
  5
16c
100
AcDbEntity
  8
Layer_1
 62
7
100
AcDbLine
 10
-23.835041
 20
3.172006
 30
0.0
 11
-23.438231
 21
3.187108
 31
0.0
  0
LINE
  5
16d
100
AcDbEntity
  8
Layer_1
 62
7
100
AcDbLine
 10
-23.438231
 20
3.187108
 30
0.0
 11
-23.078902
 21
3.053512
 31
0.0
  0
LINE
  5
16e
100
AcDbEntity
  8
Layer_1
 62
7
100
AcDbLine
 10
-23.078902
 20
3.053512
 30
0.0
 11
-22.795889
 21
2.794924
 31
0.0
  0
LINE
  5
16f
100
AcDbEntity
  8
Layer_1
 62
7
100
AcDbLine
 10
-22.795889
 20
2.794924
 30
0.0
 11
-22.628020
 21
2.435054
 31
0.0
  0
LINE
  5
170
100
AcDbEntity
  8
Layer_1
 62
7
100
AcDbLine
 10
1.500003
 20
-13.999999
 30
0.0
 11
1.382129
 21
-14.583860
 31
0.0
  0
LINE
  5
171
100
AcDbEntity
  8
Layer_1
 62
7
100
AcDbLine
 10
1.382129
 20
-14.583860
 30
0.0
 11
1.060668
 21
-15.060675
 31
0.0
  0
LINE
  5
172
100
AcDbEntity
  8
Layer_1
 62
7
100
AcDbLine
 10
1.060668
 20
-15.060675
 30
0.0
 11
0.583874
 21
-15.382126
 31
0.0
  0
LINE
  5
173
100
AcDbEntity
  8
Layer_1
 62
7
100
AcDbLine
 10
0.583874
 20
-15.382126
 30
0.0
 11
0.000004
 21
-15.500010
 31
0.0
  0
LINE
  5
174
100
AcDbEntity
  8
Layer_1
 62
7
100
AcDbLine
 10
0.000004
 20
-15.500010
 30
0.0
 11
-0.583867
 21
-15.382126
 31
0.0
  0
LINE
  5
175
100
AcDbEntity
  8
Layer_1
 62
7
100
AcDbLine
 10
-0.583867
 20
-15.382126
 30
0.0
 11
-1.060661
 21
-15.060675
 31
0.0
  0
LINE
  5
176
100
AcDbEntity
  8
Layer_1
 62
7
100
AcDbLine
 10
-1.060661
 20
-15.060675
 30
0.0
 11
-1.382122
 21
-14.583860
 31
0.0
  0
LINE
  5
177
100
AcDbEntity
  8
Layer_1
 62
7
100
AcDbLine
 10
-1.382122
 20
-14.583860
 30
0.0
 11
-1.499996
 21
-13.999999
 31
0.0
  0
LINE
  5
178
100
AcDbEntity
  8
Layer_1
 62
7
100
AcDbLine
 10
-1.499996
 20
-13.999999
 30
0.0
 11
-1.382122
 21
-13.416138
 31
0.0
  0
LINE
  5
179
100
AcDbEntity
  8
Layer_1
 62
7
100
AcDbLine
 10
-1.382122
 20
-13.416138
 30
0.0
 11
-1.060661
 21
-12.939323
 31
0.0
  0
LINE
  5
17a
100
AcDbEntity
  8
Layer_1
 62
7
100
AcDbLine
 10
-1.060661
 20
-12.939323
 30
0.0
 11
-0.583867
 21
-12.617872
 31
0.0
  0
LINE
  5
17b
100
AcDbEntity
  8
Layer_1
 62
7
100
AcDbLine
 10
-0.583867
 20
-12.617872
 30
0.0
 11
0.000004
 21
-12.499988
 31
0.0
  0
LINE
  5
17c
100
AcDbEntity
  8
Layer_1
 62
7
100
AcDbLine
 10
0.000004
 20
-12.499988
 30
0.0
 11
0.583874
 21
-12.617872
 31
0.0
  0
LINE
  5
17d
100
AcDbEntity
  8
Layer_1
 62
7
100
AcDbLine
 10
0.583874
 20
-12.617872
 30
0.0
 11
1.060668
 21
-12.939323
 31
0.0
  0
LINE
  5
17e
100
AcDbEntity
  8
Layer_1
 62
7
100
AcDbLine
 10
1.060668
 20
-12.939323
 30
0.0
 11
1.382129
 21
-13.416138
 31
0.0
  0
LINE
  5
17f
100
AcDbEntity
  8
Layer_1
 62
7
100
AcDbLine
 10
1.382129
 20
-13.416138
 30
0.0
 11
1.500003
 21
-13.999999
 31
0.0
  0
LINE
  5
180
100
AcDbEntity
  8
Layer_1
 62
7
100
AcDbLine
 10
-47.499967
 20
2.200008
 30
0.0
 11
-47.617840
 21
1.616147
 31
0.0
  0
LINE
  5
181
100
AcDbEntity
  8
Layer_1
 62
7
100
AcDbLine
 10
-47.617840
 20
1.616147
 30
0.0
 11
-47.939302
 21
1.139332
 31
0.0
  0
LINE
  5
182
100
AcDbEntity
  8
Layer_1
 62
7
100
AcDbLine
 10
-47.939302
 20
1.139332
 30
0.0
 11
-48.416097
 21
0.817881
 31
0.0
  0
LINE
  5
183
100
AcDbEntity
  8
Layer_1
 62
7
100
AcDbLine
 10
-48.416097
 20
0.817881
 30
0.0
 11
-48.999967
 21
0.699997
 31
0.0
  0
LINE
  5
184
100
AcDbEntity
  8
Layer_1
 62
7
100
AcDbLine
 10
-48.999967
 20
0.699997
 30
0.0
 11
-49.583837
 21
0.817881
 31
0.0
  0
LINE
  5
185
100
AcDbEntity
  8
Layer_1
 62
7
100
AcDbLine
 10
-49.583837
 20
0.817881
 30
0.0
 11
-50.060631
 21
1.139332
 31
0.0
  0
LINE
  5
186
100
AcDbEntity
  8
Layer_1
 62
7
100
AcDbLine
 10
-50.060631
 20
1.139332
 30
0.0
 11
-50.382094
 21
1.616147
 31
0.0
  0
LINE
  5
187
100
AcDbEntity
  8
Layer_1
 62
7
100
AcDbLine
 10
-50.382094
 20
1.616147
 30
0.0
 11
-50.499967
 21
2.200008
 31
0.0
  0
LINE
  5
188
100
AcDbEntity
  8
Layer_1
 62
7
100
AcDbLine
 10
-50.499967
 20
2.200008
 30
0.0
 11
-50.382094
 21
2.783870
 31
0.0
  0
LINE
  5
189
100
AcDbEntity
  8
Layer_1
 62
7
100
AcDbLine
 10
-50.382094
 20
2.783870
 30
0.0
 11
-50.060631
 21
3.260684
 31
0.0
  0
LINE
  5
18a
100
AcDbEntity
  8
Layer_1
 62
7
100
AcDbLine
 10
-50.060631
 20
3.260684
 30
0.0
 11
-49.583837
 21
3.582135
 31
0.0
  0
LINE
  5
18b
100
AcDbEntity
  8
Layer_1
 62
7
100
AcDbLine
 10
-49.583837
 20
3.582135
 30
0.0
 11
-48.999967
 21
3.700019
 31
0.0
  0
LINE
  5
18c
100
AcDbEntity
  8
Layer_1
 62
7
100
AcDbLine
 10
-48.999967
 20
3.700019
 30
0.0
 11
-48.416097
 21
3.582135
 31
0.0
  0
LINE
  5
18d
100
AcDbEntity
  8
Layer_1
 62
7
100
AcDbLine
 10
-48.416097
 20
3.582135
 30
0.0
 11
-47.939302
 21
3.260684
 31
0.0
  0
LINE
  5
18e
100
AcDbEntity
  8
Layer_1
 62
7
100
AcDbLine
 10
-47.939302
 20
3.260684
 30
0.0
 11
-47.617840
 21
2.783870
 31
0.0
  0
LINE
  5
18f
100
AcDbEntity
  8
Layer_1
 62
7
100
AcDbLine
 10
-47.617840
 20
2.783870
 30
0.0
 11
-47.499967
 21
2.200008
 31
0.0
  0
LINE
  5
190
100
AcDbEntity
  8
Layer_1
 62
7
100
AcDbLine
 10
47.500015
 20
-13.999999
 30
0.0
 11
47.617888
 21
-14.583860
 31
0.0
  0
LINE
  5
191
100
AcDbEntity
  8
Layer_1
 62
7
100
AcDbLine
 10
47.617888
 20
-14.583860
 30
0.0
 11
47.939350
 21
-15.060675
 31
0.0
  0
LINE
  5
192
100
AcDbEntity
  8
Layer_1
 62
7
100
AcDbLine
 10
47.939350
 20
-15.060675
 30
0.0
 11
48.416145
 21
-15.382126
 31
0.0
  0
LINE
  5
193
100
AcDbEntity
  8
Layer_1
 62
7
100
AcDbLine
 10
48.416145
 20
-15.382126
 30
0.0
 11
49.000015
 21
-15.500010
 31
0.0
  0
LINE
  5
194
100
AcDbEntity
  8
Layer_1
 62
7
100
AcDbLine
 10
49.000015
 20
-15.500010
 30
0.0
 11
49.583885
 21
-15.382126
 31
0.0
  0
LINE
  5
195
100
AcDbEntity
  8
Layer_1
 62
7
100
AcDbLine
 10
49.583885
 20
-15.382126
 30
0.0
 11
50.060679
 21
-15.060675
 31
0.0
  0
LINE
  5
196
100
AcDbEntity
  8
Layer_1
 62
7
100
AcDbLine
 10
50.060679
 20
-15.060675
 30
0.0
 11
50.382142
 21
-14.583860
 31
0.0
  0
LINE
  5
197
100
AcDbEntity
  8
Layer_1
 62
7
100
AcDbLine
 10
50.382142
 20
-14.583860
 30
0.0
 11
50.500015
 21
-13.999999
 31
0.0
  0
LINE
  5
198
100
AcDbEntity
  8
Layer_1
 62
7
100
AcDbLine
 10
50.500015
 20
-13.999999
 30
0.0
 11
50.382142
 21
-13.416138
 31
0.0
  0
LINE
  5
199
100
AcDbEntity
  8
Layer_1
 62
7
100
AcDbLine
 10
50.382142
 20
-13.416138
 30
0.0
 11
50.060679
 21
-12.939323
 31
0.0
  0
LINE
  5
19a
100
AcDbEntity
  8
Layer_1
 62
7
100
AcDbLine
 10
50.060679
 20
-12.939323
 30
0.0
 11
49.583885
 21
-12.617872
 31
0.0
  0
LINE
  5
19b
100
AcDbEntity
  8
Layer_1
 62
7
100
AcDbLine
 10
49.583885
 20
-12.617872
 30
0.0
 11
49.000015
 21
-12.499988
 31
0.0
  0
LINE
  5
19c
100
AcDbEntity
  8
Layer_1
 62
7
100
AcDbLine
 10
49.000015
 20
-12.499988
 30
0.0
 11
48.416145
 21
-12.617872
 31
0.0
  0
LINE
  5
19d
100
AcDbEntity
  8
Layer_1
 62
7
100
AcDbLine
 10
48.416145
 20
-12.617872
 30
0.0
 11
47.939350
 21
-12.939323
 31
0.0
  0
LINE
  5
19e
100
AcDbEntity
  8
Layer_1
 62
7
100
AcDbLine
 10
47.939350
 20
-12.939323
 30
0.0
 11
47.617888
 21
-13.416138
 31
0.0
  0
LINE
  5
19f
100
AcDbEntity
  8
Layer_1
 62
7
100
AcDbLine
 10
47.617888
 20
-13.416138
 30
0.0
 11
47.500015
 21
-13.999999
 31
0.0
  0
LINE
  5
1a0
100
AcDbEntity
  8
Layer_1
 62
7
100
AcDbLine
 10
11.228014
 20
-5.864955
 30
0.0
 11
11.212913
 21
-6.261762
 31
0.0
  0
LINE
  5
1a1
100
AcDbEntity
  8
Layer_1
 62
7
100
AcDbLine
 10
11.212913
 20
-6.261762
 30
0.0
 11
11.346509
 21
-6.621095
 31
0.0
  0
LINE
  5
1a2
100
AcDbEntity
  8
Layer_1
 62
7
100
AcDbLine
 10
11.346509
 20
-6.621095
 30
0.0
 11
11.605097
 21
-6.904119
 31
0.0
  0
LINE
  5
1a3
100
AcDbEntity
  8
Layer_1
 62
7
100
AcDbLine
 10
11.605097
 20
-6.904119
 30
0.0
 11
11.964970
 21
-7.071974
 31
0.0
  0
LINE
  5
1a4
100
AcDbEntity
  8
Layer_1
 62
7
100
AcDbLine
 10
11.964970
 20
-7.071974
 30
0.0
 11
12.361783
 21
-7.087062
 31
0.0
  0
LINE
  5
1a5
100
AcDbEntity
  8
Layer_1
 62
7
100
AcDbLine
 10
12.361783
 20
-7.087062
 30
0.0
 11
12.721109
 21
-6.953482
 31
0.0
  0
LINE
  5
1a6
100
AcDbEntity
  8
Layer_1
 62
7
100
AcDbLine
 10
12.721109
 20
-6.953482
 30
0.0
 11
13.004123
 21
-6.694889
 31
0.0
  0
LINE
  5
1a7
100
AcDbEntity
  8
Layer_1
 62
7
100
AcDbLine
 10
13.004123
 20
-6.694889
 30
0.0
 11
13.171991
 21
-6.335022
 31
0.0
  0
LINE
  5
1a8
100
AcDbEntity
  8
Layer_1
 62
7
100
AcDbLine
 10
13.171991
 20
-6.335022
 30
0.0
 11
13.187092
 21
-5.938215
 31
0.0
  0
LINE
  5
1a9
100
AcDbEntity
  8
Layer_1
 62
7
100
AcDbLine
 10
13.187092
 20
-5.938215
 30
0.0
 11
13.053496
 21
-5.578883
 31
0.0
  0
LINE
  5
1aa
100
AcDbEntity
  8
Layer_1
 62
7
100
AcDbLine
 10
13.053496
 20
-5.578883
 30
0.0
 11
12.794911
 21
-5.295859
 31
0.0
  0
LINE
  5
1ab
100
AcDbEntity
  8
Layer_1
 62
7
100
AcDbLine
 10
12.794911
 20
-5.295859
 30
0.0
 11
12.435035
 21
-5.128003
 31
0.0
  0
LINE
  5
1ac
100
AcDbEntity
  8
Layer_1
 62
7
100
AcDbLine
 10
12.435035
 20
-5.128003
 30
0.0
 11
12.038219
 21
-5.112914
 31
0.0
  0
LINE
  5
1ad
100
AcDbEntity
  8
Layer_1
 62
7
100
AcDbLine
 10
12.038219
 20
-5.112914
 30
0.0
 11
11.678897
 21
-5.246495
 31
0.0
  0
LINE
  5
1ae
100
AcDbEntity
  8
Layer_1
 62
7
100
AcDbLine
 10
11.678897
 20
-5.246495
 30
0.0
 11
11.395882
 21
-5.505088
 31
0.0
  0
LINE
  5
1af
100
AcDbEntity
  8
Layer_1
 62
7
100
AcDbLine
 10
11.395882
 20
-5.505088
 30
0.0
 11
11.228014
 21
-5.864955
 31
0.0
  0
LINE
  5
1b0
100
AcDbEntity
  8
Layer_1
 62
7
100
AcDbLine
 10
22.628024
 20
2.435071
 30
0.0
 11
22.612922
 21
2.038258
 31
0.0
  0
LINE
  5
1b1
100
AcDbEntity
  8
Layer_1
 62
7
100
AcDbLine
 10
22.612922
 20
2.038258
 30
0.0
 11
22.746519
 21
1.678931
 31
0.0
  0
LINE
  5
1b2
100
AcDbEntity
  8
Layer_1
 62
7
100
AcDbLine
 10
22.746519
 20
1.678931
 30
0.0
 11
23.005106
 21
1.395918
 31
0.0
  0
LINE
  5
1b3
100
AcDbEntity
  8
Layer_1
 62
7
100
AcDbLine
 10
23.005106
 20
1.395918
 30
0.0
 11
23.364979
 21
1.228049
 31
0.0
  0
LINE
  5
1b4
100
AcDbEntity
  8
Layer_1
 62
7
100
AcDbLine
 10
23.364979
 20
1.228049
 30
0.0
 11
23.761789
 21
1.212947
 31
0.0
  0
LINE
  5
1b5
100
AcDbEntity
  8
Layer_1
 62
7
100
AcDbLine
 10
23.761789
 20
1.212947
 30
0.0
 11
24.121115
 21
1.346544
 31
0.0
  0
LINE
  5
1b6
100
AcDbEntity
  8
Layer_1
 62
7
100
AcDbLine
 10
24.121115
 20
1.346544
 30
0.0
 11
24.404129
 21
1.605135
 31
0.0
  0
LINE
  5
1b7
100
AcDbEntity
  8
Layer_1
 62
7
100
AcDbLine
 10
24.404129
 20
1.605135
 30
0.0
 11
24.571998
 21
1.965004
 31
0.0
  0
LINE
  5
1b8
100
AcDbEntity
  8
Layer_1
 62
7
100
AcDbLine
 10
24.571998
 20
1.965004
 30
0.0
 11
24.587099
 21
2.361814
 31
0.0
  0
LINE
  5
1b9
100
AcDbEntity
  8
Layer_1
 62
7
100
AcDbLine
 10
24.587099
 20
2.361814
 30
0.0
 11
24.453502
 21
2.721141
 31
0.0
  0
LINE
  5
1ba
100
AcDbEntity
  8
Layer_1
 62
7
100
AcDbLine
 10
24.453502
 20
2.721141
 30
0.0
 11
24.194915
 21
3.004154
 31
0.0
  0
LINE
  5
1bb
100
AcDbEntity
  8
Layer_1
 62
7
100
AcDbLine
 10
24.194915
 20
3.004154
 30
0.0
 11
23.835045
 21
3.172023
 31
0.0
  0
LINE
  5
1bc
100
AcDbEntity
  8
Layer_1
 62
7
100
AcDbLine
 10
23.835045
 20
3.172023
 30
0.0
 11
23.438235
 21
3.187124
 31
0.0
  0
LINE
  5
1bd
100
AcDbEntity
  8
Layer_1
 62
7
100
AcDbLine
 10
23.438235
 20
3.187124
 30
0.0
 11
23.078906
 21
3.053528
 31
0.0
  0
LINE
  5
1be
100
AcDbEntity
  8
Layer_1
 62
7
100
AcDbLine
 10
23.078906
 20
3.053528
 30
0.0
 11
22.795893
 21
2.794941
 31
0.0
  0
LINE
  5
1bf
100
AcDbEntity
  8
Layer_1
 62
7
100
AcDbLine
 10
22.795893
 20
2.794941
 30
0.0
 11
22.628024
 21
2.435071
 31
0.0
  0
LINE
  5
1c0
100
AcDbEntity
  8
Layer_1
 62
7
100
AcDbLine
 10
47.500015
 20
2.200008
 30
0.0
 11
47.617888
 21
1.616147
 31
0.0
  0
LINE
  5
1c1
100
AcDbEntity
  8
Layer_1
 62
7
100
AcDbLine
 10
47.617888
 20
1.616147
 30
0.0
 11
47.939350
 21
1.139332
 31
0.0
  0
LINE
  5
1c2
100
AcDbEntity
  8
Layer_1
 62
7
100
AcDbLine
 10
47.939350
 20
1.139332
 30
0.0
 11
48.416145
 21
0.817881
 31
0.0
  0
LINE
  5
1c3
100
AcDbEntity
  8
Layer_1
 62
7
100
AcDbLine
 10
48.416145
 20
0.817881
 30
0.0
 11
49.000015
 21
0.699997
 31
0.0
  0
LINE
  5
1c4
100
AcDbEntity
  8
Layer_1
 62
7
100
AcDbLine
 10
49.000015
 20
0.699997
 30
0.0
 11
49.583885
 21
0.817881
 31
0.0
  0
LINE
  5
1c5
100
AcDbEntity
  8
Layer_1
 62
7
100
AcDbLine
 10
49.583885
 20
0.817881
 30
0.0
 11
50.060679
 21
1.139332
 31
0.0
  0
LINE
  5
1c6
100
AcDbEntity
  8
Layer_1
 62
7
100
AcDbLine
 10
50.060679
 20
1.139332
 30
0.0
 11
50.382142
 21
1.616147
 31
0.0
  0
LINE
  5
1c7
100
AcDbEntity
  8
Layer_1
 62
7
100
AcDbLine
 10
50.382142
 20
1.616147
 30
0.0
 11
50.500015
 21
2.200008
 31
0.0
  0
LINE
  5
1c8
100
AcDbEntity
  8
Layer_1
 62
7
100
AcDbLine
 10
50.500015
 20
2.200008
 30
0.0
 11
50.382142
 21
2.783870
 31
0.0
  0
LINE
  5
1c9
100
AcDbEntity
  8
Layer_1
 62
7
100
AcDbLine
 10
50.382142
 20
2.783870
 30
0.0
 11
50.060679
 21
3.260684
 31
0.0
  0
LINE
  5
1ca
100
AcDbEntity
  8
Layer_1
 62
7
100
AcDbLine
 10
50.060679
 20
3.260684
 30
0.0
 11
49.583885
 21
3.582135
 31
0.0
  0
LINE
  5
1cb
100
AcDbEntity
  8
Layer_1
 62
7
100
AcDbLine
 10
49.583885
 20
3.582135
 30
0.0
 11
49.000015
 21
3.700019
 31
0.0
  0
LINE
  5
1cc
100
AcDbEntity
  8
Layer_1
 62
7
100
AcDbLine
 10
49.000015
 20
3.700019
 30
0.0
 11
48.416145
 21
3.582135
 31
0.0
  0
LINE
  5
1cd
100
AcDbEntity
  8
Layer_1
 62
7
100
AcDbLine
 10
48.416145
 20
3.582135
 30
0.0
 11
47.939350
 21
3.260684
 31
0.0
  0
LINE
  5
1ce
100
AcDbEntity
  8
Layer_1
 62
7
100
AcDbLine
 10
47.939350
 20
3.260684
 30
0.0
 11
47.617888
 21
2.783870
 31
0.0
  0
LINE
  5
1cf
100
AcDbEntity
  8
Layer_1
 62
7
100
AcDbLine
 10
47.617888
 20
2.783870
 30
0.0
 11
47.500015
 21
2.200008
 31
0.0
  0
LINE
  5
1d0
100
AcDbEntity
  8
Layer_1
 62
7
100
AcDbLine
 10
-47.999975
 20
11.000036
 30
0.0
 11
-48.157147
 21
10.221554
 31
0.0
  0
LINE
  5
1d1
100
AcDbEntity
  8
Layer_1
 62
7
100
AcDbLine
 10
-48.157147
 20
10.221554
 30
0.0
 11
-48.585763
 21
9.585820
 31
0.0
  0
LINE
  5
1d2
100
AcDbEntity
  8
Layer_1
 62
7
100
AcDbLine
 10
-48.585763
 20
9.585820
 30
0.0
 11
-49.221486
 21
9.157209
 31
0.0
  0
LINE
  5
1d3
100
AcDbEntity
  8
Layer_1
 62
7
100
AcDbLine
 10
-49.221486
 20
9.157209
 30
0.0
 11
-49.999976
 21
9.000040
 31
0.0
  0
LINE
  5
1d4
100
AcDbEntity
  8
Layer_1
 62
7
100
AcDbLine
 10
-49.999976
 20
9.000040
 30
0.0
 11
-50.778466
 21
9.157209
 31
0.0
  0
LINE
  5
1d5
100
AcDbEntity
  8
Layer_1
 62
7
100
AcDbLine
 10
-50.778466
 20
9.157209
 30
0.0
 11
-51.414189
 21
9.585820
 31
0.0
  0
LINE
  5
1d6
100
AcDbEntity
  8
Layer_1
 62
7
100
AcDbLine
 10
-51.414189
 20
9.585820
 30
0.0
 11
-51.842805
 21
10.221554
 31
0.0
  0
LINE
  5
1d7
100
AcDbEntity
  8
Layer_1
 62
7
100
AcDbLine
 10
-51.842805
 20
10.221554
 30
0.0
 11
-51.999975
 21
11.000036
 31
0.0
  0
LINE
  5
1d8
100
AcDbEntity
  8
Layer_1
 62
7
100
AcDbLine
 10
-51.999975
 20
11.000036
 30
0.0
 11
-51.842805
 21
11.778518
 31
0.0
  0
LINE
  5
1d9
100
AcDbEntity
  8
Layer_1
 62
7
100
AcDbLine
 10
-51.842805
 20
11.778518
 30
0.0
 11
-51.414189
 21
12.414251
 31
0.0
  0
LINE
  5
1da
100
AcDbEntity
  8
Layer_1
 62
7
100
AcDbLine
 10
-51.414189
 20
12.414251
 30
0.0
 11
-50.778466
 21
12.842862
 31
0.0
  0
LINE
  5
1db
100
AcDbEntity
  8
Layer_1
 62
7
100
AcDbLine
 10
-50.778466
 20
12.842862
 30
0.0
 11
-49.999976
 21
13.000032
 31
0.0
  0
LINE
  5
1dc
100
AcDbEntity
  8
Layer_1
 62
7
100
AcDbLine
 10
-49.999976
 20
13.000032
 30
0.0
 11
-49.221486
 21
12.842862
 31
0.0
  0
LINE
  5
1dd
100
AcDbEntity
  8
Layer_1
 62
7
100
AcDbLine
 10
-49.221486
 20
12.842862
 30
0.0
 11
-48.585761
 21
12.414251
 31
0.0
  0
LINE
  5
1de
100
AcDbEntity
  8
Layer_1
 62
7
100
AcDbLine
 10
-48.585761
 20
12.414251
 30
0.0
 11
-48.157144
 21
11.778518
 31
0.0
  0
LINE
  5
1df
100
AcDbEntity
  8
Layer_1
 62
7
100
AcDbLine
 10
-48.157144
 20
11.778518
 30
0.0
 11
-47.999975
 21
11.000036
 31
0.0
  0
LINE
  5
1e0
100
AcDbEntity
  8
Layer_1
 62
7
100
AcDbLine
 10
-37.999966
 20
11.000008
 30
0.0
 11
-38.157136
 21
10.221526
 31
0.0
  0
LINE
  5
1e1
100
AcDbEntity
  8
Layer_1
 62
7
100
AcDbLine
 10
-38.157136
 20
10.221526
 30
0.0
 11
-38.585752
 21
9.585792
 31
0.0
  0
LINE
  5
1e2
100
AcDbEntity
  8
Layer_1
 62
7
100
AcDbLine
 10
-38.585752
 20
9.585792
 30
0.0
 11
-39.221475
 21
9.157181
 31
0.0
  0
LINE
  5
1e3
100
AcDbEntity
  8
Layer_1
 62
7
100
AcDbLine
 10
-39.221475
 20
9.157181
 30
0.0
 11
-39.999965
 21
9.000012
 31
0.0
  0
LINE
  5
1e4
100
AcDbEntity
  8
Layer_1
 62
7
100
AcDbLine
 10
-39.999965
 20
9.000012
 30
0.0
 11
-40.778455
 21
9.157181
 31
0.0
  0
LINE
  5
1e5
100
AcDbEntity
  8
Layer_1
 62
7
100
AcDbLine
 10
-40.778455
 20
9.157181
 30
0.0
 11
-41.414178
 21
9.585792
 31
0.0
  0
LINE
  5
1e6
100
AcDbEntity
  8
Layer_1
 62
7
100
AcDbLine
 10
-41.414178
 20
9.585792
 30
0.0
 11
-41.842794
 21
10.221526
 31
0.0
  0
LINE
  5
1e7
100
AcDbEntity
  8
Layer_1
 62
7
100
AcDbLine
 10
-41.842794
 20
10.221526
 30
0.0
 11
-41.999967
 21
11.000008
 31
0.0
  0
LINE
  5
1e8
100
AcDbEntity
  8
Layer_1
 62
7
100
AcDbLine
 10
-41.999967
 20
11.000008
 30
0.0
 11
-41.842797
 21
11.778489
 31
0.0
  0
LINE
  5
1e9
100
AcDbEntity
  8
Layer_1
 62
7
100
AcDbLine
 10
-41.842797
 20
11.778489
 30
0.0
 11
-41.414181
 21
12.414223
 31
0.0
  0
LINE
  5
1ea
100
AcDbEntity
  8
Layer_1
 62
7
100
AcDbLine
 10
-41.414181
 20
12.414223
 30
0.0
 11
-40.778455
 21
12.842834
 31
0.0
  0
LINE
  5
1eb
100
AcDbEntity
  8
Layer_1
 62
7
100
AcDbLine
 10
-40.778455
 20
12.842834
 30
0.0
 11
-39.999965
 21
13.000004
 31
0.0
  0
LINE
  5
1ec
100
AcDbEntity
  8
Layer_1
 62
7
100
AcDbLine
 10
-39.999965
 20
13.000004
 30
0.0
 11
-39.221475
 21
12.842834
 31
0.0
  0
LINE
  5
1ed
100
AcDbEntity
  8
Layer_1
 62
7
100
AcDbLine
 10
-39.221475
 20
12.842834
 30
0.0
 11
-38.585752
 21
12.414223
 31
0.0
  0
LINE
  5
1ee
100
AcDbEntity
  8
Layer_1
 62
7
100
AcDbLine
 10
-38.585752
 20
12.414223
 30
0.0
 11
-38.157136
 21
11.778489
 31
0.0
  0
LINE
  5
1ef
100
AcDbEntity
  8
Layer_1
 62
7
100
AcDbLine
 10
-38.157136
 20
11.778489
 30
0.0
 11
-37.999966
 21
11.000008
 31
0.0
  0
LINE
  5
1f0
100
AcDbEntity
  8
Layer_1
 62
7
100
AcDbLine
 10
-27.999991
 20
11.000036
 30
0.0
 11
-28.157162
 21
10.221554
 31
0.0
  0
LINE
  5
1f1
100
AcDbEntity
  8
Layer_1
 62
7
100
AcDbLine
 10
-28.157162
 20
10.221554
 30
0.0
 11
-28.585778
 21
9.585820
 31
0.0
  0
LINE
  5
1f2
100
AcDbEntity
  8
Layer_1
 62
7
100
AcDbLine
 10
-28.585778
 20
9.585820
 30
0.0
 11
-29.221501
 21
9.157209
 31
0.0
  0
LINE
  5
1f3
100
AcDbEntity
  8
Layer_1
 62
7
100
AcDbLine
 10
-29.221501
 20
9.157209
 30
0.0
 11
-29.999991
 21
9.000040
 31
0.0
  0
LINE
  5
1f4
100
AcDbEntity
  8
Layer_1
 62
7
100
AcDbLine
 10
-29.999991
 20
9.000040
 30
0.0
 11
-30.778481
 21
9.157209
 31
0.0
  0
LINE
  5
1f5
100
AcDbEntity
  8
Layer_1
 62
7
100
AcDbLine
 10
-30.778481
 20
9.157209
 30
0.0
 11
-31.414204
 21
9.585820
 31
0.0
  0
LINE
  5
1f6
100
AcDbEntity
  8
Layer_1
 62
7
100
AcDbLine
 10
-31.414204
 20
9.585820
 30
0.0
 11
-31.842820
 21
10.221554
 31
0.0
  0
LINE
  5
1f7
100
AcDbEntity
  8
Layer_1
 62
7
100
AcDbLine
 10
-31.842820
 20
10.221554
 30
0.0
 11
-31.999990
 21
11.000036
 31
0.0
  0
LINE
  5
1f8
100
AcDbEntity
  8
Layer_1
 62
7
100
AcDbLine
 10
-31.999990
 20
11.000036
 30
0.0
 11
-31.842820
 21
11.778518
 31
0.0
  0
LINE
  5
1f9
100
AcDbEntity
  8
Layer_1
 62
7
100
AcDbLine
 10
-31.842820
 20
11.778518
 30
0.0
 11
-31.414204
 21
12.414251
 31
0.0
  0
LINE
  5
1fa
100
AcDbEntity
  8
Layer_1
 62
7
100
AcDbLine
 10
-31.414204
 20
12.414251
 30
0.0
 11
-30.778481
 21
12.842862
 31
0.0
  0
LINE
  5
1fb
100
AcDbEntity
  8
Layer_1
 62
7
100
AcDbLine
 10
-30.778481
 20
12.842862
 30
0.0
 11
-29.999991
 21
13.000032
 31
0.0
  0
LINE
  5
1fc
100
AcDbEntity
  8
Layer_1
 62
7
100
AcDbLine
 10
-29.999991
 20
13.000032
 30
0.0
 11
-29.221501
 21
12.842862
 31
0.0
  0
LINE
  5
1fd
100
AcDbEntity
  8
Layer_1
 62
7
100
AcDbLine
 10
-29.221501
 20
12.842862
 30
0.0
 11
-28.585778
 21
12.414251
 31
0.0
  0
LINE
  5
1fe
100
AcDbEntity
  8
Layer_1
 62
7
100
AcDbLine
 10
-28.585778
 20
12.414251
 30
0.0
 11
-28.157160
 21
11.778518
 31
0.0
  0
LINE
  5
1ff
100
AcDbEntity
  8
Layer_1
 62
7
100
AcDbLine
 10
-28.157160
 20
11.778518
 30
0.0
 11
-27.999991
 21
11.000036
 31
0.0
  0
LINE
  5
200
100
AcDbEntity
  8
Layer_1
 62
7
100
AcDbLine
 10
-17.999981
 20
11.000008
 30
0.0
 11
-18.157152
 21
10.221526
 31
0.0
  0
LINE
  5
201
100
AcDbEntity
  8
Layer_1
 62
7
100
AcDbLine
 10
-18.157152
 20
10.221526
 30
0.0
 11
-18.585769
 21
9.585792
 31
0.0
  0
LINE
  5
202
100
AcDbEntity
  8
Layer_1
 62
7
100
AcDbLine
 10
-18.585769
 20
9.585792
 30
0.0
 11
-19.221491
 21
9.157181
 31
0.0
  0
LINE
  5
203
100
AcDbEntity
  8
Layer_1
 62
7
100
AcDbLine
 10
-19.221491
 20
9.157181
 30
0.0
 11
-19.999981
 21
9.000012
 31
0.0
  0
LINE
  5
204
100
AcDbEntity
  8
Layer_1
 62
7
100
AcDbLine
 10
-19.999981
 20
9.000012
 30
0.0
 11
-20.778470
 21
9.157181
 31
0.0
  0
LINE
  5
205
100
AcDbEntity
  8
Layer_1
 62
7
100
AcDbLine
 10
-20.778470
 20
9.157181
 30
0.0
 11
-21.414193
 21
9.585792
 31
0.0
  0
LINE
  5
206
100
AcDbEntity
  8
Layer_1
 62
7
100
AcDbLine
 10
-21.414193
 20
9.585792
 30
0.0
 11
-21.842810
 21
10.221526
 31
0.0
  0
LINE
  5
207
100
AcDbEntity
  8
Layer_1
 62
7
100
AcDbLine
 10
-21.842810
 20
10.221526
 30
0.0
 11
-21.999981
 21
11.000008
 31
0.0
  0
LINE
  5
208
100
AcDbEntity
  8
Layer_1
 62
7
100
AcDbLine
 10
-21.999981
 20
11.000008
 30
0.0
 11
-21.842812
 21
11.778489
 31
0.0
  0
LINE
  5
209
100
AcDbEntity
  8
Layer_1
 62
7
100
AcDbLine
 10
-21.842812
 20
11.778489
 30
0.0
 11
-21.414195
 21
12.414223
 31
0.0
  0
LINE
  5
20a
100
AcDbEntity
  8
Layer_1
 62
7
100
AcDbLine
 10
-21.414195
 20
12.414223
 30
0.0
 11
-20.778471
 21
12.842834
 31
0.0
  0
LINE
  5
20b
100
AcDbEntity
  8
Layer_1
 62
7
100
AcDbLine
 10
-20.778471
 20
12.842834
 30
0.0
 11
-19.999981
 21
13.000004
 31
0.0
  0
LINE
  5
20c
100
AcDbEntity
  8
Layer_1
 62
7
100
AcDbLine
 10
-19.999981
 20
13.000004
 30
0.0
 11
-19.221491
 21
12.842834
 31
0.0
  0
LINE
  5
20d
100
AcDbEntity
  8
Layer_1
 62
7
100
AcDbLine
 10
-19.221491
 20
12.842834
 30
0.0
 11
-18.585767
 21
12.414223
 31
0.0
  0
LINE
  5
20e
100
AcDbEntity
  8
Layer_1
 62
7
100
AcDbLine
 10
-18.585767
 20
12.414223
 30
0.0
 11
-18.157150
 21
11.778489
 31
0.0
  0
LINE
  5
20f
100
AcDbEntity
  8
Layer_1
 62
7
100
AcDbLine
 10
-18.157150
 20
11.778489
 30
0.0
 11
-17.999981
 21
11.000008
 31
0.0
  0
LINE
  5
210
100
AcDbEntity
  8
Layer_1
 62
7
100
AcDbLine
 10
-7.999972
 20
11.000036
 30
0.0
 11
-8.157143
 21
10.221554
 31
0.0
  0
LINE
  5
211
100
AcDbEntity
  8
Layer_1
 62
7
100
AcDbLine
 10
-8.157143
 20
10.221554
 30
0.0
 11
-8.585760
 21
9.585820
 31
0.0
  0
LINE
  5
212
100
AcDbEntity
  8
Layer_1
 62
7
100
AcDbLine
 10
-8.585760
 20
9.585820
 30
0.0
 11
-9.221483
 21
9.157209
 31
0.0
  0
LINE
  5
213
100
AcDbEntity
  8
Layer_1
 62
7
100
AcDbLine
 10
-9.221483
 20
9.157209
 30
0.0
 11
-9.999972
 21
9.000040
 31
0.0
  0
LINE
  5
214
100
AcDbEntity
  8
Layer_1
 62
7
100
AcDbLine
 10
-9.999972
 20
9.000040
 30
0.0
 11
-10.778461
 21
9.157209
 31
0.0
  0
LINE
  5
215
100
AcDbEntity
  8
Layer_1
 62
7
100
AcDbLine
 10
-10.778461
 20
9.157209
 30
0.0
 11
-11.414184
 21
9.585820
 31
0.0
  0
LINE
  5
216
100
AcDbEntity
  8
Layer_1
 62
7
100
AcDbLine
 10
-11.414184
 20
9.585820
 30
0.0
 11
-11.842801
 21
10.221554
 31
0.0
  0
LINE
  5
217
100
AcDbEntity
  8
Layer_1
 62
7
100
AcDbLine
 10
-11.842801
 20
10.221554
 30
0.0
 11
-11.999972
 21
11.000036
 31
0.0
  0
LINE
  5
218
100
AcDbEntity
  8
Layer_1
 62
7
100
AcDbLine
 10
-11.999972
 20
11.000036
 30
0.0
 11
-11.842803
 21
11.778518
 31
0.0
  0
LINE
  5
219
100
AcDbEntity
  8
Layer_1
 62
7
100
AcDbLine
 10
-11.842803
 20
11.778518
 30
0.0
 11
-11.414186
 21
12.414251
 31
0.0
  0
LINE
  5
21a
100
AcDbEntity
  8
Layer_1
 62
7
100
AcDbLine
 10
-11.414186
 20
12.414251
 30
0.0
 11
-10.778462
 21
12.842862
 31
0.0
  0
LINE
  5
21b
100
AcDbEntity
  8
Layer_1
 62
7
100
AcDbLine
 10
-10.778462
 20
12.842862
 30
0.0
 11
-9.999972
 21
13.000032
 31
0.0
  0
LINE
  5
21c
100
AcDbEntity
  8
Layer_1
 62
7
100
AcDbLine
 10
-9.999972
 20
13.000032
 30
0.0
 11
-9.221482
 21
12.842862
 31
0.0
  0
LINE
  5
21d
100
AcDbEntity
  8
Layer_1
 62
7
100
AcDbLine
 10
-9.221482
 20
12.842862
 30
0.0
 11
-8.585758
 21
12.414251
 31
0.0
  0
LINE
  5
21e
100
AcDbEntity
  8
Layer_1
 62
7
100
AcDbLine
 10
-8.585758
 20
12.414251
 30
0.0
 11
-8.157141
 21
11.778518
 31
0.0
  0
LINE
  5
21f
100
AcDbEntity
  8
Layer_1
 62
7
100
AcDbLine
 10
-8.157141
 20
11.778518
 30
0.0
 11
-7.999972
 21
11.000036
 31
0.0
  0
LINE
  5
220
100
AcDbEntity
  8
Layer_1
 62
7
100
AcDbLine
 10
2.000004
 20
11.000008
 30
0.0
 11
1.842832
 21
10.221526
 31
0.0
  0
LINE
  5
221
100
AcDbEntity
  8
Layer_1
 62
7
100
AcDbLine
 10
1.842832
 20
10.221526
 30
0.0
 11
1.414216
 21
9.585792
 31
0.0
  0
LINE
  5
222
100
AcDbEntity
  8
Layer_1
 62
7
100
AcDbLine
 10
1.414216
 20
9.585792
 30
0.0
 11
0.778493
 21
9.157181
 31
0.0
  0
LINE
  5
223
100
AcDbEntity
  8
Layer_1
 62
7
100
AcDbLine
 10
0.778493
 20
9.157181
 30
0.0
 11
0.000004
 21
9.000012
 31
0.0
  0
LINE
  5
224
100
AcDbEntity
  8
Layer_1
 62
7
100
AcDbLine
 10
0.000004
 20
9.000012
 30
0.0
 11
-0.778486
 21
9.157181
 31
0.0
  0
LINE
  5
225
100
AcDbEntity
  8
Layer_1
 62
7
100
AcDbLine
 10
-0.778486
 20
9.157181
 30
0.0
 11
-1.414209
 21
9.585792
 31
0.0
  0
LINE
  5
226
100
AcDbEntity
  8
Layer_1
 62
7
100
AcDbLine
 10
-1.414209
 20
9.585792
 30
0.0
 11
-1.842825
 21
10.221526
 31
0.0
  0
LINE
  5
227
100
AcDbEntity
  8
Layer_1
 62
7
100
AcDbLine
 10
-1.842825
 20
10.221526
 30
0.0
 11
-1.999996
 21
11.000008
 31
0.0
  0
LINE
  5
228
100
AcDbEntity
  8
Layer_1
 62
7
100
AcDbLine
 10
-1.999996
 20
11.000008
 30
0.0
 11
-1.842827
 21
11.778489
 31
0.0
  0
LINE
  5
229
100
AcDbEntity
  8
Layer_1
 62
7
100
AcDbLine
 10
-1.842827
 20
11.778489
 30
0.0
 11
-1.414210
 21
12.414223
 31
0.0
  0
LINE
  5
22a
100
AcDbEntity
  8
Layer_1
 62
7
100
AcDbLine
 10
-1.414210
 20
12.414223
 30
0.0
 11
-0.778486
 21
12.842834
 31
0.0
  0
LINE
  5
22b
100
AcDbEntity
  8
Layer_1
 62
7
100
AcDbLine
 10
-0.778486
 20
12.842834
 30
0.0
 11
0.000004
 21
13.000004
 31
0.0
  0
LINE
  5
22c
100
AcDbEntity
  8
Layer_1
 62
7
100
AcDbLine
 10
0.000004
 20
13.000004
 30
0.0
 11
0.778493
 21
12.842834
 31
0.0
  0
LINE
  5
22d
100
AcDbEntity
  8
Layer_1
 62
7
100
AcDbLine
 10
0.778493
 20
12.842834
 30
0.0
 11
1.414217
 21
12.414223
 31
0.0
  0
LINE
  5
22e
100
AcDbEntity
  8
Layer_1
 62
7
100
AcDbLine
 10
1.414217
 20
12.414223
 30
0.0
 11
1.842834
 21
11.778489
 31
0.0
  0
LINE
  5
22f
100
AcDbEntity
  8
Layer_1
 62
7
100
AcDbLine
 10
1.842834
 20
11.778489
 30
0.0
 11
2.000004
 21
11.000008
 31
0.0
  0
LINE
  5
230
100
AcDbEntity
  8
Layer_1
 62
7
100
AcDbLine
 10
12.000013
 20
11.000036
 30
0.0
 11
11.842842
 21
10.221554
 31
0.0
  0
LINE
  5
231
100
AcDbEntity
  8
Layer_1
 62
7
100
AcDbLine
 10
11.842842
 20
10.221554
 30
0.0
 11
11.414225
 21
9.585820
 31
0.0
  0
LINE
  5
232
100
AcDbEntity
  8
Layer_1
 62
7
100
AcDbLine
 10
11.414225
 20
9.585820
 30
0.0
 11
10.778502
 21
9.157209
 31
0.0
  0
LINE
  5
233
100
AcDbEntity
  8
Layer_1
 62
7
100
AcDbLine
 10
10.778502
 20
9.157209
 30
0.0
 11
10.000013
 21
9.000040
 31
0.0
  0
LINE
  5
234
100
AcDbEntity
  8
Layer_1
 62
7
100
AcDbLine
 10
10.000013
 20
9.000040
 30
0.0
 11
9.221524
 21
9.157209
 31
0.0
  0
LINE
  5
235
100
AcDbEntity
  8
Layer_1
 62
7
100
AcDbLine
 10
9.221524
 20
9.157209
 30
0.0
 11
8.585801
 21
9.585820
 31
0.0
  0
LINE
  5
236
100
AcDbEntity
  8
Layer_1
 62
7
100
AcDbLine
 10
8.585801
 20
9.585820
 30
0.0
 11
8.157184
 21
10.221554
 31
0.0
  0
LINE
  5
237
100
AcDbEntity
  8
Layer_1
 62
7
100
AcDbLine
 10
8.157184
 20
10.221554
 30
0.0
 11
8.000013
 21
11.000036
 31
0.0
  0
LINE
  5
238
100
AcDbEntity
  8
Layer_1
 62
7
100
AcDbLine
 10
8.000013
 20
11.000036
 30
0.0
 11
8.157182
 21
11.778518
 31
0.0
  0
LINE
  5
239
100
AcDbEntity
  8
Layer_1
 62
7
100
AcDbLine
 10
8.157182
 20
11.778518
 30
0.0
 11
8.585799
 21
12.414251
 31
0.0
  0
LINE
  5
23a
100
AcDbEntity
  8
Layer_1
 62
7
100
AcDbLine
 10
8.585799
 20
12.414251
 30
0.0
 11
9.221523
 21
12.842862
 31
0.0
  0
LINE
  5
23b
100
AcDbEntity
  8
Layer_1
 62
7
100
AcDbLine
 10
9.221523
 20
12.842862
 30
0.0
 11
10.000013
 21
13.000032
 31
0.0
  0
LINE
  5
23c
100
AcDbEntity
  8
Layer_1
 62
7
100
AcDbLine
 10
10.000013
 20
13.000032
 30
0.0
 11
10.778503
 21
12.842862
 31
0.0
  0
LINE
  5
23d
100
AcDbEntity
  8
Layer_1
 62
7
100
AcDbLine
 10
10.778503
 20
12.842862
 30
0.0
 11
11.414227
 21
12.414251
 31
0.0
  0
LINE
  5
23e
100
AcDbEntity
  8
Layer_1
 62
7
100
AcDbLine
 10
11.414227
 20
12.414251
 30
0.0
 11
11.842844
 21
11.778518
 31
0.0
  0
LINE
  5
23f
100
AcDbEntity
  8
Layer_1
 62
7
100
AcDbLine
 10
11.842844
 20
11.778518
 30
0.0
 11
12.000013
 21
11.000036
 31
0.0
  0
LINE
  5
240
100
AcDbEntity
  8
Layer_1
 62
7
100
AcDbLine
 10
22.000024
 20
11.000008
 30
0.0
 11
21.842853
 21
10.221526
 31
0.0
  0
LINE
  5
241
100
AcDbEntity
  8
Layer_1
 62
7
100
AcDbLine
 10
21.842853
 20
10.221526
 30
0.0
 11
21.414236
 21
9.585792
 31
0.0
  0
LINE
  5
242
100
AcDbEntity
  8
Layer_1
 62
7
100
AcDbLine
 10
21.414236
 20
9.585792
 30
0.0
 11
20.778513
 21
9.157181
 31
0.0
  0
LINE
  5
243
100
AcDbEntity
  8
Layer_1
 62
7
100
AcDbLine
 10
20.778513
 20
9.157181
 30
0.0
 11
20.000024
 21
9.000012
 31
0.0
  0
LINE
  5
244
100
AcDbEntity
  8
Layer_1
 62
7
100
AcDbLine
 10
20.000024
 20
9.000012
 30
0.0
 11
19.221534
 21
9.157181
 31
0.0
  0
LINE
  5
245
100
AcDbEntity
  8
Layer_1
 62
7
100
AcDbLine
 10
19.221534
 20
9.157181
 30
0.0
 11
18.585812
 21
9.585792
 31
0.0
  0
LINE
  5
246
100
AcDbEntity
  8
Layer_1
 62
7
100
AcDbLine
 10
18.585812
 20
9.585792
 30
0.0
 11
18.157195
 21
10.221526
 31
0.0
  0
LINE
  5
247
100
AcDbEntity
  8
Layer_1
 62
7
100
AcDbLine
 10
18.157195
 20
10.221526
 30
0.0
 11
18.000024
 21
11.000008
 31
0.0
  0
LINE
  5
248
100
AcDbEntity
  8
Layer_1
 62
7
100
AcDbLine
 10
18.000024
 20
11.000008
 30
0.0
 11
18.157193
 21
11.778489
 31
0.0
  0
LINE
  5
249
100
AcDbEntity
  8
Layer_1
 62
7
100
AcDbLine
 10
18.157193
 20
11.778489
 30
0.0
 11
18.585810
 21
12.414223
 31
0.0
  0
LINE
  5
24a
100
AcDbEntity
  8
Layer_1
 62
7
100
AcDbLine
 10
18.585810
 20
12.414223
 30
0.0
 11
19.221534
 21
12.842834
 31
0.0
  0
LINE
  5
24b
100
AcDbEntity
  8
Layer_1
 62
7
100
AcDbLine
 10
19.221534
 20
12.842834
 30
0.0
 11
20.000024
 21
13.000004
 31
0.0
  0
LINE
  5
24c
100
AcDbEntity
  8
Layer_1
 62
7
100
AcDbLine
 10
20.000024
 20
13.000004
 30
0.0
 11
20.778514
 21
12.842834
 31
0.0
  0
LINE
  5
24d
100
AcDbEntity
  8
Layer_1
 62
7
100
AcDbLine
 10
20.778514
 20
12.842834
 30
0.0
 11
21.414238
 21
12.414223
 31
0.0
  0
LINE
  5
24e
100
AcDbEntity
  8
Layer_1
 62
7
100
AcDbLine
 10
21.414238
 20
12.414223
 30
0.0
 11
21.842854
 21
11.778489
 31
0.0
  0
LINE
  5
24f
100
AcDbEntity
  8
Layer_1
 62
7
100
AcDbLine
 10
21.842854
 20
11.778489
 30
0.0
 11
22.000024
 21
11.000008
 31
0.0
  0
LINE
  5
250
100
AcDbEntity
  8
Layer_1
 62
7
100
AcDbLine
 10
32.000035
 20
11.000036
 30
0.0
 11
31.842862
 21
10.221554
 31
0.0
  0
LINE
  5
251
100
AcDbEntity
  8
Layer_1
 62
7
100
AcDbLine
 10
31.842862
 20
10.221554
 30
0.0
 11
31.414246
 21
9.585820
 31
0.0
  0
LINE
  5
252
100
AcDbEntity
  8
Layer_1
 62
7
100
AcDbLine
 10
31.414246
 20
9.585820
 30
0.0
 11
30.778523
 21
9.157209
 31
0.0
  0
LINE
  5
253
100
AcDbEntity
  8
Layer_1
 62
7
100
AcDbLine
 10
30.778523
 20
9.157209
 30
0.0
 11
30.000033
 21
9.000040
 31
0.0
  0
LINE
  5
254
100
AcDbEntity
  8
Layer_1
 62
7
100
AcDbLine
 10
30.000033
 20
9.000040
 30
0.0
 11
29.221543
 21
9.157209
 31
0.0
  0
LINE
  5
255
100
AcDbEntity
  8
Layer_1
 62
7
100
AcDbLine
 10
29.221543
 20
9.157209
 30
0.0
 11
28.585820
 21
9.585820
 31
0.0
  0
LINE
  5
256
100
AcDbEntity
  8
Layer_1
 62
7
100
AcDbLine
 10
28.585820
 20
9.585820
 30
0.0
 11
28.157205
 21
10.221554
 31
0.0
  0
LINE
  5
257
100
AcDbEntity
  8
Layer_1
 62
7
100
AcDbLine
 10
28.157205
 20
10.221554
 30
0.0
 11
28.000034
 21
11.000036
 31
0.0
  0
LINE
  5
258
100
AcDbEntity
  8
Layer_1
 62
7
100
AcDbLine
 10
28.000034
 20
11.000036
 30
0.0
 11
28.157203
 21
11.778518
 31
0.0
  0
LINE
  5
259
100
AcDbEntity
  8
Layer_1
 62
7
100
AcDbLine
 10
28.157203
 20
11.778518
 30
0.0
 11
28.585820
 21
12.414251
 31
0.0
  0
LINE
  5
25a
100
AcDbEntity
  8
Layer_1
 62
7
100
AcDbLine
 10
28.585820
 20
12.414251
 30
0.0
 11
29.221543
 21
12.842862
 31
0.0
  0
LINE
  5
25b
100
AcDbEntity
  8
Layer_1
 62
7
100
AcDbLine
 10
29.221543
 20
12.842862
 30
0.0
 11
30.000033
 21
13.000032
 31
0.0
  0
LINE
  5
25c
100
AcDbEntity
  8
Layer_1
 62
7
100
AcDbLine
 10
30.000033
 20
13.000032
 30
0.0
 11
30.778523
 21
12.842862
 31
0.0
  0
LINE
  5
25d
100
AcDbEntity
  8
Layer_1
 62
7
100
AcDbLine
 10
30.778523
 20
12.842862
 30
0.0
 11
31.414249
 21
12.414251
 31
0.0
  0
LINE
  5
25e
100
AcDbEntity
  8
Layer_1
 62
7
100
AcDbLine
 10
31.414249
 20
12.414251
 30
0.0
 11
31.842865
 21
11.778518
 31
0.0
  0
LINE
  5
25f
100
AcDbEntity
  8
Layer_1
 62
7
100
AcDbLine
 10
31.842865
 20
11.778518
 30
0.0
 11
32.000035
 21
11.000036
 31
0.0
  0
LINE
  5
260
100
AcDbEntity
  8
Layer_1
 62
7
100
AcDbLine
 10
42.000009
 20
11.000008
 30
0.0
 11
41.842840
 21
10.221526
 31
0.0
  0
LINE
  5
261
100
AcDbEntity
  8
Layer_1
 62
7
100
AcDbLine
 10
41.842840
 20
10.221526
 30
0.0
 11
41.414223
 21
9.585792
 31
0.0
  0
LINE
  5
262
100
AcDbEntity
  8
Layer_1
 62
7
100
AcDbLine
 10
41.414223
 20
9.585792
 30
0.0
 11
40.778501
 21
9.157181
 31
0.0
  0
LINE
  5
263
100
AcDbEntity
  8
Layer_1
 62
7
100
AcDbLine
 10
40.778501
 20
9.157181
 30
0.0
 11
40.000010
 21
9.000012
 31
0.0
  0
LINE
  5
264
100
AcDbEntity
  8
Layer_1
 62
7
100
AcDbLine
 10
40.000010
 20
9.000012
 30
0.0
 11
39.221520
 21
9.157181
 31
0.0
  0
LINE
  5
265
100
AcDbEntity
  8
Layer_1
 62
7
100
AcDbLine
 10
39.221520
 20
9.157181
 30
0.0
 11
38.585798
 21
9.585792
 31
0.0
  0
LINE
  5
266
100
AcDbEntity
  8
Layer_1
 62
7
100
AcDbLine
 10
38.585798
 20
9.585792
 30
0.0
 11
38.157181
 21
10.221526
 31
0.0
  0
LINE
  5
267
100
AcDbEntity
  8
Layer_1
 62
7
100
AcDbLine
 10
38.157181
 20
10.221526
 30
0.0
 11
38.000009
 21
11.000008
 31
0.0
  0
LINE
  5
268
100
AcDbEntity
  8
Layer_1
 62
7
100
AcDbLine
 10
38.000009
 20
11.000008
 30
0.0
 11
38.157178
 21
11.778489
 31
0.0
  0
LINE
  5
269
100
AcDbEntity
  8
Layer_1
 62
7
100
AcDbLine
 10
38.157178
 20
11.778489
 30
0.0
 11
38.585795
 21
12.414223
 31
0.0
  0
LINE
  5
26a
100
AcDbEntity
  8
Layer_1
 62
7
100
AcDbLine
 10
38.585795
 20
12.414223
 30
0.0
 11
39.221520
 21
12.842834
 31
0.0
  0
LINE
  5
26b
100
AcDbEntity
  8
Layer_1
 62
7
100
AcDbLine
 10
39.221520
 20
12.842834
 30
0.0
 11
40.000010
 21
13.000004
 31
0.0
  0
LINE
  5
26c
100
AcDbEntity
  8
Layer_1
 62
7
100
AcDbLine
 10
40.000010
 20
13.000004
 30
0.0
 11
40.778501
 21
12.842834
 31
0.0
  0
LINE
  5
26d
100
AcDbEntity
  8
Layer_1
 62
7
100
AcDbLine
 10
40.778501
 20
12.842834
 30
0.0
 11
41.414223
 21
12.414223
 31
0.0
  0
LINE
  5
26e
100
AcDbEntity
  8
Layer_1
 62
7
100
AcDbLine
 10
41.414223
 20
12.414223
 30
0.0
 11
41.842840
 21
11.778489
 31
0.0
  0
LINE
  5
26f
100
AcDbEntity
  8
Layer_1
 62
7
100
AcDbLine
 10
41.842840
 20
11.778489
 30
0.0
 11
42.000009
 21
11.000008
 31
0.0
  0
LINE
  5
270
100
AcDbEntity
  8
Layer_1
 62
7
100
AcDbLine
 10
52.000023
 20
11.000036
 30
0.0
 11
51.842853
 21
10.221554
 31
0.0
  0
LINE
  5
271
100
AcDbEntity
  8
Layer_1
 62
7
100
AcDbLine
 10
51.842853
 20
10.221554
 30
0.0
 11
51.414237
 21
9.585820
 31
0.0
  0
LINE
  5
272
100
AcDbEntity
  8
Layer_1
 62
7
100
AcDbLine
 10
51.414237
 20
9.585820
 30
0.0
 11
50.778514
 21
9.157209
 31
0.0
  0
LINE
  5
273
100
AcDbEntity
  8
Layer_1
 62
7
100
AcDbLine
 10
50.778514
 20
9.157209
 30
0.0
 11
50.000024
 21
9.000040
 31
0.0
  0
LINE
  5
274
100
AcDbEntity
  8
Layer_1
 62
7
100
AcDbLine
 10
50.000024
 20
9.000040
 30
0.0
 11
49.221534
 21
9.157209
 31
0.0
  0
LINE
  5
275
100
AcDbEntity
  8
Layer_1
 62
7
100
AcDbLine
 10
49.221534
 20
9.157209
 30
0.0
 11
48.585811
 21
9.585820
 31
0.0
  0
LINE
  5
276
100
AcDbEntity
  8
Layer_1
 62
7
100
AcDbLine
 10
48.585811
 20
9.585820
 30
0.0
 11
48.157195
 21
10.221554
 31
0.0
  0
LINE
  5
277
100
AcDbEntity
  8
Layer_1
 62
7
100
AcDbLine
 10
48.157195
 20
10.221554
 30
0.0
 11
48.000023
 21
11.000036
 31
0.0
  0
LINE
  5
278
100
AcDbEntity
  8
Layer_1
 62
7
100
AcDbLine
 10
48.000023
 20
11.000036
 30
0.0
 11
48.157192
 21
11.778518
 31
0.0
  0
LINE
  5
279
100
AcDbEntity
  8
Layer_1
 62
7
100
AcDbLine
 10
48.157192
 20
11.778518
 30
0.0
 11
48.585809
 21
12.414251
 31
0.0
  0
LINE
  5
27a
100
AcDbEntity
  8
Layer_1
 62
7
100
AcDbLine
 10
48.585809
 20
12.414251
 30
0.0
 11
49.221534
 21
12.842862
 31
0.0
  0
LINE
  5
27b
100
AcDbEntity
  8
Layer_1
 62
7
100
AcDbLine
 10
49.221534
 20
12.842862
 30
0.0
 11
50.000024
 21
13.000032
 31
0.0
  0
LINE
  5
27c
100
AcDbEntity
  8
Layer_1
 62
7
100
AcDbLine
 10
50.000024
 20
13.000032
 30
0.0
 11
50.778514
 21
12.842862
 31
0.0
  0
LINE
  5
27d
100
AcDbEntity
  8
Layer_1
 62
7
100
AcDbLine
 10
50.778514
 20
12.842862
 30
0.0
 11
51.414237
 21
12.414251
 31
0.0
  0
LINE
  5
27e
100
AcDbEntity
  8
Layer_1
 62
7
100
AcDbLine
 10
51.414237
 20
12.414251
 30
0.0
 11
51.842853
 21
11.778518
 31
0.0
  0
LINE
  5
27f
100
AcDbEntity
  8
Layer_1
 62
7
100
AcDbLine
 10
51.842853
 20
11.778518
 30
0.0
 11
52.000023
 21
11.000036
 31
0.0
  0
ENDSEC
  0
SECTION
  2
OBJECTS
  0
DICTIONARY
  5
C
330
0
100
AcDbDictionary
  3
ACAD_GROUP
350
D
  3
ACAD_MLINESTYLE
350
17
  0
DICTIONARY
  5
D
330
C
100
AcDbDictionary
  0
DICTIONARY
  5
1A
330
C
100
AcDbDictionary
  0
DICTIONARY
  5
17
330
C
100
AcDbDictionary
  3
STANDARD
350
18
  0
DICTIONARY
  5
19
330
C
100
AcDbDictionary
  0
ENDSEC
  0
EOF
