<?xml version="1.0" encoding="UTF-8" standalone="no"?>
<!-- Created with Inkscape (http://www.inkscape.org/) -->

<svg
   xmlns:dc="http://purl.org/dc/elements/1.1/"
   xmlns:cc="http://creativecommons.org/ns#"
   xmlns:rdf="http://www.w3.org/1999/02/22-rdf-syntax-ns#"
   xmlns:svg="http://www.w3.org/2000/svg"
   xmlns="http://www.w3.org/2000/svg"
   xmlns:sodipodi="http://sodipodi.sourceforge.net/DTD/sodipodi-0.dtd"
   xmlns:inkscape="http://www.inkscape.org/namespaces/inkscape"
   width="210mm"
   height="297mm"
   viewBox="0 0 744.09448819 1052.3622047"
   id="svg4979"
   version="1.1"
   inkscape:version="0.48.4 r9939"
   sodipodi:docname="box-motor-inside-43d.svg">
  <defs
     id="defs4981" />
  <sodipodi:namedview
     id="base"
     pagecolor="#ffffff"
     bordercolor="#666666"
     borderopacity="1.0"
     inkscape:pageopacity="0.0"
     inkscape:pageshadow="2"
     inkscape:zoom="1.4"
     inkscape:cx="-10.212104"
     inkscape:cy="-48.367868"
     inkscape:document-units="mm"
     inkscape:current-layer="layer1"
     showgrid="true"
     inkscape:window-width="1301"
     inkscape:window-height="744"
     inkscape:window-x="65"
     inkscape:window-y="24"
     inkscape:window-maximized="1">
    <inkscape:grid
       type="xygrid"
       id="grid6193"
       units="mm"
       spacingx="3.5433071"
       spacingy="3.5433072" />
  </sodipodi:namedview>
  <metadata
     id="metadata4984">
    <rdf:RDF>
      <cc:Work
         rdf:about="">
        <dc:format>image/svg+xml</dc:format>
        <dc:type
           rdf:resource="http://purl.org/dc/dcmitype/StillImage" />
        <dc:title />
      </cc:Work>
    </rdf:RDF>
  </metadata>
  <g
     inkscape:label="Layer 1"
     inkscape:groupmode="layer"
     id="layer1">
    <path
       transform="scale(1,-1)"
       style="fill:#d35f5f;fill-opacity:1;stroke:none;display:inline"
       d="m -180.12237,-1116.1417 90.061185,0 90.061185,0 90.061185,0 90.061185,0 4.37398,0.8787 3.5643,2.3992 2.39922,3.5643 0.87872,4.374 0,23.6242 0,23.6241 0,23.6242 0,23.6242 -0.87872,4.374 -2.39922,3.5643 -3.5643,2.3992 -4.37398,0.87873 -90.061185,0 -90.061185,0 -90.061185,0 -90.061185,0 -4.37398,-0.87873 -3.5643,-2.3992 -2.39922,-3.5643 -0.87872,-4.374 0,-23.6242 0,-23.6242 0,-23.6241 0,-23.6242 0.87872,-4.374 2.39922,-3.5643 3.5643,-2.3992 z"
       id="rect4018-03"
       inkscape:connector-curvature="0"
       sodipodi:nodetypes="ccccccccccccccccccccccccccccccccc" />
    <path
       transform="translate(-3.5433565,308.26768)"
       style="fill:#ffe680;fill-opacity:1;stroke:none;display:inline"
       d="m -168.30708,793.70081 -0.41768,2.06882 -1.13904,1.68942 -1.68942,1.13904 -2.06882,0.41768 -2.06882,-0.41768 -1.68942,-1.13904 -1.13904,-1.68942 -0.41768,-2.06882 0.41768,-2.06883 1.13904,-1.68942 1.68942,-1.13904 2.06882,-0.41767 2.06882,0.41767 1.68942,1.13904 1.13904,1.68942 z"
       id="path5259-61-5-54-1"
       inkscape:connector-curvature="0"
       sodipodi:nodetypes="ccccccccccccccccc" />
    <path
       transform="matrix(-0.99277839,-0.11996278,-0.11996278,0.99277839,-3.6546855e-5,308.26769)"
       style="fill:#002255;fill-opacity:1;stroke:none;display:inline"
       d="m 36.578573,775.05627 -0.417676,2.06883 -1.13904,1.68942 -1.689422,1.13904 -2.068822,0.41767 -2.068823,-0.41767 -1.689422,-1.13904 -1.13904,-1.68942 -0.417676,-2.06883 0.417676,-2.06882 1.13904,-1.68942 1.689422,-1.13904 2.068823,-0.41768 2.068822,0.41768 1.689422,1.13904 1.13904,1.68942 z"
       id="path12890-1-8-95"
       inkscape:connector-curvature="0"
       sodipodi:nodetypes="ccccccccccccccccc" />
    <path
       transform="matrix(-0.99277839,-0.11996278,-0.11996278,0.99277839,-3.6546855e-5,308.26769)"
       style="fill:#002255;fill-opacity:1;stroke:none;display:inline"
       d="m -209.66174,745.30176 -0.41768,2.06882 -1.13904,1.68942 -1.68942,1.13904 -2.06882,0.41768 -2.06882,-0.41768 -1.68942,-1.13904 -1.13904,-1.68942 -0.41768,-2.06882 0.41768,-2.06882 1.13904,-1.68942 1.68942,-1.13904 2.06882,-0.41768 2.06882,0.41768 1.68942,1.13904 1.13904,1.68942 z"
       id="path12890-1-8-2-6"
       inkscape:connector-curvature="0"
       sodipodi:nodetypes="ccccccccccccccccc" />
    <path
       transform="matrix(0.97198734,-0.23503322,0.23503322,0.97198734,-3.6546855e-5,308.26769)"
       style="fill:#002255;fill-opacity:1;stroke:none;display:inline"
       d="m -218.44107,734.099 -0.27845,1.37921 -0.75936,1.12629 -1.12628,0.75936 -1.37921,0.27845 -1.37922,-0.27845 -1.12628,-0.75936 -0.75936,-1.12629 -0.27845,-1.37921 0.27845,-1.37922 0.75936,-1.12628 1.12628,-0.75936 1.37922,-0.27845 1.37921,0.27845 1.12628,0.75936 0.75936,1.12628 z"
       id="path12644-3-1"
       inkscape:connector-curvature="0"
       sodipodi:nodetypes="ccccccccccccccccc" />
    <path
       transform="matrix(0.97198734,-0.23503322,0.23503322,0.97198734,-3.6546855e-5,308.26769)"
       style="fill:#002255;fill-opacity:1;stroke:none;display:inline"
       d="m -250.79104,696.01953 -0.27845,1.37922 -0.75936,1.12628 -1.12629,0.75936 -1.37921,0.27845 -1.37922,-0.27845 -1.12628,-0.75936 -0.75936,-1.12628 -0.27845,-1.37922 0.27845,-1.37921 0.75936,-1.12629 1.12628,-0.75936 1.37922,-0.27845 1.37921,0.27845 1.12629,0.75936 0.75936,1.12629 z"
       id="path12644-3-7-7"
       inkscape:connector-curvature="0"
       sodipodi:nodetypes="ccccccccccccccccc" />
    <path
       transform="translate(-3.6546855e-5,308.26769)"
       style="fill:#ffe680;fill-opacity:1;stroke:none;display:inline"
       d="m 5.3149605,793.70081 -0.4176759,2.06882 -1.13904,1.68942 -1.6894221,1.13904 L 0,799.01577 l -2.0688225,-0.41768 -1.6894221,-1.13904 -1.13904,-1.68942 -0.4176759,-2.06882 0.4176759,-2.06883 1.13904,-1.68942 1.6894221,-1.13904 L 0,788.38585 l 2.0688225,0.41767 1.6894221,1.13904 1.13904,1.68942 z"
       id="path5259-61-5-6-9-65"
       inkscape:connector-curvature="0"
       sodipodi:nodetypes="ccccccccccccccccc" />
    <path
       transform="translate(-3.5433565,308.26771)"
       style="fill:#ffe680;fill-opacity:1;stroke:none;display:inline"
       d="m -168.30708,736.29919 -0.41768,2.06883 -1.13904,1.68942 -1.68942,1.13904 -2.06882,0.41767 -2.06882,-0.41767 -1.68942,-1.13904 -1.13904,-1.68942 -0.41768,-2.06883 0.41768,-2.06882 1.13904,-1.68942 1.68942,-1.13904 2.06882,-0.41768 2.06882,0.41768 1.68942,1.13904 1.13904,1.68942 z"
       id="path5259-61-5-5-0-97"
       inkscape:connector-curvature="0"
       sodipodi:nodetypes="ccccccccccccccccc" />
    <path
       transform="matrix(-1,0,0,1,3.5432835,308.26768)"
       style="fill:#ffe680;fill-opacity:1;stroke:none;display:inline"
       d="m -168.30708,793.70081 -0.41768,2.06882 -1.13904,1.68942 -1.68942,1.13904 -2.06882,0.41768 -2.06882,-0.41768 -1.68942,-1.13904 -1.13904,-1.68942 -0.41768,-2.06882 0.41768,-2.06883 1.13904,-1.68942 1.68942,-1.13904 2.06882,-0.41767 2.06882,0.41767 1.68942,1.13904 1.13904,1.68942 z"
       id="path5259-61-5-54-7-4"
       inkscape:connector-curvature="0"
       sodipodi:nodetypes="ccccccccccccccccc" />
    <path
       transform="matrix(-0.97198734,-0.23503322,-0.23503322,0.97198734,-3.6546855e-5,308.26769)"
       style="fill:#002255;fill-opacity:1;stroke:none;display:inline"
       d="m -218.44107,734.099 -0.27845,1.37921 -0.75936,1.12629 -1.12628,0.75936 -1.37921,0.27845 -1.37922,-0.27845 -1.12628,-0.75936 -0.75936,-1.12629 -0.27845,-1.37921 0.27845,-1.37922 0.75936,-1.12628 1.12628,-0.75936 1.37922,-0.27845 1.37921,0.27845 1.12628,0.75936 0.75936,1.12628 z"
       id="path12644-3-3-1"
       inkscape:connector-curvature="0"
       sodipodi:nodetypes="ccccccccccccccccc" />
    <path
       transform="matrix(-0.97198734,-0.23503322,-0.23503322,0.97198734,-3.6546855e-5,308.26769)"
       style="fill:#002255;fill-opacity:1;stroke:none;display:inline"
       d="m -250.79104,696.01953 -0.27845,1.37922 -0.75936,1.12628 -1.12629,0.75936 -1.37921,0.27845 -1.37922,-0.27845 -1.12628,-0.75936 -0.75936,-1.12628 -0.27845,-1.37922 0.27845,-1.37921 0.75936,-1.12629 1.12628,-0.75936 1.37922,-0.27845 1.37921,0.27845 1.12629,0.75936 0.75936,1.12629 z"
       id="path12644-3-7-5-5"
       inkscape:connector-curvature="0"
       sodipodi:nodetypes="ccccccccccccccccc" />
    <path
       transform="matrix(-1,0,0,1,3.5432835,308.26771)"
       style="fill:#ffe680;fill-opacity:1;stroke:none;display:inline"
       d="m -168.30708,736.29919 -0.41768,2.06883 -1.13904,1.68942 -1.68942,1.13904 -2.06882,0.41767 -2.06882,-0.41767 -1.68942,-1.13904 -1.13904,-1.68942 -0.41768,-2.06883 0.41768,-2.06882 1.13904,-1.68942 1.68942,-1.13904 2.06882,-0.41768 2.06882,0.41768 1.68942,1.13904 1.13904,1.68942 z"
       id="path5259-61-5-5-0-9-53"
       inkscape:connector-curvature="0"
       sodipodi:nodetypes="ccccccccccccccccc" />
    <path
       transform="translate(-3.6546855e-5,308.26776)"
       style="fill:#2b1100;fill-opacity:1;stroke:none;display:inline"
       d="m -170.07871,705.11804 -0.5569,2.75843 -1.51872,2.25257 -2.25257,1.51872 -2.75843,0.5569 -2.75843,-0.5569 -2.25256,-1.51872 -1.51872,-2.25257 -0.5569,-2.75843 0.5569,-2.75843 1.51872,-2.25256 2.25256,-1.51872 2.75843,-0.5569 2.75843,0.5569 2.25257,1.51872 1.51872,2.25256 z"
       id="path5259-61-98-3"
       inkscape:connector-curvature="0"
       sodipodi:nodetypes="ccccccccccccccccc" />
    <path
       transform="translate(-3.6546855e-5,308.26776)"
       style="fill:#2b1100;fill-opacity:1;stroke:none;display:inline"
       d="m -134.64564,705.1181 -0.5569,2.75843 -1.51872,2.25257 -2.25256,1.51872 -2.75843,0.5569 -2.75843,-0.5569 -2.25257,-1.51872 -1.51872,-2.25257 -0.5569,-2.75843 0.5569,-2.75843 1.51872,-2.25256 2.25257,-1.51872 2.75843,-0.5569 2.75843,0.5569 2.25256,1.51872 1.51872,2.25256 z"
       id="path5259-61-2-3-31"
       inkscape:connector-curvature="0"
       sodipodi:nodetypes="ccccccccccccccccc" />
    <path
       transform="translate(-3.6546855e-5,308.26776)"
       style="fill:#2b1100;fill-opacity:1;stroke:none;display:inline"
       d="m -99.212573,705.11804 -0.556902,2.75843 -1.518725,2.25257 -2.25256,1.51872 -2.75843,0.5569 -2.75843,-0.5569 -2.25256,-1.51872 -1.51872,-2.25257 -0.5569,-2.75843 0.5569,-2.75843 1.51872,-2.25256 2.25256,-1.51872 2.75843,-0.5569 2.75843,0.5569 2.25256,1.51872 1.518725,2.25256 z"
       id="path5259-61-0-5-5"
       inkscape:connector-curvature="0"
       sodipodi:nodetypes="ccccccccccccccccc" />
    <path
       transform="translate(-3.6546855e-5,308.26776)"
       style="fill:#2b1100;fill-opacity:1;stroke:none;display:inline"
       d="m -63.779513,705.1181 -0.556901,2.75843 -1.51872,2.25257 -2.252563,1.51872 -2.75843,0.5569 -2.75843,-0.5569 -2.252563,-1.51872 -1.51872,-2.25257 -0.556901,-2.75843 0.556901,-2.75843 1.51872,-2.25256 2.252563,-1.51872 2.75843,-0.5569 2.75843,0.5569 2.252563,1.51872 1.51872,2.25256 z"
       id="path5259-61-2-5-0-8"
       inkscape:connector-curvature="0"
       sodipodi:nodetypes="ccccccccccccccccc" />
    <path
       transform="translate(-3.6546855e-5,308.26776)"
       style="fill:#2b1100;fill-opacity:1;stroke:none;display:inline"
       d="m -28.346446,705.11804 -0.556901,2.75843 -1.51872,2.25257 -2.252563,1.51872 -2.75843,0.5569 -2.75843,-0.5569 -2.252563,-1.51872 -1.51872,-2.25257 -0.556901,-2.75843 0.556901,-2.75843 1.51872,-2.25256 2.252563,-1.51872 2.75843,-0.5569 2.75843,0.5569 2.252563,1.51872 1.51872,2.25256 z"
       id="path5259-61-01-9-7"
       inkscape:connector-curvature="0"
       sodipodi:nodetypes="ccccccccccccccccc" />
    <path
       transform="translate(-3.6546855e-5,308.26776)"
       style="fill:#2b1100;fill-opacity:1;stroke:none;display:inline"
       d="M 7.0866141,705.1181 6.5297128,707.87653 5.0109929,710.1291 2.75843,711.64782 0,712.20472 l -2.75843,-0.5569 -2.2525629,-1.51872 -1.5187199,-2.25257 -0.5569013,-2.75843 0.5569013,-2.75843 1.5187199,-2.25256 2.2525629,-1.51872 2.75843,-0.5569 2.75843,0.5569 2.2525629,1.51872 1.5187199,2.25256 z"
       id="path5259-61-2-8-42-1"
       inkscape:connector-curvature="0"
       sodipodi:nodetypes="ccccccccccccccccc" />
    <path
       transform="translate(-3.6546855e-5,308.26776)"
       style="fill:#2b1100;fill-opacity:1;stroke:none;display:inline"
       d="m 42.519685,705.11804 -0.556901,2.75843 -1.51872,2.25257 -2.252563,1.51872 -2.75843,0.5569 -2.75843,-0.5569 -2.252563,-1.51872 -1.51872,-2.25257 -0.556901,-2.75843 0.556901,-2.75843 1.51872,-2.25256 2.252563,-1.51872 2.75843,-0.5569 2.75843,0.5569 2.252563,1.51872 1.51872,2.25256 z"
       id="path5259-61-09-4-32"
       inkscape:connector-curvature="0"
       sodipodi:nodetypes="ccccccccccccccccc" />
    <path
       transform="translate(-3.6546855e-5,308.26776)"
       style="fill:#2b1100;fill-opacity:1;stroke:none;display:inline"
       d="m 77.952764,705.1181 -0.556901,2.75843 -1.51872,2.25257 -2.252563,1.51872 -2.75843,0.5569 -2.75843,-0.5569 -2.252563,-1.51872 -1.51872,-2.25257 -0.556901,-2.75843 0.556901,-2.75843 1.51872,-2.25256 2.252563,-1.51872 2.75843,-0.5569 2.75843,0.5569 2.252563,1.51872 1.51872,2.25256 z"
       id="path5259-61-2-1-59-1"
       inkscape:connector-curvature="0"
       sodipodi:nodetypes="ccccccccccccccccc" />
    <path
       transform="translate(-3.6546855e-5,308.26776)"
       style="fill:#2b1100;fill-opacity:1;stroke:none;display:inline"
       d="m 113.38585,705.11804 -0.5569,2.75843 -1.51872,2.25257 -2.25256,1.51872 -2.75843,0.5569 -2.75843,-0.5569 -2.25256,-1.51872 -1.518723,-2.25257 -0.556901,-2.75843 0.556901,-2.75843 1.518723,-2.25256 2.25256,-1.51872 2.75843,-0.5569 2.75843,0.5569 2.25256,1.51872 1.51872,2.25256 z"
       id="path5259-61-5-0-8"
       inkscape:connector-curvature="0"
       sodipodi:nodetypes="ccccccccccccccccc" />
    <path
       transform="translate(-3.6546855e-5,308.26776)"
       style="fill:#2b1100;fill-opacity:1;stroke:none;display:inline"
       d="m 148.81893,705.1181 -0.5569,2.75843 -1.51872,2.25257 -2.25256,1.51872 -2.75843,0.5569 -2.75843,-0.5569 -2.25257,-1.51872 -1.51872,-2.25257 -0.5569,-2.75843 0.5569,-2.75843 1.51872,-2.25256 2.25257,-1.51872 2.75843,-0.5569 2.75843,0.5569 2.25256,1.51872 1.51872,2.25256 z"
       id="path5259-61-2-0-9"
       inkscape:connector-curvature="0"
       sodipodi:nodetypes="ccccccccccccccccc" />
    <path
       transform="translate(-3.6546855e-5,308.26776)"
       style="fill:#2b1100;fill-opacity:1;stroke:none;display:inline"
       d="m 184.25197,705.11804 -0.5569,2.75843 -1.51872,2.25257 -2.25256,1.51872 -2.75843,0.5569 -2.75843,-0.5569 -2.25256,-1.51872 -1.51872,-2.25257 -0.5569,-2.75843 0.5569,-2.75843 1.51872,-2.25256 2.25256,-1.51872 2.75843,-0.5569 2.75843,0.5569 2.25256,1.51872 1.51872,2.25256 z"
       id="path5259-61-0-81-29"
       inkscape:connector-curvature="0"
       sodipodi:nodetypes="ccccccccccccccccc" />
    <path
       sodipodi:nodetypes="ccccccccccccccccccccccccc"
       inkscape:connector-curvature="0"
       id="rect6176-0-17"
       d="m -24.803227,1078.9371 12.4016,0 12.4016,0 12.4016,0 12.4016,0 6.145396,-7.2665 3.155745,-7.6818 1.162642,-7.2665 0.166092,-4.3599 -0.166092,-3.6333 -1.162642,-7.1628 -3.155745,-8.2008 -6.145396,-7.5781 -12.4016,0 -12.4016,0 -12.4016,0 -12.4016,0 -6.145394,7.2666 -3.155742,7.6819 -1.162642,7.2666 -0.166092,4.3599 0.166092,3.6333 1.162642,7.1627 3.155742,8.2008 z"
       style="fill:#aa00d4;fill-opacity:1;stroke:none;display:inline" />
  </g>
</svg>
