  0
SECTION
  2
HEADER
  9
$ACADVER
  1
AC1014
  9
$HANDSEED
  5
FFFF
  9
$MEASUREMENT
 70
     1
  0
ENDSEC
  0
SECTION
  2
TABLES
  0
TABLE
  2
VPORT
  5
8
330
0
100
AcDbSymbolTable
 70
     4
  0
VPORT
  5
2E
330
8
100
AcDbSymbolTableRecord
100
AcDbViewportTableRecord
  2
*ACTIVE
 70
     0
 10
0.0
 20
0.0
 11
1.0
 21
1.0
 12
210.0
 22
148.5
 13
0.0
 23
0.0
 14
10.0
 24
10.0
 15
10.0
 25
10.0
 16
0.0
 26
0.0
 36
1.0
 17
0.0
 27
0.0
 37
0.0
 40
341.0
 41
1.24
 42
50.0
 43
0.0
 44
0.0
 50
0.0
 51
0.0
 71
     0
 72
   100
 73
     1
 74
     3
 75
     0
 76
     0
 77
     0
 78
     0
  0
ENDTAB
  0
TABLE
  2
LTYPE
  5
5
330
0
100
AcDbSymbolTable
 70
     1
  0
LTYPE
  5
14
330
5
100
AcDbSymbolTableRecord
100
AcDbLinetypeTableRecord
  2
BYBLOCK
 70
     0
  3

 72
    65
 73
     0
 40
0.0
  0
LTYPE
  5
15
330
5
100
AcDbSymbolTableRecord
100
AcDbLinetypeTableRecord
  2
BYLAYER
 70
     0
  3

 72
    65
 73
     0
 40
0.0
  0
LTYPE
  5
16
330
5
100
AcDbSymbolTableRecord
100
AcDbLinetypeTableRecord
  2
CONTINUOUS
 70
     0
  3
Solid line
 72
    65
 73
     0
 40
0.0
  0
ENDTAB
  0
TABLE
  2
LAYER
  5
2
100
AcDbSymbolTable
 70
2
  0
LAYER
  5
50
100
AcDbSymbolTableRecord
100
AcDbLayerTableRecord
  2
0
 70
0
  6
CONTINUOUS
  0
LAYER
  5
51
100
AcDbSymbolTableRecord
100
AcDbLayerTableRecord
  2
Layer_1
 70
0
  6
CONTINUOUS
  0
ENDTAB
  0
TABLE
  2
STYLE
  5
3
330
0
100
AcDbSymbolTable
 70
     1
  0
STYLE
  5
11
330
3
100
AcDbSymbolTableRecord
100
AcDbTextStyleTableRecord
  2
STANDARD
 70
     0
 40
0.0
 41
1.0
 50
0.0
 71
     0
 42
2.5
  3
txt
  4

  0
ENDTAB
  0
TABLE
  2
VIEW
  5
6
330
0
100
AcDbSymbolTable
 70
     0
  0
ENDTAB
  0
TABLE
  2
UCS
  5
7
330
0
100
AcDbSymbolTable
 70
     0
  0
ENDTAB
  0
TABLE
  2
APPID
  5
9
330
0
100
AcDbSymbolTable
 70
     2
  0
APPID
  5
12
330
9
100
AcDbSymbolTableRecord
100
AcDbRegAppTableRecord
  2
ACAD
 70
     0
  0
ENDTAB
  0
TABLE
  2
DIMSTYLE
  5
A
330
0
100
AcDbSymbolTable
 70
     1
  0
DIMSTYLE
105
27
330
A
100
AcDbSymbolTableRecord
100
AcDbDimStyleTableRecord
  2
ISO-25
 70
     0
  3

  4

  5

  6

  7

 40
1.0
 41
2.5
 42
0.625
 43
3.75
 44
1.25
 45
0.0
 46
0.0
 47
0.0
 48
0.0
140
2.5
141
2.5
142
0.0
143
0.03937007874016
144
1.0
145
0.0
146
1.0
147
0.625
 71
     0
 72
     0
 73
     0
 74
     0
 75
     0
 76
     0
 77
     1
 78
     8
170
     0
171
     3
172
     1
173
     0
174
     0
175
     0
176
     0
177
     0
178
     0
270
     2
271
     2
272
     2
273
     2
274
     3
340
11
275
     0
280
     0
281
     0
282
     0
283
     0
284
     8
285
     0
286
     0
287
     3
288
     0
  0
ENDTAB
  0
TABLE
  2
BLOCK_RECORD
  5
1
330
0
100
AcDbSymbolTable
 70
     1
  0
BLOCK_RECORD
  5
1F
330
1
100
AcDbSymbolTableRecord
100
AcDbBlockTableRecord
  2
*MODEL_SPACE
  0
BLOCK_RECORD
  5
1B
330
1
100
AcDbSymbolTableRecord
100
AcDbBlockTableRecord
  2
*PAPER_SPACE
  0
ENDTAB
  0
ENDSEC
  0
SECTION
  2
BLOCKS
  0
BLOCK
  5
20
330
1F
100
AcDbEntity
  8
0
100
AcDbBlockBegin
  2
*MODEL_SPACE
 70
     0
 10
0.0
 20
0.0
 30
0.0
  3
*MODEL_SPACE
  1

  0
ENDBLK
  5
21
330
1F
100
AcDbEntity
  8
0
100
AcDbBlockEnd
  0
BLOCK
  5
1C
330
1B
100
AcDbEntity
 67
     1
  8
0
100
AcDbBlockBegin
  2
*PAPER_SPACE
  1

  0
ENDBLK
  5
1D
330
1B
100
AcDbEntity
 67
     1
  8
0
100
AcDbBlockEnd
  0
ENDSEC
  0
SECTION
  2
ENTITIES
  0
LINE
  5
100
100
AcDbEntity
  8
Layer_1
 62
7
100
AcDbLine
 10
-50.834536
 20
-17.999991
 30
0.0
 11
-25.417268
 21
-17.999991
 31
0.0
  0
LINE
  5
101
100
AcDbEntity
  8
Layer_1
 62
7
100
AcDbLine
 10
-25.417268
 20
-17.999991
 30
0.0
 11
0.000000
 21
-17.999991
 31
0.0
  0
LINE
  5
102
100
AcDbEntity
  8
Layer_1
 62
7
100
AcDbLine
 10
0.000000
 20
-17.999991
 30
0.0
 11
25.417268
 21
-17.999991
 31
0.0
  0
LINE
  5
103
100
AcDbEntity
  8
Layer_1
 62
7
100
AcDbLine
 10
25.417268
 20
-17.999991
 30
0.0
 11
50.834536
 21
-17.999991
 31
0.0
  0
LINE
  5
104
100
AcDbEntity
  8
Layer_1
 62
7
100
AcDbLine
 10
50.834536
 20
-17.999991
 30
0.0
 11
52.068970
 21
-17.752002
 31
0.0
  0
LINE
  5
105
100
AcDbEntity
  8
Layer_1
 62
7
100
AcDbLine
 10
52.068970
 20
-17.752002
 30
0.0
 11
53.074895
 21
-17.074895
 31
0.0
  0
LINE
  5
106
100
AcDbEntity
  8
Layer_1
 62
7
100
AcDbLine
 10
53.074895
 20
-17.074895
 30
0.0
 11
53.752008
 21
-16.068970
 31
0.0
  0
LINE
  5
107
100
AcDbEntity
  8
Layer_1
 62
7
100
AcDbLine
 10
53.752008
 20
-16.068970
 30
0.0
 11
54.000002
 21
-14.834530
 31
0.0
  0
LINE
  5
108
100
AcDbEntity
  8
Layer_1
 62
7
100
AcDbLine
 10
54.000002
 20
-14.834530
 30
0.0
 11
54.000002
 21
-8.167256
 31
0.0
  0
LINE
  5
109
100
AcDbEntity
  8
Layer_1
 62
7
100
AcDbLine
 10
54.000002
 20
-8.167256
 30
0.0
 11
54.000002
 21
-1.500010
 31
0.0
  0
LINE
  5
10a
100
AcDbEntity
  8
Layer_1
 62
7
100
AcDbLine
 10
54.000002
 20
-1.500010
 30
0.0
 11
54.000002
 21
5.167264
 31
0.0
  0
LINE
  5
10b
100
AcDbEntity
  8
Layer_1
 62
7
100
AcDbLine
 10
54.000002
 20
5.167264
 30
0.0
 11
54.000002
 21
11.834539
 31
0.0
  0
LINE
  5
10c
100
AcDbEntity
  8
Layer_1
 62
7
100
AcDbLine
 10
54.000002
 20
11.834539
 30
0.0
 11
53.752008
 21
13.068979
 31
0.0
  0
LINE
  5
10d
100
AcDbEntity
  8
Layer_1
 62
7
100
AcDbLine
 10
53.752008
 20
13.068979
 30
0.0
 11
53.074895
 21
14.074903
 31
0.0
  0
LINE
  5
10e
100
AcDbEntity
  8
Layer_1
 62
7
100
AcDbLine
 10
53.074895
 20
14.074903
 30
0.0
 11
52.068970
 21
14.752011
 31
0.0
  0
LINE
  5
10f
100
AcDbEntity
  8
Layer_1
 62
7
100
AcDbLine
 10
52.068970
 20
14.752011
 30
0.0
 11
50.834536
 21
15.000008
 31
0.0
  0
LINE
  5
110
100
AcDbEntity
  8
Layer_1
 62
7
100
AcDbLine
 10
50.834536
 20
15.000008
 30
0.0
 11
25.417268
 21
15.000008
 31
0.0
  0
LINE
  5
111
100
AcDbEntity
  8
Layer_1
 62
7
100
AcDbLine
 10
25.417268
 20
15.000008
 30
0.0
 11
0.000000
 21
15.000008
 31
0.0
  0
LINE
  5
112
100
AcDbEntity
  8
Layer_1
 62
7
100
AcDbLine
 10
0.000000
 20
15.000008
 30
0.0
 11
-25.417268
 21
15.000008
 31
0.0
  0
LINE
  5
113
100
AcDbEntity
  8
Layer_1
 62
7
100
AcDbLine
 10
-25.417268
 20
15.000008
 30
0.0
 11
-50.834536
 21
15.000008
 31
0.0
  0
LINE
  5
114
100
AcDbEntity
  8
Layer_1
 62
7
100
AcDbLine
 10
-50.834536
 20
15.000008
 30
0.0
 11
-52.068970
 21
14.752011
 31
0.0
  0
LINE
  5
115
100
AcDbEntity
  8
Layer_1
 62
7
100
AcDbLine
 10
-52.068970
 20
14.752011
 30
0.0
 11
-53.074895
 21
14.074903
 31
0.0
  0
LINE
  5
116
100
AcDbEntity
  8
Layer_1
 62
7
100
AcDbLine
 10
-53.074895
 20
14.074903
 30
0.0
 11
-53.752008
 21
13.068979
 31
0.0
  0
LINE
  5
117
100
AcDbEntity
  8
Layer_1
 62
7
100
AcDbLine
 10
-53.752008
 20
13.068979
 30
0.0
 11
-54.000002
 21
11.834539
 31
0.0
  0
LINE
  5
118
100
AcDbEntity
  8
Layer_1
 62
7
100
AcDbLine
 10
-54.000002
 20
11.834539
 30
0.0
 11
-54.000002
 21
5.167264
 31
0.0
  0
LINE
  5
119
100
AcDbEntity
  8
Layer_1
 62
7
100
AcDbLine
 10
-54.000002
 20
5.167264
 30
0.0
 11
-54.000002
 21
-1.500010
 31
0.0
  0
LINE
  5
11a
100
AcDbEntity
  8
Layer_1
 62
7
100
AcDbLine
 10
-54.000002
 20
-1.500010
 30
0.0
 11
-54.000002
 21
-8.167256
 31
0.0
  0
LINE
  5
11b
100
AcDbEntity
  8
Layer_1
 62
7
100
AcDbLine
 10
-54.000002
 20
-8.167256
 30
0.0
 11
-54.000002
 21
-14.834530
 31
0.0
  0
LINE
  5
11c
100
AcDbEntity
  8
Layer_1
 62
7
100
AcDbLine
 10
-54.000002
 20
-14.834530
 30
0.0
 11
-53.752008
 21
-16.068970
 31
0.0
  0
LINE
  5
11d
100
AcDbEntity
  8
Layer_1
 62
7
100
AcDbLine
 10
-53.752008
 20
-16.068970
 30
0.0
 11
-53.074895
 21
-17.074895
 31
0.0
  0
LINE
  5
11e
100
AcDbEntity
  8
Layer_1
 62
7
100
AcDbLine
 10
-53.074895
 20
-17.074895
 30
0.0
 11
-52.068970
 21
-17.752002
 31
0.0
  0
LINE
  5
11f
100
AcDbEntity
  8
Layer_1
 62
7
100
AcDbLine
 10
-52.068970
 20
-17.752002
 30
0.0
 11
-50.834536
 21
-17.999991
 31
0.0
  0
LINE
  5
120
100
AcDbEntity
  8
Layer_1
 62
7
100
AcDbLine
 10
-48.499993
 20
-13.999976
 30
0.0
 11
-48.617871
 21
-14.583843
 31
0.0
  0
LINE
  5
121
100
AcDbEntity
  8
Layer_1
 62
7
100
AcDbLine
 10
-48.617871
 20
-14.583843
 30
0.0
 11
-48.939333
 21
-15.060635
 31
0.0
  0
LINE
  5
122
100
AcDbEntity
  8
Layer_1
 62
7
100
AcDbLine
 10
-48.939333
 20
-15.060635
 30
0.0
 11
-49.416125
 21
-15.382098
 31
0.0
  0
LINE
  5
123
100
AcDbEntity
  8
Layer_1
 62
7
100
AcDbLine
 10
-49.416125
 20
-15.382098
 30
0.0
 11
-49.999992
 21
-15.499976
 31
0.0
  0
LINE
  5
124
100
AcDbEntity
  8
Layer_1
 62
7
100
AcDbLine
 10
-49.999992
 20
-15.499976
 30
0.0
 11
-50.583859
 21
-15.382098
 31
0.0
  0
LINE
  5
125
100
AcDbEntity
  8
Layer_1
 62
7
100
AcDbLine
 10
-50.583859
 20
-15.382098
 30
0.0
 11
-51.060651
 21
-15.060635
 31
0.0
  0
LINE
  5
126
100
AcDbEntity
  8
Layer_1
 62
7
100
AcDbLine
 10
-51.060651
 20
-15.060635
 30
0.0
 11
-51.382114
 21
-14.583843
 31
0.0
  0
LINE
  5
127
100
AcDbEntity
  8
Layer_1
 62
7
100
AcDbLine
 10
-51.382114
 20
-14.583843
 30
0.0
 11
-51.499992
 21
-13.999976
 31
0.0
  0
LINE
  5
128
100
AcDbEntity
  8
Layer_1
 62
7
100
AcDbLine
 10
-51.499992
 20
-13.999976
 30
0.0
 11
-51.382114
 21
-13.416107
 31
0.0
  0
LINE
  5
129
100
AcDbEntity
  8
Layer_1
 62
7
100
AcDbLine
 10
-51.382114
 20
-13.416107
 30
0.0
 11
-51.060651
 21
-12.939315
 31
0.0
  0
LINE
  5
12a
100
AcDbEntity
  8
Layer_1
 62
7
100
AcDbLine
 10
-51.060651
 20
-12.939315
 30
0.0
 11
-50.583859
 21
-12.617852
 31
0.0
  0
LINE
  5
12b
100
AcDbEntity
  8
Layer_1
 62
7
100
AcDbLine
 10
-50.583859
 20
-12.617852
 30
0.0
 11
-49.999992
 21
-12.499976
 31
0.0
  0
LINE
  5
12c
100
AcDbEntity
  8
Layer_1
 62
7
100
AcDbLine
 10
-49.999992
 20
-12.499976
 30
0.0
 11
-49.416125
 21
-12.617852
 31
0.0
  0
LINE
  5
12d
100
AcDbEntity
  8
Layer_1
 62
7
100
AcDbLine
 10
-49.416125
 20
-12.617852
 30
0.0
 11
-48.939333
 21
-12.939315
 31
0.0
  0
LINE
  5
12e
100
AcDbEntity
  8
Layer_1
 62
7
100
AcDbLine
 10
-48.939333
 20
-12.939315
 30
0.0
 11
-48.617871
 21
-13.416107
 31
0.0
  0
LINE
  5
12f
100
AcDbEntity
  8
Layer_1
 62
7
100
AcDbLine
 10
-48.617871
 20
-13.416107
 30
0.0
 11
-48.499993
 21
-13.999976
 31
0.0
  0
LINE
  5
130
100
AcDbEntity
  8
Layer_1
 62
7
100
AcDbLine
 10
-36.489163
 20
-5.920024
 30
0.0
 11
-36.442179
 21
-6.513818
 31
0.0
  0
LINE
  5
131
100
AcDbEntity
  8
Layer_1
 62
7
100
AcDbLine
 10
-36.442179
 20
-6.513818
 30
0.0
 11
-36.180236
 21
-7.025731
 31
0.0
  0
LINE
  5
132
100
AcDbEntity
  8
Layer_1
 62
7
100
AcDbLine
 10
-36.180236
 20
-7.025731
 30
0.0
 11
-35.745450
 21
-7.402069
 31
0.0
  0
LINE
  5
133
100
AcDbEntity
  8
Layer_1
 62
7
100
AcDbLine
 10
-35.745450
 20
-7.402069
 30
0.0
 11
-35.179939
 21
-7.589136
 31
0.0
  0
LINE
  5
134
100
AcDbEntity
  8
Layer_1
 62
7
100
AcDbLine
 10
-35.179939
 20
-7.589136
 30
0.0
 11
-34.586147
 21
-7.542154
 31
0.0
  0
LINE
  5
135
100
AcDbEntity
  8
Layer_1
 62
7
100
AcDbLine
 10
-34.586147
 20
-7.542154
 30
0.0
 11
-34.074235
 21
-7.280210
 31
0.0
  0
LINE
  5
136
100
AcDbEntity
  8
Layer_1
 62
7
100
AcDbLine
 10
-34.074235
 20
-7.280210
 30
0.0
 11
-33.697896
 21
-6.845425
 31
0.0
  0
LINE
  5
137
100
AcDbEntity
  8
Layer_1
 62
7
100
AcDbLine
 10
-33.697896
 20
-6.845425
 30
0.0
 11
-33.510828
 21
-6.279913
 31
0.0
  0
LINE
  5
138
100
AcDbEntity
  8
Layer_1
 62
7
100
AcDbLine
 10
-33.510828
 20
-6.279913
 30
0.0
 11
-33.557811
 21
-5.686121
 31
0.0
  0
LINE
  5
139
100
AcDbEntity
  8
Layer_1
 62
7
100
AcDbLine
 10
-33.557811
 20
-5.686121
 30
0.0
 11
-33.819755
 21
-5.174209
 31
0.0
  0
LINE
  5
13a
100
AcDbEntity
  8
Layer_1
 62
7
100
AcDbLine
 10
-33.819755
 20
-5.174209
 30
0.0
 11
-34.254541
 21
-4.797871
 31
0.0
  0
LINE
  5
13b
100
AcDbEntity
  8
Layer_1
 62
7
100
AcDbLine
 10
-34.254541
 20
-4.797871
 30
0.0
 11
-34.820051
 21
-4.610801
 31
0.0
  0
LINE
  5
13c
100
AcDbEntity
  8
Layer_1
 62
7
100
AcDbLine
 10
-34.820051
 20
-4.610801
 30
0.0
 11
-35.413843
 21
-4.657786
 31
0.0
  0
LINE
  5
13d
100
AcDbEntity
  8
Layer_1
 62
7
100
AcDbLine
 10
-35.413843
 20
-4.657786
 30
0.0
 11
-35.925756
 21
-4.919729
 31
0.0
  0
LINE
  5
13e
100
AcDbEntity
  8
Layer_1
 62
7
100
AcDbLine
 10
-35.925756
 20
-4.919729
 30
0.0
 11
-36.302094
 21
-5.354515
 31
0.0
  0
LINE
  5
13f
100
AcDbEntity
  8
Layer_1
 62
7
100
AcDbLine
 10
-36.302094
 20
-5.354515
 30
0.0
 11
-36.489163
 21
-5.920024
 31
0.0
  0
LINE
  5
140
100
AcDbEntity
  8
Layer_1
 62
7
100
AcDbLine
 10
33.510837
 20
-5.920035
 30
0.0
 11
33.557822
 21
-6.513827
 31
0.0
  0
LINE
  5
141
100
AcDbEntity
  8
Layer_1
 62
7
100
AcDbLine
 10
33.557822
 20
-6.513827
 30
0.0
 11
33.819766
 21
-7.025739
 31
0.0
  0
LINE
  5
142
100
AcDbEntity
  8
Layer_1
 62
7
100
AcDbLine
 10
33.819766
 20
-7.025739
 30
0.0
 11
34.254551
 21
-7.402077
 31
0.0
  0
LINE
  5
143
100
AcDbEntity
  8
Layer_1
 62
7
100
AcDbLine
 10
34.254551
 20
-7.402077
 30
0.0
 11
34.820060
 21
-7.589147
 31
0.0
  0
LINE
  5
144
100
AcDbEntity
  8
Layer_1
 62
7
100
AcDbLine
 10
34.820060
 20
-7.589147
 30
0.0
 11
35.413852
 21
-7.542162
 31
0.0
  0
LINE
  5
145
100
AcDbEntity
  8
Layer_1
 62
7
100
AcDbLine
 10
35.413852
 20
-7.542162
 30
0.0
 11
35.925764
 21
-7.280218
 31
0.0
  0
LINE
  5
146
100
AcDbEntity
  8
Layer_1
 62
7
100
AcDbLine
 10
35.925764
 20
-7.280218
 30
0.0
 11
36.302102
 21
-6.845433
 31
0.0
  0
LINE
  5
147
100
AcDbEntity
  8
Layer_1
 62
7
100
AcDbLine
 10
36.302102
 20
-6.845433
 30
0.0
 11
36.489172
 21
-6.279923
 31
0.0
  0
LINE
  5
148
100
AcDbEntity
  8
Layer_1
 62
7
100
AcDbLine
 10
36.489172
 20
-6.279923
 30
0.0
 11
36.442187
 21
-5.686132
 31
0.0
  0
LINE
  5
149
100
AcDbEntity
  8
Layer_1
 62
7
100
AcDbLine
 10
36.442187
 20
-5.686132
 30
0.0
 11
36.180243
 21
-5.174220
 31
0.0
  0
LINE
  5
14a
100
AcDbEntity
  8
Layer_1
 62
7
100
AcDbLine
 10
36.180243
 20
-5.174220
 30
0.0
 11
35.745458
 21
-4.797881
 31
0.0
  0
LINE
  5
14b
100
AcDbEntity
  8
Layer_1
 62
7
100
AcDbLine
 10
35.745458
 20
-4.797881
 30
0.0
 11
35.179949
 21
-4.610812
 31
0.0
  0
LINE
  5
14c
100
AcDbEntity
  8
Layer_1
 62
7
100
AcDbLine
 10
35.179949
 20
-4.610812
 30
0.0
 11
34.586157
 21
-4.657797
 31
0.0
  0
LINE
  5
14d
100
AcDbEntity
  8
Layer_1
 62
7
100
AcDbLine
 10
34.586157
 20
-4.657797
 30
0.0
 11
34.074245
 21
-4.919740
 31
0.0
  0
LINE
  5
14e
100
AcDbEntity
  8
Layer_1
 62
7
100
AcDbLine
 10
34.074245
 20
-4.919740
 30
0.0
 11
33.697907
 21
-5.354525
 31
0.0
  0
LINE
  5
14f
100
AcDbEntity
  8
Layer_1
 62
7
100
AcDbLine
 10
33.697907
 20
-5.354525
 30
0.0
 11
33.510837
 21
-5.920035
 31
0.0
  0
LINE
  5
150
100
AcDbEntity
  8
Layer_1
 62
7
100
AcDbLine
 10
1.500004
 20
-13.999979
 30
0.0
 11
1.382126
 21
-14.583846
 31
0.0
  0
LINE
  5
151
100
AcDbEntity
  8
Layer_1
 62
7
100
AcDbLine
 10
1.382126
 20
-14.583846
 30
0.0
 11
1.060664
 21
-15.060638
 31
0.0
  0
LINE
  5
152
100
AcDbEntity
  8
Layer_1
 62
7
100
AcDbLine
 10
1.060664
 20
-15.060638
 30
0.0
 11
0.583871
 21
-15.382100
 31
0.0
  0
LINE
  5
153
100
AcDbEntity
  8
Layer_1
 62
7
100
AcDbLine
 10
0.583871
 20
-15.382100
 30
0.0
 11
0.000004
 21
-15.499979
 31
0.0
  0
LINE
  5
154
100
AcDbEntity
  8
Layer_1
 62
7
100
AcDbLine
 10
0.000004
 20
-15.499979
 30
0.0
 11
-0.583864
 21
-15.382100
 31
0.0
  0
LINE
  5
155
100
AcDbEntity
  8
Layer_1
 62
7
100
AcDbLine
 10
-0.583864
 20
-15.382100
 30
0.0
 11
-1.060657
 21
-15.060638
 31
0.0
  0
LINE
  5
156
100
AcDbEntity
  8
Layer_1
 62
7
100
AcDbLine
 10
-1.060657
 20
-15.060638
 30
0.0
 11
-1.382119
 21
-14.583846
 31
0.0
  0
LINE
  5
157
100
AcDbEntity
  8
Layer_1
 62
7
100
AcDbLine
 10
-1.382119
 20
-14.583846
 30
0.0
 11
-1.499996
 21
-13.999979
 31
0.0
  0
LINE
  5
158
100
AcDbEntity
  8
Layer_1
 62
7
100
AcDbLine
 10
-1.499996
 20
-13.999979
 30
0.0
 11
-1.382119
 21
-13.416109
 31
0.0
  0
LINE
  5
159
100
AcDbEntity
  8
Layer_1
 62
7
100
AcDbLine
 10
-1.382119
 20
-13.416109
 30
0.0
 11
-1.060657
 21
-12.939317
 31
0.0
  0
LINE
  5
15a
100
AcDbEntity
  8
Layer_1
 62
7
100
AcDbLine
 10
-1.060657
 20
-12.939317
 30
0.0
 11
-0.583864
 21
-12.617855
 31
0.0
  0
LINE
  5
15b
100
AcDbEntity
  8
Layer_1
 62
7
100
AcDbLine
 10
-0.583864
 20
-12.617855
 30
0.0
 11
0.000004
 21
-12.499979
 31
0.0
  0
LINE
  5
15c
100
AcDbEntity
  8
Layer_1
 62
7
100
AcDbLine
 10
0.000004
 20
-12.499979
 30
0.0
 11
0.583871
 21
-12.617855
 31
0.0
  0
LINE
  5
15d
100
AcDbEntity
  8
Layer_1
 62
7
100
AcDbLine
 10
0.583871
 20
-12.617855
 30
0.0
 11
1.060664
 21
-12.939317
 31
0.0
  0
LINE
  5
15e
100
AcDbEntity
  8
Layer_1
 62
7
100
AcDbLine
 10
1.060664
 20
-12.939317
 30
0.0
 11
1.382126
 21
-13.416109
 31
0.0
  0
LINE
  5
15f
100
AcDbEntity
  8
Layer_1
 62
7
100
AcDbLine
 10
1.382126
 20
-13.416109
 30
0.0
 11
1.500004
 21
-13.999979
 31
0.0
  0
LINE
  5
160
100
AcDbEntity
  8
Layer_1
 62
7
100
AcDbLine
 10
-48.499993
 20
2.200028
 30
0.0
 11
-48.617871
 21
1.616158
 31
0.0
  0
LINE
  5
161
100
AcDbEntity
  8
Layer_1
 62
7
100
AcDbLine
 10
-48.617871
 20
1.616158
 30
0.0
 11
-48.939333
 21
1.139366
 31
0.0
  0
LINE
  5
162
100
AcDbEntity
  8
Layer_1
 62
7
100
AcDbLine
 10
-48.939333
 20
1.139366
 30
0.0
 11
-49.416125
 21
0.817904
 31
0.0
  0
LINE
  5
163
100
AcDbEntity
  8
Layer_1
 62
7
100
AcDbLine
 10
-49.416125
 20
0.817904
 30
0.0
 11
-49.999992
 21
0.700028
 31
0.0
  0
LINE
  5
164
100
AcDbEntity
  8
Layer_1
 62
7
100
AcDbLine
 10
-49.999992
 20
0.700028
 30
0.0
 11
-50.583859
 21
0.817904
 31
0.0
  0
LINE
  5
165
100
AcDbEntity
  8
Layer_1
 62
7
100
AcDbLine
 10
-50.583859
 20
0.817904
 30
0.0
 11
-51.060651
 21
1.139366
 31
0.0
  0
LINE
  5
166
100
AcDbEntity
  8
Layer_1
 62
7
100
AcDbLine
 10
-51.060651
 20
1.139366
 30
0.0
 11
-51.382114
 21
1.616158
 31
0.0
  0
LINE
  5
167
100
AcDbEntity
  8
Layer_1
 62
7
100
AcDbLine
 10
-51.382114
 20
1.616158
 30
0.0
 11
-51.499992
 21
2.200028
 31
0.0
  0
LINE
  5
168
100
AcDbEntity
  8
Layer_1
 62
7
100
AcDbLine
 10
-51.499992
 20
2.200028
 30
0.0
 11
-51.382114
 21
2.783895
 31
0.0
  0
LINE
  5
169
100
AcDbEntity
  8
Layer_1
 62
7
100
AcDbLine
 10
-51.382114
 20
2.783895
 30
0.0
 11
-51.060651
 21
3.260687
 31
0.0
  0
LINE
  5
16a
100
AcDbEntity
  8
Layer_1
 62
7
100
AcDbLine
 10
-51.060651
 20
3.260687
 30
0.0
 11
-50.583859
 21
3.582149
 31
0.0
  0
LINE
  5
16b
100
AcDbEntity
  8
Layer_1
 62
7
100
AcDbLine
 10
-50.583859
 20
3.582149
 30
0.0
 11
-49.999992
 21
3.700028
 31
0.0
  0
LINE
  5
16c
100
AcDbEntity
  8
Layer_1
 62
7
100
AcDbLine
 10
-49.999992
 20
3.700028
 30
0.0
 11
-49.416125
 21
3.582149
 31
0.0
  0
LINE
  5
16d
100
AcDbEntity
  8
Layer_1
 62
7
100
AcDbLine
 10
-49.416125
 20
3.582149
 30
0.0
 11
-48.939333
 21
3.260687
 31
0.0
  0
LINE
  5
16e
100
AcDbEntity
  8
Layer_1
 62
7
100
AcDbLine
 10
-48.939333
 20
3.260687
 30
0.0
 11
-48.617871
 21
2.783895
 31
0.0
  0
LINE
  5
16f
100
AcDbEntity
  8
Layer_1
 62
7
100
AcDbLine
 10
-48.617871
 20
2.783895
 30
0.0
 11
-48.499993
 21
2.200028
 31
0.0
  0
LINE
  5
170
100
AcDbEntity
  8
Layer_1
 62
7
100
AcDbLine
 10
48.500000
 20
-13.999976
 30
0.0
 11
48.617878
 21
-14.583843
 31
0.0
  0
LINE
  5
171
100
AcDbEntity
  8
Layer_1
 62
7
100
AcDbLine
 10
48.617878
 20
-14.583843
 30
0.0
 11
48.939341
 21
-15.060635
 31
0.0
  0
LINE
  5
172
100
AcDbEntity
  8
Layer_1
 62
7
100
AcDbLine
 10
48.939341
 20
-15.060635
 30
0.0
 11
49.416133
 21
-15.382098
 31
0.0
  0
LINE
  5
173
100
AcDbEntity
  8
Layer_1
 62
7
100
AcDbLine
 10
49.416133
 20
-15.382098
 30
0.0
 11
50.000000
 21
-15.499976
 31
0.0
  0
LINE
  5
174
100
AcDbEntity
  8
Layer_1
 62
7
100
AcDbLine
 10
50.000000
 20
-15.499976
 30
0.0
 11
50.583867
 21
-15.382098
 31
0.0
  0
LINE
  5
175
100
AcDbEntity
  8
Layer_1
 62
7
100
AcDbLine
 10
50.583867
 20
-15.382098
 30
0.0
 11
51.060658
 21
-15.060635
 31
0.0
  0
LINE
  5
176
100
AcDbEntity
  8
Layer_1
 62
7
100
AcDbLine
 10
51.060658
 20
-15.060635
 30
0.0
 11
51.382121
 21
-14.583843
 31
0.0
  0
LINE
  5
177
100
AcDbEntity
  8
Layer_1
 62
7
100
AcDbLine
 10
51.382121
 20
-14.583843
 30
0.0
 11
51.499999
 21
-13.999976
 31
0.0
  0
LINE
  5
178
100
AcDbEntity
  8
Layer_1
 62
7
100
AcDbLine
 10
51.499999
 20
-13.999976
 30
0.0
 11
51.382121
 21
-13.416107
 31
0.0
  0
LINE
  5
179
100
AcDbEntity
  8
Layer_1
 62
7
100
AcDbLine
 10
51.382121
 20
-13.416107
 30
0.0
 11
51.060658
 21
-12.939315
 31
0.0
  0
LINE
  5
17a
100
AcDbEntity
  8
Layer_1
 62
7
100
AcDbLine
 10
51.060658
 20
-12.939315
 30
0.0
 11
50.583867
 21
-12.617852
 31
0.0
  0
LINE
  5
17b
100
AcDbEntity
  8
Layer_1
 62
7
100
AcDbLine
 10
50.583867
 20
-12.617852
 30
0.0
 11
50.000000
 21
-12.499976
 31
0.0
  0
LINE
  5
17c
100
AcDbEntity
  8
Layer_1
 62
7
100
AcDbLine
 10
50.000000
 20
-12.499976
 30
0.0
 11
49.416133
 21
-12.617852
 31
0.0
  0
LINE
  5
17d
100
AcDbEntity
  8
Layer_1
 62
7
100
AcDbLine
 10
49.416133
 20
-12.617852
 30
0.0
 11
48.939341
 21
-12.939315
 31
0.0
  0
LINE
  5
17e
100
AcDbEntity
  8
Layer_1
 62
7
100
AcDbLine
 10
48.939341
 20
-12.939315
 30
0.0
 11
48.617878
 21
-13.416107
 31
0.0
  0
LINE
  5
17f
100
AcDbEntity
  8
Layer_1
 62
7
100
AcDbLine
 10
48.617878
 20
-13.416107
 30
0.0
 11
48.500000
 21
-13.999976
 31
0.0
  0
LINE
  5
180
100
AcDbEntity
  8
Layer_1
 62
7
100
AcDbLine
 10
48.500000
 20
2.200028
 30
0.0
 11
48.617878
 21
1.616158
 31
0.0
  0
LINE
  5
181
100
AcDbEntity
  8
Layer_1
 62
7
100
AcDbLine
 10
48.617878
 20
1.616158
 30
0.0
 11
48.939341
 21
1.139366
 31
0.0
  0
LINE
  5
182
100
AcDbEntity
  8
Layer_1
 62
7
100
AcDbLine
 10
48.939341
 20
1.139366
 30
0.0
 11
49.416133
 21
0.817904
 31
0.0
  0
LINE
  5
183
100
AcDbEntity
  8
Layer_1
 62
7
100
AcDbLine
 10
49.416133
 20
0.817904
 30
0.0
 11
50.000000
 21
0.700028
 31
0.0
  0
LINE
  5
184
100
AcDbEntity
  8
Layer_1
 62
7
100
AcDbLine
 10
50.000000
 20
0.700028
 30
0.0
 11
50.583867
 21
0.817904
 31
0.0
  0
LINE
  5
185
100
AcDbEntity
  8
Layer_1
 62
7
100
AcDbLine
 10
50.583867
 20
0.817904
 30
0.0
 11
51.060658
 21
1.139366
 31
0.0
  0
LINE
  5
186
100
AcDbEntity
  8
Layer_1
 62
7
100
AcDbLine
 10
51.060658
 20
1.139366
 30
0.0
 11
51.382121
 21
1.616158
 31
0.0
  0
LINE
  5
187
100
AcDbEntity
  8
Layer_1
 62
7
100
AcDbLine
 10
51.382121
 20
1.616158
 30
0.0
 11
51.499999
 21
2.200028
 31
0.0
  0
LINE
  5
188
100
AcDbEntity
  8
Layer_1
 62
7
100
AcDbLine
 10
51.499999
 20
2.200028
 30
0.0
 11
51.382121
 21
2.783895
 31
0.0
  0
LINE
  5
189
100
AcDbEntity
  8
Layer_1
 62
7
100
AcDbLine
 10
51.382121
 20
2.783895
 30
0.0
 11
51.060658
 21
3.260687
 31
0.0
  0
LINE
  5
18a
100
AcDbEntity
  8
Layer_1
 62
7
100
AcDbLine
 10
51.060658
 20
3.260687
 30
0.0
 11
50.583867
 21
3.582149
 31
0.0
  0
LINE
  5
18b
100
AcDbEntity
  8
Layer_1
 62
7
100
AcDbLine
 10
50.583867
 20
3.582149
 30
0.0
 11
50.000000
 21
3.700028
 31
0.0
  0
LINE
  5
18c
100
AcDbEntity
  8
Layer_1
 62
7
100
AcDbLine
 10
50.000000
 20
3.700028
 30
0.0
 11
49.416133
 21
3.582149
 31
0.0
  0
LINE
  5
18d
100
AcDbEntity
  8
Layer_1
 62
7
100
AcDbLine
 10
49.416133
 20
3.582149
 30
0.0
 11
48.939341
 21
3.260687
 31
0.0
  0
LINE
  5
18e
100
AcDbEntity
  8
Layer_1
 62
7
100
AcDbLine
 10
48.939341
 20
3.260687
 30
0.0
 11
48.617878
 21
2.783895
 31
0.0
  0
LINE
  5
18f
100
AcDbEntity
  8
Layer_1
 62
7
100
AcDbLine
 10
48.617878
 20
2.783895
 30
0.0
 11
48.500000
 21
2.200028
 31
0.0
  0
LINE
  5
190
100
AcDbEntity
  8
Layer_1
 62
7
100
AcDbLine
 10
-47.999988
 20
11.000027
 30
0.0
 11
-48.157157
 21
10.221537
 31
0.0
  0
LINE
  5
191
100
AcDbEntity
  8
Layer_1
 62
7
100
AcDbLine
 10
-48.157157
 20
10.221537
 30
0.0
 11
-48.585774
 21
9.585812
 31
0.0
  0
LINE
  5
192
100
AcDbEntity
  8
Layer_1
 62
7
100
AcDbLine
 10
-48.585774
 20
9.585812
 30
0.0
 11
-49.221499
 21
9.157195
 31
0.0
  0
LINE
  5
193
100
AcDbEntity
  8
Layer_1
 62
7
100
AcDbLine
 10
-49.221499
 20
9.157195
 30
0.0
 11
-49.999990
 21
9.000026
 31
0.0
  0
LINE
  5
194
100
AcDbEntity
  8
Layer_1
 62
7
100
AcDbLine
 10
-49.999990
 20
9.000026
 30
0.0
 11
-50.778480
 21
9.157195
 31
0.0
  0
LINE
  5
195
100
AcDbEntity
  8
Layer_1
 62
7
100
AcDbLine
 10
-50.778480
 20
9.157195
 30
0.0
 11
-51.414202
 21
9.585812
 31
0.0
  0
LINE
  5
196
100
AcDbEntity
  8
Layer_1
 62
7
100
AcDbLine
 10
-51.414202
 20
9.585812
 30
0.0
 11
-51.842819
 21
10.221537
 31
0.0
  0
LINE
  5
197
100
AcDbEntity
  8
Layer_1
 62
7
100
AcDbLine
 10
-51.842819
 20
10.221537
 30
0.0
 11
-51.999988
 21
11.000027
 31
0.0
  0
LINE
  5
198
100
AcDbEntity
  8
Layer_1
 62
7
100
AcDbLine
 10
-51.999988
 20
11.000027
 30
0.0
 11
-51.842819
 21
11.778518
 31
0.0
  0
LINE
  5
199
100
AcDbEntity
  8
Layer_1
 62
7
100
AcDbLine
 10
-51.842819
 20
11.778518
 30
0.0
 11
-51.414202
 21
12.414240
 31
0.0
  0
LINE
  5
19a
100
AcDbEntity
  8
Layer_1
 62
7
100
AcDbLine
 10
-51.414202
 20
12.414240
 30
0.0
 11
-50.778480
 21
12.842857
 31
0.0
  0
LINE
  5
19b
100
AcDbEntity
  8
Layer_1
 62
7
100
AcDbLine
 10
-50.778480
 20
12.842857
 30
0.0
 11
-49.999990
 21
13.000026
 31
0.0
  0
LINE
  5
19c
100
AcDbEntity
  8
Layer_1
 62
7
100
AcDbLine
 10
-49.999990
 20
13.000026
 30
0.0
 11
-49.221499
 21
12.842857
 31
0.0
  0
LINE
  5
19d
100
AcDbEntity
  8
Layer_1
 62
7
100
AcDbLine
 10
-49.221499
 20
12.842857
 30
0.0
 11
-48.585774
 21
12.414240
 31
0.0
  0
LINE
  5
19e
100
AcDbEntity
  8
Layer_1
 62
7
100
AcDbLine
 10
-48.585774
 20
12.414240
 30
0.0
 11
-48.157157
 21
11.778518
 31
0.0
  0
LINE
  5
19f
100
AcDbEntity
  8
Layer_1
 62
7
100
AcDbLine
 10
-48.157157
 20
11.778518
 30
0.0
 11
-47.999988
 21
11.000027
 31
0.0
  0
LINE
  5
1a0
100
AcDbEntity
  8
Layer_1
 62
7
100
AcDbLine
 10
-37.999988
 20
11.000010
 30
0.0
 11
-38.157158
 21
10.221520
 31
0.0
  0
LINE
  5
1a1
100
AcDbEntity
  8
Layer_1
 62
7
100
AcDbLine
 10
-38.157158
 20
10.221520
 30
0.0
 11
-38.585774
 21
9.585795
 31
0.0
  0
LINE
  5
1a2
100
AcDbEntity
  8
Layer_1
 62
7
100
AcDbLine
 10
-38.585774
 20
9.585795
 30
0.0
 11
-39.221497
 21
9.157178
 31
0.0
  0
LINE
  5
1a3
100
AcDbEntity
  8
Layer_1
 62
7
100
AcDbLine
 10
-39.221497
 20
9.157178
 30
0.0
 11
-39.999987
 21
9.000009
 31
0.0
  0
LINE
  5
1a4
100
AcDbEntity
  8
Layer_1
 62
7
100
AcDbLine
 10
-39.999987
 20
9.000009
 30
0.0
 11
-40.778477
 21
9.157178
 31
0.0
  0
LINE
  5
1a5
100
AcDbEntity
  8
Layer_1
 62
7
100
AcDbLine
 10
-40.778477
 20
9.157178
 30
0.0
 11
-41.414202
 21
9.585795
 31
0.0
  0
LINE
  5
1a6
100
AcDbEntity
  8
Layer_1
 62
7
100
AcDbLine
 10
-41.414202
 20
9.585795
 30
0.0
 11
-41.842819
 21
10.221520
 31
0.0
  0
LINE
  5
1a7
100
AcDbEntity
  8
Layer_1
 62
7
100
AcDbLine
 10
-41.842819
 20
10.221520
 30
0.0
 11
-41.999989
 21
11.000010
 31
0.0
  0
LINE
  5
1a8
100
AcDbEntity
  8
Layer_1
 62
7
100
AcDbLine
 10
-41.999989
 20
11.000010
 30
0.0
 11
-41.842819
 21
11.778501
 31
0.0
  0
LINE
  5
1a9
100
AcDbEntity
  8
Layer_1
 62
7
100
AcDbLine
 10
-41.842819
 20
11.778501
 30
0.0
 11
-41.414202
 21
12.414223
 31
0.0
  0
LINE
  5
1aa
100
AcDbEntity
  8
Layer_1
 62
7
100
AcDbLine
 10
-41.414202
 20
12.414223
 30
0.0
 11
-40.778477
 21
12.842840
 31
0.0
  0
LINE
  5
1ab
100
AcDbEntity
  8
Layer_1
 62
7
100
AcDbLine
 10
-40.778477
 20
12.842840
 30
0.0
 11
-39.999987
 21
13.000009
 31
0.0
  0
LINE
  5
1ac
100
AcDbEntity
  8
Layer_1
 62
7
100
AcDbLine
 10
-39.999987
 20
13.000009
 30
0.0
 11
-39.221497
 21
12.842840
 31
0.0
  0
LINE
  5
1ad
100
AcDbEntity
  8
Layer_1
 62
7
100
AcDbLine
 10
-39.221497
 20
12.842840
 30
0.0
 11
-38.585774
 21
12.414223
 31
0.0
  0
LINE
  5
1ae
100
AcDbEntity
  8
Layer_1
 62
7
100
AcDbLine
 10
-38.585774
 20
12.414223
 30
0.0
 11
-38.157158
 21
11.778501
 31
0.0
  0
LINE
  5
1af
100
AcDbEntity
  8
Layer_1
 62
7
100
AcDbLine
 10
-38.157158
 20
11.778501
 30
0.0
 11
-37.999988
 21
11.000010
 31
0.0
  0
LINE
  5
1b0
100
AcDbEntity
  8
Layer_1
 62
7
100
AcDbLine
 10
-27.999989
 20
11.000027
 30
0.0
 11
-28.157159
 21
10.221537
 31
0.0
  0
LINE
  5
1b1
100
AcDbEntity
  8
Layer_1
 62
7
100
AcDbLine
 10
-28.157159
 20
10.221537
 30
0.0
 11
-28.585777
 21
9.585812
 31
0.0
  0
LINE
  5
1b2
100
AcDbEntity
  8
Layer_1
 62
7
100
AcDbLine
 10
-28.585777
 20
9.585812
 30
0.0
 11
-29.221500
 21
9.157195
 31
0.0
  0
LINE
  5
1b3
100
AcDbEntity
  8
Layer_1
 62
7
100
AcDbLine
 10
-29.221500
 20
9.157195
 30
0.0
 11
-29.999990
 21
9.000026
 31
0.0
  0
LINE
  5
1b4
100
AcDbEntity
  8
Layer_1
 62
7
100
AcDbLine
 10
-29.999990
 20
9.000026
 30
0.0
 11
-30.778480
 21
9.157195
 31
0.0
  0
LINE
  5
1b5
100
AcDbEntity
  8
Layer_1
 62
7
100
AcDbLine
 10
-30.778480
 20
9.157195
 30
0.0
 11
-31.414203
 21
9.585812
 31
0.0
  0
LINE
  5
1b6
100
AcDbEntity
  8
Layer_1
 62
7
100
AcDbLine
 10
-31.414203
 20
9.585812
 30
0.0
 11
-31.842819
 21
10.221537
 31
0.0
  0
LINE
  5
1b7
100
AcDbEntity
  8
Layer_1
 62
7
100
AcDbLine
 10
-31.842819
 20
10.221537
 30
0.0
 11
-31.999989
 21
11.000027
 31
0.0
  0
LINE
  5
1b8
100
AcDbEntity
  8
Layer_1
 62
7
100
AcDbLine
 10
-31.999989
 20
11.000027
 30
0.0
 11
-31.842819
 21
11.778518
 31
0.0
  0
LINE
  5
1b9
100
AcDbEntity
  8
Layer_1
 62
7
100
AcDbLine
 10
-31.842819
 20
11.778518
 30
0.0
 11
-31.414203
 21
12.414240
 31
0.0
  0
LINE
  5
1ba
100
AcDbEntity
  8
Layer_1
 62
7
100
AcDbLine
 10
-31.414203
 20
12.414240
 30
0.0
 11
-30.778480
 21
12.842857
 31
0.0
  0
LINE
  5
1bb
100
AcDbEntity
  8
Layer_1
 62
7
100
AcDbLine
 10
-30.778480
 20
12.842857
 30
0.0
 11
-29.999990
 21
13.000026
 31
0.0
  0
LINE
  5
1bc
100
AcDbEntity
  8
Layer_1
 62
7
100
AcDbLine
 10
-29.999990
 20
13.000026
 30
0.0
 11
-29.221500
 21
12.842857
 31
0.0
  0
LINE
  5
1bd
100
AcDbEntity
  8
Layer_1
 62
7
100
AcDbLine
 10
-29.221500
 20
12.842857
 30
0.0
 11
-28.585777
 21
12.414240
 31
0.0
  0
LINE
  5
1be
100
AcDbEntity
  8
Layer_1
 62
7
100
AcDbLine
 10
-28.585777
 20
12.414240
 30
0.0
 11
-28.157159
 21
11.778518
 31
0.0
  0
LINE
  5
1bf
100
AcDbEntity
  8
Layer_1
 62
7
100
AcDbLine
 10
-28.157159
 20
11.778518
 30
0.0
 11
-27.999989
 21
11.000027
 31
0.0
  0
LINE
  5
1c0
100
AcDbEntity
  8
Layer_1
 62
7
100
AcDbLine
 10
-17.999992
 20
11.000010
 30
0.0
 11
-18.157162
 21
10.221520
 31
0.0
  0
LINE
  5
1c1
100
AcDbEntity
  8
Layer_1
 62
7
100
AcDbLine
 10
-18.157162
 20
10.221520
 30
0.0
 11
-18.585779
 21
9.585795
 31
0.0
  0
LINE
  5
1c2
100
AcDbEntity
  8
Layer_1
 62
7
100
AcDbLine
 10
-18.585779
 20
9.585795
 30
0.0
 11
-19.221502
 21
9.157178
 31
0.0
  0
LINE
  5
1c3
100
AcDbEntity
  8
Layer_1
 62
7
100
AcDbLine
 10
-19.221502
 20
9.157178
 30
0.0
 11
-19.999992
 21
9.000009
 31
0.0
  0
LINE
  5
1c4
100
AcDbEntity
  8
Layer_1
 62
7
100
AcDbLine
 10
-19.999992
 20
9.000009
 30
0.0
 11
-20.778482
 21
9.157178
 31
0.0
  0
LINE
  5
1c5
100
AcDbEntity
  8
Layer_1
 62
7
100
AcDbLine
 10
-20.778482
 20
9.157178
 30
0.0
 11
-21.414206
 21
9.585795
 31
0.0
  0
LINE
  5
1c6
100
AcDbEntity
  8
Layer_1
 62
7
100
AcDbLine
 10
-21.414206
 20
9.585795
 30
0.0
 11
-21.842822
 21
10.221520
 31
0.0
  0
LINE
  5
1c7
100
AcDbEntity
  8
Layer_1
 62
7
100
AcDbLine
 10
-21.842822
 20
10.221520
 30
0.0
 11
-21.999992
 21
11.000010
 31
0.0
  0
LINE
  5
1c8
100
AcDbEntity
  8
Layer_1
 62
7
100
AcDbLine
 10
-21.999992
 20
11.000010
 30
0.0
 11
-21.842822
 21
11.778501
 31
0.0
  0
LINE
  5
1c9
100
AcDbEntity
  8
Layer_1
 62
7
100
AcDbLine
 10
-21.842822
 20
11.778501
 30
0.0
 11
-21.414206
 21
12.414223
 31
0.0
  0
LINE
  5
1ca
100
AcDbEntity
  8
Layer_1
 62
7
100
AcDbLine
 10
-21.414206
 20
12.414223
 30
0.0
 11
-20.778482
 21
12.842840
 31
0.0
  0
LINE
  5
1cb
100
AcDbEntity
  8
Layer_1
 62
7
100
AcDbLine
 10
-20.778482
 20
12.842840
 30
0.0
 11
-19.999992
 21
13.000009
 31
0.0
  0
LINE
  5
1cc
100
AcDbEntity
  8
Layer_1
 62
7
100
AcDbLine
 10
-19.999992
 20
13.000009
 30
0.0
 11
-19.221502
 21
12.842840
 31
0.0
  0
LINE
  5
1cd
100
AcDbEntity
  8
Layer_1
 62
7
100
AcDbLine
 10
-19.221502
 20
12.842840
 30
0.0
 11
-18.585779
 21
12.414223
 31
0.0
  0
LINE
  5
1ce
100
AcDbEntity
  8
Layer_1
 62
7
100
AcDbLine
 10
-18.585779
 20
12.414223
 30
0.0
 11
-18.157162
 21
11.778501
 31
0.0
  0
LINE
  5
1cf
100
AcDbEntity
  8
Layer_1
 62
7
100
AcDbLine
 10
-18.157162
 20
11.778501
 30
0.0
 11
-17.999992
 21
11.000010
 31
0.0
  0
LINE
  5
1d0
100
AcDbEntity
  8
Layer_1
 62
7
100
AcDbLine
 10
-7.999993
 20
11.000027
 30
0.0
 11
-8.157163
 21
10.221537
 31
0.0
  0
LINE
  5
1d1
100
AcDbEntity
  8
Layer_1
 62
7
100
AcDbLine
 10
-8.157163
 20
10.221537
 30
0.0
 11
-8.585780
 21
9.585812
 31
0.0
  0
LINE
  5
1d2
100
AcDbEntity
  8
Layer_1
 62
7
100
AcDbLine
 10
-8.585780
 20
9.585812
 30
0.0
 11
-9.221503
 21
9.157195
 31
0.0
  0
LINE
  5
1d3
100
AcDbEntity
  8
Layer_1
 62
7
100
AcDbLine
 10
-9.221503
 20
9.157195
 30
0.0
 11
-9.999993
 21
9.000026
 31
0.0
  0
LINE
  5
1d4
100
AcDbEntity
  8
Layer_1
 62
7
100
AcDbLine
 10
-9.999993
 20
9.000026
 30
0.0
 11
-10.778484
 21
9.157195
 31
0.0
  0
LINE
  5
1d5
100
AcDbEntity
  8
Layer_1
 62
7
100
AcDbLine
 10
-10.778484
 20
9.157195
 30
0.0
 11
-11.414207
 21
9.585812
 31
0.0
  0
LINE
  5
1d6
100
AcDbEntity
  8
Layer_1
 62
7
100
AcDbLine
 10
-11.414207
 20
9.585812
 30
0.0
 11
-11.842823
 21
10.221537
 31
0.0
  0
LINE
  5
1d7
100
AcDbEntity
  8
Layer_1
 62
7
100
AcDbLine
 10
-11.842823
 20
10.221537
 30
0.0
 11
-11.999993
 21
11.000027
 31
0.0
  0
LINE
  5
1d8
100
AcDbEntity
  8
Layer_1
 62
7
100
AcDbLine
 10
-11.999993
 20
11.000027
 30
0.0
 11
-11.842823
 21
11.778518
 31
0.0
  0
LINE
  5
1d9
100
AcDbEntity
  8
Layer_1
 62
7
100
AcDbLine
 10
-11.842823
 20
11.778518
 30
0.0
 11
-11.414207
 21
12.414240
 31
0.0
  0
LINE
  5
1da
100
AcDbEntity
  8
Layer_1
 62
7
100
AcDbLine
 10
-11.414207
 20
12.414240
 30
0.0
 11
-10.778484
 21
12.842857
 31
0.0
  0
LINE
  5
1db
100
AcDbEntity
  8
Layer_1
 62
7
100
AcDbLine
 10
-10.778484
 20
12.842857
 30
0.0
 11
-9.999993
 21
13.000026
 31
0.0
  0
LINE
  5
1dc
100
AcDbEntity
  8
Layer_1
 62
7
100
AcDbLine
 10
-9.999993
 20
13.000026
 30
0.0
 11
-9.221503
 21
12.842857
 31
0.0
  0
LINE
  5
1dd
100
AcDbEntity
  8
Layer_1
 62
7
100
AcDbLine
 10
-9.221503
 20
12.842857
 30
0.0
 11
-8.585780
 21
12.414240
 31
0.0
  0
LINE
  5
1de
100
AcDbEntity
  8
Layer_1
 62
7
100
AcDbLine
 10
-8.585780
 20
12.414240
 30
0.0
 11
-8.157163
 21
11.778518
 31
0.0
  0
LINE
  5
1df
100
AcDbEntity
  8
Layer_1
 62
7
100
AcDbLine
 10
-8.157163
 20
11.778518
 30
0.0
 11
-7.999993
 21
11.000027
 31
0.0
  0
LINE
  5
1e0
100
AcDbEntity
  8
Layer_1
 62
7
100
AcDbLine
 10
2.000004
 20
11.000010
 30
0.0
 11
1.842834
 21
10.221520
 31
0.0
  0
LINE
  5
1e1
100
AcDbEntity
  8
Layer_1
 62
7
100
AcDbLine
 10
1.842834
 20
10.221520
 30
0.0
 11
1.414217
 21
9.585795
 31
0.0
  0
LINE
  5
1e2
100
AcDbEntity
  8
Layer_1
 62
7
100
AcDbLine
 10
1.414217
 20
9.585795
 30
0.0
 11
0.778494
 21
9.157178
 31
0.0
  0
LINE
  5
1e3
100
AcDbEntity
  8
Layer_1
 62
7
100
AcDbLine
 10
0.778494
 20
9.157178
 30
0.0
 11
0.000004
 21
9.000009
 31
0.0
  0
LINE
  5
1e4
100
AcDbEntity
  8
Layer_1
 62
7
100
AcDbLine
 10
0.000004
 20
9.000009
 30
0.0
 11
-0.778487
 21
9.157178
 31
0.0
  0
LINE
  5
1e5
100
AcDbEntity
  8
Layer_1
 62
7
100
AcDbLine
 10
-0.778487
 20
9.157178
 30
0.0
 11
-1.414210
 21
9.585795
 31
0.0
  0
LINE
  5
1e6
100
AcDbEntity
  8
Layer_1
 62
7
100
AcDbLine
 10
-1.414210
 20
9.585795
 30
0.0
 11
-1.842826
 21
10.221520
 31
0.0
  0
LINE
  5
1e7
100
AcDbEntity
  8
Layer_1
 62
7
100
AcDbLine
 10
-1.842826
 20
10.221520
 30
0.0
 11
-1.999996
 21
11.000010
 31
0.0
  0
LINE
  5
1e8
100
AcDbEntity
  8
Layer_1
 62
7
100
AcDbLine
 10
-1.999996
 20
11.000010
 30
0.0
 11
-1.842826
 21
11.778501
 31
0.0
  0
LINE
  5
1e9
100
AcDbEntity
  8
Layer_1
 62
7
100
AcDbLine
 10
-1.842826
 20
11.778501
 30
0.0
 11
-1.414210
 21
12.414223
 31
0.0
  0
LINE
  5
1ea
100
AcDbEntity
  8
Layer_1
 62
7
100
AcDbLine
 10
-1.414210
 20
12.414223
 30
0.0
 11
-0.778487
 21
12.842840
 31
0.0
  0
LINE
  5
1eb
100
AcDbEntity
  8
Layer_1
 62
7
100
AcDbLine
 10
-0.778487
 20
12.842840
 30
0.0
 11
0.000004
 21
13.000009
 31
0.0
  0
LINE
  5
1ec
100
AcDbEntity
  8
Layer_1
 62
7
100
AcDbLine
 10
0.000004
 20
13.000009
 30
0.0
 11
0.778494
 21
12.842840
 31
0.0
  0
LINE
  5
1ed
100
AcDbEntity
  8
Layer_1
 62
7
100
AcDbLine
 10
0.778494
 20
12.842840
 30
0.0
 11
1.414217
 21
12.414223
 31
0.0
  0
LINE
  5
1ee
100
AcDbEntity
  8
Layer_1
 62
7
100
AcDbLine
 10
1.414217
 20
12.414223
 30
0.0
 11
1.842834
 21
11.778501
 31
0.0
  0
LINE
  5
1ef
100
AcDbEntity
  8
Layer_1
 62
7
100
AcDbLine
 10
1.842834
 20
11.778501
 30
0.0
 11
2.000004
 21
11.000010
 31
0.0
  0
LINE
  5
1f0
100
AcDbEntity
  8
Layer_1
 62
7
100
AcDbLine
 10
12.000004
 20
11.000027
 30
0.0
 11
11.842834
 21
10.221537
 31
0.0
  0
LINE
  5
1f1
100
AcDbEntity
  8
Layer_1
 62
7
100
AcDbLine
 10
11.842834
 20
10.221537
 30
0.0
 11
11.414217
 21
9.585812
 31
0.0
  0
LINE
  5
1f2
100
AcDbEntity
  8
Layer_1
 62
7
100
AcDbLine
 10
11.414217
 20
9.585812
 30
0.0
 11
10.778494
 21
9.157195
 31
0.0
  0
LINE
  5
1f3
100
AcDbEntity
  8
Layer_1
 62
7
100
AcDbLine
 10
10.778494
 20
9.157195
 30
0.0
 11
10.000004
 21
9.000026
 31
0.0
  0
LINE
  5
1f4
100
AcDbEntity
  8
Layer_1
 62
7
100
AcDbLine
 10
10.000004
 20
9.000026
 30
0.0
 11
9.221513
 21
9.157195
 31
0.0
  0
LINE
  5
1f5
100
AcDbEntity
  8
Layer_1
 62
7
100
AcDbLine
 10
9.221513
 20
9.157195
 30
0.0
 11
8.585790
 21
9.585812
 31
0.0
  0
LINE
  5
1f6
100
AcDbEntity
  8
Layer_1
 62
7
100
AcDbLine
 10
8.585790
 20
9.585812
 30
0.0
 11
8.157174
 21
10.221537
 31
0.0
  0
LINE
  5
1f7
100
AcDbEntity
  8
Layer_1
 62
7
100
AcDbLine
 10
8.157174
 20
10.221537
 30
0.0
 11
8.000004
 21
11.000027
 31
0.0
  0
LINE
  5
1f8
100
AcDbEntity
  8
Layer_1
 62
7
100
AcDbLine
 10
8.000004
 20
11.000027
 30
0.0
 11
8.157174
 21
11.778518
 31
0.0
  0
LINE
  5
1f9
100
AcDbEntity
  8
Layer_1
 62
7
100
AcDbLine
 10
8.157174
 20
11.778518
 30
0.0
 11
8.585790
 21
12.414240
 31
0.0
  0
LINE
  5
1fa
100
AcDbEntity
  8
Layer_1
 62
7
100
AcDbLine
 10
8.585790
 20
12.414240
 30
0.0
 11
9.221513
 21
12.842857
 31
0.0
  0
LINE
  5
1fb
100
AcDbEntity
  8
Layer_1
 62
7
100
AcDbLine
 10
9.221513
 20
12.842857
 30
0.0
 11
10.000004
 21
13.000026
 31
0.0
  0
LINE
  5
1fc
100
AcDbEntity
  8
Layer_1
 62
7
100
AcDbLine
 10
10.000004
 20
13.000026
 30
0.0
 11
10.778494
 21
12.842857
 31
0.0
  0
LINE
  5
1fd
100
AcDbEntity
  8
Layer_1
 62
7
100
AcDbLine
 10
10.778494
 20
12.842857
 30
0.0
 11
11.414217
 21
12.414240
 31
0.0
  0
LINE
  5
1fe
100
AcDbEntity
  8
Layer_1
 62
7
100
AcDbLine
 10
11.414217
 20
12.414240
 30
0.0
 11
11.842834
 21
11.778518
 31
0.0
  0
LINE
  5
1ff
100
AcDbEntity
  8
Layer_1
 62
7
100
AcDbLine
 10
11.842834
 20
11.778518
 30
0.0
 11
12.000004
 21
11.000027
 31
0.0
  0
LINE
  5
200
100
AcDbEntity
  8
Layer_1
 62
7
100
AcDbLine
 10
22.000006
 20
11.000010
 30
0.0
 11
21.842836
 21
10.221520
 31
0.0
  0
LINE
  5
201
100
AcDbEntity
  8
Layer_1
 62
7
100
AcDbLine
 10
21.842836
 20
10.221520
 30
0.0
 11
21.414220
 21
9.585795
 31
0.0
  0
LINE
  5
202
100
AcDbEntity
  8
Layer_1
 62
7
100
AcDbLine
 10
21.414220
 20
9.585795
 30
0.0
 11
20.778496
 21
9.157178
 31
0.0
  0
LINE
  5
203
100
AcDbEntity
  8
Layer_1
 62
7
100
AcDbLine
 10
20.778496
 20
9.157178
 30
0.0
 11
20.000006
 21
9.000009
 31
0.0
  0
LINE
  5
204
100
AcDbEntity
  8
Layer_1
 62
7
100
AcDbLine
 10
20.000006
 20
9.000009
 30
0.0
 11
19.221516
 21
9.157178
 31
0.0
  0
LINE
  5
205
100
AcDbEntity
  8
Layer_1
 62
7
100
AcDbLine
 10
19.221516
 20
9.157178
 30
0.0
 11
18.585792
 21
9.585795
 31
0.0
  0
LINE
  5
206
100
AcDbEntity
  8
Layer_1
 62
7
100
AcDbLine
 10
18.585792
 20
9.585795
 30
0.0
 11
18.157176
 21
10.221520
 31
0.0
  0
LINE
  5
207
100
AcDbEntity
  8
Layer_1
 62
7
100
AcDbLine
 10
18.157176
 20
10.221520
 30
0.0
 11
18.000006
 21
11.000010
 31
0.0
  0
LINE
  5
208
100
AcDbEntity
  8
Layer_1
 62
7
100
AcDbLine
 10
18.000006
 20
11.000010
 30
0.0
 11
18.157176
 21
11.778501
 31
0.0
  0
LINE
  5
209
100
AcDbEntity
  8
Layer_1
 62
7
100
AcDbLine
 10
18.157176
 20
11.778501
 30
0.0
 11
18.585792
 21
12.414223
 31
0.0
  0
LINE
  5
20a
100
AcDbEntity
  8
Layer_1
 62
7
100
AcDbLine
 10
18.585792
 20
12.414223
 30
0.0
 11
19.221516
 21
12.842840
 31
0.0
  0
LINE
  5
20b
100
AcDbEntity
  8
Layer_1
 62
7
100
AcDbLine
 10
19.221516
 20
12.842840
 30
0.0
 11
20.000006
 21
13.000009
 31
0.0
  0
LINE
  5
20c
100
AcDbEntity
  8
Layer_1
 62
7
100
AcDbLine
 10
20.000006
 20
13.000009
 30
0.0
 11
20.778496
 21
12.842840
 31
0.0
  0
LINE
  5
20d
100
AcDbEntity
  8
Layer_1
 62
7
100
AcDbLine
 10
20.778496
 20
12.842840
 30
0.0
 11
21.414220
 21
12.414223
 31
0.0
  0
LINE
  5
20e
100
AcDbEntity
  8
Layer_1
 62
7
100
AcDbLine
 10
21.414220
 20
12.414223
 30
0.0
 11
21.842836
 21
11.778501
 31
0.0
  0
LINE
  5
20f
100
AcDbEntity
  8
Layer_1
 62
7
100
AcDbLine
 10
21.842836
 20
11.778501
 30
0.0
 11
22.000006
 21
11.000010
 31
0.0
  0
LINE
  5
210
100
AcDbEntity
  8
Layer_1
 62
7
100
AcDbLine
 10
32.000010
 20
11.000027
 30
0.0
 11
31.842841
 21
10.221537
 31
0.0
  0
LINE
  5
211
100
AcDbEntity
  8
Layer_1
 62
7
100
AcDbLine
 10
31.842841
 20
10.221537
 30
0.0
 11
31.414224
 21
9.585812
 31
0.0
  0
LINE
  5
212
100
AcDbEntity
  8
Layer_1
 62
7
100
AcDbLine
 10
31.414224
 20
9.585812
 30
0.0
 11
30.778502
 21
9.157195
 31
0.0
  0
LINE
  5
213
100
AcDbEntity
  8
Layer_1
 62
7
100
AcDbLine
 10
30.778502
 20
9.157195
 30
0.0
 11
30.000011
 21
9.000026
 31
0.0
  0
LINE
  5
214
100
AcDbEntity
  8
Layer_1
 62
7
100
AcDbLine
 10
30.000011
 20
9.000026
 30
0.0
 11
29.221521
 21
9.157195
 31
0.0
  0
LINE
  5
215
100
AcDbEntity
  8
Layer_1
 62
7
100
AcDbLine
 10
29.221521
 20
9.157195
 30
0.0
 11
28.585799
 21
9.585812
 31
0.0
  0
LINE
  5
216
100
AcDbEntity
  8
Layer_1
 62
7
100
AcDbLine
 10
28.585799
 20
9.585812
 30
0.0
 11
28.157181
 21
10.221537
 31
0.0
  0
LINE
  5
217
100
AcDbEntity
  8
Layer_1
 62
7
100
AcDbLine
 10
28.157181
 20
10.221537
 30
0.0
 11
28.000011
 21
11.000027
 31
0.0
  0
LINE
  5
218
100
AcDbEntity
  8
Layer_1
 62
7
100
AcDbLine
 10
28.000011
 20
11.000027
 30
0.0
 11
28.157181
 21
11.778518
 31
0.0
  0
LINE
  5
219
100
AcDbEntity
  8
Layer_1
 62
7
100
AcDbLine
 10
28.157181
 20
11.778518
 30
0.0
 11
28.585799
 21
12.414240
 31
0.0
  0
LINE
  5
21a
100
AcDbEntity
  8
Layer_1
 62
7
100
AcDbLine
 10
28.585799
 20
12.414240
 30
0.0
 11
29.221521
 21
12.842857
 31
0.0
  0
LINE
  5
21b
100
AcDbEntity
  8
Layer_1
 62
7
100
AcDbLine
 10
29.221521
 20
12.842857
 30
0.0
 11
30.000011
 21
13.000026
 31
0.0
  0
LINE
  5
21c
100
AcDbEntity
  8
Layer_1
 62
7
100
AcDbLine
 10
30.000011
 20
13.000026
 30
0.0
 11
30.778502
 21
12.842857
 31
0.0
  0
LINE
  5
21d
100
AcDbEntity
  8
Layer_1
 62
7
100
AcDbLine
 10
30.778502
 20
12.842857
 30
0.0
 11
31.414224
 21
12.414240
 31
0.0
  0
LINE
  5
21e
100
AcDbEntity
  8
Layer_1
 62
7
100
AcDbLine
 10
31.414224
 20
12.414240
 30
0.0
 11
31.842841
 21
11.778518
 31
0.0
  0
LINE
  5
21f
100
AcDbEntity
  8
Layer_1
 62
7
100
AcDbLine
 10
31.842841
 20
11.778518
 30
0.0
 11
32.000010
 21
11.000027
 31
0.0
  0
LINE
  5
220
100
AcDbEntity
  8
Layer_1
 62
7
100
AcDbLine
 10
42.000013
 20
11.000010
 30
0.0
 11
41.842843
 21
10.221520
 31
0.0
  0
LINE
  5
221
100
AcDbEntity
  8
Layer_1
 62
7
100
AcDbLine
 10
41.842843
 20
10.221520
 30
0.0
 11
41.414227
 21
9.585795
 31
0.0
  0
LINE
  5
222
100
AcDbEntity
  8
Layer_1
 62
7
100
AcDbLine
 10
41.414227
 20
9.585795
 30
0.0
 11
40.778504
 21
9.157178
 31
0.0
  0
LINE
  5
223
100
AcDbEntity
  8
Layer_1
 62
7
100
AcDbLine
 10
40.778504
 20
9.157178
 30
0.0
 11
40.000014
 21
9.000009
 31
0.0
  0
LINE
  5
224
100
AcDbEntity
  8
Layer_1
 62
7
100
AcDbLine
 10
40.000014
 20
9.000009
 30
0.0
 11
39.221524
 21
9.157178
 31
0.0
  0
LINE
  5
225
100
AcDbEntity
  8
Layer_1
 62
7
100
AcDbLine
 10
39.221524
 20
9.157178
 30
0.0
 11
38.585798
 21
9.585795
 31
0.0
  0
LINE
  5
226
100
AcDbEntity
  8
Layer_1
 62
7
100
AcDbLine
 10
38.585798
 20
9.585795
 30
0.0
 11
38.157182
 21
10.221520
 31
0.0
  0
LINE
  5
227
100
AcDbEntity
  8
Layer_1
 62
7
100
AcDbLine
 10
38.157182
 20
10.221520
 30
0.0
 11
38.000012
 21
11.000010
 31
0.0
  0
LINE
  5
228
100
AcDbEntity
  8
Layer_1
 62
7
100
AcDbLine
 10
38.000012
 20
11.000010
 30
0.0
 11
38.157182
 21
11.778501
 31
0.0
  0
LINE
  5
229
100
AcDbEntity
  8
Layer_1
 62
7
100
AcDbLine
 10
38.157182
 20
11.778501
 30
0.0
 11
38.585798
 21
12.414223
 31
0.0
  0
LINE
  5
22a
100
AcDbEntity
  8
Layer_1
 62
7
100
AcDbLine
 10
38.585798
 20
12.414223
 30
0.0
 11
39.221524
 21
12.842840
 31
0.0
  0
LINE
  5
22b
100
AcDbEntity
  8
Layer_1
 62
7
100
AcDbLine
 10
39.221524
 20
12.842840
 30
0.0
 11
40.000014
 21
13.000009
 31
0.0
  0
LINE
  5
22c
100
AcDbEntity
  8
Layer_1
 62
7
100
AcDbLine
 10
40.000014
 20
13.000009
 30
0.0
 11
40.778504
 21
12.842840
 31
0.0
  0
LINE
  5
22d
100
AcDbEntity
  8
Layer_1
 62
7
100
AcDbLine
 10
40.778504
 20
12.842840
 30
0.0
 11
41.414227
 21
12.414223
 31
0.0
  0
LINE
  5
22e
100
AcDbEntity
  8
Layer_1
 62
7
100
AcDbLine
 10
41.414227
 20
12.414223
 30
0.0
 11
41.842843
 21
11.778501
 31
0.0
  0
LINE
  5
22f
100
AcDbEntity
  8
Layer_1
 62
7
100
AcDbLine
 10
41.842843
 20
11.778501
 30
0.0
 11
42.000013
 21
11.000010
 31
0.0
  0
LINE
  5
230
100
AcDbEntity
  8
Layer_1
 62
7
100
AcDbLine
 10
52.000004
 20
11.000027
 30
0.0
 11
51.842834
 21
10.221537
 31
0.0
  0
LINE
  5
231
100
AcDbEntity
  8
Layer_1
 62
7
100
AcDbLine
 10
51.842834
 20
10.221537
 30
0.0
 11
51.414218
 21
9.585812
 31
0.0
  0
LINE
  5
232
100
AcDbEntity
  8
Layer_1
 62
7
100
AcDbLine
 10
51.414218
 20
9.585812
 30
0.0
 11
50.778495
 21
9.157195
 31
0.0
  0
LINE
  5
233
100
AcDbEntity
  8
Layer_1
 62
7
100
AcDbLine
 10
50.778495
 20
9.157195
 30
0.0
 11
50.000005
 21
9.000026
 31
0.0
  0
LINE
  5
234
100
AcDbEntity
  8
Layer_1
 62
7
100
AcDbLine
 10
50.000005
 20
9.000026
 30
0.0
 11
49.221515
 21
9.157195
 31
0.0
  0
LINE
  5
235
100
AcDbEntity
  8
Layer_1
 62
7
100
AcDbLine
 10
49.221515
 20
9.157195
 30
0.0
 11
48.585792
 21
9.585812
 31
0.0
  0
LINE
  5
236
100
AcDbEntity
  8
Layer_1
 62
7
100
AcDbLine
 10
48.585792
 20
9.585812
 30
0.0
 11
48.157176
 21
10.221537
 31
0.0
  0
LINE
  5
237
100
AcDbEntity
  8
Layer_1
 62
7
100
AcDbLine
 10
48.157176
 20
10.221537
 30
0.0
 11
48.000006
 21
11.000027
 31
0.0
  0
LINE
  5
238
100
AcDbEntity
  8
Layer_1
 62
7
100
AcDbLine
 10
48.000006
 20
11.000027
 30
0.0
 11
48.157176
 21
11.778518
 31
0.0
  0
LINE
  5
239
100
AcDbEntity
  8
Layer_1
 62
7
100
AcDbLine
 10
48.157176
 20
11.778518
 30
0.0
 11
48.585792
 21
12.414240
 31
0.0
  0
LINE
  5
23a
100
AcDbEntity
  8
Layer_1
 62
7
100
AcDbLine
 10
48.585792
 20
12.414240
 30
0.0
 11
49.221515
 21
12.842857
 31
0.0
  0
LINE
  5
23b
100
AcDbEntity
  8
Layer_1
 62
7
100
AcDbLine
 10
49.221515
 20
12.842857
 30
0.0
 11
50.000005
 21
13.000026
 31
0.0
  0
LINE
  5
23c
100
AcDbEntity
  8
Layer_1
 62
7
100
AcDbLine
 10
50.000005
 20
13.000026
 30
0.0
 11
50.778495
 21
12.842857
 31
0.0
  0
LINE
  5
23d
100
AcDbEntity
  8
Layer_1
 62
7
100
AcDbLine
 10
50.778495
 20
12.842857
 30
0.0
 11
51.414218
 21
12.414240
 31
0.0
  0
LINE
  5
23e
100
AcDbEntity
  8
Layer_1
 62
7
100
AcDbLine
 10
51.414218
 20
12.414240
 30
0.0
 11
51.842834
 21
11.778518
 31
0.0
  0
LINE
  5
23f
100
AcDbEntity
  8
Layer_1
 62
7
100
AcDbLine
 10
51.842834
 20
11.778518
 30
0.0
 11
52.000004
 21
11.000027
 31
0.0
  0
ENDSEC
  0
SECTION
  2
OBJECTS
  0
DICTIONARY
  5
C
330
0
100
AcDbDictionary
  3
ACAD_GROUP
350
D
  3
ACAD_MLINESTYLE
350
17
  0
DICTIONARY
  5
D
330
C
100
AcDbDictionary
  0
DICTIONARY
  5
1A
330
C
100
AcDbDictionary
  0
DICTIONARY
  5
17
330
C
100
AcDbDictionary
  3
STANDARD
350
18
  0
DICTIONARY
  5
19
330
C
100
AcDbDictionary
  0
ENDSEC
  0
EOF
