  0
SECTION
  2
HEADER
  9
$ACADVER
  1
AC1014
  9
$HANDSEED
  5
FFFF
  9
$MEASUREMENT
 70
     1
  0
ENDSEC
  0
SECTION
  2
TABLES
  0
TABLE
  2
VPORT
  5
8
330
0
100
AcDbSymbolTable
 70
     4
  0
VPORT
  5
2E
330
8
100
AcDbSymbolTableRecord
100
AcDbViewportTableRecord
  2
*ACTIVE
 70
     0
 10
0.0
 20
0.0
 11
1.0
 21
1.0
 12
210.0
 22
148.5
 13
0.0
 23
0.0
 14
10.0
 24
10.0
 15
10.0
 25
10.0
 16
0.0
 26
0.0
 36
1.0
 17
0.0
 27
0.0
 37
0.0
 40
341.0
 41
1.24
 42
50.0
 43
0.0
 44
0.0
 50
0.0
 51
0.0
 71
     0
 72
   100
 73
     1
 74
     3
 75
     0
 76
     0
 77
     0
 78
     0
  0
ENDTAB
  0
TABLE
  2
LTYPE
  5
5
330
0
100
AcDbSymbolTable
 70
     1
  0
LTYPE
  5
14
330
5
100
AcDbSymbolTableRecord
100
AcDbLinetypeTableRecord
  2
BYBLOCK
 70
     0
  3

 72
    65
 73
     0
 40
0.0
  0
LTYPE
  5
15
330
5
100
AcDbSymbolTableRecord
100
AcDbLinetypeTableRecord
  2
BYLAYER
 70
     0
  3

 72
    65
 73
     0
 40
0.0
  0
LTYPE
  5
16
330
5
100
AcDbSymbolTableRecord
100
AcDbLinetypeTableRecord
  2
CONTINUOUS
 70
     0
  3
Solid line
 72
    65
 73
     0
 40
0.0
  0
ENDTAB
  0
TABLE
  2
LAYER
  5
2
100
AcDbSymbolTable
 70
2
  0
LAYER
  5
50
100
AcDbSymbolTableRecord
100
AcDbLayerTableRecord
  2
0
 70
0
  6
CONTINUOUS
  0
LAYER
  5
51
100
AcDbSymbolTableRecord
100
AcDbLayerTableRecord
  2
Layer_1
 70
0
  6
CONTINUOUS
  0
ENDTAB
  0
TABLE
  2
STYLE
  5
3
330
0
100
AcDbSymbolTable
 70
     1
  0
STYLE
  5
11
330
3
100
AcDbSymbolTableRecord
100
AcDbTextStyleTableRecord
  2
STANDARD
 70
     0
 40
0.0
 41
1.0
 50
0.0
 71
     0
 42
2.5
  3
txt
  4

  0
ENDTAB
  0
TABLE
  2
VIEW
  5
6
330
0
100
AcDbSymbolTable
 70
     0
  0
ENDTAB
  0
TABLE
  2
UCS
  5
7
330
0
100
AcDbSymbolTable
 70
     0
  0
ENDTAB
  0
TABLE
  2
APPID
  5
9
330
0
100
AcDbSymbolTable
 70
     2
  0
APPID
  5
12
330
9
100
AcDbSymbolTableRecord
100
AcDbRegAppTableRecord
  2
ACAD
 70
     0
  0
ENDTAB
  0
TABLE
  2
DIMSTYLE
  5
A
330
0
100
AcDbSymbolTable
 70
     1
  0
DIMSTYLE
105
27
330
A
100
AcDbSymbolTableRecord
100
AcDbDimStyleTableRecord
  2
ISO-25
 70
     0
  3

  4

  5

  6

  7

 40
1.0
 41
2.5
 42
0.625
 43
3.75
 44
1.25
 45
0.0
 46
0.0
 47
0.0
 48
0.0
140
2.5
141
2.5
142
0.0
143
0.03937007874016
144
1.0
145
0.0
146
1.0
147
0.625
 71
     0
 72
     0
 73
     0
 74
     0
 75
     0
 76
     0
 77
     1
 78
     8
170
     0
171
     3
172
     1
173
     0
174
     0
175
     0
176
     0
177
     0
178
     0
270
     2
271
     2
272
     2
273
     2
274
     3
340
11
275
     0
280
     0
281
     0
282
     0
283
     0
284
     8
285
     0
286
     0
287
     3
288
     0
  0
ENDTAB
  0
TABLE
  2
BLOCK_RECORD
  5
1
330
0
100
AcDbSymbolTable
 70
     1
  0
BLOCK_RECORD
  5
1F
330
1
100
AcDbSymbolTableRecord
100
AcDbBlockTableRecord
  2
*MODEL_SPACE
  0
BLOCK_RECORD
  5
1B
330
1
100
AcDbSymbolTableRecord
100
AcDbBlockTableRecord
  2
*PAPER_SPACE
  0
ENDTAB
  0
ENDSEC
  0
SECTION
  2
BLOCKS
  0
BLOCK
  5
20
330
1F
100
AcDbEntity
  8
0
100
AcDbBlockBegin
  2
*MODEL_SPACE
 70
     0
 10
0.0
 20
0.0
 30
0.0
  3
*MODEL_SPACE
  1

  0
ENDBLK
  5
21
330
1F
100
AcDbEntity
  8
0
100
AcDbBlockEnd
  0
BLOCK
  5
1C
330
1B
100
AcDbEntity
 67
     1
  8
0
100
AcDbBlockBegin
  2
*PAPER_SPACE
  1

  0
ENDBLK
  5
1D
330
1B
100
AcDbEntity
 67
     1
  8
0
100
AcDbBlockEnd
  0
ENDSEC
  0
SECTION
  2
ENTITIES
  0
LINE
  5
100
100
AcDbEntity
  8
Layer_1
 62
7
100
AcDbLine
 10
-50.834536
 20
-17.999991
 30
0.0
 11
-25.417268
 21
-17.999991
 31
0.0
  0
LINE
  5
101
100
AcDbEntity
  8
Layer_1
 62
7
100
AcDbLine
 10
-25.417268
 20
-17.999991
 30
0.0
 11
0.000000
 21
-17.999991
 31
0.0
  0
LINE
  5
102
100
AcDbEntity
  8
Layer_1
 62
7
100
AcDbLine
 10
0.000000
 20
-17.999991
 30
0.0
 11
25.417268
 21
-17.999991
 31
0.0
  0
LINE
  5
103
100
AcDbEntity
  8
Layer_1
 62
7
100
AcDbLine
 10
25.417268
 20
-17.999991
 30
0.0
 11
50.834536
 21
-17.999991
 31
0.0
  0
LINE
  5
104
100
AcDbEntity
  8
Layer_1
 62
7
100
AcDbLine
 10
50.834536
 20
-17.999991
 30
0.0
 11
52.068970
 21
-17.752002
 31
0.0
  0
LINE
  5
105
100
AcDbEntity
  8
Layer_1
 62
7
100
AcDbLine
 10
52.068970
 20
-17.752002
 30
0.0
 11
53.074895
 21
-17.074895
 31
0.0
  0
LINE
  5
106
100
AcDbEntity
  8
Layer_1
 62
7
100
AcDbLine
 10
53.074895
 20
-17.074895
 30
0.0
 11
53.752008
 21
-16.068970
 31
0.0
  0
LINE
  5
107
100
AcDbEntity
  8
Layer_1
 62
7
100
AcDbLine
 10
53.752008
 20
-16.068970
 30
0.0
 11
54.000002
 21
-14.834530
 31
0.0
  0
LINE
  5
108
100
AcDbEntity
  8
Layer_1
 62
7
100
AcDbLine
 10
54.000002
 20
-14.834530
 30
0.0
 11
54.000002
 21
-8.167256
 31
0.0
  0
LINE
  5
109
100
AcDbEntity
  8
Layer_1
 62
7
100
AcDbLine
 10
54.000002
 20
-8.167256
 30
0.0
 11
54.000002
 21
-1.500010
 31
0.0
  0
LINE
  5
10a
100
AcDbEntity
  8
Layer_1
 62
7
100
AcDbLine
 10
54.000002
 20
-1.500010
 30
0.0
 11
54.000002
 21
5.167264
 31
0.0
  0
LINE
  5
10b
100
AcDbEntity
  8
Layer_1
 62
7
100
AcDbLine
 10
54.000002
 20
5.167264
 30
0.0
 11
54.000002
 21
11.834539
 31
0.0
  0
LINE
  5
10c
100
AcDbEntity
  8
Layer_1
 62
7
100
AcDbLine
 10
54.000002
 20
11.834539
 30
0.0
 11
53.752008
 21
13.068979
 31
0.0
  0
LINE
  5
10d
100
AcDbEntity
  8
Layer_1
 62
7
100
AcDbLine
 10
53.752008
 20
13.068979
 30
0.0
 11
53.074895
 21
14.074903
 31
0.0
  0
LINE
  5
10e
100
AcDbEntity
  8
Layer_1
 62
7
100
AcDbLine
 10
53.074895
 20
14.074903
 30
0.0
 11
52.068970
 21
14.752011
 31
0.0
  0
LINE
  5
10f
100
AcDbEntity
  8
Layer_1
 62
7
100
AcDbLine
 10
52.068970
 20
14.752011
 30
0.0
 11
50.834536
 21
15.000008
 31
0.0
  0
LINE
  5
110
100
AcDbEntity
  8
Layer_1
 62
7
100
AcDbLine
 10
50.834536
 20
15.000008
 30
0.0
 11
25.417268
 21
15.000008
 31
0.0
  0
LINE
  5
111
100
AcDbEntity
  8
Layer_1
 62
7
100
AcDbLine
 10
25.417268
 20
15.000008
 30
0.0
 11
0.000000
 21
15.000008
 31
0.0
  0
LINE
  5
112
100
AcDbEntity
  8
Layer_1
 62
7
100
AcDbLine
 10
0.000000
 20
15.000008
 30
0.0
 11
-25.417268
 21
15.000008
 31
0.0
  0
LINE
  5
113
100
AcDbEntity
  8
Layer_1
 62
7
100
AcDbLine
 10
-25.417268
 20
15.000008
 30
0.0
 11
-50.834536
 21
15.000008
 31
0.0
  0
LINE
  5
114
100
AcDbEntity
  8
Layer_1
 62
7
100
AcDbLine
 10
-50.834536
 20
15.000008
 30
0.0
 11
-52.068970
 21
14.752011
 31
0.0
  0
LINE
  5
115
100
AcDbEntity
  8
Layer_1
 62
7
100
AcDbLine
 10
-52.068970
 20
14.752011
 30
0.0
 11
-53.074895
 21
14.074903
 31
0.0
  0
LINE
  5
116
100
AcDbEntity
  8
Layer_1
 62
7
100
AcDbLine
 10
-53.074895
 20
14.074903
 30
0.0
 11
-53.752008
 21
13.068979
 31
0.0
  0
LINE
  5
117
100
AcDbEntity
  8
Layer_1
 62
7
100
AcDbLine
 10
-53.752008
 20
13.068979
 30
0.0
 11
-54.000002
 21
11.834539
 31
0.0
  0
LINE
  5
118
100
AcDbEntity
  8
Layer_1
 62
7
100
AcDbLine
 10
-54.000002
 20
11.834539
 30
0.0
 11
-54.000002
 21
5.167264
 31
0.0
  0
LINE
  5
119
100
AcDbEntity
  8
Layer_1
 62
7
100
AcDbLine
 10
-54.000002
 20
5.167264
 30
0.0
 11
-54.000002
 21
-1.500010
 31
0.0
  0
LINE
  5
11a
100
AcDbEntity
  8
Layer_1
 62
7
100
AcDbLine
 10
-54.000002
 20
-1.500010
 30
0.0
 11
-54.000002
 21
-8.167256
 31
0.0
  0
LINE
  5
11b
100
AcDbEntity
  8
Layer_1
 62
7
100
AcDbLine
 10
-54.000002
 20
-8.167256
 30
0.0
 11
-54.000002
 21
-14.834530
 31
0.0
  0
LINE
  5
11c
100
AcDbEntity
  8
Layer_1
 62
7
100
AcDbLine
 10
-54.000002
 20
-14.834530
 30
0.0
 11
-53.752008
 21
-16.068970
 31
0.0
  0
LINE
  5
11d
100
AcDbEntity
  8
Layer_1
 62
7
100
AcDbLine
 10
-53.752008
 20
-16.068970
 30
0.0
 11
-53.074895
 21
-17.074895
 31
0.0
  0
LINE
  5
11e
100
AcDbEntity
  8
Layer_1
 62
7
100
AcDbLine
 10
-53.074895
 20
-17.074895
 30
0.0
 11
-52.068970
 21
-17.752002
 31
0.0
  0
LINE
  5
11f
100
AcDbEntity
  8
Layer_1
 62
7
100
AcDbLine
 10
-52.068970
 20
-17.752002
 30
0.0
 11
-50.834536
 21
-17.999991
 31
0.0
  0
LINE
  5
120
100
AcDbEntity
  8
Layer_1
 62
7
100
AcDbLine
 10
-48.499977
 20
-13.999996
 30
0.0
 11
-48.617855
 21
-14.583863
 31
0.0
  0
LINE
  5
121
100
AcDbEntity
  8
Layer_1
 62
7
100
AcDbLine
 10
-48.617855
 20
-14.583863
 30
0.0
 11
-48.939317
 21
-15.060655
 31
0.0
  0
LINE
  5
122
100
AcDbEntity
  8
Layer_1
 62
7
100
AcDbLine
 10
-48.939317
 20
-15.060655
 30
0.0
 11
-49.416109
 21
-15.382117
 31
0.0
  0
LINE
  5
123
100
AcDbEntity
  8
Layer_1
 62
7
100
AcDbLine
 10
-49.416109
 20
-15.382117
 30
0.0
 11
-49.999976
 21
-15.499996
 31
0.0
  0
LINE
  5
124
100
AcDbEntity
  8
Layer_1
 62
7
100
AcDbLine
 10
-49.999976
 20
-15.499996
 30
0.0
 11
-50.583843
 21
-15.382117
 31
0.0
  0
LINE
  5
125
100
AcDbEntity
  8
Layer_1
 62
7
100
AcDbLine
 10
-50.583843
 20
-15.382117
 30
0.0
 11
-51.060635
 21
-15.060655
 31
0.0
  0
LINE
  5
126
100
AcDbEntity
  8
Layer_1
 62
7
100
AcDbLine
 10
-51.060635
 20
-15.060655
 30
0.0
 11
-51.382098
 21
-14.583863
 31
0.0
  0
LINE
  5
127
100
AcDbEntity
  8
Layer_1
 62
7
100
AcDbLine
 10
-51.382098
 20
-14.583863
 30
0.0
 11
-51.499976
 21
-13.999996
 31
0.0
  0
LINE
  5
128
100
AcDbEntity
  8
Layer_1
 62
7
100
AcDbLine
 10
-51.499976
 20
-13.999996
 30
0.0
 11
-51.382098
 21
-13.416126
 31
0.0
  0
LINE
  5
129
100
AcDbEntity
  8
Layer_1
 62
7
100
AcDbLine
 10
-51.382098
 20
-13.416126
 30
0.0
 11
-51.060635
 21
-12.939334
 31
0.0
  0
LINE
  5
12a
100
AcDbEntity
  8
Layer_1
 62
7
100
AcDbLine
 10
-51.060635
 20
-12.939334
 30
0.0
 11
-50.583843
 21
-12.617872
 31
0.0
  0
LINE
  5
12b
100
AcDbEntity
  8
Layer_1
 62
7
100
AcDbLine
 10
-50.583843
 20
-12.617872
 30
0.0
 11
-49.999976
 21
-12.499996
 31
0.0
  0
LINE
  5
12c
100
AcDbEntity
  8
Layer_1
 62
7
100
AcDbLine
 10
-49.999976
 20
-12.499996
 30
0.0
 11
-49.416109
 21
-12.617872
 31
0.0
  0
LINE
  5
12d
100
AcDbEntity
  8
Layer_1
 62
7
100
AcDbLine
 10
-49.416109
 20
-12.617872
 30
0.0
 11
-48.939317
 21
-12.939334
 31
0.0
  0
LINE
  5
12e
100
AcDbEntity
  8
Layer_1
 62
7
100
AcDbLine
 10
-48.939317
 20
-12.939334
 30
0.0
 11
-48.617855
 21
-13.416126
 31
0.0
  0
LINE
  5
12f
100
AcDbEntity
  8
Layer_1
 62
7
100
AcDbLine
 10
-48.617855
 20
-13.416126
 30
0.0
 11
-48.499977
 21
-13.999996
 31
0.0
  0
LINE
  5
130
100
AcDbEntity
  8
Layer_1
 62
7
100
AcDbLine
 10
-36.489147
 20
-5.920044
 30
0.0
 11
-36.442163
 21
-6.513838
 31
0.0
  0
LINE
  5
131
100
AcDbEntity
  8
Layer_1
 62
7
100
AcDbLine
 10
-36.442163
 20
-6.513838
 30
0.0
 11
-36.180220
 21
-7.025750
 31
0.0
  0
LINE
  5
132
100
AcDbEntity
  8
Layer_1
 62
7
100
AcDbLine
 10
-36.180220
 20
-7.025750
 30
0.0
 11
-35.745434
 21
-7.402089
 31
0.0
  0
LINE
  5
133
100
AcDbEntity
  8
Layer_1
 62
7
100
AcDbLine
 10
-35.745434
 20
-7.402089
 30
0.0
 11
-35.179923
 21
-7.589156
 31
0.0
  0
LINE
  5
134
100
AcDbEntity
  8
Layer_1
 62
7
100
AcDbLine
 10
-35.179923
 20
-7.589156
 30
0.0
 11
-34.586131
 21
-7.542173
 31
0.0
  0
LINE
  5
135
100
AcDbEntity
  8
Layer_1
 62
7
100
AcDbLine
 10
-34.586131
 20
-7.542173
 30
0.0
 11
-34.074219
 21
-7.280230
 31
0.0
  0
LINE
  5
136
100
AcDbEntity
  8
Layer_1
 62
7
100
AcDbLine
 10
-34.074219
 20
-7.280230
 30
0.0
 11
-33.697880
 21
-6.845445
 31
0.0
  0
LINE
  5
137
100
AcDbEntity
  8
Layer_1
 62
7
100
AcDbLine
 10
-33.697880
 20
-6.845445
 30
0.0
 11
-33.510812
 21
-6.279932
 31
0.0
  0
LINE
  5
138
100
AcDbEntity
  8
Layer_1
 62
7
100
AcDbLine
 10
-33.510812
 20
-6.279932
 30
0.0
 11
-33.557795
 21
-5.686141
 31
0.0
  0
LINE
  5
139
100
AcDbEntity
  8
Layer_1
 62
7
100
AcDbLine
 10
-33.557795
 20
-5.686141
 30
0.0
 11
-33.819739
 21
-5.174229
 31
0.0
  0
LINE
  5
13a
100
AcDbEntity
  8
Layer_1
 62
7
100
AcDbLine
 10
-33.819739
 20
-5.174229
 30
0.0
 11
-34.254525
 21
-4.797890
 31
0.0
  0
LINE
  5
13b
100
AcDbEntity
  8
Layer_1
 62
7
100
AcDbLine
 10
-34.254525
 20
-4.797890
 30
0.0
 11
-34.820035
 21
-4.610821
 31
0.0
  0
LINE
  5
13c
100
AcDbEntity
  8
Layer_1
 62
7
100
AcDbLine
 10
-34.820035
 20
-4.610821
 30
0.0
 11
-35.413827
 21
-4.657806
 31
0.0
  0
LINE
  5
13d
100
AcDbEntity
  8
Layer_1
 62
7
100
AcDbLine
 10
-35.413827
 20
-4.657806
 30
0.0
 11
-35.925740
 21
-4.919749
 31
0.0
  0
LINE
  5
13e
100
AcDbEntity
  8
Layer_1
 62
7
100
AcDbLine
 10
-35.925740
 20
-4.919749
 30
0.0
 11
-36.302078
 21
-5.354534
 31
0.0
  0
LINE
  5
13f
100
AcDbEntity
  8
Layer_1
 62
7
100
AcDbLine
 10
-36.302078
 20
-5.354534
 30
0.0
 11
-36.489147
 21
-5.920044
 31
0.0
  0
LINE
  5
140
100
AcDbEntity
  8
Layer_1
 62
7
100
AcDbLine
 10
33.510853
 20
-5.920055
 30
0.0
 11
33.557838
 21
-6.513846
 31
0.0
  0
LINE
  5
141
100
AcDbEntity
  8
Layer_1
 62
7
100
AcDbLine
 10
33.557838
 20
-6.513846
 30
0.0
 11
33.819782
 21
-7.025758
 31
0.0
  0
LINE
  5
142
100
AcDbEntity
  8
Layer_1
 62
7
100
AcDbLine
 10
33.819782
 20
-7.025758
 30
0.0
 11
34.254567
 21
-7.402097
 31
0.0
  0
LINE
  5
143
100
AcDbEntity
  8
Layer_1
 62
7
100
AcDbLine
 10
34.254567
 20
-7.402097
 30
0.0
 11
34.820076
 21
-7.589166
 31
0.0
  0
LINE
  5
144
100
AcDbEntity
  8
Layer_1
 62
7
100
AcDbLine
 10
34.820076
 20
-7.589166
 30
0.0
 11
35.413868
 21
-7.542181
 31
0.0
  0
LINE
  5
145
100
AcDbEntity
  8
Layer_1
 62
7
100
AcDbLine
 10
35.413868
 20
-7.542181
 30
0.0
 11
35.925780
 21
-7.280238
 31
0.0
  0
LINE
  5
146
100
AcDbEntity
  8
Layer_1
 62
7
100
AcDbLine
 10
35.925780
 20
-7.280238
 30
0.0
 11
36.302118
 21
-6.845452
 31
0.0
  0
LINE
  5
147
100
AcDbEntity
  8
Layer_1
 62
7
100
AcDbLine
 10
36.302118
 20
-6.845452
 30
0.0
 11
36.489188
 21
-6.279943
 31
0.0
  0
LINE
  5
148
100
AcDbEntity
  8
Layer_1
 62
7
100
AcDbLine
 10
36.489188
 20
-6.279943
 30
0.0
 11
36.442203
 21
-5.686151
 31
0.0
  0
LINE
  5
149
100
AcDbEntity
  8
Layer_1
 62
7
100
AcDbLine
 10
36.442203
 20
-5.686151
 30
0.0
 11
36.180259
 21
-5.174239
 31
0.0
  0
LINE
  5
14a
100
AcDbEntity
  8
Layer_1
 62
7
100
AcDbLine
 10
36.180259
 20
-5.174239
 30
0.0
 11
35.745474
 21
-4.797901
 31
0.0
  0
LINE
  5
14b
100
AcDbEntity
  8
Layer_1
 62
7
100
AcDbLine
 10
35.745474
 20
-4.797901
 30
0.0
 11
35.179965
 21
-4.610831
 31
0.0
  0
LINE
  5
14c
100
AcDbEntity
  8
Layer_1
 62
7
100
AcDbLine
 10
35.179965
 20
-4.610831
 30
0.0
 11
34.586173
 21
-4.657816
 31
0.0
  0
LINE
  5
14d
100
AcDbEntity
  8
Layer_1
 62
7
100
AcDbLine
 10
34.586173
 20
-4.657816
 30
0.0
 11
34.074261
 21
-4.919760
 31
0.0
  0
LINE
  5
14e
100
AcDbEntity
  8
Layer_1
 62
7
100
AcDbLine
 10
34.074261
 20
-4.919760
 30
0.0
 11
33.697923
 21
-5.354545
 31
0.0
  0
LINE
  5
14f
100
AcDbEntity
  8
Layer_1
 62
7
100
AcDbLine
 10
33.697923
 20
-5.354545
 30
0.0
 11
33.510853
 21
-5.920055
 31
0.0
  0
LINE
  5
150
100
AcDbEntity
  8
Layer_1
 62
7
100
AcDbLine
 10
-11.227995
 20
-5.864952
 30
0.0
 11
-11.212893
 21
-6.261762
 31
0.0
  0
LINE
  5
151
100
AcDbEntity
  8
Layer_1
 62
7
100
AcDbLine
 10
-11.212893
 20
-6.261762
 30
0.0
 11
-11.346489
 21
-6.621092
 31
0.0
  0
LINE
  5
152
100
AcDbEntity
  8
Layer_1
 62
7
100
AcDbLine
 10
-11.346489
 20
-6.621092
 30
0.0
 11
-11.605077
 21
-6.904105
 31
0.0
  0
LINE
  5
153
100
AcDbEntity
  8
Layer_1
 62
7
100
AcDbLine
 10
-11.605077
 20
-6.904105
 30
0.0
 11
-11.964947
 21
-7.071973
 31
0.0
  0
LINE
  5
154
100
AcDbEntity
  8
Layer_1
 62
7
100
AcDbLine
 10
-11.964947
 20
-7.071973
 30
0.0
 11
-12.361759
 21
-7.087076
 31
0.0
  0
LINE
  5
155
100
AcDbEntity
  8
Layer_1
 62
7
100
AcDbLine
 10
-12.361759
 20
-7.087076
 30
0.0
 11
-12.721086
 21
-6.953479
 31
0.0
  0
LINE
  5
156
100
AcDbEntity
  8
Layer_1
 62
7
100
AcDbLine
 10
-12.721086
 20
-6.953479
 30
0.0
 11
-13.004100
 21
-6.694889
 31
0.0
  0
LINE
  5
157
100
AcDbEntity
  8
Layer_1
 62
7
100
AcDbLine
 10
-13.004100
 20
-6.694889
 30
0.0
 11
-13.171968
 21
-6.335019
 31
0.0
  0
LINE
  5
158
100
AcDbEntity
  8
Layer_1
 62
7
100
AcDbLine
 10
-13.171968
 20
-6.335019
 30
0.0
 11
-13.187071
 21
-5.938206
 31
0.0
  0
LINE
  5
159
100
AcDbEntity
  8
Layer_1
 62
7
100
AcDbLine
 10
-13.187071
 20
-5.938206
 30
0.0
 11
-13.053474
 21
-5.578879
 31
0.0
  0
LINE
  5
15a
100
AcDbEntity
  8
Layer_1
 62
7
100
AcDbLine
 10
-13.053474
 20
-5.578879
 30
0.0
 11
-12.794886
 21
-5.295866
 31
0.0
  0
LINE
  5
15b
100
AcDbEntity
  8
Layer_1
 62
7
100
AcDbLine
 10
-12.794886
 20
-5.295866
 30
0.0
 11
-12.435014
 21
-5.127997
 31
0.0
  0
LINE
  5
15c
100
AcDbEntity
  8
Layer_1
 62
7
100
AcDbLine
 10
-12.435014
 20
-5.127997
 30
0.0
 11
-12.038204
 21
-5.112895
 31
0.0
  0
LINE
  5
15d
100
AcDbEntity
  8
Layer_1
 62
7
100
AcDbLine
 10
-12.038204
 20
-5.112895
 30
0.0
 11
-11.678877
 21
-5.246492
 31
0.0
  0
LINE
  5
15e
100
AcDbEntity
  8
Layer_1
 62
7
100
AcDbLine
 10
-11.678877
 20
-5.246492
 30
0.0
 11
-11.395864
 21
-5.505080
 31
0.0
  0
LINE
  5
15f
100
AcDbEntity
  8
Layer_1
 62
7
100
AcDbLine
 10
-11.395864
 20
-5.505080
 30
0.0
 11
-11.227995
 21
-5.864952
 31
0.0
  0
LINE
  5
160
100
AcDbEntity
  8
Layer_1
 62
7
100
AcDbLine
 10
-22.627995
 20
2.435046
 30
0.0
 11
-22.612893
 21
2.038234
 31
0.0
  0
LINE
  5
161
100
AcDbEntity
  8
Layer_1
 62
7
100
AcDbLine
 10
-22.612893
 20
2.038234
 30
0.0
 11
-22.746490
 21
1.678907
 31
0.0
  0
LINE
  5
162
100
AcDbEntity
  8
Layer_1
 62
7
100
AcDbLine
 10
-22.746490
 20
1.678907
 30
0.0
 11
-23.005080
 21
1.395894
 31
0.0
  0
LINE
  5
163
100
AcDbEntity
  8
Layer_1
 62
7
100
AcDbLine
 10
-23.005080
 20
1.395894
 30
0.0
 11
-23.364950
 21
1.228025
 31
0.0
  0
LINE
  5
164
100
AcDbEntity
  8
Layer_1
 62
7
100
AcDbLine
 10
-23.364950
 20
1.228025
 30
0.0
 11
-23.761762
 21
1.212922
 31
0.0
  0
LINE
  5
165
100
AcDbEntity
  8
Layer_1
 62
7
100
AcDbLine
 10
-23.761762
 20
1.212922
 30
0.0
 11
-24.121089
 21
1.346519
 31
0.0
  0
LINE
  5
166
100
AcDbEntity
  8
Layer_1
 62
7
100
AcDbLine
 10
-24.121089
 20
1.346519
 30
0.0
 11
-24.404102
 21
1.605107
 31
0.0
  0
LINE
  5
167
100
AcDbEntity
  8
Layer_1
 62
7
100
AcDbLine
 10
-24.404102
 20
1.605107
 30
0.0
 11
-24.571971
 21
1.964980
 31
0.0
  0
LINE
  5
168
100
AcDbEntity
  8
Layer_1
 62
7
100
AcDbLine
 10
-24.571971
 20
1.964980
 30
0.0
 11
-24.587073
 21
2.361790
 31
0.0
  0
LINE
  5
169
100
AcDbEntity
  8
Layer_1
 62
7
100
AcDbLine
 10
-24.587073
 20
2.361790
 30
0.0
 11
-24.453477
 21
2.721119
 31
0.0
  0
LINE
  5
16a
100
AcDbEntity
  8
Layer_1
 62
7
100
AcDbLine
 10
-24.453477
 20
2.721119
 30
0.0
 11
-24.194889
 21
3.004132
 31
0.0
  0
LINE
  5
16b
100
AcDbEntity
  8
Layer_1
 62
7
100
AcDbLine
 10
-24.194889
 20
3.004132
 30
0.0
 11
-23.835017
 21
3.172001
 31
0.0
  0
LINE
  5
16c
100
AcDbEntity
  8
Layer_1
 62
7
100
AcDbLine
 10
-23.835017
 20
3.172001
 30
0.0
 11
-23.438207
 21
3.187103
 31
0.0
  0
LINE
  5
16d
100
AcDbEntity
  8
Layer_1
 62
7
100
AcDbLine
 10
-23.438207
 20
3.187103
 30
0.0
 11
-23.078877
 21
3.053507
 31
0.0
  0
LINE
  5
16e
100
AcDbEntity
  8
Layer_1
 62
7
100
AcDbLine
 10
-23.078877
 20
3.053507
 30
0.0
 11
-22.795864
 21
2.794916
 31
0.0
  0
LINE
  5
16f
100
AcDbEntity
  8
Layer_1
 62
7
100
AcDbLine
 10
-22.795864
 20
2.794916
 30
0.0
 11
-22.627995
 21
2.435046
 31
0.0
  0
LINE
  5
170
100
AcDbEntity
  8
Layer_1
 62
7
100
AcDbLine
 10
1.500020
 20
-13.999999
 30
0.0
 11
1.382142
 21
-14.583866
 31
0.0
  0
LINE
  5
171
100
AcDbEntity
  8
Layer_1
 62
7
100
AcDbLine
 10
1.382142
 20
-14.583866
 30
0.0
 11
1.060680
 21
-15.060658
 31
0.0
  0
LINE
  5
172
100
AcDbEntity
  8
Layer_1
 62
7
100
AcDbLine
 10
1.060680
 20
-15.060658
 30
0.0
 11
0.583887
 21
-15.382120
 31
0.0
  0
LINE
  5
173
100
AcDbEntity
  8
Layer_1
 62
7
100
AcDbLine
 10
0.583887
 20
-15.382120
 30
0.0
 11
0.000020
 21
-15.499999
 31
0.0
  0
LINE
  5
174
100
AcDbEntity
  8
Layer_1
 62
7
100
AcDbLine
 10
0.000020
 20
-15.499999
 30
0.0
 11
-0.583848
 21
-15.382120
 31
0.0
  0
LINE
  5
175
100
AcDbEntity
  8
Layer_1
 62
7
100
AcDbLine
 10
-0.583848
 20
-15.382120
 30
0.0
 11
-1.060641
 21
-15.060658
 31
0.0
  0
LINE
  5
176
100
AcDbEntity
  8
Layer_1
 62
7
100
AcDbLine
 10
-1.060641
 20
-15.060658
 30
0.0
 11
-1.382103
 21
-14.583866
 31
0.0
  0
LINE
  5
177
100
AcDbEntity
  8
Layer_1
 62
7
100
AcDbLine
 10
-1.382103
 20
-14.583866
 30
0.0
 11
-1.499980
 21
-13.999999
 31
0.0
  0
LINE
  5
178
100
AcDbEntity
  8
Layer_1
 62
7
100
AcDbLine
 10
-1.499980
 20
-13.999999
 30
0.0
 11
-1.382103
 21
-13.416129
 31
0.0
  0
LINE
  5
179
100
AcDbEntity
  8
Layer_1
 62
7
100
AcDbLine
 10
-1.382103
 20
-13.416129
 30
0.0
 11
-1.060641
 21
-12.939337
 31
0.0
  0
LINE
  5
17a
100
AcDbEntity
  8
Layer_1
 62
7
100
AcDbLine
 10
-1.060641
 20
-12.939337
 30
0.0
 11
-0.583848
 21
-12.617875
 31
0.0
  0
LINE
  5
17b
100
AcDbEntity
  8
Layer_1
 62
7
100
AcDbLine
 10
-0.583848
 20
-12.617875
 30
0.0
 11
0.000020
 21
-12.499999
 31
0.0
  0
LINE
  5
17c
100
AcDbEntity
  8
Layer_1
 62
7
100
AcDbLine
 10
0.000020
 20
-12.499999
 30
0.0
 11
0.583887
 21
-12.617875
 31
0.0
  0
LINE
  5
17d
100
AcDbEntity
  8
Layer_1
 62
7
100
AcDbLine
 10
0.583887
 20
-12.617875
 30
0.0
 11
1.060680
 21
-12.939337
 31
0.0
  0
LINE
  5
17e
100
AcDbEntity
  8
Layer_1
 62
7
100
AcDbLine
 10
1.060680
 20
-12.939337
 30
0.0
 11
1.382142
 21
-13.416129
 31
0.0
  0
LINE
  5
17f
100
AcDbEntity
  8
Layer_1
 62
7
100
AcDbLine
 10
1.382142
 20
-13.416129
 30
0.0
 11
1.500020
 21
-13.999999
 31
0.0
  0
LINE
  5
180
100
AcDbEntity
  8
Layer_1
 62
7
100
AcDbLine
 10
-48.499977
 20
2.200008
 30
0.0
 11
-48.617855
 21
1.616138
 31
0.0
  0
LINE
  5
181
100
AcDbEntity
  8
Layer_1
 62
7
100
AcDbLine
 10
-48.617855
 20
1.616138
 30
0.0
 11
-48.939317
 21
1.139347
 31
0.0
  0
LINE
  5
182
100
AcDbEntity
  8
Layer_1
 62
7
100
AcDbLine
 10
-48.939317
 20
1.139347
 30
0.0
 11
-49.416109
 21
0.817884
 31
0.0
  0
LINE
  5
183
100
AcDbEntity
  8
Layer_1
 62
7
100
AcDbLine
 10
-49.416109
 20
0.817884
 30
0.0
 11
-49.999976
 21
0.700008
 31
0.0
  0
LINE
  5
184
100
AcDbEntity
  8
Layer_1
 62
7
100
AcDbLine
 10
-49.999976
 20
0.700008
 30
0.0
 11
-50.583843
 21
0.817884
 31
0.0
  0
LINE
  5
185
100
AcDbEntity
  8
Layer_1
 62
7
100
AcDbLine
 10
-50.583843
 20
0.817884
 30
0.0
 11
-51.060635
 21
1.139347
 31
0.0
  0
LINE
  5
186
100
AcDbEntity
  8
Layer_1
 62
7
100
AcDbLine
 10
-51.060635
 20
1.139347
 30
0.0
 11
-51.382098
 21
1.616138
 31
0.0
  0
LINE
  5
187
100
AcDbEntity
  8
Layer_1
 62
7
100
AcDbLine
 10
-51.382098
 20
1.616138
 30
0.0
 11
-51.499976
 21
2.200008
 31
0.0
  0
LINE
  5
188
100
AcDbEntity
  8
Layer_1
 62
7
100
AcDbLine
 10
-51.499976
 20
2.200008
 30
0.0
 11
-51.382098
 21
2.783875
 31
0.0
  0
LINE
  5
189
100
AcDbEntity
  8
Layer_1
 62
7
100
AcDbLine
 10
-51.382098
 20
2.783875
 30
0.0
 11
-51.060635
 21
3.260667
 31
0.0
  0
LINE
  5
18a
100
AcDbEntity
  8
Layer_1
 62
7
100
AcDbLine
 10
-51.060635
 20
3.260667
 30
0.0
 11
-50.583843
 21
3.582129
 31
0.0
  0
LINE
  5
18b
100
AcDbEntity
  8
Layer_1
 62
7
100
AcDbLine
 10
-50.583843
 20
3.582129
 30
0.0
 11
-49.999976
 21
3.700008
 31
0.0
  0
LINE
  5
18c
100
AcDbEntity
  8
Layer_1
 62
7
100
AcDbLine
 10
-49.999976
 20
3.700008
 30
0.0
 11
-49.416109
 21
3.582129
 31
0.0
  0
LINE
  5
18d
100
AcDbEntity
  8
Layer_1
 62
7
100
AcDbLine
 10
-49.416109
 20
3.582129
 30
0.0
 11
-48.939317
 21
3.260667
 31
0.0
  0
LINE
  5
18e
100
AcDbEntity
  8
Layer_1
 62
7
100
AcDbLine
 10
-48.939317
 20
3.260667
 30
0.0
 11
-48.617855
 21
2.783875
 31
0.0
  0
LINE
  5
18f
100
AcDbEntity
  8
Layer_1
 62
7
100
AcDbLine
 10
-48.617855
 20
2.783875
 30
0.0
 11
-48.499977
 21
2.200008
 31
0.0
  0
LINE
  5
190
100
AcDbEntity
  8
Layer_1
 62
7
100
AcDbLine
 10
48.500016
 20
-13.999996
 30
0.0
 11
48.617894
 21
-14.583863
 31
0.0
  0
LINE
  5
191
100
AcDbEntity
  8
Layer_1
 62
7
100
AcDbLine
 10
48.617894
 20
-14.583863
 30
0.0
 11
48.939357
 21
-15.060655
 31
0.0
  0
LINE
  5
192
100
AcDbEntity
  8
Layer_1
 62
7
100
AcDbLine
 10
48.939357
 20
-15.060655
 30
0.0
 11
49.416149
 21
-15.382117
 31
0.0
  0
LINE
  5
193
100
AcDbEntity
  8
Layer_1
 62
7
100
AcDbLine
 10
49.416149
 20
-15.382117
 30
0.0
 11
50.000016
 21
-15.499996
 31
0.0
  0
LINE
  5
194
100
AcDbEntity
  8
Layer_1
 62
7
100
AcDbLine
 10
50.000016
 20
-15.499996
 30
0.0
 11
50.583883
 21
-15.382117
 31
0.0
  0
LINE
  5
195
100
AcDbEntity
  8
Layer_1
 62
7
100
AcDbLine
 10
50.583883
 20
-15.382117
 30
0.0
 11
51.060674
 21
-15.060655
 31
0.0
  0
LINE
  5
196
100
AcDbEntity
  8
Layer_1
 62
7
100
AcDbLine
 10
51.060674
 20
-15.060655
 30
0.0
 11
51.382137
 21
-14.583863
 31
0.0
  0
LINE
  5
197
100
AcDbEntity
  8
Layer_1
 62
7
100
AcDbLine
 10
51.382137
 20
-14.583863
 30
0.0
 11
51.500015
 21
-13.999996
 31
0.0
  0
LINE
  5
198
100
AcDbEntity
  8
Layer_1
 62
7
100
AcDbLine
 10
51.500015
 20
-13.999996
 30
0.0
 11
51.382137
 21
-13.416126
 31
0.0
  0
LINE
  5
199
100
AcDbEntity
  8
Layer_1
 62
7
100
AcDbLine
 10
51.382137
 20
-13.416126
 30
0.0
 11
51.060674
 21
-12.939334
 31
0.0
  0
LINE
  5
19a
100
AcDbEntity
  8
Layer_1
 62
7
100
AcDbLine
 10
51.060674
 20
-12.939334
 30
0.0
 11
50.583883
 21
-12.617872
 31
0.0
  0
LINE
  5
19b
100
AcDbEntity
  8
Layer_1
 62
7
100
AcDbLine
 10
50.583883
 20
-12.617872
 30
0.0
 11
50.000016
 21
-12.499996
 31
0.0
  0
LINE
  5
19c
100
AcDbEntity
  8
Layer_1
 62
7
100
AcDbLine
 10
50.000016
 20
-12.499996
 30
0.0
 11
49.416149
 21
-12.617872
 31
0.0
  0
LINE
  5
19d
100
AcDbEntity
  8
Layer_1
 62
7
100
AcDbLine
 10
49.416149
 20
-12.617872
 30
0.0
 11
48.939357
 21
-12.939334
 31
0.0
  0
LINE
  5
19e
100
AcDbEntity
  8
Layer_1
 62
7
100
AcDbLine
 10
48.939357
 20
-12.939334
 30
0.0
 11
48.617894
 21
-13.416126
 31
0.0
  0
LINE
  5
19f
100
AcDbEntity
  8
Layer_1
 62
7
100
AcDbLine
 10
48.617894
 20
-13.416126
 30
0.0
 11
48.500016
 21
-13.999996
 31
0.0
  0
LINE
  5
1a0
100
AcDbEntity
  8
Layer_1
 62
7
100
AcDbLine
 10
11.228034
 20
-5.864952
 30
0.0
 11
11.212932
 21
-6.261762
 31
0.0
  0
LINE
  5
1a1
100
AcDbEntity
  8
Layer_1
 62
7
100
AcDbLine
 10
11.212932
 20
-6.261762
 30
0.0
 11
11.346528
 21
-6.621092
 31
0.0
  0
LINE
  5
1a2
100
AcDbEntity
  8
Layer_1
 62
7
100
AcDbLine
 10
11.346528
 20
-6.621092
 30
0.0
 11
11.605116
 21
-6.904105
 31
0.0
  0
LINE
  5
1a3
100
AcDbEntity
  8
Layer_1
 62
7
100
AcDbLine
 10
11.605116
 20
-6.904105
 30
0.0
 11
11.964986
 21
-7.071973
 31
0.0
  0
LINE
  5
1a4
100
AcDbEntity
  8
Layer_1
 62
7
100
AcDbLine
 10
11.964986
 20
-7.071973
 30
0.0
 11
12.361799
 21
-7.087076
 31
0.0
  0
LINE
  5
1a5
100
AcDbEntity
  8
Layer_1
 62
7
100
AcDbLine
 10
12.361799
 20
-7.087076
 30
0.0
 11
12.721125
 21
-6.953479
 31
0.0
  0
LINE
  5
1a6
100
AcDbEntity
  8
Layer_1
 62
7
100
AcDbLine
 10
12.721125
 20
-6.953479
 30
0.0
 11
13.004139
 21
-6.694889
 31
0.0
  0
LINE
  5
1a7
100
AcDbEntity
  8
Layer_1
 62
7
100
AcDbLine
 10
13.004139
 20
-6.694889
 30
0.0
 11
13.172007
 21
-6.335019
 31
0.0
  0
LINE
  5
1a8
100
AcDbEntity
  8
Layer_1
 62
7
100
AcDbLine
 10
13.172007
 20
-6.335019
 30
0.0
 11
13.187110
 21
-5.938206
 31
0.0
  0
LINE
  5
1a9
100
AcDbEntity
  8
Layer_1
 62
7
100
AcDbLine
 10
13.187110
 20
-5.938206
 30
0.0
 11
13.053513
 21
-5.578879
 31
0.0
  0
LINE
  5
1aa
100
AcDbEntity
  8
Layer_1
 62
7
100
AcDbLine
 10
13.053513
 20
-5.578879
 30
0.0
 11
12.794925
 21
-5.295866
 31
0.0
  0
LINE
  5
1ab
100
AcDbEntity
  8
Layer_1
 62
7
100
AcDbLine
 10
12.794925
 20
-5.295866
 30
0.0
 11
12.435053
 21
-5.127997
 31
0.0
  0
LINE
  5
1ac
100
AcDbEntity
  8
Layer_1
 62
7
100
AcDbLine
 10
12.435053
 20
-5.127997
 30
0.0
 11
12.038243
 21
-5.112895
 31
0.0
  0
LINE
  5
1ad
100
AcDbEntity
  8
Layer_1
 62
7
100
AcDbLine
 10
12.038243
 20
-5.112895
 30
0.0
 11
11.678916
 21
-5.246492
 31
0.0
  0
LINE
  5
1ae
100
AcDbEntity
  8
Layer_1
 62
7
100
AcDbLine
 10
11.678916
 20
-5.246492
 30
0.0
 11
11.395903
 21
-5.505080
 31
0.0
  0
LINE
  5
1af
100
AcDbEntity
  8
Layer_1
 62
7
100
AcDbLine
 10
11.395903
 20
-5.505080
 30
0.0
 11
11.228034
 21
-5.864952
 31
0.0
  0
LINE
  5
1b0
100
AcDbEntity
  8
Layer_1
 62
7
100
AcDbLine
 10
22.628034
 20
2.435046
 30
0.0
 11
22.612932
 21
2.038234
 31
0.0
  0
LINE
  5
1b1
100
AcDbEntity
  8
Layer_1
 62
7
100
AcDbLine
 10
22.612932
 20
2.038234
 30
0.0
 11
22.746529
 21
1.678907
 31
0.0
  0
LINE
  5
1b2
100
AcDbEntity
  8
Layer_1
 62
7
100
AcDbLine
 10
22.746529
 20
1.678907
 30
0.0
 11
23.005119
 21
1.395894
 31
0.0
  0
LINE
  5
1b3
100
AcDbEntity
  8
Layer_1
 62
7
100
AcDbLine
 10
23.005119
 20
1.395894
 30
0.0
 11
23.364989
 21
1.228025
 31
0.0
  0
LINE
  5
1b4
100
AcDbEntity
  8
Layer_1
 62
7
100
AcDbLine
 10
23.364989
 20
1.228025
 30
0.0
 11
23.761802
 21
1.212922
 31
0.0
  0
LINE
  5
1b5
100
AcDbEntity
  8
Layer_1
 62
7
100
AcDbLine
 10
23.761802
 20
1.212922
 30
0.0
 11
24.121128
 21
1.346519
 31
0.0
  0
LINE
  5
1b6
100
AcDbEntity
  8
Layer_1
 62
7
100
AcDbLine
 10
24.121128
 20
1.346519
 30
0.0
 11
24.404141
 21
1.605107
 31
0.0
  0
LINE
  5
1b7
100
AcDbEntity
  8
Layer_1
 62
7
100
AcDbLine
 10
24.404141
 20
1.605107
 30
0.0
 11
24.572011
 21
1.964980
 31
0.0
  0
LINE
  5
1b8
100
AcDbEntity
  8
Layer_1
 62
7
100
AcDbLine
 10
24.572011
 20
1.964980
 30
0.0
 11
24.587112
 21
2.361790
 31
0.0
  0
LINE
  5
1b9
100
AcDbEntity
  8
Layer_1
 62
7
100
AcDbLine
 10
24.587112
 20
2.361790
 30
0.0
 11
24.453516
 21
2.721119
 31
0.0
  0
LINE
  5
1ba
100
AcDbEntity
  8
Layer_1
 62
7
100
AcDbLine
 10
24.453516
 20
2.721119
 30
0.0
 11
24.194928
 21
3.004132
 31
0.0
  0
LINE
  5
1bb
100
AcDbEntity
  8
Layer_1
 62
7
100
AcDbLine
 10
24.194928
 20
3.004132
 30
0.0
 11
23.835056
 21
3.172001
 31
0.0
  0
LINE
  5
1bc
100
AcDbEntity
  8
Layer_1
 62
7
100
AcDbLine
 10
23.835056
 20
3.172001
 30
0.0
 11
23.438246
 21
3.187103
 31
0.0
  0
LINE
  5
1bd
100
AcDbEntity
  8
Layer_1
 62
7
100
AcDbLine
 10
23.438246
 20
3.187103
 30
0.0
 11
23.078916
 21
3.053507
 31
0.0
  0
LINE
  5
1be
100
AcDbEntity
  8
Layer_1
 62
7
100
AcDbLine
 10
23.078916
 20
3.053507
 30
0.0
 11
22.795903
 21
2.794916
 31
0.0
  0
LINE
  5
1bf
100
AcDbEntity
  8
Layer_1
 62
7
100
AcDbLine
 10
22.795903
 20
2.794916
 30
0.0
 11
22.628034
 21
2.435046
 31
0.0
  0
LINE
  5
1c0
100
AcDbEntity
  8
Layer_1
 62
7
100
AcDbLine
 10
48.500016
 20
2.200008
 30
0.0
 11
48.617894
 21
1.616138
 31
0.0
  0
LINE
  5
1c1
100
AcDbEntity
  8
Layer_1
 62
7
100
AcDbLine
 10
48.617894
 20
1.616138
 30
0.0
 11
48.939357
 21
1.139347
 31
0.0
  0
LINE
  5
1c2
100
AcDbEntity
  8
Layer_1
 62
7
100
AcDbLine
 10
48.939357
 20
1.139347
 30
0.0
 11
49.416149
 21
0.817884
 31
0.0
  0
LINE
  5
1c3
100
AcDbEntity
  8
Layer_1
 62
7
100
AcDbLine
 10
49.416149
 20
0.817884
 30
0.0
 11
50.000016
 21
0.700008
 31
0.0
  0
LINE
  5
1c4
100
AcDbEntity
  8
Layer_1
 62
7
100
AcDbLine
 10
50.000016
 20
0.700008
 30
0.0
 11
50.583883
 21
0.817884
 31
0.0
  0
LINE
  5
1c5
100
AcDbEntity
  8
Layer_1
 62
7
100
AcDbLine
 10
50.583883
 20
0.817884
 30
0.0
 11
51.060674
 21
1.139347
 31
0.0
  0
LINE
  5
1c6
100
AcDbEntity
  8
Layer_1
 62
7
100
AcDbLine
 10
51.060674
 20
1.139347
 30
0.0
 11
51.382137
 21
1.616138
 31
0.0
  0
LINE
  5
1c7
100
AcDbEntity
  8
Layer_1
 62
7
100
AcDbLine
 10
51.382137
 20
1.616138
 30
0.0
 11
51.500015
 21
2.200008
 31
0.0
  0
LINE
  5
1c8
100
AcDbEntity
  8
Layer_1
 62
7
100
AcDbLine
 10
51.500015
 20
2.200008
 30
0.0
 11
51.382137
 21
2.783875
 31
0.0
  0
LINE
  5
1c9
100
AcDbEntity
  8
Layer_1
 62
7
100
AcDbLine
 10
51.382137
 20
2.783875
 30
0.0
 11
51.060674
 21
3.260667
 31
0.0
  0
LINE
  5
1ca
100
AcDbEntity
  8
Layer_1
 62
7
100
AcDbLine
 10
51.060674
 20
3.260667
 30
0.0
 11
50.583883
 21
3.582129
 31
0.0
  0
LINE
  5
1cb
100
AcDbEntity
  8
Layer_1
 62
7
100
AcDbLine
 10
50.583883
 20
3.582129
 30
0.0
 11
50.000016
 21
3.700008
 31
0.0
  0
LINE
  5
1cc
100
AcDbEntity
  8
Layer_1
 62
7
100
AcDbLine
 10
50.000016
 20
3.700008
 30
0.0
 11
49.416149
 21
3.582129
 31
0.0
  0
LINE
  5
1cd
100
AcDbEntity
  8
Layer_1
 62
7
100
AcDbLine
 10
49.416149
 20
3.582129
 30
0.0
 11
48.939357
 21
3.260667
 31
0.0
  0
LINE
  5
1ce
100
AcDbEntity
  8
Layer_1
 62
7
100
AcDbLine
 10
48.939357
 20
3.260667
 30
0.0
 11
48.617894
 21
2.783875
 31
0.0
  0
LINE
  5
1cf
100
AcDbEntity
  8
Layer_1
 62
7
100
AcDbLine
 10
48.617894
 20
2.783875
 30
0.0
 11
48.500016
 21
2.200008
 31
0.0
  0
LINE
  5
1d0
100
AcDbEntity
  8
Layer_1
 62
7
100
AcDbLine
 10
-47.999972
 20
11.000008
 30
0.0
 11
-48.157141
 21
10.221517
 31
0.0
  0
LINE
  5
1d1
100
AcDbEntity
  8
Layer_1
 62
7
100
AcDbLine
 10
-48.157141
 20
10.221517
 30
0.0
 11
-48.585758
 21
9.585792
 31
0.0
  0
LINE
  5
1d2
100
AcDbEntity
  8
Layer_1
 62
7
100
AcDbLine
 10
-48.585758
 20
9.585792
 30
0.0
 11
-49.221483
 21
9.157175
 31
0.0
  0
LINE
  5
1d3
100
AcDbEntity
  8
Layer_1
 62
7
100
AcDbLine
 10
-49.221483
 20
9.157175
 30
0.0
 11
-49.999974
 21
9.000006
 31
0.0
  0
LINE
  5
1d4
100
AcDbEntity
  8
Layer_1
 62
7
100
AcDbLine
 10
-49.999974
 20
9.000006
 30
0.0
 11
-50.778464
 21
9.157175
 31
0.0
  0
LINE
  5
1d5
100
AcDbEntity
  8
Layer_1
 62
7
100
AcDbLine
 10
-50.778464
 20
9.157175
 30
0.0
 11
-51.414186
 21
9.585792
 31
0.0
  0
LINE
  5
1d6
100
AcDbEntity
  8
Layer_1
 62
7
100
AcDbLine
 10
-51.414186
 20
9.585792
 30
0.0
 11
-51.842803
 21
10.221517
 31
0.0
  0
LINE
  5
1d7
100
AcDbEntity
  8
Layer_1
 62
7
100
AcDbLine
 10
-51.842803
 20
10.221517
 30
0.0
 11
-51.999972
 21
11.000008
 31
0.0
  0
LINE
  5
1d8
100
AcDbEntity
  8
Layer_1
 62
7
100
AcDbLine
 10
-51.999972
 20
11.000008
 30
0.0
 11
-51.842803
 21
11.778498
 31
0.0
  0
LINE
  5
1d9
100
AcDbEntity
  8
Layer_1
 62
7
100
AcDbLine
 10
-51.842803
 20
11.778498
 30
0.0
 11
-51.414186
 21
12.414220
 31
0.0
  0
LINE
  5
1da
100
AcDbEntity
  8
Layer_1
 62
7
100
AcDbLine
 10
-51.414186
 20
12.414220
 30
0.0
 11
-50.778464
 21
12.842837
 31
0.0
  0
LINE
  5
1db
100
AcDbEntity
  8
Layer_1
 62
7
100
AcDbLine
 10
-50.778464
 20
12.842837
 30
0.0
 11
-49.999974
 21
13.000006
 31
0.0
  0
LINE
  5
1dc
100
AcDbEntity
  8
Layer_1
 62
7
100
AcDbLine
 10
-49.999974
 20
13.000006
 30
0.0
 11
-49.221483
 21
12.842837
 31
0.0
  0
LINE
  5
1dd
100
AcDbEntity
  8
Layer_1
 62
7
100
AcDbLine
 10
-49.221483
 20
12.842837
 30
0.0
 11
-48.585758
 21
12.414220
 31
0.0
  0
LINE
  5
1de
100
AcDbEntity
  8
Layer_1
 62
7
100
AcDbLine
 10
-48.585758
 20
12.414220
 30
0.0
 11
-48.157141
 21
11.778498
 31
0.0
  0
LINE
  5
1df
100
AcDbEntity
  8
Layer_1
 62
7
100
AcDbLine
 10
-48.157141
 20
11.778498
 30
0.0
 11
-47.999972
 21
11.000008
 31
0.0
  0
LINE
  5
1e0
100
AcDbEntity
  8
Layer_1
 62
7
100
AcDbLine
 10
-37.999972
 20
10.999991
 30
0.0
 11
-38.157142
 21
10.221500
 31
0.0
  0
LINE
  5
1e1
100
AcDbEntity
  8
Layer_1
 62
7
100
AcDbLine
 10
-38.157142
 20
10.221500
 30
0.0
 11
-38.585758
 21
9.585775
 31
0.0
  0
LINE
  5
1e2
100
AcDbEntity
  8
Layer_1
 62
7
100
AcDbLine
 10
-38.585758
 20
9.585775
 30
0.0
 11
-39.221481
 21
9.157159
 31
0.0
  0
LINE
  5
1e3
100
AcDbEntity
  8
Layer_1
 62
7
100
AcDbLine
 10
-39.221481
 20
9.157159
 30
0.0
 11
-39.999971
 21
8.999989
 31
0.0
  0
LINE
  5
1e4
100
AcDbEntity
  8
Layer_1
 62
7
100
AcDbLine
 10
-39.999971
 20
8.999989
 30
0.0
 11
-40.778461
 21
9.157159
 31
0.0
  0
LINE
  5
1e5
100
AcDbEntity
  8
Layer_1
 62
7
100
AcDbLine
 10
-40.778461
 20
9.157159
 30
0.0
 11
-41.414186
 21
9.585775
 31
0.0
  0
LINE
  5
1e6
100
AcDbEntity
  8
Layer_1
 62
7
100
AcDbLine
 10
-41.414186
 20
9.585775
 30
0.0
 11
-41.842803
 21
10.221500
 31
0.0
  0
LINE
  5
1e7
100
AcDbEntity
  8
Layer_1
 62
7
100
AcDbLine
 10
-41.842803
 20
10.221500
 30
0.0
 11
-41.999973
 21
10.999991
 31
0.0
  0
LINE
  5
1e8
100
AcDbEntity
  8
Layer_1
 62
7
100
AcDbLine
 10
-41.999973
 20
10.999991
 30
0.0
 11
-41.842803
 21
11.778481
 31
0.0
  0
LINE
  5
1e9
100
AcDbEntity
  8
Layer_1
 62
7
100
AcDbLine
 10
-41.842803
 20
11.778481
 30
0.0
 11
-41.414186
 21
12.414203
 31
0.0
  0
LINE
  5
1ea
100
AcDbEntity
  8
Layer_1
 62
7
100
AcDbLine
 10
-41.414186
 20
12.414203
 30
0.0
 11
-40.778461
 21
12.842820
 31
0.0
  0
LINE
  5
1eb
100
AcDbEntity
  8
Layer_1
 62
7
100
AcDbLine
 10
-40.778461
 20
12.842820
 30
0.0
 11
-39.999971
 21
12.999989
 31
0.0
  0
LINE
  5
1ec
100
AcDbEntity
  8
Layer_1
 62
7
100
AcDbLine
 10
-39.999971
 20
12.999989
 30
0.0
 11
-39.221481
 21
12.842820
 31
0.0
  0
LINE
  5
1ed
100
AcDbEntity
  8
Layer_1
 62
7
100
AcDbLine
 10
-39.221481
 20
12.842820
 30
0.0
 11
-38.585758
 21
12.414203
 31
0.0
  0
LINE
  5
1ee
100
AcDbEntity
  8
Layer_1
 62
7
100
AcDbLine
 10
-38.585758
 20
12.414203
 30
0.0
 11
-38.157142
 21
11.778481
 31
0.0
  0
LINE
  5
1ef
100
AcDbEntity
  8
Layer_1
 62
7
100
AcDbLine
 10
-38.157142
 20
11.778481
 30
0.0
 11
-37.999972
 21
10.999991
 31
0.0
  0
LINE
  5
1f0
100
AcDbEntity
  8
Layer_1
 62
7
100
AcDbLine
 10
-27.999973
 20
11.000008
 30
0.0
 11
-28.157143
 21
10.221517
 31
0.0
  0
LINE
  5
1f1
100
AcDbEntity
  8
Layer_1
 62
7
100
AcDbLine
 10
-28.157143
 20
10.221517
 30
0.0
 11
-28.585761
 21
9.585792
 31
0.0
  0
LINE
  5
1f2
100
AcDbEntity
  8
Layer_1
 62
7
100
AcDbLine
 10
-28.585761
 20
9.585792
 30
0.0
 11
-29.221484
 21
9.157175
 31
0.0
  0
LINE
  5
1f3
100
AcDbEntity
  8
Layer_1
 62
7
100
AcDbLine
 10
-29.221484
 20
9.157175
 30
0.0
 11
-29.999974
 21
9.000006
 31
0.0
  0
LINE
  5
1f4
100
AcDbEntity
  8
Layer_1
 62
7
100
AcDbLine
 10
-29.999974
 20
9.000006
 30
0.0
 11
-30.778464
 21
9.157175
 31
0.0
  0
LINE
  5
1f5
100
AcDbEntity
  8
Layer_1
 62
7
100
AcDbLine
 10
-30.778464
 20
9.157175
 30
0.0
 11
-31.414187
 21
9.585792
 31
0.0
  0
LINE
  5
1f6
100
AcDbEntity
  8
Layer_1
 62
7
100
AcDbLine
 10
-31.414187
 20
9.585792
 30
0.0
 11
-31.842803
 21
10.221517
 31
0.0
  0
LINE
  5
1f7
100
AcDbEntity
  8
Layer_1
 62
7
100
AcDbLine
 10
-31.842803
 20
10.221517
 30
0.0
 11
-31.999973
 21
11.000008
 31
0.0
  0
LINE
  5
1f8
100
AcDbEntity
  8
Layer_1
 62
7
100
AcDbLine
 10
-31.999973
 20
11.000008
 30
0.0
 11
-31.842803
 21
11.778498
 31
0.0
  0
LINE
  5
1f9
100
AcDbEntity
  8
Layer_1
 62
7
100
AcDbLine
 10
-31.842803
 20
11.778498
 30
0.0
 11
-31.414187
 21
12.414220
 31
0.0
  0
LINE
  5
1fa
100
AcDbEntity
  8
Layer_1
 62
7
100
AcDbLine
 10
-31.414187
 20
12.414220
 30
0.0
 11
-30.778464
 21
12.842837
 31
0.0
  0
LINE
  5
1fb
100
AcDbEntity
  8
Layer_1
 62
7
100
AcDbLine
 10
-30.778464
 20
12.842837
 30
0.0
 11
-29.999974
 21
13.000006
 31
0.0
  0
LINE
  5
1fc
100
AcDbEntity
  8
Layer_1
 62
7
100
AcDbLine
 10
-29.999974
 20
13.000006
 30
0.0
 11
-29.221484
 21
12.842837
 31
0.0
  0
LINE
  5
1fd
100
AcDbEntity
  8
Layer_1
 62
7
100
AcDbLine
 10
-29.221484
 20
12.842837
 30
0.0
 11
-28.585761
 21
12.414220
 31
0.0
  0
LINE
  5
1fe
100
AcDbEntity
  8
Layer_1
 62
7
100
AcDbLine
 10
-28.585761
 20
12.414220
 30
0.0
 11
-28.157143
 21
11.778498
 31
0.0
  0
LINE
  5
1ff
100
AcDbEntity
  8
Layer_1
 62
7
100
AcDbLine
 10
-28.157143
 20
11.778498
 30
0.0
 11
-27.999973
 21
11.000008
 31
0.0
  0
LINE
  5
200
100
AcDbEntity
  8
Layer_1
 62
7
100
AcDbLine
 10
-17.999976
 20
10.999991
 30
0.0
 11
-18.157146
 21
10.221500
 31
0.0
  0
LINE
  5
201
100
AcDbEntity
  8
Layer_1
 62
7
100
AcDbLine
 10
-18.157146
 20
10.221500
 30
0.0
 11
-18.585763
 21
9.585775
 31
0.0
  0
LINE
  5
202
100
AcDbEntity
  8
Layer_1
 62
7
100
AcDbLine
 10
-18.585763
 20
9.585775
 30
0.0
 11
-19.221486
 21
9.157159
 31
0.0
  0
LINE
  5
203
100
AcDbEntity
  8
Layer_1
 62
7
100
AcDbLine
 10
-19.221486
 20
9.157159
 30
0.0
 11
-19.999976
 21
8.999989
 31
0.0
  0
LINE
  5
204
100
AcDbEntity
  8
Layer_1
 62
7
100
AcDbLine
 10
-19.999976
 20
8.999989
 30
0.0
 11
-20.778466
 21
9.157159
 31
0.0
  0
LINE
  5
205
100
AcDbEntity
  8
Layer_1
 62
7
100
AcDbLine
 10
-20.778466
 20
9.157159
 30
0.0
 11
-21.414190
 21
9.585775
 31
0.0
  0
LINE
  5
206
100
AcDbEntity
  8
Layer_1
 62
7
100
AcDbLine
 10
-21.414190
 20
9.585775
 30
0.0
 11
-21.842806
 21
10.221500
 31
0.0
  0
LINE
  5
207
100
AcDbEntity
  8
Layer_1
 62
7
100
AcDbLine
 10
-21.842806
 20
10.221500
 30
0.0
 11
-21.999976
 21
10.999991
 31
0.0
  0
LINE
  5
208
100
AcDbEntity
  8
Layer_1
 62
7
100
AcDbLine
 10
-21.999976
 20
10.999991
 30
0.0
 11
-21.842806
 21
11.778481
 31
0.0
  0
LINE
  5
209
100
AcDbEntity
  8
Layer_1
 62
7
100
AcDbLine
 10
-21.842806
 20
11.778481
 30
0.0
 11
-21.414190
 21
12.414203
 31
0.0
  0
LINE
  5
20a
100
AcDbEntity
  8
Layer_1
 62
7
100
AcDbLine
 10
-21.414190
 20
12.414203
 30
0.0
 11
-20.778466
 21
12.842820
 31
0.0
  0
LINE
  5
20b
100
AcDbEntity
  8
Layer_1
 62
7
100
AcDbLine
 10
-20.778466
 20
12.842820
 30
0.0
 11
-19.999976
 21
12.999989
 31
0.0
  0
LINE
  5
20c
100
AcDbEntity
  8
Layer_1
 62
7
100
AcDbLine
 10
-19.999976
 20
12.999989
 30
0.0
 11
-19.221486
 21
12.842820
 31
0.0
  0
LINE
  5
20d
100
AcDbEntity
  8
Layer_1
 62
7
100
AcDbLine
 10
-19.221486
 20
12.842820
 30
0.0
 11
-18.585763
 21
12.414203
 31
0.0
  0
LINE
  5
20e
100
AcDbEntity
  8
Layer_1
 62
7
100
AcDbLine
 10
-18.585763
 20
12.414203
 30
0.0
 11
-18.157146
 21
11.778481
 31
0.0
  0
LINE
  5
20f
100
AcDbEntity
  8
Layer_1
 62
7
100
AcDbLine
 10
-18.157146
 20
11.778481
 30
0.0
 11
-17.999976
 21
10.999991
 31
0.0
  0
LINE
  5
210
100
AcDbEntity
  8
Layer_1
 62
7
100
AcDbLine
 10
-7.999977
 20
11.000008
 30
0.0
 11
-8.157147
 21
10.221517
 31
0.0
  0
LINE
  5
211
100
AcDbEntity
  8
Layer_1
 62
7
100
AcDbLine
 10
-8.157147
 20
10.221517
 30
0.0
 11
-8.585764
 21
9.585792
 31
0.0
  0
LINE
  5
212
100
AcDbEntity
  8
Layer_1
 62
7
100
AcDbLine
 10
-8.585764
 20
9.585792
 30
0.0
 11
-9.221487
 21
9.157175
 31
0.0
  0
LINE
  5
213
100
AcDbEntity
  8
Layer_1
 62
7
100
AcDbLine
 10
-9.221487
 20
9.157175
 30
0.0
 11
-9.999977
 21
9.000006
 31
0.0
  0
LINE
  5
214
100
AcDbEntity
  8
Layer_1
 62
7
100
AcDbLine
 10
-9.999977
 20
9.000006
 30
0.0
 11
-10.778468
 21
9.157175
 31
0.0
  0
LINE
  5
215
100
AcDbEntity
  8
Layer_1
 62
7
100
AcDbLine
 10
-10.778468
 20
9.157175
 30
0.0
 11
-11.414191
 21
9.585792
 31
0.0
  0
LINE
  5
216
100
AcDbEntity
  8
Layer_1
 62
7
100
AcDbLine
 10
-11.414191
 20
9.585792
 30
0.0
 11
-11.842807
 21
10.221517
 31
0.0
  0
LINE
  5
217
100
AcDbEntity
  8
Layer_1
 62
7
100
AcDbLine
 10
-11.842807
 20
10.221517
 30
0.0
 11
-11.999977
 21
11.000008
 31
0.0
  0
LINE
  5
218
100
AcDbEntity
  8
Layer_1
 62
7
100
AcDbLine
 10
-11.999977
 20
11.000008
 30
0.0
 11
-11.842807
 21
11.778498
 31
0.0
  0
LINE
  5
219
100
AcDbEntity
  8
Layer_1
 62
7
100
AcDbLine
 10
-11.842807
 20
11.778498
 30
0.0
 11
-11.414191
 21
12.414220
 31
0.0
  0
LINE
  5
21a
100
AcDbEntity
  8
Layer_1
 62
7
100
AcDbLine
 10
-11.414191
 20
12.414220
 30
0.0
 11
-10.778468
 21
12.842837
 31
0.0
  0
LINE
  5
21b
100
AcDbEntity
  8
Layer_1
 62
7
100
AcDbLine
 10
-10.778468
 20
12.842837
 30
0.0
 11
-9.999977
 21
13.000006
 31
0.0
  0
LINE
  5
21c
100
AcDbEntity
  8
Layer_1
 62
7
100
AcDbLine
 10
-9.999977
 20
13.000006
 30
0.0
 11
-9.221487
 21
12.842837
 31
0.0
  0
LINE
  5
21d
100
AcDbEntity
  8
Layer_1
 62
7
100
AcDbLine
 10
-9.221487
 20
12.842837
 30
0.0
 11
-8.585764
 21
12.414220
 31
0.0
  0
LINE
  5
21e
100
AcDbEntity
  8
Layer_1
 62
7
100
AcDbLine
 10
-8.585764
 20
12.414220
 30
0.0
 11
-8.157147
 21
11.778498
 31
0.0
  0
LINE
  5
21f
100
AcDbEntity
  8
Layer_1
 62
7
100
AcDbLine
 10
-8.157147
 20
11.778498
 30
0.0
 11
-7.999977
 21
11.000008
 31
0.0
  0
LINE
  5
220
100
AcDbEntity
  8
Layer_1
 62
7
100
AcDbLine
 10
2.000020
 20
10.999991
 30
0.0
 11
1.842850
 21
10.221500
 31
0.0
  0
LINE
  5
221
100
AcDbEntity
  8
Layer_1
 62
7
100
AcDbLine
 10
1.842850
 20
10.221500
 30
0.0
 11
1.414233
 21
9.585775
 31
0.0
  0
LINE
  5
222
100
AcDbEntity
  8
Layer_1
 62
7
100
AcDbLine
 10
1.414233
 20
9.585775
 30
0.0
 11
0.778510
 21
9.157159
 31
0.0
  0
LINE
  5
223
100
AcDbEntity
  8
Layer_1
 62
7
100
AcDbLine
 10
0.778510
 20
9.157159
 30
0.0
 11
0.000020
 21
8.999989
 31
0.0
  0
LINE
  5
224
100
AcDbEntity
  8
Layer_1
 62
7
100
AcDbLine
 10
0.000020
 20
8.999989
 30
0.0
 11
-0.778471
 21
9.157159
 31
0.0
  0
LINE
  5
225
100
AcDbEntity
  8
Layer_1
 62
7
100
AcDbLine
 10
-0.778471
 20
9.157159
 30
0.0
 11
-1.414194
 21
9.585775
 31
0.0
  0
LINE
  5
226
100
AcDbEntity
  8
Layer_1
 62
7
100
AcDbLine
 10
-1.414194
 20
9.585775
 30
0.0
 11
-1.842810
 21
10.221500
 31
0.0
  0
LINE
  5
227
100
AcDbEntity
  8
Layer_1
 62
7
100
AcDbLine
 10
-1.842810
 20
10.221500
 30
0.0
 11
-1.999980
 21
10.999991
 31
0.0
  0
LINE
  5
228
100
AcDbEntity
  8
Layer_1
 62
7
100
AcDbLine
 10
-1.999980
 20
10.999991
 30
0.0
 11
-1.842810
 21
11.778481
 31
0.0
  0
LINE
  5
229
100
AcDbEntity
  8
Layer_1
 62
7
100
AcDbLine
 10
-1.842810
 20
11.778481
 30
0.0
 11
-1.414194
 21
12.414203
 31
0.0
  0
LINE
  5
22a
100
AcDbEntity
  8
Layer_1
 62
7
100
AcDbLine
 10
-1.414194
 20
12.414203
 30
0.0
 11
-0.778471
 21
12.842820
 31
0.0
  0
LINE
  5
22b
100
AcDbEntity
  8
Layer_1
 62
7
100
AcDbLine
 10
-0.778471
 20
12.842820
 30
0.0
 11
0.000020
 21
12.999989
 31
0.0
  0
LINE
  5
22c
100
AcDbEntity
  8
Layer_1
 62
7
100
AcDbLine
 10
0.000020
 20
12.999989
 30
0.0
 11
0.778510
 21
12.842820
 31
0.0
  0
LINE
  5
22d
100
AcDbEntity
  8
Layer_1
 62
7
100
AcDbLine
 10
0.778510
 20
12.842820
 30
0.0
 11
1.414233
 21
12.414203
 31
0.0
  0
LINE
  5
22e
100
AcDbEntity
  8
Layer_1
 62
7
100
AcDbLine
 10
1.414233
 20
12.414203
 30
0.0
 11
1.842850
 21
11.778481
 31
0.0
  0
LINE
  5
22f
100
AcDbEntity
  8
Layer_1
 62
7
100
AcDbLine
 10
1.842850
 20
11.778481
 30
0.0
 11
2.000020
 21
10.999991
 31
0.0
  0
LINE
  5
230
100
AcDbEntity
  8
Layer_1
 62
7
100
AcDbLine
 10
12.000020
 20
11.000008
 30
0.0
 11
11.842850
 21
10.221517
 31
0.0
  0
LINE
  5
231
100
AcDbEntity
  8
Layer_1
 62
7
100
AcDbLine
 10
11.842850
 20
10.221517
 30
0.0
 11
11.414233
 21
9.585792
 31
0.0
  0
LINE
  5
232
100
AcDbEntity
  8
Layer_1
 62
7
100
AcDbLine
 10
11.414233
 20
9.585792
 30
0.0
 11
10.778510
 21
9.157175
 31
0.0
  0
LINE
  5
233
100
AcDbEntity
  8
Layer_1
 62
7
100
AcDbLine
 10
10.778510
 20
9.157175
 30
0.0
 11
10.000020
 21
9.000006
 31
0.0
  0
LINE
  5
234
100
AcDbEntity
  8
Layer_1
 62
7
100
AcDbLine
 10
10.000020
 20
9.000006
 30
0.0
 11
9.221529
 21
9.157175
 31
0.0
  0
LINE
  5
235
100
AcDbEntity
  8
Layer_1
 62
7
100
AcDbLine
 10
9.221529
 20
9.157175
 30
0.0
 11
8.585806
 21
9.585792
 31
0.0
  0
LINE
  5
236
100
AcDbEntity
  8
Layer_1
 62
7
100
AcDbLine
 10
8.585806
 20
9.585792
 30
0.0
 11
8.157190
 21
10.221517
 31
0.0
  0
LINE
  5
237
100
AcDbEntity
  8
Layer_1
 62
7
100
AcDbLine
 10
8.157190
 20
10.221517
 30
0.0
 11
8.000020
 21
11.000008
 31
0.0
  0
LINE
  5
238
100
AcDbEntity
  8
Layer_1
 62
7
100
AcDbLine
 10
8.000020
 20
11.000008
 30
0.0
 11
8.157190
 21
11.778498
 31
0.0
  0
LINE
  5
239
100
AcDbEntity
  8
Layer_1
 62
7
100
AcDbLine
 10
8.157190
 20
11.778498
 30
0.0
 11
8.585806
 21
12.414220
 31
0.0
  0
LINE
  5
23a
100
AcDbEntity
  8
Layer_1
 62
7
100
AcDbLine
 10
8.585806
 20
12.414220
 30
0.0
 11
9.221529
 21
12.842837
 31
0.0
  0
LINE
  5
23b
100
AcDbEntity
  8
Layer_1
 62
7
100
AcDbLine
 10
9.221529
 20
12.842837
 30
0.0
 11
10.000020
 21
13.000006
 31
0.0
  0
LINE
  5
23c
100
AcDbEntity
  8
Layer_1
 62
7
100
AcDbLine
 10
10.000020
 20
13.000006
 30
0.0
 11
10.778510
 21
12.842837
 31
0.0
  0
LINE
  5
23d
100
AcDbEntity
  8
Layer_1
 62
7
100
AcDbLine
 10
10.778510
 20
12.842837
 30
0.0
 11
11.414233
 21
12.414220
 31
0.0
  0
LINE
  5
23e
100
AcDbEntity
  8
Layer_1
 62
7
100
AcDbLine
 10
11.414233
 20
12.414220
 30
0.0
 11
11.842850
 21
11.778498
 31
0.0
  0
LINE
  5
23f
100
AcDbEntity
  8
Layer_1
 62
7
100
AcDbLine
 10
11.842850
 20
11.778498
 30
0.0
 11
12.000020
 21
11.000008
 31
0.0
  0
LINE
  5
240
100
AcDbEntity
  8
Layer_1
 62
7
100
AcDbLine
 10
22.000022
 20
10.999991
 30
0.0
 11
21.842852
 21
10.221500
 31
0.0
  0
LINE
  5
241
100
AcDbEntity
  8
Layer_1
 62
7
100
AcDbLine
 10
21.842852
 20
10.221500
 30
0.0
 11
21.414236
 21
9.585775
 31
0.0
  0
LINE
  5
242
100
AcDbEntity
  8
Layer_1
 62
7
100
AcDbLine
 10
21.414236
 20
9.585775
 30
0.0
 11
20.778512
 21
9.157159
 31
0.0
  0
LINE
  5
243
100
AcDbEntity
  8
Layer_1
 62
7
100
AcDbLine
 10
20.778512
 20
9.157159
 30
0.0
 11
20.000022
 21
8.999989
 31
0.0
  0
LINE
  5
244
100
AcDbEntity
  8
Layer_1
 62
7
100
AcDbLine
 10
20.000022
 20
8.999989
 30
0.0
 11
19.221532
 21
9.157159
 31
0.0
  0
LINE
  5
245
100
AcDbEntity
  8
Layer_1
 62
7
100
AcDbLine
 10
19.221532
 20
9.157159
 30
0.0
 11
18.585808
 21
9.585775
 31
0.0
  0
LINE
  5
246
100
AcDbEntity
  8
Layer_1
 62
7
100
AcDbLine
 10
18.585808
 20
9.585775
 30
0.0
 11
18.157192
 21
10.221500
 31
0.0
  0
LINE
  5
247
100
AcDbEntity
  8
Layer_1
 62
7
100
AcDbLine
 10
18.157192
 20
10.221500
 30
0.0
 11
18.000022
 21
10.999991
 31
0.0
  0
LINE
  5
248
100
AcDbEntity
  8
Layer_1
 62
7
100
AcDbLine
 10
18.000022
 20
10.999991
 30
0.0
 11
18.157192
 21
11.778481
 31
0.0
  0
LINE
  5
249
100
AcDbEntity
  8
Layer_1
 62
7
100
AcDbLine
 10
18.157192
 20
11.778481
 30
0.0
 11
18.585808
 21
12.414203
 31
0.0
  0
LINE
  5
24a
100
AcDbEntity
  8
Layer_1
 62
7
100
AcDbLine
 10
18.585808
 20
12.414203
 30
0.0
 11
19.221532
 21
12.842820
 31
0.0
  0
LINE
  5
24b
100
AcDbEntity
  8
Layer_1
 62
7
100
AcDbLine
 10
19.221532
 20
12.842820
 30
0.0
 11
20.000022
 21
12.999989
 31
0.0
  0
LINE
  5
24c
100
AcDbEntity
  8
Layer_1
 62
7
100
AcDbLine
 10
20.000022
 20
12.999989
 30
0.0
 11
20.778512
 21
12.842820
 31
0.0
  0
LINE
  5
24d
100
AcDbEntity
  8
Layer_1
 62
7
100
AcDbLine
 10
20.778512
 20
12.842820
 30
0.0
 11
21.414236
 21
12.414203
 31
0.0
  0
LINE
  5
24e
100
AcDbEntity
  8
Layer_1
 62
7
100
AcDbLine
 10
21.414236
 20
12.414203
 30
0.0
 11
21.842852
 21
11.778481
 31
0.0
  0
LINE
  5
24f
100
AcDbEntity
  8
Layer_1
 62
7
100
AcDbLine
 10
21.842852
 20
11.778481
 30
0.0
 11
22.000022
 21
10.999991
 31
0.0
  0
LINE
  5
250
100
AcDbEntity
  8
Layer_1
 62
7
100
AcDbLine
 10
32.000026
 20
11.000008
 30
0.0
 11
31.842857
 21
10.221517
 31
0.0
  0
LINE
  5
251
100
AcDbEntity
  8
Layer_1
 62
7
100
AcDbLine
 10
31.842857
 20
10.221517
 30
0.0
 11
31.414240
 21
9.585792
 31
0.0
  0
LINE
  5
252
100
AcDbEntity
  8
Layer_1
 62
7
100
AcDbLine
 10
31.414240
 20
9.585792
 30
0.0
 11
30.778518
 21
9.157175
 31
0.0
  0
LINE
  5
253
100
AcDbEntity
  8
Layer_1
 62
7
100
AcDbLine
 10
30.778518
 20
9.157175
 30
0.0
 11
30.000027
 21
9.000006
 31
0.0
  0
LINE
  5
254
100
AcDbEntity
  8
Layer_1
 62
7
100
AcDbLine
 10
30.000027
 20
9.000006
 30
0.0
 11
29.221537
 21
9.157175
 31
0.0
  0
LINE
  5
255
100
AcDbEntity
  8
Layer_1
 62
7
100
AcDbLine
 10
29.221537
 20
9.157175
 30
0.0
 11
28.585815
 21
9.585792
 31
0.0
  0
LINE
  5
256
100
AcDbEntity
  8
Layer_1
 62
7
100
AcDbLine
 10
28.585815
 20
9.585792
 30
0.0
 11
28.157197
 21
10.221517
 31
0.0
  0
LINE
  5
257
100
AcDbEntity
  8
Layer_1
 62
7
100
AcDbLine
 10
28.157197
 20
10.221517
 30
0.0
 11
28.000027
 21
11.000008
 31
0.0
  0
LINE
  5
258
100
AcDbEntity
  8
Layer_1
 62
7
100
AcDbLine
 10
28.000027
 20
11.000008
 30
0.0
 11
28.157197
 21
11.778498
 31
0.0
  0
LINE
  5
259
100
AcDbEntity
  8
Layer_1
 62
7
100
AcDbLine
 10
28.157197
 20
11.778498
 30
0.0
 11
28.585815
 21
12.414220
 31
0.0
  0
LINE
  5
25a
100
AcDbEntity
  8
Layer_1
 62
7
100
AcDbLine
 10
28.585815
 20
12.414220
 30
0.0
 11
29.221537
 21
12.842837
 31
0.0
  0
LINE
  5
25b
100
AcDbEntity
  8
Layer_1
 62
7
100
AcDbLine
 10
29.221537
 20
12.842837
 30
0.0
 11
30.000027
 21
13.000006
 31
0.0
  0
LINE
  5
25c
100
AcDbEntity
  8
Layer_1
 62
7
100
AcDbLine
 10
30.000027
 20
13.000006
 30
0.0
 11
30.778518
 21
12.842837
 31
0.0
  0
LINE
  5
25d
100
AcDbEntity
  8
Layer_1
 62
7
100
AcDbLine
 10
30.778518
 20
12.842837
 30
0.0
 11
31.414240
 21
12.414220
 31
0.0
  0
LINE
  5
25e
100
AcDbEntity
  8
Layer_1
 62
7
100
AcDbLine
 10
31.414240
 20
12.414220
 30
0.0
 11
31.842857
 21
11.778498
 31
0.0
  0
LINE
  5
25f
100
AcDbEntity
  8
Layer_1
 62
7
100
AcDbLine
 10
31.842857
 20
11.778498
 30
0.0
 11
32.000026
 21
11.000008
 31
0.0
  0
LINE
  5
260
100
AcDbEntity
  8
Layer_1
 62
7
100
AcDbLine
 10
42.000029
 20
10.999991
 30
0.0
 11
41.842859
 21
10.221500
 31
0.0
  0
LINE
  5
261
100
AcDbEntity
  8
Layer_1
 62
7
100
AcDbLine
 10
41.842859
 20
10.221500
 30
0.0
 11
41.414243
 21
9.585775
 31
0.0
  0
LINE
  5
262
100
AcDbEntity
  8
Layer_1
 62
7
100
AcDbLine
 10
41.414243
 20
9.585775
 30
0.0
 11
40.778520
 21
9.157159
 31
0.0
  0
LINE
  5
263
100
AcDbEntity
  8
Layer_1
 62
7
100
AcDbLine
 10
40.778520
 20
9.157159
 30
0.0
 11
40.000030
 21
8.999989
 31
0.0
  0
LINE
  5
264
100
AcDbEntity
  8
Layer_1
 62
7
100
AcDbLine
 10
40.000030
 20
8.999989
 30
0.0
 11
39.221540
 21
9.157159
 31
0.0
  0
LINE
  5
265
100
AcDbEntity
  8
Layer_1
 62
7
100
AcDbLine
 10
39.221540
 20
9.157159
 30
0.0
 11
38.585814
 21
9.585775
 31
0.0
  0
LINE
  5
266
100
AcDbEntity
  8
Layer_1
 62
7
100
AcDbLine
 10
38.585814
 20
9.585775
 30
0.0
 11
38.157198
 21
10.221500
 31
0.0
  0
LINE
  5
267
100
AcDbEntity
  8
Layer_1
 62
7
100
AcDbLine
 10
38.157198
 20
10.221500
 30
0.0
 11
38.000028
 21
10.999991
 31
0.0
  0
LINE
  5
268
100
AcDbEntity
  8
Layer_1
 62
7
100
AcDbLine
 10
38.000028
 20
10.999991
 30
0.0
 11
38.157198
 21
11.778481
 31
0.0
  0
LINE
  5
269
100
AcDbEntity
  8
Layer_1
 62
7
100
AcDbLine
 10
38.157198
 20
11.778481
 30
0.0
 11
38.585814
 21
12.414203
 31
0.0
  0
LINE
  5
26a
100
AcDbEntity
  8
Layer_1
 62
7
100
AcDbLine
 10
38.585814
 20
12.414203
 30
0.0
 11
39.221540
 21
12.842820
 31
0.0
  0
LINE
  5
26b
100
AcDbEntity
  8
Layer_1
 62
7
100
AcDbLine
 10
39.221540
 20
12.842820
 30
0.0
 11
40.000030
 21
12.999989
 31
0.0
  0
LINE
  5
26c
100
AcDbEntity
  8
Layer_1
 62
7
100
AcDbLine
 10
40.000030
 20
12.999989
 30
0.0
 11
40.778520
 21
12.842820
 31
0.0
  0
LINE
  5
26d
100
AcDbEntity
  8
Layer_1
 62
7
100
AcDbLine
 10
40.778520
 20
12.842820
 30
0.0
 11
41.414243
 21
12.414203
 31
0.0
  0
LINE
  5
26e
100
AcDbEntity
  8
Layer_1
 62
7
100
AcDbLine
 10
41.414243
 20
12.414203
 30
0.0
 11
41.842859
 21
11.778481
 31
0.0
  0
LINE
  5
26f
100
AcDbEntity
  8
Layer_1
 62
7
100
AcDbLine
 10
41.842859
 20
11.778481
 30
0.0
 11
42.000029
 21
10.999991
 31
0.0
  0
LINE
  5
270
100
AcDbEntity
  8
Layer_1
 62
7
100
AcDbLine
 10
52.000020
 20
11.000008
 30
0.0
 11
51.842850
 21
10.221517
 31
0.0
  0
LINE
  5
271
100
AcDbEntity
  8
Layer_1
 62
7
100
AcDbLine
 10
51.842850
 20
10.221517
 30
0.0
 11
51.414234
 21
9.585792
 31
0.0
  0
LINE
  5
272
100
AcDbEntity
  8
Layer_1
 62
7
100
AcDbLine
 10
51.414234
 20
9.585792
 30
0.0
 11
50.778511
 21
9.157175
 31
0.0
  0
LINE
  5
273
100
AcDbEntity
  8
Layer_1
 62
7
100
AcDbLine
 10
50.778511
 20
9.157175
 30
0.0
 11
50.000021
 21
9.000006
 31
0.0
  0
LINE
  5
274
100
AcDbEntity
  8
Layer_1
 62
7
100
AcDbLine
 10
50.000021
 20
9.000006
 30
0.0
 11
49.221531
 21
9.157175
 31
0.0
  0
LINE
  5
275
100
AcDbEntity
  8
Layer_1
 62
7
100
AcDbLine
 10
49.221531
 20
9.157175
 30
0.0
 11
48.585808
 21
9.585792
 31
0.0
  0
LINE
  5
276
100
AcDbEntity
  8
Layer_1
 62
7
100
AcDbLine
 10
48.585808
 20
9.585792
 30
0.0
 11
48.157192
 21
10.221517
 31
0.0
  0
LINE
  5
277
100
AcDbEntity
  8
Layer_1
 62
7
100
AcDbLine
 10
48.157192
 20
10.221517
 30
0.0
 11
48.000022
 21
11.000008
 31
0.0
  0
LINE
  5
278
100
AcDbEntity
  8
Layer_1
 62
7
100
AcDbLine
 10
48.000022
 20
11.000008
 30
0.0
 11
48.157192
 21
11.778498
 31
0.0
  0
LINE
  5
279
100
AcDbEntity
  8
Layer_1
 62
7
100
AcDbLine
 10
48.157192
 20
11.778498
 30
0.0
 11
48.585808
 21
12.414220
 31
0.0
  0
LINE
  5
27a
100
AcDbEntity
  8
Layer_1
 62
7
100
AcDbLine
 10
48.585808
 20
12.414220
 30
0.0
 11
49.221531
 21
12.842837
 31
0.0
  0
LINE
  5
27b
100
AcDbEntity
  8
Layer_1
 62
7
100
AcDbLine
 10
49.221531
 20
12.842837
 30
0.0
 11
50.000021
 21
13.000006
 31
0.0
  0
LINE
  5
27c
100
AcDbEntity
  8
Layer_1
 62
7
100
AcDbLine
 10
50.000021
 20
13.000006
 30
0.0
 11
50.778511
 21
12.842837
 31
0.0
  0
LINE
  5
27d
100
AcDbEntity
  8
Layer_1
 62
7
100
AcDbLine
 10
50.778511
 20
12.842837
 30
0.0
 11
51.414234
 21
12.414220
 31
0.0
  0
LINE
  5
27e
100
AcDbEntity
  8
Layer_1
 62
7
100
AcDbLine
 10
51.414234
 20
12.414220
 30
0.0
 11
51.842850
 21
11.778498
 31
0.0
  0
LINE
  5
27f
100
AcDbEntity
  8
Layer_1
 62
7
100
AcDbLine
 10
51.842850
 20
11.778498
 30
0.0
 11
52.000020
 21
11.000008
 31
0.0
  0
ENDSEC
  0
SECTION
  2
OBJECTS
  0
DICTIONARY
  5
C
330
0
100
AcDbDictionary
  3
ACAD_GROUP
350
D
  3
ACAD_MLINESTYLE
350
17
  0
DICTIONARY
  5
D
330
C
100
AcDbDictionary
  0
DICTIONARY
  5
1A
330
C
100
AcDbDictionary
  0
DICTIONARY
  5
17
330
C
100
AcDbDictionary
  3
STANDARD
350
18
  0
DICTIONARY
  5
19
330
C
100
AcDbDictionary
  0
ENDSEC
  0
EOF
