<?xml version="1.0" encoding="UTF-8" standalone="no"?>
<!-- Created with Inkscape (http://www.inkscape.org/) -->

<svg
   xmlns:dc="http://purl.org/dc/elements/1.1/"
   xmlns:cc="http://creativecommons.org/ns#"
   xmlns:rdf="http://www.w3.org/1999/02/22-rdf-syntax-ns#"
   xmlns:svg="http://www.w3.org/2000/svg"
   xmlns="http://www.w3.org/2000/svg"
   xmlns:sodipodi="http://sodipodi.sourceforge.net/DTD/sodipodi-0.dtd"
   xmlns:inkscape="http://www.inkscape.org/namespaces/inkscape"
   width="1052.3622"
   height="744.09448"
   id="svg2"
   version="1.1"
   inkscape:version="0.48.4 r9939"
   sodipodi:docname="breadboard_holder-4dxf.svg">
  <defs
     id="defs4" />
  <sodipodi:namedview
     id="base"
     pagecolor="#ffffff"
     bordercolor="#666666"
     borderopacity="1.0"
     inkscape:pageopacity="0.0"
     inkscape:pageshadow="2"
     inkscape:zoom="2.24"
     inkscape:cx="-9.4050617"
     inkscape:cy="104.3541"
     inkscape:document-units="mm"
     inkscape:current-layer="layer1"
     showgrid="true"
     inkscape:window-width="1366"
     inkscape:window-height="705"
     inkscape:window-x="-8"
     inkscape:window-y="-8"
     inkscape:window-maximized="1"
     units="mm"
     inkscape:snap-bbox="true"
     inkscape:bbox-paths="true"
     inkscape:bbox-nodes="true"
     showguides="true"
     inkscape:guide-bbox="true"
     inkscape:snap-bbox-midpoints="true"
     inkscape:snap-bbox-edge-midpoints="true">
    <inkscape:grid
       type="xygrid"
       id="grid3231"
       empspacing="5"
       visible="true"
       enabled="true"
       snapvisiblegridlinesonly="true"
       units="mm"
       spacingx="1mm"
       spacingy="1mm"
       color="#e200ff"
       opacity="0.1254902"
       empcolor="#920092"
       empopacity="0.25098039" />
    <sodipodi:guide
       orientation="0,1"
       position="209.05512,0"
       id="guide3203" />
    <sodipodi:guide
       orientation="1,0"
       position="0,53.149606"
       id="guide3775" />
    <sodipodi:guide
       orientation="1,0"
       position="24.80315,92.125984"
       id="guide3787" />
    <sodipodi:guide
       orientation="0,1"
       position="-14.173228,162.99213"
       id="guide3789" />
    <sodipodi:guide
       orientation="1,0"
       position="145.27559,92.125984"
       id="guide3890" />
    <sodipodi:guide
       orientation="0,1"
       position="152.3622,148.8189"
       id="guide3925" />
    <sodipodi:guide
       orientation="0,1"
       position="162.99213,14.173228"
       id="guide3927" />
    <sodipodi:guide
       orientation="0,1"
       position="38.976378,-14.173228"
       id="guide3929" />
    <sodipodi:guide
       orientation="1,0"
       position="38.976378,-10.629921"
       id="guide3931" />
    <sodipodi:guide
       orientation="1,0"
       position="131.10236,-31.889764"
       id="guide3933" />
    <sodipodi:guide
       orientation="1,0"
       position="53.149606,-24.80315"
       id="guide3935" />
    <sodipodi:guide
       orientation="1,0"
       position="116.92913,-21.259843"
       id="guide3937" />
    <sodipodi:guide
       orientation="0,1"
       position="141.73228,177.16535"
       id="guide3939" />
    <sodipodi:guide
       orientation="1,0"
       position="10.629921,187.79528"
       id="guide3945" />
    <sodipodi:guide
       orientation="1,0"
       position="159.44882,187.79528"
       id="guide3947" />
    <sodipodi:guide
       orientation="1,0"
       position="-14.173228,148.8189"
       id="guide3949" />
    <sodipodi:guide
       orientation="1,0"
       position="184.25197,120.47244"
       id="guide3951" />
  </sodipodi:namedview>
  <metadata
     id="metadata7">
    <rdf:RDF>
      <cc:Work
         rdf:about="">
        <dc:format>image/svg+xml</dc:format>
        <dc:type
           rdf:resource="http://purl.org/dc/dcmitype/StillImage" />
        <dc:title></dc:title>
      </cc:Work>
    </rdf:RDF>
  </metadata>
  <g
     inkscape:label="Layer 1"
     inkscape:groupmode="layer"
     id="layer1"
     transform="translate(0,-308.26769)">
    <path
       style="fill:#917c6f;fill-opacity:1;stroke:#000000;stroke-width:0;stroke-linecap:butt;stroke-linejoin:miter;stroke-miterlimit:4;stroke-opacity:1;stroke-dasharray:none"
       d="m 24.803151,1024.0157 -4.734234,-1.1653 -3.256593,-2.1185 -1.918659,-3.134 -0.720435,-4.2121 -2e-6,-113.38583 0.727338,-5.11402 2.137499,-3.31928 3.36256,-1.7601 4.402524,-0.43652 14.173229,-10e-6 -38.976378,0 0,-14.17323 53.149606,0 0,-14.17322 14.173228,0 0,14.17322 63.779526,10e-6 0,-14.17323 14.17323,0 0,14.17323 53.14961,-10e-6 0,14.17323 -38.97638,0 14.17323,0 4.69554,0.61942 3.5122,1.80277 2.06582,3.24914 0.35636,4.9586 0,113.38583 -0.42469,4.2523 -1.77074,3.2909 -3.3305,2.1767 -5.10399,0.91 -14.17323,0 38.97638,0 0,14.1733 -53.14961,0 0,14.1732 -14.17323,0 0,-14.1732 -63.779526,0 0,14.1732 -14.173228,0 0,-14.1732 -53.149606,0 0,-14.1733 38.976378,0 z"
       id="path3236"
       inkscape:connector-curvature="0"
       sodipodi:nodetypes="ccccccccccccccccccccccccccccccccccccccccccccccccc" />
    <path
       style="fill:#803300;fill-opacity:1;stroke:none"
       d="m 21.175656,903.54332 c 0,-0.4936 0.05,-0.9755 0.1457,-1.4408 0.096,-0.4654 0.2364,-0.9144 0.4179,-1.342 0.1814,-0.4277 0.4034,-0.834 0.6611,-1.2144 0.2577,-0.3803 0.5512,-0.7346 0.8756,-1.058 0.3244,-0.3235 0.6798,-0.6161 1.0613,-0.873 0.3815,-0.257 0.7891,-0.4783 1.218,-0.6591 0.429,-0.1809 0.8792,-0.3214 1.3461,-0.4166 0.4668,-0.095 0.9501,-0.1453 1.4451,-0.1453 0.4951,0 0.9784,0.05 1.4452,0.1453 0.4668,0.095 0.9171,0.2357 1.346,0.4166 0.4289,0.1808 0.8366,0.4021 1.2181,0.6591 0.3814,0.2569 0.7368,0.5495 1.0612,0.873 0.3244,0.3234 0.6179,0.6777 0.8756,1.058 0.2578,0.3804 0.4797,0.7867 0.6612,1.2144 0.1814,0.4276 0.3223,0.8766 0.4178,1.342 0.095,0.4653 0.1457,0.9472 0.1457,1.4408 0,0.4935 -0.05,0.9754 -0.1457,1.4407 -0.096,0.4654 -0.2364,0.9144 -0.4178,1.342 -0.1815,0.4277 -0.4034,0.8341 -0.6612,1.2144 -0.2577,0.3803 -0.5512,0.7346 -0.8756,1.058 -0.3244,0.3235 -0.6798,0.6161 -1.0612,0.873 -0.3815,0.257 -0.7892,0.4783 -1.2181,0.6592 -0.4289,0.1808 -0.8792,0.3213 -1.346,0.4165 -0.4668,0.095 -0.9502,0.1453 -1.4452,0.1453 -0.495,0 -0.9783,-0.05 -1.4451,-0.1453 -0.4668,-0.095 -0.9171,-0.2357 -1.3461,-0.4165 -0.4289,-0.1809 -0.8365,-0.4022 -1.218,-0.6592 -0.3815,-0.2569 -0.7369,-0.5495 -1.0613,-0.873 -0.3244,-0.3234 -0.6179,-0.6777 -0.8756,-1.058 -0.2577,-0.3803 -0.4797,-0.7867 -0.6611,-1.2144 -0.1815,-0.4276 -0.3223,-0.8766 -0.4179,-1.342 -0.096,-0.4653 -0.1457,-0.9472 -0.1457,-1.4407 z"
       id="path3790-5-6"
       inkscape:connector-curvature="0"
       sodipodi:nodetypes="sssssssssssssssssssssssssssssssss" />
    <path
       style="fill:#803300;fill-opacity:1;stroke:none"
       d="m 21.175716,938.97632 c 0,-0.4935 0.05,-0.9754 0.1457,-1.4408 0.095,-0.4654 0.2364,-0.9143 0.4178,-1.3419 0.1814,-0.4277 0.4034,-0.8341 0.6611,-1.2144 0.2578,-0.3803 0.5512,-0.7346 0.8756,-1.0581 0.3245,-0.3234 0.6798,-0.616 1.0613,-0.8729 0.3815,-0.257 0.7891,-0.4783 1.2181,-0.6592 0.4289,-0.1809 0.8792,-0.3213 1.346,-0.4165 0.4668,-0.095 0.9501,-0.1453 1.4451,-0.1453 0.4951,0 0.9784,0.05 1.4452,0.1453 0.4668,0.095 0.9171,0.2356 1.346,0.4165 0.429,0.1809 0.8366,0.4022 1.2181,0.6592 0.3815,0.2569 0.7368,0.5495 1.0612,0.8729 0.3244,0.3235 0.6179,0.6778 0.8757,1.0581 0.2577,0.3803 0.4797,0.7867 0.6611,1.2144 0.1814,0.4276 0.3223,0.8765 0.4178,1.3419 0.096,0.4654 0.1457,0.9473 0.1457,1.4408 0,0.4936 -0.05,0.9754 -0.1457,1.4408 -0.095,0.4654 -0.2364,0.9143 -0.4178,1.342 -0.1814,0.4276 -0.4034,0.834 -0.6611,1.2144 -0.2578,0.3803 -0.5513,0.7346 -0.8757,1.058 -0.3244,0.3234 -0.6797,0.616 -1.0612,0.873 -0.3815,0.2569 -0.7891,0.4782 -1.2181,0.6591 -0.4289,0.1809 -0.8792,0.3214 -1.346,0.4166 -0.4668,0.095 -0.9501,0.1452 -1.4452,0.1452 -0.495,0 -0.9783,-0.05 -1.4451,-0.1452 -0.4668,-0.095 -0.9171,-0.2357 -1.346,-0.4166 -0.429,-0.1809 -0.8366,-0.4022 -1.2181,-0.6591 -0.3815,-0.257 -0.7368,-0.5496 -1.0613,-0.873 -0.3244,-0.3234 -0.6178,-0.6777 -0.8756,-1.058 -0.2577,-0.3804 -0.4797,-0.7868 -0.6611,-1.2144 -0.1814,-0.4277 -0.3223,-0.8766 -0.4178,-1.342 -0.096,-0.4654 -0.1457,-0.9472 -0.1457,-1.4408 z"
       id="path3790-61-7"
       inkscape:connector-curvature="0"
       sodipodi:nodetypes="sssssssssssssssssssssssssssssssss" />
    <path
       style="fill:#803300;fill-opacity:1;stroke:none"
       d="m 21.175716,974.4094 c 0,-0.4936 0.05,-0.9754 0.1457,-1.4408 0.095,-0.4654 0.2364,-0.9143 0.4178,-1.34199 0.1814,-0.4276 0.4034,-0.834 0.6611,-1.2144 0.2578,-0.3803 0.5512,-0.7346 0.8756,-1.058 0.3245,-0.3234 0.6798,-0.616 1.0613,-0.873 0.3815,-0.2569 0.7891,-0.4782 1.2181,-0.6591 0.4289,-0.1809 0.8792,-0.3214 1.346,-0.4166 0.4668,-0.095 0.9501,-0.1452 1.4451,-0.1452 0.4951,0 0.9784,0.05 1.4452,0.1452 0.4668,0.095 0.9171,0.2357 1.346,0.4166 0.429,0.1809 0.8366,0.4022 1.2181,0.6591 0.3815,0.257 0.7368,0.5496 1.0612,0.873 0.3244,0.3234 0.6179,0.6777 0.8757,1.058 0.2577,0.3804 0.4797,0.7868 0.6611,1.2144 0.1814,0.42769 0.3223,0.87659 0.4178,1.34199 0.096,0.4654 0.1457,0.9472 0.1457,1.4408 0,0.4935 -0.05,0.9754 -0.1457,1.4408 -0.095,0.4654 -0.2364,0.9143 -0.4178,1.3419 -0.1814,0.4277 -0.4034,0.8341 -0.6611,1.2144 -0.2578,0.3804 -0.5513,0.7346 -0.8757,1.0581 -0.3244,0.3234 -0.6797,0.616 -1.0612,0.8729 -0.3815,0.257 -0.7891,0.4783 -1.2181,0.6592 -0.4289,0.1809 -0.8792,0.3213 -1.346,0.4165 -0.4668,0.095 -0.9501,0.1453 -1.4452,0.1453 -0.495,0 -0.9783,-0.05 -1.4451,-0.1453 -0.4668,-0.095 -0.9171,-0.2356 -1.346,-0.4165 -0.429,-0.1809 -0.8366,-0.4022 -1.2181,-0.6592 -0.3815,-0.2569 -0.7368,-0.5495 -1.0613,-0.8729 -0.3244,-0.3235 -0.6178,-0.6777 -0.8756,-1.0581 -0.2577,-0.3803 -0.4797,-0.7867 -0.6611,-1.2144 -0.1814,-0.4276 -0.3223,-0.8765 -0.4178,-1.3419 -0.096,-0.4654 -0.1457,-0.9473 -0.1457,-1.4408 z"
       id="path3790-2-9"
       inkscape:connector-curvature="0"
       sodipodi:nodetypes="sssssssssssssssssssssssssssssssss" />
    <path
       style="fill:#803300;fill-opacity:1;stroke:none"
       d="m 21.317916,1009.978 c 0,-0.4936 0.05,-0.9755 0.1457,-1.4408 0.095,-0.4654 0.2364,-0.9144 0.4178,-1.342 0.1814,-0.4277 0.4034,-0.834 0.6611,-1.2144 0.2578,-0.3803 0.5512,-0.7346 0.8756,-1.058 0.3245,-0.3235 0.6798,-0.6161 1.0613,-0.873 0.3815,-0.257 0.7891,-0.4783 1.218,-0.6591 0.429,-0.1809 0.8793,-0.3214 1.3461,-0.4166 0.4668,-0.095 0.9501,-0.1453 1.4451,-0.1453 0.4951,0 0.9784,0.05 1.4452,0.1453 0.4668,0.095 0.9171,0.2357 1.346,0.4166 0.429,0.1808 0.8366,0.4021 1.2181,0.6591 0.3815,0.2569 0.7368,0.5495 1.0612,0.873 0.3244,0.3234 0.6179,0.6777 0.8757,1.058 0.2577,0.3804 0.4797,0.7867 0.6611,1.2144 0.1814,0.4276 0.3223,0.8766 0.4178,1.342 0.095,0.4653 0.1457,0.9472 0.1457,1.4408 0,0.4935 -0.05,0.9754 -0.1457,1.4407 -0.095,0.4654 -0.2364,0.9144 -0.4178,1.342 -0.1814,0.4277 -0.4034,0.8341 -0.6611,1.2144 -0.2578,0.3803 -0.5513,0.7346 -0.8757,1.058 -0.3244,0.3235 -0.6797,0.6161 -1.0612,0.873 -0.3815,0.257 -0.7891,0.4783 -1.2181,0.6592 -0.4289,0.1808 -0.8792,0.3213 -1.346,0.4165 -0.4668,0.095 -0.9501,0.1453 -1.4452,0.1453 -0.495,0 -0.9783,-0.05 -1.4451,-0.1453 -0.4668,-0.095 -0.9171,-0.2357 -1.3461,-0.4165 -0.4289,-0.1809 -0.8365,-0.4022 -1.218,-0.6592 -0.3815,-0.2569 -0.7368,-0.5495 -1.0613,-0.873 -0.3244,-0.3234 -0.6178,-0.6777 -0.8756,-1.058 -0.2577,-0.3803 -0.4797,-0.7867 -0.6611,-1.2144 -0.1814,-0.4276 -0.3223,-0.8766 -0.4178,-1.342 -0.096,-0.4653 -0.1457,-0.9472 -0.1457,-1.4407 z"
       id="path3790-5-2-1"
       inkscape:connector-curvature="0"
       sodipodi:nodetypes="sssssssssssssssssssssssssssssssss" />
    <path
       style="fill:#803300;fill-opacity:1;stroke:none"
       d="m 134.85217,1002.7275 c 0.4936,0 0.9755,0.05 1.4408,0.1457 0.4654,0.096 0.9144,0.2364 1.342,0.4179 0.4277,0.1813 0.834,0.4033 1.2144,0.6611 0.3803,0.2576 0.7346,0.5511 1.058,0.8755 0.3235,0.3245 0.6161,0.6799 0.873,1.0614 0.257,0.3814 0.4783,0.789 0.6591,1.218 0.1809,0.4289 0.3214,0.8791 0.4166,1.3461 0.095,0.4667 0.1453,0.9501 0.1453,1.445 0,0.4952 -0.05,0.9784 -0.1453,1.4453 -0.095,0.4668 -0.2357,0.917 -0.4166,1.346 -0.1808,0.4288 -0.4021,0.8365 -0.6591,1.2181 -0.2569,0.3814 -0.5495,0.7368 -0.873,1.0612 -0.3234,0.3243 -0.6777,0.6178 -1.058,0.8756 -0.3804,0.2577 -0.7867,0.4796 -1.2144,0.6612 -0.4276,0.1814 -0.8766,0.3223 -1.342,0.4178 -0.4653,0.095 -0.9472,0.1457 -1.4408,0.1457 -0.4935,0 -0.9754,-0.05 -1.4407,-0.1457 -0.4654,-0.096 -0.9144,-0.2364 -1.342,-0.4178 -0.4277,-0.1816 -0.8341,-0.4035 -1.2144,-0.6612 -0.3803,-0.2578 -0.7346,-0.5513 -1.058,-0.8756 -0.3235,-0.3244 -0.6161,-0.6798 -0.873,-1.0612 -0.257,-0.3816 -0.4783,-0.7893 -0.6592,-1.2181 -0.1808,-0.429 -0.3213,-0.8792 -0.4165,-1.346 -0.095,-0.4669 -0.1453,-0.9502 -0.1453,-1.4453 0,-0.4949 0.05,-0.9783 0.1453,-1.445 0.095,-0.4668 0.2357,-0.9172 0.4165,-1.3461 0.1809,-0.429 0.4022,-0.8366 0.6592,-1.218 0.2569,-0.3815 0.5495,-0.7369 0.873,-1.0614 0.3234,-0.3244 0.6777,-0.6179 1.058,-0.8755 0.3803,-0.2578 0.7867,-0.4798 1.2144,-0.6611 0.4276,-0.1815 0.8766,-0.3223 1.342,-0.4179 0.4653,-0.096 0.9472,-0.1457 1.4407,-0.1457 z"
       id="path3790-5-6-7"
       inkscape:connector-curvature="0"
       sodipodi:nodetypes="sssssssssssssssssssssssssssssssss" />
    <path
       style="fill:#803300;fill-opacity:1;stroke:none"
       d="m 99.419164,1002.7275 c 0.4935,0 0.975396,0.05 1.440796,0.1457 0.4654,0.095 0.9143,0.2364 1.3419,0.4178 0.4277,0.1814 0.8341,0.4034 1.2144,0.6611 0.3803,0.2578 0.7346,0.5512 1.0581,0.8756 0.3234,0.3245 0.616,0.6798 0.8729,1.0613 0.257,0.3815 0.4783,0.7891 0.6592,1.2181 0.1809,0.4289 0.3213,0.8792 0.4165,1.346 0.095,0.4668 0.1453,0.9501 0.1453,1.4451 0,0.4951 -0.05,0.9784 -0.1453,1.4452 -0.095,0.4668 -0.2356,0.9171 -0.4165,1.346 -0.1809,0.429 -0.4022,0.8366 -0.6592,1.2181 -0.2569,0.3815 -0.5495,0.7368 -0.8729,1.0612 -0.3235,0.3244 -0.6778,0.6179 -1.0581,0.8757 -0.3803,0.2577 -0.7867,0.4797 -1.2144,0.6611 -0.4276,0.1814 -0.8765,0.3223 -1.3419,0.4178 -0.4654,0.096 -0.947296,0.1457 -1.440796,0.1457 -0.4936,0 -0.9754,-0.05 -1.4408,-0.1457 -0.4654,-0.095 -0.9143,-0.2364 -1.342,-0.4178 -0.4276,-0.1814 -0.834,-0.4034 -1.2144,-0.6611 -0.3803,-0.2578 -0.7346,-0.5513 -1.058,-0.8757 -0.3234,-0.3244 -0.616,-0.6797 -0.873,-1.0612 -0.2569,-0.3815 -0.4782,-0.7891 -0.6591,-1.2181 -0.1809,-0.4289 -0.3214,-0.8792 -0.4166,-1.346 -0.095,-0.4668 -0.1452,-0.9501 -0.1452,-1.4452 0,-0.495 0.05,-0.9783 0.1452,-1.4451 0.095,-0.4668 0.2357,-0.9171 0.4166,-1.346 0.1809,-0.429 0.4022,-0.8366 0.6591,-1.2181 0.257,-0.3815 0.5496,-0.7368 0.873,-1.0613 0.3234,-0.3244 0.6777,-0.6178 1.058,-0.8756 0.3804,-0.2577 0.7868,-0.4797 1.2144,-0.6611 0.4277,-0.1814 0.8766,-0.3223 1.342,-0.4178 0.4654,-0.096 0.9472,-0.1457 1.4408,-0.1457 z"
       id="path3790-61-7-4"
       inkscape:connector-curvature="0"
       sodipodi:nodetypes="sssssssssssssssssssssssssssssssss" />
    <path
       style="fill:#803300;fill-opacity:1;stroke:none"
       d="m 63.986084,1002.7275 c 0.4936,0 0.9754,0.05 1.4408,0.1457 0.4654,0.095 0.9143,0.2364 1.34199,0.4178 0.4276,0.1814 0.834,0.4034 1.2144,0.6611 0.3803,0.2578 0.7346,0.5512 1.058,0.8756 0.3234,0.3245 0.616,0.6798 0.873,1.0613 0.2569,0.3815 0.4782,0.7891 0.6591,1.2181 0.1809,0.4289 0.3214,0.8792 0.4166,1.346 0.095,0.4668 0.1452,0.9501 0.1452,1.4451 0,0.4951 -0.05,0.9784 -0.1452,1.4452 -0.095,0.4668 -0.2357,0.9171 -0.4166,1.346 -0.1809,0.429 -0.4022,0.8366 -0.6591,1.2181 -0.257,0.3815 -0.5496,0.7368 -0.873,1.0612 -0.3234,0.3244 -0.6777,0.6179 -1.058,0.8757 -0.3804,0.2577 -0.7868,0.4797 -1.2144,0.6611 -0.42769,0.1814 -0.87659,0.3223 -1.34199,0.4178 -0.4654,0.096 -0.9472,0.1457 -1.4408,0.1457 -0.4935,0 -0.9754,-0.05 -1.4408,-0.1457 -0.4654,-0.095 -0.9143,-0.2364 -1.3419,-0.4178 -0.4277,-0.1814 -0.8341,-0.4034 -1.2144,-0.6611 -0.3804,-0.2578 -0.7346,-0.5513 -1.0581,-0.8757 -0.3234,-0.3244 -0.616,-0.6797 -0.8729,-1.0612 -0.257,-0.3815 -0.4783,-0.7891 -0.6592,-1.2181 -0.1809,-0.4289 -0.3213,-0.8792 -0.4165,-1.346 -0.095,-0.4668 -0.1453,-0.9501 -0.1453,-1.4452 0,-0.495 0.05,-0.9783 0.1453,-1.4451 0.095,-0.4668 0.2356,-0.9171 0.4165,-1.346 0.1809,-0.429 0.4022,-0.8366 0.6592,-1.2181 0.2569,-0.3815 0.5495,-0.7368 0.8729,-1.0613 0.3235,-0.3244 0.6777,-0.6178 1.0581,-0.8756 0.3803,-0.2577 0.7867,-0.4797 1.2144,-0.6611 0.4276,-0.1814 0.8765,-0.3223 1.3419,-0.4178 0.4654,-0.096 0.9473,-0.1457 1.4408,-0.1457 z"
       id="path3790-2-9-0"
       inkscape:connector-curvature="0"
       sodipodi:nodetypes="sssssssssssssssssssssssssssssssss" />
    <path
       style="fill:#803300;fill-opacity:1;stroke:none"
       d="m 170.08723,1002.7985 c 0.4936,0 0.9755,0.05 1.4408,0.1457 0.4654,0.096 0.9144,0.2364 1.342,0.4179 0.4277,0.1813 0.834,0.4033 1.2144,0.6611 0.3803,0.2576 0.7346,0.5511 1.058,0.8755 0.3235,0.3245 0.6161,0.6799 0.873,1.0614 0.257,0.3814 0.4783,0.789 0.6591,1.218 0.1809,0.4289 0.3214,0.8791 0.4166,1.3461 0.095,0.4667 0.1453,0.9501 0.1453,1.445 0,0.4952 -0.05,0.9784 -0.1453,1.4453 -0.095,0.4668 -0.2357,0.917 -0.4166,1.346 -0.1808,0.4288 -0.4021,0.8365 -0.6591,1.2181 -0.2569,0.3814 -0.5495,0.7368 -0.873,1.0612 -0.3234,0.3243 -0.6777,0.6178 -1.058,0.8756 -0.3804,0.2577 -0.7867,0.4796 -1.2144,0.6612 -0.4276,0.1814 -0.8766,0.3223 -1.342,0.4178 -0.4653,0.095 -0.9472,0.1457 -1.4408,0.1457 -0.4935,0 -0.9754,-0.05 -1.4407,-0.1457 -0.4654,-0.096 -0.9144,-0.2364 -1.342,-0.4178 -0.4277,-0.1816 -0.8341,-0.4035 -1.2144,-0.6612 -0.3803,-0.2578 -0.7346,-0.5513 -1.058,-0.8756 -0.3235,-0.3244 -0.6161,-0.6798 -0.873,-1.0612 -0.257,-0.3816 -0.4783,-0.7893 -0.6592,-1.2181 -0.1808,-0.429 -0.3213,-0.8792 -0.4165,-1.346 -0.095,-0.4669 -0.1453,-0.9502 -0.1453,-1.4453 0,-0.4949 0.05,-0.9783 0.1453,-1.445 0.095,-0.4668 0.2357,-0.9172 0.4165,-1.3461 0.1809,-0.429 0.4022,-0.8366 0.6592,-1.218 0.2569,-0.3815 0.5495,-0.7369 0.873,-1.0614 0.3234,-0.3244 0.6777,-0.6179 1.058,-0.8755 0.3803,-0.2578 0.7867,-0.4798 1.2144,-0.6611 0.4276,-0.1815 0.8766,-0.3223 1.342,-0.4179 0.4653,-0.096 0.9472,-0.1457 1.4407,-0.1457 z"
       id="path3790-5-6-7-4"
       inkscape:connector-curvature="0"
       sodipodi:nodetypes="sssssssssssssssssssssssssssssssss" />
    <path
       style="fill:#803300;fill-opacity:1;stroke:none"
       d="m 162.83681,903.60585 c 0,-0.4936 0.05,-0.9755 0.1457,-1.4408 0.096,-0.4654 0.2364,-0.9144 0.4179,-1.342 0.1814,-0.4277 0.4034,-0.834 0.6611,-1.2144 0.2577,-0.3803 0.5512,-0.7346 0.8756,-1.058 0.3244,-0.3235 0.6798,-0.6161 1.0613,-0.873 0.3815,-0.257 0.7891,-0.4783 1.218,-0.6591 0.429,-0.1809 0.8792,-0.3214 1.3461,-0.4166 0.4668,-0.095 0.9501,-0.1453 1.4451,-0.1453 0.4951,0 0.9784,0.05 1.4452,0.1453 0.4668,0.095 0.9171,0.2357 1.346,0.4166 0.4289,0.1808 0.8366,0.4021 1.2181,0.6591 0.3814,0.2569 0.7368,0.5495 1.0612,0.873 0.3244,0.3234 0.6179,0.6777 0.8756,1.058 0.2578,0.3804 0.4797,0.7867 0.6612,1.2144 0.1814,0.4276 0.3223,0.8766 0.4178,1.342 0.095,0.4653 0.1457,0.9472 0.1457,1.4408 0,0.4935 -0.05,0.9754 -0.1457,1.4407 -0.096,0.4654 -0.2364,0.9144 -0.4178,1.342 -0.1815,0.4277 -0.4034,0.8341 -0.6612,1.2144 -0.2577,0.3803 -0.5512,0.7346 -0.8756,1.058 -0.3244,0.3235 -0.6798,0.6161 -1.0612,0.873 -0.3815,0.257 -0.7892,0.4783 -1.2181,0.6592 -0.4289,0.1808 -0.8792,0.3213 -1.346,0.4165 -0.4668,0.095 -0.9502,0.1453 -1.4452,0.1453 -0.495,0 -0.9783,-0.05 -1.4451,-0.1453 -0.4668,-0.095 -0.9171,-0.2357 -1.3461,-0.4165 -0.4289,-0.1809 -0.8365,-0.4022 -1.218,-0.6592 -0.3815,-0.2569 -0.7369,-0.5495 -1.0613,-0.873 -0.3244,-0.3234 -0.6179,-0.6777 -0.8756,-1.058 -0.2577,-0.3803 -0.4797,-0.7867 -0.6611,-1.2144 -0.1815,-0.4276 -0.3223,-0.8766 -0.4179,-1.342 -0.096,-0.4653 -0.1457,-0.9472 -0.1457,-1.4407 z"
       id="path3790-5-6-8"
       inkscape:connector-curvature="0"
       sodipodi:nodetypes="sssssssssssssssssssssssssssssssss" />
    <path
       style="fill:#803300;fill-opacity:1;stroke:none"
       d="m 162.83687,939.03882 c 0,-0.4935 0.05,-0.9754 0.1457,-1.4408 0.095,-0.4654 0.2364,-0.9143 0.4178,-1.3419 0.1814,-0.4277 0.4034,-0.8341 0.6611,-1.2144 0.2578,-0.3803 0.5512,-0.7346 0.8756,-1.0581 0.3245,-0.3234 0.6798,-0.616 1.0613,-0.8729 0.3815,-0.257 0.7891,-0.4783 1.2181,-0.6592 0.4289,-0.1809 0.8792,-0.3213 1.346,-0.4165 0.4668,-0.095 0.9501,-0.1453 1.4451,-0.1453 0.4951,0 0.9784,0.05 1.4452,0.1453 0.4668,0.095 0.9171,0.2356 1.346,0.4165 0.429,0.1809 0.8366,0.4022 1.2181,0.6592 0.3815,0.2569 0.7368,0.5495 1.0612,0.8729 0.3244,0.3235 0.6179,0.6778 0.8757,1.0581 0.2577,0.3803 0.4797,0.7867 0.6611,1.2144 0.1814,0.4276 0.3223,0.8765 0.4178,1.3419 0.096,0.4654 0.1457,0.9473 0.1457,1.4408 0,0.4936 -0.05,0.9754 -0.1457,1.4408 -0.095,0.4654 -0.2364,0.9143 -0.4178,1.342 -0.1814,0.4276 -0.4034,0.834 -0.6611,1.2144 -0.2578,0.3803 -0.5513,0.7346 -0.8757,1.058 -0.3244,0.3234 -0.6797,0.616 -1.0612,0.873 -0.3815,0.2569 -0.7891,0.4782 -1.2181,0.6591 -0.4289,0.1809 -0.8792,0.3214 -1.346,0.4166 -0.4668,0.095 -0.9501,0.1452 -1.4452,0.1452 -0.495,0 -0.9783,-0.05 -1.4451,-0.1452 -0.4668,-0.095 -0.9171,-0.2357 -1.346,-0.4166 -0.429,-0.1809 -0.8366,-0.4022 -1.2181,-0.6591 -0.3815,-0.257 -0.7368,-0.5496 -1.0613,-0.873 -0.3244,-0.3234 -0.6178,-0.6777 -0.8756,-1.058 -0.2577,-0.3804 -0.4797,-0.7868 -0.6611,-1.2144 -0.1814,-0.4277 -0.3223,-0.8766 -0.4178,-1.342 -0.096,-0.4654 -0.1457,-0.9472 -0.1457,-1.4408 z"
       id="path3790-61-7-2"
       inkscape:connector-curvature="0"
       sodipodi:nodetypes="sssssssssssssssssssssssssssssssss" />
    <path
       style="fill:#803300;fill-opacity:1;stroke:none"
       d="m 162.83687,974.4719 c 0,-0.4936 0.05,-0.9754 0.1457,-1.4408 0.095,-0.4654 0.2364,-0.9143 0.4178,-1.34198 0.1814,-0.4276 0.4034,-0.834 0.6611,-1.2144 0.2578,-0.3803 0.5512,-0.7346 0.8756,-1.058 0.3245,-0.3234 0.6798,-0.616 1.0613,-0.873 0.3815,-0.2569 0.7891,-0.4782 1.2181,-0.6591 0.4289,-0.1809 0.8792,-0.3214 1.346,-0.4166 0.4668,-0.095 0.9501,-0.1452 1.4451,-0.1452 0.4951,0 0.9784,0.05 1.4452,0.1452 0.4668,0.095 0.9171,0.2357 1.346,0.4166 0.429,0.1809 0.8366,0.4022 1.2181,0.6591 0.3815,0.257 0.7368,0.5496 1.0612,0.873 0.3244,0.3234 0.6179,0.6777 0.8757,1.058 0.2577,0.3804 0.4797,0.7868 0.6611,1.2144 0.1814,0.42768 0.3223,0.87658 0.4178,1.34198 0.096,0.4654 0.1457,0.9472 0.1457,1.4408 0,0.4935 -0.05,0.9754 -0.1457,1.4408 -0.095,0.4654 -0.2364,0.9143 -0.4178,1.3419 -0.1814,0.4277 -0.4034,0.8341 -0.6611,1.2144 -0.2578,0.3804 -0.5513,0.7346 -0.8757,1.0581 -0.3244,0.3234 -0.6797,0.616 -1.0612,0.8729 -0.3815,0.257 -0.7891,0.4783 -1.2181,0.6592 -0.4289,0.1809 -0.8792,0.3213 -1.346,0.4165 -0.4668,0.095 -0.9501,0.1453 -1.4452,0.1453 -0.495,0 -0.9783,-0.05 -1.4451,-0.1453 -0.4668,-0.095 -0.9171,-0.2356 -1.346,-0.4165 -0.429,-0.1809 -0.8366,-0.4022 -1.2181,-0.6592 -0.3815,-0.2569 -0.7368,-0.5495 -1.0613,-0.8729 -0.3244,-0.3235 -0.6178,-0.6777 -0.8756,-1.0581 -0.2577,-0.3803 -0.4797,-0.7867 -0.6611,-1.2144 -0.1814,-0.4276 -0.3223,-0.8765 -0.4178,-1.3419 -0.096,-0.4654 -0.1457,-0.9473 -0.1457,-1.4408 z"
       id="path3790-2-9-4"
       inkscape:connector-curvature="0"
       sodipodi:nodetypes="sssssssssssssssssssssssssssssssss" />
    <path
       style="fill:#803300;fill-opacity:1;stroke:none"
       d="m 134.62582,896.29282 c 0.4936,0 0.9755,0.05 1.4408,0.1457 0.4654,0.096 0.9144,0.2364 1.342,0.4179 0.4277,0.1813 0.834,0.4033 1.2144,0.6611 0.3803,0.2576 0.7346,0.5511 1.058,0.8755 0.3235,0.3245 0.6161,0.6799 0.873,1.0614 0.257,0.3814 0.4783,0.789 0.6591,1.218 0.1809,0.4289 0.3214,0.8791 0.4166,1.3461 0.095,0.4667 0.1453,0.9501 0.1453,1.445 0,0.4952 -0.05,0.9784 -0.1453,1.4453 -0.095,0.4668 -0.2357,0.917 -0.4166,1.346 -0.1808,0.4288 -0.4021,0.8365 -0.6591,1.2181 -0.2569,0.3814 -0.5495,0.7368 -0.873,1.0612 -0.3234,0.3243 -0.6777,0.6178 -1.058,0.8756 -0.3804,0.2577 -0.7867,0.4796 -1.2144,0.6612 -0.4276,0.1814 -0.8766,0.3223 -1.342,0.4178 -0.4653,0.095 -0.9472,0.1457 -1.4408,0.1457 -0.4935,0 -0.9754,-0.05 -1.4407,-0.1457 -0.4654,-0.096 -0.9144,-0.2364 -1.342,-0.4178 -0.4277,-0.1816 -0.8341,-0.4035 -1.2144,-0.6612 -0.3803,-0.2578 -0.7346,-0.5513 -1.058,-0.8756 -0.3235,-0.3244 -0.6161,-0.6798 -0.873,-1.0612 -0.257,-0.3816 -0.4783,-0.7893 -0.6592,-1.2181 -0.1808,-0.429 -0.3213,-0.8792 -0.4165,-1.346 -0.095,-0.4669 -0.1453,-0.9502 -0.1453,-1.4453 0,-0.4949 0.05,-0.9783 0.1453,-1.445 0.095,-0.4668 0.2357,-0.9172 0.4165,-1.3461 0.1809,-0.429 0.4022,-0.8366 0.6592,-1.218 0.2569,-0.3815 0.5495,-0.7369 0.873,-1.0614 0.3234,-0.3244 0.6777,-0.6179 1.058,-0.8755 0.3803,-0.2578 0.7867,-0.4798 1.2144,-0.6611 0.4276,-0.1815 0.8766,-0.3223 1.342,-0.4179 0.4653,-0.096 0.9472,-0.1457 1.4407,-0.1457 z"
       id="path3790-5-6-7-1"
       inkscape:connector-curvature="0"
       sodipodi:nodetypes="sssssssssssssssssssssssssssssssss" />
    <path
       style="fill:#803300;fill-opacity:1;stroke:none"
       d="m 99.192819,896.29282 c 0.4935,0 0.975401,0.05 1.440801,0.1457 0.4654,0.095 0.9143,0.2364 1.3419,0.4178 0.4277,0.1814 0.8341,0.4034 1.2144,0.6611 0.3803,0.2578 0.7346,0.5512 1.0581,0.8756 0.3234,0.3245 0.616,0.6798 0.8729,1.0613 0.257,0.3815 0.4783,0.7891 0.6592,1.2181 0.1809,0.4289 0.3213,0.8792 0.4165,1.346 0.095,0.4668 0.1453,0.9501 0.1453,1.4451 0,0.4951 -0.05,0.9784 -0.1453,1.4452 -0.095,0.4668 -0.2356,0.9171 -0.4165,1.346 -0.1809,0.429 -0.4022,0.8366 -0.6592,1.2181 -0.2569,0.3815 -0.5495,0.7368 -0.8729,1.0612 -0.3235,0.3244 -0.6778,0.6179 -1.0581,0.8757 -0.3803,0.2577 -0.7867,0.4797 -1.2144,0.6611 -0.4276,0.1814 -0.8765,0.3223 -1.3419,0.4178 -0.4654,0.096 -0.947301,0.1457 -1.440801,0.1457 -0.4936,0 -0.9754,-0.05 -1.4408,-0.1457 -0.4654,-0.095 -0.9143,-0.2364 -1.342,-0.4178 -0.4276,-0.1814 -0.834,-0.4034 -1.2144,-0.6611 -0.3803,-0.2578 -0.7346,-0.5513 -1.058,-0.8757 -0.3234,-0.3244 -0.616,-0.6797 -0.873,-1.0612 -0.2569,-0.3815 -0.4782,-0.7891 -0.6591,-1.2181 -0.1809,-0.4289 -0.3214,-0.8792 -0.4166,-1.346 -0.095,-0.4668 -0.1452,-0.9501 -0.1452,-1.4452 0,-0.495 0.05,-0.9783 0.1452,-1.4451 0.095,-0.4668 0.2357,-0.9171 0.4166,-1.346 0.1809,-0.429 0.4022,-0.8366 0.6591,-1.2181 0.257,-0.3815 0.5496,-0.7368 0.873,-1.0613 0.3234,-0.3244 0.6777,-0.6178 1.058,-0.8756 0.3804,-0.2577 0.7868,-0.4797 1.2144,-0.6611 0.4277,-0.1814 0.8766,-0.3223 1.342,-0.4178 0.4654,-0.096 0.9472,-0.1457 1.4408,-0.1457 z"
       id="path3790-61-7-4-7"
       inkscape:connector-curvature="0"
       sodipodi:nodetypes="sssssssssssssssssssssssssssssssss" />
    <path
       style="fill:#803300;fill-opacity:1;stroke:none"
       d="m 63.759739,896.29282 c 0.4936,0 0.9754,0.05 1.4408,0.1457 0.4654,0.095 0.9143,0.2364 1.34199,0.4178 0.4276,0.1814 0.834,0.4034 1.2144,0.6611 0.3803,0.2578 0.7346,0.5512 1.058,0.8756 0.3234,0.3245 0.616,0.6798 0.873,1.0613 0.2569,0.3815 0.4782,0.7891 0.6591,1.2181 0.1809,0.4289 0.3214,0.8792 0.4166,1.346 0.095,0.4668 0.1452,0.9501 0.1452,1.4451 0,0.4951 -0.05,0.9784 -0.1452,1.4452 -0.095,0.4668 -0.2357,0.9171 -0.4166,1.346 -0.1809,0.429 -0.4022,0.8366 -0.6591,1.2181 -0.257,0.3815 -0.5496,0.7368 -0.873,1.0612 -0.3234,0.3244 -0.6777,0.6179 -1.058,0.8757 -0.3804,0.2577 -0.7868,0.4797 -1.2144,0.6611 -0.42769,0.1814 -0.87659,0.3223 -1.34199,0.4178 -0.4654,0.096 -0.9472,0.1457 -1.4408,0.1457 -0.4935,0 -0.9754,-0.05 -1.4408,-0.1457 -0.4654,-0.095 -0.9143,-0.2364 -1.3419,-0.4178 -0.4277,-0.1814 -0.8341,-0.4034 -1.2144,-0.6611 -0.3804,-0.2578 -0.7346,-0.5513 -1.0581,-0.8757 -0.3234,-0.3244 -0.616,-0.6797 -0.8729,-1.0612 -0.257,-0.3815 -0.4783,-0.7891 -0.6592,-1.2181 -0.1809,-0.4289 -0.3213,-0.8792 -0.4165,-1.346 -0.095,-0.4668 -0.1453,-0.9501 -0.1453,-1.4452 0,-0.495 0.05,-0.9783 0.1453,-1.4451 0.095,-0.4668 0.2356,-0.9171 0.4165,-1.346 0.1809,-0.429 0.4022,-0.8366 0.6592,-1.2181 0.2569,-0.3815 0.5495,-0.7368 0.8729,-1.0613 0.3235,-0.3244 0.6777,-0.6178 1.0581,-0.8756 0.3803,-0.2577 0.7867,-0.4797 1.2144,-0.6611 0.4276,-0.1814 0.8765,-0.3223 1.3419,-0.4178 0.4654,-0.096 0.9473,-0.1457 1.4408,-0.1457 z"
       id="path3790-2-9-0-1"
       inkscape:connector-curvature="0"
       sodipodi:nodetypes="sssssssssssssssssssssssssssssssss" />
  </g>
</svg>
