<?xml version="1.0" encoding="UTF-8" standalone="no"?>
<!-- Created with Inkscape (http://www.inkscape.org/) -->

<svg
   xmlns:dc="http://purl.org/dc/elements/1.1/"
   xmlns:cc="http://creativecommons.org/ns#"
   xmlns:rdf="http://www.w3.org/1999/02/22-rdf-syntax-ns#"
   xmlns:svg="http://www.w3.org/2000/svg"
   xmlns="http://www.w3.org/2000/svg"
   xmlns:sodipodi="http://sodipodi.sourceforge.net/DTD/sodipodi-0.dtd"
   xmlns:inkscape="http://www.inkscape.org/namespaces/inkscape"
   width="1052.3622"
   height="744.09448"
   id="svg2"
   version="1.1"
   inkscape:version="0.48.4 r9939"
   sodipodi:docname="chipKIT_Uno32-2dwg.svg">
  <defs
     id="defs4" />
  <sodipodi:namedview
     id="base"
     pagecolor="#ffffff"
     bordercolor="#666666"
     borderopacity="1.0"
     inkscape:pageopacity="0.0"
     inkscape:pageshadow="2"
     inkscape:zoom="1.12"
     inkscape:cx="485.059"
     inkscape:cy="554.29209"
     inkscape:document-units="mm"
     inkscape:current-layer="layer1"
     showgrid="true"
     inkscape:window-width="1366"
     inkscape:window-height="705"
     inkscape:window-x="-8"
     inkscape:window-y="-8"
     inkscape:window-maximized="1"
     units="mm"
     inkscape:snap-global="true"
     showguides="true"
     inkscape:guide-bbox="true"
     inkscape:snap-grids="true"
     inkscape:snap-to-guides="true"
     inkscape:snap-center="true"
     inkscape:snap-object-midpoints="true"
     inkscape:snap-bbox="false">
    <inkscape:grid
       type="xygrid"
       id="grid2999"
       empspacing="5"
       visible="true"
       enabled="true"
       snapvisiblegridlinesonly="true"
       units="mm"
       spacingx="1mm"
       spacingy="1mm"
       color="#c9809c"
       opacity="0.1254902"
       empcolor="#cb6e84"
       empopacity="0.25098039" />
    <sodipodi:guide
       orientation="1,0"
       position="35.433071,191.33858"
       id="guide3771" />
    <sodipodi:guide
       orientation="1,0"
       position="283.46457,155.90551"
       id="guide3773" />
    <sodipodi:guide
       orientation="1,0"
       position="17.716535,177.16535"
       id="guide3810" />
    <sodipodi:guide
       orientation="0,1"
       position="60.23622,162.99213"
       id="guide3812" />
    <sodipodi:guide
       orientation="0,1"
       position="49.606299,131.10236"
       id="guide3814" />
    <sodipodi:guide
       orientation="0,1"
       position="38.976378,24.80315"
       id="guide3816" />
    <sodipodi:guide
       orientation="0,1"
       position="46.062992,60.23622"
       id="guide3820" />
    <sodipodi:guide
       orientation="0,1"
       position="53.149606,95.669291"
       id="guide3824" />
    <sodipodi:guide
       orientation="1,0"
       position="301.1811,95.669291"
       id="guide3869" />
    <sodipodi:guide
       orientation="1,0"
       position="44.291339,175.3937"
       id="guide3931" />
    <inkscape:grid
       type="xygrid"
       id="grid3937"
       empspacing="5"
       visible="true"
       enabled="true"
       snapvisiblegridlinesonly="true"
       units="mm"
       spacingx="0.5mm"
       spacingy="0.5mm"
       color="#e500ff"
       opacity="0.1254902"
       empcolor="#c100ff"
       empopacity="0.25098039" />
    <sodipodi:guide
       orientation="0,1"
       position="51.377953,63.779528"
       id="guide3939" />
    <sodipodi:guide
       orientation="0,1"
       position="242.71654,182.48031"
       id="guide3961" />
    <sodipodi:guide
       orientation="1,0"
       position="225,8.8582677"
       id="guide3981" />
    <sodipodi:guide
       orientation="0,1"
       position="230.31496,8.8582677"
       id="guide3994" />
    <sodipodi:guide
       orientation="0,1"
       position="407.48031,354.33071"
       id="guide4100" />
    <sodipodi:guide
       orientation="1,0"
       position="726.37795,-7.0866142"
       id="guide4102" />
    <sodipodi:guide
       orientation="1,0"
       position="354.33071,194.88189"
       id="guide4164" />
    <sodipodi:guide
       orientation="0,1"
       position="54.92126,318.89764"
       id="guide4226" />
    <sodipodi:guide
       orientation="0,1"
       position="67.322835,545.66929"
       id="guide4228" />
    <sodipodi:guide
       orientation="0,1"
       position="58.464567,581.10236"
       id="guide4230" />
    <sodipodi:guide
       orientation="0,1"
       position="115.15748,336.61417"
       id="guide4232" />
    <sodipodi:guide
       orientation="0,1"
       position="83.267717,563.38583"
       id="guide4234" />
    <sodipodi:guide
       orientation="1,0"
       position="53.149606,524.40945"
       id="guide4262" />
    <sodipodi:guide
       orientation="1,0"
       position="230.31496,558.07087"
       id="guide4272" />
    <sodipodi:guide
       orientation="1,0"
       position="265.74803,556.29921"
       id="guide4274" />
    <sodipodi:guide
       orientation="1,0"
       position="389.76378,425.19685"
       id="guide4335" />
    <sodipodi:guide
       orientation="1,0"
       position="708.66142,354.33071"
       id="guide4339" />
    <sodipodi:guide
       orientation="1,0"
       position="407.48031,522.6378"
       id="guide4341" />
    <sodipodi:guide
       orientation="1,0"
       position="655.51181,531.49606"
       id="guide4379" />
    <sodipodi:guide
       orientation="1,0"
       position="690.94488,496.06299"
       id="guide4381" />
    <sodipodi:guide
       orientation="1,0"
       position="398.62205,162.99213"
       id="guide4446" />
    <sodipodi:guide
       orientation="0,1"
       position="44.291339,517.32283"
       id="guide4448" />
    <sodipodi:guide
       orientation="0,1"
       position="225,363.18898"
       id="guide4450" />
    <sodipodi:guide
       orientation="0,1"
       position="230.31496,536.81102"
       id="guide4452" />
    <sodipodi:guide
       orientation="1,0"
       position="579.33071,363.18898"
       id="guide4454" />
  </sodipodi:namedview>
  <metadata
     id="metadata7">
    <rdf:RDF>
      <cc:Work
         rdf:about="">
        <dc:format>image/svg+xml</dc:format>
        <dc:type
           rdf:resource="http://purl.org/dc/dcmitype/StillImage" />
        <dc:title />
      </cc:Work>
    </rdf:RDF>
  </metadata>
  <g
     inkscape:label="Layer 1"
     inkscape:groupmode="layer"
     id="layer1"
     transform="translate(0,-308.26766)">
    <path
       style="fill:#c8b7b7;fill-opacity:1;stroke:#502d16;stroke-width:1.41732287;stroke-linecap:round;stroke-linejoin:round;stroke-miterlimit:4;stroke-opacity:1"
       d="m 10.629893,861.02356 297.637857,0 1.08985,0.0547 1.05768,0.16053 1.02025,0.26113 0.97755,0.35645 0.92959,0.44651 0.87637,0.53131 0.81788,0.61085 0.75413,0.68512 0.68513,0.75414 0.61085,0.81788 0.53131,0.87637 0.44651,0.92959 0.35645,0.97755 0.26113,1.02025 0.16053,1.05768 0.0547,1.08985 0,170.07885 -0.0547,1.0898 -0.16053,1.0577 -0.26113,1.0203 -0.35645,0.9775 -0.44651,0.9296 -0.53131,0.8764 -0.61085,0.8178 -0.68513,0.7542 -0.75413,0.6851 -0.81788,0.6109 -0.87637,0.5313 -0.92959,0.4465 -0.97755,0.3565 -1.02025,0.2611 -1.05768,0.1605 -1.08985,0.055 -297.637857,0 -1.0898495,-0.055 -1.0576795,-0.1605 -1.0202465,-0.2611 -0.9775505,-0.3565 -0.9295914,-0.4465 -0.8763693,-0.5313 -0.8178841,-0.6109 -0.7541359,-0.6851 -0.6851247,-0.7542 -0.6108503,-0.8178 -0.531313,-0.8764 -0.4465126,-0.9296 -0.35644918,-0.9775 -0.2611227,-1.0203 -0.16053319,-1.0577 L 0,1041.7323 0,871.65345 l 0.05468063,-1.08985 0.16053319,-1.05768 0.2611227,-1.02025 0.35644918,-0.97755 0.4465126,-0.92959 0.531313,-0.87637 0.6108503,-0.81788 0.6851247,-0.75414 0.7541359,-0.68512 0.8178841,-0.61085 0.8763693,-0.53131 0.9295914,-0.44651 0.9775505,-0.35645 1.0202465,-0.26113 1.0576795,-0.16053 z"
       id="rect2987"
       inkscape:connector-curvature="0"
       sodipodi:nodetypes="ccccccccccccccccccccccccccccccccccccccccccccccccccccccccccccccccccccc" />
    <path
       transform="matrix(0.53941412,0,0,0.4735153,7.2043307,614.02147)"
       style="fill:#c8b7b7;fill-opacity:1;stroke:#502d16;stroke-width:1.41732287;stroke-linecap:round;stroke-linejoin:round;stroke-miterlimit:4;stroke-opacity:1"
       d="m 32.781814,574.01575 -0.270079,3.04276 -0.7746,2.83404 -1.225663,2.56461 -1.623271,2.23445 -1.96742,1.8436 -2.258113,1.39202 -2.495349,0.87973 -2.679129,0.30674 -2.679129,-0.30674 -2.49535,-0.87973 -2.258113,-1.39202 -1.96742,-1.8436 -1.62327,-2.23445 -1.2256633,-2.56461 -0.7745997,-2.83404 -0.2700792,-3.04276 0.2700792,-3.04276 0.7745997,-2.83404 1.2256633,-2.56461 1.62327,-2.23445 1.96742,-1.8436 2.258113,-1.39202 2.49535,-0.87973 2.679129,-0.30674 2.679129,0.30674 2.495349,0.87973 2.258113,1.39202 1.96742,1.8436 1.623271,2.23445 1.225663,2.56461 0.7746,2.83404 z"
       id="path3790"
       inkscape:connector-curvature="0"
       sodipodi:nodetypes="ccccccccccccccccccccccccccccccccc" />
    <path
       transform="matrix(0.53941412,0,0,0.4735153,7.3465437,649.58995)"
       style="fill:#c8b7b7;fill-opacity:1;stroke:#502d16;stroke-width:1.41732287;stroke-linecap:round;stroke-linejoin:round;stroke-miterlimit:4;stroke-opacity:1"
       d="m 32.781814,574.01575 -0.270079,3.04276 -0.7746,2.83404 -1.225663,2.56461 -1.623271,2.23445 -1.96742,1.8436 -2.258113,1.39202 -2.495349,0.87973 -2.679129,0.30674 -2.679129,-0.30674 -2.49535,-0.87973 -2.258113,-1.39202 -1.96742,-1.8436 -1.62327,-2.23445 -1.2256633,-2.56461 -0.7745997,-2.83404 -0.2700792,-3.04276 0.2700792,-3.04276 0.7745997,-2.83404 1.2256633,-2.56461 1.62327,-2.23445 1.96742,-1.8436 2.258113,-1.39202 2.49535,-0.87973 2.679129,-0.30674 2.679129,0.30674 2.495349,0.87973 2.258113,1.39202 1.96742,1.8436 1.623271,2.23445 1.225663,2.56461 0.7746,2.83404 z"
       id="path3790-1"
       inkscape:connector-curvature="0"
       sodipodi:nodetypes="ccccccccccccccccccccccccccccccccc" />
    <path
       transform="matrix(0.53941412,0,0,0.4735153,7.2043303,755.75375)"
       style="fill:#c8b7b7;fill-opacity:1;stroke:#502d16;stroke-width:1.41732287;stroke-linecap:round;stroke-linejoin:round;stroke-miterlimit:4;stroke-opacity:1"
       d="m 32.781814,574.01575 -0.270079,3.04276 -0.7746,2.83404 -1.225663,2.56461 -1.623271,2.23445 -1.96742,1.8436 -2.258113,1.39202 -2.495349,0.87973 -2.679129,0.30674 -2.679129,-0.30674 -2.49535,-0.87973 -2.258113,-1.39202 -1.96742,-1.8436 -1.62327,-2.23445 -1.2256633,-2.56461 -0.7745997,-2.83404 -0.2700792,-3.04276 0.2700792,-3.04276 0.7745997,-2.83404 1.2256633,-2.56461 1.62327,-2.23445 1.96742,-1.8436 2.258113,-1.39202 2.49535,-0.87973 2.679129,-0.30674 2.679129,0.30674 2.495349,0.87973 2.258113,1.39202 1.96742,1.8436 1.623271,2.23445 1.225663,2.56461 0.7746,2.83404 z"
       id="path3790-1-7"
       inkscape:connector-curvature="0"
       sodipodi:nodetypes="ccccccccccccccccccccccccccccccccc" />
    <path
       transform="matrix(0.53941412,0,0,0.4735153,7.2043303,684.88761)"
       style="fill:#c8b7b7;fill-opacity:1;stroke:#502d16;stroke-width:1.41732287;stroke-linecap:round;stroke-linejoin:round;stroke-miterlimit:4;stroke-opacity:1"
       d="m 32.781814,574.01575 -0.270079,3.04276 -0.7746,2.83404 -1.225663,2.56461 -1.623271,2.23445 -1.96742,1.8436 -2.258113,1.39202 -2.495349,0.87973 -2.679129,0.30674 -2.679129,-0.30674 -2.49535,-0.87973 -2.258113,-1.39202 -1.96742,-1.8436 -1.62327,-2.23445 -1.2256633,-2.56461 -0.7745997,-2.83404 -0.2700792,-3.04276 0.2700792,-3.04276 0.7745997,-2.83404 1.2256633,-2.56461 1.62327,-2.23445 1.96742,-1.8436 2.258114,-1.39202 2.495349,-0.87973 2.679129,-0.30674 2.679129,0.30674 2.495349,0.87973 2.258113,1.39202 1.96742,1.8436 1.623271,2.23445 1.225663,2.56461 0.7746,2.83404 z"
       id="path3790-1-4"
       inkscape:connector-curvature="0"
       sodipodi:nodetypes="ccccccccccccccccccccccccccccccccc" />
    <path
       transform="matrix(0.53941412,0,0,0.4735153,7.2043307,720.32068)"
       style="fill:#c8b7b7;fill-opacity:1;stroke:#502d16;stroke-width:1.41732287;stroke-linecap:round;stroke-linejoin:round;stroke-miterlimit:4;stroke-opacity:1"
       d="m 32.781814,574.01575 -0.270079,3.04276 -0.7746,2.83404 -1.225663,2.56461 -1.623271,2.23445 -1.96742,1.8436 -2.258113,1.39202 -2.495349,0.87973 -2.679129,0.30674 -2.679129,-0.30674 -2.49535,-0.87973 -2.258113,-1.39202 -1.96742,-1.8436 -1.62327,-2.23445 -1.2256633,-2.56461 -0.7745997,-2.83404 -0.2700792,-3.04276 0.2700792,-3.04276 0.7745997,-2.83404 1.2256633,-2.56461 1.62327,-2.23445 1.96742,-1.8436 2.258114,-1.39202 2.495349,-0.87973 2.679129,-0.30674 2.679129,0.30674 2.495349,0.87973 2.258113,1.39202 1.96742,1.8436 1.623271,2.23445 1.225663,2.56461 0.7746,2.83404 z"
       id="path3790-1-0"
       inkscape:connector-curvature="0"
       sodipodi:nodetypes="ccccccccccccccccccccccccccccccccc" />
    <path
       transform="matrix(0.53941412,0,0,0.4735153,290.52669,613.88606)"
       style="fill:#c8b7b7;fill-opacity:1;stroke:#502d16;stroke-width:1.41732287;stroke-linecap:round;stroke-linejoin:round;stroke-miterlimit:4;stroke-opacity:1"
       d="m 32.781814,574.01575 -0.270079,3.04276 -0.7746,2.83404 -1.225663,2.56461 -1.623271,2.23445 -1.96742,1.8436 -2.258113,1.39202 -2.495349,0.87973 -2.679129,0.30674 -2.679129,-0.30674 -2.49535,-0.87973 -2.258113,-1.39202 -1.96742,-1.8436 -1.62327,-2.23445 -1.2256633,-2.56461 -0.7745997,-2.83404 -0.2700792,-3.04276 0.2700792,-3.04276 0.7745997,-2.83404 1.2256633,-2.56461 1.62327,-2.23445 1.96742,-1.8436 2.258113,-1.39202 2.49535,-0.87973 2.679129,-0.30674 2.679129,0.30674 2.495349,0.87973 2.258113,1.39202 1.96742,1.8436 1.623271,2.23445 1.225663,2.56461 0.7746,2.83404 z"
       id="path3790-5"
       inkscape:connector-curvature="0"
       sodipodi:nodetypes="ccccccccccccccccccccccccccccccccc" />
    <path
       transform="matrix(0.53941412,0,0,0.4735153,290.6689,649.45454)"
       style="fill:#c8b7b7;fill-opacity:1;stroke:#502d16;stroke-width:1.41732287;stroke-linecap:round;stroke-linejoin:round;stroke-miterlimit:4;stroke-opacity:1"
       d="m 32.781814,574.01575 -0.270079,3.04276 -0.7746,2.83404 -1.225663,2.56461 -1.623271,2.23445 -1.96742,1.8436 -2.258113,1.39202 -2.495349,0.87973 -2.679129,0.30674 -2.679129,-0.30674 -2.495349,-0.87973 -2.258114,-1.39202 -1.96742,-1.8436 -1.62327,-2.23445 -1.2256633,-2.56461 -0.7745997,-2.83404 -0.2700792,-3.04276 0.2700792,-3.04276 0.7745997,-2.83404 1.2256633,-2.56461 1.62327,-2.23445 1.96742,-1.8436 2.258114,-1.39202 2.495349,-0.87973 2.679129,-0.30674 2.679129,0.30674 2.495349,0.87973 2.258113,1.39202 1.96742,1.8436 1.623271,2.23445 1.225663,2.56461 0.7746,2.83404 z"
       id="path3790-1-5"
       inkscape:connector-curvature="0"
       sodipodi:nodetypes="ccccccccccccccccccccccccccccccccc" />
    <path
       transform="matrix(0.53941412,0,0,0.4735153,290.52669,755.61834)"
       style="fill:#c8b7b7;fill-opacity:1;stroke:#502d16;stroke-width:1.41732287;stroke-linecap:round;stroke-linejoin:round;stroke-miterlimit:4;stroke-opacity:1"
       d="m 32.781814,574.01575 -0.270079,3.04276 -0.7746,2.83404 -1.225663,2.56461 -1.623271,2.23445 -1.96742,1.8436 -2.258113,1.39202 -2.495349,0.87973 -2.679129,0.30674 -2.679129,-0.30674 -2.49535,-0.87973 -2.258113,-1.39202 -1.96742,-1.8436 -1.62327,-2.23445 -1.2256633,-2.56461 -0.7745997,-2.83404 -0.2700792,-3.04276 0.2700792,-3.04276 0.7745997,-2.83404 1.2256633,-2.56461 1.62327,-2.23445 1.96742,-1.8436 2.258113,-1.39202 2.49535,-0.87973 2.679129,-0.30674 2.679129,0.30674 2.495349,0.87973 2.258113,1.39202 1.96742,1.8436 1.623271,2.23445 1.225663,2.56461 0.7746,2.83404 z"
       id="path3790-1-7-1"
       inkscape:connector-curvature="0"
       sodipodi:nodetypes="ccccccccccccccccccccccccccccccccc" />
    <path
       transform="matrix(0.53941412,0,0,0.4735153,290.52669,684.7522)"
       style="fill:#c8b7b7;fill-opacity:1;stroke:#502d16;stroke-width:1.41732287;stroke-linecap:round;stroke-linejoin:round;stroke-miterlimit:4;stroke-opacity:1"
       d="m 32.781814,574.01575 -0.270079,3.04276 -0.7746,2.83404 -1.225663,2.56461 -1.623271,2.23445 -1.96742,1.8436 -2.258113,1.39202 -2.495349,0.87973 -2.679129,0.30674 -2.679129,-0.30674 -2.49535,-0.87973 -2.258113,-1.39202 -1.96742,-1.8436 -1.62327,-2.23445 -1.2256633,-2.56461 -0.7745997,-2.83404 -0.2700792,-3.04276 0.2700792,-3.04276 0.7745997,-2.83404 1.2256633,-2.56461 1.62327,-2.23445 1.96742,-1.8436 2.258113,-1.39202 2.49535,-0.87973 2.679129,-0.30674 2.679129,0.30674 2.495349,0.87973 2.258113,1.39202 1.96742,1.8436 1.623271,2.23445 1.225663,2.56461 0.7746,2.83404 z"
       id="path3790-1-4-7"
       inkscape:connector-curvature="0"
       sodipodi:nodetypes="ccccccccccccccccccccccccccccccccc" />
    <path
       transform="matrix(0.53941412,0,0,0.4735153,290.52669,720.18527)"
       style="fill:#c8b7b7;fill-opacity:1;stroke:#502d16;stroke-width:1.41732287;stroke-linecap:round;stroke-linejoin:round;stroke-miterlimit:4;stroke-opacity:1"
       d="m 32.781814,574.01575 -0.270079,3.04276 -0.7746,2.83404 -1.225663,2.56461 -1.623271,2.23445 -1.96742,1.8436 -2.258113,1.39202 -2.495349,0.87973 -2.679129,0.30674 -2.679129,-0.30674 -2.49535,-0.87973 -2.258113,-1.39202 -1.96742,-1.8436 -1.62327,-2.23445 -1.2256633,-2.56461 -0.7745997,-2.83404 -0.2700792,-3.04276 0.2700792,-3.04276 0.7745997,-2.83404 1.2256633,-2.56461 1.62327,-2.23445 1.96742,-1.8436 2.258113,-1.39202 2.49535,-0.87973 2.679129,-0.30674 2.679129,0.30674 2.495349,0.87973 2.258113,1.39202 1.96742,1.8436 1.623271,2.23445 1.225663,2.56461 0.7746,2.83404 z"
       id="path3790-1-0-1"
       inkscape:connector-curvature="0"
       sodipodi:nodetypes="ccccccccccccccccccccccccccccccccc" />
    <path
       transform="matrix(1.5,0,0,1.5,-24.803149,28.346396)"
       style="fill:#39b7b7;fill-opacity:1;stroke:#502d16;stroke-width:0;stroke-linecap:round;stroke-linejoin:round;stroke-miterlimit:4;stroke-opacity:1"
       d="m 49.606299,574.01575 -0.07199,0.7141 -0.206464,0.66511 -0.32669,0.60188 -0.432669,0.5244 -0.5244,0.43267 -0.601882,0.32669 -0.665115,0.20646 -0.7141,0.072 -0.7141,-0.072 -0.665115,-0.20646 -0.601881,-0.32669 -0.5244,-0.43267 -0.43267,-0.5244 -0.32669,-0.60188 -0.206464,-0.66511 -0.07199,-0.7141 0.07199,-0.7141 0.206464,-0.66512 0.32669,-0.60188 0.43267,-0.5244 0.5244,-0.43267 0.601881,-0.32669 0.665115,-0.20646 0.7141,-0.072 0.7141,0.072 0.665115,0.20646 0.601882,0.32669 0.5244,0.43267 0.432669,0.5244 0.32669,0.60188 0.206464,0.66512 z"
       id="path3933"
       inkscape:connector-curvature="0"
       sodipodi:nodetypes="ccccccccccccccccccccccccccccccccc" />
    <path
       transform="matrix(1.5,0,0,1.5,-24.80315,127.55899)"
       style="fill:#39b7b7;fill-opacity:1;stroke:#502d16;stroke-width:0;stroke-linecap:round;stroke-linejoin:round;stroke-miterlimit:4;stroke-opacity:1"
       d="m 49.606299,574.01575 -0.07199,0.7141 -0.206464,0.66511 -0.32669,0.60188 -0.432669,0.5244 -0.5244,0.43267 -0.601882,0.32669 -0.665115,0.20646 -0.7141,0.072 -0.7141,-0.072 -0.665115,-0.20646 -0.601881,-0.32669 -0.5244,-0.43267 -0.43267,-0.5244 -0.32669,-0.60188 -0.206464,-0.66511 -0.07199,-0.7141 0.07199,-0.7141 0.206464,-0.66512 0.32669,-0.60188 0.43267,-0.5244 0.5244,-0.43267 0.601881,-0.32669 0.665115,-0.20646 0.7141,-0.072 0.7141,0.072 0.665115,0.20646 0.601882,0.32669 0.5244,0.43267 0.432669,0.5244 0.32669,0.60188 0.206464,0.66512 z"
       id="path3933-1"
       inkscape:connector-curvature="0"
       sodipodi:nodetypes="ccccccccccccccccccccccccccccccccc" />
    <path
       transform="matrix(1.5,0,0,1.5,161.22047,8.8582069)"
       style="fill:#39b7b7;fill-opacity:1;stroke:#502d16;stroke-width:0;stroke-linecap:round;stroke-linejoin:round;stroke-miterlimit:4;stroke-opacity:1"
       d="m 49.606299,574.01575 -0.07199,0.7141 -0.206464,0.66511 -0.32669,0.60188 -0.432669,0.5244 -0.5244,0.43267 -0.601882,0.32669 -0.665115,0.20646 -0.7141,0.072 -0.7141,-0.072 -0.665115,-0.20646 -0.601881,-0.32669 -0.5244,-0.43267 -0.43267,-0.5244 -0.32669,-0.60188 -0.206464,-0.66511 -0.07199,-0.7141 0.07199,-0.7141 0.206464,-0.66512 0.32669,-0.60188 0.43267,-0.5244 0.5244,-0.43267 0.601881,-0.32669 0.665115,-0.20646 0.7141,-0.072 0.7141,0.072 0.665115,0.20646 0.601882,0.32669 0.5244,0.43267 0.432669,0.5244 0.32669,0.60188 0.206464,0.66512 z"
       id="path3933-5"
       inkscape:connector-curvature="0"
       sodipodi:nodetypes="ccccccccccccccccccccccccccccccccc" />
    <path
       transform="matrix(1.5,0,0,1.5,155.90551,182.48025)"
       style="fill:#39b7b7;fill-opacity:1;stroke:#502d16;stroke-width:0;stroke-linecap:round;stroke-linejoin:round;stroke-miterlimit:4;stroke-opacity:1"
       d="m 49.606299,574.01575 -0.07199,0.7141 -0.206464,0.66511 -0.32669,0.60188 -0.432669,0.5244 -0.5244,0.43267 -0.601882,0.32669 -0.665115,0.20646 -0.7141,0.072 -0.7141,-0.072 -0.665115,-0.20646 -0.601881,-0.32669 -0.5244,-0.43267 -0.43267,-0.5244 -0.32669,-0.60188 -0.206464,-0.66511 -0.07199,-0.7141 0.07199,-0.7141 0.206464,-0.66512 0.32669,-0.60188 0.43267,-0.5244 0.5244,-0.43267 0.601881,-0.32669 0.665115,-0.20646 0.7141,-0.072 0.7141,0.072 0.665115,0.20646 0.601882,0.32669 0.5244,0.43267 0.432669,0.5244 0.32669,0.60188 0.206464,0.66512 z"
       id="path3933-5-2"
       inkscape:connector-curvature="0"
       sodipodi:nodetypes="ccccccccccccccccccccccccccccccccc" />
    <path
       style="fill:#c8b7b7;fill-opacity:1;stroke:#502d16;stroke-width:1.56690931;stroke-linecap:round;stroke-linejoin:round;stroke-miterlimit:4;stroke-opacity:1"
       d="m 364.96061,861.02356 368.50398,0 1.08985,0.0547 1.05768,0.16053 1.02025,0.26113 0.97755,0.35645 0.92959,0.44651 0.87637,0.53131 0.81788,0.61085 0.75413,0.68512 0.68513,0.75414 0.61085,0.81788 0.53131,0.87637 0.44651,0.92959 0.35645,0.97755 0.26113,1.02025 0.16053,1.05768 0.0547,1.08985 0,170.07883 -0.0547,1.0898 -0.16053,1.0577 -0.26113,1.0203 -0.35645,0.9775 -0.44651,0.9296 -0.53131,0.8764 -0.61085,0.8178 -0.68513,0.7542 -0.75413,0.6851 -0.81788,0.6109 -0.87637,0.5313 -0.92959,0.4465 -0.97755,0.3565 -1.02025,0.2611 -1.05768,0.1605 -1.08985,0.055 -368.50398,0 -1.08985,-0.055 -1.05768,-0.1605 -1.02025,-0.2611 -0.97755,-0.3565 -0.92959,-0.4465 -0.87637,-0.5313 -0.81788,-0.6109 -0.75413,-0.6851 -0.68513,-0.7542 -0.61085,-0.8178 -0.53131,-0.8764 -0.44651,-0.9296 -0.35645,-0.9775 -0.26113,-1.0203 -0.16053,-1.0577 -0.0547,-1.0898 0,-170.07883 0.0547,-1.08985 0.16053,-1.05768 0.26113,-1.02025 0.35645,-0.97755 0.44651,-0.92959 0.53131,-0.87637 0.61085,-0.81788 0.68513,-0.75414 0.75413,-0.68512 0.81788,-0.61085 0.87637,-0.53131 0.92959,-0.44651 0.97755,-0.35645 1.02025,-0.26113 1.05768,-0.16053 1.08985,-0.0547 z"
       id="rect2987-9"
       inkscape:connector-curvature="0"
       sodipodi:nodetypes="cccccccccccccccccccccccccccccccccccccccccccccccccccccccccccccccccccccc" />
    <path
       transform="matrix(0.53941412,0,0,0.4735153,361.53504,614.02147)"
       style="fill:#c8b7b7;fill-opacity:1;stroke:#502d16;stroke-width:1.41732287;stroke-linecap:round;stroke-linejoin:round;stroke-miterlimit:4;stroke-opacity:1"
       d="m 32.781814,574.01575 -0.270079,3.04276 -0.7746,2.83404 -1.225663,2.56461 -1.623271,2.23445 -1.96742,1.8436 -2.258113,1.39202 -2.495349,0.87973 -2.679129,0.30674 -2.679129,-0.30674 -2.49535,-0.87973 -2.258113,-1.39202 -1.96742,-1.8436 -1.62327,-2.23445 -1.2256633,-2.56461 -0.7745997,-2.83404 -0.2700792,-3.04276 0.2700792,-3.04276 0.7745997,-2.83404 1.2256633,-2.56461 1.62327,-2.23445 1.96742,-1.8436 2.258113,-1.39202 2.49535,-0.87973 2.679129,-0.30674 2.679129,0.30674 2.495349,0.87973 2.258113,1.39202 1.96742,1.8436 1.623271,2.23445 1.225663,2.56461 0.7746,2.83404 z"
       id="path3790-2"
       inkscape:connector-curvature="0"
       sodipodi:nodetypes="ccccccccccccccccccccccccccccccccc" />
    <path
       transform="matrix(0.53941412,0,0,0.4735153,361.67725,649.58995)"
       style="fill:#c8b7b7;fill-opacity:1;stroke:#502d16;stroke-width:1.41732287;stroke-linecap:round;stroke-linejoin:round;stroke-miterlimit:4;stroke-opacity:1"
       d="m 32.781814,574.01575 -0.270079,3.04276 -0.7746,2.83404 -1.225663,2.56461 -1.623271,2.23445 -1.96742,1.8436 -2.258113,1.39202 -2.495349,0.87973 -2.679129,0.30674 -2.679129,-0.30674 -2.49535,-0.87973 -2.258113,-1.39202 -1.96742,-1.8436 -1.62327,-2.23445 -1.2256633,-2.56461 -0.7745997,-2.83404 -0.2700792,-3.04276 0.2700792,-3.04276 0.7745997,-2.83404 1.2256633,-2.56461 1.62327,-2.23445 1.96742,-1.8436 2.258113,-1.39202 2.49535,-0.87973 2.679129,-0.30674 2.679129,0.30674 2.495349,0.87973 2.258113,1.39202 1.96742,1.8436 1.623271,2.23445 1.225663,2.56461 0.7746,2.83404 z"
       id="path3790-1-79"
       inkscape:connector-curvature="0"
       sodipodi:nodetypes="ccccccccccccccccccccccccccccccccc" />
    <path
       transform="matrix(0.53941412,0,0,0.4735153,361.53504,755.75375)"
       style="fill:#c8b7b7;fill-opacity:1;stroke:#502d16;stroke-width:1.41732287;stroke-linecap:round;stroke-linejoin:round;stroke-miterlimit:4;stroke-opacity:1"
       d="m 32.781814,574.01575 -0.270079,3.04276 -0.7746,2.83404 -1.225663,2.56461 -1.623271,2.23445 -1.96742,1.8436 -2.258113,1.39202 -2.495349,0.87973 -2.679129,0.30674 -2.679129,-0.30674 -2.49535,-0.87973 -2.258113,-1.39202 -1.96742,-1.8436 -1.62327,-2.23445 -1.2256633,-2.56461 -0.7745997,-2.83404 -0.2700792,-3.04276 0.2700792,-3.04276 0.7745997,-2.83404 1.2256633,-2.56461 1.62327,-2.23445 1.96742,-1.8436 2.258113,-1.39202 2.49535,-0.87973 2.679129,-0.30674 2.679129,0.30674 2.495349,0.87973 2.258113,1.39202 1.96742,1.8436 1.623271,2.23445 1.225663,2.56461 0.7746,2.83404 z"
       id="path3790-1-7-5"
       inkscape:connector-curvature="0"
       sodipodi:nodetypes="ccccccccccccccccccccccccccccccccc" />
    <path
       transform="matrix(0.53941412,0,0,0.4735153,361.53504,684.88761)"
       style="fill:#c8b7b7;fill-opacity:1;stroke:#502d16;stroke-width:1.41732287;stroke-linecap:round;stroke-linejoin:round;stroke-miterlimit:4;stroke-opacity:1"
       d="m 32.781814,574.01575 -0.270079,3.04276 -0.7746,2.83404 -1.225663,2.56461 -1.623271,2.23445 -1.96742,1.8436 -2.258113,1.39202 -2.495349,0.87973 -2.679129,0.30674 -2.679129,-0.30674 -2.49535,-0.87973 -2.258113,-1.39202 -1.96742,-1.8436 -1.62327,-2.23445 -1.2256633,-2.56461 -0.7745997,-2.83404 -0.2700792,-3.04276 0.2700792,-3.04276 0.7745997,-2.83404 1.2256633,-2.56461 1.62327,-2.23445 1.96742,-1.8436 2.258113,-1.39202 2.49535,-0.87973 2.679129,-0.30674 2.679129,0.30674 2.495349,0.87973 2.258113,1.39202 1.96742,1.8436 1.623271,2.23445 1.225663,2.56461 0.7746,2.83404 z"
       id="path3790-1-4-4"
       inkscape:connector-curvature="0"
       sodipodi:nodetypes="ccccccccccccccccccccccccccccccccc" />
    <path
       transform="matrix(0.53941412,0,0,0.4735153,361.53504,720.32068)"
       style="fill:#c8b7b7;fill-opacity:1;stroke:#502d16;stroke-width:1.41732287;stroke-linecap:round;stroke-linejoin:round;stroke-miterlimit:4;stroke-opacity:1"
       d="m 32.781814,574.01575 -0.270079,3.04276 -0.7746,2.83404 -1.225663,2.56461 -1.623271,2.23445 -1.96742,1.8436 -2.258113,1.39202 -2.495349,0.87973 -2.679129,0.30674 -2.679129,-0.30674 -2.49535,-0.87973 -2.258113,-1.39202 -1.96742,-1.8436 -1.62327,-2.23445 -1.2256633,-2.56461 -0.7745997,-2.83404 -0.2700792,-3.04276 0.2700792,-3.04276 0.7745997,-2.83404 1.2256633,-2.56461 1.62327,-2.23445 1.96742,-1.8436 2.258113,-1.39202 2.49535,-0.87973 2.679129,-0.30674 2.679129,0.30674 2.495349,0.87973 2.258113,1.39202 1.96742,1.8436 1.623271,2.23445 1.225663,2.56461 0.7746,2.83404 z"
       id="path3790-1-0-3"
       inkscape:connector-curvature="0"
       sodipodi:nodetypes="ccccccccccccccccccccccccccccccccc" />
    <path
       transform="matrix(0.53941412,0,0,0.4735153,715.86575,614.02146)"
       style="fill:#c8b7b7;fill-opacity:1;stroke:#502d16;stroke-width:1.41732287;stroke-linecap:round;stroke-linejoin:round;stroke-miterlimit:4;stroke-opacity:1"
       d="m 32.781814,574.01575 -0.270079,3.04276 -0.7746,2.83404 -1.225663,2.56461 -1.623271,2.23445 -1.96742,1.8436 -2.258113,1.39202 -2.495349,0.87973 -2.679129,0.30674 -2.679129,-0.30674 -2.49535,-0.87973 -2.258113,-1.39202 -1.96742,-1.8436 -1.62327,-2.23445 -1.2256633,-2.56461 -0.7745997,-2.83404 -0.2700792,-3.04276 0.2700792,-3.04276 0.7745997,-2.83404 1.2256633,-2.56461 1.62327,-2.23445 1.96742,-1.8436 2.258113,-1.39202 2.49535,-0.87973 2.679129,-0.30674 2.679129,0.30674 2.495349,0.87973 2.258113,1.39202 1.96742,1.8436 1.623271,2.23445 1.225663,2.56461 0.7746,2.83404 z"
       id="path3790-5-1"
       inkscape:connector-curvature="0"
       sodipodi:nodetypes="ccccccccccccccccccccccccccccccccc" />
    <path
       transform="matrix(0.53941412,0,0,0.4735153,716.00796,649.58994)"
       style="fill:#c8b7b7;fill-opacity:1;stroke:#502d16;stroke-width:1.41732287;stroke-linecap:round;stroke-linejoin:round;stroke-miterlimit:4;stroke-opacity:1"
       d="m 32.781814,574.01575 -0.270079,3.04276 -0.7746,2.83404 -1.225663,2.56461 -1.623271,2.23445 -1.96742,1.8436 -2.258113,1.39202 -2.495349,0.87973 -2.679129,0.30674 -2.679129,-0.30674 -2.49535,-0.87973 -2.258113,-1.39202 -1.96742,-1.8436 -1.62327,-2.23445 -1.2256633,-2.56461 -0.7745997,-2.83404 -0.2700792,-3.04276 0.2700792,-3.04276 0.7745997,-2.83404 1.2256633,-2.56461 1.62327,-2.23445 1.96742,-1.8436 2.258113,-1.39202 2.49535,-0.87973 2.679129,-0.30674 2.679129,0.30674 2.495349,0.87973 2.258113,1.39202 1.96742,1.8436 1.623271,2.23445 1.225663,2.56461 0.7746,2.83404 z"
       id="path3790-1-5-2"
       inkscape:connector-curvature="0"
       sodipodi:nodetypes="ccccccccccccccccccccccccccccccccc" />
    <path
       transform="matrix(0.53941412,0,0,0.4735153,715.86575,755.75374)"
       style="fill:#c8b7b7;fill-opacity:1;stroke:#502d16;stroke-width:1.41732287;stroke-linecap:round;stroke-linejoin:round;stroke-miterlimit:4;stroke-opacity:1"
       d="m 32.781814,574.01575 -0.270079,3.04276 -0.7746,2.83404 -1.225663,2.56461 -1.623271,2.23445 -1.96742,1.8436 -2.258113,1.39202 -2.495349,0.87973 -2.679129,0.30674 -2.679129,-0.30674 -2.49535,-0.87973 -2.258113,-1.39202 -1.96742,-1.8436 -1.62327,-2.23445 -1.2256633,-2.56461 -0.7745997,-2.83404 -0.2700792,-3.04276 0.2700792,-3.04276 0.7745997,-2.83404 1.2256633,-2.56461 1.62327,-2.23445 1.96742,-1.8436 2.258113,-1.39202 2.49535,-0.87973 2.679129,-0.30674 2.679129,0.30674 2.495349,0.87973 2.258113,1.39202 1.96742,1.8436 1.623271,2.23445 1.225663,2.56461 0.7746,2.83404 z"
       id="path3790-1-7-1-3"
       inkscape:connector-curvature="0"
       sodipodi:nodetypes="ccccccccccccccccccccccccccccccccc" />
    <path
       transform="matrix(0.53941412,0,0,0.4735153,715.86575,684.8876)"
       style="fill:#c8b7b7;fill-opacity:1;stroke:#502d16;stroke-width:1.41732287;stroke-linecap:round;stroke-linejoin:round;stroke-miterlimit:4;stroke-opacity:1"
       d="m 32.781814,574.01575 -0.270079,3.04276 -0.7746,2.83404 -1.225663,2.56461 -1.623271,2.23445 -1.96742,1.8436 -2.258113,1.39202 -2.495349,0.87973 -2.679129,0.30674 -2.679129,-0.30674 -2.49535,-0.87973 -2.258113,-1.39202 -1.96742,-1.8436 -1.62327,-2.23445 -1.2256633,-2.56461 -0.7745997,-2.83404 -0.2700792,-3.04276 0.2700792,-3.04276 0.7745997,-2.83404 1.2256633,-2.56461 1.62327,-2.23445 1.96742,-1.8436 2.258113,-1.39202 2.49535,-0.87973 2.679129,-0.30674 2.679129,0.30674 2.495349,0.87973 2.258113,1.39202 1.96742,1.8436 1.623271,2.23445 1.225663,2.56461 0.7746,2.83404 z"
       id="path3790-1-4-7-3"
       inkscape:connector-curvature="0"
       sodipodi:nodetypes="ccccccccccccccccccccccccccccccccc" />
    <path
       transform="matrix(0.53941412,0,0,0.4735153,715.86575,720.32067)"
       style="fill:#c8b7b7;fill-opacity:1;stroke:#502d16;stroke-width:1.41732287;stroke-linecap:round;stroke-linejoin:round;stroke-miterlimit:4;stroke-opacity:1"
       d="m 32.781814,574.01575 -0.270079,3.04276 -0.7746,2.83404 -1.225663,2.56461 -1.623271,2.23445 -1.96742,1.8436 -2.258113,1.39202 -2.495349,0.87973 -2.679129,0.30674 -2.679129,-0.30674 -2.49535,-0.87973 -2.258113,-1.39202 -1.96742,-1.8436 -1.62327,-2.23445 -1.2256633,-2.56461 -0.7745997,-2.83404 -0.2700792,-3.04276 0.2700792,-3.04276 0.7745997,-2.83404 1.2256633,-2.56461 1.62327,-2.23445 1.96742,-1.8436 2.258113,-1.39202 2.49535,-0.87973 2.679129,-0.30674 2.679129,0.30674 2.495349,0.87973 2.258113,1.39202 1.96742,1.8436 1.623271,2.23445 1.225663,2.56461 0.7746,2.83404 z"
       id="path3790-1-0-1-4"
       inkscape:connector-curvature="0"
       sodipodi:nodetypes="ccccccccccccccccccccccccccccccccc" />
    <path
       transform="matrix(1.5,0,0,1.5,329.52756,28.346396)"
       style="fill:#39b7b7;fill-opacity:1;stroke:#502d16;stroke-width:0;stroke-linecap:round;stroke-linejoin:round;stroke-miterlimit:4;stroke-opacity:1"
       d="m 49.606299,574.01575 -0.07199,0.7141 -0.206464,0.66511 -0.32669,0.60188 -0.432669,0.5244 -0.5244,0.43267 -0.601882,0.32669 -0.665115,0.20646 -0.7141,0.072 -0.7141,-0.072 -0.665115,-0.20646 -0.601881,-0.32669 -0.5244,-0.43267 -0.43267,-0.5244 -0.32669,-0.60188 -0.206464,-0.66511 -0.07199,-0.7141 0.07199,-0.7141 0.206464,-0.66512 0.32669,-0.60188 0.43267,-0.5244 0.5244,-0.43267 0.601881,-0.32669 0.665115,-0.20646 0.7141,-0.072 0.7141,0.072 0.665115,0.20646 0.601882,0.32669 0.5244,0.43267 0.432669,0.5244 0.32669,0.60188 0.206464,0.66512 z"
       id="path3933-11"
       inkscape:connector-curvature="0"
       sodipodi:nodetypes="ccccccccccccccccccccccccccccccccc" />
    <path
       transform="matrix(1.5,0,0,1.5,329.52756,127.55899)"
       style="fill:#39b7b7;fill-opacity:1;stroke:#502d16;stroke-width:0;stroke-linecap:round;stroke-linejoin:round;stroke-miterlimit:4;stroke-opacity:1"
       d="m 49.606299,574.01575 -0.07199,0.7141 -0.206464,0.66511 -0.32669,0.60188 -0.432669,0.5244 -0.5244,0.43267 -0.601882,0.32669 -0.665115,0.20646 -0.7141,0.072 -0.7141,-0.072 -0.665115,-0.20646 -0.601881,-0.32669 -0.5244,-0.43267 -0.43267,-0.5244 -0.32669,-0.60188 -0.206464,-0.66511 -0.07199,-0.7141 0.07199,-0.7141 0.206464,-0.66512 0.32669,-0.60188 0.43267,-0.5244 0.5244,-0.43267 0.601881,-0.32669 0.665115,-0.20646 0.7141,-0.072 0.7141,0.072 0.665115,0.20646 0.601882,0.32669 0.5244,0.43267 0.432669,0.5244 0.32669,0.60188 0.206464,0.66512 z"
       id="path3933-1-3"
       inkscape:connector-curvature="0"
       sodipodi:nodetypes="ccccccccccccccccccccccccccccccccc" />
    <path
       transform="matrix(1.5,0,0,1.5,510.23622,8.8582069)"
       style="fill:#39b7b7;fill-opacity:1;stroke:#502d16;stroke-width:0;stroke-linecap:round;stroke-linejoin:round;stroke-miterlimit:4;stroke-opacity:1"
       d="m 49.606299,574.01575 -0.07199,0.7141 -0.206464,0.66511 -0.32669,0.60188 -0.432669,0.5244 -0.5244,0.43267 -0.601882,0.32669 -0.665115,0.20646 -0.7141,0.072 -0.7141,-0.072 -0.665115,-0.20646 -0.601881,-0.32669 -0.5244,-0.43267 -0.43267,-0.5244 -0.32669,-0.60188 -0.206464,-0.66511 -0.07199,-0.7141 0.07199,-0.7141 0.206464,-0.66512 0.32669,-0.60188 0.43267,-0.5244 0.5244,-0.43267 0.601881,-0.32669 0.665115,-0.20646 0.7141,-0.072 0.7141,0.072 0.665115,0.20646 0.601882,0.32669 0.5244,0.43267 0.432669,0.5244 0.32669,0.60188 0.206464,0.66512 z"
       id="path3933-5-8"
       inkscape:connector-curvature="0"
       sodipodi:nodetypes="ccccccccccccccccccccccccccccccccc" />
    <path
       transform="matrix(1.5,0,0,1.5,510.23622,182.48025)"
       style="fill:#39b7b7;fill-opacity:1;stroke:#502d16;stroke-width:0;stroke-linecap:round;stroke-linejoin:round;stroke-miterlimit:4;stroke-opacity:1"
       d="m 49.606299,574.01575 -0.07199,0.7141 -0.206464,0.66511 -0.32669,0.60188 -0.432669,0.5244 -0.5244,0.43267 -0.601882,0.32669 -0.665115,0.20646 -0.7141,0.072 -0.7141,-0.072 -0.665115,-0.20646 -0.601881,-0.32669 -0.5244,-0.43267 -0.43267,-0.5244 -0.32669,-0.60188 -0.206464,-0.66511 -0.07199,-0.7141 0.07199,-0.7141 0.206464,-0.66512 0.32669,-0.60188 0.43267,-0.5244 0.5244,-0.43267 0.601881,-0.32669 0.665115,-0.20646 0.7141,-0.072 0.7141,0.072 0.665115,0.20646 0.601882,0.32669 0.5244,0.43267 0.432669,0.5244 0.32669,0.60188 0.206464,0.66512 z"
       id="path3933-5-2-7"
       inkscape:connector-curvature="0"
       sodipodi:nodetypes="ccccccccccccccccccccccccccccccccc" />
    <path
       style="fill:#c8b7b7;fill-opacity:1;stroke:#502d16;stroke-width:1.46343493;stroke-linecap:round;stroke-linejoin:round;stroke-miterlimit:4;stroke-opacity:1"
       d="m 50.003841,471.25977 218.889959,0 1.4939,0.075 1.4498,0.22005 1.39848,0.35793 1.33997,0.4886 1.27422,0.61205 1.20127,0.72829 1.12111,0.83731 1.03372,0.93913 0.93912,1.03372 0.83732,1.1211 0.72829,1.20127 0.61205,1.27422 0.4886,1.33997 0.35793,1.39849 0.22005,1.44979 0.075,1.4939 0,233.13308 -0.075,1.4939 -0.22005,1.44979 -0.35793,1.39849 -0.4886,1.33997 -0.61205,1.27422 -0.72829,1.20127 -0.83732,1.1211 -0.93912,1.03372 -1.03372,0.93913 -1.12111,0.83731 -1.20127,0.72829 -1.27422,0.61205 -1.33997,0.4886 -1.39848,0.35793 -1.4498,0.22005 -1.4939,0.075 -218.889959,0 -1.493896,-0.075 -1.449799,-0.22005 -1.398488,-0.35793 -1.339963,-0.4886 -1.274224,-0.61205 -1.201271,-0.72829 -1.121103,-0.83731 -1.033721,-0.93913 -0.939125,-1.03372 -0.837314,-1.1211 -0.72829,-1.20127 -0.612051,-1.27422 -0.488597,-1.33997 -0.357931,-1.39849 -0.220048,-1.44979 -0.07495,-1.4939 0,-233.13308 0.07495,-1.4939 0.220048,-1.44979 0.357931,-1.39849 0.488597,-1.33997 0.612051,-1.27422 0.72829,-1.20127 0.837314,-1.1211 0.939125,-1.03372 1.033721,-0.93913 1.121103,-0.83731 1.201271,-0.72829 1.274224,-0.61205 1.339963,-0.4886 1.398488,-0.35793 1.449799,-0.22005 z"
       id="rect2987-4"
       inkscape:connector-curvature="0"
       sodipodi:nodetypes="ccccccccccccccccccccccccccccccccccccccccccccccccccccccccccccccccccccc" />
    <path
       transform="matrix(0,0.53941412,-0.4735153,0,466.68712,478.46411)"
       style="fill:#c8b7b7;fill-opacity:1;stroke:#502d16;stroke-width:1.41732287;stroke-linecap:round;stroke-linejoin:round;stroke-miterlimit:4;stroke-opacity:1"
       d="m 32.781814,574.01575 -0.270079,3.04276 -0.7746,2.83404 -1.225663,2.56461 -1.623271,2.23445 -1.96742,1.8436 -2.258113,1.39202 -2.495349,0.87973 -2.679129,0.30674 -2.679129,-0.30674 -2.495349,-0.87973 -2.258114,-1.39202 -1.96742,-1.8436 -1.62327,-2.23445 -1.2256633,-2.56461 -0.7745997,-2.83404 -0.2700792,-3.04276 0.2700792,-3.04276 0.7745997,-2.83404 1.2256633,-2.56461 1.62327,-2.23445 1.96742,-1.8436 2.258114,-1.39202 2.495349,-0.87973 2.679129,-0.30674 2.679129,0.30674 2.495349,0.87973 2.258113,1.39202 1.96742,1.8436 1.623271,2.23445 1.225663,2.56461 0.7746,2.83404 z"
       id="path3790-27"
       inkscape:connector-curvature="0"
       sodipodi:nodetypes="ccccccccccccccccccccccccccccccccc" />
    <path
       transform="matrix(0,0.53941412,-0.4735153,0,431.11864,478.60632)"
       style="fill:#c8b7b7;fill-opacity:1;stroke:#502d16;stroke-width:1.41732287;stroke-linecap:round;stroke-linejoin:round;stroke-miterlimit:4;stroke-opacity:1"
       d="m 32.781814,574.01575 -0.270079,3.04276 -0.7746,2.83404 -1.225663,2.56461 -1.623271,2.23445 -1.96742,1.8436 -2.258113,1.39202 -2.495349,0.87973 -2.679129,0.30674 -2.679129,-0.30674 -2.49535,-0.87973 -2.258113,-1.39202 -1.96742,-1.8436 -1.62327,-2.23445 -1.2256633,-2.56461 -0.7745997,-2.83404 -0.2700792,-3.04276 0.2700792,-3.04276 0.7745997,-2.83404 1.2256633,-2.56461 1.62327,-2.23445 1.96742,-1.8436 2.258113,-1.39202 2.49535,-0.87973 2.679129,-0.30674 2.679129,0.30674 2.495349,0.87973 2.258113,1.39202 1.96742,1.8436 1.623271,2.23445 1.225663,2.56461 0.7746,2.83404 z"
       id="path3790-1-793"
       inkscape:connector-curvature="0"
       sodipodi:nodetypes="ccccccccccccccccccccccccccccccccc" />
    <path
       transform="matrix(0,0.53941412,-0.4735153,0,324.95484,478.46411)"
       style="fill:#c8b7b7;fill-opacity:1;stroke:#502d16;stroke-width:1.41732287;stroke-linecap:round;stroke-linejoin:round;stroke-miterlimit:4;stroke-opacity:1"
       d="m 32.781814,574.01575 -0.270079,3.04276 -0.7746,2.83404 -1.225663,2.56461 -1.623271,2.23445 -1.96742,1.8436 -2.258113,1.39202 -2.495349,0.87973 -2.679129,0.30674 -2.679129,-0.30674 -2.495349,-0.87973 -2.258114,-1.39202 -1.96742,-1.8436 -1.62327,-2.23445 -1.2256633,-2.56461 -0.7745997,-2.83404 -0.2700792,-3.04276 0.2700792,-3.04276 0.7745997,-2.83404 1.2256633,-2.56461 1.62327,-2.23445 1.96742,-1.8436 2.258114,-1.39202 2.495349,-0.87973 2.679129,-0.30674 2.679129,0.30674 2.495349,0.87973 2.258113,1.39202 1.96742,1.8436 1.623271,2.23445 1.225663,2.56461 0.7746,2.83404 z"
       id="path3790-1-7-19"
       inkscape:connector-curvature="0"
       sodipodi:nodetypes="ccccccccccccccccccccccccccccccccc" />
    <path
       transform="matrix(0,0.53941412,-0.4735153,0,395.82098,478.46411)"
       style="fill:#c8b7b7;fill-opacity:1;stroke:#502d16;stroke-width:1.41732287;stroke-linecap:round;stroke-linejoin:round;stroke-miterlimit:4;stroke-opacity:1"
       d="m 32.781814,574.01575 -0.270079,3.04276 -0.7746,2.83404 -1.225663,2.56461 -1.623271,2.23445 -1.96742,1.8436 -2.258113,1.39202 -2.495349,0.87973 -2.679129,0.30674 -2.679129,-0.30674 -2.495349,-0.87973 -2.258114,-1.39202 -1.96742,-1.8436 -1.62327,-2.23445 -1.2256633,-2.56461 -0.7745997,-2.83404 -0.2700792,-3.04276 0.2700792,-3.04276 0.7745997,-2.83404 1.2256633,-2.56461 1.62327,-2.23445 1.96742,-1.8436 2.258114,-1.39202 2.495349,-0.87973 2.679129,-0.30674 2.679129,0.30674 2.495349,0.87973 2.258113,1.39202 1.96742,1.8436 1.623271,2.23445 1.225663,2.56461 0.7746,2.83404 z"
       id="path3790-1-4-8"
       inkscape:connector-curvature="0"
       sodipodi:nodetypes="ccccccccccccccccccccccccccccccccc" />
    <path
       transform="matrix(0,0.53941412,-0.4735153,0,360.38791,478.46411)"
       style="fill:#c8b7b7;fill-opacity:1;stroke:#502d16;stroke-width:1.41732287;stroke-linecap:round;stroke-linejoin:round;stroke-miterlimit:4;stroke-opacity:1"
       d="m 32.781814,574.01575 -0.270079,3.04276 -0.7746,2.83404 -1.225663,2.56461 -1.623271,2.23445 -1.96742,1.8436 -2.258113,1.39202 -2.495349,0.87973 -2.679129,0.30674 -2.679129,-0.30674 -2.495349,-0.87973 -2.258114,-1.39202 -1.96742,-1.8436 -1.62327,-2.23445 -1.2256633,-2.56461 -0.7745997,-2.83404 -0.2700792,-3.04276 0.2700792,-3.04276 0.7745997,-2.83404 1.2256633,-2.56461 1.62327,-2.23445 1.96742,-1.8436 2.258114,-1.39202 2.495349,-0.87973 2.679129,-0.30674 2.679129,0.30674 2.495349,0.87973 2.258113,1.39202 1.96742,1.8436 1.623271,2.23445 1.225663,2.56461 0.7746,2.83404 z"
       id="path3790-1-0-6"
       inkscape:connector-curvature="0"
       sodipodi:nodetypes="ccccccccccccccccccccccccccccccccc" />
    <path
       transform="matrix(1.5,0,0,1.5,-24.80315,-325.98431)"
       style="fill:#39b7b7;fill-opacity:1;stroke:#502d16;stroke-width:0;stroke-linecap:round;stroke-linejoin:round;stroke-miterlimit:4;stroke-opacity:1"
       d="m 49.606299,574.01575 -0.07199,0.7141 -0.206464,0.66511 -0.32669,0.60188 -0.432669,0.5244 -0.5244,0.43267 -0.601882,0.32669 -0.665115,0.20646 -0.7141,0.072 -0.7141,-0.072 -0.665115,-0.20646 -0.601881,-0.32669 -0.5244,-0.43267 -0.43267,-0.5244 -0.32669,-0.60188 -0.206464,-0.66511 -0.07199,-0.7141 0.07199,-0.7141 0.206464,-0.66512 0.32669,-0.60188 0.43267,-0.5244 0.5244,-0.43267 0.601881,-0.32669 0.665115,-0.20646 0.7141,-0.072 0.7141,0.072 0.665115,0.20646 0.601882,0.32669 0.5244,0.43267 0.432669,0.5244 0.32669,0.60188 0.206464,0.66512 z"
       id="path3933-0"
       inkscape:connector-curvature="0"
       sodipodi:nodetypes="ccccccccccccccccccccccccccccccccc" />
    <path
       transform="matrix(1.5,0,0,1.5,-24.803151,-226.77171)"
       style="fill:#39b7b7;fill-opacity:1;stroke:#502d16;stroke-width:0;stroke-linecap:round;stroke-linejoin:round;stroke-miterlimit:4;stroke-opacity:1"
       d="m 49.606299,574.01575 -0.07199,0.7141 -0.206464,0.66511 -0.32669,0.60188 -0.432669,0.5244 -0.5244,0.43267 -0.601882,0.32669 -0.665115,0.20646 -0.7141,0.072 -0.7141,-0.072 -0.665115,-0.20646 -0.601881,-0.32669 -0.5244,-0.43267 -0.43267,-0.5244 -0.32669,-0.60188 -0.206464,-0.66511 -0.07199,-0.7141 0.07199,-0.7141 0.206464,-0.66512 0.32669,-0.60188 0.43267,-0.5244 0.5244,-0.43267 0.601881,-0.32669 0.665115,-0.20646 0.7141,-0.072 0.7141,0.072 0.665115,0.20646 0.601882,0.32669 0.5244,0.43267 0.432669,0.5244 0.32669,0.60188 0.206464,0.66512 z"
       id="path3933-1-2"
       inkscape:connector-curvature="0"
       sodipodi:nodetypes="ccccccccccccccccccccccccccccccccc" />
    <path
       transform="matrix(1.5,0,0,1.5,161.22047,-345.4725)"
       style="fill:#39b7b7;fill-opacity:1;stroke:#502d16;stroke-width:0;stroke-linecap:round;stroke-linejoin:round;stroke-miterlimit:4;stroke-opacity:1"
       d="m 48.272966,574.01575 -0.07199,0.7141 -0.206464,0.66511 -0.32669,0.60188 -0.432669,0.5244 -0.5244,0.43267 -0.601882,0.32669 -0.665115,0.20646 -0.7141,0.072 -0.7141,-0.072 -0.665115,-0.20646 -0.601881,-0.32669 -0.5244,-0.43267 -0.43267,-0.5244 -0.32669,-0.60188 -0.206464,-0.66511 -0.07199,-0.7141 0.07199,-0.7141 0.206464,-0.66512 0.32669,-0.60188 0.43267,-0.5244 0.5244,-0.43267 0.601881,-0.32669 0.665115,-0.20646 0.7141,-0.072 0.7141,0.072 0.665115,0.20646 0.601882,0.32669 0.5244,0.43267 0.432669,0.5244 0.32669,0.60188 0.206464,0.66512 z"
       id="path3933-5-4"
       inkscape:connector-curvature="0"
       sodipodi:nodetypes="ccccccccccccccccccccccccccccccccc" />
    <path
       transform="matrix(1.5,0,0,1.5,155.90551,-171.85045)"
       style="fill:#39b7b7;fill-opacity:1;stroke:#502d16;stroke-width:0;stroke-linecap:round;stroke-linejoin:round;stroke-miterlimit:4;stroke-opacity:1"
       d="m 49.606299,574.01575 -0.07199,0.7141 -0.206464,0.66511 -0.32669,0.60188 -0.432669,0.5244 -0.5244,0.43267 -0.601882,0.32669 -0.665115,0.20646 -0.7141,0.072 -0.7141,-0.072 -0.665115,-0.20646 -0.601881,-0.32669 -0.5244,-0.43267 -0.43267,-0.5244 -0.32669,-0.60188 -0.206464,-0.66511 -0.07199,-0.7141 0.07199,-0.7141 0.206464,-0.66512 0.32669,-0.60188 0.43267,-0.5244 0.5244,-0.43267 0.601881,-0.32669 0.665115,-0.20646 0.7141,-0.072 0.7141,0.072 0.665115,0.20646 0.601882,0.32669 0.5244,0.43267 0.432669,0.5244 0.32669,0.60188 0.206464,0.66512 z"
       id="path3933-5-2-8"
       inkscape:connector-curvature="0"
       sodipodi:nodetypes="ccccccccccccccccccccccccccccccccc" />
    <path
       style="fill:#c8b7b7;fill-opacity:1;stroke:#502d16;stroke-width:1.65935946;stroke-linecap:round;stroke-linejoin:round;stroke-miterlimit:4;stroke-opacity:1"
       d="m 404.33422,471.25977 289.75676,0 1.49386,0.075 1.44977,0.22004 1.39845,0.35792 1.33993,0.48859 1.2742,0.61204 1.20124,0.72827 1.12108,0.83729 1.03369,0.9391 0.93911,1.0337 0.83729,1.12107 0.72827,1.20125 0.61204,1.27419 0.48858,1.33993 0.35793,1.39845 0.22004,1.44977 0.075,1.49386 0,233.12752 -0.075,1.49386 -0.22004,1.44977 -0.35793,1.39845 -0.48858,1.33993 -0.61204,1.2742 -0.72827,1.20124 -0.83729,1.12108 -0.93911,1.03369 -1.03369,0.93911 -1.12108,0.83729 -1.20124,0.72827 -1.2742,0.61204 -1.33993,0.48858 -1.39845,0.35793 -1.44977,0.22004 -1.49386,0.0749 -289.75676,0 -1.49386,-0.075 -1.44977,-0.22004 -1.39845,-0.35793 -1.33993,-0.48858 -1.2742,-0.61204 -1.20124,-0.72827 -1.12108,-0.83729 -1.03369,-0.93911 -0.93911,-1.03369 -0.83729,-1.12108 -0.72827,-1.20124 -0.61204,-1.2742 -0.48858,-1.33993 -0.35793,-1.39845 -0.22004,-1.44977 -0.075,-1.49386 0,-233.12752 0.075,-1.49386 0.22004,-1.44977 0.35793,-1.39845 0.48858,-1.33993 0.61204,-1.27419 0.72827,-1.20125 0.83729,-1.12107 0.93911,-1.0337 1.03369,-0.9391 1.12108,-0.83729 1.20124,-0.72827 1.2742,-0.61204 1.33993,-0.48859 1.39845,-0.35792 1.44977,-0.22004 1.49386,-0.075 z"
       id="rect2987-9-6"
       inkscape:connector-curvature="0"
       sodipodi:nodetypes="cccccccccccccccccccccccccccccccccccccccccccccccccccccccccccccccccccccc" />
    <path
       transform="matrix(1.5,0,0,1.5,329.52756,-325.98431)"
       style="fill:#39b7b7;fill-opacity:1;stroke:#502d16;stroke-width:0;stroke-linecap:round;stroke-linejoin:round;stroke-miterlimit:4;stroke-opacity:1"
       d="m 49.606299,574.01575 -0.07199,0.7141 -0.206464,0.66511 -0.32669,0.60188 -0.432669,0.5244 -0.5244,0.43267 -0.601882,0.32669 -0.665115,0.20646 -0.7141,0.072 -0.7141,-0.072 -0.665115,-0.20646 -0.601881,-0.32669 -0.5244,-0.43267 -0.43267,-0.5244 -0.32669,-0.60188 -0.206464,-0.66511 -0.07199,-0.7141 0.07199,-0.7141 0.206464,-0.66512 0.32669,-0.60188 0.43267,-0.5244 0.5244,-0.43267 0.601881,-0.32669 0.665115,-0.20646 0.7141,-0.072 0.7141,0.072 0.665115,0.20646 0.601882,0.32669 0.5244,0.43267 0.432669,0.5244 0.32669,0.60188 0.206464,0.66512 z"
       id="path3933-11-3"
       inkscape:connector-curvature="0"
       sodipodi:nodetypes="ccccccccccccccccccccccccccccccccc" />
    <path
       transform="matrix(1.5,0,0,1.5,329.52756,-226.77171)"
       style="fill:#39b7b7;fill-opacity:1;stroke:#502d16;stroke-width:0;stroke-linecap:round;stroke-linejoin:round;stroke-miterlimit:4;stroke-opacity:1"
       d="m 49.606299,574.01575 -0.07199,0.7141 -0.206464,0.66511 -0.32669,0.60188 -0.432669,0.5244 -0.5244,0.43267 -0.601882,0.32669 -0.665115,0.20646 -0.7141,0.072 -0.7141,-0.072 -0.665115,-0.20646 -0.601881,-0.32669 -0.5244,-0.43267 -0.43267,-0.5244 -0.32669,-0.60188 -0.206464,-0.66511 -0.07199,-0.7141 0.07199,-0.7141 0.206464,-0.66512 0.32669,-0.60188 0.43267,-0.5244 0.5244,-0.43267 0.601881,-0.32669 0.665115,-0.20646 0.7141,-0.072 0.7141,0.072 0.665115,0.20646 0.601882,0.32669 0.5244,0.43267 0.432669,0.5244 0.32669,0.60188 0.206464,0.66512 z"
       id="path3933-1-3-4"
       inkscape:connector-curvature="0"
       sodipodi:nodetypes="ccccccccccccccccccccccccccccccccc" />
    <path
       transform="matrix(1.5,0,0,1.5,510.23622,-345.4725)"
       style="fill:#39b7b7;fill-opacity:1;stroke:#502d16;stroke-width:0;stroke-linecap:round;stroke-linejoin:round;stroke-miterlimit:4;stroke-opacity:1"
       d="m 49.606299,574.01575 -0.07199,0.7141 -0.206464,0.66511 -0.32669,0.60188 -0.432669,0.5244 -0.5244,0.43267 -0.601882,0.32669 -0.665115,0.20646 -0.7141,0.072 -0.7141,-0.072 -0.665115,-0.20646 -0.601881,-0.32669 -0.5244,-0.43267 -0.43267,-0.5244 -0.32669,-0.60188 -0.206464,-0.66511 -0.07199,-0.7141 0.07199,-0.7141 0.206464,-0.66512 0.32669,-0.60188 0.43267,-0.5244 0.5244,-0.43267 0.601881,-0.32669 0.665115,-0.20646 0.7141,-0.072 0.7141,0.072 0.665115,0.20646 0.601882,0.32669 0.5244,0.43267 0.432669,0.5244 0.32669,0.60188 0.206464,0.66512 z"
       id="path3933-5-8-4"
       inkscape:connector-curvature="0"
       sodipodi:nodetypes="ccccccccccccccccccccccccccccccccc" />
    <path
       transform="matrix(1.5,0,0,1.5,510.23622,-171.85046)"
       style="fill:#39b7b7;fill-opacity:1;stroke:#502d16;stroke-width:0;stroke-linecap:round;stroke-linejoin:round;stroke-miterlimit:4;stroke-opacity:1"
       d="m 49.606299,574.01575 -0.07199,0.7141 -0.206464,0.66511 -0.32669,0.60188 -0.432669,0.5244 -0.5244,0.43267 -0.601882,0.32669 -0.665115,0.20646 -0.7141,0.072 -0.7141,-0.072 -0.665115,-0.20646 -0.601881,-0.32669 -0.5244,-0.43267 -0.43267,-0.5244 -0.32669,-0.60188 -0.206464,-0.66511 -0.07199,-0.7141 0.07199,-0.7141 0.206464,-0.66512 0.32669,-0.60188 0.43267,-0.5244 0.5244,-0.43267 0.601881,-0.32669 0.665115,-0.20646 0.7141,-0.072 0.7141,0.072 0.665115,0.20646 0.601882,0.32669 0.5244,0.43267 0.432669,0.5244 0.32669,0.60188 0.206464,0.66512 z"
       id="path3933-5-2-7-6"
       inkscape:connector-curvature="0"
       sodipodi:nodetypes="ccccccccccccccccccccccccccccccccc" />
    <path
       transform="matrix(0,0.53941412,-0.4735153,0,537.68868,478.3219)"
       style="fill:#c8b7b7;fill-opacity:1;stroke:#502d16;stroke-width:1.41732287;stroke-linecap:round;stroke-linejoin:round;stroke-miterlimit:4;stroke-opacity:1"
       d="m 32.781814,574.01575 -0.270079,3.04276 -0.7746,2.83404 -1.225663,2.56461 -1.623271,2.23445 -1.96742,1.8436 -2.258113,1.39202 -2.495349,0.87973 -2.679129,0.30674 -2.679129,-0.30674 -2.49535,-0.87973 -2.258113,-1.39202 -1.96742,-1.8436 -1.62327,-2.23445 -1.2256633,-2.56461 -0.7745997,-2.83404 -0.2700792,-3.04276 0.2700792,-3.04276 0.7745997,-2.83404 1.2256633,-2.56461 1.62327,-2.23445 1.96742,-1.8436 2.258113,-1.39202 2.49535,-0.87973 2.679129,-0.30674 2.679129,0.30674 2.495349,0.87973 2.258113,1.39202 1.96742,1.8436 1.623271,2.23445 1.225663,2.56461 0.7746,2.83404 z"
       id="path3790-27-0"
       inkscape:connector-curvature="0"
       sodipodi:nodetypes="ccccccccccccccccccccccccccccccccc" />
    <path
       transform="matrix(0,0.53941412,-0.4735153,0,502.1202,478.46411)"
       style="fill:#c8b7b7;fill-opacity:1;stroke:#502d16;stroke-width:1.41732287;stroke-linecap:round;stroke-linejoin:round;stroke-miterlimit:4;stroke-opacity:1"
       d="m 32.781814,574.01575 -0.270079,3.04276 -0.7746,2.83404 -1.225663,2.56461 -1.623271,2.23445 -1.96742,1.8436 -2.258113,1.39202 -2.495349,0.87973 -2.679129,0.30674 -2.679129,-0.30674 -2.495349,-0.87973 -2.258114,-1.39202 -1.96742,-1.8436 -1.62327,-2.23445 -1.2256633,-2.56461 -0.7745997,-2.83404 -0.2700792,-3.04276 0.2700792,-3.04276 0.7745997,-2.83404 1.2256633,-2.56461 1.62327,-2.23445 1.96742,-1.8436 2.258114,-1.39202 2.495349,-0.87973 2.679129,-0.30674 2.679129,0.30674 2.495349,0.87973 2.258113,1.39202 1.96742,1.8436 1.623271,2.23445 1.225663,2.56461 0.7746,2.83404 z"
       id="path3790-1-793-6"
       inkscape:connector-curvature="0"
       sodipodi:nodetypes="ccccccccccccccccccccccccccccccccc" />
    <path
       transform="matrix(0,0.53941412,-0.4735153,0,466.68712,705.23577)"
       style="fill:#c8b7b7;fill-opacity:1;stroke:#502d16;stroke-width:1.41732287;stroke-linecap:round;stroke-linejoin:round;stroke-miterlimit:4;stroke-opacity:1"
       d="m 32.781814,574.01575 -0.270079,3.04276 -0.7746,2.83404 -1.225663,2.56461 -1.623271,2.23445 -1.96742,1.8436 -2.258113,1.39202 -2.495349,0.87973 -2.679129,0.30674 -2.679129,-0.30674 -2.495349,-0.87973 -2.258114,-1.39202 -1.96742,-1.8436 -1.62327,-2.23445 -1.2256633,-2.56461 -0.7745997,-2.83404 -0.2700792,-3.04276 0.2700792,-3.04276 0.7745997,-2.83404 1.2256633,-2.56461 1.62327,-2.23445 1.96742,-1.8436 2.258114,-1.39202 2.495349,-0.87973 2.679129,-0.30674 2.679129,0.30674 2.495349,0.87973 2.258113,1.39202 1.96742,1.8436 1.623271,2.23445 1.225663,2.56461 0.7746,2.83404 z"
       id="path3790-27-6"
       inkscape:connector-curvature="0"
       sodipodi:nodetypes="ccccccccccccccccccccccccccccccccc" />
    <path
       transform="matrix(0,0.53941412,-0.4735153,0,431.11864,705.37798)"
       style="fill:#c8b7b7;fill-opacity:1;stroke:#502d16;stroke-width:1.41732287;stroke-linecap:round;stroke-linejoin:round;stroke-miterlimit:4;stroke-opacity:1"
       d="m 32.781814,574.01575 -0.270079,3.04276 -0.7746,2.83404 -1.225663,2.56461 -1.623271,2.23445 -1.96742,1.8436 -2.258113,1.39202 -2.495349,0.87973 -2.679129,0.30674 -2.679129,-0.30674 -2.495349,-0.87973 -2.258114,-1.39202 -1.96742,-1.8436 -1.62327,-2.23445 -1.2256633,-2.56461 -0.7745997,-2.83404 -0.2700792,-3.04276 0.2700792,-3.04276 0.7745997,-2.83404 1.2256633,-2.56461 1.62327,-2.23445 1.96742,-1.8436 2.258114,-1.39202 2.495349,-0.87973 2.679129,-0.30674 2.679129,0.30674 2.495349,0.87973 2.258113,1.39202 1.96742,1.8436 1.623271,2.23445 1.225663,2.56461 0.7746,2.83404 z"
       id="path3790-1-793-1"
       inkscape:connector-curvature="0"
       sodipodi:nodetypes="ccccccccccccccccccccccccccccccccc" />
    <path
       transform="matrix(0,0.53941412,-0.4735153,0,324.95484,705.23577)"
       style="fill:#c8b7b7;fill-opacity:1;stroke:#502d16;stroke-width:1.41732287;stroke-linecap:round;stroke-linejoin:round;stroke-miterlimit:4;stroke-opacity:1"
       d="m 32.781814,574.01575 -0.270079,3.04276 -0.7746,2.83404 -1.225663,2.56461 -1.623271,2.23445 -1.96742,1.8436 -2.258113,1.39202 -2.495349,0.87973 -2.679129,0.30674 -2.679129,-0.30674 -2.495349,-0.87973 -2.258114,-1.39202 -1.96742,-1.8436 -1.62327,-2.23445 -1.2256633,-2.56461 -0.7745997,-2.83404 -0.2700792,-3.04276 0.2700792,-3.04276 0.7745997,-2.83404 1.2256633,-2.56461 1.62327,-2.23445 1.96742,-1.8436 2.258114,-1.39202 2.495349,-0.87973 2.679129,-0.30674 2.679129,0.30674 2.495349,0.87973 2.258113,1.39202 1.96742,1.8436 1.623271,2.23445 1.225663,2.56461 0.7746,2.83404 z"
       id="path3790-1-7-19-8"
       inkscape:connector-curvature="0"
       sodipodi:nodetypes="ccccccccccccccccccccccccccccccccc" />
    <path
       transform="matrix(0,0.53941412,-0.4735153,0,395.82098,705.23577)"
       style="fill:#c8b7b7;fill-opacity:1;stroke:#502d16;stroke-width:1.41732287;stroke-linecap:round;stroke-linejoin:round;stroke-miterlimit:4;stroke-opacity:1"
       d="m 32.781814,574.01575 -0.270079,3.04276 -0.7746,2.83404 -1.225663,2.56461 -1.623271,2.23445 -1.96742,1.8436 -2.258113,1.39202 -2.495349,0.87973 -2.679129,0.30674 -2.679129,-0.30674 -2.495349,-0.87973 -2.258114,-1.39202 -1.96742,-1.8436 -1.62327,-2.23445 -1.2256633,-2.56461 -0.7745997,-2.83404 -0.2700792,-3.04276 0.2700792,-3.04276 0.7745997,-2.83404 1.2256633,-2.56461 1.62327,-2.23445 1.96742,-1.8436 2.258114,-1.39202 2.495349,-0.87973 2.679129,-0.30674 2.679129,0.30674 2.495349,0.87973 2.258113,1.39202 1.96742,1.8436 1.623271,2.23445 1.225663,2.56461 0.7746,2.83404 z"
       id="path3790-1-4-8-4"
       inkscape:connector-curvature="0"
       sodipodi:nodetypes="ccccccccccccccccccccccccccccccccc" />
    <path
       transform="matrix(0,0.53941412,-0.4735153,0,360.38791,705.23577)"
       style="fill:#c8b7b7;fill-opacity:1;stroke:#502d16;stroke-width:1.41732287;stroke-linecap:round;stroke-linejoin:round;stroke-miterlimit:4;stroke-opacity:1"
       d="m 32.781814,574.01575 -0.270079,3.04276 -0.7746,2.83404 -1.225663,2.56461 -1.623271,2.23445 -1.96742,1.8436 -2.258113,1.39202 -2.495349,0.87973 -2.679129,0.30674 -2.679129,-0.30674 -2.495349,-0.87973 -2.258114,-1.39202 -1.96742,-1.8436 -1.62327,-2.23445 -1.2256633,-2.56461 -0.7745997,-2.83404 -0.2700792,-3.04276 0.2700792,-3.04276 0.7745997,-2.83404 1.2256633,-2.56461 1.62327,-2.23445 1.96742,-1.8436 2.258114,-1.39202 2.495349,-0.87973 2.679129,-0.30674 2.679129,0.30674 2.495349,0.87973 2.258113,1.39202 1.96742,1.8436 1.623271,2.23445 1.225663,2.56461 0.7746,2.83404 z"
       id="path3790-1-0-6-9"
       inkscape:connector-curvature="0"
       sodipodi:nodetypes="ccccccccccccccccccccccccccccccccc" />
    <path
       transform="matrix(0,0.53941412,-0.4735153,0,537.68868,705.09356)"
       style="fill:#c8b7b7;fill-opacity:1;stroke:#502d16;stroke-width:1.41732287;stroke-linecap:round;stroke-linejoin:round;stroke-miterlimit:4;stroke-opacity:1"
       d="m 32.781814,574.01575 -0.270079,3.04276 -0.7746,2.83404 -1.225663,2.56461 -1.623271,2.23445 -1.96742,1.8436 -2.258113,1.39202 -2.495349,0.87973 -2.679129,0.30674 -2.679129,-0.30674 -2.495349,-0.87973 -2.258114,-1.39202 -1.96742,-1.8436 -1.62327,-2.23445 -1.2256633,-2.56461 -0.7745997,-2.83404 -0.2700792,-3.04276 0.2700792,-3.04276 0.7745997,-2.83404 1.2256633,-2.56461 1.62327,-2.23445 1.96742,-1.8436 2.258114,-1.39202 2.495349,-0.87973 2.679129,-0.30674 2.679129,0.30674 2.495349,0.87973 2.258113,1.39202 1.96742,1.8436 1.623271,2.23445 1.225663,2.56461 0.7746,2.83404 z"
       id="path3790-27-0-6"
       inkscape:connector-curvature="0"
       sodipodi:nodetypes="ccccccccccccccccccccccccccccccccc" />
    <path
       transform="matrix(0,0.53941412,-0.4735153,0,502.1202,705.23577)"
       style="fill:#c8b7b7;fill-opacity:1;stroke:#502d16;stroke-width:1.41732287;stroke-linecap:round;stroke-linejoin:round;stroke-miterlimit:4;stroke-opacity:1"
       d="m 32.781814,574.01575 -0.270079,3.04276 -0.7746,2.83404 -1.225663,2.56461 -1.623271,2.23445 -1.96742,1.8436 -2.258113,1.39202 -2.495349,0.87973 -2.679129,0.30674 -2.679129,-0.30674 -2.495349,-0.87973 -2.258114,-1.39202 -1.96742,-1.8436 -1.62327,-2.23445 -1.2256633,-2.56461 -0.7745997,-2.83404 -0.2700792,-3.04276 0.2700792,-3.04276 0.7745997,-2.83404 1.2256633,-2.56461 1.62327,-2.23445 1.96742,-1.8436 2.258114,-1.39202 2.495349,-0.87973 2.679129,-0.30674 2.679129,0.30674 2.495349,0.87973 2.258113,1.39202 1.96742,1.8436 1.623271,2.23445 1.225663,2.56461 0.7746,2.83404 z"
       id="path3790-1-793-6-3"
       inkscape:connector-curvature="0"
       sodipodi:nodetypes="ccccccccccccccccccccccccccccccccc" />
    <path
       transform="matrix(0,0.53941412,-0.4735153,0,821.01783,478.46411)"
       style="fill:#c8b7b7;fill-opacity:1;stroke:#502d16;stroke-width:1.41732287;stroke-linecap:round;stroke-linejoin:round;stroke-miterlimit:4;stroke-opacity:1"
       d="m 32.781814,574.01575 -0.270079,3.04276 -0.7746,2.83404 -1.225663,2.56461 -1.623271,2.23445 -1.96742,1.8436 -2.258113,1.39202 -2.495349,0.87973 -2.679129,0.30674 -2.679129,-0.30674 -2.495349,-0.87973 -2.258114,-1.39202 -1.96742,-1.8436 -1.62327,-2.23445 -1.2256633,-2.56461 -0.7745997,-2.83404 -0.2700792,-3.04276 0.2700792,-3.04276 0.7745997,-2.83404 1.2256633,-2.56461 1.62327,-2.23445 1.96742,-1.8436 2.258114,-1.39202 2.495349,-0.87973 2.679129,-0.30674 2.679129,0.30674 2.495349,0.87973 2.258113,1.39202 1.96742,1.8436 1.623271,2.23445 1.225663,2.56461 0.7746,2.83404 z"
       id="path3790-27-7"
       inkscape:connector-curvature="0"
       sodipodi:nodetypes="ccccccccccccccccccccccccccccccccc" />
    <path
       transform="matrix(0,0.53941412,-0.4735153,0,785.44935,478.60632)"
       style="fill:#c8b7b7;fill-opacity:1;stroke:#502d16;stroke-width:1.41732287;stroke-linecap:round;stroke-linejoin:round;stroke-miterlimit:4;stroke-opacity:1"
       d="m 32.781814,574.01575 -0.270079,3.04276 -0.7746,2.83404 -1.225663,2.56461 -1.623271,2.23445 -1.96742,1.8436 -2.258113,1.39202 -2.495349,0.87973 -2.679129,0.30674 -2.679129,-0.30674 -2.49535,-0.87973 -2.258113,-1.39202 -1.96742,-1.8436 -1.62327,-2.23445 -1.2256633,-2.56461 -0.7745997,-2.83404 -0.2700792,-3.04276 0.2700792,-3.04276 0.7745997,-2.83404 1.2256633,-2.56461 1.62327,-2.23445 1.96742,-1.8436 2.258114,-1.39202 2.495349,-0.87973 2.679129,-0.30674 2.679129,0.30674 2.495349,0.87973 2.258113,1.39202 1.96742,1.8436 1.623271,2.23445 1.225663,2.56461 0.7746,2.83404 z"
       id="path3790-1-793-8"
       inkscape:connector-curvature="0"
       sodipodi:nodetypes="ccccccccccccccccccccccccccccccccc" />
    <path
       transform="matrix(0,0.53941412,-0.4735153,0,679.28555,478.46411)"
       style="fill:#c8b7b7;fill-opacity:1;stroke:#502d16;stroke-width:1.41732287;stroke-linecap:round;stroke-linejoin:round;stroke-miterlimit:4;stroke-opacity:1"
       d="m 32.781814,574.01575 -0.270079,3.04276 -0.7746,2.83404 -1.225663,2.56461 -1.623271,2.23445 -1.96742,1.8436 -2.258113,1.39202 -2.495349,0.87973 -2.679129,0.30674 -2.679129,-0.30674 -2.495349,-0.87973 -2.258114,-1.39202 -1.96742,-1.8436 -1.62327,-2.23445 -1.2256633,-2.56461 -0.7745997,-2.83404 -0.2700792,-3.04276 0.2700792,-3.04276 0.7745997,-2.83404 1.2256633,-2.56461 1.62327,-2.23445 1.96742,-1.8436 2.258114,-1.39202 2.495349,-0.87973 2.679129,-0.30674 2.679129,0.30674 2.495349,0.87973 2.258113,1.39202 1.96742,1.8436 1.623271,2.23445 1.225663,2.56461 0.7746,2.83404 z"
       id="path3790-1-7-19-82"
       inkscape:connector-curvature="0"
       sodipodi:nodetypes="ccccccccccccccccccccccccccccccccc" />
    <path
       transform="matrix(0,0.53941412,-0.4735153,0,750.15169,478.46411)"
       style="fill:#c8b7b7;fill-opacity:1;stroke:#502d16;stroke-width:1.41732287;stroke-linecap:round;stroke-linejoin:round;stroke-miterlimit:4;stroke-opacity:1"
       d="m 32.781814,574.01575 -0.270079,3.04276 -0.7746,2.83404 -1.225663,2.56461 -1.623271,2.23445 -1.96742,1.8436 -2.258113,1.39202 -2.495349,0.87973 -2.679129,0.30674 -2.679129,-0.30674 -2.495349,-0.87973 -2.258114,-1.39202 -1.96742,-1.8436 -1.62327,-2.23445 -1.2256633,-2.56461 -0.7745997,-2.83404 -0.2700792,-3.04276 0.2700792,-3.04276 0.7745997,-2.83404 1.2256633,-2.56461 1.62327,-2.23445 1.96742,-1.8436 2.258114,-1.39202 2.495349,-0.87973 2.679129,-0.30674 2.679129,0.30674 2.495349,0.87973 2.258113,1.39202 1.96742,1.8436 1.623271,2.23445 1.225663,2.56461 0.7746,2.83404 z"
       id="path3790-1-4-8-9"
       inkscape:connector-curvature="0"
       sodipodi:nodetypes="ccccccccccccccccccccccccccccccccc" />
    <path
       transform="matrix(0,0.53941412,-0.4735153,0,714.71862,478.46411)"
       style="fill:#c8b7b7;fill-opacity:1;stroke:#502d16;stroke-width:1.41732287;stroke-linecap:round;stroke-linejoin:round;stroke-miterlimit:4;stroke-opacity:1"
       d="m 32.781814,574.01575 -0.270079,3.04276 -0.7746,2.83404 -1.225663,2.56461 -1.623271,2.23445 -1.96742,1.8436 -2.258113,1.39202 -2.495349,0.87973 -2.679129,0.30674 -2.679129,-0.30674 -2.495349,-0.87973 -2.258114,-1.39202 -1.96742,-1.8436 -1.62327,-2.23445 -1.2256633,-2.56461 -0.7745997,-2.83404 -0.2700792,-3.04276 0.2700792,-3.04276 0.7745997,-2.83404 1.2256633,-2.56461 1.62327,-2.23445 1.96742,-1.8436 2.258114,-1.39202 2.495349,-0.87973 2.679129,-0.30674 2.679129,0.30674 2.495349,0.87973 2.258113,1.39202 1.96742,1.8436 1.623271,2.23445 1.225663,2.56461 0.7746,2.83404 z"
       id="path3790-1-0-6-1"
       inkscape:connector-curvature="0"
       sodipodi:nodetypes="ccccccccccccccccccccccccccccccccc" />
    <path
       transform="matrix(0,0.53941412,-0.4735153,0,892.01939,478.3219)"
       style="fill:#c8b7b7;fill-opacity:1;stroke:#502d16;stroke-width:1.41732287;stroke-linecap:round;stroke-linejoin:round;stroke-miterlimit:4;stroke-opacity:1"
       d="m 32.781814,574.01575 -0.270079,3.04276 -0.7746,2.83404 -1.225663,2.56461 -1.623271,2.23445 -1.96742,1.8436 -2.258113,1.39202 -2.495349,0.87973 -2.679129,0.30674 -2.679129,-0.30674 -2.49535,-0.87973 -2.258113,-1.39202 -1.96742,-1.8436 -1.62327,-2.23445 -1.2256633,-2.56461 -0.7745997,-2.83404 -0.2700792,-3.04276 0.2700792,-3.04276 0.7745997,-2.83404 1.2256633,-2.56461 1.62327,-2.23445 1.96742,-1.8436 2.258114,-1.39202 2.495349,-0.87973 2.679129,-0.30674 2.679129,0.30674 2.495349,0.87973 2.258113,1.39202 1.96742,1.8436 1.623271,2.23445 1.225663,2.56461 0.7746,2.83404 z"
       id="path3790-27-0-3"
       inkscape:connector-curvature="0"
       sodipodi:nodetypes="ccccccccccccccccccccccccccccccccc" />
    <path
       transform="matrix(0,0.53941412,-0.4735153,0,856.45091,478.46411)"
       style="fill:#c8b7b7;fill-opacity:1;stroke:#502d16;stroke-width:1.41732287;stroke-linecap:round;stroke-linejoin:round;stroke-miterlimit:4;stroke-opacity:1"
       d="m 32.781814,574.01575 -0.270079,3.04276 -0.7746,2.83404 -1.225663,2.56461 -1.623271,2.23445 -1.96742,1.8436 -2.258113,1.39202 -2.495349,0.87973 -2.679129,0.30674 -2.679129,-0.30674 -2.495349,-0.87973 -2.258114,-1.39202 -1.96742,-1.8436 -1.62327,-2.23445 -1.2256633,-2.56461 -0.7745997,-2.83404 -0.2700792,-3.04276 0.2700792,-3.04276 0.7745997,-2.83404 1.2256633,-2.56461 1.62327,-2.23445 1.96742,-1.8436 2.258114,-1.39202 2.495349,-0.87973 2.679129,-0.30674 2.679129,0.30674 2.495349,0.87973 2.258113,1.39202 1.96742,1.8436 1.623271,2.23445 1.225663,2.56461 0.7746,2.83404 z"
       id="path3790-1-793-6-5"
       inkscape:connector-curvature="0"
       sodipodi:nodetypes="ccccccccccccccccccccccccccccccccc" />
    <path
       transform="matrix(0,0.53941412,-0.4735153,0,962.88553,478.3219)"
       style="fill:#c8b7b7;fill-opacity:1;stroke:#502d16;stroke-width:1.41732287;stroke-linecap:round;stroke-linejoin:round;stroke-miterlimit:4;stroke-opacity:1"
       d="m 32.781814,574.01575 -0.270079,3.04276 -0.7746,2.83404 -1.225663,2.56461 -1.623271,2.23445 -1.96742,1.8436 -2.258113,1.39202 -2.495349,0.87973 -2.679129,0.30674 -2.679129,-0.30674 -2.49535,-0.87973 -2.258113,-1.39202 -1.96742,-1.8436 -1.62327,-2.23445 -1.2256633,-2.56461 -0.7745997,-2.83404 -0.2700792,-3.04276 0.2700792,-3.04276 0.7745997,-2.83404 1.2256633,-2.56461 1.62327,-2.23445 1.96742,-1.8436 2.258114,-1.39202 2.495349,-0.87973 2.679129,-0.30674 2.679129,0.30674 2.495349,0.87973 2.258113,1.39202 1.96742,1.8436 1.623271,2.23445 1.225663,2.56461 0.7746,2.83404 z"
       id="path3790-27-0-3-9"
       inkscape:connector-curvature="0"
       sodipodi:nodetypes="ccccccccccccccccccccccccccccccccc" />
    <path
       transform="matrix(0,0.53941412,-0.4735153,0,927.31705,478.46411)"
       style="fill:#c8b7b7;fill-opacity:1;stroke:#502d16;stroke-width:1.41732287;stroke-linecap:round;stroke-linejoin:round;stroke-miterlimit:4;stroke-opacity:1"
       d="m 32.781814,574.01575 -0.270079,3.04276 -0.7746,2.83404 -1.225663,2.56461 -1.623271,2.23445 -1.96742,1.8436 -2.258113,1.39202 -2.495349,0.87973 -2.679129,0.30674 -2.679129,-0.30674 -2.495349,-0.87973 -2.258114,-1.39202 -1.96742,-1.8436 -1.62327,-2.23445 -1.2256633,-2.56461 -0.7745997,-2.83404 -0.2700792,-3.04276 0.2700792,-3.04276 0.7745997,-2.83404 1.2256633,-2.56461 1.62327,-2.23445 1.96742,-1.8436 2.258114,-1.39202 2.495349,-0.87973 2.679129,-0.30674 2.679129,0.30674 2.495349,0.87973 2.258113,1.39202 1.96742,1.8436 1.623271,2.23445 1.225663,2.56461 0.7746,2.83404 z"
       id="path3790-1-793-6-5-8"
       inkscape:connector-curvature="0"
       sodipodi:nodetypes="ccccccccccccccccccccccccccccccccc" />
    <path
       transform="matrix(0,0.53941412,-0.4735153,0,821.01783,705.23576)"
       style="fill:#c8b7b7;fill-opacity:1;stroke:#502d16;stroke-width:1.41732287;stroke-linecap:round;stroke-linejoin:round;stroke-miterlimit:4;stroke-opacity:1"
       d="m 32.781814,574.01575 -0.270079,3.04276 -0.7746,2.83404 -1.225663,2.56461 -1.623271,2.23445 -1.96742,1.8436 -2.258113,1.39202 -2.495349,0.87973 -2.679129,0.30674 -2.679129,-0.30674 -2.495349,-0.87973 -2.258114,-1.39202 -1.96742,-1.8436 -1.62327,-2.23445 -1.2256633,-2.56461 -0.7745997,-2.83404 -0.2700792,-3.04276 0.2700792,-3.04276 0.7745997,-2.83404 1.2256633,-2.56461 1.62327,-2.23445 1.96742,-1.8436 2.258114,-1.39202 2.495349,-0.87973 2.679129,-0.30674 2.679129,0.30674 2.495349,0.87973 2.258113,1.39202 1.96742,1.8436 1.623271,2.23445 1.225663,2.56461 0.7746,2.83404 z"
       id="path3790-27-7-4"
       inkscape:connector-curvature="0"
       sodipodi:nodetypes="ccccccccccccccccccccccccccccccccc" />
    <path
       transform="matrix(0,0.53941412,-0.4735153,0,785.44935,705.37797)"
       style="fill:#c8b7b7;fill-opacity:1;stroke:#502d16;stroke-width:1.41732287;stroke-linecap:round;stroke-linejoin:round;stroke-miterlimit:4;stroke-opacity:1"
       d="m 32.781814,574.01575 -0.270079,3.04276 -0.7746,2.83404 -1.225663,2.56461 -1.623271,2.23445 -1.96742,1.8436 -2.258113,1.39202 -2.495349,0.87973 -2.679129,0.30674 -2.679129,-0.30674 -2.495349,-0.87973 -2.258114,-1.39202 -1.96742,-1.8436 -1.62327,-2.23445 -1.2256633,-2.56461 -0.7745997,-2.83404 -0.2700792,-3.04276 0.2700792,-3.04276 0.7745997,-2.83404 1.2256633,-2.56461 1.62327,-2.23445 1.96742,-1.8436 2.258114,-1.39202 2.495349,-0.87973 2.679129,-0.30674 2.679129,0.30674 2.495349,0.87973 2.258113,1.39202 1.96742,1.8436 1.623271,2.23445 1.225663,2.56461 0.7746,2.83404 z"
       id="path3790-1-793-8-0"
       inkscape:connector-curvature="0"
       sodipodi:nodetypes="ccccccccccccccccccccccccccccccccc" />
    <path
       transform="matrix(0,0.53941412,-0.4735153,0,679.28555,705.23576)"
       style="fill:#c8b7b7;fill-opacity:1;stroke:#502d16;stroke-width:1.41732287;stroke-linecap:round;stroke-linejoin:round;stroke-miterlimit:4;stroke-opacity:1"
       d="m 32.781814,574.01575 -0.270079,3.04276 -0.7746,2.83404 -1.225663,2.56461 -1.623271,2.23445 -1.96742,1.8436 -2.258113,1.39202 -2.495349,0.87973 -2.679129,0.30674 -2.679129,-0.30674 -2.495349,-0.87973 -2.258114,-1.39202 -1.96742,-1.8436 -1.62327,-2.23445 -1.2256633,-2.56461 -0.7745997,-2.83404 -0.2700792,-3.04276 0.2700792,-3.04276 0.7745997,-2.83404 1.2256633,-2.56461 1.62327,-2.23445 1.96742,-1.8436 2.258114,-1.39202 2.495349,-0.87973 2.679129,-0.30674 2.679129,0.30674 2.495349,0.87973 2.258113,1.39202 1.96742,1.8436 1.623271,2.23445 1.225663,2.56461 0.7746,2.83404 z"
       id="path3790-1-7-19-82-7"
       inkscape:connector-curvature="0"
       sodipodi:nodetypes="ccccccccccccccccccccccccccccccccc" />
    <path
       transform="matrix(0,0.53941412,-0.4735153,0,750.15169,705.23576)"
       style="fill:#c8b7b7;fill-opacity:1;stroke:#502d16;stroke-width:1.41732287;stroke-linecap:round;stroke-linejoin:round;stroke-miterlimit:4;stroke-opacity:1"
       d="m 32.781814,574.01575 -0.270079,3.04276 -0.7746,2.83404 -1.225663,2.56461 -1.623271,2.23445 -1.96742,1.8436 -2.258113,1.39202 -2.495349,0.87973 -2.679129,0.30674 -2.679129,-0.30674 -2.495349,-0.87973 -2.258114,-1.39202 -1.96742,-1.8436 -1.62327,-2.23445 -1.2256633,-2.56461 -0.7745997,-2.83404 -0.2700792,-3.04276 0.2700792,-3.04276 0.7745997,-2.83404 1.2256633,-2.56461 1.62327,-2.23445 1.96742,-1.8436 2.258114,-1.39202 2.495349,-0.87973 2.679129,-0.30674 2.679129,0.30674 2.495349,0.87973 2.258113,1.39202 1.96742,1.8436 1.623271,2.23445 1.225663,2.56461 0.7746,2.83404 z"
       id="path3790-1-4-8-9-6"
       inkscape:connector-curvature="0"
       sodipodi:nodetypes="ccccccccccccccccccccccccccccccccc" />
    <path
       transform="matrix(0,0.53941412,-0.4735153,0,714.71862,705.23576)"
       style="fill:#c8b7b7;fill-opacity:1;stroke:#502d16;stroke-width:1.41732287;stroke-linecap:round;stroke-linejoin:round;stroke-miterlimit:4;stroke-opacity:1"
       d="m 32.781814,574.01575 -0.270079,3.04276 -0.7746,2.83404 -1.225663,2.56461 -1.623271,2.23445 -1.96742,1.8436 -2.258113,1.39202 -2.495349,0.87973 -2.679129,0.30674 -2.679129,-0.30674 -2.495349,-0.87973 -2.258114,-1.39202 -1.96742,-1.8436 -1.62327,-2.23445 -1.2256633,-2.56461 -0.7745997,-2.83404 -0.2700792,-3.04276 0.2700792,-3.04276 0.7745997,-2.83404 1.2256633,-2.56461 1.62327,-2.23445 1.96742,-1.8436 2.258114,-1.39202 2.495349,-0.87973 2.679129,-0.30674 2.679129,0.30674 2.495349,0.87973 2.258113,1.39202 1.96742,1.8436 1.623271,2.23445 1.225663,2.56461 0.7746,2.83404 z"
       id="path3790-1-0-6-1-3"
       inkscape:connector-curvature="0"
       sodipodi:nodetypes="ccccccccccccccccccccccccccccccccc" />
    <path
       transform="matrix(0,0.53941412,-0.4735153,0,892.01939,705.09355)"
       style="fill:#c8b7b7;fill-opacity:1;stroke:#502d16;stroke-width:1.41732287;stroke-linecap:round;stroke-linejoin:round;stroke-miterlimit:4;stroke-opacity:1"
       d="m 32.781814,574.01575 -0.270079,3.04276 -0.7746,2.83404 -1.225663,2.56461 -1.623271,2.23445 -1.96742,1.8436 -2.258113,1.39202 -2.495349,0.87973 -2.679129,0.30674 -2.679129,-0.30674 -2.495349,-0.87973 -2.258114,-1.39202 -1.96742,-1.8436 -1.62327,-2.23445 -1.2256633,-2.56461 -0.7745997,-2.83404 -0.2700792,-3.04276 0.2700792,-3.04276 0.7745997,-2.83404 1.2256633,-2.56461 1.62327,-2.23445 1.96742,-1.8436 2.258114,-1.39202 2.495349,-0.87973 2.679129,-0.30674 2.679129,0.30674 2.495349,0.87973 2.258113,1.39202 1.96742,1.8436 1.623271,2.23445 1.225663,2.56461 0.7746,2.83404 z"
       id="path3790-27-0-3-6"
       inkscape:connector-curvature="0"
       sodipodi:nodetypes="ccccccccccccccccccccccccccccccccc" />
    <path
       transform="matrix(0,0.53941412,-0.4735153,0,856.45091,705.23576)"
       style="fill:#c8b7b7;fill-opacity:1;stroke:#502d16;stroke-width:1.41732287;stroke-linecap:round;stroke-linejoin:round;stroke-miterlimit:4;stroke-opacity:1"
       d="m 32.781814,574.01575 -0.270079,3.04276 -0.7746,2.83404 -1.225663,2.56461 -1.623271,2.23445 -1.96742,1.8436 -2.258113,1.39202 -2.495349,0.87973 -2.679129,0.30674 -2.679129,-0.30674 -2.495349,-0.87973 -2.258114,-1.39202 -1.96742,-1.8436 -1.62327,-2.23445 -1.2256633,-2.56461 -0.7745997,-2.83404 -0.2700792,-3.04276 0.2700792,-3.04276 0.7745997,-2.83404 1.2256633,-2.56461 1.62327,-2.23445 1.96742,-1.8436 2.258114,-1.39202 2.495349,-0.87973 2.679129,-0.30674 2.679129,0.30674 2.495349,0.87973 2.258113,1.39202 1.96742,1.8436 1.623271,2.23445 1.225663,2.56461 0.7746,2.83404 z"
       id="path3790-1-793-6-5-1"
       inkscape:connector-curvature="0"
       sodipodi:nodetypes="ccccccccccccccccccccccccccccccccc" />
    <path
       transform="matrix(0,0.53941412,-0.4735153,0,962.88553,705.09355)"
       style="fill:#c8b7b7;fill-opacity:1;stroke:#502d16;stroke-width:1.41732287;stroke-linecap:round;stroke-linejoin:round;stroke-miterlimit:4;stroke-opacity:1"
       d="m 32.781814,574.01575 -0.270079,3.04276 -0.7746,2.83404 -1.225663,2.56461 -1.623271,2.23445 -1.96742,1.8436 -2.258113,1.39202 -2.495349,0.87973 -2.679129,0.30674 -2.679129,-0.30674 -2.495349,-0.87973 -2.258114,-1.39202 -1.96742,-1.8436 -1.62327,-2.23445 -1.2256633,-2.56461 -0.7745997,-2.83404 -0.2700792,-3.04276 0.2700792,-3.04276 0.7745997,-2.83404 1.2256633,-2.56461 1.62327,-2.23445 1.96742,-1.8436 2.258114,-1.39202 2.495349,-0.87973 2.679129,-0.30674 2.679129,0.30674 2.495349,0.87973 2.258113,1.39202 1.96742,1.8436 1.623271,2.23445 1.225663,2.56461 0.7746,2.83404 z"
       id="path3790-27-0-3-9-5"
       inkscape:connector-curvature="0"
       sodipodi:nodetypes="ccccccccccccccccccccccccccccccccc" />
    <path
       transform="matrix(0,0.53941412,-0.4735153,0,927.31705,705.23576)"
       style="fill:#c8b7b7;fill-opacity:1;stroke:#502d16;stroke-width:1.41732287;stroke-linecap:round;stroke-linejoin:round;stroke-miterlimit:4;stroke-opacity:1"
       d="m 32.781814,574.01575 -0.270079,3.04276 -0.7746,2.83404 -1.225663,2.56461 -1.623271,2.23445 -1.96742,1.8436 -2.258113,1.39202 -2.495349,0.87973 -2.679129,0.30674 -2.679129,-0.30674 -2.495349,-0.87973 -2.258114,-1.39202 -1.96742,-1.8436 -1.62327,-2.23445 -1.2256633,-2.56461 -0.7745997,-2.83404 -0.2700792,-3.04276 0.2700792,-3.04276 0.7745997,-2.83404 1.2256633,-2.56461 1.62327,-2.23445 1.96742,-1.8436 2.258114,-1.39202 2.495349,-0.87973 2.679129,-0.30674 2.679129,0.30674 2.495349,0.87973 2.258113,1.39202 1.96742,1.8436 1.623271,2.23445 1.225663,2.56461 0.7746,2.83404 z"
       id="path3790-1-793-6-5-8-4"
       inkscape:connector-curvature="0"
       sodipodi:nodetypes="ccccccccccccccccccccccccccccccccc" />
  </g>
</svg>
