<?xml version="1.0" encoding="UTF-8" standalone="no"?>
<!-- Created with Inkscape (http://www.inkscape.org/) -->

<svg
   xmlns:dc="http://purl.org/dc/elements/1.1/"
   xmlns:cc="http://creativecommons.org/ns#"
   xmlns:rdf="http://www.w3.org/1999/02/22-rdf-syntax-ns#"
   xmlns:svg="http://www.w3.org/2000/svg"
   xmlns="http://www.w3.org/2000/svg"
   xmlns:sodipodi="http://sodipodi.sourceforge.net/DTD/sodipodi-0.dtd"
   xmlns:inkscape="http://www.inkscape.org/namespaces/inkscape"
   width="1052.3622"
   height="744.09448"
   id="svg2"
   version="1.1"
   inkscape:version="0.48.4 r9939"
   sodipodi:docname="motor2_holder-4dxf.svg">
  <defs
     id="defs4" />
  <sodipodi:namedview
     id="base"
     pagecolor="#ffffff"
     bordercolor="#666666"
     borderopacity="1.0"
     inkscape:pageopacity="0.0"
     inkscape:pageshadow="2"
     inkscape:zoom="1.12"
     inkscape:cx="140.00855"
     inkscape:cy="41.864924"
     inkscape:document-units="mm"
     inkscape:current-layer="layer1"
     showgrid="true"
     inkscape:window-width="1366"
     inkscape:window-height="705"
     inkscape:window-x="-8"
     inkscape:window-y="-8"
     inkscape:window-maximized="1"
     units="mm"
     inkscape:snap-bbox="true"
     inkscape:bbox-paths="true"
     inkscape:bbox-nodes="true"
     showguides="true"
     inkscape:guide-bbox="true"
     inkscape:snap-bbox-midpoints="true"
     inkscape:snap-bbox-edge-midpoints="true">
    <inkscape:grid
       type="xygrid"
       id="grid3231"
       empspacing="5"
       visible="true"
       enabled="true"
       snapvisiblegridlinesonly="true"
       units="mm"
       spacingx="1mm"
       spacingy="1mm"
       color="#e200ff"
       opacity="0.1254902"
       empcolor="#920092"
       empopacity="0.25098039" />
    <sodipodi:guide
       orientation="1,0"
       position="106.29921,35.433071"
       id="guide3773" />
    <sodipodi:guide
       orientation="0,1"
       position="134.64567,0"
       id="guide3797" />
    <sodipodi:guide
       orientation="1,0"
       position="177.16535,24.80315"
       id="guide3801" />
    <sodipodi:guide
       orientation="0,1"
       position="81.496063,77.952756"
       id="guide3014" />
    <sodipodi:guide
       orientation="1,0"
       position="248.0315,28.346457"
       id="guide3016" />
    <sodipodi:guide
       orientation="0,1"
       position="248.0315,49.606299"
       id="guide3018" />
    <sodipodi:guide
       orientation="1,0"
       position="184.25197,38.976378"
       id="guide3020" />
    <sodipodi:guide
       orientation="1,0"
       position="99.212598,31.889764"
       id="guide3022" />
    <sodipodi:guide
       orientation="0,1"
       position="152.3622,67.322835"
       id="guide3028" />
    <sodipodi:guide
       orientation="0,1"
       position="184.25197,-17.716535"
       id="guide3030" />
    <sodipodi:guide
       orientation="1,0"
       position="116.92913,-24.80315"
       id="guide3032" />
    <sodipodi:guide
       orientation="1,0"
       position="124.01575,-21.259843"
       id="guide3034" />
    <sodipodi:guide
       orientation="1,0"
       position="166.53543,-7.0866142"
       id="guide3036" />
    <sodipodi:guide
       orientation="1,0"
       position="159.44882,-7.0866142"
       id="guide3038" />
    <sodipodi:guide
       orientation="1,0"
       position="262.20472,60.23622"
       id="guide3044" />
    <sodipodi:guide
       orientation="1,0"
       position="325.98425,95.669291"
       id="guide3013" />
    <sodipodi:guide
       orientation="1,0"
       position="35.433071,10.629921"
       id="guide3015" />
    <sodipodi:guide
       orientation="1,0"
       position="-42.519685,-14.173228"
       id="guide3017" />
    <sodipodi:guide
       orientation="1,0"
       position="21.259843,42.519685"
       id="guide3019" />
  </sodipodi:namedview>
  <metadata
     id="metadata7">
    <rdf:RDF>
      <cc:Work
         rdf:about="">
        <dc:format>image/svg+xml</dc:format>
        <dc:type
           rdf:resource="http://purl.org/dc/dcmitype/StillImage" />
        <dc:title></dc:title>
      </cc:Work>
    </rdf:RDF>
  </metadata>
  <g
     inkscape:label="Layer 1"
     inkscape:groupmode="layer"
     id="layer1"
     transform="translate(0,-308.26769)">
    <path
       style="fill:#ffaaaa;fill-opacity:1;stroke:#000000;stroke-width:0;stroke-linecap:butt;stroke-linejoin:miter;stroke-miterlimit:4;stroke-opacity:1;stroke-dasharray:none"
       d="m -42.519685,985.03932 0.66437,-4.65059 1.99311,-3.32185 3.32185,-1.99311 4.650591,-0.66437 42.519685,3e-5 4.650591,0.66437 3.32185,1.99311 1.99311,3.32185 0.66437,4.65059 0,17.71655 0,-17.71655 14.173229,-4e-5 0,17.71659 212.598429,0 0,-17.71656 14.17322,-3e-5 0,17.71659 0,-17.71659 0.66437,-4.65059 1.99311,-3.32185 3.32185,-1.99311 4.65059,-0.66437 42.51968,-3e-5 4.6506,0.66437 3.32185,1.99311 1.99311,3.32185 0.66437,4.65059 0,67.32292 -63.77953,0 0,17.7165 -14.17322,0 0,-17.7165 -81.49607,0 0,17.7165 -7.08661,0 0,-17.7165 -35.43307,0 0,17.7165 -7.08662,0 0,-17.7165 -81.496059,0 0,17.7165 -14.173228,0 0,-17.7165 -63.779528,0 z"
       id="path3236"
       inkscape:connector-curvature="0"
       sodipodi:nodetypes="ccccccccccccccccccccccccccccccccccccccccccccccc" />
    <path
       transform="matrix(0.53941412,0,0,0.4735153,-38.774507,716.77741)"
       style="fill:#502d16;fill-opacity:1;stroke:none"
       d="m 32.781814,574.01575 -0.270079,3.04276 -0.7746,2.83404 -1.225663,2.56461 -1.623271,2.23445 -1.96742,1.8436 -2.258113,1.39202 -2.495349,0.87973 -2.679129,0.30674 -2.679129,-0.30674 -2.49535,-0.87973 -2.258113,-1.39202 -1.96742,-1.8436 -1.62327,-2.23445 -1.2256633,-2.56461 -0.7745997,-2.83404 -0.2700792,-3.04276 0.2700792,-3.04276 0.7745997,-2.83404 1.2256633,-2.56461 1.62327,-2.23445 1.96742,-1.8436 2.258113,-1.39202 2.49535,-0.87973 2.679129,-0.30674 2.679129,0.30674 2.495349,0.87973 2.258113,1.39202 1.96742,1.8436 1.623271,2.23445 1.225663,2.56461 0.7746,2.83404 z"
       id="path3790-17"
       inkscape:connector-curvature="0"
       sodipodi:nodetypes="ccccccccccccccccccccccccccccccccc" />
    <path
       transform="matrix(0.53941412,0,0,0.4735153,301.29882,716.77741)"
       style="fill:#502d16;fill-opacity:1;stroke:none"
       d="m 32.781814,574.01575 -0.270079,3.04276 -0.7746,2.83404 -1.225663,2.56461 -1.623271,2.23445 -1.96742,1.8436 -2.258113,1.39202 -2.495349,0.87973 -2.679129,0.30674 -2.679129,-0.30674 -2.495349,-0.87973 -2.258114,-1.39202 -1.96742,-1.8436 -1.62327,-2.23445 -1.2256633,-2.56461 -0.7745997,-2.83404 -0.2700792,-3.04276 0.2700792,-3.04276 0.7745997,-2.83404 1.2256633,-2.56461 1.62327,-2.23445 1.96742,-1.8436 2.258114,-1.39202 2.495349,-0.87973 2.679129,-0.30674 2.679129,0.30674 2.495349,0.87973 2.258113,1.39202 1.96742,1.8436 1.623271,2.23445 1.225663,2.56461 0.7746,2.83404 z"
       id="path3790-1-4"
       inkscape:connector-curvature="0"
       sodipodi:nodetypes="ccccccccccccccccccccccccccccccccc" />
    <path
       transform="matrix(0.53941412,0,0,0.4735153,-3.3414356,716.77741)"
       style="fill:#502d16;fill-opacity:1;stroke:none"
       d="m 32.781814,574.01575 -0.270079,3.04276 -0.7746,2.83404 -1.225663,2.56461 -1.623271,2.23445 -1.96742,1.8436 -2.258113,1.39202 -2.495349,0.87973 -2.679129,0.30674 -2.679129,-0.30674 -2.49535,-0.87973 -2.258113,-1.39202 -1.96742,-1.8436 -1.62327,-2.23445 -1.2256633,-2.56461 -0.7745997,-2.83404 -0.2700792,-3.04276 0.2700792,-3.04276 0.7745997,-2.83404 1.2256633,-2.56461 1.62327,-2.23445 1.96742,-1.8436 2.258114,-1.39202 2.495349,-0.87973 2.679129,-0.30674 2.679129,0.30674 2.495349,0.87973 2.258113,1.39202 1.96742,1.8436 1.623271,2.23445 1.225663,2.56461 0.7746,2.83404 z"
       id="path3790-5"
       inkscape:connector-curvature="0"
       sodipodi:nodetypes="ccccccccccccccccccccccccccccccccc" />
    <path
       transform="matrix(0.53941412,0,0,0.4735153,265.86575,716.77741)"
       style="fill:#502d16;fill-opacity:1;stroke:none"
       d="m 32.781814,574.01575 -0.270079,3.04276 -0.7746,2.83404 -1.225663,2.56461 -1.623271,2.23445 -1.96742,1.8436 -2.258113,1.39202 -2.495349,0.87973 -2.679129,0.30674 -2.679129,-0.30674 -2.49535,-0.87973 -2.258113,-1.39202 -1.96742,-1.8436 -1.62327,-2.23445 -1.2256633,-2.56461 -0.7745997,-2.83404 -0.2700792,-3.04276 0.2700792,-3.04276 0.7745997,-2.83404 1.2256633,-2.56461 1.62327,-2.23445 1.96742,-1.8436 2.258113,-1.39202 2.49535,-0.87973 2.679129,-0.30674 2.679129,0.30674 2.495349,0.87973 2.258113,1.39202 1.96742,1.8436 1.623271,2.23445 1.225663,2.56461 0.7746,2.83404 z"
       id="path3790-5-7"
       inkscape:connector-curvature="0"
       sodipodi:nodetypes="ccccccccccccccccccccccccccccccccc" />
  </g>
</svg>
