<?xml version="1.0" encoding="UTF-8" standalone="no"?>
<!-- Created with Inkscape (http://www.inkscape.org/) -->

<svg
   xmlns:dc="http://purl.org/dc/elements/1.1/"
   xmlns:cc="http://creativecommons.org/ns#"
   xmlns:rdf="http://www.w3.org/1999/02/22-rdf-syntax-ns#"
   xmlns:svg="http://www.w3.org/2000/svg"
   xmlns="http://www.w3.org/2000/svg"
   xmlns:sodipodi="http://sodipodi.sourceforge.net/DTD/sodipodi-0.dtd"
   xmlns:inkscape="http://www.inkscape.org/namespaces/inkscape"
   width="1052.3622"
   height="744.09448"
   id="svg2"
   version="1.1"
   inkscape:version="0.48.4 r9939"
   sodipodi:docname="servo_holder-4dxf.svg">
  <defs
     id="defs4" />
  <sodipodi:namedview
     id="base"
     pagecolor="#ffffff"
     bordercolor="#666666"
     borderopacity="1.0"
     inkscape:pageopacity="0.0"
     inkscape:pageshadow="2"
     inkscape:zoom="1.12"
     inkscape:cx="2.9002539"
     inkscape:cy="164.88072"
     inkscape:document-units="mm"
     inkscape:current-layer="layer1"
     showgrid="true"
     inkscape:window-width="1366"
     inkscape:window-height="705"
     inkscape:window-x="-8"
     inkscape:window-y="-8"
     inkscape:window-maximized="1"
     units="mm"
     showguides="true"
     inkscape:guide-bbox="true"
     inkscape:snap-bbox="true"
     inkscape:bbox-paths="true"
     inkscape:bbox-nodes="true"
     inkscape:snap-bbox-edge-midpoints="true"
     inkscape:snap-bbox-midpoints="true">
    <inkscape:grid
       type="xygrid"
       id="grid3231"
       empspacing="5"
       visible="true"
       enabled="true"
       snapvisiblegridlinesonly="true"
       units="mm"
       spacingx="0.5mm"
       spacingy="0.5mm"
       color="#ef00ff"
       opacity="0.1254902"
       empcolor="#c60020"
       empopacity="0.25098039" />
    <sodipodi:guide
       orientation="0,1"
       position="265.74803,460.62992"
       id="guide4240" />
    <sodipodi:guide
       orientation="0,1"
       position="248.0315,301.1811"
       id="guide4242" />
    <sodipodi:guide
       orientation="0,1"
       position="21.259843,593.50394"
       id="guide3876" />
    <sodipodi:guide
       orientation="1,0"
       position="24.80315,577.55906"
       id="guide3878" />
    <sodipodi:guide
       orientation="1,0"
       position="12.401575,598.8189"
       id="guide3880" />
    <sodipodi:guide
       orientation="1,0"
       position="30.11811,584.64567"
       id="guide3900" />
    <sodipodi:guide
       orientation="1,0"
       position="37.204724,581.10236"
       id="guide3913" />
    <sodipodi:guide
       orientation="1,0"
       position="44.291339,566.92913"
       id="guide3922" />
    <sodipodi:guide
       orientation="1,0"
       position="51.377953,582.87402"
       id="guide3924" />
    <sodipodi:guide
       orientation="1,0"
       position="58.464567,579.33071"
       id="guide3926" />
    <sodipodi:guide
       orientation="1,0"
       position="65.551181,565.15748"
       id="guide3928" />
    <sodipodi:guide
       orientation="1,0"
       position="-15.944882,547.44094"
       id="guide4173" />
    <sodipodi:guide
       orientation="0,1"
       position="1.7716535,529.72441"
       id="guide4175" />
    <sodipodi:guide
       orientation="0,1"
       position="-31.889764,565.15748"
       id="guide4177" />
    <sodipodi:guide
       orientation="1,0"
       position="-51.377953,558.07087"
       id="guide4179" />
    <sodipodi:guide
       orientation="0,1"
       position="-28.346457,621.85039"
       id="guide4181" />
    <sodipodi:guide
       orientation="0,1"
       position="-10.629921,657.28346"
       id="guide4183" />
    <sodipodi:guide
       orientation="1,0"
       position="76.181102,630.70866"
       id="guide4185" />
  </sodipodi:namedview>
  <metadata
     id="metadata7">
    <rdf:RDF>
      <cc:Work
         rdf:about="">
        <dc:format>image/svg+xml</dc:format>
        <dc:type
           rdf:resource="http://purl.org/dc/dcmitype/StillImage" />
        <dc:title />
      </cc:Work>
    </rdf:RDF>
  </metadata>
  <g
     inkscape:label="Layer 1"
     inkscape:groupmode="layer"
     id="layer1"
     transform="translate(0,-308.26769)">
    <g
       id="g3148"
       transform="translate(51.877953,529.22441)">
      <path
         sodipodi:nodetypes="sssssssssssssssssssssssssssssssss"
         inkscape:connector-curvature="0"
         id="path4289"
         d="m 212.59843,141.73228 c 0,1.22307 -0.12394,2.4172 -0.35994,3.5705 -0.236,1.15331 -0.58406,2.26579 -1.03231,3.32558 -0.44826,1.05979 -0.9967,2.06688 -1.63345,3.00941 -0.63676,0.94252 -1.36184,1.82048 -2.16335,2.622 -0.80152,0.80151 -1.67947,1.52659 -2.622,2.16334 -0.94252,0.63676 -1.94962,1.1852 -3.00941,1.63346 -1.05978,0.44825 -2.17227,0.79631 -3.32557,1.03231 -1.1533,0.236 -2.34743,0.35994 -3.5705,0.35994 -1.22307,0 -2.4172,-0.12394 -3.5705,-0.35994 -1.15331,-0.236 -2.26579,-0.58406 -3.32558,-1.03231 -1.05979,-0.44826 -2.06688,-0.9967 -3.00941,-1.63346 -0.94252,-0.63675 -1.82048,-1.36183 -2.622,-2.16334 -0.80151,-0.80152 -1.52659,-1.67948 -2.16334,-2.622 -0.63676,-0.94253 -1.1852,-1.94962 -1.63346,-3.00941 -0.44825,-1.05979 -0.79631,-2.17227 -1.03231,-3.32558 -0.236,-1.1533 -0.35994,-2.34743 -0.35994,-3.5705 0,-1.22307 0.12394,-2.4172 0.35994,-3.5705 0.236,-1.1533 0.58406,-2.26579 1.03231,-3.32557 0.44826,-1.05979 0.9967,-2.06689 1.63346,-3.00941 0.63675,-0.94253 1.36183,-1.82048 2.16334,-2.622 0.80152,-0.80151 1.67948,-1.52659 2.622,-2.16335 0.94253,-0.63675 1.94962,-1.18519 3.00941,-1.63345 1.05979,-0.44825 2.17227,-0.79631 3.32558,-1.03231 1.1533,-0.236 2.34743,-0.35994 3.5705,-0.35994 1.22307,0 2.4172,0.12394 3.5705,0.35994 1.1533,0.236 2.26579,0.58406 3.32557,1.03231 1.05979,0.44826 2.06689,0.9967 3.00941,1.63345 0.94253,0.63676 1.82048,1.36184 2.622,2.16335 0.80151,0.80152 1.52659,1.67947 2.16335,2.622 0.63675,0.94252 1.18519,1.94962 1.63345,3.00941 0.44825,1.05978 0.79631,2.17227 1.03231,3.32557 0.236,1.1533 0.35994,2.34743 0.35994,3.5705 z"
         style="fill:#00ffff;fill-opacity:1;stroke:#502d16;stroke-width:0;stroke-linecap:round;stroke-linejoin:round;stroke-miterlimit:4;stroke-opacity:1"
         transform="matrix(0.69999999,0,0,0.69999999,-124.01575,359.64564)" />
      <path
         sodipodi:nodetypes="sssssssssssssssssssssssssssssssss"
         inkscape:connector-curvature="0"
         id="path4289-4"
         d="m 212.59843,141.73228 c 0,1.22307 -0.12394,2.4172 -0.35994,3.5705 -0.236,1.15331 -0.58406,2.26579 -1.03231,3.32558 -0.44826,1.05979 -0.9967,2.06688 -1.63345,3.00941 -0.63676,0.94252 -1.36184,1.82048 -2.16335,2.622 -0.80152,0.80151 -1.67947,1.52659 -2.622,2.16334 -0.94252,0.63676 -1.94962,1.1852 -3.00941,1.63346 -1.05978,0.44825 -2.17227,0.79631 -3.32557,1.03231 -1.1533,0.236 -2.34743,0.35994 -3.5705,0.35994 -1.22307,0 -2.4172,-0.12394 -3.5705,-0.35994 -1.15331,-0.236 -2.26579,-0.58406 -3.32558,-1.03231 -1.05979,-0.44826 -2.06688,-0.9967 -3.00941,-1.63346 -0.94252,-0.63675 -1.82048,-1.36183 -2.622,-2.16334 -0.80151,-0.80152 -1.52659,-1.67948 -2.16334,-2.622 -0.63676,-0.94253 -1.1852,-1.94962 -1.63346,-3.00941 -0.44825,-1.05979 -0.79631,-2.17227 -1.03231,-3.32558 -0.236,-1.1533 -0.35994,-2.34743 -0.35994,-3.5705 0,-1.22307 0.12394,-2.4172 0.35994,-3.5705 0.236,-1.1533 0.58406,-2.26579 1.03231,-3.32557 0.44826,-1.05979 0.9967,-2.06689 1.63346,-3.00941 0.63675,-0.94253 1.36183,-1.82048 2.16334,-2.622 0.80152,-0.80151 1.67948,-1.52659 2.622,-2.16335 0.94253,-0.63675 1.94962,-1.18519 3.00941,-1.63345 1.05979,-0.44825 2.17227,-0.79631 3.32558,-1.03231 1.1533,-0.236 2.34743,-0.35994 3.5705,-0.35994 1.22307,0 2.4172,0.12394 3.5705,0.35994 1.1533,0.236 2.26579,0.58406 3.32557,1.03231 1.05979,0.44826 2.06689,0.9967 3.00941,1.63345 0.94253,0.63676 1.82048,1.36184 2.622,2.16335 0.80151,0.80152 1.52659,1.67947 2.16335,2.622 0.63675,0.94252 1.18519,1.94962 1.63345,3.00941 0.44825,1.05978 0.79631,2.17227 1.03231,3.32557 0.236,1.1533 0.35994,2.34743 0.35994,3.5705 z"
         style="fill:#00ffff;fill-opacity:1;stroke:#502d16;stroke-width:0;stroke-linecap:round;stroke-linejoin:round;stroke-miterlimit:4;stroke-opacity:1"
         transform="matrix(0.1,0,0,0.1,10.629921,444.685)" />
      <path
         sodipodi:nodetypes="sssssssssssssssssssssssssssssssss"
         inkscape:connector-curvature="0"
         id="path4289-4-0"
         d="m 212.59843,141.73228 c 0,1.22307 -0.12394,2.4172 -0.35994,3.5705 -0.236,1.15331 -0.58406,2.26579 -1.03231,3.32558 -0.44826,1.05979 -0.9967,2.06688 -1.63345,3.00941 -0.63676,0.94252 -1.36184,1.82048 -2.16335,2.622 -0.80152,0.80151 -1.67947,1.52659 -2.622,2.16334 -0.94252,0.63676 -1.94962,1.1852 -3.00941,1.63346 -1.05978,0.44825 -2.17227,0.79631 -3.32557,1.03231 -1.1533,0.236 -2.34743,0.35994 -3.5705,0.35994 -1.22307,0 -2.4172,-0.12394 -3.5705,-0.35994 -1.15331,-0.236 -2.26579,-0.58406 -3.32558,-1.03231 -1.05979,-0.44826 -2.06688,-0.9967 -3.00941,-1.63346 -0.94252,-0.63675 -1.82048,-1.36183 -2.622,-2.16334 -0.80151,-0.80152 -1.52659,-1.67948 -2.16334,-2.622 -0.63676,-0.94253 -1.1852,-1.94962 -1.63346,-3.00941 -0.44825,-1.05979 -0.79631,-2.17227 -1.03231,-3.32558 -0.236,-1.1533 -0.35994,-2.34743 -0.35994,-3.5705 0,-1.22307 0.12394,-2.4172 0.35994,-3.5705 0.236,-1.1533 0.58406,-2.26579 1.03231,-3.32557 0.44826,-1.05979 0.9967,-2.06689 1.63346,-3.00941 0.63675,-0.94253 1.36183,-1.82048 2.16334,-2.622 0.80152,-0.80151 1.67948,-1.52659 2.622,-2.16335 0.94253,-0.63675 1.94962,-1.18519 3.00941,-1.63345 1.05979,-0.44825 2.17227,-0.79631 3.32558,-1.03231 1.1533,-0.236 2.34743,-0.35994 3.5705,-0.35994 1.22307,0 2.4172,0.12394 3.5705,0.35994 1.1533,0.236 2.26579,0.58406 3.32557,1.03231 1.05979,0.44826 2.06689,0.9967 3.00941,1.63345 0.94253,0.63676 1.82048,1.36184 2.622,2.16335 0.80151,0.80152 1.52659,1.67947 2.16335,2.622 0.63675,0.94252 1.18519,1.94962 1.63345,3.00941 0.44825,1.05978 0.79631,2.17227 1.03231,3.32557 0.236,1.1533 0.35994,2.34743 0.35994,3.5705 z"
         style="fill:#00ffff;fill-opacity:1;stroke:#502d16;stroke-width:0;stroke-linecap:round;stroke-linejoin:round;stroke-miterlimit:4;stroke-opacity:1"
         transform="matrix(0.1,0,0,0.1,17.716535,444.685)" />
      <path
         sodipodi:nodetypes="sssssssssssssssssssssssssssssssss"
         inkscape:connector-curvature="0"
         id="path4289-4-9"
         d="m 212.59843,141.73228 c 0,1.22307 -0.12394,2.4172 -0.35994,3.5705 -0.236,1.15331 -0.58406,2.26579 -1.03231,3.32558 -0.44826,1.05979 -0.9967,2.06688 -1.63345,3.00941 -0.63676,0.94252 -1.36184,1.82048 -2.16335,2.622 -0.80152,0.80151 -1.67947,1.52659 -2.622,2.16334 -0.94252,0.63676 -1.94962,1.1852 -3.00941,1.63346 -1.05978,0.44825 -2.17227,0.79631 -3.32557,1.03231 -1.1533,0.236 -2.34743,0.35994 -3.5705,0.35994 -1.22307,0 -2.4172,-0.12394 -3.5705,-0.35994 -1.15331,-0.236 -2.26579,-0.58406 -3.32558,-1.03231 -1.05979,-0.44826 -2.06688,-0.9967 -3.00941,-1.63346 -0.94252,-0.63675 -1.82048,-1.36183 -2.622,-2.16334 -0.80151,-0.80152 -1.52659,-1.67948 -2.16334,-2.622 -0.63676,-0.94253 -1.1852,-1.94962 -1.63346,-3.00941 -0.44825,-1.05979 -0.79631,-2.17227 -1.03231,-3.32558 -0.236,-1.1533 -0.35994,-2.34743 -0.35994,-3.5705 0,-1.22307 0.12394,-2.4172 0.35994,-3.5705 0.236,-1.1533 0.58406,-2.26579 1.03231,-3.32557 0.44826,-1.05979 0.9967,-2.06689 1.63346,-3.00941 0.63675,-0.94253 1.36183,-1.82048 2.16334,-2.622 0.80152,-0.80151 1.67948,-1.52659 2.622,-2.16335 0.94253,-0.63675 1.94962,-1.18519 3.00941,-1.63345 1.05979,-0.44825 2.17227,-0.79631 3.32558,-1.03231 1.1533,-0.236 2.34743,-0.35994 3.5705,-0.35994 1.22307,0 2.4172,0.12394 3.5705,0.35994 1.1533,0.236 2.26579,0.58406 3.32557,1.03231 1.05979,0.44826 2.06689,0.9967 3.00941,1.63345 0.94253,0.63676 1.82048,1.36184 2.622,2.16335 0.80151,0.80152 1.52659,1.67947 2.16335,2.622 0.63675,0.94252 1.18519,1.94962 1.63345,3.00941 0.44825,1.05978 0.79631,2.17227 1.03231,3.32557 0.236,1.1533 0.35994,2.34743 0.35994,3.5705 z"
         style="fill:#00ffff;fill-opacity:1;stroke:#502d16;stroke-width:0;stroke-linecap:round;stroke-linejoin:round;stroke-miterlimit:4;stroke-opacity:1"
         transform="matrix(0.1,0,0,0.1,24.803149,444.685)" />
      <path
         sodipodi:nodetypes="sssssssssssssssssssssssssssssssss"
         inkscape:connector-curvature="0"
         id="path4289-4-4"
         d="m 212.59843,141.73228 c 0,1.22307 -0.12394,2.4172 -0.35994,3.5705 -0.236,1.15331 -0.58406,2.26579 -1.03231,3.32558 -0.44826,1.05979 -0.9967,2.06688 -1.63345,3.00941 -0.63676,0.94252 -1.36184,1.82048 -2.16335,2.622 -0.80152,0.80151 -1.67947,1.52659 -2.622,2.16334 -0.94252,0.63676 -1.94962,1.1852 -3.00941,1.63346 -1.05978,0.44825 -2.17227,0.79631 -3.32557,1.03231 -1.1533,0.236 -2.34743,0.35994 -3.5705,0.35994 -1.22307,0 -2.4172,-0.12394 -3.5705,-0.35994 -1.15331,-0.236 -2.26579,-0.58406 -3.32558,-1.03231 -1.05979,-0.44826 -2.06688,-0.9967 -3.00941,-1.63346 -0.94252,-0.63675 -1.82048,-1.36183 -2.622,-2.16334 -0.80151,-0.80152 -1.52659,-1.67948 -2.16334,-2.622 -0.63676,-0.94253 -1.1852,-1.94962 -1.63346,-3.00941 -0.44825,-1.05979 -0.79631,-2.17227 -1.03231,-3.32558 -0.236,-1.1533 -0.35994,-2.34743 -0.35994,-3.5705 0,-1.22307 0.12394,-2.4172 0.35994,-3.5705 0.236,-1.1533 0.58406,-2.26579 1.03231,-3.32557 0.44826,-1.05979 0.9967,-2.06689 1.63346,-3.00941 0.63675,-0.94253 1.36183,-1.82048 2.16334,-2.622 0.80152,-0.80151 1.67948,-1.52659 2.622,-2.16335 0.94253,-0.63675 1.94962,-1.18519 3.00941,-1.63345 1.05979,-0.44825 2.17227,-0.79631 3.32558,-1.03231 1.1533,-0.236 2.34743,-0.35994 3.5705,-0.35994 1.22307,0 2.4172,0.12394 3.5705,0.35994 1.1533,0.236 2.26579,0.58406 3.32557,1.03231 1.05979,0.44826 2.06689,0.9967 3.00941,1.63345 0.94253,0.63676 1.82048,1.36184 2.622,2.16335 0.80151,0.80152 1.52659,1.67947 2.16335,2.622 0.63675,0.94252 1.18519,1.94962 1.63345,3.00941 0.44825,1.05978 0.79631,2.17227 1.03231,3.32557 0.236,1.1533 0.35994,2.34743 0.35994,3.5705 z"
         style="fill:#00ffff;fill-opacity:1;stroke:#502d16;stroke-width:0;stroke-linecap:round;stroke-linejoin:round;stroke-miterlimit:4;stroke-opacity:1"
         transform="matrix(0.1,0,0,0.1,31.889763,444.685)" />
      <path
         sodipodi:nodetypes="sssssssssssssssssssssssssssssssss"
         inkscape:connector-curvature="0"
         id="path4289-4-8"
         d="m 212.59843,141.73228 c 0,1.22307 -0.12394,2.4172 -0.35994,3.5705 -0.236,1.15331 -0.58406,2.26579 -1.03231,3.32558 -0.44826,1.05979 -0.9967,2.06688 -1.63345,3.00941 -0.63676,0.94252 -1.36184,1.82048 -2.16335,2.622 -0.80152,0.80151 -1.67947,1.52659 -2.622,2.16334 -0.94252,0.63676 -1.94962,1.1852 -3.00941,1.63346 -1.05978,0.44825 -2.17227,0.79631 -3.32557,1.03231 -1.1533,0.236 -2.34743,0.35994 -3.5705,0.35994 -1.22307,0 -2.4172,-0.12394 -3.5705,-0.35994 -1.15331,-0.236 -2.26579,-0.58406 -3.32558,-1.03231 -1.05979,-0.44826 -2.06688,-0.9967 -3.00941,-1.63346 -0.94252,-0.63675 -1.82048,-1.36183 -2.622,-2.16334 -0.80151,-0.80152 -1.52659,-1.67948 -2.16334,-2.622 -0.63676,-0.94253 -1.1852,-1.94962 -1.63346,-3.00941 -0.44825,-1.05979 -0.79631,-2.17227 -1.03231,-3.32558 -0.236,-1.1533 -0.35994,-2.34743 -0.35994,-3.5705 0,-1.22307 0.12394,-2.4172 0.35994,-3.5705 0.236,-1.1533 0.58406,-2.26579 1.03231,-3.32557 0.44826,-1.05979 0.9967,-2.06689 1.63346,-3.00941 0.63675,-0.94253 1.36183,-1.82048 2.16334,-2.622 0.80152,-0.80151 1.67948,-1.52659 2.622,-2.16335 0.94253,-0.63675 1.94962,-1.18519 3.00941,-1.63345 1.05979,-0.44825 2.17227,-0.79631 3.32558,-1.03231 1.1533,-0.236 2.34743,-0.35994 3.5705,-0.35994 1.22307,0 2.4172,0.12394 3.5705,0.35994 1.1533,0.236 2.26579,0.58406 3.32557,1.03231 1.05979,0.44826 2.06689,0.9967 3.00941,1.63345 0.94253,0.63676 1.82048,1.36184 2.622,2.16335 0.80151,0.80152 1.52659,1.67947 2.16335,2.622 0.63675,0.94252 1.18519,1.94962 1.63345,3.00941 0.44825,1.05978 0.79631,2.17227 1.03231,3.32557 0.236,1.1533 0.35994,2.34743 0.35994,3.5705 z"
         style="fill:#00ffff;fill-opacity:1;stroke:#502d16;stroke-width:0;stroke-linecap:round;stroke-linejoin:round;stroke-miterlimit:4;stroke-opacity:1"
         transform="matrix(0.1,0,0,0.1,38.976378,444.685)" />
      <path
         sodipodi:nodetypes="sssssssssssssssssssssssssssssssss"
         inkscape:connector-curvature="0"
         id="path4289-4-82"
         d="m 212.59843,141.73228 c 0,1.22307 -0.12394,2.4172 -0.35994,3.5705 -0.236,1.15331 -0.58406,2.26579 -1.03231,3.32558 -0.44826,1.05979 -0.9967,2.06688 -1.63345,3.00941 -0.63676,0.94252 -1.36184,1.82048 -2.16335,2.622 -0.80152,0.80151 -1.67947,1.52659 -2.622,2.16334 -0.94252,0.63676 -1.94962,1.1852 -3.00941,1.63346 -1.05978,0.44825 -2.17227,0.79631 -3.32557,1.03231 -1.1533,0.236 -2.34743,0.35994 -3.5705,0.35994 -1.22307,0 -2.4172,-0.12394 -3.5705,-0.35994 -1.15331,-0.236 -2.26579,-0.58406 -3.32558,-1.03231 -1.05979,-0.44826 -2.06688,-0.9967 -3.00941,-1.63346 -0.94252,-0.63675 -1.82048,-1.36183 -2.622,-2.16334 -0.80151,-0.80152 -1.52659,-1.67948 -2.16334,-2.622 -0.63676,-0.94253 -1.1852,-1.94962 -1.63346,-3.00941 -0.44825,-1.05979 -0.79631,-2.17227 -1.03231,-3.32558 -0.236,-1.1533 -0.35994,-2.34743 -0.35994,-3.5705 0,-1.22307 0.12394,-2.4172 0.35994,-3.5705 0.236,-1.1533 0.58406,-2.26579 1.03231,-3.32557 0.44826,-1.05979 0.9967,-2.06689 1.63346,-3.00941 0.63675,-0.94253 1.36183,-1.82048 2.16334,-2.622 0.80152,-0.80151 1.67948,-1.52659 2.622,-2.16335 0.94253,-0.63675 1.94962,-1.18519 3.00941,-1.63345 1.05979,-0.44825 2.17227,-0.79631 3.32558,-1.03231 1.1533,-0.236 2.34743,-0.35994 3.5705,-0.35994 1.22307,0 2.4172,0.12394 3.5705,0.35994 1.1533,0.236 2.26579,0.58406 3.32557,1.03231 1.05979,0.44826 2.06689,0.9967 3.00941,1.63345 0.94253,0.63676 1.82048,1.36184 2.622,2.16335 0.80151,0.80152 1.52659,1.67947 2.16335,2.622 0.63675,0.94252 1.18519,1.94962 1.63345,3.00941 0.44825,1.05978 0.79631,2.17227 1.03231,3.32557 0.236,1.1533 0.35994,2.34743 0.35994,3.5705 z"
         style="fill:#00ffff;fill-opacity:1;stroke:#502d16;stroke-width:0;stroke-linecap:round;stroke-linejoin:round;stroke-miterlimit:4;stroke-opacity:1"
         transform="matrix(0.1,0,0,0.1,46.062992,444.685)" />
      <path
         sodipodi:nodetypes="sssssssssssssssssssssssssssssssss"
         inkscape:connector-curvature="0"
         id="path3790-0-8-4"
         d="m 32.781814,574.01575 c 0,1.0423 -0.093,2.05992 -0.270079,3.04276 -0.177083,0.98284 -0.438253,1.9309 -0.7746,2.83404 -0.336347,0.90315 -0.747871,1.76139 -1.225663,2.56461 -0.477793,0.80321 -1.021852,1.55141 -1.623271,2.23445 -0.601418,0.68305 -1.260194,1.30096 -1.96742,1.8436 -0.707225,0.54264 -1.462899,1.01002 -2.258113,1.39202 -0.795214,0.382 -1.629966,0.67862 -2.495349,0.87973 -0.865383,0.20112 -1.761396,0.30674 -2.679129,0.30674 -0.917733,0 -1.813746,-0.10562 -2.679129,-0.30674 -0.865383,-0.20111 -1.700136,-0.49773 -2.49535,-0.87973 -0.795213,-0.382 -1.550887,-0.84938 -2.258113,-1.39202 -0.707225,-0.54264 -1.366002,-1.16055 -1.96742,-1.8436 -0.601418,-0.68304 -1.1454779,-1.43124 -1.62327,-2.23445 -0.4777921,-0.80322 -0.8893163,-1.66146 -1.2256633,-2.56461 -0.336347,-0.90314 -0.5975167,-1.8512 -0.7745997,-2.83404 -0.177083,-0.98284 -0.2700792,-2.00046 -0.2700792,-3.04276 0,-1.0423 0.092996,-2.05992 0.2700792,-3.04276 0.177083,-0.98284 0.4382527,-1.9309 0.7745997,-2.83404 0.336347,-0.90315 0.7478712,-1.76139 1.2256633,-2.56461 0.4777921,-0.80321 1.021852,-1.55141 1.62327,-2.23445 0.601418,-0.68305 1.260195,-1.30096 1.96742,-1.8436 0.707226,-0.54264 1.4629,-1.01002 2.258113,-1.39202 0.795214,-0.382 1.629967,-0.67862 2.49535,-0.87973 0.865383,-0.20112 1.761396,-0.30674 2.679129,-0.30674 0.917733,0 1.813746,0.10562 2.679129,0.30674 0.865383,0.20111 1.700135,0.49773 2.495349,0.87973 0.795214,0.382 1.550888,0.84938 2.258113,1.39202 0.707226,0.54264 1.366002,1.16055 1.96742,1.8436 0.601419,0.68304 1.145478,1.43124 1.623271,2.23445 0.477792,0.80322 0.889316,1.66146 1.225663,2.56461 0.336347,0.90314 0.597517,1.8512 0.7746,2.83404 0.177083,0.98284 0.270079,2.00046 0.270079,3.04276 z"
         style="fill:#c8b7b7;fill-opacity:1;stroke:#502d16;stroke-width:1.41732287;stroke-linecap:round;stroke-linejoin:round;stroke-miterlimit:4;stroke-opacity:1"
         transform="matrix(0,0.53941412,-0.4735153,0,337.76944,501.34664)" />
      <path
         sodipodi:nodetypes="sssssssssssssssssssssssssssssssss"
         inkscape:connector-curvature="0"
         id="path3790-1-9-2-5"
         d="m 32.781814,574.01575 c 0,1.0423 -0.093,2.05992 -0.270079,3.04276 -0.177083,0.98284 -0.438253,1.9309 -0.7746,2.83404 -0.336347,0.90315 -0.747871,1.76139 -1.225663,2.56461 -0.477793,0.80321 -1.021852,1.55141 -1.623271,2.23445 -0.601418,0.68305 -1.260194,1.30096 -1.96742,1.8436 -0.707225,0.54264 -1.462899,1.01002 -2.258113,1.39202 -0.795214,0.382 -1.629966,0.67862 -2.495349,0.87973 -0.865383,0.20112 -1.761396,0.30674 -2.679129,0.30674 -0.917733,0 -1.813746,-0.10562 -2.679129,-0.30674 -0.865383,-0.20111 -1.700136,-0.49773 -2.49535,-0.87973 -0.795213,-0.382 -1.550887,-0.84938 -2.258113,-1.39202 -0.707225,-0.54264 -1.366002,-1.16055 -1.96742,-1.8436 -0.6014181,-0.68304 -1.1454779,-1.43124 -1.62327,-2.23445 -0.4777921,-0.80322 -0.8893163,-1.66146 -1.2256633,-2.56461 -0.336347,-0.90314 -0.5975167,-1.8512 -0.7745997,-2.83404 -0.177083,-0.98284 -0.2700792,-2.00046 -0.2700792,-3.04276 0,-1.0423 0.092996,-2.05992 0.2700792,-3.04276 0.177083,-0.98284 0.4382527,-1.9309 0.7745997,-2.83404 0.336347,-0.90315 0.7478712,-1.76139 1.2256633,-2.56461 0.4777921,-0.80321 1.021852,-1.55141 1.62327,-2.23445 0.601418,-0.68305 1.260195,-1.30096 1.96742,-1.8436 0.707226,-0.54264 1.4629,-1.01002 2.258113,-1.39202 0.795214,-0.382 1.629967,-0.67862 2.49535,-0.87973 0.865383,-0.20112 1.761396,-0.30674 2.679129,-0.30674 0.917733,0 1.813746,0.10562 2.679129,0.30674 0.865383,0.20111 1.700135,0.49773 2.495349,0.87973 0.795214,0.382 1.550888,0.84938 2.258113,1.39202 0.707226,0.54264 1.366002,1.16055 1.96742,1.8436 0.601419,0.68304 1.145478,1.43124 1.623271,2.23445 0.477792,0.80322 0.889316,1.66146 1.225663,2.56461 0.336347,0.90314 0.597517,1.8512 0.7746,2.83404 0.177083,0.98284 0.270079,2.00046 0.270079,3.04276 z"
         style="fill:#c8b7b7;fill-opacity:1;stroke:#502d16;stroke-width:1.41732287;stroke-linecap:round;stroke-linejoin:round;stroke-miterlimit:4;stroke-opacity:1"
         transform="matrix(0,0.53941412,-0.4735153,0,302.20096,501.48885)" />
      <path
         sodipodi:nodetypes="sssssssssssssssssssssssssssssssss"
         inkscape:connector-curvature="0"
         id="path3790-1-9-2-5-1"
         d="m 32.781814,574.01575 c 0,1.0423 -0.093,2.05992 -0.270079,3.04276 -0.177083,0.98284 -0.438253,1.9309 -0.7746,2.83404 -0.336347,0.90315 -0.747871,1.76139 -1.225663,2.56461 -0.477793,0.80321 -1.021852,1.55141 -1.623271,2.23445 -0.601418,0.68305 -1.260194,1.30096 -1.96742,1.8436 -0.707225,0.54264 -1.462899,1.01002 -2.258113,1.39202 -0.795214,0.382 -1.629966,0.67862 -2.495349,0.87973 -0.865383,0.20112 -1.761396,0.30674 -2.679129,0.30674 -0.917733,0 -1.813746,-0.10562 -2.679129,-0.30674 -0.865383,-0.20111 -1.700136,-0.49773 -2.49535,-0.87973 -0.795213,-0.382 -1.550887,-0.84938 -2.258113,-1.39202 -0.707225,-0.54264 -1.366002,-1.16055 -1.96742,-1.8436 -0.6014181,-0.68304 -1.1454779,-1.43124 -1.62327,-2.23445 -0.4777921,-0.80322 -0.8893163,-1.66146 -1.2256633,-2.56461 -0.336347,-0.90314 -0.5975167,-1.8512 -0.7745997,-2.83404 -0.177083,-0.98284 -0.2700792,-2.00046 -0.2700792,-3.04276 0,-1.0423 0.092996,-2.05992 0.2700792,-3.04276 0.177083,-0.98284 0.4382527,-1.9309 0.7745997,-2.83404 0.336347,-0.90315 0.7478712,-1.76139 1.2256633,-2.56461 0.4777921,-0.80321 1.021852,-1.55141 1.62327,-2.23445 0.601418,-0.68305 1.260195,-1.30096 1.96742,-1.8436 0.707226,-0.54264 1.4629,-1.01002 2.258113,-1.39202 0.795214,-0.382 1.629967,-0.67862 2.49535,-0.87973 0.865383,-0.20112 1.761396,-0.30674 2.679129,-0.30674 0.917733,0 1.813746,0.10562 2.679129,0.30674 0.865383,0.20111 1.700135,0.49773 2.495349,0.87973 0.795214,0.382 1.550888,0.84938 2.258113,1.39202 0.707226,0.54264 1.366002,1.16055 1.96742,1.8436 0.601419,0.68304 1.145478,1.43124 1.623271,2.23445 0.477792,0.80322 0.889316,1.66146 1.225663,2.56461 0.336347,0.90314 0.597517,1.8512 0.7746,2.83404 0.177083,0.98284 0.270079,2.00046 0.270079,3.04276 z"
         style="fill:#c8b7b7;fill-opacity:1;stroke:#502d16;stroke-width:1.41732287;stroke-linecap:round;stroke-linejoin:round;stroke-miterlimit:4;stroke-opacity:1"
         transform="matrix(0,0.53941412,-0.4735153,0,266.63248,501.63105)" />
      <path
         sodipodi:nodetypes="sssssssssssssssssssssssssssssssss"
         inkscape:connector-curvature="0"
         id="path3790-5"
         d="m 32.781814,574.01575 c 0,1.0423 -0.093,2.05992 -0.270079,3.04276 -0.177083,0.98284 -0.438253,1.9309 -0.7746,2.83404 -0.336347,0.90315 -0.747871,1.76139 -1.225663,2.56461 -0.477793,0.80321 -1.021852,1.55141 -1.623271,2.23445 -0.601418,0.68305 -1.260194,1.30096 -1.96742,1.8436 -0.707225,0.54264 -1.462899,1.01002 -2.258113,1.39202 -0.795214,0.382 -1.629966,0.67862 -2.495349,0.87973 -0.865383,0.20112 -1.761396,0.30674 -2.679129,0.30674 -0.917733,0 -1.813746,-0.10562 -2.679129,-0.30674 -0.865383,-0.20111 -1.700136,-0.49773 -2.49535,-0.87973 -0.795213,-0.382 -1.550887,-0.84938 -2.258113,-1.39202 -0.707225,-0.54264 -1.366002,-1.16055 -1.96742,-1.8436 -0.6014181,-0.68304 -1.1454779,-1.43124 -1.62327,-2.23445 -0.4777921,-0.80322 -0.8893163,-1.66146 -1.2256633,-2.56461 -0.336347,-0.90314 -0.5975167,-1.8512 -0.7745997,-2.83404 -0.177083,-0.98284 -0.2700792,-2.00046 -0.2700792,-3.04276 0,-1.0423 0.092996,-2.05992 0.2700792,-3.04276 0.177083,-0.98284 0.4382527,-1.9309 0.7745997,-2.83404 0.336347,-0.90315 0.7478712,-1.76139 1.2256633,-2.56461 0.4777921,-0.80321 1.0218519,-1.55141 1.62327,-2.23445 0.601418,-0.68305 1.260195,-1.30096 1.96742,-1.8436 0.707226,-0.54264 1.4629,-1.01002 2.258114,-1.39202 0.795213,-0.382 1.629966,-0.67862 2.495349,-0.87973 0.865383,-0.20112 1.761396,-0.30674 2.679129,-0.30674 0.917733,0 1.813746,0.10562 2.679129,0.30674 0.865383,0.20111 1.700135,0.49773 2.495349,0.87973 0.795214,0.382 1.550888,0.84938 2.258113,1.39202 0.707226,0.54264 1.366002,1.16055 1.96742,1.8436 0.601419,0.68304 1.145478,1.43124 1.623271,2.23445 0.477792,0.80322 0.889316,1.66146 1.225663,2.56461 0.336347,0.90314 0.597517,1.8512 0.7746,2.83404 0.177083,0.98284 0.270079,2.00046 0.270079,3.04276 z"
         style="fill:#c8b7b7;fill-opacity:1;stroke:#502d16;stroke-width:1.41732287;stroke-linecap:round;stroke-linejoin:round;stroke-miterlimit:4;stroke-opacity:1"
         transform="matrix(0.53941412,0,0,0.4735153,-15.827165,204.76953)" />
      <path
         sodipodi:nodetypes="sssssssssssssssssssssssssssssssss"
         inkscape:connector-curvature="0"
         id="path3790-61"
         d="m 32.781814,574.01575 c 0,1.0423 -0.093,2.05992 -0.270079,3.04276 -0.177083,0.98284 -0.438253,1.9309 -0.7746,2.83404 -0.336347,0.90315 -0.747871,1.76139 -1.225663,2.56461 -0.477793,0.80321 -1.021852,1.55141 -1.623271,2.23445 -0.601418,0.68305 -1.260194,1.30096 -1.96742,1.8436 -0.707225,0.54264 -1.462899,1.01002 -2.258113,1.39202 -0.795214,0.382 -1.629966,0.67862 -2.495349,0.87973 -0.865383,0.20112 -1.761396,0.30674 -2.679129,0.30674 -0.917733,0 -1.813746,-0.10562 -2.679129,-0.30674 -0.865383,-0.20111 -1.700136,-0.49773 -2.49535,-0.87973 -0.795213,-0.382 -1.550887,-0.84938 -2.258113,-1.39202 -0.707225,-0.54264 -1.366002,-1.16055 -1.96742,-1.8436 -0.6014181,-0.68304 -1.1454779,-1.43124 -1.62327,-2.23445 -0.4777921,-0.80322 -0.8893163,-1.66146 -1.2256633,-2.56461 -0.336347,-0.90314 -0.5975167,-1.8512 -0.7745997,-2.83404 -0.177083,-0.98284 -0.2700792,-2.00046 -0.2700792,-3.04276 0,-1.0423 0.092996,-2.05992 0.2700792,-3.04276 0.177083,-0.98284 0.4382527,-1.9309 0.7745997,-2.83404 0.336347,-0.90315 0.7478712,-1.76139 1.2256633,-2.56461 0.4777921,-0.80321 1.0218519,-1.55141 1.62327,-2.23445 0.601418,-0.68305 1.260195,-1.30096 1.96742,-1.8436 0.707226,-0.54264 1.4629,-1.01002 2.258114,-1.39202 0.795213,-0.382 1.629966,-0.67862 2.495349,-0.87973 0.865383,-0.20112 1.761396,-0.30674 2.679129,-0.30674 0.917733,0 1.813746,0.10562 2.679129,0.30674 0.865383,0.20111 1.700135,0.49773 2.495349,0.87973 0.795214,0.382 1.550888,0.84938 2.258113,1.39202 0.707226,0.54264 1.366002,1.16055 1.96742,1.8436 0.601419,0.68304 1.145478,1.43124 1.623271,2.23445 0.477792,0.80322 0.889316,1.66146 1.225663,2.56461 0.336347,0.90314 0.597517,1.8512 0.7746,2.83404 0.177083,0.98284 0.270079,2.00046 0.270079,3.04276 z"
         style="fill:#c8b7b7;fill-opacity:1;stroke:#502d16;stroke-width:1.41732287;stroke-linecap:round;stroke-linejoin:round;stroke-miterlimit:4;stroke-opacity:1"
         transform="matrix(0.53941412,0,0,0.4735153,-15.827165,169.33646)" />
      <path
         sodipodi:nodetypes="sssssssssssssssssssssssssssssssss"
         inkscape:connector-curvature="0"
         id="path3790-2"
         d="m 32.781814,574.01575 c 0,1.0423 -0.093,2.05992 -0.270079,3.04276 -0.177083,0.98284 -0.438253,1.9309 -0.7746,2.83404 -0.336347,0.90315 -0.747871,1.76139 -1.225663,2.56461 -0.477793,0.80321 -1.021852,1.55141 -1.623271,2.23445 -0.601418,0.68305 -1.260194,1.30096 -1.96742,1.8436 -0.707225,0.54264 -1.462899,1.01002 -2.258113,1.39202 -0.795214,0.382 -1.629966,0.67862 -2.495349,0.87973 -0.865383,0.20112 -1.761396,0.30674 -2.679129,0.30674 -0.917733,0 -1.813746,-0.10562 -2.679129,-0.30674 -0.865383,-0.20111 -1.700136,-0.49773 -2.49535,-0.87973 -0.795213,-0.382 -1.550887,-0.84938 -2.258113,-1.39202 -0.707225,-0.54264 -1.366002,-1.16055 -1.96742,-1.8436 -0.6014181,-0.68304 -1.1454779,-1.43124 -1.62327,-2.23445 -0.4777921,-0.80322 -0.8893163,-1.66146 -1.2256633,-2.56461 -0.336347,-0.90314 -0.5975167,-1.8512 -0.7745997,-2.83404 -0.177083,-0.98284 -0.2700792,-2.00046 -0.2700792,-3.04276 0,-1.0423 0.092996,-2.05992 0.2700792,-3.04276 0.177083,-0.98284 0.4382527,-1.9309 0.7745997,-2.83404 0.336347,-0.90315 0.7478712,-1.76139 1.2256633,-2.56461 0.4777921,-0.80321 1.0218519,-1.55141 1.62327,-2.23445 0.601418,-0.68305 1.260195,-1.30096 1.96742,-1.8436 0.707226,-0.54264 1.4629,-1.01002 2.258114,-1.39202 0.795213,-0.382 1.629966,-0.67862 2.495349,-0.87973 0.865383,-0.20112 1.761396,-0.30674 2.679129,-0.30674 0.917733,0 1.813746,0.10562 2.679129,0.30674 0.865383,0.20111 1.700135,0.49773 2.495349,0.87973 0.795214,0.382 1.550888,0.84938 2.258113,1.39202 0.707226,0.54264 1.366002,1.16055 1.96742,1.8436 0.601419,0.68304 1.145478,1.43124 1.623271,2.23445 0.477792,0.80322 0.889316,1.66146 1.225663,2.56461 0.336347,0.90314 0.597517,1.8512 0.7746,2.83404 0.177083,0.98284 0.270079,2.00046 0.270079,3.04276 z"
         style="fill:#c8b7b7;fill-opacity:1;stroke:#502d16;stroke-width:1.41732287;stroke-linecap:round;stroke-linejoin:round;stroke-miterlimit:4;stroke-opacity:1"
         transform="matrix(0.53941412,0,0,0.4735153,-15.827165,133.9034)" />
      <path
         sodipodi:nodetypes="sssssssssssssssssssssssssssssssss"
         inkscape:connector-curvature="0"
         id="path3790-5-6"
         d="m 32.781814,574.01575 c 0,1.0423 -0.093,2.05992 -0.270079,3.04276 -0.177083,0.98284 -0.438253,1.9309 -0.7746,2.83404 -0.336347,0.90315 -0.747871,1.76139 -1.225663,2.56461 -0.477793,0.80321 -1.021852,1.55141 -1.623271,2.23445 -0.601418,0.68305 -1.260194,1.30096 -1.96742,1.8436 -0.707225,0.54264 -1.462899,1.01002 -2.258113,1.39202 -0.795214,0.382 -1.629966,0.67862 -2.495349,0.87973 -0.865383,0.20112 -1.761396,0.30674 -2.679129,0.30674 -0.917733,0 -1.813746,-0.10562 -2.679129,-0.30674 -0.865383,-0.20111 -1.700136,-0.49773 -2.49535,-0.87973 -0.795213,-0.382 -1.550887,-0.84938 -2.258113,-1.39202 -0.707225,-0.54264 -1.366002,-1.16055 -1.96742,-1.8436 -0.6014181,-0.68304 -1.1454779,-1.43124 -1.62327,-2.23445 -0.4777921,-0.80322 -0.8893163,-1.66146 -1.2256633,-2.56461 -0.336347,-0.90314 -0.5975167,-1.8512 -0.7745997,-2.83404 -0.177083,-0.98284 -0.2700792,-2.00046 -0.2700792,-3.04276 0,-1.0423 0.092996,-2.05992 0.2700792,-3.04276 0.177083,-0.98284 0.4382527,-1.9309 0.7745997,-2.83404 0.336347,-0.90315 0.7478712,-1.76139 1.2256633,-2.56461 0.4777921,-0.80321 1.0218519,-1.55141 1.62327,-2.23445 0.601418,-0.68305 1.260195,-1.30096 1.96742,-1.8436 0.707226,-0.54264 1.4629,-1.01002 2.258114,-1.39202 0.795213,-0.382 1.629966,-0.67862 2.495349,-0.87973 0.865383,-0.20112 1.761396,-0.30674 2.679129,-0.30674 0.917733,0 1.813746,0.10562 2.679129,0.30674 0.865383,0.20111 1.700135,0.49773 2.495349,0.87973 0.795214,0.382 1.550888,0.84938 2.258113,1.39202 0.707226,0.54264 1.366002,1.16055 1.96742,1.8436 0.601419,0.68304 1.145478,1.43124 1.623271,2.23445 0.477792,0.80322 0.889316,1.66146 1.225663,2.56461 0.336347,0.90314 0.597517,1.8512 0.7746,2.83404 0.177083,0.98284 0.270079,2.00046 0.270079,3.04276 z"
         style="fill:#c8b7b7;fill-opacity:1;stroke:#502d16;stroke-width:1.41732287;stroke-linecap:round;stroke-linejoin:round;stroke-miterlimit:4;stroke-opacity:1"
         transform="matrix(0.53941412,0,0,0.4735153,19.605905,204.76953)" />
      <path
         sodipodi:nodetypes="sssssssssssssssssssssssssssssssss"
         inkscape:connector-curvature="0"
         id="path3790-61-1"
         d="m 32.781814,574.01575 c 0,1.0423 -0.093,2.05992 -0.270079,3.04276 -0.177083,0.98284 -0.438253,1.9309 -0.7746,2.83404 -0.336347,0.90315 -0.747871,1.76139 -1.225663,2.56461 -0.477793,0.80321 -1.021852,1.55141 -1.623271,2.23445 -0.601418,0.68305 -1.260194,1.30096 -1.96742,1.8436 -0.707225,0.54264 -1.462899,1.01002 -2.258113,1.39202 -0.795214,0.382 -1.629966,0.67862 -2.495349,0.87973 -0.865383,0.20112 -1.761396,0.30674 -2.679129,0.30674 -0.917733,0 -1.813746,-0.10562 -2.679129,-0.30674 -0.865383,-0.20111 -1.700136,-0.49773 -2.49535,-0.87973 -0.795213,-0.382 -1.550887,-0.84938 -2.258113,-1.39202 -0.707225,-0.54264 -1.366002,-1.16055 -1.96742,-1.8436 -0.6014181,-0.68304 -1.1454779,-1.43124 -1.62327,-2.23445 -0.4777921,-0.80322 -0.8893163,-1.66146 -1.2256633,-2.56461 -0.336347,-0.90314 -0.5975167,-1.8512 -0.7745997,-2.83404 -0.177083,-0.98284 -0.2700792,-2.00046 -0.2700792,-3.04276 0,-1.0423 0.092996,-2.05992 0.2700792,-3.04276 0.177083,-0.98284 0.4382527,-1.9309 0.7745997,-2.83404 0.336347,-0.90315 0.7478712,-1.76139 1.2256633,-2.56461 0.4777921,-0.80321 1.0218519,-1.55141 1.62327,-2.23445 0.601418,-0.68305 1.260195,-1.30096 1.96742,-1.8436 0.707226,-0.54264 1.4629,-1.01002 2.258114,-1.39202 0.795213,-0.382 1.629966,-0.67862 2.495349,-0.87973 0.865383,-0.20112 1.761396,-0.30674 2.679129,-0.30674 0.917733,0 1.813746,0.10562 2.679129,0.30674 0.865383,0.20111 1.700135,0.49773 2.495349,0.87973 0.795214,0.382 1.550888,0.84938 2.258113,1.39202 0.707226,0.54264 1.366002,1.16055 1.96742,1.8436 0.601419,0.68304 1.145478,1.43124 1.623271,2.23445 0.477792,0.80322 0.889316,1.66146 1.225663,2.56461 0.336347,0.90314 0.597517,1.8512 0.7746,2.83404 0.177083,0.98284 0.270079,2.00046 0.270079,3.04276 z"
         style="fill:#c8b7b7;fill-opacity:1;stroke:#502d16;stroke-width:1.41732287;stroke-linecap:round;stroke-linejoin:round;stroke-miterlimit:4;stroke-opacity:1"
         transform="matrix(0.53941412,0,0,0.4735153,19.605905,169.33646)" />
      <path
         sodipodi:nodetypes="sssssssssssssssssssssssssssssssss"
         inkscape:connector-curvature="0"
         id="path3790-2-8"
         d="m 32.781814,574.01575 c 0,1.0423 -0.093,2.05992 -0.270079,3.04276 -0.177083,0.98284 -0.438253,1.9309 -0.7746,2.83404 -0.336347,0.90315 -0.747871,1.76139 -1.225663,2.56461 -0.477793,0.80321 -1.021852,1.55141 -1.623271,2.23445 -0.601418,0.68305 -1.260194,1.30096 -1.96742,1.8436 -0.707225,0.54264 -1.462899,1.01002 -2.258113,1.39202 -0.795214,0.382 -1.629966,0.67862 -2.495349,0.87973 -0.865383,0.20112 -1.761396,0.30674 -2.679129,0.30674 -0.917733,0 -1.813746,-0.10562 -2.679129,-0.30674 -0.865383,-0.20111 -1.700136,-0.49773 -2.49535,-0.87973 -0.795213,-0.382 -1.550887,-0.84938 -2.258113,-1.39202 -0.707225,-0.54264 -1.366002,-1.16055 -1.96742,-1.8436 -0.6014181,-0.68304 -1.1454779,-1.43124 -1.62327,-2.23445 -0.4777921,-0.80322 -0.8893163,-1.66146 -1.2256633,-2.56461 -0.336347,-0.90314 -0.5975167,-1.8512 -0.7745997,-2.83404 -0.177083,-0.98284 -0.2700792,-2.00046 -0.2700792,-3.04276 0,-1.0423 0.092996,-2.05992 0.2700792,-3.04276 0.177083,-0.98284 0.4382527,-1.9309 0.7745997,-2.83404 0.336347,-0.90315 0.7478712,-1.76139 1.2256633,-2.56461 0.4777921,-0.80321 1.0218519,-1.55141 1.62327,-2.23445 0.601418,-0.68305 1.260195,-1.30096 1.96742,-1.8436 0.707226,-0.54264 1.4629,-1.01002 2.258114,-1.39202 0.795213,-0.382 1.629966,-0.67862 2.495349,-0.87973 0.865383,-0.20112 1.761396,-0.30674 2.679129,-0.30674 0.917733,0 1.813746,0.10562 2.679129,0.30674 0.865383,0.20111 1.700135,0.49773 2.495349,0.87973 0.795214,0.382 1.550888,0.84938 2.258113,1.39202 0.707226,0.54264 1.366002,1.16055 1.96742,1.8436 0.601419,0.68304 1.145478,1.43124 1.623271,2.23445 0.477792,0.80322 0.889316,1.66146 1.225663,2.56461 0.336347,0.90314 0.597517,1.8512 0.7746,2.83404 0.177083,0.98284 0.270079,2.00046 0.270079,3.04276 z"
         style="fill:#c8b7b7;fill-opacity:1;stroke:#502d16;stroke-width:1.41732287;stroke-linecap:round;stroke-linejoin:round;stroke-miterlimit:4;stroke-opacity:1"
         transform="matrix(0.53941412,0,0,0.4735153,19.605905,133.9034)" />
      <path
         sodipodi:nodetypes="sssssssssssssssssssssssssssssssss"
         inkscape:connector-curvature="0"
         id="path3790-5-2"
         d="m 32.781814,574.01575 c 0,1.0423 -0.093,2.05992 -0.270079,3.04276 -0.177083,0.98284 -0.438253,1.9309 -0.7746,2.83404 -0.336347,0.90315 -0.747871,1.76139 -1.225663,2.56461 -0.477793,0.80321 -1.021852,1.55141 -1.623271,2.23445 -0.601418,0.68305 -1.260194,1.30096 -1.96742,1.8436 -0.707225,0.54264 -1.462899,1.01002 -2.258113,1.39202 -0.795214,0.382 -1.629966,0.67862 -2.495349,0.87973 -0.865383,0.20112 -1.761396,0.30674 -2.679129,0.30674 -0.917733,0 -1.813746,-0.10562 -2.679129,-0.30674 -0.865383,-0.20111 -1.700136,-0.49773 -2.49535,-0.87973 -0.795213,-0.382 -1.550887,-0.84938 -2.258113,-1.39202 -0.707225,-0.54264 -1.366002,-1.16055 -1.96742,-1.8436 -0.6014181,-0.68304 -1.1454779,-1.43124 -1.62327,-2.23445 -0.4777921,-0.80322 -0.8893163,-1.66146 -1.2256633,-2.56461 -0.336347,-0.90314 -0.5975167,-1.8512 -0.7745997,-2.83404 -0.177083,-0.98284 -0.2700792,-2.00046 -0.2700792,-3.04276 0,-1.0423 0.092996,-2.05992 0.2700792,-3.04276 0.177083,-0.98284 0.4382527,-1.9309 0.7745997,-2.83404 0.336347,-0.90315 0.7478712,-1.76139 1.2256633,-2.56461 0.4777921,-0.80321 1.0218519,-1.55141 1.62327,-2.23445 0.601418,-0.68305 1.260195,-1.30096 1.96742,-1.8436 0.707226,-0.54264 1.4629,-1.01002 2.258114,-1.39202 0.795213,-0.382 1.629966,-0.67862 2.495349,-0.87973 0.865383,-0.20112 1.761396,-0.30674 2.679129,-0.30674 0.917733,0 1.813746,0.10562 2.679129,0.30674 0.865383,0.20111 1.700135,0.49773 2.495349,0.87973 0.795214,0.382 1.550888,0.84938 2.258113,1.39202 0.707226,0.54264 1.366002,1.16055 1.96742,1.8436 0.601419,0.68304 1.145478,1.43124 1.623271,2.23445 0.477792,0.80322 0.889316,1.66146 1.225663,2.56461 0.336347,0.90314 0.597517,1.8512 0.7746,2.83404 0.177083,0.98284 0.270079,2.00046 0.270079,3.04276 z"
         style="fill:#c8b7b7;fill-opacity:1;stroke:#502d16;stroke-width:1.41732287;stroke-linecap:round;stroke-linejoin:round;stroke-miterlimit:4;stroke-opacity:1"
         transform="matrix(0.53941412,0,0,0.4735153,55.038977,204.76953)" />
      <path
         sodipodi:nodetypes="sssssssssssssssssssssssssssssssss"
         inkscape:connector-curvature="0"
         id="path3790-61-7"
         d="m 32.781814,574.01575 c 0,1.0423 -0.093,2.05992 -0.270079,3.04276 -0.177083,0.98284 -0.438253,1.9309 -0.7746,2.83404 -0.336347,0.90315 -0.747871,1.76139 -1.225663,2.56461 -0.477793,0.80321 -1.021852,1.55141 -1.623271,2.23445 -0.601418,0.68305 -1.260194,1.30096 -1.96742,1.8436 -0.707225,0.54264 -1.462899,1.01002 -2.258113,1.39202 -0.795214,0.382 -1.629966,0.67862 -2.495349,0.87973 -0.865383,0.20112 -1.761396,0.30674 -2.679129,0.30674 -0.917733,0 -1.813746,-0.10562 -2.679129,-0.30674 -0.865383,-0.20111 -1.700136,-0.49773 -2.49535,-0.87973 -0.795213,-0.382 -1.550887,-0.84938 -2.258113,-1.39202 -0.707225,-0.54264 -1.366002,-1.16055 -1.96742,-1.8436 -0.6014181,-0.68304 -1.1454779,-1.43124 -1.62327,-2.23445 -0.4777921,-0.80322 -0.8893163,-1.66146 -1.2256633,-2.56461 -0.336347,-0.90314 -0.5975167,-1.8512 -0.7745997,-2.83404 -0.177083,-0.98284 -0.2700792,-2.00046 -0.2700792,-3.04276 0,-1.0423 0.092996,-2.05992 0.2700792,-3.04276 0.177083,-0.98284 0.4382527,-1.9309 0.7745997,-2.83404 0.336347,-0.90315 0.7478712,-1.76139 1.2256633,-2.56461 0.4777921,-0.80321 1.0218519,-1.55141 1.62327,-2.23445 0.601418,-0.68305 1.260195,-1.30096 1.96742,-1.8436 0.707226,-0.54264 1.4629,-1.01002 2.258114,-1.39202 0.795213,-0.382 1.629966,-0.67862 2.495349,-0.87973 0.865383,-0.20112 1.761396,-0.30674 2.679129,-0.30674 0.917733,0 1.813746,0.10562 2.679129,0.30674 0.865383,0.20111 1.700135,0.49773 2.495349,0.87973 0.795214,0.382 1.550888,0.84938 2.258113,1.39202 0.707226,0.54264 1.366002,1.16055 1.96742,1.8436 0.601419,0.68304 1.145478,1.43124 1.623271,2.23445 0.477792,0.80322 0.889316,1.66146 1.225663,2.56461 0.336347,0.90314 0.597517,1.8512 0.7746,2.83404 0.177083,0.98284 0.270079,2.00046 0.270079,3.04276 z"
         style="fill:#c8b7b7;fill-opacity:1;stroke:#502d16;stroke-width:1.41732287;stroke-linecap:round;stroke-linejoin:round;stroke-miterlimit:4;stroke-opacity:1"
         transform="matrix(0.53941412,0,0,0.4735153,55.038977,169.33646)" />
      <path
         sodipodi:nodetypes="sssssssssssssssssssssssssssssssss"
         inkscape:connector-curvature="0"
         id="path3790-2-9"
         d="m 32.781814,574.01575 c 0,1.0423 -0.093,2.05992 -0.270079,3.04276 -0.177083,0.98284 -0.438253,1.9309 -0.7746,2.83404 -0.336347,0.90315 -0.747871,1.76139 -1.225663,2.56461 -0.477793,0.80321 -1.021852,1.55141 -1.623271,2.23445 -0.601418,0.68305 -1.260194,1.30096 -1.96742,1.8436 -0.707225,0.54264 -1.462899,1.01002 -2.258113,1.39202 -0.795214,0.382 -1.629966,0.67862 -2.495349,0.87973 -0.865383,0.20112 -1.761396,0.30674 -2.679129,0.30674 -0.917733,0 -1.813746,-0.10562 -2.679129,-0.30674 -0.865383,-0.20111 -1.700136,-0.49773 -2.49535,-0.87973 -0.795213,-0.382 -1.550887,-0.84938 -2.258113,-1.39202 -0.707225,-0.54264 -1.366002,-1.16055 -1.96742,-1.8436 -0.6014181,-0.68304 -1.1454779,-1.43124 -1.62327,-2.23445 -0.4777921,-0.80322 -0.8893163,-1.66146 -1.2256633,-2.56461 -0.336347,-0.90314 -0.5975167,-1.8512 -0.7745997,-2.83404 -0.177083,-0.98284 -0.2700792,-2.00046 -0.2700792,-3.04276 0,-1.0423 0.092996,-2.05992 0.2700792,-3.04276 0.177083,-0.98284 0.4382527,-1.9309 0.7745997,-2.83404 0.336347,-0.90315 0.7478712,-1.76139 1.2256633,-2.56461 0.4777921,-0.80321 1.0218519,-1.55141 1.62327,-2.23445 0.601418,-0.68305 1.260195,-1.30096 1.96742,-1.8436 0.707226,-0.54264 1.4629,-1.01002 2.258114,-1.39202 0.795213,-0.382 1.629966,-0.67862 2.495349,-0.87973 0.865383,-0.20112 1.761396,-0.30674 2.679129,-0.30674 0.917733,0 1.813746,0.10562 2.679129,0.30674 0.865383,0.20111 1.700135,0.49773 2.495349,0.87973 0.795214,0.382 1.550888,0.84938 2.258113,1.39202 0.707226,0.54264 1.366002,1.16055 1.96742,1.8436 0.601419,0.68304 1.145478,1.43124 1.623271,2.23445 0.477792,0.80322 0.889316,1.66146 1.225663,2.56461 0.336347,0.90314 0.597517,1.8512 0.7746,2.83404 0.177083,0.98284 0.270079,2.00046 0.270079,3.04276 z"
         style="fill:#c8b7b7;fill-opacity:1;stroke:#502d16;stroke-width:1.41732287;stroke-linecap:round;stroke-linejoin:round;stroke-miterlimit:4;stroke-opacity:1"
         transform="matrix(0.53941412,0,0,0.4735153,55.038977,133.9034)" />
      <path
         sodipodi:nodetypes="sssssssssssssssssssssssssssssssss"
         inkscape:connector-curvature="0"
         id="path3790-5-4"
         d="m 32.781814,574.01575 c 0,1.0423 -0.093,2.05992 -0.270079,3.04276 -0.177083,0.98284 -0.438253,1.9309 -0.7746,2.83404 -0.336347,0.90315 -0.747871,1.76139 -1.225663,2.56461 -0.477793,0.80321 -1.021852,1.55141 -1.623271,2.23445 -0.601418,0.68305 -1.260194,1.30096 -1.96742,1.8436 -0.707225,0.54264 -1.462899,1.01002 -2.258113,1.39202 -0.795214,0.382 -1.629966,0.67862 -2.495349,0.87973 -0.865383,0.20112 -1.761396,0.30674 -2.679129,0.30674 -0.917733,0 -1.813746,-0.10562 -2.679129,-0.30674 -0.865383,-0.20111 -1.700136,-0.49773 -2.49535,-0.87973 -0.795213,-0.382 -1.550887,-0.84938 -2.258113,-1.39202 -0.707225,-0.54264 -1.366002,-1.16055 -1.96742,-1.8436 -0.6014181,-0.68304 -1.1454779,-1.43124 -1.62327,-2.23445 -0.4777921,-0.80322 -0.8893163,-1.66146 -1.2256633,-2.56461 -0.336347,-0.90314 -0.5975167,-1.8512 -0.7745997,-2.83404 -0.177083,-0.98284 -0.2700792,-2.00046 -0.2700792,-3.04276 0,-1.0423 0.092996,-2.05992 0.2700792,-3.04276 0.177083,-0.98284 0.4382527,-1.9309 0.7745997,-2.83404 0.336347,-0.90315 0.7478712,-1.76139 1.2256633,-2.56461 0.4777921,-0.80321 1.0218519,-1.55141 1.62327,-2.23445 0.601418,-0.68305 1.260195,-1.30096 1.96742,-1.8436 0.707226,-0.54264 1.4629,-1.01002 2.258114,-1.39202 0.795213,-0.382 1.629966,-0.67862 2.495349,-0.87973 0.865383,-0.20112 1.761396,-0.30674 2.679129,-0.30674 0.917733,0 1.813746,0.10562 2.679129,0.30674 0.865383,0.20111 1.700135,0.49773 2.495349,0.87973 0.795214,0.382 1.550888,0.84938 2.258113,1.39202 0.707226,0.54264 1.366002,1.16055 1.96742,1.8436 0.601419,0.68304 1.145478,1.43124 1.623271,2.23445 0.477792,0.80322 0.889316,1.66146 1.225663,2.56461 0.336347,0.90314 0.597517,1.8512 0.7746,2.83404 0.177083,0.98284 0.270079,2.00046 0.270079,3.04276 z"
         style="fill:#c8b7b7;fill-opacity:1;stroke:#502d16;stroke-width:1.41732287;stroke-linecap:round;stroke-linejoin:round;stroke-miterlimit:4;stroke-opacity:1"
         transform="matrix(0.53941412,0,0,0.4735153,-51.260233,204.76953)" />
      <path
         sodipodi:nodetypes="sssssssssssssssssssssssssssssssss"
         inkscape:connector-curvature="0"
         id="path3790-61-3"
         d="m 32.781814,574.01575 c 0,1.0423 -0.093,2.05992 -0.270079,3.04276 -0.177083,0.98284 -0.438253,1.9309 -0.7746,2.83404 -0.336347,0.90315 -0.747871,1.76139 -1.225663,2.56461 -0.477793,0.80321 -1.021852,1.55141 -1.623271,2.23445 -0.601418,0.68305 -1.260194,1.30096 -1.96742,1.8436 -0.707225,0.54264 -1.462899,1.01002 -2.258113,1.39202 -0.795214,0.382 -1.629966,0.67862 -2.495349,0.87973 -0.865383,0.20112 -1.761396,0.30674 -2.679129,0.30674 -0.917733,0 -1.813746,-0.10562 -2.679129,-0.30674 -0.865383,-0.20111 -1.700136,-0.49773 -2.49535,-0.87973 -0.795213,-0.382 -1.550887,-0.84938 -2.258113,-1.39202 -0.707225,-0.54264 -1.366002,-1.16055 -1.96742,-1.8436 -0.6014181,-0.68304 -1.1454779,-1.43124 -1.62327,-2.23445 -0.4777921,-0.80322 -0.8893163,-1.66146 -1.2256633,-2.56461 -0.336347,-0.90314 -0.5975167,-1.8512 -0.7745997,-2.83404 -0.177083,-0.98284 -0.2700792,-2.00046 -0.2700792,-3.04276 0,-1.0423 0.092996,-2.05992 0.2700792,-3.04276 0.177083,-0.98284 0.4382527,-1.9309 0.7745997,-2.83404 0.336347,-0.90315 0.7478712,-1.76139 1.2256633,-2.56461 0.4777921,-0.80321 1.0218519,-1.55141 1.62327,-2.23445 0.601418,-0.68305 1.260195,-1.30096 1.96742,-1.8436 0.707226,-0.54264 1.4629,-1.01002 2.258114,-1.39202 0.795213,-0.382 1.629966,-0.67862 2.495349,-0.87973 0.865383,-0.20112 1.761396,-0.30674 2.679129,-0.30674 0.917733,0 1.813746,0.10562 2.679129,0.30674 0.865383,0.20111 1.700135,0.49773 2.495349,0.87973 0.795214,0.382 1.550888,0.84938 2.258113,1.39202 0.707226,0.54264 1.366002,1.16055 1.96742,1.8436 0.601419,0.68304 1.145478,1.43124 1.623271,2.23445 0.477792,0.80322 0.889316,1.66146 1.225663,2.56461 0.336347,0.90314 0.597517,1.8512 0.7746,2.83404 0.177083,0.98284 0.270079,2.00046 0.270079,3.04276 z"
         style="fill:#c8b7b7;fill-opacity:1;stroke:#502d16;stroke-width:1.41732287;stroke-linecap:round;stroke-linejoin:round;stroke-miterlimit:4;stroke-opacity:1"
         transform="matrix(0.53941412,0,0,0.4735153,-51.260233,169.33646)" />
      <path
         sodipodi:nodetypes="ccccccccccccccccccccccccccccccccc"
         transform="translate(0,308.26769)"
         inkscape:connector-curvature="0"
         id="path4187"
         d="m 70.866142,214.37007 -81.496063,0 -1.74744,-0.28199 -1.535187,-0.81262 -1.222614,-1.59406 -0.80972,-2.62629 0,-30.11811 -30.11811,0 -2.264653,-0.6424 -1.573351,-1.14936 -0.98309,-1.58222 -0.493867,-1.94098 0,-46.06299 0.386364,-2.35062 1.338029,-1.69095 1.804573,-0.9989 1.785995,-0.27449 30.11811,0 0,-30.118112 0.130394,-2.162867 0.801638,-1.675047 1.664363,-1.08483 2.718566,-0.392216 81.496063,4e-6 2.497679,0.282846 1.657148,1.0349 0.908475,1.704767 0.251658,2.292443 0,116.929132 -0.359665,2.49141 -1.12442,1.57421 -1.711118,0.87014 z"
         style="fill:none;stroke:#000000;stroke-width:1px;stroke-linecap:butt;stroke-linejoin:miter;stroke-opacity:1" />
    </g>
  </g>
</svg>
