solid OpenSCAD_Model
  facet normal -1 0 0
    outer loop
      vertex 0 2 0
      vertex 0 0.2 5
      vertex 0 2 13
    endloop
  endfacet
  facet normal -1 0 0
    outer loop
      vertex 0 0 0
      vertex 0 0.2 5
      vertex 0 2 0
    endloop
  endfacet
  facet normal -1 -0 0
    outer loop
      vertex 0 0.2 5
      vertex 0 0 0
      vertex 0 0 5
    endloop
  endfacet
  facet normal -1 0 0
    outer loop
      vertex 0 0.2 10
      vertex 0 2 13
      vertex 0 0.2 5
    endloop
  endfacet
  facet normal -1 0 0
    outer loop
      vertex 0 0 13
      vertex 0 0.2 10
      vertex 0 0 10
    endloop
  endfacet
  facet normal -1 0 0
    outer loop
      vertex 0 0.2 10
      vertex 0 0 13
      vertex 0 2 13
    endloop
  endfacet
  facet normal 0 0 1
    outer loop
      vertex 8 2 13
      vertex 7.5 1.5 13
      vertex 8 0 13
    endloop
  endfacet
  facet normal 0 0 1
    outer loop
      vertex 8 2 13
      vertex 6.5 1.5 13
      vertex 7.5 1.5 13
    endloop
  endfacet
  facet normal 0 0 1
    outer loop
      vertex 6.5 1.5 13
      vertex 4.5 1.5 13
      vertex 6.5 0.5 13
    endloop
  endfacet
  facet normal 0 0 1
    outer loop
      vertex 8 2 13
      vertex 4.5 1.5 13
      vertex 6.5 1.5 13
    endloop
  endfacet
  facet normal 0 0 1
    outer loop
      vertex 8 2 13
      vertex 3.5 1.5 13
      vertex 4.5 1.5 13
    endloop
  endfacet
  facet normal 0 0 1
    outer loop
      vertex 3.5 1.5 13
      vertex 1.5 1.5 13
      vertex 3.5 0.5 13
    endloop
  endfacet
  facet normal -0 0 1
    outer loop
      vertex 0 2 13
      vertex 3.5 1.5 13
      vertex 8 2 13
    endloop
  endfacet
  facet normal 0 0 1
    outer loop
      vertex 3.5 1.5 13
      vertex 0 2 13
      vertex 1.5 1.5 13
    endloop
  endfacet
  facet normal 0 0 1
    outer loop
      vertex 0.5 1.5 13
      vertex 0 2 13
      vertex 0.5 0.5 13
    endloop
  endfacet
  facet normal 0 0 1
    outer loop
      vertex 1.5 1.5 13
      vertex 0 2 13
      vertex 0.5 1.5 13
    endloop
  endfacet
  facet normal -0 0 1
    outer loop
      vertex 7.5 0.5 13
      vertex 8 0 13
      vertex 7.5 1.5 13
    endloop
  endfacet
  facet normal -0 0 1
    outer loop
      vertex 6.5 0.5 13
      vertex 8 0 13
      vertex 7.5 0.5 13
    endloop
  endfacet
  facet normal 0 0 1
    outer loop
      vertex 4.5 0.5 13
      vertex 6.5 0.5 13
      vertex 4.5 1.5 13
    endloop
  endfacet
  facet normal -0 0 1
    outer loop
      vertex 4.5 0.5 13
      vertex 8 0 13
      vertex 6.5 0.5 13
    endloop
  endfacet
  facet normal -0 0 1
    outer loop
      vertex 3.5 0.5 13
      vertex 8 0 13
      vertex 4.5 0.5 13
    endloop
  endfacet
  facet normal 0 0 1
    outer loop
      vertex 1.5 0.5 13
      vertex 3.5 0.5 13
      vertex 1.5 1.5 13
    endloop
  endfacet
  facet normal 0 0 1
    outer loop
      vertex 0 0 13
      vertex 3.5 0.5 13
      vertex 1.5 0.5 13
    endloop
  endfacet
  facet normal 0 0 1
    outer loop
      vertex 0 0 13
      vertex 1.5 0.5 13
      vertex 0.5 0.5 13
    endloop
  endfacet
  facet normal 0 0 1
    outer loop
      vertex 3.5 0.5 13
      vertex 0 0 13
      vertex 8 0 13
    endloop
  endfacet
  facet normal 0 0 1
    outer loop
      vertex 0 0 13
      vertex 0.5 0.5 13
      vertex 0 2 13
    endloop
  endfacet
  facet normal -1 0 0
    outer loop
      vertex 2 0 5
      vertex 2 0.2 10
      vertex 2 0.2 5
    endloop
  endfacet
  facet normal -1 -0 0
    outer loop
      vertex 2 0.2 10
      vertex 2 0 5
      vertex 2 0 10
    endloop
  endfacet
  facet normal 0 1 -0
    outer loop
      vertex 8 2 0
      vertex 0 2 13
      vertex 8 2 13
    endloop
  endfacet
  facet normal 0 1 0
    outer loop
      vertex 0 2 13
      vertex 8 2 0
      vertex 0 2 0
    endloop
  endfacet
  facet normal 0 0 -1
    outer loop
      vertex 8 0 0
      vertex 7.5 0.5 0
      vertex 8 2 0
    endloop
  endfacet
  facet normal 0 0 -1
    outer loop
      vertex 8 0 0
      vertex 6.5 0.5 0
      vertex 7.5 0.5 0
    endloop
  endfacet
  facet normal 0 0 -1
    outer loop
      vertex 6.5 0.5 0
      vertex 4.5 0.5 0
      vertex 6.5 1.5 0
    endloop
  endfacet
  facet normal 0 0 -1
    outer loop
      vertex 8 0 0
      vertex 4.5 0.5 0
      vertex 6.5 0.5 0
    endloop
  endfacet
  facet normal 0 0 -1
    outer loop
      vertex 8 0 0
      vertex 3.5 0.5 0
      vertex 4.5 0.5 0
    endloop
  endfacet
  facet normal 0 0 -1
    outer loop
      vertex 3.5 0.5 0
      vertex 1.5 0.5 0
      vertex 3.5 1.5 0
    endloop
  endfacet
  facet normal 0 0 -1
    outer loop
      vertex 0 0 0
      vertex 3.5 0.5 0
      vertex 8 0 0
    endloop
  endfacet
  facet normal -0 0 -1
    outer loop
      vertex 3.5 0.5 0
      vertex 0 0 0
      vertex 1.5 0.5 0
    endloop
  endfacet
  facet normal -0 0 -1
    outer loop
      vertex 0.5 0.5 0
      vertex 0 0 0
      vertex 0.5 1.5 0
    endloop
  endfacet
  facet normal -0 0 -1
    outer loop
      vertex 1.5 0.5 0
      vertex 0 0 0
      vertex 0.5 0.5 0
    endloop
  endfacet
  facet normal 0 0 -1
    outer loop
      vertex 7.5 1.5 0
      vertex 8 2 0
      vertex 7.5 0.5 0
    endloop
  endfacet
  facet normal 0 0 -1
    outer loop
      vertex 6.5 1.5 0
      vertex 8 2 0
      vertex 7.5 1.5 0
    endloop
  endfacet
  facet normal 0 0 -1
    outer loop
      vertex 4.5 1.5 0
      vertex 6.5 1.5 0
      vertex 4.5 0.5 0
    endloop
  endfacet
  facet normal 0 0 -1
    outer loop
      vertex 4.5 1.5 0
      vertex 8 2 0
      vertex 6.5 1.5 0
    endloop
  endfacet
  facet normal 0 0 -1
    outer loop
      vertex 3.5 1.5 0
      vertex 8 2 0
      vertex 4.5 1.5 0
    endloop
  endfacet
  facet normal 0 0 -1
    outer loop
      vertex 1.5 1.5 0
      vertex 3.5 1.5 0
      vertex 1.5 0.5 0
    endloop
  endfacet
  facet normal 0 0 -1
    outer loop
      vertex 0 2 0
      vertex 3.5 1.5 0
      vertex 1.5 1.5 0
    endloop
  endfacet
  facet normal 0 0 -1
    outer loop
      vertex 0 2 0
      vertex 1.5 1.5 0
      vertex 0.5 1.5 0
    endloop
  endfacet
  facet normal 0 0 -1
    outer loop
      vertex 3.5 1.5 0
      vertex 0 2 0
      vertex 8 2 0
    endloop
  endfacet
  facet normal 0 0 -1
    outer loop
      vertex 0 2 0
      vertex 0.5 1.5 0
      vertex 0 0 0
    endloop
  endfacet
  facet normal 0 -1 0
    outer loop
      vertex 0 0 0
      vertex 0.4 0 5
      vertex 0 0 5
    endloop
  endfacet
  facet normal 0 -1 -0
    outer loop
      vertex 0.4 0 5
      vertex 0 0 0
      vertex 1.6 0 5
    endloop
  endfacet
  facet normal 0 -1 -0
    outer loop
      vertex 1.6 0 5
      vertex 0 0 0
      vertex 2 0 5
    endloop
  endfacet
  facet normal 0 -1 -0
    outer loop
      vertex 2 0 5
      vertex 0 0 0
      vertex 3 0 5
    endloop
  endfacet
  facet normal 0 -1 -0
    outer loop
      vertex 3 0 5
      vertex 0 0 0
      vertex 3.4 0 5
    endloop
  endfacet
  facet normal 0 -1 -0
    outer loop
      vertex 3.4 0 5
      vertex 0 0 0
      vertex 4.6 0 5
    endloop
  endfacet
  facet normal 0 -1 0
    outer loop
      vertex 8 0 0
      vertex 4.6 0 5
      vertex 0 0 0
    endloop
  endfacet
  facet normal 0 -1 0
    outer loop
      vertex 4.6 0 5
      vertex 8 0 0
      vertex 5 0 5
    endloop
  endfacet
  facet normal 0 -1 0
    outer loop
      vertex 5 0 5
      vertex 8 0 0
      vertex 6 0 5
    endloop
  endfacet
  facet normal 0 -1 0
    outer loop
      vertex 6 0 5
      vertex 8 0 0
      vertex 6.4 0 5
    endloop
  endfacet
  facet normal 0 -1 0
    outer loop
      vertex 6.4 0 5
      vertex 8 0 0
      vertex 7.6 0 5
    endloop
  endfacet
  facet normal 0 -1 0
    outer loop
      vertex 7.6 0 5
      vertex 8 0 0
      vertex 8 0 5
    endloop
  endfacet
  facet normal 0 -1 0
    outer loop
      vertex 0.4 0 5
      vertex 1.6 0 8
      vertex 0.4 0 8
    endloop
  endfacet
  facet normal 0 -1 -0
    outer loop
      vertex 1.6 0 8
      vertex 0.4 0 5
      vertex 1.6 0 5
    endloop
  endfacet
  facet normal 0 -1 0
    outer loop
      vertex 5 0 5
      vertex 6 0 10
      vertex 5 0 10
    endloop
  endfacet
  facet normal 0 -1 -0
    outer loop
      vertex 6 0 10
      vertex 5 0 5
      vertex 6 0 5
    endloop
  endfacet
  facet normal 0 -1 0
    outer loop
      vertex 2 0 5
      vertex 3 0 10
      vertex 2 0 10
    endloop
  endfacet
  facet normal 0 -1 -0
    outer loop
      vertex 3 0 10
      vertex 2 0 5
      vertex 3 0 5
    endloop
  endfacet
  facet normal 0 -1 0
    outer loop
      vertex 2 0 10
      vertex 0 0 13
      vertex 0 0 10
    endloop
  endfacet
  facet normal 0 -1 0
    outer loop
      vertex 3 0 10
      vertex 0 0 13
      vertex 2 0 10
    endloop
  endfacet
  facet normal 0 -1 0
    outer loop
      vertex 0 0 13
      vertex 3 0 10
      vertex 8 0 13
    endloop
  endfacet
  facet normal 0 -1 0
    outer loop
      vertex 5 0 10
      vertex 8 0 13
      vertex 3 0 10
    endloop
  endfacet
  facet normal 0 -1 0
    outer loop
      vertex 6 0 10
      vertex 8 0 13
      vertex 5 0 10
    endloop
  endfacet
  facet normal 0 -1 -0
    outer loop
      vertex 8 0 13
      vertex 6 0 10
      vertex 8 0 10
    endloop
  endfacet
  facet normal 0 -1 0
    outer loop
      vertex 3.4 0 5
      vertex 4.6 0 8
      vertex 3.4 0 8
    endloop
  endfacet
  facet normal 0 -1 -0
    outer loop
      vertex 4.6 0 8
      vertex 3.4 0 5
      vertex 4.6 0 5
    endloop
  endfacet
  facet normal 0 -1 0
    outer loop
      vertex 6.4 0 5
      vertex 7.6 0 8
      vertex 6.4 0 8
    endloop
  endfacet
  facet normal 0 -1 -0
    outer loop
      vertex 7.6 0 8
      vertex 6.4 0 5
      vertex 7.6 0 5
    endloop
  endfacet
  facet normal 1 -0 0
    outer loop
      vertex 0.5 0.5 13
      vertex 0.5 1.5 9.8
      vertex 0.5 1.5 13
    endloop
  endfacet
  facet normal 1 0 0
    outer loop
      vertex 0.5 1.5 9.8
      vertex 0.5 0.5 13
      vertex 0.5 0.5 9.8
    endloop
  endfacet
  facet normal 1 -0 0
    outer loop
      vertex 0.5 0.5 8.2
      vertex 0.5 1.5 0
      vertex 0.5 1.5 8.2
    endloop
  endfacet
  facet normal 1 0 0
    outer loop
      vertex 0.5 1.5 0
      vertex 0.5 0.5 8.2
      vertex 0.5 0.5 0
    endloop
  endfacet
  facet normal -1 0 0
    outer loop
      vertex 1.5 0.5 9.8
      vertex 1.5 1.5 13
      vertex 1.5 1.5 9.8
    endloop
  endfacet
  facet normal -1 -0 0
    outer loop
      vertex 1.5 1.5 13
      vertex 1.5 0.5 9.8
      vertex 1.5 0.5 13
    endloop
  endfacet
  facet normal -1 0 0
    outer loop
      vertex 1.5 0.5 0
      vertex 1.5 1.5 8.2
      vertex 1.5 1.5 0
    endloop
  endfacet
  facet normal -1 -0 0
    outer loop
      vertex 1.5 1.5 8.2
      vertex 1.5 0.5 0
      vertex 1.5 0.5 8.2
    endloop
  endfacet
  facet normal 0 -1 0
    outer loop
      vertex 0.5 1.5 0
      vertex 1.5 1.5 8.2
      vertex 0.5 1.5 8.2
    endloop
  endfacet
  facet normal 0 -1 -0
    outer loop
      vertex 1.5 1.5 8.2
      vertex 0.5 1.5 0
      vertex 1.5 1.5 0
    endloop
  endfacet
  facet normal 0 -1 0
    outer loop
      vertex 0.5 1.5 8.2
      vertex 0.5 1.5 9.8
      vertex 0.2 1.5 9.8
    endloop
  endfacet
  facet normal 0 -1 0
    outer loop
      vertex 0.5 1.5 9.8
      vertex 0.5 1.5 8.2
      vertex 1.5 1.5 9.8
    endloop
  endfacet
  facet normal 0 -1 0
    outer loop
      vertex 0.5 1.5 8.2
      vertex 0.2 1.5 9.8
      vertex 0.2 1.5 8.2
    endloop
  endfacet
  facet normal 0 -1 0
    outer loop
      vertex 1.5 1.5 8.2
      vertex 1.5 1.5 9.8
      vertex 0.5 1.5 8.2
    endloop
  endfacet
  facet normal 0 -1 0
    outer loop
      vertex 1.5 1.5 9.8
      vertex 1.5 1.5 8.2
      vertex 1.8 1.5 9.8
    endloop
  endfacet
  facet normal 0 -1 -0
    outer loop
      vertex 1.8 1.5 9.8
      vertex 1.5 1.5 8.2
      vertex 1.8 1.5 8.2
    endloop
  endfacet
  facet normal 0 -1 0
    outer loop
      vertex 0.5 1.5 9.8
      vertex 1.5 1.5 13
      vertex 0.5 1.5 13
    endloop
  endfacet
  facet normal 0 -1 -0
    outer loop
      vertex 1.5 1.5 13
      vertex 0.5 1.5 9.8
      vertex 1.5 1.5 9.8
    endloop
  endfacet
  facet normal 0 1 -0
    outer loop
      vertex 1.5 0.5 9.8
      vertex 0.5 0.5 13
      vertex 1.5 0.5 13
    endloop
  endfacet
  facet normal 0 1 0
    outer loop
      vertex 0.5 0.5 13
      vertex 1.5 0.5 9.8
      vertex 0.5 0.5 9.8
    endloop
  endfacet
  facet normal 0 1 -0
    outer loop
      vertex 1.5 0.5 0
      vertex 0.5 0.5 8.2
      vertex 1.5 0.5 8.2
    endloop
  endfacet
  facet normal 0 1 0
    outer loop
      vertex 0.5 0.5 8.2
      vertex 1.5 0.5 0
      vertex 0.5 0.5 0
    endloop
  endfacet
  facet normal 0 0 -1
    outer loop
      vertex 0 0 10
      vertex 2 0.2 10
      vertex 2 0 10
    endloop
  endfacet
  facet normal -0 0 -1
    outer loop
      vertex 2 0.2 10
      vertex 0 0 10
      vertex 0 0.2 10
    endloop
  endfacet
  facet normal 0 -1 0
    outer loop
      vertex 0 0.2 10
      vertex 0.2 0.2 9.8
      vertex 2 0.2 10
    endloop
  endfacet
  facet normal 0 -1 0
    outer loop
      vertex 0 0.2 10
      vertex 0.2 0.2 8.2
      vertex 0.2 0.2 9.8
    endloop
  endfacet
  facet normal 0 -1 0
    outer loop
      vertex 0.2 0.2 8.2
      vertex 0.4 0.2 8
      vertex 1.8 0.2 8.2
    endloop
  endfacet
  facet normal 0 -1 0
    outer loop
      vertex 0 0.2 5
      vertex 0.2 0.2 8.2
      vertex 0 0.2 10
    endloop
  endfacet
  facet normal 0 -1 0
    outer loop
      vertex 0 0.2 5
      vertex 0.4 0.2 8
      vertex 0.2 0.2 8.2
    endloop
  endfacet
  facet normal 0 -1 -0
    outer loop
      vertex 0.4 0.2 8
      vertex 0 0.2 5
      vertex 0.4 0.2 5
    endloop
  endfacet
  facet normal 0 -1 0
    outer loop
      vertex 1.8 0.2 9.8
      vertex 2 0.2 10
      vertex 0.2 0.2 9.8
    endloop
  endfacet
  facet normal 0 -1 0
    outer loop
      vertex 1.8 0.2 8.2
      vertex 2 0.2 10
      vertex 1.8 0.2 9.8
    endloop
  endfacet
  facet normal 0 -1 0
    outer loop
      vertex 1.6 0.2 8
      vertex 1.8 0.2 8.2
      vertex 0.4 0.2 8
    endloop
  endfacet
  facet normal 0 -1 0
    outer loop
      vertex 2 0.2 5
      vertex 1.6 0.2 8
      vertex 1.6 0.2 5
    endloop
  endfacet
  facet normal 0 -1 0
    outer loop
      vertex 1.6 0.2 8
      vertex 2 0.2 5
      vertex 1.8 0.2 8.2
    endloop
  endfacet
  facet normal 0 -1 0
    outer loop
      vertex 1.8 0.2 8.2
      vertex 2 0.2 5
      vertex 2 0.2 10
    endloop
  endfacet
  facet normal -0 0 1
    outer loop
      vertex 0 0.2 5
      vertex 0.4 0 5
      vertex 0.4 0.2 5
    endloop
  endfacet
  facet normal 0 0 1
    outer loop
      vertex 0.4 0 5
      vertex 0 0.2 5
      vertex 0 0 5
    endloop
  endfacet
  facet normal -0 0 1
    outer loop
      vertex 1.6 0.2 5
      vertex 2 0 5
      vertex 2 0.2 5
    endloop
  endfacet
  facet normal 0 0 1
    outer loop
      vertex 2 0 5
      vertex 1.6 0.2 5
      vertex 1.6 0 5
    endloop
  endfacet
  facet normal 1 -0 0
    outer loop
      vertex 0.2 0.2 9.8
      vertex 0.2 1.5 8.2
      vertex 0.2 1.5 9.8
    endloop
  endfacet
  facet normal 1 0 0
    outer loop
      vertex 0.2 1.5 8.2
      vertex 0.2 0.2 9.8
      vertex 0.2 0.2 8.2
    endloop
  endfacet
  facet normal 0 0 -1
    outer loop
      vertex 1.8 0.2 9.8
      vertex 1.5 0.5 9.8
      vertex 1.8 1.5 9.8
    endloop
  endfacet
  facet normal 0 0 -1
    outer loop
      vertex 1.8 0.2 9.8
      vertex 0.5 0.5 9.8
      vertex 1.5 0.5 9.8
    endloop
  endfacet
  facet normal 0 0 -1
    outer loop
      vertex 0.2 0.2 9.8
      vertex 0.5 0.5 9.8
      vertex 1.8 0.2 9.8
    endloop
  endfacet
  facet normal 0 0 -1
    outer loop
      vertex 0.2 1.5 9.8
      vertex 0.5 0.5 9.8
      vertex 0.2 0.2 9.8
    endloop
  endfacet
  facet normal 0 0 -1
    outer loop
      vertex 0.5 0.5 9.8
      vertex 0.2 1.5 9.8
      vertex 0.5 1.5 9.8
    endloop
  endfacet
  facet normal -0 0 -1
    outer loop
      vertex 1.8 1.5 9.8
      vertex 1.5 0.5 9.8
      vertex 1.5 1.5 9.8
    endloop
  endfacet
  facet normal -1 0 0
    outer loop
      vertex 1.8 0.2 8.2
      vertex 1.8 1.5 9.8
      vertex 1.8 1.5 8.2
    endloop
  endfacet
  facet normal -1 -0 0
    outer loop
      vertex 1.8 1.5 9.8
      vertex 1.8 0.2 8.2
      vertex 1.8 0.2 9.8
    endloop
  endfacet
  facet normal 0 0 1
    outer loop
      vertex 0.5 1.5 8.2
      vertex 0.2 1.5 8.2
      vertex 0.5 0.5 8.2
    endloop
  endfacet
  facet normal 0 0 1
    outer loop
      vertex 1.5 0.5 8.2
      vertex 1.8 1.5 8.2
      vertex 1.5 1.5 8.2
    endloop
  endfacet
  facet normal 0 0 1
    outer loop
      vertex 1.8 1.5 8.2
      vertex 1.5 0.5 8.2
      vertex 1.8 0.2 8.2
    endloop
  endfacet
  facet normal -0 0 1
    outer loop
      vertex 0.5 0.5 8.2
      vertex 1.8 0.2 8.2
      vertex 1.5 0.5 8.2
    endloop
  endfacet
  facet normal 0 0 1
    outer loop
      vertex 0.5 0.5 8.2
      vertex 0.2 0.2 8.2
      vertex 1.8 0.2 8.2
    endloop
  endfacet
  facet normal 0 0 1
    outer loop
      vertex 0.2 0.2 8.2
      vertex 0.5 0.5 8.2
      vertex 0.2 1.5 8.2
    endloop
  endfacet
  facet normal -1 0 0
    outer loop
      vertex 0.4 0 5
      vertex 0.4 0.2 8
      vertex 0.4 0.2 5
    endloop
  endfacet
  facet normal -1 -0 0
    outer loop
      vertex 0.4 0.2 8
      vertex 0.4 0 5
      vertex 0.4 0 8
    endloop
  endfacet
  facet normal -0 0 1
    outer loop
      vertex 0.4 0.2 8
      vertex 1.6 0 8
      vertex 1.6 0.2 8
    endloop
  endfacet
  facet normal 0 0 1
    outer loop
      vertex 1.6 0 8
      vertex 0.4 0.2 8
      vertex 0.4 0 8
    endloop
  endfacet
  facet normal 1 -0 0
    outer loop
      vertex 1.6 0 8
      vertex 1.6 0.2 5
      vertex 1.6 0.2 8
    endloop
  endfacet
  facet normal 1 0 0
    outer loop
      vertex 1.6 0.2 5
      vertex 1.6 0 8
      vertex 1.6 0 5
    endloop
  endfacet
  facet normal 1 -0 0
    outer loop
      vertex 3 0 10
      vertex 3 0.2 5
      vertex 3 0.2 10
    endloop
  endfacet
  facet normal 1 0 0
    outer loop
      vertex 3 0.2 5
      vertex 3 0 10
      vertex 3 0 5
    endloop
  endfacet
  facet normal -1 0 0
    outer loop
      vertex 5 0 5
      vertex 5 0.2 10
      vertex 5 0.2 5
    endloop
  endfacet
  facet normal -1 -0 0
    outer loop
      vertex 5 0.2 10
      vertex 5 0 5
      vertex 5 0 10
    endloop
  endfacet
  facet normal 1 -0 0
    outer loop
      vertex 3.5 0.5 13
      vertex 3.5 1.5 9.8
      vertex 3.5 1.5 13
    endloop
  endfacet
  facet normal 1 0 0
    outer loop
      vertex 3.5 1.5 9.8
      vertex 3.5 0.5 13
      vertex 3.5 0.5 9.8
    endloop
  endfacet
  facet normal 1 -0 0
    outer loop
      vertex 3.5 0.5 8.2
      vertex 3.5 1.5 0
      vertex 3.5 1.5 8.2
    endloop
  endfacet
  facet normal 1 0 0
    outer loop
      vertex 3.5 1.5 0
      vertex 3.5 0.5 8.2
      vertex 3.5 0.5 0
    endloop
  endfacet
  facet normal -1 0 0
    outer loop
      vertex 4.5 0.5 9.8
      vertex 4.5 1.5 13
      vertex 4.5 1.5 9.8
    endloop
  endfacet
  facet normal -1 -0 0
    outer loop
      vertex 4.5 1.5 13
      vertex 4.5 0.5 9.8
      vertex 4.5 0.5 13
    endloop
  endfacet
  facet normal -1 0 0
    outer loop
      vertex 4.5 0.5 0
      vertex 4.5 1.5 8.2
      vertex 4.5 1.5 0
    endloop
  endfacet
  facet normal -1 -0 0
    outer loop
      vertex 4.5 1.5 8.2
      vertex 4.5 0.5 0
      vertex 4.5 0.5 8.2
    endloop
  endfacet
  facet normal 0 -1 0
    outer loop
      vertex 3.5 1.5 0
      vertex 4.5 1.5 8.2
      vertex 3.5 1.5 8.2
    endloop
  endfacet
  facet normal 0 -1 -0
    outer loop
      vertex 4.5 1.5 8.2
      vertex 3.5 1.5 0
      vertex 4.5 1.5 0
    endloop
  endfacet
  facet normal 0 -1 0
    outer loop
      vertex 3.5 1.5 8.2
      vertex 3.5 1.5 9.8
      vertex 3.2 1.5 9.8
    endloop
  endfacet
  facet normal 0 -1 0
    outer loop
      vertex 3.5 1.5 9.8
      vertex 3.5 1.5 8.2
      vertex 4.5 1.5 9.8
    endloop
  endfacet
  facet normal 0 -1 0
    outer loop
      vertex 3.5 1.5 8.2
      vertex 3.2 1.5 9.8
      vertex 3.2 1.5 8.2
    endloop
  endfacet
  facet normal 0 -1 0
    outer loop
      vertex 4.5 1.5 8.2
      vertex 4.5 1.5 9.8
      vertex 3.5 1.5 8.2
    endloop
  endfacet
  facet normal 0 -1 0
    outer loop
      vertex 4.5 1.5 9.8
      vertex 4.5 1.5 8.2
      vertex 4.8 1.5 9.8
    endloop
  endfacet
  facet normal 0 -1 -0
    outer loop
      vertex 4.8 1.5 9.8
      vertex 4.5 1.5 8.2
      vertex 4.8 1.5 8.2
    endloop
  endfacet
  facet normal 0 -1 0
    outer loop
      vertex 3.5 1.5 9.8
      vertex 4.5 1.5 13
      vertex 3.5 1.5 13
    endloop
  endfacet
  facet normal 0 -1 -0
    outer loop
      vertex 4.5 1.5 13
      vertex 3.5 1.5 9.8
      vertex 4.5 1.5 9.8
    endloop
  endfacet
  facet normal 0 1 -0
    outer loop
      vertex 4.5 0.5 9.8
      vertex 3.5 0.5 13
      vertex 4.5 0.5 13
    endloop
  endfacet
  facet normal 0 1 0
    outer loop
      vertex 3.5 0.5 13
      vertex 4.5 0.5 9.8
      vertex 3.5 0.5 9.8
    endloop
  endfacet
  facet normal 0 1 -0
    outer loop
      vertex 4.5 0.5 0
      vertex 3.5 0.5 8.2
      vertex 4.5 0.5 8.2
    endloop
  endfacet
  facet normal 0 1 0
    outer loop
      vertex 3.5 0.5 8.2
      vertex 4.5 0.5 0
      vertex 3.5 0.5 0
    endloop
  endfacet
  facet normal 0 0 -1
    outer loop
      vertex 3 0 10
      vertex 5 0.2 10
      vertex 5 0 10
    endloop
  endfacet
  facet normal -0 0 -1
    outer loop
      vertex 5 0.2 10
      vertex 3 0 10
      vertex 3 0.2 10
    endloop
  endfacet
  facet normal 0 -1 0
    outer loop
      vertex 3 0.2 10
      vertex 3.2 0.2 9.8
      vertex 5 0.2 10
    endloop
  endfacet
  facet normal 0 -1 0
    outer loop
      vertex 3 0.2 10
      vertex 3.2 0.2 8.2
      vertex 3.2 0.2 9.8
    endloop
  endfacet
  facet normal 0 -1 0
    outer loop
      vertex 3.2 0.2 8.2
      vertex 3.4 0.2 8
      vertex 4.8 0.2 8.2
    endloop
  endfacet
  facet normal 0 -1 0
    outer loop
      vertex 3 0.2 5
      vertex 3.2 0.2 8.2
      vertex 3 0.2 10
    endloop
  endfacet
  facet normal 0 -1 0
    outer loop
      vertex 3 0.2 5
      vertex 3.4 0.2 8
      vertex 3.2 0.2 8.2
    endloop
  endfacet
  facet normal 0 -1 -0
    outer loop
      vertex 3.4 0.2 8
      vertex 3 0.2 5
      vertex 3.4 0.2 5
    endloop
  endfacet
  facet normal 0 -1 0
    outer loop
      vertex 4.8 0.2 9.8
      vertex 5 0.2 10
      vertex 3.2 0.2 9.8
    endloop
  endfacet
  facet normal 0 -1 0
    outer loop
      vertex 4.8 0.2 8.2
      vertex 5 0.2 10
      vertex 4.8 0.2 9.8
    endloop
  endfacet
  facet normal 0 -1 0
    outer loop
      vertex 4.6 0.2 8
      vertex 4.8 0.2 8.2
      vertex 3.4 0.2 8
    endloop
  endfacet
  facet normal 0 -1 0
    outer loop
      vertex 5 0.2 5
      vertex 4.6 0.2 8
      vertex 4.6 0.2 5
    endloop
  endfacet
  facet normal 0 -1 0
    outer loop
      vertex 4.6 0.2 8
      vertex 5 0.2 5
      vertex 4.8 0.2 8.2
    endloop
  endfacet
  facet normal 0 -1 0
    outer loop
      vertex 4.8 0.2 8.2
      vertex 5 0.2 5
      vertex 5 0.2 10
    endloop
  endfacet
  facet normal -0 0 1
    outer loop
      vertex 3 0.2 5
      vertex 3.4 0 5
      vertex 3.4 0.2 5
    endloop
  endfacet
  facet normal 0 0 1
    outer loop
      vertex 3.4 0 5
      vertex 3 0.2 5
      vertex 3 0 5
    endloop
  endfacet
  facet normal -0 0 1
    outer loop
      vertex 4.6 0.2 5
      vertex 5 0 5
      vertex 5 0.2 5
    endloop
  endfacet
  facet normal 0 0 1
    outer loop
      vertex 5 0 5
      vertex 4.6 0.2 5
      vertex 4.6 0 5
    endloop
  endfacet
  facet normal 1 -0 0
    outer loop
      vertex 3.2 0.2 9.8
      vertex 3.2 1.5 8.2
      vertex 3.2 1.5 9.8
    endloop
  endfacet
  facet normal 1 0 0
    outer loop
      vertex 3.2 1.5 8.2
      vertex 3.2 0.2 9.8
      vertex 3.2 0.2 8.2
    endloop
  endfacet
  facet normal 0 0 -1
    outer loop
      vertex 4.8 0.2 9.8
      vertex 4.5 0.5 9.8
      vertex 4.8 1.5 9.8
    endloop
  endfacet
  facet normal 0 0 -1
    outer loop
      vertex 4.8 0.2 9.8
      vertex 3.5 0.5 9.8
      vertex 4.5 0.5 9.8
    endloop
  endfacet
  facet normal 0 0 -1
    outer loop
      vertex 3.2 0.2 9.8
      vertex 3.5 0.5 9.8
      vertex 4.8 0.2 9.8
    endloop
  endfacet
  facet normal 0 0 -1
    outer loop
      vertex 3.2 1.5 9.8
      vertex 3.5 0.5 9.8
      vertex 3.2 0.2 9.8
    endloop
  endfacet
  facet normal 0 0 -1
    outer loop
      vertex 3.5 0.5 9.8
      vertex 3.2 1.5 9.8
      vertex 3.5 1.5 9.8
    endloop
  endfacet
  facet normal -0 0 -1
    outer loop
      vertex 4.8 1.5 9.8
      vertex 4.5 0.5 9.8
      vertex 4.5 1.5 9.8
    endloop
  endfacet
  facet normal -1 0 0
    outer loop
      vertex 4.8 0.2 8.2
      vertex 4.8 1.5 9.8
      vertex 4.8 1.5 8.2
    endloop
  endfacet
  facet normal -1 -0 0
    outer loop
      vertex 4.8 1.5 9.8
      vertex 4.8 0.2 8.2
      vertex 4.8 0.2 9.8
    endloop
  endfacet
  facet normal 0 0 1
    outer loop
      vertex 3.5 1.5 8.2
      vertex 3.2 1.5 8.2
      vertex 3.5 0.5 8.2
    endloop
  endfacet
  facet normal 0 0 1
    outer loop
      vertex 4.5 0.5 8.2
      vertex 4.8 1.5 8.2
      vertex 4.5 1.5 8.2
    endloop
  endfacet
  facet normal 0 0 1
    outer loop
      vertex 4.8 1.5 8.2
      vertex 4.5 0.5 8.2
      vertex 4.8 0.2 8.2
    endloop
  endfacet
  facet normal -0 0 1
    outer loop
      vertex 3.5 0.5 8.2
      vertex 4.8 0.2 8.2
      vertex 4.5 0.5 8.2
    endloop
  endfacet
  facet normal 0 0 1
    outer loop
      vertex 3.5 0.5 8.2
      vertex 3.2 0.2 8.2
      vertex 4.8 0.2 8.2
    endloop
  endfacet
  facet normal 0 0 1
    outer loop
      vertex 3.2 0.2 8.2
      vertex 3.5 0.5 8.2
      vertex 3.2 1.5 8.2
    endloop
  endfacet
  facet normal -1 0 0
    outer loop
      vertex 3.4 0 5
      vertex 3.4 0.2 8
      vertex 3.4 0.2 5
    endloop
  endfacet
  facet normal -1 -0 0
    outer loop
      vertex 3.4 0.2 8
      vertex 3.4 0 5
      vertex 3.4 0 8
    endloop
  endfacet
  facet normal -0 0 1
    outer loop
      vertex 3.4 0.2 8
      vertex 4.6 0 8
      vertex 4.6 0.2 8
    endloop
  endfacet
  facet normal 0 0 1
    outer loop
      vertex 4.6 0 8
      vertex 3.4 0.2 8
      vertex 3.4 0 8
    endloop
  endfacet
  facet normal 1 -0 0
    outer loop
      vertex 4.6 0 8
      vertex 4.6 0.2 5
      vertex 4.6 0.2 8
    endloop
  endfacet
  facet normal 1 0 0
    outer loop
      vertex 4.6 0.2 5
      vertex 4.6 0 8
      vertex 4.6 0 5
    endloop
  endfacet
  facet normal 1 -0 0
    outer loop
      vertex 6 0 10
      vertex 6 0.2 5
      vertex 6 0.2 10
    endloop
  endfacet
  facet normal 1 0 0
    outer loop
      vertex 6 0.2 5
      vertex 6 0 10
      vertex 6 0 5
    endloop
  endfacet
  facet normal 1 0 0
    outer loop
      vertex 8 0.2 5
      vertex 8 2 13
      vertex 8 0.2 10
    endloop
  endfacet
  facet normal 1 -0 0
    outer loop
      vertex 8 0 13
      vertex 8 0.2 10
      vertex 8 2 13
    endloop
  endfacet
  facet normal 1 0 0
    outer loop
      vertex 8 0.2 10
      vertex 8 0 13
      vertex 8 0 10
    endloop
  endfacet
  facet normal 1 0 0
    outer loop
      vertex 8 2 13
      vertex 8 0.2 5
      vertex 8 2 0
    endloop
  endfacet
  facet normal 1 0 0
    outer loop
      vertex 8 0 0
      vertex 8 0.2 5
      vertex 8 0 5
    endloop
  endfacet
  facet normal 1 0 0
    outer loop
      vertex 8 0.2 5
      vertex 8 0 0
      vertex 8 2 0
    endloop
  endfacet
  facet normal 1 -0 0
    outer loop
      vertex 6.5 0.5 13
      vertex 6.5 1.5 9.8
      vertex 6.5 1.5 13
    endloop
  endfacet
  facet normal 1 0 0
    outer loop
      vertex 6.5 1.5 9.8
      vertex 6.5 0.5 13
      vertex 6.5 0.5 9.8
    endloop
  endfacet
  facet normal 1 -0 0
    outer loop
      vertex 6.5 0.5 8.2
      vertex 6.5 1.5 0
      vertex 6.5 1.5 8.2
    endloop
  endfacet
  facet normal 1 0 0
    outer loop
      vertex 6.5 1.5 0
      vertex 6.5 0.5 8.2
      vertex 6.5 0.5 0
    endloop
  endfacet
  facet normal -1 0 0
    outer loop
      vertex 7.5 0.5 9.8
      vertex 7.5 1.5 13
      vertex 7.5 1.5 9.8
    endloop
  endfacet
  facet normal -1 -0 0
    outer loop
      vertex 7.5 1.5 13
      vertex 7.5 0.5 9.8
      vertex 7.5 0.5 13
    endloop
  endfacet
  facet normal -1 0 0
    outer loop
      vertex 7.5 0.5 0
      vertex 7.5 1.5 8.2
      vertex 7.5 1.5 0
    endloop
  endfacet
  facet normal -1 -0 0
    outer loop
      vertex 7.5 1.5 8.2
      vertex 7.5 0.5 0
      vertex 7.5 0.5 8.2
    endloop
  endfacet
  facet normal 0 -1 0
    outer loop
      vertex 6.5 1.5 0
      vertex 7.5 1.5 8.2
      vertex 6.5 1.5 8.2
    endloop
  endfacet
  facet normal 0 -1 -0
    outer loop
      vertex 7.5 1.5 8.2
      vertex 6.5 1.5 0
      vertex 7.5 1.5 0
    endloop
  endfacet
  facet normal 0 -1 0
    outer loop
      vertex 6.5 1.5 8.2
      vertex 6.5 1.5 9.8
      vertex 6.2 1.5 9.8
    endloop
  endfacet
  facet normal 0 -1 0
    outer loop
      vertex 6.5 1.5 9.8
      vertex 6.5 1.5 8.2
      vertex 7.5 1.5 9.8
    endloop
  endfacet
  facet normal 0 -1 0
    outer loop
      vertex 6.5 1.5 8.2
      vertex 6.2 1.5 9.8
      vertex 6.2 1.5 8.2
    endloop
  endfacet
  facet normal 0 -1 0
    outer loop
      vertex 7.5 1.5 8.2
      vertex 7.5 1.5 9.8
      vertex 6.5 1.5 8.2
    endloop
  endfacet
  facet normal 0 -1 0
    outer loop
      vertex 7.5 1.5 9.8
      vertex 7.5 1.5 8.2
      vertex 7.8 1.5 9.8
    endloop
  endfacet
  facet normal 0 -1 -0
    outer loop
      vertex 7.8 1.5 9.8
      vertex 7.5 1.5 8.2
      vertex 7.8 1.5 8.2
    endloop
  endfacet
  facet normal 0 -1 0
    outer loop
      vertex 6.5 1.5 9.8
      vertex 7.5 1.5 13
      vertex 6.5 1.5 13
    endloop
  endfacet
  facet normal 0 -1 -0
    outer loop
      vertex 7.5 1.5 13
      vertex 6.5 1.5 9.8
      vertex 7.5 1.5 9.8
    endloop
  endfacet
  facet normal 0 1 -0
    outer loop
      vertex 7.5 0.5 9.8
      vertex 6.5 0.5 13
      vertex 7.5 0.5 13
    endloop
  endfacet
  facet normal 0 1 0
    outer loop
      vertex 6.5 0.5 13
      vertex 7.5 0.5 9.8
      vertex 6.5 0.5 9.8
    endloop
  endfacet
  facet normal 0 1 -0
    outer loop
      vertex 7.5 0.5 0
      vertex 6.5 0.5 8.2
      vertex 7.5 0.5 8.2
    endloop
  endfacet
  facet normal 0 1 0
    outer loop
      vertex 6.5 0.5 8.2
      vertex 7.5 0.5 0
      vertex 6.5 0.5 0
    endloop
  endfacet
  facet normal 0 0 -1
    outer loop
      vertex 6 0 10
      vertex 8 0.2 10
      vertex 8 0 10
    endloop
  endfacet
  facet normal -0 0 -1
    outer loop
      vertex 8 0.2 10
      vertex 6 0 10
      vertex 6 0.2 10
    endloop
  endfacet
  facet normal 0 -1 0
    outer loop
      vertex 6 0.2 10
      vertex 6.2 0.2 9.8
      vertex 8 0.2 10
    endloop
  endfacet
  facet normal 0 -1 0
    outer loop
      vertex 6 0.2 10
      vertex 6.2 0.2 8.2
      vertex 6.2 0.2 9.8
    endloop
  endfacet
  facet normal 0 -1 0
    outer loop
      vertex 6.2 0.2 8.2
      vertex 6.4 0.2 8
      vertex 7.8 0.2 8.2
    endloop
  endfacet
  facet normal 0 -1 0
    outer loop
      vertex 6 0.2 5
      vertex 6.2 0.2 8.2
      vertex 6 0.2 10
    endloop
  endfacet
  facet normal 0 -1 0
    outer loop
      vertex 6 0.2 5
      vertex 6.4 0.2 8
      vertex 6.2 0.2 8.2
    endloop
  endfacet
  facet normal 0 -1 -0
    outer loop
      vertex 6.4 0.2 8
      vertex 6 0.2 5
      vertex 6.4 0.2 5
    endloop
  endfacet
  facet normal 0 -1 0
    outer loop
      vertex 7.8 0.2 9.8
      vertex 8 0.2 10
      vertex 6.2 0.2 9.8
    endloop
  endfacet
  facet normal 0 -1 0
    outer loop
      vertex 7.8 0.2 8.2
      vertex 8 0.2 10
      vertex 7.8 0.2 9.8
    endloop
  endfacet
  facet normal 0 -1 0
    outer loop
      vertex 7.6 0.2 8
      vertex 7.8 0.2 8.2
      vertex 6.4 0.2 8
    endloop
  endfacet
  facet normal 0 -1 0
    outer loop
      vertex 8 0.2 5
      vertex 7.6 0.2 8
      vertex 7.6 0.2 5
    endloop
  endfacet
  facet normal 0 -1 0
    outer loop
      vertex 7.6 0.2 8
      vertex 8 0.2 5
      vertex 7.8 0.2 8.2
    endloop
  endfacet
  facet normal 0 -1 0
    outer loop
      vertex 7.8 0.2 8.2
      vertex 8 0.2 5
      vertex 8 0.2 10
    endloop
  endfacet
  facet normal -0 0 1
    outer loop
      vertex 6 0.2 5
      vertex 6.4 0 5
      vertex 6.4 0.2 5
    endloop
  endfacet
  facet normal 0 0 1
    outer loop
      vertex 6.4 0 5
      vertex 6 0.2 5
      vertex 6 0 5
    endloop
  endfacet
  facet normal -0 0 1
    outer loop
      vertex 7.6 0.2 5
      vertex 8 0 5
      vertex 8 0.2 5
    endloop
  endfacet
  facet normal 0 0 1
    outer loop
      vertex 8 0 5
      vertex 7.6 0.2 5
      vertex 7.6 0 5
    endloop
  endfacet
  facet normal 1 -0 0
    outer loop
      vertex 6.2 0.2 9.8
      vertex 6.2 1.5 8.2
      vertex 6.2 1.5 9.8
    endloop
  endfacet
  facet normal 1 0 0
    outer loop
      vertex 6.2 1.5 8.2
      vertex 6.2 0.2 9.8
      vertex 6.2 0.2 8.2
    endloop
  endfacet
  facet normal 0 0 -1
    outer loop
      vertex 7.8 0.2 9.8
      vertex 7.5 0.5 9.8
      vertex 7.8 1.5 9.8
    endloop
  endfacet
  facet normal 0 0 -1
    outer loop
      vertex 7.8 0.2 9.8
      vertex 6.5 0.5 9.8
      vertex 7.5 0.5 9.8
    endloop
  endfacet
  facet normal 0 0 -1
    outer loop
      vertex 6.2 0.2 9.8
      vertex 6.5 0.5 9.8
      vertex 7.8 0.2 9.8
    endloop
  endfacet
  facet normal 0 0 -1
    outer loop
      vertex 6.2 1.5 9.8
      vertex 6.5 0.5 9.8
      vertex 6.2 0.2 9.8
    endloop
  endfacet
  facet normal 0 0 -1
    outer loop
      vertex 6.5 0.5 9.8
      vertex 6.2 1.5 9.8
      vertex 6.5 1.5 9.8
    endloop
  endfacet
  facet normal -0 0 -1
    outer loop
      vertex 7.8 1.5 9.8
      vertex 7.5 0.5 9.8
      vertex 7.5 1.5 9.8
    endloop
  endfacet
  facet normal -1 0 0
    outer loop
      vertex 7.8 0.2 8.2
      vertex 7.8 1.5 9.8
      vertex 7.8 1.5 8.2
    endloop
  endfacet
  facet normal -1 -0 0
    outer loop
      vertex 7.8 1.5 9.8
      vertex 7.8 0.2 8.2
      vertex 7.8 0.2 9.8
    endloop
  endfacet
  facet normal 0 0 1
    outer loop
      vertex 6.5 1.5 8.2
      vertex 6.2 1.5 8.2
      vertex 6.5 0.5 8.2
    endloop
  endfacet
  facet normal 0 0 1
    outer loop
      vertex 7.5 0.5 8.2
      vertex 7.8 1.5 8.2
      vertex 7.5 1.5 8.2
    endloop
  endfacet
  facet normal 0 0 1
    outer loop
      vertex 7.8 1.5 8.2
      vertex 7.5 0.5 8.2
      vertex 7.8 0.2 8.2
    endloop
  endfacet
  facet normal -0 0 1
    outer loop
      vertex 6.5 0.5 8.2
      vertex 7.8 0.2 8.2
      vertex 7.5 0.5 8.2
    endloop
  endfacet
  facet normal 0 0 1
    outer loop
      vertex 6.5 0.5 8.2
      vertex 6.2 0.2 8.2
      vertex 7.8 0.2 8.2
    endloop
  endfacet
  facet normal 0 0 1
    outer loop
      vertex 6.2 0.2 8.2
      vertex 6.5 0.5 8.2
      vertex 6.2 1.5 8.2
    endloop
  endfacet
  facet normal -1 0 0
    outer loop
      vertex 6.4 0 5
      vertex 6.4 0.2 8
      vertex 6.4 0.2 5
    endloop
  endfacet
  facet normal -1 -0 0
    outer loop
      vertex 6.4 0.2 8
      vertex 6.4 0 5
      vertex 6.4 0 8
    endloop
  endfacet
  facet normal -0 0 1
    outer loop
      vertex 6.4 0.2 8
      vertex 7.6 0 8
      vertex 7.6 0.2 8
    endloop
  endfacet
  facet normal 0 0 1
    outer loop
      vertex 7.6 0 8
      vertex 6.4 0.2 8
      vertex 6.4 0 8
    endloop
  endfacet
  facet normal 1 -0 0
    outer loop
      vertex 7.6 0 8
      vertex 7.6 0.2 5
      vertex 7.6 0.2 8
    endloop
  endfacet
  facet normal 1 0 0
    outer loop
      vertex 7.6 0.2 5
      vertex 7.6 0 8
      vertex 7.6 0 5
    endloop
  endfacet
endsolid OpenSCAD_Model
