  0
SECTION
  2
HEADER
  9
$ACADVER
  1
AC1014
  9
$HANDSEED
  5
FFFF
  9
$MEASUREMENT
 70
     1
  0
ENDSEC
  0
SECTION
  2
TABLES
  0
TABLE
  2
VPORT
  5
8
330
0
100
AcDbSymbolTable
 70
     4
  0
VPORT
  5
2E
330
8
100
AcDbSymbolTableRecord
100
AcDbViewportTableRecord
  2
*ACTIVE
 70
     0
 10
0.0
 20
0.0
 11
1.0
 21
1.0
 12
210.0
 22
148.5
 13
0.0
 23
0.0
 14
10.0
 24
10.0
 15
10.0
 25
10.0
 16
0.0
 26
0.0
 36
1.0
 17
0.0
 27
0.0
 37
0.0
 40
341.0
 41
1.24
 42
50.0
 43
0.0
 44
0.0
 50
0.0
 51
0.0
 71
     0
 72
   100
 73
     1
 74
     3
 75
     0
 76
     0
 77
     0
 78
     0
  0
ENDTAB
  0
TABLE
  2
LTYPE
  5
5
330
0
100
AcDbSymbolTable
 70
     1
  0
LTYPE
  5
14
330
5
100
AcDbSymbolTableRecord
100
AcDbLinetypeTableRecord
  2
BYBLOCK
 70
     0
  3

 72
    65
 73
     0
 40
0.0
  0
LTYPE
  5
15
330
5
100
AcDbSymbolTableRecord
100
AcDbLinetypeTableRecord
  2
BYLAYER
 70
     0
  3

 72
    65
 73
     0
 40
0.0
  0
LTYPE
  5
16
330
5
100
AcDbSymbolTableRecord
100
AcDbLinetypeTableRecord
  2
CONTINUOUS
 70
     0
  3
Solid line
 72
    65
 73
     0
 40
0.0
  0
ENDTAB
  0
TABLE
  2
LAYER
  5
2
100
AcDbSymbolTable
 70
2
  0
LAYER
  5
50
100
AcDbSymbolTableRecord
100
AcDbLayerTableRecord
  2
0
 70
0
  6
CONTINUOUS
  0
LAYER
  5
51
100
AcDbSymbolTableRecord
100
AcDbLayerTableRecord
  2
Layer_1
 70
0
  6
CONTINUOUS
  0
ENDTAB
  0
TABLE
  2
STYLE
  5
3
330
0
100
AcDbSymbolTable
 70
     1
  0
STYLE
  5
11
330
3
100
AcDbSymbolTableRecord
100
AcDbTextStyleTableRecord
  2
STANDARD
 70
     0
 40
0.0
 41
1.0
 50
0.0
 71
     0
 42
2.5
  3
txt
  4

  0
ENDTAB
  0
TABLE
  2
VIEW
  5
6
330
0
100
AcDbSymbolTable
 70
     0
  0
ENDTAB
  0
TABLE
  2
UCS
  5
7
330
0
100
AcDbSymbolTable
 70
     0
  0
ENDTAB
  0
TABLE
  2
APPID
  5
9
330
0
100
AcDbSymbolTable
 70
     2
  0
APPID
  5
12
330
9
100
AcDbSymbolTableRecord
100
AcDbRegAppTableRecord
  2
ACAD
 70
     0
  0
ENDTAB
  0
TABLE
  2
DIMSTYLE
  5
A
330
0
100
AcDbSymbolTable
 70
     1
  0
DIMSTYLE
105
27
330
A
100
AcDbSymbolTableRecord
100
AcDbDimStyleTableRecord
  2
ISO-25
 70
     0
  3

  4

  5

  6

  7

 40
1.0
 41
2.5
 42
0.625
 43
3.75
 44
1.25
 45
0.0
 46
0.0
 47
0.0
 48
0.0
140
2.5
141
2.5
142
0.0
143
0.03937007874016
144
1.0
145
0.0
146
1.0
147
0.625
 71
     0
 72
     0
 73
     0
 74
     0
 75
     0
 76
     0
 77
     1
 78
     8
170
     0
171
     3
172
     1
173
     0
174
     0
175
     0
176
     0
177
     0
178
     0
270
     2
271
     2
272
     2
273
     2
274
     3
340
11
275
     0
280
     0
281
     0
282
     0
283
     0
284
     8
285
     0
286
     0
287
     3
288
     0
  0
ENDTAB
  0
TABLE
  2
BLOCK_RECORD
  5
1
330
0
100
AcDbSymbolTable
 70
     1
  0
BLOCK_RECORD
  5
1F
330
1
100
AcDbSymbolTableRecord
100
AcDbBlockTableRecord
  2
*MODEL_SPACE
  0
BLOCK_RECORD
  5
1B
330
1
100
AcDbSymbolTableRecord
100
AcDbBlockTableRecord
  2
*PAPER_SPACE
  0
ENDTAB
  0
ENDSEC
  0
SECTION
  2
BLOCKS
  0
BLOCK
  5
20
330
1F
100
AcDbEntity
  8
0
100
AcDbBlockBegin
  2
*MODEL_SPACE
 70
     0
 10
0.0
 20
0.0
 30
0.0
  3
*MODEL_SPACE
  1

  0
ENDBLK
  5
21
330
1F
100
AcDbEntity
  8
0
100
AcDbBlockEnd
  0
BLOCK
  5
1C
330
1B
100
AcDbEntity
 67
     1
  8
0
100
AcDbBlockBegin
  2
*PAPER_SPACE
  1

  0
ENDBLK
  5
1D
330
1B
100
AcDbEntity
 67
     1
  8
0
100
AcDbBlockEnd
  0
ENDSEC
  0
SECTION
  2
ENTITIES
  0
LINE
  5
100
100
AcDbEntity
  8
Layer_1
 62
7
100
AcDbLine
 10
53.499035
 20
1.999828
 30
0.0
 11
53.499599
 21
0.000001
 31
0.0
  0
LINE
  5
101
100
AcDbEntity
  8
Layer_1
 62
7
100
AcDbLine
 10
53.499599
 20
0.000001
 30
0.0
 11
55.499409
 21
0.000001
 31
0.0
  0
LINE
  5
102
100
AcDbEntity
  8
Layer_1
 62
7
100
AcDbLine
 10
55.499409
 20
0.000001
 30
0.0
 11
55.498845
 21
1.999828
 31
0.0
  0
LINE
  5
103
100
AcDbEntity
  8
Layer_1
 62
7
100
AcDbLine
 10
55.498845
 20
1.999828
 30
0.0
 11
55.998799
 21
1.999828
 31
0.0
  0
LINE
  5
104
100
AcDbEntity
  8
Layer_1
 62
7
100
AcDbLine
 10
55.998799
 20
1.999828
 30
0.0
 11
55.999363
 21
0.000001
 31
0.0
  0
LINE
  5
105
100
AcDbEntity
  8
Layer_1
 62
7
100
AcDbLine
 10
55.999363
 20
0.000001
 30
0.0
 11
57.999723
 21
0.000001
 31
0.0
  0
LINE
  5
106
100
AcDbEntity
  8
Layer_1
 62
7
100
AcDbLine
 10
57.999723
 20
0.000001
 30
0.0
 11
57.999159
 21
1.999828
 31
0.0
  0
LINE
  5
107
100
AcDbEntity
  8
Layer_1
 62
7
100
AcDbLine
 10
57.999159
 20
1.999828
 30
0.0
 11
58.499110
 21
1.999828
 31
0.0
  0
LINE
  5
108
100
AcDbEntity
  8
Layer_1
 62
7
100
AcDbLine
 10
58.499110
 20
1.999828
 30
0.0
 11
58.499674
 21
0.000001
 31
0.0
  0
LINE
  5
109
100
AcDbEntity
  8
Layer_1
 62
7
100
AcDbLine
 10
58.499674
 20
0.000001
 30
0.0
 11
60.499484
 21
0.000001
 31
0.0
  0
LINE
  5
10a
100
AcDbEntity
  8
Layer_1
 62
7
100
AcDbLine
 10
60.499484
 20
0.000001
 30
0.0
 11
60.498919
 21
1.999828
 31
0.0
  0
LINE
  5
10b
100
AcDbEntity
  8
Layer_1
 62
7
100
AcDbLine
 10
60.498919
 20
1.999828
 30
0.0
 11
60.998870
 21
1.999828
 31
0.0
  0
LINE
  5
10c
100
AcDbEntity
  8
Layer_1
 62
7
100
AcDbLine
 10
60.998870
 20
1.999828
 30
0.0
 11
60.999435
 21
0.000001
 31
0.0
  0
LINE
  5
10d
100
AcDbEntity
  8
Layer_1
 62
7
100
AcDbLine
 10
60.999435
 20
0.000001
 30
0.0
 11
62.999795
 21
0.000001
 31
0.0
  0
LINE
  5
10e
100
AcDbEntity
  8
Layer_1
 62
7
100
AcDbLine
 10
62.999795
 20
0.000001
 30
0.0
 11
62.999231
 21
1.999828
 31
0.0
  0
LINE
  5
10f
100
AcDbEntity
  8
Layer_1
 62
7
100
AcDbLine
 10
62.999231
 20
1.999828
 30
0.0
 11
63.499184
 21
1.999828
 31
0.0
  0
LINE
  5
110
100
AcDbEntity
  8
Layer_1
 62
7
100
AcDbLine
 10
63.499184
 20
1.999828
 30
0.0
 11
63.499749
 21
0.000001
 31
0.0
  0
LINE
  5
111
100
AcDbEntity
  8
Layer_1
 62
7
100
AcDbLine
 10
63.499749
 20
0.000001
 30
0.0
 11
65.499559
 21
0.000001
 31
0.0
  0
LINE
  5
112
100
AcDbEntity
  8
Layer_1
 62
7
100
AcDbLine
 10
65.499559
 20
0.000001
 30
0.0
 11
65.498994
 21
1.999828
 31
0.0
  0
LINE
  5
113
100
AcDbEntity
  8
Layer_1
 62
7
100
AcDbLine
 10
65.498994
 20
1.999828
 30
0.0
 11
65.998945
 21
1.999828
 31
0.0
  0
LINE
  5
114
100
AcDbEntity
  8
Layer_1
 62
7
100
AcDbLine
 10
65.998945
 20
1.999828
 30
0.0
 11
65.999510
 21
0.000001
 31
0.0
  0
LINE
  5
115
100
AcDbEntity
  8
Layer_1
 62
7
100
AcDbLine
 10
65.999510
 20
0.000001
 30
0.0
 11
67.999870
 21
0.000001
 31
0.0
  0
LINE
  5
116
100
AcDbEntity
  8
Layer_1
 62
7
100
AcDbLine
 10
67.999870
 20
0.000001
 30
0.0
 11
67.999305
 21
1.999828
 31
0.0
  0
LINE
  5
117
100
AcDbEntity
  8
Layer_1
 62
7
100
AcDbLine
 10
67.999305
 20
1.999828
 30
0.0
 11
68.499259
 21
1.999828
 31
0.0
  0
LINE
  5
118
100
AcDbEntity
  8
Layer_1
 62
7
100
AcDbLine
 10
68.499259
 20
1.999828
 30
0.0
 11
68.499823
 21
0.000001
 31
0.0
  0
LINE
  5
119
100
AcDbEntity
  8
Layer_1
 62
7
100
AcDbLine
 10
68.499823
 20
0.000001
 30
0.0
 11
70.499630
 21
0.000001
 31
0.0
  0
LINE
  5
11a
100
AcDbEntity
  8
Layer_1
 62
7
100
AcDbLine
 10
70.499630
 20
0.000001
 30
0.0
 11
70.499630
 21
6.499918
 31
0.0
  0
LINE
  5
11b
100
AcDbEntity
  8
Layer_1
 62
7
100
AcDbLine
 10
70.499630
 20
6.499918
 30
0.0
 11
71.499535
 21
6.499918
 31
0.0
  0
LINE
  5
11c
100
AcDbEntity
  8
Layer_1
 62
7
100
AcDbLine
 10
71.499535
 20
6.499918
 30
0.0
 11
71.499535
 21
10.000151
 31
0.0
  0
LINE
  5
11d
100
AcDbEntity
  8
Layer_1
 62
7
100
AcDbLine
 10
71.499535
 20
10.000151
 30
0.0
 11
70.499630
 21
10.000151
 31
0.0
  0
LINE
  5
11e
100
AcDbEntity
  8
Layer_1
 62
7
100
AcDbLine
 10
70.499630
 20
10.000151
 30
0.0
 11
70.499630
 21
16.500067
 31
0.0
  0
LINE
  5
11f
100
AcDbEntity
  8
Layer_1
 62
7
100
AcDbLine
 10
70.499630
 20
16.500067
 30
0.0
 11
68.499823
 21
16.500067
 31
0.0
  0
LINE
  5
120
100
AcDbEntity
  8
Layer_1
 62
7
100
AcDbLine
 10
68.499823
 20
16.500067
 30
0.0
 11
68.499996
 21
14.499930
 31
0.0
  0
LINE
  5
121
100
AcDbEntity
  8
Layer_1
 62
7
100
AcDbLine
 10
68.499996
 20
14.499930
 30
0.0
 11
68.000042
 21
14.499930
 31
0.0
  0
LINE
  5
122
100
AcDbEntity
  8
Layer_1
 62
7
100
AcDbLine
 10
68.000042
 20
14.499930
 30
0.0
 11
67.999870
 21
16.500067
 31
0.0
  0
LINE
  5
123
100
AcDbEntity
  8
Layer_1
 62
7
100
AcDbLine
 10
67.999870
 20
16.500067
 30
0.0
 11
65.999510
 21
16.500067
 31
0.0
  0
LINE
  5
124
100
AcDbEntity
  8
Layer_1
 62
7
100
AcDbLine
 10
65.999510
 20
16.500067
 30
0.0
 11
65.999682
 21
14.499930
 31
0.0
  0
LINE
  5
125
100
AcDbEntity
  8
Layer_1
 62
7
100
AcDbLine
 10
65.999682
 20
14.499930
 30
0.0
 11
65.499731
 21
14.499930
 31
0.0
  0
LINE
  5
126
100
AcDbEntity
  8
Layer_1
 62
7
100
AcDbLine
 10
65.499731
 20
14.499930
 30
0.0
 11
65.499559
 21
16.500067
 31
0.0
  0
LINE
  5
127
100
AcDbEntity
  8
Layer_1
 62
7
100
AcDbLine
 10
65.499559
 20
16.500067
 30
0.0
 11
63.499749
 21
16.500067
 31
0.0
  0
LINE
  5
128
100
AcDbEntity
  8
Layer_1
 62
7
100
AcDbLine
 10
63.499749
 20
16.500067
 30
0.0
 11
63.499921
 21
14.499930
 31
0.0
  0
LINE
  5
129
100
AcDbEntity
  8
Layer_1
 62
7
100
AcDbLine
 10
63.499921
 20
14.499930
 30
0.0
 11
62.999967
 21
14.499930
 31
0.0
  0
LINE
  5
12a
100
AcDbEntity
  8
Layer_1
 62
7
100
AcDbLine
 10
62.999967
 20
14.499930
 30
0.0
 11
62.999795
 21
16.500067
 31
0.0
  0
LINE
  5
12b
100
AcDbEntity
  8
Layer_1
 62
7
100
AcDbLine
 10
62.999795
 20
16.500067
 30
0.0
 11
60.999435
 21
16.500067
 31
0.0
  0
LINE
  5
12c
100
AcDbEntity
  8
Layer_1
 62
7
100
AcDbLine
 10
60.999435
 20
16.500067
 30
0.0
 11
60.999607
 21
14.499930
 31
0.0
  0
LINE
  5
12d
100
AcDbEntity
  8
Layer_1
 62
7
100
AcDbLine
 10
60.999607
 20
14.499930
 30
0.0
 11
60.499656
 21
14.499930
 31
0.0
  0
LINE
  5
12e
100
AcDbEntity
  8
Layer_1
 62
7
100
AcDbLine
 10
60.499656
 20
14.499930
 30
0.0
 11
60.499484
 21
16.500067
 31
0.0
  0
LINE
  5
12f
100
AcDbEntity
  8
Layer_1
 62
7
100
AcDbLine
 10
60.499484
 20
16.500067
 30
0.0
 11
58.499674
 21
16.500067
 31
0.0
  0
LINE
  5
130
100
AcDbEntity
  8
Layer_1
 62
7
100
AcDbLine
 10
58.499674
 20
16.500067
 30
0.0
 11
58.499846
 21
14.499930
 31
0.0
  0
LINE
  5
131
100
AcDbEntity
  8
Layer_1
 62
7
100
AcDbLine
 10
58.499846
 20
14.499930
 30
0.0
 11
57.999895
 21
14.499930
 31
0.0
  0
LINE
  5
132
100
AcDbEntity
  8
Layer_1
 62
7
100
AcDbLine
 10
57.999895
 20
14.499930
 30
0.0
 11
57.999723
 21
16.500067
 31
0.0
  0
LINE
  5
133
100
AcDbEntity
  8
Layer_1
 62
7
100
AcDbLine
 10
57.999723
 20
16.500067
 30
0.0
 11
55.999363
 21
16.500067
 31
0.0
  0
LINE
  5
134
100
AcDbEntity
  8
Layer_1
 62
7
100
AcDbLine
 10
55.999363
 20
16.500067
 30
0.0
 11
55.999535
 21
14.499930
 31
0.0
  0
LINE
  5
135
100
AcDbEntity
  8
Layer_1
 62
7
100
AcDbLine
 10
55.999535
 20
14.499930
 30
0.0
 11
55.499581
 21
14.499930
 31
0.0
  0
LINE
  5
136
100
AcDbEntity
  8
Layer_1
 62
7
100
AcDbLine
 10
55.499581
 20
14.499930
 30
0.0
 11
55.499409
 21
16.500067
 31
0.0
  0
LINE
  5
137
100
AcDbEntity
  8
Layer_1
 62
7
100
AcDbLine
 10
55.499409
 20
16.500067
 30
0.0
 11
53.499599
 21
16.500067
 31
0.0
  0
LINE
  5
138
100
AcDbEntity
  8
Layer_1
 62
7
100
AcDbLine
 10
53.499599
 20
16.500067
 30
0.0
 11
53.499772
 21
14.499930
 31
0.0
  0
LINE
  5
139
100
AcDbEntity
  8
Layer_1
 62
7
100
AcDbLine
 10
53.499772
 20
14.499930
 30
0.0
 11
52.999804
 21
14.499930
 31
0.0
  0
LINE
  5
13a
100
AcDbEntity
  8
Layer_1
 62
7
100
AcDbLine
 10
52.999804
 20
14.499930
 30
0.0
 11
52.999632
 21
16.500067
 31
0.0
  0
LINE
  5
13b
100
AcDbEntity
  8
Layer_1
 62
7
100
AcDbLine
 10
52.999632
 20
16.500067
 30
0.0
 11
50.999822
 21
16.500067
 31
0.0
  0
LINE
  5
13c
100
AcDbEntity
  8
Layer_1
 62
7
100
AcDbLine
 10
50.999822
 20
16.500067
 30
0.0
 11
50.999994
 21
14.499930
 31
0.0
  0
LINE
  5
13d
100
AcDbEntity
  8
Layer_1
 62
7
100
AcDbLine
 10
50.999994
 20
14.499930
 30
0.0
 11
50.500043
 21
14.499930
 31
0.0
  0
LINE
  5
13e
100
AcDbEntity
  8
Layer_1
 62
7
100
AcDbLine
 10
50.500043
 20
14.499930
 30
0.0
 11
50.499871
 21
16.500067
 31
0.0
  0
LINE
  5
13f
100
AcDbEntity
  8
Layer_1
 62
7
100
AcDbLine
 10
50.499871
 20
16.500067
 30
0.0
 11
48.499511
 21
16.500067
 31
0.0
  0
LINE
  5
140
100
AcDbEntity
  8
Layer_1
 62
7
100
AcDbLine
 10
48.499511
 20
16.500067
 30
0.0
 11
48.499683
 21
14.499930
 31
0.0
  0
LINE
  5
141
100
AcDbEntity
  8
Layer_1
 62
7
100
AcDbLine
 10
48.499683
 20
14.499930
 30
0.0
 11
47.999729
 21
14.499930
 31
0.0
  0
LINE
  5
142
100
AcDbEntity
  8
Layer_1
 62
7
100
AcDbLine
 10
47.999729
 20
14.499930
 30
0.0
 11
47.999557
 21
16.500067
 31
0.0
  0
LINE
  5
143
100
AcDbEntity
  8
Layer_1
 62
7
100
AcDbLine
 10
47.999557
 20
16.500067
 30
0.0
 11
45.999750
 21
16.500067
 31
0.0
  0
LINE
  5
144
100
AcDbEntity
  8
Layer_1
 62
7
100
AcDbLine
 10
45.999750
 20
16.500067
 30
0.0
 11
45.999922
 21
14.499930
 31
0.0
  0
LINE
  5
145
100
AcDbEntity
  8
Layer_1
 62
7
100
AcDbLine
 10
45.999922
 20
14.499930
 30
0.0
 11
45.499968
 21
14.499930
 31
0.0
  0
LINE
  5
146
100
AcDbEntity
  8
Layer_1
 62
7
100
AcDbLine
 10
45.499968
 20
14.499930
 30
0.0
 11
45.499796
 21
16.500067
 31
0.0
  0
LINE
  5
147
100
AcDbEntity
  8
Layer_1
 62
7
100
AcDbLine
 10
45.499796
 20
16.500067
 30
0.0
 11
43.499436
 21
16.500067
 31
0.0
  0
LINE
  5
148
100
AcDbEntity
  8
Layer_1
 62
7
100
AcDbLine
 10
43.499436
 20
16.500067
 30
0.0
 11
43.499608
 21
14.499930
 31
0.0
  0
LINE
  5
149
100
AcDbEntity
  8
Layer_1
 62
7
100
AcDbLine
 10
43.499608
 20
14.499930
 30
0.0
 11
42.999657
 21
14.499930
 31
0.0
  0
LINE
  5
14a
100
AcDbEntity
  8
Layer_1
 62
7
100
AcDbLine
 10
42.999657
 20
14.499930
 30
0.0
 11
42.999485
 21
16.500067
 31
0.0
  0
LINE
  5
14b
100
AcDbEntity
  8
Layer_1
 62
7
100
AcDbLine
 10
42.999485
 20
16.500067
 30
0.0
 11
40.999675
 21
16.500067
 31
0.0
  0
LINE
  5
14c
100
AcDbEntity
  8
Layer_1
 62
7
100
AcDbLine
 10
40.999675
 20
16.500067
 30
0.0
 11
40.999847
 21
14.499930
 31
0.0
  0
LINE
  5
14d
100
AcDbEntity
  8
Layer_1
 62
7
100
AcDbLine
 10
40.999847
 20
14.499930
 30
0.0
 11
40.499894
 21
14.499930
 31
0.0
  0
LINE
  5
14e
100
AcDbEntity
  8
Layer_1
 62
7
100
AcDbLine
 10
40.499894
 20
14.499930
 30
0.0
 11
40.499721
 21
16.500067
 31
0.0
  0
LINE
  5
14f
100
AcDbEntity
  8
Layer_1
 62
7
100
AcDbLine
 10
40.499721
 20
16.500067
 30
0.0
 11
38.499361
 21
16.500067
 31
0.0
  0
LINE
  5
150
100
AcDbEntity
  8
Layer_1
 62
7
100
AcDbLine
 10
38.499361
 20
16.500067
 30
0.0
 11
38.499534
 21
14.499930
 31
0.0
  0
LINE
  5
151
100
AcDbEntity
  8
Layer_1
 62
7
100
AcDbLine
 10
38.499534
 20
14.499930
 30
0.0
 11
37.999583
 21
14.499930
 31
0.0
  0
LINE
  5
152
100
AcDbEntity
  8
Layer_1
 62
7
100
AcDbLine
 10
37.999583
 20
14.499930
 30
0.0
 11
37.999410
 21
16.500067
 31
0.0
  0
LINE
  5
153
100
AcDbEntity
  8
Layer_1
 62
7
100
AcDbLine
 10
37.999410
 20
16.500067
 30
0.0
 11
35.999601
 21
16.500067
 31
0.0
  0
LINE
  5
154
100
AcDbEntity
  8
Layer_1
 62
7
100
AcDbLine
 10
35.999601
 20
16.500067
 30
0.0
 11
35.999773
 21
14.499930
 31
0.0
  0
LINE
  5
155
100
AcDbEntity
  8
Layer_1
 62
7
100
AcDbLine
 10
35.999773
 20
14.499930
 30
0.0
 11
35.499802
 21
14.499930
 31
0.0
  0
LINE
  5
156
100
AcDbEntity
  8
Layer_1
 62
7
100
AcDbLine
 10
35.499802
 20
14.499930
 30
0.0
 11
35.499630
 21
16.500067
 31
0.0
  0
LINE
  5
157
100
AcDbEntity
  8
Layer_1
 62
7
100
AcDbLine
 10
35.499630
 20
16.500067
 30
0.0
 11
33.499820
 21
16.500067
 31
0.0
  0
LINE
  5
158
100
AcDbEntity
  8
Layer_1
 62
7
100
AcDbLine
 10
33.499820
 20
16.500067
 30
0.0
 11
33.499992
 21
14.499930
 31
0.0
  0
LINE
  5
159
100
AcDbEntity
  8
Layer_1
 62
7
100
AcDbLine
 10
33.499992
 20
14.499930
 30
0.0
 11
33.000044
 21
14.499930
 31
0.0
  0
LINE
  5
15a
100
AcDbEntity
  8
Layer_1
 62
7
100
AcDbLine
 10
33.000044
 20
14.499930
 30
0.0
 11
32.999872
 21
16.500067
 31
0.0
  0
LINE
  5
15b
100
AcDbEntity
  8
Layer_1
 62
7
100
AcDbLine
 10
32.999872
 20
16.500067
 30
0.0
 11
30.999512
 21
16.500067
 31
0.0
  0
LINE
  5
15c
100
AcDbEntity
  8
Layer_1
 62
7
100
AcDbLine
 10
30.999512
 20
16.500067
 30
0.0
 11
30.999684
 21
14.499930
 31
0.0
  0
LINE
  5
15d
100
AcDbEntity
  8
Layer_1
 62
7
100
AcDbLine
 10
30.999684
 20
14.499930
 30
0.0
 11
30.499730
 21
14.499930
 31
0.0
  0
LINE
  5
15e
100
AcDbEntity
  8
Layer_1
 62
7
100
AcDbLine
 10
30.499730
 20
14.499930
 30
0.0
 11
30.499558
 21
16.500067
 31
0.0
  0
LINE
  5
15f
100
AcDbEntity
  8
Layer_1
 62
7
100
AcDbLine
 10
30.499558
 20
16.500067
 30
0.0
 11
28.499748
 21
16.500067
 31
0.0
  0
LINE
  5
160
100
AcDbEntity
  8
Layer_1
 62
7
100
AcDbLine
 10
28.499748
 20
16.500067
 30
0.0
 11
28.499920
 21
14.499930
 31
0.0
  0
LINE
  5
161
100
AcDbEntity
  8
Layer_1
 62
7
100
AcDbLine
 10
28.499920
 20
14.499930
 30
0.0
 11
27.999969
 21
14.499930
 31
0.0
  0
LINE
  5
162
100
AcDbEntity
  8
Layer_1
 62
7
100
AcDbLine
 10
27.999969
 20
14.499930
 30
0.0
 11
27.999797
 21
16.500067
 31
0.0
  0
LINE
  5
163
100
AcDbEntity
  8
Layer_1
 62
7
100
AcDbLine
 10
27.999797
 20
16.500067
 30
0.0
 11
25.999437
 21
16.500067
 31
0.0
  0
LINE
  5
164
100
AcDbEntity
  8
Layer_1
 62
7
100
AcDbLine
 10
25.999437
 20
16.500067
 30
0.0
 11
25.999609
 21
14.499930
 31
0.0
  0
LINE
  5
165
100
AcDbEntity
  8
Layer_1
 62
7
100
AcDbLine
 10
25.999609
 20
14.499930
 30
0.0
 11
25.499658
 21
14.499930
 31
0.0
  0
LINE
  5
166
100
AcDbEntity
  8
Layer_1
 62
7
100
AcDbLine
 10
25.499658
 20
14.499930
 30
0.0
 11
25.499486
 21
16.500067
 31
0.0
  0
LINE
  5
167
100
AcDbEntity
  8
Layer_1
 62
7
100
AcDbLine
 10
25.499486
 20
16.500067
 30
0.0
 11
23.499676
 21
16.500067
 31
0.0
  0
LINE
  5
168
100
AcDbEntity
  8
Layer_1
 62
7
100
AcDbLine
 10
23.499676
 20
16.500067
 30
0.0
 11
23.499849
 21
14.499930
 31
0.0
  0
LINE
  5
169
100
AcDbEntity
  8
Layer_1
 62
7
100
AcDbLine
 10
23.499849
 20
14.499930
 30
0.0
 11
22.999895
 21
14.499930
 31
0.0
  0
LINE
  5
16a
100
AcDbEntity
  8
Layer_1
 62
7
100
AcDbLine
 10
22.999895
 20
14.499930
 30
0.0
 11
22.999723
 21
16.500067
 31
0.0
  0
LINE
  5
16b
100
AcDbEntity
  8
Layer_1
 62
7
100
AcDbLine
 10
22.999723
 20
16.500067
 30
0.0
 11
20.999363
 21
16.500067
 31
0.0
  0
LINE
  5
16c
100
AcDbEntity
  8
Layer_1
 62
7
100
AcDbLine
 10
20.999363
 20
16.500067
 30
0.0
 11
20.999535
 21
14.499930
 31
0.0
  0
LINE
  5
16d
100
AcDbEntity
  8
Layer_1
 62
7
100
AcDbLine
 10
20.999535
 20
14.499930
 30
0.0
 11
20.499584
 21
14.499930
 31
0.0
  0
LINE
  5
16e
100
AcDbEntity
  8
Layer_1
 62
7
100
AcDbLine
 10
20.499584
 20
14.499930
 30
0.0
 11
20.499411
 21
16.500067
 31
0.0
  0
LINE
  5
16f
100
AcDbEntity
  8
Layer_1
 62
7
100
AcDbLine
 10
20.499411
 20
16.500067
 30
0.0
 11
18.499602
 21
16.500067
 31
0.0
  0
LINE
  5
170
100
AcDbEntity
  8
Layer_1
 62
7
100
AcDbLine
 10
18.499602
 20
16.500067
 30
0.0
 11
18.499774
 21
14.499930
 31
0.0
  0
LINE
  5
171
100
AcDbEntity
  8
Layer_1
 62
7
100
AcDbLine
 10
18.499774
 20
14.499930
 30
0.0
 11
18.000108
 21
14.500015
 31
0.0
  0
LINE
  5
172
100
AcDbEntity
  8
Layer_1
 62
7
100
AcDbLine
 10
18.000108
 20
14.500015
 30
0.0
 11
17.999936
 21
16.500180
 31
0.0
  0
LINE
  5
173
100
AcDbEntity
  8
Layer_1
 62
7
100
AcDbLine
 10
17.999936
 20
16.500180
 30
0.0
 11
16.000126
 21
16.500180
 31
0.0
  0
LINE
  5
174
100
AcDbEntity
  8
Layer_1
 62
7
100
AcDbLine
 10
16.000126
 20
16.500180
 30
0.0
 11
16.000298
 21
14.500015
 31
0.0
  0
LINE
  5
175
100
AcDbEntity
  8
Layer_1
 62
7
100
AcDbLine
 10
16.000298
 20
14.500015
 30
0.0
 11
15.500347
 21
14.500015
 31
0.0
  0
LINE
  5
176
100
AcDbEntity
  8
Layer_1
 62
7
100
AcDbLine
 10
15.500347
 20
14.500015
 30
0.0
 11
15.500175
 21
16.500180
 31
0.0
  0
LINE
  5
177
100
AcDbEntity
  8
Layer_1
 62
7
100
AcDbLine
 10
15.500175
 20
16.500180
 30
0.0
 11
13.499815
 21
16.500180
 31
0.0
  0
LINE
  5
178
100
AcDbEntity
  8
Layer_1
 62
7
100
AcDbLine
 10
13.499815
 20
16.500180
 30
0.0
 11
13.499987
 21
14.500015
 31
0.0
  0
LINE
  5
179
100
AcDbEntity
  8
Layer_1
 62
7
100
AcDbLine
 10
13.499987
 20
14.500015
 30
0.0
 11
13.000033
 21
14.500015
 31
0.0
  0
LINE
  5
17a
100
AcDbEntity
  8
Layer_1
 62
7
100
AcDbLine
 10
13.000033
 20
14.500015
 30
0.0
 11
12.999861
 21
16.500180
 31
0.0
  0
LINE
  5
17b
100
AcDbEntity
  8
Layer_1
 62
7
100
AcDbLine
 10
12.999861
 20
16.500180
 30
0.0
 11
11.000054
 21
16.500180
 31
0.0
  0
LINE
  5
17c
100
AcDbEntity
  8
Layer_1
 62
7
100
AcDbLine
 10
11.000054
 20
16.500180
 30
0.0
 11
11.000226
 21
14.500015
 31
0.0
  0
LINE
  5
17d
100
AcDbEntity
  8
Layer_1
 62
7
100
AcDbLine
 10
11.000226
 20
14.500015
 30
0.0
 11
10.500273
 21
14.500015
 31
0.0
  0
LINE
  5
17e
100
AcDbEntity
  8
Layer_1
 62
7
100
AcDbLine
 10
10.500273
 20
14.500015
 30
0.0
 11
10.500100
 21
16.500180
 31
0.0
  0
LINE
  5
17f
100
AcDbEntity
  8
Layer_1
 62
7
100
AcDbLine
 10
10.500100
 20
16.500180
 30
0.0
 11
8.499740
 21
16.500180
 31
0.0
  0
LINE
  5
180
100
AcDbEntity
  8
Layer_1
 62
7
100
AcDbLine
 10
8.499740
 20
16.500180
 30
0.0
 11
8.499912
 21
14.500015
 31
0.0
  0
LINE
  5
181
100
AcDbEntity
  8
Layer_1
 62
7
100
AcDbLine
 10
8.499912
 20
14.500015
 30
0.0
 11
7.999961
 21
14.500015
 31
0.0
  0
LINE
  5
182
100
AcDbEntity
  8
Layer_1
 62
7
100
AcDbLine
 10
7.999961
 20
14.500015
 30
0.0
 11
7.999789
 21
16.500180
 31
0.0
  0
LINE
  5
183
100
AcDbEntity
  8
Layer_1
 62
7
100
AcDbLine
 10
7.999789
 20
16.500180
 30
0.0
 11
5.999980
 21
16.500180
 31
0.0
  0
LINE
  5
184
100
AcDbEntity
  8
Layer_1
 62
7
100
AcDbLine
 10
5.999980
 20
16.500180
 30
0.0
 11
6.000152
 21
14.500015
 31
0.0
  0
LINE
  5
185
100
AcDbEntity
  8
Layer_1
 62
7
100
AcDbLine
 10
6.000152
 20
14.500015
 30
0.0
 11
5.500198
 21
14.500015
 31
0.0
  0
LINE
  5
186
100
AcDbEntity
  8
Layer_1
 62
7
100
AcDbLine
 10
5.500198
 20
14.500015
 30
0.0
 11
5.500026
 21
16.500180
 31
0.0
  0
LINE
  5
187
100
AcDbEntity
  8
Layer_1
 62
7
100
AcDbLine
 10
5.500026
 20
16.500180
 30
0.0
 11
3.499666
 21
16.500180
 31
0.0
  0
LINE
  5
188
100
AcDbEntity
  8
Layer_1
 62
7
100
AcDbLine
 10
3.499666
 20
16.500180
 30
0.0
 11
3.499838
 21
14.500015
 31
0.0
  0
LINE
  5
189
100
AcDbEntity
  8
Layer_1
 62
7
100
AcDbLine
 10
3.499838
 20
14.500015
 30
0.0
 11
2.999887
 21
14.500015
 31
0.0
  0
LINE
  5
18a
100
AcDbEntity
  8
Layer_1
 62
7
100
AcDbLine
 10
2.999887
 20
14.500015
 30
0.0
 11
2.999715
 21
16.500180
 31
0.0
  0
LINE
  5
18b
100
AcDbEntity
  8
Layer_1
 62
7
100
AcDbLine
 10
2.999715
 20
16.500180
 30
0.0
 11
0.999905
 21
16.500180
 31
0.0
  0
LINE
  5
18c
100
AcDbEntity
  8
Layer_1
 62
7
100
AcDbLine
 10
0.999905
 20
16.500180
 30
0.0
 11
0.999905
 21
10.000235
 31
0.0
  0
LINE
  5
18d
100
AcDbEntity
  8
Layer_1
 62
7
100
AcDbLine
 10
0.999905
 20
10.000235
 30
0.0
 11
0.000000
 21
10.000235
 31
0.0
  0
LINE
  5
18e
100
AcDbEntity
  8
Layer_1
 62
7
100
AcDbLine
 10
0.000000
 20
10.000235
 30
0.0
 11
0.000000
 21
6.500031
 31
0.0
  0
LINE
  5
18f
100
AcDbEntity
  8
Layer_1
 62
7
100
AcDbLine
 10
0.000000
 20
6.500031
 30
0.0
 11
0.999905
 21
6.500031
 31
0.0
  0
LINE
  5
190
100
AcDbEntity
  8
Layer_1
 62
7
100
AcDbLine
 10
0.999905
 20
6.500031
 30
0.0
 11
0.999905
 21
0.000086
 31
0.0
  0
LINE
  5
191
100
AcDbEntity
  8
Layer_1
 62
7
100
AcDbLine
 10
0.999905
 20
0.000086
 30
0.0
 11
2.999715
 21
0.000086
 31
0.0
  0
LINE
  5
192
100
AcDbEntity
  8
Layer_1
 62
7
100
AcDbLine
 10
2.999715
 20
0.000086
 30
0.0
 11
2.999150
 21
1.999941
 31
0.0
  0
LINE
  5
193
100
AcDbEntity
  8
Layer_1
 62
7
100
AcDbLine
 10
2.999150
 20
1.999941
 30
0.0
 11
3.499101
 21
1.999941
 31
0.0
  0
LINE
  5
194
100
AcDbEntity
  8
Layer_1
 62
7
100
AcDbLine
 10
3.499101
 20
1.999941
 30
0.0
 11
3.499666
 21
0.000086
 31
0.0
  0
LINE
  5
195
100
AcDbEntity
  8
Layer_1
 62
7
100
AcDbLine
 10
3.499666
 20
0.000086
 30
0.0
 11
5.500026
 21
0.000086
 31
0.0
  0
LINE
  5
196
100
AcDbEntity
  8
Layer_1
 62
7
100
AcDbLine
 10
5.500026
 20
0.000086
 30
0.0
 11
5.499461
 21
1.999941
 31
0.0
  0
LINE
  5
197
100
AcDbEntity
  8
Layer_1
 62
7
100
AcDbLine
 10
5.499461
 20
1.999941
 30
0.0
 11
5.999415
 21
1.999941
 31
0.0
  0
LINE
  5
198
100
AcDbEntity
  8
Layer_1
 62
7
100
AcDbLine
 10
5.999415
 20
1.999941
 30
0.0
 11
5.999980
 21
0.000086
 31
0.0
  0
LINE
  5
199
100
AcDbEntity
  8
Layer_1
 62
7
100
AcDbLine
 10
5.999980
 20
0.000086
 30
0.0
 11
7.999789
 21
0.000086
 31
0.0
  0
LINE
  5
19a
100
AcDbEntity
  8
Layer_1
 62
7
100
AcDbLine
 10
7.999789
 20
0.000086
 30
0.0
 11
7.999225
 21
1.999941
 31
0.0
  0
LINE
  5
19b
100
AcDbEntity
  8
Layer_1
 62
7
100
AcDbLine
 10
7.999225
 20
1.999941
 30
0.0
 11
8.499176
 21
1.999941
 31
0.0
  0
LINE
  5
19c
100
AcDbEntity
  8
Layer_1
 62
7
100
AcDbLine
 10
8.499176
 20
1.999941
 30
0.0
 11
8.499740
 21
0.000086
 31
0.0
  0
LINE
  5
19d
100
AcDbEntity
  8
Layer_1
 62
7
100
AcDbLine
 10
8.499740
 20
0.000086
 30
0.0
 11
10.500100
 21
0.000086
 31
0.0
  0
LINE
  5
19e
100
AcDbEntity
  8
Layer_1
 62
7
100
AcDbLine
 10
10.500100
 20
0.000086
 30
0.0
 11
10.499536
 21
1.999941
 31
0.0
  0
LINE
  5
19f
100
AcDbEntity
  8
Layer_1
 62
7
100
AcDbLine
 10
10.499536
 20
1.999941
 30
0.0
 11
10.999490
 21
1.999941
 31
0.0
  0
LINE
  5
1a0
100
AcDbEntity
  8
Layer_1
 62
7
100
AcDbLine
 10
10.999490
 20
1.999941
 30
0.0
 11
11.000054
 21
0.000086
 31
0.0
  0
LINE
  5
1a1
100
AcDbEntity
  8
Layer_1
 62
7
100
AcDbLine
 10
11.000054
 20
0.000086
 30
0.0
 11
12.999861
 21
0.000086
 31
0.0
  0
LINE
  5
1a2
100
AcDbEntity
  8
Layer_1
 62
7
100
AcDbLine
 10
12.999861
 20
0.000086
 30
0.0
 11
12.999297
 21
1.999941
 31
0.0
  0
LINE
  5
1a3
100
AcDbEntity
  8
Layer_1
 62
7
100
AcDbLine
 10
12.999297
 20
1.999941
 30
0.0
 11
13.499251
 21
1.999941
 31
0.0
  0
LINE
  5
1a4
100
AcDbEntity
  8
Layer_1
 62
7
100
AcDbLine
 10
13.499251
 20
1.999941
 30
0.0
 11
13.499815
 21
0.000086
 31
0.0
  0
LINE
  5
1a5
100
AcDbEntity
  8
Layer_1
 62
7
100
AcDbLine
 10
13.499815
 20
0.000086
 30
0.0
 11
15.500175
 21
0.000086
 31
0.0
  0
LINE
  5
1a6
100
AcDbEntity
  8
Layer_1
 62
7
100
AcDbLine
 10
15.500175
 20
0.000086
 30
0.0
 11
15.499611
 21
1.999941
 31
0.0
  0
LINE
  5
1a7
100
AcDbEntity
  8
Layer_1
 62
7
100
AcDbLine
 10
15.499611
 20
1.999941
 30
0.0
 11
15.999562
 21
1.999941
 31
0.0
  0
LINE
  5
1a8
100
AcDbEntity
  8
Layer_1
 62
7
100
AcDbLine
 10
15.999562
 20
1.999941
 30
0.0
 11
16.000126
 21
0.000086
 31
0.0
  0
LINE
  5
1a9
100
AcDbEntity
  8
Layer_1
 62
7
100
AcDbLine
 10
16.000126
 20
0.000086
 30
0.0
 11
17.999936
 21
0.000086
 31
0.0
  0
LINE
  5
1aa
100
AcDbEntity
  8
Layer_1
 62
7
100
AcDbLine
 10
17.999936
 20
0.000086
 30
0.0
 11
17.999371
 21
1.999941
 31
0.0
  0
LINE
  5
1ab
100
AcDbEntity
  8
Layer_1
 62
7
100
AcDbLine
 10
17.999371
 20
1.999941
 30
0.0
 11
18.499037
 21
1.999828
 31
0.0
  0
LINE
  5
1ac
100
AcDbEntity
  8
Layer_1
 62
7
100
AcDbLine
 10
18.499037
 20
1.999828
 30
0.0
 11
18.499602
 21
0.000001
 31
0.0
  0
LINE
  5
1ad
100
AcDbEntity
  8
Layer_1
 62
7
100
AcDbLine
 10
18.499602
 20
0.000001
 30
0.0
 11
20.499411
 21
0.000001
 31
0.0
  0
LINE
  5
1ae
100
AcDbEntity
  8
Layer_1
 62
7
100
AcDbLine
 10
20.499411
 20
0.000001
 30
0.0
 11
20.498847
 21
1.999828
 31
0.0
  0
LINE
  5
1af
100
AcDbEntity
  8
Layer_1
 62
7
100
AcDbLine
 10
20.498847
 20
1.999828
 30
0.0
 11
20.998798
 21
1.999828
 31
0.0
  0
LINE
  5
1b0
100
AcDbEntity
  8
Layer_1
 62
7
100
AcDbLine
 10
20.998798
 20
1.999828
 30
0.0
 11
20.999363
 21
0.000001
 31
0.0
  0
LINE
  5
1b1
100
AcDbEntity
  8
Layer_1
 62
7
100
AcDbLine
 10
20.999363
 20
0.000001
 30
0.0
 11
22.999723
 21
0.000001
 31
0.0
  0
LINE
  5
1b2
100
AcDbEntity
  8
Layer_1
 62
7
100
AcDbLine
 10
22.999723
 20
0.000001
 30
0.0
 11
22.999158
 21
1.999828
 31
0.0
  0
LINE
  5
1b3
100
AcDbEntity
  8
Layer_1
 62
7
100
AcDbLine
 10
22.999158
 20
1.999828
 30
0.0
 11
23.499112
 21
1.999828
 31
0.0
  0
LINE
  5
1b4
100
AcDbEntity
  8
Layer_1
 62
7
100
AcDbLine
 10
23.499112
 20
1.999828
 30
0.0
 11
23.499676
 21
0.000001
 31
0.0
  0
LINE
  5
1b5
100
AcDbEntity
  8
Layer_1
 62
7
100
AcDbLine
 10
23.499676
 20
0.000001
 30
0.0
 11
25.499486
 21
0.000001
 31
0.0
  0
LINE
  5
1b6
100
AcDbEntity
  8
Layer_1
 62
7
100
AcDbLine
 10
25.499486
 20
0.000001
 30
0.0
 11
25.498922
 21
1.999828
 31
0.0
  0
LINE
  5
1b7
100
AcDbEntity
  8
Layer_1
 62
7
100
AcDbLine
 10
25.498922
 20
1.999828
 30
0.0
 11
25.998873
 21
1.999828
 31
0.0
  0
LINE
  5
1b8
100
AcDbEntity
  8
Layer_1
 62
7
100
AcDbLine
 10
25.998873
 20
1.999828
 30
0.0
 11
25.999437
 21
0.000001
 31
0.0
  0
LINE
  5
1b9
100
AcDbEntity
  8
Layer_1
 62
7
100
AcDbLine
 10
25.999437
 20
0.000001
 30
0.0
 11
27.999797
 21
0.000001
 31
0.0
  0
LINE
  5
1ba
100
AcDbEntity
  8
Layer_1
 62
7
100
AcDbLine
 10
27.999797
 20
0.000001
 30
0.0
 11
27.999233
 21
1.999828
 31
0.0
  0
LINE
  5
1bb
100
AcDbEntity
  8
Layer_1
 62
7
100
AcDbLine
 10
27.999233
 20
1.999828
 30
0.0
 11
28.499184
 21
1.999828
 31
0.0
  0
LINE
  5
1bc
100
AcDbEntity
  8
Layer_1
 62
7
100
AcDbLine
 10
28.499184
 20
1.999828
 30
0.0
 11
28.499748
 21
0.000001
 31
0.0
  0
LINE
  5
1bd
100
AcDbEntity
  8
Layer_1
 62
7
100
AcDbLine
 10
28.499748
 20
0.000001
 30
0.0
 11
30.499558
 21
0.000001
 31
0.0
  0
LINE
  5
1be
100
AcDbEntity
  8
Layer_1
 62
7
100
AcDbLine
 10
30.499558
 20
0.000001
 30
0.0
 11
30.498994
 21
1.999828
 31
0.0
  0
LINE
  5
1bf
100
AcDbEntity
  8
Layer_1
 62
7
100
AcDbLine
 10
30.498994
 20
1.999828
 30
0.0
 11
30.998947
 21
1.999828
 31
0.0
  0
LINE
  5
1c0
100
AcDbEntity
  8
Layer_1
 62
7
100
AcDbLine
 10
30.998947
 20
1.999828
 30
0.0
 11
30.999512
 21
0.000001
 31
0.0
  0
LINE
  5
1c1
100
AcDbEntity
  8
Layer_1
 62
7
100
AcDbLine
 10
30.999512
 20
0.000001
 30
0.0
 11
32.999872
 21
0.000001
 31
0.0
  0
LINE
  5
1c2
100
AcDbEntity
  8
Layer_1
 62
7
100
AcDbLine
 10
32.999872
 20
0.000001
 30
0.0
 11
32.999307
 21
1.999828
 31
0.0
  0
LINE
  5
1c3
100
AcDbEntity
  8
Layer_1
 62
7
100
AcDbLine
 10
32.999307
 20
1.999828
 30
0.0
 11
33.499256
 21
1.999828
 31
0.0
  0
LINE
  5
1c4
100
AcDbEntity
  8
Layer_1
 62
7
100
AcDbLine
 10
33.499256
 20
1.999828
 30
0.0
 11
33.499820
 21
0.000001
 31
0.0
  0
LINE
  5
1c5
100
AcDbEntity
  8
Layer_1
 62
7
100
AcDbLine
 10
33.499820
 20
0.000001
 30
0.0
 11
35.499630
 21
0.000001
 31
0.0
  0
LINE
  5
1c6
100
AcDbEntity
  8
Layer_1
 62
7
100
AcDbLine
 10
35.499630
 20
0.000001
 30
0.0
 11
35.499065
 21
1.999828
 31
0.0
  0
LINE
  5
1c7
100
AcDbEntity
  8
Layer_1
 62
7
100
AcDbLine
 10
35.499065
 20
1.999828
 30
0.0
 11
35.999036
 21
1.999828
 31
0.0
  0
LINE
  5
1c8
100
AcDbEntity
  8
Layer_1
 62
7
100
AcDbLine
 10
35.999036
 20
1.999828
 30
0.0
 11
35.999601
 21
0.000001
 31
0.0
  0
LINE
  5
1c9
100
AcDbEntity
  8
Layer_1
 62
7
100
AcDbLine
 10
35.999601
 20
0.000001
 30
0.0
 11
37.999410
 21
0.000001
 31
0.0
  0
LINE
  5
1ca
100
AcDbEntity
  8
Layer_1
 62
7
100
AcDbLine
 10
37.999410
 20
0.000001
 30
0.0
 11
37.998846
 21
1.999828
 31
0.0
  0
LINE
  5
1cb
100
AcDbEntity
  8
Layer_1
 62
7
100
AcDbLine
 10
37.998846
 20
1.999828
 30
0.0
 11
38.498797
 21
1.999828
 31
0.0
  0
LINE
  5
1cc
100
AcDbEntity
  8
Layer_1
 62
7
100
AcDbLine
 10
38.498797
 20
1.999828
 30
0.0
 11
38.499361
 21
0.000001
 31
0.0
  0
LINE
  5
1cd
100
AcDbEntity
  8
Layer_1
 62
7
100
AcDbLine
 10
38.499361
 20
0.000001
 30
0.0
 11
40.499721
 21
0.000001
 31
0.0
  0
LINE
  5
1ce
100
AcDbEntity
  8
Layer_1
 62
7
100
AcDbLine
 10
40.499721
 20
0.000001
 30
0.0
 11
40.499157
 21
1.999828
 31
0.0
  0
LINE
  5
1cf
100
AcDbEntity
  8
Layer_1
 62
7
100
AcDbLine
 10
40.499157
 20
1.999828
 30
0.0
 11
40.999111
 21
1.999828
 31
0.0
  0
LINE
  5
1d0
100
AcDbEntity
  8
Layer_1
 62
7
100
AcDbLine
 10
40.999111
 20
1.999828
 30
0.0
 11
40.999675
 21
0.000001
 31
0.0
  0
LINE
  5
1d1
100
AcDbEntity
  8
Layer_1
 62
7
100
AcDbLine
 10
40.999675
 20
0.000001
 30
0.0
 11
42.999485
 21
0.000001
 31
0.0
  0
LINE
  5
1d2
100
AcDbEntity
  8
Layer_1
 62
7
100
AcDbLine
 10
42.999485
 20
0.000001
 30
0.0
 11
42.998921
 21
1.999828
 31
0.0
  0
LINE
  5
1d3
100
AcDbEntity
  8
Layer_1
 62
7
100
AcDbLine
 10
42.998921
 20
1.999828
 30
0.0
 11
43.498872
 21
1.999828
 31
0.0
  0
LINE
  5
1d4
100
AcDbEntity
  8
Layer_1
 62
7
100
AcDbLine
 10
43.498872
 20
1.999828
 30
0.0
 11
43.499436
 21
0.000001
 31
0.0
  0
LINE
  5
1d5
100
AcDbEntity
  8
Layer_1
 62
7
100
AcDbLine
 10
43.499436
 20
0.000001
 30
0.0
 11
45.499796
 21
0.000001
 31
0.0
  0
LINE
  5
1d6
100
AcDbEntity
  8
Layer_1
 62
7
100
AcDbLine
 10
45.499796
 20
0.000001
 30
0.0
 11
45.499232
 21
1.999828
 31
0.0
  0
LINE
  5
1d7
100
AcDbEntity
  8
Layer_1
 62
7
100
AcDbLine
 10
45.499232
 20
1.999828
 30
0.0
 11
45.999186
 21
1.999828
 31
0.0
  0
LINE
  5
1d8
100
AcDbEntity
  8
Layer_1
 62
7
100
AcDbLine
 10
45.999186
 20
1.999828
 30
0.0
 11
45.999750
 21
0.000001
 31
0.0
  0
LINE
  5
1d9
100
AcDbEntity
  8
Layer_1
 62
7
100
AcDbLine
 10
45.999750
 20
0.000001
 30
0.0
 11
47.999557
 21
0.000001
 31
0.0
  0
LINE
  5
1da
100
AcDbEntity
  8
Layer_1
 62
7
100
AcDbLine
 10
47.999557
 20
0.000001
 30
0.0
 11
47.998992
 21
1.999828
 31
0.0
  0
LINE
  5
1db
100
AcDbEntity
  8
Layer_1
 62
7
100
AcDbLine
 10
47.998992
 20
1.999828
 30
0.0
 11
48.498946
 21
1.999828
 31
0.0
  0
LINE
  5
1dc
100
AcDbEntity
  8
Layer_1
 62
7
100
AcDbLine
 10
48.498946
 20
1.999828
 30
0.0
 11
48.499511
 21
0.000001
 31
0.0
  0
LINE
  5
1dd
100
AcDbEntity
  8
Layer_1
 62
7
100
AcDbLine
 10
48.499511
 20
0.000001
 30
0.0
 11
50.499871
 21
0.000001
 31
0.0
  0
LINE
  5
1de
100
AcDbEntity
  8
Layer_1
 62
7
100
AcDbLine
 10
50.499871
 20
0.000001
 30
0.0
 11
50.499306
 21
1.999828
 31
0.0
  0
LINE
  5
1df
100
AcDbEntity
  8
Layer_1
 62
7
100
AcDbLine
 10
50.499306
 20
1.999828
 30
0.0
 11
50.999257
 21
1.999828
 31
0.0
  0
LINE
  5
1e0
100
AcDbEntity
  8
Layer_1
 62
7
100
AcDbLine
 10
50.999257
 20
1.999828
 30
0.0
 11
50.999822
 21
0.000001
 31
0.0
  0
LINE
  5
1e1
100
AcDbEntity
  8
Layer_1
 62
7
100
AcDbLine
 10
50.999822
 20
0.000001
 30
0.0
 11
52.999632
 21
0.000001
 31
0.0
  0
LINE
  5
1e2
100
AcDbEntity
  8
Layer_1
 62
7
100
AcDbLine
 10
52.999632
 20
0.000001
 30
0.0
 11
52.999067
 21
1.999828
 31
0.0
  0
LINE
  5
1e3
100
AcDbEntity
  8
Layer_1
 62
7
100
AcDbLine
 10
52.999067
 20
1.999828
 30
0.0
 11
53.499035
 21
1.999828
 31
0.0
  0
ENDSEC
  0
SECTION
  2
OBJECTS
  0
DICTIONARY
  5
C
330
0
100
AcDbDictionary
  3
ACAD_GROUP
350
D
  3
ACAD_MLINESTYLE
350
17
  0
DICTIONARY
  5
D
330
C
100
AcDbDictionary
  0
DICTIONARY
  5
1A
330
C
100
AcDbDictionary
  0
DICTIONARY
  5
17
330
C
100
AcDbDictionary
  3
STANDARD
350
18
  0
DICTIONARY
  5
19
330
C
100
AcDbDictionary
  0
ENDSEC
  0
EOF
