  0
SECTION
  2
HEADER
  9
$ACADVER
  1
AC1014
  9
$HANDSEED
  5
FFFF
  9
$MEASUREMENT
 70
     1
  0
ENDSEC
  0
SECTION
  2
TABLES
  0
TABLE
  2
VPORT
  5
8
330
0
100
AcDbSymbolTable
 70
     4
  0
VPORT
  5
2E
330
8
100
AcDbSymbolTableRecord
100
AcDbViewportTableRecord
  2
*ACTIVE
 70
     0
 10
0.0
 20
0.0
 11
1.0
 21
1.0
 12
210.0
 22
148.5
 13
0.0
 23
0.0
 14
10.0
 24
10.0
 15
10.0
 25
10.0
 16
0.0
 26
0.0
 36
1.0
 17
0.0
 27
0.0
 37
0.0
 40
341.0
 41
1.24
 42
50.0
 43
0.0
 44
0.0
 50
0.0
 51
0.0
 71
     0
 72
   100
 73
     1
 74
     3
 75
     0
 76
     0
 77
     0
 78
     0
  0
ENDTAB
  0
TABLE
  2
LTYPE
  5
5
330
0
100
AcDbSymbolTable
 70
     1
  0
LTYPE
  5
14
330
5
100
AcDbSymbolTableRecord
100
AcDbLinetypeTableRecord
  2
BYBLOCK
 70
     0
  3

 72
    65
 73
     0
 40
0.0
  0
LTYPE
  5
15
330
5
100
AcDbSymbolTableRecord
100
AcDbLinetypeTableRecord
  2
BYLAYER
 70
     0
  3

 72
    65
 73
     0
 40
0.0
  0
LTYPE
  5
16
330
5
100
AcDbSymbolTableRecord
100
AcDbLinetypeTableRecord
  2
CONTINUOUS
 70
     0
  3
Solid line
 72
    65
 73
     0
 40
0.0
  0
ENDTAB
  0
TABLE
  2
LAYER
  5
2
100
AcDbSymbolTable
 70
2
  0
LAYER
  5
50
100
AcDbSymbolTableRecord
100
AcDbLayerTableRecord
  2
0
 70
0
  6
CONTINUOUS
  0
LAYER
  5
51
100
AcDbSymbolTableRecord
100
AcDbLayerTableRecord
  2
Layer_1
 70
0
  6
CONTINUOUS
  0
ENDTAB
  0
TABLE
  2
STYLE
  5
3
330
0
100
AcDbSymbolTable
 70
     1
  0
STYLE
  5
11
330
3
100
AcDbSymbolTableRecord
100
AcDbTextStyleTableRecord
  2
STANDARD
 70
     0
 40
0.0
 41
1.0
 50
0.0
 71
     0
 42
2.5
  3
txt
  4

  0
ENDTAB
  0
TABLE
  2
VIEW
  5
6
330
0
100
AcDbSymbolTable
 70
     0
  0
ENDTAB
  0
TABLE
  2
UCS
  5
7
330
0
100
AcDbSymbolTable
 70
     0
  0
ENDTAB
  0
TABLE
  2
APPID
  5
9
330
0
100
AcDbSymbolTable
 70
     2
  0
APPID
  5
12
330
9
100
AcDbSymbolTableRecord
100
AcDbRegAppTableRecord
  2
ACAD
 70
     0
  0
ENDTAB
  0
TABLE
  2
DIMSTYLE
  5
A
330
0
100
AcDbSymbolTable
 70
     1
  0
DIMSTYLE
105
27
330
A
100
AcDbSymbolTableRecord
100
AcDbDimStyleTableRecord
  2
ISO-25
 70
     0
  3

  4

  5

  6

  7

 40
1.0
 41
2.5
 42
0.625
 43
3.75
 44
1.25
 45
0.0
 46
0.0
 47
0.0
 48
0.0
140
2.5
141
2.5
142
0.0
143
0.03937007874016
144
1.0
145
0.0
146
1.0
147
0.625
 71
     0
 72
     0
 73
     0
 74
     0
 75
     0
 76
     0
 77
     1
 78
     8
170
     0
171
     3
172
     1
173
     0
174
     0
175
     0
176
     0
177
     0
178
     0
270
     2
271
     2
272
     2
273
     2
274
     3
340
11
275
     0
280
     0
281
     0
282
     0
283
     0
284
     8
285
     0
286
     0
287
     3
288
     0
  0
ENDTAB
  0
TABLE
  2
BLOCK_RECORD
  5
1
330
0
100
AcDbSymbolTable
 70
     1
  0
BLOCK_RECORD
  5
1F
330
1
100
AcDbSymbolTableRecord
100
AcDbBlockTableRecord
  2
*MODEL_SPACE
  0
BLOCK_RECORD
  5
1B
330
1
100
AcDbSymbolTableRecord
100
AcDbBlockTableRecord
  2
*PAPER_SPACE
  0
ENDTAB
  0
ENDSEC
  0
SECTION
  2
BLOCKS
  0
BLOCK
  5
20
330
1F
100
AcDbEntity
  8
0
100
AcDbBlockBegin
  2
*MODEL_SPACE
 70
     0
 10
0.0
 20
0.0
 30
0.0
  3
*MODEL_SPACE
  1

  0
ENDBLK
  5
21
330
1F
100
AcDbEntity
  8
0
100
AcDbBlockEnd
  0
BLOCK
  5
1C
330
1B
100
AcDbEntity
 67
     1
  8
0
100
AcDbBlockBegin
  2
*PAPER_SPACE
  1

  0
ENDBLK
  5
1D
330
1B
100
AcDbEntity
 67
     1
  8
0
100
AcDbBlockEnd
  0
ENDSEC
  0
SECTION
  2
ENTITIES
  0
SPLINE
  5
100
100
AcDbEntity
  8
Layer_1
 62
7
100
AcDbSpline
 70
8
 71
3
 72
8
 73
4
 74
0
 40
0
 40
0
 40
0
 40
0
 40
1
 40
1
 40
1
 40
1
 10
23.610033
 20
8.840217
 30
0.0
 10
23.420549
 20
10.098956
 30
0.0
 10
22.804348
 20
11.407423
 30
0.0
 10
21.592011
 20
12.673754
 30
0.0
  0
SPLINE
  5
101
100
AcDbEntity
  8
Layer_1
 62
7
100
AcDbSpline
 70
8
 71
3
 72
8
 73
4
 74
0
 40
0
 40
0
 40
0
 40
0
 40
1
 40
1
 40
1
 40
1
 10
21.592011
 20
12.673754
 30
0.0
 10
21.465549
 20
13.162394
 30
0.0
 10
19.410520
 20
15.215137
 30
0.0
 10
16.385458
 20
16.303566
 30
0.0
  0
SPLINE
  5
102
100
AcDbEntity
  8
Layer_1
 62
7
100
AcDbSpline
 70
8
 71
3
 72
8
 73
4
 74
0
 40
0
 40
0
 40
0
 40
0
 40
1
 40
1
 40
1
 40
1
 10
16.385458
 20
16.303566
 30
0.0
 10
13.360396
 20
17.391993
 30
0.0
 10
9.365302
 20
17.516103
 30
0.0
 10
5.358711
 20
14.147462
 30
0.0
  0
SPLINE
  5
103
100
AcDbEntity
  8
Layer_1
 62
7
100
AcDbSpline
 70
8
 71
3
 72
8
 73
4
 74
0
 40
0
 40
0
 40
0
 40
0
 40
1
 40
1
 40
1
 40
1
 10
5.358711
 20
14.147462
 30
0.0
 10
5.139108
 20
14.338668
 30
0.0
 10
4.861761
 20
14.556458
 30
0.0
 10
4.593518
 20
14.709649
 30
0.0
  0
SPLINE
  5
104
100
AcDbEntity
  8
Layer_1
 62
7
100
AcDbSpline
 70
8
 71
3
 72
8
 73
4
 74
0
 40
0
 40
0
 40
0
 40
0
 40
1
 40
1
 40
1
 40
1
 10
4.593518
 20
14.709649
 30
0.0
 10
4.325277
 20
14.862828
 30
0.0
 10
4.066140
 20
14.951431
 30
0.0
 10
3.882955
 20
14.884308
 30
0.0
  0
LINE
  5
105
100
AcDbEntity
  8
Layer_1
 62
7
100
AcDbLine
 10
3.882955
 20
14.884308
 30
0.0
 11
3.514017
 21
15.989583
 31
0.0
  0
LINE
  5
106
100
AcDbEntity
  8
Layer_1
 62
7
100
AcDbLine
 10
3.514017
 20
15.989583
 30
0.0
 11
3.145077
 21
17.094855
 31
0.0
  0
LINE
  5
107
100
AcDbEntity
  8
Layer_1
 62
7
100
AcDbLine
 10
3.145077
 20
17.094855
 30
0.0
 11
1.669324
 21
16.726431
 31
0.0
  0
LINE
  5
108
100
AcDbEntity
  8
Layer_1
 62
7
100
AcDbLine
 10
1.669324
 20
16.726431
 30
0.0
 11
0.193570
 21
16.358007
 31
0.0
  0
LINE
  5
109
100
AcDbEntity
  8
Layer_1
 62
7
100
AcDbLine
 10
0.193570
 20
16.358007
 30
0.0
 11
0.562508
 21
15.621156
 31
0.0
  0
LINE
  5
10a
100
AcDbEntity
  8
Layer_1
 62
7
100
AcDbLine
 10
0.562508
 20
15.621156
 30
0.0
 11
0.931446
 21
14.884308
 31
0.0
  0
LINE
  5
10b
100
AcDbEntity
  8
Layer_1
 62
7
100
AcDbLine
 10
0.931446
 20
14.884308
 30
0.0
 11
1.669324
 21
15.252732
 31
0.0
  0
LINE
  5
10c
100
AcDbEntity
  8
Layer_1
 62
7
100
AcDbLine
 10
1.669324
 20
15.252732
 30
0.0
 11
2.407202
 21
15.621156
 31
0.0
  0
LINE
  5
10d
100
AcDbEntity
  8
Layer_1
 62
7
100
AcDbLine
 10
2.407202
 20
15.621156
 30
0.0
 11
2.776139
 21
14.884308
 31
0.0
  0
LINE
  5
10e
100
AcDbEntity
  8
Layer_1
 62
7
100
AcDbLine
 10
2.776139
 20
14.884308
 30
0.0
 11
3.145077
 21
14.147462
 31
0.0
  0
SPLINE
  5
10f
100
AcDbEntity
  8
Layer_1
 62
7
100
AcDbSpline
 70
8
 71
3
 72
8
 73
4
 74
0
 40
0
 40
0
 40
0
 40
0
 40
1
 40
1
 40
1
 40
1
 10
3.145077
 20
14.147462
 30
0.0
 10
2.478036
 20
13.423590
 30
0.0
 10
2.082528
 20
11.930804
 30
0.0
 10
1.867063
 20
10.352222
 30
0.0
  0
SPLINE
  5
110
100
AcDbEntity
  8
Layer_1
 62
7
100
AcDbSpline
 70
8
 71
3
 72
8
 73
4
 74
0
 40
0
 40
0
 40
0
 40
0
 40
1
 40
1
 40
1
 40
1
 10
1.867063
 20
10.352222
 30
0.0
 10
1.651600
 20
8.773584
 30
0.0
 10
1.616184
 20
7.109207
 30
0.0
 10
1.669324
 20
6.042124
 30
0.0
  0
SPLINE
  5
111
100
AcDbEntity
  8
Layer_1
 62
7
100
AcDbSpline
 70
8
 71
3
 72
8
 73
4
 74
0
 40
0
 40
0
 40
0
 40
0
 40
1
 40
1
 40
1
 40
1
 10
1.669324
 20
6.042124
 30
0.0
 10
2.502166
 20
5.661181
 30
0.0
 10
2.962138
 20
5.345572
 30
0.0
 10
3.445088
 20
5.098768
 30
0.0
  0
SPLINE
  5
112
100
AcDbEntity
  8
Layer_1
 62
7
100
AcDbSpline
 70
8
 71
3
 72
8
 73
4
 74
0
 40
0
 40
0
 40
0
 40
0
 40
1
 40
1
 40
1
 40
1
 10
3.445088
 20
5.098768
 30
0.0
 10
3.928038
 20
4.851993
 30
0.0
 10
4.433966
 20
4.674024
 30
0.0
 10
5.358711
 20
4.568445
 30
0.0
  0
LINE
  5
113
100
AcDbEntity
  8
Layer_1
 62
7
100
AcDbLine
 10
5.358711
 20
4.568445
 30
0.0
 11
5.358711
 21
3.094737
 31
0.0
  0
LINE
  5
114
100
AcDbEntity
  8
Layer_1
 62
7
100
AcDbLine
 10
5.358711
 20
3.094737
 30
0.0
 11
5.358711
 21
1.621000
 31
0.0
  0
LINE
  5
115
100
AcDbEntity
  8
Layer_1
 62
7
100
AcDbLine
 10
5.358711
 20
1.621000
 30
0.0
 11
6.096589
 21
1.621000
 31
0.0
  0
LINE
  5
116
100
AcDbEntity
  8
Layer_1
 62
7
100
AcDbLine
 10
6.096589
 20
1.621000
 30
0.0
 11
6.834465
 21
1.621000
 31
0.0
  0
LINE
  5
117
100
AcDbEntity
  8
Layer_1
 62
7
100
AcDbLine
 10
6.834465
 20
1.621000
 30
0.0
 11
6.834465
 21
3.094737
 31
0.0
  0
LINE
  5
118
100
AcDbEntity
  8
Layer_1
 62
7
100
AcDbLine
 10
6.834465
 20
3.094737
 30
0.0
 11
6.834465
 21
4.568445
 31
0.0
  0
SPLINE
  5
119
100
AcDbEntity
  8
Layer_1
 62
7
100
AcDbSpline
 70
8
 71
3
 72
8
 73
4
 74
0
 40
0
 40
0
 40
0
 40
0
 40
1
 40
1
 40
1
 40
1
 10
6.834465
 20
4.568445
 30
0.0
 10
7.410257
 20
4.502659
 30
0.0
 10
8.017091
 20
4.452818
 30
0.0
 10
8.637733
 20
4.444323
 30
0.0
  0
SPLINE
  5
11a
100
AcDbEntity
  8
Layer_1
 62
7
100
AcDbSpline
 70
8
 71
3
 72
8
 73
4
 74
0
 40
0
 40
0
 40
0
 40
0
 40
1
 40
1
 40
1
 40
1
 10
8.637733
 20
4.444323
 30
0.0
 10
9.258376
 20
4.435857
 30
0.0
 10
9.892827
 20
4.468877
 30
0.0
 10
10.523850
 20
4.568445
 30
0.0
  0
SPLINE
  5
11b
100
AcDbEntity
  8
Layer_1
 62
7
100
AcDbSpline
 70
8
 71
3
 72
8
 73
4
 74
0
 40
0
 40
0
 40
0
 40
0
 40
1
 40
1
 40
1
 40
1
 10
10.523850
 20
4.568445
 30
0.0
 10
11.915363
 20
6.574508
 30
0.0
 10
11.744039
 20
8.339837
 30
0.0
 10
10.757092
 20
9.826245
 30
0.0
  0
SPLINE
  5
11c
100
AcDbEntity
  8
Layer_1
 62
7
100
AcDbSpline
 70
8
 71
3
 72
8
 73
4
 74
0
 40
0
 40
0
 40
0
 40
0
 40
1
 40
1
 40
1
 40
1
 10
10.757092
 20
9.826245
 30
0.0
 10
9.770144
 20
11.312681
 30
0.0
 10
7.967572
 20
12.520140
 30
0.0
 10
6.096587
 20
13.410608
 30
0.0
  0
SPLINE
  5
11d
100
AcDbEntity
  8
Layer_1
 62
7
100
AcDbSpline
 70
8
 71
3
 72
8
 73
4
 74
0
 40
0
 40
0
 40
0
 40
0
 40
1
 40
1
 40
1
 40
1
 10
6.096587
 20
13.410608
 30
0.0
 10
6.503998
 20
13.377052
 30
0.0
 10
6.801491
 20
13.351821
 30
0.0
 10
7.125090
 20
13.255470
 30
0.0
  0
SPLINE
  5
11e
100
AcDbEntity
  8
Layer_1
 62
7
100
AcDbSpline
 70
8
 71
3
 72
8
 73
4
 74
0
 40
0
 40
0
 40
0
 40
0
 40
1
 40
1
 40
1
 40
1
 10
7.125090
 20
13.255470
 30
0.0
 10
7.448689
 20
13.159148
 30
0.0
 10
7.798391
 20
12.991706
 30
0.0
 10
8.310219
 20
12.673754
 30
0.0
  0
LINE
  5
11f
100
AcDbEntity
  8
Layer_1
 62
7
100
AcDbLine
 10
8.310219
 20
12.673754
 30
0.0
 11
9.417035
 21
13.410608
 31
0.0
  0
LINE
  5
120
100
AcDbEntity
  8
Layer_1
 62
7
100
AcDbLine
 10
9.417035
 20
13.410608
 30
0.0
 11
10.523850
 21
14.147462
 31
0.0
  0
LINE
  5
121
100
AcDbEntity
  8
Layer_1
 62
7
100
AcDbLine
 10
10.523850
 20
14.147462
 30
0.0
 11
11.999606
 21
14.147462
 31
0.0
  0
LINE
  5
122
100
AcDbEntity
  8
Layer_1
 62
7
100
AcDbLine
 10
11.999606
 20
14.147462
 30
0.0
 11
13.475360
 21
14.147462
 31
0.0
  0
LINE
  5
123
100
AcDbEntity
  8
Layer_1
 62
7
100
AcDbLine
 10
13.475360
 20
14.147462
 30
0.0
 11
13.106422
 21
13.410608
 31
0.0
  0
LINE
  5
124
100
AcDbEntity
  8
Layer_1
 62
7
100
AcDbLine
 10
13.106422
 20
13.410608
 30
0.0
 11
12.737484
 21
12.673754
 31
0.0
  0
LINE
  5
125
100
AcDbEntity
  8
Layer_1
 62
7
100
AcDbLine
 10
12.737484
 20
12.673754
 30
0.0
 11
11.999606
 21
13.042167
 31
0.0
  0
LINE
  5
126
100
AcDbEntity
  8
Layer_1
 62
7
100
AcDbLine
 10
11.999606
 20
13.042167
 30
0.0
 11
11.261728
 21
13.410608
 31
0.0
  0
LINE
  5
127
100
AcDbEntity
  8
Layer_1
 62
7
100
AcDbLine
 10
11.261728
 20
13.410608
 30
0.0
 11
10.523852
 21
12.673754
 31
0.0
  0
LINE
  5
128
100
AcDbEntity
  8
Layer_1
 62
7
100
AcDbLine
 10
10.523852
 20
12.673754
 30
0.0
 11
9.785975
 21
11.936928
 31
0.0
  0
SPLINE
  5
129
100
AcDbEntity
  8
Layer_1
 62
7
100
AcDbSpline
 70
8
 71
3
 72
8
 73
4
 74
0
 40
0
 40
0
 40
0
 40
0
 40
1
 40
1
 40
1
 40
1
 10
9.785975
 20
11.936928
 30
0.0
 10
11.100036
 20
10.931963
 30
0.0
 10
11.935515
 20
9.831099
 30
0.0
 10
12.209205
 20
8.610855
 30
0.0
  0
SPLINE
  5
12a
100
AcDbEntity
  8
Layer_1
 62
7
100
AcDbSpline
 70
8
 71
3
 72
8
 73
4
 74
0
 40
0
 40
0
 40
0
 40
0
 40
1
 40
1
 40
1
 40
1
 10
12.209205
 20
8.610855
 30
0.0
 10
12.482898
 20
7.390610
 30
0.0
 10
12.194815
 20
6.050986
 30
0.0
 10
11.261728
 20
4.568445
 30
0.0
  0
LINE
  5
12b
100
AcDbEntity
  8
Layer_1
 62
7
100
AcDbLine
 10
11.261728
 20
4.568445
 30
0.0
 11
11.261728
 21
2.726324
 31
0.0
  0
LINE
  5
12c
100
AcDbEntity
  8
Layer_1
 62
7
100
AcDbLine
 10
11.261728
 20
2.726324
 30
0.0
 11
11.261728
 21
0.884175
 31
0.0
  0
LINE
  5
12d
100
AcDbEntity
  8
Layer_1
 62
7
100
AcDbLine
 10
11.261728
 20
0.884175
 30
0.0
 11
11.999606
 21
0.884175
 31
0.0
  0
LINE
  5
12e
100
AcDbEntity
  8
Layer_1
 62
7
100
AcDbLine
 10
11.999606
 20
0.884175
 30
0.0
 11
12.737484
 21
0.884175
 31
0.0
  0
LINE
  5
12f
100
AcDbEntity
  8
Layer_1
 62
7
100
AcDbLine
 10
12.737484
 20
0.884175
 30
0.0
 11
12.737484
 21
2.726324
 31
0.0
  0
LINE
  5
130
100
AcDbEntity
  8
Layer_1
 62
7
100
AcDbLine
 10
12.737484
 20
2.726324
 30
0.0
 11
12.737482
 21
4.568445
 31
0.0
  0
SPLINE
  5
131
100
AcDbEntity
  8
Layer_1
 62
7
100
AcDbSpline
 70
8
 71
3
 72
8
 73
4
 74
0
 40
0
 40
0
 40
0
 40
0
 40
1
 40
1
 40
1
 40
1
 10
12.737482
 20
4.568445
 30
0.0
 10
13.157519
 20
4.483298
 30
0.0
 10
13.719080
 20
4.325451
 30
0.0
 10
14.263790
 20
4.175704
 30
0.0
  0
SPLINE
  5
132
100
AcDbEntity
  8
Layer_1
 62
7
100
AcDbSpline
 70
8
 71
3
 72
8
 73
4
 74
0
 40
0
 40
0
 40
0
 40
0
 40
1
 40
1
 40
1
 40
1
 10
14.263790
 20
4.175704
 30
0.0
 10
14.808499
 20
4.025985
 30
0.0
 10
15.336357
 20
3.884338
 30
0.0
 10
15.688992
 20
3.831562
 30
0.0
  0
LINE
  5
133
100
AcDbEntity
  8
Layer_1
 62
7
100
AcDbLine
 10
15.688992
 20
3.831562
 30
0.0
 11
15.688992
 21
1.989442
 31
0.0
  0
LINE
  5
134
100
AcDbEntity
  8
Layer_1
 62
7
100
AcDbLine
 10
15.688992
 20
1.989442
 30
0.0
 11
15.688992
 21
0.147321
 31
0.0
  0
LINE
  5
135
100
AcDbEntity
  8
Layer_1
 62
7
100
AcDbLine
 10
15.688992
 20
0.147321
 30
0.0
 11
16.426870
 21
0.147321
 31
0.0
  0
LINE
  5
136
100
AcDbEntity
  8
Layer_1
 62
7
100
AcDbLine
 10
16.426870
 20
0.147321
 30
0.0
 11
17.164748
 21
0.147321
 31
0.0
  0
LINE
  5
137
100
AcDbEntity
  8
Layer_1
 62
7
100
AcDbLine
 10
17.164748
 20
0.147321
 30
0.0
 11
17.164748
 21
1.989442
 31
0.0
  0
LINE
  5
138
100
AcDbEntity
  8
Layer_1
 62
7
100
AcDbLine
 10
17.164748
 20
1.989442
 30
0.0
 11
17.164748
 21
3.831591
 31
0.0
  0
SPLINE
  5
139
100
AcDbEntity
  8
Layer_1
 62
7
100
AcDbSpline
 70
8
 71
3
 72
8
 73
4
 74
0
 40
0
 40
0
 40
0
 40
0
 40
1
 40
1
 40
1
 40
1
 10
17.164748
 20
3.831591
 30
0.0
 10
17.703118
 20
3.796031
 30
0.0
 10
18.191697
 20
3.731994
 30
0.0
 10
18.671280
 20
3.704506
 30
0.0
  0
SPLINE
  5
13a
100
AcDbEntity
  8
Layer_1
 62
7
100
AcDbSpline
 70
8
 71
3
 72
8
 73
4
 74
0
 40
0
 40
0
 40
0
 40
0
 40
1
 40
1
 40
1
 40
1
 10
18.671280
 20
3.704506
 30
0.0
 10
19.150863
 20
3.677130
 30
0.0
 10
19.621450
 20
3.686162
 30
0.0
 10
20.123840
 20
3.796595
 30
0.0
  0
LINE
  5
13b
100
AcDbEntity
  8
Layer_1
 62
7
100
AcDbLine
 10
20.123840
 20
3.796595
 30
0.0
 11
20.857925
 21
2.340413
 31
0.0
  0
LINE
  5
13c
100
AcDbEntity
  8
Layer_1
 62
7
100
AcDbLine
 10
20.857925
 20
2.340413
 30
0.0
 11
21.592011
 21
0.884175
 31
0.0
  0
LINE
  5
13d
100
AcDbEntity
  8
Layer_1
 62
7
100
AcDbLine
 10
21.592011
 20
0.884175
 30
0.0
 11
22.329888
 21
1.252588
 31
0.0
  0
LINE
  5
13e
100
AcDbEntity
  8
Layer_1
 62
7
100
AcDbLine
 10
22.329888
 20
1.252588
 30
0.0
 11
23.067766
 21
1.621000
 31
0.0
  0
LINE
  5
13f
100
AcDbEntity
  8
Layer_1
 62
7
100
AcDbLine
 10
23.067766
 20
1.621000
 30
0.0
 11
22.329888
 21
3.094737
 31
0.0
  0
LINE
  5
140
100
AcDbEntity
  8
Layer_1
 62
7
100
AcDbLine
 10
22.329888
 20
3.094737
 30
0.0
 11
21.592011
 21
4.568445
 31
0.0
  0
SPLINE
  5
141
100
AcDbEntity
  8
Layer_1
 62
7
100
AcDbSpline
 70
8
 71
3
 72
8
 73
4
 74
0
 40
0
 40
0
 40
0
 40
0
 40
1
 40
1
 40
1
 40
1
 10
21.592011
 20
4.568445
 30
0.0
 10
21.888058
 20
4.700892
 30
0.0
 10
22.168080
 20
4.780535
 30
0.0
 10
22.418547
 20
4.879341
 30
0.0
  0
SPLINE
  5
142
100
AcDbEntity
  8
Layer_1
 62
7
100
AcDbSpline
 70
8
 71
3
 72
8
 73
4
 74
0
 40
0
 40
0
 40
0
 40
0
 40
1
 40
1
 40
1
 40
1
 10
22.418547
 20
4.879341
 30
0.0
 10
22.669014
 20
4.978175
 30
0.0
 10
22.889929
 20
5.096144
 30
0.0
 10
23.067766
 20
5.305299
 30
0.0
  0
SPLINE
  5
143
100
AcDbEntity
  8
Layer_1
 62
7
100
AcDbSpline
 70
8
 71
3
 72
8
 73
4
 74
0
 40
0
 40
0
 40
0
 40
0
 40
1
 40
1
 40
1
 40
1
 10
23.067766
 20
5.305299
 30
0.0
 10
23.562289
 20
6.372550
 30
0.0
 10
23.799520
 20
7.581506
 30
0.0
 10
23.610033
 20
8.840217
 30
0.0
  0
LINE
  5
144
100
AcDbEntity
  8
Layer_1
 62
7
100
AcDbLine
 10
23.610033
 20
8.840217
 30
0.0
 11
23.610033
 21
8.840217
 31
0.0
  0
SPLINE
  5
145
100
AcDbEntity
  8
Layer_1
 62
7
100
AcDbSpline
 70
8
 71
3
 72
8
 73
4
 74
0
 40
0
 40
0
 40
0
 40
0
 40
1
 40
1
 40
1
 40
1
 10
4.639788
 20
10.613955
 30
0.0
 10
4.639788
 20
10.009463
 30
0.0
 10
4.559205
 20
9.321603
 30
0.0
 10
4.428923
 20
8.698174
 30
0.0
  0
SPLINE
  5
146
100
AcDbEntity
  8
Layer_1
 62
7
100
AcDbSpline
 70
8
 71
3
 72
8
 73
4
 74
0
 40
0
 40
0
 40
0
 40
0
 40
1
 40
1
 40
1
 40
1
 10
4.428923
 20
8.698174
 30
0.0
 10
4.298638
 20
8.074745
 30
0.0
 10
4.118652
 20
7.515720
 30
0.0
 10
3.919846
 20
7.168868
 30
0.0
  0
SPLINE
  5
147
100
AcDbEntity
  8
Layer_1
 62
7
100
AcDbSpline
 70
8
 71
3
 72
8
 73
4
 74
0
 40
0
 40
0
 40
0
 40
0
 40
1
 40
1
 40
1
 40
1
 10
3.919846
 20
7.168868
 30
0.0
 10
3.721040
 20
6.822046
 30
0.0
 10
3.541056
 20
6.753070
 30
0.0
 10
3.410772
 20
6.921924
 30
0.0
  0
SPLINE
  5
148
100
AcDbEntity
  8
Layer_1
 62
7
100
AcDbSpline
 70
8
 71
3
 72
8
 73
4
 74
0
 40
0
 40
0
 40
0
 40
0
 40
1
 40
1
 40
1
 40
1
 10
3.410772
 20
6.921924
 30
0.0
 10
3.280489
 20
7.090749
 30
0.0
 10
3.199906
 20
7.497432
 30
0.0
 10
3.199906
 20
8.101923
 30
0.0
  0
SPLINE
  5
149
100
AcDbEntity
  8
Layer_1
 62
7
100
AcDbSpline
 70
8
 71
3
 72
8
 73
4
 74
0
 40
0
 40
0
 40
0
 40
0
 40
1
 40
1
 40
1
 40
1
 10
3.199906
 20
8.101923
 30
0.0
 10
3.199906
 20
8.706415
 30
0.0
 10
3.280489
 20
9.394275
 30
0.0
 10
3.410772
 20
10.017704
 30
0.0
  0
SPLINE
  5
14a
100
AcDbEntity
  8
Layer_1
 62
7
100
AcDbSpline
 70
8
 71
3
 72
8
 73
4
 74
0
 40
0
 40
0
 40
0
 40
0
 40
1
 40
1
 40
1
 40
1
 10
3.410772
 20
10.017704
 30
0.0
 10
3.541056
 20
10.641133
 30
0.0
 10
3.721040
 20
11.200159
 30
0.0
 10
3.919846
 20
11.546982
 30
0.0
  0
SPLINE
  5
14b
100
AcDbEntity
  8
Layer_1
 62
7
100
AcDbSpline
 70
8
 71
3
 72
8
 73
4
 74
0
 40
0
 40
0
 40
0
 40
0
 40
1
 40
1
 40
1
 40
1
 10
3.919846
 20
11.546982
 30
0.0
 10
4.118652
 20
11.893861
 30
0.0
 10
4.298638
 20
11.962808
 30
0.0
 10
4.428921
 20
11.793954
 30
0.0
  0
SPLINE
  5
14c
100
AcDbEntity
  8
Layer_1
 62
7
100
AcDbSpline
 70
8
 71
3
 72
8
 73
4
 74
0
 40
0
 40
0
 40
0
 40
0
 40
1
 40
1
 40
1
 40
1
 10
4.428921
 20
11.793954
 30
0.0
 10
4.559205
 20
11.625101
 30
0.0
 10
4.639788
 20
11.218419
 30
0.0
 10
4.639788
 20
10.613955
 30
0.0
  0
LINE
  5
14d
100
AcDbEntity
  8
Layer_1
 62
7
100
AcDbLine
 10
4.639788
 20
10.613955
 30
0.0
 11
4.639788
 21
10.613955
 31
0.0
  0
SPLINE
  5
14e
100
AcDbEntity
  8
Layer_1
 62
7
100
AcDbSpline
 70
8
 71
3
 72
8
 73
4
 74
0
 40
0
 40
0
 40
0
 40
0
 40
1
 40
1
 40
1
 40
1
 10
7.502210
 20
9.725717
 30
0.0
 10
7.502210
 20
9.103840
 30
0.0
 10
7.419212
 20
8.417166
 30
0.0
 10
7.285021
 20
7.809739
 30
0.0
  0
SPLINE
  5
14f
100
AcDbEntity
  8
Layer_1
 62
7
100
AcDbSpline
 70
8
 71
3
 72
8
 73
4
 74
0
 40
0
 40
0
 40
0
 40
0
 40
1
 40
1
 40
1
 40
1
 10
7.285021
 20
7.809739
 30
0.0
 10
7.150829
 20
7.202284
 30
0.0
 10
6.965447
 20
6.674048
 30
0.0
 10
6.760677
 20
6.369051
 30
0.0
  0
SPLINE
  5
150
100
AcDbEntity
  8
Layer_1
 62
7
100
AcDbSpline
 70
8
 71
3
 72
8
 73
4
 74
0
 40
0
 40
0
 40
0
 40
0
 40
1
 40
1
 40
1
 40
1
 10
6.760677
 20
6.369051
 30
0.0
 10
6.555910
 20
6.063997
 30
0.0
 10
6.370525
 20
6.039923
 30
0.0
 10
6.236334
 20
6.247554
 30
0.0
  0
SPLINE
  5
151
100
AcDbEntity
  8
Layer_1
 62
7
100
AcDbSpline
 70
8
 71
3
 72
8
 73
4
 74
0
 40
0
 40
0
 40
0
 40
0
 40
1
 40
1
 40
1
 40
1
 10
6.236334
 20
6.247554
 30
0.0
 10
6.102143
 20
6.455213
 30
0.0
 10
6.019145
 20
6.894605
 30
0.0
 10
6.019145
 20
7.516482
 30
0.0
  0
SPLINE
  5
152
100
AcDbEntity
  8
Layer_1
 62
7
100
AcDbSpline
 70
8
 71
3
 72
8
 73
4
 74
0
 40
0
 40
0
 40
0
 40
0
 40
1
 40
1
 40
1
 40
1
 10
6.019145
 20
7.516482
 30
0.0
 10
6.019145
 20
8.138330
 30
0.0
 10
6.102143
 20
8.825033
 30
0.0
 10
6.236334
 20
9.432460
 30
0.0
  0
SPLINE
  5
153
100
AcDbEntity
  8
Layer_1
 62
7
100
AcDbSpline
 70
8
 71
3
 72
8
 73
4
 74
0
 40
0
 40
0
 40
0
 40
0
 40
1
 40
1
 40
1
 40
1
 10
6.236334
 20
9.432460
 30
0.0
 10
6.370525
 20
10.039887
 30
0.0
 10
6.555908
 20
10.568122
 30
0.0
 10
6.760677
 20
10.873176
 30
0.0
  0
SPLINE
  5
154
100
AcDbEntity
  8
Layer_1
 62
7
100
AcDbSpline
 70
8
 71
3
 72
8
 73
4
 74
0
 40
0
 40
0
 40
0
 40
0
 40
1
 40
1
 40
1
 40
1
 10
6.760677
 20
10.873176
 30
0.0
 10
6.965447
 20
11.178174
 30
0.0
 10
7.150829
 20
11.202247
 30
0.0
 10
7.285021
 20
10.994616
 30
0.0
  0
SPLINE
  5
155
100
AcDbEntity
  8
Layer_1
 62
7
100
AcDbSpline
 70
8
 71
3
 72
8
 73
4
 74
0
 40
0
 40
0
 40
0
 40
0
 40
1
 40
1
 40
1
 40
1
 10
7.285021
 20
10.994616
 30
0.0
 10
7.419212
 20
10.786957
 30
0.0
 10
7.502210
 20
10.347594
 30
0.0
 10
7.502210
 20
9.725717
 30
0.0
  0
LINE
  5
156
100
AcDbEntity
  8
Layer_1
 62
7
100
AcDbLine
 10
7.502210
 20
9.725717
 30
0.0
 11
7.502210
 21
9.725717
 31
0.0
  0
ENDSEC
  0
SECTION
  2
OBJECTS
  0
DICTIONARY
  5
C
330
0
100
AcDbDictionary
  3
ACAD_GROUP
350
D
  3
ACAD_MLINESTYLE
350
17
  0
DICTIONARY
  5
D
330
C
100
AcDbDictionary
  0
DICTIONARY
  5
1A
330
C
100
AcDbDictionary
  0
DICTIONARY
  5
17
330
C
100
AcDbDictionary
  3
STANDARD
350
18
  0
DICTIONARY
  5
19
330
C
100
AcDbDictionary
  0
ENDSEC
  0
EOF
