<?xml version="1.0" encoding="UTF-8" standalone="no"?>
<!-- Created with Inkscape (http://www.inkscape.org/) -->

<svg
   xmlns:dc="http://purl.org/dc/elements/1.1/"
   xmlns:cc="http://creativecommons.org/ns#"
   xmlns:rdf="http://www.w3.org/1999/02/22-rdf-syntax-ns#"
   xmlns:svg="http://www.w3.org/2000/svg"
   xmlns="http://www.w3.org/2000/svg"
   xmlns:sodipodi="http://sodipodi.sourceforge.net/DTD/sodipodi-0.dtd"
   xmlns:inkscape="http://www.inkscape.org/namespaces/inkscape"
   width="210mm"
   height="297mm"
   viewBox="0 0 744.09448819 1052.3622047"
   id="svg4144"
   version="1.1"
   inkscape:version="0.91 r13725"
   sodipodi:docname="motor2.svg">
  <defs
     id="defs4146" />
  <sodipodi:namedview
     id="base"
     pagecolor="#ffffff"
     bordercolor="#666666"
     borderopacity="1.0"
     inkscape:pageopacity="0.0"
     inkscape:pageshadow="2"
     inkscape:zoom="0.28"
     inkscape:cx="-73.175671"
     inkscape:cy="301.03285"
     inkscape:document-units="mm"
     inkscape:current-layer="layer1"
     showgrid="false"
     inkscape:window-width="1366"
     inkscape:window-height="705"
     inkscape:window-x="-8"
     inkscape:window-y="-8"
     inkscape:window-maximized="1"
     showguides="true"
     inkscape:guide-bbox="true"
     inkscape:snap-object-midpoints="false"
     inkscape:snap-global="true"
     inkscape:snap-bbox="false"
     inkscape:snap-nodes="false"
     inkscape:snap-center="true">
    <sodipodi:guide
       position="271.42857,97.142859"
       orientation="0,1"
       id="guide4694" />
    <sodipodi:guide
       position="97.142858,112.14286"
       orientation="1,0"
       id="guide4696" />
    <sodipodi:guide
       position="152.67857,400.00001"
       orientation="0,1"
       id="guide5187" />
    <sodipodi:guide
       position="239.91123,400.00001"
       orientation="1,0"
       id="guide5210" />
  </sodipodi:namedview>
  <metadata
     id="metadata4149">
    <rdf:RDF>
      <cc:Work
         rdf:about="">
        <dc:format>image/svg+xml</dc:format>
        <dc:type
           rdf:resource="http://purl.org/dc/dcmitype/StillImage" />
        <dc:title></dc:title>
      </cc:Work>
    </rdf:RDF>
  </metadata>
  <g
     inkscape:label="Layer 1"
     inkscape:groupmode="layer"
     id="layer1">
    <path
       inkscape:connector-curvature="0"
       style="fill:#ff6600;fill-opacity:1;stroke:none;stroke-width:1.77165353;stroke-linejoin:round;stroke-miterlimit:4;stroke-dasharray:none;stroke-dashoffset:8;stroke-opacity:1"
       d="m 54.28515,945.1274 a 54.285713,54.285713 0 0 0 -40.02734,17.7012 l 8.7832,4.7129 a 44.642857,44.642857 0 0 1 24.85352,-12.2617 l -0.71875,40.4316 -34.2168,20.4746 A 44.642857,44.642857 0 0 1 9.64257,999.4126 44.642857,44.642857 0 0 1 11.00781,988.6821 L 2.48437,983.3735 A 54.285713,54.285713 0 0 0 0,999.4126 a 54.285713,54.285713 0 0 0 7.04687,26.6172 54.285713,54.285713 0 0 0 2.82813,4.4902 54.285713,54.285713 0 0 0 0.86718,1.2129 l 0.041,-0.023 a 54.285713,54.285713 0 0 0 31.83203,20.6523 l -0.31054,-9.9922 a 44.642857,44.642857 0 0 1 -23.01954,-15.3691 l 35.34961,-19.5801 34.81836,19.3828 a 44.642857,44.642857 0 0 1 -22.82422,15.4902 l -0.33399,10.0117 a 54.285713,54.285713 0 0 0 31.67188,-20.7636 54.285713,54.285713 0 0 0 2.93751,-4.416 54.285713,54.285713 0 0 0 0.55078,-1.0137 54.285713,54.285713 0 0 0 1.93555,-3.6504 54.285713,54.285713 0 0 0 0.6875,-1.4805 l -0.0527,-0.031 a 54.285713,54.285713 0 0 0 4.54492,-21.5371 54.285713,54.285713 0 0 0 -2.55273,-16.3945 l -8.52931,5.2871 a 44.642857,44.642857 0 0 1 1.43946,11.1074 44.642857,44.642857 0 0 1 -3.22266,16.5332 l -34.66016,-20.8379 -0.625,-39.8515 a 44.642857,44.642857 0 0 1 24.80078,12.039 l 8.84766,-4.7187 A 54.285713,54.285713 0 0 0 60.26755,945.4991 l 0,-0.014 a 54.285713,54.285713 0 0 0 -1.41797,-0.092 54.285713,54.285713 0 0 0 -3.95507,-0.2578 54.285713,54.285713 0 0 0 -0.60938,-0.01 z m 0,50.211 a 4.0748034,4.0748034 0 0 1 4.07422,4.0742 4.0748034,4.0748034 0 0 1 -4.07422,4.0761 4.0748034,4.0748034 0 0 1 -4.07422,-4.0761 4.0748034,4.0748034 0 0 1 4.07422,-4.0742 z"
       id="path4692-8-0" />
  </g>
</svg>
