<?xml version="1.0" encoding="UTF-8" standalone="no"?>
<!-- Created with Inkscape (http://www.inkscape.org/) -->

<svg
   xmlns:dc="http://purl.org/dc/elements/1.1/"
   xmlns:cc="http://creativecommons.org/ns#"
   xmlns:rdf="http://www.w3.org/1999/02/22-rdf-syntax-ns#"
   xmlns:svg="http://www.w3.org/2000/svg"
   xmlns="http://www.w3.org/2000/svg"
   xmlns:sodipodi="http://sodipodi.sourceforge.net/DTD/sodipodi-0.dtd"
   xmlns:inkscape="http://www.inkscape.org/namespaces/inkscape"
   width="297mm"
   height="210mm"
   viewBox="0 0 1052.3622 744.09448"
   id="svg4418"
   version="1.1"
   inkscape:version="0.91 r13725"
   sodipodi:docname="табличка.svg">
  <defs
     id="defs4420" />
  <sodipodi:namedview
     id="base"
     pagecolor="#ffffff"
     bordercolor="#666666"
     borderopacity="1.0"
     inkscape:pageopacity="0.0"
     inkscape:pageshadow="2"
     inkscape:zoom="1.5839192"
     inkscape:cx="78.03932"
     inkscape:cy="135.55975"
     inkscape:document-units="mm"
     inkscape:current-layer="layer1"
     showgrid="true"
     inkscape:window-width="1366"
     inkscape:window-height="705"
     inkscape:window-x="-8"
     inkscape:window-y="-8"
     inkscape:window-maximized="1"
     showguides="true"
     inkscape:guide-bbox="true"
     inkscape:snap-bbox="true"
     inkscape:object-nodes="true"
     inkscape:bbox-nodes="true"
     inkscape:bbox-paths="true"
     inkscape:snap-bbox-edge-midpoints="false"
     inkscape:snap-global="true">
    <sodipodi:guide
       position="1162.2047,166.53543"
       orientation="1,0"
       id="guide5000" />
    <sodipodi:guide
       position="31.889764,81.496063"
       orientation="0,1"
       id="guide4784" />
    <inkscape:grid
       type="xygrid"
       id="grid4786"
       units="mm"
       spacingx="3.5433071"
       spacingy="3.5433071" />
    <sodipodi:guide
       position="134.64567,113.38583"
       orientation="0,1"
       id="guide4788" />
    <sodipodi:guide
       position="109.84252,191.33858"
       orientation="0,1"
       id="guide4790" />
    <sodipodi:guide
       position="-35.433071,99.212599"
       orientation="1,0"
       id="guide4792" />
    <sodipodi:guide
       position="10.629921,0"
       orientation="0,1"
       id="guide4794" />
    <sodipodi:guide
       position="0,170.07874"
       orientation="0,1"
       id="guide4796" />
    <sodipodi:guide
       position="-14.173228,162.99213"
       orientation="1,0"
       id="guide4798" />
    <sodipodi:guide
       position="14.173228,127.55906"
       orientation="0,1"
       id="guide4800" />
  </sodipodi:namedview>
  <metadata
     id="metadata4423">
    <rdf:RDF>
      <cc:Work
         rdf:about="">
        <dc:format>image/svg+xml</dc:format>
        <dc:type
           rdf:resource="http://purl.org/dc/dcmitype/StillImage" />
        <dc:title />
      </cc:Work>
    </rdf:RDF>
  </metadata>
  <g
     inkscape:label="Layer 1"
     inkscape:groupmode="layer"
     id="layer1"
     transform="translate(0,-308.26772)">
    <path
       style="fill:#ff7f2a;fill-opacity:1;stroke:none;stroke-width:1.77165353;stroke-linejoin:round;stroke-miterlimit:4;stroke-dasharray:none;stroke-dashoffset:8;stroke-opacity:1"
       d="m 32.303909,861.02362 1157.833091,0 c 17.8964,0 32.3039,14.40754 32.3039,32.30391 l 0,126.73077 c 0,17.8964 -14.4075,32.3039 -32.3039,32.3039 l -1157.833091,0 C 14.407544,1052.3622 0,1037.9547 0,1020.0583 L 0,893.32753 c 0,-17.89637 14.407544,-32.30391 32.303909,-32.30391 z"
       id="rect4986" />
    <g
       style="font-style:normal;font-weight:normal;font-size:62.35258484px;line-height:125%;font-family:Sans;text-align:center;letter-spacing:0px;word-spacing:0px;text-anchor:middle;fill:#000000;fill-opacity:1;stroke:none;stroke-width:1px;stroke-linecap:butt;stroke-linejoin:miter;stroke-opacity:1"
       id="text4966"
       transform="translate(35.433071,0)">
      <path
         d="m 101.92687,938.61786 -15.962262,0 q -2.556456,0 -2.556456,-1.87058 0,-1.24705 1.683519,-2.11999 1.68352,-0.87293 1.68352,-2.93057 l 0,-31.17629 q 0,-1.93293 -1.68352,-2.80587 -1.683519,-0.93529 -1.683519,-2.18234 0,-1.80822 2.556456,-1.80822 l 16.648142,0 q 2.4941,0 2.4941,1.80822 0,1.30941 -1.68352,2.2447 -1.68352,0.87293 -1.68352,2.86821 l 0,31.67512 q 0,1.68352 1.1847,2.80586 1.1847,1.06 1.1847,1.87058 0,1.62117 -2.18234,1.62117 z m 11.9717,-30.73983 11.0364,24.37987 q 0.37412,0.87293 2.05764,2.24469 1.43411,1.1847 1.43411,2.11999 0,1.99528 -2.74352,1.99528 l -16.14932,0 q -2.93057,0 -2.93057,-2.18234 0,-0.99764 1.1847,-1.68352 1.1847,-0.68588 1.1847,-1.24705 0,-2.3694 -2.61881,-8.4176 -2.61881,-6.0482 -2.61881,-8.23054 0,-1.74588 4.98821,-8.10584 4.98821,-6.35996 4.98821,-8.47995 0,-1.55882 -2.18234,-2.55646 -2.11999,-0.99764 -2.11999,-1.99528 0,-1.99528 3.05528,-1.99528 l 10.84935,0 q 2.68116,0 2.68116,2.05763 0,1.37176 -1.06,1.80823 -5.61173,2.43175 -11.0364,10.28817 z"
         style="font-style:normal;font-variant:normal;font-weight:bold;font-stretch:normal;font-family:a_Stamper;-inkscape-font-specification:'a_Stamper Bold'"
         id="path4894"
         inkscape:connector-curvature="0" />
      <path
         d="m 153.59962,893.724 0,3.92821 q -0.99764,0 -2.4941,-0.0623 -1.49646,0 -1.99528,0 -2.74351,0 -3.61645,1.05999 -1.06,1.24705 -1.06,5.29997 l 0,25.12809 q 0,4.80115 -1.62116,7.17055 -1.87058,2.80587 -6.48467,2.80587 -3.42939,0 -5.67409,-1.68352 -2.4941,-1.87058 -2.4941,-5.23762 0,-2.43175 1.43411,-4.11527 1.43411,-1.68352 3.80351,-1.68352 1.93293,0 3.42939,1.1847 1.49646,1.12235 1.49646,3.05528 0,0.81058 -0.56117,2.11998 -0.56117,1.30941 -0.56117,1.87058 0,0.56117 0.99764,0.56117 1.99528,0 2.4941,-2.43175 0.18706,-0.93529 0.18706,-4.05291 l 0,-23.31987 q 0,-4.7388 -0.93529,-6.35997 -0.68588,-1.18469 -3.24234,-1.37175 -2.18234,-0.12471 -2.18234,-1.80823 0,-2.05763 2.68117,-2.05763 l 16.39872,0 z m 1.87058,0 15.77521,0 q 2.55645,0 2.55645,1.80822 0,1.30941 -1.68352,2.18234 -1.68352,0.81059 -1.68352,2.55646 l 0,31.92452 q 0,1.74588 1.80823,2.55646 1.80822,0.74823 1.80822,1.99528 0,1.87058 -2.80586,1.87058 l -16.58579,0 q -2.61881,0 -2.61881,-1.87058 0,-1.1847 1.68352,-2.05763 1.74587,-0.93529 1.74587,-2.99293 l 0,-37.97272 z"
         style="font-style:normal;font-variant:normal;font-weight:bold;font-stretch:normal;font-family:a_Stamper;-inkscape-font-specification:'a_Stamper Bold'"
         id="path4896"
         inkscape:connector-curvature="0" />
      <path
         d="m 206.38353,913.48977 -2.11999,-3.67881 q 1.05999,-2.18234 2.11999,-4.30232 1.43411,-3.17999 1.43411,-4.80115 0,-1.74588 -2.05764,-2.74352 -1.99528,-1.05999 -1.99528,-2.24469 0,-1.99528 3.11763,-1.99528 l 8.23054,0 q 2.43175,0 2.43175,1.87058 0,0.68587 -1.74587,2.30704 -1.24705,1.05999 -2.43175,2.11999 -1.68352,1.68352 -4.05292,6.79643 -1.43411,3.36704 -2.93057,6.67173 z M 195.09771,893.724 q 3.61645,0 3.61645,2.18234 0,0.99764 -1.05999,1.74587 -1.06,0.68588 -1.06,1.37176 0,0.81058 0.56117,1.80822 l 8.23055,14.65286 -7.54467,15.96226 -18.08225,-32.42334 q -0.43646,-0.74823 -2.18234,-1.55882 -1.49646,-0.62352 -1.49646,-1.74587 0,-1.99528 3.6788,-1.99528 l 15.33874,0 z m -0.37412,35.97744 2.11999,3.6788 q -3.36704,6.0482 -8.97877,6.0482 -3.42939,0 -5.67409,-1.93293 -2.18234,-1.99528 -2.18234,-5.42467 0,-2.18234 1.68352,-3.67881 1.74588,-1.55881 3.92822,-1.55881 1.93293,0 3.17998,1.12235 1.3094,1.05999 1.3094,2.99292 0,0.68588 -0.37411,1.62117 -0.37412,0.87293 -0.37412,1.37176 0,0.99764 0.93529,0.99764 1.05999,0 2.61881,-2.30705 0.93529,-1.49646 1.80822,-2.93057 z"
         style="font-style:normal;font-variant:normal;font-weight:bold;font-stretch:normal;font-family:a_Stamper;-inkscape-font-specification:'a_Stamper Bold'"
         id="path4898"
         inkscape:connector-curvature="0" />
      <path
         d="m 238.25788,893.724 0,44.89386 -15.77521,0 q -2.55645,0 -2.55645,-1.87058 0,-1.24705 1.68352,-2.11999 1.68352,-0.87293 1.68352,-2.93057 l 0,-31.05159 q 0,-2.11998 -1.68352,-2.99292 -1.68352,-0.87294 -1.68352,-2.11999 0,-1.80822 2.55645,-1.80822 l 15.77521,0 z m 1.93293,44.89386 0,-3.86586 q 3.99056,0 3.99056,-5.54938 l 0,-8.79172 q 0,-5.67408 -3.99056,-5.67408 l 0,-3.80351 1.3094,0 q 17.20932,0 17.20932,13.84228 0,7.91877 -5.61174,11.22346 -4.42703,2.61881 -12.90698,2.61881 z m 0,-41.09035 0,-3.80351 15.33873,0 0,9.53994 q 0,1.99529 -0.24941,2.80587 -0.43646,1.49646 -1.93293,1.49646 -1.55881,0 -2.68116,-3.17998 -1.43411,-4.17762 -1.80822,-4.61409 -1.80823,-2.24469 -8.66701,-2.24469 z"
         style="font-style:normal;font-variant:normal;font-weight:bold;font-stretch:normal;font-family:a_Stamper;-inkscape-font-specification:'a_Stamper Bold'"
         id="path4900"
         inkscape:connector-curvature="0" />
      <path
         d="m 346.18046,893.724 q 2.55646,0 2.55646,1.87058 0,1.24705 -1.68352,2.18234 -1.68352,0.87293 -1.68352,2.74351 l 0,31.301 q 0,1.93293 1.68352,2.86822 1.68352,0.87293 1.68352,2.11998 0,1.80823 -2.55646,1.80823 l -16.08696,0 q -2.05764,0 -2.05764,-1.55882 0,-1.12234 1.1847,-2.18234 1.1847,-1.05999 1.1847,-2.4941 l 0,-32.36099 q 0,-1.68352 -1.1847,-2.74351 -1.1847,-1.12235 -1.1847,-1.93293 0,-1.62117 2.05764,-1.62117 l 16.08696,0 z m -17.70813,13.59286 0,8.97877 -6.67173,12.22111 0,3.86586 q 0,0.74823 1.1847,2.61881 1.1847,1.87058 1.1847,2.55645 0,1.06 -2.05763,1.06 l -16.08697,0 q -2.55646,0 -2.55646,-1.80823 0,-1.24705 1.68352,-2.18234 1.68352,-0.93529 1.68352,-2.80586 l 0,-31.79982 q 0,-1.49646 -1.68352,-2.30705 -1.68352,-0.87293 -1.68352,-2.11998 0,-1.87058 2.55646,-1.87058 l 16.08697,0 q 1.99528,0 1.99528,1.62117 0,0.99764 -1.1847,2.11998 -1.12235,1.06 -1.12235,2.49411 l 0,19.3293 0.12471,0 6.54702,-11.9717 z"
         style="font-style:normal;font-variant:normal;font-weight:bold;font-stretch:normal;font-family:a_Stamper;-inkscape-font-specification:'a_Stamper Bold'"
         id="path4902"
         inkscape:connector-curvature="0" />
      <path
         d="m 367.74569,939.42844 0,-3.92821 q 2.30705,0 3.11763,-1.87058 0.49882,-1.1847 0.49882,-3.92821 l 0,-8.35525 q 0,-3.17998 -2.55645,-3.99056 -0.43647,-0.12471 -4.80115,-0.37412 -2.55646,-0.18706 -2.55646,-1.80822 0,-1.68352 2.55646,-1.93293 4.42703,-0.43647 4.80115,-0.56118 2.55645,-0.87293 2.55645,-4.05291 l 0,-6.23526 q 0,-2.80587 -0.43646,-3.86586 -0.81059,-1.68352 -3.17999,-1.68352 l 0,-3.92822 q 17.64579,0 17.64579,12.22111 0,8.60466 -10.22583,9.91406 l 0,0.24941 q 5.05056,0.87294 7.98113,3.49175 3.36704,3.05527 3.36704,7.85642 0,6.85879 -6.29761,10.16347 -4.92585,2.61881 -12.47052,2.61881 z m -1.87057,-46.51503 0,3.92822 q -4.17763,0 -4.17763,1.93293 l 0.31177,0.56117 q 1.55881,1.37176 1.55881,3.92821 0,4.98821 -5.23762,4.98821 -2.68116,0 -4.30232,-1.68352 -1.55882,-1.68352 -1.55882,-4.36468 0,-4.61409 4.61409,-7.17055 3.80351,-2.11999 8.79172,-2.11999 z m 0,42.58682 0,3.92821 q -5.61174,0 -9.72701,-2.30704 -4.9882,-2.86822 -4.9882,-8.04349 0,-2.74351 1.74587,-4.48938 1.80822,-1.74588 4.55174,-1.74588 5.73644,0 5.73644,5.29997 0,1.99529 -1.30941,3.30469 -1.3094,1.30941 -1.3094,1.80823 0,2.24469 5.29997,2.24469 z"
         style="font-style:normal;font-variant:normal;font-weight:bold;font-stretch:normal;font-family:a_Stamper;-inkscape-font-specification:'a_Stamper Bold'"
         id="path4904"
         inkscape:connector-curvature="0" />
      <path
         d="m 410.48741,935.62493 0,3.80351 q -9.47759,-0.74823 -14.4658,-7.3576 -4.61409,-6.11056 -4.61409,-15.89991 0,-9.78936 4.61409,-15.89991 4.98821,-6.60937 14.4658,-7.35761 l 0,3.80351 q -3.11763,-0.0623 -3.11763,5.9235 l 0,27.06102 q 0,5.98585 3.11763,5.92349 z m 1.87058,3.80351 0,-3.80351 q 3.05528,0.0624 3.05528,-5.92349 l 0,-27.06102 q 0,-5.98585 -3.05528,-5.9235 l 0,-3.80351 q 9.47759,0.74824 14.4658,7.35761 4.61409,6.11055 4.61409,15.89991 0,9.78935 -4.61409,15.89991 -4.98821,6.60937 -14.4658,7.3576 z"
         style="font-style:normal;font-variant:normal;font-weight:bold;font-stretch:normal;font-family:a_Stamper;-inkscape-font-specification:'a_Stamper Bold'"
         id="path4906"
         inkscape:connector-curvature="0" />
      <path
         d="m 453.81272,893.724 0,44.89386 -15.77521,0 q -2.55645,0 -2.55645,-1.87058 0,-1.24705 1.68352,-2.11999 1.68352,-0.87293 1.68352,-2.93057 l 0,-31.05159 q 0,-2.11998 -1.68352,-2.99292 -1.68352,-0.87294 -1.68352,-2.11999 0,-1.80822 2.55645,-1.80822 l 15.77521,0 z m 1.93293,44.89386 0,-3.86586 q 3.99056,0 3.99056,-5.54938 l 0,-8.79172 q 0,-5.67408 -3.99056,-5.67408 l 0,-3.80351 1.3094,0 q 17.20932,0 17.20932,13.84228 0,7.91877 -5.61174,11.22346 -4.42703,2.61881 -12.90698,2.61881 z m 0,-41.09035 0,-3.80351 15.33873,0 0,9.53994 q 0,1.99529 -0.24941,2.80587 -0.43646,1.49646 -1.93293,1.49646 -1.55881,0 -2.68116,-3.17998 -1.43411,-4.17762 -1.80822,-4.61409 -1.80823,-2.24469 -8.66701,-2.24469 z"
         style="font-style:normal;font-variant:normal;font-weight:bold;font-stretch:normal;font-family:a_Stamper;-inkscape-font-specification:'a_Stamper Bold'"
         id="path4908"
         inkscape:connector-curvature="0" />
      <path
         d="m 496.55832,893.724 0,37.97272 q 0,1.74587 1.99529,2.93057 2.05763,1.1847 2.05763,2.18234 0,1.80823 -3.05528,1.80823 l -16.77284,0 q -2.55646,0 -2.55646,-1.87058 0,-1.24705 1.68352,-2.11999 1.68352,-0.87293 1.68352,-2.93057 l 0,-31.05159 q 0,-2.11998 -1.68352,-2.99292 -1.68352,-0.87294 -1.68352,-2.11999 0,-1.80822 2.55646,-1.80822 l 15.7752,0 z m 1.93293,27.68455 0,-3.86586 q 3.99057,0 3.99057,-5.54938 l 0,-8.79172 q 0,-5.67408 -3.99057,-5.67408 l 0,-3.80351 1.30941,0 q 17.20931,0 17.20931,13.84227 0,7.91878 -5.61173,11.22347 -4.42703,2.61881 -12.90699,2.61881 z"
         style="font-style:normal;font-variant:normal;font-weight:bold;font-stretch:normal;font-family:a_Stamper;-inkscape-font-specification:'a_Stamper Bold'"
         id="path4910"
         inkscape:connector-curvature="0" />
      <path
         d="m 541.42395,897.83927 0,-4.11527 13.65521,0 0,11.97169 q 0,1.87058 -1.80822,1.87058 -1.1847,0 -2.43175,-2.4941 -1.74587,-3.49175 -2.93057,-4.7388 -2.43175,-2.4941 -6.48467,-2.4941 z m -2.11999,40.77859 -15.7752,0 q -2.55646,0 -2.55646,-1.87058 0,-1.24705 1.68352,-2.11999 1.68352,-0.87293 1.68352,-2.93057 l 0,-31.05159 q 0,-2.11998 -1.68352,-2.99292 -1.68352,-0.87294 -1.68352,-2.11999 0,-1.80822 2.55646,-1.80822 l 15.7752,0 0,44.89386 z m 16.21167,0 -14.09168,0 0,-4.11527 q 4.55174,0 6.92113,-2.68116 1.24706,-1.30941 2.68117,-4.8635 1.05999,-2.68117 2.30704,-2.68117 2.18234,0 2.18234,4.42704 l 0,9.91406 z m -14.09168,-21.07517 0,-4.11528 q 2.18234,-0.62352 3.17998,-2.43175 0.56117,-1.49646 1.12235,-2.93057 0.62352,-1.49646 1.87057,-1.49646 1.74588,0 1.74588,3.24233 l 0,11.65994 q 0,2.99292 -1.74588,2.99292 -0.99764,0 -2.43175,-2.99292 -1.55881,-3.24234 -3.74115,-3.92821 z"
         style="font-style:normal;font-variant:normal;font-weight:bold;font-stretch:normal;font-family:a_Stamper;-inkscape-font-specification:'a_Stamper Bold'"
         id="path4912"
         inkscape:connector-curvature="0" />
      <path
         d="m 561.17217,906.13216 0,-12.40816 8.97877,0 0,4.23997 q -2.18234,0.93529 -3.17998,3.99057 -0.62353,2.55645 -1.3094,5.05056 -0.68588,2.4941 -2.30705,2.4941 -2.18234,0 -2.18234,-3.36704 z m 28.37043,-12.40816 9.04112,0 0,13.4058 q 0,2.3694 -2.24469,2.3694 -1.62117,0 -2.30705,-2.4941 -0.68588,-2.49411 -1.3094,-5.05056 -0.99764,-3.05528 -3.17998,-3.99057 l 0,-4.23997 z m -16.89755,0 15.02697,0 0,38.72095 q 0,1.37176 1.99528,2.30705 1.99528,0.87293 1.99528,2.05763 0,1.80823 -2.99292,1.80823 l -17.08461,0 q -2.93057,0 -2.93057,-1.80823 0,-1.24705 1.99528,-2.11998 1.99529,-0.93529 1.99529,-2.68117 l 0,-38.28448 z"
         style="font-style:normal;font-variant:normal;font-weight:bold;font-stretch:normal;font-family:a_Stamper;-inkscape-font-specification:'a_Stamper Bold'"
         id="path4914"
         inkscape:connector-curvature="0" />
      <path
         d="m 612.44498,901.01925 1.87058,7.66937 -5.54938,20.70106 q -0.31176,1.1847 -0.31176,1.93293 0,1.68352 2.11999,2.93057 2.11999,1.24705 2.11999,2.3694 0,1.99528 -3.11763,1.99528 l -7.79408,0 q -2.99292,0 -2.99292,-1.93293 0,-1.43411 1.05999,-1.68352 2.49411,-0.68588 3.74116,-2.55646 0.81058,-1.1847 1.62116,-4.30233 l 7.2329,-27.12337 z m 8.23055,26.37514 -9.29054,0 1.1847,-4.55174 7.04584,0 -6.23526,-25.3775 1.12235,-3.74115 13.34345,0 9.35289,37.91037 q 0.56117,2.11999 2.24469,3.11763 1.49647,0.87293 1.49647,1.87058 0,1.99528 -3.49175,1.99528 l -14.71521,0 q -3.42939,0 -3.42939,-2.11999 0,-1.12235 1.3094,-1.87058 1.30941,-0.81058 1.30941,-1.87057 0,-1.06 -0.43647,-2.74352 -0.43647,-1.3094 -0.81058,-2.61881 z"
         style="font-style:normal;font-variant:normal;font-weight:bold;font-stretch:normal;font-family:a_Stamper;-inkscape-font-specification:'a_Stamper Bold'"
         id="path4916"
         inkscape:connector-curvature="0" />
      <path
         d="m 642.21837,906.13216 0,-12.40816 8.97878,0 0,4.23997 q -2.18234,0.93529 -3.17999,3.99057 -0.62352,2.55645 -1.3094,5.05056 -0.68588,2.4941 -2.30705,2.4941 -2.18234,0 -2.18234,-3.36704 z m 28.37043,-12.40816 9.04112,0 0,13.4058 q 0,2.3694 -2.24469,2.3694 -1.62117,0 -2.30704,-2.4941 -0.68588,-2.49411 -1.30941,-5.05056 -0.99764,-3.05528 -3.17998,-3.99057 l 0,-4.23997 z m -16.89755,0 15.02697,0 0,38.72095 q 0,1.37176 1.99528,2.30705 1.99529,0.87293 1.99529,2.05763 0,1.80823 -2.99293,1.80823 l -17.0846,0 q -2.93058,0 -2.93058,-1.80823 0,-1.24705 1.99529,-2.11998 1.99528,-0.93529 1.99528,-2.68117 l 0,-38.28448 z"
         style="font-style:normal;font-variant:normal;font-weight:bold;font-stretch:normal;font-family:a_Stamper;-inkscape-font-specification:'a_Stamper Bold'"
         id="path4918"
         inkscape:connector-curvature="0" />
      <path
         d="m 704.12524,897.83927 0,-4.11527 13.65522,0 0,11.97169 q 0,1.87058 -1.80823,1.87058 -1.1847,0 -2.43175,-2.4941 -1.74587,-3.49175 -2.93057,-4.7388 -2.43175,-2.4941 -6.48467,-2.4941 z m -2.11999,40.77859 -15.7752,0 q -2.55646,0 -2.55646,-1.87058 0,-1.24705 1.68352,-2.11999 1.68352,-0.87293 1.68352,-2.93057 l 0,-31.05159 q 0,-2.11998 -1.68352,-2.99292 -1.68352,-0.87294 -1.68352,-2.11999 0,-1.80822 2.55646,-1.80822 l 15.7752,0 0,44.89386 z m 16.21168,0 -14.09169,0 0,-4.11527 q 4.55174,0 6.92114,-2.68116 1.24705,-1.30941 2.68116,-4.8635 1.05999,-2.68117 2.30704,-2.68117 2.18235,0 2.18235,4.42704 l 0,9.91406 z m -14.09169,-21.07517 0,-4.11528 q 2.18234,-0.62352 3.17998,-2.43175 0.56118,-1.49646 1.12235,-2.93057 0.62353,-1.49646 1.87058,-1.49646 1.74587,0 1.74587,3.24233 l 0,11.65994 q 0,2.99292 -1.74587,2.99292 -0.99764,0 -2.43175,-2.99292 -1.55882,-3.24234 -3.74116,-3.92821 z"
         style="font-style:normal;font-variant:normal;font-weight:bold;font-stretch:normal;font-family:a_Stamper;-inkscape-font-specification:'a_Stamper Bold'"
         id="path4920"
         inkscape:connector-curvature="0" />
      <path
         d="m 746.07098,893.724 0,3.92821 q -0.99764,0 -2.4941,-0.0623 -1.49646,0 -1.99528,0 -2.74352,0 -3.61645,1.05999 -1.06,1.24705 -1.06,5.29997 l 0,25.12809 q 0,4.80115 -1.62116,7.17055 -1.87058,2.80587 -6.48467,2.80587 -3.42939,0 -5.67409,-1.68352 -2.4941,-1.87058 -2.4941,-5.23762 0,-2.43175 1.43411,-4.11527 1.43411,-1.68352 3.80351,-1.68352 1.93293,0 3.42939,1.1847 1.49646,1.12235 1.49646,3.05528 0,0.81058 -0.56117,2.11998 -0.56118,1.30941 -0.56118,1.87058 0,0.56117 0.99765,0.56117 1.99528,0 2.4941,-2.43175 0.18706,-0.93529 0.18706,-4.05291 l 0,-23.31987 q 0,-4.7388 -0.93529,-6.35997 -0.68588,-1.18469 -3.24234,-1.37175 -2.18234,-0.12471 -2.18234,-1.80823 0,-2.05763 2.68116,-2.05763 l 16.39873,0 z m 1.87058,0 15.77521,0 q 2.55645,0 2.55645,1.80822 0,1.30941 -1.68352,2.18234 -1.68352,0.81059 -1.68352,2.55646 l 0,31.92452 q 0,1.74588 1.80823,2.55646 1.80822,0.74823 1.80822,1.99528 0,1.87058 -2.80586,1.87058 l -16.58579,0 q -2.61881,0 -2.61881,-1.87058 0,-1.1847 1.68352,-2.05763 1.74587,-0.93529 1.74587,-2.99293 l 0,-37.97272 z"
         style="font-style:normal;font-variant:normal;font-weight:bold;font-stretch:normal;font-family:a_Stamper;-inkscape-font-specification:'a_Stamper Bold'"
         id="path4922"
         inkscape:connector-curvature="0" />
      <path
         d="m 788.34894,938.61786 -15.7752,0 q -2.55646,0 -2.55646,-1.80823 0,-1.24705 1.68352,-2.11998 1.68352,-0.87294 1.68352,-2.99293 l 0,-31.05159 q 0,-1.99528 -1.68352,-2.93057 -1.68352,-0.99764 -1.68352,-2.11998 0,-1.87058 2.68116,-1.87058 l 16.64814,0 q 3.05528,0 3.05528,1.80822 0,0.99764 -2.05763,2.18234 -1.99529,1.1847 -1.99529,2.93057 l 0,37.97273 z m 1.93293,-23.75634 0,-3.8035 1.30941,0 q 17.20931,0 17.20931,13.71757 0,7.91877 -5.61173,11.22346 -4.42704,2.61881 -12.90699,2.61881 l 0,-3.80351 q 3.99057,0.0624 3.99057,-5.67408 l 0,-8.79172 q 0,-5.54938 -3.99057,-5.48703 z"
         style="font-style:normal;font-variant:normal;font-weight:bold;font-stretch:normal;font-family:a_Stamper;-inkscape-font-specification:'a_Stamper Bold'"
         id="path4924"
         inkscape:connector-curvature="0" />
      <path
         d="m 834.64865,897.34045 0,-4.42704 q 1.62116,0.12471 4.61409,1.24706 3.05527,1.12234 3.6788,1.12234 0.56117,0 1.37176,-0.99764 0.81058,-1.05999 1.99528,-1.05999 1.80822,0 1.80822,2.24469 l 0,12.15875 q 0,3.5541 -1.99528,3.5541 -1.43411,0 -2.80587,-3.49174 -1.99528,-5.29997 -2.74351,-6.54702 -2.24469,-3.61645 -5.92349,-3.80351 z m 0,42.08799 0,-4.42703 q 4.42703,-0.56117 6.79643,-3.05528 1.24705,-1.3094 2.55645,-4.36468 0.99764,-2.24469 2.05764,-2.24469 2.05763,0 2.05763,2.3694 0,4.67644 -4.48938,8.23054 -4.11527,3.17998 -8.97877,3.49174 z m -1.87058,-4.42703 0,4.42703 q -9.66465,-0.56117 -14.77756,-7.2329 -4.7388,-6.11055 -4.7388,-16.02461 0,-9.97642 4.7388,-16.08697 5.05055,-6.54702 14.77756,-7.17055 l 0,4.42704 q -3.86586,0.31176 -3.86586,5.61173 l 0,26.4375 q 0,5.29997 3.86586,5.61173 z"
         style="font-style:normal;font-variant:normal;font-weight:bold;font-stretch:normal;font-family:a_Stamper;-inkscape-font-specification:'a_Stamper Bold'"
         id="path4926"
         inkscape:connector-curvature="0" />
      <path
         d="m 853.02367,906.13216 0,-12.40816 8.97877,0 0,4.23997 q -2.18234,0.93529 -3.17998,3.99057 -0.62352,2.55645 -1.3094,5.05056 -0.68588,2.4941 -2.30705,2.4941 -2.18234,0 -2.18234,-3.36704 z m 28.37043,-12.40816 9.04112,0 0,13.4058 q 0,2.3694 -2.24469,2.3694 -1.62117,0 -2.30705,-2.4941 -0.68587,-2.49411 -1.3094,-5.05056 -0.99764,-3.05528 -3.17998,-3.99057 l 0,-4.23997 z m -16.89755,0 15.02697,0 0,38.72095 q 0,1.37176 1.99528,2.30705 1.99529,0.87293 1.99529,2.05763 0,1.80823 -2.99293,1.80823 l -17.08461,0 q -2.93057,0 -2.93057,-1.80823 0,-1.24705 1.99528,-2.11998 1.99529,-0.93529 1.99529,-2.68117 l 0,-38.28448 z"
         style="font-style:normal;font-variant:normal;font-weight:bold;font-stretch:normal;font-family:a_Stamper;-inkscape-font-specification:'a_Stamper Bold'"
         id="path4928"
         inkscape:connector-curvature="0" />
      <path
         d="m 912.81055,938.61786 -15.7752,0 q -2.55646,0 -2.55646,-1.87058 0,-1.24705 1.68352,-2.11999 1.68352,-0.87293 1.68352,-2.93057 l 0,-31.05159 q 0,-2.11998 -1.68352,-2.99292 -1.68352,-0.87294 -1.68352,-2.11999 0,-1.80822 2.55646,-1.80822 l 15.7752,0 0,44.89386 z m 4.30233,0 -2.3694,0 0,-3.80351 q 2.74352,0 3.80351,-1.55881 0.87294,-1.24706 0.87294,-4.11527 l 0,-6.54703 q 0,-2.86821 -0.87294,-4.11527 -1.05999,-1.49646 -3.80351,-1.49646 l 0,-3.80351 q 4.80115,0 4.80115,-6.1729 0,-0.62353 -0.0624,-1.93293 -0.0623,-1.30941 -0.0623,-1.87058 0,-2.86822 -0.87294,-4.11527 -1.05999,-1.55881 -3.80351,-1.55881 l 0,-3.80351 2.68116,0 q 7.48231,0 11.22347,1.87058 5.29997,2.6188 5.29997,9.29053 0,9.04113 -11.03641,10.22582 l 0,0.18706 q 5.29997,0.43647 8.35525,3.17998 3.30468,2.93058 3.30468,8.10584 0,7.04584 -5.54938,9.91406 -4.11527,2.11999 -11.90934,2.11999 z"
         style="font-style:normal;font-variant:normal;font-weight:bold;font-stretch:normal;font-family:a_Stamper;-inkscape-font-specification:'a_Stamper Bold'"
         id="path4930"
         inkscape:connector-curvature="0" />
      <path
         d="m 950.08665,901.01925 1.87057,7.66937 -5.54938,20.70106 q -0.31176,1.1847 -0.31176,1.93293 0,1.68352 2.11999,2.93057 2.11999,1.24705 2.11999,2.3694 0,1.99528 -3.11763,1.99528 l -7.79407,0 q -2.99293,0 -2.99293,-1.93293 0,-1.43411 1.06,-1.68352 2.4941,-0.68588 3.74115,-2.55646 0.81058,-1.1847 1.62117,-4.30233 l 7.2329,-27.12337 z m 8.23054,26.37514 -9.29054,0 1.1847,-4.55174 7.04584,0 -6.23525,-25.3775 1.12234,-3.74115 13.34346,0 9.35288,37.91037 q 0.56118,2.11999 2.2447,3.11763 1.49646,0.87293 1.49646,1.87058 0,1.99528 -3.49175,1.99528 l -14.71521,0 q -3.42939,0 -3.42939,-2.11999 0,-1.12235 1.30941,-1.87058 1.3094,-0.81058 1.3094,-1.87057 0,-1.06 -0.43647,-2.74352 -0.43647,-1.3094 -0.81058,-2.61881 z"
         style="font-style:normal;font-variant:normal;font-weight:bold;font-stretch:normal;font-family:a_Stamper;-inkscape-font-specification:'a_Stamper Bold'"
         id="path4932"
         inkscape:connector-curvature="0" />
      <path
         d="m 86.601286,971.66473 q 2.556456,0 2.556456,1.87058 0,1.24705 -1.68352,2.18234 -1.68352,0.87293 -1.68352,2.74351 l 0,31.30104 q 0,1.9329 1.68352,2.8682 1.68352,0.8729 1.68352,2.12 0,1.8082 -2.556456,1.8082 l -16.086967,0 q -2.057635,0 -2.057635,-1.5588 0,-1.1224 1.184699,-2.1824 1.184699,-1.06 1.184699,-2.4941 l 0,-32.36096 q 0,-1.68352 -1.184699,-2.74351 -1.184699,-1.12235 -1.184699,-1.93293 0,-1.62117 2.057635,-1.62117 l 16.086967,0 z m -17.708134,13.59286 0,8.97877 -6.671727,12.22114 0,3.8658 q 0,0.7483 1.184699,2.6188 1.184699,1.8706 1.184699,2.5565 0,1.06 -2.057635,1.06 l -16.086967,0 q -2.556456,0 -2.556456,-1.8082 0,-1.2471 1.68352,-2.1824 1.68352,-0.9353 1.68352,-2.8058 l 0,-31.79986 q 0,-1.49646 -1.68352,-2.30705 -1.68352,-0.87293 -1.68352,-2.11998 0,-1.87058 2.556456,-1.87058 l 16.086967,0 q 1.995283,0 1.995283,1.62117 0,0.99764 -1.184699,2.11998 -1.122347,1.06 -1.122347,2.49411 l 0,19.3293 0.124705,0 6.547022,-11.9717 z"
         style="font-style:normal;font-variant:normal;font-weight:bold;font-stretch:normal;font-family:a_Stamper;-inkscape-font-specification:'a_Stamper Bold'"
         id="path4934"
         inkscape:connector-curvature="0" />
      <path
         d="m 150.14831,971.66473 0,37.97277 q 0,1.7458 1.99529,2.9305 2.05763,1.1847 2.05763,2.1824 0,1.8082 -3.05528,1.8082 l -16.77284,0 q -2.55646,0 -2.55646,-1.8706 0,-1.247 1.68352,-2.12 1.68352,-0.8729 1.68352,-2.9305 l 0,-31.05163 q 0,-2.11999 -1.68352,-2.99293 -1.68352,-0.87293 -1.68352,-2.11999 0,-1.80822 2.55646,-1.80822 l 15.7752,0 z m 1.93293,27.68455 0,-3.86586 q 3.99057,0 3.99057,-5.54938 l 0,-8.79172 q 0,-5.67408 -3.99057,-5.67408 l 0,-3.80351 1.30941,0 q 17.20931,0 17.20931,13.84227 0,7.91878 -5.61173,11.22347 -4.42704,2.61881 -12.90699,2.61881 z"
         style="font-style:normal;font-variant:normal;font-weight:bold;font-stretch:normal;font-family:a_Stamper;-inkscape-font-specification:'a_Stamper Bold'"
         id="path4936"
         inkscape:connector-curvature="0" />
      <path
         d="m 194.14099,1013.5657 0,3.8035 q -9.47759,-0.7483 -14.4658,-7.3576 -4.61409,-6.1106 -4.61409,-15.89994 0,-9.78936 4.61409,-15.89991 4.98821,-6.60937 14.4658,-7.3576 l 0,3.8035 q -3.11763,-0.0624 -3.11763,5.9235 l 0,27.06105 q 0,5.9858 3.11763,5.9235 z m 1.87058,3.8035 0,-3.8035 q 3.05528,0.062 3.05528,-5.9235 l 0,-27.06105 q 0,-5.98585 -3.05528,-5.9235 l 0,-3.8035 q 9.47759,0.74823 14.4658,7.3576 4.61409,6.11055 4.61409,15.89991 0,9.78934 -4.61409,15.89994 -4.98821,6.6093 -14.4658,7.3576 z"
         style="font-style:normal;font-variant:normal;font-weight:bold;font-stretch:normal;font-family:a_Stamper;-inkscape-font-specification:'a_Stamper Bold'"
         id="path4938"
         inkscape:connector-curvature="0" />
      <path
         d="m 237.4663,971.66473 0,44.89387 -15.77521,0 q -2.55645,0 -2.55645,-1.8706 0,-1.247 1.68352,-2.12 1.68352,-0.8729 1.68352,-2.9305 l 0,-31.05163 q 0,-2.11999 -1.68352,-2.99293 -1.68352,-0.87293 -1.68352,-2.11999 0,-1.80822 2.55645,-1.80822 l 15.77521,0 z m 1.93293,44.89387 0,-3.8659 q 3.99056,0 3.99056,-5.5494 l 0,-8.79166 q 0,-5.67409 -3.99056,-5.67409 l 0,-3.80351 1.3094,0 q 17.20932,0 17.20932,13.84226 0,7.9188 -5.61174,11.2235 -4.42703,2.6188 -12.90698,2.6188 z m 0,-41.09036 0,-3.80351 15.33873,0 0,9.53994 q 0,1.99529 -0.24941,2.80587 -0.43646,1.49646 -1.93293,1.49646 -1.55881,0 -2.68116,-3.17998 -1.43411,-4.17762 -1.80822,-4.61409 -1.80823,-2.24469 -8.66701,-2.24469 z"
         style="font-style:normal;font-variant:normal;font-weight:bold;font-stretch:normal;font-family:a_Stamper;-inkscape-font-specification:'a_Stamper Bold'"
         id="path4940"
         inkscape:connector-curvature="0" />
      <path
         d="m 281.45896,1013.5657 0,3.8035 q -9.4776,-0.7483 -14.4658,-7.3576 -4.6141,-6.1106 -4.6141,-15.89994 0,-9.78936 4.6141,-15.89991 4.9882,-6.60937 14.4658,-7.3576 l 0,3.8035 q -3.11763,-0.0624 -3.11763,5.9235 l 0,27.06105 q 0,5.9858 3.11763,5.9235 z m 1.87057,3.8035 0,-3.8035 q 3.05528,0.062 3.05528,-5.9235 l 0,-27.06105 q 0,-5.98585 -3.05528,-5.9235 l 0,-3.8035 q 9.4776,0.74823 14.4658,7.3576 4.61409,6.11055 4.61409,15.89991 0,9.78934 -4.61409,15.89994 -4.9882,6.6093 -14.4658,7.3576 z"
         style="font-style:normal;font-variant:normal;font-weight:bold;font-stretch:normal;font-family:a_Stamper;-inkscape-font-specification:'a_Stamper Bold'"
         id="path4942"
         inkscape:connector-curvature="0" />
      <path
         d="m 306.95142,984.07289 0,-12.40816 8.97877,0 0,4.23997 q -2.18234,0.93529 -3.17998,3.99057 -0.62352,2.55646 -1.3094,5.05056 -0.68588,2.4941 -2.30705,2.4941 -2.18234,0 -2.18234,-3.36704 z m 28.37043,-12.40816 9.04112,0 0,13.4058 q 0,2.3694 -2.24469,2.3694 -1.62117,0 -2.30705,-2.4941 -0.68587,-2.4941 -1.3094,-5.05056 -0.99764,-3.05528 -3.17998,-3.99057 l 0,-4.23997 z m -16.89755,0 15.02697,0 0,38.72097 q 0,1.3717 1.99528,2.307 1.99529,0.873 1.99529,2.0577 0,1.8082 -2.99293,1.8082 l -17.08461,0 q -2.93057,0 -2.93057,-1.8082 0,-1.2471 1.99528,-2.12 1.99529,-0.9353 1.99529,-2.6812 l 0,-38.28447 z"
         style="font-style:normal;font-variant:normal;font-weight:bold;font-stretch:normal;font-family:a_Stamper;-inkscape-font-specification:'a_Stamper Bold'"
         id="path4944"
         inkscape:connector-curvature="0" />
      <path
         d="m 367.92447,1013.5657 0,3.8035 q -9.47759,-0.7483 -14.4658,-7.3576 -4.61409,-6.1106 -4.61409,-15.89994 0,-9.78936 4.61409,-15.89991 4.98821,-6.60937 14.4658,-7.3576 l 0,3.8035 q -3.11763,-0.0624 -3.11763,5.9235 l 0,27.06105 q 0,5.9858 3.11763,5.9235 z m 1.87058,3.8035 0,-3.8035 q 3.05527,0.062 3.05527,-5.9235 l 0,-27.06105 q 0,-5.98585 -3.05527,-5.9235 l 0,-3.8035 q 9.47759,0.74823 14.4658,7.3576 4.61409,6.11055 4.61409,15.89991 0,9.78934 -4.61409,15.89994 -4.98821,6.6093 -14.4658,7.3576 z"
         style="font-style:normal;font-variant:normal;font-weight:bold;font-stretch:normal;font-family:a_Stamper;-inkscape-font-specification:'a_Stamper Bold'"
         id="path4946"
         inkscape:connector-curvature="0" />
      <path
         d="m 393.41694,984.07289 0,-12.40816 8.97877,0 0,4.23997 q -2.18234,0.93529 -3.17998,3.99057 -0.62353,2.55646 -1.30941,5.05056 -0.68588,2.4941 -2.30704,2.4941 -2.18234,0 -2.18234,-3.36704 z m 28.37042,-12.40816 9.04113,0 0,13.4058 q 0,2.3694 -2.2447,2.3694 -1.62116,0 -2.30704,-2.4941 -0.68588,-2.4941 -1.30941,-5.05056 -0.99764,-3.05528 -3.17998,-3.99057 l 0,-4.23997 z m -16.89755,0 15.02698,0 0,38.72097 q 0,1.3717 1.99528,2.307 1.99528,0.873 1.99528,2.0577 0,1.8082 -2.99292,1.8082 l -17.08461,0 q -2.93057,0 -2.93057,-1.8082 0,-1.2471 1.99528,-2.12 1.99528,-0.9353 1.99528,-2.6812 l 0,-38.28447 z"
         style="font-style:normal;font-variant:normal;font-weight:bold;font-stretch:normal;font-family:a_Stamper;-inkscape-font-specification:'a_Stamper Bold'"
         id="path4948"
         inkscape:connector-curvature="0" />
      <path
         d="m 455.26289,975.78 0,-4.11527 13.65522,0 0,11.9717 q 0,1.87057 -1.80823,1.87057 -1.1847,0 -2.43175,-2.4941 -1.74587,-3.49175 -2.93057,-4.7388 -2.43175,-2.4941 -6.48467,-2.4941 z m -2.11999,40.7786 -15.7752,0 q -2.55646,0 -2.55646,-1.8706 0,-1.247 1.68352,-2.12 1.68352,-0.8729 1.68352,-2.9305 l 0,-31.05163 q 0,-2.11999 -1.68352,-2.99293 -1.68352,-0.87293 -1.68352,-2.11999 0,-1.80822 2.55646,-1.80822 l 15.7752,0 0,44.89387 z m 16.21168,0 -14.09169,0 0,-4.1153 q 4.55174,0 6.92114,-2.6811 1.24705,-1.3094 2.68116,-4.8635 1.05999,-2.6812 2.30705,-2.6812 2.18234,0 2.18234,4.427 l 0,9.9141 z m -14.09169,-21.07518 0,-4.11527 q 2.18234,-0.62353 3.17998,-2.43176 0.56118,-1.49646 1.12235,-2.93057 0.62353,-1.49646 1.87058,-1.49646 1.74587,0 1.74587,3.24234 l 0,11.65993 q 0,2.99297 -1.74587,2.99297 -0.99764,0 -2.43175,-2.99297 -1.55882,-3.24234 -3.74116,-3.92821 z"
         style="font-style:normal;font-variant:normal;font-weight:bold;font-stretch:normal;font-family:a_Stamper;-inkscape-font-specification:'a_Stamper Bold'"
         id="path4950"
         inkscape:connector-curvature="0" />
      <path
         d="m 486.48402,999.8481 1.80823,3.8659 q -1.06,1.4964 -2.05764,3.0552 -1.24705,2.0577 -1.24705,3.4918 0,0.9353 1.80822,2.0576 1.80823,1.06 1.80823,2.2447 0,1.9953 -3.74116,1.9953 l -6.98349,0 q -3.05527,0 -3.05527,-1.9329 0,-1.4965 1.62116,-2.12 2.18234,-0.873 2.93058,-1.933 1.12234,-1.5588 7.10819,-10.7246 z m 8.5423,16.7105 q -3.17998,0 -3.17998,-2.0576 0,-0.9353 1.06,-1.6212 1.12234,-0.7482 1.12234,-1.3094 0,-0.6859 -0.49882,-1.6835 l -15.83755,-32.29868 q -0.24941,-0.56117 -1.87058,-2.05763 -1.37176,-1.30941 -1.37176,-1.99528 0,-1.87058 2.61881,-1.87058 l 15.83756,0 q 1.55881,0 2.11998,0.24941 0.87294,0.37411 0.87294,1.68352 0,0.81058 -0.93529,1.37176 -0.87293,0.49882 -0.87293,1.05999 0,0.68588 0.68587,2.05764 l 15.83756,31.98685 q 0.37412,0.7483 2.11999,2.3694 1.43411,1.4341 1.43411,2.12 0,1.9953 -3.24234,1.9953 l -15.89991,0 z m 6.29762,-29.74219 -1.93293,-3.86586 q 0.81058,-1.30941 1.62116,-2.61881 0.87294,-1.55882 0.87294,-2.86822 0,-1.05999 -1.74587,-1.99528 -1.74588,-0.93529 -1.74588,-2.11999 0,-1.68352 2.61881,-1.68352 l 9.66465,0 q 1.55882,0 1.55882,1.62117 0,0.87293 -1.74587,2.24469 -1.30941,0.93529 -2.61881,1.87058 -1.74588,1.43411 -3.67881,4.55174 -1.43411,2.43175 -2.86821,4.8635 z"
         style="font-style:normal;font-variant:normal;font-weight:bold;font-stretch:normal;font-family:a_Stamper;-inkscape-font-specification:'a_Stamper Bold'"
         id="path4952"
         inkscape:connector-curvature="0" />
      <path
         d="m 520.30151,1016.5586 q -2.55646,0 -2.55646,-1.8706 0,-1.247 1.68352,-2.12 1.68352,-0.9353 1.68352,-2.8058 l 0,-31.30104 q 0,-1.93293 -1.68352,-2.80587 -1.68352,-0.93528 -1.68352,-2.18234 0,-1.80822 2.55646,-1.80822 l 16.08696,0 q 2.05764,0 2.05764,1.55881 0,1.12235 -1.1847,2.18234 -1.1847,1.06 -1.1847,2.49411 l 0,32.36101 q 0,1.6835 1.1847,2.8058 1.1847,1.06 1.1847,1.8706 0,1.6212 -2.05764,1.6212 l -16.08696,0 z m 17.70813,-21.32459 0,-3.92822 4.98821,0 0,-13.4058 q 0,-0.74823 -1.1847,-2.61881 -1.1847,-1.87058 -1.1847,-2.55646 0,-1.05999 2.05763,-1.05999 l 16.08697,0 q 2.55646,0 2.55646,1.80822 0,1.24706 -1.68352,2.18234 -1.68352,0.93529 -1.68352,2.80587 l 0,31.79984 q 0,1.4964 1.68352,2.3694 1.68352,0.8106 1.68352,2.0576 0,1.8706 -2.55646,1.8706 l -16.08697,0 q -1.99528,0 -1.99528,-1.6212 0,-0.9976 1.12235,-2.0576 1.1847,-1.1224 1.1847,-2.5565 l 0,-15.08929 -4.98821,0 z"
         style="font-style:normal;font-variant:normal;font-weight:bold;font-stretch:normal;font-family:a_Stamper;-inkscape-font-specification:'a_Stamper Bold'"
         id="path4954"
         inkscape:connector-curvature="0" />
      <path
         d="m 607.58639,971.66473 q 2.55646,0 2.55646,1.87058 0,1.24705 -1.68352,2.18234 -1.68352,0.87293 -1.68352,2.74351 l 0,31.30104 q 0,1.9329 1.68352,2.8682 1.68352,0.8729 1.68352,2.12 0,1.8082 -2.55646,1.8082 l -16.08696,0 q -2.05764,0 -2.05764,-1.5588 0,-1.1224 1.1847,-2.1824 1.1847,-1.06 1.1847,-2.4941 l 0,-32.36096 q 0,-1.68352 -1.1847,-2.74351 -1.1847,-1.12235 -1.1847,-1.93293 0,-1.62117 2.05764,-1.62117 l 16.08696,0 z m -17.70813,13.59286 0,8.97877 -6.67173,12.22114 0,3.8658 q 0,0.7483 1.1847,2.6188 1.1847,1.8706 1.1847,2.5565 0,1.06 -2.05763,1.06 l -16.08697,0 q -2.55646,0 -2.55646,-1.8082 0,-1.2471 1.68352,-2.1824 1.68352,-0.9353 1.68352,-2.8058 l 0,-31.79986 q 0,-1.49646 -1.68352,-2.30705 -1.68352,-0.87293 -1.68352,-2.11998 0,-1.87058 2.55646,-1.87058 l 16.08697,0 q 1.99528,0 1.99528,1.62117 0,0.99764 -1.1847,2.11998 -1.12235,1.06 -1.12235,2.49411 l 0,19.3293 0.12471,0 6.54702,-11.9717 z"
         style="font-style:normal;font-variant:normal;font-weight:bold;font-stretch:normal;font-family:a_Stamper;-inkscape-font-specification:'a_Stamper Bold'"
         id="path4956"
         inkscape:connector-curvature="0" />
      <path
         d="m 630.52335,1016.5586 -15.96226,0 q -2.55646,0 -2.55646,-1.8706 0,-1.247 1.68352,-2.12 1.68352,-0.8729 1.68352,-2.9305 l 0,-31.17634 q 0,-1.93293 -1.68352,-2.80587 -1.68352,-0.93528 -1.68352,-2.18234 0,-1.80822 2.55646,-1.80822 l 16.64814,0 q 2.4941,0 2.4941,1.80822 0,1.30941 -1.68352,2.2447 -1.68352,0.87293 -1.68352,2.86822 l 0,31.67513 q 0,1.6835 1.1847,2.8058 1.1847,1.06 1.1847,1.8706 0,1.6212 -2.18234,1.6212 z m 11.9717,-30.73983 11.0364,24.37983 q 0.37412,0.873 2.05764,2.2447 1.43411,1.1847 1.43411,2.12 0,1.9953 -2.74351,1.9953 l -16.14932,0 q -2.93058,0 -2.93058,-2.1824 0,-0.9976 1.1847,-1.6835 1.1847,-0.6858 1.1847,-1.247 0,-2.3694 -2.61881,-8.4176 -2.6188,-6.04822 -2.6188,-8.23056 0,-1.74587 4.9882,-8.10584 4.98821,-6.35996 4.98821,-8.47995 0,-1.55881 -2.18234,-2.55646 -2.11999,-0.99764 -2.11999,-1.99528 0,-1.99528 3.05528,-1.99528 l 10.84935,0 q 2.68116,0 2.68116,2.05763 0,1.37176 -1.06,1.80823 -5.61173,2.43175 -11.0364,10.28818 z"
         style="font-style:normal;font-variant:normal;font-weight:bold;font-stretch:normal;font-family:a_Stamper;-inkscape-font-specification:'a_Stamper Bold'"
         id="path4958"
         inkscape:connector-curvature="0" />
      <path
         d="m 702.21127,971.66473 q 2.55646,0 2.55646,1.87058 0,1.24705 -1.68352,2.18234 -1.68352,0.87293 -1.68352,2.74351 l 0,31.30104 q 0,1.9329 1.68352,2.8682 1.68352,0.8729 1.68352,2.12 0,1.8082 -2.55646,1.8082 l -16.08697,0 q -2.05763,0 -2.05763,-1.5588 0,-1.1224 1.1847,-2.1824 1.1847,-1.06 1.1847,-2.4941 l 0,-32.36096 q 0,-1.68352 -1.1847,-2.74351 -1.1847,-1.12235 -1.1847,-1.93293 0,-1.62117 2.05763,-1.62117 l 16.08697,0 z m -17.70813,13.59286 0,8.97877 -6.67173,12.22114 0,3.8658 q 0,0.7483 1.1847,2.6188 1.1847,1.8706 1.1847,2.5565 0,1.06 -2.05764,1.06 l -16.08696,0 q -2.55646,0 -2.55646,-1.8082 0,-1.2471 1.68352,-2.1824 1.68352,-0.9353 1.68352,-2.8058 l 0,-31.79986 q 0,-1.49646 -1.68352,-2.30705 -1.68352,-0.87293 -1.68352,-2.11998 0,-1.87058 2.55646,-1.87058 l 16.08696,0 q 1.99529,0 1.99529,1.62117 0,0.99764 -1.1847,2.11998 -1.12235,1.06 -1.12235,2.49411 l 0,19.3293 0.12471,0 6.54702,-11.9717 z"
         style="font-style:normal;font-variant:normal;font-weight:bold;font-stretch:normal;font-family:a_Stamper;-inkscape-font-specification:'a_Stamper Bold'"
         id="path4960"
         inkscape:connector-curvature="0" />
      <path
         d="m 769.5618,1016.5586 0,-44.89387 15.6505,0 q 2.68116,0 2.68116,1.87058 0,1.24705 -1.68352,2.11998 -1.68352,0.87294 -1.68352,2.93058 l 0,31.05163 q 0,2.4941 1.3094,2.7435 1.30941,0.2494 2.55646,0.3741 1.37176,0.6235 1.37176,3.8035 l 0,7.9811 q 0,1.9953 -2.05764,1.9953 -1.62117,0 -2.80587,-3.367 -1.49646,-4.053 -3.05527,-5.2377 -2.05764,-1.5588 -7.04584,-1.5588 -1.06,0 -2.86822,0.1247 -1.80823,0.062 -2.3694,0.062 z m -1.87058,-3.9282 0,3.9282 -9.727,0 q -2.68116,0 -4.42704,1.3717 -1.3094,1.06 -2.93057,5.1753 -1.3094,3.4294 -2.86822,3.4294 -2.05763,0 -2.05763,-1.9953 l 0,-7.8564 q 0,-3.18 2.24469,-3.8659 3.74116,-1.1223 4.11527,-1.4964 2.24469,-1.9953 2.24469,-8.2306 l 0,-19.89044 q 0,-4.55174 -0.93528,-6.0482 -0.74823,-1.1847 -2.93058,-1.68352 -1.74587,-0.37412 -1.74587,-1.74588 0,-2.05763 2.30705,-2.05763 l 16.71049,0 0,3.92821 q -1.12235,0 -2.86822,-0.0624 -1.74587,-0.0623 -2.30704,-0.0623 -2.74352,0 -3.61645,1.12234 -1.06,1.24705 -1.06,5.29997 l 0,21.88575 q 0,5.6117 -1.87058,8.8541 l 11.72229,0 z"
         style="font-style:normal;font-variant:normal;font-weight:bold;font-stretch:normal;font-family:a_Stamper;-inkscape-font-specification:'a_Stamper Bold'"
         id="path4962"
         inkscape:connector-curvature="0" />
      <path
         d="m 811.09061,1013.5657 0,3.8035 q -9.47759,-0.7483 -14.4658,-7.3576 -4.61409,-6.1106 -4.61409,-15.89994 0,-9.78936 4.61409,-15.89991 4.98821,-6.60937 14.4658,-7.3576 l 0,3.8035 q -3.11763,-0.0624 -3.11763,5.9235 l 0,27.06105 q 0,5.9858 3.11763,5.9235 z m 1.87058,3.8035 0,-3.8035 q 3.05527,0.062 3.05527,-5.9235 l 0,-27.06105 q 0,-5.98585 -3.05527,-5.9235 l 0,-3.8035 q 9.47759,0.74823 14.4658,7.3576 4.61409,6.11055 4.61409,15.89991 0,9.78934 -4.61409,15.89994 -4.98821,6.6093 -14.4658,7.3576 z"
         style="font-style:normal;font-variant:normal;font-weight:bold;font-stretch:normal;font-family:a_Stamper;-inkscape-font-specification:'a_Stamper Bold'"
         id="path4964"
         inkscape:connector-curvature="0" />
      <path
         d="m 857.96998,975.28118 0,-4.42703 q 1.62117,0.1247 4.61409,1.24705 3.05528,1.12234 3.6788,1.12234 0.56118,0 1.37176,-0.99764 0.81058,-1.05999 1.99528,-1.05999 1.80823,0 1.80823,2.24469 l 0,12.15876 q 0,3.55409 -1.99528,3.55409 -1.43411,0 -2.80587,-3.49174 -1.99528,-5.29997 -2.74351,-6.54702 -2.2447,-3.61645 -5.9235,-3.80351 z m 0,42.08802 0,-4.4271 q 4.42703,-0.5611 6.79643,-3.0552 1.24705,-1.3094 2.55646,-4.3647 0.99764,-2.2447 2.05763,-2.2447 2.05764,0 2.05764,2.3694 0,4.6764 -4.48939,8.2305 -4.11527,3.18 -8.97877,3.4918 z m -1.87058,-4.4271 0,4.4271 q -9.66465,-0.5612 -14.77756,-7.2329 -4.7388,-6.1106 -4.7388,-16.02464 0,-9.97641 4.7388,-16.08697 5.05056,-6.54702 14.77756,-7.17054 l 0,4.42703 q -3.86586,0.31176 -3.86586,5.61173 l 0,26.43749 q 0,5.3 3.86586,5.6117 z"
         style="font-style:normal;font-variant:normal;font-weight:bold;font-stretch:normal;font-family:a_Stamper;-inkscape-font-specification:'a_Stamper Bold'"
         id="path4966"
         inkscape:connector-curvature="0" />
      <path
         d="m 887.49056,978.95998 1.87058,7.66937 -5.54938,20.70105 q -0.31176,1.1847 -0.31176,1.9329 0,1.6836 2.11999,2.9306 2.11998,1.2471 2.11998,2.3694 0,1.9953 -3.11763,1.9953 l -7.79407,0 q -2.99292,0 -2.99292,-1.9329 0,-1.4341 1.05999,-1.6836 2.4941,-0.6858 3.74116,-2.5564 0.81058,-1.1847 1.62116,-4.3023 l 7.2329,-27.12342 z m 8.23054,26.37512 -9.29053,0 1.1847,-4.5517 7.04584,0 -6.23526,-25.37752 1.12235,-3.74115 13.34345,0 9.35289,37.91037 q 0.56117,2.12 2.24469,3.1176 1.49646,0.873 1.49646,1.8706 0,1.9953 -3.49174,1.9953 l -14.71521,0 q -3.42939,0 -3.42939,-2.12 0,-1.1223 1.3094,-1.8706 1.30941,-0.8106 1.30941,-1.8706 0,-1.0599 -0.43647,-2.7435 -0.43647,-1.3094 -0.81059,-2.6188 z"
         style="font-style:normal;font-variant:normal;font-weight:bold;font-stretch:normal;font-family:a_Stamper;-inkscape-font-specification:'a_Stamper Bold'"
         id="path4968"
         inkscape:connector-curvature="0" />
      <path
         d="m 933.21981,978.95998 1.87058,7.66937 -5.54938,20.70105 q -0.31176,1.1847 -0.31176,1.9329 0,1.6836 2.11998,2.9306 2.11999,1.2471 2.11999,2.3694 0,1.9953 -3.11763,1.9953 l -7.79407,0 q -2.99292,0 -2.99292,-1.9329 0,-1.4341 1.05999,-1.6836 2.4941,-0.6858 3.74115,-2.5564 0.81059,-1.1847 1.62117,-4.3023 l 7.2329,-27.12342 z m 8.23054,26.37512 -9.29053,0 1.1847,-4.5517 7.04584,0 -6.23526,-25.37752 1.12235,-3.74115 13.34345,0 9.35289,37.91037 q 0.56117,2.12 2.24469,3.1176 1.49646,0.873 1.49646,1.8706 0,1.9953 -3.49174,1.9953 l -14.71521,0 q -3.42939,0 -3.42939,-2.12 0,-1.1223 1.3094,-1.8706 1.3094,-0.8106 1.3094,-1.8706 0,-1.0599 -0.43646,-2.7435 -0.43647,-1.3094 -0.81059,-2.6188 z"
         style="font-style:normal;font-variant:normal;font-weight:bold;font-stretch:normal;font-family:a_Stamper;-inkscape-font-specification:'a_Stamper Bold'"
         id="path4970"
         inkscape:connector-curvature="0" />
      <path
         d="m 982.3444,1009.6375 0,-31.05163 q 0,-2.11999 -1.68352,-2.99293 -1.68352,-0.87293 -1.68352,-2.11999 0,-1.80822 2.55646,-1.80822 l 16.64814,0 q 2.55644,0 2.55644,1.80822 0,1.30941 -1.74586,2.18234 -1.68352,0.87294 -1.68352,2.93058 l 0,31.05163 q 0,2.0576 1.68352,2.9305 1.74586,0.873 1.74586,2.12 0,1.8706 -2.55644,1.8706 l -16.64814,0 q -2.55646,0 -2.55646,-1.8706 0,-1.247 1.68352,-2.12 1.68352,-0.8729 1.68352,-2.9305 z m 16.89755,-26.06343 0,-3.80351 1.30945,0 q 17.2093,0 17.2093,13.90463 0,7.91881 -5.6741,11.22351 -4.4271,2.6188 -12.84465,2.6188 l 0,-3.8035 q 3.99055,-0.1871 3.99055,-5.67413 l 0,-8.79171 q 0,-5.48703 -3.99055,-5.67409 z m -18.83048,-3.80351 0,3.80351 q -3.99057,0.18706 -3.99057,5.67409 l 0,8.79171 q 0,5.48703 3.99057,5.67413 l 0,3.8035 -1.30941,0 q -17.20931,0 -17.20931,-13.84231 0,-7.91878 5.61173,-11.28582 4.42704,-2.61881 12.90699,-2.61881 z"
         style="font-style:normal;font-variant:normal;font-weight:bold;font-stretch:normal;font-family:a_Stamper;-inkscape-font-specification:'a_Stamper Bold'"
         id="path4972"
         inkscape:connector-curvature="0" />
    </g>
    <path
       style="fill:#000000;fill-opacity:1;stroke:none;stroke-width:1.77165353;stroke-linejoin:round;stroke-miterlimit:4;stroke-dasharray:none;stroke-dashoffset:8;stroke-opacity:1"
       d="m 38.976378,891.14172 a 8.8582678,8.8582678 0 0 1 -8.858267,8.85827 8.8582678,8.8582678 0 0 1 -8.858268,-8.85827 8.8582678,8.8582678 0 0 1 8.858268,-8.85826 8.8582678,8.8582678 0 0 1 8.858267,8.85826 z"
       id="path5002" />
    <path
       style="fill:#000000;fill-opacity:1;stroke:none;stroke-width:1.77165353;stroke-linejoin:round;stroke-miterlimit:4;stroke-dasharray:none;stroke-dashoffset:8;stroke-opacity:1"
       d="m 38.976378,1018.7008 a 8.8582678,8.8582678 0 0 1 -8.858267,8.8583 8.8582678,8.8582678 0 0 1 -8.858268,-8.8583 8.8582678,8.8582678 0 0 1 8.858268,-8.8583 8.8582678,8.8582678 0 0 1 8.858267,8.8583 z"
       id="path5002-1" />
    <path
       style="fill:#000000;fill-opacity:1;stroke:none;stroke-width:1.77165353;stroke-linejoin:round;stroke-miterlimit:4;stroke-dasharray:none;stroke-dashoffset:8;stroke-opacity:1"
       d="m 1197.6378,891.14172 a 8.8582678,8.8582678 0 0 1 -8.8583,8.85827 8.8582678,8.8582678 0 0 1 -8.8582,-8.85827 8.8582678,8.8582678 0 0 1 8.8582,-8.85826 8.8582678,8.8582678 0 0 1 8.8583,8.85826 z"
       id="path5002-7" />
    <path
       style="fill:#000000;fill-opacity:1;stroke:none;stroke-width:1.77165353;stroke-linejoin:round;stroke-miterlimit:4;stroke-dasharray:none;stroke-dashoffset:8;stroke-opacity:1"
       d="m 1155.1182,891.14172 a 8.8582678,8.8582678 0 0 1 -8.8583,8.85827 8.8582678,8.8582678 0 0 1 -8.8583,-8.85827 8.8582678,8.8582678 0 0 1 8.8583,-8.85826 8.8582678,8.8582678 0 0 1 8.8583,8.85826 z"
       id="path5002-7-6" />
    <path
       style="fill:#000000;fill-opacity:1;stroke:none;stroke-width:1.77165353;stroke-linejoin:round;stroke-miterlimit:4;stroke-dasharray:none;stroke-dashoffset:8;stroke-opacity:1"
       d="m 1112.5985,891.14172 a 8.8582678,8.8582678 0 0 1 -8.8583,8.85827 8.8582678,8.8582678 0 0 1 -8.8582,-8.85827 8.8582678,8.8582678 0 0 1 8.8582,-8.85826 8.8582678,8.8582678 0 0 1 8.8583,8.85826 z"
       id="path5002-7-4" />
    <path
       style="fill:#000000;fill-opacity:1;stroke:none;stroke-width:1.77165353;stroke-linejoin:round;stroke-miterlimit:4;stroke-dasharray:none;stroke-dashoffset:8;stroke-opacity:1"
       d="m 1070.0787,891.14172 a 8.8582678,8.8582678 0 0 1 -8.8582,8.85827 8.8582678,8.8582678 0 0 1 -8.8583,-8.85827 8.8582678,8.8582678 0 0 1 8.8583,-8.85826 8.8582678,8.8582678 0 0 1 8.8582,8.85826 z"
       id="path5002-7-2" />
    <path
       style="fill:#000000;fill-opacity:1;stroke:none;stroke-width:1.77165353;stroke-linejoin:round;stroke-miterlimit:4;stroke-dasharray:none;stroke-dashoffset:8;stroke-opacity:1"
       d="m 1112.5985,933.66144 a 8.8582678,8.8582678 0 0 1 -8.8583,8.85827 8.8582678,8.8582678 0 0 1 -8.8582,-8.85827 8.8582678,8.8582678 0 0 1 8.8582,-8.85827 8.8582678,8.8582678 0 0 1 8.8583,8.85827 z"
       id="path5002-7-7" />
    <path
       style="fill:#000000;fill-opacity:1;stroke:none;stroke-width:1.77165353;stroke-linejoin:round;stroke-miterlimit:4;stroke-dasharray:none;stroke-dashoffset:8;stroke-opacity:1"
       d="m 1155.1182,933.66144 a 8.8582678,8.8582678 0 0 1 -8.8583,8.85827 8.8582678,8.8582678 0 0 1 -8.8583,-8.85827 8.8582678,8.8582678 0 0 1 8.8583,-8.85827 8.8582678,8.8582678 0 0 1 8.8583,8.85827 z"
       id="path5002-7-42" />
    <path
       style="fill:#000000;fill-opacity:1;stroke:none;stroke-width:1.77165353;stroke-linejoin:round;stroke-miterlimit:4;stroke-dasharray:none;stroke-dashoffset:8;stroke-opacity:1"
       d="m 1197.6378,933.66144 a 8.8582678,8.8582678 0 0 1 -8.8583,8.85827 8.8582678,8.8582678 0 0 1 -8.8582,-8.85827 8.8582678,8.8582678 0 0 1 8.8582,-8.85827 8.8582678,8.8582678 0 0 1 8.8583,8.85827 z"
       id="path5002-7-24" />
    <path
       style="fill:#000000;fill-opacity:1;stroke:none;stroke-width:1.77165353;stroke-linejoin:round;stroke-miterlimit:4;stroke-dasharray:none;stroke-dashoffset:8;stroke-opacity:1"
       d="m 81.496062,891.14172 a 8.8582678,8.8582678 0 0 1 -8.858268,8.85827 8.8582678,8.8582678 0 0 1 -8.858267,-8.85827 8.8582678,8.8582678 0 0 1 8.858267,-8.85826 8.8582678,8.8582678 0 0 1 8.858268,8.85826 z"
       id="path5002-7-0" />
    <path
       style="fill:#000000;fill-opacity:1;stroke:none;stroke-width:1.77165353;stroke-linejoin:round;stroke-miterlimit:4;stroke-dasharray:none;stroke-dashoffset:8;stroke-opacity:1"
       d="m 38.976378,933.66144 a 8.8582678,8.8582678 0 0 1 -8.858267,8.85827 8.8582678,8.8582678 0 0 1 -8.858268,-8.85827 8.8582678,8.8582678 0 0 1 8.858268,-8.85827 8.8582678,8.8582678 0 0 1 8.858267,8.85827 z"
       id="path5002-7-8" />
    <path
       style="fill:#000000;fill-opacity:1;stroke:none;stroke-width:1.77165353;stroke-linejoin:round;stroke-miterlimit:4;stroke-dasharray:none;stroke-dashoffset:8;stroke-opacity:1"
       d="m 81.496062,933.66144 a 8.8582678,8.8582678 0 0 1 -8.858268,8.85827 8.8582678,8.8582678 0 0 1 -8.858267,-8.85827 8.8582678,8.8582678 0 0 1 8.858267,-8.85827 8.8582678,8.8582678 0 0 1 8.858268,8.85827 z"
       id="path5002-7-60" />
    <path
       style="fill:#000000;fill-opacity:1;stroke:none;stroke-width:1.77165353;stroke-linejoin:round;stroke-miterlimit:4;stroke-dasharray:none;stroke-dashoffset:8;stroke-opacity:1"
       d="m 38.976378,976.18109 a 8.8582678,8.8582678 0 0 1 -8.858267,8.85827 8.8582678,8.8582678 0 0 1 -8.858268,-8.85827 8.8582678,8.8582678 0 0 1 8.858268,-8.85827 8.8582678,8.8582678 0 0 1 8.858267,8.85827 z"
       id="path5002-1-9" />
    <path
       id="path4102"
       style="fill:#ffcc00;stroke:#000000;stroke-width:0.99999994px;stroke-linecap:butt;stroke-linejoin:miter;stroke-opacity:1"
       d="m 1195.6343,1034.4244 -7.8555,-17.6034 -2.6388,-5.2719 c 1.0587,-0.4739 2.0601,-0.7588 2.9559,-1.1122 0.8958,-0.3537 1.6859,-0.7755 2.3219,-1.5236 1.7685,-3.8182 2.6169,-8.143 1.9392,-12.64582 -0.6777,-4.50283 -2.8814,-9.18371 -7.217,-13.71385 -0.4523,-1.748 -7.8017,-9.09139 -18.6203,-12.98507 -10.8185,-3.89367 -25.1063,-4.33765 -39.4351,7.71315 -0.7854,-0.68407 -1.7772,-1.46311 -2.7365,-2.01112 -0.9594,-0.548 -1.8861,-0.86496 -2.5411,-0.62485 l -1.3196,-3.95393 -1.3194,-3.95394 -5.2777,1.31797 -5.2779,1.31798 1.3196,2.63597 1.3193,2.63595 2.639,-1.31797 2.6388,-1.31798 1.3195,2.63596 1.3194,2.63596 c -2.3856,2.58954 -3.8,7.92978 -4.5706,13.57695 -0.7706,5.64723 -0.8972,11.60124 -0.7071,15.41844 2.9784,1.3628 4.6234,2.492 6.3506,3.3747 1.7272,0.8829 3.5365,1.5195 6.8437,1.8973 l 0,5.2719 0,5.272 2.6389,0 2.6389,0 0,-5.272 0,-5.2719 c 2.0593,0.2353 4.2294,0.4136 6.4489,0.4439 2.2197,0.031 4.4888,-0.087 6.7454,-0.4439 4.9766,-7.1764 4.3638,-13.49163 0.8343,-18.80894 -3.5297,-5.3174 -9.9763,-9.63703 -16.6675,-12.82249 1.457,0.12005 2.521,0.21034 3.6783,0.55495 1.1571,0.34463 2.4078,0.9436 4.2383,2.08101 l 3.9584,-2.63596 3.9582,-2.63596 5.2778,0 5.2779,0 -1.3195,2.63596 -1.3195,2.63596 -2.6389,-1.31798 -2.6388,-1.31798 -2.639,2.63596 -2.6388,2.63596 c 4.6995,3.59515 7.6874,7.53324 8.6663,11.89841 0.9787,4.3651 -0.052,9.1576 -3.3885,14.4611 l 0,6.5899 0,6.5899 2.6388,0 2.6389,0 0,-6.5899 0,-6.5899 c 1.5022,0.3046 3.5105,0.8693 5.4586,1.4049 1.948,0.5356 3.8358,1.0423 5.097,1.2311 l 0,6.5898 0,6.59 2.6388,0 2.6389,0 0,-6.59 0,-6.5898 c 1.9255,0.1271 3.6727,0.3562 5.3878,0.4545 1.7152,0.098 3.3981,0.066 5.1948,-0.3294 l 2.6253,5.2093 7.8418,17.5408"
       inkscape:connector-curvature="0"
       sodipodi:nodetypes="cccscscscscccccccccccscscccccccscscscccccccccccscccccccscccccccsccc" />
    <path
       style="fill:#000000;stroke:#000000;stroke-width:0.52656978;stroke-miterlimit:4;stroke-opacity:1"
       d="m 1124.5136,989.92229 c 0,2.16247 -0.2883,4.62315 -0.7542,6.85337 -0.4659,2.23018 -1.1096,4.22994 -1.8206,5.47074 -0.711,1.2408 -1.3546,1.4875 -1.8207,0.8835 -0.4659,-0.6041 -0.754,-2.0589 -0.754,-4.22125 0,-2.16248 0.2881,-4.62321 0.754,-6.85342 0.4661,-2.23022 1.1097,-4.23003 1.8207,-5.47079 0.711,-1.24075 1.3547,-1.48753 1.8206,-0.8835 0.4659,0.60403 0.7542,2.05887 0.7542,4.22135 z"
       id="path3897"
       inkscape:connector-curvature="0"
       sodipodi:nodetypes="sssssssss" />
    <path
       style="fill:#000000;stroke:#000000;stroke-width:0.67355448;stroke-miterlimit:4;stroke-opacity:1"
       d="m 1134.7504,993.09984 c 0,2.22472 -0.2968,4.68105 -0.7767,6.85408 -0.4798,2.17298 -1.1429,4.06258 -1.8752,5.15378 -0.7323,1.0912 -1.3954,1.1773 -1.8752,0.4346 -0.4799,-0.7429 -0.7768,-2.3146 -0.7768,-4.5393 0,-2.22475 0.2969,-4.68106 0.7768,-6.85407 0.4798,-2.17309 1.1429,-4.06268 1.8752,-5.15388 0.7323,-1.0912 1.3954,-1.17736 1.8752,-0.43455 0.4799,0.74282 0.7767,2.31462 0.7767,4.53934 z"
       id="path3899"
       inkscape:connector-curvature="0"
       sodipodi:nodetypes="sssssssss" />
  </g>
</svg>
