  0
SECTION
  2
HEADER
  9
$ACADVER
  1
AC1014
  9
$HANDSEED
  5
FFFF
  9
$MEASUREMENT
 70
     1
  0
ENDSEC
  0
SECTION
  2
TABLES
  0
TABLE
  2
VPORT
  5
8
330
0
100
AcDbSymbolTable
 70
     4
  0
VPORT
  5
2E
330
8
100
AcDbSymbolTableRecord
100
AcDbViewportTableRecord
  2
*ACTIVE
 70
     0
 10
0.0
 20
0.0
 11
1.0
 21
1.0
 12
210.0
 22
148.5
 13
0.0
 23
0.0
 14
10.0
 24
10.0
 15
10.0
 25
10.0
 16
0.0
 26
0.0
 36
1.0
 17
0.0
 27
0.0
 37
0.0
 40
341.0
 41
1.24
 42
50.0
 43
0.0
 44
0.0
 50
0.0
 51
0.0
 71
     0
 72
   100
 73
     1
 74
     3
 75
     0
 76
     0
 77
     0
 78
     0
  0
ENDTAB
  0
TABLE
  2
LTYPE
  5
5
330
0
100
AcDbSymbolTable
 70
     1
  0
LTYPE
  5
14
330
5
100
AcDbSymbolTableRecord
100
AcDbLinetypeTableRecord
  2
BYBLOCK
 70
     0
  3

 72
    65
 73
     0
 40
0.0
  0
LTYPE
  5
15
330
5
100
AcDbSymbolTableRecord
100
AcDbLinetypeTableRecord
  2
BYLAYER
 70
     0
  3

 72
    65
 73
     0
 40
0.0
  0
LTYPE
  5
16
330
5
100
AcDbSymbolTableRecord
100
AcDbLinetypeTableRecord
  2
CONTINUOUS
 70
     0
  3
Solid line
 72
    65
 73
     0
 40
0.0
  0
ENDTAB
  0
TABLE
  2
LAYER
  5
2
100
AcDbSymbolTable
 70
2
  0
LAYER
  5
50
100
AcDbSymbolTableRecord
100
AcDbLayerTableRecord
  2
0
 70
0
  6
CONTINUOUS
  0
LAYER
  5
51
100
AcDbSymbolTableRecord
100
AcDbLayerTableRecord
  2
Layer_1
 70
0
  6
CONTINUOUS
  0
ENDTAB
  0
TABLE
  2
STYLE
  5
3
330
0
100
AcDbSymbolTable
 70
     1
  0
STYLE
  5
11
330
3
100
AcDbSymbolTableRecord
100
AcDbTextStyleTableRecord
  2
STANDARD
 70
     0
 40
0.0
 41
1.0
 50
0.0
 71
     0
 42
2.5
  3
txt
  4

  0
ENDTAB
  0
TABLE
  2
VIEW
  5
6
330
0
100
AcDbSymbolTable
 70
     0
  0
ENDTAB
  0
TABLE
  2
UCS
  5
7
330
0
100
AcDbSymbolTable
 70
     0
  0
ENDTAB
  0
TABLE
  2
APPID
  5
9
330
0
100
AcDbSymbolTable
 70
     2
  0
APPID
  5
12
330
9
100
AcDbSymbolTableRecord
100
AcDbRegAppTableRecord
  2
ACAD
 70
     0
  0
ENDTAB
  0
TABLE
  2
DIMSTYLE
  5
A
330
0
100
AcDbSymbolTable
 70
     1
  0
DIMSTYLE
105
27
330
A
100
AcDbSymbolTableRecord
100
AcDbDimStyleTableRecord
  2
ISO-25
 70
     0
  3

  4

  5

  6

  7

 40
1.0
 41
2.5
 42
0.625
 43
3.75
 44
1.25
 45
0.0
 46
0.0
 47
0.0
 48
0.0
140
2.5
141
2.5
142
0.0
143
0.03937007874016
144
1.0
145
0.0
146
1.0
147
0.625
 71
     0
 72
     0
 73
     0
 74
     0
 75
     0
 76
     0
 77
     1
 78
     8
170
     0
171
     3
172
     1
173
     0
174
     0
175
     0
176
     0
177
     0
178
     0
270
     2
271
     2
272
     2
273
     2
274
     3
340
11
275
     0
280
     0
281
     0
282
     0
283
     0
284
     8
285
     0
286
     0
287
     3
288
     0
  0
ENDTAB
  0
TABLE
  2
BLOCK_RECORD
  5
1
330
0
100
AcDbSymbolTable
 70
     1
  0
BLOCK_RECORD
  5
1F
330
1
100
AcDbSymbolTableRecord
100
AcDbBlockTableRecord
  2
*MODEL_SPACE
  0
BLOCK_RECORD
  5
1B
330
1
100
AcDbSymbolTableRecord
100
AcDbBlockTableRecord
  2
*PAPER_SPACE
  0
ENDTAB
  0
ENDSEC
  0
SECTION
  2
BLOCKS
  0
BLOCK
  5
20
330
1F
100
AcDbEntity
  8
0
100
AcDbBlockBegin
  2
*MODEL_SPACE
 70
     0
 10
0.0
 20
0.0
 30
0.0
  3
*MODEL_SPACE
  1

  0
ENDBLK
  5
21
330
1F
100
AcDbEntity
  8
0
100
AcDbBlockEnd
  0
BLOCK
  5
1C
330
1B
100
AcDbEntity
 67
     1
  8
0
100
AcDbBlockBegin
  2
*PAPER_SPACE
  1

  0
ENDBLK
  5
1D
330
1B
100
AcDbEntity
 67
     1
  8
0
100
AcDbBlockEnd
  0
ENDSEC
  0
SECTION
  2
ENTITIES
  0
LINE
  5
100
100
AcDbEntity
  8
Layer_1
 62
7
100
AcDbLine
 10
-49.930454
 20
-17.999991
 30
0.0
 11
-24.965227
 21
-17.999991
 31
0.0
  0
LINE
  5
101
100
AcDbEntity
  8
Layer_1
 62
7
100
AcDbLine
 10
-24.965227
 20
-17.999991
 30
0.0
 11
0.000000
 21
-17.999991
 31
0.0
  0
LINE
  5
102
100
AcDbEntity
  8
Layer_1
 62
7
100
AcDbLine
 10
0.000000
 20
-17.999991
 30
0.0
 11
24.965227
 21
-17.999991
 31
0.0
  0
LINE
  5
103
100
AcDbEntity
  8
Layer_1
 62
7
100
AcDbLine
 10
24.965227
 20
-17.999991
 30
0.0
 11
49.930454
 21
-17.999991
 31
0.0
  0
LINE
  5
104
100
AcDbEntity
  8
Layer_1
 62
7
100
AcDbLine
 10
49.930454
 20
-17.999991
 30
0.0
 11
51.127482
 21
-17.759509
 31
0.0
  0
LINE
  5
105
100
AcDbEntity
  8
Layer_1
 62
7
100
AcDbLine
 10
51.127482
 20
-17.759509
 30
0.0
 11
52.102924
 21
-17.102919
 31
0.0
  0
LINE
  5
106
100
AcDbEntity
  8
Layer_1
 62
7
100
AcDbLine
 10
52.102924
 20
-17.102919
 30
0.0
 11
52.759520
 21
-16.127475
 31
0.0
  0
LINE
  5
107
100
AcDbEntity
  8
Layer_1
 62
7
100
AcDbLine
 10
52.759520
 20
-16.127475
 30
0.0
 11
52.999998
 21
-14.930457
 31
0.0
  0
LINE
  5
108
100
AcDbEntity
  8
Layer_1
 62
7
100
AcDbLine
 10
52.999998
 20
-14.930457
 30
0.0
 11
52.999998
 21
-8.465226
 31
0.0
  0
LINE
  5
109
100
AcDbEntity
  8
Layer_1
 62
7
100
AcDbLine
 10
52.999998
 20
-8.465226
 30
0.0
 11
52.999998
 21
-1.999995
 31
0.0
  0
LINE
  5
10a
100
AcDbEntity
  8
Layer_1
 62
7
100
AcDbLine
 10
52.999998
 20
-1.999995
 30
0.0
 11
52.999998
 21
4.465237
 31
0.0
  0
LINE
  5
10b
100
AcDbEntity
  8
Layer_1
 62
7
100
AcDbLine
 10
52.999998
 20
4.465237
 30
0.0
 11
52.999998
 21
10.930468
 31
0.0
  0
LINE
  5
10c
100
AcDbEntity
  8
Layer_1
 62
7
100
AcDbLine
 10
52.999998
 20
10.930468
 30
0.0
 11
52.759520
 21
12.127485
 31
0.0
  0
LINE
  5
10d
100
AcDbEntity
  8
Layer_1
 62
7
100
AcDbLine
 10
52.759520
 20
12.127485
 30
0.0
 11
52.102924
 21
13.102930
 31
0.0
  0
LINE
  5
10e
100
AcDbEntity
  8
Layer_1
 62
7
100
AcDbLine
 10
52.102924
 20
13.102930
 30
0.0
 11
51.127482
 21
13.759520
 31
0.0
  0
LINE
  5
10f
100
AcDbEntity
  8
Layer_1
 62
7
100
AcDbLine
 10
51.127482
 20
13.759520
 30
0.0
 11
49.930454
 21
14.000002
 31
0.0
  0
LINE
  5
110
100
AcDbEntity
  8
Layer_1
 62
7
100
AcDbLine
 10
49.930454
 20
14.000002
 30
0.0
 11
24.965227
 21
14.000002
 31
0.0
  0
LINE
  5
111
100
AcDbEntity
  8
Layer_1
 62
7
100
AcDbLine
 10
24.965227
 20
14.000002
 30
0.0
 11
0.000000
 21
14.000002
 31
0.0
  0
LINE
  5
112
100
AcDbEntity
  8
Layer_1
 62
7
100
AcDbLine
 10
0.000000
 20
14.000002
 30
0.0
 11
-24.965227
 21
14.000002
 31
0.0
  0
LINE
  5
113
100
AcDbEntity
  8
Layer_1
 62
7
100
AcDbLine
 10
-24.965227
 20
14.000002
 30
0.0
 11
-49.930454
 21
14.000002
 31
0.0
  0
LINE
  5
114
100
AcDbEntity
  8
Layer_1
 62
7
100
AcDbLine
 10
-49.930454
 20
14.000002
 30
0.0
 11
-51.127482
 21
13.759520
 31
0.0
  0
LINE
  5
115
100
AcDbEntity
  8
Layer_1
 62
7
100
AcDbLine
 10
-51.127482
 20
13.759520
 30
0.0
 11
-52.102924
 21
13.102930
 31
0.0
  0
LINE
  5
116
100
AcDbEntity
  8
Layer_1
 62
7
100
AcDbLine
 10
-52.102924
 20
13.102930
 30
0.0
 11
-52.759520
 21
12.127485
 31
0.0
  0
LINE
  5
117
100
AcDbEntity
  8
Layer_1
 62
7
100
AcDbLine
 10
-52.759520
 20
12.127485
 30
0.0
 11
-52.999998
 21
10.930468
 31
0.0
  0
LINE
  5
118
100
AcDbEntity
  8
Layer_1
 62
7
100
AcDbLine
 10
-52.999998
 20
10.930468
 30
0.0
 11
-52.999998
 21
4.465237
 31
0.0
  0
LINE
  5
119
100
AcDbEntity
  8
Layer_1
 62
7
100
AcDbLine
 10
-52.999998
 20
4.465237
 30
0.0
 11
-52.999998
 21
-1.999995
 31
0.0
  0
LINE
  5
11a
100
AcDbEntity
  8
Layer_1
 62
7
100
AcDbLine
 10
-52.999998
 20
-1.999995
 30
0.0
 11
-52.999998
 21
-8.465226
 31
0.0
  0
LINE
  5
11b
100
AcDbEntity
  8
Layer_1
 62
7
100
AcDbLine
 10
-52.999998
 20
-8.465226
 30
0.0
 11
-52.999998
 21
-14.930457
 31
0.0
  0
LINE
  5
11c
100
AcDbEntity
  8
Layer_1
 62
7
100
AcDbLine
 10
-52.999998
 20
-14.930457
 30
0.0
 11
-52.759520
 21
-16.127475
 31
0.0
  0
LINE
  5
11d
100
AcDbEntity
  8
Layer_1
 62
7
100
AcDbLine
 10
-52.759520
 20
-16.127475
 30
0.0
 11
-52.102924
 21
-17.102919
 31
0.0
  0
LINE
  5
11e
100
AcDbEntity
  8
Layer_1
 62
7
100
AcDbLine
 10
-52.102924
 20
-17.102919
 30
0.0
 11
-51.127482
 21
-17.759509
 31
0.0
  0
LINE
  5
11f
100
AcDbEntity
  8
Layer_1
 62
7
100
AcDbLine
 10
-51.127482
 20
-17.759509
 30
0.0
 11
-49.930454
 21
-17.999991
 31
0.0
  0
LINE
  5
120
100
AcDbEntity
  8
Layer_1
 62
7
100
AcDbLine
 10
-47.500001
 20
-13.999999
 30
0.0
 11
-47.617877
 21
-14.583860
 31
0.0
  0
LINE
  5
121
100
AcDbEntity
  8
Layer_1
 62
7
100
AcDbLine
 10
-47.617877
 20
-14.583860
 30
0.0
 11
-47.939339
 21
-15.060675
 31
0.0
  0
LINE
  5
122
100
AcDbEntity
  8
Layer_1
 62
7
100
AcDbLine
 10
-47.939339
 20
-15.060675
 30
0.0
 11
-48.416131
 21
-15.382126
 31
0.0
  0
LINE
  5
123
100
AcDbEntity
  8
Layer_1
 62
7
100
AcDbLine
 10
-48.416131
 20
-15.382126
 30
0.0
 11
-49.000004
 21
-15.500010
 31
0.0
  0
LINE
  5
124
100
AcDbEntity
  8
Layer_1
 62
7
100
AcDbLine
 10
-49.000004
 20
-15.500010
 30
0.0
 11
-49.583873
 21
-15.382126
 31
0.0
  0
LINE
  5
125
100
AcDbEntity
  8
Layer_1
 62
7
100
AcDbLine
 10
-49.583873
 20
-15.382126
 30
0.0
 11
-50.060668
 21
-15.060675
 31
0.0
  0
LINE
  5
126
100
AcDbEntity
  8
Layer_1
 62
7
100
AcDbLine
 10
-50.060668
 20
-15.060675
 30
0.0
 11
-50.382130
 21
-14.583860
 31
0.0
  0
LINE
  5
127
100
AcDbEntity
  8
Layer_1
 62
7
100
AcDbLine
 10
-50.382130
 20
-14.583860
 30
0.0
 11
-50.500003
 21
-13.999999
 31
0.0
  0
LINE
  5
128
100
AcDbEntity
  8
Layer_1
 62
7
100
AcDbLine
 10
-50.500003
 20
-13.999999
 30
0.0
 11
-50.382130
 21
-13.416138
 31
0.0
  0
LINE
  5
129
100
AcDbEntity
  8
Layer_1
 62
7
100
AcDbLine
 10
-50.382130
 20
-13.416138
 30
0.0
 11
-50.060668
 21
-12.939323
 31
0.0
  0
LINE
  5
12a
100
AcDbEntity
  8
Layer_1
 62
7
100
AcDbLine
 10
-50.060668
 20
-12.939323
 30
0.0
 11
-49.583873
 21
-12.617872
 31
0.0
  0
LINE
  5
12b
100
AcDbEntity
  8
Layer_1
 62
7
100
AcDbLine
 10
-49.583873
 20
-12.617872
 30
0.0
 11
-49.000004
 21
-12.499988
 31
0.0
  0
LINE
  5
12c
100
AcDbEntity
  8
Layer_1
 62
7
100
AcDbLine
 10
-49.000004
 20
-12.499988
 30
0.0
 11
-48.416131
 21
-12.617872
 31
0.0
  0
LINE
  5
12d
100
AcDbEntity
  8
Layer_1
 62
7
100
AcDbLine
 10
-48.416131
 20
-12.617872
 30
0.0
 11
-47.939339
 21
-12.939323
 31
0.0
  0
LINE
  5
12e
100
AcDbEntity
  8
Layer_1
 62
7
100
AcDbLine
 10
-47.939339
 20
-12.939323
 30
0.0
 11
-47.617877
 21
-13.416138
 31
0.0
  0
LINE
  5
12f
100
AcDbEntity
  8
Layer_1
 62
7
100
AcDbLine
 10
-47.617877
 20
-13.416138
 30
0.0
 11
-47.500001
 21
-13.999999
 31
0.0
  0
LINE
  5
130
100
AcDbEntity
  8
Layer_1
 62
7
100
AcDbLine
 10
-36.489158
 20
-5.920082
 30
0.0
 11
-36.442176
 21
-6.513867
 31
0.0
  0
LINE
  5
131
100
AcDbEntity
  8
Layer_1
 62
7
100
AcDbLine
 10
-36.442176
 20
-6.513867
 30
0.0
 11
-36.180236
 21
-7.025802
 31
0.0
  0
LINE
  5
132
100
AcDbEntity
  8
Layer_1
 62
7
100
AcDbLine
 10
-36.180236
 20
-7.025802
 30
0.0
 11
-35.745448
 21
-7.402129
 31
0.0
  0
LINE
  5
133
100
AcDbEntity
  8
Layer_1
 62
7
100
AcDbLine
 10
-35.745448
 20
-7.402129
 30
0.0
 11
-35.179936
 21
-7.589205
 31
0.0
  0
LINE
  5
134
100
AcDbEntity
  8
Layer_1
 62
7
100
AcDbLine
 10
-35.179936
 20
-7.589205
 30
0.0
 11
-34.586140
 21
-7.542214
 31
0.0
  0
LINE
  5
135
100
AcDbEntity
  8
Layer_1
 62
7
100
AcDbLine
 10
-34.586140
 20
-7.542214
 30
0.0
 11
-34.074227
 21
-7.280282
 31
0.0
  0
LINE
  5
136
100
AcDbEntity
  8
Layer_1
 62
7
100
AcDbLine
 10
-34.074227
 20
-7.280282
 30
0.0
 11
-33.697887
 21
-6.845474
 31
0.0
  0
LINE
  5
137
100
AcDbEntity
  8
Layer_1
 62
7
100
AcDbLine
 10
-33.697887
 20
-6.845474
 30
0.0
 11
-33.510823
 21
-6.279970
 31
0.0
  0
LINE
  5
138
100
AcDbEntity
  8
Layer_1
 62
7
100
AcDbLine
 10
-33.510823
 20
-6.279970
 30
0.0
 11
-33.557804
 21
-5.686185
 31
0.0
  0
LINE
  5
139
100
AcDbEntity
  8
Layer_1
 62
7
100
AcDbLine
 10
-33.557804
 20
-5.686185
 30
0.0
 11
-33.819744
 21
-5.174250
 31
0.0
  0
LINE
  5
13a
100
AcDbEntity
  8
Layer_1
 62
7
100
AcDbLine
 10
-33.819744
 20
-5.174250
 30
0.0
 11
-34.254532
 21
-4.797923
 31
0.0
  0
LINE
  5
13b
100
AcDbEntity
  8
Layer_1
 62
7
100
AcDbLine
 10
-34.254532
 20
-4.797923
 30
0.0
 11
-34.820045
 21
-4.610847
 31
0.0
  0
LINE
  5
13c
100
AcDbEntity
  8
Layer_1
 62
7
100
AcDbLine
 10
-34.820045
 20
-4.610847
 30
0.0
 11
-35.413840
 21
-4.657837
 31
0.0
  0
LINE
  5
13d
100
AcDbEntity
  8
Layer_1
 62
7
100
AcDbLine
 10
-35.413840
 20
-4.657837
 30
0.0
 11
-35.925753
 21
-4.919770
 31
0.0
  0
LINE
  5
13e
100
AcDbEntity
  8
Layer_1
 62
7
100
AcDbLine
 10
-35.925753
 20
-4.919770
 30
0.0
 11
-36.302093
 21
-5.354577
 31
0.0
  0
LINE
  5
13f
100
AcDbEntity
  8
Layer_1
 62
7
100
AcDbLine
 10
-36.302093
 20
-5.354577
 30
0.0
 11
-36.489158
 21
-5.920082
 31
0.0
  0
LINE
  5
140
100
AcDbEntity
  8
Layer_1
 62
7
100
AcDbLine
 10
33.510826
 20
-5.920093
 30
0.0
 11
33.557815
 21
-6.513880
 31
0.0
  0
LINE
  5
141
100
AcDbEntity
  8
Layer_1
 62
7
100
AcDbLine
 10
33.557815
 20
-6.513880
 30
0.0
 11
33.819762
 21
-7.025787
 31
0.0
  0
LINE
  5
142
100
AcDbEntity
  8
Layer_1
 62
7
100
AcDbLine
 10
33.819762
 20
-7.025787
 30
0.0
 11
34.254545
 21
-7.402113
 31
0.0
  0
LINE
  5
143
100
AcDbEntity
  8
Layer_1
 62
7
100
AcDbLine
 10
34.254545
 20
-7.402113
 30
0.0
 11
34.820051
 21
-7.589188
 31
0.0
  0
LINE
  5
144
100
AcDbEntity
  8
Layer_1
 62
7
100
AcDbLine
 10
34.820051
 20
-7.589188
 30
0.0
 11
35.413841
 21
-7.542197
 31
0.0
  0
LINE
  5
145
100
AcDbEntity
  8
Layer_1
 62
7
100
AcDbLine
 10
35.413841
 20
-7.542197
 30
0.0
 11
35.925749
 21
-7.280264
 31
0.0
  0
LINE
  5
146
100
AcDbEntity
  8
Layer_1
 62
7
100
AcDbLine
 10
35.925749
 20
-7.280264
 30
0.0
 11
36.302089
 21
-6.845485
 31
0.0
  0
LINE
  5
147
100
AcDbEntity
  8
Layer_1
 62
7
100
AcDbLine
 10
36.302089
 20
-6.845485
 30
0.0
 11
36.489161
 21
-6.279982
 31
0.0
  0
LINE
  5
148
100
AcDbEntity
  8
Layer_1
 62
7
100
AcDbLine
 10
36.489161
 20
-6.279982
 30
0.0
 11
36.442181
 21
-5.686196
 31
0.0
  0
LINE
  5
149
100
AcDbEntity
  8
Layer_1
 62
7
100
AcDbLine
 10
36.442181
 20
-5.686196
 30
0.0
 11
36.180240
 21
-5.174262
 31
0.0
  0
LINE
  5
14a
100
AcDbEntity
  8
Layer_1
 62
7
100
AcDbLine
 10
36.180240
 20
-5.174262
 30
0.0
 11
35.745451
 21
-4.797934
 31
0.0
  0
LINE
  5
14b
100
AcDbEntity
  8
Layer_1
 62
7
100
AcDbLine
 10
35.745451
 20
-4.797934
 30
0.0
 11
35.179939
 21
-4.610859
 31
0.0
  0
LINE
  5
14c
100
AcDbEntity
  8
Layer_1
 62
7
100
AcDbLine
 10
35.179939
 20
-4.610859
 30
0.0
 11
34.586144
 21
-4.657849
 31
0.0
  0
LINE
  5
14d
100
AcDbEntity
  8
Layer_1
 62
7
100
AcDbLine
 10
34.586144
 20
-4.657849
 30
0.0
 11
34.074230
 21
-4.919781
 31
0.0
  0
LINE
  5
14e
100
AcDbEntity
  8
Layer_1
 62
7
100
AcDbLine
 10
34.074230
 20
-4.919781
 30
0.0
 11
33.697890
 21
-5.354589
 31
0.0
  0
LINE
  5
14f
100
AcDbEntity
  8
Layer_1
 62
7
100
AcDbLine
 10
33.697890
 20
-5.354589
 30
0.0
 11
33.510826
 21
-5.920093
 31
0.0
  0
LINE
  5
150
100
AcDbEntity
  8
Layer_1
 62
7
100
AcDbLine
 10
-11.228008
 20
-5.864983
 30
0.0
 11
-11.212898
 21
-6.261788
 31
0.0
  0
LINE
  5
151
100
AcDbEntity
  8
Layer_1
 62
7
100
AcDbLine
 10
-11.212898
 20
-6.261788
 30
0.0
 11
-11.346487
 21
-6.621147
 31
0.0
  0
LINE
  5
152
100
AcDbEntity
  8
Layer_1
 62
7
100
AcDbLine
 10
-11.346487
 20
-6.621147
 30
0.0
 11
-11.605082
 21
-6.904144
 31
0.0
  0
LINE
  5
153
100
AcDbEntity
  8
Layer_1
 62
7
100
AcDbLine
 10
-11.605082
 20
-6.904144
 30
0.0
 11
-11.964957
 21
-7.072029
 31
0.0
  0
LINE
  5
154
100
AcDbEntity
  8
Layer_1
 62
7
100
AcDbLine
 10
-11.964957
 20
-7.072029
 30
0.0
 11
-12.361778
 21
-7.087119
 31
0.0
  0
LINE
  5
155
100
AcDbEntity
  8
Layer_1
 62
7
100
AcDbLine
 10
-12.361778
 20
-7.087119
 30
0.0
 11
-12.721104
 21
-6.953539
 31
0.0
  0
LINE
  5
156
100
AcDbEntity
  8
Layer_1
 62
7
100
AcDbLine
 10
-12.721104
 20
-6.953539
 30
0.0
 11
-13.004124
 21
-6.694919
 31
0.0
  0
LINE
  5
157
100
AcDbEntity
  8
Layer_1
 62
7
100
AcDbLine
 10
-13.004124
 20
-6.694919
 30
0.0
 11
-13.171984
 21
-6.335049
 31
0.0
  0
LINE
  5
158
100
AcDbEntity
  8
Layer_1
 62
7
100
AcDbLine
 10
-13.171984
 20
-6.335049
 30
0.0
 11
-13.187085
 21
-5.938242
 31
0.0
  0
LINE
  5
159
100
AcDbEntity
  8
Layer_1
 62
7
100
AcDbLine
 10
-13.187085
 20
-5.938242
 30
0.0
 11
-13.053490
 21
-5.578910
 31
0.0
  0
LINE
  5
15a
100
AcDbEntity
  8
Layer_1
 62
7
100
AcDbLine
 10
-13.053490
 20
-5.578910
 30
0.0
 11
-12.794902
 21
-5.295885
 31
0.0
  0
LINE
  5
15b
100
AcDbEntity
  8
Layer_1
 62
7
100
AcDbLine
 10
-12.794902
 20
-5.295885
 30
0.0
 11
-12.435029
 21
-5.128031
 31
0.0
  0
LINE
  5
15c
100
AcDbEntity
  8
Layer_1
 62
7
100
AcDbLine
 10
-12.435029
 20
-5.128031
 30
0.0
 11
-12.038215
 21
-5.112942
 31
0.0
  0
LINE
  5
15d
100
AcDbEntity
  8
Layer_1
 62
7
100
AcDbLine
 10
-12.038215
 20
-5.112942
 30
0.0
 11
-11.678890
 21
-5.246522
 31
0.0
  0
LINE
  5
15e
100
AcDbEntity
  8
Layer_1
 62
7
100
AcDbLine
 10
-11.678890
 20
-5.246522
 30
0.0
 11
-11.395876
 21
-5.505115
 31
0.0
  0
LINE
  5
15f
100
AcDbEntity
  8
Layer_1
 62
7
100
AcDbLine
 10
-11.395876
 20
-5.505115
 30
0.0
 11
-11.228008
 21
-5.864983
 31
0.0
  0
LINE
  5
160
100
AcDbEntity
  8
Layer_1
 62
7
100
AcDbLine
 10
-22.628011
 20
2.435018
 30
0.0
 11
-22.612910
 21
2.038208
 31
0.0
  0
LINE
  5
161
100
AcDbEntity
  8
Layer_1
 62
7
100
AcDbLine
 10
-22.612910
 20
2.038208
 30
0.0
 11
-22.746507
 21
1.678882
 31
0.0
  0
LINE
  5
162
100
AcDbEntity
  8
Layer_1
 62
7
100
AcDbLine
 10
-22.746507
 20
1.678882
 30
0.0
 11
-23.005097
 21
1.395868
 31
0.0
  0
LINE
  5
163
100
AcDbEntity
  8
Layer_1
 62
7
100
AcDbLine
 10
-23.005097
 20
1.395868
 30
0.0
 11
-23.364967
 21
1.228000
 31
0.0
  0
LINE
  5
164
100
AcDbEntity
  8
Layer_1
 62
7
100
AcDbLine
 10
-23.364967
 20
1.228000
 30
0.0
 11
-23.761777
 21
1.212898
 31
0.0
  0
LINE
  5
165
100
AcDbEntity
  8
Layer_1
 62
7
100
AcDbLine
 10
-23.761777
 20
1.212898
 30
0.0
 11
-24.121104
 21
1.346495
 31
0.0
  0
LINE
  5
166
100
AcDbEntity
  8
Layer_1
 62
7
100
AcDbLine
 10
-24.121104
 20
1.346495
 30
0.0
 11
-24.404116
 21
1.605082
 31
0.0
  0
LINE
  5
167
100
AcDbEntity
  8
Layer_1
 62
7
100
AcDbLine
 10
-24.404116
 20
1.605082
 30
0.0
 11
-24.571985
 21
1.964952
 31
0.0
  0
LINE
  5
168
100
AcDbEntity
  8
Layer_1
 62
7
100
AcDbLine
 10
-24.571985
 20
1.964952
 30
0.0
 11
-24.587087
 21
2.361762
 31
0.0
  0
LINE
  5
169
100
AcDbEntity
  8
Layer_1
 62
7
100
AcDbLine
 10
-24.587087
 20
2.361762
 30
0.0
 11
-24.453490
 21
2.721092
 31
0.0
  0
LINE
  5
16a
100
AcDbEntity
  8
Layer_1
 62
7
100
AcDbLine
 10
-24.453490
 20
2.721092
 30
0.0
 11
-24.194903
 21
3.004105
 31
0.0
  0
LINE
  5
16b
100
AcDbEntity
  8
Layer_1
 62
7
100
AcDbLine
 10
-24.194903
 20
3.004105
 30
0.0
 11
-23.835033
 21
3.171973
 31
0.0
  0
LINE
  5
16c
100
AcDbEntity
  8
Layer_1
 62
7
100
AcDbLine
 10
-23.835033
 20
3.171973
 30
0.0
 11
-23.438220
 21
3.187076
 31
0.0
  0
LINE
  5
16d
100
AcDbEntity
  8
Layer_1
 62
7
100
AcDbLine
 10
-23.438220
 20
3.187076
 30
0.0
 11
-23.078894
 21
3.053479
 31
0.0
  0
LINE
  5
16e
100
AcDbEntity
  8
Layer_1
 62
7
100
AcDbLine
 10
-23.078894
 20
3.053479
 30
0.0
 11
-22.795881
 21
2.794891
 31
0.0
  0
LINE
  5
16f
100
AcDbEntity
  8
Layer_1
 62
7
100
AcDbLine
 10
-22.795881
 20
2.794891
 30
0.0
 11
-22.628011
 21
2.435018
 31
0.0
  0
LINE
  5
170
100
AcDbEntity
  8
Layer_1
 62
7
100
AcDbLine
 10
1.499991
 20
-13.999999
 30
0.0
 11
1.382116
 21
-14.583860
 31
0.0
  0
LINE
  5
171
100
AcDbEntity
  8
Layer_1
 62
7
100
AcDbLine
 10
1.382116
 20
-14.583860
 30
0.0
 11
1.060655
 21
-15.060675
 31
0.0
  0
LINE
  5
172
100
AcDbEntity
  8
Layer_1
 62
7
100
AcDbLine
 10
1.060655
 20
-15.060675
 30
0.0
 11
0.583861
 21
-15.382126
 31
0.0
  0
LINE
  5
173
100
AcDbEntity
  8
Layer_1
 62
7
100
AcDbLine
 10
0.583861
 20
-15.382126
 30
0.0
 11
-0.000009
 21
-15.500010
 31
0.0
  0
LINE
  5
174
100
AcDbEntity
  8
Layer_1
 62
7
100
AcDbLine
 10
-0.000009
 20
-15.500010
 30
0.0
 11
-0.583880
 21
-15.382126
 31
0.0
  0
LINE
  5
175
100
AcDbEntity
  8
Layer_1
 62
7
100
AcDbLine
 10
-0.583880
 20
-15.382126
 30
0.0
 11
-1.060673
 21
-15.060675
 31
0.0
  0
LINE
  5
176
100
AcDbEntity
  8
Layer_1
 62
7
100
AcDbLine
 10
-1.060673
 20
-15.060675
 30
0.0
 11
-1.382135
 21
-14.583860
 31
0.0
  0
LINE
  5
177
100
AcDbEntity
  8
Layer_1
 62
7
100
AcDbLine
 10
-1.382135
 20
-14.583860
 30
0.0
 11
-1.500009
 21
-13.999999
 31
0.0
  0
LINE
  5
178
100
AcDbEntity
  8
Layer_1
 62
7
100
AcDbLine
 10
-1.500009
 20
-13.999999
 30
0.0
 11
-1.382135
 21
-13.416138
 31
0.0
  0
LINE
  5
179
100
AcDbEntity
  8
Layer_1
 62
7
100
AcDbLine
 10
-1.382135
 20
-13.416138
 30
0.0
 11
-1.060673
 21
-12.939323
 31
0.0
  0
LINE
  5
17a
100
AcDbEntity
  8
Layer_1
 62
7
100
AcDbLine
 10
-1.060673
 20
-12.939323
 30
0.0
 11
-0.583880
 21
-12.617872
 31
0.0
  0
LINE
  5
17b
100
AcDbEntity
  8
Layer_1
 62
7
100
AcDbLine
 10
-0.583880
 20
-12.617872
 30
0.0
 11
-0.000009
 21
-12.499988
 31
0.0
  0
LINE
  5
17c
100
AcDbEntity
  8
Layer_1
 62
7
100
AcDbLine
 10
-0.000009
 20
-12.499988
 30
0.0
 11
0.583861
 21
-12.617872
 31
0.0
  0
LINE
  5
17d
100
AcDbEntity
  8
Layer_1
 62
7
100
AcDbLine
 10
0.583861
 20
-12.617872
 30
0.0
 11
1.060655
 21
-12.939323
 31
0.0
  0
LINE
  5
17e
100
AcDbEntity
  8
Layer_1
 62
7
100
AcDbLine
 10
1.060655
 20
-12.939323
 30
0.0
 11
1.382116
 21
-13.416138
 31
0.0
  0
LINE
  5
17f
100
AcDbEntity
  8
Layer_1
 62
7
100
AcDbLine
 10
1.382116
 20
-13.416138
 30
0.0
 11
1.499991
 21
-13.999999
 31
0.0
  0
LINE
  5
180
100
AcDbEntity
  8
Layer_1
 62
7
100
AcDbLine
 10
-47.500001
 20
2.200008
 30
0.0
 11
-47.617877
 21
1.616147
 31
0.0
  0
LINE
  5
181
100
AcDbEntity
  8
Layer_1
 62
7
100
AcDbLine
 10
-47.617877
 20
1.616147
 30
0.0
 11
-47.939339
 21
1.139332
 31
0.0
  0
LINE
  5
182
100
AcDbEntity
  8
Layer_1
 62
7
100
AcDbLine
 10
-47.939339
 20
1.139332
 30
0.0
 11
-48.416131
 21
0.817881
 31
0.0
  0
LINE
  5
183
100
AcDbEntity
  8
Layer_1
 62
7
100
AcDbLine
 10
-48.416131
 20
0.817881
 30
0.0
 11
-49.000004
 21
0.699997
 31
0.0
  0
LINE
  5
184
100
AcDbEntity
  8
Layer_1
 62
7
100
AcDbLine
 10
-49.000004
 20
0.699997
 30
0.0
 11
-49.583873
 21
0.817881
 31
0.0
  0
LINE
  5
185
100
AcDbEntity
  8
Layer_1
 62
7
100
AcDbLine
 10
-49.583873
 20
0.817881
 30
0.0
 11
-50.060668
 21
1.139332
 31
0.0
  0
LINE
  5
186
100
AcDbEntity
  8
Layer_1
 62
7
100
AcDbLine
 10
-50.060668
 20
1.139332
 30
0.0
 11
-50.382130
 21
1.616147
 31
0.0
  0
LINE
  5
187
100
AcDbEntity
  8
Layer_1
 62
7
100
AcDbLine
 10
-50.382130
 20
1.616147
 30
0.0
 11
-50.500003
 21
2.200008
 31
0.0
  0
LINE
  5
188
100
AcDbEntity
  8
Layer_1
 62
7
100
AcDbLine
 10
-50.500003
 20
2.200008
 30
0.0
 11
-50.382130
 21
2.783870
 31
0.0
  0
LINE
  5
189
100
AcDbEntity
  8
Layer_1
 62
7
100
AcDbLine
 10
-50.382130
 20
2.783870
 30
0.0
 11
-50.060668
 21
3.260684
 31
0.0
  0
LINE
  5
18a
100
AcDbEntity
  8
Layer_1
 62
7
100
AcDbLine
 10
-50.060668
 20
3.260684
 30
0.0
 11
-49.583873
 21
3.582135
 31
0.0
  0
LINE
  5
18b
100
AcDbEntity
  8
Layer_1
 62
7
100
AcDbLine
 10
-49.583873
 20
3.582135
 30
0.0
 11
-49.000004
 21
3.700019
 31
0.0
  0
LINE
  5
18c
100
AcDbEntity
  8
Layer_1
 62
7
100
AcDbLine
 10
-49.000004
 20
3.700019
 30
0.0
 11
-48.416131
 21
3.582135
 31
0.0
  0
LINE
  5
18d
100
AcDbEntity
  8
Layer_1
 62
7
100
AcDbLine
 10
-48.416131
 20
3.582135
 30
0.0
 11
-47.939339
 21
3.260684
 31
0.0
  0
LINE
  5
18e
100
AcDbEntity
  8
Layer_1
 62
7
100
AcDbLine
 10
-47.939339
 20
3.260684
 30
0.0
 11
-47.617877
 21
2.783870
 31
0.0
  0
LINE
  5
18f
100
AcDbEntity
  8
Layer_1
 62
7
100
AcDbLine
 10
-47.617877
 20
2.783870
 30
0.0
 11
-47.500001
 21
2.200008
 31
0.0
  0
LINE
  5
190
100
AcDbEntity
  8
Layer_1
 62
7
100
AcDbLine
 10
47.499981
 20
-13.999999
 30
0.0
 11
47.617854
 21
-14.583860
 31
0.0
  0
LINE
  5
191
100
AcDbEntity
  8
Layer_1
 62
7
100
AcDbLine
 10
47.617854
 20
-14.583860
 30
0.0
 11
47.939317
 21
-15.060675
 31
0.0
  0
LINE
  5
192
100
AcDbEntity
  8
Layer_1
 62
7
100
AcDbLine
 10
47.939317
 20
-15.060675
 30
0.0
 11
48.416111
 21
-15.382126
 31
0.0
  0
LINE
  5
193
100
AcDbEntity
  8
Layer_1
 62
7
100
AcDbLine
 10
48.416111
 20
-15.382126
 30
0.0
 11
48.999981
 21
-15.500010
 31
0.0
  0
LINE
  5
194
100
AcDbEntity
  8
Layer_1
 62
7
100
AcDbLine
 10
48.999981
 20
-15.500010
 30
0.0
 11
49.583851
 21
-15.382126
 31
0.0
  0
LINE
  5
195
100
AcDbEntity
  8
Layer_1
 62
7
100
AcDbLine
 10
49.583851
 20
-15.382126
 30
0.0
 11
50.060646
 21
-15.060675
 31
0.0
  0
LINE
  5
196
100
AcDbEntity
  8
Layer_1
 62
7
100
AcDbLine
 10
50.060646
 20
-15.060675
 30
0.0
 11
50.382108
 21
-14.583860
 31
0.0
  0
LINE
  5
197
100
AcDbEntity
  8
Layer_1
 62
7
100
AcDbLine
 10
50.382108
 20
-14.583860
 30
0.0
 11
50.499981
 21
-13.999999
 31
0.0
  0
LINE
  5
198
100
AcDbEntity
  8
Layer_1
 62
7
100
AcDbLine
 10
50.499981
 20
-13.999999
 30
0.0
 11
50.382108
 21
-13.416138
 31
0.0
  0
LINE
  5
199
100
AcDbEntity
  8
Layer_1
 62
7
100
AcDbLine
 10
50.382108
 20
-13.416138
 30
0.0
 11
50.060646
 21
-12.939323
 31
0.0
  0
LINE
  5
19a
100
AcDbEntity
  8
Layer_1
 62
7
100
AcDbLine
 10
50.060646
 20
-12.939323
 30
0.0
 11
49.583851
 21
-12.617872
 31
0.0
  0
LINE
  5
19b
100
AcDbEntity
  8
Layer_1
 62
7
100
AcDbLine
 10
49.583851
 20
-12.617872
 30
0.0
 11
48.999981
 21
-12.499988
 31
0.0
  0
LINE
  5
19c
100
AcDbEntity
  8
Layer_1
 62
7
100
AcDbLine
 10
48.999981
 20
-12.499988
 30
0.0
 11
48.416111
 21
-12.617872
 31
0.0
  0
LINE
  5
19d
100
AcDbEntity
  8
Layer_1
 62
7
100
AcDbLine
 10
48.416111
 20
-12.617872
 30
0.0
 11
47.939317
 21
-12.939323
 31
0.0
  0
LINE
  5
19e
100
AcDbEntity
  8
Layer_1
 62
7
100
AcDbLine
 10
47.939317
 20
-12.939323
 30
0.0
 11
47.617854
 21
-13.416138
 31
0.0
  0
LINE
  5
19f
100
AcDbEntity
  8
Layer_1
 62
7
100
AcDbLine
 10
47.617854
 20
-13.416138
 30
0.0
 11
47.499981
 21
-13.999999
 31
0.0
  0
LINE
  5
1a0
100
AcDbEntity
  8
Layer_1
 62
7
100
AcDbLine
 10
11.228016
 20
-5.864985
 30
0.0
 11
11.212907
 21
-6.261790
 31
0.0
  0
LINE
  5
1a1
100
AcDbEntity
  8
Layer_1
 62
7
100
AcDbLine
 10
11.212907
 20
-6.261790
 30
0.0
 11
11.346496
 21
-6.621149
 31
0.0
  0
LINE
  5
1a2
100
AcDbEntity
  8
Layer_1
 62
7
100
AcDbLine
 10
11.346496
 20
-6.621149
 30
0.0
 11
11.605090
 21
-6.904146
 31
0.0
  0
LINE
  5
1a3
100
AcDbEntity
  8
Layer_1
 62
7
100
AcDbLine
 10
11.605090
 20
-6.904146
 30
0.0
 11
11.964965
 21
-7.072031
 31
0.0
  0
LINE
  5
1a4
100
AcDbEntity
  8
Layer_1
 62
7
100
AcDbLine
 10
11.964965
 20
-7.072031
 30
0.0
 11
12.361786
 21
-7.087121
 31
0.0
  0
LINE
  5
1a5
100
AcDbEntity
  8
Layer_1
 62
7
100
AcDbLine
 10
12.361786
 20
-7.087121
 30
0.0
 11
12.721112
 21
-6.953541
 31
0.0
  0
LINE
  5
1a6
100
AcDbEntity
  8
Layer_1
 62
7
100
AcDbLine
 10
12.721112
 20
-6.953541
 30
0.0
 11
13.004133
 21
-6.694921
 31
0.0
  0
LINE
  5
1a7
100
AcDbEntity
  8
Layer_1
 62
7
100
AcDbLine
 10
13.004133
 20
-6.694921
 30
0.0
 11
13.171992
 21
-6.335051
 31
0.0
  0
LINE
  5
1a8
100
AcDbEntity
  8
Layer_1
 62
7
100
AcDbLine
 10
13.171992
 20
-6.335051
 30
0.0
 11
13.187093
 21
-5.938244
 31
0.0
  0
LINE
  5
1a9
100
AcDbEntity
  8
Layer_1
 62
7
100
AcDbLine
 10
13.187093
 20
-5.938244
 30
0.0
 11
13.053498
 21
-5.578912
 31
0.0
  0
LINE
  5
1aa
100
AcDbEntity
  8
Layer_1
 62
7
100
AcDbLine
 10
13.053498
 20
-5.578912
 30
0.0
 11
12.794910
 21
-5.295887
 31
0.0
  0
LINE
  5
1ab
100
AcDbEntity
  8
Layer_1
 62
7
100
AcDbLine
 10
12.794910
 20
-5.295887
 30
0.0
 11
12.435037
 21
-5.128033
 31
0.0
  0
LINE
  5
1ac
100
AcDbEntity
  8
Layer_1
 62
7
100
AcDbLine
 10
12.435037
 20
-5.128033
 30
0.0
 11
12.038224
 21
-5.112944
 31
0.0
  0
LINE
  5
1ad
100
AcDbEntity
  8
Layer_1
 62
7
100
AcDbLine
 10
12.038224
 20
-5.112944
 30
0.0
 11
11.678898
 21
-5.246524
 31
0.0
  0
LINE
  5
1ae
100
AcDbEntity
  8
Layer_1
 62
7
100
AcDbLine
 10
11.678898
 20
-5.246524
 30
0.0
 11
11.395884
 21
-5.505117
 31
0.0
  0
LINE
  5
1af
100
AcDbEntity
  8
Layer_1
 62
7
100
AcDbLine
 10
11.395884
 20
-5.505117
 30
0.0
 11
11.228016
 21
-5.864985
 31
0.0
  0
LINE
  5
1b0
100
AcDbEntity
  8
Layer_1
 62
7
100
AcDbLine
 10
22.628028
 20
2.435052
 30
0.0
 11
22.612926
 21
2.038239
 31
0.0
  0
LINE
  5
1b1
100
AcDbEntity
  8
Layer_1
 62
7
100
AcDbLine
 10
22.612926
 20
2.038239
 30
0.0
 11
22.746523
 21
1.678913
 31
0.0
  0
LINE
  5
1b2
100
AcDbEntity
  8
Layer_1
 62
7
100
AcDbLine
 10
22.746523
 20
1.678913
 30
0.0
 11
23.005110
 21
1.395900
 31
0.0
  0
LINE
  5
1b3
100
AcDbEntity
  8
Layer_1
 62
7
100
AcDbLine
 10
23.005110
 20
1.395900
 30
0.0
 11
23.364983
 21
1.228031
 31
0.0
  0
LINE
  5
1b4
100
AcDbEntity
  8
Layer_1
 62
7
100
AcDbLine
 10
23.364983
 20
1.228031
 30
0.0
 11
23.761793
 21
1.212929
 31
0.0
  0
LINE
  5
1b5
100
AcDbEntity
  8
Layer_1
 62
7
100
AcDbLine
 10
23.761793
 20
1.212929
 30
0.0
 11
24.121120
 21
1.346526
 31
0.0
  0
LINE
  5
1b6
100
AcDbEntity
  8
Layer_1
 62
7
100
AcDbLine
 10
24.121120
 20
1.346526
 30
0.0
 11
24.404133
 21
1.605116
 31
0.0
  0
LINE
  5
1b7
100
AcDbEntity
  8
Layer_1
 62
7
100
AcDbLine
 10
24.404133
 20
1.605116
 30
0.0
 11
24.572002
 21
1.964986
 31
0.0
  0
LINE
  5
1b8
100
AcDbEntity
  8
Layer_1
 62
7
100
AcDbLine
 10
24.572002
 20
1.964986
 30
0.0
 11
24.587104
 21
2.361796
 31
0.0
  0
LINE
  5
1b9
100
AcDbEntity
  8
Layer_1
 62
7
100
AcDbLine
 10
24.587104
 20
2.361796
 30
0.0
 11
24.453507
 21
2.721123
 31
0.0
  0
LINE
  5
1ba
100
AcDbEntity
  8
Layer_1
 62
7
100
AcDbLine
 10
24.453507
 20
2.721123
 30
0.0
 11
24.194919
 21
3.004136
 31
0.0
  0
LINE
  5
1bb
100
AcDbEntity
  8
Layer_1
 62
7
100
AcDbLine
 10
24.194919
 20
3.004136
 30
0.0
 11
23.835049
 21
3.172004
 31
0.0
  0
LINE
  5
1bc
100
AcDbEntity
  8
Layer_1
 62
7
100
AcDbLine
 10
23.835049
 20
3.172004
 30
0.0
 11
23.438239
 21
3.187106
 31
0.0
  0
LINE
  5
1bd
100
AcDbEntity
  8
Layer_1
 62
7
100
AcDbLine
 10
23.438239
 20
3.187106
 30
0.0
 11
23.078910
 21
3.053510
 31
0.0
  0
LINE
  5
1be
100
AcDbEntity
  8
Layer_1
 62
7
100
AcDbLine
 10
23.078910
 20
3.053510
 30
0.0
 11
22.795897
 21
2.794922
 31
0.0
  0
LINE
  5
1bf
100
AcDbEntity
  8
Layer_1
 62
7
100
AcDbLine
 10
22.795897
 20
2.794922
 30
0.0
 11
22.628028
 21
2.435052
 31
0.0
  0
LINE
  5
1c0
100
AcDbEntity
  8
Layer_1
 62
7
100
AcDbLine
 10
47.499981
 20
2.200008
 30
0.0
 11
47.617854
 21
1.616147
 31
0.0
  0
LINE
  5
1c1
100
AcDbEntity
  8
Layer_1
 62
7
100
AcDbLine
 10
47.617854
 20
1.616147
 30
0.0
 11
47.939317
 21
1.139332
 31
0.0
  0
LINE
  5
1c2
100
AcDbEntity
  8
Layer_1
 62
7
100
AcDbLine
 10
47.939317
 20
1.139332
 30
0.0
 11
48.416111
 21
0.817881
 31
0.0
  0
LINE
  5
1c3
100
AcDbEntity
  8
Layer_1
 62
7
100
AcDbLine
 10
48.416111
 20
0.817881
 30
0.0
 11
48.999981
 21
0.699997
 31
0.0
  0
LINE
  5
1c4
100
AcDbEntity
  8
Layer_1
 62
7
100
AcDbLine
 10
48.999981
 20
0.699997
 30
0.0
 11
49.583851
 21
0.817881
 31
0.0
  0
LINE
  5
1c5
100
AcDbEntity
  8
Layer_1
 62
7
100
AcDbLine
 10
49.583851
 20
0.817881
 30
0.0
 11
50.060646
 21
1.139332
 31
0.0
  0
LINE
  5
1c6
100
AcDbEntity
  8
Layer_1
 62
7
100
AcDbLine
 10
50.060646
 20
1.139332
 30
0.0
 11
50.382108
 21
1.616147
 31
0.0
  0
LINE
  5
1c7
100
AcDbEntity
  8
Layer_1
 62
7
100
AcDbLine
 10
50.382108
 20
1.616147
 30
0.0
 11
50.499981
 21
2.200008
 31
0.0
  0
LINE
  5
1c8
100
AcDbEntity
  8
Layer_1
 62
7
100
AcDbLine
 10
50.499981
 20
2.200008
 30
0.0
 11
50.382108
 21
2.783870
 31
0.0
  0
LINE
  5
1c9
100
AcDbEntity
  8
Layer_1
 62
7
100
AcDbLine
 10
50.382108
 20
2.783870
 30
0.0
 11
50.060646
 21
3.260684
 31
0.0
  0
LINE
  5
1ca
100
AcDbEntity
  8
Layer_1
 62
7
100
AcDbLine
 10
50.060646
 20
3.260684
 30
0.0
 11
49.583851
 21
3.582135
 31
0.0
  0
LINE
  5
1cb
100
AcDbEntity
  8
Layer_1
 62
7
100
AcDbLine
 10
49.583851
 20
3.582135
 30
0.0
 11
48.999981
 21
3.700019
 31
0.0
  0
LINE
  5
1cc
100
AcDbEntity
  8
Layer_1
 62
7
100
AcDbLine
 10
48.999981
 20
3.700019
 30
0.0
 11
48.416111
 21
3.582135
 31
0.0
  0
LINE
  5
1cd
100
AcDbEntity
  8
Layer_1
 62
7
100
AcDbLine
 10
48.416111
 20
3.582135
 30
0.0
 11
47.939317
 21
3.260684
 31
0.0
  0
LINE
  5
1ce
100
AcDbEntity
  8
Layer_1
 62
7
100
AcDbLine
 10
47.939317
 20
3.260684
 30
0.0
 11
47.617854
 21
2.783870
 31
0.0
  0
LINE
  5
1cf
100
AcDbEntity
  8
Layer_1
 62
7
100
AcDbLine
 10
47.617854
 20
2.783870
 30
0.0
 11
47.499981
 21
2.200008
 31
0.0
  0
LINE
  5
1d0
100
AcDbEntity
  8
Layer_1
 62
7
100
AcDbLine
 10
-47.999991
 20
11.000036
 30
0.0
 11
-48.157164
 21
10.221554
 31
0.0
  0
LINE
  5
1d1
100
AcDbEntity
  8
Layer_1
 62
7
100
AcDbLine
 10
-48.157164
 20
10.221554
 30
0.0
 11
-48.585780
 21
9.585820
 31
0.0
  0
LINE
  5
1d2
100
AcDbEntity
  8
Layer_1
 62
7
100
AcDbLine
 10
-48.585780
 20
9.585820
 30
0.0
 11
-49.221503
 21
9.157209
 31
0.0
  0
LINE
  5
1d3
100
AcDbEntity
  8
Layer_1
 62
7
100
AcDbLine
 10
-49.221503
 20
9.157209
 30
0.0
 11
-49.999993
 21
9.000040
 31
0.0
  0
LINE
  5
1d4
100
AcDbEntity
  8
Layer_1
 62
7
100
AcDbLine
 10
-49.999993
 20
9.000040
 30
0.0
 11
-50.778483
 21
9.157209
 31
0.0
  0
LINE
  5
1d5
100
AcDbEntity
  8
Layer_1
 62
7
100
AcDbLine
 10
-50.778483
 20
9.157209
 30
0.0
 11
-51.414206
 21
9.585820
 31
0.0
  0
LINE
  5
1d6
100
AcDbEntity
  8
Layer_1
 62
7
100
AcDbLine
 10
-51.414206
 20
9.585820
 30
0.0
 11
-51.842822
 21
10.221554
 31
0.0
  0
LINE
  5
1d7
100
AcDbEntity
  8
Layer_1
 62
7
100
AcDbLine
 10
-51.842822
 20
10.221554
 30
0.0
 11
-51.999992
 21
11.000036
 31
0.0
  0
LINE
  5
1d8
100
AcDbEntity
  8
Layer_1
 62
7
100
AcDbLine
 10
-51.999992
 20
11.000036
 30
0.0
 11
-51.842822
 21
11.778518
 31
0.0
  0
LINE
  5
1d9
100
AcDbEntity
  8
Layer_1
 62
7
100
AcDbLine
 10
-51.842822
 20
11.778518
 30
0.0
 11
-51.414206
 21
12.414251
 31
0.0
  0
LINE
  5
1da
100
AcDbEntity
  8
Layer_1
 62
7
100
AcDbLine
 10
-51.414206
 20
12.414251
 30
0.0
 11
-50.778483
 21
12.842862
 31
0.0
  0
LINE
  5
1db
100
AcDbEntity
  8
Layer_1
 62
7
100
AcDbLine
 10
-50.778483
 20
12.842862
 30
0.0
 11
-49.999993
 21
13.000032
 31
0.0
  0
LINE
  5
1dc
100
AcDbEntity
  8
Layer_1
 62
7
100
AcDbLine
 10
-49.999993
 20
13.000032
 30
0.0
 11
-49.221503
 21
12.842862
 31
0.0
  0
LINE
  5
1dd
100
AcDbEntity
  8
Layer_1
 62
7
100
AcDbLine
 10
-49.221503
 20
12.842862
 30
0.0
 11
-48.585778
 21
12.414251
 31
0.0
  0
LINE
  5
1de
100
AcDbEntity
  8
Layer_1
 62
7
100
AcDbLine
 10
-48.585778
 20
12.414251
 30
0.0
 11
-48.157161
 21
11.778518
 31
0.0
  0
LINE
  5
1df
100
AcDbEntity
  8
Layer_1
 62
7
100
AcDbLine
 10
-48.157161
 20
11.778518
 30
0.0
 11
-47.999991
 21
11.000036
 31
0.0
  0
LINE
  5
1e0
100
AcDbEntity
  8
Layer_1
 62
7
100
AcDbLine
 10
-38.000000
 20
10.999979
 30
0.0
 11
-38.157170
 21
10.221498
 31
0.0
  0
LINE
  5
1e1
100
AcDbEntity
  8
Layer_1
 62
7
100
AcDbLine
 10
-38.157170
 20
10.221498
 30
0.0
 11
-38.585786
 21
9.585764
 31
0.0
  0
LINE
  5
1e2
100
AcDbEntity
  8
Layer_1
 62
7
100
AcDbLine
 10
-38.585786
 20
9.585764
 30
0.0
 11
-39.221509
 21
9.157153
 31
0.0
  0
LINE
  5
1e3
100
AcDbEntity
  8
Layer_1
 62
7
100
AcDbLine
 10
-39.221509
 20
9.157153
 30
0.0
 11
-39.999999
 21
8.999983
 31
0.0
  0
LINE
  5
1e4
100
AcDbEntity
  8
Layer_1
 62
7
100
AcDbLine
 10
-39.999999
 20
8.999983
 30
0.0
 11
-40.778489
 21
9.157153
 31
0.0
  0
LINE
  5
1e5
100
AcDbEntity
  8
Layer_1
 62
7
100
AcDbLine
 10
-40.778489
 20
9.157153
 30
0.0
 11
-41.414212
 21
9.585764
 31
0.0
  0
LINE
  5
1e6
100
AcDbEntity
  8
Layer_1
 62
7
100
AcDbLine
 10
-41.414212
 20
9.585764
 30
0.0
 11
-41.842828
 21
10.221498
 31
0.0
  0
LINE
  5
1e7
100
AcDbEntity
  8
Layer_1
 62
7
100
AcDbLine
 10
-41.842828
 20
10.221498
 30
0.0
 11
-42.000001
 21
10.999979
 31
0.0
  0
LINE
  5
1e8
100
AcDbEntity
  8
Layer_1
 62
7
100
AcDbLine
 10
-42.000001
 20
10.999979
 30
0.0
 11
-41.842831
 21
11.778461
 31
0.0
  0
LINE
  5
1e9
100
AcDbEntity
  8
Layer_1
 62
7
100
AcDbLine
 10
-41.842831
 20
11.778461
 30
0.0
 11
-41.414215
 21
12.414195
 31
0.0
  0
LINE
  5
1ea
100
AcDbEntity
  8
Layer_1
 62
7
100
AcDbLine
 10
-41.414215
 20
12.414195
 30
0.0
 11
-40.778489
 21
12.842806
 31
0.0
  0
LINE
  5
1eb
100
AcDbEntity
  8
Layer_1
 62
7
100
AcDbLine
 10
-40.778489
 20
12.842806
 30
0.0
 11
-39.999999
 21
12.999975
 31
0.0
  0
LINE
  5
1ec
100
AcDbEntity
  8
Layer_1
 62
7
100
AcDbLine
 10
-39.999999
 20
12.999975
 30
0.0
 11
-39.221509
 21
12.842806
 31
0.0
  0
LINE
  5
1ed
100
AcDbEntity
  8
Layer_1
 62
7
100
AcDbLine
 10
-39.221509
 20
12.842806
 30
0.0
 11
-38.585786
 21
12.414195
 31
0.0
  0
LINE
  5
1ee
100
AcDbEntity
  8
Layer_1
 62
7
100
AcDbLine
 10
-38.585786
 20
12.414195
 30
0.0
 11
-38.157170
 21
11.778461
 31
0.0
  0
LINE
  5
1ef
100
AcDbEntity
  8
Layer_1
 62
7
100
AcDbLine
 10
-38.157170
 20
11.778461
 30
0.0
 11
-38.000000
 21
10.999979
 31
0.0
  0
LINE
  5
1f0
100
AcDbEntity
  8
Layer_1
 62
7
100
AcDbLine
 10
-28.000008
 20
11.000036
 30
0.0
 11
-28.157179
 21
10.221554
 31
0.0
  0
LINE
  5
1f1
100
AcDbEntity
  8
Layer_1
 62
7
100
AcDbLine
 10
-28.157179
 20
10.221554
 30
0.0
 11
-28.585795
 21
9.585820
 31
0.0
  0
LINE
  5
1f2
100
AcDbEntity
  8
Layer_1
 62
7
100
AcDbLine
 10
-28.585795
 20
9.585820
 30
0.0
 11
-29.221517
 21
9.157209
 31
0.0
  0
LINE
  5
1f3
100
AcDbEntity
  8
Layer_1
 62
7
100
AcDbLine
 10
-29.221517
 20
9.157209
 30
0.0
 11
-30.000008
 21
9.000040
 31
0.0
  0
LINE
  5
1f4
100
AcDbEntity
  8
Layer_1
 62
7
100
AcDbLine
 10
-30.000008
 20
9.000040
 30
0.0
 11
-30.778498
 21
9.157209
 31
0.0
  0
LINE
  5
1f5
100
AcDbEntity
  8
Layer_1
 62
7
100
AcDbLine
 10
-30.778498
 20
9.157209
 30
0.0
 11
-31.414220
 21
9.585820
 31
0.0
  0
LINE
  5
1f6
100
AcDbEntity
  8
Layer_1
 62
7
100
AcDbLine
 10
-31.414220
 20
9.585820
 30
0.0
 11
-31.842837
 21
10.221554
 31
0.0
  0
LINE
  5
1f7
100
AcDbEntity
  8
Layer_1
 62
7
100
AcDbLine
 10
-31.842837
 20
10.221554
 30
0.0
 11
-32.000007
 21
11.000036
 31
0.0
  0
LINE
  5
1f8
100
AcDbEntity
  8
Layer_1
 62
7
100
AcDbLine
 10
-32.000007
 20
11.000036
 30
0.0
 11
-31.842837
 21
11.778518
 31
0.0
  0
LINE
  5
1f9
100
AcDbEntity
  8
Layer_1
 62
7
100
AcDbLine
 10
-31.842837
 20
11.778518
 30
0.0
 11
-31.414220
 21
12.414251
 31
0.0
  0
LINE
  5
1fa
100
AcDbEntity
  8
Layer_1
 62
7
100
AcDbLine
 10
-31.414220
 20
12.414251
 30
0.0
 11
-30.778498
 21
12.842862
 31
0.0
  0
LINE
  5
1fb
100
AcDbEntity
  8
Layer_1
 62
7
100
AcDbLine
 10
-30.778498
 20
12.842862
 30
0.0
 11
-30.000008
 21
13.000032
 31
0.0
  0
LINE
  5
1fc
100
AcDbEntity
  8
Layer_1
 62
7
100
AcDbLine
 10
-30.000008
 20
13.000032
 30
0.0
 11
-29.221517
 21
12.842862
 31
0.0
  0
LINE
  5
1fd
100
AcDbEntity
  8
Layer_1
 62
7
100
AcDbLine
 10
-29.221517
 20
12.842862
 30
0.0
 11
-28.585795
 21
12.414251
 31
0.0
  0
LINE
  5
1fe
100
AcDbEntity
  8
Layer_1
 62
7
100
AcDbLine
 10
-28.585795
 20
12.414251
 30
0.0
 11
-28.157177
 21
11.778518
 31
0.0
  0
LINE
  5
1ff
100
AcDbEntity
  8
Layer_1
 62
7
100
AcDbLine
 10
-28.157177
 20
11.778518
 30
0.0
 11
-28.000008
 21
11.000036
 31
0.0
  0
LINE
  5
200
100
AcDbEntity
  8
Layer_1
 62
7
100
AcDbLine
 10
-17.999994
 20
10.999979
 30
0.0
 11
-18.157165
 21
10.221498
 31
0.0
  0
LINE
  5
201
100
AcDbEntity
  8
Layer_1
 62
7
100
AcDbLine
 10
-18.157165
 20
10.221498
 30
0.0
 11
-18.585781
 21
9.585764
 31
0.0
  0
LINE
  5
202
100
AcDbEntity
  8
Layer_1
 62
7
100
AcDbLine
 10
-18.585781
 20
9.585764
 30
0.0
 11
-19.221504
 21
9.157153
 31
0.0
  0
LINE
  5
203
100
AcDbEntity
  8
Layer_1
 62
7
100
AcDbLine
 10
-19.221504
 20
9.157153
 30
0.0
 11
-19.999994
 21
8.999983
 31
0.0
  0
LINE
  5
204
100
AcDbEntity
  8
Layer_1
 62
7
100
AcDbLine
 10
-19.999994
 20
8.999983
 30
0.0
 11
-20.778483
 21
9.157153
 31
0.0
  0
LINE
  5
205
100
AcDbEntity
  8
Layer_1
 62
7
100
AcDbLine
 10
-20.778483
 20
9.157153
 30
0.0
 11
-21.414206
 21
9.585764
 31
0.0
  0
LINE
  5
206
100
AcDbEntity
  8
Layer_1
 62
7
100
AcDbLine
 10
-21.414206
 20
9.585764
 30
0.0
 11
-21.842823
 21
10.221498
 31
0.0
  0
LINE
  5
207
100
AcDbEntity
  8
Layer_1
 62
7
100
AcDbLine
 10
-21.842823
 20
10.221498
 30
0.0
 11
-21.999994
 21
10.999979
 31
0.0
  0
LINE
  5
208
100
AcDbEntity
  8
Layer_1
 62
7
100
AcDbLine
 10
-21.999994
 20
10.999979
 30
0.0
 11
-21.842825
 21
11.778461
 31
0.0
  0
LINE
  5
209
100
AcDbEntity
  8
Layer_1
 62
7
100
AcDbLine
 10
-21.842825
 20
11.778461
 30
0.0
 11
-21.414207
 21
12.414195
 31
0.0
  0
LINE
  5
20a
100
AcDbEntity
  8
Layer_1
 62
7
100
AcDbLine
 10
-21.414207
 20
12.414195
 30
0.0
 11
-20.778484
 21
12.842806
 31
0.0
  0
LINE
  5
20b
100
AcDbEntity
  8
Layer_1
 62
7
100
AcDbLine
 10
-20.778484
 20
12.842806
 30
0.0
 11
-19.999994
 21
12.999975
 31
0.0
  0
LINE
  5
20c
100
AcDbEntity
  8
Layer_1
 62
7
100
AcDbLine
 10
-19.999994
 20
12.999975
 30
0.0
 11
-19.221504
 21
12.842806
 31
0.0
  0
LINE
  5
20d
100
AcDbEntity
  8
Layer_1
 62
7
100
AcDbLine
 10
-19.221504
 20
12.842806
 30
0.0
 11
-18.585780
 21
12.414195
 31
0.0
  0
LINE
  5
20e
100
AcDbEntity
  8
Layer_1
 62
7
100
AcDbLine
 10
-18.585780
 20
12.414195
 30
0.0
 11
-18.157163
 21
11.778461
 31
0.0
  0
LINE
  5
20f
100
AcDbEntity
  8
Layer_1
 62
7
100
AcDbLine
 10
-18.157163
 20
11.778461
 30
0.0
 11
-17.999994
 21
10.999979
 31
0.0
  0
LINE
  5
210
100
AcDbEntity
  8
Layer_1
 62
7
100
AcDbLine
 10
-8.000002
 20
11.000036
 30
0.0
 11
-8.157173
 21
10.221554
 31
0.0
  0
LINE
  5
211
100
AcDbEntity
  8
Layer_1
 62
7
100
AcDbLine
 10
-8.157173
 20
10.221554
 30
0.0
 11
-8.585790
 21
9.585820
 31
0.0
  0
LINE
  5
212
100
AcDbEntity
  8
Layer_1
 62
7
100
AcDbLine
 10
-8.585790
 20
9.585820
 30
0.0
 11
-9.221513
 21
9.157209
 31
0.0
  0
LINE
  5
213
100
AcDbEntity
  8
Layer_1
 62
7
100
AcDbLine
 10
-9.221513
 20
9.157209
 30
0.0
 11
-10.000002
 21
9.000040
 31
0.0
  0
LINE
  5
214
100
AcDbEntity
  8
Layer_1
 62
7
100
AcDbLine
 10
-10.000002
 20
9.000040
 30
0.0
 11
-10.778492
 21
9.157209
 31
0.0
  0
LINE
  5
215
100
AcDbEntity
  8
Layer_1
 62
7
100
AcDbLine
 10
-10.778492
 20
9.157209
 30
0.0
 11
-11.414214
 21
9.585820
 31
0.0
  0
LINE
  5
216
100
AcDbEntity
  8
Layer_1
 62
7
100
AcDbLine
 10
-11.414214
 20
9.585820
 30
0.0
 11
-11.842831
 21
10.221554
 31
0.0
  0
LINE
  5
217
100
AcDbEntity
  8
Layer_1
 62
7
100
AcDbLine
 10
-11.842831
 20
10.221554
 30
0.0
 11
-12.000002
 21
11.000036
 31
0.0
  0
LINE
  5
218
100
AcDbEntity
  8
Layer_1
 62
7
100
AcDbLine
 10
-12.000002
 20
11.000036
 30
0.0
 11
-11.842833
 21
11.778518
 31
0.0
  0
LINE
  5
219
100
AcDbEntity
  8
Layer_1
 62
7
100
AcDbLine
 10
-11.842833
 20
11.778518
 30
0.0
 11
-11.414216
 21
12.414251
 31
0.0
  0
LINE
  5
21a
100
AcDbEntity
  8
Layer_1
 62
7
100
AcDbLine
 10
-11.414216
 20
12.414251
 30
0.0
 11
-10.778492
 21
12.842862
 31
0.0
  0
LINE
  5
21b
100
AcDbEntity
  8
Layer_1
 62
7
100
AcDbLine
 10
-10.778492
 20
12.842862
 30
0.0
 11
-10.000002
 21
13.000032
 31
0.0
  0
LINE
  5
21c
100
AcDbEntity
  8
Layer_1
 62
7
100
AcDbLine
 10
-10.000002
 20
13.000032
 30
0.0
 11
-9.221512
 21
12.842862
 31
0.0
  0
LINE
  5
21d
100
AcDbEntity
  8
Layer_1
 62
7
100
AcDbLine
 10
-9.221512
 20
12.842862
 30
0.0
 11
-8.585788
 21
12.414251
 31
0.0
  0
LINE
  5
21e
100
AcDbEntity
  8
Layer_1
 62
7
100
AcDbLine
 10
-8.585788
 20
12.414251
 30
0.0
 11
-8.157172
 21
11.778518
 31
0.0
  0
LINE
  5
21f
100
AcDbEntity
  8
Layer_1
 62
7
100
AcDbLine
 10
-8.157172
 20
11.778518
 30
0.0
 11
-8.000002
 21
11.000036
 31
0.0
  0
LINE
  5
220
100
AcDbEntity
  8
Layer_1
 62
7
100
AcDbLine
 10
1.999991
 20
10.999979
 30
0.0
 11
1.842820
 21
10.221498
 31
0.0
  0
LINE
  5
221
100
AcDbEntity
  8
Layer_1
 62
7
100
AcDbLine
 10
1.842820
 20
10.221498
 30
0.0
 11
1.414203
 21
9.585764
 31
0.0
  0
LINE
  5
222
100
AcDbEntity
  8
Layer_1
 62
7
100
AcDbLine
 10
1.414203
 20
9.585764
 30
0.0
 11
0.778480
 21
9.157153
 31
0.0
  0
LINE
  5
223
100
AcDbEntity
  8
Layer_1
 62
7
100
AcDbLine
 10
0.778480
 20
9.157153
 30
0.0
 11
-0.000009
 21
8.999983
 31
0.0
  0
LINE
  5
224
100
AcDbEntity
  8
Layer_1
 62
7
100
AcDbLine
 10
-0.000009
 20
8.999983
 30
0.0
 11
-0.778499
 21
9.157153
 31
0.0
  0
LINE
  5
225
100
AcDbEntity
  8
Layer_1
 62
7
100
AcDbLine
 10
-0.778499
 20
9.157153
 30
0.0
 11
-1.414222
 21
9.585764
 31
0.0
  0
LINE
  5
226
100
AcDbEntity
  8
Layer_1
 62
7
100
AcDbLine
 10
-1.414222
 20
9.585764
 30
0.0
 11
-1.842838
 21
10.221498
 31
0.0
  0
LINE
  5
227
100
AcDbEntity
  8
Layer_1
 62
7
100
AcDbLine
 10
-1.842838
 20
10.221498
 30
0.0
 11
-2.000009
 21
10.999979
 31
0.0
  0
LINE
  5
228
100
AcDbEntity
  8
Layer_1
 62
7
100
AcDbLine
 10
-2.000009
 20
10.999979
 30
0.0
 11
-1.842840
 21
11.778461
 31
0.0
  0
LINE
  5
229
100
AcDbEntity
  8
Layer_1
 62
7
100
AcDbLine
 10
-1.842840
 20
11.778461
 30
0.0
 11
-1.414223
 21
12.414195
 31
0.0
  0
LINE
  5
22a
100
AcDbEntity
  8
Layer_1
 62
7
100
AcDbLine
 10
-1.414223
 20
12.414195
 30
0.0
 11
-0.778499
 21
12.842806
 31
0.0
  0
LINE
  5
22b
100
AcDbEntity
  8
Layer_1
 62
7
100
AcDbLine
 10
-0.778499
 20
12.842806
 30
0.0
 11
-0.000009
 21
12.999975
 31
0.0
  0
LINE
  5
22c
100
AcDbEntity
  8
Layer_1
 62
7
100
AcDbLine
 10
-0.000009
 20
12.999975
 30
0.0
 11
0.778481
 21
12.842806
 31
0.0
  0
LINE
  5
22d
100
AcDbEntity
  8
Layer_1
 62
7
100
AcDbLine
 10
0.778481
 20
12.842806
 30
0.0
 11
1.414204
 21
12.414195
 31
0.0
  0
LINE
  5
22e
100
AcDbEntity
  8
Layer_1
 62
7
100
AcDbLine
 10
1.414204
 20
12.414195
 30
0.0
 11
1.842821
 21
11.778461
 31
0.0
  0
LINE
  5
22f
100
AcDbEntity
  8
Layer_1
 62
7
100
AcDbLine
 10
1.842821
 20
11.778461
 30
0.0
 11
1.999991
 21
10.999979
 31
0.0
  0
LINE
  5
230
100
AcDbEntity
  8
Layer_1
 62
7
100
AcDbLine
 10
12.000000
 20
11.000036
 30
0.0
 11
11.842829
 21
10.221554
 31
0.0
  0
LINE
  5
231
100
AcDbEntity
  8
Layer_1
 62
7
100
AcDbLine
 10
11.842829
 20
10.221554
 30
0.0
 11
11.414212
 21
9.585820
 31
0.0
  0
LINE
  5
232
100
AcDbEntity
  8
Layer_1
 62
7
100
AcDbLine
 10
11.414212
 20
9.585820
 30
0.0
 11
10.778489
 21
9.157209
 31
0.0
  0
LINE
  5
233
100
AcDbEntity
  8
Layer_1
 62
7
100
AcDbLine
 10
10.778489
 20
9.157209
 30
0.0
 11
10.000000
 21
9.000040
 31
0.0
  0
LINE
  5
234
100
AcDbEntity
  8
Layer_1
 62
7
100
AcDbLine
 10
10.000000
 20
9.000040
 30
0.0
 11
9.221511
 21
9.157209
 31
0.0
  0
LINE
  5
235
100
AcDbEntity
  8
Layer_1
 62
7
100
AcDbLine
 10
9.221511
 20
9.157209
 30
0.0
 11
8.585788
 21
9.585820
 31
0.0
  0
LINE
  5
236
100
AcDbEntity
  8
Layer_1
 62
7
100
AcDbLine
 10
8.585788
 20
9.585820
 30
0.0
 11
8.157171
 21
10.221554
 31
0.0
  0
LINE
  5
237
100
AcDbEntity
  8
Layer_1
 62
7
100
AcDbLine
 10
8.157171
 20
10.221554
 30
0.0
 11
8.000000
 21
11.000036
 31
0.0
  0
LINE
  5
238
100
AcDbEntity
  8
Layer_1
 62
7
100
AcDbLine
 10
8.000000
 20
11.000036
 30
0.0
 11
8.157169
 21
11.778518
 31
0.0
  0
LINE
  5
239
100
AcDbEntity
  8
Layer_1
 62
7
100
AcDbLine
 10
8.157169
 20
11.778518
 30
0.0
 11
8.585786
 21
12.414251
 31
0.0
  0
LINE
  5
23a
100
AcDbEntity
  8
Layer_1
 62
7
100
AcDbLine
 10
8.585786
 20
12.414251
 30
0.0
 11
9.221510
 21
12.842862
 31
0.0
  0
LINE
  5
23b
100
AcDbEntity
  8
Layer_1
 62
7
100
AcDbLine
 10
9.221510
 20
12.842862
 30
0.0
 11
10.000000
 21
13.000032
 31
0.0
  0
LINE
  5
23c
100
AcDbEntity
  8
Layer_1
 62
7
100
AcDbLine
 10
10.000000
 20
13.000032
 30
0.0
 11
10.778490
 21
12.842862
 31
0.0
  0
LINE
  5
23d
100
AcDbEntity
  8
Layer_1
 62
7
100
AcDbLine
 10
10.778490
 20
12.842862
 30
0.0
 11
11.414214
 21
12.414251
 31
0.0
  0
LINE
  5
23e
100
AcDbEntity
  8
Layer_1
 62
7
100
AcDbLine
 10
11.414214
 20
12.414251
 30
0.0
 11
11.842831
 21
11.778518
 31
0.0
  0
LINE
  5
23f
100
AcDbEntity
  8
Layer_1
 62
7
100
AcDbLine
 10
11.842831
 20
11.778518
 30
0.0
 11
12.000000
 21
11.000036
 31
0.0
  0
LINE
  5
240
100
AcDbEntity
  8
Layer_1
 62
7
100
AcDbLine
 10
21.999994
 20
10.999979
 30
0.0
 11
21.842823
 21
10.221498
 31
0.0
  0
LINE
  5
241
100
AcDbEntity
  8
Layer_1
 62
7
100
AcDbLine
 10
21.842823
 20
10.221498
 30
0.0
 11
21.414206
 21
9.585764
 31
0.0
  0
LINE
  5
242
100
AcDbEntity
  8
Layer_1
 62
7
100
AcDbLine
 10
21.414206
 20
9.585764
 30
0.0
 11
20.778483
 21
9.157153
 31
0.0
  0
LINE
  5
243
100
AcDbEntity
  8
Layer_1
 62
7
100
AcDbLine
 10
20.778483
 20
9.157153
 30
0.0
 11
19.999994
 21
8.999983
 31
0.0
  0
LINE
  5
244
100
AcDbEntity
  8
Layer_1
 62
7
100
AcDbLine
 10
19.999994
 20
8.999983
 30
0.0
 11
19.221504
 21
9.157153
 31
0.0
  0
LINE
  5
245
100
AcDbEntity
  8
Layer_1
 62
7
100
AcDbLine
 10
19.221504
 20
9.157153
 30
0.0
 11
18.585781
 21
9.585764
 31
0.0
  0
LINE
  5
246
100
AcDbEntity
  8
Layer_1
 62
7
100
AcDbLine
 10
18.585781
 20
9.585764
 30
0.0
 11
18.157165
 21
10.221498
 31
0.0
  0
LINE
  5
247
100
AcDbEntity
  8
Layer_1
 62
7
100
AcDbLine
 10
18.157165
 20
10.221498
 30
0.0
 11
17.999994
 21
10.999979
 31
0.0
  0
LINE
  5
248
100
AcDbEntity
  8
Layer_1
 62
7
100
AcDbLine
 10
17.999994
 20
10.999979
 30
0.0
 11
18.157163
 21
11.778461
 31
0.0
  0
LINE
  5
249
100
AcDbEntity
  8
Layer_1
 62
7
100
AcDbLine
 10
18.157163
 20
11.778461
 30
0.0
 11
18.585780
 21
12.414195
 31
0.0
  0
LINE
  5
24a
100
AcDbEntity
  8
Layer_1
 62
7
100
AcDbLine
 10
18.585780
 20
12.414195
 30
0.0
 11
19.221504
 21
12.842806
 31
0.0
  0
LINE
  5
24b
100
AcDbEntity
  8
Layer_1
 62
7
100
AcDbLine
 10
19.221504
 20
12.842806
 30
0.0
 11
19.999994
 21
12.999975
 31
0.0
  0
LINE
  5
24c
100
AcDbEntity
  8
Layer_1
 62
7
100
AcDbLine
 10
19.999994
 20
12.999975
 30
0.0
 11
20.778484
 21
12.842806
 31
0.0
  0
LINE
  5
24d
100
AcDbEntity
  8
Layer_1
 62
7
100
AcDbLine
 10
20.778484
 20
12.842806
 30
0.0
 11
21.414207
 21
12.414195
 31
0.0
  0
LINE
  5
24e
100
AcDbEntity
  8
Layer_1
 62
7
100
AcDbLine
 10
21.414207
 20
12.414195
 30
0.0
 11
21.842825
 21
11.778461
 31
0.0
  0
LINE
  5
24f
100
AcDbEntity
  8
Layer_1
 62
7
100
AcDbLine
 10
21.842825
 20
11.778461
 30
0.0
 11
21.999994
 21
10.999979
 31
0.0
  0
LINE
  5
250
100
AcDbEntity
  8
Layer_1
 62
7
100
AcDbLine
 10
32.000001
 20
11.000036
 30
0.0
 11
31.842831
 21
10.221554
 31
0.0
  0
LINE
  5
251
100
AcDbEntity
  8
Layer_1
 62
7
100
AcDbLine
 10
31.842831
 20
10.221554
 30
0.0
 11
31.414215
 21
9.585820
 31
0.0
  0
LINE
  5
252
100
AcDbEntity
  8
Layer_1
 62
7
100
AcDbLine
 10
31.414215
 20
9.585820
 30
0.0
 11
30.778492
 21
9.157209
 31
0.0
  0
LINE
  5
253
100
AcDbEntity
  8
Layer_1
 62
7
100
AcDbLine
 10
30.778492
 20
9.157209
 30
0.0
 11
30.000002
 21
9.000040
 31
0.0
  0
LINE
  5
254
100
AcDbEntity
  8
Layer_1
 62
7
100
AcDbLine
 10
30.000002
 20
9.000040
 30
0.0
 11
29.221512
 21
9.157209
 31
0.0
  0
LINE
  5
255
100
AcDbEntity
  8
Layer_1
 62
7
100
AcDbLine
 10
29.221512
 20
9.157209
 30
0.0
 11
28.585789
 21
9.585820
 31
0.0
  0
LINE
  5
256
100
AcDbEntity
  8
Layer_1
 62
7
100
AcDbLine
 10
28.585789
 20
9.585820
 30
0.0
 11
28.157173
 21
10.221554
 31
0.0
  0
LINE
  5
257
100
AcDbEntity
  8
Layer_1
 62
7
100
AcDbLine
 10
28.157173
 20
10.221554
 30
0.0
 11
28.000001
 21
11.000036
 31
0.0
  0
LINE
  5
258
100
AcDbEntity
  8
Layer_1
 62
7
100
AcDbLine
 10
28.000001
 20
11.000036
 30
0.0
 11
28.157171
 21
11.778518
 31
0.0
  0
LINE
  5
259
100
AcDbEntity
  8
Layer_1
 62
7
100
AcDbLine
 10
28.157171
 20
11.778518
 30
0.0
 11
28.585787
 21
12.414251
 31
0.0
  0
LINE
  5
25a
100
AcDbEntity
  8
Layer_1
 62
7
100
AcDbLine
 10
28.585787
 20
12.414251
 30
0.0
 11
29.221512
 21
12.842862
 31
0.0
  0
LINE
  5
25b
100
AcDbEntity
  8
Layer_1
 62
7
100
AcDbLine
 10
29.221512
 20
12.842862
 30
0.0
 11
30.000002
 21
13.000032
 31
0.0
  0
LINE
  5
25c
100
AcDbEntity
  8
Layer_1
 62
7
100
AcDbLine
 10
30.000002
 20
13.000032
 30
0.0
 11
30.778492
 21
12.842862
 31
0.0
  0
LINE
  5
25d
100
AcDbEntity
  8
Layer_1
 62
7
100
AcDbLine
 10
30.778492
 20
12.842862
 30
0.0
 11
31.414215
 21
12.414251
 31
0.0
  0
LINE
  5
25e
100
AcDbEntity
  8
Layer_1
 62
7
100
AcDbLine
 10
31.414215
 20
12.414251
 30
0.0
 11
31.842831
 21
11.778518
 31
0.0
  0
LINE
  5
25f
100
AcDbEntity
  8
Layer_1
 62
7
100
AcDbLine
 10
31.842831
 20
11.778518
 30
0.0
 11
32.000001
 21
11.000036
 31
0.0
  0
LINE
  5
260
100
AcDbEntity
  8
Layer_1
 62
7
100
AcDbLine
 10
41.999995
 20
10.999979
 30
0.0
 11
41.842825
 21
10.221498
 31
0.0
  0
LINE
  5
261
100
AcDbEntity
  8
Layer_1
 62
7
100
AcDbLine
 10
41.842825
 20
10.221498
 30
0.0
 11
41.414209
 21
9.585764
 31
0.0
  0
LINE
  5
262
100
AcDbEntity
  8
Layer_1
 62
7
100
AcDbLine
 10
41.414209
 20
9.585764
 30
0.0
 11
40.778486
 21
9.157153
 31
0.0
  0
LINE
  5
263
100
AcDbEntity
  8
Layer_1
 62
7
100
AcDbLine
 10
40.778486
 20
9.157153
 30
0.0
 11
39.999996
 21
8.999983
 31
0.0
  0
LINE
  5
264
100
AcDbEntity
  8
Layer_1
 62
7
100
AcDbLine
 10
39.999996
 20
8.999983
 30
0.0
 11
39.221506
 21
9.157153
 31
0.0
  0
LINE
  5
265
100
AcDbEntity
  8
Layer_1
 62
7
100
AcDbLine
 10
39.221506
 20
9.157153
 30
0.0
 11
38.585783
 21
9.585764
 31
0.0
  0
LINE
  5
266
100
AcDbEntity
  8
Layer_1
 62
7
100
AcDbLine
 10
38.585783
 20
9.585764
 30
0.0
 11
38.157167
 21
10.221498
 31
0.0
  0
LINE
  5
267
100
AcDbEntity
  8
Layer_1
 62
7
100
AcDbLine
 10
38.157167
 20
10.221498
 30
0.0
 11
37.999997
 21
10.999979
 31
0.0
  0
LINE
  5
268
100
AcDbEntity
  8
Layer_1
 62
7
100
AcDbLine
 10
37.999997
 20
10.999979
 30
0.0
 11
38.157167
 21
11.778461
 31
0.0
  0
LINE
  5
269
100
AcDbEntity
  8
Layer_1
 62
7
100
AcDbLine
 10
38.157167
 20
11.778461
 30
0.0
 11
38.585783
 21
12.414195
 31
0.0
  0
LINE
  5
26a
100
AcDbEntity
  8
Layer_1
 62
7
100
AcDbLine
 10
38.585783
 20
12.414195
 30
0.0
 11
39.221506
 21
12.842806
 31
0.0
  0
LINE
  5
26b
100
AcDbEntity
  8
Layer_1
 62
7
100
AcDbLine
 10
39.221506
 20
12.842806
 30
0.0
 11
39.999996
 21
12.999975
 31
0.0
  0
LINE
  5
26c
100
AcDbEntity
  8
Layer_1
 62
7
100
AcDbLine
 10
39.999996
 20
12.999975
 30
0.0
 11
40.778486
 21
12.842806
 31
0.0
  0
LINE
  5
26d
100
AcDbEntity
  8
Layer_1
 62
7
100
AcDbLine
 10
40.778486
 20
12.842806
 30
0.0
 11
41.414209
 21
12.414195
 31
0.0
  0
LINE
  5
26e
100
AcDbEntity
  8
Layer_1
 62
7
100
AcDbLine
 10
41.414209
 20
12.414195
 30
0.0
 11
41.842825
 21
11.778461
 31
0.0
  0
LINE
  5
26f
100
AcDbEntity
  8
Layer_1
 62
7
100
AcDbLine
 10
41.842825
 20
11.778461
 30
0.0
 11
41.999995
 21
10.999979
 31
0.0
  0
LINE
  5
270
100
AcDbEntity
  8
Layer_1
 62
7
100
AcDbLine
 10
51.999989
 20
11.000036
 30
0.0
 11
51.842817
 21
10.221554
 31
0.0
  0
LINE
  5
271
100
AcDbEntity
  8
Layer_1
 62
7
100
AcDbLine
 10
51.842817
 20
10.221554
 30
0.0
 11
51.414200
 21
9.585820
 31
0.0
  0
LINE
  5
272
100
AcDbEntity
  8
Layer_1
 62
7
100
AcDbLine
 10
51.414200
 20
9.585820
 30
0.0
 11
50.778478
 21
9.157209
 31
0.0
  0
LINE
  5
273
100
AcDbEntity
  8
Layer_1
 62
7
100
AcDbLine
 10
50.778478
 20
9.157209
 30
0.0
 11
49.999987
 21
9.000040
 31
0.0
  0
LINE
  5
274
100
AcDbEntity
  8
Layer_1
 62
7
100
AcDbLine
 10
49.999987
 20
9.000040
 30
0.0
 11
49.221497
 21
9.157209
 31
0.0
  0
LINE
  5
275
100
AcDbEntity
  8
Layer_1
 62
7
100
AcDbLine
 10
49.221497
 20
9.157209
 30
0.0
 11
48.585775
 21
9.585820
 31
0.0
  0
LINE
  5
276
100
AcDbEntity
  8
Layer_1
 62
7
100
AcDbLine
 10
48.585775
 20
9.585820
 30
0.0
 11
48.157158
 21
10.221554
 31
0.0
  0
LINE
  5
277
100
AcDbEntity
  8
Layer_1
 62
7
100
AcDbLine
 10
48.157158
 20
10.221554
 30
0.0
 11
47.999989
 21
11.000036
 31
0.0
  0
LINE
  5
278
100
AcDbEntity
  8
Layer_1
 62
7
100
AcDbLine
 10
47.999989
 20
11.000036
 30
0.0
 11
48.157158
 21
11.778518
 31
0.0
  0
LINE
  5
279
100
AcDbEntity
  8
Layer_1
 62
7
100
AcDbLine
 10
48.157158
 20
11.778518
 30
0.0
 11
48.585775
 21
12.414251
 31
0.0
  0
LINE
  5
27a
100
AcDbEntity
  8
Layer_1
 62
7
100
AcDbLine
 10
48.585775
 20
12.414251
 30
0.0
 11
49.221497
 21
12.842862
 31
0.0
  0
LINE
  5
27b
100
AcDbEntity
  8
Layer_1
 62
7
100
AcDbLine
 10
49.221497
 20
12.842862
 30
0.0
 11
49.999987
 21
13.000032
 31
0.0
  0
LINE
  5
27c
100
AcDbEntity
  8
Layer_1
 62
7
100
AcDbLine
 10
49.999987
 20
13.000032
 30
0.0
 11
50.778478
 21
12.842862
 31
0.0
  0
LINE
  5
27d
100
AcDbEntity
  8
Layer_1
 62
7
100
AcDbLine
 10
50.778478
 20
12.842862
 30
0.0
 11
51.414203
 21
12.414251
 31
0.0
  0
LINE
  5
27e
100
AcDbEntity
  8
Layer_1
 62
7
100
AcDbLine
 10
51.414203
 20
12.414251
 30
0.0
 11
51.842820
 21
11.778518
 31
0.0
  0
LINE
  5
27f
100
AcDbEntity
  8
Layer_1
 62
7
100
AcDbLine
 10
51.842820
 20
11.778518
 30
0.0
 11
51.999989
 21
11.000036
 31
0.0
  0
LINE
  5
280
100
AcDbEntity
  8
Layer_1
 62
7
100
AcDbLine
 10
-7.000022
 20
-7.500026
 30
0.0
 11
-3.500015
 21
-7.500026
 31
0.0
  0
LINE
  5
281
100
AcDbEntity
  8
Layer_1
 62
7
100
AcDbLine
 10
-3.500015
 20
-7.500026
 30
0.0
 11
-0.000008
 21
-7.500026
 31
0.0
  0
LINE
  5
282
100
AcDbEntity
  8
Layer_1
 62
7
100
AcDbLine
 10
-0.000008
 20
-7.500026
 30
0.0
 11
3.499999
 21
-7.500026
 31
0.0
  0
LINE
  5
283
100
AcDbEntity
  8
Layer_1
 62
7
100
AcDbLine
 10
3.499999
 20
-7.500026
 30
0.0
 11
7.000007
 21
-7.500026
 31
0.0
  0
LINE
  5
284
100
AcDbEntity
  8
Layer_1
 62
7
100
AcDbLine
 10
7.000007
 20
-7.500026
 30
0.0
 11
8.734373
 21
-5.449258
 31
0.0
  0
LINE
  5
285
100
AcDbEntity
  8
Layer_1
 62
7
100
AcDbLine
 10
8.734373
 20
-5.449258
 30
0.0
 11
9.624994
 21
-3.281284
 31
0.0
  0
LINE
  5
286
100
AcDbEntity
  8
Layer_1
 62
7
100
AcDbLine
 10
9.624994
 20
-3.281284
 30
0.0
 11
9.953117
 21
-1.347694
 31
0.0
  0
LINE
  5
287
100
AcDbEntity
  8
Layer_1
 62
7
100
AcDbLine
 10
9.953117
 20
-1.347694
 30
0.0
 11
9.999992
 21
-0.000055
 31
0.0
  0
LINE
  5
288
100
AcDbEntity
  8
Layer_1
 62
7
100
AcDbLine
 10
9.999992
 20
-0.000055
 30
0.0
 11
9.953117
 21
1.347612
 31
0.0
  0
LINE
  5
289
100
AcDbEntity
  8
Layer_1
 62
7
100
AcDbLine
 10
9.953117
 20
1.347612
 30
0.0
 11
9.624994
 21
3.281202
 31
0.0
  0
LINE
  5
28a
100
AcDbEntity
  8
Layer_1
 62
7
100
AcDbLine
 10
9.624994
 20
3.281202
 30
0.0
 11
8.734373
 21
5.449204
 31
0.0
  0
LINE
  5
28b
100
AcDbEntity
  8
Layer_1
 62
7
100
AcDbLine
 10
8.734373
 20
5.449204
 30
0.0
 11
7.000007
 21
7.500000
 31
0.0
  0
LINE
  5
28c
100
AcDbEntity
  8
Layer_1
 62
7
100
AcDbLine
 10
7.000007
 20
7.500000
 30
0.0
 11
3.499999
 21
7.500000
 31
0.0
  0
LINE
  5
28d
100
AcDbEntity
  8
Layer_1
 62
7
100
AcDbLine
 10
3.499999
 20
7.500000
 30
0.0
 11
-0.000008
 21
7.500000
 31
0.0
  0
LINE
  5
28e
100
AcDbEntity
  8
Layer_1
 62
7
100
AcDbLine
 10
-0.000008
 20
7.500000
 30
0.0
 11
-3.500015
 21
7.500000
 31
0.0
  0
LINE
  5
28f
100
AcDbEntity
  8
Layer_1
 62
7
100
AcDbLine
 10
-3.500015
 20
7.500000
 30
0.0
 11
-7.000022
 21
7.500000
 31
0.0
  0
LINE
  5
290
100
AcDbEntity
  8
Layer_1
 62
7
100
AcDbLine
 10
-7.000022
 20
7.500000
 30
0.0
 11
-8.734389
 21
5.449204
 31
0.0
  0
LINE
  5
291
100
AcDbEntity
  8
Layer_1
 62
7
100
AcDbLine
 10
-8.734389
 20
5.449204
 30
0.0
 11
-9.625009
 21
3.281202
 31
0.0
  0
LINE
  5
292
100
AcDbEntity
  8
Layer_1
 62
7
100
AcDbLine
 10
-9.625009
 20
3.281202
 30
0.0
 11
-9.953133
 21
1.347612
 31
0.0
  0
LINE
  5
293
100
AcDbEntity
  8
Layer_1
 62
7
100
AcDbLine
 10
-9.953133
 20
1.347612
 30
0.0
 11
-10.000007
 21
-0.000055
 31
0.0
  0
LINE
  5
294
100
AcDbEntity
  8
Layer_1
 62
7
100
AcDbLine
 10
-10.000007
 20
-0.000055
 30
0.0
 11
-9.953133
 21
-1.347694
 31
0.0
  0
LINE
  5
295
100
AcDbEntity
  8
Layer_1
 62
7
100
AcDbLine
 10
-9.953133
 20
-1.347694
 30
0.0
 11
-9.625009
 21
-3.281284
 31
0.0
  0
LINE
  5
296
100
AcDbEntity
  8
Layer_1
 62
7
100
AcDbLine
 10
-9.625009
 20
-3.281284
 30
0.0
 11
-8.734389
 21
-5.449258
 31
0.0
  0
LINE
  5
297
100
AcDbEntity
  8
Layer_1
 62
7
100
AcDbLine
 10
-8.734389
 20
-5.449258
 30
0.0
 11
-7.000022
 21
-7.500026
 31
0.0
  0
ENDSEC
  0
SECTION
  2
OBJECTS
  0
DICTIONARY
  5
C
330
0
100
AcDbDictionary
  3
ACAD_GROUP
350
D
  3
ACAD_MLINESTYLE
350
17
  0
DICTIONARY
  5
D
330
C
100
AcDbDictionary
  0
DICTIONARY
  5
1A
330
C
100
AcDbDictionary
  0
DICTIONARY
  5
17
330
C
100
AcDbDictionary
  3
STANDARD
350
18
  0
DICTIONARY
  5
19
330
C
100
AcDbDictionary
  0
ENDSEC
  0
EOF
