<?xml version="1.0" encoding="UTF-8" standalone="no"?>
<!-- Created with Inkscape (http://www.inkscape.org/) -->

<svg
   xmlns:dc="http://purl.org/dc/elements/1.1/"
   xmlns:cc="http://creativecommons.org/ns#"
   xmlns:rdf="http://www.w3.org/1999/02/22-rdf-syntax-ns#"
   xmlns:svg="http://www.w3.org/2000/svg"
   xmlns="http://www.w3.org/2000/svg"
   xmlns:sodipodi="http://sodipodi.sourceforge.net/DTD/sodipodi-0.dtd"
   xmlns:inkscape="http://www.inkscape.org/namespaces/inkscape"
   width="210mm"
   height="297mm"
   viewBox="0 0 744.09448819 1052.3622047"
   id="svg4979"
   version="1.1"
   inkscape:version="0.91 r13725"
   sodipodi:docname="box-motor-wall-43d.svg">
  <defs
     id="defs4981">
    <pattern
       y="0"
       x="0"
       height="6"
       width="6"
       patternUnits="userSpaceOnUse"
       id="EMFhbasepattern" />
  </defs>
  <sodipodi:namedview
     id="base"
     pagecolor="#ffffff"
     bordercolor="#666666"
     borderopacity="1.0"
     inkscape:pageopacity="0.0"
     inkscape:pageshadow="2"
     inkscape:zoom="0.98994949"
     inkscape:cx="-184.52206"
     inkscape:cy="22.042824"
     inkscape:document-units="mm"
     inkscape:current-layer="layer1"
     showgrid="true"
     inkscape:window-width="1366"
     inkscape:window-height="705"
     inkscape:window-x="-8"
     inkscape:window-y="-8"
     inkscape:window-maximized="1">
    <inkscape:grid
       type="xygrid"
       id="grid6193"
       units="mm"
       spacingx="3.5433071"
       spacingy="3.5433072" />
  </sodipodi:namedview>
  <metadata
     id="metadata4984">
    <rdf:RDF>
      <cc:Work
         rdf:about="">
        <dc:format>image/svg+xml</dc:format>
        <dc:type
           rdf:resource="http://purl.org/dc/dcmitype/StillImage" />
        <dc:title />
      </cc:Work>
    </rdf:RDF>
  </metadata>
  <g
     inkscape:label="Layer 1"
     inkscape:groupmode="layer"
     id="layer1">
    <path
       transform="scale(1,-1)"
       style="display:inline;fill:#d35f5f;fill-opacity:1;stroke:none;stroke-width:1.77165353;stroke-linejoin:round;stroke-miterlimit:4;stroke-dasharray:none;stroke-dashoffset:8;stroke-opacity:1"
       d="m -176.91893,-1116.1417 88.459465,0 88.459465,0 88.459465,0 88.459465,0 4.24144,0.8521 3.45629,2.3265 2.32652,3.4563 0.85209,4.2414 0,22.9083 0,22.9083 0,22.9083 0,22.9083 -0.85209,4.2414 -2.32652,3.4563 -3.45629,2.3265 -4.24144,0.8521 -88.459465,0 -88.459465,0 -88.459465,0 -88.459465,0 -4.24144,-0.8521 -3.45629,-2.3265 -2.32652,-3.4563 -0.85209,-4.2414 0,-22.9083 0,-22.9083 0,-22.9083 0,-22.9083 0.85209,-4.2414 2.32652,-3.4563 3.45629,-2.3265 z"
       id="rect4018-9"
       inkscape:connector-curvature="0"
       sodipodi:nodetypes="ccccccccccccccccccccccccccccccccc" />
    <path
       style="display:inline;opacity:1;fill:#ffe680;fill-opacity:1;stroke:none;stroke-width:1.77165353;stroke-linejoin:round;stroke-miterlimit:4;stroke-dasharray:none;stroke-dashoffset:8;stroke-opacity:1"
       d="m -168.30706,1101.9685 -0.41766,2.0688 -1.13904,1.6895 -1.68943,1.139 -2.06883,0.4177 -2.06884,-0.4177 -1.68942,-1.139 -1.13904,-1.6895 -0.41767,-2.0688 0.41767,-2.0688 1.13904,-1.6895 1.68942,-1.139 2.06884,-0.4177 2.06883,0.4177 1.68943,1.139 1.13904,1.6895 z"
       id="path5259-61-5-54-0"
       inkscape:connector-curvature="0"
       sodipodi:nodetypes="ccccccccccccccccc" />
    <path
       style="display:inline;opacity:1;fill:#ffe680;fill-opacity:1;stroke:none;stroke-width:1.77165353;stroke-linejoin:round;stroke-miterlimit:4;stroke-dasharray:none;stroke-dashoffset:8;stroke-opacity:1"
       d="m 5.3150035,1101.9685 -0.4176646,2.0688 -1.1390373,1.6895 -1.6894265,1.139 -2.068832087034,0.4177 -2.068832112966,-0.4177 -1.6894265,-1.139 -1.1390373,-1.6895 -0.4176646,-2.0688 0.4176646,-2.0688 1.1390373,-1.6895 1.6894265,-1.139 2.068832112966,-0.4177 2.068832087034,0.4177 1.6894265,1.139 1.1390373,1.6895 z"
       id="path5259-61-5-6-9-05"
       inkscape:connector-curvature="0"
       sodipodi:nodetypes="ccccccccccccccccc" />
    <path
       style="display:inline;opacity:1;fill:#ffe680;fill-opacity:1;stroke:none;stroke-width:1.77165353;stroke-linejoin:round;stroke-miterlimit:4;stroke-dasharray:none;stroke-dashoffset:8;stroke-opacity:1"
       d="m -168.30706,1044.5669 -0.41766,2.0688 -1.13904,1.6895 -1.68943,1.139 -2.06883,0.4177 -2.06884,-0.4177 -1.68942,-1.139 -1.13904,-1.6895 -0.41767,-2.0688 0.41767,-2.0688 1.13904,-1.6895 1.68942,-1.139 2.06884,-0.4177 2.06883,0.4177 1.68943,1.139 1.13904,1.6895 z"
       id="path5259-61-5-5-0-2"
       inkscape:connector-curvature="0"
       sodipodi:nodetypes="ccccccccccccccccc" />
    <path
       transform="scale(-1,1)"
       style="display:inline;opacity:1;fill:#ffe680;fill-opacity:1;stroke:none;stroke-width:1.77165353;stroke-linejoin:round;stroke-miterlimit:4;stroke-dasharray:none;stroke-dashoffset:8;stroke-opacity:1"
       d="m -168.30709,1101.9685 -0.41767,2.0688 -1.13904,1.6895 -1.68942,1.139 -2.06884,0.4177 -2.06883,-0.4177 -1.68943,-1.139 -1.13904,-1.6895 -0.41766,-2.0688 0.41766,-2.0688 1.13904,-1.6895 1.68943,-1.139 2.06883,-0.4177 2.06884,0.4177 1.68942,1.139 1.13904,1.6895 z"
       id="path5259-61-5-54-7-98"
       inkscape:connector-curvature="0"
       sodipodi:nodetypes="ccccccccccccccccc" />
    <path
       transform="scale(-1,1)"
       style="display:inline;opacity:1;fill:#ffe680;fill-opacity:1;stroke:none;stroke-width:1.77165353;stroke-linejoin:round;stroke-miterlimit:4;stroke-dasharray:none;stroke-dashoffset:8;stroke-opacity:1"
       d="m -168.30709,1044.5669 -0.41767,2.0688 -1.13904,1.6895 -1.68942,1.139 -2.06884,0.4177 -2.06883,-0.4177 -1.68943,-1.139 -1.13904,-1.6895 -0.41766,-2.0688 0.41766,-2.0688 1.13904,-1.6895 1.68943,-1.139 2.06883,-0.4177 2.06884,0.4177 1.68942,1.139 1.13904,1.6895 z"
       id="path5259-61-5-5-0-9-72"
       inkscape:connector-curvature="0"
       sodipodi:nodetypes="ccccccccccccccccc" />
    <path
       style="display:inline;opacity:1;fill:#2b1100;fill-opacity:1;stroke:none;stroke-width:1.77165353;stroke-linejoin:round;stroke-miterlimit:4;stroke-dasharray:none;stroke-dashoffset:8;stroke-opacity:1"
       d="m -170.07868,1013.3857 -0.55691,2.7584 -1.51872,2.2526 -2.25256,1.5187 -2.75843,0.5569 -2.75843,-0.5569 -2.25256,-1.5187 -1.51872,-2.2526 -0.5569,-2.7584 0.5569,-2.7584 1.51872,-2.2526 2.25256,-1.5187 2.75843,-0.5569 2.75843,0.5569 2.25257,1.5187 1.51872,2.2526 z"
       id="path5259-61-98-9"
       inkscape:connector-curvature="0"
       sodipodi:nodetypes="ccccccccccccccccc" />
    <path
       style="display:inline;opacity:1;fill:#2b1100;fill-opacity:1;stroke:none;stroke-width:1.77165353;stroke-linejoin:round;stroke-miterlimit:4;stroke-dasharray:none;stroke-dashoffset:8;stroke-opacity:1"
       d="m -134.64564,1013.3857 -0.5569,2.7584 -1.51872,2.2526 -2.25256,1.5187 -2.75843,0.5569 -2.75843,-0.5569 -2.25256,-1.5187 -1.51872,-2.2526 -0.55691,-2.7584 0.5569,-2.7584 1.51872,-2.2526 2.25257,-1.5187 2.75843,-0.5569 2.75843,0.5569 2.25256,1.5187 1.51872,2.2526 z"
       id="path5259-61-2-3-83"
       inkscape:connector-curvature="0"
       sodipodi:nodetypes="ccccccccccccccccc" />
    <path
       style="display:inline;opacity:1;fill:#2b1100;fill-opacity:1;stroke:none;stroke-width:1.77165353;stroke-linejoin:round;stroke-miterlimit:4;stroke-dasharray:none;stroke-dashoffset:8;stroke-opacity:1"
       d="m -99.212534,1013.3857 -0.556906,2.7584 -1.51872,2.2526 -2.25256,1.5187 -2.75843,0.5569 -2.75843,-0.5569 -2.25256,-1.5187 -1.51872,-2.2526 -0.5569,-2.7584 0.5569,-2.7584 1.51872,-2.2526 2.25256,-1.5187 2.75843,-0.5569 2.75843,0.5569 2.25256,1.5187 1.518727,2.2526 z"
       id="path5259-61-0-5-26"
       inkscape:connector-curvature="0"
       sodipodi:nodetypes="ccccccccccccccccc" />
    <path
       style="display:inline;opacity:1;fill:#2b1100;fill-opacity:1;stroke:none;stroke-width:1.77165353;stroke-linejoin:round;stroke-miterlimit:4;stroke-dasharray:none;stroke-dashoffset:8;stroke-opacity:1"
       d="m -63.77949,1013.3857 -0.556905,2.7584 -1.518721,2.2526 -2.252561,1.5187 -2.758427,0.5569 -2.758427,-0.5569 -2.252561,-1.5187 -1.518721,-2.2526 -0.556905,-2.7584 0.556899,-2.7584 1.518721,-2.2526 2.252565,-1.5187 2.758429,-0.5569 2.758429,0.5569 2.252565,1.5187 1.518721,2.2526 z"
       id="path5259-61-2-5-0-0"
       inkscape:connector-curvature="0"
       sodipodi:nodetypes="ccccccccccccccccc" />
    <path
       style="display:inline;opacity:1;fill:#2b1100;fill-opacity:1;stroke:none;stroke-width:1.77165353;stroke-linejoin:round;stroke-miterlimit:4;stroke-dasharray:none;stroke-dashoffset:8;stroke-opacity:1"
       d="m -28.346449,1013.3857 -0.556905,2.7584 -1.518722,2.2526 -2.252561,1.5187 -2.758427,0.5569 -2.758427,-0.5569 -2.252561,-1.5187 -1.518721,-2.2526 -0.556905,-2.7584 0.556899,-2.7584 1.518721,-2.2526 2.252565,-1.5187 2.758429,-0.5569 2.758429,0.5569 2.252565,1.5187 1.518722,2.2526 z"
       id="path5259-61-01-9-5"
       inkscape:connector-curvature="0"
       sodipodi:nodetypes="ccccccccccccccccc" />
    <path
       style="display:inline;opacity:1;fill:#2b1100;fill-opacity:1;stroke:none;stroke-width:1.77165353;stroke-linejoin:round;stroke-miterlimit:4;stroke-dasharray:none;stroke-dashoffset:8;stroke-opacity:1"
       d="m 7.0866571,1013.3857 -0.5569053,2.7584 -1.5187209,2.2526 -2.2525613,1.5187 -2.758426587034,0.5569 -2.758426612966,-0.5569 -2.2525613,-1.5187 -1.5187209,-2.2526 -0.5569053,-2.7584 0.5568988,-2.7584 1.5187216,-2.2526 2.2525649,-1.5187 2.758428812966,-0.5569 2.758428787034,0.5569 2.2525649,1.5187 1.5187216,2.2526 z"
       id="path5259-61-2-8-42-48"
       inkscape:connector-curvature="0"
       sodipodi:nodetypes="ccccccccccccccccc" />
    <path
       style="display:inline;opacity:1;fill:#2b1100;fill-opacity:1;stroke:none;stroke-width:1.77165353;stroke-linejoin:round;stroke-miterlimit:4;stroke-dasharray:none;stroke-dashoffset:8;stroke-opacity:1"
       d="m 42.519701,1013.3857 -0.556905,2.7584 -1.518722,2.2526 -2.252561,1.5187 -2.758427,0.5569 -2.758427,-0.5569 -2.252561,-1.5187 -1.518721,-2.2526 -0.556905,-2.7584 0.556899,-2.7584 1.518721,-2.2526 2.252565,-1.5187 2.758429,-0.5569 2.758429,0.5569 2.252565,1.5187 1.518722,2.2526 z"
       id="path5259-61-09-4-7"
       inkscape:connector-curvature="0"
       sodipodi:nodetypes="ccccccccccccccccc" />
    <path
       style="display:inline;opacity:1;fill:#2b1100;fill-opacity:1;stroke:none;stroke-width:1.77165353;stroke-linejoin:round;stroke-miterlimit:4;stroke-dasharray:none;stroke-dashoffset:8;stroke-opacity:1"
       d="m 77.95281,1013.3857 -0.556905,2.7584 -1.518721,2.2526 -2.252561,1.5187 -2.758427,0.5569 -2.758427,-0.5569 -2.252561,-1.5187 -1.518721,-2.2526 -0.556905,-2.7584 0.556899,-2.7584 1.518721,-2.2526 2.252565,-1.5187 2.758429,-0.5569 2.758429,0.5569 2.252565,1.5187 1.518721,2.2526 z"
       id="path5259-61-2-1-59-5"
       inkscape:connector-curvature="0"
       sodipodi:nodetypes="ccccccccccccccccc" />
    <path
       style="display:inline;opacity:1;fill:#2b1100;fill-opacity:1;stroke:none;stroke-width:1.77165353;stroke-linejoin:round;stroke-miterlimit:4;stroke-dasharray:none;stroke-dashoffset:8;stroke-opacity:1"
       d="m 113.38585,1013.3857 -0.5569,2.7584 -1.51872,2.2526 -2.25256,1.5187 -2.75843,0.5569 -2.75843,-0.5569 -2.25256,-1.5187 -1.518719,-2.2526 -0.556905,-2.7584 0.556899,-2.7584 1.518725,-2.2526 2.25256,-1.5187 2.75843,-0.5569 2.75843,0.5569 2.25256,1.5187 1.51872,2.2526 z"
       id="path5259-61-5-0-4"
       inkscape:connector-curvature="0"
       sodipodi:nodetypes="ccccccccccccccccc" />
    <path
       style="display:inline;opacity:1;fill:#2b1100;fill-opacity:1;stroke:none;stroke-width:1.77165353;stroke-linejoin:round;stroke-miterlimit:4;stroke-dasharray:none;stroke-dashoffset:8;stroke-opacity:1"
       d="m 148.81896,1013.3857 -0.5569,2.7584 -1.51872,2.2526 -2.25256,1.5187 -2.75843,0.5569 -2.75843,-0.5569 -2.25256,-1.5187 -1.51872,-2.2526 -0.55691,-2.7584 0.5569,-2.7584 1.51872,-2.2526 2.25257,-1.5187 2.75843,-0.5569 2.75843,0.5569 2.25256,1.5187 1.51872,2.2526 z"
       id="path5259-61-2-0-7"
       inkscape:connector-curvature="0"
       sodipodi:nodetypes="ccccccccccccccccc" />
    <path
       style="display:inline;opacity:1;fill:#2b1100;fill-opacity:1;stroke:none;stroke-width:1.77165353;stroke-linejoin:round;stroke-miterlimit:4;stroke-dasharray:none;stroke-dashoffset:8;stroke-opacity:1"
       d="m 184.252,1013.3857 -0.5569,2.7584 -1.51872,2.2526 -2.25256,1.5187 -2.75843,0.5569 -2.75843,-0.5569 -2.25256,-1.5187 -1.51872,-2.2526 -0.5569,-2.7584 0.5569,-2.7584 1.51872,-2.2526 2.25256,-1.5187 2.75843,-0.5569 2.75843,0.5569 2.25256,1.5187 1.51872,2.2526 z"
       id="path5259-61-0-81-8"
       inkscape:connector-curvature="0"
       sodipodi:nodetypes="ccccccccccccccccc" />
    <path
       sodipodi:nodetypes="ccccccccccccccccccccccccc"
       inkscape:connector-curvature="0"
       id="rect6176-0-5"
       d="m -24.803204,1078.9371 12.4016,0 12.4016,0 12.4016,0 12.4016,0 6.145394,-7.2665 3.155742,-7.6818 1.162642,-6.8513 0.166092,-4.7751 -0.166092,-4.7752 -1.162642,-6.8513 -3.155742,-7.6819 -6.145394,-7.2666 -12.4016,0 -12.4016,0 -12.4016,0 -12.4016,0 -6.145394,7.2666 -3.155742,7.6819 -1.162642,6.8513 -0.166092,4.7752 0.166092,4.7751 1.162642,6.8513 3.155742,7.6818 z"
       style="display:inline;opacity:1;fill:#aa00d4;fill-opacity:1;stroke:none;stroke-width:1.77165353;stroke-linejoin:round;stroke-miterlimit:4;stroke-dasharray:none;stroke-dashoffset:8;stroke-opacity:1" />
  </g>
</svg>
