<?xml version="1.0" encoding="UTF-8" standalone="no"?>
<!-- Created with Inkscape (http://www.inkscape.org/) -->

<svg
   xmlns:dc="http://purl.org/dc/elements/1.1/"
   xmlns:cc="http://creativecommons.org/ns#"
   xmlns:rdf="http://www.w3.org/1999/02/22-rdf-syntax-ns#"
   xmlns:svg="http://www.w3.org/2000/svg"
   xmlns="http://www.w3.org/2000/svg"
   xmlns:sodipodi="http://sodipodi.sourceforge.net/DTD/sodipodi-0.dtd"
   xmlns:inkscape="http://www.inkscape.org/namespaces/inkscape"
   width="744.09448"
   height="1052.3622"
   id="svg2"
   version="1.1"
   inkscape:version="0.48.4 r9939"
   sodipodi:docname="днище.svg">
  <defs
     id="defs4" />
  <sodipodi:namedview
     id="base"
     pagecolor="#ffffff"
     bordercolor="#666666"
     borderopacity="1.0"
     inkscape:pageopacity="0.0"
     inkscape:pageshadow="2"
     inkscape:zoom="0.56"
     inkscape:cx="574.24121"
     inkscape:cy="92.316187"
     inkscape:document-units="mm"
     inkscape:current-layer="layer1"
     showgrid="true"
     inkscape:window-width="1366"
     inkscape:window-height="705"
     inkscape:window-x="-8"
     inkscape:window-y="-8"
     inkscape:window-maximized="1"
     units="mm"
     showguides="true"
     inkscape:guide-bbox="true"
     inkscape:snap-bbox="true">
    <sodipodi:guide
       orientation="1,0"
       position="0,283.46457"
       id="guide2990" />
    <sodipodi:guide
       orientation="1,0"
       position="389.76378,235.62992"
       id="guide2992" />
    <sodipodi:guide
       orientation="0,1"
       position="-24.80315,389.76378"
       id="guide2994" />
    <sodipodi:guide
       orientation="0,1"
       position="-7.0866142,67.322835"
       id="guide2996" />
    <sodipodi:guide
       orientation="0,1"
       position="-53.149606,0"
       id="guide3044" />
    <inkscape:grid
       type="xygrid"
       id="grid3046"
       empspacing="5"
       visible="true"
       enabled="true"
       snapvisiblegridlinesonly="true"
       units="mm"
       spacingx="0.5mm"
       spacingy="0.5mm"
       color="#ec00ae"
       opacity="0.1254902"
       empcolor="#ef000d"
       empopacity="0.25098039" />
    <sodipodi:guide
       orientation="0,1"
       position="51.377953,145.27559"
       id="guide3828" />
    <sodipodi:guide
       orientation="1,0"
       position="49.606299,129.33071"
       id="guide3834" />
    <sodipodi:guide
       orientation="1,0"
       position="340.15748,56.692913"
       id="guide3854" />
    <sodipodi:guide
       orientation="0,1"
       position="297.6378,106.29921"
       id="guide7650" />
    <sodipodi:guide
       orientation="1,0"
       position="194.88189,99.212598"
       id="guide7652" />
  </sodipodi:namedview>
  <metadata
     id="metadata7">
    <rdf:RDF>
      <cc:Work
         rdf:about="">
        <dc:format>image/svg+xml</dc:format>
        <dc:type
           rdf:resource="http://purl.org/dc/dcmitype/StillImage" />
        <dc:title></dc:title>
      </cc:Work>
    </rdf:RDF>
  </metadata>
  <g
     inkscape:label="Layer 1"
     inkscape:groupmode="layer"
     id="layer1"
     transform="translate(0,-2.5390623e-6)">
    <path
       style="fill:#ffe680;fill-opacity:1;stroke:none"
       d="m 17.716489,1052.3622 177.165371,0 177.16538,0 12.53888,-5.1777 5.17766,-12.5389 0,-24.8031 0,-24.80315 -24.80315,0 -24.80315,0 0,-38.97638 0,-38.97638 24.80315,0 24.80315,0 0,-113.3858 0,-113.3858 -5.17766,-12.53885 -12.53888,-5.17768 -177.16538,-3e-5 -177.165371,-2e-5 L 5.1776384,667.77609 0,680.31494 l 0,113.38583 0,113.38582 24.803149,0 24.80315,0 0,38.97638 0,38.97638 -24.803149,5e-5 L 1.5307087e-7,985.03946 7.6535435e-8,1009.8425 0,1034.6456 l 5.1776384,12.5389 z"
       id="rect2987"
       inkscape:connector-curvature="0"
       sodipodi:nodetypes="ccccccccccccccccccccccccccccccccc" />
    <path
       transform="matrix(0.5330837,0,0,0.46937589,42.760783,588.05115)"
       style="fill:#0044aa;fill-opacity:1;stroke:none"
       d="m 32.781814,574.01575 -3.893613,10.67586 -9.400011,4.42209 -9.400012,-4.42209 -3.8936122,-10.67586 3.8936122,-10.67586 9.400012,-4.42209 9.400011,4.42209 z"
       id="path3790-61-1"
       inkscape:connector-curvature="0"
       sodipodi:nodetypes="ccccccccc" />
    <path
       transform="matrix(0.5330837,0,0,0.46937589,7.3277118,588.05115)"
       style="fill:#0044aa;fill-opacity:1;stroke:none"
       d="m 32.781814,574.01575 -3.893613,10.67586 -9.400011,4.42209 -9.400012,-4.42209 -3.8936122,-10.67586 3.8936122,-10.67586 9.400012,-4.42209 9.400011,4.42209 z"
       id="path3790-61-3-2"
       inkscape:connector-curvature="0"
       sodipodi:nodetypes="ccccccccc" />
    <path
       transform="matrix(0.5330837,0,0,0.46937589,113.62692,623.48422)"
       style="fill:#0044aa;fill-opacity:1;stroke:none"
       d="m 32.781814,574.01575 -3.893613,10.67586 -9.400011,4.42209 -9.400012,-4.42209 -3.8936122,-10.67586 3.8936122,-10.67586 9.400012,-4.42209 9.400011,4.42209 z"
       id="path3790-5-1-5"
       inkscape:connector-curvature="0"
       sodipodi:nodetypes="ccccccccc" />
    <path
       transform="matrix(0.5330837,0,0,0.46937589,113.62692,588.05115)"
       style="fill:#0044aa;fill-opacity:1;stroke:none"
       d="m 32.781814,574.01575 -3.893613,10.67586 -9.400011,4.42209 -9.400012,-4.42209 -3.8936122,-10.67586 3.8936122,-10.67586 9.400012,-4.42209 9.400011,4.42209 z"
       id="path3790-61-1-9"
       inkscape:connector-curvature="0"
       sodipodi:nodetypes="ccccccccc" />
    <path
       transform="matrix(0.5330837,0,0,0.46937589,78.193854,623.48422)"
       style="fill:#0044aa;fill-opacity:1;stroke:none"
       d="m 32.781814,574.01575 -3.893613,10.67586 -9.400011,4.42209 -9.400012,-4.42209 -3.8936122,-10.67586 3.8936122,-10.67586 9.400012,-4.42209 9.400011,4.42209 z"
       id="path3790-5-4-5-9"
       inkscape:connector-curvature="0"
       sodipodi:nodetypes="ccccccccc" />
    <path
       transform="matrix(0.5330837,0,0,0.46937589,78.193854,588.05115)"
       style="fill:#0044aa;fill-opacity:1;stroke:none"
       d="m 32.781814,574.01575 -3.893613,10.67586 -9.400011,4.42209 -9.400012,-4.42209 -3.8936122,-10.67586 3.8936122,-10.67586 9.400012,-4.42209 9.400011,4.42209 z"
       id="path3790-61-3-2-8"
       inkscape:connector-curvature="0"
       sodipodi:nodetypes="ccccccccc" />
    <path
       transform="matrix(0.5330837,0,0,0.46937589,184.49306,623.48422)"
       style="fill:#0044aa;fill-opacity:1;stroke:none"
       d="m 32.781814,574.01575 -3.893613,10.67586 -9.400011,4.42209 -9.400012,-4.42209 -3.8936122,-10.67586 3.8936122,-10.67586 9.400012,-4.42209 9.400011,4.42209 z"
       id="path3790-5-1-1"
       inkscape:connector-curvature="0"
       sodipodi:nodetypes="ccccccccc" />
    <path
       transform="matrix(0.5330837,0,0,0.46937589,184.49306,588.05115)"
       style="fill:#0044aa;fill-opacity:1;stroke:none"
       d="m 32.781814,574.01575 -3.893613,10.67586 -9.400011,4.42209 -9.400012,-4.42209 -3.8936122,-10.67586 3.8936122,-10.67586 9.400012,-4.42209 9.400011,4.42209 z"
       id="path3790-61-1-8"
       inkscape:connector-curvature="0"
       sodipodi:nodetypes="ccccccccc" />
    <path
       transform="matrix(0.5330837,0,0,0.46937589,149.05999,623.48422)"
       style="fill:#0044aa;fill-opacity:1;stroke:none"
       d="m 32.781814,574.01575 -3.893613,10.67586 -9.400011,4.42209 -9.400012,-4.42209 -3.8936122,-10.67586 3.8936122,-10.67586 9.400012,-4.42209 9.400011,4.42209 z"
       id="path3790-5-4-5-2"
       inkscape:connector-curvature="0"
       sodipodi:nodetypes="ccccccccc" />
    <path
       transform="matrix(0.5330837,0,0,0.46937589,149.05999,588.05115)"
       style="fill:#0044aa;fill-opacity:1;stroke:none"
       d="m 32.781814,574.01575 -3.893613,10.67586 -9.400011,4.42209 -9.400012,-4.42209 -3.8936122,-10.67586 3.8936122,-10.67586 9.400012,-4.42209 9.400011,4.42209 z"
       id="path3790-61-3-2-6"
       inkscape:connector-curvature="0"
       sodipodi:nodetypes="ccccccccc" />
    <path
       transform="matrix(0.5330837,0,0,0.46937589,255.3592,623.48422)"
       style="fill:#0044aa;fill-opacity:1;stroke:none"
       d="m 32.781814,574.01575 -3.893613,10.67586 -9.400011,4.42209 -9.400012,-4.42209 -3.8936122,-10.67586 3.8936122,-10.67586 9.400012,-4.42209 9.400011,4.42209 z"
       id="path3790-5-1-5-6"
       inkscape:connector-curvature="0"
       sodipodi:nodetypes="ccccccccc" />
    <path
       transform="matrix(0.5330837,0,0,0.46937589,255.3592,588.05115)"
       style="fill:#0044aa;fill-opacity:1;stroke:none"
       d="m 32.781814,574.01575 -3.893613,10.67586 -9.400011,4.42209 -9.400012,-4.42209 -3.8936122,-10.67586 3.8936122,-10.67586 9.400012,-4.42209 9.400011,4.42209 z"
       id="path3790-61-1-9-0"
       inkscape:connector-curvature="0"
       sodipodi:nodetypes="ccccccccc" />
    <path
       transform="matrix(0.5330837,0,0,0.46937589,219.92613,588.05115)"
       style="fill:#0044aa;fill-opacity:1;stroke:none"
       d="m 32.781814,574.01575 -3.893613,10.67586 -9.400011,4.42209 -9.400012,-4.42209 -3.8936122,-10.67586 3.8936122,-10.67586 9.400012,-4.42209 9.400011,4.42209 z"
       id="path3790-61-3-2-8-8"
       inkscape:connector-curvature="0"
       sodipodi:nodetypes="ccccccccc" />
    <path
       transform="matrix(0.5330837,0,0,0.46937589,326.22535,588.05115)"
       style="fill:#0044aa;fill-opacity:1;stroke:none"
       d="m 32.781814,574.01575 -3.893613,10.67586 -9.400011,4.42209 -9.400012,-4.42209 -3.8936122,-10.67586 3.8936122,-10.67586 9.400012,-4.42209 9.400011,4.42209 z"
       id="path3790-61-1-1"
       inkscape:connector-curvature="0"
       sodipodi:nodetypes="ccccccccc" />
    <path
       transform="matrix(0.5330837,0,0,0.46937589,290.79228,623.48422)"
       style="fill:#0044aa;fill-opacity:1;stroke:none"
       d="m 32.781814,574.01575 -3.893613,10.67586 -9.400011,4.42209 -9.400012,-4.42209 -3.8936122,-10.67586 3.8936122,-10.67586 9.400012,-4.42209 9.400011,4.42209 z"
       id="path3790-5-4-5-25"
       inkscape:connector-curvature="0"
       sodipodi:nodetypes="ccccccccc" />
    <path
       transform="matrix(0.5330837,0,0,0.46937589,290.79228,588.05115)"
       style="fill:#0044aa;fill-opacity:1;stroke:none"
       d="m 32.781814,574.01575 -3.893613,10.67586 -9.400011,4.42209 -9.400012,-4.42209 -3.8936122,-10.67586 3.8936122,-10.67586 9.400012,-4.42209 9.400011,4.42209 z"
       id="path3790-61-3-2-0"
       inkscape:connector-curvature="0"
       sodipodi:nodetypes="ccccccccc" />
    <path
       transform="matrix(0.5330837,0,0,0.46937589,361.65842,588.05115)"
       style="fill:#0044aa;fill-opacity:1;stroke:none"
       d="m 32.781814,574.01575 -3.893613,10.67586 -9.400011,4.42209 -9.400012,-4.42209 -3.8936122,-10.67586 3.8936122,-10.67586 9.400012,-4.42209 9.400011,4.42209 z"
       id="path3790-61-3-2-8-83"
       inkscape:connector-curvature="0"
       sodipodi:nodetypes="ccccccccc" />
    <path
       transform="matrix(0.5330837,0,0,0.46937589,113.62691,694.35036)"
       style="fill:#0044aa;fill-opacity:1;stroke:none"
       d="m 32.781814,574.01575 -3.893613,10.67586 -9.400011,4.42209 -9.400012,-4.42209 -3.8936122,-10.67586 3.8936122,-10.67586 9.400012,-4.42209 9.400011,4.42209 z"
       id="path3790-5-1-5-64"
       inkscape:connector-curvature="0"
       sodipodi:nodetypes="ccccccccc" />
    <path
       transform="matrix(0.5330837,0,0,0.46937589,113.62691,658.91729)"
       style="fill:#0044aa;fill-opacity:1;stroke:none"
       d="m 32.781814,574.01575 -3.893613,10.67586 -9.400011,4.42209 -9.400012,-4.42209 -3.8936122,-10.67586 3.8936122,-10.67586 9.400012,-4.42209 9.400011,4.42209 z"
       id="path3790-61-1-9-06"
       inkscape:connector-curvature="0"
       sodipodi:nodetypes="ccccccccc" />
    <path
       transform="matrix(0.5330837,0,0,0.46937589,78.19385,694.35036)"
       style="fill:#0044aa;fill-opacity:1;stroke:none"
       d="m 32.781814,574.01575 -3.893613,10.67586 -9.400011,4.42209 -9.400012,-4.42209 -3.8936122,-10.67586 3.8936122,-10.67586 9.400012,-4.42209 9.400011,4.42209 z"
       id="path3790-5-4-5-9-1"
       inkscape:connector-curvature="0"
       sodipodi:nodetypes="ccccccccc" />
    <path
       transform="matrix(0.5330837,0,0,0.46937589,78.19385,658.91729)"
       style="fill:#0044aa;fill-opacity:1;stroke:none"
       d="m 32.781814,574.01575 -3.893613,10.67586 -9.400011,4.42209 -9.400012,-4.42209 -3.8936122,-10.67586 3.8936122,-10.67586 9.400012,-4.42209 9.400011,4.42209 z"
       id="path3790-61-3-2-8-89"
       inkscape:connector-curvature="0"
       sodipodi:nodetypes="ccccccccc" />
    <path
       transform="matrix(0.5330837,0,0,0.46937589,184.49305,694.35036)"
       style="fill:#0044aa;fill-opacity:1;stroke:none"
       d="m 32.781814,574.01575 -3.893613,10.67586 -9.400011,4.42209 -9.400012,-4.42209 -3.8936122,-10.67586 3.8936122,-10.67586 9.400012,-4.42209 9.400011,4.42209 z"
       id="path3790-5-1-1-8"
       inkscape:connector-curvature="0"
       sodipodi:nodetypes="ccccccccc" />
    <path
       transform="matrix(0.5330837,0,0,0.46937589,184.49305,658.91729)"
       style="fill:#0044aa;fill-opacity:1;stroke:none"
       d="m 32.781814,574.01575 -3.893613,10.67586 -9.400011,4.42209 -9.400012,-4.42209 -3.8936122,-10.67586 3.8936122,-10.67586 9.400012,-4.42209 9.400011,4.42209 z"
       id="path3790-61-1-8-4"
       inkscape:connector-curvature="0"
       sodipodi:nodetypes="ccccccccc" />
    <path
       transform="matrix(0.5330837,0,0,0.46937589,149.05998,694.35036)"
       style="fill:#0044aa;fill-opacity:1;stroke:none"
       d="m 32.781814,574.01575 -3.893613,10.67586 -9.400011,4.42209 -9.400012,-4.42209 -3.8936122,-10.67586 3.8936122,-10.67586 9.400012,-4.42209 9.400011,4.42209 z"
       id="path3790-5-4-5-2-1"
       inkscape:connector-curvature="0"
       sodipodi:nodetypes="ccccccccc" />
    <path
       transform="matrix(0.5330837,0,0,0.46937589,149.05998,658.91729)"
       style="fill:#0044aa;fill-opacity:1;stroke:none"
       d="m 32.781814,574.01575 -3.893613,10.67586 -9.400011,4.42209 -9.400012,-4.42209 -3.8936122,-10.67586 3.8936122,-10.67586 9.400012,-4.42209 9.400011,4.42209 z"
       id="path3790-61-3-2-6-4"
       inkscape:connector-curvature="0"
       sodipodi:nodetypes="ccccccccc" />
    <path
       transform="matrix(0.5330837,0,0,0.46937589,255.35919,694.35036)"
       style="fill:#0044aa;fill-opacity:1;stroke:none"
       d="m 32.781814,574.01575 -3.893613,10.67586 -9.400011,4.42209 -9.400012,-4.42209 -3.8936122,-10.67586 3.8936122,-10.67586 9.400012,-4.42209 9.400011,4.42209 z"
       id="path3790-5-1-5-6-3"
       inkscape:connector-curvature="0"
       sodipodi:nodetypes="ccccccccc" />
    <path
       transform="matrix(0.5330837,0,0,0.46937589,255.35919,658.91729)"
       style="fill:#0044aa;fill-opacity:1;stroke:none"
       d="m 32.781814,574.01575 -3.893613,10.67586 -9.400011,4.42209 -9.400012,-4.42209 -3.8936122,-10.67586 3.8936122,-10.67586 9.400012,-4.42209 9.400011,4.42209 z"
       id="path3790-61-1-9-0-9"
       inkscape:connector-curvature="0"
       sodipodi:nodetypes="ccccccccc" />
    <path
       transform="matrix(0.5330837,0,0,0.46937589,219.92612,694.35036)"
       style="fill:#0044aa;fill-opacity:1;stroke:none"
       d="m 32.781814,574.01575 -3.893613,10.67586 -9.400011,4.42209 -9.400012,-4.42209 -3.8936122,-10.67586 3.8936122,-10.67586 9.400012,-4.42209 9.400011,4.42209 z"
       id="path3790-5-4-5-9-3-8"
       inkscape:connector-curvature="0"
       sodipodi:nodetypes="ccccccccc" />
    <path
       transform="matrix(0.5330837,0,0,0.46937589,219.92612,658.91729)"
       style="fill:#0044aa;fill-opacity:1;stroke:none"
       d="m 32.781814,574.01575 -3.893613,10.67586 -9.400011,4.42209 -9.400012,-4.42209 -3.8936122,-10.67586 3.8936122,-10.67586 9.400012,-4.42209 9.400011,4.42209 z"
       id="path3790-61-3-2-8-8-8"
       inkscape:connector-curvature="0"
       sodipodi:nodetypes="ccccccccc" />
    <path
       transform="matrix(0.5330837,0,0,0.46937589,290.79227,694.35036)"
       style="fill:#0044aa;fill-opacity:1;stroke:none"
       d="m 32.781814,574.01575 -3.893613,10.67586 -9.400011,4.42209 -9.400012,-4.42209 -3.8936122,-10.67586 3.8936122,-10.67586 9.400012,-4.42209 9.400011,4.42209 z"
       id="path3790-5-4-5-25-7"
       inkscape:connector-curvature="0"
       sodipodi:nodetypes="ccccccccc" />
    <path
       transform="matrix(0.5330837,0,0,0.46937589,290.79227,658.91729)"
       style="fill:#0044aa;fill-opacity:1;stroke:none"
       d="m 32.781814,574.01575 -3.893613,10.67586 -9.400011,4.42209 -9.400012,-4.42209 -3.8936122,-10.67586 3.8936122,-10.67586 9.400012,-4.42209 9.400011,4.42209 z"
       id="path3790-61-3-2-0-7"
       inkscape:connector-curvature="0"
       sodipodi:nodetypes="ccccccccc" />
    <path
       transform="matrix(0.5330837,0,0,0.46937589,42.760783,481.75193)"
       style="fill:#0044aa;fill-opacity:1;stroke:none"
       d="m 32.781814,574.01575 -3.893613,10.67586 -9.400011,4.42209 -9.400012,-4.42209 -3.8936122,-10.67586 3.8936122,-10.67586 9.400012,-4.42209 9.400011,4.42209 z"
       id="path3790-5-1-8"
       inkscape:connector-curvature="0"
       sodipodi:nodetypes="ccccccccc" />
    <path
       transform="matrix(0.5330837,0,0,0.46937589,7.3277124,481.75193)"
       style="fill:#0044aa;fill-opacity:1;stroke:none"
       d="m 32.781814,574.01575 -3.893613,10.67586 -9.400011,4.42209 -9.400012,-4.42209 -3.8936122,-10.67586 3.8936122,-10.67586 9.400012,-4.42209 9.400011,4.42209 z"
       id="path3790-5-4-5-7"
       inkscape:connector-curvature="0"
       sodipodi:nodetypes="ccccccccc" />
    <path
       transform="matrix(0.5330837,0,0,0.46937589,7.3277124,446.31886)"
       style="fill:#0044aa;fill-opacity:1;stroke:none"
       d="m 32.781814,574.01575 -3.893613,10.67586 -9.400011,4.42209 -9.400012,-4.42209 -3.8936122,-10.67586 3.8936122,-10.67586 9.400012,-4.42209 9.400011,4.42209 z"
       id="path3790-61-3-2-10"
       inkscape:connector-curvature="0"
       sodipodi:nodetypes="ccccccccc" />
    <path
       transform="matrix(0.5330837,0,0,0.46937589,113.62692,481.75193)"
       style="fill:#0044aa;fill-opacity:1;stroke:none"
       d="m 32.781814,574.01575 -3.893613,10.67586 -9.400011,4.42209 -9.400012,-4.42209 -3.8936122,-10.67586 3.8936122,-10.67586 9.400012,-4.42209 9.400011,4.42209 z"
       id="path3790-5-1-5-7"
       inkscape:connector-curvature="0"
       sodipodi:nodetypes="ccccccccc" />
    <path
       transform="matrix(0.5330837,0,0,0.46937589,113.62692,446.31886)"
       style="fill:#0044aa;fill-opacity:1;stroke:none"
       d="m 32.781814,574.01575 -3.893613,10.67586 -9.400011,4.42209 -9.400012,-4.42209 -3.8936122,-10.67586 3.8936122,-10.67586 9.400012,-4.42209 9.400011,4.42209 z"
       id="path3790-61-1-9-3"
       inkscape:connector-curvature="0"
       sodipodi:nodetypes="ccccccccc" />
    <path
       transform="matrix(0.5330837,0,0,0.46937589,78.193854,481.75193)"
       style="fill:#0044aa;fill-opacity:1;stroke:none"
       d="m 32.781814,574.01575 -3.893613,10.67586 -9.400011,4.42209 -9.400012,-4.42209 -3.8936122,-10.67586 3.8936122,-10.67586 9.400012,-4.42209 9.400011,4.42209 z"
       id="path3790-5-4-5-9-4"
       inkscape:connector-curvature="0"
       sodipodi:nodetypes="ccccccccc" />
    <path
       transform="matrix(0.5330837,0,0,0.46937589,78.193854,446.31886)"
       style="fill:#0044aa;fill-opacity:1;stroke:none"
       d="m 32.781814,574.01575 -3.893613,10.67586 -9.400011,4.42209 -9.400012,-4.42209 -3.8936122,-10.67586 3.8936122,-10.67586 9.400012,-4.42209 9.400011,4.42209 z"
       id="path3790-61-3-2-8-9"
       inkscape:connector-curvature="0"
       sodipodi:nodetypes="ccccccccc" />
    <path
       transform="matrix(0.5330837,0,0,0.46937589,184.49306,481.75193)"
       style="fill:#0044aa;fill-opacity:1;stroke:none"
       d="m 32.781814,574.01575 -3.893613,10.67586 -9.400011,4.42209 -9.400012,-4.42209 -3.8936122,-10.67586 3.8936122,-10.67586 9.400012,-4.42209 9.400011,4.42209 z"
       id="path3790-5-1-1-6"
       inkscape:connector-curvature="0"
       sodipodi:nodetypes="ccccccccc" />
    <path
       transform="matrix(0.5330837,0,0,0.46937589,184.49306,446.31886)"
       style="fill:#0044aa;fill-opacity:1;stroke:none"
       d="m 32.781814,574.01575 -3.893613,10.67586 -9.400011,4.42209 -9.400012,-4.42209 -3.8936122,-10.67586 3.8936122,-10.67586 9.400012,-4.42209 9.400011,4.42209 z"
       id="path3790-61-1-8-5"
       inkscape:connector-curvature="0"
       sodipodi:nodetypes="ccccccccc" />
    <path
       transform="matrix(0.5330837,0,0,0.46937589,149.05999,481.75193)"
       style="fill:#0044aa;fill-opacity:1;stroke:none"
       d="m 32.781814,574.01575 -3.893613,10.67586 -9.400011,4.42209 -9.400012,-4.42209 -3.8936122,-10.67586 3.8936122,-10.67586 9.400012,-4.42209 9.400011,4.42209 z"
       id="path3790-5-4-5-2-10"
       inkscape:connector-curvature="0"
       sodipodi:nodetypes="ccccccccc" />
    <path
       transform="matrix(0.5330837,0,0,0.46937589,149.05999,446.31886)"
       style="fill:#0044aa;fill-opacity:1;stroke:none"
       d="m 32.781814,574.01575 -3.893613,10.67586 -9.400011,4.42209 -9.400012,-4.42209 -3.8936122,-10.67586 3.8936122,-10.67586 9.400012,-4.42209 9.400011,4.42209 z"
       id="path3790-61-3-2-6-9"
       inkscape:connector-curvature="0"
       sodipodi:nodetypes="ccccccccc" />
    <path
       transform="matrix(0.5330837,0,0,0.46937589,255.3592,481.75193)"
       style="fill:#0044aa;fill-opacity:1;stroke:none"
       d="m 32.781814,574.01575 -3.893613,10.67586 -9.400011,4.42209 -9.400012,-4.42209 -3.8936122,-10.67586 3.8936122,-10.67586 9.400012,-4.42209 9.400011,4.42209 z"
       id="path3790-5-1-5-6-9"
       inkscape:connector-curvature="0"
       sodipodi:nodetypes="ccccccccc" />
    <path
       transform="matrix(0.5330837,0,0,0.46937589,255.3592,446.31886)"
       style="fill:#0044aa;fill-opacity:1;stroke:none"
       d="m 32.781814,574.01575 -3.893613,10.67586 -9.400011,4.42209 -9.400012,-4.42209 -3.8936122,-10.67586 3.8936122,-10.67586 9.400012,-4.42209 9.400011,4.42209 z"
       id="path3790-61-1-9-0-6"
       inkscape:connector-curvature="0"
       sodipodi:nodetypes="ccccccccc" />
    <path
       transform="matrix(0.5330837,0,0,0.46937589,219.92613,481.75193)"
       style="fill:#0044aa;fill-opacity:1;stroke:none"
       d="m 32.781814,574.01575 -3.893613,10.67586 -9.400011,4.42209 -9.400012,-4.42209 -3.8936122,-10.67586 3.8936122,-10.67586 9.400012,-4.42209 9.400011,4.42209 z"
       id="path3790-5-4-5-9-3-83"
       inkscape:connector-curvature="0"
       sodipodi:nodetypes="ccccccccc" />
    <path
       transform="matrix(0.5330837,0,0,0.46937589,326.22535,481.75193)"
       style="fill:#0044aa;fill-opacity:1;stroke:none"
       d="m 32.781814,574.01575 -3.893613,10.67586 -9.400011,4.42209 -9.400012,-4.42209 -3.8936122,-10.67586 3.8936122,-10.67586 9.400012,-4.42209 9.400011,4.42209 z"
       id="path3790-5-1-0-8"
       inkscape:connector-curvature="0"
       sodipodi:nodetypes="ccccccccc" />
    <path
       transform="matrix(0.5330837,0,0,0.46937589,326.22535,446.31886)"
       style="fill:#0044aa;fill-opacity:1;stroke:none"
       d="m 32.781814,574.01575 -3.893613,10.67586 -9.400011,4.42209 -9.400012,-4.42209 -3.8936122,-10.67586 3.8936122,-10.67586 9.400012,-4.42209 9.400011,4.42209 z"
       id="path3790-61-1-1-4"
       inkscape:connector-curvature="0"
       sodipodi:nodetypes="ccccccccc" />
    <path
       transform="matrix(0.5330837,0,0,0.46937589,290.79228,481.75193)"
       style="fill:#0044aa;fill-opacity:1;stroke:none"
       d="m 32.781814,574.01575 -3.893613,10.67586 -9.400011,4.42209 -9.400012,-4.42209 -3.8936122,-10.67586 3.8936122,-10.67586 9.400012,-4.42209 9.400011,4.42209 z"
       id="path3790-5-4-5-25-9"
       inkscape:connector-curvature="0"
       sodipodi:nodetypes="ccccccccc" />
    <path
       transform="matrix(0.5330837,0,0,0.46937589,290.79228,446.31886)"
       style="fill:#0044aa;fill-opacity:1;stroke:none"
       d="m 32.781814,574.01575 -3.893613,10.67586 -9.400011,4.42209 -9.400012,-4.42209 -3.8936122,-10.67586 3.8936122,-10.67586 9.400012,-4.42209 9.400011,4.42209 z"
       id="path3790-61-3-2-0-9"
       inkscape:connector-curvature="0"
       sodipodi:nodetypes="ccccccccc" />
    <path
       transform="matrix(0.5330837,0,0,0.46937589,361.65842,481.75193)"
       style="fill:#0044aa;fill-opacity:1;stroke:none"
       d="m 32.781814,574.01575 -3.893613,10.67586 -9.400011,4.42209 -9.400012,-4.42209 -3.8936122,-10.67586 3.8936122,-10.67586 9.400012,-4.42209 9.400011,4.42209 z"
       id="path3790-5-4-5-9-7-2"
       inkscape:connector-curvature="0"
       sodipodi:nodetypes="ccccccccc" />
    <path
       transform="matrix(0.5330837,0,0,0.46937589,361.65842,446.31886)"
       style="fill:#0044aa;fill-opacity:1;stroke:none"
       d="m 32.781814,574.01575 -3.893613,10.67586 -9.400011,4.42209 -9.400012,-4.42209 -3.8936122,-10.67586 3.8936122,-10.67586 9.400012,-4.42209 9.400011,4.42209 z"
       id="path3790-61-3-2-8-83-5"
       inkscape:connector-curvature="0"
       sodipodi:nodetypes="ccccccccc" />
    <path
       transform="matrix(0.5330837,0,0,0.46937589,42.76078,517.185)"
       style="fill:#0044aa;fill-opacity:1;stroke:none"
       d="m 32.781814,574.01575 -3.893613,10.67586 -9.400011,4.42209 -9.400012,-4.42209 -3.8936122,-10.67586 3.8936122,-10.67586 9.400012,-4.42209 9.400011,4.42209 z"
       id="path3790-61-1-2-3"
       inkscape:connector-curvature="0"
       sodipodi:nodetypes="ccccccccc" />
    <path
       transform="matrix(0.5330837,0,0,0.46937589,7.3277124,552.61807)"
       style="fill:#0044aa;fill-opacity:1;stroke:none"
       d="m 32.781814,574.01575 -3.893613,10.67586 -9.400011,4.42209 -9.400012,-4.42209 -3.8936122,-10.67586 3.8936122,-10.67586 9.400012,-4.42209 9.400011,4.42209 z"
       id="path3790-5-4-5-0-3"
       inkscape:connector-curvature="0"
       sodipodi:nodetypes="ccccccccc" />
    <path
       transform="matrix(0.5330837,0,0,0.46937589,7.3277124,517.185)"
       style="fill:#0044aa;fill-opacity:1;stroke:none"
       d="m 32.781814,574.01575 -3.893613,10.67586 -9.400011,4.42209 -9.400012,-4.42209 -3.8936122,-10.67586 3.8936122,-10.67586 9.400012,-4.42209 9.400011,4.42209 z"
       id="path3790-61-3-2-1-3"
       inkscape:connector-curvature="0"
       sodipodi:nodetypes="ccccccccc" />
    <path
       transform="matrix(0.5330837,0,0,0.46937589,113.62691,552.61807)"
       style="fill:#0044aa;fill-opacity:1;stroke:none"
       d="m 32.781814,574.01575 -3.893613,10.67586 -9.400011,4.42209 -9.400012,-4.42209 -3.8936122,-10.67586 3.8936122,-10.67586 9.400012,-4.42209 9.400011,4.42209 z"
       id="path3790-5-1-5-64-7"
       inkscape:connector-curvature="0"
       sodipodi:nodetypes="ccccccccc" />
    <path
       transform="matrix(0.5330837,0,0,0.46937589,113.62691,517.185)"
       style="fill:#0044aa;fill-opacity:1;stroke:none"
       d="m 32.781814,574.01575 -3.893613,10.67586 -9.400011,4.42209 -9.400012,-4.42209 -3.8936122,-10.67586 3.8936122,-10.67586 9.400012,-4.42209 9.400011,4.42209 z"
       id="path3790-61-1-9-06-4"
       inkscape:connector-curvature="0"
       sodipodi:nodetypes="ccccccccc" />
    <path
       transform="matrix(0.5330837,0,0,0.46937589,78.19385,552.61807)"
       style="fill:#0044aa;fill-opacity:1;stroke:none"
       d="m 32.781814,574.01575 -3.893613,10.67586 -9.400011,4.42209 -9.400012,-4.42209 -3.8936122,-10.67586 3.8936122,-10.67586 9.400012,-4.42209 9.400011,4.42209 z"
       id="path3790-5-4-5-9-1-3"
       inkscape:connector-curvature="0"
       sodipodi:nodetypes="ccccccccc" />
    <path
       transform="matrix(0.5330837,0,0,0.46937589,78.19385,517.185)"
       style="fill:#0044aa;fill-opacity:1;stroke:none"
       d="m 32.781814,574.01575 -3.893613,10.67586 -9.400011,4.42209 -9.400012,-4.42209 -3.8936122,-10.67586 3.8936122,-10.67586 9.400012,-4.42209 9.400011,4.42209 z"
       id="path3790-61-3-2-8-89-8"
       inkscape:connector-curvature="0"
       sodipodi:nodetypes="ccccccccc" />
    <path
       transform="matrix(0.5330837,0,0,0.46937589,184.49305,552.61807)"
       style="fill:#0044aa;fill-opacity:1;stroke:none"
       d="m 32.781814,574.01575 -3.893613,10.67586 -9.400011,4.42209 -9.400012,-4.42209 -3.8936122,-10.67586 3.8936122,-10.67586 9.400012,-4.42209 9.400011,4.42209 z"
       id="path3790-5-1-1-8-0"
       inkscape:connector-curvature="0"
       sodipodi:nodetypes="ccccccccc" />
    <path
       transform="matrix(0.5330837,0,0,0.46937589,184.49305,517.185)"
       style="fill:#0044aa;fill-opacity:1;stroke:none"
       d="m 32.781814,574.01575 -3.893613,10.67586 -9.400011,4.42209 -9.400012,-4.42209 -3.8936122,-10.67586 3.8936122,-10.67586 9.400012,-4.42209 9.400011,4.42209 z"
       id="path3790-61-1-8-4-8"
       inkscape:connector-curvature="0"
       sodipodi:nodetypes="ccccccccc" />
    <path
       transform="matrix(0.5330837,0,0,0.46937589,149.05998,552.61807)"
       style="fill:#0044aa;fill-opacity:1;stroke:none"
       d="m 32.781814,574.01575 -3.893613,10.67586 -9.400011,4.42209 -9.400012,-4.42209 -3.8936122,-10.67586 3.8936122,-10.67586 9.400012,-4.42209 9.400011,4.42209 z"
       id="path3790-5-4-5-2-1-8"
       inkscape:connector-curvature="0"
       sodipodi:nodetypes="ccccccccc" />
    <path
       transform="matrix(0.5330837,0,0,0.46937589,149.05998,517.185)"
       style="fill:#0044aa;fill-opacity:1;stroke:none"
       d="m 32.781814,574.01575 -3.893613,10.67586 -9.400011,4.42209 -9.400012,-4.42209 -3.8936122,-10.67586 3.8936122,-10.67586 9.400012,-4.42209 9.400011,4.42209 z"
       id="path3790-61-3-2-6-4-0"
       inkscape:connector-curvature="0"
       sodipodi:nodetypes="ccccccccc" />
    <path
       transform="matrix(0.5330837,0,0,0.46937589,255.35919,552.61807)"
       style="fill:#0044aa;fill-opacity:1;stroke:none"
       d="m 32.781814,574.01575 -3.893613,10.67586 -9.400011,4.42209 -9.400012,-4.42209 -3.8936122,-10.67586 3.8936122,-10.67586 9.400012,-4.42209 9.400011,4.42209 z"
       id="path3790-5-1-5-6-3-6"
       inkscape:connector-curvature="0"
       sodipodi:nodetypes="ccccccccc" />
    <path
       transform="matrix(0.5330837,0,0,0.46937589,255.35919,517.185)"
       style="fill:#0044aa;fill-opacity:1;stroke:none"
       d="m 32.781814,574.01575 -3.893613,10.67586 -9.400011,4.42209 -9.400012,-4.42209 -3.8936122,-10.67586 3.8936122,-10.67586 9.400012,-4.42209 9.400011,4.42209 z"
       id="path3790-61-1-9-0-9-8"
       inkscape:connector-curvature="0"
       sodipodi:nodetypes="ccccccccc" />
    <path
       transform="matrix(0.5330837,0,0,0.46937589,219.92612,552.61807)"
       style="fill:#0044aa;fill-opacity:1;stroke:none"
       d="m 32.781814,574.01575 -3.893613,10.67586 -9.400011,4.42209 -9.400012,-4.42209 -3.8936122,-10.67586 3.8936122,-10.67586 9.400012,-4.42209 9.400011,4.42209 z"
       id="path3790-5-4-5-9-3-8-1"
       inkscape:connector-curvature="0"
       sodipodi:nodetypes="ccccccccc" />
    <path
       transform="matrix(0.5330837,0,0,0.46937589,219.92612,517.185)"
       style="fill:#0044aa;fill-opacity:1;stroke:none"
       d="m 32.781814,574.01575 -3.893613,10.67586 -9.400011,4.42209 -9.400012,-4.42209 -3.8936122,-10.67586 3.8936122,-10.67586 9.400012,-4.42209 9.400011,4.42209 z"
       id="path3790-61-3-2-8-8-8-9"
       inkscape:connector-curvature="0"
       sodipodi:nodetypes="ccccccccc" />
    <path
       transform="matrix(0.5330837,0,0,0.46937589,326.22534,552.61807)"
       style="fill:#0044aa;fill-opacity:1;stroke:none"
       d="m 32.781814,574.01575 -3.893613,10.67586 -9.400011,4.42209 -9.400012,-4.42209 -3.8936122,-10.67586 3.8936122,-10.67586 9.400012,-4.42209 9.400011,4.42209 z"
       id="path3790-5-1-0-0-8"
       inkscape:connector-curvature="0"
       sodipodi:nodetypes="ccccccccc" />
    <path
       transform="matrix(0.5330837,0,0,0.46937589,326.22534,517.185)"
       style="fill:#0044aa;fill-opacity:1;stroke:none"
       d="m 32.781814,574.01575 -3.893613,10.67586 -9.400011,4.42209 -9.400012,-4.42209 -3.8936122,-10.67586 3.8936122,-10.67586 9.400012,-4.42209 9.400011,4.42209 z"
       id="path3790-61-1-1-8-9"
       inkscape:connector-curvature="0"
       sodipodi:nodetypes="ccccccccc" />
    <path
       transform="matrix(0.5330837,0,0,0.46937589,290.79227,552.61807)"
       style="fill:#0044aa;fill-opacity:1;stroke:none"
       d="m 32.781814,574.01575 -3.893613,10.67586 -9.400011,4.42209 -9.400012,-4.42209 -3.8936122,-10.67586 3.8936122,-10.67586 9.400012,-4.42209 9.400011,4.42209 z"
       id="path3790-5-4-5-25-7-7"
       inkscape:connector-curvature="0"
       sodipodi:nodetypes="ccccccccc" />
    <path
       transform="matrix(0.5330837,0,0,0.46937589,290.79227,517.185)"
       style="fill:#0044aa;fill-opacity:1;stroke:none"
       d="m 32.781814,574.01575 -3.893613,10.67586 -9.400011,4.42209 -9.400012,-4.42209 -3.8936122,-10.67586 3.8936122,-10.67586 9.400012,-4.42209 9.400011,4.42209 z"
       id="path3790-61-3-2-0-7-2"
       inkscape:connector-curvature="0"
       sodipodi:nodetypes="ccccccccc" />
    <path
       transform="matrix(0.5330837,0,0,0.46937589,361.65841,552.61807)"
       style="fill:#0044aa;fill-opacity:1;stroke:none"
       d="m 32.781814,574.01575 -3.893613,10.67586 -9.400011,4.42209 -9.400012,-4.42209 -3.8936122,-10.67586 3.8936122,-10.67586 9.400012,-4.42209 9.400011,4.42209 z"
       id="path3790-5-4-5-9-7-8-2"
       inkscape:connector-curvature="0"
       sodipodi:nodetypes="ccccccccc" />
    <path
       transform="matrix(0.5330837,0,0,0.46937589,361.65841,517.185)"
       style="fill:#0044aa;fill-opacity:1;stroke:none"
       d="m 32.781814,574.01575 -3.893613,10.67586 -9.400011,4.42209 -9.400012,-4.42209 -3.8936122,-10.67586 3.8936122,-10.67586 9.400012,-4.42209 9.400011,4.42209 z"
       id="path3790-61-3-2-8-83-3-8"
       inkscape:connector-curvature="0"
       sodipodi:nodetypes="ccccccccc" />
    <path
       transform="matrix(0.5330837,0,0,0.46937589,42.760781,410.88579)"
       style="fill:#0044aa;fill-opacity:1;stroke:none"
       d="m 32.781814,574.01575 -3.893613,10.67586 -9.400011,4.42209 -9.400012,-4.42209 -3.8936122,-10.67586 3.8936122,-10.67586 9.400012,-4.42209 9.400011,4.42209 z"
       id="path3790-5-1-51-8"
       inkscape:connector-curvature="0"
       sodipodi:nodetypes="ccccccccc" />
    <path
       transform="matrix(0.5330837,0,0,0.46937589,7.3277138,410.88579)"
       style="fill:#0044aa;fill-opacity:1;stroke:none"
       d="m 32.781814,574.01575 -3.893613,10.67586 -9.400011,4.42209 -9.400012,-4.42209 -3.8936122,-10.67586 3.8936122,-10.67586 9.400012,-4.42209 9.400011,4.42209 z"
       id="path3790-5-4-5-0-1"
       inkscape:connector-curvature="0"
       sodipodi:nodetypes="ccccccccc" />
    <path
       transform="matrix(0.5330837,0,0,0.46937589,113.62691,410.88579)"
       style="fill:#0044aa;fill-opacity:1;stroke:none"
       d="m 32.781814,574.01575 -3.893613,10.67586 -9.400011,4.42209 -9.400012,-4.42209 -3.8936122,-10.67586 3.8936122,-10.67586 9.400012,-4.42209 9.400011,4.42209 z"
       id="path3790-5-1-5-64-9"
       inkscape:connector-curvature="0"
       sodipodi:nodetypes="ccccccccc" />
    <path
       transform="matrix(0.5330837,0,0,0.46937589,78.193851,410.88579)"
       style="fill:#0044aa;fill-opacity:1;stroke:none"
       d="m 32.781814,574.01575 -3.893613,10.67586 -9.400011,4.42209 -9.400012,-4.42209 -3.8936122,-10.67586 3.8936122,-10.67586 9.400012,-4.42209 9.400011,4.42209 z"
       id="path3790-5-4-5-9-1-6"
       inkscape:connector-curvature="0"
       sodipodi:nodetypes="ccccccccc" />
    <path
       transform="matrix(0.5330837,0,0,0.46937589,184.49305,410.88579)"
       style="fill:#0044aa;fill-opacity:1;stroke:none"
       d="m 32.781814,574.01575 -3.893613,10.67586 -9.400011,4.42209 -9.400012,-4.42209 -3.8936122,-10.67586 3.8936122,-10.67586 9.400012,-4.42209 9.400011,4.42209 z"
       id="path3790-5-1-1-8-9"
       inkscape:connector-curvature="0"
       sodipodi:nodetypes="ccccccccc" />
    <path
       transform="matrix(0.5330837,0,0,0.46937589,149.05998,410.88579)"
       style="fill:#0044aa;fill-opacity:1;stroke:none"
       d="m 32.781814,574.01575 -3.893613,10.67586 -9.400011,4.42209 -9.400012,-4.42209 -3.8936122,-10.67586 3.8936122,-10.67586 9.400012,-4.42209 9.400011,4.42209 z"
       id="path3790-5-4-5-2-1-2"
       inkscape:connector-curvature="0"
       sodipodi:nodetypes="ccccccccc" />
    <path
       transform="matrix(0.5330837,0,0,0.46937589,255.35919,410.88579)"
       style="fill:#0044aa;fill-opacity:1;stroke:none"
       d="m 32.781814,574.01575 -3.893613,10.67586 -9.400011,4.42209 -9.400012,-4.42209 -3.8936122,-10.67586 3.8936122,-10.67586 9.400012,-4.42209 9.400011,4.42209 z"
       id="path3790-5-1-5-6-3-3"
       inkscape:connector-curvature="0"
       sodipodi:nodetypes="ccccccccc" />
    <path
       transform="matrix(0.5330837,0,0,0.46937589,219.92612,410.88579)"
       style="fill:#0044aa;fill-opacity:1;stroke:none"
       d="m 32.781814,574.01575 -3.893613,10.67586 -9.400011,4.42209 -9.400012,-4.42209 -3.8936122,-10.67586 3.8936122,-10.67586 9.400012,-4.42209 9.400011,4.42209 z"
       id="path3790-5-4-5-9-3-8-18"
       inkscape:connector-curvature="0"
       sodipodi:nodetypes="ccccccccc" />
    <path
       transform="matrix(0.5330837,0,0,0.46937589,326.22534,410.88579)"
       style="fill:#0044aa;fill-opacity:1;stroke:none"
       d="m 32.781814,574.01575 -3.893613,10.67586 -9.400011,4.42209 -9.400012,-4.42209 -3.8936122,-10.67586 3.8936122,-10.67586 9.400012,-4.42209 9.400011,4.42209 z"
       id="path3790-5-1-0-0-9"
       inkscape:connector-curvature="0"
       sodipodi:nodetypes="ccccccccc" />
    <path
       transform="matrix(0.5330837,0,0,0.46937589,290.79227,410.88579)"
       style="fill:#0044aa;fill-opacity:1;stroke:none"
       d="m 32.781814,574.01575 -3.893613,10.67586 -9.400011,4.42209 -9.400012,-4.42209 -3.8936122,-10.67586 3.8936122,-10.67586 9.400012,-4.42209 9.400011,4.42209 z"
       id="path3790-5-4-5-25-7-3"
       inkscape:connector-curvature="0"
       sodipodi:nodetypes="ccccccccc" />
    <path
       transform="matrix(0.5330837,0,0,0.46937589,361.65841,410.88579)"
       style="fill:#0044aa;fill-opacity:1;stroke:none"
       d="m 32.781814,574.01575 -3.893613,10.67586 -9.400011,4.42209 -9.400012,-4.42209 -3.8936122,-10.67586 3.8936122,-10.67586 9.400012,-4.42209 9.400011,4.42209 z"
       id="path3790-5-4-5-9-7-8-25"
       inkscape:connector-curvature="0"
       sodipodi:nodetypes="ccccccccc" />
    <path
       transform="matrix(0.5330837,0,0,0.46937589,42.760777,765.2165)"
       style="fill:#0044aa;fill-opacity:1;stroke:none"
       d="m 32.781814,574.01575 -3.893613,10.67586 -9.400011,4.42209 -9.400012,-4.42209 -3.8936122,-10.67586 3.8936122,-10.67586 9.400012,-4.42209 9.400011,4.42209 z"
       id="path3790-5-1-7"
       inkscape:connector-curvature="0"
       sodipodi:nodetypes="ccccccccc" />
    <path
       transform="matrix(0.5330837,0,0,0.46937589,7.3277063,765.2165)"
       style="fill:#0044aa;fill-opacity:1;stroke:none"
       d="m 32.781814,574.01575 -3.893613,10.67586 -9.400011,4.42209 -9.400012,-4.42209 -3.8936122,-10.67586 3.8936122,-10.67586 9.400012,-4.42209 9.400011,4.42209 z"
       id="path3790-5-4-5-22"
       inkscape:connector-curvature="0"
       sodipodi:nodetypes="ccccccccc" />
    <path
       transform="matrix(0.5330837,0,0,0.46937589,113.62691,765.2165)"
       style="fill:#0044aa;fill-opacity:1;stroke:none"
       d="m 32.781814,574.01575 -3.893613,10.67586 -9.400011,4.42209 -9.400012,-4.42209 -3.8936122,-10.67586 3.8936122,-10.67586 9.400012,-4.42209 9.400011,4.42209 z"
       id="path3790-5-1-5-4"
       inkscape:connector-curvature="0"
       sodipodi:nodetypes="ccccccccc" />
    <path
       transform="matrix(0.5330837,0,0,0.46937589,113.62691,729.78343)"
       style="fill:#0044aa;fill-opacity:1;stroke:none"
       d="m 32.781814,574.01575 -3.893613,10.67586 -9.400011,4.42209 -9.400012,-4.42209 -3.8936122,-10.67586 3.8936122,-10.67586 9.400012,-4.42209 9.400011,4.42209 z"
       id="path3790-61-1-9-1"
       inkscape:connector-curvature="0"
       sodipodi:nodetypes="ccccccccc" />
    <path
       transform="matrix(0.5330837,0,0,0.46937589,78.193848,765.2165)"
       style="fill:#0044aa;fill-opacity:1;stroke:none"
       d="m 32.781814,574.01575 -3.893613,10.67586 -9.400011,4.42209 -9.400012,-4.42209 -3.8936122,-10.67586 3.8936122,-10.67586 9.400012,-4.42209 9.400011,4.42209 z"
       id="path3790-5-4-5-9-9"
       inkscape:connector-curvature="0"
       sodipodi:nodetypes="ccccccccc" />
    <path
       transform="matrix(0.5330837,0,0,0.46937589,78.193848,729.78343)"
       style="fill:#0044aa;fill-opacity:1;stroke:none"
       d="m 32.781814,574.01575 -3.893613,10.67586 -9.400011,4.42209 -9.400012,-4.42209 -3.8936122,-10.67586 3.8936122,-10.67586 9.400012,-4.42209 9.400011,4.42209 z"
       id="path3790-61-3-2-8-6"
       inkscape:connector-curvature="0"
       sodipodi:nodetypes="ccccccccc" />
    <path
       transform="matrix(0.5330837,0,0,0.46937589,184.49305,765.2165)"
       style="fill:#0044aa;fill-opacity:1;stroke:none"
       d="m 32.781814,574.01575 -3.893613,10.67586 -9.400011,4.42209 -9.400012,-4.42209 -3.8936122,-10.67586 3.8936122,-10.67586 9.400012,-4.42209 9.400011,4.42209 z"
       id="path3790-5-1-1-9"
       inkscape:connector-curvature="0"
       sodipodi:nodetypes="ccccccccc" />
    <path
       transform="matrix(0.5330837,0,0,0.46937589,184.49305,729.78343)"
       style="fill:#0044aa;fill-opacity:1;stroke:none"
       d="m 32.781814,574.01575 -3.893613,10.67586 -9.400011,4.42209 -9.400012,-4.42209 -3.8936122,-10.67586 3.8936122,-10.67586 9.400012,-4.42209 9.400011,4.42209 z"
       id="path3790-61-1-8-8"
       inkscape:connector-curvature="0"
       sodipodi:nodetypes="ccccccccc" />
    <path
       transform="matrix(0.5330837,0,0,0.46937589,149.05998,765.2165)"
       style="fill:#0044aa;fill-opacity:1;stroke:none"
       d="m 32.781814,574.01575 -3.893613,10.67586 -9.400011,4.42209 -9.400012,-4.42209 -3.8936122,-10.67586 3.8936122,-10.67586 9.400012,-4.42209 9.400011,4.42209 z"
       id="path3790-5-4-5-2-2"
       inkscape:connector-curvature="0"
       sodipodi:nodetypes="ccccccccc" />
    <path
       transform="matrix(0.5330837,0,0,0.46937589,149.05998,729.78343)"
       style="fill:#0044aa;fill-opacity:1;stroke:none"
       d="m 32.781814,574.01575 -3.893613,10.67586 -9.400011,4.42209 -9.400012,-4.42209 -3.8936122,-10.67586 3.8936122,-10.67586 9.400012,-4.42209 9.400011,4.42209 z"
       id="path3790-61-3-2-6-5"
       inkscape:connector-curvature="0"
       sodipodi:nodetypes="ccccccccc" />
    <path
       transform="matrix(0.5330837,0,0,0.46937589,255.35919,765.2165)"
       style="fill:#0044aa;fill-opacity:1;stroke:none"
       d="m 32.781814,574.01575 -3.893613,10.67586 -9.400011,4.42209 -9.400012,-4.42209 -3.8936122,-10.67586 3.8936122,-10.67586 9.400012,-4.42209 9.400011,4.42209 z"
       id="path3790-5-1-5-6-5"
       inkscape:connector-curvature="0"
       sodipodi:nodetypes="ccccccccc" />
    <path
       transform="matrix(0.5330837,0,0,0.46937589,255.35919,729.78343)"
       style="fill:#0044aa;fill-opacity:1;stroke:none"
       d="m 32.781814,574.01575 -3.893613,10.67586 -9.400011,4.42209 -9.400012,-4.42209 -3.8936122,-10.67586 3.8936122,-10.67586 9.400012,-4.42209 9.400011,4.42209 z"
       id="path3790-61-1-9-0-4"
       inkscape:connector-curvature="0"
       sodipodi:nodetypes="ccccccccc" />
    <path
       transform="matrix(0.5330837,0,0,0.46937589,219.92612,765.2165)"
       style="fill:#0044aa;fill-opacity:1;stroke:none"
       d="m 32.781814,574.01575 -3.893613,10.67586 -9.400011,4.42209 -9.400012,-4.42209 -3.8936122,-10.67586 3.8936122,-10.67586 9.400012,-4.42209 9.400011,4.42209 z"
       id="path3790-5-4-5-9-3-9"
       inkscape:connector-curvature="0"
       sodipodi:nodetypes="ccccccccc" />
    <path
       transform="matrix(0.5330837,0,0,0.46937589,219.92612,729.78343)"
       style="fill:#0044aa;fill-opacity:1;stroke:none"
       d="m 32.781814,574.01575 -3.893613,10.67586 -9.400011,4.42209 -9.400012,-4.42209 -3.8936122,-10.67586 3.8936122,-10.67586 9.400012,-4.42209 9.400011,4.42209 z"
       id="path3790-61-3-2-8-8-1"
       inkscape:connector-curvature="0"
       sodipodi:nodetypes="ccccccccc" />
    <path
       transform="matrix(0.5330837,0,0,0.46937589,326.22534,765.2165)"
       style="fill:#0044aa;fill-opacity:1;stroke:none"
       d="m 32.781814,574.01575 -3.893613,10.67586 -9.400011,4.42209 -9.400012,-4.42209 -3.8936122,-10.67586 3.8936122,-10.67586 9.400012,-4.42209 9.400011,4.42209 z"
       id="path3790-5-1-0-2"
       inkscape:connector-curvature="0"
       sodipodi:nodetypes="ccccccccc" />
    <path
       transform="matrix(0.5330837,0,0,0.46937589,290.79227,765.2165)"
       style="fill:#0044aa;fill-opacity:1;stroke:none"
       d="m 32.781814,574.01575 -3.893613,10.67586 -9.400011,4.42209 -9.400012,-4.42209 -3.8936122,-10.67586 3.8936122,-10.67586 9.400012,-4.42209 9.400011,4.42209 z"
       id="path3790-5-4-5-25-0"
       inkscape:connector-curvature="0"
       sodipodi:nodetypes="ccccccccc" />
    <path
       transform="matrix(0.5330837,0,0,0.46937589,290.79227,729.78343)"
       style="fill:#0044aa;fill-opacity:1;stroke:none"
       d="m 32.781814,574.01575 -3.893613,10.67586 -9.400011,4.42209 -9.400012,-4.42209 -3.8936122,-10.67586 3.8936122,-10.67586 9.400012,-4.42209 9.400011,4.42209 z"
       id="path3790-61-3-2-0-8"
       inkscape:connector-curvature="0"
       sodipodi:nodetypes="ccccccccc" />
    <path
       transform="matrix(0.5330837,0,0,0.46937589,361.65841,765.2165)"
       style="fill:#0044aa;fill-opacity:1;stroke:none"
       d="m 32.781814,574.01575 -3.893613,10.67586 -9.400011,4.42209 -9.400012,-4.42209 -3.8936122,-10.67586 3.8936122,-10.67586 9.400012,-4.42209 9.400011,4.42209 z"
       id="path3790-5-4-5-9-7-3"
       inkscape:connector-curvature="0"
       sodipodi:nodetypes="ccccccccc" />
    <path
       transform="matrix(0.5330837,0,0,0.46937589,219.92612,623.48421)"
       style="fill:#0044aa;fill-opacity:1;stroke:none"
       d="m 32.781814,574.01575 -3.893613,10.67586 -9.400011,4.42209 -9.400012,-4.42209 -3.8936122,-10.67586 3.8936122,-10.67586 9.400012,-4.42209 9.400011,4.42209 z"
       id="path3790-5-1-5-6-1"
       inkscape:connector-curvature="0"
       sodipodi:nodetypes="ccccccccc" />
    <path
       transform="matrix(0.5330837,0,0,0.46937589,219.92613,446.31886)"
       style="fill:#0044aa;fill-opacity:1;stroke:none"
       d="m 32.781814,574.01575 -3.893613,10.67586 -9.400011,4.42209 -9.400012,-4.42209 -3.8936122,-10.67586 3.8936122,-10.67586 9.400012,-4.42209 9.400011,4.42209 z"
       id="path3790-5-1-5-6-7"
       inkscape:connector-curvature="0"
       sodipodi:nodetypes="ccccccccc" />
    <path
       transform="matrix(0.5330837,0,0,0.46937589,42.760773,446.31886)"
       style="fill:#0044aa;fill-opacity:1;stroke:none"
       d="m 32.781814,574.01575 -3.893613,10.67586 -9.400011,4.42209 -9.400012,-4.42209 -3.8936122,-10.67586 3.8936122,-10.67586 9.400012,-4.42209 9.400011,4.42209 z"
       id="path3790-5-1-5-6-4"
       inkscape:connector-curvature="0"
       sodipodi:nodetypes="ccccccccc" />
    <path
       transform="matrix(0.5330837,0,0,0.46937589,42.760773,552.61808)"
       style="fill:#0044aa;fill-opacity:1;stroke:none"
       d="m 32.781814,574.01575 -3.893613,10.67586 -9.400011,4.42209 -9.400012,-4.42209 -3.8936122,-10.67586 3.8936122,-10.67586 9.400012,-4.42209 9.400011,4.42209 z"
       id="path3790-5-1-5-6-0"
       inkscape:connector-curvature="0"
       sodipodi:nodetypes="ccccccccc" />
  </g>
</svg>
