  0
SECTION
  2
HEADER
  9
$ACADVER
  1
AC1014
  9
$HANDSEED
  5
FFFF
  9
$MEASUREMENT
 70
     1
  0
ENDSEC
  0
SECTION
  2
TABLES
  0
TABLE
  2
VPORT
  5
8
330
0
100
AcDbSymbolTable
 70
     4
  0
VPORT
  5
2E
330
8
100
AcDbSymbolTableRecord
100
AcDbViewportTableRecord
  2
*ACTIVE
 70
     0
 10
0.0
 20
0.0
 11
1.0
 21
1.0
 12
210.0
 22
148.5
 13
0.0
 23
0.0
 14
10.0
 24
10.0
 15
10.0
 25
10.0
 16
0.0
 26
0.0
 36
1.0
 17
0.0
 27
0.0
 37
0.0
 40
341.0
 41
1.24
 42
50.0
 43
0.0
 44
0.0
 50
0.0
 51
0.0
 71
     0
 72
   100
 73
     1
 74
     3
 75
     0
 76
     0
 77
     0
 78
     0
  0
ENDTAB
  0
TABLE
  2
LTYPE
  5
5
330
0
100
AcDbSymbolTable
 70
     1
  0
LTYPE
  5
14
330
5
100
AcDbSymbolTableRecord
100
AcDbLinetypeTableRecord
  2
BYBLOCK
 70
     0
  3

 72
    65
 73
     0
 40
0.0
  0
LTYPE
  5
15
330
5
100
AcDbSymbolTableRecord
100
AcDbLinetypeTableRecord
  2
BYLAYER
 70
     0
  3

 72
    65
 73
     0
 40
0.0
  0
LTYPE
  5
16
330
5
100
AcDbSymbolTableRecord
100
AcDbLinetypeTableRecord
  2
CONTINUOUS
 70
     0
  3
Solid line
 72
    65
 73
     0
 40
0.0
  0
ENDTAB
  0
TABLE
  2
LAYER
  5
2
100
AcDbSymbolTable
 70
2
  0
LAYER
  5
50
100
AcDbSymbolTableRecord
100
AcDbLayerTableRecord
  2
0
 70
0
  6
CONTINUOUS
  0
LAYER
  5
51
100
AcDbSymbolTableRecord
100
AcDbLayerTableRecord
  2
Layer_1
 70
0
  6
CONTINUOUS
  0
ENDTAB
  0
TABLE
  2
STYLE
  5
3
330
0
100
AcDbSymbolTable
 70
     1
  0
STYLE
  5
11
330
3
100
AcDbSymbolTableRecord
100
AcDbTextStyleTableRecord
  2
STANDARD
 70
     0
 40
0.0
 41
1.0
 50
0.0
 71
     0
 42
2.5
  3
txt
  4

  0
ENDTAB
  0
TABLE
  2
VIEW
  5
6
330
0
100
AcDbSymbolTable
 70
     0
  0
ENDTAB
  0
TABLE
  2
UCS
  5
7
330
0
100
AcDbSymbolTable
 70
     0
  0
ENDTAB
  0
TABLE
  2
APPID
  5
9
330
0
100
AcDbSymbolTable
 70
     2
  0
APPID
  5
12
330
9
100
AcDbSymbolTableRecord
100
AcDbRegAppTableRecord
  2
ACAD
 70
     0
  0
ENDTAB
  0
TABLE
  2
DIMSTYLE
  5
A
330
0
100
AcDbSymbolTable
 70
     1
  0
DIMSTYLE
105
27
330
A
100
AcDbSymbolTableRecord
100
AcDbDimStyleTableRecord
  2
ISO-25
 70
     0
  3

  4

  5

  6

  7

 40
1.0
 41
2.5
 42
0.625
 43
3.75
 44
1.25
 45
0.0
 46
0.0
 47
0.0
 48
0.0
140
2.5
141
2.5
142
0.0
143
0.03937007874016
144
1.0
145
0.0
146
1.0
147
0.625
 71
     0
 72
     0
 73
     0
 74
     0
 75
     0
 76
     0
 77
     1
 78
     8
170
     0
171
     3
172
     1
173
     0
174
     0
175
     0
176
     0
177
     0
178
     0
270
     2
271
     2
272
     2
273
     2
274
     3
340
11
275
     0
280
     0
281
     0
282
     0
283
     0
284
     8
285
     0
286
     0
287
     3
288
     0
  0
ENDTAB
  0
TABLE
  2
BLOCK_RECORD
  5
1
330
0
100
AcDbSymbolTable
 70
     1
  0
BLOCK_RECORD
  5
1F
330
1
100
AcDbSymbolTableRecord
100
AcDbBlockTableRecord
  2
*MODEL_SPACE
  0
BLOCK_RECORD
  5
1B
330
1
100
AcDbSymbolTableRecord
100
AcDbBlockTableRecord
  2
*PAPER_SPACE
  0
ENDTAB
  0
ENDSEC
  0
SECTION
  2
BLOCKS
  0
BLOCK
  5
20
330
1F
100
AcDbEntity
  8
0
100
AcDbBlockBegin
  2
*MODEL_SPACE
 70
     0
 10
0.0
 20
0.0
 30
0.0
  3
*MODEL_SPACE
  1

  0
ENDBLK
  5
21
330
1F
100
AcDbEntity
  8
0
100
AcDbBlockEnd
  0
BLOCK
  5
1C
330
1B
100
AcDbEntity
 67
     1
  8
0
100
AcDbBlockBegin
  2
*PAPER_SPACE
  1

  0
ENDBLK
  5
1D
330
1B
100
AcDbEntity
 67
     1
  8
0
100
AcDbBlockEnd
  0
ENDSEC
  0
SECTION
  2
ENTITIES
  0
LINE
  5
100
100
AcDbEntity
  8
Layer_1
 62
1
100
AcDbLine
 10
18.252451
 20
-17.326181
 30
0.0
 11
17.516443
 21
-17.957857
 31
0.0
  0
LINE
  5
101
100
AcDbEntity
  8
Layer_1
 62
1
100
AcDbLine
 10
17.516443
 20
-17.957857
 30
0.0
 11
16.954671
 21
-18.222226
 31
0.0
  0
LINE
  5
102
100
AcDbEntity
  8
Layer_1
 62
1
100
AcDbLine
 10
16.954671
 20
-18.222226
 30
0.0
 11
16.504520
 21
-18.236584
 31
0.0
  0
LINE
  5
103
100
AcDbEntity
  8
Layer_1
 62
1
100
AcDbLine
 10
16.504520
 20
-18.236584
 30
0.0
 11
16.103374
 21
-18.118217
 31
0.0
  0
LINE
  5
104
100
AcDbEntity
  8
Layer_1
 62
1
100
AcDbLine
 10
16.103374
 20
-18.118217
 30
0.0
 11
15.688615
 21
-17.984419
 31
0.0
  0
LINE
  5
105
100
AcDbEntity
  8
Layer_1
 62
1
100
AcDbLine
 10
15.688615
 20
-17.984419
 30
0.0
 11
15.197626
 21
-17.952487
 31
0.0
  0
LINE
  5
106
100
AcDbEntity
  8
Layer_1
 62
1
100
AcDbLine
 10
15.197626
 20
-17.952487
 30
0.0
 11
14.567791
 21
-18.139712
 31
0.0
  0
LINE
  5
107
100
AcDbEntity
  8
Layer_1
 62
1
100
AcDbLine
 10
14.567791
 20
-18.139712
 30
0.0
 11
13.736493
 21
-18.663389
 31
0.0
  0
LINE
  5
108
100
AcDbEntity
  8
Layer_1
 62
1
100
AcDbLine
 10
13.736493
 20
-18.663389
 30
0.0
 11
13.159175
 21
-19.221576
 31
0.0
  0
LINE
  5
109
100
AcDbEntity
  8
Layer_1
 62
1
100
AcDbLine
 10
13.159175
 20
-19.221576
 30
0.0
 11
12.914535
 21
-19.708269
 31
0.0
  0
LINE
  5
10a
100
AcDbEntity
  8
Layer_1
 62
1
100
AcDbLine
 10
12.914535
 20
-19.708269
 30
0.0
 11
12.887793
 21
-20.141173
 31
0.0
  0
LINE
  5
10b
100
AcDbEntity
  8
Layer_1
 62
1
100
AcDbLine
 10
12.887793
 20
-20.141173
 30
0.0
 11
12.964158
 21
-20.537992
 31
0.0
  0
LINE
  5
10c
100
AcDbEntity
  8
Layer_1
 62
1
100
AcDbLine
 10
12.964158
 20
-20.537992
 30
0.0
 11
13.028850
 21
-20.916429
 31
0.0
  0
LINE
  5
10d
100
AcDbEntity
  8
Layer_1
 62
1
100
AcDbLine
 10
13.028850
 20
-20.916429
 30
0.0
 11
12.967080
 21
-21.294190
 31
0.0
  0
LINE
  5
10e
100
AcDbEntity
  8
Layer_1
 62
1
100
AcDbLine
 10
12.967080
 20
-21.294190
 30
0.0
 11
12.664069
 21
-21.688980
 31
0.0
  0
LINE
  5
10f
100
AcDbEntity
  8
Layer_1
 62
1
100
AcDbLine
 10
12.664069
 20
-21.688980
 30
0.0
 11
12.005027
 21
-22.118500
 31
0.0
  0
LINE
  5
110
100
AcDbEntity
  8
Layer_1
 62
1
100
AcDbLine
 10
12.005027
 20
-22.118500
 30
0.0
 11
11.109842
 21
-22.491821
 31
0.0
  0
LINE
  5
111
100
AcDbEntity
  8
Layer_1
 62
1
100
AcDbLine
 10
11.109842
 20
-22.491821
 30
0.0
 11
10.493871
 21
-22.569653
 31
0.0
  0
LINE
  5
112
100
AcDbEntity
  8
Layer_1
 62
1
100
AcDbLine
 10
10.493871
 20
-22.569653
 30
0.0
 11
10.061317
 21
-22.444200
 31
0.0
  0
LINE
  5
113
100
AcDbEntity
  8
Layer_1
 62
1
100
AcDbLine
 10
10.061317
 20
-22.444200
 30
0.0
 11
9.716381
 21
-22.207663
 31
0.0
  0
LINE
  5
114
100
AcDbEntity
  8
Layer_1
 62
1
100
AcDbLine
 10
9.716381
 20
-22.207663
 30
0.0
 11
9.363267
 21
-21.952246
 31
0.0
  0
LINE
  5
115
100
AcDbEntity
  8
Layer_1
 62
1
100
AcDbLine
 10
9.363267
 20
-21.952246
 30
0.0
 11
8.906177
 21
-21.770154
 31
0.0
  0
LINE
  5
116
100
AcDbEntity
  8
Layer_1
 62
1
100
AcDbLine
 10
8.906177
 20
-21.770154
 30
0.0
 11
8.249312
 21
-21.753586
 31
0.0
  0
LINE
  5
117
100
AcDbEntity
  8
Layer_1
 62
1
100
AcDbLine
 10
8.249312
 20
-21.753586
 30
0.0
 11
7.296876
 21
-21.994747
 31
0.0
  0
LINE
  5
118
100
AcDbEntity
  8
Layer_1
 62
1
100
AcDbLine
 10
7.296876
 20
-21.994747
 30
0.0
 11
6.575325
 21
-22.347212
 31
0.0
  0
LINE
  5
119
100
AcDbEntity
  8
Layer_1
 62
1
100
AcDbLine
 10
6.575325
 20
-22.347212
 30
0.0
 11
6.192265
 21
-22.734488
 31
0.0
  0
LINE
  5
11a
100
AcDbEntity
  8
Layer_1
 62
1
100
AcDbLine
 10
6.192265
 20
-22.734488
 30
0.0
 11
6.033056
 21
-23.137939
 31
0.0
  0
LINE
  5
11b
100
AcDbEntity
  8
Layer_1
 62
1
100
AcDbLine
 10
6.033056
 20
-23.137939
 30
0.0
 11
5.983060
 21
-23.538935
 31
0.0
  0
LINE
  5
11c
100
AcDbEntity
  8
Layer_1
 62
1
100
AcDbLine
 10
5.983060
 20
-23.538935
 30
0.0
 11
5.927642
 21
-23.918843
 31
0.0
  0
LINE
  5
11d
100
AcDbEntity
  8
Layer_1
 62
1
100
AcDbLine
 10
5.927642
 20
-23.918843
 30
0.0
 11
5.752162
 21
-24.259027
 31
0.0
  0
LINE
  5
11e
100
AcDbEntity
  8
Layer_1
 62
1
100
AcDbLine
 10
5.752162
 20
-24.259027
 30
0.0
 11
5.341983
 21
-24.540858
 31
0.0
  0
LINE
  5
11f
100
AcDbEntity
  8
Layer_1
 62
1
100
AcDbLine
 10
5.341983
 20
-24.540858
 30
0.0
 11
4.582468
 21
-24.745701
 31
0.0
  0
LINE
  5
120
100
AcDbEntity
  8
Layer_1
 62
1
100
AcDbLine
 10
4.582468
 20
-24.745701
 30
0.0
 11
3.615734
 21
-24.824122
 31
0.0
  0
LINE
  5
121
100
AcDbEntity
  8
Layer_1
 62
1
100
AcDbLine
 10
3.615734
 20
-24.824122
 30
0.0
 11
3.005859
 21
-24.707800
 31
0.0
  0
LINE
  5
122
100
AcDbEntity
  8
Layer_1
 62
1
100
AcDbLine
 10
3.005859
 20
-24.707800
 30
0.0
 11
2.633243
 21
-24.454820
 31
0.0
  0
LINE
  5
123
100
AcDbEntity
  8
Layer_1
 62
1
100
AcDbLine
 10
2.633243
 20
-24.454820
 30
0.0
 11
2.378285
 21
-24.123270
 31
0.0
  0
LINE
  5
124
100
AcDbEntity
  8
Layer_1
 62
1
100
AcDbLine
 10
2.378285
 20
-24.123270
 30
0.0
 11
2.121381
 21
-23.771237
 31
0.0
  0
LINE
  5
125
100
AcDbEntity
  8
Layer_1
 62
1
100
AcDbLine
 10
2.121381
 20
-23.771237
 30
0.0
 11
1.742931
 21
-23.456806
 31
0.0
  0
LINE
  5
126
100
AcDbEntity
  8
Layer_1
 62
1
100
AcDbLine
 10
1.742931
 20
-23.456806
 30
0.0
 11
1.123336
 21
-23.238068
 31
0.0
  0
LINE
  5
127
100
AcDbEntity
  8
Layer_1
 62
1
100
AcDbLine
 10
1.123336
 20
-23.238068
 30
0.0
 11
0.142993
 21
-23.173106
 31
0.0
  0
LINE
  5
128
100
AcDbEntity
  8
Layer_1
 62
1
100
AcDbLine
 10
0.142993
 20
-23.173106
 30
0.0
 11
-0.652161
 21
-23.285349
 31
0.0
  0
LINE
  5
129
100
AcDbEntity
  8
Layer_1
 62
1
100
AcDbLine
 10
-0.652161
 20
-23.285349
 30
0.0
 11
-1.136149
 21
-23.535296
 31
0.0
  0
LINE
  5
12a
100
AcDbEntity
  8
Layer_1
 62
1
100
AcDbLine
 10
-1.136149
 20
-23.535296
 30
0.0
 11
-1.412239
 21
-23.869803
 31
0.0
  0
LINE
  5
12b
100
AcDbEntity
  8
Layer_1
 62
1
100
AcDbLine
 10
-1.412239
 20
-23.869803
 30
0.0
 11
-1.583702
 21
-24.235725
 31
0.0
  0
LINE
  5
12c
100
AcDbEntity
  8
Layer_1
 62
1
100
AcDbLine
 10
-1.583702
 20
-24.235725
 30
0.0
 11
-1.753807
 21
-24.579912
 31
0.0
  0
LINE
  5
12d
100
AcDbEntity
  8
Layer_1
 62
1
100
AcDbLine
 10
-1.753807
 20
-24.579912
 30
0.0
 11
-2.025821
 21
-24.849222
 31
0.0
  0
LINE
  5
12e
100
AcDbEntity
  8
Layer_1
 62
1
100
AcDbLine
 10
-2.025821
 20
-24.849222
 30
0.0
 11
-2.503015
 21
-24.990506
 31
0.0
  0
LINE
  5
12f
100
AcDbEntity
  8
Layer_1
 62
1
100
AcDbLine
 10
-2.503015
 20
-24.990506
 30
0.0
 11
-3.288657
 21
-24.950621
 31
0.0
  0
LINE
  5
130
100
AcDbEntity
  8
Layer_1
 62
1
100
AcDbLine
 10
-3.288657
 20
-24.950621
 30
0.0
 11
-4.232309
 21
-24.726468
 31
0.0
  0
LINE
  5
131
100
AcDbEntity
  8
Layer_1
 62
1
100
AcDbLine
 10
-4.232309
 20
-24.726468
 30
0.0
 11
-4.776389
 21
-24.427376
 31
0.0
  0
LINE
  5
132
100
AcDbEntity
  8
Layer_1
 62
1
100
AcDbLine
 10
-4.776389
 20
-24.427376
 30
0.0
 11
-5.052592
 21
-24.071633
 31
0.0
  0
LINE
  5
133
100
AcDbEntity
  8
Layer_1
 62
1
100
AcDbLine
 10
-5.052592
 20
-24.071633
 30
0.0
 11
-5.192618
 21
-23.677523
 31
0.0
  0
LINE
  5
134
100
AcDbEntity
  8
Layer_1
 62
1
100
AcDbLine
 10
-5.192618
 20
-23.677523
 30
0.0
 11
-5.328163
 21
-23.263331
 31
0.0
  0
LINE
  5
135
100
AcDbEntity
  8
Layer_1
 62
1
100
AcDbLine
 10
-5.328163
 20
-23.263331
 30
0.0
 11
-5.590925
 21
-22.847345
 31
0.0
  0
LINE
  5
136
100
AcDbEntity
  8
Layer_1
 62
1
100
AcDbLine
 10
-5.590925
 20
-22.847345
 30
0.0
 11
-6.112601
 21
-22.447845
 31
0.0
  0
LINE
  5
137
100
AcDbEntity
  8
Layer_1
 62
1
100
AcDbLine
 10
-6.112601
 20
-22.447845
 30
0.0
 11
-7.024889
 21
-22.083121
 31
0.0
  0
LINE
  5
138
100
AcDbEntity
  8
Layer_1
 62
1
100
AcDbLine
 10
-7.024889
 20
-22.083121
 30
0.0
 11
-7.815810
 21
-21.944155
 31
0.0
  0
LINE
  5
139
100
AcDbEntity
  8
Layer_1
 62
1
100
AcDbLine
 10
-7.815810
 20
-21.944155
 30
0.0
 11
-8.353347
 21
-22.032309
 31
0.0
  0
LINE
  5
13a
100
AcDbEntity
  8
Layer_1
 62
1
100
AcDbLine
 10
-8.353347
 20
-22.032309
 30
0.0
 11
-8.719294
 21
-22.265128
 31
0.0
  0
LINE
  5
13b
100
AcDbEntity
  8
Layer_1
 62
1
100
AcDbLine
 10
-8.719294
 20
-22.265128
 30
0.0
 11
-8.995441
 21
-22.560154
 31
0.0
  0
LINE
  5
13c
100
AcDbEntity
  8
Layer_1
 62
1
100
AcDbLine
 10
-8.995441
 20
-22.560154
 30
0.0
 11
-9.263579
 21
-22.834930
 31
0.0
  0
LINE
  5
13d
100
AcDbEntity
  8
Layer_1
 62
1
100
AcDbLine
 10
-9.263579
 20
-22.834930
 30
0.0
 11
-9.605501
 21
-23.007001
 31
0.0
  0
LINE
  5
13e
100
AcDbEntity
  8
Layer_1
 62
1
100
AcDbLine
 10
-9.605501
 20
-23.007001
 30
0.0
 11
-10.102999
 21
-22.993908
 31
0.0
  0
LINE
  5
13f
100
AcDbEntity
  8
Layer_1
 62
1
100
AcDbLine
 10
-10.102999
 20
-22.993908
 30
0.0
 11
-10.837864
 21
-22.713198
 31
0.0
  0
LINE
  5
140
100
AcDbEntity
  8
Layer_1
 62
1
100
AcDbLine
 10
-10.837864
 20
-22.713198
 30
0.0
 11
-11.666064
 21
-22.208410
 31
0.0
  0
LINE
  5
141
100
AcDbEntity
  8
Layer_1
 62
1
100
AcDbLine
 10
-11.666064
 20
-22.208410
 30
0.0
 11
-12.091089
 21
-21.755828
 31
0.0
  0
LINE
  5
142
100
AcDbEntity
  8
Layer_1
 62
1
100
AcDbLine
 10
-12.091089
 20
-21.755828
 30
0.0
 11
-12.243844
 21
-21.332145
 31
0.0
  0
LINE
  5
143
100
AcDbEntity
  8
Layer_1
 62
1
100
AcDbLine
 10
-12.243844
 20
-21.332145
 30
0.0
 11
-12.255229
 21
-20.914055
 31
0.0
  0
LINE
  5
144
100
AcDbEntity
  8
Layer_1
 62
1
100
AcDbLine
 10
-12.255229
 20
-20.914055
 30
0.0
 11
-12.256214
 21
-20.478249
 31
0.0
  0
LINE
  5
145
100
AcDbEntity
  8
Layer_1
 62
1
100
AcDbLine
 10
-12.256214
 20
-20.478249
 30
0.0
 11
-12.377567
 21
-20.001423
 31
0.0
  0
LINE
  5
146
100
AcDbEntity
  8
Layer_1
 62
1
100
AcDbLine
 10
-12.377567
 20
-20.001423
 30
0.0
 11
-12.750259
 21
-19.460271
 31
0.0
  0
LINE
  5
147
100
AcDbEntity
  8
Layer_1
 62
1
100
AcDbLine
 10
-12.750259
 20
-19.460271
 30
0.0
 11
-13.505191
 21
-18.831484
 31
0.0
  0
LINE
  5
148
100
AcDbEntity
  8
Layer_1
 62
1
100
AcDbLine
 10
-13.505191
 20
-18.831484
 30
0.0
 11
-14.214458
 21
-18.454912
 31
0.0
  0
LINE
  5
149
100
AcDbEntity
  8
Layer_1
 62
1
100
AcDbLine
 10
-14.214458
 20
-18.454912
 30
0.0
 11
-14.752929
 21
-18.372643
 31
0.0
  0
LINE
  5
14a
100
AcDbEntity
  8
Layer_1
 62
1
100
AcDbLine
 10
-14.752929
 20
-18.372643
 30
0.0
 11
-15.172909
 21
-18.480982
 31
0.0
  0
LINE
  5
14b
100
AcDbEntity
  8
Layer_1
 62
1
100
AcDbLine
 10
-15.172909
 20
-18.480982
 30
0.0
 11
-15.526708
 21
-18.676236
 31
0.0
  0
LINE
  5
14c
100
AcDbEntity
  8
Layer_1
 62
1
100
AcDbLine
 10
-15.526708
 20
-18.676236
 30
0.0
 11
-15.866635
 21
-18.854704
 31
0.0
  0
LINE
  5
14d
100
AcDbEntity
  8
Layer_1
 62
1
100
AcDbLine
 10
-15.866635
 20
-18.854704
 30
0.0
 11
-16.244995
 21
-18.912694
 31
0.0
  0
LINE
  5
14e
100
AcDbEntity
  8
Layer_1
 62
1
100
AcDbLine
 10
-16.244995
 20
-18.912694
 30
0.0
 11
-16.714098
 21
-18.746507
 31
0.0
  0
LINE
  5
14f
100
AcDbEntity
  8
Layer_1
 62
1
100
AcDbLine
 10
-16.714098
 20
-18.746507
 30
0.0
 11
-17.326251
 21
-18.252451
 31
0.0
  0
LINE
  5
150
100
AcDbEntity
  8
Layer_1
 62
1
100
AcDbLine
 10
-17.326251
 20
-18.252451
 30
0.0
 11
-17.957927
 21
-17.516442
 31
0.0
  0
LINE
  5
151
100
AcDbEntity
  8
Layer_1
 62
1
100
AcDbLine
 10
-17.957927
 20
-17.516442
 30
0.0
 11
-18.222296
 21
-16.954672
 31
0.0
  0
LINE
  5
152
100
AcDbEntity
  8
Layer_1
 62
1
100
AcDbLine
 10
-18.222296
 20
-16.954672
 30
0.0
 11
-18.236654
 21
-16.504521
 31
0.0
  0
LINE
  5
153
100
AcDbEntity
  8
Layer_1
 62
1
100
AcDbLine
 10
-18.236654
 20
-16.504521
 30
0.0
 11
-18.118286
 21
-16.103375
 31
0.0
  0
LINE
  5
154
100
AcDbEntity
  8
Layer_1
 62
1
100
AcDbLine
 10
-18.118286
 20
-16.103375
 30
0.0
 11
-17.984489
 21
-15.688616
 31
0.0
  0
LINE
  5
155
100
AcDbEntity
  8
Layer_1
 62
1
100
AcDbLine
 10
-17.984489
 20
-15.688616
 30
0.0
 11
-17.952555
 21
-15.197627
 31
0.0
  0
LINE
  5
156
100
AcDbEntity
  8
Layer_1
 62
1
100
AcDbLine
 10
-17.952555
 20
-15.197627
 30
0.0
 11
-18.139782
 21
-14.567792
 31
0.0
  0
LINE
  5
157
100
AcDbEntity
  8
Layer_1
 62
1
100
AcDbLine
 10
-18.139782
 20
-14.567792
 30
0.0
 11
-18.663459
 21
-13.736493
 31
0.0
  0
LINE
  5
158
100
AcDbEntity
  8
Layer_1
 62
1
100
AcDbLine
 10
-18.663459
 20
-13.736493
 30
0.0
 11
-19.221645
 21
-13.159175
 31
0.0
  0
LINE
  5
159
100
AcDbEntity
  8
Layer_1
 62
1
100
AcDbLine
 10
-19.221645
 20
-13.159175
 30
0.0
 11
-19.708338
 21
-12.914536
 31
0.0
  0
LINE
  5
15a
100
AcDbEntity
  8
Layer_1
 62
1
100
AcDbLine
 10
-19.708338
 20
-12.914536
 30
0.0
 11
-20.141243
 21
-12.887792
 31
0.0
  0
LINE
  5
15b
100
AcDbEntity
  8
Layer_1
 62
1
100
AcDbLine
 10
-20.141243
 20
-12.887792
 30
0.0
 11
-20.538061
 21
-12.964158
 31
0.0
  0
LINE
  5
15c
100
AcDbEntity
  8
Layer_1
 62
1
100
AcDbLine
 10
-20.538061
 20
-12.964158
 30
0.0
 11
-20.916500
 21
-13.028849
 31
0.0
  0
LINE
  5
15d
100
AcDbEntity
  8
Layer_1
 62
1
100
AcDbLine
 10
-20.916500
 20
-13.028849
 30
0.0
 11
-21.294262
 21
-12.967081
 31
0.0
  0
LINE
  5
15e
100
AcDbEntity
  8
Layer_1
 62
1
100
AcDbLine
 10
-21.294262
 20
-12.967081
 30
0.0
 11
-21.689050
 21
-12.664069
 31
0.0
  0
LINE
  5
15f
100
AcDbEntity
  8
Layer_1
 62
1
100
AcDbLine
 10
-21.689050
 20
-12.664069
 30
0.0
 11
-22.118572
 21
-12.005027
 31
0.0
  0
LINE
  5
160
100
AcDbEntity
  8
Layer_1
 62
1
100
AcDbLine
 10
-22.118572
 20
-12.005027
 30
0.0
 11
-22.491893
 21
-11.109843
 31
0.0
  0
LINE
  5
161
100
AcDbEntity
  8
Layer_1
 62
1
100
AcDbLine
 10
-22.491893
 20
-11.109843
 30
0.0
 11
-22.569725
 21
-10.493872
 31
0.0
  0
LINE
  5
162
100
AcDbEntity
  8
Layer_1
 62
1
100
AcDbLine
 10
-22.569725
 20
-10.493872
 30
0.0
 11
-22.444271
 21
-10.061318
 31
0.0
  0
LINE
  5
163
100
AcDbEntity
  8
Layer_1
 62
1
100
AcDbLine
 10
-22.444271
 20
-10.061318
 30
0.0
 11
-22.207734
 21
-9.716382
 31
0.0
  0
LINE
  5
164
100
AcDbEntity
  8
Layer_1
 62
1
100
AcDbLine
 10
-22.207734
 20
-9.716382
 30
0.0
 11
-21.952318
 21
-9.363268
 31
0.0
  0
LINE
  5
165
100
AcDbEntity
  8
Layer_1
 62
1
100
AcDbLine
 10
-21.952318
 20
-9.363268
 30
0.0
 11
-21.770224
 21
-8.906178
 31
0.0
  0
LINE
  5
166
100
AcDbEntity
  8
Layer_1
 62
1
100
AcDbLine
 10
-21.770224
 20
-8.906178
 30
0.0
 11
-21.753655
 21
-8.249313
 31
0.0
  0
LINE
  5
167
100
AcDbEntity
  8
Layer_1
 62
1
100
AcDbLine
 10
-21.753655
 20
-8.249313
 30
0.0
 11
-21.994817
 21
-7.296876
 31
0.0
  0
LINE
  5
168
100
AcDbEntity
  8
Layer_1
 62
1
100
AcDbLine
 10
-21.994817
 20
-7.296876
 30
0.0
 11
-22.347282
 21
-6.575326
 31
0.0
  0
LINE
  5
169
100
AcDbEntity
  8
Layer_1
 62
1
100
AcDbLine
 10
-22.347282
 20
-6.575326
 30
0.0
 11
-22.734557
 21
-6.192264
 31
0.0
  0
LINE
  5
16a
100
AcDbEntity
  8
Layer_1
 62
1
100
AcDbLine
 10
-22.734557
 20
-6.192264
 30
0.0
 11
-23.138010
 21
-6.033055
 31
0.0
  0
LINE
  5
16b
100
AcDbEntity
  8
Layer_1
 62
1
100
AcDbLine
 10
-23.138010
 20
-6.033055
 30
0.0
 11
-23.539005
 21
-5.983059
 31
0.0
  0
LINE
  5
16c
100
AcDbEntity
  8
Layer_1
 62
1
100
AcDbLine
 10
-23.539005
 20
-5.983059
 30
0.0
 11
-23.918912
 21
-5.927641
 31
0.0
  0
LINE
  5
16d
100
AcDbEntity
  8
Layer_1
 62
1
100
AcDbLine
 10
-23.918912
 20
-5.927641
 30
0.0
 11
-24.259097
 21
-5.752161
 31
0.0
  0
LINE
  5
16e
100
AcDbEntity
  8
Layer_1
 62
1
100
AcDbLine
 10
-24.259097
 20
-5.752161
 30
0.0
 11
-24.540929
 21
-5.341982
 31
0.0
  0
LINE
  5
16f
100
AcDbEntity
  8
Layer_1
 62
1
100
AcDbLine
 10
-24.540929
 20
-5.341982
 30
0.0
 11
-24.745772
 21
-4.582467
 31
0.0
  0
LINE
  5
170
100
AcDbEntity
  8
Layer_1
 62
1
100
AcDbLine
 10
-24.745772
 20
-4.582467
 30
0.0
 11
-24.824194
 21
-3.615733
 31
0.0
  0
LINE
  5
171
100
AcDbEntity
  8
Layer_1
 62
1
100
AcDbLine
 10
-24.824194
 20
-3.615733
 30
0.0
 11
-24.707871
 21
-3.005860
 31
0.0
  0
LINE
  5
172
100
AcDbEntity
  8
Layer_1
 62
1
100
AcDbLine
 10
-24.707871
 20
-3.005860
 30
0.0
 11
-24.454891
 21
-2.633244
 31
0.0
  0
LINE
  5
173
100
AcDbEntity
  8
Layer_1
 62
1
100
AcDbLine
 10
-24.454891
 20
-2.633244
 30
0.0
 11
-24.123341
 21
-2.378284
 31
0.0
  0
LINE
  5
174
100
AcDbEntity
  8
Layer_1
 62
1
100
AcDbLine
 10
-24.123341
 20
-2.378284
 30
0.0
 11
-23.771307
 21
-2.121380
 31
0.0
  0
LINE
  5
175
100
AcDbEntity
  8
Layer_1
 62
1
100
AcDbLine
 10
-23.771307
 20
-2.121380
 30
0.0
 11
-23.456877
 21
-1.742932
 31
0.0
  0
LINE
  5
176
100
AcDbEntity
  8
Layer_1
 62
1
100
AcDbLine
 10
-23.456877
 20
-1.742932
 30
0.0
 11
-23.238139
 21
-1.123335
 31
0.0
  0
LINE
  5
177
100
AcDbEntity
  8
Layer_1
 62
1
100
AcDbLine
 10
-23.238139
 20
-1.123335
 30
0.0
 11
-23.173177
 21
-0.142992
 31
0.0
  0
LINE
  5
178
100
AcDbEntity
  8
Layer_1
 62
1
100
AcDbLine
 10
-23.173177
 20
-0.142992
 30
0.0
 11
-23.285420
 21
0.652162
 31
0.0
  0
LINE
  5
179
100
AcDbEntity
  8
Layer_1
 62
1
100
AcDbLine
 10
-23.285420
 20
0.652162
 30
0.0
 11
-23.535368
 21
1.136150
 31
0.0
  0
LINE
  5
17a
100
AcDbEntity
  8
Layer_1
 62
1
100
AcDbLine
 10
-23.535368
 20
1.136150
 30
0.0
 11
-23.869875
 21
1.412240
 31
0.0
  0
LINE
  5
17b
100
AcDbEntity
  8
Layer_1
 62
1
100
AcDbLine
 10
-23.869875
 20
1.412240
 30
0.0
 11
-24.235796
 21
1.583702
 31
0.0
  0
LINE
  5
17c
100
AcDbEntity
  8
Layer_1
 62
1
100
AcDbLine
 10
-24.235796
 20
1.583702
 30
0.0
 11
-24.579983
 21
1.753806
 31
0.0
  0
LINE
  5
17d
100
AcDbEntity
  8
Layer_1
 62
1
100
AcDbLine
 10
-24.579983
 20
1.753806
 30
0.0
 11
-24.849292
 21
2.025821
 31
0.0
  0
LINE
  5
17e
100
AcDbEntity
  8
Layer_1
 62
1
100
AcDbLine
 10
-24.849292
 20
2.025821
 30
0.0
 11
-24.990577
 21
2.503015
 31
0.0
  0
LINE
  5
17f
100
AcDbEntity
  8
Layer_1
 62
1
100
AcDbLine
 10
-24.990577
 20
2.503015
 30
0.0
 11
-24.950692
 21
3.288656
 31
0.0
  0
LINE
  5
180
100
AcDbEntity
  8
Layer_1
 62
1
100
AcDbLine
 10
-24.950692
 20
3.288656
 30
0.0
 11
-24.726539
 21
4.232308
 31
0.0
  0
LINE
  5
181
100
AcDbEntity
  8
Layer_1
 62
1
100
AcDbLine
 10
-24.726539
 20
4.232308
 30
0.0
 11
-24.427449
 21
4.776388
 31
0.0
  0
LINE
  5
182
100
AcDbEntity
  8
Layer_1
 62
1
100
AcDbLine
 10
-24.427449
 20
4.776388
 30
0.0
 11
-24.071705
 21
5.052592
 31
0.0
  0
LINE
  5
183
100
AcDbEntity
  8
Layer_1
 62
1
100
AcDbLine
 10
-24.071705
 20
5.052592
 30
0.0
 11
-23.677595
 21
5.192617
 31
0.0
  0
LINE
  5
184
100
AcDbEntity
  8
Layer_1
 62
1
100
AcDbLine
 10
-23.677595
 20
5.192617
 30
0.0
 11
-23.263403
 21
5.328163
 31
0.0
  0
LINE
  5
185
100
AcDbEntity
  8
Layer_1
 62
1
100
AcDbLine
 10
-23.263403
 20
5.328163
 30
0.0
 11
-22.847415
 21
5.590924
 31
0.0
  0
LINE
  5
186
100
AcDbEntity
  8
Layer_1
 62
1
100
AcDbLine
 10
-22.847415
 20
5.590924
 30
0.0
 11
-22.447915
 21
6.112600
 31
0.0
  0
LINE
  5
187
100
AcDbEntity
  8
Layer_1
 62
1
100
AcDbLine
 10
-22.447915
 20
6.112600
 30
0.0
 11
-22.083191
 21
7.024889
 31
0.0
  0
LINE
  5
188
100
AcDbEntity
  8
Layer_1
 62
1
100
AcDbLine
 10
-22.083191
 20
7.024889
 30
0.0
 11
-21.944225
 21
7.815811
 31
0.0
  0
LINE
  5
189
100
AcDbEntity
  8
Layer_1
 62
1
100
AcDbLine
 10
-21.944225
 20
7.815811
 30
0.0
 11
-22.032379
 21
8.353348
 31
0.0
  0
LINE
  5
18a
100
AcDbEntity
  8
Layer_1
 62
1
100
AcDbLine
 10
-22.032379
 20
8.353348
 30
0.0
 11
-22.265198
 21
8.719295
 31
0.0
  0
LINE
  5
18b
100
AcDbEntity
  8
Layer_1
 62
1
100
AcDbLine
 10
-22.265198
 20
8.719295
 30
0.0
 11
-22.560224
 21
8.995441
 31
0.0
  0
LINE
  5
18c
100
AcDbEntity
  8
Layer_1
 62
1
100
AcDbLine
 10
-22.560224
 20
8.995441
 30
0.0
 11
-22.835000
 21
9.263580
 31
0.0
  0
LINE
  5
18d
100
AcDbEntity
  8
Layer_1
 62
1
100
AcDbLine
 10
-22.835000
 20
9.263580
 30
0.0
 11
-23.007071
 21
9.605501
 31
0.0
  0
LINE
  5
18e
100
AcDbEntity
  8
Layer_1
 62
1
100
AcDbLine
 10
-23.007071
 20
9.605501
 30
0.0
 11
-22.993978
 21
10.102999
 31
0.0
  0
LINE
  5
18f
100
AcDbEntity
  8
Layer_1
 62
1
100
AcDbLine
 10
-22.993978
 20
10.102999
 30
0.0
 11
-22.713268
 21
10.837863
 31
0.0
  0
LINE
  5
190
100
AcDbEntity
  8
Layer_1
 62
1
100
AcDbLine
 10
-22.713268
 20
10.837863
 30
0.0
 11
-22.208480
 21
11.666064
 31
0.0
  0
LINE
  5
191
100
AcDbEntity
  8
Layer_1
 62
1
100
AcDbLine
 10
-22.208480
 20
11.666064
 30
0.0
 11
-21.755900
 21
12.091089
 31
0.0
  0
LINE
  5
192
100
AcDbEntity
  8
Layer_1
 62
1
100
AcDbLine
 10
-21.755900
 20
12.091089
 30
0.0
 11
-21.332215
 21
12.243845
 31
0.0
  0
LINE
  5
193
100
AcDbEntity
  8
Layer_1
 62
1
100
AcDbLine
 10
-21.332215
 20
12.243845
 30
0.0
 11
-20.914124
 21
12.255230
 31
0.0
  0
LINE
  5
194
100
AcDbEntity
  8
Layer_1
 62
1
100
AcDbLine
 10
-20.914124
 20
12.255230
 30
0.0
 11
-20.478319
 21
12.256215
 31
0.0
  0
LINE
  5
195
100
AcDbEntity
  8
Layer_1
 62
1
100
AcDbLine
 10
-20.478319
 20
12.256215
 30
0.0
 11
-20.001493
 21
12.377570
 31
0.0
  0
LINE
  5
196
100
AcDbEntity
  8
Layer_1
 62
1
100
AcDbLine
 10
-20.001493
 20
12.377570
 30
0.0
 11
-19.460341
 21
12.750262
 31
0.0
  0
LINE
  5
197
100
AcDbEntity
  8
Layer_1
 62
1
100
AcDbLine
 10
-19.460341
 20
12.750262
 30
0.0
 11
-18.831554
 21
13.505192
 31
0.0
  0
LINE
  5
198
100
AcDbEntity
  8
Layer_1
 62
1
100
AcDbLine
 10
-18.831554
 20
13.505192
 30
0.0
 11
-18.454982
 21
14.214459
 31
0.0
  0
LINE
  5
199
100
AcDbEntity
  8
Layer_1
 62
1
100
AcDbLine
 10
-18.454982
 20
14.214459
 30
0.0
 11
-18.372712
 21
14.752930
 31
0.0
  0
LINE
  5
19a
100
AcDbEntity
  8
Layer_1
 62
1
100
AcDbLine
 10
-18.372712
 20
14.752930
 30
0.0
 11
-18.481052
 21
15.172910
 31
0.0
  0
LINE
  5
19b
100
AcDbEntity
  8
Layer_1
 62
1
100
AcDbLine
 10
-18.481052
 20
15.172910
 30
0.0
 11
-18.676304
 21
15.526709
 31
0.0
  0
LINE
  5
19c
100
AcDbEntity
  8
Layer_1
 62
1
100
AcDbLine
 10
-18.676304
 20
15.526709
 30
0.0
 11
-18.854774
 21
15.866636
 31
0.0
  0
LINE
  5
19d
100
AcDbEntity
  8
Layer_1
 62
1
100
AcDbLine
 10
-18.854774
 20
15.866636
 30
0.0
 11
-18.912764
 21
16.244996
 31
0.0
  0
LINE
  5
19e
100
AcDbEntity
  8
Layer_1
 62
1
100
AcDbLine
 10
-18.912764
 20
16.244996
 30
0.0
 11
-18.746577
 21
16.714099
 31
0.0
  0
LINE
  5
19f
100
AcDbEntity
  8
Layer_1
 62
1
100
AcDbLine
 10
-18.746577
 20
16.714099
 30
0.0
 11
-18.252521
 21
17.326252
 31
0.0
  0
LINE
  5
1a0
100
AcDbEntity
  8
Layer_1
 62
1
100
AcDbLine
 10
-18.252521
 20
17.326252
 30
0.0
 11
-17.516511
 21
17.957928
 31
0.0
  0
LINE
  5
1a1
100
AcDbEntity
  8
Layer_1
 62
1
100
AcDbLine
 10
-17.516511
 20
17.957928
 30
0.0
 11
-16.954740
 21
18.222297
 31
0.0
  0
LINE
  5
1a2
100
AcDbEntity
  8
Layer_1
 62
1
100
AcDbLine
 10
-16.954740
 20
18.222297
 30
0.0
 11
-16.504589
 21
18.236655
 31
0.0
  0
LINE
  5
1a3
100
AcDbEntity
  8
Layer_1
 62
1
100
AcDbLine
 10
-16.504589
 20
18.236655
 30
0.0
 11
-16.103443
 21
18.118288
 31
0.0
  0
LINE
  5
1a4
100
AcDbEntity
  8
Layer_1
 62
1
100
AcDbLine
 10
-16.103443
 20
18.118288
 30
0.0
 11
-15.688684
 21
17.984490
 31
0.0
  0
LINE
  5
1a5
100
AcDbEntity
  8
Layer_1
 62
1
100
AcDbLine
 10
-15.688684
 20
17.984490
 30
0.0
 11
-15.197695
 21
17.952558
 31
0.0
  0
LINE
  5
1a6
100
AcDbEntity
  8
Layer_1
 62
1
100
AcDbLine
 10
-15.197695
 20
17.952558
 30
0.0
 11
-14.567860
 21
18.139783
 31
0.0
  0
LINE
  5
1a7
100
AcDbEntity
  8
Layer_1
 62
1
100
AcDbLine
 10
-14.567860
 20
18.139783
 30
0.0
 11
-13.736561
 21
18.663460
 31
0.0
  0
LINE
  5
1a8
100
AcDbEntity
  8
Layer_1
 62
1
100
AcDbLine
 10
-13.736561
 20
18.663460
 30
0.0
 11
-13.159243
 21
19.221646
 31
0.0
  0
LINE
  5
1a9
100
AcDbEntity
  8
Layer_1
 62
1
100
AcDbLine
 10
-13.159243
 20
19.221646
 30
0.0
 11
-12.914606
 21
19.708339
 31
0.0
  0
LINE
  5
1aa
100
AcDbEntity
  8
Layer_1
 62
1
100
AcDbLine
 10
-12.914606
 20
19.708339
 30
0.0
 11
-12.887862
 21
20.141244
 31
0.0
  0
LINE
  5
1ab
100
AcDbEntity
  8
Layer_1
 62
1
100
AcDbLine
 10
-12.887862
 20
20.141244
 30
0.0
 11
-12.964228
 21
20.538063
 31
0.0
  0
LINE
  5
1ac
100
AcDbEntity
  8
Layer_1
 62
1
100
AcDbLine
 10
-12.964228
 20
20.538063
 30
0.0
 11
-13.028919
 21
20.916501
 31
0.0
  0
LINE
  5
1ad
100
AcDbEntity
  8
Layer_1
 62
1
100
AcDbLine
 10
-13.028919
 20
20.916501
 30
0.0
 11
-12.967151
 21
21.294263
 31
0.0
  0
LINE
  5
1ae
100
AcDbEntity
  8
Layer_1
 62
1
100
AcDbLine
 10
-12.967151
 20
21.294263
 30
0.0
 11
-12.664137
 21
21.689051
 31
0.0
  0
LINE
  5
1af
100
AcDbEntity
  8
Layer_1
 62
1
100
AcDbLine
 10
-12.664137
 20
21.689051
 30
0.0
 11
-12.005096
 21
22.118573
 31
0.0
  0
LINE
  5
1b0
100
AcDbEntity
  8
Layer_1
 62
1
100
AcDbLine
 10
-12.005096
 20
22.118573
 30
0.0
 11
-11.109911
 21
22.491894
 31
0.0
  0
LINE
  5
1b1
100
AcDbEntity
  8
Layer_1
 62
1
100
AcDbLine
 10
-11.109911
 20
22.491894
 30
0.0
 11
-10.493940
 21
22.569726
 31
0.0
  0
LINE
  5
1b2
100
AcDbEntity
  8
Layer_1
 62
1
100
AcDbLine
 10
-10.493940
 20
22.569726
 30
0.0
 11
-10.061388
 21
22.444272
 31
0.0
  0
LINE
  5
1b3
100
AcDbEntity
  8
Layer_1
 62
1
100
AcDbLine
 10
-10.061388
 20
22.444272
 30
0.0
 11
-9.716452
 21
22.207735
 31
0.0
  0
LINE
  5
1b4
100
AcDbEntity
  8
Layer_1
 62
1
100
AcDbLine
 10
-9.716452
 20
22.207735
 30
0.0
 11
-9.363338
 21
21.952319
 31
0.0
  0
LINE
  5
1b5
100
AcDbEntity
  8
Layer_1
 62
1
100
AcDbLine
 10
-9.363338
 20
21.952319
 30
0.0
 11
-8.906247
 21
21.770225
 31
0.0
  0
LINE
  5
1b6
100
AcDbEntity
  8
Layer_1
 62
1
100
AcDbLine
 10
-8.906247
 20
21.770225
 30
0.0
 11
-8.249382
 21
21.753656
 31
0.0
  0
LINE
  5
1b7
100
AcDbEntity
  8
Layer_1
 62
1
100
AcDbLine
 10
-8.249382
 20
21.753656
 30
0.0
 11
-7.296946
 21
21.994818
 31
0.0
  0
LINE
  5
1b8
100
AcDbEntity
  8
Layer_1
 62
1
100
AcDbLine
 10
-7.296946
 20
21.994818
 30
0.0
 11
-6.575395
 21
22.347283
 31
0.0
  0
LINE
  5
1b9
100
AcDbEntity
  8
Layer_1
 62
1
100
AcDbLine
 10
-6.575395
 20
22.347283
 30
0.0
 11
-6.192334
 21
22.734559
 31
0.0
  0
LINE
  5
1ba
100
AcDbEntity
  8
Layer_1
 62
1
100
AcDbLine
 10
-6.192334
 20
22.734559
 30
0.0
 11
-6.033125
 21
23.138011
 31
0.0
  0
LINE
  5
1bb
100
AcDbEntity
  8
Layer_1
 62
1
100
AcDbLine
 10
-6.033125
 20
23.138011
 30
0.0
 11
-5.983129
 21
23.539008
 31
0.0
  0
LINE
  5
1bc
100
AcDbEntity
  8
Layer_1
 62
1
100
AcDbLine
 10
-5.983129
 20
23.539008
 30
0.0
 11
-5.927711
 21
23.918914
 31
0.0
  0
LINE
  5
1bd
100
AcDbEntity
  8
Layer_1
 62
1
100
AcDbLine
 10
-5.927711
 20
23.918914
 30
0.0
 11
-5.752231
 21
24.259100
 31
0.0
  0
LINE
  5
1be
100
AcDbEntity
  8
Layer_1
 62
1
100
AcDbLine
 10
-5.752231
 20
24.259100
 30
0.0
 11
-5.342052
 21
24.540930
 31
0.0
  0
LINE
  5
1bf
100
AcDbEntity
  8
Layer_1
 62
1
100
AcDbLine
 10
-5.342052
 20
24.540930
 30
0.0
 11
-4.582536
 21
24.745773
 31
0.0
  0
LINE
  5
1c0
100
AcDbEntity
  8
Layer_1
 62
1
100
AcDbLine
 10
-4.582536
 20
24.745773
 30
0.0
 11
-3.615802
 21
24.824195
 31
0.0
  0
LINE
  5
1c1
100
AcDbEntity
  8
Layer_1
 62
1
100
AcDbLine
 10
-3.615802
 20
24.824195
 30
0.0
 11
-3.005928
 21
24.707872
 31
0.0
  0
LINE
  5
1c2
100
AcDbEntity
  8
Layer_1
 62
1
100
AcDbLine
 10
-3.005928
 20
24.707872
 30
0.0
 11
-2.633312
 21
24.454892
 31
0.0
  0
LINE
  5
1c3
100
AcDbEntity
  8
Layer_1
 62
1
100
AcDbLine
 10
-2.633312
 20
24.454892
 30
0.0
 11
-2.378353
 21
24.123342
 31
0.0
  0
LINE
  5
1c4
100
AcDbEntity
  8
Layer_1
 62
1
100
AcDbLine
 10
-2.378353
 20
24.123342
 30
0.0
 11
-2.121450
 21
23.771308
 31
0.0
  0
LINE
  5
1c5
100
AcDbEntity
  8
Layer_1
 62
1
100
AcDbLine
 10
-2.121450
 20
23.771308
 30
0.0
 11
-1.743002
 21
23.456878
 31
0.0
  0
LINE
  5
1c6
100
AcDbEntity
  8
Layer_1
 62
1
100
AcDbLine
 10
-1.743002
 20
23.456878
 30
0.0
 11
-1.123405
 21
23.238140
 31
0.0
  0
LINE
  5
1c7
100
AcDbEntity
  8
Layer_1
 62
1
100
AcDbLine
 10
-1.123405
 20
23.238140
 30
0.0
 11
-0.143061
 21
23.173178
 31
0.0
  0
LINE
  5
1c8
100
AcDbEntity
  8
Layer_1
 62
1
100
AcDbLine
 10
-0.143061
 20
23.173178
 30
0.0
 11
0.652093
 21
23.285421
 31
0.0
  0
LINE
  5
1c9
100
AcDbEntity
  8
Layer_1
 62
1
100
AcDbLine
 10
0.652093
 20
23.285421
 30
0.0
 11
1.136080
 21
23.535369
 31
0.0
  0
LINE
  5
1ca
100
AcDbEntity
  8
Layer_1
 62
1
100
AcDbLine
 10
1.136080
 20
23.535369
 30
0.0
 11
1.412170
 21
23.869876
 31
0.0
  0
LINE
  5
1cb
100
AcDbEntity
  8
Layer_1
 62
1
100
AcDbLine
 10
1.412170
 20
23.869876
 30
0.0
 11
1.583633
 21
24.235798
 31
0.0
  0
LINE
  5
1cc
100
AcDbEntity
  8
Layer_1
 62
1
100
AcDbLine
 10
1.583633
 20
24.235798
 30
0.0
 11
1.753736
 21
24.579984
 31
0.0
  0
LINE
  5
1cd
100
AcDbEntity
  8
Layer_1
 62
1
100
AcDbLine
 10
1.753736
 20
24.579984
 30
0.0
 11
2.025751
 21
24.849293
 31
0.0
  0
LINE
  5
1ce
100
AcDbEntity
  8
Layer_1
 62
1
100
AcDbLine
 10
2.025751
 20
24.849293
 30
0.0
 11
2.502945
 21
24.990578
 31
0.0
  0
LINE
  5
1cf
100
AcDbEntity
  8
Layer_1
 62
1
100
AcDbLine
 10
2.502945
 20
24.990578
 30
0.0
 11
3.288587
 21
24.950693
 31
0.0
  0
LINE
  5
1d0
100
AcDbEntity
  8
Layer_1
 62
1
100
AcDbLine
 10
3.288587
 20
24.950693
 30
0.0
 11
4.232239
 21
24.726540
 31
0.0
  0
LINE
  5
1d1
100
AcDbEntity
  8
Layer_1
 62
1
100
AcDbLine
 10
4.232239
 20
24.726540
 30
0.0
 11
4.776318
 21
24.427450
 31
0.0
  0
LINE
  5
1d2
100
AcDbEntity
  8
Layer_1
 62
1
100
AcDbLine
 10
4.776318
 20
24.427450
 30
0.0
 11
5.052522
 21
24.071706
 31
0.0
  0
LINE
  5
1d3
100
AcDbEntity
  8
Layer_1
 62
1
100
AcDbLine
 10
5.052522
 20
24.071706
 30
0.0
 11
5.192547
 21
23.677596
 31
0.0
  0
LINE
  5
1d4
100
AcDbEntity
  8
Layer_1
 62
1
100
AcDbLine
 10
5.192547
 20
23.677596
 30
0.0
 11
5.328093
 21
23.263404
 31
0.0
  0
LINE
  5
1d5
100
AcDbEntity
  8
Layer_1
 62
1
100
AcDbLine
 10
5.328093
 20
23.263404
 30
0.0
 11
5.590855
 21
22.847416
 31
0.0
  0
LINE
  5
1d6
100
AcDbEntity
  8
Layer_1
 62
1
100
AcDbLine
 10
5.590855
 20
22.847416
 30
0.0
 11
6.112532
 21
22.447918
 31
0.0
  0
LINE
  5
1d7
100
AcDbEntity
  8
Layer_1
 62
1
100
AcDbLine
 10
6.112532
 20
22.447918
 30
0.0
 11
7.024820
 21
22.083192
 31
0.0
  0
LINE
  5
1d8
100
AcDbEntity
  8
Layer_1
 62
1
100
AcDbLine
 10
7.024820
 20
22.083192
 30
0.0
 11
7.815741
 21
21.944226
 31
0.0
  0
LINE
  5
1d9
100
AcDbEntity
  8
Layer_1
 62
1
100
AcDbLine
 10
7.815741
 20
21.944226
 30
0.0
 11
8.353279
 21
22.032380
 31
0.0
  0
LINE
  5
1da
100
AcDbEntity
  8
Layer_1
 62
1
100
AcDbLine
 10
8.353279
 20
22.032380
 30
0.0
 11
8.719225
 21
22.265199
 31
0.0
  0
LINE
  5
1db
100
AcDbEntity
  8
Layer_1
 62
1
100
AcDbLine
 10
8.719225
 20
22.265199
 30
0.0
 11
8.995371
 21
22.560225
 31
0.0
  0
LINE
  5
1dc
100
AcDbEntity
  8
Layer_1
 62
1
100
AcDbLine
 10
8.995371
 20
22.560225
 30
0.0
 11
9.263510
 21
22.835003
 31
0.0
  0
LINE
  5
1dd
100
AcDbEntity
  8
Layer_1
 62
1
100
AcDbLine
 10
9.263510
 20
22.835003
 30
0.0
 11
9.605433
 21
23.007074
 31
0.0
  0
LINE
  5
1de
100
AcDbEntity
  8
Layer_1
 62
1
100
AcDbLine
 10
9.605433
 20
23.007074
 30
0.0
 11
10.102929
 21
22.993980
 31
0.0
  0
LINE
  5
1df
100
AcDbEntity
  8
Layer_1
 62
1
100
AcDbLine
 10
10.102929
 20
22.993980
 30
0.0
 11
10.837794
 21
22.713270
 31
0.0
  0
LINE
  5
1e0
100
AcDbEntity
  8
Layer_1
 62
1
100
AcDbLine
 10
10.837794
 20
22.713270
 30
0.0
 11
11.665994
 21
22.208483
 31
0.0
  0
LINE
  5
1e1
100
AcDbEntity
  8
Layer_1
 62
1
100
AcDbLine
 10
11.665994
 20
22.208483
 30
0.0
 11
12.091019
 21
21.755901
 31
0.0
  0
LINE
  5
1e2
100
AcDbEntity
  8
Layer_1
 62
1
100
AcDbLine
 10
12.091019
 20
21.755901
 30
0.0
 11
12.243773
 21
21.332218
 31
0.0
  0
LINE
  5
1e3
100
AcDbEntity
  8
Layer_1
 62
1
100
AcDbLine
 10
12.243773
 20
21.332218
 30
0.0
 11
12.255158
 21
20.914126
 31
0.0
  0
LINE
  5
1e4
100
AcDbEntity
  8
Layer_1
 62
1
100
AcDbLine
 10
12.255158
 20
20.914126
 30
0.0
 11
12.256144
 21
20.478322
 31
0.0
  0
LINE
  5
1e5
100
AcDbEntity
  8
Layer_1
 62
1
100
AcDbLine
 10
12.256144
 20
20.478322
 30
0.0
 11
12.377499
 21
20.001496
 31
0.0
  0
LINE
  5
1e6
100
AcDbEntity
  8
Layer_1
 62
1
100
AcDbLine
 10
12.377499
 20
20.001496
 30
0.0
 11
12.750190
 21
19.460344
 31
0.0
  0
LINE
  5
1e7
100
AcDbEntity
  8
Layer_1
 62
1
100
AcDbLine
 10
12.750190
 20
19.460344
 30
0.0
 11
13.505122
 21
18.831557
 31
0.0
  0
LINE
  5
1e8
100
AcDbEntity
  8
Layer_1
 62
1
100
AcDbLine
 10
13.505122
 20
18.831557
 30
0.0
 11
14.214390
 21
18.454984
 31
0.0
  0
LINE
  5
1e9
100
AcDbEntity
  8
Layer_1
 62
1
100
AcDbLine
 10
14.214390
 20
18.454984
 30
0.0
 11
14.752861
 21
18.372715
 31
0.0
  0
LINE
  5
1ea
100
AcDbEntity
  8
Layer_1
 62
1
100
AcDbLine
 10
14.752861
 20
18.372715
 30
0.0
 11
15.172840
 21
18.481055
 31
0.0
  0
LINE
  5
1eb
100
AcDbEntity
  8
Layer_1
 62
1
100
AcDbLine
 10
15.172840
 20
18.481055
 30
0.0
 11
15.526639
 21
18.676308
 31
0.0
  0
LINE
  5
1ec
100
AcDbEntity
  8
Layer_1
 62
1
100
AcDbLine
 10
15.526639
 20
18.676308
 30
0.0
 11
15.866565
 21
18.854777
 31
0.0
  0
LINE
  5
1ed
100
AcDbEntity
  8
Layer_1
 62
1
100
AcDbLine
 10
15.866565
 20
18.854777
 30
0.0
 11
16.244924
 21
18.912766
 31
0.0
  0
LINE
  5
1ee
100
AcDbEntity
  8
Layer_1
 62
1
100
AcDbLine
 10
16.244924
 20
18.912766
 30
0.0
 11
16.714027
 21
18.746580
 31
0.0
  0
LINE
  5
1ef
100
AcDbEntity
  8
Layer_1
 62
1
100
AcDbLine
 10
16.714027
 20
18.746580
 30
0.0
 11
17.326182
 21
18.252524
 31
0.0
  0
LINE
  5
1f0
100
AcDbEntity
  8
Layer_1
 62
1
100
AcDbLine
 10
17.326182
 20
18.252524
 30
0.0
 11
17.957859
 21
17.516514
 31
0.0
  0
LINE
  5
1f1
100
AcDbEntity
  8
Layer_1
 62
1
100
AcDbLine
 10
17.957859
 20
17.516514
 30
0.0
 11
18.222227
 21
16.954744
 31
0.0
  0
LINE
  5
1f2
100
AcDbEntity
  8
Layer_1
 62
1
100
AcDbLine
 10
18.222227
 20
16.954744
 30
0.0
 11
18.236586
 21
16.504593
 31
0.0
  0
LINE
  5
1f3
100
AcDbEntity
  8
Layer_1
 62
1
100
AcDbLine
 10
18.236586
 20
16.504593
 30
0.0
 11
18.118216
 21
16.103446
 31
0.0
  0
LINE
  5
1f4
100
AcDbEntity
  8
Layer_1
 62
1
100
AcDbLine
 10
18.118216
 20
16.103446
 30
0.0
 11
17.984419
 21
15.688687
 31
0.0
  0
LINE
  5
1f5
100
AcDbEntity
  8
Layer_1
 62
1
100
AcDbLine
 10
17.984419
 20
15.688687
 30
0.0
 11
17.952486
 21
15.197698
 31
0.0
  0
LINE
  5
1f6
100
AcDbEntity
  8
Layer_1
 62
1
100
AcDbLine
 10
17.952486
 20
15.197698
 30
0.0
 11
18.139711
 21
14.567863
 31
0.0
  0
LINE
  5
1f7
100
AcDbEntity
  8
Layer_1
 62
1
100
AcDbLine
 10
18.139711
 20
14.567863
 30
0.0
 11
18.663388
 21
13.736564
 31
0.0
  0
LINE
  5
1f8
100
AcDbEntity
  8
Layer_1
 62
1
100
AcDbLine
 10
18.663388
 20
13.736564
 30
0.0
 11
19.221575
 21
13.159246
 31
0.0
  0
LINE
  5
1f9
100
AcDbEntity
  8
Layer_1
 62
1
100
AcDbLine
 10
19.221575
 20
13.159246
 30
0.0
 11
19.708268
 21
12.914608
 31
0.0
  0
LINE
  5
1fa
100
AcDbEntity
  8
Layer_1
 62
1
100
AcDbLine
 10
19.708268
 20
12.914608
 30
0.0
 11
20.141171
 21
12.887864
 31
0.0
  0
LINE
  5
1fb
100
AcDbEntity
  8
Layer_1
 62
1
100
AcDbLine
 10
20.141171
 20
12.887864
 30
0.0
 11
20.537991
 21
12.964231
 31
0.0
  0
LINE
  5
1fc
100
AcDbEntity
  8
Layer_1
 62
1
100
AcDbLine
 10
20.537991
 20
12.964231
 30
0.0
 11
20.916428
 21
13.028922
 31
0.0
  0
LINE
  5
1fd
100
AcDbEntity
  8
Layer_1
 62
1
100
AcDbLine
 10
20.916428
 20
13.028922
 30
0.0
 11
21.294190
 21
12.967153
 31
0.0
  0
LINE
  5
1fe
100
AcDbEntity
  8
Layer_1
 62
1
100
AcDbLine
 10
21.294190
 20
12.967153
 30
0.0
 11
21.688980
 21
12.664140
 31
0.0
  0
LINE
  5
1ff
100
AcDbEntity
  8
Layer_1
 62
1
100
AcDbLine
 10
21.688980
 20
12.664140
 30
0.0
 11
22.118500
 21
12.005098
 31
0.0
  0
LINE
  5
200
100
AcDbEntity
  8
Layer_1
 62
1
100
AcDbLine
 10
22.118500
 20
12.005098
 30
0.0
 11
22.491821
 21
11.109914
 31
0.0
  0
LINE
  5
201
100
AcDbEntity
  8
Layer_1
 62
1
100
AcDbLine
 10
22.491821
 20
11.109914
 30
0.0
 11
22.569653
 21
10.493943
 31
0.0
  0
LINE
  5
202
100
AcDbEntity
  8
Layer_1
 62
1
100
AcDbLine
 10
22.569653
 20
10.493943
 30
0.0
 11
22.444199
 21
10.061389
 31
0.0
  0
LINE
  5
203
100
AcDbEntity
  8
Layer_1
 62
1
100
AcDbLine
 10
22.444199
 20
10.061389
 30
0.0
 11
22.207662
 21
9.716454
 31
0.0
  0
LINE
  5
204
100
AcDbEntity
  8
Layer_1
 62
1
100
AcDbLine
 10
22.207662
 20
9.716454
 30
0.0
 11
21.952246
 21
9.363341
 31
0.0
  0
LINE
  5
205
100
AcDbEntity
  8
Layer_1
 62
1
100
AcDbLine
 10
21.952246
 20
9.363341
 30
0.0
 11
21.770153
 21
8.906250
 31
0.0
  0
LINE
  5
206
100
AcDbEntity
  8
Layer_1
 62
1
100
AcDbLine
 10
21.770153
 20
8.906250
 30
0.0
 11
21.753585
 21
8.249385
 31
0.0
  0
LINE
  5
207
100
AcDbEntity
  8
Layer_1
 62
1
100
AcDbLine
 10
21.753585
 20
8.249385
 30
0.0
 11
21.994747
 21
7.296949
 31
0.0
  0
LINE
  5
208
100
AcDbEntity
  8
Layer_1
 62
1
100
AcDbLine
 10
21.994747
 20
7.296949
 30
0.0
 11
22.347212
 21
6.575398
 31
0.0
  0
LINE
  5
209
100
AcDbEntity
  8
Layer_1
 62
1
100
AcDbLine
 10
22.347212
 20
6.575398
 30
0.0
 11
22.734487
 21
6.192337
 31
0.0
  0
LINE
  5
20a
100
AcDbEntity
  8
Layer_1
 62
1
100
AcDbLine
 10
22.734487
 20
6.192337
 30
0.0
 11
23.137940
 21
6.033127
 31
0.0
  0
LINE
  5
20b
100
AcDbEntity
  8
Layer_1
 62
1
100
AcDbLine
 10
23.137940
 20
6.033127
 30
0.0
 11
23.538935
 21
5.983132
 31
0.0
  0
LINE
  5
20c
100
AcDbEntity
  8
Layer_1
 62
1
100
AcDbLine
 10
23.538935
 20
5.983132
 30
0.0
 11
23.918842
 21
5.927713
 31
0.0
  0
LINE
  5
20d
100
AcDbEntity
  8
Layer_1
 62
1
100
AcDbLine
 10
23.918842
 20
5.927713
 30
0.0
 11
24.259027
 21
5.752233
 31
0.0
  0
LINE
  5
20e
100
AcDbEntity
  8
Layer_1
 62
1
100
AcDbLine
 10
24.259027
 20
5.752233
 30
0.0
 11
24.540859
 21
5.342055
 31
0.0
  0
LINE
  5
20f
100
AcDbEntity
  8
Layer_1
 62
1
100
AcDbLine
 10
24.540859
 20
5.342055
 30
0.0
 11
24.745702
 21
4.582539
 31
0.0
  0
LINE
  5
210
100
AcDbEntity
  8
Layer_1
 62
1
100
AcDbLine
 10
24.745702
 20
4.582539
 30
0.0
 11
24.824123
 21
3.615805
 31
0.0
  0
LINE
  5
211
100
AcDbEntity
  8
Layer_1
 62
1
100
AcDbLine
 10
24.824123
 20
3.615805
 30
0.0
 11
24.707801
 21
3.005931
 31
0.0
  0
LINE
  5
212
100
AcDbEntity
  8
Layer_1
 62
1
100
AcDbLine
 10
24.707801
 20
3.005931
 30
0.0
 11
24.454821
 21
2.633314
 31
0.0
  0
LINE
  5
213
100
AcDbEntity
  8
Layer_1
 62
1
100
AcDbLine
 10
24.454821
 20
2.633314
 30
0.0
 11
24.123271
 21
2.378356
 31
0.0
  0
LINE
  5
214
100
AcDbEntity
  8
Layer_1
 62
1
100
AcDbLine
 10
24.123271
 20
2.378356
 30
0.0
 11
23.771236
 21
2.121453
 31
0.0
  0
LINE
  5
215
100
AcDbEntity
  8
Layer_1
 62
1
100
AcDbLine
 10
23.771236
 20
2.121453
 30
0.0
 11
23.456807
 21
1.743004
 31
0.0
  0
LINE
  5
216
100
AcDbEntity
  8
Layer_1
 62
1
100
AcDbLine
 10
23.456807
 20
1.743004
 30
0.0
 11
23.238067
 21
1.123408
 31
0.0
  0
LINE
  5
217
100
AcDbEntity
  8
Layer_1
 62
1
100
AcDbLine
 10
23.238067
 20
1.123408
 30
0.0
 11
23.173105
 21
0.143064
 31
0.0
  0
LINE
  5
218
100
AcDbEntity
  8
Layer_1
 62
1
100
AcDbLine
 10
23.173105
 20
0.143064
 30
0.0
 11
23.285348
 21
-0.652090
 31
0.0
  0
LINE
  5
219
100
AcDbEntity
  8
Layer_1
 62
1
100
AcDbLine
 10
23.285348
 20
-0.652090
 30
0.0
 11
23.535296
 21
-1.136077
 31
0.0
  0
LINE
  5
21a
100
AcDbEntity
  8
Layer_1
 62
1
100
AcDbLine
 10
23.535296
 20
-1.136077
 30
0.0
 11
23.869803
 21
-1.412167
 31
0.0
  0
LINE
  5
21b
100
AcDbEntity
  8
Layer_1
 62
1
100
AcDbLine
 10
23.869803
 20
-1.412167
 30
0.0
 11
24.235725
 21
-1.583631
 31
0.0
  0
LINE
  5
21c
100
AcDbEntity
  8
Layer_1
 62
1
100
AcDbLine
 10
24.235725
 20
-1.583631
 30
0.0
 11
24.579911
 21
-1.753734
 31
0.0
  0
LINE
  5
21d
100
AcDbEntity
  8
Layer_1
 62
1
100
AcDbLine
 10
24.579911
 20
-1.753734
 30
0.0
 11
24.849221
 21
-2.025748
 31
0.0
  0
LINE
  5
21e
100
AcDbEntity
  8
Layer_1
 62
1
100
AcDbLine
 10
24.849221
 20
-2.025748
 30
0.0
 11
24.990505
 21
-2.502942
 31
0.0
  0
LINE
  5
21f
100
AcDbEntity
  8
Layer_1
 62
1
100
AcDbLine
 10
24.990505
 20
-2.502942
 30
0.0
 11
24.950620
 21
-3.288584
 31
0.0
  0
LINE
  5
220
100
AcDbEntity
  8
Layer_1
 62
1
100
AcDbLine
 10
24.950620
 20
-3.288584
 30
0.0
 11
24.726467
 21
-4.232236
 31
0.0
  0
LINE
  5
221
100
AcDbEntity
  8
Layer_1
 62
1
100
AcDbLine
 10
24.726467
 20
-4.232236
 30
0.0
 11
24.427375
 21
-4.776315
 31
0.0
  0
LINE
  5
222
100
AcDbEntity
  8
Layer_1
 62
1
100
AcDbLine
 10
24.427375
 20
-4.776315
 30
0.0
 11
24.071633
 21
-5.052519
 31
0.0
  0
LINE
  5
223
100
AcDbEntity
  8
Layer_1
 62
1
100
AcDbLine
 10
24.071633
 20
-5.052519
 30
0.0
 11
23.677523
 21
-5.192545
 31
0.0
  0
LINE
  5
224
100
AcDbEntity
  8
Layer_1
 62
1
100
AcDbLine
 10
23.677523
 20
-5.192545
 30
0.0
 11
23.263331
 21
-5.328090
 31
0.0
  0
LINE
  5
225
100
AcDbEntity
  8
Layer_1
 62
1
100
AcDbLine
 10
23.263331
 20
-5.328090
 30
0.0
 11
22.847345
 21
-5.590852
 31
0.0
  0
LINE
  5
226
100
AcDbEntity
  8
Layer_1
 62
1
100
AcDbLine
 10
22.847345
 20
-5.590852
 30
0.0
 11
22.447845
 21
-6.112530
 31
0.0
  0
LINE
  5
227
100
AcDbEntity
  8
Layer_1
 62
1
100
AcDbLine
 10
22.447845
 20
-6.112530
 30
0.0
 11
22.083121
 21
-7.024818
 31
0.0
  0
LINE
  5
228
100
AcDbEntity
  8
Layer_1
 62
1
100
AcDbLine
 10
22.083121
 20
-7.024818
 30
0.0
 11
21.944155
 21
-7.815738
 31
0.0
  0
LINE
  5
229
100
AcDbEntity
  8
Layer_1
 62
1
100
AcDbLine
 10
21.944155
 20
-7.815738
 30
0.0
 11
22.032309
 21
-8.353276
 31
0.0
  0
LINE
  5
22a
100
AcDbEntity
  8
Layer_1
 62
1
100
AcDbLine
 10
22.032309
 20
-8.353276
 30
0.0
 11
22.265128
 21
-8.719222
 31
0.0
  0
LINE
  5
22b
100
AcDbEntity
  8
Layer_1
 62
1
100
AcDbLine
 10
22.265128
 20
-8.719222
 30
0.0
 11
22.560154
 21
-8.995368
 31
0.0
  0
LINE
  5
22c
100
AcDbEntity
  8
Layer_1
 62
1
100
AcDbLine
 10
22.560154
 20
-8.995368
 30
0.0
 11
22.834930
 21
-9.263507
 31
0.0
  0
LINE
  5
22d
100
AcDbEntity
  8
Layer_1
 62
1
100
AcDbLine
 10
22.834930
 20
-9.263507
 30
0.0
 11
23.007001
 21
-9.605430
 31
0.0
  0
LINE
  5
22e
100
AcDbEntity
  8
Layer_1
 62
1
100
AcDbLine
 10
23.007001
 20
-9.605430
 30
0.0
 11
22.993907
 21
-10.102926
 31
0.0
  0
LINE
  5
22f
100
AcDbEntity
  8
Layer_1
 62
1
100
AcDbLine
 10
22.993907
 20
-10.102926
 30
0.0
 11
22.713197
 21
-10.837791
 31
0.0
  0
LINE
  5
230
100
AcDbEntity
  8
Layer_1
 62
1
100
AcDbLine
 10
22.713197
 20
-10.837791
 30
0.0
 11
22.208410
 21
-11.665989
 31
0.0
  0
LINE
  5
231
100
AcDbEntity
  8
Layer_1
 62
1
100
AcDbLine
 10
22.208410
 20
-11.665989
 30
0.0
 11
21.755828
 21
-12.091016
 31
0.0
  0
LINE
  5
232
100
AcDbEntity
  8
Layer_1
 62
1
100
AcDbLine
 10
21.755828
 20
-12.091016
 30
0.0
 11
21.332145
 21
-12.243771
 31
0.0
  0
LINE
  5
233
100
AcDbEntity
  8
Layer_1
 62
1
100
AcDbLine
 10
21.332145
 20
-12.243771
 30
0.0
 11
20.914054
 21
-12.255156
 31
0.0
  0
LINE
  5
234
100
AcDbEntity
  8
Layer_1
 62
1
100
AcDbLine
 10
20.914054
 20
-12.255156
 30
0.0
 11
20.478249
 21
-12.256141
 31
0.0
  0
LINE
  5
235
100
AcDbEntity
  8
Layer_1
 62
1
100
AcDbLine
 10
20.478249
 20
-12.256141
 30
0.0
 11
20.001423
 21
-12.377496
 31
0.0
  0
LINE
  5
236
100
AcDbEntity
  8
Layer_1
 62
1
100
AcDbLine
 10
20.001423
 20
-12.377496
 30
0.0
 11
19.460271
 21
-12.750188
 31
0.0
  0
LINE
  5
237
100
AcDbEntity
  8
Layer_1
 62
1
100
AcDbLine
 10
19.460271
 20
-12.750188
 30
0.0
 11
18.831484
 21
-13.505120
 31
0.0
  0
LINE
  5
238
100
AcDbEntity
  8
Layer_1
 62
1
100
AcDbLine
 10
18.831484
 20
-13.505120
 30
0.0
 11
18.454911
 21
-14.214387
 31
0.0
  0
LINE
  5
239
100
AcDbEntity
  8
Layer_1
 62
1
100
AcDbLine
 10
18.454911
 20
-14.214387
 30
0.0
 11
18.372642
 21
-14.752858
 31
0.0
  0
LINE
  5
23a
100
AcDbEntity
  8
Layer_1
 62
1
100
AcDbLine
 10
18.372642
 20
-14.752858
 30
0.0
 11
18.480982
 21
-15.172838
 31
0.0
  0
LINE
  5
23b
100
AcDbEntity
  8
Layer_1
 62
1
100
AcDbLine
 10
18.480982
 20
-15.172838
 30
0.0
 11
18.676234
 21
-15.526637
 31
0.0
  0
LINE
  5
23c
100
AcDbEntity
  8
Layer_1
 62
1
100
AcDbLine
 10
18.676234
 20
-15.526637
 30
0.0
 11
18.854704
 21
-15.866562
 31
0.0
  0
LINE
  5
23d
100
AcDbEntity
  8
Layer_1
 62
1
100
AcDbLine
 10
18.854704
 20
-15.866562
 30
0.0
 11
18.912693
 21
-16.244922
 31
0.0
  0
LINE
  5
23e
100
AcDbEntity
  8
Layer_1
 62
1
100
AcDbLine
 10
18.912693
 20
-16.244922
 30
0.0
 11
18.746507
 21
-16.714024
 31
0.0
  0
LINE
  5
23f
100
AcDbEntity
  8
Layer_1
 62
1
100
AcDbLine
 10
18.746507
 20
-16.714024
 30
0.0
 11
18.252451
 21
-17.326181
 31
0.0
  0
ENDSEC
  0
SECTION
  2
OBJECTS
  0
DICTIONARY
  5
C
330
0
100
AcDbDictionary
  3
ACAD_GROUP
350
D
  3
ACAD_MLINESTYLE
350
17
  0
DICTIONARY
  5
D
330
C
100
AcDbDictionary
  0
DICTIONARY
  5
1A
330
C
100
AcDbDictionary
  0
DICTIONARY
  5
17
330
C
100
AcDbDictionary
  3
STANDARD
350
18
  0
DICTIONARY
  5
19
330
C
100
AcDbDictionary
  0
ENDSEC
  0
EOF
