  0
SECTION
  2
HEADER
  9
$ACADVER
  1
AC1014
  9
$HANDSEED
  5
FFFF
  9
$MEASUREMENT
 70
     1
  0
ENDSEC
  0
SECTION
  2
TABLES
  0
TABLE
  2
VPORT
  5
8
330
0
100
AcDbSymbolTable
 70
     4
  0
VPORT
  5
2E
330
8
100
AcDbSymbolTableRecord
100
AcDbViewportTableRecord
  2
*ACTIVE
 70
     0
 10
0.0
 20
0.0
 11
1.0
 21
1.0
 12
210.0
 22
148.5
 13
0.0
 23
0.0
 14
10.0
 24
10.0
 15
10.0
 25
10.0
 16
0.0
 26
0.0
 36
1.0
 17
0.0
 27
0.0
 37
0.0
 40
341.0
 41
1.24
 42
50.0
 43
0.0
 44
0.0
 50
0.0
 51
0.0
 71
     0
 72
   100
 73
     1
 74
     3
 75
     0
 76
     0
 77
     0
 78
     0
  0
ENDTAB
  0
TABLE
  2
LTYPE
  5
5
330
0
100
AcDbSymbolTable
 70
     1
  0
LTYPE
  5
14
330
5
100
AcDbSymbolTableRecord
100
AcDbLinetypeTableRecord
  2
BYBLOCK
 70
     0
  3

 72
    65
 73
     0
 40
0.0
  0
LTYPE
  5
15
330
5
100
AcDbSymbolTableRecord
100
AcDbLinetypeTableRecord
  2
BYLAYER
 70
     0
  3

 72
    65
 73
     0
 40
0.0
  0
LTYPE
  5
16
330
5
100
AcDbSymbolTableRecord
100
AcDbLinetypeTableRecord
  2
CONTINUOUS
 70
     0
  3
Solid line
 72
    65
 73
     0
 40
0.0
  0
ENDTAB
  0
TABLE
  2
LAYER
  5
2
100
AcDbSymbolTable
 70
2
  0
LAYER
  5
50
100
AcDbSymbolTableRecord
100
AcDbLayerTableRecord
  2
0
 70
0
  6
CONTINUOUS
  0
LAYER
  5
51
100
AcDbSymbolTableRecord
100
AcDbLayerTableRecord
  2
Layer_1
 70
0
  6
CONTINUOUS
  0
ENDTAB
  0
TABLE
  2
STYLE
  5
3
330
0
100
AcDbSymbolTable
 70
     1
  0
STYLE
  5
11
330
3
100
AcDbSymbolTableRecord
100
AcDbTextStyleTableRecord
  2
STANDARD
 70
     0
 40
0.0
 41
1.0
 50
0.0
 71
     0
 42
2.5
  3
txt
  4

  0
ENDTAB
  0
TABLE
  2
VIEW
  5
6
330
0
100
AcDbSymbolTable
 70
     0
  0
ENDTAB
  0
TABLE
  2
UCS
  5
7
330
0
100
AcDbSymbolTable
 70
     0
  0
ENDTAB
  0
TABLE
  2
APPID
  5
9
330
0
100
AcDbSymbolTable
 70
     2
  0
APPID
  5
12
330
9
100
AcDbSymbolTableRecord
100
AcDbRegAppTableRecord
  2
ACAD
 70
     0
  0
ENDTAB
  0
TABLE
  2
DIMSTYLE
  5
A
330
0
100
AcDbSymbolTable
 70
     1
  0
DIMSTYLE
105
27
330
A
100
AcDbSymbolTableRecord
100
AcDbDimStyleTableRecord
  2
ISO-25
 70
     0
  3

  4

  5

  6

  7

 40
1.0
 41
2.5
 42
0.625
 43
3.75
 44
1.25
 45
0.0
 46
0.0
 47
0.0
 48
0.0
140
2.5
141
2.5
142
0.0
143
0.03937007874016
144
1.0
145
0.0
146
1.0
147
0.625
 71
     0
 72
     0
 73
     0
 74
     0
 75
     0
 76
     0
 77
     1
 78
     8
170
     0
171
     3
172
     1
173
     0
174
     0
175
     0
176
     0
177
     0
178
     0
270
     2
271
     2
272
     2
273
     2
274
     3
340
11
275
     0
280
     0
281
     0
282
     0
283
     0
284
     8
285
     0
286
     0
287
     3
288
     0
  0
ENDTAB
  0
TABLE
  2
BLOCK_RECORD
  5
1
330
0
100
AcDbSymbolTable
 70
     1
  0
BLOCK_RECORD
  5
1F
330
1
100
AcDbSymbolTableRecord
100
AcDbBlockTableRecord
  2
*MODEL_SPACE
  0
BLOCK_RECORD
  5
1B
330
1
100
AcDbSymbolTableRecord
100
AcDbBlockTableRecord
  2
*PAPER_SPACE
  0
ENDTAB
  0
ENDSEC
  0
SECTION
  2
BLOCKS
  0
BLOCK
  5
20
330
1F
100
AcDbEntity
  8
0
100
AcDbBlockBegin
  2
*MODEL_SPACE
 70
     0
 10
0.0
 20
0.0
 30
0.0
  3
*MODEL_SPACE
  1

  0
ENDBLK
  5
21
330
1F
100
AcDbEntity
  8
0
100
AcDbBlockEnd
  0
BLOCK
  5
1C
330
1B
100
AcDbEntity
 67
     1
  8
0
100
AcDbBlockBegin
  2
*PAPER_SPACE
  1

  0
ENDBLK
  5
1D
330
1B
100
AcDbEntity
 67
     1
  8
0
100
AcDbBlockEnd
  0
ENDSEC
  0
SECTION
  2
ENTITIES
  0
LWPOLYLINE
  5
100
100
AcDbEntity
  8
Layer_1
 62
7
100
AcDbPolyline
 90
65
 70
0
 10
4.999987
 20
0.000001
 30
0.0
 10
54.999992
 20
0.000001
 30
0.0
 10
104.999999
 20
0.000001
 30
0.0
 10
108.538749
 20
1.461263
 30
0.0
 10
110.000000
 20
5.000019
 30
0.0
 10
110.000000
 20
12.500018
 30
0.0
 10
110.000000
 20
20.000006
 30
0.0
 10
108.249999
 20
20.000006
 30
0.0
 10
106.499999
 20
20.000006
 30
0.0
 10
106.499999
 20
19.250006
 30
0.0
 10
106.499999
 20
18.500006
 30
0.0
 10
103.000000
 20
18.500006
 30
0.0
 10
99.500001
 20
18.500006
 30
0.0
 10
99.500001
 20
19.250006
 30
0.0
 10
99.500001
 20
20.000006
 30
0.0
 10
98.500001
 20
20.000006
 30
0.0
 10
97.500000
 20
20.000006
 30
0.0
 10
97.500000
 20
30.000006
 30
0.0
 10
97.500000
 20
40.000005
 30
0.0
 10
98.500001
 20
40.000005
 30
0.0
 10
99.500001
 20
40.000005
 30
0.0
 10
99.500001
 20
40.750005
 30
0.0
 10
99.500001
 20
41.500005
 30
0.0
 10
103.000000
 20
41.500005
 30
0.0
 10
106.499999
 20
41.500005
 30
0.0
 10
106.499999
 20
40.750002
 30
0.0
 10
106.499999
 20
40.000003
 30
0.0
 10
108.249999
 20
40.000003
 30
0.0
 10
110.000000
 20
40.000005
 30
0.0
 10
110.000000
 20
72.499997
 30
0.0
 10
110.000000
 20
104.999991
 30
0.0
 10
108.538749
 20
108.538733
 30
0.0
 10
104.999999
 20
109.999990
 30
0.0
 10
54.999992
 20
109.999995
 30
0.0
 10
4.999987
 20
110.000004
 30
0.0
 10
1.461245
 20
108.538747
 30
0.0
 10
0.000000
 20
105.000005
 30
0.0
 10
0.000000
 20
72.500005
 30
0.0
 10
0.000000
 20
40.000005
 30
0.0
 10
1.750000
 20
40.000005
 30
0.0
 10
3.500000
 20
40.000003
 30
0.0
 10
3.500000
 20
40.750005
 30
0.0
 10
3.500000
 20
41.500005
 30
0.0
 10
7.000000
 20
41.500008
 30
0.0
 10
10.500000
 20
41.500008
 30
0.0
 10
10.500000
 20
40.750005
 30
0.0
 10
10.500000
 20
40.000003
 30
0.0
 10
11.500000
 20
39.999991
 30
0.0
 10
12.500000
 20
39.999980
 30
0.0
 10
12.500000
 20
29.999994
 30
0.0
 10
12.500000
 20
20.000006
 30
0.0
 10
11.500000
 20
20.000006
 30
0.0
 10
10.500000
 20
20.000006
 30
0.0
 10
10.500000
 20
19.250006
 30
0.0
 10
10.500000
 20
18.500006
 30
0.0
 10
7.000000
 20
18.500006
 30
0.0
 10
3.500000
 20
18.500006
 30
0.0
 10
3.500000
 20
19.250006
 30
0.0
 10
3.500000
 20
20.000006
 30
0.0
 10
1.750000
 20
20.000003
 30
0.0
 10
0.000000
 20
20.000000
 30
0.0
 10
0.000000
 20
12.500018
 30
0.0
 10
0.000000
 20
5.000019
 30
0.0
 10
1.461245
 20
1.461263
 30
0.0
 10
4.999987
 20
0.000001
 30
0.0
  0
LWPOLYLINE
  5
101
100
AcDbEntity
  8
Layer_1
 62
7
100
AcDbPolyline
 90
9
 70
0
 10
17.000004
 20
55.000003
 30
0.0
 10
16.414217
 20
53.585790
 30
0.0
 10
15.000004
 20
53.000003
 30
0.0
 10
13.585790
 20
53.585790
 30
0.0
 10
13.000004
 20
55.000003
 30
0.0
 10
13.585790
 20
56.414216
 30
0.0
 10
15.000004
 20
57.000002
 30
0.0
 10
16.414217
 20
56.414216
 30
0.0
 10
17.000004
 20
55.000003
 30
0.0
  0
LWPOLYLINE
  5
102
100
AcDbEntity
  8
Layer_1
 62
7
100
AcDbPolyline
 90
9
 70
0
 10
7.000004
 20
55.000003
 30
0.0
 10
6.414217
 20
53.585790
 30
0.0
 10
5.000004
 20
53.000003
 30
0.0
 10
3.585790
 20
53.585790
 30
0.0
 10
3.000004
 20
55.000003
 30
0.0
 10
3.585790
 20
56.414216
 30
0.0
 10
5.000004
 20
57.000002
 30
0.0
 10
6.414217
 20
56.414216
 30
0.0
 10
7.000004
 20
55.000003
 30
0.0
  0
LWPOLYLINE
  5
103
100
AcDbEntity
  8
Layer_1
 62
7
100
AcDbPolyline
 90
9
 70
0
 10
37.000002
 20
45.000003
 30
0.0
 10
36.414216
 20
43.585790
 30
0.0
 10
35.000002
 20
43.000003
 30
0.0
 10
33.585789
 20
43.585790
 30
0.0
 10
33.000002
 20
45.000003
 30
0.0
 10
33.585789
 20
46.414216
 30
0.0
 10
35.000002
 20
47.000003
 30
0.0
 10
36.414216
 20
46.414216
 30
0.0
 10
37.000002
 20
45.000003
 30
0.0
  0
LWPOLYLINE
  5
104
100
AcDbEntity
  8
Layer_1
 62
7
100
AcDbPolyline
 90
9
 70
0
 10
37.000002
 20
55.000003
 30
0.0
 10
36.414216
 20
53.585790
 30
0.0
 10
35.000002
 20
53.000003
 30
0.0
 10
33.585789
 20
53.585790
 30
0.0
 10
33.000002
 20
55.000003
 30
0.0
 10
33.585789
 20
56.414216
 30
0.0
 10
35.000002
 20
57.000002
 30
0.0
 10
36.414216
 20
56.414216
 30
0.0
 10
37.000002
 20
55.000003
 30
0.0
  0
LWPOLYLINE
  5
105
100
AcDbEntity
  8
Layer_1
 62
7
100
AcDbPolyline
 90
9
 70
0
 10
27.000004
 20
45.000003
 30
0.0
 10
26.414217
 20
43.585790
 30
0.0
 10
25.000004
 20
43.000003
 30
0.0
 10
23.585790
 20
43.585790
 30
0.0
 10
23.000004
 20
45.000003
 30
0.0
 10
23.585790
 20
46.414216
 30
0.0
 10
25.000004
 20
47.000003
 30
0.0
 10
26.414217
 20
46.414216
 30
0.0
 10
27.000004
 20
45.000003
 30
0.0
  0
LWPOLYLINE
  5
106
100
AcDbEntity
  8
Layer_1
 62
7
100
AcDbPolyline
 90
9
 70
0
 10
27.000004
 20
55.000003
 30
0.0
 10
26.414217
 20
53.585790
 30
0.0
 10
25.000004
 20
53.000003
 30
0.0
 10
23.585790
 20
53.585790
 30
0.0
 10
23.000004
 20
55.000003
 30
0.0
 10
23.585790
 20
56.414216
 30
0.0
 10
25.000004
 20
57.000002
 30
0.0
 10
26.414217
 20
56.414216
 30
0.0
 10
27.000004
 20
55.000003
 30
0.0
  0
LWPOLYLINE
  5
107
100
AcDbEntity
  8
Layer_1
 62
7
100
AcDbPolyline
 90
9
 70
0
 10
57.000002
 20
45.000003
 30
0.0
 10
56.414215
 20
43.585790
 30
0.0
 10
55.000002
 20
43.000003
 30
0.0
 10
53.585788
 20
43.585790
 30
0.0
 10
53.000002
 20
45.000003
 30
0.0
 10
53.585788
 20
46.414216
 30
0.0
 10
55.000002
 20
47.000003
 30
0.0
 10
56.414215
 20
46.414216
 30
0.0
 10
57.000002
 20
45.000003
 30
0.0
  0
LWPOLYLINE
  5
108
100
AcDbEntity
  8
Layer_1
 62
7
100
AcDbPolyline
 90
9
 70
0
 10
57.000002
 20
55.000003
 30
0.0
 10
56.414215
 20
53.585790
 30
0.0
 10
55.000002
 20
53.000003
 30
0.0
 10
53.585788
 20
53.585790
 30
0.0
 10
53.000002
 20
55.000003
 30
0.0
 10
53.585788
 20
56.414216
 30
0.0
 10
55.000002
 20
57.000002
 30
0.0
 10
56.414215
 20
56.414216
 30
0.0
 10
57.000002
 20
55.000003
 30
0.0
  0
LWPOLYLINE
  5
109
100
AcDbEntity
  8
Layer_1
 62
7
100
AcDbPolyline
 90
9
 70
0
 10
47.000002
 20
45.000003
 30
0.0
 10
46.414216
 20
43.585790
 30
0.0
 10
45.000002
 20
43.000003
 30
0.0
 10
43.585788
 20
43.585790
 30
0.0
 10
43.000002
 20
45.000003
 30
0.0
 10
43.585788
 20
46.414216
 30
0.0
 10
45.000002
 20
47.000003
 30
0.0
 10
46.414216
 20
46.414216
 30
0.0
 10
47.000002
 20
45.000003
 30
0.0
  0
LWPOLYLINE
  5
10a
100
AcDbEntity
  8
Layer_1
 62
7
100
AcDbPolyline
 90
9
 70
0
 10
47.000002
 20
55.000003
 30
0.0
 10
46.414216
 20
53.585790
 30
0.0
 10
45.000002
 20
53.000003
 30
0.0
 10
43.585788
 20
53.585790
 30
0.0
 10
43.000002
 20
55.000003
 30
0.0
 10
43.585788
 20
56.414216
 30
0.0
 10
45.000002
 20
57.000002
 30
0.0
 10
46.414216
 20
56.414216
 30
0.0
 10
47.000002
 20
55.000003
 30
0.0
  0
LWPOLYLINE
  5
10b
100
AcDbEntity
  8
Layer_1
 62
7
100
AcDbPolyline
 90
9
 70
0
 10
77.000001
 20
45.000003
 30
0.0
 10
76.414215
 20
43.585790
 30
0.0
 10
75.000001
 20
43.000003
 30
0.0
 10
73.585788
 20
43.585790
 30
0.0
 10
73.000001
 20
45.000003
 30
0.0
 10
73.585788
 20
46.414216
 30
0.0
 10
75.000001
 20
47.000003
 30
0.0
 10
76.414215
 20
46.414216
 30
0.0
 10
77.000001
 20
45.000003
 30
0.0
  0
LWPOLYLINE
  5
10c
100
AcDbEntity
  8
Layer_1
 62
7
100
AcDbPolyline
 90
9
 70
0
 10
77.000001
 20
55.000003
 30
0.0
 10
76.414215
 20
53.585790
 30
0.0
 10
75.000001
 20
53.000003
 30
0.0
 10
73.585788
 20
53.585790
 30
0.0
 10
73.000001
 20
55.000003
 30
0.0
 10
73.585788
 20
56.414216
 30
0.0
 10
75.000001
 20
57.000002
 30
0.0
 10
76.414215
 20
56.414216
 30
0.0
 10
77.000001
 20
55.000003
 30
0.0
  0
LWPOLYLINE
  5
10d
100
AcDbEntity
  8
Layer_1
 62
7
100
AcDbPolyline
 90
9
 70
0
 10
67.000002
 20
55.000003
 30
0.0
 10
66.414215
 20
53.585790
 30
0.0
 10
65.000002
 20
53.000003
 30
0.0
 10
63.585788
 20
53.585790
 30
0.0
 10
63.000002
 20
55.000003
 30
0.0
 10
63.585788
 20
56.414216
 30
0.0
 10
65.000002
 20
57.000002
 30
0.0
 10
66.414215
 20
56.414216
 30
0.0
 10
67.000002
 20
55.000003
 30
0.0
  0
LWPOLYLINE
  5
10e
100
AcDbEntity
  8
Layer_1
 62
7
100
AcDbPolyline
 90
9
 70
0
 10
97.000004
 20
55.000003
 30
0.0
 10
96.414217
 20
53.585790
 30
0.0
 10
95.000004
 20
53.000003
 30
0.0
 10
93.585790
 20
53.585790
 30
0.0
 10
93.000004
 20
55.000003
 30
0.0
 10
93.585790
 20
56.414216
 30
0.0
 10
95.000004
 20
57.000002
 30
0.0
 10
96.414217
 20
56.414216
 30
0.0
 10
97.000004
 20
55.000003
 30
0.0
  0
LWPOLYLINE
  5
10f
100
AcDbEntity
  8
Layer_1
 62
7
100
AcDbPolyline
 90
9
 70
0
 10
87.000004
 20
45.000003
 30
0.0
 10
86.414217
 20
43.585790
 30
0.0
 10
85.000004
 20
43.000003
 30
0.0
 10
83.585790
 20
43.585790
 30
0.0
 10
83.000004
 20
45.000003
 30
0.0
 10
83.585790
 20
46.414216
 30
0.0
 10
85.000004
 20
47.000003
 30
0.0
 10
86.414217
 20
46.414216
 30
0.0
 10
87.000004
 20
45.000003
 30
0.0
  0
LWPOLYLINE
  5
110
100
AcDbEntity
  8
Layer_1
 62
7
100
AcDbPolyline
 90
9
 70
0
 10
87.000004
 20
55.000003
 30
0.0
 10
86.414217
 20
53.585790
 30
0.0
 10
85.000004
 20
53.000003
 30
0.0
 10
83.585790
 20
53.585790
 30
0.0
 10
83.000004
 20
55.000003
 30
0.0
 10
83.585790
 20
56.414216
 30
0.0
 10
85.000004
 20
57.000002
 30
0.0
 10
86.414217
 20
56.414216
 30
0.0
 10
87.000004
 20
55.000003
 30
0.0
  0
LWPOLYLINE
  5
111
100
AcDbEntity
  8
Layer_1
 62
7
100
AcDbPolyline
 90
9
 70
0
 10
107.000004
 20
55.000003
 30
0.0
 10
106.414217
 20
53.585790
 30
0.0
 10
105.000003
 20
53.000003
 30
0.0
 10
103.585790
 20
53.585790
 30
0.0
 10
103.000003
 20
55.000003
 30
0.0
 10
103.585790
 20
56.414216
 30
0.0
 10
105.000003
 20
57.000002
 30
0.0
 10
106.414217
 20
56.414216
 30
0.0
 10
107.000004
 20
55.000003
 30
0.0
  0
LWPOLYLINE
  5
112
100
AcDbEntity
  8
Layer_1
 62
7
100
AcDbPolyline
 90
9
 70
0
 10
37.000000
 20
25.000003
 30
0.0
 10
36.414213
 20
23.585790
 30
0.0
 10
35.000000
 20
23.000003
 30
0.0
 10
33.585786
 20
23.585790
 30
0.0
 10
32.999999
 20
25.000003
 30
0.0
 10
33.585786
 20
26.414216
 30
0.0
 10
35.000000
 20
27.000003
 30
0.0
 10
36.414213
 20
26.414216
 30
0.0
 10
37.000000
 20
25.000003
 30
0.0
  0
LWPOLYLINE
  5
113
100
AcDbEntity
  8
Layer_1
 62
7
100
AcDbPolyline
 90
9
 70
0
 10
37.000000
 20
35.000003
 30
0.0
 10
36.414213
 20
33.585790
 30
0.0
 10
35.000000
 20
33.000003
 30
0.0
 10
33.585786
 20
33.585790
 30
0.0
 10
32.999999
 20
35.000003
 30
0.0
 10
33.585786
 20
36.414216
 30
0.0
 10
35.000000
 20
37.000003
 30
0.0
 10
36.414213
 20
36.414216
 30
0.0
 10
37.000000
 20
35.000003
 30
0.0
  0
LWPOLYLINE
  5
114
100
AcDbEntity
  8
Layer_1
 62
7
100
AcDbPolyline
 90
9
 70
0
 10
27.000003
 20
25.000003
 30
0.0
 10
26.414216
 20
23.585790
 30
0.0
 10
25.000003
 20
23.000003
 30
0.0
 10
23.585789
 20
23.585790
 30
0.0
 10
23.000003
 20
25.000003
 30
0.0
 10
23.585789
 20
26.414216
 30
0.0
 10
25.000003
 20
27.000003
 30
0.0
 10
26.414216
 20
26.414216
 30
0.0
 10
27.000003
 20
25.000003
 30
0.0
  0
LWPOLYLINE
  5
115
100
AcDbEntity
  8
Layer_1
 62
7
100
AcDbPolyline
 90
9
 70
0
 10
27.000003
 20
35.000003
 30
0.0
 10
26.414216
 20
33.585790
 30
0.0
 10
25.000003
 20
33.000003
 30
0.0
 10
23.585789
 20
33.585790
 30
0.0
 10
23.000003
 20
35.000003
 30
0.0
 10
23.585789
 20
36.414216
 30
0.0
 10
25.000003
 20
37.000003
 30
0.0
 10
26.414216
 20
36.414216
 30
0.0
 10
27.000003
 20
35.000003
 30
0.0
  0
LWPOLYLINE
  5
116
100
AcDbEntity
  8
Layer_1
 62
7
100
AcDbPolyline
 90
9
 70
0
 10
56.999999
 20
25.000003
 30
0.0
 10
56.414213
 20
23.585790
 30
0.0
 10
54.999999
 20
23.000003
 30
0.0
 10
53.585785
 20
23.585790
 30
0.0
 10
52.999999
 20
25.000003
 30
0.0
 10
53.585785
 20
26.414216
 30
0.0
 10
54.999999
 20
27.000003
 30
0.0
 10
56.414213
 20
26.414216
 30
0.0
 10
56.999999
 20
25.000003
 30
0.0
  0
LWPOLYLINE
  5
117
100
AcDbEntity
  8
Layer_1
 62
7
100
AcDbPolyline
 90
9
 70
0
 10
56.999999
 20
35.000003
 30
0.0
 10
56.414213
 20
33.585790
 30
0.0
 10
54.999999
 20
33.000003
 30
0.0
 10
53.585785
 20
33.585790
 30
0.0
 10
52.999999
 20
35.000003
 30
0.0
 10
53.585785
 20
36.414216
 30
0.0
 10
54.999999
 20
37.000003
 30
0.0
 10
56.414213
 20
36.414216
 30
0.0
 10
56.999999
 20
35.000003
 30
0.0
  0
LWPOLYLINE
  5
118
100
AcDbEntity
  8
Layer_1
 62
7
100
AcDbPolyline
 90
9
 70
0
 10
46.999999
 20
25.000003
 30
0.0
 10
46.414213
 20
23.585790
 30
0.0
 10
44.999999
 20
23.000003
 30
0.0
 10
43.585786
 20
23.585790
 30
0.0
 10
42.999999
 20
25.000003
 30
0.0
 10
43.585786
 20
26.414216
 30
0.0
 10
44.999999
 20
27.000003
 30
0.0
 10
46.414213
 20
26.414216
 30
0.0
 10
46.999999
 20
25.000003
 30
0.0
  0
LWPOLYLINE
  5
119
100
AcDbEntity
  8
Layer_1
 62
7
100
AcDbPolyline
 90
9
 70
0
 10
46.999999
 20
35.000003
 30
0.0
 10
46.414213
 20
33.585790
 30
0.0
 10
44.999999
 20
33.000003
 30
0.0
 10
43.585786
 20
33.585790
 30
0.0
 10
42.999999
 20
35.000003
 30
0.0
 10
43.585786
 20
36.414216
 30
0.0
 10
44.999999
 20
37.000003
 30
0.0
 10
46.414213
 20
36.414216
 30
0.0
 10
46.999999
 20
35.000003
 30
0.0
  0
LWPOLYLINE
  5
11a
100
AcDbEntity
  8
Layer_1
 62
7
100
AcDbPolyline
 90
9
 70
0
 10
76.999999
 20
25.000003
 30
0.0
 10
76.414212
 20
23.585790
 30
0.0
 10
74.999999
 20
23.000003
 30
0.0
 10
73.585785
 20
23.585790
 30
0.0
 10
72.999999
 20
25.000003
 30
0.0
 10
73.585785
 20
26.414216
 30
0.0
 10
74.999999
 20
27.000003
 30
0.0
 10
76.414212
 20
26.414216
 30
0.0
 10
76.999999
 20
25.000003
 30
0.0
  0
LWPOLYLINE
  5
11b
100
AcDbEntity
  8
Layer_1
 62
7
100
AcDbPolyline
 90
9
 70
0
 10
76.999999
 20
35.000003
 30
0.0
 10
76.414212
 20
33.585790
 30
0.0
 10
74.999999
 20
33.000003
 30
0.0
 10
73.585785
 20
33.585790
 30
0.0
 10
72.999999
 20
35.000003
 30
0.0
 10
73.585785
 20
36.414216
 30
0.0
 10
74.999999
 20
37.000003
 30
0.0
 10
76.414212
 20
36.414216
 30
0.0
 10
76.999999
 20
35.000003
 30
0.0
  0
LWPOLYLINE
  5
11c
100
AcDbEntity
  8
Layer_1
 62
7
100
AcDbPolyline
 90
9
 70
0
 10
66.999999
 20
25.000003
 30
0.0
 10
66.414212
 20
23.585790
 30
0.0
 10
64.999999
 20
23.000003
 30
0.0
 10
63.585785
 20
23.585790
 30
0.0
 10
62.999999
 20
25.000003
 30
0.0
 10
63.585785
 20
26.414216
 30
0.0
 10
64.999999
 20
27.000003
 30
0.0
 10
66.414212
 20
26.414216
 30
0.0
 10
66.999999
 20
25.000003
 30
0.0
  0
LWPOLYLINE
  5
11d
100
AcDbEntity
  8
Layer_1
 62
7
100
AcDbPolyline
 90
9
 70
0
 10
66.999999
 20
35.000003
 30
0.0
 10
66.414212
 20
33.585790
 30
0.0
 10
64.999999
 20
33.000003
 30
0.0
 10
63.585785
 20
33.585790
 30
0.0
 10
62.999999
 20
35.000003
 30
0.0
 10
63.585785
 20
36.414216
 30
0.0
 10
64.999999
 20
37.000003
 30
0.0
 10
66.414212
 20
36.414216
 30
0.0
 10
66.999999
 20
35.000003
 30
0.0
  0
LWPOLYLINE
  5
11e
100
AcDbEntity
  8
Layer_1
 62
7
100
AcDbPolyline
 90
9
 70
0
 10
87.000001
 20
25.000003
 30
0.0
 10
86.414215
 20
23.585790
 30
0.0
 10
85.000001
 20
23.000003
 30
0.0
 10
83.585788
 20
23.585790
 30
0.0
 10
83.000001
 20
25.000003
 30
0.0
 10
83.585788
 20
26.414216
 30
0.0
 10
85.000001
 20
27.000003
 30
0.0
 10
86.414215
 20
26.414216
 30
0.0
 10
87.000001
 20
25.000003
 30
0.0
  0
LWPOLYLINE
  5
11f
100
AcDbEntity
  8
Layer_1
 62
7
100
AcDbPolyline
 90
9
 70
0
 10
87.000001
 20
35.000003
 30
0.0
 10
86.414215
 20
33.585790
 30
0.0
 10
85.000001
 20
33.000003
 30
0.0
 10
83.585788
 20
33.585790
 30
0.0
 10
83.000001
 20
35.000003
 30
0.0
 10
83.585788
 20
36.414216
 30
0.0
 10
85.000001
 20
37.000003
 30
0.0
 10
86.414215
 20
36.414216
 30
0.0
 10
87.000001
 20
35.000003
 30
0.0
  0
LWPOLYLINE
  5
120
100
AcDbEntity
  8
Layer_1
 62
7
100
AcDbPolyline
 90
9
 70
0
 10
17.000004
 20
85.000005
 30
0.0
 10
16.414217
 20
83.585792
 30
0.0
 10
15.000004
 20
83.000005
 30
0.0
 10
13.585790
 20
83.585792
 30
0.0
 10
13.000004
 20
85.000005
 30
0.0
 10
13.585790
 20
86.414218
 30
0.0
 10
15.000004
 20
87.000005
 30
0.0
 10
16.414217
 20
86.414218
 30
0.0
 10
17.000004
 20
85.000005
 30
0.0
  0
LWPOLYLINE
  5
121
100
AcDbEntity
  8
Layer_1
 62
7
100
AcDbPolyline
 90
9
 70
0
 10
7.000004
 20
85.000005
 30
0.0
 10
6.414217
 20
83.585792
 30
0.0
 10
5.000004
 20
83.000005
 30
0.0
 10
3.585790
 20
83.585792
 30
0.0
 10
3.000004
 20
85.000005
 30
0.0
 10
3.585790
 20
86.414218
 30
0.0
 10
5.000004
 20
87.000005
 30
0.0
 10
6.414217
 20
86.414218
 30
0.0
 10
7.000004
 20
85.000005
 30
0.0
  0
LWPOLYLINE
  5
122
100
AcDbEntity
  8
Layer_1
 62
7
100
AcDbPolyline
 90
9
 70
0
 10
7.000004
 20
95.000004
 30
0.0
 10
6.414217
 20
93.585791
 30
0.0
 10
5.000004
 20
93.000005
 30
0.0
 10
3.585790
 20
93.585791
 30
0.0
 10
3.000004
 20
95.000004
 30
0.0
 10
3.585790
 20
96.414218
 30
0.0
 10
5.000004
 20
97.000004
 30
0.0
 10
6.414217
 20
96.414218
 30
0.0
 10
7.000004
 20
95.000004
 30
0.0
  0
LWPOLYLINE
  5
123
100
AcDbEntity
  8
Layer_1
 62
7
100
AcDbPolyline
 90
9
 70
0
 10
37.000002
 20
85.000005
 30
0.0
 10
36.414216
 20
83.585792
 30
0.0
 10
35.000002
 20
83.000005
 30
0.0
 10
33.585789
 20
83.585792
 30
0.0
 10
33.000002
 20
85.000005
 30
0.0
 10
33.585789
 20
86.414218
 30
0.0
 10
35.000002
 20
87.000005
 30
0.0
 10
36.414216
 20
86.414218
 30
0.0
 10
37.000002
 20
85.000005
 30
0.0
  0
LWPOLYLINE
  5
124
100
AcDbEntity
  8
Layer_1
 62
7
100
AcDbPolyline
 90
9
 70
0
 10
37.000002
 20
95.000004
 30
0.0
 10
36.414216
 20
93.585791
 30
0.0
 10
35.000002
 20
93.000005
 30
0.0
 10
33.585789
 20
93.585791
 30
0.0
 10
33.000002
 20
95.000004
 30
0.0
 10
33.585789
 20
96.414218
 30
0.0
 10
35.000002
 20
97.000004
 30
0.0
 10
36.414216
 20
96.414218
 30
0.0
 10
37.000002
 20
95.000004
 30
0.0
  0
LWPOLYLINE
  5
125
100
AcDbEntity
  8
Layer_1
 62
7
100
AcDbPolyline
 90
9
 70
0
 10
27.000004
 20
85.000005
 30
0.0
 10
26.414217
 20
83.585792
 30
0.0
 10
25.000004
 20
83.000005
 30
0.0
 10
23.585790
 20
83.585792
 30
0.0
 10
23.000004
 20
85.000005
 30
0.0
 10
23.585790
 20
86.414218
 30
0.0
 10
25.000004
 20
87.000005
 30
0.0
 10
26.414217
 20
86.414218
 30
0.0
 10
27.000004
 20
85.000005
 30
0.0
  0
LWPOLYLINE
  5
126
100
AcDbEntity
  8
Layer_1
 62
7
100
AcDbPolyline
 90
9
 70
0
 10
27.000004
 20
95.000004
 30
0.0
 10
26.414217
 20
93.585791
 30
0.0
 10
25.000004
 20
93.000005
 30
0.0
 10
23.585790
 20
93.585791
 30
0.0
 10
23.000004
 20
95.000004
 30
0.0
 10
23.585790
 20
96.414218
 30
0.0
 10
25.000004
 20
97.000004
 30
0.0
 10
26.414217
 20
96.414218
 30
0.0
 10
27.000004
 20
95.000004
 30
0.0
  0
LWPOLYLINE
  5
127
100
AcDbEntity
  8
Layer_1
 62
7
100
AcDbPolyline
 90
9
 70
0
 10
57.000002
 20
85.000005
 30
0.0
 10
56.414215
 20
83.585792
 30
0.0
 10
55.000002
 20
83.000005
 30
0.0
 10
53.585788
 20
83.585792
 30
0.0
 10
53.000002
 20
85.000005
 30
0.0
 10
53.585788
 20
86.414218
 30
0.0
 10
55.000002
 20
87.000005
 30
0.0
 10
56.414215
 20
86.414218
 30
0.0
 10
57.000002
 20
85.000005
 30
0.0
  0
LWPOLYLINE
  5
128
100
AcDbEntity
  8
Layer_1
 62
7
100
AcDbPolyline
 90
9
 70
0
 10
57.000002
 20
95.000004
 30
0.0
 10
56.414215
 20
93.585791
 30
0.0
 10
55.000002
 20
93.000005
 30
0.0
 10
53.585788
 20
93.585791
 30
0.0
 10
53.000002
 20
95.000004
 30
0.0
 10
53.585788
 20
96.414218
 30
0.0
 10
55.000002
 20
97.000004
 30
0.0
 10
56.414215
 20
96.414218
 30
0.0
 10
57.000002
 20
95.000004
 30
0.0
  0
LWPOLYLINE
  5
129
100
AcDbEntity
  8
Layer_1
 62
7
100
AcDbPolyline
 90
9
 70
0
 10
47.000002
 20
85.000005
 30
0.0
 10
46.414216
 20
83.585792
 30
0.0
 10
45.000002
 20
83.000005
 30
0.0
 10
43.585788
 20
83.585792
 30
0.0
 10
43.000002
 20
85.000005
 30
0.0
 10
43.585788
 20
86.414218
 30
0.0
 10
45.000002
 20
87.000005
 30
0.0
 10
46.414216
 20
86.414218
 30
0.0
 10
47.000002
 20
85.000005
 30
0.0
  0
LWPOLYLINE
  5
12a
100
AcDbEntity
  8
Layer_1
 62
7
100
AcDbPolyline
 90
9
 70
0
 10
47.000002
 20
95.000004
 30
0.0
 10
46.414216
 20
93.585791
 30
0.0
 10
45.000002
 20
93.000005
 30
0.0
 10
43.585788
 20
93.585791
 30
0.0
 10
43.000002
 20
95.000004
 30
0.0
 10
43.585788
 20
96.414218
 30
0.0
 10
45.000002
 20
97.000004
 30
0.0
 10
46.414216
 20
96.414218
 30
0.0
 10
47.000002
 20
95.000004
 30
0.0
  0
LWPOLYLINE
  5
12b
100
AcDbEntity
  8
Layer_1
 62
7
100
AcDbPolyline
 90
9
 70
0
 10
77.000001
 20
85.000005
 30
0.0
 10
76.414215
 20
83.585792
 30
0.0
 10
75.000001
 20
83.000005
 30
0.0
 10
73.585788
 20
83.585792
 30
0.0
 10
73.000001
 20
85.000005
 30
0.0
 10
73.585788
 20
86.414218
 30
0.0
 10
75.000001
 20
87.000005
 30
0.0
 10
76.414215
 20
86.414218
 30
0.0
 10
77.000001
 20
85.000005
 30
0.0
  0
LWPOLYLINE
  5
12c
100
AcDbEntity
  8
Layer_1
 62
7
100
AcDbPolyline
 90
9
 70
0
 10
77.000001
 20
95.000004
 30
0.0
 10
76.414215
 20
93.585791
 30
0.0
 10
75.000001
 20
93.000005
 30
0.0
 10
73.585788
 20
93.585791
 30
0.0
 10
73.000001
 20
95.000004
 30
0.0
 10
73.585788
 20
96.414218
 30
0.0
 10
75.000001
 20
97.000004
 30
0.0
 10
76.414215
 20
96.414218
 30
0.0
 10
77.000001
 20
95.000004
 30
0.0
  0
LWPOLYLINE
  5
12d
100
AcDbEntity
  8
Layer_1
 62
7
100
AcDbPolyline
 90
9
 70
0
 10
67.000002
 20
85.000005
 30
0.0
 10
66.414215
 20
83.585792
 30
0.0
 10
65.000002
 20
83.000005
 30
0.0
 10
63.585788
 20
83.585792
 30
0.0
 10
63.000002
 20
85.000005
 30
0.0
 10
63.585788
 20
86.414218
 30
0.0
 10
65.000002
 20
87.000005
 30
0.0
 10
66.414215
 20
86.414218
 30
0.0
 10
67.000002
 20
85.000005
 30
0.0
  0
LWPOLYLINE
  5
12e
100
AcDbEntity
  8
Layer_1
 62
7
100
AcDbPolyline
 90
9
 70
0
 10
97.000004
 20
85.000005
 30
0.0
 10
96.414217
 20
83.585792
 30
0.0
 10
95.000004
 20
83.000005
 30
0.0
 10
93.585790
 20
83.585792
 30
0.0
 10
93.000004
 20
85.000005
 30
0.0
 10
93.585790
 20
86.414218
 30
0.0
 10
95.000004
 20
87.000005
 30
0.0
 10
96.414217
 20
86.414218
 30
0.0
 10
97.000004
 20
85.000005
 30
0.0
  0
LWPOLYLINE
  5
12f
100
AcDbEntity
  8
Layer_1
 62
7
100
AcDbPolyline
 90
9
 70
0
 10
97.000004
 20
95.000004
 30
0.0
 10
96.414217
 20
93.585791
 30
0.0
 10
95.000004
 20
93.000005
 30
0.0
 10
93.585790
 20
93.585791
 30
0.0
 10
93.000004
 20
95.000004
 30
0.0
 10
93.585790
 20
96.414218
 30
0.0
 10
95.000004
 20
97.000004
 30
0.0
 10
96.414217
 20
96.414218
 30
0.0
 10
97.000004
 20
95.000004
 30
0.0
  0
LWPOLYLINE
  5
130
100
AcDbEntity
  8
Layer_1
 62
7
100
AcDbPolyline
 90
9
 70
0
 10
87.000004
 20
85.000005
 30
0.0
 10
86.414217
 20
83.585792
 30
0.0
 10
85.000004
 20
83.000005
 30
0.0
 10
83.585790
 20
83.585792
 30
0.0
 10
83.000004
 20
85.000005
 30
0.0
 10
83.585790
 20
86.414218
 30
0.0
 10
85.000004
 20
87.000005
 30
0.0
 10
86.414217
 20
86.414218
 30
0.0
 10
87.000004
 20
85.000005
 30
0.0
  0
LWPOLYLINE
  5
131
100
AcDbEntity
  8
Layer_1
 62
7
100
AcDbPolyline
 90
9
 70
0
 10
87.000004
 20
95.000004
 30
0.0
 10
86.414217
 20
93.585791
 30
0.0
 10
85.000004
 20
93.000005
 30
0.0
 10
83.585790
 20
93.585791
 30
0.0
 10
83.000004
 20
95.000004
 30
0.0
 10
83.585790
 20
96.414218
 30
0.0
 10
85.000004
 20
97.000004
 30
0.0
 10
86.414217
 20
96.414218
 30
0.0
 10
87.000004
 20
95.000004
 30
0.0
  0
LWPOLYLINE
  5
132
100
AcDbEntity
  8
Layer_1
 62
7
100
AcDbPolyline
 90
9
 70
0
 10
107.000004
 20
85.000005
 30
0.0
 10
106.414217
 20
83.585792
 30
0.0
 10
105.000003
 20
83.000005
 30
0.0
 10
103.585790
 20
83.585792
 30
0.0
 10
103.000003
 20
85.000005
 30
0.0
 10
103.585790
 20
86.414218
 30
0.0
 10
105.000003
 20
87.000005
 30
0.0
 10
106.414217
 20
86.414218
 30
0.0
 10
107.000004
 20
85.000005
 30
0.0
  0
LWPOLYLINE
  5
133
100
AcDbEntity
  8
Layer_1
 62
7
100
AcDbPolyline
 90
9
 70
0
 10
107.000004
 20
95.000004
 30
0.0
 10
106.414217
 20
93.585791
 30
0.0
 10
105.000003
 20
93.000005
 30
0.0
 10
103.585790
 20
93.585791
 30
0.0
 10
103.000003
 20
95.000004
 30
0.0
 10
103.585790
 20
96.414218
 30
0.0
 10
105.000003
 20
97.000004
 30
0.0
 10
106.414217
 20
96.414218
 30
0.0
 10
107.000004
 20
95.000004
 30
0.0
  0
LWPOLYLINE
  5
134
100
AcDbEntity
  8
Layer_1
 62
7
100
AcDbPolyline
 90
9
 70
0
 10
17.000003
 20
75.000005
 30
0.0
 10
16.414216
 20
73.585792
 30
0.0
 10
15.000003
 20
73.000005
 30
0.0
 10
13.585789
 20
73.585792
 30
0.0
 10
13.000003
 20
75.000005
 30
0.0
 10
13.585789
 20
76.414218
 30
0.0
 10
15.000003
 20
77.000005
 30
0.0
 10
16.414216
 20
76.414218
 30
0.0
 10
17.000003
 20
75.000005
 30
0.0
  0
LWPOLYLINE
  5
135
100
AcDbEntity
  8
Layer_1
 62
7
100
AcDbPolyline
 90
9
 70
0
 10
7.000004
 20
65.000005
 30
0.0
 10
6.414217
 20
63.585792
 30
0.0
 10
5.000004
 20
63.000005
 30
0.0
 10
3.585790
 20
63.585792
 30
0.0
 10
3.000004
 20
65.000005
 30
0.0
 10
3.585790
 20
66.414218
 30
0.0
 10
5.000004
 20
67.000005
 30
0.0
 10
6.414217
 20
66.414218
 30
0.0
 10
7.000004
 20
65.000005
 30
0.0
  0
LWPOLYLINE
  5
136
100
AcDbEntity
  8
Layer_1
 62
7
100
AcDbPolyline
 90
9
 70
0
 10
7.000004
 20
75.000005
 30
0.0
 10
6.414217
 20
73.585792
 30
0.0
 10
5.000004
 20
73.000005
 30
0.0
 10
3.585790
 20
73.585792
 30
0.0
 10
3.000004
 20
75.000005
 30
0.0
 10
3.585790
 20
76.414218
 30
0.0
 10
5.000004
 20
77.000005
 30
0.0
 10
6.414217
 20
76.414218
 30
0.0
 10
7.000004
 20
75.000005
 30
0.0
  0
LWPOLYLINE
  5
137
100
AcDbEntity
  8
Layer_1
 62
7
100
AcDbPolyline
 90
9
 70
0
 10
37.000000
 20
65.000005
 30
0.0
 10
36.414213
 20
63.585792
 30
0.0
 10
35.000000
 20
63.000005
 30
0.0
 10
33.585786
 20
63.585792
 30
0.0
 10
32.999999
 20
65.000005
 30
0.0
 10
33.585786
 20
66.414218
 30
0.0
 10
35.000000
 20
67.000005
 30
0.0
 10
36.414213
 20
66.414218
 30
0.0
 10
37.000000
 20
65.000005
 30
0.0
  0
LWPOLYLINE
  5
138
100
AcDbEntity
  8
Layer_1
 62
7
100
AcDbPolyline
 90
9
 70
0
 10
37.000000
 20
75.000005
 30
0.0
 10
36.414213
 20
73.585792
 30
0.0
 10
35.000000
 20
73.000005
 30
0.0
 10
33.585786
 20
73.585792
 30
0.0
 10
32.999999
 20
75.000005
 30
0.0
 10
33.585786
 20
76.414218
 30
0.0
 10
35.000000
 20
77.000005
 30
0.0
 10
36.414213
 20
76.414218
 30
0.0
 10
37.000000
 20
75.000005
 30
0.0
  0
LWPOLYLINE
  5
139
100
AcDbEntity
  8
Layer_1
 62
7
100
AcDbPolyline
 90
9
 70
0
 10
27.000003
 20
65.000005
 30
0.0
 10
26.414216
 20
63.585792
 30
0.0
 10
25.000003
 20
63.000005
 30
0.0
 10
23.585789
 20
63.585792
 30
0.0
 10
23.000003
 20
65.000005
 30
0.0
 10
23.585789
 20
66.414218
 30
0.0
 10
25.000003
 20
67.000005
 30
0.0
 10
26.414216
 20
66.414218
 30
0.0
 10
27.000003
 20
65.000005
 30
0.0
  0
LWPOLYLINE
  5
13a
100
AcDbEntity
  8
Layer_1
 62
7
100
AcDbPolyline
 90
9
 70
0
 10
27.000003
 20
75.000005
 30
0.0
 10
26.414216
 20
73.585792
 30
0.0
 10
25.000003
 20
73.000005
 30
0.0
 10
23.585789
 20
73.585792
 30
0.0
 10
23.000003
 20
75.000005
 30
0.0
 10
23.585789
 20
76.414218
 30
0.0
 10
25.000003
 20
77.000005
 30
0.0
 10
26.414216
 20
76.414218
 30
0.0
 10
27.000003
 20
75.000005
 30
0.0
  0
LWPOLYLINE
  5
13b
100
AcDbEntity
  8
Layer_1
 62
7
100
AcDbPolyline
 90
9
 70
0
 10
56.999999
 20
65.000005
 30
0.0
 10
56.414213
 20
63.585792
 30
0.0
 10
54.999999
 20
63.000005
 30
0.0
 10
53.585785
 20
63.585792
 30
0.0
 10
52.999999
 20
65.000005
 30
0.0
 10
53.585785
 20
66.414218
 30
0.0
 10
54.999999
 20
67.000005
 30
0.0
 10
56.414213
 20
66.414218
 30
0.0
 10
56.999999
 20
65.000005
 30
0.0
  0
LWPOLYLINE
  5
13c
100
AcDbEntity
  8
Layer_1
 62
7
100
AcDbPolyline
 90
9
 70
0
 10
56.999999
 20
75.000005
 30
0.0
 10
56.414213
 20
73.585792
 30
0.0
 10
54.999999
 20
73.000005
 30
0.0
 10
53.585785
 20
73.585792
 30
0.0
 10
52.999999
 20
75.000005
 30
0.0
 10
53.585785
 20
76.414218
 30
0.0
 10
54.999999
 20
77.000005
 30
0.0
 10
56.414213
 20
76.414218
 30
0.0
 10
56.999999
 20
75.000005
 30
0.0
  0
LWPOLYLINE
  5
13d
100
AcDbEntity
  8
Layer_1
 62
7
100
AcDbPolyline
 90
9
 70
0
 10
46.999999
 20
65.000005
 30
0.0
 10
46.414213
 20
63.585792
 30
0.0
 10
44.999999
 20
63.000005
 30
0.0
 10
43.585786
 20
63.585792
 30
0.0
 10
42.999999
 20
65.000005
 30
0.0
 10
43.585786
 20
66.414218
 30
0.0
 10
44.999999
 20
67.000005
 30
0.0
 10
46.414213
 20
66.414218
 30
0.0
 10
46.999999
 20
65.000005
 30
0.0
  0
LWPOLYLINE
  5
13e
100
AcDbEntity
  8
Layer_1
 62
7
100
AcDbPolyline
 90
9
 70
0
 10
46.999999
 20
75.000005
 30
0.0
 10
46.414213
 20
73.585792
 30
0.0
 10
44.999999
 20
73.000005
 30
0.0
 10
43.585786
 20
73.585792
 30
0.0
 10
42.999999
 20
75.000005
 30
0.0
 10
43.585786
 20
76.414218
 30
0.0
 10
44.999999
 20
77.000005
 30
0.0
 10
46.414213
 20
76.414218
 30
0.0
 10
46.999999
 20
75.000005
 30
0.0
  0
LWPOLYLINE
  5
13f
100
AcDbEntity
  8
Layer_1
 62
7
100
AcDbPolyline
 90
9
 70
0
 10
76.999999
 20
65.000005
 30
0.0
 10
76.414212
 20
63.585792
 30
0.0
 10
74.999999
 20
63.000005
 30
0.0
 10
73.585785
 20
63.585792
 30
0.0
 10
72.999999
 20
65.000005
 30
0.0
 10
73.585785
 20
66.414218
 30
0.0
 10
74.999999
 20
67.000005
 30
0.0
 10
76.414212
 20
66.414218
 30
0.0
 10
76.999999
 20
65.000005
 30
0.0
  0
LWPOLYLINE
  5
140
100
AcDbEntity
  8
Layer_1
 62
7
100
AcDbPolyline
 90
9
 70
0
 10
76.999999
 20
75.000005
 30
0.0
 10
76.414212
 20
73.585792
 30
0.0
 10
74.999999
 20
73.000005
 30
0.0
 10
73.585785
 20
73.585792
 30
0.0
 10
72.999999
 20
75.000005
 30
0.0
 10
73.585785
 20
76.414218
 30
0.0
 10
74.999999
 20
77.000005
 30
0.0
 10
76.414212
 20
76.414218
 30
0.0
 10
76.999999
 20
75.000005
 30
0.0
  0
LWPOLYLINE
  5
141
100
AcDbEntity
  8
Layer_1
 62
7
100
AcDbPolyline
 90
9
 70
0
 10
66.999999
 20
65.000005
 30
0.0
 10
66.414212
 20
63.585792
 30
0.0
 10
64.999999
 20
63.000005
 30
0.0
 10
63.585785
 20
63.585792
 30
0.0
 10
62.999999
 20
65.000005
 30
0.0
 10
63.585785
 20
66.414218
 30
0.0
 10
64.999999
 20
67.000005
 30
0.0
 10
66.414212
 20
66.414218
 30
0.0
 10
66.999999
 20
65.000005
 30
0.0
  0
LWPOLYLINE
  5
142
100
AcDbEntity
  8
Layer_1
 62
7
100
AcDbPolyline
 90
9
 70
0
 10
66.999999
 20
75.000005
 30
0.0
 10
66.414212
 20
73.585792
 30
0.0
 10
64.999999
 20
73.000005
 30
0.0
 10
63.585785
 20
73.585792
 30
0.0
 10
62.999999
 20
75.000005
 30
0.0
 10
63.585785
 20
76.414218
 30
0.0
 10
64.999999
 20
77.000005
 30
0.0
 10
66.414212
 20
76.414218
 30
0.0
 10
66.999999
 20
75.000005
 30
0.0
  0
LWPOLYLINE
  5
143
100
AcDbEntity
  8
Layer_1
 62
7
100
AcDbPolyline
 90
9
 70
0
 10
97.000001
 20
65.000005
 30
0.0
 10
96.414214
 20
63.585792
 30
0.0
 10
95.000001
 20
63.000005
 30
0.0
 10
93.585787
 20
63.585792
 30
0.0
 10
93.000001
 20
65.000005
 30
0.0
 10
93.585787
 20
66.414218
 30
0.0
 10
95.000001
 20
67.000005
 30
0.0
 10
96.414214
 20
66.414218
 30
0.0
 10
97.000001
 20
65.000005
 30
0.0
  0
LWPOLYLINE
  5
144
100
AcDbEntity
  8
Layer_1
 62
7
100
AcDbPolyline
 90
9
 70
0
 10
97.000001
 20
75.000005
 30
0.0
 10
96.414214
 20
73.585792
 30
0.0
 10
95.000001
 20
73.000005
 30
0.0
 10
93.585787
 20
73.585792
 30
0.0
 10
93.000001
 20
75.000005
 30
0.0
 10
93.585787
 20
76.414218
 30
0.0
 10
95.000001
 20
77.000005
 30
0.0
 10
96.414214
 20
76.414218
 30
0.0
 10
97.000001
 20
75.000005
 30
0.0
  0
LWPOLYLINE
  5
145
100
AcDbEntity
  8
Layer_1
 62
7
100
AcDbPolyline
 90
9
 70
0
 10
87.000001
 20
65.000005
 30
0.0
 10
86.414215
 20
63.585792
 30
0.0
 10
85.000001
 20
63.000005
 30
0.0
 10
83.585788
 20
63.585792
 30
0.0
 10
83.000001
 20
65.000005
 30
0.0
 10
83.585788
 20
66.414218
 30
0.0
 10
85.000001
 20
67.000005
 30
0.0
 10
86.414215
 20
66.414218
 30
0.0
 10
87.000001
 20
65.000005
 30
0.0
  0
LWPOLYLINE
  5
146
100
AcDbEntity
  8
Layer_1
 62
7
100
AcDbPolyline
 90
9
 70
0
 10
87.000001
 20
75.000005
 30
0.0
 10
86.414215
 20
73.585792
 30
0.0
 10
85.000001
 20
73.000005
 30
0.0
 10
83.585788
 20
73.585792
 30
0.0
 10
83.000001
 20
75.000005
 30
0.0
 10
83.585788
 20
76.414218
 30
0.0
 10
85.000001
 20
77.000005
 30
0.0
 10
86.414215
 20
76.414218
 30
0.0
 10
87.000001
 20
75.000005
 30
0.0
  0
LWPOLYLINE
  5
147
100
AcDbEntity
  8
Layer_1
 62
7
100
AcDbPolyline
 90
9
 70
0
 10
107.000001
 20
65.000005
 30
0.0
 10
106.414214
 20
63.585792
 30
0.0
 10
105.000001
 20
63.000005
 30
0.0
 10
103.585787
 20
63.585792
 30
0.0
 10
103.000001
 20
65.000005
 30
0.0
 10
103.585787
 20
66.414218
 30
0.0
 10
105.000001
 20
67.000005
 30
0.0
 10
106.414214
 20
66.414218
 30
0.0
 10
107.000001
 20
65.000005
 30
0.0
  0
LWPOLYLINE
  5
148
100
AcDbEntity
  8
Layer_1
 62
7
100
AcDbPolyline
 90
9
 70
0
 10
107.000001
 20
75.000005
 30
0.0
 10
106.414214
 20
73.585792
 30
0.0
 10
105.000001
 20
73.000005
 30
0.0
 10
103.585787
 20
73.585792
 30
0.0
 10
103.000001
 20
75.000005
 30
0.0
 10
103.585787
 20
76.414218
 30
0.0
 10
105.000001
 20
77.000005
 30
0.0
 10
106.414214
 20
76.414218
 30
0.0
 10
107.000001
 20
75.000005
 30
0.0
  0
LWPOLYLINE
  5
149
100
AcDbEntity
  8
Layer_1
 62
7
100
AcDbPolyline
 90
9
 70
0
 10
17.000003
 20
105.000004
 30
0.0
 10
16.414217
 20
103.585791
 30
0.0
 10
15.000003
 20
103.000004
 30
0.0
 10
13.585790
 20
103.585791
 30
0.0
 10
13.000003
 20
105.000004
 30
0.0
 10
13.585790
 20
106.414217
 30
0.0
 10
15.000003
 20
107.000004
 30
0.0
 10
16.414217
 20
106.414217
 30
0.0
 10
17.000003
 20
105.000004
 30
0.0
  0
LWPOLYLINE
  5
14a
100
AcDbEntity
  8
Layer_1
 62
7
100
AcDbPolyline
 90
9
 70
0
 10
7.000004
 20
105.000004
 30
0.0
 10
6.414218
 20
103.585791
 30
0.0
 10
5.000004
 20
103.000004
 30
0.0
 10
3.585791
 20
103.585791
 30
0.0
 10
3.000004
 20
105.000004
 30
0.0
 10
3.585791
 20
106.414217
 30
0.0
 10
5.000004
 20
107.000004
 30
0.0
 10
6.414218
 20
106.414217
 30
0.0
 10
7.000004
 20
105.000004
 30
0.0
  0
LWPOLYLINE
  5
14b
100
AcDbEntity
  8
Layer_1
 62
7
100
AcDbPolyline
 90
9
 70
0
 10
37.000000
 20
105.000004
 30
0.0
 10
36.414213
 20
103.585791
 30
0.0
 10
35.000000
 20
103.000004
 30
0.0
 10
33.585786
 20
103.585791
 30
0.0
 10
32.999999
 20
105.000004
 30
0.0
 10
33.585786
 20
106.414217
 30
0.0
 10
35.000000
 20
107.000004
 30
0.0
 10
36.414213
 20
106.414217
 30
0.0
 10
37.000000
 20
105.000004
 30
0.0
  0
LWPOLYLINE
  5
14c
100
AcDbEntity
  8
Layer_1
 62
7
100
AcDbPolyline
 90
9
 70
0
 10
27.000003
 20
105.000004
 30
0.0
 10
26.414216
 20
103.585791
 30
0.0
 10
25.000003
 20
103.000004
 30
0.0
 10
23.585789
 20
103.585791
 30
0.0
 10
23.000003
 20
105.000004
 30
0.0
 10
23.585789
 20
106.414217
 30
0.0
 10
25.000003
 20
107.000004
 30
0.0
 10
26.414216
 20
106.414217
 30
0.0
 10
27.000003
 20
105.000004
 30
0.0
  0
LWPOLYLINE
  5
14d
100
AcDbEntity
  8
Layer_1
 62
7
100
AcDbPolyline
 90
9
 70
0
 10
56.999999
 20
105.000004
 30
0.0
 10
56.414213
 20
103.585791
 30
0.0
 10
54.999999
 20
103.000004
 30
0.0
 10
53.585785
 20
103.585791
 30
0.0
 10
52.999999
 20
105.000004
 30
0.0
 10
53.585785
 20
106.414217
 30
0.0
 10
54.999999
 20
107.000004
 30
0.0
 10
56.414213
 20
106.414217
 30
0.0
 10
56.999999
 20
105.000004
 30
0.0
  0
LWPOLYLINE
  5
14e
100
AcDbEntity
  8
Layer_1
 62
7
100
AcDbPolyline
 90
9
 70
0
 10
46.999999
 20
105.000004
 30
0.0
 10
46.414213
 20
103.585791
 30
0.0
 10
44.999999
 20
103.000004
 30
0.0
 10
43.585786
 20
103.585791
 30
0.0
 10
42.999999
 20
105.000004
 30
0.0
 10
43.585786
 20
106.414217
 30
0.0
 10
44.999999
 20
107.000004
 30
0.0
 10
46.414213
 20
106.414217
 30
0.0
 10
46.999999
 20
105.000004
 30
0.0
  0
LWPOLYLINE
  5
14f
100
AcDbEntity
  8
Layer_1
 62
7
100
AcDbPolyline
 90
9
 70
0
 10
76.999999
 20
105.000004
 30
0.0
 10
76.414212
 20
103.585791
 30
0.0
 10
74.999999
 20
103.000004
 30
0.0
 10
73.585785
 20
103.585791
 30
0.0
 10
72.999999
 20
105.000004
 30
0.0
 10
73.585785
 20
106.414217
 30
0.0
 10
74.999999
 20
107.000004
 30
0.0
 10
76.414212
 20
106.414217
 30
0.0
 10
76.999999
 20
105.000004
 30
0.0
  0
LWPOLYLINE
  5
150
100
AcDbEntity
  8
Layer_1
 62
7
100
AcDbPolyline
 90
9
 70
0
 10
66.999999
 20
105.000004
 30
0.0
 10
66.414212
 20
103.585791
 30
0.0
 10
64.999999
 20
103.000004
 30
0.0
 10
63.585785
 20
103.585791
 30
0.0
 10
62.999999
 20
105.000004
 30
0.0
 10
63.585785
 20
106.414217
 30
0.0
 10
64.999999
 20
107.000004
 30
0.0
 10
66.414212
 20
106.414217
 30
0.0
 10
66.999999
 20
105.000004
 30
0.0
  0
LWPOLYLINE
  5
151
100
AcDbEntity
  8
Layer_1
 62
7
100
AcDbPolyline
 90
9
 70
0
 10
97.000001
 20
105.000004
 30
0.0
 10
96.414214
 20
103.585791
 30
0.0
 10
95.000001
 20
103.000004
 30
0.0
 10
93.585787
 20
103.585791
 30
0.0
 10
93.000001
 20
105.000004
 30
0.0
 10
93.585787
 20
106.414217
 30
0.0
 10
95.000001
 20
107.000004
 30
0.0
 10
96.414214
 20
106.414217
 30
0.0
 10
97.000001
 20
105.000004
 30
0.0
  0
LWPOLYLINE
  5
152
100
AcDbEntity
  8
Layer_1
 62
7
100
AcDbPolyline
 90
9
 70
0
 10
87.000001
 20
105.000004
 30
0.0
 10
86.414215
 20
103.585791
 30
0.0
 10
85.000001
 20
103.000004
 30
0.0
 10
83.585788
 20
103.585791
 30
0.0
 10
83.000001
 20
105.000004
 30
0.0
 10
83.585788
 20
106.414217
 30
0.0
 10
85.000001
 20
107.000004
 30
0.0
 10
86.414215
 20
106.414217
 30
0.0
 10
87.000001
 20
105.000004
 30
0.0
  0
LWPOLYLINE
  5
153
100
AcDbEntity
  8
Layer_1
 62
7
100
AcDbPolyline
 90
9
 70
0
 10
107.000001
 20
105.000004
 30
0.0
 10
106.414214
 20
103.585791
 30
0.0
 10
105.000001
 20
103.000004
 30
0.0
 10
103.585787
 20
103.585791
 30
0.0
 10
103.000001
 20
105.000004
 30
0.0
 10
103.585787
 20
106.414217
 30
0.0
 10
105.000001
 20
107.000004
 30
0.0
 10
106.414214
 20
106.414217
 30
0.0
 10
107.000001
 20
105.000004
 30
0.0
  0
LWPOLYLINE
  5
154
100
AcDbEntity
  8
Layer_1
 62
7
100
AcDbPolyline
 90
9
 70
0
 10
17.000002
 20
5.000004
 30
0.0
 10
16.414215
 20
3.585791
 30
0.0
 10
15.000002
 20
3.000004
 30
0.0
 10
13.585788
 20
3.585791
 30
0.0
 10
13.000002
 20
5.000004
 30
0.0
 10
13.585788
 20
6.414217
 30
0.0
 10
15.000002
 20
7.000004
 30
0.0
 10
16.414215
 20
6.414217
 30
0.0
 10
17.000002
 20
5.000004
 30
0.0
  0
LWPOLYLINE
  5
155
100
AcDbEntity
  8
Layer_1
 62
7
100
AcDbPolyline
 90
9
 70
0
 10
7.000002
 20
5.000004
 30
0.0
 10
6.414216
 20
3.585791
 30
0.0
 10
5.000002
 20
3.000004
 30
0.0
 10
3.585788
 20
3.585791
 30
0.0
 10
3.000002
 20
5.000004
 30
0.0
 10
3.585788
 20
6.414217
 30
0.0
 10
5.000002
 20
7.000004
 30
0.0
 10
6.414216
 20
6.414217
 30
0.0
 10
7.000002
 20
5.000004
 30
0.0
  0
LWPOLYLINE
  5
156
100
AcDbEntity
  8
Layer_1
 62
7
100
AcDbPolyline
 90
9
 70
0
 10
37.000000
 20
5.000004
 30
0.0
 10
36.414213
 20
3.585791
 30
0.0
 10
35.000000
 20
3.000004
 30
0.0
 10
33.585786
 20
3.585791
 30
0.0
 10
32.999999
 20
5.000004
 30
0.0
 10
33.585786
 20
6.414217
 30
0.0
 10
35.000000
 20
7.000004
 30
0.0
 10
36.414213
 20
6.414217
 30
0.0
 10
37.000000
 20
5.000004
 30
0.0
  0
LWPOLYLINE
  5
157
100
AcDbEntity
  8
Layer_1
 62
7
100
AcDbPolyline
 90
9
 70
0
 10
37.000000
 20
15.000004
 30
0.0
 10
36.414213
 20
13.585790
 30
0.0
 10
35.000000
 20
13.000004
 30
0.0
 10
33.585786
 20
13.585790
 30
0.0
 10
32.999999
 20
15.000004
 30
0.0
 10
33.585786
 20
16.414217
 30
0.0
 10
35.000000
 20
17.000003
 30
0.0
 10
36.414213
 20
16.414217
 30
0.0
 10
37.000000
 20
15.000004
 30
0.0
  0
LWPOLYLINE
  5
158
100
AcDbEntity
  8
Layer_1
 62
7
100
AcDbPolyline
 90
9
 70
0
 10
27.000002
 20
5.000004
 30
0.0
 10
26.414216
 20
3.585791
 30
0.0
 10
25.000002
 20
3.000004
 30
0.0
 10
23.585788
 20
3.585791
 30
0.0
 10
23.000002
 20
5.000004
 30
0.0
 10
23.585788
 20
6.414217
 30
0.0
 10
25.000002
 20
7.000004
 30
0.0
 10
26.414216
 20
6.414217
 30
0.0
 10
27.000002
 20
5.000004
 30
0.0
  0
LWPOLYLINE
  5
159
100
AcDbEntity
  8
Layer_1
 62
7
100
AcDbPolyline
 90
9
 70
0
 10
27.000002
 20
15.000004
 30
0.0
 10
26.414216
 20
13.585790
 30
0.0
 10
25.000002
 20
13.000004
 30
0.0
 10
23.585788
 20
13.585790
 30
0.0
 10
23.000002
 20
15.000004
 30
0.0
 10
23.585788
 20
16.414217
 30
0.0
 10
25.000002
 20
17.000003
 30
0.0
 10
26.414216
 20
16.414217
 30
0.0
 10
27.000002
 20
15.000004
 30
0.0
  0
LWPOLYLINE
  5
15a
100
AcDbEntity
  8
Layer_1
 62
7
100
AcDbPolyline
 90
9
 70
0
 10
56.999999
 20
5.000004
 30
0.0
 10
56.414213
 20
3.585791
 30
0.0
 10
54.999999
 20
3.000004
 30
0.0
 10
53.585785
 20
3.585791
 30
0.0
 10
52.999999
 20
5.000004
 30
0.0
 10
53.585785
 20
6.414217
 30
0.0
 10
54.999999
 20
7.000004
 30
0.0
 10
56.414213
 20
6.414217
 30
0.0
 10
56.999999
 20
5.000004
 30
0.0
  0
LWPOLYLINE
  5
15b
100
AcDbEntity
  8
Layer_1
 62
7
100
AcDbPolyline
 90
9
 70
0
 10
56.999999
 20
15.000004
 30
0.0
 10
56.414213
 20
13.585790
 30
0.0
 10
54.999999
 20
13.000004
 30
0.0
 10
53.585785
 20
13.585790
 30
0.0
 10
52.999999
 20
15.000004
 30
0.0
 10
53.585785
 20
16.414217
 30
0.0
 10
54.999999
 20
17.000003
 30
0.0
 10
56.414213
 20
16.414217
 30
0.0
 10
56.999999
 20
15.000004
 30
0.0
  0
LWPOLYLINE
  5
15c
100
AcDbEntity
  8
Layer_1
 62
7
100
AcDbPolyline
 90
9
 70
0
 10
46.999999
 20
5.000004
 30
0.0
 10
46.414213
 20
3.585791
 30
0.0
 10
44.999999
 20
3.000004
 30
0.0
 10
43.585786
 20
3.585791
 30
0.0
 10
42.999999
 20
5.000004
 30
0.0
 10
43.585786
 20
6.414217
 30
0.0
 10
44.999999
 20
7.000004
 30
0.0
 10
46.414213
 20
6.414217
 30
0.0
 10
46.999999
 20
5.000004
 30
0.0
  0
LWPOLYLINE
  5
15d
100
AcDbEntity
  8
Layer_1
 62
7
100
AcDbPolyline
 90
9
 70
0
 10
46.999999
 20
15.000004
 30
0.0
 10
46.414213
 20
13.585790
 30
0.0
 10
44.999999
 20
13.000004
 30
0.0
 10
43.585786
 20
13.585790
 30
0.0
 10
42.999999
 20
15.000004
 30
0.0
 10
43.585786
 20
16.414217
 30
0.0
 10
44.999999
 20
17.000003
 30
0.0
 10
46.414213
 20
16.414217
 30
0.0
 10
46.999999
 20
15.000004
 30
0.0
  0
LWPOLYLINE
  5
15e
100
AcDbEntity
  8
Layer_1
 62
7
100
AcDbPolyline
 90
9
 70
0
 10
76.999999
 20
5.000004
 30
0.0
 10
76.414212
 20
3.585791
 30
0.0
 10
74.999999
 20
3.000004
 30
0.0
 10
73.585785
 20
3.585791
 30
0.0
 10
72.999999
 20
5.000004
 30
0.0
 10
73.585785
 20
6.414217
 30
0.0
 10
74.999999
 20
7.000004
 30
0.0
 10
76.414212
 20
6.414217
 30
0.0
 10
76.999999
 20
5.000004
 30
0.0
  0
LWPOLYLINE
  5
15f
100
AcDbEntity
  8
Layer_1
 62
7
100
AcDbPolyline
 90
9
 70
0
 10
76.999999
 20
15.000004
 30
0.0
 10
76.414212
 20
13.585790
 30
0.0
 10
74.999999
 20
13.000004
 30
0.0
 10
73.585785
 20
13.585790
 30
0.0
 10
72.999999
 20
15.000004
 30
0.0
 10
73.585785
 20
16.414217
 30
0.0
 10
74.999999
 20
17.000003
 30
0.0
 10
76.414212
 20
16.414217
 30
0.0
 10
76.999999
 20
15.000004
 30
0.0
  0
LWPOLYLINE
  5
160
100
AcDbEntity
  8
Layer_1
 62
7
100
AcDbPolyline
 90
9
 70
0
 10
66.999999
 20
5.000004
 30
0.0
 10
66.414212
 20
3.585791
 30
0.0
 10
64.999999
 20
3.000004
 30
0.0
 10
63.585785
 20
3.585791
 30
0.0
 10
62.999999
 20
5.000004
 30
0.0
 10
63.585785
 20
6.414217
 30
0.0
 10
64.999999
 20
7.000004
 30
0.0
 10
66.414212
 20
6.414217
 30
0.0
 10
66.999999
 20
5.000004
 30
0.0
  0
LWPOLYLINE
  5
161
100
AcDbEntity
  8
Layer_1
 62
7
100
AcDbPolyline
 90
9
 70
0
 10
66.999999
 20
15.000004
 30
0.0
 10
66.414212
 20
13.585790
 30
0.0
 10
64.999999
 20
13.000004
 30
0.0
 10
63.585785
 20
13.585790
 30
0.0
 10
62.999999
 20
15.000004
 30
0.0
 10
63.585785
 20
16.414217
 30
0.0
 10
64.999999
 20
17.000003
 30
0.0
 10
66.414212
 20
16.414217
 30
0.0
 10
66.999999
 20
15.000004
 30
0.0
  0
LWPOLYLINE
  5
162
100
AcDbEntity
  8
Layer_1
 62
7
100
AcDbPolyline
 90
9
 70
0
 10
97.000001
 20
5.000004
 30
0.0
 10
96.414214
 20
3.585791
 30
0.0
 10
95.000001
 20
3.000004
 30
0.0
 10
93.585787
 20
3.585791
 30
0.0
 10
93.000001
 20
5.000004
 30
0.0
 10
93.585787
 20
6.414217
 30
0.0
 10
95.000001
 20
7.000004
 30
0.0
 10
96.414214
 20
6.414217
 30
0.0
 10
97.000001
 20
5.000004
 30
0.0
  0
LWPOLYLINE
  5
163
100
AcDbEntity
  8
Layer_1
 62
7
100
AcDbPolyline
 90
9
 70
0
 10
87.000001
 20
5.000004
 30
0.0
 10
86.414215
 20
3.585791
 30
0.0
 10
85.000001
 20
3.000004
 30
0.0
 10
83.585788
 20
3.585791
 30
0.0
 10
83.000001
 20
5.000004
 30
0.0
 10
83.585788
 20
6.414217
 30
0.0
 10
85.000001
 20
7.000004
 30
0.0
 10
86.414215
 20
6.414217
 30
0.0
 10
87.000001
 20
5.000004
 30
0.0
  0
LWPOLYLINE
  5
164
100
AcDbEntity
  8
Layer_1
 62
7
100
AcDbPolyline
 90
9
 70
0
 10
87.000001
 20
15.000004
 30
0.0
 10
86.414215
 20
13.585790
 30
0.0
 10
85.000001
 20
13.000004
 30
0.0
 10
83.585788
 20
13.585790
 30
0.0
 10
83.000001
 20
15.000004
 30
0.0
 10
83.585788
 20
16.414217
 30
0.0
 10
85.000001
 20
17.000003
 30
0.0
 10
86.414215
 20
16.414217
 30
0.0
 10
87.000001
 20
15.000004
 30
0.0
  0
LWPOLYLINE
  5
165
100
AcDbEntity
  8
Layer_1
 62
7
100
AcDbPolyline
 90
9
 70
0
 10
107.000001
 20
5.000004
 30
0.0
 10
106.414214
 20
3.585791
 30
0.0
 10
105.000001
 20
3.000004
 30
0.0
 10
103.585787
 20
3.585791
 30
0.0
 10
103.000001
 20
5.000004
 30
0.0
 10
103.585787
 20
6.414217
 30
0.0
 10
105.000001
 20
7.000004
 30
0.0
 10
106.414214
 20
6.414217
 30
0.0
 10
107.000001
 20
5.000004
 30
0.0
  0
LWPOLYLINE
  5
166
100
AcDbEntity
  8
Layer_1
 62
1
100
AcDbPolyline
 90
9
 70
0
 10
14.000000
 20
92.500001
 30
0.0
 10
13.560660
 20
91.439343
 30
0.0
 10
12.500000
 20
91.000004
 30
0.0
 10
11.439340
 20
91.439343
 30
0.0
 10
11.000000
 20
92.500001
 30
0.0
 10
11.439340
 20
93.560662
 30
0.0
 10
12.500000
 20
94.000002
 30
0.0
 10
13.560660
 20
93.560662
 30
0.0
 10
14.000000
 20
92.500001
 30
0.0
  0
LWPOLYLINE
  5
167
100
AcDbEntity
  8
Layer_1
 62
1
100
AcDbPolyline
 90
9
 70
0
 10
14.000000
 20
64.500004
 30
0.0
 10
13.560660
 20
63.439346
 30
0.0
 10
12.500000
 20
63.000007
 30
0.0
 10
11.439340
 20
63.439346
 30
0.0
 10
11.000000
 20
64.500004
 30
0.0
 10
11.439340
 20
65.560665
 30
0.0
 10
12.500000
 20
66.000005
 30
0.0
 10
13.560660
 20
65.560665
 30
0.0
 10
14.000000
 20
64.500004
 30
0.0
  0
LWPOLYLINE
  5
168
100
AcDbEntity
  8
Layer_1
 62
1
100
AcDbPolyline
 90
9
 70
0
 10
64.999999
 20
98.000001
 30
0.0
 10
64.560660
 20
96.939343
 30
0.0
 10
63.499999
 20
96.500004
 30
0.0
 10
62.439339
 20
96.939343
 30
0.0
 10
61.999999
 20
98.000001
 30
0.0
 10
62.439339
 20
99.060663
 30
0.0
 10
63.499999
 20
99.500002
 30
0.0
 10
64.560660
 20
99.060663
 30
0.0
 10
64.999999
 20
98.000001
 30
0.0
  0
LWPOLYLINE
  5
169
100
AcDbEntity
  8
Layer_1
 62
1
100
AcDbPolyline
 90
9
 70
0
 10
64.999999
 20
49.000003
 30
0.0
 10
64.560660
 20
47.939346
 30
0.0
 10
63.499999
 20
47.500006
 30
0.0
 10
62.439339
 20
47.939346
 30
0.0
 10
61.999999
 20
49.000003
 30
0.0
 10
62.439339
 20
50.060665
 30
0.0
 10
63.499999
 20
50.500005
 30
0.0
 10
64.560660
 20
50.060665
 30
0.0
 10
64.999999
 20
49.000003
 30
0.0
  0
ENDSEC
  0
SECTION
  2
OBJECTS
  0
DICTIONARY
  5
C
330
0
100
AcDbDictionary
  3
ACAD_GROUP
350
D
  3
ACAD_MLINESTYLE
350
17
  0
DICTIONARY
  5
D
330
C
100
AcDbDictionary
  0
DICTIONARY
  5
1A
330
C
100
AcDbDictionary
  0
DICTIONARY
  5
17
330
C
100
AcDbDictionary
  3
STANDARD
350
18
  0
DICTIONARY
  5
19
330
C
100
AcDbDictionary
  0
ENDSEC
  0
EOF
