<?xml version="1.0" encoding="UTF-8" standalone="no"?>
<!-- Created with Inkscape (http://www.inkscape.org/) -->

<svg
   xmlns:dc="http://purl.org/dc/elements/1.1/"
   xmlns:cc="http://creativecommons.org/ns#"
   xmlns:rdf="http://www.w3.org/1999/02/22-rdf-syntax-ns#"
   xmlns:svg="http://www.w3.org/2000/svg"
   xmlns="http://www.w3.org/2000/svg"
   xmlns:sodipodi="http://sodipodi.sourceforge.net/DTD/sodipodi-0.dtd"
   xmlns:inkscape="http://www.inkscape.org/namespaces/inkscape"
   width="744.09448"
   height="1052.3622"
   id="svg2"
   version="1.1"
   inkscape:version="0.48.4 r9939"
   sodipodi:docname="рама-под-ось.svg">
  <defs
     id="defs4" />
  <sodipodi:namedview
     id="base"
     pagecolor="#ffffff"
     bordercolor="#666666"
     borderopacity="1.0"
     inkscape:pageopacity="0.0"
     inkscape:pageshadow="2"
     inkscape:zoom="1.12"
     inkscape:cx="351.1172"
     inkscape:cy="-6.6947413"
     inkscape:document-units="mm"
     inkscape:current-layer="layer1"
     showgrid="true"
     inkscape:window-width="1366"
     inkscape:window-height="705"
     inkscape:window-x="-8"
     inkscape:window-y="-8"
     inkscape:window-maximized="1"
     units="mm"
     showguides="true"
     inkscape:guide-bbox="true"
     inkscape:snap-bbox="true">
    <sodipodi:guide
       orientation="1,0"
       position="0,283.46457"
       id="guide2990" />
    <sodipodi:guide
       orientation="1,0"
       position="389.76378,235.62992"
       id="guide2992" />
    <sodipodi:guide
       orientation="0,1"
       position="386.22047,70.866142"
       id="guide2996" />
    <sodipodi:guide
       orientation="0,1"
       position="-53.149606,0"
       id="guide3044" />
    <inkscape:grid
       type="xygrid"
       id="grid3046"
       empspacing="5"
       visible="true"
       enabled="true"
       snapvisiblegridlinesonly="true"
       units="mm"
       spacingx="0.5mm"
       spacingy="0.5mm"
       color="#ec00ae"
       opacity="0.1254902"
       empcolor="#ef000d"
       empopacity="0.25098039" />
    <sodipodi:guide
       orientation="1,0"
       position="194.88189,99.212598"
       id="guide7652" />
    <sodipodi:guide
       orientation="0,1"
       position="63.779528,30.11811"
       id="guide3886" />
    <sodipodi:guide
       orientation="0,1"
       position="65.551181,40.748031"
       id="guide3888" />
  </sodipodi:namedview>
  <metadata
     id="metadata7">
    <rdf:RDF>
      <cc:Work
         rdf:about="">
        <dc:format>image/svg+xml</dc:format>
        <dc:type
           rdf:resource="http://purl.org/dc/dcmitype/StillImage" />
        <dc:title></dc:title>
      </cc:Work>
    </rdf:RDF>
  </metadata>
  <g
     inkscape:label="Layer 1"
     inkscape:groupmode="layer"
     id="layer1"
     transform="translate(0,-2.5390623e-6)">
    <path
       style="fill:#ffe680;fill-opacity:1;stroke:none"
       d="m 389.76378,1011.6142 0,-6.2008 0,-6.20083 -5.17766,-12.53885 -12.53888,-5.17768 -177.16537,-3e-5 -177.165377,-2e-5 L 5.1776425,986.67367 4.0944882e-6,999.21252 2.0472441e-6,1005.4134 0,1011.6142 l 194.88189,0 z"
       id="path5005"
       inkscape:connector-curvature="0"
       sodipodi:nodetypes="ccccccccccccc" />
    <path
       style="fill:#ffe680;fill-opacity:1;stroke:none"
       d="m -4.7244089e-7,1022.2441 2.3622044e-7,6.2008 L 0,1034.6456 l 5.1776385,12.5389 12.5388505,5.1777 177.165371,0 177.16538,0 12.53888,-5.1777 5.17766,-12.5389 0,-6.2007 0,-6.2008 -194.88189,0 z"
       id="rect2987"
       inkscape:connector-curvature="0"
       sodipodi:nodetypes="ccccccccccccc" />
    <path
       transform="matrix(0.5330837,0,0,0.46937589,42.76078,729.78343)"
       style="fill:#0044aa;fill-opacity:1;stroke:none"
       d="m 32.781814,574.01575 -3.893613,10.67586 -9.400011,4.42209 -9.400012,-4.42209 -3.8936122,-10.67586 3.8936122,-10.67586 9.400012,-4.42209 9.400011,4.42209 z"
       id="path3790-61-1"
       inkscape:connector-curvature="0"
       sodipodi:nodetypes="ccccccccc" />
    <path
       transform="matrix(0.5330837,0,0,0.46937589,7.3277087,729.78343)"
       style="fill:#0044aa;fill-opacity:1;stroke:none"
       d="m 32.781814,574.01575 -3.893613,10.67586 -9.400011,4.42209 -9.400012,-4.42209 -3.8936122,-10.67586 3.8936122,-10.67586 9.400012,-4.42209 9.400011,4.42209 z"
       id="path3790-61-3-2"
       inkscape:connector-curvature="0"
       sodipodi:nodetypes="ccccccccc" />
    <path
       transform="matrix(0.5330837,0,0,0.46937589,113.62691,729.78343)"
       style="fill:#0044aa;fill-opacity:1;stroke:none"
       d="m 32.781814,574.01575 -3.893613,10.67586 -9.400011,4.42209 -9.400012,-4.42209 -3.8936122,-10.67586 3.8936122,-10.67586 9.400012,-4.42209 9.400011,4.42209 z"
       id="path3790-61-1-9"
       inkscape:connector-curvature="0"
       sodipodi:nodetypes="ccccccccc" />
    <path
       transform="matrix(0.5330837,0,0,0.46937589,78.193851,729.78343)"
       style="fill:#0044aa;fill-opacity:1;stroke:none"
       d="m 32.781814,574.01575 -3.893613,10.67586 -9.400011,4.42209 -9.400012,-4.42209 -3.8936122,-10.67586 3.8936122,-10.67586 9.400012,-4.42209 9.400011,4.42209 z"
       id="path3790-61-3-2-8"
       inkscape:connector-curvature="0"
       sodipodi:nodetypes="ccccccccc" />
    <path
       transform="matrix(0.5330837,0,0,0.46937589,184.49305,729.78343)"
       style="fill:#0044aa;fill-opacity:1;stroke:none"
       d="m 32.781814,574.01575 -3.893613,10.67586 -9.400011,4.42209 -9.400012,-4.42209 -3.8936122,-10.67586 3.8936122,-10.67586 9.400012,-4.42209 9.400011,4.42209 z"
       id="path3790-61-1-8"
       inkscape:connector-curvature="0"
       sodipodi:nodetypes="ccccccccc" />
    <path
       transform="matrix(0.5330837,0,0,0.46937589,149.05998,729.78343)"
       style="fill:#0044aa;fill-opacity:1;stroke:none"
       d="m 32.781814,574.01575 -3.893613,10.67586 -9.400011,4.42209 -9.400012,-4.42209 -3.8936122,-10.67586 3.8936122,-10.67586 9.400012,-4.42209 9.400011,4.42209 z"
       id="path3790-61-3-2-6"
       inkscape:connector-curvature="0"
       sodipodi:nodetypes="ccccccccc" />
    <path
       transform="matrix(0.5330837,0,0,0.46937589,255.35919,729.78343)"
       style="fill:#0044aa;fill-opacity:1;stroke:none"
       d="m 32.781814,574.01575 -3.893613,10.67586 -9.400011,4.42209 -9.400012,-4.42209 -3.8936122,-10.67586 3.8936122,-10.67586 9.400012,-4.42209 9.400011,4.42209 z"
       id="path3790-61-1-9-0"
       inkscape:connector-curvature="0"
       sodipodi:nodetypes="ccccccccc" />
    <path
       transform="matrix(0.5330837,0,0,0.46937589,219.92612,729.78343)"
       style="fill:#0044aa;fill-opacity:1;stroke:none"
       d="m 32.781814,574.01575 -3.893613,10.67586 -9.400011,4.42209 -9.400012,-4.42209 -3.8936122,-10.67586 3.8936122,-10.67586 9.400012,-4.42209 9.400011,4.42209 z"
       id="path3790-61-3-2-8-8"
       inkscape:connector-curvature="0"
       sodipodi:nodetypes="ccccccccc" />
    <path
       transform="matrix(0.5330837,0,0,0.46937589,326.22534,729.78343)"
       style="fill:#0044aa;fill-opacity:1;stroke:none"
       d="m 32.781814,574.01575 -3.893613,10.67586 -9.400011,4.42209 -9.400012,-4.42209 -3.8936122,-10.67586 3.8936122,-10.67586 9.400012,-4.42209 9.400011,4.42209 z"
       id="path3790-61-1-1"
       inkscape:connector-curvature="0"
       sodipodi:nodetypes="ccccccccc" />
    <path
       transform="matrix(0.5330837,0,0,0.46937589,290.79227,729.78343)"
       style="fill:#0044aa;fill-opacity:1;stroke:none"
       d="m 32.781814,574.01575 -3.893613,10.67586 -9.400011,4.42209 -9.400012,-4.42209 -3.8936122,-10.67586 3.8936122,-10.67586 9.400012,-4.42209 9.400011,4.42209 z"
       id="path3790-61-3-2-0"
       inkscape:connector-curvature="0"
       sodipodi:nodetypes="ccccccccc" />
    <path
       transform="matrix(0.5330837,0,0,0.46937589,361.65841,729.78343)"
       style="fill:#0044aa;fill-opacity:1;stroke:none"
       d="m 32.781814,574.01575 -3.893613,10.67586 -9.400011,4.42209 -9.400012,-4.42209 -3.8936122,-10.67586 3.8936122,-10.67586 9.400012,-4.42209 9.400011,4.42209 z"
       id="path3790-61-3-2-8-83"
       inkscape:connector-curvature="0"
       sodipodi:nodetypes="ccccccccc" />
    <path
       transform="matrix(0.5330837,0,0,0.46937589,42.760777,765.2165)"
       style="fill:#0044aa;fill-opacity:1;stroke:none"
       d="m 32.781814,574.01575 -3.893613,10.67586 -9.400011,4.42209 -9.400012,-4.42209 -3.8936122,-10.67586 3.8936122,-10.67586 9.400012,-4.42209 9.400011,4.42209 z"
       id="path3790-5-1-7"
       inkscape:connector-curvature="0"
       sodipodi:nodetypes="ccccccccc" />
    <path
       transform="matrix(0.5330837,0,0,0.46937589,7.3277063,765.2165)"
       style="fill:#0044aa;fill-opacity:1;stroke:none"
       d="m 32.781814,574.01575 -3.893613,10.67586 -9.400011,4.42209 -9.400012,-4.42209 -3.8936122,-10.67586 3.8936122,-10.67586 9.400012,-4.42209 9.400011,4.42209 z"
       id="path3790-5-4-5-22"
       inkscape:connector-curvature="0"
       sodipodi:nodetypes="ccccccccc" />
    <path
       transform="matrix(0.5330837,0,0,0.46937589,113.62691,765.2165)"
       style="fill:#0044aa;fill-opacity:1;stroke:none"
       d="m 32.781814,574.01575 -3.893613,10.67586 -9.400011,4.42209 -9.400012,-4.42209 -3.8936122,-10.67586 3.8936122,-10.67586 9.400012,-4.42209 9.400011,4.42209 z"
       id="path3790-5-1-5-4"
       inkscape:connector-curvature="0"
       sodipodi:nodetypes="ccccccccc" />
    <path
       transform="matrix(0.5330837,0,0,0.46937589,78.193848,765.2165)"
       style="fill:#0044aa;fill-opacity:1;stroke:none"
       d="m 32.781814,574.01575 -3.893613,10.67586 -9.400011,4.42209 -9.400012,-4.42209 -3.8936122,-10.67586 3.8936122,-10.67586 9.400012,-4.42209 9.400011,4.42209 z"
       id="path3790-5-4-5-9-9"
       inkscape:connector-curvature="0"
       sodipodi:nodetypes="ccccccccc" />
    <path
       transform="matrix(0.5330837,0,0,0.46937589,184.49305,765.2165)"
       style="fill:#0044aa;fill-opacity:1;stroke:none"
       d="m 32.781814,574.01575 -3.893613,10.67586 -9.400011,4.42209 -9.400012,-4.42209 -3.8936122,-10.67586 3.8936122,-10.67586 9.400012,-4.42209 9.400011,4.42209 z"
       id="path3790-5-1-1-9"
       inkscape:connector-curvature="0"
       sodipodi:nodetypes="ccccccccc" />
    <path
       transform="matrix(0.5330837,0,0,0.46937589,149.05998,765.2165)"
       style="fill:#0044aa;fill-opacity:1;stroke:none"
       d="m 32.781814,574.01575 -3.893613,10.67586 -9.400011,4.42209 -9.400012,-4.42209 -3.8936122,-10.67586 3.8936122,-10.67586 9.400012,-4.42209 9.400011,4.42209 z"
       id="path3790-5-4-5-2-2"
       inkscape:connector-curvature="0"
       sodipodi:nodetypes="ccccccccc" />
    <path
       transform="matrix(0.5330837,0,0,0.46937589,255.35919,765.2165)"
       style="fill:#0044aa;fill-opacity:1;stroke:none"
       d="m 32.781814,574.01575 -3.893613,10.67586 -9.400011,4.42209 -9.400012,-4.42209 -3.8936122,-10.67586 3.8936122,-10.67586 9.400012,-4.42209 9.400011,4.42209 z"
       id="path3790-5-1-5-6-5"
       inkscape:connector-curvature="0"
       sodipodi:nodetypes="ccccccccc" />
    <path
       transform="matrix(0.5330837,0,0,0.46937589,219.92612,765.2165)"
       style="fill:#0044aa;fill-opacity:1;stroke:none"
       d="m 32.781814,574.01575 -3.893613,10.67586 -9.400011,4.42209 -9.400012,-4.42209 -3.8936122,-10.67586 3.8936122,-10.67586 9.400012,-4.42209 9.400011,4.42209 z"
       id="path3790-5-4-5-9-3-9"
       inkscape:connector-curvature="0"
       sodipodi:nodetypes="ccccccccc" />
    <path
       transform="matrix(0.5330837,0,0,0.46937589,326.22534,765.2165)"
       style="fill:#0044aa;fill-opacity:1;stroke:none"
       d="m 32.781814,574.01575 -3.893613,10.67586 -9.400011,4.42209 -9.400012,-4.42209 -3.8936122,-10.67586 3.8936122,-10.67586 9.400012,-4.42209 9.400011,4.42209 z"
       id="path3790-5-1-0-2"
       inkscape:connector-curvature="0"
       sodipodi:nodetypes="ccccccccc" />
    <path
       transform="matrix(0.5330837,0,0,0.46937589,290.79227,765.2165)"
       style="fill:#0044aa;fill-opacity:1;stroke:none"
       d="m 32.781814,574.01575 -3.893613,10.67586 -9.400011,4.42209 -9.400012,-4.42209 -3.8936122,-10.67586 3.8936122,-10.67586 9.400012,-4.42209 9.400011,4.42209 z"
       id="path3790-5-4-5-25-0"
       inkscape:connector-curvature="0"
       sodipodi:nodetypes="ccccccccc" />
    <path
       transform="matrix(0.5330837,0,0,0.46937589,361.65841,765.2165)"
       style="fill:#0044aa;fill-opacity:1;stroke:none"
       d="m 32.781814,574.01575 -3.893613,10.67586 -9.400011,4.42209 -9.400012,-4.42209 -3.8936122,-10.67586 3.8936122,-10.67586 9.400012,-4.42209 9.400011,4.42209 z"
       id="path3790-5-4-5-9-7-3"
       inkscape:connector-curvature="0"
       sodipodi:nodetypes="ccccccccc" />
  </g>
</svg>
