<?xml version="1.0" encoding="UTF-8" standalone="no"?>
<!-- Created with Inkscape (http://www.inkscape.org/) -->

<svg
   xmlns:dc="http://purl.org/dc/elements/1.1/"
   xmlns:cc="http://creativecommons.org/ns#"
   xmlns:rdf="http://www.w3.org/1999/02/22-rdf-syntax-ns#"
   xmlns:svg="http://www.w3.org/2000/svg"
   xmlns="http://www.w3.org/2000/svg"
   xmlns:sodipodi="http://sodipodi.sourceforge.net/DTD/sodipodi-0.dtd"
   xmlns:inkscape="http://www.inkscape.org/namespaces/inkscape"
   width="744.09448"
   height="1052.3622"
   id="svg2"
   version="1.1"
   inkscape:version="0.48.4 r9939"
   sodipodi:docname="рама-моторы.svg">
  <defs
     id="defs4" />
  <sodipodi:namedview
     id="base"
     pagecolor="#ffffff"
     bordercolor="#666666"
     borderopacity="1.0"
     inkscape:pageopacity="0.0"
     inkscape:pageshadow="2"
     inkscape:zoom="6.3356768"
     inkscape:cx="61.765888"
     inkscape:cy="103.91693"
     inkscape:document-units="mm"
     inkscape:current-layer="layer1"
     showgrid="true"
     inkscape:window-width="1280"
     inkscape:window-height="969"
     inkscape:window-x="-2"
     inkscape:window-y="-3"
     inkscape:window-maximized="1"
     units="mm"
     showguides="true"
     inkscape:guide-bbox="true"
     inkscape:snap-bbox="true">
    <sodipodi:guide
       orientation="1,0"
       position="389.76378,235.62992"
       id="guide2992" />
    <sodipodi:guide
       orientation="0,1"
       position="-24.80315,389.76378"
       id="guide2994" />
    <sodipodi:guide
       orientation="0,1"
       position="-17.716535,70.866142"
       id="guide2996" />
    <sodipodi:guide
       orientation="0,1"
       position="-53.149606,0"
       id="guide3044" />
    <sodipodi:guide
       orientation="1,0"
       position="12.401575,60.23622"
       id="guide3818" />
    <sodipodi:guide
       orientation="0,1"
       position="23.031496,62.007874"
       id="guide3822" />
    <sodipodi:guide
       orientation="1,0"
       position="37.204724,127.55906"
       id="guide3824" />
    <sodipodi:guide
       orientation="0,1"
       position="-10.629921,141.73228"
       id="guide3828" />
    <sodipodi:guide
       orientation="0,1"
       position="14.173228,150.59055"
       id="guide3832" />
    <sodipodi:guide
       orientation="1,0"
       position="49.606299,129.33071"
       id="guide3834" />
    <sodipodi:guide
       orientation="1,0"
       position="377.3622,70.866142"
       id="guide3838" />
    <sodipodi:guide
       orientation="1,0"
       position="352.55906,54.92126"
       id="guide3840" />
    <sodipodi:guide
       orientation="1,0"
       position="340.15748,56.692913"
       id="guide3854" />
    <sodipodi:guide
       orientation="0,1"
       position="62.007874,35.433071"
       id="guide3856" />
    <sodipodi:guide
       orientation="0,1"
       position="81.496063,177.16535"
       id="guide3858" />
    <sodipodi:guide
       orientation="0,1"
       position="85.03937,106.29921"
       id="guide7060" />
    <sodipodi:guide
       orientation="1,0"
       position="194.88189,26.574803"
       id="guide7447" />
    <inkscape:grid
       type="xygrid"
       id="grid9090"
       empspacing="5"
       visible="true"
       enabled="true"
       snapvisiblegridlinesonly="true"
       units="mm"
       spacingx="0.5mm"
       spacingy="0.5mm"
       color="#ef00ff"
       opacity="0.1254902"
       empcolor="#f70008"
       empopacity="0.25098039" />
  </sodipodi:namedview>
  <metadata
     id="metadata7">
    <rdf:RDF>
      <cc:Work
         rdf:about="">
        <dc:format>image/svg+xml</dc:format>
        <dc:type
           rdf:resource="http://purl.org/dc/dcmitype/StillImage" />
        <dc:title />
      </cc:Work>
    </rdf:RDF>
  </metadata>
  <g
     inkscape:label="Layer 1"
     inkscape:groupmode="layer"
     id="layer1"
     transform="translate(0,-2.5390623e-6)">
    <path
       style="fill:#aa8800;fill-opacity:1;stroke:none"
       d="m 17.716489,1016.9292 354.330751,0 c 9.81495,0 17.71654,-7.9017 17.71654,-17.71662 l 0,-17.71654 -12.40158,0 0,8.85827 -24.80314,0 0,-8.85827 -12.40158,0 0,-70.86614 12.40158,0 0,-8.85827 24.80314,0 0,8.85828 12.40158,-10e-6 c 0,-88.58269 0,70.86616 0,-17.71653 0,-9.8149 -7.90159,-17.71653 -17.71654,-17.71653 l -354.330751,-5e-5 C 7.9015394,875.19678 0,883.09842 0,892.91332 l 0,17.71658 12.401575,10e-6 0,-8.85827 24.803149,-1e-5 0,8.85828 12.401575,0 0,70.86605 -12.401575,8e-5 0,8.85827 -24.803149,0 0,-8.85827 L 1.5307087e-7,981.49606 0,999.21258 c -8.480177e-8,9.81502 7.9015394,17.71662 17.716489,17.71662 z"
       id="rect2987"
       inkscape:connector-curvature="0"
       sodipodi:nodetypes="ssscccccccccccccsscccccccccccccss" />
    <path
       sodipodi:type="arc"
       style="fill:#002255;fill-opacity:1;stroke:none"
       id="path3790-5-1-5"
       sodipodi:cx="19.48819"
       sodipodi:cy="574.01575"
       sodipodi:rx="13.293624"
       sodipodi:ry="15.097951"
       d="m 32.781814,574.01575 c 0,8.33837 -5.951759,15.09795 -13.293624,15.09795 -7.341866,0 -13.2936242,-6.75958 -13.2936242,-15.09795 0,-8.33837 5.9517582,-15.09795 13.2936242,-15.09795 7.341865,0 13.293624,6.75958 13.293624,15.09795 z"
       transform="matrix(0.5330837,0,0,0.46937589,113.62692,658.91729)" />
    <path
       sodipodi:type="arc"
       style="fill:#002255;fill-opacity:1;stroke:none"
       id="path3790-61-1-9"
       sodipodi:cx="19.48819"
       sodipodi:cy="574.01575"
       sodipodi:rx="13.293624"
       sodipodi:ry="15.097951"
       d="m 32.781814,574.01575 c 0,8.33837 -5.951759,15.09795 -13.293624,15.09795 -7.341866,0 -13.2936242,-6.75958 -13.2936242,-15.09795 0,-8.33837 5.9517582,-15.09795 13.2936242,-15.09795 7.341865,0 13.293624,6.75958 13.293624,15.09795 z"
       transform="matrix(0.5330837,0,0,0.46937589,113.62692,623.48422)" />
    <path
       sodipodi:type="arc"
       style="fill:#002255;fill-opacity:1;stroke:none"
       id="path3790-5-4-5-9"
       sodipodi:cx="19.48819"
       sodipodi:cy="574.01575"
       sodipodi:rx="13.293624"
       sodipodi:ry="15.097951"
       d="m 32.781814,574.01575 c 0,8.33837 -5.951759,15.09795 -13.293624,15.09795 -7.341866,0 -13.2936242,-6.75958 -13.2936242,-15.09795 0,-8.33837 5.9517582,-15.09795 13.2936242,-15.09795 7.341865,0 13.293624,6.75958 13.293624,15.09795 z"
       transform="matrix(0.5330837,0,0,0.46937589,78.193858,658.91729)" />
    <path
       sodipodi:type="arc"
       style="fill:#002255;fill-opacity:1;stroke:none"
       id="path3790-61-3-2-8"
       sodipodi:cx="19.48819"
       sodipodi:cy="574.01575"
       sodipodi:rx="13.293624"
       sodipodi:ry="15.097951"
       d="m 32.781814,574.01575 c 0,8.33837 -5.951759,15.09795 -13.293624,15.09795 -7.341866,0 -13.2936242,-6.75958 -13.2936242,-15.09795 0,-8.33837 5.9517582,-15.09795 13.2936242,-15.09795 7.341865,0 13.293624,6.75958 13.293624,15.09795 z"
       transform="matrix(0.5330837,0,0,0.46937589,78.193858,623.48422)" />
    <path
       sodipodi:type="arc"
       style="fill:#002255;fill-opacity:1;stroke:none"
       id="path3790-5-1-1"
       sodipodi:cx="19.48819"
       sodipodi:cy="574.01575"
       sodipodi:rx="13.293624"
       sodipodi:ry="15.097951"
       d="m 32.781814,574.01575 c 0,8.33837 -5.951759,15.09795 -13.293624,15.09795 -7.341866,0 -13.2936242,-6.75958 -13.2936242,-15.09795 0,-8.33837 5.9517582,-15.09795 13.2936242,-15.09795 7.341865,0 13.293624,6.75958 13.293624,15.09795 z"
       transform="matrix(0.5330837,0,0,0.46937589,184.49306,658.91729)" />
    <path
       sodipodi:type="arc"
       style="fill:#002255;fill-opacity:1;stroke:none"
       id="path3790-61-1-8"
       sodipodi:cx="19.48819"
       sodipodi:cy="574.01575"
       sodipodi:rx="13.293624"
       sodipodi:ry="15.097951"
       d="m 32.781814,574.01575 c 0,8.33837 -5.951759,15.09795 -13.293624,15.09795 -7.341866,0 -13.2936242,-6.75958 -13.2936242,-15.09795 0,-8.33837 5.9517582,-15.09795 13.2936242,-15.09795 7.341865,0 13.293624,6.75958 13.293624,15.09795 z"
       transform="matrix(0.5330837,0,0,0.46937589,184.49306,623.48422)" />
    <path
       sodipodi:type="arc"
       style="fill:#002255;fill-opacity:1;stroke:none"
       id="path3790-5-4-5-2"
       sodipodi:cx="19.48819"
       sodipodi:cy="574.01575"
       sodipodi:rx="13.293624"
       sodipodi:ry="15.097951"
       d="m 32.781814,574.01575 c 0,8.33837 -5.951759,15.09795 -13.293624,15.09795 -7.341866,0 -13.2936242,-6.75958 -13.2936242,-15.09795 0,-8.33837 5.9517582,-15.09795 13.2936242,-15.09795 7.341865,0 13.293624,6.75958 13.293624,15.09795 z"
       transform="matrix(0.5330837,0,0,0.46937589,149.05999,658.91729)" />
    <path
       sodipodi:type="arc"
       style="fill:#002255;fill-opacity:1;stroke:none"
       id="path3790-61-3-2-6"
       sodipodi:cx="19.48819"
       sodipodi:cy="574.01575"
       sodipodi:rx="13.293624"
       sodipodi:ry="15.097951"
       d="m 32.781814,574.01575 c 0,8.33837 -5.951759,15.09795 -13.293624,15.09795 -7.341866,0 -13.2936242,-6.75958 -13.2936242,-15.09795 0,-8.33837 5.9517582,-15.09795 13.2936242,-15.09795 7.341865,0 13.293624,6.75958 13.293624,15.09795 z"
       transform="matrix(0.5330837,0,0,0.46937589,149.05999,623.48422)" />
    <path
       sodipodi:type="arc"
       style="fill:#002255;fill-opacity:1;stroke:none"
       id="path3790-5-1-5-6"
       sodipodi:cx="19.48819"
       sodipodi:cy="574.01575"
       sodipodi:rx="13.293624"
       sodipodi:ry="15.097951"
       d="m 32.781814,574.01575 c 0,8.33837 -5.951759,15.09795 -13.293624,15.09795 -7.341866,0 -13.2936242,-6.75958 -13.2936242,-15.09795 0,-8.33837 5.9517582,-15.09795 13.2936242,-15.09795 7.341865,0 13.293624,6.75958 13.293624,15.09795 z"
       transform="matrix(0.5330837,0,0,0.46937589,255.3592,658.91729)" />
    <path
       sodipodi:type="arc"
       style="fill:#002255;fill-opacity:1;stroke:none"
       id="path3790-61-1-9-0"
       sodipodi:cx="19.48819"
       sodipodi:cy="574.01575"
       sodipodi:rx="13.293624"
       sodipodi:ry="15.097951"
       d="m 32.781814,574.01575 c 0,8.33837 -5.951759,15.09795 -13.293624,15.09795 -7.341866,0 -13.2936242,-6.75958 -13.2936242,-15.09795 0,-8.33837 5.9517582,-15.09795 13.2936242,-15.09795 7.341865,0 13.293624,6.75958 13.293624,15.09795 z"
       transform="matrix(0.5330837,0,0,0.46937589,255.3592,623.48422)" />
    <path
       sodipodi:type="arc"
       style="fill:#002255;fill-opacity:1;stroke:none"
       id="path3790-5-4-5-9-3"
       sodipodi:cx="19.48819"
       sodipodi:cy="574.01575"
       sodipodi:rx="13.293624"
       sodipodi:ry="15.097951"
       d="m 32.781814,574.01575 c 0,8.33837 -5.951759,15.09795 -13.293624,15.09795 -7.341866,0 -13.2936242,-6.75958 -13.2936242,-15.09795 0,-8.33837 5.9517582,-15.09795 13.2936242,-15.09795 7.341865,0 13.293624,6.75958 13.293624,15.09795 z"
       transform="matrix(0.5330837,0,0,0.46937589,219.92613,658.91729)" />
    <path
       sodipodi:type="arc"
       style="fill:#002255;fill-opacity:1;stroke:none"
       id="path3790-61-3-2-8-8"
       sodipodi:cx="19.48819"
       sodipodi:cy="574.01575"
       sodipodi:rx="13.293624"
       sodipodi:ry="15.097951"
       d="m 32.781814,574.01575 c 0,8.33837 -5.951759,15.09795 -13.293624,15.09795 -7.341866,0 -13.2936242,-6.75958 -13.2936242,-15.09795 0,-8.33837 5.9517582,-15.09795 13.2936242,-15.09795 7.341865,0 13.293624,6.75958 13.293624,15.09795 z"
       transform="matrix(0.5330837,0,0,0.46937589,219.92613,623.48422)" />
    <path
       sodipodi:type="arc"
       style="fill:#002255;fill-opacity:1;stroke:none"
       id="path3790-5-4-5-25"
       sodipodi:cx="19.48819"
       sodipodi:cy="574.01575"
       sodipodi:rx="13.293624"
       sodipodi:ry="15.097951"
       d="m 32.781814,574.01575 c 0,8.33837 -5.951759,15.09795 -13.293624,15.09795 -7.341866,0 -13.2936242,-6.75958 -13.2936242,-15.09795 0,-8.33837 5.9517582,-15.09795 13.2936242,-15.09795 7.341865,0 13.293624,6.75958 13.293624,15.09795 z"
       transform="matrix(0.5330837,0,0,0.46937589,290.79228,658.91729)" />
    <path
       sodipodi:type="arc"
       style="fill:#002255;fill-opacity:1;stroke:none"
       id="path3790-61-3-2-0"
       sodipodi:cx="19.48819"
       sodipodi:cy="574.01575"
       sodipodi:rx="13.293624"
       sodipodi:ry="15.097951"
       d="m 32.781814,574.01575 c 0,8.33837 -5.951759,15.09795 -13.293624,15.09795 -7.341866,0 -13.2936242,-6.75958 -13.2936242,-15.09795 0,-8.33837 5.9517582,-15.09795 13.2936242,-15.09795 7.341865,0 13.293624,6.75958 13.293624,15.09795 z"
       transform="matrix(0.5330837,0,0,0.46937589,290.79228,623.48422)" />
    <path
       sodipodi:type="arc"
       style="fill:#002255;fill-opacity:1;stroke:none"
       id="path3790-5-1-5-64"
       sodipodi:cx="19.48819"
       sodipodi:cy="574.01575"
       sodipodi:rx="13.293624"
       sodipodi:ry="15.097951"
       d="m 32.781814,574.01575 c 0,8.33837 -5.951759,15.09795 -13.293624,15.09795 -7.341866,0 -13.2936242,-6.75958 -13.2936242,-15.09795 0,-8.33837 5.9517582,-15.09795 13.2936242,-15.09795 7.341865,0 13.293624,6.75958 13.293624,15.09795 z"
       transform="matrix(0.5330837,0,0,0.46937589,113.62691,729.78343)" />
    <path
       sodipodi:type="arc"
       style="fill:#002255;fill-opacity:1;stroke:none"
       id="path3790-61-1-9-06"
       sodipodi:cx="19.48819"
       sodipodi:cy="574.01575"
       sodipodi:rx="13.293624"
       sodipodi:ry="15.097951"
       d="m 32.781814,574.01575 c 0,8.33837 -5.951759,15.09795 -13.293624,15.09795 -7.341866,0 -13.2936242,-6.75958 -13.2936242,-15.09795 0,-8.33837 5.9517582,-15.09795 13.2936242,-15.09795 7.341865,0 13.293624,6.75958 13.293624,15.09795 z"
       transform="matrix(0.5330837,0,0,0.46937589,113.62691,694.35036)" />
    <path
       sodipodi:type="arc"
       style="fill:#002255;fill-opacity:1;stroke:none"
       id="path3790-5-4-5-9-1"
       sodipodi:cx="19.48819"
       sodipodi:cy="574.01575"
       sodipodi:rx="13.293624"
       sodipodi:ry="15.097951"
       d="m 32.781814,574.01575 c 0,8.33837 -5.951759,15.09795 -13.293624,15.09795 -7.341866,0 -13.2936242,-6.75958 -13.2936242,-15.09795 0,-8.33837 5.9517582,-15.09795 13.2936242,-15.09795 7.341865,0 13.293624,6.75958 13.293624,15.09795 z"
       transform="matrix(0.5330837,0,0,0.46937589,78.193854,729.78343)" />
    <path
       sodipodi:type="arc"
       style="fill:#002255;fill-opacity:1;stroke:none"
       id="path3790-61-3-2-8-89"
       sodipodi:cx="19.48819"
       sodipodi:cy="574.01575"
       sodipodi:rx="13.293624"
       sodipodi:ry="15.097951"
       d="m 32.781814,574.01575 c 0,8.33837 -5.951759,15.09795 -13.293624,15.09795 -7.341866,0 -13.2936242,-6.75958 -13.2936242,-15.09795 0,-8.33837 5.9517582,-15.09795 13.2936242,-15.09795 7.341865,0 13.293624,6.75958 13.293624,15.09795 z"
       transform="matrix(0.5330837,0,0,0.46937589,78.193854,694.35036)" />
    <path
       sodipodi:type="arc"
       style="fill:#002255;fill-opacity:1;stroke:none"
       id="path3790-5-1-1-8"
       sodipodi:cx="19.48819"
       sodipodi:cy="574.01575"
       sodipodi:rx="13.293624"
       sodipodi:ry="15.097951"
       d="m 32.781814,574.01575 c 0,8.33837 -5.951759,15.09795 -13.293624,15.09795 -7.341866,0 -13.2936242,-6.75958 -13.2936242,-15.09795 0,-8.33837 5.9517582,-15.09795 13.2936242,-15.09795 7.341865,0 13.293624,6.75958 13.293624,15.09795 z"
       transform="matrix(0.5330837,0,0,0.46937589,184.49305,729.78343)" />
    <path
       sodipodi:type="arc"
       style="fill:#002255;fill-opacity:1;stroke:none"
       id="path3790-61-1-8-4"
       sodipodi:cx="19.48819"
       sodipodi:cy="574.01575"
       sodipodi:rx="13.293624"
       sodipodi:ry="15.097951"
       d="m 32.781814,574.01575 c 0,8.33837 -5.951759,15.09795 -13.293624,15.09795 -7.341866,0 -13.2936242,-6.75958 -13.2936242,-15.09795 0,-8.33837 5.9517582,-15.09795 13.2936242,-15.09795 7.341865,0 13.293624,6.75958 13.293624,15.09795 z"
       transform="matrix(0.5330837,0,0,0.46937589,184.49305,694.35036)" />
    <path
       sodipodi:type="arc"
       style="fill:#002255;fill-opacity:1;stroke:none"
       id="path3790-5-4-5-2-1"
       sodipodi:cx="19.48819"
       sodipodi:cy="574.01575"
       sodipodi:rx="13.293624"
       sodipodi:ry="15.097951"
       d="m 32.781814,574.01575 c 0,8.33837 -5.951759,15.09795 -13.293624,15.09795 -7.341866,0 -13.2936242,-6.75958 -13.2936242,-15.09795 0,-8.33837 5.9517582,-15.09795 13.2936242,-15.09795 7.341865,0 13.293624,6.75958 13.293624,15.09795 z"
       transform="matrix(0.5330837,0,0,0.46937589,149.05998,729.78343)" />
    <path
       sodipodi:type="arc"
       style="fill:#002255;fill-opacity:1;stroke:none"
       id="path3790-61-3-2-6-4"
       sodipodi:cx="19.48819"
       sodipodi:cy="574.01575"
       sodipodi:rx="13.293624"
       sodipodi:ry="15.097951"
       d="m 32.781814,574.01575 c 0,8.33837 -5.951759,15.09795 -13.293624,15.09795 -7.341866,0 -13.2936242,-6.75958 -13.2936242,-15.09795 0,-8.33837 5.9517582,-15.09795 13.2936242,-15.09795 7.341865,0 13.293624,6.75958 13.293624,15.09795 z"
       transform="matrix(0.5330837,0,0,0.46937589,149.05998,694.35036)" />
    <path
       sodipodi:type="arc"
       style="fill:#002255;fill-opacity:1;stroke:none"
       id="path3790-5-1-5-6-3"
       sodipodi:cx="19.48819"
       sodipodi:cy="574.01575"
       sodipodi:rx="13.293624"
       sodipodi:ry="15.097951"
       d="m 32.781814,574.01575 c 0,8.33837 -5.951759,15.09795 -13.293624,15.09795 -7.341866,0 -13.2936242,-6.75958 -13.2936242,-15.09795 0,-8.33837 5.9517582,-15.09795 13.2936242,-15.09795 7.341865,0 13.293624,6.75958 13.293624,15.09795 z"
       transform="matrix(0.5330837,0,0,0.46937589,255.35919,729.78343)" />
    <path
       sodipodi:type="arc"
       style="fill:#002255;fill-opacity:1;stroke:none"
       id="path3790-61-1-9-0-9"
       sodipodi:cx="19.48819"
       sodipodi:cy="574.01575"
       sodipodi:rx="13.293624"
       sodipodi:ry="15.097951"
       d="m 32.781814,574.01575 c 0,8.33837 -5.951759,15.09795 -13.293624,15.09795 -7.341866,0 -13.2936242,-6.75958 -13.2936242,-15.09795 0,-8.33837 5.9517582,-15.09795 13.2936242,-15.09795 7.341865,0 13.293624,6.75958 13.293624,15.09795 z"
       transform="matrix(0.5330837,0,0,0.46937589,255.35919,694.35036)" />
    <path
       sodipodi:type="arc"
       style="fill:#002255;fill-opacity:1;stroke:none"
       id="path3790-5-4-5-9-3-8"
       sodipodi:cx="19.48819"
       sodipodi:cy="574.01575"
       sodipodi:rx="13.293624"
       sodipodi:ry="15.097951"
       d="m 32.781814,574.01575 c 0,8.33837 -5.951759,15.09795 -13.293624,15.09795 -7.341866,0 -13.2936242,-6.75958 -13.2936242,-15.09795 0,-8.33837 5.9517582,-15.09795 13.2936242,-15.09795 7.341865,0 13.293624,6.75958 13.293624,15.09795 z"
       transform="matrix(0.5330837,0,0,0.46937589,219.92612,729.78343)" />
    <path
       sodipodi:type="arc"
       style="fill:#002255;fill-opacity:1;stroke:none"
       id="path3790-61-3-2-8-8-8"
       sodipodi:cx="19.48819"
       sodipodi:cy="574.01575"
       sodipodi:rx="13.293624"
       sodipodi:ry="15.097951"
       d="m 32.781814,574.01575 c 0,8.33837 -5.951759,15.09795 -13.293624,15.09795 -7.341866,0 -13.2936242,-6.75958 -13.2936242,-15.09795 0,-8.33837 5.9517582,-15.09795 13.2936242,-15.09795 7.341865,0 13.293624,6.75958 13.293624,15.09795 z"
       transform="matrix(0.5330837,0,0,0.46937589,219.92612,694.35036)" />
    <path
       sodipodi:type="arc"
       style="fill:#002255;fill-opacity:1;stroke:none"
       id="path3790-5-4-5-25-7"
       sodipodi:cx="19.48819"
       sodipodi:cy="574.01575"
       sodipodi:rx="13.293624"
       sodipodi:ry="15.097951"
       d="m 32.781814,574.01575 c 0,8.33837 -5.951759,15.09795 -13.293624,15.09795 -7.341866,0 -13.2936242,-6.75958 -13.2936242,-15.09795 0,-8.33837 5.9517582,-15.09795 13.2936242,-15.09795 7.341865,0 13.293624,6.75958 13.293624,15.09795 z"
       transform="matrix(0.5330837,0,0,0.46937589,290.79227,729.78343)" />
    <path
       sodipodi:type="arc"
       style="fill:#002255;fill-opacity:1;stroke:none"
       id="path3790-61-3-2-0-7"
       sodipodi:cx="19.48819"
       sodipodi:cy="574.01575"
       sodipodi:rx="13.293624"
       sodipodi:ry="15.097951"
       d="m 32.781814,574.01575 c 0,8.33837 -5.951759,15.09795 -13.293624,15.09795 -7.341866,0 -13.2936242,-6.75958 -13.2936242,-15.09795 0,-8.33837 5.9517582,-15.09795 13.2936242,-15.09795 7.341865,0 13.293624,6.75958 13.293624,15.09795 z"
       transform="matrix(0.5330837,0,0,0.46937589,290.79227,694.35036)" />
  </g>
</svg>
