<?xml version="1.0" encoding="UTF-8" standalone="no"?>
<!-- Created with Inkscape (http://www.inkscape.org/) -->

<svg
   xmlns:dc="http://purl.org/dc/elements/1.1/"
   xmlns:cc="http://creativecommons.org/ns#"
   xmlns:rdf="http://www.w3.org/1999/02/22-rdf-syntax-ns#"
   xmlns:svg="http://www.w3.org/2000/svg"
   xmlns="http://www.w3.org/2000/svg"
   xmlns:sodipodi="http://sodipodi.sourceforge.net/DTD/sodipodi-0.dtd"
   xmlns:inkscape="http://www.inkscape.org/namespaces/inkscape"
   width="210mm"
   height="297mm"
   viewBox="0 0 744.09448819 1052.3622047"
   id="svg2"
   version="1.1"
   inkscape:version="0.48.4 r9939"
   sodipodi:docname="contact-plates.svg">
  <defs
     id="defs4" />
  <sodipodi:namedview
     id="base"
     pagecolor="#ffffff"
     bordercolor="#666666"
     borderopacity="1.0"
     inkscape:pageopacity="0.0"
     inkscape:pageshadow="2"
     inkscape:zoom="2.24"
     inkscape:cx="29.744855"
     inkscape:cy="560.39317"
     inkscape:document-units="mm"
     inkscape:current-layer="layer1"
     showgrid="true"
     inkscape:window-width="1301"
     inkscape:window-height="744"
     inkscape:window-x="65"
     inkscape:window-y="24"
     inkscape:window-maximized="1"
     inkscape:snap-bbox="true"
     inkscape:bbox-nodes="true"
     inkscape:object-nodes="true"
     showguides="true"
     inkscape:guide-bbox="true"
     inkscape:snap-smooth-nodes="true"
     inkscape:snap-midpoints="false"
     inkscape:snap-global="true">
    <inkscape:grid
       type="xygrid"
       id="grid3336"
       units="mm"
       spacingx="1.7716536"
       spacingy="1.7716536"
       dotted="true"
       empspacing="10" />
    <inkscape:grid
       type="xygrid"
       id="grid5100"
       units="mm"
       spacingx="3.5433071"
       spacingy="3.5433072" />
    <sodipodi:guide
       position="17.716536,92.125987"
       orientation="1,0"
       id="guide4184" />
    <sodipodi:guide
       position="88.58268,194.8819"
       orientation="0,1"
       id="guide4224" />
    <sodipodi:guide
       position="74.409449,223.22835"
       orientation="0,1"
       id="guide4256" />
    <sodipodi:guide
       position="63.779528,262.20473"
       orientation="0,1"
       id="guide4260" />
    <sodipodi:guide
       position="70.866144,425.19686"
       orientation="1,0"
       id="guide4250" />
    <sodipodi:guide
       position="168.30709,396.85041"
       orientation="1,0"
       id="guide4287" />
    <sodipodi:guide
       position="225.00001,396.85041"
       orientation="1,0"
       id="guide4289" />
    <sodipodi:guide
       position="200.19686,391.53545"
       orientation="1,0"
       id="guide4291" />
    <sodipodi:guide
       position="88.58268,597.04726"
       orientation="0,1"
       id="guide4234" />
    <sodipodi:guide
       position="120.47244,602.36222"
       orientation="0,1"
       id="guide4236" />
    <sodipodi:guide
       orientation="0,1"
       position="182.48032,611.22049"
       id="guide3038" />
    <sodipodi:guide
       orientation="1,0"
       position="180.70866,620.07876"
       id="guide3040" />
    <sodipodi:guide
       orientation="0,1"
       position="180.70867,620.07876"
       id="guide3042" />
    <sodipodi:guide
       orientation="0,1"
       position="145.27559,510.23624"
       id="guide3044" />
  </sodipodi:namedview>
  <metadata
     id="metadata7">
    <rdf:RDF>
      <cc:Work
         rdf:about="">
        <dc:format>image/svg+xml</dc:format>
        <dc:type
           rdf:resource="http://purl.org/dc/dcmitype/StillImage" />
        <dc:title />
      </cc:Work>
    </rdf:RDF>
  </metadata>
  <g
     inkscape:label="Layer 1"
     inkscape:groupmode="layer"
     id="layer1">
    <path
       style="fill:#2b2200;fill-opacity:1;stroke:none"
       d="m 162.99147,449.99941 0,-31.88873 35.43307,0 1e-5,31.88873 -12.40158,10e-4 0,-3.54331 -10.62992,3e-5 0,3.54331 z m 17.7172,-12.40008 c 2.78257,-2.7e-4 5.31418,-2.53188 5.31445,-5.31445 7.6e-4,-2.78322 -2.53123,-5.31614 -5.31445,-5.31641 -2.78387,-7.6e-4 -5.31717,2.53254 -5.31641,5.31641 2.7e-4,2.78322 2.53319,5.31521 5.31641,5.31445 z"
       id="rect4962-4-2"
       inkscape:connector-curvature="0"
       sodipodi:nodetypes="cccccccccccccc" />
    <path
       style="fill:#2b2200;fill-opacity:1;stroke:none"
       d="m 17.716531,967.32387 0,31.88873 35.43307,0 1e-5,-31.88873 -12.40158,-0.001 0,3.54331 -10.62992,-3e-5 0,-3.54331 z m 17.7172,12.40008 c 2.78257,2.7e-4 5.31418,2.53188 5.31445,5.31445 7.6e-4,2.78322 -2.53123,5.31614 -5.31445,5.31641 -2.78387,7.6e-4 -5.31717,-2.53254 -5.31641,-5.31641 2.7e-4,-2.78322 2.53319,-5.31521 5.31641,-5.31445 z"
       id="rect4962-4"
       inkscape:connector-curvature="0"
       sodipodi:nodetypes="cccccccccccccc" />
    <path
       inkscape:connector-curvature="0"
       style="fill:#aad400;fill-opacity:1;stroke:none"
       d="m 17.717502,790.15793 -3.86e-4,67.32237 67.322251,0 8.66e-4,-67.32237 -14.17187,0 -0.0022,38.97592 -38.976551,0 0.0011,-38.97592 z"
       id="rect3338-3-9"
       sodipodi:nodetypes="ccccccccc" />
    <path
       style="fill:#ff7f2a;fill-opacity:1;stroke:none"
       d="m 203.74016,449.99997 0,8.85827 3.54331,0 0,23.0315 7.08593,0 -0.002,-7.08594 1.77149,0 0.002,7.08594 7.08789,0 -0.002,-7.08594 1.77148,0 0.002,7.08594 7.08594,0 -0.002,-7.08594 1.77148,0 0.002,7.08594 7.08789,0 -0.002,-7.08594 1.77149,0 0.002,7.08594 7.08594,0 0,-23.03125 3.54297,0 0,-12.40234 -3.54297,0 0,-23.03125 -7.08594,0 -0.002,7.08789 -1.77149,0 0.002,-7.08789 -7.08789,0 -0.002,7.08789 -1.77148,0 0.002,-7.08789 -7.08594,0 -0.002,7.08789 -1.77148,0 0.002,-7.08789 -7.08789,0 -0.002,7.08789 -1.77149,0 0.002,-7.08789 -7.08593,0 -7.1e-4,19.48955 -14.17346,-10e-4 c -14.16437,1.23101 -25.77427,17.50508 -42.51882,3.5417 l -3.54297,0 0,12.40234 3.54297,0 42.51902,-0.0221 3.54405,0.0228 0,-8.85827 z"
       id="rect4322-8-8"
       inkscape:connector-curvature="0"
       sodipodi:nodetypes="ccccccccccccccccccccccccccccccccccccccccccccccccccccc" />
    <path
       style="fill:#aad400;fill-opacity:1;stroke:none"
       d="m 187.79528,542.12595 1.8e-4,-95.66929 -3.54492,0 0.005,-2.27233 c 5.25218,-1.5653 8.85437,-6.39254 8.85937,-11.87305 l -0.005,-12.42942 -7.08593,0 0.005,12.42942 c -10e-4,2.91981 -2.35876,5.29111 -5.32032,5.28711 -2.96155,-0.004 -5.30759,-2.3734 -5.30859,-5.28711 l -0.006,-12.42942 -7.08594,0 0.002,12.42942 c 0.002,5.48211 3.60394,10.31221 8.85743,11.87891 l -0.003,2.26647 -3.54297,0 -8.2e-4,95.66929 z"
       id="rect3338-3-9-7-8-9-9"
       inkscape:connector-curvature="0"
       sodipodi:nodetypes="cccccccccccccccccc" />
    <path
       style="fill:#ff7f2a;fill-opacity:1;stroke:none"
       d="m 49.60629,446.45666 2e-6,3.54331 1.771654,3e-5 0,5.31496 -1.771654,0 1.44e-4,3.54306 3.54331,0 0,23.0315 7.085932,0 -0.002,-7.08594 1.77149,0 0.002,7.08594 7.087881,0 -0.002,-7.08594 1.77149,0 0.002,7.08594 7.08594,0 -0.002,-7.08594 1.77148,0 0.002,7.08594 7.08789,0 -0.002,-7.08594 1.77149,0 0.002,7.08594 7.08595,0 0,-23.03125 3.54297,0 3.4e-4,-3.54334 -1.77166,0 0,-5.31496 1.77165,0 -3.3e-4,-3.54404 -3.54297,0 0,-23.03125 -7.08595,0 -0.002,7.08789 -1.77149,0 0.002,-7.08789 -7.08789,0 -0.002,7.08789 -1.77148,0 0.002,-7.08789 -7.08594,0 -0.002,7.08789 -1.77149,0 0.002,-7.08789 -7.087881,0 -0.002,7.08789 -1.77149,0 0.002,-7.08789 -7.085932,0 -1.49e-4,23.03201 z"
       id="rect4322-8-8-0"
       inkscape:connector-curvature="0"
       sodipodi:nodetypes="ccccccccccccccccccccccccccccccccccccccccccccccccccccc" />
    <path
       style="fill:#aad400;fill-opacity:1;stroke:none"
       d="m 33.661414,542.12595 -4e-6,-95.66926 -3.54492,0 0.005,-2.27233 c 5.25218,-1.5653 8.85437,-6.39254 8.85937,-11.87305 l -0.0045,-12.42945 -7.08593,0 0.0045,12.42945 c -10e-4,2.91981 -2.35876,5.29111 -5.32032,5.28711 -2.96155,-0.004 -5.30759,-2.3734 -5.30859,-5.28711 l -0.0062,-12.42945 -7.085941,0 0.0022,12.42945 c 0.002,5.48211 3.603941,10.31221 8.857431,11.87891 l -0.003,2.26647 -3.54297,0 -6.36e-4,95.66926 z"
       id="rect3338-3-9-7-8-9-9-4"
       inkscape:connector-curvature="0"
       sodipodi:nodetypes="cccccccccccccccccc" />
    <rect
       style="fill:#ff0000"
       id="rect3070"
       width="14.173228"
       height="14.173229"
       x="19.48818"
       y="441.14172"
       ry="0" />
    <rect
       style="fill:#ff0000"
       id="rect3070-9"
       width="21.259848"
       height="10.629914"
       x="33.661407"
       y="430.51202"
       ry="0" />
    <text
       xml:space="preserve"
       style="font-size:12.39271927px;font-style:normal;font-weight:normal;line-height:125%;letter-spacing:0px;word-spacing:0px;fill:#000000;fill-opacity:1;stroke:none;font-family:Sans"
       x="-54.014927"
       y="388.33154"
       id="text3023"
       sodipodi:linespacing="125%"><tspan
         sodipodi:role="line"
         x="-54.014927"
         y="388.33154"
         id="tspan3027">6.5мм от центра винта до левого края макетки</tspan><tspan
         sodipodi:role="line"
         x="-54.014927"
         y="403.82245"
         id="tspan3162">5мм от центра винта до нижней границы макетки</tspan></text>
    <path
       style="fill:#ff7f2a;fill-opacity:1;stroke:none"
       d="m -79.731554,419.88186 0.0076,12.43067 c 0.0015,4.13548 2.050238,7.88383 5.3125,10.15625 l 0,12.84375 -0.0123,86.81342 14.1875,0 0.0123,-95.65717 0,-4 c 0.571617,-0.39796 1.101016,-0.82896 1.59375,-1.3125 l 17.875,0 0,5.3125 -3.53125,0 0,3.53125 1.78125,0 0,5.3125 -1.78125,0 0,3.53125 3.53125,0 0,23.03125 7.09375,0 0,-7.0625 1.78125,0 0,7.0625 7.0625,0 0,-7.0625 1.78125,0 0,7.0625 7.09375,0 0,-7.0625 1.78125,0 0,7.0625 7.0624998,0 0,-7.0625 1.78125,0 0,7.0625 7.09375,0 0,-23.03125 3.53125,0 0,-3.53125 -1.75,0 0,-5.3125 1.75,0 0,-3.53125 -3.53125,0 0,-23.03125 -7.09375,0 0,7.0625 -1.78125,0 0,-7.0625 -7.0624998,0 0,7.0625 -1.78125,0 0,-7.0625 -7.09375,0 0,7.0625 -1.78125,0 0,-7.0625 -7.0625,0 0,7.0625 -1.78125,0 0,-7.0625 -7.09375,0 0,7.0625 -14.15625,0 -0.0098,-10.61817 -7.09375,0 0.0098,12.43067 c -0.001,2.91981 -2.35094,5.28525 -5.3125,5.28125 -2.96155,-0.004 -5.3115,-2.36754 -5.3125,-5.28125 l -0.0076,-12.43067 z"
       id="rect4322-8-8-0-2"
       inkscape:connector-curvature="0"
       sodipodi:nodetypes="cccccccccccccccccccccccccccccccccccccccccccccccccccccccccccccccccccsccc" />
    <rect
       style="fill:#ff0000"
       id="rect3210"
       width="3.5433071"
       height="21.259844"
       x="131.10236"
       y="432.28342"
       transform="translate(-4.9229925e-6,0)" />
    <text
       xml:space="preserve"
       style="font-size:5.97930288px;font-style:normal;font-weight:normal;line-height:125%;letter-spacing:0px;word-spacing:0px;fill:#000000;fill-opacity:1;stroke:none;font-family:Sans"
       x="-448.64581"
       y="129.24605"
       id="text3212"
       sodipodi:linespacing="125%"
       transform="matrix(0,-1,1,0,0,0)"><tspan
         sodipodi:role="line"
         id="tspan3214"
         x="-448.64581"
         y="129.24605">6мм</tspan></text>
    <rect
       style="fill:#ff6600"
       id="rect3210-9"
       width="3.5433071"
       height="7.0866141"
       x="131.10236"
       y="453.54327" />
    <text
       xml:space="preserve"
       style="font-size:4.15815353px;font-style:normal;font-weight:normal;line-height:125%;letter-spacing:0px;word-spacing:0px;fill:#000000;fill-opacity:1;stroke:none;font-family:Sans"
       x="118.78841"
       y="423.17899"
       id="text3212-6"
       sodipodi:linespacing="125%"
       transform="scale(0.92232578,1.0842156)"><tspan
         sodipodi:role="line"
         id="tspan3214-4"
         x="118.78841"
         y="423.17899">2мм (желоб)</tspan></text>
    <rect
       style="fill:#241c1c"
       id="rect3210-9-7"
       width="3.5433071"
       height="42.519691"
       x="131.10237"
       y="460.62988" />
    <text
       xml:space="preserve"
       style="font-size:4.15815353px;font-style:normal;font-weight:normal;line-height:125%;letter-spacing:0px;word-spacing:0px;fill:#000000;fill-opacity:1;stroke:none;font-family:Sans"
       x="114.79443"
       y="440.32632"
       id="text3212-6-2"
       sodipodi:linespacing="125%"
       transform="scale(0.92232578,1.0842156)"><tspan
         sodipodi:role="line"
         id="tspan3214-4-9"
         x="114.79443"
         y="440.32632">12мм (путь наверх)</tspan></text>
    <rect
       style="fill:#55ff55"
       id="rect3210-9-7-0"
       width="3.5433071"
       height="3.5433118"
       x="131.10236"
       y="503.14957" />
    <rect
       style="fill:#241c1c"
       id="rect3210-9-7-01"
       width="3.5433071"
       height="35.433071"
       x="131.10236"
       y="506.6929" />
    <text
       xml:space="preserve"
       style="font-size:4.15815353px;font-style:normal;font-weight:normal;line-height:125%;letter-spacing:0px;word-spacing:0px;fill:#000000;fill-opacity:1;stroke:none;font-family:Sans"
       x="-578.9726"
       y="117.10281"
       id="text3212-6-2-5"
       sodipodi:linespacing="125%"
       transform="matrix(0,-0.92232578,1.0842156,0,0,0)"><tspan
         sodipodi:role="line"
         id="tspan3214-4-9-1"
         x="-578.9726"
         y="117.10281">10мм (контакт)</tspan></text>
    <path
       style="fill:#aad400;fill-opacity:1;stroke:none"
       d="M -4.9229925e-6,698.03148 0.00299508,685.60011 c 0.002,-4.13548 2.05023002,-7.88383 5.31250002,-10.15625 l 0,-4 0,-8.84375 0,-86.8125 14.1874999,0 0,86.8125 0,8.84375 0,4 c 3.261907,2.27094 5.308728,6.02198 5.3125,10.15625 l -0.0057,12.43137 -7.09375,0 0.0057,-12.43137 c -10e-4,-2.91981 -2.35094,-5.28525 -5.3125,-5.28125 -2.9615459,0.004 -5.3114999,2.36754 -5.3124999,5.28125 l -0.0035,12.43137 z"
       id="rect3338-3-9-7-8-9-9-4-9"
       inkscape:connector-curvature="0"
       sodipodi:nodetypes="ccccccccccccccsccc" />
  </g>
</svg>
