<?xml version="1.0" encoding="UTF-8" standalone="no"?>
<!-- Created with Inkscape (http://www.inkscape.org/) -->

<svg
   xmlns:dc="http://purl.org/dc/elements/1.1/"
   xmlns:cc="http://creativecommons.org/ns#"
   xmlns:rdf="http://www.w3.org/1999/02/22-rdf-syntax-ns#"
   xmlns:svg="http://www.w3.org/2000/svg"
   xmlns="http://www.w3.org/2000/svg"
   xmlns:sodipodi="http://sodipodi.sourceforge.net/DTD/sodipodi-0.dtd"
   xmlns:inkscape="http://www.inkscape.org/namespaces/inkscape"
   width="210mm"
   height="297mm"
   viewBox="0 0 744.09448819 1052.3622047"
   id="svg2"
   version="1.1"
   inkscape:version="0.91 r"
   sodipodi:docname="contact-plates.svg">
  <defs
     id="defs4" />
  <sodipodi:namedview
     id="base"
     pagecolor="#ffffff"
     bordercolor="#666666"
     borderopacity="1.0"
     inkscape:pageopacity="0.0"
     inkscape:pageshadow="2"
     inkscape:zoom="6.3356768"
     inkscape:cx="438.60608"
     inkscape:cy="64.678914"
     inkscape:document-units="mm"
     inkscape:current-layer="layer1"
     showgrid="true"
     inkscape:window-width="1301"
     inkscape:window-height="744"
     inkscape:window-x="65"
     inkscape:window-y="24"
     inkscape:window-maximized="1"
     inkscape:snap-bbox="true"
     inkscape:bbox-nodes="true"
     inkscape:object-nodes="true"
     showguides="true"
     inkscape:guide-bbox="true"
     inkscape:snap-smooth-nodes="true"
     inkscape:snap-midpoints="false"
     inkscape:snap-global="true">
    <inkscape:grid
       type="xygrid"
       id="grid3336"
       units="mm"
       spacingx="1.7716536"
       spacingy="1.7716536"
       dotted="true"
       empspacing="10" />
    <inkscape:grid
       type="xygrid"
       id="grid5100"
       units="mm"
       spacingx="3.5433071"
       spacingy="3.5433072" />
    <sodipodi:guide
       position="17.716536,92.125987"
       orientation="1,0"
       id="guide4184" />
    <sodipodi:guide
       position="88.58268,194.8819"
       orientation="0,1"
       id="guide4224" />
    <sodipodi:guide
       position="74.409449,223.22835"
       orientation="0,1"
       id="guide4256" />
    <sodipodi:guide
       position="42.519685,265.74804"
       orientation="0,1"
       id="guide4260" />
    <sodipodi:guide
       position="70.866144,425.19686"
       orientation="1,0"
       id="guide4250" />
    <sodipodi:guide
       position="168.30709,396.85041"
       orientation="1,0"
       id="guide4287" />
    <sodipodi:guide
       position="225.00001,396.85041"
       orientation="1,0"
       id="guide4289" />
    <sodipodi:guide
       position="200.19686,391.53545"
       orientation="1,0"
       id="guide4291" />
    <sodipodi:guide
       position="88.58268,597.04726"
       orientation="0,1"
       id="guide4234" />
    <sodipodi:guide
       position="120.47244,602.36222"
       orientation="0,1"
       id="guide4236" />
    <sodipodi:guide
       orientation="0,1"
       position="182.48032,611.22049"
       id="guide3038" />
    <sodipodi:guide
       orientation="1,0"
       position="180.70866,620.07876"
       id="guide3040" />
    <sodipodi:guide
       orientation="0,1"
       position="180.70867,620.07876"
       id="guide3042" />
    <sodipodi:guide
       orientation="0,1"
       position="191.33859,503.14962"
       id="guide3044" />
    <sodipodi:guide
       position="301.18111,460.62994"
       orientation="0,1"
       id="guide4230" />
    <sodipodi:guide
       position="386.22048,434.05513"
       orientation="0,1"
       id="guide4232" />
    <sodipodi:guide
       position="600.59057,464.17324"
       orientation="0,1"
       id="guide4267" />
    <sodipodi:guide
       position="375.59055,269.29135"
       orientation="0,1"
       id="guide4317" />
    <sodipodi:guide
       position="51.377954,85.039373"
       orientation="0,1"
       id="guide4203" />
    <sodipodi:guide
       position="357.87403,88.58268"
       orientation="0,1"
       id="guide4294" />
    <sodipodi:guide
       position="-10.629921,67.322837"
       orientation="0,1"
       id="guide4312" />
    <sodipodi:guide
       position="375.59055,63.77953"
       orientation="1,0"
       id="guide4323" />
    <sodipodi:guide
       position="35.433071,72.637798"
       orientation="0,1"
       id="guide4350" />
  </sodipodi:namedview>
  <metadata
     id="metadata7">
    <rdf:RDF>
      <cc:Work
         rdf:about="">
        <dc:format>image/svg+xml</dc:format>
        <dc:type
           rdf:resource="http://purl.org/dc/dcmitype/StillImage" />
        <dc:title />
      </cc:Work>
    </rdf:RDF>
  </metadata>
  <g
     inkscape:label="Layer 1"
     inkscape:groupmode="layer"
     id="layer1">
    <path
       style="fill:#2b2200;fill-opacity:1;stroke:none"
       d="m 162.99147,449.99941 0,-31.88873 35.43307,0 1e-5,31.88873 -12.40158,10e-4 0,-3.54331 -10.62992,3e-5 0,3.54331 z m 17.7172,-12.40008 c 2.78257,-2.7e-4 5.31418,-2.53188 5.31445,-5.31445 7.6e-4,-2.78322 -2.53123,-5.31614 -5.31445,-5.31641 -2.78387,-7.6e-4 -5.31717,2.53254 -5.31641,5.31641 2.7e-4,2.78322 2.53319,5.31521 5.31641,5.31445 z"
       id="rect4962-4-2"
       inkscape:connector-curvature="0"
       sodipodi:nodetypes="cccccccccccccc" />
    <path
       style="fill:#ffcc00;fill-opacity:1;stroke:none"
       d="M 30.117188 967.32227 L 17.716797 967.32422 L 17.716797 999.21289 L 53.150391 999.21289 L 53.150391 967.32422 L 40.748047 967.32227 L 40.748047 970.86523 L 30.117188 970.86523 L 30.117188 967.32227 z M 35.433594 979.72461 A 5.31496 5.31496 0 0 1 40.748047 985.03906 A 5.31496 5.31496 0 0 1 35.433594 990.35352 A 5.31496 5.31496 0 0 1 30.117188 985.03906 A 5.31496 5.31496 0 0 1 35.433594 979.72461 z "
       id="rect4962-4" />
    <path
       inkscape:connector-curvature="0"
       style="fill:#aad400;fill-opacity:1;stroke:none"
       d="m 17.716551,786.61416 5.65e-4,70.86614 67.322251,0 3e-6,-70.86614 -14.17187,0 -0.0013,42.51969 -38.976551,0 1.49e-4,-42.51969 z"
       id="rect3338-3-9"
       sodipodi:nodetypes="ccccccccc" />
    <path
       style="fill:#ff7f2a;fill-opacity:1;stroke:none"
       d="m 203.74016,449.99997 0,8.85827 3.54331,0 0,23.0315 7.08593,0 -0.002,-7.08594 1.77149,0 0.002,7.08594 7.08789,0 -0.002,-7.08594 1.77148,0 0.002,7.08594 7.08594,0 -0.002,-7.08594 1.77148,0 0.002,7.08594 7.08789,0 -0.002,-7.08594 1.77149,0 0.002,7.08594 7.08594,0 0,-23.03125 3.54297,0 0,-12.40234 -3.54297,0 0,-23.03125 -7.08594,0 -0.002,7.08789 -1.77149,0 0.002,-7.08789 -7.08789,0 -0.002,7.08789 -1.77148,0 0.002,-7.08789 -7.08594,0 -0.002,7.08789 -1.77148,0 0.002,-7.08789 -7.08789,0 -0.002,7.08789 -1.77149,0 0.002,-7.08789 -7.08593,0 -7.1e-4,19.48955 -14.17346,-10e-4 c -14.16437,1.23101 -25.77427,17.50508 -42.51882,3.5417 l -3.54297,0 0,12.40234 3.54297,0 42.51902,-0.0221 3.54405,0.0228 0,-8.85827 z"
       id="rect4322-8-8"
       inkscape:connector-curvature="0"
       sodipodi:nodetypes="ccccccccccccccccccccccccccccccccccccccccccccccccccccc" />
    <path
       style="fill:#aad400;fill-opacity:1;stroke:none"
       d="m 187.79528,549.21257 1.8e-4,-102.75591 -3.54492,0 0.005,-2.27233 c 5.25218,-1.5653 8.85437,-6.39254 8.85937,-11.87305 l -0.005,-12.42942 -7.08593,0 0.005,12.42942 c -10e-4,2.91981 -2.35876,5.29111 -5.32032,5.28711 -2.96155,-0.004 -5.30759,-2.3734 -5.30859,-5.28711 l -0.006,-12.42942 -7.08594,0 0.002,12.42942 c 0.002,5.48211 3.60394,10.31221 8.85743,11.87891 l -0.003,2.26647 -3.54297,0 -8.2e-4,102.75591 z"
       id="rect3338-3-9-7-8-9-9"
       inkscape:connector-curvature="0"
       sodipodi:nodetypes="cccccccccccccccccc" />
    <path
       style="fill:#ff7f2a;fill-opacity:1;stroke:none"
       d="m 49.60629,446.45666 2e-6,3.54331 1.771654,3e-5 0,5.31496 -1.771654,0 1.44e-4,3.54306 3.54331,0 0,23.0315 7.085932,0 -0.002,-7.08594 1.77149,0 0.002,7.08594 7.087881,0 -0.002,-7.08594 1.77149,0 0.002,7.08594 7.08594,0 -0.002,-7.08594 1.77148,0 0.002,7.08594 7.08789,0 -0.002,-7.08594 1.77149,0 0.002,7.08594 7.08595,0 0,-23.03125 3.54297,0 3.4e-4,-3.54334 -1.77166,0 0,-5.31496 1.77165,0 -3.3e-4,-3.54404 -3.54297,0 0,-23.03125 -7.08595,0 -0.002,7.08789 -1.77149,0 0.002,-7.08789 -7.08789,0 -0.002,7.08789 -1.77148,0 0.002,-7.08789 -7.08594,0 -0.002,7.08789 -1.77149,0 0.002,-7.08789 -7.087881,0 -0.002,7.08789 -1.77149,0 0.002,-7.08789 -7.085932,0 -1.49e-4,23.03201 z"
       id="rect4322-8-8-0"
       inkscape:connector-curvature="0"
       sodipodi:nodetypes="ccccccccccccccccccccccccccccccccccccccccccccccccccccc" />
    <path
       style="fill:#aad400;fill-opacity:1;stroke:none"
       d="m 33.661414,549.21257 -4e-6,-102.75588 -3.54492,0 0.005,-2.27233 c 5.25218,-1.5653 8.85437,-6.39254 8.85937,-11.87305 l -0.0045,-12.42945 -7.08593,0 0.0045,12.42945 c -10e-4,2.91981 -2.35876,5.29111 -5.32032,5.28711 -2.96155,-0.004 -5.30759,-2.3734 -5.30859,-5.28711 l -0.0062,-12.42945 -7.085941,0 0.0022,12.42945 c 0.002,5.48211 3.603941,10.31221 8.857431,11.87891 l -0.003,2.26647 -3.54297,0 -6.36e-4,102.75588 z"
       id="rect3338-3-9-7-8-9-9-4"
       inkscape:connector-curvature="0"
       sodipodi:nodetypes="cccccccccccccccccc" />
    <rect
       style="fill:#ff0000"
       id="rect3070"
       width="14.173228"
       height="14.173229"
       x="19.48818"
       y="441.14172"
       ry="0" />
    <rect
       style="fill:#ff0000"
       id="rect3070-9"
       width="21.259848"
       height="10.629914"
       x="33.661407"
       y="430.51202"
       ry="0" />
    <text
       xml:space="preserve"
       style="font-size:12.39271927px;font-style:normal;font-weight:normal;line-height:125%;letter-spacing:0px;word-spacing:0px;fill:#000000;fill-opacity:1;stroke:none;font-family:Sans"
       x="-54.014927"
       y="388.33154"
       id="text3023"
       sodipodi:linespacing="125%"><tspan
         sodipodi:role="line"
         x="-54.014927"
         y="388.33154"
         id="tspan3027">6.5мм от центра винта до левого края макетки</tspan><tspan
         sodipodi:role="line"
         x="-54.014927"
         y="403.82245"
         id="tspan3162">5мм от центра винта до нижней границы макетки</tspan></text>
    <path
       style="fill:#ff7f2a;fill-opacity:1;stroke:none"
       d="m -79.731554,419.88186 0.0076,12.43067 c 0.0015,4.13548 2.050238,7.88383 5.3125,10.15625 l 0,12.84375 -0.01227,93.90004 14.1875,0 0.01227,-102.74379 0,-4 c 0.571617,-0.39796 1.101016,-0.82896 1.59375,-1.3125 l 17.875,0 0,5.3125 -3.53125,0 0,3.53125 1.78125,0 0,5.3125 -1.78125,0 0,3.53125 3.53125,0 0,23.03125 7.09375,0 0,-7.0625 1.78125,0 0,7.0625 7.0625,0 0,-7.0625 1.78125,0 0,7.0625 7.09375,0 0,-7.0625 1.78125,0 0,7.0625 7.0624998,0 0,-7.0625 1.78125,0 0,7.0625 7.09375,0 0,-23.03125 3.53125,0 0,-3.53125 -1.75,0 0,-5.3125 1.75,0 0,-3.53125 -3.53125,0 0,-23.03125 -7.09375,0 0,7.0625 -1.78125,0 0,-7.0625 -7.0624998,0 0,7.0625 -1.78125,0 0,-7.0625 -7.09375,0 0,7.0625 -1.78125,0 0,-7.0625 -7.0625,0 0,7.0625 -1.78125,0 0,-7.0625 -7.09375,0 0,7.0625 -14.15625,0 -0.0098,-10.61817 -7.09375,0 0.0098,12.43067 c -10e-4,2.91981 -2.35094,5.28525 -5.3125,5.28125 -2.96155,-0.004 -5.3115,-2.36754 -5.3125,-5.28125 l -0.0076,-12.43067 z"
       id="rect4322-8-8-0-2"
       inkscape:connector-curvature="0"
       sodipodi:nodetypes="cccccccccccccccccccccccccccccccccccccccccccccccccccccccccccccccccccsccc" />
    <rect
       style="fill:#ff0000"
       id="rect3210"
       width="3.5433071"
       height="21.259844"
       x="131.10236"
       y="432.28342"
       transform="translate(-4.9229925e-6,0)" />
    <text
       xml:space="preserve"
       style="font-size:5.97930288px;font-style:normal;font-weight:normal;line-height:125%;letter-spacing:0px;word-spacing:0px;fill:#000000;fill-opacity:1;stroke:none;font-family:Sans"
       x="-448.64581"
       y="129.24605"
       id="text3212"
       sodipodi:linespacing="125%"
       transform="matrix(0,-1,1,0,0,0)"><tspan
         sodipodi:role="line"
         id="tspan3214"
         x="-448.64581"
         y="129.24605">6мм</tspan></text>
    <rect
       style="fill:#ff6600"
       id="rect3210-9"
       width="3.5433071"
       height="7.0866141"
       x="131.10236"
       y="453.54327" />
    <text
       xml:space="preserve"
       style="font-size:4.15815353px;font-style:normal;font-weight:normal;line-height:125%;letter-spacing:0px;word-spacing:0px;fill:#000000;fill-opacity:1;stroke:none;font-family:Sans"
       x="118.78841"
       y="423.17899"
       id="text3212-6"
       sodipodi:linespacing="125%"
       transform="scale(0.92232578,1.0842156)"><tspan
         sodipodi:role="line"
         id="tspan3214-4"
         x="118.78841"
         y="423.17899">2мм (желоб)</tspan></text>
    <rect
       style="fill:#241c1c"
       id="rect3210-9-7"
       width="3.5433071"
       height="42.519691"
       x="131.10237"
       y="460.62988" />
    <text
       xml:space="preserve"
       style="font-size:4.15815353px;font-style:normal;font-weight:normal;line-height:125%;letter-spacing:0px;word-spacing:0px;fill:#000000;fill-opacity:1;stroke:none;font-family:Sans"
       x="114.79443"
       y="440.32632"
       id="text3212-6-2"
       sodipodi:linespacing="125%"
       transform="scale(0.92232578,1.0842156)"><tspan
         sodipodi:role="line"
         id="tspan3214-4-9"
         x="114.79443"
         y="440.32632">12мм (путь наверх)</tspan></text>
    <rect
       style="fill:#55ff55"
       id="rect3210-9-7-0"
       width="3.5433071"
       height="3.5433118"
       x="131.10236"
       y="503.14957" />
    <rect
       style="fill:#241c1c"
       id="rect3210-9-7-01"
       width="3.5433156"
       height="42.519669"
       x="131.10236"
       y="506.6929" />
    <text
       xml:space="preserve"
       style="font-size:4.15815353px;font-style:normal;font-weight:normal;line-height:125%;letter-spacing:0px;word-spacing:0px;fill:#000000;fill-opacity:1;stroke:none;font-family:Sans"
       x="-578.9726"
       y="117.10281"
       id="text3212-6-2-5"
       sodipodi:linespacing="125%"
       transform="matrix(0,-0.92232578,1.0842156,0,0,0)"><tspan
         sodipodi:role="line"
         id="tspan3214-4-9-1"
         x="-578.9726"
         y="117.10281">12мм (контакт)</tspan></text>
    <path
       style="fill:#aad400;fill-opacity:1;stroke:none"
       d="M -4.9229925e-6,698.03148 0.00299508,685.60011 c 0.002,-4.13548 2.05023002,-7.88383 5.31250002,-10.15625 l 0,-4 0,-8.84375 -0.01481,-93.89935 14.1874998,0 0.01481,93.89935 0,8.84375 0,4 c 3.261907,2.27094 5.308728,6.02198 5.3125,10.15625 l -0.0057,12.43137 -7.09375,0 0.0057,-12.43137 c -10e-4,-2.91981 -2.35094,-5.28525 -5.3125,-5.28125 -2.9615459,0.004 -5.3114999,2.36754 -5.3124999,5.28125 l -0.0035,12.43137 z"
       id="rect3338-3-9-7-8-9-9-4-9"
       inkscape:connector-curvature="0"
       sodipodi:nodetypes="ccccccccccccccsccc" />
    <path
       sodipodi:type="inkscape:offset"
       inkscape:radius="3.5433071"
       inkscape:original="M 345.46484 774.21289 L 345.47266 786.64258 C 345.47366 790.77806 347.52289 794.52641 350.78516 796.79883 L 350.78516 809.64258 L 350.77344 903.54297 L 364.96094 903.54297 L 364.97266 800.79883 L 364.97266 796.79883 C 365.54427 796.40087 366.07367 795.96987 366.56641 795.48633 L 384.44141 795.48633 L 384.44141 800.79883 L 380.91016 800.79883 L 380.91016 804.33008 L 382.69141 804.33008 L 382.69141 809.64258 L 380.91016 809.64258 L 380.91016 813.17383 L 384.44141 813.17383 L 384.44141 836.20508 L 391.53516 836.20508 L 391.53516 829.14258 L 393.31641 829.14258 L 393.31641 836.20508 L 400.37891 836.20508 L 400.37891 829.14258 L 402.16016 829.14258 L 402.16016 836.20508 L 409.25391 836.20508 L 409.25391 829.14258 L 411.03516 829.14258 L 411.03516 836.20508 L 418.09766 836.20508 L 418.09766 829.14258 L 419.87891 829.14258 L 419.87891 836.20508 L 426.97266 836.20508 L 426.97266 813.17383 L 430.50391 813.17383 L 430.50391 809.64258 L 428.75391 809.64258 L 428.75391 804.33008 L 430.50391 804.33008 L 430.50391 800.79883 L 426.97266 800.79883 L 426.97266 777.76758 L 419.87891 777.76758 L 419.87891 784.83008 L 418.09766 784.83008 L 418.09766 777.76758 L 411.03516 777.76758 L 411.03516 784.83008 L 409.25391 784.83008 L 409.25391 777.76758 L 402.16016 777.76758 L 402.16016 784.83008 L 400.37891 784.83008 L 400.37891 777.76758 L 393.31641 777.76758 L 393.31641 784.83008 L 391.53516 784.83008 L 391.53516 777.76758 L 384.44141 777.76758 L 384.44141 784.83008 L 370.28516 784.83008 L 370.27539 774.21289 L 363.18164 774.21289 L 363.19141 786.64258 C 363.19041 789.56239 360.84047 791.92783 357.87891 791.92383 C 354.91736 791.91983 352.56741 789.55629 352.56641 786.64258 L 352.55859 774.21289 L 345.46484 774.21289 z "
       style="fill:#ff7f2a;fill-opacity:1;stroke:none"
       id="path4197"
       d="m 345.46484,770.66992 a 3.5436614,3.5436614 0 0 0 -3.54296,3.54492 l 0.008,12.42969 c 0.002,4.59444 2.0601,8.75855 5.3125,11.70899 l 0,11.28906 -0.0117,93.90039 a 3.5436614,3.5436614 0 0 0 3.54297,3.54297 l 14.1875,0 a 3.5436614,3.5436614 0 0 0 3.54297,-3.54297 l 0.0117,-102.74414 0,-1.76953 9.33008,0 a 3.5436614,3.5436614 0 0 0 -0.47851,1.76953 l 0,3.53125 a 3.5436614,3.5436614 0 0 0 1.20508,2.6543 3.5436614,3.5436614 0 0 0 -1.20508,2.6582 l 0,3.53125 a 3.5436614,3.5436614 0 0 0 3.53125,3.54297 l 0,19.48828 a 3.5436614,3.5436614 0 0 0 3.54297,3.54297 l 7.09375,0 a 3.5436614,3.5436614 0 0 0 0.88672,-0.11719 3.5436614,3.5436614 0 0 0 0.89453,0.11719 l 7.0625,0 a 3.5436614,3.5436614 0 0 0 0.88671,-0.11719 3.5436614,3.5436614 0 0 0 0.89454,0.11719 l 7.09375,0 a 3.5436614,3.5436614 0 0 0 0.88671,-0.11719 3.5436614,3.5436614 0 0 0 0.89454,0.11719 l 7.0625,0 a 3.5436614,3.5436614 0 0 0 0.88672,-0.11719 3.5436614,3.5436614 0 0 0 0.89453,0.11719 l 7.09375,0 a 3.5436614,3.5436614 0 0 0 3.54296,-3.54297 l 0,-19.48828 a 3.5436614,3.5436614 0 0 0 3.53126,-3.54297 l 0,-3.53125 a 3.5436614,3.5436614 0 0 0 -1.20508,-2.6543 3.5436614,3.5436614 0 0 0 1.20508,-2.6582 l 0,-3.53125 a 3.5436614,3.5436614 0 0 0 -3.53126,-3.54297 l 0,-19.48828 a 3.5436614,3.5436614 0 0 0 -3.54296,-3.54297 l -7.09375,0 a 3.5436614,3.5436614 0 0 0 -0.88672,0.11719 3.5436614,3.5436614 0 0 0 -0.89453,-0.11719 l -7.0625,0 a 3.5436614,3.5436614 0 0 0 -0.88672,0.11719 3.5436614,3.5436614 0 0 0 -0.89453,-0.11719 l -7.09375,0 a 3.5436614,3.5436614 0 0 0 -0.88672,0.11719 3.5436614,3.5436614 0 0 0 -0.89453,-0.11719 l -7.0625,0 a 3.5436614,3.5436614 0 0 0 -0.88672,0.11719 3.5436614,3.5436614 0 0 0 -0.89453,-0.11719 l -7.09375,0 a 3.5436614,3.5436614 0 0 0 -3.54297,3.54297 l 0,3.51953 -7.07227,0 -0.008,-7.07813 a 3.5436614,3.5436614 0 0 0 -3.54297,-3.53906 l -7.09375,0 a 3.5436614,3.5436614 0 0 0 -3.54297,3.54492 l 0.01,12.42578 c -3.5e-4,1.01931 -0.69332,1.74169 -1.76563,1.74024 -1.07887,-0.001 -1.77309,-0.73102 -1.77343,-1.74024 l -0.008,-12.42968 a 3.5436614,3.5436614 0 0 0 -3.54297,-3.54102 l -7.09375,0 z"
       transform="translate(62.008073,-182.48095)" />
    <text
       xml:space="preserve"
       style="font-style:normal;font-weight:normal;font-size:21.89512825px;line-height:125%;font-family:Sans;letter-spacing:0px;word-spacing:0px;fill:#000000;fill-opacity:1;stroke:none;stroke-width:1px;stroke-linecap:butt;stroke-linejoin:miter;stroke-opacity:1"
       x="355.27664"
       y="572.5495"
       id="text3391"
       sodipodi:linespacing="125%"><tspan
         sodipodi:role="line"
         id="tspan3393"
         x="355.27664"
         y="572.5495">для фрезы 2мм</tspan></text>
    <path
       style="fill:#ff7f2a;fill-opacity:1;stroke:#000000;stroke-width:7.08661413;stroke-linejoin:round;stroke-miterlimit:4;stroke-dasharray:none;stroke-opacity:1"
       d="m 513.77918,588.18735 c -1.95733,3.9e-4 -3.54366,1.58759 -3.54296,3.54492 l 0.008,12.42969 c 0.002,4.59444 2.0601,8.75855 5.3125,11.70899 l 0,11.28906 -0.0117,93.90039 c 3.8e-4,1.95657 1.5864,3.54259 3.54297,3.54297 l 14.1875,0 c 1.95657,-3.8e-4 3.54259,-1.5864 3.54297,-3.54297 l 0.0117,-102.74414 c -0.57983,-2.65195 12.69261,-2.86471 12.38282,-0.0269 l 0,35.43316 c 3.8e-4,1.95657 1.5864,3.54259 3.54297,3.54297 l 42.53125,0 c 1.95657,-3.9e-4 3.54258,-1.5864 3.54296,-3.54297 l 0,-19.48828 7.07574,0 0,-19.48819 -7.07574,0.0272 0,-19.48828 c -3.8e-4,-1.95657 -1.58639,-3.54258 -3.54296,-3.54297 l -42.53125,0 c -1.95657,3.8e-4 -3.54259,1.5864 -3.54297,3.54297 l 0,3.51953 -7.07227,0 -0.008,-7.07813 c -0.003,-1.95504 -1.58793,-3.53868 -3.54297,-3.53906 l -7.09375,0 c -1.95733,3.8e-4 -3.54367,1.58759 -3.54297,3.54492 l 0.01,12.42578 c -3.5e-4,1.01931 -0.69332,1.74169 -1.76563,1.74024 -1.07887,-10e-4 -1.77309,-0.73102 -1.77343,-1.74024 l -0.008,-12.42968 c -0.001,-1.95581 -1.58716,-3.54064 -3.54297,-3.54102 l -7.09375,0 z"
       id="path4197-0"
       inkscape:connector-curvature="0"
       sodipodi:nodetypes="cccccccccccccccccccccccccccccccccccc" />
    <path
       style="fill:#ff7f2a;fill-opacity:1;stroke:none"
       d="m 301.1811,591.73228 0.008,12.43067 c 10e-4,4.13548 2.05024,7.88383 5.3125,10.15625 l 0,12.84375 -0.0123,93.90004 14.1875,0 0.0123,-102.74379 0,-4 c 0.57162,-0.39796 1.10102,-0.82896 1.59375,-1.3125 l 17.875,0 0,5.3125 -3.53125,0 0,3.53125 1.78125,0 0,5.3125 -1.78125,0 0,3.53125 3.53125,0 0,23.03125 7.09375,0 0,-7.0625 1.78125,0 0,7.0625 7.0625,0 0,-7.0625 1.78125,0 0,7.0625 7.09375,0 0,-7.0625 1.78125,0 0,7.0625 7.0625,0 0,-7.0625 1.78125,0 0,7.0625 7.09375,0 0,-23.03125 3.53125,0 0,-3.53125 -1.75,0 0,-5.3125 1.75,0 0,-3.53125 -3.53125,0 0,-23.03125 -7.09375,0 0,7.0625 -1.78125,0 0,-7.0625 -7.0625,0 0,7.0625 -1.78125,0 0,-7.0625 -7.09375,0 0,7.0625 -1.78125,0 0,-7.0625 -7.0625,0 0,7.0625 -1.78125,0 0,-7.0625 -7.09375,0 0,7.0625 -14.15625,0 -0.01,-10.61817 -7.09375,0 0.01,12.43067 c -10e-4,2.91981 -2.35094,5.28525 -5.3125,5.28125 -2.96155,-0.004 -5.3115,-2.36754 -5.3125,-5.28125 l -0.008,-12.43067 z"
       id="rect4322-8-8-0-2-1"
       inkscape:connector-curvature="0"
       sodipodi:nodetypes="cccccccccccccccccccccccccccccccccccccccccccccccccccccccccccccccccccsccc" />
    <path
       style="fill:#ff7f2a;fill-opacity:1;stroke:none;stroke-width:7.08661413;stroke-linejoin:round;stroke-miterlimit:4;stroke-dasharray:none;stroke-opacity:1"
       d="m 621.84321,588.18901 c -1.95733,3.9e-4 -3.54366,1.58759 -3.54296,3.54492 l 0.008,12.42969 c 0.002,4.59444 2.0601,8.75855 5.3125,11.70899 l 0,11.28906 -0.0117,93.90039 c 3.8e-4,1.95657 1.5864,3.54259 3.54297,3.54297 l 14.1875,0 c 1.95657,-3.8e-4 3.54259,-1.5864 3.54297,-3.54297 l 0.0117,-102.74414 c -0.57983,-2.65195 12.69261,-2.86471 12.38282,-0.0269 l 0,35.43316 c 3.8e-4,1.95657 1.5864,3.54259 3.54297,3.54297 l 42.53125,0 c 1.95657,-3.9e-4 3.54258,-1.5864 3.54296,-3.54297 l 0,-19.48828 7.07574,0 0,-19.48819 -7.07574,0.0272 0,-19.48828 c -3.8e-4,-1.95657 -1.58639,-3.54258 -3.54296,-3.54297 l -42.53125,0 c -1.95657,3.8e-4 -3.54259,1.5864 -3.54297,3.54297 l 0,3.51953 -7.07227,0 -0.008,-7.07813 c -0.003,-1.95504 -1.58793,-3.53868 -3.54297,-3.53906 l -7.09375,0 c -1.95733,3.8e-4 -3.54367,1.58759 -3.54297,3.54492 l 0.01,12.42578 c -3.5e-4,1.01931 -0.69332,1.74169 -1.76563,1.74024 -1.07887,-10e-4 -1.77309,-0.73102 -1.77343,-1.74024 l -0.008,-12.42968 c -0.001,-1.95581 -1.58716,-3.54064 -3.54297,-3.54102 l -7.09375,0 z"
       id="path4197-0-2"
       inkscape:connector-curvature="0"
       sodipodi:nodetypes="cccccccccccccccccccccccccccccccccccc" />
    <path
       sodipodi:type="inkscape:offset"
       inkscape:radius="3.5433071"
       inkscape:original="M 301.18164 786.61328 L 301.18164 857.48047 L 368.50391 857.48047 L 368.50391 786.61328 L 354.33203 786.61328 L 354.33008 829.13477 L 315.35547 829.13477 L 315.35547 786.61328 L 301.18164 786.61328 z "
       style="fill:#aad400;fill-opacity:1;stroke:none"
       id="path4284"
       d="m 301.18164,786.61328 0,70.86719 67.32227,0 0,-70.86719 -14.17188,0 -0.002,42.52149 -38.97461,0 0,-42.52149 -14.17383,0 z" />
    <path
       transform="translate(88.581801,8.9030088e-4)"
       style="fill:#aad400;fill-opacity:1;stroke:#000000;stroke-opacity:1;stroke-width:7.08661417;stroke-miterlimit:4;stroke-dasharray:none;stroke-linejoin:round"
       d="m 301.18164,783.07031 a 3.5436614,3.5436614 0 0 0 -3.54297,3.54297 l 0,70.86719 a 3.5436614,3.5436614 0 0 0 3.54297,3.54297 l 67.32227,0 a 3.5436614,3.5436614 0 0 0 3.54297,-3.54297 l 0,-70.86719 a 3.5436614,3.5436614 0 0 0 -3.54297,-3.54297 l -14.17188,0 a 3.5436614,3.5436614 0 0 0 -3.54297,3.54297 l -0.002,38.97852 -31.88867,0 0,-38.97852 a 3.5436614,3.5436614 0 0 0 -3.54297,-3.54297 l -14.17383,0 z"
       id="path4284-5" />
    <path
       inkscape:connector-curvature="0"
       style="fill:#aad400;fill-opacity:1;stroke:none;stroke-width:7.08661413;stroke-linejoin:round;stroke-miterlimit:4;stroke-dasharray:none;stroke-opacity:1"
       d="m 485.43307,783.07086 a 3.5436614,3.5436614 0 0 0 -3.54297,3.54297 l 0,70.86719 a 3.5436614,3.5436614 0 0 0 3.54297,3.54297 l 67.32227,0 a 3.5436614,3.5436614 0 0 0 3.54297,-3.54297 l 0,-70.86719 a 3.5436614,3.5436614 0 0 0 -3.54297,-3.54297 l -14.17188,0 a 3.5436614,3.5436614 0 0 0 -3.54297,3.54297 l -0.002,38.97852 -31.88867,0 0,-38.97852 a 3.5436614,3.5436614 0 0 0 -3.54297,-3.54297 l -14.17383,0 z"
       id="path4284-5-1" />
    <path
       style="fill:#ffcc00;fill-opacity:1;stroke:none"
       d="m -15.94582,967.32318 -12.400391,0.002 0,31.88866 35.4335942,0 0,-31.88866 -12.402344,-0.002 0,3.54296 -10.6308592,0 z"
       id="rect4962-4-0"
       inkscape:connector-curvature="0"
       sodipodi:nodetypes="ccccccccc" />
    <circle
       style="opacity:1;fill:#ff6600;fill-opacity:1;stroke:none;stroke-width:7.08661413;stroke-linejoin:round;stroke-miterlimit:4;stroke-dasharray:none;stroke-dashoffset:24.16535187;stroke-opacity:1"
       id="path4224-4"
       cx="-10.629937"
       cy="985.04028"
       r="5.31496" />
    <path
       sodipodi:type="inkscape:offset"
       inkscape:radius="3.5433071"
       inkscape:original="M 313.58203 967.32031 L 301.18164 967.32227 L 301.18164 999.21094 L 336.61523 999.21094 L 336.61523 967.32227 L 324.21289 967.32031 L 324.21289 970.86328 L 313.58203 970.86328 L 313.58203 967.32031 z M 318.89844 979.72266 A 5.31496 5.31496 0 0 1 324.21289 985.03711 A 5.31496 5.31496 0 0 1 318.89844 990.35156 A 5.31496 5.31496 0 0 1 313.58203 985.03711 A 5.31496 5.31496 0 0 1 318.89844 979.72266 z "
       style="fill:#ffcc00;fill-opacity:1;stroke:none"
       id="path4277"
       d="m 313.58203,967.32031 -12.40039,0.002 0,31.88867 35.43359,0 0,-31.88867 -12.40234,-0.002 0,3.54297 -10.63086,0 0,-3.54297 z m 5.31641,12.40235 a 5.31496,5.31496 0 0 1 5.31445,5.31445 5.31496,5.31496 0 0 1 -5.31445,5.31445 5.31496,5.31496 0 0 1 -5.31641,-5.31445 5.31496,5.31496 0 0 1 5.31641,-5.31445 z" />
    <path
       transform="translate(56.692047,5.6350888e-4)"
       style="fill:#ffcc00;fill-opacity:1;stroke:#000000;stroke-width:7.08661413;stroke-linejoin:round;stroke-miterlimit:4;stroke-dasharray:none;stroke-opacity:1"
       d="m 313.58203,963.77734 -12.40039,0.002 c -1.95657,3.8e-4 -3.54259,1.5864 -3.54297,3.54297 l 0,31.88867 c 3.9e-4,1.95652 1.5864,3.54262 3.54297,3.54292 l 35.43359,0 c 1.95657,-3e-4 3.54258,-1.5864 3.54297,-3.54292 l 0,-31.88867 c -3.8e-4,-1.95657 -1.5864,-3.54259 -3.54297,-3.54297 l -12.40234,-0.002 c -1.95657,3.8e-4 -3.54259,1.5864 -3.54297,3.54297 l -3.54492,0 c -3.8e-4,-1.95657 -1.5864,-3.54259 -3.54297,-3.54297 z"
       id="path4277-2"
       inkscape:connector-curvature="0"
       sodipodi:nodetypes="ccccccccccccc" />
    <circle
       style="opacity:1;fill:#ff6600;fill-opacity:1;stroke:none;stroke-width:7.08661413;stroke-linejoin:round;stroke-miterlimit:4;stroke-dasharray:none;stroke-dashoffset:24.16535187;stroke-opacity:1"
       id="path4224-4-3"
       cx="375.59055"
       cy="985.03937"
       r="1.7716535" />
    <path
       style="fill:#ffcc00;fill-opacity:1;stroke:#000000;stroke-width:7.08661413;stroke-linejoin:round;stroke-miterlimit:4;stroke-dasharray:none;stroke-opacity:1"
       d="M 426.9668 963.77734 L 414.56641 963.7793 C 412.60984 963.77968 411.02382 965.3657 411.02344 967.32227 L 411.02344 999.21094 C 411.02383 1001.1675 412.60984 1002.7536 414.56641 1002.7539 L 450 1002.7539 C 451.95657 1002.7536 453.54258 1001.1675 453.54297 999.21094 L 453.54297 967.32227 C 453.54259 965.3657 451.95657 963.77968 450 963.7793 L 437.59766 963.77734 C 435.64109 963.77772 434.05507 965.36374 434.05469 967.32031 L 430.50977 967.32031 C 430.50939 965.36374 428.92337 963.77772 426.9668 963.77734 z M 432.2832 983.26758 A 1.7716535 1.7716535 0 0 1 434.05469 985.03906 A 1.7716535 1.7716535 0 0 1 432.2832 986.81055 A 1.7716535 1.7716535 0 0 1 430.51172 985.03906 A 1.7716535 1.7716535 0 0 1 432.2832 983.26758 z "
       id="path4277-2-7" />
    <path
       inkscape:connector-curvature="0"
       style="fill:#ffcc00;fill-opacity:1;stroke:none;stroke-width:7.08661413;stroke-linejoin:round;stroke-miterlimit:4;stroke-dasharray:none;stroke-opacity:1"
       d="m 485.43147,963.77765 -12.40039,0.002 c -1.95657,3.8e-4 -3.54259,1.5864 -3.54297,3.54297 l 0,31.88862 c 3.9e-4,1.95656 1.5864,3.54266 3.54297,3.54296 l 35.43359,0 c 1.95657,-3e-4 3.54258,-1.5864 3.54297,-3.54296 l 0,-31.88862 c -3.8e-4,-1.95657 -1.5864,-3.54259 -3.54297,-3.54297 l -12.40234,-0.002 c -1.95657,3.8e-4 -3.54259,1.5864 -3.54297,3.54297 l -3.54492,0 c -3.8e-4,-1.95657 -1.5864,-3.54259 -3.54297,-3.54297 z m 5.3164,19.49024 a 1.7716535,1.7716535 0 0 1 1.77149,1.77148 1.7716535,1.7716535 0 0 1 -1.77149,1.77149 1.7716535,1.7716535 0 0 1 -1.77148,-1.77149 1.7716535,1.7716535 0 0 1 1.77148,-1.77148 z"
       id="path4277-2-7-0" />
  </g>
</svg>
