<?xml version="1.0" encoding="UTF-8" standalone="no"?>
<!-- Created with Inkscape (http://www.inkscape.org/) -->

<svg
   xmlns:dc="http://purl.org/dc/elements/1.1/"
   xmlns:cc="http://creativecommons.org/ns#"
   xmlns:rdf="http://www.w3.org/1999/02/22-rdf-syntax-ns#"
   xmlns:svg="http://www.w3.org/2000/svg"
   xmlns="http://www.w3.org/2000/svg"
   xmlns:sodipodi="http://sodipodi.sourceforge.net/DTD/sodipodi-0.dtd"
   xmlns:inkscape="http://www.inkscape.org/namespaces/inkscape"
   width="210mm"
   height="297mm"
   viewBox="0 0 744.09448819 1052.3622047"
   id="svg2"
   version="1.1"
   inkscape:version="0.91 r"
   sodipodi:docname="contact-plates.svg">
  <defs
     id="defs4" />
  <sodipodi:namedview
     id="base"
     pagecolor="#ffffff"
     bordercolor="#666666"
     borderopacity="1.0"
     inkscape:pageopacity="0.0"
     inkscape:pageshadow="2"
     inkscape:zoom="0.35355339"
     inkscape:cx="1399.6104"
     inkscape:cy="690.47576"
     inkscape:document-units="mm"
     inkscape:current-layer="layer1"
     showgrid="true"
     inkscape:window-width="1301"
     inkscape:window-height="744"
     inkscape:window-x="65"
     inkscape:window-y="24"
     inkscape:window-maximized="1"
     inkscape:snap-bbox="true"
     inkscape:bbox-nodes="true"
     inkscape:object-nodes="true"
     showguides="true"
     inkscape:guide-bbox="true"
     inkscape:snap-smooth-nodes="true"
     inkscape:snap-midpoints="false"
     inkscape:snap-global="true"
     inkscape:object-paths="true"
     inkscape:snap-object-midpoints="true">
    <inkscape:grid
       type="xygrid"
       id="grid3336"
       units="mm"
       spacingx="1.7716536"
       spacingy="1.7716536"
       dotted="true"
       empspacing="10" />
    <inkscape:grid
       type="xygrid"
       id="grid5100"
       units="mm"
       spacingx="3.5433071"
       spacingy="3.5433072" />
    <sodipodi:guide
       position="17.716536,92.125987"
       orientation="1,0"
       id="guide4184" />
    <sodipodi:guide
       position="88.58268,194.8819"
       orientation="0,1"
       id="guide4224" />
    <sodipodi:guide
       position="74.409449,223.22835"
       orientation="0,1"
       id="guide4256" />
    <sodipodi:guide
       position="42.519685,265.74804"
       orientation="0,1"
       id="guide4260" />
    <sodipodi:guide
       position="70.866144,425.19686"
       orientation="1,0"
       id="guide4250" />
    <sodipodi:guide
       position="168.30709,396.85041"
       orientation="1,0"
       id="guide4287" />
    <sodipodi:guide
       position="225.00001,396.85041"
       orientation="1,0"
       id="guide4289" />
    <sodipodi:guide
       position="200.19686,391.53545"
       orientation="1,0"
       id="guide4291" />
    <sodipodi:guide
       position="88.58268,597.04726"
       orientation="0,1"
       id="guide4234" />
    <sodipodi:guide
       position="120.47244,602.36222"
       orientation="0,1"
       id="guide4236" />
    <sodipodi:guide
       orientation="0,1"
       position="182.48032,611.22049"
       id="guide3038" />
    <sodipodi:guide
       orientation="1,0"
       position="180.70866,620.07876"
       id="guide3040" />
    <sodipodi:guide
       orientation="0,1"
       position="180.70867,620.07876"
       id="guide3042" />
    <sodipodi:guide
       orientation="0,1"
       position="191.33859,503.14962"
       id="guide3044" />
    <sodipodi:guide
       position="301.18111,460.62994"
       orientation="0,1"
       id="guide4230" />
    <sodipodi:guide
       position="386.22048,434.05513"
       orientation="0,1"
       id="guide4232" />
    <sodipodi:guide
       position="600.59057,464.17324"
       orientation="0,1"
       id="guide4267" />
    <sodipodi:guide
       position="375.59055,269.29135"
       orientation="0,1"
       id="guide4317" />
    <sodipodi:guide
       position="51.377954,85.039373"
       orientation="0,1"
       id="guide4203" />
    <sodipodi:guide
       position="357.87403,88.58268"
       orientation="0,1"
       id="guide4294" />
    <sodipodi:guide
       position="-10.629921,67.322837"
       orientation="0,1"
       id="guide4312" />
    <sodipodi:guide
       position="375.59055,63.77953"
       orientation="1,0"
       id="guide4323" />
    <sodipodi:guide
       position="35.433071,72.637798"
       orientation="0,1"
       id="guide4350" />
    <sodipodi:guide
       position="396.8504,797.24412"
       orientation="0,1"
       id="guide3503" />
    <sodipodi:guide
       position="2519.2913,793.70081"
       orientation="0,1"
       id="guide3505" />
  </sodipodi:namedview>
  <metadata
     id="metadata7">
    <rdf:RDF>
      <cc:Work
         rdf:about="">
        <dc:format>image/svg+xml</dc:format>
        <dc:type
           rdf:resource="http://purl.org/dc/dcmitype/StillImage" />
        <dc:title />
      </cc:Work>
    </rdf:RDF>
  </metadata>
  <g
     inkscape:label="Layer 1"
     inkscape:groupmode="layer"
     id="layer1">
    <path
       style="fill:#2b2200;fill-opacity:1;stroke:none"
       d="m 162.99147,449.99941 0,-31.88873 35.43307,0 1e-5,31.88873 -12.40158,10e-4 0,-3.54331 -10.62992,3e-5 0,3.54331 z m 17.7172,-12.40008 c 2.78257,-2.7e-4 5.31418,-2.53188 5.31445,-5.31445 7.6e-4,-2.78322 -2.53123,-5.31614 -5.31445,-5.31641 -2.78387,-7.6e-4 -5.31717,2.53254 -5.31641,5.31641 2.7e-4,2.78322 2.53319,5.31521 5.31641,5.31445 z"
       id="rect4962-4-2"
       inkscape:connector-curvature="0"
       sodipodi:nodetypes="cccccccccccccc" />
    <path
       inkscape:connector-curvature="0"
       style="fill:#aad400;fill-opacity:1;stroke:none"
       d="m 17.716551,786.61416 5.65e-4,70.86614 67.322251,0 3e-6,-70.86614 -14.17187,0 -0.0013,42.51969 -38.976551,0 1.49e-4,-42.51969 z"
       id="rect3338-3-9"
       sodipodi:nodetypes="ccccccccc" />
    <path
       style="fill:#ff7f2a;fill-opacity:1;stroke:none"
       d="m 203.74016,449.99997 0,8.85827 3.54331,0 0,23.0315 7.08593,0 -0.002,-7.08594 1.77149,0 0.002,7.08594 7.08789,0 -0.002,-7.08594 1.77148,0 0.002,7.08594 7.08594,0 -0.002,-7.08594 1.77148,0 0.002,7.08594 7.08789,0 -0.002,-7.08594 1.77149,0 0.002,7.08594 7.08594,0 0,-23.03125 3.54297,0 0,-12.40234 -3.54297,0 0,-23.03125 -7.08594,0 -0.002,7.08789 -1.77149,0 0.002,-7.08789 -7.08789,0 -0.002,7.08789 -1.77148,0 0.002,-7.08789 -7.08594,0 -0.002,7.08789 -1.77148,0 0.002,-7.08789 -7.08789,0 -0.002,7.08789 -1.77149,0 0.002,-7.08789 -7.08593,0 -7.1e-4,19.48955 -14.17346,-10e-4 c -14.16437,1.23101 -25.77427,17.50508 -42.51882,3.5417 l -3.54297,0 0,12.40234 3.54297,0 42.51902,-0.0221 3.54405,0.0228 0,-8.85827 z"
       id="rect4322-8-8"
       inkscape:connector-curvature="0"
       sodipodi:nodetypes="ccccccccccccccccccccccccccccccccccccccccccccccccccccc" />
    <path
       style="fill:#aad400;fill-opacity:1;stroke:none"
       d="m 187.79528,549.21257 1.8e-4,-102.75591 -3.54492,0 0.005,-2.27233 c 5.25218,-1.5653 8.85437,-6.39254 8.85937,-11.87305 l -0.005,-12.42942 -7.08593,0 0.005,12.42942 c -10e-4,2.91981 -2.35876,5.29111 -5.32032,5.28711 -2.96155,-0.004 -5.30759,-2.3734 -5.30859,-5.28711 l -0.006,-12.42942 -7.08594,0 0.002,12.42942 c 0.002,5.48211 3.60394,10.31221 8.85743,11.87891 l -0.003,2.26647 -3.54297,0 -8.2e-4,102.75591 z"
       id="rect3338-3-9-7-8-9-9"
       inkscape:connector-curvature="0"
       sodipodi:nodetypes="cccccccccccccccccc" />
    <path
       style="fill:#ff7f2a;fill-opacity:1;stroke:none"
       d="m 49.60629,446.45666 2e-6,3.54331 1.771654,3e-5 0,5.31496 -1.771654,0 1.44e-4,3.54306 3.54331,0 0,23.0315 7.085932,0 -0.002,-7.08594 1.77149,0 0.002,7.08594 7.087881,0 -0.002,-7.08594 1.77149,0 0.002,7.08594 7.08594,0 -0.002,-7.08594 1.77148,0 0.002,7.08594 7.08789,0 -0.002,-7.08594 1.77149,0 0.002,7.08594 7.08595,0 0,-23.03125 3.54297,0 3.4e-4,-3.54334 -1.77166,0 0,-5.31496 1.77165,0 -3.3e-4,-3.54404 -3.54297,0 0,-23.03125 -7.08595,0 -0.002,7.08789 -1.77149,0 0.002,-7.08789 -7.08789,0 -0.002,7.08789 -1.77148,0 0.002,-7.08789 -7.08594,0 -0.002,7.08789 -1.77149,0 0.002,-7.08789 -7.087881,0 -0.002,7.08789 -1.77149,0 0.002,-7.08789 -7.085932,0 -1.49e-4,23.03201 z"
       id="rect4322-8-8-0"
       inkscape:connector-curvature="0"
       sodipodi:nodetypes="ccccccccccccccccccccccccccccccccccccccccccccccccccccc" />
    <path
       style="fill:#aad400;fill-opacity:1;stroke:none"
       d="m 33.661414,549.21257 -4e-6,-102.75588 -3.54492,0 0.005,-2.27233 c 5.25218,-1.5653 8.85437,-6.39254 8.85937,-11.87305 l -0.0045,-12.42945 -7.08593,0 0.0045,12.42945 c -10e-4,2.91981 -2.35876,5.29111 -5.32032,5.28711 -2.96155,-0.004 -5.30759,-2.3734 -5.30859,-5.28711 l -0.0062,-12.42945 -7.085941,0 0.0022,12.42945 c 0.002,5.48211 3.603941,10.31221 8.857431,11.87891 l -0.003,2.26647 -3.54297,0 -6.36e-4,102.75588 z"
       id="rect3338-3-9-7-8-9-9-4"
       inkscape:connector-curvature="0"
       sodipodi:nodetypes="cccccccccccccccccc" />
    <rect
       style="fill:#ff0000"
       id="rect3070"
       width="14.173228"
       height="14.173229"
       x="19.48818"
       y="441.14172"
       ry="0" />
    <rect
       style="fill:#ff0000"
       id="rect3070-9"
       width="21.259848"
       height="10.629914"
       x="33.661407"
       y="430.51202"
       ry="0" />
    <text
       xml:space="preserve"
       style="font-size:12.39271927px;font-style:normal;font-weight:normal;line-height:125%;letter-spacing:0px;word-spacing:0px;fill:#000000;fill-opacity:1;stroke:none;font-family:Sans"
       x="-54.014927"
       y="388.33154"
       id="text3023"
       sodipodi:linespacing="125%"><tspan
         sodipodi:role="line"
         x="-54.014927"
         y="388.33154"
         id="tspan3027">6.5мм от центра винта до левого края макетки</tspan><tspan
         sodipodi:role="line"
         x="-54.014927"
         y="403.82245"
         id="tspan3162">5мм от центра винта до нижней границы макетки</tspan></text>
    <path
       style="fill:#ff7f2a;fill-opacity:1;stroke:none"
       d="m -79.731554,419.88186 0.0076,12.43067 c 0.0015,4.13548 2.050238,7.88383 5.3125,10.15625 l 0,12.84375 -0.01227,93.90004 14.1875,0 0.01227,-102.74379 0,-4 c 0.571617,-0.39796 1.101016,-0.82896 1.59375,-1.3125 l 17.875,0 0,5.3125 -3.53125,0 0,3.53125 1.78125,0 0,5.3125 -1.78125,0 0,3.53125 3.53125,0 0,23.03125 7.09375,0 0,-7.0625 1.78125,0 0,7.0625 7.0625,0 0,-7.0625 1.78125,0 0,7.0625 7.09375,0 0,-7.0625 1.78125,0 0,7.0625 7.0624998,0 0,-7.0625 1.78125,0 0,7.0625 7.09375,0 0,-23.03125 3.53125,0 0,-3.53125 -1.75,0 0,-5.3125 1.75,0 0,-3.53125 -3.53125,0 0,-23.03125 -7.09375,0 0,7.0625 -1.78125,0 0,-7.0625 -7.0624998,0 0,7.0625 -1.78125,0 0,-7.0625 -7.09375,0 0,7.0625 -1.78125,0 0,-7.0625 -7.0625,0 0,7.0625 -1.78125,0 0,-7.0625 -7.09375,0 0,7.0625 -14.15625,0 -0.0098,-10.61817 -7.09375,0 0.0098,12.43067 c -10e-4,2.91981 -2.35094,5.28525 -5.3125,5.28125 -2.96155,-0.004 -5.3115,-2.36754 -5.3125,-5.28125 l -0.0076,-12.43067 z"
       id="rect4322-8-8-0-2"
       inkscape:connector-curvature="0"
       sodipodi:nodetypes="cccccccccccccccccccccccccccccccccccccccccccccccccccccccccccccccccccsccc" />
    <rect
       style="fill:#ff0000"
       id="rect3210"
       width="3.5433071"
       height="21.259844"
       x="131.10236"
       y="432.28342"
       transform="translate(-4.9229925e-6,0)" />
    <text
       xml:space="preserve"
       style="font-size:5.97930288px;font-style:normal;font-weight:normal;line-height:125%;letter-spacing:0px;word-spacing:0px;fill:#000000;fill-opacity:1;stroke:none;font-family:Sans"
       x="-448.64581"
       y="129.24605"
       id="text3212"
       sodipodi:linespacing="125%"
       transform="matrix(0,-1,1,0,0,0)"><tspan
         sodipodi:role="line"
         id="tspan3214"
         x="-448.64581"
         y="129.24605">6мм</tspan></text>
    <rect
       style="fill:#ff6600"
       id="rect3210-9"
       width="3.5433071"
       height="7.0866141"
       x="131.10236"
       y="453.54327" />
    <text
       xml:space="preserve"
       style="font-size:4.15815353px;font-style:normal;font-weight:normal;line-height:125%;letter-spacing:0px;word-spacing:0px;fill:#000000;fill-opacity:1;stroke:none;font-family:Sans"
       x="118.78841"
       y="423.17899"
       id="text3212-6"
       sodipodi:linespacing="125%"
       transform="scale(0.92232578,1.0842156)"><tspan
         sodipodi:role="line"
         id="tspan3214-4"
         x="118.78841"
         y="423.17899">2мм (желоб)</tspan></text>
    <rect
       style="fill:#241c1c"
       id="rect3210-9-7"
       width="3.5433071"
       height="42.519691"
       x="131.10237"
       y="460.62988" />
    <text
       xml:space="preserve"
       style="font-size:4.15815353px;font-style:normal;font-weight:normal;line-height:125%;letter-spacing:0px;word-spacing:0px;fill:#000000;fill-opacity:1;stroke:none;font-family:Sans"
       x="114.79443"
       y="440.32632"
       id="text3212-6-2"
       sodipodi:linespacing="125%"
       transform="scale(0.92232578,1.0842156)"><tspan
         sodipodi:role="line"
         id="tspan3214-4-9"
         x="114.79443"
         y="440.32632">12мм (путь наверх)</tspan></text>
    <rect
       style="fill:#55ff55"
       id="rect3210-9-7-0"
       width="3.5433071"
       height="3.5433118"
       x="131.10236"
       y="503.14957" />
    <rect
       style="fill:#241c1c"
       id="rect3210-9-7-01"
       width="3.5433156"
       height="42.519669"
       x="131.10236"
       y="506.6929" />
    <text
       xml:space="preserve"
       style="font-size:4.15815353px;font-style:normal;font-weight:normal;line-height:125%;letter-spacing:0px;word-spacing:0px;fill:#000000;fill-opacity:1;stroke:none;font-family:Sans"
       x="-578.9726"
       y="117.10281"
       id="text3212-6-2-5"
       sodipodi:linespacing="125%"
       transform="matrix(0,-0.92232578,1.0842156,0,0,0)"><tspan
         sodipodi:role="line"
         id="tspan3214-4-9-1"
         x="-578.9726"
         y="117.10281">12мм (контакт)</tspan></text>
    <path
       style="fill:#aad400;fill-opacity:1;stroke:none"
       d="M -4.9229925e-6,698.03148 0.00299508,685.60011 c 0.002,-4.13548 2.05023002,-7.88383 5.31250002,-10.15625 l 0,-4 0,-8.84375 -0.01481,-93.89935 14.1874998,0 0.01481,93.89935 0,8.84375 0,4 c 3.261907,2.27094 5.308728,6.02198 5.3125,10.15625 l -0.0057,12.43137 -7.09375,0 0.0057,-12.43137 c -10e-4,-2.91981 -2.35094,-5.28525 -5.3125,-5.28125 -2.9615459,0.004 -5.3114999,2.36754 -5.3124999,5.28125 l -0.0035,12.43137 z"
       id="rect3338-3-9-7-8-9-9-4-9"
       inkscape:connector-curvature="0"
       sodipodi:nodetypes="ccccccccccccccsccc" />
    <text
       xml:space="preserve"
       style="font-style:normal;font-weight:normal;font-size:21.89512825px;line-height:125%;font-family:Sans;letter-spacing:0px;word-spacing:0px;fill:#000000;fill-opacity:1;stroke:none;stroke-width:1px;stroke-linecap:butt;stroke-linejoin:miter;stroke-opacity:1"
       x="423.61081"
       y="515.41223"
       id="text3391"
       sodipodi:linespacing="125%"><tspan
         sodipodi:role="line"
         id="tspan3393"
         x="423.61081"
         y="515.41223">компенсация диаметра</tspan><tspan
         sodipodi:role="line"
         x="423.61081"
         y="542.78113"
         id="tspan4288">для фрезы 2мм</tspan></text>
    <path
       sodipodi:type="inkscape:offset"
       inkscape:radius="3.5433071"
       inkscape:original="M 301.18164 786.61328 L 301.18164 857.48047 L 368.50391 857.48047 L 368.50391 786.61328 L 354.33203 786.61328 L 354.33008 829.13477 L 315.35547 829.13477 L 315.35547 786.61328 L 301.18164 786.61328 z "
       style="fill:#aad400;fill-opacity:1;stroke:#000000;stroke-opacity:1;stroke-width:7.08661417;stroke-miterlimit:4;stroke-dasharray:none"
       id="path4284"
       d="m 301.18164,783.07031 a 3.5436614,3.5436614 0 0 0 -3.54297,3.54297 l 0,70.86719 a 3.5436614,3.5436614 0 0 0 3.54297,3.54297 l 67.32227,0 a 3.5436614,3.5436614 0 0 0 3.54297,-3.54297 l 0,-70.86719 a 3.5436614,3.5436614 0 0 0 -3.54297,-3.54297 l -14.17188,0 a 3.5436614,3.5436614 0 0 0 -3.54297,3.54297 l -0.002,38.97852 -31.88867,0 0,-38.97852 a 3.5436614,3.5436614 0 0 0 -3.54297,-3.54297 l -14.17383,0 z"
       transform="translate(184.25109,8.9416464e-4)" />
    <path
       style="fill:#aad400;fill-opacity:1;stroke:#000000;stroke-width:7.08661413;stroke-linejoin:round;stroke-miterlimit:4;stroke-dasharray:none;stroke-opacity:1"
       d="m 574.01453,783.07209 a 3.5436614,3.5436614 0 0 0 -3.54297,3.54297 l 0,70.86719 a 3.5436614,3.5436614 0 0 0 3.54297,3.54297 l 67.32227,0 a 3.5436614,3.5436614 0 0 0 3.54297,-3.54297 l 0,-70.86719 a 3.5436614,3.5436614 0 0 0 -3.54297,-3.54297 l -14.17188,0 a 3.5436614,3.5436614 0 0 0 -3.54297,3.54297 l -0.002,38.97852 -31.88867,0 0,-38.97852 a 3.5436614,3.5436614 0 0 0 -3.54297,-3.54297 l -14.17383,0 z"
       id="path4284-5"
       inkscape:connector-curvature="0" />
    <path
       style="fill:#ffcc00;fill-opacity:1;stroke:none"
       d="m 30.116926,967.32083 -12.400391,0.002 0,31.88866 35.433595,0 0,-31.88866 -12.402344,-0.002 0,3.54296 -10.63086,0 z"
       id="rect4962-4-0"
       inkscape:connector-curvature="0"
       sodipodi:nodetypes="ccccccccc" />
    <path
       style="opacity:1;fill:#ff6600;fill-opacity:1;stroke:none;stroke-width:7.08661413;stroke-linejoin:round;stroke-miterlimit:4;stroke-dasharray:none;stroke-dashoffset:24.16535187;stroke-opacity:1"
       d="m 40.747769,985.03793 a 5.31496,5.31496 0 0 1 -5.31496,5.31496 5.31496,5.31496 0 0 1 -5.31496,-5.31496 5.31496,5.31496 0 0 1 5.31496,-5.31496 5.31496,5.31496 0 0 1 5.31496,5.31496 z"
       id="path4224-4"
       inkscape:connector-curvature="0" />
    <text
       xml:space="preserve"
       style="font-style:normal;font-weight:normal;font-size:21.89512825px;line-height:125%;font-family:Sans;letter-spacing:0px;word-spacing:0px;fill:#000000;fill-opacity:1;stroke:none;stroke-width:1px;stroke-linecap:butt;stroke-linejoin:miter;stroke-opacity:1"
       x="1042.3601"
       y="515.41223"
       id="text3391-2"
       sodipodi:linespacing="125%"><tspan
         sodipodi:role="line"
         id="tspan3393-1"
         x="1042.3601"
         y="515.41223">компенсация диаметра</tspan><tspan
         sodipodi:role="line"
         x="1042.3601"
         y="542.78113"
         id="tspan4290">для фрезы 1.1мм</tspan></text>
    <path
       transform="translate(799.01491,9.0286464e-4)"
       sodipodi:type="inkscape:offset"
       inkscape:radius="1.9488189"
       inkscape:original="M 301.18164 786.61328 L 301.18164 857.48047 L 368.50391 857.48047 L 368.50391 786.61328 L 354.33203 786.61328 L 354.33008 829.13477 L 315.35547 829.13477 L 315.35547 786.61328 L 301.18164 786.61328 z "
       style="fill:#aad400;fill-opacity:1;stroke:#000000;stroke-opacity:1;stroke-width:3.8976378;stroke-miterlimit:4;stroke-dasharray:none"
       id="path4284-7"
       d="m 301.18164,784.66406 a 1.9490138,1.9490138 0 0 0 -1.94922,1.94922 l 0,70.86719 a 1.9490138,1.9490138 0 0 0 1.94922,1.94922 l 67.32227,0 a 1.9490138,1.9490138 0 0 0 1.94921,-1.94922 l 0,-70.86719 a 1.9490138,1.9490138 0 0 0 -1.94921,-1.94922 l -14.17188,0 a 1.9490138,1.9490138 0 0 0 -1.94922,1.94922 l -0.002,40.57227 -35.07617,0 0,-40.57227 a 1.9490138,1.9490138 0 0 0 -1.94922,-1.94922 l -14.17383,0 z" />
    <path
       inkscape:connector-curvature="0"
       style="fill:#aad400;fill-opacity:1;stroke:none"
       d="m 375.59054,786.61417 5.6e-4,70.86614 67.32225,0 1e-5,-70.86614 -14.17187,0 -10e-4,42.51969 -38.97655,0 1.4e-4,-42.51969 z"
       id="rect3338-3-9-1"
       sodipodi:nodetypes="ccccccccc" />
    <path
       inkscape:connector-curvature="0"
       style="fill:#aad400;fill-opacity:1;stroke:none"
       d="m 990.35437,786.61417 5.7e-4,70.86614 67.32226,0 0,-70.86614 -14.1718,0 -10e-4,42.51969 -38.9766,0 2e-4,-42.51969 z"
       id="rect3338-3-9-6"
       sodipodi:nodetypes="ccccccccc" />
    <path
       style="fill:#aad400;fill-opacity:1;stroke:#000000;stroke-width:3.89763784;stroke-linejoin:round;stroke-miterlimit:4;stroke-dasharray:none;stroke-opacity:1"
       d="m 1188.9572,784.66495 a 1.9490138,1.9490138 0 0 0 -1.9492,1.94922 l 0,70.86719 a 1.9490138,1.9490138 0 0 0 1.9492,1.94922 l 67.3222,0 a 1.9490138,1.9490138 0 0 0 1.9493,-1.94922 l 0,-70.86719 a 1.9490138,1.9490138 0 0 0 -1.9493,-1.94922 l -14.1718,0 a 1.9490138,1.9490138 0 0 0 -1.9493,1.94922 l 0,40.57227 -35.0761,0 0,-40.57227 a 1.9490138,1.9490138 0 0 0 -1.9492,-1.94922 l -14.1739,0 z"
       id="path4284-7-9"
       inkscape:connector-curvature="0" />
    <text
       xml:space="preserve"
       style="font-style:normal;font-weight:normal;font-size:21.89512825px;line-height:125%;font-family:Sans;letter-spacing:0px;word-spacing:0px;fill:#000000;fill-opacity:1;stroke:none;stroke-width:1px;stroke-linecap:butt;stroke-linejoin:miter;stroke-opacity:1"
       x="1556.1398"
       y="515.41223"
       id="text3391-2-4"
       sodipodi:linespacing="125%"><tspan
         sodipodi:role="line"
         id="tspan3393-1-0"
         x="1556.1398"
         y="515.41223">компенсация диаметра</tspan><tspan
         sodipodi:role="line"
         x="1556.1398"
         y="542.78113"
         id="tspan4290-6">для фрезы 1.08мм</tspan></text>
    <path
       transform="translate(1312.7946,9.0576464e-4)"
       sodipodi:type="inkscape:offset"
       inkscape:radius="1.9133859"
       inkscape:original="M 301.18164 786.61328 L 301.18164 857.48047 L 368.50391 857.48047 L 368.50391 786.61328 L 354.33203 786.61328 L 354.33008 829.13477 L 315.35547 829.13477 L 315.35547 786.61328 L 301.18164 786.61328 z "
       style="fill:#aad400;fill-opacity:1;stroke:#000000;stroke-opacity:1;stroke-width:3.82677165;stroke-miterlimit:4;stroke-dasharray:none"
       id="path4284-7-93"
       d="m 301.18164,784.69922 a 1.9135772,1.9135772 0 0 0 -1.91406,1.91406 l 0,70.86719 a 1.9135772,1.9135772 0 0 0 1.91406,1.91406 l 67.32227,0 a 1.9135772,1.9135772 0 0 0 1.91406,-1.91406 l 0,-70.86719 a 1.9135772,1.9135772 0 0 0 -1.91406,-1.91406 l -14.17188,0 a 1.9135772,1.9135772 0 0 0 -1.91406,1.91406 l -0.002,40.60742 -35.14649,0 0,-40.60742 a 1.9135772,1.9135772 0 0 0 -1.91406,-1.91406 l -14.17383,0 z" />
    <path
       inkscape:connector-curvature="0"
       style="fill:#aad400;fill-opacity:1;stroke:none"
       d="m 1504.134,786.61417 6e-4,70.86614 67.3222,0 0,-70.86614 -14.1718,0 -10e-4,42.51969 -38.9766,0 2e-4,-42.51969 z"
       id="rect3338-3-9-6-9"
       sodipodi:nodetypes="ccccccccc" />
    <path
       style="fill:#aad400;fill-opacity:1;stroke:#000000;stroke-width:3.82677174;stroke-linejoin:round;stroke-miterlimit:4;stroke-dasharray:none;stroke-opacity:1"
       d="m 1697.3866,784.70011 a 1.9135772,1.9135772 0 0 0 -1.9141,1.91406 l 0,70.86719 a 1.9135772,1.9135772 0 0 0 1.9141,1.91406 l 67.3223,0 a 1.9135772,1.9135772 0 0 0 1.914,-1.91406 l 0,-70.86719 a 1.9135772,1.9135772 0 0 0 -1.914,-1.91406 l -14.1719,0 a 1.9135772,1.9135772 0 0 0 -1.9141,1.91406 l 0,40.60742 -35.1465,0 0,-40.60742 a 1.9135772,1.9135772 0 0 0 -1.914,-1.91406 l -14.1739,0 z"
       id="path4284-7-93-2"
       inkscape:connector-curvature="0" />
    <path
       sodipodi:type="inkscape:offset"
       inkscape:radius="1.9133859"
       inkscape:original="M 1493.502 967.32031 L 1481.1016 967.32227 L 1481.1016 999.21094 L 1516.5352 999.21094 L 1516.5352 967.32227 L 1504.1328 967.32031 L 1504.1328 970.86328 L 1493.502 970.86328 L 1493.502 967.32031 z "
       style="fill:#ffcc00;fill-opacity:1;stroke:#000000;stroke-opacity:1;stroke-width:3.82677165;stroke-miterlimit:4;stroke-dasharray:none"
       id="path4420"
       d="m 1493.502,965.40625 -12.4004,0.002 a 1.9135772,1.9135772 0 0 0 -1.9141,1.91407 l 0,31.88867 a 1.9135772,1.9135772 0 0 0 1.9141,1.91406 l 35.4336,0 a 1.9135772,1.9135772 0 0 0 1.914,-1.91406 l 0,-31.88867 a 1.9135772,1.9135772 0 0 0 -1.914,-1.91407 l -12.4024,-0.002 a 1.9135772,1.9135772 0 0 0 -1.914,1.91406 l 0,1.62891 -6.8028,0 0,-1.62891 a 1.9135772,1.9135772 0 0 0 -1.914,-1.91406 z"
       transform="translate(175.39372,1.256464e-5)" />
    <path
       style="opacity:1;fill:#ff6600;fill-opacity:1;stroke:#000000;stroke-width:3.82677165;stroke-linejoin:round;stroke-miterlimit:4;stroke-dasharray:none;stroke-dashoffset:24.16535187;stroke-opacity:1"
       d="m 1677.6142,985.03937 a 3.4015492,3.4015492 0 0 1 -3.4015,3.40155 3.4015492,3.4015492 0 0 1 -3.4016,-3.40155 3.4015492,3.4015492 0 0 1 3.4016,-3.40155 3.4015492,3.4015492 0 0 1 3.4015,3.40155 z"
       id="path4224-4-8"
       inkscape:connector-curvature="0" />
    <path
       style="fill:#ffcc00;fill-opacity:1;stroke:#000000;stroke-width:3.82677174;stroke-miterlimit:4;stroke-dasharray:none;stroke-opacity:1"
       d="m 1718.5021,965.40625 -12.4004,0.002 a 1.9135772,1.9135772 0 0 0 -1.9141,1.91407 l 0,31.88863 a 1.9135772,1.9135772 0 0 0 1.9141,1.91425 l 35.4336,0 a 1.9135772,1.9135772 0 0 0 1.914,-1.91425 l 0,-31.88863 a 1.9135772,1.9135772 0 0 0 -1.914,-1.91407 l -12.4024,-0.002 a 1.9135772,1.9135772 0 0 0 -1.914,1.91406 l 0,1.62891 -6.8028,0 0,-1.62891 a 1.9135772,1.9135772 0 0 0 -1.914,-1.91406 z"
       id="path4420-3"
       inkscape:connector-curvature="0" />
    <path
       style="opacity:1;fill:#ff6600;fill-opacity:1;stroke:#000000;stroke-width:3.82677174;stroke-linejoin:round;stroke-miterlimit:4;stroke-dasharray:none;stroke-dashoffset:24.16535187;stroke-opacity:1"
       d="m 1727.2205,985.03937 a 3.4015492,3.4015492 0 0 1 -3.4015,3.40155 3.4015492,3.4015492 0 0 1 -3.4016,-3.40155 3.4015492,3.4015492 0 0 1 3.4016,-3.40155 3.4015492,3.4015492 0 0 1 3.4015,3.40155 z"
       id="path4224-4-8-5"
       inkscape:connector-curvature="0" />
    <text
       xml:space="preserve"
       style="font-style:normal;font-weight:normal;font-size:21.89512825px;line-height:125%;font-family:Sans;letter-spacing:0px;word-spacing:0px;fill:#000000;fill-opacity:1;stroke:none;stroke-width:1px;stroke-linecap:butt;stroke-linejoin:miter;stroke-opacity:1"
       x="2094.7053"
       y="515.38318"
       id="text3391-2-4-7"
       sodipodi:linespacing="125%"><tspan
         sodipodi:role="line"
         id="tspan3393-1-0-7"
         x="2094.7053"
         y="515.38318">компенсация диаметра</tspan><tspan
         sodipodi:role="line"
         x="2094.7053"
         y="542.75208"
         id="tspan4290-6-0">для фрезы 1мм</tspan></text>
    <path
       transform="translate(1851.3601,-0.02817104)"
       sodipodi:type="inkscape:offset"
       inkscape:radius="1.7716535"
       inkscape:original="M 301.18164 786.61328 L 301.18164 857.48047 L 368.50391 857.48047 L 368.50391 786.61328 L 354.33203 786.61328 L 354.33008 829.13477 L 315.35547 829.13477 L 315.35547 786.61328 L 301.18164 786.61328 z "
       style="fill:#aad400;fill-opacity:1;stroke:#000000;stroke-opacity:1;stroke-width:3.54330709;stroke-miterlimit:4;stroke-dasharray:none"
       id="path4284-7-93-20"
       d="m 301.18164,784.8418 a 1.7718307,1.7718307 0 0 0 -1.77148,1.77148 l 0,70.86719 a 1.7718307,1.7718307 0 0 0 1.77148,1.77148 l 67.32227,0 a 1.7718307,1.7718307 0 0 0 1.77148,-1.77148 l 0,-70.86719 a 1.7718307,1.7718307 0 0 0 -1.77148,-1.77148 l -14.17188,0 a 1.7718307,1.7718307 0 0 0 -1.77148,1.77148 l -0.002,40.75 -35.43164,0 0,-40.75 a 1.7718307,1.7718307 0 0 0 -1.77148,-1.77148 l -14.17383,0 z" />
    <path
       inkscape:connector-curvature="0"
       style="fill:#aad400;fill-opacity:1;stroke:none"
       d="m 2042.6995,786.58508 6e-4,70.86614 67.3222,0 0,-70.86614 -14.1718,0 0,42.51969 -38.9766,0 2e-4,-42.51969 z"
       id="rect3338-3-9-6-9-5"
       sodipodi:nodetypes="ccccccccc" />
    <path
       style="fill:#ffcc00;fill-opacity:1;stroke:none"
       d="m 426.96731,967.32083 -12.40039,0.002 0,31.88871 35.43359,0 0,-31.88871 -12.40234,-0.002 0,3.54296 -10.63086,0 z"
       id="rect4962-4-0-4"
       inkscape:connector-curvature="0"
       sodipodi:nodetypes="ccccccccc" />
    <path
       style="opacity:1;fill:#ff6600;fill-opacity:1;stroke:none;stroke-width:7.08661413;stroke-linejoin:round;stroke-miterlimit:4;stroke-dasharray:none;stroke-dashoffset:24.16535187;stroke-opacity:1"
       d="m 437.59815,985.03796 a 5.31496,5.31496 0 0 1 -5.31496,5.31496 5.31496,5.31496 0 0 1 -5.31496,-5.31496 5.31496,5.31496 0 0 1 5.31496,-5.31496 5.31496,5.31496 0 0 1 5.31496,5.31496 z"
       id="path4224-4-9"
       inkscape:connector-curvature="0" />
    <path
       sodipodi:type="inkscape:offset"
       inkscape:radius="3.5433071"
       inkscape:original="M 419.88086 967.32031 L 407.48047 967.32227 L 407.48047 999.21094 L 442.91406 999.21094 L 442.91406 967.32227 L 430.51172 967.32031 L 430.51172 970.86328 L 419.88086 970.86328 L 419.88086 967.32031 z "
       style="fill:#ffcc00;fill-opacity:1;stroke:#000000;stroke-opacity:1;stroke-width:7.08661417;stroke-miterlimit:4;stroke-dasharray:none"
       id="path4569"
       d="m 419.88086,963.77734 -12.40039,0.002 a 3.5436614,3.5436614 0 0 0 -3.54297,3.54297 l 0,31.88867 a 3.5436614,3.5436614 0 0 0 3.54297,3.54296 l 35.43359,0 a 3.5436614,3.5436614 0 0 0 3.54297,-3.54296 l 0,-31.88867 a 3.5436614,3.5436614 0 0 0 -3.54297,-3.54297 l -12.40234,-0.002 a 3.5436614,3.5436614 0 0 0 -3.54297,3.54297 l -3.54492,0 a 3.5436614,3.5436614 0 0 0 -3.54297,-3.54297 z"
       transform="translate(74.409441,3.8646401e-6)" />
    <path
       sodipodi:type="inkscape:offset"
       inkscape:radius="-3.5433071"
       inkscape:original="M 425.19727 979.72266 A 5.31496 5.31496 0 0 0 419.88086 985.03711 A 5.31496 5.31496 0 0 0 425.19727 990.35352 A 5.31496 5.31496 0 0 0 430.51172 985.03711 A 5.31496 5.31496 0 0 0 425.19727 979.72266 z "
       style="opacity:1;fill:#ff6600;fill-opacity:1;stroke:#000000;stroke-width:7.08661417;stroke-linejoin:round;stroke-miterlimit:4;stroke-dasharray:none;stroke-dashoffset:24.16535187;stroke-opacity:1"
       id="path4571"
       d="m 425.19727,983.26562 c -0.92774,-2.5e-4 -1.77335,0.84375 -1.77344,1.77149 -2.6e-4,0.92796 0.84548,1.77369 1.77344,1.77344 0.92774,-9e-5 1.77173,-0.8457 1.77148,-1.77344 -9e-5,-0.92752 -0.84396,-1.7714 -1.77148,-1.77149 z"
       transform="translate(74.409441,3.8646401e-6)" />
    <path
       style="fill:#ffcc00;fill-opacity:1;stroke:#000000;stroke-width:7.08661413;stroke-miterlimit:4;stroke-dasharray:none;stroke-opacity:1"
       d="m 550.98274,963.77791 -12.40039,0.002 a 3.5436614,3.5436614 0 0 0 -3.54297,3.54297 l 0,31.88867 a 3.5436614,3.5436614 0 0 0 3.54297,3.54305 l 35.43359,0 a 3.5436614,3.5436614 0 0 0 3.54297,-3.54305 l 0,-31.88867 a 3.5436614,3.5436614 0 0 0 -3.54297,-3.54297 l -12.40234,-0.002 a 3.5436614,3.5436614 0 0 0 -3.54297,3.54297 l -3.54492,0 a 3.5436614,3.5436614 0 0 0 -3.54297,-3.54297 z"
       id="path4569-2"
       inkscape:connector-curvature="0" />
    <path
       style="opacity:1;fill:#ff6600;fill-opacity:1;stroke:#000000;stroke-width:7.08661413;stroke-linejoin:round;stroke-miterlimit:4;stroke-dasharray:none;stroke-dashoffset:24.16535187;stroke-opacity:1"
       d="m 556.29915,983.26619 c -0.92774,-2.5e-4 -1.77335,0.84375 -1.77344,1.77149 -2.6e-4,0.92796 0.84548,1.77369 1.77344,1.77344 0.92774,-9e-5 1.77173,-0.8457 1.77148,-1.77344 -9e-5,-0.92752 -0.84396,-1.7714 -1.77148,-1.77149 z"
       id="path4571-0"
       inkscape:connector-curvature="0" />
    <path
       style="fill:#ffcc00;fill-opacity:1;stroke:none"
       d="m 1109.054,967.32083 -12.4004,0.002 0,31.88872 35.4336,0 0,-31.88872 -12.4024,-0.002 0,3.54296 -10.6308,0 z"
       id="rect4962-4-0-4-5"
       inkscape:connector-curvature="0"
       sodipodi:nodetypes="ccccccccc" />
    <path
       inkscape:connector-curvature="0"
       style="opacity:1;fill:#ff6600;fill-opacity:1;stroke:none;stroke-width:7.08661413;stroke-linejoin:round;stroke-miterlimit:4;stroke-dasharray:none;stroke-dashoffset:24.16535187;stroke-opacity:1"
       d="m 1119.6848,985.03796 a 5.31496,5.31496 0 0 1 -5.3149,5.31496 5.31496,5.31496 0 0 1 -5.315,-5.31496 5.31496,5.31496 0 0 1 5.315,-5.31496 5.31496,5.31496 0 0 1 5.3149,5.31496 z"
       id="path4224-4-9-1" />
    <path
       style="fill:#ffcc00;fill-opacity:1;stroke:none"
       d="m 1605.1171,967.32083 -12.4004,0.002 0,31.88872 35.4336,0 0,-31.88872 -12.4023,-0.002 0,3.54296 -10.6309,0 z"
       id="rect4962-4-0-4-0"
       inkscape:connector-curvature="0"
       sodipodi:nodetypes="ccccccccc" />
    <path
       inkscape:connector-curvature="0"
       style="opacity:1;fill:#ff6600;fill-opacity:1;stroke:none;stroke-width:7.08661413;stroke-linejoin:round;stroke-miterlimit:4;stroke-dasharray:none;stroke-dashoffset:24.16535187;stroke-opacity:1"
       d="m 1615.748,985.03796 a 5.31496,5.31496 0 0 1 -5.315,5.31496 5.31496,5.31496 0 0 1 -5.3149,-5.31496 5.31496,5.31496 0 0 1 5.3149,-5.31496 5.31496,5.31496 0 0 1 5.315,5.31496 z"
       id="path4224-4-9-7" />
    <path
       style="fill:#ffcc00;fill-opacity:1;stroke:none"
       d="m 2136.6131,967.32083 -12.4004,0.002 0,31.88872 35.4336,0 0,-31.88872 -12.4023,-0.002 0,3.54296 -10.6309,0 z"
       id="rect4962-4-0-4-08"
       inkscape:connector-curvature="0"
       sodipodi:nodetypes="ccccccccc" />
    <path
       inkscape:connector-curvature="0"
       style="opacity:1;fill:#ff6600;fill-opacity:1;stroke:none;stroke-width:7.08661413;stroke-linejoin:round;stroke-miterlimit:4;stroke-dasharray:none;stroke-dashoffset:24.16535187;stroke-opacity:1"
       d="m 2147.244,985.03796 a 5.31496,5.31496 0 0 1 -5.315,5.31496 5.31496,5.31496 0 0 1 -5.3149,-5.31496 5.31496,5.31496 0 0 1 5.3149,-5.31496 5.31496,5.31496 0 0 1 5.315,5.31496 z"
       id="path4224-4-9-8" />
    <path
       sodipodi:type="inkscape:offset"
       inkscape:radius="1.9488189"
       inkscape:original="M 979.72266 967.32031 L 967.32227 967.32227 L 967.32227 999.21094 L 1002.7559 999.21094 L 1002.7559 967.32227 L 990.35352 967.32031 L 990.35352 970.86328 L 979.72266 970.86328 L 979.72266 967.32031 z "
       style="fill:#ffcc00;fill-opacity:1;stroke:#000000;stroke-opacity:1;stroke-width:3.8976378;stroke-miterlimit:4;stroke-dasharray:none"
       id="path4663"
       d="m 979.72266,965.37109 -12.40039,0.002 a 1.9490138,1.9490138 0 0 0 -1.94922,1.94922 l 0,31.88867 a 1.9490138,1.9490138 0 0 0 1.94922,1.94926 l 35.43363,0 a 1.9490138,1.9490138 0 0 0 1.9492,-1.94926 l 0,-31.88867 a 1.9490138,1.9490138 0 0 0 -1.9492,-1.94922 l -12.40238,-0.002 a 1.9490138,1.9490138 0 0 0 -1.94922,1.94922 l 0,1.59375 -6.73242,0 0,-1.59375 a 1.9490138,1.9490138 0 0 0 -1.94922,-1.94922 z"
       transform="translate(175.39372,1.256464e-5)" />
    <path
       sodipodi:type="inkscape:offset"
       inkscape:radius="-1.9488189"
       inkscape:original="M 985.03906 979.72266 A 5.31496 5.31496 0 0 0 979.72461 985.03711 A 5.31496 5.31496 0 0 0 985.03906 990.35352 A 5.31496 5.31496 0 0 0 990.35352 985.03711 A 5.31496 5.31496 0 0 0 985.03906 979.72266 z "
       style="opacity:1;fill:#ff6600;fill-opacity:1;stroke:#000000;stroke-width:3.8976378;stroke-linejoin:round;stroke-miterlimit:4;stroke-dasharray:none;stroke-dashoffset:24.16535187;stroke-opacity:1"
       id="path4665"
       d="m 985.03906,981.67188 c -1.76229,1.6e-4 -3.36506,1.60294 -3.36523,3.36523 -4.8e-4,1.76271 1.60253,3.36702 3.36523,3.36719 1.76271,-1.7e-4 3.36572,-1.60448 3.36524,-3.36719 -1.7e-4,-1.76229 -1.60294,-3.36507 -3.36524,-3.36523 z"
       transform="translate(175.39372,1.256464e-5)" />
    <path
       style="fill:#ffcc00;fill-opacity:1;stroke:#000000;stroke-width:3.89763784;stroke-miterlimit:4;stroke-dasharray:none;stroke-opacity:1"
       d="m 1206.4947,965.37237 -12.4004,0.002 a 1.9490138,1.9490138 0 0 0 -1.9492,1.94922 l 0,31.88866 a 1.9490138,1.9490138 0 0 0 1.9492,1.94935 l 35.4336,0 a 1.9490138,1.9490138 0 0 0 1.9492,-1.94935 l 0,-31.88866 a 1.9490138,1.9490138 0 0 0 -1.9492,-1.94922 l -12.4023,-0.002 a 1.9490138,1.9490138 0 0 0 -1.9493,1.94922 l 0,1.59375 -6.7324,0 0,-1.59375 a 1.9490138,1.9490138 0 0 0 -1.9492,-1.94922 z"
       id="path4663-0"
       inkscape:connector-curvature="0" />
    <path
       style="opacity:1;fill:#ff6600;fill-opacity:1;stroke:#000000;stroke-width:3.89763784;stroke-linejoin:round;stroke-miterlimit:4;stroke-dasharray:none;stroke-dashoffset:24.16535187;stroke-opacity:1"
       d="m 1211.8111,981.67316 c -1.7623,1.6e-4 -3.3651,1.60294 -3.3652,3.36523 -5e-4,1.76271 1.6025,3.36702 3.3652,3.36719 1.7627,-1.7e-4 3.3657,-1.60448 3.3652,-3.36719 -10e-5,-1.76229 -1.6029,-3.36507 -3.3652,-3.36523 z"
       id="path4665-6"
       inkscape:connector-curvature="0" />
    <path
       sodipodi:type="inkscape:offset"
       inkscape:radius="1.7716535"
       inkscape:original="M 2032.0859 967.32227 L 2019.6855 967.32422 L 2019.6855 999.21484 L 2055.1191 999.21484 L 2055.1191 967.32422 L 2042.7168 967.32227 L 2042.7168 970.86523 L 2032.0859 970.86523 L 2032.0859 967.32227 z "
       style="fill:#ffcc00;fill-opacity:1;stroke:#000000;stroke-opacity:1;stroke-width:3.54330709;stroke-miterlimit:4;stroke-dasharray:none"
       id="path4723"
       d="m 2032.0859,965.55078 -12.4004,0.002 a 1.7718307,1.7718307 0 0 0 -1.7714,1.77149 l 0,31.89062 a 1.7718307,1.7718307 0 0 0 1.7714,1.77146 l 35.4336,0 a 1.7718307,1.7718307 0 0 0 1.7715,-1.77146 l 0,-31.89062 a 1.7718307,1.7718307 0 0 0 -1.7715,-1.77149 l -12.4023,-0.002 a 1.7718307,1.7718307 0 0 0 -1.7715,1.77149 l 0,1.77148 -7.0879,0 0,-1.77148 a 1.7718307,1.7718307 0 0 0 -1.7715,-1.77149 z"
       transform="translate(175.39372,1.256464e-5)" />
    <path
       sodipodi:type="inkscape:offset"
       inkscape:radius="-1.7716535"
       inkscape:original="M 2037.4023 979.72461 A 5.31496 5.31496 0 0 0 2032.0879 985.04102 A 5.31496 5.31496 0 0 0 2037.4023 990.35547 A 5.31496 5.31496 0 0 0 2042.7168 985.04102 A 5.31496 5.31496 0 0 0 2037.4023 979.72461 z "
       style="opacity:1;fill:#ff6600;fill-opacity:1;stroke:#000000;stroke-width:3.54330709;stroke-linejoin:round;stroke-miterlimit:4;stroke-dasharray:none;stroke-dashoffset:24.16535187;stroke-opacity:1"
       id="path4725"
       d="m 2037.4023,981.49609 c -1.8554,2e-4 -3.5434,1.68946 -3.5429,3.54493 2e-4,1.85503 1.6879,3.54277 3.5429,3.54296 1.8551,-1.6e-4 3.5428,-1.68791 3.543,-3.54296 5e-4,-1.8555 -1.6875,-3.54477 -3.543,-3.54493 z"
       transform="translate(175.39372,1.256464e-5)" />
    <path
       style="fill:#ffcc00;fill-opacity:1;stroke:#000000;stroke-width:3.54330707;stroke-miterlimit:4;stroke-dasharray:none;stroke-opacity:1"
       d="m 2257.0852,965.55012 -12.4004,0.002 a 1.7718307,1.7718307 0 0 0 -1.7714,1.77149 l 0,31.89064 a 1.7718307,1.7718307 0 0 0 1.7714,1.77155 l 35.4336,0 a 1.7718307,1.7718307 0 0 0 1.7715,-1.77155 l 0,-31.89064 a 1.7718307,1.7718307 0 0 0 -1.7715,-1.77149 l -12.4023,-0.002 a 1.7718307,1.7718307 0 0 0 -1.7715,1.77149 l 0,1.77148 -7.0879,0 0,-1.77148 a 1.7718307,1.7718307 0 0 0 -1.7715,-1.77149 z"
       id="path4723-7"
       inkscape:connector-curvature="0" />
    <path
       style="opacity:1;fill:#ff6600;fill-opacity:1;stroke:#000000;stroke-width:3.54330707;stroke-linejoin:round;stroke-miterlimit:4;stroke-dasharray:none;stroke-dashoffset:24.16535187;stroke-opacity:1"
       d="m 2262.4016,981.49543 c -1.8554,2e-4 -3.5434,1.68946 -3.5429,3.54493 2e-4,1.85503 1.6879,3.54277 3.5429,3.54296 1.8551,-1.6e-4 3.5428,-1.68791 3.543,-3.54296 5e-4,-1.8555 -1.6875,-3.54477 -3.543,-3.54493 z"
       id="path4725-5"
       inkscape:connector-curvature="0" />
    <path
       style="fill:#aad400;fill-opacity:1;stroke:#000000;stroke-width:3.54330707;stroke-linejoin:round;stroke-miterlimit:4;stroke-dasharray:none;stroke-opacity:1"
       d="m 2249.9999,784.84269 a 1.7718307,1.7718307 0 0 0 -1.7715,1.77148 l 0,70.86719 a 1.7718307,1.7718307 0 0 0 1.7715,1.77148 l 67.3223,0 a 1.7718307,1.7718307 0 0 0 1.7714,-1.77148 l 0,-70.86719 a 1.7718307,1.7718307 0 0 0 -1.7714,-1.77148 l -14.1719,0 a 1.7718307,1.7718307 0 0 0 -1.7715,1.77148 l 0,40.75 -35.4316,0 0,-40.75 a 1.7718307,1.7718307 0 0 0 -1.7715,-1.77148 l -14.1738,0 z"
       id="path4284-7-93-20-7"
       inkscape:connector-curvature="0" />
    <path
       style="fill:#ff7f2a;fill-opacity:1;stroke:none"
       d="m -178.94181,419.89363 0.008,12.43067 c 0.001,4.13548 2.05024,7.88383 5.3125,10.15625 l -0.0123,106.74379 14.1875,0 0.0123,-106.74379 c 0.57162,-0.39796 1.10101,-0.82896 1.59375,-1.3125 l 17.875,0 0,40.71875 42.531247,0 0,-23.03125 3.53125,0 0,-12.375 -3.53125,0 0,-23.03125 -42.531247,0 0,7.0625 -14.15625,0 -0.01,-10.61817 -7.09375,0 0.01,12.43067 c -0.001,2.91981 -2.35094,5.28525 -5.3125,5.28125 -2.96155,-0.004 -5.3115,-2.36754 -5.3125,-5.28125 l -0.008,-12.43067 z"
       id="rect4322-8-8-0-2-0"
       inkscape:connector-curvature="0"
       sodipodi:nodetypes="cccccccccccccccccccccsccc" />
    <path
       style="fill:#ff7f2a;fill-opacity:1;stroke:none"
       d="m 2035.613,591.70318 0.01,12.43067 c 10e-4,4.13548 2.0502,7.88383 5.3125,10.15625 l -0.012,106.74379 14.1875,0 0.012,-106.74379 c 0.5716,-0.39796 1.101,-0.82896 1.5937,-1.3125 l 17.875,0 0,40.71875 42.5312,0 0,-23.03125 3.5313,0 0,-12.375 -3.5313,0 0,-23.03125 -42.5312,0 0,7.0625 -14.1562,0 -0.01,-10.61817 -7.0938,0 0.01,12.43067 c 0,2.91981 -2.3509,5.28525 -5.3125,5.28125 -2.9615,-0.004 -5.3115,-2.36754 -5.3125,-5.28125 l -0.01,-12.43067 z"
       id="rect4322-8-8-0-2-0-0"
       inkscape:connector-curvature="0"
       sodipodi:nodetypes="cccccccccccccccccccccsccc" />
    <path
       sodipodi:type="inkscape:offset"
       inkscape:radius="1.7716535"
       inkscape:original="M 1959.4492 591.73242 L 1959.459 604.16211 C 1959.46 608.29759 1961.5092 612.04594 1964.7715 614.31836 L 1964.7598 721.0625 L 1978.9473 721.0625 L 1978.959 614.31836 C 1979.5306 613.9204 1980.06 613.4894 1980.5527 613.00586 L 1998.4277 613.00586 L 1998.4277 653.72461 L 2040.959 653.72461 L 2040.959 630.69336 L 2044.4902 630.69336 L 2044.4902 618.31836 L 2040.959 618.31836 L 2040.959 595.28711 L 1998.4277 595.28711 L 1998.4277 602.34961 L 1984.2715 602.34961 L 1984.2617 591.73242 L 1977.168 591.73242 L 1977.1777 604.16211 C 1977.1767 607.08192 1974.8268 609.44736 1971.8652 609.44336 C 1968.9037 609.43936 1966.5537 607.07582 1966.5527 604.16211 L 1966.543 591.73242 L 1959.4492 591.73242 z "
       style="fill:#ff7f2a;fill-opacity:1;stroke:#000000;stroke-opacity:1;stroke-width:3.54330709;stroke-miterlimit:4;stroke-dasharray:none;stroke-linejoin:round"
       id="path4325"
       d="m 1959.4492,589.96094 a 1.7718307,1.7718307 0 0 0 -1.7715,1.77344 l 0.01,12.42968 c 0,4.36422 2.0647,8.30197 5.3125,10.93164 l -0.012,105.9668 a 1.7718307,1.7718307 0 0 0 1.7715,1.77148 l 14.1875,0 a 1.7718307,1.7718307 0 0 0 1.7715,-1.77148 l 0.012,-105.91797 c 0.1504,-0.12011 0.3012,-0.24029 0.4472,-0.36719 l 15.4785,0 0,38.94727 a 1.7718307,1.7718307 0 0 0 1.7715,1.77148 l 42.5313,0 a 1.7718307,1.7718307 0 0 0 1.7715,-1.77148 l 0,-21.25977 1.7597,0 a 1.7718307,1.7718307 0 0 0 1.7715,-1.77148 l 0,-12.375 a 1.7718307,1.7718307 0 0 0 -1.7715,-1.77148 l -1.7597,0 0,-21.25977 a 1.7718307,1.7718307 0 0 0 -1.7715,-1.77149 l -42.5313,0 a 1.7718307,1.7718307 0 0 0 -1.7715,1.77149 l 0,5.29101 -10.6152,0 -0.01,-8.84765 a 1.7718307,1.7718307 0 0 0 -1.7715,-1.76953 l -7.0937,0 a 1.7718307,1.7718307 0 0 0 -1.7715,1.77344 l 0.01,12.42968 c -0,1.96861 -1.5227,3.51054 -3.539,3.50782 -2.0202,-0.003 -3.5423,-1.54833 -3.543,-3.50977 a 1.7718307,1.7718307 0 0 0 0,-0.002 l -0.01,-12.42969 a 1.7718307,1.7718307 0 0 0 -1.7715,-1.76953 l -7.0938,0 z"
       transform="translate(175.39372,1.256464e-5)" />
    <path
       style="fill:#ff7f2a;fill-opacity:1;stroke:#000000;stroke-width:3.54330707;stroke-linejoin:round;stroke-miterlimit:4;stroke-dasharray:none;stroke-opacity:1"
       d="m 2242.9133,589.95884 a 1.7718307,1.7718307 0 0 0 -1.7715,1.77344 l 0.01,12.42968 c 0,4.36422 2.0647,8.30197 5.3125,10.93164 l -0.012,105.9668 a 1.7718307,1.7718307 0 0 0 1.7715,1.77148 l 14.1875,0 a 1.7718307,1.7718307 0 0 0 1.7715,-1.77148 l 0.012,-105.91797 c 0.1504,-0.12011 0.3012,-0.24029 0.4472,-0.36719 l 15.4785,0 0,38.94727 a 1.7718307,1.7718307 0 0 0 1.7715,1.77148 l 42.5313,0 a 1.7718307,1.7718307 0 0 0 1.7715,-1.77148 l 0,-21.25977 1.7597,0 a 1.7718307,1.7718307 0 0 0 1.7715,-1.77148 l 0,-12.375 a 1.7718307,1.7718307 0 0 0 -1.7715,-1.77148 l -1.7597,0 0,-21.25977 a 1.7718307,1.7718307 0 0 0 -1.7715,-1.77149 l -42.5313,0 a 1.7718307,1.7718307 0 0 0 -1.7715,1.77149 l 0,5.29101 -10.6152,0 -0.01,-8.84765 a 1.7718307,1.7718307 0 0 0 -1.7715,-1.76953 l -7.0937,0 a 1.7718307,1.7718307 0 0 0 -1.7715,1.77344 l 0.01,12.42968 c 0,1.96861 -1.5227,3.51054 -3.539,3.50782 -2.0202,-0.003 -3.5423,-1.54833 -3.543,-3.50977 a 1.7718307,1.7718307 0 0 0 0,-0.002 l -0.01,-12.42969 a 1.7718307,1.7718307 0 0 0 -1.7715,-1.76953 l -7.0938,0 z"
       id="path4325-3"
       inkscape:connector-curvature="0" />
    <path
       style="fill:#ff7f2a;fill-opacity:1;stroke:none"
       d="m 1504.1169,591.70318 0.01,12.43067 c 0,4.13548 2.0502,7.88383 5.3125,10.15625 l -0.012,106.74379 14.1875,0 0.012,-106.74379 c 0.5716,-0.39796 1.101,-0.82896 1.5937,-1.3125 l 17.875,0 0,40.71875 42.5312,0 0,-23.03125 3.5313,0 0,-12.375 -3.5313,0 0,-23.03125 -42.5312,0 0,7.0625 -14.1562,0 -0.01,-10.61817 -7.0938,0 0.01,12.43067 c 0,2.91981 -2.3509,5.28525 -5.3125,5.28125 -2.9615,-0.004 -5.3115,-2.36754 -5.3125,-5.28125 l -0.01,-12.43067 z"
       id="rect4322-8-8-0-2-0-0-2"
       inkscape:connector-curvature="0"
       sodipodi:nodetypes="cccccccccccccccccccccsccc" />
    <path
       sodipodi:type="inkscape:offset"
       inkscape:radius="1.9133859"
       inkscape:original="M 1427.9453 591.73242 L 1427.9551 604.16211 C 1427.9561 608.29759 1430.0053 612.04594 1433.2676 614.31836 L 1433.2559 721.0625 L 1447.4434 721.0625 L 1447.4551 614.31836 C 1448.0267 613.9204 1448.5561 613.4894 1449.0488 613.00586 L 1466.9238 613.00586 L 1466.9238 653.72461 L 1509.4551 653.72461 L 1509.4551 630.69336 L 1512.9863 630.69336 L 1512.9863 618.31836 L 1509.4551 618.31836 L 1509.4551 595.28711 L 1466.9238 595.28711 L 1466.9238 602.34961 L 1452.7676 602.34961 L 1452.7578 591.73242 L 1445.6641 591.73242 L 1445.6738 604.16211 C 1445.6738 607.08192 1443.3229 609.44736 1440.3613 609.44336 C 1437.3998 609.43936 1435.0498 607.07582 1435.0488 604.16211 L 1435.0391 591.73242 L 1427.9453 591.73242 z "
       style="fill:#ff7f2a;fill-opacity:1;stroke:#000000;stroke-opacity:1;stroke-width:3.82677165;stroke-miterlimit:4;stroke-dasharray:none;stroke-linejoin:round"
       id="path4379"
       d="m 1427.9453,589.81836 a 1.9135772,1.9135772 0 0 0 -1.9141,1.91602 l 0.01,12.42968 c 0,4.38245 2.0652,8.33765 5.3125,10.99414 l -0.012,105.9043 a 1.9135772,1.9135772 0 0 0 1.9141,1.91406 l 14.1875,0 a 1.9135772,1.9135772 0 0 0 1.914,-1.91406 l 0.012,-105.84961 c 0.119,-0.0959 0.2373,-0.19279 0.3536,-0.29297 l 15.2871,0 0,38.80469 a 1.9135772,1.9135772 0 0 0 1.914,1.91406 l 42.5313,0 a 1.9135772,1.9135772 0 0 0 1.914,-1.91406 l 0,-21.11719 1.6172,0 a 1.9135772,1.9135772 0 0 0 1.9141,-1.91406 l 0,-12.375 a 1.9135772,1.9135772 0 0 0 -1.9141,-1.91406 l -1.6172,0 0,-21.11719 a 1.9135772,1.9135772 0 0 0 -1.914,-1.91406 l -42.5313,0 a 1.9135772,1.9135772 0 0 0 -1.914,1.91406 l 0,5.14844 -10.3301,0 -0.01,-8.70508 a 1.9135772,1.9135772 0 0 0 -1.9141,-1.91211 l -7.0937,0 a 1.9135772,1.9135772 0 0 0 -1.9141,1.91602 l 0.01,12.42968 c -0,1.8918 -1.4558,3.36786 -3.3965,3.36524 -1.9449,-0.003 -3.3998,-1.48193 -3.4004,-3.36719 a 1.9135772,1.9135772 0 0 0 0,-0.002 l -0.01,-12.42969 a 1.9135772,1.9135772 0 0 0 -1.914,-1.91211 l -7.0938,0 z"
       transform="translate(175.39372,1.256464e-5)" />
    <path
       style="fill:#ff7f2a;fill-opacity:1;stroke:#000000;stroke-width:3.82677174;stroke-linejoin:round;stroke-miterlimit:4;stroke-dasharray:none;stroke-opacity:1"
       d="m 1700.9299,589.81626 a 1.9135772,1.9135772 0 0 0 -1.9141,1.91602 l 0.01,12.42968 c 0,4.38245 2.0652,8.33765 5.3125,10.99414 l -0.012,105.9043 a 1.9135772,1.9135772 0 0 0 1.9141,1.91406 l 14.1875,0 a 1.9135772,1.9135772 0 0 0 1.914,-1.91406 l 0.012,-105.84961 c 0.119,-0.0959 0.2373,-0.19279 0.3536,-0.29297 l 15.2871,0 0,38.80469 a 1.9135772,1.9135772 0 0 0 1.914,1.91406 l 42.5313,0 a 1.9135772,1.9135772 0 0 0 1.914,-1.91406 l 0,-21.11719 1.6172,0 a 1.9135772,1.9135772 0 0 0 1.9141,-1.91406 l 0,-12.375 a 1.9135772,1.9135772 0 0 0 -1.9141,-1.91406 l -1.6172,0 0,-21.11719 a 1.9135772,1.9135772 0 0 0 -1.914,-1.91406 l -42.5313,0 a 1.9135772,1.9135772 0 0 0 -1.914,1.91406 l 0,5.14844 -10.3301,0 -0.01,-8.70508 a 1.9135772,1.9135772 0 0 0 -1.9141,-1.91211 l -7.0937,0 a 1.9135772,1.9135772 0 0 0 -1.9141,1.91602 l 0.01,12.42968 c 0,1.8918 -1.4558,3.36786 -3.3965,3.36524 -1.9449,-0.003 -3.3998,-1.48193 -3.4004,-3.36719 a 1.9135772,1.9135772 0 0 0 0,-0.002 l -0.01,-12.42969 a 1.9135772,1.9135772 0 0 0 -1.914,-1.91211 l -7.0938,0 z"
       id="path4379-2"
       inkscape:connector-curvature="0" />
    <path
       style="fill:#ff7f2a;fill-opacity:1;stroke:none"
       d="m 990.35435,588.18897 0.01,12.43067 c 0.001,4.13548 2.0502,7.88383 5.3125,10.15625 l -0.012,106.74379 14.18755,0 0.012,-106.74379 c 0.5716,-0.39796 1.101,-0.82896 1.5937,-1.3125 l 17.875,0 0,40.71875 42.5312,0 0,-23.03125 3.5313,0 0,-12.375 -3.5313,0 0,-23.03125 -42.5312,0 0,7.0625 -14.1562,0 -0.01,-10.61817 -7.0938,0 0.01,12.43067 c -10e-4,2.91981 -2.3509,5.28525 -5.3125,5.28125 -2.96155,-0.004 -5.31155,-2.36754 -5.31255,-5.28125 l -0.01,-12.43067 z"
       id="rect4322-8-8-0-2-0-0-2-5"
       inkscape:connector-curvature="0"
       sodipodi:nodetypes="cccccccccccccccccccccsccc" />
    <path
       sodipodi:type="inkscape:offset"
       inkscape:radius="1.9488189"
       inkscape:original="M 907.08594 591.73242 L 907.0957 604.16211 C 907.0967 608.29759 909.1459 612.04594 912.4082 614.31836 L 912.39648 721.0625 L 926.58398 721.0625 L 926.5957 614.31836 C 927.1673 613.9204 927.69675 613.4894 928.18945 613.00586 L 946.06445 613.00586 L 946.06445 653.72461 L 988.5957 653.72461 L 988.5957 630.69336 L 992.12695 630.69336 L 992.12695 618.31836 L 988.5957 618.31836 L 988.5957 595.28711 L 946.06445 595.28711 L 946.06445 602.34961 L 931.9082 602.34961 L 931.89844 591.73242 L 924.80469 591.73242 L 924.81445 604.16211 C 924.81345 607.08192 922.46355 609.44736 919.50195 609.44336 C 916.54045 609.43936 914.19045 607.07582 914.18945 604.16211 L 914.17969 591.73242 L 907.08594 591.73242 z "
       style="fill:#ff7f2a;fill-opacity:1;stroke:#000000;stroke-opacity:1;stroke-width:3.8976378;stroke-miterlimit:4;stroke-dasharray:none;stroke-linejoin:round"
       id="path3494"
       d="m 907.08594,589.7832 a 1.9490138,1.9490138 0 0 0 -1.94922,1.95118 l 0.01,12.42968 c 0.002,4.38705 2.0652,8.34661 5.3125,11.00977 l -0.0117,105.88867 a 1.9490138,1.9490138 0 0 0 1.94921,1.94922 l 14.1875,0 a 1.9490138,1.9490138 0 0 0 1.94922,-1.94922 l 0.0117,-105.83398 c 0.11133,-0.09 0.22306,-0.17973 0.33203,-0.27344 l 15.23828,0 0,38.76953 a 1.9490138,1.9490138 0 0 0 1.94922,1.94922 l 42.53125,0 a 1.9490138,1.9490138 0 0 0 1.94922,-1.94922 l 0,-21.08203 1.58203,0 a 1.9490138,1.9490138 0 0 0 1.94922,-1.94922 l 0,-12.375 a 1.9490138,1.9490138 0 0 0 -1.94922,-1.94922 l -1.58203,0 0,-21.08203 a 1.9490138,1.9490138 0 0 0 -1.94922,-1.94922 l -42.53125,0 a 1.9490138,1.9490138 0 0 0 -1.94922,1.94922 l 0,5.11328 -10.25976,0 -0.008,-8.66992 a 1.9490138,1.9490138 0 0 0 -1.94922,-1.94727 l -7.09375,0 a 1.9490138,1.9490138 0 0 0 -1.94922,1.95118 l 0.01,12.42968 c -0.002,1.87358 -1.43949,3.33268 -3.36132,3.33008 -1.92601,-0.003 -3.3646,-1.46582 -3.36524,-3.33203 a 1.9490138,1.9490138 0 0 0 0,-0.002 l -0.01,-12.42969 a 1.9490138,1.9490138 0 0 0 -1.94922,-1.94727 l -7.09375,0 z"
       transform="translate(175.39372,1.256464e-5)" />
    <path
       style="fill:#ff7f2a;fill-opacity:1;stroke:#000000;stroke-width:3.89763784;stroke-linejoin:round;stroke-miterlimit:4;stroke-dasharray:none;stroke-opacity:1"
       d="m 1179.7366,589.78501 a 1.9490138,1.9490138 0 0 0 -1.9492,1.95118 l 0.01,12.42968 c 0,4.38705 2.0652,8.34661 5.3125,11.00977 l -0.012,105.88867 a 1.9490138,1.9490138 0 0 0 1.9492,1.94922 l 14.1875,0 a 1.9490138,1.9490138 0 0 0 1.9492,-1.94922 l 0.012,-105.83398 c 0.1113,-0.09 0.2231,-0.17973 0.332,-0.27344 l 15.2383,0 0,38.76953 a 1.9490138,1.9490138 0 0 0 1.9492,1.94922 l 42.5313,0 a 1.9490138,1.9490138 0 0 0 1.9492,-1.94922 l 0,-21.08203 1.582,0 a 1.9490138,1.9490138 0 0 0 1.9493,-1.94922 l 0,-12.375 a 1.9490138,1.9490138 0 0 0 -1.9493,-1.94922 l -1.582,0 0,-21.08203 a 1.9490138,1.9490138 0 0 0 -1.9492,-1.94922 l -42.5313,0 a 1.9490138,1.9490138 0 0 0 -1.9492,1.94922 l 0,5.11328 -10.2597,0 -0.01,-8.66992 a 1.9490138,1.9490138 0 0 0 -1.9493,-1.94727 l -7.0937,0 a 1.9490138,1.9490138 0 0 0 -1.9492,1.95118 l 0.01,12.42968 c 0,1.87358 -1.4395,3.33268 -3.3613,3.33008 -1.9261,-0.003 -3.3646,-1.46582 -3.3653,-3.33203 a 1.9490138,1.9490138 0 0 0 0,-0.002 l -0.01,-12.42969 a 1.9490138,1.9490138 0 0 0 -1.9492,-1.94727 l -7.0938,0 z"
       id="path3494-1"
       inkscape:connector-curvature="0" />
    <path
       style="fill:#ff7f2a;fill-opacity:1;stroke:none"
       d="m 375.59055,588.18897 0.01,12.43067 c 10e-4,4.13548 2.0502,7.88383 5.3125,10.15625 l -0.012,106.74379 14.1875,0 0.012,-106.74379 c 0.5716,-0.39796 1.101,-0.82896 1.5937,-1.3125 l 17.875,0 0,40.71875 42.5312,0 0,-23.03125 3.5313,0 0,-12.375 -3.5313,0 0,-23.03125 -42.5312,0 0,7.0625 -14.1562,0 -0.01,-10.61817 -7.0938,0 0.01,12.43067 c -0.001,2.91981 -2.3509,5.28525 -5.3125,5.28125 -2.9615,-0.004 -5.3115,-2.36754 -5.3125,-5.28125 l -0.01,-12.43067 z"
       id="rect4322-8-8-0-2-0-0-2-5-7"
       inkscape:connector-curvature="0"
       sodipodi:nodetypes="cccccccccccccccccccccsccc" />
    <path
       sodipodi:type="inkscape:offset"
       inkscape:radius="3.5433071"
       inkscape:original="M 400.39453 588.18945 L 400.4043 600.61914 C 400.4053 604.75462 402.4545 608.50297 405.7168 610.77539 L 405.70508 717.51953 L 419.89258 717.51953 L 419.9043 610.77539 C 420.4759 610.37743 421.00535 609.94643 421.49805 609.46289 L 439.37305 609.46289 L 439.37305 650.18164 L 481.9043 650.18164 L 481.9043 627.15039 L 485.43555 627.15039 L 485.43555 614.77539 L 481.9043 614.77539 L 481.9043 591.74414 L 439.37305 591.74414 L 439.37305 598.80664 L 425.2168 598.80664 L 425.20703 588.18945 L 418.11328 588.18945 L 418.12305 600.61914 C 418.12205 603.53895 415.77215 605.90439 412.81055 605.90039 C 409.84905 605.89639 407.49905 603.53285 407.49805 600.61914 L 407.48828 588.18945 L 400.39453 588.18945 z "
       style="fill:#ff7f2a;fill-opacity:1;stroke:#000000;stroke-opacity:1;stroke-width:7.08661417;stroke-miterlimit:4;stroke-dasharray:none;stroke-linejoin:round"
       id="path4348"
       d="m 400.39453,584.64648 a 3.5436614,3.5436614 0 0 0 -3.54297,3.54493 l 0.01,12.42968 c 0.002,4.59442 2.06008,8.75854 5.3125,11.70899 l -0.0117,105.18945 a 3.5436614,3.5436614 0 0 0 3.54297,3.54297 l 14.1875,0 a 3.5436614,3.5436614 0 0 0 3.54297,-3.54297 l 0.0117,-104.51367 12.38281,0 0,37.17578 a 3.5436614,3.5436614 0 0 0 3.54297,3.54297 l 42.53125,0 a 3.5436614,3.5436614 0 0 0 3.54297,-3.54297 l 0,-19.48828 a 3.5436614,3.5436614 0 0 0 3.53125,-3.54297 l 0,-12.375 a 3.5436614,3.5436614 0 0 0 -3.53125,-3.54297 l 0,-19.48828 a 3.5436614,3.5436614 0 0 0 -3.54297,-3.54297 l -42.53125,0 a 3.5436614,3.5436614 0 0 0 -3.54297,3.54297 l 0,3.51953 -7.07227,0 -0.008,-7.07812 a 3.5436614,3.5436614 0 0 0 -3.54297,-3.53907 l -7.09375,0 a 3.5436614,3.5436614 0 0 0 -3.54297,3.54493 l 0.01,12.42578 c -3.5e-4,1.01933 -0.69325,1.74168 -1.76563,1.74023 -1.07878,-0.001 -1.77309,-0.73106 -1.77343,-1.74023 l -0.01,-12.42969 a 3.5436614,3.5436614 0 0 0 -3.54297,-3.54102 l -7.09375,0 z"
       transform="translate(74.409441,3.8646401e-6)" />
    <path
       style="fill:#ff7f2a;fill-opacity:1;stroke:#000000;stroke-width:7.08661413;stroke-linejoin:round;stroke-miterlimit:4;stroke-dasharray:none;stroke-opacity:1"
       d="m 581.09523,584.64567 a 3.5436614,3.5436614 0 0 0 -3.54297,3.54493 l 0.01,12.42968 c 0.002,4.59442 2.06008,8.75854 5.3125,11.70899 l -0.0117,105.18945 a 3.5436614,3.5436614 0 0 0 3.54297,3.54297 l 14.1875,0 a 3.5436614,3.5436614 0 0 0 3.54297,-3.54297 l 0.0117,-104.51367 12.38281,0 0,37.17578 a 3.5436614,3.5436614 0 0 0 3.54297,3.54297 l 42.53125,0 a 3.5436614,3.5436614 0 0 0 3.54297,-3.54297 l 0,-19.48828 a 3.5436614,3.5436614 0 0 0 3.53125,-3.54297 l 0,-12.375 a 3.5436614,3.5436614 0 0 0 -3.53125,-3.54297 l 0,-19.48828 a 3.5436614,3.5436614 0 0 0 -3.54297,-3.54297 l -42.53125,0 a 3.5436614,3.5436614 0 0 0 -3.54297,3.54297 l 0,3.51953 -7.07227,0 -0.008,-7.07812 a 3.5436614,3.5436614 0 0 0 -3.54297,-3.53907 l -7.09375,0 a 3.5436614,3.5436614 0 0 0 -3.54297,3.54493 l 0.01,12.42578 c -3.5e-4,1.01933 -0.69325,1.74168 -1.76563,1.74023 -1.07878,-0.001 -1.77309,-0.73106 -1.77343,-1.74023 l -0.01,-12.42969 a 3.5436614,3.5436614 0 0 0 -3.54297,-3.54102 l -7.09375,0 z"
       id="path4348-3"
       inkscape:connector-curvature="0" />
    <path
       style="fill:#ff7f2a;fill-opacity:1;stroke:none"
       d="m -333.07075,419.89634 0.008,12.43067 c 10e-4,4.13548 2.05024,7.88383 5.3125,10.15625 l -0.0123,106.74379 14.1875,0 0.0123,-106.74379 c 0.57162,-0.39796 1.10101,-0.82896 1.59375,-1.3125 l 17.875,0 0,40.71875 42.53125,0 0,-7.15231 14.16119,0.0659 -1e-5,-7.08661 -14.16118,-0.13167 0,-8.72664 3.53125,0 0,-12.375 -3.53125,0 0,-23.03125 -42.53125,0 0,7.0625 -14.15625,0 -0.01,-10.61817 -7.09375,0 0.01,12.43067 c -0.001,2.91981 -2.35094,5.28525 -5.3125,5.28125 -2.96155,-0.004 -5.3115,-2.36754 -5.3125,-5.28125 l -0.008,-12.43067 z"
       id="rect4322-8-8-0-2-0-5"
       inkscape:connector-curvature="0"
       sodipodi:nodetypes="cccccccccccccccccccccccccsccc" />
    <path
       style="fill:#ff7f2a;fill-opacity:1;stroke:none"
       d="m 375.59055,255.1181 0.008,12.43067 c 0.001,4.13548 2.05024,7.88383 5.3125,10.15625 l -0.0123,106.74379 14.1875,0 0.0123,-106.74379 c 0.57162,-0.39796 1.10101,-0.82896 1.59375,-1.3125 l 17.875,0 0,40.71875 42.53125,0 0,-7.15231 14.16119,0.0659 -1e-5,-7.08661 -14.16118,-0.13167 0,-8.72664 3.53125,0 0,-12.375 -3.53125,0 0,-23.03125 -42.53125,0 0,7.0625 -14.15625,0 -0.01,-10.61817 -7.09375,0 0.01,12.43067 c -10e-4,2.91981 -2.35094,5.28525 -5.3125,5.28125 -2.96155,-0.004 -5.3115,-2.36754 -5.3125,-5.28125 l -0.008,-12.43067 z"
       id="rect4322-8-8-0-2-0-5-0"
       inkscape:connector-curvature="0"
       sodipodi:nodetypes="cccccccccccccccccccccccccsccc" />
    <path
       sodipodi:type="inkscape:offset"
       inkscape:radius="3.5433071"
       inkscape:original="M 496.0625 255.11719 L 496.07031 267.54883 C 496.07131 271.68431 498.12055 275.43266 501.38281 277.70508 L 501.37109 384.44922 L 515.55859 384.44922 L 515.57031 277.70508 C 516.14193 277.30712 516.67132 276.87612 517.16406 276.39258 L 535.03906 276.39258 L 535.03906 317.11133 L 577.57031 317.11133 L 577.57031 309.95898 L 591.73242 310.02539 L 591.73242 302.9375 L 577.57031 302.80664 L 577.57031 294.08008 L 581.10156 294.08008 L 581.10156 281.70508 L 577.57031 281.70508 L 577.57031 258.67383 L 535.03906 258.67383 L 535.03906 265.73633 L 520.88281 265.73633 L 520.87305 255.11719 L 513.7793 255.11719 L 513.78906 267.54883 C 513.78806 270.46864 511.43812 272.83408 508.47656 272.83008 C 505.51501 272.82608 503.16506 270.46254 503.16406 267.54883 L 503.15625 255.11719 L 496.0625 255.11719 z "
       style="fill:#ff7f2a;fill-opacity:1;stroke:#000000;stroke-opacity:1;stroke-width:7.08661417;stroke-miterlimit:4;stroke-dasharray:none;stroke-linejoin:round"
       id="path3522"
       d="m 496.0625,255.11719 0.008,12.43164 c 10e-4,4.13548 2.05024,7.88383 5.3125,10.15625 l -0.0117,106.74414 14.1875,0 0.0117,-106.74414 c 0.57162,-0.39796 1.10101,-0.82896 1.59375,-1.3125 l 17.875,0 0,40.71875 42.53125,0 0,-7.15235 14.16211,0.0664 0,-7.08789 -14.16211,-0.13086 0,-8.72656 3.53125,0 0,-12.375 -3.53125,0 0,-23.03125 -42.53125,0 0,7.0625 -14.15625,0 -0.01,-10.61914 -7.09375,0 0.01,12.43164 c -10e-4,2.91981 -2.35094,5.28525 -5.3125,5.28125 -2.96155,-0.004 -5.3115,-2.36754 -5.3125,-5.28125 l -0.008,-12.43164 -7.09375,0 z" />
    <path
       transform="translate(116.92962,5.7432817e-4)"
       style="fill:#ff7f2a;fill-opacity:1;stroke:#000000;stroke-width:7.08661417;stroke-linejoin:round;stroke-miterlimit:4;stroke-dasharray:none;stroke-opacity:1"
       d="m 496.0625,251.57422 a 3.5436614,3.5436614 0 0 0 -3.54297,3.54492 l 0.008,12.43164 c 0.002,4.59444 2.06011,8.75855 5.3125,11.70899 l -0.0117,105.18945 a 3.5436614,3.5436614 0 0 0 3.54297,3.54297 l 14.1875,0 a 3.5436614,3.5436614 0 0 0 3.54297,-3.54297 l 0.0117,-104.51367 12.38281,0 0,37.17578 a 3.5436614,3.5436614 0 0 0 3.54297,3.54297 l 42.53125,0 a 3.5436614,3.5436614 0 0 0 3.54297,-3.54297 l 0,-3.5918 10.60156,0.0488 a 3.5436614,3.5436614 0 0 0 3.56055,-3.54297 l 0,-7.08789 a 3.5436614,3.5436614 0 0 0 -3.50977,-3.54297 l -10.65234,-0.0976 0,-1.67383 a 3.5436614,3.5436614 0 0 0 3.53125,-3.54297 l 0,-12.375 a 3.5436614,3.5436614 0 0 0 -3.53125,-3.54297 l 0,-19.48828 a 3.5436614,3.5436614 0 0 0 -3.54297,-3.54297 l -42.53125,0 a 3.5436614,3.5436614 0 0 0 -3.54297,3.54297 l 0,3.51953 -7.07226,0 -0.008,-7.08008 a 3.5436614,3.5436614 0 0 0 -3.54297,-3.53906 l -7.09375,0 a 3.5436614,3.5436614 0 0 0 -3.54297,3.54492 l 0.01,12.42774 c -3.5e-4,1.0193 -0.69331,1.74168 -1.76562,1.74023 -1.07887,-0.001 -1.77309,-0.73102 -1.77344,-1.74023 l -0.008,-12.43165 a 3.5436614,3.5436614 0 0 0 -3.54297,-3.54101 l -7.09375,0 z"
       id="path3522-1" />
    <path
       style="fill:#d40000;fill-opacity:1;stroke:none"
       d="m 612.99212,255.1181 0.008,12.43067 c 10e-4,4.13548 2.05024,7.88383 5.3125,10.15625 l -0.0123,106.74379 14.1875,0 0.0123,-106.74379 c 0.57162,-0.39796 1.10101,-0.82896 1.59375,-1.3125 l 17.875,0 0,40.71875 42.53125,0 0,-7.15231 14.16119,0.0659 -10e-6,-7.08661 -14.16118,-0.13167 0,-8.72664 3.53125,0 0,-12.375 -3.53125,0 0,-23.03125 -42.53125,0 0,7.0625 -14.15625,0 -0.01,-10.61817 -7.09375,0 0.01,12.43067 c -0.001,2.91981 -2.35094,5.28525 -5.3125,5.28125 -2.96155,-0.004 -5.3115,-2.36754 -5.3125,-5.28125 l -0.008,-12.43067 z"
       id="rect4322-8-8-0-2-0-5-0-2"
       inkscape:connector-curvature="0"
       sodipodi:nodetypes="cccccccccccccccccccccccccsccc" />
    <path
       style="fill:#ff7f2a;fill-opacity:1;stroke:none"
       d="m 2037.3916,255.08901 0.01,12.43067 c 10e-4,4.13548 2.0502,7.88383 5.3125,10.15625 l -0.012,106.74379 14.1875,0 0.012,-106.74379 c 0.5716,-0.39796 1.101,-0.82896 1.5937,-1.3125 l 17.875,0 0,40.71875 42.5313,0 0,-7.15231 14.1612,0.0659 0,-7.08661 -14.1612,-0.13167 0,-8.72664 3.5312,0 0,-12.375 -3.5312,0 0,-23.03125 -42.5313,0 0,7.0625 -14.1562,0 -0.01,-10.61817 -7.0938,0 0.01,12.43067 c 0,2.91981 -2.3509,5.28525 -5.3125,5.28125 -2.9615,-0.004 -5.3115,-2.36754 -5.3125,-5.28125 l -0.01,-12.43067 z"
       id="rect4322-8-8-0-2-0-5-0-28"
       inkscape:connector-curvature="0"
       sodipodi:nodetypes="cccccccccccccccccccccccccsccc" />
    <path
       transform="translate(1661.801,-0.02908888)"
       sodipodi:type="inkscape:offset"
       inkscape:radius="1.7716535"
       inkscape:original="M 496.0625 255.11719 L 496.07031 267.54883 C 496.07131 271.68431 498.12055 275.43266 501.38281 277.70508 L 501.37109 384.44922 L 515.55859 384.44922 L 515.57031 277.70508 C 516.14193 277.30712 516.67132 276.87612 517.16406 276.39258 L 535.03906 276.39258 L 535.03906 317.11133 L 577.57031 317.11133 L 577.57031 309.95898 L 591.73242 310.02539 L 591.73242 302.9375 L 577.57031 302.80664 L 577.57031 294.08008 L 581.10156 294.08008 L 581.10156 281.70508 L 577.57031 281.70508 L 577.57031 258.67383 L 535.03906 258.67383 L 535.03906 265.73633 L 520.88281 265.73633 L 520.87305 255.11719 L 513.7793 255.11719 L 513.78906 267.54883 C 513.78806 270.46864 511.43812 272.83408 508.47656 272.83008 C 505.51501 272.82608 503.16506 270.46254 503.16406 267.54883 L 503.15625 255.11719 L 496.0625 255.11719 z "
       style="fill:#ff7f2a;fill-opacity:1;stroke:#000000;stroke-opacity:1;stroke-width:3.54330709;stroke-miterlimit:4;stroke-dasharray:none;stroke-linejoin:round"
       id="path3522-0"
       d="m 496.0625,251.57422 a 3.5436614,3.5436614 0 0 0 -3.54297,3.54492 l 0.008,12.43164 c 0.002,4.59444 2.06011,8.75855 5.3125,11.70899 l -0.0117,105.18945 a 3.5436614,3.5436614 0 0 0 3.54297,3.54297 l 14.1875,0 a 3.5436614,3.5436614 0 0 0 3.54297,-3.54297 l 0.0117,-104.51367 12.38281,0 0,37.17578 a 3.5436614,3.5436614 0 0 0 3.54297,3.54297 l 42.53125,0 a 3.5436614,3.5436614 0 0 0 3.54297,-3.54297 l 0,-3.5918 10.60156,0.0488 a 3.5436614,3.5436614 0 0 0 3.56055,-3.54297 l 0,-7.08789 a 3.5436614,3.5436614 0 0 0 -3.50977,-3.54297 l -10.65234,-0.0976 0,-1.67383 a 3.5436614,3.5436614 0 0 0 3.53125,-3.54297 l 0,-12.375 a 3.5436614,3.5436614 0 0 0 -3.53125,-3.54297 l 0,-19.48828 a 3.5436614,3.5436614 0 0 0 -3.54297,-3.54297 l -42.53125,0 a 3.5436614,3.5436614 0 0 0 -3.54297,3.54297 l 0,3.51953 -7.07226,0 -0.008,-7.08008 a 3.5436614,3.5436614 0 0 0 -3.54297,-3.53906 l -7.09375,0 a 3.5436614,3.5436614 0 0 0 -3.54297,3.54492 l 0.01,12.42774 c -3.5e-4,1.0193 -0.69331,1.74168 -1.76562,1.74023 -1.07887,-0.001 -1.77309,-0.73102 -1.77344,-1.74023 l -0.008,-12.43165 a 3.5436614,3.5436614 0 0 0 -3.54297,-3.54101 l -7.09375,0 z" />
    <path
       transform="translate(1775.1972,-0.00103855)"
       style="fill:#ff7f2a;fill-opacity:1;stroke:#000000;stroke-width:3.54330709;stroke-miterlimit:4;stroke-dasharray:none;stroke-linejoin:round;stroke-opacity:1"
       d="m 496.0625,253.3457 a 1.7718307,1.7718307 0 0 0 -1.77148,1.77344 l 0.008,12.43164 c 0.002,4.36423 2.06473,8.30198 5.3125,10.93164 l -0.0117,105.9668 a 1.7718307,1.7718307 0 0 0 1.77148,1.77148 l 14.1875,0 a 1.7718307,1.7718307 0 0 0 1.77149,-1.77148 l 0.0117,-105.91797 c 0.15046,-0.12011 0.30122,-0.24029 0.44726,-0.36719 l 15.47852,0 0,38.94727 a 1.7718307,1.7718307 0 0 0 1.77148,1.77148 l 42.53125,0 a 1.7718307,1.7718307 0 0 0 1.77149,-1.77148 l 0,-5.37305 12.38281,0.0586 a 1.7718307,1.7718307 0 0 0 1.7793,-1.77149 l 0,-7.08789 a 1.7718307,1.7718307 0 0 0 -1.75586,-1.77148 l -12.40625,-0.11524 0,-5.19922 1.75976,0 a 1.7718307,1.7718307 0 0 0 1.77149,-1.77148 l 0,-12.375 a 1.7718307,1.7718307 0 0 0 -1.77149,-1.77149 l -1.75976,0 0,-21.25976 a 1.7718307,1.7718307 0 0 0 -1.77149,-1.77149 l -42.53125,0 a 1.7718307,1.7718307 0 0 0 -1.77148,1.77149 l 0,5.29101 -10.61524,0 -0.008,-8.84961 a 1.7718307,1.7718307 0 0 0 -1.77148,-1.76953 l -7.09375,0 a 1.7718307,1.7718307 0 0 0 -1.77149,1.77344 l 0.01,12.43164 c -0.002,1.96859 -1.52282,3.51054 -3.53906,3.50781 -2.02021,-0.003 -3.5423,-1.5483 -3.54297,-3.50976 a 1.7718307,1.7718307 0 0 0 0,-0.002 l -0.008,-12.43165 a 1.7718307,1.7718307 0 0 0 -1.77148,-1.76953 l -7.09375,0 z"
       id="path3522-0-7" />
    <path
       style="fill:#ff7f2a;fill-opacity:1;stroke:none"
       d="m 1523.615,255.11818 0.01,12.43066 c 10e-4,4.13548 2.0502,7.88383 5.3125,10.15625 l -0.012,106.74379 14.1875,0 0.012,-106.74379 c 0.5716,-0.39796 1.101,-0.82896 1.5937,-1.3125 l 17.875,0 0,40.71875 42.5313,0 0,-7.15231 14.1612,0.0659 0,-7.08661 -14.1612,-0.13167 0,-8.72664 3.5312,0 0,-12.375 -3.5312,0 0,-23.03124 -42.5313,0 0,7.06249 -14.1562,0 -0.01,-10.61816 -7.0938,0 0.01,12.43066 c 0,2.91981 -2.3509,5.28525 -5.3125,5.28125 -2.9615,-0.004 -5.3115,-2.36754 -5.3125,-5.28125 l -0.01,-12.43066 z"
       id="rect4322-8-8-0-2-0-5-0-28-2"
       inkscape:connector-curvature="0"
       sodipodi:nodetypes="cccccccccccccccccccccccccsccc" />
    <path
       transform="translate(1148.0244,7.4453814e-5)"
       sodipodi:type="inkscape:offset"
       inkscape:radius="1.9133859"
       inkscape:original="M 496.0625 255.11719 L 496.07031 267.54883 C 496.07131 271.68431 498.12055 275.43266 501.38281 277.70508 L 501.37109 384.44922 L 515.55859 384.44922 L 515.57031 277.70508 C 516.14193 277.30712 516.67132 276.87612 517.16406 276.39258 L 535.03906 276.39258 L 535.03906 317.11133 L 577.57031 317.11133 L 577.57031 309.95898 L 591.73242 310.02539 L 591.73242 302.9375 L 577.57031 302.80664 L 577.57031 294.08008 L 581.10156 294.08008 L 581.10156 281.70508 L 577.57031 281.70508 L 577.57031 258.67383 L 535.03906 258.67383 L 535.03906 265.73633 L 520.88281 265.73633 L 520.87305 255.11719 L 513.7793 255.11719 L 513.78906 267.54883 C 513.78806 270.46864 511.43812 272.83408 508.47656 272.83008 C 505.51501 272.82608 503.16506 270.46254 503.16406 267.54883 L 503.15625 255.11719 L 496.0625 255.11719 z "
       style="fill:#ff7f2a;fill-opacity:1;stroke:#000000;stroke-width:3.82677165;stroke-linejoin:round;stroke-miterlimit:4;stroke-dasharray:none;stroke-opacity:1"
       id="path3522-0-6"
       d="m 496.0625,253.3457 a 1.7718307,1.7718307 0 0 0 -1.77148,1.77344 l 0.008,12.43164 c 0.002,4.36423 2.06473,8.30198 5.3125,10.93164 l -0.0117,105.9668 a 1.7718307,1.7718307 0 0 0 1.77148,1.77148 l 14.1875,0 a 1.7718307,1.7718307 0 0 0 1.77149,-1.77148 l 0.0117,-105.91797 c 0.15046,-0.12011 0.30122,-0.24029 0.44726,-0.36719 l 15.47852,0 0,38.94727 a 1.7718307,1.7718307 0 0 0 1.77148,1.77148 l 42.53125,0 a 1.7718307,1.7718307 0 0 0 1.77149,-1.77148 l 0,-5.37305 12.38281,0.0586 a 1.7718307,1.7718307 0 0 0 1.7793,-1.77149 l 0,-7.08789 a 1.7718307,1.7718307 0 0 0 -1.75586,-1.77148 l -12.40625,-0.11524 0,-5.19922 1.75976,0 a 1.7718307,1.7718307 0 0 0 1.77149,-1.77148 l 0,-12.375 a 1.7718307,1.7718307 0 0 0 -1.77149,-1.77149 l -1.75976,0 0,-21.25976 a 1.7718307,1.7718307 0 0 0 -1.77149,-1.77149 l -42.53125,0 a 1.7718307,1.7718307 0 0 0 -1.77148,1.77149 l 0,5.29101 -10.61524,0 -0.008,-8.84961 a 1.7718307,1.7718307 0 0 0 -1.77148,-1.76953 l -7.09375,0 a 1.7718307,1.7718307 0 0 0 -1.77149,1.77344 l 0.01,12.43164 c -0.002,1.96859 -1.52282,3.51054 -3.53906,3.50781 -2.02021,-0.003 -3.5423,-1.5483 -3.54297,-3.50976 a 1.7718307,1.7718307 0 0 0 0,-0.002 l -0.008,-12.43165 a 1.7718307,1.7718307 0 0 0 -1.77148,-1.76953 l -7.09375,0 z" />
    <path
       style="fill:#ff7f2a;fill-opacity:1;stroke:#000000;stroke-width:3.82677174;stroke-linejoin:round;stroke-miterlimit:4;stroke-dasharray:none;stroke-opacity:1"
       d="m 1757.6228,253.20208 a 1.9135772,1.9135772 0 0 0 -1.9141,1.91602 l 0.01,12.43164 c 0,4.38246 2.0652,8.33765 5.3125,10.99414 l -0.012,105.9043 a 1.9135772,1.9135772 0 0 0 1.9141,1.91406 l 14.1875,0 a 1.9135772,1.9135772 0 0 0 1.914,-1.91406 l 0.012,-105.84961 c 0.119,-0.0959 0.2373,-0.19279 0.3535,-0.29297 l 15.2871,0 0,38.80469 a 1.9135772,1.9135772 0 0 0 1.9141,1.91406 l 42.5313,0 a 1.9135772,1.9135772 0 0 0 1.914,-1.91406 l 0,-5.22852 12.2383,0.0566 a 1.9135772,1.9135772 0 0 0 1.9238,-1.91406 l 0,-7.08789 a 1.9135772,1.9135772 0 0 0 -1.8966,-1.91402 l -12.2657,-0.11328 0,-4.91602 1.6172,0 a 1.9135772,1.9135772 0 0 0 1.9141,-1.91406 l 0,-12.375 a 1.9135772,1.9135772 0 0 0 -1.9141,-1.91406 l -1.6172,0 0,-21.11719 a 1.9135772,1.9135772 0 0 0 -1.914,-1.91406 l -42.5313,0 a 1.9135772,1.9135772 0 0 0 -1.914,1.91406 l 0,5.14844 -10.3301,0 -0.01,-8.70704 a 1.9135772,1.9135772 0 0 0 -1.9141,-1.91211 l -7.0937,0 a 1.9135772,1.9135772 0 0 0 -1.9141,1.91602 l 0.01,12.43164 c 0,1.89257 -1.4558,3.36786 -3.3965,3.36524 -1.9449,-0.003 -3.3997,-1.48191 -3.4004,-3.36719 a 1.9135772,1.9135772 0 0 0 0,-0.002 l -0.01,-12.43165 a 1.9135772,1.9135772 0 0 0 -1.914,-1.91211 l -7.0938,0 z"
       id="path3522-0-6-0"
       inkscape:connector-curvature="0" />
    <path
       style="fill:#ff7f2a;fill-opacity:1;stroke:none"
       d="m 1009.8425,255.1181 0.01,12.43067 c 0,4.13548 2.0502,7.88383 5.3125,10.15625 l -0.012,106.74379 14.1875,0 0.012,-106.74379 c 0.5716,-0.39796 1.101,-0.82896 1.5937,-1.3125 l 17.875,0 0,40.71875 42.5313,0 0,-7.15231 14.1611,0.0659 0,-7.08661 -14.1611,-0.13167 0,-8.72664 3.5312,0 0,-12.375 -3.5312,0 0,-23.03125 -42.5313,0 0,7.0625 -14.1562,0 -0.01,-10.61817 -7.0938,0 0.01,12.43067 c 0,2.91981 -2.3509,5.28525 -5.3125,5.28125 -2.9615,-0.004 -5.3115,-2.36754 -5.3125,-5.28125 l -0.01,-12.43067 z"
       id="rect4322-8-8-0-2-0-5-0-9"
       inkscape:connector-curvature="0"
       sodipodi:nodetypes="cccccccccccccccccccccccccsccc" />
    <path
       transform="translate(634.25197,3.1538132e-6)"
       sodipodi:type="inkscape:offset"
       inkscape:radius="1.9488189"
       inkscape:original="M 496.0625 255.11719 L 496.07031 267.54883 C 496.07131 271.68431 498.12055 275.43266 501.38281 277.70508 L 501.37109 384.44922 L 515.55859 384.44922 L 515.57031 277.70508 C 516.14193 277.30712 516.67132 276.87612 517.16406 276.39258 L 535.03906 276.39258 L 535.03906 317.11133 L 577.57031 317.11133 L 577.57031 309.95898 L 591.73242 310.02539 L 591.73242 302.9375 L 577.57031 302.80664 L 577.57031 294.08008 L 581.10156 294.08008 L 581.10156 281.70508 L 577.57031 281.70508 L 577.57031 258.67383 L 535.03906 258.67383 L 535.03906 265.73633 L 520.88281 265.73633 L 520.87305 255.11719 L 513.7793 255.11719 L 513.78906 267.54883 C 513.78806 270.46864 511.43812 272.83408 508.47656 272.83008 C 505.51501 272.82608 503.16506 270.46254 503.16406 267.54883 L 503.15625 255.11719 L 496.0625 255.11719 z "
       style="fill:#ff7f2a;fill-opacity:1;stroke:#000000;stroke-width:3.8976378;stroke-linejoin:round;stroke-miterlimit:4;stroke-dasharray:none;stroke-opacity:1"
       id="path3522-2"
       d="m 496.0625,251.57422 a 3.5436614,3.5436614 0 0 0 -3.54297,3.54492 l 0.008,12.43164 c 0.002,4.59444 2.06011,8.75855 5.3125,11.70899 l -0.0117,105.18945 a 3.5436614,3.5436614 0 0 0 3.54297,3.54297 l 14.1875,0 a 3.5436614,3.5436614 0 0 0 3.54297,-3.54297 l 0.0117,-104.51367 12.38281,0 0,37.17578 a 3.5436614,3.5436614 0 0 0 3.54297,3.54297 l 42.53125,0 a 3.5436614,3.5436614 0 0 0 3.54297,-3.54297 l 0,-3.5918 10.60156,0.0488 a 3.5436614,3.5436614 0 0 0 3.56055,-3.54297 l 0,-7.08789 a 3.5436614,3.5436614 0 0 0 -3.50977,-3.54297 l -10.65234,-0.0976 0,-1.67383 a 3.5436614,3.5436614 0 0 0 3.53125,-3.54297 l 0,-12.375 a 3.5436614,3.5436614 0 0 0 -3.53125,-3.54297 l 0,-19.48828 a 3.5436614,3.5436614 0 0 0 -3.54297,-3.54297 l -42.53125,0 a 3.5436614,3.5436614 0 0 0 -3.54297,3.54297 l 0,3.51953 -7.07226,0 -0.008,-7.08008 a 3.5436614,3.5436614 0 0 0 -3.54297,-3.53906 l -7.09375,0 a 3.5436614,3.5436614 0 0 0 -3.54297,3.54492 l 0.01,12.42774 c -3.5e-4,1.0193 -0.69331,1.74168 -1.76562,1.74023 -1.07887,-0.001 -1.77309,-0.73102 -1.77344,-1.74023 l -0.008,-12.43165 a 3.5436614,3.5436614 0 0 0 -3.54297,-3.54101 l -7.09375,0 z" />
    <path
       transform="translate(754.89469,-0.03110361)"
       style="fill:#ff7f2a;fill-opacity:1;stroke:#000000;stroke-width:3.89763784;stroke-linejoin:round;stroke-miterlimit:4;stroke-dasharray:none;stroke-opacity:1"
       d="m 496.0625,253.16797 a 1.9490138,1.9490138 0 0 0 -1.94922,1.95117 l 0.008,12.43164 c 0.002,4.38706 2.06523,8.34661 5.3125,11.00977 l -0.0117,105.88867 a 1.9490138,1.9490138 0 0 0 1.94921,1.94922 l 14.1875,0 a 1.9490138,1.9490138 0 0 0 1.94922,-1.94922 l 0.0117,-105.83399 c 0.11133,-0.09 0.22307,-0.17973 0.33203,-0.27343 l 15.23828,0 0,38.76953 a 1.9490138,1.9490138 0 0 0 1.94922,1.94922 l 42.53125,0 a 1.9490138,1.9490138 0 0 0 1.94922,-1.94922 l 0,-5.19336 12.20313,0.0566 a 1.9490138,1.9490138 0 0 0 1.95898,-1.94922 l 0,-7.08789 A 1.9490138,1.9490138 0 0 0 591.75,300.98828 l -12.23047,-0.11328 0,-4.8457 1.58203,0 a 1.9490138,1.9490138 0 0 0 1.94922,-1.94922 l 0,-12.375 a 1.9490138,1.9490138 0 0 0 -1.94922,-1.94922 l -1.58203,0 0,-21.08203 a 1.9490138,1.9490138 0 0 0 -1.94922,-1.94922 l -42.53125,0 a 1.9490138,1.9490138 0 0 0 -1.94922,1.94922 l 0,5.11328 -10.25976,0 -0.008,-8.67188 a 1.9490138,1.9490138 0 0 0 -1.94922,-1.94726 l -7.09375,0 a 1.9490138,1.9490138 0 0 0 -1.94922,1.95117 l 0.01,12.43164 c -0.002,1.87356 -1.43954,3.33268 -3.36132,3.33008 -1.92608,-0.003 -3.3646,-1.46579 -3.36524,-3.33203 a 1.9490138,1.9490138 0 0 0 0,-0.002 l -0.008,-12.43165 a 1.9490138,1.9490138 0 0 0 -1.94922,-1.94726 l -7.09375,0 z"
       id="path3522-2-1" />
    <text
       xml:space="preserve"
       style="font-style:normal;font-weight:normal;font-size:21.89512825px;line-height:125%;font-family:Sans;letter-spacing:0px;word-spacing:0px;fill:#000000;fill-opacity:1;stroke:none;stroke-width:1px;stroke-linecap:butt;stroke-linejoin:miter;stroke-opacity:1"
       x="2573.0618"
       y="518.95563"
       id="text3391-2-4-7-2"
       sodipodi:linespacing="125%"><tspan
         sodipodi:role="line"
         id="tspan3393-1-0-7-9"
         x="2573.0618"
         y="518.95563">компенсация диаметра</tspan><tspan
         sodipodi:role="line"
         x="2573.0618"
         y="546.32452"
         id="tspan4290-6-0-8">для фрезы 0.6мм</tspan></text>
    <path
       transform="translate(2324.4087,9.1772142e-4)"
       sodipodi:type="inkscape:offset"
       inkscape:radius="1.0629922"
       inkscape:original="M 301.18164 786.61328 L 301.18164 857.48047 L 368.50391 857.48047 L 368.50391 786.61328 L 354.33203 786.61328 L 354.33008 829.13477 L 315.35547 829.13477 L 315.35547 786.61328 L 301.18164 786.61328 z "
       style="fill:#aad400;fill-opacity:1;stroke:#000000;stroke-width:2.12598425;stroke-miterlimit:4;stroke-dasharray:none;stroke-opacity:1"
       id="path4284-7-93-20-71"
       d="m 301.18164,784.8418 a 1.7718307,1.7718307 0 0 0 -1.77148,1.77148 l 0,70.86719 a 1.7718307,1.7718307 0 0 0 1.77148,1.77148 l 67.32227,0 a 1.7718307,1.7718307 0 0 0 1.77148,-1.77148 l 0,-70.86719 a 1.7718307,1.7718307 0 0 0 -1.77148,-1.77148 l -14.17188,0 a 1.7718307,1.7718307 0 0 0 -1.77148,1.77148 l -0.002,40.75 -35.43164,0 0,-40.75 a 1.7718307,1.7718307 0 0 0 -1.77148,-1.77148 l -14.17383,0 z" />
    <path
       inkscape:connector-curvature="0"
       style="fill:#aad400;fill-opacity:1;stroke:none"
       d="m 2515.7481,786.61417 6e-4,70.86614 67.3222,0 0,-70.86614 -14.1718,0 0,42.51969 -38.9766,0 2e-4,-42.51969 z"
       id="rect3338-3-9-6-9-5-0"
       sodipodi:nodetypes="ccccccccc" />
    <path
       style="fill:#ffcc00;fill-opacity:1;stroke:none"
       d="m 2609.6617,967.34992 -12.4004,0.002 0,31.88869 35.4336,0 0,-31.88869 -12.4023,-0.002 0,3.54296 -10.6309,0 z"
       id="rect4962-4-0-4-08-5"
       inkscape:connector-curvature="0"
       sodipodi:nodetypes="ccccccccc" />
    <path
       inkscape:connector-curvature="0"
       style="opacity:1;fill:#ff6600;fill-opacity:1;stroke:none;stroke-width:7.08661413;stroke-linejoin:round;stroke-miterlimit:4;stroke-dasharray:none;stroke-dashoffset:24.16535187;stroke-opacity:1"
       d="m 2620.2926,985.06705 a 5.31496,5.31496 0 0 1 -5.315,5.31497 5.31496,5.31496 0 0 1 -5.3149,-5.31497 5.31496,5.31496 0 0 1 5.3149,-5.31496 5.31496,5.31496 0 0 1 5.315,5.31496 z"
       id="path4224-4-9-8-3" />
    <path
       sodipodi:type="inkscape:offset"
       inkscape:radius="1.0629922"
       inkscape:original="M 2032.0859 967.32227 L 2019.6855 967.32422 L 2019.6855 999.21484 L 2055.1191 999.21484 L 2055.1191 967.32422 L 2042.7168 967.32227 L 2042.7168 970.86523 L 2032.0859 970.86523 L 2032.0859 967.32227 z "
       style="fill:#ffcc00;fill-opacity:1;stroke:#000000;stroke-width:2.12598419;stroke-miterlimit:4;stroke-dasharray:none;stroke-opacity:1"
       id="path4723-4"
       d="m 2032.0859,965.55078 -12.4004,0.002 a 1.7718307,1.7718307 0 0 0 -1.7714,1.77149 l 0,31.89062 a 1.7718307,1.7718307 0 0 0 1.7714,1.77146 l 35.4336,0 a 1.7718307,1.7718307 0 0 0 1.7715,-1.77146 l 0,-31.89062 a 1.7718307,1.7718307 0 0 0 -1.7715,-1.77149 l -12.4023,-0.002 a 1.7718307,1.7718307 0 0 0 -1.7715,1.77149 l 0,1.77148 -7.0879,0 0,-1.77148 a 1.7718307,1.7718307 0 0 0 -1.7715,-1.77149 z"
       transform="translate(648.4423,0.02909772)" />
    <path
       sodipodi:type="inkscape:offset"
       inkscape:radius="-1.0629922"
       inkscape:original="M 2037.4023 979.72461 A 5.31496 5.31496 0 0 0 2032.0879 985.04102 A 5.31496 5.31496 0 0 0 2037.4023 990.35547 A 5.31496 5.31496 0 0 0 2042.7168 985.04102 A 5.31496 5.31496 0 0 0 2037.4023 979.72461 z "
       style="opacity:1;fill:#ff6600;fill-opacity:1;stroke:#000000;stroke-width:2.12598419;stroke-linejoin:round;stroke-miterlimit:4;stroke-dasharray:none;stroke-dashoffset:24.16535187;stroke-opacity:1"
       id="path4725-4"
       d="m 2037.4023,978.66211 c -1.6699,1.8e-4 -3.3291,0.6881 -4.5097,1.86914 -1.1806,1.18104 -1.8677,2.83984 -1.8672,4.50977 2e-4,1.66953 0.6866,3.32922 1.8672,4.50976 1.1805,1.18054 2.8402,1.86701 4.5097,1.86719 1.6696,-1.5e-4 3.3293,-0.68664 4.5098,-1.86719 1.1806,-1.18054 1.867,-2.84021 1.8672,-4.50976 5e-4,-1.66995 -0.6866,-3.32873 -1.8672,-4.50977 -1.1806,-1.18104 -2.8398,-1.869 -4.5098,-1.86914 z"
       transform="translate(648.4423,0.02909772)" />
    <path
       style="fill:#ff7f2a;fill-opacity:1;stroke:none"
       d="m 2515.748,591.73227 0.01,12.43067 c 0,4.13548 2.0502,7.88383 5.3125,10.15625 l -0.012,106.74379 14.1875,0 0.012,-106.74379 c 0.5716,-0.39796 1.101,-0.82896 1.5937,-1.3125 l 17.875,0 0,40.71875 42.5312,0 0,-23.03125 3.5313,0 0,-12.375 -3.5313,0 0,-23.03125 -42.5312,0 0,7.0625 -14.1562,0 -0.01,-10.61817 -7.0938,0 0.01,12.43067 c 0,2.91981 -2.3509,5.28525 -5.3125,5.28125 -2.9615,-0.004 -5.3115,-2.36754 -5.3125,-5.28125 l -0.01,-12.43067 z"
       id="rect4322-8-8-0-2-0-0-8"
       inkscape:connector-curvature="0"
       sodipodi:nodetypes="cccccccccccccccccccccsccc" />
    <path
       sodipodi:type="inkscape:offset"
       inkscape:radius="1.0629922"
       inkscape:original="M 1959.4492 591.73242 L 1959.459 604.16211 C 1959.46 608.29759 1961.5092 612.04594 1964.7715 614.31836 L 1964.7598 721.0625 L 1978.9473 721.0625 L 1978.959 614.31836 C 1979.5306 613.9204 1980.06 613.4894 1980.5527 613.00586 L 1998.4277 613.00586 L 1998.4277 653.72461 L 2040.959 653.72461 L 2040.959 630.69336 L 2044.4902 630.69336 L 2044.4902 618.31836 L 2040.959 618.31836 L 2040.959 595.28711 L 1998.4277 595.28711 L 1998.4277 602.34961 L 1984.2715 602.34961 L 1984.2617 591.73242 L 1977.168 591.73242 L 1977.1777 604.16211 C 1977.1767 607.08192 1974.8268 609.44736 1971.8652 609.44336 C 1968.9037 609.43936 1966.5537 607.07582 1966.5527 604.16211 L 1966.543 591.73242 L 1959.4492 591.73242 z "
       style="fill:#ff7f2a;fill-opacity:1;stroke:#000000;stroke-width:2.12598419;stroke-linejoin:round;stroke-miterlimit:4;stroke-dasharray:none;stroke-opacity:1"
       id="path4325-6"
       d="m 1959.4492,590.66992 a 1.0630985,1.0630985 0 0 0 -1.0625,1.0625 l 0.01,12.42969 c 10e-4,4.2731 2.0611,8.13073 5.3125,10.62305 l -0.012,106.27734 a 1.0630985,1.0630985 0 0 0 1.0625,1.0625 l 14.1875,0 a 1.0630985,1.0630985 0 0 0 1.0625,-1.0625 l 0.012,-106.24609 c 0.3116,-0.23619 0.6153,-0.48384 0.9062,-0.74805 l 16.4375,0 0,39.65625 a 1.0630985,1.0630985 0 0 0 1.0625,1.0625 l 42.5313,0 a 1.0630985,1.0630985 0 0 0 1.0625,-1.0625 l 0,-21.96875 2.4687,0 a 1.0630985,1.0630985 0 0 0 1.0625,-1.0625 l 0,-12.375 a 1.0630985,1.0630985 0 0 0 -1.0625,-1.0625 l -2.4687,0 0,-21.96875 a 1.0630985,1.0630985 0 0 0 -1.0625,-1.0625 l -42.5313,0 a 1.0630985,1.0630985 0 0 0 -1.0625,1.0625 l 0,6 -12.0312,0 -0.01,-9.55664 a 1.0630985,1.0630985 0 0 0 -1.0625,-1.06055 l -7.0937,0 a 1.0630985,1.0630985 0 0 0 -1.0625,1.0625 l 0.01,12.42969 c -8e-4,2.34967 -1.8532,4.22198 -4.248,4.21875 -2.3967,-0.003 -4.2512,-1.8764 -4.252,-4.21875 l -0.01,-12.42969 a 1.0630985,1.0630985 0 0 0 -1.0625,-1.0625 l -7.0938,0 z"
       transform="translate(651.25903,-1.4160971e-4)" />
    <path
       style="fill:#ff7f2a;fill-opacity:1;stroke:none"
       d="m 2515.748,255.1181 0.01,12.43067 c 0,4.13548 2.0502,7.88383 5.3125,10.15625 l -0.012,106.74379 14.1875,0 0.012,-106.74379 c 0.5716,-0.39796 1.101,-0.82896 1.5937,-1.3125 l 17.875,0 0,40.71875 42.5313,0 0,-7.15231 14.1612,0.0659 0,-7.08661 -14.1612,-0.13167 0,-8.72664 3.5312,0 0,-12.375 -3.5312,0 0,-23.03125 -42.5313,0 0,7.0625 -14.1562,0 -0.01,-10.61817 -7.0938,0 0.01,12.43067 c 0,2.91981 -2.3509,5.28525 -5.3125,5.28125 -2.9615,-0.004 -5.3115,-2.36754 -5.3125,-5.28125 l -0.01,-12.43067 z"
       id="rect4322-8-8-0-2-0-5-0-28-3"
       inkscape:connector-curvature="0"
       sodipodi:nodetypes="cccccccccccccccccccccccccsccc" />
    <path
       transform="translate(2140.1574,3.543386)"
       sodipodi:type="inkscape:offset"
       inkscape:radius="1.0629922"
       inkscape:original="M 496.0625 255.11719 L 496.07031 267.54883 C 496.07131 271.68431 498.12055 275.43266 501.38281 277.70508 L 501.37109 384.44922 L 515.55859 384.44922 L 515.57031 277.70508 C 516.14193 277.30712 516.67132 276.87612 517.16406 276.39258 L 535.03906 276.39258 L 535.03906 317.11133 L 577.57031 317.11133 L 577.57031 309.95898 L 591.73242 310.02539 L 591.73242 302.9375 L 577.57031 302.80664 L 577.57031 294.08008 L 581.10156 294.08008 L 581.10156 281.70508 L 577.57031 281.70508 L 577.57031 258.67383 L 535.03906 258.67383 L 535.03906 265.73633 L 520.88281 265.73633 L 520.87305 255.11719 L 513.7793 255.11719 L 513.78906 267.54883 C 513.78806 270.46864 511.43812 272.83408 508.47656 272.83008 C 505.51501 272.82608 503.16506 270.46254 503.16406 267.54883 L 503.15625 255.11719 L 496.0625 255.11719 z "
       style="fill:#ff7f2a;fill-opacity:1;stroke:#000000;stroke-width:2.12598419;stroke-linejoin:round;stroke-miterlimit:4;stroke-dasharray:none;stroke-opacity:1"
       id="path3522-0-4"
       d="m 496.0625,253.3457 a 1.7718307,1.7718307 0 0 0 -1.77148,1.77344 l 0.008,12.43164 c 0.002,4.36423 2.06473,8.30198 5.3125,10.93164 l -0.0117,105.9668 a 1.7718307,1.7718307 0 0 0 1.77148,1.77148 l 14.1875,0 a 1.7718307,1.7718307 0 0 0 1.77149,-1.77148 l 0.0117,-105.91797 c 0.15046,-0.12011 0.30122,-0.24029 0.44726,-0.36719 l 15.47852,0 0,38.94727 a 1.7718307,1.7718307 0 0 0 1.77148,1.77148 l 42.53125,0 a 1.7718307,1.7718307 0 0 0 1.77149,-1.77148 l 0,-5.37305 12.38281,0.0586 a 1.7718307,1.7718307 0 0 0 1.7793,-1.77149 l 0,-7.08789 a 1.7718307,1.7718307 0 0 0 -1.75586,-1.77148 l -12.40625,-0.11524 0,-5.19922 1.75976,0 a 1.7718307,1.7718307 0 0 0 1.77149,-1.77148 l 0,-12.375 a 1.7718307,1.7718307 0 0 0 -1.77149,-1.77149 l -1.75976,0 0,-21.25976 a 1.7718307,1.7718307 0 0 0 -1.77149,-1.77149 l -42.53125,0 a 1.7718307,1.7718307 0 0 0 -1.77148,1.77149 l 0,5.29101 -10.61524,0 -0.008,-8.84961 a 1.7718307,1.7718307 0 0 0 -1.77148,-1.76953 l -7.09375,0 a 1.7718307,1.7718307 0 0 0 -1.77149,1.77344 l 0.01,12.43164 c -0.002,1.96859 -1.52282,3.51054 -3.53906,3.50781 -2.02021,-0.003 -3.5423,-1.5483 -3.54297,-3.50976 a 1.7718307,1.7718307 0 0 0 0,-0.002 l -0.008,-12.43165 a 1.7718307,1.7718307 0 0 0 -1.77148,-1.76953 l -7.09375,0 z" />
    <text
       xml:space="preserve"
       style="font-style:normal;font-weight:normal;font-size:25.69507217px;line-height:125%;font-family:Sans;letter-spacing:0px;word-spacing:0px;fill:#000000;fill-opacity:1;stroke:none;stroke-width:1px;stroke-linecap:butt;stroke-linejoin:miter;stroke-opacity:1"
       x="475.66071"
       y="-128.42763"
       id="text4329"
       sodipodi:linespacing="125%"
       transform="scale(0.96585259,1.0353547)"><tspan
         sodipodi:role="line"
         x="475.66071"
         y="-128.42763"
         id="tspan4341">Компенсация диаметра фрезы для станка с ЧПУ</tspan><tspan
         sodipodi:role="line"
         x="475.66071"
         y="-96.308784"
         id="tspan4375">1. Выделить контур, применить Контур/Динамическая втяжка</tspan><tspan
         sodipodi:role="line"
         x="475.66071"
         y="-64.189949"
         id="tspan4333">2. Правка / Редактор XML, выбрать параметр inkscape:radius</tspan><tspan
         sodipodi:role="line"
         x="475.66071"
         y="-32.071106"
         id="tspan4487">3. Ввести значение &lt;диаметр фрезы/2&gt;mm </tspan><tspan
         sodipodi:role="line"
         x="475.66071"
         y="0.047733307"
         id="tspan4491">(например, для фрезы 1мм задать значение 0.5mm),</tspan><tspan
         sodipodi:role="line"
         x="475.66071"
         y="32.166573"
         id="tspan4493">для отверстия задать то же значение, только с минусом </tspan><tspan
         sodipodi:role="line"
         x="475.66071"
         y="64.285416"
         id="tspan4339">4. Нажать кнопку &quot;Установить&quot;</tspan><tspan
         sodipodi:role="line"
         x="475.66071"
         y="96.404251"
         id="tspan4349">5. Правка / оконтурить объект</tspan><tspan
         sodipodi:role="line"
         x="475.66071"
         y="128.5231"
         id="tspan4367" /><tspan
         sodipodi:role="line"
         x="475.66071"
         y="160.64194"
         id="tspan4345">6. Установить толщину контура равной диаметру фрезы</tspan><tspan
         sodipodi:role="line"
         x="475.66071"
         y="192.76077"
         id="tspan4337">7. Проверить, что площадь фигуры внутри толстого контура </tspan><tspan
         sodipodi:role="line"
         x="475.66071"
         y="224.87961"
         id="tspan4373">совпадает с исходной фигурой</tspan></text>
    <path
       transform="translate(2258.1496,3.5442214)"
       style="fill:#ff7f2a;fill-opacity:1;stroke:#000000;stroke-width:2.12598419;stroke-linejoin:round;stroke-miterlimit:4;stroke-dasharray:none;stroke-opacity:1"
       d="M 496.0625,254.05469 A 1.0630985,1.0630985 0 0 0 495,255.11719 l 0.008,12.43164 c 0.001,4.27311 2.06117,8.13073 5.3125,10.62305 l -0.0117,106.27734 a 1.0630985,1.0630985 0 0 0 1.0625,1.0625 l 14.1875,0 a 1.0630985,1.0630985 0 0 0 1.0625,-1.0625 l 0.0117,-106.2461 c 0.31161,-0.23618 0.61535,-0.48384 0.90625,-0.74804 l 16.4375,0 0,39.65625 a 1.0630985,1.0630985 0 0 0 1.0625,1.0625 l 42.53125,0 a 1.0630985,1.0630985 0 0 0 1.0625,-1.0625 l 0,-6.08399 13.09375,0.0606 a 1.0630985,1.0630985 0 0 0 1.06836,-1.0625 l 0,-7.08789 a 1.0630985,1.0630985 0 0 0 -1.05273,-1.0625 l -13.10938,-0.12109 0,-6.61133 2.46875,0 a 1.0630985,1.0630985 0 0 0 1.0625,-1.0625 l 0,-12.375 a 1.0630985,1.0630985 0 0 0 -1.0625,-1.0625 l -2.46875,0 0,-21.96875 a 1.0630985,1.0630985 0 0 0 -1.0625,-1.0625 l -42.53125,0 a 1.0630985,1.0630985 0 0 0 -1.0625,1.0625 l 0,6 -12.03125,0 -0.01,-9.55664 a 1.0630985,1.0630985 0 0 0 -1.0625,-1.0625 l -7.09375,0 a 1.0630985,1.0630985 0 0 0 -1.0625,1.0625 l 0.01,12.43164 c -8e-4,2.34966 -1.85326,4.22198 -4.24804,4.21875 -2.39675,-0.003 -4.25115,-1.87639 -4.25196,-4.21875 l -0.008,-12.43164 a 1.0630985,1.0630985 0 0 0 -1.0625,-1.0625 l -7.09375,0 z"
       id="path3522-0-4-7" />
    <path
       transform="translate(760.74095,-1.4560971e-4)"
       style="fill:#ff7f2a;fill-opacity:1;stroke:#000000;stroke-width:2.12598419;stroke-linejoin:round;stroke-miterlimit:4;stroke-dasharray:none;stroke-opacity:1"
       d="m 1959.4492,590.66992 a 1.0630985,1.0630985 0 0 0 -1.0625,1.0625 l 0.01,12.42969 c 10e-4,4.2731 2.0611,8.13073 5.3125,10.62305 l -0.012,106.27734 a 1.0630985,1.0630985 0 0 0 1.0625,1.0625 l 14.1875,0 a 1.0630985,1.0630985 0 0 0 1.0625,-1.0625 l 0.012,-106.24609 c 0.3116,-0.23619 0.6153,-0.48384 0.9062,-0.74805 l 16.4375,0 0,39.65625 a 1.0630985,1.0630985 0 0 0 1.0625,1.0625 l 42.5313,0 a 1.0630985,1.0630985 0 0 0 1.0625,-1.0625 l 0,-21.96875 2.4687,0 a 1.0630985,1.0630985 0 0 0 1.0625,-1.0625 l 0,-12.375 a 1.0630985,1.0630985 0 0 0 -1.0625,-1.0625 l -2.4687,0 0,-21.96875 a 1.0630985,1.0630985 0 0 0 -1.0625,-1.0625 l -42.5313,0 a 1.0630985,1.0630985 0 0 0 -1.0625,1.0625 l 0,6 -12.0312,0 -0.01,-9.55664 a 1.0630985,1.0630985 0 0 0 -1.0625,-1.06055 l -7.0937,0 a 1.0630985,1.0630985 0 0 0 -1.0625,1.0625 l 0.01,12.42969 c -8e-4,2.34967 -1.8532,4.22198 -4.248,4.21875 -2.3967,-0.003 -4.2512,-1.8764 -4.252,-4.21875 l -0.01,-12.42969 a 1.0630985,1.0630985 0 0 0 -1.0625,-1.0625 l -7.0938,0 z"
       id="path4325-6-3" />
    <path
       transform="translate(2414.0541,8.9030088e-4)"
       style="fill:#aad400;fill-opacity:1;stroke:#000000;stroke-width:2.12598419;stroke-miterlimit:4;stroke-dasharray:none;stroke-opacity:1"
       d="m 301.18164,785.55078 a 1.0630985,1.0630985 0 0 0 -1.0625,1.0625 l 0,70.86719 a 1.0630985,1.0630985 0 0 0 1.0625,1.0625 l 67.32227,0 a 1.0630985,1.0630985 0 0 0 1.0625,-1.0625 l 0,-70.86719 a 1.0630985,1.0630985 0 0 0 -1.0625,-1.0625 l -14.17188,0 a 1.0630985,1.0630985 0 0 0 -1.0625,1.0625 l -0.002,41.45899 -36.84961,0 0,-41.45899 a 1.0630985,1.0630985 0 0 0 -1.0625,-1.0625 l -14.17383,0 z"
       id="path4284-7-93-20-71-8" />
    <path
       transform="translate(715.03848,-0.00138649)"
       style="fill:#ffcc00;fill-opacity:1;stroke:#000000;stroke-width:2.12598419;stroke-miterlimit:4;stroke-dasharray:none;stroke-opacity:1"
       d="m 2032.0859,966.25977 -12.4004,0.002 a 1.0630985,1.0630985 0 0 0 -1.0625,1.0625 l 0,31.89062 a 1.0630985,1.0630985 0 0 0 1.0625,1.06246 l 35.4336,0 a 1.0630985,1.0630985 0 0 0 1.0625,-1.06246 l 0,-31.89062 a 1.0630985,1.0630985 0 0 0 -1.0625,-1.0625 l -12.4023,-0.002 a 1.0630985,1.0630985 0 0 0 -1.0625,1.0625 l 0,2.48046 -8.5059,0 0,-2.48046 a 1.0630985,1.0630985 0 0 0 -1.0625,-1.0625 z"
       id="path4723-4-5" />
    <path
       transform="translate(715.03848,-0.00138649)"
       style="opacity:1;fill:#ff6600;fill-opacity:1;stroke:#000000;stroke-width:2.12598419;stroke-linejoin:round;stroke-miterlimit:4;stroke-dasharray:none;stroke-dashoffset:24.16535187;stroke-opacity:1"
       d="m 2037.4023,980.78711 c -1.1132,1.2e-4 -2.2188,0.45874 -3.0058,1.24609 -0.7871,0.78736 -1.2464,1.89453 -1.2461,3.00782 10e-5,1.11302 0.4591,2.21883 1.2461,3.00586 0.787,0.78702 1.8928,1.24597 3.0058,1.24609 1.1131,-10e-5 2.2189,-0.45907 3.0059,-1.24609 0.787,-0.78703 1.246,-1.89283 1.2461,-3.00586 3e-4,-1.1133 -0.459,-2.22046 -1.2461,-3.00782 -0.7871,-0.78736 -1.8926,-1.24599 -3.0059,-1.24609 z"
       id="path4725-4-9" />
  </g>
</svg>
