<?xml version="1.0" encoding="UTF-8" standalone="no"?>
<!-- Created with Inkscape (http://www.inkscape.org/) -->

<svg
   xmlns:dc="http://purl.org/dc/elements/1.1/"
   xmlns:cc="http://creativecommons.org/ns#"
   xmlns:rdf="http://www.w3.org/1999/02/22-rdf-syntax-ns#"
   xmlns:svg="http://www.w3.org/2000/svg"
   xmlns="http://www.w3.org/2000/svg"
   xmlns:sodipodi="http://sodipodi.sourceforge.net/DTD/sodipodi-0.dtd"
   xmlns:inkscape="http://www.inkscape.org/namespaces/inkscape"
   width="210mm"
   height="297mm"
   viewBox="0 0 744.09448819 1052.3622047"
   id="svg2"
   version="1.1"
   inkscape:version="0.91 r"
   sodipodi:docname="contact-plates.svg">
  <defs
     id="defs4" />
  <sodipodi:namedview
     id="base"
     pagecolor="#ffffff"
     bordercolor="#666666"
     borderopacity="1.0"
     inkscape:pageopacity="0.0"
     inkscape:pageshadow="2"
     inkscape:zoom="2"
     inkscape:cx="705.01309"
     inkscape:cy="376.97173"
     inkscape:document-units="mm"
     inkscape:current-layer="layer1"
     showgrid="true"
     inkscape:window-width="1301"
     inkscape:window-height="744"
     inkscape:window-x="65"
     inkscape:window-y="24"
     inkscape:window-maximized="1"
     inkscape:snap-bbox="true"
     inkscape:bbox-nodes="true"
     inkscape:object-nodes="true"
     showguides="true"
     inkscape:guide-bbox="true"
     inkscape:snap-smooth-nodes="true"
     inkscape:snap-midpoints="false"
     inkscape:snap-global="true"
     inkscape:object-paths="true"
     inkscape:snap-object-midpoints="true">
    <inkscape:grid
       type="xygrid"
       id="grid3336"
       units="mm"
       spacingx="1.7716536"
       spacingy="1.7716536"
       dotted="true"
       empspacing="10" />
    <inkscape:grid
       type="xygrid"
       id="grid5100"
       units="mm"
       spacingx="3.5433071"
       spacingy="3.5433072" />
    <sodipodi:guide
       position="17.716536,92.125987"
       orientation="1,0"
       id="guide4184" />
    <sodipodi:guide
       position="88.58268,194.8819"
       orientation="0,1"
       id="guide4224" />
    <sodipodi:guide
       position="74.409449,223.22835"
       orientation="0,1"
       id="guide4256" />
    <sodipodi:guide
       position="42.519685,265.74804"
       orientation="0,1"
       id="guide4260" />
    <sodipodi:guide
       position="70.866144,425.19686"
       orientation="1,0"
       id="guide4250" />
    <sodipodi:guide
       position="168.30709,396.85041"
       orientation="1,0"
       id="guide4287" />
    <sodipodi:guide
       position="225.00001,396.85041"
       orientation="1,0"
       id="guide4289" />
    <sodipodi:guide
       position="200.19686,391.53545"
       orientation="1,0"
       id="guide4291" />
    <sodipodi:guide
       position="88.58268,597.04726"
       orientation="0,1"
       id="guide4234" />
    <sodipodi:guide
       position="120.47244,602.36222"
       orientation="0,1"
       id="guide4236" />
    <sodipodi:guide
       orientation="0,1"
       position="182.48032,611.22049"
       id="guide3038" />
    <sodipodi:guide
       orientation="1,0"
       position="180.70866,620.07876"
       id="guide3040" />
    <sodipodi:guide
       orientation="0,1"
       position="180.70867,620.07876"
       id="guide3042" />
    <sodipodi:guide
       orientation="0,1"
       position="191.33859,503.14962"
       id="guide3044" />
    <sodipodi:guide
       position="301.18111,460.62994"
       orientation="0,1"
       id="guide4230" />
    <sodipodi:guide
       position="386.22048,434.05513"
       orientation="0,1"
       id="guide4232" />
    <sodipodi:guide
       position="600.59057,464.17324"
       orientation="0,1"
       id="guide4267" />
    <sodipodi:guide
       position="375.59055,269.29135"
       orientation="0,1"
       id="guide4317" />
    <sodipodi:guide
       position="51.377954,85.039373"
       orientation="0,1"
       id="guide4203" />
    <sodipodi:guide
       position="357.87403,88.58268"
       orientation="0,1"
       id="guide4294" />
    <sodipodi:guide
       position="-10.629921,67.322837"
       orientation="0,1"
       id="guide4312" />
    <sodipodi:guide
       position="375.59055,63.77953"
       orientation="1,0"
       id="guide4323" />
    <sodipodi:guide
       position="35.433071,72.637798"
       orientation="0,1"
       id="guide4350" />
    <sodipodi:guide
       position="990.35436,85.039373"
       orientation="1,0"
       id="guide4383" />
  </sodipodi:namedview>
  <metadata
     id="metadata7">
    <rdf:RDF>
      <cc:Work
         rdf:about="">
        <dc:format>image/svg+xml</dc:format>
        <dc:type
           rdf:resource="http://purl.org/dc/dcmitype/StillImage" />
        <dc:title />
      </cc:Work>
    </rdf:RDF>
  </metadata>
  <g
     inkscape:label="Layer 1"
     inkscape:groupmode="layer"
     id="layer1">
    <path
       style="fill:#2b2200;fill-opacity:1;stroke:none"
       d="m 162.99147,449.99941 0,-31.88873 35.43307,0 1e-5,31.88873 -12.40158,10e-4 0,-3.54331 -10.62992,3e-5 0,3.54331 z m 17.7172,-12.40008 c 2.78257,-2.7e-4 5.31418,-2.53188 5.31445,-5.31445 7.6e-4,-2.78322 -2.53123,-5.31614 -5.31445,-5.31641 -2.78387,-7.6e-4 -5.31717,2.53254 -5.31641,5.31641 2.7e-4,2.78322 2.53319,5.31521 5.31641,5.31445 z"
       id="rect4962-4-2"
       inkscape:connector-curvature="0"
       sodipodi:nodetypes="cccccccccccccc" />
    <path
       inkscape:connector-curvature="0"
       style="fill:#aad400;fill-opacity:1;stroke:none"
       d="m 17.716551,786.61416 5.65e-4,70.86614 67.322251,0 3e-6,-70.86614 -14.17187,0 -0.0013,42.51969 -38.976551,0 1.49e-4,-42.51969 z"
       id="rect3338-3-9"
       sodipodi:nodetypes="ccccccccc" />
    <path
       style="fill:#ff7f2a;fill-opacity:1;stroke:none"
       d="m 203.74016,449.99997 0,8.85827 3.54331,0 0,23.0315 7.08593,0 -0.002,-7.08594 1.77149,0 0.002,7.08594 7.08789,0 -0.002,-7.08594 1.77148,0 0.002,7.08594 7.08594,0 -0.002,-7.08594 1.77148,0 0.002,7.08594 7.08789,0 -0.002,-7.08594 1.77149,0 0.002,7.08594 7.08594,0 0,-23.03125 3.54297,0 0,-12.40234 -3.54297,0 0,-23.03125 -7.08594,0 -0.002,7.08789 -1.77149,0 0.002,-7.08789 -7.08789,0 -0.002,7.08789 -1.77148,0 0.002,-7.08789 -7.08594,0 -0.002,7.08789 -1.77148,0 0.002,-7.08789 -7.08789,0 -0.002,7.08789 -1.77149,0 0.002,-7.08789 -7.08593,0 -7.1e-4,19.48955 -14.17346,-10e-4 c -14.16437,1.23101 -25.77427,17.50508 -42.51882,3.5417 l -3.54297,0 0,12.40234 3.54297,0 42.51902,-0.0221 3.54405,0.0228 0,-8.85827 z"
       id="rect4322-8-8"
       inkscape:connector-curvature="0"
       sodipodi:nodetypes="ccccccccccccccccccccccccccccccccccccccccccccccccccccc" />
    <path
       style="fill:#aad400;fill-opacity:1;stroke:none"
       d="m 187.79528,549.21257 1.8e-4,-102.75591 -3.54492,0 0.005,-2.27233 c 5.25218,-1.5653 8.85437,-6.39254 8.85937,-11.87305 l -0.005,-12.42942 -7.08593,0 0.005,12.42942 c -10e-4,2.91981 -2.35876,5.29111 -5.32032,5.28711 -2.96155,-0.004 -5.30759,-2.3734 -5.30859,-5.28711 l -0.006,-12.42942 -7.08594,0 0.002,12.42942 c 0.002,5.48211 3.60394,10.31221 8.85743,11.87891 l -0.003,2.26647 -3.54297,0 -8.2e-4,102.75591 z"
       id="rect3338-3-9-7-8-9-9"
       inkscape:connector-curvature="0"
       sodipodi:nodetypes="cccccccccccccccccc" />
    <path
       style="fill:#ff7f2a;fill-opacity:1;stroke:none"
       d="m 49.60629,446.45666 2e-6,3.54331 1.771654,3e-5 0,5.31496 -1.771654,0 1.44e-4,3.54306 3.54331,0 0,23.0315 7.085932,0 -0.002,-7.08594 1.77149,0 0.002,7.08594 7.087881,0 -0.002,-7.08594 1.77149,0 0.002,7.08594 7.08594,0 -0.002,-7.08594 1.77148,0 0.002,7.08594 7.08789,0 -0.002,-7.08594 1.77149,0 0.002,7.08594 7.08595,0 0,-23.03125 3.54297,0 3.4e-4,-3.54334 -1.77166,0 0,-5.31496 1.77165,0 -3.3e-4,-3.54404 -3.54297,0 0,-23.03125 -7.08595,0 -0.002,7.08789 -1.77149,0 0.002,-7.08789 -7.08789,0 -0.002,7.08789 -1.77148,0 0.002,-7.08789 -7.08594,0 -0.002,7.08789 -1.77149,0 0.002,-7.08789 -7.087881,0 -0.002,7.08789 -1.77149,0 0.002,-7.08789 -7.085932,0 -1.49e-4,23.03201 z"
       id="rect4322-8-8-0"
       inkscape:connector-curvature="0"
       sodipodi:nodetypes="ccccccccccccccccccccccccccccccccccccccccccccccccccccc" />
    <path
       style="fill:#aad400;fill-opacity:1;stroke:none"
       d="m 33.661414,549.21257 -4e-6,-102.75588 -3.54492,0 0.005,-2.27233 c 5.25218,-1.5653 8.85437,-6.39254 8.85937,-11.87305 l -0.0045,-12.42945 -7.08593,0 0.0045,12.42945 c -10e-4,2.91981 -2.35876,5.29111 -5.32032,5.28711 -2.96155,-0.004 -5.30759,-2.3734 -5.30859,-5.28711 l -0.0062,-12.42945 -7.085941,0 0.0022,12.42945 c 0.002,5.48211 3.603941,10.31221 8.857431,11.87891 l -0.003,2.26647 -3.54297,0 -6.36e-4,102.75588 z"
       id="rect3338-3-9-7-8-9-9-4"
       inkscape:connector-curvature="0"
       sodipodi:nodetypes="cccccccccccccccccc" />
    <rect
       style="fill:#ff0000"
       id="rect3070"
       width="14.173228"
       height="14.173229"
       x="19.48818"
       y="441.14172"
       ry="0" />
    <rect
       style="fill:#ff0000"
       id="rect3070-9"
       width="21.259848"
       height="10.629914"
       x="33.661407"
       y="430.51202"
       ry="0" />
    <text
       xml:space="preserve"
       style="font-size:12.39271927px;font-style:normal;font-weight:normal;line-height:125%;letter-spacing:0px;word-spacing:0px;fill:#000000;fill-opacity:1;stroke:none;font-family:Sans"
       x="-54.014927"
       y="388.33154"
       id="text3023"
       sodipodi:linespacing="125%"><tspan
         sodipodi:role="line"
         x="-54.014927"
         y="388.33154"
         id="tspan3027">6.5мм от центра винта до левого края макетки</tspan><tspan
         sodipodi:role="line"
         x="-54.014927"
         y="403.82245"
         id="tspan3162">5мм от центра винта до нижней границы макетки</tspan></text>
    <path
       style="fill:#ff7f2a;fill-opacity:1;stroke:none"
       d="m -79.731554,419.88186 0.0076,12.43067 c 0.0015,4.13548 2.050238,7.88383 5.3125,10.15625 l 0,12.84375 -0.01227,93.90004 14.1875,0 0.01227,-102.74379 0,-4 c 0.571617,-0.39796 1.101016,-0.82896 1.59375,-1.3125 l 17.875,0 0,5.3125 -3.53125,0 0,3.53125 1.78125,0 0,5.3125 -1.78125,0 0,3.53125 3.53125,0 0,23.03125 7.09375,0 0,-7.0625 1.78125,0 0,7.0625 7.0625,0 0,-7.0625 1.78125,0 0,7.0625 7.09375,0 0,-7.0625 1.78125,0 0,7.0625 7.0624998,0 0,-7.0625 1.78125,0 0,7.0625 7.09375,0 0,-23.03125 3.53125,0 0,-3.53125 -1.75,0 0,-5.3125 1.75,0 0,-3.53125 -3.53125,0 0,-23.03125 -7.09375,0 0,7.0625 -1.78125,0 0,-7.0625 -7.0624998,0 0,7.0625 -1.78125,0 0,-7.0625 -7.09375,0 0,7.0625 -1.78125,0 0,-7.0625 -7.0625,0 0,7.0625 -1.78125,0 0,-7.0625 -7.09375,0 0,7.0625 -14.15625,0 -0.0098,-10.61817 -7.09375,0 0.0098,12.43067 c -10e-4,2.91981 -2.35094,5.28525 -5.3125,5.28125 -2.96155,-0.004 -5.3115,-2.36754 -5.3125,-5.28125 l -0.0076,-12.43067 z"
       id="rect4322-8-8-0-2"
       inkscape:connector-curvature="0"
       sodipodi:nodetypes="cccccccccccccccccccccccccccccccccccccccccccccccccccccccccccccccccccsccc" />
    <rect
       style="fill:#ff0000"
       id="rect3210"
       width="3.5433071"
       height="21.259844"
       x="131.10236"
       y="432.28342"
       transform="translate(-4.9229925e-6,0)" />
    <text
       xml:space="preserve"
       style="font-size:5.97930288px;font-style:normal;font-weight:normal;line-height:125%;letter-spacing:0px;word-spacing:0px;fill:#000000;fill-opacity:1;stroke:none;font-family:Sans"
       x="-448.64581"
       y="129.24605"
       id="text3212"
       sodipodi:linespacing="125%"
       transform="matrix(0,-1,1,0,0,0)"><tspan
         sodipodi:role="line"
         id="tspan3214"
         x="-448.64581"
         y="129.24605">6мм</tspan></text>
    <rect
       style="fill:#ff6600"
       id="rect3210-9"
       width="3.5433071"
       height="7.0866141"
       x="131.10236"
       y="453.54327" />
    <text
       xml:space="preserve"
       style="font-size:4.15815353px;font-style:normal;font-weight:normal;line-height:125%;letter-spacing:0px;word-spacing:0px;fill:#000000;fill-opacity:1;stroke:none;font-family:Sans"
       x="118.78841"
       y="423.17899"
       id="text3212-6"
       sodipodi:linespacing="125%"
       transform="scale(0.92232578,1.0842156)"><tspan
         sodipodi:role="line"
         id="tspan3214-4"
         x="118.78841"
         y="423.17899">2мм (желоб)</tspan></text>
    <rect
       style="fill:#241c1c"
       id="rect3210-9-7"
       width="3.5433071"
       height="42.519691"
       x="131.10237"
       y="460.62988" />
    <text
       xml:space="preserve"
       style="font-size:4.15815353px;font-style:normal;font-weight:normal;line-height:125%;letter-spacing:0px;word-spacing:0px;fill:#000000;fill-opacity:1;stroke:none;font-family:Sans"
       x="114.79443"
       y="440.32632"
       id="text3212-6-2"
       sodipodi:linespacing="125%"
       transform="scale(0.92232578,1.0842156)"><tspan
         sodipodi:role="line"
         id="tspan3214-4-9"
         x="114.79443"
         y="440.32632">12мм (путь наверх)</tspan></text>
    <rect
       style="fill:#55ff55"
       id="rect3210-9-7-0"
       width="3.5433071"
       height="3.5433118"
       x="131.10236"
       y="503.14957" />
    <rect
       style="fill:#241c1c"
       id="rect3210-9-7-01"
       width="3.5433156"
       height="42.519669"
       x="131.10236"
       y="506.6929" />
    <text
       xml:space="preserve"
       style="font-size:4.15815353px;font-style:normal;font-weight:normal;line-height:125%;letter-spacing:0px;word-spacing:0px;fill:#000000;fill-opacity:1;stroke:none;font-family:Sans"
       x="-578.9726"
       y="117.10281"
       id="text3212-6-2-5"
       sodipodi:linespacing="125%"
       transform="matrix(0,-0.92232578,1.0842156,0,0,0)"><tspan
         sodipodi:role="line"
         id="tspan3214-4-9-1"
         x="-578.9726"
         y="117.10281">12мм (контакт)</tspan></text>
    <path
       style="fill:#aad400;fill-opacity:1;stroke:none"
       d="M -4.9229925e-6,698.03148 0.00299508,685.60011 c 0.002,-4.13548 2.05023002,-7.88383 5.31250002,-10.15625 l 0,-4 0,-8.84375 -0.01481,-93.89935 14.1874998,0 0.01481,93.89935 0,8.84375 0,4 c 3.261907,2.27094 5.308728,6.02198 5.3125,10.15625 l -0.0057,12.43137 -7.09375,0 0.0057,-12.43137 c -10e-4,-2.91981 -2.35094,-5.28525 -5.3125,-5.28125 -2.9615459,0.004 -5.3114999,2.36754 -5.3124999,5.28125 l -0.0035,12.43137 z"
       id="rect3338-3-9-7-8-9-9-4-9"
       inkscape:connector-curvature="0"
       sodipodi:nodetypes="ccccccccccccccsccc" />
    <text
       xml:space="preserve"
       style="font-style:normal;font-weight:normal;font-size:21.89512825px;line-height:125%;font-family:Sans;letter-spacing:0px;word-spacing:0px;fill:#000000;fill-opacity:1;stroke:none;stroke-width:1px;stroke-linecap:butt;stroke-linejoin:miter;stroke-opacity:1"
       x="349.20135"
       y="515.41217"
       id="text3391"
       sodipodi:linespacing="125%"><tspan
         sodipodi:role="line"
         id="tspan3393"
         x="349.20135"
         y="515.41217">компенсация диаметра</tspan><tspan
         sodipodi:role="line"
         x="349.20135"
         y="542.78107"
         id="tspan4288">для фрезы 2мм</tspan></text>
    <path
       sodipodi:type="inkscape:offset"
       inkscape:radius="3.5433071"
       inkscape:original="M 301.18164 786.61328 L 301.18164 857.48047 L 368.50391 857.48047 L 368.50391 786.61328 L 354.33203 786.61328 L 354.33008 829.13477 L 315.35547 829.13477 L 315.35547 786.61328 L 301.18164 786.61328 z "
       style="fill:#aad400;fill-opacity:1;stroke:none"
       id="path4284"
       d="m 301.18164,783.07031 a 3.5436614,3.5436614 0 0 0 -3.54297,3.54297 l 0,70.86719 a 3.5436614,3.5436614 0 0 0 3.54297,3.54297 l 67.32227,0 a 3.5436614,3.5436614 0 0 0 3.54297,-3.54297 l 0,-70.86719 a 3.5436614,3.5436614 0 0 0 -3.54297,-3.54297 l -14.17188,0 a 3.5436614,3.5436614 0 0 0 -3.54297,3.54297 l -0.002,38.97852 -31.88867,0 0,-38.97852 a 3.5436614,3.5436614 0 0 0 -3.54297,-3.54297 l -14.17383,0 z"
       transform="translate(109.84165,8.9030088e-4)" />
    <path
       style="fill:#aad400;fill-opacity:1;stroke:#000000;stroke-width:7.08661413;stroke-linejoin:round;stroke-miterlimit:4;stroke-dasharray:none;stroke-opacity:1"
       d="m 499.60509,783.07209 a 3.5436614,3.5436614 0 0 0 -3.54297,3.54297 l 0,70.86719 a 3.5436614,3.5436614 0 0 0 3.54297,3.54297 l 67.32227,0 a 3.5436614,3.5436614 0 0 0 3.54297,-3.54297 l 0,-70.86719 a 3.5436614,3.5436614 0 0 0 -3.54297,-3.54297 l -14.17188,0 a 3.5436614,3.5436614 0 0 0 -3.54297,3.54297 l -0.002,38.97852 -31.88867,0 0,-38.97852 a 3.5436614,3.5436614 0 0 0 -3.54297,-3.54297 l -14.17383,0 z"
       id="path4284-5"
       inkscape:connector-curvature="0" />
    <path
       inkscape:connector-curvature="0"
       style="fill:#aad400;fill-opacity:1;stroke:none;stroke-width:7.08661413;stroke-linejoin:round;stroke-miterlimit:4;stroke-dasharray:none;stroke-opacity:1"
       d="m 595.27472,783.07175 a 3.5436614,3.5436614 0 0 0 -3.54297,3.54297 l 0,70.86719 a 3.5436614,3.5436614 0 0 0 3.54297,3.54297 l 67.32227,0 a 3.5436614,3.5436614 0 0 0 3.54297,-3.54297 l 0,-70.86719 a 3.5436614,3.5436614 0 0 0 -3.54297,-3.54297 l -14.17188,0 a 3.5436614,3.5436614 0 0 0 -3.54297,3.54297 l -0.002,38.97852 -31.88867,0 0,-38.97852 a 3.5436614,3.5436614 0 0 0 -3.54297,-3.54297 l -14.17383,0 z"
       id="path4284-5-1" />
    <path
       style="fill:#ffcc00;fill-opacity:1;stroke:none"
       d="m 30.116926,967.32083 -12.400391,0.002 0,31.88866 35.433595,0 0,-31.88866 -12.402344,-0.002 0,3.54296 -10.63086,0 z"
       id="rect4962-4-0"
       inkscape:connector-curvature="0"
       sodipodi:nodetypes="ccccccccc" />
    <path
       style="opacity:1;fill:#ff6600;fill-opacity:1;stroke:none;stroke-width:7.08661413;stroke-linejoin:round;stroke-miterlimit:4;stroke-dasharray:none;stroke-dashoffset:24.16535187;stroke-opacity:1"
       d="m 40.747769,985.03793 a 5.31496,5.31496 0 0 1 -5.31496,5.31496 5.31496,5.31496 0 0 1 -5.31496,-5.31496 5.31496,5.31496 0 0 1 5.31496,-5.31496 5.31496,5.31496 0 0 1 5.31496,5.31496 z"
       id="path4224-4"
       inkscape:connector-curvature="0" />
    <text
       xml:space="preserve"
       style="font-style:normal;font-weight:normal;font-size:21.89512825px;line-height:125%;font-family:Sans;letter-spacing:0px;word-spacing:0px;fill:#000000;fill-opacity:1;stroke:none;stroke-width:1px;stroke-linecap:butt;stroke-linejoin:miter;stroke-opacity:1"
       x="866.96631"
       y="515.41217"
       id="text3391-2"
       sodipodi:linespacing="125%"><tspan
         sodipodi:role="line"
         id="tspan3393-1"
         x="866.96631"
         y="515.41217">компенсация диаметра</tspan><tspan
         sodipodi:role="line"
         x="866.96631"
         y="542.78107"
         id="tspan4290">для фрезы 1.1мм</tspan></text>
    <path
       transform="translate(623.62119,8.9030088e-4)"
       sodipodi:type="inkscape:offset"
       inkscape:radius="1.9488189"
       inkscape:original="M 301.18164 786.61328 L 301.18164 857.48047 L 368.50391 857.48047 L 368.50391 786.61328 L 354.33203 786.61328 L 354.33008 829.13477 L 315.35547 829.13477 L 315.35547 786.61328 L 301.18164 786.61328 z "
       style="fill:#aad400;fill-opacity:1;stroke:none"
       id="path4284-7"
       d="m 301.18164,783.07031 a 3.5436614,3.5436614 0 0 0 -3.54297,3.54297 l 0,70.86719 a 3.5436614,3.5436614 0 0 0 3.54297,3.54297 l 67.32227,0 a 3.5436614,3.5436614 0 0 0 3.54297,-3.54297 l 0,-70.86719 a 3.5436614,3.5436614 0 0 0 -3.54297,-3.54297 l -14.17188,0 a 3.5436614,3.5436614 0 0 0 -3.54297,3.54297 l -0.002,38.97852 -31.88867,0 0,-38.97852 a 3.5436614,3.5436614 0 0 0 -3.54297,-3.54297 l -14.17383,0 z" />
    <path
       inkscape:connector-curvature="0"
       style="fill:#aad400;fill-opacity:1;stroke:none"
       d="m 301.1811,786.61417 5.6e-4,70.86614 67.32225,0 10e-6,-70.86614 -14.17187,0 -10e-4,42.51969 -38.97655,0 1.4e-4,-42.51969 z"
       id="rect3338-3-9-1"
       sodipodi:nodetypes="ccccccccc" />
    <path
       inkscape:connector-curvature="0"
       style="fill:#aad400;fill-opacity:1;stroke:none"
       d="m 814.96065,786.61417 5.7e-4,70.86614 67.32225,0 0,-70.86614 -14.17187,0 -10e-4,42.51969 -38.97655,0 1.5e-4,-42.51969 z"
       id="rect3338-3-9-6"
       sodipodi:nodetypes="ccccccccc" />
    <path
       transform="translate(712.38178,8.9030088e-4)"
       style="fill:#aad400;fill-opacity:1;stroke:#000000;stroke-opacity:1;stroke-width:3.8976378;stroke-miterlimit:4;stroke-dasharray:none;stroke-linejoin:round"
       d="m 301.18164,784.66406 a 1.9490138,1.9490138 0 0 0 -1.94922,1.94922 l 0,70.86719 a 1.9490138,1.9490138 0 0 0 1.94922,1.94922 l 67.32227,0 a 1.9490138,1.9490138 0 0 0 1.94921,-1.94922 l 0,-70.86719 a 1.9490138,1.9490138 0 0 0 -1.94921,-1.94922 l -14.17188,0 a 1.9490138,1.9490138 0 0 0 -1.94922,1.94922 l -0.002,40.57227 -35.07617,0 0,-40.57227 a 1.9490138,1.9490138 0 0 0 -1.94922,-1.94922 l -14.17383,0 z"
       id="path4284-7-9" />
    <path
       inkscape:connector-curvature="0"
       style="fill:#aad400;fill-opacity:1;stroke:none;stroke-width:3.89763784;stroke-linejoin:round;stroke-miterlimit:4;stroke-dasharray:none;stroke-opacity:1"
       d="m 1096.8311,784.66495 a 1.9490138,1.9490138 0 0 0 -1.9492,1.94922 l 0,70.86719 a 1.9490138,1.9490138 0 0 0 1.9492,1.94922 l 67.3222,0 a 1.9490138,1.9490138 0 0 0 1.9493,-1.94922 l 0,-70.86719 a 1.9490138,1.9490138 0 0 0 -1.9493,-1.94922 l -14.1718,0 a 1.9490138,1.9490138 0 0 0 -1.9493,1.94922 l 0,40.57227 -35.0761,0 0,-40.57227 a 1.9490138,1.9490138 0 0 0 -1.9492,-1.94922 l -14.1739,0 z"
       id="path4284-7-9-6" />
    <text
       xml:space="preserve"
       style="font-style:normal;font-weight:normal;font-size:21.89512825px;line-height:125%;font-family:Sans;letter-spacing:0px;word-spacing:0px;fill:#000000;fill-opacity:1;stroke:none;stroke-width:1px;stroke-linecap:butt;stroke-linejoin:miter;stroke-opacity:1"
       x="1380.746"
       y="515.41217"
       id="text3391-2-4"
       sodipodi:linespacing="125%"><tspan
         sodipodi:role="line"
         id="tspan3393-1-0"
         x="1380.746"
         y="515.41217">компенсация диаметра</tspan><tspan
         sodipodi:role="line"
         x="1380.746"
         y="542.78107"
         id="tspan4290-6">для фрезы 1.08мм</tspan></text>
    <path
       transform="translate(1137.4008,8.9319029e-4)"
       sodipodi:type="inkscape:offset"
       inkscape:radius="1.9133859"
       inkscape:original="M 301.18164 786.61328 L 301.18164 857.48047 L 368.50391 857.48047 L 368.50391 786.61328 L 354.33203 786.61328 L 354.33008 829.13477 L 315.35547 829.13477 L 315.35547 786.61328 L 301.18164 786.61328 z "
       style="fill:#aad400;fill-opacity:1;stroke:none"
       id="path4284-7-93"
       d="m 301.18164,784.66406 a 1.9490138,1.9490138 0 0 0 -1.94922,1.94922 l 0,70.86719 a 1.9490138,1.9490138 0 0 0 1.94922,1.94922 l 67.32227,0 a 1.9490138,1.9490138 0 0 0 1.94921,-1.94922 l 0,-70.86719 a 1.9490138,1.9490138 0 0 0 -1.94921,-1.94922 l -14.17188,0 a 1.9490138,1.9490138 0 0 0 -1.94922,1.94922 l -0.002,40.57227 -35.07617,0 0,-40.57227 a 1.9490138,1.9490138 0 0 0 -1.94922,-1.94922 l -14.17383,0 z" />
    <path
       inkscape:connector-curvature="0"
       style="fill:#aad400;fill-opacity:1;stroke:none"
       d="m 1328.7402,786.61417 6e-4,70.86614 67.3222,0 0,-70.86614 -14.1718,0 -10e-4,42.51969 -38.9766,0 2e-4,-42.51969 z"
       id="rect3338-3-9-6-9"
       sodipodi:nodetypes="ccccccccc" />
    <path
       transform="translate(1220.8112,8.9030088e-4)"
       style="fill:#aad400;fill-opacity:1;stroke:#000000;stroke-width:3.82677174;stroke-linejoin:round;stroke-miterlimit:4;stroke-dasharray:none;stroke-opacity:1"
       d="m 301.18164,784.69922 a 1.9135772,1.9135772 0 0 0 -1.91406,1.91406 l 0,70.86719 a 1.9135772,1.9135772 0 0 0 1.91406,1.91406 l 67.32227,0 a 1.9135772,1.9135772 0 0 0 1.91406,-1.91406 l 0,-70.86719 a 1.9135772,1.9135772 0 0 0 -1.91406,-1.91406 l -14.17188,0 a 1.9135772,1.9135772 0 0 0 -1.91406,1.91406 l -0.002,40.60742 -35.14649,0 0,-40.60742 a 1.9135772,1.9135772 0 0 0 -1.91406,-1.91406 l -14.17383,0 z"
       id="path4284-7-93-2" />
    <path
       inkscape:connector-curvature="0"
       style="fill:#aad400;fill-opacity:1;stroke:none;stroke-width:3.82677174;stroke-linejoin:round;stroke-miterlimit:4;stroke-dasharray:none;stroke-opacity:1"
       d="m 1605.2606,784.70011 a 1.9135772,1.9135772 0 0 0 -1.9141,1.91406 l 0,70.86719 a 1.9135772,1.9135772 0 0 0 1.9141,1.91406 l 67.3223,0 a 1.9135772,1.9135772 0 0 0 1.914,-1.91406 l 0,-70.86719 a 1.9135772,1.9135772 0 0 0 -1.914,-1.91406 l -14.1719,0 a 1.9135772,1.9135772 0 0 0 -1.9141,1.91406 l 0,40.60742 -35.1465,0 0,-40.60742 a 1.9135772,1.9135772 0 0 0 -1.914,-1.91406 l -14.1739,0 z"
       id="path4284-7-93-2-0" />
    <path
       sodipodi:type="inkscape:offset"
       inkscape:radius="1.9133859"
       inkscape:original="M 1493.502 967.32031 L 1481.1016 967.32227 L 1481.1016 999.21094 L 1516.5352 999.21094 L 1516.5352 967.32227 L 1504.1328 967.32031 L 1504.1328 970.86328 L 1493.502 970.86328 L 1493.502 967.32031 z "
       style="fill:#ffcc00;fill-opacity:1;stroke:none"
       id="path4420"
       d="m 1493.502,966.78125 -12.4004,0.002 a 0.54005402,0.54005402 0 0 0 -0.5391,0.53907 l 0,31.88867 a 0.54005402,0.54005402 0 0 0 0.5391,0.53906 l 35.4336,0 a 0.54005402,0.54005402 0 0 0 0.541,-0.53906 l 0,-31.88867 a 0.54005402,0.54005402 0 0 0 -0.541,-0.53907 l -12.4024,-0.002 a 0.54005402,0.54005402 0 0 0 -0.539,0.53906 l 0,3.00391 -9.5508,0 0,-3.00391 a 0.54005402,0.54005402 0 0 0 -0.541,-0.53906 z" />
    <path
       style="opacity:1;fill:#ff6600;fill-opacity:1;stroke:none;stroke-width:7.08661413;stroke-linejoin:round;stroke-miterlimit:4;stroke-dasharray:none;stroke-dashoffset:24.16535187;stroke-opacity:1"
       d="m 1502.2204,985.03937 a 3.4015492,3.4015492 0 0 1 -3.4015,3.40155 3.4015492,3.4015492 0 0 1 -3.4016,-3.40155 3.4015492,3.4015492 0 0 1 3.4016,-3.40155 3.4015492,3.4015492 0 0 1 3.4015,3.40155 z"
       id="path4224-4-8"
       inkscape:connector-curvature="0" />
    <path
       transform="translate(49.606353,-3.1528853e-6)"
       style="fill:#ffcc00;fill-opacity:1;stroke:#000000;stroke-width:3.82677165;stroke-miterlimit:4;stroke-dasharray:none;stroke-opacity:1"
       d="m 1493.502,965.40625 -12.4004,0.002 a 1.9135772,1.9135772 0 0 0 -1.9141,1.91407 l 0,31.88867 a 1.9135772,1.9135772 0 0 0 1.9141,1.91406 l 35.4336,0 a 1.9135772,1.9135772 0 0 0 1.914,-1.91406 l 0,-31.88867 a 1.9135772,1.9135772 0 0 0 -1.914,-1.91407 l -12.4024,-0.002 a 1.9135772,1.9135772 0 0 0 -1.914,1.91406 l 0,1.62891 -6.8028,0 0,-1.62891 a 1.9135772,1.9135772 0 0 0 -1.914,-1.91406 z"
       id="path4420-3" />
    <path
       style="opacity:1;fill:#ff6600;fill-opacity:1;stroke:#000000;stroke-width:3.82677165;stroke-linejoin:round;stroke-miterlimit:4;stroke-dasharray:none;stroke-dashoffset:24.16535187;stroke-opacity:1"
       d="m 1551.8267,985.03937 a 3.4015492,3.4015492 0 0 1 -3.4015,3.40155 3.4015492,3.4015492 0 0 1 -3.4016,-3.40155 3.4015492,3.4015492 0 0 1 3.4016,-3.40155 3.4015492,3.4015492 0 0 1 3.4015,3.40155 z"
       id="path4224-4-8-5"
       inkscape:connector-curvature="0" />
    <path
       inkscape:connector-curvature="0"
       style="fill:#ffcc00;fill-opacity:1;stroke:none;stroke-width:3.82677174;stroke-miterlimit:4;stroke-dasharray:none;stroke-opacity:1"
       d="m 1592.7147,965.40625 -12.4004,0.002 a 1.9135772,1.9135772 0 0 0 -1.9141,1.91407 l 0,31.88867 a 1.9135772,1.9135772 0 0 0 1.9141,1.91401 l 35.4336,0 a 1.9135772,1.9135772 0 0 0 1.914,-1.91401 l 0,-31.88867 a 1.9135772,1.9135772 0 0 0 -1.914,-1.91407 l -12.4024,-0.002 a 1.9135772,1.9135772 0 0 0 -1.914,1.91406 l 0,1.62891 -6.8028,0 0,-1.62891 a 1.9135772,1.9135772 0 0 0 -1.914,-1.91406 z"
       id="path4420-3-5" />
    <path
       style="opacity:1;fill:#ff6600;fill-opacity:1;stroke:none;stroke-width:3.82677174;stroke-linejoin:round;stroke-miterlimit:4;stroke-dasharray:none;stroke-dashoffset:24.16535187;stroke-opacity:1"
       d="m 1601.433,985.03937 a 3.4015492,3.4015492 0 0 1 -3.4015,3.40155 3.4015492,3.4015492 0 0 1 -3.4016,-3.40155 3.4015492,3.4015492 0 0 1 3.4016,-3.40155 3.4015492,3.4015492 0 0 1 3.4015,3.40155 z"
       id="path4224-4-8-5-3"
       inkscape:connector-curvature="0" />
    <text
       xml:space="preserve"
       style="font-style:normal;font-weight:normal;font-size:21.89512825px;line-height:125%;font-family:Sans;letter-spacing:0px;word-spacing:0px;fill:#000000;fill-opacity:1;stroke:none;stroke-width:1px;stroke-linecap:butt;stroke-linejoin:miter;stroke-opacity:1"
       x="1919.3115"
       y="515.38312"
       id="text3391-2-4-7"
       sodipodi:linespacing="125%"><tspan
         sodipodi:role="line"
         id="tspan3393-1-0-7"
         x="1919.3115"
         y="515.38312">компенсация диаметра</tspan><tspan
         sodipodi:role="line"
         x="1919.3115"
         y="542.75201"
         id="tspan4290-6-0">для фрезы 1мм</tspan></text>
    <path
       transform="translate(1675.9663,-0.02818367)"
       sodipodi:type="inkscape:offset"
       inkscape:radius="1.7716535"
       inkscape:original="M 301.18164 786.61328 L 301.18164 857.48047 L 368.50391 857.48047 L 368.50391 786.61328 L 354.33203 786.61328 L 354.33008 829.13477 L 315.35547 829.13477 L 315.35547 786.61328 L 301.18164 786.61328 z "
       style="fill:#aad400;fill-opacity:1;stroke:none"
       id="path4284-7-93-20"
       d="m 301.18164,784.69922 a 1.9135772,1.9135772 0 0 0 -1.91406,1.91406 l 0,70.86719 a 1.9135772,1.9135772 0 0 0 1.91406,1.91406 l 67.32227,0 a 1.9135772,1.9135772 0 0 0 1.91406,-1.91406 l 0,-70.86719 a 1.9135772,1.9135772 0 0 0 -1.91406,-1.91406 l -14.17188,0 a 1.9135772,1.9135772 0 0 0 -1.91406,1.91406 l -0.002,40.60742 -35.14649,0 0,-40.60742 a 1.9135772,1.9135772 0 0 0 -1.91406,-1.91406 l -14.17383,0 z" />
    <path
       inkscape:connector-curvature="0"
       style="fill:#aad400;fill-opacity:1;stroke:none"
       d="m 1867.3057,786.58508 6e-4,70.86614 67.3222,0 0,-70.86614 -14.1718,0 0,42.51969 -38.9766,0 2e-4,-42.51969 z"
       id="rect3338-3-9-6-9-5"
       sodipodi:nodetypes="ccccccccc" />
    <path
       style="fill:#ffcc00;fill-opacity:1;stroke:none"
       d="m 352.55787,967.32083 -12.40039,0.002 0,31.88871 35.43359,0 0,-31.88871 -12.40234,-0.002 0,3.54296 -10.63086,0 z"
       id="rect4962-4-0-4"
       inkscape:connector-curvature="0"
       sodipodi:nodetypes="ccccccccc" />
    <path
       style="opacity:1;fill:#ff6600;fill-opacity:1;stroke:none;stroke-width:7.08661413;stroke-linejoin:round;stroke-miterlimit:4;stroke-dasharray:none;stroke-dashoffset:24.16535187;stroke-opacity:1"
       d="m 363.18871,985.03796 a 5.31496,5.31496 0 0 1 -5.31496,5.31496 5.31496,5.31496 0 0 1 -5.31496,-5.31496 5.31496,5.31496 0 0 1 5.31496,-5.31496 5.31496,5.31496 0 0 1 5.31496,5.31496 z"
       id="path4224-4-9" />
    <path
       sodipodi:type="inkscape:offset"
       inkscape:radius="3.5433071"
       inkscape:original="M 419.88086 967.32031 L 407.48047 967.32227 L 407.48047 999.21094 L 442.91406 999.21094 L 442.91406 967.32227 L 430.51172 967.32031 L 430.51172 970.86328 L 419.88086 970.86328 L 419.88086 967.32031 z "
       style="fill:#ffcc00;fill-opacity:1;stroke:none"
       id="path4569"
       d="m 419.88086,967.32031 -12.40039,0.002 0,31.88867 35.43359,0 0,-31.88867 -12.40234,-0.002 0,3.54297 -10.63086,0 0,-3.54297 z" />
    <path
       sodipodi:type="inkscape:offset"
       inkscape:radius="-3.5433071"
       inkscape:original="M 425.19727 979.72266 A 5.31496 5.31496 0 0 0 419.88086 985.03711 A 5.31496 5.31496 0 0 0 425.19727 990.35352 A 5.31496 5.31496 0 0 0 430.51172 985.03711 A 5.31496 5.31496 0 0 0 425.19727 979.72266 z "
       style="opacity:1;fill:#ff6600;fill-opacity:1;stroke:none;stroke-width:7.08661413;stroke-linejoin:round;stroke-miterlimit:4;stroke-dasharray:none;stroke-dashoffset:24.16535187;stroke-opacity:1"
       id="path4571"
       d="m 425.19727,976.17969 c -4.6387,-0.001 -8.85893,4.21872 -8.85938,8.85742 -0.001,4.63979 4.21959,8.86064 8.85938,8.85937 4.6387,-4.4e-4 8.85868,-4.22067 8.85742,-8.85937 -4.5e-4,-4.63761 -4.21981,-8.85698 -8.85742,-8.85742 z" />
    <path
       transform="translate(56.692432,5.6350888e-4)"
       style="fill:#ffcc00;fill-opacity:1;stroke:#000000;stroke-opacity:1;stroke-width:7.08661417;stroke-miterlimit:4;stroke-dasharray:none"
       d="m 419.88086,963.77734 -12.40039,0.002 a 3.5436614,3.5436614 0 0 0 -3.54297,3.54297 l 0,31.88867 a 3.5436614,3.5436614 0 0 0 3.54297,3.54296 l 35.43359,0 a 3.5436614,3.5436614 0 0 0 3.54297,-3.54296 l 0,-31.88867 a 3.5436614,3.5436614 0 0 0 -3.54297,-3.54297 l -12.40234,-0.002 a 3.5436614,3.5436614 0 0 0 -3.54297,3.54297 l -3.54492,0 a 3.5436614,3.5436614 0 0 0 -3.54297,-3.54297 z"
       id="path4569-2" />
    <path
       transform="translate(56.692432,5.6350888e-4)"
       style="opacity:1;fill:#ff6600;fill-opacity:1;stroke:#000000;stroke-width:7.08661417;stroke-linejoin:round;stroke-miterlimit:4;stroke-dasharray:none;stroke-dashoffset:24.16535187;stroke-opacity:1"
       d="m 425.19727,983.26562 c -0.92774,-2.5e-4 -1.77335,0.84375 -1.77344,1.77149 -2.6e-4,0.92796 0.84548,1.77369 1.77344,1.77344 0.92774,-9e-5 1.77173,-0.8457 1.77148,-1.77344 -9e-5,-0.92752 -0.84396,-1.7714 -1.77148,-1.77149 z"
       id="path4571-0" />
    <path
       inkscape:connector-curvature="0"
       style="fill:#ffcc00;fill-opacity:1;stroke:none;stroke-width:7.08661413;stroke-miterlimit:4;stroke-dasharray:none;stroke-opacity:1"
       d="m 533.26653,963.77753 -12.40039,0.002 a 3.5436614,3.5436614 0 0 0 -3.54297,3.54297 l 0,31.88867 a 3.5436614,3.5436614 0 0 0 3.54297,3.54293 l 35.43359,0 a 3.5436614,3.5436614 0 0 0 3.54297,-3.54293 l 0,-31.88867 a 3.5436614,3.5436614 0 0 0 -3.54297,-3.54297 l -12.40234,-0.002 a 3.5436614,3.5436614 0 0 0 -3.54297,3.54297 l -3.54492,0 a 3.5436614,3.5436614 0 0 0 -3.54297,-3.54297 z"
       id="path4569-2-6" />
    <path
       inkscape:connector-curvature="0"
       style="opacity:1;fill:#ff6600;fill-opacity:1;stroke:none;stroke-width:7.08661413;stroke-linejoin:round;stroke-miterlimit:4;stroke-dasharray:none;stroke-dashoffset:24.16535187;stroke-opacity:1"
       d="m 538.58294,983.26581 c -0.92774,-2.5e-4 -1.77335,0.84375 -1.77344,1.77149 -2.6e-4,0.92796 0.84548,1.77369 1.77344,1.77344 0.92774,-9e-5 1.77173,-0.8457 1.77148,-1.77344 -9e-5,-0.92752 -0.84396,-1.7714 -1.77148,-1.77149 z"
       id="path4571-0-7" />
    <path
       style="fill:#ffcc00;fill-opacity:1;stroke:none"
       d="m 933.66023,967.32083 -12.40039,0.002 0,31.88871 35.43359,0 0,-31.88871 -12.40234,-0.002 0,3.54296 -10.63086,0 z"
       id="rect4962-4-0-4-5"
       inkscape:connector-curvature="0"
       sodipodi:nodetypes="ccccccccc" />
    <path
       inkscape:connector-curvature="0"
       style="opacity:1;fill:#ff6600;fill-opacity:1;stroke:none;stroke-width:7.08661413;stroke-linejoin:round;stroke-miterlimit:4;stroke-dasharray:none;stroke-dashoffset:24.16535187;stroke-opacity:1"
       d="m 944.29107,985.03796 a 5.31496,5.31496 0 0 1 -5.31496,5.31496 5.31496,5.31496 0 0 1 -5.31496,-5.31496 5.31496,5.31496 0 0 1 5.31496,-5.31496 5.31496,5.31496 0 0 1 5.31496,5.31496 z"
       id="path4224-4-9-1" />
    <path
       style="fill:#ffcc00;fill-opacity:1;stroke:none"
       d="m 1429.7233,967.32083 -12.4004,0.002 0,31.88871 35.4336,0 0,-31.88871 -12.4023,-0.002 0,3.54296 -10.6309,0 z"
       id="rect4962-4-0-4-0"
       inkscape:connector-curvature="0"
       sodipodi:nodetypes="ccccccccc" />
    <path
       inkscape:connector-curvature="0"
       style="opacity:1;fill:#ff6600;fill-opacity:1;stroke:none;stroke-width:7.08661413;stroke-linejoin:round;stroke-miterlimit:4;stroke-dasharray:none;stroke-dashoffset:24.16535187;stroke-opacity:1"
       d="m 1440.3542,985.03796 a 5.31496,5.31496 0 0 1 -5.315,5.31496 5.31496,5.31496 0 0 1 -5.3149,-5.31496 5.31496,5.31496 0 0 1 5.3149,-5.31496 5.31496,5.31496 0 0 1 5.315,5.31496 z"
       id="path4224-4-9-7" />
    <path
       style="fill:#ffcc00;fill-opacity:1;stroke:none"
       d="m 1961.2193,967.32083 -12.4004,0.002 0,31.88871 35.4336,0 0,-31.88871 -12.4023,-0.002 0,3.54296 -10.6309,0 z"
       id="rect4962-4-0-4-08"
       inkscape:connector-curvature="0"
       sodipodi:nodetypes="ccccccccc" />
    <path
       inkscape:connector-curvature="0"
       style="opacity:1;fill:#ff6600;fill-opacity:1;stroke:none;stroke-width:7.08661413;stroke-linejoin:round;stroke-miterlimit:4;stroke-dasharray:none;stroke-dashoffset:24.16535187;stroke-opacity:1"
       d="m 1971.8502,985.03796 a 5.31496,5.31496 0 0 1 -5.315,5.31496 5.31496,5.31496 0 0 1 -5.3149,-5.31496 5.31496,5.31496 0 0 1 5.3149,-5.31496 5.31496,5.31496 0 0 1 5.315,5.31496 z"
       id="path4224-4-9-8" />
    <path
       sodipodi:type="inkscape:offset"
       inkscape:radius="1.9488189"
       inkscape:original="M 979.72266 967.32031 L 967.32227 967.32227 L 967.32227 999.21094 L 1002.7559 999.21094 L 1002.7559 967.32227 L 990.35352 967.32031 L 990.35352 970.86328 L 979.72266 970.86328 L 979.72266 967.32031 z "
       style="fill:#ffcc00;fill-opacity:1;stroke:none"
       id="path4663"
       d="m 979.72266,967.32031 -12.40039,0.002 0,31.88867 35.43363,0 0,-31.88867 -12.40238,-0.002 0,3.54297 -10.63086,0 0,-3.54297 z" />
    <path
       sodipodi:type="inkscape:offset"
       inkscape:radius="-1.9488189"
       inkscape:original="M 985.03906 979.72266 A 5.31496 5.31496 0 0 0 979.72461 985.03711 A 5.31496 5.31496 0 0 0 985.03906 990.35352 A 5.31496 5.31496 0 0 0 990.35352 985.03711 A 5.31496 5.31496 0 0 0 985.03906 979.72266 z "
       style="opacity:1;fill:#ff6600;fill-opacity:1;stroke:none;stroke-width:7.08661413;stroke-linejoin:round;stroke-miterlimit:4;stroke-dasharray:none;stroke-dashoffset:24.16535187;stroke-opacity:1"
       id="path4665"
       d="m 985.03906,979.72266 a 5.31496,5.31496 0 0 0 -5.31445,5.31445 5.31496,5.31496 0 0 0 5.31445,5.31641 5.31496,5.31496 0 0 0 5.31446,-5.31641 5.31496,5.31496 0 0 0 -5.31446,-5.31445 z" />
    <path
       transform="translate(51.378283,0.00127934)"
       style="fill:#ffcc00;fill-opacity:1;stroke:#000000;stroke-opacity:1;stroke-width:3.8976378;stroke-miterlimit:4;stroke-dasharray:none"
       d="m 979.72266,965.37109 -12.40039,0.002 a 1.9490138,1.9490138 0 0 0 -1.94922,1.94922 l 0,31.88867 a 1.9490138,1.9490138 0 0 0 1.94922,1.94926 l 35.43363,0 a 1.9490138,1.9490138 0 0 0 1.9492,-1.94926 l 0,-31.88867 a 1.9490138,1.9490138 0 0 0 -1.9492,-1.94922 l -12.40238,-0.002 a 1.9490138,1.9490138 0 0 0 -1.94922,1.94922 l 0,1.59375 -6.73242,0 0,-1.59375 a 1.9490138,1.9490138 0 0 0 -1.94922,-1.94922 z"
       id="path4663-0" />
    <path
       transform="translate(51.378283,0.00127934)"
       style="opacity:1;fill:#ff6600;fill-opacity:1;stroke:#000000;stroke-width:3.8976378;stroke-linejoin:round;stroke-miterlimit:4;stroke-dasharray:none;stroke-dashoffset:24.16535187;stroke-opacity:1"
       d="m 985.03906,981.67188 c -1.76229,1.6e-4 -3.36506,1.60294 -3.36523,3.36523 -4.8e-4,1.76271 1.60253,3.36702 3.36523,3.36719 1.76271,-1.7e-4 3.36572,-1.60448 3.36524,-3.36719 -1.7e-4,-1.76229 -1.60294,-3.36507 -3.36524,-3.36523 z"
       id="path4665-6" />
    <path
       inkscape:connector-curvature="0"
       style="fill:#ffcc00;fill-opacity:1;stroke:none;stroke-width:3.89763784;stroke-miterlimit:4;stroke-dasharray:none;stroke-opacity:1"
       d="m 1082.4789,965.37237 -12.4004,0.002 a 1.9490138,1.9490138 0 0 0 -1.9492,1.94922 l 0,31.88867 a 1.9490138,1.9490138 0 0 0 1.9492,1.94914 l 35.4337,0 a 1.9490138,1.9490138 0 0 0 1.9492,-1.94914 l 0,-31.88867 a 1.9490138,1.9490138 0 0 0 -1.9492,-1.94922 l -12.4024,-0.002 a 1.9490138,1.9490138 0 0 0 -1.9492,1.94922 l 0,1.59375 -6.7325,0 0,-1.59375 a 1.9490138,1.9490138 0 0 0 -1.9492,-1.94922 z"
       id="path4663-0-9" />
    <path
       inkscape:connector-curvature="0"
       style="opacity:1;fill:#ff6600;fill-opacity:1;stroke:none;stroke-width:3.89763784;stroke-linejoin:round;stroke-miterlimit:4;stroke-dasharray:none;stroke-dashoffset:24.16535187;stroke-opacity:1"
       d="m 1087.7953,981.67316 c -1.7623,1.6e-4 -3.365,1.60294 -3.3652,3.36523 -5e-4,1.76271 1.6025,3.36702 3.3652,3.36719 1.7627,-1.7e-4 3.3657,-1.60448 3.3653,-3.36719 -2e-4,-1.76229 -1.603,-3.36507 -3.3653,-3.36523 z"
       id="path4665-6-9" />
    <path
       sodipodi:type="inkscape:offset"
       inkscape:radius="1.7716535"
       inkscape:original="M 2032.0859 967.32227 L 2019.6855 967.32422 L 2019.6855 999.21484 L 2055.1191 999.21484 L 2055.1191 967.32422 L 2042.7168 967.32227 L 2042.7168 970.86523 L 2032.0859 970.86523 L 2032.0859 967.32227 z "
       style="fill:#ffcc00;fill-opacity:1;stroke:none"
       id="path4723"
       d="m 2032.0859,967.32227 -12.4004,0.002 0,31.89062 35.4336,0 0,-31.89062 -12.4023,-0.002 0,3.54296 -10.6309,0 0,-3.54296 z" />
    <path
       sodipodi:type="inkscape:offset"
       inkscape:radius="-1.7716535"
       inkscape:original="M 2037.4023 979.72461 A 5.31496 5.31496 0 0 0 2032.0879 985.04102 A 5.31496 5.31496 0 0 0 2037.4023 990.35547 A 5.31496 5.31496 0 0 0 2042.7168 985.04102 A 5.31496 5.31496 0 0 0 2037.4023 979.72461 z "
       style="opacity:1;fill:#ff6600;fill-opacity:1;stroke:none;stroke-width:7.08661413;stroke-linejoin:round;stroke-miterlimit:4;stroke-dasharray:none;stroke-dashoffset:24.16535187;stroke-opacity:1"
       id="path4725"
       d="m 2037.4023,979.72461 a 5.31496,5.31496 0 0 0 -5.3144,5.31641 5.31496,5.31496 0 0 0 5.3144,5.31445 5.31496,5.31496 0 0 0 5.3145,-5.31445 5.31496,5.31496 0 0 0 -5.3145,-5.31641 z" />
    <path
       transform="translate(49.605575,-6.6586289e-4)"
       style="fill:#ffcc00;fill-opacity:1;stroke:#000000;stroke-opacity:1;stroke-width:3.54330709;stroke-miterlimit:4;stroke-dasharray:none"
       d="m 2032.0859,965.55078 -12.4004,0.002 a 1.7718307,1.7718307 0 0 0 -1.7714,1.77149 l 0,31.89062 a 1.7718307,1.7718307 0 0 0 1.7714,1.77146 l 35.4336,0 a 1.7718307,1.7718307 0 0 0 1.7715,-1.77146 l 0,-31.89062 a 1.7718307,1.7718307 0 0 0 -1.7715,-1.77149 l -12.4023,-0.002 a 1.7718307,1.7718307 0 0 0 -1.7715,1.77149 l 0,1.77148 -7.0879,0 0,-1.77148 a 1.7718307,1.7718307 0 0 0 -1.7715,-1.77149 z"
       id="path4723-7" />
    <path
       transform="translate(49.605575,-6.6586289e-4)"
       style="opacity:1;fill:#ff6600;fill-opacity:1;stroke:#000000;stroke-width:3.54330709;stroke-linejoin:round;stroke-miterlimit:4;stroke-dasharray:none;stroke-dashoffset:24.16535187;stroke-opacity:1"
       d="m 2037.4023,981.49609 c -1.8554,2e-4 -3.5434,1.68946 -3.5429,3.54493 2e-4,1.85503 1.6879,3.54277 3.5429,3.54296 1.8551,-1.6e-4 3.5428,-1.68791 3.543,-3.54296 5e-4,-1.8555 -1.6875,-3.54477 -3.543,-3.54493 z"
       id="path4725-5" />
    <path
       inkscape:connector-curvature="0"
       style="fill:#ffcc00;fill-opacity:1;stroke:none;stroke-width:3.54330707;stroke-miterlimit:4;stroke-dasharray:none;stroke-opacity:1"
       d="m 2133.0694,965.55011 -12.4004,0.002 a 1.7718307,1.7718307 0 0 0 -1.7714,1.77149 l 0,31.89057 a 1.7718307,1.7718307 0 0 0 1.7714,1.77163 l 35.4336,0 a 1.7718307,1.7718307 0 0 0 1.7715,-1.77163 l 0,-31.89057 a 1.7718307,1.7718307 0 0 0 -1.7715,-1.77149 l -12.4023,-0.002 a 1.7718307,1.7718307 0 0 0 -1.7715,1.77149 l 0,1.77148 -7.0879,0 0,-1.77148 a 1.7718307,1.7718307 0 0 0 -1.7715,-1.77149 z"
       id="path4723-7-2" />
    <path
       inkscape:connector-curvature="0"
       style="opacity:1;fill:#ff6600;fill-opacity:1;stroke:none;stroke-width:3.54330707;stroke-linejoin:round;stroke-miterlimit:4;stroke-dasharray:none;stroke-dashoffset:24.16535187;stroke-opacity:1"
       d="m 2138.3858,981.49542 c -1.8554,2e-4 -3.5434,1.68946 -3.5429,3.54493 2e-4,1.85503 1.6879,3.54277 3.5429,3.54296 1.8551,-1.6e-4 3.5428,-1.68791 3.543,-3.54296 5e-4,-1.8555 -1.6875,-3.54477 -3.543,-3.54493 z"
       id="path4725-5-9" />
    <path
       transform="translate(1773.4245,8.9030088e-4)"
       style="fill:#aad400;fill-opacity:1;stroke:#000000;stroke-opacity:1;stroke-width:3.54330709;stroke-miterlimit:4;stroke-dasharray:none;stroke-linejoin:round"
       d="m 301.18164,784.8418 a 1.7718307,1.7718307 0 0 0 -1.77148,1.77148 l 0,70.86719 a 1.7718307,1.7718307 0 0 0 1.77148,1.77148 l 67.32227,0 a 1.7718307,1.7718307 0 0 0 1.77148,-1.77148 l 0,-70.86719 a 1.7718307,1.7718307 0 0 0 -1.77148,-1.77148 l -14.17188,0 a 1.7718307,1.7718307 0 0 0 -1.77148,1.77148 l -0.002,40.75 -35.43164,0 0,-40.75 a 1.7718307,1.7718307 0 0 0 -1.77148,-1.77148 l -14.17383,0 z"
       id="path4284-7-93-20-7" />
    <path
       inkscape:connector-curvature="0"
       style="fill:#aad400;fill-opacity:1;stroke:none;stroke-width:3.54330707;stroke-linejoin:round;stroke-miterlimit:4;stroke-dasharray:none;stroke-opacity:1"
       d="m 2159.6432,784.84269 a 1.7718307,1.7718307 0 0 0 -1.7715,1.77148 l 0,70.86719 a 1.7718307,1.7718307 0 0 0 1.7715,1.77148 l 67.3223,0 a 1.7718307,1.7718307 0 0 0 1.7715,-1.77148 l 0,-70.86719 a 1.7718307,1.7718307 0 0 0 -1.7715,-1.77148 l -14.1719,0 a 1.7718307,1.7718307 0 0 0 -1.7715,1.77148 l 0,40.75 -35.4316,0 0,-40.75 a 1.7718307,1.7718307 0 0 0 -1.7715,-1.77148 l -14.1738,0 z"
       id="path4284-7-93-20-7-8" />
    <path
       style="fill:#ff7f2a;fill-opacity:1;stroke:none"
       d="m -178.94181,419.89363 0.008,12.43067 c 0.001,4.13548 2.05024,7.88383 5.3125,10.15625 l -0.0123,106.74379 14.1875,0 0.0123,-106.74379 c 0.57162,-0.39796 1.10101,-0.82896 1.59375,-1.3125 l 17.875,0 0,40.71875 42.531247,0 0,-23.03125 3.53125,0 0,-12.375 -3.53125,0 0,-23.03125 -42.531247,0 0,7.0625 -14.15625,0 -0.01,-10.61817 -7.09375,0 0.01,12.43067 c -0.001,2.91981 -2.35094,5.28525 -5.3125,5.28125 -2.96155,-0.004 -5.3115,-2.36754 -5.3125,-5.28125 l -0.008,-12.43067 z"
       id="rect4322-8-8-0-2-0"
       inkscape:connector-curvature="0"
       sodipodi:nodetypes="cccccccccccccccccccccsccc" />
    <path
       style="fill:#ff7f2a;fill-opacity:1;stroke:none"
       d="m 1860.2192,591.70318 0.01,12.43067 c 10e-4,4.13548 2.0502,7.88383 5.3125,10.15625 l -0.012,106.74379 14.1875,0 0.012,-106.74379 c 0.5716,-0.39796 1.101,-0.82896 1.5937,-1.3125 l 17.875,0 0,40.71875 42.5312,0 0,-23.03125 3.5313,0 0,-12.375 -3.5313,0 0,-23.03125 -42.5312,0 0,7.0625 -14.1562,0 -0.01,-10.61817 -7.0938,0 0.01,12.43067 c -10e-4,2.91981 -2.3509,5.28525 -5.3125,5.28125 -2.9615,-0.004 -5.3115,-2.36754 -5.3125,-5.28125 l -0.01,-12.43067 z"
       id="rect4322-8-8-0-2-0-0"
       inkscape:connector-curvature="0"
       sodipodi:nodetypes="cccccccccccccccccccccsccc" />
    <path
       sodipodi:type="inkscape:offset"
       inkscape:radius="1.7716535"
       inkscape:original="M 1959.4492 591.73242 L 1959.459 604.16211 C 1959.46 608.29759 1961.5092 612.04594 1964.7715 614.31836 L 1964.7598 721.0625 L 1978.9473 721.0625 L 1978.959 614.31836 C 1979.5306 613.9204 1980.06 613.4894 1980.5527 613.00586 L 1998.4277 613.00586 L 1998.4277 653.72461 L 2040.959 653.72461 L 2040.959 630.69336 L 2044.4902 630.69336 L 2044.4902 618.31836 L 2040.959 618.31836 L 2040.959 595.28711 L 1998.4277 595.28711 L 1998.4277 602.34961 L 1984.2715 602.34961 L 1984.2617 591.73242 L 1977.168 591.73242 L 1977.1777 604.16211 C 1977.1767 607.08192 1974.8268 609.44736 1971.8652 609.44336 C 1968.9037 609.43936 1966.5537 607.07582 1966.5527 604.16211 L 1966.543 591.73242 L 1959.4492 591.73242 z "
       style="fill:#ff7f2a;fill-opacity:1;stroke:none"
       id="path4325"
       d="m 1959.4492,591.73242 0.01,12.42969 c 10e-4,4.13548 2.0502,7.88383 5.3125,10.15625 l -0.012,106.74414 14.1875,0 0.012,-106.74414 c 0.5716,-0.39796 1.101,-0.82896 1.5937,-1.3125 l 17.875,0 0,40.71875 42.5313,0 0,-23.03125 3.5312,0 0,-12.375 -3.5312,0 0,-23.03125 -42.5313,0 0,7.0625 -14.1562,0 -0.01,-10.61719 -7.0937,0 0.01,12.42969 c -10e-4,2.91981 -2.3509,5.28525 -5.3125,5.28125 -2.9615,-0.004 -5.3115,-2.36754 -5.3125,-5.28125 l -0.01,-12.42969 -7.0938,0 z" />
    <path
       transform="translate(108.07032,-0.00210161)"
       style="fill:#ff7f2a;fill-opacity:1;stroke:#000000;stroke-width:3.54330707;stroke-linejoin:round;stroke-miterlimit:4;stroke-dasharray:none;stroke-opacity:1"
       d="m 1959.4492,589.96094 a 1.7718307,1.7718307 0 0 0 -1.7715,1.77344 l 0.01,12.42968 c 0,4.36422 2.0647,8.30197 5.3125,10.93164 l -0.012,105.9668 a 1.7718307,1.7718307 0 0 0 1.7715,1.77148 l 14.1875,0 a 1.7718307,1.7718307 0 0 0 1.7715,-1.77148 l 0.012,-105.91797 c 0.1504,-0.12011 0.3012,-0.24029 0.4472,-0.36719 l 15.4785,0 0,38.94727 a 1.7718307,1.7718307 0 0 0 1.7715,1.77148 l 42.5313,0 a 1.7718307,1.7718307 0 0 0 1.7715,-1.77148 l 0,-21.25977 1.7597,0 a 1.7718307,1.7718307 0 0 0 1.7715,-1.77148 l 0,-12.375 a 1.7718307,1.7718307 0 0 0 -1.7715,-1.77148 l -1.7597,0 0,-21.25977 a 1.7718307,1.7718307 0 0 0 -1.7715,-1.77149 l -42.5313,0 a 1.7718307,1.7718307 0 0 0 -1.7715,1.77149 l 0,5.29101 -10.6152,0 -0.01,-8.84765 a 1.7718307,1.7718307 0 0 0 -1.7715,-1.76953 l -7.0937,0 a 1.7718307,1.7718307 0 0 0 -1.7715,1.77344 l 0.01,12.42968 c -0,1.96861 -1.5227,3.51054 -3.539,3.50782 -2.0202,-0.003 -3.5423,-1.54833 -3.543,-3.50977 a 1.7718307,1.7718307 0 0 0 0,-0.002 l -0.01,-12.42969 a 1.7718307,1.7718307 0 0 0 -1.7715,-1.76953 l -7.0938,0 z"
       id="path4325-3" />
    <path
       inkscape:connector-curvature="0"
       style="fill:#ff7f2a;fill-opacity:1;stroke:none;stroke-width:3.54330707;stroke-linejoin:round;stroke-miterlimit:4;stroke-dasharray:none;stroke-opacity:1"
       d="m 2179.1338,589.95884 a 1.7718307,1.7718307 0 0 0 -1.7715,1.77344 l 0.01,12.42968 c 0,4.36422 2.0647,8.30197 5.3125,10.93164 l -0.012,105.9668 a 1.7718307,1.7718307 0 0 0 1.7715,1.77148 l 14.1875,0 a 1.7718307,1.7718307 0 0 0 1.7715,-1.77148 l 0.012,-105.91797 c 0.1504,-0.12011 0.3012,-0.24029 0.4472,-0.36719 l 15.4785,0 0,38.94727 a 1.7718307,1.7718307 0 0 0 1.7715,1.77148 l 42.5313,0 a 1.7718307,1.7718307 0 0 0 1.7715,-1.77148 l 0,-21.25977 1.7597,0 a 1.7718307,1.7718307 0 0 0 1.7715,-1.77148 l 0,-12.375 a 1.7718307,1.7718307 0 0 0 -1.7715,-1.77148 l -1.7597,0 0,-21.25977 a 1.7718307,1.7718307 0 0 0 -1.7715,-1.77149 l -42.5313,0 a 1.7718307,1.7718307 0 0 0 -1.7715,1.77149 l 0,5.29101 -10.6152,0 -0.01,-8.84765 a 1.7718307,1.7718307 0 0 0 -1.7715,-1.76953 l -7.0937,0 a 1.7718307,1.7718307 0 0 0 -1.7715,1.77344 l 0.01,12.42968 c 0,1.96861 -1.5227,3.51054 -3.539,3.50782 -2.0202,-0.003 -3.5423,-1.54833 -3.543,-3.50977 a 1.7718307,1.7718307 0 0 0 0,-0.002 l -0.01,-12.42969 a 1.7718307,1.7718307 0 0 0 -1.7715,-1.76953 l -7.0938,0 z"
       id="path4325-3-8" />
    <path
       style="fill:#ff7f2a;fill-opacity:1;stroke:none"
       d="m 1328.7231,591.70318 0.01,12.43067 c 10e-4,4.13548 2.0502,7.88383 5.3125,10.15625 l -0.012,106.74379 14.1875,0 0.012,-106.74379 c 0.5716,-0.39796 1.101,-0.82896 1.5937,-1.3125 l 17.875,0 0,40.71875 42.5312,0 0,-23.03125 3.5313,0 0,-12.375 -3.5313,0 0,-23.03125 -42.5312,0 0,7.0625 -14.1562,0 -0.01,-10.61817 -7.0938,0 0.01,12.43067 c -10e-4,2.91981 -2.3509,5.28525 -5.3125,5.28125 -2.9615,-0.004 -5.3115,-2.36754 -5.3125,-5.28125 l -0.01,-12.43067 z"
       id="rect4322-8-8-0-2-0-0-2"
       inkscape:connector-curvature="0"
       sodipodi:nodetypes="cccccccccccccccccccccsccc" />
    <path
       sodipodi:type="inkscape:offset"
       inkscape:radius="1.9133859"
       inkscape:original="M 1427.9453 591.73242 L 1427.9551 604.16211 C 1427.9561 608.29759 1430.0053 612.04594 1433.2676 614.31836 L 1433.2559 721.0625 L 1447.4434 721.0625 L 1447.4551 614.31836 C 1448.0267 613.9204 1448.5561 613.4894 1449.0488 613.00586 L 1466.9238 613.00586 L 1466.9238 653.72461 L 1509.4551 653.72461 L 1509.4551 630.69336 L 1512.9863 630.69336 L 1512.9863 618.31836 L 1509.4551 618.31836 L 1509.4551 595.28711 L 1466.9238 595.28711 L 1466.9238 602.34961 L 1452.7676 602.34961 L 1452.7578 591.73242 L 1445.6641 591.73242 L 1445.6738 604.16211 C 1445.6738 607.08192 1443.3229 609.44736 1440.3613 609.44336 C 1437.3998 609.43936 1435.0498 607.07582 1435.0488 604.16211 L 1435.0391 591.73242 L 1427.9453 591.73242 z "
       style="fill:#ff7f2a;fill-opacity:1;stroke:none"
       id="path4379"
       d="m 1427.9453,591.73242 0.01,12.42969 c 0,4.13548 2.0502,7.88383 5.3125,10.15625 l -0.012,106.74414 14.1875,0 0.012,-106.74414 c 0.5716,-0.39796 1.101,-0.82896 1.5937,-1.3125 l 17.875,0 0,40.71875 42.5313,0 0,-23.03125 3.5312,0 0,-12.375 -3.5312,0 0,-23.03125 -42.5313,0 0,7.0625 -14.1562,0 -0.01,-10.61719 -7.0937,0 0.01,12.42969 c 0,2.91981 -2.3509,5.28525 -5.3125,5.28125 -2.9615,-0.004 -5.3115,-2.36754 -5.3125,-5.28125 l -0.01,-12.42969 -7.0938,0 z" />
    <path
       transform="translate(97.590884,-0.00210561)"
       style="fill:#ff7f2a;fill-opacity:1;stroke:#000000;stroke-width:3.82677174;stroke-linejoin:round;stroke-miterlimit:4;stroke-dasharray:none;stroke-opacity:1"
       d="m 1427.9453,589.81836 a 1.9135772,1.9135772 0 0 0 -1.9141,1.91602 l 0.01,12.42968 c 0,4.38245 2.0652,8.33765 5.3125,10.99414 l -0.012,105.9043 a 1.9135772,1.9135772 0 0 0 1.9141,1.91406 l 14.1875,0 a 1.9135772,1.9135772 0 0 0 1.914,-1.91406 l 0.012,-105.84961 c 0.119,-0.0959 0.2373,-0.19279 0.3536,-0.29297 l 15.2871,0 0,38.80469 a 1.9135772,1.9135772 0 0 0 1.914,1.91406 l 42.5313,0 a 1.9135772,1.9135772 0 0 0 1.914,-1.91406 l 0,-21.11719 1.6172,0 a 1.9135772,1.9135772 0 0 0 1.9141,-1.91406 l 0,-12.375 a 1.9135772,1.9135772 0 0 0 -1.9141,-1.91406 l -1.6172,0 0,-21.11719 a 1.9135772,1.9135772 0 0 0 -1.914,-1.91406 l -42.5313,0 a 1.9135772,1.9135772 0 0 0 -1.914,1.91406 l 0,5.14844 -10.3301,0 -0.01,-8.70508 a 1.9135772,1.9135772 0 0 0 -1.9141,-1.91211 l -7.0937,0 a 1.9135772,1.9135772 0 0 0 -1.9141,1.91602 l 0.01,12.42968 c -0,1.8918 -1.4558,3.36786 -3.3965,3.36524 -1.9449,-0.003 -3.3998,-1.48193 -3.4004,-3.36719 a 1.9135772,1.9135772 0 0 0 0,-0.002 l -0.01,-12.42969 a 1.9135772,1.9135772 0 0 0 -1.914,-1.91211 l -7.0938,0 z"
       id="path4379-2" />
    <path
       inkscape:connector-curvature="0"
       style="fill:#ff7f2a;fill-opacity:1;stroke:none;stroke-width:3.82677174;stroke-linejoin:round;stroke-miterlimit:4;stroke-dasharray:none;stroke-opacity:1"
       d="m 1622.8346,589.96062 a 1.9135772,1.9135772 0 0 0 -1.9141,1.91602 l 0.01,12.42968 c 0,4.38245 2.0652,8.33765 5.3125,10.99414 l -0.012,105.9043 a 1.9135772,1.9135772 0 0 0 1.9141,1.91406 l 14.1875,0 a 1.9135772,1.9135772 0 0 0 1.914,-1.91406 l 0.012,-105.84961 c 0.119,-0.0959 0.2373,-0.19279 0.3536,-0.29297 l 15.2871,0 0,38.80469 a 1.9135772,1.9135772 0 0 0 1.914,1.91406 l 42.5313,0 a 1.9135772,1.9135772 0 0 0 1.914,-1.91406 l 0,-21.11719 1.6172,0 a 1.9135772,1.9135772 0 0 0 1.9141,-1.91406 l 0,-12.375 a 1.9135772,1.9135772 0 0 0 -1.9141,-1.91406 l -1.6172,0 0,-21.11719 a 1.9135772,1.9135772 0 0 0 -1.914,-1.91406 l -42.5313,0 a 1.9135772,1.9135772 0 0 0 -1.914,1.91406 l 0,5.14844 -10.3301,0 -0.01,-8.70508 a 1.9135772,1.9135772 0 0 0 -1.9141,-1.91211 l -7.0937,0 a 1.9135772,1.9135772 0 0 0 -1.9141,1.91602 l 0.01,12.42968 c 0,1.8918 -1.4558,3.36786 -3.3965,3.36524 -1.9449,-0.003 -3.3998,-1.48193 -3.4004,-3.36719 a 1.9135772,1.9135772 0 0 0 0,-0.002 l -0.01,-12.42969 a 1.9135772,1.9135772 0 0 0 -1.914,-1.91211 l -7.0938,0 z"
       id="path4379-2-0" />
    <path
       style="fill:#ff7f2a;fill-opacity:1;stroke:none"
       d="m 814.96063,588.18897 0.01,12.43067 c 10e-4,4.13548 2.0502,7.88383 5.3125,10.15625 l -0.012,106.74379 14.1875,0 0.012,-106.74379 c 0.5716,-0.39796 1.101,-0.82896 1.5937,-1.3125 l 17.875,0 0,40.71875 42.5312,0 0,-23.03125 3.5313,0 0,-12.375 -3.5313,0 0,-23.03125 -42.5312,0 0,7.0625 -14.1562,0 -0.01,-10.61817 -7.0938,0 0.01,12.43067 c -0.001,2.91981 -2.3509,5.28525 -5.3125,5.28125 -2.9615,-0.004 -5.3115,-2.36754 -5.3125,-5.28125 l -0.01,-12.43067 z"
       id="rect4322-8-8-0-2-0-0-2-5"
       inkscape:connector-curvature="0"
       sodipodi:nodetypes="cccccccccccccccccccccsccc" />
    <path
       sodipodi:type="inkscape:offset"
       inkscape:radius="1.9488189"
       inkscape:original="M 907.08594 591.73242 L 907.0957 604.16211 C 907.0967 608.29759 909.1459 612.04594 912.4082 614.31836 L 912.39648 721.0625 L 926.58398 721.0625 L 926.5957 614.31836 C 927.1673 613.9204 927.69675 613.4894 928.18945 613.00586 L 946.06445 613.00586 L 946.06445 653.72461 L 988.5957 653.72461 L 988.5957 630.69336 L 992.12695 630.69336 L 992.12695 618.31836 L 988.5957 618.31836 L 988.5957 595.28711 L 946.06445 595.28711 L 946.06445 602.34961 L 931.9082 602.34961 L 931.89844 591.73242 L 924.80469 591.73242 L 924.81445 604.16211 C 924.81345 607.08192 922.46355 609.44736 919.50195 609.44336 C 916.54045 609.43936 914.19045 607.07582 914.18945 604.16211 L 914.17969 591.73242 L 907.08594 591.73242 z "
       style="fill:#ff7f2a;fill-opacity:1;stroke:none"
       id="path3494"
       d="m 907.08594,591.73242 0.01,12.42969 c 0.001,4.13548 2.0502,7.88383 5.3125,10.15625 l -0.0117,106.74414 14.1875,0 0.0117,-106.74414 c 0.5716,-0.39796 1.10105,-0.82896 1.59375,-1.3125 l 17.875,0 0,40.71875 42.53125,0 0,-23.03125 3.53125,0 0,-12.375 -3.53125,0 0,-23.03125 -42.53125,0 0,7.0625 -14.15625,0 -0.01,-10.61719 -7.09375,0 0.01,12.42969 c -10e-4,2.91981 -2.3509,5.28525 -5.3125,5.28125 -2.9615,-0.004 -5.3115,-2.36754 -5.3125,-5.28125 l -0.01,-12.42969 -7.09375,0 z" />
    <path
       transform="translate(97.256913,0.00180839)"
       style="fill:#ff7f2a;fill-opacity:1;stroke:#000000;stroke-opacity:1;stroke-width:3.8976378;stroke-miterlimit:4;stroke-dasharray:none;stroke-linejoin:round"
       d="m 907.08594,589.7832 a 1.9490138,1.9490138 0 0 0 -1.94922,1.95118 l 0.01,12.42968 c 0.002,4.38705 2.0652,8.34661 5.3125,11.00977 l -0.0117,105.88867 a 1.9490138,1.9490138 0 0 0 1.94921,1.94922 l 14.1875,0 a 1.9490138,1.9490138 0 0 0 1.94922,-1.94922 l 0.0117,-105.83398 c 0.11133,-0.09 0.22306,-0.17973 0.33203,-0.27344 l 15.23828,0 0,38.76953 a 1.9490138,1.9490138 0 0 0 1.94922,1.94922 l 42.53125,0 a 1.9490138,1.9490138 0 0 0 1.94922,-1.94922 l 0,-21.08203 1.58203,0 a 1.9490138,1.9490138 0 0 0 1.94922,-1.94922 l 0,-12.375 a 1.9490138,1.9490138 0 0 0 -1.94922,-1.94922 l -1.58203,0 0,-21.08203 a 1.9490138,1.9490138 0 0 0 -1.94922,-1.94922 l -42.53125,0 a 1.9490138,1.9490138 0 0 0 -1.94922,1.94922 l 0,5.11328 -10.25976,0 -0.008,-8.66992 a 1.9490138,1.9490138 0 0 0 -1.94922,-1.94727 l -7.09375,0 a 1.9490138,1.9490138 0 0 0 -1.94922,1.95118 l 0.01,12.42968 c -0.002,1.87358 -1.43949,3.33268 -3.36132,3.33008 -1.92601,-0.003 -3.3646,-1.46582 -3.36524,-3.33203 a 1.9490138,1.9490138 0 0 0 0,-0.002 l -0.01,-12.42969 a 1.9490138,1.9490138 0 0 0 -1.94922,-1.94727 l -7.09375,0 z"
       id="path3494-1" />
    <path
       inkscape:connector-curvature="0"
       style="fill:#ff7f2a;fill-opacity:1;stroke:none;stroke-width:3.89763784;stroke-linejoin:round;stroke-miterlimit:4;stroke-dasharray:none;stroke-opacity:1"
       d="m 1102.1461,589.78109 a 1.9490138,1.9490138 0 0 0 -1.9492,1.95118 l 0.01,12.42968 c 0,4.38705 2.0652,8.34661 5.3125,11.00977 l -0.012,105.88867 a 1.9490138,1.9490138 0 0 0 1.9492,1.94922 l 14.1875,0 a 1.9490138,1.9490138 0 0 0 1.9492,-1.94922 l 0.012,-105.83398 c 0.1113,-0.09 0.2231,-0.17973 0.332,-0.27344 l 15.2383,0 0,38.76953 a 1.9490138,1.9490138 0 0 0 1.9492,1.94922 l 42.5313,0 a 1.9490138,1.9490138 0 0 0 1.9492,-1.94922 l 0,-21.08203 1.582,0 a 1.9490138,1.9490138 0 0 0 1.9493,-1.94922 l 0,-12.375 a 1.9490138,1.9490138 0 0 0 -1.9493,-1.94922 l -1.582,0 0,-21.08203 a 1.9490138,1.9490138 0 0 0 -1.9492,-1.94922 l -42.5313,0 a 1.9490138,1.9490138 0 0 0 -1.9492,1.94922 l 0,5.11328 -10.2597,0 -0.01,-8.66992 a 1.9490138,1.9490138 0 0 0 -1.9493,-1.94727 l -7.0937,0 a 1.9490138,1.9490138 0 0 0 -1.9492,1.95118 l 0.01,12.42968 c 0,1.87358 -1.4395,3.33268 -3.3613,3.33008 -1.9261,-0.003 -3.3646,-1.46582 -3.3653,-3.33203 a 1.9490138,1.9490138 0 0 0 0,-0.002 l -0.01,-12.42969 a 1.9490138,1.9490138 0 0 0 -1.9492,-1.94727 l -7.0938,0 z"
       id="path3494-1-7" />
    <path
       style="fill:#ff7f2a;fill-opacity:1;stroke:none"
       d="m 301.18111,588.18897 0.01,12.43067 c 0.001,4.13548 2.0502,7.88383 5.3125,10.15625 l -0.012,106.74379 14.1875,0 0.012,-106.74379 c 0.5716,-0.39796 1.101,-0.82896 1.5937,-1.3125 l 17.875,0 0,40.71875 42.5312,0 0,-23.03125 3.5313,0 0,-12.375 -3.5313,0 0,-23.03125 -42.5312,0 0,7.0625 -14.1562,0 -0.01,-10.61817 -7.0938,0 0.01,12.43067 c -10e-4,2.91981 -2.3509,5.28525 -5.3125,5.28125 -2.9615,-0.004 -5.3115,-2.36754 -5.3125,-5.28125 l -0.01,-12.43067 z"
       id="rect4322-8-8-0-2-0-0-2-5-7"
       inkscape:connector-curvature="0"
       sodipodi:nodetypes="cccccccccccccccccccccsccc" />
    <path
       sodipodi:type="inkscape:offset"
       inkscape:radius="3.5433071"
       inkscape:original="M 400.39453 588.18945 L 400.4043 600.61914 C 400.4053 604.75462 402.4545 608.50297 405.7168 610.77539 L 405.70508 717.51953 L 419.89258 717.51953 L 419.9043 610.77539 C 420.4759 610.37743 421.00535 609.94643 421.49805 609.46289 L 439.37305 609.46289 L 439.37305 650.18164 L 481.9043 650.18164 L 481.9043 627.15039 L 485.43555 627.15039 L 485.43555 614.77539 L 481.9043 614.77539 L 481.9043 591.74414 L 439.37305 591.74414 L 439.37305 598.80664 L 425.2168 598.80664 L 425.20703 588.18945 L 418.11328 588.18945 L 418.12305 600.61914 C 418.12205 603.53895 415.77215 605.90439 412.81055 605.90039 C 409.84905 605.89639 407.49905 603.53285 407.49805 600.61914 L 407.48828 588.18945 L 400.39453 588.18945 z "
       style="fill:#ff7f2a;fill-opacity:1;stroke:none"
       id="path4348"
       d="m 400.39453,588.18945 0.01,12.42969 c 0.001,4.13548 2.0502,7.88383 5.3125,10.15625 l -0.0117,106.74414 14.1875,0 0.0117,-106.74414 c 0.5716,-0.39796 1.10105,-0.82896 1.59375,-1.3125 l 17.875,0 0,40.71875 42.53125,0 0,-23.03125 3.53125,0 0,-12.375 -3.53125,0 0,-23.03125 -42.53125,0 0,7.0625 -14.15625,0 -0.01,-10.61719 -7.09375,0 0.01,12.42969 c -10e-4,2.91981 -2.3509,5.28525 -5.3125,5.28125 -2.9615,-0.004 -5.3115,-2.36754 -5.3125,-5.28125 l -0.01,-12.42969 -7.09375,0 z" />
    <path
       transform="translate(106.29126,-8.1586101e-4)"
       style="fill:#ff7f2a;fill-opacity:1;stroke:#000000;stroke-opacity:1;stroke-width:7.08661417;stroke-miterlimit:4;stroke-dasharray:none;stroke-linejoin:round"
       d="m 400.39453,584.64648 a 3.5436614,3.5436614 0 0 0 -3.54297,3.54493 l 0.01,12.42968 c 0.002,4.59442 2.06008,8.75854 5.3125,11.70899 l -0.0117,105.18945 a 3.5436614,3.5436614 0 0 0 3.54297,3.54297 l 14.1875,0 a 3.5436614,3.5436614 0 0 0 3.54297,-3.54297 l 0.0117,-104.51367 12.38281,0 0,37.17578 a 3.5436614,3.5436614 0 0 0 3.54297,3.54297 l 42.53125,0 a 3.5436614,3.5436614 0 0 0 3.54297,-3.54297 l 0,-19.48828 a 3.5436614,3.5436614 0 0 0 3.53125,-3.54297 l 0,-12.375 a 3.5436614,3.5436614 0 0 0 -3.53125,-3.54297 l 0,-19.48828 a 3.5436614,3.5436614 0 0 0 -3.54297,-3.54297 l -42.53125,0 a 3.5436614,3.5436614 0 0 0 -3.54297,3.54297 l 0,3.51953 -7.07227,0 -0.008,-7.07812 a 3.5436614,3.5436614 0 0 0 -3.54297,-3.53907 l -7.09375,0 a 3.5436614,3.5436614 0 0 0 -3.54297,3.54493 l 0.01,12.42578 c -3.5e-4,1.01933 -0.69325,1.74168 -1.76563,1.74023 -1.07878,-0.001 -1.77309,-0.73106 -1.77343,-1.74023 l -0.01,-12.42969 a 3.5436614,3.5436614 0 0 0 -3.54297,-3.54102 l -7.09375,0 z"
       id="path4348-3" />
    <path
       inkscape:connector-curvature="0"
       style="fill:#ff7f2a;fill-opacity:1;stroke:none;stroke-width:7.08661413;stroke-linejoin:round;stroke-miterlimit:4;stroke-dasharray:none;stroke-opacity:1"
       d="m 612.99179,584.64404 a 3.5436614,3.5436614 0 0 0 -3.54297,3.54493 l 0.01,12.42968 c 0.002,4.59442 2.06008,8.75854 5.3125,11.70899 l -0.0117,105.18945 a 3.5436614,3.5436614 0 0 0 3.54297,3.54297 l 14.1875,0 a 3.5436614,3.5436614 0 0 0 3.54297,-3.54297 l 0.0117,-104.51367 12.38281,0 0,37.17578 a 3.5436614,3.5436614 0 0 0 3.54297,3.54297 l 42.53125,0 a 3.5436614,3.5436614 0 0 0 3.54297,-3.54297 l 0,-19.48828 a 3.5436614,3.5436614 0 0 0 3.53125,-3.54297 l 0,-12.375 a 3.5436614,3.5436614 0 0 0 -3.53125,-3.54297 l 0,-19.48828 a 3.5436614,3.5436614 0 0 0 -3.54297,-3.54297 l -42.53125,0 a 3.5436614,3.5436614 0 0 0 -3.54297,3.54297 l 0,3.51953 -7.07227,0 -0.008,-7.07812 a 3.5436614,3.5436614 0 0 0 -3.54297,-3.53907 l -7.09375,0 a 3.5436614,3.5436614 0 0 0 -3.54297,3.54493 l 0.01,12.42578 c -3.5e-4,1.01933 -0.69325,1.74168 -1.76563,1.74023 -1.07878,-10e-4 -1.77309,-0.73106 -1.77343,-1.74023 l -0.01,-12.42969 a 3.5436614,3.5436614 0 0 0 -3.54297,-3.54102 l -7.09375,0 z"
       id="path4348-3-9" />
  </g>
</svg>
