  0
SECTION
  2
HEADER
  9
$ACADVER
  1
AC1014
  9
$HANDSEED
  5
FFFF
  9
$MEASUREMENT
 70
     1
  0
ENDSEC
  0
SECTION
  2
TABLES
  0
TABLE
  2
VPORT
  5
8
330
0
100
AcDbSymbolTable
 70
     4
  0
VPORT
  5
2E
330
8
100
AcDbSymbolTableRecord
100
AcDbViewportTableRecord
  2
*ACTIVE
 70
     0
 10
0.0
 20
0.0
 11
1.0
 21
1.0
 12
210.0
 22
148.5
 13
0.0
 23
0.0
 14
10.0
 24
10.0
 15
10.0
 25
10.0
 16
0.0
 26
0.0
 36
1.0
 17
0.0
 27
0.0
 37
0.0
 40
341.0
 41
1.24
 42
50.0
 43
0.0
 44
0.0
 50
0.0
 51
0.0
 71
     0
 72
   100
 73
     1
 74
     3
 75
     0
 76
     0
 77
     0
 78
     0
  0
ENDTAB
  0
TABLE
  2
LTYPE
  5
5
330
0
100
AcDbSymbolTable
 70
     1
  0
LTYPE
  5
14
330
5
100
AcDbSymbolTableRecord
100
AcDbLinetypeTableRecord
  2
BYBLOCK
 70
     0
  3

 72
    65
 73
     0
 40
0.0
  0
LTYPE
  5
15
330
5
100
AcDbSymbolTableRecord
100
AcDbLinetypeTableRecord
  2
BYLAYER
 70
     0
  3

 72
    65
 73
     0
 40
0.0
  0
LTYPE
  5
16
330
5
100
AcDbSymbolTableRecord
100
AcDbLinetypeTableRecord
  2
CONTINUOUS
 70
     0
  3
Solid line
 72
    65
 73
     0
 40
0.0
  0
ENDTAB
  0
TABLE
  2
LAYER
  5
2
100
AcDbSymbolTable
 70
2
  0
LAYER
  5
50
100
AcDbSymbolTableRecord
100
AcDbLayerTableRecord
  2
0
 70
0
  6
CONTINUOUS
  0
LAYER
  5
51
100
AcDbSymbolTableRecord
100
AcDbLayerTableRecord
  2
Layer_1
 70
0
  6
CONTINUOUS
  0
ENDTAB
  0
TABLE
  2
STYLE
  5
3
330
0
100
AcDbSymbolTable
 70
     1
  0
STYLE
  5
11
330
3
100
AcDbSymbolTableRecord
100
AcDbTextStyleTableRecord
  2
STANDARD
 70
     0
 40
0.0
 41
1.0
 50
0.0
 71
     0
 42
2.5
  3
txt
  4

  0
ENDTAB
  0
TABLE
  2
VIEW
  5
6
330
0
100
AcDbSymbolTable
 70
     0
  0
ENDTAB
  0
TABLE
  2
UCS
  5
7
330
0
100
AcDbSymbolTable
 70
     0
  0
ENDTAB
  0
TABLE
  2
APPID
  5
9
330
0
100
AcDbSymbolTable
 70
     2
  0
APPID
  5
12
330
9
100
AcDbSymbolTableRecord
100
AcDbRegAppTableRecord
  2
ACAD
 70
     0
  0
ENDTAB
  0
TABLE
  2
DIMSTYLE
  5
A
330
0
100
AcDbSymbolTable
 70
     1
  0
DIMSTYLE
105
27
330
A
100
AcDbSymbolTableRecord
100
AcDbDimStyleTableRecord
  2
ISO-25
 70
     0
  3

  4

  5

  6

  7

 40
1.0
 41
2.5
 42
0.625
 43
3.75
 44
1.25
 45
0.0
 46
0.0
 47
0.0
 48
0.0
140
2.5
141
2.5
142
0.0
143
0.03937007874016
144
1.0
145
0.0
146
1.0
147
0.625
 71
     0
 72
     0
 73
     0
 74
     0
 75
     0
 76
     0
 77
     1
 78
     8
170
     0
171
     3
172
     1
173
     0
174
     0
175
     0
176
     0
177
     0
178
     0
270
     2
271
     2
272
     2
273
     2
274
     3
340
11
275
     0
280
     0
281
     0
282
     0
283
     0
284
     8
285
     0
286
     0
287
     3
288
     0
  0
ENDTAB
  0
TABLE
  2
BLOCK_RECORD
  5
1
330
0
100
AcDbSymbolTable
 70
     1
  0
BLOCK_RECORD
  5
1F
330
1
100
AcDbSymbolTableRecord
100
AcDbBlockTableRecord
  2
*MODEL_SPACE
  0
BLOCK_RECORD
  5
1B
330
1
100
AcDbSymbolTableRecord
100
AcDbBlockTableRecord
  2
*PAPER_SPACE
  0
ENDTAB
  0
ENDSEC
  0
SECTION
  2
BLOCKS
  0
BLOCK
  5
20
330
1F
100
AcDbEntity
  8
0
100
AcDbBlockBegin
  2
*MODEL_SPACE
 70
     0
 10
0.0
 20
0.0
 30
0.0
  3
*MODEL_SPACE
  1

  0
ENDBLK
  5
21
330
1F
100
AcDbEntity
  8
0
100
AcDbBlockEnd
  0
BLOCK
  5
1C
330
1B
100
AcDbEntity
 67
     1
  8
0
100
AcDbBlockBegin
  2
*PAPER_SPACE
  1

  0
ENDBLK
  5
1D
330
1B
100
AcDbEntity
 67
     1
  8
0
100
AcDbBlockEnd
  0
ENDSEC
  0
SECTION
  2
ENTITIES
  0
SPLINE
  5
100
100
AcDbEntity
  8
Layer_1
 62
7
100
AcDbSpline
 70
8
 71
3
 72
8
 73
4
 74
0
 40
0
 40
0
 40
0
 40
0
 40
1
 40
1
 40
1
 40
1
 10
5.976241
 20
41.999987
 30
0.0
 10
5.976241
 20
42.139291
 30
0.0
 10
5.990352
 20
42.275294
 30
0.0
 10
6.017360
 20
42.406612
 30
0.0
  0
SPLINE
  5
101
100
AcDbEntity
  8
Layer_1
 62
7
100
AcDbSpline
 70
8
 71
3
 72
8
 73
4
 74
0
 40
0
 40
0
 40
0
 40
0
 40
1
 40
1
 40
1
 40
1
 10
6.017360
 20
42.406612
 30
0.0
 10
6.044454
 20
42.537959
 30
0.0
 10
6.084078
 20
42.664676
 30
0.0
 10
6.135301
 20
42.785355
 30
0.0
  0
SPLINE
  5
102
100
AcDbEntity
  8
Layer_1
 62
7
100
AcDbSpline
 70
8
 71
3
 72
8
 73
4
 74
0
 40
0
 40
0
 40
0
 40
0
 40
1
 40
1
 40
1
 40
1
 10
6.135301
 20
42.785355
 30
0.0
 10
6.186496
 20
42.906061
 30
0.0
 10
6.249150
 20
43.020728
 30
0.0
 10
6.321878
 20
43.128085
 30
0.0
  0
SPLINE
  5
103
100
AcDbEntity
  8
Layer_1
 62
7
100
AcDbSpline
 70
8
 71
3
 72
8
 73
4
 74
0
 40
0
 40
0
 40
0
 40
0
 40
1
 40
1
 40
1
 40
1
 10
6.321878
 20
43.128085
 30
0.0
 10
6.394607
 20
43.235414
 30
0.0
 10
6.477439
 20
43.335406
 30
0.0
 10
6.568992
 20
43.426676
 30
0.0
  0
SPLINE
  5
104
100
AcDbEntity
  8
Layer_1
 62
7
100
AcDbSpline
 70
8
 71
3
 72
8
 73
4
 74
0
 40
0
 40
0
 40
0
 40
0
 40
1
 40
1
 40
1
 40
1
 10
6.568992
 20
43.426676
 30
0.0
 10
6.660545
 20
43.517975
 30
0.0
 10
6.760847
 20
43.600553
 30
0.0
 10
6.868514
 20
43.673056
 30
0.0
  0
SPLINE
  5
105
100
AcDbEntity
  8
Layer_1
 62
7
100
AcDbSpline
 70
8
 71
3
 72
8
 73
4
 74
0
 40
0
 40
0
 40
0
 40
0
 40
1
 40
1
 40
1
 40
1
 10
6.868514
 20
43.673056
 30
0.0
 10
6.976182
 20
43.745587
 30
0.0
 10
7.091216
 20
43.808043
 30
0.0
 10
7.212261
 20
43.859069
 30
0.0
  0
SPLINE
  5
106
100
AcDbEntity
  8
Layer_1
 62
7
100
AcDbSpline
 70
8
 71
3
 72
8
 73
4
 74
0
 40
0
 40
0
 40
0
 40
0
 40
1
 40
1
 40
1
 40
1
 10
7.212261
 20
43.859069
 30
0.0
 10
7.333334
 20
43.910123
 30
0.0
 10
7.460391
 20
43.949775
 30
0.0
 10
7.592160
 20
43.976643
 30
0.0
  0
SPLINE
  5
107
100
AcDbEntity
  8
Layer_1
 62
7
100
AcDbSpline
 70
8
 71
3
 72
8
 73
4
 74
0
 40
0
 40
0
 40
0
 40
0
 40
1
 40
1
 40
1
 40
1
 10
7.592160
 20
43.976643
 30
0.0
 10
7.723902
 20
44.003454
 30
0.0
 10
7.860300
 20
44.017650
 30
0.0
 10
8.000000
 20
44.017650
 30
0.0
  0
SPLINE
  5
108
100
AcDbEntity
  8
Layer_1
 62
7
100
AcDbSpline
 70
8
 71
3
 72
8
 73
4
 74
0
 40
0
 40
0
 40
0
 40
0
 40
1
 40
1
 40
1
 40
1
 10
8.000000
 20
44.017650
 30
0.0
 10
8.139728
 20
44.017650
 30
0.0
 10
8.276126
 20
44.003539
 30
0.0
 10
8.407867
 20
43.976643
 30
0.0
  0
SPLINE
  5
109
100
AcDbEntity
  8
Layer_1
 62
7
100
AcDbSpline
 70
8
 71
3
 72
8
 73
4
 74
0
 40
0
 40
0
 40
0
 40
0
 40
1
 40
1
 40
1
 40
1
 10
8.407867
 20
43.976643
 30
0.0
 10
8.539609
 20
43.949832
 30
0.0
 10
8.666693
 20
43.910123
 30
0.0
 10
8.787738
 20
43.859069
 30
0.0
  0
SPLINE
  5
10a
100
AcDbEntity
  8
Layer_1
 62
7
100
AcDbSpline
 70
8
 71
3
 72
8
 73
4
 74
0
 40
0
 40
0
 40
0
 40
0
 40
1
 40
1
 40
1
 40
1
 10
8.787738
 20
43.859069
 30
0.0
 10
8.908784
 20
43.808043
 30
0.0
 10
9.023846
 20
43.745587
 30
0.0
 10
9.131513
 20
43.673056
 30
0.0
  0
SPLINE
  5
10b
100
AcDbEntity
  8
Layer_1
 62
7
100
AcDbSpline
 70
8
 71
3
 72
8
 73
4
 74
0
 40
0
 40
0
 40
0
 40
0
 40
1
 40
1
 40
1
 40
1
 10
9.131513
 20
43.673056
 30
0.0
 10
9.239153
 20
43.600553
 30
0.0
 10
9.339455
 20
43.517975
 30
0.0
 10
9.431008
 20
43.426676
 30
0.0
  0
SPLINE
  5
10c
100
AcDbEntity
  8
Layer_1
 62
7
100
AcDbSpline
 70
8
 71
3
 72
8
 73
4
 74
0
 40
0
 40
0
 40
0
 40
0
 40
1
 40
1
 40
1
 40
1
 10
9.431008
 20
43.426676
 30
0.0
 10
9.522560
 20
43.335406
 30
0.0
 10
9.605393
 20
43.235414
 30
0.0
 10
9.678121
 20
43.128085
 30
0.0
  0
SPLINE
  5
10d
100
AcDbEntity
  8
Layer_1
 62
7
100
AcDbSpline
 70
8
 71
3
 72
8
 73
4
 74
0
 40
0
 40
0
 40
0
 40
0
 40
1
 40
1
 40
1
 40
1
 10
9.678121
 20
43.128085
 30
0.0
 10
9.750878
 20
43.020728
 30
0.0
 10
9.813503
 20
42.906061
 30
0.0
 10
9.864727
 20
42.785355
 30
0.0
  0
SPLINE
  5
10e
100
AcDbEntity
  8
Layer_1
 62
7
100
AcDbSpline
 70
8
 71
3
 72
8
 73
4
 74
0
 40
0
 40
0
 40
0
 40
0
 40
1
 40
1
 40
1
 40
1
 10
9.864727
 20
42.785355
 30
0.0
 10
9.915922
 20
42.664676
 30
0.0
 10
9.955687
 20
42.537959
 30
0.0
 10
9.982639
 20
42.406612
 30
0.0
  0
SPLINE
  5
10f
100
AcDbEntity
  8
Layer_1
 62
7
100
AcDbSpline
 70
8
 71
3
 72
8
 73
4
 74
0
 40
0
 40
0
 40
0
 40
0
 40
1
 40
1
 40
1
 40
1
 10
9.982639
 20
42.406612
 30
0.0
 10
10.009450
 20
42.275294
 30
0.0
 10
10.023759
 20
42.139291
 30
0.0
 10
10.023759
 20
41.999987
 30
0.0
  0
SPLINE
  5
110
100
AcDbEntity
  8
Layer_1
 62
7
100
AcDbSpline
 70
8
 71
3
 72
8
 73
4
 74
0
 40
0
 40
0
 40
0
 40
0
 40
1
 40
1
 40
1
 40
1
 10
10.023759
 20
41.999987
 30
0.0
 10
10.023759
 20
41.860710
 30
0.0
 10
10.009648
 20
41.724707
 30
0.0
 10
9.982639
 20
41.593389
 30
0.0
  0
SPLINE
  5
111
100
AcDbEntity
  8
Layer_1
 62
7
100
AcDbSpline
 70
8
 71
3
 72
8
 73
4
 74
0
 40
0
 40
0
 40
0
 40
0
 40
1
 40
1
 40
1
 40
1
 10
9.982639
 20
41.593389
 30
0.0
 10
9.955546
 20
41.462043
 30
0.0
 10
9.915922
 20
41.335325
 30
0.0
 10
9.864727
 20
41.214647
 30
0.0
  0
SPLINE
  5
112
100
AcDbEntity
  8
Layer_1
 62
7
100
AcDbSpline
 70
8
 71
3
 72
8
 73
4
 74
0
 40
0
 40
0
 40
0
 40
0
 40
1
 40
1
 40
1
 40
1
 10
9.864727
 20
41.214647
 30
0.0
 10
9.813503
 20
41.093940
 30
0.0
 10
9.750878
 20
40.979245
 30
0.0
 10
9.678121
 20
40.871916
 30
0.0
  0
SPLINE
  5
113
100
AcDbEntity
  8
Layer_1
 62
7
100
AcDbSpline
 70
8
 71
3
 72
8
 73
4
 74
0
 40
0
 40
0
 40
0
 40
0
 40
1
 40
1
 40
1
 40
1
 10
9.678121
 20
40.871916
 30
0.0
 10
9.605393
 20
40.764587
 30
0.0
 10
9.522560
 20
40.664596
 30
0.0
 10
9.431008
 20
40.573325
 30
0.0
  0
SPLINE
  5
114
100
AcDbEntity
  8
Layer_1
 62
7
100
AcDbSpline
 70
8
 71
3
 72
8
 73
4
 74
0
 40
0
 40
0
 40
0
 40
0
 40
1
 40
1
 40
1
 40
1
 10
9.431008
 20
40.573325
 30
0.0
 10
9.339455
 20
40.482026
 30
0.0
 10
9.239153
 20
40.399448
 30
0.0
 10
9.131513
 20
40.326945
 30
0.0
  0
SPLINE
  5
115
100
AcDbEntity
  8
Layer_1
 62
7
100
AcDbSpline
 70
8
 71
3
 72
8
 73
4
 74
0
 40
0
 40
0
 40
0
 40
0
 40
1
 40
1
 40
1
 40
1
 10
9.131513
 20
40.326945
 30
0.0
 10
9.023846
 20
40.254414
 30
0.0
 10
8.908784
 20
40.191958
 30
0.0
 10
8.787738
 20
40.140904
 30
0.0
  0
SPLINE
  5
116
100
AcDbEntity
  8
Layer_1
 62
7
100
AcDbSpline
 70
8
 71
3
 72
8
 73
4
 74
0
 40
0
 40
0
 40
0
 40
0
 40
1
 40
1
 40
1
 40
1
 10
8.787738
 20
40.140904
 30
0.0
 10
8.666693
 20
40.089878
 30
0.0
 10
8.539609
 20
40.050226
 30
0.0
 10
8.407867
 20
40.023359
 30
0.0
  0
SPLINE
  5
117
100
AcDbEntity
  8
Layer_1
 62
7
100
AcDbSpline
 70
8
 71
3
 72
8
 73
4
 74
0
 40
0
 40
0
 40
0
 40
0
 40
1
 40
1
 40
1
 40
1
 10
8.407867
 20
40.023359
 30
0.0
 10
8.276126
 20
39.996547
 30
0.0
 10
8.139700
 20
39.982352
 30
0.0
 10
8.000000
 20
39.982352
 30
0.0
  0
SPLINE
  5
118
100
AcDbEntity
  8
Layer_1
 62
7
100
AcDbSpline
 70
8
 71
3
 72
8
 73
4
 74
0
 40
0
 40
0
 40
0
 40
0
 40
1
 40
1
 40
1
 40
1
 10
8.000000
 20
39.982352
 30
0.0
 10
7.860300
 20
39.982352
 30
0.0
 10
7.723902
 20
39.996463
 30
0.0
 10
7.592160
 20
40.023359
 30
0.0
  0
SPLINE
  5
119
100
AcDbEntity
  8
Layer_1
 62
7
100
AcDbSpline
 70
8
 71
3
 72
8
 73
4
 74
0
 40
0
 40
0
 40
0
 40
0
 40
1
 40
1
 40
1
 40
1
 10
7.592160
 20
40.023359
 30
0.0
 10
7.460419
 20
40.050170
 30
0.0
 10
7.333334
 20
40.089878
 30
0.0
 10
7.212261
 20
40.140904
 30
0.0
  0
SPLINE
  5
11a
100
AcDbEntity
  8
Layer_1
 62
7
100
AcDbSpline
 70
8
 71
3
 72
8
 73
4
 74
0
 40
0
 40
0
 40
0
 40
0
 40
1
 40
1
 40
1
 40
1
 10
7.212261
 20
40.140904
 30
0.0
 10
7.091216
 20
40.191958
 30
0.0
 10
6.976182
 20
40.254414
 30
0.0
 10
6.868514
 20
40.326945
 30
0.0
  0
SPLINE
  5
11b
100
AcDbEntity
  8
Layer_1
 62
7
100
AcDbSpline
 70
8
 71
3
 72
8
 73
4
 74
0
 40
0
 40
0
 40
0
 40
0
 40
1
 40
1
 40
1
 40
1
 10
6.868514
 20
40.326945
 30
0.0
 10
6.760847
 20
40.399448
 30
0.0
 10
6.660545
 20
40.482026
 30
0.0
 10
6.568992
 20
40.573325
 30
0.0
  0
SPLINE
  5
11c
100
AcDbEntity
  8
Layer_1
 62
7
100
AcDbSpline
 70
8
 71
3
 72
8
 73
4
 74
0
 40
0
 40
0
 40
0
 40
0
 40
1
 40
1
 40
1
 40
1
 10
6.568992
 20
40.573325
 30
0.0
 10
6.477439
 20
40.664596
 30
0.0
 10
6.394607
 20
40.764587
 30
0.0
 10
6.321878
 20
40.871916
 30
0.0
  0
SPLINE
  5
11d
100
AcDbEntity
  8
Layer_1
 62
7
100
AcDbSpline
 70
8
 71
3
 72
8
 73
4
 74
0
 40
0
 40
0
 40
0
 40
0
 40
1
 40
1
 40
1
 40
1
 10
6.321878
 20
40.871916
 30
0.0
 10
6.249150
 20
40.979245
 30
0.0
 10
6.186496
 20
41.093940
 30
0.0
 10
6.135301
 20
41.214647
 30
0.0
  0
SPLINE
  5
11e
100
AcDbEntity
  8
Layer_1
 62
7
100
AcDbSpline
 70
8
 71
3
 72
8
 73
4
 74
0
 40
0
 40
0
 40
0
 40
0
 40
1
 40
1
 40
1
 40
1
 10
6.135301
 20
41.214647
 30
0.0
 10
6.084078
 20
41.335325
 30
0.0
 10
6.044341
 20
41.462043
 30
0.0
 10
6.017360
 20
41.593389
 30
0.0
  0
SPLINE
  5
11f
100
AcDbEntity
  8
Layer_1
 62
7
100
AcDbSpline
 70
8
 71
3
 72
8
 73
4
 74
0
 40
0
 40
0
 40
0
 40
0
 40
1
 40
1
 40
1
 40
1
 10
6.017360
 20
41.593389
 30
0.0
 10
5.990267
 20
41.724707
 30
0.0
 10
5.976241
 20
41.860710
 30
0.0
 10
5.976241
 20
41.999987
 30
0.0
  0
LWPOLYLINE
  5
120
100
AcDbEntity
  8
Layer_1
 62
7
100
AcDbPolyline
 90
49
 70
0
 10
7.000000
 20
8.000004
 30
0.0
 10
5.663894
 20
8.328877
 30
0.0
 10
4.744811
 20
8.926765
 30
0.0
 10
4.203323
 20
9.811250
 30
0.0
 10
4.000000
 20
10.999998
 30
0.0
 10
4.000000
 20
42.999999
 30
0.0
 10
4.205271
 20
44.443289
 30
0.0
 10
4.808521
 20
45.380063
 30
0.0
 10
5.757510
 20
45.876803
 30
0.0
 10
7.000000
 20
45.999998
 30
0.0
 10
11.000000
 20
46.000001
 30
0.0
 10
0.000000
 20
46.000001
 30
0.0
 10
0.000000
 20
50.000002
 30
0.0
 10
15.000000
 20
50.000002
 30
0.0
 10
15.000000
 20
53.999999
 30
0.0
 10
19.000000
 20
53.999999
 30
0.0
 10
19.000000
 20
50.000002
 30
0.0
 10
36.999999
 20
49.999999
 30
0.0
 10
36.999999
 20
53.999999
 30
0.0
 10
41.000000
 20
53.999999
 30
0.0
 10
41.000000
 20
49.999999
 30
0.0
 10
56.000001
 20
50.000002
 30
0.0
 10
56.000001
 20
46.000001
 30
0.0
 10
45.000000
 20
46.000001
 30
0.0
 10
49.000001
 20
46.000001
 30
0.0
 10
50.325187
 20
45.825187
 30
0.0
 10
51.316407
 20
45.316405
 30
0.0
 10
51.899428
 20
44.399426
 30
0.0
 10
52.000000
 20
42.999999
 30
0.0
 10
52.000000
 20
10.999998
 30
0.0
 10
51.880143
 20
9.799904
 30
0.0
 10
51.380401
 20
8.871139
 30
0.0
 10
50.440460
 20
8.256826
 30
0.0
 10
49.000001
 20
8.000004
 30
0.0
 10
45.000000
 20
8.000004
 30
0.0
 10
56.000001
 20
8.000004
 30
0.0
 10
56.000001
 20
3.999984
 30
0.0
 10
41.000000
 20
3.999984
 30
0.0
 10
41.000000
 20
-0.000008
 30
0.0
 10
36.999999
 20
-0.000008
 30
0.0
 10
36.999999
 20
3.999984
 30
0.0
 10
19.000000
 20
3.999984
 30
0.0
 10
19.000000
 20
-0.000008
 30
0.0
 10
15.000000
 20
-0.000008
 30
0.0
 10
15.000000
 20
3.999984
 30
0.0
 10
0.000000
 20
3.999984
 30
0.0
 10
0.000000
 20
8.000004
 30
0.0
 10
11.000000
 20
8.000004
 30
0.0
 10
7.000000
 20
8.000004
 30
0.0
  0
SPLINE
  5
121
100
AcDbEntity
  8
Layer_1
 62
7
100
AcDbSpline
 70
8
 71
3
 72
8
 73
4
 74
0
 40
0
 40
0
 40
0
 40
0
 40
1
 40
1
 40
1
 40
1
 10
5.976258
 20
32.000007
 30
0.0
 10
5.976258
 20
32.139283
 30
0.0
 10
5.990369
 20
32.275286
 30
0.0
 10
6.017377
 20
32.406632
 30
0.0
  0
SPLINE
  5
122
100
AcDbEntity
  8
Layer_1
 62
7
100
AcDbSpline
 70
8
 71
3
 72
8
 73
4
 74
0
 40
0
 40
0
 40
0
 40
0
 40
1
 40
1
 40
1
 40
1
 10
6.017377
 20
32.406632
 30
0.0
 10
6.044189
 20
32.537979
 30
0.0
 10
6.084095
 20
32.664668
 30
0.0
 10
6.135290
 20
32.785346
 30
0.0
  0
SPLINE
  5
123
100
AcDbEntity
  8
Layer_1
 62
7
100
AcDbSpline
 70
8
 71
3
 72
8
 73
4
 74
0
 40
0
 40
0
 40
0
 40
0
 40
1
 40
1
 40
1
 40
1
 10
6.135290
 20
32.785346
 30
0.0
 10
6.186485
 20
32.906053
 30
0.0
 10
6.249138
 20
33.020748
 30
0.0
 10
6.321867
 20
33.128077
 30
0.0
  0
SPLINE
  5
124
100
AcDbEntity
  8
Layer_1
 62
7
100
AcDbSpline
 70
8
 71
3
 72
8
 73
4
 74
0
 40
0
 40
0
 40
0
 40
0
 40
1
 40
1
 40
1
 40
1
 10
6.321867
 20
33.128077
 30
0.0
 10
6.394624
 20
33.235406
 30
0.0
 10
6.477428
 20
33.335397
 30
0.0
 10
6.568981
 20
33.426696
 30
0.0
  0
SPLINE
  5
125
100
AcDbEntity
  8
Layer_1
 62
7
100
AcDbSpline
 70
8
 71
3
 72
8
 73
4
 74
0
 40
0
 40
0
 40
0
 40
0
 40
1
 40
1
 40
1
 40
1
 10
6.568981
 20
33.426696
 30
0.0
 10
6.660562
 20
33.517967
 30
0.0
 10
6.760835
 20
33.600545
 30
0.0
 10
6.868503
 20
33.673048
 30
0.0
  0
SPLINE
  5
126
100
AcDbEntity
  8
Layer_1
 62
7
100
AcDbSpline
 70
8
 71
3
 72
8
 73
4
 74
0
 40
0
 40
0
 40
0
 40
0
 40
1
 40
1
 40
1
 40
1
 10
6.868503
 20
33.673048
 30
0.0
 10
6.976171
 20
33.745579
 30
0.0
 10
7.091205
 20
33.808035
 30
0.0
 10
7.212278
 20
33.859089
 30
0.0
  0
SPLINE
  5
127
100
AcDbEntity
  8
Layer_1
 62
7
100
AcDbSpline
 70
8
 71
3
 72
8
 73
4
 74
0
 40
0
 40
0
 40
0
 40
0
 40
1
 40
1
 40
1
 40
1
 10
7.212278
 20
33.859089
 30
0.0
 10
7.333323
 20
33.910143
 30
0.0
 10
7.460408
 20
33.949767
 30
0.0
 10
7.592149
 20
33.976635
 30
0.0
  0
SPLINE
  5
128
100
AcDbEntity
  8
Layer_1
 62
7
100
AcDbSpline
 70
8
 71
3
 72
8
 73
4
 74
0
 40
0
 40
0
 40
0
 40
0
 40
1
 40
1
 40
1
 40
1
 10
7.592149
 20
33.976635
 30
0.0
 10
7.723891
 20
34.003446
 30
0.0
 10
7.860289
 20
34.017641
 30
0.0
 10
7.999989
 20
34.017641
 30
0.0
  0
SPLINE
  5
129
100
AcDbEntity
  8
Layer_1
 62
7
100
AcDbSpline
 70
8
 71
3
 72
8
 73
4
 74
0
 40
0
 40
0
 40
0
 40
0
 40
1
 40
1
 40
1
 40
1
 10
7.999989
 20
34.017641
 30
0.0
 10
8.139717
 20
34.017641
 30
0.0
 10
8.276115
 20
34.003530
 30
0.0
 10
8.407856
 20
33.976635
 30
0.0
  0
SPLINE
  5
12a
100
AcDbEntity
  8
Layer_1
 62
7
100
AcDbSpline
 70
8
 71
3
 72
8
 73
4
 74
0
 40
0
 40
0
 40
0
 40
0
 40
1
 40
1
 40
1
 40
1
 10
8.407856
 20
33.976635
 30
0.0
 10
8.539597
 20
33.949823
 30
0.0
 10
8.666682
 20
33.910143
 30
0.0
 10
8.787727
 20
33.859089
 30
0.0
  0
SPLINE
  5
12b
100
AcDbEntity
  8
Layer_1
 62
7
100
AcDbSpline
 70
8
 71
3
 72
8
 73
4
 74
0
 40
0
 40
0
 40
0
 40
0
 40
1
 40
1
 40
1
 40
1
 10
8.787727
 20
33.859089
 30
0.0
 10
8.908801
 20
33.808035
 30
0.0
 10
9.023834
 20
33.745579
 30
0.0
 10
9.131502
 20
33.673048
 30
0.0
  0
SPLINE
  5
12c
100
AcDbEntity
  8
Layer_1
 62
7
100
AcDbSpline
 70
8
 71
3
 72
8
 73
4
 74
0
 40
0
 40
0
 40
0
 40
0
 40
1
 40
1
 40
1
 40
1
 10
9.131502
 20
33.673048
 30
0.0
 10
9.239170
 20
33.600545
 30
0.0
 10
9.339443
 20
33.517967
 30
0.0
 10
9.430996
 20
33.426696
 30
0.0
  0
SPLINE
  5
12d
100
AcDbEntity
  8
Layer_1
 62
7
100
AcDbSpline
 70
8
 71
3
 72
8
 73
4
 74
0
 40
0
 40
0
 40
0
 40
0
 40
1
 40
1
 40
1
 40
1
 10
9.430996
 20
33.426696
 30
0.0
 10
9.522549
 20
33.335397
 30
0.0
 10
9.605381
 20
33.235406
 30
0.0
 10
9.678138
 20
33.128077
 30
0.0
  0
SPLINE
  5
12e
100
AcDbEntity
  8
Layer_1
 62
7
100
AcDbSpline
 70
8
 71
3
 72
8
 73
4
 74
0
 40
0
 40
0
 40
0
 40
0
 40
1
 40
1
 40
1
 40
1
 10
9.678138
 20
33.128077
 30
0.0
 10
9.750867
 20
33.020748
 30
0.0
 10
9.813520
 20
32.906053
 30
0.0
 10
9.864715
 20
32.785346
 30
0.0
  0
SPLINE
  5
12f
100
AcDbEntity
  8
Layer_1
 62
7
100
AcDbSpline
 70
8
 71
3
 72
8
 73
4
 74
0
 40
0
 40
0
 40
0
 40
0
 40
1
 40
1
 40
1
 40
1
 10
9.864715
 20
32.785346
 30
0.0
 10
9.915911
 20
32.664668
 30
0.0
 10
9.955676
 20
32.537979
 30
0.0
 10
9.982628
 20
32.406632
 30
0.0
  0
SPLINE
  5
130
100
AcDbEntity
  8
Layer_1
 62
7
100
AcDbSpline
 70
8
 71
3
 72
8
 73
4
 74
0
 40
0
 40
0
 40
0
 40
0
 40
1
 40
1
 40
1
 40
1
 10
9.982628
 20
32.406632
 30
0.0
 10
10.009721
 20
32.275286
 30
0.0
 10
10.023748
 20
32.139283
 30
0.0
 10
10.023748
 20
32.000007
 30
0.0
  0
SPLINE
  5
131
100
AcDbEntity
  8
Layer_1
 62
7
100
AcDbSpline
 70
8
 71
3
 72
8
 73
4
 74
0
 40
0
 40
0
 40
0
 40
0
 40
1
 40
1
 40
1
 40
1
 10
10.023748
 20
32.000007
 30
0.0
 10
10.023748
 20
31.860702
 30
0.0
 10
10.009637
 20
31.724727
 30
0.0
 10
9.982628
 20
31.593381
 30
0.0
  0
SPLINE
  5
132
100
AcDbEntity
  8
Layer_1
 62
7
100
AcDbSpline
 70
8
 71
3
 72
8
 73
4
 74
0
 40
0
 40
0
 40
0
 40
0
 40
1
 40
1
 40
1
 40
1
 10
9.982628
 20
31.593381
 30
0.0
 10
9.955817
 20
31.462035
 30
0.0
 10
9.915911
 20
31.335345
 30
0.0
 10
9.864715
 20
31.214639
 30
0.0
  0
SPLINE
  5
133
100
AcDbEntity
  8
Layer_1
 62
7
100
AcDbSpline
 70
8
 71
3
 72
8
 73
4
 74
0
 40
0
 40
0
 40
0
 40
0
 40
1
 40
1
 40
1
 40
1
 10
9.864715
 20
31.214639
 30
0.0
 10
9.813520
 20
31.093960
 30
0.0
 10
9.750867
 20
30.979265
 30
0.0
 10
9.678138
 20
30.871908
 30
0.0
  0
SPLINE
  5
134
100
AcDbEntity
  8
Layer_1
 62
7
100
AcDbSpline
 70
8
 71
3
 72
8
 73
4
 74
0
 40
0
 40
0
 40
0
 40
0
 40
1
 40
1
 40
1
 40
1
 10
9.678138
 20
30.871908
 30
0.0
 10
9.605381
 20
30.764579
 30
0.0
 10
9.522549
 20
30.664587
 30
0.0
 10
9.430996
 20
30.573317
 30
0.0
  0
SPLINE
  5
135
100
AcDbEntity
  8
Layer_1
 62
7
100
AcDbSpline
 70
8
 71
3
 72
8
 73
4
 74
0
 40
0
 40
0
 40
0
 40
0
 40
1
 40
1
 40
1
 40
1
 10
9.430996
 20
30.573317
 30
0.0
 10
9.339443
 20
30.482046
 30
0.0
 10
9.239170
 20
30.399468
 30
0.0
 10
9.131502
 20
30.326937
 30
0.0
  0
SPLINE
  5
136
100
AcDbEntity
  8
Layer_1
 62
7
100
AcDbSpline
 70
8
 71
3
 72
8
 73
4
 74
0
 40
0
 40
0
 40
0
 40
0
 40
1
 40
1
 40
1
 40
1
 10
9.131502
 20
30.326937
 30
0.0
 10
9.023834
 20
30.254434
 30
0.0
 10
8.908801
 20
30.191978
 30
0.0
 10
8.787727
 20
30.140924
 30
0.0
  0
SPLINE
  5
137
100
AcDbEntity
  8
Layer_1
 62
7
100
AcDbSpline
 70
8
 71
3
 72
8
 73
4
 74
0
 40
0
 40
0
 40
0
 40
0
 40
1
 40
1
 40
1
 40
1
 10
8.787727
 20
30.140924
 30
0.0
 10
8.666682
 20
30.089870
 30
0.0
 10
8.539597
 20
30.050218
 30
0.0
 10
8.407856
 20
30.023350
 30
0.0
  0
SPLINE
  5
138
100
AcDbEntity
  8
Layer_1
 62
7
100
AcDbSpline
 70
8
 71
3
 72
8
 73
4
 74
0
 40
0
 40
0
 40
0
 40
0
 40
1
 40
1
 40
1
 40
1
 10
8.407856
 20
30.023350
 30
0.0
 10
8.276115
 20
29.996539
 30
0.0
 10
8.139717
 20
29.982372
 30
0.0
 10
7.999989
 20
29.982372
 30
0.0
  0
SPLINE
  5
139
100
AcDbEntity
  8
Layer_1
 62
7
100
AcDbSpline
 70
8
 71
3
 72
8
 73
4
 74
0
 40
0
 40
0
 40
0
 40
0
 40
1
 40
1
 40
1
 40
1
 10
7.999989
 20
29.982372
 30
0.0
 10
7.860289
 20
29.982372
 30
0.0
 10
7.723891
 20
29.996483
 30
0.0
 10
7.592149
 20
30.023350
 30
0.0
  0
SPLINE
  5
13a
100
AcDbEntity
  8
Layer_1
 62
7
100
AcDbSpline
 70
8
 71
3
 72
8
 73
4
 74
0
 40
0
 40
0
 40
0
 40
0
 40
1
 40
1
 40
1
 40
1
 10
7.592149
 20
30.023350
 30
0.0
 10
7.460408
 20
30.050161
 30
0.0
 10
7.333323
 20
30.089870
 30
0.0
 10
7.212278
 20
30.140924
 30
0.0
  0
SPLINE
  5
13b
100
AcDbEntity
  8
Layer_1
 62
7
100
AcDbSpline
 70
8
 71
3
 72
8
 73
4
 74
0
 40
0
 40
0
 40
0
 40
0
 40
1
 40
1
 40
1
 40
1
 10
7.212278
 20
30.140924
 30
0.0
 10
7.091205
 20
30.191978
 30
0.0
 10
6.976171
 20
30.254434
 30
0.0
 10
6.868503
 20
30.326937
 30
0.0
  0
SPLINE
  5
13c
100
AcDbEntity
  8
Layer_1
 62
7
100
AcDbSpline
 70
8
 71
3
 72
8
 73
4
 74
0
 40
0
 40
0
 40
0
 40
0
 40
1
 40
1
 40
1
 40
1
 10
6.868503
 20
30.326937
 30
0.0
 10
6.760835
 20
30.399468
 30
0.0
 10
6.660562
 20
30.482046
 30
0.0
 10
6.568981
 20
30.573317
 30
0.0
  0
SPLINE
  5
13d
100
AcDbEntity
  8
Layer_1
 62
7
100
AcDbSpline
 70
8
 71
3
 72
8
 73
4
 74
0
 40
0
 40
0
 40
0
 40
0
 40
1
 40
1
 40
1
 40
1
 10
6.568981
 20
30.573317
 30
0.0
 10
6.477428
 20
30.664587
 30
0.0
 10
6.394624
 20
30.764579
 30
0.0
 10
6.321867
 20
30.871908
 30
0.0
  0
SPLINE
  5
13e
100
AcDbEntity
  8
Layer_1
 62
7
100
AcDbSpline
 70
8
 71
3
 72
8
 73
4
 74
0
 40
0
 40
0
 40
0
 40
0
 40
1
 40
1
 40
1
 40
1
 10
6.321867
 20
30.871908
 30
0.0
 10
6.249138
 20
30.979265
 30
0.0
 10
6.186485
 20
31.093960
 30
0.0
 10
6.135290
 20
31.214639
 30
0.0
  0
SPLINE
  5
13f
100
AcDbEntity
  8
Layer_1
 62
7
100
AcDbSpline
 70
8
 71
3
 72
8
 73
4
 74
0
 40
0
 40
0
 40
0
 40
0
 40
1
 40
1
 40
1
 40
1
 10
6.135290
 20
31.214639
 30
0.0
 10
6.084095
 20
31.335345
 30
0.0
 10
6.044330
 20
31.462035
 30
0.0
 10
6.017377
 20
31.593381
 30
0.0
  0
SPLINE
  5
140
100
AcDbEntity
  8
Layer_1
 62
7
100
AcDbSpline
 70
8
 71
3
 72
8
 73
4
 74
0
 40
0
 40
0
 40
0
 40
0
 40
1
 40
1
 40
1
 40
1
 10
6.017377
 20
31.593381
 30
0.0
 10
5.990284
 20
31.724727
 30
0.0
 10
5.976258
 20
31.860702
 30
0.0
 10
5.976258
 20
32.000007
 30
0.0
  0
LWPOLYLINE
  5
141
100
AcDbEntity
  8
Layer_1
 62
7
100
AcDbPolyline
 90
2
 70
0
 10
5.976241
 20
41.999987
 30
0.0
 10
5.976241
 20
41.999987
 30
0.0
  0
SPLINE
  5
142
100
AcDbEntity
  8
Layer_1
 62
7
100
AcDbSpline
 70
8
 71
3
 72
8
 73
4
 74
0
 40
0
 40
0
 40
0
 40
0
 40
1
 40
1
 40
1
 40
1
 10
5.976258
 20
22.000004
 30
0.0
 10
5.976258
 20
22.139309
 30
0.0
 10
5.990369
 20
22.275284
 30
0.0
 10
6.017377
 20
22.406630
 30
0.0
  0
SPLINE
  5
143
100
AcDbEntity
  8
Layer_1
 62
7
100
AcDbSpline
 70
8
 71
3
 72
8
 73
4
 74
0
 40
0
 40
0
 40
0
 40
0
 40
1
 40
1
 40
1
 40
1
 10
6.017377
 20
22.406630
 30
0.0
 10
6.044189
 20
22.537976
 30
0.0
 10
6.084095
 20
22.664666
 30
0.0
 10
6.135290
 20
22.785369
 30
0.0
  0
SPLINE
  5
144
100
AcDbEntity
  8
Layer_1
 62
7
100
AcDbSpline
 70
8
 71
3
 72
8
 73
4
 74
0
 40
0
 40
0
 40
0
 40
0
 40
1
 40
1
 40
1
 40
1
 10
6.135290
 20
22.785369
 30
0.0
 10
6.186485
 20
22.906047
 30
0.0
 10
6.249138
 20
23.020742
 30
0.0
 10
6.321867
 20
23.128100
 30
0.0
  0
SPLINE
  5
145
100
AcDbEntity
  8
Layer_1
 62
7
100
AcDbSpline
 70
8
 71
3
 72
8
 73
4
 74
0
 40
0
 40
0
 40
0
 40
0
 40
1
 40
1
 40
1
 40
1
 10
6.321867
 20
23.128100
 30
0.0
 10
6.394624
 20
23.235429
 30
0.0
 10
6.477428
 20
23.335420
 30
0.0
 10
6.568981
 20
23.426691
 30
0.0
  0
SPLINE
  5
146
100
AcDbEntity
  8
Layer_1
 62
7
100
AcDbSpline
 70
8
 71
3
 72
8
 73
4
 74
0
 40
0
 40
0
 40
0
 40
0
 40
1
 40
1
 40
1
 40
1
 10
6.568981
 20
23.426691
 30
0.0
 10
6.660562
 20
23.517962
 30
0.0
 10
6.760835
 20
23.600540
 30
0.0
 10
6.868503
 20
23.673071
 30
0.0
  0
SPLINE
  5
147
100
AcDbEntity
  8
Layer_1
 62
7
100
AcDbSpline
 70
8
 71
3
 72
8
 73
4
 74
0
 40
0
 40
0
 40
0
 40
0
 40
1
 40
1
 40
1
 40
1
 10
6.868503
 20
23.673071
 30
0.0
 10
6.976171
 20
23.745574
 30
0.0
 10
7.091205
 20
23.808030
 30
0.0
 10
7.212278
 20
23.859084
 30
0.0
  0
SPLINE
  5
148
100
AcDbEntity
  8
Layer_1
 62
7
100
AcDbSpline
 70
8
 71
3
 72
8
 73
4
 74
0
 40
0
 40
0
 40
0
 40
0
 40
1
 40
1
 40
1
 40
1
 10
7.212278
 20
23.859084
 30
0.0
 10
7.333323
 20
23.910138
 30
0.0
 10
7.460408
 20
23.949790
 30
0.0
 10
7.592149
 20
23.976657
 30
0.0
  0
SPLINE
  5
149
100
AcDbEntity
  8
Layer_1
 62
7
100
AcDbSpline
 70
8
 71
3
 72
8
 73
4
 74
0
 40
0
 40
0
 40
0
 40
0
 40
1
 40
1
 40
1
 40
1
 10
7.592149
 20
23.976657
 30
0.0
 10
7.723891
 20
24.003468
 30
0.0
 10
7.860289
 20
24.017636
 30
0.0
 10
7.999989
 20
24.017636
 30
0.0
  0
SPLINE
  5
14a
100
AcDbEntity
  8
Layer_1
 62
7
100
AcDbSpline
 70
8
 71
3
 72
8
 73
4
 74
0
 40
0
 40
0
 40
0
 40
0
 40
1
 40
1
 40
1
 40
1
 10
7.999989
 20
24.017636
 30
0.0
 10
8.139717
 20
24.017636
 30
0.0
 10
8.276115
 20
24.003525
 30
0.0
 10
8.407856
 20
23.976657
 30
0.0
  0
SPLINE
  5
14b
100
AcDbEntity
  8
Layer_1
 62
7
100
AcDbSpline
 70
8
 71
3
 72
8
 73
4
 74
0
 40
0
 40
0
 40
0
 40
0
 40
1
 40
1
 40
1
 40
1
 10
8.407856
 20
23.976657
 30
0.0
 10
8.539597
 20
23.949846
 30
0.0
 10
8.666682
 20
23.910138
 30
0.0
 10
8.787727
 20
23.859084
 30
0.0
  0
SPLINE
  5
14c
100
AcDbEntity
  8
Layer_1
 62
7
100
AcDbSpline
 70
8
 71
3
 72
8
 73
4
 74
0
 40
0
 40
0
 40
0
 40
0
 40
1
 40
1
 40
1
 40
1
 10
8.787727
 20
23.859084
 30
0.0
 10
8.908801
 20
23.808030
 30
0.0
 10
9.023834
 20
23.745574
 30
0.0
 10
9.131502
 20
23.673071
 30
0.0
  0
SPLINE
  5
14d
100
AcDbEntity
  8
Layer_1
 62
7
100
AcDbSpline
 70
8
 71
3
 72
8
 73
4
 74
0
 40
0
 40
0
 40
0
 40
0
 40
1
 40
1
 40
1
 40
1
 10
9.131502
 20
23.673071
 30
0.0
 10
9.239170
 20
23.600540
 30
0.0
 10
9.339443
 20
23.517962
 30
0.0
 10
9.430996
 20
23.426691
 30
0.0
  0
SPLINE
  5
14e
100
AcDbEntity
  8
Layer_1
 62
7
100
AcDbSpline
 70
8
 71
3
 72
8
 73
4
 74
0
 40
0
 40
0
 40
0
 40
0
 40
1
 40
1
 40
1
 40
1
 10
9.430996
 20
23.426691
 30
0.0
 10
9.522549
 20
23.335420
 30
0.0
 10
9.605381
 20
23.235429
 30
0.0
 10
9.678138
 20
23.128100
 30
0.0
  0
SPLINE
  5
14f
100
AcDbEntity
  8
Layer_1
 62
7
100
AcDbSpline
 70
8
 71
3
 72
8
 73
4
 74
0
 40
0
 40
0
 40
0
 40
0
 40
1
 40
1
 40
1
 40
1
 10
9.678138
 20
23.128100
 30
0.0
 10
9.750867
 20
23.020742
 30
0.0
 10
9.813520
 20
22.906047
 30
0.0
 10
9.864715
 20
22.785369
 30
0.0
  0
SPLINE
  5
150
100
AcDbEntity
  8
Layer_1
 62
7
100
AcDbSpline
 70
8
 71
3
 72
8
 73
4
 74
0
 40
0
 40
0
 40
0
 40
0
 40
1
 40
1
 40
1
 40
1
 10
9.864715
 20
22.785369
 30
0.0
 10
9.915911
 20
22.664666
 30
0.0
 10
9.955676
 20
22.537976
 30
0.0
 10
9.982628
 20
22.406630
 30
0.0
  0
SPLINE
  5
151
100
AcDbEntity
  8
Layer_1
 62
7
100
AcDbSpline
 70
8
 71
3
 72
8
 73
4
 74
0
 40
0
 40
0
 40
0
 40
0
 40
1
 40
1
 40
1
 40
1
 10
9.982628
 20
22.406630
 30
0.0
 10
10.009721
 20
22.275284
 30
0.0
 10
10.023748
 20
22.139309
 30
0.0
 10
10.023748
 20
22.000004
 30
0.0
  0
SPLINE
  5
152
100
AcDbEntity
  8
Layer_1
 62
7
100
AcDbSpline
 70
8
 71
3
 72
8
 73
4
 74
0
 40
0
 40
0
 40
0
 40
0
 40
1
 40
1
 40
1
 40
1
 10
10.023748
 20
22.000004
 30
0.0
 10
10.023748
 20
21.860727
 30
0.0
 10
10.009637
 20
21.724724
 30
0.0
 10
9.982628
 20
21.593378
 30
0.0
  0
SPLINE
  5
153
100
AcDbEntity
  8
Layer_1
 62
7
100
AcDbSpline
 70
8
 71
3
 72
8
 73
4
 74
0
 40
0
 40
0
 40
0
 40
0
 40
1
 40
1
 40
1
 40
1
 10
9.982628
 20
21.593378
 30
0.0
 10
9.955817
 20
21.462032
 30
0.0
 10
9.915911
 20
21.335342
 30
0.0
 10
9.864715
 20
21.214664
 30
0.0
  0
SPLINE
  5
154
100
AcDbEntity
  8
Layer_1
 62
7
100
AcDbSpline
 70
8
 71
3
 72
8
 73
4
 74
0
 40
0
 40
0
 40
0
 40
0
 40
1
 40
1
 40
1
 40
1
 10
9.864715
 20
21.214664
 30
0.0
 10
9.813520
 20
21.093958
 30
0.0
 10
9.750867
 20
20.979263
 30
0.0
 10
9.678138
 20
20.871934
 30
0.0
  0
SPLINE
  5
155
100
AcDbEntity
  8
Layer_1
 62
7
100
AcDbSpline
 70
8
 71
3
 72
8
 73
4
 74
0
 40
0
 40
0
 40
0
 40
0
 40
1
 40
1
 40
1
 40
1
 10
9.678138
 20
20.871934
 30
0.0
 10
9.605381
 20
20.764576
 30
0.0
 10
9.522549
 20
20.664613
 30
0.0
 10
9.430996
 20
20.573314
 30
0.0
  0
SPLINE
  5
156
100
AcDbEntity
  8
Layer_1
 62
7
100
AcDbSpline
 70
8
 71
3
 72
8
 73
4
 74
0
 40
0
 40
0
 40
0
 40
0
 40
1
 40
1
 40
1
 40
1
 10
9.430996
 20
20.573314
 30
0.0
 10
9.339443
 20
20.482044
 30
0.0
 10
9.239170
 20
20.399465
 30
0.0
 10
9.131502
 20
20.326962
 30
0.0
  0
SPLINE
  5
157
100
AcDbEntity
  8
Layer_1
 62
7
100
AcDbSpline
 70
8
 71
3
 72
8
 73
4
 74
0
 40
0
 40
0
 40
0
 40
0
 40
1
 40
1
 40
1
 40
1
 10
9.131502
 20
20.326962
 30
0.0
 10
9.023834
 20
20.254431
 30
0.0
 10
8.908801
 20
20.191976
 30
0.0
 10
8.787727
 20
20.140922
 30
0.0
  0
SPLINE
  5
158
100
AcDbEntity
  8
Layer_1
 62
7
100
AcDbSpline
 70
8
 71
3
 72
8
 73
4
 74
0
 40
0
 40
0
 40
0
 40
0
 40
1
 40
1
 40
1
 40
1
 10
8.787727
 20
20.140922
 30
0.0
 10
8.666682
 20
20.089868
 30
0.0
 10
8.539597
 20
20.050244
 30
0.0
 10
8.407856
 20
20.023376
 30
0.0
  0
SPLINE
  5
159
100
AcDbEntity
  8
Layer_1
 62
7
100
AcDbSpline
 70
8
 71
3
 72
8
 73
4
 74
0
 40
0
 40
0
 40
0
 40
0
 40
1
 40
1
 40
1
 40
1
 10
8.407856
 20
20.023376
 30
0.0
 10
8.276115
 20
19.996565
 30
0.0
 10
8.139717
 20
19.982369
 30
0.0
 10
7.999989
 20
19.982369
 30
0.0
  0
SPLINE
  5
15a
100
AcDbEntity
  8
Layer_1
 62
7
100
AcDbSpline
 70
8
 71
3
 72
8
 73
4
 74
0
 40
0
 40
0
 40
0
 40
0
 40
1
 40
1
 40
1
 40
1
 10
7.999989
 20
19.982369
 30
0.0
 10
7.860289
 20
19.982369
 30
0.0
 10
7.723891
 20
19.996480
 30
0.0
 10
7.592149
 20
20.023376
 30
0.0
  0
SPLINE
  5
15b
100
AcDbEntity
  8
Layer_1
 62
7
100
AcDbSpline
 70
8
 71
3
 72
8
 73
4
 74
0
 40
0
 40
0
 40
0
 40
0
 40
1
 40
1
 40
1
 40
1
 10
7.592149
 20
20.023376
 30
0.0
 10
7.460408
 20
20.050187
 30
0.0
 10
7.333323
 20
20.089868
 30
0.0
 10
7.212278
 20
20.140922
 30
0.0
  0
SPLINE
  5
15c
100
AcDbEntity
  8
Layer_1
 62
7
100
AcDbSpline
 70
8
 71
3
 72
8
 73
4
 74
0
 40
0
 40
0
 40
0
 40
0
 40
1
 40
1
 40
1
 40
1
 10
7.212278
 20
20.140922
 30
0.0
 10
7.091205
 20
20.191976
 30
0.0
 10
6.976171
 20
20.254431
 30
0.0
 10
6.868503
 20
20.326962
 30
0.0
  0
SPLINE
  5
15d
100
AcDbEntity
  8
Layer_1
 62
7
100
AcDbSpline
 70
8
 71
3
 72
8
 73
4
 74
0
 40
0
 40
0
 40
0
 40
0
 40
1
 40
1
 40
1
 40
1
 10
6.868503
 20
20.326962
 30
0.0
 10
6.760835
 20
20.399465
 30
0.0
 10
6.660562
 20
20.482044
 30
0.0
 10
6.568981
 20
20.573314
 30
0.0
  0
SPLINE
  5
15e
100
AcDbEntity
  8
Layer_1
 62
7
100
AcDbSpline
 70
8
 71
3
 72
8
 73
4
 74
0
 40
0
 40
0
 40
0
 40
0
 40
1
 40
1
 40
1
 40
1
 10
6.568981
 20
20.573314
 30
0.0
 10
6.477428
 20
20.664613
 30
0.0
 10
6.394624
 20
20.764576
 30
0.0
 10
6.321867
 20
20.871934
 30
0.0
  0
SPLINE
  5
15f
100
AcDbEntity
  8
Layer_1
 62
7
100
AcDbSpline
 70
8
 71
3
 72
8
 73
4
 74
0
 40
0
 40
0
 40
0
 40
0
 40
1
 40
1
 40
1
 40
1
 10
6.321867
 20
20.871934
 30
0.0
 10
6.249138
 20
20.979263
 30
0.0
 10
6.186485
 20
21.093958
 30
0.0
 10
6.135290
 20
21.214664
 30
0.0
  0
SPLINE
  5
160
100
AcDbEntity
  8
Layer_1
 62
7
100
AcDbSpline
 70
8
 71
3
 72
8
 73
4
 74
0
 40
0
 40
0
 40
0
 40
0
 40
1
 40
1
 40
1
 40
1
 10
6.135290
 20
21.214664
 30
0.0
 10
6.084095
 20
21.335342
 30
0.0
 10
6.044330
 20
21.462032
 30
0.0
 10
6.017377
 20
21.593378
 30
0.0
  0
SPLINE
  5
161
100
AcDbEntity
  8
Layer_1
 62
7
100
AcDbSpline
 70
8
 71
3
 72
8
 73
4
 74
0
 40
0
 40
0
 40
0
 40
0
 40
1
 40
1
 40
1
 40
1
 10
6.017377
 20
21.593378
 30
0.0
 10
5.990284
 20
21.724724
 30
0.0
 10
5.976258
 20
21.860727
 30
0.0
 10
5.976258
 20
22.000004
 30
0.0
  0
LWPOLYLINE
  5
162
100
AcDbEntity
  8
Layer_1
 62
7
100
AcDbPolyline
 90
2
 70
0
 10
5.976258
 20
32.000007
 30
0.0
 10
5.976258
 20
32.000007
 30
0.0
  0
SPLINE
  5
163
100
AcDbEntity
  8
Layer_1
 62
7
100
AcDbSpline
 70
8
 71
3
 72
8
 73
4
 74
0
 40
0
 40
0
 40
0
 40
0
 40
1
 40
1
 40
1
 40
1
 10
6.016390
 20
11.961755
 30
0.0
 10
6.016390
 20
12.101060
 30
0.0
 10
6.030501
 20
12.237062
 30
0.0
 10
6.057509
 20
12.368380
 30
0.0
  0
SPLINE
  5
164
100
AcDbEntity
  8
Layer_1
 62
7
100
AcDbSpline
 70
8
 71
3
 72
8
 73
4
 74
0
 40
0
 40
0
 40
0
 40
0
 40
1
 40
1
 40
1
 40
1
 10
6.057509
 20
12.368380
 30
0.0
 10
6.084321
 20
12.499727
 30
0.0
 10
6.124227
 20
12.626444
 30
0.0
 10
6.175422
 20
12.747123
 30
0.0
  0
SPLINE
  5
165
100
AcDbEntity
  8
Layer_1
 62
7
100
AcDbSpline
 70
8
 71
3
 72
8
 73
4
 74
0
 40
0
 40
0
 40
0
 40
0
 40
1
 40
1
 40
1
 40
1
 10
6.175422
 20
12.747123
 30
0.0
 10
6.226617
 20
12.867829
 30
0.0
 10
6.289270
 20
12.982496
 30
0.0
 10
6.361999
 20
13.089853
 30
0.0
  0
SPLINE
  5
166
100
AcDbEntity
  8
Layer_1
 62
7
100
AcDbSpline
 70
8
 71
3
 72
8
 73
4
 74
0
 40
0
 40
0
 40
0
 40
0
 40
1
 40
1
 40
1
 40
1
 10
6.361999
 20
13.089853
 30
0.0
 10
6.434756
 20
13.197182
 30
0.0
 10
6.517560
 20
13.297174
 30
0.0
 10
6.609113
 20
13.388444
 30
0.0
  0
SPLINE
  5
167
100
AcDbEntity
  8
Layer_1
 62
7
100
AcDbSpline
 70
8
 71
3
 72
8
 73
4
 74
0
 40
0
 40
0
 40
0
 40
0
 40
1
 40
1
 40
1
 40
1
 10
6.609113
 20
13.388444
 30
0.0
 10
6.700694
 20
13.479743
 30
0.0
 10
6.800967
 20
13.562322
 30
0.0
 10
6.908635
 20
13.634824
 30
0.0
  0
SPLINE
  5
168
100
AcDbEntity
  8
Layer_1
 62
7
100
AcDbSpline
 70
8
 71
3
 72
8
 73
4
 74
0
 40
0
 40
0
 40
0
 40
0
 40
1
 40
1
 40
1
 40
1
 10
6.908635
 20
13.634824
 30
0.0
 10
7.016303
 20
13.707356
 30
0.0
 10
7.131337
 20
13.769811
 30
0.0
 10
7.252382
 20
13.820837
 30
0.0
  0
SPLINE
  5
169
100
AcDbEntity
  8
Layer_1
 62
7
100
AcDbSpline
 70
8
 71
3
 72
8
 73
4
 74
0
 40
0
 40
0
 40
0
 40
0
 40
1
 40
1
 40
1
 40
1
 10
7.252382
 20
13.820837
 30
0.0
 10
7.373455
 20
13.871891
 30
0.0
 10
7.500540
 20
13.911543
 30
0.0
 10
7.632281
 20
13.938411
 30
0.0
  0
SPLINE
  5
16a
100
AcDbEntity
  8
Layer_1
 62
7
100
AcDbSpline
 70
8
 71
3
 72
8
 73
4
 74
0
 40
0
 40
0
 40
0
 40
0
 40
1
 40
1
 40
1
 40
1
 10
7.632281
 20
13.938411
 30
0.0
 10
7.764023
 20
13.965222
 30
0.0
 10
7.900421
 20
13.979418
 30
0.0
 10
8.040121
 20
13.979418
 30
0.0
  0
SPLINE
  5
16b
100
AcDbEntity
  8
Layer_1
 62
7
100
AcDbSpline
 70
8
 71
3
 72
8
 73
4
 74
0
 40
0
 40
0
 40
0
 40
0
 40
1
 40
1
 40
1
 40
1
 10
8.040121
 20
13.979418
 30
0.0
 10
8.179849
 20
13.979418
 30
0.0
 10
8.316247
 20
13.965307
 30
0.0
 10
8.447988
 20
13.938411
 30
0.0
  0
SPLINE
  5
16c
100
AcDbEntity
  8
Layer_1
 62
7
100
AcDbSpline
 70
8
 71
3
 72
8
 73
4
 74
0
 40
0
 40
0
 40
0
 40
0
 40
1
 40
1
 40
1
 40
1
 10
8.447988
 20
13.938411
 30
0.0
 10
8.579729
 20
13.911600
 30
0.0
 10
8.706814
 20
13.871891
 30
0.0
 10
8.827859
 20
13.820837
 30
0.0
  0
SPLINE
  5
16d
100
AcDbEntity
  8
Layer_1
 62
7
100
AcDbSpline
 70
8
 71
3
 72
8
 73
4
 74
0
 40
0
 40
0
 40
0
 40
0
 40
1
 40
1
 40
1
 40
1
 10
8.827859
 20
13.820837
 30
0.0
 10
8.948933
 20
13.769811
 30
0.0
 10
9.063966
 20
13.707356
 30
0.0
 10
9.171634
 20
13.634824
 30
0.0
  0
SPLINE
  5
16e
100
AcDbEntity
  8
Layer_1
 62
7
100
AcDbSpline
 70
8
 71
3
 72
8
 73
4
 74
0
 40
0
 40
0
 40
0
 40
0
 40
1
 40
1
 40
1
 40
1
 10
9.171634
 20
13.634824
 30
0.0
 10
9.279302
 20
13.562322
 30
0.0
 10
9.379575
 20
13.479743
 30
0.0
 10
9.471128
 20
13.388444
 30
0.0
  0
SPLINE
  5
16f
100
AcDbEntity
  8
Layer_1
 62
7
100
AcDbSpline
 70
8
 71
3
 72
8
 73
4
 74
0
 40
0
 40
0
 40
0
 40
0
 40
1
 40
1
 40
1
 40
1
 10
9.471128
 20
13.388444
 30
0.0
 10
9.562681
 20
13.297174
 30
0.0
 10
9.645513
 20
13.197182
 30
0.0
 10
9.718270
 20
13.089853
 30
0.0
  0
SPLINE
  5
170
100
AcDbEntity
  8
Layer_1
 62
7
100
AcDbSpline
 70
8
 71
3
 72
8
 73
4
 74
0
 40
0
 40
0
 40
0
 40
0
 40
1
 40
1
 40
1
 40
1
 10
9.718270
 20
13.089853
 30
0.0
 10
9.790999
 20
12.982496
 30
0.0
 10
9.853652
 20
12.867829
 30
0.0
 10
9.904847
 20
12.747123
 30
0.0
  0
SPLINE
  5
171
100
AcDbEntity
  8
Layer_1
 62
7
100
AcDbSpline
 70
8
 71
3
 72
8
 73
4
 74
0
 40
0
 40
0
 40
0
 40
0
 40
1
 40
1
 40
1
 40
1
 10
9.904847
 20
12.747123
 30
0.0
 10
9.956043
 20
12.626444
 30
0.0
 10
9.995808
 20
12.499727
 30
0.0
 10
10.022760
 20
12.368380
 30
0.0
  0
SPLINE
  5
172
100
AcDbEntity
  8
Layer_1
 62
7
100
AcDbSpline
 70
8
 71
3
 72
8
 73
4
 74
0
 40
0
 40
0
 40
0
 40
0
 40
1
 40
1
 40
1
 40
1
 10
10.022760
 20
12.368380
 30
0.0
 10
10.049571
 20
12.237062
 30
0.0
 10
10.063880
 20
12.101060
 30
0.0
 10
10.063880
 20
11.961755
 30
0.0
  0
SPLINE
  5
173
100
AcDbEntity
  8
Layer_1
 62
7
100
AcDbSpline
 70
8
 71
3
 72
8
 73
4
 74
0
 40
0
 40
0
 40
0
 40
0
 40
1
 40
1
 40
1
 40
1
 10
10.063880
 20
11.961755
 30
0.0
 10
10.063880
 20
11.822478
 30
0.0
 10
10.049769
 20
11.686475
 30
0.0
 10
10.022760
 20
11.555157
 30
0.0
  0
SPLINE
  5
174
100
AcDbEntity
  8
Layer_1
 62
7
100
AcDbSpline
 70
8
 71
3
 72
8
 73
4
 74
0
 40
0
 40
0
 40
0
 40
0
 40
1
 40
1
 40
1
 40
1
 10
10.022760
 20
11.555157
 30
0.0
 10
9.995949
 20
11.423811
 30
0.0
 10
9.956043
 20
11.297093
 30
0.0
 10
9.904847
 20
11.176415
 30
0.0
  0
SPLINE
  5
175
100
AcDbEntity
  8
Layer_1
 62
7
100
AcDbSpline
 70
8
 71
3
 72
8
 73
4
 74
0
 40
0
 40
0
 40
0
 40
0
 40
1
 40
1
 40
1
 40
1
 10
9.904847
 20
11.176415
 30
0.0
 10
9.853652
 20
11.055708
 30
0.0
 10
9.790999
 20
10.941013
 30
0.0
 10
9.718270
 20
10.833684
 30
0.0
  0
SPLINE
  5
176
100
AcDbEntity
  8
Layer_1
 62
7
100
AcDbSpline
 70
8
 71
3
 72
8
 73
4
 74
0
 40
0
 40
0
 40
0
 40
0
 40
1
 40
1
 40
1
 40
1
 10
9.718270
 20
10.833684
 30
0.0
 10
9.645513
 20
10.726355
 30
0.0
 10
9.562681
 20
10.626364
 30
0.0
 10
9.471128
 20
10.535093
 30
0.0
  0
SPLINE
  5
177
100
AcDbEntity
  8
Layer_1
 62
7
100
AcDbSpline
 70
8
 71
3
 72
8
 73
4
 74
0
 40
0
 40
0
 40
0
 40
0
 40
1
 40
1
 40
1
 40
1
 10
9.471128
 20
10.535093
 30
0.0
 10
9.379575
 20
10.443794
 30
0.0
 10
9.279302
 20
10.361216
 30
0.0
 10
9.171634
 20
10.288713
 30
0.0
  0
SPLINE
  5
178
100
AcDbEntity
  8
Layer_1
 62
7
100
AcDbSpline
 70
8
 71
3
 72
8
 73
4
 74
0
 40
0
 40
0
 40
0
 40
0
 40
1
 40
1
 40
1
 40
1
 10
9.171634
 20
10.288713
 30
0.0
 10
9.063966
 20
10.216182
 30
0.0
 10
8.948933
 20
10.153726
 30
0.0
 10
8.827859
 20
10.102672
 30
0.0
  0
SPLINE
  5
179
100
AcDbEntity
  8
Layer_1
 62
7
100
AcDbSpline
 70
8
 71
3
 72
8
 73
4
 74
0
 40
0
 40
0
 40
0
 40
0
 40
1
 40
1
 40
1
 40
1
 10
8.827859
 20
10.102672
 30
0.0
 10
8.706814
 20
10.051646
 30
0.0
 10
8.579729
 20
10.011994
 30
0.0
 10
8.447988
 20
9.985127
 30
0.0
  0
SPLINE
  5
17a
100
AcDbEntity
  8
Layer_1
 62
7
100
AcDbSpline
 70
8
 71
3
 72
8
 73
4
 74
0
 40
0
 40
0
 40
0
 40
0
 40
1
 40
1
 40
1
 40
1
 10
8.447988
 20
9.985127
 30
0.0
 10
8.316247
 20
9.958316
 30
0.0
 10
8.179849
 20
9.944120
 30
0.0
 10
8.040121
 20
9.944120
 30
0.0
  0
SPLINE
  5
17b
100
AcDbEntity
  8
Layer_1
 62
7
100
AcDbSpline
 70
8
 71
3
 72
8
 73
4
 74
0
 40
0
 40
0
 40
0
 40
0
 40
1
 40
1
 40
1
 40
1
 10
8.040121
 20
9.944120
 30
0.0
 10
7.900421
 20
9.944120
 30
0.0
 10
7.764023
 20
9.958231
 30
0.0
 10
7.632281
 20
9.985127
 30
0.0
  0
SPLINE
  5
17c
100
AcDbEntity
  8
Layer_1
 62
7
100
AcDbSpline
 70
8
 71
3
 72
8
 73
4
 74
0
 40
0
 40
0
 40
0
 40
0
 40
1
 40
1
 40
1
 40
1
 10
7.632281
 20
9.985127
 30
0.0
 10
7.500540
 20
10.011938
 30
0.0
 10
7.373455
 20
10.051646
 30
0.0
 10
7.252382
 20
10.102672
 30
0.0
  0
SPLINE
  5
17d
100
AcDbEntity
  8
Layer_1
 62
7
100
AcDbSpline
 70
8
 71
3
 72
8
 73
4
 74
0
 40
0
 40
0
 40
0
 40
0
 40
1
 40
1
 40
1
 40
1
 10
7.252382
 20
10.102672
 30
0.0
 10
7.131337
 20
10.153726
 30
0.0
 10
7.016303
 20
10.216182
 30
0.0
 10
6.908635
 20
10.288713
 30
0.0
  0
SPLINE
  5
17e
100
AcDbEntity
  8
Layer_1
 62
7
100
AcDbSpline
 70
8
 71
3
 72
8
 73
4
 74
0
 40
0
 40
0
 40
0
 40
0
 40
1
 40
1
 40
1
 40
1
 10
6.908635
 20
10.288713
 30
0.0
 10
6.800967
 20
10.361216
 30
0.0
 10
6.700694
 20
10.443794
 30
0.0
 10
6.609113
 20
10.535093
 30
0.0
  0
SPLINE
  5
17f
100
AcDbEntity
  8
Layer_1
 62
7
100
AcDbSpline
 70
8
 71
3
 72
8
 73
4
 74
0
 40
0
 40
0
 40
0
 40
0
 40
1
 40
1
 40
1
 40
1
 10
6.609113
 20
10.535093
 30
0.0
 10
6.517560
 20
10.626364
 30
0.0
 10
6.434756
 20
10.726355
 30
0.0
 10
6.361999
 20
10.833684
 30
0.0
  0
SPLINE
  5
180
100
AcDbEntity
  8
Layer_1
 62
7
100
AcDbSpline
 70
8
 71
3
 72
8
 73
4
 74
0
 40
0
 40
0
 40
0
 40
0
 40
1
 40
1
 40
1
 40
1
 10
6.361999
 20
10.833684
 30
0.0
 10
6.289270
 20
10.941013
 30
0.0
 10
6.226617
 20
11.055708
 30
0.0
 10
6.175422
 20
11.176415
 30
0.0
  0
SPLINE
  5
181
100
AcDbEntity
  8
Layer_1
 62
7
100
AcDbSpline
 70
8
 71
3
 72
8
 73
4
 74
0
 40
0
 40
0
 40
0
 40
0
 40
1
 40
1
 40
1
 40
1
 10
6.175422
 20
11.176415
 30
0.0
 10
6.124227
 20
11.297093
 30
0.0
 10
6.084462
 20
11.423811
 30
0.0
 10
6.057509
 20
11.555157
 30
0.0
  0
SPLINE
  5
182
100
AcDbEntity
  8
Layer_1
 62
7
100
AcDbSpline
 70
8
 71
3
 72
8
 73
4
 74
0
 40
0
 40
0
 40
0
 40
0
 40
1
 40
1
 40
1
 40
1
 10
6.057509
 20
11.555157
 30
0.0
 10
6.030416
 20
11.686475
 30
0.0
 10
6.016390
 20
11.822478
 30
0.0
 10
6.016390
 20
11.961755
 30
0.0
  0
LWPOLYLINE
  5
183
100
AcDbEntity
  8
Layer_1
 62
7
100
AcDbPolyline
 90
2
 70
0
 10
5.976258
 20
22.000004
 30
0.0
 10
5.976258
 20
22.000004
 30
0.0
  0
SPLINE
  5
184
100
AcDbEntity
  8
Layer_1
 62
7
100
AcDbSpline
 70
8
 71
3
 72
8
 73
4
 74
0
 40
0
 40
0
 40
0
 40
0
 40
1
 40
1
 40
1
 40
1
 10
38.058279
 20
14.008007
 30
0.0
 10
38.197584
 20
14.008007
 30
0.0
 10
38.333587
 20
13.993896
 30
0.0
 10
38.464905
 20
13.966887
 30
0.0
  0
SPLINE
  5
185
100
AcDbEntity
  8
Layer_1
 62
7
100
AcDbSpline
 70
8
 71
3
 72
8
 73
4
 74
0
 40
0
 40
0
 40
0
 40
0
 40
1
 40
1
 40
1
 40
1
 10
38.464905
 20
13.966887
 30
0.0
 10
38.596251
 20
13.939794
 30
0.0
 10
38.722969
 20
13.900170
 30
0.0
 10
38.843647
 20
13.848946
 30
0.0
  0
SPLINE
  5
186
100
AcDbEntity
  8
Layer_1
 62
7
100
AcDbSpline
 70
8
 71
3
 72
8
 73
4
 74
0
 40
0
 40
0
 40
0
 40
0
 40
1
 40
1
 40
1
 40
1
 10
38.843647
 20
13.848946
 30
0.0
 10
38.964354
 20
13.797780
 30
0.0
 10
39.079020
 20
13.735126
 30
0.0
 10
39.186378
 20
13.662369
 30
0.0
  0
SPLINE
  5
187
100
AcDbEntity
  8
Layer_1
 62
7
100
AcDbSpline
 70
8
 71
3
 72
8
 73
4
 74
0
 40
0
 40
0
 40
0
 40
0
 40
1
 40
1
 40
1
 40
1
 10
39.186378
 20
13.662369
 30
0.0
 10
39.293707
 20
13.589669
 30
0.0
 10
39.393698
 20
13.506837
 30
0.0
 10
39.484969
 20
13.415284
 30
0.0
  0
SPLINE
  5
188
100
AcDbEntity
  8
Layer_1
 62
7
100
AcDbSpline
 70
8
 71
3
 72
8
 73
4
 74
0
 40
0
 40
0
 40
0
 40
0
 40
1
 40
1
 40
1
 40
1
 10
39.484969
 20
13.415284
 30
0.0
 10
39.576268
 20
13.323703
 30
0.0
 10
39.658846
 20
13.223401
 30
0.0
 10
39.731349
 20
13.115733
 30
0.0
  0
SPLINE
  5
189
100
AcDbEntity
  8
Layer_1
 62
7
100
AcDbSpline
 70
8
 71
3
 72
8
 73
4
 74
0
 40
0
 40
0
 40
0
 40
0
 40
1
 40
1
 40
1
 40
1
 10
39.731349
 20
13.115733
 30
0.0
 10
39.803880
 20
13.008094
 30
0.0
 10
39.866336
 20
12.893060
 30
0.0
 10
39.917362
 20
12.771986
 30
0.0
  0
SPLINE
  5
18a
100
AcDbEntity
  8
Layer_1
 62
7
100
AcDbSpline
 70
8
 71
3
 72
8
 73
4
 74
0
 40
0
 40
0
 40
0
 40
0
 40
1
 40
1
 40
1
 40
1
 10
39.917362
 20
12.771986
 30
0.0
 10
39.968416
 20
12.650941
 30
0.0
 10
40.008068
 20
12.523885
 30
0.0
 10
40.034935
 20
12.392087
 30
0.0
  0
SPLINE
  5
18b
100
AcDbEntity
  8
Layer_1
 62
7
100
AcDbSpline
 70
8
 71
3
 72
8
 73
4
 74
0
 40
0
 40
0
 40
0
 40
0
 40
1
 40
1
 40
1
 40
1
 10
40.034935
 20
12.392087
 30
0.0
 10
40.061746
 20
12.260374
 30
0.0
 10
40.075942
 20
12.123948
 30
0.0
 10
40.075942
 20
11.984276
 30
0.0
  0
SPLINE
  5
18c
100
AcDbEntity
  8
Layer_1
 62
7
100
AcDbSpline
 70
8
 71
3
 72
8
 73
4
 74
0
 40
0
 40
0
 40
0
 40
0
 40
1
 40
1
 40
1
 40
1
 10
40.075942
 20
11.984276
 30
0.0
 10
40.075942
 20
11.844520
 30
0.0
 10
40.061831
 20
11.708150
 30
0.0
 10
40.034935
 20
11.576380
 30
0.0
  0
SPLINE
  5
18d
100
AcDbEntity
  8
Layer_1
 62
7
100
AcDbSpline
 70
8
 71
3
 72
8
 73
4
 74
0
 40
0
 40
0
 40
0
 40
0
 40
1
 40
1
 40
1
 40
1
 10
40.034935
 20
11.576380
 30
0.0
 10
40.008124
 20
11.444639
 30
0.0
 10
39.968416
 20
11.317582
 30
0.0
 10
39.917362
 20
11.196509
 30
0.0
  0
SPLINE
  5
18e
100
AcDbEntity
  8
Layer_1
 62
7
100
AcDbSpline
 70
8
 71
3
 72
8
 73
4
 74
0
 40
0
 40
0
 40
0
 40
0
 40
1
 40
1
 40
1
 40
1
 10
39.917362
 20
11.196509
 30
0.0
 10
39.866336
 20
11.075492
 30
0.0
 10
39.803880
 20
10.960430
 30
0.0
 10
39.731349
 20
10.852734
 30
0.0
  0
SPLINE
  5
18f
100
AcDbEntity
  8
Layer_1
 62
7
100
AcDbSpline
 70
8
 71
3
 72
8
 73
4
 74
0
 40
0
 40
0
 40
0
 40
0
 40
1
 40
1
 40
1
 40
1
 10
39.731349
 20
10.852734
 30
0.0
 10
39.658846
 20
10.745095
 30
0.0
 10
39.576268
 20
10.644793
 30
0.0
 10
39.484969
 20
10.553240
 30
0.0
  0
SPLINE
  5
190
100
AcDbEntity
  8
Layer_1
 62
7
100
AcDbSpline
 70
8
 71
3
 72
8
 73
4
 74
0
 40
0
 40
0
 40
0
 40
0
 40
1
 40
1
 40
1
 40
1
 10
39.484969
 20
10.553240
 30
0.0
 10
39.393698
 20
10.461715
 30
0.0
 10
39.293707
 20
10.378883
 30
0.0
 10
39.186378
 20
10.306126
 30
0.0
  0
SPLINE
  5
191
100
AcDbEntity
  8
Layer_1
 62
7
100
AcDbSpline
 70
8
 71
3
 72
8
 73
4
 74
0
 40
0
 40
0
 40
0
 40
0
 40
1
 40
1
 40
1
 40
1
 10
39.186378
 20
10.306126
 30
0.0
 10
39.079020
 20
10.233398
 30
0.0
 10
38.964354
 20
10.170772
 30
0.0
 10
38.843647
 20
10.119521
 30
0.0
  0
SPLINE
  5
192
100
AcDbEntity
  8
Layer_1
 62
7
100
AcDbSpline
 70
8
 71
3
 72
8
 73
4
 74
0
 40
0
 40
0
 40
0
 40
0
 40
1
 40
1
 40
1
 40
1
 10
38.843647
 20
10.119521
 30
0.0
 10
38.722969
 20
10.068326
 30
0.0
 10
38.596251
 20
10.028561
 30
0.0
 10
38.464905
 20
10.001608
 30
0.0
  0
SPLINE
  5
193
100
AcDbEntity
  8
Layer_1
 62
7
100
AcDbSpline
 70
8
 71
3
 72
8
 73
4
 74
0
 40
0
 40
0
 40
0
 40
0
 40
1
 40
1
 40
1
 40
1
 10
38.464905
 20
10.001608
 30
0.0
 10
38.333587
 20
9.974797
 30
0.0
 10
38.197584
 20
9.960489
 30
0.0
 10
38.058279
 20
9.960489
 30
0.0
  0
SPLINE
  5
194
100
AcDbEntity
  8
Layer_1
 62
7
100
AcDbSpline
 70
8
 71
3
 72
8
 73
4
 74
0
 40
0
 40
0
 40
0
 40
0
 40
1
 40
1
 40
1
 40
1
 10
38.058279
 20
9.960489
 30
0.0
 10
37.919002
 20
9.960489
 30
0.0
 10
37.783000
 20
9.974600
 30
0.0
 10
37.651682
 20
10.001608
 30
0.0
  0
SPLINE
  5
195
100
AcDbEntity
  8
Layer_1
 62
7
100
AcDbSpline
 70
8
 71
3
 72
8
 73
4
 74
0
 40
0
 40
0
 40
0
 40
0
 40
1
 40
1
 40
1
 40
1
 10
37.651682
 20
10.001608
 30
0.0
 10
37.520335
 20
10.028702
 30
0.0
 10
37.393618
 20
10.068326
 30
0.0
 10
37.272939
 20
10.119521
 30
0.0
  0
SPLINE
  5
196
100
AcDbEntity
  8
Layer_1
 62
7
100
AcDbSpline
 70
8
 71
3
 72
8
 73
4
 74
0
 40
0
 40
0
 40
0
 40
0
 40
1
 40
1
 40
1
 40
1
 10
37.272939
 20
10.119521
 30
0.0
 10
37.152233
 20
10.170772
 30
0.0
 10
37.037538
 20
10.233398
 30
0.0
 10
36.930209
 20
10.306126
 30
0.0
  0
SPLINE
  5
197
100
AcDbEntity
  8
Layer_1
 62
7
100
AcDbSpline
 70
8
 71
3
 72
8
 73
4
 74
0
 40
0
 40
0
 40
0
 40
0
 40
1
 40
1
 40
1
 40
1
 10
36.930209
 20
10.306126
 30
0.0
 10
36.822880
 20
10.378883
 30
0.0
 10
36.722888
 20
10.461715
 30
0.0
 10
36.631618
 20
10.553240
 30
0.0
  0
SPLINE
  5
198
100
AcDbEntity
  8
Layer_1
 62
7
100
AcDbSpline
 70
8
 71
3
 72
8
 73
4
 74
0
 40
0
 40
0
 40
0
 40
0
 40
1
 40
1
 40
1
 40
1
 10
36.631618
 20
10.553240
 30
0.0
 10
36.540319
 20
10.644793
 30
0.0
 10
36.457740
 20
10.745095
 30
0.0
 10
36.385238
 20
10.852734
 30
0.0
  0
SPLINE
  5
199
100
AcDbEntity
  8
Layer_1
 62
7
100
AcDbSpline
 70
8
 71
3
 72
8
 73
4
 74
0
 40
0
 40
0
 40
0
 40
0
 40
1
 40
1
 40
1
 40
1
 10
36.385238
 20
10.852734
 30
0.0
 10
36.312706
 20
10.960430
 30
0.0
 10
36.250251
 20
11.075492
 30
0.0
 10
36.199197
 20
11.196509
 30
0.0
  0
SPLINE
  5
19a
100
AcDbEntity
  8
Layer_1
 62
7
100
AcDbSpline
 70
8
 71
3
 72
8
 73
4
 74
0
 40
0
 40
0
 40
0
 40
0
 40
1
 40
1
 40
1
 40
1
 10
36.199197
 20
11.196509
 30
0.0
 10
36.148171
 20
11.317582
 30
0.0
 10
36.108519
 20
11.444639
 30
0.0
 10
36.081651
 20
11.576380
 30
0.0
  0
SPLINE
  5
19b
100
AcDbEntity
  8
Layer_1
 62
7
100
AcDbSpline
 70
8
 71
3
 72
8
 73
4
 74
0
 40
0
 40
0
 40
0
 40
0
 40
1
 40
1
 40
1
 40
1
 10
36.081651
 20
11.576380
 30
0.0
 10
36.054840
 20
11.708150
 30
0.0
 10
36.040644
 20
11.844548
 30
0.0
 10
36.040644
 20
11.984276
 30
0.0
  0
SPLINE
  5
19c
100
AcDbEntity
  8
Layer_1
 62
7
100
AcDbSpline
 70
8
 71
3
 72
8
 73
4
 74
0
 40
0
 40
0
 40
0
 40
0
 40
1
 40
1
 40
1
 40
1
 10
36.040644
 20
11.984276
 30
0.0
 10
36.040644
 20
12.123948
 30
0.0
 10
36.054755
 20
12.260374
 30
0.0
 10
36.081651
 20
12.392087
 30
0.0
  0
SPLINE
  5
19d
100
AcDbEntity
  8
Layer_1
 62
7
100
AcDbSpline
 70
8
 71
3
 72
8
 73
4
 74
0
 40
0
 40
0
 40
0
 40
0
 40
1
 40
1
 40
1
 40
1
 10
36.081651
 20
12.392087
 30
0.0
 10
36.108462
 20
12.523828
 30
0.0
 10
36.148171
 20
12.650941
 30
0.0
 10
36.199197
 20
12.771986
 30
0.0
  0
SPLINE
  5
19e
100
AcDbEntity
  8
Layer_1
 62
7
100
AcDbSpline
 70
8
 71
3
 72
8
 73
4
 74
0
 40
0
 40
0
 40
0
 40
0
 40
1
 40
1
 40
1
 40
1
 10
36.199197
 20
12.771986
 30
0.0
 10
36.250251
 20
12.893060
 30
0.0
 10
36.312706
 20
13.008094
 30
0.0
 10
36.385238
 20
13.115733
 30
0.0
  0
SPLINE
  5
19f
100
AcDbEntity
  8
Layer_1
 62
7
100
AcDbSpline
 70
8
 71
3
 72
8
 73
4
 74
0
 40
0
 40
0
 40
0
 40
0
 40
1
 40
1
 40
1
 40
1
 10
36.385238
 20
13.115733
 30
0.0
 10
36.457740
 20
13.223401
 30
0.0
 10
36.540319
 20
13.323703
 30
0.0
 10
36.631618
 20
13.415284
 30
0.0
  0
SPLINE
  5
1a0
100
AcDbEntity
  8
Layer_1
 62
7
100
AcDbSpline
 70
8
 71
3
 72
8
 73
4
 74
0
 40
0
 40
0
 40
0
 40
0
 40
1
 40
1
 40
1
 40
1
 10
36.631618
 20
13.415284
 30
0.0
 10
36.722888
 20
13.506837
 30
0.0
 10
36.822880
 20
13.589669
 30
0.0
 10
36.930209
 20
13.662369
 30
0.0
  0
SPLINE
  5
1a1
100
AcDbEntity
  8
Layer_1
 62
7
100
AcDbSpline
 70
8
 71
3
 72
8
 73
4
 74
0
 40
0
 40
0
 40
0
 40
0
 40
1
 40
1
 40
1
 40
1
 10
36.930209
 20
13.662369
 30
0.0
 10
37.037538
 20
13.735126
 30
0.0
 10
37.152233
 20
13.797780
 30
0.0
 10
37.272939
 20
13.848946
 30
0.0
  0
SPLINE
  5
1a2
100
AcDbEntity
  8
Layer_1
 62
7
100
AcDbSpline
 70
8
 71
3
 72
8
 73
4
 74
0
 40
0
 40
0
 40
0
 40
0
 40
1
 40
1
 40
1
 40
1
 10
37.272939
 20
13.848946
 30
0.0
 10
37.393618
 20
13.900170
 30
0.0
 10
37.520335
 20
13.939907
 30
0.0
 10
37.651682
 20
13.966887
 30
0.0
  0
SPLINE
  5
1a3
100
AcDbEntity
  8
Layer_1
 62
7
100
AcDbSpline
 70
8
 71
3
 72
8
 73
4
 74
0
 40
0
 40
0
 40
0
 40
0
 40
1
 40
1
 40
1
 40
1
 10
37.651682
 20
13.966887
 30
0.0
 10
37.783000
 20
13.993980
 30
0.0
 10
37.919002
 20
14.008007
 30
0.0
 10
38.058279
 20
14.008007
 30
0.0
  0
LWPOLYLINE
  5
1a4
100
AcDbEntity
  8
Layer_1
 62
7
100
AcDbPolyline
 90
2
 70
0
 10
6.016390
 20
11.961755
 30
0.0
 10
6.016390
 20
11.961755
 30
0.0
  0
SPLINE
  5
1a5
100
AcDbEntity
  8
Layer_1
 62
7
100
AcDbSpline
 70
8
 71
3
 72
8
 73
4
 74
0
 40
0
 40
0
 40
0
 40
0
 40
1
 40
1
 40
1
 40
1
 10
28.058297
 20
14.008007
 30
0.0
 10
28.197574
 20
14.008007
 30
0.0
 10
28.333576
 20
13.993896
 30
0.0
 10
28.464922
 20
13.966887
 30
0.0
  0
SPLINE
  5
1a6
100
AcDbEntity
  8
Layer_1
 62
7
100
AcDbSpline
 70
8
 71
3
 72
8
 73
4
 74
0
 40
0
 40
0
 40
0
 40
0
 40
1
 40
1
 40
1
 40
1
 10
28.464922
 20
13.966887
 30
0.0
 10
28.596268
 20
13.940076
 30
0.0
 10
28.722958
 20
13.900170
 30
0.0
 10
28.843636
 20
13.848975
 30
0.0
  0
SPLINE
  5
1a7
100
AcDbEntity
  8
Layer_1
 62
7
100
AcDbSpline
 70
8
 71
3
 72
8
 73
4
 74
0
 40
0
 40
0
 40
0
 40
0
 40
1
 40
1
 40
1
 40
1
 10
28.843636
 20
13.848975
 30
0.0
 10
28.964342
 20
13.797780
 30
0.0
 10
29.079038
 20
13.735126
 30
0.0
 10
29.186367
 20
13.662398
 30
0.0
  0
SPLINE
  5
1a8
100
AcDbEntity
  8
Layer_1
 62
7
100
AcDbSpline
 70
8
 71
3
 72
8
 73
4
 74
0
 40
0
 40
0
 40
0
 40
0
 40
1
 40
1
 40
1
 40
1
 10
29.186367
 20
13.662398
 30
0.0
 10
29.293696
 20
13.589641
 30
0.0
 10
29.393687
 20
13.506837
 30
0.0
 10
29.484986
 20
13.415284
 30
0.0
  0
SPLINE
  5
1a9
100
AcDbEntity
  8
Layer_1
 62
7
100
AcDbSpline
 70
8
 71
3
 72
8
 73
4
 74
0
 40
0
 40
0
 40
0
 40
0
 40
1
 40
1
 40
1
 40
1
 10
29.484986
 20
13.415284
 30
0.0
 10
29.576257
 20
13.323703
 30
0.0
 10
29.658835
 20
13.223429
 30
0.0
 10
29.731338
 20
13.115761
 30
0.0
  0
SPLINE
  5
1aa
100
AcDbEntity
  8
Layer_1
 62
7
100
AcDbSpline
 70
8
 71
3
 72
8
 73
4
 74
0
 40
0
 40
0
 40
0
 40
0
 40
1
 40
1
 40
1
 40
1
 10
29.731338
 20
13.115761
 30
0.0
 10
29.803869
 20
13.008094
 30
0.0
 10
29.866325
 20
12.893060
 30
0.0
 10
29.917379
 20
12.771986
 30
0.0
  0
SPLINE
  5
1ab
100
AcDbEntity
  8
Layer_1
 62
7
100
AcDbSpline
 70
8
 71
3
 72
8
 73
4
 74
0
 40
0
 40
0
 40
0
 40
0
 40
1
 40
1
 40
1
 40
1
 10
29.917379
 20
12.771986
 30
0.0
 10
29.968433
 20
12.650941
 30
0.0
 10
30.008057
 20
12.523857
 30
0.0
 10
30.034924
 20
12.392115
 30
0.0
  0
SPLINE
  5
1ac
100
AcDbEntity
  8
Layer_1
 62
7
100
AcDbSpline
 70
8
 71
3
 72
8
 73
4
 74
0
 40
0
 40
0
 40
0
 40
0
 40
1
 40
1
 40
1
 40
1
 10
30.034924
 20
12.392115
 30
0.0
 10
30.061735
 20
12.260374
 30
0.0
 10
30.075931
 20
12.123976
 30
0.0
 10
30.075931
 20
11.984276
 30
0.0
  0
SPLINE
  5
1ad
100
AcDbEntity
  8
Layer_1
 62
7
100
AcDbSpline
 70
8
 71
3
 72
8
 73
4
 74
0
 40
0
 40
0
 40
0
 40
0
 40
1
 40
1
 40
1
 40
1
 10
30.075931
 20
11.984276
 30
0.0
 10
30.075931
 20
11.844548
 30
0.0
 10
30.061820
 20
11.708150
 30
0.0
 10
30.034924
 20
11.576408
 30
0.0
  0
SPLINE
  5
1ae
100
AcDbEntity
  8
Layer_1
 62
7
100
AcDbSpline
 70
8
 71
3
 72
8
 73
4
 74
0
 40
0
 40
0
 40
0
 40
0
 40
1
 40
1
 40
1
 40
1
 10
30.034924
 20
11.576408
 30
0.0
 10
30.008113
 20
11.444667
 30
0.0
 10
29.968433
 20
11.317582
 30
0.0
 10
29.917379
 20
11.196537
 30
0.0
  0
SPLINE
  5
1af
100
AcDbEntity
  8
Layer_1
 62
7
100
AcDbSpline
 70
8
 71
3
 72
8
 73
4
 74
0
 40
0
 40
0
 40
0
 40
0
 40
1
 40
1
 40
1
 40
1
 10
29.917379
 20
11.196537
 30
0.0
 10
29.866325
 20
11.075464
 30
0.0
 10
29.803869
 20
10.960430
 30
0.0
 10
29.731338
 20
10.852762
 30
0.0
  0
SPLINE
  5
1b0
100
AcDbEntity
  8
Layer_1
 62
7
100
AcDbSpline
 70
8
 71
3
 72
8
 73
4
 74
0
 40
0
 40
0
 40
0
 40
0
 40
1
 40
1
 40
1
 40
1
 10
29.731338
 20
10.852762
 30
0.0
 10
29.658835
 20
10.745095
 30
0.0
 10
29.576257
 20
10.644821
 30
0.0
 10
29.484986
 20
10.553268
 30
0.0
  0
SPLINE
  5
1b1
100
AcDbEntity
  8
Layer_1
 62
7
100
AcDbSpline
 70
8
 71
3
 72
8
 73
4
 74
0
 40
0
 40
0
 40
0
 40
0
 40
1
 40
1
 40
1
 40
1
 10
29.484986
 20
10.553268
 30
0.0
 10
29.393687
 20
10.461715
 30
0.0
 10
29.293696
 20
10.378883
 30
0.0
 10
29.186367
 20
10.306126
 30
0.0
  0
SPLINE
  5
1b2
100
AcDbEntity
  8
Layer_1
 62
7
100
AcDbSpline
 70
8
 71
3
 72
8
 73
4
 74
0
 40
0
 40
0
 40
0
 40
0
 40
1
 40
1
 40
1
 40
1
 10
29.186367
 20
10.306126
 30
0.0
 10
29.079038
 20
10.233398
 30
0.0
 10
28.964342
 20
10.170744
 30
0.0
 10
28.843636
 20
10.119549
 30
0.0
  0
SPLINE
  5
1b3
100
AcDbEntity
  8
Layer_1
 62
7
100
AcDbSpline
 70
8
 71
3
 72
8
 73
4
 74
0
 40
0
 40
0
 40
0
 40
0
 40
1
 40
1
 40
1
 40
1
 10
28.843636
 20
10.119549
 30
0.0
 10
28.722958
 20
10.068354
 30
0.0
 10
28.596268
 20
10.028589
 30
0.0
 10
28.464922
 20
10.001637
 30
0.0
  0
SPLINE
  5
1b4
100
AcDbEntity
  8
Layer_1
 62
7
100
AcDbSpline
 70
8
 71
3
 72
8
 73
4
 74
0
 40
0
 40
0
 40
0
 40
0
 40
1
 40
1
 40
1
 40
1
 10
28.464922
 20
10.001637
 30
0.0
 10
28.333576
 20
9.974543
 30
0.0
 10
28.197574
 20
9.960517
 30
0.0
 10
28.058297
 20
9.960517
 30
0.0
  0
SPLINE
  5
1b5
100
AcDbEntity
  8
Layer_1
 62
7
100
AcDbSpline
 70
8
 71
3
 72
8
 73
4
 74
0
 40
0
 40
0
 40
0
 40
0
 40
1
 40
1
 40
1
 40
1
 10
28.058297
 20
9.960517
 30
0.0
 10
27.918993
 20
9.960517
 30
0.0
 10
27.783018
 20
9.974628
 30
0.0
 10
27.651672
 20
10.001637
 30
0.0
  0
SPLINE
  5
1b6
100
AcDbEntity
  8
Layer_1
 62
7
100
AcDbSpline
 70
8
 71
3
 72
8
 73
4
 74
0
 40
0
 40
0
 40
0
 40
0
 40
1
 40
1
 40
1
 40
1
 10
27.651672
 20
10.001637
 30
0.0
 10
27.520325
 20
10.028448
 30
0.0
 10
27.393636
 20
10.068354
 30
0.0
 10
27.272929
 20
10.119549
 30
0.0
  0
SPLINE
  5
1b7
100
AcDbEntity
  8
Layer_1
 62
7
100
AcDbSpline
 70
8
 71
3
 72
8
 73
4
 74
0
 40
0
 40
0
 40
0
 40
0
 40
1
 40
1
 40
1
 40
1
 10
27.272929
 20
10.119549
 30
0.0
 10
27.152251
 20
10.170744
 30
0.0
 10
27.037556
 20
10.233398
 30
0.0
 10
26.930199
 20
10.306126
 30
0.0
  0
SPLINE
  5
1b8
100
AcDbEntity
  8
Layer_1
 62
7
100
AcDbSpline
 70
8
 71
3
 72
8
 73
4
 74
0
 40
0
 40
0
 40
0
 40
0
 40
1
 40
1
 40
1
 40
1
 10
26.930199
 20
10.306126
 30
0.0
 10
26.822870
 20
10.378883
 30
0.0
 10
26.722878
 20
10.461715
 30
0.0
 10
26.631608
 20
10.553268
 30
0.0
  0
SPLINE
  5
1b9
100
AcDbEntity
  8
Layer_1
 62
7
100
AcDbSpline
 70
8
 71
3
 72
8
 73
4
 74
0
 40
0
 40
0
 40
0
 40
0
 40
1
 40
1
 40
1
 40
1
 10
26.631608
 20
10.553268
 30
0.0
 10
26.540337
 20
10.644821
 30
0.0
 10
26.457759
 20
10.745095
 30
0.0
 10
26.385228
 20
10.852762
 30
0.0
  0
SPLINE
  5
1ba
100
AcDbEntity
  8
Layer_1
 62
7
100
AcDbSpline
 70
8
 71
3
 72
8
 73
4
 74
0
 40
0
 40
0
 40
0
 40
0
 40
1
 40
1
 40
1
 40
1
 10
26.385228
 20
10.852762
 30
0.0
 10
26.312725
 20
10.960430
 30
0.0
 10
26.250269
 20
11.075464
 30
0.0
 10
26.199215
 20
11.196537
 30
0.0
  0
SPLINE
  5
1bb
100
AcDbEntity
  8
Layer_1
 62
7
100
AcDbSpline
 70
8
 71
3
 72
8
 73
4
 74
0
 40
0
 40
0
 40
0
 40
0
 40
1
 40
1
 40
1
 40
1
 10
26.199215
 20
11.196537
 30
0.0
 10
26.148161
 20
11.317582
 30
0.0
 10
26.108509
 20
11.444667
 30
0.0
 10
26.081641
 20
11.576408
 30
0.0
  0
SPLINE
  5
1bc
100
AcDbEntity
  8
Layer_1
 62
7
100
AcDbSpline
 70
8
 71
3
 72
8
 73
4
 74
0
 40
0
 40
0
 40
0
 40
0
 40
1
 40
1
 40
1
 40
1
 10
26.081641
 20
11.576408
 30
0.0
 10
26.054830
 20
11.708150
 30
0.0
 10
26.040663
 20
11.844548
 30
0.0
 10
26.040663
 20
11.984276
 30
0.0
  0
SPLINE
  5
1bd
100
AcDbEntity
  8
Layer_1
 62
7
100
AcDbSpline
 70
8
 71
3
 72
8
 73
4
 74
0
 40
0
 40
0
 40
0
 40
0
 40
1
 40
1
 40
1
 40
1
 10
26.040663
 20
11.984276
 30
0.0
 10
26.040663
 20
12.123976
 30
0.0
 10
26.054774
 20
12.260374
 30
0.0
 10
26.081641
 20
12.392115
 30
0.0
  0
SPLINE
  5
1be
100
AcDbEntity
  8
Layer_1
 62
7
100
AcDbSpline
 70
8
 71
3
 72
8
 73
4
 74
0
 40
0
 40
0
 40
0
 40
0
 40
1
 40
1
 40
1
 40
1
 10
26.081641
 20
12.392115
 30
0.0
 10
26.108452
 20
12.523857
 30
0.0
 10
26.148161
 20
12.650941
 30
0.0
 10
26.199215
 20
12.771986
 30
0.0
  0
SPLINE
  5
1bf
100
AcDbEntity
  8
Layer_1
 62
7
100
AcDbSpline
 70
8
 71
3
 72
8
 73
4
 74
0
 40
0
 40
0
 40
0
 40
0
 40
1
 40
1
 40
1
 40
1
 10
26.199215
 20
12.771986
 30
0.0
 10
26.250269
 20
12.893060
 30
0.0
 10
26.312725
 20
13.008094
 30
0.0
 10
26.385228
 20
13.115761
 30
0.0
  0
SPLINE
  5
1c0
100
AcDbEntity
  8
Layer_1
 62
7
100
AcDbSpline
 70
8
 71
3
 72
8
 73
4
 74
0
 40
0
 40
0
 40
0
 40
0
 40
1
 40
1
 40
1
 40
1
 10
26.385228
 20
13.115761
 30
0.0
 10
26.457759
 20
13.223429
 30
0.0
 10
26.540337
 20
13.323703
 30
0.0
 10
26.631608
 20
13.415284
 30
0.0
  0
SPLINE
  5
1c1
100
AcDbEntity
  8
Layer_1
 62
7
100
AcDbSpline
 70
8
 71
3
 72
8
 73
4
 74
0
 40
0
 40
0
 40
0
 40
0
 40
1
 40
1
 40
1
 40
1
 10
26.631608
 20
13.415284
 30
0.0
 10
26.722878
 20
13.506837
 30
0.0
 10
26.822870
 20
13.589641
 30
0.0
 10
26.930199
 20
13.662398
 30
0.0
  0
SPLINE
  5
1c2
100
AcDbEntity
  8
Layer_1
 62
7
100
AcDbSpline
 70
8
 71
3
 72
8
 73
4
 74
0
 40
0
 40
0
 40
0
 40
0
 40
1
 40
1
 40
1
 40
1
 10
26.930199
 20
13.662398
 30
0.0
 10
27.037556
 20
13.735126
 30
0.0
 10
27.152251
 20
13.797780
 30
0.0
 10
27.272929
 20
13.848975
 30
0.0
  0
SPLINE
  5
1c3
100
AcDbEntity
  8
Layer_1
 62
7
100
AcDbSpline
 70
8
 71
3
 72
8
 73
4
 74
0
 40
0
 40
0
 40
0
 40
0
 40
1
 40
1
 40
1
 40
1
 10
27.272929
 20
13.848975
 30
0.0
 10
27.393636
 20
13.900170
 30
0.0
 10
27.520325
 20
13.939935
 30
0.0
 10
27.651672
 20
13.966887
 30
0.0
  0
SPLINE
  5
1c4
100
AcDbEntity
  8
Layer_1
 62
7
100
AcDbSpline
 70
8
 71
3
 72
8
 73
4
 74
0
 40
0
 40
0
 40
0
 40
0
 40
1
 40
1
 40
1
 40
1
 10
27.651672
 20
13.966887
 30
0.0
 10
27.783018
 20
13.993980
 30
0.0
 10
27.918993
 20
14.008007
 30
0.0
 10
28.058297
 20
14.008007
 30
0.0
  0
LWPOLYLINE
  5
1c5
100
AcDbEntity
  8
Layer_1
 62
7
100
AcDbPolyline
 90
2
 70
0
 10
38.058279
 20
14.008007
 30
0.0
 10
38.058279
 20
14.008007
 30
0.0
  0
SPLINE
  5
1c6
100
AcDbEntity
  8
Layer_1
 62
7
100
AcDbSpline
 70
8
 71
3
 72
8
 73
4
 74
0
 40
0
 40
0
 40
0
 40
0
 40
1
 40
1
 40
1
 40
1
 10
18.058295
 20
14.008007
 30
0.0
 10
18.197600
 20
14.008007
 30
0.0
 10
18.333574
 20
13.993896
 30
0.0
 10
18.464921
 20
13.966887
 30
0.0
  0
SPLINE
  5
1c7
100
AcDbEntity
  8
Layer_1
 62
7
100
AcDbSpline
 70
8
 71
3
 72
8
 73
4
 74
0
 40
0
 40
0
 40
0
 40
0
 40
1
 40
1
 40
1
 40
1
 10
18.464921
 20
13.966887
 30
0.0
 10
18.596267
 20
13.940076
 30
0.0
 10
18.722956
 20
13.900170
 30
0.0
 10
18.843660
 20
13.848975
 30
0.0
  0
SPLINE
  5
1c8
100
AcDbEntity
  8
Layer_1
 62
7
100
AcDbSpline
 70
8
 71
3
 72
8
 73
4
 74
0
 40
0
 40
0
 40
0
 40
0
 40
1
 40
1
 40
1
 40
1
 10
18.843660
 20
13.848975
 30
0.0
 10
18.964338
 20
13.797780
 30
0.0
 10
19.079033
 20
13.735126
 30
0.0
 10
19.186391
 20
13.662398
 30
0.0
  0
SPLINE
  5
1c9
100
AcDbEntity
  8
Layer_1
 62
7
100
AcDbSpline
 70
8
 71
3
 72
8
 73
4
 74
0
 40
0
 40
0
 40
0
 40
0
 40
1
 40
1
 40
1
 40
1
 10
19.186391
 20
13.662398
 30
0.0
 10
19.293720
 20
13.589641
 30
0.0
 10
19.393711
 20
13.506837
 30
0.0
 10
19.484982
 20
13.415284
 30
0.0
  0
SPLINE
  5
1ca
100
AcDbEntity
  8
Layer_1
 62
7
100
AcDbSpline
 70
8
 71
3
 72
8
 73
4
 74
0
 40
0
 40
0
 40
0
 40
0
 40
1
 40
1
 40
1
 40
1
 10
19.484982
 20
13.415284
 30
0.0
 10
19.576252
 20
13.323703
 30
0.0
 10
19.658831
 20
13.223429
 30
0.0
 10
19.731362
 20
13.115761
 30
0.0
  0
SPLINE
  5
1cb
100
AcDbEntity
  8
Layer_1
 62
7
100
AcDbSpline
 70
8
 71
3
 72
8
 73
4
 74
0
 40
0
 40
0
 40
0
 40
0
 40
1
 40
1
 40
1
 40
1
 10
19.731362
 20
13.115761
 30
0.0
 10
19.803865
 20
13.008094
 30
0.0
 10
19.866320
 20
12.893060
 30
0.0
 10
19.917374
 20
12.771986
 30
0.0
  0
SPLINE
  5
1cc
100
AcDbEntity
  8
Layer_1
 62
7
100
AcDbSpline
 70
8
 71
3
 72
8
 73
4
 74
0
 40
0
 40
0
 40
0
 40
0
 40
1
 40
1
 40
1
 40
1
 10
19.917374
 20
12.771986
 30
0.0
 10
19.968428
 20
12.650941
 30
0.0
 10
20.008081
 20
12.523857
 30
0.0
 10
20.034948
 20
12.392115
 30
0.0
  0
SPLINE
  5
1cd
100
AcDbEntity
  8
Layer_1
 62
7
100
AcDbSpline
 70
8
 71
3
 72
8
 73
4
 74
0
 40
0
 40
0
 40
0
 40
0
 40
1
 40
1
 40
1
 40
1
 10
20.034948
 20
12.392115
 30
0.0
 10
20.061759
 20
12.260374
 30
0.0
 10
20.075927
 20
12.123976
 30
0.0
 10
20.075927
 20
11.984276
 30
0.0
  0
SPLINE
  5
1ce
100
AcDbEntity
  8
Layer_1
 62
7
100
AcDbSpline
 70
8
 71
3
 72
8
 73
4
 74
0
 40
0
 40
0
 40
0
 40
0
 40
1
 40
1
 40
1
 40
1
 10
20.075927
 20
11.984276
 30
0.0
 10
20.075927
 20
11.844548
 30
0.0
 10
20.061816
 20
11.708150
 30
0.0
 10
20.034948
 20
11.576408
 30
0.0
  0
SPLINE
  5
1cf
100
AcDbEntity
  8
Layer_1
 62
7
100
AcDbSpline
 70
8
 71
3
 72
8
 73
4
 74
0
 40
0
 40
0
 40
0
 40
0
 40
1
 40
1
 40
1
 40
1
 10
20.034948
 20
11.576408
 30
0.0
 10
20.008137
 20
11.444667
 30
0.0
 10
19.968428
 20
11.317582
 30
0.0
 10
19.917374
 20
11.196537
 30
0.0
  0
SPLINE
  5
1d0
100
AcDbEntity
  8
Layer_1
 62
7
100
AcDbSpline
 70
8
 71
3
 72
8
 73
4
 74
0
 40
0
 40
0
 40
0
 40
0
 40
1
 40
1
 40
1
 40
1
 10
19.917374
 20
11.196537
 30
0.0
 10
19.866320
 20
11.075464
 30
0.0
 10
19.803865
 20
10.960430
 30
0.0
 10
19.731362
 20
10.852762
 30
0.0
  0
SPLINE
  5
1d1
100
AcDbEntity
  8
Layer_1
 62
7
100
AcDbSpline
 70
8
 71
3
 72
8
 73
4
 74
0
 40
0
 40
0
 40
0
 40
0
 40
1
 40
1
 40
1
 40
1
 10
19.731362
 20
10.852762
 30
0.0
 10
19.658831
 20
10.745095
 30
0.0
 10
19.576252
 20
10.644821
 30
0.0
 10
19.484982
 20
10.553268
 30
0.0
  0
SPLINE
  5
1d2
100
AcDbEntity
  8
Layer_1
 62
7
100
AcDbSpline
 70
8
 71
3
 72
8
 73
4
 74
0
 40
0
 40
0
 40
0
 40
0
 40
1
 40
1
 40
1
 40
1
 10
19.484982
 20
10.553268
 30
0.0
 10
19.393711
 20
10.461715
 30
0.0
 10
19.293720
 20
10.378883
 30
0.0
 10
19.186391
 20
10.306126
 30
0.0
  0
SPLINE
  5
1d3
100
AcDbEntity
  8
Layer_1
 62
7
100
AcDbSpline
 70
8
 71
3
 72
8
 73
4
 74
0
 40
0
 40
0
 40
0
 40
0
 40
1
 40
1
 40
1
 40
1
 10
19.186391
 20
10.306126
 30
0.0
 10
19.079033
 20
10.233398
 30
0.0
 10
18.964338
 20
10.170744
 30
0.0
 10
18.843660
 20
10.119549
 30
0.0
  0
SPLINE
  5
1d4
100
AcDbEntity
  8
Layer_1
 62
7
100
AcDbSpline
 70
8
 71
3
 72
8
 73
4
 74
0
 40
0
 40
0
 40
0
 40
0
 40
1
 40
1
 40
1
 40
1
 10
18.843660
 20
10.119549
 30
0.0
 10
18.722956
 20
10.068354
 30
0.0
 10
18.596267
 20
10.028589
 30
0.0
 10
18.464921
 20
10.001637
 30
0.0
  0
SPLINE
  5
1d5
100
AcDbEntity
  8
Layer_1
 62
7
100
AcDbSpline
 70
8
 71
3
 72
8
 73
4
 74
0
 40
0
 40
0
 40
0
 40
0
 40
1
 40
1
 40
1
 40
1
 10
18.464921
 20
10.001637
 30
0.0
 10
18.333574
 20
9.974543
 30
0.0
 10
18.197600
 20
9.960517
 30
0.0
 10
18.058295
 20
9.960517
 30
0.0
  0
SPLINE
  5
1d6
100
AcDbEntity
  8
Layer_1
 62
7
100
AcDbSpline
 70
8
 71
3
 72
8
 73
4
 74
0
 40
0
 40
0
 40
0
 40
0
 40
1
 40
1
 40
1
 40
1
 10
18.058295
 20
9.960517
 30
0.0
 10
17.919018
 20
9.960517
 30
0.0
 10
17.783015
 20
9.974628
 30
0.0
 10
17.651669
 20
10.001637
 30
0.0
  0
SPLINE
  5
1d7
100
AcDbEntity
  8
Layer_1
 62
7
100
AcDbSpline
 70
8
 71
3
 72
8
 73
4
 74
0
 40
0
 40
0
 40
0
 40
0
 40
1
 40
1
 40
1
 40
1
 10
17.651669
 20
10.001637
 30
0.0
 10
17.520323
 20
10.028448
 30
0.0
 10
17.393633
 20
10.068354
 30
0.0
 10
17.272955
 20
10.119549
 30
0.0
  0
SPLINE
  5
1d8
100
AcDbEntity
  8
Layer_1
 62
7
100
AcDbSpline
 70
8
 71
3
 72
8
 73
4
 74
0
 40
0
 40
0
 40
0
 40
0
 40
1
 40
1
 40
1
 40
1
 10
17.272955
 20
10.119549
 30
0.0
 10
17.152249
 20
10.170744
 30
0.0
 10
17.037553
 20
10.233398
 30
0.0
 10
16.930224
 20
10.306126
 30
0.0
  0
SPLINE
  5
1d9
100
AcDbEntity
  8
Layer_1
 62
7
100
AcDbSpline
 70
8
 71
3
 72
8
 73
4
 74
0
 40
0
 40
0
 40
0
 40
0
 40
1
 40
1
 40
1
 40
1
 10
16.930224
 20
10.306126
 30
0.0
 10
16.822867
 20
10.378883
 30
0.0
 10
16.722904
 20
10.461715
 30
0.0
 10
16.631605
 20
10.553268
 30
0.0
  0
SPLINE
  5
1da
100
AcDbEntity
  8
Layer_1
 62
7
100
AcDbSpline
 70
8
 71
3
 72
8
 73
4
 74
0
 40
0
 40
0
 40
0
 40
0
 40
1
 40
1
 40
1
 40
1
 10
16.631605
 20
10.553268
 30
0.0
 10
16.540334
 20
10.644821
 30
0.0
 10
16.457756
 20
10.745095
 30
0.0
 10
16.385253
 20
10.852762
 30
0.0
  0
SPLINE
  5
1db
100
AcDbEntity
  8
Layer_1
 62
7
100
AcDbSpline
 70
8
 71
3
 72
8
 73
4
 74
0
 40
0
 40
0
 40
0
 40
0
 40
1
 40
1
 40
1
 40
1
 10
16.385253
 20
10.852762
 30
0.0
 10
16.312722
 20
10.960430
 30
0.0
 10
16.250266
 20
11.075464
 30
0.0
 10
16.199212
 20
11.196537
 30
0.0
  0
SPLINE
  5
1dc
100
AcDbEntity
  8
Layer_1
 62
7
100
AcDbSpline
 70
8
 71
3
 72
8
 73
4
 74
0
 40
0
 40
0
 40
0
 40
0
 40
1
 40
1
 40
1
 40
1
 10
16.199212
 20
11.196537
 30
0.0
 10
16.148158
 20
11.317582
 30
0.0
 10
16.108534
 20
11.444667
 30
0.0
 10
16.081667
 20
11.576408
 30
0.0
  0
SPLINE
  5
1dd
100
AcDbEntity
  8
Layer_1
 62
7
100
AcDbSpline
 70
8
 71
3
 72
8
 73
4
 74
0
 40
0
 40
0
 40
0
 40
0
 40
1
 40
1
 40
1
 40
1
 10
16.081667
 20
11.576408
 30
0.0
 10
16.054856
 20
11.708150
 30
0.0
 10
16.040660
 20
11.844548
 30
0.0
 10
16.040660
 20
11.984276
 30
0.0
  0
SPLINE
  5
1de
100
AcDbEntity
  8
Layer_1
 62
7
100
AcDbSpline
 70
8
 71
3
 72
8
 73
4
 74
0
 40
0
 40
0
 40
0
 40
0
 40
1
 40
1
 40
1
 40
1
 10
16.040660
 20
11.984276
 30
0.0
 10
16.040660
 20
12.123976
 30
0.0
 10
16.054771
 20
12.260374
 30
0.0
 10
16.081667
 20
12.392115
 30
0.0
  0
SPLINE
  5
1df
100
AcDbEntity
  8
Layer_1
 62
7
100
AcDbSpline
 70
8
 71
3
 72
8
 73
4
 74
0
 40
0
 40
0
 40
0
 40
0
 40
1
 40
1
 40
1
 40
1
 10
16.081667
 20
12.392115
 30
0.0
 10
16.108478
 20
12.523857
 30
0.0
 10
16.148158
 20
12.650941
 30
0.0
 10
16.199212
 20
12.771986
 30
0.0
  0
SPLINE
  5
1e0
100
AcDbEntity
  8
Layer_1
 62
7
100
AcDbSpline
 70
8
 71
3
 72
8
 73
4
 74
0
 40
0
 40
0
 40
0
 40
0
 40
1
 40
1
 40
1
 40
1
 10
16.199212
 20
12.771986
 30
0.0
 10
16.250266
 20
12.893060
 30
0.0
 10
16.312722
 20
13.008094
 30
0.0
 10
16.385253
 20
13.115761
 30
0.0
  0
SPLINE
  5
1e1
100
AcDbEntity
  8
Layer_1
 62
7
100
AcDbSpline
 70
8
 71
3
 72
8
 73
4
 74
0
 40
0
 40
0
 40
0
 40
0
 40
1
 40
1
 40
1
 40
1
 10
16.385253
 20
13.115761
 30
0.0
 10
16.457756
 20
13.223429
 30
0.0
 10
16.540334
 20
13.323703
 30
0.0
 10
16.631605
 20
13.415284
 30
0.0
  0
SPLINE
  5
1e2
100
AcDbEntity
  8
Layer_1
 62
7
100
AcDbSpline
 70
8
 71
3
 72
8
 73
4
 74
0
 40
0
 40
0
 40
0
 40
0
 40
1
 40
1
 40
1
 40
1
 10
16.631605
 20
13.415284
 30
0.0
 10
16.722904
 20
13.506837
 30
0.0
 10
16.822867
 20
13.589641
 30
0.0
 10
16.930224
 20
13.662398
 30
0.0
  0
SPLINE
  5
1e3
100
AcDbEntity
  8
Layer_1
 62
7
100
AcDbSpline
 70
8
 71
3
 72
8
 73
4
 74
0
 40
0
 40
0
 40
0
 40
0
 40
1
 40
1
 40
1
 40
1
 10
16.930224
 20
13.662398
 30
0.0
 10
17.037553
 20
13.735126
 30
0.0
 10
17.152249
 20
13.797780
 30
0.0
 10
17.272955
 20
13.848975
 30
0.0
  0
SPLINE
  5
1e4
100
AcDbEntity
  8
Layer_1
 62
7
100
AcDbSpline
 70
8
 71
3
 72
8
 73
4
 74
0
 40
0
 40
0
 40
0
 40
0
 40
1
 40
1
 40
1
 40
1
 10
17.272955
 20
13.848975
 30
0.0
 10
17.393633
 20
13.900170
 30
0.0
 10
17.520323
 20
13.939935
 30
0.0
 10
17.651669
 20
13.966887
 30
0.0
  0
SPLINE
  5
1e5
100
AcDbEntity
  8
Layer_1
 62
7
100
AcDbSpline
 70
8
 71
3
 72
8
 73
4
 74
0
 40
0
 40
0
 40
0
 40
0
 40
1
 40
1
 40
1
 40
1
 10
17.651669
 20
13.966887
 30
0.0
 10
17.783015
 20
13.993980
 30
0.0
 10
17.919018
 20
14.008007
 30
0.0
 10
18.058295
 20
14.008007
 30
0.0
  0
LWPOLYLINE
  5
1e6
100
AcDbEntity
  8
Layer_1
 62
7
100
AcDbPolyline
 90
2
 70
0
 10
28.058297
 20
14.008007
 30
0.0
 10
28.058297
 20
14.008007
 30
0.0
  0
SPLINE
  5
1e7
100
AcDbEntity
  8
Layer_1
 62
7
100
AcDbSpline
 70
8
 71
3
 72
8
 73
4
 74
0
 40
0
 40
0
 40
0
 40
0
 40
1
 40
1
 40
1
 40
1
 10
48.002396
 20
13.987969
 30
0.0
 10
48.141701
 20
13.987969
 30
0.0
 10
48.277704
 20
13.973858
 30
0.0
 10
48.409022
 20
13.946849
 30
0.0
  0
SPLINE
  5
1e8
100
AcDbEntity
  8
Layer_1
 62
7
100
AcDbSpline
 70
8
 71
3
 72
8
 73
4
 74
0
 40
0
 40
0
 40
0
 40
0
 40
1
 40
1
 40
1
 40
1
 10
48.409022
 20
13.946849
 30
0.0
 10
48.540368
 20
13.919756
 30
0.0
 10
48.667086
 20
13.880132
 30
0.0
 10
48.787764
 20
13.828909
 30
0.0
  0
SPLINE
  5
1e9
100
AcDbEntity
  8
Layer_1
 62
7
100
AcDbSpline
 70
8
 71
3
 72
8
 73
4
 74
0
 40
0
 40
0
 40
0
 40
0
 40
1
 40
1
 40
1
 40
1
 10
48.787764
 20
13.828909
 30
0.0
 10
48.908470
 20
13.777742
 30
0.0
 10
49.023137
 20
13.715088
 30
0.0
 10
49.130495
 20
13.642332
 30
0.0
  0
SPLINE
  5
1ea
100
AcDbEntity
  8
Layer_1
 62
7
100
AcDbSpline
 70
8
 71
3
 72
8
 73
4
 74
0
 40
0
 40
0
 40
0
 40
0
 40
1
 40
1
 40
1
 40
1
 10
49.130495
 20
13.642332
 30
0.0
 10
49.237824
 20
13.569631
 30
0.0
 10
49.337815
 20
13.486799
 30
0.0
 10
49.429086
 20
13.395246
 30
0.0
  0
SPLINE
  5
1eb
100
AcDbEntity
  8
Layer_1
 62
7
100
AcDbSpline
 70
8
 71
3
 72
8
 73
4
 74
0
 40
0
 40
0
 40
0
 40
0
 40
1
 40
1
 40
1
 40
1
 10
49.429086
 20
13.395246
 30
0.0
 10
49.520385
 20
13.303665
 30
0.0
 10
49.602963
 20
13.203363
 30
0.0
 10
49.675466
 20
13.095695
 30
0.0
  0
SPLINE
  5
1ec
100
AcDbEntity
  8
Layer_1
 62
7
100
AcDbSpline
 70
8
 71
3
 72
8
 73
4
 74
0
 40
0
 40
0
 40
0
 40
0
 40
1
 40
1
 40
1
 40
1
 10
49.675466
 20
13.095695
 30
0.0
 10
49.747997
 20
12.988056
 30
0.0
 10
49.810453
 20
12.873022
 30
0.0
 10
49.861478
 20
12.751949
 30
0.0
  0
SPLINE
  5
1ed
100
AcDbEntity
  8
Layer_1
 62
7
100
AcDbSpline
 70
8
 71
3
 72
8
 73
4
 74
0
 40
0
 40
0
 40
0
 40
0
 40
1
 40
1
 40
1
 40
1
 10
49.861478
 20
12.751949
 30
0.0
 10
49.912532
 20
12.630904
 30
0.0
 10
49.952185
 20
12.503847
 30
0.0
 10
49.979052
 20
12.372049
 30
0.0
  0
SPLINE
  5
1ee
100
AcDbEntity
  8
Layer_1
 62
7
100
AcDbSpline
 70
8
 71
3
 72
8
 73
4
 74
0
 40
0
 40
0
 40
0
 40
0
 40
1
 40
1
 40
1
 40
1
 10
49.979052
 20
12.372049
 30
0.0
 10
50.005863
 20
12.240336
 30
0.0
 10
50.020059
 20
12.103910
 30
0.0
 10
50.020059
 20
11.964238
 30
0.0
  0
SPLINE
  5
1ef
100
AcDbEntity
  8
Layer_1
 62
7
100
AcDbSpline
 70
8
 71
3
 72
8
 73
4
 74
0
 40
0
 40
0
 40
0
 40
0
 40
1
 40
1
 40
1
 40
1
 10
50.020059
 20
11.964238
 30
0.0
 10
50.020059
 20
11.824482
 30
0.0
 10
50.005948
 20
11.688112
 30
0.0
 10
49.979052
 20
11.556342
 30
0.0
  0
SPLINE
  5
1f0
100
AcDbEntity
  8
Layer_1
 62
7
100
AcDbSpline
 70
8
 71
3
 72
8
 73
4
 74
0
 40
0
 40
0
 40
0
 40
0
 40
1
 40
1
 40
1
 40
1
 10
49.979052
 20
11.556342
 30
0.0
 10
49.952241
 20
11.424601
 30
0.0
 10
49.912532
 20
11.297545
 30
0.0
 10
49.861478
 20
11.176471
 30
0.0
  0
SPLINE
  5
1f1
100
AcDbEntity
  8
Layer_1
 62
7
100
AcDbSpline
 70
8
 71
3
 72
8
 73
4
 74
0
 40
0
 40
0
 40
0
 40
0
 40
1
 40
1
 40
1
 40
1
 10
49.861478
 20
11.176471
 30
0.0
 10
49.810453
 20
11.055454
 30
0.0
 10
49.747997
 20
10.940392
 30
0.0
 10
49.675466
 20
10.832696
 30
0.0
  0
SPLINE
  5
1f2
100
AcDbEntity
  8
Layer_1
 62
7
100
AcDbSpline
 70
8
 71
3
 72
8
 73
4
 74
0
 40
0
 40
0
 40
0
 40
0
 40
1
 40
1
 40
1
 40
1
 10
49.675466
 20
10.832696
 30
0.0
 10
49.602963
 20
10.725057
 30
0.0
 10
49.520385
 20
10.624755
 30
0.0
 10
49.429086
 20
10.533202
 30
0.0
  0
SPLINE
  5
1f3
100
AcDbEntity
  8
Layer_1
 62
7
100
AcDbSpline
 70
8
 71
3
 72
8
 73
4
 74
0
 40
0
 40
0
 40
0
 40
0
 40
1
 40
1
 40
1
 40
1
 10
49.429086
 20
10.533202
 30
0.0
 10
49.337815
 20
10.441678
 30
0.0
 10
49.237824
 20
10.358845
 30
0.0
 10
49.130495
 20
10.286088
 30
0.0
  0
SPLINE
  5
1f4
100
AcDbEntity
  8
Layer_1
 62
7
100
AcDbSpline
 70
8
 71
3
 72
8
 73
4
 74
0
 40
0
 40
0
 40
0
 40
0
 40
1
 40
1
 40
1
 40
1
 10
49.130495
 20
10.286088
 30
0.0
 10
49.023137
 20
10.213360
 30
0.0
 10
48.908470
 20
10.150735
 30
0.0
 10
48.787764
 20
10.099483
 30
0.0
  0
SPLINE
  5
1f5
100
AcDbEntity
  8
Layer_1
 62
7
100
AcDbSpline
 70
8
 71
3
 72
8
 73
4
 74
0
 40
0
 40
0
 40
0
 40
0
 40
1
 40
1
 40
1
 40
1
 10
48.787764
 20
10.099483
 30
0.0
 10
48.667086
 20
10.048288
 30
0.0
 10
48.540368
 20
10.008523
 30
0.0
 10
48.409022
 20
9.981571
 30
0.0
  0
SPLINE
  5
1f6
100
AcDbEntity
  8
Layer_1
 62
7
100
AcDbSpline
 70
8
 71
3
 72
8
 73
4
 74
0
 40
0
 40
0
 40
0
 40
0
 40
1
 40
1
 40
1
 40
1
 10
48.409022
 20
9.981571
 30
0.0
 10
48.277704
 20
9.954760
 30
0.0
 10
48.141701
 20
9.940451
 30
0.0
 10
48.002396
 20
9.940451
 30
0.0
  0
SPLINE
  5
1f7
100
AcDbEntity
  8
Layer_1
 62
7
100
AcDbSpline
 70
8
 71
3
 72
8
 73
4
 74
0
 40
0
 40
0
 40
0
 40
0
 40
1
 40
1
 40
1
 40
1
 10
48.002396
 20
9.940451
 30
0.0
 10
47.863119
 20
9.940451
 30
0.0
 10
47.727116
 20
9.954562
 30
0.0
 10
47.595798
 20
9.981571
 30
0.0
  0
SPLINE
  5
1f8
100
AcDbEntity
  8
Layer_1
 62
7
100
AcDbSpline
 70
8
 71
3
 72
8
 73
4
 74
0
 40
0
 40
0
 40
0
 40
0
 40
1
 40
1
 40
1
 40
1
 10
47.595798
 20
9.981571
 30
0.0
 10
47.464452
 20
10.008664
 30
0.0
 10
47.337734
 20
10.048288
 30
0.0
 10
47.217056
 20
10.099483
 30
0.0
  0
SPLINE
  5
1f9
100
AcDbEntity
  8
Layer_1
 62
7
100
AcDbSpline
 70
8
 71
3
 72
8
 73
4
 74
0
 40
0
 40
0
 40
0
 40
0
 40
1
 40
1
 40
1
 40
1
 10
47.217056
 20
10.099483
 30
0.0
 10
47.096350
 20
10.150735
 30
0.0
 10
46.981655
 20
10.213360
 30
0.0
 10
46.874326
 20
10.286088
 30
0.0
  0
SPLINE
  5
1fa
100
AcDbEntity
  8
Layer_1
 62
7
100
AcDbSpline
 70
8
 71
3
 72
8
 73
4
 74
0
 40
0
 40
0
 40
0
 40
0
 40
1
 40
1
 40
1
 40
1
 10
46.874326
 20
10.286088
 30
0.0
 10
46.766996
 20
10.358845
 30
0.0
 10
46.667005
 20
10.441678
 30
0.0
 10
46.575734
 20
10.533202
 30
0.0
  0
SPLINE
  5
1fb
100
AcDbEntity
  8
Layer_1
 62
7
100
AcDbSpline
 70
8
 71
3
 72
8
 73
4
 74
0
 40
0
 40
0
 40
0
 40
0
 40
1
 40
1
 40
1
 40
1
 10
46.575734
 20
10.533202
 30
0.0
 10
46.484436
 20
10.624755
 30
0.0
 10
46.401857
 20
10.725057
 30
0.0
 10
46.329354
 20
10.832696
 30
0.0
  0
SPLINE
  5
1fc
100
AcDbEntity
  8
Layer_1
 62
7
100
AcDbSpline
 70
8
 71
3
 72
8
 73
4
 74
0
 40
0
 40
0
 40
0
 40
0
 40
1
 40
1
 40
1
 40
1
 10
46.329354
 20
10.832696
 30
0.0
 10
46.256823
 20
10.940392
 30
0.0
 10
46.194368
 20
11.055454
 30
0.0
 10
46.143314
 20
11.176471
 30
0.0
  0
SPLINE
  5
1fd
100
AcDbEntity
  8
Layer_1
 62
7
100
AcDbSpline
 70
8
 71
3
 72
8
 73
4
 74
0
 40
0
 40
0
 40
0
 40
0
 40
1
 40
1
 40
1
 40
1
 10
46.143314
 20
11.176471
 30
0.0
 10
46.092288
 20
11.297545
 30
0.0
 10
46.052636
 20
11.424601
 30
0.0
 10
46.025768
 20
11.556342
 30
0.0
  0
SPLINE
  5
1fe
100
AcDbEntity
  8
Layer_1
 62
7
100
AcDbSpline
 70
8
 71
3
 72
8
 73
4
 74
0
 40
0
 40
0
 40
0
 40
0
 40
1
 40
1
 40
1
 40
1
 10
46.025768
 20
11.556342
 30
0.0
 10
45.998957
 20
11.688112
 30
0.0
 10
45.984761
 20
11.824510
 30
0.0
 10
45.984761
 20
11.964238
 30
0.0
  0
SPLINE
  5
1ff
100
AcDbEntity
  8
Layer_1
 62
7
100
AcDbSpline
 70
8
 71
3
 72
8
 73
4
 74
0
 40
0
 40
0
 40
0
 40
0
 40
1
 40
1
 40
1
 40
1
 10
45.984761
 20
11.964238
 30
0.0
 10
45.984761
 20
12.103910
 30
0.0
 10
45.998872
 20
12.240336
 30
0.0
 10
46.025768
 20
12.372049
 30
0.0
  0
SPLINE
  5
200
100
AcDbEntity
  8
Layer_1
 62
7
100
AcDbSpline
 70
8
 71
3
 72
8
 73
4
 74
0
 40
0
 40
0
 40
0
 40
0
 40
1
 40
1
 40
1
 40
1
 10
46.025768
 20
12.372049
 30
0.0
 10
46.052579
 20
12.503791
 30
0.0
 10
46.092288
 20
12.630904
 30
0.0
 10
46.143314
 20
12.751949
 30
0.0
  0
SPLINE
  5
201
100
AcDbEntity
  8
Layer_1
 62
7
100
AcDbSpline
 70
8
 71
3
 72
8
 73
4
 74
0
 40
0
 40
0
 40
0
 40
0
 40
1
 40
1
 40
1
 40
1
 10
46.143314
 20
12.751949
 30
0.0
 10
46.194368
 20
12.873022
 30
0.0
 10
46.256823
 20
12.988056
 30
0.0
 10
46.329354
 20
13.095695
 30
0.0
  0
SPLINE
  5
202
100
AcDbEntity
  8
Layer_1
 62
7
100
AcDbSpline
 70
8
 71
3
 72
8
 73
4
 74
0
 40
0
 40
0
 40
0
 40
0
 40
1
 40
1
 40
1
 40
1
 10
46.329354
 20
13.095695
 30
0.0
 10
46.401857
 20
13.203363
 30
0.0
 10
46.484436
 20
13.303665
 30
0.0
 10
46.575734
 20
13.395246
 30
0.0
  0
SPLINE
  5
203
100
AcDbEntity
  8
Layer_1
 62
7
100
AcDbSpline
 70
8
 71
3
 72
8
 73
4
 74
0
 40
0
 40
0
 40
0
 40
0
 40
1
 40
1
 40
1
 40
1
 10
46.575734
 20
13.395246
 30
0.0
 10
46.667005
 20
13.486799
 30
0.0
 10
46.766996
 20
13.569631
 30
0.0
 10
46.874326
 20
13.642332
 30
0.0
  0
SPLINE
  5
204
100
AcDbEntity
  8
Layer_1
 62
7
100
AcDbSpline
 70
8
 71
3
 72
8
 73
4
 74
0
 40
0
 40
0
 40
0
 40
0
 40
1
 40
1
 40
1
 40
1
 10
46.874326
 20
13.642332
 30
0.0
 10
46.981655
 20
13.715088
 30
0.0
 10
47.096350
 20
13.777742
 30
0.0
 10
47.217056
 20
13.828909
 30
0.0
  0
SPLINE
  5
205
100
AcDbEntity
  8
Layer_1
 62
7
100
AcDbSpline
 70
8
 71
3
 72
8
 73
4
 74
0
 40
0
 40
0
 40
0
 40
0
 40
1
 40
1
 40
1
 40
1
 10
47.217056
 20
13.828909
 30
0.0
 10
47.337734
 20
13.880132
 30
0.0
 10
47.464452
 20
13.919869
 30
0.0
 10
47.595798
 20
13.946849
 30
0.0
  0
SPLINE
  5
206
100
AcDbEntity
  8
Layer_1
 62
7
100
AcDbSpline
 70
8
 71
3
 72
8
 73
4
 74
0
 40
0
 40
0
 40
0
 40
0
 40
1
 40
1
 40
1
 40
1
 10
47.595798
 20
13.946849
 30
0.0
 10
47.727116
 20
13.973943
 30
0.0
 10
47.863119
 20
13.987969
 30
0.0
 10
48.002396
 20
13.987969
 30
0.0
  0
LWPOLYLINE
  5
207
100
AcDbEntity
  8
Layer_1
 62
7
100
AcDbPolyline
 90
2
 70
0
 10
18.058295
 20
14.008007
 30
0.0
 10
18.058295
 20
14.008007
 30
0.0
  0
SPLINE
  5
208
100
AcDbEntity
  8
Layer_1
 62
7
100
AcDbSpline
 70
8
 71
3
 72
8
 73
4
 74
0
 40
0
 40
0
 40
0
 40
0
 40
1
 40
1
 40
1
 40
1
 10
45.956166
 20
41.982339
 30
0.0
 10
45.956166
 20
42.121644
 30
0.0
 10
45.970277
 20
42.257647
 30
0.0
 10
45.997286
 20
42.388965
 30
0.0
  0
SPLINE
  5
209
100
AcDbEntity
  8
Layer_1
 62
7
100
AcDbSpline
 70
8
 71
3
 72
8
 73
4
 74
0
 40
0
 40
0
 40
0
 40
0
 40
1
 40
1
 40
1
 40
1
 10
45.997286
 20
42.388965
 30
0.0
 10
46.024379
 20
42.520311
 30
0.0
 10
46.064003
 20
42.647029
 30
0.0
 10
46.115227
 20
42.767707
 30
0.0
  0
SPLINE
  5
20a
100
AcDbEntity
  8
Layer_1
 62
7
100
AcDbSpline
 70
8
 71
3
 72
8
 73
4
 74
0
 40
0
 40
0
 40
0
 40
0
 40
1
 40
1
 40
1
 40
1
 10
46.115227
 20
42.767707
 30
0.0
 10
46.166422
 20
42.888414
 30
0.0
 10
46.229075
 20
43.003081
 30
0.0
 10
46.301804
 20
43.110438
 30
0.0
  0
SPLINE
  5
20b
100
AcDbEntity
  8
Layer_1
 62
7
100
AcDbSpline
 70
8
 71
3
 72
8
 73
4
 74
0
 40
0
 40
0
 40
0
 40
0
 40
1
 40
1
 40
1
 40
1
 10
46.301804
 20
43.110438
 30
0.0
 10
46.374533
 20
43.217767
 30
0.0
 10
46.457365
 20
43.317758
 30
0.0
 10
46.548918
 20
43.409029
 30
0.0
  0
SPLINE
  5
20c
100
AcDbEntity
  8
Layer_1
 62
7
100
AcDbSpline
 70
8
 71
3
 72
8
 73
4
 74
0
 40
0
 40
0
 40
0
 40
0
 40
1
 40
1
 40
1
 40
1
 10
46.548918
 20
43.409029
 30
0.0
 10
46.640471
 20
43.500328
 30
0.0
 10
46.740772
 20
43.582906
 30
0.0
 10
46.848440
 20
43.655409
 30
0.0
  0
SPLINE
  5
20d
100
AcDbEntity
  8
Layer_1
 62
7
100
AcDbSpline
 70
8
 71
3
 72
8
 73
4
 74
0
 40
0
 40
0
 40
0
 40
0
 40
1
 40
1
 40
1
 40
1
 10
46.848440
 20
43.655409
 30
0.0
 10
46.956108
 20
43.727940
 30
0.0
 10
47.071142
 20
43.790396
 30
0.0
 10
47.192187
 20
43.841422
 30
0.0
  0
SPLINE
  5
20e
100
AcDbEntity
  8
Layer_1
 62
7
100
AcDbSpline
 70
8
 71
3
 72
8
 73
4
 74
0
 40
0
 40
0
 40
0
 40
0
 40
1
 40
1
 40
1
 40
1
 10
47.192187
 20
43.841422
 30
0.0
 10
47.313260
 20
43.892476
 30
0.0
 10
47.440317
 20
43.932128
 30
0.0
 10
47.572086
 20
43.958995
 30
0.0
  0
SPLINE
  5
20f
100
AcDbEntity
  8
Layer_1
 62
7
100
AcDbSpline
 70
8
 71
3
 72
8
 73
4
 74
0
 40
0
 40
0
 40
0
 40
0
 40
1
 40
1
 40
1
 40
1
 10
47.572086
 20
43.958995
 30
0.0
 10
47.703827
 20
43.985807
 30
0.0
 10
47.840225
 20
44.000002
 30
0.0
 10
47.979925
 20
44.000002
 30
0.0
  0
SPLINE
  5
210
100
AcDbEntity
  8
Layer_1
 62
7
100
AcDbSpline
 70
8
 71
3
 72
8
 73
4
 74
0
 40
0
 40
0
 40
0
 40
0
 40
1
 40
1
 40
1
 40
1
 10
47.979925
 20
44.000002
 30
0.0
 10
48.119654
 20
44.000002
 30
0.0
 10
48.256052
 20
43.985891
 30
0.0
 10
48.387793
 20
43.958995
 30
0.0
  0
SPLINE
  5
211
100
AcDbEntity
  8
Layer_1
 62
7
100
AcDbSpline
 70
8
 71
3
 72
8
 73
4
 74
0
 40
0
 40
0
 40
0
 40
0
 40
1
 40
1
 40
1
 40
1
 10
48.387793
 20
43.958995
 30
0.0
 10
48.519534
 20
43.932184
 30
0.0
 10
48.646619
 20
43.892476
 30
0.0
 10
48.767664
 20
43.841422
 30
0.0
  0
SPLINE
  5
212
100
AcDbEntity
  8
Layer_1
 62
7
100
AcDbSpline
 70
8
 71
3
 72
8
 73
4
 74
0
 40
0
 40
0
 40
0
 40
0
 40
1
 40
1
 40
1
 40
1
 10
48.767664
 20
43.841422
 30
0.0
 10
48.888709
 20
43.790396
 30
0.0
 10
49.003771
 20
43.727940
 30
0.0
 10
49.111439
 20
43.655409
 30
0.0
  0
SPLINE
  5
213
100
AcDbEntity
  8
Layer_1
 62
7
100
AcDbSpline
 70
8
 71
3
 72
8
 73
4
 74
0
 40
0
 40
0
 40
0
 40
0
 40
1
 40
1
 40
1
 40
1
 10
49.111439
 20
43.655409
 30
0.0
 10
49.219079
 20
43.582906
 30
0.0
 10
49.319380
 20
43.500328
 30
0.0
 10
49.410933
 20
43.409029
 30
0.0
  0
SPLINE
  5
214
100
AcDbEntity
  8
Layer_1
 62
7
100
AcDbSpline
 70
8
 71
3
 72
8
 73
4
 74
0
 40
0
 40
0
 40
0
 40
0
 40
1
 40
1
 40
1
 40
1
 10
49.410933
 20
43.409029
 30
0.0
 10
49.502486
 20
43.317758
 30
0.0
 10
49.585318
 20
43.217767
 30
0.0
 10
49.658047
 20
43.110438
 30
0.0
  0
SPLINE
  5
215
100
AcDbEntity
  8
Layer_1
 62
7
100
AcDbSpline
 70
8
 71
3
 72
8
 73
4
 74
0
 40
0
 40
0
 40
0
 40
0
 40
1
 40
1
 40
1
 40
1
 10
49.658047
 20
43.110438
 30
0.0
 10
49.730804
 20
43.003081
 30
0.0
 10
49.793429
 20
42.888414
 30
0.0
 10
49.844652
 20
42.767707
 30
0.0
  0
SPLINE
  5
216
100
AcDbEntity
  8
Layer_1
 62
7
100
AcDbSpline
 70
8
 71
3
 72
8
 73
4
 74
0
 40
0
 40
0
 40
0
 40
0
 40
1
 40
1
 40
1
 40
1
 10
49.844652
 20
42.767707
 30
0.0
 10
49.895847
 20
42.647029
 30
0.0
 10
49.935613
 20
42.520311
 30
0.0
 10
49.962565
 20
42.388965
 30
0.0
  0
SPLINE
  5
217
100
AcDbEntity
  8
Layer_1
 62
7
100
AcDbSpline
 70
8
 71
3
 72
8
 73
4
 74
0
 40
0
 40
0
 40
0
 40
0
 40
1
 40
1
 40
1
 40
1
 10
49.962565
 20
42.388965
 30
0.0
 10
49.989376
 20
42.257647
 30
0.0
 10
50.003685
 20
42.121644
 30
0.0
 10
50.003685
 20
41.982339
 30
0.0
  0
SPLINE
  5
218
100
AcDbEntity
  8
Layer_1
 62
7
100
AcDbSpline
 70
8
 71
3
 72
8
 73
4
 74
0
 40
0
 40
0
 40
0
 40
0
 40
1
 40
1
 40
1
 40
1
 10
50.003685
 20
41.982339
 30
0.0
 10
50.003685
 20
41.843063
 30
0.0
 10
49.989573
 20
41.707060
 30
0.0
 10
49.962565
 20
41.575742
 30
0.0
  0
SPLINE
  5
219
100
AcDbEntity
  8
Layer_1
 62
7
100
AcDbSpline
 70
8
 71
3
 72
8
 73
4
 74
0
 40
0
 40
0
 40
0
 40
0
 40
1
 40
1
 40
1
 40
1
 10
49.962565
 20
41.575742
 30
0.0
 10
49.935471
 20
41.444395
 30
0.0
 10
49.895847
 20
41.317678
 30
0.0
 10
49.844652
 20
41.196999
 30
0.0
  0
SPLINE
  5
21a
100
AcDbEntity
  8
Layer_1
 62
7
100
AcDbSpline
 70
8
 71
3
 72
8
 73
4
 74
0
 40
0
 40
0
 40
0
 40
0
 40
1
 40
1
 40
1
 40
1
 10
49.844652
 20
41.196999
 30
0.0
 10
49.793429
 20
41.076293
 30
0.0
 10
49.730804
 20
40.961598
 30
0.0
 10
49.658047
 20
40.854269
 30
0.0
  0
SPLINE
  5
21b
100
AcDbEntity
  8
Layer_1
 62
7
100
AcDbSpline
 70
8
 71
3
 72
8
 73
4
 74
0
 40
0
 40
0
 40
0
 40
0
 40
1
 40
1
 40
1
 40
1
 10
49.658047
 20
40.854269
 30
0.0
 10
49.585318
 20
40.746940
 30
0.0
 10
49.502486
 20
40.646948
 30
0.0
 10
49.410933
 20
40.555678
 30
0.0
  0
SPLINE
  5
21c
100
AcDbEntity
  8
Layer_1
 62
7
100
AcDbSpline
 70
8
 71
3
 72
8
 73
4
 74
0
 40
0
 40
0
 40
0
 40
0
 40
1
 40
1
 40
1
 40
1
 10
49.410933
 20
40.555678
 30
0.0
 10
49.319380
 20
40.464379
 30
0.0
 10
49.219079
 20
40.381801
 30
0.0
 10
49.111439
 20
40.309298
 30
0.0
  0
SPLINE
  5
21d
100
AcDbEntity
  8
Layer_1
 62
7
100
AcDbSpline
 70
8
 71
3
 72
8
 73
4
 74
0
 40
0
 40
0
 40
0
 40
0
 40
1
 40
1
 40
1
 40
1
 10
49.111439
 20
40.309298
 30
0.0
 10
49.003771
 20
40.236767
 30
0.0
 10
48.888709
 20
40.174311
 30
0.0
 10
48.767664
 20
40.123257
 30
0.0
  0
SPLINE
  5
21e
100
AcDbEntity
  8
Layer_1
 62
7
100
AcDbSpline
 70
8
 71
3
 72
8
 73
4
 74
0
 40
0
 40
0
 40
0
 40
0
 40
1
 40
1
 40
1
 40
1
 10
48.767664
 20
40.123257
 30
0.0
 10
48.646619
 20
40.072231
 30
0.0
 10
48.519534
 20
40.032579
 30
0.0
 10
48.387793
 20
40.005711
 30
0.0
  0
SPLINE
  5
21f
100
AcDbEntity
  8
Layer_1
 62
7
100
AcDbSpline
 70
8
 71
3
 72
8
 73
4
 74
0
 40
0
 40
0
 40
0
 40
0
 40
1
 40
1
 40
1
 40
1
 10
48.387793
 20
40.005711
 30
0.0
 10
48.256052
 20
39.978900
 30
0.0
 10
48.119625
 20
39.964704
 30
0.0
 10
47.979925
 20
39.964704
 30
0.0
  0
SPLINE
  5
220
100
AcDbEntity
  8
Layer_1
 62
7
100
AcDbSpline
 70
8
 71
3
 72
8
 73
4
 74
0
 40
0
 40
0
 40
0
 40
0
 40
1
 40
1
 40
1
 40
1
 10
47.979925
 20
39.964704
 30
0.0
 10
47.840225
 20
39.964704
 30
0.0
 10
47.703827
 20
39.978815
 30
0.0
 10
47.572086
 20
40.005711
 30
0.0
  0
SPLINE
  5
221
100
AcDbEntity
  8
Layer_1
 62
7
100
AcDbSpline
 70
8
 71
3
 72
8
 73
4
 74
0
 40
0
 40
0
 40
0
 40
0
 40
1
 40
1
 40
1
 40
1
 10
47.572086
 20
40.005711
 30
0.0
 10
47.440345
 20
40.032522
 30
0.0
 10
47.313260
 20
40.072231
 30
0.0
 10
47.192187
 20
40.123257
 30
0.0
  0
SPLINE
  5
222
100
AcDbEntity
  8
Layer_1
 62
7
100
AcDbSpline
 70
8
 71
3
 72
8
 73
4
 74
0
 40
0
 40
0
 40
0
 40
0
 40
1
 40
1
 40
1
 40
1
 10
47.192187
 20
40.123257
 30
0.0
 10
47.071142
 20
40.174311
 30
0.0
 10
46.956108
 20
40.236767
 30
0.0
 10
46.848440
 20
40.309298
 30
0.0
  0
SPLINE
  5
223
100
AcDbEntity
  8
Layer_1
 62
7
100
AcDbSpline
 70
8
 71
3
 72
8
 73
4
 74
0
 40
0
 40
0
 40
0
 40
0
 40
1
 40
1
 40
1
 40
1
 10
46.848440
 20
40.309298
 30
0.0
 10
46.740772
 20
40.381801
 30
0.0
 10
46.640471
 20
40.464379
 30
0.0
 10
46.548918
 20
40.555678
 30
0.0
  0
SPLINE
  5
224
100
AcDbEntity
  8
Layer_1
 62
7
100
AcDbSpline
 70
8
 71
3
 72
8
 73
4
 74
0
 40
0
 40
0
 40
0
 40
0
 40
1
 40
1
 40
1
 40
1
 10
46.548918
 20
40.555678
 30
0.0
 10
46.457365
 20
40.646948
 30
0.0
 10
46.374533
 20
40.746940
 30
0.0
 10
46.301804
 20
40.854269
 30
0.0
  0
SPLINE
  5
225
100
AcDbEntity
  8
Layer_1
 62
7
100
AcDbSpline
 70
8
 71
3
 72
8
 73
4
 74
0
 40
0
 40
0
 40
0
 40
0
 40
1
 40
1
 40
1
 40
1
 10
46.301804
 20
40.854269
 30
0.0
 10
46.229075
 20
40.961598
 30
0.0
 10
46.166422
 20
41.076293
 30
0.0
 10
46.115227
 20
41.196999
 30
0.0
  0
SPLINE
  5
226
100
AcDbEntity
  8
Layer_1
 62
7
100
AcDbSpline
 70
8
 71
3
 72
8
 73
4
 74
0
 40
0
 40
0
 40
0
 40
0
 40
1
 40
1
 40
1
 40
1
 10
46.115227
 20
41.196999
 30
0.0
 10
46.064003
 20
41.317678
 30
0.0
 10
46.024267
 20
41.444395
 30
0.0
 10
45.997286
 20
41.575742
 30
0.0
  0
SPLINE
  5
227
100
AcDbEntity
  8
Layer_1
 62
7
100
AcDbSpline
 70
8
 71
3
 72
8
 73
4
 74
0
 40
0
 40
0
 40
0
 40
0
 40
1
 40
1
 40
1
 40
1
 10
45.997286
 20
41.575742
 30
0.0
 10
45.970193
 20
41.707060
 30
0.0
 10
45.956166
 20
41.843063
 30
0.0
 10
45.956166
 20
41.982339
 30
0.0
  0
LWPOLYLINE
  5
228
100
AcDbEntity
  8
Layer_1
 62
7
100
AcDbPolyline
 90
2
 70
0
 10
48.002396
 20
13.987969
 30
0.0
 10
48.002396
 20
13.987969
 30
0.0
  0
SPLINE
  5
229
100
AcDbEntity
  8
Layer_1
 62
7
100
AcDbSpline
 70
8
 71
3
 72
8
 73
4
 74
0
 40
0
 40
0
 40
0
 40
0
 40
1
 40
1
 40
1
 40
1
 10
45.956183
 20
31.982368
 30
0.0
 10
45.956183
 20
32.121644
 30
0.0
 10
45.970294
 20
32.257647
 30
0.0
 10
45.997303
 20
32.388993
 30
0.0
  0
SPLINE
  5
22a
100
AcDbEntity
  8
Layer_1
 62
7
100
AcDbSpline
 70
8
 71
3
 72
8
 73
4
 74
0
 40
0
 40
0
 40
0
 40
0
 40
1
 40
1
 40
1
 40
1
 10
45.997303
 20
32.388993
 30
0.0
 10
46.024114
 20
32.520340
 30
0.0
 10
46.064020
 20
32.647029
 30
0.0
 10
46.115216
 20
32.767707
 30
0.0
  0
SPLINE
  5
22b
100
AcDbEntity
  8
Layer_1
 62
7
100
AcDbSpline
 70
8
 71
3
 72
8
 73
4
 74
0
 40
0
 40
0
 40
0
 40
0
 40
1
 40
1
 40
1
 40
1
 10
46.115216
 20
32.767707
 30
0.0
 10
46.166411
 20
32.888414
 30
0.0
 10
46.229064
 20
33.003109
 30
0.0
 10
46.301793
 20
33.110438
 30
0.0
  0
SPLINE
  5
22c
100
AcDbEntity
  8
Layer_1
 62
7
100
AcDbSpline
 70
8
 71
3
 72
8
 73
4
 74
0
 40
0
 40
0
 40
0
 40
0
 40
1
 40
1
 40
1
 40
1
 10
46.301793
 20
33.110438
 30
0.0
 10
46.374550
 20
33.217767
 30
0.0
 10
46.457354
 20
33.317759
 30
0.0
 10
46.548906
 20
33.409057
 30
0.0
  0
SPLINE
  5
22d
100
AcDbEntity
  8
Layer_1
 62
7
100
AcDbSpline
 70
8
 71
3
 72
8
 73
4
 74
0
 40
0
 40
0
 40
0
 40
0
 40
1
 40
1
 40
1
 40
1
 10
46.548906
 20
33.409057
 30
0.0
 10
46.640488
 20
33.500328
 30
0.0
 10
46.740761
 20
33.582906
 30
0.0
 10
46.848429
 20
33.655409
 30
0.0
  0
SPLINE
  5
22e
100
AcDbEntity
  8
Layer_1
 62
7
100
AcDbSpline
 70
8
 71
3
 72
8
 73
4
 74
0
 40
0
 40
0
 40
0
 40
0
 40
1
 40
1
 40
1
 40
1
 10
46.848429
 20
33.655409
 30
0.0
 10
46.956097
 20
33.727940
 30
0.0
 10
47.071130
 20
33.790396
 30
0.0
 10
47.192204
 20
33.841450
 30
0.0
  0
SPLINE
  5
22f
100
AcDbEntity
  8
Layer_1
 62
7
100
AcDbSpline
 70
8
 71
3
 72
8
 73
4
 74
0
 40
0
 40
0
 40
0
 40
0
 40
1
 40
1
 40
1
 40
1
 10
47.192204
 20
33.841450
 30
0.0
 10
47.313249
 20
33.892504
 30
0.0
 10
47.440334
 20
33.932128
 30
0.0
 10
47.572075
 20
33.958996
 30
0.0
  0
SPLINE
  5
230
100
AcDbEntity
  8
Layer_1
 62
7
100
AcDbSpline
 70
8
 71
3
 72
8
 73
4
 74
0
 40
0
 40
0
 40
0
 40
0
 40
1
 40
1
 40
1
 40
1
 10
47.572075
 20
33.958996
 30
0.0
 10
47.703816
 20
33.985807
 30
0.0
 10
47.840214
 20
34.000003
 30
0.0
 10
47.979914
 20
34.000003
 30
0.0
  0
SPLINE
  5
231
100
AcDbEntity
  8
Layer_1
 62
7
100
AcDbSpline
 70
8
 71
3
 72
8
 73
4
 74
0
 40
0
 40
0
 40
0
 40
0
 40
1
 40
1
 40
1
 40
1
 10
47.979914
 20
34.000003
 30
0.0
 10
48.119642
 20
34.000003
 30
0.0
 10
48.256040
 20
33.985891
 30
0.0
 10
48.387782
 20
33.958996
 30
0.0
  0
SPLINE
  5
232
100
AcDbEntity
  8
Layer_1
 62
7
100
AcDbSpline
 70
8
 71
3
 72
8
 73
4
 74
0
 40
0
 40
0
 40
0
 40
0
 40
1
 40
1
 40
1
 40
1
 10
48.387782
 20
33.958996
 30
0.0
 10
48.519523
 20
33.932185
 30
0.0
 10
48.646608
 20
33.892504
 30
0.0
 10
48.767653
 20
33.841450
 30
0.0
  0
SPLINE
  5
233
100
AcDbEntity
  8
Layer_1
 62
7
100
AcDbSpline
 70
8
 71
3
 72
8
 73
4
 74
0
 40
0
 40
0
 40
0
 40
0
 40
1
 40
1
 40
1
 40
1
 10
48.767653
 20
33.841450
 30
0.0
 10
48.888726
 20
33.790396
 30
0.0
 10
49.003760
 20
33.727940
 30
0.0
 10
49.111428
 20
33.655409
 30
0.0
  0
SPLINE
  5
234
100
AcDbEntity
  8
Layer_1
 62
7
100
AcDbSpline
 70
8
 71
3
 72
8
 73
4
 74
0
 40
0
 40
0
 40
0
 40
0
 40
1
 40
1
 40
1
 40
1
 10
49.111428
 20
33.655409
 30
0.0
 10
49.219096
 20
33.582906
 30
0.0
 10
49.319369
 20
33.500328
 30
0.0
 10
49.410922
 20
33.409057
 30
0.0
  0
SPLINE
  5
235
100
AcDbEntity
  8
Layer_1
 62
7
100
AcDbSpline
 70
8
 71
3
 72
8
 73
4
 74
0
 40
0
 40
0
 40
0
 40
0
 40
1
 40
1
 40
1
 40
1
 10
49.410922
 20
33.409057
 30
0.0
 10
49.502475
 20
33.317759
 30
0.0
 10
49.585307
 20
33.217767
 30
0.0
 10
49.658064
 20
33.110438
 30
0.0
  0
SPLINE
  5
236
100
AcDbEntity
  8
Layer_1
 62
7
100
AcDbSpline
 70
8
 71
3
 72
8
 73
4
 74
0
 40
0
 40
0
 40
0
 40
0
 40
1
 40
1
 40
1
 40
1
 10
49.658064
 20
33.110438
 30
0.0
 10
49.730793
 20
33.003109
 30
0.0
 10
49.793446
 20
32.888414
 30
0.0
 10
49.844641
 20
32.767707
 30
0.0
  0
SPLINE
  5
237
100
AcDbEntity
  8
Layer_1
 62
7
100
AcDbSpline
 70
8
 71
3
 72
8
 73
4
 74
0
 40
0
 40
0
 40
0
 40
0
 40
1
 40
1
 40
1
 40
1
 10
49.844641
 20
32.767707
 30
0.0
 10
49.895836
 20
32.647029
 30
0.0
 10
49.935601
 20
32.520340
 30
0.0
 10
49.962554
 20
32.388993
 30
0.0
  0
SPLINE
  5
238
100
AcDbEntity
  8
Layer_1
 62
7
100
AcDbSpline
 70
8
 71
3
 72
8
 73
4
 74
0
 40
0
 40
0
 40
0
 40
0
 40
1
 40
1
 40
1
 40
1
 10
49.962554
 20
32.388993
 30
0.0
 10
49.989647
 20
32.257647
 30
0.0
 10
50.003673
 20
32.121644
 30
0.0
 10
50.003673
 20
31.982368
 30
0.0
  0
SPLINE
  5
239
100
AcDbEntity
  8
Layer_1
 62
7
100
AcDbSpline
 70
8
 71
3
 72
8
 73
4
 74
0
 40
0
 40
0
 40
0
 40
0
 40
1
 40
1
 40
1
 40
1
 10
50.003673
 20
31.982368
 30
0.0
 10
50.003673
 20
31.843063
 30
0.0
 10
49.989562
 20
31.707088
 30
0.0
 10
49.962554
 20
31.575742
 30
0.0
  0
SPLINE
  5
23a
100
AcDbEntity
  8
Layer_1
 62
7
100
AcDbSpline
 70
8
 71
3
 72
8
 73
4
 74
0
 40
0
 40
0
 40
0
 40
0
 40
1
 40
1
 40
1
 40
1
 10
49.962554
 20
31.575742
 30
0.0
 10
49.935742
 20
31.444396
 30
0.0
 10
49.895836
 20
31.317706
 30
0.0
 10
49.844641
 20
31.197000
 30
0.0
  0
SPLINE
  5
23b
100
AcDbEntity
  8
Layer_1
 62
7
100
AcDbSpline
 70
8
 71
3
 72
8
 73
4
 74
0
 40
0
 40
0
 40
0
 40
0
 40
1
 40
1
 40
1
 40
1
 10
49.844641
 20
31.197000
 30
0.0
 10
49.793446
 20
31.076321
 30
0.0
 10
49.730793
 20
30.961626
 30
0.0
 10
49.658064
 20
30.854269
 30
0.0
  0
SPLINE
  5
23c
100
AcDbEntity
  8
Layer_1
 62
7
100
AcDbSpline
 70
8
 71
3
 72
8
 73
4
 74
0
 40
0
 40
0
 40
0
 40
0
 40
1
 40
1
 40
1
 40
1
 10
49.658064
 20
30.854269
 30
0.0
 10
49.585307
 20
30.746940
 30
0.0
 10
49.502475
 20
30.646949
 30
0.0
 10
49.410922
 20
30.555678
 30
0.0
  0
SPLINE
  5
23d
100
AcDbEntity
  8
Layer_1
 62
7
100
AcDbSpline
 70
8
 71
3
 72
8
 73
4
 74
0
 40
0
 40
0
 40
0
 40
0
 40
1
 40
1
 40
1
 40
1
 10
49.410922
 20
30.555678
 30
0.0
 10
49.319369
 20
30.464407
 30
0.0
 10
49.219096
 20
30.381829
 30
0.0
 10
49.111428
 20
30.309298
 30
0.0
  0
SPLINE
  5
23e
100
AcDbEntity
  8
Layer_1
 62
7
100
AcDbSpline
 70
8
 71
3
 72
8
 73
4
 74
0
 40
0
 40
0
 40
0
 40
0
 40
1
 40
1
 40
1
 40
1
 10
49.111428
 20
30.309298
 30
0.0
 10
49.003760
 20
30.236795
 30
0.0
 10
48.888726
 20
30.174339
 30
0.0
 10
48.767653
 20
30.123285
 30
0.0
  0
SPLINE
  5
23f
100
AcDbEntity
  8
Layer_1
 62
7
100
AcDbSpline
 70
8
 71
3
 72
8
 73
4
 74
0
 40
0
 40
0
 40
0
 40
0
 40
1
 40
1
 40
1
 40
1
 10
48.767653
 20
30.123285
 30
0.0
 10
48.646608
 20
30.072231
 30
0.0
 10
48.519523
 20
30.032579
 30
0.0
 10
48.387782
 20
30.005711
 30
0.0
  0
SPLINE
  5
240
100
AcDbEntity
  8
Layer_1
 62
7
100
AcDbSpline
 70
8
 71
3
 72
8
 73
4
 74
0
 40
0
 40
0
 40
0
 40
0
 40
1
 40
1
 40
1
 40
1
 10
48.387782
 20
30.005711
 30
0.0
 10
48.256040
 20
29.978900
 30
0.0
 10
48.119642
 20
29.964733
 30
0.0
 10
47.979914
 20
29.964733
 30
0.0
  0
SPLINE
  5
241
100
AcDbEntity
  8
Layer_1
 62
7
100
AcDbSpline
 70
8
 71
3
 72
8
 73
4
 74
0
 40
0
 40
0
 40
0
 40
0
 40
1
 40
1
 40
1
 40
1
 10
47.979914
 20
29.964733
 30
0.0
 10
47.840214
 20
29.964733
 30
0.0
 10
47.703816
 20
29.978844
 30
0.0
 10
47.572075
 20
30.005711
 30
0.0
  0
SPLINE
  5
242
100
AcDbEntity
  8
Layer_1
 62
7
100
AcDbSpline
 70
8
 71
3
 72
8
 73
4
 74
0
 40
0
 40
0
 40
0
 40
0
 40
1
 40
1
 40
1
 40
1
 10
47.572075
 20
30.005711
 30
0.0
 10
47.440334
 20
30.032523
 30
0.0
 10
47.313249
 20
30.072231
 30
0.0
 10
47.192204
 20
30.123285
 30
0.0
  0
SPLINE
  5
243
100
AcDbEntity
  8
Layer_1
 62
7
100
AcDbSpline
 70
8
 71
3
 72
8
 73
4
 74
0
 40
0
 40
0
 40
0
 40
0
 40
1
 40
1
 40
1
 40
1
 10
47.192204
 20
30.123285
 30
0.0
 10
47.071130
 20
30.174339
 30
0.0
 10
46.956097
 20
30.236795
 30
0.0
 10
46.848429
 20
30.309298
 30
0.0
  0
SPLINE
  5
244
100
AcDbEntity
  8
Layer_1
 62
7
100
AcDbSpline
 70
8
 71
3
 72
8
 73
4
 74
0
 40
0
 40
0
 40
0
 40
0
 40
1
 40
1
 40
1
 40
1
 10
46.848429
 20
30.309298
 30
0.0
 10
46.740761
 20
30.381829
 30
0.0
 10
46.640488
 20
30.464407
 30
0.0
 10
46.548906
 20
30.555678
 30
0.0
  0
SPLINE
  5
245
100
AcDbEntity
  8
Layer_1
 62
7
100
AcDbSpline
 70
8
 71
3
 72
8
 73
4
 74
0
 40
0
 40
0
 40
0
 40
0
 40
1
 40
1
 40
1
 40
1
 10
46.548906
 20
30.555678
 30
0.0
 10
46.457354
 20
30.646949
 30
0.0
 10
46.374550
 20
30.746940
 30
0.0
 10
46.301793
 20
30.854269
 30
0.0
  0
SPLINE
  5
246
100
AcDbEntity
  8
Layer_1
 62
7
100
AcDbSpline
 70
8
 71
3
 72
8
 73
4
 74
0
 40
0
 40
0
 40
0
 40
0
 40
1
 40
1
 40
1
 40
1
 10
46.301793
 20
30.854269
 30
0.0
 10
46.229064
 20
30.961626
 30
0.0
 10
46.166411
 20
31.076321
 30
0.0
 10
46.115216
 20
31.197000
 30
0.0
  0
SPLINE
  5
247
100
AcDbEntity
  8
Layer_1
 62
7
100
AcDbSpline
 70
8
 71
3
 72
8
 73
4
 74
0
 40
0
 40
0
 40
0
 40
0
 40
1
 40
1
 40
1
 40
1
 10
46.115216
 20
31.197000
 30
0.0
 10
46.064020
 20
31.317706
 30
0.0
 10
46.024255
 20
31.444396
 30
0.0
 10
45.997303
 20
31.575742
 30
0.0
  0
SPLINE
  5
248
100
AcDbEntity
  8
Layer_1
 62
7
100
AcDbSpline
 70
8
 71
3
 72
8
 73
4
 74
0
 40
0
 40
0
 40
0
 40
0
 40
1
 40
1
 40
1
 40
1
 10
45.997303
 20
31.575742
 30
0.0
 10
45.970210
 20
31.707088
 30
0.0
 10
45.956183
 20
31.843063
 30
0.0
 10
45.956183
 20
31.982368
 30
0.0
  0
LWPOLYLINE
  5
249
100
AcDbEntity
  8
Layer_1
 62
7
100
AcDbPolyline
 90
2
 70
0
 10
45.956166
 20
41.982339
 30
0.0
 10
45.956166
 20
41.982339
 30
0.0
  0
SPLINE
  5
24a
100
AcDbEntity
  8
Layer_1
 62
7
100
AcDbSpline
 70
8
 71
3
 72
8
 73
4
 74
0
 40
0
 40
0
 40
0
 40
0
 40
1
 40
1
 40
1
 40
1
 10
45.956183
 20
21.982365
 30
0.0
 10
45.956183
 20
22.121670
 30
0.0
 10
45.970294
 20
22.257645
 30
0.0
 10
45.997303
 20
22.388991
 30
0.0
  0
SPLINE
  5
24b
100
AcDbEntity
  8
Layer_1
 62
7
100
AcDbSpline
 70
8
 71
3
 72
8
 73
4
 74
0
 40
0
 40
0
 40
0
 40
0
 40
1
 40
1
 40
1
 40
1
 10
45.997303
 20
22.388991
 30
0.0
 10
46.024114
 20
22.520337
 30
0.0
 10
46.064020
 20
22.647027
 30
0.0
 10
46.115216
 20
22.767727
 30
0.0
  0
SPLINE
  5
24c
100
AcDbEntity
  8
Layer_1
 62
7
100
AcDbSpline
 70
8
 71
3
 72
8
 73
4
 74
0
 40
0
 40
0
 40
0
 40
0
 40
1
 40
1
 40
1
 40
1
 10
46.115216
 20
22.767727
 30
0.0
 10
46.166411
 20
22.888406
 30
0.0
 10
46.229064
 20
23.003101
 30
0.0
 10
46.301793
 20
23.110458
 30
0.0
  0
SPLINE
  5
24d
100
AcDbEntity
  8
Layer_1
 62
7
100
AcDbSpline
 70
8
 71
3
 72
8
 73
4
 74
0
 40
0
 40
0
 40
0
 40
0
 40
1
 40
1
 40
1
 40
1
 10
46.301793
 20
23.110458
 30
0.0
 10
46.374550
 20
23.217787
 30
0.0
 10
46.457354
 20
23.317779
 30
0.0
 10
46.548906
 20
23.409049
 30
0.0
  0
SPLINE
  5
24e
100
AcDbEntity
  8
Layer_1
 62
7
100
AcDbSpline
 70
8
 71
3
 72
8
 73
4
 74
0
 40
0
 40
0
 40
0
 40
0
 40
1
 40
1
 40
1
 40
1
 10
46.548906
 20
23.409049
 30
0.0
 10
46.640488
 20
23.500320
 30
0.0
 10
46.740761
 20
23.582898
 30
0.0
 10
46.848429
 20
23.655429
 30
0.0
  0
SPLINE
  5
24f
100
AcDbEntity
  8
Layer_1
 62
7
100
AcDbSpline
 70
8
 71
3
 72
8
 73
4
 74
0
 40
0
 40
0
 40
0
 40
0
 40
1
 40
1
 40
1
 40
1
 10
46.848429
 20
23.655429
 30
0.0
 10
46.956097
 20
23.727932
 30
0.0
 10
47.071130
 20
23.790388
 30
0.0
 10
47.192204
 20
23.841442
 30
0.0
  0
SPLINE
  5
250
100
AcDbEntity
  8
Layer_1
 62
7
100
AcDbSpline
 70
8
 71
3
 72
8
 73
4
 74
0
 40
0
 40
0
 40
0
 40
0
 40
1
 40
1
 40
1
 40
1
 10
47.192204
 20
23.841442
 30
0.0
 10
47.313249
 20
23.892496
 30
0.0
 10
47.440334
 20
23.932148
 30
0.0
 10
47.572075
 20
23.959016
 30
0.0
  0
SPLINE
  5
251
100
AcDbEntity
  8
Layer_1
 62
7
100
AcDbSpline
 70
8
 71
3
 72
8
 73
4
 74
0
 40
0
 40
0
 40
0
 40
0
 40
1
 40
1
 40
1
 40
1
 10
47.572075
 20
23.959016
 30
0.0
 10
47.703816
 20
23.985827
 30
0.0
 10
47.840214
 20
23.999994
 30
0.0
 10
47.979914
 20
23.999994
 30
0.0
  0
SPLINE
  5
252
100
AcDbEntity
  8
Layer_1
 62
7
100
AcDbSpline
 70
8
 71
3
 72
8
 73
4
 74
0
 40
0
 40
0
 40
0
 40
0
 40
1
 40
1
 40
1
 40
1
 10
47.979914
 20
23.999994
 30
0.0
 10
48.119642
 20
23.999994
 30
0.0
 10
48.256040
 20
23.985883
 30
0.0
 10
48.387782
 20
23.959016
 30
0.0
  0
SPLINE
  5
253
100
AcDbEntity
  8
Layer_1
 62
7
100
AcDbSpline
 70
8
 71
3
 72
8
 73
4
 74
0
 40
0
 40
0
 40
0
 40
0
 40
1
 40
1
 40
1
 40
1
 10
48.387782
 20
23.959016
 30
0.0
 10
48.519523
 20
23.932205
 30
0.0
 10
48.646608
 20
23.892496
 30
0.0
 10
48.767653
 20
23.841442
 30
0.0
  0
SPLINE
  5
254
100
AcDbEntity
  8
Layer_1
 62
7
100
AcDbSpline
 70
8
 71
3
 72
8
 73
4
 74
0
 40
0
 40
0
 40
0
 40
0
 40
1
 40
1
 40
1
 40
1
 10
48.767653
 20
23.841442
 30
0.0
 10
48.888726
 20
23.790388
 30
0.0
 10
49.003760
 20
23.727932
 30
0.0
 10
49.111428
 20
23.655429
 30
0.0
  0
SPLINE
  5
255
100
AcDbEntity
  8
Layer_1
 62
7
100
AcDbSpline
 70
8
 71
3
 72
8
 73
4
 74
0
 40
0
 40
0
 40
0
 40
0
 40
1
 40
1
 40
1
 40
1
 10
49.111428
 20
23.655429
 30
0.0
 10
49.219096
 20
23.582898
 30
0.0
 10
49.319369
 20
23.500320
 30
0.0
 10
49.410922
 20
23.409049
 30
0.0
  0
SPLINE
  5
256
100
AcDbEntity
  8
Layer_1
 62
7
100
AcDbSpline
 70
8
 71
3
 72
8
 73
4
 74
0
 40
0
 40
0
 40
0
 40
0
 40
1
 40
1
 40
1
 40
1
 10
49.410922
 20
23.409049
 30
0.0
 10
49.502475
 20
23.317779
 30
0.0
 10
49.585307
 20
23.217787
 30
0.0
 10
49.658064
 20
23.110458
 30
0.0
  0
SPLINE
  5
257
100
AcDbEntity
  8
Layer_1
 62
7
100
AcDbSpline
 70
8
 71
3
 72
8
 73
4
 74
0
 40
0
 40
0
 40
0
 40
0
 40
1
 40
1
 40
1
 40
1
 10
49.658064
 20
23.110458
 30
0.0
 10
49.730793
 20
23.003101
 30
0.0
 10
49.793446
 20
22.888406
 30
0.0
 10
49.844641
 20
22.767727
 30
0.0
  0
SPLINE
  5
258
100
AcDbEntity
  8
Layer_1
 62
7
100
AcDbSpline
 70
8
 71
3
 72
8
 73
4
 74
0
 40
0
 40
0
 40
0
 40
0
 40
1
 40
1
 40
1
 40
1
 10
49.844641
 20
22.767727
 30
0.0
 10
49.895836
 20
22.647027
 30
0.0
 10
49.935601
 20
22.520337
 30
0.0
 10
49.962554
 20
22.388991
 30
0.0
  0
SPLINE
  5
259
100
AcDbEntity
  8
Layer_1
 62
7
100
AcDbSpline
 70
8
 71
3
 72
8
 73
4
 74
0
 40
0
 40
0
 40
0
 40
0
 40
1
 40
1
 40
1
 40
1
 10
49.962554
 20
22.388991
 30
0.0
 10
49.989647
 20
22.257645
 30
0.0
 10
50.003673
 20
22.121670
 30
0.0
 10
50.003673
 20
21.982365
 30
0.0
  0
SPLINE
  5
25a
100
AcDbEntity
  8
Layer_1
 62
7
100
AcDbSpline
 70
8
 71
3
 72
8
 73
4
 74
0
 40
0
 40
0
 40
0
 40
0
 40
1
 40
1
 40
1
 40
1
 10
50.003673
 20
21.982365
 30
0.0
 10
50.003673
 20
21.843088
 30
0.0
 10
49.989562
 20
21.707086
 30
0.0
 10
49.962554
 20
21.575739
 30
0.0
  0
SPLINE
  5
25b
100
AcDbEntity
  8
Layer_1
 62
7
100
AcDbSpline
 70
8
 71
3
 72
8
 73
4
 74
0
 40
0
 40
0
 40
0
 40
0
 40
1
 40
1
 40
1
 40
1
 10
49.962554
 20
21.575739
 30
0.0
 10
49.935742
 20
21.444393
 30
0.0
 10
49.895836
 20
21.317704
 30
0.0
 10
49.844641
 20
21.197025
 30
0.0
  0
SPLINE
  5
25c
100
AcDbEntity
  8
Layer_1
 62
7
100
AcDbSpline
 70
8
 71
3
 72
8
 73
4
 74
0
 40
0
 40
0
 40
0
 40
0
 40
1
 40
1
 40
1
 40
1
 10
49.844641
 20
21.197025
 30
0.0
 10
49.793446
 20
21.076319
 30
0.0
 10
49.730793
 20
20.961624
 30
0.0
 10
49.658064
 20
20.854295
 30
0.0
  0
SPLINE
  5
25d
100
AcDbEntity
  8
Layer_1
 62
7
100
AcDbSpline
 70
8
 71
3
 72
8
 73
4
 74
0
 40
0
 40
0
 40
0
 40
0
 40
1
 40
1
 40
1
 40
1
 10
49.658064
 20
20.854295
 30
0.0
 10
49.585307
 20
20.746937
 30
0.0
 10
49.502475
 20
20.646974
 30
0.0
 10
49.410922
 20
20.555675
 30
0.0
  0
SPLINE
  5
25e
100
AcDbEntity
  8
Layer_1
 62
7
100
AcDbSpline
 70
8
 71
3
 72
8
 73
4
 74
0
 40
0
 40
0
 40
0
 40
0
 40
1
 40
1
 40
1
 40
1
 10
49.410922
 20
20.555675
 30
0.0
 10
49.319369
 20
20.464405
 30
0.0
 10
49.219096
 20
20.381826
 30
0.0
 10
49.111428
 20
20.309324
 30
0.0
  0
SPLINE
  5
25f
100
AcDbEntity
  8
Layer_1
 62
7
100
AcDbSpline
 70
8
 71
3
 72
8
 73
4
 74
0
 40
0
 40
0
 40
0
 40
0
 40
1
 40
1
 40
1
 40
1
 10
49.111428
 20
20.309324
 30
0.0
 10
49.003760
 20
20.236792
 30
0.0
 10
48.888726
 20
20.174337
 30
0.0
 10
48.767653
 20
20.123283
 30
0.0
  0
SPLINE
  5
260
100
AcDbEntity
  8
Layer_1
 62
7
100
AcDbSpline
 70
8
 71
3
 72
8
 73
4
 74
0
 40
0
 40
0
 40
0
 40
0
 40
1
 40
1
 40
1
 40
1
 10
48.767653
 20
20.123283
 30
0.0
 10
48.646608
 20
20.072229
 30
0.0
 10
48.519523
 20
20.032605
 30
0.0
 10
48.387782
 20
20.005737
 30
0.0
  0
SPLINE
  5
261
100
AcDbEntity
  8
Layer_1
 62
7
100
AcDbSpline
 70
8
 71
3
 72
8
 73
4
 74
0
 40
0
 40
0
 40
0
 40
0
 40
1
 40
1
 40
1
 40
1
 10
48.387782
 20
20.005737
 30
0.0
 10
48.256040
 20
19.978926
 30
0.0
 10
48.119642
 20
19.964730
 30
0.0
 10
47.979914
 20
19.964730
 30
0.0
  0
SPLINE
  5
262
100
AcDbEntity
  8
Layer_1
 62
7
100
AcDbSpline
 70
8
 71
3
 72
8
 73
4
 74
0
 40
0
 40
0
 40
0
 40
0
 40
1
 40
1
 40
1
 40
1
 10
47.979914
 20
19.964730
 30
0.0
 10
47.840214
 20
19.964730
 30
0.0
 10
47.703816
 20
19.978841
 30
0.0
 10
47.572075
 20
20.005737
 30
0.0
  0
SPLINE
  5
263
100
AcDbEntity
  8
Layer_1
 62
7
100
AcDbSpline
 70
8
 71
3
 72
8
 73
4
 74
0
 40
0
 40
0
 40
0
 40
0
 40
1
 40
1
 40
1
 40
1
 10
47.572075
 20
20.005737
 30
0.0
 10
47.440334
 20
20.032548
 30
0.0
 10
47.313249
 20
20.072229
 30
0.0
 10
47.192204
 20
20.123283
 30
0.0
  0
SPLINE
  5
264
100
AcDbEntity
  8
Layer_1
 62
7
100
AcDbSpline
 70
8
 71
3
 72
8
 73
4
 74
0
 40
0
 40
0
 40
0
 40
0
 40
1
 40
1
 40
1
 40
1
 10
47.192204
 20
20.123283
 30
0.0
 10
47.071130
 20
20.174337
 30
0.0
 10
46.956097
 20
20.236792
 30
0.0
 10
46.848429
 20
20.309324
 30
0.0
  0
SPLINE
  5
265
100
AcDbEntity
  8
Layer_1
 62
7
100
AcDbSpline
 70
8
 71
3
 72
8
 73
4
 74
0
 40
0
 40
0
 40
0
 40
0
 40
1
 40
1
 40
1
 40
1
 10
46.848429
 20
20.309324
 30
0.0
 10
46.740761
 20
20.381826
 30
0.0
 10
46.640488
 20
20.464405
 30
0.0
 10
46.548906
 20
20.555675
 30
0.0
  0
SPLINE
  5
266
100
AcDbEntity
  8
Layer_1
 62
7
100
AcDbSpline
 70
8
 71
3
 72
8
 73
4
 74
0
 40
0
 40
0
 40
0
 40
0
 40
1
 40
1
 40
1
 40
1
 10
46.548906
 20
20.555675
 30
0.0
 10
46.457354
 20
20.646974
 30
0.0
 10
46.374550
 20
20.746937
 30
0.0
 10
46.301793
 20
20.854295
 30
0.0
  0
SPLINE
  5
267
100
AcDbEntity
  8
Layer_1
 62
7
100
AcDbSpline
 70
8
 71
3
 72
8
 73
4
 74
0
 40
0
 40
0
 40
0
 40
0
 40
1
 40
1
 40
1
 40
1
 10
46.301793
 20
20.854295
 30
0.0
 10
46.229064
 20
20.961624
 30
0.0
 10
46.166411
 20
21.076319
 30
0.0
 10
46.115216
 20
21.197025
 30
0.0
  0
SPLINE
  5
268
100
AcDbEntity
  8
Layer_1
 62
7
100
AcDbSpline
 70
8
 71
3
 72
8
 73
4
 74
0
 40
0
 40
0
 40
0
 40
0
 40
1
 40
1
 40
1
 40
1
 10
46.115216
 20
21.197025
 30
0.0
 10
46.064020
 20
21.317704
 30
0.0
 10
46.024255
 20
21.444393
 30
0.0
 10
45.997303
 20
21.575739
 30
0.0
  0
SPLINE
  5
269
100
AcDbEntity
  8
Layer_1
 62
7
100
AcDbSpline
 70
8
 71
3
 72
8
 73
4
 74
0
 40
0
 40
0
 40
0
 40
0
 40
1
 40
1
 40
1
 40
1
 10
45.997303
 20
21.575739
 30
0.0
 10
45.970210
 20
21.707086
 30
0.0
 10
45.956183
 20
21.843088
 30
0.0
 10
45.956183
 20
21.982365
 30
0.0
  0
LWPOLYLINE
  5
26a
100
AcDbEntity
  8
Layer_1
 62
7
100
AcDbPolyline
 90
2
 70
0
 10
45.956183
 20
31.982368
 30
0.0
 10
45.956183
 20
31.982368
 30
0.0
  0
SPLINE
  5
26b
100
AcDbEntity
  8
Layer_1
 62
7
100
AcDbSpline
 70
8
 71
3
 72
8
 73
4
 74
0
 40
0
 40
0
 40
0
 40
0
 40
1
 40
1
 40
1
 40
1
 10
37.994398
 20
44.046239
 30
0.0
 10
38.133703
 20
44.046239
 30
0.0
 10
38.269706
 20
44.032128
 30
0.0
 10
38.401024
 20
44.005119
 30
0.0
  0
SPLINE
  5
26c
100
AcDbEntity
  8
Layer_1
 62
7
100
AcDbSpline
 70
8
 71
3
 72
8
 73
4
 74
0
 40
0
 40
0
 40
0
 40
0
 40
1
 40
1
 40
1
 40
1
 10
38.401024
 20
44.005119
 30
0.0
 10
38.532370
 20
43.978026
 30
0.0
 10
38.659088
 20
43.938402
 30
0.0
 10
38.779766
 20
43.887178
 30
0.0
  0
SPLINE
  5
26d
100
AcDbEntity
  8
Layer_1
 62
7
100
AcDbSpline
 70
8
 71
3
 72
8
 73
4
 74
0
 40
0
 40
0
 40
0
 40
0
 40
1
 40
1
 40
1
 40
1
 10
38.779766
 20
43.887178
 30
0.0
 10
38.900473
 20
43.836011
 30
0.0
 10
39.015139
 20
43.773358
 30
0.0
 10
39.122497
 20
43.700601
 30
0.0
  0
SPLINE
  5
26e
100
AcDbEntity
  8
Layer_1
 62
7
100
AcDbSpline
 70
8
 71
3
 72
8
 73
4
 74
0
 40
0
 40
0
 40
0
 40
0
 40
1
 40
1
 40
1
 40
1
 10
39.122497
 20
43.700601
 30
0.0
 10
39.229826
 20
43.627901
 30
0.0
 10
39.329817
 20
43.545069
 30
0.0
 10
39.421088
 20
43.453516
 30
0.0
  0
SPLINE
  5
26f
100
AcDbEntity
  8
Layer_1
 62
7
100
AcDbSpline
 70
8
 71
3
 72
8
 73
4
 74
0
 40
0
 40
0
 40
0
 40
0
 40
1
 40
1
 40
1
 40
1
 10
39.421088
 20
43.453516
 30
0.0
 10
39.512387
 20
43.361935
 30
0.0
 10
39.594965
 20
43.261633
 30
0.0
 10
39.667468
 20
43.153965
 30
0.0
  0
SPLINE
  5
270
100
AcDbEntity
  8
Layer_1
 62
7
100
AcDbSpline
 70
8
 71
3
 72
8
 73
4
 74
0
 40
0
 40
0
 40
0
 40
0
 40
1
 40
1
 40
1
 40
1
 10
39.667468
 20
43.153965
 30
0.0
 10
39.739999
 20
43.046325
 30
0.0
 10
39.802455
 20
42.931292
 30
0.0
 10
39.853481
 20
42.810218
 30
0.0
  0
SPLINE
  5
271
100
AcDbEntity
  8
Layer_1
 62
7
100
AcDbSpline
 70
8
 71
3
 72
8
 73
4
 74
0
 40
0
 40
0
 40
0
 40
0
 40
1
 40
1
 40
1
 40
1
 10
39.853481
 20
42.810218
 30
0.0
 10
39.904535
 20
42.689173
 30
0.0
 10
39.944187
 20
42.562117
 30
0.0
 10
39.971054
 20
42.430319
 30
0.0
  0
SPLINE
  5
272
100
AcDbEntity
  8
Layer_1
 62
7
100
AcDbSpline
 70
8
 71
3
 72
8
 73
4
 74
0
 40
0
 40
0
 40
0
 40
0
 40
1
 40
1
 40
1
 40
1
 10
39.971054
 20
42.430319
 30
0.0
 10
39.997865
 20
42.298606
 30
0.0
 10
40.012061
 20
42.162180
 30
0.0
 10
40.012061
 20
42.022508
 30
0.0
  0
SPLINE
  5
273
100
AcDbEntity
  8
Layer_1
 62
7
100
AcDbSpline
 70
8
 71
3
 72
8
 73
4
 74
0
 40
0
 40
0
 40
0
 40
0
 40
1
 40
1
 40
1
 40
1
 10
40.012061
 20
42.022508
 30
0.0
 10
40.012061
 20
41.882751
 30
0.0
 10
39.997950
 20
41.746382
 30
0.0
 10
39.971054
 20
41.614612
 30
0.0
  0
SPLINE
  5
274
100
AcDbEntity
  8
Layer_1
 62
7
100
AcDbSpline
 70
8
 71
3
 72
8
 73
4
 74
0
 40
0
 40
0
 40
0
 40
0
 40
1
 40
1
 40
1
 40
1
 10
39.971054
 20
41.614612
 30
0.0
 10
39.944243
 20
41.482871
 30
0.0
 10
39.904535
 20
41.355814
 30
0.0
 10
39.853481
 20
41.234741
 30
0.0
  0
SPLINE
  5
275
100
AcDbEntity
  8
Layer_1
 62
7
100
AcDbSpline
 70
8
 71
3
 72
8
 73
4
 74
0
 40
0
 40
0
 40
0
 40
0
 40
1
 40
1
 40
1
 40
1
 10
39.853481
 20
41.234741
 30
0.0
 10
39.802455
 20
41.113724
 30
0.0
 10
39.739999
 20
40.998662
 30
0.0
 10
39.667468
 20
40.890966
 30
0.0
  0
SPLINE
  5
276
100
AcDbEntity
  8
Layer_1
 62
7
100
AcDbSpline
 70
8
 71
3
 72
8
 73
4
 74
0
 40
0
 40
0
 40
0
 40
0
 40
1
 40
1
 40
1
 40
1
 10
39.667468
 20
40.890966
 30
0.0
 10
39.594965
 20
40.783327
 30
0.0
 10
39.512387
 20
40.683025
 30
0.0
 10
39.421088
 20
40.591472
 30
0.0
  0
SPLINE
  5
277
100
AcDbEntity
  8
Layer_1
 62
7
100
AcDbSpline
 70
8
 71
3
 72
8
 73
4
 74
0
 40
0
 40
0
 40
0
 40
0
 40
1
 40
1
 40
1
 40
1
 10
39.421088
 20
40.591472
 30
0.0
 10
39.329817
 20
40.499947
 30
0.0
 10
39.229826
 20
40.417115
 30
0.0
 10
39.122497
 20
40.344358
 30
0.0
  0
SPLINE
  5
278
100
AcDbEntity
  8
Layer_1
 62
7
100
AcDbSpline
 70
8
 71
3
 72
8
 73
4
 74
0
 40
0
 40
0
 40
0
 40
0
 40
1
 40
1
 40
1
 40
1
 10
39.122497
 20
40.344358
 30
0.0
 10
39.015139
 20
40.271629
 30
0.0
 10
38.900473
 20
40.209004
 30
0.0
 10
38.779766
 20
40.157753
 30
0.0
  0
SPLINE
  5
279
100
AcDbEntity
  8
Layer_1
 62
7
100
AcDbSpline
 70
8
 71
3
 72
8
 73
4
 74
0
 40
0
 40
0
 40
0
 40
0
 40
1
 40
1
 40
1
 40
1
 10
38.779766
 20
40.157753
 30
0.0
 10
38.659088
 20
40.106558
 30
0.0
 10
38.532370
 20
40.066793
 30
0.0
 10
38.401024
 20
40.039840
 30
0.0
  0
SPLINE
  5
27a
100
AcDbEntity
  8
Layer_1
 62
7
100
AcDbSpline
 70
8
 71
3
 72
8
 73
4
 74
0
 40
0
 40
0
 40
0
 40
0
 40
1
 40
1
 40
1
 40
1
 10
38.401024
 20
40.039840
 30
0.0
 10
38.269706
 20
40.013029
 30
0.0
 10
38.133703
 20
39.998721
 30
0.0
 10
37.994398
 20
39.998721
 30
0.0
  0
SPLINE
  5
27b
100
AcDbEntity
  8
Layer_1
 62
7
100
AcDbSpline
 70
8
 71
3
 72
8
 73
4
 74
0
 40
0
 40
0
 40
0
 40
0
 40
1
 40
1
 40
1
 40
1
 10
37.994398
 20
39.998721
 30
0.0
 10
37.855121
 20
39.998721
 30
0.0
 10
37.719119
 20
40.012832
 30
0.0
 10
37.587801
 20
40.039840
 30
0.0
  0
SPLINE
  5
27c
100
AcDbEntity
  8
Layer_1
 62
7
100
AcDbSpline
 70
8
 71
3
 72
8
 73
4
 74
0
 40
0
 40
0
 40
0
 40
0
 40
1
 40
1
 40
1
 40
1
 10
37.587801
 20
40.039840
 30
0.0
 10
37.456454
 20
40.066934
 30
0.0
 10
37.329737
 20
40.106558
 30
0.0
 10
37.209058
 20
40.157753
 30
0.0
  0
SPLINE
  5
27d
100
AcDbEntity
  8
Layer_1
 62
7
100
AcDbSpline
 70
8
 71
3
 72
8
 73
4
 74
0
 40
0
 40
0
 40
0
 40
0
 40
1
 40
1
 40
1
 40
1
 10
37.209058
 20
40.157753
 30
0.0
 10
37.088352
 20
40.209004
 30
0.0
 10
36.973657
 20
40.271629
 30
0.0
 10
36.866328
 20
40.344358
 30
0.0
  0
SPLINE
  5
27e
100
AcDbEntity
  8
Layer_1
 62
7
100
AcDbSpline
 70
8
 71
3
 72
8
 73
4
 74
0
 40
0
 40
0
 40
0
 40
0
 40
1
 40
1
 40
1
 40
1
 10
36.866328
 20
40.344358
 30
0.0
 10
36.758999
 20
40.417115
 30
0.0
 10
36.659007
 20
40.499947
 30
0.0
 10
36.567737
 20
40.591472
 30
0.0
  0
SPLINE
  5
27f
100
AcDbEntity
  8
Layer_1
 62
7
100
AcDbSpline
 70
8
 71
3
 72
8
 73
4
 74
0
 40
0
 40
0
 40
0
 40
0
 40
1
 40
1
 40
1
 40
1
 10
36.567737
 20
40.591472
 30
0.0
 10
36.476438
 20
40.683025
 30
0.0
 10
36.393859
 20
40.783327
 30
0.0
 10
36.321357
 20
40.890966
 30
0.0
  0
SPLINE
  5
280
100
AcDbEntity
  8
Layer_1
 62
7
100
AcDbSpline
 70
8
 71
3
 72
8
 73
4
 74
0
 40
0
 40
0
 40
0
 40
0
 40
1
 40
1
 40
1
 40
1
 10
36.321357
 20
40.890966
 30
0.0
 10
36.248825
 20
40.998662
 30
0.0
 10
36.186370
 20
41.113724
 30
0.0
 10
36.135316
 20
41.234741
 30
0.0
  0
SPLINE
  5
281
100
AcDbEntity
  8
Layer_1
 62
7
100
AcDbSpline
 70
8
 71
3
 72
8
 73
4
 74
0
 40
0
 40
0
 40
0
 40
0
 40
1
 40
1
 40
1
 40
1
 10
36.135316
 20
41.234741
 30
0.0
 10
36.084290
 20
41.355814
 30
0.0
 10
36.044638
 20
41.482871
 30
0.0
 10
36.017770
 20
41.614612
 30
0.0
  0
SPLINE
  5
282
100
AcDbEntity
  8
Layer_1
 62
7
100
AcDbSpline
 70
8
 71
3
 72
8
 73
4
 74
0
 40
0
 40
0
 40
0
 40
0
 40
1
 40
1
 40
1
 40
1
 10
36.017770
 20
41.614612
 30
0.0
 10
35.990959
 20
41.746382
 30
0.0
 10
35.976763
 20
41.882780
 30
0.0
 10
35.976763
 20
42.022508
 30
0.0
  0
SPLINE
  5
283
100
AcDbEntity
  8
Layer_1
 62
7
100
AcDbSpline
 70
8
 71
3
 72
8
 73
4
 74
0
 40
0
 40
0
 40
0
 40
0
 40
1
 40
1
 40
1
 40
1
 10
35.976763
 20
42.022508
 30
0.0
 10
35.976763
 20
42.162180
 30
0.0
 10
35.990874
 20
42.298606
 30
0.0
 10
36.017770
 20
42.430319
 30
0.0
  0
SPLINE
  5
284
100
AcDbEntity
  8
Layer_1
 62
7
100
AcDbSpline
 70
8
 71
3
 72
8
 73
4
 74
0
 40
0
 40
0
 40
0
 40
0
 40
1
 40
1
 40
1
 40
1
 10
36.017770
 20
42.430319
 30
0.0
 10
36.044581
 20
42.562060
 30
0.0
 10
36.084290
 20
42.689173
 30
0.0
 10
36.135316
 20
42.810218
 30
0.0
  0
SPLINE
  5
285
100
AcDbEntity
  8
Layer_1
 62
7
100
AcDbSpline
 70
8
 71
3
 72
8
 73
4
 74
0
 40
0
 40
0
 40
0
 40
0
 40
1
 40
1
 40
1
 40
1
 10
36.135316
 20
42.810218
 30
0.0
 10
36.186370
 20
42.931292
 30
0.0
 10
36.248825
 20
43.046325
 30
0.0
 10
36.321357
 20
43.153965
 30
0.0
  0
SPLINE
  5
286
100
AcDbEntity
  8
Layer_1
 62
7
100
AcDbSpline
 70
8
 71
3
 72
8
 73
4
 74
0
 40
0
 40
0
 40
0
 40
0
 40
1
 40
1
 40
1
 40
1
 10
36.321357
 20
43.153965
 30
0.0
 10
36.393859
 20
43.261633
 30
0.0
 10
36.476438
 20
43.361935
 30
0.0
 10
36.567737
 20
43.453516
 30
0.0
  0
SPLINE
  5
287
100
AcDbEntity
  8
Layer_1
 62
7
100
AcDbSpline
 70
8
 71
3
 72
8
 73
4
 74
0
 40
0
 40
0
 40
0
 40
0
 40
1
 40
1
 40
1
 40
1
 10
36.567737
 20
43.453516
 30
0.0
 10
36.659007
 20
43.545069
 30
0.0
 10
36.758999
 20
43.627901
 30
0.0
 10
36.866328
 20
43.700601
 30
0.0
  0
SPLINE
  5
288
100
AcDbEntity
  8
Layer_1
 62
7
100
AcDbSpline
 70
8
 71
3
 72
8
 73
4
 74
0
 40
0
 40
0
 40
0
 40
0
 40
1
 40
1
 40
1
 40
1
 10
36.866328
 20
43.700601
 30
0.0
 10
36.973657
 20
43.773358
 30
0.0
 10
37.088352
 20
43.836011
 30
0.0
 10
37.209058
 20
43.887178
 30
0.0
  0
SPLINE
  5
289
100
AcDbEntity
  8
Layer_1
 62
7
100
AcDbSpline
 70
8
 71
3
 72
8
 73
4
 74
0
 40
0
 40
0
 40
0
 40
0
 40
1
 40
1
 40
1
 40
1
 10
37.209058
 20
43.887178
 30
0.0
 10
37.329737
 20
43.938402
 30
0.0
 10
37.456454
 20
43.978139
 30
0.0
 10
37.587801
 20
44.005119
 30
0.0
  0
SPLINE
  5
28a
100
AcDbEntity
  8
Layer_1
 62
7
100
AcDbSpline
 70
8
 71
3
 72
8
 73
4
 74
0
 40
0
 40
0
 40
0
 40
0
 40
1
 40
1
 40
1
 40
1
 10
37.587801
 20
44.005119
 30
0.0
 10
37.719119
 20
44.032212
 30
0.0
 10
37.855121
 20
44.046239
 30
0.0
 10
37.994398
 20
44.046239
 30
0.0
  0
LWPOLYLINE
  5
28b
100
AcDbEntity
  8
Layer_1
 62
7
100
AcDbPolyline
 90
2
 70
0
 10
45.956183
 20
21.982365
 30
0.0
 10
45.956183
 20
21.982365
 30
0.0
  0
SPLINE
  5
28c
100
AcDbEntity
  8
Layer_1
 62
7
100
AcDbSpline
 70
8
 71
3
 72
8
 73
4
 74
0
 40
0
 40
0
 40
0
 40
0
 40
1
 40
1
 40
1
 40
1
 10
27.994418
 20
44.046239
 30
0.0
 10
28.133694
 20
44.046239
 30
0.0
 10
28.269698
 20
44.032128
 30
0.0
 10
28.401044
 20
44.005119
 30
0.0
  0
SPLINE
  5
28d
100
AcDbEntity
  8
Layer_1
 62
7
100
AcDbSpline
 70
8
 71
3
 72
8
 73
4
 74
0
 40
0
 40
0
 40
0
 40
0
 40
1
 40
1
 40
1
 40
1
 10
28.401044
 20
44.005119
 30
0.0
 10
28.532390
 20
43.978308
 30
0.0
 10
28.659080
 20
43.938402
 30
0.0
 10
28.779758
 20
43.887207
 30
0.0
  0
SPLINE
  5
28e
100
AcDbEntity
  8
Layer_1
 62
7
100
AcDbSpline
 70
8
 71
3
 72
8
 73
4
 74
0
 40
0
 40
0
 40
0
 40
0
 40
1
 40
1
 40
1
 40
1
 10
28.779758
 20
43.887207
 30
0.0
 10
28.900464
 20
43.836011
 30
0.0
 10
29.015159
 20
43.773358
 30
0.0
 10
29.122489
 20
43.700629
 30
0.0
  0
SPLINE
  5
28f
100
AcDbEntity
  8
Layer_1
 62
7
100
AcDbSpline
 70
8
 71
3
 72
8
 73
4
 74
0
 40
0
 40
0
 40
0
 40
0
 40
1
 40
1
 40
1
 40
1
 10
29.122489
 20
43.700629
 30
0.0
 10
29.229818
 20
43.627873
 30
0.0
 10
29.329809
 20
43.545069
 30
0.0
 10
29.421108
 20
43.453516
 30
0.0
  0
SPLINE
  5
290
100
AcDbEntity
  8
Layer_1
 62
7
100
AcDbSpline
 70
8
 71
3
 72
8
 73
4
 74
0
 40
0
 40
0
 40
0
 40
0
 40
1
 40
1
 40
1
 40
1
 10
29.421108
 20
43.453516
 30
0.0
 10
29.512379
 20
43.361935
 30
0.0
 10
29.594957
 20
43.261661
 30
0.0
 10
29.667460
 20
43.153993
 30
0.0
  0
SPLINE
  5
291
100
AcDbEntity
  8
Layer_1
 62
7
100
AcDbSpline
 70
8
 71
3
 72
8
 73
4
 74
0
 40
0
 40
0
 40
0
 40
0
 40
1
 40
1
 40
1
 40
1
 10
29.667460
 20
43.153993
 30
0.0
 10
29.739991
 20
43.046325
 30
0.0
 10
29.802447
 20
42.931292
 30
0.0
 10
29.853501
 20
42.810218
 30
0.0
  0
SPLINE
  5
292
100
AcDbEntity
  8
Layer_1
 62
7
100
AcDbSpline
 70
8
 71
3
 72
8
 73
4
 74
0
 40
0
 40
0
 40
0
 40
0
 40
1
 40
1
 40
1
 40
1
 10
29.853501
 20
42.810218
 30
0.0
 10
29.904555
 20
42.689173
 30
0.0
 10
29.944179
 20
42.562089
 30
0.0
 10
29.971046
 20
42.430347
 30
0.0
  0
SPLINE
  5
293
100
AcDbEntity
  8
Layer_1
 62
7
100
AcDbSpline
 70
8
 71
3
 72
8
 73
4
 74
0
 40
0
 40
0
 40
0
 40
0
 40
1
 40
1
 40
1
 40
1
 10
29.971046
 20
42.430347
 30
0.0
 10
29.997857
 20
42.298606
 30
0.0
 10
30.012053
 20
42.162208
 30
0.0
 10
30.012053
 20
42.022508
 30
0.0
  0
SPLINE
  5
294
100
AcDbEntity
  8
Layer_1
 62
7
100
AcDbSpline
 70
8
 71
3
 72
8
 73
4
 74
0
 40
0
 40
0
 40
0
 40
0
 40
1
 40
1
 40
1
 40
1
 10
30.012053
 20
42.022508
 30
0.0
 10
30.012053
 20
41.882780
 30
0.0
 10
29.997942
 20
41.746382
 30
0.0
 10
29.971046
 20
41.614640
 30
0.0
  0
SPLINE
  5
295
100
AcDbEntity
  8
Layer_1
 62
7
100
AcDbSpline
 70
8
 71
3
 72
8
 73
4
 74
0
 40
0
 40
0
 40
0
 40
0
 40
1
 40
1
 40
1
 40
1
 10
29.971046
 20
41.614640
 30
0.0
 10
29.944235
 20
41.482899
 30
0.0
 10
29.904555
 20
41.355814
 30
0.0
 10
29.853501
 20
41.234769
 30
0.0
  0
SPLINE
  5
296
100
AcDbEntity
  8
Layer_1
 62
7
100
AcDbSpline
 70
8
 71
3
 72
8
 73
4
 74
0
 40
0
 40
0
 40
0
 40
0
 40
1
 40
1
 40
1
 40
1
 10
29.853501
 20
41.234769
 30
0.0
 10
29.802447
 20
41.113696
 30
0.0
 10
29.739991
 20
40.998662
 30
0.0
 10
29.667460
 20
40.890994
 30
0.0
  0
SPLINE
  5
297
100
AcDbEntity
  8
Layer_1
 62
7
100
AcDbSpline
 70
8
 71
3
 72
8
 73
4
 74
0
 40
0
 40
0
 40
0
 40
0
 40
1
 40
1
 40
1
 40
1
 10
29.667460
 20
40.890994
 30
0.0
 10
29.594957
 20
40.783327
 30
0.0
 10
29.512379
 20
40.683053
 30
0.0
 10
29.421108
 20
40.591500
 30
0.0
  0
SPLINE
  5
298
100
AcDbEntity
  8
Layer_1
 62
7
100
AcDbSpline
 70
8
 71
3
 72
8
 73
4
 74
0
 40
0
 40
0
 40
0
 40
0
 40
1
 40
1
 40
1
 40
1
 10
29.421108
 20
40.591500
 30
0.0
 10
29.329809
 20
40.499947
 30
0.0
 10
29.229818
 20
40.417115
 30
0.0
 10
29.122489
 20
40.344358
 30
0.0
  0
SPLINE
  5
299
100
AcDbEntity
  8
Layer_1
 62
7
100
AcDbSpline
 70
8
 71
3
 72
8
 73
4
 74
0
 40
0
 40
0
 40
0
 40
0
 40
1
 40
1
 40
1
 40
1
 10
29.122489
 20
40.344358
 30
0.0
 10
29.015159
 20
40.271629
 30
0.0
 10
28.900464
 20
40.208976
 30
0.0
 10
28.779758
 20
40.157781
 30
0.0
  0
SPLINE
  5
29a
100
AcDbEntity
  8
Layer_1
 62
7
100
AcDbSpline
 70
8
 71
3
 72
8
 73
4
 74
0
 40
0
 40
0
 40
0
 40
0
 40
1
 40
1
 40
1
 40
1
 10
28.779758
 20
40.157781
 30
0.0
 10
28.659080
 20
40.106586
 30
0.0
 10
28.532390
 20
40.066821
 30
0.0
 10
28.401044
 20
40.039869
 30
0.0
  0
SPLINE
  5
29b
100
AcDbEntity
  8
Layer_1
 62
7
100
AcDbSpline
 70
8
 71
3
 72
8
 73
4
 74
0
 40
0
 40
0
 40
0
 40
0
 40
1
 40
1
 40
1
 40
1
 10
28.401044
 20
40.039869
 30
0.0
 10
28.269698
 20
40.012775
 30
0.0
 10
28.133694
 20
39.998749
 30
0.0
 10
27.994418
 20
39.998749
 30
0.0
  0
SPLINE
  5
29c
100
AcDbEntity
  8
Layer_1
 62
7
100
AcDbSpline
 70
8
 71
3
 72
8
 73
4
 74
0
 40
0
 40
0
 40
0
 40
0
 40
1
 40
1
 40
1
 40
1
 10
27.994418
 20
39.998749
 30
0.0
 10
27.855113
 20
39.998749
 30
0.0
 10
27.719138
 20
40.012860
 30
0.0
 10
27.587792
 20
40.039869
 30
0.0
  0
SPLINE
  5
29d
100
AcDbEntity
  8
Layer_1
 62
7
100
AcDbSpline
 70
8
 71
3
 72
8
 73
4
 74
0
 40
0
 40
0
 40
0
 40
0
 40
1
 40
1
 40
1
 40
1
 10
27.587792
 20
40.039869
 30
0.0
 10
27.456446
 20
40.066680
 30
0.0
 10
27.329756
 20
40.106586
 30
0.0
 10
27.209050
 20
40.157781
 30
0.0
  0
SPLINE
  5
29e
100
AcDbEntity
  8
Layer_1
 62
7
100
AcDbSpline
 70
8
 71
3
 72
8
 73
4
 74
0
 40
0
 40
0
 40
0
 40
0
 40
1
 40
1
 40
1
 40
1
 10
27.209050
 20
40.157781
 30
0.0
 10
27.088372
 20
40.208976
 30
0.0
 10
26.973676
 20
40.271629
 30
0.0
 10
26.866319
 20
40.344358
 30
0.0
  0
SPLINE
  5
29f
100
AcDbEntity
  8
Layer_1
 62
7
100
AcDbSpline
 70
8
 71
3
 72
8
 73
4
 74
0
 40
0
 40
0
 40
0
 40
0
 40
1
 40
1
 40
1
 40
1
 10
26.866319
 20
40.344358
 30
0.0
 10
26.758990
 20
40.417115
 30
0.0
 10
26.658999
 20
40.499947
 30
0.0
 10
26.567728
 20
40.591500
 30
0.0
  0
SPLINE
  5
2a0
100
AcDbEntity
  8
Layer_1
 62
7
100
AcDbSpline
 70
8
 71
3
 72
8
 73
4
 74
0
 40
0
 40
0
 40
0
 40
0
 40
1
 40
1
 40
1
 40
1
 10
26.567728
 20
40.591500
 30
0.0
 10
26.476457
 20
40.683053
 30
0.0
 10
26.393879
 20
40.783327
 30
0.0
 10
26.321348
 20
40.890994
 30
0.0
  0
SPLINE
  5
2a1
100
AcDbEntity
  8
Layer_1
 62
7
100
AcDbSpline
 70
8
 71
3
 72
8
 73
4
 74
0
 40
0
 40
0
 40
0
 40
0
 40
1
 40
1
 40
1
 40
1
 10
26.321348
 20
40.890994
 30
0.0
 10
26.248845
 20
40.998662
 30
0.0
 10
26.186389
 20
41.113696
 30
0.0
 10
26.135335
 20
41.234769
 30
0.0
  0
SPLINE
  5
2a2
100
AcDbEntity
  8
Layer_1
 62
7
100
AcDbSpline
 70
8
 71
3
 72
8
 73
4
 74
0
 40
0
 40
0
 40
0
 40
0
 40
1
 40
1
 40
1
 40
1
 10
26.135335
 20
41.234769
 30
0.0
 10
26.084281
 20
41.355814
 30
0.0
 10
26.044629
 20
41.482899
 30
0.0
 10
26.017762
 20
41.614640
 30
0.0
  0
SPLINE
  5
2a3
100
AcDbEntity
  8
Layer_1
 62
7
100
AcDbSpline
 70
8
 71
3
 72
8
 73
4
 74
0
 40
0
 40
0
 40
0
 40
0
 40
1
 40
1
 40
1
 40
1
 10
26.017762
 20
41.614640
 30
0.0
 10
25.990950
 20
41.746382
 30
0.0
 10
25.976783
 20
41.882780
 30
0.0
 10
25.976783
 20
42.022508
 30
0.0
  0
SPLINE
  5
2a4
100
AcDbEntity
  8
Layer_1
 62
7
100
AcDbSpline
 70
8
 71
3
 72
8
 73
4
 74
0
 40
0
 40
0
 40
0
 40
0
 40
1
 40
1
 40
1
 40
1
 10
25.976783
 20
42.022508
 30
0.0
 10
25.976783
 20
42.162208
 30
0.0
 10
25.990894
 20
42.298606
 30
0.0
 10
26.017762
 20
42.430347
 30
0.0
  0
SPLINE
  5
2a5
100
AcDbEntity
  8
Layer_1
 62
7
100
AcDbSpline
 70
8
 71
3
 72
8
 73
4
 74
0
 40
0
 40
0
 40
0
 40
0
 40
1
 40
1
 40
1
 40
1
 10
26.017762
 20
42.430347
 30
0.0
 10
26.044573
 20
42.562089
 30
0.0
 10
26.084281
 20
42.689173
 30
0.0
 10
26.135335
 20
42.810218
 30
0.0
  0
SPLINE
  5
2a6
100
AcDbEntity
  8
Layer_1
 62
7
100
AcDbSpline
 70
8
 71
3
 72
8
 73
4
 74
0
 40
0
 40
0
 40
0
 40
0
 40
1
 40
1
 40
1
 40
1
 10
26.135335
 20
42.810218
 30
0.0
 10
26.186389
 20
42.931292
 30
0.0
 10
26.248845
 20
43.046325
 30
0.0
 10
26.321348
 20
43.153993
 30
0.0
  0
SPLINE
  5
2a7
100
AcDbEntity
  8
Layer_1
 62
7
100
AcDbSpline
 70
8
 71
3
 72
8
 73
4
 74
0
 40
0
 40
0
 40
0
 40
0
 40
1
 40
1
 40
1
 40
1
 10
26.321348
 20
43.153993
 30
0.0
 10
26.393879
 20
43.261661
 30
0.0
 10
26.476457
 20
43.361935
 30
0.0
 10
26.567728
 20
43.453516
 30
0.0
  0
SPLINE
  5
2a8
100
AcDbEntity
  8
Layer_1
 62
7
100
AcDbSpline
 70
8
 71
3
 72
8
 73
4
 74
0
 40
0
 40
0
 40
0
 40
0
 40
1
 40
1
 40
1
 40
1
 10
26.567728
 20
43.453516
 30
0.0
 10
26.658999
 20
43.545069
 30
0.0
 10
26.758990
 20
43.627873
 30
0.0
 10
26.866319
 20
43.700629
 30
0.0
  0
SPLINE
  5
2a9
100
AcDbEntity
  8
Layer_1
 62
7
100
AcDbSpline
 70
8
 71
3
 72
8
 73
4
 74
0
 40
0
 40
0
 40
0
 40
0
 40
1
 40
1
 40
1
 40
1
 10
26.866319
 20
43.700629
 30
0.0
 10
26.973676
 20
43.773358
 30
0.0
 10
27.088372
 20
43.836011
 30
0.0
 10
27.209050
 20
43.887207
 30
0.0
  0
SPLINE
  5
2aa
100
AcDbEntity
  8
Layer_1
 62
7
100
AcDbSpline
 70
8
 71
3
 72
8
 73
4
 74
0
 40
0
 40
0
 40
0
 40
0
 40
1
 40
1
 40
1
 40
1
 10
27.209050
 20
43.887207
 30
0.0
 10
27.329756
 20
43.938402
 30
0.0
 10
27.456446
 20
43.978167
 30
0.0
 10
27.587792
 20
44.005119
 30
0.0
  0
SPLINE
  5
2ab
100
AcDbEntity
  8
Layer_1
 62
7
100
AcDbSpline
 70
8
 71
3
 72
8
 73
4
 74
0
 40
0
 40
0
 40
0
 40
0
 40
1
 40
1
 40
1
 40
1
 10
27.587792
 20
44.005119
 30
0.0
 10
27.719138
 20
44.032212
 30
0.0
 10
27.855113
 20
44.046239
 30
0.0
 10
27.994418
 20
44.046239
 30
0.0
  0
LWPOLYLINE
  5
2ac
100
AcDbEntity
  8
Layer_1
 62
7
100
AcDbPolyline
 90
2
 70
0
 10
37.994398
 20
44.046239
 30
0.0
 10
37.994398
 20
44.046239
 30
0.0
  0
SPLINE
  5
2ad
100
AcDbEntity
  8
Layer_1
 62
7
100
AcDbSpline
 70
8
 71
3
 72
8
 73
4
 74
0
 40
0
 40
0
 40
0
 40
0
 40
1
 40
1
 40
1
 40
1
 10
17.994415
 20
44.046239
 30
0.0
 10
18.133720
 20
44.046239
 30
0.0
 10
18.269695
 20
44.032128
 30
0.0
 10
18.401041
 20
44.005119
 30
0.0
  0
SPLINE
  5
2ae
100
AcDbEntity
  8
Layer_1
 62
7
100
AcDbSpline
 70
8
 71
3
 72
8
 73
4
 74
0
 40
0
 40
0
 40
0
 40
0
 40
1
 40
1
 40
1
 40
1
 10
18.401041
 20
44.005119
 30
0.0
 10
18.532387
 20
43.978308
 30
0.0
 10
18.659077
 20
43.938402
 30
0.0
 10
18.779780
 20
43.887207
 30
0.0
  0
SPLINE
  5
2af
100
AcDbEntity
  8
Layer_1
 62
7
100
AcDbSpline
 70
8
 71
3
 72
8
 73
4
 74
0
 40
0
 40
0
 40
0
 40
0
 40
1
 40
1
 40
1
 40
1
 10
18.779780
 20
43.887207
 30
0.0
 10
18.900459
 20
43.836011
 30
0.0
 10
19.015154
 20
43.773358
 30
0.0
 10
19.122511
 20
43.700629
 30
0.0
  0
SPLINE
  5
2b0
100
AcDbEntity
  8
Layer_1
 62
7
100
AcDbSpline
 70
8
 71
3
 72
8
 73
4
 74
0
 40
0
 40
0
 40
0
 40
0
 40
1
 40
1
 40
1
 40
1
 10
19.122511
 20
43.700629
 30
0.0
 10
19.229840
 20
43.627873
 30
0.0
 10
19.329832
 20
43.545069
 30
0.0
 10
19.421102
 20
43.453516
 30
0.0
  0
SPLINE
  5
2b1
100
AcDbEntity
  8
Layer_1
 62
7
100
AcDbSpline
 70
8
 71
3
 72
8
 73
4
 74
0
 40
0
 40
0
 40
0
 40
0
 40
1
 40
1
 40
1
 40
1
 10
19.421102
 20
43.453516
 30
0.0
 10
19.512373
 20
43.361935
 30
0.0
 10
19.594951
 20
43.261661
 30
0.0
 10
19.667482
 20
43.153993
 30
0.0
  0
SPLINE
  5
2b2
100
AcDbEntity
  8
Layer_1
 62
7
100
AcDbSpline
 70
8
 71
3
 72
8
 73
4
 74
0
 40
0
 40
0
 40
0
 40
0
 40
1
 40
1
 40
1
 40
1
 10
19.667482
 20
43.153993
 30
0.0
 10
19.739985
 20
43.046325
 30
0.0
 10
19.802441
 20
42.931292
 30
0.0
 10
19.853495
 20
42.810218
 30
0.0
  0
SPLINE
  5
2b3
100
AcDbEntity
  8
Layer_1
 62
7
100
AcDbSpline
 70
8
 71
3
 72
8
 73
4
 74
0
 40
0
 40
0
 40
0
 40
0
 40
1
 40
1
 40
1
 40
1
 10
19.853495
 20
42.810218
 30
0.0
 10
19.904549
 20
42.689173
 30
0.0
 10
19.944201
 20
42.562089
 30
0.0
 10
19.971069
 20
42.430347
 30
0.0
  0
SPLINE
  5
2b4
100
AcDbEntity
  8
Layer_1
 62
7
100
AcDbSpline
 70
8
 71
3
 72
8
 73
4
 74
0
 40
0
 40
0
 40
0
 40
0
 40
1
 40
1
 40
1
 40
1
 10
19.971069
 20
42.430347
 30
0.0
 10
19.997880
 20
42.298606
 30
0.0
 10
20.012047
 20
42.162208
 30
0.0
 10
20.012047
 20
42.022508
 30
0.0
  0
SPLINE
  5
2b5
100
AcDbEntity
  8
Layer_1
 62
7
100
AcDbSpline
 70
8
 71
3
 72
8
 73
4
 74
0
 40
0
 40
0
 40
0
 40
0
 40
1
 40
1
 40
1
 40
1
 10
20.012047
 20
42.022508
 30
0.0
 10
20.012047
 20
41.882780
 30
0.0
 10
19.997936
 20
41.746382
 30
0.0
 10
19.971069
 20
41.614640
 30
0.0
  0
SPLINE
  5
2b6
100
AcDbEntity
  8
Layer_1
 62
7
100
AcDbSpline
 70
8
 71
3
 72
8
 73
4
 74
0
 40
0
 40
0
 40
0
 40
0
 40
1
 40
1
 40
1
 40
1
 10
19.971069
 20
41.614640
 30
0.0
 10
19.944258
 20
41.482899
 30
0.0
 10
19.904549
 20
41.355814
 30
0.0
 10
19.853495
 20
41.234769
 30
0.0
  0
SPLINE
  5
2b7
100
AcDbEntity
  8
Layer_1
 62
7
100
AcDbSpline
 70
8
 71
3
 72
8
 73
4
 74
0
 40
0
 40
0
 40
0
 40
0
 40
1
 40
1
 40
1
 40
1
 10
19.853495
 20
41.234769
 30
0.0
 10
19.802441
 20
41.113696
 30
0.0
 10
19.739985
 20
40.998662
 30
0.0
 10
19.667482
 20
40.890994
 30
0.0
  0
SPLINE
  5
2b8
100
AcDbEntity
  8
Layer_1
 62
7
100
AcDbSpline
 70
8
 71
3
 72
8
 73
4
 74
0
 40
0
 40
0
 40
0
 40
0
 40
1
 40
1
 40
1
 40
1
 10
19.667482
 20
40.890994
 30
0.0
 10
19.594951
 20
40.783327
 30
0.0
 10
19.512373
 20
40.683053
 30
0.0
 10
19.421102
 20
40.591500
 30
0.0
  0
SPLINE
  5
2b9
100
AcDbEntity
  8
Layer_1
 62
7
100
AcDbSpline
 70
8
 71
3
 72
8
 73
4
 74
0
 40
0
 40
0
 40
0
 40
0
 40
1
 40
1
 40
1
 40
1
 10
19.421102
 20
40.591500
 30
0.0
 10
19.329832
 20
40.499947
 30
0.0
 10
19.229840
 20
40.417115
 30
0.0
 10
19.122511
 20
40.344358
 30
0.0
  0
SPLINE
  5
2ba
100
AcDbEntity
  8
Layer_1
 62
7
100
AcDbSpline
 70
8
 71
3
 72
8
 73
4
 74
0
 40
0
 40
0
 40
0
 40
0
 40
1
 40
1
 40
1
 40
1
 10
19.122511
 20
40.344358
 30
0.0
 10
19.015154
 20
40.271629
 30
0.0
 10
18.900459
 20
40.208976
 30
0.0
 10
18.779780
 20
40.157781
 30
0.0
  0
SPLINE
  5
2bb
100
AcDbEntity
  8
Layer_1
 62
7
100
AcDbSpline
 70
8
 71
3
 72
8
 73
4
 74
0
 40
0
 40
0
 40
0
 40
0
 40
1
 40
1
 40
1
 40
1
 10
18.779780
 20
40.157781
 30
0.0
 10
18.659077
 20
40.106586
 30
0.0
 10
18.532387
 20
40.066821
 30
0.0
 10
18.401041
 20
40.039869
 30
0.0
  0
SPLINE
  5
2bc
100
AcDbEntity
  8
Layer_1
 62
7
100
AcDbSpline
 70
8
 71
3
 72
8
 73
4
 74
0
 40
0
 40
0
 40
0
 40
0
 40
1
 40
1
 40
1
 40
1
 10
18.401041
 20
40.039869
 30
0.0
 10
18.269695
 20
40.012775
 30
0.0
 10
18.133720
 20
39.998749
 30
0.0
 10
17.994415
 20
39.998749
 30
0.0
  0
SPLINE
  5
2bd
100
AcDbEntity
  8
Layer_1
 62
7
100
AcDbSpline
 70
8
 71
3
 72
8
 73
4
 74
0
 40
0
 40
0
 40
0
 40
0
 40
1
 40
1
 40
1
 40
1
 10
17.994415
 20
39.998749
 30
0.0
 10
17.855139
 20
39.998749
 30
0.0
 10
17.719136
 20
40.012860
 30
0.0
 10
17.587789
 20
40.039869
 30
0.0
  0
SPLINE
  5
2be
100
AcDbEntity
  8
Layer_1
 62
7
100
AcDbSpline
 70
8
 71
3
 72
8
 73
4
 74
0
 40
0
 40
0
 40
0
 40
0
 40
1
 40
1
 40
1
 40
1
 10
17.587789
 20
40.039869
 30
0.0
 10
17.456443
 20
40.066680
 30
0.0
 10
17.329754
 20
40.106586
 30
0.0
 10
17.209075
 20
40.157781
 30
0.0
  0
SPLINE
  5
2bf
100
AcDbEntity
  8
Layer_1
 62
7
100
AcDbSpline
 70
8
 71
3
 72
8
 73
4
 74
0
 40
0
 40
0
 40
0
 40
0
 40
1
 40
1
 40
1
 40
1
 10
17.209075
 20
40.157781
 30
0.0
 10
17.088369
 20
40.208976
 30
0.0
 10
16.973674
 20
40.271629
 30
0.0
 10
16.866345
 20
40.344358
 30
0.0
  0
SPLINE
  5
2c0
100
AcDbEntity
  8
Layer_1
 62
7
100
AcDbSpline
 70
8
 71
3
 72
8
 73
4
 74
0
 40
0
 40
0
 40
0
 40
0
 40
1
 40
1
 40
1
 40
1
 10
16.866345
 20
40.344358
 30
0.0
 10
16.758987
 20
40.417115
 30
0.0
 10
16.659024
 20
40.499947
 30
0.0
 10
16.567725
 20
40.591500
 30
0.0
  0
SPLINE
  5
2c1
100
AcDbEntity
  8
Layer_1
 62
7
100
AcDbSpline
 70
8
 71
3
 72
8
 73
4
 74
0
 40
0
 40
0
 40
0
 40
0
 40
1
 40
1
 40
1
 40
1
 10
16.567725
 20
40.591500
 30
0.0
 10
16.476455
 20
40.683053
 30
0.0
 10
16.393877
 20
40.783327
 30
0.0
 10
16.321374
 20
40.890994
 30
0.0
  0
SPLINE
  5
2c2
100
AcDbEntity
  8
Layer_1
 62
7
100
AcDbSpline
 70
8
 71
3
 72
8
 73
4
 74
0
 40
0
 40
0
 40
0
 40
0
 40
1
 40
1
 40
1
 40
1
 10
16.321374
 20
40.890994
 30
0.0
 10
16.248843
 20
40.998662
 30
0.0
 10
16.186387
 20
41.113696
 30
0.0
 10
16.135333
 20
41.234769
 30
0.0
  0
SPLINE
  5
2c3
100
AcDbEntity
  8
Layer_1
 62
7
100
AcDbSpline
 70
8
 71
3
 72
8
 73
4
 74
0
 40
0
 40
0
 40
0
 40
0
 40
1
 40
1
 40
1
 40
1
 10
16.135333
 20
41.234769
 30
0.0
 10
16.084279
 20
41.355814
 30
0.0
 10
16.044655
 20
41.482899
 30
0.0
 10
16.017787
 20
41.614640
 30
0.0
  0
SPLINE
  5
2c4
100
AcDbEntity
  8
Layer_1
 62
7
100
AcDbSpline
 70
8
 71
3
 72
8
 73
4
 74
0
 40
0
 40
0
 40
0
 40
0
 40
1
 40
1
 40
1
 40
1
 10
16.017787
 20
41.614640
 30
0.0
 10
15.990976
 20
41.746382
 30
0.0
 10
15.976780
 20
41.882780
 30
0.0
 10
15.976780
 20
42.022508
 30
0.0
  0
SPLINE
  5
2c5
100
AcDbEntity
  8
Layer_1
 62
7
100
AcDbSpline
 70
8
 71
3
 72
8
 73
4
 74
0
 40
0
 40
0
 40
0
 40
0
 40
1
 40
1
 40
1
 40
1
 10
15.976780
 20
42.022508
 30
0.0
 10
15.976780
 20
42.162208
 30
0.0
 10
15.990891
 20
42.298606
 30
0.0
 10
16.017787
 20
42.430347
 30
0.0
  0
SPLINE
  5
2c6
100
AcDbEntity
  8
Layer_1
 62
7
100
AcDbSpline
 70
8
 71
3
 72
8
 73
4
 74
0
 40
0
 40
0
 40
0
 40
0
 40
1
 40
1
 40
1
 40
1
 10
16.017787
 20
42.430347
 30
0.0
 10
16.044598
 20
42.562089
 30
0.0
 10
16.084279
 20
42.689173
 30
0.0
 10
16.135333
 20
42.810218
 30
0.0
  0
SPLINE
  5
2c7
100
AcDbEntity
  8
Layer_1
 62
7
100
AcDbSpline
 70
8
 71
3
 72
8
 73
4
 74
0
 40
0
 40
0
 40
0
 40
0
 40
1
 40
1
 40
1
 40
1
 10
16.135333
 20
42.810218
 30
0.0
 10
16.186387
 20
42.931292
 30
0.0
 10
16.248843
 20
43.046325
 30
0.0
 10
16.321374
 20
43.153993
 30
0.0
  0
SPLINE
  5
2c8
100
AcDbEntity
  8
Layer_1
 62
7
100
AcDbSpline
 70
8
 71
3
 72
8
 73
4
 74
0
 40
0
 40
0
 40
0
 40
0
 40
1
 40
1
 40
1
 40
1
 10
16.321374
 20
43.153993
 30
0.0
 10
16.393877
 20
43.261661
 30
0.0
 10
16.476455
 20
43.361935
 30
0.0
 10
16.567725
 20
43.453516
 30
0.0
  0
SPLINE
  5
2c9
100
AcDbEntity
  8
Layer_1
 62
7
100
AcDbSpline
 70
8
 71
3
 72
8
 73
4
 74
0
 40
0
 40
0
 40
0
 40
0
 40
1
 40
1
 40
1
 40
1
 10
16.567725
 20
43.453516
 30
0.0
 10
16.659024
 20
43.545069
 30
0.0
 10
16.758987
 20
43.627873
 30
0.0
 10
16.866345
 20
43.700629
 30
0.0
  0
SPLINE
  5
2ca
100
AcDbEntity
  8
Layer_1
 62
7
100
AcDbSpline
 70
8
 71
3
 72
8
 73
4
 74
0
 40
0
 40
0
 40
0
 40
0
 40
1
 40
1
 40
1
 40
1
 10
16.866345
 20
43.700629
 30
0.0
 10
16.973674
 20
43.773358
 30
0.0
 10
17.088369
 20
43.836011
 30
0.0
 10
17.209075
 20
43.887207
 30
0.0
  0
SPLINE
  5
2cb
100
AcDbEntity
  8
Layer_1
 62
7
100
AcDbSpline
 70
8
 71
3
 72
8
 73
4
 74
0
 40
0
 40
0
 40
0
 40
0
 40
1
 40
1
 40
1
 40
1
 10
17.209075
 20
43.887207
 30
0.0
 10
17.329754
 20
43.938402
 30
0.0
 10
17.456443
 20
43.978167
 30
0.0
 10
17.587789
 20
44.005119
 30
0.0
  0
SPLINE
  5
2cc
100
AcDbEntity
  8
Layer_1
 62
7
100
AcDbSpline
 70
8
 71
3
 72
8
 73
4
 74
0
 40
0
 40
0
 40
0
 40
0
 40
1
 40
1
 40
1
 40
1
 10
17.587789
 20
44.005119
 30
0.0
 10
17.719136
 20
44.032212
 30
0.0
 10
17.855139
 20
44.046239
 30
0.0
 10
17.994415
 20
44.046239
 30
0.0
  0
LWPOLYLINE
  5
2cd
100
AcDbEntity
  8
Layer_1
 62
7
100
AcDbPolyline
 90
2
 70
0
 10
27.994418
 20
44.046239
 30
0.0
 10
27.994418
 20
44.046239
 30
0.0
  0
LWPOLYLINE
  5
2ce
100
AcDbEntity
  8
Layer_1
 62
7
100
AcDbPolyline
 90
2
 70
0
 10
17.994415
 20
44.046239
 30
0.0
 10
17.994415
 20
44.046239
 30
0.0
  0
ENDSEC
  0
SECTION
  2
OBJECTS
  0
DICTIONARY
  5
C
330
0
100
AcDbDictionary
  3
ACAD_GROUP
350
D
  3
ACAD_MLINESTYLE
350
17
  0
DICTIONARY
  5
D
330
C
100
AcDbDictionary
  0
DICTIONARY
  5
1A
330
C
100
AcDbDictionary
  0
DICTIONARY
  5
17
330
C
100
AcDbDictionary
  3
STANDARD
350
18
  0
DICTIONARY
  5
19
330
C
100
AcDbDictionary
  0
ENDSEC
  0
EOF
