  0
SECTION
  2
HEADER
  9
$ACADVER
  1
AC1014
  9
$HANDSEED
  5
FFFF
  9
$MEASUREMENT
 70
     1
  0
ENDSEC
  0
SECTION
  2
TABLES
  0
TABLE
  2
VPORT
  5
8
330
0
100
AcDbSymbolTable
 70
     4
  0
VPORT
  5
2E
330
8
100
AcDbSymbolTableRecord
100
AcDbViewportTableRecord
  2
*ACTIVE
 70
     0
 10
0.0
 20
0.0
 11
1.0
 21
1.0
 12
210.0
 22
148.5
 13
0.0
 23
0.0
 14
10.0
 24
10.0
 15
10.0
 25
10.0
 16
0.0
 26
0.0
 36
1.0
 17
0.0
 27
0.0
 37
0.0
 40
341.0
 41
1.24
 42
50.0
 43
0.0
 44
0.0
 50
0.0
 51
0.0
 71
     0
 72
   100
 73
     1
 74
     3
 75
     0
 76
     0
 77
     0
 78
     0
  0
ENDTAB
  0
TABLE
  2
LTYPE
  5
5
330
0
100
AcDbSymbolTable
 70
     1
  0
LTYPE
  5
14
330
5
100
AcDbSymbolTableRecord
100
AcDbLinetypeTableRecord
  2
BYBLOCK
 70
     0
  3

 72
    65
 73
     0
 40
0.0
  0
LTYPE
  5
15
330
5
100
AcDbSymbolTableRecord
100
AcDbLinetypeTableRecord
  2
BYLAYER
 70
     0
  3

 72
    65
 73
     0
 40
0.0
  0
LTYPE
  5
16
330
5
100
AcDbSymbolTableRecord
100
AcDbLinetypeTableRecord
  2
CONTINUOUS
 70
     0
  3
Solid line
 72
    65
 73
     0
 40
0.0
  0
ENDTAB
  0
TABLE
  2
LAYER
  5
2
100
AcDbSymbolTable
 70
2
  0
LAYER
  5
50
100
AcDbSymbolTableRecord
100
AcDbLayerTableRecord
  2
0
 70
0
  6
CONTINUOUS
  0
LAYER
  5
51
100
AcDbSymbolTableRecord
100
AcDbLayerTableRecord
  2
Layer_1
 70
0
  6
CONTINUOUS
  0
ENDTAB
  0
TABLE
  2
STYLE
  5
3
330
0
100
AcDbSymbolTable
 70
     1
  0
STYLE
  5
11
330
3
100
AcDbSymbolTableRecord
100
AcDbTextStyleTableRecord
  2
STANDARD
 70
     0
 40
0.0
 41
1.0
 50
0.0
 71
     0
 42
2.5
  3
txt
  4

  0
ENDTAB
  0
TABLE
  2
VIEW
  5
6
330
0
100
AcDbSymbolTable
 70
     0
  0
ENDTAB
  0
TABLE
  2
UCS
  5
7
330
0
100
AcDbSymbolTable
 70
     0
  0
ENDTAB
  0
TABLE
  2
APPID
  5
9
330
0
100
AcDbSymbolTable
 70
     2
  0
APPID
  5
12
330
9
100
AcDbSymbolTableRecord
100
AcDbRegAppTableRecord
  2
ACAD
 70
     0
  0
ENDTAB
  0
TABLE
  2
DIMSTYLE
  5
A
330
0
100
AcDbSymbolTable
 70
     1
  0
DIMSTYLE
105
27
330
A
100
AcDbSymbolTableRecord
100
AcDbDimStyleTableRecord
  2
ISO-25
 70
     0
  3

  4

  5

  6

  7

 40
1.0
 41
2.5
 42
0.625
 43
3.75
 44
1.25
 45
0.0
 46
0.0
 47
0.0
 48
0.0
140
2.5
141
2.5
142
0.0
143
0.03937007874016
144
1.0
145
0.0
146
1.0
147
0.625
 71
     0
 72
     0
 73
     0
 74
     0
 75
     0
 76
     0
 77
     1
 78
     8
170
     0
171
     3
172
     1
173
     0
174
     0
175
     0
176
     0
177
     0
178
     0
270
     2
271
     2
272
     2
273
     2
274
     3
340
11
275
     0
280
     0
281
     0
282
     0
283
     0
284
     8
285
     0
286
     0
287
     3
288
     0
  0
ENDTAB
  0
TABLE
  2
BLOCK_RECORD
  5
1
330
0
100
AcDbSymbolTable
 70
     1
  0
BLOCK_RECORD
  5
1F
330
1
100
AcDbSymbolTableRecord
100
AcDbBlockTableRecord
  2
*MODEL_SPACE
  0
BLOCK_RECORD
  5
1B
330
1
100
AcDbSymbolTableRecord
100
AcDbBlockTableRecord
  2
*PAPER_SPACE
  0
ENDTAB
  0
ENDSEC
  0
SECTION
  2
BLOCKS
  0
BLOCK
  5
20
330
1F
100
AcDbEntity
  8
0
100
AcDbBlockBegin
  2
*MODEL_SPACE
 70
     0
 10
0.0
 20
0.0
 30
0.0
  3
*MODEL_SPACE
  1

  0
ENDBLK
  5
21
330
1F
100
AcDbEntity
  8
0
100
AcDbBlockEnd
  0
BLOCK
  5
1C
330
1B
100
AcDbEntity
 67
     1
  8
0
100
AcDbBlockBegin
  2
*PAPER_SPACE
  1

  0
ENDBLK
  5
1D
330
1B
100
AcDbEntity
 67
     1
  8
0
100
AcDbBlockEnd
  0
ENDSEC
  0
SECTION
  2
ENTITIES
  0
LWPOLYLINE
  5
100
100
AcDbEntity
  8
Layer_1
 62
1
100
AcDbPolyline
 90
69
 70
0
 10
4.318702
 20
74.226262
 30
0.0
 10
66.094313
 20
74.226262
 30
0.0
 10
66.515925
 20
74.205095
 30
0.0
 10
66.925090
 20
74.142992
 30
0.0
 10
67.319773
 20
74.041976
 30
0.0
 10
67.697942
 20
73.904083
 30
0.0
 10
68.057555
 20
73.731349
 30
0.0
 10
68.396580
 20
73.525809
 30
0.0
 10
68.712982
 20
73.289501
 30
0.0
 10
69.004721
 20
73.024458
 30
0.0
 10
69.269762
 20
72.732719
 30
0.0
 10
69.506072
 20
72.416320
 30
0.0
 10
69.711611
 20
72.077295
 30
0.0
 10
69.884346
 20
71.717682
 30
0.0
 10
70.022239
 20
71.339512
 30
0.0
 10
70.123255
 20
70.944827
 30
0.0
 10
70.185358
 20
70.535665
 30
0.0
 10
70.206525
 20
70.114053
 30
0.0
 10
70.206525
 20
4.318717
 30
0.0
 10
70.185358
 20
3.897105
 30
0.0
 10
70.123255
 20
3.487942
 30
0.0
 10
70.022239
 20
3.093257
 30
0.0
 10
69.884346
 20
2.715088
 30
0.0
 10
69.711611
 20
2.355475
 30
0.0
 10
69.506072
 20
2.016450
 30
0.0
 10
69.269762
 20
1.700050
 30
0.0
 10
69.004721
 20
1.408311
 30
0.0
 10
68.712982
 20
1.143268
 30
0.0
 10
68.396580
 20
0.906961
 30
0.0
 10
68.057555
 20
0.701421
 30
0.0
 10
67.697942
 20
0.528687
 30
0.0
 10
67.319773
 20
0.390793
 30
0.0
 10
66.925090
 20
0.289777
 30
0.0
 10
66.515925
 20
0.227674
 30
0.0
 10
66.094313
 20
0.206508
 30
0.0
 10
4.318702
 20
0.206508
 30
0.0
 10
3.897092
 20
0.227674
 30
0.0
 10
3.487926
 20
0.289777
 30
0.0
 10
3.093242
 20
0.390793
 30
0.0
 10
2.715074
 20
0.528687
 30
0.0
 10
2.355460
 20
0.701421
 30
0.0
 10
2.016435
 20
0.906961
 30
0.0
 10
1.700034
 20
1.143268
 30
0.0
 10
1.408295
 20
1.408311
 30
0.0
 10
1.143253
 20
1.700050
 30
0.0
 10
0.906945
 20
2.016450
 30
0.0
 10
0.701405
 20
2.355475
 30
0.0
 10
0.528671
 20
2.715088
 30
0.0
 10
0.390778
 20
3.093257
 30
0.0
 10
0.289762
 20
3.487942
 30
0.0
 10
0.227659
 20
3.897105
 30
0.0
 10
0.206507
 20
4.318717
 30
0.0
 10
0.206507
 20
70.114053
 30
0.0
 10
0.227659
 20
70.535665
 30
0.0
 10
0.289762
 20
70.944827
 30
0.0
 10
0.390778
 20
71.339512
 30
0.0
 10
0.528671
 20
71.717682
 30
0.0
 10
0.701405
 20
72.077295
 30
0.0
 10
0.906945
 20
72.416320
 30
0.0
 10
1.143253
 20
72.732719
 30
0.0
 10
1.408295
 20
73.024458
 30
0.0
 10
1.700034
 20
73.289501
 30
0.0
 10
2.016435
 20
73.525809
 30
0.0
 10
2.355460
 20
73.731349
 30
0.0
 10
2.715074
 20
73.904083
 30
0.0
 10
3.093242
 20
74.041976
 30
0.0
 10
3.487926
 20
74.142992
 30
0.0
 10
3.897092
 20
74.205095
 30
0.0
 10
4.318702
 20
74.226262
 30
0.0
  0
LWPOLYLINE
  5
101
100
AcDbEntity
  8
Layer_1
 62
1
100
AcDbPolyline
 90
33
 70
0
 10
45.206504
 20
67.202509
 30
0.0
 10
44.799880
 20
67.243624
 30
0.0
 10
44.421149
 20
67.361545
 30
0.0
 10
44.078423
 20
67.548134
 30
0.0
 10
43.779819
 20
67.795252
 30
0.0
 10
43.533447
 20
68.094761
 30
0.0
 10
43.347422
 20
68.438524
 30
0.0
 10
43.229858
 20
68.818403
 30
0.0
 10
43.188866
 20
69.226259
 30
0.0
 10
43.229858
 20
69.634116
 30
0.0
 10
43.347422
 20
70.013994
 30
0.0
 10
43.533447
 20
70.357757
 30
0.0
 10
43.779819
 20
70.657267
 30
0.0
 10
44.078423
 20
70.904385
 30
0.0
 10
44.421149
 20
71.090973
 30
0.0
 10
44.799880
 20
71.208894
 30
0.0
 10
45.206504
 20
71.250010
 30
0.0
 10
45.613128
 20
71.208894
 30
0.0
 10
45.991859
 20
71.090973
 30
0.0
 10
46.334585
 20
70.904385
 30
0.0
 10
46.633189
 20
70.657267
 30
0.0
 10
46.879562
 20
70.357757
 30
0.0
 10
47.065586
 20
70.013994
 30
0.0
 10
47.183150
 20
69.634116
 30
0.0
 10
47.224142
 20
69.226259
 30
0.0
 10
47.183150
 20
68.818403
 30
0.0
 10
47.065586
 20
68.438524
 30
0.0
 10
46.879562
 20
68.094761
 30
0.0
 10
46.633189
 20
67.795252
 30
0.0
 10
46.334585
 20
67.548134
 30
0.0
 10
45.991859
 20
67.361545
 30
0.0
 10
45.613128
 20
67.243624
 30
0.0
 10
45.206504
 20
67.202509
 30
0.0
  0
LWPOLYLINE
  5
102
100
AcDbEntity
  8
Layer_1
 62
1
100
AcDbPolyline
 90
33
 70
0
 10
35.168289
 20
67.162374
 30
0.0
 10
34.761665
 20
67.203490
 30
0.0
 10
34.382934
 20
67.321411
 30
0.0
 10
34.040208
 20
67.507999
 30
0.0
 10
33.741604
 20
67.755117
 30
0.0
 10
33.495231
 20
68.054627
 30
0.0
 10
33.309207
 20
68.398390
 30
0.0
 10
33.191643
 20
68.778268
 30
0.0
 10
33.150651
 20
69.186124
 30
0.0
 10
33.191643
 20
69.593981
 30
0.0
 10
33.309207
 20
69.973859
 30
0.0
 10
33.495231
 20
70.317623
 30
0.0
 10
33.741604
 20
70.617132
 30
0.0
 10
34.040208
 20
70.864250
 30
0.0
 10
34.382934
 20
71.050838
 30
0.0
 10
34.761665
 20
71.168759
 30
0.0
 10
35.168289
 20
71.209875
 30
0.0
 10
35.574913
 20
71.168759
 30
0.0
 10
35.953644
 20
71.050838
 30
0.0
 10
36.296370
 20
70.864250
 30
0.0
 10
36.594974
 20
70.617132
 30
0.0
 10
36.841346
 20
70.317623
 30
0.0
 10
37.027371
 20
69.973859
 30
0.0
 10
37.144935
 20
69.593981
 30
0.0
 10
37.185927
 20
69.186124
 30
0.0
 10
37.144935
 20
68.778268
 30
0.0
 10
37.027371
 20
68.398390
 30
0.0
 10
36.841346
 20
68.054627
 30
0.0
 10
36.594974
 20
67.755117
 30
0.0
 10
36.296370
 20
67.507999
 30
0.0
 10
35.953644
 20
67.321411
 30
0.0
 10
35.574913
 20
67.203490
 30
0.0
 10
35.168289
 20
67.162374
 30
0.0
  0
LWPOLYLINE
  5
103
100
AcDbEntity
  8
Layer_1
 62
1
100
AcDbPolyline
 90
33
 70
0
 10
5.206505
 20
67.202509
 30
0.0
 10
4.799881
 20
67.243624
 30
0.0
 10
4.421150
 20
67.361545
 30
0.0
 10
4.078424
 20
67.548134
 30
0.0
 10
3.779820
 20
67.795252
 30
0.0
 10
3.533448
 20
68.094761
 30
0.0
 10
3.347423
 20
68.438524
 30
0.0
 10
3.229859
 20
68.818403
 30
0.0
 10
3.188867
 20
69.226259
 30
0.0
 10
3.229859
 20
69.634116
 30
0.0
 10
3.347423
 20
70.013994
 30
0.0
 10
3.533448
 20
70.357757
 30
0.0
 10
3.779820
 20
70.657267
 30
0.0
 10
4.078424
 20
70.904385
 30
0.0
 10
4.421150
 20
71.090973
 30
0.0
 10
4.799881
 20
71.208894
 30
0.0
 10
5.206505
 20
71.250010
 30
0.0
 10
5.613129
 20
71.208894
 30
0.0
 10
5.991860
 20
71.090973
 30
0.0
 10
6.334586
 20
70.904385
 30
0.0
 10
6.633190
 20
70.657267
 30
0.0
 10
6.879563
 20
70.357757
 30
0.0
 10
7.065587
 20
70.013994
 30
0.0
 10
7.183151
 20
69.634116
 30
0.0
 10
7.224143
 20
69.226259
 30
0.0
 10
7.183151
 20
68.818403
 30
0.0
 10
7.065587
 20
68.438524
 30
0.0
 10
6.879563
 20
68.094761
 30
0.0
 10
6.633190
 20
67.795252
 30
0.0
 10
6.334586
 20
67.548134
 30
0.0
 10
5.991860
 20
67.361545
 30
0.0
 10
5.613129
 20
67.243624
 30
0.0
 10
5.206505
 20
67.202509
 30
0.0
  0
LWPOLYLINE
  5
104
100
AcDbEntity
  8
Layer_1
 62
1
100
AcDbPolyline
 90
33
 70
0
 10
25.206505
 20
67.202509
 30
0.0
 10
24.799881
 20
67.243624
 30
0.0
 10
24.421150
 20
67.361545
 30
0.0
 10
24.078424
 20
67.548134
 30
0.0
 10
23.779820
 20
67.795252
 30
0.0
 10
23.533447
 20
68.094761
 30
0.0
 10
23.347423
 20
68.438524
 30
0.0
 10
23.229859
 20
68.818403
 30
0.0
 10
23.188867
 20
69.226259
 30
0.0
 10
23.229859
 20
69.634116
 30
0.0
 10
23.347423
 20
70.013994
 30
0.0
 10
23.533447
 20
70.357757
 30
0.0
 10
23.779820
 20
70.657267
 30
0.0
 10
24.078424
 20
70.904385
 30
0.0
 10
24.421150
 20
71.090973
 30
0.0
 10
24.799881
 20
71.208894
 30
0.0
 10
25.206505
 20
71.250010
 30
0.0
 10
25.613129
 20
71.208894
 30
0.0
 10
25.991860
 20
71.090973
 30
0.0
 10
26.334586
 20
70.904385
 30
0.0
 10
26.633190
 20
70.657267
 30
0.0
 10
26.879562
 20
70.357757
 30
0.0
 10
27.065587
 20
70.013994
 30
0.0
 10
27.183151
 20
69.634116
 30
0.0
 10
27.224143
 20
69.226259
 30
0.0
 10
27.183151
 20
68.818403
 30
0.0
 10
27.065587
 20
68.438524
 30
0.0
 10
26.879562
 20
68.094761
 30
0.0
 10
26.633190
 20
67.795252
 30
0.0
 10
26.334586
 20
67.548134
 30
0.0
 10
25.991860
 20
67.361545
 30
0.0
 10
25.613129
 20
67.243624
 30
0.0
 10
25.206505
 20
67.202509
 30
0.0
  0
LWPOLYLINE
  5
105
100
AcDbEntity
  8
Layer_1
 62
1
100
AcDbPolyline
 90
33
 70
0
 10
15.206505
 20
67.202509
 30
0.0
 10
14.799881
 20
67.243624
 30
0.0
 10
14.421150
 20
67.361545
 30
0.0
 10
14.078424
 20
67.548134
 30
0.0
 10
13.779820
 20
67.795252
 30
0.0
 10
13.533448
 20
68.094761
 30
0.0
 10
13.347423
 20
68.438524
 30
0.0
 10
13.229859
 20
68.818403
 30
0.0
 10
13.188867
 20
69.226259
 30
0.0
 10
13.229859
 20
69.634116
 30
0.0
 10
13.347423
 20
70.013994
 30
0.0
 10
13.533448
 20
70.357757
 30
0.0
 10
13.779820
 20
70.657267
 30
0.0
 10
14.078424
 20
70.904385
 30
0.0
 10
14.421150
 20
71.090973
 30
0.0
 10
14.799881
 20
71.208894
 30
0.0
 10
15.206505
 20
71.250010
 30
0.0
 10
15.613129
 20
71.208894
 30
0.0
 10
15.991860
 20
71.090973
 30
0.0
 10
16.334586
 20
70.904385
 30
0.0
 10
16.633190
 20
70.657267
 30
0.0
 10
16.879562
 20
70.357757
 30
0.0
 10
17.065587
 20
70.013994
 30
0.0
 10
17.183151
 20
69.634116
 30
0.0
 10
17.224143
 20
69.226259
 30
0.0
 10
17.183151
 20
68.818403
 30
0.0
 10
17.065587
 20
68.438524
 30
0.0
 10
16.879562
 20
68.094761
 30
0.0
 10
16.633190
 20
67.795252
 30
0.0
 10
16.334586
 20
67.548134
 30
0.0
 10
15.991860
 20
67.361545
 30
0.0
 10
15.613129
 20
67.243624
 30
0.0
 10
15.206505
 20
67.202509
 30
0.0
  0
LWPOLYLINE
  5
106
100
AcDbEntity
  8
Layer_1
 62
1
100
AcDbPolyline
 90
33
 70
0
 10
4.206507
 20
56.226257
 30
0.0
 10
4.176031
 20
55.923955
 30
0.0
 10
4.088628
 20
55.642391
 30
0.0
 10
3.950329
 20
55.387596
 30
0.0
 10
3.767166
 20
55.165600
 30
0.0
 10
3.545170
 20
54.982436
 30
0.0
 10
3.290373
 20
54.844137
 30
0.0
 10
3.008808
 20
54.756736
 30
0.0
 10
2.706506
 20
54.726256
 30
0.0
 10
2.404203
 20
54.756736
 30
0.0
 10
2.122638
 20
54.844137
 30
0.0
 10
1.867842
 20
54.982436
 30
0.0
 10
1.645846
 20
55.165600
 30
0.0
 10
1.462682
 20
55.387596
 30
0.0
 10
1.324383
 20
55.642391
 30
0.0
 10
1.236980
 20
55.923955
 30
0.0
 10
1.206504
 20
56.226257
 30
0.0
 10
1.236980
 20
56.528559
 30
0.0
 10
1.324383
 20
56.810127
 30
0.0
 10
1.462682
 20
57.064923
 30
0.0
 10
1.645846
 20
57.286919
 30
0.0
 10
1.867842
 20
57.470082
 30
0.0
 10
2.122638
 20
57.608381
 30
0.0
 10
2.404203
 20
57.695782
 30
0.0
 10
2.706506
 20
57.726262
 30
0.0
 10
3.008808
 20
57.695782
 30
0.0
 10
3.290373
 20
57.608381
 30
0.0
 10
3.545170
 20
57.470082
 30
0.0
 10
3.767166
 20
57.286919
 30
0.0
 10
3.950329
 20
57.064923
 30
0.0
 10
4.088628
 20
56.810127
 30
0.0
 10
4.176031
 20
56.528559
 30
0.0
 10
4.206507
 20
56.226257
 30
0.0
  0
LWPOLYLINE
  5
107
100
AcDbEntity
  8
Layer_1
 62
1
100
AcDbPolyline
 90
33
 70
0
 10
4.206507
 20
28.226257
 30
0.0
 10
4.176031
 20
27.923954
 30
0.0
 10
4.088628
 20
27.642391
 30
0.0
 10
3.950329
 20
27.387595
 30
0.0
 10
3.767166
 20
27.165599
 30
0.0
 10
3.545170
 20
26.982436
 30
0.0
 10
3.290373
 20
26.844137
 30
0.0
 10
3.008808
 20
26.756735
 30
0.0
 10
2.706505
 20
26.726255
 30
0.0
 10
2.404203
 20
26.756735
 30
0.0
 10
2.122638
 20
26.844137
 30
0.0
 10
1.867841
 20
26.982436
 30
0.0
 10
1.645845
 20
27.165599
 30
0.0
 10
1.462682
 20
27.387595
 30
0.0
 10
1.324383
 20
27.642391
 30
0.0
 10
1.236980
 20
27.923954
 30
0.0
 10
1.206504
 20
28.226257
 30
0.0
 10
1.236980
 20
28.528559
 30
0.0
 10
1.324383
 20
28.810126
 30
0.0
 10
1.462682
 20
29.064922
 30
0.0
 10
1.645845
 20
29.286918
 30
0.0
 10
1.867841
 20
29.470082
 30
0.0
 10
2.122638
 20
29.608381
 30
0.0
 10
2.404203
 20
29.695782
 30
0.0
 10
2.706505
 20
29.726262
 30
0.0
 10
3.008808
 20
29.695782
 30
0.0
 10
3.290373
 20
29.608381
 30
0.0
 10
3.545170
 20
29.470082
 30
0.0
 10
3.767166
 20
29.286918
 30
0.0
 10
3.950329
 20
29.064922
 30
0.0
 10
4.088628
 20
28.810126
 30
0.0
 10
4.176031
 20
28.528559
 30
0.0
 10
4.206507
 20
28.226257
 30
0.0
  0
LWPOLYLINE
  5
108
100
AcDbEntity
  8
Layer_1
 62
1
100
AcDbPolyline
 90
33
 70
0
 10
56.142062
 20
61.726257
 30
0.0
 10
56.111586
 20
61.423955
 30
0.0
 10
56.024183
 20
61.142392
 30
0.0
 10
55.885884
 20
60.887596
 30
0.0
 10
55.702721
 20
60.665600
 30
0.0
 10
55.480725
 20
60.482436
 30
0.0
 10
55.225928
 20
60.344137
 30
0.0
 10
54.944363
 20
60.256736
 30
0.0
 10
54.642061
 20
60.226256
 30
0.0
 10
54.339758
 20
60.256736
 30
0.0
 10
54.058193
 20
60.344137
 30
0.0
 10
53.803397
 20
60.482436
 30
0.0
 10
53.581401
 20
60.665600
 30
0.0
 10
53.398237
 20
60.887596
 30
0.0
 10
53.259938
 20
61.142392
 30
0.0
 10
53.172535
 20
61.423955
 30
0.0
 10
53.142059
 20
61.726257
 30
0.0
 10
53.172535
 20
62.028560
 30
0.0
 10
53.259938
 20
62.310127
 30
0.0
 10
53.398237
 20
62.564923
 30
0.0
 10
53.581401
 20
62.786919
 30
0.0
 10
53.803397
 20
62.970083
 30
0.0
 10
54.058193
 20
63.108381
 30
0.0
 10
54.339758
 20
63.195783
 30
0.0
 10
54.642061
 20
63.226263
 30
0.0
 10
54.944363
 20
63.195783
 30
0.0
 10
55.225928
 20
63.108381
 30
0.0
 10
55.480725
 20
62.970083
 30
0.0
 10
55.702721
 20
62.786919
 30
0.0
 10
55.885884
 20
62.564923
 30
0.0
 10
56.024183
 20
62.310127
 30
0.0
 10
56.111586
 20
62.028560
 30
0.0
 10
56.142062
 20
61.726257
 30
0.0
  0
LWPOLYLINE
  5
109
100
AcDbEntity
  8
Layer_1
 62
1
100
AcDbPolyline
 90
33
 70
0
 10
55.206506
 20
12.726257
 30
0.0
 10
55.176031
 20
12.423954
 30
0.0
 10
55.088628
 20
12.142391
 30
0.0
 10
54.950329
 20
11.887595
 30
0.0
 10
54.767166
 20
11.665599
 30
0.0
 10
54.545170
 20
11.482435
 30
0.0
 10
54.290373
 20
11.344137
 30
0.0
 10
54.008808
 20
11.256735
 30
0.0
 10
53.706505
 20
11.226255
 30
0.0
 10
53.404203
 20
11.256735
 30
0.0
 10
53.122638
 20
11.344137
 30
0.0
 10
52.867841
 20
11.482435
 30
0.0
 10
52.645845
 20
11.665599
 30
0.0
 10
52.462682
 20
11.887595
 30
0.0
 10
52.324383
 20
12.142391
 30
0.0
 10
52.236980
 20
12.423954
 30
0.0
 10
52.206504
 20
12.726257
 30
0.0
 10
52.236980
 20
13.028559
 30
0.0
 10
52.324383
 20
13.310126
 30
0.0
 10
52.462682
 20
13.564922
 30
0.0
 10
52.645845
 20
13.786918
 30
0.0
 10
52.867841
 20
13.970082
 30
0.0
 10
53.122638
 20
14.108381
 30
0.0
 10
53.404203
 20
14.195782
 30
0.0
 10
53.706505
 20
14.226262
 30
0.0
 10
54.008808
 20
14.195782
 30
0.0
 10
54.290373
 20
14.108381
 30
0.0
 10
54.545170
 20
13.970082
 30
0.0
 10
54.767166
 20
13.786918
 30
0.0
 10
54.950329
 20
13.564922
 30
0.0
 10
55.088628
 20
13.310126
 30
0.0
 10
55.176031
 20
13.028559
 30
0.0
 10
55.206506
 20
12.726257
 30
0.0
  0
LWPOLYLINE
  5
10a
100
AcDbEntity
  8
Layer_1
 62
1
100
AcDbPolyline
 90
33
 70
0
 10
65.244722
 20
67.242644
 30
0.0
 10
64.838098
 20
67.283759
 30
0.0
 10
64.459367
 20
67.401680
 30
0.0
 10
64.116641
 20
67.588269
 30
0.0
 10
63.818037
 20
67.835387
 30
0.0
 10
63.571665
 20
68.134896
 30
0.0
 10
63.385640
 20
68.478659
 30
0.0
 10
63.268076
 20
68.858538
 30
0.0
 10
63.227085
 20
69.266394
 30
0.0
 10
63.268076
 20
69.674250
 30
0.0
 10
63.385640
 20
70.054129
 30
0.0
 10
63.571665
 20
70.397892
 30
0.0
 10
63.818037
 20
70.697402
 30
0.0
 10
64.116641
 20
70.944520
 30
0.0
 10
64.459367
 20
71.131108
 30
0.0
 10
64.838098
 20
71.249029
 30
0.0
 10
65.244722
 20
71.290144
 30
0.0
 10
65.651346
 20
71.249029
 30
0.0
 10
66.030078
 20
71.131108
 30
0.0
 10
66.372803
 20
70.944520
 30
0.0
 10
66.671407
 20
70.697402
 30
0.0
 10
66.917780
 20
70.397892
 30
0.0
 10
67.103804
 20
70.054129
 30
0.0
 10
67.221368
 20
69.674250
 30
0.0
 10
67.262360
 20
69.266394
 30
0.0
 10
67.221368
 20
68.858538
 30
0.0
 10
67.103804
 20
68.478659
 30
0.0
 10
66.917780
 20
68.134896
 30
0.0
 10
66.671407
 20
67.835387
 30
0.0
 10
66.372803
 20
67.588269
 30
0.0
 10
66.030078
 20
67.401680
 30
0.0
 10
65.651346
 20
67.283759
 30
0.0
 10
65.244722
 20
67.242644
 30
0.0
  0
LWPOLYLINE
  5
10b
100
AcDbEntity
  8
Layer_1
 62
1
100
AcDbPolyline
 90
33
 70
0
 10
55.206507
 20
67.202509
 30
0.0
 10
54.799883
 20
67.243624
 30
0.0
 10
54.421152
 20
67.361545
 30
0.0
 10
54.078426
 20
67.548134
 30
0.0
 10
53.779822
 20
67.795252
 30
0.0
 10
53.533450
 20
68.094761
 30
0.0
 10
53.347425
 20
68.438524
 30
0.0
 10
53.229861
 20
68.818403
 30
0.0
 10
53.188869
 20
69.226259
 30
0.0
 10
53.229861
 20
69.634116
 30
0.0
 10
53.347425
 20
70.013994
 30
0.0
 10
53.533450
 20
70.357757
 30
0.0
 10
53.779822
 20
70.657267
 30
0.0
 10
54.078426
 20
70.904385
 30
0.0
 10
54.421152
 20
71.090973
 30
0.0
 10
54.799883
 20
71.208894
 30
0.0
 10
55.206507
 20
71.250010
 30
0.0
 10
55.613131
 20
71.208894
 30
0.0
 10
55.991862
 20
71.090973
 30
0.0
 10
56.334588
 20
70.904385
 30
0.0
 10
56.633192
 20
70.657267
 30
0.0
 10
56.879564
 20
70.357757
 30
0.0
 10
57.065589
 20
70.013994
 30
0.0
 10
57.183153
 20
69.634116
 30
0.0
 10
57.224145
 20
69.226259
 30
0.0
 10
57.183153
 20
68.818403
 30
0.0
 10
57.065589
 20
68.438524
 30
0.0
 10
56.879564
 20
68.094761
 30
0.0
 10
56.633192
 20
67.795252
 30
0.0
 10
56.334588
 20
67.548134
 30
0.0
 10
55.991862
 20
67.361545
 30
0.0
 10
55.613131
 20
67.243624
 30
0.0
 10
55.206507
 20
67.202509
 30
0.0
  0
LWPOLYLINE
  5
10c
100
AcDbEntity
  8
Layer_1
 62
1
100
AcDbPolyline
 90
33
 70
0
 10
45.206504
 20
3.202507
 30
0.0
 10
44.799880
 20
3.243623
 30
0.0
 10
44.421149
 20
3.361544
 30
0.0
 10
44.078423
 20
3.548132
 30
0.0
 10
43.779819
 20
3.795250
 30
0.0
 10
43.533447
 20
4.094760
 30
0.0
 10
43.347422
 20
4.438523
 30
0.0
 10
43.229858
 20
4.818401
 30
0.0
 10
43.188866
 20
5.226257
 30
0.0
 10
43.229858
 20
5.634114
 30
0.0
 10
43.347422
 20
6.013992
 30
0.0
 10
43.533447
 20
6.357756
 30
0.0
 10
43.779819
 20
6.657265
 30
0.0
 10
44.078423
 20
6.904383
 30
0.0
 10
44.421149
 20
7.090971
 30
0.0
 10
44.799880
 20
7.208892
 30
0.0
 10
45.206504
 20
7.250008
 30
0.0
 10
45.613128
 20
7.208892
 30
0.0
 10
45.991859
 20
7.090971
 30
0.0
 10
46.334585
 20
6.904383
 30
0.0
 10
46.633189
 20
6.657265
 30
0.0
 10
46.879562
 20
6.357756
 30
0.0
 10
47.065586
 20
6.013992
 30
0.0
 10
47.183150
 20
5.634114
 30
0.0
 10
47.224142
 20
5.226257
 30
0.0
 10
47.183150
 20
4.818401
 30
0.0
 10
47.065586
 20
4.438523
 30
0.0
 10
46.879562
 20
4.094760
 30
0.0
 10
46.633189
 20
3.795250
 30
0.0
 10
46.334585
 20
3.548132
 30
0.0
 10
45.991859
 20
3.361544
 30
0.0
 10
45.613128
 20
3.243623
 30
0.0
 10
45.206504
 20
3.202507
 30
0.0
  0
LWPOLYLINE
  5
10d
100
AcDbEntity
  8
Layer_1
 62
1
100
AcDbPolyline
 90
33
 70
0
 10
35.168289
 20
3.162372
 30
0.0
 10
34.761665
 20
3.203488
 30
0.0
 10
34.382934
 20
3.321409
 30
0.0
 10
34.040208
 20
3.507997
 30
0.0
 10
33.741604
 20
3.755115
 30
0.0
 10
33.495231
 20
4.054625
 30
0.0
 10
33.309207
 20
4.398388
 30
0.0
 10
33.191643
 20
4.778266
 30
0.0
 10
33.150651
 20
5.186123
 30
0.0
 10
33.191643
 20
5.593979
 30
0.0
 10
33.309207
 20
5.973858
 30
0.0
 10
33.495231
 20
6.317621
 30
0.0
 10
33.741604
 20
6.617130
 30
0.0
 10
34.040208
 20
6.864248
 30
0.0
 10
34.382934
 20
7.050837
 30
0.0
 10
34.761665
 20
7.168757
 30
0.0
 10
35.168289
 20
7.209873
 30
0.0
 10
35.574913
 20
7.168757
 30
0.0
 10
35.953644
 20
7.050837
 30
0.0
 10
36.296370
 20
6.864248
 30
0.0
 10
36.594974
 20
6.617130
 30
0.0
 10
36.841346
 20
6.317621
 30
0.0
 10
37.027371
 20
5.973858
 30
0.0
 10
37.144935
 20
5.593979
 30
0.0
 10
37.185927
 20
5.186123
 30
0.0
 10
37.144935
 20
4.778266
 30
0.0
 10
37.027371
 20
4.398388
 30
0.0
 10
36.841346
 20
4.054625
 30
0.0
 10
36.594974
 20
3.755115
 30
0.0
 10
36.296370
 20
3.507997
 30
0.0
 10
35.953644
 20
3.321409
 30
0.0
 10
35.574913
 20
3.203488
 30
0.0
 10
35.168289
 20
3.162372
 30
0.0
  0
LWPOLYLINE
  5
10e
100
AcDbEntity
  8
Layer_1
 62
1
100
AcDbPolyline
 90
33
 70
0
 10
5.206505
 20
3.202507
 30
0.0
 10
4.799881
 20
3.243623
 30
0.0
 10
4.421150
 20
3.361544
 30
0.0
 10
4.078424
 20
3.548132
 30
0.0
 10
3.779820
 20
3.795250
 30
0.0
 10
3.533448
 20
4.094760
 30
0.0
 10
3.347423
 20
4.438523
 30
0.0
 10
3.229859
 20
4.818401
 30
0.0
 10
3.188867
 20
5.226257
 30
0.0
 10
3.229859
 20
5.634114
 30
0.0
 10
3.347423
 20
6.013992
 30
0.0
 10
3.533448
 20
6.357756
 30
0.0
 10
3.779820
 20
6.657265
 30
0.0
 10
4.078424
 20
6.904383
 30
0.0
 10
4.421150
 20
7.090971
 30
0.0
 10
4.799881
 20
7.208892
 30
0.0
 10
5.206505
 20
7.250008
 30
0.0
 10
5.613129
 20
7.208892
 30
0.0
 10
5.991860
 20
7.090971
 30
0.0
 10
6.334586
 20
6.904383
 30
0.0
 10
6.633190
 20
6.657265
 30
0.0
 10
6.879563
 20
6.357756
 30
0.0
 10
7.065587
 20
6.013992
 30
0.0
 10
7.183151
 20
5.634114
 30
0.0
 10
7.224143
 20
5.226257
 30
0.0
 10
7.183151
 20
4.818401
 30
0.0
 10
7.065587
 20
4.438523
 30
0.0
 10
6.879563
 20
4.094760
 30
0.0
 10
6.633190
 20
3.795250
 30
0.0
 10
6.334586
 20
3.548132
 30
0.0
 10
5.991860
 20
3.361544
 30
0.0
 10
5.613129
 20
3.243623
 30
0.0
 10
5.206505
 20
3.202507
 30
0.0
  0
LWPOLYLINE
  5
10f
100
AcDbEntity
  8
Layer_1
 62
1
100
AcDbPolyline
 90
33
 70
0
 10
25.206505
 20
3.202507
 30
0.0
 10
24.799881
 20
3.243623
 30
0.0
 10
24.421150
 20
3.361544
 30
0.0
 10
24.078424
 20
3.548132
 30
0.0
 10
23.779820
 20
3.795250
 30
0.0
 10
23.533447
 20
4.094760
 30
0.0
 10
23.347423
 20
4.438523
 30
0.0
 10
23.229859
 20
4.818401
 30
0.0
 10
23.188867
 20
5.226257
 30
0.0
 10
23.229859
 20
5.634114
 30
0.0
 10
23.347423
 20
6.013992
 30
0.0
 10
23.533447
 20
6.357756
 30
0.0
 10
23.779820
 20
6.657265
 30
0.0
 10
24.078424
 20
6.904383
 30
0.0
 10
24.421150
 20
7.090971
 30
0.0
 10
24.799881
 20
7.208892
 30
0.0
 10
25.206505
 20
7.250008
 30
0.0
 10
25.613129
 20
7.208892
 30
0.0
 10
25.991860
 20
7.090971
 30
0.0
 10
26.334586
 20
6.904383
 30
0.0
 10
26.633190
 20
6.657265
 30
0.0
 10
26.879562
 20
6.357756
 30
0.0
 10
27.065587
 20
6.013992
 30
0.0
 10
27.183151
 20
5.634114
 30
0.0
 10
27.224143
 20
5.226257
 30
0.0
 10
27.183151
 20
4.818401
 30
0.0
 10
27.065587
 20
4.438523
 30
0.0
 10
26.879562
 20
4.094760
 30
0.0
 10
26.633190
 20
3.795250
 30
0.0
 10
26.334586
 20
3.548132
 30
0.0
 10
25.991860
 20
3.361544
 30
0.0
 10
25.613129
 20
3.243623
 30
0.0
 10
25.206505
 20
3.202507
 30
0.0
  0
LWPOLYLINE
  5
110
100
AcDbEntity
  8
Layer_1
 62
1
100
AcDbPolyline
 90
33
 70
0
 10
15.206505
 20
3.202507
 30
0.0
 10
14.799881
 20
3.243623
 30
0.0
 10
14.421150
 20
3.361544
 30
0.0
 10
14.078424
 20
3.548132
 30
0.0
 10
13.779820
 20
3.795250
 30
0.0
 10
13.533448
 20
4.094760
 30
0.0
 10
13.347423
 20
4.438523
 30
0.0
 10
13.229859
 20
4.818401
 30
0.0
 10
13.188867
 20
5.226257
 30
0.0
 10
13.229859
 20
5.634114
 30
0.0
 10
13.347423
 20
6.013992
 30
0.0
 10
13.533448
 20
6.357756
 30
0.0
 10
13.779820
 20
6.657265
 30
0.0
 10
14.078424
 20
6.904383
 30
0.0
 10
14.421150
 20
7.090971
 30
0.0
 10
14.799881
 20
7.208892
 30
0.0
 10
15.206505
 20
7.250008
 30
0.0
 10
15.613129
 20
7.208892
 30
0.0
 10
15.991860
 20
7.090971
 30
0.0
 10
16.334586
 20
6.904383
 30
0.0
 10
16.633190
 20
6.657265
 30
0.0
 10
16.879562
 20
6.357756
 30
0.0
 10
17.065587
 20
6.013992
 30
0.0
 10
17.183151
 20
5.634114
 30
0.0
 10
17.224143
 20
5.226257
 30
0.0
 10
17.183151
 20
4.818401
 30
0.0
 10
17.065587
 20
4.438523
 30
0.0
 10
16.879562
 20
4.094760
 30
0.0
 10
16.633190
 20
3.795250
 30
0.0
 10
16.334586
 20
3.548132
 30
0.0
 10
15.991860
 20
3.361544
 30
0.0
 10
15.613129
 20
3.243623
 30
0.0
 10
15.206505
 20
3.202507
 30
0.0
  0
LWPOLYLINE
  5
111
100
AcDbEntity
  8
Layer_1
 62
1
100
AcDbPolyline
 90
33
 70
0
 10
65.244722
 20
3.242642
 30
0.0
 10
64.838098
 20
3.283757
 30
0.0
 10
64.459367
 20
3.401678
 30
0.0
 10
64.116641
 20
3.588267
 30
0.0
 10
63.818037
 20
3.835385
 30
0.0
 10
63.571665
 20
4.134894
 30
0.0
 10
63.385640
 20
4.478657
 30
0.0
 10
63.268076
 20
4.858536
 30
0.0
 10
63.227085
 20
5.266392
 30
0.0
 10
63.268076
 20
5.674249
 30
0.0
 10
63.385640
 20
6.054127
 30
0.0
 10
63.571665
 20
6.397890
 30
0.0
 10
63.818037
 20
6.697400
 30
0.0
 10
64.116641
 20
6.944518
 30
0.0
 10
64.459367
 20
7.131106
 30
0.0
 10
64.838098
 20
7.249027
 30
0.0
 10
65.244722
 20
7.290143
 30
0.0
 10
65.651346
 20
7.249027
 30
0.0
 10
66.030078
 20
7.131106
 30
0.0
 10
66.372803
 20
6.944518
 30
0.0
 10
66.671407
 20
6.697400
 30
0.0
 10
66.917780
 20
6.397890
 30
0.0
 10
67.103804
 20
6.054127
 30
0.0
 10
67.221368
 20
5.674249
 30
0.0
 10
67.262360
 20
5.266392
 30
0.0
 10
67.221368
 20
4.858536
 30
0.0
 10
67.103804
 20
4.478657
 30
0.0
 10
66.917780
 20
4.134894
 30
0.0
 10
66.671407
 20
3.835385
 30
0.0
 10
66.372803
 20
3.588267
 30
0.0
 10
66.030078
 20
3.401678
 30
0.0
 10
65.651346
 20
3.283757
 30
0.0
 10
65.244722
 20
3.242642
 30
0.0
  0
LWPOLYLINE
  5
112
100
AcDbEntity
  8
Layer_1
 62
1
100
AcDbPolyline
 90
33
 70
0
 10
55.206507
 20
3.202507
 30
0.0
 10
54.799883
 20
3.243623
 30
0.0
 10
54.421152
 20
3.361544
 30
0.0
 10
54.078426
 20
3.548132
 30
0.0
 10
53.779822
 20
3.795250
 30
0.0
 10
53.533450
 20
4.094760
 30
0.0
 10
53.347425
 20
4.438523
 30
0.0
 10
53.229861
 20
4.818401
 30
0.0
 10
53.188869
 20
5.226257
 30
0.0
 10
53.229861
 20
5.634114
 30
0.0
 10
53.347425
 20
6.013992
 30
0.0
 10
53.533450
 20
6.357756
 30
0.0
 10
53.779822
 20
6.657265
 30
0.0
 10
54.078426
 20
6.904383
 30
0.0
 10
54.421152
 20
7.090971
 30
0.0
 10
54.799883
 20
7.208892
 30
0.0
 10
55.206507
 20
7.250008
 30
0.0
 10
55.613131
 20
7.208892
 30
0.0
 10
55.991862
 20
7.090971
 30
0.0
 10
56.334588
 20
6.904383
 30
0.0
 10
56.633192
 20
6.657265
 30
0.0
 10
56.879564
 20
6.357756
 30
0.0
 10
57.065589
 20
6.013992
 30
0.0
 10
57.183153
 20
5.634114
 30
0.0
 10
57.224145
 20
5.226257
 30
0.0
 10
57.183153
 20
4.818401
 30
0.0
 10
57.065589
 20
4.438523
 30
0.0
 10
56.879564
 20
4.094760
 30
0.0
 10
56.633192
 20
3.795250
 30
0.0
 10
56.334588
 20
3.548132
 30
0.0
 10
55.991862
 20
3.361544
 30
0.0
 10
55.613131
 20
3.243623
 30
0.0
 10
55.206507
 20
3.202507
 30
0.0
  0
ENDSEC
  0
SECTION
  2
OBJECTS
  0
DICTIONARY
  5
C
330
0
100
AcDbDictionary
  3
ACAD_GROUP
350
D
  3
ACAD_MLINESTYLE
350
17
  0
DICTIONARY
  5
D
330
C
100
AcDbDictionary
  0
DICTIONARY
  5
1A
330
C
100
AcDbDictionary
  0
DICTIONARY
  5
17
330
C
100
AcDbDictionary
  3
STANDARD
350
18
  0
DICTIONARY
  5
19
330
C
100
AcDbDictionary
  0
ENDSEC
  0
EOF
