  0
SECTION
  2
HEADER
  9
$ACADVER
  1
AC1014
  9
$HANDSEED
  5
FFFF
  9
$MEASUREMENT
 70
     1
  0
ENDSEC
  0
SECTION
  2
TABLES
  0
TABLE
  2
VPORT
  5
8
330
0
100
AcDbSymbolTable
 70
     4
  0
VPORT
  5
2E
330
8
100
AcDbSymbolTableRecord
100
AcDbViewportTableRecord
  2
*ACTIVE
 70
     0
 10
0.0
 20
0.0
 11
1.0
 21
1.0
 12
210.0
 22
148.5
 13
0.0
 23
0.0
 14
10.0
 24
10.0
 15
10.0
 25
10.0
 16
0.0
 26
0.0
 36
1.0
 17
0.0
 27
0.0
 37
0.0
 40
341.0
 41
1.24
 42
50.0
 43
0.0
 44
0.0
 50
0.0
 51
0.0
 71
     0
 72
   100
 73
     1
 74
     3
 75
     0
 76
     0
 77
     0
 78
     0
  0
ENDTAB
  0
TABLE
  2
LTYPE
  5
5
330
0
100
AcDbSymbolTable
 70
     1
  0
LTYPE
  5
14
330
5
100
AcDbSymbolTableRecord
100
AcDbLinetypeTableRecord
  2
BYBLOCK
 70
     0
  3

 72
    65
 73
     0
 40
0.0
  0
LTYPE
  5
15
330
5
100
AcDbSymbolTableRecord
100
AcDbLinetypeTableRecord
  2
BYLAYER
 70
     0
  3

 72
    65
 73
     0
 40
0.0
  0
LTYPE
  5
16
330
5
100
AcDbSymbolTableRecord
100
AcDbLinetypeTableRecord
  2
CONTINUOUS
 70
     0
  3
Solid line
 72
    65
 73
     0
 40
0.0
  0
ENDTAB
  0
TABLE
  2
LAYER
  5
2
100
AcDbSymbolTable
 70
2
  0
LAYER
  5
50
100
AcDbSymbolTableRecord
100
AcDbLayerTableRecord
  2
0
 70
0
  6
CONTINUOUS
  0
LAYER
  5
51
100
AcDbSymbolTableRecord
100
AcDbLayerTableRecord
  2
Layer_1
 70
0
  6
CONTINUOUS
  0
ENDTAB
  0
TABLE
  2
STYLE
  5
3
330
0
100
AcDbSymbolTable
 70
     1
  0
STYLE
  5
11
330
3
100
AcDbSymbolTableRecord
100
AcDbTextStyleTableRecord
  2
STANDARD
 70
     0
 40
0.0
 41
1.0
 50
0.0
 71
     0
 42
2.5
  3
txt
  4

  0
ENDTAB
  0
TABLE
  2
VIEW
  5
6
330
0
100
AcDbSymbolTable
 70
     0
  0
ENDTAB
  0
TABLE
  2
UCS
  5
7
330
0
100
AcDbSymbolTable
 70
     0
  0
ENDTAB
  0
TABLE
  2
APPID
  5
9
330
0
100
AcDbSymbolTable
 70
     2
  0
APPID
  5
12
330
9
100
AcDbSymbolTableRecord
100
AcDbRegAppTableRecord
  2
ACAD
 70
     0
  0
ENDTAB
  0
TABLE
  2
DIMSTYLE
  5
A
330
0
100
AcDbSymbolTable
 70
     1
  0
DIMSTYLE
105
27
330
A
100
AcDbSymbolTableRecord
100
AcDbDimStyleTableRecord
  2
ISO-25
 70
     0
  3

  4

  5

  6

  7

 40
1.0
 41
2.5
 42
0.625
 43
3.75
 44
1.25
 45
0.0
 46
0.0
 47
0.0
 48
0.0
140
2.5
141
2.5
142
0.0
143
0.03937007874016
144
1.0
145
0.0
146
1.0
147
0.625
 71
     0
 72
     0
 73
     0
 74
     0
 75
     0
 76
     0
 77
     1
 78
     8
170
     0
171
     3
172
     1
173
     0
174
     0
175
     0
176
     0
177
     0
178
     0
270
     2
271
     2
272
     2
273
     2
274
     3
340
11
275
     0
280
     0
281
     0
282
     0
283
     0
284
     8
285
     0
286
     0
287
     3
288
     0
  0
ENDTAB
  0
TABLE
  2
BLOCK_RECORD
  5
1
330
0
100
AcDbSymbolTable
 70
     1
  0
BLOCK_RECORD
  5
1F
330
1
100
AcDbSymbolTableRecord
100
AcDbBlockTableRecord
  2
*MODEL_SPACE
  0
BLOCK_RECORD
  5
1B
330
1
100
AcDbSymbolTableRecord
100
AcDbBlockTableRecord
  2
*PAPER_SPACE
  0
ENDTAB
  0
ENDSEC
  0
SECTION
  2
BLOCKS
  0
BLOCK
  5
20
330
1F
100
AcDbEntity
  8
0
100
AcDbBlockBegin
  2
*MODEL_SPACE
 70
     0
 10
0.0
 20
0.0
 30
0.0
  3
*MODEL_SPACE
  1

  0
ENDBLK
  5
21
330
1F
100
AcDbEntity
  8
0
100
AcDbBlockEnd
  0
BLOCK
  5
1C
330
1B
100
AcDbEntity
 67
     1
  8
0
100
AcDbBlockBegin
  2
*PAPER_SPACE
  1

  0
ENDBLK
  5
1D
330
1B
100
AcDbEntity
 67
     1
  8
0
100
AcDbBlockEnd
  0
ENDSEC
  0
SECTION
  2
ENTITIES
  0
LWPOLYLINE
  5
100
100
AcDbEntity
  8
Layer_1
 62
1
100
AcDbPolyline
 90
69
 70
0
 10
2.999992
 20
53.999999
 30
0.0
 10
87.000009
 20
53.999999
 30
0.0
 10
87.307589
 20
53.984562
 30
0.0
 10
87.606090
 20
53.939257
 30
0.0
 10
87.894027
 20
53.865560
 30
0.0
 10
88.169914
 20
53.764962
 30
0.0
 10
88.432265
 20
53.638947
 30
0.0
 10
88.679596
 20
53.488999
 30
0.0
 10
88.910420
 20
53.316604
 30
0.0
 10
89.123252
 20
53.123248
 30
0.0
 10
89.316611
 20
52.910413
 30
0.0
 10
89.489006
 20
52.679589
 30
0.0
 10
89.638954
 20
52.432258
 30
0.0
 10
89.764969
 20
52.169907
 30
0.0
 10
89.865567
 20
51.894020
 30
0.0
 10
89.939264
 20
51.606083
 30
0.0
 10
89.984569
 20
51.307582
 30
0.0
 10
90.000006
 20
51.000002
 30
0.0
 10
90.000006
 20
2.999971
 30
0.0
 10
89.984569
 20
2.692406
 30
0.0
 10
89.939264
 20
2.393899
 30
0.0
 10
89.865567
 20
2.105948
 30
0.0
 10
89.764969
 20
1.830076
 30
0.0
 10
89.638954
 20
1.567722
 30
0.0
 10
89.489006
 20
1.320382
 30
0.0
 10
89.316611
 20
1.089581
 30
0.0
 10
89.123252
 20
0.876729
 30
0.0
 10
88.910420
 20
0.683379
 30
0.0
 10
88.679596
 20
0.510969
 30
0.0
 10
88.432265
 20
0.361024
 30
0.0
 10
88.169914
 20
0.235012
 30
0.0
 10
87.894027
 20
0.134400
 30
0.0
 10
87.606090
 20
0.060712
 30
0.0
 10
87.307589
 20
0.015415
 30
0.0
 10
87.000009
 20
-0.000107
 30
0.0
 10
2.999992
 20
-0.000107
 30
0.0
 10
2.692412
 20
0.015415
 30
0.0
 10
2.393912
 20
0.060712
 30
0.0
 10
2.105975
 20
0.134400
 30
0.0
 10
1.830089
 20
0.235012
 30
0.0
 10
1.567738
 20
0.361024
 30
0.0
 10
1.320407
 20
0.510969
 30
0.0
 10
1.089582
 20
0.683379
 30
0.0
 10
0.876748
 20
0.876729
 30
0.0
 10
0.683390
 20
1.089581
 30
0.0
 10
0.510995
 20
1.320382
 30
0.0
 10
0.361046
 20
1.567722
 30
0.0
 10
0.235031
 20
1.830076
 30
0.0
 10
0.134433
 20
2.105948
 30
0.0
 10
0.060738
 20
2.393899
 30
0.0
 10
0.015432
 20
2.692406
 30
0.0
 10
0.000000
 20
2.999977
 30
0.0
 10
0.000000
 20
51.000008
 30
0.0
 10
0.015432
 20
51.307588
 30
0.0
 10
0.060738
 20
51.606089
 30
0.0
 10
0.134433
 20
51.894026
 30
0.0
 10
0.235031
 20
52.169912
 30
0.0
 10
0.361046
 20
52.432263
 30
0.0
 10
0.510995
 20
52.679594
 30
0.0
 10
0.683390
 20
52.910418
 30
0.0
 10
0.876748
 20
53.123253
 30
0.0
 10
1.089582
 20
53.316609
 30
0.0
 10
1.320407
 20
53.489005
 30
0.0
 10
1.567738
 20
53.638952
 30
0.0
 10
1.830089
 20
53.764967
 30
0.0
 10
2.105975
 20
53.865566
 30
0.0
 10
2.393912
 20
53.939262
 30
0.0
 10
2.692412
 20
53.984567
 30
0.0
 10
2.999992
 20
53.999999
 30
0.0
  0
LWPOLYLINE
  5
101
100
AcDbEntity
  8
Layer_1
 62
1
100
AcDbPolyline
 90
33
 70
0
 10
7.023750
 20
46.999999
 30
0.0
 10
6.982635
 20
46.593375
 30
0.0
 10
6.864714
 20
46.214644
 30
0.0
 10
6.678126
 20
45.871918
 30
0.0
 10
6.431007
 20
45.573314
 30
0.0
 10
6.131498
 20
45.326942
 30
0.0
 10
5.787735
 20
45.140917
 30
0.0
 10
5.407856
 20
45.023353
 30
0.0
 10
5.000000
 20
44.982361
 30
0.0
 10
4.592144
 20
45.023353
 30
0.0
 10
4.212265
 20
45.140917
 30
0.0
 10
3.868502
 20
45.326942
 30
0.0
 10
3.568992
 20
45.573314
 30
0.0
 10
3.321875
 20
45.871918
 30
0.0
 10
3.135286
 20
46.214644
 30
0.0
 10
3.017365
 20
46.593375
 30
0.0
 10
2.976250
 20
46.999999
 30
0.0
 10
3.017365
 20
47.406623
 30
0.0
 10
3.135286
 20
47.785354
 30
0.0
 10
3.321875
 20
48.128080
 30
0.0
 10
3.568992
 20
48.426684
 30
0.0
 10
3.868502
 20
48.673056
 30
0.0
 10
4.212265
 20
48.859081
 30
0.0
 10
4.592144
 20
48.976645
 30
0.0
 10
5.000000
 20
49.017637
 30
0.0
 10
5.407856
 20
48.976645
 30
0.0
 10
5.787735
 20
48.859081
 30
0.0
 10
6.131498
 20
48.673056
 30
0.0
 10
6.431007
 20
48.426684
 30
0.0
 10
6.678126
 20
48.128080
 30
0.0
 10
6.864714
 20
47.785354
 30
0.0
 10
6.982635
 20
47.406623
 30
0.0
 10
7.023750
 20
46.999999
 30
0.0
  0
LWPOLYLINE
  5
102
100
AcDbEntity
  8
Layer_1
 62
1
100
AcDbPolyline
 90
33
 70
0
 10
7.063886
 20
36.961784
 30
0.0
 10
7.022771
 20
36.555160
 30
0.0
 10
6.904850
 20
36.176428
 30
0.0
 10
6.718261
 20
35.833703
 30
0.0
 10
6.471143
 20
35.535099
 30
0.0
 10
6.171634
 20
35.288726
 30
0.0
 10
5.827871
 20
35.102702
 30
0.0
 10
5.447992
 20
34.985138
 30
0.0
 10
5.040136
 20
34.944146
 30
0.0
 10
4.632279
 20
34.985138
 30
0.0
 10
4.252401
 20
35.102702
 30
0.0
 10
3.908638
 20
35.288726
 30
0.0
 10
3.609128
 20
35.535099
 30
0.0
 10
3.362010
 20
35.833703
 30
0.0
 10
3.175422
 20
36.176428
 30
0.0
 10
3.057501
 20
36.555160
 30
0.0
 10
3.016385
 20
36.961784
 30
0.0
 10
3.057501
 20
37.368408
 30
0.0
 10
3.175422
 20
37.747139
 30
0.0
 10
3.362010
 20
38.089864
 30
0.0
 10
3.609128
 20
38.388469
 30
0.0
 10
3.908638
 20
38.634841
 30
0.0
 10
4.252401
 20
38.820866
 30
0.0
 10
4.632279
 20
38.938430
 30
0.0
 10
5.040136
 20
38.979421
 30
0.0
 10
5.447992
 20
38.938430
 30
0.0
 10
5.827871
 20
38.820866
 30
0.0
 10
6.171634
 20
38.634841
 30
0.0
 10
6.471143
 20
38.388469
 30
0.0
 10
6.718261
 20
38.089864
 30
0.0
 10
6.904850
 20
37.747139
 30
0.0
 10
7.022771
 20
37.368408
 30
0.0
 10
7.063886
 20
36.961784
 30
0.0
  0
LWPOLYLINE
  5
103
100
AcDbEntity
  8
Layer_1
 62
1
100
AcDbPolyline
 90
33
 70
0
 10
7.023750
 20
7.000000
 30
0.0
 10
6.982635
 20
6.593376
 30
0.0
 10
6.864714
 20
6.214645
 30
0.0
 10
6.678125
 20
5.871919
 30
0.0
 10
6.431007
 20
5.573315
 30
0.0
 10
6.131498
 20
5.326943
 30
0.0
 10
5.787735
 20
5.140918
 30
0.0
 10
5.407856
 20
5.023354
 30
0.0
 10
5.000000
 20
4.982362
 30
0.0
 10
4.592144
 20
5.023354
 30
0.0
 10
4.212265
 20
5.140918
 30
0.0
 10
3.868502
 20
5.326943
 30
0.0
 10
3.568992
 20
5.573315
 30
0.0
 10
3.321874
 20
5.871919
 30
0.0
 10
3.135286
 20
6.214645
 30
0.0
 10
3.017365
 20
6.593376
 30
0.0
 10
2.976250
 20
7.000000
 30
0.0
 10
3.017365
 20
7.406624
 30
0.0
 10
3.135286
 20
7.785355
 30
0.0
 10
3.321874
 20
8.128081
 30
0.0
 10
3.568992
 20
8.426685
 30
0.0
 10
3.868502
 20
8.673057
 30
0.0
 10
4.212265
 20
8.859082
 30
0.0
 10
4.592144
 20
8.976646
 30
0.0
 10
5.000000
 20
9.017638
 30
0.0
 10
5.407856
 20
8.976646
 30
0.0
 10
5.787735
 20
8.859082
 30
0.0
 10
6.131498
 20
8.673057
 30
0.0
 10
6.431007
 20
8.426685
 30
0.0
 10
6.678125
 20
8.128081
 30
0.0
 10
6.864714
 20
7.785355
 30
0.0
 10
6.982635
 20
7.406624
 30
0.0
 10
7.023750
 20
7.000000
 30
0.0
  0
LWPOLYLINE
  5
104
100
AcDbEntity
  8
Layer_1
 62
1
100
AcDbPolyline
 90
33
 70
0
 10
7.023750
 20
27.000000
 30
0.0
 10
6.982635
 20
26.593376
 30
0.0
 10
6.864714
 20
26.214644
 30
0.0
 10
6.678125
 20
25.871919
 30
0.0
 10
6.431007
 20
25.573315
 30
0.0
 10
6.131498
 20
25.326942
 30
0.0
 10
5.787735
 20
25.140918
 30
0.0
 10
5.407856
 20
25.023353
 30
0.0
 10
5.000000
 20
24.982362
 30
0.0
 10
4.592144
 20
25.023353
 30
0.0
 10
4.212265
 20
25.140918
 30
0.0
 10
3.868502
 20
25.326942
 30
0.0
 10
3.568992
 20
25.573315
 30
0.0
 10
3.321874
 20
25.871919
 30
0.0
 10
3.135286
 20
26.214644
 30
0.0
 10
3.017365
 20
26.593376
 30
0.0
 10
2.976250
 20
27.000000
 30
0.0
 10
3.017365
 20
27.406624
 30
0.0
 10
3.135286
 20
27.785355
 30
0.0
 10
3.321874
 20
28.128080
 30
0.0
 10
3.568992
 20
28.426685
 30
0.0
 10
3.868502
 20
28.673057
 30
0.0
 10
4.212265
 20
28.859082
 30
0.0
 10
4.592144
 20
28.976646
 30
0.0
 10
5.000000
 20
29.017637
 30
0.0
 10
5.407856
 20
28.976646
 30
0.0
 10
5.787735
 20
28.859082
 30
0.0
 10
6.131498
 20
28.673057
 30
0.0
 10
6.431007
 20
28.426685
 30
0.0
 10
6.678125
 20
28.128080
 30
0.0
 10
6.864714
 20
27.785355
 30
0.0
 10
6.982635
 20
27.406624
 30
0.0
 10
7.023750
 20
27.000000
 30
0.0
  0
LWPOLYLINE
  5
105
100
AcDbEntity
  8
Layer_1
 62
1
100
AcDbPolyline
 90
33
 70
0
 10
7.023750
 20
17.000000
 30
0.0
 10
6.982635
 20
16.593376
 30
0.0
 10
6.864714
 20
16.214645
 30
0.0
 10
6.678126
 20
15.871919
 30
0.0
 10
6.431007
 20
15.573315
 30
0.0
 10
6.131498
 20
15.326943
 30
0.0
 10
5.787735
 20
15.140918
 30
0.0
 10
5.407856
 20
15.023354
 30
0.0
 10
5.000000
 20
14.982362
 30
0.0
 10
4.592144
 20
15.023354
 30
0.0
 10
4.212265
 20
15.140918
 30
0.0
 10
3.868502
 20
15.326943
 30
0.0
 10
3.568992
 20
15.573315
 30
0.0
 10
3.321875
 20
15.871919
 30
0.0
 10
3.135286
 20
16.214645
 30
0.0
 10
3.017365
 20
16.593376
 30
0.0
 10
2.976250
 20
17.000000
 30
0.0
 10
3.017365
 20
17.406624
 30
0.0
 10
3.135286
 20
17.785355
 30
0.0
 10
3.321875
 20
18.128081
 30
0.0
 10
3.568992
 20
18.426685
 30
0.0
 10
3.868502
 20
18.673057
 30
0.0
 10
4.212265
 20
18.859082
 30
0.0
 10
4.592144
 20
18.976646
 30
0.0
 10
5.000000
 20
19.017638
 30
0.0
 10
5.407856
 20
18.976646
 30
0.0
 10
5.787735
 20
18.859082
 30
0.0
 10
6.131498
 20
18.673057
 30
0.0
 10
6.431007
 20
18.426685
 30
0.0
 10
6.678126
 20
18.128081
 30
0.0
 10
6.864714
 20
17.785355
 30
0.0
 10
6.982635
 20
17.406624
 30
0.0
 10
7.023750
 20
17.000000
 30
0.0
  0
LWPOLYLINE
  5
106
100
AcDbEntity
  8
Layer_1
 62
1
100
AcDbPolyline
 90
33
 70
0
 10
86.983616
 20
47.038215
 30
0.0
 10
86.942501
 20
46.631591
 30
0.0
 10
86.824580
 20
46.252860
 30
0.0
 10
86.637991
 20
45.910134
 30
0.0
 10
86.390873
 20
45.611530
 30
0.0
 10
86.091364
 20
45.365158
 30
0.0
 10
85.747601
 20
45.179133
 30
0.0
 10
85.367722
 20
45.061569
 30
0.0
 10
84.959866
 20
45.020577
 30
0.0
 10
84.552010
 20
45.061569
 30
0.0
 10
84.172131
 20
45.179133
 30
0.0
 10
83.828368
 20
45.365158
 30
0.0
 10
83.528858
 20
45.611530
 30
0.0
 10
83.281740
 20
45.910134
 30
0.0
 10
83.095152
 20
46.252860
 30
0.0
 10
82.977231
 20
46.631591
 30
0.0
 10
82.936116
 20
47.038215
 30
0.0
 10
82.977231
 20
47.444839
 30
0.0
 10
83.095152
 20
47.823570
 30
0.0
 10
83.281740
 20
48.166296
 30
0.0
 10
83.528858
 20
48.464900
 30
0.0
 10
83.828368
 20
48.711272
 30
0.0
 10
84.172131
 20
48.897297
 30
0.0
 10
84.552010
 20
49.014861
 30
0.0
 10
84.959866
 20
49.055853
 30
0.0
 10
85.367722
 20
49.014861
 30
0.0
 10
85.747601
 20
48.897297
 30
0.0
 10
86.091364
 20
48.711272
 30
0.0
 10
86.390873
 20
48.464900
 30
0.0
 10
86.637991
 20
48.166296
 30
0.0
 10
86.824580
 20
47.823570
 30
0.0
 10
86.942501
 20
47.444839
 30
0.0
 10
86.983616
 20
47.038215
 30
0.0
  0
LWPOLYLINE
  5
107
100
AcDbEntity
  8
Layer_1
 62
1
100
AcDbPolyline
 90
33
 70
0
 10
87.023751
 20
36.999999
 30
0.0
 10
86.982636
 20
36.593375
 30
0.0
 10
86.864715
 20
36.214644
 30
0.0
 10
86.678126
 20
35.871919
 30
0.0
 10
86.431008
 20
35.573314
 30
0.0
 10
86.131499
 20
35.326942
 30
0.0
 10
85.787736
 20
35.140917
 30
0.0
 10
85.407857
 20
35.023353
 30
0.0
 10
85.000001
 20
34.982362
 30
0.0
 10
84.592144
 20
35.023353
 30
0.0
 10
84.212266
 20
35.140917
 30
0.0
 10
83.868503
 20
35.326942
 30
0.0
 10
83.568993
 20
35.573314
 30
0.0
 10
83.321875
 20
35.871919
 30
0.0
 10
83.135287
 20
36.214644
 30
0.0
 10
83.017366
 20
36.593375
 30
0.0
 10
82.976250
 20
36.999999
 30
0.0
 10
83.017366
 20
37.406623
 30
0.0
 10
83.135287
 20
37.785355
 30
0.0
 10
83.321875
 20
38.128080
 30
0.0
 10
83.568993
 20
38.426684
 30
0.0
 10
83.868503
 20
38.673057
 30
0.0
 10
84.212266
 20
38.859081
 30
0.0
 10
84.592144
 20
38.976645
 30
0.0
 10
85.000001
 20
39.017637
 30
0.0
 10
85.407857
 20
38.976645
 30
0.0
 10
85.787736
 20
38.859081
 30
0.0
 10
86.131499
 20
38.673057
 30
0.0
 10
86.431008
 20
38.426684
 30
0.0
 10
86.678126
 20
38.128080
 30
0.0
 10
86.864715
 20
37.785355
 30
0.0
 10
86.982636
 20
37.406623
 30
0.0
 10
87.023751
 20
36.999999
 30
0.0
  0
LWPOLYLINE
  5
108
100
AcDbEntity
  8
Layer_1
 62
1
100
AcDbPolyline
 90
33
 70
0
 10
86.983616
 20
7.038216
 30
0.0
 10
86.942501
 20
6.631592
 30
0.0
 10
86.824580
 20
6.252861
 30
0.0
 10
86.637991
 20
5.910135
 30
0.0
 10
86.390873
 20
5.611531
 30
0.0
 10
86.091364
 20
5.365158
 30
0.0
 10
85.747601
 20
5.179134
 30
0.0
 10
85.367722
 20
5.061570
 30
0.0
 10
84.959866
 20
5.020578
 30
0.0
 10
84.552010
 20
5.061570
 30
0.0
 10
84.172131
 20
5.179134
 30
0.0
 10
83.828368
 20
5.365158
 30
0.0
 10
83.528858
 20
5.611531
 30
0.0
 10
83.281740
 20
5.910135
 30
0.0
 10
83.095152
 20
6.252861
 30
0.0
 10
82.977231
 20
6.631592
 30
0.0
 10
82.936116
 20
7.038216
 30
0.0
 10
82.977231
 20
7.444840
 30
0.0
 10
83.095152
 20
7.823571
 30
0.0
 10
83.281740
 20
8.166297
 30
0.0
 10
83.528858
 20
8.464901
 30
0.0
 10
83.828368
 20
8.711273
 30
0.0
 10
84.172131
 20
8.897298
 30
0.0
 10
84.552010
 20
9.014862
 30
0.0
 10
84.959866
 20
9.055854
 30
0.0
 10
85.367722
 20
9.014862
 30
0.0
 10
85.747601
 20
8.897298
 30
0.0
 10
86.091364
 20
8.711273
 30
0.0
 10
86.390873
 20
8.464901
 30
0.0
 10
86.637991
 20
8.166297
 30
0.0
 10
86.824580
 20
7.823571
 30
0.0
 10
86.942501
 20
7.444840
 30
0.0
 10
86.983616
 20
7.038216
 30
0.0
  0
LWPOLYLINE
  5
109
100
AcDbEntity
  8
Layer_1
 62
1
100
AcDbPolyline
 90
33
 70
0
 10
86.983616
 20
27.038215
 30
0.0
 10
86.942501
 20
26.631591
 30
0.0
 10
86.824580
 20
26.252860
 30
0.0
 10
86.637991
 20
25.910134
 30
0.0
 10
86.390873
 20
25.611530
 30
0.0
 10
86.091364
 20
25.365158
 30
0.0
 10
85.747601
 20
25.179133
 30
0.0
 10
85.367722
 20
25.061569
 30
0.0
 10
84.959866
 20
25.020578
 30
0.0
 10
84.552010
 20
25.061569
 30
0.0
 10
84.172131
 20
25.179133
 30
0.0
 10
83.828368
 20
25.365158
 30
0.0
 10
83.528858
 20
25.611530
 30
0.0
 10
83.281740
 20
25.910134
 30
0.0
 10
83.095152
 20
26.252860
 30
0.0
 10
82.977231
 20
26.631591
 30
0.0
 10
82.936116
 20
27.038215
 30
0.0
 10
82.977231
 20
27.444839
 30
0.0
 10
83.095152
 20
27.823571
 30
0.0
 10
83.281740
 20
28.166296
 30
0.0
 10
83.528858
 20
28.464900
 30
0.0
 10
83.828368
 20
28.711273
 30
0.0
 10
84.172131
 20
28.897297
 30
0.0
 10
84.552010
 20
29.014861
 30
0.0
 10
84.959866
 20
29.055853
 30
0.0
 10
85.367722
 20
29.014861
 30
0.0
 10
85.747601
 20
28.897297
 30
0.0
 10
86.091364
 20
28.711273
 30
0.0
 10
86.390873
 20
28.464900
 30
0.0
 10
86.637991
 20
28.166296
 30
0.0
 10
86.824580
 20
27.823571
 30
0.0
 10
86.942501
 20
27.444839
 30
0.0
 10
86.983616
 20
27.038215
 30
0.0
  0
LWPOLYLINE
  5
10a
100
AcDbEntity
  8
Layer_1
 62
1
100
AcDbPolyline
 90
33
 70
0
 10
86.983616
 20
17.038216
 30
0.0
 10
86.942501
 20
16.631592
 30
0.0
 10
86.824580
 20
16.252860
 30
0.0
 10
86.637991
 20
15.910135
 30
0.0
 10
86.390873
 20
15.611531
 30
0.0
 10
86.091364
 20
15.365158
 30
0.0
 10
85.747601
 20
15.179134
 30
0.0
 10
85.367722
 20
15.061569
 30
0.0
 10
84.959866
 20
15.020578
 30
0.0
 10
84.552010
 20
15.061569
 30
0.0
 10
84.172131
 20
15.179134
 30
0.0
 10
83.828368
 20
15.365158
 30
0.0
 10
83.528858
 20
15.611531
 30
0.0
 10
83.281740
 20
15.910135
 30
0.0
 10
83.095152
 20
16.252860
 30
0.0
 10
82.977231
 20
16.631592
 30
0.0
 10
82.936116
 20
17.038216
 30
0.0
 10
82.977231
 20
17.444839
 30
0.0
 10
83.095152
 20
17.823571
 30
0.0
 10
83.281740
 20
18.166296
 30
0.0
 10
83.528858
 20
18.464901
 30
0.0
 10
83.828368
 20
18.711273
 30
0.0
 10
84.172131
 20
18.897298
 30
0.0
 10
84.552010
 20
19.014862
 30
0.0
 10
84.959866
 20
19.055853
 30
0.0
 10
85.367722
 20
19.014862
 30
0.0
 10
85.747601
 20
18.897298
 30
0.0
 10
86.091364
 20
18.711273
 30
0.0
 10
86.390873
 20
18.464901
 30
0.0
 10
86.637991
 20
18.166296
 30
0.0
 10
86.824580
 20
17.823571
 30
0.0
 10
86.942501
 20
17.444839
 30
0.0
 10
86.983616
 20
17.038216
 30
0.0
  0
LWPOLYLINE
  5
10b
100
AcDbEntity
  8
Layer_1
 62
1
100
AcDbPolyline
 90
33
 70
0
 10
14.000000
 20
45.999998
 30
0.0
 10
13.969524
 20
45.697696
 30
0.0
 10
13.882121
 20
45.416132
 30
0.0
 10
13.743822
 20
45.161337
 30
0.0
 10
13.560659
 20
44.939341
 30
0.0
 10
13.338663
 20
44.756177
 30
0.0
 10
13.083867
 20
44.617878
 30
0.0
 10
12.802301
 20
44.530477
 30
0.0
 10
12.499999
 20
44.499997
 30
0.0
 10
12.197697
 20
44.530477
 30
0.0
 10
11.916131
 20
44.617878
 30
0.0
 10
11.661335
 20
44.756177
 30
0.0
 10
11.439339
 20
44.939341
 30
0.0
 10
11.256175
 20
45.161337
 30
0.0
 10
11.117876
 20
45.416132
 30
0.0
 10
11.030473
 20
45.697696
 30
0.0
 10
10.999998
 20
45.999998
 30
0.0
 10
11.030473
 20
46.302300
 30
0.0
 10
11.117876
 20
46.583868
 30
0.0
 10
11.256175
 20
46.838664
 30
0.0
 10
11.439339
 20
47.060660
 30
0.0
 10
11.661335
 20
47.243823
 30
0.0
 10
11.916131
 20
47.382122
 30
0.0
 10
12.197697
 20
47.469523
 30
0.0
 10
12.499999
 20
47.500003
 30
0.0
 10
12.802301
 20
47.469523
 30
0.0
 10
13.083867
 20
47.382122
 30
0.0
 10
13.338663
 20
47.243823
 30
0.0
 10
13.560659
 20
47.060660
 30
0.0
 10
13.743822
 20
46.838664
 30
0.0
 10
13.882121
 20
46.583868
 30
0.0
 10
13.969524
 20
46.302300
 30
0.0
 10
14.000000
 20
45.999998
 30
0.0
  0
LWPOLYLINE
  5
10c
100
AcDbEntity
  8
Layer_1
 62
1
100
AcDbPolyline
 90
33
 70
0
 10
14.000000
 20
17.999999
 30
0.0
 10
13.969524
 20
17.697697
 30
0.0
 10
13.882121
 20
17.416134
 30
0.0
 10
13.743822
 20
17.161338
 30
0.0
 10
13.560659
 20
16.939342
 30
0.0
 10
13.338663
 20
16.756178
 30
0.0
 10
13.083866
 20
16.617879
 30
0.0
 10
12.802301
 20
16.530478
 30
0.0
 10
12.499999
 20
16.499998
 30
0.0
 10
12.197696
 20
16.530478
 30
0.0
 10
11.916131
 20
16.617879
 30
0.0
 10
11.661335
 20
16.756178
 30
0.0
 10
11.439339
 20
16.939342
 30
0.0
 10
11.256175
 20
17.161338
 30
0.0
 10
11.117876
 20
17.416134
 30
0.0
 10
11.030473
 20
17.697697
 30
0.0
 10
10.999997
 20
17.999999
 30
0.0
 10
11.030473
 20
18.302302
 30
0.0
 10
11.117876
 20
18.583869
 30
0.0
 10
11.256175
 20
18.838665
 30
0.0
 10
11.439339
 20
19.060661
 30
0.0
 10
11.661335
 20
19.243825
 30
0.0
 10
11.916131
 20
19.382123
 30
0.0
 10
12.197696
 20
19.469525
 30
0.0
 10
12.499999
 20
19.500005
 30
0.0
 10
12.802301
 20
19.469525
 30
0.0
 10
13.083866
 20
19.382123
 30
0.0
 10
13.338663
 20
19.243825
 30
0.0
 10
13.560659
 20
19.060661
 30
0.0
 10
13.743822
 20
18.838665
 30
0.0
 10
13.882121
 20
18.583869
 30
0.0
 10
13.969524
 20
18.302302
 30
0.0
 10
14.000000
 20
17.999999
 30
0.0
  0
LWPOLYLINE
  5
10d
100
AcDbEntity
  8
Layer_1
 62
1
100
AcDbPolyline
 90
33
 70
0
 10
66.499999
 20
51.499998
 30
0.0
 10
66.469523
 20
51.197696
 30
0.0
 10
66.382120
 20
50.916132
 30
0.0
 10
66.243822
 20
50.661337
 30
0.0
 10
66.060658
 20
50.439341
 30
0.0
 10
65.838662
 20
50.256177
 30
0.0
 10
65.583866
 20
50.117878
 30
0.0
 10
65.302300
 20
50.030477
 30
0.0
 10
64.999998
 20
49.999997
 30
0.0
 10
64.697696
 20
50.030477
 30
0.0
 10
64.416130
 20
50.117878
 30
0.0
 10
64.161334
 20
50.256177
 30
0.0
 10
63.939338
 20
50.439341
 30
0.0
 10
63.756174
 20
50.661337
 30
0.0
 10
63.617876
 20
50.916132
 30
0.0
 10
63.530473
 20
51.197696
 30
0.0
 10
63.499997
 20
51.499998
 30
0.0
 10
63.530473
 20
51.802300
 30
0.0
 10
63.617876
 20
52.083868
 30
0.0
 10
63.756174
 20
52.338664
 30
0.0
 10
63.939338
 20
52.560660
 30
0.0
 10
64.161334
 20
52.743823
 30
0.0
 10
64.416130
 20
52.882122
 30
0.0
 10
64.697696
 20
52.969524
 30
0.0
 10
64.999998
 20
53.000004
 30
0.0
 10
65.302300
 20
52.969524
 30
0.0
 10
65.583866
 20
52.882122
 30
0.0
 10
65.838662
 20
52.743823
 30
0.0
 10
66.060658
 20
52.560660
 30
0.0
 10
66.243822
 20
52.338664
 30
0.0
 10
66.382120
 20
52.083868
 30
0.0
 10
66.469523
 20
51.802300
 30
0.0
 10
66.499999
 20
51.499998
 30
0.0
  0
LWPOLYLINE
  5
10e
100
AcDbEntity
  8
Layer_1
 62
1
100
AcDbPolyline
 90
33
 70
0
 10
64.999999
 20
2.499999
 30
0.0
 10
64.969524
 20
2.197697
 30
0.0
 10
64.882121
 20
1.916134
 30
0.0
 10
64.743822
 20
1.661338
 30
0.0
 10
64.560659
 20
1.439342
 30
0.0
 10
64.338663
 20
1.256178
 30
0.0
 10
64.083866
 20
1.117879
 30
0.0
 10
63.802300
 20
1.030478
 30
0.0
 10
63.499998
 20
0.999998
 30
0.0
 10
63.197696
 20
1.030478
 30
0.0
 10
62.916130
 20
1.117879
 30
0.0
 10
62.661334
 20
1.256178
 30
0.0
 10
62.439338
 20
1.439342
 30
0.0
 10
62.256175
 20
1.661338
 30
0.0
 10
62.117876
 20
1.916134
 30
0.0
 10
62.030473
 20
2.197697
 30
0.0
 10
61.999997
 20
2.499999
 30
0.0
 10
62.030473
 20
2.802302
 30
0.0
 10
62.117876
 20
3.083869
 30
0.0
 10
62.256175
 20
3.338665
 30
0.0
 10
62.439338
 20
3.560661
 30
0.0
 10
62.661334
 20
3.743825
 30
0.0
 10
62.916130
 20
3.882123
 30
0.0
 10
63.197696
 20
3.969525
 30
0.0
 10
63.499998
 20
4.000005
 30
0.0
 10
63.802300
 20
3.969525
 30
0.0
 10
64.083866
 20
3.882123
 30
0.0
 10
64.338663
 20
3.743825
 30
0.0
 10
64.560659
 20
3.560661
 30
0.0
 10
64.743822
 20
3.338665
 30
0.0
 10
64.882121
 20
3.083869
 30
0.0
 10
64.969524
 20
2.802302
 30
0.0
 10
64.999999
 20
2.499999
 30
0.0
  0
ENDSEC
  0
SECTION
  2
OBJECTS
  0
DICTIONARY
  5
C
330
0
100
AcDbDictionary
  3
ACAD_GROUP
350
D
  3
ACAD_MLINESTYLE
350
17
  0
DICTIONARY
  5
D
330
C
100
AcDbDictionary
  0
DICTIONARY
  5
1A
330
C
100
AcDbDictionary
  0
DICTIONARY
  5
17
330
C
100
AcDbDictionary
  3
STANDARD
350
18
  0
DICTIONARY
  5
19
330
C
100
AcDbDictionary
  0
ENDSEC
  0
EOF
