  0
SECTION
  2
HEADER
  9
$ACADVER
  1
AC1014
  9
$HANDSEED
  5
FFFF
  9
$MEASUREMENT
 70
     1
  0
ENDSEC
  0
SECTION
  2
TABLES
  0
TABLE
  2
VPORT
  5
8
330
0
100
AcDbSymbolTable
 70
     4
  0
VPORT
  5
2E
330
8
100
AcDbSymbolTableRecord
100
AcDbViewportTableRecord
  2
*ACTIVE
 70
     0
 10
0.0
 20
0.0
 11
1.0
 21
1.0
 12
210.0
 22
148.5
 13
0.0
 23
0.0
 14
10.0
 24
10.0
 15
10.0
 25
10.0
 16
0.0
 26
0.0
 36
1.0
 17
0.0
 27
0.0
 37
0.0
 40
341.0
 41
1.24
 42
50.0
 43
0.0
 44
0.0
 50
0.0
 51
0.0
 71
     0
 72
   100
 73
     1
 74
     3
 75
     0
 76
     0
 77
     0
 78
     0
  0
ENDTAB
  0
TABLE
  2
LTYPE
  5
5
330
0
100
AcDbSymbolTable
 70
     1
  0
LTYPE
  5
14
330
5
100
AcDbSymbolTableRecord
100
AcDbLinetypeTableRecord
  2
BYBLOCK
 70
     0
  3

 72
    65
 73
     0
 40
0.0
  0
LTYPE
  5
15
330
5
100
AcDbSymbolTableRecord
100
AcDbLinetypeTableRecord
  2
BYLAYER
 70
     0
  3

 72
    65
 73
     0
 40
0.0
  0
LTYPE
  5
16
330
5
100
AcDbSymbolTableRecord
100
AcDbLinetypeTableRecord
  2
CONTINUOUS
 70
     0
  3
Solid line
 72
    65
 73
     0
 40
0.0
  0
ENDTAB
  0
TABLE
  2
LAYER
  5
2
100
AcDbSymbolTable
 70
2
  0
LAYER
  5
50
100
AcDbSymbolTableRecord
100
AcDbLayerTableRecord
  2
0
 70
0
  6
CONTINUOUS
  0
LAYER
  5
51
100
AcDbSymbolTableRecord
100
AcDbLayerTableRecord
  2
Layer_1
 70
0
  6
CONTINUOUS
  0
ENDTAB
  0
TABLE
  2
STYLE
  5
3
330
0
100
AcDbSymbolTable
 70
     1
  0
STYLE
  5
11
330
3
100
AcDbSymbolTableRecord
100
AcDbTextStyleTableRecord
  2
STANDARD
 70
     0
 40
0.0
 41
1.0
 50
0.0
 71
     0
 42
2.5
  3
txt
  4

  0
ENDTAB
  0
TABLE
  2
VIEW
  5
6
330
0
100
AcDbSymbolTable
 70
     0
  0
ENDTAB
  0
TABLE
  2
UCS
  5
7
330
0
100
AcDbSymbolTable
 70
     0
  0
ENDTAB
  0
TABLE
  2
APPID
  5
9
330
0
100
AcDbSymbolTable
 70
     2
  0
APPID
  5
12
330
9
100
AcDbSymbolTableRecord
100
AcDbRegAppTableRecord
  2
ACAD
 70
     0
  0
ENDTAB
  0
TABLE
  2
DIMSTYLE
  5
A
330
0
100
AcDbSymbolTable
 70
     1
  0
DIMSTYLE
105
27
330
A
100
AcDbSymbolTableRecord
100
AcDbDimStyleTableRecord
  2
ISO-25
 70
     0
  3

  4

  5

  6

  7

 40
1.0
 41
2.5
 42
0.625
 43
3.75
 44
1.25
 45
0.0
 46
0.0
 47
0.0
 48
0.0
140
2.5
141
2.5
142
0.0
143
0.03937007874016
144
1.0
145
0.0
146
1.0
147
0.625
 71
     0
 72
     0
 73
     0
 74
     0
 75
     0
 76
     0
 77
     1
 78
     8
170
     0
171
     3
172
     1
173
     0
174
     0
175
     0
176
     0
177
     0
178
     0
270
     2
271
     2
272
     2
273
     2
274
     3
340
11
275
     0
280
     0
281
     0
282
     0
283
     0
284
     8
285
     0
286
     0
287
     3
288
     0
  0
ENDTAB
  0
TABLE
  2
BLOCK_RECORD
  5
1
330
0
100
AcDbSymbolTable
 70
     1
  0
BLOCK_RECORD
  5
1F
330
1
100
AcDbSymbolTableRecord
100
AcDbBlockTableRecord
  2
*MODEL_SPACE
  0
BLOCK_RECORD
  5
1B
330
1
100
AcDbSymbolTableRecord
100
AcDbBlockTableRecord
  2
*PAPER_SPACE
  0
ENDTAB
  0
ENDSEC
  0
SECTION
  2
BLOCKS
  0
BLOCK
  5
20
330
1F
100
AcDbEntity
  8
0
100
AcDbBlockBegin
  2
*MODEL_SPACE
 70
     0
 10
0.0
 20
0.0
 30
0.0
  3
*MODEL_SPACE
  1

  0
ENDBLK
  5
21
330
1F
100
AcDbEntity
  8
0
100
AcDbBlockEnd
  0
BLOCK
  5
1C
330
1B
100
AcDbEntity
 67
     1
  8
0
100
AcDbBlockBegin
  2
*PAPER_SPACE
  1

  0
ENDBLK
  5
1D
330
1B
100
AcDbEntity
 67
     1
  8
0
100
AcDbBlockEnd
  0
ENDSEC
  0
SECTION
  2
ENTITIES
  0
LWPOLYLINE
  5
100
100
AcDbEntity
  8
Layer_1
 62
1
100
AcDbPolyline
 90
70
 70
0
 10
4.346267
 20
74.252116
 30
0.0
 10
86.122064
 20
74.252116
 30
0.0
 10
86.543665
 20
74.230950
 30
0.0
 10
86.952822
 20
74.168849
 30
0.0
 10
87.347496
 20
74.067837
 30
0.0
 10
87.725654
 20
73.929946
 30
0.0
 10
88.085261
 20
73.757214
 30
0.0
 10
88.424278
 20
73.551680
 30
0.0
 10
88.740671
 20
73.315378
 30
0.0
 10
89.032402
 20
73.050344
 30
0.0
 10
89.297439
 20
72.758610
 30
0.0
 10
89.533741
 20
72.442220
 30
0.0
 10
89.739275
 20
72.103200
 30
0.0
 10
89.912007
 20
71.743595
 30
0.0
 10
90.049895
 20
71.365437
 30
0.0
 10
90.150910
 20
70.970764
 30
0.0
 10
90.213011
 20
70.561606
 30
0.0
 10
90.234177
 20
70.140006
 30
0.0
 10
90.234177
 20
4.346239
 30
0.0
 10
90.213011
 20
3.924639
 30
0.0
 10
90.150910
 20
3.515481
 30
0.0
 10
90.049895
 20
3.120808
 30
0.0
 10
89.912007
 20
2.742650
 30
0.0
 10
89.739275
 20
2.383042
 30
0.0
 10
89.533741
 20
2.044025
 30
0.0
 10
89.297439
 20
1.727632
 30
0.0
 10
89.032402
 20
1.435902
 30
0.0
 10
88.740671
 20
1.170864
 30
0.0
 10
88.424278
 20
0.934562
 30
0.0
 10
88.085261
 20
0.729028
 30
0.0
 10
87.725654
 20
0.556297
 30
0.0
 10
87.347496
 20
0.418409
 30
0.0
 10
86.952822
 20
0.317393
 30
0.0
 10
86.543665
 20
0.255293
 30
0.0
 10
86.122064
 20
0.234154
 30
0.0
 10
4.346267
 20
0.234154
 30
0.0
 10
3.924667
 20
0.255321
 30
0.0
 10
3.515510
 20
0.317421
 30
0.0
 10
3.120836
 20
0.418437
 30
0.0
 10
2.742678
 20
0.556325
 30
0.0
 10
2.383070
 20
0.729056
 30
0.0
 10
2.044054
 20
0.934590
 30
0.0
 10
1.727660
 20
1.170892
 30
0.0
 10
1.435930
 20
1.435930
 30
0.0
 10
1.170892
 20
1.727660
 30
0.0
 10
0.934590
 20
2.044054
 30
0.0
 10
0.729056
 20
2.383070
 30
0.0
 10
0.556325
 20
2.742678
 30
0.0
 10
0.418437
 20
3.120836
 30
0.0
 10
0.317421
 20
3.515510
 30
0.0
 10
0.255321
 20
3.924667
 30
0.0
 10
0.234154
 20
4.346267
 30
0.0
 10
0.234154
 20
70.140034
 30
0.0
 10
0.255321
 20
70.561635
 30
0.0
 10
0.317421
 20
70.970792
 30
0.0
 10
0.418437
 20
71.365466
 30
0.0
 10
0.556325
 20
71.743624
 30
0.0
 10
0.729056
 20
72.103228
 30
0.0
 10
0.934590
 20
72.442248
 30
0.0
 10
1.170892
 20
72.758639
 30
0.0
 10
1.435930
 20
73.050372
 30
0.0
 10
1.727660
 20
73.315407
 30
0.0
 10
2.044054
 20
73.551709
 30
0.0
 10
2.383070
 20
73.757242
 30
0.0
 10
2.742678
 20
73.929974
 30
0.0
 10
3.120836
 20
74.067865
 30
0.0
 10
3.515510
 20
74.168878
 30
0.0
 10
3.924667
 20
74.230978
 30
0.0
 10
4.346267
 20
74.252145
 30
0.0
 10
4.346267
 20
74.252116
 30
0.0
  0
LWPOLYLINE
  5
101
100
AcDbEntity
  8
Layer_1
 62
1
100
AcDbPolyline
 90
33
 70
0
 10
4.234165
 20
56.252111
 30
0.0
 10
4.203690
 20
55.949809
 30
0.0
 10
4.116287
 20
55.668246
 30
0.0
 10
3.977988
 20
55.413450
 30
0.0
 10
3.794825
 20
55.191454
 30
0.0
 10
3.572829
 20
55.008290
 30
0.0
 10
3.318032
 20
54.869992
 30
0.0
 10
3.036467
 20
54.782590
 30
0.0
 10
2.734164
 20
54.752110
 30
0.0
 10
2.431862
 20
54.782590
 30
0.0
 10
2.150297
 20
54.869992
 30
0.0
 10
1.895500
 20
55.008290
 30
0.0
 10
1.673504
 20
55.191454
 30
0.0
 10
1.490341
 20
55.413450
 30
0.0
 10
1.352042
 20
55.668246
 30
0.0
 10
1.264639
 20
55.949809
 30
0.0
 10
1.234163
 20
56.252111
 30
0.0
 10
1.264639
 20
56.554414
 30
0.0
 10
1.352042
 20
56.835981
 30
0.0
 10
1.490341
 20
57.090777
 30
0.0
 10
1.673504
 20
57.312773
 30
0.0
 10
1.895500
 20
57.495937
 30
0.0
 10
2.150297
 20
57.634235
 30
0.0
 10
2.431862
 20
57.721637
 30
0.0
 10
2.734164
 20
57.752117
 30
0.0
 10
3.036467
 20
57.721637
 30
0.0
 10
3.318032
 20
57.634235
 30
0.0
 10
3.572829
 20
57.495937
 30
0.0
 10
3.794825
 20
57.312773
 30
0.0
 10
3.977988
 20
57.090777
 30
0.0
 10
4.116287
 20
56.835981
 30
0.0
 10
4.203690
 20
56.554414
 30
0.0
 10
4.234165
 20
56.252111
 30
0.0
  0
LWPOLYLINE
  5
102
100
AcDbEntity
  8
Layer_1
 62
1
100
AcDbPolyline
 90
33
 70
0
 10
4.234165
 20
28.252111
 30
0.0
 10
4.203690
 20
27.949809
 30
0.0
 10
4.116287
 20
27.668245
 30
0.0
 10
3.977988
 20
27.413450
 30
0.0
 10
3.794825
 20
27.191454
 30
0.0
 10
3.572829
 20
27.008290
 30
0.0
 10
3.318032
 20
26.869991
 30
0.0
 10
3.036467
 20
26.782590
 30
0.0
 10
2.734164
 20
26.752110
 30
0.0
 10
2.431862
 20
26.782590
 30
0.0
 10
2.150297
 20
26.869991
 30
0.0
 10
1.895500
 20
27.008290
 30
0.0
 10
1.673504
 20
27.191454
 30
0.0
 10
1.490341
 20
27.413450
 30
0.0
 10
1.352042
 20
27.668245
 30
0.0
 10
1.264639
 20
27.949809
 30
0.0
 10
1.234163
 20
28.252111
 30
0.0
 10
1.264639
 20
28.554413
 30
0.0
 10
1.352042
 20
28.835981
 30
0.0
 10
1.490341
 20
29.090777
 30
0.0
 10
1.673504
 20
29.312773
 30
0.0
 10
1.895500
 20
29.495936
 30
0.0
 10
2.150297
 20
29.634235
 30
0.0
 10
2.431862
 20
29.721636
 30
0.0
 10
2.734164
 20
29.752116
 30
0.0
 10
3.036467
 20
29.721636
 30
0.0
 10
3.318032
 20
29.634235
 30
0.0
 10
3.572829
 20
29.495936
 30
0.0
 10
3.794825
 20
29.312773
 30
0.0
 10
3.977988
 20
29.090777
 30
0.0
 10
4.116287
 20
28.835981
 30
0.0
 10
4.203690
 20
28.554413
 30
0.0
 10
4.234165
 20
28.252111
 30
0.0
  0
LWPOLYLINE
  5
103
100
AcDbEntity
  8
Layer_1
 62
1
100
AcDbPolyline
 90
33
 70
0
 10
55.234165
 20
61.752112
 30
0.0
 10
55.203689
 20
61.449809
 30
0.0
 10
55.116286
 20
61.168246
 30
0.0
 10
54.977987
 20
60.913450
 30
0.0
 10
54.794824
 20
60.691454
 30
0.0
 10
54.572828
 20
60.508291
 30
0.0
 10
54.318032
 20
60.369992
 30
0.0
 10
54.036466
 20
60.282590
 30
0.0
 10
53.734164
 20
60.252110
 30
0.0
 10
53.431861
 20
60.282590
 30
0.0
 10
53.150296
 20
60.369992
 30
0.0
 10
52.895500
 20
60.508291
 30
0.0
 10
52.673504
 20
60.691454
 30
0.0
 10
52.490340
 20
60.913450
 30
0.0
 10
52.352041
 20
61.168246
 30
0.0
 10
52.264638
 20
61.449809
 30
0.0
 10
52.234163
 20
61.752112
 30
0.0
 10
52.264638
 20
62.054414
 30
0.0
 10
52.352041
 20
62.335982
 30
0.0
 10
52.490340
 20
62.590777
 30
0.0
 10
52.673504
 20
62.812773
 30
0.0
 10
52.895500
 20
62.995937
 30
0.0
 10
53.150296
 20
63.134236
 30
0.0
 10
53.431861
 20
63.221637
 30
0.0
 10
53.734164
 20
63.252117
 30
0.0
 10
54.036466
 20
63.221637
 30
0.0
 10
54.318032
 20
63.134236
 30
0.0
 10
54.572828
 20
62.995937
 30
0.0
 10
54.794824
 20
62.812773
 30
0.0
 10
54.977987
 20
62.590777
 30
0.0
 10
55.116286
 20
62.335982
 30
0.0
 10
55.203689
 20
62.054414
 30
0.0
 10
55.234165
 20
61.752112
 30
0.0
  0
LWPOLYLINE
  5
104
100
AcDbEntity
  8
Layer_1
 62
1
100
AcDbPolyline
 90
33
 70
0
 10
55.234165
 20
12.752114
 30
0.0
 10
55.203689
 20
12.449811
 30
0.0
 10
55.116286
 20
12.168248
 30
0.0
 10
54.977987
 20
11.913452
 30
0.0
 10
54.794824
 20
11.691456
 30
0.0
 10
54.572828
 20
11.508293
 30
0.0
 10
54.318032
 20
11.369994
 30
0.0
 10
54.036466
 20
11.282593
 30
0.0
 10
53.734164
 20
11.252113
 30
0.0
 10
53.431861
 20
11.282593
 30
0.0
 10
53.150296
 20
11.369994
 30
0.0
 10
52.895500
 20
11.508293
 30
0.0
 10
52.673504
 20
11.691456
 30
0.0
 10
52.490340
 20
11.913452
 30
0.0
 10
52.352041
 20
12.168248
 30
0.0
 10
52.264638
 20
12.449811
 30
0.0
 10
52.234163
 20
12.752114
 30
0.0
 10
52.264638
 20
13.054416
 30
0.0
 10
52.352041
 20
13.335984
 30
0.0
 10
52.490340
 20
13.590779
 30
0.0
 10
52.673504
 20
13.812775
 30
0.0
 10
52.895500
 20
13.995939
 30
0.0
 10
53.150296
 20
14.134238
 30
0.0
 10
53.431861
 20
14.221639
 30
0.0
 10
53.734164
 20
14.252119
 30
0.0
 10
54.036466
 20
14.221639
 30
0.0
 10
54.318032
 20
14.134238
 30
0.0
 10
54.572828
 20
13.995939
 30
0.0
 10
54.794824
 20
13.812775
 30
0.0
 10
54.977987
 20
13.590779
 30
0.0
 10
55.116286
 20
13.335984
 30
0.0
 10
55.203689
 20
13.054416
 30
0.0
 10
55.234165
 20
12.752114
 30
0.0
  0
LWPOLYLINE
  5
105
100
AcDbEntity
  8
Layer_1
 62
1
100
AcDbPolyline
 90
33
 70
0
 10
45.234163
 20
67.228363
 30
0.0
 10
44.827539
 20
67.269479
 30
0.0
 10
44.448808
 20
67.387400
 30
0.0
 10
44.106082
 20
67.573988
 30
0.0
 10
43.807478
 20
67.821106
 30
0.0
 10
43.561106
 20
68.120616
 30
0.0
 10
43.375081
 20
68.464379
 30
0.0
 10
43.257517
 20
68.844257
 30
0.0
 10
43.216525
 20
69.252114
 30
0.0
 10
43.257517
 20
69.659970
 30
0.0
 10
43.375081
 20
70.039849
 30
0.0
 10
43.561106
 20
70.383612
 30
0.0
 10
43.807478
 20
70.683121
 30
0.0
 10
44.106082
 20
70.930239
 30
0.0
 10
44.448808
 20
71.116828
 30
0.0
 10
44.827539
 20
71.234749
 30
0.0
 10
45.234163
 20
71.275864
 30
0.0
 10
45.640787
 20
71.234749
 30
0.0
 10
46.019518
 20
71.116828
 30
0.0
 10
46.362244
 20
70.930239
 30
0.0
 10
46.660848
 20
70.683121
 30
0.0
 10
46.907220
 20
70.383612
 30
0.0
 10
47.093245
 20
70.039849
 30
0.0
 10
47.210809
 20
69.659970
 30
0.0
 10
47.251801
 20
69.252114
 30
0.0
 10
47.210809
 20
68.844257
 30
0.0
 10
47.093245
 20
68.464379
 30
0.0
 10
46.907220
 20
68.120616
 30
0.0
 10
46.660848
 20
67.821106
 30
0.0
 10
46.362244
 20
67.573988
 30
0.0
 10
46.019518
 20
67.387400
 30
0.0
 10
45.640787
 20
67.269479
 30
0.0
 10
45.234163
 20
67.228363
 30
0.0
  0
LWPOLYLINE
  5
106
100
AcDbEntity
  8
Layer_1
 62
1
100
AcDbPolyline
 90
33
 70
0
 10
35.195947
 20
67.188229
 30
0.0
 10
34.789324
 20
67.229344
 30
0.0
 10
34.410592
 20
67.347265
 30
0.0
 10
34.067867
 20
67.533853
 30
0.0
 10
33.769262
 20
67.780971
 30
0.0
 10
33.522890
 20
68.080481
 30
0.0
 10
33.336865
 20
68.424244
 30
0.0
 10
33.219301
 20
68.804123
 30
0.0
 10
33.178310
 20
69.211979
 30
0.0
 10
33.219301
 20
69.619835
 30
0.0
 10
33.336865
 20
69.999714
 30
0.0
 10
33.522890
 20
70.343477
 30
0.0
 10
33.769262
 20
70.642986
 30
0.0
 10
34.067867
 20
70.890104
 30
0.0
 10
34.410592
 20
71.076693
 30
0.0
 10
34.789324
 20
71.194614
 30
0.0
 10
35.195947
 20
71.235729
 30
0.0
 10
35.602571
 20
71.194614
 30
0.0
 10
35.981303
 20
71.076693
 30
0.0
 10
36.324028
 20
70.890104
 30
0.0
 10
36.622632
 20
70.642986
 30
0.0
 10
36.869005
 20
70.343477
 30
0.0
 10
37.055029
 20
69.999714
 30
0.0
 10
37.172594
 20
69.619835
 30
0.0
 10
37.213585
 20
69.211979
 30
0.0
 10
37.172594
 20
68.804123
 30
0.0
 10
37.055029
 20
68.424244
 30
0.0
 10
36.869005
 20
68.080481
 30
0.0
 10
36.622632
 20
67.780971
 30
0.0
 10
36.324028
 20
67.533853
 30
0.0
 10
35.981303
 20
67.347265
 30
0.0
 10
35.602571
 20
67.229344
 30
0.0
 10
35.195947
 20
67.188229
 30
0.0
  0
LWPOLYLINE
  5
107
100
AcDbEntity
  8
Layer_1
 62
1
100
AcDbPolyline
 90
33
 70
0
 10
5.234164
 20
67.228363
 30
0.0
 10
4.827540
 20
67.269479
 30
0.0
 10
4.448809
 20
67.387400
 30
0.0
 10
4.106083
 20
67.573988
 30
0.0
 10
3.807479
 20
67.821106
 30
0.0
 10
3.561107
 20
68.120616
 30
0.0
 10
3.375082
 20
68.464379
 30
0.0
 10
3.257518
 20
68.844257
 30
0.0
 10
3.216526
 20
69.252114
 30
0.0
 10
3.257518
 20
69.659970
 30
0.0
 10
3.375082
 20
70.039849
 30
0.0
 10
3.561107
 20
70.383612
 30
0.0
 10
3.807479
 20
70.683121
 30
0.0
 10
4.106083
 20
70.930239
 30
0.0
 10
4.448809
 20
71.116828
 30
0.0
 10
4.827540
 20
71.234749
 30
0.0
 10
5.234164
 20
71.275864
 30
0.0
 10
5.640788
 20
71.234749
 30
0.0
 10
6.019519
 20
71.116828
 30
0.0
 10
6.362245
 20
70.930239
 30
0.0
 10
6.660849
 20
70.683121
 30
0.0
 10
6.907221
 20
70.383612
 30
0.0
 10
7.093246
 20
70.039849
 30
0.0
 10
7.210810
 20
69.659970
 30
0.0
 10
7.251802
 20
69.252114
 30
0.0
 10
7.210810
 20
68.844257
 30
0.0
 10
7.093246
 20
68.464379
 30
0.0
 10
6.907221
 20
68.120616
 30
0.0
 10
6.660849
 20
67.821106
 30
0.0
 10
6.362245
 20
67.573988
 30
0.0
 10
6.019519
 20
67.387400
 30
0.0
 10
5.640788
 20
67.269479
 30
0.0
 10
5.234164
 20
67.228363
 30
0.0
  0
LWPOLYLINE
  5
108
100
AcDbEntity
  8
Layer_1
 62
1
100
AcDbPolyline
 90
33
 70
0
 10
25.234163
 20
67.228363
 30
0.0
 10
24.827539
 20
67.269479
 30
0.0
 10
24.448808
 20
67.387400
 30
0.0
 10
24.106083
 20
67.573988
 30
0.0
 10
23.807478
 20
67.821106
 30
0.0
 10
23.561106
 20
68.120616
 30
0.0
 10
23.375081
 20
68.464379
 30
0.0
 10
23.257517
 20
68.844257
 30
0.0
 10
23.216526
 20
69.252114
 30
0.0
 10
23.257517
 20
69.659970
 30
0.0
 10
23.375081
 20
70.039849
 30
0.0
 10
23.561106
 20
70.383612
 30
0.0
 10
23.807478
 20
70.683121
 30
0.0
 10
24.106083
 20
70.930239
 30
0.0
 10
24.448808
 20
71.116828
 30
0.0
 10
24.827539
 20
71.234749
 30
0.0
 10
25.234163
 20
71.275864
 30
0.0
 10
25.640787
 20
71.234749
 30
0.0
 10
26.019519
 20
71.116828
 30
0.0
 10
26.362244
 20
70.930239
 30
0.0
 10
26.660848
 20
70.683121
 30
0.0
 10
26.907221
 20
70.383612
 30
0.0
 10
27.093245
 20
70.039849
 30
0.0
 10
27.210810
 20
69.659970
 30
0.0
 10
27.251801
 20
69.252114
 30
0.0
 10
27.210810
 20
68.844257
 30
0.0
 10
27.093245
 20
68.464379
 30
0.0
 10
26.907221
 20
68.120616
 30
0.0
 10
26.660848
 20
67.821106
 30
0.0
 10
26.362244
 20
67.573988
 30
0.0
 10
26.019519
 20
67.387400
 30
0.0
 10
25.640787
 20
67.269479
 30
0.0
 10
25.234163
 20
67.228363
 30
0.0
  0
LWPOLYLINE
  5
109
100
AcDbEntity
  8
Layer_1
 62
1
100
AcDbPolyline
 90
33
 70
0
 10
15.234164
 20
67.228363
 30
0.0
 10
14.827540
 20
67.269479
 30
0.0
 10
14.448808
 20
67.387400
 30
0.0
 10
14.106083
 20
67.573988
 30
0.0
 10
13.807479
 20
67.821106
 30
0.0
 10
13.561106
 20
68.120616
 30
0.0
 10
13.375082
 20
68.464379
 30
0.0
 10
13.257517
 20
68.844257
 30
0.0
 10
13.216526
 20
69.252114
 30
0.0
 10
13.257517
 20
69.659970
 30
0.0
 10
13.375082
 20
70.039849
 30
0.0
 10
13.561106
 20
70.383612
 30
0.0
 10
13.807479
 20
70.683121
 30
0.0
 10
14.106083
 20
70.930239
 30
0.0
 10
14.448808
 20
71.116828
 30
0.0
 10
14.827540
 20
71.234749
 30
0.0
 10
15.234164
 20
71.275864
 30
0.0
 10
15.640788
 20
71.234749
 30
0.0
 10
16.019519
 20
71.116828
 30
0.0
 10
16.362244
 20
70.930239
 30
0.0
 10
16.660849
 20
70.683121
 30
0.0
 10
16.907221
 20
70.383612
 30
0.0
 10
17.093246
 20
70.039849
 30
0.0
 10
17.210810
 20
69.659970
 30
0.0
 10
17.251801
 20
69.252114
 30
0.0
 10
17.210810
 20
68.844257
 30
0.0
 10
17.093246
 20
68.464379
 30
0.0
 10
16.907221
 20
68.120616
 30
0.0
 10
16.660849
 20
67.821106
 30
0.0
 10
16.362244
 20
67.573988
 30
0.0
 10
16.019519
 20
67.387400
 30
0.0
 10
15.640788
 20
67.269479
 30
0.0
 10
15.234164
 20
67.228363
 30
0.0
  0
LWPOLYLINE
  5
10a
100
AcDbEntity
  8
Layer_1
 62
1
100
AcDbPolyline
 90
33
 70
0
 10
65.272381
 20
67.268498
 30
0.0
 10
64.865757
 20
67.309614
 30
0.0
 10
64.487026
 20
67.427535
 30
0.0
 10
64.144300
 20
67.614123
 30
0.0
 10
63.845696
 20
67.861241
 30
0.0
 10
63.599324
 20
68.160751
 30
0.0
 10
63.413299
 20
68.504514
 30
0.0
 10
63.295735
 20
68.884392
 30
0.0
 10
63.254743
 20
69.292248
 30
0.0
 10
63.295735
 20
69.700105
 30
0.0
 10
63.413299
 20
70.079984
 30
0.0
 10
63.599324
 20
70.423747
 30
0.0
 10
63.845696
 20
70.723256
 30
0.0
 10
64.144300
 20
70.970374
 30
0.0
 10
64.487026
 20
71.156962
 30
0.0
 10
64.865757
 20
71.274883
 30
0.0
 10
65.272381
 20
71.315999
 30
0.0
 10
65.679005
 20
71.274883
 30
0.0
 10
66.057736
 20
71.156962
 30
0.0
 10
66.400462
 20
70.970374
 30
0.0
 10
66.699066
 20
70.723256
 30
0.0
 10
66.945438
 20
70.423747
 30
0.0
 10
67.131463
 20
70.079983
 30
0.0
 10
67.249027
 20
69.700105
 30
0.0
 10
67.290019
 20
69.292248
 30
0.0
 10
67.249027
 20
68.884392
 30
0.0
 10
67.131463
 20
68.504514
 30
0.0
 10
66.945438
 20
68.160751
 30
0.0
 10
66.699066
 20
67.861241
 30
0.0
 10
66.400462
 20
67.614123
 30
0.0
 10
66.057736
 20
67.427535
 30
0.0
 10
65.679005
 20
67.309614
 30
0.0
 10
65.272381
 20
67.268498
 30
0.0
  0
LWPOLYLINE
  5
10b
100
AcDbEntity
  8
Layer_1
 62
1
100
AcDbPolyline
 90
33
 70
0
 10
55.234165
 20
67.228363
 30
0.0
 10
54.827542
 20
67.269479
 30
0.0
 10
54.448810
 20
67.387400
 30
0.0
 10
54.106085
 20
67.573988
 30
0.0
 10
53.807480
 20
67.821106
 30
0.0
 10
53.561108
 20
68.120616
 30
0.0
 10
53.375083
 20
68.464379
 30
0.0
 10
53.257519
 20
68.844257
 30
0.0
 10
53.216528
 20
69.252114
 30
0.0
 10
53.257519
 20
69.659970
 30
0.0
 10
53.375083
 20
70.039849
 30
0.0
 10
53.561108
 20
70.383612
 30
0.0
 10
53.807480
 20
70.683121
 30
0.0
 10
54.106085
 20
70.930239
 30
0.0
 10
54.448810
 20
71.116828
 30
0.0
 10
54.827542
 20
71.234749
 30
0.0
 10
55.234165
 20
71.275864
 30
0.0
 10
55.640789
 20
71.234749
 30
0.0
 10
56.019521
 20
71.116828
 30
0.0
 10
56.362246
 20
70.930239
 30
0.0
 10
56.660850
 20
70.683121
 30
0.0
 10
56.907223
 20
70.383612
 30
0.0
 10
57.093248
 20
70.039849
 30
0.0
 10
57.210812
 20
69.659970
 30
0.0
 10
57.251803
 20
69.252114
 30
0.0
 10
57.210812
 20
68.844257
 30
0.0
 10
57.093248
 20
68.464379
 30
0.0
 10
56.907223
 20
68.120616
 30
0.0
 10
56.660850
 20
67.821106
 30
0.0
 10
56.362246
 20
67.573988
 30
0.0
 10
56.019521
 20
67.387400
 30
0.0
 10
55.640789
 20
67.269479
 30
0.0
 10
55.234165
 20
67.228363
 30
0.0
  0
LWPOLYLINE
  5
10c
100
AcDbEntity
  8
Layer_1
 62
1
100
AcDbPolyline
 90
33
 70
0
 10
85.272380
 20
67.268498
 30
0.0
 10
84.865757
 20
67.309614
 30
0.0
 10
84.487025
 20
67.427535
 30
0.0
 10
84.144300
 20
67.614123
 30
0.0
 10
83.845695
 20
67.861241
 30
0.0
 10
83.599323
 20
68.160751
 30
0.0
 10
83.413298
 20
68.504514
 30
0.0
 10
83.295734
 20
68.884392
 30
0.0
 10
83.254743
 20
69.292248
 30
0.0
 10
83.295734
 20
69.700105
 30
0.0
 10
83.413298
 20
70.079984
 30
0.0
 10
83.599323
 20
70.423747
 30
0.0
 10
83.845695
 20
70.723256
 30
0.0
 10
84.144300
 20
70.970374
 30
0.0
 10
84.487025
 20
71.156962
 30
0.0
 10
84.865757
 20
71.274883
 30
0.0
 10
85.272380
 20
71.315999
 30
0.0
 10
85.679004
 20
71.274883
 30
0.0
 10
86.057736
 20
71.156962
 30
0.0
 10
86.400461
 20
70.970374
 30
0.0
 10
86.699065
 20
70.723256
 30
0.0
 10
86.945438
 20
70.423747
 30
0.0
 10
87.131463
 20
70.079983
 30
0.0
 10
87.249027
 20
69.700105
 30
0.0
 10
87.290018
 20
69.292248
 30
0.0
 10
87.249027
 20
68.884392
 30
0.0
 10
87.131463
 20
68.504514
 30
0.0
 10
86.945438
 20
68.160751
 30
0.0
 10
86.699065
 20
67.861241
 30
0.0
 10
86.400461
 20
67.614123
 30
0.0
 10
86.057736
 20
67.427535
 30
0.0
 10
85.679004
 20
67.309614
 30
0.0
 10
85.272380
 20
67.268498
 30
0.0
  0
LWPOLYLINE
  5
10d
100
AcDbEntity
  8
Layer_1
 62
1
100
AcDbPolyline
 90
33
 70
0
 10
75.234165
 20
67.228363
 30
0.0
 10
74.827541
 20
67.269479
 30
0.0
 10
74.448810
 20
67.387400
 30
0.0
 10
74.106084
 20
67.573988
 30
0.0
 10
73.807480
 20
67.821106
 30
0.0
 10
73.561108
 20
68.120616
 30
0.0
 10
73.375083
 20
68.464379
 30
0.0
 10
73.257519
 20
68.844257
 30
0.0
 10
73.216527
 20
69.252114
 30
0.0
 10
73.257519
 20
69.659970
 30
0.0
 10
73.375083
 20
70.039849
 30
0.0
 10
73.561108
 20
70.383612
 30
0.0
 10
73.807480
 20
70.683121
 30
0.0
 10
74.106084
 20
70.930239
 30
0.0
 10
74.448810
 20
71.116828
 30
0.0
 10
74.827541
 20
71.234749
 30
0.0
 10
75.234165
 20
71.275864
 30
0.0
 10
75.640789
 20
71.234749
 30
0.0
 10
76.019520
 20
71.116828
 30
0.0
 10
76.362246
 20
70.930239
 30
0.0
 10
76.660850
 20
70.683121
 30
0.0
 10
76.907222
 20
70.383612
 30
0.0
 10
77.093247
 20
70.039849
 30
0.0
 10
77.210811
 20
69.659970
 30
0.0
 10
77.251803
 20
69.252114
 30
0.0
 10
77.210811
 20
68.844257
 30
0.0
 10
77.093247
 20
68.464379
 30
0.0
 10
76.907222
 20
68.120616
 30
0.0
 10
76.660850
 20
67.821106
 30
0.0
 10
76.362246
 20
67.573988
 30
0.0
 10
76.019520
 20
67.387400
 30
0.0
 10
75.640789
 20
67.269479
 30
0.0
 10
75.234165
 20
67.228363
 30
0.0
  0
LWPOLYLINE
  5
10e
100
AcDbEntity
  8
Layer_1
 62
1
100
AcDbPolyline
 90
33
 70
0
 10
45.234163
 20
3.228364
 30
0.0
 10
44.827539
 20
3.269480
 30
0.0
 10
44.448808
 20
3.387401
 30
0.0
 10
44.106082
 20
3.573989
 30
0.0
 10
43.807478
 20
3.821107
 30
0.0
 10
43.561106
 20
4.120617
 30
0.0
 10
43.375081
 20
4.464380
 30
0.0
 10
43.257517
 20
4.844258
 30
0.0
 10
43.216525
 20
5.252115
 30
0.0
 10
43.257517
 20
5.659971
 30
0.0
 10
43.375081
 20
6.039850
 30
0.0
 10
43.561106
 20
6.383613
 30
0.0
 10
43.807478
 20
6.683122
 30
0.0
 10
44.106082
 20
6.930240
 30
0.0
 10
44.448808
 20
7.116829
 30
0.0
 10
44.827539
 20
7.234750
 30
0.0
 10
45.234163
 20
7.275865
 30
0.0
 10
45.640787
 20
7.234750
 30
0.0
 10
46.019518
 20
7.116829
 30
0.0
 10
46.362244
 20
6.930240
 30
0.0
 10
46.660848
 20
6.683122
 30
0.0
 10
46.907220
 20
6.383613
 30
0.0
 10
47.093245
 20
6.039850
 30
0.0
 10
47.210809
 20
5.659971
 30
0.0
 10
47.251801
 20
5.252115
 30
0.0
 10
47.210809
 20
4.844258
 30
0.0
 10
47.093245
 20
4.464380
 30
0.0
 10
46.907220
 20
4.120617
 30
0.0
 10
46.660848
 20
3.821107
 30
0.0
 10
46.362244
 20
3.573989
 30
0.0
 10
46.019518
 20
3.387401
 30
0.0
 10
45.640787
 20
3.269480
 30
0.0
 10
45.234163
 20
3.228364
 30
0.0
  0
LWPOLYLINE
  5
10f
100
AcDbEntity
  8
Layer_1
 62
1
100
AcDbPolyline
 90
33
 70
0
 10
35.195947
 20
3.188230
 30
0.0
 10
34.789324
 20
3.229345
 30
0.0
 10
34.410592
 20
3.347266
 30
0.0
 10
34.067867
 20
3.533854
 30
0.0
 10
33.769262
 20
3.780972
 30
0.0
 10
33.522890
 20
4.080482
 30
0.0
 10
33.336865
 20
4.424245
 30
0.0
 10
33.219301
 20
4.804124
 30
0.0
 10
33.178310
 20
5.211980
 30
0.0
 10
33.219301
 20
5.619836
 30
0.0
 10
33.336865
 20
5.999715
 30
0.0
 10
33.522890
 20
6.343478
 30
0.0
 10
33.769262
 20
6.642987
 30
0.0
 10
34.067867
 20
6.890105
 30
0.0
 10
34.410592
 20
7.076694
 30
0.0
 10
34.789324
 20
7.194615
 30
0.0
 10
35.195947
 20
7.235730
 30
0.0
 10
35.602571
 20
7.194615
 30
0.0
 10
35.981303
 20
7.076694
 30
0.0
 10
36.324028
 20
6.890105
 30
0.0
 10
36.622632
 20
6.642987
 30
0.0
 10
36.869005
 20
6.343478
 30
0.0
 10
37.055029
 20
5.999715
 30
0.0
 10
37.172594
 20
5.619836
 30
0.0
 10
37.213585
 20
5.211980
 30
0.0
 10
37.172594
 20
4.804124
 30
0.0
 10
37.055029
 20
4.424245
 30
0.0
 10
36.869005
 20
4.080482
 30
0.0
 10
36.622632
 20
3.780972
 30
0.0
 10
36.324028
 20
3.533854
 30
0.0
 10
35.981303
 20
3.347266
 30
0.0
 10
35.602571
 20
3.229345
 30
0.0
 10
35.195947
 20
3.188230
 30
0.0
  0
LWPOLYLINE
  5
110
100
AcDbEntity
  8
Layer_1
 62
1
100
AcDbPolyline
 90
33
 70
0
 10
5.234164
 20
3.228364
 30
0.0
 10
4.827540
 20
3.269480
 30
0.0
 10
4.448809
 20
3.387401
 30
0.0
 10
4.106083
 20
3.573989
 30
0.0
 10
3.807479
 20
3.821107
 30
0.0
 10
3.561107
 20
4.120617
 30
0.0
 10
3.375082
 20
4.464380
 30
0.0
 10
3.257518
 20
4.844258
 30
0.0
 10
3.216526
 20
5.252115
 30
0.0
 10
3.257518
 20
5.659971
 30
0.0
 10
3.375082
 20
6.039850
 30
0.0
 10
3.561107
 20
6.383613
 30
0.0
 10
3.807479
 20
6.683122
 30
0.0
 10
4.106083
 20
6.930240
 30
0.0
 10
4.448809
 20
7.116829
 30
0.0
 10
4.827540
 20
7.234750
 30
0.0
 10
5.234164
 20
7.275865
 30
0.0
 10
5.640788
 20
7.234750
 30
0.0
 10
6.019519
 20
7.116829
 30
0.0
 10
6.362245
 20
6.930240
 30
0.0
 10
6.660849
 20
6.683122
 30
0.0
 10
6.907221
 20
6.383613
 30
0.0
 10
7.093246
 20
6.039850
 30
0.0
 10
7.210810
 20
5.659971
 30
0.0
 10
7.251802
 20
5.252115
 30
0.0
 10
7.210810
 20
4.844258
 30
0.0
 10
7.093246
 20
4.464380
 30
0.0
 10
6.907221
 20
4.120617
 30
0.0
 10
6.660849
 20
3.821107
 30
0.0
 10
6.362245
 20
3.573989
 30
0.0
 10
6.019519
 20
3.387401
 30
0.0
 10
5.640788
 20
3.269480
 30
0.0
 10
5.234164
 20
3.228364
 30
0.0
  0
LWPOLYLINE
  5
111
100
AcDbEntity
  8
Layer_1
 62
1
100
AcDbPolyline
 90
33
 70
0
 10
25.234163
 20
3.228364
 30
0.0
 10
24.827539
 20
3.269480
 30
0.0
 10
24.448808
 20
3.387401
 30
0.0
 10
24.106083
 20
3.573989
 30
0.0
 10
23.807478
 20
3.821107
 30
0.0
 10
23.561106
 20
4.120617
 30
0.0
 10
23.375081
 20
4.464380
 30
0.0
 10
23.257517
 20
4.844258
 30
0.0
 10
23.216526
 20
5.252115
 30
0.0
 10
23.257517
 20
5.659971
 30
0.0
 10
23.375081
 20
6.039850
 30
0.0
 10
23.561106
 20
6.383613
 30
0.0
 10
23.807478
 20
6.683122
 30
0.0
 10
24.106083
 20
6.930240
 30
0.0
 10
24.448808
 20
7.116829
 30
0.0
 10
24.827539
 20
7.234750
 30
0.0
 10
25.234163
 20
7.275865
 30
0.0
 10
25.640787
 20
7.234750
 30
0.0
 10
26.019519
 20
7.116829
 30
0.0
 10
26.362244
 20
6.930240
 30
0.0
 10
26.660848
 20
6.683122
 30
0.0
 10
26.907221
 20
6.383613
 30
0.0
 10
27.093245
 20
6.039850
 30
0.0
 10
27.210810
 20
5.659971
 30
0.0
 10
27.251801
 20
5.252115
 30
0.0
 10
27.210810
 20
4.844258
 30
0.0
 10
27.093245
 20
4.464380
 30
0.0
 10
26.907221
 20
4.120617
 30
0.0
 10
26.660848
 20
3.821107
 30
0.0
 10
26.362244
 20
3.573989
 30
0.0
 10
26.019519
 20
3.387401
 30
0.0
 10
25.640787
 20
3.269480
 30
0.0
 10
25.234163
 20
3.228364
 30
0.0
  0
LWPOLYLINE
  5
112
100
AcDbEntity
  8
Layer_1
 62
1
100
AcDbPolyline
 90
33
 70
0
 10
15.234164
 20
3.228364
 30
0.0
 10
14.827540
 20
3.269480
 30
0.0
 10
14.448808
 20
3.387401
 30
0.0
 10
14.106083
 20
3.573989
 30
0.0
 10
13.807479
 20
3.821107
 30
0.0
 10
13.561106
 20
4.120617
 30
0.0
 10
13.375082
 20
4.464380
 30
0.0
 10
13.257517
 20
4.844258
 30
0.0
 10
13.216526
 20
5.252115
 30
0.0
 10
13.257517
 20
5.659971
 30
0.0
 10
13.375082
 20
6.039850
 30
0.0
 10
13.561106
 20
6.383613
 30
0.0
 10
13.807479
 20
6.683122
 30
0.0
 10
14.106083
 20
6.930240
 30
0.0
 10
14.448808
 20
7.116829
 30
0.0
 10
14.827540
 20
7.234750
 30
0.0
 10
15.234164
 20
7.275865
 30
0.0
 10
15.640788
 20
7.234750
 30
0.0
 10
16.019519
 20
7.116829
 30
0.0
 10
16.362244
 20
6.930240
 30
0.0
 10
16.660849
 20
6.683122
 30
0.0
 10
16.907221
 20
6.383613
 30
0.0
 10
17.093246
 20
6.039850
 30
0.0
 10
17.210810
 20
5.659971
 30
0.0
 10
17.251801
 20
5.252115
 30
0.0
 10
17.210810
 20
4.844258
 30
0.0
 10
17.093246
 20
4.464380
 30
0.0
 10
16.907221
 20
4.120617
 30
0.0
 10
16.660849
 20
3.821107
 30
0.0
 10
16.362244
 20
3.573989
 30
0.0
 10
16.019519
 20
3.387401
 30
0.0
 10
15.640788
 20
3.269480
 30
0.0
 10
15.234164
 20
3.228364
 30
0.0
  0
LWPOLYLINE
  5
113
100
AcDbEntity
  8
Layer_1
 62
1
100
AcDbPolyline
 90
33
 70
0
 10
65.272381
 20
3.268499
 30
0.0
 10
64.865757
 20
3.309615
 30
0.0
 10
64.487026
 20
3.427536
 30
0.0
 10
64.144300
 20
3.614124
 30
0.0
 10
63.845696
 20
3.861242
 30
0.0
 10
63.599324
 20
4.160752
 30
0.0
 10
63.413299
 20
4.504515
 30
0.0
 10
63.295735
 20
4.884393
 30
0.0
 10
63.254743
 20
5.292249
 30
0.0
 10
63.295735
 20
5.700106
 30
0.0
 10
63.413299
 20
6.079984
 30
0.0
 10
63.599324
 20
6.423748
 30
0.0
 10
63.845696
 20
6.723257
 30
0.0
 10
64.144300
 20
6.970375
 30
0.0
 10
64.487026
 20
7.156963
 30
0.0
 10
64.865757
 20
7.274884
 30
0.0
 10
65.272381
 20
7.316000
 30
0.0
 10
65.679005
 20
7.274884
 30
0.0
 10
66.057736
 20
7.156963
 30
0.0
 10
66.400462
 20
6.970375
 30
0.0
 10
66.699066
 20
6.723257
 30
0.0
 10
66.945438
 20
6.423748
 30
0.0
 10
67.131463
 20
6.079984
 30
0.0
 10
67.249027
 20
5.700106
 30
0.0
 10
67.290019
 20
5.292249
 30
0.0
 10
67.249027
 20
4.884393
 30
0.0
 10
67.131463
 20
4.504515
 30
0.0
 10
66.945438
 20
4.160752
 30
0.0
 10
66.699066
 20
3.861242
 30
0.0
 10
66.400462
 20
3.614124
 30
0.0
 10
66.057736
 20
3.427536
 30
0.0
 10
65.679005
 20
3.309615
 30
0.0
 10
65.272381
 20
3.268499
 30
0.0
  0
LWPOLYLINE
  5
114
100
AcDbEntity
  8
Layer_1
 62
1
100
AcDbPolyline
 90
33
 70
0
 10
55.234165
 20
3.228364
 30
0.0
 10
54.827542
 20
3.269480
 30
0.0
 10
54.448810
 20
3.387401
 30
0.0
 10
54.106085
 20
3.573989
 30
0.0
 10
53.807480
 20
3.821107
 30
0.0
 10
53.561108
 20
4.120617
 30
0.0
 10
53.375083
 20
4.464380
 30
0.0
 10
53.257519
 20
4.844258
 30
0.0
 10
53.216528
 20
5.252115
 30
0.0
 10
53.257519
 20
5.659971
 30
0.0
 10
53.375083
 20
6.039850
 30
0.0
 10
53.561108
 20
6.383613
 30
0.0
 10
53.807480
 20
6.683122
 30
0.0
 10
54.106085
 20
6.930240
 30
0.0
 10
54.448810
 20
7.116829
 30
0.0
 10
54.827542
 20
7.234750
 30
0.0
 10
55.234165
 20
7.275865
 30
0.0
 10
55.640789
 20
7.234750
 30
0.0
 10
56.019521
 20
7.116829
 30
0.0
 10
56.362246
 20
6.930240
 30
0.0
 10
56.660850
 20
6.683122
 30
0.0
 10
56.907223
 20
6.383613
 30
0.0
 10
57.093248
 20
6.039850
 30
0.0
 10
57.210812
 20
5.659971
 30
0.0
 10
57.251803
 20
5.252115
 30
0.0
 10
57.210812
 20
4.844258
 30
0.0
 10
57.093248
 20
4.464380
 30
0.0
 10
56.907223
 20
4.120617
 30
0.0
 10
56.660850
 20
3.821107
 30
0.0
 10
56.362246
 20
3.573989
 30
0.0
 10
56.019521
 20
3.387401
 30
0.0
 10
55.640789
 20
3.269480
 30
0.0
 10
55.234165
 20
3.228364
 30
0.0
  0
LWPOLYLINE
  5
115
100
AcDbEntity
  8
Layer_1
 62
1
100
AcDbPolyline
 90
33
 70
0
 10
85.272380
 20
3.268499
 30
0.0
 10
84.865757
 20
3.309615
 30
0.0
 10
84.487025
 20
3.427536
 30
0.0
 10
84.144300
 20
3.614124
 30
0.0
 10
83.845695
 20
3.861242
 30
0.0
 10
83.599323
 20
4.160752
 30
0.0
 10
83.413298
 20
4.504515
 30
0.0
 10
83.295734
 20
4.884393
 30
0.0
 10
83.254743
 20
5.292249
 30
0.0
 10
83.295734
 20
5.700106
 30
0.0
 10
83.413298
 20
6.079984
 30
0.0
 10
83.599323
 20
6.423748
 30
0.0
 10
83.845695
 20
6.723257
 30
0.0
 10
84.144300
 20
6.970375
 30
0.0
 10
84.487025
 20
7.156963
 30
0.0
 10
84.865757
 20
7.274884
 30
0.0
 10
85.272380
 20
7.316000
 30
0.0
 10
85.679004
 20
7.274884
 30
0.0
 10
86.057736
 20
7.156963
 30
0.0
 10
86.400461
 20
6.970375
 30
0.0
 10
86.699065
 20
6.723257
 30
0.0
 10
86.945438
 20
6.423748
 30
0.0
 10
87.131463
 20
6.079984
 30
0.0
 10
87.249027
 20
5.700106
 30
0.0
 10
87.290018
 20
5.292249
 30
0.0
 10
87.249027
 20
4.884393
 30
0.0
 10
87.131463
 20
4.504515
 30
0.0
 10
86.945438
 20
4.160752
 30
0.0
 10
86.699065
 20
3.861242
 30
0.0
 10
86.400461
 20
3.614124
 30
0.0
 10
86.057736
 20
3.427536
 30
0.0
 10
85.679004
 20
3.309615
 30
0.0
 10
85.272380
 20
3.268499
 30
0.0
  0
LWPOLYLINE
  5
116
100
AcDbEntity
  8
Layer_1
 62
1
100
AcDbPolyline
 90
33
 70
0
 10
75.234165
 20
3.228364
 30
0.0
 10
74.827541
 20
3.269480
 30
0.0
 10
74.448810
 20
3.387401
 30
0.0
 10
74.106084
 20
3.573989
 30
0.0
 10
73.807480
 20
3.821107
 30
0.0
 10
73.561108
 20
4.120617
 30
0.0
 10
73.375083
 20
4.464380
 30
0.0
 10
73.257519
 20
4.844258
 30
0.0
 10
73.216527
 20
5.252115
 30
0.0
 10
73.257519
 20
5.659971
 30
0.0
 10
73.375083
 20
6.039850
 30
0.0
 10
73.561108
 20
6.383613
 30
0.0
 10
73.807480
 20
6.683122
 30
0.0
 10
74.106084
 20
6.930240
 30
0.0
 10
74.448810
 20
7.116829
 30
0.0
 10
74.827541
 20
7.234750
 30
0.0
 10
75.234165
 20
7.275865
 30
0.0
 10
75.640789
 20
7.234750
 30
0.0
 10
76.019520
 20
7.116829
 30
0.0
 10
76.362246
 20
6.930240
 30
0.0
 10
76.660850
 20
6.683122
 30
0.0
 10
76.907222
 20
6.383613
 30
0.0
 10
77.093247
 20
6.039850
 30
0.0
 10
77.210811
 20
5.659971
 30
0.0
 10
77.251803
 20
5.252115
 30
0.0
 10
77.210811
 20
4.844258
 30
0.0
 10
77.093247
 20
4.464380
 30
0.0
 10
76.907222
 20
4.120617
 30
0.0
 10
76.660850
 20
3.821107
 30
0.0
 10
76.362246
 20
3.573989
 30
0.0
 10
76.019520
 20
3.387401
 30
0.0
 10
75.640789
 20
3.269480
 30
0.0
 10
75.234165
 20
3.228364
 30
0.0
  0
ENDSEC
  0
SECTION
  2
OBJECTS
  0
DICTIONARY
  5
C
330
0
100
AcDbDictionary
  3
ACAD_GROUP
350
D
  3
ACAD_MLINESTYLE
350
17
  0
DICTIONARY
  5
D
330
C
100
AcDbDictionary
  0
DICTIONARY
  5
1A
330
C
100
AcDbDictionary
  0
DICTIONARY
  5
17
330
C
100
AcDbDictionary
  3
STANDARD
350
18
  0
DICTIONARY
  5
19
330
C
100
AcDbDictionary
  0
ENDSEC
  0
EOF
