  0
SECTION
  2
HEADER
  9
$ACADVER
  1
AC1014
  9
$HANDSEED
  5
FFFF
  9
$MEASUREMENT
 70
     1
  0
ENDSEC
  0
SECTION
  2
TABLES
  0
TABLE
  2
VPORT
  5
8
330
0
100
AcDbSymbolTable
 70
     4
  0
VPORT
  5
2E
330
8
100
AcDbSymbolTableRecord
100
AcDbViewportTableRecord
  2
*ACTIVE
 70
     0
 10
0.0
 20
0.0
 11
1.0
 21
1.0
 12
210.0
 22
148.5
 13
0.0
 23
0.0
 14
10.0
 24
10.0
 15
10.0
 25
10.0
 16
0.0
 26
0.0
 36
1.0
 17
0.0
 27
0.0
 37
0.0
 40
341.0
 41
1.24
 42
50.0
 43
0.0
 44
0.0
 50
0.0
 51
0.0
 71
     0
 72
   100
 73
     1
 74
     3
 75
     0
 76
     0
 77
     0
 78
     0
  0
ENDTAB
  0
TABLE
  2
LTYPE
  5
5
330
0
100
AcDbSymbolTable
 70
     1
  0
LTYPE
  5
14
330
5
100
AcDbSymbolTableRecord
100
AcDbLinetypeTableRecord
  2
BYBLOCK
 70
     0
  3

 72
    65
 73
     0
 40
0.0
  0
LTYPE
  5
15
330
5
100
AcDbSymbolTableRecord
100
AcDbLinetypeTableRecord
  2
BYLAYER
 70
     0
  3

 72
    65
 73
     0
 40
0.0
  0
LTYPE
  5
16
330
5
100
AcDbSymbolTableRecord
100
AcDbLinetypeTableRecord
  2
CONTINUOUS
 70
     0
  3
Solid line
 72
    65
 73
     0
 40
0.0
  0
ENDTAB
  0
TABLE
  2
LAYER
  5
2
100
AcDbSymbolTable
 70
2
  0
LAYER
  5
50
100
AcDbSymbolTableRecord
100
AcDbLayerTableRecord
  2
0
 70
0
  6
CONTINUOUS
  0
LAYER
  5
51
100
AcDbSymbolTableRecord
100
AcDbLayerTableRecord
  2
Layer_1
 70
0
  6
CONTINUOUS
  0
ENDTAB
  0
TABLE
  2
STYLE
  5
3
330
0
100
AcDbSymbolTable
 70
     1
  0
STYLE
  5
11
330
3
100
AcDbSymbolTableRecord
100
AcDbTextStyleTableRecord
  2
STANDARD
 70
     0
 40
0.0
 41
1.0
 50
0.0
 71
     0
 42
2.5
  3
txt
  4

  0
ENDTAB
  0
TABLE
  2
VIEW
  5
6
330
0
100
AcDbSymbolTable
 70
     0
  0
ENDTAB
  0
TABLE
  2
UCS
  5
7
330
0
100
AcDbSymbolTable
 70
     0
  0
ENDTAB
  0
TABLE
  2
APPID
  5
9
330
0
100
AcDbSymbolTable
 70
     2
  0
APPID
  5
12
330
9
100
AcDbSymbolTableRecord
100
AcDbRegAppTableRecord
  2
ACAD
 70
     0
  0
ENDTAB
  0
TABLE
  2
DIMSTYLE
  5
A
330
0
100
AcDbSymbolTable
 70
     1
  0
DIMSTYLE
105
27
330
A
100
AcDbSymbolTableRecord
100
AcDbDimStyleTableRecord
  2
ISO-25
 70
     0
  3

  4

  5

  6

  7

 40
1.0
 41
2.5
 42
0.625
 43
3.75
 44
1.25
 45
0.0
 46
0.0
 47
0.0
 48
0.0
140
2.5
141
2.5
142
0.0
143
0.03937007874016
144
1.0
145
0.0
146
1.0
147
0.625
 71
     0
 72
     0
 73
     0
 74
     0
 75
     0
 76
     0
 77
     1
 78
     8
170
     0
171
     3
172
     1
173
     0
174
     0
175
     0
176
     0
177
     0
178
     0
270
     2
271
     2
272
     2
273
     2
274
     3
340
11
275
     0
280
     0
281
     0
282
     0
283
     0
284
     8
285
     0
286
     0
287
     3
288
     0
  0
ENDTAB
  0
TABLE
  2
BLOCK_RECORD
  5
1
330
0
100
AcDbSymbolTable
 70
     1
  0
BLOCK_RECORD
  5
1F
330
1
100
AcDbSymbolTableRecord
100
AcDbBlockTableRecord
  2
*MODEL_SPACE
  0
BLOCK_RECORD
  5
1B
330
1
100
AcDbSymbolTableRecord
100
AcDbBlockTableRecord
  2
*PAPER_SPACE
  0
ENDTAB
  0
ENDSEC
  0
SECTION
  2
BLOCKS
  0
BLOCK
  5
20
330
1F
100
AcDbEntity
  8
0
100
AcDbBlockBegin
  2
*MODEL_SPACE
 70
     0
 10
0.0
 20
0.0
 30
0.0
  3
*MODEL_SPACE
  1

  0
ENDBLK
  5
21
330
1F
100
AcDbEntity
  8
0
100
AcDbBlockEnd
  0
BLOCK
  5
1C
330
1B
100
AcDbEntity
 67
     1
  8
0
100
AcDbBlockBegin
  2
*PAPER_SPACE
  1

  0
ENDBLK
  5
1D
330
1B
100
AcDbEntity
 67
     1
  8
0
100
AcDbBlockEnd
  0
ENDSEC
  0
SECTION
  2
ENTITIES
  0
LWPOLYLINE
  5
100
100
AcDbEntity
  8
Layer_1
 62
1
100
AcDbPolyline
 90
70
 70
0
 10
3.221104
 20
54.221208
 30
0.0
 10
107.221116
 20
54.221208
 30
0.0
 10
107.528696
 20
54.205771
 30
0.0
 10
107.827197
 20
54.160466
 30
0.0
 10
108.115134
 20
54.086769
 30
0.0
 10
108.391020
 20
53.986171
 30
0.0
 10
108.653371
 20
53.860156
 30
0.0
 10
108.900702
 20
53.710208
 30
0.0
 10
109.131526
 20
53.537813
 30
0.0
 10
109.344358
 20
53.344457
 30
0.0
 10
109.537717
 20
53.131622
 30
0.0
 10
109.710113
 20
52.900798
 30
0.0
 10
109.860060
 20
52.653467
 30
0.0
 10
109.986075
 20
52.391116
 30
0.0
 10
110.086673
 20
52.115230
 30
0.0
 10
110.160370
 20
51.827292
 30
0.0
 10
110.205675
 20
51.528792
 30
0.0
 10
110.221113
 20
51.221212
 30
0.0
 10
110.221113
 20
3.221186
 30
0.0
 10
110.205675
 20
2.913621
 30
0.0
 10
110.160370
 20
2.615114
 30
0.0
 10
110.086673
 20
2.327163
 30
0.0
 10
109.986075
 20
2.051291
 30
0.0
 10
109.860060
 20
1.788937
 30
0.0
 10
109.710113
 20
1.541597
 30
0.0
 10
109.537717
 20
1.310796
 30
0.0
 10
109.344358
 20
1.097944
 30
0.0
 10
109.131526
 20
0.904593
 30
0.0
 10
108.900702
 20
0.732184
 30
0.0
 10
108.653371
 20
0.582239
 30
0.0
 10
108.391020
 20
0.456227
 30
0.0
 10
108.115134
 20
0.355615
 30
0.0
 10
107.827197
 20
0.281927
 30
0.0
 10
107.528696
 20
0.236630
 30
0.0
 10
107.221116
 20
0.221108
 30
0.0
 10
3.221104
 20
0.221108
 30
0.0
 10
2.913524
 20
0.236630
 30
0.0
 10
2.615023
 20
0.281927
 30
0.0
 10
2.327086
 20
0.355615
 30
0.0
 10
2.051200
 20
0.456227
 30
0.0
 10
1.788849
 20
0.582239
 30
0.0
 10
1.541518
 20
0.732184
 30
0.0
 10
1.310694
 20
0.904593
 30
0.0
 10
1.097861
 20
1.097944
 30
0.0
 10
0.904502
 20
1.310796
 30
0.0
 10
0.732107
 20
1.541597
 30
0.0
 10
0.582160
 20
1.788937
 30
0.0
 10
0.456144
 20
2.051291
 30
0.0
 10
0.355546
 20
2.327163
 30
0.0
 10
0.281850
 20
2.615114
 30
0.0
 10
0.236545
 20
2.913621
 30
0.0
 10
0.221107
 20
3.221186
 30
0.0
 10
0.221107
 20
51.221212
 30
0.0
 10
0.236545
 20
51.528792
 30
0.0
 10
0.281850
 20
51.827292
 30
0.0
 10
0.355546
 20
52.115230
 30
0.0
 10
0.456144
 20
52.391116
 30
0.0
 10
0.582160
 20
52.653467
 30
0.0
 10
0.732107
 20
52.900798
 30
0.0
 10
0.904502
 20
53.131622
 30
0.0
 10
1.097861
 20
53.344457
 30
0.0
 10
1.310694
 20
53.537813
 30
0.0
 10
1.541518
 20
53.710208
 30
0.0
 10
1.788849
 20
53.860156
 30
0.0
 10
2.051200
 20
53.986171
 30
0.0
 10
2.327086
 20
54.086769
 30
0.0
 10
2.615023
 20
54.160466
 30
0.0
 10
2.913524
 20
54.205771
 30
0.0
 10
3.221104
 20
54.221208
 30
0.0
 10
3.221104
 20
54.221208
 30
0.0
  0
LWPOLYLINE
  5
101
100
AcDbEntity
  8
Layer_1
 62
1
100
AcDbPolyline
 90
33
 70
0
 10
7.244860
 20
47.221208
 30
0.0
 10
7.203744
 20
46.814584
 30
0.0
 10
7.085824
 20
46.435853
 30
0.0
 10
6.899235
 20
46.093128
 30
0.0
 10
6.652117
 20
45.794523
 30
0.0
 10
6.352608
 20
45.548151
 30
0.0
 10
6.008845
 20
45.362126
 30
0.0
 10
5.628966
 20
45.244562
 30
0.0
 10
5.221110
 20
45.203571
 30
0.0
 10
4.813253
 20
45.244562
 30
0.0
 10
4.433375
 20
45.362126
 30
0.0
 10
4.089612
 20
45.548151
 30
0.0
 10
3.790102
 20
45.794523
 30
0.0
 10
3.542984
 20
46.093128
 30
0.0
 10
3.356396
 20
46.435853
 30
0.0
 10
3.238475
 20
46.814584
 30
0.0
 10
3.197359
 20
47.221208
 30
0.0
 10
3.238475
 20
47.627832
 30
0.0
 10
3.356396
 20
48.006564
 30
0.0
 10
3.542984
 20
48.349289
 30
0.0
 10
3.790102
 20
48.647893
 30
0.0
 10
4.089612
 20
48.894266
 30
0.0
 10
4.433375
 20
49.080290
 30
0.0
 10
4.813253
 20
49.197854
 30
0.0
 10
5.221110
 20
49.238846
 30
0.0
 10
5.628966
 20
49.197854
 30
0.0
 10
6.008845
 20
49.080290
 30
0.0
 10
6.352608
 20
48.894266
 30
0.0
 10
6.652117
 20
48.647893
 30
0.0
 10
6.899235
 20
48.349289
 30
0.0
 10
7.085824
 20
48.006564
 30
0.0
 10
7.203744
 20
47.627832
 30
0.0
 10
7.244860
 20
47.221208
 30
0.0
  0
LWPOLYLINE
  5
102
100
AcDbEntity
  8
Layer_1
 62
1
100
AcDbPolyline
 90
33
 70
0
 10
7.284995
 20
37.182993
 30
0.0
 10
7.243879
 20
36.776369
 30
0.0
 10
7.125958
 20
36.397638
 30
0.0
 10
6.939370
 20
36.054912
 30
0.0
 10
6.692252
 20
35.756308
 30
0.0
 10
6.392742
 20
35.509936
 30
0.0
 10
6.048979
 20
35.323911
 30
0.0
 10
5.669101
 20
35.206347
 30
0.0
 10
5.261244
 20
35.165355
 30
0.0
 10
4.853388
 20
35.206347
 30
0.0
 10
4.473509
 20
35.323911
 30
0.0
 10
4.129746
 20
35.509936
 30
0.0
 10
3.830237
 20
35.756308
 30
0.0
 10
3.583119
 20
36.054912
 30
0.0
 10
3.396531
 20
36.397638
 30
0.0
 10
3.278610
 20
36.776369
 30
0.0
 10
3.237494
 20
37.182993
 30
0.0
 10
3.278610
 20
37.589617
 30
0.0
 10
3.396531
 20
37.968348
 30
0.0
 10
3.583119
 20
38.311074
 30
0.0
 10
3.830237
 20
38.609678
 30
0.0
 10
4.129746
 20
38.856050
 30
0.0
 10
4.473509
 20
39.042075
 30
0.0
 10
4.853388
 20
39.159639
 30
0.0
 10
5.261244
 20
39.200631
 30
0.0
 10
5.669101
 20
39.159639
 30
0.0
 10
6.048979
 20
39.042075
 30
0.0
 10
6.392742
 20
38.856050
 30
0.0
 10
6.692252
 20
38.609678
 30
0.0
 10
6.939370
 20
38.311074
 30
0.0
 10
7.125958
 20
37.968348
 30
0.0
 10
7.243879
 20
37.589617
 30
0.0
 10
7.284995
 20
37.182993
 30
0.0
  0
LWPOLYLINE
  5
103
100
AcDbEntity
  8
Layer_1
 62
1
100
AcDbPolyline
 90
33
 70
0
 10
7.244860
 20
7.221209
 30
0.0
 10
7.203744
 20
6.814585
 30
0.0
 10
7.085824
 20
6.435854
 30
0.0
 10
6.899235
 20
6.093128
 30
0.0
 10
6.652117
 20
5.794524
 30
0.0
 10
6.352608
 20
5.548152
 30
0.0
 10
6.008845
 20
5.362127
 30
0.0
 10
5.628966
 20
5.244563
 30
0.0
 10
5.221110
 20
5.203572
 30
0.0
 10
4.813253
 20
5.244563
 30
0.0
 10
4.433375
 20
5.362127
 30
0.0
 10
4.089612
 20
5.548152
 30
0.0
 10
3.790102
 20
5.794524
 30
0.0
 10
3.542984
 20
6.093128
 30
0.0
 10
3.356396
 20
6.435854
 30
0.0
 10
3.238475
 20
6.814585
 30
0.0
 10
3.197359
 20
7.221209
 30
0.0
 10
3.238475
 20
7.627833
 30
0.0
 10
3.356396
 20
8.006565
 30
0.0
 10
3.542984
 20
8.349290
 30
0.0
 10
3.790102
 20
8.647894
 30
0.0
 10
4.089612
 20
8.894267
 30
0.0
 10
4.433375
 20
9.080291
 30
0.0
 10
4.813253
 20
9.197855
 30
0.0
 10
5.221110
 20
9.238847
 30
0.0
 10
5.628966
 20
9.197855
 30
0.0
 10
6.008845
 20
9.080291
 30
0.0
 10
6.352608
 20
8.894267
 30
0.0
 10
6.652117
 20
8.647894
 30
0.0
 10
6.899235
 20
8.349290
 30
0.0
 10
7.085824
 20
8.006565
 30
0.0
 10
7.203744
 20
7.627833
 30
0.0
 10
7.244860
 20
7.221209
 30
0.0
  0
LWPOLYLINE
  5
104
100
AcDbEntity
  8
Layer_1
 62
1
100
AcDbPolyline
 90
33
 70
0
 10
7.244860
 20
27.221209
 30
0.0
 10
7.203744
 20
26.814585
 30
0.0
 10
7.085824
 20
26.435854
 30
0.0
 10
6.899235
 20
26.093128
 30
0.0
 10
6.652117
 20
25.794524
 30
0.0
 10
6.352608
 20
25.548152
 30
0.0
 10
6.008845
 20
25.362127
 30
0.0
 10
5.628966
 20
25.244563
 30
0.0
 10
5.221110
 20
25.203571
 30
0.0
 10
4.813253
 20
25.244563
 30
0.0
 10
4.433375
 20
25.362127
 30
0.0
 10
4.089612
 20
25.548152
 30
0.0
 10
3.790102
 20
25.794524
 30
0.0
 10
3.542984
 20
26.093128
 30
0.0
 10
3.356396
 20
26.435854
 30
0.0
 10
3.238475
 20
26.814585
 30
0.0
 10
3.197359
 20
27.221209
 30
0.0
 10
3.238475
 20
27.627833
 30
0.0
 10
3.356396
 20
28.006564
 30
0.0
 10
3.542984
 20
28.349290
 30
0.0
 10
3.790102
 20
28.647894
 30
0.0
 10
4.089612
 20
28.894266
 30
0.0
 10
4.433375
 20
29.080291
 30
0.0
 10
4.813253
 20
29.197855
 30
0.0
 10
5.221110
 20
29.238847
 30
0.0
 10
5.628966
 20
29.197855
 30
0.0
 10
6.008845
 20
29.080291
 30
0.0
 10
6.352608
 20
28.894266
 30
0.0
 10
6.652117
 20
28.647894
 30
0.0
 10
6.899235
 20
28.349290
 30
0.0
 10
7.085824
 20
28.006564
 30
0.0
 10
7.203744
 20
27.627833
 30
0.0
 10
7.244860
 20
27.221209
 30
0.0
  0
LWPOLYLINE
  5
105
100
AcDbEntity
  8
Layer_1
 62
1
100
AcDbPolyline
 90
33
 70
0
 10
7.244860
 20
17.221209
 30
0.0
 10
7.203744
 20
16.814585
 30
0.0
 10
7.085824
 20
16.435854
 30
0.0
 10
6.899235
 20
16.093128
 30
0.0
 10
6.652117
 20
15.794524
 30
0.0
 10
6.352608
 20
15.548152
 30
0.0
 10
6.008845
 20
15.362127
 30
0.0
 10
5.628966
 20
15.244563
 30
0.0
 10
5.221110
 20
15.203571
 30
0.0
 10
4.813253
 20
15.244563
 30
0.0
 10
4.433375
 20
15.362127
 30
0.0
 10
4.089612
 20
15.548152
 30
0.0
 10
3.790102
 20
15.794524
 30
0.0
 10
3.542984
 20
16.093128
 30
0.0
 10
3.356396
 20
16.435854
 30
0.0
 10
3.238475
 20
16.814585
 30
0.0
 10
3.197359
 20
17.221209
 30
0.0
 10
3.238475
 20
17.627833
 30
0.0
 10
3.356396
 20
18.006564
 30
0.0
 10
3.542984
 20
18.349290
 30
0.0
 10
3.790102
 20
18.647894
 30
0.0
 10
4.089612
 20
18.894266
 30
0.0
 10
4.433375
 20
19.080291
 30
0.0
 10
4.813253
 20
19.197855
 30
0.0
 10
5.221110
 20
19.238847
 30
0.0
 10
5.628966
 20
19.197855
 30
0.0
 10
6.008845
 20
19.080291
 30
0.0
 10
6.352608
 20
18.894266
 30
0.0
 10
6.652117
 20
18.647894
 30
0.0
 10
6.899235
 20
18.349290
 30
0.0
 10
7.085824
 20
18.006564
 30
0.0
 10
7.203744
 20
17.627833
 30
0.0
 10
7.244860
 20
17.221209
 30
0.0
  0
LWPOLYLINE
  5
106
100
AcDbEntity
  8
Layer_1
 62
1
100
AcDbPolyline
 90
33
 70
0
 10
107.244860
 20
47.221211
 30
0.0
 10
107.203745
 20
46.814587
 30
0.0
 10
107.085824
 20
46.435856
 30
0.0
 10
106.899236
 20
46.093130
 30
0.0
 10
106.652117
 20
45.794526
 30
0.0
 10
106.352608
 20
45.548154
 30
0.0
 10
106.008845
 20
45.362129
 30
0.0
 10
105.628966
 20
45.244565
 30
0.0
 10
105.221110
 20
45.203573
 30
0.0
 10
104.813254
 20
45.244565
 30
0.0
 10
104.433375
 20
45.362129
 30
0.0
 10
104.089612
 20
45.548154
 30
0.0
 10
103.790102
 20
45.794526
 30
0.0
 10
103.542985
 20
46.093130
 30
0.0
 10
103.356396
 20
46.435856
 30
0.0
 10
103.238475
 20
46.814587
 30
0.0
 10
103.197360
 20
47.221211
 30
0.0
 10
103.238475
 20
47.627835
 30
0.0
 10
103.356396
 20
48.006566
 30
0.0
 10
103.542985
 20
48.349292
 30
0.0
 10
103.790102
 20
48.647896
 30
0.0
 10
104.089612
 20
48.894268
 30
0.0
 10
104.433375
 20
49.080293
 30
0.0
 10
104.813254
 20
49.197857
 30
0.0
 10
105.221110
 20
49.238849
 30
0.0
 10
105.628966
 20
49.197857
 30
0.0
 10
106.008845
 20
49.080293
 30
0.0
 10
106.352608
 20
48.894268
 30
0.0
 10
106.652117
 20
48.647896
 30
0.0
 10
106.899236
 20
48.349292
 30
0.0
 10
107.085824
 20
48.006566
 30
0.0
 10
107.203745
 20
47.627835
 30
0.0
 10
107.244860
 20
47.221211
 30
0.0
  0
LWPOLYLINE
  5
107
100
AcDbEntity
  8
Layer_1
 62
1
100
AcDbPolyline
 90
33
 70
0
 10
107.284995
 20
37.182996
 30
0.0
 10
107.243880
 20
36.776372
 30
0.0
 10
107.125959
 20
36.397640
 30
0.0
 10
106.939370
 20
36.054915
 30
0.0
 10
106.692252
 20
35.756311
 30
0.0
 10
106.392743
 20
35.509938
 30
0.0
 10
106.048980
 20
35.323914
 30
0.0
 10
105.669101
 20
35.206350
 30
0.0
 10
105.261245
 20
35.165358
 30
0.0
 10
104.853389
 20
35.206350
 30
0.0
 10
104.473510
 20
35.323914
 30
0.0
 10
104.129747
 20
35.509938
 30
0.0
 10
103.830237
 20
35.756311
 30
0.0
 10
103.583119
 20
36.054915
 30
0.0
 10
103.396531
 20
36.397640
 30
0.0
 10
103.278610
 20
36.776372
 30
0.0
 10
103.237495
 20
37.182996
 30
0.0
 10
103.278610
 20
37.589620
 30
0.0
 10
103.396531
 20
37.968351
 30
0.0
 10
103.583119
 20
38.311077
 30
0.0
 10
103.830237
 20
38.609681
 30
0.0
 10
104.129747
 20
38.856053
 30
0.0
 10
104.473510
 20
39.042078
 30
0.0
 10
104.853389
 20
39.159642
 30
0.0
 10
105.261245
 20
39.200634
 30
0.0
 10
105.669101
 20
39.159642
 30
0.0
 10
106.048980
 20
39.042078
 30
0.0
 10
106.392743
 20
38.856053
 30
0.0
 10
106.692252
 20
38.609681
 30
0.0
 10
106.939370
 20
38.311077
 30
0.0
 10
107.125959
 20
37.968351
 30
0.0
 10
107.243880
 20
37.589620
 30
0.0
 10
107.284995
 20
37.182996
 30
0.0
  0
LWPOLYLINE
  5
108
100
AcDbEntity
  8
Layer_1
 62
1
100
AcDbPolyline
 90
33
 70
0
 10
107.244860
 20
7.221212
 30
0.0
 10
107.203745
 20
6.814588
 30
0.0
 10
107.085824
 20
6.435857
 30
0.0
 10
106.899236
 20
6.093131
 30
0.0
 10
106.652117
 20
5.794527
 30
0.0
 10
106.352608
 20
5.548155
 30
0.0
 10
106.008845
 20
5.362130
 30
0.0
 10
105.628966
 20
5.244566
 30
0.0
 10
105.221110
 20
5.203574
 30
0.0
 10
104.813254
 20
5.244566
 30
0.0
 10
104.433375
 20
5.362130
 30
0.0
 10
104.089612
 20
5.548155
 30
0.0
 10
103.790102
 20
5.794527
 30
0.0
 10
103.542985
 20
6.093131
 30
0.0
 10
103.356396
 20
6.435857
 30
0.0
 10
103.238475
 20
6.814588
 30
0.0
 10
103.197360
 20
7.221212
 30
0.0
 10
103.238475
 20
7.627836
 30
0.0
 10
103.356396
 20
8.006567
 30
0.0
 10
103.542985
 20
8.349293
 30
0.0
 10
103.790102
 20
8.647897
 30
0.0
 10
104.089612
 20
8.894269
 30
0.0
 10
104.433375
 20
9.080294
 30
0.0
 10
104.813254
 20
9.197858
 30
0.0
 10
105.221110
 20
9.238850
 30
0.0
 10
105.628966
 20
9.197858
 30
0.0
 10
106.008845
 20
9.080294
 30
0.0
 10
106.352608
 20
8.894269
 30
0.0
 10
106.652117
 20
8.647897
 30
0.0
 10
106.899236
 20
8.349293
 30
0.0
 10
107.085824
 20
8.006567
 30
0.0
 10
107.203745
 20
7.627836
 30
0.0
 10
107.244860
 20
7.221212
 30
0.0
  0
LWPOLYLINE
  5
109
100
AcDbEntity
  8
Layer_1
 62
1
100
AcDbPolyline
 90
33
 70
0
 10
107.244860
 20
27.221212
 30
0.0
 10
107.203745
 20
26.814588
 30
0.0
 10
107.085824
 20
26.435856
 30
0.0
 10
106.899236
 20
26.093131
 30
0.0
 10
106.652117
 20
25.794527
 30
0.0
 10
106.352608
 20
25.548154
 30
0.0
 10
106.008845
 20
25.362130
 30
0.0
 10
105.628966
 20
25.244566
 30
0.0
 10
105.221110
 20
25.203574
 30
0.0
 10
104.813254
 20
25.244566
 30
0.0
 10
104.433375
 20
25.362130
 30
0.0
 10
104.089612
 20
25.548154
 30
0.0
 10
103.790102
 20
25.794527
 30
0.0
 10
103.542985
 20
26.093131
 30
0.0
 10
103.356396
 20
26.435856
 30
0.0
 10
103.238475
 20
26.814588
 30
0.0
 10
103.197360
 20
27.221212
 30
0.0
 10
103.238475
 20
27.627836
 30
0.0
 10
103.356396
 20
28.006567
 30
0.0
 10
103.542985
 20
28.349292
 30
0.0
 10
103.790102
 20
28.647897
 30
0.0
 10
104.089612
 20
28.894269
 30
0.0
 10
104.433375
 20
29.080294
 30
0.0
 10
104.813254
 20
29.197858
 30
0.0
 10
105.221110
 20
29.238849
 30
0.0
 10
105.628966
 20
29.197858
 30
0.0
 10
106.008845
 20
29.080294
 30
0.0
 10
106.352608
 20
28.894269
 30
0.0
 10
106.652117
 20
28.647897
 30
0.0
 10
106.899236
 20
28.349292
 30
0.0
 10
107.085824
 20
28.006567
 30
0.0
 10
107.203745
 20
27.627836
 30
0.0
 10
107.244860
 20
27.221212
 30
0.0
  0
LWPOLYLINE
  5
10a
100
AcDbEntity
  8
Layer_1
 62
1
100
AcDbPolyline
 90
33
 70
0
 10
107.244860
 20
17.221212
 30
0.0
 10
107.203745
 20
16.814588
 30
0.0
 10
107.085824
 20
16.435857
 30
0.0
 10
106.899236
 20
16.093131
 30
0.0
 10
106.652117
 20
15.794527
 30
0.0
 10
106.352608
 20
15.548155
 30
0.0
 10
106.008845
 20
15.362130
 30
0.0
 10
105.628966
 20
15.244566
 30
0.0
 10
105.221110
 20
15.203574
 30
0.0
 10
104.813254
 20
15.244566
 30
0.0
 10
104.433375
 20
15.362130
 30
0.0
 10
104.089612
 20
15.548155
 30
0.0
 10
103.790102
 20
15.794527
 30
0.0
 10
103.542985
 20
16.093131
 30
0.0
 10
103.356396
 20
16.435857
 30
0.0
 10
103.238475
 20
16.814588
 30
0.0
 10
103.197360
 20
17.221212
 30
0.0
 10
103.238475
 20
17.627836
 30
0.0
 10
103.356396
 20
18.006567
 30
0.0
 10
103.542985
 20
18.349293
 30
0.0
 10
103.790102
 20
18.647897
 30
0.0
 10
104.089612
 20
18.894269
 30
0.0
 10
104.433375
 20
19.080294
 30
0.0
 10
104.813254
 20
19.197858
 30
0.0
 10
105.221110
 20
19.238850
 30
0.0
 10
105.628966
 20
19.197858
 30
0.0
 10
106.008845
 20
19.080294
 30
0.0
 10
106.352608
 20
18.894269
 30
0.0
 10
106.652117
 20
18.647897
 30
0.0
 10
106.899236
 20
18.349293
 30
0.0
 10
107.085824
 20
18.006567
 30
0.0
 10
107.203745
 20
17.627836
 30
0.0
 10
107.244860
 20
17.221212
 30
0.0
  0
LWPOLYLINE
  5
10b
100
AcDbEntity
  8
Layer_1
 62
1
100
AcDbPolyline
 90
33
 70
0
 10
14.221110
 20
46.221207
 30
0.0
 10
14.190634
 20
45.918905
 30
0.0
 10
14.103231
 20
45.637342
 30
0.0
 10
13.964932
 20
45.382546
 30
0.0
 10
13.781769
 20
45.160550
 30
0.0
 10
13.559773
 20
44.977386
 30
0.0
 10
13.304976
 20
44.839087
 30
0.0
 10
13.023411
 20
44.751686
 30
0.0
 10
12.721108
 20
44.721206
 30
0.0
 10
12.418806
 20
44.751686
 30
0.0
 10
12.137241
 20
44.839087
 30
0.0
 10
11.882444
 20
44.977386
 30
0.0
 10
11.660448
 20
45.160550
 30
0.0
 10
11.477285
 20
45.382546
 30
0.0
 10
11.338986
 20
45.637342
 30
0.0
 10
11.251583
 20
45.918905
 30
0.0
 10
11.221107
 20
46.221207
 30
0.0
 10
11.251583
 20
46.523510
 30
0.0
 10
11.338986
 20
46.805077
 30
0.0
 10
11.477285
 20
47.059873
 30
0.0
 10
11.660448
 20
47.281869
 30
0.0
 10
11.882444
 20
47.465033
 30
0.0
 10
12.137241
 20
47.603331
 30
0.0
 10
12.418806
 20
47.690733
 30
0.0
 10
12.721108
 20
47.721213
 30
0.0
 10
13.023411
 20
47.690733
 30
0.0
 10
13.304976
 20
47.603331
 30
0.0
 10
13.559773
 20
47.465033
 30
0.0
 10
13.781769
 20
47.281869
 30
0.0
 10
13.964932
 20
47.059873
 30
0.0
 10
14.103231
 20
46.805077
 30
0.0
 10
14.190634
 20
46.523510
 30
0.0
 10
14.221110
 20
46.221207
 30
0.0
  0
LWPOLYLINE
  5
10c
100
AcDbEntity
  8
Layer_1
 62
1
100
AcDbPolyline
 90
33
 70
0
 10
14.221110
 20
18.221209
 30
0.0
 10
14.190634
 20
17.918906
 30
0.0
 10
14.103231
 20
17.637343
 30
0.0
 10
13.964932
 20
17.382547
 30
0.0
 10
13.781769
 20
17.160551
 30
0.0
 10
13.559773
 20
16.977387
 30
0.0
 10
13.304976
 20
16.839089
 30
0.0
 10
13.023411
 20
16.751687
 30
0.0
 10
12.721108
 20
16.721207
 30
0.0
 10
12.418806
 20
16.751687
 30
0.0
 10
12.137241
 20
16.839089
 30
0.0
 10
11.882444
 20
16.977387
 30
0.0
 10
11.660448
 20
17.160551
 30
0.0
 10
11.477285
 20
17.382547
 30
0.0
 10
11.338986
 20
17.637343
 30
0.0
 10
11.251583
 20
17.918906
 30
0.0
 10
11.221107
 20
18.221209
 30
0.0
 10
11.251583
 20
18.523511
 30
0.0
 10
11.338986
 20
18.805078
 30
0.0
 10
11.477285
 20
19.059874
 30
0.0
 10
11.660448
 20
19.281870
 30
0.0
 10
11.882444
 20
19.465034
 30
0.0
 10
12.137241
 20
19.603333
 30
0.0
 10
12.418806
 20
19.690734
 30
0.0
 10
12.721108
 20
19.721214
 30
0.0
 10
13.023411
 20
19.690734
 30
0.0
 10
13.304976
 20
19.603333
 30
0.0
 10
13.559773
 20
19.465034
 30
0.0
 10
13.781769
 20
19.281870
 30
0.0
 10
13.964932
 20
19.059874
 30
0.0
 10
14.103231
 20
18.805078
 30
0.0
 10
14.190634
 20
18.523511
 30
0.0
 10
14.221110
 20
18.221209
 30
0.0
  0
LWPOLYLINE
  5
10d
100
AcDbEntity
  8
Layer_1
 62
1
100
AcDbPolyline
 90
33
 70
0
 10
65.221109
 20
51.721207
 30
0.0
 10
65.190633
 20
51.418905
 30
0.0
 10
65.103230
 20
51.137342
 30
0.0
 10
64.964932
 20
50.882546
 30
0.0
 10
64.781768
 20
50.660550
 30
0.0
 10
64.559772
 20
50.477386
 30
0.0
 10
64.304976
 20
50.339087
 30
0.0
 10
64.023410
 20
50.251686
 30
0.0
 10
63.721108
 20
50.221206
 30
0.0
 10
63.418806
 20
50.251686
 30
0.0
 10
63.137240
 20
50.339087
 30
0.0
 10
62.882444
 20
50.477386
 30
0.0
 10
62.660448
 20
50.660550
 30
0.0
 10
62.477284
 20
50.882546
 30
0.0
 10
62.338986
 20
51.137342
 30
0.0
 10
62.251583
 20
51.418905
 30
0.0
 10
62.221107
 20
51.721207
 30
0.0
 10
62.251583
 20
52.023510
 30
0.0
 10
62.338986
 20
52.305077
 30
0.0
 10
62.477284
 20
52.559873
 30
0.0
 10
62.660448
 20
52.781869
 30
0.0
 10
62.882444
 20
52.965033
 30
0.0
 10
63.137240
 20
53.103331
 30
0.0
 10
63.418806
 20
53.190733
 30
0.0
 10
63.721108
 20
53.221213
 30
0.0
 10
64.023410
 20
53.190733
 30
0.0
 10
64.304976
 20
53.103331
 30
0.0
 10
64.559772
 20
52.965033
 30
0.0
 10
64.781768
 20
52.781869
 30
0.0
 10
64.964932
 20
52.559873
 30
0.0
 10
65.103230
 20
52.305077
 30
0.0
 10
65.190633
 20
52.023510
 30
0.0
 10
65.221109
 20
51.721207
 30
0.0
  0
LWPOLYLINE
  5
10e
100
AcDbEntity
  8
Layer_1
 62
1
100
AcDbPolyline
 90
33
 70
0
 10
65.221109
 20
2.721208
 30
0.0
 10
65.190633
 20
2.418906
 30
0.0
 10
65.103230
 20
2.137343
 30
0.0
 10
64.964932
 20
1.882547
 30
0.0
 10
64.781768
 20
1.660551
 30
0.0
 10
64.559772
 20
1.477387
 30
0.0
 10
64.304976
 20
1.339089
 30
0.0
 10
64.023410
 20
1.251687
 30
0.0
 10
63.721108
 20
1.221207
 30
0.0
 10
63.418806
 20
1.251687
 30
0.0
 10
63.137240
 20
1.339089
 30
0.0
 10
62.882444
 20
1.477387
 30
0.0
 10
62.660448
 20
1.660551
 30
0.0
 10
62.477284
 20
1.882547
 30
0.0
 10
62.338986
 20
2.137343
 30
0.0
 10
62.251583
 20
2.418906
 30
0.0
 10
62.221107
 20
2.721208
 30
0.0
 10
62.251583
 20
3.023511
 30
0.0
 10
62.338986
 20
3.305078
 30
0.0
 10
62.477284
 20
3.559874
 30
0.0
 10
62.660448
 20
3.781870
 30
0.0
 10
62.882444
 20
3.965034
 30
0.0
 10
63.137240
 20
4.103333
 30
0.0
 10
63.418806
 20
4.190734
 30
0.0
 10
63.721108
 20
4.221214
 30
0.0
 10
64.023410
 20
4.190734
 30
0.0
 10
64.304976
 20
4.103333
 30
0.0
 10
64.559772
 20
3.965034
 30
0.0
 10
64.781768
 20
3.781870
 30
0.0
 10
64.964932
 20
3.559874
 30
0.0
 10
65.103230
 20
3.305078
 30
0.0
 10
65.190633
 20
3.023511
 30
0.0
 10
65.221109
 20
2.721208
 30
0.0
  0
ENDSEC
  0
SECTION
  2
OBJECTS
  0
DICTIONARY
  5
C
330
0
100
AcDbDictionary
  3
ACAD_GROUP
350
D
  3
ACAD_MLINESTYLE
350
17
  0
DICTIONARY
  5
D
330
C
100
AcDbDictionary
  0
DICTIONARY
  5
1A
330
C
100
AcDbDictionary
  0
DICTIONARY
  5
17
330
C
100
AcDbDictionary
  3
STANDARD
350
18
  0
DICTIONARY
  5
19
330
C
100
AcDbDictionary
  0
ENDSEC
  0
EOF
