  0
SECTION
  2
HEADER
  9
$ACADVER
  1
AC1014
  9
$HANDSEED
  5
FFFF
  9
$MEASUREMENT
 70
     1
  0
ENDSEC
  0
SECTION
  2
TABLES
  0
TABLE
  2
VPORT
  5
8
330
0
100
AcDbSymbolTable
 70
     4
  0
VPORT
  5
2E
330
8
100
AcDbSymbolTableRecord
100
AcDbViewportTableRecord
  2
*ACTIVE
 70
     0
 10
0.0
 20
0.0
 11
1.0
 21
1.0
 12
210.0
 22
148.5
 13
0.0
 23
0.0
 14
10.0
 24
10.0
 15
10.0
 25
10.0
 16
0.0
 26
0.0
 36
1.0
 17
0.0
 27
0.0
 37
0.0
 40
341.0
 41
1.24
 42
50.0
 43
0.0
 44
0.0
 50
0.0
 51
0.0
 71
     0
 72
   100
 73
     1
 74
     3
 75
     0
 76
     0
 77
     0
 78
     0
  0
ENDTAB
  0
TABLE
  2
LTYPE
  5
5
330
0
100
AcDbSymbolTable
 70
     1
  0
LTYPE
  5
14
330
5
100
AcDbSymbolTableRecord
100
AcDbLinetypeTableRecord
  2
BYBLOCK
 70
     0
  3

 72
    65
 73
     0
 40
0.0
  0
LTYPE
  5
15
330
5
100
AcDbSymbolTableRecord
100
AcDbLinetypeTableRecord
  2
BYLAYER
 70
     0
  3

 72
    65
 73
     0
 40
0.0
  0
LTYPE
  5
16
330
5
100
AcDbSymbolTableRecord
100
AcDbLinetypeTableRecord
  2
CONTINUOUS
 70
     0
  3
Solid line
 72
    65
 73
     0
 40
0.0
  0
ENDTAB
  0
TABLE
  2
LAYER
  5
2
100
AcDbSymbolTable
 70
2
  0
LAYER
  5
50
100
AcDbSymbolTableRecord
100
AcDbLayerTableRecord
  2
0
 70
0
  6
CONTINUOUS
  0
LAYER
  5
51
100
AcDbSymbolTableRecord
100
AcDbLayerTableRecord
  2
Layer_1
 70
0
  6
CONTINUOUS
  0
ENDTAB
  0
TABLE
  2
STYLE
  5
3
330
0
100
AcDbSymbolTable
 70
     1
  0
STYLE
  5
11
330
3
100
AcDbSymbolTableRecord
100
AcDbTextStyleTableRecord
  2
STANDARD
 70
     0
 40
0.0
 41
1.0
 50
0.0
 71
     0
 42
2.5
  3
txt
  4

  0
ENDTAB
  0
TABLE
  2
VIEW
  5
6
330
0
100
AcDbSymbolTable
 70
     0
  0
ENDTAB
  0
TABLE
  2
UCS
  5
7
330
0
100
AcDbSymbolTable
 70
     0
  0
ENDTAB
  0
TABLE
  2
APPID
  5
9
330
0
100
AcDbSymbolTable
 70
     2
  0
APPID
  5
12
330
9
100
AcDbSymbolTableRecord
100
AcDbRegAppTableRecord
  2
ACAD
 70
     0
  0
ENDTAB
  0
TABLE
  2
DIMSTYLE
  5
A
330
0
100
AcDbSymbolTable
 70
     1
  0
DIMSTYLE
105
27
330
A
100
AcDbSymbolTableRecord
100
AcDbDimStyleTableRecord
  2
ISO-25
 70
     0
  3

  4

  5

  6

  7

 40
1.0
 41
2.5
 42
0.625
 43
3.75
 44
1.25
 45
0.0
 46
0.0
 47
0.0
 48
0.0
140
2.5
141
2.5
142
0.0
143
0.03937007874016
144
1.0
145
0.0
146
1.0
147
0.625
 71
     0
 72
     0
 73
     0
 74
     0
 75
     0
 76
     0
 77
     1
 78
     8
170
     0
171
     3
172
     1
173
     0
174
     0
175
     0
176
     0
177
     0
178
     0
270
     2
271
     2
272
     2
273
     2
274
     3
340
11
275
     0
280
     0
281
     0
282
     0
283
     0
284
     8
285
     0
286
     0
287
     3
288
     0
  0
ENDTAB
  0
TABLE
  2
BLOCK_RECORD
  5
1
330
0
100
AcDbSymbolTable
 70
     1
  0
BLOCK_RECORD
  5
1F
330
1
100
AcDbSymbolTableRecord
100
AcDbBlockTableRecord
  2
*MODEL_SPACE
  0
BLOCK_RECORD
  5
1B
330
1
100
AcDbSymbolTableRecord
100
AcDbBlockTableRecord
  2
*PAPER_SPACE
  0
ENDTAB
  0
ENDSEC
  0
SECTION
  2
BLOCKS
  0
BLOCK
  5
20
330
1F
100
AcDbEntity
  8
0
100
AcDbBlockBegin
  2
*MODEL_SPACE
 70
     0
 10
0.0
 20
0.0
 30
0.0
  3
*MODEL_SPACE
  1

  0
ENDBLK
  5
21
330
1F
100
AcDbEntity
  8
0
100
AcDbBlockEnd
  0
BLOCK
  5
1C
330
1B
100
AcDbEntity
 67
     1
  8
0
100
AcDbBlockBegin
  2
*PAPER_SPACE
  1

  0
ENDBLK
  5
1D
330
1B
100
AcDbEntity
 67
     1
  8
0
100
AcDbBlockEnd
  0
ENDSEC
  0
SECTION
  2
ENTITIES
  0
LWPOLYLINE
  5
100
100
AcDbEntity
  8
Layer_1
 62
7
100
AcDbPolyline
 90
47
 70
0
 10
-12.000000
 20
19.000004
 30
0.0
 10
-11.812500
 20
20.312504
 30
0.0
 10
-11.250000
 20
21.250004
 30
0.0
 10
-10.312500
 20
21.812504
 30
0.0
 10
-9.000000
 20
22.000004
 30
0.0
 10
3.000000
 20
21.999996
 30
0.0
 10
4.312500
 20
21.812496
 30
0.0
 10
5.250000
 20
21.249996
 30
0.0
 10
5.812500
 20
20.312496
 30
0.0
 10
6.000000
 20
18.999996
 30
0.0
 10
6.000000
 20
13.999992
 30
0.0
 10
6.000000
 20
18.999996
 30
0.0
 10
10.000000
 20
19.000007
 30
0.0
 10
10.000000
 20
13.999992
 30
0.0
 10
70.000001
 20
13.999992
 30
0.0
 10
70.000001
 20
18.999999
 30
0.0
 10
73.999999
 20
19.000007
 30
0.0
 10
73.999999
 20
13.999992
 30
0.0
 10
73.999999
 20
19.000007
 30
0.0
 10
74.187499
 20
20.312507
 30
0.0
 10
74.749999
 20
21.250007
 30
0.0
 10
75.687499
 20
21.812507
 30
0.0
 10
76.999998
 20
22.000007
 30
0.0
 10
88.999997
 20
22.000015
 30
0.0
 10
90.312500
 20
21.812515
 30
0.0
 10
91.250000
 20
21.250015
 30
0.0
 10
91.812499
 20
20.312515
 30
0.0
 10
91.999999
 20
19.000016
 30
0.0
 10
91.999999
 20
-0.000008
 30
0.0
 10
73.999999
 20
-0.000008
 30
0.0
 10
73.999999
 20
-4.999998
 30
0.0
 10
70.000001
 20
-4.999998
 30
0.0
 10
70.000001
 20
-0.000008
 30
0.0
 10
46.999999
 20
-0.000008
 30
0.0
 10
46.999999
 20
-4.999998
 30
0.0
 10
45.000000
 20
-4.999998
 30
0.0
 10
45.000000
 20
-0.000008
 30
0.0
 10
35.000001
 20
-0.000008
 30
0.0
 10
35.000001
 20
-4.999998
 30
0.0
 10
32.999999
 20
-4.999998
 30
0.0
 10
32.999999
 20
-0.000008
 30
0.0
 10
10.000000
 20
-0.000008
 30
0.0
 10
10.000000
 20
-4.999998
 30
0.0
 10
6.000000
 20
-4.999998
 30
0.0
 10
6.000000
 20
-0.000008
 30
0.0
 10
-12.000000
 20
-0.000008
 30
0.0
 10
-12.000000
 20
19.000004
 30
0.0
  0
LWPOLYLINE
  5
101
100
AcDbEntity
  8
Layer_1
 62
7
100
AcDbPolyline
 90
33
 70
0
 10
-5.952499
 20
17.999998
 30
0.0
 10
-5.993615
 20
17.593374
 30
0.0
 10
-6.111536
 20
17.214643
 30
0.0
 10
-6.298124
 20
16.871917
 30
0.0
 10
-6.545242
 20
16.573313
 30
0.0
 10
-6.844752
 20
16.326941
 30
0.0
 10
-7.188515
 20
16.140916
 30
0.0
 10
-7.568393
 20
16.023352
 30
0.0
 10
-7.976250
 20
15.982360
 30
0.0
 10
-8.384106
 20
16.023352
 30
0.0
 10
-8.763985
 20
16.140916
 30
0.0
 10
-9.107748
 20
16.326941
 30
0.0
 10
-9.407257
 20
16.573313
 30
0.0
 10
-9.654375
 20
16.871917
 30
0.0
 10
-9.840964
 20
17.214643
 30
0.0
 10
-9.958885
 20
17.593374
 30
0.0
 10
-10.000000
 20
17.999998
 30
0.0
 10
-9.958885
 20
18.406622
 30
0.0
 10
-9.840964
 20
18.785353
 30
0.0
 10
-9.654375
 20
19.128079
 30
0.0
 10
-9.407257
 20
19.426683
 30
0.0
 10
-9.107748
 20
19.673055
 30
0.0
 10
-8.763985
 20
19.859080
 30
0.0
 10
-8.384106
 20
19.976644
 30
0.0
 10
-7.976250
 20
20.017636
 30
0.0
 10
-7.568393
 20
19.976644
 30
0.0
 10
-7.188515
 20
19.859080
 30
0.0
 10
-6.844752
 20
19.673055
 30
0.0
 10
-6.545242
 20
19.426683
 30
0.0
 10
-6.298124
 20
19.128079
 30
0.0
 10
-6.111536
 20
18.785353
 30
0.0
 10
-5.993615
 20
18.406622
 30
0.0
 10
-5.952499
 20
17.999998
 30
0.0
  0
LWPOLYLINE
  5
102
100
AcDbEntity
  8
Layer_1
 62
7
100
AcDbPolyline
 90
33
 70
0
 10
90.023751
 20
17.999998
 30
0.0
 10
89.982635
 20
17.593374
 30
0.0
 10
89.864714
 20
17.214643
 30
0.0
 10
89.678126
 20
16.871917
 30
0.0
 10
89.431008
 20
16.573313
 30
0.0
 10
89.131498
 20
16.326941
 30
0.0
 10
88.787735
 20
16.140916
 30
0.0
 10
88.407857
 20
16.023352
 30
0.0
 10
88.000000
 20
15.982360
 30
0.0
 10
87.592144
 20
16.023352
 30
0.0
 10
87.212265
 20
16.140916
 30
0.0
 10
86.868502
 20
16.326941
 30
0.0
 10
86.568993
 20
16.573313
 30
0.0
 10
86.321875
 20
16.871917
 30
0.0
 10
86.135286
 20
17.214643
 30
0.0
 10
86.017366
 20
17.593374
 30
0.0
 10
85.976250
 20
17.999998
 30
0.0
 10
86.017366
 20
18.406622
 30
0.0
 10
86.135286
 20
18.785353
 30
0.0
 10
86.321875
 20
19.128079
 30
0.0
 10
86.568993
 20
19.426683
 30
0.0
 10
86.868502
 20
19.673055
 30
0.0
 10
87.212265
 20
19.859080
 30
0.0
 10
87.592144
 20
19.976644
 30
0.0
 10
88.000000
 20
20.017636
 30
0.0
 10
88.407857
 20
19.976644
 30
0.0
 10
88.787735
 20
19.859080
 30
0.0
 10
89.131498
 20
19.673055
 30
0.0
 10
89.431008
 20
19.426683
 30
0.0
 10
89.678126
 20
19.128079
 30
0.0
 10
89.864714
 20
18.785353
 30
0.0
 10
89.982635
 20
18.406622
 30
0.0
 10
90.023751
 20
17.999998
 30
0.0
  0
LWPOLYLINE
  5
103
100
AcDbEntity
  8
Layer_1
 62
7
100
AcDbPolyline
 90
33
 70
0
 10
4.047501
 20
17.999998
 30
0.0
 10
4.006385
 20
17.593374
 30
0.0
 10
3.888464
 20
17.214643
 30
0.0
 10
3.701876
 20
16.871917
 30
0.0
 10
3.454758
 20
16.573313
 30
0.0
 10
3.155248
 20
16.326941
 30
0.0
 10
2.811485
 20
16.140916
 30
0.0
 10
2.431607
 20
16.023352
 30
0.0
 10
2.023750
 20
15.982360
 30
0.0
 10
1.615894
 20
16.023352
 30
0.0
 10
1.236015
 20
16.140916
 30
0.0
 10
0.892252
 20
16.326941
 30
0.0
 10
0.592743
 20
16.573313
 30
0.0
 10
0.345625
 20
16.871917
 30
0.0
 10
0.159037
 20
17.214643
 30
0.0
 10
0.041116
 20
17.593374
 30
0.0
 10
0.000000
 20
17.999998
 30
0.0
 10
0.041116
 20
18.406622
 30
0.0
 10
0.159037
 20
18.785353
 30
0.0
 10
0.345625
 20
19.128079
 30
0.0
 10
0.592743
 20
19.426683
 30
0.0
 10
0.892252
 20
19.673055
 30
0.0
 10
1.236016
 20
19.859080
 30
0.0
 10
1.615894
 20
19.976644
 30
0.0
 10
2.023750
 20
20.017636
 30
0.0
 10
2.431607
 20
19.976644
 30
0.0
 10
2.811485
 20
19.859080
 30
0.0
 10
3.155248
 20
19.673055
 30
0.0
 10
3.454758
 20
19.426683
 30
0.0
 10
3.701876
 20
19.128079
 30
0.0
 10
3.888464
 20
18.785353
 30
0.0
 10
4.006385
 20
18.406622
 30
0.0
 10
4.047501
 20
17.999998
 30
0.0
  0
LWPOLYLINE
  5
104
100
AcDbEntity
  8
Layer_1
 62
7
100
AcDbPolyline
 90
33
 70
0
 10
80.023751
 20
17.999998
 30
0.0
 10
79.982635
 20
17.593374
 30
0.0
 10
79.864714
 20
17.214643
 30
0.0
 10
79.678126
 20
16.871917
 30
0.0
 10
79.431008
 20
16.573313
 30
0.0
 10
79.131498
 20
16.326941
 30
0.0
 10
78.787735
 20
16.140916
 30
0.0
 10
78.407857
 20
16.023352
 30
0.0
 10
78.000001
 20
15.982360
 30
0.0
 10
77.592144
 20
16.023352
 30
0.0
 10
77.212266
 20
16.140916
 30
0.0
 10
76.868503
 20
16.326941
 30
0.0
 10
76.568993
 20
16.573313
 30
0.0
 10
76.321875
 20
16.871917
 30
0.0
 10
76.135287
 20
17.214643
 30
0.0
 10
76.017366
 20
17.593374
 30
0.0
 10
75.976250
 20
17.999998
 30
0.0
 10
76.017366
 20
18.406622
 30
0.0
 10
76.135287
 20
18.785353
 30
0.0
 10
76.321875
 20
19.128079
 30
0.0
 10
76.568993
 20
19.426683
 30
0.0
 10
76.868503
 20
19.673055
 30
0.0
 10
77.212266
 20
19.859080
 30
0.0
 10
77.592144
 20
19.976644
 30
0.0
 10
78.000001
 20
20.017636
 30
0.0
 10
78.407857
 20
19.976644
 30
0.0
 10
78.787735
 20
19.859080
 30
0.0
 10
79.131498
 20
19.673055
 30
0.0
 10
79.431008
 20
19.426683
 30
0.0
 10
79.678126
 20
19.128079
 30
0.0
 10
79.864714
 20
18.785353
 30
0.0
 10
79.982635
 20
18.406622
 30
0.0
 10
80.023751
 20
17.999998
 30
0.0
  0
ENDSEC
  0
SECTION
  2
OBJECTS
  0
DICTIONARY
  5
C
330
0
100
AcDbDictionary
  3
ACAD_GROUP
350
D
  3
ACAD_MLINESTYLE
350
17
  0
DICTIONARY
  5
D
330
C
100
AcDbDictionary
  0
DICTIONARY
  5
1A
330
C
100
AcDbDictionary
  0
DICTIONARY
  5
17
330
C
100
AcDbDictionary
  3
STANDARD
350
18
  0
DICTIONARY
  5
19
330
C
100
AcDbDictionary
  0
ENDSEC
  0
EOF
