  0
SECTION
  2
HEADER
  9
$ACADVER
  1
AC1014
  9
$HANDSEED
  5
FFFF
  9
$MEASUREMENT
 70
     1
  0
ENDSEC
  0
SECTION
  2
TABLES
  0
TABLE
  2
VPORT
  5
8
330
0
100
AcDbSymbolTable
 70
     4
  0
VPORT
  5
2E
330
8
100
AcDbSymbolTableRecord
100
AcDbViewportTableRecord
  2
*ACTIVE
 70
     0
 10
0.0
 20
0.0
 11
1.0
 21
1.0
 12
210.0
 22
148.5
 13
0.0
 23
0.0
 14
10.0
 24
10.0
 15
10.0
 25
10.0
 16
0.0
 26
0.0
 36
1.0
 17
0.0
 27
0.0
 37
0.0
 40
341.0
 41
1.24
 42
50.0
 43
0.0
 44
0.0
 50
0.0
 51
0.0
 71
     0
 72
   100
 73
     1
 74
     3
 75
     0
 76
     0
 77
     0
 78
     0
  0
ENDTAB
  0
TABLE
  2
LTYPE
  5
5
330
0
100
AcDbSymbolTable
 70
     1
  0
LTYPE
  5
14
330
5
100
AcDbSymbolTableRecord
100
AcDbLinetypeTableRecord
  2
BYBLOCK
 70
     0
  3

 72
    65
 73
     0
 40
0.0
  0
LTYPE
  5
15
330
5
100
AcDbSymbolTableRecord
100
AcDbLinetypeTableRecord
  2
BYLAYER
 70
     0
  3

 72
    65
 73
     0
 40
0.0
  0
LTYPE
  5
16
330
5
100
AcDbSymbolTableRecord
100
AcDbLinetypeTableRecord
  2
CONTINUOUS
 70
     0
  3
Solid line
 72
    65
 73
     0
 40
0.0
  0
ENDTAB
  0
TABLE
  2
LAYER
  5
2
100
AcDbSymbolTable
 70
2
  0
LAYER
  5
50
100
AcDbSymbolTableRecord
100
AcDbLayerTableRecord
  2
0
 70
0
  6
CONTINUOUS
  0
LAYER
  5
51
100
AcDbSymbolTableRecord
100
AcDbLayerTableRecord
  2
Layer_1
 70
0
  6
CONTINUOUS
  0
ENDTAB
  0
TABLE
  2
STYLE
  5
3
330
0
100
AcDbSymbolTable
 70
     1
  0
STYLE
  5
11
330
3
100
AcDbSymbolTableRecord
100
AcDbTextStyleTableRecord
  2
STANDARD
 70
     0
 40
0.0
 41
1.0
 50
0.0
 71
     0
 42
2.5
  3
txt
  4

  0
ENDTAB
  0
TABLE
  2
VIEW
  5
6
330
0
100
AcDbSymbolTable
 70
     0
  0
ENDTAB
  0
TABLE
  2
UCS
  5
7
330
0
100
AcDbSymbolTable
 70
     0
  0
ENDTAB
  0
TABLE
  2
APPID
  5
9
330
0
100
AcDbSymbolTable
 70
     2
  0
APPID
  5
12
330
9
100
AcDbSymbolTableRecord
100
AcDbRegAppTableRecord
  2
ACAD
 70
     0
  0
ENDTAB
  0
TABLE
  2
DIMSTYLE
  5
A
330
0
100
AcDbSymbolTable
 70
     1
  0
DIMSTYLE
105
27
330
A
100
AcDbSymbolTableRecord
100
AcDbDimStyleTableRecord
  2
ISO-25
 70
     0
  3

  4

  5

  6

  7

 40
1.0
 41
2.5
 42
0.625
 43
3.75
 44
1.25
 45
0.0
 46
0.0
 47
0.0
 48
0.0
140
2.5
141
2.5
142
0.0
143
0.03937007874016
144
1.0
145
0.0
146
1.0
147
0.625
 71
     0
 72
     0
 73
     0
 74
     0
 75
     0
 76
     0
 77
     1
 78
     8
170
     0
171
     3
172
     1
173
     0
174
     0
175
     0
176
     0
177
     0
178
     0
270
     2
271
     2
272
     2
273
     2
274
     3
340
11
275
     0
280
     0
281
     0
282
     0
283
     0
284
     8
285
     0
286
     0
287
     3
288
     0
  0
ENDTAB
  0
TABLE
  2
BLOCK_RECORD
  5
1
330
0
100
AcDbSymbolTable
 70
     1
  0
BLOCK_RECORD
  5
1F
330
1
100
AcDbSymbolTableRecord
100
AcDbBlockTableRecord
  2
*MODEL_SPACE
  0
BLOCK_RECORD
  5
1B
330
1
100
AcDbSymbolTableRecord
100
AcDbBlockTableRecord
  2
*PAPER_SPACE
  0
ENDTAB
  0
ENDSEC
  0
SECTION
  2
BLOCKS
  0
BLOCK
  5
20
330
1F
100
AcDbEntity
  8
0
100
AcDbBlockBegin
  2
*MODEL_SPACE
 70
     0
 10
0.0
 20
0.0
 30
0.0
  3
*MODEL_SPACE
  1

  0
ENDBLK
  5
21
330
1F
100
AcDbEntity
  8
0
100
AcDbBlockEnd
  0
BLOCK
  5
1C
330
1B
100
AcDbEntity
 67
     1
  8
0
100
AcDbBlockBegin
  2
*PAPER_SPACE
  1

  0
ENDBLK
  5
1D
330
1B
100
AcDbEntity
 67
     1
  8
0
100
AcDbBlockEnd
  0
ENDSEC
  0
SECTION
  2
ENTITIES
  0
LWPOLYLINE
  5
100
100
AcDbEntity
  8
Layer_1
 62
7
100
AcDbPolyline
 90
47
 70
0
 10
0.000000
 20
24.000005
 30
0.0
 10
0.187500
 20
25.312505
 30
0.0
 10
0.750000
 20
26.250005
 30
0.0
 10
1.687500
 20
26.812505
 30
0.0
 10
3.000000
 20
27.000005
 30
0.0
 10
15.000000
 20
26.999996
 30
0.0
 10
16.312500
 20
26.812496
 30
0.0
 10
17.250000
 20
26.249996
 30
0.0
 10
17.812500
 20
25.312496
 30
0.0
 10
18.000000
 20
23.999997
 30
0.0
 10
18.000000
 20
18.999990
 30
0.0
 10
18.000000
 20
23.999997
 30
0.0
 10
20.000000
 20
23.999997
 30
0.0
 10
20.000000
 20
14.000000
 30
0.0
 10
64.000000
 20
14.000000
 30
0.0
 10
64.000000
 20
23.999997
 30
0.0
 10
65.999999
 20
23.999997
 30
0.0
 10
65.999999
 20
18.999990
 30
0.0
 10
65.999999
 20
23.999997
 30
0.0
 10
66.187499
 20
25.312496
 30
0.0
 10
66.749999
 20
26.249996
 30
0.0
 10
67.687499
 20
26.812496
 30
0.0
 10
68.999999
 20
26.999996
 30
0.0
 10
80.999997
 20
27.000005
 30
0.0
 10
82.312500
 20
26.812505
 30
0.0
 10
83.250000
 20
26.250005
 30
0.0
 10
83.812500
 20
25.312505
 30
0.0
 10
84.000000
 20
24.000005
 30
0.0
 10
84.000000
 20
4.999989
 30
0.0
 10
75.000001
 20
4.999989
 30
0.0
 10
75.000001
 20
-0.000001
 30
0.0
 10
72.999999
 20
-0.000001
 30
0.0
 10
72.999999
 20
4.999989
 30
0.0
 10
48.999999
 20
4.999989
 30
0.0
 10
48.999999
 20
-0.000001
 30
0.0
 10
47.000000
 20
-0.000001
 30
0.0
 10
47.000000
 20
4.999989
 30
0.0
 10
37.000001
 20
4.999989
 30
0.0
 10
37.000001
 20
-0.000001
 30
0.0
 10
34.999999
 20
-0.000001
 30
0.0
 10
34.999999
 20
4.999989
 30
0.0
 10
11.000000
 20
4.999989
 30
0.0
 10
11.000000
 20
-0.000001
 30
0.0
 10
9.000000
 20
-0.000001
 30
0.0
 10
9.000000
 20
4.999989
 30
0.0
 10
-0.000000
 20
4.999989
 30
0.0
 10
0.000000
 20
24.000005
 30
0.0
  0
LWPOLYLINE
  5
101
100
AcDbEntity
  8
Layer_1
 62
7
100
AcDbPolyline
 90
33
 70
0
 10
6.023750
 20
22.999996
 30
0.0
 10
5.982635
 20
22.593372
 30
0.0
 10
5.864714
 20
22.214641
 30
0.0
 10
5.678126
 20
21.871915
 30
0.0
 10
5.431007
 20
21.573311
 30
0.0
 10
5.131498
 20
21.326938
 30
0.0
 10
4.787735
 20
21.140914
 30
0.0
 10
4.407856
 20
21.023350
 30
0.0
 10
4.000000
 20
20.982358
 30
0.0
 10
3.592144
 20
21.023350
 30
0.0
 10
3.212265
 20
21.140914
 30
0.0
 10
2.868502
 20
21.326938
 30
0.0
 10
2.568993
 20
21.573311
 30
0.0
 10
2.321875
 20
21.871915
 30
0.0
 10
2.135286
 20
22.214641
 30
0.0
 10
2.017365
 20
22.593372
 30
0.0
 10
1.976250
 20
22.999996
 30
0.0
 10
2.017365
 20
23.406620
 30
0.0
 10
2.135286
 20
23.785351
 30
0.0
 10
2.321875
 20
24.128077
 30
0.0
 10
2.568993
 20
24.426681
 30
0.0
 10
2.868502
 20
24.673053
 30
0.0
 10
3.212265
 20
24.859078
 30
0.0
 10
3.592144
 20
24.976642
 30
0.0
 10
4.000000
 20
25.017634
 30
0.0
 10
4.407856
 20
24.976642
 30
0.0
 10
4.787735
 20
24.859078
 30
0.0
 10
5.131498
 20
24.673053
 30
0.0
 10
5.431007
 20
24.426681
 30
0.0
 10
5.678126
 20
24.128077
 30
0.0
 10
5.864714
 20
23.785351
 30
0.0
 10
5.982635
 20
23.406620
 30
0.0
 10
6.023750
 20
22.999996
 30
0.0
  0
LWPOLYLINE
  5
102
100
AcDbEntity
  8
Layer_1
 62
7
100
AcDbPolyline
 90
33
 70
0
 10
82.023751
 20
22.999996
 30
0.0
 10
81.982635
 20
22.593372
 30
0.0
 10
81.864714
 20
22.214641
 30
0.0
 10
81.678126
 20
21.871915
 30
0.0
 10
81.431008
 20
21.573311
 30
0.0
 10
81.131499
 20
21.326938
 30
0.0
 10
80.787735
 20
21.140914
 30
0.0
 10
80.407857
 20
21.023350
 30
0.0
 10
80.000001
 20
20.982358
 30
0.0
 10
79.592144
 20
21.023350
 30
0.0
 10
79.212266
 20
21.140914
 30
0.0
 10
78.868503
 20
21.326938
 30
0.0
 10
78.568993
 20
21.573311
 30
0.0
 10
78.321875
 20
21.871915
 30
0.0
 10
78.135287
 20
22.214641
 30
0.0
 10
78.017366
 20
22.593372
 30
0.0
 10
77.976250
 20
22.999996
 30
0.0
 10
78.017366
 20
23.406620
 30
0.0
 10
78.135287
 20
23.785351
 30
0.0
 10
78.321875
 20
24.128077
 30
0.0
 10
78.568993
 20
24.426681
 30
0.0
 10
78.868503
 20
24.673053
 30
0.0
 10
79.212266
 20
24.859078
 30
0.0
 10
79.592144
 20
24.976642
 30
0.0
 10
80.000001
 20
25.017634
 30
0.0
 10
80.407857
 20
24.976642
 30
0.0
 10
80.787735
 20
24.859078
 30
0.0
 10
81.131499
 20
24.673053
 30
0.0
 10
81.431008
 20
24.426681
 30
0.0
 10
81.678126
 20
24.128077
 30
0.0
 10
81.864714
 20
23.785351
 30
0.0
 10
81.982635
 20
23.406620
 30
0.0
 10
82.023751
 20
22.999996
 30
0.0
  0
LWPOLYLINE
  5
103
100
AcDbEntity
  8
Layer_1
 62
7
100
AcDbPolyline
 90
33
 70
0
 10
16.023750
 20
22.999996
 30
0.0
 10
15.982635
 20
22.593372
 30
0.0
 10
15.864714
 20
22.214641
 30
0.0
 10
15.678126
 20
21.871915
 30
0.0
 10
15.431008
 20
21.573311
 30
0.0
 10
15.131498
 20
21.326938
 30
0.0
 10
14.787735
 20
21.140914
 30
0.0
 10
14.407857
 20
21.023350
 30
0.0
 10
14.000000
 20
20.982358
 30
0.0
 10
13.592144
 20
21.023350
 30
0.0
 10
13.212265
 20
21.140914
 30
0.0
 10
12.868502
 20
21.326938
 30
0.0
 10
12.568993
 20
21.573311
 30
0.0
 10
12.321875
 20
21.871915
 30
0.0
 10
12.135286
 20
22.214641
 30
0.0
 10
12.017365
 20
22.593372
 30
0.0
 10
11.976250
 20
22.999996
 30
0.0
 10
12.017365
 20
23.406620
 30
0.0
 10
12.135286
 20
23.785351
 30
0.0
 10
12.321875
 20
24.128077
 30
0.0
 10
12.568993
 20
24.426681
 30
0.0
 10
12.868502
 20
24.673053
 30
0.0
 10
13.212265
 20
24.859078
 30
0.0
 10
13.592144
 20
24.976642
 30
0.0
 10
14.000000
 20
25.017634
 30
0.0
 10
14.407857
 20
24.976642
 30
0.0
 10
14.787735
 20
24.859078
 30
0.0
 10
15.131498
 20
24.673053
 30
0.0
 10
15.431008
 20
24.426681
 30
0.0
 10
15.678126
 20
24.128077
 30
0.0
 10
15.864714
 20
23.785351
 30
0.0
 10
15.982635
 20
23.406620
 30
0.0
 10
16.023750
 20
22.999996
 30
0.0
  0
LWPOLYLINE
  5
104
100
AcDbEntity
  8
Layer_1
 62
7
100
AcDbPolyline
 90
33
 70
0
 10
72.023751
 20
22.999996
 30
0.0
 10
71.982636
 20
22.593372
 30
0.0
 10
71.864715
 20
22.214641
 30
0.0
 10
71.678126
 20
21.871915
 30
0.0
 10
71.431008
 20
21.573311
 30
0.0
 10
71.131499
 20
21.326938
 30
0.0
 10
70.787736
 20
21.140914
 30
0.0
 10
70.407857
 20
21.023350
 30
0.0
 10
70.000001
 20
20.982358
 30
0.0
 10
69.592145
 20
21.023350
 30
0.0
 10
69.212266
 20
21.140914
 30
0.0
 10
68.868503
 20
21.326938
 30
0.0
 10
68.568993
 20
21.573311
 30
0.0
 10
68.321875
 20
21.871915
 30
0.0
 10
68.135287
 20
22.214641
 30
0.0
 10
68.017366
 20
22.593372
 30
0.0
 10
67.976251
 20
22.999996
 30
0.0
 10
68.017366
 20
23.406620
 30
0.0
 10
68.135287
 20
23.785351
 30
0.0
 10
68.321875
 20
24.128077
 30
0.0
 10
68.568993
 20
24.426681
 30
0.0
 10
68.868503
 20
24.673053
 30
0.0
 10
69.212266
 20
24.859078
 30
0.0
 10
69.592145
 20
24.976642
 30
0.0
 10
70.000001
 20
25.017634
 30
0.0
 10
70.407857
 20
24.976642
 30
0.0
 10
70.787736
 20
24.859078
 30
0.0
 10
71.131499
 20
24.673053
 30
0.0
 10
71.431008
 20
24.426681
 30
0.0
 10
71.678126
 20
24.128077
 30
0.0
 10
71.864715
 20
23.785351
 30
0.0
 10
71.982636
 20
23.406620
 30
0.0
 10
72.023751
 20
22.999996
 30
0.0
  0
ENDSEC
  0
SECTION
  2
OBJECTS
  0
DICTIONARY
  5
C
330
0
100
AcDbDictionary
  3
ACAD_GROUP
350
D
  3
ACAD_MLINESTYLE
350
17
  0
DICTIONARY
  5
D
330
C
100
AcDbDictionary
  0
DICTIONARY
  5
1A
330
C
100
AcDbDictionary
  0
DICTIONARY
  5
17
330
C
100
AcDbDictionary
  3
STANDARD
350
18
  0
DICTIONARY
  5
19
330
C
100
AcDbDictionary
  0
ENDSEC
  0
EOF
