  0
SECTION
  2
HEADER
  9
$ACADVER
  1
AC1014
  9
$HANDSEED
  5
FFFF
  9
$MEASUREMENT
 70
     1
  0
ENDSEC
  0
SECTION
  2
TABLES
  0
TABLE
  2
VPORT
  5
8
330
0
100
AcDbSymbolTable
 70
     4
  0
VPORT
  5
2E
330
8
100
AcDbSymbolTableRecord
100
AcDbViewportTableRecord
  2
*ACTIVE
 70
     0
 10
0.0
 20
0.0
 11
1.0
 21
1.0
 12
210.0
 22
148.5
 13
0.0
 23
0.0
 14
10.0
 24
10.0
 15
10.0
 25
10.0
 16
0.0
 26
0.0
 36
1.0
 17
0.0
 27
0.0
 37
0.0
 40
341.0
 41
1.24
 42
50.0
 43
0.0
 44
0.0
 50
0.0
 51
0.0
 71
     0
 72
   100
 73
     1
 74
     3
 75
     0
 76
     0
 77
     0
 78
     0
  0
ENDTAB
  0
TABLE
  2
LTYPE
  5
5
330
0
100
AcDbSymbolTable
 70
     1
  0
LTYPE
  5
14
330
5
100
AcDbSymbolTableRecord
100
AcDbLinetypeTableRecord
  2
BYBLOCK
 70
     0
  3

 72
    65
 73
     0
 40
0.0
  0
LTYPE
  5
15
330
5
100
AcDbSymbolTableRecord
100
AcDbLinetypeTableRecord
  2
BYLAYER
 70
     0
  3

 72
    65
 73
     0
 40
0.0
  0
LTYPE
  5
16
330
5
100
AcDbSymbolTableRecord
100
AcDbLinetypeTableRecord
  2
CONTINUOUS
 70
     0
  3
Solid line
 72
    65
 73
     0
 40
0.0
  0
ENDTAB
  0
TABLE
  2
LAYER
  5
2
100
AcDbSymbolTable
 70
2
  0
LAYER
  5
50
100
AcDbSymbolTableRecord
100
AcDbLayerTableRecord
  2
0
 70
0
  6
CONTINUOUS
  0
LAYER
  5
51
100
AcDbSymbolTableRecord
100
AcDbLayerTableRecord
  2
Layer_1
 70
0
  6
CONTINUOUS
  0
ENDTAB
  0
TABLE
  2
STYLE
  5
3
330
0
100
AcDbSymbolTable
 70
     1
  0
STYLE
  5
11
330
3
100
AcDbSymbolTableRecord
100
AcDbTextStyleTableRecord
  2
STANDARD
 70
     0
 40
0.0
 41
1.0
 50
0.0
 71
     0
 42
2.5
  3
txt
  4

  0
ENDTAB
  0
TABLE
  2
VIEW
  5
6
330
0
100
AcDbSymbolTable
 70
     0
  0
ENDTAB
  0
TABLE
  2
UCS
  5
7
330
0
100
AcDbSymbolTable
 70
     0
  0
ENDTAB
  0
TABLE
  2
APPID
  5
9
330
0
100
AcDbSymbolTable
 70
     2
  0
APPID
  5
12
330
9
100
AcDbSymbolTableRecord
100
AcDbRegAppTableRecord
  2
ACAD
 70
     0
  0
ENDTAB
  0
TABLE
  2
DIMSTYLE
  5
A
330
0
100
AcDbSymbolTable
 70
     1
  0
DIMSTYLE
105
27
330
A
100
AcDbSymbolTableRecord
100
AcDbDimStyleTableRecord
  2
ISO-25
 70
     0
  3

  4

  5

  6

  7

 40
1.0
 41
2.5
 42
0.625
 43
3.75
 44
1.25
 45
0.0
 46
0.0
 47
0.0
 48
0.0
140
2.5
141
2.5
142
0.0
143
0.03937007874016
144
1.0
145
0.0
146
1.0
147
0.625
 71
     0
 72
     0
 73
     0
 74
     0
 75
     0
 76
     0
 77
     1
 78
     8
170
     0
171
     3
172
     1
173
     0
174
     0
175
     0
176
     0
177
     0
178
     0
270
     2
271
     2
272
     2
273
     2
274
     3
340
11
275
     0
280
     0
281
     0
282
     0
283
     0
284
     8
285
     0
286
     0
287
     3
288
     0
  0
ENDTAB
  0
TABLE
  2
BLOCK_RECORD
  5
1
330
0
100
AcDbSymbolTable
 70
     1
  0
BLOCK_RECORD
  5
1F
330
1
100
AcDbSymbolTableRecord
100
AcDbBlockTableRecord
  2
*MODEL_SPACE
  0
BLOCK_RECORD
  5
1B
330
1
100
AcDbSymbolTableRecord
100
AcDbBlockTableRecord
  2
*PAPER_SPACE
  0
ENDTAB
  0
ENDSEC
  0
SECTION
  2
BLOCKS
  0
BLOCK
  5
20
330
1F
100
AcDbEntity
  8
0
100
AcDbBlockBegin
  2
*MODEL_SPACE
 70
     0
 10
0.0
 20
0.0
 30
0.0
  3
*MODEL_SPACE
  1

  0
ENDBLK
  5
21
330
1F
100
AcDbEntity
  8
0
100
AcDbBlockEnd
  0
BLOCK
  5
1C
330
1B
100
AcDbEntity
 67
     1
  8
0
100
AcDbBlockBegin
  2
*PAPER_SPACE
  1

  0
ENDBLK
  5
1D
330
1B
100
AcDbEntity
 67
     1
  8
0
100
AcDbBlockEnd
  0
ENDSEC
  0
SECTION
  2
ENTITIES
  0
LWPOLYLINE
  5
100
100
AcDbEntity
  8
Layer_1
 62
7
100
AcDbPolyline
 90
21
 70
0
 10
13.000000
 20
14.999998
 30
0.0
 10
0.000000
 20
14.999998
 30
0.0
 10
0.000000
 20
27.000000
 30
0.0
 10
13.000000
 20
27.000000
 30
0.0
 10
12.999999
 20
29.999999
 30
0.0
 10
13.000000
 20
42.999999
 30
0.0
 10
21.999999
 20
43.000001
 30
0.0
 10
21.999999
 20
29.999999
 30
0.0
 10
43.999999
 20
29.999999
 30
0.0
 10
43.999999
 20
43.000001
 30
0.0
 10
53.000001
 20
42.999999
 30
0.0
 10
53.000001
 20
29.999999
 30
0.0
 10
53.000001
 20
26.999991
 30
0.0
 10
66.000001
 20
27.000000
 30
0.0
 10
66.000001
 20
14.999998
 30
0.0
 10
53.000001
 20
14.999998
 30
0.0
 10
53.000001
 20
12.999994
 30
0.0
 10
53.000001
 20
-0.000008
 30
0.0
 10
13.000000
 20
-0.000008
 30
0.0
 10
13.000000
 20
12.999994
 30
0.0
 10
13.000000
 20
14.999998
 30
0.0
  0
LWPOLYLINE
  5
101
100
AcDbEntity
  8
Layer_1
 62
1
100
AcDbPolyline
 90
33
 70
0
 10
21.000000
 20
36.999999
 30
0.0
 10
20.979683
 20
36.798464
 30
0.0
 10
20.921414
 20
36.610753
 30
0.0
 10
20.829215
 20
36.440889
 30
0.0
 10
20.707106
 20
36.292892
 30
0.0
 10
20.559109
 20
36.170783
 30
0.0
 10
20.389244
 20
36.078583
 30
0.0
 10
20.201534
 20
36.020316
 30
0.0
 10
19.999999
 20
35.999996
 30
0.0
 10
19.798464
 20
36.020316
 30
0.0
 10
19.610754
 20
36.078583
 30
0.0
 10
19.440890
 20
36.170783
 30
0.0
 10
19.292893
 20
36.292892
 30
0.0
 10
19.170783
 20
36.440889
 30
0.0
 10
19.078584
 20
36.610753
 30
0.0
 10
19.020316
 20
36.798464
 30
0.0
 10
18.999998
 20
36.999999
 30
0.0
 10
19.020316
 20
37.201534
 30
0.0
 10
19.078584
 20
37.389243
 30
0.0
 10
19.170783
 20
37.559107
 30
0.0
 10
19.292893
 20
37.707104
 30
0.0
 10
19.440890
 20
37.829213
 30
0.0
 10
19.610754
 20
37.921413
 30
0.0
 10
19.798464
 20
37.979680
 30
0.0
 10
19.999999
 20
38.000000
 30
0.0
 10
20.201534
 20
37.979680
 30
0.0
 10
20.389244
 20
37.921413
 30
0.0
 10
20.559109
 20
37.829213
 30
0.0
 10
20.707106
 20
37.707104
 30
0.0
 10
20.829215
 20
37.559107
 30
0.0
 10
20.921414
 20
37.389243
 30
0.0
 10
20.979683
 20
37.201534
 30
0.0
 10
21.000000
 20
36.999999
 30
0.0
  0
LWPOLYLINE
  5
102
100
AcDbEntity
  8
Layer_1
 62
1
100
AcDbPolyline
 90
33
 70
0
 10
46.999999
 20
36.999999
 30
0.0
 10
46.979679
 20
36.798464
 30
0.0
 10
46.921412
 20
36.610753
 30
0.0
 10
46.829212
 20
36.440889
 30
0.0
 10
46.707103
 20
36.292892
 30
0.0
 10
46.559106
 20
36.170783
 30
0.0
 10
46.389242
 20
36.078583
 30
0.0
 10
46.201533
 20
36.020316
 30
0.0
 10
45.999998
 20
35.999996
 30
0.0
 10
45.798463
 20
36.020316
 30
0.0
 10
45.610752
 20
36.078583
 30
0.0
 10
45.440888
 20
36.170783
 30
0.0
 10
45.292891
 20
36.292892
 30
0.0
 10
45.170781
 20
36.440889
 30
0.0
 10
45.078582
 20
36.610753
 30
0.0
 10
45.020315
 20
36.798464
 30
0.0
 10
44.999995
 20
36.999999
 30
0.0
 10
45.020315
 20
37.201534
 30
0.0
 10
45.078582
 20
37.389243
 30
0.0
 10
45.170781
 20
37.559107
 30
0.0
 10
45.292891
 20
37.707104
 30
0.0
 10
45.440888
 20
37.829213
 30
0.0
 10
45.610752
 20
37.921413
 30
0.0
 10
45.798463
 20
37.979680
 30
0.0
 10
45.999998
 20
38.000000
 30
0.0
 10
46.201533
 20
37.979680
 30
0.0
 10
46.389242
 20
37.921413
 30
0.0
 10
46.559106
 20
37.829213
 30
0.0
 10
46.707103
 20
37.707104
 30
0.0
 10
46.829212
 20
37.559107
 30
0.0
 10
46.921412
 20
37.389243
 30
0.0
 10
46.979679
 20
37.201534
 30
0.0
 10
46.999999
 20
36.999999
 30
0.0
  0
LWPOLYLINE
  5
103
100
AcDbEntity
  8
Layer_1
 62
1
100
AcDbPolyline
 90
33
 70
0
 10
8.023750
 20
21.000000
 30
0.0
 10
7.982635
 20
20.593376
 30
0.0
 10
7.864714
 20
20.214645
 30
0.0
 10
7.678126
 20
19.871919
 30
0.0
 10
7.431007
 20
19.573315
 30
0.0
 10
7.131498
 20
19.326943
 30
0.0
 10
6.787735
 20
19.140918
 30
0.0
 10
6.407856
 20
19.023354
 30
0.0
 10
6.000000
 20
18.982363
 30
0.0
 10
5.592144
 20
19.023354
 30
0.0
 10
5.212265
 20
19.140918
 30
0.0
 10
4.868502
 20
19.326943
 30
0.0
 10
4.568993
 20
19.573315
 30
0.0
 10
4.321875
 20
19.871919
 30
0.0
 10
4.135286
 20
20.214645
 30
0.0
 10
4.017365
 20
20.593376
 30
0.0
 10
3.976250
 20
21.000000
 30
0.0
 10
4.017365
 20
21.406624
 30
0.0
 10
4.135286
 20
21.785356
 30
0.0
 10
4.321875
 20
22.128081
 30
0.0
 10
4.568993
 20
22.426685
 30
0.0
 10
4.868502
 20
22.673058
 30
0.0
 10
5.212265
 20
22.859082
 30
0.0
 10
5.592144
 20
22.976646
 30
0.0
 10
6.000000
 20
23.017638
 30
0.0
 10
6.407856
 20
22.976646
 30
0.0
 10
6.787735
 20
22.859082
 30
0.0
 10
7.131498
 20
22.673058
 30
0.0
 10
7.431007
 20
22.426685
 30
0.0
 10
7.678126
 20
22.128081
 30
0.0
 10
7.864714
 20
21.785356
 30
0.0
 10
7.982635
 20
21.406624
 30
0.0
 10
8.023750
 20
21.000000
 30
0.0
  0
LWPOLYLINE
  5
104
100
AcDbEntity
  8
Layer_1
 62
1
100
AcDbPolyline
 90
33
 70
0
 10
62.023750
 20
21.000000
 30
0.0
 10
61.982635
 20
20.593376
 30
0.0
 10
61.864714
 20
20.214645
 30
0.0
 10
61.678125
 20
19.871919
 30
0.0
 10
61.431007
 20
19.573315
 30
0.0
 10
61.131498
 20
19.326943
 30
0.0
 10
60.787735
 20
19.140918
 30
0.0
 10
60.407856
 20
19.023354
 30
0.0
 10
60.000000
 20
18.982363
 30
0.0
 10
59.592144
 20
19.023354
 30
0.0
 10
59.212265
 20
19.140918
 30
0.0
 10
58.868502
 20
19.326943
 30
0.0
 10
58.568992
 20
19.573315
 30
0.0
 10
58.321874
 20
19.871919
 30
0.0
 10
58.135286
 20
20.214645
 30
0.0
 10
58.017365
 20
20.593376
 30
0.0
 10
57.976250
 20
21.000000
 30
0.0
 10
58.017365
 20
21.406624
 30
0.0
 10
58.135286
 20
21.785356
 30
0.0
 10
58.321874
 20
22.128081
 30
0.0
 10
58.568992
 20
22.426685
 30
0.0
 10
58.868502
 20
22.673058
 30
0.0
 10
59.212265
 20
22.859082
 30
0.0
 10
59.592144
 20
22.976646
 30
0.0
 10
60.000000
 20
23.017638
 30
0.0
 10
60.407856
 20
22.976646
 30
0.0
 10
60.787735
 20
22.859082
 30
0.0
 10
61.131498
 20
22.673058
 30
0.0
 10
61.431007
 20
22.426685
 30
0.0
 10
61.678125
 20
22.128081
 30
0.0
 10
61.864714
 20
21.785356
 30
0.0
 10
61.982635
 20
21.406624
 30
0.0
 10
62.023750
 20
21.000000
 30
0.0
  0
LWPOLYLINE
  5
105
100
AcDbEntity
  8
Layer_1
 62
1
100
AcDbPolyline
 90
33
 70
0
 10
28.038216
 20
4.016388
 30
0.0
 10
27.631592
 20
4.057504
 30
0.0
 10
27.252861
 20
4.175425
 30
0.0
 10
26.910135
 20
4.362013
 30
0.0
 10
26.611531
 20
4.609131
 30
0.0
 10
26.365159
 20
4.908640
 30
0.0
 10
26.179134
 20
5.252404
 30
0.0
 10
26.061570
 20
5.632282
 30
0.0
 10
26.020578
 20
6.040138
 30
0.0
 10
26.061570
 20
6.447995
 30
0.0
 10
26.179134
 20
6.827873
 30
0.0
 10
26.365159
 20
7.171636
 30
0.0
 10
26.611531
 20
7.471146
 30
0.0
 10
26.910135
 20
7.718264
 30
0.0
 10
27.252861
 20
7.904852
 30
0.0
 10
27.631592
 20
8.022773
 30
0.0
 10
28.038216
 20
8.063889
 30
0.0
 10
28.444840
 20
8.022773
 30
0.0
 10
28.823571
 20
7.904852
 30
0.0
 10
29.166297
 20
7.718264
 30
0.0
 10
29.464901
 20
7.471146
 30
0.0
 10
29.711273
 20
7.171636
 30
0.0
 10
29.897298
 20
6.827873
 30
0.0
 10
30.014862
 20
6.447995
 30
0.0
 10
30.055854
 20
6.040138
 30
0.0
 10
30.014862
 20
5.632282
 30
0.0
 10
29.897298
 20
5.252404
 30
0.0
 10
29.711273
 20
4.908640
 30
0.0
 10
29.464901
 20
4.609131
 30
0.0
 10
29.166297
 20
4.362013
 30
0.0
 10
28.823571
 20
4.175425
 30
0.0
 10
28.444840
 20
4.057504
 30
0.0
 10
28.038216
 20
4.016388
 30
0.0
  0
LWPOLYLINE
  5
106
100
AcDbEntity
  8
Layer_1
 62
1
100
AcDbPolyline
 90
33
 70
0
 10
18.000001
 20
3.976256
 30
0.0
 10
17.593377
 20
4.017372
 30
0.0
 10
17.214645
 20
4.135293
 30
0.0
 10
16.871920
 20
4.321881
 30
0.0
 10
16.573316
 20
4.568999
 30
0.0
 10
16.326943
 20
4.868508
 30
0.0
 10
16.140919
 20
5.212272
 30
0.0
 10
16.023355
 20
5.592150
 30
0.0
 10
15.982363
 20
6.000006
 30
0.0
 10
16.023355
 20
6.407863
 30
0.0
 10
16.140919
 20
6.787741
 30
0.0
 10
16.326943
 20
7.131504
 30
0.0
 10
16.573316
 20
7.431014
 30
0.0
 10
16.871920
 20
7.678132
 30
0.0
 10
17.214645
 20
7.864720
 30
0.0
 10
17.593377
 20
7.982641
 30
0.0
 10
18.000001
 20
8.023757
 30
0.0
 10
18.406625
 20
7.982641
 30
0.0
 10
18.785356
 20
7.864720
 30
0.0
 10
19.128081
 20
7.678132
 30
0.0
 10
19.426686
 20
7.431014
 30
0.0
 10
19.673058
 20
7.131504
 30
0.0
 10
19.859083
 20
6.787741
 30
0.0
 10
19.976647
 20
6.407863
 30
0.0
 10
20.017638
 20
6.000006
 30
0.0
 10
19.976647
 20
5.592150
 30
0.0
 10
19.859083
 20
5.212272
 30
0.0
 10
19.673058
 20
4.868508
 30
0.0
 10
19.426686
 20
4.568999
 30
0.0
 10
19.128081
 20
4.321881
 30
0.0
 10
18.785356
 20
4.135293
 30
0.0
 10
18.406625
 20
4.017372
 30
0.0
 10
18.000001
 20
3.976256
 30
0.0
  0
LWPOLYLINE
  5
107
100
AcDbEntity
  8
Layer_1
 62
1
100
AcDbPolyline
 90
33
 70
0
 10
38.047549
 20
4.036962
 30
0.0
 10
37.640925
 20
4.078078
 30
0.0
 10
37.262194
 20
4.195999
 30
0.0
 10
36.919468
 20
4.382587
 30
0.0
 10
36.620864
 20
4.629705
 30
0.0
 10
36.374492
 20
4.929214
 30
0.0
 10
36.188467
 20
5.272978
 30
0.0
 10
36.070903
 20
5.652856
 30
0.0
 10
36.029911
 20
6.060712
 30
0.0
 10
36.070903
 20
6.468569
 30
0.0
 10
36.188467
 20
6.848447
 30
0.0
 10
36.374492
 20
7.192210
 30
0.0
 10
36.620864
 20
7.491720
 30
0.0
 10
36.919468
 20
7.738838
 30
0.0
 10
37.262194
 20
7.925426
 30
0.0
 10
37.640925
 20
8.043347
 30
0.0
 10
38.047549
 20
8.084463
 30
0.0
 10
38.454173
 20
8.043347
 30
0.0
 10
38.832904
 20
7.925426
 30
0.0
 10
39.175630
 20
7.738838
 30
0.0
 10
39.474234
 20
7.491720
 30
0.0
 10
39.720606
 20
7.192210
 30
0.0
 10
39.906631
 20
6.848447
 30
0.0
 10
40.024195
 20
6.468569
 30
0.0
 10
40.065187
 20
6.060712
 30
0.0
 10
40.024195
 20
5.652856
 30
0.0
 10
39.906631
 20
5.272978
 30
0.0
 10
39.720606
 20
4.929214
 30
0.0
 10
39.474234
 20
4.629705
 30
0.0
 10
39.175630
 20
4.382587
 30
0.0
 10
38.832904
 20
4.195999
 30
0.0
 10
38.454173
 20
4.078078
 30
0.0
 10
38.047549
 20
4.036962
 30
0.0
  0
LWPOLYLINE
  5
108
100
AcDbEntity
  8
Layer_1
 62
1
100
AcDbPolyline
 90
33
 70
0
 10
20.023750
 20
21.000000
 30
0.0
 10
19.982635
 20
20.593376
 30
0.0
 10
19.864714
 20
20.214645
 30
0.0
 10
19.678126
 20
19.871919
 30
0.0
 10
19.431007
 20
19.573315
 30
0.0
 10
19.131498
 20
19.326943
 30
0.0
 10
18.787735
 20
19.140918
 30
0.0
 10
18.407856
 20
19.023354
 30
0.0
 10
18.000000
 20
18.982363
 30
0.0
 10
17.592144
 20
19.023354
 30
0.0
 10
17.212265
 20
19.140918
 30
0.0
 10
16.868502
 20
19.326943
 30
0.0
 10
16.568993
 20
19.573315
 30
0.0
 10
16.321875
 20
19.871919
 30
0.0
 10
16.135286
 20
20.214645
 30
0.0
 10
16.017365
 20
20.593376
 30
0.0
 10
15.976250
 20
21.000000
 30
0.0
 10
16.017365
 20
21.406624
 30
0.0
 10
16.135286
 20
21.785356
 30
0.0
 10
16.321875
 20
22.128081
 30
0.0
 10
16.568993
 20
22.426685
 30
0.0
 10
16.868502
 20
22.673058
 30
0.0
 10
17.212265
 20
22.859082
 30
0.0
 10
17.592144
 20
22.976646
 30
0.0
 10
18.000000
 20
23.017638
 30
0.0
 10
18.407856
 20
22.976646
 30
0.0
 10
18.787735
 20
22.859082
 30
0.0
 10
19.131498
 20
22.673058
 30
0.0
 10
19.431007
 20
22.426685
 30
0.0
 10
19.678126
 20
22.128081
 30
0.0
 10
19.864714
 20
21.785356
 30
0.0
 10
19.982635
 20
21.406624
 30
0.0
 10
20.023750
 20
21.000000
 30
0.0
  0
LWPOLYLINE
  5
109
100
AcDbEntity
  8
Layer_1
 62
1
100
AcDbPolyline
 90
33
 70
0
 10
50.023752
 20
21.000000
 30
0.0
 10
49.982636
 20
20.593376
 30
0.0
 10
49.864715
 20
20.214645
 30
0.0
 10
49.678127
 20
19.871919
 30
0.0
 10
49.431009
 20
19.573315
 30
0.0
 10
49.131499
 20
19.326943
 30
0.0
 10
48.787736
 20
19.140918
 30
0.0
 10
48.407858
 20
19.023354
 30
0.0
 10
48.000001
 20
18.982363
 30
0.0
 10
47.592145
 20
19.023354
 30
0.0
 10
47.212266
 20
19.140918
 30
0.0
 10
46.868503
 20
19.326943
 30
0.0
 10
46.568994
 20
19.573315
 30
0.0
 10
46.321876
 20
19.871919
 30
0.0
 10
46.135287
 20
20.214645
 30
0.0
 10
46.017366
 20
20.593376
 30
0.0
 10
45.976251
 20
21.000000
 30
0.0
 10
46.017366
 20
21.406624
 30
0.0
 10
46.135287
 20
21.785356
 30
0.0
 10
46.321876
 20
22.128081
 30
0.0
 10
46.568994
 20
22.426685
 30
0.0
 10
46.868503
 20
22.673058
 30
0.0
 10
47.212266
 20
22.859082
 30
0.0
 10
47.592145
 20
22.976646
 30
0.0
 10
48.000001
 20
23.017638
 30
0.0
 10
48.407858
 20
22.976646
 30
0.0
 10
48.787736
 20
22.859082
 30
0.0
 10
49.131499
 20
22.673058
 30
0.0
 10
49.431009
 20
22.426685
 30
0.0
 10
49.678127
 20
22.128081
 30
0.0
 10
49.864715
 20
21.785356
 30
0.0
 10
49.982636
 20
21.406624
 30
0.0
 10
50.023752
 20
21.000000
 30
0.0
  0
LWPOLYLINE
  5
10a
100
AcDbEntity
  8
Layer_1
 62
1
100
AcDbPolyline
 90
33
 70
0
 10
48.038216
 20
4.016388
 30
0.0
 10
47.631592
 20
4.057504
 30
0.0
 10
47.252860
 20
4.175425
 30
0.0
 10
46.910135
 20
4.362013
 30
0.0
 10
46.611531
 20
4.609131
 30
0.0
 10
46.365158
 20
4.908640
 30
0.0
 10
46.179134
 20
5.252404
 30
0.0
 10
46.061570
 20
5.632282
 30
0.0
 10
46.020578
 20
6.040138
 30
0.0
 10
46.061570
 20
6.447995
 30
0.0
 10
46.179134
 20
6.827873
 30
0.0
 10
46.365158
 20
7.171636
 30
0.0
 10
46.611531
 20
7.471146
 30
0.0
 10
46.910135
 20
7.718264
 30
0.0
 10
47.252860
 20
7.904852
 30
0.0
 10
47.631592
 20
8.022773
 30
0.0
 10
48.038216
 20
8.063889
 30
0.0
 10
48.444840
 20
8.022773
 30
0.0
 10
48.823571
 20
7.904852
 30
0.0
 10
49.166296
 20
7.718264
 30
0.0
 10
49.464901
 20
7.471146
 30
0.0
 10
49.711273
 20
7.171636
 30
0.0
 10
49.897298
 20
6.827873
 30
0.0
 10
50.014862
 20
6.447995
 30
0.0
 10
50.055853
 20
6.040138
 30
0.0
 10
50.014862
 20
5.632282
 30
0.0
 10
49.897298
 20
5.252404
 30
0.0
 10
49.711273
 20
4.908640
 30
0.0
 10
49.464901
 20
4.609131
 30
0.0
 10
49.166296
 20
4.362013
 30
0.0
 10
48.823571
 20
4.175425
 30
0.0
 10
48.444840
 20
4.057504
 30
0.0
 10
48.038216
 20
4.016388
 30
0.0
  0
ENDSEC
  0
SECTION
  2
OBJECTS
  0
DICTIONARY
  5
C
330
0
100
AcDbDictionary
  3
ACAD_GROUP
350
D
  3
ACAD_MLINESTYLE
350
17
  0
DICTIONARY
  5
D
330
C
100
AcDbDictionary
  0
DICTIONARY
  5
1A
330
C
100
AcDbDictionary
  0
DICTIONARY
  5
17
330
C
100
AcDbDictionary
  3
STANDARD
350
18
  0
DICTIONARY
  5
19
330
C
100
AcDbDictionary
  0
ENDSEC
  0
EOF
