  0
SECTION
  2
HEADER
  9
$ACADVER
  1
AC1014
  9
$HANDSEED
  5
FFFF
  9
$MEASUREMENT
 70
     1
  0
ENDSEC
  0
SECTION
  2
TABLES
  0
TABLE
  2
VPORT
  5
8
330
0
100
AcDbSymbolTable
 70
     4
  0
VPORT
  5
2E
330
8
100
AcDbSymbolTableRecord
100
AcDbViewportTableRecord
  2
*ACTIVE
 70
     0
 10
0.0
 20
0.0
 11
1.0
 21
1.0
 12
210.0
 22
148.5
 13
0.0
 23
0.0
 14
10.0
 24
10.0
 15
10.0
 25
10.0
 16
0.0
 26
0.0
 36
1.0
 17
0.0
 27
0.0
 37
0.0
 40
341.0
 41
1.24
 42
50.0
 43
0.0
 44
0.0
 50
0.0
 51
0.0
 71
     0
 72
   100
 73
     1
 74
     3
 75
     0
 76
     0
 77
     0
 78
     0
  0
ENDTAB
  0
TABLE
  2
LTYPE
  5
5
330
0
100
AcDbSymbolTable
 70
     1
  0
LTYPE
  5
14
330
5
100
AcDbSymbolTableRecord
100
AcDbLinetypeTableRecord
  2
BYBLOCK
 70
     0
  3

 72
    65
 73
     0
 40
0.0
  0
LTYPE
  5
15
330
5
100
AcDbSymbolTableRecord
100
AcDbLinetypeTableRecord
  2
BYLAYER
 70
     0
  3

 72
    65
 73
     0
 40
0.0
  0
LTYPE
  5
16
330
5
100
AcDbSymbolTableRecord
100
AcDbLinetypeTableRecord
  2
CONTINUOUS
 70
     0
  3
Solid line
 72
    65
 73
     0
 40
0.0
  0
ENDTAB
  0
TABLE
  2
LAYER
  5
2
100
AcDbSymbolTable
 70
2
  0
LAYER
  5
50
100
AcDbSymbolTableRecord
100
AcDbLayerTableRecord
  2
0
 70
0
  6
CONTINUOUS
  0
LAYER
  5
51
100
AcDbSymbolTableRecord
100
AcDbLayerTableRecord
  2
Layer_1
 70
0
  6
CONTINUOUS
  0
ENDTAB
  0
TABLE
  2
STYLE
  5
3
330
0
100
AcDbSymbolTable
 70
     1
  0
STYLE
  5
11
330
3
100
AcDbSymbolTableRecord
100
AcDbTextStyleTableRecord
  2
STANDARD
 70
     0
 40
0.0
 41
1.0
 50
0.0
 71
     0
 42
2.5
  3
txt
  4

  0
ENDTAB
  0
TABLE
  2
VIEW
  5
6
330
0
100
AcDbSymbolTable
 70
     0
  0
ENDTAB
  0
TABLE
  2
UCS
  5
7
330
0
100
AcDbSymbolTable
 70
     0
  0
ENDTAB
  0
TABLE
  2
APPID
  5
9
330
0
100
AcDbSymbolTable
 70
     2
  0
APPID
  5
12
330
9
100
AcDbSymbolTableRecord
100
AcDbRegAppTableRecord
  2
ACAD
 70
     0
  0
ENDTAB
  0
TABLE
  2
DIMSTYLE
  5
A
330
0
100
AcDbSymbolTable
 70
     1
  0
DIMSTYLE
105
27
330
A
100
AcDbSymbolTableRecord
100
AcDbDimStyleTableRecord
  2
ISO-25
 70
     0
  3

  4

  5

  6

  7

 40
1.0
 41
2.5
 42
0.625
 43
3.75
 44
1.25
 45
0.0
 46
0.0
 47
0.0
 48
0.0
140
2.5
141
2.5
142
0.0
143
0.03937007874016
144
1.0
145
0.0
146
1.0
147
0.625
 71
     0
 72
     0
 73
     0
 74
     0
 75
     0
 76
     0
 77
     1
 78
     8
170
     0
171
     3
172
     1
173
     0
174
     0
175
     0
176
     0
177
     0
178
     0
270
     2
271
     2
272
     2
273
     2
274
     3
340
11
275
     0
280
     0
281
     0
282
     0
283
     0
284
     8
285
     0
286
     0
287
     3
288
     0
  0
ENDTAB
  0
TABLE
  2
BLOCK_RECORD
  5
1
330
0
100
AcDbSymbolTable
 70
     1
  0
BLOCK_RECORD
  5
1F
330
1
100
AcDbSymbolTableRecord
100
AcDbBlockTableRecord
  2
*MODEL_SPACE
  0
BLOCK_RECORD
  5
1B
330
1
100
AcDbSymbolTableRecord
100
AcDbBlockTableRecord
  2
*PAPER_SPACE
  0
ENDTAB
  0
ENDSEC
  0
SECTION
  2
BLOCKS
  0
BLOCK
  5
20
330
1F
100
AcDbEntity
  8
0
100
AcDbBlockBegin
  2
*MODEL_SPACE
 70
     0
 10
0.0
 20
0.0
 30
0.0
  3
*MODEL_SPACE
  1

  0
ENDBLK
  5
21
330
1F
100
AcDbEntity
  8
0
100
AcDbBlockEnd
  0
BLOCK
  5
1C
330
1B
100
AcDbEntity
 67
     1
  8
0
100
AcDbBlockBegin
  2
*PAPER_SPACE
  1

  0
ENDBLK
  5
1D
330
1B
100
AcDbEntity
 67
     1
  8
0
100
AcDbBlockEnd
  0
ENDSEC
  0
SECTION
  2
ENTITIES
  0
LWPOLYLINE
  5
100
100
AcDbEntity
  8
Layer_1
 62
1
100
AcDbPolyline
 90
33
 70
0
 10
21.641111
 20
8.141111
 30
0.0
 10
21.570003
 20
7.435739
 30
0.0
 10
21.366064
 20
6.778752
 30
0.0
 10
21.043367
 20
6.184226
 30
0.0
 10
20.615985
 20
5.666236
 30
0.0
 10
20.097995
 20
5.238856
 30
0.0
 10
19.503469
 20
4.916157
 30
0.0
 10
18.846484
 20
4.712218
 30
0.0
 10
18.141112
 20
4.641110
 30
0.0
 10
17.435740
 20
4.712218
 30
0.0
 10
16.778753
 20
4.916157
 30
0.0
 10
16.184228
 20
5.238856
 30
0.0
 10
15.666237
 20
5.666236
 30
0.0
 10
15.238857
 20
6.184226
 30
0.0
 10
14.916158
 20
6.778752
 30
0.0
 10
14.712219
 20
7.435739
 30
0.0
 10
14.641111
 20
8.141111
 30
0.0
 10
14.712219
 20
8.846483
 30
0.0
 10
14.916158
 20
9.503468
 30
0.0
 10
15.238857
 20
10.097993
 30
0.0
 10
15.666237
 20
10.615984
 30
0.0
 10
16.184228
 20
11.043366
 30
0.0
 10
16.778753
 20
11.366063
 30
0.0
 10
17.435740
 20
11.570001
 30
0.0
 10
18.141112
 20
11.641110
 30
0.0
 10
18.846484
 20
11.570001
 30
0.0
 10
19.503469
 20
11.366063
 30
0.0
 10
20.097995
 20
11.043366
 30
0.0
 10
20.615985
 20
10.615984
 30
0.0
 10
21.043367
 20
10.097993
 30
0.0
 10
21.366064
 20
9.503468
 30
0.0
 10
21.570003
 20
8.846483
 30
0.0
 10
21.641111
 20
8.141111
 30
0.0
  0
LWPOLYLINE
  5
101
100
AcDbEntity
  8
Layer_1
 62
1
100
AcDbPolyline
 90
33
 70
0
 10
23.641111
 20
8.141113
 30
0.0
 10
23.630953
 20
8.040345
 30
0.0
 10
23.601819
 20
7.946490
 30
0.0
 10
23.555719
 20
7.861558
 30
0.0
 10
23.494665
 20
7.787559
 30
0.0
 10
23.420666
 20
7.726505
 30
0.0
 10
23.335734
 20
7.680405
 30
0.0
 10
23.241879
 20
7.651271
 30
0.0
 10
23.141111
 20
7.641112
 30
0.0
 10
23.040344
 20
7.651271
 30
0.0
 10
22.946489
 20
7.680405
 30
0.0
 10
22.861556
 20
7.726505
 30
0.0
 10
22.787558
 20
7.787559
 30
0.0
 10
22.726504
 20
7.861558
 30
0.0
 10
22.680404
 20
7.946490
 30
0.0
 10
22.651270
 20
8.040345
 30
0.0
 10
22.641111
 20
8.141113
 30
0.0
 10
22.651270
 20
8.241880
 30
0.0
 10
22.680404
 20
8.335735
 30
0.0
 10
22.726504
 20
8.420667
 30
0.0
 10
22.787558
 20
8.494666
 30
0.0
 10
22.861556
 20
8.555720
 30
0.0
 10
22.946489
 20
8.601820
 30
0.0
 10
23.040344
 20
8.630954
 30
0.0
 10
23.141111
 20
8.641112
 30
0.0
 10
23.241879
 20
8.630954
 30
0.0
 10
23.335734
 20
8.601820
 30
0.0
 10
23.420666
 20
8.555720
 30
0.0
 10
23.494665
 20
8.494666
 30
0.0
 10
23.555719
 20
8.420667
 30
0.0
 10
23.601819
 20
8.335735
 30
0.0
 10
23.630953
 20
8.241880
 30
0.0
 10
23.641111
 20
8.141113
 30
0.0
  0
LWPOLYLINE
  5
102
100
AcDbEntity
  8
Layer_1
 62
1
100
AcDbPolyline
 90
33
 70
0
 10
25.641111
 20
8.141113
 30
0.0
 10
25.630953
 20
8.040345
 30
0.0
 10
25.601819
 20
7.946490
 30
0.0
 10
25.555719
 20
7.861558
 30
0.0
 10
25.494665
 20
7.787559
 30
0.0
 10
25.420666
 20
7.726505
 30
0.0
 10
25.335734
 20
7.680405
 30
0.0
 10
25.241879
 20
7.651271
 30
0.0
 10
25.141111
 20
7.641112
 30
0.0
 10
25.040344
 20
7.651271
 30
0.0
 10
24.946489
 20
7.680405
 30
0.0
 10
24.861556
 20
7.726505
 30
0.0
 10
24.787558
 20
7.787559
 30
0.0
 10
24.726503
 20
7.861558
 30
0.0
 10
24.680404
 20
7.946490
 30
0.0
 10
24.651270
 20
8.040345
 30
0.0
 10
24.641111
 20
8.141113
 30
0.0
 10
24.651270
 20
8.241880
 30
0.0
 10
24.680404
 20
8.335735
 30
0.0
 10
24.726503
 20
8.420667
 30
0.0
 10
24.787558
 20
8.494666
 30
0.0
 10
24.861556
 20
8.555720
 30
0.0
 10
24.946489
 20
8.601820
 30
0.0
 10
25.040344
 20
8.630954
 30
0.0
 10
25.141111
 20
8.641112
 30
0.0
 10
25.241879
 20
8.630954
 30
0.0
 10
25.335734
 20
8.601820
 30
0.0
 10
25.420666
 20
8.555720
 30
0.0
 10
25.494665
 20
8.494666
 30
0.0
 10
25.555719
 20
8.420667
 30
0.0
 10
25.601819
 20
8.335735
 30
0.0
 10
25.630953
 20
8.241880
 30
0.0
 10
25.641111
 20
8.141113
 30
0.0
  0
LWPOLYLINE
  5
103
100
AcDbEntity
  8
Layer_1
 62
1
100
AcDbPolyline
 90
33
 70
0
 10
27.641111
 20
8.141113
 30
0.0
 10
27.630953
 20
8.040345
 30
0.0
 10
27.601819
 20
7.946490
 30
0.0
 10
27.555719
 20
7.861558
 30
0.0
 10
27.494665
 20
7.787559
 30
0.0
 10
27.420666
 20
7.726505
 30
0.0
 10
27.335734
 20
7.680405
 30
0.0
 10
27.241879
 20
7.651271
 30
0.0
 10
27.141111
 20
7.641112
 30
0.0
 10
27.040344
 20
7.651271
 30
0.0
 10
26.946489
 20
7.680405
 30
0.0
 10
26.861556
 20
7.726505
 30
0.0
 10
26.787558
 20
7.787559
 30
0.0
 10
26.726503
 20
7.861558
 30
0.0
 10
26.680404
 20
7.946490
 30
0.0
 10
26.651269
 20
8.040345
 30
0.0
 10
26.641111
 20
8.141113
 30
0.0
 10
26.651269
 20
8.241880
 30
0.0
 10
26.680404
 20
8.335735
 30
0.0
 10
26.726503
 20
8.420667
 30
0.0
 10
26.787558
 20
8.494666
 30
0.0
 10
26.861556
 20
8.555720
 30
0.0
 10
26.946489
 20
8.601820
 30
0.0
 10
27.040344
 20
8.630954
 30
0.0
 10
27.141111
 20
8.641112
 30
0.0
 10
27.241879
 20
8.630954
 30
0.0
 10
27.335734
 20
8.601820
 30
0.0
 10
27.420666
 20
8.555720
 30
0.0
 10
27.494665
 20
8.494666
 30
0.0
 10
27.555719
 20
8.420667
 30
0.0
 10
27.601819
 20
8.335735
 30
0.0
 10
27.630953
 20
8.241880
 30
0.0
 10
27.641111
 20
8.141113
 30
0.0
  0
LWPOLYLINE
  5
104
100
AcDbEntity
  8
Layer_1
 62
1
100
AcDbPolyline
 90
33
 70
0
 10
29.641111
 20
8.141113
 30
0.0
 10
29.630953
 20
8.040345
 30
0.0
 10
29.601819
 20
7.946490
 30
0.0
 10
29.555719
 20
7.861558
 30
0.0
 10
29.494665
 20
7.787559
 30
0.0
 10
29.420666
 20
7.726505
 30
0.0
 10
29.335734
 20
7.680405
 30
0.0
 10
29.241879
 20
7.651271
 30
0.0
 10
29.141111
 20
7.641112
 30
0.0
 10
29.040344
 20
7.651271
 30
0.0
 10
28.946489
 20
7.680405
 30
0.0
 10
28.861556
 20
7.726505
 30
0.0
 10
28.787558
 20
7.787559
 30
0.0
 10
28.726503
 20
7.861558
 30
0.0
 10
28.680404
 20
7.946490
 30
0.0
 10
28.651269
 20
8.040345
 30
0.0
 10
28.641111
 20
8.141113
 30
0.0
 10
28.651269
 20
8.241880
 30
0.0
 10
28.680404
 20
8.335735
 30
0.0
 10
28.726503
 20
8.420667
 30
0.0
 10
28.787558
 20
8.494666
 30
0.0
 10
28.861556
 20
8.555720
 30
0.0
 10
28.946489
 20
8.601820
 30
0.0
 10
29.040344
 20
8.630954
 30
0.0
 10
29.141111
 20
8.641112
 30
0.0
 10
29.241879
 20
8.630954
 30
0.0
 10
29.335734
 20
8.601820
 30
0.0
 10
29.420666
 20
8.555720
 30
0.0
 10
29.494665
 20
8.494666
 30
0.0
 10
29.555719
 20
8.420667
 30
0.0
 10
29.601819
 20
8.335735
 30
0.0
 10
29.630953
 20
8.241880
 30
0.0
 10
29.641111
 20
8.141113
 30
0.0
  0
LWPOLYLINE
  5
105
100
AcDbEntity
  8
Layer_1
 62
1
100
AcDbPolyline
 90
33
 70
0
 10
31.641111
 20
8.141113
 30
0.0
 10
31.630953
 20
8.040345
 30
0.0
 10
31.601819
 20
7.946490
 30
0.0
 10
31.555719
 20
7.861558
 30
0.0
 10
31.494665
 20
7.787559
 30
0.0
 10
31.420666
 20
7.726505
 30
0.0
 10
31.335734
 20
7.680405
 30
0.0
 10
31.241879
 20
7.651271
 30
0.0
 10
31.141111
 20
7.641112
 30
0.0
 10
31.040344
 20
7.651271
 30
0.0
 10
30.946489
 20
7.680405
 30
0.0
 10
30.861557
 20
7.726505
 30
0.0
 10
30.787558
 20
7.787559
 30
0.0
 10
30.726504
 20
7.861558
 30
0.0
 10
30.680404
 20
7.946490
 30
0.0
 10
30.651270
 20
8.040345
 30
0.0
 10
30.641111
 20
8.141113
 30
0.0
 10
30.651270
 20
8.241880
 30
0.0
 10
30.680404
 20
8.335735
 30
0.0
 10
30.726504
 20
8.420667
 30
0.0
 10
30.787558
 20
8.494666
 30
0.0
 10
30.861557
 20
8.555720
 30
0.0
 10
30.946489
 20
8.601820
 30
0.0
 10
31.040344
 20
8.630954
 30
0.0
 10
31.141111
 20
8.641112
 30
0.0
 10
31.241879
 20
8.630954
 30
0.0
 10
31.335734
 20
8.601820
 30
0.0
 10
31.420666
 20
8.555720
 30
0.0
 10
31.494665
 20
8.494666
 30
0.0
 10
31.555719
 20
8.420667
 30
0.0
 10
31.601819
 20
8.335735
 30
0.0
 10
31.630953
 20
8.241880
 30
0.0
 10
31.641111
 20
8.141113
 30
0.0
  0
LWPOLYLINE
  5
106
100
AcDbEntity
  8
Layer_1
 62
1
100
AcDbPolyline
 90
33
 70
0
 10
33.641111
 20
8.141113
 30
0.0
 10
33.630953
 20
8.040345
 30
0.0
 10
33.601819
 20
7.946490
 30
0.0
 10
33.555719
 20
7.861558
 30
0.0
 10
33.494665
 20
7.787559
 30
0.0
 10
33.420666
 20
7.726505
 30
0.0
 10
33.335734
 20
7.680405
 30
0.0
 10
33.241879
 20
7.651271
 30
0.0
 10
33.141111
 20
7.641112
 30
0.0
 10
33.040344
 20
7.651271
 30
0.0
 10
32.946489
 20
7.680405
 30
0.0
 10
32.861556
 20
7.726505
 30
0.0
 10
32.787558
 20
7.787559
 30
0.0
 10
32.726504
 20
7.861558
 30
0.0
 10
32.680404
 20
7.946490
 30
0.0
 10
32.651270
 20
8.040345
 30
0.0
 10
32.641111
 20
8.141113
 30
0.0
 10
32.651270
 20
8.241880
 30
0.0
 10
32.680404
 20
8.335735
 30
0.0
 10
32.726504
 20
8.420667
 30
0.0
 10
32.787558
 20
8.494666
 30
0.0
 10
32.861556
 20
8.555720
 30
0.0
 10
32.946489
 20
8.601820
 30
0.0
 10
33.040344
 20
8.630954
 30
0.0
 10
33.141111
 20
8.641112
 30
0.0
 10
33.241879
 20
8.630954
 30
0.0
 10
33.335734
 20
8.601820
 30
0.0
 10
33.420666
 20
8.555720
 30
0.0
 10
33.494665
 20
8.494666
 30
0.0
 10
33.555719
 20
8.420667
 30
0.0
 10
33.601819
 20
8.335735
 30
0.0
 10
33.630953
 20
8.241880
 30
0.0
 10
33.641111
 20
8.141113
 30
0.0
  0
LWPOLYLINE
  5
107
100
AcDbEntity
  8
Layer_1
 62
1
100
AcDbPolyline
 90
33
 70
0
 10
15.164862
 20
3.141111
 30
0.0
 10
15.123746
 20
2.734487
 30
0.0
 10
15.005825
 20
2.355756
 30
0.0
 10
14.819237
 20
2.013030
 30
0.0
 10
14.572119
 20
1.714426
 30
0.0
 10
14.272609
 20
1.468053
 30
0.0
 10
13.928846
 20
1.282029
 30
0.0
 10
13.548968
 20
1.164465
 30
0.0
 10
13.141111
 20
1.123473
 30
0.0
 10
12.733255
 20
1.164465
 30
0.0
 10
12.353376
 20
1.282029
 30
0.0
 10
12.009613
 20
1.468053
 30
0.0
 10
11.710104
 20
1.714426
 30
0.0
 10
11.462986
 20
2.013030
 30
0.0
 10
11.276397
 20
2.355756
 30
0.0
 10
11.158476
 20
2.734487
 30
0.0
 10
11.117361
 20
3.141111
 30
0.0
 10
11.158476
 20
3.547735
 30
0.0
 10
11.276397
 20
3.926466
 30
0.0
 10
11.462986
 20
4.269192
 30
0.0
 10
11.710104
 20
4.567796
 30
0.0
 10
12.009613
 20
4.814168
 30
0.0
 10
12.353376
 20
5.000193
 30
0.0
 10
12.733255
 20
5.117757
 30
0.0
 10
13.141111
 20
5.158749
 30
0.0
 10
13.548968
 20
5.117757
 30
0.0
 10
13.928846
 20
5.000193
 30
0.0
 10
14.272609
 20
4.814168
 30
0.0
 10
14.572119
 20
4.567796
 30
0.0
 10
14.819237
 20
4.269192
 30
0.0
 10
15.005825
 20
3.926466
 30
0.0
 10
15.123746
 20
3.547735
 30
0.0
 10
15.164862
 20
3.141111
 30
0.0
  0
LWPOLYLINE
  5
108
100
AcDbEntity
  8
Layer_1
 62
1
100
AcDbPolyline
 90
33
 70
0
 10
15.164862
 20
13.141110
 30
0.0
 10
15.123746
 20
12.734487
 30
0.0
 10
15.005825
 20
12.355755
 30
0.0
 10
14.819237
 20
12.013030
 30
0.0
 10
14.572119
 20
11.714425
 30
0.0
 10
14.272609
 20
11.468053
 30
0.0
 10
13.928846
 20
11.282028
 30
0.0
 10
13.548968
 20
11.164464
 30
0.0
 10
13.141111
 20
11.123473
 30
0.0
 10
12.733255
 20
11.164464
 30
0.0
 10
12.353376
 20
11.282028
 30
0.0
 10
12.009613
 20
11.468053
 30
0.0
 10
11.710104
 20
11.714425
 30
0.0
 10
11.462986
 20
12.013030
 30
0.0
 10
11.276397
 20
12.355755
 30
0.0
 10
11.158476
 20
12.734487
 30
0.0
 10
11.117361
 20
13.141110
 30
0.0
 10
11.158476
 20
13.547734
 30
0.0
 10
11.276397
 20
13.926466
 30
0.0
 10
11.462986
 20
14.269191
 30
0.0
 10
11.710104
 20
14.567795
 30
0.0
 10
12.009613
 20
14.814168
 30
0.0
 10
12.353376
 20
15.000193
 30
0.0
 10
12.733255
 20
15.117757
 30
0.0
 10
13.141111
 20
15.158748
 30
0.0
 10
13.548968
 20
15.117757
 30
0.0
 10
13.928846
 20
15.000193
 30
0.0
 10
14.272609
 20
14.814168
 30
0.0
 10
14.572119
 20
14.567795
 30
0.0
 10
14.819237
 20
14.269191
 30
0.0
 10
15.005825
 20
13.926466
 30
0.0
 10
15.123746
 20
13.547734
 30
0.0
 10
15.164862
 20
13.141110
 30
0.0
  0
LWPOLYLINE
  5
109
100
AcDbEntity
  8
Layer_1
 62
1
100
AcDbPolyline
 90
33
 70
0
 10
25.164861
 20
3.141111
 30
0.0
 10
25.123746
 20
2.734487
 30
0.0
 10
25.005825
 20
2.355756
 30
0.0
 10
24.819237
 20
2.013030
 30
0.0
 10
24.572118
 20
1.714426
 30
0.0
 10
24.272609
 20
1.468053
 30
0.0
 10
23.928846
 20
1.282029
 30
0.0
 10
23.548967
 20
1.164465
 30
0.0
 10
23.141111
 20
1.123473
 30
0.0
 10
22.733255
 20
1.164465
 30
0.0
 10
22.353376
 20
1.282029
 30
0.0
 10
22.009613
 20
1.468053
 30
0.0
 10
21.710104
 20
1.714426
 30
0.0
 10
21.462986
 20
2.013030
 30
0.0
 10
21.276397
 20
2.355756
 30
0.0
 10
21.158476
 20
2.734487
 30
0.0
 10
21.117361
 20
3.141111
 30
0.0
 10
21.158476
 20
3.547735
 30
0.0
 10
21.276397
 20
3.926466
 30
0.0
 10
21.462986
 20
4.269192
 30
0.0
 10
21.710104
 20
4.567796
 30
0.0
 10
22.009613
 20
4.814168
 30
0.0
 10
22.353376
 20
5.000193
 30
0.0
 10
22.733255
 20
5.117757
 30
0.0
 10
23.141111
 20
5.158749
 30
0.0
 10
23.548967
 20
5.117757
 30
0.0
 10
23.928846
 20
5.000193
 30
0.0
 10
24.272609
 20
4.814168
 30
0.0
 10
24.572118
 20
4.567796
 30
0.0
 10
24.819237
 20
4.269192
 30
0.0
 10
25.005825
 20
3.926466
 30
0.0
 10
25.123746
 20
3.547735
 30
0.0
 10
25.164861
 20
3.141111
 30
0.0
  0
LWPOLYLINE
  5
10a
100
AcDbEntity
  8
Layer_1
 62
1
100
AcDbPolyline
 90
33
 70
0
 10
25.164861
 20
13.141110
 30
0.0
 10
25.123746
 20
12.734487
 30
0.0
 10
25.005825
 20
12.355755
 30
0.0
 10
24.819237
 20
12.013030
 30
0.0
 10
24.572118
 20
11.714425
 30
0.0
 10
24.272609
 20
11.468053
 30
0.0
 10
23.928846
 20
11.282028
 30
0.0
 10
23.548967
 20
11.164464
 30
0.0
 10
23.141111
 20
11.123473
 30
0.0
 10
22.733255
 20
11.164464
 30
0.0
 10
22.353376
 20
11.282028
 30
0.0
 10
22.009613
 20
11.468053
 30
0.0
 10
21.710104
 20
11.714425
 30
0.0
 10
21.462986
 20
12.013030
 30
0.0
 10
21.276397
 20
12.355755
 30
0.0
 10
21.158476
 20
12.734487
 30
0.0
 10
21.117361
 20
13.141110
 30
0.0
 10
21.158476
 20
13.547734
 30
0.0
 10
21.276397
 20
13.926466
 30
0.0
 10
21.462986
 20
14.269191
 30
0.0
 10
21.710104
 20
14.567795
 30
0.0
 10
22.009613
 20
14.814168
 30
0.0
 10
22.353376
 20
15.000193
 30
0.0
 10
22.733255
 20
15.117757
 30
0.0
 10
23.141111
 20
15.158748
 30
0.0
 10
23.548967
 20
15.117757
 30
0.0
 10
23.928846
 20
15.000193
 30
0.0
 10
24.272609
 20
14.814168
 30
0.0
 10
24.572118
 20
14.567795
 30
0.0
 10
24.819237
 20
14.269191
 30
0.0
 10
25.005825
 20
13.926466
 30
0.0
 10
25.123746
 20
13.547734
 30
0.0
 10
25.164861
 20
13.141110
 30
0.0
  0
LWPOLYLINE
  5
10b
100
AcDbEntity
  8
Layer_1
 62
1
100
AcDbPolyline
 90
33
 70
0
 10
35.164862
 20
3.141111
 30
0.0
 10
35.123746
 20
2.734487
 30
0.0
 10
35.005825
 20
2.355756
 30
0.0
 10
34.819237
 20
2.013030
 30
0.0
 10
34.572119
 20
1.714426
 30
0.0
 10
34.272609
 20
1.468053
 30
0.0
 10
33.928846
 20
1.282029
 30
0.0
 10
33.548968
 20
1.164465
 30
0.0
 10
33.141111
 20
1.123473
 30
0.0
 10
32.733255
 20
1.164465
 30
0.0
 10
32.353376
 20
1.282029
 30
0.0
 10
32.009613
 20
1.468053
 30
0.0
 10
31.710104
 20
1.714426
 30
0.0
 10
31.462986
 20
2.013030
 30
0.0
 10
31.276397
 20
2.355756
 30
0.0
 10
31.158477
 20
2.734487
 30
0.0
 10
31.117361
 20
3.141111
 30
0.0
 10
31.158477
 20
3.547735
 30
0.0
 10
31.276397
 20
3.926466
 30
0.0
 10
31.462986
 20
4.269192
 30
0.0
 10
31.710104
 20
4.567796
 30
0.0
 10
32.009613
 20
4.814168
 30
0.0
 10
32.353377
 20
5.000193
 30
0.0
 10
32.733255
 20
5.117757
 30
0.0
 10
33.141111
 20
5.158749
 30
0.0
 10
33.548968
 20
5.117757
 30
0.0
 10
33.928846
 20
5.000193
 30
0.0
 10
34.272609
 20
4.814168
 30
0.0
 10
34.572119
 20
4.567796
 30
0.0
 10
34.819237
 20
4.269192
 30
0.0
 10
35.005825
 20
3.926466
 30
0.0
 10
35.123746
 20
3.547735
 30
0.0
 10
35.164862
 20
3.141111
 30
0.0
  0
LWPOLYLINE
  5
10c
100
AcDbEntity
  8
Layer_1
 62
1
100
AcDbPolyline
 90
33
 70
0
 10
35.164862
 20
13.141110
 30
0.0
 10
35.123746
 20
12.734487
 30
0.0
 10
35.005825
 20
12.355755
 30
0.0
 10
34.819237
 20
12.013030
 30
0.0
 10
34.572119
 20
11.714425
 30
0.0
 10
34.272609
 20
11.468053
 30
0.0
 10
33.928846
 20
11.282028
 30
0.0
 10
33.548968
 20
11.164464
 30
0.0
 10
33.141111
 20
11.123473
 30
0.0
 10
32.733255
 20
11.164464
 30
0.0
 10
32.353376
 20
11.282028
 30
0.0
 10
32.009613
 20
11.468053
 30
0.0
 10
31.710104
 20
11.714425
 30
0.0
 10
31.462986
 20
12.013030
 30
0.0
 10
31.276397
 20
12.355755
 30
0.0
 10
31.158477
 20
12.734487
 30
0.0
 10
31.117361
 20
13.141110
 30
0.0
 10
31.158477
 20
13.547734
 30
0.0
 10
31.276397
 20
13.926466
 30
0.0
 10
31.462986
 20
14.269191
 30
0.0
 10
31.710104
 20
14.567795
 30
0.0
 10
32.009613
 20
14.814168
 30
0.0
 10
32.353377
 20
15.000193
 30
0.0
 10
32.733255
 20
15.117757
 30
0.0
 10
33.141111
 20
15.158748
 30
0.0
 10
33.548968
 20
15.117757
 30
0.0
 10
33.928846
 20
15.000193
 30
0.0
 10
34.272609
 20
14.814168
 30
0.0
 10
34.572119
 20
14.567795
 30
0.0
 10
34.819237
 20
14.269191
 30
0.0
 10
35.005825
 20
13.926466
 30
0.0
 10
35.123746
 20
13.547734
 30
0.0
 10
35.164862
 20
13.141110
 30
0.0
  0
LWPOLYLINE
  5
10d
100
AcDbEntity
  8
Layer_1
 62
1
100
AcDbPolyline
 90
33
 70
0
 10
5.164862
 20
3.141111
 30
0.0
 10
5.123747
 20
2.734487
 30
0.0
 10
5.005826
 20
2.355756
 30
0.0
 10
4.819238
 20
2.013030
 30
0.0
 10
4.572120
 20
1.714426
 30
0.0
 10
4.272610
 20
1.468053
 30
0.0
 10
3.928847
 20
1.282029
 30
0.0
 10
3.548968
 20
1.164465
 30
0.0
 10
3.141112
 20
1.123473
 30
0.0
 10
2.733256
 20
1.164465
 30
0.0
 10
2.353377
 20
1.282029
 30
0.0
 10
2.009614
 20
1.468053
 30
0.0
 10
1.710105
 20
1.714426
 30
0.0
 10
1.462987
 20
2.013030
 30
0.0
 10
1.276398
 20
2.355756
 30
0.0
 10
1.158477
 20
2.734487
 30
0.0
 10
1.117362
 20
3.141111
 30
0.0
 10
1.158477
 20
3.547735
 30
0.0
 10
1.276398
 20
3.926466
 30
0.0
 10
1.462987
 20
4.269192
 30
0.0
 10
1.710105
 20
4.567796
 30
0.0
 10
2.009614
 20
4.814168
 30
0.0
 10
2.353377
 20
5.000193
 30
0.0
 10
2.733256
 20
5.117757
 30
0.0
 10
3.141112
 20
5.158749
 30
0.0
 10
3.548968
 20
5.117757
 30
0.0
 10
3.928847
 20
5.000193
 30
0.0
 10
4.272610
 20
4.814168
 30
0.0
 10
4.572120
 20
4.567796
 30
0.0
 10
4.819238
 20
4.269192
 30
0.0
 10
5.005826
 20
3.926466
 30
0.0
 10
5.123747
 20
3.547735
 30
0.0
 10
5.164862
 20
3.141111
 30
0.0
  0
LWPOLYLINE
  5
10e
100
AcDbEntity
  8
Layer_1
 62
1
100
AcDbPolyline
 90
33
 70
0
 10
5.164862
 20
13.141110
 30
0.0
 10
5.123747
 20
12.734487
 30
0.0
 10
5.005826
 20
12.355755
 30
0.0
 10
4.819238
 20
12.013030
 30
0.0
 10
4.572120
 20
11.714425
 30
0.0
 10
4.272610
 20
11.468053
 30
0.0
 10
3.928847
 20
11.282028
 30
0.0
 10
3.548968
 20
11.164464
 30
0.0
 10
3.141112
 20
11.123473
 30
0.0
 10
2.733256
 20
11.164464
 30
0.0
 10
2.353377
 20
11.282028
 30
0.0
 10
2.009614
 20
11.468053
 30
0.0
 10
1.710105
 20
11.714425
 30
0.0
 10
1.462987
 20
12.013030
 30
0.0
 10
1.276398
 20
12.355755
 30
0.0
 10
1.158477
 20
12.734487
 30
0.0
 10
1.117362
 20
13.141110
 30
0.0
 10
1.158477
 20
13.547734
 30
0.0
 10
1.276398
 20
13.926466
 30
0.0
 10
1.462987
 20
14.269191
 30
0.0
 10
1.710105
 20
14.567795
 30
0.0
 10
2.009614
 20
14.814168
 30
0.0
 10
2.353377
 20
15.000193
 30
0.0
 10
2.733256
 20
15.117757
 30
0.0
 10
3.141112
 20
15.158748
 30
0.0
 10
3.548968
 20
15.117757
 30
0.0
 10
3.928847
 20
15.000193
 30
0.0
 10
4.272610
 20
14.814168
 30
0.0
 10
4.572120
 20
14.567795
 30
0.0
 10
4.819238
 20
14.269191
 30
0.0
 10
5.005826
 20
13.926466
 30
0.0
 10
5.123747
 20
13.547734
 30
0.0
 10
5.164862
 20
13.141110
 30
0.0
  0
LWPOLYLINE
  5
10f
100
AcDbEntity
  8
Layer_1
 62
7
100
AcDbPolyline
 90
21
 70
0
 10
34.641111
 20
0.141111
 30
0.0
 10
1.641111
 20
0.141111
 30
0.0
 10
1.001976
 20
0.322411
 30
0.0
 10
0.557941
 20
0.646786
 30
0.0
 10
0.280491
 20
1.093323
 30
0.0
 10
0.141111
 20
1.641111
 30
0.0
 10
0.141111
 20
14.641110
 30
0.0
 10
0.250152
 20
15.304508
 30
0.0
 10
0.627773
 20
15.781731
 30
0.0
 10
1.137064
 20
16.063643
 30
0.0
 10
1.641111
 20
16.141110
 30
0.0
 10
34.641111
 20
16.141110
 30
0.0
 10
35.346012
 20
16.061284
 30
0.0
 10
35.813696
 20
15.769212
 30
0.0
 10
36.070088
 20
15.288088
 30
0.0
 10
36.141111
 20
14.641110
 30
0.0
 10
36.141111
 20
1.641111
 30
0.0
 10
36.039606
 20
0.937980
 30
0.0
 10
35.722269
 20
0.493703
 30
0.0
 10
35.239354
 20
0.248130
 30
0.0
 10
34.641111
 20
0.141111
 30
0.0
  0
ENDSEC
  0
SECTION
  2
OBJECTS
  0
DICTIONARY
  5
C
330
0
100
AcDbDictionary
  3
ACAD_GROUP
350
D
  3
ACAD_MLINESTYLE
350
17
  0
DICTIONARY
  5
D
330
C
100
AcDbDictionary
  0
DICTIONARY
  5
1A
330
C
100
AcDbDictionary
  0
DICTIONARY
  5
17
330
C
100
AcDbDictionary
  3
STANDARD
350
18
  0
DICTIONARY
  5
19
330
C
100
AcDbDictionary
  0
ENDSEC
  0
EOF
