  0
SECTION
  2
HEADER
  9
$ACADVER
  1
AC1014
  9
$HANDSEED
  5
FFFF
  9
$MEASUREMENT
 70
     1
  0
ENDSEC
  0
SECTION
  2
TABLES
  0
TABLE
  2
VPORT
  5
8
330
0
100
AcDbSymbolTable
 70
     4
  0
VPORT
  5
2E
330
8
100
AcDbSymbolTableRecord
100
AcDbViewportTableRecord
  2
*ACTIVE
 70
     0
 10
0.0
 20
0.0
 11
1.0
 21
1.0
 12
210.0
 22
148.5
 13
0.0
 23
0.0
 14
10.0
 24
10.0
 15
10.0
 25
10.0
 16
0.0
 26
0.0
 36
1.0
 17
0.0
 27
0.0
 37
0.0
 40
341.0
 41
1.24
 42
50.0
 43
0.0
 44
0.0
 50
0.0
 51
0.0
 71
     0
 72
   100
 73
     1
 74
     3
 75
     0
 76
     0
 77
     0
 78
     0
  0
ENDTAB
  0
TABLE
  2
LTYPE
  5
5
330
0
100
AcDbSymbolTable
 70
     1
  0
LTYPE
  5
14
330
5
100
AcDbSymbolTableRecord
100
AcDbLinetypeTableRecord
  2
BYBLOCK
 70
     0
  3

 72
    65
 73
     0
 40
0.0
  0
LTYPE
  5
15
330
5
100
AcDbSymbolTableRecord
100
AcDbLinetypeTableRecord
  2
BYLAYER
 70
     0
  3

 72
    65
 73
     0
 40
0.0
  0
LTYPE
  5
16
330
5
100
AcDbSymbolTableRecord
100
AcDbLinetypeTableRecord
  2
CONTINUOUS
 70
     0
  3
Solid line
 72
    65
 73
     0
 40
0.0
  0
ENDTAB
  0
TABLE
  2
LAYER
  5
2
100
AcDbSymbolTable
 70
2
  0
LAYER
  5
50
100
AcDbSymbolTableRecord
100
AcDbLayerTableRecord
  2
0
 70
0
  6
CONTINUOUS
  0
LAYER
  5
51
100
AcDbSymbolTableRecord
100
AcDbLayerTableRecord
  2
Layer_1
 70
0
  6
CONTINUOUS
  0
ENDTAB
  0
TABLE
  2
STYLE
  5
3
330
0
100
AcDbSymbolTable
 70
     1
  0
STYLE
  5
11
330
3
100
AcDbSymbolTableRecord
100
AcDbTextStyleTableRecord
  2
STANDARD
 70
     0
 40
0.0
 41
1.0
 50
0.0
 71
     0
 42
2.5
  3
txt
  4

  0
ENDTAB
  0
TABLE
  2
VIEW
  5
6
330
0
100
AcDbSymbolTable
 70
     0
  0
ENDTAB
  0
TABLE
  2
UCS
  5
7
330
0
100
AcDbSymbolTable
 70
     0
  0
ENDTAB
  0
TABLE
  2
APPID
  5
9
330
0
100
AcDbSymbolTable
 70
     2
  0
APPID
  5
12
330
9
100
AcDbSymbolTableRecord
100
AcDbRegAppTableRecord
  2
ACAD
 70
     0
  0
ENDTAB
  0
TABLE
  2
DIMSTYLE
  5
A
330
0
100
AcDbSymbolTable
 70
     1
  0
DIMSTYLE
105
27
330
A
100
AcDbSymbolTableRecord
100
AcDbDimStyleTableRecord
  2
ISO-25
 70
     0
  3

  4

  5

  6

  7

 40
1.0
 41
2.5
 42
0.625
 43
3.75
 44
1.25
 45
0.0
 46
0.0
 47
0.0
 48
0.0
140
2.5
141
2.5
142
0.0
143
0.03937007874016
144
1.0
145
0.0
146
1.0
147
0.625
 71
     0
 72
     0
 73
     0
 74
     0
 75
     0
 76
     0
 77
     1
 78
     8
170
     0
171
     3
172
     1
173
     0
174
     0
175
     0
176
     0
177
     0
178
     0
270
     2
271
     2
272
     2
273
     2
274
     3
340
11
275
     0
280
     0
281
     0
282
     0
283
     0
284
     8
285
     0
286
     0
287
     3
288
     0
  0
ENDTAB
  0
TABLE
  2
BLOCK_RECORD
  5
1
330
0
100
AcDbSymbolTable
 70
     1
  0
BLOCK_RECORD
  5
1F
330
1
100
AcDbSymbolTableRecord
100
AcDbBlockTableRecord
  2
*MODEL_SPACE
  0
BLOCK_RECORD
  5
1B
330
1
100
AcDbSymbolTableRecord
100
AcDbBlockTableRecord
  2
*PAPER_SPACE
  0
ENDTAB
  0
ENDSEC
  0
SECTION
  2
BLOCKS
  0
BLOCK
  5
20
330
1F
100
AcDbEntity
  8
0
100
AcDbBlockBegin
  2
*MODEL_SPACE
 70
     0
 10
0.0
 20
0.0
 30
0.0
  3
*MODEL_SPACE
  1

  0
ENDBLK
  5
21
330
1F
100
AcDbEntity
  8
0
100
AcDbBlockEnd
  0
BLOCK
  5
1C
330
1B
100
AcDbEntity
 67
     1
  8
0
100
AcDbBlockBegin
  2
*PAPER_SPACE
  1

  0
ENDBLK
  5
1D
330
1B
100
AcDbEntity
 67
     1
  8
0
100
AcDbBlockEnd
  0
ENDSEC
  0
SECTION
  2
ENTITIES
  0
SPLINE
  5
100
100
AcDbEntity
  8
Layer_1
 62
1
100
AcDbSpline
 70
8
 71
3
 72
8
 73
4
 74
0
 40
0
 40
0
 40
0
 40
0
 40
1
 40
1
 40
1
 40
1
 10
12.000000
 20
14.000000
 30
0.0
 10
12.000000
 20
13.930965
 30
0.0
 10
11.993004
 20
13.863562
 30
0.0
 10
11.979683
 20
13.798465
 30
0.0
  0
SPLINE
  5
101
100
AcDbEntity
  8
Layer_1
 62
1
100
AcDbSpline
 70
8
 71
3
 72
8
 73
4
 74
0
 40
0
 40
0
 40
0
 40
0
 40
1
 40
1
 40
1
 40
1
 10
11.979683
 20
13.798465
 30
0.0
 10
11.966362
 20
13.733367
 30
0.0
 10
11.946716
 20
13.670573
 30
0.0
 10
11.921414
 20
13.610753
 30
0.0
  0
SPLINE
  5
102
100
AcDbEntity
  8
Layer_1
 62
1
100
AcDbSpline
 70
8
 71
3
 72
8
 73
4
 74
0
 40
0
 40
0
 40
0
 40
0
 40
1
 40
1
 40
1
 40
1
 10
11.921414
 20
13.610753
 30
0.0
 10
11.896113
 20
13.550933
 30
0.0
 10
11.865156
 20
13.494091
 30
0.0
 10
11.829215
 20
13.440889
 30
0.0
  0
SPLINE
  5
103
100
AcDbEntity
  8
Layer_1
 62
1
100
AcDbSpline
 70
8
 71
3
 72
8
 73
4
 74
0
 40
0
 40
0
 40
0
 40
0
 40
1
 40
1
 40
1
 40
1
 10
11.829215
 20
13.440889
 30
0.0
 10
11.793273
 20
13.387688
 30
0.0
 10
11.752347
 20
13.338132
 30
0.0
 10
11.707106
 20
13.292892
 30
0.0
  0
SPLINE
  5
104
100
AcDbEntity
  8
Layer_1
 62
1
100
AcDbSpline
 70
8
 71
3
 72
8
 73
4
 74
0
 40
0
 40
0
 40
0
 40
0
 40
1
 40
1
 40
1
 40
1
 10
11.707106
 20
13.292892
 30
0.0
 10
11.661865
 20
13.247652
 30
0.0
 10
11.612309
 20
13.206724
 30
0.0
 10
11.559109
 20
13.170783
 30
0.0
  0
SPLINE
  5
105
100
AcDbEntity
  8
Layer_1
 62
1
100
AcDbSpline
 70
8
 71
3
 72
8
 73
4
 74
0
 40
0
 40
0
 40
0
 40
0
 40
1
 40
1
 40
1
 40
1
 10
11.559109
 20
13.170783
 30
0.0
 10
11.505908
 20
13.134842
 30
0.0
 10
11.449064
 20
13.103885
 30
0.0
 10
11.389244
 20
13.078584
 30
0.0
  0
SPLINE
  5
106
100
AcDbEntity
  8
Layer_1
 62
1
100
AcDbSpline
 70
8
 71
3
 72
8
 73
4
 74
0
 40
0
 40
0
 40
0
 40
0
 40
1
 40
1
 40
1
 40
1
 10
11.389244
 20
13.078584
 30
0.0
 10
11.329425
 20
13.053297
 30
0.0
 10
11.266632
 20
13.033637
 30
0.0
 10
11.201534
 20
13.020316
 30
0.0
  0
SPLINE
  5
107
100
AcDbEntity
  8
Layer_1
 62
1
100
AcDbSpline
 70
8
 71
3
 72
8
 73
4
 74
0
 40
0
 40
0
 40
0
 40
0
 40
1
 40
1
 40
1
 40
1
 10
11.201534
 20
13.020316
 30
0.0
 10
11.136436
 20
13.006995
 30
0.0
 10
11.069035
 20
12.999996
 30
0.0
 10
10.999999
 20
12.999996
 30
0.0
  0
SPLINE
  5
108
100
AcDbEntity
  8
Layer_1
 62
1
100
AcDbSpline
 70
8
 71
3
 72
8
 73
4
 74
0
 40
0
 40
0
 40
0
 40
0
 40
1
 40
1
 40
1
 40
1
 10
10.999999
 20
12.999996
 30
0.0
 10
10.930964
 20
12.999996
 30
0.0
 10
10.863562
 20
13.006995
 30
0.0
 10
10.798464
 20
13.020316
 30
0.0
  0
SPLINE
  5
109
100
AcDbEntity
  8
Layer_1
 62
1
100
AcDbSpline
 70
8
 71
3
 72
8
 73
4
 74
0
 40
0
 40
0
 40
0
 40
0
 40
1
 40
1
 40
1
 40
1
 10
10.798464
 20
13.020316
 30
0.0
 10
10.733367
 20
13.033637
 30
0.0
 10
10.670573
 20
13.053282
 30
0.0
 10
10.610754
 20
13.078584
 30
0.0
  0
SPLINE
  5
10a
100
AcDbEntity
  8
Layer_1
 62
1
100
AcDbSpline
 70
8
 71
3
 72
8
 73
4
 74
0
 40
0
 40
0
 40
0
 40
0
 40
1
 40
1
 40
1
 40
1
 10
10.610754
 20
13.078584
 30
0.0
 10
10.550935
 20
13.103899
 30
0.0
 10
10.494090
 20
13.134842
 30
0.0
 10
10.440890
 20
13.170783
 30
0.0
  0
SPLINE
  5
10b
100
AcDbEntity
  8
Layer_1
 62
1
100
AcDbSpline
 70
8
 71
3
 72
8
 73
4
 74
0
 40
0
 40
0
 40
0
 40
0
 40
1
 40
1
 40
1
 40
1
 10
10.440890
 20
13.170783
 30
0.0
 10
10.387689
 20
13.206724
 30
0.0
 10
10.338134
 20
13.247652
 30
0.0
 10
10.292893
 20
13.292892
 30
0.0
  0
SPLINE
  5
10c
100
AcDbEntity
  8
Layer_1
 62
1
100
AcDbSpline
 70
8
 71
3
 72
8
 73
4
 74
0
 40
0
 40
0
 40
0
 40
0
 40
1
 40
1
 40
1
 40
1
 10
10.292893
 20
13.292892
 30
0.0
 10
10.247651
 20
13.338132
 30
0.0
 10
10.206725
 20
13.387688
 30
0.0
 10
10.170783
 20
13.440889
 30
0.0
  0
SPLINE
  5
10d
100
AcDbEntity
  8
Layer_1
 62
1
100
AcDbSpline
 70
8
 71
3
 72
8
 73
4
 74
0
 40
0
 40
0
 40
0
 40
0
 40
1
 40
1
 40
1
 40
1
 10
10.170783
 20
13.440889
 30
0.0
 10
10.134842
 20
13.494091
 30
0.0
 10
10.103885
 20
13.550933
 30
0.0
 10
10.078584
 20
13.610753
 30
0.0
  0
SPLINE
  5
10e
100
AcDbEntity
  8
Layer_1
 62
1
100
AcDbSpline
 70
8
 71
3
 72
8
 73
4
 74
0
 40
0
 40
0
 40
0
 40
0
 40
1
 40
1
 40
1
 40
1
 10
10.078584
 20
13.610753
 30
0.0
 10
10.053283
 20
13.670573
 30
0.0
 10
10.033636
 20
13.733367
 30
0.0
 10
10.020316
 20
13.798465
 30
0.0
  0
SPLINE
  5
10f
100
AcDbEntity
  8
Layer_1
 62
1
100
AcDbSpline
 70
8
 71
3
 72
8
 73
4
 74
0
 40
0
 40
0
 40
0
 40
0
 40
1
 40
1
 40
1
 40
1
 10
10.020316
 20
13.798465
 30
0.0
 10
10.006995
 20
13.863562
 30
0.0
 10
9.999998
 20
13.930965
 30
0.0
 10
9.999998
 20
14.000000
 30
0.0
  0
SPLINE
  5
110
100
AcDbEntity
  8
Layer_1
 62
1
100
AcDbSpline
 70
8
 71
3
 72
8
 73
4
 74
0
 40
0
 40
0
 40
0
 40
0
 40
1
 40
1
 40
1
 40
1
 10
9.999998
 20
14.000000
 30
0.0
 10
9.999998
 20
14.069034
 30
0.0
 10
10.006995
 20
14.136437
 30
0.0
 10
10.020316
 20
14.201535
 30
0.0
  0
SPLINE
  5
111
100
AcDbEntity
  8
Layer_1
 62
1
100
AcDbSpline
 70
8
 71
3
 72
8
 73
4
 74
0
 40
0
 40
0
 40
0
 40
0
 40
1
 40
1
 40
1
 40
1
 10
10.020316
 20
14.201535
 30
0.0
 10
10.033636
 20
14.266632
 30
0.0
 10
10.053283
 20
14.329424
 30
0.0
 10
10.078584
 20
14.389243
 30
0.0
  0
SPLINE
  5
112
100
AcDbEntity
  8
Layer_1
 62
1
100
AcDbSpline
 70
8
 71
3
 72
8
 73
4
 74
0
 40
0
 40
0
 40
0
 40
0
 40
1
 40
1
 40
1
 40
1
 10
10.078584
 20
14.389243
 30
0.0
 10
10.103885
 20
14.449063
 30
0.0
 10
10.134842
 20
14.505908
 30
0.0
 10
10.170783
 20
14.559107
 30
0.0
  0
SPLINE
  5
113
100
AcDbEntity
  8
Layer_1
 62
1
100
AcDbSpline
 70
8
 71
3
 72
8
 73
4
 74
0
 40
0
 40
0
 40
0
 40
0
 40
1
 40
1
 40
1
 40
1
 10
10.170783
 20
14.559107
 30
0.0
 10
10.206725
 20
14.612309
 30
0.0
 10
10.247651
 20
14.661864
 30
0.0
 10
10.292893
 20
14.707105
 30
0.0
  0
SPLINE
  5
114
100
AcDbEntity
  8
Layer_1
 62
1
100
AcDbSpline
 70
8
 71
3
 72
8
 73
4
 74
0
 40
0
 40
0
 40
0
 40
0
 40
1
 40
1
 40
1
 40
1
 10
10.292893
 20
14.707105
 30
0.0
 10
10.338134
 20
14.752345
 30
0.0
 10
10.387689
 20
14.793273
 30
0.0
 10
10.440890
 20
14.829214
 30
0.0
  0
SPLINE
  5
115
100
AcDbEntity
  8
Layer_1
 62
1
100
AcDbSpline
 70
8
 71
3
 72
8
 73
4
 74
0
 40
0
 40
0
 40
0
 40
0
 40
1
 40
1
 40
1
 40
1
 10
10.440890
 20
14.829214
 30
0.0
 10
10.494090
 20
14.865155
 30
0.0
 10
10.550935
 20
14.896112
 30
0.0
 10
10.610754
 20
14.921413
 30
0.0
  0
SPLINE
  5
116
100
AcDbEntity
  8
Layer_1
 62
1
100
AcDbSpline
 70
8
 71
3
 72
8
 73
4
 74
0
 40
0
 40
0
 40
0
 40
0
 40
1
 40
1
 40
1
 40
1
 10
10.610754
 20
14.921413
 30
0.0
 10
10.670573
 20
14.946700
 30
0.0
 10
10.733367
 20
14.966360
 30
0.0
 10
10.798464
 20
14.979680
 30
0.0
  0
SPLINE
  5
117
100
AcDbEntity
  8
Layer_1
 62
1
100
AcDbSpline
 70
8
 71
3
 72
8
 73
4
 74
0
 40
0
 40
0
 40
0
 40
0
 40
1
 40
1
 40
1
 40
1
 10
10.798464
 20
14.979680
 30
0.0
 10
10.863562
 20
14.993001
 30
0.0
 10
10.930964
 20
15.000000
 30
0.0
 10
10.999999
 20
15.000000
 30
0.0
  0
SPLINE
  5
118
100
AcDbEntity
  8
Layer_1
 62
1
100
AcDbSpline
 70
8
 71
3
 72
8
 73
4
 74
0
 40
0
 40
0
 40
0
 40
0
 40
1
 40
1
 40
1
 40
1
 10
10.999999
 20
15.000000
 30
0.0
 10
11.069035
 20
15.000000
 30
0.0
 10
11.136436
 20
14.993001
 30
0.0
 10
11.201534
 20
14.979680
 30
0.0
  0
SPLINE
  5
119
100
AcDbEntity
  8
Layer_1
 62
1
100
AcDbSpline
 70
8
 71
3
 72
8
 73
4
 74
0
 40
0
 40
0
 40
0
 40
0
 40
1
 40
1
 40
1
 40
1
 10
11.201534
 20
14.979680
 30
0.0
 10
11.266632
 20
14.966360
 30
0.0
 10
11.329425
 20
14.946714
 30
0.0
 10
11.389244
 20
14.921413
 30
0.0
  0
SPLINE
  5
11a
100
AcDbEntity
  8
Layer_1
 62
1
100
AcDbSpline
 70
8
 71
3
 72
8
 73
4
 74
0
 40
0
 40
0
 40
0
 40
0
 40
1
 40
1
 40
1
 40
1
 10
11.389244
 20
14.921413
 30
0.0
 10
11.449064
 20
14.896098
 30
0.0
 10
11.505908
 20
14.865155
 30
0.0
 10
11.559109
 20
14.829214
 30
0.0
  0
SPLINE
  5
11b
100
AcDbEntity
  8
Layer_1
 62
1
100
AcDbSpline
 70
8
 71
3
 72
8
 73
4
 74
0
 40
0
 40
0
 40
0
 40
0
 40
1
 40
1
 40
1
 40
1
 10
11.559109
 20
14.829214
 30
0.0
 10
11.612309
 20
14.793273
 30
0.0
 10
11.661865
 20
14.752345
 30
0.0
 10
11.707106
 20
14.707105
 30
0.0
  0
SPLINE
  5
11c
100
AcDbEntity
  8
Layer_1
 62
1
100
AcDbSpline
 70
8
 71
3
 72
8
 73
4
 74
0
 40
0
 40
0
 40
0
 40
0
 40
1
 40
1
 40
1
 40
1
 10
11.707106
 20
14.707105
 30
0.0
 10
11.752347
 20
14.661864
 30
0.0
 10
11.793273
 20
14.612309
 30
0.0
 10
11.829215
 20
14.559107
 30
0.0
  0
SPLINE
  5
11d
100
AcDbEntity
  8
Layer_1
 62
1
100
AcDbSpline
 70
8
 71
3
 72
8
 73
4
 74
0
 40
0
 40
0
 40
0
 40
0
 40
1
 40
1
 40
1
 40
1
 10
11.829215
 20
14.559107
 30
0.0
 10
11.865156
 20
14.505908
 30
0.0
 10
11.896113
 20
14.449063
 30
0.0
 10
11.921414
 20
14.389243
 30
0.0
  0
SPLINE
  5
11e
100
AcDbEntity
  8
Layer_1
 62
1
100
AcDbSpline
 70
8
 71
3
 72
8
 73
4
 74
0
 40
0
 40
0
 40
0
 40
0
 40
1
 40
1
 40
1
 40
1
 10
11.921414
 20
14.389243
 30
0.0
 10
11.946715
 20
14.329424
 30
0.0
 10
11.966362
 20
14.266632
 30
0.0
 10
11.979683
 20
14.201535
 30
0.0
  0
SPLINE
  5
11f
100
AcDbEntity
  8
Layer_1
 62
1
100
AcDbSpline
 70
8
 71
3
 72
8
 73
4
 74
0
 40
0
 40
0
 40
0
 40
0
 40
1
 40
1
 40
1
 40
1
 10
11.979683
 20
14.201535
 30
0.0
 10
11.993004
 20
14.136437
 30
0.0
 10
12.000000
 20
14.069034
 30
0.0
 10
12.000000
 20
14.000000
 30
0.0
  0
LWPOLYLINE
  5
120
100
AcDbEntity
  8
Layer_1
 62
7
100
AcDbPolyline
 90
25
 70
0
 10
3.000000
 20
-0.000001
 30
0.0
 10
1.663894
 20
0.328862
 30
0.0
 10
0.744811
 20
0.926741
 30
0.0
 10
0.203323
 20
1.811251
 30
0.0
 10
0.000000
 20
2.999999
 30
0.0
 10
0.000000
 20
16.999999
 30
0.0
 10
0.205271
 20
18.443289
 30
0.0
 10
0.808521
 20
19.380064
 30
0.0
 10
1.757510
 20
19.876803
 30
0.0
 10
3.000000
 20
19.999999
 30
0.0
 10
12.999999
 20
20.000002
 30
0.0
 10
13.000000
 20
8.000000
 30
0.0
 10
34.999999
 20
8.000000
 30
0.0
 10
34.999999
 20
20.000002
 30
0.0
 10
44.999999
 20
19.999999
 30
0.0
 10
46.325185
 20
19.825185
 30
0.0
 10
47.316406
 20
19.316406
 30
0.0
 10
47.899426
 20
18.399426
 30
0.0
 10
47.999999
 20
16.999999
 30
0.0
 10
47.999999
 20
2.999999
 30
0.0
 10
47.880142
 20
1.799897
 30
0.0
 10
47.380400
 20
0.871140
 30
0.0
 10
46.440459
 20
0.256813
 30
0.0
 10
44.999999
 20
-0.000001
 30
0.0
 10
3.000000
 20
-0.000001
 30
0.0
  0
SPLINE
  5
121
100
AcDbEntity
  8
Layer_1
 62
1
100
AcDbSpline
 70
8
 71
3
 72
8
 73
4
 74
0
 40
0
 40
0
 40
0
 40
0
 40
1
 40
1
 40
1
 40
1
 10
37.999999
 20
14.000000
 30
0.0
 10
37.999999
 20
13.930965
 30
0.0
 10
37.993000
 20
13.863562
 30
0.0
 10
37.979679
 20
13.798465
 30
0.0
  0
SPLINE
  5
122
100
AcDbEntity
  8
Layer_1
 62
1
100
AcDbSpline
 70
8
 71
3
 72
8
 73
4
 74
0
 40
0
 40
0
 40
0
 40
0
 40
1
 40
1
 40
1
 40
1
 10
37.979679
 20
13.798465
 30
0.0
 10
37.966358
 20
13.733367
 30
0.0
 10
37.946713
 20
13.670573
 30
0.0
 10
37.921411
 20
13.610753
 30
0.0
  0
SPLINE
  5
123
100
AcDbEntity
  8
Layer_1
 62
1
100
AcDbSpline
 70
8
 71
3
 72
8
 73
4
 74
0
 40
0
 40
0
 40
0
 40
0
 40
1
 40
1
 40
1
 40
1
 10
37.921411
 20
13.610753
 30
0.0
 10
37.896096
 20
13.550933
 30
0.0
 10
37.865153
 20
13.494091
 30
0.0
 10
37.829212
 20
13.440889
 30
0.0
  0
SPLINE
  5
124
100
AcDbEntity
  8
Layer_1
 62
1
100
AcDbSpline
 70
8
 71
3
 72
8
 73
4
 74
0
 40
0
 40
0
 40
0
 40
0
 40
1
 40
1
 40
1
 40
1
 10
37.829212
 20
13.440889
 30
0.0
 10
37.793271
 20
13.387688
 30
0.0
 10
37.752343
 20
13.338132
 30
0.0
 10
37.707103
 20
13.292892
 30
0.0
  0
SPLINE
  5
125
100
AcDbEntity
  8
Layer_1
 62
1
100
AcDbSpline
 70
8
 71
3
 72
8
 73
4
 74
0
 40
0
 40
0
 40
0
 40
0
 40
1
 40
1
 40
1
 40
1
 10
37.707103
 20
13.292892
 30
0.0
 10
37.661863
 20
13.247652
 30
0.0
 10
37.612308
 20
13.206724
 30
0.0
 10
37.559106
 20
13.170783
 30
0.0
  0
SPLINE
  5
126
100
AcDbEntity
  8
Layer_1
 62
1
100
AcDbSpline
 70
8
 71
3
 72
8
 73
4
 74
0
 40
0
 40
0
 40
0
 40
0
 40
1
 40
1
 40
1
 40
1
 10
37.559106
 20
13.170783
 30
0.0
 10
37.505907
 20
13.134842
 30
0.0
 10
37.449062
 20
13.103885
 30
0.0
 10
37.389242
 20
13.078584
 30
0.0
  0
SPLINE
  5
127
100
AcDbEntity
  8
Layer_1
 62
1
100
AcDbSpline
 70
8
 71
3
 72
8
 73
4
 74
0
 40
0
 40
0
 40
0
 40
0
 40
1
 40
1
 40
1
 40
1
 10
37.389242
 20
13.078584
 30
0.0
 10
37.329422
 20
13.053297
 30
0.0
 10
37.266631
 20
13.033637
 30
0.0
 10
37.201533
 20
13.020316
 30
0.0
  0
SPLINE
  5
128
100
AcDbEntity
  8
Layer_1
 62
1
100
AcDbSpline
 70
8
 71
3
 72
8
 73
4
 74
0
 40
0
 40
0
 40
0
 40
0
 40
1
 40
1
 40
1
 40
1
 10
37.201533
 20
13.020316
 30
0.0
 10
37.136436
 20
13.006995
 30
0.0
 10
37.069033
 20
12.999996
 30
0.0
 10
36.999998
 20
12.999996
 30
0.0
  0
SPLINE
  5
129
100
AcDbEntity
  8
Layer_1
 62
1
100
AcDbSpline
 70
8
 71
3
 72
8
 73
4
 74
0
 40
0
 40
0
 40
0
 40
0
 40
1
 40
1
 40
1
 40
1
 10
36.999998
 20
12.999996
 30
0.0
 10
36.930964
 20
12.999996
 30
0.0
 10
36.863561
 20
13.006995
 30
0.0
 10
36.798463
 20
13.020316
 30
0.0
  0
SPLINE
  5
12a
100
AcDbEntity
  8
Layer_1
 62
1
100
AcDbSpline
 70
8
 71
3
 72
8
 73
4
 74
0
 40
0
 40
0
 40
0
 40
0
 40
1
 40
1
 40
1
 40
1
 10
36.798463
 20
13.020316
 30
0.0
 10
36.733366
 20
13.033637
 30
0.0
 10
36.670572
 20
13.053282
 30
0.0
 10
36.610752
 20
13.078584
 30
0.0
  0
SPLINE
  5
12b
100
AcDbEntity
  8
Layer_1
 62
1
100
AcDbSpline
 70
8
 71
3
 72
8
 73
4
 74
0
 40
0
 40
0
 40
0
 40
0
 40
1
 40
1
 40
1
 40
1
 10
36.610752
 20
13.078584
 30
0.0
 10
36.550932
 20
13.103899
 30
0.0
 10
36.494090
 20
13.134842
 30
0.0
 10
36.440888
 20
13.170783
 30
0.0
  0
SPLINE
  5
12c
100
AcDbEntity
  8
Layer_1
 62
1
100
AcDbSpline
 70
8
 71
3
 72
8
 73
4
 74
0
 40
0
 40
0
 40
0
 40
0
 40
1
 40
1
 40
1
 40
1
 10
36.440888
 20
13.170783
 30
0.0
 10
36.387686
 20
13.206724
 30
0.0
 10
36.338131
 20
13.247652
 30
0.0
 10
36.292890
 20
13.292892
 30
0.0
  0
SPLINE
  5
12d
100
AcDbEntity
  8
Layer_1
 62
1
100
AcDbSpline
 70
8
 71
3
 72
8
 73
4
 74
0
 40
0
 40
0
 40
0
 40
0
 40
1
 40
1
 40
1
 40
1
 10
36.292890
 20
13.292892
 30
0.0
 10
36.247650
 20
13.338132
 30
0.0
 10
36.206722
 20
13.387688
 30
0.0
 10
36.170781
 20
13.440889
 30
0.0
  0
SPLINE
  5
12e
100
AcDbEntity
  8
Layer_1
 62
1
100
AcDbSpline
 70
8
 71
3
 72
8
 73
4
 74
0
 40
0
 40
0
 40
0
 40
0
 40
1
 40
1
 40
1
 40
1
 10
36.170781
 20
13.440889
 30
0.0
 10
36.134840
 20
13.494091
 30
0.0
 10
36.103883
 20
13.550933
 30
0.0
 10
36.078582
 20
13.610753
 30
0.0
  0
SPLINE
  5
12f
100
AcDbEntity
  8
Layer_1
 62
1
100
AcDbSpline
 70
8
 71
3
 72
8
 73
4
 74
0
 40
0
 40
0
 40
0
 40
0
 40
1
 40
1
 40
1
 40
1
 10
36.078582
 20
13.610753
 30
0.0
 10
36.053267
 20
13.670573
 30
0.0
 10
36.033635
 20
13.733367
 30
0.0
 10
36.020315
 20
13.798465
 30
0.0
  0
SPLINE
  5
130
100
AcDbEntity
  8
Layer_1
 62
1
100
AcDbSpline
 70
8
 71
3
 72
8
 73
4
 74
0
 40
0
 40
0
 40
0
 40
0
 40
1
 40
1
 40
1
 40
1
 10
36.020315
 20
13.798465
 30
0.0
 10
36.006994
 20
13.863562
 30
0.0
 10
35.999995
 20
13.930965
 30
0.0
 10
35.999995
 20
14.000000
 30
0.0
  0
SPLINE
  5
131
100
AcDbEntity
  8
Layer_1
 62
1
100
AcDbSpline
 70
8
 71
3
 72
8
 73
4
 74
0
 40
0
 40
0
 40
0
 40
0
 40
1
 40
1
 40
1
 40
1
 10
35.999995
 20
14.000000
 30
0.0
 10
35.999995
 20
14.069034
 30
0.0
 10
36.006994
 20
14.136437
 30
0.0
 10
36.020315
 20
14.201535
 30
0.0
  0
SPLINE
  5
132
100
AcDbEntity
  8
Layer_1
 62
1
100
AcDbSpline
 70
8
 71
3
 72
8
 73
4
 74
0
 40
0
 40
0
 40
0
 40
0
 40
1
 40
1
 40
1
 40
1
 10
36.020315
 20
14.201535
 30
0.0
 10
36.033635
 20
14.266632
 30
0.0
 10
36.053281
 20
14.329424
 30
0.0
 10
36.078582
 20
14.389243
 30
0.0
  0
SPLINE
  5
133
100
AcDbEntity
  8
Layer_1
 62
1
100
AcDbSpline
 70
8
 71
3
 72
8
 73
4
 74
0
 40
0
 40
0
 40
0
 40
0
 40
1
 40
1
 40
1
 40
1
 10
36.078582
 20
14.389243
 30
0.0
 10
36.103869
 20
14.449063
 30
0.0
 10
36.134840
 20
14.505908
 30
0.0
 10
36.170781
 20
14.559107
 30
0.0
  0
SPLINE
  5
134
100
AcDbEntity
  8
Layer_1
 62
1
100
AcDbSpline
 70
8
 71
3
 72
8
 73
4
 74
0
 40
0
 40
0
 40
0
 40
0
 40
1
 40
1
 40
1
 40
1
 10
36.170781
 20
14.559107
 30
0.0
 10
36.206722
 20
14.612309
 30
0.0
 10
36.247650
 20
14.661864
 30
0.0
 10
36.292890
 20
14.707105
 30
0.0
  0
SPLINE
  5
135
100
AcDbEntity
  8
Layer_1
 62
1
100
AcDbSpline
 70
8
 71
3
 72
8
 73
4
 74
0
 40
0
 40
0
 40
0
 40
0
 40
1
 40
1
 40
1
 40
1
 10
36.292890
 20
14.707105
 30
0.0
 10
36.338131
 20
14.752345
 30
0.0
 10
36.387686
 20
14.793273
 30
0.0
 10
36.440888
 20
14.829214
 30
0.0
  0
SPLINE
  5
136
100
AcDbEntity
  8
Layer_1
 62
1
100
AcDbSpline
 70
8
 71
3
 72
8
 73
4
 74
0
 40
0
 40
0
 40
0
 40
0
 40
1
 40
1
 40
1
 40
1
 10
36.440888
 20
14.829214
 30
0.0
 10
36.494090
 20
14.865155
 30
0.0
 10
36.550932
 20
14.896112
 30
0.0
 10
36.610752
 20
14.921413
 30
0.0
  0
SPLINE
  5
137
100
AcDbEntity
  8
Layer_1
 62
1
100
AcDbSpline
 70
8
 71
3
 72
8
 73
4
 74
0
 40
0
 40
0
 40
0
 40
0
 40
1
 40
1
 40
1
 40
1
 10
36.610752
 20
14.921413
 30
0.0
 10
36.670572
 20
14.946700
 30
0.0
 10
36.733366
 20
14.966360
 30
0.0
 10
36.798463
 20
14.979680
 30
0.0
  0
SPLINE
  5
138
100
AcDbEntity
  8
Layer_1
 62
1
100
AcDbSpline
 70
8
 71
3
 72
8
 73
4
 74
0
 40
0
 40
0
 40
0
 40
0
 40
1
 40
1
 40
1
 40
1
 10
36.798463
 20
14.979680
 30
0.0
 10
36.863561
 20
14.993001
 30
0.0
 10
36.930964
 20
15.000000
 30
0.0
 10
36.999998
 20
15.000000
 30
0.0
  0
SPLINE
  5
139
100
AcDbEntity
  8
Layer_1
 62
1
100
AcDbSpline
 70
8
 71
3
 72
8
 73
4
 74
0
 40
0
 40
0
 40
0
 40
0
 40
1
 40
1
 40
1
 40
1
 10
36.999998
 20
15.000000
 30
0.0
 10
37.069033
 20
15.000000
 30
0.0
 10
37.136436
 20
14.993001
 30
0.0
 10
37.201533
 20
14.979680
 30
0.0
  0
SPLINE
  5
13a
100
AcDbEntity
  8
Layer_1
 62
1
100
AcDbSpline
 70
8
 71
3
 72
8
 73
4
 74
0
 40
0
 40
0
 40
0
 40
0
 40
1
 40
1
 40
1
 40
1
 10
37.201533
 20
14.979680
 30
0.0
 10
37.266631
 20
14.966360
 30
0.0
 10
37.329422
 20
14.946714
 30
0.0
 10
37.389242
 20
14.921413
 30
0.0
  0
SPLINE
  5
13b
100
AcDbEntity
  8
Layer_1
 62
1
100
AcDbSpline
 70
8
 71
3
 72
8
 73
4
 74
0
 40
0
 40
0
 40
0
 40
0
 40
1
 40
1
 40
1
 40
1
 10
37.389242
 20
14.921413
 30
0.0
 10
37.449062
 20
14.896098
 30
0.0
 10
37.505907
 20
14.865155
 30
0.0
 10
37.559106
 20
14.829214
 30
0.0
  0
SPLINE
  5
13c
100
AcDbEntity
  8
Layer_1
 62
1
100
AcDbSpline
 70
8
 71
3
 72
8
 73
4
 74
0
 40
0
 40
0
 40
0
 40
0
 40
1
 40
1
 40
1
 40
1
 10
37.559106
 20
14.829214
 30
0.0
 10
37.612308
 20
14.793273
 30
0.0
 10
37.661863
 20
14.752345
 30
0.0
 10
37.707103
 20
14.707105
 30
0.0
  0
SPLINE
  5
13d
100
AcDbEntity
  8
Layer_1
 62
1
100
AcDbSpline
 70
8
 71
3
 72
8
 73
4
 74
0
 40
0
 40
0
 40
0
 40
0
 40
1
 40
1
 40
1
 40
1
 10
37.707103
 20
14.707105
 30
0.0
 10
37.752343
 20
14.661864
 30
0.0
 10
37.793271
 20
14.612309
 30
0.0
 10
37.829212
 20
14.559107
 30
0.0
  0
SPLINE
  5
13e
100
AcDbEntity
  8
Layer_1
 62
1
100
AcDbSpline
 70
8
 71
3
 72
8
 73
4
 74
0
 40
0
 40
0
 40
0
 40
0
 40
1
 40
1
 40
1
 40
1
 10
37.829212
 20
14.559107
 30
0.0
 10
37.865153
 20
14.505908
 30
0.0
 10
37.896110
 20
14.449063
 30
0.0
 10
37.921411
 20
14.389243
 30
0.0
  0
SPLINE
  5
13f
100
AcDbEntity
  8
Layer_1
 62
1
100
AcDbSpline
 70
8
 71
3
 72
8
 73
4
 74
0
 40
0
 40
0
 40
0
 40
0
 40
1
 40
1
 40
1
 40
1
 10
37.921411
 20
14.389243
 30
0.0
 10
37.946727
 20
14.329424
 30
0.0
 10
37.966358
 20
14.266632
 30
0.0
 10
37.979679
 20
14.201535
 30
0.0
  0
SPLINE
  5
140
100
AcDbEntity
  8
Layer_1
 62
1
100
AcDbSpline
 70
8
 71
3
 72
8
 73
4
 74
0
 40
0
 40
0
 40
0
 40
0
 40
1
 40
1
 40
1
 40
1
 10
37.979679
 20
14.201535
 30
0.0
 10
37.993000
 20
14.136437
 30
0.0
 10
37.999999
 20
14.069034
 30
0.0
 10
37.999999
 20
14.000000
 30
0.0
  0
LWPOLYLINE
  5
141
100
AcDbEntity
  8
Layer_1
 62
1
100
AcDbPolyline
 90
2
 70
0
 10
12.000000
 20
14.000000
 30
0.0
 10
12.000000
 20
14.000000
 30
0.0
  0
SPLINE
  5
142
100
AcDbEntity
  8
Layer_1
 62
1
100
AcDbSpline
 70
8
 71
3
 72
8
 73
4
 74
0
 40
0
 40
0
 40
0
 40
0
 40
1
 40
1
 40
1
 40
1
 10
4.000014
 20
11.976249
 30
0.0
 10
3.860709
 20
11.976249
 30
0.0
 10
3.724706
 20
11.990417
 30
0.0
 10
3.593388
 20
12.017366
 30
0.0
  0
SPLINE
  5
143
100
AcDbEntity
  8
Layer_1
 62
1
100
AcDbSpline
 70
8
 71
3
 72
8
 73
4
 74
0
 40
0
 40
0
 40
0
 40
0
 40
1
 40
1
 40
1
 40
1
 10
3.593388
 20
12.017366
 30
0.0
 10
3.462042
 20
12.044318
 30
0.0
 10
3.335324
 20
12.084083
 30
0.0
 10
3.214646
 20
12.135287
 30
0.0
  0
SPLINE
  5
144
100
AcDbEntity
  8
Layer_1
 62
1
100
AcDbSpline
 70
8
 71
3
 72
8
 73
4
 74
0
 40
0
 40
0
 40
0
 40
0
 40
1
 40
1
 40
1
 40
1
 10
3.214646
 20
12.135287
 30
0.0
 10
3.093940
 20
12.186490
 30
0.0
 10
2.979273
 20
12.249138
 30
0.0
 10
2.871915
 20
12.321875
 30
0.0
  0
SPLINE
  5
145
100
AcDbEntity
  8
Layer_1
 62
1
100
AcDbSpline
 70
8
 71
3
 72
8
 73
4
 74
0
 40
0
 40
0
 40
0
 40
0
 40
1
 40
1
 40
1
 40
1
 10
2.871915
 20
12.321875
 30
0.0
 10
2.764586
 20
12.394612
 30
0.0
 10
2.664595
 20
12.477436
 30
0.0
 10
2.573324
 20
12.568992
 30
0.0
  0
SPLINE
  5
146
100
AcDbEntity
  8
Layer_1
 62
1
100
AcDbSpline
 70
8
 71
3
 72
8
 73
4
 74
0
 40
0
 40
0
 40
0
 40
0
 40
1
 40
1
 40
1
 40
1
 10
2.573324
 20
12.568992
 30
0.0
 10
2.482025
 20
12.660550
 30
0.0
 10
2.399447
 20
12.760838
 30
0.0
 10
2.326944
 20
12.868503
 30
0.0
  0
SPLINE
  5
147
100
AcDbEntity
  8
Layer_1
 62
1
100
AcDbSpline
 70
8
 71
3
 72
8
 73
4
 74
0
 40
0
 40
0
 40
0
 40
0
 40
1
 40
1
 40
1
 40
1
 10
2.326944
 20
12.868503
 30
0.0
 10
2.254413
 20
12.976168
 30
0.0
 10
2.191957
 20
13.091207
 30
0.0
 10
2.140932
 20
13.212267
 30
0.0
  0
SPLINE
  5
148
100
AcDbEntity
  8
Layer_1
 62
1
100
AcDbSpline
 70
8
 71
3
 72
8
 73
4
 74
0
 40
0
 40
0
 40
0
 40
0
 40
1
 40
1
 40
1
 40
1
 10
2.140932
 20
13.212267
 30
0.0
 10
2.089878
 20
13.333326
 30
0.0
 10
2.050225
 20
13.460402
 30
0.0
 10
2.023358
 20
13.592143
 30
0.0
  0
SPLINE
  5
149
100
AcDbEntity
  8
Layer_1
 62
1
100
AcDbSpline
 70
8
 71
3
 72
8
 73
4
 74
0
 40
0
 40
0
 40
0
 40
0
 40
1
 40
1
 40
1
 40
1
 10
2.023358
 20
13.592143
 30
0.0
 10
1.996547
 20
13.723885
 30
0.0
 10
1.982351
 20
13.860288
 30
0.0
 10
1.982351
 20
14.000000
 30
0.0
  0
SPLINE
  5
14a
100
AcDbEntity
  8
Layer_1
 62
1
100
AcDbSpline
 70
8
 71
3
 72
8
 73
4
 74
0
 40
0
 40
0
 40
0
 40
0
 40
1
 40
1
 40
1
 40
1
 10
1.982351
 20
14.000000
 30
0.0
 10
1.982351
 20
14.139711
 30
0.0
 10
1.996462
 20
14.276115
 30
0.0
 10
2.023358
 20
14.407856
 30
0.0
  0
SPLINE
  5
14b
100
AcDbEntity
  8
Layer_1
 62
1
100
AcDbSpline
 70
8
 71
3
 72
8
 73
4
 74
0
 40
0
 40
0
 40
0
 40
0
 40
1
 40
1
 40
1
 40
1
 10
2.023358
 20
14.407856
 30
0.0
 10
2.050169
 20
14.539597
 30
0.0
 10
2.089878
 20
14.666676
 30
0.0
 10
2.140932
 20
14.787736
 30
0.0
  0
SPLINE
  5
14c
100
AcDbEntity
  8
Layer_1
 62
1
100
AcDbSpline
 70
8
 71
3
 72
8
 73
4
 74
0
 40
0
 40
0
 40
0
 40
0
 40
1
 40
1
 40
1
 40
1
 10
2.140932
 20
14.787736
 30
0.0
 10
2.191957
 20
14.908795
 30
0.0
 10
2.254413
 20
15.023834
 30
0.0
 10
2.326944
 20
15.131499
 30
0.0
  0
SPLINE
  5
14d
100
AcDbEntity
  8
Layer_1
 62
1
100
AcDbSpline
 70
8
 71
3
 72
8
 73
4
 74
0
 40
0
 40
0
 40
0
 40
0
 40
1
 40
1
 40
1
 40
1
 10
2.326944
 20
15.131499
 30
0.0
 10
2.399447
 20
15.239164
 30
0.0
 10
2.482025
 20
15.339452
 30
0.0
 10
2.573324
 20
15.431007
 30
0.0
  0
SPLINE
  5
14e
100
AcDbEntity
  8
Layer_1
 62
1
100
AcDbSpline
 70
8
 71
3
 72
8
 73
4
 74
0
 40
0
 40
0
 40
0
 40
0
 40
1
 40
1
 40
1
 40
1
 10
2.573324
 20
15.431007
 30
0.0
 10
2.664595
 20
15.522566
 30
0.0
 10
2.764586
 20
15.605390
 30
0.0
 10
2.871915
 20
15.678127
 30
0.0
  0
SPLINE
  5
14f
100
AcDbEntity
  8
Layer_1
 62
1
100
AcDbSpline
 70
8
 71
3
 72
8
 73
4
 74
0
 40
0
 40
0
 40
0
 40
0
 40
1
 40
1
 40
1
 40
1
 10
2.871915
 20
15.678127
 30
0.0
 10
2.979273
 20
15.750861
 30
0.0
 10
3.093940
 20
15.813512
 30
0.0
 10
3.214646
 20
15.864715
 30
0.0
  0
SPLINE
  5
150
100
AcDbEntity
  8
Layer_1
 62
1
100
AcDbSpline
 70
8
 71
3
 72
8
 73
4
 74
0
 40
0
 40
0
 40
0
 40
0
 40
1
 40
1
 40
1
 40
1
 10
3.214646
 20
15.864715
 30
0.0
 10
3.335324
 20
15.915919
 30
0.0
 10
3.462042
 20
15.955678
 30
0.0
 10
3.593388
 20
15.982636
 30
0.0
  0
SPLINE
  5
151
100
AcDbEntity
  8
Layer_1
 62
1
100
AcDbSpline
 70
8
 71
3
 72
8
 73
4
 74
0
 40
0
 40
0
 40
0
 40
0
 40
1
 40
1
 40
1
 40
1
 10
3.593388
 20
15.982636
 30
0.0
 10
3.724706
 20
16.009588
 30
0.0
 10
3.860709
 20
16.023750
 30
0.0
 10
4.000014
 20
16.023750
 30
0.0
  0
SPLINE
  5
152
100
AcDbEntity
  8
Layer_1
 62
1
100
AcDbSpline
 70
8
 71
3
 72
8
 73
4
 74
0
 40
0
 40
0
 40
0
 40
0
 40
1
 40
1
 40
1
 40
1
 10
4.000014
 20
16.023750
 30
0.0
 10
4.139291
 20
16.023750
 30
0.0
 10
4.275294
 20
16.009583
 30
0.0
 10
4.406612
 20
15.982636
 30
0.0
  0
SPLINE
  5
153
100
AcDbEntity
  8
Layer_1
 62
1
100
AcDbSpline
 70
8
 71
3
 72
8
 73
4
 74
0
 40
0
 40
0
 40
0
 40
0
 40
1
 40
1
 40
1
 40
1
 10
4.406612
 20
15.982636
 30
0.0
 10
4.537958
 20
15.955684
 30
0.0
 10
4.664676
 20
15.915919
 30
0.0
 10
4.785354
 20
15.864715
 30
0.0
  0
SPLINE
  5
154
100
AcDbEntity
  8
Layer_1
 62
1
100
AcDbSpline
 70
8
 71
3
 72
8
 73
4
 74
0
 40
0
 40
0
 40
0
 40
0
 40
1
 40
1
 40
1
 40
1
 10
4.785354
 20
15.864715
 30
0.0
 10
4.906060
 20
15.813512
 30
0.0
 10
5.020755
 20
15.750861
 30
0.0
 10
5.128084
 20
15.678127
 30
0.0
  0
SPLINE
  5
155
100
AcDbEntity
  8
Layer_1
 62
1
100
AcDbSpline
 70
8
 71
3
 72
8
 73
4
 74
0
 40
0
 40
0
 40
0
 40
0
 40
1
 40
1
 40
1
 40
1
 10
5.128084
 20
15.678127
 30
0.0
 10
5.235414
 20
15.605390
 30
0.0
 10
5.335405
 20
15.522566
 30
0.0
 10
5.426676
 20
15.431007
 30
0.0
  0
SPLINE
  5
156
100
AcDbEntity
  8
Layer_1
 62
1
100
AcDbSpline
 70
8
 71
3
 72
8
 73
4
 74
0
 40
0
 40
0
 40
0
 40
0
 40
1
 40
1
 40
1
 40
1
 10
5.426676
 20
15.431007
 30
0.0
 10
5.517974
 20
15.339452
 30
0.0
 10
5.600553
 20
15.239164
 30
0.0
 10
5.673056
 20
15.131499
 30
0.0
  0
SPLINE
  5
157
100
AcDbEntity
  8
Layer_1
 62
1
100
AcDbSpline
 70
8
 71
3
 72
8
 73
4
 74
0
 40
0
 40
0
 40
0
 40
0
 40
1
 40
1
 40
1
 40
1
 10
5.673056
 20
15.131499
 30
0.0
 10
5.745587
 20
15.023834
 30
0.0
 10
5.808042
 20
14.908795
 30
0.0
 10
5.859096
 20
14.787736
 30
0.0
  0
SPLINE
  5
158
100
AcDbEntity
  8
Layer_1
 62
1
100
AcDbSpline
 70
8
 71
3
 72
8
 73
4
 74
0
 40
0
 40
0
 40
0
 40
0
 40
1
 40
1
 40
1
 40
1
 10
5.859096
 20
14.787736
 30
0.0
 10
5.910122
 20
14.666676
 30
0.0
 10
5.949774
 20
14.539597
 30
0.0
 10
5.976642
 20
14.407856
 30
0.0
  0
SPLINE
  5
159
100
AcDbEntity
  8
Layer_1
 62
1
100
AcDbSpline
 70
8
 71
3
 72
8
 73
4
 74
0
 40
0
 40
0
 40
0
 40
0
 40
1
 40
1
 40
1
 40
1
 10
5.976642
 20
14.407856
 30
0.0
 10
6.003453
 20
14.276115
 30
0.0
 10
6.017649
 20
14.139711
 30
0.0
 10
6.017649
 20
14.000000
 30
0.0
  0
SPLINE
  5
15a
100
AcDbEntity
  8
Layer_1
 62
1
100
AcDbSpline
 70
8
 71
3
 72
8
 73
4
 74
0
 40
0
 40
0
 40
0
 40
0
 40
1
 40
1
 40
1
 40
1
 10
6.017649
 20
14.000000
 30
0.0
 10
6.017649
 20
13.860288
 30
0.0
 10
6.003538
 20
13.723885
 30
0.0
 10
5.976642
 20
13.592143
 30
0.0
  0
SPLINE
  5
15b
100
AcDbEntity
  8
Layer_1
 62
1
100
AcDbSpline
 70
8
 71
3
 72
8
 73
4
 74
0
 40
0
 40
0
 40
0
 40
0
 40
1
 40
1
 40
1
 40
1
 10
5.976642
 20
13.592143
 30
0.0
 10
5.949831
 20
13.460402
 30
0.0
 10
5.910122
 20
13.333326
 30
0.0
 10
5.859096
 20
13.212267
 30
0.0
  0
SPLINE
  5
15c
100
AcDbEntity
  8
Layer_1
 62
1
100
AcDbSpline
 70
8
 71
3
 72
8
 73
4
 74
0
 40
0
 40
0
 40
0
 40
0
 40
1
 40
1
 40
1
 40
1
 10
5.859096
 20
13.212267
 30
0.0
 10
5.808042
 20
13.091207
 30
0.0
 10
5.745587
 20
12.976168
 30
0.0
 10
5.673056
 20
12.868503
 30
0.0
  0
SPLINE
  5
15d
100
AcDbEntity
  8
Layer_1
 62
1
100
AcDbSpline
 70
8
 71
3
 72
8
 73
4
 74
0
 40
0
 40
0
 40
0
 40
0
 40
1
 40
1
 40
1
 40
1
 10
5.673056
 20
12.868503
 30
0.0
 10
5.600553
 20
12.760838
 30
0.0
 10
5.517974
 20
12.660550
 30
0.0
 10
5.426676
 20
12.568992
 30
0.0
  0
SPLINE
  5
15e
100
AcDbEntity
  8
Layer_1
 62
1
100
AcDbSpline
 70
8
 71
3
 72
8
 73
4
 74
0
 40
0
 40
0
 40
0
 40
0
 40
1
 40
1
 40
1
 40
1
 10
5.426676
 20
12.568992
 30
0.0
 10
5.335405
 20
12.477436
 30
0.0
 10
5.235414
 20
12.394612
 30
0.0
 10
5.128084
 20
12.321875
 30
0.0
  0
SPLINE
  5
15f
100
AcDbEntity
  8
Layer_1
 62
1
100
AcDbSpline
 70
8
 71
3
 72
8
 73
4
 74
0
 40
0
 40
0
 40
0
 40
0
 40
1
 40
1
 40
1
 40
1
 10
5.128084
 20
12.321875
 30
0.0
 10
5.020755
 20
12.249138
 30
0.0
 10
4.906060
 20
12.186490
 30
0.0
 10
4.785354
 20
12.135287
 30
0.0
  0
SPLINE
  5
160
100
AcDbEntity
  8
Layer_1
 62
1
100
AcDbSpline
 70
8
 71
3
 72
8
 73
4
 74
0
 40
0
 40
0
 40
0
 40
0
 40
1
 40
1
 40
1
 40
1
 10
4.785354
 20
12.135287
 30
0.0
 10
4.664676
 20
12.084083
 30
0.0
 10
4.537958
 20
12.044324
 30
0.0
 10
4.406612
 20
12.017366
 30
0.0
  0
SPLINE
  5
161
100
AcDbEntity
  8
Layer_1
 62
1
100
AcDbSpline
 70
8
 71
3
 72
8
 73
4
 74
0
 40
0
 40
0
 40
0
 40
0
 40
1
 40
1
 40
1
 40
1
 10
4.406612
 20
12.017366
 30
0.0
 10
4.275294
 20
11.990414
 30
0.0
 10
4.139291
 20
11.976249
 30
0.0
 10
4.000014
 20
11.976249
 30
0.0
  0
LWPOLYLINE
  5
162
100
AcDbEntity
  8
Layer_1
 62
1
100
AcDbPolyline
 90
2
 70
0
 10
37.999999
 20
14.000000
 30
0.0
 10
37.999999
 20
14.000000
 30
0.0
  0
SPLINE
  5
163
100
AcDbEntity
  8
Layer_1
 62
1
100
AcDbSpline
 70
8
 71
3
 72
8
 73
4
 74
0
 40
0
 40
0
 40
0
 40
0
 40
1
 40
1
 40
1
 40
1
 10
4.000014
 20
1.976238
 30
0.0
 10
3.860709
 20
1.976238
 30
0.0
 10
3.724706
 20
1.990349
 30
0.0
 10
3.593388
 20
2.017358
 30
0.0
  0
SPLINE
  5
164
100
AcDbEntity
  8
Layer_1
 62
1
100
AcDbSpline
 70
8
 71
3
 72
8
 73
4
 74
0
 40
0
 40
0
 40
0
 40
0
 40
1
 40
1
 40
1
 40
1
 10
3.593388
 20
2.017358
 30
0.0
 10
3.462042
 20
2.044451
 30
0.0
 10
3.335324
 20
2.084075
 30
0.0
 10
3.214646
 20
2.135298
 30
0.0
  0
SPLINE
  5
165
100
AcDbEntity
  8
Layer_1
 62
1
100
AcDbSpline
 70
8
 71
3
 72
8
 73
4
 74
0
 40
0
 40
0
 40
0
 40
0
 40
1
 40
1
 40
1
 40
1
 10
3.214646
 20
2.135298
 30
0.0
 10
3.093940
 20
2.186494
 30
0.0
 10
2.979273
 20
2.249147
 30
0.0
 10
2.871915
 20
2.321876
 30
0.0
  0
SPLINE
  5
166
100
AcDbEntity
  8
Layer_1
 62
1
100
AcDbSpline
 70
8
 71
3
 72
8
 73
4
 74
0
 40
0
 40
0
 40
0
 40
0
 40
1
 40
1
 40
1
 40
1
 10
2.871915
 20
2.321876
 30
0.0
 10
2.764586
 20
2.394604
 30
0.0
 10
2.664595
 20
2.477436
 30
0.0
 10
2.573324
 20
2.568989
 30
0.0
  0
SPLINE
  5
167
100
AcDbEntity
  8
Layer_1
 62
1
100
AcDbSpline
 70
8
 71
3
 72
8
 73
4
 74
0
 40
0
 40
0
 40
0
 40
0
 40
1
 40
1
 40
1
 40
1
 10
2.573324
 20
2.568989
 30
0.0
 10
2.482025
 20
2.660542
 30
0.0
 10
2.399447
 20
2.760844
 30
0.0
 10
2.326944
 20
2.868512
 30
0.0
  0
SPLINE
  5
168
100
AcDbEntity
  8
Layer_1
 62
1
100
AcDbSpline
 70
8
 71
3
 72
8
 73
4
 74
0
 40
0
 40
0
 40
0
 40
0
 40
1
 40
1
 40
1
 40
1
 10
2.326944
 20
2.868512
 30
0.0
 10
2.254413
 20
2.976180
 30
0.0
 10
2.191957
 20
3.091213
 30
0.0
 10
2.140932
 20
3.212258
 30
0.0
  0
SPLINE
  5
169
100
AcDbEntity
  8
Layer_1
 62
1
100
AcDbSpline
 70
8
 71
3
 72
8
 73
4
 74
0
 40
0
 40
0
 40
0
 40
0
 40
1
 40
1
 40
1
 40
1
 10
2.140932
 20
3.212258
 30
0.0
 10
2.089878
 20
3.333332
 30
0.0
 10
2.050225
 20
3.460388
 30
0.0
 10
2.023358
 20
3.592158
 30
0.0
  0
SPLINE
  5
16a
100
AcDbEntity
  8
Layer_1
 62
1
100
AcDbSpline
 70
8
 71
3
 72
8
 73
4
 74
0
 40
0
 40
0
 40
0
 40
0
 40
1
 40
1
 40
1
 40
1
 10
2.023358
 20
3.592158
 30
0.0
 10
1.996547
 20
3.723899
 30
0.0
 10
1.982351
 20
3.860297
 30
0.0
 10
1.982351
 20
3.999997
 30
0.0
  0
SPLINE
  5
16b
100
AcDbEntity
  8
Layer_1
 62
1
100
AcDbSpline
 70
8
 71
3
 72
8
 73
4
 74
0
 40
0
 40
0
 40
0
 40
0
 40
1
 40
1
 40
1
 40
1
 10
1.982351
 20
3.999997
 30
0.0
 10
1.982351
 20
4.139725
 30
0.0
 10
1.996462
 20
4.276123
 30
0.0
 10
2.023358
 20
4.407865
 30
0.0
  0
SPLINE
  5
16c
100
AcDbEntity
  8
Layer_1
 62
1
100
AcDbSpline
 70
8
 71
3
 72
8
 73
4
 74
0
 40
0
 40
0
 40
0
 40
0
 40
1
 40
1
 40
1
 40
1
 10
2.023358
 20
4.407865
 30
0.0
 10
2.050169
 20
4.539606
 30
0.0
 10
2.089878
 20
4.666691
 30
0.0
 10
2.140932
 20
4.787736
 30
0.0
  0
SPLINE
  5
16d
100
AcDbEntity
  8
Layer_1
 62
1
100
AcDbSpline
 70
8
 71
3
 72
8
 73
4
 74
0
 40
0
 40
0
 40
0
 40
0
 40
1
 40
1
 40
1
 40
1
 10
2.140932
 20
4.787736
 30
0.0
 10
2.191957
 20
4.908781
 30
0.0
 10
2.254413
 20
5.023843
 30
0.0
 10
2.326944
 20
5.131511
 30
0.0
  0
SPLINE
  5
16e
100
AcDbEntity
  8
Layer_1
 62
1
100
AcDbSpline
 70
8
 71
3
 72
8
 73
4
 74
0
 40
0
 40
0
 40
0
 40
0
 40
1
 40
1
 40
1
 40
1
 10
2.326944
 20
5.131511
 30
0.0
 10
2.399447
 20
5.239150
 30
0.0
 10
2.482025
 20
5.339452
 30
0.0
 10
2.573324
 20
5.431005
 30
0.0
  0
SPLINE
  5
16f
100
AcDbEntity
  8
Layer_1
 62
1
100
AcDbSpline
 70
8
 71
3
 72
8
 73
4
 74
0
 40
0
 40
0
 40
0
 40
0
 40
1
 40
1
 40
1
 40
1
 10
2.573324
 20
5.431005
 30
0.0
 10
2.664595
 20
5.522558
 30
0.0
 10
2.764586
 20
5.605390
 30
0.0
 10
2.871915
 20
5.678119
 30
0.0
  0
SPLINE
  5
170
100
AcDbEntity
  8
Layer_1
 62
1
100
AcDbSpline
 70
8
 71
3
 72
8
 73
4
 74
0
 40
0
 40
0
 40
0
 40
0
 40
1
 40
1
 40
1
 40
1
 10
2.871915
 20
5.678119
 30
0.0
 10
2.979273
 20
5.750876
 30
0.0
 10
3.093940
 20
5.813501
 30
0.0
 10
3.214646
 20
5.864724
 30
0.0
  0
SPLINE
  5
171
100
AcDbEntity
  8
Layer_1
 62
1
100
AcDbSpline
 70
8
 71
3
 72
8
 73
4
 74
0
 40
0
 40
0
 40
0
 40
0
 40
1
 40
1
 40
1
 40
1
 10
3.214646
 20
5.864724
 30
0.0
 10
3.335324
 20
5.915919
 30
0.0
 10
3.462042
 20
5.955684
 30
0.0
 10
3.593388
 20
5.982636
 30
0.0
  0
SPLINE
  5
172
100
AcDbEntity
  8
Layer_1
 62
1
100
AcDbSpline
 70
8
 71
3
 72
8
 73
4
 74
0
 40
0
 40
0
 40
0
 40
0
 40
1
 40
1
 40
1
 40
1
 10
3.593388
 20
5.982636
 30
0.0
 10
3.724706
 20
6.009448
 30
0.0
 10
3.860709
 20
6.023756
 30
0.0
 10
4.000014
 20
6.023756
 30
0.0
  0
SPLINE
  5
173
100
AcDbEntity
  8
Layer_1
 62
1
100
AcDbSpline
 70
8
 71
3
 72
8
 73
4
 74
0
 40
0
 40
0
 40
0
 40
0
 40
1
 40
1
 40
1
 40
1
 10
4.000014
 20
6.023756
 30
0.0
 10
4.139291
 20
6.023756
 30
0.0
 10
4.275294
 20
6.009645
 30
0.0
 10
4.406612
 20
5.982636
 30
0.0
  0
SPLINE
  5
174
100
AcDbEntity
  8
Layer_1
 62
1
100
AcDbSpline
 70
8
 71
3
 72
8
 73
4
 74
0
 40
0
 40
0
 40
0
 40
0
 40
1
 40
1
 40
1
 40
1
 10
4.406612
 20
5.982636
 30
0.0
 10
4.537958
 20
5.955543
 30
0.0
 10
4.664676
 20
5.915919
 30
0.0
 10
4.785354
 20
5.864724
 30
0.0
  0
SPLINE
  5
175
100
AcDbEntity
  8
Layer_1
 62
1
100
AcDbSpline
 70
8
 71
3
 72
8
 73
4
 74
0
 40
0
 40
0
 40
0
 40
0
 40
1
 40
1
 40
1
 40
1
 10
4.785354
 20
5.864724
 30
0.0
 10
4.906060
 20
5.813501
 30
0.0
 10
5.020755
 20
5.750876
 30
0.0
 10
5.128084
 20
5.678119
 30
0.0
  0
SPLINE
  5
176
100
AcDbEntity
  8
Layer_1
 62
1
100
AcDbSpline
 70
8
 71
3
 72
8
 73
4
 74
0
 40
0
 40
0
 40
0
 40
0
 40
1
 40
1
 40
1
 40
1
 10
5.128084
 20
5.678119
 30
0.0
 10
5.235414
 20
5.605390
 30
0.0
 10
5.335405
 20
5.522558
 30
0.0
 10
5.426676
 20
5.431005
 30
0.0
  0
SPLINE
  5
177
100
AcDbEntity
  8
Layer_1
 62
1
100
AcDbSpline
 70
8
 71
3
 72
8
 73
4
 74
0
 40
0
 40
0
 40
0
 40
0
 40
1
 40
1
 40
1
 40
1
 10
5.426676
 20
5.431005
 30
0.0
 10
5.517974
 20
5.339452
 30
0.0
 10
5.600553
 20
5.239150
 30
0.0
 10
5.673056
 20
5.131511
 30
0.0
  0
SPLINE
  5
178
100
AcDbEntity
  8
Layer_1
 62
1
100
AcDbSpline
 70
8
 71
3
 72
8
 73
4
 74
0
 40
0
 40
0
 40
0
 40
0
 40
1
 40
1
 40
1
 40
1
 10
5.673056
 20
5.131511
 30
0.0
 10
5.745587
 20
5.023843
 30
0.0
 10
5.808042
 20
4.908781
 30
0.0
 10
5.859096
 20
4.787736
 30
0.0
  0
SPLINE
  5
179
100
AcDbEntity
  8
Layer_1
 62
1
100
AcDbSpline
 70
8
 71
3
 72
8
 73
4
 74
0
 40
0
 40
0
 40
0
 40
0
 40
1
 40
1
 40
1
 40
1
 10
5.859096
 20
4.787736
 30
0.0
 10
5.910122
 20
4.666691
 30
0.0
 10
5.949774
 20
4.539606
 30
0.0
 10
5.976642
 20
4.407865
 30
0.0
  0
SPLINE
  5
17a
100
AcDbEntity
  8
Layer_1
 62
1
100
AcDbSpline
 70
8
 71
3
 72
8
 73
4
 74
0
 40
0
 40
0
 40
0
 40
0
 40
1
 40
1
 40
1
 40
1
 10
5.976642
 20
4.407865
 30
0.0
 10
6.003453
 20
4.276123
 30
0.0
 10
6.017649
 20
4.139697
 30
0.0
 10
6.017649
 20
3.999997
 30
0.0
  0
SPLINE
  5
17b
100
AcDbEntity
  8
Layer_1
 62
1
100
AcDbSpline
 70
8
 71
3
 72
8
 73
4
 74
0
 40
0
 40
0
 40
0
 40
0
 40
1
 40
1
 40
1
 40
1
 10
6.017649
 20
3.999997
 30
0.0
 10
6.017649
 20
3.860297
 30
0.0
 10
6.003538
 20
3.723899
 30
0.0
 10
5.976642
 20
3.592158
 30
0.0
  0
SPLINE
  5
17c
100
AcDbEntity
  8
Layer_1
 62
1
100
AcDbSpline
 70
8
 71
3
 72
8
 73
4
 74
0
 40
0
 40
0
 40
0
 40
0
 40
1
 40
1
 40
1
 40
1
 10
5.976642
 20
3.592158
 30
0.0
 10
5.949831
 20
3.460416
 30
0.0
 10
5.910122
 20
3.333332
 30
0.0
 10
5.859096
 20
3.212258
 30
0.0
  0
SPLINE
  5
17d
100
AcDbEntity
  8
Layer_1
 62
1
100
AcDbSpline
 70
8
 71
3
 72
8
 73
4
 74
0
 40
0
 40
0
 40
0
 40
0
 40
1
 40
1
 40
1
 40
1
 10
5.859096
 20
3.212258
 30
0.0
 10
5.808042
 20
3.091213
 30
0.0
 10
5.745587
 20
2.976180
 30
0.0
 10
5.673056
 20
2.868512
 30
0.0
  0
SPLINE
  5
17e
100
AcDbEntity
  8
Layer_1
 62
1
100
AcDbSpline
 70
8
 71
3
 72
8
 73
4
 74
0
 40
0
 40
0
 40
0
 40
0
 40
1
 40
1
 40
1
 40
1
 10
5.673056
 20
2.868512
 30
0.0
 10
5.600553
 20
2.760844
 30
0.0
 10
5.517974
 20
2.660542
 30
0.0
 10
5.426676
 20
2.568989
 30
0.0
  0
SPLINE
  5
17f
100
AcDbEntity
  8
Layer_1
 62
1
100
AcDbSpline
 70
8
 71
3
 72
8
 73
4
 74
0
 40
0
 40
0
 40
0
 40
0
 40
1
 40
1
 40
1
 40
1
 10
5.426676
 20
2.568989
 30
0.0
 10
5.335405
 20
2.477436
 30
0.0
 10
5.235414
 20
2.394604
 30
0.0
 10
5.128084
 20
2.321876
 30
0.0
  0
SPLINE
  5
180
100
AcDbEntity
  8
Layer_1
 62
1
100
AcDbSpline
 70
8
 71
3
 72
8
 73
4
 74
0
 40
0
 40
0
 40
0
 40
0
 40
1
 40
1
 40
1
 40
1
 10
5.128084
 20
2.321876
 30
0.0
 10
5.020755
 20
2.249147
 30
0.0
 10
4.906060
 20
2.186494
 30
0.0
 10
4.785354
 20
2.135298
 30
0.0
  0
SPLINE
  5
181
100
AcDbEntity
  8
Layer_1
 62
1
100
AcDbSpline
 70
8
 71
3
 72
8
 73
4
 74
0
 40
0
 40
0
 40
0
 40
0
 40
1
 40
1
 40
1
 40
1
 10
4.785354
 20
2.135298
 30
0.0
 10
4.664676
 20
2.084075
 30
0.0
 10
4.537958
 20
2.044338
 30
0.0
 10
4.406612
 20
2.017358
 30
0.0
  0
SPLINE
  5
182
100
AcDbEntity
  8
Layer_1
 62
1
100
AcDbSpline
 70
8
 71
3
 72
8
 73
4
 74
0
 40
0
 40
0
 40
0
 40
0
 40
1
 40
1
 40
1
 40
1
 10
4.406612
 20
2.017358
 30
0.0
 10
4.275294
 20
1.990264
 30
0.0
 10
4.139291
 20
1.976238
 30
0.0
 10
4.000014
 20
1.976238
 30
0.0
  0
LWPOLYLINE
  5
183
100
AcDbEntity
  8
Layer_1
 62
1
100
AcDbPolyline
 90
2
 70
0
 10
4.000014
 20
11.976249
 30
0.0
 10
4.000014
 20
11.976249
 30
0.0
  0
SPLINE
  5
184
100
AcDbEntity
  8
Layer_1
 62
1
100
AcDbSpline
 70
8
 71
3
 72
8
 73
4
 74
0
 40
0
 40
0
 40
0
 40
0
 40
1
 40
1
 40
1
 40
1
 10
13.999993
 20
1.976255
 30
0.0
 10
13.860717
 20
1.976255
 30
0.0
 10
13.724714
 20
1.990366
 30
0.0
 10
13.593368
 20
2.017375
 30
0.0
  0
SPLINE
  5
185
100
AcDbEntity
  8
Layer_1
 62
1
100
AcDbSpline
 70
8
 71
3
 72
8
 73
4
 74
0
 40
0
 40
0
 40
0
 40
0
 40
1
 40
1
 40
1
 40
1
 10
13.593368
 20
2.017375
 30
0.0
 10
13.462021
 20
2.044186
 30
0.0
 10
13.335332
 20
2.084092
 30
0.0
 10
13.214654
 20
2.135287
 30
0.0
  0
SPLINE
  5
186
100
AcDbEntity
  8
Layer_1
 62
1
100
AcDbSpline
 70
8
 71
3
 72
8
 73
4
 74
0
 40
0
 40
0
 40
0
 40
0
 40
1
 40
1
 40
1
 40
1
 10
13.214654
 20
2.135287
 30
0.0
 10
13.093947
 20
2.186482
 30
0.0
 10
12.979252
 20
2.249136
 30
0.0
 10
12.871923
 20
2.321864
 30
0.0
  0
SPLINE
  5
187
100
AcDbEntity
  8
Layer_1
 62
1
100
AcDbSpline
 70
8
 71
3
 72
8
 73
4
 74
0
 40
0
 40
0
 40
0
 40
0
 40
1
 40
1
 40
1
 40
1
 10
12.871923
 20
2.321864
 30
0.0
 10
12.764594
 20
2.394621
 30
0.0
 10
12.664603
 20
2.477425
 30
0.0
 10
12.573304
 20
2.568978
 30
0.0
  0
SPLINE
  5
188
100
AcDbEntity
  8
Layer_1
 62
1
100
AcDbSpline
 70
8
 71
3
 72
8
 73
4
 74
0
 40
0
 40
0
 40
0
 40
0
 40
1
 40
1
 40
1
 40
1
 10
12.573304
 20
2.568978
 30
0.0
 10
12.482033
 20
2.660559
 30
0.0
 10
12.399455
 20
2.760833
 30
0.0
 10
12.326952
 20
2.868500
 30
0.0
  0
SPLINE
  5
189
100
AcDbEntity
  8
Layer_1
 62
1
100
AcDbSpline
 70
8
 71
3
 72
8
 73
4
 74
0
 40
0
 40
0
 40
0
 40
0
 40
1
 40
1
 40
1
 40
1
 10
12.326952
 20
2.868500
 30
0.0
 10
12.254421
 20
2.976168
 30
0.0
 10
12.191965
 20
3.091202
 30
0.0
 10
12.140911
 20
3.212275
 30
0.0
  0
SPLINE
  5
18a
100
AcDbEntity
  8
Layer_1
 62
1
100
AcDbSpline
 70
8
 71
3
 72
8
 73
4
 74
0
 40
0
 40
0
 40
0
 40
0
 40
1
 40
1
 40
1
 40
1
 10
12.140911
 20
3.212275
 30
0.0
 10
12.089857
 20
3.333320
 30
0.0
 10
12.050233
 20
3.460405
 30
0.0
 10
12.023365
 20
3.592146
 30
0.0
  0
SPLINE
  5
18b
100
AcDbEntity
  8
Layer_1
 62
1
100
AcDbSpline
 70
8
 71
3
 72
8
 73
4
 74
0
 40
0
 40
0
 40
0
 40
0
 40
1
 40
1
 40
1
 40
1
 10
12.023365
 20
3.592146
 30
0.0
 10
11.996554
 20
3.723888
 30
0.0
 10
11.982359
 20
3.860286
 30
0.0
 10
11.982359
 20
3.999986
 30
0.0
  0
SPLINE
  5
18c
100
AcDbEntity
  8
Layer_1
 62
1
100
AcDbSpline
 70
8
 71
3
 72
8
 73
4
 74
0
 40
0
 40
0
 40
0
 40
0
 40
1
 40
1
 40
1
 40
1
 10
11.982359
 20
3.999986
 30
0.0
 10
11.982359
 20
4.139714
 30
0.0
 10
11.996470
 20
4.276112
 30
0.0
 10
12.023365
 20
4.407853
 30
0.0
  0
SPLINE
  5
18d
100
AcDbEntity
  8
Layer_1
 62
1
100
AcDbSpline
 70
8
 71
3
 72
8
 73
4
 74
0
 40
0
 40
0
 40
0
 40
0
 40
1
 40
1
 40
1
 40
1
 10
12.023365
 20
4.407853
 30
0.0
 10
12.050177
 20
4.539595
 30
0.0
 10
12.089857
 20
4.666679
 30
0.0
 10
12.140911
 20
4.787724
 30
0.0
  0
SPLINE
  5
18e
100
AcDbEntity
  8
Layer_1
 62
1
100
AcDbSpline
 70
8
 71
3
 72
8
 73
4
 74
0
 40
0
 40
0
 40
0
 40
0
 40
1
 40
1
 40
1
 40
1
 10
12.140911
 20
4.787724
 30
0.0
 10
12.191965
 20
4.908798
 30
0.0
 10
12.254421
 20
5.023832
 30
0.0
 10
12.326952
 20
5.131499
 30
0.0
  0
SPLINE
  5
18f
100
AcDbEntity
  8
Layer_1
 62
1
100
AcDbSpline
 70
8
 71
3
 72
8
 73
4
 74
0
 40
0
 40
0
 40
0
 40
0
 40
1
 40
1
 40
1
 40
1
 10
12.326952
 20
5.131499
 30
0.0
 10
12.399455
 20
5.239167
 30
0.0
 10
12.482033
 20
5.339441
 30
0.0
 10
12.573304
 20
5.430994
 30
0.0
  0
SPLINE
  5
190
100
AcDbEntity
  8
Layer_1
 62
1
100
AcDbSpline
 70
8
 71
3
 72
8
 73
4
 74
0
 40
0
 40
0
 40
0
 40
0
 40
1
 40
1
 40
1
 40
1
 10
12.573304
 20
5.430994
 30
0.0
 10
12.664603
 20
5.522546
 30
0.0
 10
12.764594
 20
5.605379
 30
0.0
 10
12.871923
 20
5.678136
 30
0.0
  0
SPLINE
  5
191
100
AcDbEntity
  8
Layer_1
 62
1
100
AcDbSpline
 70
8
 71
3
 72
8
 73
4
 74
0
 40
0
 40
0
 40
0
 40
0
 40
1
 40
1
 40
1
 40
1
 10
12.871923
 20
5.678136
 30
0.0
 10
12.979252
 20
5.750864
 30
0.0
 10
13.093947
 20
5.813518
 30
0.0
 10
13.214654
 20
5.864713
 30
0.0
  0
SPLINE
  5
192
100
AcDbEntity
  8
Layer_1
 62
1
100
AcDbSpline
 70
8
 71
3
 72
8
 73
4
 74
0
 40
0
 40
0
 40
0
 40
0
 40
1
 40
1
 40
1
 40
1
 10
13.214654
 20
5.864713
 30
0.0
 10
13.335332
 20
5.915908
 30
0.0
 10
13.462021
 20
5.955673
 30
0.0
 10
13.593368
 20
5.982625
 30
0.0
  0
SPLINE
  5
193
100
AcDbEntity
  8
Layer_1
 62
1
100
AcDbSpline
 70
8
 71
3
 72
8
 73
4
 74
0
 40
0
 40
0
 40
0
 40
0
 40
1
 40
1
 40
1
 40
1
 10
13.593368
 20
5.982625
 30
0.0
 10
13.724714
 20
6.009718
 30
0.0
 10
13.860717
 20
6.023745
 30
0.0
 10
13.999993
 20
6.023745
 30
0.0
  0
SPLINE
  5
194
100
AcDbEntity
  8
Layer_1
 62
1
100
AcDbSpline
 70
8
 71
3
 72
8
 73
4
 74
0
 40
0
 40
0
 40
0
 40
0
 40
1
 40
1
 40
1
 40
1
 10
13.999993
 20
6.023745
 30
0.0
 10
14.139298
 20
6.023745
 30
0.0
 10
14.275273
 20
6.009634
 30
0.0
 10
14.406620
 20
5.982625
 30
0.0
  0
SPLINE
  5
195
100
AcDbEntity
  8
Layer_1
 62
1
100
AcDbSpline
 70
8
 71
3
 72
8
 73
4
 74
0
 40
0
 40
0
 40
0
 40
0
 40
1
 40
1
 40
1
 40
1
 10
14.406620
 20
5.982625
 30
0.0
 10
14.537966
 20
5.955814
 30
0.0
 10
14.664655
 20
5.915908
 30
0.0
 10
14.785362
 20
5.864713
 30
0.0
  0
SPLINE
  5
196
100
AcDbEntity
  8
Layer_1
 62
1
100
AcDbSpline
 70
8
 71
3
 72
8
 73
4
 74
0
 40
0
 40
0
 40
0
 40
0
 40
1
 40
1
 40
1
 40
1
 10
14.785362
 20
5.864713
 30
0.0
 10
14.906040
 20
5.813518
 30
0.0
 10
15.020735
 20
5.750864
 30
0.0
 10
15.128092
 20
5.678136
 30
0.0
  0
SPLINE
  5
197
100
AcDbEntity
  8
Layer_1
 62
1
100
AcDbSpline
 70
8
 71
3
 72
8
 73
4
 74
0
 40
0
 40
0
 40
0
 40
0
 40
1
 40
1
 40
1
 40
1
 10
15.128092
 20
5.678136
 30
0.0
 10
15.235422
 20
5.605379
 30
0.0
 10
15.335413
 20
5.522546
 30
0.0
 10
15.426684
 20
5.430994
 30
0.0
  0
SPLINE
  5
198
100
AcDbEntity
  8
Layer_1
 62
1
100
AcDbSpline
 70
8
 71
3
 72
8
 73
4
 74
0
 40
0
 40
0
 40
0
 40
0
 40
1
 40
1
 40
1
 40
1
 10
15.426684
 20
5.430994
 30
0.0
 10
15.517954
 20
5.339441
 30
0.0
 10
15.600532
 20
5.239167
 30
0.0
 10
15.673064
 20
5.131499
 30
0.0
  0
SPLINE
  5
199
100
AcDbEntity
  8
Layer_1
 62
1
100
AcDbSpline
 70
8
 71
3
 72
8
 73
4
 74
0
 40
0
 40
0
 40
0
 40
0
 40
1
 40
1
 40
1
 40
1
 10
15.673064
 20
5.131499
 30
0.0
 10
15.745566
 20
5.023832
 30
0.0
 10
15.808022
 20
4.908798
 30
0.0
 10
15.859076
 20
4.787724
 30
0.0
  0
SPLINE
  5
19a
100
AcDbEntity
  8
Layer_1
 62
1
100
AcDbSpline
 70
8
 71
3
 72
8
 73
4
 74
0
 40
0
 40
0
 40
0
 40
0
 40
1
 40
1
 40
1
 40
1
 10
15.859076
 20
4.787724
 30
0.0
 10
15.910130
 20
4.666679
 30
0.0
 10
15.949782
 20
4.539595
 30
0.0
 10
15.976650
 20
4.407853
 30
0.0
  0
SPLINE
  5
19b
100
AcDbEntity
  8
Layer_1
 62
1
100
AcDbSpline
 70
8
 71
3
 72
8
 73
4
 74
0
 40
0
 40
0
 40
0
 40
0
 40
1
 40
1
 40
1
 40
1
 10
15.976650
 20
4.407853
 30
0.0
 10
16.003461
 20
4.276112
 30
0.0
 10
16.017629
 20
4.139714
 30
0.0
 10
16.017629
 20
3.999986
 30
0.0
  0
SPLINE
  5
19c
100
AcDbEntity
  8
Layer_1
 62
1
100
AcDbSpline
 70
8
 71
3
 72
8
 73
4
 74
0
 40
0
 40
0
 40
0
 40
0
 40
1
 40
1
 40
1
 40
1
 10
16.017629
 20
3.999986
 30
0.0
 10
16.017629
 20
3.860286
 30
0.0
 10
16.003518
 20
3.723888
 30
0.0
 10
15.976650
 20
3.592146
 30
0.0
  0
SPLINE
  5
19d
100
AcDbEntity
  8
Layer_1
 62
1
100
AcDbSpline
 70
8
 71
3
 72
8
 73
4
 74
0
 40
0
 40
0
 40
0
 40
0
 40
1
 40
1
 40
1
 40
1
 10
15.976650
 20
3.592146
 30
0.0
 10
15.949839
 20
3.460405
 30
0.0
 10
15.910130
 20
3.333320
 30
0.0
 10
15.859076
 20
3.212275
 30
0.0
  0
SPLINE
  5
19e
100
AcDbEntity
  8
Layer_1
 62
1
100
AcDbSpline
 70
8
 71
3
 72
8
 73
4
 74
0
 40
0
 40
0
 40
0
 40
0
 40
1
 40
1
 40
1
 40
1
 10
15.859076
 20
3.212275
 30
0.0
 10
15.808022
 20
3.091202
 30
0.0
 10
15.745566
 20
2.976168
 30
0.0
 10
15.673064
 20
2.868500
 30
0.0
  0
SPLINE
  5
19f
100
AcDbEntity
  8
Layer_1
 62
1
100
AcDbSpline
 70
8
 71
3
 72
8
 73
4
 74
0
 40
0
 40
0
 40
0
 40
0
 40
1
 40
1
 40
1
 40
1
 10
15.673064
 20
2.868500
 30
0.0
 10
15.600532
 20
2.760833
 30
0.0
 10
15.517954
 20
2.660559
 30
0.0
 10
15.426684
 20
2.568978
 30
0.0
  0
SPLINE
  5
1a0
100
AcDbEntity
  8
Layer_1
 62
1
100
AcDbSpline
 70
8
 71
3
 72
8
 73
4
 74
0
 40
0
 40
0
 40
0
 40
0
 40
1
 40
1
 40
1
 40
1
 10
15.426684
 20
2.568978
 30
0.0
 10
15.335413
 20
2.477425
 30
0.0
 10
15.235422
 20
2.394621
 30
0.0
 10
15.128092
 20
2.321864
 30
0.0
  0
SPLINE
  5
1a1
100
AcDbEntity
  8
Layer_1
 62
1
100
AcDbSpline
 70
8
 71
3
 72
8
 73
4
 74
0
 40
0
 40
0
 40
0
 40
0
 40
1
 40
1
 40
1
 40
1
 10
15.128092
 20
2.321864
 30
0.0
 10
15.020735
 20
2.249136
 30
0.0
 10
14.906040
 20
2.186482
 30
0.0
 10
14.785362
 20
2.135287
 30
0.0
  0
SPLINE
  5
1a2
100
AcDbEntity
  8
Layer_1
 62
1
100
AcDbSpline
 70
8
 71
3
 72
8
 73
4
 74
0
 40
0
 40
0
 40
0
 40
0
 40
1
 40
1
 40
1
 40
1
 10
14.785362
 20
2.135287
 30
0.0
 10
14.664655
 20
2.084092
 30
0.0
 10
14.537966
 20
2.044327
 30
0.0
 10
14.406620
 20
2.017375
 30
0.0
  0
SPLINE
  5
1a3
100
AcDbEntity
  8
Layer_1
 62
1
100
AcDbSpline
 70
8
 71
3
 72
8
 73
4
 74
0
 40
0
 40
0
 40
0
 40
0
 40
1
 40
1
 40
1
 40
1
 10
14.406620
 20
2.017375
 30
0.0
 10
14.275273
 20
1.990281
 30
0.0
 10
14.139298
 20
1.976255
 30
0.0
 10
13.999993
 20
1.976255
 30
0.0
  0
LWPOLYLINE
  5
1a4
100
AcDbEntity
  8
Layer_1
 62
1
100
AcDbPolyline
 90
2
 70
0
 10
4.000014
 20
1.976238
 30
0.0
 10
4.000014
 20
1.976238
 30
0.0
  0
SPLINE
  5
1a5
100
AcDbEntity
  8
Layer_1
 62
1
100
AcDbSpline
 70
8
 71
3
 72
8
 73
4
 74
0
 40
0
 40
0
 40
0
 40
0
 40
1
 40
1
 40
1
 40
1
 10
23.999999
 20
1.976255
 30
0.0
 10
23.860694
 20
1.976255
 30
0.0
 10
23.724719
 20
1.990366
 30
0.0
 10
23.593373
 20
2.017375
 30
0.0
  0
SPLINE
  5
1a6
100
AcDbEntity
  8
Layer_1
 62
1
100
AcDbSpline
 70
8
 71
3
 72
8
 73
4
 74
0
 40
0
 40
0
 40
0
 40
0
 40
1
 40
1
 40
1
 40
1
 10
23.593373
 20
2.017375
 30
0.0
 10
23.462027
 20
2.044186
 30
0.0
 10
23.335337
 20
2.084092
 30
0.0
 10
23.214631
 20
2.135287
 30
0.0
  0
SPLINE
  5
1a7
100
AcDbEntity
  8
Layer_1
 62
1
100
AcDbSpline
 70
8
 71
3
 72
8
 73
4
 74
0
 40
0
 40
0
 40
0
 40
0
 40
1
 40
1
 40
1
 40
1
 10
23.214631
 20
2.135287
 30
0.0
 10
23.093953
 20
2.186482
 30
0.0
 10
22.979258
 20
2.249136
 30
0.0
 10
22.871900
 20
2.321864
 30
0.0
  0
SPLINE
  5
1a8
100
AcDbEntity
  8
Layer_1
 62
1
100
AcDbSpline
 70
8
 71
3
 72
8
 73
4
 74
0
 40
0
 40
0
 40
0
 40
0
 40
1
 40
1
 40
1
 40
1
 10
22.871900
 20
2.321864
 30
0.0
 10
22.764571
 20
2.394621
 30
0.0
 10
22.664580
 20
2.477425
 30
0.0
 10
22.573309
 20
2.568978
 30
0.0
  0
SPLINE
  5
1a9
100
AcDbEntity
  8
Layer_1
 62
1
100
AcDbSpline
 70
8
 71
3
 72
8
 73
4
 74
0
 40
0
 40
0
 40
0
 40
0
 40
1
 40
1
 40
1
 40
1
 10
22.573309
 20
2.568978
 30
0.0
 10
22.482038
 20
2.660559
 30
0.0
 10
22.399460
 20
2.760833
 30
0.0
 10
22.326929
 20
2.868500
 30
0.0
  0
SPLINE
  5
1aa
100
AcDbEntity
  8
Layer_1
 62
1
100
AcDbSpline
 70
8
 71
3
 72
8
 73
4
 74
0
 40
0
 40
0
 40
0
 40
0
 40
1
 40
1
 40
1
 40
1
 10
22.326929
 20
2.868500
 30
0.0
 10
22.254426
 20
2.976168
 30
0.0
 10
22.191970
 20
3.091202
 30
0.0
 10
22.140916
 20
3.212275
 30
0.0
  0
SPLINE
  5
1ab
100
AcDbEntity
  8
Layer_1
 62
1
100
AcDbSpline
 70
8
 71
3
 72
8
 73
4
 74
0
 40
0
 40
0
 40
0
 40
0
 40
1
 40
1
 40
1
 40
1
 10
22.140916
 20
3.212275
 30
0.0
 10
22.089862
 20
3.333320
 30
0.0
 10
22.050210
 20
3.460405
 30
0.0
 10
22.023343
 20
3.592146
 30
0.0
  0
SPLINE
  5
1ac
100
AcDbEntity
  8
Layer_1
 62
1
100
AcDbSpline
 70
8
 71
3
 72
8
 73
4
 74
0
 40
0
 40
0
 40
0
 40
0
 40
1
 40
1
 40
1
 40
1
 10
22.023343
 20
3.592146
 30
0.0
 10
21.996532
 20
3.723888
 30
0.0
 10
21.982364
 20
3.860286
 30
0.0
 10
21.982364
 20
3.999986
 30
0.0
  0
SPLINE
  5
1ad
100
AcDbEntity
  8
Layer_1
 62
1
100
AcDbSpline
 70
8
 71
3
 72
8
 73
4
 74
0
 40
0
 40
0
 40
0
 40
0
 40
1
 40
1
 40
1
 40
1
 10
21.982364
 20
3.999986
 30
0.0
 10
21.982364
 20
4.139714
 30
0.0
 10
21.996475
 20
4.276112
 30
0.0
 10
22.023343
 20
4.407853
 30
0.0
  0
SPLINE
  5
1ae
100
AcDbEntity
  8
Layer_1
 62
1
100
AcDbSpline
 70
8
 71
3
 72
8
 73
4
 74
0
 40
0
 40
0
 40
0
 40
0
 40
1
 40
1
 40
1
 40
1
 10
22.023343
 20
4.407853
 30
0.0
 10
22.050154
 20
4.539595
 30
0.0
 10
22.089862
 20
4.666679
 30
0.0
 10
22.140916
 20
4.787724
 30
0.0
  0
SPLINE
  5
1af
100
AcDbEntity
  8
Layer_1
 62
1
100
AcDbSpline
 70
8
 71
3
 72
8
 73
4
 74
0
 40
0
 40
0
 40
0
 40
0
 40
1
 40
1
 40
1
 40
1
 10
22.140916
 20
4.787724
 30
0.0
 10
22.191970
 20
4.908798
 30
0.0
 10
22.254426
 20
5.023832
 30
0.0
 10
22.326929
 20
5.131499
 30
0.0
  0
SPLINE
  5
1b0
100
AcDbEntity
  8
Layer_1
 62
1
100
AcDbSpline
 70
8
 71
3
 72
8
 73
4
 74
0
 40
0
 40
0
 40
0
 40
0
 40
1
 40
1
 40
1
 40
1
 10
22.326929
 20
5.131499
 30
0.0
 10
22.399460
 20
5.239167
 30
0.0
 10
22.482038
 20
5.339441
 30
0.0
 10
22.573309
 20
5.430994
 30
0.0
  0
SPLINE
  5
1b1
100
AcDbEntity
  8
Layer_1
 62
1
100
AcDbSpline
 70
8
 71
3
 72
8
 73
4
 74
0
 40
0
 40
0
 40
0
 40
0
 40
1
 40
1
 40
1
 40
1
 10
22.573309
 20
5.430994
 30
0.0
 10
22.664580
 20
5.522546
 30
0.0
 10
22.764571
 20
5.605379
 30
0.0
 10
22.871900
 20
5.678136
 30
0.0
  0
SPLINE
  5
1b2
100
AcDbEntity
  8
Layer_1
 62
1
100
AcDbSpline
 70
8
 71
3
 72
8
 73
4
 74
0
 40
0
 40
0
 40
0
 40
0
 40
1
 40
1
 40
1
 40
1
 10
22.871900
 20
5.678136
 30
0.0
 10
22.979258
 20
5.750864
 30
0.0
 10
23.093953
 20
5.813518
 30
0.0
 10
23.214631
 20
5.864713
 30
0.0
  0
SPLINE
  5
1b3
100
AcDbEntity
  8
Layer_1
 62
1
100
AcDbSpline
 70
8
 71
3
 72
8
 73
4
 74
0
 40
0
 40
0
 40
0
 40
0
 40
1
 40
1
 40
1
 40
1
 10
23.214631
 20
5.864713
 30
0.0
 10
23.335337
 20
5.915908
 30
0.0
 10
23.462027
 20
5.955673
 30
0.0
 10
23.593373
 20
5.982625
 30
0.0
  0
SPLINE
  5
1b4
100
AcDbEntity
  8
Layer_1
 62
1
100
AcDbSpline
 70
8
 71
3
 72
8
 73
4
 74
0
 40
0
 40
0
 40
0
 40
0
 40
1
 40
1
 40
1
 40
1
 10
23.593373
 20
5.982625
 30
0.0
 10
23.724719
 20
6.009718
 30
0.0
 10
23.860694
 20
6.023745
 30
0.0
 10
23.999999
 20
6.023745
 30
0.0
  0
SPLINE
  5
1b5
100
AcDbEntity
  8
Layer_1
 62
1
100
AcDbSpline
 70
8
 71
3
 72
8
 73
4
 74
0
 40
0
 40
0
 40
0
 40
0
 40
1
 40
1
 40
1
 40
1
 10
23.999999
 20
6.023745
 30
0.0
 10
24.139276
 20
6.023745
 30
0.0
 10
24.275278
 20
6.009634
 30
0.0
 10
24.406625
 20
5.982625
 30
0.0
  0
SPLINE
  5
1b6
100
AcDbEntity
  8
Layer_1
 62
1
100
AcDbSpline
 70
8
 71
3
 72
8
 73
4
 74
0
 40
0
 40
0
 40
0
 40
0
 40
1
 40
1
 40
1
 40
1
 10
24.406625
 20
5.982625
 30
0.0
 10
24.537971
 20
5.955814
 30
0.0
 10
24.664660
 20
5.915908
 30
0.0
 10
24.785339
 20
5.864713
 30
0.0
  0
SPLINE
  5
1b7
100
AcDbEntity
  8
Layer_1
 62
1
100
AcDbSpline
 70
8
 71
3
 72
8
 73
4
 74
0
 40
0
 40
0
 40
0
 40
0
 40
1
 40
1
 40
1
 40
1
 10
24.785339
 20
5.864713
 30
0.0
 10
24.906045
 20
5.813518
 30
0.0
 10
25.020740
 20
5.750864
 30
0.0
 10
25.128069
 20
5.678136
 30
0.0
  0
SPLINE
  5
1b8
100
AcDbEntity
  8
Layer_1
 62
1
100
AcDbSpline
 70
8
 71
3
 72
8
 73
4
 74
0
 40
0
 40
0
 40
0
 40
0
 40
1
 40
1
 40
1
 40
1
 10
25.128069
 20
5.678136
 30
0.0
 10
25.235427
 20
5.605379
 30
0.0
 10
25.335390
 20
5.522546
 30
0.0
 10
25.426689
 20
5.430994
 30
0.0
  0
SPLINE
  5
1b9
100
AcDbEntity
  8
Layer_1
 62
1
100
AcDbSpline
 70
8
 71
3
 72
8
 73
4
 74
0
 40
0
 40
0
 40
0
 40
0
 40
1
 40
1
 40
1
 40
1
 10
25.426689
 20
5.430994
 30
0.0
 10
25.517959
 20
5.339441
 30
0.0
 10
25.600538
 20
5.239167
 30
0.0
 10
25.673040
 20
5.131499
 30
0.0
  0
SPLINE
  5
1ba
100
AcDbEntity
  8
Layer_1
 62
1
100
AcDbSpline
 70
8
 71
3
 72
8
 73
4
 74
0
 40
0
 40
0
 40
0
 40
0
 40
1
 40
1
 40
1
 40
1
 10
25.673040
 20
5.131499
 30
0.0
 10
25.745572
 20
5.023832
 30
0.0
 10
25.808027
 20
4.908798
 30
0.0
 10
25.859081
 20
4.787724
 30
0.0
  0
SPLINE
  5
1bb
100
AcDbEntity
  8
Layer_1
 62
1
100
AcDbSpline
 70
8
 71
3
 72
8
 73
4
 74
0
 40
0
 40
0
 40
0
 40
0
 40
1
 40
1
 40
1
 40
1
 10
25.859081
 20
4.787724
 30
0.0
 10
25.910135
 20
4.666679
 30
0.0
 10
25.949759
 20
4.539595
 30
0.0
 10
25.976627
 20
4.407853
 30
0.0
  0
SPLINE
  5
1bc
100
AcDbEntity
  8
Layer_1
 62
1
100
AcDbSpline
 70
8
 71
3
 72
8
 73
4
 74
0
 40
0
 40
0
 40
0
 40
0
 40
1
 40
1
 40
1
 40
1
 10
25.976627
 20
4.407853
 30
0.0
 10
26.003438
 20
4.276112
 30
0.0
 10
26.017634
 20
4.139714
 30
0.0
 10
26.017634
 20
3.999986
 30
0.0
  0
SPLINE
  5
1bd
100
AcDbEntity
  8
Layer_1
 62
1
100
AcDbSpline
 70
8
 71
3
 72
8
 73
4
 74
0
 40
0
 40
0
 40
0
 40
0
 40
1
 40
1
 40
1
 40
1
 10
26.017634
 20
3.999986
 30
0.0
 10
26.017634
 20
3.860286
 30
0.0
 10
26.003523
 20
3.723888
 30
0.0
 10
25.976627
 20
3.592146
 30
0.0
  0
SPLINE
  5
1be
100
AcDbEntity
  8
Layer_1
 62
1
100
AcDbSpline
 70
8
 71
3
 72
8
 73
4
 74
0
 40
0
 40
0
 40
0
 40
0
 40
1
 40
1
 40
1
 40
1
 10
25.976627
 20
3.592146
 30
0.0
 10
25.949816
 20
3.460405
 30
0.0
 10
25.910135
 20
3.333320
 30
0.0
 10
25.859081
 20
3.212275
 30
0.0
  0
SPLINE
  5
1bf
100
AcDbEntity
  8
Layer_1
 62
1
100
AcDbSpline
 70
8
 71
3
 72
8
 73
4
 74
0
 40
0
 40
0
 40
0
 40
0
 40
1
 40
1
 40
1
 40
1
 10
25.859081
 20
3.212275
 30
0.0
 10
25.808027
 20
3.091202
 30
0.0
 10
25.745572
 20
2.976168
 30
0.0
 10
25.673040
 20
2.868500
 30
0.0
  0
SPLINE
  5
1c0
100
AcDbEntity
  8
Layer_1
 62
1
100
AcDbSpline
 70
8
 71
3
 72
8
 73
4
 74
0
 40
0
 40
0
 40
0
 40
0
 40
1
 40
1
 40
1
 40
1
 10
25.673040
 20
2.868500
 30
0.0
 10
25.600538
 20
2.760833
 30
0.0
 10
25.517959
 20
2.660559
 30
0.0
 10
25.426689
 20
2.568978
 30
0.0
  0
SPLINE
  5
1c1
100
AcDbEntity
  8
Layer_1
 62
1
100
AcDbSpline
 70
8
 71
3
 72
8
 73
4
 74
0
 40
0
 40
0
 40
0
 40
0
 40
1
 40
1
 40
1
 40
1
 10
25.426689
 20
2.568978
 30
0.0
 10
25.335390
 20
2.477425
 30
0.0
 10
25.235427
 20
2.394621
 30
0.0
 10
25.128069
 20
2.321864
 30
0.0
  0
SPLINE
  5
1c2
100
AcDbEntity
  8
Layer_1
 62
1
100
AcDbSpline
 70
8
 71
3
 72
8
 73
4
 74
0
 40
0
 40
0
 40
0
 40
0
 40
1
 40
1
 40
1
 40
1
 10
25.128069
 20
2.321864
 30
0.0
 10
25.020740
 20
2.249136
 30
0.0
 10
24.906045
 20
2.186482
 30
0.0
 10
24.785339
 20
2.135287
 30
0.0
  0
SPLINE
  5
1c3
100
AcDbEntity
  8
Layer_1
 62
1
100
AcDbSpline
 70
8
 71
3
 72
8
 73
4
 74
0
 40
0
 40
0
 40
0
 40
0
 40
1
 40
1
 40
1
 40
1
 10
24.785339
 20
2.135287
 30
0.0
 10
24.664660
 20
2.084092
 30
0.0
 10
24.537971
 20
2.044327
 30
0.0
 10
24.406625
 20
2.017375
 30
0.0
  0
SPLINE
  5
1c4
100
AcDbEntity
  8
Layer_1
 62
1
100
AcDbSpline
 70
8
 71
3
 72
8
 73
4
 74
0
 40
0
 40
0
 40
0
 40
0
 40
1
 40
1
 40
1
 40
1
 10
24.406625
 20
2.017375
 30
0.0
 10
24.275278
 20
1.990281
 30
0.0
 10
24.139276
 20
1.976255
 30
0.0
 10
23.999999
 20
1.976255
 30
0.0
  0
LWPOLYLINE
  5
1c5
100
AcDbEntity
  8
Layer_1
 62
1
100
AcDbPolyline
 90
2
 70
0
 10
13.999993
 20
1.976255
 30
0.0
 10
13.999993
 20
1.976255
 30
0.0
  0
SPLINE
  5
1c6
100
AcDbEntity
  8
Layer_1
 62
1
100
AcDbSpline
 70
8
 71
3
 72
8
 73
4
 74
0
 40
0
 40
0
 40
0
 40
0
 40
1
 40
1
 40
1
 40
1
 10
44.000001
 20
11.976249
 30
0.0
 10
43.860725
 20
11.976249
 30
0.0
 10
43.724722
 20
11.990417
 30
0.0
 10
43.593375
 20
12.017366
 30
0.0
  0
SPLINE
  5
1c7
100
AcDbEntity
  8
Layer_1
 62
1
100
AcDbSpline
 70
8
 71
3
 72
8
 73
4
 74
0
 40
0
 40
0
 40
0
 40
0
 40
1
 40
1
 40
1
 40
1
 10
43.593375
 20
12.017366
 30
0.0
 10
43.462029
 20
12.044318
 30
0.0
 10
43.335340
 20
12.084083
 30
0.0
 10
43.214661
 20
12.135287
 30
0.0
  0
SPLINE
  5
1c8
100
AcDbEntity
  8
Layer_1
 62
1
100
AcDbSpline
 70
8
 71
3
 72
8
 73
4
 74
0
 40
0
 40
0
 40
0
 40
0
 40
1
 40
1
 40
1
 40
1
 10
43.214661
 20
12.135287
 30
0.0
 10
43.093955
 20
12.186490
 30
0.0
 10
42.979260
 20
12.249138
 30
0.0
 10
42.871931
 20
12.321875
 30
0.0
  0
SPLINE
  5
1c9
100
AcDbEntity
  8
Layer_1
 62
1
100
AcDbSpline
 70
8
 71
3
 72
8
 73
4
 74
0
 40
0
 40
0
 40
0
 40
0
 40
1
 40
1
 40
1
 40
1
 10
42.871931
 20
12.321875
 30
0.0
 10
42.764602
 20
12.394612
 30
0.0
 10
42.664610
 20
12.477436
 30
0.0
 10
42.573311
 20
12.568992
 30
0.0
  0
SPLINE
  5
1ca
100
AcDbEntity
  8
Layer_1
 62
1
100
AcDbSpline
 70
8
 71
3
 72
8
 73
4
 74
0
 40
0
 40
0
 40
0
 40
0
 40
1
 40
1
 40
1
 40
1
 10
42.573311
 20
12.568992
 30
0.0
 10
42.482041
 20
12.660550
 30
0.0
 10
42.399463
 20
12.760838
 30
0.0
 10
42.326960
 20
12.868503
 30
0.0
  0
SPLINE
  5
1cb
100
AcDbEntity
  8
Layer_1
 62
1
100
AcDbSpline
 70
8
 71
3
 72
8
 73
4
 74
0
 40
0
 40
0
 40
0
 40
0
 40
1
 40
1
 40
1
 40
1
 10
42.326960
 20
12.868503
 30
0.0
 10
42.254429
 20
12.976168
 30
0.0
 10
42.191973
 20
13.091207
 30
0.0
 10
42.140919
 20
13.212267
 30
0.0
  0
SPLINE
  5
1cc
100
AcDbEntity
  8
Layer_1
 62
1
100
AcDbSpline
 70
8
 71
3
 72
8
 73
4
 74
0
 40
0
 40
0
 40
0
 40
0
 40
1
 40
1
 40
1
 40
1
 10
42.140919
 20
13.212267
 30
0.0
 10
42.089865
 20
13.333326
 30
0.0
 10
42.050241
 20
13.460402
 30
0.0
 10
42.023373
 20
13.592143
 30
0.0
  0
SPLINE
  5
1cd
100
AcDbEntity
  8
Layer_1
 62
1
100
AcDbSpline
 70
8
 71
3
 72
8
 73
4
 74
0
 40
0
 40
0
 40
0
 40
0
 40
1
 40
1
 40
1
 40
1
 10
42.023373
 20
13.592143
 30
0.0
 10
41.996562
 20
13.723885
 30
0.0
 10
41.982366
 20
13.860288
 30
0.0
 10
41.982366
 20
14.000000
 30
0.0
  0
SPLINE
  5
1ce
100
AcDbEntity
  8
Layer_1
 62
1
100
AcDbSpline
 70
8
 71
3
 72
8
 73
4
 74
0
 40
0
 40
0
 40
0
 40
0
 40
1
 40
1
 40
1
 40
1
 10
41.982366
 20
14.000000
 30
0.0
 10
41.982366
 20
14.139711
 30
0.0
 10
41.996477
 20
14.276115
 30
0.0
 10
42.023373
 20
14.407856
 30
0.0
  0
SPLINE
  5
1cf
100
AcDbEntity
  8
Layer_1
 62
1
100
AcDbSpline
 70
8
 71
3
 72
8
 73
4
 74
0
 40
0
 40
0
 40
0
 40
0
 40
1
 40
1
 40
1
 40
1
 10
42.023373
 20
14.407856
 30
0.0
 10
42.050184
 20
14.539597
 30
0.0
 10
42.089865
 20
14.666676
 30
0.0
 10
42.140919
 20
14.787736
 30
0.0
  0
SPLINE
  5
1d0
100
AcDbEntity
  8
Layer_1
 62
1
100
AcDbSpline
 70
8
 71
3
 72
8
 73
4
 74
0
 40
0
 40
0
 40
0
 40
0
 40
1
 40
1
 40
1
 40
1
 10
42.140919
 20
14.787736
 30
0.0
 10
42.191973
 20
14.908795
 30
0.0
 10
42.254429
 20
15.023834
 30
0.0
 10
42.326960
 20
15.131499
 30
0.0
  0
SPLINE
  5
1d1
100
AcDbEntity
  8
Layer_1
 62
1
100
AcDbSpline
 70
8
 71
3
 72
8
 73
4
 74
0
 40
0
 40
0
 40
0
 40
0
 40
1
 40
1
 40
1
 40
1
 10
42.326960
 20
15.131499
 30
0.0
 10
42.399463
 20
15.239164
 30
0.0
 10
42.482041
 20
15.339452
 30
0.0
 10
42.573311
 20
15.431007
 30
0.0
  0
SPLINE
  5
1d2
100
AcDbEntity
  8
Layer_1
 62
1
100
AcDbSpline
 70
8
 71
3
 72
8
 73
4
 74
0
 40
0
 40
0
 40
0
 40
0
 40
1
 40
1
 40
1
 40
1
 10
42.573311
 20
15.431007
 30
0.0
 10
42.664610
 20
15.522566
 30
0.0
 10
42.764602
 20
15.605390
 30
0.0
 10
42.871931
 20
15.678127
 30
0.0
  0
SPLINE
  5
1d3
100
AcDbEntity
  8
Layer_1
 62
1
100
AcDbSpline
 70
8
 71
3
 72
8
 73
4
 74
0
 40
0
 40
0
 40
0
 40
0
 40
1
 40
1
 40
1
 40
1
 10
42.871931
 20
15.678127
 30
0.0
 10
42.979260
 20
15.750861
 30
0.0
 10
43.093955
 20
15.813512
 30
0.0
 10
43.214661
 20
15.864715
 30
0.0
  0
SPLINE
  5
1d4
100
AcDbEntity
  8
Layer_1
 62
1
100
AcDbSpline
 70
8
 71
3
 72
8
 73
4
 74
0
 40
0
 40
0
 40
0
 40
0
 40
1
 40
1
 40
1
 40
1
 10
43.214661
 20
15.864715
 30
0.0
 10
43.335340
 20
15.915919
 30
0.0
 10
43.462029
 20
15.955678
 30
0.0
 10
43.593375
 20
15.982636
 30
0.0
  0
SPLINE
  5
1d5
100
AcDbEntity
  8
Layer_1
 62
1
100
AcDbSpline
 70
8
 71
3
 72
8
 73
4
 74
0
 40
0
 40
0
 40
0
 40
0
 40
1
 40
1
 40
1
 40
1
 10
43.593375
 20
15.982636
 30
0.0
 10
43.724722
 20
16.009588
 30
0.0
 10
43.860725
 20
16.023750
 30
0.0
 10
44.000001
 20
16.023750
 30
0.0
  0
SPLINE
  5
1d6
100
AcDbEntity
  8
Layer_1
 62
1
100
AcDbSpline
 70
8
 71
3
 72
8
 73
4
 74
0
 40
0
 40
0
 40
0
 40
0
 40
1
 40
1
 40
1
 40
1
 10
44.000001
 20
16.023750
 30
0.0
 10
44.139306
 20
16.023750
 30
0.0
 10
44.275281
 20
16.009583
 30
0.0
 10
44.406627
 20
15.982636
 30
0.0
  0
SPLINE
  5
1d7
100
AcDbEntity
  8
Layer_1
 62
1
100
AcDbSpline
 70
8
 71
3
 72
8
 73
4
 74
0
 40
0
 40
0
 40
0
 40
0
 40
1
 40
1
 40
1
 40
1
 10
44.406627
 20
15.982636
 30
0.0
 10
44.537973
 20
15.955684
 30
0.0
 10
44.664663
 20
15.915919
 30
0.0
 10
44.785369
 20
15.864715
 30
0.0
  0
SPLINE
  5
1d8
100
AcDbEntity
  8
Layer_1
 62
1
100
AcDbSpline
 70
8
 71
3
 72
8
 73
4
 74
0
 40
0
 40
0
 40
0
 40
0
 40
1
 40
1
 40
1
 40
1
 10
44.785369
 20
15.864715
 30
0.0
 10
44.906047
 20
15.813512
 30
0.0
 10
45.020743
 20
15.750861
 30
0.0
 10
45.128100
 20
15.678127
 30
0.0
  0
SPLINE
  5
1d9
100
AcDbEntity
  8
Layer_1
 62
1
100
AcDbSpline
 70
8
 71
3
 72
8
 73
4
 74
0
 40
0
 40
0
 40
0
 40
0
 40
1
 40
1
 40
1
 40
1
 10
45.128100
 20
15.678127
 30
0.0
 10
45.235429
 20
15.605390
 30
0.0
 10
45.335420
 20
15.522566
 30
0.0
 10
45.426691
 20
15.431007
 30
0.0
  0
SPLINE
  5
1da
100
AcDbEntity
  8
Layer_1
 62
1
100
AcDbSpline
 70
8
 71
3
 72
8
 73
4
 74
0
 40
0
 40
0
 40
0
 40
0
 40
1
 40
1
 40
1
 40
1
 10
45.426691
 20
15.431007
 30
0.0
 10
45.517962
 20
15.339452
 30
0.0
 10
45.600540
 20
15.239164
 30
0.0
 10
45.673071
 20
15.131499
 30
0.0
  0
SPLINE
  5
1db
100
AcDbEntity
  8
Layer_1
 62
1
100
AcDbSpline
 70
8
 71
3
 72
8
 73
4
 74
0
 40
0
 40
0
 40
0
 40
0
 40
1
 40
1
 40
1
 40
1
 10
45.673071
 20
15.131499
 30
0.0
 10
45.745574
 20
15.023834
 30
0.0
 10
45.808030
 20
14.908795
 30
0.0
 10
45.859084
 20
14.787736
 30
0.0
  0
SPLINE
  5
1dc
100
AcDbEntity
  8
Layer_1
 62
1
100
AcDbSpline
 70
8
 71
3
 72
8
 73
4
 74
0
 40
0
 40
0
 40
0
 40
0
 40
1
 40
1
 40
1
 40
1
 10
45.859084
 20
14.787736
 30
0.0
 10
45.910138
 20
14.666676
 30
0.0
 10
45.949790
 20
14.539597
 30
0.0
 10
45.976657
 20
14.407856
 30
0.0
  0
SPLINE
  5
1dd
100
AcDbEntity
  8
Layer_1
 62
1
100
AcDbSpline
 70
8
 71
3
 72
8
 73
4
 74
0
 40
0
 40
0
 40
0
 40
0
 40
1
 40
1
 40
1
 40
1
 10
45.976657
 20
14.407856
 30
0.0
 10
46.003469
 20
14.276115
 30
0.0
 10
46.017636
 20
14.139711
 30
0.0
 10
46.017636
 20
14.000000
 30
0.0
  0
SPLINE
  5
1de
100
AcDbEntity
  8
Layer_1
 62
1
100
AcDbSpline
 70
8
 71
3
 72
8
 73
4
 74
0
 40
0
 40
0
 40
0
 40
0
 40
1
 40
1
 40
1
 40
1
 10
46.017636
 20
14.000000
 30
0.0
 10
46.017636
 20
13.860288
 30
0.0
 10
46.003525
 20
13.723885
 30
0.0
 10
45.976657
 20
13.592143
 30
0.0
  0
SPLINE
  5
1df
100
AcDbEntity
  8
Layer_1
 62
1
100
AcDbSpline
 70
8
 71
3
 72
8
 73
4
 74
0
 40
0
 40
0
 40
0
 40
0
 40
1
 40
1
 40
1
 40
1
 10
45.976657
 20
13.592143
 30
0.0
 10
45.949846
 20
13.460402
 30
0.0
 10
45.910138
 20
13.333326
 30
0.0
 10
45.859084
 20
13.212267
 30
0.0
  0
SPLINE
  5
1e0
100
AcDbEntity
  8
Layer_1
 62
1
100
AcDbSpline
 70
8
 71
3
 72
8
 73
4
 74
0
 40
0
 40
0
 40
0
 40
0
 40
1
 40
1
 40
1
 40
1
 10
45.859084
 20
13.212267
 30
0.0
 10
45.808030
 20
13.091207
 30
0.0
 10
45.745574
 20
12.976168
 30
0.0
 10
45.673071
 20
12.868503
 30
0.0
  0
SPLINE
  5
1e1
100
AcDbEntity
  8
Layer_1
 62
1
100
AcDbSpline
 70
8
 71
3
 72
8
 73
4
 74
0
 40
0
 40
0
 40
0
 40
0
 40
1
 40
1
 40
1
 40
1
 10
45.673071
 20
12.868503
 30
0.0
 10
45.600540
 20
12.760838
 30
0.0
 10
45.517962
 20
12.660550
 30
0.0
 10
45.426691
 20
12.568992
 30
0.0
  0
SPLINE
  5
1e2
100
AcDbEntity
  8
Layer_1
 62
1
100
AcDbSpline
 70
8
 71
3
 72
8
 73
4
 74
0
 40
0
 40
0
 40
0
 40
0
 40
1
 40
1
 40
1
 40
1
 10
45.426691
 20
12.568992
 30
0.0
 10
45.335420
 20
12.477436
 30
0.0
 10
45.235429
 20
12.394612
 30
0.0
 10
45.128100
 20
12.321875
 30
0.0
  0
SPLINE
  5
1e3
100
AcDbEntity
  8
Layer_1
 62
1
100
AcDbSpline
 70
8
 71
3
 72
8
 73
4
 74
0
 40
0
 40
0
 40
0
 40
0
 40
1
 40
1
 40
1
 40
1
 10
45.128100
 20
12.321875
 30
0.0
 10
45.020743
 20
12.249138
 30
0.0
 10
44.906047
 20
12.186490
 30
0.0
 10
44.785369
 20
12.135287
 30
0.0
  0
SPLINE
  5
1e4
100
AcDbEntity
  8
Layer_1
 62
1
100
AcDbSpline
 70
8
 71
3
 72
8
 73
4
 74
0
 40
0
 40
0
 40
0
 40
0
 40
1
 40
1
 40
1
 40
1
 10
44.785369
 20
12.135287
 30
0.0
 10
44.664663
 20
12.084083
 30
0.0
 10
44.537973
 20
12.044324
 30
0.0
 10
44.406627
 20
12.017366
 30
0.0
  0
SPLINE
  5
1e5
100
AcDbEntity
  8
Layer_1
 62
1
100
AcDbSpline
 70
8
 71
3
 72
8
 73
4
 74
0
 40
0
 40
0
 40
0
 40
0
 40
1
 40
1
 40
1
 40
1
 10
44.406627
 20
12.017366
 30
0.0
 10
44.275281
 20
11.990414
 30
0.0
 10
44.139306
 20
11.976249
 30
0.0
 10
44.000001
 20
11.976249
 30
0.0
  0
LWPOLYLINE
  5
1e6
100
AcDbEntity
  8
Layer_1
 62
1
100
AcDbPolyline
 90
2
 70
0
 10
23.999999
 20
1.976255
 30
0.0
 10
23.999999
 20
1.976255
 30
0.0
  0
SPLINE
  5
1e7
100
AcDbEntity
  8
Layer_1
 62
1
100
AcDbSpline
 70
8
 71
3
 72
8
 73
4
 74
0
 40
0
 40
0
 40
0
 40
0
 40
1
 40
1
 40
1
 40
1
 10
44.000001
 20
1.976238
 30
0.0
 10
43.860725
 20
1.976238
 30
0.0
 10
43.724722
 20
1.990349
 30
0.0
 10
43.593375
 20
2.017358
 30
0.0
  0
SPLINE
  5
1e8
100
AcDbEntity
  8
Layer_1
 62
1
100
AcDbSpline
 70
8
 71
3
 72
8
 73
4
 74
0
 40
0
 40
0
 40
0
 40
0
 40
1
 40
1
 40
1
 40
1
 10
43.593375
 20
2.017358
 30
0.0
 10
43.462029
 20
2.044451
 30
0.0
 10
43.335340
 20
2.084075
 30
0.0
 10
43.214661
 20
2.135298
 30
0.0
  0
SPLINE
  5
1e9
100
AcDbEntity
  8
Layer_1
 62
1
100
AcDbSpline
 70
8
 71
3
 72
8
 73
4
 74
0
 40
0
 40
0
 40
0
 40
0
 40
1
 40
1
 40
1
 40
1
 10
43.214661
 20
2.135298
 30
0.0
 10
43.093955
 20
2.186494
 30
0.0
 10
42.979260
 20
2.249147
 30
0.0
 10
42.871931
 20
2.321876
 30
0.0
  0
SPLINE
  5
1ea
100
AcDbEntity
  8
Layer_1
 62
1
100
AcDbSpline
 70
8
 71
3
 72
8
 73
4
 74
0
 40
0
 40
0
 40
0
 40
0
 40
1
 40
1
 40
1
 40
1
 10
42.871931
 20
2.321876
 30
0.0
 10
42.764602
 20
2.394604
 30
0.0
 10
42.664610
 20
2.477436
 30
0.0
 10
42.573311
 20
2.568989
 30
0.0
  0
SPLINE
  5
1eb
100
AcDbEntity
  8
Layer_1
 62
1
100
AcDbSpline
 70
8
 71
3
 72
8
 73
4
 74
0
 40
0
 40
0
 40
0
 40
0
 40
1
 40
1
 40
1
 40
1
 10
42.573311
 20
2.568989
 30
0.0
 10
42.482041
 20
2.660542
 30
0.0
 10
42.399463
 20
2.760844
 30
0.0
 10
42.326960
 20
2.868512
 30
0.0
  0
SPLINE
  5
1ec
100
AcDbEntity
  8
Layer_1
 62
1
100
AcDbSpline
 70
8
 71
3
 72
8
 73
4
 74
0
 40
0
 40
0
 40
0
 40
0
 40
1
 40
1
 40
1
 40
1
 10
42.326960
 20
2.868512
 30
0.0
 10
42.254429
 20
2.976180
 30
0.0
 10
42.191973
 20
3.091213
 30
0.0
 10
42.140919
 20
3.212258
 30
0.0
  0
SPLINE
  5
1ed
100
AcDbEntity
  8
Layer_1
 62
1
100
AcDbSpline
 70
8
 71
3
 72
8
 73
4
 74
0
 40
0
 40
0
 40
0
 40
0
 40
1
 40
1
 40
1
 40
1
 10
42.140919
 20
3.212258
 30
0.0
 10
42.089865
 20
3.333332
 30
0.0
 10
42.050241
 20
3.460388
 30
0.0
 10
42.023373
 20
3.592130
 30
0.0
  0
SPLINE
  5
1ee
100
AcDbEntity
  8
Layer_1
 62
1
100
AcDbSpline
 70
8
 71
3
 72
8
 73
4
 74
0
 40
0
 40
0
 40
0
 40
0
 40
1
 40
1
 40
1
 40
1
 10
42.023373
 20
3.592130
 30
0.0
 10
41.996562
 20
3.723871
 30
0.0
 10
41.982366
 20
3.860297
 30
0.0
 10
41.982366
 20
3.999997
 30
0.0
  0
SPLINE
  5
1ef
100
AcDbEntity
  8
Layer_1
 62
1
100
AcDbSpline
 70
8
 71
3
 72
8
 73
4
 74
0
 40
0
 40
0
 40
0
 40
0
 40
1
 40
1
 40
1
 40
1
 10
41.982366
 20
3.999997
 30
0.0
 10
41.982366
 20
4.139697
 30
0.0
 10
41.996477
 20
4.276123
 30
0.0
 10
42.023373
 20
4.407865
 30
0.0
  0
SPLINE
  5
1f0
100
AcDbEntity
  8
Layer_1
 62
1
100
AcDbSpline
 70
8
 71
3
 72
8
 73
4
 74
0
 40
0
 40
0
 40
0
 40
0
 40
1
 40
1
 40
1
 40
1
 10
42.023373
 20
4.407865
 30
0.0
 10
42.050184
 20
4.539606
 30
0.0
 10
42.089865
 20
4.666662
 30
0.0
 10
42.140919
 20
4.787736
 30
0.0
  0
SPLINE
  5
1f1
100
AcDbEntity
  8
Layer_1
 62
1
100
AcDbSpline
 70
8
 71
3
 72
8
 73
4
 74
0
 40
0
 40
0
 40
0
 40
0
 40
1
 40
1
 40
1
 40
1
 10
42.140919
 20
4.787736
 30
0.0
 10
42.191973
 20
4.908781
 30
0.0
 10
42.254429
 20
5.023843
 30
0.0
 10
42.326960
 20
5.131511
 30
0.0
  0
SPLINE
  5
1f2
100
AcDbEntity
  8
Layer_1
 62
1
100
AcDbSpline
 70
8
 71
3
 72
8
 73
4
 74
0
 40
0
 40
0
 40
0
 40
0
 40
1
 40
1
 40
1
 40
1
 10
42.326960
 20
5.131511
 30
0.0
 10
42.399463
 20
5.239150
 30
0.0
 10
42.482041
 20
5.339452
 30
0.0
 10
42.573311
 20
5.431005
 30
0.0
  0
SPLINE
  5
1f3
100
AcDbEntity
  8
Layer_1
 62
1
100
AcDbSpline
 70
8
 71
3
 72
8
 73
4
 74
0
 40
0
 40
0
 40
0
 40
0
 40
1
 40
1
 40
1
 40
1
 10
42.573311
 20
5.431005
 30
0.0
 10
42.664610
 20
5.522558
 30
0.0
 10
42.764602
 20
5.605390
 30
0.0
 10
42.871931
 20
5.678119
 30
0.0
  0
SPLINE
  5
1f4
100
AcDbEntity
  8
Layer_1
 62
1
100
AcDbSpline
 70
8
 71
3
 72
8
 73
4
 74
0
 40
0
 40
0
 40
0
 40
0
 40
1
 40
1
 40
1
 40
1
 10
42.871931
 20
5.678119
 30
0.0
 10
42.979260
 20
5.750876
 30
0.0
 10
43.093955
 20
5.813501
 30
0.0
 10
43.214661
 20
5.864724
 30
0.0
  0
SPLINE
  5
1f5
100
AcDbEntity
  8
Layer_1
 62
1
100
AcDbSpline
 70
8
 71
3
 72
8
 73
4
 74
0
 40
0
 40
0
 40
0
 40
0
 40
1
 40
1
 40
1
 40
1
 10
43.214661
 20
5.864724
 30
0.0
 10
43.335340
 20
5.915919
 30
0.0
 10
43.462029
 20
5.955684
 30
0.0
 10
43.593375
 20
5.982636
 30
0.0
  0
SPLINE
  5
1f6
100
AcDbEntity
  8
Layer_1
 62
1
100
AcDbSpline
 70
8
 71
3
 72
8
 73
4
 74
0
 40
0
 40
0
 40
0
 40
0
 40
1
 40
1
 40
1
 40
1
 10
43.593375
 20
5.982636
 30
0.0
 10
43.724722
 20
6.009730
 30
0.0
 10
43.860725
 20
6.023756
 30
0.0
 10
44.000001
 20
6.023756
 30
0.0
  0
SPLINE
  5
1f7
100
AcDbEntity
  8
Layer_1
 62
1
100
AcDbSpline
 70
8
 71
3
 72
8
 73
4
 74
0
 40
0
 40
0
 40
0
 40
0
 40
1
 40
1
 40
1
 40
1
 10
44.000001
 20
6.023756
 30
0.0
 10
44.139306
 20
6.023756
 30
0.0
 10
44.275281
 20
6.009645
 30
0.0
 10
44.406627
 20
5.982636
 30
0.0
  0
SPLINE
  5
1f8
100
AcDbEntity
  8
Layer_1
 62
1
100
AcDbSpline
 70
8
 71
3
 72
8
 73
4
 74
0
 40
0
 40
0
 40
0
 40
0
 40
1
 40
1
 40
1
 40
1
 10
44.406627
 20
5.982636
 30
0.0
 10
44.537973
 20
5.955543
 30
0.0
 10
44.664663
 20
5.915919
 30
0.0
 10
44.785369
 20
5.864724
 30
0.0
  0
SPLINE
  5
1f9
100
AcDbEntity
  8
Layer_1
 62
1
100
AcDbSpline
 70
8
 71
3
 72
8
 73
4
 74
0
 40
0
 40
0
 40
0
 40
0
 40
1
 40
1
 40
1
 40
1
 10
44.785369
 20
5.864724
 30
0.0
 10
44.906047
 20
5.813501
 30
0.0
 10
45.020743
 20
5.750876
 30
0.0
 10
45.128100
 20
5.678119
 30
0.0
  0
SPLINE
  5
1fa
100
AcDbEntity
  8
Layer_1
 62
1
100
AcDbSpline
 70
8
 71
3
 72
8
 73
4
 74
0
 40
0
 40
0
 40
0
 40
0
 40
1
 40
1
 40
1
 40
1
 10
45.128100
 20
5.678119
 30
0.0
 10
45.235429
 20
5.605390
 30
0.0
 10
45.335420
 20
5.522558
 30
0.0
 10
45.426691
 20
5.431005
 30
0.0
  0
SPLINE
  5
1fb
100
AcDbEntity
  8
Layer_1
 62
1
100
AcDbSpline
 70
8
 71
3
 72
8
 73
4
 74
0
 40
0
 40
0
 40
0
 40
0
 40
1
 40
1
 40
1
 40
1
 10
45.426691
 20
5.431005
 30
0.0
 10
45.517962
 20
5.339452
 30
0.0
 10
45.600540
 20
5.239150
 30
0.0
 10
45.673071
 20
5.131511
 30
0.0
  0
SPLINE
  5
1fc
100
AcDbEntity
  8
Layer_1
 62
1
100
AcDbSpline
 70
8
 71
3
 72
8
 73
4
 74
0
 40
0
 40
0
 40
0
 40
0
 40
1
 40
1
 40
1
 40
1
 10
45.673071
 20
5.131511
 30
0.0
 10
45.745574
 20
5.023843
 30
0.0
 10
45.808030
 20
4.908781
 30
0.0
 10
45.859084
 20
4.787736
 30
0.0
  0
SPLINE
  5
1fd
100
AcDbEntity
  8
Layer_1
 62
1
100
AcDbSpline
 70
8
 71
3
 72
8
 73
4
 74
0
 40
0
 40
0
 40
0
 40
0
 40
1
 40
1
 40
1
 40
1
 10
45.859084
 20
4.787736
 30
0.0
 10
45.910138
 20
4.666662
 30
0.0
 10
45.949790
 20
4.539606
 30
0.0
 10
45.976657
 20
4.407865
 30
0.0
  0
SPLINE
  5
1fe
100
AcDbEntity
  8
Layer_1
 62
1
100
AcDbSpline
 70
8
 71
3
 72
8
 73
4
 74
0
 40
0
 40
0
 40
0
 40
0
 40
1
 40
1
 40
1
 40
1
 10
45.976657
 20
4.407865
 30
0.0
 10
46.003469
 20
4.276123
 30
0.0
 10
46.017636
 20
4.139697
 30
0.0
 10
46.017636
 20
3.999997
 30
0.0
  0
SPLINE
  5
1ff
100
AcDbEntity
  8
Layer_1
 62
1
100
AcDbSpline
 70
8
 71
3
 72
8
 73
4
 74
0
 40
0
 40
0
 40
0
 40
0
 40
1
 40
1
 40
1
 40
1
 10
46.017636
 20
3.999997
 30
0.0
 10
46.017636
 20
3.860297
 30
0.0
 10
46.003525
 20
3.723871
 30
0.0
 10
45.976657
 20
3.592130
 30
0.0
  0
SPLINE
  5
200
100
AcDbEntity
  8
Layer_1
 62
1
100
AcDbSpline
 70
8
 71
3
 72
8
 73
4
 74
0
 40
0
 40
0
 40
0
 40
0
 40
1
 40
1
 40
1
 40
1
 10
45.976657
 20
3.592130
 30
0.0
 10
45.949846
 20
3.460388
 30
0.0
 10
45.910138
 20
3.333332
 30
0.0
 10
45.859084
 20
3.212258
 30
0.0
  0
SPLINE
  5
201
100
AcDbEntity
  8
Layer_1
 62
1
100
AcDbSpline
 70
8
 71
3
 72
8
 73
4
 74
0
 40
0
 40
0
 40
0
 40
0
 40
1
 40
1
 40
1
 40
1
 10
45.859084
 20
3.212258
 30
0.0
 10
45.808030
 20
3.091213
 30
0.0
 10
45.745574
 20
2.976180
 30
0.0
 10
45.673071
 20
2.868512
 30
0.0
  0
SPLINE
  5
202
100
AcDbEntity
  8
Layer_1
 62
1
100
AcDbSpline
 70
8
 71
3
 72
8
 73
4
 74
0
 40
0
 40
0
 40
0
 40
0
 40
1
 40
1
 40
1
 40
1
 10
45.673071
 20
2.868512
 30
0.0
 10
45.600540
 20
2.760844
 30
0.0
 10
45.517962
 20
2.660542
 30
0.0
 10
45.426691
 20
2.568989
 30
0.0
  0
SPLINE
  5
203
100
AcDbEntity
  8
Layer_1
 62
1
100
AcDbSpline
 70
8
 71
3
 72
8
 73
4
 74
0
 40
0
 40
0
 40
0
 40
0
 40
1
 40
1
 40
1
 40
1
 10
45.426691
 20
2.568989
 30
0.0
 10
45.335420
 20
2.477436
 30
0.0
 10
45.235429
 20
2.394604
 30
0.0
 10
45.128100
 20
2.321876
 30
0.0
  0
SPLINE
  5
204
100
AcDbEntity
  8
Layer_1
 62
1
100
AcDbSpline
 70
8
 71
3
 72
8
 73
4
 74
0
 40
0
 40
0
 40
0
 40
0
 40
1
 40
1
 40
1
 40
1
 10
45.128100
 20
2.321876
 30
0.0
 10
45.020743
 20
2.249147
 30
0.0
 10
44.906047
 20
2.186494
 30
0.0
 10
44.785369
 20
2.135298
 30
0.0
  0
SPLINE
  5
205
100
AcDbEntity
  8
Layer_1
 62
1
100
AcDbSpline
 70
8
 71
3
 72
8
 73
4
 74
0
 40
0
 40
0
 40
0
 40
0
 40
1
 40
1
 40
1
 40
1
 10
44.785369
 20
2.135298
 30
0.0
 10
44.664663
 20
2.084075
 30
0.0
 10
44.537973
 20
2.044310
 30
0.0
 10
44.406627
 20
2.017358
 30
0.0
  0
SPLINE
  5
206
100
AcDbEntity
  8
Layer_1
 62
1
100
AcDbSpline
 70
8
 71
3
 72
8
 73
4
 74
0
 40
0
 40
0
 40
0
 40
0
 40
1
 40
1
 40
1
 40
1
 10
44.406627
 20
2.017358
 30
0.0
 10
44.275281
 20
1.990264
 30
0.0
 10
44.139306
 20
1.976238
 30
0.0
 10
44.000001
 20
1.976238
 30
0.0
  0
LWPOLYLINE
  5
207
100
AcDbEntity
  8
Layer_1
 62
1
100
AcDbPolyline
 90
2
 70
0
 10
44.000001
 20
11.976249
 30
0.0
 10
44.000001
 20
11.976249
 30
0.0
  0
SPLINE
  5
208
100
AcDbEntity
  8
Layer_1
 62
1
100
AcDbSpline
 70
8
 71
3
 72
8
 73
4
 74
0
 40
0
 40
0
 40
0
 40
0
 40
1
 40
1
 40
1
 40
1
 10
34.038234
 20
2.016387
 30
0.0
 10
33.898929
 20
2.016387
 30
0.0
 10
33.762926
 20
2.030498
 30
0.0
 10
33.631608
 20
2.057507
 30
0.0
  0
SPLINE
  5
209
100
AcDbEntity
  8
Layer_1
 62
1
100
AcDbSpline
 70
8
 71
3
 72
8
 73
4
 74
0
 40
0
 40
0
 40
0
 40
0
 40
1
 40
1
 40
1
 40
1
 10
33.631608
 20
2.057507
 30
0.0
 10
33.500262
 20
2.084318
 30
0.0
 10
33.373544
 20
2.124224
 30
0.0
 10
33.252866
 20
2.175419
 30
0.0
  0
SPLINE
  5
20a
100
AcDbEntity
  8
Layer_1
 62
1
100
AcDbSpline
 70
8
 71
3
 72
8
 73
4
 74
0
 40
0
 40
0
 40
0
 40
0
 40
1
 40
1
 40
1
 40
1
 10
33.252866
 20
2.175419
 30
0.0
 10
33.132160
 20
2.226614
 30
0.0
 10
33.017493
 20
2.289268
 30
0.0
 10
32.910135
 20
2.361996
 30
0.0
  0
SPLINE
  5
20b
100
AcDbEntity
  8
Layer_1
 62
1
100
AcDbSpline
 70
8
 71
3
 72
8
 73
4
 74
0
 40
0
 40
0
 40
0
 40
0
 40
1
 40
1
 40
1
 40
1
 10
32.910135
 20
2.361996
 30
0.0
 10
32.802806
 20
2.434753
 30
0.0
 10
32.702815
 20
2.517557
 30
0.0
 10
32.611544
 20
2.609110
 30
0.0
  0
SPLINE
  5
20c
100
AcDbEntity
  8
Layer_1
 62
1
100
AcDbSpline
 70
8
 71
3
 72
8
 73
4
 74
0
 40
0
 40
0
 40
0
 40
0
 40
1
 40
1
 40
1
 40
1
 10
32.611544
 20
2.609110
 30
0.0
 10
32.520245
 20
2.700691
 30
0.0
 10
32.437667
 20
2.800965
 30
0.0
 10
32.365164
 20
2.908632
 30
0.0
  0
SPLINE
  5
20d
100
AcDbEntity
  8
Layer_1
 62
1
100
AcDbSpline
 70
8
 71
3
 72
8
 73
4
 74
0
 40
0
 40
0
 40
0
 40
0
 40
1
 40
1
 40
1
 40
1
 10
32.365164
 20
2.908632
 30
0.0
 10
32.292633
 20
3.016300
 30
0.0
 10
32.230177
 20
3.131334
 30
0.0
 10
32.179152
 20
3.252379
 30
0.0
  0
SPLINE
  5
20e
100
AcDbEntity
  8
Layer_1
 62
1
100
AcDbSpline
 70
8
 71
3
 72
8
 73
4
 74
0
 40
0
 40
0
 40
0
 40
0
 40
1
 40
1
 40
1
 40
1
 10
32.179152
 20
3.252379
 30
0.0
 10
32.128098
 20
3.373452
 30
0.0
 10
32.088445
 20
3.500537
 30
0.0
 10
32.061578
 20
3.632278
 30
0.0
  0
SPLINE
  5
20f
100
AcDbEntity
  8
Layer_1
 62
1
100
AcDbSpline
 70
8
 71
3
 72
8
 73
4
 74
0
 40
0
 40
0
 40
0
 40
0
 40
1
 40
1
 40
1
 40
1
 10
32.061578
 20
3.632278
 30
0.0
 10
32.034767
 20
3.764020
 30
0.0
 10
32.020571
 20
3.900418
 30
0.0
 10
32.020571
 20
4.040118
 30
0.0
  0
SPLINE
  5
210
100
AcDbEntity
  8
Layer_1
 62
1
100
AcDbSpline
 70
8
 71
3
 72
8
 73
4
 74
0
 40
0
 40
0
 40
0
 40
0
 40
1
 40
1
 40
1
 40
1
 10
32.020571
 20
4.040118
 30
0.0
 10
32.020571
 20
4.179846
 30
0.0
 10
32.034682
 20
4.316244
 30
0.0
 10
32.061578
 20
4.447985
 30
0.0
  0
SPLINE
  5
211
100
AcDbEntity
  8
Layer_1
 62
1
100
AcDbSpline
 70
8
 71
3
 72
8
 73
4
 74
0
 40
0
 40
0
 40
0
 40
0
 40
1
 40
1
 40
1
 40
1
 10
32.061578
 20
4.447985
 30
0.0
 10
32.088389
 20
4.579727
 30
0.0
 10
32.128098
 20
4.706811
 30
0.0
 10
32.179152
 20
4.827856
 30
0.0
  0
SPLINE
  5
212
100
AcDbEntity
  8
Layer_1
 62
1
100
AcDbSpline
 70
8
 71
3
 72
8
 73
4
 74
0
 40
0
 40
0
 40
0
 40
0
 40
1
 40
1
 40
1
 40
1
 10
32.179152
 20
4.827856
 30
0.0
 10
32.230177
 20
4.948930
 30
0.0
 10
32.292633
 20
5.063964
 30
0.0
 10
32.365164
 20
5.171631
 30
0.0
  0
SPLINE
  5
213
100
AcDbEntity
  8
Layer_1
 62
1
100
AcDbSpline
 70
8
 71
3
 72
8
 73
4
 74
0
 40
0
 40
0
 40
0
 40
0
 40
1
 40
1
 40
1
 40
1
 10
32.365164
 20
5.171631
 30
0.0
 10
32.437667
 20
5.279299
 30
0.0
 10
32.520245
 20
5.379573
 30
0.0
 10
32.611544
 20
5.471126
 30
0.0
  0
SPLINE
  5
214
100
AcDbEntity
  8
Layer_1
 62
1
100
AcDbSpline
 70
8
 71
3
 72
8
 73
4
 74
0
 40
0
 40
0
 40
0
 40
0
 40
1
 40
1
 40
1
 40
1
 10
32.611544
 20
5.471126
 30
0.0
 10
32.702815
 20
5.562678
 30
0.0
 10
32.802806
 20
5.645511
 30
0.0
 10
32.910135
 20
5.718268
 30
0.0
  0
SPLINE
  5
215
100
AcDbEntity
  8
Layer_1
 62
1
100
AcDbSpline
 70
8
 71
3
 72
8
 73
4
 74
0
 40
0
 40
0
 40
0
 40
0
 40
1
 40
1
 40
1
 40
1
 10
32.910135
 20
5.718268
 30
0.0
 10
33.017493
 20
5.790996
 30
0.0
 10
33.132160
 20
5.853650
 30
0.0
 10
33.252866
 20
5.904845
 30
0.0
  0
SPLINE
  5
216
100
AcDbEntity
  8
Layer_1
 62
1
100
AcDbSpline
 70
8
 71
3
 72
8
 73
4
 74
0
 40
0
 40
0
 40
0
 40
0
 40
1
 40
1
 40
1
 40
1
 10
33.252866
 20
5.904845
 30
0.0
 10
33.373544
 20
5.956040
 30
0.0
 10
33.500262
 20
5.995805
 30
0.0
 10
33.631608
 20
6.022757
 30
0.0
  0
SPLINE
  5
217
100
AcDbEntity
  8
Layer_1
 62
1
100
AcDbSpline
 70
8
 71
3
 72
8
 73
4
 74
0
 40
0
 40
0
 40
0
 40
0
 40
1
 40
1
 40
1
 40
1
 10
33.631608
 20
6.022757
 30
0.0
 10
33.762926
 20
6.049568
 30
0.0
 10
33.898929
 20
6.063877
 30
0.0
 10
34.038234
 20
6.063877
 30
0.0
  0
SPLINE
  5
218
100
AcDbEntity
  8
Layer_1
 62
1
100
AcDbSpline
 70
8
 71
3
 72
8
 73
4
 74
0
 40
0
 40
0
 40
0
 40
0
 40
1
 40
1
 40
1
 40
1
 10
34.038234
 20
6.063877
 30
0.0
 10
34.177511
 20
6.063877
 30
0.0
 10
34.313514
 20
6.049766
 30
0.0
 10
34.444832
 20
6.022757
 30
0.0
  0
SPLINE
  5
219
100
AcDbEntity
  8
Layer_1
 62
1
100
AcDbSpline
 70
8
 71
3
 72
8
 73
4
 74
0
 40
0
 40
0
 40
0
 40
0
 40
1
 40
1
 40
1
 40
1
 10
34.444832
 20
6.022757
 30
0.0
 10
34.576178
 20
5.995946
 30
0.0
 10
34.702896
 20
5.956040
 30
0.0
 10
34.823574
 20
5.904845
 30
0.0
  0
SPLINE
  5
21a
100
AcDbEntity
  8
Layer_1
 62
1
100
AcDbSpline
 70
8
 71
3
 72
8
 73
4
 74
0
 40
0
 40
0
 40
0
 40
0
 40
1
 40
1
 40
1
 40
1
 10
34.823574
 20
5.904845
 30
0.0
 10
34.944280
 20
5.853650
 30
0.0
 10
35.058975
 20
5.790996
 30
0.0
 10
35.166305
 20
5.718268
 30
0.0
  0
SPLINE
  5
21b
100
AcDbEntity
  8
Layer_1
 62
1
100
AcDbSpline
 70
8
 71
3
 72
8
 73
4
 74
0
 40
0
 40
0
 40
0
 40
0
 40
1
 40
1
 40
1
 40
1
 10
35.166305
 20
5.718268
 30
0.0
 10
35.273634
 20
5.645511
 30
0.0
 10
35.373625
 20
5.562678
 30
0.0
 10
35.464896
 20
5.471126
 30
0.0
  0
SPLINE
  5
21c
100
AcDbEntity
  8
Layer_1
 62
1
100
AcDbSpline
 70
8
 71
3
 72
8
 73
4
 74
0
 40
0
 40
0
 40
0
 40
0
 40
1
 40
1
 40
1
 40
1
 10
35.464896
 20
5.471126
 30
0.0
 10
35.556195
 20
5.379573
 30
0.0
 10
35.638773
 20
5.279299
 30
0.0
 10
35.711276
 20
5.171631
 30
0.0
  0
SPLINE
  5
21d
100
AcDbEntity
  8
Layer_1
 62
1
100
AcDbSpline
 70
8
 71
3
 72
8
 73
4
 74
0
 40
0
 40
0
 40
0
 40
0
 40
1
 40
1
 40
1
 40
1
 10
35.711276
 20
5.171631
 30
0.0
 10
35.783807
 20
5.063964
 30
0.0
 10
35.846263
 20
4.948930
 30
0.0
 10
35.897317
 20
4.827856
 30
0.0
  0
SPLINE
  5
21e
100
AcDbEntity
  8
Layer_1
 62
1
100
AcDbSpline
 70
8
 71
3
 72
8
 73
4
 74
0
 40
0
 40
0
 40
0
 40
0
 40
1
 40
1
 40
1
 40
1
 10
35.897317
 20
4.827856
 30
0.0
 10
35.948342
 20
4.706811
 30
0.0
 10
35.987995
 20
4.579727
 30
0.0
 10
36.014862
 20
4.447985
 30
0.0
  0
SPLINE
  5
21f
100
AcDbEntity
  8
Layer_1
 62
1
100
AcDbSpline
 70
8
 71
3
 72
8
 73
4
 74
0
 40
0
 40
0
 40
0
 40
0
 40
1
 40
1
 40
1
 40
1
 10
36.014862
 20
4.447985
 30
0.0
 10
36.041673
 20
4.316244
 30
0.0
 10
36.055869
 20
4.179846
 30
0.0
 10
36.055869
 20
4.040118
 30
0.0
  0
SPLINE
  5
220
100
AcDbEntity
  8
Layer_1
 62
1
100
AcDbSpline
 70
8
 71
3
 72
8
 73
4
 74
0
 40
0
 40
0
 40
0
 40
0
 40
1
 40
1
 40
1
 40
1
 10
36.055869
 20
4.040118
 30
0.0
 10
36.055869
 20
3.900418
 30
0.0
 10
36.041758
 20
3.764020
 30
0.0
 10
36.014862
 20
3.632278
 30
0.0
  0
SPLINE
  5
221
100
AcDbEntity
  8
Layer_1
 62
1
100
AcDbSpline
 70
8
 71
3
 72
8
 73
4
 74
0
 40
0
 40
0
 40
0
 40
0
 40
1
 40
1
 40
1
 40
1
 10
36.014862
 20
3.632278
 30
0.0
 10
35.988051
 20
3.500537
 30
0.0
 10
35.948342
 20
3.373452
 30
0.0
 10
35.897317
 20
3.252379
 30
0.0
  0
SPLINE
  5
222
100
AcDbEntity
  8
Layer_1
 62
1
100
AcDbSpline
 70
8
 71
3
 72
8
 73
4
 74
0
 40
0
 40
0
 40
0
 40
0
 40
1
 40
1
 40
1
 40
1
 10
35.897317
 20
3.252379
 30
0.0
 10
35.846263
 20
3.131334
 30
0.0
 10
35.783807
 20
3.016300
 30
0.0
 10
35.711276
 20
2.908632
 30
0.0
  0
SPLINE
  5
223
100
AcDbEntity
  8
Layer_1
 62
1
100
AcDbSpline
 70
8
 71
3
 72
8
 73
4
 74
0
 40
0
 40
0
 40
0
 40
0
 40
1
 40
1
 40
1
 40
1
 10
35.711276
 20
2.908632
 30
0.0
 10
35.638773
 20
2.800965
 30
0.0
 10
35.556195
 20
2.700691
 30
0.0
 10
35.464896
 20
2.609110
 30
0.0
  0
SPLINE
  5
224
100
AcDbEntity
  8
Layer_1
 62
1
100
AcDbSpline
 70
8
 71
3
 72
8
 73
4
 74
0
 40
0
 40
0
 40
0
 40
0
 40
1
 40
1
 40
1
 40
1
 10
35.464896
 20
2.609110
 30
0.0
 10
35.373625
 20
2.517557
 30
0.0
 10
35.273634
 20
2.434753
 30
0.0
 10
35.166305
 20
2.361996
 30
0.0
  0
SPLINE
  5
225
100
AcDbEntity
  8
Layer_1
 62
1
100
AcDbSpline
 70
8
 71
3
 72
8
 73
4
 74
0
 40
0
 40
0
 40
0
 40
0
 40
1
 40
1
 40
1
 40
1
 10
35.166305
 20
2.361996
 30
0.0
 10
35.058975
 20
2.289268
 30
0.0
 10
34.944280
 20
2.226614
 30
0.0
 10
34.823574
 20
2.175419
 30
0.0
  0
SPLINE
  5
226
100
AcDbEntity
  8
Layer_1
 62
1
100
AcDbSpline
 70
8
 71
3
 72
8
 73
4
 74
0
 40
0
 40
0
 40
0
 40
0
 40
1
 40
1
 40
1
 40
1
 10
34.823574
 20
2.175419
 30
0.0
 10
34.702896
 20
2.124224
 30
0.0
 10
34.576178
 20
2.084459
 30
0.0
 10
34.444832
 20
2.057507
 30
0.0
  0
SPLINE
  5
227
100
AcDbEntity
  8
Layer_1
 62
1
100
AcDbSpline
 70
8
 71
3
 72
8
 73
4
 74
0
 40
0
 40
0
 40
0
 40
0
 40
1
 40
1
 40
1
 40
1
 10
34.444832
 20
2.057507
 30
0.0
 10
34.313514
 20
2.030413
 30
0.0
 10
34.177511
 20
2.016387
 30
0.0
 10
34.038234
 20
2.016387
 30
0.0
  0
LWPOLYLINE
  5
228
100
AcDbEntity
  8
Layer_1
 62
1
100
AcDbPolyline
 90
2
 70
0
 10
44.000001
 20
1.976238
 30
0.0
 10
44.000001
 20
1.976238
 30
0.0
  0
LWPOLYLINE
  5
229
100
AcDbEntity
  8
Layer_1
 62
1
100
AcDbPolyline
 90
2
 70
0
 10
34.038234
 20
2.016387
 30
0.0
 10
34.038234
 20
2.016387
 30
0.0
  0
ENDSEC
  0
SECTION
  2
OBJECTS
  0
DICTIONARY
  5
C
330
0
100
AcDbDictionary
  3
ACAD_GROUP
350
D
  3
ACAD_MLINESTYLE
350
17
  0
DICTIONARY
  5
D
330
C
100
AcDbDictionary
  0
DICTIONARY
  5
1A
330
C
100
AcDbDictionary
  0
DICTIONARY
  5
17
330
C
100
AcDbDictionary
  3
STANDARD
350
18
  0
DICTIONARY
  5
19
330
C
100
AcDbDictionary
  0
ENDSEC
  0
EOF
