  0
SECTION
  2
HEADER
  9
$ACADVER
  1
AC1014
  9
$HANDSEED
  5
FFFF
  9
$MEASUREMENT
 70
     1
  0
ENDSEC
  0
SECTION
  2
TABLES
  0
TABLE
  2
VPORT
  5
8
330
0
100
AcDbSymbolTable
 70
     4
  0
VPORT
  5
2E
330
8
100
AcDbSymbolTableRecord
100
AcDbViewportTableRecord
  2
*ACTIVE
 70
     0
 10
0.0
 20
0.0
 11
1.0
 21
1.0
 12
210.0
 22
148.5
 13
0.0
 23
0.0
 14
10.0
 24
10.0
 15
10.0
 25
10.0
 16
0.0
 26
0.0
 36
1.0
 17
0.0
 27
0.0
 37
0.0
 40
341.0
 41
1.24
 42
50.0
 43
0.0
 44
0.0
 50
0.0
 51
0.0
 71
     0
 72
   100
 73
     1
 74
     3
 75
     0
 76
     0
 77
     0
 78
     0
  0
ENDTAB
  0
TABLE
  2
LTYPE
  5
5
330
0
100
AcDbSymbolTable
 70
     1
  0
LTYPE
  5
14
330
5
100
AcDbSymbolTableRecord
100
AcDbLinetypeTableRecord
  2
BYBLOCK
 70
     0
  3

 72
    65
 73
     0
 40
0.0
  0
LTYPE
  5
15
330
5
100
AcDbSymbolTableRecord
100
AcDbLinetypeTableRecord
  2
BYLAYER
 70
     0
  3

 72
    65
 73
     0
 40
0.0
  0
LTYPE
  5
16
330
5
100
AcDbSymbolTableRecord
100
AcDbLinetypeTableRecord
  2
CONTINUOUS
 70
     0
  3
Solid line
 72
    65
 73
     0
 40
0.0
  0
ENDTAB
  0
TABLE
  2
LAYER
  5
2
100
AcDbSymbolTable
 70
2
  0
LAYER
  5
50
100
AcDbSymbolTableRecord
100
AcDbLayerTableRecord
  2
0
 70
0
  6
CONTINUOUS
  0
LAYER
  5
51
100
AcDbSymbolTableRecord
100
AcDbLayerTableRecord
  2
Layer_1
 70
0
  6
CONTINUOUS
  0
ENDTAB
  0
TABLE
  2
STYLE
  5
3
330
0
100
AcDbSymbolTable
 70
     1
  0
STYLE
  5
11
330
3
100
AcDbSymbolTableRecord
100
AcDbTextStyleTableRecord
  2
STANDARD
 70
     0
 40
0.0
 41
1.0
 50
0.0
 71
     0
 42
2.5
  3
txt
  4

  0
ENDTAB
  0
TABLE
  2
VIEW
  5
6
330
0
100
AcDbSymbolTable
 70
     0
  0
ENDTAB
  0
TABLE
  2
UCS
  5
7
330
0
100
AcDbSymbolTable
 70
     0
  0
ENDTAB
  0
TABLE
  2
APPID
  5
9
330
0
100
AcDbSymbolTable
 70
     2
  0
APPID
  5
12
330
9
100
AcDbSymbolTableRecord
100
AcDbRegAppTableRecord
  2
ACAD
 70
     0
  0
ENDTAB
  0
TABLE
  2
DIMSTYLE
  5
A
330
0
100
AcDbSymbolTable
 70
     1
  0
DIMSTYLE
105
27
330
A
100
AcDbSymbolTableRecord
100
AcDbDimStyleTableRecord
  2
ISO-25
 70
     0
  3

  4

  5

  6

  7

 40
1.0
 41
2.5
 42
0.625
 43
3.75
 44
1.25
 45
0.0
 46
0.0
 47
0.0
 48
0.0
140
2.5
141
2.5
142
0.0
143
0.03937007874016
144
1.0
145
0.0
146
1.0
147
0.625
 71
     0
 72
     0
 73
     0
 74
     0
 75
     0
 76
     0
 77
     1
 78
     8
170
     0
171
     3
172
     1
173
     0
174
     0
175
     0
176
     0
177
     0
178
     0
270
     2
271
     2
272
     2
273
     2
274
     3
340
11
275
     0
280
     0
281
     0
282
     0
283
     0
284
     8
285
     0
286
     0
287
     3
288
     0
  0
ENDTAB
  0
TABLE
  2
BLOCK_RECORD
  5
1
330
0
100
AcDbSymbolTable
 70
     1
  0
BLOCK_RECORD
  5
1F
330
1
100
AcDbSymbolTableRecord
100
AcDbBlockTableRecord
  2
*MODEL_SPACE
  0
BLOCK_RECORD
  5
1B
330
1
100
AcDbSymbolTableRecord
100
AcDbBlockTableRecord
  2
*PAPER_SPACE
  0
ENDTAB
  0
ENDSEC
  0
SECTION
  2
BLOCKS
  0
BLOCK
  5
20
330
1F
100
AcDbEntity
  8
0
100
AcDbBlockBegin
  2
*MODEL_SPACE
 70
     0
 10
0.0
 20
0.0
 30
0.0
  3
*MODEL_SPACE
  1

  0
ENDBLK
  5
21
330
1F
100
AcDbEntity
  8
0
100
AcDbBlockEnd
  0
BLOCK
  5
1C
330
1B
100
AcDbEntity
 67
     1
  8
0
100
AcDbBlockBegin
  2
*PAPER_SPACE
  1

  0
ENDBLK
  5
1D
330
1B
100
AcDbEntity
 67
     1
  8
0
100
AcDbBlockEnd
  0
ENDSEC
  0
SECTION
  2
ENTITIES
  0
LINE
  5
100
100
AcDbEntity
  8
Layer_1
 62
7
100
AcDbLine
 10
20.000000
 20
159.500000
 30
0.0
 11
11.500000
 21
159.500000
 31
0.0
  0
LINE
  5
101
100
AcDbEntity
  8
Layer_1
 62
7
100
AcDbLine
 10
11.500000
 20
159.500000
 30
0.0
 11
11.500000
 21
151.000000
 31
0.0
  0
SPLINE
  5
102
100
AcDbEntity
  8
Layer_1
 62
7
100
AcDbSpline
 70
8
 71
3
 72
8
 73
4
 74
0
 40
0
 40
0
 40
0
 40
0
 40
1
 40
1
 40
1
 40
1
 10
11.500000
 20
151.000000
 30
0.0
 10
11.500000
 20
149.999999
 30
0.0
 10
11.000000
 20
149.500000
 30
0.0
 10
10.000000
 20
149.500000
 30
0.0
  0
LINE
  5
103
100
AcDbEntity
  8
Layer_1
 62
7
100
AcDbLine
 10
10.000000
 20
149.500000
 30
0.0
 11
-3.000000
 21
149.500000
 31
0.0
  0
SPLINE
  5
104
100
AcDbEntity
  8
Layer_1
 62
7
100
AcDbSpline
 70
8
 71
3
 72
8
 73
4
 74
0
 40
0
 40
0
 40
0
 40
0
 40
1
 40
1
 40
1
 40
1
 10
-3.000000
 20
149.500000
 30
0.0
 10
-4.000000
 20
149.500000
 30
0.0
 10
-4.500000
 20
149.999999
 30
0.0
 10
-4.500000
 20
151.000000
 30
0.0
  0
LINE
  5
105
100
AcDbEntity
  8
Layer_1
 62
7
100
AcDbLine
 10
-4.500000
 20
151.000000
 30
0.0
 11
-4.500000
 21
159.500000
 31
0.0
  0
LINE
  5
106
100
AcDbEntity
  8
Layer_1
 62
7
100
AcDbLine
 10
-4.500000
 20
159.500000
 30
0.0
 11
-13.000000
 21
159.500000
 31
0.0
  0
SPLINE
  5
107
100
AcDbEntity
  8
Layer_1
 62
7
100
AcDbSpline
 70
8
 71
3
 72
8
 73
4
 74
0
 40
0
 40
0
 40
0
 40
0
 40
1
 40
1
 40
1
 40
1
 10
-13.000000
 20
159.500000
 30
0.0
 10
-14.000000
 20
159.500000
 30
0.0
 10
-14.500000
 20
159.999999
 30
0.0
 10
-14.500000
 20
161.000000
 30
0.0
  0
LINE
  5
108
100
AcDbEntity
  8
Layer_1
 62
7
100
AcDbLine
 10
-14.500000
 20
161.000000
 30
0.0
 11
-14.500000
 21
173.999999
 31
0.0
  0
SPLINE
  5
109
100
AcDbEntity
  8
Layer_1
 62
7
100
AcDbSpline
 70
8
 71
3
 72
8
 73
4
 74
0
 40
0
 40
0
 40
0
 40
0
 40
1
 40
1
 40
1
 40
1
 10
-14.500000
 20
173.999999
 30
0.0
 10
-14.500000
 20
175.000000
 30
0.0
 10
-14.000000
 20
175.499999
 30
0.0
 10
-13.000000
 20
175.499999
 30
0.0
  0
LINE
  5
10a
100
AcDbEntity
  8
Layer_1
 62
7
100
AcDbLine
 10
-13.000000
 20
175.499999
 30
0.0
 11
-4.500000
 21
175.499999
 31
0.0
  0
LINE
  5
10b
100
AcDbEntity
  8
Layer_1
 62
7
100
AcDbLine
 10
-4.500000
 20
175.499999
 30
0.0
 11
-4.500000
 21
183.999999
 31
0.0
  0
SPLINE
  5
10c
100
AcDbEntity
  8
Layer_1
 62
7
100
AcDbSpline
 70
8
 71
3
 72
8
 73
4
 74
0
 40
0
 40
0
 40
0
 40
0
 40
1
 40
1
 40
1
 40
1
 10
-4.500000
 20
183.999999
 30
0.0
 10
-4.500000
 20
185.000000
 30
0.0
 10
-4.000000
 20
185.499999
 30
0.0
 10
-3.000000
 20
185.499999
 30
0.0
  0
LINE
  5
10d
100
AcDbEntity
  8
Layer_1
 62
7
100
AcDbLine
 10
-3.000000
 20
185.499999
 30
0.0
 11
10.000000
 21
185.499999
 31
0.0
  0
SPLINE
  5
10e
100
AcDbEntity
  8
Layer_1
 62
7
100
AcDbSpline
 70
8
 71
3
 72
8
 73
4
 74
0
 40
0
 40
0
 40
0
 40
0
 40
1
 40
1
 40
1
 40
1
 10
10.000000
 20
185.499999
 30
0.0
 10
11.000000
 20
185.499999
 30
0.0
 10
11.500000
 20
185.000000
 30
0.0
 10
11.500000
 20
183.999999
 30
0.0
  0
LINE
  5
10f
100
AcDbEntity
  8
Layer_1
 62
7
100
AcDbLine
 10
11.500000
 20
183.999999
 30
0.0
 11
11.500000
 21
175.499999
 31
0.0
  0
LINE
  5
110
100
AcDbEntity
  8
Layer_1
 62
7
100
AcDbLine
 10
11.500000
 20
175.499999
 30
0.0
 11
20.000000
 21
175.499999
 31
0.0
  0
SPLINE
  5
111
100
AcDbEntity
  8
Layer_1
 62
7
100
AcDbSpline
 70
8
 71
3
 72
8
 73
4
 74
0
 40
0
 40
0
 40
0
 40
0
 40
1
 40
1
 40
1
 40
1
 10
20.000000
 20
175.499999
 30
0.0
 10
21.000000
 20
175.499999
 30
0.0
 10
21.500000
 20
175.000000
 30
0.0
 10
21.500000
 20
173.999999
 30
0.0
  0
LINE
  5
112
100
AcDbEntity
  8
Layer_1
 62
7
100
AcDbLine
 10
21.500000
 20
173.999999
 30
0.0
 11
21.500000
 21
161.000000
 31
0.0
  0
SPLINE
  5
113
100
AcDbEntity
  8
Layer_1
 62
7
100
AcDbSpline
 70
8
 71
3
 72
8
 73
4
 74
0
 40
0
 40
0
 40
0
 40
0
 40
1
 40
1
 40
1
 40
1
 10
21.500000
 20
161.000000
 30
0.0
 10
21.500000
 20
159.999999
 30
0.0
 10
21.000000
 20
159.500000
 30
0.0
 10
20.000000
 20
159.500000
 30
0.0
  0
LINE
  5
114
100
AcDbEntity
  8
Layer_1
 62
7
100
AcDbLine
 10
20.000000
 20
159.500000
 30
0.0
 11
20.000000
 21
159.500000
 31
0.0
  0
SPLINE
  5
115
100
AcDbEntity
  8
Layer_1
 62
1
100
AcDbSpline
 70
8
 71
3
 72
8
 73
4
 74
0
 40
0
 40
0
 40
0
 40
0
 40
1
 40
1
 40
1
 40
1
 10
8.000000
 20
167.500000
 30
0.0
 10
8.000000
 20
165.014717
 30
0.0
 10
5.985282
 20
163.000000
 30
0.0
 10
3.500001
 20
163.000000
 30
0.0
  0
SPLINE
  5
116
100
AcDbEntity
  8
Layer_1
 62
1
100
AcDbSpline
 70
8
 71
3
 72
8
 73
4
 74
0
 40
0
 40
0
 40
0
 40
0
 40
1
 40
1
 40
1
 40
1
 10
3.500001
 20
163.000000
 30
0.0
 10
1.014717
 20
163.000000
 30
0.0
 10
-1.000001
 20
165.014717
 30
0.0
 10
-1.000001
 20
167.500000
 30
0.0
  0
SPLINE
  5
117
100
AcDbEntity
  8
Layer_1
 62
1
100
AcDbSpline
 70
8
 71
3
 72
8
 73
4
 74
0
 40
0
 40
0
 40
0
 40
0
 40
1
 40
1
 40
1
 40
1
 10
-1.000001
 20
167.500000
 30
0.0
 10
-1.000001
 20
169.985281
 30
0.0
 10
1.014717
 20
171.999998
 30
0.0
 10
3.500001
 20
171.999998
 30
0.0
  0
SPLINE
  5
118
100
AcDbEntity
  8
Layer_1
 62
1
100
AcDbSpline
 70
8
 71
3
 72
8
 73
4
 74
0
 40
0
 40
0
 40
0
 40
0
 40
1
 40
1
 40
1
 40
1
 10
3.500001
 20
171.999998
 30
0.0
 10
5.985282
 20
171.999998
 30
0.0
 10
8.000000
 20
169.985281
 30
0.0
 10
8.000000
 20
167.500000
 30
0.0
  0
LINE
  5
119
100
AcDbEntity
  8
Layer_1
 62
1
100
AcDbLine
 10
8.000000
 20
167.500000
 30
0.0
 11
8.000000
 21
167.500000
 31
0.0
  0
SPLINE
  5
11a
100
AcDbEntity
  8
Layer_1
 62
1
100
AcDbSpline
 70
8
 71
3
 72
8
 73
4
 74
0
 40
0
 40
0
 40
0
 40
0
 40
1
 40
1
 40
1
 40
1
 10
12.000000
 20
167.499999
 30
0.0
 10
12.000000
 20
167.223856
 30
0.0
 10
11.776142
 20
166.999998
 30
0.0
 10
11.500000
 20
166.999998
 30
0.0
  0
SPLINE
  5
11b
100
AcDbEntity
  8
Layer_1
 62
1
100
AcDbSpline
 70
8
 71
3
 72
8
 73
4
 74
0
 40
0
 40
0
 40
0
 40
0
 40
1
 40
1
 40
1
 40
1
 10
11.500000
 20
166.999998
 30
0.0
 10
11.223858
 20
166.999998
 30
0.0
 10
11.000000
 20
167.223856
 30
0.0
 10
11.000000
 20
167.499999
 30
0.0
  0
SPLINE
  5
11c
100
AcDbEntity
  8
Layer_1
 62
1
100
AcDbSpline
 70
8
 71
3
 72
8
 73
4
 74
0
 40
0
 40
0
 40
0
 40
0
 40
1
 40
1
 40
1
 40
1
 10
11.000000
 20
167.499999
 30
0.0
 10
11.000000
 20
167.776141
 30
0.0
 10
11.223858
 20
167.999998
 30
0.0
 10
11.500000
 20
167.999998
 30
0.0
  0
SPLINE
  5
11d
100
AcDbEntity
  8
Layer_1
 62
1
100
AcDbSpline
 70
8
 71
3
 72
8
 73
4
 74
0
 40
0
 40
0
 40
0
 40
0
 40
1
 40
1
 40
1
 40
1
 10
11.500000
 20
167.999998
 30
0.0
 10
11.776142
 20
167.999998
 30
0.0
 10
12.000000
 20
167.776141
 30
0.0
 10
12.000000
 20
167.499999
 30
0.0
  0
LINE
  5
11e
100
AcDbEntity
  8
Layer_1
 62
1
100
AcDbLine
 10
12.000000
 20
167.499999
 30
0.0
 11
12.000000
 21
167.499999
 31
0.0
  0
SPLINE
  5
11f
100
AcDbEntity
  8
Layer_1
 62
1
100
AcDbSpline
 70
8
 71
3
 72
8
 73
4
 74
0
 40
0
 40
0
 40
0
 40
0
 40
1
 40
1
 40
1
 40
1
 10
14.500000
 20
167.499999
 30
0.0
 10
14.500000
 20
167.223856
 30
0.0
 10
14.276142
 20
166.999998
 30
0.0
 10
14.000000
 20
166.999998
 30
0.0
  0
SPLINE
  5
120
100
AcDbEntity
  8
Layer_1
 62
1
100
AcDbSpline
 70
8
 71
3
 72
8
 73
4
 74
0
 40
0
 40
0
 40
0
 40
0
 40
1
 40
1
 40
1
 40
1
 10
14.000000
 20
166.999998
 30
0.0
 10
13.723857
 20
166.999998
 30
0.0
 10
13.500000
 20
167.223856
 30
0.0
 10
13.500000
 20
167.499999
 30
0.0
  0
SPLINE
  5
121
100
AcDbEntity
  8
Layer_1
 62
1
100
AcDbSpline
 70
8
 71
3
 72
8
 73
4
 74
0
 40
0
 40
0
 40
0
 40
0
 40
1
 40
1
 40
1
 40
1
 10
13.500000
 20
167.499999
 30
0.0
 10
13.500000
 20
167.776141
 30
0.0
 10
13.723857
 20
167.999998
 30
0.0
 10
14.000000
 20
167.999998
 30
0.0
  0
SPLINE
  5
122
100
AcDbEntity
  8
Layer_1
 62
1
100
AcDbSpline
 70
8
 71
3
 72
8
 73
4
 74
0
 40
0
 40
0
 40
0
 40
0
 40
1
 40
1
 40
1
 40
1
 10
14.000000
 20
167.999998
 30
0.0
 10
14.276142
 20
167.999998
 30
0.0
 10
14.500000
 20
167.776141
 30
0.0
 10
14.500000
 20
167.499999
 30
0.0
  0
LINE
  5
123
100
AcDbEntity
  8
Layer_1
 62
1
100
AcDbLine
 10
14.500000
 20
167.499999
 30
0.0
 11
14.500000
 21
167.499999
 31
0.0
  0
SPLINE
  5
124
100
AcDbEntity
  8
Layer_1
 62
1
100
AcDbSpline
 70
8
 71
3
 72
8
 73
4
 74
0
 40
0
 40
0
 40
0
 40
0
 40
1
 40
1
 40
1
 40
1
 10
17.000000
 20
167.500001
 30
0.0
 10
17.000000
 20
167.223859
 30
0.0
 10
16.776143
 20
167.000001
 30
0.0
 10
16.500000
 20
167.000001
 30
0.0
  0
SPLINE
  5
125
100
AcDbEntity
  8
Layer_1
 62
1
100
AcDbSpline
 70
8
 71
3
 72
8
 73
4
 74
0
 40
0
 40
0
 40
0
 40
0
 40
1
 40
1
 40
1
 40
1
 10
16.500000
 20
167.000001
 30
0.0
 10
16.223858
 20
167.000001
 30
0.0
 10
16.000000
 20
167.223859
 30
0.0
 10
16.000000
 20
167.500001
 30
0.0
  0
SPLINE
  5
126
100
AcDbEntity
  8
Layer_1
 62
1
100
AcDbSpline
 70
8
 71
3
 72
8
 73
4
 74
0
 40
0
 40
0
 40
0
 40
0
 40
1
 40
1
 40
1
 40
1
 10
16.000000
 20
167.500001
 30
0.0
 10
16.000000
 20
167.776144
 30
0.0
 10
16.223858
 20
168.000001
 30
0.0
 10
16.500000
 20
168.000001
 30
0.0
  0
SPLINE
  5
127
100
AcDbEntity
  8
Layer_1
 62
1
100
AcDbSpline
 70
8
 71
3
 72
8
 73
4
 74
0
 40
0
 40
0
 40
0
 40
0
 40
1
 40
1
 40
1
 40
1
 10
16.500000
 20
168.000001
 30
0.0
 10
16.776143
 20
168.000001
 30
0.0
 10
17.000000
 20
167.776144
 30
0.0
 10
17.000000
 20
167.500001
 30
0.0
  0
LINE
  5
128
100
AcDbEntity
  8
Layer_1
 62
1
100
AcDbLine
 10
17.000000
 20
167.500001
 30
0.0
 11
17.000000
 21
167.500001
 31
0.0
  0
SPLINE
  5
129
100
AcDbEntity
  8
Layer_1
 62
7
100
AcDbSpline
 70
8
 71
3
 72
8
 73
4
 74
0
 40
0
 40
0
 40
0
 40
0
 40
1
 40
1
 40
1
 40
1
 10
0.523750
 20
162.500000
 30
0.0
 10
0.523750
 20
161.385689
 30
0.0
 10
-0.382314
 20
160.482362
 30
0.0
 10
-1.500000
 20
160.482362
 30
0.0
  0
SPLINE
  5
12a
100
AcDbEntity
  8
Layer_1
 62
7
100
AcDbSpline
 70
8
 71
3
 72
8
 73
4
 74
0
 40
0
 40
0
 40
0
 40
0
 40
1
 40
1
 40
1
 40
1
 10
-1.500000
 20
160.482362
 30
0.0
 10
-2.617686
 20
160.482362
 30
0.0
 10
-3.523750
 20
161.385689
 30
0.0
 10
-3.523750
 20
162.500000
 30
0.0
  0
SPLINE
  5
12b
100
AcDbEntity
  8
Layer_1
 62
7
100
AcDbSpline
 70
8
 71
3
 72
8
 73
4
 74
0
 40
0
 40
0
 40
0
 40
0
 40
1
 40
1
 40
1
 40
1
 10
-3.523750
 20
162.500000
 30
0.0
 10
-3.523750
 20
163.614310
 30
0.0
 10
-2.617686
 20
164.517637
 30
0.0
 10
-1.500000
 20
164.517637
 30
0.0
  0
SPLINE
  5
12c
100
AcDbEntity
  8
Layer_1
 62
7
100
AcDbSpline
 70
8
 71
3
 72
8
 73
4
 74
0
 40
0
 40
0
 40
0
 40
0
 40
1
 40
1
 40
1
 40
1
 10
-1.500000
 20
164.517637
 30
0.0
 10
-0.382314
 20
164.517637
 30
0.0
 10
0.523750
 20
163.614310
 30
0.0
 10
0.523750
 20
162.500000
 30
0.0
  0
LINE
  5
12d
100
AcDbEntity
  8
Layer_1
 62
7
100
AcDbLine
 10
0.523750
 20
162.500000
 30
0.0
 11
0.523750
 21
162.500000
 31
0.0
  0
SPLINE
  5
12e
100
AcDbEntity
  8
Layer_1
 62
7
100
AcDbSpline
 70
8
 71
3
 72
8
 73
4
 74
0
 40
0
 40
0
 40
0
 40
0
 40
1
 40
1
 40
1
 40
1
 10
0.523750
 20
172.499999
 30
0.0
 10
0.523750
 20
171.385688
 30
0.0
 10
-0.382314
 20
170.482361
 30
0.0
 10
-1.500000
 20
170.482361
 30
0.0
  0
SPLINE
  5
12f
100
AcDbEntity
  8
Layer_1
 62
7
100
AcDbSpline
 70
8
 71
3
 72
8
 73
4
 74
0
 40
0
 40
0
 40
0
 40
0
 40
1
 40
1
 40
1
 40
1
 10
-1.500000
 20
170.482361
 30
0.0
 10
-2.617686
 20
170.482361
 30
0.0
 10
-3.523750
 20
171.385688
 30
0.0
 10
-3.523750
 20
172.499999
 30
0.0
  0
SPLINE
  5
130
100
AcDbEntity
  8
Layer_1
 62
7
100
AcDbSpline
 70
8
 71
3
 72
8
 73
4
 74
0
 40
0
 40
0
 40
0
 40
0
 40
1
 40
1
 40
1
 40
1
 10
-3.523750
 20
172.499999
 30
0.0
 10
-3.523750
 20
173.614310
 30
0.0
 10
-2.617686
 20
174.517637
 30
0.0
 10
-1.500000
 20
174.517637
 30
0.0
  0
SPLINE
  5
131
100
AcDbEntity
  8
Layer_1
 62
7
100
AcDbSpline
 70
8
 71
3
 72
8
 73
4
 74
0
 40
0
 40
0
 40
0
 40
0
 40
1
 40
1
 40
1
 40
1
 10
-1.500000
 20
174.517637
 30
0.0
 10
-0.382314
 20
174.517637
 30
0.0
 10
0.523750
 20
173.614310
 30
0.0
 10
0.523750
 20
172.499999
 30
0.0
  0
LINE
  5
132
100
AcDbEntity
  8
Layer_1
 62
7
100
AcDbLine
 10
0.523750
 20
172.499999
 30
0.0
 11
0.523750
 21
172.499999
 31
0.0
  0
SPLINE
  5
133
100
AcDbEntity
  8
Layer_1
 62
7
100
AcDbSpline
 70
8
 71
3
 72
8
 73
4
 74
0
 40
0
 40
0
 40
0
 40
0
 40
1
 40
1
 40
1
 40
1
 10
10.523750
 20
162.500000
 30
0.0
 10
10.523750
 20
161.385689
 30
0.0
 10
9.617686
 20
160.482362
 30
0.0
 10
8.500000
 20
160.482362
 30
0.0
  0
SPLINE
  5
134
100
AcDbEntity
  8
Layer_1
 62
7
100
AcDbSpline
 70
8
 71
3
 72
8
 73
4
 74
0
 40
0
 40
0
 40
0
 40
0
 40
1
 40
1
 40
1
 40
1
 10
8.500000
 20
160.482362
 30
0.0
 10
7.382313
 20
160.482362
 30
0.0
 10
6.476250
 20
161.385689
 30
0.0
 10
6.476250
 20
162.500000
 30
0.0
  0
SPLINE
  5
135
100
AcDbEntity
  8
Layer_1
 62
7
100
AcDbSpline
 70
8
 71
3
 72
8
 73
4
 74
0
 40
0
 40
0
 40
0
 40
0
 40
1
 40
1
 40
1
 40
1
 10
6.476250
 20
162.500000
 30
0.0
 10
6.476250
 20
163.614310
 30
0.0
 10
7.382313
 20
164.517637
 30
0.0
 10
8.500000
 20
164.517637
 30
0.0
  0
SPLINE
  5
136
100
AcDbEntity
  8
Layer_1
 62
7
100
AcDbSpline
 70
8
 71
3
 72
8
 73
4
 74
0
 40
0
 40
0
 40
0
 40
0
 40
1
 40
1
 40
1
 40
1
 10
8.500000
 20
164.517637
 30
0.0
 10
9.617686
 20
164.517637
 30
0.0
 10
10.523750
 20
163.614310
 30
0.0
 10
10.523750
 20
162.500000
 30
0.0
  0
LINE
  5
137
100
AcDbEntity
  8
Layer_1
 62
7
100
AcDbLine
 10
10.523750
 20
162.500000
 30
0.0
 11
10.523750
 21
162.500000
 31
0.0
  0
SPLINE
  5
138
100
AcDbEntity
  8
Layer_1
 62
7
100
AcDbSpline
 70
8
 71
3
 72
8
 73
4
 74
0
 40
0
 40
0
 40
0
 40
0
 40
1
 40
1
 40
1
 40
1
 10
10.523750
 20
172.499999
 30
0.0
 10
10.523750
 20
171.385688
 30
0.0
 10
9.617686
 20
170.482361
 30
0.0
 10
8.500000
 20
170.482361
 30
0.0
  0
SPLINE
  5
139
100
AcDbEntity
  8
Layer_1
 62
7
100
AcDbSpline
 70
8
 71
3
 72
8
 73
4
 74
0
 40
0
 40
0
 40
0
 40
0
 40
1
 40
1
 40
1
 40
1
 10
8.500000
 20
170.482361
 30
0.0
 10
7.382313
 20
170.482361
 30
0.0
 10
6.476250
 20
171.385688
 30
0.0
 10
6.476250
 20
172.499999
 30
0.0
  0
SPLINE
  5
13a
100
AcDbEntity
  8
Layer_1
 62
7
100
AcDbSpline
 70
8
 71
3
 72
8
 73
4
 74
0
 40
0
 40
0
 40
0
 40
0
 40
1
 40
1
 40
1
 40
1
 10
6.476250
 20
172.499999
 30
0.0
 10
6.476250
 20
173.614310
 30
0.0
 10
7.382313
 20
174.517637
 30
0.0
 10
8.500000
 20
174.517637
 30
0.0
  0
SPLINE
  5
13b
100
AcDbEntity
  8
Layer_1
 62
7
100
AcDbSpline
 70
8
 71
3
 72
8
 73
4
 74
0
 40
0
 40
0
 40
0
 40
0
 40
1
 40
1
 40
1
 40
1
 10
8.500000
 20
174.517637
 30
0.0
 10
9.617686
 20
174.517637
 30
0.0
 10
10.523750
 20
173.614310
 30
0.0
 10
10.523750
 20
172.499999
 30
0.0
  0
LINE
  5
13c
100
AcDbEntity
  8
Layer_1
 62
7
100
AcDbLine
 10
10.523750
 20
172.499999
 30
0.0
 11
10.523750
 21
172.499999
 31
0.0
  0
SPLINE
  5
13d
100
AcDbEntity
  8
Layer_1
 62
7
100
AcDbSpline
 70
8
 71
3
 72
8
 73
4
 74
0
 40
0
 40
0
 40
0
 40
0
 40
1
 40
1
 40
1
 40
1
 10
20.523750
 20
162.500000
 30
0.0
 10
20.523750
 20
161.385689
 30
0.0
 10
19.617686
 20
160.482362
 30
0.0
 10
18.500000
 20
160.482362
 30
0.0
  0
SPLINE
  5
13e
100
AcDbEntity
  8
Layer_1
 62
7
100
AcDbSpline
 70
8
 71
3
 72
8
 73
4
 74
0
 40
0
 40
0
 40
0
 40
0
 40
1
 40
1
 40
1
 40
1
 10
18.500000
 20
160.482362
 30
0.0
 10
17.382314
 20
160.482362
 30
0.0
 10
16.476250
 20
161.385689
 30
0.0
 10
16.476250
 20
162.500000
 30
0.0
  0
SPLINE
  5
13f
100
AcDbEntity
  8
Layer_1
 62
7
100
AcDbSpline
 70
8
 71
3
 72
8
 73
4
 74
0
 40
0
 40
0
 40
0
 40
0
 40
1
 40
1
 40
1
 40
1
 10
16.476250
 20
162.500000
 30
0.0
 10
16.476250
 20
163.614310
 30
0.0
 10
17.382314
 20
164.517637
 30
0.0
 10
18.500000
 20
164.517637
 30
0.0
  0
SPLINE
  5
140
100
AcDbEntity
  8
Layer_1
 62
7
100
AcDbSpline
 70
8
 71
3
 72
8
 73
4
 74
0
 40
0
 40
0
 40
0
 40
0
 40
1
 40
1
 40
1
 40
1
 10
18.500000
 20
164.517637
 30
0.0
 10
19.617686
 20
164.517637
 30
0.0
 10
20.523750
 20
163.614310
 30
0.0
 10
20.523750
 20
162.500000
 30
0.0
  0
LINE
  5
141
100
AcDbEntity
  8
Layer_1
 62
7
100
AcDbLine
 10
20.523750
 20
162.500000
 30
0.0
 11
20.523750
 21
162.500000
 31
0.0
  0
SPLINE
  5
142
100
AcDbEntity
  8
Layer_1
 62
7
100
AcDbSpline
 70
8
 71
3
 72
8
 73
4
 74
0
 40
0
 40
0
 40
0
 40
0
 40
1
 40
1
 40
1
 40
1
 10
20.523750
 20
172.499999
 30
0.0
 10
20.523750
 20
171.385688
 30
0.0
 10
19.617686
 20
170.482361
 30
0.0
 10
18.500000
 20
170.482361
 30
0.0
  0
SPLINE
  5
143
100
AcDbEntity
  8
Layer_1
 62
7
100
AcDbSpline
 70
8
 71
3
 72
8
 73
4
 74
0
 40
0
 40
0
 40
0
 40
0
 40
1
 40
1
 40
1
 40
1
 10
18.500000
 20
170.482361
 30
0.0
 10
17.382314
 20
170.482361
 30
0.0
 10
16.476250
 20
171.385688
 30
0.0
 10
16.476250
 20
172.499999
 30
0.0
  0
SPLINE
  5
144
100
AcDbEntity
  8
Layer_1
 62
7
100
AcDbSpline
 70
8
 71
3
 72
8
 73
4
 74
0
 40
0
 40
0
 40
0
 40
0
 40
1
 40
1
 40
1
 40
1
 10
16.476250
 20
172.499999
 30
0.0
 10
16.476250
 20
173.614310
 30
0.0
 10
17.382314
 20
174.517637
 30
0.0
 10
18.500000
 20
174.517637
 30
0.0
  0
SPLINE
  5
145
100
AcDbEntity
  8
Layer_1
 62
7
100
AcDbSpline
 70
8
 71
3
 72
8
 73
4
 74
0
 40
0
 40
0
 40
0
 40
0
 40
1
 40
1
 40
1
 40
1
 10
18.500000
 20
174.517637
 30
0.0
 10
19.617686
 20
174.517637
 30
0.0
 10
20.523750
 20
173.614310
 30
0.0
 10
20.523750
 20
172.499999
 30
0.0
  0
LINE
  5
146
100
AcDbEntity
  8
Layer_1
 62
7
100
AcDbLine
 10
20.523750
 20
172.499999
 30
0.0
 11
20.523750
 21
172.499999
 31
0.0
  0
SPLINE
  5
147
100
AcDbEntity
  8
Layer_1
 62
7
100
AcDbSpline
 70
8
 71
3
 72
8
 73
4
 74
0
 40
0
 40
0
 40
0
 40
0
 40
1
 40
1
 40
1
 40
1
 10
-9.476249
 20
162.500000
 30
0.0
 10
-9.476249
 20
161.385689
 30
0.0
 10
-10.382313
 20
160.482362
 30
0.0
 10
-11.499999
 20
160.482362
 30
0.0
  0
SPLINE
  5
148
100
AcDbEntity
  8
Layer_1
 62
7
100
AcDbSpline
 70
8
 71
3
 72
8
 73
4
 74
0
 40
0
 40
0
 40
0
 40
0
 40
1
 40
1
 40
1
 40
1
 10
-11.499999
 20
160.482362
 30
0.0
 10
-12.617685
 20
160.482362
 30
0.0
 10
-13.523749
 20
161.385689
 30
0.0
 10
-13.523749
 20
162.500000
 30
0.0
  0
SPLINE
  5
149
100
AcDbEntity
  8
Layer_1
 62
7
100
AcDbSpline
 70
8
 71
3
 72
8
 73
4
 74
0
 40
0
 40
0
 40
0
 40
0
 40
1
 40
1
 40
1
 40
1
 10
-13.523749
 20
162.500000
 30
0.0
 10
-13.523749
 20
163.614310
 30
0.0
 10
-12.617685
 20
164.517637
 30
0.0
 10
-11.499999
 20
164.517637
 30
0.0
  0
SPLINE
  5
14a
100
AcDbEntity
  8
Layer_1
 62
7
100
AcDbSpline
 70
8
 71
3
 72
8
 73
4
 74
0
 40
0
 40
0
 40
0
 40
0
 40
1
 40
1
 40
1
 40
1
 10
-11.499999
 20
164.517637
 30
0.0
 10
-10.382313
 20
164.517637
 30
0.0
 10
-9.476249
 20
163.614310
 30
0.0
 10
-9.476249
 20
162.500000
 30
0.0
  0
LINE
  5
14b
100
AcDbEntity
  8
Layer_1
 62
7
100
AcDbLine
 10
-9.476249
 20
162.500000
 30
0.0
 11
-9.476249
 21
162.500000
 31
0.0
  0
SPLINE
  5
14c
100
AcDbEntity
  8
Layer_1
 62
7
100
AcDbSpline
 70
8
 71
3
 72
8
 73
4
 74
0
 40
0
 40
0
 40
0
 40
0
 40
1
 40
1
 40
1
 40
1
 10
-9.476249
 20
172.499999
 30
0.0
 10
-9.476249
 20
171.385688
 30
0.0
 10
-10.382313
 20
170.482361
 30
0.0
 10
-11.499999
 20
170.482361
 30
0.0
  0
SPLINE
  5
14d
100
AcDbEntity
  8
Layer_1
 62
7
100
AcDbSpline
 70
8
 71
3
 72
8
 73
4
 74
0
 40
0
 40
0
 40
0
 40
0
 40
1
 40
1
 40
1
 40
1
 10
-11.499999
 20
170.482361
 30
0.0
 10
-12.617685
 20
170.482361
 30
0.0
 10
-13.523749
 20
171.385688
 30
0.0
 10
-13.523749
 20
172.499999
 30
0.0
  0
SPLINE
  5
14e
100
AcDbEntity
  8
Layer_1
 62
7
100
AcDbSpline
 70
8
 71
3
 72
8
 73
4
 74
0
 40
0
 40
0
 40
0
 40
0
 40
1
 40
1
 40
1
 40
1
 10
-13.523749
 20
172.499999
 30
0.0
 10
-13.523749
 20
173.614310
 30
0.0
 10
-12.617685
 20
174.517637
 30
0.0
 10
-11.499999
 20
174.517637
 30
0.0
  0
SPLINE
  5
14f
100
AcDbEntity
  8
Layer_1
 62
7
100
AcDbSpline
 70
8
 71
3
 72
8
 73
4
 74
0
 40
0
 40
0
 40
0
 40
0
 40
1
 40
1
 40
1
 40
1
 10
-11.499999
 20
174.517637
 30
0.0
 10
-10.382313
 20
174.517637
 30
0.0
 10
-9.476249
 20
173.614310
 30
0.0
 10
-9.476249
 20
172.499999
 30
0.0
  0
LINE
  5
150
100
AcDbEntity
  8
Layer_1
 62
7
100
AcDbLine
 10
-9.476249
 20
172.499999
 30
0.0
 11
-9.476249
 21
172.499999
 31
0.0
  0
SPLINE
  5
151
100
AcDbEntity
  8
Layer_1
 62
1
100
AcDbSpline
 70
8
 71
3
 72
8
 73
4
 74
0
 40
0
 40
0
 40
0
 40
0
 40
1
 40
1
 40
1
 40
1
 10
-9.000000
 20
167.499999
 30
0.0
 10
-9.000000
 20
167.223856
 30
0.0
 10
-9.223858
 20
166.999998
 30
0.0
 10
-9.500000
 20
166.999998
 30
0.0
  0
SPLINE
  5
152
100
AcDbEntity
  8
Layer_1
 62
1
100
AcDbSpline
 70
8
 71
3
 72
8
 73
4
 74
0
 40
0
 40
0
 40
0
 40
0
 40
1
 40
1
 40
1
 40
1
 10
-9.500000
 20
166.999998
 30
0.0
 10
-9.776143
 20
166.999998
 30
0.0
 10
-10.000000
 20
167.223856
 30
0.0
 10
-10.000000
 20
167.499999
 30
0.0
  0
SPLINE
  5
153
100
AcDbEntity
  8
Layer_1
 62
1
100
AcDbSpline
 70
8
 71
3
 72
8
 73
4
 74
0
 40
0
 40
0
 40
0
 40
0
 40
1
 40
1
 40
1
 40
1
 10
-10.000000
 20
167.499999
 30
0.0
 10
-10.000000
 20
167.776141
 30
0.0
 10
-9.776143
 20
167.999998
 30
0.0
 10
-9.500000
 20
167.999998
 30
0.0
  0
SPLINE
  5
154
100
AcDbEntity
  8
Layer_1
 62
1
100
AcDbSpline
 70
8
 71
3
 72
8
 73
4
 74
0
 40
0
 40
0
 40
0
 40
0
 40
1
 40
1
 40
1
 40
1
 10
-9.500000
 20
167.999998
 30
0.0
 10
-9.223858
 20
167.999998
 30
0.0
 10
-9.000000
 20
167.776141
 30
0.0
 10
-9.000000
 20
167.499999
 30
0.0
  0
LINE
  5
155
100
AcDbEntity
  8
Layer_1
 62
1
100
AcDbLine
 10
-9.000000
 20
167.499999
 30
0.0
 11
-9.000000
 21
167.499999
 31
0.0
  0
SPLINE
  5
156
100
AcDbEntity
  8
Layer_1
 62
1
100
AcDbSpline
 70
8
 71
3
 72
8
 73
4
 74
0
 40
0
 40
0
 40
0
 40
0
 40
1
 40
1
 40
1
 40
1
 10
-6.500000
 20
167.499999
 30
0.0
 10
-6.500000
 20
167.223856
 30
0.0
 10
-6.723858
 20
166.999998
 30
0.0
 10
-7.000000
 20
166.999998
 30
0.0
  0
SPLINE
  5
157
100
AcDbEntity
  8
Layer_1
 62
1
100
AcDbSpline
 70
8
 71
3
 72
8
 73
4
 74
0
 40
0
 40
0
 40
0
 40
0
 40
1
 40
1
 40
1
 40
1
 10
-7.000000
 20
166.999998
 30
0.0
 10
-7.276142
 20
166.999998
 30
0.0
 10
-7.500000
 20
167.223856
 30
0.0
 10
-7.500000
 20
167.499999
 30
0.0
  0
SPLINE
  5
158
100
AcDbEntity
  8
Layer_1
 62
1
100
AcDbSpline
 70
8
 71
3
 72
8
 73
4
 74
0
 40
0
 40
0
 40
0
 40
0
 40
1
 40
1
 40
1
 40
1
 10
-7.500000
 20
167.499999
 30
0.0
 10
-7.500000
 20
167.776141
 30
0.0
 10
-7.276142
 20
167.999998
 30
0.0
 10
-7.000000
 20
167.999998
 30
0.0
  0
SPLINE
  5
159
100
AcDbEntity
  8
Layer_1
 62
1
100
AcDbSpline
 70
8
 71
3
 72
8
 73
4
 74
0
 40
0
 40
0
 40
0
 40
0
 40
1
 40
1
 40
1
 40
1
 10
-7.000000
 20
167.999998
 30
0.0
 10
-6.723858
 20
167.999998
 30
0.0
 10
-6.500000
 20
167.776141
 30
0.0
 10
-6.500000
 20
167.499999
 30
0.0
  0
LINE
  5
15a
100
AcDbEntity
  8
Layer_1
 62
1
100
AcDbLine
 10
-6.500000
 20
167.499999
 30
0.0
 11
-6.500000
 21
167.499999
 31
0.0
  0
SPLINE
  5
15b
100
AcDbEntity
  8
Layer_1
 62
1
100
AcDbSpline
 70
8
 71
3
 72
8
 73
4
 74
0
 40
0
 40
0
 40
0
 40
0
 40
1
 40
1
 40
1
 40
1
 10
-4.000000
 20
167.499999
 30
0.0
 10
-4.000000
 20
167.223856
 30
0.0
 10
-4.223858
 20
166.999998
 30
0.0
 10
-4.500000
 20
166.999998
 30
0.0
  0
SPLINE
  5
15c
100
AcDbEntity
  8
Layer_1
 62
1
100
AcDbSpline
 70
8
 71
3
 72
8
 73
4
 74
0
 40
0
 40
0
 40
0
 40
0
 40
1
 40
1
 40
1
 40
1
 10
-4.500000
 20
166.999998
 30
0.0
 10
-4.776143
 20
166.999998
 30
0.0
 10
-5.000000
 20
167.223856
 30
0.0
 10
-5.000000
 20
167.499999
 30
0.0
  0
SPLINE
  5
15d
100
AcDbEntity
  8
Layer_1
 62
1
100
AcDbSpline
 70
8
 71
3
 72
8
 73
4
 74
0
 40
0
 40
0
 40
0
 40
0
 40
1
 40
1
 40
1
 40
1
 10
-5.000000
 20
167.499999
 30
0.0
 10
-5.000000
 20
167.776141
 30
0.0
 10
-4.776143
 20
167.999998
 30
0.0
 10
-4.500000
 20
167.999998
 30
0.0
  0
SPLINE
  5
15e
100
AcDbEntity
  8
Layer_1
 62
1
100
AcDbSpline
 70
8
 71
3
 72
8
 73
4
 74
0
 40
0
 40
0
 40
0
 40
0
 40
1
 40
1
 40
1
 40
1
 10
-4.500000
 20
167.999998
 30
0.0
 10
-4.223858
 20
167.999998
 30
0.0
 10
-4.000000
 20
167.776141
 30
0.0
 10
-4.000000
 20
167.499999
 30
0.0
  0
LINE
  5
15f
100
AcDbEntity
  8
Layer_1
 62
1
100
AcDbLine
 10
-4.000000
 20
167.499999
 30
0.0
 11
-4.000000
 21
167.499999
 31
0.0
  0
SPLINE
  5
160
100
AcDbEntity
  8
Layer_1
 62
1
100
AcDbSpline
 70
8
 71
3
 72
8
 73
4
 74
0
 40
0
 40
0
 40
0
 40
0
 40
1
 40
1
 40
1
 40
1
 10
4.000000
 20
157.000000
 30
0.0
 10
4.000000
 20
156.723857
 30
0.0
 10
3.776142
 20
156.500000
 30
0.0
 10
3.500000
 20
156.500000
 30
0.0
  0
SPLINE
  5
161
100
AcDbEntity
  8
Layer_1
 62
1
100
AcDbSpline
 70
8
 71
3
 72
8
 73
4
 74
0
 40
0
 40
0
 40
0
 40
0
 40
1
 40
1
 40
1
 40
1
 10
3.500000
 20
156.500000
 30
0.0
 10
3.223857
 20
156.500000
 30
0.0
 10
3.000000
 20
156.723857
 30
0.0
 10
3.000000
 20
157.000000
 30
0.0
  0
SPLINE
  5
162
100
AcDbEntity
  8
Layer_1
 62
1
100
AcDbSpline
 70
8
 71
3
 72
8
 73
4
 74
0
 40
0
 40
0
 40
0
 40
0
 40
1
 40
1
 40
1
 40
1
 10
3.000000
 20
157.000000
 30
0.0
 10
3.000000
 20
157.276142
 30
0.0
 10
3.223857
 20
157.500000
 30
0.0
 10
3.500000
 20
157.500000
 30
0.0
  0
SPLINE
  5
163
100
AcDbEntity
  8
Layer_1
 62
1
100
AcDbSpline
 70
8
 71
3
 72
8
 73
4
 74
0
 40
0
 40
0
 40
0
 40
0
 40
1
 40
1
 40
1
 40
1
 10
3.500000
 20
157.500000
 30
0.0
 10
3.776142
 20
157.500000
 30
0.0
 10
4.000000
 20
157.276142
 30
0.0
 10
4.000000
 20
157.000000
 30
0.0
  0
LINE
  5
164
100
AcDbEntity
  8
Layer_1
 62
1
100
AcDbLine
 10
4.000000
 20
157.000000
 30
0.0
 11
4.000000
 21
157.000000
 31
0.0
  0
SPLINE
  5
165
100
AcDbEntity
  8
Layer_1
 62
1
100
AcDbSpline
 70
8
 71
3
 72
8
 73
4
 74
0
 40
0
 40
0
 40
0
 40
0
 40
1
 40
1
 40
1
 40
1
 10
4.000000
 20
159.500000
 30
0.0
 10
4.000000
 20
159.223858
 30
0.0
 10
3.776142
 20
159.000000
 30
0.0
 10
3.500000
 20
159.000000
 30
0.0
  0
SPLINE
  5
166
100
AcDbEntity
  8
Layer_1
 62
1
100
AcDbSpline
 70
8
 71
3
 72
8
 73
4
 74
0
 40
0
 40
0
 40
0
 40
0
 40
1
 40
1
 40
1
 40
1
 10
3.500000
 20
159.000000
 30
0.0
 10
3.223858
 20
159.000000
 30
0.0
 10
3.000000
 20
159.223858
 30
0.0
 10
3.000000
 20
159.500000
 30
0.0
  0
SPLINE
  5
167
100
AcDbEntity
  8
Layer_1
 62
1
100
AcDbSpline
 70
8
 71
3
 72
8
 73
4
 74
0
 40
0
 40
0
 40
0
 40
0
 40
1
 40
1
 40
1
 40
1
 10
3.000000
 20
159.500000
 30
0.0
 10
3.000000
 20
159.776143
 30
0.0
 10
3.223858
 20
160.000000
 30
0.0
 10
3.500000
 20
160.000000
 30
0.0
  0
SPLINE
  5
168
100
AcDbEntity
  8
Layer_1
 62
1
100
AcDbSpline
 70
8
 71
3
 72
8
 73
4
 74
0
 40
0
 40
0
 40
0
 40
0
 40
1
 40
1
 40
1
 40
1
 10
3.500000
 20
160.000000
 30
0.0
 10
3.776142
 20
160.000000
 30
0.0
 10
4.000000
 20
159.776143
 30
0.0
 10
4.000000
 20
159.500000
 30
0.0
  0
LINE
  5
169
100
AcDbEntity
  8
Layer_1
 62
1
100
AcDbLine
 10
4.000000
 20
159.500000
 30
0.0
 11
4.000000
 21
159.500000
 31
0.0
  0
SPLINE
  5
16a
100
AcDbEntity
  8
Layer_1
 62
1
100
AcDbSpline
 70
8
 71
3
 72
8
 73
4
 74
0
 40
0
 40
0
 40
0
 40
0
 40
1
 40
1
 40
1
 40
1
 10
4.000000
 20
154.499999
 30
0.0
 10
4.000000
 20
154.223857
 30
0.0
 10
3.776142
 20
153.999999
 30
0.0
 10
3.500000
 20
153.999999
 30
0.0
  0
SPLINE
  5
16b
100
AcDbEntity
  8
Layer_1
 62
1
100
AcDbSpline
 70
8
 71
3
 72
8
 73
4
 74
0
 40
0
 40
0
 40
0
 40
0
 40
1
 40
1
 40
1
 40
1
 10
3.500000
 20
153.999999
 30
0.0
 10
3.223858
 20
153.999999
 30
0.0
 10
3.000000
 20
154.223857
 30
0.0
 10
3.000000
 20
154.499999
 30
0.0
  0
SPLINE
  5
16c
100
AcDbEntity
  8
Layer_1
 62
1
100
AcDbSpline
 70
8
 71
3
 72
8
 73
4
 74
0
 40
0
 40
0
 40
0
 40
0
 40
1
 40
1
 40
1
 40
1
 10
3.000000
 20
154.499999
 30
0.0
 10
3.000000
 20
154.776141
 30
0.0
 10
3.223858
 20
154.999999
 30
0.0
 10
3.500000
 20
154.999999
 30
0.0
  0
SPLINE
  5
16d
100
AcDbEntity
  8
Layer_1
 62
1
100
AcDbSpline
 70
8
 71
3
 72
8
 73
4
 74
0
 40
0
 40
0
 40
0
 40
0
 40
1
 40
1
 40
1
 40
1
 10
3.500000
 20
154.999999
 30
0.0
 10
3.776142
 20
154.999999
 30
0.0
 10
4.000000
 20
154.776141
 30
0.0
 10
4.000000
 20
154.499999
 30
0.0
  0
LINE
  5
16e
100
AcDbEntity
  8
Layer_1
 62
1
100
AcDbLine
 10
4.000000
 20
154.499999
 30
0.0
 11
4.000000
 21
154.499999
 31
0.0
  0
SPLINE
  5
16f
100
AcDbEntity
  8
Layer_1
 62
1
100
AcDbSpline
 70
8
 71
3
 72
8
 73
4
 74
0
 40
0
 40
0
 40
0
 40
0
 40
1
 40
1
 40
1
 40
1
 10
4.000000
 20
178.000000
 30
0.0
 10
4.000000
 20
177.723858
 30
0.0
 10
3.776142
 20
177.500000
 30
0.0
 10
3.500000
 20
177.500000
 30
0.0
  0
SPLINE
  5
170
100
AcDbEntity
  8
Layer_1
 62
1
100
AcDbSpline
 70
8
 71
3
 72
8
 73
4
 74
0
 40
0
 40
0
 40
0
 40
0
 40
1
 40
1
 40
1
 40
1
 10
3.500000
 20
177.500000
 30
0.0
 10
3.223857
 20
177.500000
 30
0.0
 10
3.000000
 20
177.723858
 30
0.0
 10
3.000000
 20
178.000000
 30
0.0
  0
SPLINE
  5
171
100
AcDbEntity
  8
Layer_1
 62
1
100
AcDbSpline
 70
8
 71
3
 72
8
 73
4
 74
0
 40
0
 40
0
 40
0
 40
0
 40
1
 40
1
 40
1
 40
1
 10
3.000000
 20
178.000000
 30
0.0
 10
3.000000
 20
178.276142
 30
0.0
 10
3.223857
 20
178.500000
 30
0.0
 10
3.500000
 20
178.500000
 30
0.0
  0
SPLINE
  5
172
100
AcDbEntity
  8
Layer_1
 62
1
100
AcDbSpline
 70
8
 71
3
 72
8
 73
4
 74
0
 40
0
 40
0
 40
0
 40
0
 40
1
 40
1
 40
1
 40
1
 10
3.500000
 20
178.500000
 30
0.0
 10
3.776142
 20
178.500000
 30
0.0
 10
4.000000
 20
178.276142
 30
0.0
 10
4.000000
 20
178.000000
 30
0.0
  0
LINE
  5
173
100
AcDbEntity
  8
Layer_1
 62
1
100
AcDbLine
 10
4.000000
 20
178.000000
 30
0.0
 11
4.000000
 21
178.000000
 31
0.0
  0
SPLINE
  5
174
100
AcDbEntity
  8
Layer_1
 62
1
100
AcDbSpline
 70
8
 71
3
 72
8
 73
4
 74
0
 40
0
 40
0
 40
0
 40
0
 40
1
 40
1
 40
1
 40
1
 10
4.000000
 20
175.500000
 30
0.0
 10
4.000000
 20
175.223857
 30
0.0
 10
3.776142
 20
174.999999
 30
0.0
 10
3.500000
 20
174.999999
 30
0.0
  0
SPLINE
  5
175
100
AcDbEntity
  8
Layer_1
 62
1
100
AcDbSpline
 70
8
 71
3
 72
8
 73
4
 74
0
 40
0
 40
0
 40
0
 40
0
 40
1
 40
1
 40
1
 40
1
 10
3.500000
 20
174.999999
 30
0.0
 10
3.223858
 20
174.999999
 30
0.0
 10
3.000000
 20
175.223857
 30
0.0
 10
3.000000
 20
175.500000
 30
0.0
  0
SPLINE
  5
176
100
AcDbEntity
  8
Layer_1
 62
1
100
AcDbSpline
 70
8
 71
3
 72
8
 73
4
 74
0
 40
0
 40
0
 40
0
 40
0
 40
1
 40
1
 40
1
 40
1
 10
3.000000
 20
175.500000
 30
0.0
 10
3.000000
 20
175.776142
 30
0.0
 10
3.223858
 20
175.999999
 30
0.0
 10
3.500000
 20
175.999999
 30
0.0
  0
SPLINE
  5
177
100
AcDbEntity
  8
Layer_1
 62
1
100
AcDbSpline
 70
8
 71
3
 72
8
 73
4
 74
0
 40
0
 40
0
 40
0
 40
0
 40
1
 40
1
 40
1
 40
1
 10
3.500000
 20
175.999999
 30
0.0
 10
3.776142
 20
175.999999
 30
0.0
 10
4.000000
 20
175.776142
 30
0.0
 10
4.000000
 20
175.500000
 30
0.0
  0
LINE
  5
178
100
AcDbEntity
  8
Layer_1
 62
1
100
AcDbLine
 10
4.000000
 20
175.500000
 30
0.0
 11
4.000000
 21
175.500000
 31
0.0
  0
SPLINE
  5
179
100
AcDbEntity
  8
Layer_1
 62
1
100
AcDbSpline
 70
8
 71
3
 72
8
 73
4
 74
0
 40
0
 40
0
 40
0
 40
0
 40
1
 40
1
 40
1
 40
1
 10
4.000000
 20
180.500001
 30
0.0
 10
4.000000
 20
180.223858
 30
0.0
 10
3.776142
 20
180.000001
 30
0.0
 10
3.500000
 20
180.000001
 30
0.0
  0
SPLINE
  5
17a
100
AcDbEntity
  8
Layer_1
 62
1
100
AcDbSpline
 70
8
 71
3
 72
8
 73
4
 74
0
 40
0
 40
0
 40
0
 40
0
 40
1
 40
1
 40
1
 40
1
 10
3.500000
 20
180.000001
 30
0.0
 10
3.223858
 20
180.000001
 30
0.0
 10
3.000000
 20
180.223858
 30
0.0
 10
3.000000
 20
180.500001
 30
0.0
  0
SPLINE
  5
17b
100
AcDbEntity
  8
Layer_1
 62
1
100
AcDbSpline
 70
8
 71
3
 72
8
 73
4
 74
0
 40
0
 40
0
 40
0
 40
0
 40
1
 40
1
 40
1
 40
1
 10
3.000000
 20
180.500001
 30
0.0
 10
3.000000
 20
180.776143
 30
0.0
 10
3.223858
 20
181.000001
 30
0.0
 10
3.500000
 20
181.000001
 30
0.0
  0
SPLINE
  5
17c
100
AcDbEntity
  8
Layer_1
 62
1
100
AcDbSpline
 70
8
 71
3
 72
8
 73
4
 74
0
 40
0
 40
0
 40
0
 40
0
 40
1
 40
1
 40
1
 40
1
 10
3.500000
 20
181.000001
 30
0.0
 10
3.776142
 20
181.000001
 30
0.0
 10
4.000000
 20
180.776143
 30
0.0
 10
4.000000
 20
180.500001
 30
0.0
  0
LINE
  5
17d
100
AcDbEntity
  8
Layer_1
 62
1
100
AcDbLine
 10
4.000000
 20
180.500001
 30
0.0
 11
4.000000
 21
180.500001
 31
0.0
  0
SPLINE
  5
17e
100
AcDbEntity
  8
Layer_1
 62
7
100
AcDbSpline
 70
8
 71
3
 72
8
 73
4
 74
0
 40
0
 40
0
 40
0
 40
0
 40
1
 40
1
 40
1
 40
1
 10
10.523750
 20
182.499999
 30
0.0
 10
10.523750
 20
181.385688
 30
0.0
 10
9.617686
 20
180.482361
 30
0.0
 10
8.500000
 20
180.482361
 30
0.0
  0
SPLINE
  5
17f
100
AcDbEntity
  8
Layer_1
 62
7
100
AcDbSpline
 70
8
 71
3
 72
8
 73
4
 74
0
 40
0
 40
0
 40
0
 40
0
 40
1
 40
1
 40
1
 40
1
 10
8.500000
 20
180.482361
 30
0.0
 10
7.382314
 20
180.482361
 30
0.0
 10
6.476250
 20
181.385688
 30
0.0
 10
6.476250
 20
182.499999
 30
0.0
  0
SPLINE
  5
180
100
AcDbEntity
  8
Layer_1
 62
7
100
AcDbSpline
 70
8
 71
3
 72
8
 73
4
 74
0
 40
0
 40
0
 40
0
 40
0
 40
1
 40
1
 40
1
 40
1
 10
6.476250
 20
182.499999
 30
0.0
 10
6.476250
 20
183.614310
 30
0.0
 10
7.382314
 20
184.517637
 30
0.0
 10
8.500000
 20
184.517637
 30
0.0
  0
SPLINE
  5
181
100
AcDbEntity
  8
Layer_1
 62
7
100
AcDbSpline
 70
8
 71
3
 72
8
 73
4
 74
0
 40
0
 40
0
 40
0
 40
0
 40
1
 40
1
 40
1
 40
1
 10
8.500000
 20
184.517637
 30
0.0
 10
9.617686
 20
184.517637
 30
0.0
 10
10.523750
 20
183.614310
 30
0.0
 10
10.523750
 20
182.499999
 30
0.0
  0
LINE
  5
182
100
AcDbEntity
  8
Layer_1
 62
7
100
AcDbLine
 10
10.523750
 20
182.499999
 30
0.0
 11
10.523750
 21
182.499999
 31
0.0
  0
SPLINE
  5
183
100
AcDbEntity
  8
Layer_1
 62
7
100
AcDbSpline
 70
8
 71
3
 72
8
 73
4
 74
0
 40
0
 40
0
 40
0
 40
0
 40
1
 40
1
 40
1
 40
1
 10
0.523750
 20
182.499999
 30
0.0
 10
0.523750
 20
181.385688
 30
0.0
 10
-0.382314
 20
180.482361
 30
0.0
 10
-1.500000
 20
180.482361
 30
0.0
  0
SPLINE
  5
184
100
AcDbEntity
  8
Layer_1
 62
7
100
AcDbSpline
 70
8
 71
3
 72
8
 73
4
 74
0
 40
0
 40
0
 40
0
 40
0
 40
1
 40
1
 40
1
 40
1
 10
-1.500000
 20
180.482361
 30
0.0
 10
-2.617686
 20
180.482361
 30
0.0
 10
-3.523750
 20
181.385688
 30
0.0
 10
-3.523750
 20
182.499999
 30
0.0
  0
SPLINE
  5
185
100
AcDbEntity
  8
Layer_1
 62
7
100
AcDbSpline
 70
8
 71
3
 72
8
 73
4
 74
0
 40
0
 40
0
 40
0
 40
0
 40
1
 40
1
 40
1
 40
1
 10
-3.523750
 20
182.499999
 30
0.0
 10
-3.523750
 20
183.614310
 30
0.0
 10
-2.617686
 20
184.517637
 30
0.0
 10
-1.500000
 20
184.517637
 30
0.0
  0
SPLINE
  5
186
100
AcDbEntity
  8
Layer_1
 62
7
100
AcDbSpline
 70
8
 71
3
 72
8
 73
4
 74
0
 40
0
 40
0
 40
0
 40
0
 40
1
 40
1
 40
1
 40
1
 10
-1.500000
 20
184.517637
 30
0.0
 10
-0.382314
 20
184.517637
 30
0.0
 10
0.523750
 20
183.614310
 30
0.0
 10
0.523750
 20
182.499999
 30
0.0
  0
LINE
  5
187
100
AcDbEntity
  8
Layer_1
 62
7
100
AcDbLine
 10
0.523750
 20
182.499999
 30
0.0
 11
0.523750
 21
182.499999
 31
0.0
  0
SPLINE
  5
188
100
AcDbEntity
  8
Layer_1
 62
7
100
AcDbSpline
 70
8
 71
3
 72
8
 73
4
 74
0
 40
0
 40
0
 40
0
 40
0
 40
1
 40
1
 40
1
 40
1
 10
10.523750
 20
152.499997
 30
0.0
 10
10.523750
 20
151.385686
 30
0.0
 10
9.617686
 20
150.482359
 30
0.0
 10
8.500000
 20
150.482359
 30
0.0
  0
SPLINE
  5
189
100
AcDbEntity
  8
Layer_1
 62
7
100
AcDbSpline
 70
8
 71
3
 72
8
 73
4
 74
0
 40
0
 40
0
 40
0
 40
0
 40
1
 40
1
 40
1
 40
1
 10
8.500000
 20
150.482359
 30
0.0
 10
7.382314
 20
150.482359
 30
0.0
 10
6.476250
 20
151.385686
 30
0.0
 10
6.476250
 20
152.499997
 30
0.0
  0
SPLINE
  5
18a
100
AcDbEntity
  8
Layer_1
 62
7
100
AcDbSpline
 70
8
 71
3
 72
8
 73
4
 74
0
 40
0
 40
0
 40
0
 40
0
 40
1
 40
1
 40
1
 40
1
 10
6.476250
 20
152.499997
 30
0.0
 10
6.476250
 20
153.614308
 30
0.0
 10
7.382314
 20
154.517635
 30
0.0
 10
8.500000
 20
154.517635
 30
0.0
  0
SPLINE
  5
18b
100
AcDbEntity
  8
Layer_1
 62
7
100
AcDbSpline
 70
8
 71
3
 72
8
 73
4
 74
0
 40
0
 40
0
 40
0
 40
0
 40
1
 40
1
 40
1
 40
1
 10
8.500000
 20
154.517635
 30
0.0
 10
9.617686
 20
154.517635
 30
0.0
 10
10.523750
 20
153.614308
 30
0.0
 10
10.523750
 20
152.499997
 30
0.0
  0
LINE
  5
18c
100
AcDbEntity
  8
Layer_1
 62
7
100
AcDbLine
 10
10.523750
 20
152.499997
 30
0.0
 11
10.523750
 21
152.499997
 31
0.0
  0
SPLINE
  5
18d
100
AcDbEntity
  8
Layer_1
 62
7
100
AcDbSpline
 70
8
 71
3
 72
8
 73
4
 74
0
 40
0
 40
0
 40
0
 40
0
 40
1
 40
1
 40
1
 40
1
 10
0.523750
 20
152.499997
 30
0.0
 10
0.523750
 20
151.385686
 30
0.0
 10
-0.382314
 20
150.482359
 30
0.0
 10
-1.500000
 20
150.482359
 30
0.0
  0
SPLINE
  5
18e
100
AcDbEntity
  8
Layer_1
 62
7
100
AcDbSpline
 70
8
 71
3
 72
8
 73
4
 74
0
 40
0
 40
0
 40
0
 40
0
 40
1
 40
1
 40
1
 40
1
 10
-1.500000
 20
150.482359
 30
0.0
 10
-2.617686
 20
150.482359
 30
0.0
 10
-3.523750
 20
151.385686
 30
0.0
 10
-3.523750
 20
152.499997
 30
0.0
  0
SPLINE
  5
18f
100
AcDbEntity
  8
Layer_1
 62
7
100
AcDbSpline
 70
8
 71
3
 72
8
 73
4
 74
0
 40
0
 40
0
 40
0
 40
0
 40
1
 40
1
 40
1
 40
1
 10
-3.523750
 20
152.499997
 30
0.0
 10
-3.523750
 20
153.614308
 30
0.0
 10
-2.617686
 20
154.517635
 30
0.0
 10
-1.500000
 20
154.517635
 30
0.0
  0
SPLINE
  5
190
100
AcDbEntity
  8
Layer_1
 62
7
100
AcDbSpline
 70
8
 71
3
 72
8
 73
4
 74
0
 40
0
 40
0
 40
0
 40
0
 40
1
 40
1
 40
1
 40
1
 10
-1.500000
 20
154.517635
 30
0.0
 10
-0.382314
 20
154.517635
 30
0.0
 10
0.523750
 20
153.614308
 30
0.0
 10
0.523750
 20
152.499997
 30
0.0
  0
LINE
  5
191
100
AcDbEntity
  8
Layer_1
 62
7
100
AcDbLine
 10
0.523750
 20
152.499997
 30
0.0
 11
0.523750
 21
152.499997
 31
0.0
  0
ENDSEC
  0
SECTION
  2
OBJECTS
  0
DICTIONARY
  5
C
330
0
100
AcDbDictionary
  3
ACAD_GROUP
350
D
  3
ACAD_MLINESTYLE
350
17
  0
DICTIONARY
  5
D
330
C
100
AcDbDictionary
  0
DICTIONARY
  5
1A
330
C
100
AcDbDictionary
  0
DICTIONARY
  5
17
330
C
100
AcDbDictionary
  3
STANDARD
350
18
  0
DICTIONARY
  5
19
330
C
100
AcDbDictionary
  0
ENDSEC
  0
EOF
