  0
SECTION
  2
HEADER
  9
$ACADVER
  1
AC1014
  9
$HANDSEED
  5
FFFF
  9
$MEASUREMENT
 70
     1
  0
ENDSEC
  0
SECTION
  2
TABLES
  0
TABLE
  2
VPORT
  5
8
330
0
100
AcDbSymbolTable
 70
     4
  0
VPORT
  5
2E
330
8
100
AcDbSymbolTableRecord
100
AcDbViewportTableRecord
  2
*ACTIVE
 70
     0
 10
0.0
 20
0.0
 11
1.0
 21
1.0
 12
210.0
 22
148.5
 13
0.0
 23
0.0
 14
10.0
 24
10.0
 15
10.0
 25
10.0
 16
0.0
 26
0.0
 36
1.0
 17
0.0
 27
0.0
 37
0.0
 40
341.0
 41
1.24
 42
50.0
 43
0.0
 44
0.0
 50
0.0
 51
0.0
 71
     0
 72
   100
 73
     1
 74
     3
 75
     0
 76
     0
 77
     0
 78
     0
  0
ENDTAB
  0
TABLE
  2
LTYPE
  5
5
330
0
100
AcDbSymbolTable
 70
     1
  0
LTYPE
  5
14
330
5
100
AcDbSymbolTableRecord
100
AcDbLinetypeTableRecord
  2
BYBLOCK
 70
     0
  3

 72
    65
 73
     0
 40
0.0
  0
LTYPE
  5
15
330
5
100
AcDbSymbolTableRecord
100
AcDbLinetypeTableRecord
  2
BYLAYER
 70
     0
  3

 72
    65
 73
     0
 40
0.0
  0
LTYPE
  5
16
330
5
100
AcDbSymbolTableRecord
100
AcDbLinetypeTableRecord
  2
CONTINUOUS
 70
     0
  3
Solid line
 72
    65
 73
     0
 40
0.0
  0
ENDTAB
  0
TABLE
  2
LAYER
  5
2
100
AcDbSymbolTable
 70
2
  0
LAYER
  5
50
100
AcDbSymbolTableRecord
100
AcDbLayerTableRecord
  2
0
 70
0
  6
CONTINUOUS
  0
LAYER
  5
51
100
AcDbSymbolTableRecord
100
AcDbLayerTableRecord
  2
Layer_1
 70
0
  6
CONTINUOUS
  0
ENDTAB
  0
TABLE
  2
STYLE
  5
3
330
0
100
AcDbSymbolTable
 70
     1
  0
STYLE
  5
11
330
3
100
AcDbSymbolTableRecord
100
AcDbTextStyleTableRecord
  2
STANDARD
 70
     0
 40
0.0
 41
1.0
 50
0.0
 71
     0
 42
2.5
  3
txt
  4

  0
ENDTAB
  0
TABLE
  2
VIEW
  5
6
330
0
100
AcDbSymbolTable
 70
     0
  0
ENDTAB
  0
TABLE
  2
UCS
  5
7
330
0
100
AcDbSymbolTable
 70
     0
  0
ENDTAB
  0
TABLE
  2
APPID
  5
9
330
0
100
AcDbSymbolTable
 70
     2
  0
APPID
  5
12
330
9
100
AcDbSymbolTableRecord
100
AcDbRegAppTableRecord
  2
ACAD
 70
     0
  0
ENDTAB
  0
TABLE
  2
DIMSTYLE
  5
A
330
0
100
AcDbSymbolTable
 70
     1
  0
DIMSTYLE
105
27
330
A
100
AcDbSymbolTableRecord
100
AcDbDimStyleTableRecord
  2
ISO-25
 70
     0
  3

  4

  5

  6

  7

 40
1.0
 41
2.5
 42
0.625
 43
3.75
 44
1.25
 45
0.0
 46
0.0
 47
0.0
 48
0.0
140
2.5
141
2.5
142
0.0
143
0.03937007874016
144
1.0
145
0.0
146
1.0
147
0.625
 71
     0
 72
     0
 73
     0
 74
     0
 75
     0
 76
     0
 77
     1
 78
     8
170
     0
171
     3
172
     1
173
     0
174
     0
175
     0
176
     0
177
     0
178
     0
270
     2
271
     2
272
     2
273
     2
274
     3
340
11
275
     0
280
     0
281
     0
282
     0
283
     0
284
     8
285
     0
286
     0
287
     3
288
     0
  0
ENDTAB
  0
TABLE
  2
BLOCK_RECORD
  5
1
330
0
100
AcDbSymbolTable
 70
     1
  0
BLOCK_RECORD
  5
1F
330
1
100
AcDbSymbolTableRecord
100
AcDbBlockTableRecord
  2
*MODEL_SPACE
  0
BLOCK_RECORD
  5
1B
330
1
100
AcDbSymbolTableRecord
100
AcDbBlockTableRecord
  2
*PAPER_SPACE
  0
ENDTAB
  0
ENDSEC
  0
SECTION
  2
BLOCKS
  0
BLOCK
  5
20
330
1F
100
AcDbEntity
  8
0
100
AcDbBlockBegin
  2
*MODEL_SPACE
 70
     0
 10
0.0
 20
0.0
 30
0.0
  3
*MODEL_SPACE
  1

  0
ENDBLK
  5
21
330
1F
100
AcDbEntity
  8
0
100
AcDbBlockEnd
  0
BLOCK
  5
1C
330
1B
100
AcDbEntity
 67
     1
  8
0
100
AcDbBlockBegin
  2
*PAPER_SPACE
  1

  0
ENDBLK
  5
1D
330
1B
100
AcDbEntity
 67
     1
  8
0
100
AcDbBlockEnd
  0
ENDSEC
  0
SECTION
  2
ENTITIES
  0
LWPOLYLINE
  5
100
100
AcDbEntity
  8
Layer_1
 62
7
100
AcDbPolyline
 90
21
 70
0
 10
58.499999
 20
-0.000001
 30
0.0
 10
1.500000
 20
-0.000001
 30
0.0
 10
0.860865
 20
0.181299
 30
0.0
 10
0.416828
 20
0.505685
 30
0.0
 10
0.139378
 20
0.952217
 30
0.0
 10
0.000000
 20
1.500011
 30
0.0
 10
0.000000
 20
6.500001
 30
0.0
 10
0.109039
 20
7.163392
 30
0.0
 10
0.486661
 20
7.640602
 30
0.0
 10
0.995951
 20
7.922513
 30
0.0
 10
1.500000
 20
7.999983
 30
0.0
 10
58.499999
 20
7.999983
 30
0.0
 10
59.204900
 20
7.920171
 30
0.0
 10
59.672584
 20
7.628099
 30
0.0
 10
59.928974
 20
7.146967
 30
0.0
 10
59.999999
 20
6.500001
 30
0.0
 10
59.999999
 20
1.500011
 30
0.0
 10
59.898492
 20
0.796882
 30
0.0
 10
59.581158
 20
0.352608
 30
0.0
 10
59.098242
 20
0.107018
 30
0.0
 10
58.499999
 20
-0.000001
 30
0.0
  0
LWPOLYLINE
  5
101
100
AcDbEntity
  8
Layer_1
 62
1
100
AcDbPolyline
 90
33
 70
0
 10
48.499999
 20
4.000012
 30
0.0
 10
48.489841
 20
3.899244
 30
0.0
 10
48.460707
 20
3.805389
 30
0.0
 10
48.414607
 20
3.720457
 30
0.0
 10
48.353553
 20
3.646458
 30
0.0
 10
48.279554
 20
3.585404
 30
0.0
 10
48.194622
 20
3.539304
 30
0.0
 10
48.100767
 20
3.510170
 30
0.0
 10
47.999999
 20
3.500012
 30
0.0
 10
47.899232
 20
3.510170
 30
0.0
 10
47.805377
 20
3.539304
 30
0.0
 10
47.720444
 20
3.585404
 30
0.0
 10
47.646446
 20
3.646458
 30
0.0
 10
47.585392
 20
3.720457
 30
0.0
 10
47.539292
 20
3.805389
 30
0.0
 10
47.510158
 20
3.899244
 30
0.0
 10
47.499999
 20
4.000012
 30
0.0
 10
47.510158
 20
4.100779
 30
0.0
 10
47.539292
 20
4.194634
 30
0.0
 10
47.585392
 20
4.279566
 30
0.0
 10
47.646446
 20
4.353565
 30
0.0
 10
47.720444
 20
4.414620
 30
0.0
 10
47.805377
 20
4.460719
 30
0.0
 10
47.899232
 20
4.489853
 30
0.0
 10
47.999999
 20
4.500012
 30
0.0
 10
48.100767
 20
4.489853
 30
0.0
 10
48.194622
 20
4.460719
 30
0.0
 10
48.279554
 20
4.414620
 30
0.0
 10
48.353553
 20
4.353565
 30
0.0
 10
48.414607
 20
4.279566
 30
0.0
 10
48.460707
 20
4.194634
 30
0.0
 10
48.489841
 20
4.100779
 30
0.0
 10
48.499999
 20
4.000012
 30
0.0
  0
LWPOLYLINE
  5
102
100
AcDbEntity
  8
Layer_1
 62
1
100
AcDbPolyline
 90
33
 70
0
 10
52.499999
 20
4.000012
 30
0.0
 10
52.489841
 20
3.899244
 30
0.0
 10
52.460707
 20
3.805389
 30
0.0
 10
52.414607
 20
3.720457
 30
0.0
 10
52.353553
 20
3.646458
 30
0.0
 10
52.279554
 20
3.585404
 30
0.0
 10
52.194622
 20
3.539304
 30
0.0
 10
52.100767
 20
3.510170
 30
0.0
 10
51.999999
 20
3.500012
 30
0.0
 10
51.899232
 20
3.510170
 30
0.0
 10
51.805377
 20
3.539304
 30
0.0
 10
51.720444
 20
3.585404
 30
0.0
 10
51.646446
 20
3.646458
 30
0.0
 10
51.585391
 20
3.720457
 30
0.0
 10
51.539292
 20
3.805389
 30
0.0
 10
51.510157
 20
3.899244
 30
0.0
 10
51.499999
 20
4.000012
 30
0.0
 10
51.510157
 20
4.100779
 30
0.0
 10
51.539292
 20
4.194634
 30
0.0
 10
51.585391
 20
4.279566
 30
0.0
 10
51.646446
 20
4.353565
 30
0.0
 10
51.720444
 20
4.414620
 30
0.0
 10
51.805377
 20
4.460719
 30
0.0
 10
51.899232
 20
4.489853
 30
0.0
 10
51.999999
 20
4.500012
 30
0.0
 10
52.100767
 20
4.489853
 30
0.0
 10
52.194622
 20
4.460719
 30
0.0
 10
52.279554
 20
4.414620
 30
0.0
 10
52.353553
 20
4.353565
 30
0.0
 10
52.414607
 20
4.279566
 30
0.0
 10
52.460707
 20
4.194634
 30
0.0
 10
52.489841
 20
4.100779
 30
0.0
 10
52.499999
 20
4.000012
 30
0.0
  0
LWPOLYLINE
  5
103
100
AcDbEntity
  8
Layer_1
 62
1
100
AcDbPolyline
 90
33
 70
0
 10
56.499999
 20
4.000012
 30
0.0
 10
56.489841
 20
3.899244
 30
0.0
 10
56.460707
 20
3.805389
 30
0.0
 10
56.414607
 20
3.720457
 30
0.0
 10
56.353553
 20
3.646458
 30
0.0
 10
56.279554
 20
3.585404
 30
0.0
 10
56.194622
 20
3.539304
 30
0.0
 10
56.100767
 20
3.510170
 30
0.0
 10
55.999999
 20
3.500012
 30
0.0
 10
55.899232
 20
3.510170
 30
0.0
 10
55.805377
 20
3.539304
 30
0.0
 10
55.720445
 20
3.585404
 30
0.0
 10
55.646446
 20
3.646458
 30
0.0
 10
55.585392
 20
3.720457
 30
0.0
 10
55.539292
 20
3.805389
 30
0.0
 10
55.510158
 20
3.899244
 30
0.0
 10
55.499999
 20
4.000012
 30
0.0
 10
55.510158
 20
4.100779
 30
0.0
 10
55.539292
 20
4.194634
 30
0.0
 10
55.585392
 20
4.279566
 30
0.0
 10
55.646446
 20
4.353565
 30
0.0
 10
55.720445
 20
4.414620
 30
0.0
 10
55.805377
 20
4.460719
 30
0.0
 10
55.899232
 20
4.489853
 30
0.0
 10
55.999999
 20
4.500012
 30
0.0
 10
56.100767
 20
4.489853
 30
0.0
 10
56.194622
 20
4.460719
 30
0.0
 10
56.279554
 20
4.414620
 30
0.0
 10
56.353553
 20
4.353565
 30
0.0
 10
56.414607
 20
4.279566
 30
0.0
 10
56.460707
 20
4.194634
 30
0.0
 10
56.489841
 20
4.100779
 30
0.0
 10
56.499999
 20
4.000012
 30
0.0
  0
LWPOLYLINE
  5
104
100
AcDbEntity
  8
Layer_1
 62
1
100
AcDbPolyline
 90
33
 70
0
 10
4.500000
 20
4.000012
 30
0.0
 10
4.489842
 20
3.899244
 30
0.0
 10
4.460708
 20
3.805389
 30
0.0
 10
4.414608
 20
3.720457
 30
0.0
 10
4.353554
 20
3.646458
 30
0.0
 10
4.279555
 20
3.585404
 30
0.0
 10
4.194623
 20
3.539304
 30
0.0
 10
4.100768
 20
3.510170
 30
0.0
 10
4.000000
 20
3.500012
 30
0.0
 10
3.899233
 20
3.510170
 30
0.0
 10
3.805378
 20
3.539304
 30
0.0
 10
3.720446
 20
3.585404
 30
0.0
 10
3.646447
 20
3.646458
 30
0.0
 10
3.585393
 20
3.720457
 30
0.0
 10
3.539293
 20
3.805389
 30
0.0
 10
3.510159
 20
3.899244
 30
0.0
 10
3.500000
 20
4.000012
 30
0.0
 10
3.510159
 20
4.100779
 30
0.0
 10
3.539293
 20
4.194634
 30
0.0
 10
3.585393
 20
4.279566
 30
0.0
 10
3.646447
 20
4.353565
 30
0.0
 10
3.720446
 20
4.414620
 30
0.0
 10
3.805378
 20
4.460719
 30
0.0
 10
3.899233
 20
4.489853
 30
0.0
 10
4.000000
 20
4.500012
 30
0.0
 10
4.100768
 20
4.489853
 30
0.0
 10
4.194623
 20
4.460719
 30
0.0
 10
4.279555
 20
4.414620
 30
0.0
 10
4.353554
 20
4.353565
 30
0.0
 10
4.414608
 20
4.279566
 30
0.0
 10
4.460708
 20
4.194634
 30
0.0
 10
4.489842
 20
4.100779
 30
0.0
 10
4.500000
 20
4.000012
 30
0.0
  0
LWPOLYLINE
  5
105
100
AcDbEntity
  8
Layer_1
 62
1
100
AcDbPolyline
 90
33
 70
0
 10
8.499999
 20
4.000012
 30
0.0
 10
8.489841
 20
3.899244
 30
0.0
 10
8.460707
 20
3.805389
 30
0.0
 10
8.414607
 20
3.720457
 30
0.0
 10
8.353553
 20
3.646458
 30
0.0
 10
8.279554
 20
3.585404
 30
0.0
 10
8.194622
 20
3.539304
 30
0.0
 10
8.100767
 20
3.510170
 30
0.0
 10
7.999999
 20
3.500012
 30
0.0
 10
7.899232
 20
3.510170
 30
0.0
 10
7.805377
 20
3.539304
 30
0.0
 10
7.720444
 20
3.585404
 30
0.0
 10
7.646446
 20
3.646458
 30
0.0
 10
7.585391
 20
3.720457
 30
0.0
 10
7.539292
 20
3.805389
 30
0.0
 10
7.510157
 20
3.899244
 30
0.0
 10
7.499999
 20
4.000012
 30
0.0
 10
7.510157
 20
4.100779
 30
0.0
 10
7.539292
 20
4.194634
 30
0.0
 10
7.585391
 20
4.279566
 30
0.0
 10
7.646446
 20
4.353565
 30
0.0
 10
7.720444
 20
4.414620
 30
0.0
 10
7.805377
 20
4.460719
 30
0.0
 10
7.899232
 20
4.489853
 30
0.0
 10
7.999999
 20
4.500012
 30
0.0
 10
8.100767
 20
4.489853
 30
0.0
 10
8.194622
 20
4.460719
 30
0.0
 10
8.279554
 20
4.414620
 30
0.0
 10
8.353553
 20
4.353565
 30
0.0
 10
8.414607
 20
4.279566
 30
0.0
 10
8.460707
 20
4.194634
 30
0.0
 10
8.489841
 20
4.100779
 30
0.0
 10
8.499999
 20
4.000012
 30
0.0
  0
LWPOLYLINE
  5
106
100
AcDbEntity
  8
Layer_1
 62
1
100
AcDbPolyline
 90
33
 70
0
 10
12.499999
 20
4.000012
 30
0.0
 10
12.489841
 20
3.899244
 30
0.0
 10
12.460707
 20
3.805389
 30
0.0
 10
12.414607
 20
3.720457
 30
0.0
 10
12.353552
 20
3.646458
 30
0.0
 10
12.279554
 20
3.585404
 30
0.0
 10
12.194622
 20
3.539304
 30
0.0
 10
12.100767
 20
3.510170
 30
0.0
 10
11.999999
 20
3.500012
 30
0.0
 10
11.899232
 20
3.510170
 30
0.0
 10
11.805376
 20
3.539304
 30
0.0
 10
11.720444
 20
3.585404
 30
0.0
 10
11.646446
 20
3.646458
 30
0.0
 10
11.585391
 20
3.720457
 30
0.0
 10
11.539291
 20
3.805389
 30
0.0
 10
11.510157
 20
3.899244
 30
0.0
 10
11.499999
 20
4.000012
 30
0.0
 10
11.510157
 20
4.100779
 30
0.0
 10
11.539291
 20
4.194634
 30
0.0
 10
11.585391
 20
4.279566
 30
0.0
 10
11.646446
 20
4.353565
 30
0.0
 10
11.720444
 20
4.414620
 30
0.0
 10
11.805376
 20
4.460719
 30
0.0
 10
11.899232
 20
4.489853
 30
0.0
 10
11.999999
 20
4.500012
 30
0.0
 10
12.100767
 20
4.489853
 30
0.0
 10
12.194622
 20
4.460719
 30
0.0
 10
12.279554
 20
4.414620
 30
0.0
 10
12.353552
 20
4.353565
 30
0.0
 10
12.414607
 20
4.279566
 30
0.0
 10
12.460707
 20
4.194634
 30
0.0
 10
12.489841
 20
4.100779
 30
0.0
 10
12.499999
 20
4.000012
 30
0.0
  0
LWPOLYLINE
  5
107
100
AcDbEntity
  8
Layer_1
 62
7
100
AcDbPolyline
 90
33
 70
0
 10
32.023749
 20
4.000000
 30
0.0
 10
31.982634
 20
3.593376
 30
0.0
 10
31.864713
 20
3.214645
 30
0.0
 10
31.678125
 20
2.871919
 30
0.0
 10
31.431007
 20
2.573315
 30
0.0
 10
31.131497
 20
2.326943
 30
0.0
 10
30.787734
 20
2.140918
 30
0.0
 10
30.407855
 20
2.023354
 30
0.0
 10
29.999999
 20
1.982362
 30
0.0
 10
29.592143
 20
2.023354
 30
0.0
 10
29.212264
 20
2.140918
 30
0.0
 10
28.868501
 20
2.326943
 30
0.0
 10
28.568992
 20
2.573315
 30
0.0
 10
28.321874
 20
2.871919
 30
0.0
 10
28.135285
 20
3.214645
 30
0.0
 10
28.017364
 20
3.593376
 30
0.0
 10
27.976249
 20
4.000000
 30
0.0
 10
28.017364
 20
4.406624
 30
0.0
 10
28.135285
 20
4.785355
 30
0.0
 10
28.321874
 20
5.128081
 30
0.0
 10
28.568992
 20
5.426685
 30
0.0
 10
28.868501
 20
5.673057
 30
0.0
 10
29.212264
 20
5.859082
 30
0.0
 10
29.592143
 20
5.976646
 30
0.0
 10
29.999999
 20
6.017638
 30
0.0
 10
30.407855
 20
5.976646
 30
0.0
 10
30.787734
 20
5.859082
 30
0.0
 10
31.131497
 20
5.673057
 30
0.0
 10
31.431007
 20
5.426685
 30
0.0
 10
31.678125
 20
5.128081
 30
0.0
 10
31.864713
 20
4.785355
 30
0.0
 10
31.982634
 20
4.406624
 30
0.0
 10
32.023749
 20
4.000000
 30
0.0
  0
LWPOLYLINE
  5
108
100
AcDbEntity
  8
Layer_1
 62
1
100
AcDbPolyline
 90
33
 70
0
 10
44.499999
 20
4.000012
 30
0.0
 10
44.489841
 20
3.899244
 30
0.0
 10
44.460707
 20
3.805389
 30
0.0
 10
44.414607
 20
3.720457
 30
0.0
 10
44.353553
 20
3.646458
 30
0.0
 10
44.279554
 20
3.585404
 30
0.0
 10
44.194622
 20
3.539304
 30
0.0
 10
44.100767
 20
3.510170
 30
0.0
 10
43.999999
 20
3.500012
 30
0.0
 10
43.899232
 20
3.510170
 30
0.0
 10
43.805377
 20
3.539304
 30
0.0
 10
43.720445
 20
3.585404
 30
0.0
 10
43.646446
 20
3.646458
 30
0.0
 10
43.585392
 20
3.720457
 30
0.0
 10
43.539292
 20
3.805389
 30
0.0
 10
43.510158
 20
3.899244
 30
0.0
 10
43.499999
 20
4.000012
 30
0.0
 10
43.510158
 20
4.100779
 30
0.0
 10
43.539292
 20
4.194634
 30
0.0
 10
43.585392
 20
4.279566
 30
0.0
 10
43.646446
 20
4.353565
 30
0.0
 10
43.720445
 20
4.414620
 30
0.0
 10
43.805377
 20
4.460719
 30
0.0
 10
43.899232
 20
4.489853
 30
0.0
 10
43.999999
 20
4.500012
 30
0.0
 10
44.100767
 20
4.489853
 30
0.0
 10
44.194622
 20
4.460719
 30
0.0
 10
44.279554
 20
4.414620
 30
0.0
 10
44.353553
 20
4.353565
 30
0.0
 10
44.414607
 20
4.279566
 30
0.0
 10
44.460707
 20
4.194634
 30
0.0
 10
44.489841
 20
4.100779
 30
0.0
 10
44.499999
 20
4.000012
 30
0.0
  0
LWPOLYLINE
  5
109
100
AcDbEntity
  8
Layer_1
 62
1
100
AcDbPolyline
 90
33
 70
0
 10
40.499999
 20
4.000012
 30
0.0
 10
40.489841
 20
3.899244
 30
0.0
 10
40.460707
 20
3.805389
 30
0.0
 10
40.414607
 20
3.720457
 30
0.0
 10
40.353553
 20
3.646458
 30
0.0
 10
40.279554
 20
3.585404
 30
0.0
 10
40.194622
 20
3.539304
 30
0.0
 10
40.100767
 20
3.510170
 30
0.0
 10
39.999999
 20
3.500012
 30
0.0
 10
39.899232
 20
3.510170
 30
0.0
 10
39.805377
 20
3.539304
 30
0.0
 10
39.720444
 20
3.585404
 30
0.0
 10
39.646446
 20
3.646458
 30
0.0
 10
39.585391
 20
3.720457
 30
0.0
 10
39.539292
 20
3.805389
 30
0.0
 10
39.510157
 20
3.899244
 30
0.0
 10
39.499999
 20
4.000012
 30
0.0
 10
39.510157
 20
4.100779
 30
0.0
 10
39.539292
 20
4.194634
 30
0.0
 10
39.585391
 20
4.279566
 30
0.0
 10
39.646446
 20
4.353565
 30
0.0
 10
39.720444
 20
4.414620
 30
0.0
 10
39.805377
 20
4.460719
 30
0.0
 10
39.899232
 20
4.489853
 30
0.0
 10
39.999999
 20
4.500012
 30
0.0
 10
40.100767
 20
4.489853
 30
0.0
 10
40.194622
 20
4.460719
 30
0.0
 10
40.279554
 20
4.414620
 30
0.0
 10
40.353553
 20
4.353565
 30
0.0
 10
40.414607
 20
4.279566
 30
0.0
 10
40.460707
 20
4.194634
 30
0.0
 10
40.489841
 20
4.100779
 30
0.0
 10
40.499999
 20
4.000012
 30
0.0
  0
LWPOLYLINE
  5
10a
100
AcDbEntity
  8
Layer_1
 62
1
100
AcDbPolyline
 90
33
 70
0
 10
16.499999
 20
4.000012
 30
0.0
 10
16.489841
 20
3.899244
 30
0.0
 10
16.460707
 20
3.805389
 30
0.0
 10
16.414607
 20
3.720457
 30
0.0
 10
16.353552
 20
3.646458
 30
0.0
 10
16.279554
 20
3.585404
 30
0.0
 10
16.194621
 20
3.539304
 30
0.0
 10
16.100766
 20
3.510170
 30
0.0
 10
15.999999
 20
3.500012
 30
0.0
 10
15.899232
 20
3.510170
 30
0.0
 10
15.805376
 20
3.539304
 30
0.0
 10
15.720444
 20
3.585404
 30
0.0
 10
15.646445
 20
3.646458
 30
0.0
 10
15.585391
 20
3.720457
 30
0.0
 10
15.539291
 20
3.805389
 30
0.0
 10
15.510157
 20
3.899244
 30
0.0
 10
15.499999
 20
4.000012
 30
0.0
 10
15.510157
 20
4.100779
 30
0.0
 10
15.539291
 20
4.194634
 30
0.0
 10
15.585391
 20
4.279566
 30
0.0
 10
15.646445
 20
4.353565
 30
0.0
 10
15.720444
 20
4.414620
 30
0.0
 10
15.805376
 20
4.460719
 30
0.0
 10
15.899232
 20
4.489853
 30
0.0
 10
15.999999
 20
4.500012
 30
0.0
 10
16.100766
 20
4.489853
 30
0.0
 10
16.194621
 20
4.460719
 30
0.0
 10
16.279554
 20
4.414620
 30
0.0
 10
16.353552
 20
4.353565
 30
0.0
 10
16.414607
 20
4.279566
 30
0.0
 10
16.460707
 20
4.194634
 30
0.0
 10
16.489841
 20
4.100779
 30
0.0
 10
16.499999
 20
4.000012
 30
0.0
  0
LWPOLYLINE
  5
10b
100
AcDbEntity
  8
Layer_1
 62
1
100
AcDbPolyline
 90
33
 70
0
 10
20.499999
 20
4.000012
 30
0.0
 10
20.489841
 20
3.899244
 30
0.0
 10
20.460707
 20
3.805389
 30
0.0
 10
20.414607
 20
3.720457
 30
0.0
 10
20.353553
 20
3.646458
 30
0.0
 10
20.279554
 20
3.585404
 30
0.0
 10
20.194622
 20
3.539304
 30
0.0
 10
20.100767
 20
3.510170
 30
0.0
 10
19.999999
 20
3.500012
 30
0.0
 10
19.899232
 20
3.510170
 30
0.0
 10
19.805377
 20
3.539304
 30
0.0
 10
19.720444
 20
3.585404
 30
0.0
 10
19.646446
 20
3.646458
 30
0.0
 10
19.585391
 20
3.720457
 30
0.0
 10
19.539291
 20
3.805389
 30
0.0
 10
19.510157
 20
3.899244
 30
0.0
 10
19.499999
 20
4.000012
 30
0.0
 10
19.510157
 20
4.100779
 30
0.0
 10
19.539291
 20
4.194634
 30
0.0
 10
19.585391
 20
4.279566
 30
0.0
 10
19.646446
 20
4.353565
 30
0.0
 10
19.720444
 20
4.414620
 30
0.0
 10
19.805377
 20
4.460719
 30
0.0
 10
19.899232
 20
4.489853
 30
0.0
 10
19.999999
 20
4.500012
 30
0.0
 10
20.100767
 20
4.489853
 30
0.0
 10
20.194622
 20
4.460719
 30
0.0
 10
20.279554
 20
4.414620
 30
0.0
 10
20.353553
 20
4.353565
 30
0.0
 10
20.414607
 20
4.279566
 30
0.0
 10
20.460707
 20
4.194634
 30
0.0
 10
20.489841
 20
4.100779
 30
0.0
 10
20.499999
 20
4.000012
 30
0.0
  0
ENDSEC
  0
SECTION
  2
OBJECTS
  0
DICTIONARY
  5
C
330
0
100
AcDbDictionary
  3
ACAD_GROUP
350
D
  3
ACAD_MLINESTYLE
350
17
  0
DICTIONARY
  5
D
330
C
100
AcDbDictionary
  0
DICTIONARY
  5
1A
330
C
100
AcDbDictionary
  0
DICTIONARY
  5
17
330
C
100
AcDbDictionary
  3
STANDARD
350
18
  0
DICTIONARY
  5
19
330
C
100
AcDbDictionary
  0
ENDSEC
  0
EOF
