<?xml version="1.0" encoding="UTF-8" standalone="no"?>
<!-- Created with Inkscape (http://www.inkscape.org/) -->

<svg
   xmlns:dc="http://purl.org/dc/elements/1.1/"
   xmlns:cc="http://creativecommons.org/ns#"
   xmlns:rdf="http://www.w3.org/1999/02/22-rdf-syntax-ns#"
   xmlns:svg="http://www.w3.org/2000/svg"
   xmlns="http://www.w3.org/2000/svg"
   xmlns:sodipodi="http://sodipodi.sourceforge.net/DTD/sodipodi-0.dtd"
   xmlns:inkscape="http://www.inkscape.org/namespaces/inkscape"
   sodipodi:docname="gears-demo.svg"
   inkscape:version="0.48.4 r9939"
   version="1.1"
   id="svg2"
   height="1052.3622"
   width="744.09448">
  <sodipodi:namedview
     id="base"
     pagecolor="#ffffff"
     bordercolor="#666666"
     borderopacity="1.0"
     inkscape:pageopacity="0.0"
     inkscape:pageshadow="2"
     inkscape:zoom="1.5839192"
     inkscape:cx="314.57608"
     inkscape:cy="233.30556"
     inkscape:document-units="mm"
     inkscape:current-layer="svg2"
     showgrid="false"
     inkscape:window-width="1280"
     inkscape:window-height="969"
     inkscape:window-x="-3"
     inkscape:window-y="-3"
     inkscape:window-maximized="1"
     units="mm"
     inkscape:snap-bbox="true"
     inkscape:snap-bbox-midpoints="true"
     showguides="true"
     inkscape:guide-bbox="true">
    <sodipodi:guide
       orientation="1,0"
       position="259.82143,247.32143"
       id="guide3229" />
    <sodipodi:guide
       orientation="0,1"
       position="179.91071,290.625"
       id="guide3231" />
    <sodipodi:guide
       orientation="1,0"
       position="356.25,330.35714"
       id="guide3235" />
    <sodipodi:guide
       orientation="0,1"
       position="336.16071,183.48214"
       id="guide3237" />
  </sodipodi:namedview>
  <defs
     id="defs4" />
  <metadata
     id="metadata7">
    <rdf:RDF>
      <cc:Work
         rdf:about="">
        <dc:format>image/svg+xml</dc:format>
        <dc:type
           rdf:resource="http://purl.org/dc/dcmitype/StillImage" />
        <dc:title />
      </cc:Work>
    </rdf:RDF>
  </metadata>
  <g
     transform="translate(0,-2.5390623e-6)"
     id="layer1"
     inkscape:groupmode="layer"
     inkscape:label="Layer 1" />
  <g
     transform="translate(259.73993,761.29075)"
     inkscape:label="Gear29"
     id="g3154"
     style="fill:#d4aa00">
    <path
       inkscape:connector-curvature="0"
       d="m 42.869,-2.966 0.399,-0.027 2.819,0.494 3.237,1.33 0,2.338 -3.237,1.33 -2.819,0.494 -0.399,-0.027 -0.364,3.353 0.395,0.059 2.647,1.089 2.875,1.995 -0.502,2.283 -3.447,0.603 -2.86,-0.123 -0.383,-0.113 -1.078,3.197 0.374,0.142 2.351,1.633 2.379,2.566 -0.981,2.121 -3.497,-0.152 -2.766,-0.735 -0.35,-0.192 -1.739,2.89 0.334,0.22 1.945,2.1 1.772,3.017 -1.415,1.861 -3.381,-0.9 -2.544,-1.312 -0.301,-0.264 -2.32,2.449 0.279,0.286 1.449,2.469 1.081,3.329 -1.781,1.513 -3.109,-1.606 -2.202,-1.829 -0.237,-0.322 -2.792,1.893 0.211,0.34 0.883,2.722 0.341,3.483 -2.065,1.095 -2.691,-2.237 -1.757,-2.259 -0.163,-0.365 -3.134,1.248 0.134,0.377 0.277,2.849 -0.415,3.475 L 12.07,47.839 9.922,45.076 8.691,42.492 8.611,42.1 5.282,42.646 5.331,43.043 4.99,45.884 3.837,49.189 1.503,49.315 0,46.155 l -0.646,-2.788 0.006,-0.4 -3.369,-0.183 -0.037,0.398 -0.944,2.702 -1.837,2.979 -2.306,-0.378 -0.789,-3.409 -0.032,-2.862 0.092,-0.389 -3.251,-0.903 -0.121,0.381 -1.503,2.436 -2.434,2.515 -2.171,-0.866 -0.038,-3.499 0.584,-2.802 0.173,-0.36 -2.98,-1.58 -0.201,0.345 -1.991,2.056 -2.918,1.933 -1.934,-1.312 0.715,-3.425 1.173,-2.611 0.247,-0.315 -2.571,-2.184 -0.271,0.295 -2.387,1.579 -3.265,1.261 -1.607,-1.697 1.435,-3.192 1.707,-2.298 0.309,-0.254 -2.042,-2.685 -0.327,0.229 -2.671,1.03 -3.459,0.529 -1.205,-2.003 2.088,-2.809 2.16,-1.877 0.356,-0.182 -1.416,-3.061 -0.369,0.153 -2.83,0.432 -3.492,-0.227 -0.746,-2.215 2.642,-2.294 2.514,-1.369 0.387,-0.101 -0.725,-3.295 -0.394,0.071 -2.856,-0.187 -3.362,-0.972 -0.252,-2.324 3.074,-1.672 2.749,-0.797 0.399,-0.015 0,-3.374 -0.399,-0.015 -2.749,-0.797 -3.074,-1.672 0.252,-2.324 3.362,-0.972 2.856,-0.187 0.394,0.071 0.725,-3.295 -0.387,-0.101 -2.514,-1.369 -2.642,-2.294 0.746,-2.215 3.492,-0.227 2.83,0.432 0.369,0.153 1.416,-3.061 -0.356,-0.182 -2.16,-1.877 -2.088,-2.809 1.205,-2.003 3.459,0.529 2.671,1.03 0.327,0.229 2.042,-2.685 -0.309,-0.254 -1.707,-2.298 -1.435,-3.192 1.607,-1.697 3.265,1.261 2.387,1.579 0.271,0.295 2.571,-2.184 -0.247,-0.315 -1.173,-2.611 -0.715,-3.425 1.934,-1.312 2.918,1.933 1.991,2.056 0.201,0.345 2.98,-1.58 -0.173,-0.36 -0.584,-2.802 0.038,-3.499 2.171,-0.866 2.434,2.515 1.503,2.436 0.121,0.381 3.251,-0.903 -0.092,-0.389 0.032,-2.862 0.789,-3.409 2.306,-0.378 1.837,2.979 0.944,2.702 0.037,0.398 3.369,-0.183 -0.006,-0.4 0.646,-2.788 1.503,-3.16 2.334,0.126 1.153,3.305 0.341,2.841 -0.049,0.397 3.329,0.546 0.08,-0.392 1.231,-2.584 2.148,-2.763 2.252,0.625 0.415,3.475 -0.277,2.849 -0.134,0.377 3.134,1.248 0.163,-0.365 1.757,-2.259 2.691,-2.237 2.065,1.095 -0.341,3.483 -0.883,2.722 -0.211,0.34 2.792,1.893 0.237,-0.322 2.202,-1.829 3.109,-1.606 1.781,1.513 -1.081,3.329 -1.449,2.469 -0.279,0.286 2.32,2.449 0.301,-0.264 2.544,-1.312 3.381,-0.9 1.415,1.861 -1.772,3.017 -1.945,2.1 -0.334,0.22 1.739,2.89 0.35,-0.192 2.766,-0.735 3.497,-0.152 0.981,2.121 -2.379,2.566 -2.351,1.633 -0.374,0.142 1.078,3.197 0.383,-0.113 2.86,-0.123 3.447,0.603 0.502,2.283 -2.875,1.995 -2.647,1.089 -0.395,0.059 z"
       style="fill:#d4aa00;stroke:#000000"
       id="path3156" />
  </g>
  <g
     id="g3170"
     inkscape:label="Gear9"
     transform="translate(355.877,761.73718)"
     style="fill:#ff2ad4">
    <path
       id="path3172"
       style="fill:#ff2ad4;stroke:#000000"
       d="m 10.942,-2.098 2.277,-0.437 0.887,0.048 3.378,1.586 0,1.802 -3.378,1.586 -0.887,0.048 -2.277,-0.437 -1.212,3.328 2.026,1.13 0.649,0.606 1.568,3.386 -1.159,1.381 L 9.207,10.973 8.497,10.439 7.033,8.64 3.966,10.411 4.792,12.578 4.899,13.46 3.924,17.062 2.148,17.375 0,14.324 l -0.201,-0.865 0.035,-2.319 -3.488,-0.615 -0.761,2.191 -0.484,0.744 -3.062,2.132 -1.562,-0.901 0.316,-3.718 0.402,-0.792 1.517,-1.754 -2.276,-2.713 -1.991,1.189 -0.85,0.259 -3.716,-0.335 -0.617,-1.694 2.632,-2.646 0.817,-0.347 2.29,-0.369 0,-3.542 -2.29,-0.369 -0.817,-0.347 -2.632,-2.646 0.617,-1.694 3.716,-0.335 0.85,0.259 1.991,1.189 2.276,-2.713 -1.517,-1.754 -0.402,-0.792 -0.316,-3.718 1.562,-0.901 3.062,2.132 0.484,0.744 0.761,2.191 3.488,-0.615 -0.035,-2.319 0.201,-0.865 2.148,-3.051 1.776,0.313 0.975,3.602 -0.107,0.882 -0.826,2.167 3.067,1.771 1.464,-1.799 0.71,-0.534 3.607,-0.956 1.159,1.381 -1.568,3.386 -0.649,0.606 -2.026,1.13 z"
       inkscape:connector-curvature="0" />
  </g>
  <g
     transform="translate(356.0635,868.88004)"
     inkscape:label="Gear9"
     id="g3190">
    <path
       inkscape:connector-curvature="0"
       d="m 5.471,-1.049 1.139,-0.218 0.443,0.023 1.689,0.793 0,0.902 L 7.053,1.244 6.61,1.267 5.471,1.049 4.865,2.713 5.878,3.278 6.202,3.581 6.986,5.274 6.407,5.964 4.604,5.486 4.249,5.219 3.517,4.32 1.983,5.206 2.396,6.289 2.45,6.73 1.962,8.531 1.074,8.687 0,7.162 -0.1,6.729 -0.083,5.57 -1.827,5.262 -2.207,6.358 -2.45,6.73 -3.981,7.796 -4.761,7.345 -4.604,5.486 -4.402,5.09 -3.644,4.213 -4.782,2.857 -5.778,3.452 -6.202,3.581 -8.061,3.413 -8.369,2.566 -7.053,1.244 -6.644,1.07 -5.5,0.885 l 0,-1.77 -1.144,-0.185 -0.409,-0.174 -1.316,-1.322 0.308,-0.847 1.859,-0.168 0.424,0.129 0.996,0.595 1.138,-1.356 -0.758,-0.877 -0.202,-0.396 -0.157,-1.859 0.78,-0.451 1.531,1.066 0.243,0.372 0.38,1.096 1.744,-0.308 -0.017,-1.159 0.1,-0.433 1.074,-1.525 0.888,0.156 0.488,1.801 -0.054,0.441 -0.413,1.083 1.534,0.886 0.732,-0.899 0.355,-0.267 1.803,-0.478 0.579,0.69 -0.784,1.693 -0.324,0.303 -1.013,0.565 z"
       style="fill:#9955ff;stroke:#000000"
       id="path3192" />
  </g>
  <g
     id="g3214"
     inkscape:label="Gear29"
     transform="translate(259.78093,868.88004)"
     style="fill:#ff2a2a">
    <path
       id="path3216"
       style="fill:#ff2a2a;stroke:#000000"
       d="m 21.435,-1.483 0.199,-0.014 1.41,0.248 1.618,0.665 0,1.168 -1.618,0.665 -1.41,0.248 -0.199,-0.014 -0.183,1.677 0.198,0.029 1.323,0.545 1.438,0.997 -0.251,1.141 -1.724,0.302 -1.43,-0.062 -0.191,-0.056 -0.539,1.598 0.187,0.072 1.175,0.816 1.19,1.283 -0.491,1.061 -1.748,-0.076 -1.383,-0.368 -0.175,-0.096 -0.87,1.445 0.167,0.11 0.973,1.05 0.886,1.509 -0.707,0.93 -1.691,-0.45 -1.272,-0.656 -0.15,-0.132 -1.16,1.225 0.139,0.143 0.724,1.234 0.541,1.664 -0.89,0.757 -1.555,-0.803 -1.101,-0.914 -0.119,-0.161 -1.396,0.946 0.106,0.17 0.442,1.361 0.17,1.742 -1.032,0.547 L 9.69,20.945 8.811,19.815 8.73,19.632 7.163,20.257 7.23,20.445 7.369,21.869 7.161,23.607 6.035,23.919 4.961,22.538 4.346,21.246 4.306,21.05 2.641,21.323 2.666,21.521 2.495,22.942 1.919,24.594 0.752,24.658 0,23.077 l -0.323,-1.394 0.003,-0.199 -1.684,-0.092 -0.019,0.199 -0.472,1.351 -0.918,1.49 -1.153,-0.189 -0.395,-1.705 -0.016,-1.431 0.046,-0.195 -1.625,-0.451 -0.061,0.19 -0.752,1.218 -1.217,1.258 -1.085,-0.433 -0.019,-1.749 0.292,-1.401 0.087,-0.181 -1.491,-0.79 -0.1,0.173 -0.996,1.028 -1.458,0.966 -0.968,-0.655 0.358,-1.713 0.587,-1.306 0.123,-0.157 -1.286,-1.092 -0.135,0.147 -1.193,0.79 -1.633,0.63 -0.803,-0.848 0.717,-1.596 0.854,-1.149 0.154,-0.127 -1.021,-1.343 -0.164,0.115 -1.335,0.515 -1.73,0.264 -0.602,-1.001 1.044,-1.404 1.08,-0.939 0.178,-0.091 -0.708,-1.531 -0.185,0.077 -1.414,0.216 -1.747,-0.114 -0.373,-1.107 1.322,-1.147 1.257,-0.685 0.193,-0.05 -0.363,-1.647 -0.196,0.035 -1.428,-0.093 -1.681,-0.487 -0.127,-1.161 1.537,-0.837 1.375,-0.398 0.2,-0.008 0,-1.686 -0.2,-0.008 -1.375,-0.398 -1.537,-0.837 0.127,-1.161 1.681,-0.487 1.428,-0.093 0.196,0.035 0.363,-1.647 -0.193,-0.05 -1.257,-0.685 -1.322,-1.147 0.373,-1.107 1.747,-0.114 1.414,0.216 0.185,0.077 0.708,-1.531 -0.178,-0.091 -1.08,-0.939 -1.044,-1.404 0.602,-1.001 1.73,0.264 1.335,0.515 0.164,0.115 1.021,-1.343 -0.154,-0.127 -0.854,-1.149 -0.717,-1.596 0.803,-0.848 1.633,0.63 1.193,0.79 0.135,0.147 1.286,-1.092 -0.123,-0.157 -0.587,-1.306 -0.358,-1.713 0.968,-0.655 1.458,0.966 0.996,1.028 0.1,0.173 1.491,-0.79 -0.087,-0.181 -0.292,-1.401 0.019,-1.749 1.085,-0.433 1.217,1.258 0.752,1.218 0.061,0.19 1.625,-0.451 -0.046,-0.195 0.016,-1.431 0.395,-1.705 1.153,-0.189 0.918,1.49 0.472,1.351 0.019,0.199 1.684,-0.092 -0.003,-0.199 0.323,-1.394 0.752,-1.581 1.167,0.064 0.576,1.652 0.171,1.421 -0.025,0.198 1.665,0.273 0.04,-0.196 0.615,-1.292 1.074,-1.381 1.126,0.312 0.208,1.738 -0.139,1.424 -0.067,0.188 1.567,0.625 0.081,-0.183 0.879,-1.13 1.346,-1.118 1.032,0.547 -0.17,1.742 -0.442,1.361 -0.106,0.17 1.396,0.946 0.119,-0.161 1.101,-0.914 1.555,-0.803 0.89,0.757 -0.541,1.664 -0.724,1.234 -0.139,0.143 1.16,1.225 0.15,-0.132 1.272,-0.656 1.691,-0.45 0.707,0.93 -0.886,1.509 -0.973,1.05 -0.167,0.11 0.87,1.445 0.175,-0.096 1.383,-0.368 1.748,-0.076 0.491,1.061 -1.19,1.283 -1.175,0.816 -0.187,0.072 0.539,1.598 0.191,-0.056 1.43,-0.062 1.724,0.302 0.251,1.141 -1.438,0.997 -1.323,0.545 -0.198,0.029 z"
       inkscape:connector-curvature="0" />
  </g>
  <path
     sodipodi:type="arc"
     style="fill:#00112b;fill-opacity:1;stroke:none"
     id="path3233"
     sodipodi:cx="225.89285"
     sodipodi:cy="639.41577"
     sodipodi:rx="8.0357141"
     sodipodi:ry="6.6964288"
     d="m 233.92857,639.41577 a 8.0357141,6.6964288 0 1 1 -16.07143,0 8.0357141,6.6964288 0 1 1 16.07143,0 z"
     transform="matrix(0.22047244,0,0,0.26456692,210.01828,592.56892)" />
  <path
     sodipodi:type="arc"
     style="fill:#2d1650;fill-opacity:1;stroke:none"
     id="path3233-6"
     sodipodi:cx="225.89285"
     sodipodi:cy="639.41577"
     sodipodi:rx="8.0357141"
     sodipodi:ry="6.6964288"
     d="m 233.92857,639.41577 a 8.0357141,6.6964288 0 1 1 -16.07143,0 8.0357141,6.6964288 0 1 1 16.07143,0 z"
     transform="matrix(0.22047244,0,0,0.26456692,306.44685,592.56892)" />
  <path
     sodipodi:type="arc"
     style="fill:#2b0022;fill-opacity:1;stroke:none"
     id="path3233-7"
     sodipodi:cx="225.89285"
     sodipodi:cy="639.41577"
     sodipodi:rx="8.0357141"
     sodipodi:ry="6.6964288"
     d="m 233.92857,639.41577 a 8.0357141,6.6964288 0 1 1 -16.07143,0 8.0357141,6.6964288 0 1 1 16.07143,0 z"
     transform="matrix(0.22047244,0,0,0.26456692,306.44685,699.71178)" />
  <path
     sodipodi:type="arc"
     style="fill:#000000;fill-opacity:1;stroke:none"
     id="path3233-0"
     sodipodi:cx="225.89285"
     sodipodi:cy="639.41577"
     sodipodi:rx="8.0357141"
     sodipodi:ry="6.6964288"
     d="m 233.92857,639.41577 a 8.0357141,6.6964288 0 1 1 -16.07143,0 8.0357141,6.6964288 0 1 1 16.07143,0 z"
     transform="matrix(0.22047244,0,0,0.26456692,210.01828,699.71178)" />
</svg>
