  0
SECTION
  2
HEADER
  9
$ACADVER
  1
AC1014
  9
$HANDSEED
  5
FFFF
  9
$MEASUREMENT
 70
     1
  0
ENDSEC
  0
SECTION
  2
TABLES
  0
TABLE
  2
VPORT
  5
8
330
0
100
AcDbSymbolTable
 70
     4
  0
VPORT
  5
2E
330
8
100
AcDbSymbolTableRecord
100
AcDbViewportTableRecord
  2
*ACTIVE
 70
     0
 10
0.0
 20
0.0
 11
1.0
 21
1.0
 12
210.0
 22
148.5
 13
0.0
 23
0.0
 14
10.0
 24
10.0
 15
10.0
 25
10.0
 16
0.0
 26
0.0
 36
1.0
 17
0.0
 27
0.0
 37
0.0
 40
341.0
 41
1.24
 42
50.0
 43
0.0
 44
0.0
 50
0.0
 51
0.0
 71
     0
 72
   100
 73
     1
 74
     3
 75
     0
 76
     0
 77
     0
 78
     0
  0
ENDTAB
  0
TABLE
  2
LTYPE
  5
5
330
0
100
AcDbSymbolTable
 70
     1
  0
LTYPE
  5
14
330
5
100
AcDbSymbolTableRecord
100
AcDbLinetypeTableRecord
  2
BYBLOCK
 70
     0
  3

 72
    65
 73
     0
 40
0.0
  0
LTYPE
  5
15
330
5
100
AcDbSymbolTableRecord
100
AcDbLinetypeTableRecord
  2
BYLAYER
 70
     0
  3

 72
    65
 73
     0
 40
0.0
  0
LTYPE
  5
16
330
5
100
AcDbSymbolTableRecord
100
AcDbLinetypeTableRecord
  2
CONTINUOUS
 70
     0
  3
Solid line
 72
    65
 73
     0
 40
0.0
  0
ENDTAB
  0
TABLE
  2
LAYER
  5
2
100
AcDbSymbolTable
 70
2
  0
LAYER
  5
50
100
AcDbSymbolTableRecord
100
AcDbLayerTableRecord
  2
0
 70
0
  6
CONTINUOUS
  0
LAYER
  5
51
100
AcDbSymbolTableRecord
100
AcDbLayerTableRecord
  2
Layer_1
 70
0
  6
CONTINUOUS
  0
ENDTAB
  0
TABLE
  2
STYLE
  5
3
330
0
100
AcDbSymbolTable
 70
     1
  0
STYLE
  5
11
330
3
100
AcDbSymbolTableRecord
100
AcDbTextStyleTableRecord
  2
STANDARD
 70
     0
 40
0.0
 41
1.0
 50
0.0
 71
     0
 42
2.5
  3
txt
  4

  0
ENDTAB
  0
TABLE
  2
VIEW
  5
6
330
0
100
AcDbSymbolTable
 70
     0
  0
ENDTAB
  0
TABLE
  2
UCS
  5
7
330
0
100
AcDbSymbolTable
 70
     0
  0
ENDTAB
  0
TABLE
  2
APPID
  5
9
330
0
100
AcDbSymbolTable
 70
     2
  0
APPID
  5
12
330
9
100
AcDbSymbolTableRecord
100
AcDbRegAppTableRecord
  2
ACAD
 70
     0
  0
ENDTAB
  0
TABLE
  2
DIMSTYLE
  5
A
330
0
100
AcDbSymbolTable
 70
     1
  0
DIMSTYLE
105
27
330
A
100
AcDbSymbolTableRecord
100
AcDbDimStyleTableRecord
  2
ISO-25
 70
     0
  3

  4

  5

  6

  7

 40
1.0
 41
2.5
 42
0.625
 43
3.75
 44
1.25
 45
0.0
 46
0.0
 47
0.0
 48
0.0
140
2.5
141
2.5
142
0.0
143
0.03937007874016
144
1.0
145
0.0
146
1.0
147
0.625
 71
     0
 72
     0
 73
     0
 74
     0
 75
     0
 76
     0
 77
     1
 78
     8
170
     0
171
     3
172
     1
173
     0
174
     0
175
     0
176
     0
177
     0
178
     0
270
     2
271
     2
272
     2
273
     2
274
     3
340
11
275
     0
280
     0
281
     0
282
     0
283
     0
284
     8
285
     0
286
     0
287
     3
288
     0
  0
ENDTAB
  0
TABLE
  2
BLOCK_RECORD
  5
1
330
0
100
AcDbSymbolTable
 70
     1
  0
BLOCK_RECORD
  5
1F
330
1
100
AcDbSymbolTableRecord
100
AcDbBlockTableRecord
  2
*MODEL_SPACE
  0
BLOCK_RECORD
  5
1B
330
1
100
AcDbSymbolTableRecord
100
AcDbBlockTableRecord
  2
*PAPER_SPACE
  0
ENDTAB
  0
ENDSEC
  0
SECTION
  2
BLOCKS
  0
BLOCK
  5
20
330
1F
100
AcDbEntity
  8
0
100
AcDbBlockBegin
  2
*MODEL_SPACE
 70
     0
 10
0.0
 20
0.0
 30
0.0
  3
*MODEL_SPACE
  1

  0
ENDBLK
  5
21
330
1F
100
AcDbEntity
  8
0
100
AcDbBlockEnd
  0
BLOCK
  5
1C
330
1B
100
AcDbEntity
 67
     1
  8
0
100
AcDbBlockBegin
  2
*PAPER_SPACE
  1

  0
ENDBLK
  5
1D
330
1B
100
AcDbEntity
 67
     1
  8
0
100
AcDbBlockEnd
  0
ENDSEC
  0
SECTION
  2
ENTITIES
  0
SPLINE
  5
100
100
AcDbEntity
  8
Layer_1
 62
7
100
AcDbSpline
 70
8
 71
3
 72
8
 73
4
 74
0
 40
0
 40
0
 40
0
 40
0
 40
1
 40
1
 40
1
 40
1
 10
104.999999
 20
0.000001
 30
0.0
 10
107.769996
 20
-0.000028
 30
0.0
 10
110.000000
 20
2.230036
 30
0.0
 10
110.000000
 20
5.000019
 30
0.0
  0
LWPOLYLINE
  5
101
100
AcDbEntity
  8
Layer_1
 62
7
100
AcDbPolyline
 90
2
 70
0
 10
4.999987
 20
0.000001
 30
0.0
 10
104.999999
 20
0.000001
 30
0.0
  0
SPLINE
  5
102
100
AcDbEntity
  8
Layer_1
 62
7
100
AcDbSpline
 70
8
 71
3
 72
8
 73
4
 74
0
 40
0
 40
0
 40
0
 40
0
 40
1
 40
1
 40
1
 40
1
 10
110.000000
 20
40.000005
 30
0.0
 10
110.000000
 20
65.000009
 30
0.0
 10
110.000000
 20
79.999987
 30
0.0
 10
110.000000
 20
104.999991
 30
0.0
  0
SPLINE
  5
103
100
AcDbEntity
  8
Layer_1
 62
7
100
AcDbSpline
 70
8
 71
3
 72
8
 73
4
 74
0
 40
0
 40
0
 40
0
 40
0
 40
1
 40
1
 40
1
 40
1
 10
110.000000
 20
104.999991
 30
0.0
 10
110.000000
 20
107.769974
 30
0.0
 10
107.769996
 20
109.999990
 30
0.0
 10
104.999999
 20
109.999990
 30
0.0
  0
LWPOLYLINE
  5
104
100
AcDbEntity
  8
Layer_1
 62
7
100
AcDbPolyline
 90
13
 70
0
 10
110.000000
 20
5.000019
 30
0.0
 10
110.000000
 20
20.000006
 30
0.0
 10
106.499999
 20
20.000006
 30
0.0
 10
106.499999
 20
18.500006
 30
0.0
 10
99.500001
 20
18.500006
 30
0.0
 10
99.500001
 20
20.000006
 30
0.0
 10
97.000001
 20
20.000006
 30
0.0
 10
97.000001
 20
40.000003
 30
0.0
 10
99.500001
 20
40.000005
 30
0.0
 10
99.500001
 20
41.500005
 30
0.0
 10
106.499999
 20
41.500005
 30
0.0
 10
106.499999
 20
40.000003
 30
0.0
 10
110.000000
 20
40.000005
 30
0.0
  0
SPLINE
  5
105
100
AcDbEntity
  8
Layer_1
 62
7
100
AcDbSpline
 70
8
 71
3
 72
8
 73
4
 74
0
 40
0
 40
0
 40
0
 40
0
 40
1
 40
1
 40
1
 40
1
 10
4.999987
 20
110.000004
 30
0.0
 10
2.229990
 20
110.000004
 30
0.0
 10
0.000000
 20
107.769988
 30
0.0
 10
0.000000
 20
105.000005
 30
0.0
  0
LWPOLYLINE
  5
106
100
AcDbEntity
  8
Layer_1
 62
7
100
AcDbPolyline
 90
2
 70
0
 10
104.999999
 20
109.999990
 30
0.0
 10
4.999987
 20
110.000004
 30
0.0
  0
SPLINE
  5
107
100
AcDbEntity
  8
Layer_1
 62
7
100
AcDbSpline
 70
8
 71
3
 72
8
 73
4
 74
0
 40
0
 40
0
 40
0
 40
0
 40
1
 40
1
 40
1
 40
1
 10
0.000000
 20
5.000019
 30
0.0
 10
-0.000000
 20
2.230008
 30
0.0
 10
2.229990
 20
0.000001
 30
0.0
 10
4.999987
 20
0.000001
 30
0.0
  0
LWPOLYLINE
  5
108
100
AcDbEntity
  8
Layer_1
 62
7
100
AcDbPolyline
 90
14
 70
0
 10
0.000000
 20
105.000005
 30
0.0
 10
0.000000
 20
40.000005
 30
0.0
 10
3.500000
 20
40.000003
 30
0.0
 10
3.500000
 20
41.500005
 30
0.0
 10
10.500000
 20
41.500008
 30
0.0
 10
10.500000
 20
40.000003
 30
0.0
 10
13.000000
 20
40.000003
 30
0.0
 10
13.000000
 20
20.000006
 30
0.0
 10
10.500000
 20
20.000006
 30
0.0
 10
10.500000
 20
18.500006
 30
0.0
 10
3.500000
 20
18.500006
 30
0.0
 10
3.500000
 20
20.000006
 30
0.0
 10
0.000000
 20
20.000000
 30
0.0
 10
0.000000
 20
5.000019
 30
0.0
  0
SPLINE
  5
109
100
AcDbEntity
  8
Layer_1
 62
7
100
AcDbSpline
 70
8
 71
3
 72
8
 73
4
 74
0
 40
0
 40
0
 40
0
 40
0
 40
1
 40
1
 40
1
 40
1
 10
17.000004
 20
55.000003
 30
0.0
 10
17.000004
 20
53.895433
 30
0.0
 10
16.104573
 20
53.000003
 30
0.0
 10
15.000004
 20
53.000003
 30
0.0
  0
SPLINE
  5
10a
100
AcDbEntity
  8
Layer_1
 62
7
100
AcDbSpline
 70
8
 71
3
 72
8
 73
4
 74
0
 40
0
 40
0
 40
0
 40
0
 40
1
 40
1
 40
1
 40
1
 10
15.000004
 20
53.000003
 30
0.0
 10
13.895434
 20
53.000003
 30
0.0
 10
13.000004
 20
53.895433
 30
0.0
 10
13.000004
 20
55.000003
 30
0.0
  0
SPLINE
  5
10b
100
AcDbEntity
  8
Layer_1
 62
7
100
AcDbSpline
 70
8
 71
3
 72
8
 73
4
 74
0
 40
0
 40
0
 40
0
 40
0
 40
1
 40
1
 40
1
 40
1
 10
13.000004
 20
55.000003
 30
0.0
 10
13.000004
 20
56.104572
 30
0.0
 10
13.895434
 20
57.000002
 30
0.0
 10
15.000004
 20
57.000002
 30
0.0
  0
SPLINE
  5
10c
100
AcDbEntity
  8
Layer_1
 62
7
100
AcDbSpline
 70
8
 71
3
 72
8
 73
4
 74
0
 40
0
 40
0
 40
0
 40
0
 40
1
 40
1
 40
1
 40
1
 10
15.000004
 20
57.000002
 30
0.0
 10
16.104573
 20
57.000002
 30
0.0
 10
17.000004
 20
56.104572
 30
0.0
 10
17.000004
 20
55.000003
 30
0.0
  0
LWPOLYLINE
  5
10d
100
AcDbEntity
  8
Layer_1
 62
7
100
AcDbPolyline
 90
2
 70
0
 10
4.999987
 20
0.000001
 30
0.0
 10
4.999987
 20
0.000001
 30
0.0
  0
SPLINE
  5
10e
100
AcDbEntity
  8
Layer_1
 62
7
100
AcDbSpline
 70
8
 71
3
 72
8
 73
4
 74
0
 40
0
 40
0
 40
0
 40
0
 40
1
 40
1
 40
1
 40
1
 10
7.000004
 20
55.000003
 30
0.0
 10
7.000004
 20
53.895433
 30
0.0
 10
6.104573
 20
53.000003
 30
0.0
 10
5.000004
 20
53.000003
 30
0.0
  0
SPLINE
  5
10f
100
AcDbEntity
  8
Layer_1
 62
7
100
AcDbSpline
 70
8
 71
3
 72
8
 73
4
 74
0
 40
0
 40
0
 40
0
 40
0
 40
1
 40
1
 40
1
 40
1
 10
5.000004
 20
53.000003
 30
0.0
 10
3.895434
 20
53.000003
 30
0.0
 10
3.000004
 20
53.895433
 30
0.0
 10
3.000004
 20
55.000003
 30
0.0
  0
SPLINE
  5
110
100
AcDbEntity
  8
Layer_1
 62
7
100
AcDbSpline
 70
8
 71
3
 72
8
 73
4
 74
0
 40
0
 40
0
 40
0
 40
0
 40
1
 40
1
 40
1
 40
1
 10
3.000004
 20
55.000003
 30
0.0
 10
3.000004
 20
56.104572
 30
0.0
 10
3.895434
 20
57.000002
 30
0.0
 10
5.000004
 20
57.000002
 30
0.0
  0
SPLINE
  5
111
100
AcDbEntity
  8
Layer_1
 62
7
100
AcDbSpline
 70
8
 71
3
 72
8
 73
4
 74
0
 40
0
 40
0
 40
0
 40
0
 40
1
 40
1
 40
1
 40
1
 10
5.000004
 20
57.000002
 30
0.0
 10
6.104573
 20
57.000002
 30
0.0
 10
7.000004
 20
56.104572
 30
0.0
 10
7.000004
 20
55.000003
 30
0.0
  0
LWPOLYLINE
  5
112
100
AcDbEntity
  8
Layer_1
 62
7
100
AcDbPolyline
 90
2
 70
0
 10
17.000004
 20
55.000003
 30
0.0
 10
17.000004
 20
55.000003
 30
0.0
  0
SPLINE
  5
113
100
AcDbEntity
  8
Layer_1
 62
7
100
AcDbSpline
 70
8
 71
3
 72
8
 73
4
 74
0
 40
0
 40
0
 40
0
 40
0
 40
1
 40
1
 40
1
 40
1
 10
37.000002
 20
45.000003
 30
0.0
 10
37.000002
 20
43.895433
 30
0.0
 10
36.104572
 20
43.000003
 30
0.0
 10
35.000002
 20
43.000003
 30
0.0
  0
SPLINE
  5
114
100
AcDbEntity
  8
Layer_1
 62
7
100
AcDbSpline
 70
8
 71
3
 72
8
 73
4
 74
0
 40
0
 40
0
 40
0
 40
0
 40
1
 40
1
 40
1
 40
1
 10
35.000002
 20
43.000003
 30
0.0
 10
33.895433
 20
43.000003
 30
0.0
 10
33.000002
 20
43.895433
 30
0.0
 10
33.000002
 20
45.000003
 30
0.0
  0
SPLINE
  5
115
100
AcDbEntity
  8
Layer_1
 62
7
100
AcDbSpline
 70
8
 71
3
 72
8
 73
4
 74
0
 40
0
 40
0
 40
0
 40
0
 40
1
 40
1
 40
1
 40
1
 10
33.000002
 20
45.000003
 30
0.0
 10
33.000002
 20
46.104573
 30
0.0
 10
33.895433
 20
47.000003
 30
0.0
 10
35.000002
 20
47.000003
 30
0.0
  0
SPLINE
  5
116
100
AcDbEntity
  8
Layer_1
 62
7
100
AcDbSpline
 70
8
 71
3
 72
8
 73
4
 74
0
 40
0
 40
0
 40
0
 40
0
 40
1
 40
1
 40
1
 40
1
 10
35.000002
 20
47.000003
 30
0.0
 10
36.104572
 20
47.000003
 30
0.0
 10
37.000002
 20
46.104573
 30
0.0
 10
37.000002
 20
45.000003
 30
0.0
  0
LWPOLYLINE
  5
117
100
AcDbEntity
  8
Layer_1
 62
7
100
AcDbPolyline
 90
2
 70
0
 10
7.000004
 20
55.000003
 30
0.0
 10
7.000004
 20
55.000003
 30
0.0
  0
SPLINE
  5
118
100
AcDbEntity
  8
Layer_1
 62
7
100
AcDbSpline
 70
8
 71
3
 72
8
 73
4
 74
0
 40
0
 40
0
 40
0
 40
0
 40
1
 40
1
 40
1
 40
1
 10
37.000002
 20
55.000003
 30
0.0
 10
37.000002
 20
53.895433
 30
0.0
 10
36.104572
 20
53.000003
 30
0.0
 10
35.000002
 20
53.000003
 30
0.0
  0
SPLINE
  5
119
100
AcDbEntity
  8
Layer_1
 62
7
100
AcDbSpline
 70
8
 71
3
 72
8
 73
4
 74
0
 40
0
 40
0
 40
0
 40
0
 40
1
 40
1
 40
1
 40
1
 10
35.000002
 20
53.000003
 30
0.0
 10
33.895433
 20
53.000003
 30
0.0
 10
33.000002
 20
53.895433
 30
0.0
 10
33.000002
 20
55.000003
 30
0.0
  0
SPLINE
  5
11a
100
AcDbEntity
  8
Layer_1
 62
7
100
AcDbSpline
 70
8
 71
3
 72
8
 73
4
 74
0
 40
0
 40
0
 40
0
 40
0
 40
1
 40
1
 40
1
 40
1
 10
33.000002
 20
55.000003
 30
0.0
 10
33.000002
 20
56.104572
 30
0.0
 10
33.895433
 20
57.000002
 30
0.0
 10
35.000002
 20
57.000002
 30
0.0
  0
SPLINE
  5
11b
100
AcDbEntity
  8
Layer_1
 62
7
100
AcDbSpline
 70
8
 71
3
 72
8
 73
4
 74
0
 40
0
 40
0
 40
0
 40
0
 40
1
 40
1
 40
1
 40
1
 10
35.000002
 20
57.000002
 30
0.0
 10
36.104572
 20
57.000002
 30
0.0
 10
37.000002
 20
56.104572
 30
0.0
 10
37.000002
 20
55.000003
 30
0.0
  0
LWPOLYLINE
  5
11c
100
AcDbEntity
  8
Layer_1
 62
7
100
AcDbPolyline
 90
2
 70
0
 10
37.000002
 20
45.000003
 30
0.0
 10
37.000002
 20
45.000003
 30
0.0
  0
SPLINE
  5
11d
100
AcDbEntity
  8
Layer_1
 62
7
100
AcDbSpline
 70
8
 71
3
 72
8
 73
4
 74
0
 40
0
 40
0
 40
0
 40
0
 40
1
 40
1
 40
1
 40
1
 10
27.000004
 20
45.000003
 30
0.0
 10
27.000004
 20
43.895433
 30
0.0
 10
26.104573
 20
43.000003
 30
0.0
 10
25.000004
 20
43.000003
 30
0.0
  0
SPLINE
  5
11e
100
AcDbEntity
  8
Layer_1
 62
7
100
AcDbSpline
 70
8
 71
3
 72
8
 73
4
 74
0
 40
0
 40
0
 40
0
 40
0
 40
1
 40
1
 40
1
 40
1
 10
25.000004
 20
43.000003
 30
0.0
 10
23.895434
 20
43.000003
 30
0.0
 10
23.000004
 20
43.895433
 30
0.0
 10
23.000004
 20
45.000003
 30
0.0
  0
SPLINE
  5
11f
100
AcDbEntity
  8
Layer_1
 62
7
100
AcDbSpline
 70
8
 71
3
 72
8
 73
4
 74
0
 40
0
 40
0
 40
0
 40
0
 40
1
 40
1
 40
1
 40
1
 10
23.000004
 20
45.000003
 30
0.0
 10
23.000004
 20
46.104573
 30
0.0
 10
23.895434
 20
47.000003
 30
0.0
 10
25.000004
 20
47.000003
 30
0.0
  0
SPLINE
  5
120
100
AcDbEntity
  8
Layer_1
 62
7
100
AcDbSpline
 70
8
 71
3
 72
8
 73
4
 74
0
 40
0
 40
0
 40
0
 40
0
 40
1
 40
1
 40
1
 40
1
 10
25.000004
 20
47.000003
 30
0.0
 10
26.104573
 20
47.000003
 30
0.0
 10
27.000004
 20
46.104573
 30
0.0
 10
27.000004
 20
45.000003
 30
0.0
  0
LWPOLYLINE
  5
121
100
AcDbEntity
  8
Layer_1
 62
7
100
AcDbPolyline
 90
2
 70
0
 10
37.000002
 20
55.000003
 30
0.0
 10
37.000002
 20
55.000003
 30
0.0
  0
SPLINE
  5
122
100
AcDbEntity
  8
Layer_1
 62
7
100
AcDbSpline
 70
8
 71
3
 72
8
 73
4
 74
0
 40
0
 40
0
 40
0
 40
0
 40
1
 40
1
 40
1
 40
1
 10
27.000004
 20
55.000003
 30
0.0
 10
27.000004
 20
53.895433
 30
0.0
 10
26.104573
 20
53.000003
 30
0.0
 10
25.000004
 20
53.000003
 30
0.0
  0
SPLINE
  5
123
100
AcDbEntity
  8
Layer_1
 62
7
100
AcDbSpline
 70
8
 71
3
 72
8
 73
4
 74
0
 40
0
 40
0
 40
0
 40
0
 40
1
 40
1
 40
1
 40
1
 10
25.000004
 20
53.000003
 30
0.0
 10
23.895434
 20
53.000003
 30
0.0
 10
23.000004
 20
53.895433
 30
0.0
 10
23.000004
 20
55.000003
 30
0.0
  0
SPLINE
  5
124
100
AcDbEntity
  8
Layer_1
 62
7
100
AcDbSpline
 70
8
 71
3
 72
8
 73
4
 74
0
 40
0
 40
0
 40
0
 40
0
 40
1
 40
1
 40
1
 40
1
 10
23.000004
 20
55.000003
 30
0.0
 10
23.000004
 20
56.104572
 30
0.0
 10
23.895434
 20
57.000002
 30
0.0
 10
25.000004
 20
57.000002
 30
0.0
  0
SPLINE
  5
125
100
AcDbEntity
  8
Layer_1
 62
7
100
AcDbSpline
 70
8
 71
3
 72
8
 73
4
 74
0
 40
0
 40
0
 40
0
 40
0
 40
1
 40
1
 40
1
 40
1
 10
25.000004
 20
57.000002
 30
0.0
 10
26.104573
 20
57.000002
 30
0.0
 10
27.000004
 20
56.104572
 30
0.0
 10
27.000004
 20
55.000003
 30
0.0
  0
LWPOLYLINE
  5
126
100
AcDbEntity
  8
Layer_1
 62
7
100
AcDbPolyline
 90
2
 70
0
 10
27.000004
 20
45.000003
 30
0.0
 10
27.000004
 20
45.000003
 30
0.0
  0
SPLINE
  5
127
100
AcDbEntity
  8
Layer_1
 62
7
100
AcDbSpline
 70
8
 71
3
 72
8
 73
4
 74
0
 40
0
 40
0
 40
0
 40
0
 40
1
 40
1
 40
1
 40
1
 10
57.000002
 20
45.000003
 30
0.0
 10
57.000002
 20
43.895433
 30
0.0
 10
56.104571
 20
43.000003
 30
0.0
 10
55.000002
 20
43.000003
 30
0.0
  0
SPLINE
  5
128
100
AcDbEntity
  8
Layer_1
 62
7
100
AcDbSpline
 70
8
 71
3
 72
8
 73
4
 74
0
 40
0
 40
0
 40
0
 40
0
 40
1
 40
1
 40
1
 40
1
 10
55.000002
 20
43.000003
 30
0.0
 10
53.895432
 20
43.000003
 30
0.0
 10
53.000002
 20
43.895433
 30
0.0
 10
53.000002
 20
45.000003
 30
0.0
  0
SPLINE
  5
129
100
AcDbEntity
  8
Layer_1
 62
7
100
AcDbSpline
 70
8
 71
3
 72
8
 73
4
 74
0
 40
0
 40
0
 40
0
 40
0
 40
1
 40
1
 40
1
 40
1
 10
53.000002
 20
45.000003
 30
0.0
 10
53.000002
 20
46.104573
 30
0.0
 10
53.895432
 20
47.000003
 30
0.0
 10
55.000002
 20
47.000003
 30
0.0
  0
SPLINE
  5
12a
100
AcDbEntity
  8
Layer_1
 62
7
100
AcDbSpline
 70
8
 71
3
 72
8
 73
4
 74
0
 40
0
 40
0
 40
0
 40
0
 40
1
 40
1
 40
1
 40
1
 10
55.000002
 20
47.000003
 30
0.0
 10
56.104571
 20
47.000003
 30
0.0
 10
57.000002
 20
46.104573
 30
0.0
 10
57.000002
 20
45.000003
 30
0.0
  0
LWPOLYLINE
  5
12b
100
AcDbEntity
  8
Layer_1
 62
7
100
AcDbPolyline
 90
2
 70
0
 10
27.000004
 20
55.000003
 30
0.0
 10
27.000004
 20
55.000003
 30
0.0
  0
SPLINE
  5
12c
100
AcDbEntity
  8
Layer_1
 62
7
100
AcDbSpline
 70
8
 71
3
 72
8
 73
4
 74
0
 40
0
 40
0
 40
0
 40
0
 40
1
 40
1
 40
1
 40
1
 10
57.000002
 20
55.000003
 30
0.0
 10
57.000002
 20
53.895433
 30
0.0
 10
56.104571
 20
53.000003
 30
0.0
 10
55.000002
 20
53.000003
 30
0.0
  0
SPLINE
  5
12d
100
AcDbEntity
  8
Layer_1
 62
7
100
AcDbSpline
 70
8
 71
3
 72
8
 73
4
 74
0
 40
0
 40
0
 40
0
 40
0
 40
1
 40
1
 40
1
 40
1
 10
55.000002
 20
53.000003
 30
0.0
 10
53.895432
 20
53.000003
 30
0.0
 10
53.000002
 20
53.895433
 30
0.0
 10
53.000002
 20
55.000003
 30
0.0
  0
SPLINE
  5
12e
100
AcDbEntity
  8
Layer_1
 62
7
100
AcDbSpline
 70
8
 71
3
 72
8
 73
4
 74
0
 40
0
 40
0
 40
0
 40
0
 40
1
 40
1
 40
1
 40
1
 10
53.000002
 20
55.000003
 30
0.0
 10
53.000002
 20
56.104572
 30
0.0
 10
53.895432
 20
57.000002
 30
0.0
 10
55.000002
 20
57.000002
 30
0.0
  0
SPLINE
  5
12f
100
AcDbEntity
  8
Layer_1
 62
7
100
AcDbSpline
 70
8
 71
3
 72
8
 73
4
 74
0
 40
0
 40
0
 40
0
 40
0
 40
1
 40
1
 40
1
 40
1
 10
55.000002
 20
57.000002
 30
0.0
 10
56.104571
 20
57.000002
 30
0.0
 10
57.000002
 20
56.104572
 30
0.0
 10
57.000002
 20
55.000003
 30
0.0
  0
LWPOLYLINE
  5
130
100
AcDbEntity
  8
Layer_1
 62
7
100
AcDbPolyline
 90
2
 70
0
 10
57.000002
 20
45.000003
 30
0.0
 10
57.000002
 20
45.000003
 30
0.0
  0
SPLINE
  5
131
100
AcDbEntity
  8
Layer_1
 62
7
100
AcDbSpline
 70
8
 71
3
 72
8
 73
4
 74
0
 40
0
 40
0
 40
0
 40
0
 40
1
 40
1
 40
1
 40
1
 10
47.000002
 20
55.000003
 30
0.0
 10
47.000002
 20
53.895433
 30
0.0
 10
46.104572
 20
53.000003
 30
0.0
 10
45.000002
 20
53.000003
 30
0.0
  0
SPLINE
  5
132
100
AcDbEntity
  8
Layer_1
 62
7
100
AcDbSpline
 70
8
 71
3
 72
8
 73
4
 74
0
 40
0
 40
0
 40
0
 40
0
 40
1
 40
1
 40
1
 40
1
 10
45.000002
 20
53.000003
 30
0.0
 10
43.895433
 20
53.000003
 30
0.0
 10
43.000002
 20
53.895433
 30
0.0
 10
43.000002
 20
55.000003
 30
0.0
  0
SPLINE
  5
133
100
AcDbEntity
  8
Layer_1
 62
7
100
AcDbSpline
 70
8
 71
3
 72
8
 73
4
 74
0
 40
0
 40
0
 40
0
 40
0
 40
1
 40
1
 40
1
 40
1
 10
43.000002
 20
55.000003
 30
0.0
 10
43.000002
 20
56.104572
 30
0.0
 10
43.895433
 20
57.000002
 30
0.0
 10
45.000002
 20
57.000002
 30
0.0
  0
SPLINE
  5
134
100
AcDbEntity
  8
Layer_1
 62
7
100
AcDbSpline
 70
8
 71
3
 72
8
 73
4
 74
0
 40
0
 40
0
 40
0
 40
0
 40
1
 40
1
 40
1
 40
1
 10
45.000002
 20
57.000002
 30
0.0
 10
46.104572
 20
57.000002
 30
0.0
 10
47.000002
 20
56.104572
 30
0.0
 10
47.000002
 20
55.000003
 30
0.0
  0
LWPOLYLINE
  5
135
100
AcDbEntity
  8
Layer_1
 62
7
100
AcDbPolyline
 90
2
 70
0
 10
57.000002
 20
55.000003
 30
0.0
 10
57.000002
 20
55.000003
 30
0.0
  0
SPLINE
  5
136
100
AcDbEntity
  8
Layer_1
 62
7
100
AcDbSpline
 70
8
 71
3
 72
8
 73
4
 74
0
 40
0
 40
0
 40
0
 40
0
 40
1
 40
1
 40
1
 40
1
 10
77.000001
 20
45.000003
 30
0.0
 10
77.000001
 20
43.895433
 30
0.0
 10
76.104571
 20
43.000003
 30
0.0
 10
75.000001
 20
43.000003
 30
0.0
  0
SPLINE
  5
137
100
AcDbEntity
  8
Layer_1
 62
7
100
AcDbSpline
 70
8
 71
3
 72
8
 73
4
 74
0
 40
0
 40
0
 40
0
 40
0
 40
1
 40
1
 40
1
 40
1
 10
75.000001
 20
43.000003
 30
0.0
 10
73.895432
 20
43.000003
 30
0.0
 10
73.000001
 20
43.895433
 30
0.0
 10
73.000001
 20
45.000003
 30
0.0
  0
SPLINE
  5
138
100
AcDbEntity
  8
Layer_1
 62
7
100
AcDbSpline
 70
8
 71
3
 72
8
 73
4
 74
0
 40
0
 40
0
 40
0
 40
0
 40
1
 40
1
 40
1
 40
1
 10
73.000001
 20
45.000003
 30
0.0
 10
73.000001
 20
46.104573
 30
0.0
 10
73.895432
 20
47.000003
 30
0.0
 10
75.000001
 20
47.000003
 30
0.0
  0
SPLINE
  5
139
100
AcDbEntity
  8
Layer_1
 62
7
100
AcDbSpline
 70
8
 71
3
 72
8
 73
4
 74
0
 40
0
 40
0
 40
0
 40
0
 40
1
 40
1
 40
1
 40
1
 10
75.000001
 20
47.000003
 30
0.0
 10
76.104571
 20
47.000003
 30
0.0
 10
77.000001
 20
46.104573
 30
0.0
 10
77.000001
 20
45.000003
 30
0.0
  0
LWPOLYLINE
  5
13a
100
AcDbEntity
  8
Layer_1
 62
7
100
AcDbPolyline
 90
2
 70
0
 10
47.000002
 20
55.000003
 30
0.0
 10
47.000002
 20
55.000003
 30
0.0
  0
SPLINE
  5
13b
100
AcDbEntity
  8
Layer_1
 62
7
100
AcDbSpline
 70
8
 71
3
 72
8
 73
4
 74
0
 40
0
 40
0
 40
0
 40
0
 40
1
 40
1
 40
1
 40
1
 10
77.000001
 20
55.000003
 30
0.0
 10
77.000001
 20
53.895433
 30
0.0
 10
76.104571
 20
53.000003
 30
0.0
 10
75.000001
 20
53.000003
 30
0.0
  0
SPLINE
  5
13c
100
AcDbEntity
  8
Layer_1
 62
7
100
AcDbSpline
 70
8
 71
3
 72
8
 73
4
 74
0
 40
0
 40
0
 40
0
 40
0
 40
1
 40
1
 40
1
 40
1
 10
75.000001
 20
53.000003
 30
0.0
 10
73.895432
 20
53.000003
 30
0.0
 10
73.000001
 20
53.895433
 30
0.0
 10
73.000001
 20
55.000003
 30
0.0
  0
SPLINE
  5
13d
100
AcDbEntity
  8
Layer_1
 62
7
100
AcDbSpline
 70
8
 71
3
 72
8
 73
4
 74
0
 40
0
 40
0
 40
0
 40
0
 40
1
 40
1
 40
1
 40
1
 10
73.000001
 20
55.000003
 30
0.0
 10
73.000001
 20
56.104572
 30
0.0
 10
73.895432
 20
57.000002
 30
0.0
 10
75.000001
 20
57.000002
 30
0.0
  0
SPLINE
  5
13e
100
AcDbEntity
  8
Layer_1
 62
7
100
AcDbSpline
 70
8
 71
3
 72
8
 73
4
 74
0
 40
0
 40
0
 40
0
 40
0
 40
1
 40
1
 40
1
 40
1
 10
75.000001
 20
57.000002
 30
0.0
 10
76.104571
 20
57.000002
 30
0.0
 10
77.000001
 20
56.104572
 30
0.0
 10
77.000001
 20
55.000003
 30
0.0
  0
LWPOLYLINE
  5
13f
100
AcDbEntity
  8
Layer_1
 62
7
100
AcDbPolyline
 90
2
 70
0
 10
77.000001
 20
45.000003
 30
0.0
 10
77.000001
 20
45.000003
 30
0.0
  0
SPLINE
  5
140
100
AcDbEntity
  8
Layer_1
 62
7
100
AcDbSpline
 70
8
 71
3
 72
8
 73
4
 74
0
 40
0
 40
0
 40
0
 40
0
 40
1
 40
1
 40
1
 40
1
 10
67.000002
 20
55.000003
 30
0.0
 10
67.000002
 20
53.895433
 30
0.0
 10
66.104571
 20
53.000003
 30
0.0
 10
65.000002
 20
53.000003
 30
0.0
  0
SPLINE
  5
141
100
AcDbEntity
  8
Layer_1
 62
7
100
AcDbSpline
 70
8
 71
3
 72
8
 73
4
 74
0
 40
0
 40
0
 40
0
 40
0
 40
1
 40
1
 40
1
 40
1
 10
65.000002
 20
53.000003
 30
0.0
 10
63.895432
 20
53.000003
 30
0.0
 10
63.000002
 20
53.895433
 30
0.0
 10
63.000002
 20
55.000003
 30
0.0
  0
SPLINE
  5
142
100
AcDbEntity
  8
Layer_1
 62
7
100
AcDbSpline
 70
8
 71
3
 72
8
 73
4
 74
0
 40
0
 40
0
 40
0
 40
0
 40
1
 40
1
 40
1
 40
1
 10
63.000002
 20
55.000003
 30
0.0
 10
63.000002
 20
56.104572
 30
0.0
 10
63.895432
 20
57.000002
 30
0.0
 10
65.000002
 20
57.000002
 30
0.0
  0
SPLINE
  5
143
100
AcDbEntity
  8
Layer_1
 62
7
100
AcDbSpline
 70
8
 71
3
 72
8
 73
4
 74
0
 40
0
 40
0
 40
0
 40
0
 40
1
 40
1
 40
1
 40
1
 10
65.000002
 20
57.000002
 30
0.0
 10
66.104571
 20
57.000002
 30
0.0
 10
67.000002
 20
56.104572
 30
0.0
 10
67.000002
 20
55.000003
 30
0.0
  0
LWPOLYLINE
  5
144
100
AcDbEntity
  8
Layer_1
 62
7
100
AcDbPolyline
 90
2
 70
0
 10
77.000001
 20
55.000003
 30
0.0
 10
77.000001
 20
55.000003
 30
0.0
  0
SPLINE
  5
145
100
AcDbEntity
  8
Layer_1
 62
7
100
AcDbSpline
 70
8
 71
3
 72
8
 73
4
 74
0
 40
0
 40
0
 40
0
 40
0
 40
1
 40
1
 40
1
 40
1
 10
97.000004
 20
55.000003
 30
0.0
 10
97.000004
 20
53.895433
 30
0.0
 10
96.104573
 20
53.000003
 30
0.0
 10
95.000004
 20
53.000003
 30
0.0
  0
SPLINE
  5
146
100
AcDbEntity
  8
Layer_1
 62
7
100
AcDbSpline
 70
8
 71
3
 72
8
 73
4
 74
0
 40
0
 40
0
 40
0
 40
0
 40
1
 40
1
 40
1
 40
1
 10
95.000004
 20
53.000003
 30
0.0
 10
93.895434
 20
53.000003
 30
0.0
 10
93.000004
 20
53.895433
 30
0.0
 10
93.000004
 20
55.000003
 30
0.0
  0
SPLINE
  5
147
100
AcDbEntity
  8
Layer_1
 62
7
100
AcDbSpline
 70
8
 71
3
 72
8
 73
4
 74
0
 40
0
 40
0
 40
0
 40
0
 40
1
 40
1
 40
1
 40
1
 10
93.000004
 20
55.000003
 30
0.0
 10
93.000004
 20
56.104572
 30
0.0
 10
93.895434
 20
57.000002
 30
0.0
 10
95.000004
 20
57.000002
 30
0.0
  0
SPLINE
  5
148
100
AcDbEntity
  8
Layer_1
 62
7
100
AcDbSpline
 70
8
 71
3
 72
8
 73
4
 74
0
 40
0
 40
0
 40
0
 40
0
 40
1
 40
1
 40
1
 40
1
 10
95.000004
 20
57.000002
 30
0.0
 10
96.104573
 20
57.000002
 30
0.0
 10
97.000004
 20
56.104572
 30
0.0
 10
97.000004
 20
55.000003
 30
0.0
  0
LWPOLYLINE
  5
149
100
AcDbEntity
  8
Layer_1
 62
7
100
AcDbPolyline
 90
2
 70
0
 10
67.000002
 20
55.000003
 30
0.0
 10
67.000002
 20
55.000003
 30
0.0
  0
SPLINE
  5
14a
100
AcDbEntity
  8
Layer_1
 62
7
100
AcDbSpline
 70
8
 71
3
 72
8
 73
4
 74
0
 40
0
 40
0
 40
0
 40
0
 40
1
 40
1
 40
1
 40
1
 10
87.000004
 20
45.000003
 30
0.0
 10
87.000004
 20
43.895433
 30
0.0
 10
86.104573
 20
43.000003
 30
0.0
 10
85.000004
 20
43.000003
 30
0.0
  0
SPLINE
  5
14b
100
AcDbEntity
  8
Layer_1
 62
7
100
AcDbSpline
 70
8
 71
3
 72
8
 73
4
 74
0
 40
0
 40
0
 40
0
 40
0
 40
1
 40
1
 40
1
 40
1
 10
85.000004
 20
43.000003
 30
0.0
 10
83.895434
 20
43.000003
 30
0.0
 10
83.000004
 20
43.895433
 30
0.0
 10
83.000004
 20
45.000003
 30
0.0
  0
SPLINE
  5
14c
100
AcDbEntity
  8
Layer_1
 62
7
100
AcDbSpline
 70
8
 71
3
 72
8
 73
4
 74
0
 40
0
 40
0
 40
0
 40
0
 40
1
 40
1
 40
1
 40
1
 10
83.000004
 20
45.000003
 30
0.0
 10
83.000004
 20
46.104573
 30
0.0
 10
83.895434
 20
47.000003
 30
0.0
 10
85.000004
 20
47.000003
 30
0.0
  0
SPLINE
  5
14d
100
AcDbEntity
  8
Layer_1
 62
7
100
AcDbSpline
 70
8
 71
3
 72
8
 73
4
 74
0
 40
0
 40
0
 40
0
 40
0
 40
1
 40
1
 40
1
 40
1
 10
85.000004
 20
47.000003
 30
0.0
 10
86.104573
 20
47.000003
 30
0.0
 10
87.000004
 20
46.104573
 30
0.0
 10
87.000004
 20
45.000003
 30
0.0
  0
LWPOLYLINE
  5
14e
100
AcDbEntity
  8
Layer_1
 62
7
100
AcDbPolyline
 90
2
 70
0
 10
97.000004
 20
55.000003
 30
0.0
 10
97.000004
 20
55.000003
 30
0.0
  0
SPLINE
  5
14f
100
AcDbEntity
  8
Layer_1
 62
7
100
AcDbSpline
 70
8
 71
3
 72
8
 73
4
 74
0
 40
0
 40
0
 40
0
 40
0
 40
1
 40
1
 40
1
 40
1
 10
87.000004
 20
55.000003
 30
0.0
 10
87.000004
 20
53.895433
 30
0.0
 10
86.104573
 20
53.000003
 30
0.0
 10
85.000004
 20
53.000003
 30
0.0
  0
SPLINE
  5
150
100
AcDbEntity
  8
Layer_1
 62
7
100
AcDbSpline
 70
8
 71
3
 72
8
 73
4
 74
0
 40
0
 40
0
 40
0
 40
0
 40
1
 40
1
 40
1
 40
1
 10
85.000004
 20
53.000003
 30
0.0
 10
83.895434
 20
53.000003
 30
0.0
 10
83.000004
 20
53.895433
 30
0.0
 10
83.000004
 20
55.000003
 30
0.0
  0
SPLINE
  5
151
100
AcDbEntity
  8
Layer_1
 62
7
100
AcDbSpline
 70
8
 71
3
 72
8
 73
4
 74
0
 40
0
 40
0
 40
0
 40
0
 40
1
 40
1
 40
1
 40
1
 10
83.000004
 20
55.000003
 30
0.0
 10
83.000004
 20
56.104572
 30
0.0
 10
83.895434
 20
57.000002
 30
0.0
 10
85.000004
 20
57.000002
 30
0.0
  0
SPLINE
  5
152
100
AcDbEntity
  8
Layer_1
 62
7
100
AcDbSpline
 70
8
 71
3
 72
8
 73
4
 74
0
 40
0
 40
0
 40
0
 40
0
 40
1
 40
1
 40
1
 40
1
 10
85.000004
 20
57.000002
 30
0.0
 10
86.104573
 20
57.000002
 30
0.0
 10
87.000004
 20
56.104572
 30
0.0
 10
87.000004
 20
55.000003
 30
0.0
  0
LWPOLYLINE
  5
153
100
AcDbEntity
  8
Layer_1
 62
7
100
AcDbPolyline
 90
2
 70
0
 10
87.000004
 20
45.000003
 30
0.0
 10
87.000004
 20
45.000003
 30
0.0
  0
SPLINE
  5
154
100
AcDbEntity
  8
Layer_1
 62
7
100
AcDbSpline
 70
8
 71
3
 72
8
 73
4
 74
0
 40
0
 40
0
 40
0
 40
0
 40
1
 40
1
 40
1
 40
1
 10
107.000004
 20
55.000003
 30
0.0
 10
107.000004
 20
53.895433
 30
0.0
 10
106.104573
 20
53.000003
 30
0.0
 10
105.000003
 20
53.000003
 30
0.0
  0
SPLINE
  5
155
100
AcDbEntity
  8
Layer_1
 62
7
100
AcDbSpline
 70
8
 71
3
 72
8
 73
4
 74
0
 40
0
 40
0
 40
0
 40
0
 40
1
 40
1
 40
1
 40
1
 10
105.000003
 20
53.000003
 30
0.0
 10
103.895434
 20
53.000003
 30
0.0
 10
103.000003
 20
53.895433
 30
0.0
 10
103.000003
 20
55.000003
 30
0.0
  0
SPLINE
  5
156
100
AcDbEntity
  8
Layer_1
 62
7
100
AcDbSpline
 70
8
 71
3
 72
8
 73
4
 74
0
 40
0
 40
0
 40
0
 40
0
 40
1
 40
1
 40
1
 40
1
 10
103.000003
 20
55.000003
 30
0.0
 10
103.000003
 20
56.104572
 30
0.0
 10
103.895434
 20
57.000002
 30
0.0
 10
105.000003
 20
57.000002
 30
0.0
  0
SPLINE
  5
157
100
AcDbEntity
  8
Layer_1
 62
7
100
AcDbSpline
 70
8
 71
3
 72
8
 73
4
 74
0
 40
0
 40
0
 40
0
 40
0
 40
1
 40
1
 40
1
 40
1
 10
105.000003
 20
57.000002
 30
0.0
 10
106.104573
 20
57.000002
 30
0.0
 10
107.000004
 20
56.104572
 30
0.0
 10
107.000004
 20
55.000003
 30
0.0
  0
LWPOLYLINE
  5
158
100
AcDbEntity
  8
Layer_1
 62
7
100
AcDbPolyline
 90
2
 70
0
 10
87.000004
 20
55.000003
 30
0.0
 10
87.000004
 20
55.000003
 30
0.0
  0
SPLINE
  5
159
100
AcDbEntity
  8
Layer_1
 62
7
100
AcDbSpline
 70
8
 71
3
 72
8
 73
4
 74
0
 40
0
 40
0
 40
0
 40
0
 40
1
 40
1
 40
1
 40
1
 10
37.000000
 20
25.000003
 30
0.0
 10
37.000000
 20
23.895434
 30
0.0
 10
36.104569
 20
23.000003
 30
0.0
 10
35.000000
 20
23.000003
 30
0.0
  0
SPLINE
  5
15a
100
AcDbEntity
  8
Layer_1
 62
7
100
AcDbSpline
 70
8
 71
3
 72
8
 73
4
 74
0
 40
0
 40
0
 40
0
 40
0
 40
1
 40
1
 40
1
 40
1
 10
35.000000
 20
23.000003
 30
0.0
 10
33.895430
 20
23.000003
 30
0.0
 10
32.999999
 20
23.895434
 30
0.0
 10
32.999999
 20
25.000003
 30
0.0
  0
SPLINE
  5
15b
100
AcDbEntity
  8
Layer_1
 62
7
100
AcDbSpline
 70
8
 71
3
 72
8
 73
4
 74
0
 40
0
 40
0
 40
0
 40
0
 40
1
 40
1
 40
1
 40
1
 10
32.999999
 20
25.000003
 30
0.0
 10
32.999999
 20
26.104573
 30
0.0
 10
33.895430
 20
27.000003
 30
0.0
 10
35.000000
 20
27.000003
 30
0.0
  0
SPLINE
  5
15c
100
AcDbEntity
  8
Layer_1
 62
7
100
AcDbSpline
 70
8
 71
3
 72
8
 73
4
 74
0
 40
0
 40
0
 40
0
 40
0
 40
1
 40
1
 40
1
 40
1
 10
35.000000
 20
27.000003
 30
0.0
 10
36.104569
 20
27.000003
 30
0.0
 10
37.000000
 20
26.104573
 30
0.0
 10
37.000000
 20
25.000003
 30
0.0
  0
LWPOLYLINE
  5
15d
100
AcDbEntity
  8
Layer_1
 62
7
100
AcDbPolyline
 90
2
 70
0
 10
107.000004
 20
55.000003
 30
0.0
 10
107.000004
 20
55.000003
 30
0.0
  0
SPLINE
  5
15e
100
AcDbEntity
  8
Layer_1
 62
7
100
AcDbSpline
 70
8
 71
3
 72
8
 73
4
 74
0
 40
0
 40
0
 40
0
 40
0
 40
1
 40
1
 40
1
 40
1
 10
37.000000
 20
35.000003
 30
0.0
 10
37.000000
 20
33.895433
 30
0.0
 10
36.104569
 20
33.000003
 30
0.0
 10
35.000000
 20
33.000003
 30
0.0
  0
SPLINE
  5
15f
100
AcDbEntity
  8
Layer_1
 62
7
100
AcDbSpline
 70
8
 71
3
 72
8
 73
4
 74
0
 40
0
 40
0
 40
0
 40
0
 40
1
 40
1
 40
1
 40
1
 10
35.000000
 20
33.000003
 30
0.0
 10
33.895430
 20
33.000003
 30
0.0
 10
32.999999
 20
33.895433
 30
0.0
 10
32.999999
 20
35.000003
 30
0.0
  0
SPLINE
  5
160
100
AcDbEntity
  8
Layer_1
 62
7
100
AcDbSpline
 70
8
 71
3
 72
8
 73
4
 74
0
 40
0
 40
0
 40
0
 40
0
 40
1
 40
1
 40
1
 40
1
 10
32.999999
 20
35.000003
 30
0.0
 10
32.999999
 20
36.104573
 30
0.0
 10
33.895430
 20
37.000003
 30
0.0
 10
35.000000
 20
37.000003
 30
0.0
  0
SPLINE
  5
161
100
AcDbEntity
  8
Layer_1
 62
7
100
AcDbSpline
 70
8
 71
3
 72
8
 73
4
 74
0
 40
0
 40
0
 40
0
 40
0
 40
1
 40
1
 40
1
 40
1
 10
35.000000
 20
37.000003
 30
0.0
 10
36.104569
 20
37.000003
 30
0.0
 10
37.000000
 20
36.104573
 30
0.0
 10
37.000000
 20
35.000003
 30
0.0
  0
LWPOLYLINE
  5
162
100
AcDbEntity
  8
Layer_1
 62
7
100
AcDbPolyline
 90
2
 70
0
 10
37.000000
 20
25.000003
 30
0.0
 10
37.000000
 20
25.000003
 30
0.0
  0
SPLINE
  5
163
100
AcDbEntity
  8
Layer_1
 62
7
100
AcDbSpline
 70
8
 71
3
 72
8
 73
4
 74
0
 40
0
 40
0
 40
0
 40
0
 40
1
 40
1
 40
1
 40
1
 10
27.000003
 20
25.000003
 30
0.0
 10
27.000003
 20
23.895434
 30
0.0
 10
26.104572
 20
23.000003
 30
0.0
 10
25.000003
 20
23.000003
 30
0.0
  0
SPLINE
  5
164
100
AcDbEntity
  8
Layer_1
 62
7
100
AcDbSpline
 70
8
 71
3
 72
8
 73
4
 74
0
 40
0
 40
0
 40
0
 40
0
 40
1
 40
1
 40
1
 40
1
 10
25.000003
 20
23.000003
 30
0.0
 10
23.895433
 20
23.000003
 30
0.0
 10
23.000003
 20
23.895434
 30
0.0
 10
23.000003
 20
25.000003
 30
0.0
  0
SPLINE
  5
165
100
AcDbEntity
  8
Layer_1
 62
7
100
AcDbSpline
 70
8
 71
3
 72
8
 73
4
 74
0
 40
0
 40
0
 40
0
 40
0
 40
1
 40
1
 40
1
 40
1
 10
23.000003
 20
25.000003
 30
0.0
 10
23.000003
 20
26.104573
 30
0.0
 10
23.895433
 20
27.000003
 30
0.0
 10
25.000003
 20
27.000003
 30
0.0
  0
SPLINE
  5
166
100
AcDbEntity
  8
Layer_1
 62
7
100
AcDbSpline
 70
8
 71
3
 72
8
 73
4
 74
0
 40
0
 40
0
 40
0
 40
0
 40
1
 40
1
 40
1
 40
1
 10
25.000003
 20
27.000003
 30
0.0
 10
26.104572
 20
27.000003
 30
0.0
 10
27.000003
 20
26.104573
 30
0.0
 10
27.000003
 20
25.000003
 30
0.0
  0
LWPOLYLINE
  5
167
100
AcDbEntity
  8
Layer_1
 62
7
100
AcDbPolyline
 90
2
 70
0
 10
37.000000
 20
35.000003
 30
0.0
 10
37.000000
 20
35.000003
 30
0.0
  0
SPLINE
  5
168
100
AcDbEntity
  8
Layer_1
 62
7
100
AcDbSpline
 70
8
 71
3
 72
8
 73
4
 74
0
 40
0
 40
0
 40
0
 40
0
 40
1
 40
1
 40
1
 40
1
 10
27.000003
 20
35.000003
 30
0.0
 10
27.000003
 20
33.895433
 30
0.0
 10
26.104572
 20
33.000003
 30
0.0
 10
25.000003
 20
33.000003
 30
0.0
  0
SPLINE
  5
169
100
AcDbEntity
  8
Layer_1
 62
7
100
AcDbSpline
 70
8
 71
3
 72
8
 73
4
 74
0
 40
0
 40
0
 40
0
 40
0
 40
1
 40
1
 40
1
 40
1
 10
25.000003
 20
33.000003
 30
0.0
 10
23.895433
 20
33.000003
 30
0.0
 10
23.000003
 20
33.895433
 30
0.0
 10
23.000003
 20
35.000003
 30
0.0
  0
SPLINE
  5
16a
100
AcDbEntity
  8
Layer_1
 62
7
100
AcDbSpline
 70
8
 71
3
 72
8
 73
4
 74
0
 40
0
 40
0
 40
0
 40
0
 40
1
 40
1
 40
1
 40
1
 10
23.000003
 20
35.000003
 30
0.0
 10
23.000003
 20
36.104573
 30
0.0
 10
23.895433
 20
37.000003
 30
0.0
 10
25.000003
 20
37.000003
 30
0.0
  0
SPLINE
  5
16b
100
AcDbEntity
  8
Layer_1
 62
7
100
AcDbSpline
 70
8
 71
3
 72
8
 73
4
 74
0
 40
0
 40
0
 40
0
 40
0
 40
1
 40
1
 40
1
 40
1
 10
25.000003
 20
37.000003
 30
0.0
 10
26.104572
 20
37.000003
 30
0.0
 10
27.000003
 20
36.104573
 30
0.0
 10
27.000003
 20
35.000003
 30
0.0
  0
LWPOLYLINE
  5
16c
100
AcDbEntity
  8
Layer_1
 62
7
100
AcDbPolyline
 90
2
 70
0
 10
27.000003
 20
25.000003
 30
0.0
 10
27.000003
 20
25.000003
 30
0.0
  0
SPLINE
  5
16d
100
AcDbEntity
  8
Layer_1
 62
7
100
AcDbSpline
 70
8
 71
3
 72
8
 73
4
 74
0
 40
0
 40
0
 40
0
 40
0
 40
1
 40
1
 40
1
 40
1
 10
56.999999
 20
25.000003
 30
0.0
 10
56.999999
 20
23.895434
 30
0.0
 10
56.104568
 20
23.000003
 30
0.0
 10
54.999999
 20
23.000003
 30
0.0
  0
SPLINE
  5
16e
100
AcDbEntity
  8
Layer_1
 62
7
100
AcDbSpline
 70
8
 71
3
 72
8
 73
4
 74
0
 40
0
 40
0
 40
0
 40
0
 40
1
 40
1
 40
1
 40
1
 10
54.999999
 20
23.000003
 30
0.0
 10
53.895430
 20
23.000003
 30
0.0
 10
52.999999
 20
23.895434
 30
0.0
 10
52.999999
 20
25.000003
 30
0.0
  0
SPLINE
  5
16f
100
AcDbEntity
  8
Layer_1
 62
7
100
AcDbSpline
 70
8
 71
3
 72
8
 73
4
 74
0
 40
0
 40
0
 40
0
 40
0
 40
1
 40
1
 40
1
 40
1
 10
52.999999
 20
25.000003
 30
0.0
 10
52.999999
 20
26.104573
 30
0.0
 10
53.895430
 20
27.000003
 30
0.0
 10
54.999999
 20
27.000003
 30
0.0
  0
SPLINE
  5
170
100
AcDbEntity
  8
Layer_1
 62
7
100
AcDbSpline
 70
8
 71
3
 72
8
 73
4
 74
0
 40
0
 40
0
 40
0
 40
0
 40
1
 40
1
 40
1
 40
1
 10
54.999999
 20
27.000003
 30
0.0
 10
56.104568
 20
27.000003
 30
0.0
 10
56.999999
 20
26.104573
 30
0.0
 10
56.999999
 20
25.000003
 30
0.0
  0
LWPOLYLINE
  5
171
100
AcDbEntity
  8
Layer_1
 62
7
100
AcDbPolyline
 90
2
 70
0
 10
27.000003
 20
35.000003
 30
0.0
 10
27.000003
 20
35.000003
 30
0.0
  0
SPLINE
  5
172
100
AcDbEntity
  8
Layer_1
 62
7
100
AcDbSpline
 70
8
 71
3
 72
8
 73
4
 74
0
 40
0
 40
0
 40
0
 40
0
 40
1
 40
1
 40
1
 40
1
 10
56.999999
 20
35.000003
 30
0.0
 10
56.999999
 20
33.895433
 30
0.0
 10
56.104568
 20
33.000003
 30
0.0
 10
54.999999
 20
33.000003
 30
0.0
  0
SPLINE
  5
173
100
AcDbEntity
  8
Layer_1
 62
7
100
AcDbSpline
 70
8
 71
3
 72
8
 73
4
 74
0
 40
0
 40
0
 40
0
 40
0
 40
1
 40
1
 40
1
 40
1
 10
54.999999
 20
33.000003
 30
0.0
 10
53.895430
 20
33.000003
 30
0.0
 10
52.999999
 20
33.895433
 30
0.0
 10
52.999999
 20
35.000003
 30
0.0
  0
SPLINE
  5
174
100
AcDbEntity
  8
Layer_1
 62
7
100
AcDbSpline
 70
8
 71
3
 72
8
 73
4
 74
0
 40
0
 40
0
 40
0
 40
0
 40
1
 40
1
 40
1
 40
1
 10
52.999999
 20
35.000003
 30
0.0
 10
52.999999
 20
36.104573
 30
0.0
 10
53.895430
 20
37.000003
 30
0.0
 10
54.999999
 20
37.000003
 30
0.0
  0
SPLINE
  5
175
100
AcDbEntity
  8
Layer_1
 62
7
100
AcDbSpline
 70
8
 71
3
 72
8
 73
4
 74
0
 40
0
 40
0
 40
0
 40
0
 40
1
 40
1
 40
1
 40
1
 10
54.999999
 20
37.000003
 30
0.0
 10
56.104568
 20
37.000003
 30
0.0
 10
56.999999
 20
36.104573
 30
0.0
 10
56.999999
 20
35.000003
 30
0.0
  0
LWPOLYLINE
  5
176
100
AcDbEntity
  8
Layer_1
 62
7
100
AcDbPolyline
 90
2
 70
0
 10
56.999999
 20
25.000003
 30
0.0
 10
56.999999
 20
25.000003
 30
0.0
  0
SPLINE
  5
177
100
AcDbEntity
  8
Layer_1
 62
7
100
AcDbSpline
 70
8
 71
3
 72
8
 73
4
 74
0
 40
0
 40
0
 40
0
 40
0
 40
1
 40
1
 40
1
 40
1
 10
46.999999
 20
25.000003
 30
0.0
 10
46.999999
 20
23.895434
 30
0.0
 10
46.104569
 20
23.000003
 30
0.0
 10
44.999999
 20
23.000003
 30
0.0
  0
SPLINE
  5
178
100
AcDbEntity
  8
Layer_1
 62
7
100
AcDbSpline
 70
8
 71
3
 72
8
 73
4
 74
0
 40
0
 40
0
 40
0
 40
0
 40
1
 40
1
 40
1
 40
1
 10
44.999999
 20
23.000003
 30
0.0
 10
43.895430
 20
23.000003
 30
0.0
 10
42.999999
 20
23.895434
 30
0.0
 10
42.999999
 20
25.000003
 30
0.0
  0
SPLINE
  5
179
100
AcDbEntity
  8
Layer_1
 62
7
100
AcDbSpline
 70
8
 71
3
 72
8
 73
4
 74
0
 40
0
 40
0
 40
0
 40
0
 40
1
 40
1
 40
1
 40
1
 10
42.999999
 20
25.000003
 30
0.0
 10
42.999999
 20
26.104573
 30
0.0
 10
43.895430
 20
27.000003
 30
0.0
 10
44.999999
 20
27.000003
 30
0.0
  0
SPLINE
  5
17a
100
AcDbEntity
  8
Layer_1
 62
7
100
AcDbSpline
 70
8
 71
3
 72
8
 73
4
 74
0
 40
0
 40
0
 40
0
 40
0
 40
1
 40
1
 40
1
 40
1
 10
44.999999
 20
27.000003
 30
0.0
 10
46.104569
 20
27.000003
 30
0.0
 10
46.999999
 20
26.104573
 30
0.0
 10
46.999999
 20
25.000003
 30
0.0
  0
LWPOLYLINE
  5
17b
100
AcDbEntity
  8
Layer_1
 62
7
100
AcDbPolyline
 90
2
 70
0
 10
56.999999
 20
35.000003
 30
0.0
 10
56.999999
 20
35.000003
 30
0.0
  0
SPLINE
  5
17c
100
AcDbEntity
  8
Layer_1
 62
7
100
AcDbSpline
 70
8
 71
3
 72
8
 73
4
 74
0
 40
0
 40
0
 40
0
 40
0
 40
1
 40
1
 40
1
 40
1
 10
46.999999
 20
35.000003
 30
0.0
 10
46.999999
 20
33.895433
 30
0.0
 10
46.104569
 20
33.000003
 30
0.0
 10
44.999999
 20
33.000003
 30
0.0
  0
SPLINE
  5
17d
100
AcDbEntity
  8
Layer_1
 62
7
100
AcDbSpline
 70
8
 71
3
 72
8
 73
4
 74
0
 40
0
 40
0
 40
0
 40
0
 40
1
 40
1
 40
1
 40
1
 10
44.999999
 20
33.000003
 30
0.0
 10
43.895430
 20
33.000003
 30
0.0
 10
42.999999
 20
33.895433
 30
0.0
 10
42.999999
 20
35.000003
 30
0.0
  0
SPLINE
  5
17e
100
AcDbEntity
  8
Layer_1
 62
7
100
AcDbSpline
 70
8
 71
3
 72
8
 73
4
 74
0
 40
0
 40
0
 40
0
 40
0
 40
1
 40
1
 40
1
 40
1
 10
42.999999
 20
35.000003
 30
0.0
 10
42.999999
 20
36.104573
 30
0.0
 10
43.895430
 20
37.000003
 30
0.0
 10
44.999999
 20
37.000003
 30
0.0
  0
SPLINE
  5
17f
100
AcDbEntity
  8
Layer_1
 62
7
100
AcDbSpline
 70
8
 71
3
 72
8
 73
4
 74
0
 40
0
 40
0
 40
0
 40
0
 40
1
 40
1
 40
1
 40
1
 10
44.999999
 20
37.000003
 30
0.0
 10
46.104569
 20
37.000003
 30
0.0
 10
46.999999
 20
36.104573
 30
0.0
 10
46.999999
 20
35.000003
 30
0.0
  0
LWPOLYLINE
  5
180
100
AcDbEntity
  8
Layer_1
 62
7
100
AcDbPolyline
 90
2
 70
0
 10
46.999999
 20
25.000003
 30
0.0
 10
46.999999
 20
25.000003
 30
0.0
  0
SPLINE
  5
181
100
AcDbEntity
  8
Layer_1
 62
7
100
AcDbSpline
 70
8
 71
3
 72
8
 73
4
 74
0
 40
0
 40
0
 40
0
 40
0
 40
1
 40
1
 40
1
 40
1
 10
76.999999
 20
25.000003
 30
0.0
 10
76.999999
 20
23.895434
 30
0.0
 10
76.104568
 20
23.000003
 30
0.0
 10
74.999999
 20
23.000003
 30
0.0
  0
SPLINE
  5
182
100
AcDbEntity
  8
Layer_1
 62
7
100
AcDbSpline
 70
8
 71
3
 72
8
 73
4
 74
0
 40
0
 40
0
 40
0
 40
0
 40
1
 40
1
 40
1
 40
1
 10
74.999999
 20
23.000003
 30
0.0
 10
73.895429
 20
23.000003
 30
0.0
 10
72.999999
 20
23.895434
 30
0.0
 10
72.999999
 20
25.000003
 30
0.0
  0
SPLINE
  5
183
100
AcDbEntity
  8
Layer_1
 62
7
100
AcDbSpline
 70
8
 71
3
 72
8
 73
4
 74
0
 40
0
 40
0
 40
0
 40
0
 40
1
 40
1
 40
1
 40
1
 10
72.999999
 20
25.000003
 30
0.0
 10
72.999999
 20
26.104573
 30
0.0
 10
73.895429
 20
27.000003
 30
0.0
 10
74.999999
 20
27.000003
 30
0.0
  0
SPLINE
  5
184
100
AcDbEntity
  8
Layer_1
 62
7
100
AcDbSpline
 70
8
 71
3
 72
8
 73
4
 74
0
 40
0
 40
0
 40
0
 40
0
 40
1
 40
1
 40
1
 40
1
 10
74.999999
 20
27.000003
 30
0.0
 10
76.104568
 20
27.000003
 30
0.0
 10
76.999999
 20
26.104573
 30
0.0
 10
76.999999
 20
25.000003
 30
0.0
  0
LWPOLYLINE
  5
185
100
AcDbEntity
  8
Layer_1
 62
7
100
AcDbPolyline
 90
2
 70
0
 10
46.999999
 20
35.000003
 30
0.0
 10
46.999999
 20
35.000003
 30
0.0
  0
SPLINE
  5
186
100
AcDbEntity
  8
Layer_1
 62
7
100
AcDbSpline
 70
8
 71
3
 72
8
 73
4
 74
0
 40
0
 40
0
 40
0
 40
0
 40
1
 40
1
 40
1
 40
1
 10
76.999999
 20
35.000003
 30
0.0
 10
76.999999
 20
33.895433
 30
0.0
 10
76.104568
 20
33.000003
 30
0.0
 10
74.999999
 20
33.000003
 30
0.0
  0
SPLINE
  5
187
100
AcDbEntity
  8
Layer_1
 62
7
100
AcDbSpline
 70
8
 71
3
 72
8
 73
4
 74
0
 40
0
 40
0
 40
0
 40
0
 40
1
 40
1
 40
1
 40
1
 10
74.999999
 20
33.000003
 30
0.0
 10
73.895429
 20
33.000003
 30
0.0
 10
72.999999
 20
33.895433
 30
0.0
 10
72.999999
 20
35.000003
 30
0.0
  0
SPLINE
  5
188
100
AcDbEntity
  8
Layer_1
 62
7
100
AcDbSpline
 70
8
 71
3
 72
8
 73
4
 74
0
 40
0
 40
0
 40
0
 40
0
 40
1
 40
1
 40
1
 40
1
 10
72.999999
 20
35.000003
 30
0.0
 10
72.999999
 20
36.104573
 30
0.0
 10
73.895429
 20
37.000003
 30
0.0
 10
74.999999
 20
37.000003
 30
0.0
  0
SPLINE
  5
189
100
AcDbEntity
  8
Layer_1
 62
7
100
AcDbSpline
 70
8
 71
3
 72
8
 73
4
 74
0
 40
0
 40
0
 40
0
 40
0
 40
1
 40
1
 40
1
 40
1
 10
74.999999
 20
37.000003
 30
0.0
 10
76.104568
 20
37.000003
 30
0.0
 10
76.999999
 20
36.104573
 30
0.0
 10
76.999999
 20
35.000003
 30
0.0
  0
LWPOLYLINE
  5
18a
100
AcDbEntity
  8
Layer_1
 62
7
100
AcDbPolyline
 90
2
 70
0
 10
76.999999
 20
25.000003
 30
0.0
 10
76.999999
 20
25.000003
 30
0.0
  0
SPLINE
  5
18b
100
AcDbEntity
  8
Layer_1
 62
7
100
AcDbSpline
 70
8
 71
3
 72
8
 73
4
 74
0
 40
0
 40
0
 40
0
 40
0
 40
1
 40
1
 40
1
 40
1
 10
66.999999
 20
25.000003
 30
0.0
 10
66.999999
 20
23.895434
 30
0.0
 10
66.104568
 20
23.000003
 30
0.0
 10
64.999999
 20
23.000003
 30
0.0
  0
SPLINE
  5
18c
100
AcDbEntity
  8
Layer_1
 62
7
100
AcDbSpline
 70
8
 71
3
 72
8
 73
4
 74
0
 40
0
 40
0
 40
0
 40
0
 40
1
 40
1
 40
1
 40
1
 10
64.999999
 20
23.000003
 30
0.0
 10
63.895429
 20
23.000003
 30
0.0
 10
62.999999
 20
23.895434
 30
0.0
 10
62.999999
 20
25.000003
 30
0.0
  0
SPLINE
  5
18d
100
AcDbEntity
  8
Layer_1
 62
7
100
AcDbSpline
 70
8
 71
3
 72
8
 73
4
 74
0
 40
0
 40
0
 40
0
 40
0
 40
1
 40
1
 40
1
 40
1
 10
62.999999
 20
25.000003
 30
0.0
 10
62.999999
 20
26.104573
 30
0.0
 10
63.895429
 20
27.000003
 30
0.0
 10
64.999999
 20
27.000003
 30
0.0
  0
SPLINE
  5
18e
100
AcDbEntity
  8
Layer_1
 62
7
100
AcDbSpline
 70
8
 71
3
 72
8
 73
4
 74
0
 40
0
 40
0
 40
0
 40
0
 40
1
 40
1
 40
1
 40
1
 10
64.999999
 20
27.000003
 30
0.0
 10
66.104568
 20
27.000003
 30
0.0
 10
66.999999
 20
26.104573
 30
0.0
 10
66.999999
 20
25.000003
 30
0.0
  0
LWPOLYLINE
  5
18f
100
AcDbEntity
  8
Layer_1
 62
7
100
AcDbPolyline
 90
2
 70
0
 10
76.999999
 20
35.000003
 30
0.0
 10
76.999999
 20
35.000003
 30
0.0
  0
SPLINE
  5
190
100
AcDbEntity
  8
Layer_1
 62
7
100
AcDbSpline
 70
8
 71
3
 72
8
 73
4
 74
0
 40
0
 40
0
 40
0
 40
0
 40
1
 40
1
 40
1
 40
1
 10
66.999999
 20
35.000003
 30
0.0
 10
66.999999
 20
33.895433
 30
0.0
 10
66.104568
 20
33.000003
 30
0.0
 10
64.999999
 20
33.000003
 30
0.0
  0
SPLINE
  5
191
100
AcDbEntity
  8
Layer_1
 62
7
100
AcDbSpline
 70
8
 71
3
 72
8
 73
4
 74
0
 40
0
 40
0
 40
0
 40
0
 40
1
 40
1
 40
1
 40
1
 10
64.999999
 20
33.000003
 30
0.0
 10
63.895429
 20
33.000003
 30
0.0
 10
62.999999
 20
33.895433
 30
0.0
 10
62.999999
 20
35.000003
 30
0.0
  0
SPLINE
  5
192
100
AcDbEntity
  8
Layer_1
 62
7
100
AcDbSpline
 70
8
 71
3
 72
8
 73
4
 74
0
 40
0
 40
0
 40
0
 40
0
 40
1
 40
1
 40
1
 40
1
 10
62.999999
 20
35.000003
 30
0.0
 10
62.999999
 20
36.104573
 30
0.0
 10
63.895429
 20
37.000003
 30
0.0
 10
64.999999
 20
37.000003
 30
0.0
  0
SPLINE
  5
193
100
AcDbEntity
  8
Layer_1
 62
7
100
AcDbSpline
 70
8
 71
3
 72
8
 73
4
 74
0
 40
0
 40
0
 40
0
 40
0
 40
1
 40
1
 40
1
 40
1
 10
64.999999
 20
37.000003
 30
0.0
 10
66.104568
 20
37.000003
 30
0.0
 10
66.999999
 20
36.104573
 30
0.0
 10
66.999999
 20
35.000003
 30
0.0
  0
LWPOLYLINE
  5
194
100
AcDbEntity
  8
Layer_1
 62
7
100
AcDbPolyline
 90
2
 70
0
 10
66.999999
 20
25.000003
 30
0.0
 10
66.999999
 20
25.000003
 30
0.0
  0
SPLINE
  5
195
100
AcDbEntity
  8
Layer_1
 62
7
100
AcDbSpline
 70
8
 71
3
 72
8
 73
4
 74
0
 40
0
 40
0
 40
0
 40
0
 40
1
 40
1
 40
1
 40
1
 10
87.000001
 20
25.000003
 30
0.0
 10
87.000001
 20
23.895434
 30
0.0
 10
86.104571
 20
23.000003
 30
0.0
 10
85.000001
 20
23.000003
 30
0.0
  0
SPLINE
  5
196
100
AcDbEntity
  8
Layer_1
 62
7
100
AcDbSpline
 70
8
 71
3
 72
8
 73
4
 74
0
 40
0
 40
0
 40
0
 40
0
 40
1
 40
1
 40
1
 40
1
 10
85.000001
 20
23.000003
 30
0.0
 10
83.895432
 20
23.000003
 30
0.0
 10
83.000001
 20
23.895434
 30
0.0
 10
83.000001
 20
25.000003
 30
0.0
  0
SPLINE
  5
197
100
AcDbEntity
  8
Layer_1
 62
7
100
AcDbSpline
 70
8
 71
3
 72
8
 73
4
 74
0
 40
0
 40
0
 40
0
 40
0
 40
1
 40
1
 40
1
 40
1
 10
83.000001
 20
25.000003
 30
0.0
 10
83.000001
 20
26.104573
 30
0.0
 10
83.895432
 20
27.000003
 30
0.0
 10
85.000001
 20
27.000003
 30
0.0
  0
SPLINE
  5
198
100
AcDbEntity
  8
Layer_1
 62
7
100
AcDbSpline
 70
8
 71
3
 72
8
 73
4
 74
0
 40
0
 40
0
 40
0
 40
0
 40
1
 40
1
 40
1
 40
1
 10
85.000001
 20
27.000003
 30
0.0
 10
86.104571
 20
27.000003
 30
0.0
 10
87.000001
 20
26.104573
 30
0.0
 10
87.000001
 20
25.000003
 30
0.0
  0
LWPOLYLINE
  5
199
100
AcDbEntity
  8
Layer_1
 62
7
100
AcDbPolyline
 90
2
 70
0
 10
66.999999
 20
35.000003
 30
0.0
 10
66.999999
 20
35.000003
 30
0.0
  0
SPLINE
  5
19a
100
AcDbEntity
  8
Layer_1
 62
7
100
AcDbSpline
 70
8
 71
3
 72
8
 73
4
 74
0
 40
0
 40
0
 40
0
 40
0
 40
1
 40
1
 40
1
 40
1
 10
87.000001
 20
35.000003
 30
0.0
 10
87.000001
 20
33.895433
 30
0.0
 10
86.104571
 20
33.000003
 30
0.0
 10
85.000001
 20
33.000003
 30
0.0
  0
SPLINE
  5
19b
100
AcDbEntity
  8
Layer_1
 62
7
100
AcDbSpline
 70
8
 71
3
 72
8
 73
4
 74
0
 40
0
 40
0
 40
0
 40
0
 40
1
 40
1
 40
1
 40
1
 10
85.000001
 20
33.000003
 30
0.0
 10
83.895432
 20
33.000003
 30
0.0
 10
83.000001
 20
33.895433
 30
0.0
 10
83.000001
 20
35.000003
 30
0.0
  0
SPLINE
  5
19c
100
AcDbEntity
  8
Layer_1
 62
7
100
AcDbSpline
 70
8
 71
3
 72
8
 73
4
 74
0
 40
0
 40
0
 40
0
 40
0
 40
1
 40
1
 40
1
 40
1
 10
83.000001
 20
35.000003
 30
0.0
 10
83.000001
 20
36.104573
 30
0.0
 10
83.895432
 20
37.000003
 30
0.0
 10
85.000001
 20
37.000003
 30
0.0
  0
SPLINE
  5
19d
100
AcDbEntity
  8
Layer_1
 62
7
100
AcDbSpline
 70
8
 71
3
 72
8
 73
4
 74
0
 40
0
 40
0
 40
0
 40
0
 40
1
 40
1
 40
1
 40
1
 10
85.000001
 20
37.000003
 30
0.0
 10
86.104571
 20
37.000003
 30
0.0
 10
87.000001
 20
36.104573
 30
0.0
 10
87.000001
 20
35.000003
 30
0.0
  0
LWPOLYLINE
  5
19e
100
AcDbEntity
  8
Layer_1
 62
7
100
AcDbPolyline
 90
2
 70
0
 10
87.000001
 20
25.000003
 30
0.0
 10
87.000001
 20
25.000003
 30
0.0
  0
SPLINE
  5
19f
100
AcDbEntity
  8
Layer_1
 62
7
100
AcDbSpline
 70
8
 71
3
 72
8
 73
4
 74
0
 40
0
 40
0
 40
0
 40
0
 40
1
 40
1
 40
1
 40
1
 10
17.000004
 20
85.000005
 30
0.0
 10
17.000004
 20
83.895435
 30
0.0
 10
16.104573
 20
83.000005
 30
0.0
 10
15.000004
 20
83.000005
 30
0.0
  0
SPLINE
  5
1a0
100
AcDbEntity
  8
Layer_1
 62
7
100
AcDbSpline
 70
8
 71
3
 72
8
 73
4
 74
0
 40
0
 40
0
 40
0
 40
0
 40
1
 40
1
 40
1
 40
1
 10
15.000004
 20
83.000005
 30
0.0
 10
13.895434
 20
83.000005
 30
0.0
 10
13.000004
 20
83.895435
 30
0.0
 10
13.000004
 20
85.000005
 30
0.0
  0
SPLINE
  5
1a1
100
AcDbEntity
  8
Layer_1
 62
7
100
AcDbSpline
 70
8
 71
3
 72
8
 73
4
 74
0
 40
0
 40
0
 40
0
 40
0
 40
1
 40
1
 40
1
 40
1
 10
13.000004
 20
85.000005
 30
0.0
 10
13.000004
 20
86.104574
 30
0.0
 10
13.895434
 20
87.000005
 30
0.0
 10
15.000004
 20
87.000005
 30
0.0
  0
SPLINE
  5
1a2
100
AcDbEntity
  8
Layer_1
 62
7
100
AcDbSpline
 70
8
 71
3
 72
8
 73
4
 74
0
 40
0
 40
0
 40
0
 40
0
 40
1
 40
1
 40
1
 40
1
 10
15.000004
 20
87.000005
 30
0.0
 10
16.104573
 20
87.000005
 30
0.0
 10
17.000004
 20
86.104574
 30
0.0
 10
17.000004
 20
85.000005
 30
0.0
  0
LWPOLYLINE
  5
1a3
100
AcDbEntity
  8
Layer_1
 62
7
100
AcDbPolyline
 90
2
 70
0
 10
87.000001
 20
35.000003
 30
0.0
 10
87.000001
 20
35.000003
 30
0.0
  0
SPLINE
  5
1a4
100
AcDbEntity
  8
Layer_1
 62
7
100
AcDbSpline
 70
8
 71
3
 72
8
 73
4
 74
0
 40
0
 40
0
 40
0
 40
0
 40
1
 40
1
 40
1
 40
1
 10
7.000004
 20
85.000005
 30
0.0
 10
7.000004
 20
83.895435
 30
0.0
 10
6.104573
 20
83.000005
 30
0.0
 10
5.000004
 20
83.000005
 30
0.0
  0
SPLINE
  5
1a5
100
AcDbEntity
  8
Layer_1
 62
7
100
AcDbSpline
 70
8
 71
3
 72
8
 73
4
 74
0
 40
0
 40
0
 40
0
 40
0
 40
1
 40
1
 40
1
 40
1
 10
5.000004
 20
83.000005
 30
0.0
 10
3.895434
 20
83.000005
 30
0.0
 10
3.000004
 20
83.895435
 30
0.0
 10
3.000004
 20
85.000005
 30
0.0
  0
SPLINE
  5
1a6
100
AcDbEntity
  8
Layer_1
 62
7
100
AcDbSpline
 70
8
 71
3
 72
8
 73
4
 74
0
 40
0
 40
0
 40
0
 40
0
 40
1
 40
1
 40
1
 40
1
 10
3.000004
 20
85.000005
 30
0.0
 10
3.000004
 20
86.104574
 30
0.0
 10
3.895434
 20
87.000005
 30
0.0
 10
5.000004
 20
87.000005
 30
0.0
  0
SPLINE
  5
1a7
100
AcDbEntity
  8
Layer_1
 62
7
100
AcDbSpline
 70
8
 71
3
 72
8
 73
4
 74
0
 40
0
 40
0
 40
0
 40
0
 40
1
 40
1
 40
1
 40
1
 10
5.000004
 20
87.000005
 30
0.0
 10
6.104573
 20
87.000005
 30
0.0
 10
7.000004
 20
86.104574
 30
0.0
 10
7.000004
 20
85.000005
 30
0.0
  0
LWPOLYLINE
  5
1a8
100
AcDbEntity
  8
Layer_1
 62
7
100
AcDbPolyline
 90
2
 70
0
 10
17.000004
 20
85.000005
 30
0.0
 10
17.000004
 20
85.000005
 30
0.0
  0
SPLINE
  5
1a9
100
AcDbEntity
  8
Layer_1
 62
7
100
AcDbSpline
 70
8
 71
3
 72
8
 73
4
 74
0
 40
0
 40
0
 40
0
 40
0
 40
1
 40
1
 40
1
 40
1
 10
7.000004
 20
95.000004
 30
0.0
 10
7.000004
 20
93.895435
 30
0.0
 10
6.104573
 20
93.000005
 30
0.0
 10
5.000004
 20
93.000005
 30
0.0
  0
SPLINE
  5
1aa
100
AcDbEntity
  8
Layer_1
 62
7
100
AcDbSpline
 70
8
 71
3
 72
8
 73
4
 74
0
 40
0
 40
0
 40
0
 40
0
 40
1
 40
1
 40
1
 40
1
 10
5.000004
 20
93.000005
 30
0.0
 10
3.895434
 20
93.000005
 30
0.0
 10
3.000004
 20
93.895435
 30
0.0
 10
3.000004
 20
95.000004
 30
0.0
  0
SPLINE
  5
1ab
100
AcDbEntity
  8
Layer_1
 62
7
100
AcDbSpline
 70
8
 71
3
 72
8
 73
4
 74
0
 40
0
 40
0
 40
0
 40
0
 40
1
 40
1
 40
1
 40
1
 10
3.000004
 20
95.000004
 30
0.0
 10
3.000004
 20
96.104574
 30
0.0
 10
3.895434
 20
97.000004
 30
0.0
 10
5.000004
 20
97.000004
 30
0.0
  0
SPLINE
  5
1ac
100
AcDbEntity
  8
Layer_1
 62
7
100
AcDbSpline
 70
8
 71
3
 72
8
 73
4
 74
0
 40
0
 40
0
 40
0
 40
0
 40
1
 40
1
 40
1
 40
1
 10
5.000004
 20
97.000004
 30
0.0
 10
6.104573
 20
97.000004
 30
0.0
 10
7.000004
 20
96.104574
 30
0.0
 10
7.000004
 20
95.000004
 30
0.0
  0
LWPOLYLINE
  5
1ad
100
AcDbEntity
  8
Layer_1
 62
7
100
AcDbPolyline
 90
2
 70
0
 10
7.000004
 20
85.000005
 30
0.0
 10
7.000004
 20
85.000005
 30
0.0
  0
SPLINE
  5
1ae
100
AcDbEntity
  8
Layer_1
 62
7
100
AcDbSpline
 70
8
 71
3
 72
8
 73
4
 74
0
 40
0
 40
0
 40
0
 40
0
 40
1
 40
1
 40
1
 40
1
 10
37.000002
 20
85.000005
 30
0.0
 10
37.000002
 20
83.895435
 30
0.0
 10
36.104572
 20
83.000005
 30
0.0
 10
35.000002
 20
83.000005
 30
0.0
  0
SPLINE
  5
1af
100
AcDbEntity
  8
Layer_1
 62
7
100
AcDbSpline
 70
8
 71
3
 72
8
 73
4
 74
0
 40
0
 40
0
 40
0
 40
0
 40
1
 40
1
 40
1
 40
1
 10
35.000002
 20
83.000005
 30
0.0
 10
33.895433
 20
83.000005
 30
0.0
 10
33.000002
 20
83.895435
 30
0.0
 10
33.000002
 20
85.000005
 30
0.0
  0
SPLINE
  5
1b0
100
AcDbEntity
  8
Layer_1
 62
7
100
AcDbSpline
 70
8
 71
3
 72
8
 73
4
 74
0
 40
0
 40
0
 40
0
 40
0
 40
1
 40
1
 40
1
 40
1
 10
33.000002
 20
85.000005
 30
0.0
 10
33.000002
 20
86.104574
 30
0.0
 10
33.895433
 20
87.000005
 30
0.0
 10
35.000002
 20
87.000005
 30
0.0
  0
SPLINE
  5
1b1
100
AcDbEntity
  8
Layer_1
 62
7
100
AcDbSpline
 70
8
 71
3
 72
8
 73
4
 74
0
 40
0
 40
0
 40
0
 40
0
 40
1
 40
1
 40
1
 40
1
 10
35.000002
 20
87.000005
 30
0.0
 10
36.104572
 20
87.000005
 30
0.0
 10
37.000002
 20
86.104574
 30
0.0
 10
37.000002
 20
85.000005
 30
0.0
  0
LWPOLYLINE
  5
1b2
100
AcDbEntity
  8
Layer_1
 62
7
100
AcDbPolyline
 90
2
 70
0
 10
7.000004
 20
95.000004
 30
0.0
 10
7.000004
 20
95.000004
 30
0.0
  0
SPLINE
  5
1b3
100
AcDbEntity
  8
Layer_1
 62
7
100
AcDbSpline
 70
8
 71
3
 72
8
 73
4
 74
0
 40
0
 40
0
 40
0
 40
0
 40
1
 40
1
 40
1
 40
1
 10
37.000002
 20
95.000004
 30
0.0
 10
37.000002
 20
93.895435
 30
0.0
 10
36.104572
 20
93.000005
 30
0.0
 10
35.000002
 20
93.000005
 30
0.0
  0
SPLINE
  5
1b4
100
AcDbEntity
  8
Layer_1
 62
7
100
AcDbSpline
 70
8
 71
3
 72
8
 73
4
 74
0
 40
0
 40
0
 40
0
 40
0
 40
1
 40
1
 40
1
 40
1
 10
35.000002
 20
93.000005
 30
0.0
 10
33.895433
 20
93.000005
 30
0.0
 10
33.000002
 20
93.895435
 30
0.0
 10
33.000002
 20
95.000004
 30
0.0
  0
SPLINE
  5
1b5
100
AcDbEntity
  8
Layer_1
 62
7
100
AcDbSpline
 70
8
 71
3
 72
8
 73
4
 74
0
 40
0
 40
0
 40
0
 40
0
 40
1
 40
1
 40
1
 40
1
 10
33.000002
 20
95.000004
 30
0.0
 10
33.000002
 20
96.104574
 30
0.0
 10
33.895433
 20
97.000004
 30
0.0
 10
35.000002
 20
97.000004
 30
0.0
  0
SPLINE
  5
1b6
100
AcDbEntity
  8
Layer_1
 62
7
100
AcDbSpline
 70
8
 71
3
 72
8
 73
4
 74
0
 40
0
 40
0
 40
0
 40
0
 40
1
 40
1
 40
1
 40
1
 10
35.000002
 20
97.000004
 30
0.0
 10
36.104572
 20
97.000004
 30
0.0
 10
37.000002
 20
96.104574
 30
0.0
 10
37.000002
 20
95.000004
 30
0.0
  0
LWPOLYLINE
  5
1b7
100
AcDbEntity
  8
Layer_1
 62
7
100
AcDbPolyline
 90
2
 70
0
 10
37.000002
 20
85.000005
 30
0.0
 10
37.000002
 20
85.000005
 30
0.0
  0
SPLINE
  5
1b8
100
AcDbEntity
  8
Layer_1
 62
7
100
AcDbSpline
 70
8
 71
3
 72
8
 73
4
 74
0
 40
0
 40
0
 40
0
 40
0
 40
1
 40
1
 40
1
 40
1
 10
27.000004
 20
85.000005
 30
0.0
 10
27.000004
 20
83.895435
 30
0.0
 10
26.104573
 20
83.000005
 30
0.0
 10
25.000004
 20
83.000005
 30
0.0
  0
SPLINE
  5
1b9
100
AcDbEntity
  8
Layer_1
 62
7
100
AcDbSpline
 70
8
 71
3
 72
8
 73
4
 74
0
 40
0
 40
0
 40
0
 40
0
 40
1
 40
1
 40
1
 40
1
 10
25.000004
 20
83.000005
 30
0.0
 10
23.895434
 20
83.000005
 30
0.0
 10
23.000004
 20
83.895435
 30
0.0
 10
23.000004
 20
85.000005
 30
0.0
  0
SPLINE
  5
1ba
100
AcDbEntity
  8
Layer_1
 62
7
100
AcDbSpline
 70
8
 71
3
 72
8
 73
4
 74
0
 40
0
 40
0
 40
0
 40
0
 40
1
 40
1
 40
1
 40
1
 10
23.000004
 20
85.000005
 30
0.0
 10
23.000004
 20
86.104574
 30
0.0
 10
23.895434
 20
87.000005
 30
0.0
 10
25.000004
 20
87.000005
 30
0.0
  0
SPLINE
  5
1bb
100
AcDbEntity
  8
Layer_1
 62
7
100
AcDbSpline
 70
8
 71
3
 72
8
 73
4
 74
0
 40
0
 40
0
 40
0
 40
0
 40
1
 40
1
 40
1
 40
1
 10
25.000004
 20
87.000005
 30
0.0
 10
26.104573
 20
87.000005
 30
0.0
 10
27.000004
 20
86.104574
 30
0.0
 10
27.000004
 20
85.000005
 30
0.0
  0
LWPOLYLINE
  5
1bc
100
AcDbEntity
  8
Layer_1
 62
7
100
AcDbPolyline
 90
2
 70
0
 10
37.000002
 20
95.000004
 30
0.0
 10
37.000002
 20
95.000004
 30
0.0
  0
SPLINE
  5
1bd
100
AcDbEntity
  8
Layer_1
 62
7
100
AcDbSpline
 70
8
 71
3
 72
8
 73
4
 74
0
 40
0
 40
0
 40
0
 40
0
 40
1
 40
1
 40
1
 40
1
 10
27.000004
 20
95.000004
 30
0.0
 10
27.000004
 20
93.895435
 30
0.0
 10
26.104573
 20
93.000005
 30
0.0
 10
25.000004
 20
93.000005
 30
0.0
  0
SPLINE
  5
1be
100
AcDbEntity
  8
Layer_1
 62
7
100
AcDbSpline
 70
8
 71
3
 72
8
 73
4
 74
0
 40
0
 40
0
 40
0
 40
0
 40
1
 40
1
 40
1
 40
1
 10
25.000004
 20
93.000005
 30
0.0
 10
23.895434
 20
93.000005
 30
0.0
 10
23.000004
 20
93.895435
 30
0.0
 10
23.000004
 20
95.000004
 30
0.0
  0
SPLINE
  5
1bf
100
AcDbEntity
  8
Layer_1
 62
7
100
AcDbSpline
 70
8
 71
3
 72
8
 73
4
 74
0
 40
0
 40
0
 40
0
 40
0
 40
1
 40
1
 40
1
 40
1
 10
23.000004
 20
95.000004
 30
0.0
 10
23.000004
 20
96.104574
 30
0.0
 10
23.895434
 20
97.000004
 30
0.0
 10
25.000004
 20
97.000004
 30
0.0
  0
SPLINE
  5
1c0
100
AcDbEntity
  8
Layer_1
 62
7
100
AcDbSpline
 70
8
 71
3
 72
8
 73
4
 74
0
 40
0
 40
0
 40
0
 40
0
 40
1
 40
1
 40
1
 40
1
 10
25.000004
 20
97.000004
 30
0.0
 10
26.104573
 20
97.000004
 30
0.0
 10
27.000004
 20
96.104574
 30
0.0
 10
27.000004
 20
95.000004
 30
0.0
  0
LWPOLYLINE
  5
1c1
100
AcDbEntity
  8
Layer_1
 62
7
100
AcDbPolyline
 90
2
 70
0
 10
27.000004
 20
85.000005
 30
0.0
 10
27.000004
 20
85.000005
 30
0.0
  0
SPLINE
  5
1c2
100
AcDbEntity
  8
Layer_1
 62
7
100
AcDbSpline
 70
8
 71
3
 72
8
 73
4
 74
0
 40
0
 40
0
 40
0
 40
0
 40
1
 40
1
 40
1
 40
1
 10
57.000002
 20
85.000005
 30
0.0
 10
57.000002
 20
83.895435
 30
0.0
 10
56.104571
 20
83.000005
 30
0.0
 10
55.000002
 20
83.000005
 30
0.0
  0
SPLINE
  5
1c3
100
AcDbEntity
  8
Layer_1
 62
7
100
AcDbSpline
 70
8
 71
3
 72
8
 73
4
 74
0
 40
0
 40
0
 40
0
 40
0
 40
1
 40
1
 40
1
 40
1
 10
55.000002
 20
83.000005
 30
0.0
 10
53.895432
 20
83.000005
 30
0.0
 10
53.000002
 20
83.895435
 30
0.0
 10
53.000002
 20
85.000005
 30
0.0
  0
SPLINE
  5
1c4
100
AcDbEntity
  8
Layer_1
 62
7
100
AcDbSpline
 70
8
 71
3
 72
8
 73
4
 74
0
 40
0
 40
0
 40
0
 40
0
 40
1
 40
1
 40
1
 40
1
 10
53.000002
 20
85.000005
 30
0.0
 10
53.000002
 20
86.104574
 30
0.0
 10
53.895432
 20
87.000005
 30
0.0
 10
55.000002
 20
87.000005
 30
0.0
  0
SPLINE
  5
1c5
100
AcDbEntity
  8
Layer_1
 62
7
100
AcDbSpline
 70
8
 71
3
 72
8
 73
4
 74
0
 40
0
 40
0
 40
0
 40
0
 40
1
 40
1
 40
1
 40
1
 10
55.000002
 20
87.000005
 30
0.0
 10
56.104571
 20
87.000005
 30
0.0
 10
57.000002
 20
86.104574
 30
0.0
 10
57.000002
 20
85.000005
 30
0.0
  0
LWPOLYLINE
  5
1c6
100
AcDbEntity
  8
Layer_1
 62
7
100
AcDbPolyline
 90
2
 70
0
 10
27.000004
 20
95.000004
 30
0.0
 10
27.000004
 20
95.000004
 30
0.0
  0
SPLINE
  5
1c7
100
AcDbEntity
  8
Layer_1
 62
7
100
AcDbSpline
 70
8
 71
3
 72
8
 73
4
 74
0
 40
0
 40
0
 40
0
 40
0
 40
1
 40
1
 40
1
 40
1
 10
57.000002
 20
95.000004
 30
0.0
 10
57.000002
 20
93.895435
 30
0.0
 10
56.104571
 20
93.000005
 30
0.0
 10
55.000002
 20
93.000005
 30
0.0
  0
SPLINE
  5
1c8
100
AcDbEntity
  8
Layer_1
 62
7
100
AcDbSpline
 70
8
 71
3
 72
8
 73
4
 74
0
 40
0
 40
0
 40
0
 40
0
 40
1
 40
1
 40
1
 40
1
 10
55.000002
 20
93.000005
 30
0.0
 10
53.895432
 20
93.000005
 30
0.0
 10
53.000002
 20
93.895435
 30
0.0
 10
53.000002
 20
95.000004
 30
0.0
  0
SPLINE
  5
1c9
100
AcDbEntity
  8
Layer_1
 62
7
100
AcDbSpline
 70
8
 71
3
 72
8
 73
4
 74
0
 40
0
 40
0
 40
0
 40
0
 40
1
 40
1
 40
1
 40
1
 10
53.000002
 20
95.000004
 30
0.0
 10
53.000002
 20
96.104574
 30
0.0
 10
53.895432
 20
97.000004
 30
0.0
 10
55.000002
 20
97.000004
 30
0.0
  0
SPLINE
  5
1ca
100
AcDbEntity
  8
Layer_1
 62
7
100
AcDbSpline
 70
8
 71
3
 72
8
 73
4
 74
0
 40
0
 40
0
 40
0
 40
0
 40
1
 40
1
 40
1
 40
1
 10
55.000002
 20
97.000004
 30
0.0
 10
56.104571
 20
97.000004
 30
0.0
 10
57.000002
 20
96.104574
 30
0.0
 10
57.000002
 20
95.000004
 30
0.0
  0
LWPOLYLINE
  5
1cb
100
AcDbEntity
  8
Layer_1
 62
7
100
AcDbPolyline
 90
2
 70
0
 10
57.000002
 20
85.000005
 30
0.0
 10
57.000002
 20
85.000005
 30
0.0
  0
SPLINE
  5
1cc
100
AcDbEntity
  8
Layer_1
 62
7
100
AcDbSpline
 70
8
 71
3
 72
8
 73
4
 74
0
 40
0
 40
0
 40
0
 40
0
 40
1
 40
1
 40
1
 40
1
 10
47.000002
 20
85.000005
 30
0.0
 10
47.000002
 20
83.895435
 30
0.0
 10
46.104572
 20
83.000005
 30
0.0
 10
45.000002
 20
83.000005
 30
0.0
  0
SPLINE
  5
1cd
100
AcDbEntity
  8
Layer_1
 62
7
100
AcDbSpline
 70
8
 71
3
 72
8
 73
4
 74
0
 40
0
 40
0
 40
0
 40
0
 40
1
 40
1
 40
1
 40
1
 10
45.000002
 20
83.000005
 30
0.0
 10
43.895433
 20
83.000005
 30
0.0
 10
43.000002
 20
83.895435
 30
0.0
 10
43.000002
 20
85.000005
 30
0.0
  0
SPLINE
  5
1ce
100
AcDbEntity
  8
Layer_1
 62
7
100
AcDbSpline
 70
8
 71
3
 72
8
 73
4
 74
0
 40
0
 40
0
 40
0
 40
0
 40
1
 40
1
 40
1
 40
1
 10
43.000002
 20
85.000005
 30
0.0
 10
43.000002
 20
86.104574
 30
0.0
 10
43.895433
 20
87.000005
 30
0.0
 10
45.000002
 20
87.000005
 30
0.0
  0
SPLINE
  5
1cf
100
AcDbEntity
  8
Layer_1
 62
7
100
AcDbSpline
 70
8
 71
3
 72
8
 73
4
 74
0
 40
0
 40
0
 40
0
 40
0
 40
1
 40
1
 40
1
 40
1
 10
45.000002
 20
87.000005
 30
0.0
 10
46.104572
 20
87.000005
 30
0.0
 10
47.000002
 20
86.104574
 30
0.0
 10
47.000002
 20
85.000005
 30
0.0
  0
LWPOLYLINE
  5
1d0
100
AcDbEntity
  8
Layer_1
 62
7
100
AcDbPolyline
 90
2
 70
0
 10
57.000002
 20
95.000004
 30
0.0
 10
57.000002
 20
95.000004
 30
0.0
  0
SPLINE
  5
1d1
100
AcDbEntity
  8
Layer_1
 62
7
100
AcDbSpline
 70
8
 71
3
 72
8
 73
4
 74
0
 40
0
 40
0
 40
0
 40
0
 40
1
 40
1
 40
1
 40
1
 10
47.000002
 20
95.000004
 30
0.0
 10
47.000002
 20
93.895435
 30
0.0
 10
46.104572
 20
93.000005
 30
0.0
 10
45.000002
 20
93.000005
 30
0.0
  0
SPLINE
  5
1d2
100
AcDbEntity
  8
Layer_1
 62
7
100
AcDbSpline
 70
8
 71
3
 72
8
 73
4
 74
0
 40
0
 40
0
 40
0
 40
0
 40
1
 40
1
 40
1
 40
1
 10
45.000002
 20
93.000005
 30
0.0
 10
43.895433
 20
93.000005
 30
0.0
 10
43.000002
 20
93.895435
 30
0.0
 10
43.000002
 20
95.000004
 30
0.0
  0
SPLINE
  5
1d3
100
AcDbEntity
  8
Layer_1
 62
7
100
AcDbSpline
 70
8
 71
3
 72
8
 73
4
 74
0
 40
0
 40
0
 40
0
 40
0
 40
1
 40
1
 40
1
 40
1
 10
43.000002
 20
95.000004
 30
0.0
 10
43.000002
 20
96.104574
 30
0.0
 10
43.895433
 20
97.000004
 30
0.0
 10
45.000002
 20
97.000004
 30
0.0
  0
SPLINE
  5
1d4
100
AcDbEntity
  8
Layer_1
 62
7
100
AcDbSpline
 70
8
 71
3
 72
8
 73
4
 74
0
 40
0
 40
0
 40
0
 40
0
 40
1
 40
1
 40
1
 40
1
 10
45.000002
 20
97.000004
 30
0.0
 10
46.104572
 20
97.000004
 30
0.0
 10
47.000002
 20
96.104574
 30
0.0
 10
47.000002
 20
95.000004
 30
0.0
  0
LWPOLYLINE
  5
1d5
100
AcDbEntity
  8
Layer_1
 62
7
100
AcDbPolyline
 90
2
 70
0
 10
47.000002
 20
85.000005
 30
0.0
 10
47.000002
 20
85.000005
 30
0.0
  0
SPLINE
  5
1d6
100
AcDbEntity
  8
Layer_1
 62
7
100
AcDbSpline
 70
8
 71
3
 72
8
 73
4
 74
0
 40
0
 40
0
 40
0
 40
0
 40
1
 40
1
 40
1
 40
1
 10
77.000001
 20
85.000005
 30
0.0
 10
77.000001
 20
83.895435
 30
0.0
 10
76.104571
 20
83.000005
 30
0.0
 10
75.000001
 20
83.000005
 30
0.0
  0
SPLINE
  5
1d7
100
AcDbEntity
  8
Layer_1
 62
7
100
AcDbSpline
 70
8
 71
3
 72
8
 73
4
 74
0
 40
0
 40
0
 40
0
 40
0
 40
1
 40
1
 40
1
 40
1
 10
75.000001
 20
83.000005
 30
0.0
 10
73.895432
 20
83.000005
 30
0.0
 10
73.000001
 20
83.895435
 30
0.0
 10
73.000001
 20
85.000005
 30
0.0
  0
SPLINE
  5
1d8
100
AcDbEntity
  8
Layer_1
 62
7
100
AcDbSpline
 70
8
 71
3
 72
8
 73
4
 74
0
 40
0
 40
0
 40
0
 40
0
 40
1
 40
1
 40
1
 40
1
 10
73.000001
 20
85.000005
 30
0.0
 10
73.000001
 20
86.104574
 30
0.0
 10
73.895432
 20
87.000005
 30
0.0
 10
75.000001
 20
87.000005
 30
0.0
  0
SPLINE
  5
1d9
100
AcDbEntity
  8
Layer_1
 62
7
100
AcDbSpline
 70
8
 71
3
 72
8
 73
4
 74
0
 40
0
 40
0
 40
0
 40
0
 40
1
 40
1
 40
1
 40
1
 10
75.000001
 20
87.000005
 30
0.0
 10
76.104571
 20
87.000005
 30
0.0
 10
77.000001
 20
86.104574
 30
0.0
 10
77.000001
 20
85.000005
 30
0.0
  0
LWPOLYLINE
  5
1da
100
AcDbEntity
  8
Layer_1
 62
7
100
AcDbPolyline
 90
2
 70
0
 10
47.000002
 20
95.000004
 30
0.0
 10
47.000002
 20
95.000004
 30
0.0
  0
SPLINE
  5
1db
100
AcDbEntity
  8
Layer_1
 62
7
100
AcDbSpline
 70
8
 71
3
 72
8
 73
4
 74
0
 40
0
 40
0
 40
0
 40
0
 40
1
 40
1
 40
1
 40
1
 10
77.000001
 20
95.000004
 30
0.0
 10
77.000001
 20
93.895435
 30
0.0
 10
76.104571
 20
93.000005
 30
0.0
 10
75.000001
 20
93.000005
 30
0.0
  0
SPLINE
  5
1dc
100
AcDbEntity
  8
Layer_1
 62
7
100
AcDbSpline
 70
8
 71
3
 72
8
 73
4
 74
0
 40
0
 40
0
 40
0
 40
0
 40
1
 40
1
 40
1
 40
1
 10
75.000001
 20
93.000005
 30
0.0
 10
73.895432
 20
93.000005
 30
0.0
 10
73.000001
 20
93.895435
 30
0.0
 10
73.000001
 20
95.000004
 30
0.0
  0
SPLINE
  5
1dd
100
AcDbEntity
  8
Layer_1
 62
7
100
AcDbSpline
 70
8
 71
3
 72
8
 73
4
 74
0
 40
0
 40
0
 40
0
 40
0
 40
1
 40
1
 40
1
 40
1
 10
73.000001
 20
95.000004
 30
0.0
 10
73.000001
 20
96.104574
 30
0.0
 10
73.895432
 20
97.000004
 30
0.0
 10
75.000001
 20
97.000004
 30
0.0
  0
SPLINE
  5
1de
100
AcDbEntity
  8
Layer_1
 62
7
100
AcDbSpline
 70
8
 71
3
 72
8
 73
4
 74
0
 40
0
 40
0
 40
0
 40
0
 40
1
 40
1
 40
1
 40
1
 10
75.000001
 20
97.000004
 30
0.0
 10
76.104571
 20
97.000004
 30
0.0
 10
77.000001
 20
96.104574
 30
0.0
 10
77.000001
 20
95.000004
 30
0.0
  0
LWPOLYLINE
  5
1df
100
AcDbEntity
  8
Layer_1
 62
7
100
AcDbPolyline
 90
2
 70
0
 10
77.000001
 20
85.000005
 30
0.0
 10
77.000001
 20
85.000005
 30
0.0
  0
SPLINE
  5
1e0
100
AcDbEntity
  8
Layer_1
 62
7
100
AcDbSpline
 70
8
 71
3
 72
8
 73
4
 74
0
 40
0
 40
0
 40
0
 40
0
 40
1
 40
1
 40
1
 40
1
 10
67.000002
 20
85.000005
 30
0.0
 10
67.000002
 20
83.895435
 30
0.0
 10
66.104571
 20
83.000005
 30
0.0
 10
65.000002
 20
83.000005
 30
0.0
  0
SPLINE
  5
1e1
100
AcDbEntity
  8
Layer_1
 62
7
100
AcDbSpline
 70
8
 71
3
 72
8
 73
4
 74
0
 40
0
 40
0
 40
0
 40
0
 40
1
 40
1
 40
1
 40
1
 10
65.000002
 20
83.000005
 30
0.0
 10
63.895432
 20
83.000005
 30
0.0
 10
63.000002
 20
83.895435
 30
0.0
 10
63.000002
 20
85.000005
 30
0.0
  0
SPLINE
  5
1e2
100
AcDbEntity
  8
Layer_1
 62
7
100
AcDbSpline
 70
8
 71
3
 72
8
 73
4
 74
0
 40
0
 40
0
 40
0
 40
0
 40
1
 40
1
 40
1
 40
1
 10
63.000002
 20
85.000005
 30
0.0
 10
63.000002
 20
86.104574
 30
0.0
 10
63.895432
 20
87.000005
 30
0.0
 10
65.000002
 20
87.000005
 30
0.0
  0
SPLINE
  5
1e3
100
AcDbEntity
  8
Layer_1
 62
7
100
AcDbSpline
 70
8
 71
3
 72
8
 73
4
 74
0
 40
0
 40
0
 40
0
 40
0
 40
1
 40
1
 40
1
 40
1
 10
65.000002
 20
87.000005
 30
0.0
 10
66.104571
 20
87.000005
 30
0.0
 10
67.000002
 20
86.104574
 30
0.0
 10
67.000002
 20
85.000005
 30
0.0
  0
LWPOLYLINE
  5
1e4
100
AcDbEntity
  8
Layer_1
 62
7
100
AcDbPolyline
 90
2
 70
0
 10
77.000001
 20
95.000004
 30
0.0
 10
77.000001
 20
95.000004
 30
0.0
  0
SPLINE
  5
1e5
100
AcDbEntity
  8
Layer_1
 62
7
100
AcDbSpline
 70
8
 71
3
 72
8
 73
4
 74
0
 40
0
 40
0
 40
0
 40
0
 40
1
 40
1
 40
1
 40
1
 10
97.000004
 20
85.000005
 30
0.0
 10
97.000004
 20
83.895435
 30
0.0
 10
96.104573
 20
83.000005
 30
0.0
 10
95.000004
 20
83.000005
 30
0.0
  0
SPLINE
  5
1e6
100
AcDbEntity
  8
Layer_1
 62
7
100
AcDbSpline
 70
8
 71
3
 72
8
 73
4
 74
0
 40
0
 40
0
 40
0
 40
0
 40
1
 40
1
 40
1
 40
1
 10
95.000004
 20
83.000005
 30
0.0
 10
93.895434
 20
83.000005
 30
0.0
 10
93.000004
 20
83.895435
 30
0.0
 10
93.000004
 20
85.000005
 30
0.0
  0
SPLINE
  5
1e7
100
AcDbEntity
  8
Layer_1
 62
7
100
AcDbSpline
 70
8
 71
3
 72
8
 73
4
 74
0
 40
0
 40
0
 40
0
 40
0
 40
1
 40
1
 40
1
 40
1
 10
93.000004
 20
85.000005
 30
0.0
 10
93.000004
 20
86.104574
 30
0.0
 10
93.895434
 20
87.000005
 30
0.0
 10
95.000004
 20
87.000005
 30
0.0
  0
SPLINE
  5
1e8
100
AcDbEntity
  8
Layer_1
 62
7
100
AcDbSpline
 70
8
 71
3
 72
8
 73
4
 74
0
 40
0
 40
0
 40
0
 40
0
 40
1
 40
1
 40
1
 40
1
 10
95.000004
 20
87.000005
 30
0.0
 10
96.104573
 20
87.000005
 30
0.0
 10
97.000004
 20
86.104574
 30
0.0
 10
97.000004
 20
85.000005
 30
0.0
  0
LWPOLYLINE
  5
1e9
100
AcDbEntity
  8
Layer_1
 62
7
100
AcDbPolyline
 90
2
 70
0
 10
67.000002
 20
85.000005
 30
0.0
 10
67.000002
 20
85.000005
 30
0.0
  0
SPLINE
  5
1ea
100
AcDbEntity
  8
Layer_1
 62
7
100
AcDbSpline
 70
8
 71
3
 72
8
 73
4
 74
0
 40
0
 40
0
 40
0
 40
0
 40
1
 40
1
 40
1
 40
1
 10
97.000004
 20
95.000004
 30
0.0
 10
97.000004
 20
93.895435
 30
0.0
 10
96.104573
 20
93.000005
 30
0.0
 10
95.000004
 20
93.000005
 30
0.0
  0
SPLINE
  5
1eb
100
AcDbEntity
  8
Layer_1
 62
7
100
AcDbSpline
 70
8
 71
3
 72
8
 73
4
 74
0
 40
0
 40
0
 40
0
 40
0
 40
1
 40
1
 40
1
 40
1
 10
95.000004
 20
93.000005
 30
0.0
 10
93.895434
 20
93.000005
 30
0.0
 10
93.000004
 20
93.895435
 30
0.0
 10
93.000004
 20
95.000004
 30
0.0
  0
SPLINE
  5
1ec
100
AcDbEntity
  8
Layer_1
 62
7
100
AcDbSpline
 70
8
 71
3
 72
8
 73
4
 74
0
 40
0
 40
0
 40
0
 40
0
 40
1
 40
1
 40
1
 40
1
 10
93.000004
 20
95.000004
 30
0.0
 10
93.000004
 20
96.104574
 30
0.0
 10
93.895434
 20
97.000004
 30
0.0
 10
95.000004
 20
97.000004
 30
0.0
  0
SPLINE
  5
1ed
100
AcDbEntity
  8
Layer_1
 62
7
100
AcDbSpline
 70
8
 71
3
 72
8
 73
4
 74
0
 40
0
 40
0
 40
0
 40
0
 40
1
 40
1
 40
1
 40
1
 10
95.000004
 20
97.000004
 30
0.0
 10
96.104573
 20
97.000004
 30
0.0
 10
97.000004
 20
96.104574
 30
0.0
 10
97.000004
 20
95.000004
 30
0.0
  0
LWPOLYLINE
  5
1ee
100
AcDbEntity
  8
Layer_1
 62
7
100
AcDbPolyline
 90
2
 70
0
 10
97.000004
 20
85.000005
 30
0.0
 10
97.000004
 20
85.000005
 30
0.0
  0
SPLINE
  5
1ef
100
AcDbEntity
  8
Layer_1
 62
7
100
AcDbSpline
 70
8
 71
3
 72
8
 73
4
 74
0
 40
0
 40
0
 40
0
 40
0
 40
1
 40
1
 40
1
 40
1
 10
87.000004
 20
85.000005
 30
0.0
 10
87.000004
 20
83.895435
 30
0.0
 10
86.104573
 20
83.000005
 30
0.0
 10
85.000004
 20
83.000005
 30
0.0
  0
SPLINE
  5
1f0
100
AcDbEntity
  8
Layer_1
 62
7
100
AcDbSpline
 70
8
 71
3
 72
8
 73
4
 74
0
 40
0
 40
0
 40
0
 40
0
 40
1
 40
1
 40
1
 40
1
 10
85.000004
 20
83.000005
 30
0.0
 10
83.895434
 20
83.000005
 30
0.0
 10
83.000004
 20
83.895435
 30
0.0
 10
83.000004
 20
85.000005
 30
0.0
  0
SPLINE
  5
1f1
100
AcDbEntity
  8
Layer_1
 62
7
100
AcDbSpline
 70
8
 71
3
 72
8
 73
4
 74
0
 40
0
 40
0
 40
0
 40
0
 40
1
 40
1
 40
1
 40
1
 10
83.000004
 20
85.000005
 30
0.0
 10
83.000004
 20
86.104574
 30
0.0
 10
83.895434
 20
87.000005
 30
0.0
 10
85.000004
 20
87.000005
 30
0.0
  0
SPLINE
  5
1f2
100
AcDbEntity
  8
Layer_1
 62
7
100
AcDbSpline
 70
8
 71
3
 72
8
 73
4
 74
0
 40
0
 40
0
 40
0
 40
0
 40
1
 40
1
 40
1
 40
1
 10
85.000004
 20
87.000005
 30
0.0
 10
86.104573
 20
87.000005
 30
0.0
 10
87.000004
 20
86.104574
 30
0.0
 10
87.000004
 20
85.000005
 30
0.0
  0
LWPOLYLINE
  5
1f3
100
AcDbEntity
  8
Layer_1
 62
7
100
AcDbPolyline
 90
2
 70
0
 10
97.000004
 20
95.000004
 30
0.0
 10
97.000004
 20
95.000004
 30
0.0
  0
SPLINE
  5
1f4
100
AcDbEntity
  8
Layer_1
 62
7
100
AcDbSpline
 70
8
 71
3
 72
8
 73
4
 74
0
 40
0
 40
0
 40
0
 40
0
 40
1
 40
1
 40
1
 40
1
 10
87.000004
 20
95.000004
 30
0.0
 10
87.000004
 20
93.895435
 30
0.0
 10
86.104573
 20
93.000005
 30
0.0
 10
85.000004
 20
93.000005
 30
0.0
  0
SPLINE
  5
1f5
100
AcDbEntity
  8
Layer_1
 62
7
100
AcDbSpline
 70
8
 71
3
 72
8
 73
4
 74
0
 40
0
 40
0
 40
0
 40
0
 40
1
 40
1
 40
1
 40
1
 10
85.000004
 20
93.000005
 30
0.0
 10
83.895434
 20
93.000005
 30
0.0
 10
83.000004
 20
93.895435
 30
0.0
 10
83.000004
 20
95.000004
 30
0.0
  0
SPLINE
  5
1f6
100
AcDbEntity
  8
Layer_1
 62
7
100
AcDbSpline
 70
8
 71
3
 72
8
 73
4
 74
0
 40
0
 40
0
 40
0
 40
0
 40
1
 40
1
 40
1
 40
1
 10
83.000004
 20
95.000004
 30
0.0
 10
83.000004
 20
96.104574
 30
0.0
 10
83.895434
 20
97.000004
 30
0.0
 10
85.000004
 20
97.000004
 30
0.0
  0
SPLINE
  5
1f7
100
AcDbEntity
  8
Layer_1
 62
7
100
AcDbSpline
 70
8
 71
3
 72
8
 73
4
 74
0
 40
0
 40
0
 40
0
 40
0
 40
1
 40
1
 40
1
 40
1
 10
85.000004
 20
97.000004
 30
0.0
 10
86.104573
 20
97.000004
 30
0.0
 10
87.000004
 20
96.104574
 30
0.0
 10
87.000004
 20
95.000004
 30
0.0
  0
LWPOLYLINE
  5
1f8
100
AcDbEntity
  8
Layer_1
 62
7
100
AcDbPolyline
 90
2
 70
0
 10
87.000004
 20
85.000005
 30
0.0
 10
87.000004
 20
85.000005
 30
0.0
  0
SPLINE
  5
1f9
100
AcDbEntity
  8
Layer_1
 62
7
100
AcDbSpline
 70
8
 71
3
 72
8
 73
4
 74
0
 40
0
 40
0
 40
0
 40
0
 40
1
 40
1
 40
1
 40
1
 10
107.000004
 20
85.000005
 30
0.0
 10
107.000004
 20
83.895435
 30
0.0
 10
106.104573
 20
83.000005
 30
0.0
 10
105.000003
 20
83.000005
 30
0.0
  0
SPLINE
  5
1fa
100
AcDbEntity
  8
Layer_1
 62
7
100
AcDbSpline
 70
8
 71
3
 72
8
 73
4
 74
0
 40
0
 40
0
 40
0
 40
0
 40
1
 40
1
 40
1
 40
1
 10
105.000003
 20
83.000005
 30
0.0
 10
103.895434
 20
83.000005
 30
0.0
 10
103.000003
 20
83.895435
 30
0.0
 10
103.000003
 20
85.000005
 30
0.0
  0
SPLINE
  5
1fb
100
AcDbEntity
  8
Layer_1
 62
7
100
AcDbSpline
 70
8
 71
3
 72
8
 73
4
 74
0
 40
0
 40
0
 40
0
 40
0
 40
1
 40
1
 40
1
 40
1
 10
103.000003
 20
85.000005
 30
0.0
 10
103.000003
 20
86.104574
 30
0.0
 10
103.895434
 20
87.000005
 30
0.0
 10
105.000003
 20
87.000005
 30
0.0
  0
SPLINE
  5
1fc
100
AcDbEntity
  8
Layer_1
 62
7
100
AcDbSpline
 70
8
 71
3
 72
8
 73
4
 74
0
 40
0
 40
0
 40
0
 40
0
 40
1
 40
1
 40
1
 40
1
 10
105.000003
 20
87.000005
 30
0.0
 10
106.104573
 20
87.000005
 30
0.0
 10
107.000004
 20
86.104574
 30
0.0
 10
107.000004
 20
85.000005
 30
0.0
  0
LWPOLYLINE
  5
1fd
100
AcDbEntity
  8
Layer_1
 62
7
100
AcDbPolyline
 90
2
 70
0
 10
87.000004
 20
95.000004
 30
0.0
 10
87.000004
 20
95.000004
 30
0.0
  0
SPLINE
  5
1fe
100
AcDbEntity
  8
Layer_1
 62
7
100
AcDbSpline
 70
8
 71
3
 72
8
 73
4
 74
0
 40
0
 40
0
 40
0
 40
0
 40
1
 40
1
 40
1
 40
1
 10
107.000004
 20
95.000004
 30
0.0
 10
107.000004
 20
93.895435
 30
0.0
 10
106.104573
 20
93.000005
 30
0.0
 10
105.000003
 20
93.000005
 30
0.0
  0
SPLINE
  5
1ff
100
AcDbEntity
  8
Layer_1
 62
7
100
AcDbSpline
 70
8
 71
3
 72
8
 73
4
 74
0
 40
0
 40
0
 40
0
 40
0
 40
1
 40
1
 40
1
 40
1
 10
105.000003
 20
93.000005
 30
0.0
 10
103.895434
 20
93.000005
 30
0.0
 10
103.000003
 20
93.895435
 30
0.0
 10
103.000003
 20
95.000004
 30
0.0
  0
SPLINE
  5
200
100
AcDbEntity
  8
Layer_1
 62
7
100
AcDbSpline
 70
8
 71
3
 72
8
 73
4
 74
0
 40
0
 40
0
 40
0
 40
0
 40
1
 40
1
 40
1
 40
1
 10
103.000003
 20
95.000004
 30
0.0
 10
103.000003
 20
96.104574
 30
0.0
 10
103.895434
 20
97.000004
 30
0.0
 10
105.000003
 20
97.000004
 30
0.0
  0
SPLINE
  5
201
100
AcDbEntity
  8
Layer_1
 62
7
100
AcDbSpline
 70
8
 71
3
 72
8
 73
4
 74
0
 40
0
 40
0
 40
0
 40
0
 40
1
 40
1
 40
1
 40
1
 10
105.000003
 20
97.000004
 30
0.0
 10
106.104573
 20
97.000004
 30
0.0
 10
107.000004
 20
96.104574
 30
0.0
 10
107.000004
 20
95.000004
 30
0.0
  0
LWPOLYLINE
  5
202
100
AcDbEntity
  8
Layer_1
 62
7
100
AcDbPolyline
 90
2
 70
0
 10
107.000004
 20
85.000005
 30
0.0
 10
107.000004
 20
85.000005
 30
0.0
  0
SPLINE
  5
203
100
AcDbEntity
  8
Layer_1
 62
7
100
AcDbSpline
 70
8
 71
3
 72
8
 73
4
 74
0
 40
0
 40
0
 40
0
 40
0
 40
1
 40
1
 40
1
 40
1
 10
17.000003
 20
75.000005
 30
0.0
 10
17.000003
 20
73.895435
 30
0.0
 10
16.104572
 20
73.000005
 30
0.0
 10
15.000003
 20
73.000005
 30
0.0
  0
SPLINE
  5
204
100
AcDbEntity
  8
Layer_1
 62
7
100
AcDbSpline
 70
8
 71
3
 72
8
 73
4
 74
0
 40
0
 40
0
 40
0
 40
0
 40
1
 40
1
 40
1
 40
1
 10
15.000003
 20
73.000005
 30
0.0
 10
13.895433
 20
73.000005
 30
0.0
 10
13.000003
 20
73.895435
 30
0.0
 10
13.000003
 20
75.000005
 30
0.0
  0
SPLINE
  5
205
100
AcDbEntity
  8
Layer_1
 62
7
100
AcDbSpline
 70
8
 71
3
 72
8
 73
4
 74
0
 40
0
 40
0
 40
0
 40
0
 40
1
 40
1
 40
1
 40
1
 10
13.000003
 20
75.000005
 30
0.0
 10
13.000003
 20
76.104575
 30
0.0
 10
13.895433
 20
77.000005
 30
0.0
 10
15.000003
 20
77.000005
 30
0.0
  0
SPLINE
  5
206
100
AcDbEntity
  8
Layer_1
 62
7
100
AcDbSpline
 70
8
 71
3
 72
8
 73
4
 74
0
 40
0
 40
0
 40
0
 40
0
 40
1
 40
1
 40
1
 40
1
 10
15.000003
 20
77.000005
 30
0.0
 10
16.104572
 20
77.000005
 30
0.0
 10
17.000003
 20
76.104575
 30
0.0
 10
17.000003
 20
75.000005
 30
0.0
  0
LWPOLYLINE
  5
207
100
AcDbEntity
  8
Layer_1
 62
7
100
AcDbPolyline
 90
2
 70
0
 10
107.000004
 20
95.000004
 30
0.0
 10
107.000004
 20
95.000004
 30
0.0
  0
SPLINE
  5
208
100
AcDbEntity
  8
Layer_1
 62
7
100
AcDbSpline
 70
8
 71
3
 72
8
 73
4
 74
0
 40
0
 40
0
 40
0
 40
0
 40
1
 40
1
 40
1
 40
1
 10
7.000004
 20
65.000005
 30
0.0
 10
7.000004
 20
63.895435
 30
0.0
 10
6.104573
 20
63.000005
 30
0.0
 10
5.000004
 20
63.000005
 30
0.0
  0
SPLINE
  5
209
100
AcDbEntity
  8
Layer_1
 62
7
100
AcDbSpline
 70
8
 71
3
 72
8
 73
4
 74
0
 40
0
 40
0
 40
0
 40
0
 40
1
 40
1
 40
1
 40
1
 10
5.000004
 20
63.000005
 30
0.0
 10
3.895434
 20
63.000005
 30
0.0
 10
3.000004
 20
63.895435
 30
0.0
 10
3.000004
 20
65.000005
 30
0.0
  0
SPLINE
  5
20a
100
AcDbEntity
  8
Layer_1
 62
7
100
AcDbSpline
 70
8
 71
3
 72
8
 73
4
 74
0
 40
0
 40
0
 40
0
 40
0
 40
1
 40
1
 40
1
 40
1
 10
3.000004
 20
65.000005
 30
0.0
 10
3.000004
 20
66.104575
 30
0.0
 10
3.895434
 20
67.000005
 30
0.0
 10
5.000004
 20
67.000005
 30
0.0
  0
SPLINE
  5
20b
100
AcDbEntity
  8
Layer_1
 62
7
100
AcDbSpline
 70
8
 71
3
 72
8
 73
4
 74
0
 40
0
 40
0
 40
0
 40
0
 40
1
 40
1
 40
1
 40
1
 10
5.000004
 20
67.000005
 30
0.0
 10
6.104573
 20
67.000005
 30
0.0
 10
7.000004
 20
66.104575
 30
0.0
 10
7.000004
 20
65.000005
 30
0.0
  0
LWPOLYLINE
  5
20c
100
AcDbEntity
  8
Layer_1
 62
7
100
AcDbPolyline
 90
2
 70
0
 10
17.000003
 20
75.000005
 30
0.0
 10
17.000003
 20
75.000005
 30
0.0
  0
SPLINE
  5
20d
100
AcDbEntity
  8
Layer_1
 62
7
100
AcDbSpline
 70
8
 71
3
 72
8
 73
4
 74
0
 40
0
 40
0
 40
0
 40
0
 40
1
 40
1
 40
1
 40
1
 10
7.000004
 20
75.000005
 30
0.0
 10
7.000004
 20
73.895435
 30
0.0
 10
6.104573
 20
73.000005
 30
0.0
 10
5.000004
 20
73.000005
 30
0.0
  0
SPLINE
  5
20e
100
AcDbEntity
  8
Layer_1
 62
7
100
AcDbSpline
 70
8
 71
3
 72
8
 73
4
 74
0
 40
0
 40
0
 40
0
 40
0
 40
1
 40
1
 40
1
 40
1
 10
5.000004
 20
73.000005
 30
0.0
 10
3.895434
 20
73.000005
 30
0.0
 10
3.000004
 20
73.895435
 30
0.0
 10
3.000004
 20
75.000005
 30
0.0
  0
SPLINE
  5
20f
100
AcDbEntity
  8
Layer_1
 62
7
100
AcDbSpline
 70
8
 71
3
 72
8
 73
4
 74
0
 40
0
 40
0
 40
0
 40
0
 40
1
 40
1
 40
1
 40
1
 10
3.000004
 20
75.000005
 30
0.0
 10
3.000004
 20
76.104575
 30
0.0
 10
3.895434
 20
77.000005
 30
0.0
 10
5.000004
 20
77.000005
 30
0.0
  0
SPLINE
  5
210
100
AcDbEntity
  8
Layer_1
 62
7
100
AcDbSpline
 70
8
 71
3
 72
8
 73
4
 74
0
 40
0
 40
0
 40
0
 40
0
 40
1
 40
1
 40
1
 40
1
 10
5.000004
 20
77.000005
 30
0.0
 10
6.104573
 20
77.000005
 30
0.0
 10
7.000004
 20
76.104575
 30
0.0
 10
7.000004
 20
75.000005
 30
0.0
  0
LWPOLYLINE
  5
211
100
AcDbEntity
  8
Layer_1
 62
7
100
AcDbPolyline
 90
2
 70
0
 10
7.000004
 20
65.000005
 30
0.0
 10
7.000004
 20
65.000005
 30
0.0
  0
SPLINE
  5
212
100
AcDbEntity
  8
Layer_1
 62
7
100
AcDbSpline
 70
8
 71
3
 72
8
 73
4
 74
0
 40
0
 40
0
 40
0
 40
0
 40
1
 40
1
 40
1
 40
1
 10
37.000000
 20
65.000005
 30
0.0
 10
37.000000
 20
63.895435
 30
0.0
 10
36.104569
 20
63.000005
 30
0.0
 10
35.000000
 20
63.000005
 30
0.0
  0
SPLINE
  5
213
100
AcDbEntity
  8
Layer_1
 62
7
100
AcDbSpline
 70
8
 71
3
 72
8
 73
4
 74
0
 40
0
 40
0
 40
0
 40
0
 40
1
 40
1
 40
1
 40
1
 10
35.000000
 20
63.000005
 30
0.0
 10
33.895430
 20
63.000005
 30
0.0
 10
32.999999
 20
63.895435
 30
0.0
 10
32.999999
 20
65.000005
 30
0.0
  0
SPLINE
  5
214
100
AcDbEntity
  8
Layer_1
 62
7
100
AcDbSpline
 70
8
 71
3
 72
8
 73
4
 74
0
 40
0
 40
0
 40
0
 40
0
 40
1
 40
1
 40
1
 40
1
 10
32.999999
 20
65.000005
 30
0.0
 10
32.999999
 20
66.104575
 30
0.0
 10
33.895430
 20
67.000005
 30
0.0
 10
35.000000
 20
67.000005
 30
0.0
  0
SPLINE
  5
215
100
AcDbEntity
  8
Layer_1
 62
7
100
AcDbSpline
 70
8
 71
3
 72
8
 73
4
 74
0
 40
0
 40
0
 40
0
 40
0
 40
1
 40
1
 40
1
 40
1
 10
35.000000
 20
67.000005
 30
0.0
 10
36.104569
 20
67.000005
 30
0.0
 10
37.000000
 20
66.104575
 30
0.0
 10
37.000000
 20
65.000005
 30
0.0
  0
LWPOLYLINE
  5
216
100
AcDbEntity
  8
Layer_1
 62
7
100
AcDbPolyline
 90
2
 70
0
 10
7.000004
 20
75.000005
 30
0.0
 10
7.000004
 20
75.000005
 30
0.0
  0
SPLINE
  5
217
100
AcDbEntity
  8
Layer_1
 62
7
100
AcDbSpline
 70
8
 71
3
 72
8
 73
4
 74
0
 40
0
 40
0
 40
0
 40
0
 40
1
 40
1
 40
1
 40
1
 10
37.000000
 20
75.000005
 30
0.0
 10
37.000000
 20
73.895435
 30
0.0
 10
36.104569
 20
73.000005
 30
0.0
 10
35.000000
 20
73.000005
 30
0.0
  0
SPLINE
  5
218
100
AcDbEntity
  8
Layer_1
 62
7
100
AcDbSpline
 70
8
 71
3
 72
8
 73
4
 74
0
 40
0
 40
0
 40
0
 40
0
 40
1
 40
1
 40
1
 40
1
 10
35.000000
 20
73.000005
 30
0.0
 10
33.895430
 20
73.000005
 30
0.0
 10
32.999999
 20
73.895435
 30
0.0
 10
32.999999
 20
75.000005
 30
0.0
  0
SPLINE
  5
219
100
AcDbEntity
  8
Layer_1
 62
7
100
AcDbSpline
 70
8
 71
3
 72
8
 73
4
 74
0
 40
0
 40
0
 40
0
 40
0
 40
1
 40
1
 40
1
 40
1
 10
32.999999
 20
75.000005
 30
0.0
 10
32.999999
 20
76.104575
 30
0.0
 10
33.895430
 20
77.000005
 30
0.0
 10
35.000000
 20
77.000005
 30
0.0
  0
SPLINE
  5
21a
100
AcDbEntity
  8
Layer_1
 62
7
100
AcDbSpline
 70
8
 71
3
 72
8
 73
4
 74
0
 40
0
 40
0
 40
0
 40
0
 40
1
 40
1
 40
1
 40
1
 10
35.000000
 20
77.000005
 30
0.0
 10
36.104569
 20
77.000005
 30
0.0
 10
37.000000
 20
76.104575
 30
0.0
 10
37.000000
 20
75.000005
 30
0.0
  0
LWPOLYLINE
  5
21b
100
AcDbEntity
  8
Layer_1
 62
7
100
AcDbPolyline
 90
2
 70
0
 10
37.000000
 20
65.000005
 30
0.0
 10
37.000000
 20
65.000005
 30
0.0
  0
SPLINE
  5
21c
100
AcDbEntity
  8
Layer_1
 62
7
100
AcDbSpline
 70
8
 71
3
 72
8
 73
4
 74
0
 40
0
 40
0
 40
0
 40
0
 40
1
 40
1
 40
1
 40
1
 10
27.000003
 20
65.000005
 30
0.0
 10
27.000003
 20
63.895435
 30
0.0
 10
26.104572
 20
63.000005
 30
0.0
 10
25.000003
 20
63.000005
 30
0.0
  0
SPLINE
  5
21d
100
AcDbEntity
  8
Layer_1
 62
7
100
AcDbSpline
 70
8
 71
3
 72
8
 73
4
 74
0
 40
0
 40
0
 40
0
 40
0
 40
1
 40
1
 40
1
 40
1
 10
25.000003
 20
63.000005
 30
0.0
 10
23.895433
 20
63.000005
 30
0.0
 10
23.000003
 20
63.895435
 30
0.0
 10
23.000003
 20
65.000005
 30
0.0
  0
SPLINE
  5
21e
100
AcDbEntity
  8
Layer_1
 62
7
100
AcDbSpline
 70
8
 71
3
 72
8
 73
4
 74
0
 40
0
 40
0
 40
0
 40
0
 40
1
 40
1
 40
1
 40
1
 10
23.000003
 20
65.000005
 30
0.0
 10
23.000003
 20
66.104575
 30
0.0
 10
23.895433
 20
67.000005
 30
0.0
 10
25.000003
 20
67.000005
 30
0.0
  0
SPLINE
  5
21f
100
AcDbEntity
  8
Layer_1
 62
7
100
AcDbSpline
 70
8
 71
3
 72
8
 73
4
 74
0
 40
0
 40
0
 40
0
 40
0
 40
1
 40
1
 40
1
 40
1
 10
25.000003
 20
67.000005
 30
0.0
 10
26.104572
 20
67.000005
 30
0.0
 10
27.000003
 20
66.104575
 30
0.0
 10
27.000003
 20
65.000005
 30
0.0
  0
LWPOLYLINE
  5
220
100
AcDbEntity
  8
Layer_1
 62
7
100
AcDbPolyline
 90
2
 70
0
 10
37.000000
 20
75.000005
 30
0.0
 10
37.000000
 20
75.000005
 30
0.0
  0
SPLINE
  5
221
100
AcDbEntity
  8
Layer_1
 62
7
100
AcDbSpline
 70
8
 71
3
 72
8
 73
4
 74
0
 40
0
 40
0
 40
0
 40
0
 40
1
 40
1
 40
1
 40
1
 10
27.000003
 20
75.000005
 30
0.0
 10
27.000003
 20
73.895435
 30
0.0
 10
26.104572
 20
73.000005
 30
0.0
 10
25.000003
 20
73.000005
 30
0.0
  0
SPLINE
  5
222
100
AcDbEntity
  8
Layer_1
 62
7
100
AcDbSpline
 70
8
 71
3
 72
8
 73
4
 74
0
 40
0
 40
0
 40
0
 40
0
 40
1
 40
1
 40
1
 40
1
 10
25.000003
 20
73.000005
 30
0.0
 10
23.895433
 20
73.000005
 30
0.0
 10
23.000003
 20
73.895435
 30
0.0
 10
23.000003
 20
75.000005
 30
0.0
  0
SPLINE
  5
223
100
AcDbEntity
  8
Layer_1
 62
7
100
AcDbSpline
 70
8
 71
3
 72
8
 73
4
 74
0
 40
0
 40
0
 40
0
 40
0
 40
1
 40
1
 40
1
 40
1
 10
23.000003
 20
75.000005
 30
0.0
 10
23.000003
 20
76.104575
 30
0.0
 10
23.895433
 20
77.000005
 30
0.0
 10
25.000003
 20
77.000005
 30
0.0
  0
SPLINE
  5
224
100
AcDbEntity
  8
Layer_1
 62
7
100
AcDbSpline
 70
8
 71
3
 72
8
 73
4
 74
0
 40
0
 40
0
 40
0
 40
0
 40
1
 40
1
 40
1
 40
1
 10
25.000003
 20
77.000005
 30
0.0
 10
26.104572
 20
77.000005
 30
0.0
 10
27.000003
 20
76.104575
 30
0.0
 10
27.000003
 20
75.000005
 30
0.0
  0
LWPOLYLINE
  5
225
100
AcDbEntity
  8
Layer_1
 62
7
100
AcDbPolyline
 90
2
 70
0
 10
27.000003
 20
65.000005
 30
0.0
 10
27.000003
 20
65.000005
 30
0.0
  0
SPLINE
  5
226
100
AcDbEntity
  8
Layer_1
 62
7
100
AcDbSpline
 70
8
 71
3
 72
8
 73
4
 74
0
 40
0
 40
0
 40
0
 40
0
 40
1
 40
1
 40
1
 40
1
 10
56.999999
 20
65.000005
 30
0.0
 10
56.999999
 20
63.895435
 30
0.0
 10
56.104568
 20
63.000005
 30
0.0
 10
54.999999
 20
63.000005
 30
0.0
  0
SPLINE
  5
227
100
AcDbEntity
  8
Layer_1
 62
7
100
AcDbSpline
 70
8
 71
3
 72
8
 73
4
 74
0
 40
0
 40
0
 40
0
 40
0
 40
1
 40
1
 40
1
 40
1
 10
54.999999
 20
63.000005
 30
0.0
 10
53.895430
 20
63.000005
 30
0.0
 10
52.999999
 20
63.895435
 30
0.0
 10
52.999999
 20
65.000005
 30
0.0
  0
SPLINE
  5
228
100
AcDbEntity
  8
Layer_1
 62
7
100
AcDbSpline
 70
8
 71
3
 72
8
 73
4
 74
0
 40
0
 40
0
 40
0
 40
0
 40
1
 40
1
 40
1
 40
1
 10
52.999999
 20
65.000005
 30
0.0
 10
52.999999
 20
66.104575
 30
0.0
 10
53.895430
 20
67.000005
 30
0.0
 10
54.999999
 20
67.000005
 30
0.0
  0
SPLINE
  5
229
100
AcDbEntity
  8
Layer_1
 62
7
100
AcDbSpline
 70
8
 71
3
 72
8
 73
4
 74
0
 40
0
 40
0
 40
0
 40
0
 40
1
 40
1
 40
1
 40
1
 10
54.999999
 20
67.000005
 30
0.0
 10
56.104568
 20
67.000005
 30
0.0
 10
56.999999
 20
66.104575
 30
0.0
 10
56.999999
 20
65.000005
 30
0.0
  0
LWPOLYLINE
  5
22a
100
AcDbEntity
  8
Layer_1
 62
7
100
AcDbPolyline
 90
2
 70
0
 10
27.000003
 20
75.000005
 30
0.0
 10
27.000003
 20
75.000005
 30
0.0
  0
SPLINE
  5
22b
100
AcDbEntity
  8
Layer_1
 62
7
100
AcDbSpline
 70
8
 71
3
 72
8
 73
4
 74
0
 40
0
 40
0
 40
0
 40
0
 40
1
 40
1
 40
1
 40
1
 10
56.999999
 20
75.000005
 30
0.0
 10
56.999999
 20
73.895435
 30
0.0
 10
56.104568
 20
73.000005
 30
0.0
 10
54.999999
 20
73.000005
 30
0.0
  0
SPLINE
  5
22c
100
AcDbEntity
  8
Layer_1
 62
7
100
AcDbSpline
 70
8
 71
3
 72
8
 73
4
 74
0
 40
0
 40
0
 40
0
 40
0
 40
1
 40
1
 40
1
 40
1
 10
54.999999
 20
73.000005
 30
0.0
 10
53.895430
 20
73.000005
 30
0.0
 10
52.999999
 20
73.895435
 30
0.0
 10
52.999999
 20
75.000005
 30
0.0
  0
SPLINE
  5
22d
100
AcDbEntity
  8
Layer_1
 62
7
100
AcDbSpline
 70
8
 71
3
 72
8
 73
4
 74
0
 40
0
 40
0
 40
0
 40
0
 40
1
 40
1
 40
1
 40
1
 10
52.999999
 20
75.000005
 30
0.0
 10
52.999999
 20
76.104575
 30
0.0
 10
53.895430
 20
77.000005
 30
0.0
 10
54.999999
 20
77.000005
 30
0.0
  0
SPLINE
  5
22e
100
AcDbEntity
  8
Layer_1
 62
7
100
AcDbSpline
 70
8
 71
3
 72
8
 73
4
 74
0
 40
0
 40
0
 40
0
 40
0
 40
1
 40
1
 40
1
 40
1
 10
54.999999
 20
77.000005
 30
0.0
 10
56.104568
 20
77.000005
 30
0.0
 10
56.999999
 20
76.104575
 30
0.0
 10
56.999999
 20
75.000005
 30
0.0
  0
LWPOLYLINE
  5
22f
100
AcDbEntity
  8
Layer_1
 62
7
100
AcDbPolyline
 90
2
 70
0
 10
56.999999
 20
65.000005
 30
0.0
 10
56.999999
 20
65.000005
 30
0.0
  0
SPLINE
  5
230
100
AcDbEntity
  8
Layer_1
 62
7
100
AcDbSpline
 70
8
 71
3
 72
8
 73
4
 74
0
 40
0
 40
0
 40
0
 40
0
 40
1
 40
1
 40
1
 40
1
 10
46.999999
 20
65.000005
 30
0.0
 10
46.999999
 20
63.895435
 30
0.0
 10
46.104569
 20
63.000005
 30
0.0
 10
44.999999
 20
63.000005
 30
0.0
  0
SPLINE
  5
231
100
AcDbEntity
  8
Layer_1
 62
7
100
AcDbSpline
 70
8
 71
3
 72
8
 73
4
 74
0
 40
0
 40
0
 40
0
 40
0
 40
1
 40
1
 40
1
 40
1
 10
44.999999
 20
63.000005
 30
0.0
 10
43.895430
 20
63.000005
 30
0.0
 10
42.999999
 20
63.895435
 30
0.0
 10
42.999999
 20
65.000005
 30
0.0
  0
SPLINE
  5
232
100
AcDbEntity
  8
Layer_1
 62
7
100
AcDbSpline
 70
8
 71
3
 72
8
 73
4
 74
0
 40
0
 40
0
 40
0
 40
0
 40
1
 40
1
 40
1
 40
1
 10
42.999999
 20
65.000005
 30
0.0
 10
42.999999
 20
66.104575
 30
0.0
 10
43.895430
 20
67.000005
 30
0.0
 10
44.999999
 20
67.000005
 30
0.0
  0
SPLINE
  5
233
100
AcDbEntity
  8
Layer_1
 62
7
100
AcDbSpline
 70
8
 71
3
 72
8
 73
4
 74
0
 40
0
 40
0
 40
0
 40
0
 40
1
 40
1
 40
1
 40
1
 10
44.999999
 20
67.000005
 30
0.0
 10
46.104569
 20
67.000005
 30
0.0
 10
46.999999
 20
66.104575
 30
0.0
 10
46.999999
 20
65.000005
 30
0.0
  0
LWPOLYLINE
  5
234
100
AcDbEntity
  8
Layer_1
 62
7
100
AcDbPolyline
 90
2
 70
0
 10
56.999999
 20
75.000005
 30
0.0
 10
56.999999
 20
75.000005
 30
0.0
  0
SPLINE
  5
235
100
AcDbEntity
  8
Layer_1
 62
7
100
AcDbSpline
 70
8
 71
3
 72
8
 73
4
 74
0
 40
0
 40
0
 40
0
 40
0
 40
1
 40
1
 40
1
 40
1
 10
46.999999
 20
75.000005
 30
0.0
 10
46.999999
 20
73.895435
 30
0.0
 10
46.104569
 20
73.000005
 30
0.0
 10
44.999999
 20
73.000005
 30
0.0
  0
SPLINE
  5
236
100
AcDbEntity
  8
Layer_1
 62
7
100
AcDbSpline
 70
8
 71
3
 72
8
 73
4
 74
0
 40
0
 40
0
 40
0
 40
0
 40
1
 40
1
 40
1
 40
1
 10
44.999999
 20
73.000005
 30
0.0
 10
43.895430
 20
73.000005
 30
0.0
 10
42.999999
 20
73.895435
 30
0.0
 10
42.999999
 20
75.000005
 30
0.0
  0
SPLINE
  5
237
100
AcDbEntity
  8
Layer_1
 62
7
100
AcDbSpline
 70
8
 71
3
 72
8
 73
4
 74
0
 40
0
 40
0
 40
0
 40
0
 40
1
 40
1
 40
1
 40
1
 10
42.999999
 20
75.000005
 30
0.0
 10
42.999999
 20
76.104575
 30
0.0
 10
43.895430
 20
77.000005
 30
0.0
 10
44.999999
 20
77.000005
 30
0.0
  0
SPLINE
  5
238
100
AcDbEntity
  8
Layer_1
 62
7
100
AcDbSpline
 70
8
 71
3
 72
8
 73
4
 74
0
 40
0
 40
0
 40
0
 40
0
 40
1
 40
1
 40
1
 40
1
 10
44.999999
 20
77.000005
 30
0.0
 10
46.104569
 20
77.000005
 30
0.0
 10
46.999999
 20
76.104575
 30
0.0
 10
46.999999
 20
75.000005
 30
0.0
  0
LWPOLYLINE
  5
239
100
AcDbEntity
  8
Layer_1
 62
7
100
AcDbPolyline
 90
2
 70
0
 10
46.999999
 20
65.000005
 30
0.0
 10
46.999999
 20
65.000005
 30
0.0
  0
SPLINE
  5
23a
100
AcDbEntity
  8
Layer_1
 62
7
100
AcDbSpline
 70
8
 71
3
 72
8
 73
4
 74
0
 40
0
 40
0
 40
0
 40
0
 40
1
 40
1
 40
1
 40
1
 10
76.999999
 20
65.000005
 30
0.0
 10
76.999999
 20
63.895435
 30
0.0
 10
76.104568
 20
63.000005
 30
0.0
 10
74.999999
 20
63.000005
 30
0.0
  0
SPLINE
  5
23b
100
AcDbEntity
  8
Layer_1
 62
7
100
AcDbSpline
 70
8
 71
3
 72
8
 73
4
 74
0
 40
0
 40
0
 40
0
 40
0
 40
1
 40
1
 40
1
 40
1
 10
74.999999
 20
63.000005
 30
0.0
 10
73.895429
 20
63.000005
 30
0.0
 10
72.999999
 20
63.895435
 30
0.0
 10
72.999999
 20
65.000005
 30
0.0
  0
SPLINE
  5
23c
100
AcDbEntity
  8
Layer_1
 62
7
100
AcDbSpline
 70
8
 71
3
 72
8
 73
4
 74
0
 40
0
 40
0
 40
0
 40
0
 40
1
 40
1
 40
1
 40
1
 10
72.999999
 20
65.000005
 30
0.0
 10
72.999999
 20
66.104575
 30
0.0
 10
73.895429
 20
67.000005
 30
0.0
 10
74.999999
 20
67.000005
 30
0.0
  0
SPLINE
  5
23d
100
AcDbEntity
  8
Layer_1
 62
7
100
AcDbSpline
 70
8
 71
3
 72
8
 73
4
 74
0
 40
0
 40
0
 40
0
 40
0
 40
1
 40
1
 40
1
 40
1
 10
74.999999
 20
67.000005
 30
0.0
 10
76.104568
 20
67.000005
 30
0.0
 10
76.999999
 20
66.104575
 30
0.0
 10
76.999999
 20
65.000005
 30
0.0
  0
LWPOLYLINE
  5
23e
100
AcDbEntity
  8
Layer_1
 62
7
100
AcDbPolyline
 90
2
 70
0
 10
46.999999
 20
75.000005
 30
0.0
 10
46.999999
 20
75.000005
 30
0.0
  0
SPLINE
  5
23f
100
AcDbEntity
  8
Layer_1
 62
7
100
AcDbSpline
 70
8
 71
3
 72
8
 73
4
 74
0
 40
0
 40
0
 40
0
 40
0
 40
1
 40
1
 40
1
 40
1
 10
78.992064
 20
78.000007
 30
0.0
 10
78.992064
 20
77.285476
 30
0.0
 10
78.610866
 20
76.625222
 30
0.0
 10
77.992064
 20
76.267957
 30
0.0
  0
SPLINE
  5
240
100
AcDbEntity
  8
Layer_1
 62
7
100
AcDbSpline
 70
8
 71
3
 72
8
 73
4
 74
0
 40
0
 40
0
 40
0
 40
0
 40
1
 40
1
 40
1
 40
1
 10
77.992064
 20
76.267957
 30
0.0
 10
77.373262
 20
75.910691
 30
0.0
 10
76.610866
 20
75.910691
 30
0.0
 10
75.992064
 20
76.267957
 30
0.0
  0
SPLINE
  5
241
100
AcDbEntity
  8
Layer_1
 62
7
100
AcDbSpline
 70
8
 71
3
 72
8
 73
4
 74
0
 40
0
 40
0
 40
0
 40
0
 40
1
 40
1
 40
1
 40
1
 10
75.992064
 20
76.267957
 30
0.0
 10
75.373262
 20
76.625222
 30
0.0
 10
74.992064
 20
77.285476
 30
0.0
 10
74.992064
 20
78.000007
 30
0.0
  0
SPLINE
  5
242
100
AcDbEntity
  8
Layer_1
 62
7
100
AcDbSpline
 70
8
 71
3
 72
8
 73
4
 74
0
 40
0
 40
0
 40
0
 40
0
 40
1
 40
1
 40
1
 40
1
 10
74.992064
 20
78.000007
 30
0.0
 10
74.992064
 20
78.714539
 30
0.0
 10
75.373262
 20
79.374793
 30
0.0
 10
75.992064
 20
79.732058
 30
0.0
  0
SPLINE
  5
243
100
AcDbEntity
  8
Layer_1
 62
7
100
AcDbSpline
 70
8
 71
3
 72
8
 73
4
 74
0
 40
0
 40
0
 40
0
 40
0
 40
1
 40
1
 40
1
 40
1
 10
75.992064
 20
79.732058
 30
0.0
 10
76.610866
 20
80.089324
 30
0.0
 10
77.373262
 20
80.089324
 30
0.0
 10
77.992064
 20
79.732058
 30
0.0
  0
SPLINE
  5
244
100
AcDbEntity
  8
Layer_1
 62
7
100
AcDbSpline
 70
8
 71
3
 72
8
 73
4
 74
0
 40
0
 40
0
 40
0
 40
0
 40
1
 40
1
 40
1
 40
1
 10
77.992064
 20
79.732058
 30
0.0
 10
78.610866
 20
79.374793
 30
0.0
 10
78.992064
 20
78.714539
 30
0.0
 10
78.992064
 20
78.000007
 30
0.0
  0
LWPOLYLINE
  5
245
100
AcDbEntity
  8
Layer_1
 62
7
100
AcDbPolyline
 90
2
 70
0
 10
76.999999
 20
65.000005
 30
0.0
 10
76.999999
 20
65.000005
 30
0.0
  0
SPLINE
  5
246
100
AcDbEntity
  8
Layer_1
 62
7
100
AcDbSpline
 70
8
 71
3
 72
8
 73
4
 74
0
 40
0
 40
0
 40
0
 40
0
 40
1
 40
1
 40
1
 40
1
 10
66.999999
 20
65.000005
 30
0.0
 10
66.999999
 20
63.895435
 30
0.0
 10
66.104568
 20
63.000005
 30
0.0
 10
64.999999
 20
63.000005
 30
0.0
  0
SPLINE
  5
247
100
AcDbEntity
  8
Layer_1
 62
7
100
AcDbSpline
 70
8
 71
3
 72
8
 73
4
 74
0
 40
0
 40
0
 40
0
 40
0
 40
1
 40
1
 40
1
 40
1
 10
64.999999
 20
63.000005
 30
0.0
 10
63.895429
 20
63.000005
 30
0.0
 10
62.999999
 20
63.895435
 30
0.0
 10
62.999999
 20
65.000005
 30
0.0
  0
SPLINE
  5
248
100
AcDbEntity
  8
Layer_1
 62
7
100
AcDbSpline
 70
8
 71
3
 72
8
 73
4
 74
0
 40
0
 40
0
 40
0
 40
0
 40
1
 40
1
 40
1
 40
1
 10
62.999999
 20
65.000005
 30
0.0
 10
62.999999
 20
66.104575
 30
0.0
 10
63.895429
 20
67.000005
 30
0.0
 10
64.999999
 20
67.000005
 30
0.0
  0
SPLINE
  5
249
100
AcDbEntity
  8
Layer_1
 62
7
100
AcDbSpline
 70
8
 71
3
 72
8
 73
4
 74
0
 40
0
 40
0
 40
0
 40
0
 40
1
 40
1
 40
1
 40
1
 10
64.999999
 20
67.000005
 30
0.0
 10
66.104568
 20
67.000005
 30
0.0
 10
66.999999
 20
66.104575
 30
0.0
 10
66.999999
 20
65.000005
 30
0.0
  0
LWPOLYLINE
  5
24a
100
AcDbEntity
  8
Layer_1
 62
7
100
AcDbPolyline
 90
2
 70
0
 10
78.992064
 20
78.000007
 30
0.0
 10
78.992064
 20
78.000007
 30
0.0
  0
SPLINE
  5
24b
100
AcDbEntity
  8
Layer_1
 62
7
100
AcDbSpline
 70
8
 71
3
 72
8
 73
4
 74
0
 40
0
 40
0
 40
0
 40
0
 40
1
 40
1
 40
1
 40
1
 10
66.999999
 20
75.000005
 30
0.0
 10
66.999999
 20
73.895435
 30
0.0
 10
66.104568
 20
73.000005
 30
0.0
 10
64.999999
 20
73.000005
 30
0.0
  0
SPLINE
  5
24c
100
AcDbEntity
  8
Layer_1
 62
7
100
AcDbSpline
 70
8
 71
3
 72
8
 73
4
 74
0
 40
0
 40
0
 40
0
 40
0
 40
1
 40
1
 40
1
 40
1
 10
64.999999
 20
73.000005
 30
0.0
 10
63.895429
 20
73.000005
 30
0.0
 10
62.999999
 20
73.895435
 30
0.0
 10
62.999999
 20
75.000005
 30
0.0
  0
SPLINE
  5
24d
100
AcDbEntity
  8
Layer_1
 62
7
100
AcDbSpline
 70
8
 71
3
 72
8
 73
4
 74
0
 40
0
 40
0
 40
0
 40
0
 40
1
 40
1
 40
1
 40
1
 10
62.999999
 20
75.000005
 30
0.0
 10
62.999999
 20
76.104575
 30
0.0
 10
63.895429
 20
77.000005
 30
0.0
 10
64.999999
 20
77.000005
 30
0.0
  0
SPLINE
  5
24e
100
AcDbEntity
  8
Layer_1
 62
7
100
AcDbSpline
 70
8
 71
3
 72
8
 73
4
 74
0
 40
0
 40
0
 40
0
 40
0
 40
1
 40
1
 40
1
 40
1
 10
64.999999
 20
77.000005
 30
0.0
 10
66.104568
 20
77.000005
 30
0.0
 10
66.999999
 20
76.104575
 30
0.0
 10
66.999999
 20
75.000005
 30
0.0
  0
LWPOLYLINE
  5
24f
100
AcDbEntity
  8
Layer_1
 62
7
100
AcDbPolyline
 90
2
 70
0
 10
66.999999
 20
65.000005
 30
0.0
 10
66.999999
 20
65.000005
 30
0.0
  0
SPLINE
  5
250
100
AcDbEntity
  8
Layer_1
 62
7
100
AcDbSpline
 70
8
 71
3
 72
8
 73
4
 74
0
 40
0
 40
0
 40
0
 40
0
 40
1
 40
1
 40
1
 40
1
 10
97.000001
 20
65.000005
 30
0.0
 10
97.000001
 20
63.895435
 30
0.0
 10
96.104570
 20
63.000005
 30
0.0
 10
95.000001
 20
63.000005
 30
0.0
  0
SPLINE
  5
251
100
AcDbEntity
  8
Layer_1
 62
7
100
AcDbSpline
 70
8
 71
3
 72
8
 73
4
 74
0
 40
0
 40
0
 40
0
 40
0
 40
1
 40
1
 40
1
 40
1
 10
95.000001
 20
63.000005
 30
0.0
 10
93.895431
 20
63.000005
 30
0.0
 10
93.000001
 20
63.895435
 30
0.0
 10
93.000001
 20
65.000005
 30
0.0
  0
SPLINE
  5
252
100
AcDbEntity
  8
Layer_1
 62
7
100
AcDbSpline
 70
8
 71
3
 72
8
 73
4
 74
0
 40
0
 40
0
 40
0
 40
0
 40
1
 40
1
 40
1
 40
1
 10
93.000001
 20
65.000005
 30
0.0
 10
93.000001
 20
66.104575
 30
0.0
 10
93.895431
 20
67.000005
 30
0.0
 10
95.000001
 20
67.000005
 30
0.0
  0
SPLINE
  5
253
100
AcDbEntity
  8
Layer_1
 62
7
100
AcDbSpline
 70
8
 71
3
 72
8
 73
4
 74
0
 40
0
 40
0
 40
0
 40
0
 40
1
 40
1
 40
1
 40
1
 10
95.000001
 20
67.000005
 30
0.0
 10
96.104570
 20
67.000005
 30
0.0
 10
97.000001
 20
66.104575
 30
0.0
 10
97.000001
 20
65.000005
 30
0.0
  0
LWPOLYLINE
  5
254
100
AcDbEntity
  8
Layer_1
 62
7
100
AcDbPolyline
 90
2
 70
0
 10
66.999999
 20
75.000005
 30
0.0
 10
66.999999
 20
75.000005
 30
0.0
  0
SPLINE
  5
255
100
AcDbEntity
  8
Layer_1
 62
7
100
AcDbSpline
 70
8
 71
3
 72
8
 73
4
 74
0
 40
0
 40
0
 40
0
 40
0
 40
1
 40
1
 40
1
 40
1
 10
87.000001
 20
65.000005
 30
0.0
 10
87.000001
 20
63.895435
 30
0.0
 10
86.104571
 20
63.000005
 30
0.0
 10
85.000001
 20
63.000005
 30
0.0
  0
SPLINE
  5
256
100
AcDbEntity
  8
Layer_1
 62
7
100
AcDbSpline
 70
8
 71
3
 72
8
 73
4
 74
0
 40
0
 40
0
 40
0
 40
0
 40
1
 40
1
 40
1
 40
1
 10
85.000001
 20
63.000005
 30
0.0
 10
83.895432
 20
63.000005
 30
0.0
 10
83.000001
 20
63.895435
 30
0.0
 10
83.000001
 20
65.000005
 30
0.0
  0
SPLINE
  5
257
100
AcDbEntity
  8
Layer_1
 62
7
100
AcDbSpline
 70
8
 71
3
 72
8
 73
4
 74
0
 40
0
 40
0
 40
0
 40
0
 40
1
 40
1
 40
1
 40
1
 10
83.000001
 20
65.000005
 30
0.0
 10
83.000001
 20
66.104575
 30
0.0
 10
83.895432
 20
67.000005
 30
0.0
 10
85.000001
 20
67.000005
 30
0.0
  0
SPLINE
  5
258
100
AcDbEntity
  8
Layer_1
 62
7
100
AcDbSpline
 70
8
 71
3
 72
8
 73
4
 74
0
 40
0
 40
0
 40
0
 40
0
 40
1
 40
1
 40
1
 40
1
 10
85.000001
 20
67.000005
 30
0.0
 10
86.104571
 20
67.000005
 30
0.0
 10
87.000001
 20
66.104575
 30
0.0
 10
87.000001
 20
65.000005
 30
0.0
  0
LWPOLYLINE
  5
259
100
AcDbEntity
  8
Layer_1
 62
7
100
AcDbPolyline
 90
2
 70
0
 10
97.000001
 20
65.000005
 30
0.0
 10
97.000001
 20
65.000005
 30
0.0
  0
SPLINE
  5
25a
100
AcDbEntity
  8
Layer_1
 62
7
100
AcDbSpline
 70
8
 71
3
 72
8
 73
4
 74
0
 40
0
 40
0
 40
0
 40
0
 40
1
 40
1
 40
1
 40
1
 10
87.000001
 20
75.000005
 30
0.0
 10
87.000001
 20
73.895435
 30
0.0
 10
86.104571
 20
73.000005
 30
0.0
 10
85.000001
 20
73.000005
 30
0.0
  0
SPLINE
  5
25b
100
AcDbEntity
  8
Layer_1
 62
7
100
AcDbSpline
 70
8
 71
3
 72
8
 73
4
 74
0
 40
0
 40
0
 40
0
 40
0
 40
1
 40
1
 40
1
 40
1
 10
85.000001
 20
73.000005
 30
0.0
 10
83.895432
 20
73.000005
 30
0.0
 10
83.000001
 20
73.895435
 30
0.0
 10
83.000001
 20
75.000005
 30
0.0
  0
SPLINE
  5
25c
100
AcDbEntity
  8
Layer_1
 62
7
100
AcDbSpline
 70
8
 71
3
 72
8
 73
4
 74
0
 40
0
 40
0
 40
0
 40
0
 40
1
 40
1
 40
1
 40
1
 10
83.000001
 20
75.000005
 30
0.0
 10
83.000001
 20
76.104575
 30
0.0
 10
83.895432
 20
77.000005
 30
0.0
 10
85.000001
 20
77.000005
 30
0.0
  0
SPLINE
  5
25d
100
AcDbEntity
  8
Layer_1
 62
7
100
AcDbSpline
 70
8
 71
3
 72
8
 73
4
 74
0
 40
0
 40
0
 40
0
 40
0
 40
1
 40
1
 40
1
 40
1
 10
85.000001
 20
77.000005
 30
0.0
 10
86.104571
 20
77.000005
 30
0.0
 10
87.000001
 20
76.104575
 30
0.0
 10
87.000001
 20
75.000005
 30
0.0
  0
LWPOLYLINE
  5
25e
100
AcDbEntity
  8
Layer_1
 62
7
100
AcDbPolyline
 90
2
 70
0
 10
87.000001
 20
65.000005
 30
0.0
 10
87.000001
 20
65.000005
 30
0.0
  0
SPLINE
  5
25f
100
AcDbEntity
  8
Layer_1
 62
7
100
AcDbSpline
 70
8
 71
3
 72
8
 73
4
 74
0
 40
0
 40
0
 40
0
 40
0
 40
1
 40
1
 40
1
 40
1
 10
107.000001
 20
65.000005
 30
0.0
 10
107.000001
 20
63.895435
 30
0.0
 10
106.104570
 20
63.000005
 30
0.0
 10
105.000001
 20
63.000005
 30
0.0
  0
SPLINE
  5
260
100
AcDbEntity
  8
Layer_1
 62
7
100
AcDbSpline
 70
8
 71
3
 72
8
 73
4
 74
0
 40
0
 40
0
 40
0
 40
0
 40
1
 40
1
 40
1
 40
1
 10
105.000001
 20
63.000005
 30
0.0
 10
103.895431
 20
63.000005
 30
0.0
 10
103.000001
 20
63.895435
 30
0.0
 10
103.000001
 20
65.000005
 30
0.0
  0
SPLINE
  5
261
100
AcDbEntity
  8
Layer_1
 62
7
100
AcDbSpline
 70
8
 71
3
 72
8
 73
4
 74
0
 40
0
 40
0
 40
0
 40
0
 40
1
 40
1
 40
1
 40
1
 10
103.000001
 20
65.000005
 30
0.0
 10
103.000001
 20
66.104575
 30
0.0
 10
103.895431
 20
67.000005
 30
0.0
 10
105.000001
 20
67.000005
 30
0.0
  0
SPLINE
  5
262
100
AcDbEntity
  8
Layer_1
 62
7
100
AcDbSpline
 70
8
 71
3
 72
8
 73
4
 74
0
 40
0
 40
0
 40
0
 40
0
 40
1
 40
1
 40
1
 40
1
 10
105.000001
 20
67.000005
 30
0.0
 10
106.104570
 20
67.000005
 30
0.0
 10
107.000001
 20
66.104575
 30
0.0
 10
107.000001
 20
65.000005
 30
0.0
  0
LWPOLYLINE
  5
263
100
AcDbEntity
  8
Layer_1
 62
7
100
AcDbPolyline
 90
2
 70
0
 10
87.000001
 20
75.000005
 30
0.0
 10
87.000001
 20
75.000005
 30
0.0
  0
SPLINE
  5
264
100
AcDbEntity
  8
Layer_1
 62
7
100
AcDbSpline
 70
8
 71
3
 72
8
 73
4
 74
0
 40
0
 40
0
 40
0
 40
0
 40
1
 40
1
 40
1
 40
1
 10
107.000001
 20
75.000005
 30
0.0
 10
107.000001
 20
73.895435
 30
0.0
 10
106.104570
 20
73.000005
 30
0.0
 10
105.000001
 20
73.000005
 30
0.0
  0
SPLINE
  5
265
100
AcDbEntity
  8
Layer_1
 62
7
100
AcDbSpline
 70
8
 71
3
 72
8
 73
4
 74
0
 40
0
 40
0
 40
0
 40
0
 40
1
 40
1
 40
1
 40
1
 10
105.000001
 20
73.000005
 30
0.0
 10
103.895431
 20
73.000005
 30
0.0
 10
103.000001
 20
73.895435
 30
0.0
 10
103.000001
 20
75.000005
 30
0.0
  0
SPLINE
  5
266
100
AcDbEntity
  8
Layer_1
 62
7
100
AcDbSpline
 70
8
 71
3
 72
8
 73
4
 74
0
 40
0
 40
0
 40
0
 40
0
 40
1
 40
1
 40
1
 40
1
 10
103.000001
 20
75.000005
 30
0.0
 10
103.000001
 20
76.104575
 30
0.0
 10
103.895431
 20
77.000005
 30
0.0
 10
105.000001
 20
77.000005
 30
0.0
  0
SPLINE
  5
267
100
AcDbEntity
  8
Layer_1
 62
7
100
AcDbSpline
 70
8
 71
3
 72
8
 73
4
 74
0
 40
0
 40
0
 40
0
 40
0
 40
1
 40
1
 40
1
 40
1
 10
105.000001
 20
77.000005
 30
0.0
 10
106.104570
 20
77.000005
 30
0.0
 10
107.000001
 20
76.104575
 30
0.0
 10
107.000001
 20
75.000005
 30
0.0
  0
LWPOLYLINE
  5
268
100
AcDbEntity
  8
Layer_1
 62
7
100
AcDbPolyline
 90
2
 70
0
 10
107.000001
 20
65.000005
 30
0.0
 10
107.000001
 20
65.000005
 30
0.0
  0
SPLINE
  5
269
100
AcDbEntity
  8
Layer_1
 62
7
100
AcDbSpline
 70
8
 71
3
 72
8
 73
4
 74
0
 40
0
 40
0
 40
0
 40
0
 40
1
 40
1
 40
1
 40
1
 10
17.000003
 20
105.000004
 30
0.0
 10
17.000003
 20
103.895434
 30
0.0
 10
16.104573
 20
103.000004
 30
0.0
 10
15.000003
 20
103.000004
 30
0.0
  0
SPLINE
  5
26a
100
AcDbEntity
  8
Layer_1
 62
7
100
AcDbSpline
 70
8
 71
3
 72
8
 73
4
 74
0
 40
0
 40
0
 40
0
 40
0
 40
1
 40
1
 40
1
 40
1
 10
15.000003
 20
103.000004
 30
0.0
 10
13.895434
 20
103.000004
 30
0.0
 10
13.000003
 20
103.895434
 30
0.0
 10
13.000003
 20
105.000004
 30
0.0
  0
SPLINE
  5
26b
100
AcDbEntity
  8
Layer_1
 62
7
100
AcDbSpline
 70
8
 71
3
 72
8
 73
4
 74
0
 40
0
 40
0
 40
0
 40
0
 40
1
 40
1
 40
1
 40
1
 10
13.000003
 20
105.000004
 30
0.0
 10
13.000003
 20
106.104574
 30
0.0
 10
13.895434
 20
107.000004
 30
0.0
 10
15.000003
 20
107.000004
 30
0.0
  0
SPLINE
  5
26c
100
AcDbEntity
  8
Layer_1
 62
7
100
AcDbSpline
 70
8
 71
3
 72
8
 73
4
 74
0
 40
0
 40
0
 40
0
 40
0
 40
1
 40
1
 40
1
 40
1
 10
15.000003
 20
107.000004
 30
0.0
 10
16.104573
 20
107.000004
 30
0.0
 10
17.000003
 20
106.104574
 30
0.0
 10
17.000003
 20
105.000004
 30
0.0
  0
LWPOLYLINE
  5
26d
100
AcDbEntity
  8
Layer_1
 62
7
100
AcDbPolyline
 90
2
 70
0
 10
107.000001
 20
75.000005
 30
0.0
 10
107.000001
 20
75.000005
 30
0.0
  0
SPLINE
  5
26e
100
AcDbEntity
  8
Layer_1
 62
7
100
AcDbSpline
 70
8
 71
3
 72
8
 73
4
 74
0
 40
0
 40
0
 40
0
 40
0
 40
1
 40
1
 40
1
 40
1
 10
7.000004
 20
105.000004
 30
0.0
 10
7.000004
 20
103.895434
 30
0.0
 10
6.104574
 20
103.000004
 30
0.0
 10
5.000004
 20
103.000004
 30
0.0
  0
SPLINE
  5
26f
100
AcDbEntity
  8
Layer_1
 62
7
100
AcDbSpline
 70
8
 71
3
 72
8
 73
4
 74
0
 40
0
 40
0
 40
0
 40
0
 40
1
 40
1
 40
1
 40
1
 10
5.000004
 20
103.000004
 30
0.0
 10
3.895435
 20
103.000004
 30
0.0
 10
3.000004
 20
103.895434
 30
0.0
 10
3.000004
 20
105.000004
 30
0.0
  0
SPLINE
  5
270
100
AcDbEntity
  8
Layer_1
 62
7
100
AcDbSpline
 70
8
 71
3
 72
8
 73
4
 74
0
 40
0
 40
0
 40
0
 40
0
 40
1
 40
1
 40
1
 40
1
 10
3.000004
 20
105.000004
 30
0.0
 10
3.000004
 20
106.104574
 30
0.0
 10
3.895435
 20
107.000004
 30
0.0
 10
5.000004
 20
107.000004
 30
0.0
  0
SPLINE
  5
271
100
AcDbEntity
  8
Layer_1
 62
7
100
AcDbSpline
 70
8
 71
3
 72
8
 73
4
 74
0
 40
0
 40
0
 40
0
 40
0
 40
1
 40
1
 40
1
 40
1
 10
5.000004
 20
107.000004
 30
0.0
 10
6.104574
 20
107.000004
 30
0.0
 10
7.000004
 20
106.104574
 30
0.0
 10
7.000004
 20
105.000004
 30
0.0
  0
LWPOLYLINE
  5
272
100
AcDbEntity
  8
Layer_1
 62
7
100
AcDbPolyline
 90
2
 70
0
 10
17.000003
 20
105.000004
 30
0.0
 10
17.000003
 20
105.000004
 30
0.0
  0
SPLINE
  5
273
100
AcDbEntity
  8
Layer_1
 62
7
100
AcDbSpline
 70
8
 71
3
 72
8
 73
4
 74
0
 40
0
 40
0
 40
0
 40
0
 40
1
 40
1
 40
1
 40
1
 10
37.000000
 20
105.000004
 30
0.0
 10
37.000000
 20
103.895434
 30
0.0
 10
36.104569
 20
103.000004
 30
0.0
 10
35.000000
 20
103.000004
 30
0.0
  0
SPLINE
  5
274
100
AcDbEntity
  8
Layer_1
 62
7
100
AcDbSpline
 70
8
 71
3
 72
8
 73
4
 74
0
 40
0
 40
0
 40
0
 40
0
 40
1
 40
1
 40
1
 40
1
 10
35.000000
 20
103.000004
 30
0.0
 10
33.895430
 20
103.000004
 30
0.0
 10
32.999999
 20
103.895434
 30
0.0
 10
32.999999
 20
105.000004
 30
0.0
  0
SPLINE
  5
275
100
AcDbEntity
  8
Layer_1
 62
7
100
AcDbSpline
 70
8
 71
3
 72
8
 73
4
 74
0
 40
0
 40
0
 40
0
 40
0
 40
1
 40
1
 40
1
 40
1
 10
32.999999
 20
105.000004
 30
0.0
 10
32.999999
 20
106.104574
 30
0.0
 10
33.895430
 20
107.000004
 30
0.0
 10
35.000000
 20
107.000004
 30
0.0
  0
SPLINE
  5
276
100
AcDbEntity
  8
Layer_1
 62
7
100
AcDbSpline
 70
8
 71
3
 72
8
 73
4
 74
0
 40
0
 40
0
 40
0
 40
0
 40
1
 40
1
 40
1
 40
1
 10
35.000000
 20
107.000004
 30
0.0
 10
36.104569
 20
107.000004
 30
0.0
 10
37.000000
 20
106.104574
 30
0.0
 10
37.000000
 20
105.000004
 30
0.0
  0
LWPOLYLINE
  5
277
100
AcDbEntity
  8
Layer_1
 62
7
100
AcDbPolyline
 90
2
 70
0
 10
7.000004
 20
105.000004
 30
0.0
 10
7.000004
 20
105.000004
 30
0.0
  0
SPLINE
  5
278
100
AcDbEntity
  8
Layer_1
 62
7
100
AcDbSpline
 70
8
 71
3
 72
8
 73
4
 74
0
 40
0
 40
0
 40
0
 40
0
 40
1
 40
1
 40
1
 40
1
 10
27.000003
 20
105.000004
 30
0.0
 10
27.000003
 20
103.895434
 30
0.0
 10
26.104572
 20
103.000004
 30
0.0
 10
25.000003
 20
103.000004
 30
0.0
  0
SPLINE
  5
279
100
AcDbEntity
  8
Layer_1
 62
7
100
AcDbSpline
 70
8
 71
3
 72
8
 73
4
 74
0
 40
0
 40
0
 40
0
 40
0
 40
1
 40
1
 40
1
 40
1
 10
25.000003
 20
103.000004
 30
0.0
 10
23.895433
 20
103.000004
 30
0.0
 10
23.000003
 20
103.895434
 30
0.0
 10
23.000003
 20
105.000004
 30
0.0
  0
SPLINE
  5
27a
100
AcDbEntity
  8
Layer_1
 62
7
100
AcDbSpline
 70
8
 71
3
 72
8
 73
4
 74
0
 40
0
 40
0
 40
0
 40
0
 40
1
 40
1
 40
1
 40
1
 10
23.000003
 20
105.000004
 30
0.0
 10
23.000003
 20
106.104574
 30
0.0
 10
23.895433
 20
107.000004
 30
0.0
 10
25.000003
 20
107.000004
 30
0.0
  0
SPLINE
  5
27b
100
AcDbEntity
  8
Layer_1
 62
7
100
AcDbSpline
 70
8
 71
3
 72
8
 73
4
 74
0
 40
0
 40
0
 40
0
 40
0
 40
1
 40
1
 40
1
 40
1
 10
25.000003
 20
107.000004
 30
0.0
 10
26.104572
 20
107.000004
 30
0.0
 10
27.000003
 20
106.104574
 30
0.0
 10
27.000003
 20
105.000004
 30
0.0
  0
LWPOLYLINE
  5
27c
100
AcDbEntity
  8
Layer_1
 62
7
100
AcDbPolyline
 90
2
 70
0
 10
37.000000
 20
105.000004
 30
0.0
 10
37.000000
 20
105.000004
 30
0.0
  0
SPLINE
  5
27d
100
AcDbEntity
  8
Layer_1
 62
7
100
AcDbSpline
 70
8
 71
3
 72
8
 73
4
 74
0
 40
0
 40
0
 40
0
 40
0
 40
1
 40
1
 40
1
 40
1
 10
56.999999
 20
105.000004
 30
0.0
 10
56.999999
 20
103.895434
 30
0.0
 10
56.104568
 20
103.000004
 30
0.0
 10
54.999999
 20
103.000004
 30
0.0
  0
SPLINE
  5
27e
100
AcDbEntity
  8
Layer_1
 62
7
100
AcDbSpline
 70
8
 71
3
 72
8
 73
4
 74
0
 40
0
 40
0
 40
0
 40
0
 40
1
 40
1
 40
1
 40
1
 10
54.999999
 20
103.000004
 30
0.0
 10
53.895430
 20
103.000004
 30
0.0
 10
52.999999
 20
103.895434
 30
0.0
 10
52.999999
 20
105.000004
 30
0.0
  0
SPLINE
  5
27f
100
AcDbEntity
  8
Layer_1
 62
7
100
AcDbSpline
 70
8
 71
3
 72
8
 73
4
 74
0
 40
0
 40
0
 40
0
 40
0
 40
1
 40
1
 40
1
 40
1
 10
52.999999
 20
105.000004
 30
0.0
 10
52.999999
 20
106.104574
 30
0.0
 10
53.895430
 20
107.000004
 30
0.0
 10
54.999999
 20
107.000004
 30
0.0
  0
SPLINE
  5
280
100
AcDbEntity
  8
Layer_1
 62
7
100
AcDbSpline
 70
8
 71
3
 72
8
 73
4
 74
0
 40
0
 40
0
 40
0
 40
0
 40
1
 40
1
 40
1
 40
1
 10
54.999999
 20
107.000004
 30
0.0
 10
56.104568
 20
107.000004
 30
0.0
 10
56.999999
 20
106.104574
 30
0.0
 10
56.999999
 20
105.000004
 30
0.0
  0
LWPOLYLINE
  5
281
100
AcDbEntity
  8
Layer_1
 62
7
100
AcDbPolyline
 90
2
 70
0
 10
27.000003
 20
105.000004
 30
0.0
 10
27.000003
 20
105.000004
 30
0.0
  0
SPLINE
  5
282
100
AcDbEntity
  8
Layer_1
 62
7
100
AcDbSpline
 70
8
 71
3
 72
8
 73
4
 74
0
 40
0
 40
0
 40
0
 40
0
 40
1
 40
1
 40
1
 40
1
 10
46.999999
 20
105.000004
 30
0.0
 10
46.999999
 20
103.895434
 30
0.0
 10
46.104569
 20
103.000004
 30
0.0
 10
44.999999
 20
103.000004
 30
0.0
  0
SPLINE
  5
283
100
AcDbEntity
  8
Layer_1
 62
7
100
AcDbSpline
 70
8
 71
3
 72
8
 73
4
 74
0
 40
0
 40
0
 40
0
 40
0
 40
1
 40
1
 40
1
 40
1
 10
44.999999
 20
103.000004
 30
0.0
 10
43.895430
 20
103.000004
 30
0.0
 10
42.999999
 20
103.895434
 30
0.0
 10
42.999999
 20
105.000004
 30
0.0
  0
SPLINE
  5
284
100
AcDbEntity
  8
Layer_1
 62
7
100
AcDbSpline
 70
8
 71
3
 72
8
 73
4
 74
0
 40
0
 40
0
 40
0
 40
0
 40
1
 40
1
 40
1
 40
1
 10
42.999999
 20
105.000004
 30
0.0
 10
42.999999
 20
106.104574
 30
0.0
 10
43.895430
 20
107.000004
 30
0.0
 10
44.999999
 20
107.000004
 30
0.0
  0
SPLINE
  5
285
100
AcDbEntity
  8
Layer_1
 62
7
100
AcDbSpline
 70
8
 71
3
 72
8
 73
4
 74
0
 40
0
 40
0
 40
0
 40
0
 40
1
 40
1
 40
1
 40
1
 10
44.999999
 20
107.000004
 30
0.0
 10
46.104569
 20
107.000004
 30
0.0
 10
46.999999
 20
106.104574
 30
0.0
 10
46.999999
 20
105.000004
 30
0.0
  0
LWPOLYLINE
  5
286
100
AcDbEntity
  8
Layer_1
 62
7
100
AcDbPolyline
 90
2
 70
0
 10
56.999999
 20
105.000004
 30
0.0
 10
56.999999
 20
105.000004
 30
0.0
  0
SPLINE
  5
287
100
AcDbEntity
  8
Layer_1
 62
7
100
AcDbSpline
 70
8
 71
3
 72
8
 73
4
 74
0
 40
0
 40
0
 40
0
 40
0
 40
1
 40
1
 40
1
 40
1
 10
76.999999
 20
105.000004
 30
0.0
 10
76.999999
 20
103.895434
 30
0.0
 10
76.104568
 20
103.000004
 30
0.0
 10
74.999999
 20
103.000004
 30
0.0
  0
SPLINE
  5
288
100
AcDbEntity
  8
Layer_1
 62
7
100
AcDbSpline
 70
8
 71
3
 72
8
 73
4
 74
0
 40
0
 40
0
 40
0
 40
0
 40
1
 40
1
 40
1
 40
1
 10
74.999999
 20
103.000004
 30
0.0
 10
73.895429
 20
103.000004
 30
0.0
 10
72.999999
 20
103.895434
 30
0.0
 10
72.999999
 20
105.000004
 30
0.0
  0
SPLINE
  5
289
100
AcDbEntity
  8
Layer_1
 62
7
100
AcDbSpline
 70
8
 71
3
 72
8
 73
4
 74
0
 40
0
 40
0
 40
0
 40
0
 40
1
 40
1
 40
1
 40
1
 10
72.999999
 20
105.000004
 30
0.0
 10
72.999999
 20
106.104574
 30
0.0
 10
73.895429
 20
107.000004
 30
0.0
 10
74.999999
 20
107.000004
 30
0.0
  0
SPLINE
  5
28a
100
AcDbEntity
  8
Layer_1
 62
7
100
AcDbSpline
 70
8
 71
3
 72
8
 73
4
 74
0
 40
0
 40
0
 40
0
 40
0
 40
1
 40
1
 40
1
 40
1
 10
74.999999
 20
107.000004
 30
0.0
 10
76.104568
 20
107.000004
 30
0.0
 10
76.999999
 20
106.104574
 30
0.0
 10
76.999999
 20
105.000004
 30
0.0
  0
LWPOLYLINE
  5
28b
100
AcDbEntity
  8
Layer_1
 62
7
100
AcDbPolyline
 90
2
 70
0
 10
46.999999
 20
105.000004
 30
0.0
 10
46.999999
 20
105.000004
 30
0.0
  0
SPLINE
  5
28c
100
AcDbEntity
  8
Layer_1
 62
7
100
AcDbSpline
 70
8
 71
3
 72
8
 73
4
 74
0
 40
0
 40
0
 40
0
 40
0
 40
1
 40
1
 40
1
 40
1
 10
66.999999
 20
105.000004
 30
0.0
 10
66.999999
 20
103.895434
 30
0.0
 10
66.104568
 20
103.000004
 30
0.0
 10
64.999999
 20
103.000004
 30
0.0
  0
SPLINE
  5
28d
100
AcDbEntity
  8
Layer_1
 62
7
100
AcDbSpline
 70
8
 71
3
 72
8
 73
4
 74
0
 40
0
 40
0
 40
0
 40
0
 40
1
 40
1
 40
1
 40
1
 10
64.999999
 20
103.000004
 30
0.0
 10
63.895429
 20
103.000004
 30
0.0
 10
62.999999
 20
103.895434
 30
0.0
 10
62.999999
 20
105.000004
 30
0.0
  0
SPLINE
  5
28e
100
AcDbEntity
  8
Layer_1
 62
7
100
AcDbSpline
 70
8
 71
3
 72
8
 73
4
 74
0
 40
0
 40
0
 40
0
 40
0
 40
1
 40
1
 40
1
 40
1
 10
62.999999
 20
105.000004
 30
0.0
 10
62.999999
 20
106.104574
 30
0.0
 10
63.895429
 20
107.000004
 30
0.0
 10
64.999999
 20
107.000004
 30
0.0
  0
SPLINE
  5
28f
100
AcDbEntity
  8
Layer_1
 62
7
100
AcDbSpline
 70
8
 71
3
 72
8
 73
4
 74
0
 40
0
 40
0
 40
0
 40
0
 40
1
 40
1
 40
1
 40
1
 10
64.999999
 20
107.000004
 30
0.0
 10
66.104568
 20
107.000004
 30
0.0
 10
66.999999
 20
106.104574
 30
0.0
 10
66.999999
 20
105.000004
 30
0.0
  0
LWPOLYLINE
  5
290
100
AcDbEntity
  8
Layer_1
 62
7
100
AcDbPolyline
 90
2
 70
0
 10
76.999999
 20
105.000004
 30
0.0
 10
76.999999
 20
105.000004
 30
0.0
  0
SPLINE
  5
291
100
AcDbEntity
  8
Layer_1
 62
7
100
AcDbSpline
 70
8
 71
3
 72
8
 73
4
 74
0
 40
0
 40
0
 40
0
 40
0
 40
1
 40
1
 40
1
 40
1
 10
97.000001
 20
105.000004
 30
0.0
 10
97.000001
 20
103.895434
 30
0.0
 10
96.104570
 20
103.000004
 30
0.0
 10
95.000001
 20
103.000004
 30
0.0
  0
SPLINE
  5
292
100
AcDbEntity
  8
Layer_1
 62
7
100
AcDbSpline
 70
8
 71
3
 72
8
 73
4
 74
0
 40
0
 40
0
 40
0
 40
0
 40
1
 40
1
 40
1
 40
1
 10
95.000001
 20
103.000004
 30
0.0
 10
93.895431
 20
103.000004
 30
0.0
 10
93.000001
 20
103.895434
 30
0.0
 10
93.000001
 20
105.000004
 30
0.0
  0
SPLINE
  5
293
100
AcDbEntity
  8
Layer_1
 62
7
100
AcDbSpline
 70
8
 71
3
 72
8
 73
4
 74
0
 40
0
 40
0
 40
0
 40
0
 40
1
 40
1
 40
1
 40
1
 10
93.000001
 20
105.000004
 30
0.0
 10
93.000001
 20
106.104574
 30
0.0
 10
93.895431
 20
107.000004
 30
0.0
 10
95.000001
 20
107.000004
 30
0.0
  0
SPLINE
  5
294
100
AcDbEntity
  8
Layer_1
 62
7
100
AcDbSpline
 70
8
 71
3
 72
8
 73
4
 74
0
 40
0
 40
0
 40
0
 40
0
 40
1
 40
1
 40
1
 40
1
 10
95.000001
 20
107.000004
 30
0.0
 10
96.104570
 20
107.000004
 30
0.0
 10
97.000001
 20
106.104574
 30
0.0
 10
97.000001
 20
105.000004
 30
0.0
  0
LWPOLYLINE
  5
295
100
AcDbEntity
  8
Layer_1
 62
7
100
AcDbPolyline
 90
2
 70
0
 10
66.999999
 20
105.000004
 30
0.0
 10
66.999999
 20
105.000004
 30
0.0
  0
SPLINE
  5
296
100
AcDbEntity
  8
Layer_1
 62
7
100
AcDbSpline
 70
8
 71
3
 72
8
 73
4
 74
0
 40
0
 40
0
 40
0
 40
0
 40
1
 40
1
 40
1
 40
1
 10
87.000001
 20
105.000004
 30
0.0
 10
87.000001
 20
103.895434
 30
0.0
 10
86.104571
 20
103.000004
 30
0.0
 10
85.000001
 20
103.000004
 30
0.0
  0
SPLINE
  5
297
100
AcDbEntity
  8
Layer_1
 62
7
100
AcDbSpline
 70
8
 71
3
 72
8
 73
4
 74
0
 40
0
 40
0
 40
0
 40
0
 40
1
 40
1
 40
1
 40
1
 10
85.000001
 20
103.000004
 30
0.0
 10
83.895432
 20
103.000004
 30
0.0
 10
83.000001
 20
103.895434
 30
0.0
 10
83.000001
 20
105.000004
 30
0.0
  0
SPLINE
  5
298
100
AcDbEntity
  8
Layer_1
 62
7
100
AcDbSpline
 70
8
 71
3
 72
8
 73
4
 74
0
 40
0
 40
0
 40
0
 40
0
 40
1
 40
1
 40
1
 40
1
 10
83.000001
 20
105.000004
 30
0.0
 10
83.000001
 20
106.104574
 30
0.0
 10
83.895432
 20
107.000004
 30
0.0
 10
85.000001
 20
107.000004
 30
0.0
  0
SPLINE
  5
299
100
AcDbEntity
  8
Layer_1
 62
7
100
AcDbSpline
 70
8
 71
3
 72
8
 73
4
 74
0
 40
0
 40
0
 40
0
 40
0
 40
1
 40
1
 40
1
 40
1
 10
85.000001
 20
107.000004
 30
0.0
 10
86.104571
 20
107.000004
 30
0.0
 10
87.000001
 20
106.104574
 30
0.0
 10
87.000001
 20
105.000004
 30
0.0
  0
LWPOLYLINE
  5
29a
100
AcDbEntity
  8
Layer_1
 62
7
100
AcDbPolyline
 90
2
 70
0
 10
97.000001
 20
105.000004
 30
0.0
 10
97.000001
 20
105.000004
 30
0.0
  0
SPLINE
  5
29b
100
AcDbEntity
  8
Layer_1
 62
7
100
AcDbSpline
 70
8
 71
3
 72
8
 73
4
 74
0
 40
0
 40
0
 40
0
 40
0
 40
1
 40
1
 40
1
 40
1
 10
107.000001
 20
105.000004
 30
0.0
 10
107.000001
 20
103.895434
 30
0.0
 10
106.104570
 20
103.000004
 30
0.0
 10
105.000001
 20
103.000004
 30
0.0
  0
SPLINE
  5
29c
100
AcDbEntity
  8
Layer_1
 62
7
100
AcDbSpline
 70
8
 71
3
 72
8
 73
4
 74
0
 40
0
 40
0
 40
0
 40
0
 40
1
 40
1
 40
1
 40
1
 10
105.000001
 20
103.000004
 30
0.0
 10
103.895431
 20
103.000004
 30
0.0
 10
103.000001
 20
103.895434
 30
0.0
 10
103.000001
 20
105.000004
 30
0.0
  0
SPLINE
  5
29d
100
AcDbEntity
  8
Layer_1
 62
7
100
AcDbSpline
 70
8
 71
3
 72
8
 73
4
 74
0
 40
0
 40
0
 40
0
 40
0
 40
1
 40
1
 40
1
 40
1
 10
103.000001
 20
105.000004
 30
0.0
 10
103.000001
 20
106.104574
 30
0.0
 10
103.895431
 20
107.000004
 30
0.0
 10
105.000001
 20
107.000004
 30
0.0
  0
SPLINE
  5
29e
100
AcDbEntity
  8
Layer_1
 62
7
100
AcDbSpline
 70
8
 71
3
 72
8
 73
4
 74
0
 40
0
 40
0
 40
0
 40
0
 40
1
 40
1
 40
1
 40
1
 10
105.000001
 20
107.000004
 30
0.0
 10
106.104570
 20
107.000004
 30
0.0
 10
107.000001
 20
106.104574
 30
0.0
 10
107.000001
 20
105.000004
 30
0.0
  0
LWPOLYLINE
  5
29f
100
AcDbEntity
  8
Layer_1
 62
7
100
AcDbPolyline
 90
2
 70
0
 10
87.000001
 20
105.000004
 30
0.0
 10
87.000001
 20
105.000004
 30
0.0
  0
SPLINE
  5
2a0
100
AcDbEntity
  8
Layer_1
 62
7
100
AcDbSpline
 70
8
 71
3
 72
8
 73
4
 74
0
 40
0
 40
0
 40
0
 40
0
 40
1
 40
1
 40
1
 40
1
 10
17.000002
 20
5.000004
 30
0.0
 10
17.000002
 20
3.895434
 30
0.0
 10
16.104571
 20
3.000004
 30
0.0
 10
15.000002
 20
3.000004
 30
0.0
  0
SPLINE
  5
2a1
100
AcDbEntity
  8
Layer_1
 62
7
100
AcDbSpline
 70
8
 71
3
 72
8
 73
4
 74
0
 40
0
 40
0
 40
0
 40
0
 40
1
 40
1
 40
1
 40
1
 10
15.000002
 20
3.000004
 30
0.0
 10
13.895432
 20
3.000004
 30
0.0
 10
13.000002
 20
3.895434
 30
0.0
 10
13.000002
 20
5.000004
 30
0.0
  0
SPLINE
  5
2a2
100
AcDbEntity
  8
Layer_1
 62
7
100
AcDbSpline
 70
8
 71
3
 72
8
 73
4
 74
0
 40
0
 40
0
 40
0
 40
0
 40
1
 40
1
 40
1
 40
1
 10
13.000002
 20
5.000004
 30
0.0
 10
13.000002
 20
6.104574
 30
0.0
 10
13.895432
 20
7.000004
 30
0.0
 10
15.000002
 20
7.000004
 30
0.0
  0
SPLINE
  5
2a3
100
AcDbEntity
  8
Layer_1
 62
7
100
AcDbSpline
 70
8
 71
3
 72
8
 73
4
 74
0
 40
0
 40
0
 40
0
 40
0
 40
1
 40
1
 40
1
 40
1
 10
15.000002
 20
7.000004
 30
0.0
 10
16.104571
 20
7.000004
 30
0.0
 10
17.000002
 20
6.104574
 30
0.0
 10
17.000002
 20
5.000004
 30
0.0
  0
LWPOLYLINE
  5
2a4
100
AcDbEntity
  8
Layer_1
 62
7
100
AcDbPolyline
 90
2
 70
0
 10
107.000001
 20
105.000004
 30
0.0
 10
107.000001
 20
105.000004
 30
0.0
  0
SPLINE
  5
2a5
100
AcDbEntity
  8
Layer_1
 62
7
100
AcDbSpline
 70
8
 71
3
 72
8
 73
4
 74
0
 40
0
 40
0
 40
0
 40
0
 40
1
 40
1
 40
1
 40
1
 10
7.000002
 20
5.000004
 30
0.0
 10
7.000002
 20
3.895434
 30
0.0
 10
6.104571
 20
3.000004
 30
0.0
 10
5.000002
 20
3.000004
 30
0.0
  0
SPLINE
  5
2a6
100
AcDbEntity
  8
Layer_1
 62
7
100
AcDbSpline
 70
8
 71
3
 72
8
 73
4
 74
0
 40
0
 40
0
 40
0
 40
0
 40
1
 40
1
 40
1
 40
1
 10
5.000002
 20
3.000004
 30
0.0
 10
3.895433
 20
3.000004
 30
0.0
 10
3.000002
 20
3.895434
 30
0.0
 10
3.000002
 20
5.000004
 30
0.0
  0
SPLINE
  5
2a7
100
AcDbEntity
  8
Layer_1
 62
7
100
AcDbSpline
 70
8
 71
3
 72
8
 73
4
 74
0
 40
0
 40
0
 40
0
 40
0
 40
1
 40
1
 40
1
 40
1
 10
3.000002
 20
5.000004
 30
0.0
 10
3.000002
 20
6.104574
 30
0.0
 10
3.895433
 20
7.000004
 30
0.0
 10
5.000002
 20
7.000004
 30
0.0
  0
SPLINE
  5
2a8
100
AcDbEntity
  8
Layer_1
 62
7
100
AcDbSpline
 70
8
 71
3
 72
8
 73
4
 74
0
 40
0
 40
0
 40
0
 40
0
 40
1
 40
1
 40
1
 40
1
 10
5.000002
 20
7.000004
 30
0.0
 10
6.104571
 20
7.000004
 30
0.0
 10
7.000002
 20
6.104574
 30
0.0
 10
7.000002
 20
5.000004
 30
0.0
  0
LWPOLYLINE
  5
2a9
100
AcDbEntity
  8
Layer_1
 62
7
100
AcDbPolyline
 90
2
 70
0
 10
17.000002
 20
5.000004
 30
0.0
 10
17.000002
 20
5.000004
 30
0.0
  0
SPLINE
  5
2aa
100
AcDbEntity
  8
Layer_1
 62
7
100
AcDbSpline
 70
8
 71
3
 72
8
 73
4
 74
0
 40
0
 40
0
 40
0
 40
0
 40
1
 40
1
 40
1
 40
1
 10
37.000000
 20
5.000004
 30
0.0
 10
37.000000
 20
3.895434
 30
0.0
 10
36.104569
 20
3.000004
 30
0.0
 10
35.000000
 20
3.000004
 30
0.0
  0
SPLINE
  5
2ab
100
AcDbEntity
  8
Layer_1
 62
7
100
AcDbSpline
 70
8
 71
3
 72
8
 73
4
 74
0
 40
0
 40
0
 40
0
 40
0
 40
1
 40
1
 40
1
 40
1
 10
35.000000
 20
3.000004
 30
0.0
 10
33.895430
 20
3.000004
 30
0.0
 10
32.999999
 20
3.895434
 30
0.0
 10
32.999999
 20
5.000004
 30
0.0
  0
SPLINE
  5
2ac
100
AcDbEntity
  8
Layer_1
 62
7
100
AcDbSpline
 70
8
 71
3
 72
8
 73
4
 74
0
 40
0
 40
0
 40
0
 40
0
 40
1
 40
1
 40
1
 40
1
 10
32.999999
 20
5.000004
 30
0.0
 10
32.999999
 20
6.104574
 30
0.0
 10
33.895430
 20
7.000004
 30
0.0
 10
35.000000
 20
7.000004
 30
0.0
  0
SPLINE
  5
2ad
100
AcDbEntity
  8
Layer_1
 62
7
100
AcDbSpline
 70
8
 71
3
 72
8
 73
4
 74
0
 40
0
 40
0
 40
0
 40
0
 40
1
 40
1
 40
1
 40
1
 10
35.000000
 20
7.000004
 30
0.0
 10
36.104569
 20
7.000004
 30
0.0
 10
37.000000
 20
6.104574
 30
0.0
 10
37.000000
 20
5.000004
 30
0.0
  0
LWPOLYLINE
  5
2ae
100
AcDbEntity
  8
Layer_1
 62
7
100
AcDbPolyline
 90
2
 70
0
 10
7.000002
 20
5.000004
 30
0.0
 10
7.000002
 20
5.000004
 30
0.0
  0
SPLINE
  5
2af
100
AcDbEntity
  8
Layer_1
 62
7
100
AcDbSpline
 70
8
 71
3
 72
8
 73
4
 74
0
 40
0
 40
0
 40
0
 40
0
 40
1
 40
1
 40
1
 40
1
 10
37.000000
 20
15.000004
 30
0.0
 10
37.000000
 20
13.895434
 30
0.0
 10
36.104569
 20
13.000004
 30
0.0
 10
35.000000
 20
13.000004
 30
0.0
  0
SPLINE
  5
2b0
100
AcDbEntity
  8
Layer_1
 62
7
100
AcDbSpline
 70
8
 71
3
 72
8
 73
4
 74
0
 40
0
 40
0
 40
0
 40
0
 40
1
 40
1
 40
1
 40
1
 10
35.000000
 20
13.000004
 30
0.0
 10
33.895430
 20
13.000004
 30
0.0
 10
32.999999
 20
13.895434
 30
0.0
 10
32.999999
 20
15.000004
 30
0.0
  0
SPLINE
  5
2b1
100
AcDbEntity
  8
Layer_1
 62
7
100
AcDbSpline
 70
8
 71
3
 72
8
 73
4
 74
0
 40
0
 40
0
 40
0
 40
0
 40
1
 40
1
 40
1
 40
1
 10
32.999999
 20
15.000004
 30
0.0
 10
32.999999
 20
16.104573
 30
0.0
 10
33.895430
 20
17.000003
 30
0.0
 10
35.000000
 20
17.000003
 30
0.0
  0
SPLINE
  5
2b2
100
AcDbEntity
  8
Layer_1
 62
7
100
AcDbSpline
 70
8
 71
3
 72
8
 73
4
 74
0
 40
0
 40
0
 40
0
 40
0
 40
1
 40
1
 40
1
 40
1
 10
35.000000
 20
17.000003
 30
0.0
 10
36.104569
 20
17.000003
 30
0.0
 10
37.000000
 20
16.104573
 30
0.0
 10
37.000000
 20
15.000004
 30
0.0
  0
LWPOLYLINE
  5
2b3
100
AcDbEntity
  8
Layer_1
 62
7
100
AcDbPolyline
 90
2
 70
0
 10
37.000000
 20
5.000004
 30
0.0
 10
37.000000
 20
5.000004
 30
0.0
  0
SPLINE
  5
2b4
100
AcDbEntity
  8
Layer_1
 62
7
100
AcDbSpline
 70
8
 71
3
 72
8
 73
4
 74
0
 40
0
 40
0
 40
0
 40
0
 40
1
 40
1
 40
1
 40
1
 10
27.000002
 20
5.000004
 30
0.0
 10
27.000002
 20
3.895434
 30
0.0
 10
26.104571
 20
3.000004
 30
0.0
 10
25.000002
 20
3.000004
 30
0.0
  0
SPLINE
  5
2b5
100
AcDbEntity
  8
Layer_1
 62
7
100
AcDbSpline
 70
8
 71
3
 72
8
 73
4
 74
0
 40
0
 40
0
 40
0
 40
0
 40
1
 40
1
 40
1
 40
1
 10
25.000002
 20
3.000004
 30
0.0
 10
23.895433
 20
3.000004
 30
0.0
 10
23.000002
 20
3.895434
 30
0.0
 10
23.000002
 20
5.000004
 30
0.0
  0
SPLINE
  5
2b6
100
AcDbEntity
  8
Layer_1
 62
7
100
AcDbSpline
 70
8
 71
3
 72
8
 73
4
 74
0
 40
0
 40
0
 40
0
 40
0
 40
1
 40
1
 40
1
 40
1
 10
23.000002
 20
5.000004
 30
0.0
 10
23.000002
 20
6.104574
 30
0.0
 10
23.895433
 20
7.000004
 30
0.0
 10
25.000002
 20
7.000004
 30
0.0
  0
SPLINE
  5
2b7
100
AcDbEntity
  8
Layer_1
 62
7
100
AcDbSpline
 70
8
 71
3
 72
8
 73
4
 74
0
 40
0
 40
0
 40
0
 40
0
 40
1
 40
1
 40
1
 40
1
 10
25.000002
 20
7.000004
 30
0.0
 10
26.104571
 20
7.000004
 30
0.0
 10
27.000002
 20
6.104574
 30
0.0
 10
27.000002
 20
5.000004
 30
0.0
  0
LWPOLYLINE
  5
2b8
100
AcDbEntity
  8
Layer_1
 62
7
100
AcDbPolyline
 90
2
 70
0
 10
37.000000
 20
15.000004
 30
0.0
 10
37.000000
 20
15.000004
 30
0.0
  0
SPLINE
  5
2b9
100
AcDbEntity
  8
Layer_1
 62
7
100
AcDbSpline
 70
8
 71
3
 72
8
 73
4
 74
0
 40
0
 40
0
 40
0
 40
0
 40
1
 40
1
 40
1
 40
1
 10
27.000002
 20
15.000004
 30
0.0
 10
27.000002
 20
13.895434
 30
0.0
 10
26.104571
 20
13.000004
 30
0.0
 10
25.000002
 20
13.000004
 30
0.0
  0
SPLINE
  5
2ba
100
AcDbEntity
  8
Layer_1
 62
7
100
AcDbSpline
 70
8
 71
3
 72
8
 73
4
 74
0
 40
0
 40
0
 40
0
 40
0
 40
1
 40
1
 40
1
 40
1
 10
25.000002
 20
13.000004
 30
0.0
 10
23.895433
 20
13.000004
 30
0.0
 10
23.000002
 20
13.895434
 30
0.0
 10
23.000002
 20
15.000004
 30
0.0
  0
SPLINE
  5
2bb
100
AcDbEntity
  8
Layer_1
 62
7
100
AcDbSpline
 70
8
 71
3
 72
8
 73
4
 74
0
 40
0
 40
0
 40
0
 40
0
 40
1
 40
1
 40
1
 40
1
 10
23.000002
 20
15.000004
 30
0.0
 10
23.000002
 20
16.104573
 30
0.0
 10
23.895433
 20
17.000003
 30
0.0
 10
25.000002
 20
17.000003
 30
0.0
  0
SPLINE
  5
2bc
100
AcDbEntity
  8
Layer_1
 62
7
100
AcDbSpline
 70
8
 71
3
 72
8
 73
4
 74
0
 40
0
 40
0
 40
0
 40
0
 40
1
 40
1
 40
1
 40
1
 10
25.000002
 20
17.000003
 30
0.0
 10
26.104571
 20
17.000003
 30
0.0
 10
27.000002
 20
16.104573
 30
0.0
 10
27.000002
 20
15.000004
 30
0.0
  0
LWPOLYLINE
  5
2bd
100
AcDbEntity
  8
Layer_1
 62
7
100
AcDbPolyline
 90
2
 70
0
 10
27.000002
 20
5.000004
 30
0.0
 10
27.000002
 20
5.000004
 30
0.0
  0
SPLINE
  5
2be
100
AcDbEntity
  8
Layer_1
 62
7
100
AcDbSpline
 70
8
 71
3
 72
8
 73
4
 74
0
 40
0
 40
0
 40
0
 40
0
 40
1
 40
1
 40
1
 40
1
 10
56.999999
 20
5.000004
 30
0.0
 10
56.999999
 20
3.895434
 30
0.0
 10
56.104568
 20
3.000004
 30
0.0
 10
54.999999
 20
3.000004
 30
0.0
  0
SPLINE
  5
2bf
100
AcDbEntity
  8
Layer_1
 62
7
100
AcDbSpline
 70
8
 71
3
 72
8
 73
4
 74
0
 40
0
 40
0
 40
0
 40
0
 40
1
 40
1
 40
1
 40
1
 10
54.999999
 20
3.000004
 30
0.0
 10
53.895430
 20
3.000004
 30
0.0
 10
52.999999
 20
3.895434
 30
0.0
 10
52.999999
 20
5.000004
 30
0.0
  0
SPLINE
  5
2c0
100
AcDbEntity
  8
Layer_1
 62
7
100
AcDbSpline
 70
8
 71
3
 72
8
 73
4
 74
0
 40
0
 40
0
 40
0
 40
0
 40
1
 40
1
 40
1
 40
1
 10
52.999999
 20
5.000004
 30
0.0
 10
52.999999
 20
6.104574
 30
0.0
 10
53.895430
 20
7.000004
 30
0.0
 10
54.999999
 20
7.000004
 30
0.0
  0
SPLINE
  5
2c1
100
AcDbEntity
  8
Layer_1
 62
7
100
AcDbSpline
 70
8
 71
3
 72
8
 73
4
 74
0
 40
0
 40
0
 40
0
 40
0
 40
1
 40
1
 40
1
 40
1
 10
54.999999
 20
7.000004
 30
0.0
 10
56.104568
 20
7.000004
 30
0.0
 10
56.999999
 20
6.104574
 30
0.0
 10
56.999999
 20
5.000004
 30
0.0
  0
LWPOLYLINE
  5
2c2
100
AcDbEntity
  8
Layer_1
 62
7
100
AcDbPolyline
 90
2
 70
0
 10
27.000002
 20
15.000004
 30
0.0
 10
27.000002
 20
15.000004
 30
0.0
  0
SPLINE
  5
2c3
100
AcDbEntity
  8
Layer_1
 62
7
100
AcDbSpline
 70
8
 71
3
 72
8
 73
4
 74
0
 40
0
 40
0
 40
0
 40
0
 40
1
 40
1
 40
1
 40
1
 10
56.999999
 20
15.000004
 30
0.0
 10
56.999999
 20
13.895434
 30
0.0
 10
56.104568
 20
13.000004
 30
0.0
 10
54.999999
 20
13.000004
 30
0.0
  0
SPLINE
  5
2c4
100
AcDbEntity
  8
Layer_1
 62
7
100
AcDbSpline
 70
8
 71
3
 72
8
 73
4
 74
0
 40
0
 40
0
 40
0
 40
0
 40
1
 40
1
 40
1
 40
1
 10
54.999999
 20
13.000004
 30
0.0
 10
53.895430
 20
13.000004
 30
0.0
 10
52.999999
 20
13.895434
 30
0.0
 10
52.999999
 20
15.000004
 30
0.0
  0
SPLINE
  5
2c5
100
AcDbEntity
  8
Layer_1
 62
7
100
AcDbSpline
 70
8
 71
3
 72
8
 73
4
 74
0
 40
0
 40
0
 40
0
 40
0
 40
1
 40
1
 40
1
 40
1
 10
52.999999
 20
15.000004
 30
0.0
 10
52.999999
 20
16.104573
 30
0.0
 10
53.895430
 20
17.000003
 30
0.0
 10
54.999999
 20
17.000003
 30
0.0
  0
SPLINE
  5
2c6
100
AcDbEntity
  8
Layer_1
 62
7
100
AcDbSpline
 70
8
 71
3
 72
8
 73
4
 74
0
 40
0
 40
0
 40
0
 40
0
 40
1
 40
1
 40
1
 40
1
 10
54.999999
 20
17.000003
 30
0.0
 10
56.104568
 20
17.000003
 30
0.0
 10
56.999999
 20
16.104573
 30
0.0
 10
56.999999
 20
15.000004
 30
0.0
  0
LWPOLYLINE
  5
2c7
100
AcDbEntity
  8
Layer_1
 62
7
100
AcDbPolyline
 90
2
 70
0
 10
56.999999
 20
5.000004
 30
0.0
 10
56.999999
 20
5.000004
 30
0.0
  0
SPLINE
  5
2c8
100
AcDbEntity
  8
Layer_1
 62
7
100
AcDbSpline
 70
8
 71
3
 72
8
 73
4
 74
0
 40
0
 40
0
 40
0
 40
0
 40
1
 40
1
 40
1
 40
1
 10
46.999999
 20
5.000004
 30
0.0
 10
46.999999
 20
3.895434
 30
0.0
 10
46.104569
 20
3.000004
 30
0.0
 10
44.999999
 20
3.000004
 30
0.0
  0
SPLINE
  5
2c9
100
AcDbEntity
  8
Layer_1
 62
7
100
AcDbSpline
 70
8
 71
3
 72
8
 73
4
 74
0
 40
0
 40
0
 40
0
 40
0
 40
1
 40
1
 40
1
 40
1
 10
44.999999
 20
3.000004
 30
0.0
 10
43.895430
 20
3.000004
 30
0.0
 10
42.999999
 20
3.895434
 30
0.0
 10
42.999999
 20
5.000004
 30
0.0
  0
SPLINE
  5
2ca
100
AcDbEntity
  8
Layer_1
 62
7
100
AcDbSpline
 70
8
 71
3
 72
8
 73
4
 74
0
 40
0
 40
0
 40
0
 40
0
 40
1
 40
1
 40
1
 40
1
 10
42.999999
 20
5.000004
 30
0.0
 10
42.999999
 20
6.104574
 30
0.0
 10
43.895430
 20
7.000004
 30
0.0
 10
44.999999
 20
7.000004
 30
0.0
  0
SPLINE
  5
2cb
100
AcDbEntity
  8
Layer_1
 62
7
100
AcDbSpline
 70
8
 71
3
 72
8
 73
4
 74
0
 40
0
 40
0
 40
0
 40
0
 40
1
 40
1
 40
1
 40
1
 10
44.999999
 20
7.000004
 30
0.0
 10
46.104569
 20
7.000004
 30
0.0
 10
46.999999
 20
6.104574
 30
0.0
 10
46.999999
 20
5.000004
 30
0.0
  0
LWPOLYLINE
  5
2cc
100
AcDbEntity
  8
Layer_1
 62
7
100
AcDbPolyline
 90
2
 70
0
 10
56.999999
 20
15.000004
 30
0.0
 10
56.999999
 20
15.000004
 30
0.0
  0
SPLINE
  5
2cd
100
AcDbEntity
  8
Layer_1
 62
7
100
AcDbSpline
 70
8
 71
3
 72
8
 73
4
 74
0
 40
0
 40
0
 40
0
 40
0
 40
1
 40
1
 40
1
 40
1
 10
46.999999
 20
15.000004
 30
0.0
 10
46.999999
 20
13.895434
 30
0.0
 10
46.104569
 20
13.000004
 30
0.0
 10
44.999999
 20
13.000004
 30
0.0
  0
SPLINE
  5
2ce
100
AcDbEntity
  8
Layer_1
 62
7
100
AcDbSpline
 70
8
 71
3
 72
8
 73
4
 74
0
 40
0
 40
0
 40
0
 40
0
 40
1
 40
1
 40
1
 40
1
 10
44.999999
 20
13.000004
 30
0.0
 10
43.895430
 20
13.000004
 30
0.0
 10
42.999999
 20
13.895434
 30
0.0
 10
42.999999
 20
15.000004
 30
0.0
  0
SPLINE
  5
2cf
100
AcDbEntity
  8
Layer_1
 62
7
100
AcDbSpline
 70
8
 71
3
 72
8
 73
4
 74
0
 40
0
 40
0
 40
0
 40
0
 40
1
 40
1
 40
1
 40
1
 10
42.999999
 20
15.000004
 30
0.0
 10
42.999999
 20
16.104573
 30
0.0
 10
43.895430
 20
17.000003
 30
0.0
 10
44.999999
 20
17.000003
 30
0.0
  0
SPLINE
  5
2d0
100
AcDbEntity
  8
Layer_1
 62
7
100
AcDbSpline
 70
8
 71
3
 72
8
 73
4
 74
0
 40
0
 40
0
 40
0
 40
0
 40
1
 40
1
 40
1
 40
1
 10
44.999999
 20
17.000003
 30
0.0
 10
46.104569
 20
17.000003
 30
0.0
 10
46.999999
 20
16.104573
 30
0.0
 10
46.999999
 20
15.000004
 30
0.0
  0
LWPOLYLINE
  5
2d1
100
AcDbEntity
  8
Layer_1
 62
7
100
AcDbPolyline
 90
2
 70
0
 10
46.999999
 20
5.000004
 30
0.0
 10
46.999999
 20
5.000004
 30
0.0
  0
SPLINE
  5
2d2
100
AcDbEntity
  8
Layer_1
 62
7
100
AcDbSpline
 70
8
 71
3
 72
8
 73
4
 74
0
 40
0
 40
0
 40
0
 40
0
 40
1
 40
1
 40
1
 40
1
 10
76.999999
 20
5.000004
 30
0.0
 10
76.999999
 20
3.895434
 30
0.0
 10
76.104568
 20
3.000004
 30
0.0
 10
74.999999
 20
3.000004
 30
0.0
  0
SPLINE
  5
2d3
100
AcDbEntity
  8
Layer_1
 62
7
100
AcDbSpline
 70
8
 71
3
 72
8
 73
4
 74
0
 40
0
 40
0
 40
0
 40
0
 40
1
 40
1
 40
1
 40
1
 10
74.999999
 20
3.000004
 30
0.0
 10
73.895429
 20
3.000004
 30
0.0
 10
72.999999
 20
3.895434
 30
0.0
 10
72.999999
 20
5.000004
 30
0.0
  0
SPLINE
  5
2d4
100
AcDbEntity
  8
Layer_1
 62
7
100
AcDbSpline
 70
8
 71
3
 72
8
 73
4
 74
0
 40
0
 40
0
 40
0
 40
0
 40
1
 40
1
 40
1
 40
1
 10
72.999999
 20
5.000004
 30
0.0
 10
72.999999
 20
6.104574
 30
0.0
 10
73.895429
 20
7.000004
 30
0.0
 10
74.999999
 20
7.000004
 30
0.0
  0
SPLINE
  5
2d5
100
AcDbEntity
  8
Layer_1
 62
7
100
AcDbSpline
 70
8
 71
3
 72
8
 73
4
 74
0
 40
0
 40
0
 40
0
 40
0
 40
1
 40
1
 40
1
 40
1
 10
74.999999
 20
7.000004
 30
0.0
 10
76.104568
 20
7.000004
 30
0.0
 10
76.999999
 20
6.104574
 30
0.0
 10
76.999999
 20
5.000004
 30
0.0
  0
LWPOLYLINE
  5
2d6
100
AcDbEntity
  8
Layer_1
 62
7
100
AcDbPolyline
 90
2
 70
0
 10
46.999999
 20
15.000004
 30
0.0
 10
46.999999
 20
15.000004
 30
0.0
  0
SPLINE
  5
2d7
100
AcDbEntity
  8
Layer_1
 62
7
100
AcDbSpline
 70
8
 71
3
 72
8
 73
4
 74
0
 40
0
 40
0
 40
0
 40
0
 40
1
 40
1
 40
1
 40
1
 10
76.999999
 20
15.000004
 30
0.0
 10
76.999999
 20
13.895434
 30
0.0
 10
76.104568
 20
13.000004
 30
0.0
 10
74.999999
 20
13.000004
 30
0.0
  0
SPLINE
  5
2d8
100
AcDbEntity
  8
Layer_1
 62
7
100
AcDbSpline
 70
8
 71
3
 72
8
 73
4
 74
0
 40
0
 40
0
 40
0
 40
0
 40
1
 40
1
 40
1
 40
1
 10
74.999999
 20
13.000004
 30
0.0
 10
73.895429
 20
13.000004
 30
0.0
 10
72.999999
 20
13.895434
 30
0.0
 10
72.999999
 20
15.000004
 30
0.0
  0
SPLINE
  5
2d9
100
AcDbEntity
  8
Layer_1
 62
7
100
AcDbSpline
 70
8
 71
3
 72
8
 73
4
 74
0
 40
0
 40
0
 40
0
 40
0
 40
1
 40
1
 40
1
 40
1
 10
72.999999
 20
15.000004
 30
0.0
 10
72.999999
 20
16.104573
 30
0.0
 10
73.895429
 20
17.000003
 30
0.0
 10
74.999999
 20
17.000003
 30
0.0
  0
SPLINE
  5
2da
100
AcDbEntity
  8
Layer_1
 62
7
100
AcDbSpline
 70
8
 71
3
 72
8
 73
4
 74
0
 40
0
 40
0
 40
0
 40
0
 40
1
 40
1
 40
1
 40
1
 10
74.999999
 20
17.000003
 30
0.0
 10
76.104568
 20
17.000003
 30
0.0
 10
76.999999
 20
16.104573
 30
0.0
 10
76.999999
 20
15.000004
 30
0.0
  0
LWPOLYLINE
  5
2db
100
AcDbEntity
  8
Layer_1
 62
7
100
AcDbPolyline
 90
2
 70
0
 10
76.999999
 20
5.000004
 30
0.0
 10
76.999999
 20
5.000004
 30
0.0
  0
SPLINE
  5
2dc
100
AcDbEntity
  8
Layer_1
 62
7
100
AcDbSpline
 70
8
 71
3
 72
8
 73
4
 74
0
 40
0
 40
0
 40
0
 40
0
 40
1
 40
1
 40
1
 40
1
 10
66.999999
 20
5.000004
 30
0.0
 10
66.999999
 20
3.895434
 30
0.0
 10
66.104568
 20
3.000004
 30
0.0
 10
64.999999
 20
3.000004
 30
0.0
  0
SPLINE
  5
2dd
100
AcDbEntity
  8
Layer_1
 62
7
100
AcDbSpline
 70
8
 71
3
 72
8
 73
4
 74
0
 40
0
 40
0
 40
0
 40
0
 40
1
 40
1
 40
1
 40
1
 10
64.999999
 20
3.000004
 30
0.0
 10
63.895429
 20
3.000004
 30
0.0
 10
62.999999
 20
3.895434
 30
0.0
 10
62.999999
 20
5.000004
 30
0.0
  0
SPLINE
  5
2de
100
AcDbEntity
  8
Layer_1
 62
7
100
AcDbSpline
 70
8
 71
3
 72
8
 73
4
 74
0
 40
0
 40
0
 40
0
 40
0
 40
1
 40
1
 40
1
 40
1
 10
62.999999
 20
5.000004
 30
0.0
 10
62.999999
 20
6.104574
 30
0.0
 10
63.895429
 20
7.000004
 30
0.0
 10
64.999999
 20
7.000004
 30
0.0
  0
SPLINE
  5
2df
100
AcDbEntity
  8
Layer_1
 62
7
100
AcDbSpline
 70
8
 71
3
 72
8
 73
4
 74
0
 40
0
 40
0
 40
0
 40
0
 40
1
 40
1
 40
1
 40
1
 10
64.999999
 20
7.000004
 30
0.0
 10
66.104568
 20
7.000004
 30
0.0
 10
66.999999
 20
6.104574
 30
0.0
 10
66.999999
 20
5.000004
 30
0.0
  0
LWPOLYLINE
  5
2e0
100
AcDbEntity
  8
Layer_1
 62
7
100
AcDbPolyline
 90
2
 70
0
 10
76.999999
 20
15.000004
 30
0.0
 10
76.999999
 20
15.000004
 30
0.0
  0
SPLINE
  5
2e1
100
AcDbEntity
  8
Layer_1
 62
7
100
AcDbSpline
 70
8
 71
3
 72
8
 73
4
 74
0
 40
0
 40
0
 40
0
 40
0
 40
1
 40
1
 40
1
 40
1
 10
66.999999
 20
15.000004
 30
0.0
 10
66.999999
 20
13.895434
 30
0.0
 10
66.104568
 20
13.000004
 30
0.0
 10
64.999999
 20
13.000004
 30
0.0
  0
SPLINE
  5
2e2
100
AcDbEntity
  8
Layer_1
 62
7
100
AcDbSpline
 70
8
 71
3
 72
8
 73
4
 74
0
 40
0
 40
0
 40
0
 40
0
 40
1
 40
1
 40
1
 40
1
 10
64.999999
 20
13.000004
 30
0.0
 10
63.895429
 20
13.000004
 30
0.0
 10
62.999999
 20
13.895434
 30
0.0
 10
62.999999
 20
15.000004
 30
0.0
  0
SPLINE
  5
2e3
100
AcDbEntity
  8
Layer_1
 62
7
100
AcDbSpline
 70
8
 71
3
 72
8
 73
4
 74
0
 40
0
 40
0
 40
0
 40
0
 40
1
 40
1
 40
1
 40
1
 10
62.999999
 20
15.000004
 30
0.0
 10
62.999999
 20
16.104573
 30
0.0
 10
63.895429
 20
17.000003
 30
0.0
 10
64.999999
 20
17.000003
 30
0.0
  0
SPLINE
  5
2e4
100
AcDbEntity
  8
Layer_1
 62
7
100
AcDbSpline
 70
8
 71
3
 72
8
 73
4
 74
0
 40
0
 40
0
 40
0
 40
0
 40
1
 40
1
 40
1
 40
1
 10
64.999999
 20
17.000003
 30
0.0
 10
66.104568
 20
17.000003
 30
0.0
 10
66.999999
 20
16.104573
 30
0.0
 10
66.999999
 20
15.000004
 30
0.0
  0
LWPOLYLINE
  5
2e5
100
AcDbEntity
  8
Layer_1
 62
7
100
AcDbPolyline
 90
2
 70
0
 10
66.999999
 20
5.000004
 30
0.0
 10
66.999999
 20
5.000004
 30
0.0
  0
SPLINE
  5
2e6
100
AcDbEntity
  8
Layer_1
 62
7
100
AcDbSpline
 70
8
 71
3
 72
8
 73
4
 74
0
 40
0
 40
0
 40
0
 40
0
 40
1
 40
1
 40
1
 40
1
 10
97.000001
 20
5.000004
 30
0.0
 10
97.000001
 20
3.895434
 30
0.0
 10
96.104570
 20
3.000004
 30
0.0
 10
95.000001
 20
3.000004
 30
0.0
  0
SPLINE
  5
2e7
100
AcDbEntity
  8
Layer_1
 62
7
100
AcDbSpline
 70
8
 71
3
 72
8
 73
4
 74
0
 40
0
 40
0
 40
0
 40
0
 40
1
 40
1
 40
1
 40
1
 10
95.000001
 20
3.000004
 30
0.0
 10
93.895431
 20
3.000004
 30
0.0
 10
93.000001
 20
3.895434
 30
0.0
 10
93.000001
 20
5.000004
 30
0.0
  0
SPLINE
  5
2e8
100
AcDbEntity
  8
Layer_1
 62
7
100
AcDbSpline
 70
8
 71
3
 72
8
 73
4
 74
0
 40
0
 40
0
 40
0
 40
0
 40
1
 40
1
 40
1
 40
1
 10
93.000001
 20
5.000004
 30
0.0
 10
93.000001
 20
6.104574
 30
0.0
 10
93.895431
 20
7.000004
 30
0.0
 10
95.000001
 20
7.000004
 30
0.0
  0
SPLINE
  5
2e9
100
AcDbEntity
  8
Layer_1
 62
7
100
AcDbSpline
 70
8
 71
3
 72
8
 73
4
 74
0
 40
0
 40
0
 40
0
 40
0
 40
1
 40
1
 40
1
 40
1
 10
95.000001
 20
7.000004
 30
0.0
 10
96.104570
 20
7.000004
 30
0.0
 10
97.000001
 20
6.104574
 30
0.0
 10
97.000001
 20
5.000004
 30
0.0
  0
LWPOLYLINE
  5
2ea
100
AcDbEntity
  8
Layer_1
 62
7
100
AcDbPolyline
 90
2
 70
0
 10
66.999999
 20
15.000004
 30
0.0
 10
66.999999
 20
15.000004
 30
0.0
  0
SPLINE
  5
2eb
100
AcDbEntity
  8
Layer_1
 62
7
100
AcDbSpline
 70
8
 71
3
 72
8
 73
4
 74
0
 40
0
 40
0
 40
0
 40
0
 40
1
 40
1
 40
1
 40
1
 10
87.000001
 20
5.000004
 30
0.0
 10
87.000001
 20
3.895434
 30
0.0
 10
86.104571
 20
3.000004
 30
0.0
 10
85.000001
 20
3.000004
 30
0.0
  0
SPLINE
  5
2ec
100
AcDbEntity
  8
Layer_1
 62
7
100
AcDbSpline
 70
8
 71
3
 72
8
 73
4
 74
0
 40
0
 40
0
 40
0
 40
0
 40
1
 40
1
 40
1
 40
1
 10
85.000001
 20
3.000004
 30
0.0
 10
83.895432
 20
3.000004
 30
0.0
 10
83.000001
 20
3.895434
 30
0.0
 10
83.000001
 20
5.000004
 30
0.0
  0
SPLINE
  5
2ed
100
AcDbEntity
  8
Layer_1
 62
7
100
AcDbSpline
 70
8
 71
3
 72
8
 73
4
 74
0
 40
0
 40
0
 40
0
 40
0
 40
1
 40
1
 40
1
 40
1
 10
83.000001
 20
5.000004
 30
0.0
 10
83.000001
 20
6.104574
 30
0.0
 10
83.895432
 20
7.000004
 30
0.0
 10
85.000001
 20
7.000004
 30
0.0
  0
SPLINE
  5
2ee
100
AcDbEntity
  8
Layer_1
 62
7
100
AcDbSpline
 70
8
 71
3
 72
8
 73
4
 74
0
 40
0
 40
0
 40
0
 40
0
 40
1
 40
1
 40
1
 40
1
 10
85.000001
 20
7.000004
 30
0.0
 10
86.104571
 20
7.000004
 30
0.0
 10
87.000001
 20
6.104574
 30
0.0
 10
87.000001
 20
5.000004
 30
0.0
  0
LWPOLYLINE
  5
2ef
100
AcDbEntity
  8
Layer_1
 62
7
100
AcDbPolyline
 90
2
 70
0
 10
97.000001
 20
5.000004
 30
0.0
 10
97.000001
 20
5.000004
 30
0.0
  0
SPLINE
  5
2f0
100
AcDbEntity
  8
Layer_1
 62
7
100
AcDbSpline
 70
8
 71
3
 72
8
 73
4
 74
0
 40
0
 40
0
 40
0
 40
0
 40
1
 40
1
 40
1
 40
1
 10
87.000001
 20
15.000004
 30
0.0
 10
87.000001
 20
13.895434
 30
0.0
 10
86.104571
 20
13.000004
 30
0.0
 10
85.000001
 20
13.000004
 30
0.0
  0
SPLINE
  5
2f1
100
AcDbEntity
  8
Layer_1
 62
7
100
AcDbSpline
 70
8
 71
3
 72
8
 73
4
 74
0
 40
0
 40
0
 40
0
 40
0
 40
1
 40
1
 40
1
 40
1
 10
85.000001
 20
13.000004
 30
0.0
 10
83.895432
 20
13.000004
 30
0.0
 10
83.000001
 20
13.895434
 30
0.0
 10
83.000001
 20
15.000004
 30
0.0
  0
SPLINE
  5
2f2
100
AcDbEntity
  8
Layer_1
 62
7
100
AcDbSpline
 70
8
 71
3
 72
8
 73
4
 74
0
 40
0
 40
0
 40
0
 40
0
 40
1
 40
1
 40
1
 40
1
 10
83.000001
 20
15.000004
 30
0.0
 10
83.000001
 20
16.104573
 30
0.0
 10
83.895432
 20
17.000003
 30
0.0
 10
85.000001
 20
17.000003
 30
0.0
  0
SPLINE
  5
2f3
100
AcDbEntity
  8
Layer_1
 62
7
100
AcDbSpline
 70
8
 71
3
 72
8
 73
4
 74
0
 40
0
 40
0
 40
0
 40
0
 40
1
 40
1
 40
1
 40
1
 10
85.000001
 20
17.000003
 30
0.0
 10
86.104571
 20
17.000003
 30
0.0
 10
87.000001
 20
16.104573
 30
0.0
 10
87.000001
 20
15.000004
 30
0.0
  0
LWPOLYLINE
  5
2f4
100
AcDbEntity
  8
Layer_1
 62
7
100
AcDbPolyline
 90
2
 70
0
 10
87.000001
 20
5.000004
 30
0.0
 10
87.000001
 20
5.000004
 30
0.0
  0
SPLINE
  5
2f5
100
AcDbEntity
  8
Layer_1
 62
7
100
AcDbSpline
 70
8
 71
3
 72
8
 73
4
 74
0
 40
0
 40
0
 40
0
 40
0
 40
1
 40
1
 40
1
 40
1
 10
107.000001
 20
5.000004
 30
0.0
 10
107.000001
 20
3.895434
 30
0.0
 10
106.104570
 20
3.000004
 30
0.0
 10
105.000001
 20
3.000004
 30
0.0
  0
SPLINE
  5
2f6
100
AcDbEntity
  8
Layer_1
 62
7
100
AcDbSpline
 70
8
 71
3
 72
8
 73
4
 74
0
 40
0
 40
0
 40
0
 40
0
 40
1
 40
1
 40
1
 40
1
 10
105.000001
 20
3.000004
 30
0.0
 10
103.895431
 20
3.000004
 30
0.0
 10
103.000001
 20
3.895434
 30
0.0
 10
103.000001
 20
5.000004
 30
0.0
  0
SPLINE
  5
2f7
100
AcDbEntity
  8
Layer_1
 62
7
100
AcDbSpline
 70
8
 71
3
 72
8
 73
4
 74
0
 40
0
 40
0
 40
0
 40
0
 40
1
 40
1
 40
1
 40
1
 10
103.000001
 20
5.000004
 30
0.0
 10
103.000001
 20
6.104574
 30
0.0
 10
103.895431
 20
7.000004
 30
0.0
 10
105.000001
 20
7.000004
 30
0.0
  0
SPLINE
  5
2f8
100
AcDbEntity
  8
Layer_1
 62
7
100
AcDbSpline
 70
8
 71
3
 72
8
 73
4
 74
0
 40
0
 40
0
 40
0
 40
0
 40
1
 40
1
 40
1
 40
1
 10
105.000001
 20
7.000004
 30
0.0
 10
106.104570
 20
7.000004
 30
0.0
 10
107.000001
 20
6.104574
 30
0.0
 10
107.000001
 20
5.000004
 30
0.0
  0
LWPOLYLINE
  5
2f9
100
AcDbEntity
  8
Layer_1
 62
7
100
AcDbPolyline
 90
2
 70
0
 10
87.000001
 20
15.000004
 30
0.0
 10
87.000001
 20
15.000004
 30
0.0
  0
SPLINE
  5
2fa
100
AcDbEntity
  8
Layer_1
 62
7
100
AcDbSpline
 70
8
 71
3
 72
8
 73
4
 74
0
 40
0
 40
0
 40
0
 40
0
 40
1
 40
1
 40
1
 40
1
 10
93.999994
 20
78.500010
 30
0.0
 10
93.999994
 20
79.604572
 30
0.0
 10
94.895424
 20
80.499997
 30
0.0
 10
95.999994
 20
80.499997
 30
0.0
  0
SPLINE
  5
2fb
100
AcDbEntity
  8
Layer_1
 62
7
100
AcDbSpline
 70
8
 71
3
 72
8
 73
4
 74
0
 40
0
 40
0
 40
0
 40
0
 40
1
 40
1
 40
1
 40
1
 10
95.999994
 20
80.499997
 30
0.0
 10
97.104563
 20
80.499997
 30
0.0
 10
97.999994
 20
79.604572
 30
0.0
 10
97.999994
 20
78.500010
 30
0.0
  0
SPLINE
  5
2fc
100
AcDbEntity
  8
Layer_1
 62
7
100
AcDbSpline
 70
8
 71
3
 72
8
 73
4
 74
0
 40
0
 40
0
 40
0
 40
0
 40
1
 40
1
 40
1
 40
1
 10
97.999994
 20
78.500010
 30
0.0
 10
97.999994
 20
77.395442
 30
0.0
 10
97.104563
 20
76.500016
 30
0.0
 10
95.999994
 20
76.500016
 30
0.0
  0
SPLINE
  5
2fd
100
AcDbEntity
  8
Layer_1
 62
7
100
AcDbSpline
 70
8
 71
3
 72
8
 73
4
 74
0
 40
0
 40
0
 40
0
 40
0
 40
1
 40
1
 40
1
 40
1
 10
95.999994
 20
76.500016
 30
0.0
 10
94.895424
 20
76.500016
 30
0.0
 10
93.999994
 20
77.395442
 30
0.0
 10
93.999994
 20
78.500010
 30
0.0
  0
LWPOLYLINE
  5
2fe
100
AcDbEntity
  8
Layer_1
 62
7
100
AcDbPolyline
 90
2
 70
0
 10
107.000001
 20
5.000004
 30
0.0
 10
107.000001
 20
5.000004
 30
0.0
  0
SPLINE
  5
2ff
100
AcDbEntity
  8
Layer_1
 62
7
100
AcDbSpline
 70
8
 71
3
 72
8
 73
4
 74
0
 40
0
 40
0
 40
0
 40
0
 40
1
 40
1
 40
1
 40
1
 10
17.000003
 20
65.000005
 30
0.0
 10
17.000003
 20
63.895435
 30
0.0
 10
16.104572
 20
63.000005
 30
0.0
 10
15.000003
 20
63.000005
 30
0.0
  0
SPLINE
  5
300
100
AcDbEntity
  8
Layer_1
 62
7
100
AcDbSpline
 70
8
 71
3
 72
8
 73
4
 74
0
 40
0
 40
0
 40
0
 40
0
 40
1
 40
1
 40
1
 40
1
 10
15.000003
 20
63.000005
 30
0.0
 10
13.895433
 20
63.000005
 30
0.0
 10
13.000003
 20
63.895435
 30
0.0
 10
13.000003
 20
65.000005
 30
0.0
  0
SPLINE
  5
301
100
AcDbEntity
  8
Layer_1
 62
7
100
AcDbSpline
 70
8
 71
3
 72
8
 73
4
 74
0
 40
0
 40
0
 40
0
 40
0
 40
1
 40
1
 40
1
 40
1
 10
13.000003
 20
65.000005
 30
0.0
 10
13.000003
 20
66.104575
 30
0.0
 10
13.895433
 20
67.000005
 30
0.0
 10
15.000003
 20
67.000005
 30
0.0
  0
SPLINE
  5
302
100
AcDbEntity
  8
Layer_1
 62
7
100
AcDbSpline
 70
8
 71
3
 72
8
 73
4
 74
0
 40
0
 40
0
 40
0
 40
0
 40
1
 40
1
 40
1
 40
1
 10
15.000003
 20
67.000005
 30
0.0
 10
16.104572
 20
67.000005
 30
0.0
 10
17.000003
 20
66.104575
 30
0.0
 10
17.000003
 20
65.000005
 30
0.0
  0
LWPOLYLINE
  5
303
100
AcDbEntity
  8
Layer_1
 62
7
100
AcDbPolyline
 90
2
 70
0
 10
93.999994
 20
78.500010
 30
0.0
 10
93.999994
 20
78.500010
 30
0.0
  0
SPLINE
  5
304
100
AcDbEntity
  8
Layer_1
 62
7
100
AcDbSpline
 70
8
 71
3
 72
8
 73
4
 74
0
 40
0
 40
0
 40
0
 40
0
 40
1
 40
1
 40
1
 40
1
 10
17.000003
 20
95.000007
 30
0.0
 10
17.000003
 20
93.895438
 30
0.0
 10
16.104572
 20
93.000007
 30
0.0
 10
15.000003
 20
93.000007
 30
0.0
  0
SPLINE
  5
305
100
AcDbEntity
  8
Layer_1
 62
7
100
AcDbSpline
 70
8
 71
3
 72
8
 73
4
 74
0
 40
0
 40
0
 40
0
 40
0
 40
1
 40
1
 40
1
 40
1
 10
15.000003
 20
93.000007
 30
0.0
 10
13.895433
 20
93.000007
 30
0.0
 10
13.000003
 20
93.895438
 30
0.0
 10
13.000003
 20
95.000007
 30
0.0
  0
SPLINE
  5
306
100
AcDbEntity
  8
Layer_1
 62
7
100
AcDbSpline
 70
8
 71
3
 72
8
 73
4
 74
0
 40
0
 40
0
 40
0
 40
0
 40
1
 40
1
 40
1
 40
1
 10
13.000003
 20
95.000007
 30
0.0
 10
13.000003
 20
96.104577
 30
0.0
 10
13.895433
 20
97.000007
 30
0.0
 10
15.000003
 20
97.000007
 30
0.0
  0
SPLINE
  5
307
100
AcDbEntity
  8
Layer_1
 62
7
100
AcDbSpline
 70
8
 71
3
 72
8
 73
4
 74
0
 40
0
 40
0
 40
0
 40
0
 40
1
 40
1
 40
1
 40
1
 10
15.000003
 20
97.000007
 30
0.0
 10
16.104572
 20
97.000007
 30
0.0
 10
17.000003
 20
96.104577
 30
0.0
 10
17.000003
 20
95.000007
 30
0.0
  0
LWPOLYLINE
  5
308
100
AcDbEntity
  8
Layer_1
 62
7
100
AcDbPolyline
 90
2
 70
0
 10
17.000003
 20
65.000005
 30
0.0
 10
17.000003
 20
65.000005
 30
0.0
  0
SPLINE
  5
309
100
AcDbEntity
  8
Layer_1
 62
7
100
AcDbSpline
 70
8
 71
3
 72
8
 73
4
 74
0
 40
0
 40
0
 40
0
 40
0
 40
1
 40
1
 40
1
 40
1
 10
67.000002
 20
45.000006
 30
0.0
 10
67.000002
 20
43.895436
 30
0.0
 10
66.104571
 20
43.000006
 30
0.0
 10
65.000002
 20
43.000006
 30
0.0
  0
SPLINE
  5
30a
100
AcDbEntity
  8
Layer_1
 62
7
100
AcDbSpline
 70
8
 71
3
 72
8
 73
4
 74
0
 40
0
 40
0
 40
0
 40
0
 40
1
 40
1
 40
1
 40
1
 10
65.000002
 20
43.000006
 30
0.0
 10
63.895432
 20
43.000006
 30
0.0
 10
63.000002
 20
43.895436
 30
0.0
 10
63.000002
 20
45.000006
 30
0.0
  0
SPLINE
  5
30b
100
AcDbEntity
  8
Layer_1
 62
7
100
AcDbSpline
 70
8
 71
3
 72
8
 73
4
 74
0
 40
0
 40
0
 40
0
 40
0
 40
1
 40
1
 40
1
 40
1
 10
63.000002
 20
45.000006
 30
0.0
 10
63.000002
 20
46.104575
 30
0.0
 10
63.895432
 20
47.000006
 30
0.0
 10
65.000002
 20
47.000006
 30
0.0
  0
SPLINE
  5
30c
100
AcDbEntity
  8
Layer_1
 62
7
100
AcDbSpline
 70
8
 71
3
 72
8
 73
4
 74
0
 40
0
 40
0
 40
0
 40
0
 40
1
 40
1
 40
1
 40
1
 10
65.000002
 20
47.000006
 30
0.0
 10
66.104571
 20
47.000006
 30
0.0
 10
67.000002
 20
46.104575
 30
0.0
 10
67.000002
 20
45.000006
 30
0.0
  0
LWPOLYLINE
  5
30d
100
AcDbEntity
  8
Layer_1
 62
7
100
AcDbPolyline
 90
2
 70
0
 10
17.000003
 20
95.000007
 30
0.0
 10
17.000003
 20
95.000007
 30
0.0
  0
SPLINE
  5
30e
100
AcDbEntity
  8
Layer_1
 62
7
100
AcDbSpline
 70
8
 71
3
 72
8
 73
4
 74
0
 40
0
 40
0
 40
0
 40
0
 40
1
 40
1
 40
1
 40
1
 10
67.000002
 20
95.000007
 30
0.0
 10
67.000002
 20
93.895438
 30
0.0
 10
66.104571
 20
93.000007
 30
0.0
 10
65.000002
 20
93.000007
 30
0.0
  0
SPLINE
  5
30f
100
AcDbEntity
  8
Layer_1
 62
7
100
AcDbSpline
 70
8
 71
3
 72
8
 73
4
 74
0
 40
0
 40
0
 40
0
 40
0
 40
1
 40
1
 40
1
 40
1
 10
65.000002
 20
93.000007
 30
0.0
 10
63.895432
 20
93.000007
 30
0.0
 10
63.000002
 20
93.895438
 30
0.0
 10
63.000002
 20
95.000007
 30
0.0
  0
SPLINE
  5
310
100
AcDbEntity
  8
Layer_1
 62
7
100
AcDbSpline
 70
8
 71
3
 72
8
 73
4
 74
0
 40
0
 40
0
 40
0
 40
0
 40
1
 40
1
 40
1
 40
1
 10
63.000002
 20
95.000007
 30
0.0
 10
63.000002
 20
96.104577
 30
0.0
 10
63.895432
 20
97.000007
 30
0.0
 10
65.000002
 20
97.000007
 30
0.0
  0
SPLINE
  5
311
100
AcDbEntity
  8
Layer_1
 62
7
100
AcDbSpline
 70
8
 71
3
 72
8
 73
4
 74
0
 40
0
 40
0
 40
0
 40
0
 40
1
 40
1
 40
1
 40
1
 10
65.000002
 20
97.000007
 30
0.0
 10
66.104571
 20
97.000007
 30
0.0
 10
67.000002
 20
96.104577
 30
0.0
 10
67.000002
 20
95.000007
 30
0.0
  0
LWPOLYLINE
  5
312
100
AcDbEntity
  8
Layer_1
 62
7
100
AcDbPolyline
 90
2
 70
0
 10
67.000002
 20
45.000006
 30
0.0
 10
67.000002
 20
45.000006
 30
0.0
  0
SPLINE
  5
313
100
AcDbEntity
  8
Layer_1
 62
7
100
AcDbSpline
 70
8
 71
3
 72
8
 73
4
 74
0
 40
0
 40
0
 40
0
 40
0
 40
1
 40
1
 40
1
 40
1
 10
43.000000
 20
45.000006
 30
0.0
 10
43.000000
 20
46.104569
 30
0.0
 10
43.895430
 20
46.999994
 30
0.0
 10
45.000000
 20
46.999994
 30
0.0
  0
SPLINE
  5
314
100
AcDbEntity
  8
Layer_1
 62
7
100
AcDbSpline
 70
8
 71
3
 72
8
 73
4
 74
0
 40
0
 40
0
 40
0
 40
0
 40
1
 40
1
 40
1
 40
1
 10
45.000000
 20
46.999994
 30
0.0
 10
46.104569
 20
46.999994
 30
0.0
 10
47.000000
 20
46.104569
 30
0.0
 10
47.000000
 20
45.000006
 30
0.0
  0
SPLINE
  5
315
100
AcDbEntity
  8
Layer_1
 62
7
100
AcDbSpline
 70
8
 71
3
 72
8
 73
4
 74
0
 40
0
 40
0
 40
0
 40
0
 40
1
 40
1
 40
1
 40
1
 10
47.000000
 20
45.000006
 30
0.0
 10
47.000000
 20
43.895438
 30
0.0
 10
46.104569
 20
43.000013
 30
0.0
 10
45.000000
 20
43.000013
 30
0.0
  0
SPLINE
  5
316
100
AcDbEntity
  8
Layer_1
 62
7
100
AcDbSpline
 70
8
 71
3
 72
8
 73
4
 74
0
 40
0
 40
0
 40
0
 40
0
 40
1
 40
1
 40
1
 40
1
 10
45.000000
 20
43.000013
 30
0.0
 10
43.895430
 20
43.000013
 30
0.0
 10
43.000000
 20
43.895438
 30
0.0
 10
43.000000
 20
45.000006
 30
0.0
  0
LWPOLYLINE
  5
317
100
AcDbEntity
  8
Layer_1
 62
7
100
AcDbPolyline
 90
2
 70
0
 10
67.000002
 20
95.000007
 30
0.0
 10
67.000002
 20
95.000007
 30
0.0
  0
LWPOLYLINE
  5
318
100
AcDbEntity
  8
Layer_1
 62
7
100
AcDbPolyline
 90
2
 70
0
 10
43.000000
 20
45.000006
 30
0.0
 10
43.000000
 20
45.000006
 30
0.0
  0
ENDSEC
  0
SECTION
  2
OBJECTS
  0
DICTIONARY
  5
C
330
0
100
AcDbDictionary
  3
ACAD_GROUP
350
D
  3
ACAD_MLINESTYLE
350
17
  0
DICTIONARY
  5
D
330
C
100
AcDbDictionary
  0
DICTIONARY
  5
1A
330
C
100
AcDbDictionary
  0
DICTIONARY
  5
17
330
C
100
AcDbDictionary
  3
STANDARD
350
18
  0
DICTIONARY
  5
19
330
C
100
AcDbDictionary
  0
ENDSEC
  0
EOF
