  0
SECTION
  2
HEADER
  9
$ACADVER
  1
AC1014
  9
$HANDSEED
  5
FFFF
  9
$MEASUREMENT
 70
     1
  0
ENDSEC
  0
SECTION
  2
TABLES
  0
TABLE
  2
VPORT
  5
8
330
0
100
AcDbSymbolTable
 70
     4
  0
VPORT
  5
2E
330
8
100
AcDbSymbolTableRecord
100
AcDbViewportTableRecord
  2
*ACTIVE
 70
     0
 10
0.0
 20
0.0
 11
1.0
 21
1.0
 12
210.0
 22
148.5
 13
0.0
 23
0.0
 14
10.0
 24
10.0
 15
10.0
 25
10.0
 16
0.0
 26
0.0
 36
1.0
 17
0.0
 27
0.0
 37
0.0
 40
341.0
 41
1.24
 42
50.0
 43
0.0
 44
0.0
 50
0.0
 51
0.0
 71
     0
 72
   100
 73
     1
 74
     3
 75
     0
 76
     0
 77
     0
 78
     0
  0
ENDTAB
  0
TABLE
  2
LTYPE
  5
5
330
0
100
AcDbSymbolTable
 70
     1
  0
LTYPE
  5
14
330
5
100
AcDbSymbolTableRecord
100
AcDbLinetypeTableRecord
  2
BYBLOCK
 70
     0
  3

 72
    65
 73
     0
 40
0.0
  0
LTYPE
  5
15
330
5
100
AcDbSymbolTableRecord
100
AcDbLinetypeTableRecord
  2
BYLAYER
 70
     0
  3

 72
    65
 73
     0
 40
0.0
  0
LTYPE
  5
16
330
5
100
AcDbSymbolTableRecord
100
AcDbLinetypeTableRecord
  2
CONTINUOUS
 70
     0
  3
Solid line
 72
    65
 73
     0
 40
0.0
  0
ENDTAB
  0
TABLE
  2
LAYER
  5
2
100
AcDbSymbolTable
 70
2
  0
LAYER
  5
50
100
AcDbSymbolTableRecord
100
AcDbLayerTableRecord
  2
0
 70
0
  6
CONTINUOUS
  0
LAYER
  5
51
100
AcDbSymbolTableRecord
100
AcDbLayerTableRecord
  2
Layer_1
 70
0
  6
CONTINUOUS
  0
ENDTAB
  0
TABLE
  2
STYLE
  5
3
330
0
100
AcDbSymbolTable
 70
     1
  0
STYLE
  5
11
330
3
100
AcDbSymbolTableRecord
100
AcDbTextStyleTableRecord
  2
STANDARD
 70
     0
 40
0.0
 41
1.0
 50
0.0
 71
     0
 42
2.5
  3
txt
  4

  0
ENDTAB
  0
TABLE
  2
VIEW
  5
6
330
0
100
AcDbSymbolTable
 70
     0
  0
ENDTAB
  0
TABLE
  2
UCS
  5
7
330
0
100
AcDbSymbolTable
 70
     0
  0
ENDTAB
  0
TABLE
  2
APPID
  5
9
330
0
100
AcDbSymbolTable
 70
     2
  0
APPID
  5
12
330
9
100
AcDbSymbolTableRecord
100
AcDbRegAppTableRecord
  2
ACAD
 70
     0
  0
ENDTAB
  0
TABLE
  2
DIMSTYLE
  5
A
330
0
100
AcDbSymbolTable
 70
     1
  0
DIMSTYLE
105
27
330
A
100
AcDbSymbolTableRecord
100
AcDbDimStyleTableRecord
  2
ISO-25
 70
     0
  3

  4

  5

  6

  7

 40
1.0
 41
2.5
 42
0.625
 43
3.75
 44
1.25
 45
0.0
 46
0.0
 47
0.0
 48
0.0
140
2.5
141
2.5
142
0.0
143
0.03937007874016
144
1.0
145
0.0
146
1.0
147
0.625
 71
     0
 72
     0
 73
     0
 74
     0
 75
     0
 76
     0
 77
     1
 78
     8
170
     0
171
     3
172
     1
173
     0
174
     0
175
     0
176
     0
177
     0
178
     0
270
     2
271
     2
272
     2
273
     2
274
     3
340
11
275
     0
280
     0
281
     0
282
     0
283
     0
284
     8
285
     0
286
     0
287
     3
288
     0
  0
ENDTAB
  0
TABLE
  2
BLOCK_RECORD
  5
1
330
0
100
AcDbSymbolTable
 70
     1
  0
BLOCK_RECORD
  5
1F
330
1
100
AcDbSymbolTableRecord
100
AcDbBlockTableRecord
  2
*MODEL_SPACE
  0
BLOCK_RECORD
  5
1B
330
1
100
AcDbSymbolTableRecord
100
AcDbBlockTableRecord
  2
*PAPER_SPACE
  0
ENDTAB
  0
ENDSEC
  0
SECTION
  2
BLOCKS
  0
BLOCK
  5
20
330
1F
100
AcDbEntity
  8
0
100
AcDbBlockBegin
  2
*MODEL_SPACE
 70
     0
 10
0.0
 20
0.0
 30
0.0
  3
*MODEL_SPACE
  1

  0
ENDBLK
  5
21
330
1F
100
AcDbEntity
  8
0
100
AcDbBlockEnd
  0
BLOCK
  5
1C
330
1B
100
AcDbEntity
 67
     1
  8
0
100
AcDbBlockBegin
  2
*PAPER_SPACE
  1

  0
ENDBLK
  5
1D
330
1B
100
AcDbEntity
 67
     1
  8
0
100
AcDbBlockEnd
  0
ENDSEC
  0
SECTION
  2
ENTITIES
  0
SPLINE
  5
100
100
AcDbEntity
  8
Layer_1
 62
7
100
AcDbSpline
 70
8
 71
3
 72
8
 73
4
 74
0
 40
0
 40
0
 40
0
 40
0
 40
1
 40
1
 40
1
 40
1
 10
105.141110
 20
0.141112
 30
0.0
 10
107.911107
 20
0.141112
 30
0.0
 10
110.141111
 20
2.371148
 30
0.0
 10
110.141111
 20
5.141131
 30
0.0
  0
SPLINE
  5
101
100
AcDbEntity
  8
Layer_1
 62
7
100
AcDbSpline
 70
8
 71
3
 72
8
 73
4
 74
0
 40
0
 40
0
 40
0
 40
0
 40
1
 40
1
 40
1
 40
1
 10
110.141111
 20
30.141143
 30
0.0
 10
110.141111
 20
55.141146
 30
0.0
 10
110.141111
 20
10.141149
 30
0.0
 10
110.141111
 20
35.141141
 30
0.0
  0
SPLINE
  5
102
100
AcDbEntity
  8
Layer_1
 62
7
100
AcDbSpline
 70
8
 71
3
 72
8
 73
4
 74
0
 40
0
 40
0
 40
0
 40
0
 40
1
 40
1
 40
1
 40
1
 10
110.141111
 20
35.141141
 30
0.0
 10
110.141111
 20
37.911124
 30
0.0
 10
107.911107
 20
40.141140
 30
0.0
 10
105.141110
 20
40.141140
 30
0.0
  0
LWPOLYLINE
  5
103
100
AcDbEntity
  8
Layer_1
 62
7
100
AcDbPolyline
 90
2
 70
0
 10
5.141098
 20
0.141112
 30
0.0
 10
105.141110
 20
0.141112
 30
0.0
  0
SPLINE
  5
104
100
AcDbEntity
  8
Layer_1
 62
7
100
AcDbSpline
 70
8
 71
3
 72
8
 73
4
 74
0
 40
0
 40
0
 40
0
 40
0
 40
1
 40
1
 40
1
 40
1
 10
5.141098
 20
40.141154
 30
0.0
 10
2.371101
 20
40.141157
 30
0.0
 10
0.141111
 20
37.911138
 30
0.0
 10
0.141111
 20
35.141155
 30
0.0
  0
LWPOLYLINE
  5
105
100
AcDbEntity
  8
Layer_1
 62
7
100
AcDbPolyline
 90
13
 70
0
 10
110.141111
 20
5.141131
 30
0.0
 10
110.141111
 20
10.141149
 30
0.0
 10
106.641110
 20
10.141149
 30
0.0
 10
106.641110
 20
7.641140
 30
0.0
 10
99.641112
 20
7.641140
 30
0.0
 10
99.641112
 20
10.141149
 30
0.0
 10
96.141111
 20
10.141149
 30
0.0
 10
96.141111
 20
30.141143
 30
0.0
 10
99.641112
 20
30.141143
 30
0.0
 10
99.641112
 20
32.641143
 30
0.0
 10
106.641110
 20
32.641143
 30
0.0
 10
106.641110
 20
30.141140
 30
0.0
 10
110.141111
 20
30.141143
 30
0.0
  0
SPLINE
  5
106
100
AcDbEntity
  8
Layer_1
 62
7
100
AcDbSpline
 70
8
 71
3
 72
8
 73
4
 74
0
 40
0
 40
0
 40
0
 40
0
 40
1
 40
1
 40
1
 40
1
 10
0.141111
 20
5.141131
 30
0.0
 10
0.141111
 20
2.371120
 30
0.0
 10
2.371101
 20
0.141112
 30
0.0
 10
5.141098
 20
0.141112
 30
0.0
  0
LWPOLYLINE
  5
107
100
AcDbEntity
  8
Layer_1
 62
7
100
AcDbPolyline
 90
2
 70
0
 10
105.141110
 20
40.141140
 30
0.0
 10
5.141098
 20
40.141154
 30
0.0
  0
SPLINE
  5
108
100
AcDbEntity
  8
Layer_1
 62
7
100
AcDbSpline
 70
8
 71
3
 72
8
 73
4
 74
0
 40
0
 40
0
 40
0
 40
0
 40
1
 40
1
 40
1
 40
1
 10
37.141113
 20
25.141139
 30
0.0
 10
37.141113
 20
24.036569
 30
0.0
 10
36.245684
 20
23.141140
 30
0.0
 10
35.141114
 20
23.141140
 30
0.0
  0
SPLINE
  5
109
100
AcDbEntity
  8
Layer_1
 62
7
100
AcDbSpline
 70
8
 71
3
 72
8
 73
4
 74
0
 40
0
 40
0
 40
0
 40
0
 40
1
 40
1
 40
1
 40
1
 10
35.141114
 20
23.141140
 30
0.0
 10
34.036545
 20
23.141140
 30
0.0
 10
33.141113
 20
24.036569
 30
0.0
 10
33.141113
 20
25.141139
 30
0.0
  0
SPLINE
  5
10a
100
AcDbEntity
  8
Layer_1
 62
7
100
AcDbSpline
 70
8
 71
3
 72
8
 73
4
 74
0
 40
0
 40
0
 40
0
 40
0
 40
1
 40
1
 40
1
 40
1
 10
33.141113
 20
25.141139
 30
0.0
 10
33.141113
 20
26.245708
 30
0.0
 10
34.036545
 20
27.141140
 30
0.0
 10
35.141114
 20
27.141140
 30
0.0
  0
SPLINE
  5
10b
100
AcDbEntity
  8
Layer_1
 62
7
100
AcDbSpline
 70
8
 71
3
 72
8
 73
4
 74
0
 40
0
 40
0
 40
0
 40
0
 40
1
 40
1
 40
1
 40
1
 10
35.141114
 20
27.141140
 30
0.0
 10
36.245684
 20
27.141140
 30
0.0
 10
37.141113
 20
26.245708
 30
0.0
 10
37.141113
 20
25.141139
 30
0.0
  0
LWPOLYLINE
  5
10c
100
AcDbEntity
  8
Layer_1
 62
7
100
AcDbPolyline
 90
14
 70
0
 10
0.141111
 20
35.141155
 30
0.0
 10
0.141111
 20
30.141143
 30
0.0
 10
3.641111
 20
30.141140
 30
0.0
 10
3.641111
 20
32.641141
 30
0.0
 10
10.641111
 20
32.641143
 30
0.0
 10
10.641111
 20
30.141140
 30
0.0
 10
14.141111
 20
30.141140
 30
0.0
 10
14.141111
 20
10.141177
 30
0.0
 10
10.641111
 20
10.141149
 30
0.0
 10
10.641111
 20
7.641140
 30
0.0
 10
3.641111
 20
7.641140
 30
0.0
 10
3.641111
 20
10.141149
 30
0.0
 10
0.141111
 20
10.141149
 30
0.0
 10
0.141111
 20
5.141131
 30
0.0
  0
SPLINE
  5
10d
100
AcDbEntity
  8
Layer_1
 62
7
100
AcDbSpline
 70
8
 71
3
 72
8
 73
4
 74
0
 40
0
 40
0
 40
0
 40
0
 40
1
 40
1
 40
1
 40
1
 10
37.141113
 20
35.141141
 30
0.0
 10
37.141113
 20
34.036569
 30
0.0
 10
36.245684
 20
33.141140
 30
0.0
 10
35.141114
 20
33.141140
 30
0.0
  0
SPLINE
  5
10e
100
AcDbEntity
  8
Layer_1
 62
7
100
AcDbSpline
 70
8
 71
3
 72
8
 73
4
 74
0
 40
0
 40
0
 40
0
 40
0
 40
1
 40
1
 40
1
 40
1
 10
35.141114
 20
33.141140
 30
0.0
 10
34.036545
 20
33.141140
 30
0.0
 10
33.141113
 20
34.036569
 30
0.0
 10
33.141113
 20
35.141141
 30
0.0
  0
SPLINE
  5
10f
100
AcDbEntity
  8
Layer_1
 62
7
100
AcDbSpline
 70
8
 71
3
 72
8
 73
4
 74
0
 40
0
 40
0
 40
0
 40
0
 40
1
 40
1
 40
1
 40
1
 10
33.141113
 20
35.141141
 30
0.0
 10
33.141113
 20
36.245711
 30
0.0
 10
34.036545
 20
37.141140
 30
0.0
 10
35.141114
 20
37.141140
 30
0.0
  0
SPLINE
  5
110
100
AcDbEntity
  8
Layer_1
 62
7
100
AcDbSpline
 70
8
 71
3
 72
8
 73
4
 74
0
 40
0
 40
0
 40
0
 40
0
 40
1
 40
1
 40
1
 40
1
 10
35.141114
 20
37.141140
 30
0.0
 10
36.245684
 20
37.141140
 30
0.0
 10
37.141113
 20
36.245711
 30
0.0
 10
37.141113
 20
35.141141
 30
0.0
  0
LWPOLYLINE
  5
111
100
AcDbEntity
  8
Layer_1
 62
7
100
AcDbPolyline
 90
2
 70
0
 10
5.141098
 20
0.141112
 30
0.0
 10
5.141098
 20
0.141112
 30
0.0
  0
SPLINE
  5
112
100
AcDbEntity
  8
Layer_1
 62
7
100
AcDbSpline
 70
8
 71
3
 72
8
 73
4
 74
0
 40
0
 40
0
 40
0
 40
0
 40
1
 40
1
 40
1
 40
1
 10
27.141116
 20
25.141139
 30
0.0
 10
27.141116
 20
24.036569
 30
0.0
 10
26.245685
 20
23.141140
 30
0.0
 10
25.141116
 20
23.141140
 30
0.0
  0
SPLINE
  5
113
100
AcDbEntity
  8
Layer_1
 62
7
100
AcDbSpline
 70
8
 71
3
 72
8
 73
4
 74
0
 40
0
 40
0
 40
0
 40
0
 40
1
 40
1
 40
1
 40
1
 10
25.141116
 20
23.141140
 30
0.0
 10
24.036546
 20
23.141140
 30
0.0
 10
23.141116
 20
24.036569
 30
0.0
 10
23.141116
 20
25.141139
 30
0.0
  0
SPLINE
  5
114
100
AcDbEntity
  8
Layer_1
 62
7
100
AcDbSpline
 70
8
 71
3
 72
8
 73
4
 74
0
 40
0
 40
0
 40
0
 40
0
 40
1
 40
1
 40
1
 40
1
 10
23.141116
 20
25.141139
 30
0.0
 10
23.141116
 20
26.245708
 30
0.0
 10
24.036546
 20
27.141140
 30
0.0
 10
25.141116
 20
27.141140
 30
0.0
  0
SPLINE
  5
115
100
AcDbEntity
  8
Layer_1
 62
7
100
AcDbSpline
 70
8
 71
3
 72
8
 73
4
 74
0
 40
0
 40
0
 40
0
 40
0
 40
1
 40
1
 40
1
 40
1
 10
25.141116
 20
27.141140
 30
0.0
 10
26.245685
 20
27.141140
 30
0.0
 10
27.141116
 20
26.245708
 30
0.0
 10
27.141116
 20
25.141139
 30
0.0
  0
LWPOLYLINE
  5
116
100
AcDbEntity
  8
Layer_1
 62
7
100
AcDbPolyline
 90
2
 70
0
 10
37.141113
 20
25.141139
 30
0.0
 10
37.141113
 20
25.141139
 30
0.0
  0
SPLINE
  5
117
100
AcDbEntity
  8
Layer_1
 62
7
100
AcDbSpline
 70
8
 71
3
 72
8
 73
4
 74
0
 40
0
 40
0
 40
0
 40
0
 40
1
 40
1
 40
1
 40
1
 10
27.141116
 20
35.141141
 30
0.0
 10
27.141116
 20
34.036569
 30
0.0
 10
26.245685
 20
33.141140
 30
0.0
 10
25.141116
 20
33.141140
 30
0.0
  0
SPLINE
  5
118
100
AcDbEntity
  8
Layer_1
 62
7
100
AcDbSpline
 70
8
 71
3
 72
8
 73
4
 74
0
 40
0
 40
0
 40
0
 40
0
 40
1
 40
1
 40
1
 40
1
 10
25.141116
 20
33.141140
 30
0.0
 10
24.036546
 20
33.141140
 30
0.0
 10
23.141116
 20
34.036569
 30
0.0
 10
23.141116
 20
35.141141
 30
0.0
  0
SPLINE
  5
119
100
AcDbEntity
  8
Layer_1
 62
7
100
AcDbSpline
 70
8
 71
3
 72
8
 73
4
 74
0
 40
0
 40
0
 40
0
 40
0
 40
1
 40
1
 40
1
 40
1
 10
23.141116
 20
35.141141
 30
0.0
 10
23.141116
 20
36.245711
 30
0.0
 10
24.036546
 20
37.141140
 30
0.0
 10
25.141116
 20
37.141140
 30
0.0
  0
SPLINE
  5
11a
100
AcDbEntity
  8
Layer_1
 62
7
100
AcDbSpline
 70
8
 71
3
 72
8
 73
4
 74
0
 40
0
 40
0
 40
0
 40
0
 40
1
 40
1
 40
1
 40
1
 10
25.141116
 20
37.141140
 30
0.0
 10
26.245685
 20
37.141140
 30
0.0
 10
27.141116
 20
36.245711
 30
0.0
 10
27.141116
 20
35.141141
 30
0.0
  0
LWPOLYLINE
  5
11b
100
AcDbEntity
  8
Layer_1
 62
7
100
AcDbPolyline
 90
2
 70
0
 10
37.141113
 20
35.141141
 30
0.0
 10
37.141113
 20
35.141141
 30
0.0
  0
SPLINE
  5
11c
100
AcDbEntity
  8
Layer_1
 62
7
100
AcDbSpline
 70
8
 71
3
 72
8
 73
4
 74
0
 40
0
 40
0
 40
0
 40
0
 40
1
 40
1
 40
1
 40
1
 10
57.141113
 20
25.141139
 30
0.0
 10
57.141113
 20
24.036569
 30
0.0
 10
56.245681
 20
23.141140
 30
0.0
 10
55.141114
 20
23.141140
 30
0.0
  0
SPLINE
  5
11d
100
AcDbEntity
  8
Layer_1
 62
7
100
AcDbSpline
 70
8
 71
3
 72
8
 73
4
 74
0
 40
0
 40
0
 40
0
 40
0
 40
1
 40
1
 40
1
 40
1
 10
55.141114
 20
23.141140
 30
0.0
 10
54.036544
 20
23.141140
 30
0.0
 10
53.141112
 20
24.036569
 30
0.0
 10
53.141112
 20
25.141139
 30
0.0
  0
SPLINE
  5
11e
100
AcDbEntity
  8
Layer_1
 62
7
100
AcDbSpline
 70
8
 71
3
 72
8
 73
4
 74
0
 40
0
 40
0
 40
0
 40
0
 40
1
 40
1
 40
1
 40
1
 10
53.141112
 20
25.141139
 30
0.0
 10
53.141112
 20
26.245708
 30
0.0
 10
54.036544
 20
27.141140
 30
0.0
 10
55.141114
 20
27.141140
 30
0.0
  0
SPLINE
  5
11f
100
AcDbEntity
  8
Layer_1
 62
7
100
AcDbSpline
 70
8
 71
3
 72
8
 73
4
 74
0
 40
0
 40
0
 40
0
 40
0
 40
1
 40
1
 40
1
 40
1
 10
55.141114
 20
27.141140
 30
0.0
 10
56.245681
 20
27.141140
 30
0.0
 10
57.141113
 20
26.245708
 30
0.0
 10
57.141113
 20
25.141139
 30
0.0
  0
LWPOLYLINE
  5
120
100
AcDbEntity
  8
Layer_1
 62
7
100
AcDbPolyline
 90
2
 70
0
 10
27.141116
 20
25.141139
 30
0.0
 10
27.141116
 20
25.141139
 30
0.0
  0
SPLINE
  5
121
100
AcDbEntity
  8
Layer_1
 62
7
100
AcDbSpline
 70
8
 71
3
 72
8
 73
4
 74
0
 40
0
 40
0
 40
0
 40
0
 40
1
 40
1
 40
1
 40
1
 10
57.141113
 20
35.141141
 30
0.0
 10
57.141113
 20
34.036569
 30
0.0
 10
56.245681
 20
33.141140
 30
0.0
 10
55.141114
 20
33.141140
 30
0.0
  0
SPLINE
  5
122
100
AcDbEntity
  8
Layer_1
 62
7
100
AcDbSpline
 70
8
 71
3
 72
8
 73
4
 74
0
 40
0
 40
0
 40
0
 40
0
 40
1
 40
1
 40
1
 40
1
 10
55.141114
 20
33.141140
 30
0.0
 10
54.036544
 20
33.141140
 30
0.0
 10
53.141112
 20
34.036569
 30
0.0
 10
53.141112
 20
35.141141
 30
0.0
  0
SPLINE
  5
123
100
AcDbEntity
  8
Layer_1
 62
7
100
AcDbSpline
 70
8
 71
3
 72
8
 73
4
 74
0
 40
0
 40
0
 40
0
 40
0
 40
1
 40
1
 40
1
 40
1
 10
53.141112
 20
35.141141
 30
0.0
 10
53.141112
 20
36.245711
 30
0.0
 10
54.036544
 20
37.141140
 30
0.0
 10
55.141114
 20
37.141140
 30
0.0
  0
SPLINE
  5
124
100
AcDbEntity
  8
Layer_1
 62
7
100
AcDbSpline
 70
8
 71
3
 72
8
 73
4
 74
0
 40
0
 40
0
 40
0
 40
0
 40
1
 40
1
 40
1
 40
1
 10
55.141114
 20
37.141140
 30
0.0
 10
56.245681
 20
37.141140
 30
0.0
 10
57.141113
 20
36.245711
 30
0.0
 10
57.141113
 20
35.141141
 30
0.0
  0
LWPOLYLINE
  5
125
100
AcDbEntity
  8
Layer_1
 62
7
100
AcDbPolyline
 90
2
 70
0
 10
27.141116
 20
35.141141
 30
0.0
 10
27.141116
 20
35.141141
 30
0.0
  0
SPLINE
  5
126
100
AcDbEntity
  8
Layer_1
 62
7
100
AcDbSpline
 70
8
 71
3
 72
8
 73
4
 74
0
 40
0
 40
0
 40
0
 40
0
 40
1
 40
1
 40
1
 40
1
 10
47.141113
 20
25.141139
 30
0.0
 10
47.141113
 20
24.036569
 30
0.0
 10
46.245684
 20
23.141140
 30
0.0
 10
45.141114
 20
23.141140
 30
0.0
  0
SPLINE
  5
127
100
AcDbEntity
  8
Layer_1
 62
7
100
AcDbSpline
 70
8
 71
3
 72
8
 73
4
 74
0
 40
0
 40
0
 40
0
 40
0
 40
1
 40
1
 40
1
 40
1
 10
45.141114
 20
23.141140
 30
0.0
 10
44.036544
 20
23.141140
 30
0.0
 10
43.141113
 20
24.036569
 30
0.0
 10
43.141113
 20
25.141139
 30
0.0
  0
SPLINE
  5
128
100
AcDbEntity
  8
Layer_1
 62
7
100
AcDbSpline
 70
8
 71
3
 72
8
 73
4
 74
0
 40
0
 40
0
 40
0
 40
0
 40
1
 40
1
 40
1
 40
1
 10
43.141113
 20
25.141139
 30
0.0
 10
43.141113
 20
26.245708
 30
0.0
 10
44.036544
 20
27.141140
 30
0.0
 10
45.141114
 20
27.141140
 30
0.0
  0
SPLINE
  5
129
100
AcDbEntity
  8
Layer_1
 62
7
100
AcDbSpline
 70
8
 71
3
 72
8
 73
4
 74
0
 40
0
 40
0
 40
0
 40
0
 40
1
 40
1
 40
1
 40
1
 10
45.141114
 20
27.141140
 30
0.0
 10
46.245684
 20
27.141140
 30
0.0
 10
47.141113
 20
26.245708
 30
0.0
 10
47.141113
 20
25.141139
 30
0.0
  0
LWPOLYLINE
  5
12a
100
AcDbEntity
  8
Layer_1
 62
7
100
AcDbPolyline
 90
2
 70
0
 10
57.141113
 20
25.141139
 30
0.0
 10
57.141113
 20
25.141139
 30
0.0
  0
SPLINE
  5
12b
100
AcDbEntity
  8
Layer_1
 62
7
100
AcDbSpline
 70
8
 71
3
 72
8
 73
4
 74
0
 40
0
 40
0
 40
0
 40
0
 40
1
 40
1
 40
1
 40
1
 10
47.141113
 20
35.141141
 30
0.0
 10
47.141113
 20
34.036569
 30
0.0
 10
46.245684
 20
33.141140
 30
0.0
 10
45.141114
 20
33.141140
 30
0.0
  0
SPLINE
  5
12c
100
AcDbEntity
  8
Layer_1
 62
7
100
AcDbSpline
 70
8
 71
3
 72
8
 73
4
 74
0
 40
0
 40
0
 40
0
 40
0
 40
1
 40
1
 40
1
 40
1
 10
45.141114
 20
33.141140
 30
0.0
 10
44.036544
 20
33.141140
 30
0.0
 10
43.141113
 20
34.036569
 30
0.0
 10
43.141113
 20
35.141141
 30
0.0
  0
SPLINE
  5
12d
100
AcDbEntity
  8
Layer_1
 62
7
100
AcDbSpline
 70
8
 71
3
 72
8
 73
4
 74
0
 40
0
 40
0
 40
0
 40
0
 40
1
 40
1
 40
1
 40
1
 10
43.141113
 20
35.141141
 30
0.0
 10
43.141113
 20
36.245711
 30
0.0
 10
44.036544
 20
37.141140
 30
0.0
 10
45.141114
 20
37.141140
 30
0.0
  0
SPLINE
  5
12e
100
AcDbEntity
  8
Layer_1
 62
7
100
AcDbSpline
 70
8
 71
3
 72
8
 73
4
 74
0
 40
0
 40
0
 40
0
 40
0
 40
1
 40
1
 40
1
 40
1
 10
45.141114
 20
37.141140
 30
0.0
 10
46.245684
 20
37.141140
 30
0.0
 10
47.141113
 20
36.245711
 30
0.0
 10
47.141113
 20
35.141141
 30
0.0
  0
LWPOLYLINE
  5
12f
100
AcDbEntity
  8
Layer_1
 62
7
100
AcDbPolyline
 90
2
 70
0
 10
57.141113
 20
35.141141
 30
0.0
 10
57.141113
 20
35.141141
 30
0.0
  0
SPLINE
  5
130
100
AcDbEntity
  8
Layer_1
 62
7
100
AcDbSpline
 70
8
 71
3
 72
8
 73
4
 74
0
 40
0
 40
0
 40
0
 40
0
 40
1
 40
1
 40
1
 40
1
 10
77.141112
 20
25.141139
 30
0.0
 10
77.141112
 20
24.036569
 30
0.0
 10
76.245683
 20
23.141140
 30
0.0
 10
75.141114
 20
23.141140
 30
0.0
  0
SPLINE
  5
131
100
AcDbEntity
  8
Layer_1
 62
7
100
AcDbSpline
 70
8
 71
3
 72
8
 73
4
 74
0
 40
0
 40
0
 40
0
 40
0
 40
1
 40
1
 40
1
 40
1
 10
75.141114
 20
23.141140
 30
0.0
 10
74.036544
 20
23.141140
 30
0.0
 10
73.141112
 20
24.036569
 30
0.0
 10
73.141112
 20
25.141139
 30
0.0
  0
SPLINE
  5
132
100
AcDbEntity
  8
Layer_1
 62
7
100
AcDbSpline
 70
8
 71
3
 72
8
 73
4
 74
0
 40
0
 40
0
 40
0
 40
0
 40
1
 40
1
 40
1
 40
1
 10
73.141112
 20
25.141139
 30
0.0
 10
73.141112
 20
26.245708
 30
0.0
 10
74.036544
 20
27.141140
 30
0.0
 10
75.141114
 20
27.141140
 30
0.0
  0
SPLINE
  5
133
100
AcDbEntity
  8
Layer_1
 62
7
100
AcDbSpline
 70
8
 71
3
 72
8
 73
4
 74
0
 40
0
 40
0
 40
0
 40
0
 40
1
 40
1
 40
1
 40
1
 10
75.141114
 20
27.141140
 30
0.0
 10
76.245683
 20
27.141140
 30
0.0
 10
77.141112
 20
26.245708
 30
0.0
 10
77.141112
 20
25.141139
 30
0.0
  0
LWPOLYLINE
  5
134
100
AcDbEntity
  8
Layer_1
 62
7
100
AcDbPolyline
 90
2
 70
0
 10
47.141113
 20
25.141139
 30
0.0
 10
47.141113
 20
25.141139
 30
0.0
  0
SPLINE
  5
135
100
AcDbEntity
  8
Layer_1
 62
7
100
AcDbSpline
 70
8
 71
3
 72
8
 73
4
 74
0
 40
0
 40
0
 40
0
 40
0
 40
1
 40
1
 40
1
 40
1
 10
77.141112
 20
35.141141
 30
0.0
 10
77.141112
 20
34.036569
 30
0.0
 10
76.245683
 20
33.141140
 30
0.0
 10
75.141114
 20
33.141140
 30
0.0
  0
SPLINE
  5
136
100
AcDbEntity
  8
Layer_1
 62
7
100
AcDbSpline
 70
8
 71
3
 72
8
 73
4
 74
0
 40
0
 40
0
 40
0
 40
0
 40
1
 40
1
 40
1
 40
1
 10
75.141114
 20
33.141140
 30
0.0
 10
74.036544
 20
33.141140
 30
0.0
 10
73.141112
 20
34.036569
 30
0.0
 10
73.141112
 20
35.141141
 30
0.0
  0
SPLINE
  5
137
100
AcDbEntity
  8
Layer_1
 62
7
100
AcDbSpline
 70
8
 71
3
 72
8
 73
4
 74
0
 40
0
 40
0
 40
0
 40
0
 40
1
 40
1
 40
1
 40
1
 10
73.141112
 20
35.141141
 30
0.0
 10
73.141112
 20
36.245711
 30
0.0
 10
74.036544
 20
37.141140
 30
0.0
 10
75.141114
 20
37.141140
 30
0.0
  0
SPLINE
  5
138
100
AcDbEntity
  8
Layer_1
 62
7
100
AcDbSpline
 70
8
 71
3
 72
8
 73
4
 74
0
 40
0
 40
0
 40
0
 40
0
 40
1
 40
1
 40
1
 40
1
 10
75.141114
 20
37.141140
 30
0.0
 10
76.245683
 20
37.141140
 30
0.0
 10
77.141112
 20
36.245711
 30
0.0
 10
77.141112
 20
35.141141
 30
0.0
  0
LWPOLYLINE
  5
139
100
AcDbEntity
  8
Layer_1
 62
7
100
AcDbPolyline
 90
2
 70
0
 10
47.141113
 20
35.141141
 30
0.0
 10
47.141113
 20
35.141141
 30
0.0
  0
SPLINE
  5
13a
100
AcDbEntity
  8
Layer_1
 62
7
100
AcDbSpline
 70
8
 71
3
 72
8
 73
4
 74
0
 40
0
 40
0
 40
0
 40
0
 40
1
 40
1
 40
1
 40
1
 10
67.141113
 20
25.141139
 30
0.0
 10
67.141113
 20
24.036569
 30
0.0
 10
66.245681
 20
23.141140
 30
0.0
 10
65.141114
 20
23.141140
 30
0.0
  0
SPLINE
  5
13b
100
AcDbEntity
  8
Layer_1
 62
7
100
AcDbSpline
 70
8
 71
3
 72
8
 73
4
 74
0
 40
0
 40
0
 40
0
 40
0
 40
1
 40
1
 40
1
 40
1
 10
65.141114
 20
23.141140
 30
0.0
 10
64.036544
 20
23.141140
 30
0.0
 10
63.141112
 20
24.036569
 30
0.0
 10
63.141112
 20
25.141139
 30
0.0
  0
SPLINE
  5
13c
100
AcDbEntity
  8
Layer_1
 62
7
100
AcDbSpline
 70
8
 71
3
 72
8
 73
4
 74
0
 40
0
 40
0
 40
0
 40
0
 40
1
 40
1
 40
1
 40
1
 10
63.141112
 20
25.141139
 30
0.0
 10
63.141112
 20
26.245708
 30
0.0
 10
64.036544
 20
27.141140
 30
0.0
 10
65.141114
 20
27.141140
 30
0.0
  0
SPLINE
  5
13d
100
AcDbEntity
  8
Layer_1
 62
7
100
AcDbSpline
 70
8
 71
3
 72
8
 73
4
 74
0
 40
0
 40
0
 40
0
 40
0
 40
1
 40
1
 40
1
 40
1
 10
65.141114
 20
27.141140
 30
0.0
 10
66.245681
 20
27.141140
 30
0.0
 10
67.141113
 20
26.245708
 30
0.0
 10
67.141113
 20
25.141139
 30
0.0
  0
LWPOLYLINE
  5
13e
100
AcDbEntity
  8
Layer_1
 62
7
100
AcDbPolyline
 90
2
 70
0
 10
77.141112
 20
25.141139
 30
0.0
 10
77.141112
 20
25.141139
 30
0.0
  0
SPLINE
  5
13f
100
AcDbEntity
  8
Layer_1
 62
7
100
AcDbSpline
 70
8
 71
3
 72
8
 73
4
 74
0
 40
0
 40
0
 40
0
 40
0
 40
1
 40
1
 40
1
 40
1
 10
67.141113
 20
35.141141
 30
0.0
 10
67.141113
 20
34.036569
 30
0.0
 10
66.245681
 20
33.141140
 30
0.0
 10
65.141114
 20
33.141140
 30
0.0
  0
SPLINE
  5
140
100
AcDbEntity
  8
Layer_1
 62
7
100
AcDbSpline
 70
8
 71
3
 72
8
 73
4
 74
0
 40
0
 40
0
 40
0
 40
0
 40
1
 40
1
 40
1
 40
1
 10
65.141114
 20
33.141140
 30
0.0
 10
64.036544
 20
33.141140
 30
0.0
 10
63.141112
 20
34.036569
 30
0.0
 10
63.141112
 20
35.141141
 30
0.0
  0
SPLINE
  5
141
100
AcDbEntity
  8
Layer_1
 62
7
100
AcDbSpline
 70
8
 71
3
 72
8
 73
4
 74
0
 40
0
 40
0
 40
0
 40
0
 40
1
 40
1
 40
1
 40
1
 10
63.141112
 20
35.141141
 30
0.0
 10
63.141112
 20
36.245711
 30
0.0
 10
64.036544
 20
37.141140
 30
0.0
 10
65.141114
 20
37.141140
 30
0.0
  0
SPLINE
  5
142
100
AcDbEntity
  8
Layer_1
 62
7
100
AcDbSpline
 70
8
 71
3
 72
8
 73
4
 74
0
 40
0
 40
0
 40
0
 40
0
 40
1
 40
1
 40
1
 40
1
 10
65.141114
 20
37.141140
 30
0.0
 10
66.245681
 20
37.141140
 30
0.0
 10
67.141113
 20
36.245711
 30
0.0
 10
67.141113
 20
35.141141
 30
0.0
  0
LWPOLYLINE
  5
143
100
AcDbEntity
  8
Layer_1
 62
7
100
AcDbPolyline
 90
2
 70
0
 10
77.141112
 20
35.141141
 30
0.0
 10
77.141112
 20
35.141141
 30
0.0
  0
SPLINE
  5
144
100
AcDbEntity
  8
Layer_1
 62
7
100
AcDbSpline
 70
8
 71
3
 72
8
 73
4
 74
0
 40
0
 40
0
 40
0
 40
0
 40
1
 40
1
 40
1
 40
1
 10
87.141115
 20
25.141139
 30
0.0
 10
87.141115
 20
24.036569
 30
0.0
 10
86.245683
 20
23.141140
 30
0.0
 10
85.141116
 20
23.141140
 30
0.0
  0
SPLINE
  5
145
100
AcDbEntity
  8
Layer_1
 62
7
100
AcDbSpline
 70
8
 71
3
 72
8
 73
4
 74
0
 40
0
 40
0
 40
0
 40
0
 40
1
 40
1
 40
1
 40
1
 10
85.141116
 20
23.141140
 30
0.0
 10
84.036546
 20
23.141140
 30
0.0
 10
83.141114
 20
24.036569
 30
0.0
 10
83.141114
 20
25.141139
 30
0.0
  0
SPLINE
  5
146
100
AcDbEntity
  8
Layer_1
 62
7
100
AcDbSpline
 70
8
 71
3
 72
8
 73
4
 74
0
 40
0
 40
0
 40
0
 40
0
 40
1
 40
1
 40
1
 40
1
 10
83.141114
 20
25.141139
 30
0.0
 10
83.141114
 20
26.245708
 30
0.0
 10
84.036546
 20
27.141140
 30
0.0
 10
85.141116
 20
27.141140
 30
0.0
  0
SPLINE
  5
147
100
AcDbEntity
  8
Layer_1
 62
7
100
AcDbSpline
 70
8
 71
3
 72
8
 73
4
 74
0
 40
0
 40
0
 40
0
 40
0
 40
1
 40
1
 40
1
 40
1
 10
85.141116
 20
27.141140
 30
0.0
 10
86.245683
 20
27.141140
 30
0.0
 10
87.141115
 20
26.245708
 30
0.0
 10
87.141115
 20
25.141139
 30
0.0
  0
LWPOLYLINE
  5
148
100
AcDbEntity
  8
Layer_1
 62
7
100
AcDbPolyline
 90
2
 70
0
 10
67.141113
 20
25.141139
 30
0.0
 10
67.141113
 20
25.141139
 30
0.0
  0
SPLINE
  5
149
100
AcDbEntity
  8
Layer_1
 62
7
100
AcDbSpline
 70
8
 71
3
 72
8
 73
4
 74
0
 40
0
 40
0
 40
0
 40
0
 40
1
 40
1
 40
1
 40
1
 10
87.141115
 20
35.141141
 30
0.0
 10
87.141115
 20
34.036569
 30
0.0
 10
86.245683
 20
33.141140
 30
0.0
 10
85.141116
 20
33.141140
 30
0.0
  0
SPLINE
  5
14a
100
AcDbEntity
  8
Layer_1
 62
7
100
AcDbSpline
 70
8
 71
3
 72
8
 73
4
 74
0
 40
0
 40
0
 40
0
 40
0
 40
1
 40
1
 40
1
 40
1
 10
85.141116
 20
33.141140
 30
0.0
 10
84.036546
 20
33.141140
 30
0.0
 10
83.141114
 20
34.036569
 30
0.0
 10
83.141114
 20
35.141141
 30
0.0
  0
SPLINE
  5
14b
100
AcDbEntity
  8
Layer_1
 62
7
100
AcDbSpline
 70
8
 71
3
 72
8
 73
4
 74
0
 40
0
 40
0
 40
0
 40
0
 40
1
 40
1
 40
1
 40
1
 10
83.141114
 20
35.141141
 30
0.0
 10
83.141114
 20
36.245711
 30
0.0
 10
84.036546
 20
37.141140
 30
0.0
 10
85.141116
 20
37.141140
 30
0.0
  0
SPLINE
  5
14c
100
AcDbEntity
  8
Layer_1
 62
7
100
AcDbSpline
 70
8
 71
3
 72
8
 73
4
 74
0
 40
0
 40
0
 40
0
 40
0
 40
1
 40
1
 40
1
 40
1
 10
85.141116
 20
37.141140
 30
0.0
 10
86.245683
 20
37.141140
 30
0.0
 10
87.141115
 20
36.245711
 30
0.0
 10
87.141115
 20
35.141141
 30
0.0
  0
LWPOLYLINE
  5
14d
100
AcDbEntity
  8
Layer_1
 62
7
100
AcDbPolyline
 90
2
 70
0
 10
67.141113
 20
35.141141
 30
0.0
 10
67.141113
 20
35.141141
 30
0.0
  0
SPLINE
  5
14e
100
AcDbEntity
  8
Layer_1
 62
7
100
AcDbSpline
 70
8
 71
3
 72
8
 73
4
 74
0
 40
0
 40
0
 40
0
 40
0
 40
1
 40
1
 40
1
 40
1
 10
37.141110
 20
5.141131
 30
0.0
 10
37.141110
 20
4.036569
 30
0.0
 10
36.245679
 20
3.141135
 30
0.0
 10
35.141112
 20
3.141135
 30
0.0
  0
SPLINE
  5
14f
100
AcDbEntity
  8
Layer_1
 62
7
100
AcDbSpline
 70
8
 71
3
 72
8
 73
4
 74
0
 40
0
 40
0
 40
0
 40
0
 40
1
 40
1
 40
1
 40
1
 10
35.141112
 20
3.141135
 30
0.0
 10
34.036542
 20
3.141135
 30
0.0
 10
33.141110
 20
4.036569
 30
0.0
 10
33.141110
 20
5.141131
 30
0.0
  0
SPLINE
  5
150
100
AcDbEntity
  8
Layer_1
 62
7
100
AcDbSpline
 70
8
 71
3
 72
8
 73
4
 74
0
 40
0
 40
0
 40
0
 40
0
 40
1
 40
1
 40
1
 40
1
 10
33.141110
 20
5.141131
 30
0.0
 10
33.141110
 20
6.245720
 30
0.0
 10
34.036542
 20
7.141127
 30
0.0
 10
35.141112
 20
7.141127
 30
0.0
  0
SPLINE
  5
151
100
AcDbEntity
  8
Layer_1
 62
7
100
AcDbSpline
 70
8
 71
3
 72
8
 73
4
 74
0
 40
0
 40
0
 40
0
 40
0
 40
1
 40
1
 40
1
 40
1
 10
35.141112
 20
7.141127
 30
0.0
 10
36.245679
 20
7.141127
 30
0.0
 10
37.141110
 20
6.245720
 30
0.0
 10
37.141110
 20
5.141131
 30
0.0
  0
LWPOLYLINE
  5
152
100
AcDbEntity
  8
Layer_1
 62
7
100
AcDbPolyline
 90
2
 70
0
 10
87.141115
 20
25.141139
 30
0.0
 10
87.141115
 20
25.141139
 30
0.0
  0
SPLINE
  5
153
100
AcDbEntity
  8
Layer_1
 62
7
100
AcDbSpline
 70
8
 71
3
 72
8
 73
4
 74
0
 40
0
 40
0
 40
0
 40
0
 40
1
 40
1
 40
1
 40
1
 10
37.141110
 20
15.141139
 30
0.0
 10
37.141110
 20
14.036578
 30
0.0
 10
36.245679
 20
13.141143
 30
0.0
 10
35.141112
 20
13.141143
 30
0.0
  0
SPLINE
  5
154
100
AcDbEntity
  8
Layer_1
 62
7
100
AcDbSpline
 70
8
 71
3
 72
8
 73
4
 74
0
 40
0
 40
0
 40
0
 40
0
 40
1
 40
1
 40
1
 40
1
 10
35.141112
 20
13.141143
 30
0.0
 10
34.036542
 20
13.141143
 30
0.0
 10
33.141110
 20
14.036578
 30
0.0
 10
33.141110
 20
15.141139
 30
0.0
  0
SPLINE
  5
155
100
AcDbEntity
  8
Layer_1
 62
7
100
AcDbSpline
 70
8
 71
3
 72
8
 73
4
 74
0
 40
0
 40
0
 40
0
 40
0
 40
1
 40
1
 40
1
 40
1
 10
33.141110
 20
15.141139
 30
0.0
 10
33.141110
 20
16.245709
 30
0.0
 10
34.036542
 20
17.141141
 30
0.0
 10
35.141112
 20
17.141141
 30
0.0
  0
SPLINE
  5
156
100
AcDbEntity
  8
Layer_1
 62
7
100
AcDbSpline
 70
8
 71
3
 72
8
 73
4
 74
0
 40
0
 40
0
 40
0
 40
0
 40
1
 40
1
 40
1
 40
1
 10
35.141112
 20
17.141141
 30
0.0
 10
36.245679
 20
17.141141
 30
0.0
 10
37.141110
 20
16.245709
 30
0.0
 10
37.141110
 20
15.141139
 30
0.0
  0
LWPOLYLINE
  5
157
100
AcDbEntity
  8
Layer_1
 62
7
100
AcDbPolyline
 90
2
 70
0
 10
87.141115
 20
35.141141
 30
0.0
 10
87.141115
 20
35.141141
 30
0.0
  0
SPLINE
  5
158
100
AcDbEntity
  8
Layer_1
 62
7
100
AcDbSpline
 70
8
 71
3
 72
8
 73
4
 74
0
 40
0
 40
0
 40
0
 40
0
 40
1
 40
1
 40
1
 40
1
 10
27.141115
 20
5.141131
 30
0.0
 10
27.141115
 20
4.036569
 30
0.0
 10
26.245684
 20
3.141135
 30
0.0
 10
25.141115
 20
3.141135
 30
0.0
  0
SPLINE
  5
159
100
AcDbEntity
  8
Layer_1
 62
7
100
AcDbSpline
 70
8
 71
3
 72
8
 73
4
 74
0
 40
0
 40
0
 40
0
 40
0
 40
1
 40
1
 40
1
 40
1
 10
25.141115
 20
3.141135
 30
0.0
 10
24.036545
 20
3.141135
 30
0.0
 10
23.141115
 20
4.036569
 30
0.0
 10
23.141115
 20
5.141131
 30
0.0
  0
SPLINE
  5
15a
100
AcDbEntity
  8
Layer_1
 62
7
100
AcDbSpline
 70
8
 71
3
 72
8
 73
4
 74
0
 40
0
 40
0
 40
0
 40
0
 40
1
 40
1
 40
1
 40
1
 10
23.141115
 20
5.141131
 30
0.0
 10
23.141115
 20
6.245720
 30
0.0
 10
24.036545
 20
7.141127
 30
0.0
 10
25.141115
 20
7.141127
 30
0.0
  0
SPLINE
  5
15b
100
AcDbEntity
  8
Layer_1
 62
7
100
AcDbSpline
 70
8
 71
3
 72
8
 73
4
 74
0
 40
0
 40
0
 40
0
 40
0
 40
1
 40
1
 40
1
 40
1
 10
25.141115
 20
7.141127
 30
0.0
 10
26.245684
 20
7.141127
 30
0.0
 10
27.141115
 20
6.245720
 30
0.0
 10
27.141115
 20
5.141131
 30
0.0
  0
LWPOLYLINE
  5
15c
100
AcDbEntity
  8
Layer_1
 62
7
100
AcDbPolyline
 90
2
 70
0
 10
37.141110
 20
5.141131
 30
0.0
 10
37.141110
 20
5.141131
 30
0.0
  0
SPLINE
  5
15d
100
AcDbEntity
  8
Layer_1
 62
7
100
AcDbSpline
 70
8
 71
3
 72
8
 73
4
 74
0
 40
0
 40
0
 40
0
 40
0
 40
1
 40
1
 40
1
 40
1
 10
27.141115
 20
15.141139
 30
0.0
 10
27.141115
 20
14.036578
 30
0.0
 10
26.245684
 20
13.141143
 30
0.0
 10
25.141115
 20
13.141143
 30
0.0
  0
SPLINE
  5
15e
100
AcDbEntity
  8
Layer_1
 62
7
100
AcDbSpline
 70
8
 71
3
 72
8
 73
4
 74
0
 40
0
 40
0
 40
0
 40
0
 40
1
 40
1
 40
1
 40
1
 10
25.141115
 20
13.141143
 30
0.0
 10
24.036545
 20
13.141143
 30
0.0
 10
23.141115
 20
14.036578
 30
0.0
 10
23.141115
 20
15.141139
 30
0.0
  0
SPLINE
  5
15f
100
AcDbEntity
  8
Layer_1
 62
7
100
AcDbSpline
 70
8
 71
3
 72
8
 73
4
 74
0
 40
0
 40
0
 40
0
 40
0
 40
1
 40
1
 40
1
 40
1
 10
23.141115
 20
15.141139
 30
0.0
 10
23.141115
 20
16.245709
 30
0.0
 10
24.036545
 20
17.141141
 30
0.0
 10
25.141115
 20
17.141141
 30
0.0
  0
SPLINE
  5
160
100
AcDbEntity
  8
Layer_1
 62
7
100
AcDbSpline
 70
8
 71
3
 72
8
 73
4
 74
0
 40
0
 40
0
 40
0
 40
0
 40
1
 40
1
 40
1
 40
1
 10
25.141115
 20
17.141141
 30
0.0
 10
26.245684
 20
17.141141
 30
0.0
 10
27.141115
 20
16.245709
 30
0.0
 10
27.141115
 20
15.141139
 30
0.0
  0
LWPOLYLINE
  5
161
100
AcDbEntity
  8
Layer_1
 62
7
100
AcDbPolyline
 90
2
 70
0
 10
37.141110
 20
15.141139
 30
0.0
 10
37.141110
 20
15.141139
 30
0.0
  0
SPLINE
  5
162
100
AcDbEntity
  8
Layer_1
 62
7
100
AcDbSpline
 70
8
 71
3
 72
8
 73
4
 74
0
 40
0
 40
0
 40
0
 40
0
 40
1
 40
1
 40
1
 40
1
 10
57.141110
 20
5.141131
 30
0.0
 10
57.141110
 20
4.036569
 30
0.0
 10
56.245678
 20
3.141135
 30
0.0
 10
55.141111
 20
3.141135
 30
0.0
  0
SPLINE
  5
163
100
AcDbEntity
  8
Layer_1
 62
7
100
AcDbSpline
 70
8
 71
3
 72
8
 73
4
 74
0
 40
0
 40
0
 40
0
 40
0
 40
1
 40
1
 40
1
 40
1
 10
55.141111
 20
3.141135
 30
0.0
 10
54.036541
 20
3.141135
 30
0.0
 10
53.141110
 20
4.036569
 30
0.0
 10
53.141110
 20
5.141131
 30
0.0
  0
SPLINE
  5
164
100
AcDbEntity
  8
Layer_1
 62
7
100
AcDbSpline
 70
8
 71
3
 72
8
 73
4
 74
0
 40
0
 40
0
 40
0
 40
0
 40
1
 40
1
 40
1
 40
1
 10
53.141110
 20
5.141131
 30
0.0
 10
53.141110
 20
6.245720
 30
0.0
 10
54.036541
 20
7.141127
 30
0.0
 10
55.141111
 20
7.141127
 30
0.0
  0
SPLINE
  5
165
100
AcDbEntity
  8
Layer_1
 62
7
100
AcDbSpline
 70
8
 71
3
 72
8
 73
4
 74
0
 40
0
 40
0
 40
0
 40
0
 40
1
 40
1
 40
1
 40
1
 10
55.141111
 20
7.141127
 30
0.0
 10
56.245678
 20
7.141127
 30
0.0
 10
57.141110
 20
6.245720
 30
0.0
 10
57.141110
 20
5.141131
 30
0.0
  0
LWPOLYLINE
  5
166
100
AcDbEntity
  8
Layer_1
 62
7
100
AcDbPolyline
 90
2
 70
0
 10
27.141115
 20
5.141131
 30
0.0
 10
27.141115
 20
5.141131
 30
0.0
  0
SPLINE
  5
167
100
AcDbEntity
  8
Layer_1
 62
7
100
AcDbSpline
 70
8
 71
3
 72
8
 73
4
 74
0
 40
0
 40
0
 40
0
 40
0
 40
1
 40
1
 40
1
 40
1
 10
57.141110
 20
15.141139
 30
0.0
 10
57.141110
 20
14.036578
 30
0.0
 10
56.245678
 20
13.141143
 30
0.0
 10
55.141111
 20
13.141143
 30
0.0
  0
SPLINE
  5
168
100
AcDbEntity
  8
Layer_1
 62
7
100
AcDbSpline
 70
8
 71
3
 72
8
 73
4
 74
0
 40
0
 40
0
 40
0
 40
0
 40
1
 40
1
 40
1
 40
1
 10
55.141111
 20
13.141143
 30
0.0
 10
54.036541
 20
13.141143
 30
0.0
 10
53.141110
 20
14.036578
 30
0.0
 10
53.141110
 20
15.141139
 30
0.0
  0
SPLINE
  5
169
100
AcDbEntity
  8
Layer_1
 62
7
100
AcDbSpline
 70
8
 71
3
 72
8
 73
4
 74
0
 40
0
 40
0
 40
0
 40
0
 40
1
 40
1
 40
1
 40
1
 10
53.141110
 20
15.141139
 30
0.0
 10
53.141110
 20
16.245709
 30
0.0
 10
54.036541
 20
17.141141
 30
0.0
 10
55.141111
 20
17.141141
 30
0.0
  0
SPLINE
  5
16a
100
AcDbEntity
  8
Layer_1
 62
7
100
AcDbSpline
 70
8
 71
3
 72
8
 73
4
 74
0
 40
0
 40
0
 40
0
 40
0
 40
1
 40
1
 40
1
 40
1
 10
55.141111
 20
17.141141
 30
0.0
 10
56.245678
 20
17.141141
 30
0.0
 10
57.141110
 20
16.245709
 30
0.0
 10
57.141110
 20
15.141139
 30
0.0
  0
LWPOLYLINE
  5
16b
100
AcDbEntity
  8
Layer_1
 62
7
100
AcDbPolyline
 90
2
 70
0
 10
27.141115
 20
15.141139
 30
0.0
 10
27.141115
 20
15.141139
 30
0.0
  0
SPLINE
  5
16c
100
AcDbEntity
  8
Layer_1
 62
7
100
AcDbSpline
 70
8
 71
3
 72
8
 73
4
 74
0
 40
0
 40
0
 40
0
 40
0
 40
1
 40
1
 40
1
 40
1
 10
47.141110
 20
5.141131
 30
0.0
 10
47.141110
 20
4.036569
 30
0.0
 10
46.245681
 20
3.141135
 30
0.0
 10
45.141109
 20
3.141135
 30
0.0
  0
SPLINE
  5
16d
100
AcDbEntity
  8
Layer_1
 62
7
100
AcDbSpline
 70
8
 71
3
 72
8
 73
4
 74
0
 40
0
 40
0
 40
0
 40
0
 40
1
 40
1
 40
1
 40
1
 10
45.141109
 20
3.141135
 30
0.0
 10
44.036542
 20
3.141135
 30
0.0
 10
43.141110
 20
4.036569
 30
0.0
 10
43.141110
 20
5.141131
 30
0.0
  0
SPLINE
  5
16e
100
AcDbEntity
  8
Layer_1
 62
7
100
AcDbSpline
 70
8
 71
3
 72
8
 73
4
 74
0
 40
0
 40
0
 40
0
 40
0
 40
1
 40
1
 40
1
 40
1
 10
43.141110
 20
5.141131
 30
0.0
 10
43.141110
 20
6.245720
 30
0.0
 10
44.036542
 20
7.141127
 30
0.0
 10
45.141109
 20
7.141127
 30
0.0
  0
SPLINE
  5
16f
100
AcDbEntity
  8
Layer_1
 62
7
100
AcDbSpline
 70
8
 71
3
 72
8
 73
4
 74
0
 40
0
 40
0
 40
0
 40
0
 40
1
 40
1
 40
1
 40
1
 10
45.141109
 20
7.141127
 30
0.0
 10
46.245681
 20
7.141127
 30
0.0
 10
47.141110
 20
6.245720
 30
0.0
 10
47.141110
 20
5.141131
 30
0.0
  0
LWPOLYLINE
  5
170
100
AcDbEntity
  8
Layer_1
 62
7
100
AcDbPolyline
 90
2
 70
0
 10
57.141110
 20
5.141131
 30
0.0
 10
57.141110
 20
5.141131
 30
0.0
  0
SPLINE
  5
171
100
AcDbEntity
  8
Layer_1
 62
7
100
AcDbSpline
 70
8
 71
3
 72
8
 73
4
 74
0
 40
0
 40
0
 40
0
 40
0
 40
1
 40
1
 40
1
 40
1
 10
47.141110
 20
15.141139
 30
0.0
 10
47.141110
 20
14.036578
 30
0.0
 10
46.245681
 20
13.141143
 30
0.0
 10
45.141109
 20
13.141143
 30
0.0
  0
SPLINE
  5
172
100
AcDbEntity
  8
Layer_1
 62
7
100
AcDbSpline
 70
8
 71
3
 72
8
 73
4
 74
0
 40
0
 40
0
 40
0
 40
0
 40
1
 40
1
 40
1
 40
1
 10
45.141109
 20
13.141143
 30
0.0
 10
44.036542
 20
13.141143
 30
0.0
 10
43.141110
 20
14.036578
 30
0.0
 10
43.141110
 20
15.141139
 30
0.0
  0
SPLINE
  5
173
100
AcDbEntity
  8
Layer_1
 62
7
100
AcDbSpline
 70
8
 71
3
 72
8
 73
4
 74
0
 40
0
 40
0
 40
0
 40
0
 40
1
 40
1
 40
1
 40
1
 10
43.141110
 20
15.141139
 30
0.0
 10
43.141110
 20
16.245709
 30
0.0
 10
44.036542
 20
17.141141
 30
0.0
 10
45.141109
 20
17.141141
 30
0.0
  0
SPLINE
  5
174
100
AcDbEntity
  8
Layer_1
 62
7
100
AcDbSpline
 70
8
 71
3
 72
8
 73
4
 74
0
 40
0
 40
0
 40
0
 40
0
 40
1
 40
1
 40
1
 40
1
 10
45.141109
 20
17.141141
 30
0.0
 10
46.245681
 20
17.141141
 30
0.0
 10
47.141110
 20
16.245709
 30
0.0
 10
47.141110
 20
15.141139
 30
0.0
  0
LWPOLYLINE
  5
175
100
AcDbEntity
  8
Layer_1
 62
7
100
AcDbPolyline
 90
2
 70
0
 10
57.141110
 20
15.141139
 30
0.0
 10
57.141110
 20
15.141139
 30
0.0
  0
SPLINE
  5
176
100
AcDbEntity
  8
Layer_1
 62
7
100
AcDbSpline
 70
8
 71
3
 72
8
 73
4
 74
0
 40
0
 40
0
 40
0
 40
0
 40
1
 40
1
 40
1
 40
1
 10
77.141110
 20
5.141131
 30
0.0
 10
77.141110
 20
4.036569
 30
0.0
 10
76.245678
 20
3.141135
 30
0.0
 10
75.141111
 20
3.141135
 30
0.0
  0
SPLINE
  5
177
100
AcDbEntity
  8
Layer_1
 62
7
100
AcDbSpline
 70
8
 71
3
 72
8
 73
4
 74
0
 40
0
 40
0
 40
0
 40
0
 40
1
 40
1
 40
1
 40
1
 10
75.141111
 20
3.141135
 30
0.0
 10
74.036541
 20
3.141135
 30
0.0
 10
73.141109
 20
4.036569
 30
0.0
 10
73.141109
 20
5.141131
 30
0.0
  0
SPLINE
  5
178
100
AcDbEntity
  8
Layer_1
 62
7
100
AcDbSpline
 70
8
 71
3
 72
8
 73
4
 74
0
 40
0
 40
0
 40
0
 40
0
 40
1
 40
1
 40
1
 40
1
 10
73.141109
 20
5.141131
 30
0.0
 10
73.141109
 20
6.245720
 30
0.0
 10
74.036541
 20
7.141127
 30
0.0
 10
75.141111
 20
7.141127
 30
0.0
  0
SPLINE
  5
179
100
AcDbEntity
  8
Layer_1
 62
7
100
AcDbSpline
 70
8
 71
3
 72
8
 73
4
 74
0
 40
0
 40
0
 40
0
 40
0
 40
1
 40
1
 40
1
 40
1
 10
75.141111
 20
7.141127
 30
0.0
 10
76.245678
 20
7.141127
 30
0.0
 10
77.141110
 20
6.245720
 30
0.0
 10
77.141110
 20
5.141131
 30
0.0
  0
LWPOLYLINE
  5
17a
100
AcDbEntity
  8
Layer_1
 62
7
100
AcDbPolyline
 90
2
 70
0
 10
47.141110
 20
5.141131
 30
0.0
 10
47.141110
 20
5.141131
 30
0.0
  0
SPLINE
  5
17b
100
AcDbEntity
  8
Layer_1
 62
7
100
AcDbSpline
 70
8
 71
3
 72
8
 73
4
 74
0
 40
0
 40
0
 40
0
 40
0
 40
1
 40
1
 40
1
 40
1
 10
77.141110
 20
15.141139
 30
0.0
 10
77.141110
 20
14.036578
 30
0.0
 10
76.245678
 20
13.141143
 30
0.0
 10
75.141111
 20
13.141143
 30
0.0
  0
SPLINE
  5
17c
100
AcDbEntity
  8
Layer_1
 62
7
100
AcDbSpline
 70
8
 71
3
 72
8
 73
4
 74
0
 40
0
 40
0
 40
0
 40
0
 40
1
 40
1
 40
1
 40
1
 10
75.141111
 20
13.141143
 30
0.0
 10
74.036541
 20
13.141143
 30
0.0
 10
73.141109
 20
14.036578
 30
0.0
 10
73.141109
 20
15.141139
 30
0.0
  0
SPLINE
  5
17d
100
AcDbEntity
  8
Layer_1
 62
7
100
AcDbSpline
 70
8
 71
3
 72
8
 73
4
 74
0
 40
0
 40
0
 40
0
 40
0
 40
1
 40
1
 40
1
 40
1
 10
73.141109
 20
15.141139
 30
0.0
 10
73.141109
 20
16.245709
 30
0.0
 10
74.036541
 20
17.141141
 30
0.0
 10
75.141111
 20
17.141141
 30
0.0
  0
SPLINE
  5
17e
100
AcDbEntity
  8
Layer_1
 62
7
100
AcDbSpline
 70
8
 71
3
 72
8
 73
4
 74
0
 40
0
 40
0
 40
0
 40
0
 40
1
 40
1
 40
1
 40
1
 10
75.141111
 20
17.141141
 30
0.0
 10
76.245678
 20
17.141141
 30
0.0
 10
77.141110
 20
16.245709
 30
0.0
 10
77.141110
 20
15.141139
 30
0.0
  0
LWPOLYLINE
  5
17f
100
AcDbEntity
  8
Layer_1
 62
7
100
AcDbPolyline
 90
2
 70
0
 10
47.141110
 20
15.141139
 30
0.0
 10
47.141110
 20
15.141139
 30
0.0
  0
SPLINE
  5
180
100
AcDbEntity
  8
Layer_1
 62
7
100
AcDbSpline
 70
8
 71
3
 72
8
 73
4
 74
0
 40
0
 40
0
 40
0
 40
0
 40
1
 40
1
 40
1
 40
1
 10
67.141110
 20
5.141131
 30
0.0
 10
67.141110
 20
4.036569
 30
0.0
 10
66.245678
 20
3.141135
 30
0.0
 10
65.141111
 20
3.141135
 30
0.0
  0
SPLINE
  5
181
100
AcDbEntity
  8
Layer_1
 62
7
100
AcDbSpline
 70
8
 71
3
 72
8
 73
4
 74
0
 40
0
 40
0
 40
0
 40
0
 40
1
 40
1
 40
1
 40
1
 10
65.141111
 20
3.141135
 30
0.0
 10
64.036541
 20
3.141135
 30
0.0
 10
63.141109
 20
4.036569
 30
0.0
 10
63.141109
 20
5.141131
 30
0.0
  0
SPLINE
  5
182
100
AcDbEntity
  8
Layer_1
 62
7
100
AcDbSpline
 70
8
 71
3
 72
8
 73
4
 74
0
 40
0
 40
0
 40
0
 40
0
 40
1
 40
1
 40
1
 40
1
 10
63.141109
 20
5.141131
 30
0.0
 10
63.141109
 20
6.245720
 30
0.0
 10
64.036541
 20
7.141127
 30
0.0
 10
65.141111
 20
7.141127
 30
0.0
  0
SPLINE
  5
183
100
AcDbEntity
  8
Layer_1
 62
7
100
AcDbSpline
 70
8
 71
3
 72
8
 73
4
 74
0
 40
0
 40
0
 40
0
 40
0
 40
1
 40
1
 40
1
 40
1
 10
65.141111
 20
7.141127
 30
0.0
 10
66.245678
 20
7.141127
 30
0.0
 10
67.141110
 20
6.245720
 30
0.0
 10
67.141110
 20
5.141131
 30
0.0
  0
LWPOLYLINE
  5
184
100
AcDbEntity
  8
Layer_1
 62
7
100
AcDbPolyline
 90
2
 70
0
 10
77.141110
 20
5.141131
 30
0.0
 10
77.141110
 20
5.141131
 30
0.0
  0
SPLINE
  5
185
100
AcDbEntity
  8
Layer_1
 62
7
100
AcDbSpline
 70
8
 71
3
 72
8
 73
4
 74
0
 40
0
 40
0
 40
0
 40
0
 40
1
 40
1
 40
1
 40
1
 10
67.141110
 20
15.141139
 30
0.0
 10
67.141110
 20
14.036578
 30
0.0
 10
66.245678
 20
13.141143
 30
0.0
 10
65.141111
 20
13.141143
 30
0.0
  0
SPLINE
  5
186
100
AcDbEntity
  8
Layer_1
 62
7
100
AcDbSpline
 70
8
 71
3
 72
8
 73
4
 74
0
 40
0
 40
0
 40
0
 40
0
 40
1
 40
1
 40
1
 40
1
 10
65.141111
 20
13.141143
 30
0.0
 10
64.036541
 20
13.141143
 30
0.0
 10
63.141109
 20
14.036578
 30
0.0
 10
63.141109
 20
15.141139
 30
0.0
  0
SPLINE
  5
187
100
AcDbEntity
  8
Layer_1
 62
7
100
AcDbSpline
 70
8
 71
3
 72
8
 73
4
 74
0
 40
0
 40
0
 40
0
 40
0
 40
1
 40
1
 40
1
 40
1
 10
63.141109
 20
15.141139
 30
0.0
 10
63.141109
 20
16.245709
 30
0.0
 10
64.036541
 20
17.141141
 30
0.0
 10
65.141111
 20
17.141141
 30
0.0
  0
SPLINE
  5
188
100
AcDbEntity
  8
Layer_1
 62
7
100
AcDbSpline
 70
8
 71
3
 72
8
 73
4
 74
0
 40
0
 40
0
 40
0
 40
0
 40
1
 40
1
 40
1
 40
1
 10
65.141111
 20
17.141141
 30
0.0
 10
66.245678
 20
17.141141
 30
0.0
 10
67.141110
 20
16.245709
 30
0.0
 10
67.141110
 20
15.141139
 30
0.0
  0
LWPOLYLINE
  5
189
100
AcDbEntity
  8
Layer_1
 62
7
100
AcDbPolyline
 90
2
 70
0
 10
77.141110
 20
15.141139
 30
0.0
 10
77.141110
 20
15.141139
 30
0.0
  0
SPLINE
  5
18a
100
AcDbEntity
  8
Layer_1
 62
7
100
AcDbSpline
 70
8
 71
3
 72
8
 73
4
 74
0
 40
0
 40
0
 40
0
 40
0
 40
1
 40
1
 40
1
 40
1
 10
87.141112
 20
5.141131
 30
0.0
 10
87.141112
 20
4.036569
 30
0.0
 10
86.245683
 20
3.141135
 30
0.0
 10
85.141113
 20
3.141135
 30
0.0
  0
SPLINE
  5
18b
100
AcDbEntity
  8
Layer_1
 62
7
100
AcDbSpline
 70
8
 71
3
 72
8
 73
4
 74
0
 40
0
 40
0
 40
0
 40
0
 40
1
 40
1
 40
1
 40
1
 10
85.141113
 20
3.141135
 30
0.0
 10
84.036543
 20
3.141135
 30
0.0
 10
83.141112
 20
4.036569
 30
0.0
 10
83.141112
 20
5.141131
 30
0.0
  0
SPLINE
  5
18c
100
AcDbEntity
  8
Layer_1
 62
7
100
AcDbSpline
 70
8
 71
3
 72
8
 73
4
 74
0
 40
0
 40
0
 40
0
 40
0
 40
1
 40
1
 40
1
 40
1
 10
83.141112
 20
5.141131
 30
0.0
 10
83.141112
 20
6.245720
 30
0.0
 10
84.036543
 20
7.141127
 30
0.0
 10
85.141113
 20
7.141127
 30
0.0
  0
SPLINE
  5
18d
100
AcDbEntity
  8
Layer_1
 62
7
100
AcDbSpline
 70
8
 71
3
 72
8
 73
4
 74
0
 40
0
 40
0
 40
0
 40
0
 40
1
 40
1
 40
1
 40
1
 10
85.141113
 20
7.141127
 30
0.0
 10
86.245683
 20
7.141127
 30
0.0
 10
87.141112
 20
6.245720
 30
0.0
 10
87.141112
 20
5.141131
 30
0.0
  0
LWPOLYLINE
  5
18e
100
AcDbEntity
  8
Layer_1
 62
7
100
AcDbPolyline
 90
2
 70
0
 10
67.141110
 20
5.141131
 30
0.0
 10
67.141110
 20
5.141131
 30
0.0
  0
SPLINE
  5
18f
100
AcDbEntity
  8
Layer_1
 62
7
100
AcDbSpline
 70
8
 71
3
 72
8
 73
4
 74
0
 40
0
 40
0
 40
0
 40
0
 40
1
 40
1
 40
1
 40
1
 10
87.141112
 20
15.141139
 30
0.0
 10
87.141112
 20
14.036578
 30
0.0
 10
86.245683
 20
13.141143
 30
0.0
 10
85.141113
 20
13.141143
 30
0.0
  0
SPLINE
  5
190
100
AcDbEntity
  8
Layer_1
 62
7
100
AcDbSpline
 70
8
 71
3
 72
8
 73
4
 74
0
 40
0
 40
0
 40
0
 40
0
 40
1
 40
1
 40
1
 40
1
 10
85.141113
 20
13.141143
 30
0.0
 10
84.036543
 20
13.141143
 30
0.0
 10
83.141112
 20
14.036578
 30
0.0
 10
83.141112
 20
15.141139
 30
0.0
  0
SPLINE
  5
191
100
AcDbEntity
  8
Layer_1
 62
7
100
AcDbSpline
 70
8
 71
3
 72
8
 73
4
 74
0
 40
0
 40
0
 40
0
 40
0
 40
1
 40
1
 40
1
 40
1
 10
83.141112
 20
15.141139
 30
0.0
 10
83.141112
 20
16.245709
 30
0.0
 10
84.036543
 20
17.141141
 30
0.0
 10
85.141113
 20
17.141141
 30
0.0
  0
SPLINE
  5
192
100
AcDbEntity
  8
Layer_1
 62
7
100
AcDbSpline
 70
8
 71
3
 72
8
 73
4
 74
0
 40
0
 40
0
 40
0
 40
0
 40
1
 40
1
 40
1
 40
1
 10
85.141113
 20
17.141141
 30
0.0
 10
86.245683
 20
17.141141
 30
0.0
 10
87.141112
 20
16.245709
 30
0.0
 10
87.141112
 20
15.141139
 30
0.0
  0
LWPOLYLINE
  5
193
100
AcDbEntity
  8
Layer_1
 62
7
100
AcDbPolyline
 90
2
 70
0
 10
67.141110
 20
15.141139
 30
0.0
 10
67.141110
 20
15.141139
 30
0.0
  0
LWPOLYLINE
  5
194
100
AcDbEntity
  8
Layer_1
 62
7
100
AcDbPolyline
 90
2
 70
0
 10
87.141112
 20
5.141131
 30
0.0
 10
87.141112
 20
5.141131
 30
0.0
  0
LWPOLYLINE
  5
195
100
AcDbEntity
  8
Layer_1
 62
7
100
AcDbPolyline
 90
2
 70
0
 10
87.141112
 20
15.141139
 30
0.0
 10
87.141112
 20
15.141139
 30
0.0
  0
ENDSEC
  0
SECTION
  2
OBJECTS
  0
DICTIONARY
  5
C
330
0
100
AcDbDictionary
  3
ACAD_GROUP
350
D
  3
ACAD_MLINESTYLE
350
17
  0
DICTIONARY
  5
D
330
C
100
AcDbDictionary
  0
DICTIONARY
  5
1A
330
C
100
AcDbDictionary
  0
DICTIONARY
  5
17
330
C
100
AcDbDictionary
  3
STANDARD
350
18
  0
DICTIONARY
  5
19
330
C
100
AcDbDictionary
  0
ENDSEC
  0
EOF
