<?xml version="1.0" encoding="UTF-8" standalone="no"?>
<!-- Created with Inkscape (http://www.inkscape.org/) -->

<svg
   xmlns:dc="http://purl.org/dc/elements/1.1/"
   xmlns:cc="http://creativecommons.org/ns#"
   xmlns:rdf="http://www.w3.org/1999/02/22-rdf-syntax-ns#"
   xmlns:svg="http://www.w3.org/2000/svg"
   xmlns="http://www.w3.org/2000/svg"
   xmlns:sodipodi="http://sodipodi.sourceforge.net/DTD/sodipodi-0.dtd"
   xmlns:inkscape="http://www.inkscape.org/namespaces/inkscape"
   width="210mm"
   height="297mm"
   viewBox="0 0 744.09448819 1052.3622047"
   id="svg2"
   version="1.1"
   inkscape:version="0.91 r13725"
   sodipodi:docname="contacts_plate.svg">
  <defs
     id="defs4" />
  <sodipodi:namedview
     id="base"
     pagecolor="#ffffff"
     bordercolor="#666666"
     borderopacity="1.0"
     inkscape:pageopacity="0.0"
     inkscape:pageshadow="2"
     inkscape:zoom="3.1678384"
     inkscape:cx="272.25466"
     inkscape:cy="438.11769"
     inkscape:document-units="mm"
     inkscape:current-layer="layer1"
     showgrid="true"
     inkscape:window-width="1366"
     inkscape:window-height="705"
     inkscape:window-x="-8"
     inkscape:window-y="-8"
     inkscape:window-maximized="1"
     inkscape:snap-bbox="true"
     inkscape:bbox-nodes="true"
     inkscape:object-nodes="true"
     showguides="true"
     inkscape:guide-bbox="true"
     inkscape:snap-smooth-nodes="false"
     inkscape:snap-midpoints="false"
     inkscape:snap-global="true">
    <inkscape:grid
       type="xygrid"
       id="grid3336"
       units="mm"
       spacingx="1.7716536"
       spacingy="1.7716536"
       dotted="true"
       empspacing="10" />
    <sodipodi:guide
       position="177.16536,7.0866144"
       orientation="1,0"
       id="guide5096" />
    <inkscape:grid
       type="xygrid"
       id="grid5100"
       units="mm"
       spacingx="3.5433071"
       spacingy="3.5433072" />
    <sodipodi:guide
       position="263.97639,53.149608"
       orientation="0,1"
       id="guide4174" />
    <sodipodi:guide
       position="263.97639,49.606301"
       orientation="1,0"
       id="guide4176" />
    <sodipodi:guide
       position="271.063,58.464569"
       orientation="1,0"
       id="guide4178" />
    <sodipodi:guide
       position="280.7687,53.669086"
       orientation="0,1"
       id="guide4180" />
    <sodipodi:guide
       position="99.212599,88.58268"
       orientation="0,1"
       id="guide4182" />
    <sodipodi:guide
       position="17.716536,92.125987"
       orientation="1,0"
       id="guide4184" />
    <sodipodi:guide
       position="92.125985,124.01575"
       orientation="0,1"
       id="guide4186" />
    <sodipodi:guide
       position="102.75591,127.55906"
       orientation="0,1"
       id="guide4188" />
    <sodipodi:guide
       position="38.976378,162.99213"
       orientation="0,1"
       id="guide4190" />
    <sodipodi:guide
       position="42.519685,173.62205"
       orientation="0,1"
       id="guide4192" />
    <sodipodi:guide
       position="46.062992,187.79528"
       orientation="0,1"
       id="guide4224" />
    <sodipodi:guide
       position="74.409449,223.22835"
       orientation="0,1"
       id="guide4256" />
    <sodipodi:guide
       position="70.866142,226.77166"
       orientation="0,1"
       id="guide4258" />
    <sodipodi:guide
       position="63.779528,262.20473"
       orientation="0,1"
       id="guide4260" />
    <sodipodi:guide
       position="63.779528,272.83465"
       orientation="0,1"
       id="guide4262" />
    <sodipodi:guide
       position="60.236221,283.46458"
       orientation="0,1"
       id="guide4183" />
    <sodipodi:guide
       position="38.976378,375.59056"
       orientation="0,1"
       id="guide4320" />
    <sodipodi:guide
       position="95.669292,405.70867"
       orientation="0,1"
       id="guide4365" />
    <sodipodi:guide
       position="92.125985,411.02364"
       orientation="0,1"
       id="guide4367" />
  </sodipodi:namedview>
  <metadata
     id="metadata7">
    <rdf:RDF>
      <cc:Work
         rdf:about="">
        <dc:format>image/svg+xml</dc:format>
        <dc:type
           rdf:resource="http://purl.org/dc/dcmitype/StillImage" />
        <dc:title />
      </cc:Work>
    </rdf:RDF>
  </metadata>
  <g
     inkscape:label="Layer 1"
     inkscape:groupmode="layer"
     id="layer1">
    <circle
       style="fill:#aa8800;fill-opacity:1;stroke:none;stroke-width:1.77165353;stroke-linejoin:round;stroke-miterlimit:4;stroke-dasharray:none;stroke-dashoffset:8;stroke-opacity:1"
       id="path5005"
       cx="200.19685"
       cy="1100.1978"
       r="12.401569" />
    <path
       style="fill:#aad400;fill-opacity:1;stroke:none;stroke-width:1.77165353;stroke-linejoin:round;stroke-miterlimit:4;stroke-dasharray:none;stroke-dashoffset:8;stroke-opacity:1"
       d="m 166.53525,878.74016 0,85.03892 67.32227,0 0.001,-74.409 -14.17188,0 -0.001,49.6063 -38.97656,0 0,-60.23622 z"
       id="rect3338"
       inkscape:connector-curvature="0"
       sodipodi:nodetypes="ccccccccc" />
    <path
       inkscape:connector-curvature="0"
       style="fill:#aad400;fill-opacity:1;stroke:none;stroke-width:1.77165353;stroke-linejoin:round;stroke-miterlimit:4;stroke-dasharray:none;stroke-dashoffset:8;stroke-opacity:1"
       d="m 421.65335,889.37008 1e-5,74.409 46.06299,0 0,-24.8031 -31.88917,4e-4 0,-49.6063 z"
       id="rect3338-8"
       sodipodi:nodetypes="ccccccc" />
    <path
       style="fill:#2b2200;fill-opacity:1;stroke:none;stroke-width:1.77165353;stroke-linejoin:round;stroke-miterlimit:4;stroke-dasharray:none;stroke-dashoffset:8;stroke-opacity:1"
       d="M 162.99219 1020.4727 L 162.99219 1031.1016 L 155.90625 1031.1016 L 155.90625 1041.7324 L 162.99219 1041.7324 L 162.99219 1052.3613 L 191.33789 1052.3613 L 191.33789 1041.7324 L 198.42578 1041.7324 L 198.42578 1031.1016 L 191.33789 1031.1016 L 191.33789 1020.4727 L 162.99219 1020.4727 z M 177.16602 1032.873 A 5.3149605 5.3149605 0 0 1 182.48047 1038.1895 A 5.3149605 5.3149605 0 0 1 177.16602 1043.5039 A 5.3149605 5.3149605 0 0 1 171.84961 1038.1895 A 5.3149605 5.3149605 0 0 1 177.16602 1032.873 z "
       id="rect4964" />
    <path
       style="fill:#2b2200;fill-opacity:1;stroke:none;stroke-width:1.77165353;stroke-linejoin:round;stroke-miterlimit:4;stroke-dasharray:none;stroke-dashoffset:8;stroke-opacity:1"
       d="M 155.90625 974.41016 L 155.90625 985.03906 L 162.99219 985.03906 L 162.99219 995.66992 L 155.90625 995.66992 L 155.90625 1006.2988 L 162.99219 1006.2988 L 191.33789 1006.2988 L 198.42578 1006.2988 L 198.42578 995.66992 L 191.33789 995.66992 L 191.33789 985.03906 L 198.42578 985.03906 L 198.42578 974.41016 L 191.33789 974.41016 L 162.99219 974.41016 L 155.90625 974.41016 z M 177.16602 986.81055 A 5.3149605 5.3149605 0 0 1 182.48047 992.125 A 5.3149605 5.3149605 0 0 1 177.16602 997.44141 A 5.3149605 5.3149605 0 0 1 171.84961 992.125 A 5.3149605 5.3149605 0 0 1 177.16602 986.81055 z "
       id="rect4962-4" />
    <circle
       style="fill:#2b1100;fill-opacity:1;stroke:none;stroke-width:1.77165353;stroke-linejoin:round;stroke-miterlimit:4;stroke-dasharray:none;stroke-dashoffset:8;stroke-opacity:1"
       id="path5003"
       cx="200.19685"
       cy="1100.1978"
       r="5.3149605" />
    <circle
       style="fill:#ffcc00;fill-opacity:1;stroke:none;stroke-width:1.77165353;stroke-linejoin:round;stroke-miterlimit:4;stroke-dasharray:none;stroke-dashoffset:8;stroke-opacity:1"
       id="path5005-9"
       cx="233.85826"
       cy="1098.426"
       r="14.17323" />
    <circle
       style="fill:#803300;fill-opacity:1;stroke:none;stroke-width:1.77165353;stroke-linejoin:round;stroke-miterlimit:4;stroke-dasharray:none;stroke-dashoffset:8;stroke-opacity:1"
       id="path5003-0"
       cx="233.85826"
       cy="1098.4261"
       r="7.0866094" />
    <path
       style="fill:#aa8800;fill-opacity:1;stroke:none;stroke-width:1.77165353;stroke-linejoin:round;stroke-miterlimit:4;stroke-dasharray:none;stroke-dashoffset:8;stroke-opacity:1"
       d="m 200.19608,1116.1427 a 12.401569,12.401569 0 0 0 -12.40234,12.4023 12.401569,12.401569 0 0 0 12.40234,12.4004 12.401569,12.401569 0 0 0 12.40234,-12.4004 12.401569,12.401569 0 0 0 -12.40234,-12.4023 z m 0,7.0859 a 5.3149605,5.3149605 0 0 1 5.31445,5.3164 5.3149605,5.3149605 0 0 1 -5.31445,5.3145 5.3149605,5.3149605 0 0 1 -5.31445,-5.3145 5.3149605,5.3149605 0 0 1 5.31445,-5.3164 z"
       id="path5005-3"
       inkscape:connector-curvature="0" />
    <path
       style="fill:#ffcc00;fill-opacity:1;stroke:none;stroke-width:1.77165353;stroke-linejoin:round;stroke-miterlimit:4;stroke-dasharray:none;stroke-dashoffset:8;stroke-opacity:1"
       d="m 233.85963,1116.1434 a 14.17323,14.17323 0 0 0 -14.17383,14.1719 14.17323,14.17323 0 0 0 14.17383,14.1738 14.17323,14.17323 0 0 0 14.17187,-14.1738 14.17323,14.17323 0 0 0 -14.17187,-14.1719 z m 0,7.0859 a 7.0866094,7.0866094 0 0 1 7.08594,7.086 7.0866094,7.0866094 0 0 1 -7.08594,7.0879 7.0866094,7.0866094 0 0 1 -7.08789,-7.0879 7.0866094,7.0866094 0 0 1 7.08789,-7.086 z"
       id="path5005-9-0"
       inkscape:connector-curvature="0" />
    <path
       id="rect4964-8"
       style="fill:#2b2200;fill-opacity:1;stroke:none;stroke-width:1.77165353;stroke-linejoin:round;stroke-miterlimit:4;stroke-dasharray:none;stroke-dashoffset:8;stroke-opacity:1"
       d="m 134.6456,1144.4886 42.51968,0 0,10.6299 -42.51968,0 z m 7.08662,-10.63 28.34646,0 0,31.8898 -28.34646,0 z"
       inkscape:connector-curvature="0" />
    <path
       inkscape:connector-curvature="0"
       style="fill:#2b2200;fill-opacity:1;stroke:none;stroke-width:1.77165353;stroke-linejoin:round;stroke-miterlimit:4;stroke-dasharray:none;stroke-dashoffset:8;stroke-opacity:1"
       d="m 134.64634,1087.7963 0,10.6289 7.08594,0 0,10.6309 -7.08594,0 0,10.6289 7.08594,0 28.3457,0 7.08789,0 0,-10.6289 -7.08789,0 0,-10.6309 7.08789,0 0,-10.6289 -7.08789,0 -28.3457,0 -7.08594,0 z"
       id="rect4962-4-9" />
    <path
       style="fill:#aa8800;fill-opacity:1;stroke:none;stroke-width:1.77165353;stroke-linejoin:round;stroke-miterlimit:4;stroke-dasharray:none;stroke-dashoffset:8;stroke-opacity:1"
       d="m 226.77165,974.41013 c -6.8498,-4.3e-4 -12.40277,5.55254 -12.40234,12.40234 0.005,5.48049 3.60719,10.30771 8.85937,11.87301 l 0,0.5274 -5.31445,0 0,7.08592 5.31445,0 0,1.7715 -12.40055,0 3.5428,5.3155 -3.5428,5.3154 28.34595,6e-4 3.54355,-5.3154 -3.54355,-5.3155 -8.85751,-6e-4 0,-1.7715 5.31446,0 0,-7.08592 -5.31446,0 0,-0.5215 c 5.25349,-1.5667 8.85502,-6.39679 8.85743,-11.87891 4.3e-4,-6.8498 -5.55255,-12.40277 -12.40235,-12.40234 z m 0,7.08593 c 2.93574,2.8e-4 5.31526,2.38067 5.31446,5.31641 -0.001,2.91375 -2.34812,5.28331 -5.26172,5.3125 l -0.0898,0 c -2.91971,-0.0207 -5.27606,-2.39272 -5.27734,-5.3125 -8e-4,-2.93574 2.37871,-5.31613 5.31445,-5.31641 z"
       id="path5005-3-2"
       inkscape:connector-curvature="0"
       sodipodi:nodetypes="ccccccccccccccccccccccccccccc" />
    <path
       inkscape:connector-curvature="0"
       style="fill:#aad400;fill-opacity:1;stroke:none;stroke-width:1.77165353;stroke-linejoin:round;stroke-miterlimit:4;stroke-dasharray:none;stroke-dashoffset:8;stroke-opacity:1"
       d="m 240.9447,878.74016 -1.9e-4,85.03892 3.54331,0 3.8e-4,7.08706 7.08661,0 -3.8e-4,-7.08706 46.06299,0 3.7e-4,7.08706 7.08662,0 -3.7e-4,-7.08706 3.54273,0 10e-4,-74.409 -14.17187,0 -10e-4,49.6063 -38.97656,0 1.8e-4,-60.23622 z"
       id="rect3338-3"
       sodipodi:nodetypes="ccccccccccccccccc" />
    <path
       inkscape:connector-curvature="0"
       style="fill:#aad400;fill-opacity:1;stroke:none;stroke-width:1.77165353;stroke-linejoin:round;stroke-miterlimit:4;stroke-dasharray:none;stroke-dashoffset:8;stroke-opacity:1"
       d="m 474.80295,889.37008 2e-5,74.409 3.5439,4.5e-4 -4.1e-4,7.08661 7.08662,0 4.1e-4,-7.08661 c 11.81083,-4.9e-4 23.62166,-4.5e-4 35.43248,-4.5e-4 l 0,-24.8031 -31.88916,4e-4 -10e-6,-49.6063 z"
       id="rect3338-8-9"
       sodipodi:nodetypes="ccccccccccc" />
    <path
       style="fill:#aa8800;fill-opacity:1;stroke:none;stroke-width:1.77165353;stroke-linejoin:round;stroke-miterlimit:4;stroke-dasharray:none;stroke-dashoffset:8;stroke-opacity:1"
       d="m 276.37762,974.4099 c -6.8498,-4.3e-4 -12.40277,5.55254 -12.40234,12.4023 l 5.9e-4,12.4004 -5.31445,0 0,7.0859 5.31445,0 0,1.7715 -12.40055,0 3.5428,5.3155 -3.5428,5.3154 28.34595,6e-4 3.54355,-5.3154 -3.54355,-5.3155 -8.85751,-6e-4 0,-1.7715 5.31446,0 0,-7.0859 -5.31446,0 -7.6e-4,-0.51948 8.85954,-0.002 c 5.25349,-1.5666 8.85502,-6.3967 8.85743,-11.8789 4.3e-4,-6.84976 -5.55255,-12.40273 -12.40235,-12.4023 z m 0,7.08593 c 2.93574,2.8e-4 5.31526,2.38067 5.31446,5.31637 -10e-4,2.9138 -2.34812,5.2833 -5.26172,5.3125 l -0.0898,0 c -2.91971,-0.021 -5.27606,-2.3927 -5.27734,-5.3125 -8e-4,-2.9357 2.37871,-5.31609 5.31445,-5.31637 z"
       id="path5005-3-2-9"
       inkscape:connector-curvature="0"
       sodipodi:nodetypes="ccccccccccccccccccccccccccccc"
       transform="translate(2.2850208e-6,-2.1602968e-6)" />
    <path
       inkscape:connector-curvature="0"
       style="fill:#aad400;fill-opacity:1;stroke:none;stroke-width:1.77165353;stroke-linejoin:round;stroke-miterlimit:4;stroke-dasharray:none;stroke-dashoffset:8;stroke-opacity:1"
       d="m 315.35413,878.74016 10e-6,85.03892 46.063,0 0,-24.8031 -31.88917,4e-4 -10e-6,-60.23622 z"
       id="rect3338-8-0"
       sodipodi:nodetypes="ccccccc" />
    <path
       inkscape:connector-curvature="0"
       style="fill:#aad400;fill-opacity:1;stroke:none;stroke-width:1.77165353;stroke-linejoin:round;stroke-miterlimit:4;stroke-dasharray:none;stroke-dashoffset:8;stroke-opacity:1"
       d="m 368.50373,878.74016 10e-6,85.03892 3.5439,4.5e-4 -3.9e-4,7.08661 7.08662,0 3.9e-4,-7.08661 c 11.81083,-4.9e-4 23.62166,-4.5e-4 35.43248,-4.5e-4 l 0,-24.8031 -31.88916,4e-4 0,-60.23622 z"
       id="rect3338-8-9-7"
       sodipodi:nodetypes="ccccccccccc" />
    <path
       style="fill:#aad400;fill-opacity:1;stroke:none;stroke-width:1.77165353;stroke-linejoin:round;stroke-miterlimit:4;stroke-dasharray:none;stroke-dashoffset:8;stroke-opacity:1"
       d="m 168.3075,779.52756 0,10.62992 -1.77165,0 0,35.43307 1.77165,0 0,3.54331 -1.77165,0 -7.9e-4,35.43262 67.32227,0 0.001,-35.43262 -1.7717,0 0,-3.54331 1.77171,0 -1.6e-4,-35.43307 -14.17187,0 -0.001,35.43307 1.77165,0 0,3.54331 -1.77165,0 5e-5,10.62992 -38.97657,0 9e-5,-10.62992 -1.77165,0 0,-3.54331 1.77165,0 0,-35.43307 -1.77165,0 0,-10.62992 z"
       id="rect3338-1"
       inkscape:connector-curvature="0"
       sodipodi:nodetypes="ccccccccccccccccccccccccccccc" />
    <path
       inkscape:connector-curvature="0"
       style="fill:#aad400;fill-opacity:1;stroke:none;stroke-width:1.77165353;stroke-linejoin:round;stroke-miterlimit:4;stroke-dasharray:none;stroke-dashoffset:8;stroke-opacity:1"
       d="m 421.65317,790.15748 7.9e-4,35.43307 1.77166,0 0,3.54331 -1.77166,0 -7.8e-4,35.43262 14.17401,4.5e-4 0,-1.77166 10.62992,0 0,1.77166 21.25906,-4.5e-4 0,-24.8031 -21.25906,4e-4 0,1.77165 -10.62993,0 0,-12.40157 -1.77164,0 0,-3.54331 1.77165,0 -1.9e-4,-35.43307 z"
       id="rect3338-8-1"
       sodipodi:nodetypes="ccccccccccccccccccccc" />
    <path
       inkscape:connector-curvature="0"
       style="fill:#aad400;fill-opacity:1;stroke:none;stroke-width:1.77165353;stroke-linejoin:round;stroke-miterlimit:4;stroke-dasharray:none;stroke-dashoffset:8;stroke-opacity:1"
       d="m 242.71695,779.52756 0,10.62992 -1.77165,0 0,35.43307 1.77165,0 0,3.54331 -1.77165,0 -9.7e-4,35.43262 3.54331,0 5.5e-4,7.08706 7.08661,0 -5.5e-4,-7.08706 46.06298,0 5.7e-4,7.08706 7.08662,0 -5.7e-4,-7.08706 3.54273,0 0.002,-35.43262 -1.77165,0 0,-3.54331 1.77165,0 -5.5e-4,-35.43307 -14.17187,0 -8.1e-4,35.43307 1.77166,0 0,3.54331 -1.77166,0 -1.9e-4,10.62992 -38.97655,0 3.6e-4,-10.62992 -1.77165,0 0,-3.54331 1.77165,0 -4.4e-4,-35.43307 -1.77166,0 0,-10.62992 z"
       id="rect3338-3-9"
       sodipodi:nodetypes="ccccccccccccccccccccccccccccccccccccc" />
    <path
       inkscape:connector-curvature="0"
       style="fill:#aad400;fill-opacity:1;stroke:none;stroke-width:1.77165353;stroke-linejoin:round;stroke-miterlimit:4;stroke-dasharray:none;stroke-dashoffset:8;stroke-opacity:1"
       d="m 474.80277,790.15748 7.9e-4,35.43307 1.77166,0 0,3.54331 -1.77165,0 -7.8e-4,35.43262 3.5439,4.5e-4 -2.3e-4,7.08661 7.08662,0 2.3e-4,-7.08661 3.54349,0 -1e-5,-1.77166 10.62992,0 0,1.77166 21.25908,-4.5e-4 0,-24.8031 -21.25908,4e-4 0,1.77165 -10.62992,0 1e-5,-12.40157 -1.77166,0 0,-3.54331 1.77166,0 -1.8e-4,-35.43307 z"
       id="rect3338-8-9-4"
       sodipodi:nodetypes="ccccccccccccccccccccccccc" />
    <path
       inkscape:connector-curvature="0"
       style="fill:#aad400;fill-opacity:1;stroke:none;stroke-width:1.77165353;stroke-linejoin:round;stroke-miterlimit:4;stroke-dasharray:none;stroke-dashoffset:8;stroke-opacity:1"
       d="m 317.1264,779.52756 0,10.62992 -1.77166,0 1e-5,35.43307 1.77165,0 0,3.54331 -1.77166,0 -7.9e-4,35.43262 14.17403,4.5e-4 -1e-5,-1.77166 10.62992,0 10e-6,1.77166 21.25906,-4.5e-4 0,-24.8031 -21.25906,4e-4 0,1.77165 -10.62993,0 1e-5,-12.40157 -1.77166,0 0,-3.54331 1.77165,0 0,-35.43307 -1.77165,0 0,-10.62992 z"
       id="rect3338-8-0-3"
       sodipodi:nodetypes="ccccccccccccccccccccccccc" />
    <path
       inkscape:connector-curvature="0"
       style="fill:#aad400;fill-opacity:1;stroke:none;stroke-width:1.77165353;stroke-linejoin:round;stroke-miterlimit:4;stroke-dasharray:none;stroke-dashoffset:8;stroke-opacity:1"
       d="m 370.27601,779.52756 0,10.62992 -1.77166,0 0,35.43307 1.77166,0 0,3.54331 -1.77166,0 -7.9e-4,35.43262 3.5439,4.5e-4 -2.1e-4,7.08661 7.08662,0 2.1e-4,-7.08661 3.5435,0 0,-1.77166 7.08662,0 -1e-5,1.77166 24.80237,-4.5e-4 0,-24.8031 -24.80236,4e-4 0,1.77165 -7.08662,0 0,-12.40157 -1.77165,0 0,-3.54331 1.77165,0 0,-35.43307 -1.77165,0 0,-10.62992 z"
       id="rect3338-8-9-7-1"
       sodipodi:nodetypes="ccccccccccccccccccccccccccccc" />
    <path
       inkscape:connector-curvature="0"
       style="fill:#aad400;fill-opacity:1;stroke:none;stroke-width:1.77165353;stroke-linejoin:round;stroke-miterlimit:4;stroke-dasharray:none;stroke-dashoffset:8;stroke-opacity:1"
       d="m 19.48819,683.85826 0,10.62992 -1.771656,0 0,35.43307 1.771656,0 0,3.54331 -1.771654,0 -9.7e-4,35.43262 3.543308,0 9.67e-4,7.08707 7.086616,0 -9.67e-4,-7.08707 3.543307,0 0.0014,-35.43262 -1.77165,0 0,-3.54331 1.77165,0 -4.4e-4,-35.43307 -1.77166,0 0,-10.62992 z"
       id="rect3338-3-9-7"
       sodipodi:nodetypes="ccccccccccccccccccccc" />
    <path
       style="fill:#aad400;fill-opacity:1;stroke:none;stroke-width:1.77165353;stroke-linejoin:round;stroke-miterlimit:4;stroke-dasharray:none;stroke-dashoffset:8;stroke-opacity:1"
       d="m 19.488345,779.52756 0,10.62992 -1.77165,0 0,35.43307 1.77165,0 0,3.54331 -1.77165,0 -7.8e-4,35.43262 67.322257,0 10e-4,-35.43262 -1.7717,0 0,-3.54331 1.77171,0 -1.6e-4,-35.43307 -1.77089,0 0,-10.62992 -10.629921,0 0,10.62992 -1.771059,0 -0.001,35.43307 1.77165,0 0,3.54331 -1.77165,0 5e-5,10.62992 -38.976567,0 9e-5,-10.62992 -1.77165,0 0,-3.54331 1.77165,0 0,-35.43307 -1.77165,0 0,-10.62992 z"
       id="rect3338-1-2"
       inkscape:connector-curvature="0"
       sodipodi:nodetypes="ccccccccccccccccccccccccccccccccc" />
    <path
       inkscape:connector-curvature="0"
       style="fill:#aad400;fill-opacity:1;stroke:none;stroke-width:1.77165353;stroke-linejoin:round;stroke-miterlimit:4;stroke-dasharray:none;stroke-dashoffset:8;stroke-opacity:1"
       d="m 93.897802,779.52756 0,10.62992 -1.77166,0 0,35.43307 1.77166,0 0,3.54331 -1.77166,0 -9.7e-4,35.43262 3.54331,0 8.05e-4,7.08706 7.086623,0 -8.1e-4,-7.08706 46.06298,0 8.2e-4,7.08706 7.08662,0 -8.2e-4,-7.08706 3.54273,0 0.002,-35.43262 -1.77165,0 0,-3.54331 1.77165,0 -5.5e-4,-35.43307 -1.7713,0 0,-10.62992 -10.62992,0 0,10.62992 -1.77065,0 -8.1e-4,35.43307 1.77166,0 0,3.54331 -1.77166,0 -1.9e-4,10.62992 -38.97655,0 3.6e-4,-10.62992 -1.77165,0 0,-3.54331 1.77165,0 -4.4e-4,-35.43307 -1.77166,0 0,-10.62992 z"
       id="rect3338-3-9-4"
       sodipodi:nodetypes="ccccccccccccccccccccccccccccccccccccccccc" />
    <path
       style="fill:#aad400;fill-opacity:1;stroke:none;stroke-width:1.77165353;stroke-linejoin:round;stroke-miterlimit:4;stroke-dasharray:none;stroke-dashoffset:8;stroke-opacity:1"
       d="m 17.716175,878.74016 0,85.03892 67.322259,0 0.0014,-85.03892 -14.171875,0 -0.0014,60.23622 -38.976564,0 0,-60.23622 z"
       id="rect3338-4"
       inkscape:connector-curvature="0"
       sodipodi:nodetypes="ccccccccc" />
    <path
       inkscape:connector-curvature="0"
       style="fill:#aad400;fill-opacity:1;stroke:none;stroke-width:1.77165353;stroke-linejoin:round;stroke-miterlimit:4;stroke-dasharray:none;stroke-dashoffset:8;stroke-opacity:1"
       d="m 92.125613,878.74016 -1.82e-4,85.03892 3.543308,0 5.55e-4,7.08706 7.086616,0 -5.6e-4,-7.08706 46.06299,0 5.5e-4,7.08706 7.08662,0 -5.5e-4,-7.08706 3.54273,0 0.001,-85.03892 -14.17187,0 -0.002,60.23622 -38.97656,0 1.8e-4,-60.23622 z"
       id="rect3338-3-96"
       sodipodi:nodetypes="ccccccccccccccccc" />
    <path
       inkscape:connector-curvature="0"
       style="fill:#aad400;fill-opacity:1;stroke:none;stroke-width:1.77165353;stroke-linejoin:round;stroke-miterlimit:4;stroke-dasharray:none;stroke-dashoffset:8;stroke-opacity:1"
       d="m 51.377954,694.48819 4.36e-4,-7.0866 -7.086177,10e-6 -4.37e-4,7.0866 -1.771652,0 0,35.43307 1.771652,0 4.37e-4,7.08662 7.086177,-10e-6 -4.36e-4,-7.08662 3.542871,-10e-6 0,3.54331 -1.771654,0 -9.7e-4,35.43262 3.543308,0 0.0014,7.08707 7.086616,0 -0.0014,-7.08707 3.543307,0 0.0014,-35.43262 -1.77165,0 0,-3.54331 3.542872,0 -2e-6,7.08661 7.087052,10e-6 0,-7.08661 1.771655,0 4.36e-4,-35.43306 -1.771653,0 -2e-6,-7.08661 -7.087052,-1e-5 2e-6,7.08661 z"
       id="rect3338-3-9-7-1"
       sodipodi:nodetypes="ccccccccccccccccccccccccccccccccc" />
    <path
       style="fill:#ff7f2a;fill-opacity:1;stroke:none;stroke-width:1.77165353;stroke-linejoin:round;stroke-miterlimit:4;stroke-dasharray:none;stroke-dashoffset:8;stroke-opacity:1"
       d="m 67.322834,637.7945 -3.543537,4.2e-4 0,-23.03125 -7.085938,0 0,23.03125 -1.771484,0 0,-23.03125 -7.087891,0 0,23.03125 -1.771484,0 0,-23.03125 -7.085938,0 0,23.03125 -1.771484,0 0,-23.03125 -7.08789,0 0,23.03125 -1.771485,0 0,-23.03125 -7.085937,0 0,23.03125 -3.542969,0 0,12.40235 3.542969,0 0,23.03125 7.085937,0 0,-23.03125 1.771485,0 0,23.03125 7.08789,0 0,-23.03125 1.771484,0 0,23.03125 7.085938,0 0,-23.03125 1.771484,0 0,23.03125 7.087891,0 0,-23.03125 1.771484,0 0,23.03125 7.085938,0 0,-23.03125 3.543537,-4.2e-4 z"
       id="rect4322"
       inkscape:connector-curvature="0"
       sodipodi:nodetypes="ccccccccccccccccccccccccccccccccccccccccccccc" />
    <path
       style="fill:#ff7f2a;fill-opacity:1;stroke:none;stroke-width:1.77165353;stroke-linejoin:round;stroke-miterlimit:4;stroke-dasharray:none;stroke-dashoffset:8;stroke-opacity:1"
       d="m 141.73206,637.79527 -3.54297,0 0,-23.03125 -7.08594,0 0,23.03125 -1.77148,0 0,-23.03125 -7.08789,0 0,23.03125 -1.77149,0 0,-23.03125 -7.08593,0 0,23.03125 -1.77149,0 0,-23.03125 -7.08789,0 0,23.03125 -1.77148,0 0,-23.03125 -7.085944,0 0,23.03125 -1.77149,0 0,-23.03125 -7.08789,0 0,23.03125 -1.771481,0 0,-23.03125 -7.085937,0 0,23.03125 -3.542969,0 0,12.40235 3.542969,0 0,23.03125 7.085937,0 0,-23.03125 1.771481,0 0,23.03125 7.08789,0 0,-23.03125 1.77149,0 0,23.03125 7.085944,0 0,-23.03125 1.77148,0 0,23.03125 7.08789,0 0,-23.03125 1.77149,0 0,23.03125 7.08593,0 0,-23.03125 1.77149,0 0,23.03125 7.08789,0 0,-23.03125 1.77148,0 0,23.03125 7.08594,0 0,-23.03125 3.54297,0 z"
       id="rect4322-9"
       inkscape:connector-curvature="0"
       sodipodi:nodetypes="ccccccccccccccccccccccccccccccccccccccccccccccccccccccccccccc" />
    <path
       style="fill:#ff7f2a;fill-opacity:1;stroke:none;stroke-width:1.77165353;stroke-linejoin:round;stroke-miterlimit:4;stroke-dasharray:none;stroke-dashoffset:8;stroke-opacity:1"
       d="m 338.38583,650.19762 0,23.03125 7.08594,0 0,-23.03125 1.77149,0 0,23.03125 7.08789,0 0,-23.03125 1.77148,0 0,23.03125 7.08594,0 0,-23.03125 1.77148,0 0,23.03125 7.08789,0 0,-23.03125 1.77149,0 0,23.03125 7.08594,0 0,-23.03125 1.77148,0 0,23.03125 7.08789,0 0,-23.03125 1.77149,0 0,23.03125 7.08593,0 0,-23.03125 3.54297,0 0,-12.40235 -3.54297,0 0,-23.03125 -7.08593,0 0,23.03125 -1.77149,0 0,-23.03125 -7.08789,0 0,23.03125 -1.77148,0 0,-23.03125 -7.08594,0 0,23.03125 -1.77149,0 0,-23.03125 -7.08789,0 0,23.03125 -1.77148,0 0,-23.03125 -7.08594,0 0,23.03125 -1.77148,0 0,-23.03125 -7.08789,0 0,23.03125 -1.77149,0 0,-23.03125 -7.08594,0 0,23.03125 -1.77154,0 0,-23.03125 -7.08594,0 0,23.03125 -1.77148,0 0,-23.03125 -7.08789,0 0,23.03125 -1.77149,0 0,-23.03125 -7.08593,0 0,23.03125 -1.77149,0 0,-23.03125 -7.08789,0 0,23.03125 -1.77148,0 0,-23.03125 -7.08594,0 0,23.03125 -1.77149,0 0,-23.03125 -7.08789,0 0,23.03125 -1.77148,0 0,-23.03125 -7.08594,0 0,23.03125 -1.77155,0 0,-23.03125 -7.08594,0 0,23.03125 -1.77148,0 0,-23.03125 -7.08789,0 0,23.03125 -1.77149,0 0,-23.03125 -7.08594,0 0,23.03125 -1.77148,0 0,-23.03125 -7.08789,0 0,23.03125 -1.77148,0 0,-23.03125 -7.08594,0 0,23.03125 -1.77149,0 0,-23.03125 -7.08789,0 0,23.03125 -1.77148,0 0,-23.03125 -7.08594,0 0,23.03125 -1.77047,-3.5e-4 0,-23.03125 -7.08594,0 0,23.03125 -1.77148,0 0,-23.03125 -7.08789,0 0,23.03125 -1.77149,0 0,-23.03125 -7.08593,0 0,23.03125 -1.77149,0 0,-23.03125 -7.08789,0 0,23.03125 -1.77148,0 0,-23.03125 -7.08594,0 0,23.03125 -1.77149,0 0,-23.03125 -7.08789,0 0,23.03125 -1.77148,0 0,-23.03125 -7.08594,0 0,23.03125 -3.54297,0 0,12.40235 3.54297,0 0,23.03125 7.08594,0 0,-23.03125 1.77148,0 0,23.03125 7.08789,0 0,-23.03125 1.77149,0 0,23.03125 7.08594,0 0,-23.03125 1.77148,0 0,23.03125 7.08789,0 0,-23.03125 1.77149,0 0,23.03125 7.08593,0 0,-23.03125 1.77149,0 0,23.03125 7.08789,0 0,-23.03125 1.77148,0 0,23.03125 7.08594,0 0,-23.03125 1.77047,3.5e-4 0,23.03125 7.08594,0 0,-23.03125 1.77148,0 0,23.03125 7.08789,0 0,-23.03125 1.77149,0 0,23.03125 7.08594,0 0,-23.03125 1.77148,0 0,23.03125 7.08789,0 0,-23.03125 1.77148,0 0,23.03125 7.08594,0 0,-23.03125 1.77149,0 0,23.03125 7.08789,0 0,-23.03125 1.77148,0 0,23.03125 7.08594,0 0,-23.03125 1.77155,0 0,23.03125 7.08594,0 0,-23.03125 1.77148,0 0,23.03125 7.08789,0 0,-23.03125 1.77149,0 0,23.03125 7.08594,0 0,-23.03125 1.77148,0 0,23.03125 7.08789,0 0,-23.03125 1.77149,0 0,23.03125 7.08593,0 0,-23.03125 1.77149,0 0,23.03125 7.08789,0 0,-23.03125 1.77148,0 0,23.03125 7.08594,0 0,-23.03125 z"
       id="rect4322-9-6"
       inkscape:connector-curvature="0"
       sodipodi:nodetypes="ccccccccccccccccccccccccccccccccccccccccccccccccccccccccccccccccccccccccccccccccccccccccccccccccccccccccccccccccccccccccccccccccccccccccccccccccccccccccccccccccccccccccccccccccccccccccccccccccccccccccccccccccccccccccccccccccccccc" />
  </g>
</svg>
