<?xml version="1.0" encoding="UTF-8" standalone="no"?>
<!-- Created with Inkscape (http://www.inkscape.org/) -->

<svg
   xmlns:dc="http://purl.org/dc/elements/1.1/"
   xmlns:cc="http://creativecommons.org/ns#"
   xmlns:rdf="http://www.w3.org/1999/02/22-rdf-syntax-ns#"
   xmlns:svg="http://www.w3.org/2000/svg"
   xmlns="http://www.w3.org/2000/svg"
   xmlns:sodipodi="http://sodipodi.sourceforge.net/DTD/sodipodi-0.dtd"
   xmlns:inkscape="http://www.inkscape.org/namespaces/inkscape"
   width="210mm"
   height="297mm"
   viewBox="0 0 744.09448819 1052.3622047"
   id="svg2"
   version="1.1"
   inkscape:version="0.91 r13725"
   sodipodi:docname="contacts-plate.svg">
  <defs
     id="defs4" />
  <sodipodi:namedview
     id="base"
     pagecolor="#ffffff"
     bordercolor="#666666"
     borderopacity="1.0"
     inkscape:pageopacity="0.0"
     inkscape:pageshadow="2"
     inkscape:zoom="8.96"
     inkscape:cx="178.76822"
     inkscape:cy="532.09678"
     inkscape:document-units="mm"
     inkscape:current-layer="layer1"
     showgrid="true"
     inkscape:window-width="1366"
     inkscape:window-height="705"
     inkscape:window-x="-8"
     inkscape:window-y="-8"
     inkscape:window-maximized="1"
     inkscape:snap-bbox="true"
     inkscape:bbox-nodes="true"
     inkscape:object-nodes="true"
     showguides="true"
     inkscape:guide-bbox="true"
     inkscape:snap-smooth-nodes="false"
     inkscape:snap-midpoints="false"
     inkscape:snap-global="true">
    <inkscape:grid
       type="xygrid"
       id="grid3336"
       units="mm"
       spacingx="1.7716536"
       spacingy="1.7716536"
       dotted="true"
       empspacing="10" />
    <inkscape:grid
       type="xygrid"
       id="grid5100"
       units="mm"
       spacingx="3.5433071"
       spacingy="3.5433072" />
    <sodipodi:guide
       position="263.97639,53.149608"
       orientation="0,1"
       id="guide4174" />
    <sodipodi:guide
       position="280.7687,53.669086"
       orientation="0,1"
       id="guide4180" />
    <sodipodi:guide
       position="17.716536,92.125987"
       orientation="1,0"
       id="guide4184" />
    <sodipodi:guide
       position="46.062992,187.79528"
       orientation="0,1"
       id="guide4224" />
    <sodipodi:guide
       position="74.409449,223.22835"
       orientation="0,1"
       id="guide4256" />
    <sodipodi:guide
       position="70.866142,226.77166"
       orientation="0,1"
       id="guide4258" />
    <sodipodi:guide
       position="63.779528,262.20473"
       orientation="0,1"
       id="guide4260" />
    <sodipodi:guide
       position="239.17324,279.92127"
       orientation="0,1"
       id="guide4262" />
    <sodipodi:guide
       position="53.149606,364.96064"
       orientation="0,1"
       id="guide4183" />
    <sodipodi:guide
       position="317.12599,65.551183"
       orientation="0,1"
       id="guide4206" />
    <sodipodi:guide
       position="476.57482,166.53544"
       orientation="0,1"
       id="guide4204" />
    <sodipodi:guide
       position="46.062992,478.34647"
       orientation="0,1"
       id="guide4225" />
    <sodipodi:guide
       position="67.322837,460.62994"
       orientation="0,1"
       id="guide4242" />
    <sodipodi:guide
       position="46.062992,403.93702"
       orientation="0,1"
       id="guide4244" />
    <sodipodi:guide
       position="70.866144,425.19686"
       orientation="1,0"
       id="guide4250" />
    <sodipodi:guide
       position="143.50394,411.02364"
       orientation="1,0"
       id="guide4285" />
    <sodipodi:guide
       position="168.30709,396.85041"
       orientation="1,0"
       id="guide4287" />
    <sodipodi:guide
       position="225.00001,396.85041"
       orientation="1,0"
       id="guide4289" />
    <sodipodi:guide
       position="200.19686,391.53545"
       orientation="1,0"
       id="guide4291" />
    <sodipodi:guide
       position="145.27559,550.98427"
       orientation="0,1"
       id="guide4230" />
    <sodipodi:guide
       position="244.48819,506.69293"
       orientation="0,1"
       id="guide4232" />
    <sodipodi:guide
       position="88.58268,597.04726"
       orientation="0,1"
       id="guide4234" />
    <sodipodi:guide
       position="120.47244,602.36222"
       orientation="0,1"
       id="guide4236" />
    <sodipodi:guide
       position="258.66142,526.18112"
       orientation="0,1"
       id="guide4253" />
    <sodipodi:guide
       position="256.88977,531.49608"
       orientation="0,1"
       id="guide4255" />
  </sodipodi:namedview>
  <metadata
     id="metadata7">
    <rdf:RDF>
      <cc:Work
         rdf:about="">
        <dc:format>image/svg+xml</dc:format>
        <dc:type
           rdf:resource="http://purl.org/dc/dcmitype/StillImage" />
        <dc:title />
      </cc:Work>
    </rdf:RDF>
  </metadata>
  <g
     inkscape:label="Layer 1"
     inkscape:groupmode="layer"
     id="layer1">
    <circle
       style="fill:#aa8800;fill-opacity:1;stroke:none;stroke-width:1.77165353;stroke-linejoin:round;stroke-miterlimit:4;stroke-dasharray:none;stroke-dashoffset:8;stroke-opacity:1"
       id="path5005"
       cx="200.19685"
       cy="1100.1978"
       r="12.401569" />
    <path
       style="fill:#2b2200;fill-opacity:1;stroke:none;stroke-width:1.77165353;stroke-linejoin:round;stroke-miterlimit:4;stroke-dasharray:none;stroke-dashoffset:8;stroke-opacity:1"
       d="M 162.99219 1020.4727 L 162.99219 1031.1016 L 155.90625 1031.1016 L 155.90625 1041.7324 L 162.99219 1041.7324 L 162.99219 1052.3613 L 191.33789 1052.3613 L 191.33789 1041.7324 L 198.42578 1041.7324 L 198.42578 1031.1016 L 191.33789 1031.1016 L 191.33789 1020.4727 L 162.99219 1020.4727 z M 177.16602 1032.873 A 5.3149605 5.3149605 0 0 1 182.48047 1038.1895 A 5.3149605 5.3149605 0 0 1 177.16602 1043.5039 A 5.3149605 5.3149605 0 0 1 171.84961 1038.1895 A 5.3149605 5.3149605 0 0 1 177.16602 1032.873 z "
       id="rect4964" />
    <path
       style="fill:#2b2200;fill-opacity:1;stroke:none;stroke-width:1.77165353;stroke-linejoin:round;stroke-miterlimit:4;stroke-dasharray:none;stroke-dashoffset:8;stroke-opacity:1"
       d="M 155.90625 974.41016 L 155.90625 985.03906 L 162.99219 985.03906 L 162.99219 995.66992 L 155.90625 995.66992 L 155.90625 1006.2988 L 162.99219 1006.2988 L 191.33789 1006.2988 L 198.42578 1006.2988 L 198.42578 995.66992 L 191.33789 995.66992 L 191.33789 985.03906 L 198.42578 985.03906 L 198.42578 974.41016 L 191.33789 974.41016 L 162.99219 974.41016 L 155.90625 974.41016 z M 177.16602 986.81055 A 5.3149605 5.3149605 0 0 1 182.48047 992.125 A 5.3149605 5.3149605 0 0 1 177.16602 997.44141 A 5.3149605 5.3149605 0 0 1 171.84961 992.125 A 5.3149605 5.3149605 0 0 1 177.16602 986.81055 z "
       id="rect4962-4" />
    <circle
       style="fill:#2b1100;fill-opacity:1;stroke:none;stroke-width:1.77165353;stroke-linejoin:round;stroke-miterlimit:4;stroke-dasharray:none;stroke-dashoffset:8;stroke-opacity:1"
       id="path5003"
       cx="200.19685"
       cy="1100.1978"
       r="5.3149605" />
    <circle
       style="fill:#ffcc00;fill-opacity:1;stroke:none;stroke-width:1.77165353;stroke-linejoin:round;stroke-miterlimit:4;stroke-dasharray:none;stroke-dashoffset:8;stroke-opacity:1"
       id="path5005-9"
       cx="233.85826"
       cy="1098.426"
       r="14.17323" />
    <circle
       style="fill:#803300;fill-opacity:1;stroke:none;stroke-width:1.77165353;stroke-linejoin:round;stroke-miterlimit:4;stroke-dasharray:none;stroke-dashoffset:8;stroke-opacity:1"
       id="path5003-0"
       cx="233.85826"
       cy="1098.4261"
       r="7.0866094" />
    <path
       style="fill:#aa8800;fill-opacity:1;stroke:none;stroke-width:1.77165353;stroke-linejoin:round;stroke-miterlimit:4;stroke-dasharray:none;stroke-dashoffset:8;stroke-opacity:1"
       d="m 200.19608,1116.1427 a 12.401569,12.401569 0 0 0 -12.40234,12.4023 12.401569,12.401569 0 0 0 12.40234,12.4004 12.401569,12.401569 0 0 0 12.40234,-12.4004 12.401569,12.401569 0 0 0 -12.40234,-12.4023 z m 0,7.0859 a 5.3149605,5.3149605 0 0 1 5.31445,5.3164 5.3149605,5.3149605 0 0 1 -5.31445,5.3145 5.3149605,5.3149605 0 0 1 -5.31445,-5.3145 5.3149605,5.3149605 0 0 1 5.31445,-5.3164 z"
       id="path5005-3"
       inkscape:connector-curvature="0" />
    <path
       style="fill:#ffcc00;fill-opacity:1;stroke:none;stroke-width:1.77165353;stroke-linejoin:round;stroke-miterlimit:4;stroke-dasharray:none;stroke-dashoffset:8;stroke-opacity:1"
       d="m 233.85963,1116.1434 a 14.17323,14.17323 0 0 0 -14.17383,14.1719 14.17323,14.17323 0 0 0 14.17383,14.1738 14.17323,14.17323 0 0 0 14.17187,-14.1738 14.17323,14.17323 0 0 0 -14.17187,-14.1719 z m 0,7.0859 a 7.0866094,7.0866094 0 0 1 7.08594,7.086 7.0866094,7.0866094 0 0 1 -7.08594,7.0879 7.0866094,7.0866094 0 0 1 -7.08789,-7.0879 7.0866094,7.0866094 0 0 1 7.08789,-7.086 z"
       id="path5005-9-0"
       inkscape:connector-curvature="0" />
    <path
       id="rect4964-8"
       style="fill:#2b2200;fill-opacity:1;stroke:none;stroke-width:1.77165353;stroke-linejoin:round;stroke-miterlimit:4;stroke-dasharray:none;stroke-dashoffset:8;stroke-opacity:1"
       d="m 134.6456,1144.4886 42.51968,0 0,10.6299 -42.51968,0 z m 7.08662,-10.63 28.34646,0 0,31.8898 -28.34646,0 z"
       inkscape:connector-curvature="0" />
    <path
       inkscape:connector-curvature="0"
       style="fill:#2b2200;fill-opacity:1;stroke:none;stroke-width:1.77165353;stroke-linejoin:round;stroke-miterlimit:4;stroke-dasharray:none;stroke-dashoffset:8;stroke-opacity:1"
       d="m 134.64634,1087.7963 0,10.6289 7.08594,0 0,10.6309 -7.08594,0 0,10.6289 7.08594,0 28.3457,0 7.08789,0 0,-10.6289 -7.08789,0 0,-10.6309 7.08789,0 0,-10.6289 -7.08789,0 -28.3457,0 -7.08594,0 z"
       id="rect4962-4-9" />
    <path
       style="fill:#aa8800;fill-opacity:1;stroke:none;stroke-width:1.77165353;stroke-linejoin:round;stroke-miterlimit:4;stroke-dasharray:none;stroke-dashoffset:8;stroke-opacity:1"
       d="m 226.77165,974.41013 c -6.8498,-4.3e-4 -12.40277,5.55254 -12.40234,12.40234 0.005,5.48049 3.60719,10.30771 8.85937,11.87301 l 0,0.5274 -5.31445,0 0,7.08592 5.31445,0 0,1.7715 -12.40055,0 3.5428,5.3155 -3.5428,5.3154 28.34595,6e-4 3.54355,-5.3154 -3.54355,-5.3155 -8.85751,-6e-4 0,-1.7715 5.31446,0 0,-7.08592 -5.31446,0 0,-0.5215 c 5.25349,-1.5667 8.85502,-6.39679 8.85743,-11.87891 4.3e-4,-6.8498 -5.55255,-12.40277 -12.40235,-12.40234 z m 5.31446,12.40234 c -0.001,2.91375 -2.34812,5.28331 -5.30968,5.28755 -2.96155,0.004 -5.3179,-2.36777 -5.31918,-5.28755 -8e-4,-2.93574 2.37871,-5.31613 5.31443,-5.31613 2.93571,0 5.31523,2.38039 5.31443,5.31613 z"
       id="path5005-3-2"
       inkscape:connector-curvature="0"
       sodipodi:nodetypes="ccccccccccccccccccccccccccc" />
    <path
       style="fill:#aa8800;fill-opacity:1;stroke:none;stroke-width:1.77165353;stroke-linejoin:round;stroke-miterlimit:4;stroke-dasharray:none;stroke-dashoffset:8;stroke-opacity:1"
       d="m 276.37762,974.4099 c -6.8498,-4.3e-4 -12.40277,5.55254 -12.40234,12.4023 l 5.9e-4,12.4004 -5.31445,0 0,7.0859 5.31445,0 0,1.7715 -12.40055,0 3.5428,5.3155 -3.5428,5.3154 28.34595,6e-4 3.54355,-5.3154 -3.54355,-5.3155 -8.85751,-6e-4 0,-1.7715 5.31446,0 0,-7.0859 -5.31446,0 -7.6e-4,-0.51948 8.85954,-0.002 c 5.25349,-1.5666 8.85502,-6.3967 8.85743,-11.8789 4.3e-4,-6.84976 -5.55255,-12.40273 -12.40235,-12.4023 z m 5.31446,12.4023 c -10e-4,2.9138 -2.34812,5.2833 -5.30968,5.2874 -2.96155,0.004 -5.3179,-2.3676 -5.31918,-5.2874 -8e-4,-2.9357 2.37871,-5.31609 5.31442,-5.31609 2.93572,0 5.31524,2.38039 5.31444,5.31609 z"
       id="path5005-3-2-9"
       inkscape:connector-curvature="0"
       sodipodi:nodetypes="cccccccccccccccccccccccccccc"
       transform="translate(2.2850208e-6,-2.1602968e-6)" />
    <path
       inkscape:connector-curvature="0"
       style="fill:#aad400;fill-opacity:1;stroke:none;stroke-width:1.77165353;stroke-linejoin:round;stroke-miterlimit:4;stroke-dasharray:none;stroke-dashoffset:8;stroke-opacity:1"
       d="m 19.488742,772.44139 4.1e-4,17.71654 -1.77165,0 0,35.43307 1.77165,0 0,3.54331 -1.77165,0 -9.7e-4,35.43262 3.54331,0 5.4e-4,21.26029 7.08661,0 -5.4e-4,-21.26029 46.062981,0 5.6e-4,21.26029 7.08662,0 -5.6e-4,-21.26029 3.54273,0 0.002,-35.43262 -1.77165,0 0,-3.54331 1.77165,0 -5.5e-4,-35.43307 -14.17187,0 -8.1e-4,35.43307 1.77166,0 0,3.54331 -1.77166,0 -1.9e-4,10.62992 -38.976551,0 3.6e-4,-10.62992 -1.77165,0 0,-3.54331 1.77165,0 -4.4e-4,-35.43307 -1.77166,0 -4.1e-4,-17.71654 z"
       id="rect3338-3-9"
       sodipodi:nodetypes="ccccccccccccccccccccccccccccccccccccc" />
    <path
       style="fill:#aad400;fill-opacity:1;stroke:none;stroke-width:1.77165353;stroke-linejoin:round;stroke-miterlimit:4;stroke-dasharray:none;stroke-dashoffset:8;stroke-opacity:1"
       d="m 19.488281,574.01562 0,17.7168 -1.771484,0 0,35.4336 3.544922,0 -0.002,21.78515 c -5.25218,1.5653 -8.854375,6.39254 -8.859375,11.87305 l 0.002,12.4043 7.085937,0 -0.002,-12.4043 c 0.0013,-2.91981 2.358758,-5.29111 5.320313,-5.28711 2.961555,0.004 5.307593,2.3734 5.308593,5.28711 l 0.0039,12.4043 7.085937,0 0,-12.4043 c -0.0024,-5.48211 -3.603932,-10.31221 -8.857422,-11.87891 l 0,-21.77929 3.542969,0 0,-35.4336 -1.771484,0 -0.002,-17.7168 z"
       id="rect3338-3-9-7"
       inkscape:connector-curvature="0"
       sodipodi:nodetypes="cccccccccccccccccccccc" />
    <path
       style="fill:#aa8800;fill-opacity:1;stroke:none;stroke-width:1.77165353;stroke-linejoin:round;stroke-miterlimit:4;stroke-dasharray:none;stroke-dashoffset:8;stroke-opacity:1"
       d="m 318.89553,986.81306 c -0.001,2.91371 -2.34812,5.28331 -5.30968,5.28741 -2.96155,0.004 -5.3179,-2.3676 -5.31918,-5.28741 l 0.001,-12.40361 -7.08661,0 -0.002,12.40361 c 0.005,5.48051 3.60719,10.30771 8.85937,11.87301 l 0,0.5274 -5.31445,0 0,7.08593 5.31445,0 0,1.7715 -12.40055,0 3.5428,5.3155 -3.5428,5.3154 28.34595,6e-4 3.54355,-5.3154 -3.54355,-5.3155 -8.85751,-6e-4 0,-1.7715 5.31446,0 0,-7.08593 -5.31446,0 0,-0.5215 c 5.25349,-1.5667 8.85502,-6.3968 8.85743,-11.87891 l 5.1e-4,-12.40361 -7.08661,0 z"
       id="path5005-3-2-8"
       inkscape:connector-curvature="0"
       sodipodi:nodetypes="cccccccccccccccccccccccccccc" />
    <path
       style="fill:#aa8800;fill-opacity:1;stroke:none;stroke-width:1.77165353;stroke-linejoin:round;stroke-miterlimit:4;stroke-dasharray:none;stroke-dashoffset:8;stroke-opacity:1"
       d="m 368.5015,986.81279 c -0.001,2.91378 -2.34812,5.28328 -5.30968,5.28738 -2.96155,0.004 -5.3179,-2.3676 -5.31918,-5.28738 l 0.001,-12.40334 -7.08661,0 -0.003,12.40334 5.9e-4,12.40038 -5.31445,0 0,7.08593 5.31445,0 0,1.7715 -12.40055,0 3.5428,5.3155 -3.5428,5.3154 28.34595,6e-4 3.54355,-5.3154 -3.54355,-5.3155 -8.85751,-6e-4 0,-1.7715 5.31446,0 0,-7.08593 -5.31446,0 -7.6e-4,-0.5195 8.85954,0 c 5.25349,-1.5666 8.85502,-6.3967 8.85743,-11.87886 l 0.002,-12.40536 -7.08662,0 z"
       id="path5005-3-2-9-5"
       inkscape:connector-curvature="0"
       sodipodi:nodetypes="cccccccccccccccccccccccccccc" />
    <path
       style="fill:#aa8800;fill-opacity:1;stroke:none;stroke-width:1.77165353;stroke-linejoin:round;stroke-miterlimit:4;stroke-dasharray:none;stroke-dashoffset:8;stroke-opacity:1"
       d="m 407.48032,993.89764 7.08662,0 1.77165,-3.54331 -1.77165,-3.54331 -7.08663,0 1e-5,-5.31496 7.08661,0 1.77166,-3.5433 -1.77165,-3.54331 -7.08563,-0.002 -7.08661,0 -7.0876,0.002 1.77165,3.54331 -1.77165,3.5433 7.08661,0 -10e-6,5.31496 -7.08661,0 1.77166,3.54331 -1.77167,3.54331 7.08662,0 -0.001,4.78844 0,0.5274 -5.31445,0 0,7.08592 5.31445,0 0,1.7715 -12.40055,0 3.5428,5.3155 -3.5428,5.3154 28.34595,6e-4 3.54355,-5.3154 -3.54355,-5.3155 -8.85751,-6e-4 0,-1.7715 5.31446,0 0,-7.08592 -5.31446,0 0,-0.5215 z"
       id="path5005-3-2-8-8"
       inkscape:connector-curvature="0"
       sodipodi:nodetypes="ccccccccccccccccccccccccccccccccccccccc" />
    <path
       style="fill:#aa8800;fill-opacity:1;stroke:none;stroke-width:1.77165353;stroke-linejoin:round;stroke-miterlimit:4;stroke-dasharray:none;stroke-dashoffset:8;stroke-opacity:1"
       d="m 444.68478,993.8976 7.08662,0 1.77165,-3.54331 -1.77165,-3.54331 -7.08663,0 -7.08661,0 -7.08661,0 1.77166,3.54331 -1.77167,3.54331 7.08662,0 -0.001,4.78844 0,0.5274 -5.31445,0 0,7.08596 5.31445,0 0,1.7715 -12.40055,0 3.5428,5.3155 -3.5428,5.3154 28.34595,6e-4 3.54355,-5.3154 -3.54355,-5.3155 -8.85751,-6e-4 0,-1.7715 5.31446,0 0,-7.08596 -5.31446,0 0,-0.5215 z"
       id="path5005-3-2-8-8-2"
       inkscape:connector-curvature="0"
       sodipodi:nodetypes="ccccccccccccccccccccccccccccc" />
    <path
       style="fill:#aad400;fill-opacity:1;stroke:none;stroke-width:1.77165353;stroke-linejoin:round;stroke-miterlimit:4;stroke-dasharray:none;stroke-dashoffset:8;stroke-opacity:1"
       d="m 70.866313,591.73227 0,35.4336 3.544922,0 -0.002,21.78515 c -5.25218,1.5653 -8.854375,6.39254 -8.859375,11.87305 l 0.002,12.4043 7.085937,0 -0.002,-12.4043 c 0.0013,-2.91981 2.358758,-5.29111 5.320313,-5.28711 2.961555,0.004 5.307593,2.3734 5.308593,5.28711 l 0.0039,12.4043 7.085937,0 0,-12.4043 c -0.0024,-5.48211 -3.603932,-10.31221 -8.857422,-11.87891 l 0,-21.77929 3.542969,0 0,-35.4336 z"
       id="rect3338-3-9-7-8"
       inkscape:connector-curvature="0"
       sodipodi:nodetypes="cccccccccccccccccc" />
    <path
       style="fill:#aad400;fill-opacity:1;stroke:none;stroke-width:1.77165353;stroke-linejoin:round;stroke-miterlimit:4;stroke-dasharray:none;stroke-dashoffset:8;stroke-opacity:1"
       d="m 125.78561,574.01495 0,17.7168 -1.77148,0 0,35.4336 3.54492,0 -0.002,21.78515 c -5.25218,1.5653 -8.85438,6.39254 -8.85938,11.87305 l 0.002,12.4043 7.08594,0 -0.002,-12.4043 c 0.001,-2.91981 2.35876,-5.29111 5.32031,-5.28711 2.96156,0.004 5.3076,2.3734 5.3086,5.28711 l 0.004,12.4043 7.08593,0 10e-4,-1.77116 24.80364,0 0,-10.62992 -24.80513,-0.003 c -0.002,-5.48211 -3.60393,-10.31221 -8.85742,-11.87891 l 0,-21.77929 3.54297,0 0,-35.4336 -1.77148,0 -0.002,-17.7168 z"
       id="rect3338-3-9-7-5"
       inkscape:connector-curvature="0"
       sodipodi:nodetypes="ccccccccccccccccccccccccc" />
    <path
       style="fill:#aad400;fill-opacity:1;stroke:none;stroke-width:1.77165353;stroke-linejoin:round;stroke-miterlimit:4;stroke-dasharray:none;stroke-dashoffset:8;stroke-opacity:1"
       d="m 180.70866,591.73227 0,35.4336 3.54493,0 -0.002,21.78515 c -5.25218,1.5653 -8.85438,6.39254 -8.85938,11.87305 l 0.002,12.4043 7.08594,0 -0.002,-12.4043 c 0.001,-2.91981 2.35876,-5.29111 5.32031,-5.28711 2.96156,0.004 5.30759,2.3734 5.30859,5.28711 l 0.004,12.4043 7.08594,0 -1.3e-4,-1.77168 24.80315,0 0,-10.62992 -24.80302,-0.003 c -0.002,-5.48211 -3.60393,-10.31221 -8.85742,-11.87891 l 0,-21.77929 3.54297,0 0,-35.4336 z"
       id="rect3338-3-9-7-8-7"
       inkscape:connector-curvature="0"
       sodipodi:nodetypes="ccccccccccccccccccccc" />
    <path
       style="fill:#ff7f2a;fill-opacity:1;stroke:none;stroke-width:1.77165353;stroke-linejoin:round;stroke-miterlimit:4;stroke-dasharray:none;stroke-dashoffset:8;stroke-opacity:1"
       d="m 74.409451,520.86614 0,8.85826 3.543305,0 0,23.0315 7.085938,0 0,-23.03125 1.771484,0 0,23.03125 7.087891,0 0,-23.03125 1.771484,0 0,23.03125 7.085937,0 0,-23.03125 1.77149,0 0,23.03125 7.08789,0 0,-23.03125 1.77148,0 0,23.03125 7.08594,0 0,-23.03125 3.54297,0 0,-12.40235 -3.54297,0 0,-23.03125 -7.08594,0 0,23.03125 -1.77148,0 0,-23.03125 -7.08789,0 0,23.03125 -1.77149,0 0,-23.03125 -7.085937,0 0,23.03125 -1.771484,0 0,-23.03125 -7.087891,0 0,23.03125 -1.771484,0 0,-23.03125 -7.085938,0 -6.78e-4,19.48872 -14.173488,-2.5e-4 6.78e-4,-19.48872 -7.085938,0 0,23.03125 -1.771484,0 0,-23.03125 -7.087891,0 0,23.03125 -1.771484,0 0,-23.03125 -7.085938,0 0,23.03125 -1.771484,0 0,-23.03125 -7.08789,0 0,23.03125 -1.771485,0 0,-23.03125 -7.085937,0 0,23.03125 -3.542969,0 0,12.40235 3.542969,0 0,23.03125 7.085937,0 0,-23.03125 1.771485,0 0,23.03125 7.08789,0 0,-23.03125 1.771484,0 0,23.03125 7.085938,0 0,-23.03125 1.771484,0 0,23.03125 7.087891,0 0,-23.03125 1.771484,0 0,23.03125 7.085938,0 2.61e-4,-23.03125 3.543305,0 0,-8.85826 z"
       id="rect4322"
       inkscape:connector-curvature="0"
       sodipodi:nodetypes="ccccccccccccccccccccccccccccccccccccccccccccccccccccccccccccccccccccccccccccccccccccccccc" />
    <path
       style="fill:#ff7f2a;fill-opacity:1;stroke:none;stroke-width:1.77165353;stroke-linejoin:round;stroke-miterlimit:4;stroke-dasharray:none;stroke-dashoffset:8;stroke-opacity:1"
       d="m 74.409451,449.99999 0,8.85827 3.543305,0 0,23.0315 7.085938,0 -0.002,-7.08594 1.771484,0 0.002,7.08594 7.087891,0 -0.002,-7.08594 1.771484,0 0.002,7.08594 7.085937,0 -0.002,-7.08594 1.77148,0 0.002,7.08594 7.08789,0 -0.002,-7.08594 1.77149,0 0.002,7.08594 7.08594,0 0,-23.03125 3.54297,0 0,-12.40234 -3.54297,0 0,-23.03125 -7.08594,0 -0.002,7.08789 -1.77149,0 0.002,-7.08789 -7.08789,0 -0.002,7.08789 -1.77148,0 0.002,-7.08789 -7.085937,0 -0.002,7.08789 -1.771484,0 0.002,-7.08789 -7.087891,0 -0.002,7.08789 -1.771484,0 0.002,-7.08789 -7.085938,0 -7.05e-4,19.48955 -14.173459,-10e-4 7.05e-4,-19.48955 -7.085938,0 0,7.08789 -1.771484,0 0,-7.08789 -7.087891,0 0,7.08789 -1.771484,0 0,-7.08789 -7.085938,0 0,7.08789 -1.771484,0 0,-7.08789 -7.08789,0 0,7.08789 -1.771485,0 0,-7.08789 -7.085937,0 0,23.03125 -3.542969,0 0,12.40234 3.542969,0 0,23.03125 7.085937,0 0,-7.08594 1.771485,0 0,7.08594 7.08789,0 0,-7.08594 1.771484,0 0,7.08594 7.085938,0 0,-7.08594 1.771484,0 0,7.08594 7.087891,0 0,-7.08594 1.771484,0 0,7.08594 7.085938,0 -5.1e-4,-23.05335 3.544049,0.0228 0,-8.85827 z"
       id="rect4322-8"
       inkscape:connector-curvature="0"
       sodipodi:nodetypes="ccccccccccccccccccccccccccccccccccccccccccccccccccccccccccccccccccccccccccccccccccccccccc" />
    <path
       style="fill:#ff7f2a;fill-opacity:1;stroke:none;stroke-width:1.77165353;stroke-linejoin:round;stroke-miterlimit:4;stroke-dasharray:none;stroke-dashoffset:8;stroke-opacity:1"
       d="m 189.56693,520.86614 0,5.31496 -1.77166,0 1e-5,3.5433 5.31496,0 5e-5,15.94489 -1.77165,0 5.1e-4,7.08739 7.08593,0 1.7e-4,-7.08739 -1.77165,0 -1e-5,-15.94489 5.31495,0 -4e-5,15.94489 -1.77164,0 -2.9e-4,7.08739 7.08789,0 -9.9e-4,-7.08739 -1.77166,0 5e-5,-15.94489 5.31496,0 -4e-5,15.94489 -1.77166,0 8.2e-4,7.08739 7.08594,0 -1.4e-4,-7.08739 -1.77166,0 4e-5,-15.94489 5.31496,0 -4e-5,15.94489 -1.77165,0 -2e-5,7.08739 7.08789,0 -0.001,-7.08739 -1.77166,0 4e-5,-15.94489 5.31496,0 0,15.94489 -1.77165,0 0.001,7.08739 7.08594,0 -3.7e-4,-7.08739 -1.77165,0 0,-15.94489 5.31499,0.001 -2.9e-4,-3.5443 -1.77164,0 0,-5.31496 1.77165,0 2.8e-4,-3.54309 -5.31499,-2.5e-4 0,-15.94488 1.77165,0 3.7e-4,-7.08612 -7.08594,0 -0.001,7.08612 1.77165,0 0,15.94488 -5.31496,0 0,-15.94488 1.77166,0 2.1e-4,-7.08662 -7.08668,5e-4 -1.5e-4,7.08612 1.77165,0 0,15.94488 -5.31496,0 0,-15.94488 1.77166,0 3.1e-4,-7.08612 -7.08594,0 -9.9e-4,7.08612 1.77166,0 0,15.94488 -5.31496,0 -1e-5,-15.94488 1.77166,0 0.001,-7.08612 -7.08789,0 1.2e-4,7.08612 1.77164,0 0,15.94488 -5.31495,0 0,-15.94488 1.77165,0 5e-5,-7.08612 -7.08593,0 -5.2e-4,7.08612 1.77165,0 0,12.40157 -17.71653,0 0,-12.40157 1.77165,0 2.6e-4,-7.08637 -7.08594,0 -9.4e-4,7.08637 1.77166,0 0,15.94488 -5.31496,0 -10e-6,-15.94488 1.77166,0 10e-4,-7.08637 -7.0879,0 1.8e-4,7.08637 1.77165,0 0,15.94488 -5.31496,0 0,-15.94488 1.77165,0 0,-7.08637 -7.08594,0 -9e-4,7.0864 1.77188,-3e-5 0,15.94488 -5.31496,0 0,-15.94488 1.77165,0 8.5e-4,-7.08637 -7.08789,0 4.3e-4,7.08637 1.77165,0 0,15.94488 -5.31496,0 0,-15.94488 1.77165,0 -2.6e-4,-7.08637 -7.08593,0 -4.2e-4,7.08637 1.77166,0 0,15.94488 -5.31421,0 -9.9e-4,3.54334 1.77166,0 0,5.31496 -1.77165,0 9.8e-4,3.54405 5.31423,-7.5e-4 0,15.94489 -1.77166,0 4e-4,7.08711 7.08593,0 2.8e-4,-7.08711 -1.77165,0 0,-15.94489 5.31496,0 0,15.94489 -1.77165,0 -4.5e-4,7.08711 7.08789,0 -8.3e-4,-7.08711 -1.77165,0 0,-15.94489 5.31496,0 0,15.94489 -1.77165,0 6.5e-4,7.08711 7.08594,0 2e-5,-7.08711 -1.77165,0 0,-15.94489 5.31496,0 0,15.94489 -1.77165,0 -2e-4,7.08711 7.0879,0 -10e-4,-7.08711 -1.77165,0 0,-15.94489 5.31496,0 0,15.94489 -1.77166,0 9.2e-4,7.08711 7.08594,0 -2.4e-4,-7.08711 -1.77165,0 0,-15.94489 5.31495,0 -3.3e-4,-3.5433 -1.77166,0 0,-5.31496 z"
       id="rect4322-7"
       inkscape:connector-curvature="0"
       sodipodi:nodetypes="ccccccccccccccccccccccccccccccccccccccccccccccccccccccccccccccccccccccccccccccccccccccccccccccccccccccccccccccccccccccccccccccccccccccccccccccccccccccccccccccccccccccccccccccccccccc" />
    <path
       style="fill:#ff7f2a;fill-opacity:1;stroke:none;stroke-width:1.77165353;stroke-linejoin:round;stroke-miterlimit:4;stroke-dasharray:none;stroke-dashoffset:8;stroke-opacity:1"
       d="m 301.18075,520.86617 7e-5,5.31393 5.31496,0 -1e-5,19.48922 -1.77165,0 5.1e-4,7.08739 7.08593,0 1.7e-4,-7.08739 -1.77165,0 5e-5,-19.48922 5.31495,0 -1e-4,19.48922 -1.77164,0 -2.9e-4,7.08739 7.08789,0 -9.9e-4,-7.08739 -1.77166,0 1.1e-4,-19.48922 5.31496,0 -10e-5,19.48922 -1.77166,0 8.2e-4,7.08739 7.08594,0 -1.4e-4,-7.08739 -1.77166,0 10e-5,-19.48922 5.31496,0 -1e-4,19.48922 -1.77165,0 -2e-5,7.08739 7.08789,0 -10e-4,-7.08739 -1.77166,0 10e-5,-19.48922 5.31496,0 -6e-5,19.48922 -1.77165,0 0.001,7.08739 7.08594,0 -3.7e-4,-7.08739 -1.77165,0 6e-5,-19.48922 5.31499,10e-4 0,-5.31496 -5.31499,-2.5e-4 -6e-5,-19.48794 1.77165,0 3.7e-4,-7.08612 -7.08594,0 -0.001,7.08612 1.77165,0 6e-5,19.48794 -5.31496,0 -6e-5,-19.48794 1.77166,0 2.1e-4,-7.08662 -7.08668,5e-4 -1.5e-4,7.08612 1.77165,0 6e-5,19.48794 -5.31496,0 -6e-5,-19.48794 1.77166,0 3.1e-4,-7.08612 -7.08594,0 -9.9e-4,7.08612 1.77166,0 6e-5,19.48794 -5.31496,0 -7e-5,-19.48794 1.77166,0 10e-4,-7.08612 -7.08789,0 1.2e-4,7.08612 1.77164,0 6e-5,19.48794 -5.31495,0 -6e-5,-19.48794 1.77165,0 5e-5,-7.08612 -7.08593,0 -5.2e-4,7.08612 1.77165,0 0,8.85826 -5.31496,0 0,1.77166 -7.08661,0 0,-1.77166 -5.31496,0 0,-8.85826 1.77165,0 2.6e-4,-7.08637 -7.08594,0 -9.4e-4,7.08637 1.77166,0 6e-5,19.48794 -5.31496,0 -7e-5,-19.48794 1.77166,0 0.001,-7.08637 -7.0879,0 1.8e-4,7.08637 1.77165,0 6e-5,19.48794 -5.31496,0 -6e-5,-19.48794 1.77165,0 0,-7.08637 -7.08594,0 -5.5e-4,7.08637 1.77153,0 6e-5,19.48794 -5.31496,0 -6e-5,-19.48794 1.77165,0 8.5e-4,-7.08637 -7.08789,0 4.3e-4,7.08637 1.77165,0 6e-5,19.48794 -5.31496,0 -6e-5,-19.48794 1.77165,0 -2.6e-4,-7.08637 -7.08593,0 -4.2e-4,7.08637 1.77166,0 6e-5,19.48794 -5.31421,0 0,5.31496 5.31423,-7.5e-4 -6e-5,19.48922 -1.77166,0 4e-4,7.08711 7.08593,0 2.8e-4,-7.08711 -1.77165,0 6e-5,-19.48922 5.31496,0 -6e-5,19.48922 -1.77165,0 -4.5e-4,7.08711 7.08789,0 -8.3e-4,-7.08711 -1.77165,0 6e-5,-19.48922 5.31496,0 -6e-5,19.48922 -1.77165,0 6.5e-4,7.08711 7.08594,0 2e-5,-7.08711 -1.77165,0 6e-5,-19.48922 5.31496,0 -6e-5,19.48922 -1.77165,0 -2e-4,7.08711 7.0879,0 -0.001,-7.08711 -1.77165,0 6e-5,-19.48922 5.31496,0 -6e-5,19.48922 -1.77166,0 9.2e-4,7.08711 7.08594,0 -2.4e-4,-7.08711 -1.77165,0 6e-5,-19.48922 5.31495,0 -4e-5,-5.31396 -5.31497,0 0,-3.54331 5.31497,0 -10e-6,-1.77165 7.08661,0 10e-6,1.77165 5.31496,0 0,3.54331 z"
       id="rect4322-7-5"
       inkscape:connector-curvature="0"
       sodipodi:nodetypes="ccccccccccccccccccccccccccccccccccccccccccccccccccccccccccccccccccccccccccccccccccccccccccccccccccccccccccccccccccccccccccccccccccccccccccccccccccccccccccccccccccccccccccccccccccccc" />
  </g>
</svg>
