  0
SECTION
  2
HEADER
  9
$ACADVER
  1
AC1014
  9
$HANDSEED
  5
FFFF
  9
$MEASUREMENT
 70
     1
  0
ENDSEC
  0
SECTION
  2
TABLES
  0
TABLE
  2
VPORT
  5
8
330
0
100
AcDbSymbolTable
 70
     4
  0
VPORT
  5
2E
330
8
100
AcDbSymbolTableRecord
100
AcDbViewportTableRecord
  2
*ACTIVE
 70
     0
 10
0.0
 20
0.0
 11
1.0
 21
1.0
 12
210.0
 22
148.5
 13
0.0
 23
0.0
 14
10.0
 24
10.0
 15
10.0
 25
10.0
 16
0.0
 26
0.0
 36
1.0
 17
0.0
 27
0.0
 37
0.0
 40
341.0
 41
1.24
 42
50.0
 43
0.0
 44
0.0
 50
0.0
 51
0.0
 71
     0
 72
   100
 73
     1
 74
     3
 75
     0
 76
     0
 77
     0
 78
     0
  0
ENDTAB
  0
TABLE
  2
LTYPE
  5
5
330
0
100
AcDbSymbolTable
 70
     1
  0
LTYPE
  5
14
330
5
100
AcDbSymbolTableRecord
100
AcDbLinetypeTableRecord
  2
BYBLOCK
 70
     0
  3

 72
    65
 73
     0
 40
0.0
  0
LTYPE
  5
15
330
5
100
AcDbSymbolTableRecord
100
AcDbLinetypeTableRecord
  2
BYLAYER
 70
     0
  3

 72
    65
 73
     0
 40
0.0
  0
LTYPE
  5
16
330
5
100
AcDbSymbolTableRecord
100
AcDbLinetypeTableRecord
  2
CONTINUOUS
 70
     0
  3
Solid line
 72
    65
 73
     0
 40
0.0
  0
ENDTAB
  0
TABLE
  2
LAYER
  5
2
100
AcDbSymbolTable
 70
2
  0
LAYER
  5
50
100
AcDbSymbolTableRecord
100
AcDbLayerTableRecord
  2
0
 70
0
  6
CONTINUOUS
  0
LAYER
  5
51
100
AcDbSymbolTableRecord
100
AcDbLayerTableRecord
  2
Layer_1
 70
0
  6
CONTINUOUS
  0
ENDTAB
  0
TABLE
  2
STYLE
  5
3
330
0
100
AcDbSymbolTable
 70
     1
  0
STYLE
  5
11
330
3
100
AcDbSymbolTableRecord
100
AcDbTextStyleTableRecord
  2
STANDARD
 70
     0
 40
0.0
 41
1.0
 50
0.0
 71
     0
 42
2.5
  3
txt
  4

  0
ENDTAB
  0
TABLE
  2
VIEW
  5
6
330
0
100
AcDbSymbolTable
 70
     0
  0
ENDTAB
  0
TABLE
  2
UCS
  5
7
330
0
100
AcDbSymbolTable
 70
     0
  0
ENDTAB
  0
TABLE
  2
APPID
  5
9
330
0
100
AcDbSymbolTable
 70
     2
  0
APPID
  5
12
330
9
100
AcDbSymbolTableRecord
100
AcDbRegAppTableRecord
  2
ACAD
 70
     0
  0
ENDTAB
  0
TABLE
  2
DIMSTYLE
  5
A
330
0
100
AcDbSymbolTable
 70
     1
  0
DIMSTYLE
105
27
330
A
100
AcDbSymbolTableRecord
100
AcDbDimStyleTableRecord
  2
ISO-25
 70
     0
  3

  4

  5

  6

  7

 40
1.0
 41
2.5
 42
0.625
 43
3.75
 44
1.25
 45
0.0
 46
0.0
 47
0.0
 48
0.0
140
2.5
141
2.5
142
0.0
143
0.03937007874016
144
1.0
145
0.0
146
1.0
147
0.625
 71
     0
 72
     0
 73
     0
 74
     0
 75
     0
 76
     0
 77
     1
 78
     8
170
     0
171
     3
172
     1
173
     0
174
     0
175
     0
176
     0
177
     0
178
     0
270
     2
271
     2
272
     2
273
     2
274
     3
340
11
275
     0
280
     0
281
     0
282
     0
283
     0
284
     8
285
     0
286
     0
287
     3
288
     0
  0
ENDTAB
  0
TABLE
  2
BLOCK_RECORD
  5
1
330
0
100
AcDbSymbolTable
 70
     1
  0
BLOCK_RECORD
  5
1F
330
1
100
AcDbSymbolTableRecord
100
AcDbBlockTableRecord
  2
*MODEL_SPACE
  0
BLOCK_RECORD
  5
1B
330
1
100
AcDbSymbolTableRecord
100
AcDbBlockTableRecord
  2
*PAPER_SPACE
  0
ENDTAB
  0
ENDSEC
  0
SECTION
  2
BLOCKS
  0
BLOCK
  5
20
330
1F
100
AcDbEntity
  8
0
100
AcDbBlockBegin
  2
*MODEL_SPACE
 70
     0
 10
0.0
 20
0.0
 30
0.0
  3
*MODEL_SPACE
  1

  0
ENDBLK
  5
21
330
1F
100
AcDbEntity
  8
0
100
AcDbBlockEnd
  0
BLOCK
  5
1C
330
1B
100
AcDbEntity
 67
     1
  8
0
100
AcDbBlockBegin
  2
*PAPER_SPACE
  1

  0
ENDBLK
  5
1D
330
1B
100
AcDbEntity
 67
     1
  8
0
100
AcDbBlockEnd
  0
ENDSEC
  0
SECTION
  2
ENTITIES
  0
LINE
  5
100
100
AcDbEntity
  8
Layer_1
 62
7
100
AcDbLine
 10
34.395529
 20
2.850502
 30
0.0
 11
34.209112
 21
2.934858
 31
0.0
  0
LINE
  5
101
100
AcDbEntity
  8
Layer_1
 62
7
100
AcDbLine
 10
34.209112
 20
2.934858
 30
0.0
 11
34.022699
 21
3.040127
 31
0.0
  0
LINE
  5
102
100
AcDbEntity
  8
Layer_1
 62
7
100
AcDbLine
 10
34.022699
 20
3.040127
 30
0.0
 11
33.844317
 21
3.166280
 31
0.0
  0
LINE
  5
103
100
AcDbEntity
  8
Layer_1
 62
7
100
AcDbLine
 10
33.844317
 20
3.166280
 30
0.0
 11
33.688435
 21
3.313318
 31
0.0
  0
LINE
  5
104
100
AcDbEntity
  8
Layer_1
 62
7
100
AcDbLine
 10
33.688435
 20
3.313318
 30
0.0
 11
33.551839
 21
3.313318
 31
0.0
  0
LINE
  5
105
100
AcDbEntity
  8
Layer_1
 62
7
100
AcDbLine
 10
33.551839
 20
3.313318
 30
0.0
 11
33.415241
 21
3.313318
 31
0.0
  0
LINE
  5
106
100
AcDbEntity
  8
Layer_1
 62
7
100
AcDbLine
 10
33.415241
 20
3.313318
 30
0.0
 11
33.415241
 21
2.199641
 31
0.0
  0
LINE
  5
107
100
AcDbEntity
  8
Layer_1
 62
7
100
AcDbLine
 10
33.415241
 20
2.199641
 30
0.0
 11
33.415241
 21
1.085964
 31
0.0
  0
LINE
  5
108
100
AcDbEntity
  8
Layer_1
 62
7
100
AcDbLine
 10
33.415241
 20
1.085964
 30
0.0
 11
33.609692
 21
1.085964
 31
0.0
  0
LINE
  5
109
100
AcDbEntity
  8
Layer_1
 62
7
100
AcDbLine
 10
33.609692
 20
1.085964
 30
0.0
 11
33.804143
 21
1.085964
 31
0.0
  0
LINE
  5
10a
100
AcDbEntity
  8
Layer_1
 62
7
100
AcDbLine
 10
33.804143
 20
1.085964
 30
0.0
 11
33.804143
 21
1.939319
 31
0.0
  0
LINE
  5
10b
100
AcDbEntity
  8
Layer_1
 62
7
100
AcDbLine
 10
33.804143
 20
1.939319
 30
0.0
 11
33.804143
 21
2.792646
 31
0.0
  0
LINE
  5
10c
100
AcDbEntity
  8
Layer_1
 62
7
100
AcDbLine
 10
33.804143
 20
2.792646
 30
0.0
 11
33.902173
 21
2.725957
 31
0.0
  0
LINE
  5
10d
100
AcDbEntity
  8
Layer_1
 62
7
100
AcDbLine
 10
33.902173
 20
2.725957
 30
0.0
 11
34.022699
 21
2.660848
 31
0.0
  0
LINE
  5
10e
100
AcDbEntity
  8
Layer_1
 62
7
100
AcDbLine
 10
34.022699
 20
2.660848
 30
0.0
 11
34.152064
 21
2.602202
 31
0.0
  0
LINE
  5
10f
100
AcDbEntity
  8
Layer_1
 62
7
100
AcDbLine
 10
34.152064
 20
2.602202
 30
0.0
 11
34.276609
 21
2.554789
 31
0.0
  0
LINE
  5
110
100
AcDbEntity
  8
Layer_1
 62
7
100
AcDbLine
 10
34.276609
 20
2.554789
 30
0.0
 11
34.336070
 21
2.702645
 31
0.0
  0
LINE
  5
111
100
AcDbEntity
  8
Layer_1
 62
7
100
AcDbLine
 10
34.336070
 20
2.702645
 30
0.0
 11
34.395529
 21
2.850502
 31
0.0
  0
LINE
  5
112
100
AcDbEntity
  8
Layer_1
 62
7
100
AcDbLine
 10
32.218455
 20
1.085964
 30
0.0
 11
32.412906
 21
1.085964
 31
0.0
  0
LINE
  5
113
100
AcDbEntity
  8
Layer_1
 62
7
100
AcDbLine
 10
32.412906
 20
1.085964
 30
0.0
 11
32.607357
 21
1.085964
 31
0.0
  0
LINE
  5
114
100
AcDbEntity
  8
Layer_1
 62
7
100
AcDbLine
 10
32.607357
 20
1.085964
 30
0.0
 11
32.607357
 21
1.926450
 31
0.0
  0
LINE
  5
115
100
AcDbEntity
  8
Layer_1
 62
7
100
AcDbLine
 10
32.607357
 20
1.926450
 30
0.0
 11
32.607357
 21
2.766936
 31
0.0
  0
LINE
  5
116
100
AcDbEntity
  8
Layer_1
 62
7
100
AcDbLine
 10
32.607357
 20
2.766936
 30
0.0
 11
32.412906
 21
2.766936
 31
0.0
  0
LINE
  5
117
100
AcDbEntity
  8
Layer_1
 62
7
100
AcDbLine
 10
32.412906
 20
2.766936
 30
0.0
 11
32.218455
 21
2.766936
 31
0.0
  0
LINE
  5
118
100
AcDbEntity
  8
Layer_1
 62
7
100
AcDbLine
 10
32.218455
 20
2.766936
 30
0.0
 11
32.218455
 21
1.926450
 31
0.0
  0
LINE
  5
119
100
AcDbEntity
  8
Layer_1
 62
7
100
AcDbLine
 10
32.218455
 20
1.926450
 30
0.0
 11
32.218455
 21
1.085964
 31
0.0
  0
LINE
  5
11a
100
AcDbEntity
  8
Layer_1
 62
7
100
AcDbLine
 10
32.176672
 20
3.258680
 30
0.0
 11
32.194339
 21
3.160636
 31
0.0
  0
LINE
  5
11b
100
AcDbEntity
  8
Layer_1
 62
7
100
AcDbLine
 10
32.194339
 20
3.160636
 30
0.0
 11
32.247372
 21
3.085113
 31
0.0
  0
LINE
  5
11c
100
AcDbEntity
  8
Layer_1
 62
7
100
AcDbLine
 10
32.247372
 20
3.085113
 30
0.0
 11
32.324511
 21
3.036909
 31
0.0
  0
LINE
  5
11d
100
AcDbEntity
  8
Layer_1
 62
7
100
AcDbLine
 10
32.324511
 20
3.036909
 30
0.0
 11
32.414504
 21
3.020823
 31
0.0
  0
LINE
  5
11e
100
AcDbEntity
  8
Layer_1
 62
7
100
AcDbLine
 10
32.414504
 20
3.020823
 30
0.0
 11
32.506909
 21
3.036909
 31
0.0
  0
LINE
  5
11f
100
AcDbEntity
  8
Layer_1
 62
7
100
AcDbLine
 10
32.506909
 20
3.036909
 30
0.0
 11
32.584850
 21
3.085113
 31
0.0
  0
LINE
  5
120
100
AcDbEntity
  8
Layer_1
 62
7
100
AcDbLine
 10
32.584850
 20
3.085113
 30
0.0
 11
32.637882
 21
3.160636
 31
0.0
  0
LINE
  5
121
100
AcDbEntity
  8
Layer_1
 62
7
100
AcDbLine
 10
32.637882
 20
3.160636
 30
0.0
 11
32.655550
 21
3.258680
 31
0.0
  0
LINE
  5
122
100
AcDbEntity
  8
Layer_1
 62
7
100
AcDbLine
 10
32.655550
 20
3.258680
 30
0.0
 11
32.637882
 21
3.359122
 31
0.0
  0
LINE
  5
123
100
AcDbEntity
  8
Layer_1
 62
7
100
AcDbLine
 10
32.637882
 20
3.359122
 30
0.0
 11
32.584850
 21
3.435435
 31
0.0
  0
LINE
  5
124
100
AcDbEntity
  8
Layer_1
 62
7
100
AcDbLine
 10
32.584850
 20
3.435435
 30
0.0
 11
32.506909
 21
3.483667
 31
0.0
  0
LINE
  5
125
100
AcDbEntity
  8
Layer_1
 62
7
100
AcDbLine
 10
32.506909
 20
3.483667
 30
0.0
 11
32.414504
 21
3.499754
 31
0.0
  0
LINE
  5
126
100
AcDbEntity
  8
Layer_1
 62
7
100
AcDbLine
 10
32.414504
 20
3.499754
 30
0.0
 11
32.324511
 21
3.483667
 31
0.0
  0
LINE
  5
127
100
AcDbEntity
  8
Layer_1
 62
7
100
AcDbLine
 10
32.324511
 20
3.483667
 30
0.0
 11
32.247372
 21
3.435464
 31
0.0
  0
LINE
  5
128
100
AcDbEntity
  8
Layer_1
 62
7
100
AcDbLine
 10
32.247372
 20
3.435464
 30
0.0
 11
32.194342
 21
3.359151
 31
0.0
  0
LINE
  5
129
100
AcDbEntity
  8
Layer_1
 62
7
100
AcDbLine
 10
32.194342
 20
3.359151
 30
0.0
 11
32.176675
 21
3.258708
 31
0.0
  0
LINE
  5
12a
100
AcDbEntity
  8
Layer_1
 62
7
100
AcDbLine
 10
31.477966
 20
1.085964
 30
0.0
 11
31.446625
 21
1.336662
 31
0.0
  0
LINE
  5
12b
100
AcDbEntity
  8
Layer_1
 62
7
100
AcDbLine
 10
31.446625
 20
1.336662
 30
0.0
 11
31.391185
 21
1.600229
 31
0.0
  0
LINE
  5
12c
100
AcDbEntity
  8
Layer_1
 62
7
100
AcDbLine
 10
31.391185
 20
1.600229
 30
0.0
 11
31.316459
 21
1.866195
 31
0.0
  0
LINE
  5
12d
100
AcDbEntity
  8
Layer_1
 62
7
100
AcDbLine
 10
31.316459
 20
1.866195
 30
0.0
 11
31.227268
 21
2.124118
 31
0.0
  0
LINE
  5
12e
100
AcDbEntity
  8
Layer_1
 62
7
100
AcDbLine
 10
31.227268
 20
2.124118
 30
0.0
 11
31.123616
 21
2.372389
 31
0.0
  0
LINE
  5
12f
100
AcDbEntity
  8
Layer_1
 62
7
100
AcDbLine
 10
31.123616
 20
2.372389
 30
0.0
 11
31.011927
 21
2.602993
 31
0.0
  0
LINE
  5
130
100
AcDbEntity
  8
Layer_1
 62
7
100
AcDbLine
 10
31.011927
 20
2.602993
 30
0.0
 11
30.893811
 21
2.809495
 31
0.0
  0
LINE
  5
131
100
AcDbEntity
  8
Layer_1
 62
7
100
AcDbLine
 10
30.893811
 20
2.809495
 30
0.0
 11
30.777299
 21
2.979054
 31
0.0
  0
LINE
  5
132
100
AcDbEntity
  8
Layer_1
 62
7
100
AcDbLine
 10
30.777299
 20
2.979054
 30
0.0
 11
31.289944
 21
2.979054
 31
0.0
  0
LINE
  5
133
100
AcDbEntity
  8
Layer_1
 62
7
100
AcDbLine
 10
31.289944
 20
2.979054
 30
0.0
 11
31.802586
 21
2.979054
 31
0.0
  0
LINE
  5
134
100
AcDbEntity
  8
Layer_1
 62
7
100
AcDbLine
 10
31.802586
 20
2.979054
 30
0.0
 11
31.802586
 21
3.146186
 31
0.0
  0
LINE
  5
135
100
AcDbEntity
  8
Layer_1
 62
7
100
AcDbLine
 10
31.802586
 20
3.146186
 30
0.0
 11
31.802586
 21
3.313318
 31
0.0
  0
LINE
  5
136
100
AcDbEntity
  8
Layer_1
 62
7
100
AcDbLine
 10
31.802586
 20
3.313318
 30
0.0
 11
31.058530
 21
3.313318
 31
0.0
  0
LINE
  5
137
100
AcDbEntity
  8
Layer_1
 62
7
100
AcDbLine
 10
31.058530
 20
3.313318
 30
0.0
 11
30.314474
 21
3.313318
 31
0.0
  0
LINE
  5
138
100
AcDbEntity
  8
Layer_1
 62
7
100
AcDbLine
 10
30.314474
 20
3.313318
 30
0.0
 11
30.314474
 21
3.165462
 31
0.0
  0
LINE
  5
139
100
AcDbEntity
  8
Layer_1
 62
7
100
AcDbLine
 10
30.314474
 20
3.165462
 30
0.0
 11
30.314474
 21
3.017634
 31
0.0
  0
LINE
  5
13a
100
AcDbEntity
  8
Layer_1
 62
7
100
AcDbLine
 10
30.314474
 20
3.017634
 30
0.0
 11
30.425362
 21
2.877002
 31
0.0
  0
LINE
  5
13b
100
AcDbEntity
  8
Layer_1
 62
7
100
AcDbLine
 10
30.425362
 20
2.877002
 30
0.0
 11
30.545888
 21
2.692993
 31
0.0
  0
LINE
  5
13c
100
AcDbEntity
  8
Layer_1
 62
7
100
AcDbLine
 10
30.545888
 20
2.692993
 30
0.0
 11
30.668022
 21
2.473650
 31
0.0
  0
LINE
  5
13d
100
AcDbEntity
  8
Layer_1
 62
7
100
AcDbLine
 10
30.668022
 20
2.473650
 30
0.0
 11
30.783728
 21
2.226960
 31
0.0
  0
LINE
  5
13e
100
AcDbEntity
  8
Layer_1
 62
7
100
AcDbLine
 10
30.783728
 20
2.226960
 30
0.0
 11
30.888988
 21
1.960203
 31
0.0
  0
LINE
  5
13f
100
AcDbEntity
  8
Layer_1
 62
7
100
AcDbLine
 10
30.888988
 20
1.960203
 30
0.0
 11
30.979785
 21
1.674143
 31
0.0
  0
LINE
  5
140
100
AcDbEntity
  8
Layer_1
 62
7
100
AcDbLine
 10
30.979785
 20
1.674143
 30
0.0
 11
31.044871
 21
1.379249
 31
0.0
  0
LINE
  5
141
100
AcDbEntity
  8
Layer_1
 62
7
100
AcDbLine
 10
31.044871
 20
1.379249
 30
0.0
 11
31.079420
 21
1.085964
 31
0.0
  0
LINE
  5
142
100
AcDbEntity
  8
Layer_1
 62
7
100
AcDbLine
 10
31.079420
 20
1.085964
 30
0.0
 11
31.278695
 21
1.085964
 31
0.0
  0
LINE
  5
143
100
AcDbEntity
  8
Layer_1
 62
7
100
AcDbLine
 10
31.278695
 20
1.085964
 30
0.0
 11
31.477966
 21
1.085964
 31
0.0
  0
LINE
  5
144
100
AcDbEntity
  8
Layer_1
 62
7
100
AcDbLine
 10
29.461593
 20
1.298110
 30
0.0
 11
29.480868
 21
1.196058
 31
0.0
  0
LINE
  5
145
100
AcDbEntity
  8
Layer_1
 62
7
100
AcDbLine
 10
29.480868
 20
1.196058
 30
0.0
 11
29.538721
 21
1.114891
 31
0.0
  0
LINE
  5
146
100
AcDbEntity
  8
Layer_1
 62
7
100
AcDbLine
 10
29.538721
 20
1.114891
 30
0.0
 11
29.620681
 21
1.061862
 31
0.0
  0
LINE
  5
147
100
AcDbEntity
  8
Layer_1
 62
7
100
AcDbLine
 10
29.620681
 20
1.061862
 30
0.0
 11
29.718711
 21
1.044082
 31
0.0
  0
LINE
  5
148
100
AcDbEntity
  8
Layer_1
 62
7
100
AcDbLine
 10
29.718711
 20
1.044082
 30
0.0
 11
29.819148
 21
1.061580
 31
0.0
  0
LINE
  5
149
100
AcDbEntity
  8
Layer_1
 62
7
100
AcDbLine
 10
29.819148
 20
1.061580
 30
0.0
 11
29.901910
 21
1.114666
 31
0.0
  0
LINE
  5
14a
100
AcDbEntity
  8
Layer_1
 62
7
100
AcDbLine
 10
29.901910
 20
1.114666
 30
0.0
 11
29.957355
 21
1.195804
 31
0.0
  0
LINE
  5
14b
100
AcDbEntity
  8
Layer_1
 62
7
100
AcDbLine
 10
29.957355
 20
1.195804
 30
0.0
 11
29.975841
 21
1.297884
 31
0.0
  0
LINE
  5
14c
100
AcDbEntity
  8
Layer_1
 62
7
100
AcDbLine
 10
29.975841
 20
1.297884
 30
0.0
 11
29.957355
 21
1.399936
 31
0.0
  0
LINE
  5
14d
100
AcDbEntity
  8
Layer_1
 62
7
100
AcDbLine
 10
29.957355
 20
1.399936
 30
0.0
 11
29.901910
 21
1.481075
 31
0.0
  0
LINE
  5
14e
100
AcDbEntity
  8
Layer_1
 62
7
100
AcDbLine
 10
29.901910
 20
1.481075
 30
0.0
 11
29.819148
 21
1.536503
 31
0.0
  0
LINE
  5
14f
100
AcDbEntity
  8
Layer_1
 62
7
100
AcDbLine
 10
29.819148
 20
1.536503
 30
0.0
 11
29.718711
 21
1.554848
 31
0.0
  0
LINE
  5
150
100
AcDbEntity
  8
Layer_1
 62
7
100
AcDbLine
 10
29.718711
 20
1.554848
 30
0.0
 11
29.620681
 21
1.536503
 31
0.0
  0
LINE
  5
151
100
AcDbEntity
  8
Layer_1
 62
7
100
AcDbLine
 10
29.620681
 20
1.536503
 30
0.0
 11
29.538721
 21
1.481046
 31
0.0
  0
LINE
  5
152
100
AcDbEntity
  8
Layer_1
 62
7
100
AcDbLine
 10
29.538721
 20
1.481046
 30
0.0
 11
29.480871
 21
1.399908
 31
0.0
  0
LINE
  5
153
100
AcDbEntity
  8
Layer_1
 62
7
100
AcDbLine
 10
29.480871
 20
1.399908
 30
0.0
 11
29.461595
 21
1.297856
 31
0.0
  0
LINE
  5
154
100
AcDbEntity
  8
Layer_1
 62
7
100
AcDbLine
 10
28.460011
 20
1.053818
 30
0.0
 11
28.619109
 21
1.065390
 31
0.0
  0
LINE
  5
155
100
AcDbEntity
  8
Layer_1
 62
7
100
AcDbLine
 10
28.619109
 20
1.065390
 30
0.0
 11
28.749278
 21
1.092483
 31
0.0
  0
LINE
  5
156
100
AcDbEntity
  8
Layer_1
 62
7
100
AcDbLine
 10
28.749278
 20
1.092483
 30
0.0
 11
28.850519
 21
1.135127
 31
0.0
  0
LINE
  5
157
100
AcDbEntity
  8
Layer_1
 62
7
100
AcDbLine
 10
28.850519
 20
1.135127
 30
0.0
 11
28.929265
 21
1.192107
 31
0.0
  0
LINE
  5
158
100
AcDbEntity
  8
Layer_1
 62
7
100
AcDbLine
 10
28.929265
 20
1.192107
 30
0.0
 11
28.987118
 21
1.266840
 31
0.0
  0
LINE
  5
159
100
AcDbEntity
  8
Layer_1
 62
7
100
AcDbLine
 10
28.987118
 20
1.266840
 30
0.0
 11
29.025686
 21
1.356022
 31
0.0
  0
LINE
  5
15a
100
AcDbEntity
  8
Layer_1
 62
7
100
AcDbLine
 10
29.025686
 20
1.356022
 30
0.0
 11
29.044962
 21
1.462081
 31
0.0
  0
LINE
  5
15b
100
AcDbEntity
  8
Layer_1
 62
7
100
AcDbLine
 10
29.044962
 20
1.462081
 30
0.0
 11
29.051397
 21
1.581010
 31
0.0
  0
LINE
  5
15c
100
AcDbEntity
  8
Layer_1
 62
7
100
AcDbLine
 10
29.051397
 20
1.581010
 30
0.0
 11
29.051397
 21
2.548439
 31
0.0
  0
LINE
  5
15d
100
AcDbEntity
  8
Layer_1
 62
7
100
AcDbLine
 10
29.051397
 20
2.548439
 30
0.0
 11
29.051397
 21
3.515897
 31
0.0
  0
LINE
  5
15e
100
AcDbEntity
  8
Layer_1
 62
7
100
AcDbLine
 10
29.051397
 20
3.515897
 30
0.0
 11
28.856946
 21
3.548014
 31
0.0
  0
LINE
  5
15f
100
AcDbEntity
  8
Layer_1
 62
7
100
AcDbLine
 10
28.856946
 20
3.548014
 30
0.0
 11
28.662495
 21
3.580159
 31
0.0
  0
LINE
  5
160
100
AcDbEntity
  8
Layer_1
 62
7
100
AcDbLine
 10
28.662495
 20
3.580159
 30
0.0
 11
28.662495
 21
2.617555
 31
0.0
  0
LINE
  5
161
100
AcDbEntity
  8
Layer_1
 62
7
100
AcDbLine
 10
28.662495
 20
2.617555
 30
0.0
 11
28.662495
 21
1.654952
 31
0.0
  0
LINE
  5
162
100
AcDbEntity
  8
Layer_1
 62
7
100
AcDbLine
 10
28.662495
 20
1.654952
 30
0.0
 11
28.659955
 21
1.589843
 31
0.0
  0
LINE
  5
163
100
AcDbEntity
  8
Layer_1
 62
7
100
AcDbLine
 10
28.659955
 20
1.589843
 30
0.0
 11
28.652730
 21
1.536023
 31
0.0
  0
LINE
  5
164
100
AcDbEntity
  8
Layer_1
 62
7
100
AcDbLine
 10
28.652730
 20
1.536023
 30
0.0
 11
28.635853
 21
1.491009
 31
0.0
  0
LINE
  5
165
100
AcDbEntity
  8
Layer_1
 62
7
100
AcDbLine
 10
28.635853
 20
1.491009
 30
0.0
 11
28.610933
 21
1.452457
 31
0.0
  0
LINE
  5
166
100
AcDbEntity
  8
Layer_1
 62
7
100
AcDbLine
 10
28.610933
 20
1.452457
 30
0.0
 11
28.577187
 21
1.423530
 31
0.0
  0
LINE
  5
167
100
AcDbEntity
  8
Layer_1
 62
7
100
AcDbLine
 10
28.577187
 20
1.423530
 30
0.0
 11
28.533793
 21
1.400952
 31
0.0
  0
LINE
  5
168
100
AcDbEntity
  8
Layer_1
 62
7
100
AcDbLine
 10
28.533793
 20
1.400952
 30
0.0
 11
28.475943
 21
1.386558
 31
0.0
  0
LINE
  5
169
100
AcDbEntity
  8
Layer_1
 62
7
100
AcDbLine
 10
28.475943
 20
1.386558
 30
0.0
 11
28.405232
 21
1.375270
 31
0.0
  0
LINE
  5
16a
100
AcDbEntity
  8
Layer_1
 62
7
100
AcDbLine
 10
28.405232
 20
1.375270
 30
0.0
 11
28.432551
 21
1.214544
 31
0.0
  0
LINE
  5
16b
100
AcDbEntity
  8
Layer_1
 62
7
100
AcDbLine
 10
28.432551
 20
1.214544
 30
0.0
 11
28.459870
 21
1.053847
 31
0.0
  0
LINE
  5
16c
100
AcDbEntity
  8
Layer_1
 62
7
100
AcDbLine
 10
27.698681
 20
1.085964
 30
0.0
 11
27.893131
 21
1.085964
 31
0.0
  0
LINE
  5
16d
100
AcDbEntity
  8
Layer_1
 62
7
100
AcDbLine
 10
27.893131
 20
1.085964
 30
0.0
 11
28.087582
 21
1.085964
 31
0.0
  0
LINE
  5
16e
100
AcDbEntity
  8
Layer_1
 62
7
100
AcDbLine
 10
28.087582
 20
1.085964
 30
0.0
 11
28.087582
 21
1.926450
 31
0.0
  0
LINE
  5
16f
100
AcDbEntity
  8
Layer_1
 62
7
100
AcDbLine
 10
28.087582
 20
1.926450
 30
0.0
 11
28.087582
 21
2.766936
 31
0.0
  0
LINE
  5
170
100
AcDbEntity
  8
Layer_1
 62
7
100
AcDbLine
 10
28.087582
 20
2.766936
 30
0.0
 11
27.893131
 21
2.766936
 31
0.0
  0
LINE
  5
171
100
AcDbEntity
  8
Layer_1
 62
7
100
AcDbLine
 10
27.893131
 20
2.766936
 30
0.0
 11
27.698681
 21
2.766936
 31
0.0
  0
LINE
  5
172
100
AcDbEntity
  8
Layer_1
 62
7
100
AcDbLine
 10
27.698681
 20
2.766936
 30
0.0
 11
27.698681
 21
1.926450
 31
0.0
  0
LINE
  5
173
100
AcDbEntity
  8
Layer_1
 62
7
100
AcDbLine
 10
27.698681
 20
1.926450
 30
0.0
 11
27.698681
 21
1.085964
 31
0.0
  0
LINE
  5
174
100
AcDbEntity
  8
Layer_1
 62
7
100
AcDbLine
 10
27.656898
 20
3.258680
 30
0.0
 11
27.674576
 21
3.160636
 31
0.0
  0
LINE
  5
175
100
AcDbEntity
  8
Layer_1
 62
7
100
AcDbLine
 10
27.674576
 20
3.160636
 30
0.0
 11
27.727607
 21
3.085113
 31
0.0
  0
LINE
  5
176
100
AcDbEntity
  8
Layer_1
 62
7
100
AcDbLine
 10
27.727607
 20
3.085113
 30
0.0
 11
27.804745
 21
3.036909
 31
0.0
  0
LINE
  5
177
100
AcDbEntity
  8
Layer_1
 62
7
100
AcDbLine
 10
27.804745
 20
3.036909
 30
0.0
 11
27.894739
 21
3.020823
 31
0.0
  0
LINE
  5
178
100
AcDbEntity
  8
Layer_1
 62
7
100
AcDbLine
 10
27.894739
 20
3.020823
 30
0.0
 11
27.987143
 21
3.036909
 31
0.0
  0
LINE
  5
179
100
AcDbEntity
  8
Layer_1
 62
7
100
AcDbLine
 10
27.987143
 20
3.036909
 30
0.0
 11
28.065084
 21
3.085113
 31
0.0
  0
LINE
  5
17a
100
AcDbEntity
  8
Layer_1
 62
7
100
AcDbLine
 10
28.065084
 20
3.085113
 30
0.0
 11
28.118116
 21
3.160636
 31
0.0
  0
LINE
  5
17b
100
AcDbEntity
  8
Layer_1
 62
7
100
AcDbLine
 10
28.118116
 20
3.160636
 30
0.0
 11
28.135794
 21
3.258680
 31
0.0
  0
LINE
  5
17c
100
AcDbEntity
  8
Layer_1
 62
7
100
AcDbLine
 10
28.135794
 20
3.258680
 30
0.0
 11
28.118119
 21
3.359122
 31
0.0
  0
LINE
  5
17d
100
AcDbEntity
  8
Layer_1
 62
7
100
AcDbLine
 10
28.118119
 20
3.359122
 30
0.0
 11
28.065086
 21
3.435435
 31
0.0
  0
LINE
  5
17e
100
AcDbEntity
  8
Layer_1
 62
7
100
AcDbLine
 10
28.065086
 20
3.435435
 30
0.0
 11
27.987146
 21
3.483667
 31
0.0
  0
LINE
  5
17f
100
AcDbEntity
  8
Layer_1
 62
7
100
AcDbLine
 10
27.987146
 20
3.483667
 30
0.0
 11
27.894741
 21
3.499754
 31
0.0
  0
LINE
  5
180
100
AcDbEntity
  8
Layer_1
 62
7
100
AcDbLine
 10
27.894741
 20
3.499754
 30
0.0
 11
27.804748
 21
3.483667
 31
0.0
  0
LINE
  5
181
100
AcDbEntity
  8
Layer_1
 62
7
100
AcDbLine
 10
27.804748
 20
3.483667
 30
0.0
 11
27.727610
 21
3.435464
 31
0.0
  0
LINE
  5
182
100
AcDbEntity
  8
Layer_1
 62
7
100
AcDbLine
 10
27.727610
 20
3.435464
 30
0.0
 11
27.674578
 21
3.359151
 31
0.0
  0
LINE
  5
183
100
AcDbEntity
  8
Layer_1
 62
7
100
AcDbLine
 10
27.674578
 20
3.359151
 30
0.0
 11
27.656900
 21
3.258708
 31
0.0
  0
LINE
  5
184
100
AcDbEntity
  8
Layer_1
 62
7
100
AcDbLine
 10
26.774990
 20
1.085964
 30
0.0
 11
26.938104
 21
1.441112
 31
0.0
  0
LINE
  5
185
100
AcDbEntity
  8
Layer_1
 62
7
100
AcDbLine
 10
26.938104
 20
1.441112
 30
0.0
 11
27.106038
 21
1.844492
 31
0.0
  0
LINE
  5
186
100
AcDbEntity
  8
Layer_1
 62
7
100
AcDbLine
 10
27.106038
 20
1.844492
 30
0.0
 11
27.265938
 21
2.290432
 31
0.0
  0
LINE
  5
187
100
AcDbEntity
  8
Layer_1
 62
7
100
AcDbLine
 10
27.265938
 20
2.290432
 30
0.0
 11
27.411374
 21
2.766936
 31
0.0
  0
LINE
  5
188
100
AcDbEntity
  8
Layer_1
 62
7
100
AcDbLine
 10
27.411374
 20
2.766936
 30
0.0
 11
27.204067
 21
2.766936
 31
0.0
  0
LINE
  5
189
100
AcDbEntity
  8
Layer_1
 62
7
100
AcDbLine
 10
27.204067
 20
2.766936
 30
0.0
 11
26.996760
 21
2.766936
 31
0.0
  0
LINE
  5
18a
100
AcDbEntity
  8
Layer_1
 62
7
100
AcDbLine
 10
26.996760
 20
2.766936
 30
0.0
 11
26.958996
 21
2.619898
 31
0.0
  0
LINE
  5
18b
100
AcDbEntity
  8
Layer_1
 62
7
100
AcDbLine
 10
26.958996
 20
2.619898
 30
0.0
 11
26.916409
 21
2.461599
 31
0.0
  0
LINE
  5
18c
100
AcDbEntity
  8
Layer_1
 62
7
100
AcDbLine
 10
26.916409
 20
2.461599
 30
0.0
 11
26.867395
 21
2.300084
 31
0.0
  0
LINE
  5
18d
100
AcDbEntity
  8
Layer_1
 62
7
100
AcDbLine
 10
26.867395
 20
2.300084
 30
0.0
 11
26.816773
 21
2.136959
 31
0.0
  0
LINE
  5
18e
100
AcDbEntity
  8
Layer_1
 62
7
100
AcDbLine
 10
26.816773
 20
2.136959
 30
0.0
 11
26.762134
 21
1.977870
 31
0.0
  0
LINE
  5
18f
100
AcDbEntity
  8
Layer_1
 62
7
100
AcDbLine
 10
26.762134
 20
1.977870
 30
0.0
 11
26.707495
 21
1.821999
 31
0.0
  0
LINE
  5
190
100
AcDbEntity
  8
Layer_1
 62
7
100
AcDbLine
 10
26.707495
 20
1.821999
 30
0.0
 11
26.652053
 21
1.678150
 31
0.0
  0
LINE
  5
191
100
AcDbEntity
  8
Layer_1
 62
7
100
AcDbLine
 10
26.652053
 20
1.678150
 30
0.0
 11
26.601430
 21
1.548780
 31
0.0
  0
LINE
  5
192
100
AcDbEntity
  8
Layer_1
 62
7
100
AcDbLine
 10
26.601430
 20
1.548780
 30
0.0
 11
26.551613
 21
1.678150
 31
0.0
  0
LINE
  5
193
100
AcDbEntity
  8
Layer_1
 62
7
100
AcDbLine
 10
26.551613
 20
1.678150
 30
0.0
 11
26.498580
 21
1.821999
 31
0.0
  0
LINE
  5
194
100
AcDbEntity
  8
Layer_1
 62
7
100
AcDbLine
 10
26.498580
 20
1.821999
 30
0.0
 11
26.444746
 21
1.977870
 31
0.0
  0
LINE
  5
195
100
AcDbEntity
  8
Layer_1
 62
7
100
AcDbLine
 10
26.444746
 20
1.977870
 30
0.0
 11
26.392517
 21
2.136959
 31
0.0
  0
LINE
  5
196
100
AcDbEntity
  8
Layer_1
 62
7
100
AcDbLine
 10
26.392517
 20
2.136959
 30
0.0
 11
26.339485
 21
2.300084
 31
0.0
  0
LINE
  5
197
100
AcDbEntity
  8
Layer_1
 62
7
100
AcDbLine
 10
26.339485
 20
2.300084
 30
0.0
 11
26.289667
 21
2.461599
 31
0.0
  0
LINE
  5
198
100
AcDbEntity
  8
Layer_1
 62
7
100
AcDbLine
 10
26.289667
 20
2.461599
 30
0.0
 11
26.244671
 21
2.619898
 31
0.0
  0
LINE
  5
199
100
AcDbEntity
  8
Layer_1
 62
7
100
AcDbLine
 10
26.244671
 20
2.619898
 30
0.0
 11
26.206101
 21
2.766936
 31
0.0
  0
LINE
  5
19a
100
AcDbEntity
  8
Layer_1
 62
7
100
AcDbLine
 10
26.206101
 20
2.766936
 30
0.0
 11
26.005222
 21
2.766936
 31
0.0
  0
LINE
  5
19b
100
AcDbEntity
  8
Layer_1
 62
7
100
AcDbLine
 10
26.005222
 20
2.766936
 30
0.0
 11
25.804343
 21
2.766936
 31
0.0
  0
LINE
  5
19c
100
AcDbEntity
  8
Layer_1
 62
7
100
AcDbLine
 10
25.804343
 20
2.766936
 30
0.0
 11
25.950584
 21
2.290432
 31
0.0
  0
LINE
  5
19d
100
AcDbEntity
  8
Layer_1
 62
7
100
AcDbLine
 10
25.950584
 20
2.290432
 30
0.0
 11
26.112893
 21
1.844492
 31
0.0
  0
LINE
  5
19e
100
AcDbEntity
  8
Layer_1
 62
7
100
AcDbLine
 10
26.112893
 20
1.844492
 30
0.0
 11
26.278418
 21
1.441112
 31
0.0
  0
LINE
  5
19f
100
AcDbEntity
  8
Layer_1
 62
7
100
AcDbLine
 10
26.278418
 20
1.441112
 30
0.0
 11
26.440727
 21
1.085964
 31
0.0
  0
LINE
  5
1a0
100
AcDbEntity
  8
Layer_1
 62
7
100
AcDbLine
 10
26.440727
 20
1.085964
 30
0.0
 11
26.607859
 21
1.085964
 31
0.0
  0
LINE
  5
1a1
100
AcDbEntity
  8
Layer_1
 62
7
100
AcDbLine
 10
26.607859
 20
1.085964
 30
0.0
 11
26.774990
 21
1.085964
 31
0.0
  0
LINE
  5
1a2
100
AcDbEntity
  8
Layer_1
 62
7
100
AcDbLine
 10
25.647909
 20
1.918406
 30
0.0
 11
25.631839
 21
2.126517
 31
0.0
  0
LINE
  5
1a3
100
AcDbEntity
  8
Layer_1
 62
7
100
AcDbLine
 10
25.631839
 20
2.126517
 30
0.0
 11
25.583628
 21
2.307308
 31
0.0
  0
LINE
  5
1a4
100
AcDbEntity
  8
Layer_1
 62
7
100
AcDbLine
 10
25.583628
 20
2.307308
 30
0.0
 11
25.505687
 21
2.459991
 31
0.0
  0
LINE
  5
1a5
100
AcDbEntity
  8
Layer_1
 62
7
100
AcDbLine
 10
25.505687
 20
2.459991
 30
0.0
 11
25.406854
 21
2.583717
 31
0.0
  0
LINE
  5
1a6
100
AcDbEntity
  8
Layer_1
 62
7
100
AcDbLine
 10
25.406854
 20
2.583717
 30
0.0
 11
25.289542
 21
2.681733
 31
0.0
  0
LINE
  5
1a7
100
AcDbEntity
  8
Layer_1
 62
7
100
AcDbLine
 10
25.289542
 20
2.681733
 30
0.0
 11
25.156158
 21
2.750849
 31
0.0
  0
LINE
  5
1a8
100
AcDbEntity
  8
Layer_1
 62
7
100
AcDbLine
 10
25.156158
 20
2.750849
 30
0.0
 11
25.013132
 21
2.794255
 31
0.0
  0
LINE
  5
1a9
100
AcDbEntity
  8
Layer_1
 62
7
100
AcDbLine
 10
25.013132
 20
2.794255
 30
0.0
 11
24.866892
 21
2.808648
 31
0.0
  0
LINE
  5
1aa
100
AcDbEntity
  8
Layer_1
 62
7
100
AcDbLine
 10
24.866892
 20
2.808648
 30
0.0
 11
24.558343
 21
2.754828
 31
0.0
  0
LINE
  5
1ab
100
AcDbEntity
  8
Layer_1
 62
7
100
AcDbLine
 10
24.558343
 20
2.754828
 30
0.0
 11
24.326930
 21
2.593312
 31
0.0
  0
LINE
  5
1ac
100
AcDbEntity
  8
Layer_1
 62
7
100
AcDbLine
 10
24.326930
 20
2.593312
 30
0.0
 11
24.179888
 21
2.324947
 31
0.0
  0
LINE
  5
1ad
100
AcDbEntity
  8
Layer_1
 62
7
100
AcDbLine
 10
24.179888
 20
2.324947
 30
0.0
 11
24.130872
 21
1.950495
 31
0.0
  0
LINE
  5
1ae
100
AcDbEntity
  8
Layer_1
 62
7
100
AcDbLine
 10
24.130872
 20
1.950495
 30
0.0
 11
24.131691
 21
1.915951
 31
0.0
  0
LINE
  5
1af
100
AcDbEntity
  8
Layer_1
 62
7
100
AcDbLine
 10
24.131691
 20
1.915951
 30
0.0
 11
24.134089
 21
1.876581
 31
0.0
  0
LINE
  5
1b0
100
AcDbEntity
  8
Layer_1
 62
7
100
AcDbLine
 10
24.134089
 20
1.876581
 30
0.0
 11
24.134908
 21
1.839610
 31
0.0
  0
LINE
  5
1b1
100
AcDbEntity
  8
Layer_1
 62
7
100
AcDbLine
 10
24.134908
 20
1.839610
 30
0.0
 11
24.137307
 21
1.805856
 31
0.0
  0
LINE
  5
1b2
100
AcDbEntity
  8
Layer_1
 62
7
100
AcDbLine
 10
24.137307
 20
1.805856
 30
0.0
 11
24.691732
 21
1.805856
 31
0.0
  0
LINE
  5
1b3
100
AcDbEntity
  8
Layer_1
 62
7
100
AcDbLine
 10
24.691732
 20
1.805856
 30
0.0
 11
25.246158
 21
1.805856
 31
0.0
  0
LINE
  5
1b4
100
AcDbEntity
  8
Layer_1
 62
7
100
AcDbLine
 10
25.246158
 20
1.805856
 30
0.0
 11
25.202768
 21
1.625883
 31
0.0
  0
LINE
  5
1b5
100
AcDbEntity
  8
Layer_1
 62
7
100
AcDbLine
 10
25.202768
 20
1.625883
 30
0.0
 11
25.104739
 21
1.490896
 31
0.0
  0
LINE
  5
1b6
100
AcDbEntity
  8
Layer_1
 62
7
100
AcDbLine
 10
25.104739
 20
1.490896
 30
0.0
 11
24.948054
 21
1.408939
 31
0.0
  0
LINE
  5
1b7
100
AcDbEntity
  8
Layer_1
 62
7
100
AcDbLine
 10
24.948054
 20
1.408939
 30
0.0
 11
24.735122
 21
1.381563
 31
0.0
  0
LINE
  5
1b8
100
AcDbEntity
  8
Layer_1
 62
7
100
AcDbLine
 10
24.735122
 20
1.381563
 30
0.0
 11
24.600132
 21
1.388054
 31
0.0
  0
LINE
  5
1b9
100
AcDbEntity
  8
Layer_1
 62
7
100
AcDbLine
 10
24.600132
 20
1.388054
 30
0.0
 11
24.477997
 21
1.407245
 31
0.0
  0
LINE
  5
1ba
100
AcDbEntity
  8
Layer_1
 62
7
100
AcDbLine
 10
24.477997
 20
1.407245
 30
0.0
 11
24.371934
 21
1.433774
 31
0.0
  0
LINE
  5
1bb
100
AcDbEntity
  8
Layer_1
 62
7
100
AcDbLine
 10
24.371934
 20
1.433774
 30
0.0
 11
24.291582
 21
1.461996
 31
0.0
  0
LINE
  5
1bc
100
AcDbEntity
  8
Layer_1
 62
7
100
AcDbLine
 10
24.291582
 20
1.461996
 30
0.0
 11
24.265868
 21
1.302880
 31
0.0
  0
LINE
  5
1bd
100
AcDbEntity
  8
Layer_1
 62
7
100
AcDbLine
 10
24.265868
 20
1.302880
 30
0.0
 11
24.240155
 21
1.143791
 31
0.0
  0
LINE
  5
1be
100
AcDbEntity
  8
Layer_1
 62
7
100
AcDbLine
 10
24.240155
 20
1.143791
 30
0.0
 11
24.278725
 21
1.126858
 31
0.0
  0
LINE
  5
1bf
100
AcDbEntity
  8
Layer_1
 62
7
100
AcDbLine
 10
24.278725
 20
1.126858
 30
0.0
 11
24.330149
 21
1.108513
 31
0.0
  0
LINE
  5
1c0
100
AcDbEntity
  8
Layer_1
 62
7
100
AcDbLine
 10
24.330149
 20
1.108513
 30
0.0
 11
24.389610
 21
1.093273
 31
0.0
  0
LINE
  5
1c1
100
AcDbEntity
  8
Layer_1
 62
7
100
AcDbLine
 10
24.389610
 20
1.093273
 30
0.0
 11
24.458711
 21
1.079726
 31
0.0
  0
LINE
  5
1c2
100
AcDbEntity
  8
Layer_1
 62
7
100
AcDbLine
 10
24.458711
 20
1.079726
 30
0.0
 11
24.532635
 21
1.065333
 31
0.0
  0
LINE
  5
1c3
100
AcDbEntity
  8
Layer_1
 62
7
100
AcDbLine
 10
24.532635
 20
1.065333
 30
0.0
 11
24.612986
 21
1.054044
 31
0.0
  0
LINE
  5
1c4
100
AcDbEntity
  8
Layer_1
 62
7
100
AcDbLine
 10
24.612986
 20
1.054044
 30
0.0
 11
24.697356
 21
1.046706
 31
0.0
  0
LINE
  5
1c5
100
AcDbEntity
  8
Layer_1
 62
7
100
AcDbLine
 10
24.697356
 20
1.046706
 30
0.0
 11
24.783331
 21
1.043884
 31
0.0
  0
LINE
  5
1c6
100
AcDbEntity
  8
Layer_1
 62
7
100
AcDbLine
 10
24.783331
 20
1.043884
 30
0.0
 11
24.990639
 21
1.059971
 31
0.0
  0
LINE
  5
1c7
100
AcDbEntity
  8
Layer_1
 62
7
100
AcDbLine
 10
24.990639
 20
1.059971
 30
0.0
 11
25.169019
 21
1.108146
 31
0.0
  0
LINE
  5
1c8
100
AcDbEntity
  8
Layer_1
 62
7
100
AcDbLine
 10
25.169019
 20
1.108146
 30
0.0
 11
25.318473
 21
1.187705
 31
0.0
  0
LINE
  5
1c9
100
AcDbEntity
  8
Layer_1
 62
7
100
AcDbLine
 10
25.318473
 20
1.187705
 30
0.0
 11
25.439000
 21
1.291365
 31
0.0
  0
LINE
  5
1ca
100
AcDbEntity
  8
Layer_1
 62
7
100
AcDbLine
 10
25.439000
 20
1.291365
 30
0.0
 11
25.531404
 21
1.419917
 31
0.0
  0
LINE
  5
1cb
100
AcDbEntity
  8
Layer_1
 62
7
100
AcDbLine
 10
25.531404
 20
1.419917
 30
0.0
 11
25.596489
 21
1.567773
 31
0.0
  0
LINE
  5
1cc
100
AcDbEntity
  8
Layer_1
 62
7
100
AcDbLine
 10
25.596489
 20
1.567773
 30
0.0
 11
25.635058
 21
1.735696
 31
0.0
  0
LINE
  5
1cd
100
AcDbEntity
  8
Layer_1
 62
7
100
AcDbLine
 10
25.635058
 20
1.735696
 30
0.0
 11
25.647913
 21
1.918096
 31
0.0
  0
LINE
  5
1ce
100
AcDbEntity
  8
Layer_1
 62
7
100
AcDbLine
 10
24.519777
 20
2.091662
 30
0.0
 11
24.525402
 21
2.169584
 31
0.0
  0
LINE
  5
1cf
100
AcDbEntity
  8
Layer_1
 62
7
100
AcDbLine
 10
24.525402
 20
2.169584
 30
0.0
 11
24.542276
 21
2.242708
 31
0.0
  0
LINE
  5
1d0
100
AcDbEntity
  8
Layer_1
 62
7
100
AcDbLine
 10
24.542276
 20
2.242708
 30
0.0
 11
24.570399
 21
2.311006
 31
0.0
  0
LINE
  5
1d1
100
AcDbEntity
  8
Layer_1
 62
7
100
AcDbLine
 10
24.570399
 20
2.311006
 30
0.0
 11
24.609770
 21
2.368071
 31
0.0
  0
LINE
  5
1d2
100
AcDbEntity
  8
Layer_1
 62
7
100
AcDbLine
 10
24.609770
 20
2.368071
 30
0.0
 11
24.657178
 21
2.416274
 31
0.0
  0
LINE
  5
1d3
100
AcDbEntity
  8
Layer_1
 62
7
100
AcDbLine
 10
24.657178
 20
2.416274
 30
0.0
 11
24.715835
 21
2.451637
 31
0.0
  0
LINE
  5
1d4
100
AcDbEntity
  8
Layer_1
 62
7
100
AcDbLine
 10
24.715835
 20
2.451637
 30
0.0
 11
24.783331
 21
2.475626
 31
0.0
  0
LINE
  5
1d5
100
AcDbEntity
  8
Layer_1
 62
7
100
AcDbLine
 10
24.783331
 20
2.475626
 30
0.0
 11
24.863682
 21
2.483810
 31
0.0
  0
LINE
  5
1d6
100
AcDbEntity
  8
Layer_1
 62
7
100
AcDbLine
 10
24.863682
 20
2.483810
 30
0.0
 11
24.948051
 21
2.475061
 31
0.0
  0
LINE
  5
1d7
100
AcDbEntity
  8
Layer_1
 62
7
100
AcDbLine
 10
24.948051
 20
2.475061
 30
0.0
 11
25.021170
 21
2.448532
 31
0.0
  0
LINE
  5
1d8
100
AcDbEntity
  8
Layer_1
 62
7
100
AcDbLine
 10
25.021170
 20
2.448532
 30
0.0
 11
25.083845
 21
2.410771
 31
0.0
  0
LINE
  5
1d9
100
AcDbEntity
  8
Layer_1
 62
7
100
AcDbLine
 10
25.083845
 20
2.410771
 30
0.0
 11
25.136877
 21
2.361749
 31
0.0
  0
LINE
  5
1da
100
AcDbEntity
  8
Layer_1
 62
7
100
AcDbLine
 10
25.136877
 20
2.361749
 30
0.0
 11
25.177053
 21
2.303103
 31
0.0
  0
LINE
  5
1db
100
AcDbEntity
  8
Layer_1
 62
7
100
AcDbLine
 10
25.177053
 20
2.303103
 30
0.0
 11
25.207586
 21
2.236414
 31
0.0
  0
LINE
  5
1dc
100
AcDbEntity
  8
Layer_1
 62
7
100
AcDbLine
 10
25.207586
 20
2.236414
 30
0.0
 11
25.229280
 21
2.164899
 31
0.0
  0
LINE
  5
1dd
100
AcDbEntity
  8
Layer_1
 62
7
100
AcDbLine
 10
25.229280
 20
2.164899
 30
0.0
 11
25.242940
 21
2.091775
 31
0.0
  0
LINE
  5
1de
100
AcDbEntity
  8
Layer_1
 62
7
100
AcDbLine
 10
25.242940
 20
2.091775
 30
0.0
 11
24.881358
 21
2.091775
 31
0.0
  0
LINE
  5
1df
100
AcDbEntity
  8
Layer_1
 62
7
100
AcDbLine
 10
24.881358
 20
2.091775
 30
0.0
 11
24.519776
 21
2.091775
 31
0.0
  0
LINE
  5
1e0
100
AcDbEntity
  8
Layer_1
 62
7
100
AcDbLine
 10
23.937024
 20
0.488160
 30
0.0
 11
23.986842
 21
0.490983
 31
0.0
  0
LINE
  5
1e1
100
AcDbEntity
  8
Layer_1
 62
7
100
AcDbLine
 10
23.986842
 20
0.490983
 30
0.0
 11
24.052730
 21
0.498320
 31
0.0
  0
LINE
  5
1e2
100
AcDbEntity
  8
Layer_1
 62
7
100
AcDbLine
 10
24.052730
 20
0.498320
 30
0.0
 11
24.125046
 21
0.508763
 31
0.0
  0
LINE
  5
1e3
100
AcDbEntity
  8
Layer_1
 62
7
100
AcDbLine
 10
24.125046
 20
0.508763
 30
0.0
 11
24.187721
 21
0.527389
 31
0.0
  0
LINE
  5
1e4
100
AcDbEntity
  8
Layer_1
 62
7
100
AcDbLine
 10
24.187721
 20
0.527389
 30
0.0
 11
24.162008
 21
0.686506
 31
0.0
  0
LINE
  5
1e5
100
AcDbEntity
  8
Layer_1
 62
7
100
AcDbLine
 10
24.162008
 20
0.686506
 30
0.0
 11
24.136294
 21
0.845595
 31
0.0
  0
LINE
  5
1e6
100
AcDbEntity
  8
Layer_1
 62
7
100
AcDbLine
 10
24.136294
 20
0.845595
 30
0.0
 11
24.058353
 21
0.828662
 31
0.0
  0
LINE
  5
1e7
100
AcDbEntity
  8
Layer_1
 62
7
100
AcDbLine
 10
24.058353
 20
0.828662
 30
0.0
 11
23.965949
 21
0.823017
 31
0.0
  0
LINE
  5
1e8
100
AcDbEntity
  8
Layer_1
 62
7
100
AcDbLine
 10
23.965949
 20
0.823017
 30
0.0
 11
23.851046
 21
0.843055
 31
0.0
  0
LINE
  5
1e9
100
AcDbEntity
  8
Layer_1
 62
7
100
AcDbLine
 10
23.851046
 20
0.843055
 30
0.0
 11
23.776320
 21
0.903309
 31
0.0
  0
LINE
  5
1ea
100
AcDbEntity
  8
Layer_1
 62
7
100
AcDbLine
 10
23.776320
 20
0.903309
 30
0.0
 11
23.735340
 21
1.000535
 31
0.0
  0
LINE
  5
1eb
100
AcDbEntity
  8
Layer_1
 62
7
100
AcDbLine
 10
23.735340
 20
1.000535
 30
0.0
 11
23.721681
 21
1.137921
 31
0.0
  0
LINE
  5
1ec
100
AcDbEntity
  8
Layer_1
 62
7
100
AcDbLine
 10
23.721681
 20
1.137921
 30
0.0
 11
23.721681
 21
1.952696
 31
0.0
  0
LINE
  5
1ed
100
AcDbEntity
  8
Layer_1
 62
7
100
AcDbLine
 10
23.721681
 20
1.952696
 30
0.0
 11
23.721681
 21
2.767472
 31
0.0
  0
LINE
  5
1ee
100
AcDbEntity
  8
Layer_1
 62
7
100
AcDbLine
 10
23.721681
 20
2.767472
 30
0.0
 11
23.527230
 21
2.767472
 31
0.0
  0
LINE
  5
1ef
100
AcDbEntity
  8
Layer_1
 62
7
100
AcDbLine
 10
23.527230
 20
2.767472
 30
0.0
 11
23.332779
 21
2.767472
 31
0.0
  0
LINE
  5
1f0
100
AcDbEntity
  8
Layer_1
 62
7
100
AcDbLine
 10
23.332779
 20
2.767472
 30
0.0
 11
23.332779
 21
1.949479
 31
0.0
  0
LINE
  5
1f1
100
AcDbEntity
  8
Layer_1
 62
7
100
AcDbLine
 10
23.332779
 20
1.949479
 30
0.0
 11
23.332779
 21
1.131514
 31
0.0
  0
LINE
  5
1f2
100
AcDbEntity
  8
Layer_1
 62
7
100
AcDbLine
 10
23.332779
 20
1.131514
 30
0.0
 11
23.372152
 21
0.846244
 31
0.0
  0
LINE
  5
1f3
100
AcDbEntity
  8
Layer_1
 62
7
100
AcDbLine
 10
23.372152
 20
0.846244
 30
0.0
 11
23.490268
 21
0.646177
 31
0.0
  0
LINE
  5
1f4
100
AcDbEntity
  8
Layer_1
 62
7
100
AcDbLine
 10
23.490268
 20
0.646177
 30
0.0
 11
23.679095
 21
0.528067
 31
0.0
  0
LINE
  5
1f5
100
AcDbEntity
  8
Layer_1
 62
7
100
AcDbLine
 10
23.679095
 20
0.528067
 30
0.0
 11
23.937023
 21
0.488697
 31
0.0
  0
LINE
  5
1f6
100
AcDbEntity
  8
Layer_1
 62
7
100
AcDbLine
 10
23.290997
 20
3.259216
 30
0.0
 11
23.308675
 21
3.161172
 31
0.0
  0
LINE
  5
1f7
100
AcDbEntity
  8
Layer_1
 62
7
100
AcDbLine
 10
23.308675
 20
3.161172
 30
0.0
 11
23.361706
 21
3.085649
 31
0.0
  0
LINE
  5
1f8
100
AcDbEntity
  8
Layer_1
 62
7
100
AcDbLine
 10
23.361706
 20
3.085649
 30
0.0
 11
23.438844
 21
3.037446
 31
0.0
  0
LINE
  5
1f9
100
AcDbEntity
  8
Layer_1
 62
7
100
AcDbLine
 10
23.438844
 20
3.037446
 30
0.0
 11
23.528837
 21
3.021359
 31
0.0
  0
LINE
  5
1fa
100
AcDbEntity
  8
Layer_1
 62
7
100
AcDbLine
 10
23.528837
 20
3.021359
 30
0.0
 11
23.621242
 21
3.037446
 31
0.0
  0
LINE
  5
1fb
100
AcDbEntity
  8
Layer_1
 62
7
100
AcDbLine
 10
23.621242
 20
3.037446
 30
0.0
 11
23.699183
 21
3.085649
 31
0.0
  0
LINE
  5
1fc
100
AcDbEntity
  8
Layer_1
 62
7
100
AcDbLine
 10
23.699183
 20
3.085649
 30
0.0
 11
23.752215
 21
3.161172
 31
0.0
  0
LINE
  5
1fd
100
AcDbEntity
  8
Layer_1
 62
7
100
AcDbLine
 10
23.752215
 20
3.161172
 30
0.0
 11
23.769893
 21
3.259216
 31
0.0
  0
LINE
  5
1fe
100
AcDbEntity
  8
Layer_1
 62
7
100
AcDbLine
 10
23.769893
 20
3.259216
 30
0.0
 11
23.752218
 21
3.359659
 31
0.0
  0
LINE
  5
1ff
100
AcDbEntity
  8
Layer_1
 62
7
100
AcDbLine
 10
23.752218
 20
3.359659
 30
0.0
 11
23.699185
 21
3.435972
 31
0.0
  0
LINE
  5
200
100
AcDbEntity
  8
Layer_1
 62
7
100
AcDbLine
 10
23.699185
 20
3.435972
 30
0.0
 11
23.621244
 21
3.484203
 31
0.0
  0
LINE
  5
201
100
AcDbEntity
  8
Layer_1
 62
7
100
AcDbLine
 10
23.621244
 20
3.484203
 30
0.0
 11
23.528840
 21
3.500290
 31
0.0
  0
LINE
  5
202
100
AcDbEntity
  8
Layer_1
 62
7
100
AcDbLine
 10
23.528840
 20
3.500290
 30
0.0
 11
23.438846
 21
3.484203
 31
0.0
  0
LINE
  5
203
100
AcDbEntity
  8
Layer_1
 62
7
100
AcDbLine
 10
23.438846
 20
3.484203
 30
0.0
 11
23.361708
 21
3.436000
 31
0.0
  0
LINE
  5
204
100
AcDbEntity
  8
Layer_1
 62
7
100
AcDbLine
 10
23.361708
 20
3.436000
 30
0.0
 11
23.308677
 21
3.359687
 31
0.0
  0
LINE
  5
205
100
AcDbEntity
  8
Layer_1
 62
7
100
AcDbLine
 10
23.308677
 20
3.359687
 30
0.0
 11
23.290998
 21
3.259244
 31
0.0
  0
LINE
  5
206
100
AcDbEntity
  8
Layer_1
 62
7
100
AcDbLine
 10
21.316308
 20
1.928058
 30
0.0
 11
21.330772
 21
1.737615
 31
0.0
  0
LINE
  5
207
100
AcDbEntity
  8
Layer_1
 62
7
100
AcDbLine
 10
21.330772
 20
1.737615
 30
0.0
 11
21.374160
 21
1.564866
 31
0.0
  0
LINE
  5
208
100
AcDbEntity
  8
Layer_1
 62
7
100
AcDbLine
 10
21.374160
 20
1.564866
 30
0.0
 11
21.444067
 21
1.413003
 31
0.0
  0
LINE
  5
209
100
AcDbEntity
  8
Layer_1
 62
7
100
AcDbLine
 10
21.444067
 20
1.413003
 30
0.0
 11
21.538077
 21
1.285241
 31
0.0
  0
LINE
  5
20a
100
AcDbEntity
  8
Layer_1
 62
7
100
AcDbLine
 10
21.538077
 20
1.285241
 30
0.0
 11
21.655392
 21
1.182399
 31
0.0
  0
LINE
  5
20b
100
AcDbEntity
  8
Layer_1
 62
7
100
AcDbLine
 10
21.655392
 20
1.182399
 30
0.0
 11
21.795202
 21
1.105239
 31
0.0
  0
LINE
  5
20c
100
AcDbEntity
  8
Layer_1
 62
7
100
AcDbLine
 10
21.795202
 20
1.105239
 30
0.0
 11
21.951085
 21
1.057036
 31
0.0
  0
LINE
  5
20d
100
AcDbEntity
  8
Layer_1
 62
7
100
AcDbLine
 10
21.951085
 20
1.057036
 30
0.0
 11
22.123036
 21
1.040949
 31
0.0
  0
LINE
  5
20e
100
AcDbEntity
  8
Layer_1
 62
7
100
AcDbLine
 10
22.123036
 20
1.040949
 30
0.0
 11
22.294989
 21
1.057036
 31
0.0
  0
LINE
  5
20f
100
AcDbEntity
  8
Layer_1
 62
7
100
AcDbLine
 10
22.294989
 20
1.057036
 30
0.0
 11
22.450871
 21
1.105211
 31
0.0
  0
LINE
  5
210
100
AcDbEntity
  8
Layer_1
 62
7
100
AcDbLine
 10
22.450871
 20
1.105211
 30
0.0
 11
22.588272
 21
1.182371
 31
0.0
  0
LINE
  5
211
100
AcDbEntity
  8
Layer_1
 62
7
100
AcDbLine
 10
22.588272
 20
1.182371
 30
0.0
 11
22.704782
 21
1.285212
 31
0.0
  0
LINE
  5
212
100
AcDbEntity
  8
Layer_1
 62
7
100
AcDbLine
 10
22.704782
 20
1.285212
 30
0.0
 11
22.799597
 21
1.412974
 31
0.0
  0
LINE
  5
213
100
AcDbEntity
  8
Layer_1
 62
7
100
AcDbLine
 10
22.799597
 20
1.412974
 30
0.0
 11
22.871913
 21
1.564838
 31
0.0
  0
LINE
  5
214
100
AcDbEntity
  8
Layer_1
 62
7
100
AcDbLine
 10
22.871913
 20
1.564838
 30
0.0
 11
22.915303
 21
1.737586
 31
0.0
  0
LINE
  5
215
100
AcDbEntity
  8
Layer_1
 62
7
100
AcDbLine
 10
22.915303
 20
1.737586
 30
0.0
 11
22.929767
 21
1.928030
 31
0.0
  0
LINE
  5
216
100
AcDbEntity
  8
Layer_1
 62
7
100
AcDbLine
 10
22.929767
 20
1.928030
 30
0.0
 11
22.915303
 21
2.117655
 31
0.0
  0
LINE
  5
217
100
AcDbEntity
  8
Layer_1
 62
7
100
AcDbLine
 10
22.915303
 20
2.117655
 30
0.0
 11
22.871913
 21
2.288004
 31
0.0
  0
LINE
  5
218
100
AcDbEntity
  8
Layer_1
 62
7
100
AcDbLine
 10
22.871913
 20
2.288004
 30
0.0
 11
22.799597
 21
2.439868
 31
0.0
  0
LINE
  5
219
100
AcDbEntity
  8
Layer_1
 62
7
100
AcDbLine
 10
22.799597
 20
2.439868
 30
0.0
 11
22.704782
 21
2.567630
 31
0.0
  0
LINE
  5
21a
100
AcDbEntity
  8
Layer_1
 62
7
100
AcDbLine
 10
22.704782
 20
2.567630
 30
0.0
 11
22.585862
 21
2.669682
 31
0.0
  0
LINE
  5
21b
100
AcDbEntity
  8
Layer_1
 62
7
100
AcDbLine
 10
22.585862
 20
2.669682
 30
0.0
 11
22.447657
 21
2.744386
 31
0.0
  0
LINE
  5
21c
100
AcDbEntity
  8
Layer_1
 62
7
100
AcDbLine
 10
22.447657
 20
2.744386
 30
0.0
 11
22.292579
 21
2.792618
 31
0.0
  0
LINE
  5
21d
100
AcDbEntity
  8
Layer_1
 62
7
100
AcDbLine
 10
22.292579
 20
2.792618
 30
0.0
 11
22.123037
 21
2.808704
 31
0.0
  0
LINE
  5
21e
100
AcDbEntity
  8
Layer_1
 62
7
100
AcDbLine
 10
22.123037
 20
2.808704
 30
0.0
 11
21.953496
 21
2.792618
 31
0.0
  0
LINE
  5
21f
100
AcDbEntity
  8
Layer_1
 62
7
100
AcDbLine
 10
21.953496
 20
2.792618
 30
0.0
 11
21.798417
 21
2.744414
 31
0.0
  0
LINE
  5
220
100
AcDbEntity
  8
Layer_1
 62
7
100
AcDbLine
 10
21.798417
 20
2.744414
 30
0.0
 11
21.658606
 21
2.669710
 31
0.0
  0
LINE
  5
221
100
AcDbEntity
  8
Layer_1
 62
7
100
AcDbLine
 10
21.658606
 20
2.669710
 30
0.0
 11
21.541292
 21
2.567658
 31
0.0
  0
LINE
  5
222
100
AcDbEntity
  8
Layer_1
 62
7
100
AcDbLine
 10
21.541292
 20
2.567658
 30
0.0
 11
21.447282
 21
2.439896
 31
0.0
  0
LINE
  5
223
100
AcDbEntity
  8
Layer_1
 62
7
100
AcDbLine
 10
21.447282
 20
2.439896
 30
0.0
 11
21.377375
 21
2.288033
 31
0.0
  0
LINE
  5
224
100
AcDbEntity
  8
Layer_1
 62
7
100
AcDbLine
 10
21.377375
 20
2.288033
 30
0.0
 11
21.331576
 21
2.117683
 31
0.0
  0
LINE
  5
225
100
AcDbEntity
  8
Layer_1
 62
7
100
AcDbLine
 10
21.331576
 20
2.117683
 30
0.0
 11
21.316307
 21
1.928058
 31
0.0
  0
LINE
  5
226
100
AcDbEntity
  8
Layer_1
 62
7
100
AcDbLine
 10
21.714851
 20
1.928058
 30
0.0
 11
21.742170
 21
2.152227
 31
0.0
  0
LINE
  5
227
100
AcDbEntity
  8
Layer_1
 62
7
100
AcDbLine
 10
21.742170
 20
2.152227
 30
0.0
 11
21.824128
 21
2.323395
 31
0.0
  0
LINE
  5
228
100
AcDbEntity
  8
Layer_1
 62
7
100
AcDbLine
 10
21.824128
 20
2.323395
 30
0.0
 11
21.951888
 21
2.434252
 31
0.0
  0
LINE
  5
229
100
AcDbEntity
  8
Layer_1
 62
7
100
AcDbLine
 10
21.951888
 20
2.434252
 30
0.0
 11
22.123035
 21
2.471223
 31
0.0
  0
LINE
  5
22a
100
AcDbEntity
  8
Layer_1
 62
7
100
AcDbLine
 10
22.123035
 20
2.471223
 30
0.0
 11
22.294988
 21
2.434252
 31
0.0
  0
LINE
  5
22b
100
AcDbEntity
  8
Layer_1
 62
7
100
AcDbLine
 10
22.294988
 20
2.434252
 30
0.0
 11
22.425157
 21
2.323395
 31
0.0
  0
LINE
  5
22c
100
AcDbEntity
  8
Layer_1
 62
7
100
AcDbLine
 10
22.425157
 20
2.323395
 30
0.0
 11
22.504706
 21
2.152227
 31
0.0
  0
LINE
  5
22d
100
AcDbEntity
  8
Layer_1
 62
7
100
AcDbLine
 10
22.504706
 20
2.152227
 30
0.0
 11
22.531220
 21
1.928058
 31
0.0
  0
LINE
  5
22e
100
AcDbEntity
  8
Layer_1
 62
7
100
AcDbLine
 10
22.531220
 20
1.928058
 30
0.0
 11
22.504706
 21
1.700672
 31
0.0
  0
LINE
  5
22f
100
AcDbEntity
  8
Layer_1
 62
7
100
AcDbLine
 10
22.504706
 20
1.700672
 30
0.0
 11
22.425158
 21
1.526287
 31
0.0
  0
LINE
  5
230
100
AcDbEntity
  8
Layer_1
 62
7
100
AcDbLine
 10
22.425158
 20
1.526287
 30
0.0
 11
22.294989
 21
1.415402
 31
0.0
  0
LINE
  5
231
100
AcDbEntity
  8
Layer_1
 62
7
100
AcDbLine
 10
22.294989
 20
1.415402
 30
0.0
 11
22.123036
 21
1.378459
 31
0.0
  0
LINE
  5
232
100
AcDbEntity
  8
Layer_1
 62
7
100
AcDbLine
 10
22.123036
 20
1.378459
 30
0.0
 11
21.951888
 21
1.415402
 31
0.0
  0
LINE
  5
233
100
AcDbEntity
  8
Layer_1
 62
7
100
AcDbLine
 10
21.951888
 20
1.415402
 30
0.0
 11
21.824128
 21
1.526287
 31
0.0
  0
LINE
  5
234
100
AcDbEntity
  8
Layer_1
 62
7
100
AcDbLine
 10
21.824128
 20
1.526287
 30
0.0
 11
21.742171
 21
1.700672
 31
0.0
  0
LINE
  5
235
100
AcDbEntity
  8
Layer_1
 62
7
100
AcDbLine
 10
21.742171
 20
1.700672
 30
0.0
 11
21.714851
 21
1.928058
 31
0.0
  0
LINE
  5
236
100
AcDbEntity
  8
Layer_1
 62
7
100
AcDbLine
 10
19.536823
 20
1.137384
 30
0.0
 11
19.666190
 21
1.108485
 31
0.0
  0
LINE
  5
237
100
AcDbEntity
  8
Layer_1
 62
7
100
AcDbLine
 10
19.666190
 20
1.108485
 30
0.0
 11
19.829302
 21
1.079529
 31
0.0
  0
LINE
  5
238
100
AcDbEntity
  8
Layer_1
 62
7
100
AcDbLine
 10
19.829302
 20
1.079529
 30
0.0
 11
20.018129
 21
1.055540
 31
0.0
  0
LINE
  5
239
100
AcDbEntity
  8
Layer_1
 62
7
100
AcDbLine
 10
20.018129
 20
1.055540
 30
0.0
 11
20.224632
 21
1.047638
 31
0.0
  0
LINE
  5
23a
100
AcDbEntity
  8
Layer_1
 62
7
100
AcDbLine
 10
20.224632
 20
1.047638
 30
0.0
 11
20.411048
 21
1.062031
 31
0.0
  0
LINE
  5
23b
100
AcDbEntity
  8
Layer_1
 62
7
100
AcDbLine
 10
20.411048
 20
1.062031
 30
0.0
 11
20.565322
 21
1.105437
 31
0.0
  0
LINE
  5
23c
100
AcDbEntity
  8
Layer_1
 62
7
100
AcDbLine
 10
20.565322
 20
1.105437
 30
0.0
 11
20.687457
 21
1.174553
 31
0.0
  0
LINE
  5
23d
100
AcDbEntity
  8
Layer_1
 62
7
100
AcDbLine
 10
20.687457
 20
1.174553
 30
0.0
 11
20.783878
 21
1.266162
 31
0.0
  0
LINE
  5
23e
100
AcDbEntity
  8
Layer_1
 62
7
100
AcDbLine
 10
20.783878
 20
1.266162
 30
0.0
 11
20.852981
 21
1.378628
 31
0.0
  0
LINE
  5
23f
100
AcDbEntity
  8
Layer_1
 62
7
100
AcDbLine
 10
20.852981
 20
1.378628
 30
0.0
 11
20.899585
 21
1.510426
 31
0.0
  0
LINE
  5
240
100
AcDbEntity
  8
Layer_1
 62
7
100
AcDbLine
 10
20.899585
 20
1.510426
 30
0.0
 11
20.926102
 21
1.661471
 31
0.0
  0
LINE
  5
241
100
AcDbEntity
  8
Layer_1
 62
7
100
AcDbLine
 10
20.926102
 20
1.661471
 30
0.0
 11
20.934941
 21
1.825414
 31
0.0
  0
LINE
  5
242
100
AcDbEntity
  8
Layer_1
 62
7
100
AcDbLine
 10
20.934941
 20
1.825414
 30
0.0
 11
20.934941
 21
2.296274
 31
0.0
  0
LINE
  5
243
100
AcDbEntity
  8
Layer_1
 62
7
100
AcDbLine
 10
20.934941
 20
2.296274
 30
0.0
 11
20.934941
 21
2.767133
 31
0.0
  0
LINE
  5
244
100
AcDbEntity
  8
Layer_1
 62
7
100
AcDbLine
 10
20.934941
 20
2.767133
 30
0.0
 11
20.740491
 21
2.767133
 31
0.0
  0
LINE
  5
245
100
AcDbEntity
  8
Layer_1
 62
7
100
AcDbLine
 10
20.740491
 20
2.767133
 30
0.0
 11
20.546040
 21
2.767133
 31
0.0
  0
LINE
  5
246
100
AcDbEntity
  8
Layer_1
 62
7
100
AcDbLine
 10
20.546040
 20
2.767133
 30
0.0
 11
20.546040
 21
2.326782
 31
0.0
  0
LINE
  5
247
100
AcDbEntity
  8
Layer_1
 62
7
100
AcDbLine
 10
20.546040
 20
2.326782
 30
0.0
 11
20.546040
 21
1.886459
 31
0.0
  0
LINE
  5
248
100
AcDbEntity
  8
Layer_1
 62
7
100
AcDbLine
 10
20.546040
 20
1.886459
 30
0.0
 11
20.526755
 21
1.655036
 31
0.0
  0
LINE
  5
249
100
AcDbEntity
  8
Layer_1
 62
7
100
AcDbLine
 10
20.526755
 20
1.655036
 30
0.0
 11
20.468901
 21
1.500774
 31
0.0
  0
LINE
  5
24a
100
AcDbEntity
  8
Layer_1
 62
7
100
AcDbLine
 10
20.468901
 20
1.500774
 30
0.0
 11
20.359624
 21
1.413990
 31
0.0
  0
LINE
  5
24b
100
AcDbEntity
  8
Layer_1
 62
7
100
AcDbLine
 10
20.359624
 20
1.413990
 30
0.0
 11
20.192492
 21
1.385063
 31
0.0
  0
LINE
  5
24c
100
AcDbEntity
  8
Layer_1
 62
7
100
AcDbLine
 10
20.192492
 20
1.385063
 30
0.0
 11
20.120176
 21
1.387885
 31
0.0
  0
LINE
  5
24d
100
AcDbEntity
  8
Layer_1
 62
7
100
AcDbLine
 10
20.120176
 20
1.387885
 30
0.0
 11
20.044645
 21
1.392400
 31
0.0
  0
LINE
  5
24e
100
AcDbEntity
  8
Layer_1
 62
7
100
AcDbLine
 10
20.044645
 20
1.392400
 30
0.0
 11
19.974740
 21
1.399456
 31
0.0
  0
LINE
  5
24f
100
AcDbEntity
  8
Layer_1
 62
7
100
AcDbLine
 10
19.974740
 20
1.399456
 30
0.0
 11
19.925725
 21
1.408487
 31
0.0
  0
LINE
  5
250
100
AcDbEntity
  8
Layer_1
 62
7
100
AcDbLine
 10
19.925725
 20
1.408487
 30
0.0
 11
19.925725
 21
2.088248
 31
0.0
  0
LINE
  5
251
100
AcDbEntity
  8
Layer_1
 62
7
100
AcDbLine
 10
19.925725
 20
2.088248
 30
0.0
 11
19.925725
 21
2.768036
 31
0.0
  0
LINE
  5
252
100
AcDbEntity
  8
Layer_1
 62
7
100
AcDbLine
 10
19.925725
 20
2.768036
 30
0.0
 11
19.731274
 21
2.768036
 31
0.0
  0
LINE
  5
253
100
AcDbEntity
  8
Layer_1
 62
7
100
AcDbLine
 10
19.731274
 20
2.768036
 30
0.0
 11
19.536823
 21
2.768036
 31
0.0
  0
LINE
  5
254
100
AcDbEntity
  8
Layer_1
 62
7
100
AcDbLine
 10
19.536823
 20
2.768036
 30
0.0
 11
19.536823
 21
1.953261
 31
0.0
  0
LINE
  5
255
100
AcDbEntity
  8
Layer_1
 62
7
100
AcDbLine
 10
19.536823
 20
1.953261
 30
0.0
 11
19.536823
 21
1.138485
 31
0.0
  0
LINE
  5
256
100
AcDbEntity
  8
Layer_1
 62
7
100
AcDbLine
 10
18.080903
 20
2.416585
 30
0.0
 11
18.138757
 21
2.432672
 31
0.0
  0
LINE
  5
257
100
AcDbEntity
  8
Layer_1
 62
7
100
AcDbLine
 10
18.138757
 20
2.432672
 30
0.0
 11
18.215894
 21
2.448758
 31
0.0
  0
LINE
  5
258
100
AcDbEntity
  8
Layer_1
 62
7
100
AcDbLine
 10
18.215894
 20
2.448758
 30
0.0
 11
18.306692
 21
2.463152
 31
0.0
  0
LINE
  5
259
100
AcDbEntity
  8
Layer_1
 62
7
100
AcDbLine
 10
18.306692
 20
2.463152
 30
0.0
 11
18.411952
 21
2.467949
 31
0.0
  0
LINE
  5
25a
100
AcDbEntity
  8
Layer_1
 62
7
100
AcDbLine
 10
18.411952
 20
2.467949
 30
0.0
 11
18.478644
 21
2.464845
 31
0.0
  0
LINE
  5
25b
100
AcDbEntity
  8
Layer_1
 62
7
100
AcDbLine
 10
18.478644
 20
2.464845
 30
0.0
 11
18.550156
 21
2.454967
 31
0.0
  0
LINE
  5
25c
100
AcDbEntity
  8
Layer_1
 62
7
100
AcDbLine
 10
18.550156
 20
2.454967
 30
0.0
 11
18.610421
 21
2.442832
 31
0.0
  0
LINE
  5
25d
100
AcDbEntity
  8
Layer_1
 62
7
100
AcDbLine
 10
18.610421
 20
2.442832
 30
0.0
 11
18.649792
 21
2.432389
 31
0.0
  0
LINE
  5
25e
100
AcDbEntity
  8
Layer_1
 62
7
100
AcDbLine
 10
18.649792
 20
2.432389
 30
0.0
 11
18.649792
 21
1.759035
 31
0.0
  0
LINE
  5
25f
100
AcDbEntity
  8
Layer_1
 62
7
100
AcDbLine
 10
18.649792
 20
1.759035
 30
0.0
 11
18.649792
 21
1.085681
 31
0.0
  0
LINE
  5
260
100
AcDbEntity
  8
Layer_1
 62
7
100
AcDbLine
 10
18.649792
 20
1.085681
 30
0.0
 11
18.844243
 21
1.085681
 31
0.0
  0
LINE
  5
261
100
AcDbEntity
  8
Layer_1
 62
7
100
AcDbLine
 10
18.844243
 20
1.085681
 30
0.0
 11
19.038694
 21
1.085681
 31
0.0
  0
LINE
  5
262
100
AcDbEntity
  8
Layer_1
 62
7
100
AcDbLine
 10
19.038694
 20
1.085681
 30
0.0
 11
19.038694
 21
1.885979
 31
0.0
  0
LINE
  5
263
100
AcDbEntity
  8
Layer_1
 62
7
100
AcDbLine
 10
19.038694
 20
1.885979
 30
0.0
 11
19.038694
 21
2.686276
 31
0.0
  0
LINE
  5
264
100
AcDbEntity
  8
Layer_1
 62
7
100
AcDbLine
 10
19.038694
 20
2.686276
 30
0.0
 11
18.912542
 21
2.726493
 31
0.0
  0
LINE
  5
265
100
AcDbEntity
  8
Layer_1
 62
7
100
AcDbLine
 10
18.912542
 20
2.726493
 30
0.0
 11
18.759070
 21
2.763436
 31
0.0
  0
LINE
  5
266
100
AcDbEntity
  8
Layer_1
 62
7
100
AcDbLine
 10
18.759070
 20
2.763436
 30
0.0
 11
18.579887
 21
2.792336
 31
0.0
  0
LINE
  5
267
100
AcDbEntity
  8
Layer_1
 62
7
100
AcDbLine
 10
18.579887
 20
2.792336
 30
0.0
 11
18.383025
 21
2.801931
 31
0.0
  0
LINE
  5
268
100
AcDbEntity
  8
Layer_1
 62
7
100
AcDbLine
 10
18.383025
 20
2.801931
 30
0.0
 11
18.341243
 21
2.799109
 31
0.0
  0
LINE
  5
269
100
AcDbEntity
  8
Layer_1
 62
7
100
AcDbLine
 10
18.341243
 20
2.799109
 30
0.0
 11
18.293031
 21
2.794593
 31
0.0
  0
LINE
  5
26a
100
AcDbEntity
  8
Layer_1
 62
7
100
AcDbLine
 10
18.293031
 20
2.794593
 30
0.0
 11
18.241607
 21
2.789513
 31
0.0
  0
LINE
  5
26b
100
AcDbEntity
  8
Layer_1
 62
7
100
AcDbLine
 10
18.241607
 20
2.789513
 30
0.0
 11
18.190181
 21
2.781611
 31
0.0
  0
LINE
  5
26c
100
AcDbEntity
  8
Layer_1
 62
7
100
AcDbLine
 10
18.190181
 20
2.781611
 30
0.0
 11
18.139561
 21
2.773709
 31
0.0
  0
LINE
  5
26d
100
AcDbEntity
  8
Layer_1
 62
7
100
AcDbLine
 10
18.139561
 20
2.773709
 30
0.0
 11
18.090545
 21
2.762420
 31
0.0
  0
LINE
  5
26e
100
AcDbEntity
  8
Layer_1
 62
7
100
AcDbLine
 10
18.090545
 20
2.762420
 30
0.0
 11
18.047157
 21
2.752824
 31
0.0
  0
LINE
  5
26f
100
AcDbEntity
  8
Layer_1
 62
7
100
AcDbLine
 10
18.047157
 20
2.752824
 30
0.0
 11
18.013408
 21
2.743229
 31
0.0
  0
LINE
  5
270
100
AcDbEntity
  8
Layer_1
 62
7
100
AcDbLine
 10
18.013408
 20
2.743229
 30
0.0
 11
18.047156
 21
2.579314
 31
0.0
  0
LINE
  5
271
100
AcDbEntity
  8
Layer_1
 62
7
100
AcDbLine
 10
18.047156
 20
2.579314
 30
0.0
 11
18.080903
 21
2.415400
 31
0.0
  0
LINE
  5
272
100
AcDbEntity
  8
Layer_1
 62
7
100
AcDbLine
 10
17.745536
 20
2.712297
 30
0.0
 11
17.616171
 21
2.743624
 31
0.0
  0
LINE
  5
273
100
AcDbEntity
  8
Layer_1
 62
7
100
AcDbLine
 10
17.616171
 20
2.743624
 30
0.0
 11
17.453057
 21
2.773342
 31
0.0
  0
LINE
  5
274
100
AcDbEntity
  8
Layer_1
 62
7
100
AcDbLine
 10
17.453057
 20
2.773342
 30
0.0
 11
17.263427
 21
2.795073
 31
0.0
  0
LINE
  5
275
100
AcDbEntity
  8
Layer_1
 62
7
100
AcDbLine
 10
17.263427
 20
2.795073
 30
0.0
 11
17.054513
 21
2.802411
 31
0.0
  0
LINE
  5
276
100
AcDbEntity
  8
Layer_1
 62
7
100
AcDbLine
 10
17.054513
 20
2.802411
 30
0.0
 11
16.865688
 21
2.788018
 31
0.0
  0
LINE
  5
277
100
AcDbEntity
  8
Layer_1
 62
7
100
AcDbLine
 10
16.865688
 20
2.788018
 30
0.0
 11
16.710608
 21
2.744584
 31
0.0
  0
LINE
  5
278
100
AcDbEntity
  8
Layer_1
 62
7
100
AcDbLine
 10
16.710608
 20
2.744584
 30
0.0
 11
16.586868
 21
2.677923
 31
0.0
  0
LINE
  5
279
100
AcDbEntity
  8
Layer_1
 62
7
100
AcDbLine
 10
16.586868
 20
2.677923
 30
0.0
 11
16.492052
 21
2.587104
 31
0.0
  0
LINE
  5
27a
100
AcDbEntity
  8
Layer_1
 62
7
100
AcDbLine
 10
16.492052
 20
2.587104
 30
0.0
 11
16.421344
 21
2.476218
 31
0.0
  0
LINE
  5
27b
100
AcDbEntity
  8
Layer_1
 62
7
100
AcDbLine
 10
16.421344
 20
2.476218
 30
0.0
 11
16.376346
 21
2.342840
 31
0.0
  0
LINE
  5
27c
100
AcDbEntity
  8
Layer_1
 62
7
100
AcDbLine
 10
16.376346
 20
2.342840
 30
0.0
 11
16.349831
 21
2.194194
 31
0.0
  0
LINE
  5
27d
100
AcDbEntity
  8
Layer_1
 62
7
100
AcDbLine
 10
16.349831
 20
2.194194
 30
0.0
 11
16.340992
 21
2.031069
 31
0.0
  0
LINE
  5
27e
100
AcDbEntity
  8
Layer_1
 62
7
100
AcDbLine
 10
16.340992
 20
2.031069
 30
0.0
 11
16.340992
 21
1.558601
 31
0.0
  0
LINE
  5
27f
100
AcDbEntity
  8
Layer_1
 62
7
100
AcDbLine
 10
16.340992
 20
1.558601
 30
0.0
 11
16.340992
 21
1.086133
 31
0.0
  0
LINE
  5
280
100
AcDbEntity
  8
Layer_1
 62
7
100
AcDbLine
 10
16.340992
 20
1.086133
 30
0.0
 11
16.535443
 21
1.086133
 31
0.0
  0
LINE
  5
281
100
AcDbEntity
  8
Layer_1
 62
7
100
AcDbLine
 10
16.535443
 20
1.086133
 30
0.0
 11
16.729893
 21
1.086133
 31
0.0
  0
LINE
  5
282
100
AcDbEntity
  8
Layer_1
 62
7
100
AcDbLine
 10
16.729893
 20
1.086133
 30
0.0
 11
16.729893
 21
1.528065
 31
0.0
  0
LINE
  5
283
100
AcDbEntity
  8
Layer_1
 62
7
100
AcDbLine
 10
16.729893
 20
1.528065
 30
0.0
 11
16.729893
 21
1.969996
 31
0.0
  0
LINE
  5
284
100
AcDbEntity
  8
Layer_1
 62
7
100
AcDbLine
 10
16.729893
 20
1.969996
 30
0.0
 11
16.734717
 21
2.094541
 31
0.0
  0
LINE
  5
285
100
AcDbEntity
  8
Layer_1
 62
7
100
AcDbLine
 10
16.734717
 20
2.094541
 30
0.0
 11
16.749178
 21
2.198201
 31
0.0
  0
LINE
  5
286
100
AcDbEntity
  8
Layer_1
 62
7
100
AcDbLine
 10
16.749178
 20
2.198201
 30
0.0
 11
16.771676
 21
2.284985
 31
0.0
  0
LINE
  5
287
100
AcDbEntity
  8
Layer_1
 62
7
100
AcDbLine
 10
16.771676
 20
2.284985
 30
0.0
 11
16.807030
 21
2.352492
 31
0.0
  0
LINE
  5
288
100
AcDbEntity
  8
Layer_1
 62
7
100
AcDbLine
 10
16.807030
 20
2.352492
 30
0.0
 11
16.853634
 21
2.404703
 31
0.0
  0
LINE
  5
289
100
AcDbEntity
  8
Layer_1
 62
7
100
AcDbLine
 10
16.853634
 20
2.404703
 30
0.0
 11
16.916308
 21
2.439247
 31
0.0
  0
LINE
  5
28a
100
AcDbEntity
  8
Layer_1
 62
7
100
AcDbLine
 10
16.916308
 20
2.439247
 30
0.0
 11
16.991839
 21
2.460978
 31
0.0
  0
LINE
  5
28b
100
AcDbEntity
  8
Layer_1
 62
7
100
AcDbLine
 10
16.991839
 20
2.460978
 30
0.0
 11
17.083439
 21
2.468316
 31
0.0
  0
LINE
  5
28c
100
AcDbEntity
  8
Layer_1
 62
7
100
AcDbLine
 10
17.083439
 20
2.468316
 30
0.0
 11
17.158970
 21
2.465494
 31
0.0
  0
LINE
  5
28d
100
AcDbEntity
  8
Layer_1
 62
7
100
AcDbLine
 10
17.158970
 20
2.465494
 30
0.0
 11
17.237714
 21
2.458156
 31
0.0
  0
LINE
  5
28e
100
AcDbEntity
  8
Layer_1
 62
7
100
AcDbLine
 10
17.237714
 20
2.458156
 30
0.0
 11
17.307620
 21
2.449125
 31
0.0
  0
LINE
  5
28f
100
AcDbEntity
  8
Layer_1
 62
7
100
AcDbLine
 10
17.307620
 20
2.449125
 30
0.0
 11
17.356634
 21
2.442070
 31
0.0
  0
LINE
  5
290
100
AcDbEntity
  8
Layer_1
 62
7
100
AcDbLine
 10
17.356634
 20
2.442070
 30
0.0
 11
17.356634
 21
1.763890
 31
0.0
  0
LINE
  5
291
100
AcDbEntity
  8
Layer_1
 62
7
100
AcDbLine
 10
17.356634
 20
1.763890
 30
0.0
 11
17.356634
 21
1.085738
 31
0.0
  0
LINE
  5
292
100
AcDbEntity
  8
Layer_1
 62
7
100
AcDbLine
 10
17.356634
 20
1.085738
 30
0.0
 11
17.551085
 21
1.085738
 31
0.0
  0
LINE
  5
293
100
AcDbEntity
  8
Layer_1
 62
7
100
AcDbLine
 10
17.551085
 20
1.085738
 30
0.0
 11
17.745536
 21
1.085738
 31
0.0
  0
LINE
  5
294
100
AcDbEntity
  8
Layer_1
 62
7
100
AcDbLine
 10
17.745536
 20
1.085738
 30
0.0
 11
17.745536
 21
1.898905
 31
0.0
  0
LINE
  5
295
100
AcDbEntity
  8
Layer_1
 62
7
100
AcDbLine
 10
17.745536
 20
1.898905
 30
0.0
 11
17.745536
 21
2.712072
 31
0.0
  0
LINE
  5
296
100
AcDbEntity
  8
Layer_1
 62
7
100
AcDbLine
 10
15.270909
 20
1.359155
 30
0.0
 11
15.112617
 21
1.363952
 31
0.0
  0
LINE
  5
297
100
AcDbEntity
  8
Layer_1
 62
7
100
AcDbLine
 10
15.112617
 20
1.363952
 30
0.0
 11
14.997714
 21
1.378346
 31
0.0
  0
LINE
  5
298
100
AcDbEntity
  8
Layer_1
 62
7
100
AcDbLine
 10
14.997714
 20
1.378346
 30
0.0
 11
14.997714
 21
1.593681
 31
0.0
  0
LINE
  5
299
100
AcDbEntity
  8
Layer_1
 62
7
100
AcDbLine
 10
14.997714
 20
1.593681
 30
0.0
 11
14.997714
 21
1.809017
 31
0.0
  0
LINE
  5
29a
100
AcDbEntity
  8
Layer_1
 62
7
100
AcDbLine
 10
14.997714
 20
1.809017
 30
0.0
 11
15.037087
 21
1.818612
 31
0.0
  0
LINE
  5
29b
100
AcDbEntity
  8
Layer_1
 62
7
100
AcDbLine
 10
15.037087
 20
1.818612
 30
0.0
 11
15.090921
 21
1.828208
 31
0.0
  0
LINE
  5
29c
100
AcDbEntity
  8
Layer_1
 62
7
100
AcDbLine
 10
15.090921
 20
1.828208
 30
0.0
 11
15.155204
 21
1.835546
 31
0.0
  0
LINE
  5
29d
100
AcDbEntity
  8
Layer_1
 62
7
100
AcDbLine
 10
15.155204
 20
1.835546
 30
0.0
 11
15.225912
 21
1.838368
 31
0.0
  0
LINE
  5
29e
100
AcDbEntity
  8
Layer_1
 62
7
100
AcDbLine
 10
15.225912
 20
1.838368
 30
0.0
 11
15.290997
 21
1.835546
 31
0.0
  0
LINE
  5
29f
100
AcDbEntity
  8
Layer_1
 62
7
100
AcDbLine
 10
15.290997
 20
1.835546
 30
0.0
 11
15.357689
 21
1.828208
 31
0.0
  0
LINE
  5
2a0
100
AcDbEntity
  8
Layer_1
 62
7
100
AcDbLine
 10
15.357689
 20
1.828208
 30
0.0
 11
15.419560
 21
1.814379
 31
0.0
  0
LINE
  5
2a1
100
AcDbEntity
  8
Layer_1
 62
7
100
AcDbLine
 10
15.419560
 20
1.814379
 30
0.0
 11
15.476609
 21
1.792648
 31
0.0
  0
LINE
  5
2a2
100
AcDbEntity
  8
Layer_1
 62
7
100
AcDbLine
 10
15.476609
 20
1.792648
 30
0.0
 11
15.523213
 21
1.761265
 31
0.0
  0
LINE
  5
2a3
100
AcDbEntity
  8
Layer_1
 62
7
100
AcDbLine
 10
15.523213
 20
1.761265
 30
0.0
 11
15.560174
 21
1.718706
 31
0.0
  0
LINE
  5
2a4
100
AcDbEntity
  8
Layer_1
 62
7
100
AcDbLine
 10
15.560174
 20
1.718706
 30
0.0
 11
15.584279
 21
1.667285
 31
0.0
  0
LINE
  5
2a5
100
AcDbEntity
  8
Layer_1
 62
7
100
AcDbLine
 10
15.584279
 20
1.667285
 30
0.0
 11
15.592314
 21
1.603023
 31
0.0
  0
LINE
  5
2a6
100
AcDbEntity
  8
Layer_1
 62
7
100
AcDbLine
 10
15.592314
 20
1.603023
 30
0.0
 11
15.570619
 21
1.485703
 31
0.0
  0
LINE
  5
2a7
100
AcDbEntity
  8
Layer_1
 62
7
100
AcDbLine
 10
15.570619
 20
1.485703
 30
0.0
 11
15.505534
 21
1.410152
 31
0.0
  0
LINE
  5
2a8
100
AcDbEntity
  8
Layer_1
 62
7
100
AcDbLine
 10
15.505534
 20
1.410152
 30
0.0
 11
15.403488
 21
1.371601
 31
0.0
  0
LINE
  5
2a9
100
AcDbEntity
  8
Layer_1
 62
7
100
AcDbLine
 10
15.403488
 20
1.371601
 30
0.0
 11
15.270908
 21
1.358618
 31
0.0
  0
LINE
  5
2aa
100
AcDbEntity
  8
Layer_1
 62
7
100
AcDbLine
 10
15.303048
 20
2.808168
 30
0.0
 11
15.125472
 21
2.796033
 31
0.0
  0
LINE
  5
2ab
100
AcDbEntity
  8
Layer_1
 62
7
100
AcDbLine
 10
15.125472
 20
2.796033
 30
0.0
 11
14.978428
 21
2.759880
 31
0.0
  0
LINE
  5
2ac
100
AcDbEntity
  8
Layer_1
 62
7
100
AcDbLine
 10
14.978428
 20
2.759880
 30
0.0
 11
14.860312
 21
2.702024
 31
0.0
  0
LINE
  5
2ad
100
AcDbEntity
  8
Layer_1
 62
7
100
AcDbLine
 10
14.860312
 20
2.702024
 30
0.0
 11
14.769514
 21
2.624893
 31
0.0
  0
LINE
  5
2ae
100
AcDbEntity
  8
Layer_1
 62
7
100
AcDbLine
 10
14.769514
 20
2.624893
 30
0.0
 11
14.701216
 21
2.528458
 31
0.0
  0
LINE
  5
2af
100
AcDbEntity
  8
Layer_1
 62
7
100
AcDbLine
 10
14.701216
 20
2.528458
 30
0.0
 11
14.657022
 21
2.412747
 31
0.0
  0
LINE
  5
2b0
100
AcDbEntity
  8
Layer_1
 62
7
100
AcDbLine
 10
14.657022
 20
2.412747
 30
0.0
 11
14.630507
 21
2.284194
 31
0.0
  0
LINE
  5
2b1
100
AcDbEntity
  8
Layer_1
 62
7
100
AcDbLine
 10
14.630507
 20
2.284194
 30
0.0
 11
14.621668
 21
2.142773
 31
0.0
  0
LINE
  5
2b2
100
AcDbEntity
  8
Layer_1
 62
7
100
AcDbLine
 10
14.621668
 20
2.142773
 30
0.0
 11
14.621668
 21
1.633334
 31
0.0
  0
LINE
  5
2b3
100
AcDbEntity
  8
Layer_1
 62
7
100
AcDbLine
 10
14.621668
 20
1.633334
 30
0.0
 11
14.621668
 21
1.123922
 31
0.0
  0
LINE
  5
2b4
100
AcDbEntity
  8
Layer_1
 62
7
100
AcDbLine
 10
14.621668
 20
1.123922
 30
0.0
 11
14.734964
 21
1.103038
 31
0.0
  0
LINE
  5
2b5
100
AcDbEntity
  8
Layer_1
 62
7
100
AcDbLine
 10
14.734964
 20
1.103038
 30
0.0
 11
14.894863
 21
1.079049
 31
0.0
  0
LINE
  5
2b6
100
AcDbEntity
  8
Layer_1
 62
7
100
AcDbLine
 10
14.894863
 20
1.079049
 30
0.0
 11
15.086904
 21
1.057318
 31
0.0
  0
LINE
  5
2b7
100
AcDbEntity
  8
Layer_1
 62
7
100
AcDbLine
 10
15.086904
 20
1.057318
 30
0.0
 11
15.303049
 21
1.049980
 31
0.0
  0
LINE
  5
2b8
100
AcDbEntity
  8
Layer_1
 62
7
100
AcDbLine
 10
15.303049
 20
1.049980
 30
0.0
 11
15.447682
 21
1.057318
 31
0.0
  0
LINE
  5
2b9
100
AcDbEntity
  8
Layer_1
 62
7
100
AcDbLine
 10
15.447682
 20
1.057318
 30
0.0
 11
15.579458
 21
1.079049
 31
0.0
  0
LINE
  5
2ba
100
AcDbEntity
  8
Layer_1
 62
7
100
AcDbLine
 10
15.579458
 20
1.079049
 30
0.0
 11
15.695968
 21
1.116782
 31
0.0
  0
LINE
  5
2bb
100
AcDbEntity
  8
Layer_1
 62
7
100
AcDbLine
 10
15.695968
 20
1.116782
 30
0.0
 11
15.794800
 21
1.172267
 31
0.0
  0
LINE
  5
2bc
100
AcDbEntity
  8
Layer_1
 62
7
100
AcDbLine
 10
15.794800
 20
1.172267
 30
0.0
 11
15.872741
 21
1.246181
 31
0.0
  0
LINE
  5
2bd
100
AcDbEntity
  8
Layer_1
 62
7
100
AcDbLine
 10
15.872741
 20
1.246181
 30
0.0
 11
15.933005
 21
1.339399
 31
0.0
  0
LINE
  5
2be
100
AcDbEntity
  8
Layer_1
 62
7
100
AcDbLine
 10
15.933005
 20
1.339399
 30
0.0
 11
15.969163
 21
1.454292
 31
0.0
  0
LINE
  5
2bf
100
AcDbEntity
  8
Layer_1
 62
7
100
AcDbLine
 10
15.969163
 20
1.454292
 30
0.0
 11
15.981217
 21
1.593314
 31
0.0
  0
LINE
  5
2c0
100
AcDbEntity
  8
Layer_1
 62
7
100
AcDbLine
 10
15.981217
 20
1.593314
 30
0.0
 11
15.967557
 21
1.726693
 31
0.0
  0
LINE
  5
2c1
100
AcDbEntity
  8
Layer_1
 62
7
100
AcDbLine
 10
15.967557
 20
1.726693
 30
0.0
 11
15.926578
 21
1.837578
 31
0.0
  0
LINE
  5
2c2
100
AcDbEntity
  8
Layer_1
 62
7
100
AcDbLine
 10
15.926578
 20
1.837578
 30
0.0
 11
15.859082
 21
1.927578
 31
0.0
  0
LINE
  5
2c3
100
AcDbEntity
  8
Layer_1
 62
7
100
AcDbLine
 10
15.859082
 20
1.927578
 30
0.0
 11
15.772302
 21
1.998275
 31
0.0
  0
LINE
  5
2c4
100
AcDbEntity
  8
Layer_1
 62
7
100
AcDbLine
 10
15.772302
 20
1.998275
 30
0.0
 11
15.668649
 21
2.052942
 31
0.0
  0
LINE
  5
2c5
100
AcDbEntity
  8
Layer_1
 62
7
100
AcDbLine
 10
15.668649
 20
2.052942
 30
0.0
 11
15.550532
 21
2.088276
 31
0.0
  0
LINE
  5
2c6
100
AcDbEntity
  8
Layer_1
 62
7
100
AcDbLine
 10
15.550532
 20
2.088276
 30
0.0
 11
15.419560
 21
2.110007
 31
0.0
  0
LINE
  5
2c7
100
AcDbEntity
  8
Layer_1
 62
7
100
AcDbLine
 10
15.419560
 20
2.110007
 30
0.0
 11
15.283765
 21
2.117345
 31
0.0
  0
LINE
  5
2c8
100
AcDbEntity
  8
Layer_1
 62
7
100
AcDbLine
 10
15.283765
 20
2.117345
 30
0.0
 11
15.217877
 21
2.114522
 31
0.0
  0
LINE
  5
2c9
100
AcDbEntity
  8
Layer_1
 62
7
100
AcDbLine
 10
15.217877
 20
2.114522
 30
0.0
 11
15.148774
 21
2.107185
 31
0.0
  0
LINE
  5
2ca
100
AcDbEntity
  8
Layer_1
 62
7
100
AcDbLine
 10
15.148774
 20
2.107185
 30
0.0
 11
15.075656
 21
2.097589
 31
0.0
  0
LINE
  5
2cb
100
AcDbEntity
  8
Layer_1
 62
7
100
AcDbLine
 10
15.075656
 20
2.097589
 30
0.0
 11
14.997714
 21
2.081502
 31
0.0
  0
LINE
  5
2cc
100
AcDbEntity
  8
Layer_1
 62
7
100
AcDbLine
 10
14.997714
 20
2.081502
 30
0.0
 11
14.997714
 21
2.113648
 31
0.0
  0
LINE
  5
2cd
100
AcDbEntity
  8
Layer_1
 62
7
100
AcDbLine
 10
14.997714
 20
2.113648
 30
0.0
 11
14.997714
 21
2.145793
 31
0.0
  0
LINE
  5
2ce
100
AcDbEntity
  8
Layer_1
 62
7
100
AcDbLine
 10
14.997714
 20
2.145793
 30
0.0
 11
15.001732
 21
2.211663
 31
0.0
  0
LINE
  5
2cf
100
AcDbEntity
  8
Layer_1
 62
7
100
AcDbLine
 10
15.001732
 20
2.211663
 30
0.0
 11
15.013783
 21
2.274345
 31
0.0
  0
LINE
  5
2d0
100
AcDbEntity
  8
Layer_1
 62
7
100
AcDbLine
 10
15.013783
 20
2.274345
 30
0.0
 11
15.036282
 21
2.331410
 31
0.0
  0
LINE
  5
2d1
100
AcDbEntity
  8
Layer_1
 62
7
100
AcDbLine
 10
15.036282
 20
2.331410
 30
0.0
 11
15.071637
 21
2.380404
 31
0.0
  0
LINE
  5
2d2
100
AcDbEntity
  8
Layer_1
 62
7
100
AcDbLine
 10
15.071637
 20
2.380404
 30
0.0
 11
15.117438
 21
2.422991
 31
0.0
  0
LINE
  5
2d3
100
AcDbEntity
  8
Layer_1
 62
7
100
AcDbLine
 10
15.117438
 20
2.422991
 30
0.0
 11
15.177701
 21
2.454346
 31
0.0
  0
LINE
  5
2d4
100
AcDbEntity
  8
Layer_1
 62
7
100
AcDbLine
 10
15.177701
 20
2.454346
 30
0.0
 11
15.250821
 21
2.473537
 31
0.0
  0
LINE
  5
2d5
100
AcDbEntity
  8
Layer_1
 62
7
100
AcDbLine
 10
15.250821
 20
2.473537
 30
0.0
 11
15.341618
 21
2.480028
 31
0.0
  0
LINE
  5
2d6
100
AcDbEntity
  8
Layer_1
 62
7
100
AcDbLine
 10
15.341618
 20
2.480028
 30
0.0
 11
15.470984
 21
2.475231
 31
0.0
  0
LINE
  5
2d7
100
AcDbEntity
  8
Layer_1
 62
7
100
AcDbLine
 10
15.470984
 20
2.475231
 30
0.0
 11
15.589100
 21
2.460837
 31
0.0
  0
LINE
  5
2d8
100
AcDbEntity
  8
Layer_1
 62
7
100
AcDbLine
 10
15.589100
 20
2.460837
 30
0.0
 11
15.691147
 21
2.439953
 31
0.0
  0
LINE
  5
2d9
100
AcDbEntity
  8
Layer_1
 62
7
100
AcDbLine
 10
15.691147
 20
2.439953
 30
0.0
 11
15.772302
 21
2.415964
 31
0.0
  0
LINE
  5
2da
100
AcDbEntity
  8
Layer_1
 62
7
100
AcDbLine
 10
15.772302
 20
2.415964
 30
0.0
 11
15.796406
 21
2.573444
 31
0.0
  0
LINE
  5
2db
100
AcDbEntity
  8
Layer_1
 62
7
100
AcDbLine
 10
15.796406
 20
2.573444
 30
0.0
 11
15.820511
 21
2.730952
 31
0.0
  0
LINE
  5
2dc
100
AcDbEntity
  8
Layer_1
 62
7
100
AcDbLine
 10
15.820511
 20
2.730952
 30
0.0
 11
15.729714
 21
2.756634
 31
0.0
  0
LINE
  5
2dd
100
AcDbEntity
  8
Layer_1
 62
7
100
AcDbLine
 10
15.729714
 20
2.756634
 30
0.0
 11
15.605169
 21
2.782317
 31
0.0
  0
LINE
  5
2de
100
AcDbEntity
  8
Layer_1
 62
7
100
AcDbLine
 10
15.605169
 20
2.782317
 30
0.0
 11
15.458930
 21
2.801508
 31
0.0
  0
LINE
  5
2df
100
AcDbEntity
  8
Layer_1
 62
7
100
AcDbLine
 10
15.458930
 20
2.801508
 30
0.0
 11
15.303047
 21
2.807999
 31
0.0
  0
LINE
  5
2e0
100
AcDbEntity
  8
Layer_1
 62
7
100
AcDbLine
 10
13.563589
 20
1.053818
 30
0.0
 11
13.722686
 21
1.065390
 31
0.0
  0
LINE
  5
2e1
100
AcDbEntity
  8
Layer_1
 62
7
100
AcDbLine
 10
13.722686
 20
1.065390
 30
0.0
 11
13.852855
 21
1.092483
 31
0.0
  0
LINE
  5
2e2
100
AcDbEntity
  8
Layer_1
 62
7
100
AcDbLine
 10
13.852855
 20
1.092483
 30
0.0
 11
13.954098
 21
1.135127
 31
0.0
  0
LINE
  5
2e3
100
AcDbEntity
  8
Layer_1
 62
7
100
AcDbLine
 10
13.954098
 20
1.135127
 30
0.0
 11
14.032842
 21
1.192107
 31
0.0
  0
LINE
  5
2e4
100
AcDbEntity
  8
Layer_1
 62
7
100
AcDbLine
 10
14.032842
 20
1.192107
 30
0.0
 11
14.090696
 21
1.266840
 31
0.0
  0
LINE
  5
2e5
100
AcDbEntity
  8
Layer_1
 62
7
100
AcDbLine
 10
14.090696
 20
1.266840
 30
0.0
 11
14.129264
 21
1.356022
 31
0.0
  0
LINE
  5
2e6
100
AcDbEntity
  8
Layer_1
 62
7
100
AcDbLine
 10
14.129264
 20
1.356022
 30
0.0
 11
14.148548
 21
1.462081
 31
0.0
  0
LINE
  5
2e7
100
AcDbEntity
  8
Layer_1
 62
7
100
AcDbLine
 10
14.148548
 20
1.462081
 30
0.0
 11
14.154977
 21
1.581010
 31
0.0
  0
LINE
  5
2e8
100
AcDbEntity
  8
Layer_1
 62
7
100
AcDbLine
 10
14.154977
 20
1.581010
 30
0.0
 11
14.154977
 21
2.548439
 31
0.0
  0
LINE
  5
2e9
100
AcDbEntity
  8
Layer_1
 62
7
100
AcDbLine
 10
14.154977
 20
2.548439
 30
0.0
 11
14.154977
 21
3.515897
 31
0.0
  0
LINE
  5
2ea
100
AcDbEntity
  8
Layer_1
 62
7
100
AcDbLine
 10
14.154977
 20
3.515897
 30
0.0
 11
13.960527
 21
3.548014
 31
0.0
  0
LINE
  5
2eb
100
AcDbEntity
  8
Layer_1
 62
7
100
AcDbLine
 10
13.960527
 20
3.548014
 30
0.0
 11
13.766076
 21
3.580159
 31
0.0
  0
LINE
  5
2ec
100
AcDbEntity
  8
Layer_1
 62
7
100
AcDbLine
 10
13.766076
 20
3.580159
 30
0.0
 11
13.766076
 21
2.617555
 31
0.0
  0
LINE
  5
2ed
100
AcDbEntity
  8
Layer_1
 62
7
100
AcDbLine
 10
13.766076
 20
2.617555
 30
0.0
 11
13.766076
 21
1.654952
 31
0.0
  0
LINE
  5
2ee
100
AcDbEntity
  8
Layer_1
 62
7
100
AcDbLine
 10
13.766076
 20
1.654952
 30
0.0
 11
13.763677
 21
1.589843
 31
0.0
  0
LINE
  5
2ef
100
AcDbEntity
  8
Layer_1
 62
7
100
AcDbLine
 10
13.763677
 20
1.589843
 30
0.0
 11
13.756447
 21
1.536023
 31
0.0
  0
LINE
  5
2f0
100
AcDbEntity
  8
Layer_1
 62
7
100
AcDbLine
 10
13.756447
 20
1.536023
 30
0.0
 11
13.739573
 21
1.491009
 31
0.0
  0
LINE
  5
2f1
100
AcDbEntity
  8
Layer_1
 62
7
100
AcDbLine
 10
13.739573
 20
1.491009
 30
0.0
 11
13.714664
 21
1.452457
 31
0.0
  0
LINE
  5
2f2
100
AcDbEntity
  8
Layer_1
 62
7
100
AcDbLine
 10
13.714664
 20
1.452457
 30
0.0
 11
13.680916
 21
1.423530
 31
0.0
  0
LINE
  5
2f3
100
AcDbEntity
  8
Layer_1
 62
7
100
AcDbLine
 10
13.680916
 20
1.423530
 30
0.0
 11
13.637526
 21
1.400952
 31
0.0
  0
LINE
  5
2f4
100
AcDbEntity
  8
Layer_1
 62
7
100
AcDbLine
 10
13.637526
 20
1.400952
 30
0.0
 11
13.579674
 21
1.386558
 31
0.0
  0
LINE
  5
2f5
100
AcDbEntity
  8
Layer_1
 62
7
100
AcDbLine
 10
13.579674
 20
1.386558
 30
0.0
 11
13.508964
 21
1.375270
 31
0.0
  0
LINE
  5
2f6
100
AcDbEntity
  8
Layer_1
 62
7
100
AcDbLine
 10
13.508964
 20
1.375270
 30
0.0
 11
13.536283
 21
1.214544
 31
0.0
  0
LINE
  5
2f7
100
AcDbEntity
  8
Layer_1
 62
7
100
AcDbLine
 10
13.536283
 20
1.214544
 30
0.0
 11
13.563602
 21
1.053847
 31
0.0
  0
LINE
  5
2f8
100
AcDbEntity
  8
Layer_1
 62
7
100
AcDbLine
 10
12.757263
 20
1.298110
 30
0.0
 11
12.776547
 21
1.196058
 31
0.0
  0
LINE
  5
2f9
100
AcDbEntity
  8
Layer_1
 62
7
100
AcDbLine
 10
12.776547
 20
1.196058
 30
0.0
 11
12.834400
 21
1.114891
 31
0.0
  0
LINE
  5
2fa
100
AcDbEntity
  8
Layer_1
 62
7
100
AcDbLine
 10
12.834400
 20
1.114891
 30
0.0
 11
12.916359
 21
1.061862
 31
0.0
  0
LINE
  5
2fb
100
AcDbEntity
  8
Layer_1
 62
7
100
AcDbLine
 10
12.916359
 20
1.061862
 30
0.0
 11
13.014387
 21
1.044082
 31
0.0
  0
LINE
  5
2fc
100
AcDbEntity
  8
Layer_1
 62
7
100
AcDbLine
 10
13.014387
 20
1.044082
 30
0.0
 11
13.114827
 21
1.061580
 31
0.0
  0
LINE
  5
2fd
100
AcDbEntity
  8
Layer_1
 62
7
100
AcDbLine
 10
13.114827
 20
1.061580
 30
0.0
 11
13.197589
 21
1.114666
 31
0.0
  0
LINE
  5
2fe
100
AcDbEntity
  8
Layer_1
 62
7
100
AcDbLine
 10
13.197589
 20
1.114666
 30
0.0
 11
13.253032
 21
1.195804
 31
0.0
  0
LINE
  5
2ff
100
AcDbEntity
  8
Layer_1
 62
7
100
AcDbLine
 10
13.253032
 20
1.195804
 30
0.0
 11
13.271512
 21
1.297884
 31
0.0
  0
LINE
  5
300
100
AcDbEntity
  8
Layer_1
 62
7
100
AcDbLine
 10
13.271512
 20
1.297884
 30
0.0
 11
13.253032
 21
1.399936
 31
0.0
  0
LINE
  5
301
100
AcDbEntity
  8
Layer_1
 62
7
100
AcDbLine
 10
13.253032
 20
1.399936
 30
0.0
 11
13.197589
 21
1.481075
 31
0.0
  0
LINE
  5
302
100
AcDbEntity
  8
Layer_1
 62
7
100
AcDbLine
 10
13.197589
 20
1.481075
 30
0.0
 11
13.114827
 21
1.536503
 31
0.0
  0
LINE
  5
303
100
AcDbEntity
  8
Layer_1
 62
7
100
AcDbLine
 10
13.114827
 20
1.536503
 30
0.0
 11
13.014387
 21
1.554848
 31
0.0
  0
LINE
  5
304
100
AcDbEntity
  8
Layer_1
 62
7
100
AcDbLine
 10
13.014387
 20
1.554848
 30
0.0
 11
12.916359
 21
1.536503
 31
0.0
  0
LINE
  5
305
100
AcDbEntity
  8
Layer_1
 62
7
100
AcDbLine
 10
12.916359
 20
1.536503
 30
0.0
 11
12.834400
 21
1.481046
 31
0.0
  0
LINE
  5
306
100
AcDbEntity
  8
Layer_1
 62
7
100
AcDbLine
 10
12.834400
 20
1.481046
 30
0.0
 11
12.776547
 21
1.399908
 31
0.0
  0
LINE
  5
307
100
AcDbEntity
  8
Layer_1
 62
7
100
AcDbLine
 10
12.776547
 20
1.399908
 30
0.0
 11
12.757263
 21
1.297856
 31
0.0
  0
LINE
  5
308
100
AcDbEntity
  8
Layer_1
 62
7
100
AcDbLine
 10
12.433848
 20
1.924841
 30
0.0
 11
12.419384
 21
2.104814
 31
0.0
  0
LINE
  5
309
100
AcDbEntity
  8
Layer_1
 62
7
100
AcDbLine
 10
12.419384
 20
2.104814
 30
0.0
 11
12.375994
 21
2.271946
 31
0.0
  0
LINE
  5
30a
100
AcDbEntity
  8
Layer_1
 62
7
100
AcDbLine
 10
12.375994
 20
2.271946
 30
0.0
 11
12.306088
 21
2.424628
 31
0.0
  0
LINE
  5
30b
100
AcDbEntity
  8
Layer_1
 62
7
100
AcDbLine
 10
12.306088
 20
2.424628
 30
0.0
 11
12.212077
 21
2.554789
 31
0.0
  0
LINE
  5
30c
100
AcDbEntity
  8
Layer_1
 62
7
100
AcDbLine
 10
12.212077
 20
2.554789
 30
0.0
 11
12.091550
 21
2.660848
 31
0.0
  0
LINE
  5
30d
100
AcDbEntity
  8
Layer_1
 62
7
100
AcDbLine
 10
12.091550
 20
2.660848
 30
0.0
 11
11.948524
 21
2.741197
 31
0.0
  0
LINE
  5
30e
100
AcDbEntity
  8
Layer_1
 62
7
100
AcDbLine
 10
11.948524
 20
2.741197
 30
0.0
 11
11.784607
 21
2.791828
 31
0.0
  0
LINE
  5
30f
100
AcDbEntity
  8
Layer_1
 62
7
100
AcDbLine
 10
11.784607
 20
2.791828
 30
0.0
 11
11.601405
 21
2.808761
 31
0.0
  0
LINE
  5
310
100
AcDbEntity
  8
Layer_1
 62
7
100
AcDbLine
 10
11.601405
 20
2.808761
 30
0.0
 11
11.369994
 21
2.787030
 31
0.0
  0
LINE
  5
311
100
AcDbEntity
  8
Layer_1
 62
7
100
AcDbLine
 10
11.369994
 20
2.787030
 30
0.0
 11
11.151437
 21
2.721949
 31
0.0
  0
LINE
  5
312
100
AcDbEntity
  8
Layer_1
 62
7
100
AcDbLine
 10
11.151437
 20
2.721949
 30
0.0
 11
11.193220
 21
2.562861
 31
0.0
  0
LINE
  5
313
100
AcDbEntity
  8
Layer_1
 62
7
100
AcDbLine
 10
11.193220
 20
2.562861
 30
0.0
 11
11.235002
 21
2.403772
 31
0.0
  0
LINE
  5
314
100
AcDbEntity
  8
Layer_1
 62
7
100
AcDbLine
 10
11.235002
 20
2.403772
 30
0.0
 11
11.307320
 21
2.430301
 31
0.0
  0
LINE
  5
315
100
AcDbEntity
  8
Layer_1
 62
7
100
AcDbLine
 10
11.307320
 20
2.430301
 30
0.0
 11
11.389277
 21
2.452032
 31
0.0
  0
LINE
  5
316
100
AcDbEntity
  8
Layer_1
 62
7
100
AcDbLine
 10
11.389277
 20
2.452032
 30
0.0
 11
11.476058
 21
2.466425
 31
0.0
  0
LINE
  5
317
100
AcDbEntity
  8
Layer_1
 62
7
100
AcDbLine
 10
11.476058
 20
2.466425
 30
0.0
 11
11.569265
 21
2.471223
 31
0.0
  0
LINE
  5
318
100
AcDbEntity
  8
Layer_1
 62
7
100
AcDbLine
 10
11.569265
 20
2.471223
 30
0.0
 11
11.770144
 21
2.435070
 31
0.0
  0
LINE
  5
319
100
AcDbEntity
  8
Layer_1
 62
7
100
AcDbLine
 10
11.770144
 20
2.435070
 30
0.0
 11
11.916383
 21
2.326584
 31
0.0
  0
LINE
  5
31a
100
AcDbEntity
  8
Layer_1
 62
7
100
AcDbLine
 10
11.916383
 20
2.326584
 30
0.0
 11
12.005574
 21
2.155445
 31
0.0
  0
LINE
  5
31b
100
AcDbEntity
  8
Layer_1
 62
7
100
AcDbLine
 10
12.005574
 20
2.155445
 30
0.0
 11
12.035303
 21
1.924841
 31
0.0
  0
LINE
  5
31c
100
AcDbEntity
  8
Layer_1
 62
7
100
AcDbLine
 10
12.035303
 20
1.924841
 30
0.0
 11
12.007180
 21
1.699853
 31
0.0
  0
LINE
  5
31d
100
AcDbEntity
  8
Layer_1
 62
7
100
AcDbLine
 10
12.007180
 20
1.699853
 30
0.0
 11
11.922811
 21
1.526287
 31
0.0
  0
LINE
  5
31e
100
AcDbEntity
  8
Layer_1
 62
7
100
AcDbLine
 10
11.922811
 20
1.526287
 30
0.0
 11
11.771751
 21
1.417829
 31
0.0
  0
LINE
  5
31f
100
AcDbEntity
  8
Layer_1
 62
7
100
AcDbLine
 10
11.771751
 20
1.417829
 30
0.0
 11
11.543552
 21
1.381676
 31
0.0
  0
LINE
  5
320
100
AcDbEntity
  8
Layer_1
 62
7
100
AcDbLine
 10
11.543552
 20
1.381676
 30
0.0
 11
11.444720
 21
1.386474
 31
0.0
  0
LINE
  5
321
100
AcDbEntity
  8
Layer_1
 62
7
100
AcDbLine
 10
11.444720
 20
1.386474
 30
0.0
 11
11.347494
 21
1.400867
 31
0.0
  0
LINE
  5
322
100
AcDbEntity
  8
Layer_1
 62
7
100
AcDbLine
 10
11.347494
 20
1.400867
 30
0.0
 11
11.257501
 21
1.422598
 31
0.0
  0
LINE
  5
323
100
AcDbEntity
  8
Layer_1
 62
7
100
AcDbLine
 10
11.257501
 20
1.422598
 30
0.0
 11
11.180363
 21
1.449127
 31
0.0
  0
LINE
  5
324
100
AcDbEntity
  8
Layer_1
 62
7
100
AcDbLine
 10
11.180363
 20
1.449127
 30
0.0
 11
11.153043
 21
1.288430
 31
0.0
  0
LINE
  5
325
100
AcDbEntity
  8
Layer_1
 62
7
100
AcDbLine
 10
11.153043
 20
1.288430
 30
0.0
 11
11.125724
 21
1.127732
 31
0.0
  0
LINE
  5
326
100
AcDbEntity
  8
Layer_1
 62
7
100
AcDbLine
 10
11.125724
 20
1.127732
 30
0.0
 11
11.206880
 21
1.097196
 31
0.0
  0
LINE
  5
327
100
AcDbEntity
  8
Layer_1
 62
7
100
AcDbLine
 10
11.206880
 20
1.097196
 30
0.0
 11
11.321782
 21
1.069820
 31
0.0
  0
LINE
  5
328
100
AcDbEntity
  8
Layer_1
 62
7
100
AcDbLine
 10
11.321782
 20
1.069820
 30
0.0
 11
11.452756
 21
1.050629
 31
0.0
  0
LINE
  5
329
100
AcDbEntity
  8
Layer_1
 62
7
100
AcDbLine
 10
11.452756
 20
1.050629
 30
0.0
 11
11.588549
 21
1.044138
 31
0.0
  0
LINE
  5
32a
100
AcDbEntity
  8
Layer_1
 62
7
100
AcDbLine
 10
11.588549
 20
1.044138
 30
0.0
 11
11.790232
 21
1.060225
 31
0.0
  0
LINE
  5
32b
100
AcDbEntity
  8
Layer_1
 62
7
100
AcDbLine
 10
11.790232
 20
1.060225
 30
0.0
 11
11.964594
 21
1.108400
 31
0.0
  0
LINE
  5
32c
100
AcDbEntity
  8
Layer_1
 62
7
100
AcDbLine
 10
11.964594
 20
1.108400
 30
0.0
 11
12.109228
 21
1.187959
 31
0.0
  0
LINE
  5
32d
100
AcDbEntity
  8
Layer_1
 62
7
100
AcDbLine
 10
12.109228
 20
1.187959
 30
0.0
 11
12.228148
 21
1.291619
 31
0.0
  0
LINE
  5
32e
100
AcDbEntity
  8
Layer_1
 62
7
100
AcDbLine
 10
12.228148
 20
1.291619
 30
0.0
 11
12.318141
 21
1.420990
 31
0.0
  0
LINE
  5
32f
100
AcDbEntity
  8
Layer_1
 62
7
100
AcDbLine
 10
12.318141
 20
1.420990
 30
0.0
 11
12.382422
 21
1.571245
 31
0.0
  0
LINE
  5
330
100
AcDbEntity
  8
Layer_1
 62
7
100
AcDbLine
 10
12.382422
 20
1.571245
 30
0.0
 11
12.420991
 21
1.741566
 31
0.0
  0
LINE
  5
331
100
AcDbEntity
  8
Layer_1
 62
7
100
AcDbLine
 10
12.420991
 20
1.741566
 30
0.0
 11
12.433846
 21
1.924784
 31
0.0
  0
LINE
  5
332
100
AcDbEntity
  8
Layer_1
 62
7
100
AcDbLine
 10
9.338907
 20
1.928058
 30
0.0
 11
9.353371
 21
1.737615
 31
0.0
  0
LINE
  5
333
100
AcDbEntity
  8
Layer_1
 62
7
100
AcDbLine
 10
9.353371
 20
1.737615
 30
0.0
 11
9.396759
 21
1.564866
 31
0.0
  0
LINE
  5
334
100
AcDbEntity
  8
Layer_1
 62
7
100
AcDbLine
 10
9.396759
 20
1.564866
 30
0.0
 11
9.466667
 21
1.413003
 31
0.0
  0
LINE
  5
335
100
AcDbEntity
  8
Layer_1
 62
7
100
AcDbLine
 10
9.466667
 20
1.413003
 30
0.0
 11
9.560677
 21
1.285241
 31
0.0
  0
LINE
  5
336
100
AcDbEntity
  8
Layer_1
 62
7
100
AcDbLine
 10
9.560677
 20
1.285241
 30
0.0
 11
9.677991
 21
1.182399
 31
0.0
  0
LINE
  5
337
100
AcDbEntity
  8
Layer_1
 62
7
100
AcDbLine
 10
9.677991
 20
1.182399
 30
0.0
 11
9.817801
 21
1.105239
 31
0.0
  0
LINE
  5
338
100
AcDbEntity
  8
Layer_1
 62
7
100
AcDbLine
 10
9.817801
 20
1.105239
 30
0.0
 11
9.973684
 21
1.057036
 31
0.0
  0
LINE
  5
339
100
AcDbEntity
  8
Layer_1
 62
7
100
AcDbLine
 10
9.973684
 20
1.057036
 30
0.0
 11
10.145636
 21
1.040949
 31
0.0
  0
LINE
  5
33a
100
AcDbEntity
  8
Layer_1
 62
7
100
AcDbLine
 10
10.145636
 20
1.040949
 30
0.0
 11
10.317589
 21
1.057036
 31
0.0
  0
LINE
  5
33b
100
AcDbEntity
  8
Layer_1
 62
7
100
AcDbLine
 10
10.317589
 20
1.057036
 30
0.0
 11
10.473470
 21
1.105211
 31
0.0
  0
LINE
  5
33c
100
AcDbEntity
  8
Layer_1
 62
7
100
AcDbLine
 10
10.473470
 20
1.105211
 30
0.0
 11
10.610871
 21
1.182371
 31
0.0
  0
LINE
  5
33d
100
AcDbEntity
  8
Layer_1
 62
7
100
AcDbLine
 10
10.610871
 20
1.182371
 30
0.0
 11
10.727381
 21
1.285212
 31
0.0
  0
LINE
  5
33e
100
AcDbEntity
  8
Layer_1
 62
7
100
AcDbLine
 10
10.727381
 20
1.285212
 30
0.0
 11
10.822195
 21
1.412974
 31
0.0
  0
LINE
  5
33f
100
AcDbEntity
  8
Layer_1
 62
7
100
AcDbLine
 10
10.822195
 20
1.412974
 30
0.0
 11
10.894512
 21
1.564838
 31
0.0
  0
LINE
  5
340
100
AcDbEntity
  8
Layer_1
 62
7
100
AcDbLine
 10
10.894512
 20
1.564838
 30
0.0
 11
10.937902
 21
1.737586
 31
0.0
  0
LINE
  5
341
100
AcDbEntity
  8
Layer_1
 62
7
100
AcDbLine
 10
10.937902
 20
1.737586
 30
0.0
 11
10.952366
 21
1.928030
 31
0.0
  0
LINE
  5
342
100
AcDbEntity
  8
Layer_1
 62
7
100
AcDbLine
 10
10.952366
 20
1.928030
 30
0.0
 11
10.937902
 21
2.117655
 31
0.0
  0
LINE
  5
343
100
AcDbEntity
  8
Layer_1
 62
7
100
AcDbLine
 10
10.937902
 20
2.117655
 30
0.0
 11
10.894512
 21
2.288004
 31
0.0
  0
LINE
  5
344
100
AcDbEntity
  8
Layer_1
 62
7
100
AcDbLine
 10
10.894512
 20
2.288004
 30
0.0
 11
10.822196
 21
2.439868
 31
0.0
  0
LINE
  5
345
100
AcDbEntity
  8
Layer_1
 62
7
100
AcDbLine
 10
10.822196
 20
2.439868
 30
0.0
 11
10.727381
 21
2.567630
 31
0.0
  0
LINE
  5
346
100
AcDbEntity
  8
Layer_1
 62
7
100
AcDbLine
 10
10.727381
 20
2.567630
 30
0.0
 11
10.608461
 21
2.669682
 31
0.0
  0
LINE
  5
347
100
AcDbEntity
  8
Layer_1
 62
7
100
AcDbLine
 10
10.608461
 20
2.669682
 30
0.0
 11
10.470256
 21
2.744386
 31
0.0
  0
LINE
  5
348
100
AcDbEntity
  8
Layer_1
 62
7
100
AcDbLine
 10
10.470256
 20
2.744386
 30
0.0
 11
10.315178
 21
2.792618
 31
0.0
  0
LINE
  5
349
100
AcDbEntity
  8
Layer_1
 62
7
100
AcDbLine
 10
10.315178
 20
2.792618
 30
0.0
 11
10.145636
 21
2.808704
 31
0.0
  0
LINE
  5
34a
100
AcDbEntity
  8
Layer_1
 62
7
100
AcDbLine
 10
10.145636
 20
2.808704
 30
0.0
 11
9.976095
 21
2.792618
 31
0.0
  0
LINE
  5
34b
100
AcDbEntity
  8
Layer_1
 62
7
100
AcDbLine
 10
9.976095
 20
2.792618
 30
0.0
 11
9.821016
 21
2.744414
 31
0.0
  0
LINE
  5
34c
100
AcDbEntity
  8
Layer_1
 62
7
100
AcDbLine
 10
9.821016
 20
2.744414
 30
0.0
 11
9.681205
 21
2.669710
 31
0.0
  0
LINE
  5
34d
100
AcDbEntity
  8
Layer_1
 62
7
100
AcDbLine
 10
9.681205
 20
2.669710
 30
0.0
 11
9.563891
 21
2.567658
 31
0.0
  0
LINE
  5
34e
100
AcDbEntity
  8
Layer_1
 62
7
100
AcDbLine
 10
9.563891
 20
2.567658
 30
0.0
 11
9.469880
 21
2.439896
 31
0.0
  0
LINE
  5
34f
100
AcDbEntity
  8
Layer_1
 62
7
100
AcDbLine
 10
9.469880
 20
2.439896
 30
0.0
 11
9.399973
 21
2.288033
 31
0.0
  0
LINE
  5
350
100
AcDbEntity
  8
Layer_1
 62
7
100
AcDbLine
 10
9.399973
 20
2.288033
 30
0.0
 11
9.354174
 21
2.117683
 31
0.0
  0
LINE
  5
351
100
AcDbEntity
  8
Layer_1
 62
7
100
AcDbLine
 10
9.354174
 20
2.117683
 30
0.0
 11
9.338906
 21
1.928058
 31
0.0
  0
LINE
  5
352
100
AcDbEntity
  8
Layer_1
 62
7
100
AcDbLine
 10
9.737450
 20
1.928058
 30
0.0
 11
9.764771
 21
2.152227
 31
0.0
  0
LINE
  5
353
100
AcDbEntity
  8
Layer_1
 62
7
100
AcDbLine
 10
9.764771
 20
2.152227
 30
0.0
 11
9.846729
 21
2.323395
 31
0.0
  0
LINE
  5
354
100
AcDbEntity
  8
Layer_1
 62
7
100
AcDbLine
 10
9.846729
 20
2.323395
 30
0.0
 11
9.974489
 21
2.434252
 31
0.0
  0
LINE
  5
355
100
AcDbEntity
  8
Layer_1
 62
7
100
AcDbLine
 10
9.974489
 20
2.434252
 30
0.0
 11
10.145637
 21
2.471223
 31
0.0
  0
LINE
  5
356
100
AcDbEntity
  8
Layer_1
 62
7
100
AcDbLine
 10
10.145637
 20
2.471223
 30
0.0
 11
10.317590
 21
2.434252
 31
0.0
  0
LINE
  5
357
100
AcDbEntity
  8
Layer_1
 62
7
100
AcDbLine
 10
10.317590
 20
2.434252
 30
0.0
 11
10.447759
 21
2.323395
 31
0.0
  0
LINE
  5
358
100
AcDbEntity
  8
Layer_1
 62
7
100
AcDbLine
 10
10.447759
 20
2.323395
 30
0.0
 11
10.527307
 21
2.152227
 31
0.0
  0
LINE
  5
359
100
AcDbEntity
  8
Layer_1
 62
7
100
AcDbLine
 10
10.527307
 20
2.152227
 30
0.0
 11
10.553822
 21
1.928058
 31
0.0
  0
LINE
  5
35a
100
AcDbEntity
  8
Layer_1
 62
7
100
AcDbLine
 10
10.553822
 20
1.928058
 30
0.0
 11
10.527307
 21
1.700672
 31
0.0
  0
LINE
  5
35b
100
AcDbEntity
  8
Layer_1
 62
7
100
AcDbLine
 10
10.527307
 20
1.700672
 30
0.0
 11
10.447759
 21
1.526287
 31
0.0
  0
LINE
  5
35c
100
AcDbEntity
  8
Layer_1
 62
7
100
AcDbLine
 10
10.447759
 20
1.526287
 30
0.0
 11
10.317590
 21
1.415402
 31
0.0
  0
LINE
  5
35d
100
AcDbEntity
  8
Layer_1
 62
7
100
AcDbLine
 10
10.317590
 20
1.415402
 30
0.0
 11
10.145637
 21
1.378459
 31
0.0
  0
LINE
  5
35e
100
AcDbEntity
  8
Layer_1
 62
7
100
AcDbLine
 10
10.145637
 20
1.378459
 30
0.0
 11
9.974489
 21
1.415402
 31
0.0
  0
LINE
  5
35f
100
AcDbEntity
  8
Layer_1
 62
7
100
AcDbLine
 10
9.974489
 20
1.415402
 30
0.0
 11
9.846729
 21
1.526287
 31
0.0
  0
LINE
  5
360
100
AcDbEntity
  8
Layer_1
 62
7
100
AcDbLine
 10
9.846729
 20
1.526287
 30
0.0
 11
9.764772
 21
1.700672
 31
0.0
  0
LINE
  5
361
100
AcDbEntity
  8
Layer_1
 62
7
100
AcDbLine
 10
9.764772
 20
1.700672
 30
0.0
 11
9.737450
 21
1.928058
 31
0.0
  0
LINE
  5
362
100
AcDbEntity
  8
Layer_1
 62
7
100
AcDbLine
 10
7.980465
 20
1.969827
 30
0.0
 11
7.997339
 21
2.196423
 31
0.0
  0
LINE
  5
363
100
AcDbEntity
  8
Layer_1
 62
7
100
AcDbLine
 10
7.997339
 20
2.196423
 30
0.0
 11
8.047960
 21
2.349106
 31
0.0
  0
LINE
  5
364
100
AcDbEntity
  8
Layer_1
 62
7
100
AcDbLine
 10
8.047960
 20
2.349106
 30
0.0
 11
8.141168
 21
2.438288
 31
0.0
  0
LINE
  5
365
100
AcDbEntity
  8
Layer_1
 62
7
100
AcDbLine
 10
8.141168
 20
2.438288
 30
0.0
 11
8.292228
 21
2.468006
 31
0.0
  0
LINE
  5
366
100
AcDbEntity
  8
Layer_1
 62
7
100
AcDbLine
 10
8.292228
 20
2.468006
 30
0.0
 11
8.359724
 21
2.465184
 31
0.0
  0
LINE
  5
367
100
AcDbEntity
  8
Layer_1
 62
7
100
AcDbLine
 10
8.359724
 20
2.465184
 30
0.0
 11
8.433647
 21
2.457846
 31
0.0
  0
LINE
  5
368
100
AcDbEntity
  8
Layer_1
 62
7
100
AcDbLine
 10
8.433647
 20
2.457846
 30
0.0
 11
8.501143
 21
2.448815
 31
0.0
  0
LINE
  5
369
100
AcDbEntity
  8
Layer_1
 62
7
100
AcDbLine
 10
8.501143
 20
2.448815
 30
0.0
 11
8.549353
 21
2.441759
 31
0.0
  0
LINE
  5
36a
100
AcDbEntity
  8
Layer_1
 62
7
100
AcDbLine
 10
8.549353
 20
2.441759
 30
0.0
 11
8.549353
 21
1.763579
 31
0.0
  0
LINE
  5
36b
100
AcDbEntity
  8
Layer_1
 62
7
100
AcDbLine
 10
8.549353
 20
1.763579
 30
0.0
 11
8.549353
 21
1.085427
 31
0.0
  0
LINE
  5
36c
100
AcDbEntity
  8
Layer_1
 62
7
100
AcDbLine
 10
8.549353
 20
1.085427
 30
0.0
 11
8.743804
 21
1.085427
 31
0.0
  0
LINE
  5
36d
100
AcDbEntity
  8
Layer_1
 62
7
100
AcDbLine
 10
8.743804
 20
1.085427
 30
0.0
 11
8.938255
 21
1.085427
 31
0.0
  0
LINE
  5
36e
100
AcDbEntity
  8
Layer_1
 62
7
100
AcDbLine
 10
8.938255
 20
1.085427
 30
0.0
 11
8.938255
 21
1.898594
 31
0.0
  0
LINE
  5
36f
100
AcDbEntity
  8
Layer_1
 62
7
100
AcDbLine
 10
8.938255
 20
1.898594
 30
0.0
 11
8.938255
 21
2.711761
 31
0.0
  0
LINE
  5
370
100
AcDbEntity
  8
Layer_1
 62
7
100
AcDbLine
 10
8.938255
 20
2.711761
 30
0.0
 11
8.808889
 21
2.743088
 31
0.0
  0
LINE
  5
371
100
AcDbEntity
  8
Layer_1
 62
7
100
AcDbLine
 10
8.808889
 20
2.743088
 30
0.0
 11
8.645775
 21
2.772806
 31
0.0
  0
LINE
  5
372
100
AcDbEntity
  8
Layer_1
 62
7
100
AcDbLine
 10
8.645775
 20
2.772806
 30
0.0
 11
8.457753
 21
2.794537
 31
0.0
  0
LINE
  5
373
100
AcDbEntity
  8
Layer_1
 62
7
100
AcDbLine
 10
8.457753
 20
2.794537
 30
0.0
 11
8.260088
 21
2.801875
 31
0.0
  0
LINE
  5
374
100
AcDbEntity
  8
Layer_1
 62
7
100
AcDbLine
 10
8.260088
 20
2.801875
 30
0.0
 11
8.102600
 21
2.790586
 31
0.0
  0
LINE
  5
375
100
AcDbEntity
  8
Layer_1
 62
7
100
AcDbLine
 10
8.102600
 20
2.790586
 30
0.0
 11
7.977250
 21
2.756832
 31
0.0
  0
LINE
  5
376
100
AcDbEntity
  8
Layer_1
 62
7
100
AcDbLine
 10
7.977250
 20
2.756832
 30
0.0
 11
7.874401
 21
2.704593
 31
0.0
  0
LINE
  5
377
100
AcDbEntity
  8
Layer_1
 62
7
100
AcDbLine
 10
7.874401
 20
2.704593
 30
0.0
 11
7.790835
 21
2.637904
 31
0.0
  0
LINE
  5
378
100
AcDbEntity
  8
Layer_1
 62
7
100
AcDbLine
 10
7.790835
 20
2.637904
 30
0.0
 11
7.750660
 21
2.664432
 31
0.0
  0
LINE
  5
379
100
AcDbEntity
  8
Layer_1
 62
7
100
AcDbLine
 10
7.750660
 20
2.664432
 30
0.0
 11
7.700841
 21
2.692655
 31
0.0
  0
LINE
  5
37a
100
AcDbEntity
  8
Layer_1
 62
7
100
AcDbLine
 10
7.700841
 20
2.692655
 30
0.0
 11
7.642989
 21
2.720030
 31
0.0
  0
LINE
  5
37b
100
AcDbEntity
  8
Layer_1
 62
7
100
AcDbLine
 10
7.642989
 20
2.720030
 30
0.0
 11
7.578707
 21
2.744301
 31
0.0
  0
LINE
  5
37c
100
AcDbEntity
  8
Layer_1
 62
7
100
AcDbLine
 10
7.578707
 20
2.744301
 30
0.0
 11
7.509606
 21
2.767726
 31
0.0
  0
LINE
  5
37d
100
AcDbEntity
  8
Layer_1
 62
7
100
AcDbLine
 10
7.509606
 20
2.767726
 30
0.0
 11
7.437288
 21
2.786070
 31
0.0
  0
LINE
  5
37e
100
AcDbEntity
  8
Layer_1
 62
7
100
AcDbLine
 10
7.437288
 20
2.786070
 30
0.0
 11
7.360152
 21
2.798206
 31
0.0
  0
LINE
  5
37f
100
AcDbEntity
  8
Layer_1
 62
7
100
AcDbLine
 10
7.360152
 20
2.798206
 30
0.0
 11
7.283013
 21
2.802157
 31
0.0
  0
LINE
  5
380
100
AcDbEntity
  8
Layer_1
 62
7
100
AcDbLine
 10
7.283013
 20
2.802157
 30
0.0
 11
7.104634
 21
2.787764
 31
0.0
  0
LINE
  5
381
100
AcDbEntity
  8
Layer_1
 62
7
100
AcDbLine
 10
7.104634
 20
2.787764
 30
0.0
 11
6.961607
 21
2.744330
 31
0.0
  0
LINE
  5
382
100
AcDbEntity
  8
Layer_1
 62
7
100
AcDbLine
 10
6.961607
 20
2.744330
 30
0.0
 11
6.847510
 21
2.677669
 31
0.0
  0
LINE
  5
383
100
AcDbEntity
  8
Layer_1
 62
7
100
AcDbLine
 10
6.847510
 20
2.677669
 30
0.0
 11
6.762335
 21
2.586850
 31
0.0
  0
LINE
  5
384
100
AcDbEntity
  8
Layer_1
 62
7
100
AcDbLine
 10
6.762335
 20
2.586850
 30
0.0
 11
6.700466
 21
2.475964
 31
0.0
  0
LINE
  5
385
100
AcDbEntity
  8
Layer_1
 62
7
100
AcDbLine
 10
6.700466
 20
2.475964
 30
0.0
 11
6.662699
 21
2.342586
 31
0.0
  0
LINE
  5
386
100
AcDbEntity
  8
Layer_1
 62
7
100
AcDbLine
 10
6.662699
 20
2.342586
 30
0.0
 11
6.641008
 21
2.193940
 31
0.0
  0
LINE
  5
387
100
AcDbEntity
  8
Layer_1
 62
7
100
AcDbLine
 10
6.641008
 20
2.193940
 30
0.0
 11
6.633774
 21
2.030815
 31
0.0
  0
LINE
  5
388
100
AcDbEntity
  8
Layer_1
 62
7
100
AcDbLine
 10
6.633774
 20
2.030815
 30
0.0
 11
6.633774
 21
1.558347
 31
0.0
  0
LINE
  5
389
100
AcDbEntity
  8
Layer_1
 62
7
100
AcDbLine
 10
6.633774
 20
1.558347
 30
0.0
 11
6.633774
 21
1.085879
 31
0.0
  0
LINE
  5
38a
100
AcDbEntity
  8
Layer_1
 62
7
100
AcDbLine
 10
6.633774
 20
1.085879
 30
0.0
 11
6.828225
 21
1.085879
 31
0.0
  0
LINE
  5
38b
100
AcDbEntity
  8
Layer_1
 62
7
100
AcDbLine
 10
6.828225
 20
1.085879
 30
0.0
 11
7.022676
 21
1.085879
 31
0.0
  0
LINE
  5
38c
100
AcDbEntity
  8
Layer_1
 62
7
100
AcDbLine
 10
7.022676
 20
1.085879
 30
0.0
 11
7.022676
 21
1.527811
 31
0.0
  0
LINE
  5
38d
100
AcDbEntity
  8
Layer_1
 62
7
100
AcDbLine
 10
7.022676
 20
1.527811
 30
0.0
 11
7.022676
 21
1.969742
 31
0.0
  0
LINE
  5
38e
100
AcDbEntity
  8
Layer_1
 62
7
100
AcDbLine
 10
7.022676
 20
1.969742
 30
0.0
 11
7.038748
 21
2.196339
 31
0.0
  0
LINE
  5
38f
100
AcDbEntity
  8
Layer_1
 62
7
100
AcDbLine
 10
7.038748
 20
2.196339
 30
0.0
 11
7.086957
 21
2.349021
 31
0.0
  0
LINE
  5
390
100
AcDbEntity
  8
Layer_1
 62
7
100
AcDbLine
 10
7.086957
 20
2.349021
 30
0.0
 11
7.180970
 21
2.438203
 31
0.0
  0
LINE
  5
391
100
AcDbEntity
  8
Layer_1
 62
7
100
AcDbLine
 10
7.180970
 20
2.438203
 30
0.0
 11
7.334440
 21
2.467921
 31
0.0
  0
LINE
  5
392
100
AcDbEntity
  8
Layer_1
 62
7
100
AcDbLine
 10
7.334440
 20
2.467921
 30
0.0
 11
7.425239
 21
2.459737
 31
0.0
  0
LINE
  5
393
100
AcDbEntity
  8
Layer_1
 62
7
100
AcDbLine
 10
7.425239
 20
2.459737
 30
0.0
 11
7.511213
 21
2.435748
 31
0.0
  0
LINE
  5
394
100
AcDbEntity
  8
Layer_1
 62
7
100
AcDbLine
 10
7.511213
 20
2.435748
 30
0.0
 11
7.584335
 21
2.406876
 31
0.0
  0
LINE
  5
395
100
AcDbEntity
  8
Layer_1
 62
7
100
AcDbLine
 10
7.584335
 20
2.406876
 30
0.0
 11
7.636562
 21
2.377920
 31
0.0
  0
LINE
  5
396
100
AcDbEntity
  8
Layer_1
 62
7
100
AcDbLine
 10
7.636562
 20
2.377920
 30
0.0
 11
7.614868
 21
2.295145
 31
0.0
  0
LINE
  5
397
100
AcDbEntity
  8
Layer_1
 62
7
100
AcDbLine
 10
7.614868
 20
2.295145
 30
0.0
 11
7.601205
 21
2.207571
 31
0.0
  0
LINE
  5
398
100
AcDbEntity
  8
Layer_1
 62
7
100
AcDbLine
 10
7.601205
 20
2.207571
 30
0.0
 11
7.593975
 21
2.114353
 31
0.0
  0
LINE
  5
399
100
AcDbEntity
  8
Layer_1
 62
7
100
AcDbLine
 10
7.593975
 20
2.114353
 30
0.0
 11
7.591576
 21
2.014729
 31
0.0
  0
LINE
  5
39a
100
AcDbEntity
  8
Layer_1
 62
7
100
AcDbLine
 10
7.591576
 20
2.014729
 30
0.0
 11
7.591576
 21
1.550304
 31
0.0
  0
LINE
  5
39b
100
AcDbEntity
  8
Layer_1
 62
7
100
AcDbLine
 10
7.591576
 20
1.550304
 30
0.0
 11
7.591576
 21
1.085851
 31
0.0
  0
LINE
  5
39c
100
AcDbEntity
  8
Layer_1
 62
7
100
AcDbLine
 10
7.591576
 20
1.085851
 30
0.0
 11
7.786026
 21
1.085851
 31
0.0
  0
LINE
  5
39d
100
AcDbEntity
  8
Layer_1
 62
7
100
AcDbLine
 10
7.786026
 20
1.085851
 30
0.0
 11
7.980477
 21
1.085851
 31
0.0
  0
LINE
  5
39e
100
AcDbEntity
  8
Layer_1
 62
7
100
AcDbLine
 10
7.980477
 20
1.085851
 30
0.0
 11
7.980477
 21
1.527782
 31
0.0
  0
LINE
  5
39f
100
AcDbEntity
  8
Layer_1
 62
7
100
AcDbLine
 10
7.980477
 20
1.527782
 30
0.0
 11
7.980477
 21
1.969714
 31
0.0
  0
LINE
  5
3a0
100
AcDbEntity
  8
Layer_1
 62
7
100
AcDbLine
 10
3.860947
 20
2.296979
 30
0.0
 11
3.864529
 21
2.183639
 31
0.0
  0
LINE
  5
3a1
100
AcDbEntity
  8
Layer_1
 62
7
100
AcDbLine
 10
3.864529
 20
2.183639
 30
0.0
 11
3.874796
 21
2.067730
 31
0.0
  0
LINE
  5
3a2
100
AcDbEntity
  8
Layer_1
 62
7
100
AcDbLine
 10
3.874796
 20
2.067730
 30
0.0
 11
3.891043
 21
1.952470
 31
0.0
  0
LINE
  5
3a3
100
AcDbEntity
  8
Layer_1
 62
7
100
AcDbLine
 10
3.891043
 20
1.952470
 30
0.0
 11
3.912563
 21
1.841049
 31
0.0
  0
LINE
  5
3a4
100
AcDbEntity
  8
Layer_1
 62
7
100
AcDbLine
 10
3.912563
 20
1.841049
 30
0.0
 11
3.938643
 21
1.736712
 31
0.0
  0
LINE
  5
3a5
100
AcDbEntity
  8
Layer_1
 62
7
100
AcDbLine
 10
3.938643
 20
1.736712
 30
0.0
 11
3.968576
 21
1.642647
 31
0.0
  0
LINE
  5
3a6
100
AcDbEntity
  8
Layer_1
 62
7
100
AcDbLine
 10
3.968576
 20
1.642647
 30
0.0
 11
4.001657
 21
1.562072
 31
0.0
  0
LINE
  5
3a7
100
AcDbEntity
  8
Layer_1
 62
7
100
AcDbLine
 10
4.001657
 20
1.562072
 30
0.0
 11
4.037168
 21
1.498206
 31
0.0
  0
LINE
  5
3a8
100
AcDbEntity
  8
Layer_1
 62
7
100
AcDbLine
 10
4.037168
 20
1.498206
 30
0.0
 11
4.072681
 21
1.456126
 31
0.0
  0
LINE
  5
3a9
100
AcDbEntity
  8
Layer_1
 62
7
100
AcDbLine
 10
4.072681
 20
1.456126
 30
0.0
 11
4.105759
 21
1.438064
 31
0.0
  0
LINE
  5
3aa
100
AcDbEntity
  8
Layer_1
 62
7
100
AcDbLine
 10
4.105759
 20
1.438064
 30
0.0
 11
4.135686
 21
1.442862
 31
0.0
  0
LINE
  5
3ab
100
AcDbEntity
  8
Layer_1
 62
7
100
AcDbLine
 10
4.135686
 20
1.442862
 30
0.0
 11
4.161772
 21
1.469391
 31
0.0
  0
LINE
  5
3ac
100
AcDbEntity
  8
Layer_1
 62
7
100
AcDbLine
 10
4.161772
 20
1.469391
 30
0.0
 11
4.183246
 21
1.516578
 31
0.0
  0
LINE
  5
3ad
100
AcDbEntity
  8
Layer_1
 62
7
100
AcDbLine
 10
4.183246
 20
1.516578
 30
0.0
 11
4.199536
 21
1.583408
 31
0.0
  0
LINE
  5
3ae
100
AcDbEntity
  8
Layer_1
 62
7
100
AcDbLine
 10
4.199536
 20
1.583408
 30
0.0
 11
4.209803
 21
1.668668
 31
0.0
  0
LINE
  5
3af
100
AcDbEntity
  8
Layer_1
 62
7
100
AcDbLine
 10
4.209803
 20
1.668668
 30
0.0
 11
4.213384
 21
1.771368
 31
0.0
  0
LINE
  5
3b0
100
AcDbEntity
  8
Layer_1
 62
7
100
AcDbLine
 10
4.213384
 20
1.771368
 30
0.0
 11
4.209806
 21
1.884709
 31
0.0
  0
LINE
  5
3b1
100
AcDbEntity
  8
Layer_1
 62
7
100
AcDbLine
 10
4.209806
 20
1.884709
 30
0.0
 11
4.199536
 21
2.000618
 31
0.0
  0
LINE
  5
3b2
100
AcDbEntity
  8
Layer_1
 62
7
100
AcDbLine
 10
4.199536
 20
2.000618
 30
0.0
 11
4.183288
 21
2.115877
 31
0.0
  0
LINE
  5
3b3
100
AcDbEntity
  8
Layer_1
 62
7
100
AcDbLine
 10
4.183288
 20
2.115877
 30
0.0
 11
4.161772
 21
2.227298
 31
0.0
  0
LINE
  5
3b4
100
AcDbEntity
  8
Layer_1
 62
7
100
AcDbLine
 10
4.161772
 20
2.227298
 30
0.0
 11
4.135691
 21
2.331636
 31
0.0
  0
LINE
  5
3b5
100
AcDbEntity
  8
Layer_1
 62
7
100
AcDbLine
 10
4.135691
 20
2.331636
 30
0.0
 11
4.105758
 21
2.425701
 31
0.0
  0
LINE
  5
3b6
100
AcDbEntity
  8
Layer_1
 62
7
100
AcDbLine
 10
4.105758
 20
2.425701
 30
0.0
 11
4.072680
 21
2.506275
 31
0.0
  0
LINE
  5
3b7
100
AcDbEntity
  8
Layer_1
 62
7
100
AcDbLine
 10
4.072680
 20
2.506275
 30
0.0
 11
4.037166
 21
2.570142
 31
0.0
  0
LINE
  5
3b8
100
AcDbEntity
  8
Layer_1
 62
7
100
AcDbLine
 10
4.037166
 20
2.570142
 30
0.0
 11
4.001653
 21
2.612221
 31
0.0
  0
LINE
  5
3b9
100
AcDbEntity
  8
Layer_1
 62
7
100
AcDbLine
 10
4.001653
 20
2.612221
 30
0.0
 11
3.968575
 21
2.630284
 31
0.0
  0
LINE
  5
3ba
100
AcDbEntity
  8
Layer_1
 62
7
100
AcDbLine
 10
3.968575
 20
2.630284
 30
0.0
 11
3.938648
 21
2.625486
 31
0.0
  0
LINE
  5
3bb
100
AcDbEntity
  8
Layer_1
 62
7
100
AcDbLine
 10
3.938648
 20
2.625486
 30
0.0
 11
3.912562
 21
2.598957
 31
0.0
  0
LINE
  5
3bc
100
AcDbEntity
  8
Layer_1
 62
7
100
AcDbLine
 10
3.912562
 20
2.598957
 30
0.0
 11
3.891040
 21
2.551685
 31
0.0
  0
LINE
  5
3bd
100
AcDbEntity
  8
Layer_1
 62
7
100
AcDbLine
 10
3.891040
 20
2.551685
 30
0.0
 11
3.874798
 21
2.484939
 31
0.0
  0
LINE
  5
3be
100
AcDbEntity
  8
Layer_1
 62
7
100
AcDbLine
 10
3.874798
 20
2.484939
 30
0.0
 11
3.864531
 21
2.399652
 31
0.0
  0
LINE
  5
3bf
100
AcDbEntity
  8
Layer_1
 62
7
100
AcDbLine
 10
3.864531
 20
2.399652
 30
0.0
 11
3.860947
 21
2.296979
 31
0.0
  0
LINE
  5
3c0
100
AcDbEntity
  8
Layer_1
 62
7
100
AcDbLine
 10
4.541171
 20
2.508392
 30
0.0
 11
4.544648
 21
2.397309
 31
0.0
  0
LINE
  5
3c1
100
AcDbEntity
  8
Layer_1
 62
7
100
AcDbLine
 10
4.544648
 20
2.397309
 30
0.0
 11
4.554621
 21
2.282106
 31
0.0
  0
LINE
  5
3c2
100
AcDbEntity
  8
Layer_1
 62
7
100
AcDbLine
 10
4.554621
 20
2.282106
 30
0.0
 11
4.570395
 21
2.166056
 31
0.0
  0
LINE
  5
3c3
100
AcDbEntity
  8
Layer_1
 62
7
100
AcDbLine
 10
4.570395
 20
2.166056
 30
0.0
 11
4.591282
 21
2.052462
 31
0.0
  0
LINE
  5
3c4
100
AcDbEntity
  8
Layer_1
 62
7
100
AcDbLine
 10
4.591282
 20
2.052462
 30
0.0
 11
4.616600
 21
1.944625
 31
0.0
  0
LINE
  5
3c5
100
AcDbEntity
  8
Layer_1
 62
7
100
AcDbLine
 10
4.616600
 20
1.944625
 30
0.0
 11
4.645661
 21
1.845819
 31
0.0
  0
LINE
  5
3c6
100
AcDbEntity
  8
Layer_1
 62
7
100
AcDbLine
 10
4.645661
 20
1.845819
 30
0.0
 11
4.677775
 21
1.759374
 31
0.0
  0
LINE
  5
3c7
100
AcDbEntity
  8
Layer_1
 62
7
100
AcDbLine
 10
4.677775
 20
1.759374
 30
0.0
 11
4.712255
 21
1.688564
 31
0.0
  0
LINE
  5
3c8
100
AcDbEntity
  8
Layer_1
 62
7
100
AcDbLine
 10
4.712255
 20
1.688564
 30
0.0
 11
4.746736
 21
1.638893
 31
0.0
  0
LINE
  5
3c9
100
AcDbEntity
  8
Layer_1
 62
7
100
AcDbLine
 10
4.746736
 20
1.638893
 30
0.0
 11
4.778850
 21
1.613211
 31
0.0
  0
LINE
  5
3ca
100
AcDbEntity
  8
Layer_1
 62
7
100
AcDbLine
 10
4.778850
 20
1.613211
 30
0.0
 11
4.807899
 21
1.610389
 31
0.0
  0
LINE
  5
3cb
100
AcDbEntity
  8
Layer_1
 62
7
100
AcDbLine
 10
4.807899
 20
1.610389
 30
0.0
 11
4.833231
 21
1.629862
 31
0.0
  0
LINE
  5
3cc
100
AcDbEntity
  8
Layer_1
 62
7
100
AcDbLine
 10
4.833231
 20
1.629862
 30
0.0
 11
4.854121
 21
1.670446
 31
0.0
  0
LINE
  5
3cd
100
AcDbEntity
  8
Layer_1
 62
7
100
AcDbLine
 10
4.854121
 20
1.670446
 30
0.0
 11
4.869895
 21
1.731406
 31
0.0
  0
LINE
  5
3ce
100
AcDbEntity
  8
Layer_1
 62
7
100
AcDbLine
 10
4.869895
 20
1.731406
 30
0.0
 11
4.879863
 21
1.811754
 31
0.0
  0
LINE
  5
3cf
100
AcDbEntity
  8
Layer_1
 62
7
100
AcDbLine
 10
4.879863
 20
1.811754
 30
0.0
 11
4.883343
 21
1.910673
 31
0.0
  0
LINE
  5
3d0
100
AcDbEntity
  8
Layer_1
 62
7
100
AcDbLine
 10
4.883343
 20
1.910673
 30
0.0
 11
4.879869
 21
2.021728
 31
0.0
  0
LINE
  5
3d1
100
AcDbEntity
  8
Layer_1
 62
7
100
AcDbLine
 10
4.879869
 20
2.021728
 30
0.0
 11
4.869903
 21
2.136931
 31
0.0
  0
LINE
  5
3d2
100
AcDbEntity
  8
Layer_1
 62
7
100
AcDbLine
 10
4.869903
 20
2.136931
 30
0.0
 11
4.854130
 21
2.252981
 31
0.0
  0
LINE
  5
3d3
100
AcDbEntity
  8
Layer_1
 62
7
100
AcDbLine
 10
4.854130
 20
2.252981
 30
0.0
 11
4.833234
 21
2.366575
 31
0.0
  0
LINE
  5
3d4
100
AcDbEntity
  8
Layer_1
 62
7
100
AcDbLine
 10
4.833234
 20
2.366575
 30
0.0
 11
4.807913
 21
2.474412
 31
0.0
  0
LINE
  5
3d5
100
AcDbEntity
  8
Layer_1
 62
7
100
AcDbLine
 10
4.807913
 20
2.474412
 30
0.0
 11
4.778851
 21
2.573218
 31
0.0
  0
LINE
  5
3d6
100
AcDbEntity
  8
Layer_1
 62
7
100
AcDbLine
 10
4.778851
 20
2.573218
 30
0.0
 11
4.746740
 21
2.659663
 31
0.0
  0
LINE
  5
3d7
100
AcDbEntity
  8
Layer_1
 62
7
100
AcDbLine
 10
4.746740
 20
2.659663
 30
0.0
 11
4.712256
 21
2.730501
 31
0.0
  0
LINE
  5
3d8
100
AcDbEntity
  8
Layer_1
 62
7
100
AcDbLine
 10
4.712256
 20
2.730501
 30
0.0
 11
4.677777
 21
2.780144
 31
0.0
  0
LINE
  5
3d9
100
AcDbEntity
  8
Layer_1
 62
7
100
AcDbLine
 10
4.677777
 20
2.780144
 30
0.0
 11
4.645662
 21
2.805826
 31
0.0
  0
LINE
  5
3da
100
AcDbEntity
  8
Layer_1
 62
7
100
AcDbLine
 10
4.645662
 20
2.805826
 30
0.0
 11
4.616613
 21
2.808648
 31
0.0
  0
LINE
  5
3db
100
AcDbEntity
  8
Layer_1
 62
7
100
AcDbLine
 10
4.616613
 20
2.808648
 30
0.0
 11
4.591281
 21
2.789175
 31
0.0
  0
LINE
  5
3dc
100
AcDbEntity
  8
Layer_1
 62
7
100
AcDbLine
 10
4.591281
 20
2.789175
 30
0.0
 11
4.570390
 21
2.748591
 31
0.0
  0
LINE
  5
3dd
100
AcDbEntity
  8
Layer_1
 62
7
100
AcDbLine
 10
4.570390
 20
2.748591
 30
0.0
 11
4.554614
 21
2.687659
 31
0.0
  0
LINE
  5
3de
100
AcDbEntity
  8
Layer_1
 62
7
100
AcDbLine
 10
4.554614
 20
2.687659
 30
0.0
 11
4.544643
 21
2.607282
 31
0.0
  0
LINE
  5
3df
100
AcDbEntity
  8
Layer_1
 62
7
100
AcDbLine
 10
4.544643
 20
2.607282
 30
0.0
 11
4.541171
 21
2.508392
 31
0.0
  0
LINE
  5
3e0
100
AcDbEntity
  8
Layer_1
 62
7
100
AcDbLine
 10
0.033108
 20
2.086272
 30
0.0
 11
0.086522
 21
2.312812
 31
0.0
  0
LINE
  5
3e1
100
AcDbEntity
  8
Layer_1
 62
7
100
AcDbLine
 10
0.086522
 20
2.312812
 30
0.0
 11
0.181737
 21
2.541722
 31
0.0
  0
LINE
  5
3e2
100
AcDbEntity
  8
Layer_1
 62
7
100
AcDbLine
 10
0.181737
 20
2.541722
 30
0.0
 11
0.322532
 21
2.771000
 31
0.0
  0
LINE
  5
3e3
100
AcDbEntity
  8
Layer_1
 62
7
100
AcDbLine
 10
0.322532
 20
2.771000
 30
0.0
 11
0.512668
 21
2.998555
 31
0.0
  0
LINE
  5
3e4
100
AcDbEntity
  8
Layer_1
 62
7
100
AcDbLine
 10
0.512668
 20
2.998555
 30
0.0
 11
0.617579
 21
3.146158
 31
0.0
  0
LINE
  5
3e5
100
AcDbEntity
  8
Layer_1
 62
7
100
AcDbLine
 10
0.617579
 20
3.146158
 30
0.0
 11
0.873000
 21
3.376931
 31
0.0
  0
LINE
  5
3e6
100
AcDbEntity
  8
Layer_1
 62
7
100
AcDbLine
 10
0.873000
 20
3.376931
 30
0.0
 11
1.257569
 21
3.634458
 31
0.0
  0
LINE
  5
3e7
100
AcDbEntity
  8
Layer_1
 62
7
100
AcDbLine
 10
1.257569
 20
3.634458
 30
0.0
 11
1.749948
 21
3.862325
 31
0.0
  0
LINE
  5
3e8
100
AcDbEntity
  8
Layer_1
 62
7
100
AcDbLine
 10
1.749948
 20
3.862325
 30
0.0
 11
2.328764
 21
4.004170
 31
0.0
  0
LINE
  5
3e9
100
AcDbEntity
  8
Layer_1
 62
7
100
AcDbLine
 10
2.328764
 20
4.004170
 30
0.0
 11
2.972670
 21
4.004170
 31
0.0
  0
LINE
  5
3ea
100
AcDbEntity
  8
Layer_1
 62
7
100
AcDbLine
 10
2.972670
 20
4.004170
 30
0.0
 11
3.660310
 21
3.804667
 31
0.0
  0
LINE
  5
3eb
100
AcDbEntity
  8
Layer_1
 62
7
100
AcDbLine
 10
3.660310
 20
3.804667
 30
0.0
 11
4.370327
 21
3.349866
 31
0.0
  0
LINE
  5
3ec
100
AcDbEntity
  8
Layer_1
 62
7
100
AcDbLine
 10
4.370327
 20
3.349866
 30
0.0
 11
4.411793
 21
3.384889
 31
0.0
  0
LINE
  5
3ed
100
AcDbEntity
  8
Layer_1
 62
7
100
AcDbLine
 10
4.411793
 20
3.384889
 30
0.0
 11
4.456914
 21
3.420167
 31
0.0
  0
LINE
  5
3ee
100
AcDbEntity
  8
Layer_1
 62
7
100
AcDbLine
 10
4.456914
 20
3.420167
 30
0.0
 11
4.504191
 21
3.453780
 31
0.0
  0
LINE
  5
3ef
100
AcDbEntity
  8
Layer_1
 62
7
100
AcDbLine
 10
4.504191
 20
3.453780
 30
0.0
 11
4.552166
 21
3.483639
 31
0.0
  0
LINE
  5
3f0
100
AcDbEntity
  8
Layer_1
 62
7
100
AcDbLine
 10
4.552166
 20
3.483639
 30
0.0
 11
4.599321
 21
3.507910
 31
0.0
  0
LINE
  5
3f1
100
AcDbEntity
  8
Layer_1
 62
7
100
AcDbLine
 10
4.599321
 20
3.507910
 30
0.0
 11
4.644175
 21
3.524279
 31
0.0
  0
LINE
  5
3f2
100
AcDbEntity
  8
Layer_1
 62
7
100
AcDbLine
 10
4.644175
 20
3.524279
 30
0.0
 11
4.685248
 21
3.530488
 31
0.0
  0
LINE
  5
3f3
100
AcDbEntity
  8
Layer_1
 62
7
100
AcDbLine
 10
4.685248
 20
3.530488
 30
0.0
 11
4.721025
 21
3.524279
 31
0.0
  0
LINE
  5
3f4
100
AcDbEntity
  8
Layer_1
 62
7
100
AcDbLine
 10
4.721025
 20
3.524279
 30
0.0
 11
4.742943
 21
3.590037
 31
0.0
  0
LINE
  5
3f5
100
AcDbEntity
  8
Layer_1
 62
7
100
AcDbLine
 10
4.742943
 20
3.590037
 30
0.0
 11
4.764860
 21
3.655794
 31
0.0
  0
LINE
  5
3f6
100
AcDbEntity
  8
Layer_1
 62
7
100
AcDbLine
 10
4.764860
 20
3.655794
 30
0.0
 11
4.786777
 21
3.721552
 31
0.0
  0
LINE
  5
3f7
100
AcDbEntity
  8
Layer_1
 62
7
100
AcDbLine
 10
4.786777
 20
3.721552
 30
0.0
 11
4.808695
 21
3.787310
 31
0.0
  0
LINE
  5
3f8
100
AcDbEntity
  8
Layer_1
 62
7
100
AcDbLine
 10
4.808695
 20
3.787310
 30
0.0
 11
4.830612
 21
3.853068
 31
0.0
  0
LINE
  5
3f9
100
AcDbEntity
  8
Layer_1
 62
7
100
AcDbLine
 10
4.830612
 20
3.853068
 30
0.0
 11
4.852529
 21
3.918826
 31
0.0
  0
LINE
  5
3fa
100
AcDbEntity
  8
Layer_1
 62
7
100
AcDbLine
 10
4.852529
 20
3.918826
 30
0.0
 11
4.874447
 21
3.984555
 31
0.0
  0
LINE
  5
3fb
100
AcDbEntity
  8
Layer_1
 62
7
100
AcDbLine
 10
4.874447
 20
3.984555
 30
0.0
 11
4.896364
 21
4.050313
 31
0.0
  0
LINE
  5
3fc
100
AcDbEntity
  8
Layer_1
 62
7
100
AcDbLine
 10
4.896364
 20
4.050313
 30
0.0
 11
4.984039
 21
4.028300
 31
0.0
  0
LINE
  5
3fd
100
AcDbEntity
  8
Layer_1
 62
7
100
AcDbLine
 10
4.984039
 20
4.028300
 30
0.0
 11
5.071713
 21
4.006286
 31
0.0
  0
LINE
  5
3fe
100
AcDbEntity
  8
Layer_1
 62
7
100
AcDbLine
 10
5.071713
 20
4.006286
 30
0.0
 11
5.159388
 21
3.984273
 31
0.0
  0
LINE
  5
3ff
100
AcDbEntity
  8
Layer_1
 62
7
100
AcDbLine
 10
5.159388
 20
3.984273
 30
0.0
 11
5.247062
 21
3.962260
 31
0.0
  0
LINE
  5
400
100
AcDbEntity
  8
Layer_1
 62
7
100
AcDbLine
 10
5.247062
 20
3.962260
 30
0.0
 11
5.334736
 21
3.940246
 31
0.0
  0
LINE
  5
401
100
AcDbEntity
  8
Layer_1
 62
7
100
AcDbLine
 10
5.334736
 20
3.940246
 30
0.0
 11
5.422409
 21
3.918233
 31
0.0
  0
LINE
  5
402
100
AcDbEntity
  8
Layer_1
 62
7
100
AcDbLine
 10
5.422409
 20
3.918233
 30
0.0
 11
5.510083
 21
3.896220
 31
0.0
  0
LINE
  5
403
100
AcDbEntity
  8
Layer_1
 62
7
100
AcDbLine
 10
5.510083
 20
3.896220
 30
0.0
 11
5.597757
 21
3.874206
 31
0.0
  0
LINE
  5
404
100
AcDbEntity
  8
Layer_1
 62
7
100
AcDbLine
 10
5.597757
 20
3.874206
 30
0.0
 11
5.575840
 21
3.830349
 31
0.0
  0
LINE
  5
405
100
AcDbEntity
  8
Layer_1
 62
7
100
AcDbLine
 10
5.575840
 20
3.830349
 30
0.0
 11
5.553922
 21
3.786520
 31
0.0
  0
LINE
  5
406
100
AcDbEntity
  8
Layer_1
 62
7
100
AcDbLine
 10
5.553922
 20
3.786520
 30
0.0
 11
5.532005
 21
3.742662
 31
0.0
  0
LINE
  5
407
100
AcDbEntity
  8
Layer_1
 62
7
100
AcDbLine
 10
5.532005
 20
3.742662
 30
0.0
 11
5.510087
 21
3.698833
 31
0.0
  0
LINE
  5
408
100
AcDbEntity
  8
Layer_1
 62
7
100
AcDbLine
 10
5.510087
 20
3.698833
 30
0.0
 11
5.488170
 21
3.655004
 31
0.0
  0
LINE
  5
409
100
AcDbEntity
  8
Layer_1
 62
7
100
AcDbLine
 10
5.488170
 20
3.655004
 30
0.0
 11
5.466253
 21
3.611175
 31
0.0
  0
LINE
  5
40a
100
AcDbEntity
  8
Layer_1
 62
7
100
AcDbLine
 10
5.466253
 20
3.611175
 30
0.0
 11
5.444335
 21
3.567318
 31
0.0
  0
LINE
  5
40b
100
AcDbEntity
  8
Layer_1
 62
7
100
AcDbLine
 10
5.444335
 20
3.567318
 30
0.0
 11
5.422418
 21
3.523489
 31
0.0
  0
LINE
  5
40c
100
AcDbEntity
  8
Layer_1
 62
7
100
AcDbLine
 10
5.422418
 20
3.523489
 30
0.0
 11
5.378581
 21
3.545502
 31
0.0
  0
LINE
  5
40d
100
AcDbEntity
  8
Layer_1
 62
7
100
AcDbLine
 10
5.378581
 20
3.545502
 30
0.0
 11
5.334744
 21
3.567515
 31
0.0
  0
LINE
  5
40e
100
AcDbEntity
  8
Layer_1
 62
7
100
AcDbLine
 10
5.334744
 20
3.567515
 30
0.0
 11
5.290907
 21
3.589529
 31
0.0
  0
LINE
  5
40f
100
AcDbEntity
  8
Layer_1
 62
7
100
AcDbLine
 10
5.290907
 20
3.589529
 30
0.0
 11
5.247070
 21
3.611542
 31
0.0
  0
LINE
  5
410
100
AcDbEntity
  8
Layer_1
 62
7
100
AcDbLine
 10
5.247070
 20
3.611542
 30
0.0
 11
5.203233
 21
3.633555
 31
0.0
  0
LINE
  5
411
100
AcDbEntity
  8
Layer_1
 62
7
100
AcDbLine
 10
5.203233
 20
3.633555
 30
0.0
 11
5.159395
 21
3.655569
 31
0.0
  0
LINE
  5
412
100
AcDbEntity
  8
Layer_1
 62
7
100
AcDbLine
 10
5.159395
 20
3.655569
 30
0.0
 11
5.115558
 21
3.677582
 31
0.0
  0
LINE
  5
413
100
AcDbEntity
  8
Layer_1
 62
7
100
AcDbLine
 10
5.115558
 20
3.677582
 30
0.0
 11
5.071720
 21
3.699595
 31
0.0
  0
LINE
  5
414
100
AcDbEntity
  8
Layer_1
 62
7
100
AcDbLine
 10
5.071720
 20
3.699595
 30
0.0
 11
5.049803
 21
3.655766
 31
0.0
  0
LINE
  5
415
100
AcDbEntity
  8
Layer_1
 62
7
100
AcDbLine
 10
5.049803
 20
3.655766
 30
0.0
 11
5.027885
 21
3.611937
 31
0.0
  0
LINE
  5
416
100
AcDbEntity
  8
Layer_1
 62
7
100
AcDbLine
 10
5.027885
 20
3.611937
 30
0.0
 11
5.005965
 21
3.568080
 31
0.0
  0
LINE
  5
417
100
AcDbEntity
  8
Layer_1
 62
7
100
AcDbLine
 10
5.005965
 20
3.568080
 30
0.0
 11
4.984048
 21
3.524251
 31
0.0
  0
LINE
  5
418
100
AcDbEntity
  8
Layer_1
 62
7
100
AcDbLine
 10
4.984048
 20
3.524251
 30
0.0
 11
4.962130
 21
3.480393
 31
0.0
  0
LINE
  5
419
100
AcDbEntity
  8
Layer_1
 62
7
100
AcDbLine
 10
4.962130
 20
3.480393
 30
0.0
 11
4.940213
 21
3.436564
 31
0.0
  0
LINE
  5
41a
100
AcDbEntity
  8
Layer_1
 62
7
100
AcDbLine
 10
4.940213
 20
3.436564
 30
0.0
 11
4.918296
 21
3.392735
 31
0.0
  0
LINE
  5
41b
100
AcDbEntity
  8
Layer_1
 62
7
100
AcDbLine
 10
4.918296
 20
3.392735
 30
0.0
 11
4.896378
 21
3.348906
 31
0.0
  0
LINE
  5
41c
100
AcDbEntity
  8
Layer_1
 62
7
100
AcDbLine
 10
4.896378
 20
3.348906
 30
0.0
 11
5.003506
 21
3.187926
 31
0.0
  0
LINE
  5
41d
100
AcDbEntity
  8
Layer_1
 62
7
100
AcDbLine
 10
5.003506
 20
3.187926
 30
0.0
 11
5.088474
 21
2.973607
 31
0.0
  0
LINE
  5
41e
100
AcDbEntity
  8
Layer_1
 62
7
100
AcDbLine
 10
5.088474
 20
2.973607
 30
0.0
 11
5.153323
 21
2.721131
 31
0.0
  0
LINE
  5
41f
100
AcDbEntity
  8
Layer_1
 62
7
100
AcDbLine
 10
5.153323
 20
2.721131
 30
0.0
 11
5.200083
 21
2.445767
 31
0.0
  0
LINE
  5
420
100
AcDbEntity
  8
Layer_1
 62
7
100
AcDbLine
 10
5.200083
 20
2.445767
 30
0.0
 11
5.230803
 21
2.162726
 31
0.0
  0
LINE
  5
421
100
AcDbEntity
  8
Layer_1
 62
7
100
AcDbLine
 10
5.230803
 20
2.162726
 30
0.0
 11
5.247516
 21
1.887277
 31
0.0
  0
LINE
  5
422
100
AcDbEntity
  8
Layer_1
 62
7
100
AcDbLine
 10
5.247516
 20
1.887277
 30
0.0
 11
5.252260
 21
1.634632
 31
0.0
  0
LINE
  5
423
100
AcDbEntity
  8
Layer_1
 62
7
100
AcDbLine
 10
5.252260
 20
1.634632
 30
0.0
 11
5.247064
 21
1.420058
 31
0.0
  0
LINE
  5
424
100
AcDbEntity
  8
Layer_1
 62
7
100
AcDbLine
 10
5.247064
 20
1.420058
 30
0.0
 11
5.113771
 21
1.355006
 31
0.0
  0
LINE
  5
425
100
AcDbEntity
  8
Layer_1
 62
7
100
AcDbLine
 10
5.113771
 20
1.355006
 30
0.0
 11
5.004887
 21
1.295852
 31
0.0
  0
LINE
  5
426
100
AcDbEntity
  8
Layer_1
 62
7
100
AcDbLine
 10
5.004887
 20
1.295852
 30
0.0
 11
4.911594
 21
1.242682
 31
0.0
  0
LINE
  5
427
100
AcDbEntity
  8
Layer_1
 62
7
100
AcDbLine
 10
4.911594
 20
1.242682
 30
0.0
 11
4.825071
 21
1.195579
 31
0.0
  0
LINE
  5
428
100
AcDbEntity
  8
Layer_1
 62
7
100
AcDbLine
 10
4.825071
 20
1.195579
 30
0.0
 11
4.736503
 21
1.154628
 31
0.0
  0
LINE
  5
429
100
AcDbEntity
  8
Layer_1
 62
7
100
AcDbLine
 10
4.736503
 20
1.154628
 30
0.0
 11
4.637067
 21
1.119887
 31
0.0
  0
LINE
  5
42a
100
AcDbEntity
  8
Layer_1
 62
7
100
AcDbLine
 10
4.637067
 20
1.119887
 30
0.0
 11
4.517935
 21
1.091439
 31
0.0
  0
LINE
  5
42b
100
AcDbEntity
  8
Layer_1
 62
7
100
AcDbLine
 10
4.517935
 20
1.091439
 30
0.0
 11
4.370321
 21
1.069425
 31
0.0
  0
LINE
  5
42c
100
AcDbEntity
  8
Layer_1
 62
7
100
AcDbLine
 10
4.370321
 20
1.069425
 30
0.0
 11
4.370321
 21
0.981739
 31
0.0
  0
LINE
  5
42d
100
AcDbEntity
  8
Layer_1
 62
7
100
AcDbLine
 10
4.370321
 20
0.981739
 30
0.0
 11
4.370321
 21
0.894081
 31
0.0
  0
LINE
  5
42e
100
AcDbEntity
  8
Layer_1
 62
7
100
AcDbLine
 10
4.370321
 20
0.894081
 30
0.0
 11
4.370321
 21
0.806394
 31
0.0
  0
LINE
  5
42f
100
AcDbEntity
  8
Layer_1
 62
7
100
AcDbLine
 10
4.370321
 20
0.806394
 30
0.0
 11
4.370321
 21
0.718736
 31
0.0
  0
LINE
  5
430
100
AcDbEntity
  8
Layer_1
 62
7
100
AcDbLine
 10
4.370321
 20
0.718736
 30
0.0
 11
4.370321
 21
0.631050
 31
0.0
  0
LINE
  5
431
100
AcDbEntity
  8
Layer_1
 62
7
100
AcDbLine
 10
4.370321
 20
0.631050
 30
0.0
 11
4.370321
 21
0.543391
 31
0.0
  0
LINE
  5
432
100
AcDbEntity
  8
Layer_1
 62
7
100
AcDbLine
 10
4.370321
 20
0.543391
 30
0.0
 11
4.370321
 21
0.455705
 31
0.0
  0
LINE
  5
433
100
AcDbEntity
  8
Layer_1
 62
7
100
AcDbLine
 10
4.370321
 20
0.455705
 30
0.0
 11
4.370321
 21
0.368047
 31
0.0
  0
LINE
  5
434
100
AcDbEntity
  8
Layer_1
 62
7
100
AcDbLine
 10
4.370321
 20
0.368047
 30
0.0
 11
4.326484
 21
0.368047
 31
0.0
  0
LINE
  5
435
100
AcDbEntity
  8
Layer_1
 62
7
100
AcDbLine
 10
4.326484
 20
0.368047
 30
0.0
 11
4.282647
 21
0.368047
 31
0.0
  0
LINE
  5
436
100
AcDbEntity
  8
Layer_1
 62
7
100
AcDbLine
 10
4.282647
 20
0.368047
 30
0.0
 11
4.238811
 21
0.368047
 31
0.0
  0
LINE
  5
437
100
AcDbEntity
  8
Layer_1
 62
7
100
AcDbLine
 10
4.238811
 20
0.368047
 30
0.0
 11
4.194974
 21
0.368047
 31
0.0
  0
LINE
  5
438
100
AcDbEntity
  8
Layer_1
 62
7
100
AcDbLine
 10
4.194974
 20
0.368047
 30
0.0
 11
4.151137
 21
0.368047
 31
0.0
  0
LINE
  5
439
100
AcDbEntity
  8
Layer_1
 62
7
100
AcDbLine
 10
4.151137
 20
0.368047
 30
0.0
 11
4.107300
 21
0.368047
 31
0.0
  0
LINE
  5
43a
100
AcDbEntity
  8
Layer_1
 62
7
100
AcDbLine
 10
4.107300
 20
0.368047
 30
0.0
 11
4.063463
 21
0.368047
 31
0.0
  0
LINE
  5
43b
100
AcDbEntity
  8
Layer_1
 62
7
100
AcDbLine
 10
4.063463
 20
0.368047
 30
0.0
 11
4.019626
 21
0.368047
 31
0.0
  0
LINE
  5
43c
100
AcDbEntity
  8
Layer_1
 62
7
100
AcDbLine
 10
4.019626
 20
0.368047
 30
0.0
 11
4.019626
 21
0.455705
 31
0.0
  0
LINE
  5
43d
100
AcDbEntity
  8
Layer_1
 62
7
100
AcDbLine
 10
4.019626
 20
0.455705
 30
0.0
 11
4.019626
 21
0.543391
 31
0.0
  0
LINE
  5
43e
100
AcDbEntity
  8
Layer_1
 62
7
100
AcDbLine
 10
4.019626
 20
0.543391
 30
0.0
 11
4.019626
 21
0.631050
 31
0.0
  0
LINE
  5
43f
100
AcDbEntity
  8
Layer_1
 62
7
100
AcDbLine
 10
4.019626
 20
0.631050
 30
0.0
 11
4.019626
 21
0.718736
 31
0.0
  0
LINE
  5
440
100
AcDbEntity
  8
Layer_1
 62
7
100
AcDbLine
 10
4.019626
 20
0.718736
 30
0.0
 11
4.019626
 21
0.806394
 31
0.0
  0
LINE
  5
441
100
AcDbEntity
  8
Layer_1
 62
7
100
AcDbLine
 10
4.019626
 20
0.806394
 30
0.0
 11
4.019626
 21
0.894081
 31
0.0
  0
LINE
  5
442
100
AcDbEntity
  8
Layer_1
 62
7
100
AcDbLine
 10
4.019626
 20
0.894081
 30
0.0
 11
4.019626
 21
0.981739
 31
0.0
  0
LINE
  5
443
100
AcDbEntity
  8
Layer_1
 62
7
100
AcDbLine
 10
4.019626
 20
0.981739
 30
0.0
 11
4.019626
 21
1.069425
 31
0.0
  0
LINE
  5
444
100
AcDbEntity
  8
Layer_1
 62
7
100
AcDbLine
 10
4.019626
 20
1.069425
 30
0.0
 11
3.915683
 21
1.058419
 31
0.0
  0
LINE
  5
445
100
AcDbEntity
  8
Layer_1
 62
7
100
AcDbLine
 10
3.915683
 20
1.058419
 30
0.0
 11
3.809358
 21
1.049670
 31
0.0
  0
LINE
  5
446
100
AcDbEntity
  8
Layer_1
 62
7
100
AcDbLine
 10
3.809358
 20
1.049670
 30
0.0
 11
3.701036
 21
1.043179
 31
0.0
  0
LINE
  5
447
100
AcDbEntity
  8
Layer_1
 62
7
100
AcDbLine
 10
3.701036
 20
1.043179
 30
0.0
 11
3.591100
 21
1.040074
 31
0.0
  0
LINE
  5
448
100
AcDbEntity
  8
Layer_1
 62
7
100
AcDbLine
 10
3.591100
 20
1.040074
 30
0.0
 11
3.479932
 21
1.040074
 31
0.0
  0
LINE
  5
449
100
AcDbEntity
  8
Layer_1
 62
7
100
AcDbLine
 10
3.479932
 20
1.040074
 30
0.0
 11
3.367918
 21
1.044308
 31
0.0
  0
LINE
  5
44a
100
AcDbEntity
  8
Layer_1
 62
7
100
AcDbLine
 10
3.367918
 20
1.044308
 30
0.0
 11
3.255439
 21
1.053903
 31
0.0
  0
LINE
  5
44b
100
AcDbEntity
  8
Layer_1
 62
7
100
AcDbLine
 10
3.255439
 20
1.053903
 30
0.0
 11
3.142886
 21
1.068861
 31
0.0
  0
LINE
  5
44c
100
AcDbEntity
  8
Layer_1
 62
7
100
AcDbLine
 10
3.142886
 20
1.068861
 30
0.0
 11
2.961738
 21
1.416022
 31
0.0
  0
LINE
  5
44d
100
AcDbEntity
  8
Layer_1
 62
7
100
AcDbLine
 10
2.961738
 20
1.416022
 30
0.0
 11
2.903215
 21
1.740860
 31
0.0
  0
LINE
  5
44e
100
AcDbEntity
  8
Layer_1
 62
7
100
AcDbLine
 10
2.903215
 20
1.740860
 30
0.0
 11
2.950671
 21
2.042499
 31
0.0
  0
LINE
  5
44f
100
AcDbEntity
  8
Layer_1
 62
7
100
AcDbLine
 10
2.950671
 20
2.042499
 30
0.0
 11
3.087457
 21
2.320093
 31
0.0
  0
LINE
  5
450
100
AcDbEntity
  8
Layer_1
 62
7
100
AcDbLine
 10
3.087457
 20
2.320093
 30
0.0
 11
3.296928
 21
2.572795
 31
0.0
  0
LINE
  5
451
100
AcDbEntity
  8
Layer_1
 62
7
100
AcDbLine
 10
3.296928
 20
2.572795
 30
0.0
 11
3.562435
 21
2.799758
 31
0.0
  0
LINE
  5
452
100
AcDbEntity
  8
Layer_1
 62
7
100
AcDbLine
 10
3.562435
 20
2.799758
 30
0.0
 11
3.867333
 21
3.000136
 31
0.0
  0
LINE
  5
453
100
AcDbEntity
  8
Layer_1
 62
7
100
AcDbLine
 10
3.867333
 20
3.000136
 30
0.0
 11
4.194974
 21
3.173053
 31
0.0
  0
LINE
  5
454
100
AcDbEntity
  8
Layer_1
 62
7
100
AcDbLine
 10
4.194974
 20
3.173053
 30
0.0
 11
4.126754
 21
3.167127
 31
0.0
  0
LINE
  5
455
100
AcDbEntity
  8
Layer_1
 62
7
100
AcDbLine
 10
4.126754
 20
3.167127
 30
0.0
 11
4.065299
 21
3.160353
 31
0.0
  0
LINE
  5
456
100
AcDbEntity
  8
Layer_1
 62
7
100
AcDbLine
 10
4.065299
 20
3.160353
 30
0.0
 11
4.007578
 21
3.150476
 31
0.0
  0
LINE
  5
457
100
AcDbEntity
  8
Layer_1
 62
7
100
AcDbLine
 10
4.007578
 20
3.150476
 30
0.0
 11
3.950561
 21
3.136082
 31
0.0
  0
LINE
  5
458
100
AcDbEntity
  8
Layer_1
 62
7
100
AcDbLine
 10
3.950561
 20
3.136082
 30
0.0
 11
3.891219
 21
3.115480
 31
0.0
  0
LINE
  5
459
100
AcDbEntity
  8
Layer_1
 62
7
100
AcDbLine
 10
3.891219
 20
3.115480
 30
0.0
 11
3.826519
 21
3.086637
 31
0.0
  0
LINE
  5
45a
100
AcDbEntity
  8
Layer_1
 62
7
100
AcDbLine
 10
3.826519
 20
3.086637
 30
0.0
 11
3.753436
 21
3.047944
 31
0.0
  0
LINE
  5
45b
100
AcDbEntity
  8
Layer_1
 62
7
100
AcDbLine
 10
3.753436
 20
3.047944
 30
0.0
 11
3.668928
 21
2.997624
 31
0.0
  0
LINE
  5
45c
100
AcDbEntity
  8
Layer_1
 62
7
100
AcDbLine
 10
3.668928
 20
2.997624
 30
0.0
 11
3.603173
 21
3.041453
 31
0.0
  0
LINE
  5
45d
100
AcDbEntity
  8
Layer_1
 62
7
100
AcDbLine
 10
3.603173
 20
3.041453
 30
0.0
 11
3.537417
 21
3.085310
 31
0.0
  0
LINE
  5
45e
100
AcDbEntity
  8
Layer_1
 62
7
100
AcDbLine
 10
3.537417
 20
3.085310
 30
0.0
 11
3.471661
 21
3.129140
 31
0.0
  0
LINE
  5
45f
100
AcDbEntity
  8
Layer_1
 62
7
100
AcDbLine
 10
3.471661
 20
3.129140
 30
0.0
 11
3.405906
 21
3.172969
 31
0.0
  0
LINE
  5
460
100
AcDbEntity
  8
Layer_1
 62
7
100
AcDbLine
 10
3.405906
 20
3.172969
 30
0.0
 11
3.340151
 21
3.216798
 31
0.0
  0
LINE
  5
461
100
AcDbEntity
  8
Layer_1
 62
7
100
AcDbLine
 10
3.340151
 20
3.216798
 30
0.0
 11
3.274396
 21
3.260655
 31
0.0
  0
LINE
  5
462
100
AcDbEntity
  8
Layer_1
 62
7
100
AcDbLine
 10
3.274396
 20
3.260655
 30
0.0
 11
3.208641
 21
3.304484
 31
0.0
  0
LINE
  5
463
100
AcDbEntity
  8
Layer_1
 62
7
100
AcDbLine
 10
3.208641
 20
3.304484
 30
0.0
 11
3.142886
 21
3.348313
 31
0.0
  0
LINE
  5
464
100
AcDbEntity
  8
Layer_1
 62
7
100
AcDbLine
 10
3.142886
 20
3.348313
 30
0.0
 11
3.055212
 21
3.348313
 31
0.0
  0
LINE
  5
465
100
AcDbEntity
  8
Layer_1
 62
7
100
AcDbLine
 10
3.055212
 20
3.348313
 30
0.0
 11
2.967537
 21
3.348313
 31
0.0
  0
LINE
  5
466
100
AcDbEntity
  8
Layer_1
 62
7
100
AcDbLine
 10
2.967537
 20
3.348313
 30
0.0
 11
2.879862
 21
3.348313
 31
0.0
  0
LINE
  5
467
100
AcDbEntity
  8
Layer_1
 62
7
100
AcDbLine
 10
2.879862
 20
3.348313
 30
0.0
 11
2.792188
 21
3.348313
 31
0.0
  0
LINE
  5
468
100
AcDbEntity
  8
Layer_1
 62
7
100
AcDbLine
 10
2.792188
 20
3.348313
 30
0.0
 11
2.704514
 21
3.348313
 31
0.0
  0
LINE
  5
469
100
AcDbEntity
  8
Layer_1
 62
7
100
AcDbLine
 10
2.704514
 20
3.348313
 30
0.0
 11
2.616841
 21
3.348313
 31
0.0
  0
LINE
  5
46a
100
AcDbEntity
  8
Layer_1
 62
7
100
AcDbLine
 10
2.616841
 20
3.348313
 30
0.0
 11
2.529167
 21
3.348313
 31
0.0
  0
LINE
  5
46b
100
AcDbEntity
  8
Layer_1
 62
7
100
AcDbLine
 10
2.529167
 20
3.348313
 30
0.0
 11
2.441493
 21
3.348313
 31
0.0
  0
LINE
  5
46c
100
AcDbEntity
  8
Layer_1
 62
7
100
AcDbLine
 10
2.441493
 20
3.348313
 30
0.0
 11
2.463411
 21
3.304484
 31
0.0
  0
LINE
  5
46d
100
AcDbEntity
  8
Layer_1
 62
7
100
AcDbLine
 10
2.463411
 20
3.304484
 30
0.0
 11
2.485329
 21
3.260655
 31
0.0
  0
LINE
  5
46e
100
AcDbEntity
  8
Layer_1
 62
7
100
AcDbLine
 10
2.485329
 20
3.260655
 30
0.0
 11
2.507247
 21
3.216798
 31
0.0
  0
LINE
  5
46f
100
AcDbEntity
  8
Layer_1
 62
7
100
AcDbLine
 10
2.507247
 20
3.216798
 30
0.0
 11
2.529165
 21
3.172969
 31
0.0
  0
LINE
  5
470
100
AcDbEntity
  8
Layer_1
 62
7
100
AcDbLine
 10
2.529165
 20
3.172969
 30
0.0
 11
2.551084
 21
3.129140
 31
0.0
  0
LINE
  5
471
100
AcDbEntity
  8
Layer_1
 62
7
100
AcDbLine
 10
2.551084
 20
3.129140
 30
0.0
 11
2.573003
 21
3.085310
 31
0.0
  0
LINE
  5
472
100
AcDbEntity
  8
Layer_1
 62
7
100
AcDbLine
 10
2.573003
 20
3.085310
 30
0.0
 11
2.594922
 21
3.041453
 31
0.0
  0
LINE
  5
473
100
AcDbEntity
  8
Layer_1
 62
7
100
AcDbLine
 10
2.594922
 20
3.041453
 30
0.0
 11
2.616841
 21
2.997624
 31
0.0
  0
LINE
  5
474
100
AcDbEntity
  8
Layer_1
 62
7
100
AcDbLine
 10
2.616841
 20
2.997624
 30
0.0
 11
2.660677
 21
3.019637
 31
0.0
  0
LINE
  5
475
100
AcDbEntity
  8
Layer_1
 62
7
100
AcDbLine
 10
2.660677
 20
3.019637
 30
0.0
 11
2.704514
 21
3.041651
 31
0.0
  0
LINE
  5
476
100
AcDbEntity
  8
Layer_1
 62
7
100
AcDbLine
 10
2.704514
 20
3.041651
 30
0.0
 11
2.748351
 21
3.063664
 31
0.0
  0
LINE
  5
477
100
AcDbEntity
  8
Layer_1
 62
7
100
AcDbLine
 10
2.748351
 20
3.063664
 30
0.0
 11
2.792188
 21
3.085677
 31
0.0
  0
LINE
  5
478
100
AcDbEntity
  8
Layer_1
 62
7
100
AcDbLine
 10
2.792188
 20
3.085677
 30
0.0
 11
2.836025
 21
3.107691
 31
0.0
  0
LINE
  5
479
100
AcDbEntity
  8
Layer_1
 62
7
100
AcDbLine
 10
2.836025
 20
3.107691
 30
0.0
 11
2.879862
 21
3.129704
 31
0.0
  0
LINE
  5
47a
100
AcDbEntity
  8
Layer_1
 62
7
100
AcDbLine
 10
2.879862
 20
3.129704
 30
0.0
 11
2.923699
 21
3.151717
 31
0.0
  0
LINE
  5
47b
100
AcDbEntity
  8
Layer_1
 62
7
100
AcDbLine
 10
2.923699
 20
3.151717
 30
0.0
 11
2.967536
 21
3.173731
 31
0.0
  0
LINE
  5
47c
100
AcDbEntity
  8
Layer_1
 62
7
100
AcDbLine
 10
2.967536
 20
3.173731
 30
0.0
 11
3.011373
 21
3.129902
 31
0.0
  0
LINE
  5
47d
100
AcDbEntity
  8
Layer_1
 62
7
100
AcDbLine
 10
3.011373
 20
3.129902
 30
0.0
 11
3.055211
 21
3.086072
 31
0.0
  0
LINE
  5
47e
100
AcDbEntity
  8
Layer_1
 62
7
100
AcDbLine
 10
3.055211
 20
3.086072
 30
0.0
 11
3.099048
 21
3.042215
 31
0.0
  0
LINE
  5
47f
100
AcDbEntity
  8
Layer_1
 62
7
100
AcDbLine
 10
3.099048
 20
3.042215
 30
0.0
 11
3.142886
 21
2.998386
 31
0.0
  0
LINE
  5
480
100
AcDbEntity
  8
Layer_1
 62
7
100
AcDbLine
 10
3.142886
 20
2.998386
 30
0.0
 11
3.186722
 21
2.954557
 31
0.0
  0
LINE
  5
481
100
AcDbEntity
  8
Layer_1
 62
7
100
AcDbLine
 10
3.186722
 20
2.954557
 30
0.0
 11
3.230558
 21
2.910728
 31
0.0
  0
LINE
  5
482
100
AcDbEntity
  8
Layer_1
 62
7
100
AcDbLine
 10
3.230558
 20
2.910728
 30
0.0
 11
3.274394
 21
2.866870
 31
0.0
  0
LINE
  5
483
100
AcDbEntity
  8
Layer_1
 62
7
100
AcDbLine
 10
3.274394
 20
2.866870
 30
0.0
 11
3.318231
 21
2.823041
 31
0.0
  0
LINE
  5
484
100
AcDbEntity
  8
Layer_1
 62
7
100
AcDbLine
 10
3.318231
 20
2.823041
 30
0.0
 11
3.105661
 21
2.639286
 31
0.0
  0
LINE
  5
485
100
AcDbEntity
  8
Layer_1
 62
7
100
AcDbLine
 10
3.105661
 20
2.639286
 30
0.0
 11
2.937594
 21
2.446472
 31
0.0
  0
LINE
  5
486
100
AcDbEntity
  8
Layer_1
 62
7
100
AcDbLine
 10
2.937594
 20
2.446472
 30
0.0
 11
2.815882
 21
2.244062
 31
0.0
  0
LINE
  5
487
100
AcDbEntity
  8
Layer_1
 62
7
100
AcDbLine
 10
2.815882
 20
2.244062
 30
0.0
 11
2.742379
 21
2.031521
 31
0.0
  0
LINE
  5
488
100
AcDbEntity
  8
Layer_1
 62
7
100
AcDbLine
 10
2.742379
 20
2.031521
 30
0.0
 11
2.718940
 21
1.808311
 31
0.0
  0
LINE
  5
489
100
AcDbEntity
  8
Layer_1
 62
7
100
AcDbLine
 10
2.718940
 20
1.808311
 30
0.0
 11
2.747414
 21
1.573954
 31
0.0
  0
LINE
  5
48a
100
AcDbEntity
  8
Layer_1
 62
7
100
AcDbLine
 10
2.747414
 20
1.573954
 30
0.0
 11
2.829663
 21
1.327856
 31
0.0
  0
LINE
  5
48b
100
AcDbEntity
  8
Layer_1
 62
7
100
AcDbLine
 10
2.829663
 20
1.327856
 30
0.0
 11
2.967536
 21
1.069538
 31
0.0
  0
LINE
  5
48c
100
AcDbEntity
  8
Layer_1
 62
7
100
AcDbLine
 10
2.967536
 20
1.069538
 30
0.0
 11
2.967536
 21
0.959951
 31
0.0
  0
LINE
  5
48d
100
AcDbEntity
  8
Layer_1
 62
7
100
AcDbLine
 10
2.967536
 20
0.959951
 30
0.0
 11
2.967536
 21
0.850364
 31
0.0
  0
LINE
  5
48e
100
AcDbEntity
  8
Layer_1
 62
7
100
AcDbLine
 10
2.967536
 20
0.850364
 30
0.0
 11
2.967536
 21
0.740749
 31
0.0
  0
LINE
  5
48f
100
AcDbEntity
  8
Layer_1
 62
7
100
AcDbLine
 10
2.967536
 20
0.740749
 30
0.0
 11
2.967536
 21
0.631162
 31
0.0
  0
LINE
  5
490
100
AcDbEntity
  8
Layer_1
 62
7
100
AcDbLine
 10
2.967536
 20
0.631162
 30
0.0
 11
2.967536
 21
0.521576
 31
0.0
  0
LINE
  5
491
100
AcDbEntity
  8
Layer_1
 62
7
100
AcDbLine
 10
2.967536
 20
0.521576
 30
0.0
 11
2.967536
 21
0.411989
 31
0.0
  0
LINE
  5
492
100
AcDbEntity
  8
Layer_1
 62
7
100
AcDbLine
 10
2.967536
 20
0.411989
 30
0.0
 11
2.967536
 21
0.302374
 31
0.0
  0
LINE
  5
493
100
AcDbEntity
  8
Layer_1
 62
7
100
AcDbLine
 10
2.967536
 20
0.302374
 30
0.0
 11
2.967536
 21
0.192787
 31
0.0
  0
LINE
  5
494
100
AcDbEntity
  8
Layer_1
 62
7
100
AcDbLine
 10
2.967536
 20
0.192787
 30
0.0
 11
2.923699
 21
0.192787
 31
0.0
  0
LINE
  5
495
100
AcDbEntity
  8
Layer_1
 62
7
100
AcDbLine
 10
2.923699
 20
0.192787
 30
0.0
 11
2.879862
 21
0.192787
 31
0.0
  0
LINE
  5
496
100
AcDbEntity
  8
Layer_1
 62
7
100
AcDbLine
 10
2.879862
 20
0.192787
 30
0.0
 11
2.836025
 21
0.192787
 31
0.0
  0
LINE
  5
497
100
AcDbEntity
  8
Layer_1
 62
7
100
AcDbLine
 10
2.836025
 20
0.192787
 30
0.0
 11
2.792188
 21
0.192787
 31
0.0
  0
LINE
  5
498
100
AcDbEntity
  8
Layer_1
 62
7
100
AcDbLine
 10
2.792188
 20
0.192787
 30
0.0
 11
2.748351
 21
0.192787
 31
0.0
  0
LINE
  5
499
100
AcDbEntity
  8
Layer_1
 62
7
100
AcDbLine
 10
2.748351
 20
0.192787
 30
0.0
 11
2.704514
 21
0.192787
 31
0.0
  0
LINE
  5
49a
100
AcDbEntity
  8
Layer_1
 62
7
100
AcDbLine
 10
2.704514
 20
0.192787
 30
0.0
 11
2.660677
 21
0.192787
 31
0.0
  0
LINE
  5
49b
100
AcDbEntity
  8
Layer_1
 62
7
100
AcDbLine
 10
2.660677
 20
0.192787
 30
0.0
 11
2.616841
 21
0.192787
 31
0.0
  0
LINE
  5
49c
100
AcDbEntity
  8
Layer_1
 62
7
100
AcDbLine
 10
2.616841
 20
0.192787
 30
0.0
 11
2.616841
 21
0.302374
 31
0.0
  0
LINE
  5
49d
100
AcDbEntity
  8
Layer_1
 62
7
100
AcDbLine
 10
2.616841
 20
0.302374
 30
0.0
 11
2.616841
 21
0.411989
 31
0.0
  0
LINE
  5
49e
100
AcDbEntity
  8
Layer_1
 62
7
100
AcDbLine
 10
2.616841
 20
0.411989
 30
0.0
 11
2.616841
 21
0.521576
 31
0.0
  0
LINE
  5
49f
100
AcDbEntity
  8
Layer_1
 62
7
100
AcDbLine
 10
2.616841
 20
0.521576
 30
0.0
 11
2.616841
 21
0.631162
 31
0.0
  0
LINE
  5
4a0
100
AcDbEntity
  8
Layer_1
 62
7
100
AcDbLine
 10
2.616841
 20
0.631162
 30
0.0
 11
2.616841
 21
0.740749
 31
0.0
  0
LINE
  5
4a1
100
AcDbEntity
  8
Layer_1
 62
7
100
AcDbLine
 10
2.616841
 20
0.740749
 30
0.0
 11
2.616841
 21
0.850364
 31
0.0
  0
LINE
  5
4a2
100
AcDbEntity
  8
Layer_1
 62
7
100
AcDbLine
 10
2.616841
 20
0.850364
 30
0.0
 11
2.616841
 21
0.959951
 31
0.0
  0
LINE
  5
4a3
100
AcDbEntity
  8
Layer_1
 62
7
100
AcDbLine
 10
2.616841
 20
0.959951
 30
0.0
 11
2.616841
 21
1.069538
 31
0.0
  0
LINE
  5
4a4
100
AcDbEntity
  8
Layer_1
 62
7
100
AcDbLine
 10
2.616841
 20
1.069538
 30
0.0
 11
2.536259
 21
1.051476
 31
0.0
  0
LINE
  5
4a5
100
AcDbEntity
  8
Layer_1
 62
7
100
AcDbLine
 10
2.536259
 20
1.051476
 30
0.0
 11
2.446594
 21
1.028616
 31
0.0
  0
LINE
  5
4a6
100
AcDbEntity
  8
Layer_1
 62
7
100
AcDbLine
 10
2.446594
 20
1.028616
 30
0.0
 11
2.351381
 21
1.002934
 31
0.0
  0
LINE
  5
4a7
100
AcDbEntity
  8
Layer_1
 62
7
100
AcDbLine
 10
2.351381
 20
1.002934
 30
0.0
 11
2.254131
 21
0.976123
 31
0.0
  0
LINE
  5
4a8
100
AcDbEntity
  8
Layer_1
 62
7
100
AcDbLine
 10
2.254131
 20
0.976123
 30
0.0
 11
2.158387
 21
0.950158
 31
0.0
  0
LINE
  5
4a9
100
AcDbEntity
  8
Layer_1
 62
7
100
AcDbLine
 10
2.158387
 20
0.950158
 30
0.0
 11
2.067673
 21
0.926734
 31
0.0
  0
LINE
  5
4aa
100
AcDbEntity
  8
Layer_1
 62
7
100
AcDbLine
 10
2.067673
 20
0.926734
 30
0.0
 11
1.985522
 21
0.907543
 31
0.0
  0
LINE
  5
4ab
100
AcDbEntity
  8
Layer_1
 62
7
100
AcDbLine
 10
1.985522
 20
0.907543
 30
0.0
 11
1.915448
 21
0.894560
 31
0.0
  0
LINE
  5
4ac
100
AcDbEntity
  8
Layer_1
 62
7
100
AcDbLine
 10
1.915448
 20
0.894560
 30
0.0
 11
1.915448
 21
0.784974
 31
0.0
  0
LINE
  5
4ad
100
AcDbEntity
  8
Layer_1
 62
7
100
AcDbLine
 10
1.915448
 20
0.784974
 30
0.0
 11
1.915448
 21
0.675387
 31
0.0
  0
LINE
  5
4ae
100
AcDbEntity
  8
Layer_1
 62
7
100
AcDbLine
 10
1.915448
 20
0.675387
 30
0.0
 11
1.915448
 21
0.565772
 31
0.0
  0
LINE
  5
4af
100
AcDbEntity
  8
Layer_1
 62
7
100
AcDbLine
 10
1.915448
 20
0.565772
 30
0.0
 11
1.915448
 21
0.456185
 31
0.0
  0
LINE
  5
4b0
100
AcDbEntity
  8
Layer_1
 62
7
100
AcDbLine
 10
1.915448
 20
0.456185
 30
0.0
 11
1.915448
 21
0.346598
 31
0.0
  0
LINE
  5
4b1
100
AcDbEntity
  8
Layer_1
 62
7
100
AcDbLine
 10
1.915448
 20
0.346598
 30
0.0
 11
1.915448
 21
0.237011
 31
0.0
  0
LINE
  5
4b2
100
AcDbEntity
  8
Layer_1
 62
7
100
AcDbLine
 10
1.915448
 20
0.237011
 30
0.0
 11
1.915448
 21
0.127424
 31
0.0
  0
LINE
  5
4b3
100
AcDbEntity
  8
Layer_1
 62
7
100
AcDbLine
 10
1.915448
 20
0.127424
 30
0.0
 11
1.915448
 21
0.017837
 31
0.0
  0
LINE
  5
4b4
100
AcDbEntity
  8
Layer_1
 62
7
100
AcDbLine
 10
1.915448
 20
0.017837
 30
0.0
 11
1.871611
 21
0.017837
 31
0.0
  0
LINE
  5
4b5
100
AcDbEntity
  8
Layer_1
 62
7
100
AcDbLine
 10
1.871611
 20
0.017837
 30
0.0
 11
1.827774
 21
0.017837
 31
0.0
  0
LINE
  5
4b6
100
AcDbEntity
  8
Layer_1
 62
7
100
AcDbLine
 10
1.827774
 20
0.017837
 30
0.0
 11
1.783937
 21
0.017837
 31
0.0
  0
LINE
  5
4b7
100
AcDbEntity
  8
Layer_1
 62
7
100
AcDbLine
 10
1.783937
 20
0.017837
 30
0.0
 11
1.740100
 21
0.017837
 31
0.0
  0
LINE
  5
4b8
100
AcDbEntity
  8
Layer_1
 62
7
100
AcDbLine
 10
1.740100
 20
0.017837
 30
0.0
 11
1.696263
 21
0.017837
 31
0.0
  0
LINE
  5
4b9
100
AcDbEntity
  8
Layer_1
 62
7
100
AcDbLine
 10
1.696263
 20
0.017837
 30
0.0
 11
1.652425
 21
0.017837
 31
0.0
  0
LINE
  5
4ba
100
AcDbEntity
  8
Layer_1
 62
7
100
AcDbLine
 10
1.652425
 20
0.017837
 30
0.0
 11
1.608588
 21
0.017837
 31
0.0
  0
LINE
  5
4bb
100
AcDbEntity
  8
Layer_1
 62
7
100
AcDbLine
 10
1.608588
 20
0.017837
 30
0.0
 11
1.564750
 21
0.017837
 31
0.0
  0
LINE
  5
4bc
100
AcDbEntity
  8
Layer_1
 62
7
100
AcDbLine
 10
1.564750
 20
0.017837
 30
0.0
 11
1.564750
 21
0.127424
 31
0.0
  0
LINE
  5
4bd
100
AcDbEntity
  8
Layer_1
 62
7
100
AcDbLine
 10
1.564750
 20
0.127424
 30
0.0
 11
1.564750
 21
0.237011
 31
0.0
  0
LINE
  5
4be
100
AcDbEntity
  8
Layer_1
 62
7
100
AcDbLine
 10
1.564750
 20
0.237011
 30
0.0
 11
1.564750
 21
0.346598
 31
0.0
  0
LINE
  5
4bf
100
AcDbEntity
  8
Layer_1
 62
7
100
AcDbLine
 10
1.564750
 20
0.346598
 30
0.0
 11
1.564750
 21
0.456185
 31
0.0
  0
LINE
  5
4c0
100
AcDbEntity
  8
Layer_1
 62
7
100
AcDbLine
 10
1.564750
 20
0.456185
 30
0.0
 11
1.564750
 21
0.565772
 31
0.0
  0
LINE
  5
4c1
100
AcDbEntity
  8
Layer_1
 62
7
100
AcDbLine
 10
1.564750
 20
0.565772
 30
0.0
 11
1.564750
 21
0.675387
 31
0.0
  0
LINE
  5
4c2
100
AcDbEntity
  8
Layer_1
 62
7
100
AcDbLine
 10
1.564750
 20
0.675387
 30
0.0
 11
1.564750
 21
0.784974
 31
0.0
  0
LINE
  5
4c3
100
AcDbEntity
  8
Layer_1
 62
7
100
AcDbLine
 10
1.564750
 20
0.784974
 30
0.0
 11
1.564750
 21
0.894560
 31
0.0
  0
LINE
  5
4c4
100
AcDbEntity
  8
Layer_1
 62
7
100
AcDbLine
 10
1.564750
 20
0.894560
 30
0.0
 11
1.470864
 21
0.887223
 31
0.0
  0
LINE
  5
4c5
100
AcDbEntity
  8
Layer_1
 62
7
100
AcDbLine
 10
1.470864
 20
0.887223
 30
0.0
 11
1.380506
 21
0.878756
 31
0.0
  0
LINE
  5
4c6
100
AcDbEntity
  8
Layer_1
 62
7
100
AcDbLine
 10
1.380506
 20
0.878756
 30
0.0
 11
1.292768
 21
0.870854
 31
0.0
  0
LINE
  5
4c7
100
AcDbEntity
  8
Layer_1
 62
7
100
AcDbLine
 10
1.292768
 20
0.870854
 30
0.0
 11
1.206740
 21
0.864363
 31
0.0
  0
LINE
  5
4c8
100
AcDbEntity
  8
Layer_1
 62
7
100
AcDbLine
 10
1.206740
 20
0.864363
 30
0.0
 11
1.121514
 21
0.861540
 31
0.0
  0
LINE
  5
4c9
100
AcDbEntity
  8
Layer_1
 62
7
100
AcDbLine
 10
1.121514
 20
0.861540
 30
0.0
 11
1.036180
 21
0.864363
 31
0.0
  0
LINE
  5
4ca
100
AcDbEntity
  8
Layer_1
 62
7
100
AcDbLine
 10
1.036180
 20
0.864363
 30
0.0
 11
0.949858
 21
0.872829
 31
0.0
  0
LINE
  5
4cb
100
AcDbEntity
  8
Layer_1
 62
7
100
AcDbLine
 10
0.949858
 20
0.872829
 30
0.0
 11
0.861557
 21
0.887787
 31
0.0
  0
LINE
  5
4cc
100
AcDbEntity
  8
Layer_1
 62
7
100
AcDbLine
 10
0.861557
 20
0.887787
 30
0.0
 11
0.817945
 21
0.801145
 31
0.0
  0
LINE
  5
4cd
100
AcDbEntity
  8
Layer_1
 62
7
100
AcDbLine
 10
0.817945
 20
0.801145
 30
0.0
 11
0.774333
 21
0.714531
 31
0.0
  0
LINE
  5
4ce
100
AcDbEntity
  8
Layer_1
 62
7
100
AcDbLine
 10
0.774333
 20
0.714531
 30
0.0
 11
0.730721
 21
0.627889
 31
0.0
  0
LINE
  5
4cf
100
AcDbEntity
  8
Layer_1
 62
7
100
AcDbLine
 10
0.730721
 20
0.627889
 30
0.0
 11
0.687109
 21
0.541246
 31
0.0
  0
LINE
  5
4d0
100
AcDbEntity
  8
Layer_1
 62
7
100
AcDbLine
 10
0.687109
 20
0.541246
 30
0.0
 11
0.643498
 21
0.454604
 31
0.0
  0
LINE
  5
4d1
100
AcDbEntity
  8
Layer_1
 62
7
100
AcDbLine
 10
0.643498
 20
0.454604
 30
0.0
 11
0.599886
 21
0.367962
 31
0.0
  0
LINE
  5
4d2
100
AcDbEntity
  8
Layer_1
 62
7
100
AcDbLine
 10
0.599886
 20
0.367962
 30
0.0
 11
0.556274
 21
0.281320
 31
0.0
  0
LINE
  5
4d3
100
AcDbEntity
  8
Layer_1
 62
7
100
AcDbLine
 10
0.556274
 20
0.281320
 30
0.0
 11
0.512662
 21
0.194678
 31
0.0
  0
LINE
  5
4d4
100
AcDbEntity
  8
Layer_1
 62
7
100
AcDbLine
 10
0.512662
 20
0.194678
 30
0.0
 11
0.468825
 21
0.216691
 31
0.0
  0
LINE
  5
4d5
100
AcDbEntity
  8
Layer_1
 62
7
100
AcDbLine
 10
0.468825
 20
0.216691
 30
0.0
 11
0.424989
 21
0.238704
 31
0.0
  0
LINE
  5
4d6
100
AcDbEntity
  8
Layer_1
 62
7
100
AcDbLine
 10
0.424989
 20
0.238704
 30
0.0
 11
0.381152
 21
0.260718
 31
0.0
  0
LINE
  5
4d7
100
AcDbEntity
  8
Layer_1
 62
7
100
AcDbLine
 10
0.381152
 20
0.260718
 30
0.0
 11
0.337315
 21
0.282731
 31
0.0
  0
LINE
  5
4d8
100
AcDbEntity
  8
Layer_1
 62
7
100
AcDbLine
 10
0.337315
 20
0.282731
 30
0.0
 11
0.293478
 21
0.304744
 31
0.0
  0
LINE
  5
4d9
100
AcDbEntity
  8
Layer_1
 62
7
100
AcDbLine
 10
0.293478
 20
0.304744
 30
0.0
 11
0.249641
 21
0.326758
 31
0.0
  0
LINE
  5
4da
100
AcDbEntity
  8
Layer_1
 62
7
100
AcDbLine
 10
0.249641
 20
0.326758
 30
0.0
 11
0.205804
 21
0.348771
 31
0.0
  0
LINE
  5
4db
100
AcDbEntity
  8
Layer_1
 62
7
100
AcDbLine
 10
0.205804
 20
0.348771
 30
0.0
 11
0.161967
 21
0.370784
 31
0.0
  0
LINE
  5
4dc
100
AcDbEntity
  8
Layer_1
 62
7
100
AcDbLine
 10
0.161967
 20
0.370784
 30
0.0
 11
0.205804
 21
0.458442
 31
0.0
  0
LINE
  5
4dd
100
AcDbEntity
  8
Layer_1
 62
7
100
AcDbLine
 10
0.205804
 20
0.458442
 30
0.0
 11
0.249641
 21
0.546129
 31
0.0
  0
LINE
  5
4de
100
AcDbEntity
  8
Layer_1
 62
7
100
AcDbLine
 10
0.249641
 20
0.546129
 30
0.0
 11
0.293478
 21
0.633787
 31
0.0
  0
LINE
  5
4df
100
AcDbEntity
  8
Layer_1
 62
7
100
AcDbLine
 10
0.293478
 20
0.633787
 30
0.0
 11
0.337315
 21
0.721474
 31
0.0
  0
LINE
  5
4e0
100
AcDbEntity
  8
Layer_1
 62
7
100
AcDbLine
 10
0.337315
 20
0.721474
 30
0.0
 11
0.381152
 21
0.809132
 31
0.0
  0
LINE
  5
4e1
100
AcDbEntity
  8
Layer_1
 62
7
100
AcDbLine
 10
0.381152
 20
0.809132
 30
0.0
 11
0.424989
 21
0.896818
 31
0.0
  0
LINE
  5
4e2
100
AcDbEntity
  8
Layer_1
 62
7
100
AcDbLine
 10
0.424989
 20
0.896818
 30
0.0
 11
0.468825
 21
0.984476
 31
0.0
  0
LINE
  5
4e3
100
AcDbEntity
  8
Layer_1
 62
7
100
AcDbLine
 10
0.468825
 20
0.984476
 30
0.0
 11
0.512662
 21
1.072163
 31
0.0
  0
LINE
  5
4e4
100
AcDbEntity
  8
Layer_1
 62
7
100
AcDbLine
 10
0.512662
 20
1.072163
 30
0.0
 11
0.460662
 21
1.093612
 31
0.0
  0
LINE
  5
4e5
100
AcDbEntity
  8
Layer_1
 62
7
100
AcDbLine
 10
0.460662
 20
1.093612
 30
0.0
 11
0.410392
 21
1.111956
 31
0.0
  0
LINE
  5
4e6
100
AcDbEntity
  8
Layer_1
 62
7
100
AcDbLine
 10
0.410392
 20
1.111956
 30
0.0
 11
0.362159
 21
1.128890
 31
0.0
  0
LINE
  5
4e7
100
AcDbEntity
  8
Layer_1
 62
7
100
AcDbLine
 10
0.362159
 20
1.128890
 30
0.0
 11
0.316247
 21
1.145823
 31
0.0
  0
LINE
  5
4e8
100
AcDbEntity
  8
Layer_1
 62
7
100
AcDbLine
 10
0.316247
 20
1.145823
 30
0.0
 11
0.272972
 21
1.164450
 31
0.0
  0
LINE
  5
4e9
100
AcDbEntity
  8
Layer_1
 62
7
100
AcDbLine
 10
0.272972
 20
1.164450
 30
0.0
 11
0.232633
 21
1.186463
 31
0.0
  0
LINE
  5
4ea
100
AcDbEntity
  8
Layer_1
 62
7
100
AcDbLine
 10
0.232633
 20
1.186463
 30
0.0
 11
0.195560
 21
1.213556
 31
0.0
  0
LINE
  5
4eb
100
AcDbEntity
  8
Layer_1
 62
7
100
AcDbLine
 10
0.195560
 20
1.213556
 30
0.0
 11
0.161967
 21
1.247084
 31
0.0
  0
LINE
  5
4ec
100
AcDbEntity
  8
Layer_1
 62
7
100
AcDbLine
 10
0.161967
 20
1.247084
 30
0.0
 11
0.085921
 21
1.443539
 31
0.0
  0
LINE
  5
4ed
100
AcDbEntity
  8
Layer_1
 62
7
100
AcDbLine
 10
0.085921
 20
1.443539
 30
0.0
 11
0.036579
 21
1.650606
 31
0.0
  0
LINE
  5
4ee
100
AcDbEntity
  8
Layer_1
 62
7
100
AcDbLine
 10
0.036579
 20
1.650606
 30
0.0
 11
0.017714
 21
1.866195
 31
0.0
  0
LINE
  5
4ef
100
AcDbEntity
  8
Layer_1
 62
7
100
AcDbLine
 10
0.017714
 20
1.866195
 30
0.0
 11
0.033102
 21
2.088304
 31
0.0
  0
LINE
  5
4f0
100
AcDbEntity
  8
Layer_1
 62
7
100
AcDbLine
 10
0.033102
 20
2.088304
 30
0.0
 11
0.033102
 21
2.088276
 31
0.0
  0
LINE
  5
4f1
100
AcDbEntity
  8
Layer_1
 62
7
100
AcDbLine
 10
0.033102
 20
2.088276
 30
0.0
 11
0.033102
 21
2.088248
 31
0.0
  0
LINE
  5
4f2
100
AcDbEntity
  8
Layer_1
 62
7
100
AcDbLine
 10
0.033102
 20
2.088248
 30
0.0
 11
0.033107
 21
2.088106
 31
0.0
  0
LINE
  5
4f3
100
AcDbEntity
  8
Layer_1
 62
7
100
AcDbLine
 10
0.033107
 20
2.088106
 30
0.0
 11
0.033108
 21
2.086272
 31
0.0
  0
ENDSEC
  0
SECTION
  2
OBJECTS
  0
DICTIONARY
  5
C
330
0
100
AcDbDictionary
  3
ACAD_GROUP
350
D
  3
ACAD_MLINESTYLE
350
17
  0
DICTIONARY
  5
D
330
C
100
AcDbDictionary
  0
DICTIONARY
  5
1A
330
C
100
AcDbDictionary
  0
DICTIONARY
  5
17
330
C
100
AcDbDictionary
  3
STANDARD
350
18
  0
DICTIONARY
  5
19
330
C
100
AcDbDictionary
  0
ENDSEC
  0
EOF
