  0
SECTION
  2
HEADER
  9
$ACADVER
  1
AC1014
  9
$HANDSEED
  5
FFFF
  9
$MEASUREMENT
 70
     1
  0
ENDSEC
  0
SECTION
  2
TABLES
  0
TABLE
  2
VPORT
  5
8
330
0
100
AcDbSymbolTable
 70
     4
  0
VPORT
  5
2E
330
8
100
AcDbSymbolTableRecord
100
AcDbViewportTableRecord
  2
*ACTIVE
 70
     0
 10
0.0
 20
0.0
 11
1.0
 21
1.0
 12
210.0
 22
148.5
 13
0.0
 23
0.0
 14
10.0
 24
10.0
 15
10.0
 25
10.0
 16
0.0
 26
0.0
 36
1.0
 17
0.0
 27
0.0
 37
0.0
 40
341.0
 41
1.24
 42
50.0
 43
0.0
 44
0.0
 50
0.0
 51
0.0
 71
     0
 72
   100
 73
     1
 74
     3
 75
     0
 76
     0
 77
     0
 78
     0
  0
ENDTAB
  0
TABLE
  2
LTYPE
  5
5
330
0
100
AcDbSymbolTable
 70
     1
  0
LTYPE
  5
14
330
5
100
AcDbSymbolTableRecord
100
AcDbLinetypeTableRecord
  2
BYBLOCK
 70
     0
  3

 72
    65
 73
     0
 40
0.0
  0
LTYPE
  5
15
330
5
100
AcDbSymbolTableRecord
100
AcDbLinetypeTableRecord
  2
BYLAYER
 70
     0
  3

 72
    65
 73
     0
 40
0.0
  0
LTYPE
  5
16
330
5
100
AcDbSymbolTableRecord
100
AcDbLinetypeTableRecord
  2
CONTINUOUS
 70
     0
  3
Solid line
 72
    65
 73
     0
 40
0.0
  0
ENDTAB
  0
TABLE
  2
LAYER
  5
2
100
AcDbSymbolTable
 70
2
  0
LAYER
  5
50
100
AcDbSymbolTableRecord
100
AcDbLayerTableRecord
  2
0
 70
0
  6
CONTINUOUS
  0
LAYER
  5
51
100
AcDbSymbolTableRecord
100
AcDbLayerTableRecord
  2
Layer_1
 70
0
  6
CONTINUOUS
  0
ENDTAB
  0
TABLE
  2
STYLE
  5
3
330
0
100
AcDbSymbolTable
 70
     1
  0
STYLE
  5
11
330
3
100
AcDbSymbolTableRecord
100
AcDbTextStyleTableRecord
  2
STANDARD
 70
     0
 40
0.0
 41
1.0
 50
0.0
 71
     0
 42
2.5
  3
txt
  4

  0
ENDTAB
  0
TABLE
  2
VIEW
  5
6
330
0
100
AcDbSymbolTable
 70
     0
  0
ENDTAB
  0
TABLE
  2
UCS
  5
7
330
0
100
AcDbSymbolTable
 70
     0
  0
ENDTAB
  0
TABLE
  2
APPID
  5
9
330
0
100
AcDbSymbolTable
 70
     2
  0
APPID
  5
12
330
9
100
AcDbSymbolTableRecord
100
AcDbRegAppTableRecord
  2
ACAD
 70
     0
  0
ENDTAB
  0
TABLE
  2
DIMSTYLE
  5
A
330
0
100
AcDbSymbolTable
 70
     1
  0
DIMSTYLE
105
27
330
A
100
AcDbSymbolTableRecord
100
AcDbDimStyleTableRecord
  2
ISO-25
 70
     0
  3

  4

  5

  6

  7

 40
1.0
 41
2.5
 42
0.625
 43
3.75
 44
1.25
 45
0.0
 46
0.0
 47
0.0
 48
0.0
140
2.5
141
2.5
142
0.0
143
0.03937007874016
144
1.0
145
0.0
146
1.0
147
0.625
 71
     0
 72
     0
 73
     0
 74
     0
 75
     0
 76
     0
 77
     1
 78
     8
170
     0
171
     3
172
     1
173
     0
174
     0
175
     0
176
     0
177
     0
178
     0
270
     2
271
     2
272
     2
273
     2
274
     3
340
11
275
     0
280
     0
281
     0
282
     0
283
     0
284
     8
285
     0
286
     0
287
     3
288
     0
  0
ENDTAB
  0
TABLE
  2
BLOCK_RECORD
  5
1
330
0
100
AcDbSymbolTable
 70
     1
  0
BLOCK_RECORD
  5
1F
330
1
100
AcDbSymbolTableRecord
100
AcDbBlockTableRecord
  2
*MODEL_SPACE
  0
BLOCK_RECORD
  5
1B
330
1
100
AcDbSymbolTableRecord
100
AcDbBlockTableRecord
  2
*PAPER_SPACE
  0
ENDTAB
  0
ENDSEC
  0
SECTION
  2
BLOCKS
  0
BLOCK
  5
20
330
1F
100
AcDbEntity
  8
0
100
AcDbBlockBegin
  2
*MODEL_SPACE
 70
     0
 10
0.0
 20
0.0
 30
0.0
  3
*MODEL_SPACE
  1

  0
ENDBLK
  5
21
330
1F
100
AcDbEntity
  8
0
100
AcDbBlockEnd
  0
BLOCK
  5
1C
330
1B
100
AcDbEntity
 67
     1
  8
0
100
AcDbBlockBegin
  2
*PAPER_SPACE
  1

  0
ENDBLK
  5
1D
330
1B
100
AcDbEntity
 67
     1
  8
0
100
AcDbBlockEnd
  0
ENDSEC
  0
SECTION
  2
ENTITIES
  0
LINE
  5
100
100
AcDbEntity
  8
Layer_1
 62
7
100
AcDbLine
 10
7.006307
 20
4.174208
 30
0.0
 11
7.031478
 21
3.757507
 31
0.0
  0
LINE
  5
101
100
AcDbEntity
  8
Layer_1
 62
7
100
AcDbLine
 10
7.031478
 20
3.757507
 30
0.0
 11
7.100128
 21
3.345463
 31
0.0
  0
LINE
  5
102
100
AcDbEntity
  8
Layer_1
 62
7
100
AcDbLine
 10
7.100128
 20
3.345463
 30
0.0
 11
7.201945
 21
2.984811
 31
0.0
  0
LINE
  5
103
100
AcDbEntity
  8
Layer_1
 62
7
100
AcDbLine
 10
7.201945
 20
2.984811
 30
0.0
 11
7.326627
 21
2.722260
 31
0.0
  0
LINE
  5
104
100
AcDbEntity
  8
Layer_1
 62
7
100
AcDbLine
 10
7.326627
 20
2.722260
 30
0.0
 11
7.451310
 21
2.612814
 31
0.0
  0
LINE
  5
105
100
AcDbEntity
  8
Layer_1
 62
7
100
AcDbLine
 10
7.451310
 20
2.612814
 30
0.0
 11
7.553126
 21
2.669738
 31
0.0
  0
LINE
  5
106
100
AcDbEntity
  8
Layer_1
 62
7
100
AcDbLine
 10
7.553126
 20
2.669738
 30
0.0
 11
7.621772
 21
2.876974
 31
0.0
  0
LINE
  5
107
100
AcDbEntity
  8
Layer_1
 62
7
100
AcDbLine
 10
7.621772
 20
2.876974
 30
0.0
 11
7.646946
 21
3.218660
 31
0.0
  0
LINE
  5
108
100
AcDbEntity
  8
Layer_1
 62
7
100
AcDbLine
 10
7.646946
 20
3.218660
 30
0.0
 11
7.621769
 21
3.635333
 31
0.0
  0
LINE
  5
109
100
AcDbEntity
  8
Layer_1
 62
7
100
AcDbLine
 10
7.621769
 20
3.635333
 30
0.0
 11
7.553126
 21
4.047434
 31
0.0
  0
LINE
  5
10a
100
AcDbEntity
  8
Layer_1
 62
7
100
AcDbLine
 10
7.553126
 20
4.047434
 30
0.0
 11
7.451310
 21
4.408058
 31
0.0
  0
LINE
  5
10b
100
AcDbEntity
  8
Layer_1
 62
7
100
AcDbLine
 10
7.451310
 20
4.408058
 30
0.0
 11
7.326627
 21
4.670637
 31
0.0
  0
LINE
  5
10c
100
AcDbEntity
  8
Layer_1
 62
7
100
AcDbLine
 10
7.326627
 20
4.670637
 30
0.0
 11
7.201945
 21
4.780083
 31
0.0
  0
LINE
  5
10d
100
AcDbEntity
  8
Layer_1
 62
7
100
AcDbLine
 10
7.201945
 20
4.780083
 30
0.0
 11
7.100128
 21
4.723131
 31
0.0
  0
LINE
  5
10e
100
AcDbEntity
  8
Layer_1
 62
7
100
AcDbLine
 10
7.100128
 20
4.723131
 30
0.0
 11
7.031479
 21
4.515867
 31
0.0
  0
LINE
  5
10f
100
AcDbEntity
  8
Layer_1
 62
7
100
AcDbLine
 10
7.031479
 20
4.515867
 30
0.0
 11
7.006307
 21
4.174208
 31
0.0
  0
LINE
  5
110
100
AcDbEntity
  8
Layer_1
 62
7
100
AcDbLine
 10
8.242782
 20
4.558510
 30
0.0
 11
8.267231
 21
4.147200
 31
0.0
  0
LINE
  5
111
100
AcDbEntity
  8
Layer_1
 62
7
100
AcDbLine
 10
8.267231
 20
4.147200
 30
0.0
 11
8.333873
 21
3.729765
 31
0.0
  0
LINE
  5
112
100
AcDbEntity
  8
Layer_1
 62
7
100
AcDbLine
 10
8.333873
 20
3.729765
 30
0.0
 11
8.432723
 21
3.354184
 31
0.0
  0
LINE
  5
113
100
AcDbEntity
  8
Layer_1
 62
7
100
AcDbLine
 10
8.432723
 20
3.354184
 30
0.0
 11
8.553774
 21
3.068292
 31
0.0
  0
LINE
  5
114
100
AcDbEntity
  8
Layer_1
 62
7
100
AcDbLine
 10
8.553774
 20
3.068292
 30
0.0
 11
8.674828
 21
2.931161
 31
0.0
  0
LINE
  5
115
100
AcDbEntity
  8
Layer_1
 62
7
100
AcDbLine
 10
8.674828
 20
2.931161
 30
0.0
 11
8.773681
 21
2.961161
 31
0.0
  0
LINE
  5
116
100
AcDbEntity
  8
Layer_1
 62
7
100
AcDbLine
 10
8.773681
 20
2.961161
 30
0.0
 11
8.840327
 21
3.145734
 31
0.0
  0
LINE
  5
117
100
AcDbEntity
  8
Layer_1
 62
7
100
AcDbLine
 10
8.840327
 20
3.145734
 30
0.0
 11
8.864768
 21
3.471644
 31
0.0
  0
LINE
  5
118
100
AcDbEntity
  8
Layer_1
 62
7
100
AcDbLine
 10
8.864768
 20
3.471644
 30
0.0
 11
8.840338
 21
3.882899
 31
0.0
  0
LINE
  5
119
100
AcDbEntity
  8
Layer_1
 62
7
100
AcDbLine
 10
8.840338
 20
3.882899
 30
0.0
 11
8.773683
 21
4.300334
 31
0.0
  0
LINE
  5
11a
100
AcDbEntity
  8
Layer_1
 62
7
100
AcDbLine
 10
8.773683
 20
4.300334
 30
0.0
 11
8.674830
 21
4.675943
 31
0.0
  0
LINE
  5
11b
100
AcDbEntity
  8
Layer_1
 62
7
100
AcDbLine
 10
8.674830
 20
4.675943
 30
0.0
 11
8.553777
 21
4.961862
 31
0.0
  0
LINE
  5
11c
100
AcDbEntity
  8
Layer_1
 62
7
100
AcDbLine
 10
8.553777
 20
4.961862
 30
0.0
 11
8.432726
 21
5.098881
 31
0.0
  0
LINE
  5
11d
100
AcDbEntity
  8
Layer_1
 62
7
100
AcDbLine
 10
8.432726
 20
5.098881
 30
0.0
 11
8.333875
 21
5.068909
 31
0.0
  0
LINE
  5
11e
100
AcDbEntity
  8
Layer_1
 62
7
100
AcDbLine
 10
8.333875
 20
5.068909
 30
0.0
 11
8.267226
 21
4.884364
 31
0.0
  0
LINE
  5
11f
100
AcDbEntity
  8
Layer_1
 62
7
100
AcDbLine
 10
8.267226
 20
4.884364
 30
0.0
 11
8.242782
 21
4.558510
 31
0.0
  0
LINE
  5
120
100
AcDbEntity
  8
Layer_1
 62
7
100
AcDbLine
 10
0.048255
 20
3.791233
 30
0.0
 11
0.318425
 21
4.619132
 31
0.0
  0
LINE
  5
121
100
AcDbEntity
  8
Layer_1
 62
7
100
AcDbLine
 10
0.318425
 20
4.619132
 30
0.0
 11
0.919975
 21
5.449514
 31
0.0
  0
LINE
  5
122
100
AcDbEntity
  8
Layer_1
 62
7
100
AcDbLine
 10
0.919975
 20
5.449514
 30
0.0
 11
1.574967
 21
6.137318
 31
0.0
  0
LINE
  5
123
100
AcDbEntity
  8
Layer_1
 62
7
100
AcDbLine
 10
1.574967
 20
6.137318
 30
0.0
 11
3.169038
 21
7.019629
 31
0.0
  0
LINE
  5
124
100
AcDbEntity
  8
Layer_1
 62
7
100
AcDbLine
 10
3.169038
 20
7.019629
 30
0.0
 11
5.391640
 21
7.276339
 31
0.0
  0
LINE
  5
125
100
AcDbEntity
  8
Layer_1
 62
7
100
AcDbLine
 10
5.391640
 20
7.276339
 30
0.0
 11
7.932232
 21
6.086970
 31
0.0
  0
LINE
  5
126
100
AcDbEntity
  8
Layer_1
 62
7
100
AcDbLine
 10
7.932232
 20
6.086970
 30
0.0
 11
8.089625
 21
6.214760
 31
0.0
  0
LINE
  5
127
100
AcDbEntity
  8
Layer_1
 62
7
100
AcDbLine
 10
8.089625
 20
6.214760
 30
0.0
 11
8.262769
 21
6.330160
 31
0.0
  0
LINE
  5
128
100
AcDbEntity
  8
Layer_1
 62
7
100
AcDbLine
 10
8.262769
 20
6.330160
 30
0.0
 11
8.430019
 21
6.403651
 31
0.0
  0
LINE
  5
129
100
AcDbEntity
  8
Layer_1
 62
7
100
AcDbLine
 10
8.430019
 20
6.403651
 30
0.0
 11
8.569713
 21
6.403651
 31
0.0
  0
LINE
  5
12a
100
AcDbEntity
  8
Layer_1
 62
7
100
AcDbLine
 10
8.569713
 20
6.403651
 30
0.0
 11
8.649396
 21
6.642750
 31
0.0
  0
LINE
  5
12b
100
AcDbEntity
  8
Layer_1
 62
7
100
AcDbLine
 10
8.649396
 20
6.642750
 30
0.0
 11
8.729079
 21
6.881820
 31
0.0
  0
LINE
  5
12c
100
AcDbEntity
  8
Layer_1
 62
7
100
AcDbLine
 10
8.729079
 20
6.881820
 30
0.0
 11
8.808765
 21
7.120862
 31
0.0
  0
LINE
  5
12d
100
AcDbEntity
  8
Layer_1
 62
7
100
AcDbLine
 10
8.808765
 20
7.120862
 30
0.0
 11
8.888451
 21
7.359876
 31
0.0
  0
LINE
  5
12e
100
AcDbEntity
  8
Layer_1
 62
7
100
AcDbLine
 10
8.888451
 20
7.359876
 30
0.0
 11
9.207191
 21
7.280177
 31
0.0
  0
LINE
  5
12f
100
AcDbEntity
  8
Layer_1
 62
7
100
AcDbLine
 10
9.207191
 20
7.280177
 30
0.0
 11
9.525931
 21
7.200506
 31
0.0
  0
LINE
  5
130
100
AcDbEntity
  8
Layer_1
 62
7
100
AcDbLine
 10
9.525931
 20
7.200506
 30
0.0
 11
9.844669
 21
7.120862
 31
0.0
  0
LINE
  5
131
100
AcDbEntity
  8
Layer_1
 62
7
100
AcDbLine
 10
9.844669
 20
7.120862
 30
0.0
 11
10.163407
 21
7.041191
 31
0.0
  0
LINE
  5
132
100
AcDbEntity
  8
Layer_1
 62
7
100
AcDbLine
 10
10.163407
 20
7.041191
 30
0.0
 11
10.083721
 21
6.881820
 31
0.0
  0
LINE
  5
133
100
AcDbEntity
  8
Layer_1
 62
7
100
AcDbLine
 10
10.083721
 20
6.881820
 30
0.0
 11
10.004035
 21
6.722421
 31
0.0
  0
LINE
  5
134
100
AcDbEntity
  8
Layer_1
 62
7
100
AcDbLine
 10
10.004035
 20
6.722421
 30
0.0
 11
9.924352
 21
6.563022
 31
0.0
  0
LINE
  5
135
100
AcDbEntity
  8
Layer_1
 62
7
100
AcDbLine
 10
9.924352
 20
6.563022
 30
0.0
 11
9.844669
 21
6.403651
 31
0.0
  0
LINE
  5
136
100
AcDbEntity
  8
Layer_1
 62
7
100
AcDbLine
 10
9.844669
 20
6.403651
 30
0.0
 11
9.685300
 21
6.483379
 31
0.0
  0
LINE
  5
137
100
AcDbEntity
  8
Layer_1
 62
7
100
AcDbLine
 10
9.685300
 20
6.483379
 30
0.0
 11
9.525931
 21
6.563107
 31
0.0
  0
LINE
  5
138
100
AcDbEntity
  8
Layer_1
 62
7
100
AcDbLine
 10
9.525931
 20
6.563107
 30
0.0
 11
9.366560
 21
6.642750
 31
0.0
  0
LINE
  5
139
100
AcDbEntity
  8
Layer_1
 62
7
100
AcDbLine
 10
9.366560
 20
6.642750
 30
0.0
 11
9.207188
 21
6.722421
 31
0.0
  0
LINE
  5
13a
100
AcDbEntity
  8
Layer_1
 62
7
100
AcDbLine
 10
9.207188
 20
6.722421
 30
0.0
 11
9.127503
 21
6.563022
 31
0.0
  0
LINE
  5
13b
100
AcDbEntity
  8
Layer_1
 62
7
100
AcDbLine
 10
9.127503
 20
6.563022
 30
0.0
 11
9.047817
 21
6.403651
 31
0.0
  0
LINE
  5
13c
100
AcDbEntity
  8
Layer_1
 62
7
100
AcDbLine
 10
9.047817
 20
6.403651
 30
0.0
 11
8.968134
 21
6.244337
 31
0.0
  0
LINE
  5
13d
100
AcDbEntity
  8
Layer_1
 62
7
100
AcDbLine
 10
8.968134
 20
6.244337
 30
0.0
 11
8.888451
 21
6.084938
 31
0.0
  0
LINE
  5
13e
100
AcDbEntity
  8
Layer_1
 62
7
100
AcDbLine
 10
8.888451
 20
6.084938
 30
0.0
 11
9.237632
 21
5.402750
 31
0.0
  0
LINE
  5
13f
100
AcDbEntity
  8
Layer_1
 62
7
100
AcDbLine
 10
9.237632
 20
5.402750
 30
0.0
 11
9.440510
 21
4.443279
 31
0.0
  0
LINE
  5
140
100
AcDbEntity
  8
Layer_1
 62
7
100
AcDbLine
 10
9.440510
 20
4.443279
 30
0.0
 11
9.526733
 21
3.428041
 31
0.0
  0
LINE
  5
141
100
AcDbEntity
  8
Layer_1
 62
7
100
AcDbLine
 10
9.526733
 20
3.428041
 30
0.0
 11
9.525943
 21
2.578778
 31
0.0
  0
LINE
  5
142
100
AcDbEntity
  8
Layer_1
 62
7
100
AcDbLine
 10
9.525943
 20
2.578778
 30
0.0
 11
9.085726
 21
2.353028
 31
0.0
  0
LINE
  5
143
100
AcDbEntity
  8
Layer_1
 62
7
100
AcDbLine
 10
9.085726
 20
2.353028
 30
0.0
 11
8.758866
 21
2.170741
 31
0.0
  0
LINE
  5
144
100
AcDbEntity
  8
Layer_1
 62
7
100
AcDbLine
 10
8.758866
 20
2.170741
 30
0.0
 11
8.417121
 21
2.033130
 31
0.0
  0
LINE
  5
145
100
AcDbEntity
  8
Layer_1
 62
7
100
AcDbLine
 10
8.417121
 20
2.033130
 30
0.0
 11
7.932244
 21
1.941294
 31
0.0
  0
LINE
  5
146
100
AcDbEntity
  8
Layer_1
 62
7
100
AcDbLine
 10
7.932244
 20
1.941294
 30
0.0
 11
7.932244
 21
1.622609
 31
0.0
  0
LINE
  5
147
100
AcDbEntity
  8
Layer_1
 62
7
100
AcDbLine
 10
7.932244
 20
1.622609
 30
0.0
 11
7.932244
 21
1.303896
 31
0.0
  0
LINE
  5
148
100
AcDbEntity
  8
Layer_1
 62
7
100
AcDbLine
 10
7.932244
 20
1.303896
 30
0.0
 11
7.932244
 21
0.985154
 31
0.0
  0
LINE
  5
149
100
AcDbEntity
  8
Layer_1
 62
7
100
AcDbLine
 10
7.932244
 20
0.985154
 30
0.0
 11
7.932244
 21
0.666412
 31
0.0
  0
LINE
  5
14a
100
AcDbEntity
  8
Layer_1
 62
7
100
AcDbLine
 10
7.932244
 20
0.666412
 30
0.0
 11
7.772875
 21
0.666412
 31
0.0
  0
LINE
  5
14b
100
AcDbEntity
  8
Layer_1
 62
7
100
AcDbLine
 10
7.772875
 20
0.666412
 30
0.0
 11
7.613506
 21
0.666412
 31
0.0
  0
LINE
  5
14c
100
AcDbEntity
  8
Layer_1
 62
7
100
AcDbLine
 10
7.613506
 20
0.666412
 30
0.0
 11
7.454137
 21
0.666412
 31
0.0
  0
LINE
  5
14d
100
AcDbEntity
  8
Layer_1
 62
7
100
AcDbLine
 10
7.454137
 20
0.666412
 30
0.0
 11
7.294768
 21
0.666412
 31
0.0
  0
LINE
  5
14e
100
AcDbEntity
  8
Layer_1
 62
7
100
AcDbLine
 10
7.294768
 20
0.666412
 30
0.0
 11
7.294768
 21
0.985154
 31
0.0
  0
LINE
  5
14f
100
AcDbEntity
  8
Layer_1
 62
7
100
AcDbLine
 10
7.294768
 20
0.985154
 30
0.0
 11
7.294768
 21
1.303896
 31
0.0
  0
LINE
  5
150
100
AcDbEntity
  8
Layer_1
 62
7
100
AcDbLine
 10
7.294768
 20
1.303896
 30
0.0
 11
7.294768
 21
1.622609
 31
0.0
  0
LINE
  5
151
100
AcDbEntity
  8
Layer_1
 62
7
100
AcDbLine
 10
7.294768
 20
1.622609
 30
0.0
 11
7.294768
 21
1.941294
 31
0.0
  0
LINE
  5
152
100
AcDbEntity
  8
Layer_1
 62
7
100
AcDbLine
 10
7.294768
 20
1.941294
 30
0.0
 11
6.912554
 21
1.905509
 31
0.0
  0
LINE
  5
153
100
AcDbEntity
  8
Layer_1
 62
7
100
AcDbLine
 10
6.912554
 20
1.905509
 30
0.0
 11
6.515815
 21
1.888011
 31
0.0
  0
LINE
  5
154
100
AcDbEntity
  8
Layer_1
 62
7
100
AcDbLine
 10
6.515815
 20
1.888011
 30
0.0
 11
6.110126
 21
1.896760
 31
0.0
  0
LINE
  5
155
100
AcDbEntity
  8
Layer_1
 62
7
100
AcDbLine
 10
6.110126
 20
1.896760
 30
0.0
 11
5.701074
 21
1.941690
 31
0.0
  0
LINE
  5
156
100
AcDbEntity
  8
Layer_1
 62
7
100
AcDbLine
 10
5.701074
 20
1.941690
 30
0.0
 11
5.265413
 21
3.163204
 31
0.0
  0
LINE
  5
157
100
AcDbEntity
  8
Layer_1
 62
7
100
AcDbLine
 10
5.265413
 20
3.163204
 30
0.0
 11
5.600320
 21
4.216147
 31
0.0
  0
LINE
  5
158
100
AcDbEntity
  8
Layer_1
 62
7
100
AcDbLine
 10
5.600320
 20
4.216147
 30
0.0
 11
6.463710
 21
5.088044
 31
0.0
  0
LINE
  5
159
100
AcDbEntity
  8
Layer_1
 62
7
100
AcDbLine
 10
6.463710
 20
5.088044
 30
0.0
 11
7.613506
 21
5.766591
 31
0.0
  0
LINE
  5
15a
100
AcDbEntity
  8
Layer_1
 62
7
100
AcDbLine
 10
7.613506
 20
5.766591
 30
0.0
 11
7.377789
 21
5.743166
 31
0.0
  0
LINE
  5
15b
100
AcDbEntity
  8
Layer_1
 62
7
100
AcDbLine
 10
7.377789
 20
5.743166
 30
0.0
 11
7.169225
 21
5.699422
 31
0.0
  0
LINE
  5
15c
100
AcDbEntity
  8
Layer_1
 62
7
100
AcDbLine
 10
7.169225
 20
5.699422
 30
0.0
 11
6.943748
 21
5.609591
 31
0.0
  0
LINE
  5
15d
100
AcDbEntity
  8
Layer_1
 62
7
100
AcDbLine
 10
6.943748
 20
5.609591
 30
0.0
 11
6.657288
 21
5.447764
 31
0.0
  0
LINE
  5
15e
100
AcDbEntity
  8
Layer_1
 62
7
100
AcDbLine
 10
6.657288
 20
5.447764
 30
0.0
 11
6.418233
 21
5.607164
 31
0.0
  0
LINE
  5
15f
100
AcDbEntity
  8
Layer_1
 62
7
100
AcDbLine
 10
6.418233
 20
5.607164
 30
0.0
 11
6.179178
 21
5.766534
 31
0.0
  0
LINE
  5
160
100
AcDbEntity
  8
Layer_1
 62
7
100
AcDbLine
 10
6.179178
 20
5.766534
 30
0.0
 11
5.940127
 21
5.925934
 31
0.0
  0
LINE
  5
161
100
AcDbEntity
  8
Layer_1
 62
7
100
AcDbLine
 10
5.940127
 20
5.925934
 30
0.0
 11
5.701074
 21
6.085248
 31
0.0
  0
LINE
  5
162
100
AcDbEntity
  8
Layer_1
 62
7
100
AcDbLine
 10
5.701074
 20
6.085248
 30
0.0
 11
5.382334
 21
6.085248
 31
0.0
  0
LINE
  5
163
100
AcDbEntity
  8
Layer_1
 62
7
100
AcDbLine
 10
5.382334
 20
6.085248
 30
0.0
 11
5.063593
 21
6.085248
 31
0.0
  0
LINE
  5
164
100
AcDbEntity
  8
Layer_1
 62
7
100
AcDbLine
 10
5.063593
 20
6.085248
 30
0.0
 11
4.744855
 21
6.085248
 31
0.0
  0
LINE
  5
165
100
AcDbEntity
  8
Layer_1
 62
7
100
AcDbLine
 10
4.744855
 20
6.085248
 30
0.0
 11
4.426118
 21
6.085248
 31
0.0
  0
LINE
  5
166
100
AcDbEntity
  8
Layer_1
 62
7
100
AcDbLine
 10
4.426118
 20
6.085248
 30
0.0
 11
4.505801
 21
5.925934
 31
0.0
  0
LINE
  5
167
100
AcDbEntity
  8
Layer_1
 62
7
100
AcDbLine
 10
4.505801
 20
5.925934
 30
0.0
 11
4.585484
 21
5.766534
 31
0.0
  0
LINE
  5
168
100
AcDbEntity
  8
Layer_1
 62
7
100
AcDbLine
 10
4.585484
 20
5.766534
 30
0.0
 11
4.665170
 21
5.607164
 31
0.0
  0
LINE
  5
169
100
AcDbEntity
  8
Layer_1
 62
7
100
AcDbLine
 10
4.665170
 20
5.607164
 30
0.0
 11
4.744855
 21
5.447764
 31
0.0
  0
LINE
  5
16a
100
AcDbEntity
  8
Layer_1
 62
7
100
AcDbLine
 10
4.744855
 20
5.447764
 30
0.0
 11
4.904224
 21
5.527464
 31
0.0
  0
LINE
  5
16b
100
AcDbEntity
  8
Layer_1
 62
7
100
AcDbLine
 10
4.904224
 20
5.527464
 30
0.0
 11
5.063593
 21
5.607135
 31
0.0
  0
LINE
  5
16c
100
AcDbEntity
  8
Layer_1
 62
7
100
AcDbLine
 10
5.063593
 20
5.607135
 30
0.0
 11
5.222962
 21
5.686807
 31
0.0
  0
LINE
  5
16d
100
AcDbEntity
  8
Layer_1
 62
7
100
AcDbLine
 10
5.222962
 20
5.686807
 30
0.0
 11
5.382331
 21
5.766534
 31
0.0
  0
LINE
  5
16e
100
AcDbEntity
  8
Layer_1
 62
7
100
AcDbLine
 10
5.382331
 20
5.766534
 30
0.0
 11
5.541703
 21
5.607164
 31
0.0
  0
LINE
  5
16f
100
AcDbEntity
  8
Layer_1
 62
7
100
AcDbLine
 10
5.541703
 20
5.607164
 30
0.0
 11
5.701074
 21
5.447764
 31
0.0
  0
LINE
  5
170
100
AcDbEntity
  8
Layer_1
 62
7
100
AcDbLine
 10
5.701074
 20
5.447764
 30
0.0
 11
5.860441
 21
5.288450
 31
0.0
  0
LINE
  5
171
100
AcDbEntity
  8
Layer_1
 62
7
100
AcDbLine
 10
5.860441
 20
5.288450
 30
0.0
 11
6.019807
 21
5.129051
 31
0.0
  0
LINE
  5
172
100
AcDbEntity
  8
Layer_1
 62
7
100
AcDbLine
 10
6.019807
 20
5.129051
 30
0.0
 11
5.327904
 21
4.444577
 31
0.0
  0
LINE
  5
173
100
AcDbEntity
  8
Layer_1
 62
7
100
AcDbLine
 10
5.327904
 20
4.444577
 30
0.0
 11
4.973052
 21
3.690282
 31
0.0
  0
LINE
  5
174
100
AcDbEntity
  8
Layer_1
 62
7
100
AcDbLine
 10
4.973052
 20
3.690282
 30
0.0
 11
4.982202
 21
2.858488
 31
0.0
  0
LINE
  5
175
100
AcDbEntity
  8
Layer_1
 62
7
100
AcDbLine
 10
4.982202
 20
2.858488
 30
0.0
 11
5.382329
 21
1.941633
 31
0.0
  0
LINE
  5
176
100
AcDbEntity
  8
Layer_1
 62
7
100
AcDbLine
 10
5.382329
 20
1.941633
 30
0.0
 11
5.382329
 21
1.543192
 31
0.0
  0
LINE
  5
177
100
AcDbEntity
  8
Layer_1
 62
7
100
AcDbLine
 10
5.382329
 20
1.543192
 30
0.0
 11
5.382329
 21
1.144750
 31
0.0
  0
LINE
  5
178
100
AcDbEntity
  8
Layer_1
 62
7
100
AcDbLine
 10
5.382329
 20
1.144750
 30
0.0
 11
5.382329
 21
0.746337
 31
0.0
  0
LINE
  5
179
100
AcDbEntity
  8
Layer_1
 62
7
100
AcDbLine
 10
5.382329
 20
0.746337
 30
0.0
 11
5.382329
 21
0.347924
 31
0.0
  0
LINE
  5
17a
100
AcDbEntity
  8
Layer_1
 62
7
100
AcDbLine
 10
5.382329
 20
0.347924
 30
0.0
 11
5.222960
 21
0.347924
 31
0.0
  0
LINE
  5
17b
100
AcDbEntity
  8
Layer_1
 62
7
100
AcDbLine
 10
5.222960
 20
0.347924
 30
0.0
 11
5.063591
 21
0.347924
 31
0.0
  0
LINE
  5
17c
100
AcDbEntity
  8
Layer_1
 62
7
100
AcDbLine
 10
5.063591
 20
0.347924
 30
0.0
 11
4.904222
 21
0.347924
 31
0.0
  0
LINE
  5
17d
100
AcDbEntity
  8
Layer_1
 62
7
100
AcDbLine
 10
4.904222
 20
0.347924
 30
0.0
 11
4.744853
 21
0.347924
 31
0.0
  0
LINE
  5
17e
100
AcDbEntity
  8
Layer_1
 62
7
100
AcDbLine
 10
4.744853
 20
0.347924
 30
0.0
 11
4.744853
 21
0.746337
 31
0.0
  0
LINE
  5
17f
100
AcDbEntity
  8
Layer_1
 62
7
100
AcDbLine
 10
4.744853
 20
0.746337
 30
0.0
 11
4.744853
 21
1.144750
 31
0.0
  0
LINE
  5
180
100
AcDbEntity
  8
Layer_1
 62
7
100
AcDbLine
 10
4.744853
 20
1.144750
 30
0.0
 11
4.744853
 21
1.543192
 31
0.0
  0
LINE
  5
181
100
AcDbEntity
  8
Layer_1
 62
7
100
AcDbLine
 10
4.744853
 20
1.543192
 30
0.0
 11
4.744853
 21
1.941633
 31
0.0
  0
LINE
  5
182
100
AcDbEntity
  8
Layer_1
 62
7
100
AcDbLine
 10
4.744853
 20
1.941633
 30
0.0
 11
4.435388
 21
1.867070
 31
0.0
  0
LINE
  5
183
100
AcDbEntity
  8
Layer_1
 62
7
100
AcDbLine
 10
4.435388
 20
1.867070
 30
0.0
 11
4.085539
 21
1.771764
 31
0.0
  0
LINE
  5
184
100
AcDbEntity
  8
Layer_1
 62
7
100
AcDbLine
 10
4.085539
 20
1.771764
 30
0.0
 11
3.746604
 21
1.681650
 31
0.0
  0
LINE
  5
185
100
AcDbEntity
  8
Layer_1
 62
7
100
AcDbLine
 10
3.746604
 20
1.681650
 30
0.0
 11
3.469897
 21
1.622920
 31
0.0
  0
LINE
  5
186
100
AcDbEntity
  8
Layer_1
 62
7
100
AcDbLine
 10
3.469897
 20
1.622920
 30
0.0
 11
3.469897
 21
1.224478
 31
0.0
  0
LINE
  5
187
100
AcDbEntity
  8
Layer_1
 62
7
100
AcDbLine
 10
3.469897
 20
1.224478
 30
0.0
 11
3.469897
 21
0.826037
 31
0.0
  0
LINE
  5
188
100
AcDbEntity
  8
Layer_1
 62
7
100
AcDbLine
 10
3.469897
 20
0.826037
 30
0.0
 11
3.469897
 21
0.427680
 31
0.0
  0
LINE
  5
189
100
AcDbEntity
  8
Layer_1
 62
7
100
AcDbLine
 10
3.469897
 20
0.427680
 30
0.0
 11
3.469897
 21
0.029239
 31
0.0
  0
LINE
  5
18a
100
AcDbEntity
  8
Layer_1
 62
7
100
AcDbLine
 10
3.469897
 20
0.029239
 30
0.0
 11
3.310528
 21
0.029239
 31
0.0
  0
LINE
  5
18b
100
AcDbEntity
  8
Layer_1
 62
7
100
AcDbLine
 10
3.310528
 20
0.029239
 30
0.0
 11
3.151159
 21
0.029239
 31
0.0
  0
LINE
  5
18c
100
AcDbEntity
  8
Layer_1
 62
7
100
AcDbLine
 10
3.151159
 20
0.029239
 30
0.0
 11
2.991788
 21
0.029239
 31
0.0
  0
LINE
  5
18d
100
AcDbEntity
  8
Layer_1
 62
7
100
AcDbLine
 10
2.991788
 20
0.029239
 30
0.0
 11
2.832416
 21
0.029239
 31
0.0
  0
LINE
  5
18e
100
AcDbEntity
  8
Layer_1
 62
7
100
AcDbLine
 10
2.832416
 20
0.029239
 30
0.0
 11
2.832416
 21
0.427680
 31
0.0
  0
LINE
  5
18f
100
AcDbEntity
  8
Layer_1
 62
7
100
AcDbLine
 10
2.832416
 20
0.427680
 30
0.0
 11
2.832416
 21
0.826037
 31
0.0
  0
LINE
  5
190
100
AcDbEntity
  8
Layer_1
 62
7
100
AcDbLine
 10
2.832416
 20
0.826037
 30
0.0
 11
2.832416
 21
1.224478
 31
0.0
  0
LINE
  5
191
100
AcDbEntity
  8
Layer_1
 62
7
100
AcDbLine
 10
2.832416
 20
1.224478
 30
0.0
 11
2.832416
 21
1.622920
 31
0.0
  0
LINE
  5
192
100
AcDbEntity
  8
Layer_1
 62
7
100
AcDbLine
 10
2.832416
 20
1.622920
 30
0.0
 11
2.497507
 21
1.594218
 31
0.0
  0
LINE
  5
193
100
AcDbEntity
  8
Layer_1
 62
7
100
AcDbLine
 10
2.497507
 20
1.594218
 30
0.0
 11
2.181643
 21
1.568253
 31
0.0
  0
LINE
  5
194
100
AcDbEntity
  8
Layer_1
 62
7
100
AcDbLine
 10
2.181643
 20
1.568253
 30
0.0
 11
1.871609
 21
1.563738
 31
0.0
  0
LINE
  5
195
100
AcDbEntity
  8
Layer_1
 62
7
100
AcDbLine
 10
1.871609
 20
1.563738
 30
0.0
 11
1.554187
 21
1.606579
 31
0.0
  0
LINE
  5
196
100
AcDbEntity
  8
Layer_1
 62
7
100
AcDbLine
 10
1.554187
 20
1.606579
 30
0.0
 11
1.395636
 21
1.291619
 31
0.0
  0
LINE
  5
197
100
AcDbEntity
  8
Layer_1
 62
7
100
AcDbLine
 10
1.395636
 20
1.291619
 30
0.0
 11
1.237085
 21
0.976659
 31
0.0
  0
LINE
  5
198
100
AcDbEntity
  8
Layer_1
 62
7
100
AcDbLine
 10
1.237085
 20
0.976659
 30
0.0
 11
1.078535
 21
0.661699
 31
0.0
  0
LINE
  5
199
100
AcDbEntity
  8
Layer_1
 62
7
100
AcDbLine
 10
1.078535
 20
0.661699
 30
0.0
 11
0.919984
 21
0.346711
 31
0.0
  0
LINE
  5
19a
100
AcDbEntity
  8
Layer_1
 62
7
100
AcDbLine
 10
0.919984
 20
0.346711
 30
0.0
 11
0.760615
 21
0.426410
 31
0.0
  0
LINE
  5
19b
100
AcDbEntity
  8
Layer_1
 62
7
100
AcDbLine
 10
0.760615
 20
0.426410
 30
0.0
 11
0.601247
 21
0.506138
 31
0.0
  0
LINE
  5
19c
100
AcDbEntity
  8
Layer_1
 62
7
100
AcDbLine
 10
0.601247
 20
0.506138
 30
0.0
 11
0.441878
 21
0.585866
 31
0.0
  0
LINE
  5
19d
100
AcDbEntity
  8
Layer_1
 62
7
100
AcDbLine
 10
0.441878
 20
0.585866
 30
0.0
 11
0.282509
 21
0.665537
 31
0.0
  0
LINE
  5
19e
100
AcDbEntity
  8
Layer_1
 62
7
100
AcDbLine
 10
0.282509
 20
0.665537
 30
0.0
 11
0.441878
 21
0.984222
 31
0.0
  0
LINE
  5
19f
100
AcDbEntity
  8
Layer_1
 62
7
100
AcDbLine
 10
0.441878
 20
0.984222
 30
0.0
 11
0.601247
 21
1.302936
 31
0.0
  0
LINE
  5
1a0
100
AcDbEntity
  8
Layer_1
 62
7
100
AcDbLine
 10
0.601247
 20
1.302936
 30
0.0
 11
0.760615
 21
1.621706
 31
0.0
  0
LINE
  5
1a1
100
AcDbEntity
  8
Layer_1
 62
7
100
AcDbLine
 10
0.760615
 20
1.621706
 30
0.0
 11
0.919984
 21
1.940420
 31
0.0
  0
LINE
  5
1a2
100
AcDbEntity
  8
Layer_1
 62
7
100
AcDbLine
 10
0.919984
 20
1.940420
 30
0.0
 11
0.734082
 21
2.013176
 31
0.0
  0
LINE
  5
1a3
100
AcDbEntity
  8
Layer_1
 62
7
100
AcDbLine
 10
0.734082
 20
2.013176
 30
0.0
 11
0.562951
 21
2.074955
 31
0.0
  0
LINE
  5
1a4
100
AcDbEntity
  8
Layer_1
 62
7
100
AcDbLine
 10
0.562951
 20
2.074955
 30
0.0
 11
0.410962
 21
2.149038
 31
0.0
  0
LINE
  5
1a5
100
AcDbEntity
  8
Layer_1
 62
7
100
AcDbLine
 10
0.410962
 20
2.149038
 30
0.0
 11
0.282509
 21
2.259161
 31
0.0
  0
LINE
  5
1a6
100
AcDbEntity
  8
Layer_1
 62
7
100
AcDbLine
 10
0.282509
 20
2.259161
 30
0.0
 11
0.054584
 21
2.992713
 31
0.0
  0
LINE
  5
1a7
100
AcDbEntity
  8
Layer_1
 62
7
100
AcDbLine
 10
0.054584
 20
2.992713
 30
0.0
 11
0.048264
 21
3.788298
 31
0.0
  0
LINE
  5
1a8
100
AcDbEntity
  8
Layer_1
 62
7
100
AcDbLine
 10
0.048264
 20
3.788298
 30
0.0
 11
0.048264
 21
3.788128
 31
0.0
  0
LINE
  5
1a9
100
AcDbEntity
  8
Layer_1
 62
7
100
AcDbLine
 10
0.048264
 20
3.788128
 30
0.0
 11
0.048255
 21
3.791233
 31
0.0
  0
LINE
  5
1aa
100
AcDbEntity
  8
Layer_1
 62
7
100
AcDbLine
 10
13.762358
 20
4.441247
 30
0.0
 11
13.758692
 21
4.441247
 31
0.0
  0
LINE
  5
1ab
100
AcDbEntity
  8
Layer_1
 62
7
100
AcDbLine
 10
13.758692
 20
4.441247
 30
0.0
 11
13.755026
 21
4.441247
 31
0.0
  0
LINE
  5
1ac
100
AcDbEntity
  8
Layer_1
 62
7
100
AcDbLine
 10
13.755026
 20
4.441247
 30
0.0
 11
13.660756
 21
4.173983
 31
0.0
  0
LINE
  5
1ad
100
AcDbEntity
  8
Layer_1
 62
7
100
AcDbLine
 10
13.660756
 20
4.173983
 30
0.0
 11
13.553673
 21
3.826200
 31
0.0
  0
LINE
  5
1ae
100
AcDbEntity
  8
Layer_1
 62
7
100
AcDbLine
 10
13.553673
 20
3.826200
 30
0.0
 11
13.543609
 21
3.697140
 31
0.0
  0
LINE
  5
1af
100
AcDbEntity
  8
Layer_1
 62
7
100
AcDbLine
 10
13.543609
 20
3.697140
 30
0.0
 11
13.542706
 21
3.507656
 31
0.0
  0
LINE
  5
1b0
100
AcDbEntity
  8
Layer_1
 62
7
100
AcDbLine
 10
13.542706
 20
3.507656
 30
0.0
 11
13.550941
 21
3.245895
 31
0.0
  0
LINE
  5
1b1
100
AcDbEntity
  8
Layer_1
 62
7
100
AcDbLine
 10
13.550941
 20
3.245895
 30
0.0
 11
13.553678
 21
3.178246
 31
0.0
  0
LINE
  5
1b2
100
AcDbEntity
  8
Layer_1
 62
7
100
AcDbLine
 10
13.553678
 20
3.178246
 30
0.0
 11
13.533542
 21
3.019863
 31
0.0
  0
LINE
  5
1b3
100
AcDbEntity
  8
Layer_1
 62
7
100
AcDbLine
 10
13.533542
 20
3.019863
 30
0.0
 11
13.473136
 21
2.903644
 31
0.0
  0
LINE
  5
1b4
100
AcDbEntity
  8
Layer_1
 62
7
100
AcDbLine
 10
13.473136
 20
2.903644
 30
0.0
 11
13.420052
 21
2.854255
 31
0.0
  0
LINE
  5
1b5
100
AcDbEntity
  8
Layer_1
 62
7
100
AcDbLine
 10
13.420052
 20
2.854255
 30
0.0
 11
13.326697
 21
2.793803
 31
0.0
  0
LINE
  5
1b6
100
AcDbEntity
  8
Layer_1
 62
7
100
AcDbLine
 10
13.326697
 20
2.793803
 30
0.0
 11
13.266292
 21
2.745317
 31
0.0
  0
LINE
  5
1b7
100
AcDbEntity
  8
Layer_1
 62
7
100
AcDbLine
 10
13.266292
 20
2.745317
 30
0.0
 11
13.246156
 21
2.687631
 31
0.0
  0
LINE
  5
1b8
100
AcDbEntity
  8
Layer_1
 62
7
100
AcDbLine
 10
13.246156
 20
2.687631
 30
0.0
 11
13.285513
 21
2.597038
 31
0.0
  0
LINE
  5
1b9
100
AcDbEntity
  8
Layer_1
 62
7
100
AcDbLine
 10
13.285513
 20
2.597038
 30
0.0
 11
13.403578
 21
2.567066
 31
0.0
  0
LINE
  5
1ba
100
AcDbEntity
  8
Layer_1
 62
7
100
AcDbLine
 10
13.403578
 20
2.567066
 30
0.0
 11
13.658015
 21
2.567066
 31
0.0
  0
LINE
  5
1bb
100
AcDbEntity
  8
Layer_1
 62
7
100
AcDbLine
 10
13.658015
 20
2.567066
 30
0.0
 11
13.912453
 21
2.567066
 31
0.0
  0
LINE
  5
1bc
100
AcDbEntity
  8
Layer_1
 62
7
100
AcDbLine
 10
13.912453
 20
2.567066
 30
0.0
 11
14.030519
 21
2.597038
 31
0.0
  0
LINE
  5
1bd
100
AcDbEntity
  8
Layer_1
 62
7
100
AcDbLine
 10
14.030519
 20
2.597038
 30
0.0
 11
14.069876
 21
2.687659
 31
0.0
  0
LINE
  5
1be
100
AcDbEntity
  8
Layer_1
 62
7
100
AcDbLine
 10
14.069876
 20
2.687659
 30
0.0
 11
14.037842
 21
2.752655
 31
0.0
  0
LINE
  5
1bf
100
AcDbEntity
  8
Layer_1
 62
7
100
AcDbLine
 10
14.037842
 20
2.752655
 30
0.0
 11
13.941742
 21
2.823154
 31
0.0
  0
LINE
  5
1c0
100
AcDbEntity
  8
Layer_1
 62
7
100
AcDbLine
 10
13.941742
 20
2.823154
 30
0.0
 11
13.836489
 21
2.907369
 31
0.0
  0
LINE
  5
1c1
100
AcDbEntity
  8
Layer_1
 62
7
100
AcDbLine
 10
13.836489
 20
2.907369
 30
0.0
 11
13.784320
 21
3.013513
 31
0.0
  0
LINE
  5
1c2
100
AcDbEntity
  8
Layer_1
 62
7
100
AcDbLine
 10
13.784320
 20
3.013513
 30
0.0
 11
13.767846
 21
3.125188
 31
0.0
  0
LINE
  5
1c3
100
AcDbEntity
  8
Layer_1
 62
7
100
AcDbLine
 10
13.767846
 20
3.125188
 30
0.0
 11
13.762354
 21
3.262461
 31
0.0
  0
LINE
  5
1c4
100
AcDbEntity
  8
Layer_1
 62
7
100
AcDbLine
 10
13.762354
 20
3.262461
 30
0.0
 11
13.762354
 21
3.851826
 31
0.0
  0
LINE
  5
1c5
100
AcDbEntity
  8
Layer_1
 62
7
100
AcDbLine
 10
13.762354
 20
3.851826
 30
0.0
 11
13.762354
 21
4.441304
 31
0.0
  0
LINE
  5
1c6
100
AcDbEntity
  8
Layer_1
 62
7
100
AcDbLine
 10
12.459050
 20
4.089824
 30
0.0
 11
12.571626
 21
3.709078
 31
0.0
  0
LINE
  5
1c7
100
AcDbEntity
  8
Layer_1
 62
7
100
AcDbLine
 10
12.571626
 20
3.709078
 30
0.0
 11
12.909348
 21
2.566868
 31
0.0
  0
LINE
  5
1c8
100
AcDbEntity
  8
Layer_1
 62
7
100
AcDbLine
 10
12.909348
 20
2.566868
 30
0.0
 11
12.966094
 21
2.566868
 31
0.0
  0
LINE
  5
1c9
100
AcDbEntity
  8
Layer_1
 62
7
100
AcDbLine
 10
12.966094
 20
2.566868
 30
0.0
 11
13.022839
 21
2.566868
 31
0.0
  0
LINE
  5
1ca
100
AcDbEntity
  8
Layer_1
 62
7
100
AcDbLine
 10
13.022839
 20
2.566868
 30
0.0
 11
13.387105
 21
3.657826
 31
0.0
  0
LINE
  5
1cb
100
AcDbEntity
  8
Layer_1
 62
7
100
AcDbLine
 10
13.387105
 20
3.657826
 30
0.0
 11
13.751371
 21
4.748785
 31
0.0
  0
LINE
  5
1cc
100
AcDbEntity
  8
Layer_1
 62
7
100
AcDbLine
 10
13.751371
 20
4.748785
 30
0.0
 11
13.810862
 21
4.879651
 31
0.0
  0
LINE
  5
1cd
100
AcDbEntity
  8
Layer_1
 62
7
100
AcDbLine
 10
13.810862
 20
4.879651
 30
0.0
 11
13.886827
 21
4.964798
 31
0.0
  0
LINE
  5
1ce
100
AcDbEntity
  8
Layer_1
 62
7
100
AcDbLine
 10
13.886827
 20
4.964798
 30
0.0
 11
13.929843
 21
4.987093
 31
0.0
  0
LINE
  5
1cf
100
AcDbEntity
  8
Layer_1
 62
7
100
AcDbLine
 10
13.929843
 20
4.987093
 30
0.0
 11
14.014961
 21
5.023782
 31
0.0
  0
LINE
  5
1d0
100
AcDbEntity
  8
Layer_1
 62
7
100
AcDbLine
 10
14.014961
 20
5.023782
 30
0.0
 11
14.056147
 21
5.054403
 31
0.0
  0
LINE
  5
1d1
100
AcDbEntity
  8
Layer_1
 62
7
100
AcDbLine
 10
14.056147
 20
5.054403
 30
0.0
 11
14.069877
 21
5.108364
 31
0.0
  0
LINE
  5
1d2
100
AcDbEntity
  8
Layer_1
 62
7
100
AcDbLine
 10
14.069877
 20
5.108364
 30
0.0
 11
14.034183
 21
5.179710
 31
0.0
  0
LINE
  5
1d3
100
AcDbEntity
  8
Layer_1
 62
7
100
AcDbLine
 10
14.034183
 20
5.179710
 30
0.0
 11
13.927100
 21
5.203416
 31
0.0
  0
LINE
  5
1d4
100
AcDbEntity
  8
Layer_1
 62
7
100
AcDbLine
 10
13.927100
 20
5.203416
 30
0.0
 11
13.465818
 21
5.203416
 31
0.0
  0
LINE
  5
1d5
100
AcDbEntity
  8
Layer_1
 62
7
100
AcDbLine
 10
13.465818
 20
5.203416
 30
0.0
 11
13.004536
 21
5.203416
 31
0.0
  0
LINE
  5
1d6
100
AcDbEntity
  8
Layer_1
 62
7
100
AcDbLine
 10
13.004536
 20
5.203416
 30
0.0
 11
12.828809
 21
4.683535
 31
0.0
  0
LINE
  5
1d7
100
AcDbEntity
  8
Layer_1
 62
7
100
AcDbLine
 10
12.828809
 20
4.683535
 30
0.0
 11
12.653083
 21
4.163682
 31
0.0
  0
LINE
  5
1d8
100
AcDbEntity
  8
Layer_1
 62
7
100
AcDbLine
 10
12.653083
 20
4.163682
 30
0.0
 11
12.559728
 21
4.487673
 31
0.0
  0
LINE
  5
1d9
100
AcDbEntity
  8
Layer_1
 62
7
100
AcDbLine
 10
12.559728
 20
4.487673
 30
0.0
 11
12.466373
 21
4.811692
 31
0.0
  0
LINE
  5
1da
100
AcDbEntity
  8
Layer_1
 62
7
100
AcDbLine
 10
12.466373
 20
4.811692
 30
0.0
 11
12.462707
 21
4.811692
 31
0.0
  0
LINE
  5
1db
100
AcDbEntity
  8
Layer_1
 62
7
100
AcDbLine
 10
12.462707
 20
4.811692
 30
0.0
 11
12.459041
 21
4.811692
 31
0.0
  0
LINE
  5
1dc
100
AcDbEntity
  8
Layer_1
 62
7
100
AcDbLine
 10
12.459041
 20
4.811692
 30
0.0
 11
12.459041
 21
4.451068
 31
0.0
  0
LINE
  5
1dd
100
AcDbEntity
  8
Layer_1
 62
7
100
AcDbLine
 10
12.459041
 20
4.451068
 30
0.0
 11
12.459041
 21
4.090473
 31
0.0
  0
LINE
  5
1de
100
AcDbEntity
  8
Layer_1
 62
7
100
AcDbLine
 10
12.341890
 20
5.203416
 30
0.0
 11
11.878777
 21
5.203416
 31
0.0
  0
LINE
  5
1df
100
AcDbEntity
  8
Layer_1
 62
7
100
AcDbLine
 10
11.878777
 20
5.203416
 30
0.0
 11
11.415665
 21
5.203416
 31
0.0
  0
LINE
  5
1e0
100
AcDbEntity
  8
Layer_1
 62
7
100
AcDbLine
 10
11.415665
 20
5.203416
 30
0.0
 11
11.303092
 21
5.176888
 31
0.0
  0
LINE
  5
1e1
100
AcDbEntity
  8
Layer_1
 62
7
100
AcDbLine
 10
11.303092
 20
5.176888
 30
0.0
 11
11.265565
 21
5.097244
 31
0.0
  0
LINE
  5
1e2
100
AcDbEntity
  8
Layer_1
 62
7
100
AcDbLine
 10
11.265565
 20
5.097244
 30
0.0
 11
11.290279
 21
5.026774
 31
0.0
  0
LINE
  5
1e3
100
AcDbEntity
  8
Layer_1
 62
7
100
AcDbLine
 10
11.290279
 20
5.026774
 30
0.0
 11
11.364412
 21
4.969144
 31
0.0
  0
LINE
  5
1e4
100
AcDbEntity
  8
Layer_1
 62
7
100
AcDbLine
 10
11.364412
 20
4.969144
 30
0.0
 11
11.438548
 21
4.907760
 31
0.0
  0
LINE
  5
1e5
100
AcDbEntity
  8
Layer_1
 62
7
100
AcDbLine
 10
11.438548
 20
4.907760
 30
0.0
 11
11.463257
 21
4.819058
 31
0.0
  0
LINE
  5
1e6
100
AcDbEntity
  8
Layer_1
 62
7
100
AcDbLine
 10
11.463257
 20
4.819058
 30
0.0
 11
11.463257
 21
3.881854
 31
0.0
  0
LINE
  5
1e7
100
AcDbEntity
  8
Layer_1
 62
7
100
AcDbLine
 10
11.463257
 20
3.881854
 30
0.0
 11
11.463257
 21
2.944594
 31
0.0
  0
LINE
  5
1e8
100
AcDbEntity
  8
Layer_1
 62
7
100
AcDbLine
 10
11.463257
 20
2.944594
 30
0.0
 11
11.438548
 21
2.855807
 31
0.0
  0
LINE
  5
1e9
100
AcDbEntity
  8
Layer_1
 62
7
100
AcDbLine
 10
11.438548
 20
2.855807
 30
0.0
 11
11.364412
 21
2.794509
 31
0.0
  0
LINE
  5
1ea
100
AcDbEntity
  8
Layer_1
 62
7
100
AcDbLine
 10
11.364412
 20
2.794509
 30
0.0
 11
11.290279
 21
2.743314
 31
0.0
  0
LINE
  5
1eb
100
AcDbEntity
  8
Layer_1
 62
7
100
AcDbLine
 10
11.290279
 20
2.743314
 30
0.0
 11
11.265565
 21
2.677358
 31
0.0
  0
LINE
  5
1ec
100
AcDbEntity
  8
Layer_1
 62
7
100
AcDbLine
 10
11.265565
 20
2.677358
 30
0.0
 11
11.303093
 21
2.595006
 31
0.0
  0
LINE
  5
1ed
100
AcDbEntity
  8
Layer_1
 62
7
100
AcDbLine
 10
11.303093
 20
2.595006
 30
0.0
 11
11.415665
 21
2.567630
 31
0.0
  0
LINE
  5
1ee
100
AcDbEntity
  8
Layer_1
 62
7
100
AcDbLine
 10
11.415665
 20
2.567630
 30
0.0
 11
11.902574
 21
2.567630
 31
0.0
  0
LINE
  5
1ef
100
AcDbEntity
  8
Layer_1
 62
7
100
AcDbLine
 10
11.902574
 20
2.567630
 30
0.0
 11
12.389483
 21
2.567630
 31
0.0
  0
LINE
  5
1f0
100
AcDbEntity
  8
Layer_1
 62
7
100
AcDbLine
 10
12.389483
 20
2.567630
 30
0.0
 11
12.504804
 21
2.595006
 31
0.0
  0
LINE
  5
1f1
100
AcDbEntity
  8
Layer_1
 62
7
100
AcDbLine
 10
12.504804
 20
2.595006
 30
0.0
 11
12.543242
 21
2.677358
 31
0.0
  0
LINE
  5
1f2
100
AcDbEntity
  8
Layer_1
 62
7
100
AcDbLine
 10
12.543242
 20
2.677358
 30
0.0
 11
12.518531
 21
2.742354
 31
0.0
  0
LINE
  5
1f3
100
AcDbEntity
  8
Layer_1
 62
7
100
AcDbLine
 10
12.518531
 20
2.742354
 30
0.0
 11
12.444394
 21
2.798149
 31
0.0
  0
LINE
  5
1f4
100
AcDbEntity
  8
Layer_1
 62
7
100
AcDbLine
 10
12.444394
 20
2.798149
 30
0.0
 11
12.367515
 21
2.869580
 31
0.0
  0
LINE
  5
1f5
100
AcDbEntity
  8
Layer_1
 62
7
100
AcDbLine
 10
12.367515
 20
2.869580
 30
0.0
 11
12.341887
 21
2.973917
 31
0.0
  0
LINE
  5
1f6
100
AcDbEntity
  8
Layer_1
 62
7
100
AcDbLine
 10
12.341887
 20
2.973917
 30
0.0
 11
12.341887
 21
4.088667
 31
0.0
  0
LINE
  5
1f7
100
AcDbEntity
  8
Layer_1
 62
7
100
AcDbLine
 10
12.341887
 20
4.088667
 30
0.0
 11
12.341887
 21
5.203445
 31
0.0
  0
LINE
  5
1f8
100
AcDbEntity
  8
Layer_1
 62
7
100
AcDbLine
 10
15.645829
 20
2.743229
 30
0.0
 11
15.645829
 21
2.631610
 31
0.0
  0
LINE
  5
1f9
100
AcDbEntity
  8
Layer_1
 62
7
100
AcDbLine
 10
15.645829
 20
2.631610
 30
0.0
 11
15.645829
 21
2.519935
 31
0.0
  0
LINE
  5
1fa
100
AcDbEntity
  8
Layer_1
 62
7
100
AcDbLine
 10
15.645829
 20
2.519935
 30
0.0
 11
16.136399
 21
2.649813
 31
0.0
  0
LINE
  5
1fb
100
AcDbEntity
  8
Layer_1
 62
7
100
AcDbLine
 10
16.136399
 20
2.649813
 30
0.0
 11
16.495174
 21
2.951932
 31
0.0
  0
LINE
  5
1fc
100
AcDbEntity
  8
Layer_1
 62
7
100
AcDbLine
 10
16.495174
 20
2.951932
 30
0.0
 11
16.698358
 21
3.364682
 31
0.0
  0
LINE
  5
1fd
100
AcDbEntity
  8
Layer_1
 62
7
100
AcDbLine
 10
16.698358
 20
3.364682
 30
0.0
 11
16.766086
 21
3.885467
 31
0.0
  0
LINE
  5
1fe
100
AcDbEntity
  8
Layer_1
 62
7
100
AcDbLine
 10
16.766086
 20
3.885467
 30
0.0
 11
16.698358
 21
4.406252
 31
0.0
  0
LINE
  5
1ff
100
AcDbEntity
  8
Layer_1
 62
7
100
AcDbLine
 10
16.698358
 20
4.406252
 30
0.0
 11
16.495174
 21
4.819058
 31
0.0
  0
LINE
  5
200
100
AcDbEntity
  8
Layer_1
 62
7
100
AcDbLine
 10
16.495174
 20
4.819058
 30
0.0
 11
16.136399
 21
5.121064
 31
0.0
  0
LINE
  5
201
100
AcDbEntity
  8
Layer_1
 62
7
100
AcDbLine
 10
16.136399
 20
5.121064
 30
0.0
 11
15.645829
 21
5.251027
 31
0.0
  0
LINE
  5
202
100
AcDbEntity
  8
Layer_1
 62
7
100
AcDbLine
 10
15.645829
 20
5.251027
 30
0.0
 11
15.645829
 21
5.139352
 31
0.0
  0
LINE
  5
203
100
AcDbEntity
  8
Layer_1
 62
7
100
AcDbLine
 10
15.645829
 20
5.139352
 30
0.0
 11
15.645829
 21
5.027677
 31
0.0
  0
LINE
  5
204
100
AcDbEntity
  8
Layer_1
 62
7
100
AcDbLine
 10
15.645829
 20
5.027677
 30
0.0
 11
15.783116
 21
4.943320
 31
0.0
  0
LINE
  5
205
100
AcDbEntity
  8
Layer_1
 62
7
100
AcDbLine
 10
15.783116
 20
4.943320
 30
0.0
 11
15.828877
 21
4.679894
 31
0.0
  0
LINE
  5
206
100
AcDbEntity
  8
Layer_1
 62
7
100
AcDbLine
 10
15.828877
 20
4.679894
 30
0.0
 11
15.828877
 21
3.885467
 31
0.0
  0
LINE
  5
207
100
AcDbEntity
  8
Layer_1
 62
7
100
AcDbLine
 10
15.828877
 20
3.885467
 30
0.0
 11
15.828877
 21
3.091040
 31
0.0
  0
LINE
  5
208
100
AcDbEntity
  8
Layer_1
 62
7
100
AcDbLine
 10
15.828877
 20
3.091040
 30
0.0
 11
15.783116
 21
2.828404
 31
0.0
  0
LINE
  5
209
100
AcDbEntity
  8
Layer_1
 62
7
100
AcDbLine
 10
15.783116
 20
2.828404
 30
0.0
 11
15.645829
 21
2.743229
 31
0.0
  0
LINE
  5
20a
100
AcDbEntity
  8
Layer_1
 62
7
100
AcDbLine
 10
15.536000
 20
2.519935
 30
0.0
 11
15.536000
 21
2.631610
 31
0.0
  0
LINE
  5
20b
100
AcDbEntity
  8
Layer_1
 62
7
100
AcDbLine
 10
15.536000
 20
2.631610
 30
0.0
 11
15.536000
 21
2.743229
 31
0.0
  0
LINE
  5
20c
100
AcDbEntity
  8
Layer_1
 62
7
100
AcDbLine
 10
15.536000
 20
2.743229
 30
0.0
 11
15.401461
 21
2.827670
 31
0.0
  0
LINE
  5
20d
100
AcDbEntity
  8
Layer_1
 62
7
100
AcDbLine
 10
15.401461
 20
2.827670
 30
0.0
 11
15.356613
 21
3.091040
 31
0.0
  0
LINE
  5
20e
100
AcDbEntity
  8
Layer_1
 62
7
100
AcDbLine
 10
15.356613
 20
3.091040
 30
0.0
 11
15.356613
 21
3.885467
 31
0.0
  0
LINE
  5
20f
100
AcDbEntity
  8
Layer_1
 62
7
100
AcDbLine
 10
15.356613
 20
3.885467
 30
0.0
 11
15.356613
 21
4.679894
 31
0.0
  0
LINE
  5
210
100
AcDbEntity
  8
Layer_1
 62
7
100
AcDbLine
 10
15.356613
 20
4.679894
 30
0.0
 11
15.401461
 21
4.942587
 31
0.0
  0
LINE
  5
211
100
AcDbEntity
  8
Layer_1
 62
7
100
AcDbLine
 10
15.401461
 20
4.942587
 30
0.0
 11
15.536000
 21
5.027677
 31
0.0
  0
LINE
  5
212
100
AcDbEntity
  8
Layer_1
 62
7
100
AcDbLine
 10
15.536000
 20
5.027677
 30
0.0
 11
15.536000
 21
5.139352
 31
0.0
  0
LINE
  5
213
100
AcDbEntity
  8
Layer_1
 62
7
100
AcDbLine
 10
15.536000
 20
5.139352
 30
0.0
 11
15.536000
 21
5.251027
 31
0.0
  0
LINE
  5
214
100
AcDbEntity
  8
Layer_1
 62
7
100
AcDbLine
 10
15.536000
 20
5.251027
 30
0.0
 11
15.045432
 21
5.121092
 31
0.0
  0
LINE
  5
215
100
AcDbEntity
  8
Layer_1
 62
7
100
AcDbLine
 10
15.045432
 20
5.121092
 30
0.0
 11
14.686656
 21
4.819058
 31
0.0
  0
LINE
  5
216
100
AcDbEntity
  8
Layer_1
 62
7
100
AcDbLine
 10
14.686656
 20
4.819058
 30
0.0
 11
14.483474
 21
4.406252
 31
0.0
  0
LINE
  5
217
100
AcDbEntity
  8
Layer_1
 62
7
100
AcDbLine
 10
14.483474
 20
4.406252
 30
0.0
 11
14.415744
 21
3.885467
 31
0.0
  0
LINE
  5
218
100
AcDbEntity
  8
Layer_1
 62
7
100
AcDbLine
 10
14.415744
 20
3.885467
 30
0.0
 11
14.483474
 21
3.364682
 31
0.0
  0
LINE
  5
219
100
AcDbEntity
  8
Layer_1
 62
7
100
AcDbLine
 10
14.483474
 20
3.364682
 30
0.0
 11
14.686656
 21
2.951932
 31
0.0
  0
LINE
  5
21a
100
AcDbEntity
  8
Layer_1
 62
7
100
AcDbLine
 10
14.686656
 20
2.951932
 30
0.0
 11
15.045432
 21
2.649898
 31
0.0
  0
LINE
  5
21b
100
AcDbEntity
  8
Layer_1
 62
7
100
AcDbLine
 10
15.045432
 20
2.649898
 30
0.0
 11
15.536000
 21
2.519935
 31
0.0
  0
LINE
  5
21c
100
AcDbEntity
  8
Layer_1
 62
7
100
AcDbLine
 10
18.008446
 20
4.991101
 30
0.0
 11
18.008446
 21
5.121064
 31
0.0
  0
LINE
  5
21d
100
AcDbEntity
  8
Layer_1
 62
7
100
AcDbLine
 10
18.008446
 20
5.121064
 30
0.0
 11
18.008446
 21
5.251027
 31
0.0
  0
LINE
  5
21e
100
AcDbEntity
  8
Layer_1
 62
7
100
AcDbLine
 10
18.008446
 20
5.251027
 30
0.0
 11
17.893127
 21
5.228732
 31
0.0
  0
LINE
  5
21f
100
AcDbEntity
  8
Layer_1
 62
7
100
AcDbLine
 10
17.893127
 20
5.228732
 30
0.0
 11
17.737535
 21
5.177452
 31
0.0
  0
LINE
  5
220
100
AcDbEntity
  8
Layer_1
 62
7
100
AcDbLine
 10
17.737535
 20
5.177452
 30
0.0
 11
17.593843
 21
5.128091
 31
0.0
  0
LINE
  5
221
100
AcDbEntity
  8
Layer_1
 62
7
100
AcDbLine
 10
17.593843
 20
5.128091
 30
0.0
 11
17.521538
 21
5.111722
 31
0.0
  0
LINE
  5
222
100
AcDbEntity
  8
Layer_1
 62
7
100
AcDbLine
 10
17.521538
 20
5.111722
 30
0.0
 11
17.484929
 21
5.126398
 31
0.0
  0
LINE
  5
223
100
AcDbEntity
  8
Layer_1
 62
7
100
AcDbLine
 10
17.484929
 20
5.126398
 30
0.0
 11
17.440995
 21
5.170594
 31
0.0
  0
LINE
  5
224
100
AcDbEntity
  8
Layer_1
 62
7
100
AcDbLine
 10
17.440995
 20
5.170594
 30
0.0
 11
17.387912
 21
5.217274
 31
0.0
  0
LINE
  5
225
100
AcDbEntity
  8
Layer_1
 62
7
100
AcDbLine
 10
17.387912
 20
5.217274
 30
0.0
 11
17.323843
 21
5.232514
 31
0.0
  0
LINE
  5
226
100
AcDbEntity
  8
Layer_1
 62
7
100
AcDbLine
 10
17.323843
 20
5.232514
 30
0.0
 11
17.244219
 21
5.199832
 31
0.0
  0
LINE
  5
227
100
AcDbEntity
  8
Layer_1
 62
7
100
AcDbLine
 10
17.244219
 20
5.199832
 30
0.0
 11
17.217678
 21
5.100885
 31
0.0
  0
LINE
  5
228
100
AcDbEntity
  8
Layer_1
 62
7
100
AcDbLine
 10
17.217678
 20
5.100885
 30
0.0
 11
17.217678
 21
4.743959
 31
0.0
  0
LINE
  5
229
100
AcDbEntity
  8
Layer_1
 62
7
100
AcDbLine
 10
17.217678
 20
4.743959
 30
0.0
 11
17.217678
 21
4.387004
 31
0.0
  0
LINE
  5
22a
100
AcDbEntity
  8
Layer_1
 62
7
100
AcDbLine
 10
17.217678
 20
4.387004
 30
0.0
 11
17.246971
 21
4.230484
 31
0.0
  0
LINE
  5
22b
100
AcDbEntity
  8
Layer_1
 62
7
100
AcDbLine
 10
17.246971
 20
4.230484
 30
0.0
 11
17.334833
 21
4.178301
 31
0.0
  0
LINE
  5
22c
100
AcDbEntity
  8
Layer_1
 62
7
100
AcDbLine
 10
17.334833
 20
4.178301
 30
0.0
 11
17.418121
 21
4.229580
 31
0.0
  0
LINE
  5
22d
100
AcDbEntity
  8
Layer_1
 62
7
100
AcDbLine
 10
17.418121
 20
4.229580
 30
0.0
 11
17.499577
 21
4.383335
 31
0.0
  0
LINE
  5
22e
100
AcDbEntity
  8
Layer_1
 62
7
100
AcDbLine
 10
17.499577
 20
4.383335
 30
0.0
 11
17.598424
 21
4.635021
 31
0.0
  0
LINE
  5
22f
100
AcDbEntity
  8
Layer_1
 62
7
100
AcDbLine
 10
17.598424
 20
4.635021
 30
0.0
 11
17.660659
 21
4.767750
 31
0.0
  0
LINE
  5
230
100
AcDbEntity
  8
Layer_1
 62
7
100
AcDbLine
 10
17.660659
 20
4.767750
 30
0.0
 11
17.813505
 21
4.929746
 31
0.0
  0
LINE
  5
231
100
AcDbEntity
  8
Layer_1
 62
7
100
AcDbLine
 10
17.813505
 20
4.929746
 30
0.0
 11
18.008451
 21
4.991072
 31
0.0
  0
LINE
  5
232
100
AcDbEntity
  8
Layer_1
 62
7
100
AcDbLine
 10
18.008451
 20
2.519906
 30
0.0
 11
18.008451
 21
2.649870
 31
0.0
  0
LINE
  5
233
100
AcDbEntity
  8
Layer_1
 62
7
100
AcDbLine
 10
18.008451
 20
2.649870
 30
0.0
 11
18.008451
 21
2.779833
 31
0.0
  0
LINE
  5
234
100
AcDbEntity
  8
Layer_1
 62
7
100
AcDbLine
 10
18.008451
 20
2.779833
 30
0.0
 11
17.778727
 21
2.841216
 31
0.0
  0
LINE
  5
235
100
AcDbEntity
  8
Layer_1
 62
7
100
AcDbLine
 10
17.778727
 20
2.841216
 30
0.0
 11
17.609406
 21
2.959242
 31
0.0
  0
LINE
  5
236
100
AcDbEntity
  8
Layer_1
 62
7
100
AcDbLine
 10
17.609406
 20
2.959242
 30
0.0
 11
17.535272
 21
3.061717
 31
0.0
  0
LINE
  5
237
100
AcDbEntity
  8
Layer_1
 62
7
100
AcDbLine
 10
17.535272
 20
3.061717
 30
0.0
 11
17.459306
 21
3.215500
 31
0.0
  0
LINE
  5
238
100
AcDbEntity
  8
Layer_1
 62
7
100
AcDbLine
 10
17.459306
 20
3.215500
 30
0.0
 11
17.399816
 21
3.314334
 31
0.0
  0
LINE
  5
239
100
AcDbEntity
  8
Layer_1
 62
7
100
AcDbLine
 10
17.399816
 20
3.314334
 30
0.0
 11
17.338494
 21
3.347467
 31
0.0
  0
LINE
  5
23a
100
AcDbEntity
  8
Layer_1
 62
7
100
AcDbLine
 10
17.338494
 20
3.347467
 30
0.0
 11
17.247887
 21
3.312584
 31
0.0
  0
LINE
  5
23b
100
AcDbEntity
  8
Layer_1
 62
7
100
AcDbLine
 10
17.247887
 20
3.312584
 30
0.0
 11
17.217681
 21
3.208246
 31
0.0
  0
LINE
  5
23c
100
AcDbEntity
  8
Layer_1
 62
7
100
AcDbLine
 10
17.217681
 20
3.208246
 30
0.0
 11
17.283580
 21
2.950126
 31
0.0
  0
LINE
  5
23d
100
AcDbEntity
  8
Layer_1
 62
7
100
AcDbLine
 10
17.283580
 20
2.950126
 30
0.0
 11
17.481271
 21
2.724997
 31
0.0
  0
LINE
  5
23e
100
AcDbEntity
  8
Layer_1
 62
7
100
AcDbLine
 10
17.481271
 20
2.724997
 30
0.0
 11
17.733879
 21
2.580330
 31
0.0
  0
LINE
  5
23f
100
AcDbEntity
  8
Layer_1
 62
7
100
AcDbLine
 10
17.733879
 20
2.580330
 30
0.0
 11
18.008450
 21
2.519935
 31
0.0
  0
LINE
  5
240
100
AcDbEntity
  8
Layer_1
 62
7
100
AcDbLine
 10
18.118279
 20
2.779918
 30
0.0
 11
18.118279
 21
2.649898
 31
0.0
  0
LINE
  5
241
100
AcDbEntity
  8
Layer_1
 62
7
100
AcDbLine
 10
18.118279
 20
2.649898
 30
0.0
 11
18.118279
 21
2.519935
 31
0.0
  0
LINE
  5
242
100
AcDbEntity
  8
Layer_1
 62
7
100
AcDbLine
 10
18.118279
 20
2.519935
 30
0.0
 11
18.618917
 21
2.642645
 31
0.0
  0
LINE
  5
243
100
AcDbEntity
  8
Layer_1
 62
7
100
AcDbLine
 10
18.618917
 20
2.642645
 30
0.0
 11
18.985929
 21
2.944623
 31
0.0
  0
LINE
  5
244
100
AcDbEntity
  8
Layer_1
 62
7
100
AcDbLine
 10
18.985929
 20
2.944623
 30
0.0
 11
19.194604
 21
3.359207
 31
0.0
  0
LINE
  5
245
100
AcDbEntity
  8
Layer_1
 62
7
100
AcDbLine
 10
19.194604
 20
3.359207
 30
0.0
 11
19.264162
 21
3.885495
 31
0.0
  0
LINE
  5
246
100
AcDbEntity
  8
Layer_1
 62
7
100
AcDbLine
 10
19.264162
 20
3.885495
 30
0.0
 11
19.194604
 21
4.414492
 31
0.0
  0
LINE
  5
247
100
AcDbEntity
  8
Layer_1
 62
7
100
AcDbLine
 10
19.194604
 20
4.414492
 30
0.0
 11
18.985929
 21
4.830008
 31
0.0
  0
LINE
  5
248
100
AcDbEntity
  8
Layer_1
 62
7
100
AcDbLine
 10
18.985929
 20
4.830008
 30
0.0
 11
18.620748
 21
5.127499
 31
0.0
  0
LINE
  5
249
100
AcDbEntity
  8
Layer_1
 62
7
100
AcDbLine
 10
18.620748
 20
5.127499
 30
0.0
 11
18.118279
 21
5.251027
 31
0.0
  0
LINE
  5
24a
100
AcDbEntity
  8
Layer_1
 62
7
100
AcDbLine
 10
18.118279
 20
5.251027
 30
0.0
 11
18.118279
 21
5.121064
 31
0.0
  0
LINE
  5
24b
100
AcDbEntity
  8
Layer_1
 62
7
100
AcDbLine
 10
18.118279
 20
5.121064
 30
0.0
 11
18.118279
 21
4.991129
 31
0.0
  0
LINE
  5
24c
100
AcDbEntity
  8
Layer_1
 62
7
100
AcDbLine
 10
18.118279
 20
4.991129
 30
0.0
 11
18.288515
 21
4.899520
 31
0.0
  0
LINE
  5
24d
100
AcDbEntity
  8
Layer_1
 62
7
100
AcDbLine
 10
18.288515
 20
4.899520
 30
0.0
 11
18.345259
 21
4.661634
 31
0.0
  0
LINE
  5
24e
100
AcDbEntity
  8
Layer_1
 62
7
100
AcDbLine
 10
18.345259
 20
4.661634
 30
0.0
 11
18.345259
 21
3.885495
 31
0.0
  0
LINE
  5
24f
100
AcDbEntity
  8
Layer_1
 62
7
100
AcDbLine
 10
18.345259
 20
3.885495
 30
0.0
 11
18.345259
 21
3.109412
 31
0.0
  0
LINE
  5
250
100
AcDbEntity
  8
Layer_1
 62
7
100
AcDbLine
 10
18.345259
 20
3.109412
 30
0.0
 11
18.288515
 21
2.871414
 31
0.0
  0
LINE
  5
251
100
AcDbEntity
  8
Layer_1
 62
7
100
AcDbLine
 10
18.288515
 20
2.871414
 30
0.0
 11
18.118279
 21
2.779918
 31
0.0
  0
LINE
  5
252
100
AcDbEntity
  8
Layer_1
 62
7
100
AcDbLine
 10
20.558318
 20
2.897012
 30
0.0
 11
20.531775
 21
3.044360
 31
0.0
  0
LINE
  5
253
100
AcDbEntity
  8
Layer_1
 62
7
100
AcDbLine
 10
20.531775
 20
3.044360
 30
0.0
 11
20.452149
 21
3.164276
 31
0.0
  0
LINE
  5
254
100
AcDbEntity
  8
Layer_1
 62
7
100
AcDbLine
 10
20.452149
 20
3.164276
 30
0.0
 11
20.329507
 21
3.246629
 31
0.0
  0
LINE
  5
255
100
AcDbEntity
  8
Layer_1
 62
7
100
AcDbLine
 10
20.329507
 20
3.246629
 30
0.0
 11
20.181238
 21
3.274004
 31
0.0
  0
LINE
  5
256
100
AcDbEntity
  8
Layer_1
 62
7
100
AcDbLine
 10
20.181238
 20
3.274004
 30
0.0
 11
20.035714
 21
3.246629
 31
0.0
  0
LINE
  5
257
100
AcDbEntity
  8
Layer_1
 62
7
100
AcDbLine
 10
20.035714
 20
3.246629
 30
0.0
 11
19.913987
 21
3.164276
 31
0.0
  0
LINE
  5
258
100
AcDbEntity
  8
Layer_1
 62
7
100
AcDbLine
 10
19.913987
 20
3.164276
 30
0.0
 11
19.831616
 21
3.042554
 31
0.0
  0
LINE
  5
259
100
AcDbEntity
  8
Layer_1
 62
7
100
AcDbLine
 10
19.831616
 20
3.042554
 30
0.0
 11
19.804158
 21
2.897012
 31
0.0
  0
LINE
  5
25a
100
AcDbEntity
  8
Layer_1
 62
7
100
AcDbLine
 10
19.804158
 20
2.897012
 30
0.0
 11
19.831616
 21
2.751526
 31
0.0
  0
LINE
  5
25b
100
AcDbEntity
  8
Layer_1
 62
7
100
AcDbLine
 10
19.831616
 20
2.751526
 30
0.0
 11
19.913986
 21
2.629776
 31
0.0
  0
LINE
  5
25c
100
AcDbEntity
  8
Layer_1
 62
7
100
AcDbLine
 10
19.913986
 20
2.629776
 30
0.0
 11
20.035714
 21
2.547451
 31
0.0
  0
LINE
  5
25d
100
AcDbEntity
  8
Layer_1
 62
7
100
AcDbLine
 10
20.035714
 20
2.547451
 30
0.0
 11
20.181237
 21
2.520076
 31
0.0
  0
LINE
  5
25e
100
AcDbEntity
  8
Layer_1
 62
7
100
AcDbLine
 10
20.181237
 20
2.520076
 30
0.0
 11
20.329506
 21
2.546605
 31
0.0
  0
LINE
  5
25f
100
AcDbEntity
  8
Layer_1
 62
7
100
AcDbLine
 10
20.329506
 20
2.546605
 30
0.0
 11
20.452148
 21
2.626304
 31
0.0
  0
LINE
  5
260
100
AcDbEntity
  8
Layer_1
 62
7
100
AcDbLine
 10
20.452148
 20
2.626304
 30
0.0
 11
20.531774
 21
2.748958
 31
0.0
  0
LINE
  5
261
100
AcDbEntity
  8
Layer_1
 62
7
100
AcDbLine
 10
20.531774
 20
2.748958
 30
0.0
 11
20.558315
 21
2.897209
 31
0.0
  0
LINE
  5
262
100
AcDbEntity
  8
Layer_1
 62
7
100
AcDbLine
 10
22.083513
 20
2.567687
 30
0.0
 11
22.546625
 21
2.567687
 31
0.0
  0
LINE
  5
263
100
AcDbEntity
  8
Layer_1
 62
7
100
AcDbLine
 10
22.546625
 20
2.567687
 30
0.0
 11
23.009738
 21
2.567687
 31
0.0
  0
LINE
  5
264
100
AcDbEntity
  8
Layer_1
 62
7
100
AcDbLine
 10
23.009738
 20
2.567687
 30
0.0
 11
23.122313
 21
2.595062
 31
0.0
  0
LINE
  5
265
100
AcDbEntity
  8
Layer_1
 62
7
100
AcDbLine
 10
23.122313
 20
2.595062
 30
0.0
 11
23.159836
 21
2.677386
 31
0.0
  0
LINE
  5
266
100
AcDbEntity
  8
Layer_1
 62
7
100
AcDbLine
 10
23.159836
 20
2.677386
 30
0.0
 11
23.135122
 21
2.745148
 31
0.0
  0
LINE
  5
267
100
AcDbEntity
  8
Layer_1
 62
7
100
AcDbLine
 10
23.135122
 20
2.745148
 30
0.0
 11
23.060988
 21
2.801875
 31
0.0
  0
LINE
  5
268
100
AcDbEntity
  8
Layer_1
 62
7
100
AcDbLine
 10
23.060988
 20
2.801875
 30
0.0
 11
22.986853
 21
2.870455
 31
0.0
  0
LINE
  5
269
100
AcDbEntity
  8
Layer_1
 62
7
100
AcDbLine
 10
22.986853
 20
2.870455
 30
0.0
 11
22.962139
 21
2.973917
 31
0.0
  0
LINE
  5
26a
100
AcDbEntity
  8
Layer_1
 62
7
100
AcDbLine
 10
22.962139
 20
2.973917
 30
0.0
 11
22.962139
 21
3.885495
 31
0.0
  0
LINE
  5
26b
100
AcDbEntity
  8
Layer_1
 62
7
100
AcDbLine
 10
22.962139
 20
3.885495
 30
0.0
 11
22.962139
 21
4.797129
 31
0.0
  0
LINE
  5
26c
100
AcDbEntity
  8
Layer_1
 62
7
100
AcDbLine
 10
22.962139
 20
4.797129
 30
0.0
 11
22.986853
 21
4.900536
 31
0.0
  0
LINE
  5
26d
100
AcDbEntity
  8
Layer_1
 62
7
100
AcDbLine
 10
22.986853
 20
4.900536
 30
0.0
 11
23.060987
 21
4.969172
 31
0.0
  0
LINE
  5
26e
100
AcDbEntity
  8
Layer_1
 62
7
100
AcDbLine
 10
23.060987
 20
4.969172
 30
0.0
 11
23.135122
 21
5.026774
 31
0.0
  0
LINE
  5
26f
100
AcDbEntity
  8
Layer_1
 62
7
100
AcDbLine
 10
23.135122
 20
5.026774
 30
0.0
 11
23.159836
 21
5.097273
 31
0.0
  0
LINE
  5
270
100
AcDbEntity
  8
Layer_1
 62
7
100
AcDbLine
 10
23.159836
 20
5.097273
 30
0.0
 11
23.122313
 21
5.176888
 31
0.0
  0
LINE
  5
271
100
AcDbEntity
  8
Layer_1
 62
7
100
AcDbLine
 10
23.122313
 20
5.176888
 30
0.0
 11
23.009738
 21
5.203416
 31
0.0
  0
LINE
  5
272
100
AcDbEntity
  8
Layer_1
 62
7
100
AcDbLine
 10
23.009738
 20
5.203416
 30
0.0
 11
22.520999
 21
5.203416
 31
0.0
  0
LINE
  5
273
100
AcDbEntity
  8
Layer_1
 62
7
100
AcDbLine
 10
22.520999
 20
5.203416
 30
0.0
 11
22.032259
 21
5.203416
 31
0.0
  0
LINE
  5
274
100
AcDbEntity
  8
Layer_1
 62
7
100
AcDbLine
 10
22.032259
 20
5.203416
 30
0.0
 11
21.922432
 21
5.176888
 31
0.0
  0
LINE
  5
275
100
AcDbEntity
  8
Layer_1
 62
7
100
AcDbLine
 10
21.922432
 20
5.176888
 30
0.0
 11
21.885819
 21
5.097216
 31
0.0
  0
LINE
  5
276
100
AcDbEntity
  8
Layer_1
 62
7
100
AcDbLine
 10
21.885819
 20
5.097216
 30
0.0
 11
21.910533
 21
5.029539
 31
0.0
  0
LINE
  5
277
100
AcDbEntity
  8
Layer_1
 62
7
100
AcDbLine
 10
21.910533
 20
5.029539
 30
0.0
 11
21.984667
 21
4.972756
 31
0.0
  0
LINE
  5
278
100
AcDbEntity
  8
Layer_1
 62
7
100
AcDbLine
 10
21.984667
 20
4.972756
 30
0.0
 11
22.058802
 21
4.903273
 31
0.0
  0
LINE
  5
279
100
AcDbEntity
  8
Layer_1
 62
7
100
AcDbLine
 10
22.058802
 20
4.903273
 30
0.0
 11
22.083510
 21
4.797073
 31
0.0
  0
LINE
  5
27a
100
AcDbEntity
  8
Layer_1
 62
7
100
AcDbLine
 10
22.083510
 20
4.797073
 30
0.0
 11
22.083510
 21
3.682295
 31
0.0
  0
LINE
  5
27b
100
AcDbEntity
  8
Layer_1
 62
7
100
AcDbLine
 10
22.083510
 20
3.682295
 30
0.0
 11
22.083510
 21
2.567517
 31
0.0
  0
LINE
  5
27c
100
AcDbEntity
  8
Layer_1
 62
7
100
AcDbLine
 10
21.190234
 20
2.567517
 30
0.0
 11
21.580127
 21
2.567517
 31
0.0
  0
LINE
  5
27d
100
AcDbEntity
  8
Layer_1
 62
7
100
AcDbLine
 10
21.580127
 20
2.567517
 30
0.0
 11
21.970020
 21
2.567517
 31
0.0
  0
LINE
  5
27e
100
AcDbEntity
  8
Layer_1
 62
7
100
AcDbLine
 10
21.970020
 20
2.567517
 30
0.0
 11
21.970020
 21
2.688308
 31
0.0
  0
LINE
  5
27f
100
AcDbEntity
  8
Layer_1
 62
7
100
AcDbLine
 10
21.970020
 20
2.688308
 30
0.0
 11
21.970020
 21
2.809156
 31
0.0
  0
LINE
  5
280
100
AcDbEntity
  8
Layer_1
 62
7
100
AcDbLine
 10
21.970020
 20
2.809156
 30
0.0
 11
21.742126
 21
2.862327
 31
0.0
  0
LINE
  5
281
100
AcDbEntity
  8
Layer_1
 62
7
100
AcDbLine
 10
21.742126
 20
2.862327
 30
0.0
 11
21.578296
 21
2.999515
 31
0.0
  0
LINE
  5
282
100
AcDbEntity
  8
Layer_1
 62
7
100
AcDbLine
 10
21.578296
 20
2.999515
 30
0.0
 11
21.512400
 21
3.121266
 31
0.0
  0
LINE
  5
283
100
AcDbEntity
  8
Layer_1
 62
7
100
AcDbLine
 10
21.512400
 20
3.121266
 30
0.0
 11
21.439180
 21
3.318031
 31
0.0
  0
LINE
  5
284
100
AcDbEntity
  8
Layer_1
 62
7
100
AcDbLine
 10
21.439180
 20
3.318031
 30
0.0
 11
21.378775
 21
3.447035
 31
0.0
  0
LINE
  5
285
100
AcDbEntity
  8
Layer_1
 62
7
100
AcDbLine
 10
21.378775
 20
3.447035
 30
0.0
 11
21.307385
 21
3.489904
 31
0.0
  0
LINE
  5
286
100
AcDbEntity
  8
Layer_1
 62
7
100
AcDbLine
 10
21.307385
 20
3.489904
 30
0.0
 11
21.237828
 21
3.463375
 31
0.0
  0
LINE
  5
287
100
AcDbEntity
  8
Layer_1
 62
7
100
AcDbLine
 10
21.237828
 20
3.463375
 30
0.0
 11
21.197556
 21
3.383704
 31
0.0
  0
LINE
  5
288
100
AcDbEntity
  8
Layer_1
 62
7
100
AcDbLine
 10
21.197556
 20
3.383704
 30
0.0
 11
21.192064
 21
3.316930
 31
0.0
  0
LINE
  5
289
100
AcDbEntity
  8
Layer_1
 62
7
100
AcDbLine
 10
21.192064
 20
3.316930
 30
0.0
 11
21.190230
 21
3.204352
 31
0.0
  0
LINE
  5
28a
100
AcDbEntity
  8
Layer_1
 62
7
100
AcDbLine
 10
21.190230
 20
3.204352
 30
0.0
 11
21.190230
 21
2.885808
 31
0.0
  0
LINE
  5
28b
100
AcDbEntity
  8
Layer_1
 62
7
100
AcDbLine
 10
21.190230
 20
2.885808
 30
0.0
 11
21.190230
 21
2.567320
 31
0.0
  0
LINE
  5
28c
100
AcDbEntity
  8
Layer_1
 62
7
100
AcDbLine
 10
25.206600
 20
4.774890
 30
0.0
 11
25.151686
 21
4.549762
 31
0.0
  0
LINE
  5
28d
100
AcDbEntity
  8
Layer_1
 62
7
100
AcDbLine
 10
25.151686
 20
4.549762
 30
0.0
 11
25.096771
 21
4.324633
 31
0.0
  0
LINE
  5
28e
100
AcDbEntity
  8
Layer_1
 62
7
100
AcDbLine
 10
25.096771
 20
4.324633
 30
0.0
 11
25.259684
 21
3.716867
 31
0.0
  0
LINE
  5
28f
100
AcDbEntity
  8
Layer_1
 62
7
100
AcDbLine
 10
25.259684
 20
3.716867
 30
0.0
 11
25.422597
 21
3.109186
 31
0.0
  0
LINE
  5
290
100
AcDbEntity
  8
Layer_1
 62
7
100
AcDbLine
 10
25.422597
 20
3.109186
 30
0.0
 11
25.436325
 21
3.045969
 31
0.0
  0
LINE
  5
291
100
AcDbEntity
  8
Layer_1
 62
7
100
AcDbLine
 10
25.436325
 20
3.045969
 30
0.0
 11
25.440902
 21
2.995648
 31
0.0
  0
LINE
  5
292
100
AcDbEntity
  8
Layer_1
 62
7
100
AcDbLine
 10
25.440902
 20
2.995648
 30
0.0
 11
25.409788
 21
2.903221
 31
0.0
  0
LINE
  5
293
100
AcDbEntity
  8
Layer_1
 62
7
100
AcDbLine
 10
25.409788
 20
2.903221
 30
0.0
 11
25.316433
 21
2.823578
 31
0.0
  0
LINE
  5
294
100
AcDbEntity
  8
Layer_1
 62
7
100
AcDbLine
 10
25.316433
 20
2.823578
 30
0.0
 11
25.223079
 21
2.752204
 31
0.0
  0
LINE
  5
295
100
AcDbEntity
  8
Layer_1
 62
7
100
AcDbLine
 10
25.223079
 20
2.752204
 30
0.0
 11
25.191958
 21
2.684498
 31
0.0
  0
LINE
  5
296
100
AcDbEntity
  8
Layer_1
 62
7
100
AcDbLine
 10
25.191958
 20
2.684498
 30
0.0
 11
25.237720
 21
2.596614
 31
0.0
  0
LINE
  5
297
100
AcDbEntity
  8
Layer_1
 62
7
100
AcDbLine
 10
25.237720
 20
2.596614
 30
0.0
 11
25.375006
 21
2.567602
 31
0.0
  0
LINE
  5
298
100
AcDbEntity
  8
Layer_1
 62
7
100
AcDbLine
 10
25.375006
 20
2.567602
 30
0.0
 11
25.603816
 21
2.567602
 31
0.0
  0
LINE
  5
299
100
AcDbEntity
  8
Layer_1
 62
7
100
AcDbLine
 10
25.603816
 20
2.567602
 30
0.0
 11
25.832627
 21
2.567602
 31
0.0
  0
LINE
  5
29a
100
AcDbEntity
  8
Layer_1
 62
7
100
AcDbLine
 10
25.832627
 20
2.567602
 30
0.0
 11
25.964422
 21
2.595937
 31
0.0
  0
LINE
  5
29b
100
AcDbEntity
  8
Layer_1
 62
7
100
AcDbLine
 10
25.964422
 20
2.595937
 30
0.0
 11
26.008352
 21
2.681027
 31
0.0
  0
LINE
  5
29c
100
AcDbEntity
  8
Layer_1
 62
7
100
AcDbLine
 10
26.008352
 20
2.681027
 30
0.0
 11
25.992796
 21
2.747829
 31
0.0
  0
LINE
  5
29d
100
AcDbEntity
  8
Layer_1
 62
7
100
AcDbLine
 10
25.992796
 20
2.747829
 30
0.0
 11
25.946119
 21
2.779777
 31
0.0
  0
LINE
  5
29e
100
AcDbEntity
  8
Layer_1
 62
7
100
AcDbLine
 10
25.946119
 20
2.779777
 30
0.0
 11
25.817985
 21
2.837463
 31
0.0
  0
LINE
  5
29f
100
AcDbEntity
  8
Layer_1
 62
7
100
AcDbLine
 10
25.817985
 20
2.837463
 30
0.0
 11
25.726461
 21
2.929891
 31
0.0
  0
LINE
  5
2a0
100
AcDbEntity
  8
Layer_1
 62
7
100
AcDbLine
 10
25.726461
 20
2.929891
 30
0.0
 11
25.678869
 21
3.027794
 31
0.0
  0
LINE
  5
2a1
100
AcDbEntity
  8
Layer_1
 62
7
100
AcDbLine
 10
25.678869
 20
3.027794
 30
0.0
 11
25.631276
 21
3.182480
 31
0.0
  0
LINE
  5
2a2
100
AcDbEntity
  8
Layer_1
 62
7
100
AcDbLine
 10
25.631276
 20
3.182480
 30
0.0
 11
25.418940
 21
3.978741
 31
0.0
  0
LINE
  5
2a3
100
AcDbEntity
  8
Layer_1
 62
7
100
AcDbLine
 10
25.418940
 20
3.978741
 30
0.0
 11
25.206604
 21
4.774947
 31
0.0
  0
LINE
  5
2a4
100
AcDbEntity
  8
Layer_1
 62
7
100
AcDbLine
 10
24.723355
 20
3.226422
 30
0.0
 11
24.996097
 21
3.226422
 31
0.0
  0
LINE
  5
2a5
100
AcDbEntity
  8
Layer_1
 62
7
100
AcDbLine
 10
24.996097
 20
3.226422
 30
0.0
 11
25.268840
 21
3.226422
 31
0.0
  0
LINE
  5
2a6
100
AcDbEntity
  8
Layer_1
 62
7
100
AcDbLine
 10
25.268840
 20
3.226422
 30
0.0
 11
25.234061
 21
3.360026
 31
0.0
  0
LINE
  5
2a7
100
AcDbEntity
  8
Layer_1
 62
7
100
AcDbLine
 10
25.234061
 20
3.360026
 30
0.0
 11
25.199282
 21
3.493630
 31
0.0
  0
LINE
  5
2a8
100
AcDbEntity
  8
Layer_1
 62
7
100
AcDbLine
 10
25.199282
 20
3.493630
 30
0.0
 11
24.992437
 21
3.493630
 31
0.0
  0
LINE
  5
2a9
100
AcDbEntity
  8
Layer_1
 62
7
100
AcDbLine
 10
24.992437
 20
3.493630
 30
0.0
 11
24.785592
 21
3.493630
 31
0.0
  0
LINE
  5
2aa
100
AcDbEntity
  8
Layer_1
 62
7
100
AcDbLine
 10
24.785592
 20
3.493630
 30
0.0
 11
24.968641
 21
4.238640
 31
0.0
  0
LINE
  5
2ab
100
AcDbEntity
  8
Layer_1
 62
7
100
AcDbLine
 10
24.968641
 20
4.238640
 30
0.0
 11
25.151689
 21
4.983650
 31
0.0
  0
LINE
  5
2ac
100
AcDbEntity
  8
Layer_1
 62
7
100
AcDbLine
 10
25.151689
 20
4.983650
 30
0.0
 11
25.118739
 21
5.093463
 31
0.0
  0
LINE
  5
2ad
100
AcDbEntity
  8
Layer_1
 62
7
100
AcDbLine
 10
25.118739
 20
5.093463
 30
0.0
 11
25.085789
 21
5.203304
 31
0.0
  0
LINE
  5
2ae
100
AcDbEntity
  8
Layer_1
 62
7
100
AcDbLine
 10
25.085789
 20
5.203304
 30
0.0
 11
24.694066
 21
5.203304
 31
0.0
  0
LINE
  5
2af
100
AcDbEntity
  8
Layer_1
 62
7
100
AcDbLine
 10
24.694066
 20
5.203304
 30
0.0
 11
24.302342
 21
5.203304
 31
0.0
  0
LINE
  5
2b0
100
AcDbEntity
  8
Layer_1
 62
7
100
AcDbLine
 10
24.302342
 20
5.203304
 30
0.0
 11
24.027770
 21
4.090360
 31
0.0
  0
LINE
  5
2b1
100
AcDbEntity
  8
Layer_1
 62
7
100
AcDbLine
 10
24.027770
 20
4.090360
 30
0.0
 11
23.753197
 21
2.977473
 31
0.0
  0
LINE
  5
2b2
100
AcDbEntity
  8
Layer_1
 62
7
100
AcDbLine
 10
23.753197
 20
2.977473
 30
0.0
 11
23.703775
 21
2.869495
 31
0.0
  0
LINE
  5
2b3
100
AcDbEntity
  8
Layer_1
 62
7
100
AcDbLine
 10
23.703775
 20
2.869495
 30
0.0
 11
23.621402
 21
2.794396
 31
0.0
  0
LINE
  5
2b4
100
AcDbEntity
  8
Layer_1
 62
7
100
AcDbLine
 10
23.621402
 20
2.794396
 30
0.0
 11
23.555507
 21
2.741394
 31
0.0
  0
LINE
  5
2b5
100
AcDbEntity
  8
Layer_1
 62
7
100
AcDbLine
 10
23.555507
 20
2.741394
 30
0.0
 11
23.533539
 21
2.684611
 31
0.0
  0
LINE
  5
2b6
100
AcDbEntity
  8
Layer_1
 62
7
100
AcDbLine
 10
23.533539
 20
2.684611
 30
0.0
 11
23.584794
 21
2.596699
 31
0.0
  0
LINE
  5
2b7
100
AcDbEntity
  8
Layer_1
 62
7
100
AcDbLine
 10
23.584794
 20
2.596699
 30
0.0
 11
23.738553
 21
2.567376
 31
0.0
  0
LINE
  5
2b8
100
AcDbEntity
  8
Layer_1
 62
7
100
AcDbLine
 10
23.738553
 20
2.567376
 30
0.0
 11
24.170547
 21
2.567376
 31
0.0
  0
LINE
  5
2b9
100
AcDbEntity
  8
Layer_1
 62
7
100
AcDbLine
 10
24.170547
 20
2.567376
 30
0.0
 11
24.602541
 21
2.567376
 31
0.0
  0
LINE
  5
2ba
100
AcDbEntity
  8
Layer_1
 62
7
100
AcDbLine
 10
24.602541
 20
2.567376
 30
0.0
 11
24.753557
 21
2.598646
 31
0.0
  0
LINE
  5
2bb
100
AcDbEntity
  8
Layer_1
 62
7
100
AcDbLine
 10
24.753557
 20
2.598646
 30
0.0
 11
24.803894
 21
2.691977
 31
0.0
  0
LINE
  5
2bc
100
AcDbEntity
  8
Layer_1
 62
7
100
AcDbLine
 10
24.803894
 20
2.691977
 30
0.0
 11
24.784678
 21
2.752458
 31
0.0
  0
LINE
  5
2bd
100
AcDbEntity
  8
Layer_1
 62
7
100
AcDbLine
 10
24.784678
 20
2.752458
 30
0.0
 11
24.727016
 21
2.801818
 31
0.0
  0
LINE
  5
2be
100
AcDbEntity
  8
Layer_1
 62
7
100
AcDbLine
 10
24.727016
 20
2.801818
 30
0.0
 11
24.669357
 21
2.853098
 31
0.0
  0
LINE
  5
2bf
100
AcDbEntity
  8
Layer_1
 62
7
100
AcDbLine
 10
24.669357
 20
2.853098
 30
0.0
 11
24.650135
 21
2.911631
 31
0.0
  0
LINE
  5
2c0
100
AcDbEntity
  8
Layer_1
 62
7
100
AcDbLine
 10
24.650135
 20
2.911631
 30
0.0
 11
24.656544
 21
2.983033
 31
0.0
  0
LINE
  5
2c1
100
AcDbEntity
  8
Layer_1
 62
7
100
AcDbLine
 10
24.656544
 20
2.983033
 30
0.0
 11
24.675766
 21
3.072752
 31
0.0
  0
LINE
  5
2c2
100
AcDbEntity
  8
Layer_1
 62
7
100
AcDbLine
 10
24.675766
 20
3.072752
 30
0.0
 11
24.700480
 21
3.149629
 31
0.0
  0
LINE
  5
2c3
100
AcDbEntity
  8
Layer_1
 62
7
100
AcDbLine
 10
24.700480
 20
3.149629
 30
0.0
 11
24.723357
 21
3.226478
 31
0.0
  0
LINE
  5
2c4
100
AcDbEntity
  8
Layer_1
 62
7
100
AcDbLine
 10
28.450797
 20
4.617692
 30
0.0
 11
28.346459
 21
4.434615
 31
0.0
  0
LINE
  5
2c5
100
AcDbEntity
  8
Layer_1
 62
7
100
AcDbLine
 10
28.346459
 20
4.434615
 30
0.0
 11
28.242122
 21
4.251594
 31
0.0
  0
LINE
  5
2c6
100
AcDbEntity
  8
Layer_1
 62
7
100
AcDbLine
 10
28.242122
 20
4.251594
 30
0.0
 11
28.242122
 21
3.715230
 31
0.0
  0
LINE
  5
2c7
100
AcDbEntity
  8
Layer_1
 62
7
100
AcDbLine
 10
28.242122
 20
3.715230
 30
0.0
 11
28.242122
 21
3.178895
 31
0.0
  0
LINE
  5
2c8
100
AcDbEntity
  8
Layer_1
 62
7
100
AcDbLine
 10
28.242122
 20
3.178895
 30
0.0
 11
28.221985
 21
3.020569
 31
0.0
  0
LINE
  5
2c9
100
AcDbEntity
  8
Layer_1
 62
7
100
AcDbLine
 10
28.221985
 20
3.020569
 30
0.0
 11
28.161579
 21
2.904321
 31
0.0
  0
LINE
  5
2ca
100
AcDbEntity
  8
Layer_1
 62
7
100
AcDbLine
 10
28.161579
 20
2.904321
 30
0.0
 11
28.108496
 21
2.854932
 31
0.0
  0
LINE
  5
2cb
100
AcDbEntity
  8
Layer_1
 62
7
100
AcDbLine
 10
28.108496
 20
2.854932
 30
0.0
 11
28.015141
 21
2.794480
 31
0.0
  0
LINE
  5
2cc
100
AcDbEntity
  8
Layer_1
 62
7
100
AcDbLine
 10
28.015141
 20
2.794480
 30
0.0
 11
27.954735
 21
2.746023
 31
0.0
  0
LINE
  5
2cd
100
AcDbEntity
  8
Layer_1
 62
7
100
AcDbLine
 10
27.954735
 20
2.746023
 30
0.0
 11
27.934599
 21
2.688308
 31
0.0
  0
LINE
  5
2ce
100
AcDbEntity
  8
Layer_1
 62
7
100
AcDbLine
 10
27.934599
 20
2.688308
 30
0.0
 11
27.973956
 21
2.597743
 31
0.0
  0
LINE
  5
2cf
100
AcDbEntity
  8
Layer_1
 62
7
100
AcDbLine
 10
27.973956
 20
2.597743
 30
0.0
 11
28.092021
 21
2.567743
 31
0.0
  0
LINE
  5
2d0
100
AcDbEntity
  8
Layer_1
 62
7
100
AcDbLine
 10
28.092021
 20
2.567743
 30
0.0
 11
28.346459
 21
2.567743
 31
0.0
  0
LINE
  5
2d1
100
AcDbEntity
  8
Layer_1
 62
7
100
AcDbLine
 10
28.346459
 20
2.567743
 30
0.0
 11
28.600896
 21
2.567743
 31
0.0
  0
LINE
  5
2d2
100
AcDbEntity
  8
Layer_1
 62
7
100
AcDbLine
 10
28.600896
 20
2.567743
 30
0.0
 11
28.718961
 21
2.597743
 31
0.0
  0
LINE
  5
2d3
100
AcDbEntity
  8
Layer_1
 62
7
100
AcDbLine
 10
28.718961
 20
2.597743
 30
0.0
 11
28.758320
 21
2.688365
 31
0.0
  0
LINE
  5
2d4
100
AcDbEntity
  8
Layer_1
 62
7
100
AcDbLine
 10
28.758320
 20
2.688365
 30
0.0
 11
28.723539
 21
2.751554
 31
0.0
  0
LINE
  5
2d5
100
AcDbEntity
  8
Layer_1
 62
7
100
AcDbLine
 10
28.723539
 20
2.751554
 30
0.0
 11
28.619204
 21
2.831141
 31
0.0
  0
LINE
  5
2d6
100
AcDbEntity
  8
Layer_1
 62
7
100
AcDbLine
 10
28.619204
 20
2.831141
 30
0.0
 11
28.510289
 21
2.929100
 31
0.0
  0
LINE
  5
2d7
100
AcDbEntity
  8
Layer_1
 62
7
100
AcDbLine
 10
28.510289
 20
2.929100
 30
0.0
 11
28.461780
 21
3.047154
 31
0.0
  0
LINE
  5
2d8
100
AcDbEntity
  8
Layer_1
 62
7
100
AcDbLine
 10
28.461780
 20
3.047154
 30
0.0
 11
28.453539
 21
3.143251
 31
0.0
  0
LINE
  5
2d9
100
AcDbEntity
  8
Layer_1
 62
7
100
AcDbLine
 10
28.453539
 20
3.143251
 30
0.0
 11
28.450717
 21
3.263139
 31
0.0
  0
LINE
  5
2da
100
AcDbEntity
  8
Layer_1
 62
7
100
AcDbLine
 10
28.450717
 20
3.263139
 30
0.0
 11
28.450717
 21
3.940444
 31
0.0
  0
LINE
  5
2db
100
AcDbEntity
  8
Layer_1
 62
7
100
AcDbLine
 10
28.450717
 20
3.940444
 30
0.0
 11
28.450717
 21
4.617721
 31
0.0
  0
LINE
  5
2dc
100
AcDbEntity
  8
Layer_1
 62
7
100
AcDbLine
 10
26.605588
 20
3.658532
 30
0.0
 11
26.711756
 21
3.841581
 31
0.0
  0
LINE
  5
2dd
100
AcDbEntity
  8
Layer_1
 62
7
100
AcDbLine
 10
26.711756
 20
3.841581
 30
0.0
 11
26.817924
 21
4.024631
 31
0.0
  0
LINE
  5
2de
100
AcDbEntity
  8
Layer_1
 62
7
100
AcDbLine
 10
26.817924
 20
4.024631
 30
0.0
 11
26.817021
 21
4.111527
 31
0.0
  0
LINE
  5
2df
100
AcDbEntity
  8
Layer_1
 62
7
100
AcDbLine
 10
26.817021
 20
4.111527
 30
0.0
 11
26.814284
 21
4.255263
 31
0.0
  0
LINE
  5
2e0
100
AcDbEntity
  8
Layer_1
 62
7
100
AcDbLine
 10
26.814284
 20
4.255263
 30
0.0
 11
26.811546
 21
4.389798
 31
0.0
  0
LINE
  5
2e1
100
AcDbEntity
  8
Layer_1
 62
7
100
AcDbLine
 10
26.811546
 20
4.389798
 30
0.0
 11
26.810643
 21
4.493232
 31
0.0
  0
LINE
  5
2e2
100
AcDbEntity
  8
Layer_1
 62
7
100
AcDbLine
 10
26.810643
 20
4.493232
 30
0.0
 11
26.817044
 21
4.617721
 31
0.0
  0
LINE
  5
2e3
100
AcDbEntity
  8
Layer_1
 62
7
100
AcDbLine
 10
26.817044
 20
4.617721
 30
0.0
 11
26.828948
 21
4.727533
 31
0.0
  0
LINE
  5
2e4
100
AcDbEntity
  8
Layer_1
 62
7
100
AcDbLine
 10
26.828948
 20
4.727533
 30
0.0
 11
26.877456
 21
4.848353
 31
0.0
  0
LINE
  5
2e5
100
AcDbEntity
  8
Layer_1
 62
7
100
AcDbLine
 10
26.877456
 20
4.848353
 30
0.0
 11
26.986369
 21
4.939877
 31
0.0
  0
LINE
  5
2e6
100
AcDbEntity
  8
Layer_1
 62
7
100
AcDbLine
 10
26.986369
 20
4.939877
 30
0.0
 11
27.087962
 21
5.015823
 31
0.0
  0
LINE
  5
2e7
100
AcDbEntity
  8
Layer_1
 62
7
100
AcDbLine
 10
27.087962
 20
5.015823
 30
0.0
 11
27.121827
 21
5.082654
 31
0.0
  0
LINE
  5
2e8
100
AcDbEntity
  8
Layer_1
 62
7
100
AcDbLine
 10
27.121827
 20
5.082654
 30
0.0
 11
27.084304
 21
5.173247
 31
0.0
  0
LINE
  5
2e9
100
AcDbEntity
  8
Layer_1
 62
7
100
AcDbLine
 10
27.084304
 20
5.173247
 30
0.0
 11
26.971728
 21
5.203247
 31
0.0
  0
LINE
  5
2ea
100
AcDbEntity
  8
Layer_1
 62
7
100
AcDbLine
 10
26.971728
 20
5.203247
 30
0.0
 11
26.713629
 21
5.203247
 31
0.0
  0
LINE
  5
2eb
100
AcDbEntity
  8
Layer_1
 62
7
100
AcDbLine
 10
26.713629
 20
5.203247
 30
0.0
 11
26.455531
 21
5.203247
 31
0.0
  0
LINE
  5
2ec
100
AcDbEntity
  8
Layer_1
 62
7
100
AcDbLine
 10
26.455531
 20
5.203247
 30
0.0
 11
26.340212
 21
5.173247
 31
0.0
  0
LINE
  5
2ed
100
AcDbEntity
  8
Layer_1
 62
7
100
AcDbLine
 10
26.340212
 20
5.173247
 30
0.0
 11
26.301770
 21
5.082654
 31
0.0
  0
LINE
  5
2ee
100
AcDbEntity
  8
Layer_1
 62
7
100
AcDbLine
 10
26.301770
 20
5.082654
 30
0.0
 11
26.336554
 21
5.015823
 31
0.0
  0
LINE
  5
2ef
100
AcDbEntity
  8
Layer_1
 62
7
100
AcDbLine
 10
26.336554
 20
5.015823
 30
0.0
 11
26.440889
 21
4.939877
 31
0.0
  0
LINE
  5
2f0
100
AcDbEntity
  8
Layer_1
 62
7
100
AcDbLine
 10
26.440889
 20
4.939877
 30
0.0
 11
26.547059
 21
4.848353
 31
0.0
  0
LINE
  5
2f1
100
AcDbEntity
  8
Layer_1
 62
7
100
AcDbLine
 10
26.547059
 20
4.848353
 30
0.0
 11
26.594650
 21
4.727533
 31
0.0
  0
LINE
  5
2f2
100
AcDbEntity
  8
Layer_1
 62
7
100
AcDbLine
 10
26.594650
 20
4.727533
 30
0.0
 11
26.609295
 21
4.560063
 31
0.0
  0
LINE
  5
2f3
100
AcDbEntity
  8
Layer_1
 62
7
100
AcDbLine
 10
26.609295
 20
4.560063
 30
0.0
 11
26.616615
 21
4.372441
 31
0.0
  0
LINE
  5
2f4
100
AcDbEntity
  8
Layer_1
 62
7
100
AcDbLine
 10
26.616615
 20
4.372441
 30
0.0
 11
26.617519
 21
4.216852
 31
0.0
  0
LINE
  5
2f5
100
AcDbEntity
  8
Layer_1
 62
7
100
AcDbLine
 10
26.617519
 20
4.216852
 30
0.0
 11
26.612935
 21
4.013652
 31
0.0
  0
LINE
  5
2f6
100
AcDbEntity
  8
Layer_1
 62
7
100
AcDbLine
 10
26.612935
 20
4.013652
 30
0.0
 11
26.607446
 21
3.796736
 31
0.0
  0
LINE
  5
2f7
100
AcDbEntity
  8
Layer_1
 62
7
100
AcDbLine
 10
26.607446
 20
3.796736
 30
0.0
 11
26.605612
 21
3.658532
 31
0.0
  0
LINE
  5
2f8
100
AcDbEntity
  8
Layer_1
 62
7
100
AcDbLine
 10
26.605612
 20
3.449857
 30
0.0
 11
26.605612
 21
3.008687
 31
0.0
  0
LINE
  5
2f9
100
AcDbEntity
  8
Layer_1
 62
7
100
AcDbLine
 10
26.605612
 20
3.008687
 30
0.0
 11
26.605612
 21
2.567546
 31
0.0
  0
LINE
  5
2fa
100
AcDbEntity
  8
Layer_1
 62
7
100
AcDbLine
 10
26.605612
 20
2.567546
 30
0.0
 11
26.878354
 21
2.567546
 31
0.0
  0
LINE
  5
2fb
100
AcDbEntity
  8
Layer_1
 62
7
100
AcDbLine
 10
26.878354
 20
2.567546
 30
0.0
 11
27.151096
 21
2.567546
 31
0.0
  0
LINE
  5
2fc
100
AcDbEntity
  8
Layer_1
 62
7
100
AcDbLine
 10
27.151096
 20
2.567546
 30
0.0
 11
27.817392
 21
3.718956
 31
0.0
  0
LINE
  5
2fd
100
AcDbEntity
  8
Layer_1
 62
7
100
AcDbLine
 10
27.817392
 20
3.718956
 30
0.0
 11
28.483686
 21
4.870338
 31
0.0
  0
LINE
  5
2fe
100
AcDbEntity
  8
Layer_1
 62
7
100
AcDbLine
 10
28.483686
 20
4.870338
 30
0.0
 11
28.546839
 21
4.938015
 31
0.0
  0
LINE
  5
2ff
100
AcDbEntity
  8
Layer_1
 62
7
100
AcDbLine
 10
28.546839
 20
4.938015
 30
0.0
 11
28.655755
 21
4.994798
 31
0.0
  0
LINE
  5
300
100
AcDbEntity
  8
Layer_1
 62
7
100
AcDbLine
 10
28.655755
 20
4.994798
 30
0.0
 11
28.735381
 21
5.044158
 31
0.0
  0
LINE
  5
301
100
AcDbEntity
  8
Layer_1
 62
7
100
AcDbLine
 10
28.735381
 20
5.044158
 30
0.0
 11
28.761910
 21
5.104610
 31
0.0
  0
LINE
  5
302
100
AcDbEntity
  8
Layer_1
 62
7
100
AcDbLine
 10
28.761910
 20
5.104610
 30
0.0
 11
28.727131
 21
5.178778
 31
0.0
  0
LINE
  5
303
100
AcDbEntity
  8
Layer_1
 62
7
100
AcDbLine
 10
28.727131
 20
5.178778
 30
0.0
 11
28.622794
 21
5.203614
 31
0.0
  0
LINE
  5
304
100
AcDbEntity
  8
Layer_1
 62
7
100
AcDbLine
 10
28.622794
 20
5.203614
 30
0.0
 11
28.121241
 21
5.203614
 31
0.0
  0
LINE
  5
305
100
AcDbEntity
  8
Layer_1
 62
7
100
AcDbLine
 10
28.121241
 20
5.203614
 30
0.0
 11
27.619689
 21
5.203614
 31
0.0
  0
LINE
  5
306
100
AcDbEntity
  8
Layer_1
 62
7
100
AcDbLine
 10
27.619689
 20
5.203614
 30
0.0
 11
27.112644
 21
4.326834
 31
0.0
  0
LINE
  5
307
100
AcDbEntity
  8
Layer_1
 62
7
100
AcDbLine
 10
27.112644
 20
4.326834
 30
0.0
 11
26.605600
 21
3.450054
 31
0.0
  0
LINE
  5
308
100
AcDbEntity
  8
Layer_1
 62
7
100
AcDbLine
 10
30.354399
 20
3.750226
 30
0.0
 11
30.354399
 21
3.863736
 31
0.0
  0
LINE
  5
309
100
AcDbEntity
  8
Layer_1
 62
7
100
AcDbLine
 10
30.354399
 20
3.863736
 30
0.0
 11
30.354399
 21
3.977217
 31
0.0
  0
LINE
  5
30a
100
AcDbEntity
  8
Layer_1
 62
7
100
AcDbLine
 10
30.354399
 20
3.977217
 30
0.0
 11
30.239995
 21
4.007218
 31
0.0
  0
LINE
  5
30b
100
AcDbEntity
  8
Layer_1
 62
7
100
AcDbLine
 10
30.239995
 20
4.007218
 30
0.0
 11
30.167690
 21
4.083164
 31
0.0
  0
LINE
  5
30c
100
AcDbEntity
  8
Layer_1
 62
7
100
AcDbLine
 10
30.167690
 20
4.083164
 30
0.0
 11
30.140229
 21
4.173757
 31
0.0
  0
LINE
  5
30d
100
AcDbEntity
  8
Layer_1
 62
7
100
AcDbLine
 10
30.140229
 20
4.173757
 30
0.0
 11
30.131085
 21
4.306458
 31
0.0
  0
LINE
  5
30e
100
AcDbEntity
  8
Layer_1
 62
7
100
AcDbLine
 10
30.131085
 20
4.306458
 30
0.0
 11
30.131085
 21
4.476722
 31
0.0
  0
LINE
  5
30f
100
AcDbEntity
  8
Layer_1
 62
7
100
AcDbLine
 10
30.131085
 20
4.476722
 30
0.0
 11
30.131085
 21
4.646987
 31
0.0
  0
LINE
  5
310
100
AcDbEntity
  8
Layer_1
 62
7
100
AcDbLine
 10
30.131085
 20
4.646987
 30
0.0
 11
30.186917
 21
4.891335
 31
0.0
  0
LINE
  5
311
100
AcDbEntity
  8
Layer_1
 62
7
100
AcDbLine
 10
30.186917
 20
4.891335
 30
0.0
 11
30.354405
 21
4.980094
 31
0.0
  0
LINE
  5
312
100
AcDbEntity
  8
Layer_1
 62
7
100
AcDbLine
 10
30.354405
 20
4.980094
 30
0.0
 11
30.354405
 21
5.091769
 31
0.0
  0
LINE
  5
313
100
AcDbEntity
  8
Layer_1
 62
7
100
AcDbLine
 10
30.354405
 20
5.091769
 30
0.0
 11
30.354405
 21
5.203416
 31
0.0
  0
LINE
  5
314
100
AcDbEntity
  8
Layer_1
 62
7
100
AcDbLine
 10
30.354405
 20
5.203416
 30
0.0
 11
30.284846
 21
5.203416
 31
0.0
  0
LINE
  5
315
100
AcDbEntity
  8
Layer_1
 62
7
100
AcDbLine
 10
30.284846
 20
5.203416
 30
0.0
 11
30.215289
 21
5.203416
 31
0.0
  0
LINE
  5
316
100
AcDbEntity
  8
Layer_1
 62
7
100
AcDbLine
 10
30.215289
 20
5.203416
 30
0.0
 11
29.840955
 21
5.172146
 31
0.0
  0
LINE
  5
317
100
AcDbEntity
  8
Layer_1
 62
7
100
AcDbLine
 10
29.840955
 20
5.172146
 30
0.0
 11
29.567296
 21
5.078815
 31
0.0
  0
LINE
  5
318
100
AcDbEntity
  8
Layer_1
 62
7
100
AcDbLine
 10
29.567296
 20
5.078815
 30
0.0
 11
29.350385
 21
4.863762
 31
0.0
  0
LINE
  5
319
100
AcDbEntity
  8
Layer_1
 62
7
100
AcDbLine
 10
29.350385
 20
4.863762
 30
0.0
 11
29.278080
 21
4.533336
 31
0.0
  0
LINE
  5
31a
100
AcDbEntity
  8
Layer_1
 62
7
100
AcDbLine
 10
29.278080
 20
4.533336
 30
0.0
 11
29.428183
 21
4.109580
 31
0.0
  0
LINE
  5
31b
100
AcDbEntity
  8
Layer_1
 62
7
100
AcDbLine
 10
29.428183
 20
4.109580
 30
0.0
 11
29.878479
 21
3.892664
 31
0.0
  0
LINE
  5
31c
100
AcDbEntity
  8
Layer_1
 62
7
100
AcDbLine
 10
29.878479
 20
3.892664
 30
0.0
 11
29.878479
 21
3.888148
 31
0.0
  0
LINE
  5
31d
100
AcDbEntity
  8
Layer_1
 62
7
100
AcDbLine
 10
29.878479
 20
3.888148
 30
0.0
 11
29.878479
 21
3.883632
 31
0.0
  0
LINE
  5
31e
100
AcDbEntity
  8
Layer_1
 62
7
100
AcDbLine
 10
29.878479
 20
3.883632
 30
0.0
 11
29.414453
 21
3.713424
 31
0.0
  0
LINE
  5
31f
100
AcDbEntity
  8
Layer_1
 62
7
100
AcDbLine
 10
29.414453
 20
3.713424
 30
0.0
 11
29.259775
 21
3.378455
 31
0.0
  0
LINE
  5
320
100
AcDbEntity
  8
Layer_1
 62
7
100
AcDbLine
 10
29.259775
 20
3.378455
 30
0.0
 11
29.260622
 21
3.358981
 31
0.0
  0
LINE
  5
321
100
AcDbEntity
  8
Layer_1
 62
7
100
AcDbLine
 10
29.260622
 20
3.358981
 30
0.0
 11
29.263444
 21
3.242790
 31
0.0
  0
LINE
  5
322
100
AcDbEntity
  8
Layer_1
 62
7
100
AcDbLine
 10
29.263444
 20
3.242790
 30
0.0
 11
29.265137
 21
3.141190
 31
0.0
  0
LINE
  5
323
100
AcDbEntity
  8
Layer_1
 62
7
100
AcDbLine
 10
29.265137
 20
3.141190
 30
0.0
 11
29.263444
 21
3.063382
 31
0.0
  0
LINE
  5
324
100
AcDbEntity
  8
Layer_1
 62
7
100
AcDbLine
 10
29.263444
 20
3.063382
 30
0.0
 11
29.247893
 21
2.994774
 31
0.0
  0
LINE
  5
325
100
AcDbEntity
  8
Layer_1
 62
7
100
AcDbLine
 10
29.247893
 20
2.994774
 30
0.0
 11
29.223171
 21
2.971914
 31
0.0
  0
LINE
  5
326
100
AcDbEntity
  8
Layer_1
 62
7
100
AcDbLine
 10
29.223171
 20
2.971914
 30
0.0
 11
29.195711
 21
2.984614
 31
0.0
  0
LINE
  5
327
100
AcDbEntity
  8
Layer_1
 62
7
100
AcDbLine
 10
29.195711
 20
2.984614
 30
0.0
 11
29.164587
 21
3.023024
 31
0.0
  0
LINE
  5
328
100
AcDbEntity
  8
Layer_1
 62
7
100
AcDbLine
 10
29.164587
 20
3.023024
 30
0.0
 11
29.123405
 21
3.064144
 31
0.0
  0
LINE
  5
329
100
AcDbEntity
  8
Layer_1
 62
7
100
AcDbLine
 10
29.123405
 20
3.064144
 30
0.0
 11
29.073065
 21
3.077690
 31
0.0
  0
LINE
  5
32a
100
AcDbEntity
  8
Layer_1
 62
7
100
AcDbLine
 10
29.073065
 20
3.077690
 30
0.0
 11
29.029137
 21
3.068659
 31
0.0
  0
LINE
  5
32b
100
AcDbEntity
  8
Layer_1
 62
7
100
AcDbLine
 10
29.029137
 20
3.068659
 30
0.0
 11
28.992522
 21
3.041284
 31
0.0
  0
LINE
  5
32c
100
AcDbEntity
  8
Layer_1
 62
7
100
AcDbLine
 10
28.992522
 20
3.041284
 30
0.0
 11
28.965062
 21
3.001998
 31
0.0
  0
LINE
  5
32d
100
AcDbEntity
  8
Layer_1
 62
7
100
AcDbLine
 10
28.965062
 20
3.001998
 30
0.0
 11
28.955918
 21
2.957125
 31
0.0
  0
LINE
  5
32e
100
AcDbEntity
  8
Layer_1
 62
7
100
AcDbLine
 10
28.955918
 20
2.957125
 30
0.0
 11
29.007172
 21
2.788723
 31
0.0
  0
LINE
  5
32f
100
AcDbEntity
  8
Layer_1
 62
7
100
AcDbLine
 10
29.007172
 20
2.788723
 30
0.0
 11
29.160929
 21
2.649559
 31
0.0
  0
LINE
  5
330
100
AcDbEntity
  8
Layer_1
 62
7
100
AcDbLine
 10
29.160929
 20
2.649559
 30
0.0
 11
29.345810
 21
2.567207
 31
0.0
  0
LINE
  5
331
100
AcDbEntity
  8
Layer_1
 62
7
100
AcDbLine
 10
29.345810
 20
2.567207
 30
0.0
 11
29.534349
 21
2.539831
 31
0.0
  0
LINE
  5
332
100
AcDbEntity
  8
Layer_1
 62
7
100
AcDbLine
 10
29.534349
 20
2.539831
 30
0.0
 11
29.870244
 21
2.613040
 31
0.0
  0
LINE
  5
333
100
AcDbEntity
  8
Layer_1
 62
7
100
AcDbLine
 10
29.870244
 20
2.613040
 30
0.0
 11
30.050545
 21
2.832722
 31
0.0
  0
LINE
  5
334
100
AcDbEntity
  8
Layer_1
 62
7
100
AcDbLine
 10
30.050545
 20
2.832722
 30
0.0
 11
30.068861
 21
2.989298
 31
0.0
  0
LINE
  5
335
100
AcDbEntity
  8
Layer_1
 62
7
100
AcDbLine
 10
30.068861
 20
2.989298
 30
0.0
 11
30.101813
 21
3.392848
 31
0.0
  0
LINE
  5
336
100
AcDbEntity
  8
Layer_1
 62
7
100
AcDbLine
 10
30.101813
 20
3.392848
 30
0.0
 11
30.177779
 21
3.640865
 31
0.0
  0
LINE
  5
337
100
AcDbEntity
  8
Layer_1
 62
7
100
AcDbLine
 10
30.177779
 20
3.640865
 30
0.0
 11
30.354419
 21
3.747968
 31
0.0
  0
LINE
  5
338
100
AcDbEntity
  8
Layer_1
 62
7
100
AcDbLine
 10
30.467909
 20
5.201356
 30
0.0
 11
30.467909
 21
4.071959
 31
0.0
  0
LINE
  5
339
100
AcDbEntity
  8
Layer_1
 62
7
100
AcDbLine
 10
30.467909
 20
4.071959
 30
0.0
 11
30.467909
 21
2.942534
 31
0.0
  0
LINE
  5
33a
100
AcDbEntity
  8
Layer_1
 62
7
100
AcDbLine
 10
30.467909
 20
2.942534
 30
0.0
 11
30.443186
 21
2.858319
 31
0.0
  0
LINE
  5
33b
100
AcDbEntity
  8
Layer_1
 62
7
100
AcDbLine
 10
30.443186
 20
2.858319
 30
0.0
 11
30.369052
 21
2.796117
 31
0.0
  0
LINE
  5
33c
100
AcDbEntity
  8
Layer_1
 62
7
100
AcDbLine
 10
30.369052
 20
2.796117
 30
0.0
 11
30.294918
 21
2.742072
 31
0.0
  0
LINE
  5
33d
100
AcDbEntity
  8
Layer_1
 62
7
100
AcDbLine
 10
30.294918
 20
2.742072
 30
0.0
 11
30.270195
 21
2.675298
 31
0.0
  0
LINE
  5
33e
100
AcDbEntity
  8
Layer_1
 62
7
100
AcDbLine
 10
30.270195
 20
2.675298
 30
0.0
 11
30.306808
 21
2.592917
 31
0.0
  0
LINE
  5
33f
100
AcDbEntity
  8
Layer_1
 62
7
100
AcDbLine
 10
30.306808
 20
2.592917
 30
0.0
 11
30.416635
 21
2.565542
 31
0.0
  0
LINE
  5
340
100
AcDbEntity
  8
Layer_1
 62
7
100
AcDbLine
 10
30.416635
 20
2.565542
 30
0.0
 11
30.905376
 21
2.565542
 31
0.0
  0
LINE
  5
341
100
AcDbEntity
  8
Layer_1
 62
7
100
AcDbLine
 10
30.905376
 20
2.565542
 30
0.0
 11
31.394114
 21
2.565542
 31
0.0
  0
LINE
  5
342
100
AcDbEntity
  8
Layer_1
 62
7
100
AcDbLine
 10
31.394114
 20
2.565542
 30
0.0
 11
31.506690
 21
2.592917
 31
0.0
  0
LINE
  5
343
100
AcDbEntity
  8
Layer_1
 62
7
100
AcDbLine
 10
31.506690
 20
2.592917
 30
0.0
 11
31.544211
 21
2.675298
 31
0.0
  0
LINE
  5
344
100
AcDbEntity
  8
Layer_1
 62
7
100
AcDbLine
 10
31.544211
 20
2.675298
 30
0.0
 11
31.519489
 21
2.742100
 31
0.0
  0
LINE
  5
345
100
AcDbEntity
  8
Layer_1
 62
7
100
AcDbLine
 10
31.519489
 20
2.742100
 30
0.0
 11
31.445355
 21
2.796117
 31
0.0
  0
LINE
  5
346
100
AcDbEntity
  8
Layer_1
 62
7
100
AcDbLine
 10
31.445355
 20
2.796117
 30
0.0
 11
31.371221
 21
2.865600
 31
0.0
  0
LINE
  5
347
100
AcDbEntity
  8
Layer_1
 62
7
100
AcDbLine
 10
31.371221
 20
2.865600
 30
0.0
 11
31.346498
 21
2.971829
 31
0.0
  0
LINE
  5
348
100
AcDbEntity
  8
Layer_1
 62
7
100
AcDbLine
 10
31.346498
 20
2.971829
 30
0.0
 11
31.346498
 21
3.883407
 31
0.0
  0
LINE
  5
349
100
AcDbEntity
  8
Layer_1
 62
7
100
AcDbLine
 10
31.346498
 20
3.883407
 30
0.0
 11
31.346498
 21
4.795013
 31
0.0
  0
LINE
  5
34a
100
AcDbEntity
  8
Layer_1
 62
7
100
AcDbLine
 10
31.346498
 20
4.795013
 30
0.0
 11
31.371221
 21
4.898419
 31
0.0
  0
LINE
  5
34b
100
AcDbEntity
  8
Layer_1
 62
7
100
AcDbLine
 10
31.371221
 20
4.898419
 30
0.0
 11
31.445352
 21
4.967084
 31
0.0
  0
LINE
  5
34c
100
AcDbEntity
  8
Layer_1
 62
7
100
AcDbLine
 10
31.445352
 20
4.967084
 30
0.0
 11
31.519489
 21
5.024657
 31
0.0
  0
LINE
  5
34d
100
AcDbEntity
  8
Layer_1
 62
7
100
AcDbLine
 10
31.519489
 20
5.024657
 30
0.0
 11
31.544183
 21
5.095156
 31
0.0
  0
LINE
  5
34e
100
AcDbEntity
  8
Layer_1
 62
7
100
AcDbLine
 10
31.544183
 20
5.095156
 30
0.0
 11
31.506662
 21
5.174799
 31
0.0
  0
LINE
  5
34f
100
AcDbEntity
  8
Layer_1
 62
7
100
AcDbLine
 10
31.506662
 20
5.174799
 30
0.0
 11
31.394086
 21
5.201046
 31
0.0
  0
LINE
  5
350
100
AcDbEntity
  8
Layer_1
 62
7
100
AcDbLine
 10
31.394086
 20
5.201046
 30
0.0
 11
30.930974
 21
5.201046
 31
0.0
  0
LINE
  5
351
100
AcDbEntity
  8
Layer_1
 62
7
100
AcDbLine
 10
30.930974
 20
5.201046
 30
0.0
 11
30.467861
 21
5.201046
 31
0.0
  0
LINE
  5
352
100
AcDbEntity
  8
Layer_1
 62
7
100
AcDbLine
 10
32.874771
 20
2.539718
 30
0.0
 11
32.874771
 21
2.667876
 31
0.0
  0
LINE
  5
353
100
AcDbEntity
  8
Layer_1
 62
7
100
AcDbLine
 10
32.874771
 20
2.667876
 30
0.0
 11
32.874771
 21
2.796004
 31
0.0
  0
LINE
  5
354
100
AcDbEntity
  8
Layer_1
 62
7
100
AcDbLine
 10
32.874771
 20
2.796004
 30
0.0
 11
32.650540
 21
2.864584
 31
0.0
  0
LINE
  5
355
100
AcDbEntity
  8
Layer_1
 62
7
100
AcDbLine
 10
32.650540
 20
2.864584
 30
0.0
 11
32.505014
 21
2.997370
 31
0.0
  0
LINE
  5
356
100
AcDbEntity
  8
Layer_1
 62
7
100
AcDbLine
 10
32.505014
 20
2.997370
 30
0.0
 11
32.439118
 21
3.172178
 31
0.0
  0
LINE
  5
357
100
AcDbEntity
  8
Layer_1
 62
7
100
AcDbLine
 10
32.439118
 20
3.172178
 30
0.0
 11
32.417161
 21
3.418361
 31
0.0
  0
LINE
  5
358
100
AcDbEntity
  8
Layer_1
 62
7
100
AcDbLine
 10
32.417161
 20
3.418361
 30
0.0
 11
32.417161
 21
4.011451
 31
0.0
  0
LINE
  5
359
100
AcDbEntity
  8
Layer_1
 62
7
100
AcDbLine
 10
32.417161
 20
4.011451
 30
0.0
 11
32.417161
 21
4.604513
 31
0.0
  0
LINE
  5
35a
100
AcDbEntity
  8
Layer_1
 62
7
100
AcDbLine
 10
32.417161
 20
4.604513
 30
0.0
 11
32.437284
 21
4.761936
 31
0.0
  0
LINE
  5
35b
100
AcDbEntity
  8
Layer_1
 62
7
100
AcDbLine
 10
32.437284
 20
4.761936
 30
0.0
 11
32.497688
 21
4.875446
 31
0.0
  0
LINE
  5
35c
100
AcDbEntity
  8
Layer_1
 62
7
100
AcDbLine
 10
32.497688
 20
4.875446
 30
0.0
 11
32.548028
 21
4.915634
 31
0.0
  0
LINE
  5
35d
100
AcDbEntity
  8
Layer_1
 62
7
100
AcDbLine
 10
32.548028
 20
4.915634
 30
0.0
 11
32.640467
 21
4.970527
 31
0.0
  0
LINE
  5
35e
100
AcDbEntity
  8
Layer_1
 62
7
100
AcDbLine
 10
32.640467
 20
4.970527
 30
0.0
 11
32.700874
 21
5.018166
 31
0.0
  0
LINE
  5
35f
100
AcDbEntity
  8
Layer_1
 62
7
100
AcDbLine
 10
32.700874
 20
5.018166
 30
0.0
 11
32.721025
 21
5.080368
 31
0.0
  0
LINE
  5
360
100
AcDbEntity
  8
Layer_1
 62
7
100
AcDbLine
 10
32.721025
 20
5.080368
 30
0.0
 11
32.682586
 21
5.171017
 31
0.0
  0
LINE
  5
361
100
AcDbEntity
  8
Layer_1
 62
7
100
AcDbLine
 10
32.682586
 20
5.171017
 30
0.0
 11
32.567261
 21
5.200989
 31
0.0
  0
LINE
  5
362
100
AcDbEntity
  8
Layer_1
 62
7
100
AcDbLine
 10
32.567261
 20
5.200989
 30
0.0
 11
32.290859
 21
5.200989
 31
0.0
  0
LINE
  5
363
100
AcDbEntity
  8
Layer_1
 62
7
100
AcDbLine
 10
32.290859
 20
5.200989
 30
0.0
 11
32.014456
 21
5.200989
 31
0.0
  0
LINE
  5
364
100
AcDbEntity
  8
Layer_1
 62
7
100
AcDbLine
 10
32.014456
 20
5.200989
 30
0.0
 11
31.899137
 21
5.171017
 31
0.0
  0
LINE
  5
365
100
AcDbEntity
  8
Layer_1
 62
7
100
AcDbLine
 10
31.899137
 20
5.171017
 30
0.0
 11
31.860695
 21
5.080368
 31
0.0
  0
LINE
  5
366
100
AcDbEntity
  8
Layer_1
 62
7
100
AcDbLine
 10
31.860695
 20
5.080368
 30
0.0
 11
31.892728
 21
5.005296
 31
0.0
  0
LINE
  5
367
100
AcDbEntity
  8
Layer_1
 62
7
100
AcDbLine
 10
31.892728
 20
5.005296
 30
0.0
 11
31.988827
 21
4.933951
 31
0.0
  0
LINE
  5
368
100
AcDbEntity
  8
Layer_1
 62
7
100
AcDbLine
 10
31.988827
 20
4.933951
 30
0.0
 11
32.098657
 21
4.846970
 31
0.0
  0
LINE
  5
369
100
AcDbEntity
  8
Layer_1
 62
7
100
AcDbLine
 10
32.098657
 20
4.846970
 30
0.0
 11
32.149908
 21
4.732585
 31
0.0
  0
LINE
  5
36a
100
AcDbEntity
  8
Layer_1
 62
7
100
AcDbLine
 10
32.149908
 20
4.732585
 30
0.0
 11
32.163653
 21
4.624579
 31
0.0
  0
LINE
  5
36b
100
AcDbEntity
  8
Layer_1
 62
7
100
AcDbLine
 10
32.163653
 20
4.624579
 30
0.0
 11
32.168225
 21
4.505594
 31
0.0
  0
LINE
  5
36c
100
AcDbEntity
  8
Layer_1
 62
7
100
AcDbLine
 10
32.168225
 20
4.505594
 30
0.0
 11
32.168225
 21
4.007697
 31
0.0
  0
LINE
  5
36d
100
AcDbEntity
  8
Layer_1
 62
7
100
AcDbLine
 10
32.168225
 20
4.007697
 30
0.0
 11
32.168225
 21
3.509801
 31
0.0
  0
LINE
  5
36e
100
AcDbEntity
  8
Layer_1
 62
7
100
AcDbLine
 10
32.168225
 20
3.509801
 30
0.0
 11
32.202091
 21
3.126346
 31
0.0
  0
LINE
  5
36f
100
AcDbEntity
  8
Layer_1
 62
7
100
AcDbLine
 10
32.202091
 20
3.126346
 30
0.0
 11
32.303680
 21
2.854509
 31
0.0
  0
LINE
  5
370
100
AcDbEntity
  8
Layer_1
 62
7
100
AcDbLine
 10
32.303680
 20
2.854509
 30
0.0
 11
32.528831
 21
2.645806
 31
0.0
  0
LINE
  5
371
100
AcDbEntity
  8
Layer_1
 62
7
100
AcDbLine
 10
32.528831
 20
2.645806
 30
0.0
 11
32.874793
 21
2.539662
 31
0.0
  0
LINE
  5
372
100
AcDbEntity
  8
Layer_1
 62
7
100
AcDbLine
 10
32.984620
 20
2.803258
 30
0.0
 11
32.984620
 21
2.665956
 31
0.0
  0
LINE
  5
373
100
AcDbEntity
  8
Layer_1
 62
7
100
AcDbLine
 10
32.984620
 20
2.665956
 30
0.0
 11
32.984620
 21
2.528684
 31
0.0
  0
LINE
  5
374
100
AcDbEntity
  8
Layer_1
 62
7
100
AcDbLine
 10
32.984620
 20
2.528684
 30
0.0
 11
33.145704
 21
2.522757
 31
0.0
  0
LINE
  5
375
100
AcDbEntity
  8
Layer_1
 62
7
100
AcDbLine
 10
33.145704
 20
2.522757
 30
0.0
 11
33.233565
 21
2.522757
 31
0.0
  0
LINE
  5
376
100
AcDbEntity
  8
Layer_1
 62
7
100
AcDbLine
 10
33.233565
 20
2.522757
 30
0.0
 11
33.607899
 21
2.564723
 31
0.0
  0
LINE
  5
377
100
AcDbEntity
  8
Layer_1
 62
7
100
AcDbLine
 10
33.607899
 20
2.564723
 30
0.0
 11
33.874235
 21
2.690990
 31
0.0
  0
LINE
  5
378
100
AcDbEntity
  8
Layer_1
 62
7
100
AcDbLine
 10
33.874235
 20
2.690990
 30
0.0
 11
34.049964
 21
2.937228
 31
0.0
  0
LINE
  5
379
100
AcDbEntity
  8
Layer_1
 62
7
100
AcDbLine
 10
34.049964
 20
2.937228
 30
0.0
 11
34.108539
 21
3.295114
 31
0.0
  0
LINE
  5
37a
100
AcDbEntity
  8
Layer_1
 62
7
100
AcDbLine
 10
34.108539
 20
3.295114
 30
0.0
 11
34.108539
 21
4.045600
 31
0.0
  0
LINE
  5
37b
100
AcDbEntity
  8
Layer_1
 62
7
100
AcDbLine
 10
34.108539
 20
4.045600
 30
0.0
 11
34.108539
 21
4.796113
 31
0.0
  0
LINE
  5
37c
100
AcDbEntity
  8
Layer_1
 62
7
100
AcDbLine
 10
34.108539
 20
4.796113
 30
0.0
 11
34.133233
 21
4.902229
 31
0.0
  0
LINE
  5
37d
100
AcDbEntity
  8
Layer_1
 62
7
100
AcDbLine
 10
34.133233
 20
4.902229
 30
0.0
 11
34.207370
 21
4.971797
 31
0.0
  0
LINE
  5
37e
100
AcDbEntity
  8
Layer_1
 62
7
100
AcDbLine
 10
34.207370
 20
4.971797
 30
0.0
 11
34.281502
 21
5.028467
 31
0.0
  0
LINE
  5
37f
100
AcDbEntity
  8
Layer_1
 62
7
100
AcDbLine
 10
34.281502
 20
5.028467
 30
0.0
 11
34.306196
 21
5.096285
 31
0.0
  0
LINE
  5
380
100
AcDbEntity
  8
Layer_1
 62
7
100
AcDbLine
 10
34.306196
 20
5.096285
 30
0.0
 11
34.266843
 21
5.175900
 31
0.0
  0
LINE
  5
381
100
AcDbEntity
  8
Layer_1
 62
7
100
AcDbLine
 10
34.266843
 20
5.175900
 30
0.0
 11
34.148775
 21
5.202429
 31
0.0
  0
LINE
  5
382
100
AcDbEntity
  8
Layer_1
 62
7
100
AcDbLine
 10
34.148775
 20
5.202429
 30
0.0
 11
33.660034
 21
5.202429
 31
0.0
  0
LINE
  5
383
100
AcDbEntity
  8
Layer_1
 62
7
100
AcDbLine
 10
33.660034
 20
5.202429
 30
0.0
 11
33.171296
 21
5.202429
 31
0.0
  0
LINE
  5
384
100
AcDbEntity
  8
Layer_1
 62
7
100
AcDbLine
 10
33.171296
 20
5.202429
 30
0.0
 11
33.028523
 21
5.176746
 31
0.0
  0
LINE
  5
385
100
AcDbEntity
  8
Layer_1
 62
7
100
AcDbLine
 10
33.028523
 20
5.176746
 30
0.0
 11
32.980926
 21
5.099841
 31
0.0
  0
LINE
  5
386
100
AcDbEntity
  8
Layer_1
 62
7
100
AcDbLine
 10
32.980926
 20
5.099841
 30
0.0
 11
33.011143
 21
5.029314
 31
0.0
  0
LINE
  5
387
100
AcDbEntity
  8
Layer_1
 62
7
100
AcDbLine
 10
33.011143
 20
5.029314
 30
0.0
 11
33.101748
 21
4.971656
 31
0.0
  0
LINE
  5
388
100
AcDbEntity
  8
Layer_1
 62
7
100
AcDbLine
 10
33.101748
 20
4.971656
 30
0.0
 11
33.189612
 21
4.906773
 31
0.0
  0
LINE
  5
389
100
AcDbEntity
  8
Layer_1
 62
7
100
AcDbLine
 10
33.189612
 20
4.906773
 30
0.0
 11
33.218881
 21
4.814260
 31
0.0
  0
LINE
  5
38a
100
AcDbEntity
  8
Layer_1
 62
7
100
AcDbLine
 10
33.218881
 20
4.814260
 30
0.0
 11
33.218881
 21
3.981422
 31
0.0
  0
LINE
  5
38b
100
AcDbEntity
  8
Layer_1
 62
7
100
AcDbLine
 10
33.218881
 20
3.981422
 30
0.0
 11
33.218881
 21
3.148528
 31
0.0
  0
LINE
  5
38c
100
AcDbEntity
  8
Layer_1
 62
7
100
AcDbLine
 10
33.218881
 20
3.148528
 30
0.0
 11
33.209737
 21
3.005752
 31
0.0
  0
LINE
  5
38d
100
AcDbEntity
  8
Layer_1
 62
7
100
AcDbLine
 10
33.209737
 20
3.005752
 30
0.0
 11
33.182305
 21
2.914199
 31
0.0
  0
LINE
  5
38e
100
AcDbEntity
  8
Layer_1
 62
7
100
AcDbLine
 10
33.182305
 20
2.914199
 30
0.0
 11
33.109086
 21
2.839184
 31
0.0
  0
LINE
  5
38f
100
AcDbEntity
  8
Layer_1
 62
7
100
AcDbLine
 10
33.109086
 20
2.839184
 30
0.0
 11
32.984612
 21
2.804274
 31
0.0
  0
LINE
  5
390
100
AcDbEntity
  8
Layer_1
 62
7
100
AcDbLine
 10
35.962812
 20
2.742213
 30
0.0
 11
35.962812
 21
2.630538
 31
0.0
  0
LINE
  5
391
100
AcDbEntity
  8
Layer_1
 62
7
100
AcDbLine
 10
35.962812
 20
2.630538
 30
0.0
 11
35.962812
 21
2.518862
 31
0.0
  0
LINE
  5
392
100
AcDbEntity
  8
Layer_1
 62
7
100
AcDbLine
 10
35.962812
 20
2.518862
 30
0.0
 11
36.453382
 21
2.648797
 31
0.0
  0
LINE
  5
393
100
AcDbEntity
  8
Layer_1
 62
7
100
AcDbLine
 10
36.453382
 20
2.648797
 30
0.0
 11
36.812155
 21
2.950888
 31
0.0
  0
LINE
  5
394
100
AcDbEntity
  8
Layer_1
 62
7
100
AcDbLine
 10
36.812155
 20
2.950888
 30
0.0
 11
37.015340
 21
3.363610
 31
0.0
  0
LINE
  5
395
100
AcDbEntity
  8
Layer_1
 62
7
100
AcDbLine
 10
37.015340
 20
3.363610
 30
0.0
 11
37.083068
 21
3.884423
 31
0.0
  0
LINE
  5
396
100
AcDbEntity
  8
Layer_1
 62
7
100
AcDbLine
 10
37.083068
 20
3.884423
 30
0.0
 11
37.015340
 21
4.405207
 31
0.0
  0
LINE
  5
397
100
AcDbEntity
  8
Layer_1
 62
7
100
AcDbLine
 10
37.015340
 20
4.405207
 30
0.0
 11
36.812155
 21
4.817986
 31
0.0
  0
LINE
  5
398
100
AcDbEntity
  8
Layer_1
 62
7
100
AcDbLine
 10
36.812155
 20
4.817986
 30
0.0
 11
36.453382
 21
5.119992
 31
0.0
  0
LINE
  5
399
100
AcDbEntity
  8
Layer_1
 62
7
100
AcDbLine
 10
36.453382
 20
5.119992
 30
0.0
 11
35.962812
 21
5.249955
 31
0.0
  0
LINE
  5
39a
100
AcDbEntity
  8
Layer_1
 62
7
100
AcDbLine
 10
35.962812
 20
5.249955
 30
0.0
 11
35.962812
 21
5.138280
 31
0.0
  0
LINE
  5
39b
100
AcDbEntity
  8
Layer_1
 62
7
100
AcDbLine
 10
35.962812
 20
5.138280
 30
0.0
 11
35.962812
 21
5.026661
 31
0.0
  0
LINE
  5
39c
100
AcDbEntity
  8
Layer_1
 62
7
100
AcDbLine
 10
35.962812
 20
5.026661
 30
0.0
 11
36.100097
 21
4.942304
 31
0.0
  0
LINE
  5
39d
100
AcDbEntity
  8
Layer_1
 62
7
100
AcDbLine
 10
36.100097
 20
4.942304
 30
0.0
 11
36.145859
 21
4.678850
 31
0.0
  0
LINE
  5
39e
100
AcDbEntity
  8
Layer_1
 62
7
100
AcDbLine
 10
36.145859
 20
4.678850
 30
0.0
 11
36.145859
 21
3.884423
 31
0.0
  0
LINE
  5
39f
100
AcDbEntity
  8
Layer_1
 62
7
100
AcDbLine
 10
36.145859
 20
3.884423
 30
0.0
 11
36.145859
 21
3.089995
 31
0.0
  0
LINE
  5
3a0
100
AcDbEntity
  8
Layer_1
 62
7
100
AcDbLine
 10
36.145859
 20
3.089995
 30
0.0
 11
36.100097
 21
2.827331
 31
0.0
  0
LINE
  5
3a1
100
AcDbEntity
  8
Layer_1
 62
7
100
AcDbLine
 10
36.100097
 20
2.827331
 30
0.0
 11
35.962812
 21
2.742213
 31
0.0
  0
LINE
  5
3a2
100
AcDbEntity
  8
Layer_1
 62
7
100
AcDbLine
 10
35.852983
 20
2.518862
 30
0.0
 11
35.852983
 21
2.630538
 31
0.0
  0
LINE
  5
3a3
100
AcDbEntity
  8
Layer_1
 62
7
100
AcDbLine
 10
35.852983
 20
2.630538
 30
0.0
 11
35.852983
 21
2.742213
 31
0.0
  0
LINE
  5
3a4
100
AcDbEntity
  8
Layer_1
 62
7
100
AcDbLine
 10
35.852983
 20
2.742213
 30
0.0
 11
35.718442
 21
2.826597
 31
0.0
  0
LINE
  5
3a5
100
AcDbEntity
  8
Layer_1
 62
7
100
AcDbLine
 10
35.718442
 20
2.826597
 30
0.0
 11
35.673597
 21
3.089995
 31
0.0
  0
LINE
  5
3a6
100
AcDbEntity
  8
Layer_1
 62
7
100
AcDbLine
 10
35.673597
 20
3.089995
 30
0.0
 11
35.673597
 21
3.884423
 31
0.0
  0
LINE
  5
3a7
100
AcDbEntity
  8
Layer_1
 62
7
100
AcDbLine
 10
35.673597
 20
3.884423
 30
0.0
 11
35.673597
 21
4.678850
 31
0.0
  0
LINE
  5
3a8
100
AcDbEntity
  8
Layer_1
 62
7
100
AcDbLine
 10
35.673597
 20
4.678850
 30
0.0
 11
35.718442
 21
4.941542
 31
0.0
  0
LINE
  5
3a9
100
AcDbEntity
  8
Layer_1
 62
7
100
AcDbLine
 10
35.718442
 20
4.941542
 30
0.0
 11
35.852983
 21
5.026661
 31
0.0
  0
LINE
  5
3aa
100
AcDbEntity
  8
Layer_1
 62
7
100
AcDbLine
 10
35.852983
 20
5.026661
 30
0.0
 11
35.852983
 21
5.138280
 31
0.0
  0
LINE
  5
3ab
100
AcDbEntity
  8
Layer_1
 62
7
100
AcDbLine
 10
35.852983
 20
5.138280
 30
0.0
 11
35.852983
 21
5.249955
 31
0.0
  0
LINE
  5
3ac
100
AcDbEntity
  8
Layer_1
 62
7
100
AcDbLine
 10
35.852983
 20
5.249955
 30
0.0
 11
35.362413
 21
5.120048
 31
0.0
  0
LINE
  5
3ad
100
AcDbEntity
  8
Layer_1
 62
7
100
AcDbLine
 10
35.362413
 20
5.120048
 30
0.0
 11
35.003635
 21
4.817986
 31
0.0
  0
LINE
  5
3ae
100
AcDbEntity
  8
Layer_1
 62
7
100
AcDbLine
 10
35.003635
 20
4.817986
 30
0.0
 11
34.800455
 21
4.405207
 31
0.0
  0
LINE
  5
3af
100
AcDbEntity
  8
Layer_1
 62
7
100
AcDbLine
 10
34.800455
 20
4.405207
 30
0.0
 11
34.732724
 21
3.884423
 31
0.0
  0
LINE
  5
3b0
100
AcDbEntity
  8
Layer_1
 62
7
100
AcDbLine
 10
34.732724
 20
3.884423
 30
0.0
 11
34.800455
 21
3.363610
 31
0.0
  0
LINE
  5
3b1
100
AcDbEntity
  8
Layer_1
 62
7
100
AcDbLine
 10
34.800455
 20
3.363610
 30
0.0
 11
35.003635
 21
2.950888
 31
0.0
  0
LINE
  5
3b2
100
AcDbEntity
  8
Layer_1
 62
7
100
AcDbLine
 10
35.003635
 20
2.950888
 30
0.0
 11
35.362413
 21
2.648882
 31
0.0
  0
LINE
  5
3b3
100
AcDbEntity
  8
Layer_1
 62
7
100
AcDbLine
 10
35.362413
 20
2.648882
 30
0.0
 11
35.852983
 21
2.518862
 31
0.0
  0
LINE
  5
3b4
100
AcDbEntity
  8
Layer_1
 62
7
100
AcDbLine
 10
38.610666
 20
5.202372
 30
0.0
 11
38.125591
 21
5.202372
 31
0.0
  0
LINE
  5
3b5
100
AcDbEntity
  8
Layer_1
 62
7
100
AcDbLine
 10
38.125591
 20
5.202372
 30
0.0
 11
37.640511
 21
5.202372
 31
0.0
  0
LINE
  5
3b6
100
AcDbEntity
  8
Layer_1
 62
7
100
AcDbLine
 10
37.640511
 20
5.202372
 30
0.0
 11
37.519703
 21
5.175843
 31
0.0
  0
LINE
  5
3b7
100
AcDbEntity
  8
Layer_1
 62
7
100
AcDbLine
 10
37.519703
 20
5.175843
 30
0.0
 11
37.479429
 21
5.096172
 31
0.0
  0
LINE
  5
3b8
100
AcDbEntity
  8
Layer_1
 62
7
100
AcDbLine
 10
37.479429
 20
5.096172
 30
0.0
 11
37.505055
 21
5.028495
 31
0.0
  0
LINE
  5
3b9
100
AcDbEntity
  8
Layer_1
 62
7
100
AcDbLine
 10
37.505055
 20
5.028495
 30
0.0
 11
37.581935
 21
4.971712
 31
0.0
  0
LINE
  5
3ba
100
AcDbEntity
  8
Layer_1
 62
7
100
AcDbLine
 10
37.581935
 20
4.971712
 30
0.0
 11
37.656072
 21
4.902229
 31
0.0
  0
LINE
  5
3bb
100
AcDbEntity
  8
Layer_1
 62
7
100
AcDbLine
 10
37.656072
 20
4.902229
 30
0.0
 11
37.680767
 21
4.796000
 31
0.0
  0
LINE
  5
3bc
100
AcDbEntity
  8
Layer_1
 62
7
100
AcDbLine
 10
37.680767
 20
4.796000
 30
0.0
 11
37.680767
 21
4.045515
 31
0.0
  0
LINE
  5
3bd
100
AcDbEntity
  8
Layer_1
 62
7
100
AcDbLine
 10
37.680767
 20
4.045515
 30
0.0
 11
37.680767
 21
3.295002
 31
0.0
  0
LINE
  5
3be
100
AcDbEntity
  8
Layer_1
 62
7
100
AcDbLine
 10
37.680767
 20
3.295002
 30
0.0
 11
37.753075
 21
2.897802
 31
0.0
  0
LINE
  5
3bf
100
AcDbEntity
  8
Layer_1
 62
7
100
AcDbLine
 10
37.753075
 20
2.897802
 30
0.0
 11
37.969985
 21
2.650660
 31
0.0
  0
LINE
  5
3c0
100
AcDbEntity
  8
Layer_1
 62
7
100
AcDbLine
 10
37.969985
 20
2.650660
 30
0.0
 11
38.262867
 21
2.554592
 31
0.0
  0
LINE
  5
3c1
100
AcDbEntity
  8
Layer_1
 62
7
100
AcDbLine
 10
38.262867
 20
2.554592
 30
0.0
 11
38.702180
 21
2.522644
 31
0.0
  0
LINE
  5
3c2
100
AcDbEntity
  8
Layer_1
 62
7
100
AcDbLine
 10
38.702180
 20
2.522644
 30
0.0
 11
38.702180
 21
2.647076
 31
0.0
  0
LINE
  5
3c3
100
AcDbEntity
  8
Layer_1
 62
7
100
AcDbLine
 10
38.702180
 20
2.647076
 30
0.0
 11
38.702180
 21
2.771564
 31
0.0
  0
LINE
  5
3c4
100
AcDbEntity
  8
Layer_1
 62
7
100
AcDbLine
 10
38.702180
 20
2.771564
 30
0.0
 11
38.595096
 21
2.870455
 31
0.0
  0
LINE
  5
3c5
100
AcDbEntity
  8
Layer_1
 62
7
100
AcDbLine
 10
38.595096
 20
2.870455
 30
0.0
 11
38.559404
 21
3.101058
 31
0.0
  0
LINE
  5
3c6
100
AcDbEntity
  8
Layer_1
 62
7
100
AcDbLine
 10
38.559404
 20
3.101058
 30
0.0
 11
38.559404
 21
3.959550
 31
0.0
  0
LINE
  5
3c7
100
AcDbEntity
  8
Layer_1
 62
7
100
AcDbLine
 10
38.559404
 20
3.959550
 30
0.0
 11
38.559404
 21
4.818070
 31
0.0
  0
LINE
  5
3c8
100
AcDbEntity
  8
Layer_1
 62
7
100
AcDbLine
 10
38.559404
 20
4.818070
 30
0.0
 11
38.588707
 21
4.901354
 31
0.0
  0
LINE
  5
3c9
100
AcDbEntity
  8
Layer_1
 62
7
100
AcDbLine
 10
38.588707
 20
4.901354
 30
0.0
 11
38.676568
 21
4.968156
 31
0.0
  0
LINE
  5
3ca
100
AcDbEntity
  8
Layer_1
 62
7
100
AcDbLine
 10
38.676568
 20
4.968156
 30
0.0
 11
38.764432
 21
5.032249
 31
0.0
  0
LINE
  5
3cb
100
AcDbEntity
  8
Layer_1
 62
7
100
AcDbLine
 10
38.764432
 20
5.032249
 30
0.0
 11
38.793702
 21
5.099954
 31
0.0
  0
LINE
  5
3cc
100
AcDbEntity
  8
Layer_1
 62
7
100
AcDbLine
 10
38.793702
 20
5.099954
 30
0.0
 11
38.747942
 21
5.176803
 31
0.0
  0
LINE
  5
3cd
100
AcDbEntity
  8
Layer_1
 62
7
100
AcDbLine
 10
38.747942
 20
5.176803
 30
0.0
 11
38.610655
 21
5.202485
 31
0.0
  0
LINE
  5
3ce
100
AcDbEntity
  8
Layer_1
 62
7
100
AcDbLine
 10
38.808346
 20
2.771592
 30
0.0
 11
38.808346
 21
2.650801
 31
0.0
  0
LINE
  5
3cf
100
AcDbEntity
  8
Layer_1
 62
7
100
AcDbLine
 10
38.808346
 20
2.650801
 30
0.0
 11
38.808346
 21
2.530010
 31
0.0
  0
LINE
  5
3d0
100
AcDbEntity
  8
Layer_1
 62
7
100
AcDbLine
 10
38.808346
 20
2.530010
 30
0.0
 11
39.067361
 21
2.587696
 31
0.0
  0
LINE
  5
3d1
100
AcDbEntity
  8
Layer_1
 62
7
100
AcDbLine
 10
39.067361
 20
2.587696
 30
0.0
 11
39.280611
 21
2.709419
 31
0.0
  0
LINE
  5
3d2
100
AcDbEntity
  8
Layer_1
 62
7
100
AcDbLine
 10
39.280611
 20
2.709419
 30
0.0
 11
39.442610
 21
2.906156
 31
0.0
  0
LINE
  5
3d3
100
AcDbEntity
  8
Layer_1
 62
7
100
AcDbLine
 10
39.442610
 20
2.906156
 30
0.0
 11
39.496607
 21
3.152366
 31
0.0
  0
LINE
  5
3d4
100
AcDbEntity
  8
Layer_1
 62
7
100
AcDbLine
 10
39.496607
 20
3.152366
 30
0.0
 11
39.468249
 21
3.321643
 31
0.0
  0
LINE
  5
3d5
100
AcDbEntity
  8
Layer_1
 62
7
100
AcDbLine
 10
39.468249
 20
3.321643
 30
0.0
 11
39.383131
 21
3.463516
 31
0.0
  0
LINE
  5
3d6
100
AcDbEntity
  8
Layer_1
 62
7
100
AcDbLine
 10
39.383131
 20
3.463516
 30
0.0
 11
39.253165
 21
3.559641
 31
0.0
  0
LINE
  5
3d7
100
AcDbEntity
  8
Layer_1
 62
7
100
AcDbLine
 10
39.253165
 20
3.559641
 30
0.0
 11
39.090252
 21
3.591589
 31
0.0
  0
LINE
  5
3d8
100
AcDbEntity
  8
Layer_1
 62
7
100
AcDbLine
 10
39.090252
 20
3.591589
 30
0.0
 11
38.931920
 21
3.565060
 31
0.0
  0
LINE
  5
3d9
100
AcDbEntity
  8
Layer_1
 62
7
100
AcDbLine
 10
38.931920
 20
3.565060
 30
0.0
 11
38.808360
 21
3.485360
 31
0.0
  0
LINE
  5
3da
100
AcDbEntity
  8
Layer_1
 62
7
100
AcDbLine
 10
38.808360
 20
3.485360
 30
0.0
 11
38.728734
 21
3.364569
 31
0.0
  0
LINE
  5
3db
100
AcDbEntity
  8
Layer_1
 62
7
100
AcDbLine
 10
38.728734
 20
3.364569
 30
0.0
 11
38.702205
 21
3.207174
 31
0.0
  0
LINE
  5
3dc
100
AcDbEntity
  8
Layer_1
 62
7
100
AcDbLine
 10
38.702205
 20
3.207174
 30
0.0
 11
38.772682
 21
2.984755
 31
0.0
  0
LINE
  5
3dd
100
AcDbEntity
  8
Layer_1
 62
7
100
AcDbLine
 10
38.772682
 20
2.984755
 30
0.0
 11
38.984103
 21
2.837406
 31
0.0
  0
LINE
  5
3de
100
AcDbEntity
  8
Layer_1
 62
7
100
AcDbLine
 10
38.984103
 20
2.837406
 30
0.0
 11
38.901731
 21
2.791686
 31
0.0
  0
LINE
  5
3df
100
AcDbEntity
  8
Layer_1
 62
7
100
AcDbLine
 10
38.901731
 20
2.791686
 30
0.0
 11
38.808374
 21
2.771366
 31
0.0
  0
LINE
  5
3e0
100
AcDbEntity
  8
Layer_1
 62
7
100
AcDbLine
 10
40.764711
 20
4.960649
 30
0.0
 11
40.764711
 21
5.081468
 31
0.0
  0
LINE
  5
3e1
100
AcDbEntity
  8
Layer_1
 62
7
100
AcDbLine
 10
40.764711
 20
5.081468
 30
0.0
 11
40.764711
 21
5.202259
 31
0.0
  0
LINE
  5
3e2
100
AcDbEntity
  8
Layer_1
 62
7
100
AcDbLine
 10
40.764711
 20
5.202259
 30
0.0
 11
40.363834
 21
5.202259
 31
0.0
  0
LINE
  5
3e3
100
AcDbEntity
  8
Layer_1
 62
7
100
AcDbLine
 10
40.363834
 20
5.202259
 30
0.0
 11
39.962960
 21
5.202259
 31
0.0
  0
LINE
  5
3e4
100
AcDbEntity
  8
Layer_1
 62
7
100
AcDbLine
 10
39.962960
 20
5.202259
 30
0.0
 11
39.962960
 21
4.850836
 31
0.0
  0
LINE
  5
3e5
100
AcDbEntity
  8
Layer_1
 62
7
100
AcDbLine
 10
39.962960
 20
4.850836
 30
0.0
 11
39.962960
 21
4.499413
 31
0.0
  0
LINE
  5
3e6
100
AcDbEntity
  8
Layer_1
 62
7
100
AcDbLine
 10
39.962960
 20
4.499413
 30
0.0
 11
39.989489
 21
4.416976
 31
0.0
  0
LINE
  5
3e7
100
AcDbEntity
  8
Layer_1
 62
7
100
AcDbLine
 10
39.989489
 20
4.416976
 30
0.0
 11
40.069112
 21
4.389600
 31
0.0
  0
LINE
  5
3e8
100
AcDbEntity
  8
Layer_1
 62
7
100
AcDbLine
 10
40.069112
 20
4.389600
 30
0.0
 11
40.139588
 21
4.426261
 31
0.0
  0
LINE
  5
3e9
100
AcDbEntity
  8
Layer_1
 62
7
100
AcDbLine
 10
40.139588
 20
4.426261
 30
0.0
 11
40.211888
 21
4.536074
 31
0.0
  0
LINE
  5
3ea
100
AcDbEntity
  8
Layer_1
 62
7
100
AcDbLine
 10
40.211888
 20
4.536074
 30
0.0
 11
40.306162
 21
4.708145
 31
0.0
  0
LINE
  5
3eb
100
AcDbEntity
  8
Layer_1
 62
7
100
AcDbLine
 10
40.306162
 20
4.708145
 30
0.0
 11
40.383956
 21
4.814288
 31
0.0
  0
LINE
  5
3ec
100
AcDbEntity
  8
Layer_1
 62
7
100
AcDbLine
 10
40.383956
 20
4.814288
 30
0.0
 11
40.550532
 21
4.924101
 31
0.0
  0
LINE
  5
3ed
100
AcDbEntity
  8
Layer_1
 62
7
100
AcDbLine
 10
40.550532
 20
4.924101
 30
0.0
 11
40.764697
 21
4.960790
 31
0.0
  0
LINE
  5
3ee
100
AcDbEntity
  8
Layer_1
 62
7
100
AcDbLine
 10
40.889171
 20
2.566473
 30
0.0
 11
41.352280
 21
2.566473
 31
0.0
  0
LINE
  5
3ef
100
AcDbEntity
  8
Layer_1
 62
7
100
AcDbLine
 10
41.352280
 20
2.566473
 30
0.0
 11
41.815396
 21
2.566473
 31
0.0
  0
LINE
  5
3f0
100
AcDbEntity
  8
Layer_1
 62
7
100
AcDbLine
 10
41.815396
 20
2.566473
 30
0.0
 11
41.927971
 21
2.593849
 31
0.0
  0
LINE
  5
3f1
100
AcDbEntity
  8
Layer_1
 62
7
100
AcDbLine
 10
41.927971
 20
2.593849
 30
0.0
 11
41.965493
 21
2.676201
 31
0.0
  0
LINE
  5
3f2
100
AcDbEntity
  8
Layer_1
 62
7
100
AcDbLine
 10
41.965493
 20
2.676201
 30
0.0
 11
41.940798
 21
2.743934
 31
0.0
  0
LINE
  5
3f3
100
AcDbEntity
  8
Layer_1
 62
7
100
AcDbLine
 10
41.940798
 20
2.743934
 30
0.0
 11
41.866661
 21
2.800689
 31
0.0
  0
LINE
  5
3f4
100
AcDbEntity
  8
Layer_1
 62
7
100
AcDbLine
 10
41.866661
 20
2.800689
 30
0.0
 11
41.792530
 21
2.869269
 31
0.0
  0
LINE
  5
3f5
100
AcDbEntity
  8
Layer_1
 62
7
100
AcDbLine
 10
41.792530
 20
2.869269
 30
0.0
 11
41.767836
 21
2.972704
 31
0.0
  0
LINE
  5
3f6
100
AcDbEntity
  8
Layer_1
 62
7
100
AcDbLine
 10
41.767836
 20
2.972704
 30
0.0
 11
41.767836
 21
3.884338
 31
0.0
  0
LINE
  5
3f7
100
AcDbEntity
  8
Layer_1
 62
7
100
AcDbLine
 10
41.767836
 20
3.884338
 30
0.0
 11
41.767836
 21
4.795916
 31
0.0
  0
LINE
  5
3f8
100
AcDbEntity
  8
Layer_1
 62
7
100
AcDbLine
 10
41.767836
 20
4.795916
 30
0.0
 11
41.792530
 21
4.902031
 31
0.0
  0
LINE
  5
3f9
100
AcDbEntity
  8
Layer_1
 62
7
100
AcDbLine
 10
41.792530
 20
4.902031
 30
0.0
 11
41.866661
 21
4.971599
 31
0.0
  0
LINE
  5
3fa
100
AcDbEntity
  8
Layer_1
 62
7
100
AcDbLine
 10
41.866661
 20
4.971599
 30
0.0
 11
41.940798
 21
5.028298
 31
0.0
  0
LINE
  5
3fb
100
AcDbEntity
  8
Layer_1
 62
7
100
AcDbLine
 10
41.940798
 20
5.028298
 30
0.0
 11
41.965493
 21
5.096087
 31
0.0
  0
LINE
  5
3fc
100
AcDbEntity
  8
Layer_1
 62
7
100
AcDbLine
 10
41.965493
 20
5.096087
 30
0.0
 11
41.927969
 21
5.175702
 31
0.0
  0
LINE
  5
3fd
100
AcDbEntity
  8
Layer_1
 62
7
100
AcDbLine
 10
41.927969
 20
5.175702
 30
0.0
 11
41.815393
 21
5.202231
 31
0.0
  0
LINE
  5
3fe
100
AcDbEntity
  8
Layer_1
 62
7
100
AcDbLine
 10
41.815393
 20
5.202231
 30
0.0
 11
41.352280
 21
5.202231
 31
0.0
  0
LINE
  5
3ff
100
AcDbEntity
  8
Layer_1
 62
7
100
AcDbLine
 10
41.352280
 20
5.202231
 30
0.0
 11
40.889171
 21
5.202231
 31
0.0
  0
LINE
  5
400
100
AcDbEntity
  8
Layer_1
 62
7
100
AcDbLine
 10
40.889171
 20
5.202231
 30
0.0
 11
40.889171
 21
3.884253
 31
0.0
  0
LINE
  5
401
100
AcDbEntity
  8
Layer_1
 62
7
100
AcDbLine
 10
40.889171
 20
3.884253
 30
0.0
 11
40.889171
 21
2.566304
 31
0.0
  0
LINE
  5
402
100
AcDbEntity
  8
Layer_1
 62
7
100
AcDbLine
 10
39.937317
 20
2.566304
 30
0.0
 11
40.351007
 21
2.566304
 31
0.0
  0
LINE
  5
403
100
AcDbEntity
  8
Layer_1
 62
7
100
AcDbLine
 10
40.351007
 20
2.566304
 30
0.0
 11
40.764694
 21
2.566304
 31
0.0
  0
LINE
  5
404
100
AcDbEntity
  8
Layer_1
 62
7
100
AcDbLine
 10
40.764694
 20
2.566304
 30
0.0
 11
40.764694
 21
2.687180
 31
0.0
  0
LINE
  5
405
100
AcDbEntity
  8
Layer_1
 62
7
100
AcDbLine
 10
40.764694
 20
2.687180
 30
0.0
 11
40.764694
 21
2.807971
 31
0.0
  0
LINE
  5
406
100
AcDbEntity
  8
Layer_1
 62
7
100
AcDbLine
 10
40.764694
 20
2.807971
 30
0.0
 11
40.529481
 21
2.847312
 31
0.0
  0
LINE
  5
407
100
AcDbEntity
  8
Layer_1
 62
7
100
AcDbLine
 10
40.529481
 20
2.847312
 30
0.0
 11
40.358328
 21
2.965366
 31
0.0
  0
LINE
  5
408
100
AcDbEntity
  8
Layer_1
 62
7
100
AcDbLine
 10
40.358328
 20
2.965366
 30
0.0
 11
40.282365
 21
3.075207
 31
0.0
  0
LINE
  5
409
100
AcDbEntity
  8
Layer_1
 62
7
100
AcDbLine
 10
40.282365
 20
3.075207
 30
0.0
 11
40.200904
 21
3.250947
 31
0.0
  0
LINE
  5
40a
100
AcDbEntity
  8
Layer_1
 62
7
100
AcDbLine
 10
40.200904
 20
3.250947
 30
0.0
 11
40.135925
 21
3.369000
 31
0.0
  0
LINE
  5
40b
100
AcDbEntity
  8
Layer_1
 62
7
100
AcDbLine
 10
40.135925
 20
3.369000
 30
0.0
 11
40.065451
 21
3.408314
 31
0.0
  0
LINE
  5
40c
100
AcDbEntity
  8
Layer_1
 62
7
100
AcDbLine
 10
40.065451
 20
3.408314
 30
0.0
 11
39.969352
 21
3.343403
 31
0.0
  0
LINE
  5
40d
100
AcDbEntity
  8
Layer_1
 62
7
100
AcDbLine
 10
39.969352
 20
3.343403
 30
0.0
 11
39.937311
 21
3.148444
 31
0.0
  0
LINE
  5
40e
100
AcDbEntity
  8
Layer_1
 62
7
100
AcDbLine
 10
39.937311
 20
3.148444
 30
0.0
 11
39.937311
 21
2.857388
 31
0.0
  0
LINE
  5
40f
100
AcDbEntity
  8
Layer_1
 62
7
100
AcDbLine
 10
39.937311
 20
2.857388
 30
0.0
 11
39.937311
 21
2.566304
 31
0.0
  0
LINE
  5
410
100
AcDbEntity
  8
Layer_1
 62
7
100
AcDbLine
 10
40.764688
 20
3.803764
 30
0.0
 11
40.764688
 21
3.924555
 31
0.0
  0
LINE
  5
411
100
AcDbEntity
  8
Layer_1
 62
7
100
AcDbLine
 10
40.764688
 20
3.924555
 30
0.0
 11
40.764688
 21
4.045374
 31
0.0
  0
LINE
  5
412
100
AcDbEntity
  8
Layer_1
 62
7
100
AcDbLine
 10
40.764688
 20
4.045374
 30
0.0
 11
40.653944
 21
4.099335
 31
0.0
  0
LINE
  5
413
100
AcDbEntity
  8
Layer_1
 62
7
100
AcDbLine
 10
40.653944
 20
4.099335
 30
0.0
 11
40.577981
 21
4.188150
 31
0.0
  0
LINE
  5
414
100
AcDbEntity
  8
Layer_1
 62
7
100
AcDbLine
 10
40.577981
 20
4.188150
 30
0.0
 11
40.545032
 21
4.275103
 31
0.0
  0
LINE
  5
415
100
AcDbEntity
  8
Layer_1
 62
7
100
AcDbLine
 10
40.545032
 20
4.275103
 30
0.0
 11
40.512082
 21
4.360221
 31
0.0
  0
LINE
  5
416
100
AcDbEntity
  8
Layer_1
 62
7
100
AcDbLine
 10
40.512082
 20
4.360221
 30
0.0
 11
40.466317
 21
4.426120
 31
0.0
  0
LINE
  5
417
100
AcDbEntity
  8
Layer_1
 62
7
100
AcDbLine
 10
40.466317
 20
4.426120
 30
0.0
 11
40.402250
 21
4.448416
 31
0.0
  0
LINE
  5
418
100
AcDbEntity
  8
Layer_1
 62
7
100
AcDbLine
 10
40.402250
 20
4.448416
 30
0.0
 11
40.325370
 21
4.400833
 31
0.0
  0
LINE
  5
419
100
AcDbEntity
  8
Layer_1
 62
7
100
AcDbLine
 10
40.325370
 20
4.400833
 30
0.0
 11
40.299744
 21
4.258028
 31
0.0
  0
LINE
  5
41a
100
AcDbEntity
  8
Layer_1
 62
7
100
AcDbLine
 10
40.299744
 20
4.258028
 30
0.0
 11
40.299744
 21
3.915749
 31
0.0
  0
LINE
  5
41b
100
AcDbEntity
  8
Layer_1
 62
7
100
AcDbLine
 10
40.299744
 20
3.915749
 30
0.0
 11
40.299744
 21
3.573470
 31
0.0
  0
LINE
  5
41c
100
AcDbEntity
  8
Layer_1
 62
7
100
AcDbLine
 10
40.299744
 20
3.573470
 30
0.0
 11
40.325370
 21
3.441644
 31
0.0
  0
LINE
  5
41d
100
AcDbEntity
  8
Layer_1
 62
7
100
AcDbLine
 10
40.325370
 20
3.441644
 30
0.0
 11
40.402250
 21
3.397900
 31
0.0
  0
LINE
  5
41e
100
AcDbEntity
  8
Layer_1
 62
7
100
AcDbLine
 10
40.402250
 20
3.397900
 30
0.0
 11
40.467234
 21
3.441644
 31
0.0
  0
LINE
  5
41f
100
AcDbEntity
  8
Layer_1
 62
7
100
AcDbLine
 10
40.467234
 20
3.441644
 30
0.0
 11
40.545029
 21
3.573470
 31
0.0
  0
LINE
  5
420
100
AcDbEntity
  8
Layer_1
 62
7
100
AcDbLine
 10
40.545029
 20
3.573470
 30
0.0
 11
40.645706
 21
3.726294
 31
0.0
  0
LINE
  5
421
100
AcDbEntity
  8
Layer_1
 62
7
100
AcDbLine
 10
40.645706
 20
3.726294
 30
0.0
 11
40.764688
 21
3.804102
 31
0.0
  0
LINE
  5
422
100
AcDbEntity
  8
Layer_1
 62
7
100
AcDbLine
 10
43.002628
 20
3.463601
 30
0.0
 11
43.006269
 21
3.463601
 31
0.0
  0
LINE
  5
423
100
AcDbEntity
  8
Layer_1
 62
7
100
AcDbLine
 10
43.006269
 20
3.463601
 30
0.0
 11
43.009966
 21
3.463601
 31
0.0
  0
LINE
  5
424
100
AcDbEntity
  8
Layer_1
 62
7
100
AcDbLine
 10
43.009966
 20
3.463601
 30
0.0
 11
43.068541
 21
3.657685
 31
0.0
  0
LINE
  5
425
100
AcDbEntity
  8
Layer_1
 62
7
100
AcDbLine
 10
43.068541
 20
3.657685
 30
0.0
 11
43.127117
 21
3.851685
 31
0.0
  0
LINE
  5
426
100
AcDbEntity
  8
Layer_1
 62
7
100
AcDbLine
 10
43.127117
 20
3.851685
 30
0.0
 11
43.017287
 21
4.256222
 31
0.0
  0
LINE
  5
427
100
AcDbEntity
  8
Layer_1
 62
7
100
AcDbLine
 10
43.017287
 20
4.256222
 30
0.0
 11
42.907455
 21
4.660731
 31
0.0
  0
LINE
  5
428
100
AcDbEntity
  8
Layer_1
 62
7
100
AcDbLine
 10
42.907455
 20
4.660731
 30
0.0
 11
42.893739
 21
4.725671
 31
0.0
  0
LINE
  5
429
100
AcDbEntity
  8
Layer_1
 62
7
100
AcDbLine
 10
42.893739
 20
4.725671
 30
0.0
 11
42.889167
 21
4.788860
 31
0.0
  0
LINE
  5
42a
100
AcDbEntity
  8
Layer_1
 62
7
100
AcDbLine
 10
42.889167
 20
4.788860
 30
0.0
 11
42.921207
 21
4.876716
 31
0.0
  0
LINE
  5
42b
100
AcDbEntity
  8
Layer_1
 62
7
100
AcDbLine
 10
42.921207
 20
4.876716
 30
0.0
 11
43.017307
 21
4.949953
 31
0.0
  0
LINE
  5
42c
100
AcDbEntity
  8
Layer_1
 62
7
100
AcDbLine
 10
43.017307
 20
4.949953
 30
0.0
 11
43.110660
 21
5.018589
 31
0.0
  0
LINE
  5
42d
100
AcDbEntity
  8
Layer_1
 62
7
100
AcDbLine
 10
43.110660
 20
5.018589
 30
0.0
 11
43.141787
 21
5.085419
 31
0.0
  0
LINE
  5
42e
100
AcDbEntity
  8
Layer_1
 62
7
100
AcDbLine
 10
43.141787
 20
5.085419
 30
0.0
 11
43.096024
 21
5.173247
 31
0.0
  0
LINE
  5
42f
100
AcDbEntity
  8
Layer_1
 62
7
100
AcDbLine
 10
43.096024
 20
5.173247
 30
0.0
 11
42.958740
 21
5.202259
 31
0.0
  0
LINE
  5
430
100
AcDbEntity
  8
Layer_1
 62
7
100
AcDbLine
 10
42.958740
 20
5.202259
 30
0.0
 11
42.729928
 21
5.202259
 31
0.0
  0
LINE
  5
431
100
AcDbEntity
  8
Layer_1
 62
7
100
AcDbLine
 10
42.729928
 20
5.202259
 30
0.0
 11
42.501117
 21
5.202259
 31
0.0
  0
LINE
  5
432
100
AcDbEntity
  8
Layer_1
 62
7
100
AcDbLine
 10
42.501117
 20
5.202259
 30
0.0
 11
42.366579
 21
5.174884
 31
0.0
  0
LINE
  5
433
100
AcDbEntity
  8
Layer_1
 62
7
100
AcDbLine
 10
42.366579
 20
5.174884
 30
0.0
 11
42.321731
 21
5.092588
 31
0.0
  0
LINE
  5
434
100
AcDbEntity
  8
Layer_1
 62
7
100
AcDbLine
 10
42.321731
 20
5.092588
 30
0.0
 11
42.350119
 21
5.025729
 31
0.0
  0
LINE
  5
435
100
AcDbEntity
  8
Layer_1
 62
7
100
AcDbLine
 10
42.350119
 20
5.025729
 30
0.0
 11
42.435235
 21
4.971712
 31
0.0
  0
LINE
  5
436
100
AcDbEntity
  8
Layer_1
 62
7
100
AcDbLine
 10
42.435235
 20
4.971712
 30
0.0
 11
42.546896
 21
4.909482
 31
0.0
  0
LINE
  5
437
100
AcDbEntity
  8
Layer_1
 62
7
100
AcDbLine
 10
42.546896
 20
4.909482
 30
0.0
 11
42.610960
 21
4.847308
 31
0.0
  0
LINE
  5
438
100
AcDbEntity
  8
Layer_1
 62
7
100
AcDbLine
 10
42.610960
 20
4.847308
 30
0.0
 11
42.646662
 21
4.772322
 31
0.0
  0
LINE
  5
439
100
AcDbEntity
  8
Layer_1
 62
7
100
AcDbLine
 10
42.646662
 20
4.772322
 30
0.0
 11
42.680520
 21
4.664231
 31
0.0
  0
LINE
  5
43a
100
AcDbEntity
  8
Layer_1
 62
7
100
AcDbLine
 10
42.680520
 20
4.664231
 30
0.0
 11
42.841604
 21
4.063831
 31
0.0
  0
LINE
  5
43b
100
AcDbEntity
  8
Layer_1
 62
7
100
AcDbLine
 10
42.841604
 20
4.063831
 30
0.0
 11
43.002685
 21
3.463404
 31
0.0
  0
LINE
  5
43c
100
AcDbEntity
  8
Layer_1
 62
7
100
AcDbLine
 10
43.061260
 20
3.251088
 30
0.0
 11
43.154616
 21
2.899665
 31
0.0
  0
LINE
  5
43d
100
AcDbEntity
  8
Layer_1
 62
7
100
AcDbLine
 10
43.154616
 20
2.899665
 30
0.0
 11
43.247970
 21
2.548185
 31
0.0
  0
LINE
  5
43e
100
AcDbEntity
  8
Layer_1
 62
7
100
AcDbLine
 10
43.247970
 20
2.548185
 30
0.0
 11
43.500578
 21
2.548185
 31
0.0
  0
LINE
  5
43f
100
AcDbEntity
  8
Layer_1
 62
7
100
AcDbLine
 10
43.500578
 20
2.548185
 30
0.0
 11
43.753184
 21
2.548185
 31
0.0
  0
LINE
  5
440
100
AcDbEntity
  8
Layer_1
 62
7
100
AcDbLine
 10
43.753184
 20
2.548185
 30
0.0
 11
44.086331
 21
3.670301
 31
0.0
  0
LINE
  5
441
100
AcDbEntity
  8
Layer_1
 62
7
100
AcDbLine
 10
44.086331
 20
3.670301
 30
0.0
 11
44.419480
 21
4.792388
 31
0.0
  0
LINE
  5
442
100
AcDbEntity
  8
Layer_1
 62
7
100
AcDbLine
 10
44.419480
 20
4.792388
 30
0.0
 11
44.467991
 21
4.893028
 31
0.0
  0
LINE
  5
443
100
AcDbEntity
  8
Layer_1
 62
7
100
AcDbLine
 10
44.467991
 20
4.893028
 30
0.0
 11
44.547617
 21
4.968100
 31
0.0
  0
LINE
  5
444
100
AcDbEntity
  8
Layer_1
 62
7
100
AcDbLine
 10
44.547617
 20
4.968100
 30
0.0
 11
44.616262
 21
5.028495
 31
0.0
  0
LINE
  5
445
100
AcDbEntity
  8
Layer_1
 62
7
100
AcDbLine
 10
44.616262
 20
5.028495
 30
0.0
 11
44.639150
 21
5.085250
 31
0.0
  0
LINE
  5
446
100
AcDbEntity
  8
Layer_1
 62
7
100
AcDbLine
 10
44.639150
 20
5.085250
 30
0.0
 11
44.586979
 21
5.173106
 31
0.0
  0
LINE
  5
447
100
AcDbEntity
  8
Layer_1
 62
7
100
AcDbLine
 10
44.586979
 20
5.173106
 30
0.0
 11
44.430472
 21
5.202429
 31
0.0
  0
LINE
  5
448
100
AcDbEntity
  8
Layer_1
 62
7
100
AcDbLine
 10
44.430472
 20
5.202429
 30
0.0
 11
43.998481
 21
5.202429
 31
0.0
  0
LINE
  5
449
100
AcDbEntity
  8
Layer_1
 62
7
100
AcDbLine
 10
43.998481
 20
5.202429
 30
0.0
 11
43.566483
 21
5.202429
 31
0.0
  0
LINE
  5
44a
100
AcDbEntity
  8
Layer_1
 62
7
100
AcDbLine
 10
43.566483
 20
5.202429
 30
0.0
 11
43.415469
 21
5.171130
 31
0.0
  0
LINE
  5
44b
100
AcDbEntity
  8
Layer_1
 62
7
100
AcDbLine
 10
43.415469
 20
5.171130
 30
0.0
 11
43.365132
 21
5.077828
 31
0.0
  0
LINE
  5
44c
100
AcDbEntity
  8
Layer_1
 62
7
100
AcDbLine
 10
43.365132
 20
5.077828
 30
0.0
 11
43.385282
 21
5.024685
 31
0.0
  0
LINE
  5
44d
100
AcDbEntity
  8
Layer_1
 62
7
100
AcDbLine
 10
43.385282
 20
5.024685
 30
0.0
 11
43.445689
 21
4.975324
 31
0.0
  0
LINE
  5
44e
100
AcDbEntity
  8
Layer_1
 62
7
100
AcDbLine
 10
43.445689
 20
4.975324
 30
0.0
 11
43.503350
 21
4.924920
 31
0.0
  0
LINE
  5
44f
100
AcDbEntity
  8
Layer_1
 62
7
100
AcDbLine
 10
43.503350
 20
4.924920
 30
0.0
 11
43.522569
 21
4.869181
 31
0.0
  0
LINE
  5
450
100
AcDbEntity
  8
Layer_1
 62
7
100
AcDbLine
 10
43.522569
 20
4.869181
 30
0.0
 11
43.520029
 21
4.835145
 31
0.0
  0
LINE
  5
451
100
AcDbEntity
  8
Layer_1
 62
7
100
AcDbLine
 10
43.520029
 20
4.835145
 30
0.0
 11
43.511788
 21
4.799359
 31
0.0
  0
LINE
  5
452
100
AcDbEntity
  8
Layer_1
 62
7
100
AcDbLine
 10
43.511788
 20
4.799359
 30
0.0
 11
43.286637
 21
4.025082
 31
0.0
  0
LINE
  5
453
100
AcDbEntity
  8
Layer_1
 62
7
100
AcDbLine
 10
43.286637
 20
4.025082
 30
0.0
 11
43.061489
 21
3.250806
 31
0.0
  0
LINE
  5
454
100
AcDbEntity
  8
Layer_1
 62
7
100
AcDbLine
 10
45.140752
 20
5.202062
 30
0.0
 11
45.028182
 21
5.175815
 31
0.0
  0
LINE
  5
455
100
AcDbEntity
  8
Layer_1
 62
7
100
AcDbLine
 10
45.028182
 20
5.175815
 30
0.0
 11
44.990667
 21
5.096116
 31
0.0
  0
LINE
  5
456
100
AcDbEntity
  8
Layer_1
 62
7
100
AcDbLine
 10
44.990667
 20
5.096116
 30
0.0
 11
45.016292
 21
5.025645
 31
0.0
  0
LINE
  5
457
100
AcDbEntity
  8
Layer_1
 62
7
100
AcDbLine
 10
45.016292
 20
5.025645
 30
0.0
 11
45.093178
 21
4.968015
 31
0.0
  0
LINE
  5
458
100
AcDbEntity
  8
Layer_1
 62
7
100
AcDbLine
 10
45.093178
 20
4.968015
 30
0.0
 11
45.167312
 21
4.899435
 31
0.0
  0
LINE
  5
459
100
AcDbEntity
  8
Layer_1
 62
7
100
AcDbLine
 10
45.167312
 20
4.899435
 30
0.0
 11
45.192007
 21
4.795944
 31
0.0
  0
LINE
  5
45a
100
AcDbEntity
  8
Layer_1
 62
7
100
AcDbLine
 10
45.192007
 20
4.795944
 30
0.0
 11
45.192007
 21
3.880726
 31
0.0
  0
LINE
  5
45b
100
AcDbEntity
  8
Layer_1
 62
7
100
AcDbLine
 10
45.192007
 20
3.880726
 30
0.0
 11
45.192007
 21
2.965451
 31
0.0
  0
LINE
  5
45c
100
AcDbEntity
  8
Layer_1
 62
7
100
AcDbLine
 10
45.192007
 20
2.965451
 30
0.0
 11
45.167312
 21
2.867548
 31
0.0
  0
LINE
  5
45d
100
AcDbEntity
  8
Layer_1
 62
7
100
AcDbLine
 10
45.167312
 20
2.867548
 30
0.0
 11
45.093181
 21
2.800718
 31
0.0
  0
LINE
  5
45e
100
AcDbEntity
  8
Layer_1
 62
7
100
AcDbLine
 10
45.093181
 20
2.800718
 30
0.0
 11
45.016307
 21
2.744047
 31
0.0
  0
LINE
  5
45f
100
AcDbEntity
  8
Layer_1
 62
7
100
AcDbLine
 10
45.016307
 20
2.744047
 30
0.0
 11
44.990681
 21
2.676229
 31
0.0
  0
LINE
  5
460
100
AcDbEntity
  8
Layer_1
 62
7
100
AcDbLine
 10
44.990681
 20
2.676229
 30
0.0
 11
45.028199
 21
2.593905
 31
0.0
  0
LINE
  5
461
100
AcDbEntity
  8
Layer_1
 62
7
100
AcDbLine
 10
45.028199
 20
2.593905
 30
0.0
 11
45.140769
 21
2.566530
 31
0.0
  0
LINE
  5
462
100
AcDbEntity
  8
Layer_1
 62
7
100
AcDbLine
 10
45.140769
 20
2.566530
 30
0.0
 11
45.629511
 21
2.566530
 31
0.0
  0
LINE
  5
463
100
AcDbEntity
  8
Layer_1
 62
7
100
AcDbLine
 10
45.629511
 20
2.566530
 30
0.0
 11
46.118252
 21
2.566530
 31
0.0
  0
LINE
  5
464
100
AcDbEntity
  8
Layer_1
 62
7
100
AcDbLine
 10
46.118252
 20
2.566530
 30
0.0
 11
46.230824
 21
2.593905
 31
0.0
  0
LINE
  5
465
100
AcDbEntity
  8
Layer_1
 62
7
100
AcDbLine
 10
46.230824
 20
2.593905
 30
0.0
 11
46.268343
 21
2.676229
 31
0.0
  0
LINE
  5
466
100
AcDbEntity
  8
Layer_1
 62
7
100
AcDbLine
 10
46.268343
 20
2.676229
 30
0.0
 11
46.243649
 21
2.743991
 31
0.0
  0
LINE
  5
467
100
AcDbEntity
  8
Layer_1
 62
7
100
AcDbLine
 10
46.243649
 20
2.743991
 30
0.0
 11
46.169523
 21
2.800718
 31
0.0
  0
LINE
  5
468
100
AcDbEntity
  8
Layer_1
 62
7
100
AcDbLine
 10
46.169523
 20
2.800718
 30
0.0
 11
46.095389
 21
2.869298
 31
0.0
  0
LINE
  5
469
100
AcDbEntity
  8
Layer_1
 62
7
100
AcDbLine
 10
46.095389
 20
2.869298
 30
0.0
 11
46.070694
 21
2.972788
 31
0.0
  0
LINE
  5
46a
100
AcDbEntity
  8
Layer_1
 62
7
100
AcDbLine
 10
46.070694
 20
2.972788
 30
0.0
 11
46.070694
 21
3.884423
 31
0.0
  0
LINE
  5
46b
100
AcDbEntity
  8
Layer_1
 62
7
100
AcDbLine
 10
46.070694
 20
3.884423
 30
0.0
 11
46.070694
 21
4.795944
 31
0.0
  0
LINE
  5
46c
100
AcDbEntity
  8
Layer_1
 62
7
100
AcDbLine
 10
46.070694
 20
4.795944
 30
0.0
 11
46.095389
 21
4.902116
 31
0.0
  0
LINE
  5
46d
100
AcDbEntity
  8
Layer_1
 62
7
100
AcDbLine
 10
46.095389
 20
4.902116
 30
0.0
 11
46.169520
 21
4.971684
 31
0.0
  0
LINE
  5
46e
100
AcDbEntity
  8
Layer_1
 62
7
100
AcDbLine
 10
46.169520
 20
4.971684
 30
0.0
 11
46.243657
 21
5.028354
 31
0.0
  0
LINE
  5
46f
100
AcDbEntity
  8
Layer_1
 62
7
100
AcDbLine
 10
46.243657
 20
5.028354
 30
0.0
 11
46.268352
 21
5.096116
 31
0.0
  0
LINE
  5
470
100
AcDbEntity
  8
Layer_1
 62
7
100
AcDbLine
 10
46.268352
 20
5.096116
 30
0.0
 11
46.230836
 21
5.175759
 31
0.0
  0
LINE
  5
471
100
AcDbEntity
  8
Layer_1
 62
7
100
AcDbLine
 10
46.230836
 20
5.175759
 30
0.0
 11
46.118263
 21
5.202288
 31
0.0
  0
LINE
  5
472
100
AcDbEntity
  8
Layer_1
 62
7
100
AcDbLine
 10
46.118263
 20
5.202288
 30
0.0
 11
45.629519
 21
5.202288
 31
0.0
  0
LINE
  5
473
100
AcDbEntity
  8
Layer_1
 62
7
100
AcDbLine
 10
45.629519
 20
5.202288
 30
0.0
 11
45.140783
 21
5.202288
 31
0.0
  0
LINE
  5
474
100
AcDbEntity
  8
Layer_1
 62
7
100
AcDbLine
 10
47.650780
 20
2.566388
 30
0.0
 11
48.113893
 21
2.566388
 31
0.0
  0
LINE
  5
475
100
AcDbEntity
  8
Layer_1
 62
7
100
AcDbLine
 10
48.113893
 20
2.566388
 30
0.0
 11
48.577008
 21
2.566388
 31
0.0
  0
LINE
  5
476
100
AcDbEntity
  8
Layer_1
 62
7
100
AcDbLine
 10
48.577008
 20
2.566388
 30
0.0
 11
48.689584
 21
2.593764
 31
0.0
  0
LINE
  5
477
100
AcDbEntity
  8
Layer_1
 62
7
100
AcDbLine
 10
48.689584
 20
2.593764
 30
0.0
 11
48.727097
 21
2.676116
 31
0.0
  0
LINE
  5
478
100
AcDbEntity
  8
Layer_1
 62
7
100
AcDbLine
 10
48.727097
 20
2.676116
 30
0.0
 11
48.702403
 21
2.743878
 31
0.0
  0
LINE
  5
479
100
AcDbEntity
  8
Layer_1
 62
7
100
AcDbLine
 10
48.702403
 20
2.743878
 30
0.0
 11
48.628274
 21
2.800605
 31
0.0
  0
LINE
  5
47a
100
AcDbEntity
  8
Layer_1
 62
7
100
AcDbLine
 10
48.628274
 20
2.800605
 30
0.0
 11
48.554140
 21
2.869185
 31
0.0
  0
LINE
  5
47b
100
AcDbEntity
  8
Layer_1
 62
7
100
AcDbLine
 10
48.554140
 20
2.869185
 30
0.0
 11
48.529445
 21
2.972676
 31
0.0
  0
LINE
  5
47c
100
AcDbEntity
  8
Layer_1
 62
7
100
AcDbLine
 10
48.529445
 20
2.972676
 30
0.0
 11
48.529445
 21
3.884253
 31
0.0
  0
LINE
  5
47d
100
AcDbEntity
  8
Layer_1
 62
7
100
AcDbLine
 10
48.529445
 20
3.884253
 30
0.0
 11
48.529445
 21
4.795831
 31
0.0
  0
LINE
  5
47e
100
AcDbEntity
  8
Layer_1
 62
7
100
AcDbLine
 10
48.529445
 20
4.795831
 30
0.0
 11
48.554140
 21
4.899266
 31
0.0
  0
LINE
  5
47f
100
AcDbEntity
  8
Layer_1
 62
7
100
AcDbLine
 10
48.554140
 20
4.899266
 30
0.0
 11
48.628266
 21
4.967902
 31
0.0
  0
LINE
  5
480
100
AcDbEntity
  8
Layer_1
 62
7
100
AcDbLine
 10
48.628266
 20
4.967902
 30
0.0
 11
48.702397
 21
5.025504
 31
0.0
  0
LINE
  5
481
100
AcDbEntity
  8
Layer_1
 62
7
100
AcDbLine
 10
48.702397
 20
5.025504
 30
0.0
 11
48.727120
 21
5.096003
 31
0.0
  0
LINE
  5
482
100
AcDbEntity
  8
Layer_1
 62
7
100
AcDbLine
 10
48.727120
 20
5.096003
 30
0.0
 11
48.689604
 21
5.175618
 31
0.0
  0
LINE
  5
483
100
AcDbEntity
  8
Layer_1
 62
7
100
AcDbLine
 10
48.689604
 20
5.175618
 30
0.0
 11
48.577028
 21
5.202146
 31
0.0
  0
LINE
  5
484
100
AcDbEntity
  8
Layer_1
 62
7
100
AcDbLine
 10
48.577028
 20
5.202146
 30
0.0
 11
48.088287
 21
5.202146
 31
0.0
  0
LINE
  5
485
100
AcDbEntity
  8
Layer_1
 62
7
100
AcDbLine
 10
48.088287
 20
5.202146
 30
0.0
 11
47.599546
 21
5.202146
 31
0.0
  0
LINE
  5
486
100
AcDbEntity
  8
Layer_1
 62
7
100
AcDbLine
 10
47.599546
 20
5.202146
 30
0.0
 11
47.489719
 21
5.175618
 31
0.0
  0
LINE
  5
487
100
AcDbEntity
  8
Layer_1
 62
7
100
AcDbLine
 10
47.489719
 20
5.175618
 30
0.0
 11
47.453132
 21
5.095974
 31
0.0
  0
LINE
  5
488
100
AcDbEntity
  8
Layer_1
 62
7
100
AcDbLine
 10
47.453132
 20
5.095974
 30
0.0
 11
47.477826
 21
5.028269
 31
0.0
  0
LINE
  5
489
100
AcDbEntity
  8
Layer_1
 62
7
100
AcDbLine
 10
47.477826
 20
5.028269
 30
0.0
 11
47.551955
 21
4.971486
 31
0.0
  0
LINE
  5
48a
100
AcDbEntity
  8
Layer_1
 62
7
100
AcDbLine
 10
47.551955
 20
4.971486
 30
0.0
 11
47.626089
 21
4.902031
 31
0.0
  0
LINE
  5
48b
100
AcDbEntity
  8
Layer_1
 62
7
100
AcDbLine
 10
47.626089
 20
4.902031
 30
0.0
 11
47.650783
 21
4.795803
 31
0.0
  0
LINE
  5
48c
100
AcDbEntity
  8
Layer_1
 62
7
100
AcDbLine
 10
47.650783
 20
4.795803
 30
0.0
 11
47.650783
 21
3.680997
 31
0.0
  0
LINE
  5
48d
100
AcDbEntity
  8
Layer_1
 62
7
100
AcDbLine
 10
47.650783
 20
3.680997
 30
0.0
 11
47.650783
 21
2.566247
 31
0.0
  0
LINE
  5
48e
100
AcDbEntity
  8
Layer_1
 62
7
100
AcDbLine
 10
46.757508
 20
2.566247
 30
0.0
 11
47.147400
 21
2.566247
 31
0.0
  0
LINE
  5
48f
100
AcDbEntity
  8
Layer_1
 62
7
100
AcDbLine
 10
47.147400
 20
2.566247
 30
0.0
 11
47.537296
 21
2.566247
 31
0.0
  0
LINE
  5
490
100
AcDbEntity
  8
Layer_1
 62
7
100
AcDbLine
 10
47.537296
 20
2.566247
 30
0.0
 11
47.537296
 21
2.687095
 31
0.0
  0
LINE
  5
491
100
AcDbEntity
  8
Layer_1
 62
7
100
AcDbLine
 10
47.537296
 20
2.687095
 30
0.0
 11
47.537296
 21
2.807886
 31
0.0
  0
LINE
  5
492
100
AcDbEntity
  8
Layer_1
 62
7
100
AcDbLine
 10
47.537296
 20
2.807886
 30
0.0
 11
47.309402
 21
2.861057
 31
0.0
  0
LINE
  5
493
100
AcDbEntity
  8
Layer_1
 62
7
100
AcDbLine
 10
47.309402
 20
2.861057
 30
0.0
 11
47.145572
 21
2.998245
 31
0.0
  0
LINE
  5
494
100
AcDbEntity
  8
Layer_1
 62
7
100
AcDbLine
 10
47.145572
 20
2.998245
 30
0.0
 11
47.079676
 21
3.119996
 31
0.0
  0
LINE
  5
495
100
AcDbEntity
  8
Layer_1
 62
7
100
AcDbLine
 10
47.079676
 20
3.119996
 30
0.0
 11
47.006456
 21
3.316761
 31
0.0
  0
LINE
  5
496
100
AcDbEntity
  8
Layer_1
 62
7
100
AcDbLine
 10
47.006456
 20
3.316761
 30
0.0
 11
46.946057
 21
3.445793
 31
0.0
  0
LINE
  5
497
100
AcDbEntity
  8
Layer_1
 62
7
100
AcDbLine
 10
46.946057
 20
3.445793
 30
0.0
 11
46.874661
 21
3.488662
 31
0.0
  0
LINE
  5
498
100
AcDbEntity
  8
Layer_1
 62
7
100
AcDbLine
 10
46.874661
 20
3.488662
 30
0.0
 11
46.805104
 21
3.462416
 31
0.0
  0
LINE
  5
499
100
AcDbEntity
  8
Layer_1
 62
7
100
AcDbLine
 10
46.805104
 20
3.462416
 30
0.0
 11
46.764848
 21
3.382744
 31
0.0
  0
LINE
  5
49a
100
AcDbEntity
  8
Layer_1
 62
7
100
AcDbLine
 10
46.764848
 20
3.382744
 30
0.0
 11
46.759373
 21
3.315971
 31
0.0
  0
LINE
  5
49b
100
AcDbEntity
  8
Layer_1
 62
7
100
AcDbLine
 10
46.759373
 20
3.315971
 30
0.0
 11
46.757680
 21
3.203392
 31
0.0
  0
LINE
  5
49c
100
AcDbEntity
  8
Layer_1
 62
7
100
AcDbLine
 10
46.757680
 20
3.203392
 30
0.0
 11
46.757680
 21
2.884904
 31
0.0
  0
LINE
  5
49d
100
AcDbEntity
  8
Layer_1
 62
7
100
AcDbLine
 10
46.757680
 20
2.884904
 30
0.0
 11
46.757680
 21
2.566360
 31
0.0
  0
LINE
  5
49e
100
AcDbEntity
  8
Layer_1
 62
7
100
AcDbLine
 10
49.992167
 20
2.895855
 30
0.0
 11
49.965609
 21
3.043203
 31
0.0
  0
LINE
  5
49f
100
AcDbEntity
  8
Layer_1
 62
7
100
AcDbLine
 10
49.965609
 20
3.043203
 30
0.0
 11
49.885983
 21
3.163091
 31
0.0
  0
LINE
  5
4a0
100
AcDbEntity
  8
Layer_1
 62
7
100
AcDbLine
 10
49.885983
 20
3.163091
 30
0.0
 11
49.763341
 21
3.245472
 31
0.0
  0
LINE
  5
4a1
100
AcDbEntity
  8
Layer_1
 62
7
100
AcDbLine
 10
49.763341
 20
3.245472
 30
0.0
 11
49.615073
 21
3.272847
 31
0.0
  0
LINE
  5
4a2
100
AcDbEntity
  8
Layer_1
 62
7
100
AcDbLine
 10
49.615073
 20
3.272847
 30
0.0
 11
49.469550
 21
3.245472
 31
0.0
  0
LINE
  5
4a3
100
AcDbEntity
  8
Layer_1
 62
7
100
AcDbLine
 10
49.469550
 20
3.245472
 30
0.0
 11
49.347819
 21
3.163091
 31
0.0
  0
LINE
  5
4a4
100
AcDbEntity
  8
Layer_1
 62
7
100
AcDbLine
 10
49.347819
 20
3.163091
 30
0.0
 11
49.265450
 21
3.041340
 31
0.0
  0
LINE
  5
4a5
100
AcDbEntity
  8
Layer_1
 62
7
100
AcDbLine
 10
49.265450
 20
3.041340
 30
0.0
 11
49.238018
 21
2.895855
 31
0.0
  0
LINE
  5
4a6
100
AcDbEntity
  8
Layer_1
 62
7
100
AcDbLine
 10
49.238018
 20
2.895855
 30
0.0
 11
49.265450
 21
2.750341
 31
0.0
  0
LINE
  5
4a7
100
AcDbEntity
  8
Layer_1
 62
7
100
AcDbLine
 10
49.265450
 20
2.750341
 30
0.0
 11
49.347831
 21
2.628618
 31
0.0
  0
LINE
  5
4a8
100
AcDbEntity
  8
Layer_1
 62
7
100
AcDbLine
 10
49.347831
 20
2.628618
 30
0.0
 11
49.469559
 21
2.546238
 31
0.0
  0
LINE
  5
4a9
100
AcDbEntity
  8
Layer_1
 62
7
100
AcDbLine
 10
49.469559
 20
2.546238
 30
0.0
 11
49.615081
 21
2.518862
 31
0.0
  0
LINE
  5
4aa
100
AcDbEntity
  8
Layer_1
 62
7
100
AcDbLine
 10
49.615081
 20
2.518862
 30
0.0
 11
49.763352
 21
2.545391
 31
0.0
  0
LINE
  5
4ab
100
AcDbEntity
  8
Layer_1
 62
7
100
AcDbLine
 10
49.763352
 20
2.545391
 30
0.0
 11
49.885995
 21
2.625034
 31
0.0
  0
LINE
  5
4ac
100
AcDbEntity
  8
Layer_1
 62
7
100
AcDbLine
 10
49.885995
 20
2.625034
 30
0.0
 11
49.965618
 21
2.747688
 31
0.0
  0
LINE
  5
4ad
100
AcDbEntity
  8
Layer_1
 62
7
100
AcDbLine
 10
49.965618
 20
2.747688
 30
0.0
 11
49.992175
 21
2.895968
 31
0.0
  0
LINE
  5
4ae
100
AcDbEntity
  8
Layer_1
 62
7
100
AcDbLine
 10
51.209851
 20
4.393298
 30
0.0
 11
51.078056
 21
4.426430
 31
0.0
  0
LINE
  5
4af
100
AcDbEntity
  8
Layer_1
 62
7
100
AcDbLine
 10
51.078056
 20
4.426430
 30
0.0
 11
50.946264
 21
4.459592
 31
0.0
  0
LINE
  5
4b0
100
AcDbEntity
  8
Layer_1
 62
7
100
AcDbLine
 10
50.946264
 20
4.459592
 30
0.0
 11
51.116500
 21
4.002871
 31
0.0
  0
LINE
  5
4b1
100
AcDbEntity
  8
Layer_1
 62
7
100
AcDbLine
 10
51.116500
 20
4.002871
 30
0.0
 11
51.173241
 21
3.621222
 31
0.0
  0
LINE
  5
4b2
100
AcDbEntity
  8
Layer_1
 62
7
100
AcDbLine
 10
51.173241
 20
3.621222
 30
0.0
 11
51.164972
 21
3.489396
 31
0.0
  0
LINE
  5
4b3
100
AcDbEntity
  8
Layer_1
 62
7
100
AcDbLine
 10
51.164972
 20
3.489396
 30
0.0
 11
51.140278
 21
3.306403
 31
0.0
  0
LINE
  5
4b4
100
AcDbEntity
  8
Layer_1
 62
7
100
AcDbLine
 10
51.140278
 20
3.306403
 30
0.0
 11
51.112846
 21
3.126092
 31
0.0
  0
LINE
  5
4b5
100
AcDbEntity
  8
Layer_1
 62
7
100
AcDbLine
 10
51.112846
 20
3.126092
 30
0.0
 11
51.103673
 21
2.995169
 31
0.0
  0
LINE
  5
4b6
100
AcDbEntity
  8
Layer_1
 62
7
100
AcDbLine
 10
51.103673
 20
2.995169
 30
0.0
 11
51.129299
 21
2.814857
 31
0.0
  0
LINE
  5
4b7
100
AcDbEntity
  8
Layer_1
 62
7
100
AcDbLine
 10
51.129299
 20
2.814857
 30
0.0
 11
51.206182
 21
2.669371
 31
0.0
  0
LINE
  5
4b8
100
AcDbEntity
  8
Layer_1
 62
7
100
AcDbLine
 10
51.206182
 20
2.669371
 30
0.0
 11
51.336151
 21
2.559559
 31
0.0
  0
LINE
  5
4b9
100
AcDbEntity
  8
Layer_1
 62
7
100
AcDbLine
 10
51.336151
 20
2.559559
 30
0.0
 11
51.506385
 21
2.522898
 31
0.0
  0
LINE
  5
4ba
100
AcDbEntity
  8
Layer_1
 62
7
100
AcDbLine
 10
51.506385
 20
2.522898
 30
0.0
 11
51.702244
 21
2.564864
 31
0.0
  0
LINE
  5
4bb
100
AcDbEntity
  8
Layer_1
 62
7
100
AcDbLine
 10
51.702244
 20
2.564864
 30
0.0
 11
51.857836
 21
2.691131
 31
0.0
  0
LINE
  5
4bc
100
AcDbEntity
  8
Layer_1
 62
7
100
AcDbLine
 10
51.857836
 20
2.691131
 30
0.0
 11
51.951192
 21
2.862327
 31
0.0
  0
LINE
  5
4bd
100
AcDbEntity
  8
Layer_1
 62
7
100
AcDbLine
 10
51.951192
 20
2.862327
 30
0.0
 11
51.982288
 21
3.068236
 31
0.0
  0
LINE
  5
4be
100
AcDbEntity
  8
Layer_1
 62
7
100
AcDbLine
 10
51.982288
 20
3.068236
 30
0.0
 11
51.944769
 21
3.308012
 31
0.0
  0
LINE
  5
4bf
100
AcDbEntity
  8
Layer_1
 62
7
100
AcDbLine
 10
51.944769
 20
3.308012
 30
0.0
 11
51.832199
 21
3.551513
 31
0.0
  0
LINE
  5
4c0
100
AcDbEntity
  8
Layer_1
 62
7
100
AcDbLine
 10
51.832199
 20
3.551513
 30
0.0
 11
51.711388
 21
3.722625
 31
0.0
  0
LINE
  5
4c1
100
AcDbEntity
  8
Layer_1
 62
7
100
AcDbLine
 10
51.711388
 20
3.722625
 30
0.0
 11
51.510031
 21
3.972532
 31
0.0
  0
LINE
  5
4c2
100
AcDbEntity
  8
Layer_1
 62
7
100
AcDbLine
 10
51.510031
 20
3.972532
 30
0.0
 11
51.325153
 21
4.209571
 31
0.0
  0
LINE
  5
4c3
100
AcDbEntity
  8
Layer_1
 62
7
100
AcDbLine
 10
51.325153
 20
4.209571
 30
0.0
 11
51.209831
 21
4.393523
 31
0.0
  0
LINE
  5
4c4
100
AcDbEntity
  8
Layer_1
 62
7
100
AcDbLine
 10
52.216597
 20
4.349779
 30
0.0
 11
52.302627
 21
4.362479
 31
0.0
  0
LINE
  5
4c5
100
AcDbEntity
  8
Layer_1
 62
7
100
AcDbLine
 10
52.302627
 20
4.362479
 30
0.0
 11
52.388665
 21
4.375179
 31
0.0
  0
LINE
  5
4c6
100
AcDbEntity
  8
Layer_1
 62
7
100
AcDbLine
 10
52.388665
 20
4.375179
 30
0.0
 11
52.337408
 21
4.794364
 31
0.0
  0
LINE
  5
4c7
100
AcDbEntity
  8
Layer_1
 62
7
100
AcDbLine
 10
52.337408
 20
4.794364
 30
0.0
 11
52.286159
 21
5.213520
 31
0.0
  0
LINE
  5
4c8
100
AcDbEntity
  8
Layer_1
 62
7
100
AcDbLine
 10
52.286159
 20
5.213520
 30
0.0
 11
52.198292
 21
5.206464
 31
0.0
  0
LINE
  5
4c9
100
AcDbEntity
  8
Layer_1
 62
7
100
AcDbLine
 10
52.198292
 20
5.206464
 30
0.0
 11
52.110431
 21
5.199409
 31
0.0
  0
LINE
  5
4ca
100
AcDbEntity
  8
Layer_1
 62
7
100
AcDbLine
 10
52.110431
 20
5.199409
 30
0.0
 11
52.119603
 21
5.098768
 31
0.0
  0
LINE
  5
4cb
100
AcDbEntity
  8
Layer_1
 62
7
100
AcDbLine
 10
52.119603
 20
5.098768
 30
0.0
 11
52.128775
 21
4.998072
 31
0.0
  0
LINE
  5
4cc
100
AcDbEntity
  8
Layer_1
 62
7
100
AcDbLine
 10
52.128775
 20
4.998072
 30
0.0
 11
51.878004
 21
5.187556
 31
0.0
  0
LINE
  5
4cd
100
AcDbEntity
  8
Layer_1
 62
7
100
AcDbLine
 10
51.878004
 20
5.187556
 30
0.0
 11
51.586956
 21
5.250689
 31
0.0
  0
LINE
  5
4ce
100
AcDbEntity
  8
Layer_1
 62
7
100
AcDbLine
 10
51.586956
 20
5.250689
 30
0.0
 11
51.432276
 21
5.234320
 31
0.0
  0
LINE
  5
4cf
100
AcDbEntity
  8
Layer_1
 62
7
100
AcDbLine
 10
51.432276
 20
5.234320
 30
0.0
 11
51.231842
 21
5.184987
 31
0.0
  0
LINE
  5
4d0
100
AcDbEntity
  8
Layer_1
 62
7
100
AcDbLine
 10
51.231842
 20
5.184987
 30
0.0
 11
51.043300
 21
5.138280
 31
0.0
  0
LINE
  5
4d1
100
AcDbEntity
  8
Layer_1
 62
7
100
AcDbLine
 10
51.043300
 20
5.138280
 30
0.0
 11
50.931642
 21
5.122757
 31
0.0
  0
LINE
  5
4d2
100
AcDbEntity
  8
Layer_1
 62
7
100
AcDbLine
 10
50.931642
 20
5.122757
 30
0.0
 11
50.873984
 21
5.135457
 31
0.0
  0
LINE
  5
4d3
100
AcDbEntity
  8
Layer_1
 62
7
100
AcDbLine
 10
50.873984
 20
5.135457
 30
0.0
 11
50.825473
 21
5.173896
 31
0.0
  0
LINE
  5
4d4
100
AcDbEntity
  8
Layer_1
 62
7
100
AcDbLine
 10
50.825473
 20
5.173896
 30
0.0
 11
50.779713
 21
5.212306
 31
0.0
  0
LINE
  5
4d5
100
AcDbEntity
  8
Layer_1
 62
7
100
AcDbLine
 10
50.779713
 20
5.212306
 30
0.0
 11
50.737603
 21
5.225006
 31
0.0
  0
LINE
  5
4d6
100
AcDbEntity
  8
Layer_1
 62
7
100
AcDbLine
 10
50.737603
 20
5.225006
 30
0.0
 11
50.679945
 21
5.200171
 31
0.0
  0
LINE
  5
4d7
100
AcDbEntity
  8
Layer_1
 62
7
100
AcDbLine
 10
50.679945
 20
5.200171
 30
0.0
 11
50.660726
 21
5.125946
 31
0.0
  0
LINE
  5
4d8
100
AcDbEntity
  8
Layer_1
 62
7
100
AcDbLine
 10
50.660726
 20
5.125946
 30
0.0
 11
50.702839
 21
4.908156
 31
0.0
  0
LINE
  5
4d9
100
AcDbEntity
  8
Layer_1
 62
7
100
AcDbLine
 10
50.702839
 20
4.908156
 30
0.0
 11
50.829142
 21
4.708624
 31
0.0
  0
LINE
  5
4da
100
AcDbEntity
  8
Layer_1
 62
7
100
AcDbLine
 10
50.829142
 20
4.708624
 30
0.0
 11
51.010357
 21
4.568586
 31
0.0
  0
LINE
  5
4db
100
AcDbEntity
  8
Layer_1
 62
7
100
AcDbLine
 10
51.010357
 20
4.568586
 30
0.0
 11
51.217203
 21
4.521906
 31
0.0
  0
LINE
  5
4dc
100
AcDbEntity
  8
Layer_1
 62
7
100
AcDbLine
 10
51.217203
 20
4.521906
 30
0.0
 11
51.393843
 21
4.537711
 31
0.0
  0
LINE
  5
4dd
100
AcDbEntity
  8
Layer_1
 62
7
100
AcDbLine
 10
51.393843
 20
4.537711
 30
0.0
 11
51.630890
 21
4.584334
 31
0.0
  0
LINE
  5
4de
100
AcDbEntity
  8
Layer_1
 62
7
100
AcDbLine
 10
51.630890
 20
4.584334
 30
0.0
 11
51.861530
 21
4.631042
 31
0.0
  0
LINE
  5
4df
100
AcDbEntity
  8
Layer_1
 62
7
100
AcDbLine
 10
51.861530
 20
4.631042
 30
0.0
 11
52.026278
 21
4.646282
 31
0.0
  0
LINE
  5
4e0
100
AcDbEntity
  8
Layer_1
 62
7
100
AcDbLine
 10
52.026278
 20
4.646282
 30
0.0
 11
52.161730
 21
4.572142
 31
0.0
  0
LINE
  5
4e1
100
AcDbEntity
  8
Layer_1
 62
7
100
AcDbLine
 10
52.161730
 20
4.572142
 30
0.0
 11
52.216645
 21
4.349751
 31
0.0
  0
LINE
  5
4e2
100
AcDbEntity
  8
Layer_1
 62
7
100
AcDbLine
 10
53.109754
 20
5.202429
 30
0.0
 11
52.997184
 21
5.176182
 31
0.0
  0
LINE
  5
4e3
100
AcDbEntity
  8
Layer_1
 62
7
100
AcDbLine
 10
52.997184
 20
5.176182
 30
0.0
 11
52.959668
 21
5.096511
 31
0.0
  0
LINE
  5
4e4
100
AcDbEntity
  8
Layer_1
 62
7
100
AcDbLine
 10
52.959668
 20
5.096511
 30
0.0
 11
52.985294
 21
5.026012
 31
0.0
  0
LINE
  5
4e5
100
AcDbEntity
  8
Layer_1
 62
7
100
AcDbLine
 10
52.985294
 20
5.026012
 30
0.0
 11
53.062180
 21
4.968410
 31
0.0
  0
LINE
  5
4e6
100
AcDbEntity
  8
Layer_1
 62
7
100
AcDbLine
 10
53.062180
 20
4.968410
 30
0.0
 11
53.136314
 21
4.899858
 31
0.0
  0
LINE
  5
4e7
100
AcDbEntity
  8
Layer_1
 62
7
100
AcDbLine
 10
53.136314
 20
4.899858
 30
0.0
 11
53.161008
 21
4.796367
 31
0.0
  0
LINE
  5
4e8
100
AcDbEntity
  8
Layer_1
 62
7
100
AcDbLine
 10
53.161008
 20
4.796367
 30
0.0
 11
53.161008
 21
3.881092
 31
0.0
  0
LINE
  5
4e9
100
AcDbEntity
  8
Layer_1
 62
7
100
AcDbLine
 10
53.161008
 20
3.881092
 30
0.0
 11
53.161008
 21
2.965818
 31
0.0
  0
LINE
  5
4ea
100
AcDbEntity
  8
Layer_1
 62
7
100
AcDbLine
 10
53.161008
 20
2.965818
 30
0.0
 11
53.136314
 21
2.867915
 31
0.0
  0
LINE
  5
4eb
100
AcDbEntity
  8
Layer_1
 62
7
100
AcDbLine
 10
53.136314
 20
2.867915
 30
0.0
 11
53.062188
 21
2.801113
 31
0.0
  0
LINE
  5
4ec
100
AcDbEntity
  8
Layer_1
 62
7
100
AcDbLine
 10
53.062188
 20
2.801113
 30
0.0
 11
52.985308
 21
2.744414
 31
0.0
  0
LINE
  5
4ed
100
AcDbEntity
  8
Layer_1
 62
7
100
AcDbLine
 10
52.985308
 20
2.744414
 30
0.0
 11
52.959682
 21
2.676653
 31
0.0
  0
LINE
  5
4ee
100
AcDbEntity
  8
Layer_1
 62
7
100
AcDbLine
 10
52.959682
 20
2.676653
 30
0.0
 11
52.997198
 21
2.594272
 31
0.0
  0
LINE
  5
4ef
100
AcDbEntity
  8
Layer_1
 62
7
100
AcDbLine
 10
52.997198
 20
2.594272
 30
0.0
 11
53.109774
 21
2.566896
 31
0.0
  0
LINE
  5
4f0
100
AcDbEntity
  8
Layer_1
 62
7
100
AcDbLine
 10
53.109774
 20
2.566896
 30
0.0
 11
53.598512
 21
2.566896
 31
0.0
  0
LINE
  5
4f1
100
AcDbEntity
  8
Layer_1
 62
7
100
AcDbLine
 10
53.598512
 20
2.566896
 30
0.0
 11
54.087248
 21
2.566896
 31
0.0
  0
LINE
  5
4f2
100
AcDbEntity
  8
Layer_1
 62
7
100
AcDbLine
 10
54.087248
 20
2.566896
 30
0.0
 11
54.199826
 21
2.594272
 31
0.0
  0
LINE
  5
4f3
100
AcDbEntity
  8
Layer_1
 62
7
100
AcDbLine
 10
54.199826
 20
2.594272
 30
0.0
 11
54.237342
 21
2.676653
 31
0.0
  0
LINE
  5
4f4
100
AcDbEntity
  8
Layer_1
 62
7
100
AcDbLine
 10
54.237342
 20
2.676653
 30
0.0
 11
54.212647
 21
2.744386
 31
0.0
  0
LINE
  5
4f5
100
AcDbEntity
  8
Layer_1
 62
7
100
AcDbLine
 10
54.212647
 20
2.744386
 30
0.0
 11
54.138519
 21
2.801113
 31
0.0
  0
LINE
  5
4f6
100
AcDbEntity
  8
Layer_1
 62
7
100
AcDbLine
 10
54.138519
 20
2.801113
 30
0.0
 11
54.064382
 21
2.869664
 31
0.0
  0
LINE
  5
4f7
100
AcDbEntity
  8
Layer_1
 62
7
100
AcDbLine
 10
54.064382
 20
2.869664
 30
0.0
 11
54.039688
 21
2.973155
 31
0.0
  0
LINE
  5
4f8
100
AcDbEntity
  8
Layer_1
 62
7
100
AcDbLine
 10
54.039688
 20
2.973155
 30
0.0
 11
54.039688
 21
3.884733
 31
0.0
  0
LINE
  5
4f9
100
AcDbEntity
  8
Layer_1
 62
7
100
AcDbLine
 10
54.039688
 20
3.884733
 30
0.0
 11
54.039688
 21
4.796367
 31
0.0
  0
LINE
  5
4fa
100
AcDbEntity
  8
Layer_1
 62
7
100
AcDbLine
 10
54.039688
 20
4.796367
 30
0.0
 11
54.064382
 21
4.902483
 31
0.0
  0
LINE
  5
4fb
100
AcDbEntity
  8
Layer_1
 62
7
100
AcDbLine
 10
54.064382
 20
4.902483
 30
0.0
 11
54.138513
 21
4.972051
 31
0.0
  0
LINE
  5
4fc
100
AcDbEntity
  8
Layer_1
 62
7
100
AcDbLine
 10
54.138513
 20
4.972051
 30
0.0
 11
54.212647
 21
5.028721
 31
0.0
  0
LINE
  5
4fd
100
AcDbEntity
  8
Layer_1
 62
7
100
AcDbLine
 10
54.212647
 20
5.028721
 30
0.0
 11
54.237342
 21
5.096511
 31
0.0
  0
LINE
  5
4fe
100
AcDbEntity
  8
Layer_1
 62
7
100
AcDbLine
 10
54.237342
 20
5.096511
 30
0.0
 11
54.199826
 21
5.176126
 31
0.0
  0
LINE
  5
4ff
100
AcDbEntity
  8
Layer_1
 62
7
100
AcDbLine
 10
54.199826
 20
5.176126
 30
0.0
 11
54.087248
 21
5.202372
 31
0.0
  0
LINE
  5
500
100
AcDbEntity
  8
Layer_1
 62
7
100
AcDbLine
 10
54.087248
 20
5.202372
 30
0.0
 11
53.598512
 21
5.202372
 31
0.0
  0
LINE
  5
501
100
AcDbEntity
  8
Layer_1
 62
7
100
AcDbLine
 10
53.598512
 20
5.202372
 30
0.0
 11
53.109774
 21
5.202372
 31
0.0
  0
LINE
  5
502
100
AcDbEntity
  8
Layer_1
 62
7
100
AcDbLine
 10
55.271977
 20
5.224668
 30
0.0
 11
55.271977
 21
4.097077
 31
0.0
  0
LINE
  5
503
100
AcDbEntity
  8
Layer_1
 62
7
100
AcDbLine
 10
55.271977
 20
4.097077
 30
0.0
 11
55.271977
 21
2.969543
 31
0.0
  0
LINE
  5
504
100
AcDbEntity
  8
Layer_1
 62
7
100
AcDbLine
 10
55.271977
 20
2.969543
 30
0.0
 11
55.241796
 21
2.863343
 31
0.0
  0
LINE
  5
505
100
AcDbEntity
  8
Layer_1
 62
7
100
AcDbLine
 10
55.241796
 20
2.863343
 30
0.0
 11
55.151183
 21
2.808450
 31
0.0
  0
LINE
  5
506
100
AcDbEntity
  8
Layer_1
 62
7
100
AcDbLine
 10
55.151183
 20
2.808450
 30
0.0
 11
55.060573
 21
2.765581
 31
0.0
  0
LINE
  5
507
100
AcDbEntity
  8
Layer_1
 62
7
100
AcDbLine
 10
55.060573
 20
2.765581
 30
0.0
 11
55.030358
 21
2.695082
 31
0.0
  0
LINE
  5
508
100
AcDbEntity
  8
Layer_1
 62
7
100
AcDbLine
 10
55.030358
 20
2.695082
 30
0.0
 11
55.077038
 21
2.598957
 31
0.0
  0
LINE
  5
509
100
AcDbEntity
  8
Layer_1
 62
7
100
AcDbLine
 10
55.077038
 20
2.598957
 30
0.0
 11
55.217071
 21
2.567038
 31
0.0
  0
LINE
  5
50a
100
AcDbEntity
  8
Layer_1
 62
7
100
AcDbLine
 10
55.217071
 20
2.567038
 30
0.0
 11
55.660044
 21
2.567038
 31
0.0
  0
LINE
  5
50b
100
AcDbEntity
  8
Layer_1
 62
7
100
AcDbLine
 10
55.660044
 20
2.567038
 30
0.0
 11
56.103023
 21
2.567038
 31
0.0
  0
LINE
  5
50c
100
AcDbEntity
  8
Layer_1
 62
7
100
AcDbLine
 10
56.103023
 20
2.567038
 30
0.0
 11
56.256783
 21
2.599296
 31
0.0
  0
LINE
  5
50d
100
AcDbEntity
  8
Layer_1
 62
7
100
AcDbLine
 10
56.256783
 20
2.599296
 30
0.0
 11
56.308037
 21
2.695364
 31
0.0
  0
LINE
  5
50e
100
AcDbEntity
  8
Layer_1
 62
7
100
AcDbLine
 10
56.308037
 20
2.695364
 30
0.0
 11
56.291556
 21
2.757566
 31
0.0
  0
LINE
  5
50f
100
AcDbEntity
  8
Layer_1
 62
7
100
AcDbLine
 10
56.291556
 20
2.757566
 30
0.0
 11
56.242127
 21
2.790699
 31
0.0
  0
LINE
  5
510
100
AcDbEntity
  8
Layer_1
 62
7
100
AcDbLine
 10
56.242127
 20
2.790699
 30
0.0
 11
56.172571
 21
2.809325
 31
0.0
  0
LINE
  5
511
100
AcDbEntity
  8
Layer_1
 62
7
100
AcDbLine
 10
56.172571
 20
2.809325
 30
0.0
 11
56.103011
 21
2.827952
 31
0.0
  0
LINE
  5
512
100
AcDbEntity
  8
Layer_1
 62
7
100
AcDbLine
 10
56.103011
 20
2.827952
 30
0.0
 11
56.050843
 21
2.881913
 31
0.0
  0
LINE
  5
513
100
AcDbEntity
  8
Layer_1
 62
7
100
AcDbLine
 10
56.050843
 20
2.881913
 30
0.0
 11
56.033430
 21
2.970728
 31
0.0
  0
LINE
  5
514
100
AcDbEntity
  8
Layer_1
 62
7
100
AcDbLine
 10
56.033430
 20
2.970728
 30
0.0
 11
56.033430
 21
3.871356
 31
0.0
  0
LINE
  5
515
100
AcDbEntity
  8
Layer_1
 62
7
100
AcDbLine
 10
56.033430
 20
3.871356
 30
0.0
 11
56.033430
 21
4.771955
 31
0.0
  0
LINE
  5
516
100
AcDbEntity
  8
Layer_1
 62
7
100
AcDbLine
 10
56.033430
 20
4.771955
 30
0.0
 11
56.058124
 21
4.885408
 31
0.0
  0
LINE
  5
517
100
AcDbEntity
  8
Layer_1
 62
7
100
AcDbLine
 10
56.058124
 20
4.885408
 30
0.0
 11
56.132258
 21
4.940329
 31
0.0
  0
LINE
  5
518
100
AcDbEntity
  8
Layer_1
 62
7
100
AcDbLine
 10
56.132258
 20
4.940329
 30
0.0
 11
56.203646
 21
4.981449
 31
0.0
  0
LINE
  5
519
100
AcDbEntity
  8
Layer_1
 62
7
100
AcDbLine
 10
56.203646
 20
4.981449
 30
0.0
 11
56.227409
 21
5.046473
 31
0.0
  0
LINE
  5
51a
100
AcDbEntity
  8
Layer_1
 62
7
100
AcDbLine
 10
56.227409
 20
5.046473
 30
0.0
 11
56.178904
 21
5.139775
 31
0.0
  0
LINE
  5
51b
100
AcDbEntity
  8
Layer_1
 62
7
100
AcDbLine
 10
56.178904
 20
5.139775
 30
0.0
 11
56.033379
 21
5.178242
 31
0.0
  0
LINE
  5
51c
100
AcDbEntity
  8
Layer_1
 62
7
100
AcDbLine
 10
56.033379
 20
5.178242
 30
0.0
 11
55.652636
 21
5.201949
 31
0.0
  0
LINE
  5
51d
100
AcDbEntity
  8
Layer_1
 62
7
100
AcDbLine
 10
55.652636
 20
5.201949
 30
0.0
 11
55.271901
 21
5.225656
 31
0.0
  0
ENDSEC
  0
SECTION
  2
OBJECTS
  0
DICTIONARY
  5
C
330
0
100
AcDbDictionary
  3
ACAD_GROUP
350
D
  3
ACAD_MLINESTYLE
350
17
  0
DICTIONARY
  5
D
330
C
100
AcDbDictionary
  0
DICTIONARY
  5
1A
330
C
100
AcDbDictionary
  0
DICTIONARY
  5
17
330
C
100
AcDbDictionary
  3
STANDARD
350
18
  0
DICTIONARY
  5
19
330
C
100
AcDbDictionary
  0
ENDSEC
  0
EOF
