<?xml version="1.0" encoding="UTF-8" standalone="no"?>
<!-- Created with Inkscape (http://www.inkscape.org/) -->

<svg
   xmlns:dc="http://purl.org/dc/elements/1.1/"
   xmlns:cc="http://creativecommons.org/ns#"
   xmlns:rdf="http://www.w3.org/1999/02/22-rdf-syntax-ns#"
   xmlns:svg="http://www.w3.org/2000/svg"
   xmlns="http://www.w3.org/2000/svg"
   xmlns:sodipodi="http://sodipodi.sourceforge.net/DTD/sodipodi-0.dtd"
   xmlns:inkscape="http://www.inkscape.org/namespaces/inkscape"
   width="744.09448"
   height="1052.3622"
   id="svg2"
   version="1.1"
   inkscape:version="0.48.4 r9939"
   sodipodi:docname="credits.svg">
  <defs
     id="defs4" />
  <sodipodi:namedview
     id="base"
     pagecolor="#ffffff"
     bordercolor="#666666"
     borderopacity="1.0"
     inkscape:pageopacity="0.0"
     inkscape:pageshadow="2"
     inkscape:zoom="2.8"
     inkscape:cx="200.42989"
     inkscape:cy="88.225546"
     inkscape:document-units="mm"
     inkscape:current-layer="layer1"
     showgrid="false"
     inkscape:window-width="1301"
     inkscape:window-height="744"
     inkscape:window-x="65"
     inkscape:window-y="24"
     inkscape:window-maximized="1"
     units="mm"
     showguides="true"
     inkscape:guide-bbox="true" />
  <metadata
     id="metadata7">
    <rdf:RDF>
      <cc:Work
         rdf:about="">
        <dc:format>image/svg+xml</dc:format>
        <dc:type
           rdf:resource="http://purl.org/dc/dcmitype/StillImage" />
        <dc:title />
      </cc:Work>
    </rdf:RDF>
  </metadata>
  <g
     inkscape:label="Layer 1"
     inkscape:groupmode="layer"
     id="layer1"
     transform="translate(0,-2.5390623e-6)">
    <text
       xml:space="preserve"
       style="font-size:11.38840675px;font-style:normal;font-weight:normal;line-height:125%;letter-spacing:0px;word-spacing:0px;fill:#000000;fill-opacity:1;stroke:none;font-family:Sans"
       x="-122.89888"
       y="1048.5143"
       id="text3004"
       sodipodi:linespacing="125%"
       transform="scale(-1,1)"><tspan
         sodipodi:role="line"
         id="tspan3006"
         x="-122.89888"
         y="1048.5143"
         style="font-style:normal;font-variant:normal;font-weight:500;font-stretch:normal;font-family:Ubuntu;-inkscape-font-specification:Ubuntu Medium">1i7.livejournal.com</tspan></text>
    <path
       id="path3899"
       style="fill:#000000;stroke:#000000;stroke-width:0.11810653;stroke-miterlimit:4;stroke-opacity:1"
       d="m 13.680522,1044.2233 c 0,0.5243 0.0699,1.1033 0.18289,1.6155 0.11299,0.5122 0.26909,0.9576 0.44151,1.2148 0.17242,0.2572 0.32852,0.2775 0.44151,0.1024 0.11299,-0.1751 0.18288,-0.5455 0.18288,-1.07 0,-0.5243 -0.0699,-1.1033 -0.18288,-1.6155 -0.11299,-0.5122 -0.26909,-0.9576 -0.44151,-1.2148 -0.17242,-0.2572 -0.32852,-0.2775 -0.44151,-0.1024 -0.11299,0.1751 -0.18289,0.5455 -0.18289,1.07 z m 2.41024,-0.7491 c 0,0.5098 0.0679,1.0897 0.17756,1.6155 0.1097,0.5256 0.26125,0.997 0.42865,1.2894 0.16741,0.2925 0.31895,0.3507 0.42866,0.2083 0.1097,-0.1424 0.17755,-0.4853 0.17755,-0.995 0,-0.5097 -0.0678,-1.0897 -0.17755,-1.6154 -0.10971,-0.5256 -0.26125,-0.997 -0.42866,-1.2895 -0.1674,-0.2924 -0.31895,-0.3506 -0.42865,-0.2082 -0.1097,0.1423 -0.17756,0.4853 -0.17756,0.9949 z m -15.97345032,1.4957 c 0.15955,-1.0614 0.67841,-2.1647 1.69923002,-3.2325 0.10648,-0.412 1.83687,-2.1429 4.38406,-3.0606 2.54718,-0.9178 5.9111603,-1.0225 9.2848103,1.818 0.18492,-0.1613 0.41845,-0.3449 0.64431,-0.474 0.22587,-0.1292 0.44407,-0.2039 0.59832,-0.1473 l 0.31065,-0.932 0.31066,-0.9319 1.24263,0.3106 1.24262,0.3106 -0.31066,0.6214 -0.31065,0.6213 -0.62131,-0.3107 -0.62132,-0.3106 -0.31066,0.6213 -0.31065,0.6213 c 0.56167,0.6104 0.8947,1.8691 1.07612,3.2001 0.18143,1.3311 0.21125,2.7346 0.16651,3.6344 -0.70128,0.3211 -1.08859,0.5873 -1.49525,0.7954 -0.40665,0.2081 -0.83266,0.3581 -1.61132,0.4472 l 0,1.2426 0,1.2426 -0.62131,0 -0.62131,0 0,-1.2426 0,-1.2426 c -0.48484,0.055 -0.99581,0.097 -1.5184,0.1046 -0.5226,0.01 -1.05682,-0.021 -1.58816,-0.1046 -1.1717003,-1.6916 -1.02744,-3.1801 -0.1964,-4.4335 0.83104,-1.2533 2.34885,-2.2715 3.92427,-3.0223 -0.34305,0.028 -0.59355,0.049 -0.86603,0.1308 -0.27247,0.081 -0.56694,0.2224 -0.99791,0.4905 l -0.93197,-0.6213 -0.93196,-0.6213 -1.2426303,0 -1.24262,0 0.31065,0.6213 0.31066,0.6213 0.62131,-0.3106 0.6213103,-0.3107 0.62132,0.6213 0.6213,0.6213 c -1.10647,0.8475 -1.8099603,1.7757 -2.0404203,2.8046 -0.23046,1.0289 0.0121,2.1585 0.7978003,3.4086 l 0,1.5533 0,1.5533 -0.6213103,0 -0.62131,0 0,-1.5533 0,-1.5533 c -0.35369,0.072 -0.82654,0.2048 -1.28519,0.3311 -0.45866,0.1262 -0.90313,0.2457 -1.20006,0.2902 l 0,1.5533 0,1.5532 -0.62131,0 -0.62132,0 0,-1.5532 0,-1.5533 c -0.45332,0.03 -0.86472,0.084 -1.26854,0.1071 -0.40382,0.023 -0.80007,0.016 -1.22309,-0.078 l -0.61812,1.2279 -0.61812,1.228 -0.62131,-0.3107 -0.62131002,-0.3107 0.62131002,-1.2426 0.62131,-1.2426 c -0.24928,-0.1117 -0.48507,-0.1789 -0.69596,-0.2622 -0.21091002,-0.083 -0.39692002,-0.1828 -0.54666002,-0.3591 -0.41641,-0.9 -0.61616,-1.9193 -0.45661,-2.9807 z"
       inkscape:connector-curvature="0" />
  </g>
</svg>
