<?xml version="1.0" encoding="UTF-8" standalone="no"?>
<!-- Created with Inkscape (http://www.inkscape.org/) -->

<svg
   xmlns:dc="http://purl.org/dc/elements/1.1/"
   xmlns:cc="http://creativecommons.org/ns#"
   xmlns:rdf="http://www.w3.org/1999/02/22-rdf-syntax-ns#"
   xmlns:svg="http://www.w3.org/2000/svg"
   xmlns="http://www.w3.org/2000/svg"
   xmlns:sodipodi="http://sodipodi.sourceforge.net/DTD/sodipodi-0.dtd"
   xmlns:inkscape="http://www.inkscape.org/namespaces/inkscape"
   width="744.09448"
   height="1052.3622"
   id="svg2"
   version="1.1"
   inkscape:version="0.48.4 r9939"
   sodipodi:docname="credits-43d.svg">
  <defs
     id="defs4" />
  <sodipodi:namedview
     id="base"
     pagecolor="#ffffff"
     bordercolor="#666666"
     borderopacity="1.0"
     inkscape:pageopacity="0.0"
     inkscape:pageshadow="2"
     inkscape:zoom="7.9195959"
     inkscape:cx="66.643454"
     inkscape:cy="22.488894"
     inkscape:document-units="mm"
     inkscape:current-layer="layer1"
     showgrid="false"
     inkscape:window-width="1301"
     inkscape:window-height="744"
     inkscape:window-x="65"
     inkscape:window-y="24"
     inkscape:window-maximized="1"
     units="mm"
     showguides="true"
     inkscape:guide-bbox="true" />
  <metadata
     id="metadata7">
    <rdf:RDF>
      <cc:Work
         rdf:about="">
        <dc:format>image/svg+xml</dc:format>
        <dc:type
           rdf:resource="http://purl.org/dc/dcmitype/StillImage" />
        <dc:title></dc:title>
      </cc:Work>
    </rdf:RDF>
  </metadata>
  <g
     inkscape:label="Layer 1"
     inkscape:groupmode="layer"
     id="layer1"
     transform="translate(0,-2.5390623e-6)">
    <path
       inkscape:connector-curvature="0"
       id="path3047"
       style="font-size:11.38840675px;font-style:normal;font-variant:normal;font-weight:500;font-stretch:normal;line-height:125%;letter-spacing:0px;word-spacing:0px;fill:#000000;fill-opacity:1;stroke:none;font-family:Ubuntu;-inkscape-font-specification:Ubuntu Medium"
       d="m 121.87392,1042.262 -0.66053,-0.2989 -0.66052,-0.373 -0.63206,-0.447 -0.55234,-0.521 -0.484,0 -0.48401,0 0,3.9461 0,3.9461 0.689,0 0.689,0 0,-3.0237 0,-3.0236 0.34735,0.2363 0.42706,0.2307 0.45838,0.2078 0.4413,0.168 0.21069,-0.5239 0.21068,-0.5239"
       sodipodi:nodetypes="ccccccccccccccccccc" />
    <path
       inkscape:connector-curvature="0"
       id="path3049"
       style="font-size:11.38840675px;font-style:normal;font-variant:normal;font-weight:500;font-stretch:normal;line-height:125%;letter-spacing:0px;word-spacing:0px;fill:#000000;fill-opacity:1;stroke:none;font-family:Ubuntu;-inkscape-font-specification:Ubuntu Medium"
       d="m 114.15988,1048.5143 0.689,0 0.689,0 0,-2.9781 0,-2.9781 -0.689,0 -0.689,0 0,2.9781 0,2.9781 m -0.14805,-7.6986 0.0626,0.3474 0.18791,0.2676 0.27333,0.1708 0.31887,0.057 0.32742,-0.057 0.27617,-0.1708 0.18791,-0.2676 0.0626,-0.3474 -0.0626,-0.3559 -0.18791,-0.2704 -0.27617,-0.1709 -0.32742,-0.057 -0.31887,0.057 -0.27333,0.1708 -0.1879,0.2704 -0.0626,0.3559"
       sodipodi:nodetypes="cccccccccccccccccccccccccc" />
    <path
       inkscape:connector-curvature="0"
       id="path3051"
       style="font-size:11.38840675px;font-style:normal;font-variant:normal;font-weight:500;font-stretch:normal;line-height:125%;letter-spacing:0px;word-spacing:0px;fill:#000000;fill-opacity:1;stroke:none;font-family:Ubuntu;-inkscape-font-specification:Ubuntu Medium"
       d="m 111.5361,1048.5143 -0.11105,-0.8883 -0.19644,-0.9339 -0.26478,-0.9424 -0.31603,-0.9139 -0.36727,-0.8797 -0.39575,-0.8171 -0.41852,-0.7317 -0.41284,-0.6008 1.81646,0 1.81645,0 0,-0.5922 0,-0.5922 -2.63642,0 -2.63642,0 0,0.5239 0,0.5238 0.39291,0.4983 0.42706,0.652 0.43276,0.7772 0.40998,0.8741 0.37297,0.9452 0.32172,1.0136 0.23062,1.0449 0.12242,1.0392 0.70609,0 0.70608,0"
       sodipodi:nodetypes="ccccccccccccccccccccccccccc" />
    <path
       inkscape:connector-curvature="0"
       id="path3053"
       style="font-size:11.38840675px;font-style:normal;font-variant:normal;font-weight:500;font-stretch:normal;line-height:125%;letter-spacing:0px;word-spacing:0px;fill:#000000;fill-opacity:1;stroke:none;font-family:Ubuntu;-inkscape-font-specification:Ubuntu Medium"
       d="m 104.39147,1047.7626 0.0683,0.3616 0.20499,0.2876 0.29041,0.1879 0.34735,0.063 0.35588,-0.062 0.29325,-0.1881 0.19646,-0.2875 0.0655,-0.3617 -0.0655,-0.3616 -0.19646,-0.2875 -0.29325,-0.1964 -0.35588,-0.065 -0.34735,0.065 -0.29041,0.1965 -0.20498,0.2875 -0.0683,0.3616"
       sodipodi:nodetypes="ccccccccccccccccc" />
    <path
       inkscape:connector-curvature="0"
       id="path3055"
       style="font-size:11.38840675px;font-style:normal;font-variant:normal;font-weight:500;font-stretch:normal;line-height:125%;letter-spacing:0px;word-spacing:0px;fill:#000000;fill-opacity:1;stroke:none;font-family:Ubuntu;-inkscape-font-specification:Ubuntu Medium"
       d="m 100.84256,1048.6282 0.56373,-0.041 0.46123,-0.096 0.35873,-0.1511 0.27902,-0.2019 0.20499,-0.2648 0.13666,-0.316 0.0683,-0.3758 0.0228,-0.4214 0,-3.4279 0,-3.428 -0.689,-0.1138 -0.689,-0.1139 0,3.4108 0,3.4108 -0.009,0.2307 -0.0256,0.1907 -0.0598,0.1595 -0.0883,0.1366 -0.11957,0.1025 -0.15376,0.08 -0.20498,0.051 -0.25055,0.04 0.0968,0.5695 0.0968,0.5694"
       sodipodi:nodetypes="ccccccccccccccccccccccccc" />
    <path
       inkscape:connector-curvature="0"
       id="path3057"
       style="font-size:11.38840675px;font-style:normal;font-variant:normal;font-weight:500;font-stretch:normal;line-height:125%;letter-spacing:0px;word-spacing:0px;fill:#000000;fill-opacity:1;stroke:none;font-family:Ubuntu;-inkscape-font-specification:Ubuntu Medium"
       d="m 98.144931,1048.5143 0.688999,0 0.688999,0 0,-2.9781 0,-2.9781 -0.688999,0 -0.688999,0 0,2.9781 0,2.9781 m -0.148049,-7.6986 0.06264,0.3474 0.187906,0.2676 0.273323,0.1708 0.318874,0.057 0.327418,-0.057 0.276168,-0.1708 0.187909,-0.2676 0.06264,-0.3474 -0.06263,-0.3559 -0.187911,-0.2704 -0.276168,-0.1709 -0.327418,-0.057 -0.318874,0.057 -0.273323,0.1708 -0.187908,0.2704 -0.06264,0.3559"
       sodipodi:nodetypes="cccccccccccccccccccccccccc" />
    <path
       inkscape:connector-curvature="0"
       id="path3059"
       style="font-size:11.38840675px;font-style:normal;font-variant:normal;font-weight:500;font-stretch:normal;line-height:125%;letter-spacing:0px;word-spacing:0px;fill:#000000;fill-opacity:1;stroke:none;font-family:Ubuntu;-inkscape-font-specification:Ubuntu Medium"
       d="m 94.872011,1048.5143 0.577963,-1.2584 0.595043,-1.4293 0.566574,-1.5801 0.515325,-1.6884 -0.734552,0 -0.734552,0 -0.133812,0.521 -0.150899,0.5609 -0.173671,0.5723 -0.179369,0.578 -0.193601,0.5637 -0.193605,0.5523 -0.196448,0.5097 -0.17937,0.4584 -0.176518,-0.4584 -0.187911,-0.5097 -0.190753,-0.5523 -0.185064,-0.5637 -0.187906,-0.578 -0.176523,-0.5723 -0.159434,-0.5609 -0.136665,-0.521 -0.711775,0 -0.711775,0 0.518176,1.6884 0.575111,1.5801 0.586506,1.4293 0.575111,1.2584 0.592197,0 0.592197,0"
       sodipodi:nodetypes="ccccccccccccccccccccccccccccccc" />
    <path
       inkscape:connector-curvature="0"
       id="path3061"
       style="font-size:11.38840675px;font-style:normal;font-variant:normal;font-weight:500;font-stretch:normal;line-height:125%;letter-spacing:0px;word-spacing:0px;fill:#000000;fill-opacity:1;stroke:none;font-family:Ubuntu;-inkscape-font-specification:Ubuntu Medium"
       d="m 90.878417,1045.5647 -0.05694,-0.7374 -0.170827,-0.6406 -0.276168,-0.541 -0.350195,-0.4384 -0.415675,-0.3473 -0.47262,-0.2449 -0.506783,-0.1538 -0.518174,-0.051 -1.093283,0.1907 -0.819969,0.5723 -0.521015,0.9509 -0.173678,1.3268 0.0029,0.1224 0.0085,0.1395 0.0029,0.131 0.0085,0.1196 1.9645,0 1.9645,0 -0.153742,0.6377 -0.347348,0.4783 -0.555183,0.2904 -0.754484,0.097 -0.47831,-0.023 -0.432762,-0.068 -0.375814,-0.094 -0.284714,-0.1 -0.09111,0.5638 -0.09111,0.5637 0.136665,0.06 0.18221,0.065 0.210689,0.054 0.244847,0.048 0.261937,0.051 0.284707,0.04 0.298948,0.026 0.304637,0.01 0.734555,-0.057 0.632054,-0.1707 0.529562,-0.2819 0.427064,-0.3673 0.327418,-0.4555 0.230614,-0.5239 0.136661,-0.595 0.04555,-0.6463 m -3.997331,-0.615 0.01993,-0.2761 0.05979,-0.2591 0.09965,-0.242 0.139504,-0.2022 0.167981,-0.1708 0.207837,-0.1253 0.239159,-0.085 0.284708,-0.029 0.298947,0.031 0.259084,0.094 0.222076,0.1338 0.187907,0.1737 0.142357,0.2078 0.108188,0.2363 0.07687,0.2534 0.0484,0.2591 -1.281196,0 -1.281195,0"
       sodipodi:nodetypes="cccccccccccccccccccccccccccccccccccccccccccccccccccccccccccccccc" />
    <path
       inkscape:connector-curvature="0"
       id="path3063"
       style="font-size:11.38840675px;font-style:normal;font-variant:normal;font-weight:500;font-stretch:normal;line-height:125%;letter-spacing:0px;word-spacing:0px;fill:#000000;fill-opacity:1;stroke:none;font-family:Ubuntu;-inkscape-font-specification:Ubuntu Medium"
       d="m 84.816227,1050.6325 0.17652,-0.01 0.233463,-0.026 0.256238,-0.037 0.222075,-0.066 -0.09111,-0.5638 -0.09111,-0.5637 -0.276169,0.06 -0.327416,0.02 -0.407136,-0.071 -0.26478,-0.2135 -0.145202,-0.3445 -0.0484,-0.4868 0,-2.887 0,-2.887 -0.688999,0 -0.688999,0 0,2.8984 0,2.8983 0.13951,1.0108 0.418522,0.7089 0.66907,0.4185 0.913919,0.1395 m -2.28907,-9.8168 0.06264,0.3474 0.187906,0.2676 0.273323,0.1708 0.318874,0.057 0.327418,-0.057 0.276168,-0.1708 0.187909,-0.2676 0.06264,-0.3474 -0.06263,-0.3559 -0.187911,-0.2704 -0.276168,-0.1709 -0.327418,-0.057 -0.318874,0.057 -0.273323,0.1708 -0.187908,0.2704 -0.06264,0.3559"
       sodipodi:nodetypes="cccccccccccccccccccccccccccccccccccccccc" />
    <path
       inkscape:connector-curvature="0"
       id="path3065"
       style="font-size:11.38840675px;font-style:normal;font-variant:normal;font-weight:500;font-stretch:normal;line-height:125%;letter-spacing:0px;word-spacing:0px;fill:#000000;fill-opacity:1;stroke:none;font-family:Ubuntu;-inkscape-font-specification:Ubuntu Medium"
       d="m 75.530226,1045.5305 0.05125,0.6748 0.153738,0.6121 0.247702,0.5381 0.333106,0.4527 0.415681,0.3644 0.495392,0.2734 0.552341,0.1708 0.609276,0.057 0.609282,-0.057 0.552336,-0.1707 0.486856,-0.2734 0.412828,-0.3644 0.335958,-0.4527 0.256239,-0.5381 0.153744,-0.6121 0.05125,-0.6748 -0.05125,-0.6719 -0.153743,-0.6036 -0.256238,-0.5381 -0.335959,-0.4527 -0.42137,-0.3616 -0.489703,-0.2647 -0.549488,-0.1709 -0.600741,-0.057 -0.600735,0.057 -0.549494,0.1708 -0.495392,0.2647 -0.41568,0.3616 -0.333107,0.4527 -0.247702,0.5381 -0.16228,0.6036 -0.0541,0.6719 m 1.412163,0 0.0968,-0.7943 0.2904,-0.6065 0.452693,-0.3928 0.606429,-0.131 0.609282,0.131 0.461229,0.3928 0.281864,0.6065 0.09395,0.7943 -0.09395,0.8057 -0.281863,0.6179 -0.461229,0.3929 -0.609282,0.1309 -0.606429,-0.1309 -0.452693,-0.3929 -0.2904,-0.6179 -0.0968,-0.8057"
       sodipodi:nodetypes="cccccccccccccccccccccccccccccccccccccccccccccccccc" />
    <path
       inkscape:connector-curvature="0"
       id="path3067"
       style="font-size:11.38840675px;font-style:normal;font-variant:normal;font-weight:500;font-stretch:normal;line-height:125%;letter-spacing:0px;word-spacing:0px;fill:#000000;fill-opacity:1;stroke:none;font-family:Ubuntu;-inkscape-font-specification:Ubuntu Medium"
       d="m 69.224962,1048.3321 0.458387,0.1024 0.577958,0.1026 0.669071,0.085 0.731703,0.028 0.66053,-0.051 0.546641,-0.1538 0.432761,-0.2449 0.34165,-0.3246 0.244852,-0.3985 0.165131,-0.467 0.09396,-0.5352 0.03132,-0.5809 0,-1.6684 0,-1.6684 -0.688999,0 -0.688999,0 0,1.5603 0,1.5602 -0.06833,0.82 -0.204995,0.5466 -0.387204,0.3075 -0.592199,0.1025 -0.256237,-0.01 -0.26763,-0.016 -0.247695,-0.025 -0.173676,-0.032 0,-2.4086 0,-2.4087 -0.688998,0 -0.688999,0 0,2.887 0,2.887"
       sodipodi:nodetypes="ccccccccccccccccccccccccccccccccc" />
    <path
       inkscape:connector-curvature="0"
       id="path3069"
       style="font-size:11.38840675px;font-style:normal;font-variant:normal;font-weight:500;font-stretch:normal;line-height:125%;letter-spacing:0px;word-spacing:0px;fill:#000000;fill-opacity:1;stroke:none;font-family:Ubuntu;-inkscape-font-specification:Ubuntu Medium"
       d="m 64.066193,1043.7995 0.204994,-0.057 0.273319,-0.057 0.321725,-0.051 0.372968,-0.017 0.236311,0.011 0.25339,0.035 0.213535,0.043 0.139506,0.037 0,2.3859 0,2.3859 0.688998,0 0.688999,0 0,-2.8357 0,-2.8357 -0.446994,-0.1425 -0.543797,-0.1309 -0.634902,-0.1024 -0.697542,-0.034 -0.148045,0.01 -0.17083,0.016 -0.182212,0.018 -0.182217,0.028 -0.179365,0.028 -0.173676,0.04 -0.15374,0.034 -0.119582,0.034 0.119578,0.5808 0.119579,0.5808"
       sodipodi:nodetypes="ccccccccccccccccccccccccccccc" />
    <path
       inkscape:connector-curvature="0"
       id="path3071"
       style="font-size:11.38840675px;font-style:normal;font-variant:normal;font-weight:500;font-stretch:normal;line-height:125%;letter-spacing:0px;word-spacing:0px;fill:#000000;fill-opacity:1;stroke:none;font-family:Ubuntu;-inkscape-font-specification:Ubuntu Medium"
       d="m 62.877884,1042.7517 -0.458382,-0.111 -0.577963,-0.1053 -0.671914,-0.077 -0.740249,-0.026 -0.669065,0.051 -0.549494,0.1539 -0.43845,0.2362 -0.335962,0.3218 -0.25054,0.3929 -0.159442,0.4726 -0.09395,0.5267 -0.03132,0.578 0,1.6741 0,1.6741 0.688999,0 0.688998,0 0,-1.5659 0,-1.5659 0.01709,-0.4413 0.05124,-0.3673 0.07972,-0.3075 0.125267,-0.2392 0.165135,-0.185 0.222071,-0.1224 0.26763,-0.077 0.324567,-0.026 0.26763,0.01 0.279014,0.026 0.247699,0.032 0.173672,0.025 0,2.403 0,2.4029 0.688999,0 0.688998,0 0,-2.8813 0,-2.8813"
       sodipodi:nodetypes="ccccccccccccccccccccccccccccccccccccc" />
    <path
       inkscape:connector-curvature="0"
       id="path3073"
       style="font-size:11.38840675px;font-style:normal;font-variant:normal;font-weight:500;font-stretch:normal;line-height:125%;letter-spacing:0px;word-spacing:0px;fill:#000000;fill-opacity:1;stroke:none;font-family:Ubuntu;-inkscape-font-specification:Ubuntu Medium"
       d="m 54.10952,1047.5463 -0.560876,-0.017 -0.407139,-0.051 0,-0.763 0,-0.763 0.139512,-0.034 0.190752,-0.034 0.227771,-0.026 0.250542,-0.01 0.230617,0.01 0.236308,0.026 0.219229,0.049 0.202142,0.077 0.165133,0.1112 0.130965,0.1508 0.08541,0.1822 0.02847,0.2277 -0.07687,0.4157 -0.230617,0.2677 -0.36158,0.1366 -0.469773,0.046 m 0.113884,-5.1362 -0.629207,0.043 -0.521022,0.1281 -0.418521,0.205 -0.321726,0.2733 -0.242,0.3417 -0.156594,0.41 -0.09395,0.4555 -0.03132,0.5011 0,1.8051 0,1.805 0.401444,0.074 0.56657,0.085 0.68046,0.077 0.765868,0.026 0.51248,-0.026 0.466923,-0.077 0.412831,-0.1337 0.350192,-0.1966 0.276169,-0.2619 0.213533,-0.3303 0.128119,-0.4071 0.04271,-0.4926 -0.0484,-0.4726 -0.145204,-0.3929 -0.239156,-0.3189 -0.307488,-0.2505 -0.367275,-0.1937 -0.418525,-0.1252 -0.464075,-0.077 -0.481163,-0.026 -0.23346,0.01 -0.244853,0.026 -0.259083,0.034 -0.276172,0.057 0,-0.1139 0,-0.1139 0.01424,-0.2334 0.0427,-0.2221 0.07972,-0.2022 0.125272,-0.1736 0.162287,-0.1509 0.21353,-0.1111 0.259089,-0.068 0.32172,-0.023 0.458385,0.017 0.418522,0.051 0.361583,0.074 0.287556,0.085 0.08541,-0.558 0.08541,-0.5581 -0.321722,-0.091 -0.441301,-0.091 -0.518171,-0.068 -0.552339,-0.023"
       sodipodi:nodetypes="cccccccccccccccccccccccccccccccccccccccccccccccccccccccccccccccccccccccccccc" />
    <path
       inkscape:connector-curvature="0"
       id="path3075"
       style="font-size:11.38840675px;font-style:normal;font-variant:normal;font-weight:500;font-stretch:normal;line-height:125%;letter-spacing:0px;word-spacing:0px;fill:#000000;fill-opacity:1;stroke:none;font-family:Ubuntu;-inkscape-font-specification:Ubuntu Medium"
       d="m 48.059962,1048.6282 0.563728,-0.041 0.461229,-0.096 0.358736,-0.1511 0.279015,-0.2019 0.204992,-0.2648 0.13666,-0.316 0.06833,-0.3758 0.02278,-0.4214 0,-3.4279 0,-3.428 -0.688998,-0.1138 -0.688999,-0.1139 0,3.4108 0,3.4108 -0.0085,0.2307 -0.02562,0.1907 -0.05979,0.1595 -0.08826,0.1366 -0.119577,0.1025 -0.153744,0.08 -0.204989,0.051 -0.250548,0.04 0.0968,0.5695 0.0968,0.5694"
       sodipodi:nodetypes="ccccccccccccccccccccccccc" />
    <path
       inkscape:connector-curvature="0"
       id="path3077"
       style="font-size:11.38840675px;font-style:normal;font-variant:normal;font-weight:500;font-stretch:normal;line-height:125%;letter-spacing:0px;word-spacing:0px;fill:#000000;fill-opacity:1;stroke:none;font-family:Ubuntu;-inkscape-font-specification:Ubuntu Medium"
       d="m 45.202901,1047.7626 0.06833,0.3616 0.20499,0.2876 0.290405,0.1879 0.347345,0.063 0.355889,-0.062 0.293251,-0.1881 0.19645,-0.2875 0.06548,-0.3617 -0.06548,-0.3616 -0.19645,-0.2875 -0.293251,-0.1964 -0.355889,-0.065 -0.347345,0.065 -0.290405,0.1965 -0.20499,0.2875 -0.06833,0.3616"
       sodipodi:nodetypes="ccccccccccccccccc" />
    <path
       inkscape:connector-curvature="0"
       id="path3079"
       style="font-size:11.38840675px;font-style:normal;font-variant:normal;font-weight:500;font-stretch:normal;line-height:125%;letter-spacing:0px;word-spacing:0px;fill:#000000;fill-opacity:1;stroke:none;font-family:Ubuntu;-inkscape-font-specification:Ubuntu Medium"
       d="m 44.056941,1045.5419 -0.05125,-0.6377 -0.153744,-0.5922 -0.247697,-0.541 -0.333111,-0.4612 -0.427064,-0.3758 -0.506786,-0.2847 -0.580806,-0.1794 -0.649142,-0.06 -0.819962,0.077 -0.774415,0.2306 0.14805,0.5637 0.148049,0.5637 0.256243,-0.094 0.290401,-0.077 0.30749,-0.051 0.33026,-0.017 0.711778,0.1281 0.51817,0.3844 0.31603,0.6064 0.105341,0.8171 -0.09965,0.7972 -0.298946,0.615 -0.535253,0.3843 -0.808579,0.1281 -0.35019,-0.017 -0.344503,-0.051 -0.318872,-0.077 -0.273325,-0.094 -0.0968,0.5694 -0.0968,0.5694 0.287561,0.1082 0.407132,0.097 0.464081,0.068 0.481157,0.023 0.714624,-0.057 0.617819,-0.1707 0.51248,-0.2819 0.42137,-0.3673 0.318876,-0.4584 0.227767,-0.5324 0.136661,-0.6035 0.04555,-0.6492"
       sodipodi:nodetypes="ccccccccccccccccccccccccccccccccccccccccccc" />
    <path
       inkscape:connector-curvature="0"
       id="path3081"
       style="font-size:11.38840675px;font-style:normal;font-variant:normal;font-weight:500;font-stretch:normal;line-height:125%;letter-spacing:0px;word-spacing:0px;fill:#000000;fill-opacity:1;stroke:none;font-family:Ubuntu;-inkscape-font-specification:Ubuntu Medium"
       d="m 33.090617,1045.5305 0.05125,0.6748 0.153737,0.6121 0.247703,0.5381 0.333106,0.4527 0.41568,0.3644 0.495392,0.2734 0.552341,0.1708 0.609277,0.057 0.609282,-0.057 0.552335,-0.1707 0.486856,-0.2734 0.412828,-0.3644 0.335958,-0.4527 0.25624,-0.5381 0.153743,-0.6121 0.05125,-0.6748 -0.05125,-0.6719 -0.153743,-0.6036 -0.256239,-0.5381 -0.335959,-0.4527 -0.421369,-0.3616 -0.489703,-0.2647 -0.549489,-0.1709 -0.60074,-0.057 -0.600736,0.057 -0.549493,0.1708 -0.495392,0.2647 -0.415681,0.3616 -0.333107,0.4527 -0.247702,0.5381 -0.16228,0.6036 -0.0541,0.6719 m 1.412162,0 0.09681,-0.7943 0.290401,-0.6065 0.452692,-0.3928 0.60643,-0.131 0.609281,0.131 0.461229,0.3928 0.281864,0.6065 0.09395,0.7943 -0.09395,0.8057 -0.281863,0.6179 -0.461229,0.3929 -0.609281,0.1309 -0.60643,-0.1309 -0.452692,-0.3929 -0.290401,-0.6179 -0.09681,-0.8057"
       sodipodi:nodetypes="cccccccccccccccccccccccccccccccccccccccccccccccccc" />
    <path
       inkscape:connector-curvature="0"
       id="path3083"
       style="font-size:11.38840675px;font-style:normal;font-variant:normal;font-weight:500;font-stretch:normal;line-height:125%;letter-spacing:0px;word-spacing:0px;fill:#000000;fill-opacity:1;stroke:none;font-family:Ubuntu;-inkscape-font-specification:Ubuntu Medium"
       d="m 28.277237,1045.3825 0.05979,-0.8029 0.179366,-0.541 0.330266,-0.316 0.535253,-0.1053 0.239158,0.01 0.261932,0.026 0.239158,0.032 0.170824,0.025 0,2.403 0,2.4029 0.688998,0 0.688999,0 0,-2.8813 0,-2.8813 -0.458382,-0.111 -0.577963,-0.1053 -0.66622,-0.077 -0.700388,-0.026 -0.558029,0.04 -0.444151,0.1196 -0.364426,0.1851 -0.296102,0.2363 -0.142351,-0.094 -0.176524,-0.1 -0.204987,-0.097 -0.227773,-0.086 -0.244846,-0.083 -0.256244,-0.065 -0.273317,-0.043 -0.273326,-0.014 -0.632051,0.051 -0.50679,0.1539 -0.404282,0.2362 -0.301799,0.3218 -0.21922,0.3929 -0.133821,0.4726 -0.07686,0.5267 -0.02563,0.578 0,1.6741 0,1.6741 0.688998,0 0.688999,0 0,-1.5659 0,-1.5659 0.05695,-0.8029 0.17082,-0.541 0.333116,-0.316 0.543791,-0.1053 0.321728,0.029 0.304635,0.085 0.259091,0.1023 0.185057,0.1026 -0.07687,0.2933 -0.04841,0.3103 -0.02562,0.3303 -0.0085,0.353 0,1.6456 0,1.6457 0.688998,0 0.688999,0 0,-1.5659 0,-1.5659"
       sodipodi:nodetypes="ccccccccccccccccccccccccccccccccccccccccccccccccccccccccccccccc" />
    <path
       id="path3899"
       style="fill:#000000;stroke:#000000;stroke-width:0.11810653;stroke-miterlimit:4;stroke-opacity:1"
       d="m 13.680522,1044.2233 0.01269,0.4016 0.03638,0.4107 0.05757,0.4084 0.07625,0.3948 0.09241,0.3697 0.106062,0.3333 0.117217,0.2855 0.125824,0.2263 0.125836,0.1491 0.117205,0.064 0.106039,-0.017 0.09243,-0.094 0.07609,-0.1672 0.05772,-0.2368 0.03638,-0.3021 0.01269,-0.3639 -0.01268,-0.4016 -0.03639,-0.4107 -0.05757,-0.4084 -0.07624,-0.3948 -0.09241,-0.3697 -0.106064,-0.3333 -0.117205,-0.2855 -0.125836,-0.2263 -0.125836,-0.1491 -0.117205,-0.064 -0.106039,0.017 -0.09243,0.094 -0.07626,0.1675 -0.05755,0.2365 -0.03638,0.3022 z m 2.41024,-0.7491 0.01232,0.3936 0.03534,0.4082 0.05589,0.4112 0.07401,0.4025 0.08971,0.3821 0.102972,0.3501 0.113791,0.3063 0.122172,0.2509 0.122178,0.176 0.113789,0.091 0.102929,0.01 0.08976,-0.069 0.07402,-0.1438 0.05589,-0.216 0.03532,-0.2847 0.01233,-0.3505 -0.01231,-0.3935 -0.03531,-0.4082 -0.05589,-0.4112 -0.07404,-0.4025 -0.08972,-0.3821 -0.102975,-0.3501 -0.11378,-0.3063 -0.122187,-0.251 -0.122172,-0.1759 -0.113791,-0.091 -0.102931,-0.01 -0.08976,0.069 -0.07402,0.1438 -0.0559,0.2159 -0.03533,0.2848 z m -15.97345032,1.4957 0.18926203,-0.8027 0.33737672,-0.8111 0.49888007,-0.8124 0.6737112,-0.8063 0.371732,-0.523 0.9050317,-0.8177 1.3626467,-0.9125 1.7446496,-0.8074 2.0509237,-0.5026 2.2815556,0 2.436523,0.7069 2.515808,1.6115 0.146925,-0.1241 0.159878,-0.125 0.167517,-0.1191 0.16999,-0.1058 0.167085,-0.086 0.158932,-0.058 0.145533,-0.022 0.12677,0.022 0.07766,-0.233 0.07766,-0.233 0.07766,-0.233 0.07766,-0.233 0.07766,-0.233 0.07766,-0.233 0.07766,-0.2329 0.07766,-0.233 0.310657,0.078 0.310658,0.078 0.310658,0.078 0.310657,0.078 0.310655,0.078 0.310655,0.078 0.310655,0.078 0.310655,0.078 -0.07766,0.1554 -0.07766,0.1553 -0.07766,0.1554 -0.07766,0.1553 -0.07766,0.1553 -0.07766,0.1553 -0.07766,0.1554 -0.07766,0.1553 -0.155327,-0.078 -0.155328,-0.078 -0.155328,-0.078 -0.155327,-0.078 -0.15533,-0.078 -0.15533,-0.078 -0.15533,-0.078 -0.15533,-0.078 -0.07766,0.1553 -0.07766,0.1553 -0.07767,0.1554 -0.07766,0.1553 -0.07766,0.1554 -0.07766,0.1553 -0.07766,0.1553 -0.07766,0.1553 0.379586,0.5704 0.301068,0.7594 0.229781,0.8946 0.165685,0.9757 0.108848,1.0029 0.05922,0.976 0.01681,0.8952 -0.01841,0.7603 -0.472299,0.2305 -0.385809,0.2096 -0.330567,0.1884 -0.306575,0.1669 -0.313826,0.1451 -0.352331,0.1231 -0.422123,0.1008 -0.52304,0.078 0,0.3107 0,0.3106 0,0.3107 0,0.3106 0,0.3107 0,0.3106 0,0.3107 0,0.3106 -0.155327,0 -0.155328,0 -0.155327,0 -0.155328,0 -0.155327,0 -0.155328,0 -0.155327,0 -0.155328,0 0,-0.3106 0,-0.3107 0,-0.3106 0,-0.3107 0,-0.3106 0,-0.3107 0,-0.3106 0,-0.3107 -0.368303,0.039 -0.376741,0.031 -0.383819,0.023 -0.389537,0.011 -0.393902,-0 -0.396901,-0.015 -0.398546,-0.034 -0.398811,-0.053 -0.641864,-1.2301 -0.207364,-1.151 0.16815,-1.0688 0.484678,-0.9836 0.742218,-0.8954 0.940774,-0.8042 1.080345,-0.71 1.160933,-0.6127 -0.241724,0.021 -0.217755,0.024 -0.204523,0.035 -0.202028,0.051 -0.210267,0.073 -0.229251,0.1022 -0.258955,0.1371 -0.299437,0.1783 -0.232993,-0.1553 -0.232992,-0.1554 -0.232993,-0.1553 -0.232992,-0.1553 -0.23299,-0.1553 -0.23299,-0.1554 -0.23299,-0.1553 -0.23299,-0.1553 -0.310657,0 -0.310658,0 -0.310658,0 -0.3106573,0 -0.310655,0 -0.310655,0 -0.310655,0 -0.310655,0 0.077662,0.1553 0.077663,0.1553 0.077663,0.1554 0.077662,0.1553 0.077665,0.1553 0.077665,0.1553 0.077665,0.1554 0.077665,0.1553 0.1553275,-0.078 0.1553275,-0.078 0.1553275,-0.078 0.1553275,-0.078 0.1553273,-0.078 0.155328,-0.078 0.155328,-0.078 0.155327,-0.078 0.15533,0.1553 0.15533,0.1553 0.15533,0.1554 0.15533,0.1553 0.155325,0.1553 0.155325,0.1553 0.155325,0.1554 0.155325,0.1553 -0.753199,0.6511 -0.595515,0.6832 -0.4312628,0.7172 -0.2604435,0.7531 -0.08305,0.7909 0.1008901,0.8304 0.2914363,0.872 0.488524,0.9153 0,0.3883 0,0.3883 0,0.3884 0,0.3883 0,0.3883 0,0.3883 0,0.3884 0,0.3883 -0.155327,0 -0.155328,0 -0.155328,0 -0.1553273,0 -0.1553275,0 -0.1553275,0 -0.1553275,0 -0.1553275,0 0,-0.3883 0,-0.3884 0,-0.3883 0,-0.3883 0,-0.3883 0,-0.3884 0,-0.3883 0,-0.3883 -0.2855262,0.064 -0.3177088,0.081 -0.3373702,0.091 -0.3445848,0.095 -0.3392508,0.092 -0.321428,0.083 -0.291086,0.068 -0.2482952,0.046 0,0.3883 0,0.3883 0,0.3884 0,0.3883 0,0.3883 0,0.3883 0,0.3883 0,0.3883 -0.1553275,0 -0.1553275,0 -0.1553275,0 -0.1553275,0 -0.15533,0 -0.15533,0 -0.15533,0 -0.15533,0 0,-0.3883 0,-0.3883 0,-0.3883 0,-0.3883 0,-0.3883 0,-0.3884 0,-0.3883 0,-0.3883 -0.3326666,0.026 -0.3201659,0.03 -0.3108847,0.028 -0.3048228,0.023 -0.3019822,0.01 -0.3023628,-0.01 -0.3058669,-0.03 -0.3128781,-0.053 -0.15453,0.307 -0.15453,0.3069 -0.15453,0.307 -0.15453,0.307 -0.15453,0.307 -0.15453,0.307 -0.15453,0.307 -0.15453,0.307 -0.1553275,-0.078 -0.1553275,-0.078 -0.1553275,-0.078 -0.1553275,-0.078 -0.1553275,-0.078 -0.15532751,-0.078 -0.1553275,-0.078 -0.15532751,-0.078 0.15532751,-0.3106 0.1553275,-0.3107 0.15532751,-0.3106 0.1553275,-0.3107 0.1553275,-0.3106 0.1553275,-0.3107 0.1553275,-0.3106 0.1553275,-0.3107 -0.1842523,-0.076 -0.178124,-0.065 -0.1709022,-0.06 -0.1626815,-0.06 -0.1533361,-0.066 -0.14293267,-0.078 -0.13136227,-0.096 -0.11902898,-0.1188 -0.269455,-0.6961 -0.174835,-0.7337 -0.0668425,-0.7639 0.0545225,-0.787 0,1e-4 0,10e-5 2e-5,5e-4 z"
       inkscape:connector-curvature="0"
       sodipodi:nodetypes="ccccccccccccccccccccccccccccccccccccccccccccccccccccccccccccccccccccccccccccccccccccccccccccccccccccccccccccccccccccccccccccccccccccccccccccccccccccccccccccccccccccccccccccccccccccccccccccccccccccccccccccccccccccccccccccccccccccccccccccccccccccccccccccccccccccccccccccccccccccccccccccccccccccccccccccccccccccccccccccccccccccccccccccccccccccccc" />
  </g>
</svg>
