<?xml version="1.0" encoding="UTF-8" standalone="no"?>
<!-- Created with Inkscape (http://www.inkscape.org/) -->

<svg
   xmlns:dc="http://purl.org/dc/elements/1.1/"
   xmlns:cc="http://creativecommons.org/ns#"
   xmlns:rdf="http://www.w3.org/1999/02/22-rdf-syntax-ns#"
   xmlns:svg="http://www.w3.org/2000/svg"
   xmlns="http://www.w3.org/2000/svg"
   xmlns:sodipodi="http://sodipodi.sourceforge.net/DTD/sodipodi-0.dtd"
   xmlns:inkscape="http://www.inkscape.org/namespaces/inkscape"
   width="744.09448"
   height="1052.3622"
   id="svg2"
   version="1.1"
   inkscape:version="0.48.4 r9939"
   sodipodi:docname="credits.svg">
  <defs
     id="defs4" />
  <sodipodi:namedview
     id="base"
     pagecolor="#ffffff"
     bordercolor="#666666"
     borderopacity="1.0"
     inkscape:pageopacity="0.0"
     inkscape:pageshadow="2"
     inkscape:zoom="3.959798"
     inkscape:cx="121.68355"
     inkscape:cy="54.192251"
     inkscape:document-units="mm"
     inkscape:current-layer="layer1"
     showgrid="false"
     inkscape:window-width="1301"
     inkscape:window-height="744"
     inkscape:window-x="65"
     inkscape:window-y="24"
     inkscape:window-maximized="1"
     units="mm"
     showguides="true"
     inkscape:guide-bbox="true"
     inkscape:snap-bbox="true">
    <sodipodi:guide
       orientation="0,1"
       position="67.5,89.285714"
       id="guide2989" />
    <sodipodi:guide
       orientation="1,0"
       position="0,10.357143"
       id="guide3009" />
  </sodipodi:namedview>
  <metadata
     id="metadata7">
    <rdf:RDF>
      <cc:Work
         rdf:about="">
        <dc:format>image/svg+xml</dc:format>
        <dc:type
           rdf:resource="http://purl.org/dc/dcmitype/StillImage" />
        <dc:title />
      </cc:Work>
    </rdf:RDF>
  </metadata>
  <g
     inkscape:label="Layer 1"
     inkscape:groupmode="layer"
     id="layer1"
     transform="translate(0,-2.5390623e-6)">
    <text
       xml:space="preserve"
       style="font-size:11.38840675px;font-style:normal;font-weight:normal;line-height:125%;letter-spacing:0px;word-spacing:0px;fill:#000000;fill-opacity:1;stroke:none;font-family:Sans"
       x="-122.89888"
       y="1048.5143"
       id="text3004"
       sodipodi:linespacing="125%"
       transform="scale(-1,1)"><tspan
         sodipodi:role="line"
         id="tspan3006"
         x="-122.89888"
         y="1048.5143"
         style="font-style:normal;font-variant:normal;font-weight:500;font-stretch:normal;font-family:Ubuntu;-inkscape-font-specification:Ubuntu Medium;letter-spacing:0px">1i7.livejournal.com</tspan></text>
    <path
       id="path3899"
       style="fill:#000000;stroke:#000000;stroke-width:0.11810653;stroke-miterlimit:4;stroke-opacity:1"
       d="m 13.680522,1044.2233 c 0,0.5243 0.0699,1.1033 0.18289,1.6155 0.11299,0.5122 0.26909,0.9576 0.44151,1.2148 0.17242,0.2572 0.32852,0.2775 0.44151,0.1024 0.11299,-0.1751 0.18288,-0.5455 0.18288,-1.07 0,-0.5243 -0.0699,-1.1033 -0.18288,-1.6155 -0.11299,-0.5122 -0.26909,-0.9576 -0.44151,-1.2148 -0.17242,-0.2572 -0.32852,-0.2775 -0.44151,-0.1024 -0.11299,0.1751 -0.18289,0.5455 -0.18289,1.07 z m 2.41024,-0.7491 c 0,0.5098 0.0679,1.0897 0.17756,1.6155 0.1097,0.5256 0.26125,0.997 0.42865,1.2894 0.16741,0.2925 0.31895,0.3507 0.42866,0.2083 0.1097,-0.1424 0.17755,-0.4853 0.17755,-0.995 0,-0.5097 -0.0678,-1.0897 -0.17755,-1.6154 -0.10971,-0.5256 -0.26125,-0.997 -0.42866,-1.2895 -0.1674,-0.2924 -0.31895,-0.3506 -0.42865,-0.2082 -0.1097,0.1423 -0.17756,0.4853 -0.17756,0.9949 z m -15.97345032,1.4957 c 0.15955,-1.0614 0.67841,-2.1647 1.69923002,-3.2325 0.10648,-0.412 1.83687,-2.1429 4.38406,-3.0606 2.54718,-0.9178 5.9111603,-1.0225 9.2848103,1.818 0.18492,-0.1613 0.41845,-0.3449 0.64431,-0.474 0.22587,-0.1292 0.44407,-0.2039 0.59832,-0.1473 l 0.31065,-0.932 0.31066,-0.9319 1.24263,0.3106 1.24262,0.3106 -0.31066,0.6214 -0.31065,0.6213 -0.62131,-0.3107 -0.62132,-0.3106 -0.31066,0.6213 -0.31065,0.6213 c 0.56167,0.6104 0.8947,1.8691 1.07612,3.2001 0.18143,1.3311 0.21125,2.7346 0.16651,3.6344 -0.70128,0.3211 -1.08859,0.5873 -1.49525,0.7954 -0.40665,0.2081 -0.83266,0.3581 -1.61132,0.4472 l 0,1.2426 0,1.2426 -0.62131,0 -0.62131,0 0,-1.2426 0,-1.2426 c -0.48484,0.055 -0.99581,0.097 -1.5184,0.1046 -0.5226,0.01 -1.05682,-0.021 -1.58816,-0.1046 -1.1717003,-1.6916 -1.02744,-3.1801 -0.1964,-4.4335 0.83104,-1.2533 2.34885,-2.2715 3.92427,-3.0223 -0.34305,0.028 -0.59355,0.049 -0.86603,0.1308 -0.27247,0.081 -0.56694,0.2224 -0.99791,0.4905 l -0.93197,-0.6213 -0.93196,-0.6213 -1.2426303,0 -1.24262,0 0.31065,0.6213 0.31066,0.6213 0.62131,-0.3106 0.6213103,-0.3107 0.62132,0.6213 0.6213,0.6213 c -1.10647,0.8475 -1.8099603,1.7757 -2.0404203,2.8046 -0.23046,1.0289 0.0121,2.1585 0.7978003,3.4086 l 0,1.5533 0,1.5533 -0.6213103,0 -0.62131,0 0,-1.5533 0,-1.5533 c -0.35369,0.072 -0.82654,0.2048 -1.28519,0.3311 -0.45866,0.1262 -0.90313,0.2457 -1.20006,0.2902 l 0,1.5533 0,1.5532 -0.62131,0 -0.62132,0 0,-1.5532 0,-1.5533 c -0.45332,0.03 -0.86472,0.084 -1.26854,0.1071 -0.40382,0.023 -0.80007,0.016 -1.22309,-0.078 l -0.61812,1.2279 -0.61812,1.228 -0.62131,-0.3107 -0.62131002,-0.3107 0.62131002,-1.2426 0.62131,-1.2426 c -0.24928,-0.1117 -0.48507,-0.1789 -0.69596,-0.2622 -0.21091002,-0.083 -0.39692002,-0.1828 -0.54666002,-0.3591 -0.41641,-0.9 -0.61616,-1.9193 -0.45661,-2.9807 z"
       inkscape:connector-curvature="0" />
    <text
       xml:space="preserve"
       style="font-size:20.71314812px;font-style:normal;font-weight:normal;line-height:125%;letter-spacing:0px;word-spacing:0px;fill:#000000;fill-opacity:1;stroke:none;font-family:Sans"
       x="-128.5688"
       y="957.26489"
       id="text2985"
       sodipodi:linespacing="125%"
       transform="scale(-1,1)"><tspan
         sodipodi:role="line"
         id="tspan2987"
         x="-128.5688"
         y="957.26489"
         style="font-size:8.28525925px;font-style:normal;font-variant:normal;font-weight:bold;font-stretch:normal;letter-spacing:0.37px;font-family:a_Stamper;-inkscape-font-specification:a_Stamper Bold"
         dx="0">1i7.livejournal.com</tspan></text>
    <path
       id="path3899-3"
       style="fill:#000000;stroke:#000000;stroke-width:0.13712268;stroke-miterlimit:4;stroke-opacity:1"
       d="m 15.883202,953.62714 c 0,0.60871 0.08115,1.28094 0.212337,1.87561 0.131182,0.59467 0.312416,1.11178 0.512597,1.41039 0.200181,0.29861 0.381414,0.32218 0.512597,0.11889 0.131182,-0.20329 0.212325,-0.63333 0.212325,-1.24228 0,-0.60872 -0.08116,-1.28094 -0.212325,-1.87561 -0.131183,-0.59467 -0.312416,-1.11178 -0.512597,-1.41039 -0.200181,-0.29862 -0.381415,-0.32218 -0.512597,-0.11889 -0.131182,0.20329 -0.212337,0.63333 -0.212337,1.24228 z m 2.798309,-0.86971 c 0,0.59188 0.07883,1.26515 0.206149,1.87561 0.127363,0.61022 0.303313,1.15752 0.497666,1.497 0.194365,0.3396 0.370304,0.40717 0.497678,0.24184 0.127363,-0.16533 0.206137,-0.56344 0.206137,-1.15521 0,-0.59176 -0.07872,-1.26515 -0.206137,-1.87549 -0.127374,-0.61022 -0.303313,-1.15752 -0.497678,-1.49712 -0.194353,-0.33948 -0.370303,-0.40705 -0.497666,-0.24172 -0.127363,0.16521 -0.206149,0.56344 -0.206149,1.15509 z m -18.54531114,1.73652 c 0.1852389,-1.2323 0.78763981,-2.51324 1.97282004,-3.75296 0.1236241,-0.47834 2.1326216,-2.48793 5.0899308,-3.55339 2.9572973,-1.06557 6.8629073,-1.18713 10.7797443,2.11072 0.214693,-0.18727 0.485824,-0.40043 0.748049,-0.55032 0.262237,-0.15 0.515569,-0.23673 0.694655,-0.17102 l 0.360667,-1.08206 0.360679,-1.08194 1.442704,0.36061 1.442692,0.36061 -0.360679,0.72145 -0.360667,0.72133 -0.721346,-0.36072 -0.721358,-0.36061 -0.360679,0.72133 -0.360667,0.72134 c 0.652104,0.70868 1.038754,2.17004 1.249384,3.71534 0.210642,1.54542 0.245263,3.17489 0.19332,4.21957 -0.814192,0.3728 -1.263862,0.68186 -1.735998,0.92347 -0.472124,0.2416 -0.966725,0.41575 -1.870756,0.5192 l 0,1.44267 0,1.44267 -0.721346,0 -0.721347,0 0,-1.44267 0,-1.44267 c -0.562903,0.0639 -1.156143,0.11262 -1.762875,0.12144 -0.606743,0.0116 -1.226977,-0.0244 -1.843867,-0.12144 -1.360354,-1.96396 -1.192867,-3.69212 -0.228022,-5.14733 0.964844,-1.45509 2.727035,-2.63723 4.556111,-3.50892 -0.398284,0.0325 -0.689117,0.0569 -1.005469,0.15186 -0.31634,0.094 -0.658222,0.25821 -1.158582,0.56948 l -1.082025,-0.72134 -1.082013,-0.72133 -1.442705,0 -1.442692,0 0.360667,0.72133 0.360679,0.72134 0.721346,-0.36061 0.721347,-0.36073 0.721358,0.72134 0.721334,0.72133 c -1.284621,0.98396 -2.101379,2.0616 -2.368945,3.25617 -0.267566,1.19456 0.01405,2.50603 0.926253,3.95741 l 0,1.80339 0,1.8034 -0.721347,0 -0.721346,0 0,-1.8034 0,-1.80339 c -0.410637,0.0836 -0.9596201,0.23777 -1.4921166,0.38441 -0.5325082,0.14652 -1.0485416,0.28526 -1.3932799,0.33692 l 0,1.8034 0,1.80328 -0.7213461,0 -0.7213578,0 0,-1.80328 0,-1.8034 c -0.5263084,0.0348 -1.0039473,0.0975 -1.4727857,0.12435 -0.4688385,0.0267 -0.9288881,0.0186 -1.4200179,-0.0906 l -0.7176426,1.4256 -0.7176425,1.42572 -0.7213458,-0.36073 -0.72134611,-0.36072 0.72134611,-1.44267 0.7213458,-1.44267 c -0.2894158,-0.12968 -0.56317,-0.2077 -0.808015,-0.30442 -0.2448683,-0.0964 -0.4608275,-0.21223 -0.63467691,-0.41691 -0.48345559,-1.04491 -0.71536704,-2.22833 -0.53012813,-3.46062 z"
       inkscape:connector-curvature="0" />
  </g>
</svg>
