<?xml version="1.0" encoding="UTF-8" standalone="no"?>
<!-- Created with Inkscape (http://www.inkscape.org/) -->

<svg
   xmlns:dc="http://purl.org/dc/elements/1.1/"
   xmlns:cc="http://creativecommons.org/ns#"
   xmlns:rdf="http://www.w3.org/1999/02/22-rdf-syntax-ns#"
   xmlns:svg="http://www.w3.org/2000/svg"
   xmlns="http://www.w3.org/2000/svg"
   xmlns:sodipodi="http://sodipodi.sourceforge.net/DTD/sodipodi-0.dtd"
   xmlns:inkscape="http://www.inkscape.org/namespaces/inkscape"
   width="3543.3069"
   height="2480.3149"
   id="svg3014"
   version="1.1"
   inkscape:version="0.91 r"
   sodipodi:docname="коробка-микрогофро-1000x700mm.svg">
  <defs
     id="defs3016" />
  <sodipodi:namedview
     id="base"
     pagecolor="#ffffff"
     bordercolor="#666666"
     borderopacity="1.0"
     inkscape:pageopacity="0.0"
     inkscape:pageshadow="2"
     inkscape:zoom="0.175"
     inkscape:cx="1866.8543"
     inkscape:cy="1415.6443"
     inkscape:document-units="mm"
     inkscape:current-layer="layer1"
     showgrid="false"
     units="mm"
     inkscape:window-width="1301"
     inkscape:window-height="744"
     inkscape:window-x="65"
     inkscape:window-y="24"
     inkscape:window-maximized="1" />
  <metadata
     id="metadata3019">
    <rdf:RDF>
      <cc:Work
         rdf:about="">
        <dc:format>image/svg+xml</dc:format>
        <dc:type
           rdf:resource="http://purl.org/dc/dcmitype/StillImage" />
        <dc:title />
      </cc:Work>
    </rdf:RDF>
  </metadata>
  <g
     inkscape:label="Layer 1"
     inkscape:groupmode="layer"
     id="layer1"
     transform="translate(0,1427.9528)">
    <g
       transform="translate(35.433071,-17.716394)"
       id="g3762">
      <path
         inkscape:connector-curvature="0"
         d="m 624.83071,1051.862 -382.67717,0 0,-283.46457 382.67717,0 0,-7.08661 -12.75591,0 -290.55118,0 -19.84252,0 -287.00787,0 0,-155.90551 L 0.5,598.31869 l 0,-141.73228 14.17323,-7.08661 0,-155.90552 L 0.5,286.50767 l 0,-141.73228 14.17323,-7.08662 0,-155.90547 287.00787,0 19.84252,0 290.55118,0 12.75591,0 0,-7.0867 -382.67717,0 0,-283.4645 382.67717,0 14.17323,0 0,-7.0866 -188.97638,-88.8189 0,-601.8898 188.97638,-88.8189 0,-14.1732 -21.25984,0 c -141.73229,0 -311.81103,0 -248.0315,-124.0158 35.43307,-70.8661 106.29921,-159.4488 248.0315,-159.4488 l 1417.3228,0 c 141.7323,0 212.5984,88.5827 248.0315,159.4488 63.7795,124.0158 -106.2992,124.0158 -248.0315,124.0158 l -21.2598,0 0,14.1732 188.9764,88.8189 0,601.8898 -188.9764,88.8189 0,7.0866 14.1732,0 382.6772,0 0,283.4645 -382.6772,0 0,7.0867 12.7559,0 290.5512,0 19.8425,0 287.0079,0 0,155.90547 14.1732,7.08662 0,141.73228 -14.1732,7.08661 0,155.90552 14.1732,7.08661 0,141.73228 -14.1732,7.08662 0,155.90551 -287.0079,0 -19.8425,0 -290.5512,0 -12.7559,0 0,7.08661 382.6772,0 0,283.46457 -382.6772,0 z"
         style="fill:none;stroke:#000000"
         id="path3557" />
      <path
         inkscape:connector-curvature="0"
         d="m 628.37402,605.40531 7.08661,0 0,-155.90551 -7.08661,0 z"
         style="fill:none;stroke:#000000"
         id="path3559" />
      <path
         inkscape:connector-curvature="0"
         d="m 628.37402,293.59428 7.08661,0 0,-155.90551 -7.08661,0 z"
         style="fill:none;stroke:#000000"
         id="path3561" />
      <path
         inkscape:connector-curvature="0"
         d="m 2024.437,137.68877 -7.0866,0 0,155.90551 7.0866,0 z"
         style="fill:none;stroke:#000000"
         id="path3563" />
      <path
         inkscape:connector-curvature="0"
         d="m 2024.437,449.4998 -7.0866,0 0,155.90551 7.0866,0 z"
         style="fill:none;stroke:#000000"
         id="path3565" />
      <path
         inkscape:connector-curvature="0"
         d="m 624.83071,1051.862 c 0,0 0,-6.5729 0,-17.7169 m 0,-17.7168 c 0,-5.4459 0,-11.3839 0,-17.71556 m 0,-17.71627 c 0,-5.7165 0,-11.6401 0,-17.7161 m 0,-17.71758 c 0,-5.83434 0,-11.75428 0,-17.71672 m 0,-17.71625 c 0,-5.91921 0,-11.83842 0,-17.71634 m 0,-17.71736 c 0,-6.01218 0,-11.93348 0,-17.7167 m 0,-17.71723 c 0,-6.16926 0,-12.09732 0,-17.71542 m 0,-17.71625 c 0,-6.71494 0,-12.68166 0,-17.71567 m 0,-17.71742 c 0,0 0,0 0,0"
         style="fill:none;stroke:#44aaff;stroke-dashoffset:17.71653557"
         id="path3567" />
      <path
         inkscape:connector-curvature="0"
         d="m 612.0748,761.31082 c 0,0 0,-6.28159 0,-17.71699 m 0,-17.7161 c 0,-5.37384 0,-11.29427 0,-17.71605 m 0,-17.71703 c 0,-5.6334 0,-11.54567 0,-17.7156 m 0,-17.71645 c 0,-5.73217 0,-11.64248 0,-17.7172 m 0,-17.71579 c 0,-5.78412 0,-11.69292 0,-17.71614 m 0,-17.71573 c 0,-5.81742 0,-11.72588 0,-17.71706 m 0,-17.71722 c 0,-5.84031 0,-11.74803 0,-17.71602 m 0,-17.71659 c 0,-5.85824 0,-11.76593 0,-17.71668 m 0,-17.71628 c 0,-5.8726 0,-11.78006 0,-17.71647 m 0,-17.71576 c 0,-5.88513 0,-11.79256 0,-17.71669 m 0,-17.71691 c 0,-5.89651 0,-11.80392 0,-17.71679 m 0,-17.71564 c 0,-5.9072 0,-11.81441 0,-17.71618 m 0,-17.71728 c 0,-5.91863 0,-11.82627 0,-17.7174 m 0,-17.71756 c 0,-5.93002 0,-11.8374 0,-17.71638 m 0,-17.71748 c 0,-5.94339 0,-11.85107 0,-17.71692 m 0,-17.71737 c 0,-5.95861 0,-11.86604 0,-17.71559 m 0,-17.71685 c 0,-5.97892 0,-11.88718 0,-17.71712 m 0,-17.71618 c 0,-6.00555 0,-11.91408 0,-17.71641 m 0,-17.71568 c 0,-6.0454 0,-11.95461 0,-17.71594 m 0,-17.715593 c 0,-6.113984 0,-12.025318 0,-17.71736 m 0,-17.717459 c 0,-6.259209 0,-12.174159 0,-17.715775 m 0,-17.716508 c 0,-6.815554 0,-12.7518971 0,-17.71673164 m 0,-17.71656336"
         style="fill:none;stroke:#44aaff;stroke-dashoffset:17.71653557"
         id="path3569" />
      <path
         inkscape:connector-curvature="0"
         d="m 624.83071,-25.3034 c 0,0 0,-6.57289 0,-17.716896 m 0,-17.716789 c 0,-5.445876 0,-11.38387 0,-17.715561 m 0,-17.716263 c 0,-5.716501 0,-11.640101 0,-17.716101 m 0,-17.71757 c 0,-5.83434 0,-11.75428 0,-17.71671 m 0,-17.71626 c 0,-5.91921 0,-11.83842 0,-17.71633 m 0,-17.71735 c 0,-6.01219 0,-11.93348 0,-17.71671 m 0,-17.71722 c 0,-6.16926 0,-12.09731 0,-17.71541 m 0,-17.71624 c 0,-6.71494 0,-12.68167 0,-17.71567 m 0,-17.71742"
         style="fill:none;stroke:#44aaff;stroke-dashoffset:17.71653557"
         id="path3571" />
      <path
         inkscape:connector-curvature="0"
         d="m 639.00394,-315.8545 c 0,0 0,-6.28159 0,-17.71699 m 0,-17.7161 c 0,-5.37385 0,-11.29428 0,-17.71606 m 0,-17.71703 c 0,-5.6334 0,-11.54567 0,-17.7156 m 0,-17.71645 c 0,-5.73217 0,-11.64248 0,-17.71721 m 0,-17.71578 c 0,-5.78412 0,-11.69292 0,-17.71615 m 0,-17.71573 c 0,-5.81742 0,-11.72588 0,-17.71706 m 0,-17.71722 c 0,-5.84031 0,-11.74803 0,-17.71603 m 0,-17.71658 c 0,-5.85824 0,-11.76594 0,-17.71669 m 0,-17.71628 c 0,-5.8726 0,-11.78006 0,-17.71647 m 0,-17.71576 c 0,-5.88513 0,-11.79257 0,-17.7167 m 0,-17.71691 c 0,-5.89651 0,-11.80392 0,-17.71678 m 0,-17.71565 c 0,-5.9072 0,-11.81441 0,-17.71619 m 0,-17.71727 c 0,-5.91863 0,-11.82627 0,-17.71741 m 0,-17.71756 c 0,-5.93002 0,-11.8374 0,-17.71638 m 0,-17.71748 c 0,-5.94339 0,-11.85108 0,-17.71692 m 0,-17.71738 c 0,-5.9586 0,-11.86604 0,-17.71558 m 0,-17.71686 c 0,-5.97892 0,-11.88718 0,-17.71712 m 0,-17.71619 c 0,-6.00555 0,-11.91407 0,-17.7164 m 0,-17.71568 c 0,-6.04541 0,-11.95462 0,-17.71594 m 0,-17.7156 c 0,-6.11399 0,-12.02531 0,-17.71741 m 0,-17.7174 c 0,-6.2592 0,-12.1742 0,-17.7158 m 0,-17.7165 c 0,-6.8156 0,-12.7519 0,-17.7167 m 0,-17.7166 c 0,0 0,0 0,0"
         style="fill:none;stroke:#44aaff;stroke-dashoffset:17.71653557"
         id="path3573" />
      <path
         inkscape:connector-curvature="0"
         d="m 617.7441,-1109.5553 c 0,0 0,-6.5729 0,-17.7169 m 0,-17.7168 c 0,-5.4459 0,-11.3839 0,-17.7156 m 0,-17.7162 c 0,-5.7165 0,-11.6401 0,-17.7161 m 0,-17.7176 c 0,-5.8344 0,-11.7543 0,-17.7167 m 0,-17.7163 c 0,-5.9192 0,-11.8384 0,-17.7163 m 0,-17.7174 c 0,-6.0117 0,-11.9326 0,-17.7154 m 0,-17.7175 c 0,-6.1693 0,-12.0975 0,-17.7156 m 0,-17.7166 c 0,-6.715 0,-12.6818 0,-17.7159 m 0,-17.7177 c 0,0 0,0 0,0"
         style="fill:none;stroke:#44aaff;stroke-dashoffset:17.71653557"
         id="path3575" />
      <path
         inkscape:connector-curvature="0"
         d="m 321.52362,761.31082 c 0,0 0,-6.28159 0,-17.71699 m 0,-17.7161 c 0,-5.37384 0,-11.29427 0,-17.71605 m 0,-17.71703 c 0,-5.6334 0,-11.54567 0,-17.7156 m 0,-17.71645 c 0,-5.73217 0,-11.64248 0,-17.7172 m 0,-17.71579 c 0,-5.78412 0,-11.69292 0,-17.71614 m 0,-17.71573 c 0,-5.81742 0,-11.72588 0,-17.71706 m 0,-17.71722 c 0,-5.84031 0,-11.74803 0,-17.71602 m 0,-17.71659 c 0,-5.85824 0,-11.76593 0,-17.71668 m 0,-17.71628 c 0,-5.8726 0,-11.78006 0,-17.71647 m 0,-17.71576 c 0,-5.88513 0,-11.79256 0,-17.71669 m 0,-17.71691 c 0,-5.89651 0,-11.80392 0,-17.71679 m 0,-17.71564 c 0,-5.9072 0,-11.81441 0,-17.71618 m 0,-17.71728 c 0,-5.91863 0,-11.82627 0,-17.7174 m 0,-17.71756 c 0,-5.93002 0,-11.8374 0,-17.71638 m 0,-17.71748 c 0,-5.94339 0,-11.85107 0,-17.71692 m 0,-17.71737 c 0,-5.95861 0,-11.86604 0,-17.71559 m 0,-17.71685 c 0,-5.97892 0,-11.88718 0,-17.71712 m 0,-17.71618 c 0,-6.00555 0,-11.91408 0,-17.71641 m 0,-17.71568 c 0,-6.0454 0,-11.95461 0,-17.71594 m 0,-17.715593 c 0,-6.113984 0,-12.025318 0,-17.71736 m 0,-17.717459 c 0,-6.259209 0,-12.174159 0,-17.715775 m 0,-17.716508 c 0,-6.815554 0,-12.7518971 0,-17.71673164 m 0,-17.71656336"
         style="fill:none;stroke:#44aaff;stroke-dashoffset:17.71653557"
         id="path3577" />
      <path
         inkscape:connector-curvature="0"
         d="m 301.6811,761.31082 c 0,0 0,-6.28159 0,-17.71699 m 0,-17.7161 c 0,-5.37384 0,-11.29427 0,-17.71605 m 0,-17.71703 c 0,-5.6334 0,-11.54567 0,-17.7156 m 0,-17.71645 c 0,-5.73217 0,-11.64248 0,-17.7172 m 0,-17.71579 c 0,-5.78412 0,-11.69292 0,-17.71614 m 0,-17.71573 c 0,-5.81742 0,-11.72588 0,-17.71706 m 0,-17.71722 c 0,-5.84031 0,-11.74803 0,-17.71602 m 0,-17.71659 c 0,-5.85824 0,-11.76593 0,-17.71668 m 0,-17.71628 c 0,-5.8726 0,-11.78006 0,-17.71647 m 0,-17.71576 c 0,-5.88513 0,-11.79256 0,-17.71669 m 0,-17.71691 c 0,-5.89651 0,-11.80392 0,-17.71679 m 0,-17.71564 c 0,-5.9072 0,-11.81441 0,-17.71618 m 0,-17.71728 c 0,-5.91863 0,-11.82627 0,-17.7174 m 0,-17.71756 c 0,-5.93002 0,-11.8374 0,-17.71638 m 0,-17.71748 c 0,-5.94339 0,-11.85107 0,-17.71692 m 0,-17.71737 c 0,-5.95861 0,-11.86604 0,-17.71559 m 0,-17.71685 c 0,-5.97892 0,-11.88718 0,-17.71712 m 0,-17.71618 c 0,-6.00555 0,-11.91408 0,-17.71641 m 0,-17.71568 c 0,-6.0454 0,-11.95461 0,-17.71594 m 0,-17.715593 c 0,-6.113984 0,-12.025318 0,-17.71736 m 0,-17.717459 c 0,-6.259209 0,-12.174159 0,-17.715775 m 0,-17.716508 c 0,-6.815554 0,-12.7518971 0,-17.71673164 m 0,-17.71656336"
         style="fill:none;stroke:#44aaff;stroke-dashoffset:17.71653557"
         id="path3579" />
      <path
         inkscape:connector-curvature="0"
         d="m 2027.9803,1051.862 c 0,0 0,-6.5729 0,-17.7169 m 0,-17.7168 c 0,-5.4459 0,-11.3839 0,-17.71556 m 0,-17.71627 c 0,-5.7165 0,-11.6401 0,-17.7161 m 0,-17.71758 c 0,-5.83434 0,-11.75428 0,-17.71672 m 0,-17.71625 c 0,-5.91921 0,-11.83842 0,-17.71634 m 0,-17.71736 c 0,-6.01218 0,-11.93348 0,-17.7167 m 0,-17.71723 c 0,-6.16926 0,-12.09732 0,-17.71542 m 0,-17.71625 c 0,-6.71494 0,-12.68166 0,-17.71567 m 0,-17.71742 c 0,0 0,0 0,0"
         style="fill:none;stroke:#44aaff;stroke-dashoffset:17.71653557"
         id="path3581" />
      <path
         inkscape:connector-curvature="0"
         d="m 2040.7362,761.31082 c 0,0 0,-6.28159 0,-17.71699 m 0,-17.7161 c 0,-5.37384 0,-11.29427 0,-17.71605 m 0,-17.71703 c 0,-5.6334 0,-11.54567 0,-17.7156 m 0,-17.71645 c 0,-5.73217 0,-11.64248 0,-17.7172 m 0,-17.71579 c 0,-5.78412 0,-11.69292 0,-17.71614 m 0,-17.71573 c 0,-5.81742 0,-11.72588 0,-17.71706 m 0,-17.71722 c 0,-5.84031 0,-11.74803 0,-17.71602 m 0,-17.71659 c 0,-5.85824 0,-11.76593 0,-17.71668 m 0,-17.71628 c 0,-5.8726 0,-11.78006 0,-17.71647 m 0,-17.71576 c 0,-5.88513 0,-11.79256 0,-17.71669 m 0,-17.71691 c 0,-5.89651 0,-11.80392 0,-17.71679 m 0,-17.71564 c 0,-5.9072 0,-11.81441 0,-17.71618 m 0,-17.71728 c 0,-5.91863 0,-11.82627 0,-17.7174 m 0,-17.71756 c 0,-5.93002 0,-11.8374 0,-17.71638 m 0,-17.71748 c 0,-5.94339 0,-11.85107 0,-17.71692 m 0,-17.71737 c 0,-5.95861 0,-11.86604 0,-17.71559 m 0,-17.71685 c 0,-5.97892 0,-11.88718 0,-17.71712 m 0,-17.71618 c 0,-6.00555 0,-11.91408 0,-17.71641 m 0,-17.71568 c 0,-6.0454 0,-11.95461 0,-17.71594 m 0,-17.715593 c 0,-6.113984 0,-12.025318 0,-17.71736 m 0,-17.717459 c 0,-6.259209 0,-12.174159 0,-17.715775 m 0,-17.716508 c 0,-6.815554 0,-12.7518971 0,-17.71673164 m 0,-17.71656336"
         style="fill:none;stroke:#44aaff;stroke-dashoffset:17.71653557"
         id="path3583" />
      <path
         inkscape:connector-curvature="0"
         d="m 2027.9803,-25.3034 c 0,0 0,-6.57289 0,-17.716896 m 0,-17.716789 c 0,-5.445876 0,-11.38387 0,-17.715561 m 0,-17.716263 c 0,-5.716501 0,-11.640101 0,-17.716101 m 0,-17.71757 c 0,-5.83434 0,-11.75428 0,-17.71671 m 0,-17.71626 c 0,-5.91921 0,-11.83842 0,-17.71633 m 0,-17.71735 c 0,-6.01219 0,-11.93348 0,-17.71671 m 0,-17.71722 c 0,-6.16926 0,-12.09731 0,-17.71541 m 0,-17.71624 c 0,-6.71494 0,-12.68167 0,-17.71567 m 0,-17.71742"
         style="fill:none;stroke:#44aaff;stroke-dashoffset:17.71653557"
         id="path3585" />
      <path
         inkscape:connector-curvature="0"
         d="m 2013.8071,-315.8545 c 0,0 0,-6.28159 0,-17.71699 m 0,-17.7161 c 0,-5.37385 0,-11.29428 0,-17.71606 m 0,-17.71703 c 0,-5.6334 0,-11.54567 0,-17.7156 m 0,-17.71645 c 0,-5.73217 0,-11.64248 0,-17.71721 m 0,-17.71578 c 0,-5.78412 0,-11.69292 0,-17.71615 m 0,-17.71573 c 0,-5.81742 0,-11.72588 0,-17.71706 m 0,-17.71722 c 0,-5.84031 0,-11.74803 0,-17.71603 m 0,-17.71658 c 0,-5.85824 0,-11.76594 0,-17.71669 m 0,-17.71628 c 0,-5.8726 0,-11.78006 0,-17.71647 m 0,-17.71576 c 0,-5.88513 0,-11.79257 0,-17.7167 m 0,-17.71691 c 0,-5.89651 0,-11.80392 0,-17.71678 m 0,-17.71565 c 0,-5.9072 0,-11.81441 0,-17.71619 m 0,-17.71727 c 0,-5.91863 0,-11.82627 0,-17.71741 m 0,-17.71756 c 0,-5.93002 0,-11.8374 0,-17.71638 m 0,-17.71748 c 0,-5.94339 0,-11.85108 0,-17.71692 m 0,-17.71738 c 0,-5.9586 0,-11.86604 0,-17.71558 m 0,-17.71686 c 0,-5.97892 0,-11.88718 0,-17.71712 m 0,-17.71619 c 0,-6.00555 0,-11.91407 0,-17.7164 m 0,-17.71568 c 0,-6.04541 0,-11.95462 0,-17.71594 m 0,-17.7156 c 0,-6.11399 0,-12.02531 0,-17.71741 m 0,-17.7174 c 0,-6.2592 0,-12.1742 0,-17.7158 m 0,-17.7165 c 0,-6.8156 0,-12.7519 0,-17.7167 m 0,-17.7166 c 0,0 0,0 0,0"
         style="fill:none;stroke:#44aaff;stroke-dashoffset:17.71653557"
         id="path3587" />
      <path
         inkscape:connector-curvature="0"
         d="m 2035.0669,-1109.5553 c 0,0 0,-6.5729 0,-17.7169 m 0,-17.7168 c 0,-5.4459 0,-11.3839 0,-17.7156 m 0,-17.7162 c 0,-5.7165 0,-11.6401 0,-17.7161 m 0,-17.7176 c 0,-5.8344 0,-11.7543 0,-17.7167 m 0,-17.7163 c 0,-5.9192 0,-11.8384 0,-17.7163 m 0,-17.7174 c 0,-6.0117 0,-11.9326 0,-17.7154 m 0,-17.7175 c 0,-6.1693 0,-12.0975 0,-17.7156 m 0,-17.7166 c 0,-6.715 0,-12.6818 0,-17.7159 m 0,-17.7177 c 0,0 0,0 0,0"
         style="fill:none;stroke:#44aaff;stroke-dashoffset:17.71653557"
         id="path3589" />
      <path
         inkscape:connector-curvature="0"
         d="m 2331.2874,761.31082 c 0,0 0,-6.28159 0,-17.71699 m 0,-17.7161 c 0,-5.37384 0,-11.29427 0,-17.71605 m 0,-17.71703 c 0,-5.6334 0,-11.54567 0,-17.7156 m 0,-17.71645 c 0,-5.73217 0,-11.64248 0,-17.7172 m 0,-17.71579 c 0,-5.78412 0,-11.69292 0,-17.71614 m 0,-17.71573 c 0,-5.81742 0,-11.72588 0,-17.71706 m 0,-17.71722 c 0,-5.84031 0,-11.74803 0,-17.71602 m 0,-17.71659 c 0,-5.85824 0,-11.76593 0,-17.71668 m 0,-17.71628 c 0,-5.8726 0,-11.78006 0,-17.71647 m 0,-17.71576 c 0,-5.88513 0,-11.79256 0,-17.71669 m 0,-17.71691 c 0,-5.89651 0,-11.80392 0,-17.71679 m 0,-17.71564 c 0,-5.9072 0,-11.81441 0,-17.71618 m 0,-17.71728 c 0,-5.91863 0,-11.82627 0,-17.7174 m 0,-17.71756 c 0,-5.93002 0,-11.8374 0,-17.71638 m 0,-17.71748 c 0,-5.94339 0,-11.85107 0,-17.71692 m 0,-17.71737 c 0,-5.95861 0,-11.86604 0,-17.71559 m 0,-17.71685 c 0,-5.97892 0,-11.88718 0,-17.71712 m 0,-17.71618 c 0,-6.00555 0,-11.91408 0,-17.71641 m 0,-17.71568 c 0,-6.0454 0,-11.95461 0,-17.71594 m 0,-17.715593 c 0,-6.113984 0,-12.025318 0,-17.71736 m 0,-17.717459 c 0,-6.259209 0,-12.174159 0,-17.715775 m 0,-17.716508 c 0,-6.815554 0,-12.7518971 0,-17.71673164 m 0,-17.71656336"
         style="fill:none;stroke:#44aaff;stroke-dashoffset:17.71653557"
         id="path3591" />
      <path
         inkscape:connector-curvature="0"
         d="m 2351.1299,761.31082 c 0,0 0,-6.28159 0,-17.71699 m 0,-17.7161 c 0,-5.37384 0,-11.29427 0,-17.71605 m 0,-17.71703 c 0,-5.6334 0,-11.54567 0,-17.7156 m 0,-17.71645 c 0,-5.73217 0,-11.64248 0,-17.7172 m 0,-17.71579 c 0,-5.78412 0,-11.69292 0,-17.71614 m 0,-17.71573 c 0,-5.81742 0,-11.72588 0,-17.71706 m 0,-17.71722 c 0,-5.84031 0,-11.74803 0,-17.71602 m 0,-17.71659 c 0,-5.85824 0,-11.76593 0,-17.71668 m 0,-17.71628 c 0,-5.8726 0,-11.78006 0,-17.71647 m 0,-17.71576 c 0,-5.88513 0,-11.79256 0,-17.71669 m 0,-17.71691 c 0,-5.89651 0,-11.80392 0,-17.71679 m 0,-17.71564 c 0,-5.9072 0,-11.81441 0,-17.71618 m 0,-17.71728 c 0,-5.91863 0,-11.82627 0,-17.7174 m 0,-17.71756 c 0,-5.93002 0,-11.8374 0,-17.71638 m 0,-17.71748 c 0,-5.94339 0,-11.85107 0,-17.71692 m 0,-17.71737 c 0,-5.95861 0,-11.86604 0,-17.71559 m 0,-17.71685 c 0,-5.97892 0,-11.88718 0,-17.71712 m 0,-17.71618 c 0,-6.00555 0,-11.91408 0,-17.71641 m 0,-17.71568 c 0,-6.0454 0,-11.95461 0,-17.71594 m 0,-17.715593 c 0,-6.113984 0,-12.025318 0,-17.71736 m 0,-17.717459 c 0,-6.259209 0,-12.174159 0,-17.715775 m 0,-17.716508 c 0,-6.815554 0,-12.7518971 0,-17.71673164 m 0,-17.71656336"
         style="fill:none;stroke:#44aaff;stroke-dashoffset:17.71653557"
         id="path3593" />
      <path
         inkscape:connector-curvature="0"
         d="m 624.83071,764.85413 c 0,0 6.17907,0 17.71711,0 m 17.71696,0 c 5.35363,0 11.26934,0 17.71629,0 m 17.7171,0 c 5.61434,0 11.52448,0 17.71659,0 m 17.7159,0 c 5.7124,0 11.62074,0 17.71642,0 m 17.71738,0 c 5.7638,0 11.67115,0 17.71589,0 m 17.71608,0 c 5.79595,0 11.70315,0 17.71679,0 m 17.7166,0 c 5.81759,0 11.72442,0 17.71656,0 m 17.7158,0 c 5.8337,0 11.74061,0 17.71741,0 m 17.71648,0 c 5.84534,0 11.75163,0 17.71596,0 m 17.71651,0 c 5.8552,0 11.76164,0 17.71669,0 m 17.71678,0 c 5.86304,0 11.76934,0 17.71652,0 m 17.71647,0 c 5.8697,0 11.776,0 17.7167,0 m 17.7172,0 c 5.8753,0 11.7815,0 17.7164,0 m 17.7173,0 c 5.8806,0 11.7868,0 17.7169,0 m 17.7165,0 c 5.885,0 11.7911,0 17.7165,0 m 17.7169,0 c 5.8891,0 11.7951,0 17.7164,0 m 17.716,0 c 5.8929,0 11.7991,0 17.7166,0 m 17.7168,0 c 5.8963,0 11.8021,0 17.7158,0 m 17.7158,0 c 5.8997,0 11.8055,0 17.7156,0 m 17.7169,0 c 5.9034,0 11.8095,0 17.7166,0 m 17.7158,0 c 5.9064,0 11.8122,0 17.7156,0 m 17.7166,0 c 5.9098,0 11.8156,0 17.7156,0 m 17.717,0 c 5.9137,0 11.8199,0 17.717,0 m 17.7158,0 c 5.9173,0 11.8235,0 17.7169,0 m 17.7163,0 c 5.9209,0 11.827,0 17.7165,0 m 17.7166,0 c 5.9251,0 11.8313,0 17.7168,0 m 17.717,0 c 5.9293,0 11.8354,0 17.7163,0 m 17.7166,0 c 5.9347,0 11.8412,0 17.7175,0 m 17.7175,0 c 5.9399,0 11.8461,0 17.7163,0 m 17.7159,0 c 5.9467,0 11.8532,0 17.7172,0 m 17.7167,0 c 5.9542,0 11.8606,0 17.7166,0 m 17.7166,0 c 5.9631,0 11.8693,0 17.7155,0 m 17.7172,0 c 5.9753,0 11.882,0 17.7169,0 m 17.7167,0 c 5.9905,0 11.8973,0 17.7168,0 m 17.716,0 c 6.0109,0 11.9177,0 17.716,0 m 17.7167,0 c 6.0411,0 11.9485,0 17.7163,0 m 17.7171,0 c 6.0891,0 11.9971,0 17.716,0 m 17.7157,0 c 6.1786,0 12.0883,0 17.7162,0 m 17.7168,0 c 6.404,0 12.3188,0 17.7165,0 m 17.7171,0 c 8.258,0 14.2413,0 17.7178,0 m 3.5424,0"
         style="fill:none;stroke:#44aaff;stroke-dashoffset:17.71653557"
         id="path3595" />
      <path
         inkscape:connector-curvature="0"
         d="m 624.83071,-21.76 c 0,0 6.17907,0 17.71711,0 m 17.71696,0 c 5.35363,0 11.26934,0 17.71629,0 m 17.7171,0 c 5.61434,0 11.52448,0 17.71659,0 m 17.7159,0 c 5.7124,0 11.62074,0 17.71642,0 m 17.71738,0 c 5.7638,0 11.67115,0 17.71589,0 m 17.71608,0 c 5.79595,0 11.70315,0 17.71679,0 m 17.7166,0 c 5.81759,0 11.72442,0 17.71656,0 m 17.7158,0 c 5.8337,0 11.74061,0 17.71741,0 m 17.71648,0 c 5.84534,0 11.75163,0 17.71596,0 m 17.71651,0 c 5.8552,0 11.76164,0 17.71669,0 m 17.71678,0 c 5.86304,0 11.76934,0 17.71652,0 m 17.71647,0 c 5.8697,0 11.776,0 17.7167,0 m 17.7172,0 c 5.8753,0 11.7815,0 17.7164,0 m 17.7173,0 c 5.8806,0 11.7868,0 17.7169,0 m 17.7165,0 c 5.885,0 11.7911,0 17.7165,0 m 17.7169,0 c 5.8891,0 11.7951,0 17.7164,0 m 17.716,0 c 5.8929,0 11.7991,0 17.7166,0 m 17.7168,0 c 5.8963,0 11.8021,0 17.7158,0 m 17.7158,0 c 5.8997,0 11.8055,0 17.7156,0 m 17.7169,0 c 5.9034,0 11.8095,0 17.7166,0 m 17.7158,0 c 5.9064,0 11.8122,0 17.7156,0 m 17.7166,0 c 5.9098,0 11.8156,0 17.7156,0 m 17.717,0 c 5.9137,0 11.8199,0 17.717,0 m 17.7158,0 c 5.9173,0 11.8235,0 17.7169,0 m 17.7163,0 c 5.9209,0 11.827,0 17.7165,0 m 17.7166,0 c 5.9251,0 11.8313,0 17.7168,0 m 17.717,0 c 5.9293,0 11.8354,0 17.7163,0 m 17.7166,0 c 5.9347,0 11.8412,0 17.7175,0 m 17.7175,0 c 5.9399,0 11.8461,0 17.7163,0 m 17.7159,0 c 5.9467,0 11.8532,0 17.7172,0 m 17.7167,0 c 5.9542,0 11.8606,0 17.7166,0 m 17.7166,0 c 5.9631,0 11.8693,0 17.7155,0 m 17.7172,0 c 5.9753,0 11.882,0 17.7169,0 m 17.7167,0 c 5.9905,0 11.8973,0 17.7168,0 m 17.716,0 c 6.0109,0 11.9177,0 17.716,0 m 17.7167,0 c 6.0411,0 11.9485,0 17.7163,0 m 17.7171,0 c 6.0891,0 11.9971,0 17.716,0 m 17.7157,0 c 6.1786,0 12.0883,0 17.7162,0 m 17.7168,0 c 6.404,0 12.3188,0 17.7165,0 m 17.7171,0 c 8.258,0 14.2413,0 17.7178,0 m 3.5424,0"
         style="fill:none;stroke:#44aaff;stroke-dashoffset:17.71653557"
         id="path3597" />
      <path
         inkscape:connector-curvature="0"
         d="m 639.00394,-312.3112 c 0,0 6.18158,0 17.71574,0 m 17.71657,0 c 5.35419,0 11.27005,0 17.71635,0 m 17.71623,0 c 5.61486,0 11.52509,0 17.71664,0 m 17.71711,0 c 5.71317,0 11.62183,0 17.71727,0 m 17.71734,0 c 5.76475,0 11.67259,0 17.71728,0 m 17.71646,0 c 5.79656,0 11.70387,0 17.71708,0 m 17.71581,0 c 5.81797,0 11.72466,0 17.71607,0 m 17.71597,0 c 5.83428,0 11.74124,0 17.7175,0 m 17.71584,0 c 5.846,0 11.75242,0 17.71626,0 m 17.7159,0 c 5.85548,0 11.76161,0 17.71571,0 m 17.71596,0 c 5.86364,0 11.76997,0 17.71637,0 m 17.7164,0 c 5.8705,0 11.7769,0 17.717,0 m 17.7173,0 c 5.8762,0 11.7825,0 17.7167,0 m 17.717,0 c 5.8815,0 11.788,0 17.7173,0 m 17.717,0 c 5.8857,0 11.7917,0 17.716,0 m 17.7167,0 c 5.89,0 11.7961,0 17.7165,0 m 17.7165,0 c 5.8941,0 11.8005,0 17.7173,0 m 17.7173,0 c 5.8979,0 11.8042,0 17.7173,0 m 17.7164,0 c 5.901,0 11.8069,0 17.7159,0 m 17.7173,0 c 5.9049,0 11.8112,0 17.7171,0 m 17.7165,0 c 5.9081,0 11.8141,0 17.7162,0 m 17.7166,0 c 5.9117,0 11.8177,0 17.7163,0 m 17.7171,0 c 5.9156,0 11.822,0 17.7173,0 m 17.7163,0 c 5.9195,0 11.8258,0 17.7173,0 m 17.7158,0 c 5.9235,0 11.8298,0 17.7171,0 m 17.7166,0 c 5.9277,0 11.834,0 17.7167,0 m 17.7164,0 c 5.9328,0 11.8392,0 17.7172,0 m 17.7165,0 c 5.9379,0 11.8439,0 17.7158,0 m 17.7162,0 c 5.9444,0 11.8506,0 17.7164,0 m 17.7163,0 c 5.9519,0 11.8583,0 17.7166,0 m 17.7154,0 c 5.9609,0 11.8673,0 17.7165,0 m 17.7173,0 c 5.9719,0 11.8783,0 17.716,0 m 17.7168,0 c 5.9862,0 11.8929,0 17.7162,0 m 17.716,0 c 6.0057,0 11.9127,0 17.7163,0 m 17.7163,0 c 6.0337,0 11.9413,0 17.717,0 m 17.7165,0 c 6.0771,0 11.9853,0 17.7169,0 m 17.7157,0 c 6.1544,0 12.0638,0 17.7161,0 m 17.7155,0 c 6.3343,0 12.2473,0 17.7159,0 m 17.7158,0 c 7.2354,0 13.176,0 17.7164,0 m 10.6309,0"
         style="fill:none;stroke:#44aaff;stroke-dashoffset:17.71653557"
         id="path3599" />
      <path
         inkscape:connector-curvature="0"
         d="m 639.00394,-1106.012 c 0,0 6.18158,0 17.71574,0 m 17.71657,0 c 5.35419,0 11.27005,0 17.71635,0 m 17.71623,0 c 5.61486,0 11.52509,0 17.71664,0 m 17.71711,0 c 5.71317,0 11.62183,0 17.71727,0 m 17.71734,0 c 5.76475,0 11.67259,0 17.71728,0 m 17.71646,0 c 5.79656,0 11.70387,0 17.71708,0 m 17.71581,0 c 5.81797,0 11.72466,0 17.71607,0 m 17.71597,0 c 5.83428,0 11.74124,0 17.7175,0 m 17.71584,0 c 5.846,0 11.75242,0 17.71626,0 m 17.7159,0 c 5.85548,0 11.76161,0 17.71571,0 m 17.71596,0 c 5.86364,0 11.76997,0 17.71637,0 m 17.7164,0 c 5.8705,0 11.7769,0 17.717,0 m 17.7173,0 c 5.8762,0 11.7825,0 17.7167,0 m 17.717,0 c 5.8815,0 11.788,0 17.7173,0 m 17.717,0 c 5.8857,0 11.7917,0 17.716,0 m 17.7167,0 c 5.89,0 11.7961,0 17.7165,0 m 17.7165,0 c 5.8941,0 11.8005,0 17.7173,0 m 17.7173,0 c 5.8979,0 11.8042,0 17.7173,0 m 17.7164,0 c 5.901,0 11.8069,0 17.7159,0 m 17.7173,0 c 5.9049,0 11.8112,0 17.7171,0 m 17.7165,0 c 5.9081,0 11.8141,0 17.7162,0 m 17.7166,0 c 5.9117,0 11.8177,0 17.7163,0 m 17.7171,0 c 5.9156,0 11.822,0 17.7173,0 m 17.7163,0 c 5.9195,0 11.8258,0 17.7173,0 m 17.7158,0 c 5.9235,0 11.8298,0 17.7171,0 m 17.7166,0 c 5.9277,0 11.834,0 17.7167,0 m 17.7164,0 c 5.9328,0 11.8392,0 17.7172,0 m 17.7165,0 c 5.9379,0 11.8439,0 17.7158,0 m 17.7162,0 c 5.9444,0 11.8506,0 17.7164,0 m 17.7163,0 c 5.9519,0 11.8583,0 17.7166,0 m 17.7154,0 c 5.9609,0 11.8673,0 17.7165,0 m 17.7173,0 c 5.9719,0 11.8783,0 17.716,0 m 17.7168,0 c 5.9862,0 11.8929,0 17.7162,0 m 17.716,0 c 6.0057,0 11.9127,0 17.7163,0 m 17.7163,0 c 6.0337,0 11.9413,0 17.717,0 m 17.7165,0 c 6.0771,0 11.9853,0 17.7169,0 m 17.7157,0 c 6.1544,0 12.0638,0 17.7161,0 m 17.7155,0 c 6.3343,0 12.2473,0 17.7159,0 m 17.7158,0 c 7.2354,0 13.176,0 17.7164,0 m 10.6309,0"
         style="fill:none;stroke:#44aaff;stroke-dashoffset:17.71653557"
         id="path3601" />
    </g>
  </g>
</svg>
