<?xml version="1.0" encoding="UTF-8" standalone="no"?>
<!-- Created with Inkscape (http://www.inkscape.org/) -->

<svg
   xmlns:dc="http://purl.org/dc/elements/1.1/"
   xmlns:cc="http://creativecommons.org/ns#"
   xmlns:rdf="http://www.w3.org/1999/02/22-rdf-syntax-ns#"
   xmlns:svg="http://www.w3.org/2000/svg"
   xmlns="http://www.w3.org/2000/svg"
   xmlns:sodipodi="http://sodipodi.sourceforge.net/DTD/sodipodi-0.dtd"
   xmlns:inkscape="http://www.inkscape.org/namespaces/inkscape"
   width="2480.3149"
   height="3543.3069"
   id="svg3014"
   version="1.1"
   inkscape:version="0.91 r"
   sodipodi:docname="коробка-ровер-микрогофро-1000x700mm.svg">
  <defs
     id="defs3016" />
  <sodipodi:namedview
     id="base"
     pagecolor="#ffffff"
     bordercolor="#666666"
     borderopacity="1.0"
     inkscape:pageopacity="0.0"
     inkscape:pageshadow="2"
     inkscape:zoom="0.24748737"
     inkscape:cx="1895.6322"
     inkscape:cy="982.64642"
     inkscape:document-units="mm"
     inkscape:current-layer="layer1"
     showgrid="false"
     units="mm"
     inkscape:window-width="1301"
     inkscape:window-height="744"
     inkscape:window-x="65"
     inkscape:window-y="24"
     inkscape:window-maximized="1" />
  <metadata
     id="metadata3019">
    <rdf:RDF>
      <cc:Work
         rdf:about="">
        <dc:format>image/svg+xml</dc:format>
        <dc:type
           rdf:resource="http://purl.org/dc/dcmitype/StillImage" />
        <dc:title></dc:title>
      </cc:Work>
    </rdf:RDF>
  </metadata>
  <g
     inkscape:label="Layer 1"
     inkscape:groupmode="layer"
     id="layer1"
     transform="translate(0,2490.9447)">
    <g
       transform="translate(14.173228,-17.716551)"
       id="g3633">
      <path
         inkscape:connector-curvature="0"
         d="m 908.29528,1051.8622 -302.95276,0 0,-425.19685 302.95276,0 0,-7.08661 -12.75591,0 -432.28346,0 -19.84252,0 -428.74016,0 0,-124.01575 L 0.5,488.47637 l 0,-109.84252 14.17323,-7.08661 0,-124.01575 L 0.5,240.44488 l 0,-109.84252 14.17323,-7.08662 0,-124.01574 428.74016,0 19.84252,0 432.28346,0 12.75591,0 0,-7.0866 -302.95276,0 0,-425.1969 302.95276,0 14.17323,0 0,-7.0866 -283.46457,-133.2283 0,-353.6221 283.46457,-133.2283 0,-14.1733 -21.25984,0 c -212.59843,0 -467.71654,0 -372.04725,-186.0236 53.14961,-106.2992 159.44882,-239.1732 372.04725,-239.1732 l 655.51183,0 c 212.5984,0 318.8976,132.874 372.0472,239.1732 95.6693,186.0236 -159.4488,186.0236 -372.0472,186.0236 l -21.2599,0 0,14.1733 283.4646,133.2283 0,353.6221 -283.4646,133.2283 0,7.0866 14.1733,0 302.9527,0 0,425.1969 -302.9527,0 0,7.0866 12.7559,0 432.2835,0 19.8425,0 428.7401,0 0,124.01574 14.1733,7.08662 0,109.84252 -14.1733,7.08661 0,124.01575 14.1733,7.08661 0,109.84252 -14.1733,7.08662 0,124.01575 -428.7401,0 -19.8425,0 -432.2835,0 -12.7559,0 0,7.08661 302.9527,0 0,425.19685 -302.9527,0 z"
         style="fill:none;stroke:#000000"
         id="path3428" />
      <path
         inkscape:connector-curvature="0"
         d="m 911.83859,495.56299 7.08661,0 0,-124.01575 -7.08661,0 z"
         style="fill:none;stroke:#000000"
         id="path3430" />
      <path
         inkscape:connector-curvature="0"
         d="m 911.83859,247.53149 7.08661,0 0,-124.01575 -7.08661,0 z"
         style="fill:none;stroke:#000000"
         id="path3432" />
      <path
         inkscape:connector-curvature="0"
         d="m 1546.0906,123.51574 -7.0867,0 0,124.01575 7.0867,0 z"
         style="fill:none;stroke:#000000"
         id="path3434" />
      <path
         inkscape:connector-curvature="0"
         d="m 1546.0906,371.54724 -7.0867,0 0,124.01575 7.0867,0 z"
         style="fill:none;stroke:#000000"
         id="path3436" />
      <path
         inkscape:connector-curvature="0"
         d="m 908.29528,1051.8622 c 0,0 0,-6.4329 0,-17.7162 m 0,-17.7168 c 0,-5.4084 0,-11.3371 0,-17.71605 m 0,-17.71708 c 0,-5.67032 0,-11.58769 0,-17.71649 m 0,-17.71613 c 0,-5.77287 0,-11.68655 0,-17.71599 m 0,-17.71683 c 0,-5.83193 0,-11.74419 0,-17.71625 m 0,-17.71591 c 0,-5.87487 0,-11.78688 0,-17.71741 m 0,-17.71587 c 0,-5.9114 0,-11.8228 0,-17.71591 m 0,-17.71693 c 0,-5.94997 0,-11.86183 0,-17.71623 m 0,-17.71758 c 0,-5.99806 0,-11.91114 0,-17.7169 m 0,-17.71672 c 0,-6.071 0,-11.9863 0,-17.71676 m 0,-17.71664 c 0,-6.21852 0,-12.13991 0,-17.71718 m 0,-17.71537 c 0,-6.76556 0,-12.7167 0,-17.71582 m 0,-17.7178"
         style="fill:none;stroke:#44aaff;stroke-dashoffset:17.71653557"
         id="path3438" />
      <path
         inkscape:connector-curvature="0"
         d="m 895.53937,619.57874 c 0,0 0,-6.33185 0,-17.71588 m 0,-17.71619 c 0,-5.38505 0,-11.3085 0,-17.71727 m 0,-17.71729 c 0,-5.64492 0,-11.55915 0,-17.71719 m 0,-17.7168 c 0,-5.74371 0,-11.65482 0,-17.71644 m 0,-17.71617 c 0,-5.79717 0,-11.70698 0,-17.71649 m 0,-17.71643 c 0,-5.83179 0,-11.74093 0,-17.7166 m 0,-17.71629 c 0,-5.85691 0,-11.76546 0,-17.71604 m 0,-17.71575 c 0,-5.87743 0,-11.78585 0,-17.71635 m 0,-17.71611 c 0,-5.8955 0,-11.80391 0,-17.71662 m 0,-17.71669 c 0,-5.91245 0,-11.82059 0,-17.71583 m 0,-17.71691 c 0,-5.93051 0,-11.83894 0,-17.71638 m 0,-17.71674 c 0,-5.95052 0,-11.85901 0,-17.71585 m 0,-17.71639 c 0,-5.97566 0,-11.8848 0,-17.71659 m 0,-17.7164 c 0,-6.00944 0,-11.91919 0,-17.7163 m 0,-17.716 c 0,-6.06173 0,-11.97293 0,-17.71673 m 0,-17.716125 c 0,-6.158313 0,-12.072791 0,-17.717956 m 0,-17.717625 c 0,-6.408857 0,-12.332398 0,-17.717537 m 0,-17.716038 c 0,-11.3845654 0,-17.716739 0,-17.716739"
         style="fill:none;stroke:#44aaff;stroke-dashoffset:17.71653557"
         id="path3440" />
      <path
         inkscape:connector-curvature="0"
         d="m 908.29528,-7.5866 c 0,0 0,-6.432919 0,-17.716244 m 0,-17.716776 c 0,-5.408335 0,-11.337114 0,-17.716036 m 0,-17.717077 c 0,-5.670326 0,-11.5877 0,-17.7165 m 0,-17.716127 c 0,-5.77288 0,-11.68655 0,-17.71599 m 0,-17.71684 c 0,-5.83193 0,-11.74419 0,-17.71624 m 0,-17.71592 c 0,-5.87487 0,-11.78688 0,-17.71741 m 0,-17.71588 c 0,-5.91139 0,-11.82279 0,-17.71591 m 0,-17.71693 c 0,-5.94997 0,-11.86183 0,-17.71624 m 0,-17.71757 c 0,-5.99806 0,-11.91115 0,-17.7169 m 0,-17.71672 c 0,-6.07101 0,-11.98631 0,-17.71677 m 0,-17.71664 c 0,-6.21852 0,-12.13991 0,-17.71719 m 0,-17.71536 c 0,-6.76556 0,-12.71671 0,-17.71583 m 0,-17.7178 c 0,0 0,0 0,0"
         style="fill:none;stroke:#44aaff;stroke-dashoffset:17.71653557"
         id="path3442" />
      <path
         inkscape:connector-curvature="0"
         d="m 922.46851,-439.8701 c 0,0 0,-6.33185 0,-17.71588 m 0,-17.71618 c 0,-5.38506 0,-11.30851 0,-17.71727 m 0,-17.71729 c 0,-5.64493 0,-11.55915 0,-17.7172 m 0,-17.7168 c 0,-5.7437 0,-11.65481 0,-17.71644 m 0,-17.71617 c 0,-5.79716 0,-11.70697 0,-17.71648 m 0,-17.71643 c 0,-5.83179 0,-11.74093 0,-17.7166 m 0,-17.71629 c 0,-5.8569 0,-11.76545 0,-17.71604 m 0,-17.71575 c 0,-5.87742 0,-11.78585 0,-17.71635 m 0,-17.7161 c 0,-5.8955 0,-11.80391 0,-17.71662 m 0,-17.71669 c 0,-5.91245 0,-11.82059 0,-17.71583 m 0,-17.7169 c 0,-5.93051 0,-11.83895 0,-17.71639 m 0,-17.71674 c 0,-5.95052 0,-11.859 0,-17.71585 m 0,-17.71638 c 0,-5.97566 0,-11.8848 0,-17.71659 m 0,-17.7164 c 0,-6.00944 0,-11.91919 0,-17.71629 m 0,-17.71601 c 0,-6.06173 0,-11.97293 0,-17.71673 m 0,-17.71612 c 0,-6.15831 0,-12.07279 0,-17.71796 m 0,-17.71763 c 0,-6.4088 0,-12.3324 0,-17.7175 m 0,-17.7161 c 0,-11.3845 0,-17.7167 0,-17.7167"
         style="fill:none;stroke:#44aaff;stroke-dashoffset:17.71653557"
         id="path3444" />
      <path
         inkscape:connector-curvature="0"
         d="m 901.20867,-1074.1221 c 0,0 0,-6.4329 0,-17.7162 m 0,-17.7168 c 0,-5.4083 0,-11.3371 0,-17.716 m 0,-17.7171 c 0,-5.6703 0,-11.5877 0,-17.7165 m 0,-17.7161 c 0,-5.7729 0,-11.6866 0,-17.716 m 0,-17.7169 c 0,-5.8319 0,-11.7441 0,-17.7162 m 0,-17.7159 c 0,-5.8749 0,-11.7869 0,-17.7174 m 0,-17.7159 c 0,-5.9114 0,-11.8228 0,-17.7159 m 0,-17.7169 c 0,-5.95 0,-11.8618 0,-17.7163 m 0,-17.7175 c 0,-5.9981 0,-11.9112 0,-17.7169 m 0,-17.7167 c 0,-6.071 0,-11.9863 0,-17.7168 m 0,-17.7166 c 0,-6.2186 0,-12.1399 0,-17.7172 m 0,-17.7154 c 0,-6.7662 0,-12.7179 0,-17.7173 m 0,-17.7163"
         style="fill:none;stroke:#44aaff;stroke-dashoffset:17.71653557"
         id="path3446" />
      <path
         inkscape:connector-curvature="0"
         d="m 463.25591,619.57874 c 0,0 0,-6.33185 0,-17.71588 m 0,-17.71619 c 0,-5.38505 0,-11.3085 0,-17.71727 m 0,-17.71729 c 0,-5.64492 0,-11.55915 0,-17.71719 m 0,-17.7168 c 0,-5.74371 0,-11.65482 0,-17.71644 m 0,-17.71617 c 0,-5.79717 0,-11.70698 0,-17.71649 m 0,-17.71643 c 0,-5.83179 0,-11.74093 0,-17.7166 m 0,-17.71629 c 0,-5.85691 0,-11.76546 0,-17.71604 m 0,-17.71575 c 0,-5.87743 0,-11.78585 0,-17.71635 m 0,-17.71611 c 0,-5.8955 0,-11.80391 0,-17.71662 m 0,-17.71669 c 0,-5.91245 0,-11.82059 0,-17.71583 m 0,-17.71691 c 0,-5.93051 0,-11.83894 0,-17.71638 m 0,-17.71674 c 0,-5.95052 0,-11.85901 0,-17.71585 m 0,-17.71639 c 0,-5.97566 0,-11.8848 0,-17.71659 m 0,-17.7164 c 0,-6.00944 0,-11.91919 0,-17.7163 m 0,-17.716 c 0,-6.06173 0,-11.97293 0,-17.71673 m 0,-17.716125 c 0,-6.158313 0,-12.072791 0,-17.717956 m 0,-17.717625 c 0,-6.408857 0,-12.332398 0,-17.717537 m 0,-17.716038 c 0,-11.3845654 0,-17.716739 0,-17.716739"
         style="fill:none;stroke:#44aaff;stroke-dashoffset:17.71653557"
         id="path3448" />
      <path
         inkscape:connector-curvature="0"
         d="m 443.41339,619.57874 c 0,0 0,-6.33185 0,-17.71588 m 0,-17.71619 c 0,-5.38505 0,-11.3085 0,-17.71727 m 0,-17.71729 c 0,-5.64492 0,-11.55915 0,-17.71719 m 0,-17.7168 c 0,-5.74371 0,-11.65482 0,-17.71644 m 0,-17.71617 c 0,-5.79717 0,-11.70698 0,-17.71649 m 0,-17.71643 c 0,-5.83179 0,-11.74093 0,-17.7166 m 0,-17.71629 c 0,-5.85691 0,-11.76546 0,-17.71604 m 0,-17.71575 c 0,-5.87743 0,-11.78585 0,-17.71635 m 0,-17.71611 c 0,-5.8955 0,-11.80391 0,-17.71662 m 0,-17.71669 c 0,-5.91245 0,-11.82059 0,-17.71583 m 0,-17.71691 c 0,-5.93051 0,-11.83894 0,-17.71638 m 0,-17.71674 c 0,-5.95052 0,-11.85901 0,-17.71585 m 0,-17.71639 c 0,-5.97566 0,-11.8848 0,-17.71659 m 0,-17.7164 c 0,-6.00944 0,-11.91919 0,-17.7163 m 0,-17.716 c 0,-6.06173 0,-11.97293 0,-17.71673 m 0,-17.716125 c 0,-6.158313 0,-12.072791 0,-17.717956 m 0,-17.717625 c 0,-6.408857 0,-12.332398 0,-17.717537 m 0,-17.716038 c 0,-11.3845654 0,-17.716739 0,-17.716739"
         style="fill:none;stroke:#44aaff;stroke-dashoffset:17.71653557"
         id="path3450" />
      <path
         inkscape:connector-curvature="0"
         d="m 1549.6339,1051.8622 c 0,0 0,-6.4329 0,-17.7162 m 0,-17.7168 c 0,-5.4084 0,-11.3371 0,-17.71605 m 0,-17.71708 c 0,-5.67032 0,-11.58769 0,-17.71649 m 0,-17.71613 c 0,-5.77287 0,-11.68655 0,-17.71599 m 0,-17.71683 c 0,-5.83193 0,-11.74419 0,-17.71625 m 0,-17.71591 c 0,-5.87487 0,-11.78688 0,-17.71741 m 0,-17.71587 c 0,-5.9114 0,-11.8228 0,-17.71591 m 0,-17.71693 c 0,-5.94997 0,-11.86183 0,-17.71623 m 0,-17.71758 c 0,-5.99806 0,-11.91114 0,-17.7169 m 0,-17.71672 c 0,-6.071 0,-11.9863 0,-17.71676 m 0,-17.71664 c 0,-6.21852 0,-12.13991 0,-17.71718 m 0,-17.71537 c 0,-6.76556 0,-12.7167 0,-17.71582 m 0,-17.7178"
         style="fill:none;stroke:#44aaff;stroke-dashoffset:17.71653557"
         id="path3452" />
      <path
         inkscape:connector-curvature="0"
         d="m 1562.3898,619.57874 c 0,0 0,-6.33185 0,-17.71588 m 0,-17.71619 c 0,-5.38505 0,-11.3085 0,-17.71727 m 0,-17.71729 c 0,-5.64492 0,-11.55915 0,-17.71719 m 0,-17.7168 c 0,-5.74371 0,-11.65482 0,-17.71644 m 0,-17.71617 c 0,-5.79717 0,-11.70698 0,-17.71649 m 0,-17.71643 c 0,-5.83179 0,-11.74093 0,-17.7166 m 0,-17.71629 c 0,-5.85691 0,-11.76546 0,-17.71604 m 0,-17.71575 c 0,-5.87743 0,-11.78585 0,-17.71635 m 0,-17.71611 c 0,-5.8955 0,-11.80391 0,-17.71662 m 0,-17.71669 c 0,-5.91245 0,-11.82059 0,-17.71583 m 0,-17.71691 c 0,-5.93051 0,-11.83894 0,-17.71638 m 0,-17.71674 c 0,-5.95052 0,-11.85901 0,-17.71585 m 0,-17.71639 c 0,-5.97566 0,-11.8848 0,-17.71659 m 0,-17.7164 c 0,-6.00944 0,-11.91919 0,-17.7163 m 0,-17.716 c 0,-6.06173 0,-11.97293 0,-17.71673 m 0,-17.716125 c 0,-6.158313 0,-12.072791 0,-17.717956 m 0,-17.717625 c 0,-6.408857 0,-12.332398 0,-17.717537 m 0,-17.716038 c 0,-11.3845654 0,-17.716739 0,-17.716739"
         style="fill:none;stroke:#44aaff;stroke-dashoffset:17.71653557"
         id="path3454" />
      <path
         inkscape:connector-curvature="0"
         d="m 1549.6339,-7.5866 c 0,0 0,-6.432919 0,-17.716244 m 0,-17.716776 c 0,-5.408335 0,-11.337114 0,-17.716036 m 0,-17.717077 c 0,-5.670326 0,-11.5877 0,-17.7165 m 0,-17.716127 c 0,-5.77288 0,-11.68655 0,-17.71599 m 0,-17.71684 c 0,-5.83193 0,-11.74419 0,-17.71624 m 0,-17.71592 c 0,-5.87487 0,-11.78688 0,-17.71741 m 0,-17.71588 c 0,-5.91139 0,-11.82279 0,-17.71591 m 0,-17.71693 c 0,-5.94997 0,-11.86183 0,-17.71624 m 0,-17.71757 c 0,-5.99806 0,-11.91115 0,-17.7169 m 0,-17.71672 c 0,-6.07101 0,-11.98631 0,-17.71677 m 0,-17.71664 c 0,-6.21852 0,-12.13991 0,-17.71719 m 0,-17.71536 c 0,-6.76556 0,-12.71671 0,-17.71583 m 0,-17.7178 c 0,0 0,0 0,0"
         style="fill:none;stroke:#44aaff;stroke-dashoffset:17.71653557"
         id="path3456" />
      <path
         inkscape:connector-curvature="0"
         d="m 1535.4606,-439.8701 c 0,0 0,-6.33185 0,-17.71588 m 0,-17.71618 c 0,-5.38506 0,-11.30851 0,-17.71727 m 0,-17.71729 c 0,-5.64493 0,-11.55915 0,-17.7172 m 0,-17.7168 c 0,-5.7437 0,-11.65481 0,-17.71644 m 0,-17.71617 c 0,-5.79716 0,-11.70697 0,-17.71648 m 0,-17.71643 c 0,-5.83179 0,-11.74093 0,-17.7166 m 0,-17.71629 c 0,-5.8569 0,-11.76545 0,-17.71604 m 0,-17.71575 c 0,-5.87742 0,-11.78585 0,-17.71635 m 0,-17.7161 c 0,-5.8955 0,-11.80391 0,-17.71662 m 0,-17.71669 c 0,-5.91245 0,-11.82059 0,-17.71583 m 0,-17.7169 c 0,-5.93051 0,-11.83895 0,-17.71639 m 0,-17.71674 c 0,-5.95052 0,-11.859 0,-17.71585 m 0,-17.71638 c 0,-5.97566 0,-11.8848 0,-17.71659 m 0,-17.7164 c 0,-6.00944 0,-11.91919 0,-17.71629 m 0,-17.71601 c 0,-6.06173 0,-11.97293 0,-17.71673 m 0,-17.71612 c 0,-6.15831 0,-12.07279 0,-17.71796 m 0,-17.71763 c 0,-6.4088 0,-12.3324 0,-17.7175 m 0,-17.7161 c 0,-11.3845 0,-17.7167 0,-17.7167"
         style="fill:none;stroke:#44aaff;stroke-dashoffset:17.71653557"
         id="path3458" />
      <path
         inkscape:connector-curvature="0"
         d="m 1556.7205,-1074.1221 c 0,0 0,-6.4329 0,-17.7162 m 0,-17.7168 c 0,-5.4083 0,-11.3371 0,-17.716 m 0,-17.7171 c 0,-5.6703 0,-11.5877 0,-17.7165 m 0,-17.7161 c 0,-5.7729 0,-11.6866 0,-17.716 m 0,-17.7169 c 0,-5.8319 0,-11.7441 0,-17.7162 m 0,-17.7159 c 0,-5.8749 0,-11.7869 0,-17.7174 m 0,-17.7159 c 0,-5.9114 0,-11.8228 0,-17.7159 m 0,-17.7169 c 0,-5.95 0,-11.8618 0,-17.7163 m 0,-17.7175 c 0,-5.9981 0,-11.9112 0,-17.7169 m 0,-17.7167 c 0,-6.071 0,-11.9863 0,-17.7168 m 0,-17.7166 c 0,-6.2186 0,-12.1399 0,-17.7172 m 0,-17.7154 c 0,-6.7662 0,-12.7179 0,-17.7173 m 0,-17.7163"
         style="fill:none;stroke:#44aaff;stroke-dashoffset:17.71653557"
         id="path3460" />
      <path
         inkscape:connector-curvature="0"
         d="m 1994.6733,619.57874 c 0,0 0,-6.33185 0,-17.71588 m 0,-17.71619 c 0,-5.38505 0,-11.3085 0,-17.71727 m 0,-17.71729 c 0,-5.64492 0,-11.55915 0,-17.71719 m 0,-17.7168 c 0,-5.74371 0,-11.65482 0,-17.71644 m 0,-17.71617 c 0,-5.79717 0,-11.70698 0,-17.71649 m 0,-17.71643 c 0,-5.83179 0,-11.74093 0,-17.7166 m 0,-17.71629 c 0,-5.85691 0,-11.76546 0,-17.71604 m 0,-17.71575 c 0,-5.87743 0,-11.78585 0,-17.71635 m 0,-17.71611 c 0,-5.8955 0,-11.80391 0,-17.71662 m 0,-17.71669 c 0,-5.91245 0,-11.82059 0,-17.71583 m 0,-17.71691 c 0,-5.93051 0,-11.83894 0,-17.71638 m 0,-17.71674 c 0,-5.95052 0,-11.85901 0,-17.71585 m 0,-17.71639 c 0,-5.97566 0,-11.8848 0,-17.71659 m 0,-17.7164 c 0,-6.00944 0,-11.91919 0,-17.7163 m 0,-17.716 c 0,-6.06173 0,-11.97293 0,-17.71673 m 0,-17.716125 c 0,-6.158313 0,-12.072791 0,-17.717956 m 0,-17.717625 c 0,-6.408857 0,-12.332398 0,-17.717537 m 0,-17.716038 c 0,-11.3845654 0,-17.716739 0,-17.716739"
         style="fill:none;stroke:#44aaff;stroke-dashoffset:17.71653557"
         id="path3462" />
      <path
         inkscape:connector-curvature="0"
         d="m 2014.5158,619.57874 c 0,0 0,-6.33185 0,-17.71588 m 0,-17.71619 c 0,-5.38505 0,-11.3085 0,-17.71727 m 0,-17.71729 c 0,-5.64492 0,-11.55915 0,-17.71719 m 0,-17.7168 c 0,-5.74371 0,-11.65482 0,-17.71644 m 0,-17.71617 c 0,-5.79717 0,-11.70698 0,-17.71649 m 0,-17.71643 c 0,-5.83179 0,-11.74093 0,-17.7166 m 0,-17.71629 c 0,-5.85691 0,-11.76546 0,-17.71604 m 0,-17.71575 c 0,-5.87743 0,-11.78585 0,-17.71635 m 0,-17.71611 c 0,-5.8955 0,-11.80391 0,-17.71662 m 0,-17.71669 c 0,-5.91245 0,-11.82059 0,-17.71583 m 0,-17.71691 c 0,-5.93051 0,-11.83894 0,-17.71638 m 0,-17.71674 c 0,-5.95052 0,-11.85901 0,-17.71585 m 0,-17.71639 c 0,-5.97566 0,-11.8848 0,-17.71659 m 0,-17.7164 c 0,-6.00944 0,-11.91919 0,-17.7163 m 0,-17.716 c 0,-6.06173 0,-11.97293 0,-17.71673 m 0,-17.716125 c 0,-6.158313 0,-12.072791 0,-17.717956 m 0,-17.717625 c 0,-6.408857 0,-12.332398 0,-17.717537 m 0,-17.716038 c 0,-11.3845654 0,-17.716739 0,-17.716739"
         style="fill:none;stroke:#44aaff;stroke-dashoffset:17.71653557"
         id="path3464" />
      <path
         inkscape:connector-curvature="0"
         d="m 908.29528,623.12204 c 0,0 6.32445,0 17.71726,0 m 17.7167,0 c 5.38328,0 11.30625,0 17.71708,0 m 17.71553,0 c 5.64295,0 11.55674,0 17.7166,0 m 17.71615,0 c 5.7419,0 11.653,0 17.717,0 m 17.7171,0 c 5.795,0 11.7046,0 17.7165,0 m 17.7174,0 c 5.8291,0 11.738,0 17.7162,0 m 17.7164,0 c 5.8542,0 11.7629,0 17.7167,0 m 17.7171,0 c 5.874,0 11.7824,0 17.7165,0 m 17.717,0 c 5.8911,0 11.7991,0 17.716,0 m 17.7168,0 c 5.9073,0 11.8153,0 17.7162,0 m 17.7157,0 c 5.9239,0 11.8323,0 17.717,0 m 17.717,0 c 5.9416,0 11.8499,0 17.7163,0 m 17.7172,0 c 5.9631,0 11.872,0 17.7172,0 m 17.7166,0 c 5.99,0 11.899,0 17.7158,0 m 17.7163,0 c 6.0293,0 11.939,0 17.7156,0 m 17.7161,0 c 6.0939,0 12.0054,0 17.7156,0 m 17.7166,0 c 6.2274,0 12.1435,0 17.7171,0 m 17.7159,0 c 6.684,0 12.6185,0 17.7158,0 m 17.7175,0 c 2.3268,0 3.5431,0 3.5431,0"
         style="fill:none;stroke:#44aaff;stroke-dashoffset:17.71653557"
         id="path3466" />
      <path
         inkscape:connector-curvature="0"
         d="m 908.29528,-4.0433 c 0,0 6.32445,0 17.71726,0 m 17.7167,0 c 5.38328,0 11.30625,0 17.71708,0 m 17.71553,0 c 5.64295,0 11.55674,0 17.7166,0 m 17.71615,0 c 5.7419,0 11.653,0 17.717,0 m 17.7171,0 c 5.795,0 11.7046,0 17.7165,0 m 17.7174,0 c 5.8291,0 11.738,0 17.7162,0 m 17.7164,0 c 5.8542,0 11.7629,0 17.7167,0 m 17.7171,0 c 5.874,0 11.7824,0 17.7165,0 m 17.717,0 c 5.8911,0 11.7991,0 17.716,0 m 17.7168,0 c 5.9073,0 11.8153,0 17.7162,0 m 17.7157,0 c 5.9239,0 11.8323,0 17.717,0 m 17.717,0 c 5.9416,0 11.8499,0 17.7163,0 m 17.7172,0 c 5.9631,0 11.872,0 17.7172,0 m 17.7166,0 c 5.99,0 11.899,0 17.7158,0 m 17.7163,0 c 6.0293,0 11.939,0 17.7156,0 m 17.7161,0 c 6.0939,0 12.0054,0 17.7156,0 m 17.7166,0 c 6.2274,0 12.1435,0 17.7171,0 m 17.7159,0 c 6.684,0 12.6185,0 17.7158,0 m 17.7175,0 c 2.3268,0 3.5431,0 3.5431,0"
         style="fill:none;stroke:#44aaff;stroke-dashoffset:17.71653557"
         id="path3468" />
      <path
         inkscape:connector-curvature="0"
         d="m 922.46851,-436.3268 c 0,0 6.33486,0 17.7166,0 m 17.71566,0 c 5.38573,0 11.3094,0 17.7175,0 m 17.71659,0 c 5.64528,0 11.55924,0 17.71634,0 m 17.7167,0 c 5.7443,0 11.6554,0 17.7161,0 m 17.7157,0 c 5.7981,0 11.7082,0 17.7171,0 m 17.7175,0 c 5.8325,0 11.7415,0 17.7161,0 m 17.7172,0 c 5.858,0 11.7666,0 17.7161,0 m 17.7163,0 c 5.8785,0 11.7869,0 17.716,0 m 17.7173,0 c 5.897,0 11.8055,0 17.7166,0 m 17.7161,0 c 5.9148,0 11.8235,0 17.7172,0 m 17.7161,0 c 5.9334,0 11.8423,0 17.7174,0 m 17.7159,0 c 5.9543,0 11.8631,0 17.7166,0 m 17.7168,0 c 5.9809,0 11.8905,0 17.7174,0 m 17.7169,0 c 6.017,0 11.9268,0 17.7158,0 m 17.7167,0 c 6.075,0 11.9864,0 17.7159,0 m 17.7162,0 c 6.1873,0 12.1023,0 17.7162,0 m 17.7161,0 c 6.5171,0 12.4451,0 17.7166,0 m 17.7159,0 c 6.8926,0 10.6309,0 10.6309,0"
         style="fill:none;stroke:#44aaff;stroke-dashoffset:17.71653557"
         id="path3470" />
      <path
         inkscape:connector-curvature="0"
         d="m 922.46851,-1070.5787 c 0,0 6.33486,0 17.7166,0 m 17.71566,0 c 5.38573,0 11.3094,0 17.7175,0 m 17.71659,0 c 5.64528,0 11.55924,0 17.71634,0 m 17.7167,0 c 5.7443,0 11.6554,0 17.7161,0 m 17.7157,0 c 5.7981,0 11.7082,0 17.7171,0 m 17.7175,0 c 5.8325,0 11.7415,0 17.7161,0 m 17.7172,0 c 5.858,0 11.7666,0 17.7161,0 m 17.7163,0 c 5.8785,0 11.7869,0 17.716,0 m 17.7173,0 c 5.897,0 11.8055,0 17.7166,0 m 17.7161,0 c 5.9148,0 11.8235,0 17.7172,0 m 17.7161,0 c 5.9334,0 11.8423,0 17.7174,0 m 17.7159,0 c 5.9543,0 11.8631,0 17.7166,0 m 17.7168,0 c 5.9809,0 11.8905,0 17.7174,0 m 17.7169,0 c 6.017,0 11.9268,0 17.7158,0 m 17.7167,0 c 6.075,0 11.9864,0 17.7159,0 m 17.7162,0 c 6.1873,0 12.1023,0 17.7162,0 m 17.7161,0 c 6.5171,0 12.4451,0 17.7166,0 m 17.7159,0 c 6.8926,0 10.6309,0 10.6309,0"
         style="fill:none;stroke:#44aaff;stroke-dashoffset:17.71653557"
         id="path3472" />
    </g>
  </g>
</svg>
