<?xml version="1.0" encoding="UTF-8" standalone="no"?>
<!-- Created with Inkscape (http://www.inkscape.org/) -->

<svg
   xmlns:dc="http://purl.org/dc/elements/1.1/"
   xmlns:cc="http://creativecommons.org/ns#"
   xmlns:rdf="http://www.w3.org/1999/02/22-rdf-syntax-ns#"
   xmlns:svg="http://www.w3.org/2000/svg"
   xmlns="http://www.w3.org/2000/svg"
   xmlns:sodipodi="http://sodipodi.sourceforge.net/DTD/sodipodi-0.dtd"
   xmlns:inkscape="http://www.inkscape.org/namespaces/inkscape"
   width="210mm"
   height="297mm"
   viewBox="0 0 744.09448819 1052.3622047"
   id="svg2"
   version="1.1"
   inkscape:version="0.91 r13725"
   sodipodi:docname="2brbrd1.svg">
  <defs
     id="defs4" />
  <sodipodi:namedview
     id="base"
     pagecolor="#ffffff"
     bordercolor="#666666"
     borderopacity="1.0"
     inkscape:pageopacity="0.0"
     inkscape:pageshadow="2"
     inkscape:zoom="1.12"
     inkscape:cx="447.8239"
     inkscape:cy="156.21229"
     inkscape:document-units="mm"
     inkscape:current-layer="layer1"
     showgrid="true"
     inkscape:window-width="1366"
     inkscape:window-height="705"
     inkscape:window-x="-8"
     inkscape:window-y="-8"
     inkscape:window-maximized="1"
     inkscape:snap-bbox="true"
     inkscape:bbox-nodes="true"
     inkscape:object-nodes="true"
     showguides="true"
     inkscape:guide-bbox="true"
     inkscape:snap-smooth-nodes="false"
     inkscape:snap-midpoints="false"
     inkscape:snap-global="true">
    <inkscape:grid
       type="xygrid"
       id="grid3336"
       units="mm"
       spacingx="1.7716536"
       spacingy="1.7716536"
       dotted="true"
       empspacing="10" />
    <inkscape:grid
       type="xygrid"
       id="grid5100"
       units="mm"
       spacingx="3.5433071"
       spacingy="3.5433072" />
    <sodipodi:guide
       position="263.97639,53.149608"
       orientation="0,1"
       id="guide4174" />
    <sodipodi:guide
       position="280.7687,53.669086"
       orientation="0,1"
       id="guide4180" />
    <sodipodi:guide
       position="17.716536,92.125987"
       orientation="1,0"
       id="guide4184" />
    <sodipodi:guide
       position="46.062992,187.79528"
       orientation="0,1"
       id="guide4224" />
    <sodipodi:guide
       position="74.409449,223.22835"
       orientation="0,1"
       id="guide4256" />
    <sodipodi:guide
       position="70.866142,226.77166"
       orientation="0,1"
       id="guide4258" />
    <sodipodi:guide
       position="63.779528,262.20473"
       orientation="0,1"
       id="guide4260" />
    <sodipodi:guide
       position="239.17324,279.92127"
       orientation="0,1"
       id="guide4262" />
    <sodipodi:guide
       position="53.149606,364.96064"
       orientation="0,1"
       id="guide4183" />
    <sodipodi:guide
       position="317.12599,65.551183"
       orientation="0,1"
       id="guide4206" />
    <sodipodi:guide
       position="476.57482,166.53544"
       orientation="0,1"
       id="guide4204" />
    <sodipodi:guide
       position="46.062992,478.34647"
       orientation="0,1"
       id="guide4225" />
    <sodipodi:guide
       position="67.322837,460.62994"
       orientation="0,1"
       id="guide4242" />
    <sodipodi:guide
       position="46.062992,403.93702"
       orientation="0,1"
       id="guide4244" />
    <sodipodi:guide
       position="70.866144,425.19686"
       orientation="1,0"
       id="guide4250" />
    <sodipodi:guide
       position="143.50394,411.02364"
       orientation="1,0"
       id="guide4285" />
    <sodipodi:guide
       position="168.30709,396.85041"
       orientation="1,0"
       id="guide4287" />
    <sodipodi:guide
       position="225.00001,396.85041"
       orientation="1,0"
       id="guide4289" />
    <sodipodi:guide
       position="200.19686,391.53545"
       orientation="1,0"
       id="guide4291" />
    <sodipodi:guide
       position="145.27559,550.98427"
       orientation="0,1"
       id="guide4230" />
    <sodipodi:guide
       position="244.48819,506.69293"
       orientation="0,1"
       id="guide4232" />
    <sodipodi:guide
       position="88.58268,597.04726"
       orientation="0,1"
       id="guide4234" />
    <sodipodi:guide
       position="120.47244,602.36222"
       orientation="0,1"
       id="guide4236" />
    <sodipodi:guide
       position="258.66142,526.18112"
       orientation="0,1"
       id="guide4253" />
    <sodipodi:guide
       position="256.88977,531.49608"
       orientation="0,1"
       id="guide4255" />
  </sodipodi:namedview>
  <metadata
     id="metadata7">
    <rdf:RDF>
      <cc:Work
         rdf:about="">
        <dc:format>image/svg+xml</dc:format>
        <dc:type
           rdf:resource="http://purl.org/dc/dcmitype/StillImage" />
        <dc:title />
      </cc:Work>
    </rdf:RDF>
  </metadata>
  <g
     inkscape:label="Layer 1"
     inkscape:groupmode="layer"
     id="layer1">
    <path
       style="fill:#ff7f2a;fill-opacity:1;stroke:none;stroke-width:1.77165353;stroke-linejoin:round;stroke-miterlimit:4;stroke-dasharray:none;stroke-dashoffset:8;stroke-opacity:1"
       d="m 56.69186,1020.4717 7e-5,5.3139 5.31496,0 -10e-6,19.4892 -1.77165,0 5.1e-4,7.0874 7.08593,0 1.7e-4,-7.0874 -1.77165,0 5e-5,-19.4892 5.31495,0 -1e-4,19.4892 -1.77164,0 -2.9e-4,7.0874 7.08789,0 -9.9e-4,-7.0874 -1.77166,0 1.1e-4,-19.4892 5.31496,0 -1e-4,19.4892 -1.77166,0 8.2e-4,7.0874 7.08594,0 -1.4e-4,-7.0874 -1.77166,0 10e-5,-19.4892 5.31496,0 -10e-5,19.4892 -1.77165,0 -2e-5,7.0874 7.08789,0 -0.001,-7.0874 -1.77166,0 1e-4,-19.4892 5.31496,0 -6e-5,19.4892 -1.77165,0 0.001,7.0874 7.08594,0 -3.7e-4,-7.0874 -1.77165,0 6e-5,-19.4892 5.31499,10e-4 0,-5.315 -5.31499,-2e-4 -6e-5,-19.488 1.77165,0 3.7e-4,-7.08608 -7.08594,0 -0.001,7.08608 1.77165,0 6e-5,19.488 -5.31496,0 -6e-5,-19.488 1.77166,0 2.1e-4,-7.08658 -7.08668,5e-4 -1.5e-4,7.08608 1.77165,0 6e-5,19.488 -5.31496,0 -6e-5,-19.488 1.77166,0 3.1e-4,-7.08608 -7.08594,0 -9.9e-4,7.08608 1.77166,0 6e-5,19.488 -5.31496,0 -7e-5,-19.488 1.77166,0 10e-4,-7.08608 -7.08789,0 1.2e-4,7.08608 1.77164,0 6e-5,19.488 -5.31495,0 -6e-5,-19.488 1.77165,0 5e-5,-7.08608 -7.08593,0 -5.2e-4,7.08608 1.77165,0 0,8.8583 -5.31496,0 0,1.7717 -7.08661,0 0,-1.7717 -5.31496,0 0,-8.8583 1.77165,0 2.6e-4,-7.08633 -7.08594,0 -9.4e-4,7.08633 1.77166,0 6e-5,19.488 -5.31496,0 -7e-5,-19.488 1.77166,0 10e-4,-7.08633 -7.0879,0 1.8e-4,7.08633 1.77165,0 6e-5,19.488 -5.31496,0 -6e-5,-19.488 1.77165,0 0,-7.08633 -7.08594,0 -5.5e-4,7.08633 1.77153,0 6e-5,19.488 -5.31496,0 -6e-5,-19.488 1.77165,0 8.5e-4,-7.08633 -7.08789,0 4.3e-4,7.08633 1.77165,0 6e-5,19.488 -5.31496,0 -6e-5,-19.488 1.77165,0 -2.6e-4,-7.08633 -7.08593,0 -4.2e-4,7.08633 1.77166,0 6e-5,19.488 -5.31421,0 0,5.3149 5.31423,-7e-4 -6e-5,19.4892 -1.77166,0 4e-4,7.0871 7.08593,0 2.8e-4,-7.0871 -1.77165,0 6e-5,-19.4892 5.31496,0 -6e-5,19.4892 -1.77165,0 -4.5e-4,7.0871 7.08789,0 -8.3e-4,-7.0871 -1.77165,0 6e-5,-19.4892 5.31496,0 -6e-5,19.4892 -1.77165,0 6.5e-4,7.0871 7.08594,0 2e-5,-7.0871 -1.77165,0 6e-5,-19.4892 5.31496,0 -6e-5,19.4892 -1.77165,0 -2e-4,7.0871 7.0879,0 -10e-4,-7.0871 -1.77165,0 6e-5,-19.4892 5.31496,0 -6e-5,19.4892 -1.77166,0 9.2e-4,7.0871 7.08594,0 -2.4e-4,-7.0871 -1.77165,0 6e-5,-19.4892 5.31495,0 -4e-5,-5.314 -5.31497,0 0,-3.5433 5.31497,0 -10e-6,-1.7716 7.08661,0 10e-6,1.7716 5.31496,0 0,3.5433 z"
       id="rect4322-7-5"
       inkscape:connector-curvature="0"
       sodipodi:nodetypes="ccccccccccccccccccccccccccccccccccccccccccccccccccccccccccccccccccccccccccccccccccccccccccccccccccccccccccccccccccccccccccccccccccccccccccccccccccccccccccccccccccccccccccccccccccccc" />
  </g>
</svg>
