<?xml version="1.0" encoding="UTF-8" standalone="no"?>
<!-- Created with Inkscape (http://www.inkscape.org/) -->

<svg
   xmlns:dc="http://purl.org/dc/elements/1.1/"
   xmlns:cc="http://creativecommons.org/ns#"
   xmlns:rdf="http://www.w3.org/1999/02/22-rdf-syntax-ns#"
   xmlns:svg="http://www.w3.org/2000/svg"
   xmlns="http://www.w3.org/2000/svg"
   xmlns:sodipodi="http://sodipodi.sourceforge.net/DTD/sodipodi-0.dtd"
   xmlns:inkscape="http://www.inkscape.org/namespaces/inkscape"
   width="297mm"
   height="210mm"
   viewBox="0 0 1052.3622 744.09448"
   id="svg2"
   version="1.1"
   inkscape:version="0.91 r13725"
   sodipodi:docname="gear-pa20-cp1.5-t12.svg">
  <sodipodi:namedview
     id="base"
     pagecolor="#ffffff"
     bordercolor="#666666"
     borderopacity="1.0"
     inkscape:pageopacity="0.0"
     inkscape:pageshadow="2"
     inkscape:zoom="12.671354"
     inkscape:cx="18.119179"
     inkscape:cy="2.5410683"
     inkscape:document-units="mm"
     inkscape:current-layer="layer1"
     showgrid="true"
     inkscape:window-width="1366"
     inkscape:window-height="705"
     inkscape:window-x="-8"
     inkscape:window-y="-8"
     inkscape:window-maximized="1"
     showguides="true"
     inkscape:guide-bbox="true"
     inkscape:snap-bbox="true"
     inkscape:bbox-nodes="true"
     inkscape:snap-bbox-edge-midpoints="true"
     inkscape:snap-bbox-midpoints="false"
     inkscape:snap-object-midpoints="false"
     inkscape:snap-global="true"
     inkscape:snap-grids="true"
     inkscape:object-nodes="true"
     inkscape:snap-smooth-nodes="true"
     inkscape:snap-center="true">
    <inkscape:grid
       spacingy="17.716535"
       spacingx="17.716536"
       units="mm"
       id="grid3333"
       type="xygrid"
       color="#e80007"
       opacity="0.96078431"
       empcolor="#ed0000"
       empopacity="0.25098039" />
    <inkscape:grid
       type="xygrid"
       id="grid4730"
       units="mm"
       spacingx="0.35433071"
       spacingy="0.35433071"
       empspacing="10" />
    <sodipodi:guide
       id="guide3393"
       orientation="744.0945,0"
       position="526.1811,0" />
    <sodipodi:guide
       id="guide3395"
       orientation="0,1052.3622"
       position="0,248.0315" />
    <sodipodi:guide
       id="guide3397"
       orientation="0,1052.3622"
       position="0,496.063" />
    <sodipodi:guide
       position="3.5433071,0"
       orientation="0,1"
       id="guide4140" />
    <sodipodi:guide
       position="0,0"
       orientation="1,0"
       id="guide4142" />
  </sodipodi:namedview>
  <defs
     id="defs4" />
  <metadata
     id="metadata7">
    <rdf:RDF>
      <cc:Work
         rdf:about="">
        <dc:format>image/svg+xml</dc:format>
        <dc:type
           rdf:resource="http://purl.org/dc/dcmitype/StillImage" />
        <dc:title />
      </cc:Work>
    </rdf:RDF>
  </metadata>
  <g
     transform="translate(0,-308.26772)"
     id="layer1"
     inkscape:groupmode="layer"
     inkscape:label="Layer 1"
     style="display:inline">
    <path
       inkscape:connector-curvature="0"
       style="fill:#ff2a2a;fill-opacity:1;stroke:none;stroke-width:1"
       d="m 8.36927,1051.1332 1.06818,-0.1568 0.62654,0.061 1.767,0.7999 0,1.0501 -1.767,0.7999 -0.62654,0.061 -1.06818,-0.1569 -0.50677,1.8913 1.00349,0.3982 0.51215,0.3661 1.13032,1.5762 -0.52505,0.9094 -1.93022,-0.1908 -0.57305,-0.2605 -0.84664,-0.6699 -1.38453,1.3845 0.66994,0.8466 0.26052,0.5731 0.19077,1.9302 -0.90941,0.5251 -1.57624,-1.1304 -0.36601,-0.5121 -0.39825,-1.0035 -1.8913,0.5068 0.15686,1.0682 -0.0609,0.6265 -0.7999,1.767 -1.0501,0 -0.7999,-1.767 -0.0609,-0.6265 0.15686,-1.0682 -1.8913,-0.5068 -0.39825,1.0035 -0.36601,0.5121 -1.57624,1.1304 -0.90941,-0.5251 0.19077,-1.9302 0.26052,-0.5731 0.66994,-0.8466 -1.38453,-1.3845 -0.84664,0.6699 -0.57305,0.2605 -1.93022,0.1908 -0.52505,-0.9094 1.13032,-1.5762 0.51215,-0.3661 1.00349,-0.3982 -0.50677,-1.8913 -1.06818,0.1569 -0.62654,-0.061 -1.767,-0.7999 0,-1.0501 1.767,-0.7999 0.62654,-0.061 1.06818,0.1568 0.50677,-1.8913 -1.00349,-0.3982 -0.51215,-0.366 -1.13032,-1.5763 0.52505,-0.9094 1.93022,0.1908 0.57305,0.2605 0.84664,0.6699 1.38453,-1.3845 -0.66994,-0.8466 -0.26052,-0.5731 -0.19077,-1.9302 0.90941,-0.5251 1.57624,1.1304 0.36601,0.5121 0.39825,1.0035 1.8913,-0.5068 -0.15686,-1.0681 0.0609,-0.6266 0.7999,-1.767 1.0501,0 0.7999,1.767 0.0609,0.6266 -0.15686,1.0681 1.8913,0.5068 0.39825,-1.0035 0.36601,-0.5121 1.57624,-1.1304 0.90941,0.5251 -0.19077,1.9302 -0.26052,0.5731 -0.66994,0.8466 1.38453,1.3845 0.84664,-0.6699 0.57305,-0.2605 1.93022,-0.1908 0.52505,0.9094 -1.13032,1.5763 -0.51215,0.366 -1.00349,0.3982 z"
       id="path4988-7-19" />
  </g>
</svg>
