<?xml version="1.0" encoding="UTF-8" standalone="no"?>
<!-- Created with Inkscape (http://www.inkscape.org/) -->

<svg
   xmlns:dc="http://purl.org/dc/elements/1.1/"
   xmlns:cc="http://creativecommons.org/ns#"
   xmlns:rdf="http://www.w3.org/1999/02/22-rdf-syntax-ns#"
   xmlns:svg="http://www.w3.org/2000/svg"
   xmlns="http://www.w3.org/2000/svg"
   xmlns:sodipodi="http://sodipodi.sourceforge.net/DTD/sodipodi-0.dtd"
   xmlns:inkscape="http://www.inkscape.org/namespaces/inkscape"
   width="297mm"
   height="210mm"
   viewBox="0 0 1052.3622 744.09448"
   id="svg2"
   version="1.1"
   inkscape:version="0.91 r13725"
   sodipodi:docname="gear-pa20-cp1.5-t47.svg">
  <sodipodi:namedview
     id="base"
     pagecolor="#ffffff"
     bordercolor="#666666"
     borderopacity="1.0"
     inkscape:pageopacity="0.0"
     inkscape:pageshadow="2"
     inkscape:zoom="8"
     inkscape:cx="-3.0720946"
     inkscape:cy="3.7297919"
     inkscape:document-units="mm"
     inkscape:current-layer="layer1"
     showgrid="true"
     inkscape:window-width="1366"
     inkscape:window-height="705"
     inkscape:window-x="-8"
     inkscape:window-y="-8"
     inkscape:window-maximized="1"
     showguides="true"
     inkscape:guide-bbox="true"
     inkscape:snap-bbox="true"
     inkscape:bbox-nodes="true"
     inkscape:snap-bbox-edge-midpoints="true"
     inkscape:snap-bbox-midpoints="false"
     inkscape:snap-object-midpoints="true"
     inkscape:snap-global="true"
     inkscape:snap-grids="true"
     inkscape:object-nodes="true"
     inkscape:snap-smooth-nodes="true"
     inkscape:snap-center="true">
    <inkscape:grid
       spacingy="17.716535"
       spacingx="17.716536"
       units="mm"
       id="grid3333"
       type="xygrid"
       color="#e80007"
       opacity="0.96078431"
       empcolor="#ed0000"
       empopacity="0.25098039" />
    <inkscape:grid
       type="xygrid"
       id="grid4730"
       units="mm"
       spacingx="0.35433071"
       spacingy="0.35433071"
       empspacing="10" />
    <sodipodi:guide
       id="guide3393"
       orientation="744.0945,0"
       position="526.1811,0" />
    <sodipodi:guide
       id="guide3395"
       orientation="0,1052.3622"
       position="0,248.0315" />
    <sodipodi:guide
       id="guide3397"
       orientation="0,1052.3622"
       position="0,496.063" />
    <sodipodi:guide
       position="24.80315,0"
       orientation="0,1"
       id="guide4154" />
    <sodipodi:guide
       position="0,21.259843"
       orientation="1,0"
       id="guide4156" />
  </sodipodi:namedview>
  <defs
     id="defs4" />
  <metadata
     id="metadata7">
    <rdf:RDF>
      <cc:Work
         rdf:about="">
        <dc:format>image/svg+xml</dc:format>
        <dc:type
           rdf:resource="http://purl.org/dc/dcmitype/StillImage" />
        <dc:title />
      </cc:Work>
    </rdf:RDF>
  </metadata>
  <g
     transform="translate(0,-308.26772)"
     id="layer1"
     inkscape:groupmode="layer"
     inkscape:label="Layer 1"
     style="display:inline">
    <path
       inkscape:connector-curvature="0"
       style="fill:#d45500;fill-opacity:1;stroke:none;stroke-width:1"
       d="m 36.862527,1042.8677 1.759058,0.059 1.811034,0.3116 0.267241,1.2777 -1.534314,1.0114 -1.587895,0.7592 0.221463,1.579 1.735481,0.293 1.753332,0.5503 0.09455,1.3019 -1.655414,0.7978 -1.674926,0.5408 0.009,1.5944 1.680927,0.5218 1.664346,0.779 -0.07981,1.3029 -1.746992,0.5701 -1.73205,0.3127 -0.203576,1.5814 1.596391,0.7411 1.545656,0.994 -0.252751,1.2806 -1.807396,0.3321 -1.758268,0.079 -0.412536,1.5401 1.483354,0.9473 1.3994,1.1911 -0.421204,1.2355 -1.835528,0.088 -1.753125,-0.156 -0.614126,1.4714 1.343858,1.1366 1.228144,1.367 -0.582116,1.1683 -1.830918,-0.1572 -1.716686,-0.3882 -0.804772,1.3764 1.18038,1.3055 1.034988,1.5185 -0.732651,1.0804 -1.793635,-0.3999 -1.64961,-0.6136 -0.981049,1.2569 0.995825,1.4512 0.823364,1.6429 -0.870108,0.9731 -1.72434,-0.6353 -1.553109,-0.8281 -1.13982,1.1149 0.793512,1.571 0.597039,1.738 -0.992032,0.8484 -1.624285,-0.8595 -1.428876,-1.0276 -1.278262,0.953 0.577031,1.6628 0.360076,1.802 -1.09627,0.7086 -1.495223,-1.0683 -1.279159,-1.2089 -1.393882,0.7741 0.350256,1.7249 0.116674,1.8339 -1.180933,0.5562 -1.339493,-1.2581 -1.106613,-1.3686 -1.484622,0.5814 0.117226,1.7562 -0.128813,1.8331 -1.24452,0.3938 -1.159863,-1.4254 -0.9143156,-1.5039 -1.5488786,0.3784 -0.1178816,1.7561 -0.3719971,1.7996 -1.2859068,0.2244 -0.9595269,-1.5673 -0.7056982,-1.6123 -1.585502,0.1685 -0.3508916,1.7248 -0.6085463,1.7339 -1.30433517,0.051 -0.74207976,-1.6811 -0.48449655,-1.6921 -1.59381972,-0.044 -0.5776414,1.6625 -0.8342277,1.6374 -1.2994995,-0.1233 -0.5113837,-1.7651 -0.254645,-1.7415 -1.5736966,-0.2563 -0.7940847,1.5707 -1.0450293,1.5116 -1.2714702,-0.2954 -0.271554,-1.8175 -0.02025,-1.7599 -1.525498,-0.4638 -0.996369,1.4509 -1.237165,1.3588 -1.220753,-0.4622 -0.02689,-1.8375 0.214507,-1.7469 -1.450072,-0.663 -1.180854,1.3052 -1.407251,1.1817 -1.148244,-0.6208 0.218263,-1.8246 0.445432,-1.7028 -1.348762,-0.8503 -1.344283,1.1361 -1.552202,0.9837 -1.055252,-0.7684 0.459513,-1.7793 0.66842,-1.6281 -1.2234,-1.0225 -1.483712,0.9467 -1.669469,0.768 -0.943425,-0.9021 0.692568,-1.7021 0.879466,-1.5246 -1.07619,-1.1765 -1.596663,0.7406 -1.75694,0.5387 -0.814766,-1.0199 0.913261,-1.5946 1.074827,-1.3938 -0.90979,-1.3094 -1.681125,0.5212 -1.813055,0.2996 -0.671565,-1.1193 1.117656,-1.4587 1.251003,-1.238 -0.727146,-1.419 -1.735583,0.2924 -1.836821,0.055 -0.516388,-1.1988 1.302115,-1.2967 1.404861,-1.0603 -0.531524,-1.5032 -1.759084,0.059 -1.827804,-0.19 -0.351987,-1.257 1.46334,-1.1116 1.533642,-0.8635 -0.326428,-1.5607 -1.751176,-0.1765 -1.786181,-0.4319 -0.181301,-1.2927 1.598434,-0.9066 1.635067,-0.6515 -0.115507,-1.5902 -1.712029,-0.4083 -1.712667,-0.6662 -0.0074,-1.3053 1.705016,-0.6855 1.707294,-0.4277 0.09749,-1.5914 -1.642326,-0.6329 -1.608589,-0.8885 0.166657,-1.2946 1.781167,-0.4521 1.749066,-0.1963 0.308742,-1.5643 -1.543318,-0.8461 -1.47582,-1.095 0.337734,-1.2609 1.825537,-0.2106 1.759627,0.038 0.51447,-1.5091 -1.416765,-1.0443 -1.316711,-1.2819 0.502779,-1.2046 1.837325,0.034 1.738793,0.2728 0.71104,-1.4271 -1.264943,-1.2238 -1.134101,-1.446 0.658855,-1.1269 1.816324,0.2792 1.686922,0.502 0.894906,-1.3196 -1.09053,-1.3814 -0.931262,-1.5843 0.803168,-1.029 1.762927,0.5188 1.604943,0.7224 1.06281,-1.1885 -0.896669,-1.5146 -0.711789,-1.6942 0.933157,-0.9127 1.67805,0.7491 1.494333,0.9299 1.211749,-1.0363 -0.686804,-1.6205 -0.479631,-1.774 1.046489,-0.7802 1.563248,0.966 1.357046,1.1208 1.339052,-0.8655 -0.46468,-1.6976 -0.2389,-1.8221 1.141145,-0.6338 1.42054,1.1658 1.195548,1.2917 1.442475,-0.6793 -0.234271,-1.7444 0.0061,-1.8377 1.215437,-0.476 1.252482,1.3447 1.01272,1.4395 1.520153,-0.481 3.23e-4,-1.76 0.250959,-1.8205 1.2680457,-0.3098 1.0620701,1.4997 0.8118199,1.5617 1.5706946,-0.2741 0.2349162,-1.7443 0.4913647,-1.7708 1.2980199,-0.138 0.8527073,1.6278 0.596436,1.6559 1.59321445,-0.062 0.46531078,-1.6975 0.72299545,-1.6894 1.30483542,0.036 0.6281268,1.727 0.3703998,1.7206 1.587306,0.1506 0.6874051,-1.6202 0.9417215,-1.578 1.2883673,0.2098 0.3923375,1.7953 0.1377569,1.7546 1.5530695,0.3609 0.8972271,-1.5142 1.143658,-1.4384 1.248895,0.3796 0.149563,1.8316 -0.09735,1.7574 1.491107,0.5646 1.091051,-1.3811 1.325171,-1.2732 1.187152,0.5428 -0.0959,1.8351 -0.330709,1.7287 1.40255,0.7584 1.26539,-1.2234 1.48304,-1.0851 1.104219,0.6961 -0.339645,1.806 -0.558179,1.6692 1.288961,0.9385 1.417158,-1.0437 1.614446,-0.8778 1.001573,0.8371 -0.577326,1.7446 -0.775676,1.5799 1.152368,1.1019 1.543633,-0.8456 1.717035,-0.6547 0.881076,0.9631 -0.804723,1.6521 -0.979335,1.4624 0.995221,1.2457 1.642559,-0.6323 1.788999,-0.4201 0.744821,1.072 -1.017732,1.5301 -1.165522,1.3189 0.820307,1.3672 1.712178,-0.4077 1.829024,-0.1779 0.595301,1.1617 -1.212598,1.3808 -1.330897,1.1517 0.630738,1.4644 1.751253,-0.1759 1.836404,0.067 0.435161,1.2307 -1.385818,1.2068 -1.472539,0.9641 z"
       id="path3918-2" />
  </g>
</svg>
