  0
SECTION
  2
HEADER
  9
$ACADVER
  1
AC1014
  9
$HANDSEED
  5
FFFF
  9
$MEASUREMENT
 70
     1
  0
ENDSEC
  0
SECTION
  2
TABLES
  0
TABLE
  2
VPORT
  5
8
330
0
100
AcDbSymbolTable
 70
     4
  0
VPORT
  5
2E
330
8
100
AcDbSymbolTableRecord
100
AcDbViewportTableRecord
  2
*ACTIVE
 70
     0
 10
0.0
 20
0.0
 11
1.0
 21
1.0
 12
210.0
 22
148.5
 13
0.0
 23
0.0
 14
10.0
 24
10.0
 15
10.0
 25
10.0
 16
0.0
 26
0.0
 36
1.0
 17
0.0
 27
0.0
 37
0.0
 40
341.0
 41
1.24
 42
50.0
 43
0.0
 44
0.0
 50
0.0
 51
0.0
 71
     0
 72
   100
 73
     1
 74
     3
 75
     0
 76
     0
 77
     0
 78
     0
  0
ENDTAB
  0
TABLE
  2
LTYPE
  5
5
330
0
100
AcDbSymbolTable
 70
     1
  0
LTYPE
  5
14
330
5
100
AcDbSymbolTableRecord
100
AcDbLinetypeTableRecord
  2
BYBLOCK
 70
     0
  3

 72
    65
 73
     0
 40
0.0
  0
LTYPE
  5
15
330
5
100
AcDbSymbolTableRecord
100
AcDbLinetypeTableRecord
  2
BYLAYER
 70
     0
  3

 72
    65
 73
     0
 40
0.0
  0
LTYPE
  5
16
330
5
100
AcDbSymbolTableRecord
100
AcDbLinetypeTableRecord
  2
CONTINUOUS
 70
     0
  3
Solid line
 72
    65
 73
     0
 40
0.0
  0
ENDTAB
  0
TABLE
  2
LAYER
  5
2
100
AcDbSymbolTable
 70
2
  0
LAYER
  5
50
100
AcDbSymbolTableRecord
100
AcDbLayerTableRecord
  2
0
 70
0
  6
CONTINUOUS
  0
LAYER
  5
51
100
AcDbSymbolTableRecord
100
AcDbLayerTableRecord
  2
Layer_1
 70
0
  6
CONTINUOUS
  0
ENDTAB
  0
TABLE
  2
STYLE
  5
3
330
0
100
AcDbSymbolTable
 70
     1
  0
STYLE
  5
11
330
3
100
AcDbSymbolTableRecord
100
AcDbTextStyleTableRecord
  2
STANDARD
 70
     0
 40
0.0
 41
1.0
 50
0.0
 71
     0
 42
2.5
  3
txt
  4

  0
ENDTAB
  0
TABLE
  2
VIEW
  5
6
330
0
100
AcDbSymbolTable
 70
     0
  0
ENDTAB
  0
TABLE
  2
UCS
  5
7
330
0
100
AcDbSymbolTable
 70
     0
  0
ENDTAB
  0
TABLE
  2
APPID
  5
9
330
0
100
AcDbSymbolTable
 70
     2
  0
APPID
  5
12
330
9
100
AcDbSymbolTableRecord
100
AcDbRegAppTableRecord
  2
ACAD
 70
     0
  0
ENDTAB
  0
TABLE
  2
DIMSTYLE
  5
A
330
0
100
AcDbSymbolTable
 70
     1
  0
DIMSTYLE
105
27
330
A
100
AcDbSymbolTableRecord
100
AcDbDimStyleTableRecord
  2
ISO-25
 70
     0
  3

  4

  5

  6

  7

 40
1.0
 41
2.5
 42
0.625
 43
3.75
 44
1.25
 45
0.0
 46
0.0
 47
0.0
 48
0.0
140
2.5
141
2.5
142
0.0
143
0.03937007874016
144
1.0
145
0.0
146
1.0
147
0.625
 71
     0
 72
     0
 73
     0
 74
     0
 75
     0
 76
     0
 77
     1
 78
     8
170
     0
171
     3
172
     1
173
     0
174
     0
175
     0
176
     0
177
     0
178
     0
270
     2
271
     2
272
     2
273
     2
274
     3
340
11
275
     0
280
     0
281
     0
282
     0
283
     0
284
     8
285
     0
286
     0
287
     3
288
     0
  0
ENDTAB
  0
TABLE
  2
BLOCK_RECORD
  5
1
330
0
100
AcDbSymbolTable
 70
     1
  0
BLOCK_RECORD
  5
1F
330
1
100
AcDbSymbolTableRecord
100
AcDbBlockTableRecord
  2
*MODEL_SPACE
  0
BLOCK_RECORD
  5
1B
330
1
100
AcDbSymbolTableRecord
100
AcDbBlockTableRecord
  2
*PAPER_SPACE
  0
ENDTAB
  0
ENDSEC
  0
SECTION
  2
BLOCKS
  0
BLOCK
  5
20
330
1F
100
AcDbEntity
  8
0
100
AcDbBlockBegin
  2
*MODEL_SPACE
 70
     0
 10
0.0
 20
0.0
 30
0.0
  3
*MODEL_SPACE
  1

  0
ENDBLK
  5
21
330
1F
100
AcDbEntity
  8
0
100
AcDbBlockEnd
  0
BLOCK
  5
1C
330
1B
100
AcDbEntity
 67
     1
  8
0
100
AcDbBlockBegin
  2
*PAPER_SPACE
  1

  0
ENDBLK
  5
1D
330
1B
100
AcDbEntity
 67
     1
  8
0
100
AcDbBlockEnd
  0
ENDSEC
  0
SECTION
  2
ENTITIES
  0
LINE
  5
100
100
AcDbEntity
  8
Layer_1
 62
7
100
AcDbLine
 10
10.403424
 20
2.679561
 30
0.0
 11
10.899870
 21
2.662910
 31
0.0
  0
LINE
  5
101
100
AcDbEntity
  8
Layer_1
 62
7
100
AcDbLine
 10
10.899870
 20
2.662910
 30
0.0
 11
11.410984
 21
2.574970
 31
0.0
  0
LINE
  5
102
100
AcDbEntity
  8
Layer_1
 62
7
100
AcDbLine
 10
11.410984
 20
2.574970
 30
0.0
 11
11.486405
 21
2.214374
 31
0.0
  0
LINE
  5
103
100
AcDbEntity
  8
Layer_1
 62
7
100
AcDbLine
 10
11.486405
 20
2.214374
 30
0.0
 11
11.053387
 21
1.928935
 31
0.0
  0
LINE
  5
104
100
AcDbEntity
  8
Layer_1
 62
7
100
AcDbLine
 10
11.053387
 20
1.928935
 30
0.0
 11
10.605248
 21
1.714672
 31
0.0
  0
LINE
  5
105
100
AcDbEntity
  8
Layer_1
 62
7
100
AcDbLine
 10
10.605248
 20
1.714672
 30
0.0
 11
10.667750
 21
1.269043
 31
0.0
  0
LINE
  5
106
100
AcDbEntity
  8
Layer_1
 62
7
100
AcDbLine
 10
10.667750
 20
1.269043
 30
0.0
 11
11.157541
 21
1.186352
 31
0.0
  0
LINE
  5
107
100
AcDbEntity
  8
Layer_1
 62
7
100
AcDbLine
 10
11.157541
 20
1.186352
 30
0.0
 11
11.652371
 21
1.031045
 31
0.0
  0
LINE
  5
108
100
AcDbEntity
  8
Layer_1
 62
7
100
AcDbLine
 10
11.652371
 20
1.031045
 30
0.0
 11
11.679055
 21
0.663620
 31
0.0
  0
LINE
  5
109
100
AcDbEntity
  8
Layer_1
 62
7
100
AcDbLine
 10
11.679055
 20
0.663620
 30
0.0
 11
11.211860
 21
0.438463
 31
0.0
  0
LINE
  5
10a
100
AcDbEntity
  8
Layer_1
 62
7
100
AcDbLine
 10
11.211860
 20
0.438463
 30
0.0
 11
10.739159
 21
0.285837
 31
0.0
  0
LINE
  5
10b
100
AcDbEntity
  8
Layer_1
 62
7
100
AcDbLine
 10
10.739159
 20
0.285837
 30
0.0
 11
10.741699
 21
-0.164138
 31
0.0
  0
LINE
  5
10c
100
AcDbEntity
  8
Layer_1
 62
7
100
AcDbLine
 10
10.741699
 20
-0.164138
 30
0.0
 11
11.216094
 21
-0.311402
 31
0.0
  0
LINE
  5
10d
100
AcDbEntity
  8
Layer_1
 62
7
100
AcDbLine
 10
11.216094
 20
-0.311402
 30
0.0
 11
11.685809
 21
-0.531253
 31
0.0
  0
LINE
  5
10e
100
AcDbEntity
  8
Layer_1
 62
7
100
AcDbLine
 10
11.685809
 20
-0.531253
 30
0.0
 11
11.663285
 21
-0.898960
 31
0.0
  0
LINE
  5
10f
100
AcDbEntity
  8
Layer_1
 62
7
100
AcDbLine
 10
11.663285
 20
-0.898960
 30
0.0
 11
11.170245
 21
-1.059855
 31
0.0
  0
LINE
  5
110
100
AcDbEntity
  8
Layer_1
 62
7
100
AcDbLine
 10
11.170245
 20
-1.059855
 30
0.0
 11
10.681422
 21
-1.148106
 31
0.0
  0
LINE
  5
111
100
AcDbEntity
  8
Layer_1
 62
7
100
AcDbLine
 10
10.681422
 20
-1.148106
 30
0.0
 11
10.623968
 21
-1.594412
 31
0.0
  0
LINE
  5
112
100
AcDbEntity
  8
Layer_1
 62
7
100
AcDbLine
 10
10.623968
 20
-1.594412
 30
0.0
 11
11.074505
 21
-1.803567
 31
0.0
  0
LINE
  5
113
100
AcDbEntity
  8
Layer_1
 62
7
100
AcDbLine
 10
11.074505
 20
-1.803567
 30
0.0
 11
11.510724
 21
-2.084096
 31
0.0
  0
LINE
  5
114
100
AcDbEntity
  8
Layer_1
 62
7
100
AcDbLine
 10
11.510724
 20
-2.084096
 30
0.0
 11
11.439392
 21
-2.445510
 31
0.0
  0
LINE
  5
115
100
AcDbEntity
  8
Layer_1
 62
7
100
AcDbLine
 10
11.439392
 20
-2.445510
 30
0.0
 11
10.929304
 21
-2.539236
 31
0.0
  0
LINE
  5
116
100
AcDbEntity
  8
Layer_1
 62
7
100
AcDbLine
 10
10.929304
 20
-2.539236
 30
0.0
 11
10.433082
 21
-2.561531
 31
0.0
  0
LINE
  5
117
100
AcDbEntity
  8
Layer_1
 62
7
100
AcDbLine
 10
10.433082
 20
-2.561531
 30
0.0
 11
10.316655
 21
-2.996182
 31
0.0
  0
LINE
  5
118
100
AcDbEntity
  8
Layer_1
 62
7
100
AcDbLine
 10
10.316655
 20
-2.996182
 30
0.0
 11
10.735291
 21
-3.263531
 31
0.0
  0
LINE
  5
119
100
AcDbEntity
  8
Layer_1
 62
7
100
AcDbLine
 10
10.735291
 20
-3.263531
 30
0.0
 11
11.130233
 21
-3.599686
 31
0.0
  0
LINE
  5
11a
100
AcDbEntity
  8
Layer_1
 62
7
100
AcDbLine
 10
11.130233
 20
-3.599686
 30
0.0
 11
11.011359
 21
-3.948371
 31
0.0
  0
LINE
  5
11b
100
AcDbEntity
  8
Layer_1
 62
7
100
AcDbLine
 10
11.011359
 20
-3.948371
 30
0.0
 11
10.493333
 21
-3.973207
 31
0.0
  0
LINE
  5
11c
100
AcDbEntity
  8
Layer_1
 62
7
100
AcDbLine
 10
10.493333
 20
-3.973207
 30
0.0
 11
9.998562
 21
-3.929180
 31
0.0
  0
LINE
  5
11d
100
AcDbEntity
  8
Layer_1
 62
7
100
AcDbLine
 10
9.998562
 20
-3.929180
 30
0.0
 11
9.825242
 21
-4.344442
 31
0.0
  0
LINE
  5
11e
100
AcDbEntity
  8
Layer_1
 62
7
100
AcDbLine
 10
9.825242
 20
-4.344442
 30
0.0
 11
10.204508
 21
-4.665216
 31
0.0
  0
LINE
  5
11f
100
AcDbEntity
  8
Layer_1
 62
7
100
AcDbLine
 10
10.204508
 20
-4.665216
 30
0.0
 11
10.551118
 21
-5.051013
 31
0.0
  0
LINE
  5
120
100
AcDbEntity
  8
Layer_1
 62
7
100
AcDbLine
 10
10.551118
 20
-5.051013
 30
0.0
 11
10.386832
 21
-5.380734
 31
0.0
  0
LINE
  5
121
100
AcDbEntity
  8
Layer_1
 62
7
100
AcDbLine
 10
10.386832
 20
-5.380734
 30
0.0
 11
9.870106
 21
-5.336368
 31
0.0
  0
LINE
  5
122
100
AcDbEntity
  8
Layer_1
 62
7
100
AcDbLine
 10
9.870106
 20
-5.336368
 30
0.0
 11
9.385619
 21
-5.226810
 31
0.0
  0
LINE
  5
123
100
AcDbEntity
  8
Layer_1
 62
7
100
AcDbLine
 10
9.385619
 20
-5.226810
 30
0.0
 11
9.158495
 21
-5.615260
 31
0.0
  0
LINE
  5
124
100
AcDbEntity
  8
Layer_1
 62
7
100
AcDbLine
 10
9.158495
 20
-5.615260
 30
0.0
 11
9.491624
 21
-5.983701
 31
0.0
  0
LINE
  5
125
100
AcDbEntity
  8
Layer_1
 62
7
100
AcDbLine
 10
9.491624
 20
-5.983701
 30
0.0
 11
9.783721
 21
-6.412256
 31
0.0
  0
LINE
  5
126
100
AcDbEntity
  8
Layer_1
 62
7
100
AcDbLine
 10
9.783721
 20
-6.412256
 30
0.0
 11
9.576950
 21
-6.717169
 31
0.0
  0
LINE
  5
127
100
AcDbEntity
  8
Layer_1
 62
7
100
AcDbLine
 10
9.576950
 20
-6.717169
 30
0.0
 11
9.070747
 21
-6.604308
 31
0.0
  0
LINE
  5
128
100
AcDbEntity
  8
Layer_1
 62
7
100
AcDbLine
 10
9.070747
 20
-6.604308
 30
0.0
 11
8.605190
 21
-6.431137
 31
0.0
  0
LINE
  5
129
100
AcDbEntity
  8
Layer_1
 62
7
100
AcDbLine
 10
8.605190
 20
-6.431137
 30
0.0
 11
8.328316
 21
-6.785862
 31
0.0
  0
LINE
  5
12a
100
AcDbEntity
  8
Layer_1
 62
7
100
AcDbLine
 10
8.328316
 20
-6.785862
 30
0.0
 11
8.609360
 21
-7.195423
 31
0.0
  0
LINE
  5
12b
100
AcDbEntity
  8
Layer_1
 62
7
100
AcDbLine
 10
8.609360
 20
-7.195423
 30
0.0
 11
8.841732
 21
-7.659085
 31
0.0
  0
LINE
  5
12c
100
AcDbEntity
  8
Layer_1
 62
7
100
AcDbLine
 10
8.841732
 20
-7.659085
 30
0.0
 11
8.596168
 21
-7.933716
 31
0.0
  0
LINE
  5
12d
100
AcDbEntity
  8
Layer_1
 62
7
100
AcDbLine
 10
8.596168
 20
-7.933716
 30
0.0
 11
8.109521
 21
-7.754420
 31
0.0
  0
LINE
  5
12e
100
AcDbEntity
  8
Layer_1
 62
7
100
AcDbLine
 10
8.109521
 20
-7.754420
 30
0.0
 11
7.671199
 21
-7.520712
 31
0.0
  0
LINE
  5
12f
100
AcDbEntity
  8
Layer_1
 62
7
100
AcDbLine
 10
7.671199
 20
-7.520712
 30
0.0
 11
7.349517
 21
-7.835361
 31
0.0
  0
LINE
  5
130
100
AcDbEntity
  8
Layer_1
 62
7
100
AcDbLine
 10
7.349517
 20
-7.835361
 30
0.0
 11
7.573463
 21
-8.278733
 31
0.0
  0
LINE
  5
131
100
AcDbEntity
  8
Layer_1
 62
7
100
AcDbLine
 10
7.573463
 20
-8.278733
 30
0.0
 11
7.741961
 21
-8.769235
 31
0.0
  0
LINE
  5
132
100
AcDbEntity
  8
Layer_1
 62
7
100
AcDbLine
 10
7.741961
 20
-8.769235
 30
0.0
 11
7.461987
 21
-9.008672
 31
0.0
  0
LINE
  5
133
100
AcDbEntity
  8
Layer_1
 62
7
100
AcDbLine
 10
7.461987
 20
-9.008672
 30
0.0
 11
7.003578
 21
-8.766102
 31
0.0
  0
LINE
  5
134
100
AcDbEntity
  8
Layer_1
 62
7
100
AcDbLine
 10
7.003578
 20
-8.766102
 30
0.0
 11
6.600318
 21
-8.476091
 31
0.0
  0
LINE
  5
135
100
AcDbEntity
  8
Layer_1
 62
7
100
AcDbLine
 10
6.600318
 20
-8.476091
 30
0.0
 11
6.239564
 21
-8.745048
 31
0.0
  0
LINE
  5
136
100
AcDbEntity
  8
Layer_1
 62
7
100
AcDbLine
 10
6.239564
 20
-8.745048
 30
0.0
 11
6.402415
 21
-9.214327
 31
0.0
  0
LINE
  5
137
100
AcDbEntity
  8
Layer_1
 62
7
100
AcDbLine
 10
6.402415
 20
-9.214327
 30
0.0
 11
6.504036
 21
-9.722892
 31
0.0
  0
LINE
  5
138
100
AcDbEntity
  8
Layer_1
 62
7
100
AcDbLine
 10
6.504036
 20
-9.722892
 30
0.0
 11
6.194644
 21
-9.922875
 31
0.0
  0
LINE
  5
139
100
AcDbEntity
  8
Layer_1
 62
7
100
AcDbLine
 10
6.194644
 20
-9.922875
 30
0.0
 11
5.772659
 21
-9.621377
 31
0.0
  0
LINE
  5
13a
100
AcDbEntity
  8
Layer_1
 62
7
100
AcDbLine
 10
5.772659
 20
-9.621377
 30
0.0
 11
5.411652
 21
-9.280198
 31
0.0
  0
LINE
  5
13b
100
AcDbEntity
  8
Layer_1
 62
7
100
AcDbLine
 10
5.411652
 20
-9.280198
 30
0.0
 11
5.018268
 21
-9.498666
 31
0.0
  0
LINE
  5
13c
100
AcDbEntity
  8
Layer_1
 62
7
100
AcDbLine
 10
5.018268
 20
-9.498666
 30
0.0
 11
5.117118
 21
-9.985471
 31
0.0
  0
LINE
  5
13d
100
AcDbEntity
  8
Layer_1
 62
7
100
AcDbLine
 10
5.117118
 20
-9.985471
 30
0.0
 11
5.150046
 21
-10.503039
 31
0.0
  0
LINE
  5
13e
100
AcDbEntity
  8
Layer_1
 62
7
100
AcDbLine
 10
5.150046
 20
-10.503039
 30
0.0
 11
4.816760
 21
-10.660011
 31
0.0
  0
LINE
  5
13f
100
AcDbEntity
  8
Layer_1
 62
7
100
AcDbLine
 10
4.816760
 20
-10.660011
 30
0.0
 11
4.438725
 21
-10.304947
 31
0.0
  0
LINE
  5
140
100
AcDbEntity
  8
Layer_1
 62
7
100
AcDbLine
 10
4.438725
 20
-10.304947
 30
0.0
 11
4.126415
 21
-9.918698
 31
0.0
  0
LINE
  5
141
100
AcDbEntity
  8
Layer_1
 62
7
100
AcDbLine
 10
4.126415
 20
-9.918698
 30
0.0
 11
3.707421
 21
-10.082782
 31
0.0
  0
LINE
  5
142
100
AcDbEntity
  8
Layer_1
 62
7
100
AcDbLine
 10
3.707421
 20
-10.082782
 30
0.0
 11
3.740505
 21
-10.578420
 31
0.0
  0
LINE
  5
143
100
AcDbEntity
  8
Layer_1
 62
7
100
AcDbLine
 10
3.740505
 20
-10.578420
 30
0.0
 11
3.704151
 21
-11.095762
 31
0.0
  0
LINE
  5
144
100
AcDbEntity
  8
Layer_1
 62
7
100
AcDbLine
 10
3.704151
 20
-11.095762
 30
0.0
 11
3.352920
 21
-11.206901
 31
0.0
  0
LINE
  5
145
100
AcDbEntity
  8
Layer_1
 62
7
100
AcDbLine
 10
3.352920
 20
-11.206901
 30
0.0
 11
3.025581
 21
-10.804621
 31
0.0
  0
LINE
  5
146
100
AcDbEntity
  8
Layer_1
 62
7
100
AcDbLine
 10
3.025581
 20
-10.804621
 30
0.0
 11
2.767541
 21
-10.380187
 31
0.0
  0
LINE
  5
147
100
AcDbEntity
  8
Layer_1
 62
7
100
AcDbLine
 10
2.767541
 20
-10.380187
 30
0.0
 11
2.330413
 21
-10.486980
 31
0.0
  0
LINE
  5
148
100
AcDbEntity
  8
Layer_1
 62
7
100
AcDbLine
 10
2.330413
 20
-10.486980
 30
0.0
 11
2.297144
 21
-10.982591
 31
0.0
  0
LINE
  5
149
100
AcDbEntity
  8
Layer_1
 62
7
100
AcDbLine
 10
2.297144
 20
-10.982591
 30
0.0
 11
2.192158
 21
-11.490478
 31
0.0
  0
LINE
  5
14a
100
AcDbEntity
  8
Layer_1
 62
7
100
AcDbLine
 10
2.192158
 20
-11.490478
 30
0.0
 11
1.829247
 21
-11.553809
 31
0.0
  0
LINE
  5
14b
100
AcDbEntity
  8
Layer_1
 62
7
100
AcDbLine
 10
1.829247
 20
-11.553809
 30
0.0
 11
1.558447
 21
-11.111482
 31
0.0
  0
LINE
  5
14c
100
AcDbEntity
  8
Layer_1
 62
7
100
AcDbLine
 10
1.558447
 20
-11.111482
 30
0.0
 11
1.359283
 21
-10.656455
 31
0.0
  0
LINE
  5
14d
100
AcDbEntity
  8
Layer_1
 62
7
100
AcDbLine
 10
1.359283
 20
-10.656455
 30
0.0
 11
0.911819
 21
-10.704009
 31
0.0
  0
LINE
  5
14e
100
AcDbEntity
  8
Layer_1
 62
7
100
AcDbLine
 10
0.911819
 20
-10.704009
 30
0.0
 11
0.812790
 21
-11.190786
 31
0.0
  0
LINE
  5
14f
100
AcDbEntity
  8
Layer_1
 62
7
100
AcDbLine
 10
0.812790
 20
-11.190786
 30
0.0
 11
0.641044
 21
-11.680131
 31
0.0
  0
LINE
  5
150
100
AcDbEntity
  8
Layer_1
 62
7
100
AcDbLine
 10
0.641044
 20
-11.680131
 30
0.0
 11
0.272932
 21
-11.694525
 31
0.0
  0
LINE
  5
151
100
AcDbEntity
  8
Layer_1
 62
7
100
AcDbLine
 10
0.272932
 20
-11.694525
 30
0.0
 11
0.063501
 21
-11.220081
 31
0.0
  0
LINE
  5
152
100
AcDbEntity
  8
Layer_1
 62
7
100
AcDbLine
 10
0.063501
 20
-11.220081
 30
0.0
 11
-0.073235
 21
-10.742533
 31
0.0
  0
LINE
  5
153
100
AcDbEntity
  8
Layer_1
 62
7
100
AcDbLine
 10
-0.073235
 20
-10.742533
 30
0.0
 11
-0.523046
 21
-10.730115
 31
0.0
  0
LINE
  5
154
100
AcDbEntity
  8
Layer_1
 62
7
100
AcDbLine
 10
-0.523046
 20
-10.730115
 30
0.0
 11
-0.686070
 21
-11.199309
 31
0.0
  0
LINE
  5
155
100
AcDbEntity
  8
Layer_1
 62
7
100
AcDbLine
 10
-0.686070
 20
-11.199309
 30
0.0
 11
-0.921507
 21
-11.661420
 31
0.0
  0
LINE
  5
156
100
AcDbEntity
  8
Layer_1
 62
7
100
AcDbLine
 10
-0.921507
 20
-11.661420
 30
0.0
 11
-1.288255
 21
-11.626622
 31
0.0
  0
LINE
  5
157
100
AcDbEntity
  8
Layer_1
 62
7
100
AcDbLine
 10
-1.288255
 20
-11.626622
 30
0.0
 11
-1.432579
 21
-11.128471
 31
0.0
  0
LINE
  5
158
100
AcDbEntity
  8
Layer_1
 62
7
100
AcDbLine
 10
-1.432579
 20
-11.128471
 30
0.0
 11
-1.504445
 21
-10.636981
 31
0.0
  0
LINE
  5
159
100
AcDbEntity
  8
Layer_1
 62
7
100
AcDbLine
 10
-1.504445
 20
-10.636981
 30
0.0
 11
-1.948577
 21
-10.564648
 31
0.0
  0
LINE
  5
15a
100
AcDbEntity
  8
Layer_1
 62
7
100
AcDbLine
 10
-1.948577
 20
-10.564648
 30
0.0
 11
-2.172686
 21
-11.007934
 31
0.0
  0
LINE
  5
15b
100
AcDbEntity
  8
Layer_1
 62
7
100
AcDbLine
 10
-2.172686
 20
-11.007934
 30
0.0
 11
-2.467616
 21
-11.434541
 31
0.0
  0
LINE
  5
15c
100
AcDbEntity
  8
Layer_1
 62
7
100
AcDbLine
 10
-2.467616
 20
-11.434541
 30
0.0
 11
-2.826453
 21
-11.351173
 31
0.0
  0
LINE
  5
15d
100
AcDbEntity
  8
Layer_1
 62
7
100
AcDbLine
 10
-2.826453
 20
-11.351173
 30
0.0
 11
-2.903092
 21
-10.838234
 31
0.0
  0
LINE
  5
15e
100
AcDbEntity
  8
Layer_1
 62
7
100
AcDbLine
 10
-2.903092
 20
-10.838234
 30
0.0
 11
-2.908807
 21
-10.341551
 31
0.0
  0
LINE
  5
15f
100
AcDbEntity
  8
Layer_1
 62
7
100
AcDbLine
 10
-2.908807
 20
-10.341551
 30
0.0
 11
-3.339336
 21
-10.210657
 31
0.0
  0
LINE
  5
160
100
AcDbEntity
  8
Layer_1
 62
7
100
AcDbLine
 10
-3.339336
 20
-10.210657
 30
0.0
 11
-3.620534
 21
-10.620133
 31
0.0
  0
LINE
  5
161
100
AcDbEntity
  8
Layer_1
 62
7
100
AcDbLine
 10
-3.620534
 20
-10.620133
 30
0.0
 11
-3.969689
 21
-11.003616
 31
0.0
  0
LINE
  5
162
100
AcDbEntity
  8
Layer_1
 62
7
100
AcDbLine
 10
-3.969689
 20
-11.003616
 30
0.0
 11
-4.314213
 21
-10.873173
 31
0.0
  0
LINE
  5
163
100
AcDbEntity
  8
Layer_1
 62
7
100
AcDbLine
 10
-4.314213
 20
-10.873173
 30
0.0
 11
-4.321802
 21
-10.354590
 31
0.0
  0
LINE
  5
164
100
AcDbEntity
  8
Layer_1
 62
7
100
AcDbLine
 10
-4.321802
 20
-10.354590
 30
0.0
 11
-4.261263
 21
-9.861576
 31
0.0
  0
LINE
  5
165
100
AcDbEntity
  8
Layer_1
 62
7
100
AcDbLine
 10
-4.261263
 20
-9.861576
 30
0.0
 11
-4.670506
 21
-9.674463
 31
0.0
  0
LINE
  5
166
100
AcDbEntity
  8
Layer_1
 62
7
100
AcDbLine
 10
-4.670506
 20
-9.674463
 30
0.0
 11
-5.003769
 21
-10.042819
 31
0.0
  0
LINE
  5
167
100
AcDbEntity
  8
Layer_1
 62
7
100
AcDbLine
 10
-5.003769
 20
-10.042819
 30
0.0
 11
-5.400926
 21
-10.376321
 31
0.0
  0
LINE
  5
168
100
AcDbEntity
  8
Layer_1
 62
7
100
AcDbLine
 10
-5.400926
 20
-10.376321
 30
0.0
 11
-5.724986
 21
-10.201117
 31
0.0
  0
LINE
  5
169
100
AcDbEntity
  8
Layer_1
 62
7
100
AcDbLine
 10
-5.724986
 20
-10.201117
 30
0.0
 11
-5.663388
 21
-9.686175
 31
0.0
  0
LINE
  5
16a
100
AcDbEntity
  8
Layer_1
 62
7
100
AcDbLine
 10
-5.663388
 20
-9.686175
 30
0.0
 11
-5.537677
 21
-9.205607
 31
0.0
  0
LINE
  5
16b
100
AcDbEntity
  8
Layer_1
 62
7
100
AcDbLine
 10
-5.537677
 20
-9.205607
 30
0.0
 11
-5.918328
 21
-8.965633
 31
0.0
  0
LINE
  5
16c
100
AcDbEntity
  8
Layer_1
 62
7
100
AcDbLine
 10
-5.918328
 20
-8.965633
 30
0.0
 11
-6.297714
 21
-9.286266
 31
0.0
  0
LINE
  5
16d
100
AcDbEntity
  8
Layer_1
 62
7
100
AcDbLine
 10
-6.297714
 20
-9.286266
 30
0.0
 11
-6.735780
 21
-9.563888
 31
0.0
  0
LINE
  5
16e
100
AcDbEntity
  8
Layer_1
 62
7
100
AcDbLine
 10
-6.735780
 20
-9.563888
 30
0.0
 11
-7.033596
 21
-9.347028
 31
0.0
  0
LINE
  5
16f
100
AcDbEntity
  8
Layer_1
 62
7
100
AcDbLine
 10
-7.033596
 20
-9.347028
 30
0.0
 11
-6.903911
 21
-8.844870
 31
0.0
  0
LINE
  5
170
100
AcDbEntity
  8
Layer_1
 62
7
100
AcDbLine
 10
-6.903911
 20
-8.844870
 30
0.0
 11
-6.715268
 21
-8.385384
 31
0.0
  0
LINE
  5
171
100
AcDbEntity
  8
Layer_1
 62
7
100
AcDbLine
 10
-6.715268
 20
-8.385384
 30
0.0
 11
-7.060538
 21
-8.096812
 31
0.0
  0
LINE
  5
172
100
AcDbEntity
  8
Layer_1
 62
7
100
AcDbLine
 10
-7.060538
 20
-8.096812
 30
0.0
 11
-7.479275
 21
-8.363992
 31
0.0
  0
LINE
  5
173
100
AcDbEntity
  8
Layer_1
 62
7
100
AcDbLine
 10
-7.479275
 20
-8.363992
 30
0.0
 11
-7.950436
 21
-8.580739
 31
0.0
  0
LINE
  5
174
100
AcDbEntity
  8
Layer_1
 62
7
100
AcDbLine
 10
-7.950436
 20
-8.580739
 30
0.0
 11
-8.216692
 21
-8.326146
 31
0.0
  0
LINE
  5
175
100
AcDbEntity
  8
Layer_1
 62
7
100
AcDbLine
 10
-8.216692
 20
-8.326146
 30
0.0
 11
-8.021234
 21
-7.845775
 31
0.0
  0
LINE
  5
176
100
AcDbEntity
  8
Layer_1
 62
7
100
AcDbLine
 10
-8.021234
 20
-7.845775
 30
0.0
 11
-7.773029
 21
-7.415499
 31
0.0
  0
LINE
  5
177
100
AcDbEntity
  8
Layer_1
 62
7
100
AcDbLine
 10
-7.773029
 20
-7.415499
 30
0.0
 11
-8.076754
 21
-7.083465
 31
0.0
  0
LINE
  5
178
100
AcDbEntity
  8
Layer_1
 62
7
100
AcDbLine
 10
-8.076754
 20
-7.083465
 30
0.0
 11
-8.527367
 21
-7.292479
 31
0.0
  0
LINE
  5
179
100
AcDbEntity
  8
Layer_1
 62
7
100
AcDbLine
 10
-8.527367
 20
-7.292479
 30
0.0
 11
-9.023215
 21
-7.444512
 31
0.0
  0
LINE
  5
17a
100
AcDbEntity
  8
Layer_1
 62
7
100
AcDbLine
 10
-9.023215
 20
-7.444512
 30
0.0
 11
-9.253160
 21
-7.156673
 31
0.0
  0
LINE
  5
17b
100
AcDbEntity
  8
Layer_1
 62
7
100
AcDbLine
 10
-9.253160
 20
-7.156673
 30
0.0
 11
-8.995417
 21
-6.706642
 31
0.0
  0
LINE
  5
17c
100
AcDbEntity
  8
Layer_1
 62
7
100
AcDbLine
 10
-8.995417
 20
-6.706642
 30
0.0
 11
-8.692077
 21
-6.313281
 31
0.0
  0
LINE
  5
17d
100
AcDbEntity
  8
Layer_1
 62
7
100
AcDbLine
 10
-8.692077
 20
-6.313281
 30
0.0
 11
-8.948840
 21
-5.943739
 31
0.0
  0
LINE
  5
17e
100
AcDbEntity
  8
Layer_1
 62
7
100
AcDbLine
 10
-8.948840
 20
-5.943739
 30
0.0
 11
-9.423291
 21
-6.090833
 31
0.0
  0
LINE
  5
17f
100
AcDbEntity
  8
Layer_1
 62
7
100
AcDbLine
 10
-9.423291
 20
-6.090833
 30
0.0
 11
-9.934975
 21
-6.175387
 31
0.0
  0
LINE
  5
180
100
AcDbEntity
  8
Layer_1
 62
7
100
AcDbLine
 10
-9.934975
 20
-6.175387
 30
0.0
 11
-10.124506
 21
-5.859495
 31
0.0
  0
LINE
  5
181
100
AcDbEntity
  8
Layer_1
 62
7
100
AcDbLine
 10
-10.124506
 20
-5.859495
 30
0.0
 11
-9.809079
 21
-5.447818
 31
0.0
  0
LINE
  5
182
100
AcDbEntity
  8
Layer_1
 62
7
100
AcDbLine
 10
-9.809079
 20
-5.447818
 30
0.0
 11
-9.456018
 21
-5.098427
 31
0.0
  0
LINE
  5
183
100
AcDbEntity
  8
Layer_1
 62
7
100
AcDbLine
 10
-9.456018
 20
-5.098427
 30
0.0
 11
-9.661235
 21
-4.697953
 31
0.0
  0
LINE
  5
184
100
AcDbEntity
  8
Layer_1
 62
7
100
AcDbLine
 10
-9.661235
 20
-4.697953
 30
0.0
 11
-10.151055
 21
-4.780475
 31
0.0
  0
LINE
  5
185
100
AcDbEntity
  8
Layer_1
 62
7
100
AcDbLine
 10
-10.151055
 20
-4.780475
 30
0.0
 11
-10.669446
 21
-4.795997
 31
0.0
  0
LINE
  5
186
100
AcDbEntity
  8
Layer_1
 62
7
100
AcDbLine
 10
-10.669446
 20
-4.795997
 30
0.0
 11
-10.815183
 21
-4.457669
 31
0.0
  0
LINE
  5
187
100
AcDbEntity
  8
Layer_1
 62
7
100
AcDbLine
 10
-10.815183
 20
-4.457669
 30
0.0
 11
-10.447697
 21
-4.091712
 31
0.0
  0
LINE
  5
188
100
AcDbEntity
  8
Layer_1
 62
7
100
AcDbLine
 10
-10.447697
 20
-4.091712
 30
0.0
 11
-10.051214
 21
-3.792472
 31
0.0
  0
LINE
  5
189
100
AcDbEntity
  8
Layer_1
 62
7
100
AcDbLine
 10
-10.051214
 20
-3.792472
 30
0.0
 11
-10.201222
 21
-3.368235
 31
0.0
  0
LINE
  5
18a
100
AcDbEntity
  8
Layer_1
 62
7
100
AcDbLine
 10
-10.201222
 20
-3.368235
 30
0.0
 11
-10.697674
 21
-3.384886
 31
0.0
  0
LINE
  5
18b
100
AcDbEntity
  8
Layer_1
 62
7
100
AcDbLine
 10
-10.697674
 20
-3.384886
 30
0.0
 11
-11.213521
 21
-3.331264
 31
0.0
  0
LINE
  5
18c
100
AcDbEntity
  8
Layer_1
 62
7
100
AcDbLine
 10
-11.213521
 20
-3.331264
 30
0.0
 11
-11.312860
 21
-2.976511
 31
0.0
  0
LINE
  5
18d
100
AcDbEntity
  8
Layer_1
 62
7
100
AcDbLine
 10
-11.312860
 20
-2.976511
 30
0.0
 11
-10.899873
 21
-2.662793
 31
0.0
  0
LINE
  5
18e
100
AcDbEntity
  8
Layer_1
 62
7
100
AcDbLine
 10
-10.899873
 20
-2.662793
 30
0.0
 11
-10.467045
 21
-2.419094
 31
0.0
  0
LINE
  5
18f
100
AcDbEntity
  8
Layer_1
 62
7
100
AcDbLine
 10
-10.467045
 20
-2.419094
 30
0.0
 11
-10.559170
 21
-1.978629
 31
0.0
  0
LINE
  5
190
100
AcDbEntity
  8
Layer_1
 62
7
100
AcDbLine
 10
-10.559170
 20
-1.978629
 30
0.0
 11
-11.053391
 21
-1.928817
 31
0.0
  0
LINE
  5
191
100
AcDbEntity
  8
Layer_1
 62
7
100
AcDbLine
 10
-11.053391
 20
-1.928817
 30
0.0
 11
-11.557491
 21
-1.806925
 31
0.0
  0
LINE
  5
192
100
AcDbEntity
  8
Layer_1
 62
7
100
AcDbLine
 10
-11.557491
 20
-1.806925
 30
0.0
 11
-11.608658
 21
-1.442097
 31
0.0
  0
LINE
  5
193
100
AcDbEntity
  8
Layer_1
 62
7
100
AcDbLine
 10
-11.608658
 20
-1.442097
 30
0.0
 11
-11.157544
 21
-1.186234
 31
0.0
  0
LINE
  5
194
100
AcDbEntity
  8
Layer_1
 62
7
100
AcDbLine
 10
-11.157544
 20
-1.186234
 30
0.0
 11
-10.696092
 21
-1.002366
 31
0.0
  0
LINE
  5
195
100
AcDbEntity
  8
Layer_1
 62
7
100
AcDbLine
 10
-10.696092
 20
-1.002366
 30
0.0
 11
-10.728691
 21
-0.553577
 31
0.0
  0
LINE
  5
196
100
AcDbEntity
  8
Layer_1
 62
7
100
AcDbLine
 10
-10.728691
 20
-0.553577
 30
0.0
 11
-11.211863
 21
-0.438345
 31
0.0
  0
LINE
  5
197
100
AcDbEntity
  8
Layer_1
 62
7
100
AcDbLine
 10
-11.211863
 20
-0.438345
 30
0.0
 11
-11.695216
 21
-0.250329
 31
0.0
  0
LINE
  5
198
100
AcDbEntity
  8
Layer_1
 62
7
100
AcDbLine
 10
-11.695216
 20
-0.250329
 30
0.0
 11
-11.697305
 21
0.118056
 31
0.0
  0
LINE
  5
199
100
AcDbEntity
  8
Layer_1
 62
7
100
AcDbLine
 10
-11.697305
 20
0.118056
 30
0.0
 11
-11.216111
 21
0.311519
 31
0.0
  0
LINE
  5
19a
100
AcDbEntity
  8
Layer_1
 62
7
100
AcDbLine
 10
-11.216111
 20
0.311519
 30
0.0
 11
-10.734275
 21
0.432226
 31
0.0
  0
LINE
  5
19b
100
AcDbEntity
  8
Layer_1
 62
7
100
AcDbLine
 10
-10.734275
 20
0.432226
 30
0.0
 11
-10.706761
 21
0.881354
 31
0.0
  0
LINE
  5
19c
100
AcDbEntity
  8
Layer_1
 62
7
100
AcDbLine
 10
-10.706761
 20
0.881354
 30
0.0
 11
-11.170262
 21
1.059973
 31
0.0
  0
LINE
  5
19d
100
AcDbEntity
  8
Layer_1
 62
7
100
AcDbLine
 10
-11.170262
 20
1.059973
 30
0.0
 11
-11.624241
 21
1.310727
 31
0.0
  0
LINE
  5
19e
100
AcDbEntity
  8
Layer_1
 62
7
100
AcDbLine
 10
-11.624241
 20
1.310727
 30
0.0
 11
-11.577207
 21
1.676092
 31
0.0
  0
LINE
  5
19f
100
AcDbEntity
  8
Layer_1
 62
7
100
AcDbLine
 10
-11.577207
 20
1.676092
 30
0.0
 11
-11.074522
 21
1.803685
 31
0.0
  0
LINE
  5
1a0
100
AcDbEntity
  8
Layer_1
 62
7
100
AcDbLine
 10
-11.074522
 20
1.803685
 30
0.0
 11
-10.580897
 21
1.859085
 31
0.0
  0
LINE
  5
1a1
100
AcDbEntity
  8
Layer_1
 62
7
100
AcDbLine
 10
-10.580897
 20
1.859085
 30
0.0
 11
-10.493763
 21
2.300565
 31
0.0
  0
LINE
  5
1a2
100
AcDbEntity
  8
Layer_1
 62
7
100
AcDbLine
 10
-10.493763
 20
2.300565
 30
0.0
 11
-10.929322
 21
2.539353
 31
0.0
  0
LINE
  5
1a3
100
AcDbEntity
  8
Layer_1
 62
7
100
AcDbLine
 10
-10.929322
 20
2.539353
 30
0.0
 11
-11.345831
 21
2.848387
 31
0.0
  0
LINE
  5
1a4
100
AcDbEntity
  8
Layer_1
 62
7
100
AcDbLine
 10
-11.345831
 20
2.848387
 30
0.0
 11
-11.250515
 21
3.204241
 31
0.0
  0
LINE
  5
1a5
100
AcDbEntity
  8
Layer_1
 62
7
100
AcDbLine
 10
-11.250515
 20
3.204241
 30
0.0
 11
-10.735308
 21
3.263677
 31
0.0
  0
LINE
  5
1a6
100
AcDbEntity
  8
Layer_1
 62
7
100
AcDbLine
 10
-10.735308
 20
3.263677
 30
0.0
 11
-10.238702
 21
3.252952
 31
0.0
  0
LINE
  5
1a7
100
AcDbEntity
  8
Layer_1
 62
7
100
AcDbLine
 10
-10.238702
 20
3.252952
 30
0.0
 11
-10.093507
 21
3.678854
 31
0.0
  0
LINE
  5
1a8
100
AcDbEntity
  8
Layer_1
 62
7
100
AcDbLine
 10
-10.093507
 20
3.678854
 30
0.0
 11
-10.493350
 21
3.973578
 31
0.0
  0
LINE
  5
1a9
100
AcDbEntity
  8
Layer_1
 62
7
100
AcDbLine
 10
-10.493350
 20
3.973578
 30
0.0
 11
-10.864955
 21
4.335359
 31
0.0
  0
LINE
  5
1aa
100
AcDbEntity
  8
Layer_1
 62
7
100
AcDbLine
 10
-10.864955
 20
4.335359
 30
0.0
 11
-10.723059
 21
4.675324
 31
0.0
  0
LINE
  5
1ab
100
AcDbEntity
  8
Layer_1
 62
7
100
AcDbLine
 10
-10.723059
 20
4.675324
 30
0.0
 11
-10.204525
 21
4.665728
 31
0.0
  0
LINE
  5
1ac
100
AcDbEntity
  8
Layer_1
 62
7
100
AcDbLine
 10
-10.204525
 20
4.665728
 30
0.0
 11
-9.713799
 21
4.588738
 31
0.0
  0
LINE
  5
1ad
100
AcDbEntity
  8
Layer_1
 62
7
100
AcDbLine
 10
-9.713799
 20
4.588738
 30
0.0
 11
-9.513128
 21
4.991497
 31
0.0
  0
LINE
  5
1ae
100
AcDbEntity
  8
Layer_1
 62
7
100
AcDbLine
 10
-9.513128
 20
4.991497
 30
0.0
 11
-9.870123
 21
5.336881
 31
0.0
  0
LINE
  5
1af
100
AcDbEntity
  8
Layer_1
 62
7
100
AcDbLine
 10
-9.870123
 20
5.336881
 30
0.0
 11
-10.190192
 21
5.744974
 31
0.0
  0
LINE
  5
1b0
100
AcDbEntity
  8
Layer_1
 62
7
100
AcDbLine
 10
-10.190192
 20
5.744974
 30
0.0
 11
-10.004248
 21
6.063011
 31
0.0
  0
LINE
  5
1b1
100
AcDbEntity
  8
Layer_1
 62
7
100
AcDbLine
 10
-10.004248
 20
6.063011
 30
0.0
 11
-9.491641
 21
5.984214
 31
0.0
  0
LINE
  5
1b2
100
AcDbEntity
  8
Layer_1
 62
7
100
AcDbLine
 10
-9.491641
 20
5.984214
 30
0.0
 11
-9.015554
 21
5.842539
 31
0.0
  0
LINE
  5
1b3
100
AcDbEntity
  8
Layer_1
 62
7
100
AcDbLine
 10
-9.015554
 20
5.842539
 30
0.0
 11
-8.762992
 21
6.214959
 31
0.0
  0
LINE
  5
1b4
100
AcDbEntity
  8
Layer_1
 62
7
100
AcDbLine
 10
-8.762992
 20
6.214959
 30
0.0
 11
-9.070764
 21
6.604821
 31
0.0
  0
LINE
  5
1b5
100
AcDbEntity
  8
Layer_1
 62
7
100
AcDbLine
 10
-9.070764
 20
6.604821
 30
0.0
 11
-9.333586
 21
7.051945
 31
0.0
  0
LINE
  5
1b6
100
AcDbEntity
  8
Layer_1
 62
7
100
AcDbLine
 10
-9.333586
 20
7.051945
 30
0.0
 11
-9.106915
 21
7.342352
 31
0.0
  0
LINE
  5
1b7
100
AcDbEntity
  8
Layer_1
 62
7
100
AcDbLine
 10
-9.106915
 20
7.342352
 30
0.0
 11
-8.609377
 21
7.195935
 31
0.0
  0
LINE
  5
1b8
100
AcDbEntity
  8
Layer_1
 62
7
100
AcDbLine
 10
-8.609377
 20
7.195935
 30
0.0
 11
-8.156427
 21
6.992058
 31
0.0
  0
LINE
  5
1b9
100
AcDbEntity
  8
Layer_1
 62
7
100
AcDbLine
 10
-8.156427
 20
6.992058
 30
0.0
 11
-7.856478
 21
7.327479
 31
0.0
  0
LINE
  5
1ba
100
AcDbEntity
  8
Layer_1
 62
7
100
AcDbLine
 10
-7.856478
 20
7.327479
 30
0.0
 11
-8.109538
 21
7.754933
 31
0.0
  0
LINE
  5
1bb
100
AcDbEntity
  8
Layer_1
 62
7
100
AcDbLine
 10
-8.109538
 20
7.754933
 30
0.0
 11
-8.310421
 21
8.233074
 31
0.0
  0
LINE
  5
1bc
100
AcDbEntity
  8
Layer_1
 62
7
100
AcDbLine
 10
-8.310421
 20
8.233074
 30
0.0
 11
-8.047063
 21
8.490658
 31
0.0
  0
LINE
  5
1bd
100
AcDbEntity
  8
Layer_1
 62
7
100
AcDbLine
 10
-8.047063
 20
8.490658
 30
0.0
 11
-7.573480
 21
8.279245
 31
0.0
  0
LINE
  5
1be
100
AcDbEntity
  8
Layer_1
 62
7
100
AcDbLine
 10
-7.573480
 20
8.279245
 30
0.0
 11
-7.151746
 21
8.016807
 31
0.0
  0
LINE
  5
1bf
100
AcDbEntity
  8
Layer_1
 62
7
100
AcDbLine
 10
-7.151746
 20
8.016807
 30
0.0
 11
-6.809764
 21
8.309274
 31
0.0
  0
LINE
  5
1c0
100
AcDbEntity
  8
Layer_1
 62
7
100
AcDbLine
 10
-6.809764
 20
8.309274
 30
0.0
 11
-7.003595
 21
8.766615
 31
0.0
  0
LINE
  5
1c1
100
AcDbEntity
  8
Layer_1
 62
7
100
AcDbLine
 10
-7.003595
 20
8.766615
 30
0.0
 11
-7.138958
 21
9.267277
 31
0.0
  0
LINE
  5
1c2
100
AcDbEntity
  8
Layer_1
 62
7
100
AcDbLine
 10
-7.138958
 20
9.267277
 30
0.0
 11
-6.843615
 21
9.487467
 31
0.0
  0
LINE
  5
1c3
100
AcDbEntity
  8
Layer_1
 62
7
100
AcDbLine
 10
-6.843615
 20
9.487467
 30
0.0
 11
-6.402432
 21
9.214840
 31
0.0
  0
LINE
  5
1c4
100
AcDbEntity
  8
Layer_1
 62
7
100
AcDbLine
 10
-6.402432
 20
9.214840
 30
0.0
 11
-6.019443
 21
8.898525
 31
0.0
  0
LINE
  5
1c5
100
AcDbEntity
  8
Layer_1
 62
7
100
AcDbLine
 10
-6.019443
 20
8.898525
 30
0.0
 11
-5.641533
 21
9.142789
 31
0.0
  0
LINE
  5
1c6
100
AcDbEntity
  8
Layer_1
 62
7
100
AcDbLine
 10
-5.641533
 20
9.142789
 30
0.0
 11
-5.772676
 21
9.621889
 31
0.0
  0
LINE
  5
1c7
100
AcDbEntity
  8
Layer_1
 62
7
100
AcDbLine
 10
-5.772676
 20
9.621889
 30
0.0
 11
-5.840099
 21
10.136126
 31
0.0
  0
LINE
  5
1c8
100
AcDbEntity
  8
Layer_1
 62
7
100
AcDbLine
 10
-5.840099
 20
10.136126
 30
0.0
 11
-5.518042
 21
10.314999
 31
0.0
  0
LINE
  5
1c9
100
AcDbEntity
  8
Layer_1
 62
7
100
AcDbLine
 10
-5.518042
 20
10.314999
 30
0.0
 11
-5.117135
 21
9.985984
 31
0.0
  0
LINE
  5
1ca
100
AcDbEntity
  8
Layer_1
 62
7
100
AcDbLine
 10
-5.117135
 20
9.985984
 30
0.0
 11
-4.779724
 21
9.621438
 31
0.0
  0
LINE
  5
1cb
100
AcDbEntity
  8
Layer_1
 62
7
100
AcDbLine
 10
-4.779724
 20
9.621438
 30
0.0
 11
-4.372626
 21
9.813151
 31
0.0
  0
LINE
  5
1cc
100
AcDbEntity
  8
Layer_1
 62
7
100
AcDbLine
 10
-4.372626
 20
9.813151
 30
0.0
 11
-4.438742
 21
10.305460
 31
0.0
  0
LINE
  5
1cd
100
AcDbEntity
  8
Layer_1
 62
7
100
AcDbLine
 10
-4.438742
 20
10.305460
 30
0.0
 11
-4.437021
 21
10.824099
 31
0.0
  0
LINE
  5
1ce
100
AcDbEntity
  8
Layer_1
 62
7
100
AcDbLine
 10
-4.437021
 20
10.824099
 30
0.0
 11
-4.093997
 21
10.958437
 31
0.0
  0
LINE
  5
1cf
100
AcDbEntity
  8
Layer_1
 62
7
100
AcDbLine
 10
-4.093997
 20
10.958437
 30
0.0
 11
-3.740519
 21
10.578933
 31
0.0
  0
LINE
  5
1d0
100
AcDbEntity
  8
Layer_1
 62
7
100
AcDbLine
 10
-3.740519
 20
10.578933
 30
0.0
 11
-3.454707
 21
10.172674
 31
0.0
  0
LINE
  5
1d1
100
AcDbEntity
  8
Layer_1
 62
7
100
AcDbLine
 10
-3.454707
 20
10.172674
 30
0.0
 11
-3.025686
 21
10.308423
 31
0.0
  0
LINE
  5
1d2
100
AcDbEntity
  8
Layer_1
 62
7
100
AcDbLine
 10
-3.025686
 20
10.308423
 30
0.0
 11
-3.025595
 21
10.805134
 31
0.0
  0
LINE
  5
1d3
100
AcDbEntity
  8
Layer_1
 62
7
100
AcDbLine
 10
-3.025595
 20
10.805134
 30
0.0
 11
-2.954769
 21
11.318920
 31
0.0
  0
LINE
  5
1d4
100
AcDbEntity
  8
Layer_1
 62
7
100
AcDbLine
 10
-2.954769
 20
11.318920
 30
0.0
 11
-2.596898
 21
11.406352
 31
0.0
  0
LINE
  5
1d5
100
AcDbEntity
  8
Layer_1
 62
7
100
AcDbLine
 10
-2.596898
 20
11.406352
 30
0.0
 11
-2.297158
 21
10.983103
 31
0.0
  0
LINE
  5
1d6
100
AcDbEntity
  8
Layer_1
 62
7
100
AcDbLine
 10
-2.297158
 20
10.983103
 30
0.0
 11
-2.068045
 21
10.542357
 31
0.0
  0
LINE
  5
1d7
100
AcDbEntity
  8
Layer_1
 62
7
100
AcDbLine
 10
-2.068045
 20
10.542357
 30
0.0
 11
-1.624760
 21
10.619714
 31
0.0
  0
LINE
  5
1d8
100
AcDbEntity
  8
Layer_1
 62
7
100
AcDbLine
 10
-1.624760
 20
10.619714
 30
0.0
 11
-1.558461
 21
11.111994
 31
0.0
  0
LINE
  5
1d9
100
AcDbEntity
  8
Layer_1
 62
7
100
AcDbLine
 10
-1.558461
 20
11.111994
 30
0.0
 11
-1.419787
 21
11.611753
 31
0.0
  0
LINE
  5
1da
100
AcDbEntity
  8
Layer_1
 62
7
100
AcDbLine
 10
-1.419787
 20
11.611753
 30
0.0
 11
-1.053457
 21
11.650700
 31
0.0
  0
LINE
  5
1db
100
AcDbEntity
  8
Layer_1
 62
7
100
AcDbLine
 10
-1.053457
 20
11.650700
 30
0.0
 11
-0.812804
 21
11.191299
 31
0.0
  0
LINE
  5
1dc
100
AcDbEntity
  8
Layer_1
 62
7
100
AcDbLine
 10
-0.812804
 20
11.191299
 30
0.0
 11
-0.644477
 21
10.723967
 31
0.0
  0
LINE
  5
1dd
100
AcDbEntity
  8
Layer_1
 62
7
100
AcDbLine
 10
-0.644477
 20
10.723967
 30
0.0
 11
-0.194836
 21
10.741465
 31
0.0
  0
LINE
  5
1de
100
AcDbEntity
  8
Layer_1
 62
7
100
AcDbLine
 10
-0.194836
 20
10.741465
 30
0.0
 11
-0.063515
 21
11.220537
 31
0.0
  0
LINE
  5
1df
100
AcDbEntity
  8
Layer_1
 62
7
100
AcDbLine
 10
-0.063515
 20
11.220537
 30
0.0
 11
0.140530
 21
11.697323
 31
0.0
  0
LINE
  5
1e0
100
AcDbEntity
  8
Layer_1
 62
7
100
AcDbLine
 10
0.140530
 20
11.697323
 30
0.0
 11
0.508784
 21
11.687163
 31
0.0
  0
LINE
  5
1e1
100
AcDbEntity
  8
Layer_1
 62
7
100
AcDbLine
 10
0.508784
 20
11.687163
 30
0.0
 11
0.686055
 21
11.199765
 31
0.0
  0
LINE
  5
1e2
100
AcDbEntity
  8
Layer_1
 62
7
100
AcDbLine
 10
0.686055
 20
11.199765
 30
0.0
 11
0.790590
 21
10.714174
 31
0.0
  0
LINE
  5
1e3
100
AcDbEntity
  8
Layer_1
 62
7
100
AcDbLine
 10
0.790590
 20
10.714174
 30
0.0
 11
1.238563
 21
10.671671
 31
0.0
  0
LINE
  5
1e4
100
AcDbEntity
  8
Layer_1
 62
7
100
AcDbLine
 10
1.238563
 20
10.671671
 30
0.0
 11
1.432564
 21
11.128928
 31
0.0
  0
LINE
  5
1e5
100
AcDbEntity
  8
Layer_1
 62
7
100
AcDbLine
 10
1.432564
 20
11.128928
 30
0.0
 11
1.698339
 21
11.574274
 31
0.0
  0
LINE
  5
1e6
100
AcDbEntity
  8
Layer_1
 62
7
100
AcDbLine
 10
1.698339
 20
11.574274
 30
0.0
 11
2.061945
 21
11.515064
 31
0.0
  0
LINE
  5
1e7
100
AcDbEntity
  8
Layer_1
 62
7
100
AcDbLine
 10
2.061945
 20
11.515064
 30
0.0
 11
2.172671
 21
11.008391
 31
0.0
  0
LINE
  5
1e8
100
AcDbEntity
  8
Layer_1
 62
7
100
AcDbLine
 10
2.172671
 20
11.008391
 30
0.0
 11
2.211549
 21
10.513203
 31
0.0
  0
LINE
  5
1e9
100
AcDbEntity
  8
Layer_1
 62
7
100
AcDbLine
 10
2.211549
 20
10.513203
 30
0.0
 11
2.649860
 21
10.411349
 31
0.0
  0
LINE
  5
1ea
100
AcDbEntity
  8
Layer_1
 62
7
100
AcDbLine
 10
2.649860
 20
10.411349
 30
0.0
 11
2.903077
 21
10.838690
 31
0.0
  0
LINE
  5
1eb
100
AcDbEntity
  8
Layer_1
 62
7
100
AcDbLine
 10
2.903077
 20
10.838690
 30
0.0
 11
3.225843
 21
11.244639
 31
0.0
  0
LINE
  5
1ec
100
AcDbEntity
  8
Layer_1
 62
7
100
AcDbLine
 10
3.225843
 20
11.244639
 30
0.0
 11
3.578309
 21
11.137507
 31
0.0
  0
LINE
  5
1ed
100
AcDbEntity
  8
Layer_1
 62
7
100
AcDbLine
 10
3.578309
 20
11.137507
 30
0.0
 11
3.620519
 21
10.620589
 31
0.0
  0
LINE
  5
1ee
100
AcDbEntity
  8
Layer_1
 62
7
100
AcDbLine
 10
3.620519
 20
10.620589
 30
0.0
 11
3.593045
 21
10.124612
 31
0.0
  0
LINE
  5
1ef
100
AcDbEntity
  8
Layer_1
 62
7
100
AcDbLine
 10
3.593045
 20
10.124612
 30
0.0
 11
4.013868
 21
9.965269
 31
0.0
  0
LINE
  5
1f0
100
AcDbEntity
  8
Layer_1
 62
7
100
AcDbLine
 10
4.013868
 20
9.965269
 30
0.0
 11
4.321787
 21
10.355046
 31
0.0
  0
LINE
  5
1f1
100
AcDbEntity
  8
Layer_1
 62
7
100
AcDbLine
 10
4.321787
 20
10.355046
 30
0.0
 11
4.695780
 21
10.714371
 31
0.0
  0
LINE
  5
1f2
100
AcDbEntity
  8
Layer_1
 62
7
100
AcDbLine
 10
4.695780
 20
10.714371
 30
0.0
 11
5.030821
 21
10.561181
 31
0.0
  0
LINE
  5
1f3
100
AcDbEntity
  8
Layer_1
 62
7
100
AcDbLine
 10
5.030821
 20
10.561181
 30
0.0
 11
5.003755
 21
10.043275
 31
0.0
  0
LINE
  5
1f4
100
AcDbEntity
  8
Layer_1
 62
7
100
AcDbLine
 10
5.003755
 20
10.043275
 30
0.0
 11
4.910422
 21
9.555398
 31
0.0
  0
LINE
  5
1f5
100
AcDbEntity
  8
Layer_1
 62
7
100
AcDbLine
 10
4.910422
 20
9.555398
 30
0.0
 11
5.306253
 21
9.341360
 31
0.0
  0
LINE
  5
1f6
100
AcDbEntity
  8
Layer_1
 62
7
100
AcDbLine
 10
5.306253
 20
9.341360
 30
0.0
 11
5.663374
 21
9.686631
 31
0.0
  0
LINE
  5
1f7
100
AcDbEntity
  8
Layer_1
 62
7
100
AcDbLine
 10
5.663374
 20
9.686631
 30
0.0
 11
6.081921
 21
9.992870
 31
0.0
  0
LINE
  5
1f8
100
AcDbEntity
  8
Layer_1
 62
7
100
AcDbLine
 10
6.081921
 20
9.992870
 30
0.0
 11
6.393556
 21
9.796415
 31
0.0
  0
LINE
  5
1f9
100
AcDbEntity
  8
Layer_1
 62
7
100
AcDbLine
 10
6.393556
 20
9.796415
 30
0.0
 11
6.297701
 21
9.286722
 31
0.0
  0
LINE
  5
1fa
100
AcDbEntity
  8
Layer_1
 62
7
100
AcDbLine
 10
6.297701
 20
9.286722
 30
0.0
 11
6.140170
 21
8.815637
 31
0.0
  0
LINE
  5
1fb
100
AcDbEntity
  8
Layer_1
 62
7
100
AcDbLine
 10
6.140170
 20
8.815637
 30
0.0
 11
6.503943
 21
8.550771
 31
0.0
  0
LINE
  5
1fc
100
AcDbEntity
  8
Layer_1
 62
7
100
AcDbLine
 10
6.503943
 20
8.550771
 30
0.0
 11
6.903897
 21
8.845327
 31
0.0
  0
LINE
  5
1fd
100
AcDbEntity
  8
Layer_1
 62
7
100
AcDbLine
 10
6.903897
 20
8.845327
 30
0.0
 11
7.359529
 21
9.093061
 31
0.0
  0
LINE
  5
1fe
100
AcDbEntity
  8
Layer_1
 62
7
100
AcDbLine
 10
7.359529
 20
9.093061
 30
0.0
 11
7.642196
 21
8.856813
 31
0.0
  0
LINE
  5
1ff
100
AcDbEntity
  8
Layer_1
 62
7
100
AcDbLine
 10
7.642196
 20
8.856813
 30
0.0
 11
7.479261
 21
8.364448
 31
0.0
  0
LINE
  5
200
100
AcDbEntity
  8
Layer_1
 62
7
100
AcDbLine
 10
7.479261
 20
8.364448
 30
0.0
 11
7.260348
 21
7.918565
 31
0.0
  0
LINE
  5
201
100
AcDbEntity
  8
Layer_1
 62
7
100
AcDbLine
 10
7.260348
 20
7.918565
 30
0.0
 11
7.585572
 21
7.607585
 31
0.0
  0
LINE
  5
202
100
AcDbEntity
  8
Layer_1
 62
7
100
AcDbLine
 10
7.585572
 20
7.607585
 30
0.0
 11
8.021220
 21
7.846232
 31
0.0
  0
LINE
  5
203
100
AcDbEntity
  8
Layer_1
 62
7
100
AcDbLine
 10
8.021220
 20
7.846232
 30
0.0
 11
8.505805
 21
8.031003
 31
0.0
  0
LINE
  5
204
100
AcDbEntity
  8
Layer_1
 62
7
100
AcDbLine
 10
8.505805
 20
8.031003
 30
0.0
 11
8.754464
 21
7.759194
 31
0.0
  0
LINE
  5
205
100
AcDbEntity
  8
Layer_1
 62
7
100
AcDbLine
 10
8.754464
 20
7.759194
 30
0.0
 11
8.527354
 21
7.292935
 31
0.0
  0
LINE
  5
206
100
AcDbEntity
  8
Layer_1
 62
7
100
AcDbLine
 10
8.527354
 20
7.292935
 30
0.0
 11
8.250964
 21
6.880213
 31
0.0
  0
LINE
  5
207
100
AcDbEntity
  8
Layer_1
 62
7
100
AcDbLine
 10
8.250964
 20
6.880213
 30
0.0
 11
8.531837
 21
6.528649
 31
0.0
  0
LINE
  5
208
100
AcDbEntity
  8
Layer_1
 62
7
100
AcDbLine
 10
8.531837
 20
6.528649
 30
0.0
 11
8.995404
 21
6.707098
 31
0.0
  0
LINE
  5
209
100
AcDbEntity
  8
Layer_1
 62
7
100
AcDbLine
 10
8.995404
 20
6.707098
 30
0.0
 11
9.500299
 21
6.825660
 31
0.0
  0
LINE
  5
20a
100
AcDbEntity
  8
Layer_1
 62
7
100
AcDbLine
 10
9.500299
 20
6.825660
 30
0.0
 11
9.710504
 21
6.523117
 31
0.0
  0
LINE
  5
20b
100
AcDbEntity
  8
Layer_1
 62
7
100
AcDbLine
 10
9.710504
 20
6.523117
 30
0.0
 11
9.423278
 21
6.091289
 31
0.0
  0
LINE
  5
20c
100
AcDbEntity
  8
Layer_1
 62
7
100
AcDbLine
 10
9.423278
 20
6.091289
 30
0.0
 11
9.094341
 21
5.719066
 31
0.0
  0
LINE
  5
20d
100
AcDbEntity
  8
Layer_1
 62
7
100
AcDbLine
 10
9.094341
 20
5.719066
 30
0.0
 11
9.325850
 21
5.333212
 31
0.0
  0
LINE
  5
20e
100
AcDbEntity
  8
Layer_1
 62
7
100
AcDbLine
 10
9.325850
 20
5.333212
 30
0.0
 11
9.809065
 21
5.448274
 31
0.0
  0
LINE
  5
20f
100
AcDbEntity
  8
Layer_1
 62
7
100
AcDbLine
 10
9.809065
 20
5.448274
 30
0.0
 11
10.325256
 21
5.498481
 31
0.0
  0
LINE
  5
210
100
AcDbEntity
  8
Layer_1
 62
7
100
AcDbLine
 10
10.325256
 20
5.498481
 30
0.0
 11
10.493263
 21
5.170624
 31
0.0
  0
LINE
  5
211
100
AcDbEntity
  8
Layer_1
 62
7
100
AcDbLine
 10
10.493263
 20
5.170624
 30
0.0
 11
10.151041
 21
4.780931
 31
0.0
  0
LINE
  5
212
100
AcDbEntity
  8
Layer_1
 62
7
100
AcDbLine
 10
10.151041
 20
4.780931
 30
0.0
 11
9.775432
 21
4.455896
 31
0.0
  0
LINE
  5
213
100
AcDbEntity
  8
Layer_1
 62
7
100
AcDbLine
 10
9.775432
 20
4.455896
 30
0.0
 11
9.953441
 21
4.042610
 31
0.0
  0
LINE
  5
214
100
AcDbEntity
  8
Layer_1
 62
7
100
AcDbLine
 10
9.953441
 20
4.042610
 30
0.0
 11
10.447683
 21
4.092253
 31
0.0
  0
LINE
  5
215
100
AcDbEntity
  8
Layer_1
 62
7
100
AcDbLine
 10
10.447683
 20
4.092253
 30
0.0
 11
10.965957
 21
4.073344
 31
0.0
  0
LINE
  5
216
100
AcDbEntity
  8
Layer_1
 62
7
100
AcDbLine
 10
10.965957
 20
4.073344
 30
0.0
 11
11.088769
 21
3.726013
 31
0.0
  0
LINE
  5
217
100
AcDbEntity
  8
Layer_1
 62
7
100
AcDbLine
 10
11.088769
 20
3.726013
 30
0.0
 11
10.697661
 21
3.385427
 31
0.0
  0
LINE
  5
218
100
AcDbEntity
  8
Layer_1
 62
7
100
AcDbLine
 10
10.697661
 20
3.385427
 30
0.0
 11
10.282077
 21
3.113337
 31
0.0
  0
LINE
  5
219
100
AcDbEntity
  8
Layer_1
 62
7
100
AcDbLine
 10
10.282077
 20
3.113337
 30
0.0
 11
10.403424
 21
2.679561
 31
0.0
  0
ENDSEC
  0
SECTION
  2
OBJECTS
  0
DICTIONARY
  5
C
330
0
100
AcDbDictionary
  3
ACAD_GROUP
350
D
  3
ACAD_MLINESTYLE
350
17
  0
DICTIONARY
  5
D
330
C
100
AcDbDictionary
  0
DICTIONARY
  5
1A
330
C
100
AcDbDictionary
  0
DICTIONARY
  5
17
330
C
100
AcDbDictionary
  3
STANDARD
350
18
  0
DICTIONARY
  5
19
330
C
100
AcDbDictionary
  0
ENDSEC
  0
EOF
