  0
SECTION
  2
HEADER
  9
$ACADVER
  1
AC1014
  9
$HANDSEED
  5
FFFF
  9
$MEASUREMENT
 70
     1
  0
ENDSEC
  0
SECTION
  2
TABLES
  0
TABLE
  2
VPORT
  5
8
330
0
100
AcDbSymbolTable
 70
     4
  0
VPORT
  5
2E
330
8
100
AcDbSymbolTableRecord
100
AcDbViewportTableRecord
  2
*ACTIVE
 70
     0
 10
0.0
 20
0.0
 11
1.0
 21
1.0
 12
210.0
 22
148.5
 13
0.0
 23
0.0
 14
10.0
 24
10.0
 15
10.0
 25
10.0
 16
0.0
 26
0.0
 36
1.0
 17
0.0
 27
0.0
 37
0.0
 40
341.0
 41
1.24
 42
50.0
 43
0.0
 44
0.0
 50
0.0
 51
0.0
 71
     0
 72
   100
 73
     1
 74
     3
 75
     0
 76
     0
 77
     0
 78
     0
  0
ENDTAB
  0
TABLE
  2
LTYPE
  5
5
330
0
100
AcDbSymbolTable
 70
     1
  0
LTYPE
  5
14
330
5
100
AcDbSymbolTableRecord
100
AcDbLinetypeTableRecord
  2
BYBLOCK
 70
     0
  3

 72
    65
 73
     0
 40
0.0
  0
LTYPE
  5
15
330
5
100
AcDbSymbolTableRecord
100
AcDbLinetypeTableRecord
  2
BYLAYER
 70
     0
  3

 72
    65
 73
     0
 40
0.0
  0
LTYPE
  5
16
330
5
100
AcDbSymbolTableRecord
100
AcDbLinetypeTableRecord
  2
CONTINUOUS
 70
     0
  3
Solid line
 72
    65
 73
     0
 40
0.0
  0
ENDTAB
  0
TABLE
  2
LAYER
  5
2
100
AcDbSymbolTable
 70
2
  0
LAYER
  5
50
100
AcDbSymbolTableRecord
100
AcDbLayerTableRecord
  2
0
 70
0
  6
CONTINUOUS
  0
LAYER
  5
51
100
AcDbSymbolTableRecord
100
AcDbLayerTableRecord
  2
Layer_1
 70
0
  6
CONTINUOUS
  0
ENDTAB
  0
TABLE
  2
STYLE
  5
3
330
0
100
AcDbSymbolTable
 70
     1
  0
STYLE
  5
11
330
3
100
AcDbSymbolTableRecord
100
AcDbTextStyleTableRecord
  2
STANDARD
 70
     0
 40
0.0
 41
1.0
 50
0.0
 71
     0
 42
2.5
  3
txt
  4

  0
ENDTAB
  0
TABLE
  2
VIEW
  5
6
330
0
100
AcDbSymbolTable
 70
     0
  0
ENDTAB
  0
TABLE
  2
UCS
  5
7
330
0
100
AcDbSymbolTable
 70
     0
  0
ENDTAB
  0
TABLE
  2
APPID
  5
9
330
0
100
AcDbSymbolTable
 70
     2
  0
APPID
  5
12
330
9
100
AcDbSymbolTableRecord
100
AcDbRegAppTableRecord
  2
ACAD
 70
     0
  0
ENDTAB
  0
TABLE
  2
DIMSTYLE
  5
A
330
0
100
AcDbSymbolTable
 70
     1
  0
DIMSTYLE
105
27
330
A
100
AcDbSymbolTableRecord
100
AcDbDimStyleTableRecord
  2
ISO-25
 70
     0
  3

  4

  5

  6

  7

 40
1.0
 41
2.5
 42
0.625
 43
3.75
 44
1.25
 45
0.0
 46
0.0
 47
0.0
 48
0.0
140
2.5
141
2.5
142
0.0
143
0.03937007874016
144
1.0
145
0.0
146
1.0
147
0.625
 71
     0
 72
     0
 73
     0
 74
     0
 75
     0
 76
     0
 77
     1
 78
     8
170
     0
171
     3
172
     1
173
     0
174
     0
175
     0
176
     0
177
     0
178
     0
270
     2
271
     2
272
     2
273
     2
274
     3
340
11
275
     0
280
     0
281
     0
282
     0
283
     0
284
     8
285
     0
286
     0
287
     3
288
     0
  0
ENDTAB
  0
TABLE
  2
BLOCK_RECORD
  5
1
330
0
100
AcDbSymbolTable
 70
     1
  0
BLOCK_RECORD
  5
1F
330
1
100
AcDbSymbolTableRecord
100
AcDbBlockTableRecord
  2
*MODEL_SPACE
  0
BLOCK_RECORD
  5
1B
330
1
100
AcDbSymbolTableRecord
100
AcDbBlockTableRecord
  2
*PAPER_SPACE
  0
ENDTAB
  0
ENDSEC
  0
SECTION
  2
BLOCKS
  0
BLOCK
  5
20
330
1F
100
AcDbEntity
  8
0
100
AcDbBlockBegin
  2
*MODEL_SPACE
 70
     0
 10
0.0
 20
0.0
 30
0.0
  3
*MODEL_SPACE
  1

  0
ENDBLK
  5
21
330
1F
100
AcDbEntity
  8
0
100
AcDbBlockEnd
  0
BLOCK
  5
1C
330
1B
100
AcDbEntity
 67
     1
  8
0
100
AcDbBlockBegin
  2
*PAPER_SPACE
  1

  0
ENDBLK
  5
1D
330
1B
100
AcDbEntity
 67
     1
  8
0
100
AcDbBlockEnd
  0
ENDSEC
  0
SECTION
  2
ENTITIES
  0
LINE
  5
100
100
AcDbEntity
  8
Layer_1
 62
7
100
AcDbLine
 10
16.500001
 20
9.000209
 30
0.0
 11
16.500001
 21
7.500226
 31
0.0
  0
LINE
  5
101
100
AcDbEntity
  8
Layer_1
 62
7
100
AcDbLine
 10
16.500001
 20
7.500226
 30
0.0
 11
15.999999
 21
7.500226
 31
0.0
  0
LINE
  5
102
100
AcDbEntity
  8
Layer_1
 62
7
100
AcDbLine
 10
15.999999
 20
7.500226
 30
0.0
 11
16.000002
 21
6.500228
 31
0.0
  0
LINE
  5
103
100
AcDbEntity
  8
Layer_1
 62
7
100
AcDbLine
 10
16.000002
 20
6.500228
 30
0.0
 11
17.500002
 21
6.500228
 31
0.0
  0
LINE
  5
104
100
AcDbEntity
  8
Layer_1
 62
7
100
AcDbLine
 10
17.500002
 20
6.500228
 30
0.0
 11
17.500016
 21
2.000223
 31
0.0
  0
LINE
  5
105
100
AcDbEntity
  8
Layer_1
 62
7
100
AcDbLine
 10
17.500016
 20
2.000223
 30
0.0
 11
17.000017
 21
2.000223
 31
0.0
  0
LINE
  5
106
100
AcDbEntity
  8
Layer_1
 62
7
100
AcDbLine
 10
17.000017
 20
2.000223
 30
0.0
 11
17.000161
 21
0.000001
 31
0.0
  0
LINE
  5
107
100
AcDbEntity
  8
Layer_1
 62
7
100
AcDbLine
 10
17.000161
 20
0.000001
 30
0.0
 11
18.999968
 21
0.000001
 31
0.0
  0
LINE
  5
108
100
AcDbEntity
  8
Layer_1
 62
7
100
AcDbLine
 10
18.999968
 20
0.000001
 30
0.0
 11
19.000016
 21
2.000223
 31
0.0
  0
LINE
  5
109
100
AcDbEntity
  8
Layer_1
 62
7
100
AcDbLine
 10
19.000016
 20
2.000223
 30
0.0
 11
18.500017
 21
2.000223
 31
0.0
  0
LINE
  5
10a
100
AcDbEntity
  8
Layer_1
 62
7
100
AcDbLine
 10
18.500017
 20
2.000223
 30
0.0
 11
18.500014
 21
6.500228
 31
0.0
  0
LINE
  5
10b
100
AcDbEntity
  8
Layer_1
 62
7
100
AcDbLine
 10
18.500014
 20
6.500228
 30
0.0
 11
20.000011
 21
6.500228
 31
0.0
  0
LINE
  5
10c
100
AcDbEntity
  8
Layer_1
 62
7
100
AcDbLine
 10
20.000011
 20
6.500228
 30
0.0
 11
20.000000
 21
2.000223
 31
0.0
  0
LINE
  5
10d
100
AcDbEntity
  8
Layer_1
 62
7
100
AcDbLine
 10
20.000000
 20
2.000223
 30
0.0
 11
19.500003
 21
2.000223
 31
0.0
  0
LINE
  5
10e
100
AcDbEntity
  8
Layer_1
 62
7
100
AcDbLine
 10
19.500003
 20
2.000223
 30
0.0
 11
19.499921
 21
0.000001
 31
0.0
  0
LINE
  5
10f
100
AcDbEntity
  8
Layer_1
 62
7
100
AcDbLine
 10
19.499921
 20
0.000001
 30
0.0
 11
21.500282
 21
0.000001
 31
0.0
  0
LINE
  5
110
100
AcDbEntity
  8
Layer_1
 62
7
100
AcDbLine
 10
21.500282
 20
0.000001
 30
0.0
 11
21.500002
 21
2.000223
 31
0.0
  0
LINE
  5
111
100
AcDbEntity
  8
Layer_1
 62
7
100
AcDbLine
 10
21.500002
 20
2.000223
 30
0.0
 11
21.000000
 21
2.000223
 31
0.0
  0
LINE
  5
112
100
AcDbEntity
  8
Layer_1
 62
7
100
AcDbLine
 10
21.000000
 20
2.000223
 30
0.0
 11
21.000014
 21
6.500228
 31
0.0
  0
LINE
  5
113
100
AcDbEntity
  8
Layer_1
 62
7
100
AcDbLine
 10
21.000014
 20
6.500228
 30
0.0
 11
22.500014
 21
6.500228
 31
0.0
  0
LINE
  5
114
100
AcDbEntity
  8
Layer_1
 62
7
100
AcDbLine
 10
22.500014
 20
6.500228
 30
0.0
 11
22.500003
 21
2.000223
 31
0.0
  0
LINE
  5
115
100
AcDbEntity
  8
Layer_1
 62
7
100
AcDbLine
 10
22.500003
 20
2.000223
 30
0.0
 11
22.000001
 21
2.000223
 31
0.0
  0
LINE
  5
116
100
AcDbEntity
  8
Layer_1
 62
7
100
AcDbLine
 10
22.000001
 20
2.000223
 30
0.0
 11
22.000233
 21
0.000001
 31
0.0
  0
LINE
  5
117
100
AcDbEntity
  8
Layer_1
 62
7
100
AcDbLine
 10
22.000233
 20
0.000001
 30
0.0
 11
24.000042
 21
0.000001
 31
0.0
  0
LINE
  5
118
100
AcDbEntity
  8
Layer_1
 62
7
100
AcDbLine
 10
24.000042
 20
0.000001
 30
0.0
 11
24.000003
 21
2.000223
 31
0.0
  0
LINE
  5
119
100
AcDbEntity
  8
Layer_1
 62
7
100
AcDbLine
 10
24.000003
 20
2.000223
 30
0.0
 11
23.500001
 21
2.000223
 31
0.0
  0
LINE
  5
11a
100
AcDbEntity
  8
Layer_1
 62
7
100
AcDbLine
 10
23.500001
 20
2.000223
 30
0.0
 11
23.500012
 21
6.500228
 31
0.0
  0
LINE
  5
11b
100
AcDbEntity
  8
Layer_1
 62
7
100
AcDbLine
 10
23.500012
 20
6.500228
 30
0.0
 11
25.000012
 21
6.500228
 31
0.0
  0
LINE
  5
11c
100
AcDbEntity
  8
Layer_1
 62
7
100
AcDbLine
 10
25.000012
 20
6.500228
 30
0.0
 11
25.000001
 21
2.000223
 31
0.0
  0
LINE
  5
11d
100
AcDbEntity
  8
Layer_1
 62
7
100
AcDbLine
 10
25.000001
 20
2.000223
 30
0.0
 11
24.500002
 21
2.000223
 31
0.0
  0
LINE
  5
11e
100
AcDbEntity
  8
Layer_1
 62
7
100
AcDbLine
 10
24.500002
 20
2.000223
 30
0.0
 11
24.499996
 21
0.000001
 31
0.0
  0
LINE
  5
11f
100
AcDbEntity
  8
Layer_1
 62
7
100
AcDbLine
 10
24.499996
 20
0.000001
 30
0.0
 11
26.500356
 21
0.000001
 31
0.0
  0
LINE
  5
120
100
AcDbEntity
  8
Layer_1
 62
7
100
AcDbLine
 10
26.500356
 20
0.000001
 30
0.0
 11
26.500074
 21
2.000223
 31
0.0
  0
LINE
  5
121
100
AcDbEntity
  8
Layer_1
 62
7
100
AcDbLine
 10
26.500074
 20
2.000223
 30
0.0
 11
26.000072
 21
2.000223
 31
0.0
  0
LINE
  5
122
100
AcDbEntity
  8
Layer_1
 62
7
100
AcDbLine
 10
26.000072
 20
2.000223
 30
0.0
 11
26.000083
 21
6.500228
 31
0.0
  0
LINE
  5
123
100
AcDbEntity
  8
Layer_1
 62
7
100
AcDbLine
 10
26.000083
 20
6.500228
 30
0.0
 11
27.500083
 21
6.500228
 31
0.0
  0
LINE
  5
124
100
AcDbEntity
  8
Layer_1
 62
7
100
AcDbLine
 10
27.500083
 20
6.500228
 30
0.0
 11
27.500083
 21
2.000223
 31
0.0
  0
LINE
  5
125
100
AcDbEntity
  8
Layer_1
 62
7
100
AcDbLine
 10
27.500083
 20
2.000223
 30
0.0
 11
27.000084
 21
2.000223
 31
0.0
  0
LINE
  5
126
100
AcDbEntity
  8
Layer_1
 62
7
100
AcDbLine
 10
27.000084
 20
2.000223
 30
0.0
 11
27.000367
 21
0.000001
 31
0.0
  0
LINE
  5
127
100
AcDbEntity
  8
Layer_1
 62
7
100
AcDbLine
 10
27.000367
 20
0.000001
 30
0.0
 11
29.000176
 21
0.000001
 31
0.0
  0
LINE
  5
128
100
AcDbEntity
  8
Layer_1
 62
7
100
AcDbLine
 10
29.000176
 20
0.000001
 30
0.0
 11
29.000072
 21
2.000223
 31
0.0
  0
LINE
  5
129
100
AcDbEntity
  8
Layer_1
 62
7
100
AcDbLine
 10
29.000072
 20
2.000223
 30
0.0
 11
28.500073
 21
2.000223
 31
0.0
  0
LINE
  5
12a
100
AcDbEntity
  8
Layer_1
 62
7
100
AcDbLine
 10
28.500073
 20
2.000223
 30
0.0
 11
28.500073
 21
6.500228
 31
0.0
  0
LINE
  5
12b
100
AcDbEntity
  8
Layer_1
 62
7
100
AcDbLine
 10
28.500073
 20
6.500228
 30
0.0
 11
30.000081
 21
6.499946
 31
0.0
  0
LINE
  5
12c
100
AcDbEntity
  8
Layer_1
 62
7
100
AcDbLine
 10
30.000081
 20
6.499946
 30
0.0
 11
29.999999
 21
7.500226
 31
0.0
  0
LINE
  5
12d
100
AcDbEntity
  8
Layer_1
 62
7
100
AcDbLine
 10
29.999999
 20
7.500226
 30
0.0
 11
29.500003
 21
7.500226
 31
0.0
  0
LINE
  5
12e
100
AcDbEntity
  8
Layer_1
 62
7
100
AcDbLine
 10
29.500003
 20
7.500226
 30
0.0
 11
29.500003
 21
9.000209
 31
0.0
  0
LINE
  5
12f
100
AcDbEntity
  8
Layer_1
 62
7
100
AcDbLine
 10
29.500003
 20
9.000209
 30
0.0
 11
30.000002
 21
9.000209
 31
0.0
  0
LINE
  5
130
100
AcDbEntity
  8
Layer_1
 62
7
100
AcDbLine
 10
30.000002
 20
9.000209
 30
0.0
 11
30.000081
 21
10.000151
 31
0.0
  0
LINE
  5
131
100
AcDbEntity
  8
Layer_1
 62
7
100
AcDbLine
 10
30.000081
 20
10.000151
 30
0.0
 11
28.500073
 21
10.000235
 31
0.0
  0
LINE
  5
132
100
AcDbEntity
  8
Layer_1
 62
7
100
AcDbLine
 10
28.500073
 20
10.000235
 30
0.0
 11
28.500073
 21
14.500240
 31
0.0
  0
LINE
  5
133
100
AcDbEntity
  8
Layer_1
 62
7
100
AcDbLine
 10
28.500073
 20
14.500240
 30
0.0
 11
29.000072
 21
14.500240
 31
0.0
  0
LINE
  5
134
100
AcDbEntity
  8
Layer_1
 62
7
100
AcDbLine
 10
29.000072
 20
14.500240
 30
0.0
 11
29.000176
 21
16.500090
 31
0.0
  0
LINE
  5
135
100
AcDbEntity
  8
Layer_1
 62
7
100
AcDbLine
 10
29.000176
 20
16.500090
 30
0.0
 11
27.000367
 21
16.500090
 31
0.0
  0
LINE
  5
136
100
AcDbEntity
  8
Layer_1
 62
7
100
AcDbLine
 10
27.000367
 20
16.500090
 30
0.0
 11
27.000084
 21
14.500240
 31
0.0
  0
LINE
  5
137
100
AcDbEntity
  8
Layer_1
 62
7
100
AcDbLine
 10
27.000084
 20
14.500240
 30
0.0
 11
27.500083
 21
14.500240
 31
0.0
  0
LINE
  5
138
100
AcDbEntity
  8
Layer_1
 62
7
100
AcDbLine
 10
27.500083
 20
14.500240
 30
0.0
 11
27.500083
 21
10.000235
 31
0.0
  0
LINE
  5
139
100
AcDbEntity
  8
Layer_1
 62
7
100
AcDbLine
 10
27.500083
 20
10.000235
 30
0.0
 11
26.000083
 21
10.000235
 31
0.0
  0
LINE
  5
13a
100
AcDbEntity
  8
Layer_1
 62
7
100
AcDbLine
 10
26.000083
 20
10.000235
 30
0.0
 11
26.000083
 21
14.500240
 31
0.0
  0
LINE
  5
13b
100
AcDbEntity
  8
Layer_1
 62
7
100
AcDbLine
 10
26.000083
 20
14.500240
 30
0.0
 11
26.500085
 21
14.500240
 31
0.0
  0
LINE
  5
13c
100
AcDbEntity
  8
Layer_1
 62
7
100
AcDbLine
 10
26.500085
 20
14.500240
 30
0.0
 11
26.500145
 21
16.500231
 31
0.0
  0
LINE
  5
13d
100
AcDbEntity
  8
Layer_1
 62
7
100
AcDbLine
 10
26.500145
 20
16.500231
 30
0.0
 11
24.500126
 21
16.500090
 31
0.0
  0
LINE
  5
13e
100
AcDbEntity
  8
Layer_1
 62
7
100
AcDbLine
 10
24.500126
 20
16.500090
 30
0.0
 11
24.500084
 21
14.500240
 31
0.0
  0
LINE
  5
13f
100
AcDbEntity
  8
Layer_1
 62
7
100
AcDbLine
 10
24.500084
 20
14.500240
 30
0.0
 11
25.000083
 21
14.500240
 31
0.0
  0
LINE
  5
140
100
AcDbEntity
  8
Layer_1
 62
7
100
AcDbLine
 10
25.000083
 20
14.500240
 30
0.0
 11
25.000083
 21
10.000235
 31
0.0
  0
LINE
  5
141
100
AcDbEntity
  8
Layer_1
 62
7
100
AcDbLine
 10
25.000083
 20
10.000235
 30
0.0
 11
23.500083
 21
10.000235
 31
0.0
  0
LINE
  5
142
100
AcDbEntity
  8
Layer_1
 62
7
100
AcDbLine
 10
23.500083
 20
10.000235
 30
0.0
 11
23.500083
 21
14.500240
 31
0.0
  0
LINE
  5
143
100
AcDbEntity
  8
Layer_1
 62
7
100
AcDbLine
 10
23.500083
 20
14.500240
 30
0.0
 11
24.000085
 21
14.500240
 31
0.0
  0
LINE
  5
144
100
AcDbEntity
  8
Layer_1
 62
7
100
AcDbLine
 10
24.000085
 20
14.500240
 30
0.0
 11
24.000172
 21
16.500090
 31
0.0
  0
LINE
  5
145
100
AcDbEntity
  8
Layer_1
 62
7
100
AcDbLine
 10
24.000172
 20
16.500090
 30
0.0
 11
22.000362
 21
16.500090
 31
0.0
  0
LINE
  5
146
100
AcDbEntity
  8
Layer_1
 62
7
100
AcDbLine
 10
22.000362
 20
16.500090
 30
0.0
 11
22.000083
 21
14.500240
 31
0.0
  0
LINE
  5
147
100
AcDbEntity
  8
Layer_1
 62
7
100
AcDbLine
 10
22.000083
 20
14.500240
 30
0.0
 11
22.500085
 21
14.500240
 31
0.0
  0
LINE
  5
148
100
AcDbEntity
  8
Layer_1
 62
7
100
AcDbLine
 10
22.500085
 20
14.500240
 30
0.0
 11
22.500085
 21
10.000235
 31
0.0
  0
LINE
  5
149
100
AcDbEntity
  8
Layer_1
 62
7
100
AcDbLine
 10
22.500085
 20
10.000235
 30
0.0
 11
21.000085
 21
10.000235
 31
0.0
  0
LINE
  5
14a
100
AcDbEntity
  8
Layer_1
 62
7
100
AcDbLine
 10
21.000085
 20
10.000235
 30
0.0
 11
21.000082
 21
14.500240
 31
0.0
  0
LINE
  5
14b
100
AcDbEntity
  8
Layer_1
 62
7
100
AcDbLine
 10
21.000082
 20
14.500240
 30
0.0
 11
21.500084
 21
14.500240
 31
0.0
  0
LINE
  5
14c
100
AcDbEntity
  8
Layer_1
 62
7
100
AcDbLine
 10
21.500084
 20
14.500240
 30
0.0
 11
21.500366
 21
16.500090
 31
0.0
  0
LINE
  5
14d
100
AcDbEntity
  8
Layer_1
 62
7
100
AcDbLine
 10
21.500366
 20
16.500090
 30
0.0
 11
19.500006
 21
16.500090
 31
0.0
  0
LINE
  5
14e
100
AcDbEntity
  8
Layer_1
 62
7
100
AcDbLine
 10
19.500006
 20
16.500090
 30
0.0
 11
19.500040
 21
14.500240
 31
0.0
  0
LINE
  5
14f
100
AcDbEntity
  8
Layer_1
 62
7
100
AcDbLine
 10
19.500040
 20
14.500240
 30
0.0
 11
20.000036
 21
14.500240
 31
0.0
  0
LINE
  5
150
100
AcDbEntity
  8
Layer_1
 62
7
100
AcDbLine
 10
20.000036
 20
14.500240
 30
0.0
 11
20.000036
 21
10.000235
 31
0.0
  0
LINE
  5
151
100
AcDbEntity
  8
Layer_1
 62
7
100
AcDbLine
 10
20.000036
 20
10.000235
 30
0.0
 11
18.500039
 21
10.000235
 31
0.0
  0
LINE
  5
152
100
AcDbEntity
  8
Layer_1
 62
7
100
AcDbLine
 10
18.500039
 20
10.000235
 30
0.0
 11
18.500039
 21
14.500240
 31
0.0
  0
LINE
  5
153
100
AcDbEntity
  8
Layer_1
 62
7
100
AcDbLine
 10
18.500039
 20
14.500240
 30
0.0
 11
19.000038
 21
14.500240
 31
0.0
  0
LINE
  5
154
100
AcDbEntity
  8
Layer_1
 62
7
100
AcDbLine
 10
19.000038
 20
14.500240
 30
0.0
 11
19.000052
 21
16.500090
 31
0.0
  0
LINE
  5
155
100
AcDbEntity
  8
Layer_1
 62
7
100
AcDbLine
 10
19.000052
 20
16.500090
 30
0.0
 11
17.000245
 21
16.500090
 31
0.0
  0
LINE
  5
156
100
AcDbEntity
  8
Layer_1
 62
7
100
AcDbLine
 10
17.000245
 20
16.500090
 30
0.0
 11
17.000099
 21
14.500240
 31
0.0
  0
LINE
  5
157
100
AcDbEntity
  8
Layer_1
 62
7
100
AcDbLine
 10
17.000099
 20
14.500240
 30
0.0
 11
17.500098
 21
14.500240
 31
0.0
  0
LINE
  5
158
100
AcDbEntity
  8
Layer_1
 62
7
100
AcDbLine
 10
17.500098
 20
14.500240
 30
0.0
 11
17.500098
 21
11.000233
 31
0.0
  0
LINE
  5
159
100
AcDbEntity
  8
Layer_1
 62
7
100
AcDbLine
 10
17.500098
 20
11.000233
 30
0.0
 11
12.500099
 21
11.000233
 31
0.0
  0
LINE
  5
15a
100
AcDbEntity
  8
Layer_1
 62
7
100
AcDbLine
 10
12.500099
 20
11.000233
 30
0.0
 11
12.500099
 21
14.500240
 31
0.0
  0
LINE
  5
15b
100
AcDbEntity
  8
Layer_1
 62
7
100
AcDbLine
 10
12.500099
 20
14.500240
 30
0.0
 11
13.000098
 21
14.500240
 31
0.0
  0
LINE
  5
15c
100
AcDbEntity
  8
Layer_1
 62
7
100
AcDbLine
 10
13.000098
 20
14.500240
 30
0.0
 11
13.000172
 21
16.500160
 31
0.0
  0
LINE
  5
15d
100
AcDbEntity
  8
Layer_1
 62
7
100
AcDbLine
 10
13.000172
 20
16.500160
 30
0.0
 11
11.000362
 21
16.500160
 31
0.0
  0
LINE
  5
15e
100
AcDbEntity
  8
Layer_1
 62
7
100
AcDbLine
 10
11.000362
 20
16.500160
 30
0.0
 11
11.000097
 21
14.500240
 31
0.0
  0
LINE
  5
15f
100
AcDbEntity
  8
Layer_1
 62
7
100
AcDbLine
 10
11.000097
 20
14.500240
 30
0.0
 11
11.500098
 21
14.500240
 31
0.0
  0
LINE
  5
160
100
AcDbEntity
  8
Layer_1
 62
7
100
AcDbLine
 10
11.500098
 20
14.500240
 30
0.0
 11
11.500098
 21
10.000235
 31
0.0
  0
LINE
  5
161
100
AcDbEntity
  8
Layer_1
 62
7
100
AcDbLine
 10
11.500098
 20
10.000235
 30
0.0
 11
10.000099
 21
10.000235
 31
0.0
  0
LINE
  5
162
100
AcDbEntity
  8
Layer_1
 62
7
100
AcDbLine
 10
10.000099
 20
10.000235
 30
0.0
 11
10.000096
 21
14.500240
 31
0.0
  0
LINE
  5
163
100
AcDbEntity
  8
Layer_1
 62
7
100
AcDbLine
 10
10.000096
 20
14.500240
 30
0.0
 11
10.500098
 21
14.500240
 31
0.0
  0
LINE
  5
164
100
AcDbEntity
  8
Layer_1
 62
7
100
AcDbLine
 10
10.500098
 20
14.500240
 30
0.0
 11
10.500380
 21
16.500160
 31
0.0
  0
LINE
  5
165
100
AcDbEntity
  8
Layer_1
 62
7
100
AcDbLine
 10
10.500380
 20
16.500160
 30
0.0
 11
8.500017
 21
16.500160
 31
0.0
  0
LINE
  5
166
100
AcDbEntity
  8
Layer_1
 62
7
100
AcDbLine
 10
8.500017
 20
16.500160
 30
0.0
 11
8.500068
 21
14.500240
 31
0.0
  0
LINE
  5
167
100
AcDbEntity
  8
Layer_1
 62
7
100
AcDbLine
 10
8.500068
 20
14.500240
 30
0.0
 11
9.000067
 21
14.500240
 31
0.0
  0
LINE
  5
168
100
AcDbEntity
  8
Layer_1
 62
7
100
AcDbLine
 10
9.000067
 20
14.500240
 30
0.0
 11
9.000067
 21
10.000235
 31
0.0
  0
LINE
  5
169
100
AcDbEntity
  8
Layer_1
 62
7
100
AcDbLine
 10
9.000067
 20
10.000235
 30
0.0
 11
7.500067
 21
10.000235
 31
0.0
  0
LINE
  5
16a
100
AcDbEntity
  8
Layer_1
 62
7
100
AcDbLine
 10
7.500067
 20
10.000235
 30
0.0
 11
7.500067
 21
14.500240
 31
0.0
  0
LINE
  5
16b
100
AcDbEntity
  8
Layer_1
 62
7
100
AcDbLine
 10
7.500067
 20
14.500240
 30
0.0
 11
8.000066
 21
14.500240
 31
0.0
  0
LINE
  5
16c
100
AcDbEntity
  8
Layer_1
 62
7
100
AcDbLine
 10
8.000066
 20
14.500240
 30
0.0
 11
8.000066
 21
16.500160
 31
0.0
  0
LINE
  5
16d
100
AcDbEntity
  8
Layer_1
 62
7
100
AcDbLine
 10
8.000066
 20
16.500160
 30
0.0
 11
6.000256
 21
16.500160
 31
0.0
  0
LINE
  5
16e
100
AcDbEntity
  8
Layer_1
 62
7
100
AcDbLine
 10
6.000256
 20
16.500160
 30
0.0
 11
6.000002
 21
14.500212
 31
0.0
  0
LINE
  5
16f
100
AcDbEntity
  8
Layer_1
 62
7
100
AcDbLine
 10
6.000002
 20
14.500212
 30
0.0
 11
6.500066
 21
14.500240
 31
0.0
  0
LINE
  5
170
100
AcDbEntity
  8
Layer_1
 62
7
100
AcDbLine
 10
6.500066
 20
14.500240
 30
0.0
 11
6.500066
 21
10.000235
 31
0.0
  0
LINE
  5
171
100
AcDbEntity
  8
Layer_1
 62
7
100
AcDbLine
 10
6.500066
 20
10.000235
 30
0.0
 11
5.000066
 21
10.000235
 31
0.0
  0
LINE
  5
172
100
AcDbEntity
  8
Layer_1
 62
7
100
AcDbLine
 10
5.000066
 20
10.000235
 30
0.0
 11
5.000066
 21
14.500240
 31
0.0
  0
LINE
  5
173
100
AcDbEntity
  8
Layer_1
 62
7
100
AcDbLine
 10
5.000066
 20
14.500240
 30
0.0
 11
5.500065
 21
14.500240
 31
0.0
  0
LINE
  5
174
100
AcDbEntity
  8
Layer_1
 62
7
100
AcDbLine
 10
5.500065
 20
14.500240
 30
0.0
 11
5.500305
 21
16.500160
 31
0.0
  0
LINE
  5
175
100
AcDbEntity
  8
Layer_1
 62
7
100
AcDbLine
 10
5.500305
 20
16.500160
 30
0.0
 11
3.499945
 21
16.500160
 31
0.0
  0
LINE
  5
176
100
AcDbEntity
  8
Layer_1
 62
7
100
AcDbLine
 10
3.499945
 20
16.500160
 30
0.0
 11
3.500066
 21
14.500240
 31
0.0
  0
LINE
  5
177
100
AcDbEntity
  8
Layer_1
 62
7
100
AcDbLine
 10
3.500066
 20
14.500240
 30
0.0
 11
4.000065
 21
14.500240
 31
0.0
  0
LINE
  5
178
100
AcDbEntity
  8
Layer_1
 62
7
100
AcDbLine
 10
4.000065
 20
14.500240
 30
0.0
 11
4.000065
 21
10.000235
 31
0.0
  0
LINE
  5
179
100
AcDbEntity
  8
Layer_1
 62
7
100
AcDbLine
 10
4.000065
 20
10.000235
 30
0.0
 11
2.500066
 21
10.000235
 31
0.0
  0
LINE
  5
17a
100
AcDbEntity
  8
Layer_1
 62
7
100
AcDbLine
 10
2.500066
 20
10.000235
 30
0.0
 11
2.500066
 21
14.500240
 31
0.0
  0
LINE
  5
17b
100
AcDbEntity
  8
Layer_1
 62
7
100
AcDbLine
 10
2.500066
 20
14.500240
 30
0.0
 11
3.000065
 21
14.500240
 31
0.0
  0
LINE
  5
17c
100
AcDbEntity
  8
Layer_1
 62
7
100
AcDbLine
 10
3.000065
 20
14.500240
 30
0.0
 11
2.999991
 21
16.500160
 31
0.0
  0
LINE
  5
17d
100
AcDbEntity
  8
Layer_1
 62
7
100
AcDbLine
 10
2.999991
 20
16.500160
 30
0.0
 11
1.000184
 21
16.500160
 31
0.0
  0
LINE
  5
17e
100
AcDbEntity
  8
Layer_1
 62
7
100
AcDbLine
 10
1.000184
 20
16.500160
 30
0.0
 11
1.000066
 21
14.500240
 31
0.0
  0
LINE
  5
17f
100
AcDbEntity
  8
Layer_1
 62
7
100
AcDbLine
 10
1.000066
 20
14.500240
 30
0.0
 11
1.500068
 21
14.500240
 31
0.0
  0
LINE
  5
180
100
AcDbEntity
  8
Layer_1
 62
7
100
AcDbLine
 10
1.500068
 20
14.500240
 30
0.0
 11
1.500068
 21
10.000235
 31
0.0
  0
LINE
  5
181
100
AcDbEntity
  8
Layer_1
 62
7
100
AcDbLine
 10
1.500068
 20
10.000235
 30
0.0
 11
0.000279
 21
10.000235
 31
0.0
  0
LINE
  5
182
100
AcDbEntity
  8
Layer_1
 62
7
100
AcDbLine
 10
0.000279
 20
10.000235
 30
0.0
 11
-0.000000
 21
9.000209
 31
0.0
  0
LINE
  5
183
100
AcDbEntity
  8
Layer_1
 62
7
100
AcDbLine
 10
-0.000000
 20
9.000209
 30
0.0
 11
0.500002
 21
9.000209
 31
0.0
  0
LINE
  5
184
100
AcDbEntity
  8
Layer_1
 62
7
100
AcDbLine
 10
0.500002
 20
9.000209
 30
0.0
 11
0.500002
 21
7.500226
 31
0.0
  0
LINE
  5
185
100
AcDbEntity
  8
Layer_1
 62
7
100
AcDbLine
 10
0.500002
 20
7.500226
 30
0.0
 11
0.000003
 21
7.500226
 31
0.0
  0
LINE
  5
186
100
AcDbEntity
  8
Layer_1
 62
7
100
AcDbLine
 10
0.000003
 20
7.500226
 30
0.0
 11
0.000279
 21
6.500002
 31
0.0
  0
LINE
  5
187
100
AcDbEntity
  8
Layer_1
 62
7
100
AcDbLine
 10
0.000279
 20
6.500002
 30
0.0
 11
1.500073
 21
6.500228
 31
0.0
  0
LINE
  5
188
100
AcDbEntity
  8
Layer_1
 62
7
100
AcDbLine
 10
1.500073
 20
6.500228
 30
0.0
 11
1.500073
 21
2.000223
 31
0.0
  0
LINE
  5
189
100
AcDbEntity
  8
Layer_1
 62
7
100
AcDbLine
 10
1.500073
 20
2.000223
 30
0.0
 11
1.000071
 21
2.000223
 31
0.0
  0
LINE
  5
18a
100
AcDbEntity
  8
Layer_1
 62
7
100
AcDbLine
 10
1.000071
 20
2.000223
 30
0.0
 11
1.000184
 21
0.000086
 31
0.0
  0
LINE
  5
18b
100
AcDbEntity
  8
Layer_1
 62
7
100
AcDbLine
 10
1.000184
 20
0.000086
 30
0.0
 11
2.999991
 21
0.000086
 31
0.0
  0
LINE
  5
18c
100
AcDbEntity
  8
Layer_1
 62
7
100
AcDbLine
 10
2.999991
 20
0.000086
 30
0.0
 11
3.000070
 21
2.000223
 31
0.0
  0
LINE
  5
18d
100
AcDbEntity
  8
Layer_1
 62
7
100
AcDbLine
 10
3.000070
 20
2.000223
 30
0.0
 11
2.500071
 21
2.000223
 31
0.0
  0
LINE
  5
18e
100
AcDbEntity
  8
Layer_1
 62
7
100
AcDbLine
 10
2.500071
 20
2.000223
 30
0.0
 11
2.500071
 21
6.500228
 31
0.0
  0
LINE
  5
18f
100
AcDbEntity
  8
Layer_1
 62
7
100
AcDbLine
 10
2.500071
 20
6.500228
 30
0.0
 11
4.000071
 21
6.500228
 31
0.0
  0
LINE
  5
190
100
AcDbEntity
  8
Layer_1
 62
7
100
AcDbLine
 10
4.000071
 20
6.500228
 30
0.0
 11
4.000071
 21
2.000223
 31
0.0
  0
LINE
  5
191
100
AcDbEntity
  8
Layer_1
 62
7
100
AcDbLine
 10
4.000071
 20
2.000223
 30
0.0
 11
3.500072
 21
2.000223
 31
0.0
  0
LINE
  5
192
100
AcDbEntity
  8
Layer_1
 62
7
100
AcDbLine
 10
3.500072
 20
2.000223
 30
0.0
 11
3.499945
 21
0.000086
 31
0.0
  0
LINE
  5
193
100
AcDbEntity
  8
Layer_1
 62
7
100
AcDbLine
 10
3.499945
 20
0.000086
 30
0.0
 11
5.500305
 21
0.000086
 31
0.0
  0
LINE
  5
194
100
AcDbEntity
  8
Layer_1
 62
7
100
AcDbLine
 10
5.500305
 20
0.000086
 30
0.0
 11
5.500071
 21
2.000223
 31
0.0
  0
LINE
  5
195
100
AcDbEntity
  8
Layer_1
 62
7
100
AcDbLine
 10
5.500071
 20
2.000223
 30
0.0
 11
5.000072
 21
2.000223
 31
0.0
  0
LINE
  5
196
100
AcDbEntity
  8
Layer_1
 62
7
100
AcDbLine
 10
5.000072
 20
2.000223
 30
0.0
 11
5.000072
 21
6.500228
 31
0.0
  0
LINE
  5
197
100
AcDbEntity
  8
Layer_1
 62
7
100
AcDbLine
 10
5.000072
 20
6.500228
 30
0.0
 11
6.500072
 21
6.500228
 31
0.0
  0
LINE
  5
198
100
AcDbEntity
  8
Layer_1
 62
7
100
AcDbLine
 10
6.500072
 20
6.500228
 30
0.0
 11
6.500072
 21
2.000223
 31
0.0
  0
LINE
  5
199
100
AcDbEntity
  8
Layer_1
 62
7
100
AcDbLine
 10
6.500072
 20
2.000223
 30
0.0
 11
6.000073
 21
2.000223
 31
0.0
  0
LINE
  5
19a
100
AcDbEntity
  8
Layer_1
 62
7
100
AcDbLine
 10
6.000073
 20
2.000223
 30
0.0
 11
6.000256
 21
0.000086
 31
0.0
  0
LINE
  5
19b
100
AcDbEntity
  8
Layer_1
 62
7
100
AcDbLine
 10
6.000256
 20
0.000086
 30
0.0
 11
8.000066
 21
0.000086
 31
0.0
  0
LINE
  5
19c
100
AcDbEntity
  8
Layer_1
 62
7
100
AcDbLine
 10
8.000066
 20
0.000086
 30
0.0
 11
8.000071
 21
2.000223
 31
0.0
  0
LINE
  5
19d
100
AcDbEntity
  8
Layer_1
 62
7
100
AcDbLine
 10
8.000071
 20
2.000223
 30
0.0
 11
7.500072
 21
2.000223
 31
0.0
  0
LINE
  5
19e
100
AcDbEntity
  8
Layer_1
 62
7
100
AcDbLine
 10
7.500072
 20
2.000223
 30
0.0
 11
7.500072
 21
6.500228
 31
0.0
  0
LINE
  5
19f
100
AcDbEntity
  8
Layer_1
 62
7
100
AcDbLine
 10
7.500072
 20
6.500228
 30
0.0
 11
9.000072
 21
6.500228
 31
0.0
  0
LINE
  5
1a0
100
AcDbEntity
  8
Layer_1
 62
7
100
AcDbLine
 10
9.000072
 20
6.500228
 30
0.0
 11
9.000072
 21
2.000223
 31
0.0
  0
LINE
  5
1a1
100
AcDbEntity
  8
Layer_1
 62
7
100
AcDbLine
 10
9.000072
 20
2.000223
 30
0.0
 11
8.500073
 21
2.000223
 31
0.0
  0
LINE
  5
1a2
100
AcDbEntity
  8
Layer_1
 62
7
100
AcDbLine
 10
8.500073
 20
2.000223
 30
0.0
 11
8.500017
 21
0.000086
 31
0.0
  0
LINE
  5
1a3
100
AcDbEntity
  8
Layer_1
 62
7
100
AcDbLine
 10
8.500017
 20
0.000086
 30
0.0
 11
10.500380
 21
0.000086
 31
0.0
  0
LINE
  5
1a4
100
AcDbEntity
  8
Layer_1
 62
7
100
AcDbLine
 10
10.500380
 20
0.000086
 30
0.0
 11
10.500098
 21
2.000223
 31
0.0
  0
LINE
  5
1a5
100
AcDbEntity
  8
Layer_1
 62
7
100
AcDbLine
 10
10.500098
 20
2.000223
 30
0.0
 11
10.000099
 21
2.000223
 31
0.0
  0
LINE
  5
1a6
100
AcDbEntity
  8
Layer_1
 62
7
100
AcDbLine
 10
10.000099
 20
2.000223
 30
0.0
 11
10.000099
 21
6.500228
 31
0.0
  0
LINE
  5
1a7
100
AcDbEntity
  8
Layer_1
 62
7
100
AcDbLine
 10
10.000099
 20
6.500228
 30
0.0
 11
11.500098
 21
6.500228
 31
0.0
  0
LINE
  5
1a8
100
AcDbEntity
  8
Layer_1
 62
7
100
AcDbLine
 10
11.500098
 20
6.500228
 30
0.0
 11
11.500098
 21
2.000223
 31
0.0
  0
LINE
  5
1a9
100
AcDbEntity
  8
Layer_1
 62
7
100
AcDbLine
 10
11.500098
 20
2.000223
 30
0.0
 11
11.000097
 21
2.000223
 31
0.0
  0
LINE
  5
1aa
100
AcDbEntity
  8
Layer_1
 62
7
100
AcDbLine
 10
11.000097
 20
2.000223
 30
0.0
 11
11.000356
 21
0.000086
 31
0.0
  0
LINE
  5
1ab
100
AcDbEntity
  8
Layer_1
 62
7
100
AcDbLine
 10
11.000356
 20
0.000086
 30
0.0
 11
13.000166
 21
0.000086
 31
0.0
  0
LINE
  5
1ac
100
AcDbEntity
  8
Layer_1
 62
7
100
AcDbLine
 10
13.000166
 20
0.000086
 30
0.0
 11
13.000098
 21
2.000223
 31
0.0
  0
LINE
  5
1ad
100
AcDbEntity
  8
Layer_1
 62
7
100
AcDbLine
 10
13.000098
 20
2.000223
 30
0.0
 11
12.500099
 21
2.000223
 31
0.0
  0
LINE
  5
1ae
100
AcDbEntity
  8
Layer_1
 62
7
100
AcDbLine
 10
12.500099
 20
2.000223
 30
0.0
 11
12.500099
 21
6.500228
 31
0.0
  0
LINE
  5
1af
100
AcDbEntity
  8
Layer_1
 62
7
100
AcDbLine
 10
12.500099
 20
6.500228
 30
0.0
 11
14.000096
 21
6.500228
 31
0.0
  0
LINE
  5
1b0
100
AcDbEntity
  8
Layer_1
 62
7
100
AcDbLine
 10
14.000096
 20
6.500228
 30
0.0
 11
14.000003
 21
7.500226
 31
0.0
  0
LINE
  5
1b1
100
AcDbEntity
  8
Layer_1
 62
7
100
AcDbLine
 10
14.000003
 20
7.500226
 30
0.0
 11
13.500001
 21
7.500226
 31
0.0
  0
LINE
  5
1b2
100
AcDbEntity
  8
Layer_1
 62
7
100
AcDbLine
 10
13.500001
 20
7.500226
 30
0.0
 11
13.500001
 21
9.000209
 31
0.0
  0
LINE
  5
1b3
100
AcDbEntity
  8
Layer_1
 62
7
100
AcDbLine
 10
13.500001
 20
9.000209
 30
0.0
 11
16.500001
 21
9.000209
 31
0.0
  0
ENDSEC
  0
SECTION
  2
OBJECTS
  0
DICTIONARY
  5
C
330
0
100
AcDbDictionary
  3
ACAD_GROUP
350
D
  3
ACAD_MLINESTYLE
350
17
  0
DICTIONARY
  5
D
330
C
100
AcDbDictionary
  0
DICTIONARY
  5
1A
330
C
100
AcDbDictionary
  0
DICTIONARY
  5
17
330
C
100
AcDbDictionary
  3
STANDARD
350
18
  0
DICTIONARY
  5
19
330
C
100
AcDbDictionary
  0
ENDSEC
  0
EOF
